v 0.316705 0.033459 -0.228103
v 0.320719 0.033459 -0.228103
v 0.318712 0.03346 -0.228283
v 0.316705 0.033459 -0.228103
v 0.322602 0.033456 -0.227573
v 0.320719 0.033459 -0.228103
v 0.314823 0.033456 -0.227573
v 0.322602 0.033456 -0.227573
v 0.316705 0.033459 -0.228103
v 0.314823 0.033456 -0.227573
v 0.32435 0.033451 -0.226708
v 0.322602 0.033456 -0.227573
v 0.313074 0.033451 -0.226708
v 0.32435 0.033451 -0.226708
v 0.314823 0.033456 -0.227573
v 0.313074 0.033451 -0.226708
v 0.325956 0.033445 -0.225524
v 0.32435 0.033451 -0.226708
v 0.311469 0.033445 -0.225524
v 0.325956 0.033445 -0.225524
v 0.313074 0.033451 -0.226708
v 0.311469 0.033445 -0.225524
v 0.327408 0.033437 -0.224035
v 0.325956 0.033445 -0.225524
v 0.310017 0.033437 -0.224035
v 0.327408 0.033437 -0.224035
v 0.311469 0.033445 -0.225524
v 0.310017 0.033437 -0.224035
v 0.328697 0.033427 -0.222257
v 0.327408 0.033437 -0.224035
v 0.308727 0.033427 -0.222257
v 0.318712 0.033428 -0.222461
v 0.310017 0.033437 -0.224035
v 0.318712 0.033428 -0.222461
v 0.328697 0.033427 -0.222257
v 0.310017 0.033437 -0.224035
v 0.308727 0.033427 -0.222257
v 0.317563 0.033427 -0.222336
v 0.318712 0.033428 -0.222461
v 0.319862 0.033427 -0.222336
v 0.328697 0.033427 -0.222257
v 0.318712 0.033428 -0.222461
v 0.32093 0.033425 -0.221964
v 0.328697 0.033427 -0.222257
v 0.319862 0.033427 -0.222336
v 0.308727 0.033427 -0.222257
v 0.316495 0.033425 -0.221964
v 0.317563 0.033427 -0.222336
v 0.32093 0.033425 -0.221964
v 0.329815 0.033416 -0.220206
v 0.328697 0.033427 -0.222257
v 0.30761 0.033416 -0.220206
v 0.316495 0.033425 -0.221964
v 0.308727 0.033427 -0.222257
v 0.321913 0.033422 -0.221355
v 0.329815 0.033416 -0.220206
v 0.32093 0.033425 -0.221964
v 0.30761 0.033416 -0.220206
v 0.315512 0.033422 -0.221355
v 0.316495 0.033425 -0.221964
v 0.322807 0.033418 -0.220516
v 0.329815 0.033416 -0.220206
v 0.321913 0.033422 -0.221355
v 0.30761 0.033416 -0.220206
v 0.314618 0.033418 -0.220516
v 0.315512 0.033422 -0.221355
v 0.30761 0.033416 -0.220206
v 0.313816 0.033412 -0.219452
v 0.314618 0.033418 -0.220516
v 0.323609 0.033412 -0.219452
v 0.329815 0.033416 -0.220206
v 0.322807 0.033418 -0.220516
v 0.306674 0.033403 -0.217895
v 0.313816 0.033412 -0.219452
v 0.30761 0.033416 -0.220206
v 0.323609 0.033412 -0.219452
v 0.330751 0.033403 -0.217895
v 0.329815 0.033416 -0.220206
v 0.306674 0.033403 -0.217895
v 0.313109 0.033405 -0.218173
v 0.313816 0.033412 -0.219452
v 0.324315 0.033405 -0.218173
v 0.330751 0.033403 -0.217895
v 0.323609 0.033412 -0.219452
v 0.306674 0.033403 -0.217895
v 0.312502 0.033397 -0.216685
v 0.313109 0.033405 -0.218173
v 0.324922 0.033397 -0.216685
v 0.330751 0.033403 -0.217895
v 0.324315 0.033405 -0.218173
v 0.30593 0.033389 -0.215342
v 0.312502 0.033397 -0.216685
v 0.306674 0.033403 -0.217895
v 0.324922 0.033397 -0.216685
v 0.331495 0.033389 -0.215342
v 0.330751 0.033403 -0.217895
v 0.30593 0.033389 -0.215342
v 0.311998 0.033387 -0.214995
v 0.312502 0.033397 -0.216685
v 0.325427 0.033387 -0.214995
v 0.331495 0.033389 -0.215342
v 0.324922 0.033397 -0.216685
v 0.305386 0.033374 -0.21256
v 0.311998 0.033387 -0.214995
v 0.30593 0.033389 -0.215342
v 0.325427 0.033387 -0.214995
v 0.332039 0.033374 -0.21256
v 0.331495 0.033389 -0.215342
v 0.305386 0.033374 -0.21256
v 0.311599 0.033377 -0.213112
v 0.311998 0.033387 -0.214995
v 0.325826 0.033377 -0.213112
v 0.332039 0.033374 -0.21256
v 0.325427 0.033387 -0.214995
v 0.305386 0.033374 -0.21256
v 0.31131 0.033366 -0.211042
v 0.311599 0.033377 -0.213112
v 0.326115 0.033366 -0.211042
v 0.332039 0.033374 -0.21256
v 0.325826 0.033377 -0.213112
v 0.305053 0.033358 -0.209565
v 0.31131 0.033366 -0.211042
v 0.305386 0.033374 -0.21256
v 0.326115 0.033366 -0.211042
v 0.332372 0.033358 -0.209565
v 0.332039 0.033374 -0.21256
v 0.305053 0.033358 -0.209565
v 0.311134 0.033354 -0.208793
v 0.31131 0.033366 -0.211042
v 0.32629 0.033354 -0.208793
v 0.332372 0.033358 -0.209565
v 0.326115 0.033366 -0.211042
v 0.30494 0.03334 -0.206372
v 0.311134 0.033354 -0.208793
v 0.305053 0.033358 -0.209565
v 0.32629 0.033354 -0.208793
v 0.332485 0.03334 -0.206372
v 0.332372 0.033358 -0.209565
v 0.30494 0.03334 -0.206372
v 0.311075 0.03334 -0.206372
v 0.311134 0.033354 -0.208793
v 0.32635 0.03334 -0.206372
v 0.332485 0.03334 -0.206372
v 0.32629 0.033354 -0.208793
v 0.305053 0.033323 -0.203179
v 0.311075 0.03334 -0.206372
v 0.30494 0.03334 -0.206372
v 0.305053 0.033323 -0.203179
v 0.311134 0.033327 -0.203951
v 0.311075 0.03334 -0.206372
v 0.32629 0.033327 -0.203951
v 0.332485 0.03334 -0.206372
v 0.32635 0.03334 -0.206372
v 0.32629 0.033327 -0.203951
v 0.332372 0.033323 -0.203179
v 0.332485 0.03334 -0.206372
v 0.305053 0.033323 -0.203179
v 0.31131 0.033315 -0.201703
v 0.311134 0.033327 -0.203951
v 0.326115 0.033315 -0.201703
v 0.332372 0.033323 -0.203179
v 0.32629 0.033327 -0.203951
v 0.305386 0.033307 -0.200184
v 0.31131 0.033315 -0.201703
v 0.305053 0.033323 -0.203179
v 0.326115 0.033315 -0.201703
v 0.332039 0.033307 -0.200184
v 0.332372 0.033323 -0.203179
v 0.325826 0.033304 -0.199633
v 0.332039 0.033307 -0.200184
v 0.326115 0.033315 -0.201703
v 0.305386 0.033307 -0.200184
v 0.311599 0.033304 -0.199633
v 0.31131 0.033315 -0.201703
v 0.30593 0.033292 -0.197403
v 0.311599 0.033304 -0.199633
v 0.305386 0.033307 -0.200184
v 0.325826 0.033304 -0.199633
v 0.331495 0.033292 -0.197403
v 0.332039 0.033307 -0.200184
v 0.325427 0.033294 -0.197749
v 0.331495 0.033292 -0.197403
v 0.325826 0.033304 -0.199633
v 0.30593 0.033292 -0.197403
v 0.311998 0.033294 -0.197749
v 0.311599 0.033304 -0.199633
v 0.324922 0.033284 -0.19606
v 0.331495 0.033292 -0.197403
v 0.325427 0.033294 -0.197749
v 0.30593 0.033292 -0.197403
v 0.312502 0.033284 -0.19606
v 0.311998 0.033294 -0.197749
v 0.306674 0.033278 -0.194849
v 0.312502 0.033284 -0.19606
v 0.30593 0.033292 -0.197403
v 0.324922 0.033284 -0.19606
v 0.330751 0.033278 -0.194849
v 0.331495 0.033292 -0.197403
v 0.324315 0.033276 -0.194572
v 0.330751 0.033278 -0.194849
v 0.324922 0.033284 -0.19606
v 0.306674 0.033278 -0.194849
v 0.313109 0.033276 -0.194572
v 0.312502 0.033284 -0.19606
v 0.30761 0.033265 -0.192538
v 0.313109 0.033276 -0.194572
v 0.306674 0.033278 -0.194849
v 0.324315 0.033276 -0.194572
v 0.329815 0.033265 -0.192538
v 0.330751 0.033278 -0.194849
v 0.323609 0.033269 -0.193292
v 0.329815 0.033265 -0.192538
v 0.324315 0.033276 -0.194572
v 0.30761 0.033265 -0.192538
v 0.313816 0.033269 -0.193292
v 0.313109 0.033276 -0.194572
v 0.322807 0.033263 -0.192229
v 0.329815 0.033265 -0.192538
v 0.323609 0.033269 -0.193292
v 0.30761 0.033265 -0.192538
v 0.314618 0.033263 -0.192229
v 0.313816 0.033269 -0.193292
v 0.308727 0.033254 -0.190487
v 0.314618 0.033263 -0.192229
v 0.30761 0.033265 -0.192538
v 0.322807 0.033263 -0.192229
v 0.328697 0.033254 -0.190487
v 0.329815 0.033265 -0.192538
v 0.308727 0.033254 -0.190487
v 0.315512 0.033259 -0.191389
v 0.314618 0.033263 -0.192229
v 0.321913 0.033259 -0.191389
v 0.328697 0.033254 -0.190487
v 0.322807 0.033263 -0.192229
v 0.308727 0.033254 -0.190487
v 0.316495 0.033256 -0.19078
v 0.315512 0.033259 -0.191389
v 0.32093 0.033256 -0.19078
v 0.328697 0.033254 -0.190487
v 0.321913 0.033259 -0.191389
v 0.308727 0.033254 -0.190487
v 0.317563 0.033254 -0.190409
v 0.316495 0.033256 -0.19078
v 0.319862 0.033254 -0.190409
v 0.328697 0.033254 -0.190487
v 0.32093 0.033256 -0.19078
v 0.310017 0.033244 -0.188709
v 0.317563 0.033254 -0.190409
v 0.308727 0.033254 -0.190487
v 0.319862 0.033254 -0.190409
v 0.327408 0.033244 -0.188709
v 0.328697 0.033254 -0.190487
v 0.310017 0.033244 -0.188709
v 0.318712 0.033253 -0.190284
v 0.317563 0.033254 -0.190409
v 0.318712 0.033253 -0.190284
v 0.327408 0.033244 -0.188709
v 0.319862 0.033254 -0.190409
v 0.310017 0.033244 -0.188709
v 0.327408 0.033244 -0.188709
v 0.318712 0.033253 -0.190284
v 0.311469 0.033236 -0.187221
v 0.327408 0.033244 -0.188709
v 0.310017 0.033244 -0.188709
v 0.311469 0.033236 -0.187221
v 0.325956 0.033236 -0.187221
v 0.327408 0.033244 -0.188709
v 0.313074 0.03323 -0.186036
v 0.325956 0.033236 -0.187221
v 0.311469 0.033236 -0.187221
v 0.313074 0.03323 -0.186036
v 0.32435 0.03323 -0.186036
v 0.325956 0.033236 -0.187221
v 0.314823 0.033225 -0.185172
v 0.32435 0.03323 -0.186036
v 0.313074 0.03323 -0.186036
v 0.314823 0.033225 -0.185172
v 0.322602 0.033225 -0.185172
v 0.32435 0.03323 -0.186036
v 0.316705 0.033222 -0.184642
v 0.322602 0.033225 -0.185172
v 0.314823 0.033225 -0.185172
v 0.316705 0.033222 -0.184642
v 0.320719 0.033222 -0.184642
v 0.322602 0.033225 -0.185172
v 0.318712 0.033221 -0.184462
v 0.320719 0.033222 -0.184642
v 0.316705 0.033222 -0.184642
v 0.320719 0.029703 -0.228124
v 0.316705 0.029703 -0.228124
v 0.318712 0.029704 -0.228304
v 0.322602 0.0297 -0.227593
v 0.316705 0.029703 -0.228124
v 0.320719 0.029703 -0.228124
v 0.322602 0.0297 -0.227593
v 0.314823 0.0297 -0.227593
v 0.316705 0.029703 -0.228124
v 0.32435 0.029695 -0.226728
v 0.314823 0.0297 -0.227593
v 0.322602 0.0297 -0.227593
v 0.32435 0.029695 -0.226728
v 0.313074 0.029695 -0.226728
v 0.314823 0.0297 -0.227593
v 0.325956 0.029689 -0.225544
v 0.313074 0.029695 -0.226728
v 0.32435 0.029695 -0.226728
v 0.325956 0.029689 -0.225544
v 0.311469 0.029689 -0.225544
v 0.313074 0.029695 -0.226728
v 0.327408 0.029681 -0.224055
v 0.311469 0.029689 -0.225544
v 0.325956 0.029689 -0.225544
v 0.327408 0.029681 -0.224055
v 0.310017 0.029681 -0.224055
v 0.311469 0.029689 -0.225544
v 0.328697 0.029671 -0.222278
v 0.310017 0.029681 -0.224055
v 0.327408 0.029681 -0.224055
v 0.318712 0.029672 -0.222482
v 0.308727 0.029671 -0.222278
v 0.310017 0.029681 -0.224055
v 0.328697 0.029671 -0.222278
v 0.318712 0.029672 -0.222482
v 0.310017 0.029681 -0.224055
v 0.317563 0.029671 -0.222356
v 0.308727 0.029671 -0.222278
v 0.318712 0.029672 -0.222482
v 0.328697 0.029671 -0.222278
v 0.319862 0.029671 -0.222356
v 0.318712 0.029672 -0.222482
v 0.328697 0.029671 -0.222278
v 0.32093 0.029669 -0.221985
v 0.319862 0.029671 -0.222356
v 0.316495 0.029669 -0.221985
v 0.308727 0.029671 -0.222278
v 0.317563 0.029671 -0.222356
v 0.329815 0.02966 -0.220226
v 0.32093 0.029669 -0.221985
v 0.328697 0.029671 -0.222278
v 0.316495 0.029669 -0.221985
v 0.30761 0.02966 -0.220226
v 0.308727 0.029671 -0.222278
v 0.329815 0.02966 -0.220226
v 0.321913 0.029666 -0.221376
v 0.32093 0.029669 -0.221985
v 0.315512 0.029666 -0.221376
v 0.30761 0.02966 -0.220226
v 0.316495 0.029669 -0.221985
v 0.329815 0.02966 -0.220226
v 0.322807 0.029661 -0.220536
v 0.321913 0.029666 -0.221376
v 0.314618 0.029661 -0.220536
v 0.30761 0.02966 -0.220226
v 0.315512 0.029666 -0.221376
v 0.313816 0.029656 -0.219472
v 0.30761 0.02966 -0.220226
v 0.314618 0.029661 -0.220536
v 0.329815 0.02966 -0.220226
v 0.323609 0.029656 -0.219472
v 0.322807 0.029661 -0.220536
v 0.313816 0.029656 -0.219472
v 0.306674 0.029647 -0.217916
v 0.30761 0.02966 -0.220226
v 0.330751 0.029647 -0.217916
v 0.323609 0.029656 -0.219472
v 0.329815 0.02966 -0.220226
v 0.313109 0.029649 -0.218193
v 0.306674 0.029647 -0.217916
v 0.313816 0.029656 -0.219472
v 0.330751 0.029647 -0.217916
v 0.324315 0.029649 -0.218193
v 0.323609 0.029656 -0.219472
v 0.312502 0.029641 -0.216705
v 0.306674 0.029647 -0.217916
v 0.313109 0.029649 -0.218193
v 0.330751 0.029647 -0.217916
v 0.324922 0.029641 -0.216705
v 0.324315 0.029649 -0.218193
v 0.312502 0.029641 -0.216705
v 0.30593 0.029633 -0.215363
v 0.306674 0.029647 -0.217916
v 0.331495 0.029633 -0.215363
v 0.324922 0.029641 -0.216705
v 0.330751 0.029647 -0.217916
v 0.311998 0.029631 -0.215016
v 0.30593 0.029633 -0.215363
v 0.312502 0.029641 -0.216705
v 0.331495 0.029633 -0.215363
v 0.325427 0.029631 -0.215016
v 0.324922 0.029641 -0.216705
v 0.311998 0.029631 -0.215016
v 0.305386 0.029618 -0.212581
v 0.30593 0.029633 -0.215363
v 0.332039 0.029618 -0.212581
v 0.325427 0.029631 -0.215016
v 0.331495 0.029633 -0.215363
v 0.311599 0.029621 -0.213132
v 0.305386 0.029618 -0.212581
v 0.311998 0.029631 -0.215016
v 0.332039 0.029618 -0.212581
v 0.325826 0.029621 -0.213132
v 0.325427 0.029631 -0.215016
v 0.31131 0.02961 -0.211063
v 0.305386 0.029618 -0.212581
v 0.311599 0.029621 -0.213132
v 0.332039 0.029618 -0.212581
v 0.326115 0.02961 -0.211063
v 0.325826 0.029621 -0.213132
v 0.31131 0.02961 -0.211063
v 0.305053 0.029602 -0.209586
v 0.305386 0.029618 -0.212581
v 0.332372 0.029602 -0.209586
v 0.326115 0.02961 -0.211063
v 0.332039 0.029618 -0.212581
v 0.311134 0.029598 -0.208814
v 0.305053 0.029602 -0.209586
v 0.31131 0.02961 -0.211063
v 0.332372 0.029602 -0.209586
v 0.32629 0.029598 -0.208814
v 0.326115 0.02961 -0.211063
v 0.311134 0.029598 -0.208814
v 0.30494 0.029584 -0.206392
v 0.305053 0.029602 -0.209586
v 0.332485 0.029584 -0.206392
v 0.32629 0.029598 -0.208814
v 0.332372 0.029602 -0.209586
v 0.311075 0.029584 -0.206392
v 0.30494 0.029584 -0.206392
v 0.311134 0.029598 -0.208814
v 0.332485 0.029584 -0.206392
v 0.32635 0.029584 -0.206392
v 0.32629 0.029598 -0.208814
v 0.311075 0.029584 -0.206392
v 0.305053 0.029567 -0.2032
v 0.30494 0.029584 -0.206392
v 0.311134 0.029571 -0.203972
v 0.305053 0.029567 -0.2032
v 0.311075 0.029584 -0.206392
v 0.332485 0.029584 -0.206392
v 0.32629 0.029571 -0.203972
v 0.32635 0.029584 -0.206392
v 0.332372 0.029567 -0.2032
v 0.32629 0.029571 -0.203972
v 0.332485 0.029584 -0.206392
v 0.31131 0.029559 -0.201723
v 0.305053 0.029567 -0.2032
v 0.311134 0.029571 -0.203972
v 0.332372 0.029567 -0.2032
v 0.326115 0.029559 -0.201723
v 0.32629 0.029571 -0.203972
v 0.31131 0.029559 -0.201723
v 0.305386 0.029551 -0.200205
v 0.305053 0.029567 -0.2032
v 0.332039 0.029551 -0.200205
v 0.326115 0.029559 -0.201723
v 0.332372 0.029567 -0.2032
v 0.332039 0.029551 -0.200205
v 0.325826 0.029548 -0.199654
v 0.326115 0.029559 -0.201723
v 0.311599 0.029548 -0.199654
v 0.305386 0.029551 -0.200205
v 0.31131 0.029559 -0.201723
v 0.311599 0.029548 -0.199654
v 0.30593 0.029536 -0.197423
v 0.305386 0.029551 -0.200205
v 0.331495 0.029536 -0.197423
v 0.325826 0.029548 -0.199654
v 0.332039 0.029551 -0.200205
v 0.331495 0.029536 -0.197423
v 0.325427 0.029537 -0.19777
v 0.325826 0.029548 -0.199654
v 0.311998 0.029537 -0.19777
v 0.30593 0.029536 -0.197423
v 0.311599 0.029548 -0.199654
v 0.331495 0.029536 -0.197423
v 0.324922 0.029528 -0.196081
v 0.325427 0.029537 -0.19777
v 0.312502 0.029528 -0.196081
v 0.30593 0.029536 -0.197423
v 0.311998 0.029537 -0.19777
v 0.312502 0.029528 -0.196081
v 0.306674 0.029522 -0.19487
v 0.30593 0.029536 -0.197423
v 0.330751 0.029522 -0.19487
v 0.324922 0.029528 -0.196081
v 0.331495 0.029536 -0.197423
v 0.330751 0.029522 -0.19487
v 0.324315 0.02952 -0.194593
v 0.324922 0.029528 -0.196081
v 0.313109 0.02952 -0.194593
v 0.306674 0.029522 -0.19487
v 0.312502 0.029528 -0.196081
v 0.313109 0.02952 -0.194593
v 0.30761 0.029509 -0.192559
v 0.306674 0.029522 -0.19487
v 0.329815 0.029509 -0.192559
v 0.324315 0.02952 -0.194593
v 0.330751 0.029522 -0.19487
v 0.329815 0.029509 -0.192559
v 0.323609 0.029513 -0.193313
v 0.324315 0.02952 -0.194593
v 0.313816 0.029513 -0.193313
v 0.30761 0.029509 -0.192559
v 0.313109 0.02952 -0.194593
v 0.329815 0.029509 -0.192559
v 0.322807 0.029507 -0.19225
v 0.323609 0.029513 -0.193313
v 0.314618 0.029507 -0.19225
v 0.30761 0.029509 -0.192559
v 0.313816 0.029513 -0.193313
v 0.314618 0.029507 -0.19225
v 0.308727 0.029498 -0.190508
v 0.30761 0.029509 -0.192559
v 0.328697 0.029498 -0.190508
v 0.322807 0.029507 -0.19225
v 0.329815 0.029509 -0.192559
v 0.315512 0.029503 -0.191409
v 0.308727 0.029498 -0.190508
v 0.314618 0.029507 -0.19225
v 0.328697 0.029498 -0.190508
v 0.321913 0.029503 -0.191409
v 0.322807 0.029507 -0.19225
v 0.316495 0.029499 -0.1908
v 0.308727 0.029498 -0.190508
v 0.315512 0.029503 -0.191409
v 0.328697 0.029498 -0.190508
v 0.32093 0.029499 -0.1908
v 0.321913 0.029503 -0.191409
v 0.317563 0.029497 -0.190429
v 0.308727 0.029498 -0.190508
v 0.316495 0.029499 -0.1908
v 0.328697 0.029498 -0.190508
v 0.319862 0.029497 -0.190429
v 0.32093 0.029499 -0.1908
v 0.317563 0.029497 -0.190429
v 0.310017 0.029488 -0.18873
v 0.308727 0.029498 -0.190508
v 0.327408 0.029488 -0.18873
v 0.319862 0.029497 -0.190429
v 0.328697 0.029498 -0.190508
v 0.318712 0.029497 -0.190304
v 0.310017 0.029488 -0.18873
v 0.317563 0.029497 -0.190429
v 0.327408 0.029488 -0.18873
v 0.318712 0.029497 -0.190304
v 0.319862 0.029497 -0.190429
v 0.327408 0.029488 -0.18873
v 0.310017 0.029488 -0.18873
v 0.318712 0.029497 -0.190304
v 0.327408 0.029488 -0.18873
v 0.311469 0.02948 -0.187241
v 0.310017 0.029488 -0.18873
v 0.325956 0.02948 -0.187241
v 0.311469 0.02948 -0.187241
v 0.327408 0.029488 -0.18873
v 0.325956 0.02948 -0.187241
v 0.313074 0.029474 -0.186057
v 0.311469 0.02948 -0.187241
v 0.32435 0.029474 -0.186057
v 0.313074 0.029474 -0.186057
v 0.325956 0.02948 -0.187241
v 0.32435 0.029474 -0.186057
v 0.314823 0.029469 -0.185192
v 0.313074 0.029474 -0.186057
v 0.322602 0.029469 -0.185192
v 0.314823 0.029469 -0.185192
v 0.32435 0.029474 -0.186057
v 0.322602 0.029469 -0.185192
v 0.316705 0.029466 -0.184662
v 0.314823 0.029469 -0.185192
v 0.320719 0.029466 -0.184662
v 0.316705 0.029466 -0.184662
v 0.322602 0.029469 -0.185192
v 0.320719 0.029466 -0.184662
v 0.318712 0.029465 -0.184482
v 0.316705 0.029466 -0.184662
v 0.316705 0.033222 -0.184642
v 0.314823 0.033225 -0.185172
v 0.314823 0.029469 -0.185192
v 0.316705 0.029466 -0.184662
v 0.314823 0.033225 -0.185172
v 0.313074 0.03323 -0.186036
v 0.313074 0.029474 -0.186057
v 0.314823 0.029469 -0.185192
v 0.313074 0.03323 -0.186036
v 0.311469 0.033236 -0.187221
v 0.311469 0.02948 -0.187241
v 0.313074 0.029474 -0.186057
v 0.311469 0.033236 -0.187221
v 0.310017 0.033244 -0.188709
v 0.310017 0.029488 -0.18873
v 0.311469 0.02948 -0.187241
v 0.310017 0.033244 -0.188709
v 0.308727 0.033254 -0.190487
v 0.308727 0.029498 -0.190508
v 0.310017 0.029488 -0.18873
v 0.308727 0.033254 -0.190487
v 0.30761 0.033265 -0.192538
v 0.30761 0.029509 -0.192559
v 0.308727 0.029498 -0.190508
v 0.30761 0.033265 -0.192538
v 0.306674 0.033278 -0.194849
v 0.306674 0.029522 -0.19487
v 0.30761 0.029509 -0.192559
v 0.306674 0.033278 -0.194849
v 0.30593 0.033292 -0.197403
v 0.30593 0.029536 -0.197423
v 0.306674 0.029522 -0.19487
v 0.30593 0.033292 -0.197403
v 0.305386 0.033307 -0.200184
v 0.305386 0.029551 -0.200205
v 0.30593 0.029536 -0.197423
v 0.305386 0.033307 -0.200184
v 0.305053 0.033323 -0.203179
v 0.305053 0.029567 -0.2032
v 0.305386 0.029551 -0.200205
v 0.305053 0.033323 -0.203179
v 0.30494 0.03334 -0.206372
v 0.30494 0.029584 -0.206392
v 0.305053 0.029567 -0.2032
v 0.30494 0.03334 -0.206372
v 0.305053 0.033358 -0.209565
v 0.305053 0.029602 -0.209586
v 0.30494 0.029584 -0.206392
v 0.305053 0.033358 -0.209565
v 0.305386 0.033374 -0.21256
v 0.305386 0.029618 -0.212581
v 0.305053 0.029602 -0.209586
v 0.305386 0.033374 -0.21256
v 0.30593 0.033389 -0.215342
v 0.30593 0.029633 -0.215363
v 0.305386 0.029618 -0.212581
v 0.30593 0.033389 -0.215342
v 0.306674 0.033403 -0.217895
v 0.306674 0.029647 -0.217916
v 0.30593 0.029633 -0.215363
v 0.306674 0.033403 -0.217895
v 0.30761 0.033416 -0.220206
v 0.30761 0.02966 -0.220226
v 0.306674 0.029647 -0.217916
v 0.30761 0.033416 -0.220206
v 0.308727 0.033427 -0.222257
v 0.308727 0.029671 -0.222278
v 0.30761 0.02966 -0.220226
v 0.308727 0.033427 -0.222257
v 0.310017 0.033437 -0.224035
v 0.310017 0.029681 -0.224055
v 0.308727 0.029671 -0.222278
v 0.310017 0.033437 -0.224035
v 0.311469 0.033445 -0.225524
v 0.311469 0.029689 -0.225544
v 0.310017 0.029681 -0.224055
v 0.311469 0.033445 -0.225524
v 0.313074 0.033451 -0.226708
v 0.313074 0.029695 -0.226728
v 0.311469 0.029689 -0.225544
v 0.313074 0.033451 -0.226708
v 0.314823 0.033456 -0.227573
v 0.314823 0.0297 -0.227593
v 0.313074 0.029695 -0.226728
v 0.314823 0.033456 -0.227573
v 0.316705 0.033459 -0.228103
v 0.316705 0.029703 -0.228124
v 0.314823 0.0297 -0.227593
v 0.316705 0.033459 -0.228103
v 0.318712 0.03346 -0.228283
v 0.318712 0.029704 -0.228304
v 0.316705 0.029703 -0.228124
v 0.318712 0.03346 -0.228283
v 0.320719 0.033459 -0.228103
v 0.320719 0.029703 -0.228124
v 0.318712 0.029704 -0.228304
v 0.320719 0.033459 -0.228103
v 0.322602 0.033456 -0.227573
v 0.322602 0.0297 -0.227593
v 0.320719 0.029703 -0.228124
v 0.322602 0.033456 -0.227573
v 0.32435 0.033451 -0.226708
v 0.32435 0.029695 -0.226728
v 0.322602 0.0297 -0.227593
v 0.32435 0.033451 -0.226708
v 0.325956 0.033445 -0.225524
v 0.325956 0.029689 -0.225544
v 0.32435 0.029695 -0.226728
v 0.325956 0.033445 -0.225524
v 0.327408 0.033437 -0.224035
v 0.327408 0.029681 -0.224055
v 0.325956 0.029689 -0.225544
v 0.327408 0.033437 -0.224035
v 0.328697 0.033427 -0.222257
v 0.328697 0.029671 -0.222278
v 0.327408 0.029681 -0.224055
v 0.328697 0.033427 -0.222257
v 0.329815 0.033416 -0.220206
v 0.329815 0.02966 -0.220226
v 0.328697 0.029671 -0.222278
v 0.329815 0.033416 -0.220206
v 0.330751 0.033403 -0.217895
v 0.330751 0.029647 -0.217916
v 0.329815 0.02966 -0.220226
v 0.330751 0.033403 -0.217895
v 0.331495 0.033389 -0.215342
v 0.331495 0.029633 -0.215363
v 0.330751 0.029647 -0.217916
v 0.331495 0.033389 -0.215342
v 0.332039 0.033374 -0.21256
v 0.332039 0.029618 -0.212581
v 0.331495 0.029633 -0.215363
v 0.332039 0.033374 -0.21256
v 0.332372 0.033358 -0.209565
v 0.332372 0.029602 -0.209586
v 0.332039 0.029618 -0.212581
v 0.332372 0.033358 -0.209565
v 0.332485 0.03334 -0.206372
v 0.332485 0.029584 -0.206392
v 0.332372 0.029602 -0.209586
v 0.332485 0.03334 -0.206372
v 0.332372 0.033323 -0.203179
v 0.332372 0.029567 -0.2032
v 0.332485 0.029584 -0.206392
v 0.332372 0.033323 -0.203179
v 0.332039 0.033307 -0.200184
v 0.332039 0.029551 -0.200205
v 0.332372 0.029567 -0.2032
v 0.332039 0.033307 -0.200184
v 0.331495 0.033292 -0.197403
v 0.331495 0.029536 -0.197423
v 0.332039 0.029551 -0.200205
v 0.331495 0.033292 -0.197403
v 0.330751 0.033278 -0.194849
v 0.330751 0.029522 -0.19487
v 0.331495 0.029536 -0.197423
v 0.330751 0.033278 -0.194849
v 0.329815 0.033265 -0.192538
v 0.329815 0.029509 -0.192559
v 0.330751 0.029522 -0.19487
v 0.329815 0.033265 -0.192538
v 0.328697 0.033254 -0.190487
v 0.328697 0.029498 -0.190508
v 0.329815 0.029509 -0.192559
v 0.328697 0.033254 -0.190487
v 0.327408 0.033244 -0.188709
v 0.327408 0.029488 -0.18873
v 0.328697 0.029498 -0.190508
v 0.327408 0.033244 -0.188709
v 0.325956 0.033236 -0.187221
v 0.325956 0.02948 -0.187241
v 0.327408 0.029488 -0.18873
v 0.325956 0.033236 -0.187221
v 0.32435 0.03323 -0.186036
v 0.32435 0.029474 -0.186057
v 0.325956 0.02948 -0.187241
v 0.32435 0.03323 -0.186036
v 0.322602 0.033225 -0.185172
v 0.322602 0.029469 -0.185192
v 0.32435 0.029474 -0.186057
v 0.322602 0.033225 -0.185172
v 0.320719 0.033222 -0.184642
v 0.320719 0.029466 -0.184662
v 0.322602 0.029469 -0.185192
v 0.320719 0.033222 -0.184642
v 0.318712 0.033221 -0.184462
v 0.318712 0.029465 -0.184482
v 0.320719 0.029466 -0.184662
v 0.318712 0.033221 -0.184462
v 0.316705 0.033222 -0.184642
v 0.316705 0.029466 -0.184662
v 0.318712 0.029465 -0.184482
v 0.317563 0.033427 -0.222336
v 0.316495 0.033425 -0.221964
v 0.316495 0.029669 -0.221985
v 0.317563 0.029671 -0.222356
v 0.316495 0.033425 -0.221964
v 0.315512 0.033422 -0.221355
v 0.315512 0.029666 -0.221376
v 0.316495 0.029669 -0.221985
v 0.315512 0.033422 -0.221355
v 0.314618 0.033418 -0.220516
v 0.314618 0.029661 -0.220536
v 0.315512 0.029666 -0.221376
v 0.314618 0.033418 -0.220516
v 0.313816 0.033412 -0.219452
v 0.313816 0.029656 -0.219472
v 0.314618 0.029661 -0.220536
v 0.313816 0.033412 -0.219452
v 0.313109 0.033405 -0.218173
v 0.313109 0.029649 -0.218193
v 0.313816 0.029656 -0.219472
v 0.313109 0.033405 -0.218173
v 0.312502 0.033397 -0.216685
v 0.312502 0.029641 -0.216705
v 0.313109 0.029649 -0.218193
v 0.312502 0.033397 -0.216685
v 0.311998 0.033387 -0.214995
v 0.311998 0.029631 -0.215016
v 0.312502 0.029641 -0.216705
v 0.311998 0.033387 -0.214995
v 0.311599 0.033377 -0.213112
v 0.311599 0.029621 -0.213132
v 0.311998 0.029631 -0.215016
v 0.311599 0.033377 -0.213112
v 0.31131 0.033366 -0.211042
v 0.31131 0.02961 -0.211063
v 0.311599 0.029621 -0.213132
v 0.31131 0.033366 -0.211042
v 0.311134 0.033354 -0.208793
v 0.311134 0.029598 -0.208814
v 0.31131 0.02961 -0.211063
v 0.311134 0.033354 -0.208793
v 0.311075 0.03334 -0.206372
v 0.311075 0.029584 -0.206392
v 0.311134 0.029598 -0.208814
v 0.311075 0.03334 -0.206372
v 0.311134 0.033327 -0.203951
v 0.311134 0.029571 -0.203972
v 0.311075 0.029584 -0.206392
v 0.311134 0.033327 -0.203951
v 0.31131 0.033315 -0.201703
v 0.31131 0.029559 -0.201723
v 0.311134 0.029571 -0.203972
v 0.31131 0.033315 -0.201703
v 0.311599 0.033304 -0.199633
v 0.311599 0.029548 -0.199654
v 0.31131 0.029559 -0.201723
v 0.311599 0.033304 -0.199633
v 0.311998 0.033294 -0.197749
v 0.311998 0.029537 -0.19777
v 0.311599 0.029548 -0.199654
v 0.311998 0.033294 -0.197749
v 0.312502 0.033284 -0.19606
v 0.312502 0.029528 -0.196081
v 0.311998 0.029537 -0.19777
v 0.312502 0.033284 -0.19606
v 0.313109 0.033276 -0.194572
v 0.313109 0.02952 -0.194593
v 0.312502 0.029528 -0.196081
v 0.313109 0.033276 -0.194572
v 0.313816 0.033269 -0.193292
v 0.313816 0.029513 -0.193313
v 0.313109 0.02952 -0.194593
v 0.313816 0.033269 -0.193292
v 0.314618 0.033263 -0.192229
v 0.314618 0.029507 -0.19225
v 0.313816 0.029513 -0.193313
v 0.314618 0.033263 -0.192229
v 0.315512 0.033259 -0.191389
v 0.315512 0.029503 -0.191409
v 0.314618 0.029507 -0.19225
v 0.315512 0.033259 -0.191389
v 0.316495 0.033256 -0.19078
v 0.316495 0.029499 -0.1908
v 0.315512 0.029503 -0.191409
v 0.316495 0.033256 -0.19078
v 0.317563 0.033254 -0.190409
v 0.317563 0.029497 -0.190429
v 0.316495 0.029499 -0.1908
v 0.317563 0.033254 -0.190409
v 0.318712 0.033253 -0.190284
v 0.318712 0.029497 -0.190304
v 0.317563 0.029497 -0.190429
v 0.318712 0.033253 -0.190284
v 0.319862 0.033254 -0.190409
v 0.319862 0.029497 -0.190429
v 0.318712 0.029497 -0.190304
v 0.319862 0.033254 -0.190409
v 0.32093 0.033256 -0.19078
v 0.32093 0.029499 -0.1908
v 0.319862 0.029497 -0.190429
v 0.32093 0.033256 -0.19078
v 0.321913 0.033259 -0.191389
v 0.321913 0.029503 -0.191409
v 0.32093 0.029499 -0.1908
v 0.321913 0.033259 -0.191389
v 0.322807 0.033263 -0.192229
v 0.322807 0.029507 -0.19225
v 0.321913 0.029503 -0.191409
v 0.322807 0.033263 -0.192229
v 0.323609 0.033269 -0.193292
v 0.323609 0.029513 -0.193313
v 0.322807 0.029507 -0.19225
v 0.323609 0.033269 -0.193292
v 0.324315 0.033276 -0.194572
v 0.324315 0.02952 -0.194593
v 0.323609 0.029513 -0.193313
v 0.324315 0.033276 -0.194572
v 0.324922 0.033284 -0.19606
v 0.324922 0.029528 -0.196081
v 0.324315 0.02952 -0.194593
v 0.324922 0.033284 -0.19606
v 0.325427 0.033294 -0.197749
v 0.325427 0.029537 -0.19777
v 0.324922 0.029528 -0.196081
v 0.325427 0.033294 -0.197749
v 0.325826 0.033304 -0.199633
v 0.325826 0.029548 -0.199654
v 0.325427 0.029537 -0.19777
v 0.325826 0.033304 -0.199633
v 0.326115 0.033315 -0.201703
v 0.326115 0.029559 -0.201723
v 0.325826 0.029548 -0.199654
v 0.326115 0.033315 -0.201703
v 0.32629 0.033327 -0.203951
v 0.32629 0.029571 -0.203972
v 0.326115 0.029559 -0.201723
v 0.32629 0.033327 -0.203951
v 0.32635 0.03334 -0.206372
v 0.32635 0.029584 -0.206392
v 0.32629 0.029571 -0.203972
v 0.32635 0.03334 -0.206372
v 0.32629 0.033354 -0.208793
v 0.32629 0.029598 -0.208814
v 0.32635 0.029584 -0.206392
v 0.32629 0.033354 -0.208793
v 0.326115 0.033366 -0.211042
v 0.326115 0.02961 -0.211063
v 0.32629 0.029598 -0.208814
v 0.326115 0.033366 -0.211042
v 0.325826 0.033377 -0.213112
v 0.325826 0.029621 -0.213132
v 0.326115 0.02961 -0.211063
v 0.325826 0.033377 -0.213112
v 0.325427 0.033387 -0.214995
v 0.325427 0.029631 -0.215016
v 0.325826 0.029621 -0.213132
v 0.325427 0.033387 -0.214995
v 0.324922 0.033397 -0.216685
v 0.324922 0.029641 -0.216705
v 0.325427 0.029631 -0.215016
v 0.324922 0.033397 -0.216685
v 0.324315 0.033405 -0.218173
v 0.324315 0.029649 -0.218193
v 0.324922 0.029641 -0.216705
v 0.324315 0.033405 -0.218173
v 0.323609 0.033412 -0.219452
v 0.323609 0.029656 -0.219472
v 0.324315 0.029649 -0.218193
v 0.323609 0.033412 -0.219452
v 0.322807 0.033418 -0.220516
v 0.322807 0.029661 -0.220536
v 0.323609 0.029656 -0.219472
v 0.322807 0.033418 -0.220516
v 0.321913 0.033422 -0.221355
v 0.321913 0.029666 -0.221376
v 0.322807 0.029661 -0.220536
v 0.321913 0.033422 -0.221355
v 0.32093 0.033425 -0.221964
v 0.32093 0.029669 -0.221985
v 0.321913 0.029666 -0.221376
v 0.32093 0.033425 -0.221964
v 0.319862 0.033427 -0.222336
v 0.319862 0.029671 -0.222356
v 0.32093 0.029669 -0.221985
v 0.319862 0.033427 -0.222336
v 0.318712 0.033428 -0.222461
v 0.318712 0.029672 -0.222482
v 0.319862 0.029671 -0.222356
v 0.318712 0.033428 -0.222461
v 0.317563 0.033427 -0.222336
v 0.317563 0.029671 -0.222356
v 0.318712 0.029672 -0.222482
vn -0 1 0.0057
vn -0 1 0.0056
vn -0 1 0.0056
vn -0 1 0.0057
vn -0 1 0.0053
vn -0 1 0.0056
vn -0 1 0.0053
vn -0 1 0.0053
vn -0 1 0.0057
vn -0 1 0.0053
vn -0 1 0.0052
vn -0 1 0.0053
vn -0 1 0.0052
vn -0 1 0.0052
vn -0 1 0.0053
vn -0 1 0.0052
vn -0 1 0.0053
vn -0 1 0.0052
vn -0 1 0.0053
vn -0 1 0.0053
vn -0 1 0.0052
vn -0 1 0.0053
vn -0 1 0.0056
vn -0 1 0.0053
vn -0 1 0.0056
vn -0 1 0.0056
vn -0 1 0.0053
vn -0 1 0.0056
vn -0 1 0.0055
vn -0 1 0.0056
vn -0 1 0.0055
vn -0 1 0.0054
vn -0 1 0.0056
vn -0 1 0.0054
vn -0 1 0.0055
vn -0 1 0.0056
vn -0 1 0.0055
vn -0 1 0.0053
vn -0 1 0.0054
vn -0 1 0.0056
vn -0 1 0.0055
vn -0 1 0.0054
vn -0 1 0.0054
vn -0 1 0.0055
vn -0 1 0.0056
vn -0 1 0.0055
vn -0 1 0.0054
vn -0 1 0.0053
vn -0 1 0.0054
vn -0 1 0.0055
vn -0 1 0.0055
vn -0 1 0.0055
vn -0 1 0.0054
vn -0 1 0.0055
vn -0 1 0.0054
vn -0 1 0.0055
vn -0 1 0.0054
vn -0 1 0.0055
vn -0 1 0.0053
vn -0 1 0.0054
vn -0 1 0.0053
vn -0 1 0.0055
vn -0 1 0.0054
vn -0 1 0.0055
vn -0 1 0.0054
vn -0 1 0.0053
vn -0 1 0.0055
vn -0 1 0.0056
vn -0 1 0.0054
vn -0 1 0.0056
vn -0 1 0.0055
vn -0 1 0.0053
vn -0.0001 1 0.0055
vn -0 1 0.0056
vn -0 1 0.0055
vn -0 1 0.0056
vn 0.0001 1 0.0055
vn -0 1 0.0055
vn -0.0001 1 0.0055
vn -0.0001 1 0.0054
vn -0 1 0.0056
vn 0.0001 1 0.0054
vn 0.0001 1 0.0055
vn -0 1 0.0056
vn -0.0001 1 0.0055
vn -0.0001 1 0.0055
vn -0.0001 1 0.0054
vn 0.0001 1 0.0055
vn 0.0001 1 0.0055
vn 0.0001 1 0.0054
vn -0 1 0.0055
vn -0.0001 1 0.0055
vn -0.0001 1 0.0055
vn 0.0001 1 0.0055
vn -0 1 0.0055
vn 0.0001 1 0.0055
vn -0 1 0.0055
vn -0 1 0.0057
vn -0.0001 1 0.0055
vn -0 1 0.0057
vn -0 1 0.0055
vn 0.0001 1 0.0055
vn -0 1 0.0054
vn -0 1 0.0057
vn -0 1 0.0055
vn -0 1 0.0057
vn -0 1 0.0054
vn -0 1 0.0055
vn -0 1 0.0054
vn -0 1 0.0053
vn -0 1 0.0057
vn -0 1 0.0053
vn -0 1 0.0054
vn -0 1 0.0057
vn -0 1 0.0054
vn -0 1 0.0053
vn -0 1 0.0053
vn -0 1 0.0053
vn -0 1 0.0054
vn -0 1 0.0053
vn -0 1 0.0055
vn -0 1 0.0053
vn -0 1 0.0054
vn -0 1 0.0053
vn -0 1 0.0055
vn -0 1 0.0054
vn -0 1 0.0055
vn -0 1 0.0055
vn -0 1 0.0053
vn -0 1 0.0055
vn -0 1 0.0055
vn -0 1 0.0053
vn -0 1 0.0055
vn -0 1 0.0055
vn -0 1 0.0055
vn -0 1 0.0055
vn -0 1 0.0055
vn -0 1 0.0055
vn -0 1 0.0055
vn -0 1 0.0056
vn -0 1 0.0055
vn -0 1 0.0056
vn -0 1 0.0055
vn -0 1 0.0055
vn -0 1 0.0053
vn -0 1 0.0056
vn -0 1 0.0055
vn -0 1 0.0053
vn -0 1 0.0054
vn -0 1 0.0056
vn -0 1 0.0053
vn -0 1 0.0055
vn -0 1 0.0056
vn -0 1 0.0053
vn -0 1 0.0053
vn -0 1 0.0055
vn -0 1 0.0053
vn -0 1 0.0053
vn -0 1 0.0054
vn -0 1 0.0053
vn -0 1 0.0053
vn -0 1 0.0053
vn -0 1 0.0057
vn -0 1 0.0053
vn -0 1 0.0053
vn -0 1 0.0053
vn -0 1 0.0054
vn -0 1 0.0053
vn -0 1 0.0053
vn -0 1 0.0054
vn -0 1 0.0053
vn -0 1 0.0057
vn -0 1 0.0053
vn -0 1 0.0053
vn -0 1 0.0055
vn -0 1 0.0053
vn -0 1 0.0057
vn -0 1 0.0053
vn -0 1 0.0055
vn -0 1 0.0054
vn -0 1 0.0057
vn -0 1 0.0055
vn -0 1 0.0053
vn -0 1 0.0055
vn -0 1 0.0057
vn -0 1 0.0053
vn -0.0001 1 0.0055
vn -0 1 0.0055
vn -0 1 0.0057
vn -0 1 0.0055
vn 0.0001 1 0.0055
vn -0 1 0.0057
vn 0.0001 1 0.0055
vn 0.0001 1 0.0055
vn -0 1 0.0055
vn -0.0001 1 0.0055
vn -0.0001 1 0.0055
vn -0 1 0.0055
vn -0 1 0.0054
vn -0.0001 1 0.0055
vn -0.0001 1 0.0055
vn 0.0001 1 0.0055
vn -0 1 0.0054
vn 0.0001 1 0.0055
vn 0.0001 1 0.0055
vn -0 1 0.0054
vn 0.0001 1 0.0055
vn -0 1 0.0054
vn -0.0001 1 0.0055
vn -0.0001 1 0.0055
vn -0 1 0.0056
vn -0.0001 1 0.0055
vn -0 1 0.0054
vn 0.0001 1 0.0055
vn -0 1 0.0056
vn -0 1 0.0054
vn -0 1 0.0054
vn -0.0001 1 0.0055
vn -0 1 0.0056
vn 0.0001 1 0.0055
vn -0 1 0.0054
vn -0 1 0.0056
vn -0 1 0.0054
vn -0 1 0.0054
vn 0.0001 1 0.0055
vn -0 1 0.0054
vn -0 1 0.0054
vn -0.0001 1 0.0055
vn -0 1 0.0054
vn -0.0001 1 0.005
vn -0 1 0.0054
vn 0.0001 1 0.005
vn -0 1 0.0054
vn -0 1 0.0054
vn -0 1 0.0054
vn -0.0001 1 0.0055
vn -0.0001 1 0.005
vn 0.0001 1 0.0055
vn -0 1 0.0054
vn 0.0001 1 0.005
vn -0 1 0.0054
vn -0 1 0.0056
vn -0.0001 1 0.0055
vn -0 1 0.0059
vn -0 1 0.0054
vn 0.0001 1 0.0055
vn -0 1 0.0056
vn -0 1 0.0056
vn -0 1 0.0054
vn -0 1 0.0059
vn -0 1 0.0056
vn -0 1 0.0054
vn -0 1 0.0056
vn -0 1 0.0053
vn -0 1 0.0056
vn -0 1 0.0053
vn -0 1 0.0056
vn -0 1 0.0059
vn -0 1 0.0056
vn -0 1 0.0056
vn -0 1 0.0053
vn -0 1 0.0053
vn -0 1 0.0056
vn -0 1 0.0056
vn -0 1 0.0053
vn -0 1 0.0053
vn -0 1 0.0056
vn -0 1 0.0052
vn -0 1 0.0053
vn -0 1 0.0053
vn -0 1 0.0052
vn -0 1 0.0052
vn -0 1 0.0053
vn -0 1 0.0053
vn -0 1 0.0052
vn -0 1 0.0052
vn -0 1 0.0053
vn -0 1 0.0053
vn -0 1 0.0052
vn -0 1 0.0056
vn -0 1 0.0053
vn -0 1 0.0053
vn -0 1 0.0056
vn -0 1 0.0057
vn -0 1 0.0053
vn -0 1 0.0056
vn -0 1 0.0057
vn -0 1 0.0056
vn -0 -1 -0.0056
vn -0 -1 -0.0057
vn -0 -1 -0.0052
vn -0 -1 -0.0053
vn -0 -1 -0.0057
vn -0 -1 -0.0056
vn -0 -1 -0.0053
vn -0 -1 -0.0053
vn -0 -1 -0.0057
vn -0 -1 -0.0052
vn -0 -1 -0.0053
vn -0 -1 -0.0053
vn -0 -1 -0.0052
vn -0 -1 -0.0052
vn -0 -1 -0.0053
vn -0 -1 -0.0053
vn -0 -1 -0.0052
vn -0 -1 -0.0052
vn -0 -1 -0.0053
vn -0 -1 -0.0053
vn -0 -1 -0.0052
vn -0 -1 -0.0056
vn -0 -1 -0.0053
vn -0 -1 -0.0053
vn -0 -1 -0.0056
vn -0 -1 -0.0056
vn -0 -1 -0.0053
vn -0 -1 -0.0055
vn -0 -1 -0.0056
vn -0 -1 -0.0056
vn -0 -1 -0.0053
vn -0 -1 -0.0055
vn -0 -1 -0.0056
vn -0 -1 -0.0055
vn -0 -1 -0.0053
vn -0 -1 -0.0056
vn -0 -1 -0.0057
vn -0 -1 -0.0055
vn -0 -1 -0.0053
vn -0 -1 -0.0055
vn -0 -1 -0.0056
vn -0 -1 -0.0053
vn -0 -1 -0.0055
vn -0 -1 -0.0054
vn -0 -1 -0.0056
vn -0 -1 -0.0054
vn -0 -1 -0.0055
vn -0 -1 -0.0057
vn -0 -1 -0.0055
vn -0 -1 -0.0054
vn -0 -1 -0.0055
vn -0 -1 -0.0054
vn -0 -1 -0.0055
vn -0 -1 -0.0055
vn -0 -1 -0.0055
vn -0 -1 -0.0051
vn -0 -1 -0.0054
vn -0 -1 -0.0051
vn -0 -1 -0.0055
vn -0 -1 -0.0054
vn -0 -1 -0.0055
vn 0.0001 -1 -0.0057
vn -0 -1 -0.0051
vn -0.0001 -1 -0.0057
vn -0 -1 -0.0055
vn -0 -1 -0.0051
vn -0 -1 -0.005
vn -0 -1 -0.0055
vn -0.0001 -1 -0.0057
vn -0 -1 -0.0055
vn -0 -1 -0.005
vn 0.0001 -1 -0.0057
vn -0 -1 -0.005
vn 0.0001 -1 -0.0055
vn -0 -1 -0.0055
vn -0.0001 -1 -0.0055
vn -0 -1 -0.005
vn -0 -1 -0.0055
vn 0.0001 -1 -0.0054
vn 0.0001 -1 -0.0055
vn -0 -1 -0.005
vn -0.0001 -1 -0.0055
vn -0.0001 -1 -0.0054
vn -0 -1 -0.005
vn 0.0001 -1 -0.0055
vn 0.0001 -1 -0.0055
vn 0.0001 -1 -0.0054
vn -0.0001 -1 -0.0055
vn -0.0001 -1 -0.0055
vn -0.0001 -1 -0.0054
vn 0.0001 -1 -0.0055
vn -0 -1 -0.0055
vn 0.0001 -1 -0.0055
vn -0 -1 -0.0055
vn -0.0001 -1 -0.0055
vn -0.0001 -1 -0.0055
vn -0 -1 -0.0057
vn -0 -1 -0.0055
vn 0.0001 -1 -0.0055
vn -0 -1 -0.0055
vn -0 -1 -0.0057
vn -0.0001 -1 -0.0055
vn -0 -1 -0.0057
vn -0 -1 -0.0054
vn -0 -1 -0.0055
vn -0 -1 -0.0054
vn -0 -1 -0.0057
vn -0 -1 -0.0055
vn -0 -1 -0.0053
vn -0 -1 -0.0054
vn -0 -1 -0.0057
vn -0 -1 -0.0054
vn -0 -1 -0.0053
vn -0 -1 -0.0057
vn -0 -1 -0.0053
vn -0 -1 -0.0054
vn -0 -1 -0.0053
vn -0 -1 -0.0054
vn -0 -1 -0.0057
vn -0 -1 -0.0053
vn -0 -1 -0.0053
vn -0 -1 -0.0055
vn -0 -1 -0.0054
vn -0 -1 -0.0055
vn -0 -1 -0.0057
vn -0 -1 -0.0054
vn -0 -1 -0.0055
vn -0 -1 -0.0055
vn -0 -1 -0.0053
vn -0 -1 -0.0055
vn -0 -1 -0.0055
vn -0 -1 -0.0057
vn -0 -1 -0.0055
vn -0 -1 -0.0055
vn -0 -1 -0.0055
vn -0 -1 -0.0055
vn -0 -1 -0.0055
vn -0 -1 -0.0055
vn -0 -1 -0.0056
vn -0 -1 -0.0055
vn -0 -1 -0.0055
vn -0 -1 -0.0055
vn -0 -1 -0.0056
vn -0 -1 -0.0055
vn -0 -1 -0.0056
vn -0 -1 -0.0053
vn -0 -1 -0.0055
vn -0 -1 -0.0054
vn -0 -1 -0.0053
vn -0 -1 -0.0056
vn -0 -1 -0.0055
vn -0 -1 -0.0053
vn -0 -1 -0.0056
vn -0 -1 -0.0053
vn -0 -1 -0.0053
vn -0 -1 -0.0055
vn -0 -1 -0.0053
vn -0 -1 -0.0053
vn -0 -1 -0.0054
vn -0 -1 -0.0053
vn -0 -1 -0.0053
vn -0 -1 -0.0053
vn -0 -1 -0.0053
vn -0 -1 -0.0054
vn -0 -1 -0.0053
vn -0 -1 -0.0054
vn -0 -1 -0.0053
vn -0 -1 -0.0053
vn -0 -1 -0.0054
vn 0.0001 -1 -0.0055
vn -0 -1 -0.0053
vn -0.0001 -1 -0.0055
vn -0 -1 -0.0054
vn -0 -1 -0.0053
vn -0.0001 -1 -0.0055
vn -0.0001 -1 -0.0054
vn -0 -1 -0.0054
vn 0.0001 -1 -0.0054
vn 0.0001 -1 -0.0055
vn -0 -1 -0.0054
vn 0.0001 -1 -0.0054
vn 0.0002 -1 -0.0055
vn 0.0001 -1 -0.0055
vn -0.0002 -1 -0.0055
vn -0.0001 -1 -0.0054
vn -0.0001 -1 -0.0055
vn 0.0001 -1 -0.0054
vn 0.0001 -1 -0.0053
vn 0.0002 -1 -0.0055
vn -0.0001 -1 -0.0053
vn -0.0001 -1 -0.0054
vn -0.0002 -1 -0.0055
vn -0.0001 -1 -0.0053
vn -0.0001 -1 -0.0055
vn -0.0001 -1 -0.0054
vn 0.0001 -1 -0.0055
vn 0.0001 -1 -0.0053
vn 0.0001 -1 -0.0054
vn 0.0001 -1 -0.0055
vn -0 -1 -0.0054
vn 0.0001 -1 -0.0053
vn -0 -1 -0.0054
vn -0.0001 -1 -0.0055
vn -0.0001 -1 -0.0053
vn -0 -1 -0.0054
vn -0.0001 -1 -0.0055
vn -0.0001 -1 -0.0055
vn 0.0001 -1 -0.0055
vn -0 -1 -0.0054
vn 0.0001 -1 -0.0055
vn 0.0001 -1 -0.0055
vn -0 -1 -0.0056
vn -0 -1 -0.0054
vn -0 -1 -0.0056
vn -0.0001 -1 -0.0055
vn -0 -1 -0.0054
vn 0.0001 -1 -0.0055
vn -0 -1 -0.0054
vn -0 -1 -0.0056
vn -0 -1 -0.0054
vn -0.0001 -1 -0.0055
vn -0 -1 -0.0056
vn -0 -1 -0.0054
vn -0 -1 -0.0054
vn -0.0001 -1 -0.0055
vn -0 -1 -0.0054
vn -0 -1 -0.0054
vn 0.0001 -1 -0.0055
vn -0 -1 -0.0054
vn -0 -1 -0.0054
vn -0 -1 -0.0054
vn -0 -1 -0.0054
vn 0.0001 -1 -0.006
vn -0 -1 -0.0054
vn -0.0001 -1 -0.0054
vn -0 -1 -0.0054
vn -0 -1 -0.0054
vn -0 -1 -0.0054
vn 0.0001 -1 -0.0054
vn 0.0001 -1 -0.006
vn -0 -1 -0.0052
vn -0 -1 -0.0054
vn -0.0001 -1 -0.0054
vn -0 -1 -0.0054
vn -0 -1 -0.0055
vn 0.0001 -1 -0.0054
vn -0 -1 -0.0052
vn -0 -1 -0.0055
vn -0 -1 -0.0054
vn -0 -1 -0.0055
vn -0 -1 -0.0055
vn -0 -1 -0.0054
vn -0 -1 -0.0054
vn -0 -1 -0.0055
vn -0 -1 -0.0052
vn -0 -1 -0.0055
vn -0 -1 -0.0054
vn -0 -1 -0.0055
vn -0 -1 -0.0055
vn -0 -1 -0.0055
vn -0 -1 -0.0054
vn -0 -1 -0.0055
vn -0 -1 -0.0053
vn -0 -1 -0.0055
vn -0 -1 -0.0053
vn -0 -1 -0.0053
vn -0 -1 -0.0055
vn -0 -1 -0.0053
vn -0 -1 -0.0052
vn -0 -1 -0.0053
vn -0 -1 -0.0052
vn -0 -1 -0.0052
vn -0 -1 -0.0053
vn -0 -1 -0.0052
vn -0 -1 -0.0058
vn -0 -1 -0.0052
vn -0 -1 -0.0058
vn -0 -1 -0.0058
vn -0 -1 -0.0052
vn -0 -1 -0.0058
vn -0 -1 -0.0057
vn -0 -1 -0.0058
vn -0 -1 -0.0057
vn -0 -1 -0.0057
vn -0 -1 -0.0058
vn -0 -1 -0.0057
vn -0 -1 -0.0055
vn -0 -1 -0.0057
vn -0.181 -0.0052 0.9835
vn -0.3586 -0.005 0.9335
vn -0.3586 -0.005 0.9335
vn -0.181 -0.0052 0.9835
vn -0.3586 -0.005 0.9335
vn -0.5205 -0.0047 0.8539
vn -0.5205 -0.0047 0.8538
vn -0.3586 -0.005 0.9335
vn -0.5205 -0.0047 0.8539
vn -0.657 -0.0041 0.7539
vn -0.657 -0.0041 0.7539
vn -0.5205 -0.0047 0.8538
vn -0.657 -0.0041 0.7539
vn -0.7646 -0.0036 0.6445
vn -0.7646 -0.0036 0.6444
vn -0.657 -0.0041 0.7539
vn -0.7646 -0.0036 0.6445
vn -0.8456 -0.003 0.5339
vn -0.8456 -0.003 0.5339
vn -0.7646 -0.0036 0.6444
vn -0.8456 -0.003 0.5339
vn -0.904 -0.0024 0.4275
vn -0.904 -0.0024 0.4275
vn -0.8456 -0.003 0.5339
vn -0.904 -0.0024 0.4275
vn -0.9447 -0.0018 0.328
vn -0.9447 -0.0018 0.328
vn -0.904 -0.0024 0.4275
vn -0.9447 -0.0018 0.328
vn -0.9717 -0.0013 0.2361
vn -0.9717 -0.0013 0.2361
vn -0.9447 -0.0018 0.328
vn -0.9717 -0.0013 0.2361
vn -0.9885 -0.0008 0.1514
vn -0.9885 -0.0008 0.1513
vn -0.9717 -0.0013 0.2361
vn -0.9885 -0.0008 0.1514
vn -0.9973 -0.0004 0.073
vn -0.9973 -0.0004 0.073
vn -0.9885 -0.0008 0.1513
vn -0.9973 -0.0004 0.073
vn -1 -0 -0
vn -1 -0 -0
vn -0.9973 -0.0004 0.073
vn -1 -0 -0
vn -0.9973 0.0004 -0.0733
vn -0.9973 0.0004 -0.073
vn -1 -0 -0
vn -0.9973 0.0004 -0.0733
vn -0.9885 0.0008 -0.1513
vn -0.9885 0.0008 -0.1513
vn -0.9973 0.0004 -0.073
vn -0.9885 0.0008 -0.1513
vn -0.9717 0.0013 -0.2361
vn -0.9717 0.0013 -0.2361
vn -0.9885 0.0008 -0.1513
vn -0.9717 0.0013 -0.2361
vn -0.9447 0.0018 -0.328
vn -0.9447 0.0018 -0.328
vn -0.9717 0.0013 -0.2361
vn -0.9447 0.0018 -0.328
vn -0.904 0.0023 -0.4275
vn -0.904 0.0023 -0.4275
vn -0.9447 0.0018 -0.328
vn -0.904 0.0023 -0.4275
vn -0.8456 0.0029 -0.5339
vn -0.8456 0.0029 -0.5339
vn -0.904 0.0023 -0.4275
vn -0.8456 0.0029 -0.5339
vn -0.7646 0.0035 -0.6444
vn -0.7647 0.0035 -0.6444
vn -0.8456 0.0029 -0.5339
vn -0.7646 0.0035 -0.6444
vn -0.657 0.004 -0.7539
vn -0.657 0.004 -0.7539
vn -0.7647 0.0035 -0.6444
vn -0.657 0.004 -0.7539
vn -0.5205 0.0045 -0.8538
vn -0.5205 0.0045 -0.8538
vn -0.657 0.004 -0.7539
vn -0.5205 0.0045 -0.8538
vn -0.3588 0.005 -0.9334
vn -0.3589 0.005 -0.9334
vn -0.5205 0.0045 -0.8538
vn -0.3588 0.005 -0.9334
vn -0.1811 0.0054 -0.9835
vn -0.1811 0.0054 -0.9835
vn -0.3589 0.005 -0.9334
vn -0.1811 0.0054 -0.9835
vn -0 0.0056 -1
vn -0 0.0056 -1
vn -0.1811 0.0054 -0.9835
vn -0 0.0056 -1
vn 0.181 0.0054 -0.9835
vn 0.181 0.0054 -0.9835
vn -0 0.0056 -1
vn 0.181 0.0054 -0.9835
vn 0.3589 0.005 -0.9334
vn 0.3589 0.005 -0.9334
vn 0.181 0.0054 -0.9835
vn 0.3589 0.005 -0.9334
vn 0.5205 0.0045 -0.8539
vn 0.5205 0.0045 -0.8539
vn 0.3589 0.005 -0.9334
vn 0.5205 0.0045 -0.8539
vn 0.6569 0.004 -0.754
vn 0.6569 0.004 -0.754
vn 0.5205 0.0045 -0.8539
vn 0.6569 0.004 -0.754
vn 0.7648 0.0035 -0.6443
vn 0.7648 0.0035 -0.6443
vn 0.6569 0.004 -0.754
vn 0.7648 0.0035 -0.6443
vn 0.8456 0.0029 -0.5339
vn 0.8456 0.0029 -0.5339
vn 0.7648 0.0035 -0.6443
vn 0.8456 0.0029 -0.5339
vn 0.9039 0.0023 -0.4277
vn 0.9039 0.0023 -0.4277
vn 0.8456 0.0029 -0.5339
vn 0.9039 0.0023 -0.4277
vn 0.9447 0.0018 -0.328
vn 0.9447 0.0018 -0.328
vn 0.9039 0.0023 -0.4277
vn 0.9447 0.0018 -0.328
vn 0.9717 0.0013 -0.2361
vn 0.9717 0.0013 -0.2361
vn 0.9447 0.0018 -0.328
vn 0.9717 0.0013 -0.2361
vn 0.9885 0.0008 -0.1513
vn 0.9885 0.0008 -0.1513
vn 0.9717 0.0013 -0.2361
vn 0.9885 0.0008 -0.1513
vn 0.9973 0.0004 -0.073
vn 0.9973 0.0004 -0.073
vn 0.9885 0.0008 -0.1513
vn 0.9973 0.0004 -0.073
vn 1 -0 -0
vn 1 -0 -0
vn 0.9973 0.0004 -0.073
vn 1 -0 -0
vn 0.9973 -0.0004 0.073
vn 0.9973 -0.0004 0.073
vn 1 -0 -0
vn 0.9973 -0.0004 0.073
vn 0.9885 -0.0008 0.1514
vn 0.9885 -0.0008 0.1513
vn 0.9973 -0.0004 0.073
vn 0.9885 -0.0008 0.1514
vn 0.9717 -0.0013 0.2361
vn 0.9717 -0.0013 0.2361
vn 0.9885 -0.0008 0.1513
vn 0.9717 -0.0013 0.2361
vn 0.9447 -0.0018 0.328
vn 0.9447 -0.0018 0.328
vn 0.9717 -0.0013 0.2361
vn 0.9447 -0.0018 0.328
vn 0.9039 -0.0024 0.4277
vn 0.9039 -0.0024 0.4277
vn 0.9447 -0.0018 0.328
vn 0.9039 -0.0024 0.4277
vn 0.8456 -0.003 0.5339
vn 0.8456 -0.003 0.5339
vn 0.9039 -0.0024 0.4277
vn 0.8456 -0.003 0.5339
vn 0.7648 -0.0036 0.6443
vn 0.7648 -0.0036 0.6443
vn 0.8456 -0.003 0.5339
vn 0.7648 -0.0036 0.6443
vn 0.6569 -0.0041 0.754
vn 0.6569 -0.0041 0.754
vn 0.7648 -0.0036 0.6443
vn 0.6569 -0.0041 0.754
vn 0.5205 -0.0047 0.8539
vn 0.5205 -0.0047 0.8539
vn 0.6569 -0.0041 0.754
vn 0.5205 -0.0047 0.8539
vn 0.3587 -0.005 0.9334
vn 0.3587 -0.005 0.9335
vn 0.5205 -0.0047 0.8539
vn 0.3587 -0.005 0.9334
vn 0.1809 -0.0052 0.9835
vn 0.1809 -0.0052 0.9835
vn 0.3587 -0.005 0.9335
vn 0.1809 -0.0052 0.9835
vn -0 -0.0053 1
vn -0 -0.0053 1
vn 0.1809 -0.0052 0.9835
vn -0 -0.0053 1
vn -0.181 -0.0052 0.9835
vn -0.181 -0.0052 0.9835
vn -0 -0.0053 1
vn 0.2195 -0.0053 0.9756
vn 0.4302 -0.005 0.9027
vn 0.4302 -0.005 0.9027
vn 0.2192 -0.0052 0.9757
vn 0.4302 -0.005 0.9027
vn 0.6086 -0.0044 0.7934
vn 0.6086 -0.0044 0.7935
vn 0.4302 -0.005 0.9027
vn 0.6086 -0.0044 0.7934
vn 0.7443 -0.0036 0.6679
vn 0.7443 -0.0036 0.6679
vn 0.6086 -0.0044 0.7935
vn 0.7443 -0.0036 0.6679
vn 0.839 -0.0029 0.5442
vn 0.839 -0.0029 0.5442
vn 0.7443 -0.0036 0.6679
vn 0.839 -0.0029 0.5442
vn 0.9021 -0.0023 0.4315
vn 0.9021 -0.0023 0.4315
vn 0.839 -0.0029 0.5442
vn 0.9021 -0.0023 0.4315
vn 0.9432 -0.0018 0.3322
vn 0.9432 -0.0018 0.3322
vn 0.9021 -0.0023 0.4315
vn 0.9432 -0.0018 0.3322
vn 0.9691 -0.0014 0.2467
vn 0.9691 -0.0014 0.2467
vn 0.9432 -0.0018 0.3322
vn 0.9691 -0.0014 0.2467
vn 0.9849 -0.0009 0.1729
vn 0.9849 -0.0009 0.1729
vn 0.9691 -0.0014 0.2467
vn 0.9849 -0.0009 0.1729
vn 0.9941 -0.0006 0.1082
vn 0.9941 -0.0006 0.1082
vn 0.9849 -0.0009 0.1729
vn 0.9941 -0.0006 0.1082
vn 0.9987 -0.0003 0.0512
vn 0.9987 -0.0003 0.0512
vn 0.9941 -0.0006 0.1082
vn 0.9987 -0.0003 0.0512
vn 1 -0 -0
vn 1 -0 -0
vn 0.9987 -0.0003 0.0512
vn 1 -0 -0
vn 0.9987 0.0003 -0.0512
vn 0.9987 0.0003 -0.0512
vn 1 -0 -0
vn 0.9987 0.0003 -0.0512
vn 0.9941 0.0006 -0.1082
vn 0.9941 0.0006 -0.1082
vn 0.9987 0.0003 -0.0512
vn 0.9941 0.0006 -0.1082
vn 0.9849 0.001 -0.1729
vn 0.9849 0.001 -0.1729
vn 0.9941 0.0006 -0.1082
vn 0.9849 0.001 -0.1729
vn 0.9691 0.0014 -0.2468
vn 0.9691 0.0014 -0.2468
vn 0.9849 0.001 -0.1729
vn 0.9691 0.0014 -0.2468
vn 0.9432 0.0019 -0.3322
vn 0.9432 0.0019 -0.3322
vn 0.9691 0.0014 -0.2468
vn 0.9432 0.0019 -0.3322
vn 0.9022 0.0024 -0.4313
vn 0.9022 0.0024 -0.4313
vn 0.9432 0.0019 -0.3322
vn 0.9022 0.0024 -0.4313
vn 0.8389 0.003 -0.5442
vn 0.8389 0.003 -0.5442
vn 0.9022 0.0024 -0.4313
vn 0.8389 0.003 -0.5442
vn 0.7443 0.0037 -0.6678
vn 0.7443 0.0037 -0.6678
vn 0.8389 0.003 -0.5442
vn 0.7443 0.0037 -0.6678
vn 0.6088 0.0043 -0.7933
vn 0.6088 0.0043 -0.7933
vn 0.7443 0.0037 -0.6678
vn 0.6088 0.0043 -0.7933
vn 0.43 0.0048 -0.9028
vn 0.43 0.0048 -0.9028
vn 0.6088 0.0043 -0.7933
vn 0.43 0.0048 -0.9028
vn 0.2197 0.0055 -0.9756
vn 0.2196 0.0052 -0.9756
vn 0.43 0.0048 -0.9028
vn 0.2197 0.0055 -0.9756
vn -0 0.0053 -1
vn -0 0.0053 -1
vn 0.2196 0.0052 -0.9756
vn -0 0.0053 -1
vn -0.2195 0.0052 -0.9756
vn -0.2195 0.0052 -0.9756
vn -0 0.0053 -1
vn -0.2195 0.0052 -0.9756
vn -0.43 0.0048 -0.9028
vn -0.43 0.0048 -0.9028
vn -0.2195 0.0052 -0.9756
vn -0.43 0.0048 -0.9028
vn -0.6088 0.0043 -0.7933
vn -0.6088 0.0043 -0.7933
vn -0.43 0.0048 -0.9028
vn -0.6088 0.0043 -0.7933
vn -0.7443 0.0037 -0.6678
vn -0.7443 0.0037 -0.6678
vn -0.6088 0.0043 -0.7933
vn -0.7443 0.0037 -0.6678
vn -0.8391 0.003 -0.544
vn -0.8391 0.003 -0.544
vn -0.7443 0.0037 -0.6678
vn -0.8391 0.003 -0.544
vn -0.9023 0.0024 -0.4311
vn -0.9023 0.0024 -0.4311
vn -0.8391 0.003 -0.544
vn -0.9023 0.0024 -0.4311
vn -0.9431 0.0019 -0.3325
vn -0.9431 0.0019 -0.3325
vn -0.9023 0.0024 -0.4311
vn -0.9431 0.0019 -0.3325
vn -0.9691 0.0012 -0.2468
vn -0.969 0.0014 -0.247
vn -0.9431 0.0019 -0.3325
vn -0.9691 0.0012 -0.2468
vn -0.9849 0.001 -0.1729
vn -0.9849 0.001 -0.1729
vn -0.969 0.0014 -0.247
vn -0.9849 0.001 -0.1729
vn -0.9942 0.0006 -0.108
vn -0.9942 0.0006 -0.108
vn -0.9849 0.001 -0.1729
vn -0.9942 0.0006 -0.108
vn -0.9987 0.0003 -0.0512
vn -0.9987 0.0003 -0.0512
vn -0.9942 0.0006 -0.108
vn -0.9987 0.0003 -0.0512
vn -1 -0 -0
vn -1 -0 -0
vn -0.9987 0.0003 -0.0512
vn -1 -0 -0
vn -0.9987 -0.0003 0.0512
vn -0.9987 -0.0003 0.0512
vn -1 -0 -0
vn -0.9987 -0.0003 0.0512
vn -0.9941 -0.0006 0.1085
vn -0.9942 -0.0006 0.108
vn -0.9987 -0.0003 0.0512
vn -0.9941 -0.0006 0.1085
vn -0.9849 -0.0009 0.1729
vn -0.985 -0.0009 0.1726
vn -0.9942 -0.0006 0.108
vn -0.9849 -0.0009 0.1729
vn -0.969 -0.0013 0.247
vn -0.969 -0.0013 0.247
vn -0.985 -0.0009 0.1726
vn -0.969 -0.0013 0.247
vn -0.9431 -0.0018 0.3324
vn -0.9431 -0.0018 0.3324
vn -0.969 -0.0013 0.247
vn -0.9431 -0.0018 0.3324
vn -0.9022 -0.0023 0.4312
vn -0.9022 -0.0023 0.4312
vn -0.9431 -0.0018 0.3324
vn -0.9022 -0.0023 0.4312
vn -0.8391 -0.0029 0.5439
vn -0.8391 -0.0029 0.5439
vn -0.9022 -0.0023 0.4312
vn -0.8391 -0.0029 0.5439
vn -0.7443 -0.0036 0.6679
vn -0.7443 -0.0036 0.6679
vn -0.8391 -0.0029 0.5439
vn -0.7443 -0.0036 0.6679
vn -0.6086 -0.0044 0.7934
vn -0.6086 -0.0044 0.7935
vn -0.7443 -0.0036 0.6679
vn -0.6086 -0.0044 0.7934
vn -0.4302 -0.005 0.9027
vn -0.4302 -0.005 0.9027
vn -0.6086 -0.0044 0.7935
vn -0.4302 -0.005 0.9027
vn -0.2196 -0.0052 0.9756
vn -0.2199 -0.0053 0.9755
vn -0.4302 -0.005 0.9027
vn -0.2196 -0.0052 0.9756
vn -0 -0.0055 1
vn -0 -0.0055 1
vn -0.2199 -0.0053 0.9755
vn -0 -0.0055 1
vn 0.2195 -0.0053 0.9756
vn 0.2192 -0.0052 0.9757
vn -0 -0.0055 1
vt 0.231579 1
vt 0.252632 1
vt 0.242105 1
vt 0.231579 1
vt 0.263158 1
vt 0.252632 1
vt 0.221053 1
vt 0.263158 1
vt 0.231579 1
vt 0.221053 1
vt 0.273684 1
vt 0.263158 1
vt 0.210526 1
vt 0.273684 1
vt 0.221053 1
vt 0.210526 1
vt 0.284211 1
vt 0.273684 1
vt 0.2 1
vt 0.284211 1
vt 0.210526 1
vt 0.2 1
vt 0.294737 1
vt 0.284211 1
vt 0.189474 1
vt 0.294737 1
vt 0.2 1
vt 0.189474 1
vt 0.305263 1
vt 0.294737 1
vt 0.178947 1
vt 1 1
vt 0.189474 1
vt 1 1
vt 0.305263 1
vt 0.189474 1
vt 0.178947 1
vt 0.505263 1
vt 1 1
vt 0.989474 1
vt 0.305263 1
vt 1 1
vt 0.978947 1
vt 0.305263 1
vt 0.989474 1
vt 0.178947 1
vt 0.515789 1
vt 0.505263 1
vt 0.978947 1
vt 0.315789 1
vt 0.305263 1
vt 0.168421 1
vt 0.515789 1
vt 0.178947 1
vt 0.968421 1
vt 0.315789 1
vt 0.978947 1
vt 0.168421 1
vt 0.526316 1
vt 0.515789 1
vt 0.957895 1
vt 0.315789 1
vt 0.968421 1
vt 0.168421 1
vt 0.536842 1
vt 0.526316 1
vt 0.168421 1
vt 0.547368 1
vt 0.536842 1
vt 0.947368 1
vt 0.315789 1
vt 0.957895 1
vt 0.157895 1
vt 0.547368 1
vt 0.168421 1
vt 0.947368 1
vt 0.326316 1
vt 0.315789 1
vt 0.157895 1
vt 0.557895 1
vt 0.547368 1
vt 0.936842 1
vt 0.326316 1
vt 0.947368 1
vt 0.157895 1
vt 0.568421 1
vt 0.557895 1
vt 0.926316 1
vt 0.326316 1
vt 0.936842 1
vt 0.147368 1
vt 0.568421 1
vt 0.157895 1
vt 0.926316 1
vt 0.336842 1
vt 0.326316 1
vt 0.147368 1
vt 0.578947 1
vt 0.568421 1
vt 0.915789 1
vt 0.336842 1
vt 0.926316 1
vt 0.136842 1
vt 0.578947 1
vt 0.147368 1
vt 0.915789 1
vt 0.347368 1
vt 0.336842 1
vt 0.136842 1
vt 0.589474 1
vt 0.578947 1
vt 0.905263 1
vt 0.347368 1
vt 0.915789 1
vt 0.136842 1
vt 0.6 1
vt 0.589474 1
vt 0.894737 1
vt 0.347368 1
vt 0.905263 1
vt 0.126316 1
vt 0.6 1
vt 0.136842 1
vt 0.894737 1
vt 0.357895 1
vt 0.347368 1
vt 0.126316 1
vt 0.610526 1
vt 0.6 1
vt 0.884211 1
vt 0.357895 1
vt 0.894737 1
vt 0.115789 1
vt 0.610526 1
vt 0.126316 1
vt 0.884211 1
vt 0.368421 1
vt 0.357895 1
vt 0.115789 1
vt 0.621053 1
vt 0.610526 1
vt 0.873684 1
vt 0.368421 1
vt 0.884211 1
vt 0.105263 1
vt 0.621053 1
vt 0.115789 1
vt 0.105263 1
vt 0.631579 1
vt 0.621053 1
vt 0.863158 1
vt 0.368421 1
vt 0.873684 1
vt 0.863158 1
vt 0.378947 1
vt 0.368421 1
vt 0.105263 1
vt 0.642105 1
vt 0.631579 1
vt 0.852632 1
vt 0.378947 1
vt 0.863158 1
vt 0.094737 1
vt 0.642105 1
vt 0.105263 1
vt 0.852632 1
vt 0.389474 1
vt 0.378947 1
vt 0.842105 1
vt 0.389474 1
vt 0.852632 1
vt 0.094737 1
vt 0.652632 1
vt 0.642105 1
vt 0.084211 1
vt 0.652632 1
vt 0.094737 1
vt 0.842105 1
vt 0.4 1
vt 0.389474 1
vt 0.831579 1
vt 0.4 1
vt 0.842105 1
vt 0.084211 1
vt 0.663158 1
vt 0.652632 1
vt 0.821053 1
vt 0.4 1
vt 0.831579 1
vt 0.084211 1
vt 0.673684 1
vt 0.663158 1
vt 0.073684 1
vt 0.673684 1
vt 0.084211 1
vt 0.821053 1
vt 0.410526 1
vt 0.4 1
vt 0.810526 1
vt 0.410526 1
vt 0.821053 1
vt 0.073684 1
vt 0.684211 1
vt 0.673684 1
vt 0.063158 1
vt 0.684211 1
vt 0.073684 1
vt 0.810526 1
vt 0.421053 1
vt 0.410526 1
vt 0.8 1
vt 0.421053 1
vt 0.810526 1
vt 0.063158 1
vt 0.694737 1
vt 0.684211 1
vt 0.789474 1
vt 0.421053 1
vt 0.8 1
vt 0.063158 1
vt 0.705263 1
vt 0.694737 1
vt 0.052632 1
vt 0.705263 1
vt 0.063158 1
vt 0.789474 1
vt 0.431579 1
vt 0.421053 1
vt 0.052632 1
vt 0.715789 1
vt 0.705263 1
vt 0.778947 1
vt 0.431579 1
vt 0.789474 1
vt 0.052632 1
vt 0.726316 1
vt 0.715789 1
vt 0.768421 1
vt 0.431579 1
vt 0.778947 1
vt 0.052632 1
vt 0.736842 1
vt 0.726316 1
vt 0.757895 1
vt 0.431579 1
vt 0.768421 1
vt 0.042105 1
vt 0.736842 1
vt 0.052632 1
vt 0.757895 1
vt 0.442105 1
vt 0.431579 1
vt 0.042105 1
vt 0.747368 1
vt 0.736842 1
vt 0.747368 1
vt 0.442105 1
vt 0.757895 1
vt 0.042105 1
vt 0.442105 1
vt 0.747368 1
vt 0.031579 1
vt 0.442105 1
vt 0.042105 1
vt 0.031579 1
vt 0.452632 1
vt 0.442105 1
vt 0.021053 1
vt 0.452632 1
vt 0.031579 1
vt 0.021053 1
vt 0.463158 1
vt 0.452632 1
vt 0.010526 1
vt 0.463158 1
vt 0.021053 1
vt 0.010526 1
vt 0.473684 1
vt 0.463158 1
vt 0 1
vt 0.473684 1
vt 0.010526 1
vt 0 1
vt 0.484211 1
vt 0.473684 1
vt 0.494737 1
vt 0.484211 1
vt 0 1
vt 0.252632 1
vt 0.231579 1
vt 0.242105 1
vt 0.263158 1
vt 0.231579 1
vt 0.252632 1
vt 0.263158 1
vt 0.221053 1
vt 0.231579 1
vt 0.273684 1
vt 0.221053 1
vt 0.263158 1
vt 0.273684 1
vt 0.210526 1
vt 0.221053 1
vt 0.284211 1
vt 0.210526 1
vt 0.273684 1
vt 0.284211 1
vt 0.2 1
vt 0.210526 1
vt 0.294737 1
vt 0.2 1
vt 0.284211 1
vt 0.294737 1
vt 0.189474 1
vt 0.2 1
vt 0.305263 1
vt 0.189474 1
vt 0.294737 1
vt 1 1
vt 0.178947 1
vt 0.189474 1
vt 0.305263 1
vt 1 1
vt 0.189474 1
vt 0.505263 1
vt 0.178947 1
vt 1 1
vt 0.305263 1
vt 0.989474 1
vt 1 1
vt 0.305263 1
vt 0.978947 1
vt 0.989474 1
vt 0.515789 1
vt 0.178947 1
vt 0.505263 1
vt 0.315789 1
vt 0.978947 1
vt 0.305263 1
vt 0.515789 1
vt 0.168421 1
vt 0.178947 1
vt 0.315789 1
vt 0.968421 1
vt 0.978947 1
vt 0.526316 1
vt 0.168421 1
vt 0.515789 1
vt 0.315789 1
vt 0.957895 1
vt 0.968421 1
vt 0.536842 1
vt 0.168421 1
vt 0.526316 1
vt 0.547368 1
vt 0.168421 1
vt 0.536842 1
vt 0.315789 1
vt 0.947368 1
vt 0.957895 1
vt 0.547368 1
vt 0.157895 1
vt 0.168421 1
vt 0.326316 1
vt 0.947368 1
vt 0.315789 1
vt 0.557895 1
vt 0.157895 1
vt 0.547368 1
vt 0.326316 1
vt 0.936842 1
vt 0.947368 1
vt 0.568421 1
vt 0.157895 1
vt 0.557895 1
vt 0.326316 1
vt 0.926316 1
vt 0.936842 1
vt 0.568421 1
vt 0.147368 1
vt 0.157895 1
vt 0.336842 1
vt 0.926316 1
vt 0.326316 1
vt 0.578947 1
vt 0.147368 1
vt 0.568421 1
vt 0.336842 1
vt 0.915789 1
vt 0.926316 1
vt 0.578947 1
vt 0.136842 1
vt 0.147368 1
vt 0.347368 1
vt 0.915789 1
vt 0.336842 1
vt 0.589474 1
vt 0.136842 1
vt 0.578947 1
vt 0.347368 1
vt 0.905263 1
vt 0.915789 1
vt 0.6 1
vt 0.136842 1
vt 0.589474 1
vt 0.347368 1
vt 0.894737 1
vt 0.905263 1
vt 0.6 1
vt 0.126316 1
vt 0.136842 1
vt 0.357895 1
vt 0.894737 1
vt 0.347368 1
vt 0.610526 1
vt 0.126316 1
vt 0.6 1
vt 0.357895 1
vt 0.884211 1
vt 0.894737 1
vt 0.610526 1
vt 0.115789 1
vt 0.126316 1
vt 0.368421 1
vt 0.884211 1
vt 0.357895 1
vt 0.621053 1
vt 0.115789 1
vt 0.610526 1
vt 0.368421 1
vt 0.873684 1
vt 0.884211 1
vt 0.621053 1
vt 0.105263 1
vt 0.115789 1
vt 0.631579 1
vt 0.105263 1
vt 0.621053 1
vt 0.368421 1
vt 0.863158 1
vt 0.873684 1
vt 0.378947 1
vt 0.863158 1
vt 0.368421 1
vt 0.642105 1
vt 0.105263 1
vt 0.631579 1
vt 0.378947 1
vt 0.852632 1
vt 0.863158 1
vt 0.642105 1
vt 0.094737 1
vt 0.105263 1
vt 0.389474 1
vt 0.852632 1
vt 0.378947 1
vt 0.389474 1
vt 0.842105 1
vt 0.852632 1
vt 0.652632 1
vt 0.094737 1
vt 0.642105 1
vt 0.652632 1
vt 0.084211 1
vt 0.094737 1
vt 0.4 1
vt 0.842105 1
vt 0.389474 1
vt 0.4 1
vt 0.831579 1
vt 0.842105 1
vt 0.663158 1
vt 0.084211 1
vt 0.652632 1
vt 0.4 1
vt 0.821053 1
vt 0.831579 1
vt 0.673684 1
vt 0.084211 1
vt 0.663158 1
vt 0.673684 1
vt 0.073684 1
vt 0.084211 1
vt 0.410526 1
vt 0.821053 1
vt 0.4 1
vt 0.410526 1
vt 0.810526 1
vt 0.821053 1
vt 0.684211 1
vt 0.073684 1
vt 0.673684 1
vt 0.684211 1
vt 0.063158 1
vt 0.073684 1
vt 0.421053 1
vt 0.810526 1
vt 0.410526 1
vt 0.421053 1
vt 0.8 1
vt 0.810526 1
vt 0.694737 1
vt 0.063158 1
vt 0.684211 1
vt 0.421053 1
vt 0.789474 1
vt 0.8 1
vt 0.705263 1
vt 0.063158 1
vt 0.694737 1
vt 0.705263 1
vt 0.052632 1
vt 0.063158 1
vt 0.431579 1
vt 0.789474 1
vt 0.421053 1
vt 0.715789 1
vt 0.052632 1
vt 0.705263 1
vt 0.431579 1
vt 0.778947 1
vt 0.789474 1
vt 0.726316 1
vt 0.052632 1
vt 0.715789 1
vt 0.431579 1
vt 0.768421 1
vt 0.778947 1
vt 0.736842 1
vt 0.052632 1
vt 0.726316 1
vt 0.431579 1
vt 0.757895 1
vt 0.768421 1
vt 0.736842 1
vt 0.042105 1
vt 0.052632 1
vt 0.442105 1
vt 0.757895 1
vt 0.431579 1
vt 0.747368 1
vt 0.042105 1
vt 0.736842 1
vt 0.442105 1
vt 0.747368 1
vt 0.757895 1
vt 0.442105 1
vt 0.042105 1
vt 0.747368 1
vt 0.442105 1
vt 0.031579 1
vt 0.042105 1
vt 0.452632 1
vt 0.031579 1
vt 0.442105 1
vt 0.452632 1
vt 0.021053 1
vt 0.031579 1
vt 0.463158 1
vt 0.021053 1
vt 0.452632 1
vt 0.463158 1
vt 0.010526 1
vt 0.021053 1
vt 0.473684 1
vt 0.010526 1
vt 0.463158 1
vt 0.473684 1
vt 0 1
vt 0.010526 1
vt 0.484211 1
vt 0 1
vt 0.473684 1
vt 0.484211 1
vt 0.494737 1
vt 0 1
vt 0 0
vt 0.020833 0
vt 0.020833 1
vt 0 1
vt 0.020833 0
vt 0.041667 0
vt 0.041667 1
vt 0.020833 1
vt 0.041667 0
vt 0.0625 0
vt 0.0625 1
vt 0.041667 1
vt 0.0625 0
vt 0.083333 0
vt 0.083333 1
vt 0.0625 1
vt 0.083333 0
vt 0.104167 0
vt 0.104167 1
vt 0.083333 1
vt 0.104167 0
vt 0.125 0
vt 0.125 1
vt 0.104167 1
vt 0.125 0
vt 0.145833 0
vt 0.145833 1
vt 0.125 1
vt 0.145833 0
vt 0.166667 0
vt 0.166667 1
vt 0.145833 1
vt 0.166667 0
vt 0.1875 0
vt 0.1875 1
vt 0.166667 1
vt 0.1875 0
vt 0.208333 0
vt 0.208333 1
vt 0.1875 1
vt 0.208333 0
vt 0.229167 0
vt 0.229167 1
vt 0.208333 1
vt 0.229167 0
vt 0.25 0
vt 0.25 1
vt 0.229167 1
vt 0.25 0
vt 0.270833 0
vt 0.270833 1
vt 0.25 1
vt 0.270833 0
vt 0.291667 0
vt 0.291667 1
vt 0.270833 1
vt 0.291667 0
vt 0.3125 0
vt 0.3125 1
vt 0.291667 1
vt 0.3125 0
vt 0.333333 0
vt 0.333333 1
vt 0.3125 1
vt 0.333333 0
vt 0.354167 0
vt 0.354167 1
vt 0.333333 1
vt 0.354167 0
vt 0.375 0
vt 0.375 1
vt 0.354167 1
vt 0.375 0
vt 0.395833 0
vt 0.395833 1
vt 0.375 1
vt 0.395833 0
vt 0.416667 0
vt 0.416667 1
vt 0.395833 1
vt 0.416667 0
vt 0.4375 0
vt 0.4375 1
vt 0.416667 1
vt 0.4375 0
vt 0.458333 0
vt 0.458333 1
vt 0.4375 1
vt 0.458333 0
vt 0.479167 0
vt 0.479167 1
vt 0.458333 1
vt 0.479167 0
vt 0.5 0
vt 0.5 1
vt 0.479167 1
vt 0.5 0
vt 0.520833 0
vt 0.520833 1
vt 0.5 1
vt 0.520833 0
vt 0.541667 0
vt 0.541667 1
vt 0.520833 1
vt 0.541667 0
vt 0.5625 0
vt 0.5625 1
vt 0.541667 1
vt 0.5625 0
vt 0.583333 0
vt 0.583333 1
vt 0.5625 1
vt 0.583333 0
vt 0.604167 0
vt 0.604167 1
vt 0.583333 1
vt 0.604167 0
vt 0.625 0
vt 0.625 1
vt 0.604167 1
vt 0.625 0
vt 0.645833 0
vt 0.645833 1
vt 0.625 1
vt 0.645833 0
vt 0.666667 0
vt 0.666667 1
vt 0.645833 1
vt 0.666667 0
vt 0.6875 0
vt 0.6875 1
vt 0.666667 1
vt 0.6875 0
vt 0.708333 0
vt 0.708333 1
vt 0.6875 1
vt 0.708333 0
vt 0.729167 0
vt 0.729167 1
vt 0.708333 1
vt 0.729167 0
vt 0.75 0
vt 0.75 1
vt 0.729167 1
vt 0.75 0
vt 0.770833 0
vt 0.770833 1
vt 0.75 1
vt 0.770833 0
vt 0.791667 0
vt 0.791667 1
vt 0.770833 1
vt 0.791667 0
vt 0.8125 0
vt 0.8125 1
vt 0.791667 1
vt 0.8125 0
vt 0.833333 0
vt 0.833333 1
vt 0.8125 1
vt 0.833333 0
vt 0.854167 0
vt 0.854167 1
vt 0.833333 1
vt 0.854167 0
vt 0.875 0
vt 0.875 1
vt 0.854167 1
vt 0.875 0
vt 0.895833 0
vt 0.895833 1
vt 0.875 1
vt 0.895833 0
vt 0.916667 0
vt 0.916667 1
vt 0.895833 1
vt 0.916667 0
vt 0.9375 0
vt 0.9375 1
vt 0.916667 1
vt 0.9375 0
vt 0.958333 0
vt 0.958333 1
vt 0.9375 1
vt 0.958333 0
vt 0.979167 0
vt 0.979167 1
vt 0.958333 1
vt 0.979167 0
vt 1 0
vt 1 1
vt 0.979167 1
vt 0 0
vt 0.020833 0
vt 0.020833 1
vt 0 1
vt 0.020833 0
vt 0.041667 0
vt 0.041667 1
vt 0.020833 1
vt 0.041667 0
vt 0.0625 0
vt 0.0625 1
vt 0.041667 1
vt 0.0625 0
vt 0.083333 0
vt 0.083333 1
vt 0.0625 1
vt 0.083333 0
vt 0.104167 0
vt 0.104167 1
vt 0.083333 1
vt 0.104167 0
vt 0.125 0
vt 0.125 1
vt 0.104167 1
vt 0.125 0
vt 0.145833 0
vt 0.145833 1
vt 0.125 1
vt 0.145833 0
vt 0.166667 0
vt 0.166667 1
vt 0.145833 1
vt 0.166667 0
vt 0.1875 0
vt 0.1875 1
vt 0.166667 1
vt 0.1875 0
vt 0.208333 0
vt 0.208333 1
vt 0.1875 1
vt 0.208333 0
vt 0.229167 0
vt 0.229167 1
vt 0.208333 1
vt 0.229167 0
vt 0.25 0
vt 0.25 1
vt 0.229167 1
vt 0.25 0
vt 0.270833 0
vt 0.270833 1
vt 0.25 1
vt 0.270833 0
vt 0.291667 0
vt 0.291667 1
vt 0.270833 1
vt 0.291667 0
vt 0.3125 0
vt 0.3125 1
vt 0.291667 1
vt 0.3125 0
vt 0.333333 0
vt 0.333333 1
vt 0.3125 1
vt 0.333333 0
vt 0.354167 0
vt 0.354167 1
vt 0.333333 1
vt 0.354167 0
vt 0.375 0
vt 0.375 1
vt 0.354167 1
vt 0.375 0
vt 0.395833 0
vt 0.395833 1
vt 0.375 1
vt 0.395833 0
vt 0.416667 0
vt 0.416667 1
vt 0.395833 1
vt 0.416667 0
vt 0.4375 0
vt 0.4375 1
vt 0.416667 1
vt 0.4375 0
vt 0.458333 0
vt 0.458333 1
vt 0.4375 1
vt 0.458333 0
vt 0.479167 0
vt 0.479167 1
vt 0.458333 1
vt 0.479167 0
vt 0.5 0
vt 0.5 1
vt 0.479167 1
vt 0.5 0
vt 0.520833 0
vt 0.520833 1
vt 0.5 1
vt 0.520833 0
vt 0.541667 0
vt 0.541667 1
vt 0.520833 1
vt 0.541667 0
vt 0.5625 0
vt 0.5625 1
vt 0.541667 1
vt 0.5625 0
vt 0.583333 0
vt 0.583333 1
vt 0.5625 1
vt 0.583333 0
vt 0.604167 0
vt 0.604167 1
vt 0.583333 1
vt 0.604167 0
vt 0.625 0
vt 0.625 1
vt 0.604167 1
vt 0.625 0
vt 0.645833 0
vt 0.645833 1
vt 0.625 1
vt 0.645833 0
vt 0.666667 0
vt 0.666667 1
vt 0.645833 1
vt 0.666667 0
vt 0.6875 0
vt 0.6875 1
vt 0.666667 1
vt 0.6875 0
vt 0.708333 0
vt 0.708333 1
vt 0.6875 1
vt 0.708333 0
vt 0.729167 0
vt 0.729167 1
vt 0.708333 1
vt 0.729167 0
vt 0.75 0
vt 0.75 1
vt 0.729167 1
vt 0.75 0
vt 0.770833 0
vt 0.770833 1
vt 0.75 1
vt 0.770833 0
vt 0.791667 0
vt 0.791667 1
vt 0.770833 1
vt 0.791667 0
vt 0.8125 0
vt 0.8125 1
vt 0.791667 1
vt 0.8125 0
vt 0.833333 0
vt 0.833333 1
vt 0.8125 1
vt 0.833333 0
vt 0.854167 0
vt 0.854167 1
vt 0.833333 1
vt 0.854167 0
vt 0.875 0
vt 0.875 1
vt 0.854167 1
vt 0.875 0
vt 0.895833 0
vt 0.895833 1
vt 0.875 1
vt 0.895833 0
vt 0.916667 0
vt 0.916667 1
vt 0.895833 1
vt 0.916667 0
vt 0.9375 0
vt 0.9375 1
vt 0.916667 1
vt 0.9375 0
vt 0.958333 0
vt 0.958333 1
vt 0.9375 1
vt 0.958333 0
vt 0.979167 0
vt 0.979167 1
vt 0.958333 1
vt 0.979167 0
vt 1 0
vt 1 1
vt 0.979167 1
s off
f 1/1/1 2/2/2 3/3/3
f 4/4/4 5/5/5 6/6/6
f 7/7/7 8/8/8 9/9/9
f 10/10/10 11/11/11 12/12/12
f 13/13/13 14/14/14 15/15/15
f 16/16/16 17/17/17 18/18/18
f 19/19/19 20/20/20 21/21/21
f 22/22/22 23/23/23 24/24/24
f 25/25/25 26/26/26 27/27/27
f 28/28/28 29/29/29 30/30/30
f 31/31/31 32/32/32 33/33/33
f 34/34/34 35/35/35 36/36/36
f 37/37/37 38/38/38 39/39/39
f 40/40/40 41/41/41 42/42/42
f 43/43/43 44/44/44 45/45/45
f 46/46/46 47/47/47 48/48/48
f 49/49/49 50/50/50 51/51/51
f 52/52/52 53/53/53 54/54/54
f 55/55/55 56/56/56 57/57/57
f 58/58/58 59/59/59 60/60/60
f 61/61/61 62/62/62 63/63/63
f 64/64/64 65/65/65 66/66/66
f 67/67/67 68/68/68 69/69/69
f 70/70/70 71/71/71 72/72/72
f 73/73/73 74/74/74 75/75/75
f 76/76/76 77/77/77 78/78/78
f 79/79/79 80/80/80 81/81/81
f 82/82/82 83/83/83 84/84/84
f 85/85/85 86/86/86 87/87/87
f 88/88/88 89/89/89 90/90/90
f 91/91/91 92/92/92 93/93/93
f 94/94/94 95/95/95 96/96/96
f 97/97/97 98/98/98 99/99/99
f 100/100/100 101/101/101 102/102/102
f 103/103/103 104/104/104 105/105/105
f 106/106/106 107/107/107 108/108/108
f 109/109/109 110/110/110 111/111/111
f 112/112/112 113/113/113 114/114/114
f 115/115/115 116/116/116 117/117/117
f 118/118/118 119/119/119 120/120/120
f 121/121/121 122/122/122 123/123/123
f 124/124/124 125/125/125 126/126/126
f 127/127/127 128/128/128 129/129/129
f 130/130/130 131/131/131 132/132/132
f 133/133/133 134/134/134 135/135/135
f 136/136/136 137/137/137 138/138/138
f 139/139/139 140/140/140 141/141/141
f 142/142/142 143/143/143 144/144/144
f 145/145/145 146/146/146 147/147/147
f 148/148/148 149/149/149 150/150/150
f 151/151/151 152/152/152 153/153/153
f 154/154/154 155/155/155 156/156/156
f 157/157/157 158/158/158 159/159/159
f 160/160/160 161/161/161 162/162/162
f 163/163/163 164/164/164 165/165/165
f 166/166/166 167/167/167 168/168/168
f 169/169/169 170/170/170 171/171/171
f 172/172/172 173/173/173 174/174/174
f 175/175/175 176/176/176 177/177/177
f 178/178/178 179/179/179 180/180/180
f 181/181/181 182/182/182 183/183/183
f 184/184/184 185/185/185 186/186/186
f 187/187/187 188/188/188 189/189/189
f 190/190/190 191/191/191 192/192/192
f 193/193/193 194/194/194 195/195/195
f 196/196/196 197/197/197 198/198/198
f 199/199/199 200/200/200 201/201/201
f 202/202/202 203/203/203 204/204/204
f 205/205/205 206/206/206 207/207/207
f 208/208/208 209/209/209 210/210/210
f 211/211/211 212/212/212 213/213/213
f 214/214/214 215/215/215 216/216/216
f 217/217/217 218/218/218 219/219/219
f 220/220/220 221/221/221 222/222/222
f 223/223/223 224/224/224 225/225/225
f 226/226/226 227/227/227 228/228/228
f 229/229/229 230/230/230 231/231/231
f 232/232/232 233/233/233 234/234/234
f 235/235/235 236/236/236 237/237/237
f 238/238/238 239/239/239 240/240/240
f 241/241/241 242/242/242 243/243/243
f 244/244/244 245/245/245 246/246/246
f 247/247/247 248/248/248 249/249/249
f 250/250/250 251/251/251 252/252/252
f 253/253/253 254/254/254 255/255/255
f 256/256/256 257/257/257 258/258/258
f 259/259/259 260/260/260 261/261/261
f 262/262/262 263/263/263 264/264/264
f 265/265/265 266/266/266 267/267/267
f 268/268/268 269/269/269 270/270/270
f 271/271/271 272/272/272 273/273/273
f 274/274/274 275/275/275 276/276/276
f 277/277/277 278/278/278 279/279/279
f 280/280/280 281/281/281 282/282/282
f 283/283/283 284/284/284 285/285/285
f 286/286/286 287/287/287 288/288/288
f 289/289/289 290/290/290 291/291/291
f 292/292/292 293/293/293 294/294/294
f 295/295/295 296/296/296 297/297/297
f 298/298/298 299/299/299 300/300/300
f 301/301/301 302/302/302 303/303/303
f 304/304/304 305/305/305 306/306/306
f 307/307/307 308/308/308 309/309/309
f 310/310/310 311/311/311 312/312/312
f 313/313/313 314/314/314 315/315/315
f 316/316/316 317/317/317 318/318/318
f 319/319/319 320/320/320 321/321/321
f 322/322/322 323/323/323 324/324/324
f 325/325/325 326/326/326 327/327/327
f 328/328/328 329/329/329 330/330/330
f 331/331/331 332/332/332 333/333/333
f 334/334/334 335/335/335 336/336/336
f 337/337/337 338/338/338 339/339/339
f 340/340/340 341/341/341 342/342/342
f 343/343/343 344/344/344 345/345/345
f 346/346/346 347/347/347 348/348/348
f 349/349/349 350/350/350 351/351/351
f 352/352/352 353/353/353 354/354/354
f 355/355/355 356/356/356 357/357/357
f 358/358/358 359/359/359 360/360/360
f 361/361/361 362/362/362 363/363/363
f 364/364/364 365/365/365 366/366/366
f 367/367/367 368/368/368 369/369/369
f 370/370/370 371/371/371 372/372/372
f 373/373/373 374/374/374 375/375/375
f 376/376/376 377/377/377 378/378/378
f 379/379/379 380/380/380 381/381/381
f 382/382/382 383/383/383 384/384/384
f 385/385/385 386/386/386 387/387/387
f 388/388/388 389/389/389 390/390/390
f 391/391/391 392/392/392 393/393/393
f 394/394/394 395/395/395 396/396/396
f 397/397/397 398/398/398 399/399/399
f 400/400/400 401/401/401 402/402/402
f 403/403/403 404/404/404 405/405/405
f 406/406/406 407/407/407 408/408/408
f 409/409/409 410/410/410 411/411/411
f 412/412/412 413/413/413 414/414/414
f 415/415/415 416/416/416 417/417/417
f 418/418/418 419/419/419 420/420/420
f 421/421/421 422/422/422 423/423/423
f 424/424/424 425/425/425 426/426/426
f 427/427/427 428/428/428 429/429/429
f 430/430/430 431/431/431 432/432/432
f 433/433/433 434/434/434 435/435/435
f 436/436/436 437/437/437 438/438/438
f 439/439/439 440/440/440 441/441/441
f 442/442/442 443/443/443 444/444/444
f 445/445/445 446/446/446 447/447/447
f 448/448/448 449/449/449 450/450/450
f 451/451/451 452/452/452 453/453/453
f 454/454/454 455/455/455 456/456/456
f 457/457/457 458/458/458 459/459/459
f 460/460/460 461/461/461 462/462/462
f 463/463/463 464/464/464 465/465/465
f 466/466/466 467/467/467 468/468/468
f 469/469/469 470/470/470 471/471/471
f 472/472/472 473/473/473 474/474/474
f 475/475/475 476/476/476 477/477/477
f 478/478/478 479/479/479 480/480/480
f 481/481/481 482/482/482 483/483/483
f 484/484/484 485/485/485 486/486/486
f 487/487/487 488/488/488 489/489/489
f 490/490/490 491/491/491 492/492/492
f 493/493/493 494/494/494 495/495/495
f 496/496/496 497/497/497 498/498/498
f 499/499/499 500/500/500 501/501/501
f 502/502/502 503/503/503 504/504/504
f 505/505/505 506/506/506 507/507/507
f 508/508/508 509/509/509 510/510/510
f 511/511/511 512/512/512 513/513/513
f 514/514/514 515/515/515 516/516/516
f 517/517/517 518/518/518 519/519/519
f 520/520/520 521/521/521 522/522/522
f 523/523/523 524/524/524 525/525/525
f 526/526/526 527/527/527 528/528/528
f 529/529/529 530/530/530 531/531/531
f 532/532/532 533/533/533 534/534/534
f 535/535/535 536/536/536 537/537/537
f 538/538/538 539/539/539 540/540/540
f 541/541/541 542/542/542 543/543/543
f 544/544/544 545/545/545 546/546/546
f 547/547/547 548/548/548 549/549/549
f 550/550/550 551/551/551 552/552/552
f 553/553/553 554/554/554 555/555/555
f 556/556/556 557/557/557 558/558/558
f 559/559/559 560/560/560 561/561/561
f 562/562/562 563/563/563 564/564/564
f 565/565/565 566/566/566 567/567/567
f 568/568/568 569/569/569 570/570/570
f 571/571/571 572/572/572 573/573/573
f 574/574/574 575/575/575 576/576/576
f 577/577/577 578/578/578 579/579/579
f 577/577/577 579/579/579 580/580/580
f 581/581/581 582/582/582 583/583/583
f 581/581/581 583/583/583 584/584/584
f 585/585/585 586/586/586 587/587/587
f 585/585/585 587/587/587 588/588/588
f 589/589/589 590/590/590 591/591/591
f 589/589/589 591/591/591 592/592/592
f 593/593/593 594/594/594 595/595/595
f 593/593/593 595/595/595 596/596/596
f 597/597/597 598/598/598 599/599/599
f 597/597/597 599/599/599 600/600/600
f 601/601/601 602/602/602 603/603/603
f 601/601/601 603/603/603 604/604/604
f 605/605/605 606/606/606 607/607/607
f 605/605/605 607/607/607 608/608/608
f 609/609/609 610/610/610 611/611/611
f 609/609/609 611/611/611 612/612/612
f 613/613/613 614/614/614 615/615/615
f 613/613/613 615/615/615 616/616/616
f 617/617/617 618/618/618 619/619/619
f 617/617/617 619/619/619 620/620/620
f 621/621/621 622/622/622 623/623/623
f 621/621/621 623/623/623 624/624/624
f 625/625/625 626/626/626 627/627/627
f 625/625/625 627/627/627 628/628/628
f 629/629/629 630/630/630 631/631/631
f 629/629/629 631/631/631 632/632/632
f 633/633/633 634/634/634 635/635/635
f 633/633/633 635/635/635 636/636/636
f 637/637/637 638/638/638 639/639/639
f 637/637/637 639/639/639 640/640/640
f 641/641/641 642/642/642 643/643/643
f 641/641/641 643/643/643 644/644/644
f 645/645/645 646/646/646 647/647/647
f 645/645/645 647/647/647 648/648/648
f 649/649/649 650/650/650 651/651/651
f 649/649/649 651/651/651 652/652/652
f 653/653/653 654/654/654 655/655/655
f 653/653/653 655/655/655 656/656/656
f 657/657/657 658/658/658 659/659/659
f 657/657/657 659/659/659 660/660/660
f 661/661/661 662/662/662 663/663/663
f 661/661/661 663/663/663 664/664/664
f 665/665/665 666/666/666 667/667/667
f 665/665/665 667/667/667 668/668/668
f 669/669/669 670/670/670 671/671/671
f 669/669/669 671/671/671 672/672/672
f 673/673/673 674/674/674 675/675/675
f 673/673/673 675/675/675 676/676/676
f 677/677/677 678/678/678 679/679/679
f 677/677/677 679/679/679 680/680/680
f 681/681/681 682/682/682 683/683/683
f 681/681/681 683/683/683 684/684/684
f 685/685/685 686/686/686 687/687/687
f 685/685/685 687/687/687 688/688/688
f 689/689/689 690/690/690 691/691/691
f 689/689/689 691/691/691 692/692/692
f 693/693/693 694/694/694 695/695/695
f 693/693/693 695/695/695 696/696/696
f 697/697/697 698/698/698 699/699/699
f 697/697/697 699/699/699 700/700/700
f 701/701/701 702/702/702 703/703/703
f 701/701/701 703/703/703 704/704/704
f 705/705/705 706/706/706 707/707/707
f 705/705/705 707/707/707 708/708/708
f 709/709/709 710/710/710 711/711/711
f 709/709/709 711/711/711 712/712/712
f 713/713/713 714/714/714 715/715/715
f 713/713/713 715/715/715 716/716/716
f 717/717/717 718/718/718 719/719/719
f 717/717/717 719/719/719 720/720/720
f 721/721/721 722/722/722 723/723/723
f 721/721/721 723/723/723 724/724/724
f 725/725/725 726/726/726 727/727/727
f 725/725/725 727/727/727 728/728/728
f 729/729/729 730/730/730 731/731/731
f 729/729/729 731/731/731 732/732/732
f 733/733/733 734/734/734 735/735/735
f 733/733/733 735/735/735 736/736/736
f 737/737/737 738/738/738 739/739/739
f 737/737/737 739/739/739 740/740/740
f 741/741/741 742/742/742 743/743/743
f 741/741/741 743/743/743 744/744/744
f 745/745/745 746/746/746 747/747/747
f 745/745/745 747/747/747 748/748/748
f 749/749/749 750/750/750 751/751/751
f 749/749/749 751/751/751 752/752/752
f 753/753/753 754/754/754 755/755/755
f 753/753/753 755/755/755 756/756/756
f 757/757/757 758/758/758 759/759/759
f 757/757/757 759/759/759 760/760/760
f 761/761/761 762/762/762 763/763/763
f 761/761/761 763/763/763 764/764/764
f 765/765/765 766/766/766 767/767/767
f 765/765/765 767/767/767 768/768/768
f 769/769/769 770/770/770 771/771/771
f 769/769/769 771/771/771 772/772/772
f 773/773/773 774/774/774 775/775/775
f 773/773/773 775/775/775 776/776/776
f 777/777/777 778/778/778 779/779/779
f 777/777/777 779/779/779 780/780/780
f 781/781/781 782/782/782 783/783/783
f 781/781/781 783/783/783 784/784/784
f 785/785/785 786/786/786 787/787/787
f 785/785/785 787/787/787 788/788/788
f 789/789/789 790/790/790 791/791/791
f 789/789/789 791/791/791 792/792/792
f 793/793/793 794/794/794 795/795/795
f 793/793/793 795/795/795 796/796/796
f 797/797/797 798/798/798 799/799/799
f 797/797/797 799/799/799 800/800/800
f 801/801/801 802/802/802 803/803/803
f 801/801/801 803/803/803 804/804/804
f 805/805/805 806/806/806 807/807/807
f 805/805/805 807/807/807 808/808/808
f 809/809/809 810/810/810 811/811/811
f 809/809/809 811/811/811 812/812/812
f 813/813/813 814/814/814 815/815/815
f 813/813/813 815/815/815 816/816/816
f 817/817/817 818/818/818 819/819/819
f 817/817/817 819/819/819 820/820/820
f 821/821/821 822/822/822 823/823/823
f 821/821/821 823/823/823 824/824/824
f 825/825/825 826/826/826 827/827/827
f 825/825/825 827/827/827 828/828/828
f 829/829/829 830/830/830 831/831/831
f 829/829/829 831/831/831 832/832/832
f 833/833/833 834/834/834 835/835/835
f 833/833/833 835/835/835 836/836/836
f 837/837/837 838/838/838 839/839/839
f 837/837/837 839/839/839 840/840/840
f 841/841/841 842/842/842 843/843/843
f 841/841/841 843/843/843 844/844/844
f 845/845/845 846/846/846 847/847/847
f 845/845/845 847/847/847 848/848/848
f 849/849/849 850/850/850 851/851/851
f 849/849/849 851/851/851 852/852/852
f 853/853/853 854/854/854 855/855/855
f 853/853/853 855/855/855 856/856/856
f 857/857/857 858/858/858 859/859/859
f 857/857/857 859/859/859 860/860/860
f 861/861/861 862/862/862 863/863/863
f 861/861/861 863/863/863 864/864/864
f 865/865/865 866/866/866 867/867/867
f 865/865/865 867/867/867 868/868/868
f 869/869/869 870/870/870 871/871/871
f 869/869/869 871/871/871 872/872/872
f 873/873/873 874/874/874 875/875/875
f 873/873/873 875/875/875 876/876/876
f 877/877/877 878/878/878 879/879/879
f 877/877/877 879/879/879 880/880/880
f 881/881/881 882/882/882 883/883/883
f 881/881/881 883/883/883 884/884/884
f 885/885/885 886/886/886 887/887/887
f 885/885/885 887/887/887 888/888/888
f 889/889/889 890/890/890 891/891/891
f 889/889/889 891/891/891 892/892/892
f 893/893/893 894/894/894 895/895/895
f 893/893/893 895/895/895 896/896/896
f 897/897/897 898/898/898 899/899/899
f 897/897/897 899/899/899 900/900/900
f 901/901/901 902/902/902 903/903/903
f 901/901/901 903/903/903 904/904/904
f 905/905/905 906/906/906 907/907/907
f 905/905/905 907/907/907 908/908/908
f 909/909/909 910/910/910 911/911/911
f 909/909/909 911/911/911 912/912/912
f 913/913/913 914/914/914 915/915/915
f 913/913/913 915/915/915 916/916/916
f 917/917/917 918/918/918 919/919/919
f 917/917/917 919/919/919 920/920/920
f 921/921/921 922/922/922 923/923/923
f 921/921/921 923/923/923 924/924/924
f 925/925/925 926/926/926 927/927/927
f 925/925/925 927/927/927 928/928/928
f 929/929/929 930/930/930 931/931/931
f 929/929/929 931/931/931 932/932/932
f 933/933/933 934/934/934 935/935/935
f 933/933/933 935/935/935 936/936/936
f 937/937/937 938/938/938 939/939/939
f 937/937/937 939/939/939 940/940/940
f 941/941/941 942/942/942 943/943/943
f 941/941/941 943/943/943 944/944/944
f 945/945/945 946/946/946 947/947/947
f 945/945/945 947/947/947 948/948/948
f 949/949/949 950/950/950 951/951/951
f 949/949/949 951/951/951 952/952/952
f 953/953/953 954/954/954 955/955/955
f 953/953/953 955/955/955 956/956/956
f 957/957/957 958/958/958 959/959/959
f 957/957/957 959/959/959 960/960/960
