v -0.187972 0.033449 -0.229067
v -0.181614 0.033434 -0.226283
v -0.185308 0.03346 -0.230978
v -0.190421 0.033438 -0.227033
v -0.181614 0.033434 -0.226283
v -0.187972 0.033449 -0.229067
v -0.192653 0.033427 -0.224887
v -0.181614 0.033434 -0.226283
v -0.190421 0.033438 -0.227033
v -0.192653 0.033427 -0.224887
v -0.1831 0.033429 -0.225352
v -0.181614 0.033434 -0.226283
v -0.192653 0.033427 -0.224887
v -0.184548 0.033424 -0.22432
v -0.1831 0.033429 -0.225352
v -0.194663 0.033414 -0.22264
v -0.184548 0.033424 -0.22432
v -0.192653 0.033427 -0.224887
v -0.194663 0.033414 -0.22264
v -0.185947 0.033417 -0.223195
v -0.184548 0.033424 -0.22432
v -0.194663 0.033414 -0.22264
v -0.187288 0.033411 -0.221989
v -0.185947 0.033417 -0.223195
v -0.196449 0.033402 -0.220304
v -0.187288 0.033411 -0.221989
v -0.194663 0.033414 -0.22264
v -0.196449 0.033402 -0.220304
v -0.188559 0.033404 -0.220711
v -0.187288 0.033411 -0.221989
v -0.196449 0.033402 -0.220304
v -0.189752 0.033397 -0.219373
v -0.188559 0.033404 -0.220711
v -0.198008 0.033389 -0.217886
v -0.189752 0.033397 -0.219373
v -0.196449 0.033402 -0.220304
v -0.198008 0.033389 -0.217886
v -0.190857 0.033389 -0.217984
v -0.189752 0.033397 -0.219373
v -0.198008 0.033389 -0.217886
v -0.191862 0.033381 -0.216554
v -0.190857 0.033389 -0.217984
v -0.199336 0.033375 -0.215401
v -0.191862 0.033381 -0.216554
v -0.198008 0.033389 -0.217886
v -0.199336 0.033375 -0.215401
v -0.192759 0.033373 -0.215094
v -0.191862 0.033381 -0.216554
v -0.20043 0.033361 -0.212856
v -0.192759 0.033373 -0.215094
v -0.199336 0.033375 -0.215401
v -0.20043 0.033361 -0.212856
v -0.193537 0.033365 -0.213613
v -0.192759 0.033373 -0.215094
v -0.20043 0.033361 -0.212856
v -0.194187 0.033357 -0.212123
v -0.193537 0.033365 -0.213613
v -0.201286 0.033347 -0.210264
v -0.194187 0.033357 -0.212123
v -0.20043 0.033361 -0.212856
v -0.188691 0.033358 -0.212368
v -0.186331 0.033358 -0.212276
v -0.187999 0.033359 -0.212386
v -0.189356 0.033358 -0.212316
v -0.186331 0.033358 -0.212276
v -0.188691 0.033358 -0.212368
v -0.189997 0.033358 -0.212235
v -0.186331 0.033358 -0.212276
v -0.189356 0.033358 -0.212316
v -0.189997 0.033358 -0.212235
v -0.184744 0.033356 -0.211954
v -0.186331 0.033358 -0.212276
v -0.190613 0.033357 -0.212125
v -0.184744 0.033356 -0.211954
v -0.189997 0.033358 -0.212235
v -0.191204 0.033356 -0.211993
v -0.184744 0.033356 -0.211954
v -0.190613 0.033357 -0.212125
v -0.201286 0.033347 -0.210264
v -0.194698 0.033349 -0.210633
v -0.194187 0.033357 -0.212123
v -0.191771 0.033356 -0.211838
v -0.184744 0.033356 -0.211954
v -0.191204 0.033356 -0.211993
v -0.191771 0.033356 -0.211838
v -0.183252 0.033353 -0.211434
v -0.184744 0.033356 -0.211954
v -0.192315 0.033355 -0.211664
v -0.183252 0.033353 -0.211434
v -0.191771 0.033356 -0.211838
v -0.192836 0.033354 -0.211477
v -0.183252 0.033353 -0.211434
v -0.192315 0.033355 -0.211664
v -0.193334 0.033353 -0.211276
v -0.183252 0.033353 -0.211434
v -0.192836 0.033354 -0.211477
v -0.193334 0.033353 -0.211276
v -0.181867 0.03335 -0.210727
v -0.183252 0.033353 -0.211434
v -0.19381 0.033351 -0.211066
v -0.181867 0.03335 -0.210727
v -0.193334 0.033353 -0.211276
v -0.194265 0.03335 -0.210851
v -0.181867 0.03335 -0.210727
v -0.19381 0.033351 -0.211066
v -0.194698 0.033349 -0.210633
v -0.181867 0.03335 -0.210727
v -0.194265 0.03335 -0.210851
v -0.194698 0.033349 -0.210633
v -0.180599 0.033345 -0.209848
v -0.181867 0.03335 -0.210727
v -0.201286 0.033347 -0.210264
v -0.180599 0.033345 -0.209848
v -0.194698 0.033349 -0.210633
v -0.201902 0.033333 -0.207634
v -0.180599 0.033345 -0.209848
v -0.201286 0.033347 -0.210264
v -0.201902 0.033333 -0.207634
v -0.179462 0.033339 -0.208809
v -0.180599 0.033345 -0.209848
v -0.201902 0.033333 -0.207634
v -0.178467 0.033333 -0.207622
v -0.179462 0.033339 -0.208809
v -0.202273 0.033318 -0.204978
v -0.191039 0.033326 -0.206458
v -0.201902 0.033333 -0.207634
v -0.191039 0.033326 -0.206458
v -0.190478 0.033327 -0.206518
v -0.201902 0.033333 -0.207634
v -0.190478 0.033327 -0.206518
v -0.178467 0.033333 -0.207622
v -0.201902 0.033333 -0.207634
v -0.190478 0.033327 -0.206518
v -0.189885 0.033327 -0.206553
v -0.178467 0.033333 -0.207622
v -0.189885 0.033327 -0.206553
v -0.189252 0.033327 -0.206564
v -0.178467 0.033333 -0.207622
v -0.189252 0.033327 -0.206564
v -0.177626 0.033325 -0.206301
v -0.178467 0.033333 -0.207622
v -0.188257 0.033327 -0.206506
v -0.177626 0.033325 -0.206301
v -0.189252 0.033327 -0.206564
v -0.187315 0.033326 -0.206337
v -0.177626 0.033325 -0.206301
v -0.188257 0.033327 -0.206506
v -0.202273 0.033318 -0.204978
v -0.191575 0.033326 -0.206369
v -0.191039 0.033326 -0.206458
v -0.202273 0.033318 -0.204978
v -0.192095 0.033325 -0.206249
v -0.191575 0.033326 -0.206369
v -0.186429 0.033324 -0.206065
v -0.177626 0.033325 -0.206301
v -0.187315 0.033326 -0.206337
v -0.186429 0.033324 -0.206065
v -0.176951 0.033318 -0.204858
v -0.177626 0.033325 -0.206301
v -0.202273 0.033318 -0.204978
v -0.192609 0.033324 -0.206094
v -0.192095 0.033325 -0.206249
v -0.202273 0.033318 -0.204978
v -0.193123 0.033323 -0.205903
v -0.192609 0.033324 -0.206094
v -0.185609 0.033322 -0.205694
v -0.176951 0.033318 -0.204858
v -0.186429 0.033324 -0.206065
v -0.202273 0.033318 -0.204978
v -0.193648 0.033322 -0.205673
v -0.193123 0.033323 -0.205903
v -0.18486 0.03332 -0.205232
v -0.176951 0.033318 -0.204858
v -0.185609 0.033322 -0.205694
v -0.202273 0.033318 -0.204978
v -0.19419 0.033321 -0.205401
v -0.193648 0.033322 -0.205673
v -0.202273 0.033318 -0.204978
v -0.19476 0.033319 -0.205086
v -0.19419 0.033321 -0.205401
v -0.184189 0.033317 -0.204685
v -0.176951 0.033318 -0.204858
v -0.18486 0.03332 -0.205232
v -0.202273 0.033318 -0.204978
v -0.195364 0.033317 -0.204722
v -0.19476 0.033319 -0.205086
v -0.202398 0.033304 -0.202306
v -0.195364 0.033317 -0.204722
v -0.202273 0.033318 -0.204978
v -0.184189 0.033317 -0.204685
v -0.176454 0.033309 -0.203306
v -0.176951 0.033318 -0.204858
v -0.202398 0.033304 -0.202306
v -0.196013 0.033315 -0.204309
v -0.195364 0.033317 -0.204722
v -0.183602 0.033313 -0.20406
v -0.176454 0.033309 -0.203306
v -0.184189 0.033317 -0.204685
v -0.202398 0.033304 -0.202306
v -0.196301 0.033305 -0.202614
v -0.196013 0.033315 -0.204309
v -0.183107 0.033309 -0.203364
v -0.176454 0.033309 -0.203306
v -0.183602 0.033313 -0.20406
v -0.182711 0.033305 -0.202602
v -0.176454 0.033309 -0.203306
v -0.183107 0.033309 -0.203364
v -0.182711 0.033305 -0.202602
v -0.176147 0.0333 -0.201659
v -0.176454 0.033309 -0.203306
v -0.202398 0.033304 -0.202306
v -0.196367 0.033297 -0.201036
v -0.196301 0.033305 -0.202614
v -0.182419 0.033301 -0.201781
v -0.176147 0.0333 -0.201659
v -0.182711 0.033305 -0.202602
v -0.202284 0.033292 -0.200115
v -0.196367 0.033297 -0.201036
v -0.202398 0.033304 -0.202306
v -0.182239 0.033296 -0.200908
v -0.176147 0.0333 -0.201659
v -0.182419 0.033301 -0.201781
v -0.182239 0.033296 -0.200908
v -0.176042 0.033291 -0.199927
v -0.176147 0.0333 -0.201659
v -0.202284 0.033292 -0.200115
v -0.196229 0.033289 -0.199582
v -0.196367 0.033297 -0.201036
v -0.182177 0.033291 -0.19999
v -0.176042 0.033291 -0.199927
v -0.182239 0.033296 -0.200908
v -0.201947 0.033281 -0.198055
v -0.196229 0.033289 -0.199582
v -0.202284 0.033292 -0.200115
v -0.182234 0.033286 -0.198971
v -0.176042 0.033291 -0.199927
v -0.182177 0.033291 -0.19999
v -0.182234 0.033286 -0.198971
v -0.17616 0.033281 -0.198216
v -0.176042 0.033291 -0.199927
v -0.201947 0.033281 -0.198055
v -0.195906 0.033282 -0.198256
v -0.196229 0.033289 -0.199582
v -0.1824 0.03328 -0.198014
v -0.17616 0.033281 -0.198216
v -0.182234 0.033286 -0.198971
v -0.201947 0.033281 -0.198055
v -0.195418 0.033275 -0.197066
v -0.195906 0.033282 -0.198256
v -0.1824 0.03328 -0.198014
v -0.176501 0.033272 -0.196569
v -0.17616 0.033281 -0.198216
v -0.201399 0.03327 -0.196137
v -0.195418 0.033275 -0.197066
v -0.201947 0.033281 -0.198055
v -0.182671 0.033275 -0.197125
v -0.176501 0.033272 -0.196569
v -0.1824 0.03328 -0.198014
v -0.183042 0.033271 -0.196308
v -0.176501 0.033272 -0.196569
v -0.182671 0.033275 -0.197125
v -0.201399 0.03327 -0.196137
v -0.194784 0.033269 -0.196015
v -0.195418 0.033275 -0.197066
v -0.183042 0.033271 -0.196308
v -0.177049 0.033264 -0.195
v -0.176501 0.033272 -0.196569
v -0.183508 0.033267 -0.195569
v -0.177049 0.033264 -0.195
v -0.183042 0.033271 -0.196308
v -0.20065 0.03326 -0.194373
v -0.194784 0.033269 -0.196015
v -0.201399 0.03327 -0.196137
v -0.20065 0.03326 -0.194373
v -0.194024 0.033264 -0.195111
v -0.194784 0.033269 -0.196015
v -0.184063 0.033263 -0.194911
v -0.177049 0.033264 -0.195
v -0.183508 0.033267 -0.195569
v -0.20065 0.03326 -0.194373
v -0.193156 0.03326 -0.194358
v -0.194024 0.033264 -0.195111
v -0.184063 0.033263 -0.194911
v -0.177788 0.033256 -0.193529
v -0.177049 0.033264 -0.195
v -0.184704 0.03326 -0.194342
v -0.177788 0.033256 -0.193529
v -0.184063 0.033263 -0.194911
v -0.199709 0.033252 -0.192774
v -0.193156 0.03326 -0.194358
v -0.20065 0.03326 -0.194373
v -0.199709 0.033252 -0.192774
v -0.192201 0.033257 -0.193763
v -0.193156 0.03326 -0.194358
v -0.185423 0.033258 -0.193864
v -0.177788 0.033256 -0.193529
v -0.184704 0.03326 -0.194342
v -0.186218 0.033256 -0.193485
v -0.177788 0.033256 -0.193529
v -0.185423 0.033258 -0.193864
v -0.199709 0.033252 -0.192774
v -0.191177 0.033255 -0.193331
v -0.192201 0.033257 -0.193763
v -0.186218 0.033256 -0.193485
v -0.178702 0.033248 -0.192168
v -0.177788 0.033256 -0.193529
v -0.187083 0.033254 -0.193207
v -0.178702 0.033248 -0.192168
v -0.186218 0.033256 -0.193485
v -0.199709 0.033252 -0.192774
v -0.190104 0.033253 -0.193068
v -0.191177 0.033255 -0.193331
v -0.188012 0.033253 -0.193036
v -0.178702 0.033248 -0.192168
v -0.187083 0.033254 -0.193207
v -0.199709 0.033252 -0.192774
v -0.189001 0.033253 -0.192979
v -0.190104 0.033253 -0.193068
v -0.189001 0.033253 -0.192979
v -0.178702 0.033248 -0.192168
v -0.188012 0.033253 -0.193036
v -0.199709 0.033252 -0.192774
v -0.178702 0.033248 -0.192168
v -0.189001 0.033253 -0.192979
v -0.198587 0.033244 -0.191351
v -0.178702 0.033248 -0.192168
v -0.199709 0.033252 -0.192774
v -0.198587 0.033244 -0.191351
v -0.179775 0.033242 -0.190937
v -0.178702 0.033248 -0.192168
v -0.197294 0.033237 -0.190116
v -0.179775 0.033242 -0.190937
v -0.198587 0.033244 -0.191351
v -0.197294 0.033237 -0.190116
v -0.18099 0.033236 -0.189849
v -0.179775 0.033242 -0.190937
v -0.195841 0.033232 -0.189082
v -0.18099 0.033236 -0.189849
v -0.197294 0.033237 -0.190116
v -0.195841 0.033232 -0.189082
v -0.18233 0.033231 -0.188923
v -0.18099 0.033236 -0.189849
v -0.194237 0.033227 -0.188257
v -0.18233 0.033231 -0.188923
v -0.195841 0.033232 -0.189082
v -0.194237 0.033227 -0.188257
v -0.183781 0.033227 -0.188175
v -0.18233 0.033231 -0.188923
v -0.192493 0.033224 -0.187653
v -0.183781 0.033227 -0.188175
v -0.194237 0.033227 -0.188257
v -0.192493 0.033224 -0.187653
v -0.185324 0.033224 -0.187621
v -0.183781 0.033227 -0.188175
v -0.190619 0.033222 -0.187283
v -0.185324 0.033224 -0.187621
v -0.192493 0.033224 -0.187653
v -0.190619 0.033222 -0.187283
v -0.186944 0.033222 -0.187275
v -0.185324 0.033224 -0.187621
v -0.188625 0.033221 -0.187157
v -0.186944 0.033222 -0.187275
v -0.190619 0.033222 -0.187283
v -0.181614 0.029678 -0.226304
v -0.187972 0.029693 -0.229087
v -0.185308 0.029704 -0.230999
v -0.181614 0.029678 -0.226304
v -0.190421 0.029682 -0.227053
v -0.187972 0.029693 -0.229087
v -0.181614 0.029678 -0.226304
v -0.192653 0.029671 -0.224908
v -0.190421 0.029682 -0.227053
v -0.1831 0.029673 -0.225372
v -0.192653 0.029671 -0.224908
v -0.181614 0.029678 -0.226304
v -0.184548 0.029667 -0.22434
v -0.192653 0.029671 -0.224908
v -0.1831 0.029673 -0.225372
v -0.184548 0.029667 -0.22434
v -0.194663 0.029658 -0.222661
v -0.192653 0.029671 -0.224908
v -0.185947 0.029661 -0.223216
v -0.194663 0.029658 -0.222661
v -0.184548 0.029667 -0.22434
v -0.187288 0.029655 -0.222009
v -0.194663 0.029658 -0.222661
v -0.185947 0.029661 -0.223216
v -0.187288 0.029655 -0.222009
v -0.196449 0.029646 -0.220324
v -0.194663 0.029658 -0.222661
v -0.188559 0.029648 -0.220732
v -0.196449 0.029646 -0.220324
v -0.187288 0.029655 -0.222009
v -0.189752 0.029641 -0.219394
v -0.196449 0.029646 -0.220324
v -0.188559 0.029648 -0.220732
v -0.189752 0.029641 -0.219394
v -0.198008 0.029632 -0.217907
v -0.196449 0.029646 -0.220324
v -0.190857 0.029633 -0.218004
v -0.198008 0.029632 -0.217907
v -0.189752 0.029641 -0.219394
v -0.191862 0.029625 -0.216575
v -0.198008 0.029632 -0.217907
v -0.190857 0.029633 -0.218004
v -0.191862 0.029625 -0.216575
v -0.199336 0.029619 -0.215421
v -0.198008 0.029632 -0.217907
v -0.192759 0.029617 -0.215115
v -0.199336 0.029619 -0.215421
v -0.191862 0.029625 -0.216575
v -0.192759 0.029617 -0.215115
v -0.20043 0.029605 -0.212876
v -0.199336 0.029619 -0.215421
v -0.193537 0.029609 -0.213634
v -0.20043 0.029605 -0.212876
v -0.192759 0.029617 -0.215115
v -0.194187 0.029601 -0.212143
v -0.20043 0.029605 -0.212876
v -0.193537 0.029609 -0.213634
v -0.194187 0.029601 -0.212143
v -0.201286 0.029591 -0.210285
v -0.20043 0.029605 -0.212876
v -0.186331 0.029602 -0.212296
v -0.188691 0.029602 -0.212388
v -0.187999 0.029602 -0.212406
v -0.186331 0.029602 -0.212296
v -0.189356 0.029602 -0.212337
v -0.188691 0.029602 -0.212388
v -0.186331 0.029602 -0.212296
v -0.189997 0.029602 -0.212255
v -0.189356 0.029602 -0.212337
v -0.184744 0.0296 -0.211975
v -0.189997 0.029602 -0.212255
v -0.186331 0.029602 -0.212296
v -0.184744 0.0296 -0.211975
v -0.190613 0.029601 -0.212146
v -0.189997 0.029602 -0.212255
v -0.184744 0.0296 -0.211975
v -0.191204 0.0296 -0.212013
v -0.190613 0.029601 -0.212146
v -0.194698 0.029593 -0.210653
v -0.201286 0.029591 -0.210285
v -0.194187 0.029601 -0.212143
v -0.184744 0.0296 -0.211975
v -0.191771 0.029599 -0.211858
v -0.191204 0.0296 -0.212013
v -0.183252 0.029597 -0.211454
v -0.191771 0.029599 -0.211858
v -0.184744 0.0296 -0.211975
v -0.183252 0.029597 -0.211454
v -0.192315 0.029599 -0.211685
v -0.191771 0.029599 -0.211858
v -0.183252 0.029597 -0.211454
v -0.192836 0.029598 -0.211497
v -0.192315 0.029599 -0.211685
v -0.183252 0.029597 -0.211454
v -0.193334 0.029596 -0.211296
v -0.192836 0.029598 -0.211497
v -0.181867 0.029593 -0.210748
v -0.193334 0.029596 -0.211296
v -0.183252 0.029597 -0.211454
v -0.181867 0.029593 -0.210748
v -0.19381 0.029595 -0.211087
v -0.193334 0.029596 -0.211296
v -0.181867 0.029593 -0.210748
v -0.194265 0.029594 -0.210872
v -0.19381 0.029595 -0.211087
v -0.181867 0.029593 -0.210748
v -0.194698 0.029593 -0.210653
v -0.194265 0.029594 -0.210872
v -0.180599 0.029589 -0.209869
v -0.194698 0.029593 -0.210653
v -0.181867 0.029593 -0.210748
v -0.180599 0.029589 -0.209869
v -0.201286 0.029591 -0.210285
v -0.194698 0.029593 -0.210653
v -0.180599 0.029589 -0.209869
v -0.201902 0.029577 -0.207655
v -0.201286 0.029591 -0.210285
v -0.179462 0.029583 -0.20883
v -0.201902 0.029577 -0.207655
v -0.180599 0.029589 -0.209869
v -0.178467 0.029577 -0.207643
v -0.201902 0.029577 -0.207655
v -0.179462 0.029583 -0.20883
v -0.191039 0.02957 -0.206478
v -0.202273 0.029562 -0.204999
v -0.201902 0.029577 -0.207655
v -0.190478 0.029571 -0.206538
v -0.191039 0.02957 -0.206478
v -0.201902 0.029577 -0.207655
v -0.178467 0.029577 -0.207643
v -0.190478 0.029571 -0.206538
v -0.201902 0.029577 -0.207655
v -0.189885 0.029571 -0.206573
v -0.190478 0.029571 -0.206538
v -0.178467 0.029577 -0.207643
v -0.189252 0.029571 -0.206584
v -0.189885 0.029571 -0.206573
v -0.178467 0.029577 -0.207643
v -0.177626 0.029569 -0.206322
v -0.189252 0.029571 -0.206584
v -0.178467 0.029577 -0.207643
v -0.177626 0.029569 -0.206322
v -0.188257 0.02957 -0.206527
v -0.189252 0.029571 -0.206584
v -0.177626 0.029569 -0.206322
v -0.187315 0.02957 -0.206358
v -0.188257 0.02957 -0.206527
v -0.191575 0.02957 -0.206389
v -0.202273 0.029562 -0.204999
v -0.191039 0.02957 -0.206478
v -0.192095 0.029569 -0.206269
v -0.202273 0.029562 -0.204999
v -0.191575 0.02957 -0.206389
v -0.177626 0.029569 -0.206322
v -0.186429 0.029568 -0.206085
v -0.187315 0.02957 -0.206358
v -0.176951 0.029561 -0.204879
v -0.186429 0.029568 -0.206085
v -0.177626 0.029569 -0.206322
v -0.192609 0.029568 -0.206115
v -0.202273 0.029562 -0.204999
v -0.192095 0.029569 -0.206269
v -0.193123 0.029567 -0.205923
v -0.202273 0.029562 -0.204999
v -0.192609 0.029568 -0.206115
v -0.176951 0.029561 -0.204879
v -0.185609 0.029566 -0.205714
v -0.186429 0.029568 -0.206085
v -0.193648 0.029566 -0.205693
v -0.202273 0.029562 -0.204999
v -0.193123 0.029567 -0.205923
v -0.176951 0.029561 -0.204879
v -0.18486 0.029564 -0.205252
v -0.185609 0.029566 -0.205714
v -0.19419 0.029564 -0.205422
v -0.202273 0.029562 -0.204999
v -0.193648 0.029566 -0.205693
v -0.19476 0.029563 -0.205106
v -0.202273 0.029562 -0.204999
v -0.19419 0.029564 -0.205422
v -0.176951 0.029561 -0.204879
v -0.184189 0.029561 -0.204706
v -0.18486 0.029564 -0.205252
v -0.195364 0.029561 -0.204743
v -0.202273 0.029562 -0.204999
v -0.19476 0.029563 -0.205106
v -0.195364 0.029561 -0.204743
v -0.202398 0.029548 -0.202327
v -0.202273 0.029562 -0.204999
v -0.176454 0.029553 -0.203327
v -0.184189 0.029561 -0.204706
v -0.176951 0.029561 -0.204879
v -0.196013 0.029558 -0.204331
v -0.202398 0.029548 -0.202327
v -0.195364 0.029561 -0.204743
v -0.176454 0.029553 -0.203327
v -0.183602 0.029557 -0.204081
v -0.184189 0.029561 -0.204706
v -0.196301 0.029549 -0.202634
v -0.202398 0.029548 -0.202327
v -0.196013 0.029558 -0.204331
v -0.176454 0.029553 -0.203327
v -0.183107 0.029553 -0.203385
v -0.183602 0.029557 -0.204081
v -0.176454 0.029553 -0.203327
v -0.182711 0.029549 -0.202623
v -0.183107 0.029553 -0.203385
v -0.176147 0.029544 -0.201679
v -0.182711 0.029549 -0.202623
v -0.176454 0.029553 -0.203327
v -0.196367 0.029541 -0.201056
v -0.202398 0.029548 -0.202327
v -0.196301 0.029549 -0.202634
v -0.176147 0.029544 -0.201679
v -0.182419 0.029545 -0.201802
v -0.182711 0.029549 -0.202623
v -0.196367 0.029541 -0.201056
v -0.202284 0.029536 -0.200135
v -0.202398 0.029548 -0.202327
v -0.176147 0.029544 -0.201679
v -0.182239 0.02954 -0.200929
v -0.182419 0.029545 -0.201802
v -0.176042 0.029535 -0.199948
v -0.182239 0.02954 -0.200929
v -0.176147 0.029544 -0.201679
v -0.196229 0.029533 -0.199602
v -0.202284 0.029536 -0.200135
v -0.196367 0.029541 -0.201056
v -0.176042 0.029535 -0.199948
v -0.182177 0.029535 -0.200011
v -0.182239 0.02954 -0.200929
v -0.196229 0.029533 -0.199602
v -0.201947 0.029524 -0.198075
v -0.202284 0.029536 -0.200135
v -0.176042 0.029535 -0.199948
v -0.182234 0.029529 -0.198992
v -0.182177 0.029535 -0.200011
v -0.17616 0.029525 -0.198237
v -0.182234 0.029529 -0.198992
v -0.176042 0.029535 -0.199948
v -0.195906 0.029526 -0.198277
v -0.201947 0.029524 -0.198075
v -0.196229 0.029533 -0.199602
v -0.17616 0.029525 -0.198237
v -0.1824 0.029524 -0.198035
v -0.182234 0.029529 -0.198992
v -0.195418 0.029519 -0.197086
v -0.201947 0.029524 -0.198075
v -0.195906 0.029526 -0.198277
v -0.176501 0.029516 -0.196589
v -0.1824 0.029524 -0.198035
v -0.17616 0.029525 -0.198237
v -0.195418 0.029519 -0.197086
v -0.201399 0.029514 -0.196157
v -0.201947 0.029524 -0.198075
v -0.176501 0.029516 -0.196589
v -0.182671 0.029519 -0.197146
v -0.1824 0.029524 -0.198035
v -0.176501 0.029516 -0.196589
v -0.183042 0.029515 -0.196329
v -0.182671 0.029519 -0.197146
v -0.194784 0.029513 -0.196036
v -0.201399 0.029514 -0.196157
v -0.195418 0.029519 -0.197086
v -0.177049 0.029508 -0.195021
v -0.183042 0.029515 -0.196329
v -0.176501 0.029516 -0.196589
v -0.177049 0.029508 -0.195021
v -0.183508 0.029511 -0.195589
v -0.183042 0.029515 -0.196329
v -0.194784 0.029513 -0.196036
v -0.20065 0.029504 -0.194393
v -0.201399 0.029514 -0.196157
v -0.194024 0.029508 -0.195131
v -0.20065 0.029504 -0.194393
v -0.194784 0.029513 -0.196036
v -0.177049 0.029508 -0.195021
v -0.184063 0.029507 -0.194932
v -0.183508 0.029511 -0.195589
v -0.193156 0.029504 -0.194379
v -0.20065 0.029504 -0.194393
v -0.194024 0.029508 -0.195131
v -0.177788 0.0295 -0.193549
v -0.184063 0.029507 -0.194932
v -0.177049 0.029508 -0.195021
v -0.177788 0.0295 -0.193549
v -0.184704 0.029504 -0.194363
v -0.184063 0.029507 -0.194932
v -0.193156 0.029504 -0.194379
v -0.199709 0.029496 -0.192794
v -0.20065 0.029504 -0.194393
v -0.192201 0.029501 -0.193784
v -0.199709 0.029496 -0.192794
v -0.193156 0.029504 -0.194379
v -0.177788 0.0295 -0.193549
v -0.185423 0.029502 -0.193885
v -0.184704 0.029504 -0.194363
v -0.177788 0.0295 -0.193549
v -0.186218 0.0295 -0.193505
v -0.185423 0.029502 -0.193885
v -0.191177 0.029499 -0.193352
v -0.199709 0.029496 -0.192794
v -0.192201 0.029501 -0.193784
v -0.178702 0.029492 -0.192189
v -0.186218 0.0295 -0.193505
v -0.177788 0.0295 -0.193549
v -0.178702 0.029492 -0.192189
v -0.187083 0.029498 -0.193227
v -0.186218 0.0295 -0.193505
v -0.190104 0.029497 -0.193089
v -0.199709 0.029496 -0.192794
v -0.191177 0.029499 -0.193352
v -0.178702 0.029492 -0.192189
v -0.188012 0.029497 -0.193057
v -0.187083 0.029498 -0.193227
v -0.189001 0.029497 -0.192999
v -0.199709 0.029496 -0.192794
v -0.190104 0.029497 -0.193089
v -0.178702 0.029492 -0.192189
v -0.189001 0.029497 -0.192999
v -0.188012 0.029497 -0.193057
v -0.178702 0.029492 -0.192189
v -0.199709 0.029496 -0.192794
v -0.189001 0.029497 -0.192999
v -0.178702 0.029492 -0.192189
v -0.198587 0.029488 -0.191372
v -0.199709 0.029496 -0.192794
v -0.179775 0.029486 -0.190957
v -0.198587 0.029488 -0.191372
v -0.178702 0.029492 -0.192189
v -0.179775 0.029486 -0.190957
v -0.197294 0.029481 -0.190137
v -0.198587 0.029488 -0.191372
v -0.18099 0.02948 -0.18987
v -0.197294 0.029481 -0.190137
v -0.179775 0.029486 -0.190957
v -0.18099 0.02948 -0.18987
v -0.195841 0.029476 -0.189102
v -0.197294 0.029481 -0.190137
v -0.18233 0.029475 -0.188944
v -0.195841 0.029476 -0.189102
v -0.18099 0.02948 -0.18987
v -0.18233 0.029475 -0.188944
v -0.194237 0.029471 -0.188277
v -0.195841 0.029476 -0.189102
v -0.183781 0.029471 -0.188195
v -0.194237 0.029471 -0.188277
v -0.18233 0.029475 -0.188944
v -0.183781 0.029471 -0.188195
v -0.192493 0.029468 -0.187673
v -0.194237 0.029471 -0.188277
v -0.185324 0.029468 -0.187641
v -0.192493 0.029468 -0.187673
v -0.183781 0.029471 -0.188195
v -0.185324 0.029468 -0.187641
v -0.190619 0.029466 -0.187303
v -0.192493 0.029468 -0.187673
v -0.186944 0.029466 -0.187296
v -0.190619 0.029466 -0.187303
v -0.185324 0.029468 -0.187641
v -0.186944 0.029466 -0.187296
v -0.188625 0.029465 -0.187177
v -0.190619 0.029466 -0.187303
v -0.1831 0.033429 -0.225352
v -0.184548 0.033424 -0.22432
v -0.184548 0.029667 -0.22434
v -0.1831 0.029673 -0.225372
v -0.184548 0.033424 -0.22432
v -0.185947 0.033417 -0.223195
v -0.185947 0.029661 -0.223216
v -0.184548 0.029667 -0.22434
v -0.185947 0.033417 -0.223195
v -0.187288 0.033411 -0.221989
v -0.187288 0.029655 -0.222009
v -0.185947 0.029661 -0.223216
v -0.187288 0.033411 -0.221989
v -0.188559 0.033404 -0.220711
v -0.188559 0.029648 -0.220732
v -0.187288 0.029655 -0.222009
v -0.188559 0.033404 -0.220711
v -0.189752 0.033397 -0.219373
v -0.189752 0.029641 -0.219394
v -0.188559 0.029648 -0.220732
v -0.189752 0.033397 -0.219373
v -0.190857 0.033389 -0.217984
v -0.190857 0.029633 -0.218004
v -0.189752 0.029641 -0.219394
v -0.190857 0.033389 -0.217984
v -0.191862 0.033381 -0.216554
v -0.191862 0.029625 -0.216575
v -0.190857 0.029633 -0.218004
v -0.191862 0.033381 -0.216554
v -0.192759 0.033373 -0.215094
v -0.192759 0.029617 -0.215115
v -0.191862 0.029625 -0.216575
v -0.192759 0.033373 -0.215094
v -0.193537 0.033365 -0.213613
v -0.193537 0.029609 -0.213634
v -0.192759 0.029617 -0.215115
v -0.193537 0.033365 -0.213613
v -0.194187 0.033357 -0.212123
v -0.194187 0.029601 -0.212143
v -0.193537 0.029609 -0.213634
v -0.194187 0.033357 -0.212123
v -0.194698 0.033349 -0.210633
v -0.194698 0.029593 -0.210653
v -0.194187 0.029601 -0.212143
v -0.194698 0.033349 -0.210633
v -0.194265 0.03335 -0.210851
v -0.194265 0.029594 -0.210872
v -0.194698 0.029593 -0.210653
v -0.194265 0.03335 -0.210851
v -0.19381 0.033351 -0.211066
v -0.19381 0.029595 -0.211087
v -0.194265 0.029594 -0.210872
v -0.19381 0.033351 -0.211066
v -0.193334 0.033353 -0.211276
v -0.193334 0.029596 -0.211296
v -0.19381 0.029595 -0.211087
v -0.193334 0.033353 -0.211276
v -0.192836 0.033354 -0.211477
v -0.192836 0.029598 -0.211497
v -0.193334 0.029596 -0.211296
v -0.192836 0.033354 -0.211477
v -0.192315 0.033355 -0.211664
v -0.192315 0.029599 -0.211685
v -0.192836 0.029598 -0.211497
v -0.192315 0.033355 -0.211664
v -0.191771 0.033356 -0.211838
v -0.191771 0.029599 -0.211858
v -0.192315 0.029599 -0.211685
v -0.191771 0.033356 -0.211838
v -0.191204 0.033356 -0.211993
v -0.191204 0.0296 -0.212013
v -0.191771 0.029599 -0.211858
v -0.191204 0.033356 -0.211993
v -0.190613 0.033357 -0.212125
v -0.190613 0.029601 -0.212146
v -0.191204 0.0296 -0.212013
v -0.190613 0.033357 -0.212125
v -0.189997 0.033358 -0.212235
v -0.189997 0.029602 -0.212255
v -0.190613 0.029601 -0.212146
v -0.189997 0.033358 -0.212235
v -0.189356 0.033358 -0.212316
v -0.189356 0.029602 -0.212337
v -0.189997 0.029602 -0.212255
v -0.189356 0.033358 -0.212316
v -0.188691 0.033358 -0.212368
v -0.188691 0.029602 -0.212388
v -0.189356 0.029602 -0.212337
v -0.188691 0.033358 -0.212368
v -0.187999 0.033359 -0.212386
v -0.187999 0.029602 -0.212406
v -0.188691 0.029602 -0.212388
v -0.187999 0.033359 -0.212386
v -0.186331 0.033358 -0.212276
v -0.186331 0.029602 -0.212296
v -0.187999 0.029602 -0.212406
v -0.186331 0.033358 -0.212276
v -0.184744 0.033356 -0.211954
v -0.184744 0.0296 -0.211975
v -0.186331 0.029602 -0.212296
v -0.184744 0.033356 -0.211954
v -0.183252 0.033353 -0.211434
v -0.183252 0.029597 -0.211454
v -0.184744 0.0296 -0.211975
v -0.183252 0.033353 -0.211434
v -0.181867 0.03335 -0.210727
v -0.181867 0.029593 -0.210748
v -0.183252 0.029597 -0.211454
v -0.181867 0.03335 -0.210727
v -0.180599 0.033345 -0.209848
v -0.180599 0.029589 -0.209869
v -0.181867 0.029593 -0.210748
v -0.180599 0.033345 -0.209848
v -0.179462 0.033339 -0.208809
v -0.179462 0.029583 -0.20883
v -0.180599 0.029589 -0.209869
v -0.179462 0.033339 -0.208809
v -0.178467 0.033333 -0.207622
v -0.178467 0.029577 -0.207643
v -0.179462 0.029583 -0.20883
v -0.178467 0.033333 -0.207622
v -0.177626 0.033325 -0.206301
v -0.177626 0.029569 -0.206322
v -0.178467 0.029577 -0.207643
v -0.177626 0.033325 -0.206301
v -0.176951 0.033318 -0.204858
v -0.176951 0.029561 -0.204879
v -0.177626 0.029569 -0.206322
v -0.176951 0.033318 -0.204858
v -0.176454 0.033309 -0.203306
v -0.176454 0.029553 -0.203327
v -0.176951 0.029561 -0.204879
v -0.176454 0.033309 -0.203306
v -0.176147 0.0333 -0.201659
v -0.176147 0.029544 -0.201679
v -0.176454 0.029553 -0.203327
v -0.176147 0.0333 -0.201659
v -0.176042 0.033291 -0.199927
v -0.176042 0.029535 -0.199948
v -0.176147 0.029544 -0.201679
v -0.176042 0.033291 -0.199927
v -0.17616 0.033281 -0.198216
v -0.17616 0.029525 -0.198237
v -0.176042 0.029535 -0.199948
v -0.17616 0.033281 -0.198216
v -0.176501 0.033272 -0.196569
v -0.176501 0.029516 -0.196589
v -0.17616 0.029525 -0.198237
v -0.176501 0.033272 -0.196569
v -0.177049 0.033264 -0.195
v -0.177049 0.029508 -0.195021
v -0.176501 0.029516 -0.196589
v -0.177049 0.033264 -0.195
v -0.177788 0.033256 -0.193529
v -0.177788 0.0295 -0.193549
v -0.177049 0.029508 -0.195021
v -0.177788 0.033256 -0.193529
v -0.178702 0.033248 -0.192168
v -0.178702 0.029492 -0.192189
v -0.177788 0.0295 -0.193549
v -0.178702 0.033248 -0.192168
v -0.179775 0.033242 -0.190937
v -0.179775 0.029486 -0.190957
v -0.178702 0.029492 -0.192189
v -0.179775 0.033242 -0.190937
v -0.18099 0.033236 -0.189849
v -0.18099 0.02948 -0.18987
v -0.179775 0.029486 -0.190957
v -0.18099 0.033236 -0.189849
v -0.18233 0.033231 -0.188923
v -0.18233 0.029475 -0.188944
v -0.18099 0.02948 -0.18987
v -0.18233 0.033231 -0.188923
v -0.183781 0.033227 -0.188175
v -0.183781 0.029471 -0.188195
v -0.18233 0.029475 -0.188944
v -0.183781 0.033227 -0.188175
v -0.185324 0.033224 -0.187621
v -0.185324 0.029468 -0.187641
v -0.183781 0.029471 -0.188195
v -0.185324 0.033224 -0.187621
v -0.186944 0.033222 -0.187275
v -0.186944 0.029466 -0.187296
v -0.185324 0.029468 -0.187641
v -0.186944 0.033222 -0.187275
v -0.188625 0.033221 -0.187157
v -0.188625 0.029465 -0.187177
v -0.186944 0.029466 -0.187296
v -0.188625 0.033221 -0.187157
v -0.190619 0.033222 -0.187283
v -0.190619 0.029466 -0.187303
v -0.188625 0.029465 -0.187177
v -0.190619 0.033222 -0.187283
v -0.192493 0.033224 -0.187653
v -0.192493 0.029468 -0.187673
v -0.190619 0.029466 -0.187303
v -0.192493 0.033224 -0.187653
v -0.194237 0.033227 -0.188257
v -0.194237 0.029471 -0.188277
v -0.192493 0.029468 -0.187673
v -0.194237 0.033227 -0.188257
v -0.195841 0.033232 -0.189082
v -0.195841 0.029476 -0.189102
v -0.194237 0.029471 -0.188277
v -0.195841 0.033232 -0.189082
v -0.197294 0.033237 -0.190116
v -0.197294 0.029481 -0.190137
v -0.195841 0.029476 -0.189102
v -0.197294 0.033237 -0.190116
v -0.198587 0.033244 -0.191351
v -0.198587 0.029488 -0.191372
v -0.197294 0.029481 -0.190137
v -0.198587 0.033244 -0.191351
v -0.199709 0.033252 -0.192774
v -0.199709 0.029496 -0.192794
v -0.198587 0.029488 -0.191372
v -0.199709 0.033252 -0.192774
v -0.20065 0.03326 -0.194373
v -0.20065 0.029504 -0.194393
v -0.199709 0.029496 -0.192794
v -0.20065 0.03326 -0.194373
v -0.201399 0.03327 -0.196137
v -0.201399 0.029514 -0.196157
v -0.20065 0.029504 -0.194393
v -0.201399 0.03327 -0.196137
v -0.201947 0.033281 -0.198055
v -0.201947 0.029524 -0.198075
v -0.201399 0.029514 -0.196157
v -0.201947 0.033281 -0.198055
v -0.202284 0.033292 -0.200115
v -0.202284 0.029536 -0.200135
v -0.201947 0.029524 -0.198075
v -0.202284 0.033292 -0.200115
v -0.202398 0.033304 -0.202306
v -0.202398 0.029548 -0.202327
v -0.202284 0.029536 -0.200135
v -0.202398 0.033304 -0.202306
v -0.202273 0.033318 -0.204978
v -0.202273 0.029562 -0.204999
v -0.202398 0.029548 -0.202327
v -0.202273 0.033318 -0.204978
v -0.201902 0.033333 -0.207634
v -0.201902 0.029577 -0.207655
v -0.202273 0.029562 -0.204999
v -0.201902 0.033333 -0.207634
v -0.201286 0.033347 -0.210264
v -0.201286 0.029591 -0.210285
v -0.201902 0.029577 -0.207655
v -0.201286 0.033347 -0.210264
v -0.20043 0.033361 -0.212856
v -0.20043 0.029605 -0.212876
v -0.201286 0.029591 -0.210285
v -0.20043 0.033361 -0.212856
v -0.199336 0.033375 -0.215401
v -0.199336 0.029619 -0.215421
v -0.20043 0.029605 -0.212876
v -0.199336 0.033375 -0.215401
v -0.198008 0.033389 -0.217886
v -0.198008 0.029632 -0.217907
v -0.199336 0.029619 -0.215421
v -0.198008 0.033389 -0.217886
v -0.196449 0.033402 -0.220304
v -0.196449 0.029646 -0.220324
v -0.198008 0.029632 -0.217907
v -0.196449 0.033402 -0.220304
v -0.194663 0.033414 -0.22264
v -0.194663 0.029658 -0.222661
v -0.196449 0.029646 -0.220324
v -0.194663 0.033414 -0.22264
v -0.192653 0.033427 -0.224887
v -0.192653 0.029671 -0.224908
v -0.194663 0.029658 -0.222661
v -0.192653 0.033427 -0.224887
v -0.190421 0.033438 -0.227033
v -0.190421 0.029682 -0.227053
v -0.192653 0.029671 -0.224908
v -0.190421 0.033438 -0.227033
v -0.187972 0.033449 -0.229067
v -0.187972 0.029693 -0.229087
v -0.190421 0.029682 -0.227053
v -0.187972 0.033449 -0.229067
v -0.185308 0.03346 -0.230978
v -0.185308 0.029704 -0.230999
v -0.187972 0.029693 -0.229087
v -0.185308 0.03346 -0.230978
v -0.181614 0.033434 -0.226283
v -0.181614 0.029678 -0.226304
v -0.185308 0.029704 -0.230999
v -0.181614 0.033434 -0.226283
v -0.1831 0.033429 -0.225352
v -0.1831 0.029673 -0.225372
v -0.181614 0.029678 -0.226304
v -0.188012 0.033253 -0.193036
v -0.187083 0.033254 -0.193207
v -0.187083 0.029498 -0.193227
v -0.188012 0.029497 -0.193057
v -0.187083 0.033254 -0.193207
v -0.186218 0.033256 -0.193485
v -0.186218 0.0295 -0.193505
v -0.187083 0.029498 -0.193227
v -0.186218 0.033256 -0.193485
v -0.185423 0.033258 -0.193864
v -0.185423 0.029502 -0.193885
v -0.186218 0.0295 -0.193505
v -0.185423 0.033258 -0.193864
v -0.184704 0.03326 -0.194342
v -0.184704 0.029504 -0.194363
v -0.185423 0.029502 -0.193885
v -0.184704 0.03326 -0.194342
v -0.184063 0.033263 -0.194911
v -0.184063 0.029507 -0.194932
v -0.184704 0.029504 -0.194363
v -0.184063 0.033263 -0.194911
v -0.183508 0.033267 -0.195569
v -0.183508 0.029511 -0.195589
v -0.184063 0.029507 -0.194932
v -0.183508 0.033267 -0.195569
v -0.183042 0.033271 -0.196308
v -0.183042 0.029515 -0.196329
v -0.183508 0.029511 -0.195589
v -0.183042 0.033271 -0.196308
v -0.182671 0.033275 -0.197125
v -0.182671 0.029519 -0.197146
v -0.183042 0.029515 -0.196329
v -0.182671 0.033275 -0.197125
v -0.1824 0.03328 -0.198014
v -0.1824 0.029524 -0.198035
v -0.182671 0.029519 -0.197146
v -0.1824 0.03328 -0.198014
v -0.182234 0.033286 -0.198971
v -0.182234 0.029529 -0.198992
v -0.1824 0.029524 -0.198035
v -0.182234 0.033286 -0.198971
v -0.182177 0.033291 -0.19999
v -0.182177 0.029535 -0.200011
v -0.182234 0.029529 -0.198992
v -0.182177 0.033291 -0.19999
v -0.182239 0.033296 -0.200908
v -0.182239 0.02954 -0.200929
v -0.182177 0.029535 -0.200011
v -0.182239 0.033296 -0.200908
v -0.182419 0.033301 -0.201781
v -0.182419 0.029545 -0.201802
v -0.182239 0.02954 -0.200929
v -0.182419 0.033301 -0.201781
v -0.182711 0.033305 -0.202602
v -0.182711 0.029549 -0.202623
v -0.182419 0.029545 -0.201802
v -0.182711 0.033305 -0.202602
v -0.183107 0.033309 -0.203364
v -0.183107 0.029553 -0.203385
v -0.182711 0.029549 -0.202623
v -0.183107 0.033309 -0.203364
v -0.183602 0.033313 -0.20406
v -0.183602 0.029557 -0.204081
v -0.183107 0.029553 -0.203385
v -0.183602 0.033313 -0.20406
v -0.184189 0.033317 -0.204685
v -0.184189 0.029561 -0.204706
v -0.183602 0.029557 -0.204081
v -0.184189 0.033317 -0.204685
v -0.18486 0.03332 -0.205232
v -0.18486 0.029564 -0.205252
v -0.184189 0.029561 -0.204706
v -0.18486 0.03332 -0.205232
v -0.185609 0.033322 -0.205694
v -0.185609 0.029566 -0.205714
v -0.18486 0.029564 -0.205252
v -0.185609 0.033322 -0.205694
v -0.186429 0.033324 -0.206065
v -0.186429 0.029568 -0.206085
v -0.185609 0.029566 -0.205714
v -0.186429 0.033324 -0.206065
v -0.187315 0.033326 -0.206337
v -0.187315 0.02957 -0.206358
v -0.186429 0.029568 -0.206085
v -0.187315 0.033326 -0.206337
v -0.188257 0.033327 -0.206506
v -0.188257 0.02957 -0.206527
v -0.187315 0.02957 -0.206358
v -0.188257 0.033327 -0.206506
v -0.189252 0.033327 -0.206564
v -0.189252 0.029571 -0.206584
v -0.188257 0.02957 -0.206527
v -0.189252 0.033327 -0.206564
v -0.189885 0.033327 -0.206553
v -0.189885 0.029571 -0.206573
v -0.189252 0.029571 -0.206584
v -0.189885 0.033327 -0.206553
v -0.190478 0.033327 -0.206518
v -0.190478 0.029571 -0.206538
v -0.189885 0.029571 -0.206573
v -0.190478 0.033327 -0.206518
v -0.191039 0.033326 -0.206458
v -0.191039 0.02957 -0.206478
v -0.190478 0.029571 -0.206538
v -0.191039 0.033326 -0.206458
v -0.191575 0.033326 -0.206369
v -0.191575 0.02957 -0.206389
v -0.191039 0.02957 -0.206478
v -0.191575 0.033326 -0.206369
v -0.192095 0.033325 -0.206249
v -0.192095 0.029569 -0.206269
v -0.191575 0.02957 -0.206389
v -0.192095 0.033325 -0.206249
v -0.192609 0.033324 -0.206094
v -0.192609 0.029568 -0.206115
v -0.192095 0.029569 -0.206269
v -0.192609 0.033324 -0.206094
v -0.193123 0.033323 -0.205903
v -0.193123 0.029567 -0.205923
v -0.192609 0.029568 -0.206115
v -0.193123 0.033323 -0.205903
v -0.193648 0.033322 -0.205673
v -0.193648 0.029566 -0.205693
v -0.193123 0.029567 -0.205923
v -0.193648 0.033322 -0.205673
v -0.19419 0.033321 -0.205401
v -0.19419 0.029564 -0.205422
v -0.193648 0.029566 -0.205693
v -0.19419 0.033321 -0.205401
v -0.19476 0.033319 -0.205086
v -0.19476 0.029563 -0.205106
v -0.19419 0.029564 -0.205422
v -0.19476 0.033319 -0.205086
v -0.195364 0.033317 -0.204722
v -0.195364 0.029561 -0.204743
v -0.19476 0.029563 -0.205106
v -0.195364 0.033317 -0.204722
v -0.196013 0.033315 -0.204309
v -0.196013 0.029558 -0.204331
v -0.195364 0.029561 -0.204743
v -0.196013 0.033315 -0.204309
v -0.196301 0.033305 -0.202614
v -0.196301 0.029549 -0.202634
v -0.196013 0.029558 -0.204331
v -0.196301 0.033305 -0.202614
v -0.196367 0.033297 -0.201036
v -0.196367 0.029541 -0.201056
v -0.196301 0.029549 -0.202634
v -0.196367 0.033297 -0.201036
v -0.196229 0.033289 -0.199582
v -0.196229 0.029533 -0.199602
v -0.196367 0.029541 -0.201056
v -0.196229 0.033289 -0.199582
v -0.195906 0.033282 -0.198256
v -0.195906 0.029526 -0.198277
v -0.196229 0.029533 -0.199602
v -0.195906 0.033282 -0.198256
v -0.195418 0.033275 -0.197066
v -0.195418 0.029519 -0.197086
v -0.195906 0.029526 -0.198277
v -0.195418 0.033275 -0.197066
v -0.194784 0.033269 -0.196015
v -0.194784 0.029513 -0.196036
v -0.195418 0.029519 -0.197086
v -0.194784 0.033269 -0.196015
v -0.194024 0.033264 -0.195111
v -0.194024 0.029508 -0.195131
v -0.194784 0.029513 -0.196036
v -0.194024 0.033264 -0.195111
v -0.193156 0.03326 -0.194358
v -0.193156 0.029504 -0.194379
v -0.194024 0.029508 -0.195131
v -0.193156 0.03326 -0.194358
v -0.192201 0.033257 -0.193763
v -0.192201 0.029501 -0.193784
v -0.193156 0.029504 -0.194379
v -0.192201 0.033257 -0.193763
v -0.191177 0.033255 -0.193331
v -0.191177 0.029499 -0.193352
v -0.192201 0.029501 -0.193784
v -0.191177 0.033255 -0.193331
v -0.190104 0.033253 -0.193068
v -0.190104 0.029497 -0.193089
v -0.191177 0.029499 -0.193352
v -0.190104 0.033253 -0.193068
v -0.189001 0.033253 -0.192979
v -0.189001 0.029497 -0.192999
v -0.190104 0.029497 -0.193089
v -0.189001 0.033253 -0.192979
v -0.188012 0.033253 -0.193036
v -0.188012 0.029497 -0.193057
v -0.189001 0.029497 -0.192999
vn -0 1 0.0055
vn -0 1 0.0055
vn -0.0001 1 0.0056
vn -0 1 0.0052
vn -0 1 0.0055
vn -0 1 0.0055
vn -0 1 0.0056
vn -0 1 0.0055
vn -0 1 0.0052
vn -0 1 0.0056
vn 0.0001 1 0.0054
vn -0 1 0.0055
vn -0 1 0.0056
vn -0 1 0.0052
vn 0.0001 1 0.0054
vn 0.0001 1 0.0056
vn -0 1 0.0052
vn -0 1 0.0056
vn 0.0001 1 0.0056
vn -0 1 0.0057
vn -0 1 0.0052
vn 0.0001 1 0.0056
vn -0 1 0.0054
vn -0 1 0.0057
vn -0 1 0.0053
vn -0 1 0.0054
vn 0.0001 1 0.0056
vn -0 1 0.0053
vn -0 1 0.0054
vn -0 1 0.0054
vn -0 1 0.0053
vn -0 1 0.0054
vn -0 1 0.0054
vn 0.0001 1 0.0056
vn -0 1 0.0054
vn -0 1 0.0053
vn 0.0001 1 0.0056
vn 0.0001 1 0.0058
vn -0 1 0.0054
vn 0.0001 1 0.0056
vn 0.0001 1 0.0056
vn 0.0001 1 0.0058
vn 0.0001 1 0.0056
vn 0.0001 1 0.0056
vn 0.0001 1 0.0056
vn 0.0001 1 0.0056
vn -0 1 0.0055
vn 0.0001 1 0.0056
vn -0 1 0.0054
vn -0 1 0.0055
vn 0.0001 1 0.0056
vn -0 1 0.0054
vn -0 1 0.0054
vn -0 1 0.0055
vn -0 1 0.0054
vn -0 1 0.0054
vn -0 1 0.0054
vn -0 1 0.0053
vn -0 1 0.0054
vn -0 1 0.0054
vn -0 1 0.0058
vn -0 1 0.0056
vn -0 1 0.0055
vn -0 1 0.0054
vn -0 1 0.0056
vn -0 1 0.0058
vn -0 1 0.0051
vn -0 1 0.0056
vn -0 1 0.0054
vn -0 1 0.0051
vn 0.0001 1 0.0055
vn -0 1 0.0056
vn -0 1 0.0057
vn 0.0001 1 0.0055
vn -0 1 0.0051
vn -0 1 0.0055
vn 0.0001 1 0.0055
vn -0 1 0.0057
vn -0 1 0.0053
vn -0 1 0.0052
vn -0 1 0.0054
vn 0.0001 1 0.0055
vn 0.0001 1 0.0055
vn -0 1 0.0055
vn 0.0001 1 0.0055
vn -0 1 0.0052
vn 0.0001 1 0.0055
vn 0.0001 1 0.0056
vn -0 1 0.0052
vn 0.0001 1 0.0055
vn 0.0001 1 0.0052
vn -0 1 0.0052
vn 0.0001 1 0.0056
vn -0 1 0.0055
vn -0 1 0.0052
vn 0.0001 1 0.0052
vn -0 1 0.0055
vn -0 1 0.0055
vn -0 1 0.0052
vn -0.0001 1 0.0052
vn -0 1 0.0055
vn -0 1 0.0055
vn -0 1 0.0055
vn -0 1 0.0055
vn -0.0001 1 0.0052
vn -0 1 0.0052
vn -0 1 0.0055
vn -0 1 0.0055
vn -0 1 0.0052
vn -0 1 0.0057
vn -0 1 0.0055
vn -0 1 0.0053
vn -0 1 0.0057
vn -0 1 0.0052
vn -0 1 0.0055
vn -0 1 0.0057
vn -0 1 0.0053
vn -0 1 0.0055
vn -0 1 0.0052
vn -0 1 0.0057
vn -0 1 0.0055
vn -0 1 0.0057
vn -0 1 0.0052
vn -0 1 0.0054
vn -0 1 0.0054
vn -0 1 0.0055
vn -0 1 0.0054
vn -0 1 0.0059
vn -0 1 0.0055
vn -0 1 0.0059
vn -0 1 0.0057
vn -0 1 0.0055
vn -0 1 0.0059
vn -0 1 0.0054
vn -0 1 0.0057
vn -0 1 0.0054
vn -0 1 0.0054
vn -0 1 0.0057
vn -0 1 0.0054
vn -0 1 0.0052
vn -0 1 0.0057
vn -0 1 0.0054
vn -0 1 0.0052
vn -0 1 0.0054
vn 0.0001 1 0.0056
vn -0 1 0.0052
vn -0 1 0.0054
vn -0 1 0.0054
vn 0.0001 1 0.0058
vn -0 1 0.0054
vn -0 1 0.0054
vn -0 1 0.0053
vn 0.0001 1 0.0058
vn -0 1 0.0054
vn -0 1 0.0052
vn 0.0001 1 0.0056
vn -0 1 0.0054
vn -0 1 0.0054
vn -0 1 0.0052
vn -0 1 0.0054
vn -0 1 0.0051
vn -0 1 0.0053
vn -0 1 0.0054
vn -0 1 0.0054
vn -0 1 0.0051
vn -0.0001 1 0.0054
vn -0 1 0.0054
vn -0 1 0.0054
vn -0 1 0.0054
vn -0 1 0.0054
vn -0 1 0.0054
vn -0 1 0.0054
vn -0 1 0.0054
vn -0.0001 1 0.0054
vn -0 1 0.0054
vn -0 1 0.0056
vn -0 1 0.0054
vn -0 1 0.0054
vn -0 1 0.0057
vn -0 1 0.0056
vn -0 1 0.0057
vn -0 1 0.0054
vn -0 1 0.0054
vn -0 1 0.0054
vn -0.0001 1 0.0053
vn -0 1 0.0057
vn -0 1 0.0054
vn -0.0001 1 0.0053
vn -0 1 0.0054
vn -0 1 0.0057
vn -0 1 0.0056
vn -0 1 0.0054
vn -0 1 0.0054
vn -0 1 0.0053
vn -0.0001 1 0.0053
vn -0 1 0.0053
vn -0 1 0.0056
vn -0 1 0.0057
vn -0 1 0.0054
vn 0.0001 1 0.0055
vn -0 1 0.0053
vn -0 1 0.0056
vn -0 1 0.0056
vn -0 1 0.0053
vn -0 1 0.0051
vn -0 1 0.0056
vn -0 1 0.0056
vn -0 1 0.0051
vn -0 1 0.0053
vn -0 1 0.0056
vn -0 1 0.0054
vn -0 1 0.0053
vn 0.0001 1 0.0055
vn 0.0001 1 0.0052
vn -0 1 0.0053
vn -0 1 0.0051
vn -0 1 0.0054
vn -0 1 0.0053
vn -0 1 0.0054
vn -0 1 0.0056
vn -0 1 0.0053
vn 0.0001 1 0.0052
vn -0 1 0.0056
vn -0 1 0.0055
vn -0 1 0.0053
vn -0 1 0.0054
vn -0 1 0.0054
vn -0 1 0.0053
vn -0.0001 1 0.0052
vn -0 1 0.0055
vn -0 1 0.0056
vn -0 1 0.0055
vn -0 1 0.0054
vn -0 1 0.0054
vn -0 1 0.0057
vn -0 1 0.0055
vn -0.0001 1 0.0052
vn -0 1 0.0057
vn 0.0001 1 0.0057
vn -0 1 0.0055
vn -0 1 0.0055
vn -0 1 0.0056
vn -0 1 0.0054
vn -0 1 0.0059
vn 0.0001 1 0.0057
vn -0 1 0.0057
vn -0 1 0.0055
vn -0 1 0.0057
vn -0 1 0.0056
vn -0 1 0.0059
vn -0 1 0.0053
vn 0.0001 1 0.0057
vn 0.0001 1 0.0057
vn -0 1 0.0057
vn -0 1 0.0055
vn -0 1 0.0055
vn -0 1 0.0053
vn -0 1 0.0059
vn -0 1 0.0052
vn -0 1 0.0053
vn -0 1 0.0055
vn 0.0001 1 0.0057
vn -0 1 0.0056
vn -0 1 0.0057
vn -0 1 0.0052
vn -0 1 0.0053
vn -0 1 0.0053
vn -0 1 0.0058
vn -0 1 0.0053
vn -0 1 0.0052
vn -0 1 0.0054
vn -0 1 0.0056
vn 0.0001 1 0.0057
vn -0 1 0.0054
vn -0 1 0.0054
vn -0 1 0.0056
vn -0 1 0.0055
vn -0 1 0.0053
vn -0 1 0.0058
vn -0 1 0.0054
vn -0 1 0.0051
vn -0 1 0.0054
vn -0 1 0.0055
vn -0 1 0.0055
vn -0 1 0.0053
vn -0 1 0.0051
vn -0 1 0.0055
vn -0 1 0.0055
vn -0 1 0.0052
vn -0 1 0.0051
vn -0 1 0.0054
vn -0 1 0.0052
vn -0 1 0.0056
vn -0 1 0.0051
vn -0 1 0.0051
vn -0 1 0.0055
vn -0 1 0.0051
vn -0 1 0.0055
vn -0 1 0.0055
vn -0 1 0.0051
vn -0 1 0.0052
vn -0 1 0.0056
vn -0 1 0.0056
vn -0 1 0.0055
vn -0 1 0.0056
vn -0 1 0.0055
vn -0 1 0.0056
vn -0 1 0.0056
vn -0 1 0.0055
vn -0 1 0.0052
vn -0 1 0.0055
vn -0 1 0.0056
vn -0 1 0.0053
vn -0 1 0.0056
vn -0 1 0.0056
vn -0 1 0.0052
vn -0 1 0.0057
vn -0 1 0.0055
vn -0 1 0.0057
vn -0 1 0.0056
vn -0 1 0.0053
vn -0 1 0.0052
vn -0 1 0.0056
vn -0 1 0.0057
vn -0 1 0.0056
vn -0 1 0.0056
vn -0 1 0.0052
vn -0 1 0.0056
vn -0 1 0.005
vn -0 1 0.0056
vn -0 1 0.0055
vn -0 1 0.005
vn -0 1 0.0056
vn -0 1 0.0055
vn -0 1 0.0055
vn -0 1 0.005
vn -0 1 0.0051
vn -0 1 0.0055
vn -0 1 0.0055
vn -0 1 0.0051
vn -0 1 0.0054
vn -0 1 0.0055
vn -0 1 0.0056
vn -0 1 0.0054
vn -0 1 0.0051
vn -0 1 0.0056
vn 0.0001 1 0.0056
vn -0 1 0.0054
vn -0 1 0.0051
vn 0.0001 1 0.0056
vn -0 1 0.0056
vn -0 1 0.0051
vn -0 1 0.0054
vn 0.0001 1 0.0056
vn -0 1 0.0056
vn -0 1 0.0054
vn -0 1 0.0051
vn -0 1 0.0056
vn -0 1 0.0058
vn -0 1 0.0054
vn -0 1 0.0052
vn -0 1 0.0058
vn -0 1 0.0056
vn -0 -1 -0.0055
vn -0 -1 -0.0055
vn -0.0001 -1 -0.0054
vn -0 -1 -0.0055
vn -0 -1 -0.0052
vn -0 -1 -0.0055
vn -0 -1 -0.0055
vn -0.0001 -1 -0.0057
vn -0 -1 -0.0052
vn -0.0001 -1 -0.0055
vn -0.0001 -1 -0.0057
vn -0 -1 -0.0055
vn -0.0001 -1 -0.0058
vn -0.0001 -1 -0.0057
vn -0.0001 -1 -0.0055
vn -0.0001 -1 -0.0058
vn -0 -1 -0.0053
vn -0.0001 -1 -0.0057
vn -0 -1 -0.0053
vn -0 -1 -0.0053
vn -0.0001 -1 -0.0058
vn -0 -1 -0.0051
vn -0 -1 -0.0053
vn -0 -1 -0.0053
vn -0 -1 -0.0051
vn -0 -1 -0.0056
vn -0 -1 -0.0053
vn -0 -1 -0.0054
vn -0 -1 -0.0056
vn -0 -1 -0.0051
vn -0 -1 -0.0054
vn -0 -1 -0.0056
vn -0 -1 -0.0054
vn -0 -1 -0.0054
vn -0 -1 -0.0054
vn -0 -1 -0.0056
vn 0.0001 -1 -0.0057
vn -0 -1 -0.0054
vn -0 -1 -0.0054
vn -0 -1 -0.0055
vn -0 -1 -0.0054
vn 0.0001 -1 -0.0057
vn -0 -1 -0.0055
vn -0 -1 -0.0054
vn -0 -1 -0.0054
vn -0 -1 -0.0055
vn -0 -1 -0.0054
vn -0 -1 -0.0055
vn -0 -1 -0.0055
vn -0 -1 -0.0054
vn -0 -1 -0.0054
vn -0 -1 -0.0054
vn -0 -1 -0.0054
vn -0 -1 -0.0055
vn -0 -1 -0.0054
vn -0 -1 -0.0054
vn -0 -1 -0.0054
vn -0 -1 -0.0054
vn -0 -1 -0.0053
vn -0 -1 -0.0054
vn -0 -1 -0.0054
vn -0 -1 -0.0052
vn -0 -1 -0.0056
vn -0 -1 -0.0054
vn -0 -1 -0.0054
vn -0 -1 -0.0052
vn -0 -1 -0.0054
vn -0 -1 -0.0054
vn -0 -1 -0.0054
vn -0 -1 -0.0059
vn -0 -1 -0.0054
vn -0 -1 -0.0054
vn -0 -1 -0.0059
vn -0 -1 -0.0057
vn -0 -1 -0.0054
vn -0 -1 -0.0059
vn -0 -1 -0.0055
vn -0 -1 -0.0057
vn -0 -1 -0.0052
vn -0 -1 -0.0053
vn -0 -1 -0.0054
vn -0 -1 -0.0059
vn -0 -1 -0.0055
vn -0 -1 -0.0055
vn -0 -1 -0.0057
vn -0 -1 -0.0055
vn -0 -1 -0.0059
vn -0 -1 -0.0057
vn -0.0001 -1 -0.005
vn -0 -1 -0.0055
vn -0 -1 -0.0057
vn -0 -1 -0.0055
vn -0.0001 -1 -0.005
vn -0 -1 -0.0057
vn -0 -1 -0.0055
vn -0 -1 -0.0055
vn -0 -1 -0.005
vn -0 -1 -0.0055
vn -0 -1 -0.0057
vn -0 -1 -0.005
vn -0 -1 -0.0053
vn -0 -1 -0.0055
vn -0 -1 -0.005
vn -0 -1 -0.0054
vn -0 -1 -0.0053
vn -0 -1 -0.005
vn -0 -1 -0.0052
vn -0 -1 -0.0054
vn -0 -1 -0.0055
vn -0 -1 -0.0052
vn -0 -1 -0.005
vn -0 -1 -0.0055
vn -0 -1 -0.0053
vn -0 -1 -0.0052
vn -0 -1 -0.0055
vn -0 -1 -0.0055
vn -0 -1 -0.0053
vn -0 -1 -0.0052
vn -0 -1 -0.0055
vn -0 -1 -0.0055
vn -0 -1 -0.0057
vn -0 -1 -0.0055
vn -0 -1 -0.0052
vn -0 -1 -0.0057
vn -0 -1 -0.0054
vn -0 -1 -0.0055
vn -0 -1 -0.0059
vn -0 -1 -0.0057
vn -0 -1 -0.0055
vn -0 -1 -0.0057
vn -0 -1 -0.0059
vn -0 -1 -0.0055
vn -0 -1 -0.0054
vn -0 -1 -0.0059
vn -0 -1 -0.0057
vn -0 -1 -0.0058
vn -0 -1 -0.0054
vn -0 -1 -0.0057
vn -0 -1 -0.0057
vn -0 -1 -0.0058
vn -0 -1 -0.0057
vn -0 -1 -0.0057
vn -0 -1 -0.0055
vn -0 -1 -0.0058
vn -0 -1 -0.0057
vn -0 -1 -0.0054
vn -0 -1 -0.0055
vn -0.0001 -1 -0.0061
vn -0 -1 -0.0054
vn -0 -1 -0.0057
vn -0 -1 -0.0053
vn -0 -1 -0.0054
vn -0.0001 -1 -0.0061
vn -0 -1 -0.0057
vn -0 -1 -0.0054
vn -0 -1 -0.0054
vn -0.0001 -1 -0.0052
vn -0 -1 -0.0054
vn -0 -1 -0.0057
vn -0 -1 -0.0052
vn -0 -1 -0.0054
vn -0 -1 -0.0053
vn -0 -1 -0.005
vn -0 -1 -0.0054
vn -0 -1 -0.0052
vn -0.0001 -1 -0.0052
vn -0.0001 -1 -0.0051
vn -0 -1 -0.0054
vn -0 -1 -0.0053
vn -0 -1 -0.0054
vn -0 -1 -0.005
vn -0.0001 -1 -0.0052
vn -0.0001 -1 -0.0053
vn -0.0001 -1 -0.0051
vn -0 -1 -0.0055
vn -0 -1 -0.0054
vn -0 -1 -0.0053
vn -0 -1 -0.0054
vn -0 -1 -0.0054
vn -0 -1 -0.0055
vn -0.0001 -1 -0.0052
vn -0.0001 -1 -0.0055
vn -0.0001 -1 -0.0053
vn -0.0001 -1 -0.0057
vn -0 -1 -0.0054
vn -0 -1 -0.0054
vn -0.0001 -1 -0.0057
vn -0 -1 -0.0054
vn -0 -1 -0.0054
vn -0 -1 -0.0054
vn -0.0001 -1 -0.0055
vn -0.0001 -1 -0.0052
vn -0 -1 -0.0056
vn -0 -1 -0.0054
vn -0.0001 -1 -0.0057
vn -0 -1 -0.0054
vn -0 -1 -0.0058
vn -0.0001 -1 -0.0055
vn -0.0001 -1 -0.0052
vn -0 -1 -0.0054
vn -0 -1 -0.0056
vn -0 -1 -0.0054
vn -0 -1 -0.0056
vn -0 -1 -0.0058
vn -0 -1 -0.0054
vn -0 -1 -0.0051
vn -0 -1 -0.0056
vn -0 -1 -0.0053
vn -0 -1 -0.0051
vn -0 -1 -0.0054
vn -0 -1 -0.0053
vn -0 -1 -0.0054
vn -0.0001 -1 -0.0052
vn -0 -1 -0.0053
vn -0 -1 -0.0055
vn -0 -1 -0.0051
vn -0 -1 -0.0053
vn -0 -1 -0.0056
vn -0 -1 -0.0054
vn -0 -1 -0.0053
vn -0 -1 -0.0056
vn -0 -1 -0.0055
vn -0 -1 -0.0055
vn -0 -1 -0.0056
vn -0 -1 -0.0053
vn 0.0001 -1 -0.0054
vn -0 -1 -0.0056
vn -0 -1 -0.0053
vn -0 -1 -0.0055
vn 0.0001 -1 -0.0053
vn -0 -1 -0.0056
vn 0.0001 -1 -0.0054
vn -0 -1 -0.0056
vn -0 -1 -0.0056
vn -0 -1 -0.0055
vn -0 -1 -0.0056
vn 0.0001 -1 -0.0053
vn -0 -1 -0.0056
vn -0 -1 -0.0056
vn -0 -1 -0.0055
vn 0.0001 -1 -0.0053
vn -0 -1 -0.0056
vn 0.0001 -1 -0.0054
vn -0 -1 -0.0056
vn -0 -1 -0.0054
vn -0 -1 -0.0056
vn -0 -1 -0.0057
vn -0 -1 -0.0056
vn 0.0001 -1 -0.0053
vn -0 -1 -0.0053
vn -0 -1 -0.0054
vn -0 -1 -0.0056
vn -0 -1 -0.0057
vn -0 -1 -0.0054
vn -0 -1 -0.0056
vn -0 -1 -0.0053
vn -0 -1 -0.0052
vn -0 -1 -0.0054
vn -0 -1 -0.0053
vn -0 -1 -0.0052
vn -0 -1 -0.0052
vn -0 -1 -0.0056
vn -0 -1 -0.0054
vn -0 -1 -0.0057
vn -0 -1 -0.0053
vn -0 -1 -0.0052
vn -0 -1 -0.0053
vn -0 -1 -0.0053
vn -0 -1 -0.0055
vn -0 -1 -0.0052
vn -0 -1 -0.0056
vn -0 -1 -0.0054
vn -0 -1 -0.0054
vn -0 -1 -0.0054
vn -0 -1 -0.0054
vn -0 -1 -0.0056
vn -0 -1 -0.0053
vn -0 -1 -0.0054
vn -0 -1 -0.0055
vn -0 -1 -0.0051
vn -0 -1 -0.0054
vn -0 -1 -0.0054
vn -0 -1 -0.0055
vn -0 -1 -0.0054
vn -0 -1 -0.0053
vn -0 -1 -0.0055
vn -0 -1 -0.0053
vn -0 -1 -0.0054
vn -0 -1 -0.0051
vn -0 -1 -0.0052
vn -0 -1 -0.0054
vn -0 -1 -0.0056
vn -0 -1 -0.0052
vn -0 -1 -0.0051
vn -0 -1 -0.0055
vn -0 -1 -0.0051
vn -0 -1 -0.0053
vn -0 -1 -0.0055
vn -0 -1 -0.0055
vn -0 -1 -0.0051
vn -0 -1 -0.0053
vn -0 -1 -0.0052
vn -0 -1 -0.0056
vn -0 -1 -0.0056
vn -0 -1 -0.0055
vn -0 -1 -0.0055
vn -0 -1 -0.0056
vn -0 -1 -0.006
vn -0 -1 -0.0055
vn -0 -1 -0.0055
vn -0 -1 -0.0052
vn -0 -1 -0.0053
vn -0 -1 -0.0056
vn -0 -1 -0.0052
vn -0 -1 -0.006
vn -0 -1 -0.0057
vn -0 -1 -0.0052
vn -0 -1 -0.0055
vn -0 -1 -0.0056
vn -0 -1 -0.0057
vn -0 -1 -0.0052
vn -0 -1 -0.0056
vn -0 -1 -0.0052
vn -0 -1 -0.0057
vn -0 -1 -0.0056
vn -0 -1 -0.0056
vn -0 -1 -0.0052
vn -0 -1 -0.005
vn -0 -1 -0.0056
vn -0 -1 -0.0056
vn -0 -1 -0.005
vn -0 -1 -0.0055
vn -0 -1 -0.0056
vn -0 -1 -0.0055
vn -0 -1 -0.0055
vn -0 -1 -0.005
vn -0 -1 -0.0055
vn -0 -1 -0.0051
vn -0 -1 -0.0055
vn -0 -1 -0.0054
vn -0 -1 -0.0051
vn -0 -1 -0.0055
vn -0 -1 -0.0054
vn -0 -1 -0.0055
vn -0 -1 -0.0051
vn -0 -1 -0.0053
vn -0 -1 -0.0055
vn -0 -1 -0.0054
vn -0 -1 -0.0053
vn -0 -1 -0.0058
vn -0 -1 -0.0055
vn -0 -1 -0.0054
vn -0 -1 -0.0058
vn -0 -1 -0.0053
vn -0 -1 -0.0054
vn -0 -1 -0.0056
vn -0 -1 -0.0058
vn -0 -1 -0.0058
vn -0 -1 -0.0056
vn -0 -1 -0.0054
vn -0 -1 -0.0058
vn -0 -1 -0.0052
vn -0 -1 -0.0056
vn 0.556 -0.0045 0.8312
vn 0.6037 -0.0043 0.7972
vn 0.6037 -0.0043 0.7972
vn 0.556 -0.0045 0.8312
vn 0.6037 -0.0043 0.7972
vn 0.6479 -0.0042 0.7617
vn 0.6479 -0.0042 0.7617
vn 0.6037 -0.0043 0.7972
vn 0.6479 -0.0042 0.7617
vn 0.6891 -0.004 0.7246
vn 0.6891 -0.004 0.7246
vn 0.6479 -0.0042 0.7617
vn 0.6891 -0.004 0.7246
vn 0.7279 -0.0038 0.6856
vn 0.7279 -0.0038 0.6856
vn 0.6891 -0.004 0.7246
vn 0.7279 -0.0038 0.6856
vn 0.7648 -0.0036 0.6442
vn 0.7648 -0.0036 0.6442
vn 0.7279 -0.0038 0.6856
vn 0.7648 -0.0036 0.6442
vn 0.8007 -0.0033 0.599
vn 0.8007 -0.0033 0.599
vn 0.7648 -0.0036 0.6442
vn 0.8007 -0.0033 0.599
vn 0.8355 -0.003 0.5496
vn 0.8355 -0.003 0.5496
vn 0.8007 -0.0033 0.599
vn 0.8355 -0.003 0.5496
vn 0.8692 -0.0028 0.4945
vn 0.8692 -0.0028 0.4945
vn 0.8355 -0.003 0.5496
vn 0.8692 -0.0028 0.4945
vn 0.9016 -0.0024 0.4327
vn 0.9015 -0.0024 0.4327
vn 0.8692 -0.0028 0.4945
vn 0.9016 -0.0024 0.4327
vn 0.932 -0.002 0.3624
vn 0.932 -0.002 0.3624
vn 0.9015 -0.0024 0.4327
vn 0.932 -0.002 0.3624
vn 0.6573 0.0042 -0.7536
vn 0.6568 0.0042 -0.754
vn 0.932 -0.002 0.3624
vn 0.6573 0.0042 -0.7536
vn -0.4395 0.0049 -0.8982
vn -0.4398 0.0049 -0.8981
vn 0.6568 0.0042 -0.754
vn -0.4395 0.0049 -0.8982
vn -0.4158 0.005 -0.9095
vn -0.4159 0.005 -0.9094
vn -0.4398 0.0049 -0.8981
vn -0.4158 0.005 -0.9095
vn -0.3878 0.005 -0.9217
vn -0.3879 0.005 -0.9217
vn -0.4159 0.005 -0.9094
vn -0.3878 0.005 -0.9217
vn -0.3565 0.005 -0.9343
vn -0.3565 0.005 -0.9343
vn -0.3879 0.005 -0.9217
vn -0.3565 0.005 -0.9343
vn -0.3213 0.0052 -0.947
vn -0.3213 0.0052 -0.947
vn -0.3565 0.005 -0.9343
vn -0.3213 0.0052 -0.947
vn -0.2834 0.0052 -0.959
vn -0.283 0.0052 -0.9591
vn -0.3213 0.0052 -0.947
vn -0.2834 0.0052 -0.959
vn -0.2418 0.0053 -0.9703
vn -0.2416 0.0053 -0.9704
vn -0.283 0.0052 -0.9591
vn -0.2418 0.0053 -0.9703
vn -0.1973 0.0053 -0.9803
vn -0.197 0.0054 -0.9804
vn -0.2416 0.0053 -0.9704
vn -0.1973 0.0053 -0.9803
vn -0.1506 0.0054 -0.9886
vn -0.1506 0.0054 -0.9886
vn -0.197 0.0054 -0.9804
vn -0.1506 0.0054 -0.9886
vn -0.1017 0.0054 -0.9948
vn -0.1017 0.0054 -0.9948
vn -0.1506 0.0054 -0.9886
vn -0.1017 0.0054 -0.9948
vn -0.0511 0.0054 -0.9987
vn -0.0511 0.0054 -0.9987
vn -0.1017 0.0054 -0.9948
vn -0.0511 0.0054 -0.9987
vn 0.0199 0.0053 -0.9998
vn 0.0199 0.0053 -0.9998
vn -0.0511 0.0054 -0.9987
vn 0.0199 0.0053 -0.9998
vn 0.1325 0.0053 -0.9912
vn 0.1325 0.0053 -0.9912
vn 0.0199 0.0053 -0.9998
vn 0.1325 0.0053 -0.9912
vn 0.2646 0.0053 -0.9644
vn 0.2646 0.0053 -0.9643
vn 0.1325 0.0053 -0.9912
vn 0.2646 0.0053 -0.9644
vn 0.3928 0.005 -0.9196
vn 0.3923 0.005 -0.9198
vn 0.2646 0.0053 -0.9643
vn 0.3928 0.005 -0.9196
vn 0.5132 0.0047 -0.8582
vn 0.5132 0.0047 -0.8582
vn 0.3923 0.005 -0.9198
vn 0.5132 0.0047 -0.8582
vn 0.6236 0.0044 -0.7818
vn 0.6235 0.0044 -0.7818
vn 0.5132 0.0047 -0.8582
vn 0.6236 0.0044 -0.7818
vn 0.7221 0.0039 -0.6918
vn 0.7221 0.0039 -0.6918
vn 0.6235 0.0044 -0.7818
vn 0.7221 0.0039 -0.6918
vn 0.8065 0.0031 -0.5912
vn 0.8067 0.0033 -0.591
vn 0.7221 0.0039 -0.6918
vn 0.8065 0.0031 -0.5912
vn 0.8765 0.0027 -0.4814
vn 0.8765 0.0027 -0.4814
vn 0.8067 0.0033 -0.591
vn 0.8765 0.0027 -0.4814
vn 0.931 0.002 -0.3651
vn 0.9311 0.002 -0.3648
vn 0.8765 0.0027 -0.4814
vn 0.931 0.002 -0.3651
vn 0.9696 0.0014 -0.2446
vn 0.9696 0.0014 -0.2446
vn 0.9311 0.002 -0.3648
vn 0.9696 0.0014 -0.2446
vn 0.9925 0.0007 -0.1221
vn 0.9925 0.0007 -0.1221
vn 0.9696 0.0014 -0.2446
vn 0.9925 0.0007 -0.1221
vn 1 -0 0.0041
vn 1 -0 0.0041
vn 0.9925 0.0007 -0.1221
vn 1 -0 0.0041
vn 0.9907 -0.0007 0.136
vn 0.9907 -0.0007 0.1361
vn 1 -0 0.0041
vn 0.9907 -0.0007 0.136
vn 0.9637 -0.0015 0.2668
vn 0.9637 -0.0015 0.2668
vn 0.9907 -0.0007 0.1361
vn 0.9637 -0.0015 0.2668
vn 0.9208 -0.0021 0.3901
vn 0.9206 -0.002 0.3904
vn 0.9637 -0.0015 0.2668
vn 0.9208 -0.0021 0.3901
vn 0.8636 -0.0028 0.5042
vn 0.8636 -0.0028 0.5042
vn 0.9206 -0.002 0.3904
vn 0.8636 -0.0028 0.5042
vn 0.7936 -0.0033 0.6085
vn 0.7936 -0.0033 0.6085
vn 0.8636 -0.0028 0.5042
vn 0.7936 -0.0033 0.6085
vn 0.7118 -0.0038 0.7024
vn 0.7118 -0.0038 0.7024
vn 0.7936 -0.0033 0.6085
vn 0.7118 -0.0038 0.7024
vn 0.6189 -0.0043 0.7854
vn 0.6189 -0.0043 0.7854
vn 0.7118 -0.0038 0.7024
vn 0.6189 -0.0043 0.7854
vn 0.5145 -0.0047 0.8575
vn 0.5145 -0.0047 0.8574
vn 0.6189 -0.0043 0.7854
vn 0.5145 -0.0047 0.8575
vn 0.399 -0.0049 0.9169
vn 0.3994 -0.005 0.9168
vn 0.5145 -0.0047 0.8574
vn 0.399 -0.0049 0.9169
vn 0.2739 -0.0052 0.9618
vn 0.2739 -0.0052 0.9618
vn 0.3994 -0.005 0.9168
vn 0.2739 -0.0052 0.9618
vn 0.1398 -0.0054 0.9902
vn 0.1398 -0.0054 0.9902
vn 0.2739 -0.0052 0.9618
vn 0.1398 -0.0054 0.9902
vn 0.0036 -0.0054 1
vn 0.0036 -0.0054 1
vn 0.1398 -0.0054 0.9902
vn 0.0036 -0.0054 1
vn -0.1287 -0.0053 0.9917
vn -0.1287 -0.0053 0.9917
vn 0.0036 -0.0054 1
vn -0.1287 -0.0053 0.9917
vn -0.2611 -0.0051 0.9653
vn -0.2611 -0.0051 0.9653
vn -0.1287 -0.0053 0.9917
vn -0.2611 -0.0051 0.9653
vn -0.3933 -0.0049 0.9194
vn -0.3931 -0.0051 0.9195
vn -0.2611 -0.0051 0.9653
vn -0.3933 -0.0049 0.9194
vn -0.52 -0.0046 0.8541
vn -0.52 -0.0046 0.8541
vn -0.3931 -0.0051 0.9195
vn -0.52 -0.0046 0.8541
vn -0.637 -0.0043 0.7709
vn -0.637 -0.0043 0.7709
vn -0.52 -0.0046 0.8541
vn -0.637 -0.0043 0.7709
vn -0.7398 -0.0037 0.6729
vn -0.7398 -0.0037 0.6729
vn -0.637 -0.0043 0.7709
vn -0.7398 -0.0037 0.6729
vn -0.8254 -0.003 0.5645
vn -0.8254 -0.003 0.5645
vn -0.7398 -0.0037 0.6729
vn -0.8254 -0.003 0.5645
vn -0.8929 -0.0026 0.4502
vn -0.893 -0.0024 0.45
vn -0.8254 -0.003 0.5645
vn -0.8929 -0.0026 0.4502
vn -0.9428 -0.0018 0.3334
vn -0.9428 -0.0018 0.3334
vn -0.893 -0.0024 0.45
vn -0.9428 -0.0018 0.3334
vn -0.9759 -0.0012 0.2184
vn -0.9758 -0.0012 0.2185
vn -0.9428 -0.0018 0.3334
vn -0.9759 -0.0012 0.2184
vn -0.9943 -0.0006 0.1069
vn -0.9943 -0.0006 0.1069
vn -0.9758 -0.0012 0.2185
vn -0.9943 -0.0006 0.1069
vn -1 -0 0.0026
vn -1 -0 0.0026
vn -0.9943 -0.0006 0.1069
vn -1 -0 0.0026
vn -0.9957 0.0005 -0.0926
vn -0.9957 0.0005 -0.0926
vn -1 -0 0.0026
vn -0.9957 0.0005 -0.0926
vn -0.983 0.0009 -0.1838
vn -0.983 0.001 -0.1834
vn -0.9957 0.0005 -0.0926
vn -0.983 0.0009 -0.1838
vn -0.9626 0.0015 -0.2711
vn -0.9625 0.0015 -0.2711
vn -0.983 0.001 -0.1834
vn -0.9626 0.0015 -0.2711
vn -0.935 0.0019 -0.3546
vn -0.935 0.0019 -0.3546
vn -0.9625 0.0015 -0.2711
vn -0.935 0.0019 -0.3546
vn -0.9012 0.0023 -0.4335
vn -0.9012 0.0023 -0.4335
vn -0.935 0.0019 -0.3546
vn -0.9012 0.0023 -0.4335
vn -0.8619 0.0028 -0.507
vn -0.8619 0.0028 -0.507
vn -0.9012 0.0023 -0.4335
vn -0.8619 0.0028 -0.507
vn -0.8181 0.0031 -0.5751
vn -0.8181 0.0031 -0.5751
vn -0.8619 0.0028 -0.507
vn -0.8181 0.0031 -0.5751
vn -0.7705 0.0035 -0.6375
vn -0.7705 0.0035 -0.6375
vn -0.8181 0.0031 -0.5751
vn -0.7705 0.0035 -0.6375
vn -0.7197 0.0038 -0.6943
vn -0.7197 0.0038 -0.6943
vn -0.7705 0.0035 -0.6375
vn -0.7197 0.0038 -0.6943
vn -0.6664 0.004 -0.7456
vn -0.6664 0.004 -0.7456
vn -0.7197 0.0038 -0.6943
vn -0.6664 0.004 -0.7456
vn -0.6113 0.0043 -0.7914
vn -0.6113 0.0043 -0.7914
vn -0.6664 0.004 -0.7456
vn -0.6113 0.0043 -0.7914
vn 0.1405 0.0055 -0.9901
vn 0.1404 0.0055 -0.9901
vn -0.6113 0.0043 -0.7914
vn 0.1405 0.0055 -0.9901
vn 0.9852 -0.0009 0.1713
vn 0.9852 -0.0009 0.1712
vn 0.1404 0.0055 -0.9901
vn 0.9852 -0.0009 0.1713
vn 0.556 -0.0045 0.8312
vn 0.556 -0.0045 0.8312
vn 0.9852 -0.0009 0.1712
vn -0.1195 0.0054 -0.9928
vn -0.2435 0.0054 -0.9699
vn -0.2434 0.0054 -0.9699
vn -0.1195 0.0054 -0.9928
vn -0.2435 0.0054 -0.9699
vn -0.3692 0.005 -0.9293
vn -0.3692 0.005 -0.9293
vn -0.2434 0.0054 -0.9699
vn -0.3692 0.005 -0.9293
vn -0.4934 0.0048 -0.8698
vn -0.4931 0.0046 -0.8699
vn -0.3692 0.005 -0.9293
vn -0.4934 0.0048 -0.8698
vn -0.6102 0.0044 -0.7922
vn -0.6102 0.0044 -0.7922
vn -0.4931 0.0046 -0.8699
vn -0.6102 0.0044 -0.7922
vn -0.7159 0.0039 -0.6982
vn -0.7162 0.0037 -0.6979
vn -0.6102 0.0044 -0.7922
vn -0.7159 0.0039 -0.6982
vn -0.8071 0.0032 -0.5905
vn -0.807 0.0032 -0.5905
vn -0.7162 0.0037 -0.6979
vn -0.8071 0.0032 -0.5905
vn -0.8803 0.0026 -0.4744
vn -0.8803 0.0026 -0.4744
vn -0.807 0.0032 -0.5905
vn -0.8803 0.0026 -0.4744
vn -0.9355 0.002 -0.3533
vn -0.9355 0.002 -0.3533
vn -0.8803 0.0026 -0.4744
vn -0.9355 0.002 -0.3533
vn -0.9728 0.0013 -0.2317
vn -0.9728 0.0013 -0.2317
vn -0.9355 0.002 -0.3533
vn -0.9728 0.0013 -0.2317
vn -0.9936 0.0006 -0.1131
vn -0.9935 0.0006 -0.1136
vn -0.9728 0.0013 -0.2317
vn -0.9936 0.0006 -0.1131
vn -1 -0 0.0058
vn -1 -0 0.0058
vn -0.9935 0.0006 -0.1136
vn -1 -0 0.0058
vn -0.9909 -0.0008 0.135
vn -0.9909 -0.0008 0.135
vn -1 -0 0.0058
vn -0.9909 -0.0008 0.135
vn -0.9631 -0.0015 0.2692
vn -0.9631 -0.0015 0.2692
vn -0.9909 -0.0008 0.135
vn -0.9631 -0.0015 0.2692
vn -0.9169 -0.0022 0.399
vn -0.9169 -0.0022 0.3991
vn -0.9631 -0.0015 0.2692
vn -0.9169 -0.0022 0.399
vn -0.853 -0.0026 0.5219
vn -0.853 -0.0026 0.5219
vn -0.9169 -0.0022 0.3991
vn -0.853 -0.0026 0.5219
vn -0.7737 -0.0035 0.6335
vn -0.7739 -0.0035 0.6333
vn -0.853 -0.0026 0.5219
vn -0.7737 -0.0035 0.6335
vn -0.6821 -0.004 0.7313
vn -0.6821 -0.004 0.7313
vn -0.7739 -0.0035 0.6333
vn -0.6821 -0.004 0.7313
vn -0.5795 -0.0044 0.815
vn -0.5795 -0.0044 0.815
vn -0.6821 -0.004 0.7313
vn -0.5795 -0.0044 0.815
vn -0.4692 -0.0048 0.8831
vn -0.4692 -0.0048 0.8831
vn -0.5795 -0.0044 0.815
vn -0.4692 -0.0048 0.8831
vn -0.3538 -0.005 0.9353
vn -0.3538 -0.005 0.9353
vn -0.4692 -0.0048 0.8831
vn -0.3538 -0.005 0.9353
vn -0.2357 -0.0054 0.9718
vn -0.2357 -0.0054 0.9718
vn -0.3538 -0.005 0.9353
vn -0.2357 -0.0054 0.9718
vn -0.117 -0.0054 0.9931
vn -0.1173 -0.0055 0.9931
vn -0.2357 -0.0054 0.9718
vn -0.117 -0.0054 0.9931
vn -0.0202 -0.0054 0.9998
vn -0.0202 -0.0057 0.9998
vn -0.1173 -0.0055 0.9931
vn -0.0202 -0.0054 0.9998
vn 0.0377 -0.0055 0.9993
vn 0.0377 -0.0055 0.9993
vn -0.0202 -0.0057 0.9998
vn 0.0377 -0.0055 0.9993
vn 0.0826 -0.0053 0.9966
vn 0.0824 -0.0055 0.9966
vn 0.0377 -0.0055 0.9993
vn 0.0826 -0.0053 0.9966
vn 0.1355 -0.0053 0.9908
vn 0.1355 -0.0053 0.9908
vn 0.0824 -0.0055 0.9966
vn 0.1355 -0.0053 0.9908
vn 0.1947 -0.0053 0.9808
vn 0.1949 -0.0053 0.9808
vn 0.1355 -0.0053 0.9908
vn 0.1947 -0.0053 0.9808
vn 0.2569 -0.0052 0.9664
vn 0.2565 -0.0052 0.9665
vn 0.1949 -0.0053 0.9808
vn 0.2569 -0.0052 0.9664
vn 0.318 -0.0051 0.9481
vn 0.3181 -0.0051 0.948
vn 0.2565 -0.0052 0.9665
vn 0.318 -0.0051 0.9481
vn 0.3747 -0.0052 0.9271
vn 0.3751 -0.0051 0.927
vn 0.3181 -0.0051 0.948
vn 0.3747 -0.0052 0.9271
vn 0.4247 -0.0049 0.9053
vn 0.4247 -0.0049 0.9053
vn 0.3751 -0.0051 0.927
vn 0.4247 -0.0049 0.9053
vn 0.4667 -0.0048 0.8844
vn 0.4667 -0.0048 0.8844
vn 0.4247 -0.0049 0.9053
vn 0.4667 -0.0048 0.8844
vn 0.5 -0.0047 0.866
vn 0.5 -0.0047 0.866
vn 0.4667 -0.0048 0.8844
vn 0.5 -0.0047 0.866
vn 0.5261 -0.0048 0.8504
vn 0.5261 -0.0048 0.8504
vn 0.5 -0.0047 0.866
vn 0.5261 -0.0048 0.8504
vn 0.833 -0.0032 0.5533
vn 0.833 -0.0032 0.5533
vn 0.5261 -0.0048 0.8504
vn 0.833 -0.0032 0.5533
vn 0.9945 -0.0006 0.1048
vn 0.9945 -0.0006 0.1048
vn 0.833 -0.0032 0.5533
vn 0.9945 -0.0006 0.1048
vn 0.9997 0.0001 -0.0264
vn 0.9997 0.0001 -0.0264
vn 0.9945 -0.0006 0.1048
vn 0.9997 0.0001 -0.0264
vn 0.9861 0.0009 -0.166
vn 0.9861 0.0009 -0.1664
vn 0.9997 0.0001 -0.0264
vn 0.9861 0.0009 -0.166
vn 0.9511 0.0017 -0.3089
vn 0.9511 0.0017 -0.3089
vn 0.9861 0.0009 -0.1664
vn 0.9511 0.0017 -0.3089
vn 0.8934 0.0025 -0.4493
vn 0.8934 0.0025 -0.4493
vn 0.9511 0.0017 -0.3089
vn 0.8934 0.0025 -0.4493
vn 0.8134 0.0032 -0.5818
vn 0.8131 0.0033 -0.5822
vn 0.8934 0.0025 -0.4493
vn 0.8134 0.0032 -0.5818
vn 0.7125 0.0038 -0.7016
vn 0.7125 0.0038 -0.7016
vn 0.8131 0.0033 -0.5822
vn 0.7125 0.0038 -0.7016
vn 0.5938 0.0044 -0.8046
vn 0.5938 0.0044 -0.8046
vn 0.7125 0.0038 -0.7016
vn 0.5938 0.0044 -0.8046
vn 0.4602 0.0045 -0.8878
vn 0.4602 0.005 -0.8878
vn 0.5938 0.0044 -0.8046
vn 0.4602 0.0045 -0.8878
vn 0.3146 0.0051 -0.9492
vn 0.3146 0.0051 -0.9492
vn 0.4602 0.005 -0.8878
vn 0.3146 0.0051 -0.9492
vn 0.16 0.0055 -0.9871
vn 0.16 0.0055 -0.9871
vn 0.3146 0.0051 -0.9492
vn 0.16 0.0055 -0.9871
vn 0.0114 0.0055 -0.9999
vn 0.0114 0.0055 -0.9999
vn 0.16 0.0055 -0.9871
vn 0.0114 0.0055 -0.9999
vn -0.1195 0.0054 -0.9928
vn -0.1195 0.0054 -0.9928
vn 0.0114 0.0055 -0.9999
vt 0.583333 1
vt 0.6 1
vt 0.591667 1
vt 0.575 1
vt 0.6 1
vt 0.583333 1
vt 0.566667 1
vt 0.6 1
vt 0.575 1
vt 0.566667 1
vt 0 1
vt 0.6 1
vt 0.566667 1
vt 0.008333 1
vt 0 1
vt 0.558333 1
vt 0.008333 1
vt 0.566667 1
vt 0.558333 1
vt 0.016667 1
vt 0.008333 1
vt 0.558333 1
vt 0.025 1
vt 0.016667 1
vt 0.55 1
vt 0.025 1
vt 0.558333 1
vt 0.55 1
vt 0.033333 1
vt 0.025 1
vt 0.55 1
vt 0.041667 1
vt 0.033333 1
vt 0.541667 1
vt 0.041667 1
vt 0.55 1
vt 0.541667 1
vt 0.05 1
vt 0.041667 1
vt 0.541667 1
vt 0.058333 1
vt 0.05 1
vt 0.533333 1
vt 0.058333 1
vt 0.541667 1
vt 0.533333 1
vt 0.066667 1
vt 0.058333 1
vt 0.525 1
vt 0.066667 1
vt 0.533333 1
vt 0.525 1
vt 0.075 1
vt 0.066667 1
vt 0.525 1
vt 0.083333 1
vt 0.075 1
vt 0.516667 1
vt 0.083333 1
vt 0.525 1
vt 0.183333 1
vt 0.2 1
vt 0.191667 1
vt 0.175 1
vt 0.2 1
vt 0.183333 1
vt 0.166667 1
vt 0.2 1
vt 0.175 1
vt 0.166667 1
vt 0.208333 1
vt 0.2 1
vt 0.158333 1
vt 0.208333 1
vt 0.166667 1
vt 0.15 1
vt 0.208333 1
vt 0.158333 1
vt 0.516667 1
vt 0.091667 1
vt 0.083333 1
vt 0.141667 1
vt 0.208333 1
vt 0.15 1
vt 0.141667 1
vt 0.216667 1
vt 0.208333 1
vt 0.133333 1
vt 0.216667 1
vt 0.141667 1
vt 0.125 1
vt 0.216667 1
vt 0.133333 1
vt 0.116667 1
vt 0.216667 1
vt 0.125 1
vt 0.116667 1
vt 0.225 1
vt 0.216667 1
vt 0.108333 1
vt 0.225 1
vt 0.116667 1
vt 0.1 1
vt 0.225 1
vt 0.108333 1
vt 0.091667 1
vt 0.225 1
vt 0.1 1
vt 0.091667 1
vt 0.233333 1
vt 0.225 1
vt 0.516667 1
vt 0.233333 1
vt 0.091667 1
vt 0.508333 1
vt 0.233333 1
vt 0.516667 1
vt 0.508333 1
vt 0.241667 1
vt 0.233333 1
vt 0.508333 1
vt 0.25 1
vt 0.241667 1
vt 0.5 1
vt 0.825 1
vt 0.508333 1
vt 0.825 1
vt 0.816667 1
vt 0.508333 1
vt 0.816667 1
vt 0.25 1
vt 0.508333 1
vt 0.816667 1
vt 0.808333 1
vt 0.25 1
vt 0.808333 1
vt 0.8 1
vt 0.25 1
vt 0.8 1
vt 0.258333 1
vt 0.25 1
vt 0.791667 1
vt 0.258333 1
vt 0.8 1
vt 0.783333 1
vt 0.258333 1
vt 0.791667 1
vt 0.5 1
vt 0.833333 1
vt 0.825 1
vt 0.5 1
vt 0.841667 1
vt 0.833333 1
vt 0.775 1
vt 0.258333 1
vt 0.783333 1
vt 0.775 1
vt 0.266667 1
vt 0.258333 1
vt 0.5 1
vt 0.85 1
vt 0.841667 1
vt 0.5 1
vt 0.858333 1
vt 0.85 1
vt 0.766667 1
vt 0.266667 1
vt 0.775 1
vt 0.5 1
vt 0.866667 1
vt 0.858333 1
vt 0.758333 1
vt 0.266667 1
vt 0.766667 1
vt 0.5 1
vt 0.875 1
vt 0.866667 1
vt 0.5 1
vt 0.883333 1
vt 0.875 1
vt 0.75 1
vt 0.266667 1
vt 0.758333 1
vt 0.5 1
vt 0.891667 1
vt 0.883333 1
vt 0.491667 1
vt 0.891667 1
vt 0.5 1
vt 0.75 1
vt 0.275 1
vt 0.266667 1
vt 0.491667 1
vt 0.9 1
vt 0.891667 1
vt 0.741667 1
vt 0.275 1
vt 0.75 1
vt 0.491667 1
vt 0.908333 1
vt 0.9 1
vt 0.733333 1
vt 0.275 1
vt 0.741667 1
vt 0.725 1
vt 0.275 1
vt 0.733333 1
vt 0.725 1
vt 0.283333 1
vt 0.275 1
vt 0.491667 1
vt 0.916667 1
vt 0.908333 1
vt 0.716667 1
vt 0.283333 1
vt 0.725 1
vt 0.483333 1
vt 0.916667 1
vt 0.491667 1
vt 0.708333 1
vt 0.283333 1
vt 0.716667 1
vt 0.708333 1
vt 0.291667 1
vt 0.283333 1
vt 0.483333 1
vt 0.925 1
vt 0.916667 1
vt 0.7 1
vt 0.291667 1
vt 0.708333 1
vt 0.475 1
vt 0.925 1
vt 0.483333 1
vt 0.691667 1
vt 0.291667 1
vt 0.7 1
vt 0.691667 1
vt 0.3 1
vt 0.291667 1
vt 0.475 1
vt 0.933333 1
vt 0.925 1
vt 0.683333 1
vt 0.3 1
vt 0.691667 1
vt 0.475 1
vt 0.941667 1
vt 0.933333 1
vt 0.683333 1
vt 0.308333 1
vt 0.3 1
vt 0.466667 1
vt 0.941667 1
vt 0.475 1
vt 0.675 1
vt 0.308333 1
vt 0.683333 1
vt 0.666667 1
vt 0.308333 1
vt 0.675 1
vt 0.466667 1
vt 0.95 1
vt 0.941667 1
vt 0.666667 1
vt 0.316667 1
vt 0.308333 1
vt 0.658333 1
vt 0.316667 1
vt 0.666667 1
vt 0.458333 1
vt 0.95 1
vt 0.466667 1
vt 0.458333 1
vt 0.958333 1
vt 0.95 1
vt 0.65 1
vt 0.316667 1
vt 0.658333 1
vt 0.458333 1
vt 0.966667 1
vt 0.958333 1
vt 0.65 1
vt 0.325 1
vt 0.316667 1
vt 0.641667 1
vt 0.325 1
vt 0.65 1
vt 0.45 1
vt 0.966667 1
vt 0.458333 1
vt 0.45 1
vt 0.975 1
vt 0.966667 1
vt 0.633333 1
vt 0.325 1
vt 0.641667 1
vt 0.625 1
vt 0.325 1
vt 0.633333 1
vt 0.45 1
vt 0.983333 1
vt 0.975 1
vt 0.625 1
vt 0.333333 1
vt 0.325 1
vt 0.616667 1
vt 0.333333 1
vt 0.625 1
vt 0.45 1
vt 0.991667 1
vt 0.983333 1
vt 0.608333 1
vt 0.333333 1
vt 0.616667 1
vt 0.45 1
vt 1 1
vt 0.991667 1
vt 1 1
vt 0.333333 1
vt 0.608333 1
vt 0.45 1
vt 0.333333 1
vt 1 1
vt 0.441667 1
vt 0.333333 1
vt 0.45 1
vt 0.441667 1
vt 0.341667 1
vt 0.333333 1
vt 0.433333 1
vt 0.341667 1
vt 0.441667 1
vt 0.433333 1
vt 0.35 1
vt 0.341667 1
vt 0.425 1
vt 0.35 1
vt 0.433333 1
vt 0.425 1
vt 0.358333 1
vt 0.35 1
vt 0.416667 1
vt 0.358333 1
vt 0.425 1
vt 0.416667 1
vt 0.366667 1
vt 0.358333 1
vt 0.408333 1
vt 0.366667 1
vt 0.416667 1
vt 0.408333 1
vt 0.375 1
vt 0.366667 1
vt 0.4 1
vt 0.375 1
vt 0.408333 1
vt 0.4 1
vt 0.383333 1
vt 0.375 1
vt 0.391667 1
vt 0.383333 1
vt 0.4 1
vt 0.6 1
vt 0.583333 1
vt 0.591667 1
vt 0.6 1
vt 0.575 1
vt 0.583333 1
vt 0.6 1
vt 0.566667 1
vt 0.575 1
vt 0 1
vt 0.566667 1
vt 0.6 1
vt 0.008333 1
vt 0.566667 1
vt 0 1
vt 0.008333 1
vt 0.558333 1
vt 0.566667 1
vt 0.016667 1
vt 0.558333 1
vt 0.008333 1
vt 0.025 1
vt 0.558333 1
vt 0.016667 1
vt 0.025 1
vt 0.55 1
vt 0.558333 1
vt 0.033333 1
vt 0.55 1
vt 0.025 1
vt 0.041667 1
vt 0.55 1
vt 0.033333 1
vt 0.041667 1
vt 0.541667 1
vt 0.55 1
vt 0.05 1
vt 0.541667 1
vt 0.041667 1
vt 0.058333 1
vt 0.541667 1
vt 0.05 1
vt 0.058333 1
vt 0.533333 1
vt 0.541667 1
vt 0.066667 1
vt 0.533333 1
vt 0.058333 1
vt 0.066667 1
vt 0.525 1
vt 0.533333 1
vt 0.075 1
vt 0.525 1
vt 0.066667 1
vt 0.083333 1
vt 0.525 1
vt 0.075 1
vt 0.083333 1
vt 0.516667 1
vt 0.525 1
vt 0.2 1
vt 0.183333 1
vt 0.191667 1
vt 0.2 1
vt 0.175 1
vt 0.183333 1
vt 0.2 1
vt 0.166667 1
vt 0.175 1
vt 0.208333 1
vt 0.166667 1
vt 0.2 1
vt 0.208333 1
vt 0.158333 1
vt 0.166667 1
vt 0.208333 1
vt 0.15 1
vt 0.158333 1
vt 0.091667 1
vt 0.516667 1
vt 0.083333 1
vt 0.208333 1
vt 0.141667 1
vt 0.15 1
vt 0.216667 1
vt 0.141667 1
vt 0.208333 1
vt 0.216667 1
vt 0.133333 1
vt 0.141667 1
vt 0.216667 1
vt 0.125 1
vt 0.133333 1
vt 0.216667 1
vt 0.116667 1
vt 0.125 1
vt 0.225 1
vt 0.116667 1
vt 0.216667 1
vt 0.225 1
vt 0.108333 1
vt 0.116667 1
vt 0.225 1
vt 0.1 1
vt 0.108333 1
vt 0.225 1
vt 0.091667 1
vt 0.1 1
vt 0.233333 1
vt 0.091667 1
vt 0.225 1
vt 0.233333 1
vt 0.516667 1
vt 0.091667 1
vt 0.233333 1
vt 0.508333 1
vt 0.516667 1
vt 0.241667 1
vt 0.508333 1
vt 0.233333 1
vt 0.25 1
vt 0.508333 1
vt 0.241667 1
vt 0.825 1
vt 0.5 1
vt 0.508333 1
vt 0.816667 1
vt 0.825 1
vt 0.508333 1
vt 0.25 1
vt 0.816667 1
vt 0.508333 1
vt 0.808333 1
vt 0.816667 1
vt 0.25 1
vt 0.8 1
vt 0.808333 1
vt 0.25 1
vt 0.258333 1
vt 0.8 1
vt 0.25 1
vt 0.258333 1
vt 0.791667 1
vt 0.8 1
vt 0.258333 1
vt 0.783333 1
vt 0.791667 1
vt 0.833333 1
vt 0.5 1
vt 0.825 1
vt 0.841667 1
vt 0.5 1
vt 0.833333 1
vt 0.258333 1
vt 0.775 1
vt 0.783333 1
vt 0.266667 1
vt 0.775 1
vt 0.258333 1
vt 0.85 1
vt 0.5 1
vt 0.841667 1
vt 0.858333 1
vt 0.5 1
vt 0.85 1
vt 0.266667 1
vt 0.766667 1
vt 0.775 1
vt 0.866667 1
vt 0.5 1
vt 0.858333 1
vt 0.266667 1
vt 0.758333 1
vt 0.766667 1
vt 0.875 1
vt 0.5 1
vt 0.866667 1
vt 0.883333 1
vt 0.5 1
vt 0.875 1
vt 0.266667 1
vt 0.75 1
vt 0.758333 1
vt 0.891667 1
vt 0.5 1
vt 0.883333 1
vt 0.891667 1
vt 0.491667 1
vt 0.5 1
vt 0.275 1
vt 0.75 1
vt 0.266667 1
vt 0.9 1
vt 0.491667 1
vt 0.891667 1
vt 0.275 1
vt 0.741667 1
vt 0.75 1
vt 0.908333 1
vt 0.491667 1
vt 0.9 1
vt 0.275 1
vt 0.733333 1
vt 0.741667 1
vt 0.275 1
vt 0.725 1
vt 0.733333 1
vt 0.283333 1
vt 0.725 1
vt 0.275 1
vt 0.916667 1
vt 0.491667 1
vt 0.908333 1
vt 0.283333 1
vt 0.716667 1
vt 0.725 1
vt 0.916667 1
vt 0.483333 1
vt 0.491667 1
vt 0.283333 1
vt 0.708333 1
vt 0.716667 1
vt 0.291667 1
vt 0.708333 1
vt 0.283333 1
vt 0.925 1
vt 0.483333 1
vt 0.916667 1
vt 0.291667 1
vt 0.7 1
vt 0.708333 1
vt 0.925 1
vt 0.475 1
vt 0.483333 1
vt 0.291667 1
vt 0.691667 1
vt 0.7 1
vt 0.3 1
vt 0.691667 1
vt 0.291667 1
vt 0.933333 1
vt 0.475 1
vt 0.925 1
vt 0.3 1
vt 0.683333 1
vt 0.691667 1
vt 0.941667 1
vt 0.475 1
vt 0.933333 1
vt 0.308333 1
vt 0.683333 1
vt 0.3 1
vt 0.941667 1
vt 0.466667 1
vt 0.475 1
vt 0.308333 1
vt 0.675 1
vt 0.683333 1
vt 0.308333 1
vt 0.666667 1
vt 0.675 1
vt 0.95 1
vt 0.466667 1
vt 0.941667 1
vt 0.316667 1
vt 0.666667 1
vt 0.308333 1
vt 0.316667 1
vt 0.658333 1
vt 0.666667 1
vt 0.95 1
vt 0.458333 1
vt 0.466667 1
vt 0.958333 1
vt 0.458333 1
vt 0.95 1
vt 0.316667 1
vt 0.65 1
vt 0.658333 1
vt 0.966667 1
vt 0.458333 1
vt 0.958333 1
vt 0.325 1
vt 0.65 1
vt 0.316667 1
vt 0.325 1
vt 0.641667 1
vt 0.65 1
vt 0.966667 1
vt 0.45 1
vt 0.458333 1
vt 0.975 1
vt 0.45 1
vt 0.966667 1
vt 0.325 1
vt 0.633333 1
vt 0.641667 1
vt 0.325 1
vt 0.625 1
vt 0.633333 1
vt 0.983333 1
vt 0.45 1
vt 0.975 1
vt 0.333333 1
vt 0.625 1
vt 0.325 1
vt 0.333333 1
vt 0.616667 1
vt 0.625 1
vt 0.991667 1
vt 0.45 1
vt 0.983333 1
vt 0.333333 1
vt 0.608333 1
vt 0.616667 1
vt 1 1
vt 0.45 1
vt 0.991667 1
vt 0.333333 1
vt 1 1
vt 0.608333 1
vt 0.333333 1
vt 0.45 1
vt 1 1
vt 0.333333 1
vt 0.441667 1
vt 0.45 1
vt 0.341667 1
vt 0.441667 1
vt 0.333333 1
vt 0.341667 1
vt 0.433333 1
vt 0.441667 1
vt 0.35 1
vt 0.433333 1
vt 0.341667 1
vt 0.35 1
vt 0.425 1
vt 0.433333 1
vt 0.358333 1
vt 0.425 1
vt 0.35 1
vt 0.358333 1
vt 0.416667 1
vt 0.425 1
vt 0.366667 1
vt 0.416667 1
vt 0.358333 1
vt 0.366667 1
vt 0.408333 1
vt 0.416667 1
vt 0.375 1
vt 0.408333 1
vt 0.366667 1
vt 0.375 1
vt 0.4 1
vt 0.408333 1
vt 0.383333 1
vt 0.4 1
vt 0.375 1
vt 0.383333 1
vt 0.391667 1
vt 0.4 1
vt 0 0
vt 0.013699 0
vt 0.013699 1
vt 0 1
vt 0.013699 0
vt 0.027397 0
vt 0.027397 1
vt 0.013699 1
vt 0.027397 0
vt 0.041096 0
vt 0.041096 1
vt 0.027397 1
vt 0.041096 0
vt 0.054795 0
vt 0.054795 1
vt 0.041096 1
vt 0.054795 0
vt 0.068493 0
vt 0.068493 1
vt 0.054795 1
vt 0.068493 0
vt 0.082192 0
vt 0.082192 1
vt 0.068493 1
vt 0.082192 0
vt 0.09589 0
vt 0.09589 1
vt 0.082192 1
vt 0.09589 0
vt 0.109589 0
vt 0.109589 1
vt 0.09589 1
vt 0.109589 0
vt 0.123288 0
vt 0.123288 1
vt 0.109589 1
vt 0.123288 0
vt 0.136986 0
vt 0.136986 1
vt 0.123288 1
vt 0.136986 0
vt 0.150685 0
vt 0.150685 1
vt 0.136986 1
vt 0.150685 0
vt 0.164384 0
vt 0.164384 1
vt 0.150685 1
vt 0.164384 0
vt 0.178082 0
vt 0.178082 1
vt 0.164384 1
vt 0.178082 0
vt 0.191781 0
vt 0.191781 1
vt 0.178082 1
vt 0.191781 0
vt 0.205479 0
vt 0.205479 1
vt 0.191781 1
vt 0.205479 0
vt 0.219178 0
vt 0.219178 1
vt 0.205479 1
vt 0.219178 0
vt 0.232877 0
vt 0.232877 1
vt 0.219178 1
vt 0.232877 0
vt 0.246575 0
vt 0.246575 1
vt 0.232877 1
vt 0.246575 0
vt 0.260274 0
vt 0.260274 1
vt 0.246575 1
vt 0.260274 0
vt 0.273973 0
vt 0.273973 1
vt 0.260274 1
vt 0.273973 0
vt 0.287671 0
vt 0.287671 1
vt 0.273973 1
vt 0.287671 0
vt 0.30137 0
vt 0.30137 1
vt 0.287671 1
vt 0.30137 0
vt 0.315068 0
vt 0.315068 1
vt 0.30137 1
vt 0.315068 0
vt 0.328767 0
vt 0.328767 1
vt 0.315068 1
vt 0.328767 0
vt 0.342466 0
vt 0.342466 1
vt 0.328767 1
vt 0.342466 0
vt 0.356164 0
vt 0.356164 1
vt 0.342466 1
vt 0.356164 0
vt 0.369863 0
vt 0.369863 1
vt 0.356164 1
vt 0.369863 0
vt 0.383562 0
vt 0.383562 1
vt 0.369863 1
vt 0.383562 0
vt 0.39726 0
vt 0.39726 1
vt 0.383562 1
vt 0.39726 0
vt 0.410959 0
vt 0.410959 1
vt 0.39726 1
vt 0.410959 0
vt 0.424658 0
vt 0.424658 1
vt 0.410959 1
vt 0.424658 0
vt 0.438356 0
vt 0.438356 1
vt 0.424658 1
vt 0.438356 0
vt 0.452055 0
vt 0.452055 1
vt 0.438356 1
vt 0.452055 0
vt 0.465753 0
vt 0.465753 1
vt 0.452055 1
vt 0.465753 0
vt 0.479452 0
vt 0.479452 1
vt 0.465753 1
vt 0.479452 0
vt 0.493151 0
vt 0.493151 1
vt 0.479452 1
vt 0.493151 0
vt 0.506849 0
vt 0.506849 1
vt 0.493151 1
vt 0.506849 0
vt 0.520548 0
vt 0.520548 1
vt 0.506849 1
vt 0.520548 0
vt 0.534247 0
vt 0.534247 1
vt 0.520548 1
vt 0.534247 0
vt 0.547945 0
vt 0.547945 1
vt 0.534247 1
vt 0.547945 0
vt 0.561644 0
vt 0.561644 1
vt 0.547945 1
vt 0.561644 0
vt 0.575342 0
vt 0.575342 1
vt 0.561644 1
vt 0.575342 0
vt 0.589041 0
vt 0.589041 1
vt 0.575342 1
vt 0.589041 0
vt 0.60274 0
vt 0.60274 1
vt 0.589041 1
vt 0.60274 0
vt 0.616438 0
vt 0.616438 1
vt 0.60274 1
vt 0.616438 0
vt 0.630137 0
vt 0.630137 1
vt 0.616438 1
vt 0.630137 0
vt 0.643836 0
vt 0.643836 1
vt 0.630137 1
vt 0.643836 0
vt 0.657534 0
vt 0.657534 1
vt 0.643836 1
vt 0.657534 0
vt 0.671233 0
vt 0.671233 1
vt 0.657534 1
vt 0.671233 0
vt 0.684932 0
vt 0.684932 1
vt 0.671233 1
vt 0.684932 0
vt 0.69863 0
vt 0.69863 1
vt 0.684932 1
vt 0.69863 0
vt 0.712329 0
vt 0.712329 1
vt 0.69863 1
vt 0.712329 0
vt 0.726027 0
vt 0.726027 1
vt 0.712329 1
vt 0.726027 0
vt 0.739726 0
vt 0.739726 1
vt 0.726027 1
vt 0.739726 0
vt 0.753425 0
vt 0.753425 1
vt 0.739726 1
vt 0.753425 0
vt 0.767123 0
vt 0.767123 1
vt 0.753425 1
vt 0.767123 0
vt 0.780822 0
vt 0.780822 1
vt 0.767123 1
vt 0.780822 0
vt 0.794521 0
vt 0.794521 1
vt 0.780822 1
vt 0.794521 0
vt 0.808219 0
vt 0.808219 1
vt 0.794521 1
vt 0.808219 0
vt 0.821918 0
vt 0.821918 1
vt 0.808219 1
vt 0.821918 0
vt 0.835616 0
vt 0.835616 1
vt 0.821918 1
vt 0.835616 0
vt 0.849315 0
vt 0.849315 1
vt 0.835616 1
vt 0.849315 0
vt 0.863014 0
vt 0.863014 1
vt 0.849315 1
vt 0.863014 0
vt 0.876712 0
vt 0.876712 1
vt 0.863014 1
vt 0.876712 0
vt 0.890411 0
vt 0.890411 1
vt 0.876712 1
vt 0.890411 0
vt 0.90411 0
vt 0.90411 1
vt 0.890411 1
vt 0.90411 0
vt 0.917808 0
vt 0.917808 1
vt 0.90411 1
vt 0.917808 0
vt 0.931507 0
vt 0.931507 1
vt 0.917808 1
vt 0.931507 0
vt 0.945205 0
vt 0.945205 1
vt 0.931507 1
vt 0.945205 0
vt 0.958904 0
vt 0.958904 1
vt 0.945205 1
vt 0.958904 0
vt 0.972603 0
vt 0.972603 1
vt 0.958904 1
vt 0.972603 0
vt 0.986301 0
vt 0.986301 1
vt 0.972603 1
vt 0.986301 0
vt 1 0
vt 1 1
vt 0.986301 1
vt 0 0
vt 0.020833 0
vt 0.020833 1
vt 0 1
vt 0.020833 0
vt 0.041667 0
vt 0.041667 1
vt 0.020833 1
vt 0.041667 0
vt 0.0625 0
vt 0.0625 1
vt 0.041667 1
vt 0.0625 0
vt 0.083333 0
vt 0.083333 1
vt 0.0625 1
vt 0.083333 0
vt 0.104167 0
vt 0.104167 1
vt 0.083333 1
vt 0.104167 0
vt 0.125 0
vt 0.125 1
vt 0.104167 1
vt 0.125 0
vt 0.145833 0
vt 0.145833 1
vt 0.125 1
vt 0.145833 0
vt 0.166667 0
vt 0.166667 1
vt 0.145833 1
vt 0.166667 0
vt 0.1875 0
vt 0.1875 1
vt 0.166667 1
vt 0.1875 0
vt 0.208333 0
vt 0.208333 1
vt 0.1875 1
vt 0.208333 0
vt 0.229167 0
vt 0.229167 1
vt 0.208333 1
vt 0.229167 0
vt 0.25 0
vt 0.25 1
vt 0.229167 1
vt 0.25 0
vt 0.270833 0
vt 0.270833 1
vt 0.25 1
vt 0.270833 0
vt 0.291667 0
vt 0.291667 1
vt 0.270833 1
vt 0.291667 0
vt 0.3125 0
vt 0.3125 1
vt 0.291667 1
vt 0.3125 0
vt 0.333333 0
vt 0.333333 1
vt 0.3125 1
vt 0.333333 0
vt 0.354167 0
vt 0.354167 1
vt 0.333333 1
vt 0.354167 0
vt 0.375 0
vt 0.375 1
vt 0.354167 1
vt 0.375 0
vt 0.395833 0
vt 0.395833 1
vt 0.375 1
vt 0.395833 0
vt 0.416667 0
vt 0.416667 1
vt 0.395833 1
vt 0.416667 0
vt 0.4375 0
vt 0.4375 1
vt 0.416667 1
vt 0.4375 0
vt 0.458333 0
vt 0.458333 1
vt 0.4375 1
vt 0.458333 0
vt 0.479167 0
vt 0.479167 1
vt 0.458333 1
vt 0.479167 0
vt 0.5 0
vt 0.5 1
vt 0.479167 1
vt 0.5 0
vt 0.520833 0
vt 0.520833 1
vt 0.5 1
vt 0.520833 0
vt 0.541667 0
vt 0.541667 1
vt 0.520833 1
vt 0.541667 0
vt 0.5625 0
vt 0.5625 1
vt 0.541667 1
vt 0.5625 0
vt 0.583333 0
vt 0.583333 1
vt 0.5625 1
vt 0.583333 0
vt 0.604167 0
vt 0.604167 1
vt 0.583333 1
vt 0.604167 0
vt 0.625 0
vt 0.625 1
vt 0.604167 1
vt 0.625 0
vt 0.645833 0
vt 0.645833 1
vt 0.625 1
vt 0.645833 0
vt 0.666667 0
vt 0.666667 1
vt 0.645833 1
vt 0.666667 0
vt 0.6875 0
vt 0.6875 1
vt 0.666667 1
vt 0.6875 0
vt 0.708333 0
vt 0.708333 1
vt 0.6875 1
vt 0.708333 0
vt 0.729167 0
vt 0.729167 1
vt 0.708333 1
vt 0.729167 0
vt 0.75 0
vt 0.75 1
vt 0.729167 1
vt 0.75 0
vt 0.770833 0
vt 0.770833 1
vt 0.75 1
vt 0.770833 0
vt 0.791667 0
vt 0.791667 1
vt 0.770833 1
vt 0.791667 0
vt 0.8125 0
vt 0.8125 1
vt 0.791667 1
vt 0.8125 0
vt 0.833333 0
vt 0.833333 1
vt 0.8125 1
vt 0.833333 0
vt 0.854167 0
vt 0.854167 1
vt 0.833333 1
vt 0.854167 0
vt 0.875 0
vt 0.875 1
vt 0.854167 1
vt 0.875 0
vt 0.895833 0
vt 0.895833 1
vt 0.875 1
vt 0.895833 0
vt 0.916667 0
vt 0.916667 1
vt 0.895833 1
vt 0.916667 0
vt 0.9375 0
vt 0.9375 1
vt 0.916667 1
vt 0.9375 0
vt 0.958333 0
vt 0.958333 1
vt 0.9375 1
vt 0.958333 0
vt 0.979167 0
vt 0.979167 1
vt 0.958333 1
vt 0.979167 0
vt 1 0
vt 1 1
vt 0.979167 1
s off
f 1/1/1 2/2/2 3/3/3
f 4/4/4 5/5/5 6/6/6
f 7/7/7 8/8/8 9/9/9
f 10/10/10 11/11/11 12/12/12
f 13/13/13 14/14/14 15/15/15
f 16/16/16 17/17/17 18/18/18
f 19/19/19 20/20/20 21/21/21
f 22/22/22 23/23/23 24/24/24
f 25/25/25 26/26/26 27/27/27
f 28/28/28 29/29/29 30/30/30
f 31/31/31 32/32/32 33/33/33
f 34/34/34 35/35/35 36/36/36
f 37/37/37 38/38/38 39/39/39
f 40/40/40 41/41/41 42/42/42
f 43/43/43 44/44/44 45/45/45
f 46/46/46 47/47/47 48/48/48
f 49/49/49 50/50/50 51/51/51
f 52/52/52 53/53/53 54/54/54
f 55/55/55 56/56/56 57/57/57
f 58/58/58 59/59/59 60/60/60
f 61/61/61 62/62/62 63/63/63
f 64/64/64 65/65/65 66/66/66
f 67/67/67 68/68/68 69/69/69
f 70/70/70 71/71/71 72/72/72
f 73/73/73 74/74/74 75/75/75
f 76/76/76 77/77/77 78/78/78
f 79/79/79 80/80/80 81/81/81
f 82/82/82 83/83/83 84/84/84
f 85/85/85 86/86/86 87/87/87
f 88/88/88 89/89/89 90/90/90
f 91/91/91 92/92/92 93/93/93
f 94/94/94 95/95/95 96/96/96
f 97/97/97 98/98/98 99/99/99
f 100/100/100 101/101/101 102/102/102
f 103/103/103 104/104/104 105/105/105
f 106/106/106 107/107/107 108/108/108
f 109/109/109 110/110/110 111/111/111
f 112/112/112 113/113/113 114/114/114
f 115/115/115 116/116/116 117/117/117
f 118/118/118 119/119/119 120/120/120
f 121/121/121 122/122/122 123/123/123
f 124/124/124 125/125/125 126/126/126
f 127/127/127 128/128/128 129/129/129
f 130/130/130 131/131/131 132/132/132
f 133/133/133 134/134/134 135/135/135
f 136/136/136 137/137/137 138/138/138
f 139/139/139 140/140/140 141/141/141
f 142/142/142 143/143/143 144/144/144
f 145/145/145 146/146/146 147/147/147
f 148/148/148 149/149/149 150/150/150
f 151/151/151 152/152/152 153/153/153
f 154/154/154 155/155/155 156/156/156
f 157/157/157 158/158/158 159/159/159
f 160/160/160 161/161/161 162/162/162
f 163/163/163 164/164/164 165/165/165
f 166/166/166 167/167/167 168/168/168
f 169/169/169 170/170/170 171/171/171
f 172/172/172 173/173/173 174/174/174
f 175/175/175 176/176/176 177/177/177
f 178/178/178 179/179/179 180/180/180
f 181/181/181 182/182/182 183/183/183
f 184/184/184 185/185/185 186/186/186
f 187/187/187 188/188/188 189/189/189
f 190/190/190 191/191/191 192/192/192
f 193/193/193 194/194/194 195/195/195
f 196/196/196 197/197/197 198/198/198
f 199/199/199 200/200/200 201/201/201
f 202/202/202 203/203/203 204/204/204
f 205/205/205 206/206/206 207/207/207
f 208/208/208 209/209/209 210/210/210
f 211/211/211 212/212/212 213/213/213
f 214/214/214 215/215/215 216/216/216
f 217/217/217 218/218/218 219/219/219
f 220/220/220 221/221/221 222/222/222
f 223/223/223 224/224/224 225/225/225
f 226/226/226 227/227/227 228/228/228
f 229/229/229 230/230/230 231/231/231
f 232/232/232 233/233/233 234/234/234
f 235/235/235 236/236/236 237/237/237
f 238/238/238 239/239/239 240/240/240
f 241/241/241 242/242/242 243/243/243
f 244/244/244 245/245/245 246/246/246
f 247/247/247 248/248/248 249/249/249
f 250/250/250 251/251/251 252/252/252
f 253/253/253 254/254/254 255/255/255
f 256/256/256 257/257/257 258/258/258
f 259/259/259 260/260/260 261/261/261
f 262/262/262 263/263/263 264/264/264
f 265/265/265 266/266/266 267/267/267
f 268/268/268 269/269/269 270/270/270
f 271/271/271 272/272/272 273/273/273
f 274/274/274 275/275/275 276/276/276
f 277/277/277 278/278/278 279/279/279
f 280/280/280 281/281/281 282/282/282
f 283/283/283 284/284/284 285/285/285
f 286/286/286 287/287/287 288/288/288
f 289/289/289 290/290/290 291/291/291
f 292/292/292 293/293/293 294/294/294
f 295/295/295 296/296/296 297/297/297
f 298/298/298 299/299/299 300/300/300
f 301/301/301 302/302/302 303/303/303
f 304/304/304 305/305/305 306/306/306
f 307/307/307 308/308/308 309/309/309
f 310/310/310 311/311/311 312/312/312
f 313/313/313 314/314/314 315/315/315
f 316/316/316 317/317/317 318/318/318
f 319/319/319 320/320/320 321/321/321
f 322/322/322 323/323/323 324/324/324
f 325/325/325 326/326/326 327/327/327
f 328/328/328 329/329/329 330/330/330
f 331/331/331 332/332/332 333/333/333
f 334/334/334 335/335/335 336/336/336
f 337/337/337 338/338/338 339/339/339
f 340/340/340 341/341/341 342/342/342
f 343/343/343 344/344/344 345/345/345
f 346/346/346 347/347/347 348/348/348
f 349/349/349 350/350/350 351/351/351
f 352/352/352 353/353/353 354/354/354
f 355/355/355 356/356/356 357/357/357
f 358/358/358 359/359/359 360/360/360
f 361/361/361 362/362/362 363/363/363
f 364/364/364 365/365/365 366/366/366
f 367/367/367 368/368/368 369/369/369
f 370/370/370 371/371/371 372/372/372
f 373/373/373 374/374/374 375/375/375
f 376/376/376 377/377/377 378/378/378
f 379/379/379 380/380/380 381/381/381
f 382/382/382 383/383/383 384/384/384
f 385/385/385 386/386/386 387/387/387
f 388/388/388 389/389/389 390/390/390
f 391/391/391 392/392/392 393/393/393
f 394/394/394 395/395/395 396/396/396
f 397/397/397 398/398/398 399/399/399
f 400/400/400 401/401/401 402/402/402
f 403/403/403 404/404/404 405/405/405
f 406/406/406 407/407/407 408/408/408
f 409/409/409 410/410/410 411/411/411
f 412/412/412 413/413/413 414/414/414
f 415/415/415 416/416/416 417/417/417
f 418/418/418 419/419/419 420/420/420
f 421/421/421 422/422/422 423/423/423
f 424/424/424 425/425/425 426/426/426
f 427/427/427 428/428/428 429/429/429
f 430/430/430 431/431/431 432/432/432
f 433/433/433 434/434/434 435/435/435
f 436/436/436 437/437/437 438/438/438
f 439/439/439 440/440/440 441/441/441
f 442/442/442 443/443/443 444/444/444
f 445/445/445 446/446/446 447/447/447
f 448/448/448 449/449/449 450/450/450
f 451/451/451 452/452/452 453/453/453
f 454/454/454 455/455/455 456/456/456
f 457/457/457 458/458/458 459/459/459
f 460/460/460 461/461/461 462/462/462
f 463/463/463 464/464/464 465/465/465
f 466/466/466 467/467/467 468/468/468
f 469/469/469 470/470/470 471/471/471
f 472/472/472 473/473/473 474/474/474
f 475/475/475 476/476/476 477/477/477
f 478/478/478 479/479/479 480/480/480
f 481/481/481 482/482/482 483/483/483
f 484/484/484 485/485/485 486/486/486
f 487/487/487 488/488/488 489/489/489
f 490/490/490 491/491/491 492/492/492
f 493/493/493 494/494/494 495/495/495
f 496/496/496 497/497/497 498/498/498
f 499/499/499 500/500/500 501/501/501
f 502/502/502 503/503/503 504/504/504
f 505/505/505 506/506/506 507/507/507
f 508/508/508 509/509/509 510/510/510
f 511/511/511 512/512/512 513/513/513
f 514/514/514 515/515/515 516/516/516
f 517/517/517 518/518/518 519/519/519
f 520/520/520 521/521/521 522/522/522
f 523/523/523 524/524/524 525/525/525
f 526/526/526 527/527/527 528/528/528
f 529/529/529 530/530/530 531/531/531
f 532/532/532 533/533/533 534/534/534
f 535/535/535 536/536/536 537/537/537
f 538/538/538 539/539/539 540/540/540
f 541/541/541 542/542/542 543/543/543
f 544/544/544 545/545/545 546/546/546
f 547/547/547 548/548/548 549/549/549
f 550/550/550 551/551/551 552/552/552
f 553/553/553 554/554/554 555/555/555
f 556/556/556 557/557/557 558/558/558
f 559/559/559 560/560/560 561/561/561
f 562/562/562 563/563/563 564/564/564
f 565/565/565 566/566/566 567/567/567
f 568/568/568 569/569/569 570/570/570
f 571/571/571 572/572/572 573/573/573
f 574/574/574 575/575/575 576/576/576
f 577/577/577 578/578/578 579/579/579
f 580/580/580 581/581/581 582/582/582
f 583/583/583 584/584/584 585/585/585
f 586/586/586 587/587/587 588/588/588
f 589/589/589 590/590/590 591/591/591
f 592/592/592 593/593/593 594/594/594
f 595/595/595 596/596/596 597/597/597
f 598/598/598 599/599/599 600/600/600
f 601/601/601 602/602/602 603/603/603
f 604/604/604 605/605/605 606/606/606
f 607/607/607 608/608/608 609/609/609
f 610/610/610 611/611/611 612/612/612
f 613/613/613 614/614/614 615/615/615
f 616/616/616 617/617/617 618/618/618
f 619/619/619 620/620/620 621/621/621
f 622/622/622 623/623/623 624/624/624
f 625/625/625 626/626/626 627/627/627
f 628/628/628 629/629/629 630/630/630
f 631/631/631 632/632/632 633/633/633
f 634/634/634 635/635/635 636/636/636
f 637/637/637 638/638/638 639/639/639
f 640/640/640 641/641/641 642/642/642
f 643/643/643 644/644/644 645/645/645
f 646/646/646 647/647/647 648/648/648
f 649/649/649 650/650/650 651/651/651
f 652/652/652 653/653/653 654/654/654
f 655/655/655 656/656/656 657/657/657
f 658/658/658 659/659/659 660/660/660
f 661/661/661 662/662/662 663/663/663
f 664/664/664 665/665/665 666/666/666
f 667/667/667 668/668/668 669/669/669
f 670/670/670 671/671/671 672/672/672
f 673/673/673 674/674/674 675/675/675
f 676/676/676 677/677/677 678/678/678
f 679/679/679 680/680/680 681/681/681
f 682/682/682 683/683/683 684/684/684
f 685/685/685 686/686/686 687/687/687
f 688/688/688 689/689/689 690/690/690
f 691/691/691 692/692/692 693/693/693
f 694/694/694 695/695/695 696/696/696
f 697/697/697 698/698/698 699/699/699
f 700/700/700 701/701/701 702/702/702
f 703/703/703 704/704/704 705/705/705
f 706/706/706 707/707/707 708/708/708
f 709/709/709 710/710/710 711/711/711
f 712/712/712 713/713/713 714/714/714
f 715/715/715 716/716/716 717/717/717
f 718/718/718 719/719/719 720/720/720
f 721/721/721 722/722/722 723/723/723
f 724/724/724 725/725/725 726/726/726
f 727/727/727 728/728/728 729/729/729
f 727/727/727 729/729/729 730/730/730
f 731/731/731 732/732/732 733/733/733
f 731/731/731 733/733/733 734/734/734
f 735/735/735 736/736/736 737/737/737
f 735/735/735 737/737/737 738/738/738
f 739/739/739 740/740/740 741/741/741
f 739/739/739 741/741/741 742/742/742
f 743/743/743 744/744/744 745/745/745
f 743/743/743 745/745/745 746/746/746
f 747/747/747 748/748/748 749/749/749
f 747/747/747 749/749/749 750/750/750
f 751/751/751 752/752/752 753/753/753
f 751/751/751 753/753/753 754/754/754
f 755/755/755 756/756/756 757/757/757
f 755/755/755 757/757/757 758/758/758
f 759/759/759 760/760/760 761/761/761
f 759/759/759 761/761/761 762/762/762
f 763/763/763 764/764/764 765/765/765
f 763/763/763 765/765/765 766/766/766
f 767/767/767 768/768/768 769/769/769
f 767/767/767 769/769/769 770/770/770
f 771/771/771 772/772/772 773/773/773
f 771/771/771 773/773/773 774/774/774
f 775/775/775 776/776/776 777/777/777
f 775/775/775 777/777/777 778/778/778
f 779/779/779 780/780/780 781/781/781
f 779/779/779 781/781/781 782/782/782
f 783/783/783 784/784/784 785/785/785
f 783/783/783 785/785/785 786/786/786
f 787/787/787 788/788/788 789/789/789
f 787/787/787 789/789/789 790/790/790
f 791/791/791 792/792/792 793/793/793
f 791/791/791 793/793/793 794/794/794
f 795/795/795 796/796/796 797/797/797
f 795/795/795 797/797/797 798/798/798
f 799/799/799 800/800/800 801/801/801
f 799/799/799 801/801/801 802/802/802
f 803/803/803 804/804/804 805/805/805
f 803/803/803 805/805/805 806/806/806
f 807/807/807 808/808/808 809/809/809
f 807/807/807 809/809/809 810/810/810
f 811/811/811 812/812/812 813/813/813
f 811/811/811 813/813/813 814/814/814
f 815/815/815 816/816/816 817/817/817
f 815/815/815 817/817/817 818/818/818
f 819/819/819 820/820/820 821/821/821
f 819/819/819 821/821/821 822/822/822
f 823/823/823 824/824/824 825/825/825
f 823/823/823 825/825/825 826/826/826
f 827/827/827 828/828/828 829/829/829
f 827/827/827 829/829/829 830/830/830
f 831/831/831 832/832/832 833/833/833
f 831/831/831 833/833/833 834/834/834
f 835/835/835 836/836/836 837/837/837
f 835/835/835 837/837/837 838/838/838
f 839/839/839 840/840/840 841/841/841
f 839/839/839 841/841/841 842/842/842
f 843/843/843 844/844/844 845/845/845
f 843/843/843 845/845/845 846/846/846
f 847/847/847 848/848/848 849/849/849
f 847/847/847 849/849/849 850/850/850
f 851/851/851 852/852/852 853/853/853
f 851/851/851 853/853/853 854/854/854
f 855/855/855 856/856/856 857/857/857
f 855/855/855 857/857/857 858/858/858
f 859/859/859 860/860/860 861/861/861
f 859/859/859 861/861/861 862/862/862
f 863/863/863 864/864/864 865/865/865
f 863/863/863 865/865/865 866/866/866
f 867/867/867 868/868/868 869/869/869
f 867/867/867 869/869/869 870/870/870
f 871/871/871 872/872/872 873/873/873
f 871/871/871 873/873/873 874/874/874
f 875/875/875 876/876/876 877/877/877
f 875/875/875 877/877/877 878/878/878
f 879/879/879 880/880/880 881/881/881
f 879/879/879 881/881/881 882/882/882
f 883/883/883 884/884/884 885/885/885
f 883/883/883 885/885/885 886/886/886
f 887/887/887 888/888/888 889/889/889
f 887/887/887 889/889/889 890/890/890
f 891/891/891 892/892/892 893/893/893
f 891/891/891 893/893/893 894/894/894
f 895/895/895 896/896/896 897/897/897
f 895/895/895 897/897/897 898/898/898
f 899/899/899 900/900/900 901/901/901
f 899/899/899 901/901/901 902/902/902
f 903/903/903 904/904/904 905/905/905
f 903/903/903 905/905/905 906/906/906
f 907/907/907 908/908/908 909/909/909
f 907/907/907 909/909/909 910/910/910
f 911/911/911 912/912/912 913/913/913
f 911/911/911 913/913/913 914/914/914
f 915/915/915 916/916/916 917/917/917
f 915/915/915 917/917/917 918/918/918
f 919/919/919 920/920/920 921/921/921
f 919/919/919 921/921/921 922/922/922
f 923/923/923 924/924/924 925/925/925
f 923/923/923 925/925/925 926/926/926
f 927/927/927 928/928/928 929/929/929
f 927/927/927 929/929/929 930/930/930
f 931/931/931 932/932/932 933/933/933
f 931/931/931 933/933/933 934/934/934
f 935/935/935 936/936/936 937/937/937
f 935/935/935 937/937/937 938/938/938
f 939/939/939 940/940/940 941/941/941
f 939/939/939 941/941/941 942/942/942
f 943/943/943 944/944/944 945/945/945
f 943/943/943 945/945/945 946/946/946
f 947/947/947 948/948/948 949/949/949
f 947/947/947 949/949/949 950/950/950
f 951/951/951 952/952/952 953/953/953
f 951/951/951 953/953/953 954/954/954
f 955/955/955 956/956/956 957/957/957
f 955/955/955 957/957/957 958/958/958
f 959/959/959 960/960/960 961/961/961
f 959/959/959 961/961/961 962/962/962
f 963/963/963 964/964/964 965/965/965
f 963/963/963 965/965/965 966/966/966
f 967/967/967 968/968/968 969/969/969
f 967/967/967 969/969/969 970/970/970
f 971/971/971 972/972/972 973/973/973
f 971/971/971 973/973/973 974/974/974
f 975/975/975 976/976/976 977/977/977
f 975/975/975 977/977/977 978/978/978
f 979/979/979 980/980/980 981/981/981
f 979/979/979 981/981/981 982/982/982
f 983/983/983 984/984/984 985/985/985
f 983/983/983 985/985/985 986/986/986
f 987/987/987 988/988/988 989/989/989
f 987/987/987 989/989/989 990/990/990
f 991/991/991 992/992/992 993/993/993
f 991/991/991 993/993/993 994/994/994
f 995/995/995 996/996/996 997/997/997
f 995/995/995 997/997/997 998/998/998
f 999/999/999 1000/1000/1000 1001/1001/1001
f 999/999/999 1001/1001/1001 1002/1002/1002
f 1003/1003/1003 1004/1004/1004 1005/1005/1005
f 1003/1003/1003 1005/1005/1005 1006/1006/1006
f 1007/1007/1007 1008/1008/1008 1009/1009/1009
f 1007/1007/1007 1009/1009/1009 1010/1010/1010
f 1011/1011/1011 1012/1012/1012 1013/1013/1013
f 1011/1011/1011 1013/1013/1013 1014/1014/1014
f 1015/1015/1015 1016/1016/1016 1017/1017/1017
f 1015/1015/1015 1017/1017/1017 1018/1018/1018
f 1019/1019/1019 1020/1020/1020 1021/1021/1021
f 1019/1019/1019 1021/1021/1021 1022/1022/1022
f 1023/1023/1023 1024/1024/1024 1025/1025/1025
f 1023/1023/1023 1025/1025/1025 1026/1026/1026
f 1027/1027/1027 1028/1028/1028 1029/1029/1029
f 1027/1027/1027 1029/1029/1029 1030/1030/1030
f 1031/1031/1031 1032/1032/1032 1033/1033/1033
f 1031/1031/1031 1033/1033/1033 1034/1034/1034
f 1035/1035/1035 1036/1036/1036 1037/1037/1037
f 1035/1035/1035 1037/1037/1037 1038/1038/1038
f 1039/1039/1039 1040/1040/1040 1041/1041/1041
f 1039/1039/1039 1041/1041/1041 1042/1042/1042
f 1043/1043/1043 1044/1044/1044 1045/1045/1045
f 1043/1043/1043 1045/1045/1045 1046/1046/1046
f 1047/1047/1047 1048/1048/1048 1049/1049/1049
f 1047/1047/1047 1049/1049/1049 1050/1050/1050
f 1051/1051/1051 1052/1052/1052 1053/1053/1053
f 1051/1051/1051 1053/1053/1053 1054/1054/1054
f 1055/1055/1055 1056/1056/1056 1057/1057/1057
f 1055/1055/1055 1057/1057/1057 1058/1058/1058
f 1059/1059/1059 1060/1060/1060 1061/1061/1061
f 1059/1059/1059 1061/1061/1061 1062/1062/1062
f 1063/1063/1063 1064/1064/1064 1065/1065/1065
f 1063/1063/1063 1065/1065/1065 1066/1066/1066
f 1067/1067/1067 1068/1068/1068 1069/1069/1069
f 1067/1067/1067 1069/1069/1069 1070/1070/1070
f 1071/1071/1071 1072/1072/1072 1073/1073/1073
f 1071/1071/1071 1073/1073/1073 1074/1074/1074
f 1075/1075/1075 1076/1076/1076 1077/1077/1077
f 1075/1075/1075 1077/1077/1077 1078/1078/1078
f 1079/1079/1079 1080/1080/1080 1081/1081/1081
f 1079/1079/1079 1081/1081/1081 1082/1082/1082
f 1083/1083/1083 1084/1084/1084 1085/1085/1085
f 1083/1083/1083 1085/1085/1085 1086/1086/1086
f 1087/1087/1087 1088/1088/1088 1089/1089/1089
f 1087/1087/1087 1089/1089/1089 1090/1090/1090
f 1091/1091/1091 1092/1092/1092 1093/1093/1093
f 1091/1091/1091 1093/1093/1093 1094/1094/1094
f 1095/1095/1095 1096/1096/1096 1097/1097/1097
f 1095/1095/1095 1097/1097/1097 1098/1098/1098
f 1099/1099/1099 1100/1100/1100 1101/1101/1101
f 1099/1099/1099 1101/1101/1101 1102/1102/1102
f 1103/1103/1103 1104/1104/1104 1105/1105/1105
f 1103/1103/1103 1105/1105/1105 1106/1106/1106
f 1107/1107/1107 1108/1108/1108 1109/1109/1109
f 1107/1107/1107 1109/1109/1109 1110/1110/1110
f 1111/1111/1111 1112/1112/1112 1113/1113/1113
f 1111/1111/1111 1113/1113/1113 1114/1114/1114
f 1115/1115/1115 1116/1116/1116 1117/1117/1117
f 1115/1115/1115 1117/1117/1117 1118/1118/1118
f 1119/1119/1119 1120/1120/1120 1121/1121/1121
f 1119/1119/1119 1121/1121/1121 1122/1122/1122
f 1123/1123/1123 1124/1124/1124 1125/1125/1125
f 1123/1123/1123 1125/1125/1125 1126/1126/1126
f 1127/1127/1127 1128/1128/1128 1129/1129/1129
f 1127/1127/1127 1129/1129/1129 1130/1130/1130
f 1131/1131/1131 1132/1132/1132 1133/1133/1133
f 1131/1131/1131 1133/1133/1133 1134/1134/1134
f 1135/1135/1135 1136/1136/1136 1137/1137/1137
f 1135/1135/1135 1137/1137/1137 1138/1138/1138
f 1139/1139/1139 1140/1140/1140 1141/1141/1141
f 1139/1139/1139 1141/1141/1141 1142/1142/1142
f 1143/1143/1143 1144/1144/1144 1145/1145/1145
f 1143/1143/1143 1145/1145/1145 1146/1146/1146
f 1147/1147/1147 1148/1148/1148 1149/1149/1149
f 1147/1147/1147 1149/1149/1149 1150/1150/1150
f 1151/1151/1151 1152/1152/1152 1153/1153/1153
f 1151/1151/1151 1153/1153/1153 1154/1154/1154
f 1155/1155/1155 1156/1156/1156 1157/1157/1157
f 1155/1155/1155 1157/1157/1157 1158/1158/1158
f 1159/1159/1159 1160/1160/1160 1161/1161/1161
f 1159/1159/1159 1161/1161/1161 1162/1162/1162
f 1163/1163/1163 1164/1164/1164 1165/1165/1165
f 1163/1163/1163 1165/1165/1165 1166/1166/1166
f 1167/1167/1167 1168/1168/1168 1169/1169/1169
f 1167/1167/1167 1169/1169/1169 1170/1170/1170
f 1171/1171/1171 1172/1172/1172 1173/1173/1173
f 1171/1171/1171 1173/1173/1173 1174/1174/1174
f 1175/1175/1175 1176/1176/1176 1177/1177/1177
f 1175/1175/1175 1177/1177/1177 1178/1178/1178
f 1179/1179/1179 1180/1180/1180 1181/1181/1181
f 1179/1179/1179 1181/1181/1181 1182/1182/1182
f 1183/1183/1183 1184/1184/1184 1185/1185/1185
f 1183/1183/1183 1185/1185/1185 1186/1186/1186
f 1187/1187/1187 1188/1188/1188 1189/1189/1189
f 1187/1187/1187 1189/1189/1189 1190/1190/1190
f 1191/1191/1191 1192/1192/1192 1193/1193/1193
f 1191/1191/1191 1193/1193/1193 1194/1194/1194
f 1195/1195/1195 1196/1196/1196 1197/1197/1197
f 1195/1195/1195 1197/1197/1197 1198/1198/1198
f 1199/1199/1199 1200/1200/1200 1201/1201/1201
f 1199/1199/1199 1201/1201/1201 1202/1202/1202
f 1203/1203/1203 1204/1204/1204 1205/1205/1205
f 1203/1203/1203 1205/1205/1205 1206/1206/1206
f 1207/1207/1207 1208/1208/1208 1209/1209/1209
f 1207/1207/1207 1209/1209/1209 1210/1210/1210
