v -0.07336 0.033425 -0.224593
v -0.045753 0.033457 -0.230414
v -0.07336 0.033457 -0.230414
v -0.07336 0.033425 -0.224593
v -0.054893 0.033425 -0.224593
v -0.045753 0.033457 -0.230414
v -0.054893 0.033425 -0.224593
v -0.065097 0.033221 -0.187157
v -0.045753 0.033457 -0.230414
v -0.070543 0.033234 -0.189536
v -0.065097 0.033221 -0.187157
v -0.054893 0.033425 -0.224593
v -0.045753 0.029701 -0.230435
v -0.07336 0.029669 -0.224613
v -0.07336 0.029701 -0.230435
v -0.054893 0.029669 -0.224613
v -0.07336 0.029669 -0.224613
v -0.045753 0.029701 -0.230435
v -0.065097 0.029465 -0.187177
v -0.054893 0.029669 -0.224613
v -0.045753 0.029701 -0.230435
v -0.065097 0.029465 -0.187177
v -0.070543 0.029478 -0.189556
v -0.054893 0.029669 -0.224613
v -0.070543 0.033234 -0.189536
v -0.054893 0.033425 -0.224593
v -0.054893 0.029669 -0.224613
v -0.070543 0.029478 -0.189556
v -0.054893 0.033425 -0.224593
v -0.07336 0.033425 -0.224593
v -0.07336 0.029669 -0.224613
v -0.054893 0.029669 -0.224613
v -0.07336 0.033425 -0.224593
v -0.07336 0.033457 -0.230414
v -0.07336 0.029701 -0.230435
v -0.07336 0.029669 -0.224613
v -0.07336 0.033457 -0.230414
v -0.045753 0.033457 -0.230414
v -0.045753 0.029701 -0.230435
v -0.07336 0.029701 -0.230435
v -0.045753 0.033457 -0.230414
v -0.065097 0.033221 -0.187157
v -0.065097 0.029465 -0.187177
v -0.045753 0.029701 -0.230435
v -0.065097 0.033221 -0.187157
v -0.070543 0.033234 -0.189536
v -0.070543 0.029478 -0.189556
v -0.065097 0.029465 -0.187177
vn -0 1 0.0055
vn -0 1 0.0055
vn -0 1 0.0055
vn -0 1 0.0055
vn -0 1 0.0055
vn -0 1 0.0055
vn -0 1 0.0055
vn -0 1 0.0054
vn -0 1 0.0055
vn -0 1 0.0055
vn -0 1 0.0054
vn -0 1 0.0055
vn -0 -1 -0.0055
vn -0 -1 -0.0055
vn -0 -1 -0.0055
vn -0 -1 -0.0055
vn -0 -1 -0.0055
vn -0 -1 -0.0055
vn -0 -1 -0.0054
vn -0 -1 -0.0055
vn -0 -1 -0.0055
vn -0 -1 -0.0054
vn -0 -1 -0.0055
vn -0 -1 -0.0055
vn -0.9325 -0.0019 0.3611
vn -0.8389 -0.0029 0.5443
vn -0.839 -0.0029 0.5442
vn -0.9325 -0.0019 0.3612
vn -0.8389 -0.0029 0.5443
vn -0.7071 -0.0038 0.7071
vn -0.7071 -0.0038 0.7071
vn -0.839 -0.0029 0.5442
vn -0.7071 -0.0038 0.7071
vn -0.7071 0.004 -0.7071
vn -0.7071 0.004 -0.7071
vn -0.7071 -0.0038 0.7071
vn -0.7071 0.004 -0.7071
vn 0.8391 0.0031 -0.5439
vn 0.8391 0.0031 -0.544
vn -0.7071 0.004 -0.7071
vn 0.8391 0.0031 -0.5439
vn 0.3609 -0.005 0.9326
vn 0.3609 -0.005 0.9326
vn 0.8391 0.0031 -0.544
vn 0.3609 -0.005 0.9326
vn -0.9325 -0.0019 0.3611
vn -0.9325 -0.0019 0.3612
vn 0.3609 -0.005 0.9326
vt 0.4 1
vt 0.8 1
vt 0.6 1
vt 0.4 1
vt 0.2 1
vt 0.8 1
vt 0.2 1
vt 1 1
vt 0.8 1
vt 0 1
vt 1 1
vt 0.2 1
vt 0.8 1
vt 0.4 1
vt 0.6 1
vt 0.2 1
vt 0.4 1
vt 0.8 1
vt 1 1
vt 0.2 1
vt 0.8 1
vt 1 1
vt 0 1
vt 0.2 1
vt 0 0
vt 0.166667 0
vt 0.166667 1
vt 0 1
vt 0.166667 0
vt 0.333333 0
vt 0.333333 1
vt 0.166667 1
vt 0.333333 0
vt 0.5 0
vt 0.5 1
vt 0.333333 1
vt 0.5 0
vt 0.666667 0
vt 0.666667 1
vt 0.5 1
vt 0.666667 0
vt 0.833333 0
vt 0.833333 1
vt 0.666667 1
vt 0.833333 0
vt 1 0
vt 1 1
vt 0.833333 1
s off
f 1/1/1 2/2/2 3/3/3
f 4/4/4 5/5/5 6/6/6
f 7/7/7 8/8/8 9/9/9
f 10/10/10 11/11/11 12/12/12
f 13/13/13 14/14/14 15/15/15
f 16/16/16 17/17/17 18/18/18
f 19/19/19 20/20/20 21/21/21
f 22/22/22 23/23/23 24/24/24
f 25/25/25 26/26/26 27/27/27
f 25/25/25 27/27/27 28/28/28
f 29/29/29 30/30/30 31/31/31
f 29/29/29 31/31/31 32/32/32
f 33/33/33 34/34/34 35/35/35
f 33/33/33 35/35/35 36/36/36
f 37/37/37 38/38/38 39/39/39
f 37/37/37 39/39/39 40/40/40
f 41/41/41 42/42/42 43/43/43
f 41/41/41 43/43/43 44/44/44
f 45/45/45 46/46/46 47/47/47
f 45/45/45 47/47/47 48/48/48
