v 0.826051 0.029811 -0.075893
v 0.82069 0.029973 -0.105676
v 0.817711 0.029973 -0.105676
v 0.826051 0.029811 -0.075893
v 0.829029 0.029811 -0.075893
v 0.82069 0.029973 -0.105676
v 0.77474 0.02976 -0.066491
v 0.777973 0.029971 -0.105293
v 0.77474 0.029971 -0.105293
v 0.77474 0.02976 -0.066491
v 0.777973 0.02976 -0.066491
v 0.777973 0.029971 -0.105293
v 0.82069 0.022315 -0.105718
v 0.826051 0.022152 -0.075935
v 0.817711 0.022315 -0.105718
v 0.829029 0.022152 -0.075935
v 0.826051 0.022152 -0.075935
v 0.82069 0.022315 -0.105718
v 0.777973 0.022313 -0.105334
v 0.77474 0.022101 -0.066533
v 0.77474 0.022313 -0.105334
v 0.777973 0.022101 -0.066533
v 0.77474 0.022101 -0.066533
v 0.777973 0.022313 -0.105334
v 0.777973 0.029971 -0.105293
v 0.777973 0.02976 -0.066491
v 0.777973 0.022101 -0.066533
v 0.777973 0.022313 -0.105334
v 0.777973 0.02976 -0.066491
v 0.77474 0.02976 -0.066491
v 0.77474 0.022101 -0.066533
v 0.777973 0.022101 -0.066533
v 0.77474 0.02976 -0.066491
v 0.77474 0.029971 -0.105293
v 0.77474 0.022313 -0.105334
v 0.77474 0.022101 -0.066533
v 0.77474 0.029971 -0.105293
v 0.777973 0.029971 -0.105293
v 0.777973 0.022313 -0.105334
v 0.77474 0.022313 -0.105334
v 0.817711 0.029973 -0.105676
v 0.82069 0.029973 -0.105676
v 0.82069 0.022315 -0.105718
v 0.817711 0.022315 -0.105718
v 0.82069 0.029973 -0.105676
v 0.829029 0.029811 -0.075893
v 0.829029 0.022152 -0.075935
v 0.82069 0.022315 -0.105718
v 0.829029 0.029811 -0.075893
v 0.826051 0.029811 -0.075893
v 0.826051 0.022152 -0.075935
v 0.829029 0.022152 -0.075935
v 0.826051 0.029811 -0.075893
v 0.817711 0.029973 -0.105676
v 0.817711 0.022315 -0.105718
v 0.826051 0.022152 -0.075935
vn -0 1 0.0054
vn -0 1 0.0054
vn -0 1 0.0054
vn -0 1 0.0054
vn -0 1 0.0054
vn -0 1 0.0054
vn -0 1 0.0054
vn -0 1 0.0054
vn -0 1 0.0054
vn -0 1 0.0054
vn -0 1 0.0054
vn -0 1 0.0054
vn -0 -1 -0.0055
vn -0 -1 -0.0055
vn -0 -1 -0.0055
vn -0 -1 -0.0055
vn -0 -1 -0.0055
vn -0 -1 -0.0055
vn -0 -1 -0.0055
vn -0 -1 -0.0055
vn -0 -1 -0.0055
vn -0 -1 -0.0055
vn -0 -1 -0.0055
vn -0 -1 -0.0055
vn 0.7071 0.0038 -0.7071
vn 0.7071 -0.0039 0.7071
vn 0.7071 -0.0039 0.7071
vn 0.7071 0.0038 -0.7071
vn 0.7071 -0.0039 0.7071
vn -0.7071 -0.0039 0.7071
vn -0.7071 -0.0039 0.7071
vn 0.7071 -0.0039 0.7071
vn -0.7071 -0.0039 0.7071
vn -0.7071 0.0038 -0.7071
vn -0.7071 0.0038 -0.7071
vn -0.7071 -0.0039 0.7071
vn -0.7071 0.0038 -0.7071
vn 0.7071 0.0038 -0.7071
vn 0.7071 0.0038 -0.7071
vn -0.7071 0.0038 -0.7071
vn -0.7968 0.0033 -0.6043
vn 0.6043 0.0044 -0.7967
vn 0.6043 0.0044 -0.7967
vn -0.7968 0.0033 -0.6043
vn 0.6043 0.0044 -0.7967
vn 0.7967 -0.0033 0.6043
vn 0.7968 -0.0033 0.6043
vn 0.6043 0.0044 -0.7967
vn 0.7967 -0.0033 0.6043
vn -0.6043 -0.0044 0.7968
vn -0.6043 -0.0044 0.7967
vn 0.7968 -0.0033 0.6043
vn -0.6043 -0.0044 0.7968
vn -0.7968 0.0033 -0.6043
vn -0.7968 0.0033 -0.6043
vn -0.6043 -0.0044 0.7967
vt 1 1
vt 0.333333 1
vt 0 1
vt 1 1
vt 0.666667 1
vt 0.333333 1
vt 0.666667 1
vt 0 1
vt 1 1
vt 0.666667 1
vt 0.333333 1
vt 0 1
vt 0.333333 1
vt 1 1
vt 0 1
vt 0.666667 1
vt 1 1
vt 0.333333 1
vt 0 1
vt 0.666667 1
vt 1 1
vt 0.333333 1
vt 0.666667 1
vt 0 1
vt 0 0
vt 0.25 0
vt 0.25 1
vt 0 1
vt 0.25 0
vt 0.5 0
vt 0.5 1
vt 0.25 1
vt 0.5 0
vt 0.75 0
vt 0.75 1
vt 0.5 1
vt 0.75 0
vt 1 0
vt 1 1
vt 0.75 1
vt 0 0
vt 0.25 0
vt 0.25 1
vt 0 1
vt 0.25 0
vt 0.5 0
vt 0.5 1
vt 0.25 1
vt 0.5 0
vt 0.75 0
vt 0.75 1
vt 0.5 1
vt 0.75 0
vt 1 0
vt 1 1
vt 0.75 1
s off
f 1/1/1 2/2/2 3/3/3
f 4/4/4 5/5/5 6/6/6
f 7/7/7 8/8/8 9/9/9
f 10/10/10 11/11/11 12/12/12
f 13/13/13 14/14/14 15/15/15
f 16/16/16 17/17/17 18/18/18
f 19/19/19 20/20/20 21/21/21
f 22/22/22 23/23/23 24/24/24
f 25/25/25 26/26/26 27/27/27
f 25/25/25 27/27/27 28/28/28
f 29/29/29 30/30/30 31/31/31
f 29/29/29 31/31/31 32/32/32
f 33/33/33 34/34/34 35/35/35
f 33/33/33 35/35/35 36/36/36
f 37/37/37 38/38/38 39/39/39
f 37/37/37 39/39/39 40/40/40
f 41/41/41 42/42/42 43/43/43
f 41/41/41 43/43/43 44/44/44
f 45/45/45 46/46/46 47/47/47
f 45/45/45 47/47/47 48/48/48
f 49/49/49 50/50/50 51/51/51
f 49/49/49 51/51/51 52/52/52
f 53/53/53 54/54/54 55/55/55
f 53/53/53 55/55/55 56/56/56
