v -0.738576 0.024117 0.062328
v -0.715914 0.024087 0.019383
v -0.720233 0.024087 0.019383
v -0.738576 0.024117 0.062328
v -0.718168 0.024093 0.028773
v -0.715914 0.024087 0.019383
v -0.718168 0.024093 0.028773
v -0.69682 0.024117 0.062328
v -0.715914 0.024087 0.019383
v -0.738576 0.024117 0.062328
v -0.724553 0.024104 0.044236
v -0.718168 0.024093 0.028773
v -0.711281 0.024104 0.044236
v -0.69682 0.024117 0.062328
v -0.718168 0.024093 0.028773
v -0.738576 0.024117 0.062328
v -0.726932 0.024108 0.049746
v -0.724553 0.024104 0.044236
v -0.726932 0.024108 0.049746
v -0.711281 0.024104 0.044236
v -0.724553 0.024104 0.044236
v -0.726932 0.024108 0.049746
v -0.708777 0.024108 0.049746
v -0.711281 0.024104 0.044236
v -0.708777 0.024108 0.049746
v -0.69682 0.024117 0.062328
v -0.711281 0.024104 0.044236
v -0.738576 0.024117 0.062328
v -0.732316 0.024117 0.062328
v -0.726932 0.024108 0.049746
v -0.70308 0.024117 0.062328
v -0.69682 0.024117 0.062328
v -0.708777 0.024108 0.049746
v -0.715914 0.020331 0.019386
v -0.738576 0.020361 0.062331
v -0.720233 0.020331 0.019386
v -0.718168 0.020337 0.028776
v -0.738576 0.020361 0.062331
v -0.715914 0.020331 0.019386
v -0.69682 0.020361 0.062331
v -0.718168 0.020337 0.028776
v -0.715914 0.020331 0.019386
v -0.724553 0.020348 0.044239
v -0.738576 0.020361 0.062331
v -0.718168 0.020337 0.028776
v -0.69682 0.020361 0.062331
v -0.711281 0.020348 0.044239
v -0.718168 0.020337 0.028776
v -0.726932 0.020352 0.049748
v -0.738576 0.020361 0.062331
v -0.724553 0.020348 0.044239
v -0.711281 0.020348 0.044239
v -0.726932 0.020352 0.049748
v -0.724553 0.020348 0.044239
v -0.708777 0.020352 0.049748
v -0.726932 0.020352 0.049748
v -0.711281 0.020348 0.044239
v -0.69682 0.020361 0.062331
v -0.708777 0.020352 0.049748
v -0.711281 0.020348 0.044239
v -0.732316 0.020361 0.062331
v -0.738576 0.020361 0.062331
v -0.726932 0.020352 0.049748
v -0.69682 0.020361 0.062331
v -0.70308 0.020361 0.062331
v -0.708777 0.020352 0.049748
v -0.70308 0.024117 0.062328
v -0.708777 0.024108 0.049746
v -0.708777 0.020352 0.049748
v -0.70308 0.020361 0.062331
v -0.708777 0.024108 0.049746
v -0.726932 0.024108 0.049746
v -0.726932 0.020352 0.049748
v -0.708777 0.020352 0.049748
v -0.726932 0.024108 0.049746
v -0.732316 0.024117 0.062328
v -0.732316 0.020361 0.062331
v -0.726932 0.020352 0.049748
v -0.732316 0.024117 0.062328
v -0.738576 0.024117 0.062328
v -0.738576 0.020361 0.062331
v -0.732316 0.020361 0.062331
v -0.738576 0.024117 0.062328
v -0.720233 0.024087 0.019383
v -0.720233 0.020331 0.019386
v -0.738576 0.020361 0.062331
v -0.720233 0.024087 0.019383
v -0.715914 0.024087 0.019383
v -0.715914 0.020331 0.019386
v -0.720233 0.020331 0.019386
v -0.715914 0.024087 0.019383
v -0.69682 0.024117 0.062328
v -0.69682 0.020361 0.062331
v -0.715914 0.020331 0.019386
v -0.69682 0.024117 0.062328
v -0.70308 0.024117 0.062328
v -0.70308 0.020361 0.062331
v -0.69682 0.020361 0.062331
v -0.711281 0.024104 0.044236
v -0.718168 0.024093 0.028773
v -0.718168 0.020337 0.028776
v -0.711281 0.020348 0.044239
v -0.718168 0.024093 0.028773
v -0.724553 0.024104 0.044236
v -0.724553 0.020348 0.044239
v -0.718168 0.020337 0.028776
v -0.724553 0.024104 0.044236
v -0.711281 0.024104 0.044236
v -0.711281 0.020348 0.044239
v -0.724553 0.020348 0.044239
vn -0 1 -0.0007
vn -0 1 -0.0007
vn -0 1 -0.0007
vn -0 1 -0.0007
vn 0.0001 1 -0.0006
vn -0 1 -0.0007
vn 0.0001 1 -0.0006
vn -0 1 -0.0007
vn -0 1 -0.0007
vn -0 1 -0.0007
vn -0 1 -0.0007
vn 0.0001 1 -0.0006
vn -0 1 -0.0007
vn -0 1 -0.0007
vn 0.0001 1 -0.0006
vn -0 1 -0.0007
vn -0 1 -0.0007
vn -0 1 -0.0007
vn -0 1 -0.0007
vn -0 1 -0.0007
vn -0 1 -0.0007
vn -0 1 -0.0007
vn -0.0002 1 -0.0005
vn -0 1 -0.0007
vn -0.0002 1 -0.0005
vn -0 1 -0.0007
vn -0 1 -0.0007
vn -0 1 -0.0007
vn -0 1 -0.0007
vn -0 1 -0.0007
vn -0 1 -0.0007
vn -0 1 -0.0007
vn -0.0002 1 -0.0005
vn -0 -1 0.0007
vn -0 -1 0.0007
vn -0 -1 0.0007
vn -0.0001 -1 0.0006
vn -0 -1 0.0007
vn -0 -1 0.0007
vn -0 -1 0.0007
vn -0.0001 -1 0.0006
vn -0 -1 0.0007
vn -0 -1 0.0007
vn -0 -1 0.0007
vn -0.0001 -1 0.0006
vn -0 -1 0.0007
vn -0 -1 0.0007
vn -0.0001 -1 0.0006
vn -0 -1 0.0007
vn -0 -1 0.0007
vn -0 -1 0.0007
vn -0 -1 0.0007
vn -0 -1 0.0007
vn -0 -1 0.0007
vn -0 -1 0.0007
vn -0 -1 0.0007
vn -0 -1 0.0007
vn -0 -1 0.0007
vn -0 -1 0.0007
vn -0 -1 0.0007
vn -0 -1 0.0007
vn -0 -1 0.0007
vn -0 -1 0.0007
vn -0 -1 0.0007
vn -0 -1 0.0007
vn -0 -1 0.0007
vn -0.542 0.0006 0.8404
vn -0.542 0.0005 0.8404
vn -0.542 0.0005 0.8404
vn -0.542 0.0006 0.8404
vn -0.542 0.0005 0.8404
vn 0.5506 0.0008 0.8348
vn 0.5507 0.0005 0.8347
vn -0.542 0.0005 0.8404
vn 0.5506 0.0008 0.8348
vn 0.5507 0.0006 0.8347
vn 0.5507 0.0006 0.8347
vn 0.5507 0.0005 0.8347
vn 0.5507 0.0006 0.8347
vn -0.8345 0.0001 0.5511
vn -0.8345 0.0004 0.551
vn 0.5507 0.0006 0.8347
vn -0.8345 0.0001 0.5511
vn -0.551 -0.0007 -0.8345
vn -0.551 -0.0007 -0.8345
vn -0.8345 0.0004 0.551
vn -0.551 -0.0007 -0.8345
vn 0.5448 -0.0007 -0.8385
vn 0.5449 -0.0007 -0.8385
vn -0.551 -0.0007 -0.8345
vn 0.5448 -0.0007 -0.8385
vn 0.8384 0.0001 0.5451
vn 0.8385 0.0004 0.5449
vn 0.5449 -0.0007 -0.8385
vn 0.8384 0.0001 0.5451
vn -0.542 0.0006 0.8404
vn -0.542 0.0006 0.8404
vn 0.8385 0.0004 0.5449
vn -0.8387 -0.0004 -0.5446
vn 0.0137 0.0008 0.9999
vn 0.0137 0.0008 0.9999
vn -0.8387 -0.0004 -0.5446
vn 0.0137 0.0008 0.9999
vn 0.8312 -0.0005 -0.556
vn 0.8311 -0.0005 -0.5561
vn 0.0137 0.0008 0.9999
vn 0.8312 -0.0005 -0.556
vn -0.8387 -0.0004 -0.5446
vn -0.8387 -0.0004 -0.5446
vn 0.8311 -0.0005 -0.5561
vt 0.4 1
vt 0.6 1
vt 0.5 1
vt 0.4 1
vt 0.9 1
vt 0.6 1
vt 0.9 1
vt 0.7 1
vt 0.6 1
vt 0.4 1
vt 1 1
vt 0.9 1
vt 0.8 1
vt 0.7 1
vt 0.9 1
vt 0.4 1
vt 0.2 1
vt 1 1
vt 0.2 1
vt 0.8 1
vt 1 1
vt 0.2 1
vt 0.1 1
vt 0.8 1
vt 0.1 1
vt 0.7 1
vt 0.8 1
vt 0.4 1
vt 0.3 1
vt 0.2 1
vt 0 1
vt 0.7 1
vt 0.1 1
vt 0.6 1
vt 0.4 1
vt 0.5 1
vt 0.9 1
vt 0.4 1
vt 0.6 1
vt 0.7 1
vt 0.9 1
vt 0.6 1
vt 1 1
vt 0.4 1
vt 0.9 1
vt 0.7 1
vt 0.8 1
vt 0.9 1
vt 0.2 1
vt 0.4 1
vt 1 1
vt 0.8 1
vt 0.2 1
vt 1 1
vt 0.1 1
vt 0.2 1
vt 0.8 1
vt 0.7 1
vt 0.1 1
vt 0.8 1
vt 0.3 1
vt 0.4 1
vt 0.2 1
vt 0.7 1
vt 0 1
vt 0.1 1
vt 0 0
vt 0.125 0
vt 0.125 1
vt 0 1
vt 0.125 0
vt 0.25 0
vt 0.25 1
vt 0.125 1
vt 0.25 0
vt 0.375 0
vt 0.375 1
vt 0.25 1
vt 0.375 0
vt 0.5 0
vt 0.5 1
vt 0.375 1
vt 0.5 0
vt 0.625 0
vt 0.625 1
vt 0.5 1
vt 0.625 0
vt 0.75 0
vt 0.75 1
vt 0.625 1
vt 0.75 0
vt 0.875 0
vt 0.875 1
vt 0.75 1
vt 0.875 0
vt 1 0
vt 1 1
vt 0.875 1
vt 0 0
vt 0.333333 0
vt 0.333333 1
vt 0 1
vt 0.333333 0
vt 0.666667 0
vt 0.666667 1
vt 0.333333 1
vt 0.666667 0
vt 1 0
vt 1 1
vt 0.666667 1
s off
f 1/1/1 2/2/2 3/3/3
f 4/4/4 5/5/5 6/6/6
f 7/7/7 8/8/8 9/9/9
f 10/10/10 11/11/11 12/12/12
f 13/13/13 14/14/14 15/15/15
f 16/16/16 17/17/17 18/18/18
f 19/19/19 20/20/20 21/21/21
f 22/22/22 23/23/23 24/24/24
f 25/25/25 26/26/26 27/27/27
f 28/28/28 29/29/29 30/30/30
f 31/31/31 32/32/32 33/33/33
f 34/34/34 35/35/35 36/36/36
f 37/37/37 38/38/38 39/39/39
f 40/40/40 41/41/41 42/42/42
f 43/43/43 44/44/44 45/45/45
f 46/46/46 47/47/47 48/48/48
f 49/49/49 50/50/50 51/51/51
f 52/52/52 53/53/53 54/54/54
f 55/55/55 56/56/56 57/57/57
f 58/58/58 59/59/59 60/60/60
f 61/61/61 62/62/62 63/63/63
f 64/64/64 65/65/65 66/66/66
f 67/67/67 68/68/68 69/69/69
f 67/67/67 69/69/69 70/70/70
f 71/71/71 72/72/72 73/73/73
f 71/71/71 73/73/73 74/74/74
f 75/75/75 76/76/76 77/77/77
f 75/75/75 77/77/77 78/78/78
f 79/79/79 80/80/80 81/81/81
f 79/79/79 81/81/81 82/82/82
f 83/83/83 84/84/84 85/85/85
f 83/83/83 85/85/85 86/86/86
f 87/87/87 88/88/88 89/89/89
f 87/87/87 89/89/89 90/90/90
f 91/91/91 92/92/92 93/93/93
f 91/91/91 93/93/93 94/94/94
f 95/95/95 96/96/96 97/97/97
f 95/95/95 97/97/97 98/98/98
f 99/99/99 100/100/100 101/101/101
f 99/99/99 101/101/101 102/102/102
f 103/103/103 104/104/104 105/105/105
f 103/103/103 105/105/105 106/106/106
f 107/107/107 108/108/108 109/109/109
f 107/107/107 109/109/109 110/110/110
