v 0.195052 0.012039 0.302854
v 0.195179 0.012039 0.302839
v 0.195325 0.012039 0.30281
v 0.195463 0.012039 0.302767
v 0.195594 0.012039 0.302713
v 0.195696 0.012039 0.302658
v 0.195794 0.012039 0.302595
v 0.195886 0.012039 0.302522
v 0.195989 0.012039 0.302424
v 0.196052 0.012039 0.302352
v 0.196096 0.012039 0.302298
v 0.196175 0.012039 0.302184
v 0.196243 0.012039 0.302066
v 0.196298 0.012039 0.301942
v 0.196342 0.012039 0.301814
v 0.196374 0.012039 0.301681
v 0.196393 0.012039 0.301542
v 0.196401 0.012039 0.301374
v 0.196401 0.012039 0.289008
v 0.196409 0.012039 0.288839
v 0.196429 0.012039 0.2887
v 0.196459 0.012039 0.288566
v 0.196502 0.012039 0.288438
v 0.196556 0.012039 0.288314
v 0.196621 0.012039 0.288197
v 0.196698 0.012039 0.288083
v 0.196803 0.012039 0.287957
v 0.196886 0.012039 0.287874
v 0.196975 0.012039 0.2878
v 0.197069 0.012039 0.287735
v 0.197169 0.012039 0.287678
v 0.197275 0.012039 0.28763
v 0.197409 0.012039 0.287584
v 0.197551 0.012039 0.28755
v 0.197702 0.012039 0.287529
v 0.197888 0.012039 0.28752
v 0.210254 0.012039 0.28752
v 0.210434 0.012039 0.287513
v 0.210605 0.012039 0.287488
v 0.210743 0.012039 0.287454
v 0.210874 0.012039 0.287409
v 0.210999 0.012039 0.287351
v 0.211115 0.012039 0.287282
v 0.211225 0.012039 0.287201
v 0.211328 0.012039 0.287107
v 0.211421 0.012039 0.287005
v 0.211502 0.012039 0.286894
v 0.211572 0.012039 0.286775
v 0.211629 0.012039 0.286649
v 0.211675 0.012039 0.286514
v 0.211709 0.012039 0.286373
v 0.211733 0.012039 0.286197
v 0.211741 0.012039 0.286011
v 0.211741 0.012039 0.285185
v 0.211733 0.012039 0.285004
v 0.21171 0.012039 0.284834
v 0.211679 0.012039 0.284696
v 0.211636 0.012039 0.284564
v 0.211581 0.012039 0.28444
v 0.211516 0.012039 0.284323
v 0.211439 0.012039 0.284214
v 0.211352 0.012039 0.28411
v 0.211287 0.012039 0.284047
v 0.211219 0.012039 0.283989
v 0.211128 0.012039 0.283924
v 0.21103 0.012039 0.283866
v 0.210926 0.012039 0.283818
v 0.210793 0.012039 0.283771
v 0.21065 0.012039 0.283735
v 0.210473 0.012039 0.283708
v 0.210254 0.012039 0.283697
v 0.194065 0.012039 0.283697
v 0.193885 0.012039 0.283706
v 0.193715 0.012039 0.283729
v 0.193576 0.012039 0.283762
v 0.193445 0.012039 0.283806
v 0.193321 0.012039 0.283862
v 0.193204 0.012039 0.283929
v 0.193094 0.012039 0.284008
v 0.192992 0.012039 0.284099
v 0.192928 0.012039 0.284165
v 0.19287 0.012039 0.284234
v 0.192805 0.012039 0.284326
v 0.192748 0.012039 0.284425
v 0.19269 0.012039 0.284549
v 0.192645 0.012039 0.284682
v 0.192611 0.012039 0.284824
v 0.192587 0.012039 0.284999
v 0.192579 0.012039 0.285185
v 0.192579 0.012039 0.301374
v 0.192586 0.012039 0.301553
v 0.19261 0.012039 0.301724
v 0.192643 0.012039 0.301863
v 0.192687 0.012039 0.301993
v 0.192743 0.012039 0.302117
v 0.19281 0.012039 0.302235
v 0.192889 0.012039 0.302345
v 0.19298 0.012039 0.302447
v 0.193046 0.012039 0.30251
v 0.193115 0.012039 0.302568
v 0.193207 0.012039 0.302634
v 0.193305 0.012039 0.302691
v 0.19343 0.012039 0.302749
v 0.193563 0.012039 0.302794
v 0.193704 0.012039 0.302828
v 0.193879 0.012039 0.302852
v 0.194065 0.012039 0.30286
v 0.194891 0.012039 0.30286
v 0.186745 0.012039 0.297684
v 0.186736 0.012039 0.297787
v 0.186708 0.012039 0.29796
v 0.186672 0.012039 0.298097
v 0.186624 0.012039 0.298228
v 0.186564 0.012039 0.29835
v 0.186505 0.012039 0.298445
v 0.186439 0.012039 0.298535
v 0.186348 0.012039 0.298636
v 0.186248 0.012039 0.298726
v 0.186158 0.012039 0.298793
v 0.186043 0.012039 0.298862
v 0.185919 0.012039 0.29892
v 0.185788 0.012039 0.298966
v 0.185648 0.012039 0.299001
v 0.185474 0.012039 0.299027
v 0.185263 0.012039 0.299037
v 0.17672 0.012039 0.299037
v 0.176546 0.012039 0.299029
v 0.17638 0.012039 0.299006
v 0.176244 0.012039 0.298973
v 0.176115 0.012039 0.298928
v 0.175991 0.012039 0.298873
v 0.175874 0.012039 0.298806
v 0.175763 0.012039 0.298726
v 0.175658 0.012039 0.298636
v 0.175577 0.012039 0.298553
v 0.175519 0.012039 0.298483
v 0.175453 0.012039 0.298389
v 0.175396 0.012039 0.29829
v 0.175348 0.012039 0.298185
v 0.175301 0.012039 0.298052
v 0.175266 0.012039 0.297911
v 0.175241 0.012039 0.297736
v 0.175233 0.012039 0.29755
v 0.175233 0.012039 0.289008
v 0.175241 0.012039 0.288839
v 0.17526 0.012039 0.2887
v 0.175291 0.012039 0.288566
v 0.175333 0.012039 0.288438
v 0.175387 0.012039 0.288314
v 0.175453 0.012039 0.288197
v 0.17553 0.012039 0.288083
v 0.175634 0.012039 0.287957
v 0.175717 0.012039 0.287874
v 0.175806 0.012039 0.2878
v 0.1759 0.012039 0.287735
v 0.176001 0.012039 0.287678
v 0.176106 0.012039 0.28763
v 0.176241 0.012039 0.287584
v 0.176383 0.012039 0.28755
v 0.176534 0.012039 0.287529
v 0.17672 0.012039 0.28752
v 0.189086 0.012039 0.28752
v 0.189266 0.012039 0.287513
v 0.189436 0.012039 0.287489
v 0.189575 0.012039 0.287457
v 0.189706 0.012039 0.287412
v 0.18983 0.012039 0.287356
v 0.189947 0.012039 0.287289
v 0.190057 0.012039 0.28721
v 0.19016 0.012039 0.28712
v 0.190223 0.012039 0.287053
v 0.190267 0.012039 0.287001
v 0.190334 0.012039 0.286909
v 0.190393 0.012039 0.286811
v 0.190452 0.012039 0.286685
v 0.1905 0.012039 0.286551
v 0.190535 0.012039 0.286408
v 0.190562 0.012039 0.286229
v 0.190573 0.012039 0.286011
v 0.190573 0.012039 0.285185
v 0.190565 0.012039 0.285004
v 0.190542 0.012039 0.284834
v 0.19051 0.012039 0.284696
v 0.190467 0.012039 0.284564
v 0.190413 0.012039 0.28444
v 0.190348 0.012039 0.284323
v 0.190271 0.012039 0.284214
v 0.190183 0.012039 0.28411
v 0.190119 0.012039 0.284047
v 0.19005 0.012039 0.283989
v 0.189959 0.012039 0.283924
v 0.189862 0.012039 0.283866
v 0.189758 0.012039 0.283818
v 0.189624 0.012039 0.283771
v 0.189482 0.012039 0.283735
v 0.189304 0.012039 0.283708
v 0.189086 0.012039 0.283697
v 0.172897 0.012039 0.283697
v 0.172717 0.012039 0.283706
v 0.172546 0.012039 0.283729
v 0.172408 0.012039 0.283762
v 0.172277 0.012039 0.283806
v 0.172153 0.012039 0.283862
v 0.172036 0.012039 0.283929
v 0.171926 0.012039 0.284008
v 0.171823 0.012039 0.284099
v 0.17176 0.012039 0.284165
v 0.171701 0.012039 0.284234
v 0.171636 0.012039 0.284326
v 0.171579 0.012039 0.284425
v 0.171522 0.012039 0.284549
v 0.171476 0.012039 0.284682
v 0.171442 0.012039 0.284824
v 0.171418 0.012039 0.284999
v 0.17141 0.012039 0.285185
v 0.17141 0.012039 0.301374
v 0.171418 0.012039 0.301553
v 0.171441 0.012039 0.301724
v 0.171472 0.012039 0.301863
v 0.171515 0.012039 0.301993
v 0.17157 0.012039 0.302117
v 0.171635 0.012039 0.302235
v 0.171712 0.012039 0.302345
v 0.171799 0.012039 0.302447
v 0.171864 0.012039 0.30251
v 0.171932 0.012039 0.302568
v 0.172024 0.012039 0.302634
v 0.172121 0.012039 0.302691
v 0.172225 0.012039 0.30274
v 0.172358 0.012039 0.302787
v 0.172501 0.012039 0.302823
v 0.172678 0.012039 0.30285
v 0.172897 0.012039 0.30286
v 0.189086 0.012039 0.30286
v 0.189266 0.012039 0.302853
v 0.189436 0.012039 0.30283
v 0.189575 0.012039 0.302798
v 0.189706 0.012039 0.302755
v 0.18983 0.012039 0.3027
v 0.189947 0.012039 0.302635
v 0.190057 0.012039 0.302559
v 0.19016 0.012039 0.302471
v 0.190223 0.012039 0.302406
v 0.190281 0.012039 0.302338
v 0.190346 0.012039 0.302247
v 0.190403 0.012039 0.302149
v 0.190452 0.012039 0.302045
v 0.1905 0.012039 0.301912
v 0.190535 0.012039 0.301769
v 0.190562 0.012039 0.301592
v 0.190573 0.012039 0.301374
v 0.190573 0.012039 0.292877
v 0.190565 0.012039 0.292691
v 0.190542 0.012039 0.292516
v 0.19051 0.012039 0.292376
v 0.190467 0.012039 0.292242
v 0.190413 0.012039 0.292118
v 0.190348 0.012039 0.292001
v 0.190271 0.012039 0.291892
v 0.190183 0.012039 0.291792
v 0.190119 0.012039 0.29173
v 0.190068 0.012039 0.291687
v 0.189978 0.012039 0.291622
v 0.189882 0.012039 0.291566
v 0.189758 0.012039 0.291508
v 0.189624 0.012039 0.291461
v 0.189482 0.012039 0.291427
v 0.189304 0.012039 0.291401
v 0.189086 0.012039 0.291391
v 0.180944 0.012039 0.291391
v 0.18077 0.012039 0.291398
v 0.180604 0.012039 0.291422
v 0.180468 0.012039 0.291455
v 0.180339 0.012039 0.291499
v 0.180216 0.012039 0.291555
v 0.180098 0.012039 0.291622
v 0.179987 0.012039 0.291701
v 0.179882 0.012039 0.291792
v 0.179801 0.012039 0.291875
v 0.179743 0.012039 0.291945
v 0.179678 0.012039 0.292039
v 0.179621 0.012039 0.292138
v 0.179572 0.012039 0.292242
v 0.179525 0.012039 0.292376
v 0.179491 0.012039 0.292516
v 0.179466 0.012039 0.292691
v 0.179457 0.012039 0.292877
v 0.17941 0.012039 0.293703
v 0.179416 0.012039 0.293864
v 0.179431 0.012039 0.293991
v 0.179459 0.012039 0.294136
v 0.1795 0.012039 0.294273
v 0.179553 0.012039 0.294402
v 0.179607 0.012039 0.294504
v 0.179669 0.012039 0.294599
v 0.179739 0.012039 0.294689
v 0.179835 0.012039 0.294789
v 0.179941 0.012039 0.294879
v 0.180034 0.012039 0.294946
v 0.180154 0.012039 0.295016
v 0.180281 0.012039 0.295074
v 0.180415 0.012039 0.295119
v 0.180557 0.012039 0.295155
v 0.180732 0.012039 0.29518
v 0.180944 0.012039 0.295191
v 0.185263 0.012039 0.295191
v 0.185431 0.012039 0.295199
v 0.18557 0.012039 0.295218
v 0.185704 0.012039 0.29525
v 0.185832 0.012039 0.295294
v 0.185956 0.012039 0.295349
v 0.186074 0.012039 0.295417
v 0.186187 0.012039 0.295496
v 0.186313 0.012039 0.295604
v 0.186396 0.012039 0.295689
v 0.186456 0.012039 0.295761
v 0.186523 0.012039 0.295856
v 0.186582 0.012039 0.295956
v 0.18664 0.012039 0.296084
v 0.186686 0.012039 0.29622
v 0.18672 0.012039 0.296363
v 0.186741 0.012039 0.296515
v 0.186749 0.012039 0.296701
v 0.186749 0.012039 0.29755
v 0.210028 0.012039 0.256723
v 0.210215 0.012039 0.256748
v 0.210367 0.012039 0.256783
v 0.21051 0.012039 0.256831
v 0.210645 0.012039 0.256891
v 0.210771 0.012039 0.256963
v 0.210889 0.012039 0.257046
v 0.210999 0.012039 0.257143
v 0.211067 0.012039 0.257214
v 0.211129 0.012039 0.257288
v 0.211198 0.012039 0.257386
v 0.211259 0.012039 0.25749
v 0.21132 0.012039 0.257623
v 0.211369 0.012039 0.257765
v 0.211405 0.012039 0.257915
v 0.211431 0.012039 0.258102
v 0.211439 0.012039 0.258301
v 0.211439 0.012039 0.271485
v 0.211443 0.012039 0.271596
v 0.211451 0.012039 0.271704
v 0.211476 0.012039 0.271859
v 0.211514 0.012039 0.272006
v 0.211565 0.012039 0.272146
v 0.21163 0.012039 0.272278
v 0.211708 0.012039 0.272403
v 0.2118 0.012039 0.27252
v 0.211905 0.012039 0.272629
v 0.211981 0.012039 0.272698
v 0.212039 0.012039 0.272745
v 0.21216 0.012039 0.272829
v 0.212286 0.012039 0.2729
v 0.212418 0.012039 0.27296
v 0.212555 0.012039 0.273006
v 0.212697 0.012039 0.27304
v 0.212845 0.012039 0.273062
v 0.213025 0.012039 0.27307
v 0.213905 0.012039 0.27307
v 0.214048 0.012039 0.273066
v 0.214158 0.012039 0.273056
v 0.214341 0.012039 0.273026
v 0.214489 0.012039 0.272987
v 0.214628 0.012039 0.272936
v 0.214758 0.012039 0.272872
v 0.21486 0.012039 0.27281
v 0.214956 0.012039 0.272738
v 0.215063 0.012039 0.272642
v 0.215159 0.012039 0.272536
v 0.21523 0.012039 0.27244
v 0.215304 0.012039 0.272316
v 0.215366 0.012039 0.272185
v 0.215415 0.012039 0.272045
v 0.215452 0.012039 0.271895
v 0.21548 0.012039 0.27171
v 0.215491 0.012039 0.271485
v 0.215491 0.012039 0.258301
v 0.215497 0.012039 0.258152
v 0.215516 0.012039 0.258007
v 0.215548 0.012039 0.257867
v 0.215592 0.012039 0.257731
v 0.215649 0.012039 0.2576
v 0.215719 0.012039 0.257473
v 0.215816 0.012039 0.25733
v 0.215931 0.012039 0.257194
v 0.216022 0.012039 0.257102
v 0.216119 0.012039 0.257021
v 0.216221 0.012039 0.25695
v 0.216329 0.012039 0.256887
v 0.216444 0.012039 0.256835
v 0.216588 0.012039 0.256784
v 0.216741 0.012039 0.256748
v 0.216902 0.012039 0.256725
v 0.217101 0.012039 0.256715
v 0.222108 0.012039 0.256715
v 0.2223 0.012039 0.256707
v 0.222482 0.012039 0.25668
v 0.222629 0.012039 0.256644
v 0.222769 0.012039 0.256596
v 0.222902 0.012039 0.256535
v 0.223026 0.012039 0.256461
v 0.223143 0.012039 0.256374
v 0.223253 0.012039 0.256275
v 0.223352 0.012039 0.256165
v 0.223439 0.012039 0.256047
v 0.223513 0.012039 0.25592
v 0.223574 0.012039 0.255785
v 0.223623 0.012039 0.255643
v 0.223659 0.012039 0.255491
v 0.223684 0.012039 0.255304
v 0.223693 0.012039 0.255105
v 0.223693 0.012039 0.254224
v 0.223685 0.012039 0.254032
v 0.22366 0.012039 0.25385
v 0.223625 0.012039 0.253703
v 0.223577 0.012039 0.253563
v 0.223518 0.012039 0.25343
v 0.223446 0.012039 0.253306
v 0.223362 0.012039 0.253189
v 0.223265 0.012039 0.25308
v 0.223195 0.012039 0.253012
v 0.223121 0.012039 0.25295
v 0.223022 0.012039 0.25288
v 0.222918 0.012039 0.25282
v 0.222785 0.012039 0.252758
v 0.222643 0.012039 0.25271
v 0.222493 0.012039 0.252674
v 0.222306 0.012039 0.252647
v 0.222108 0.012039 0.252639
v 0.204847 0.012039 0.252639
v 0.204655 0.012039 0.252647
v 0.204474 0.012039 0.252672
v 0.204326 0.012039 0.252708
v 0.204186 0.012039 0.252755
v 0.204054 0.012039 0.252815
v 0.203929 0.012039 0.252886
v 0.203812 0.012039 0.25297
v 0.203703 0.012039 0.253067
v 0.203635 0.012039 0.253137
v 0.203573 0.012039 0.253211
v 0.203503 0.012039 0.253309
v 0.203443 0.012039 0.253414
v 0.203381 0.012039 0.253547
v 0.203333 0.012039 0.253689
v 0.203297 0.012039 0.253839
v 0.203271 0.012039 0.254026
v 0.203262 0.012039 0.254224
v 0.203262 0.012039 0.255105
v 0.203271 0.012039 0.255304
v 0.203296 0.012039 0.255491
v 0.203331 0.012039 0.255643
v 0.203378 0.012039 0.255785
v 0.203437 0.012039 0.25592
v 0.203509 0.012039 0.256047
v 0.203593 0.012039 0.256165
v 0.20369 0.012039 0.256275
v 0.20376 0.012039 0.256343
v 0.203835 0.012039 0.256404
v 0.203933 0.012039 0.256474
v 0.204037 0.012039 0.256535
v 0.20417 0.012039 0.256596
v 0.204312 0.012039 0.256644
v 0.204462 0.012039 0.25668
v 0.204649 0.012039 0.256707
v 0.204847 0.012039 0.256715
v 0.209829 0.012039 0.256715
v 0.174411 0.012039 0.26599
v 0.178554 0.012039 0.271485
v 0.178554 0.012039 0.254224
v 0.174409 0.012039 0.259741
v 0.174444 0.012039 0.259595
v 0.174409 0.012039 0.259741
v 0.178554 0.012039 0.254224
v 0.174469 0.012039 0.259418
v 0.174444 0.012039 0.259595
v 0.178554 0.012039 0.254224
v 0.174478 0.012039 0.259232
v 0.174469 0.012039 0.259418
v 0.178554 0.012039 0.254224
v 0.174478 0.012039 0.258301
v 0.174478 0.012039 0.259232
v 0.178554 0.012039 0.254224
v 0.174469 0.012039 0.258102
v 0.174478 0.012039 0.258301
v 0.178554 0.012039 0.254224
v 0.174446 0.012039 0.257942
v 0.174469 0.012039 0.258102
v 0.178554 0.012039 0.254224
v 0.174411 0.012039 0.257789
v 0.174446 0.012039 0.257942
v 0.178554 0.012039 0.254224
v 0.174361 0.012039 0.257646
v 0.174411 0.012039 0.257789
v 0.178554 0.012039 0.254224
v 0.17431 0.012039 0.257533
v 0.174361 0.012039 0.257646
v 0.178554 0.012039 0.254224
v 0.17425 0.012039 0.257427
v 0.17431 0.012039 0.257533
v 0.178554 0.012039 0.254224
v 0.17418 0.012039 0.257326
v 0.17425 0.012039 0.257427
v 0.178554 0.012039 0.254224
v 0.174101 0.012039 0.257232
v 0.17418 0.012039 0.257326
v 0.178554 0.012039 0.254224
v 0.176969 0.012039 0.252639
v 0.174012 0.012039 0.257143
v 0.174101 0.012039 0.257232
v 0.178554 0.012039 0.254224
v 0.177194 0.012039 0.25265
v 0.176969 0.012039 0.252639
v 0.178554 0.012039 0.254224
v 0.17855 0.012039 0.254081
v 0.176969 0.012039 0.27307
v 0.17708 0.012039 0.273067
v 0.178545 0.012039 0.271665
v 0.178554 0.012039 0.271485
v 0.176088 0.012039 0.27307
v 0.176969 0.012039 0.27307
v 0.178554 0.012039 0.271485
v 0.174478 0.012039 0.266503
v 0.174478 0.012039 0.271485
v 0.176088 0.012039 0.27307
v 0.178554 0.012039 0.271485
v 0.174469 0.012039 0.266304
v 0.174478 0.012039 0.266503
v 0.178554 0.012039 0.271485
v 0.174446 0.012039 0.266143
v 0.174469 0.012039 0.266304
v 0.178554 0.012039 0.271485
v 0.174411 0.012039 0.26599
v 0.174446 0.012039 0.266143
v 0.178554 0.012039 0.271485
v 0.177187 0.012039 0.273058
v 0.178524 0.012039 0.271812
v 0.178545 0.012039 0.271665
v 0.17708 0.012039 0.273067
v 0.178385 0.012039 0.272224
v 0.17849 0.012039 0.271955
v 0.178524 0.012039 0.271812
v 0.178313 0.012039 0.27235
v 0.178228 0.012039 0.272471
v 0.178313 0.012039 0.27235
v 0.178524 0.012039 0.271812
v 0.177187 0.012039 0.273058
v 0.178385 0.012039 0.272224
v 0.178444 0.012039 0.272092
v 0.17849 0.012039 0.271955
v 0.177342 0.012039 0.273033
v 0.178181 0.012039 0.272529
v 0.178228 0.012039 0.272471
v 0.177187 0.012039 0.273058
v 0.17749 0.012039 0.272996
v 0.178114 0.012039 0.272604
v 0.178181 0.012039 0.272529
v 0.177342 0.012039 0.273033
v 0.17763 0.012039 0.272944
v 0.178004 0.012039 0.272709
v 0.178114 0.012039 0.272604
v 0.17749 0.012039 0.272996
v 0.177762 0.012039 0.27288
v 0.177887 0.012039 0.272801
v 0.178004 0.012039 0.272709
v 0.17763 0.012039 0.272944
v 0.174486 0.012039 0.271677
v 0.175889 0.012039 0.273062
v 0.176088 0.012039 0.27307
v 0.174478 0.012039 0.271485
v 0.174512 0.012039 0.271859
v 0.175702 0.012039 0.273035
v 0.175889 0.012039 0.273062
v 0.174486 0.012039 0.271677
v 0.174548 0.012039 0.272006
v 0.175551 0.012039 0.272999
v 0.175702 0.012039 0.273035
v 0.174512 0.012039 0.271859
v 0.174918 0.012039 0.272629
v 0.175407 0.012039 0.272951
v 0.175551 0.012039 0.272999
v 0.174548 0.012039 0.272006
v 0.175028 0.012039 0.272729
v 0.175273 0.012039 0.272889
v 0.175407 0.012039 0.272951
v 0.174918 0.012039 0.272629
v 0.175028 0.012039 0.272729
v 0.175146 0.012039 0.272815
v 0.175273 0.012039 0.272889
v 0.174548 0.012039 0.272006
v 0.174597 0.012039 0.272146
v 0.174819 0.012039 0.27252
v 0.174918 0.012039 0.272629
v 0.174597 0.012039 0.272146
v 0.174658 0.012039 0.272278
v 0.174732 0.012039 0.272403
v 0.174819 0.012039 0.27252
v 0.174409 0.012039 0.259741
v 0.174362 0.012039 0.25988
v 0.174361 0.012039 0.265846
v 0.174411 0.012039 0.26599
v 0.174362 0.012039 0.25988
v 0.174303 0.012039 0.260013
v 0.174299 0.012039 0.265709
v 0.174361 0.012039 0.265846
v 0.174303 0.012039 0.260013
v 0.174231 0.012039 0.260141
v 0.174236 0.012039 0.265602
v 0.174299 0.012039 0.265709
v 0.174231 0.012039 0.260141
v 0.174146 0.012039 0.260262
v 0.174165 0.012039 0.265501
v 0.174236 0.012039 0.265602
v 0.17405 0.012039 0.260376
v 0.174101 0.012039 0.265424
v 0.174165 0.012039 0.265501
v 0.174146 0.012039 0.260262
v 0.173961 0.012039 0.260464
v 0.174012 0.012039 0.265333
v 0.174101 0.012039 0.265424
v 0.17405 0.012039 0.260376
v 0.173867 0.012039 0.260543
v 0.173878 0.012039 0.265218
v 0.174012 0.012039 0.265333
v 0.173961 0.012039 0.260464
v 0.173766 0.012039 0.260614
v 0.173757 0.012039 0.265134
v 0.173878 0.012039 0.265218
v 0.173867 0.012039 0.260543
v 0.173766 0.012039 0.260614
v 0.17366 0.012039 0.260674
v 0.173631 0.012039 0.265062
v 0.173757 0.012039 0.265134
v 0.17366 0.012039 0.260674
v 0.173547 0.012039 0.260725
v 0.1735 0.012039 0.265002
v 0.173631 0.012039 0.265062
v 0.173547 0.012039 0.260725
v 0.173404 0.012039 0.260774
v 0.173362 0.012039 0.264956
v 0.1735 0.012039 0.265002
v 0.173404 0.012039 0.260774
v 0.173252 0.012039 0.26081
v 0.17322 0.012039 0.264922
v 0.173362 0.012039 0.264956
v 0.173252 0.012039 0.26081
v 0.173091 0.012039 0.260832
v 0.173072 0.012039 0.264901
v 0.17322 0.012039 0.264922
v 0.173091 0.012039 0.260832
v 0.172893 0.012039 0.260841
v 0.172893 0.012039 0.264892
v 0.173072 0.012039 0.264901
v 0.172893 0.012039 0.260841
v 0.163784 0.012039 0.260841
v 0.163784 0.012039 0.264892
v 0.172893 0.012039 0.264892
v 0.163573 0.012039 0.26083
v 0.163586 0.012039 0.264902
v 0.163784 0.012039 0.264892
v 0.163677 0.012039 0.260839
v 0.163784 0.012039 0.260841
v 0.163677 0.012039 0.260839
v 0.163784 0.012039 0.264892
v 0.163422 0.012039 0.260807
v 0.163425 0.012039 0.264925
v 0.163586 0.012039 0.264902
v 0.163573 0.012039 0.26083
v 0.163277 0.012039 0.260771
v 0.163273 0.012039 0.264962
v 0.163425 0.012039 0.264925
v 0.163422 0.012039 0.260807
v 0.163277 0.012039 0.260771
v 0.163139 0.012039 0.260722
v 0.16313 0.012039 0.265012
v 0.163273 0.012039 0.264962
v 0.163139 0.012039 0.260722
v 0.163007 0.012039 0.260661
v 0.163017 0.012039 0.265065
v 0.16313 0.012039 0.265012
v 0.163007 0.012039 0.260661
v 0.162911 0.012039 0.265127
v 0.163017 0.012039 0.265065
v 0.163007 0.012039 0.260661
v 0.162882 0.012039 0.260587
v 0.16281 0.012039 0.265198
v 0.162911 0.012039 0.265127
v 0.162882 0.012039 0.260587
v 0.162764 0.012039 0.2605
v 0.162715 0.012039 0.26528
v 0.16281 0.012039 0.265198
v 0.162764 0.012039 0.2605
v 0.162652 0.012039 0.260401
v 0.162627 0.012039 0.26537
v 0.162715 0.012039 0.26528
v 0.162652 0.012039 0.260401
v 0.16255 0.012039 0.260291
v 0.162515 0.012039 0.265508
v 0.162627 0.012039 0.26537
v 0.16255 0.012039 0.260291
v 0.162461 0.012039 0.260173
v 0.162433 0.012039 0.265631
v 0.162515 0.012039 0.265508
v 0.162461 0.012039 0.260173
v 0.162385 0.012039 0.260047
v 0.162363 0.012039 0.265759
v 0.162433 0.012039 0.265631
v 0.162385 0.012039 0.260047
v 0.162322 0.012039 0.259912
v 0.162306 0.012039 0.265893
v 0.162363 0.012039 0.265759
v 0.162322 0.012039 0.259912
v 0.162272 0.012039 0.259768
v 0.162261 0.012039 0.266031
v 0.162306 0.012039 0.265893
v 0.158123 0.012039 0.271485
v 0.162228 0.012039 0.266174
v 0.162261 0.012039 0.266031
v 0.158123 0.012039 0.254224
v 0.158123 0.012039 0.271485
v 0.162261 0.012039 0.266031
v 0.162272 0.012039 0.259768
v 0.158123 0.012039 0.271485
v 0.162207 0.012039 0.266323
v 0.162228 0.012039 0.266174
v 0.158123 0.012039 0.271485
v 0.162199 0.012039 0.266503
v 0.162207 0.012039 0.266323
v 0.160589 0.012039 0.27307
v 0.162199 0.012039 0.271485
v 0.162199 0.012039 0.266503
v 0.158123 0.012039 0.271485
v 0.160589 0.012039 0.27307
v 0.160787 0.012039 0.273062
v 0.16219 0.012039 0.271683
v 0.162199 0.012039 0.271485
v 0.160787 0.012039 0.273062
v 0.160975 0.012039 0.273037
v 0.162165 0.012039 0.27187
v 0.16219 0.012039 0.271683
v 0.160975 0.012039 0.273037
v 0.161126 0.012039 0.273001
v 0.162129 0.012039 0.27202
v 0.162165 0.012039 0.27187
v 0.161759 0.012039 0.272642
v 0.16208 0.012039 0.272162
v 0.162129 0.012039 0.27202
v 0.161649 0.012039 0.272738
v 0.161404 0.012039 0.272895
v 0.161531 0.012039 0.272823
v 0.161649 0.012039 0.272738
v 0.162129 0.012039 0.27202
v 0.161126 0.012039 0.273001
v 0.161269 0.012039 0.272954
v 0.161404 0.012039 0.272895
v 0.162129 0.012039 0.27202
v 0.161826 0.012039 0.272572
v 0.162019 0.012039 0.272295
v 0.16208 0.012039 0.272162
v 0.161759 0.012039 0.272642
v 0.161826 0.012039 0.272572
v 0.161888 0.012039 0.272498
v 0.161958 0.012039 0.272399
v 0.162019 0.012039 0.272295
v 0.158131 0.012039 0.271677
v 0.159708 0.012039 0.27307
v 0.160589 0.012039 0.27307
v 0.158123 0.012039 0.271485
v 0.158156 0.012039 0.271859
v 0.15951 0.012039 0.273062
v 0.159708 0.012039 0.27307
v 0.158131 0.012039 0.271677
v 0.158191 0.012039 0.272006
v 0.159323 0.012039 0.273035
v 0.15951 0.012039 0.273062
v 0.158156 0.012039 0.271859
v 0.158239 0.012039 0.272146
v 0.159173 0.012039 0.272999
v 0.159323 0.012039 0.273035
v 0.158191 0.012039 0.272006
v 0.15837 0.012039 0.272403
v 0.158454 0.012039 0.27252
v 0.159031 0.012039 0.272951
v 0.159173 0.012039 0.272999
v 0.158239 0.012039 0.272146
v 0.158298 0.012039 0.272278
v 0.15837 0.012039 0.272403
v 0.159173 0.012039 0.272999
v 0.158454 0.012039 0.27252
v 0.158551 0.012039 0.272629
v 0.158898 0.012039 0.272889
v 0.159031 0.012039 0.272951
v 0.158695 0.012039 0.272759
v 0.158793 0.012039 0.272829
v 0.158898 0.012039 0.272889
v 0.158551 0.012039 0.272629
v 0.158621 0.012039 0.272698
v 0.158695 0.012039 0.272759
v 0.158898 0.012039 0.272889
v 0.159708 0.012039 0.252639
v 0.159597 0.012039 0.252642
v 0.158132 0.012039 0.254045
v 0.158123 0.012039 0.254224
v 0.162627 0.012039 0.257194
v 0.162715 0.012039 0.257102
v 0.159708 0.012039 0.252639
v 0.158123 0.012039 0.254224
v 0.162515 0.012039 0.25733
v 0.162627 0.012039 0.257194
v 0.158123 0.012039 0.254224
v 0.162421 0.012039 0.257473
v 0.162515 0.012039 0.25733
v 0.158123 0.012039 0.254224
v 0.162353 0.012039 0.2576
v 0.162421 0.012039 0.257473
v 0.158123 0.012039 0.254224
v 0.162298 0.012039 0.257731
v 0.162353 0.012039 0.2576
v 0.158123 0.012039 0.254224
v 0.162254 0.012039 0.257867
v 0.162298 0.012039 0.257731
v 0.158123 0.012039 0.254224
v 0.162224 0.012039 0.258007
v 0.162254 0.012039 0.257867
v 0.158123 0.012039 0.254224
v 0.162205 0.012039 0.258152
v 0.162224 0.012039 0.258007
v 0.158123 0.012039 0.254224
v 0.162199 0.012039 0.258301
v 0.162205 0.012039 0.258152
v 0.158123 0.012039 0.254224
v 0.162199 0.012039 0.259232
v 0.162199 0.012039 0.258301
v 0.158123 0.012039 0.254224
v 0.162208 0.012039 0.25943
v 0.162199 0.012039 0.259232
v 0.158123 0.012039 0.254224
v 0.162235 0.012039 0.259617
v 0.162208 0.012039 0.25943
v 0.158123 0.012039 0.254224
v 0.162272 0.012039 0.259768
v 0.162235 0.012039 0.259617
v 0.158123 0.012039 0.254224
v 0.159489 0.012039 0.252651
v 0.158153 0.012039 0.253897
v 0.158132 0.012039 0.254045
v 0.159597 0.012039 0.252642
v 0.158292 0.012039 0.253486
v 0.158187 0.012039 0.253754
v 0.158153 0.012039 0.253897
v 0.158364 0.012039 0.253359
v 0.158449 0.012039 0.253238
v 0.158364 0.012039 0.253359
v 0.158153 0.012039 0.253897
v 0.159489 0.012039 0.252651
v 0.158292 0.012039 0.253486
v 0.158233 0.012039 0.253617
v 0.158187 0.012039 0.253754
v 0.159334 0.012039 0.252676
v 0.158496 0.012039 0.25318
v 0.158449 0.012039 0.253238
v 0.159489 0.012039 0.252651
v 0.159187 0.012039 0.252714
v 0.158563 0.012039 0.253105
v 0.158496 0.012039 0.25318
v 0.159334 0.012039 0.252676
v 0.159047 0.012039 0.252765
v 0.158673 0.012039 0.253
v 0.158563 0.012039 0.253105
v 0.159187 0.012039 0.252714
v 0.158915 0.012039 0.252829
v 0.15879 0.012039 0.252908
v 0.158673 0.012039 0.253
v 0.159047 0.012039 0.252765
v 0.163784 0.012039 0.256715
v 0.172893 0.012039 0.256715
v 0.176969 0.012039 0.252639
v 0.159708 0.012039 0.252639
v 0.163586 0.012039 0.256725
v 0.163784 0.012039 0.256715
v 0.159708 0.012039 0.252639
v 0.163425 0.012039 0.256748
v 0.163586 0.012039 0.256725
v 0.159708 0.012039 0.252639
v 0.163273 0.012039 0.256784
v 0.163425 0.012039 0.256748
v 0.159708 0.012039 0.252639
v 0.16313 0.012039 0.256835
v 0.163273 0.012039 0.256784
v 0.159708 0.012039 0.252639
v 0.163017 0.012039 0.256887
v 0.16313 0.012039 0.256835
v 0.159708 0.012039 0.252639
v 0.162911 0.012039 0.25695
v 0.163017 0.012039 0.256887
v 0.159708 0.012039 0.252639
v 0.16281 0.012039 0.257021
v 0.162911 0.012039 0.25695
v 0.159708 0.012039 0.252639
v 0.162715 0.012039 0.257102
v 0.16281 0.012039 0.257021
v 0.159708 0.012039 0.252639
v 0.173878 0.012039 0.257032
v 0.174012 0.012039 0.257143
v 0.176969 0.012039 0.252639
v 0.173757 0.012039 0.25695
v 0.173878 0.012039 0.257032
v 0.176969 0.012039 0.252639
v 0.173631 0.012039 0.25688
v 0.173757 0.012039 0.25695
v 0.176969 0.012039 0.252639
v 0.1735 0.012039 0.256822
v 0.173631 0.012039 0.25688
v 0.176969 0.012039 0.252639
v 0.173362 0.012039 0.256777
v 0.1735 0.012039 0.256822
v 0.176969 0.012039 0.252639
v 0.17322 0.012039 0.256744
v 0.173362 0.012039 0.256777
v 0.176969 0.012039 0.252639
v 0.173072 0.012039 0.256723
v 0.17322 0.012039 0.256744
v 0.176969 0.012039 0.252639
v 0.172893 0.012039 0.256715
v 0.173072 0.012039 0.256723
v 0.176969 0.012039 0.252639
v 0.17855 0.012039 0.254081
v 0.17854 0.012039 0.253971
v 0.177379 0.012039 0.252678
v 0.177194 0.012039 0.25265
v 0.17854 0.012039 0.253971
v 0.17851 0.012039 0.253788
v 0.177528 0.012039 0.252715
v 0.177379 0.012039 0.252678
v 0.17851 0.012039 0.253788
v 0.178471 0.012039 0.253641
v 0.177669 0.012039 0.252764
v 0.177528 0.012039 0.252715
v 0.178471 0.012039 0.253641
v 0.17842 0.012039 0.253502
v 0.1778 0.012039 0.252825
v 0.177669 0.012039 0.252764
v 0.178126 0.012039 0.253067
v 0.178019 0.012039 0.25297
v 0.177923 0.012039 0.252899
v 0.1778 0.012039 0.252825
v 0.178356 0.012039 0.253372
v 0.178126 0.012039 0.253067
v 0.1778 0.012039 0.252825
v 0.17842 0.012039 0.253502
v 0.178294 0.012039 0.253269
v 0.178223 0.012039 0.253174
v 0.178126 0.012039 0.253067
v 0.178356 0.012039 0.253372
v 0.182135 0.012039 0.252643
v 0.182025 0.012039 0.252653
v 0.181842 0.012039 0.252683
v 0.181694 0.012039 0.252722
v 0.181555 0.012039 0.252773
v 0.181425 0.012039 0.252837
v 0.181323 0.012039 0.252899
v 0.181227 0.012039 0.25297
v 0.18112 0.012039 0.253067
v 0.181024 0.012039 0.253174
v 0.180953 0.012039 0.253269
v 0.180879 0.012039 0.253392
v 0.180817 0.012039 0.253524
v 0.180768 0.012039 0.253664
v 0.180731 0.012039 0.253814
v 0.180703 0.012039 0.253998
v 0.180693 0.012039 0.254224
v 0.180693 0.012039 0.271485
v 0.180701 0.012039 0.271677
v 0.180726 0.012039 0.271859
v 0.180761 0.012039 0.272006
v 0.180808 0.012039 0.272146
v 0.180868 0.012039 0.272278
v 0.18094 0.012039 0.272403
v 0.181024 0.012039 0.27252
v 0.18112 0.012039 0.272629
v 0.181191 0.012039 0.272698
v 0.181265 0.012039 0.272759
v 0.181363 0.012039 0.272829
v 0.181467 0.012039 0.272889
v 0.181601 0.012039 0.272951
v 0.181742 0.012039 0.272999
v 0.181893 0.012039 0.273035
v 0.182079 0.012039 0.273062
v 0.182278 0.012039 0.27307
v 0.199538 0.012039 0.27307
v 0.19973 0.012039 0.273062
v 0.199912 0.012039 0.273037
v 0.20006 0.012039 0.273001
v 0.2002 0.012039 0.272954
v 0.200332 0.012039 0.272895
v 0.200457 0.012039 0.272823
v 0.200574 0.012039 0.272738
v 0.200683 0.012039 0.272642
v 0.200751 0.012039 0.272572
v 0.200813 0.012039 0.272498
v 0.200882 0.012039 0.272399
v 0.200943 0.012039 0.272295
v 0.201004 0.012039 0.272162
v 0.201053 0.012039 0.27202
v 0.201089 0.012039 0.27187
v 0.201115 0.012039 0.271683
v 0.201123 0.012039 0.271485
v 0.201123 0.012039 0.270604
v 0.201115 0.012039 0.270406
v 0.20109 0.012039 0.270218
v 0.201055 0.012039 0.270066
v 0.201008 0.012039 0.269924
v 0.200948 0.012039 0.269789
v 0.200876 0.012039 0.269662
v 0.200792 0.012039 0.269544
v 0.200696 0.012039 0.269434
v 0.200625 0.012039 0.269367
v 0.200551 0.012039 0.269305
v 0.200453 0.012039 0.269235
v 0.200349 0.012039 0.269174
v 0.200216 0.012039 0.269113
v 0.200074 0.012039 0.269064
v 0.199923 0.012039 0.269029
v 0.199737 0.012039 0.269002
v 0.199538 0.012039 0.268994
v 0.186354 0.012039 0.268994
v 0.186168 0.012039 0.268986
v 0.185991 0.012039 0.268961
v 0.185847 0.012039 0.268925
v 0.185709 0.012039 0.268878
v 0.185577 0.012039 0.268818
v 0.185452 0.012039 0.268747
v 0.185333 0.012039 0.268663
v 0.185222 0.012039 0.268566
v 0.185136 0.012039 0.268477
v 0.185073 0.012039 0.268402
v 0.185003 0.012039 0.268303
v 0.184943 0.012039 0.268198
v 0.184891 0.012039 0.268086
v 0.184841 0.012039 0.267944
v 0.184804 0.012039 0.267794
v 0.184778 0.012039 0.267607
v 0.184769 0.012039 0.267408
v 0.184769 0.012039 0.254224
v 0.18476 0.012039 0.254032
v 0.184734 0.012039 0.25385
v 0.184698 0.012039 0.253703
v 0.18465 0.012039 0.253563
v 0.184588 0.012039 0.25343
v 0.184514 0.012039 0.253306
v 0.184428 0.012039 0.253189
v 0.184328 0.012039 0.25308
v 0.184218 0.012039 0.25298
v 0.1841 0.012039 0.252894
v 0.183974 0.012039 0.25282
v 0.183839 0.012039 0.252758
v 0.183696 0.012039 0.25271
v 0.183544 0.012039 0.252674
v 0.183357 0.012039 0.252647
v 0.183158 0.012039 0.252639
v 0.182278 0.012039 0.252639
vn -0 1 -0
vn -0 1 -0
vn -0 1 -0
vn -0 1 -0
vn -0 1 -0
vn -0 1 -0
vn -0 1 -0
vn -0 1 -0
vn -0 1 -0
vn -0 1 -0
vn -0 1 -0
vn -0 1 -0
vn -0 1 -0
vn -0 1 -0
vn -0 1 -0
vn -0 1 -0
vn -0 1 -0
vn -0 1 -0
vn -0 1 -0
vn -0 1 -0
vn -0 1 -0
vn -0 1 -0
vn -0 1 -0
vn -0 1 -0
vn -0 1 -0
vn -0 1 -0
vn -0 1 -0
vn -0 1 -0
vn -0 1 -0
vn -0 1 -0
vn -0 1 -0
vn -0 1 -0
vn -0 1 -0
vn -0 1 -0
vn -0 1 -0
vn -0 1 -0
vn -0 1 -0
vn -0 1 -0
vn -0 1 -0
vn -0 1 -0
vn -0 1 -0
vn -0 1 -0
vn -0 1 -0
vn -0 1 -0
vn -0 1 -0
vn -0 1 -0
vn -0 1 -0
vn -0 1 -0
vn -0 1 -0
vn -0 1 -0
vn -0 1 -0
vn -0 1 -0
vn -0 1 -0
vn -0 1 -0
vn -0 1 -0
vn -0 1 -0
vn -0 1 -0
vn -0 1 -0
vn -0 1 -0
vn -0 1 -0
vn -0 1 -0
vn -0 1 -0
vn -0 1 -0
vn -0 1 -0
vn -0 1 -0
vn -0 1 -0
vn -0 1 -0
vn -0 1 -0
vn -0 1 -0
vn -0 1 -0
vn -0 1 -0
vn -0 1 -0
vn -0 1 -0
vn -0 1 -0
vn -0 1 -0
vn -0 1 -0
vn -0 1 -0
vn -0 1 -0
vn -0 1 -0
vn -0 1 -0
vn -0 1 -0
vn -0 1 -0
vn -0 1 -0
vn -0 1 -0
vn -0 1 -0
vn -0 1 -0
vn -0 1 -0
vn -0 1 -0
vn -0 1 -0
vn -0 1 -0
vn -0 1 -0
vn -0 1 -0
vn -0 1 -0
vn -0 1 -0
vn -0 1 -0
vn -0 1 -0
vn -0 1 -0
vn -0 1 -0
vn -0 1 -0
vn -0 1 -0
vn -0 1 -0
vn -0 1 -0
vn -0 1 -0
vn -0 1 -0
vn -0 1 -0
vn -0 1 -0
vn -0 1 -0
vn -0 1 -0
vn -0 1 -0
vn -0 1 -0
vn -0 1 -0
vn -0 1 -0
vn -0 1 -0
vn -0 1 -0
vn -0 1 -0
vn -0 1 -0
vn -0 1 -0
vn -0 1 -0
vn -0 1 -0
vn -0 1 -0
vn -0 1 -0
vn -0 1 -0
vn -0 1 -0
vn -0 1 -0
vn -0 1 -0
vn -0 1 -0
vn -0 1 -0
vn -0 1 -0
vn -0 1 -0
vn -0 1 -0
vn -0 1 -0
vn -0 1 -0
vn -0 1 -0
vn -0 1 -0
vn -0 1 -0
vn -0 1 -0
vn -0 1 -0
vn -0 1 -0
vn -0 1 -0
vn -0 1 -0
vn -0 1 -0
vn -0 1 -0
vn -0 1 -0
vn -0 1 -0
vn -0 1 -0
vn -0 1 -0
vn -0 1 -0
vn -0 1 -0
vn -0 1 -0
vn -0 1 -0
vn -0 1 -0
vn -0 1 -0
vn -0 1 -0
vn -0 1 -0
vn -0 1 -0
vn -0 1 -0
vn -0 1 -0
vn -0 1 -0
vn -0 1 -0
vn -0 1 -0
vn -0 1 -0
vn -0 1 -0
vn -0 1 -0
vn -0 1 -0
vn -0 1 -0
vn -0 1 -0
vn -0 1 -0
vn -0 1 -0
vn -0 1 -0
vn -0 1 -0
vn -0 1 -0
vn -0 1 -0
vn -0 1 -0
vn -0 1 -0
vn -0 1 -0
vn -0 1 -0
vn -0 1 -0
vn -0 1 -0
vn -0 1 -0
vn -0 1 -0
vn -0 1 -0
vn -0 1 -0
vn -0 1 -0
vn -0 1 -0
vn -0 1 -0
vn -0 1 -0
vn -0 1 -0
vn -0 1 -0
vn -0 1 -0
vn -0 1 -0
vn -0 1 -0
vn -0 1 -0
vn -0 1 -0
vn -0 1 -0
vn -0 1 -0
vn -0 1 -0
vn -0 1 -0
vn -0 1 -0
vn -0 1 -0
vn -0 1 -0
vn -0 1 -0
vn -0 1 -0
vn -0 1 -0
vn -0 1 -0
vn -0 1 -0
vn -0 1 -0
vn -0 1 -0
vn -0 1 -0
vn -0 1 -0
vn -0 1 -0
vn -0 1 -0
vn -0 1 -0
vn -0 1 -0
vn -0 1 -0
vn -0 1 -0
vn -0 1 -0
vn -0 1 -0
vn -0 1 -0
vn -0 1 -0
vn -0 1 -0
vn -0 1 -0
vn -0 1 -0
vn -0 1 -0
vn -0 1 -0
vn -0 1 -0
vn -0 1 -0
vn -0 1 -0
vn -0 1 -0
vn -0 1 -0
vn -0 1 -0
vn -0 1 -0
vn -0 1 -0
vn -0 1 -0
vn -0 1 -0
vn -0 1 -0
vn -0 1 -0
vn -0 1 -0
vn -0 1 -0
vn -0 1 -0
vn -0 1 -0
vn -0 1 -0
vn -0 1 -0
vn -0 1 -0
vn -0 1 -0
vn -0 1 -0
vn -0 1 -0
vn -0 1 -0
vn -0 1 -0
vn -0 1 -0
vn -0 1 -0
vn -0 1 -0
vn -0 1 -0
vn -0 1 -0
vn -0 1 -0
vn -0 1 -0
vn -0 1 -0
vn -0 1 -0
vn -0 1 -0
vn -0 1 -0
vn -0 1 -0
vn -0 1 -0
vn -0 1 -0
vn -0 1 -0
vn -0 1 -0
vn -0 1 -0
vn -0 1 -0
vn -0 1 -0
vn -0 1 -0
vn -0 1 -0
vn -0 1 -0
vn -0 1 -0
vn -0 1 -0
vn -0 1 -0
vn -0 1 -0
vn -0 1 -0
vn -0 1 -0
vn -0 1 -0
vn -0 1 -0
vn -0 1 -0
vn -0 1 -0
vn -0 1 -0
vn -0 1 -0
vn -0 1 -0
vn -0 1 -0
vn -0 1 -0
vn -0 1 -0
vn -0 1 -0
vn -0 1 -0
vn -0 1 -0
vn -0 1 -0
vn -0 1 -0
vn -0 1 -0
vn -0 1 -0
vn -0 1 -0
vn -0 1 -0
vn -0 1 -0
vn -0 1 -0
vn -0 1 -0
vn -0 1 -0
vn -0 1 -0
vn -0 1 -0
vn -0 1 -0
vn -0 1 -0
vn -0 1 -0
vn -0 1 -0
vn -0 1 -0
vn -0 1 -0
vn -0 1 -0
vn -0 1 -0
vn -0 1 -0
vn -0 1 -0
vn -0 1 -0
vn -0 1 -0
vn -0 1 -0
vn -0 1 -0
vn -0 1 -0
vn -0 1 -0
vn -0 1 -0
vn -0 1 -0
vn -0 1 -0
vn -0 1 -0
vn -0 1 -0
vn -0 1 -0
vn -0 1 -0
vn -0 1 -0
vn -0 1 -0
vn -0 1 -0
vn -0 1 -0
vn -0 1 -0
vn -0 1 -0
vn -0 1 -0
vn -0 1 -0
vn -0 1 -0
vn -0 1 -0
vn -0 1 -0
vn -0 1 -0
vn -0 1 -0
vn -0 1 -0
vn -0 1 -0
vn -0 1 -0
vn -0 1 -0
vn -0 1 -0
vn -0 1 -0
vn -0 1 -0
vn -0 1 -0
vn -0 1 -0
vn -0 1 -0
vn -0 1 -0
vn -0 1 -0
vn -0 1 -0
vn -0 1 -0
vn -0 1 -0
vn -0 1 -0
vn -0 1 -0
vn -0 1 -0
vn -0 1 -0
vn -0 1 -0
vn -0 1 -0
vn -0 1 -0
vn -0 1 -0
vn -0 1 -0
vn -0 1 -0
vn -0 1 -0
vn -0 1 -0
vn -0 1 -0
vn -0 1 -0
vn -0 1 -0
vn -0 1 -0
vn -0 1 -0
vn -0 1 -0
vn -0 1 -0
vn -0 1 -0
vn -0 1 -0
vn -0 1 -0
vn -0 1 -0
vn -0 1 -0
vn -0 1 -0
vn -0 1 -0
vn -0 1 -0
vn -0 1 -0
vn -0 1 -0
vn -0 1 -0
vn -0 1 -0
vn -0 1 -0
vn -0 1 -0
vn -0 1 -0
vn -0 1 -0
vn -0 1 -0
vn -0 1 -0
vn -0 1 -0
vn -0 1 -0
vn -0 1 -0
vn -0 1 -0
vn -0 1 -0
vn -0 1 -0
vn -0 1 -0
vn -0 1 -0
vn -0 1 -0
vn -0 1 -0
vn -0 1 -0
vn -0 1 -0
vn -0 1 -0
vn -0 1 -0
vn -0 1 -0
vn -0 1 -0
vn -0 1 -0
vn -0 1 -0
vn -0 1 -0
vn -0 1 -0
vn -0 1 -0
vn -0 1 -0
vn -0 1 -0
vn -0 1 -0
vn -0 1 -0
vn -0 1 -0
vn -0 1 -0
vn -0 1 -0
vn -0 1 -0
vn -0 1 -0
vn -0 1 -0
vn -0 1 -0
vn -0 1 -0
vn -0 1 -0
vn -0 1 -0
vn -0 1 -0
vn -0 1 -0
vn -0 1 -0
vn -0 1 -0
vn -0 1 -0
vn -0 1 -0
vn -0 1 -0
vn -0 1 -0
vn -0 1 -0
vn -0 1 -0
vn -0 1 -0
vn -0 1 -0
vn -0 1 -0
vn -0 1 -0
vn -0 1 -0
vn -0 1 -0
vn -0 1 -0
vn -0 1 -0
vn -0 1 -0
vn -0 1 -0
vn -0 1 -0
vn -0 1 -0
vn -0 1 -0
vn -0 1 -0
vn -0 1 -0
vn -0 1 -0
vn -0 1 -0
vn -0 1 -0
vn -0 1 -0
vn -0 1 -0
vn -0 1 -0
vn -0 1 -0
vn -0 1 -0
vn -0 1 -0
vn -0 1 -0
vn -0 1 -0
vn -0 1 -0
vn -0 1 -0
vn -0 1 -0
vn -0 1 -0
vn -0 1 -0
vn -0 1 -0
vn -0 1 -0
vn -0 1 -0
vn -0 1 -0
vn -0 1 -0
vn -0 1 -0
vn -0 1 -0
vn -0 1 -0
vn -0 1 -0
vn -0 1 -0
vn -0 1 -0
vn -0 1 -0
vn -0 1 -0
vn -0 1 -0
vn -0 1 -0
vn -0 1 -0
vn -0 1 -0
vn -0 1 -0
vn -0 1 -0
vn -0 1 -0
vn -0 1 -0
vn -0 1 -0
vn -0 1 -0
vn -0 1 -0
vn -0 1 -0
vn -0 1 -0
vn -0 1 -0
vn -0 1 -0
vn -0 1 -0
vn -0 1 -0
vn -0 1 -0
vn -0 1 -0
vn -0 1 -0
vn -0 1 -0
vn -0 1 -0
vn -0 1 -0
vn -0 1 -0
vn -0 1 -0
vn -0 1 -0
vn -0 1 -0
vn -0 1 -0
vn -0 1 -0
vn -0 1 -0
vn -0 1 -0
vn -0 1 -0
vn -0 1 -0
vn -0 1 -0
vn -0 1 -0
vn -0 1 -0
vn -0 1 -0
vn -0 1 -0
vn -0 1 -0
vn -0 1 -0
vn -0 1 -0
vn -0 1 -0
vn -0 1 -0
vn -0 1 -0
vn -0 1 -0
vn -0 1 -0
vn -0 1 -0
vn -0 1 -0
vn -0 1 -0
vn -0 1 -0
vn -0 1 -0
vn -0 1 -0
vn -0 1 -0
vn -0 1 -0
vn -0 1 -0
vn -0 1 -0
vn -0 1 -0
vn -0 1 -0
vn -0 1 -0
vn -0 1 -0
vn -0 1 -0
vn -0 1 -0
vn -0 1 -0
vn -0 1 -0
vn -0 1 -0
vn -0 1 -0
vn -0 1 -0
vn -0 1 -0
vn -0 1 -0
vn -0 1 -0
vn -0 1 -0
vn -0 1 -0
vn -0 1 -0
vn -0 1 -0
vn -0 1 -0
vn -0 1 -0
vn -0 1 -0
vn -0 1 -0
vn -0 1 -0
vn -0 1 -0
vn -0 1 -0
vn -0 1 -0
vn -0 1 -0
vn -0 1 -0
vn -0 1 -0
vn -0 1 -0.0001
vn -0 1 -0.0001
vn -0 1 -0
vn -0 1 -0
vn -0 1 -0
vn -0 1 -0
vn -0 1 -0
vn -0 1 -0
vn -0 1 -0
vn -0 1 -0
vn -0 1 -0
vn -0 1 -0
vn -0 1 -0
vn -0 1 -0
vn -0 1 -0
vn -0 1 -0
vn -0 1 -0
vn -0 1 -0
vn -0 1 -0
vn -0 1 -0
vn -0 1 -0
vn -0 1 -0
vn -0 1 -0
vn -0 1 -0
vn -0 1 -0
vn -0 1 -0.001
vn -0 1 -0
vn -0 1 -0
vn -0 1 -0
vn -0 1 -0
vn -0 1 -0
vn -0 1 -0
vn -0 1 -0
vn -0 1 -0
vn -0 1 -0
vn -0 1 -0
vn -0 1 -0
vn -0 1 -0
vn -0 1 -0
vn -0 1 -0
vn -0 1 -0
vn -0 1 -0
vn -0 1 -0
vn -0 1 -0
vn -0 1 -0
vn -0 1 -0
vn -0 1 -0
vn -0 1 -0
vn -0 1 -0
vn -0 1 -0
vn -0 1 -0
vn -0 1 -0
vn -0 1 -0
vn -0 1 -0
vn -0 1 -0
vn -0 1 -0
vn -0 1 -0
vn -0 1 -0
vn -0 1 -0
vn -0 1 -0
vn -0 1 -0
vn -0 1 -0
vn -0 1 -0
vn -0 1 -0
vn -0 1 -0
vn -0 1 -0
vn -0 1 -0
vn -0 1 -0
vn -0 1 -0
vn -0 1 -0
vn -0 1 -0
vn -0 1 -0
vn -0 1 -0
vn -0 1 -0
vn -0 1 -0
vn -0 1 -0
vn -0 1 -0
vn -0 1 -0
vn -0 1 -0
vn -0 1 -0
vn -0 1 -0
vn -0 1 -0
vn -0 1 -0
vn -0 1 -0
vn -0 1 -0
vn -0 1 -0
vn -0 1 -0
vn -0 1 -0
vn -0 1 -0
vn -0 1 -0
vn -0 1 -0
vn -0 1 -0
vn -0 1 -0
vn -0 1 -0
vn -0 1 -0
vn -0 1 -0
vn -0 1 -0
vn -0 1 -0
vn -0 1 -0
vn -0 1 -0
vn -0 1 -0
vn -0 1 -0
vn -0 1 -0
vn -0 1 -0
vn -0 1 -0
vn -0 1 -0
vn -0 1 -0
vn -0 1 -0
vn -0 1 -0
vn -0 1 -0
vn -0 1 -0
vn -0 1 -0
vn -0 1 -0
vn -0 1 -0
vn -0 1 -0
vn -0 1 -0
vn -0 1 -0
vn -0 1 -0
vn -0 1 -0
vn -0 1 -0
vn -0 1 -0
vn -0 1 -0
vn -0 1 -0
vn -0 1 -0
vn -0 1 -0
vn -0 1 -0
vn -0 1 -0
vn -0 1 -0
vn -0 1 -0
vn -0 1 -0
vn -0 1 -0
vn -0 1 -0
vn -0 1 -0
vn -0 1 -0
vn -0 1 -0
vn -0 1 -0
vn -0 1 -0
vn -0 1 -0
vn -0 1 -0
vn -0 1 -0
vn -0 1 -0
vn -0 1 -0
vn -0 1 -0
vn -0 1 -0
vn -0 1 -0
vn -0 1 -0
vn -0 1 -0
vn -0 1 -0
vn -0 1 -0
vn -0 1 -0
vn -0 1 -0
vn -0 1 -0
vn -0 1 -0
vn -0 1 -0
vn -0 1 -0
vn -0 1 -0
vn -0 1 -0
vn -0 1 -0
vn -0 1 -0
vn -0 1 -0
vn -0 1 -0
vn -0 1 -0
vn -0 1 -0
vn -0 1 -0
vn -0 1 -0
vn -0 1 -0
vn -0 1 -0
vn -0 1 -0
vn -0 1 -0
vn -0 1 -0
vn -0 1 -0
vn -0 1 -0
vn -0 1 -0
vn -0 1 -0
vn -0 1 -0
vn -0 1 -0
vn -0 1 -0
vn -0 1 -0
vn -0 1 -0
vn -0 1 -0
vn -0 1 -0
vn -0 1 -0
vn -0 1 -0
vn -0 1 -0
vn -0 1 -0
vn -0 1 -0
vn -0 1 -0
vn -0 1 -0
vn -0 1 -0
vn -0 1 -0
vn -0 1 -0
vn -0 1 -0
vn -0 1 -0
vn -0 1 -0
vn -0 1 -0
vn -0 1 -0
vn -0 1 -0
vn -0 1 -0
vn -0 1 -0
vn -0 1 -0.0001
vn -0 1 -0.0001
vn -0 1 -0
vn -0 1 -0
vn -0 1 -0
vn -0 1 -0
vn -0 1 -0
vn -0 1 -0
vn -0 1 -0
vn -0 1 -0
vn -0 1 -0
vn -0 1 -0
vn -0 1 -0
vn -0 1 -0
vn -0 1 -0
vn -0 1 -0
vn -0 1 -0
vn -0 1 -0
vn -0 1 -0
vn -0 1 -0
vn -0 1 -0
vn -0 1 -0
vn -0 1 -0
vn -0 1 -0
vn -0 1 -0
vn -0 1 -0
vn -0 1 -0
vn -0 1 -0
vn -0 1 -0
vn -0 1 -0
vn -0 1 -0
vn -0 1 -0
vn -0 1 0.0015
vn -0 1 -0
vn -0 1 -0
vn -0 1 0.0001
vn -0 1 -0
vn -0 1 -0
vn -0 1 -0
vn -0 1 -0
vn -0 1 -0
vn -0 1 -0
vn -0 1 -0
vn -0 1 -0
vn -0 1 -0
vn -0 1 -0
vn -0 1 -0
vn -0 1 -0
vn -0 1 -0
vn -0 1 -0
vn -0 1 -0
vn -0 1 -0
vn -0 1 -0
vn -0 1 -0
vn -0 1 -0
vn -0 1 -0
vn -0 1 -0
vn -0 1 -0
vn -0 1 -0
vn -0 1 -0
vn -0 1 -0
vn -0 1 -0
vn -0 1 -0
vn -0 1 -0
vn -0 1 -0
vn -0 1 -0
vn -0 1 -0
vn -0 1 -0
vn -0 1 -0
vn -0 1 -0
vn -0 1 -0
vn -0 1 -0
vn -0 1 -0
vn -0 1 -0
vn -0 1 -0
vn -0 1 -0
vn -0 1 -0
vn -0 1 -0
vn -0 1 -0
vn -0 1 -0
vn -0 1 -0
vn -0 1 -0
vn -0 1 -0
vn -0 1 -0
vn -0 1 -0
vn -0 1 -0
vn -0 1 -0
vn -0 1 -0
vn -0 1 -0
vn -0 1 -0
vn -0 1 -0
vn -0 1 -0
vn -0 1 -0
vn -0 1 -0
vn -0 1 -0
vn -0 1 -0
vn -0 1 -0
vn -0 1 -0
vn -0 1 -0
vn -0 1 -0
vn -0 1 -0
vn -0 1 -0
vn -0 1 -0
vn -0 1 -0
vn -0 1 -0
vn -0 1 -0
vn -0 1 -0
vn -0 1 -0
vn -0 1 -0
vn -0 1 0.0008
vn -0 1 0.0008
vn -0 1 -0
vn -0 1 -0
vn -0 1 -0
vn -0 1 -0
vn -0 1 -0
vn -0 1 -0
vn -0 1 -0
vn -0 1 -0
vn -0 1 -0
vn -0 1 -0
vn -0 1 -0
vn -0 1 -0
vn -0 1 -0
vn -0 1 -0
vn -0 1 -0
vn -0 1 -0
vn -0 1 -0
vn -0 1 -0
vn -0 1 -0
vn -0 1 -0
vn -0 1 -0
vn -0 1 -0
vn -0 1 -0
vn -0 1 -0
vn -0 1 -0
vn -0 1 -0
vn -0 1 -0
vn -0 1 -0
vn -0 1 -0
vn -0 1 -0
vn -0 1 -0
vn -0 1 -0
vn -0 1 -0
vn -0 1 -0
vn -0 1 -0
vn -0 1 -0
vn -0 1 -0
vn -0 1 -0
vn -0 1 -0
vn -0 1 -0
vn -0 1 -0
vn -0 1 -0
vn -0 1 -0
vn -0 1 -0
vn -0 1 -0
vn -0 1 -0
vn -0 1 -0
vn -0 1 -0
vn -0 1 -0
vn -0 1 -0
vn -0 1 -0
vn -0 1 -0
vn -0 1 -0
vn -0 1 -0
vn -0 1 -0
vn -0 1 -0
vn -0 1 -0
vn -0 1 -0
vn -0 1 -0
vn -0 1 -0
vn -0 1 -0
vn -0 1 -0
vn -0 1 -0
vn -0 1 -0
vn -0 1 -0
vn -0 1 -0
vn -0 1 -0
vn -0 1 -0
vn -0 1 -0
vn -0 1 -0
vn -0 1 -0
vn -0 1 -0
vn -0 1 -0
vn -0 1 -0
vn -0 1 -0
vn -0 1 -0
vn -0 1 -0
vn -0 1 -0
vn -0 1 -0
vn -0 1 -0
vn -0 1 -0
vn -0 1 -0
vn -0 1 -0
vn -0 1 -0
vn -0 1 -0
vn -0 1 -0
vn -0 1 -0
vn -0 1 -0
vn -0 1 -0
vn -0 1 -0
vn -0 1 -0
vn -0 1 -0
vn -0 1 -0
vn -0 1 -0
vn -0 1 -0
vn -0 1 -0
vn -0 1 -0
vn -0 1 -0
vn -0 1 -0
vn -0 1 -0
vn -0 1 -0
vn -0 1 -0
vn -0 1 -0
vn -0 1 -0
vn -0 1 -0
vn -0 1 -0
vn -0 1 -0
vn -0 1 -0
vn -0 1 -0
vn -0 1 -0
vn -0 1 -0
vn -0 1 -0
vn -0 1 -0
vn -0 1 -0
vn -0 1 -0
vn -0 1 -0
vn -0 1 -0
vn -0 1 -0
vn -0 1 -0
vn -0 1 -0
vn -0 1 -0
vn -0 1 -0
vn -0 1 -0
vn -0 1 -0
vn -0 1 -0
vn -0 1 -0
vn -0 1 -0
vn -0 1 -0
vn -0 1 -0
vn -0 1 -0
vn -0 1 -0
vn -0 1 -0
vn -0 1 -0
vn -0 1 -0
vn -0 1 -0
vn -0 1 -0
vn -0 1 -0
vn -0 1 -0
vn -0 1 -0
vn -0 1 -0
vn -0 1 -0
vn -0 1 -0
vn -0 1 -0
vn -0 1 -0
vn -0 1 -0
vn -0 1 -0
vn -0 1 -0
vn -0 1 -0
vn -0 1 -0
vn -0 1 -0
vn -0 1 -0
vn -0 1 -0
vn -0 1 -0
vn -0 1 -0
vn -0 1 -0
vn -0 1 -0
vn -0 1 -0
vn -0 1 -0
vn -0 1 -0
vn -0 1 -0
vn -0 1 -0
vn -0 1 -0
vn -0 1 -0
vn -0 1 -0
vn -0 1 -0
vn -0 1 -0
vn -0 1 -0
vn -0 1 -0
vn -0 1 -0
vn -0 1 -0
vn -0 1 -0
vn -0 1 -0
vn -0 1 -0
vn -0 1 -0
vn -0 1 -0
vn -0 1 -0
vn -0 1 -0
vn -0 1 -0
vn -0 1 -0
vn -0 1 -0
vn -0 1 -0
vn -0 1 -0
vn -0 1 -0
vn -0 1 -0
vn -0 1 -0
vn -0 1 -0
vn -0 1 -0
vn -0 1 -0
vn -0 1 -0
vt 0.129057 0.999672
vt 0.135718 0.998897
vt 0.143338 0.997366
vt 0.15055 0.995179
vt 0.157354 0.992336
vt 0.162712 0.989465
vt 0.167787 0.986139
vt 0.172579 0.982357
vt 0.177956 0.977217
vt 0.181266 0.973512
vt 0.183568 0.970656
vt 0.187706 0.964745
vt 0.191223 0.958568
vt 0.194119 0.952124
vt 0.196395 0.945415
vt 0.19805 0.93844
vt 0.199085 0.931198
vt 0.199507 0.922414
vt 0.199507 0.277094
vt 0.199918 0.268309
vt 0.200923 0.261068
vt 0.202531 0.254092
vt 0.204741 0.247383
vt 0.207555 0.24094
vt 0.210972 0.234762
vt 0.214992 0.228851
vt 0.220443 0.222291
vt 0.224778 0.217962
vt 0.229409 0.214089
vt 0.234335 0.210671
vt 0.239557 0.207709
vt 0.245074 0.205203
vt 0.252085 0.202797
vt 0.259521 0.201048
vt 0.267383 0.199954
vt 0.277094 0.199507
vt 0.922414 0.199507
vt 0.931816 0.199085
vt 0.94071 0.197818
vt 0.947931 0.196059
vt 0.954779 0.19368
vt 0.961255 0.19068
vt 0.967359 0.187059
vt 0.97309 0.182818
vt 0.978448 0.177956
vt 0.98331 0.172579
vt 0.987552 0.166795
vt 0.991172 0.160603
vt 0.994172 0.154003
vt 0.996552 0.146995
vt 0.99831 0.139579
vt 0.999578 0.130412
vt 1 0.12069
vt 1 0.077586
vt 0.999602 0.068184
vt 0.998407 0.05929
vt 0.996749 0.052069
vt 0.994505 0.045221
vt 0.991677 0.038745
vt 0.988263 0.032641
vt 0.984264 0.02691
vt 0.97968 0.021552
vt 0.976322 0.018241
vt 0.972752 0.015207
vt 0.967989 0.011802
vt 0.962895 0.00882798
vt 0.957467 0.006284
vt 0.950516 0.003802
vt 0.943085 0.00194001
vt 0.933811 0.000551999
vt 0.922414 0
vt 0.077586 0
vt 0.068184 0.00041002
vt 0.05929 0.00164098
vt 0.052069 0.00335002
vt 0.045221 0.00566101
vt 0.038745 0.00857502
vt 0.032641 0.012093
vt 0.02691 0.016213
vt 0.021552 0.020936
vt 0.018241 0.02438
vt 0.015207 0.028014
vt 0.011802 0.032822
vt 0.008828 0.037925
vt 0.005828 0.044439
vt 0.003448 0.051379
vt 0.00169 0.058745
vt 0.000422 0.067876
vt 0 0.077586
vt 0 0.922414
vt 0.00041 0.931816
vt 0.001641 0.94071
vt 0.00335 0.947931
vt 0.005661 0.954779
vt 0.008575 0.961255
vt 0.012093 0.967359
vt 0.016213 0.97309
vt 0.020936 0.978448
vt 0.02438 0.981759
vt 0.028014 0.984793
vt 0.032822 0.988198
vt 0.037925 0.991172
vt 0.044439 0.994172
vt 0.051379 0.996552
vt 0.058745 0.99831
vt 0.067876 0.999578
vt 0.077586 1
vt 0.12069 1
vt 0.800283 0.729901
vt 0.799814 0.735285
vt 0.798349 0.74425
vt 0.796439 0.751474
vt 0.793927 0.758272
vt 0.790812 0.764644
vt 0.787755 0.769629
vt 0.78428 0.774319
vt 0.779557 0.779557
vt 0.774319 0.78428
vt 0.76963 0.787755
vt 0.763612 0.791373
vt 0.757168 0.794388
vt 0.7503 0.796799
vt 0.743005 0.798608
vt 0.733957 0.799957
vt 0.722906 0.800493
vt 0.277094 0.800493
vt 0.268 0.800082
vt 0.259342 0.798851
vt 0.252266 0.797143
vt 0.245509 0.794832
vt 0.239072 0.791917
vt 0.232954 0.7884
vt 0.227155 0.78428
vt 0.221675 0.779557
vt 0.217463 0.775222
vt 0.214413 0.771541
vt 0.210999 0.766674
vt 0.208029 0.761511
vt 0.205501 0.756053
vt 0.203054 0.749113
vt 0.201245 0.741748
vt 0.199942 0.732617
vt 0.199507 0.722906
vt 0.199507 0.277094
vt 0.199918 0.268309
vt 0.200923 0.261068
vt 0.202531 0.254092
vt 0.204741 0.247383
vt 0.207555 0.24094
vt 0.210972 0.234762
vt 0.214992 0.228851
vt 0.220443 0.222291
vt 0.224778 0.217962
vt 0.229409 0.214089
vt 0.234335 0.210671
vt 0.239557 0.207709
vt 0.245074 0.205203
vt 0.252085 0.202797
vt 0.259521 0.201048
vt 0.267383 0.199954
vt 0.277094 0.199507
vt 0.922414 0.199507
vt 0.931816 0.199097
vt 0.94071 0.197866
vt 0.947931 0.196158
vt 0.954779 0.193846
vt 0.961255 0.190932
vt 0.967359 0.187415
vt 0.97309 0.183295
vt 0.978448 0.178571
vt 0.981759 0.175119
vt 0.98406 0.172396
vt 0.987552 0.1676
vt 0.990612 0.162484
vt 0.993716 0.155923
vt 0.996198 0.1489
vt 0.99806 0.141416
vt 0.999448 0.132102
vt 1 0.12069
vt 1 0.077586
vt 0.999602 0.068184
vt 0.998407 0.05929
vt 0.996749 0.052069
vt 0.994505 0.045221
vt 0.991677 0.038745
vt 0.988263 0.032641
vt 0.984264 0.02691
vt 0.97968 0.021552
vt 0.976322 0.018241
vt 0.972752 0.015207
vt 0.967989 0.011802
vt 0.962895 0.00882798
vt 0.957467 0.006284
vt 0.950516 0.003802
vt 0.943085 0.00194001
vt 0.933811 0.000551999
vt 0.922414 0
vt 0.077586 0
vt 0.068184 0.00041002
vt 0.05929 0.00164098
vt 0.052069 0.00335002
vt 0.045221 0.00566101
vt 0.038745 0.00857502
vt 0.032641 0.012093
vt 0.02691 0.016213
vt 0.021552 0.020936
vt 0.018241 0.02438
vt 0.015207 0.028014
vt 0.011802 0.032822
vt 0.008828 0.037925
vt 0.005828 0.044439
vt 0.003448 0.051379
vt 0.00169 0.058745
vt 0.000422 0.067876
vt 0 0.077586
vt 0 0.922414
vt 0.000398 0.931816
vt 0.001593 0.94071
vt 0.003251 0.947931
vt 0.005495 0.954779
vt 0.008323 0.961255
vt 0.011737 0.967359
vt 0.015736 0.97309
vt 0.02032 0.978448
vt 0.023678 0.981759
vt 0.027248 0.984793
vt 0.032011 0.988198
vt 0.037105 0.991172
vt 0.042533 0.993716
vt 0.049484 0.996198
vt 0.056915 0.99806
vt 0.066189 0.999448
vt 0.077586 1
vt 0.922414 1
vt 0.931816 0.999602
vt 0.94071 0.998407
vt 0.947931 0.996749
vt 0.954779 0.994505
vt 0.961255 0.991677
vt 0.967359 0.988263
vt 0.97309 0.984264
vt 0.978448 0.97968
vt 0.981759 0.976322
vt 0.984793 0.972752
vt 0.988198 0.967989
vt 0.991172 0.962895
vt 0.993716 0.957467
vt 0.996198 0.950516
vt 0.99806 0.943085
vt 0.999448 0.933811
vt 1 0.922414
vt 1 0.479064
vt 0.999602 0.469354
vt 0.998407 0.460223
vt 0.996749 0.452857
vt 0.994505 0.445917
vt 0.991677 0.439403
vt 0.988263 0.433314
vt 0.984264 0.427651
vt 0.97968 0.422414
vt 0.976322 0.419198
vt 0.973664 0.416962
vt 0.968968 0.41357
vt 0.96394 0.410598
vt 0.957467 0.407583
vt 0.950516 0.405171
vt 0.943085 0.403362
vt 0.933811 0.402014
vt 0.922414 0.401478
vt 0.497537 0.401478
vt 0.488444 0.401888
vt 0.479785 0.403119
vt 0.472709 0.404828
vt 0.465953 0.407139
vt 0.459515 0.410053
vt 0.453397 0.41357
vt 0.447598 0.417691
vt 0.442118 0.422414
vt 0.437906 0.426749
vt 0.434856 0.43043
vt 0.431442 0.435297
vt 0.428472 0.440459
vt 0.425945 0.445917
vt 0.423498 0.452857
vt 0.421689 0.460223
vt 0.420385 0.469354
vt 0.419951 0.479064
vt 0.417488 0.522167
vt 0.417807 0.530526
vt 0.418561 0.537166
vt 0.42005 0.544745
vt 0.422178 0.551898
vt 0.424945 0.558625
vt 0.427738 0.563905
vt 0.430974 0.568891
vt 0.434654 0.57358
vt 0.439655 0.578818
vt 0.44517 0.583541
vt 0.450065 0.587016
vt 0.456295 0.590634
vt 0.462916 0.593649
vt 0.469927 0.596061
vt 0.477328 0.597869
vt 0.486455 0.599218
vt 0.497537 0.599754
vt 0.722906 0.599754
vt 0.731691 0.600176
vt 0.738932 0.601211
vt 0.745908 0.602866
vt 0.752617 0.605142
vt 0.75906 0.608038
vt 0.765238 0.611555
vt 0.771149 0.615693
vt 0.777709 0.621305
vt 0.782038 0.625757
vt 0.785173 0.629523
vt 0.788682 0.634485
vt 0.791735 0.63973
vt 0.794797 0.646398
vt 0.797203 0.653474
vt 0.798952 0.660957
vt 0.800046 0.668849
vt 0.800493 0.678571
vt 0.800493 0.722906
vt 0.331151 0.199918
vt 0.340318 0.201149
vt 0.347734 0.202857
vt 0.354742 0.205168
vt 0.361342 0.208083
vt 0.367534 0.2116
vt 0.373318 0.21572
vt 0.378695 0.220443
vt 0.382005 0.223888
vt 0.385039 0.227521
vt 0.388445 0.232329
vt 0.391419 0.237432
vt 0.394419 0.243947
vt 0.396798 0.250887
vt 0.398557 0.258252
vt 0.399824 0.267383
vt 0.400246 0.277094
vt 0.400246 0.922414
vt 0.400392 0.927848
vt 0.40083 0.933117
vt 0.402033 0.94071
vt 0.403892 0.947931
vt 0.406407 0.954779
vt 0.409578 0.961255
vt 0.413406 0.967359
vt 0.41789 0.97309
vt 0.42303 0.978448
vt 0.426734 0.981759
vt 0.42959 0.98406
vt 0.435501 0.988198
vt 0.441679 0.991715
vt 0.448122 0.994612
vt 0.454831 0.996888
vt 0.461807 0.998543
vt 0.469048 0.999578
vt 0.477833 1
vt 0.520936 1
vt 0.527931 0.999791
vt 0.533314 0.999322
vt 0.54228 0.997856
vt 0.549503 0.995947
vt 0.556301 0.993434
vt 0.562674 0.990319
vt 0.567659 0.987262
vt 0.572349 0.983787
vt 0.577586 0.979064
vt 0.582309 0.973827
vt 0.585785 0.969137
vt 0.589402 0.963119
vt 0.592417 0.956676
vt 0.594829 0.949807
vt 0.596638 0.942512
vt 0.597986 0.933464
vt 0.598522 0.922414
vt 0.598522 0.277094
vt 0.598832 0.269811
vt 0.599764 0.262741
vt 0.601315 0.255884
vt 0.603488 0.249239
vt 0.606281 0.242808
vt 0.609695 0.236589
vt 0.614462 0.229603
vt 0.620074 0.222906
vt 0.624526 0.218461
vt 0.629261 0.214483
vt 0.63428 0.210973
vt 0.639581 0.207931
vt 0.645166 0.205357
vt 0.652242 0.202886
vt 0.659726 0.201089
vt 0.667617 0.199966
vt 0.67734 0.199507
vt 0.922414 0.199507
vt 0.931816 0.199085
vt 0.94071 0.197818
vt 0.947931 0.196059
vt 0.954779 0.19368
vt 0.961255 0.19068
vt 0.967359 0.187059
vt 0.97309 0.182818
vt 0.978448 0.177956
vt 0.98331 0.172579
vt 0.987552 0.166795
vt 0.991172 0.160603
vt 0.994172 0.154003
vt 0.996552 0.146995
vt 0.99831 0.139579
vt 0.999578 0.130412
vt 1 0.12069
vt 1 0.077586
vt 0.99959 0.068184
vt 0.998359 0.05929
vt 0.99665 0.052069
vt 0.994339 0.045221
vt 0.991425 0.038745
vt 0.987907 0.032641
vt 0.983787 0.02691
vt 0.979064 0.021552
vt 0.97562 0.018241
vt 0.971986 0.015207
vt 0.967178 0.011802
vt 0.962075 0.00882798
vt 0.955561 0.00582802
vt 0.948621 0.00344801
vt 0.941255 0.00168997
vt 0.932124 0.000422001
vt 0.922414 0
vt 0.077586 0
vt 0.068184 0.00041002
vt 0.05929 0.00164098
vt 0.052069 0.00335002
vt 0.045221 0.00566101
vt 0.038745 0.00857502
vt 0.032641 0.012093
vt 0.02691 0.016213
vt 0.021552 0.020936
vt 0.018241 0.02438
vt 0.015207 0.028014
vt 0.011802 0.032822
vt 0.008828 0.037925
vt 0.005828 0.044439
vt 0.003448 0.051379
vt 0.00169 0.058745
vt 0.000422 0.067876
vt 0 0.077586
vt 0 0.12069
vt 0.00041 0.130412
vt 0.001641 0.139579
vt 0.00335 0.146995
vt 0.005661 0.154003
vt 0.008575 0.160603
vt 0.012093 0.166795
vt 0.016213 0.172579
vt 0.020936 0.177956
vt 0.02438 0.181266
vt 0.028014 0.1843
vt 0.032822 0.187706
vt 0.037925 0.19068
vt 0.044439 0.19368
vt 0.051379 0.196059
vt 0.058745 0.197818
vt 0.067876 0.199085
vt 0.077586 0.199507
vt 0.321429 0.199507
vt 0.797203 0.653474
vt 1 0.922414
vt 1 0.077586
vt 0.797143 0.347586
vt 0.798851 0.34046
vt 0.797143 0.347586
vt 1 0.077586
vt 0.800082 0.331765
vt 0.798851 0.34046
vt 1 0.077586
vt 0.800493 0.32266
vt 0.800082 0.331765
vt 1 0.077586
vt 0.800493 0.277094
vt 0.800493 0.32266
vt 1 0.077586
vt 0.800046 0.267383
vt 0.800493 0.277094
vt 1 0.077586
vt 0.798952 0.259521
vt 0.800046 0.267383
vt 1 0.077586
vt 0.797203 0.252085
vt 0.798952 0.259521
vt 1 0.077586
vt 0.794797 0.245074
vt 0.797203 0.252085
vt 1 0.077586
vt 0.792291 0.239557
vt 0.794797 0.245074
vt 1 0.077586
vt 0.789329 0.234335
vt 0.792291 0.239557
vt 1 0.077586
vt 0.785911 0.229409
vt 0.789329 0.234335
vt 1 0.077586
vt 0.782038 0.224778
vt 0.785911 0.229409
vt 1 0.077586
vt 0.922414 0
vt 0.777709 0.220443
vt 0.782038 0.224778
vt 1 0.077586
vt 0.933464 0.000536025
vt 0.922414 0
vt 1 0.077586
vt 0.999791 0.070591
vt 0.922414 1
vt 0.927848 0.999854
vt 0.999578 0.931198
vt 1 0.922414
vt 0.87931 1
vt 0.922414 1
vt 1 0.922414
vt 0.800493 0.678571
vt 0.800493 0.922414
vt 0.87931 1
vt 1 0.922414
vt 0.800046 0.668849
vt 0.800493 0.678571
vt 1 0.922414
vt 0.798952 0.660957
vt 0.800046 0.668849
vt 1 0.922414
vt 0.797203 0.653474
vt 0.798952 0.660957
vt 1 0.922414
vt 0.933117 0.999417
vt 0.998543 0.93844
vt 0.999578 0.931198
vt 0.927848 0.999854
vt 0.991715 0.958568
vt 0.996888 0.945415
vt 0.998543 0.93844
vt 0.988198 0.964745
vt 0.98406 0.970656
vt 0.988198 0.964745
vt 0.998543 0.93844
vt 0.933117 0.999417
vt 0.991715 0.958568
vt 0.994612 0.952124
vt 0.996888 0.945415
vt 0.94071 0.998214
vt 0.981759 0.973512
vt 0.98406 0.970656
vt 0.933117 0.999417
vt 0.947931 0.996355
vt 0.978448 0.977217
vt 0.981759 0.973512
vt 0.94071 0.998214
vt 0.954779 0.993839
vt 0.97309 0.982357
vt 0.978448 0.977217
vt 0.947931 0.996355
vt 0.961255 0.990668
vt 0.967359 0.98684
vt 0.97309 0.982357
vt 0.954779 0.993839
vt 0.800915 0.931816
vt 0.869588 0.999578
vt 0.87931 1
vt 0.800493 0.922414
vt 0.802182 0.94071
vt 0.860421 0.99831
vt 0.869588 0.999578
vt 0.800915 0.931816
vt 0.803941 0.947931
vt 0.853005 0.996552
vt 0.860421 0.99831
vt 0.802182 0.94071
vt 0.822044 0.978448
vt 0.845997 0.994172
vt 0.853005 0.996552
vt 0.803941 0.947931
vt 0.827421 0.98331
vt 0.839397 0.991172
vt 0.845997 0.994172
vt 0.822044 0.978448
vt 0.827421 0.98331
vt 0.833205 0.987552
vt 0.839397 0.991172
vt 0.803941 0.947931
vt 0.80632 0.954779
vt 0.817182 0.97309
vt 0.822044 0.978448
vt 0.80632 0.954779
vt 0.80932 0.961255
vt 0.812941 0.967359
vt 0.817182 0.97309
vt 0.797143 0.347586
vt 0.794832 0.354411
vt 0.794797 0.646398
vt 0.797203 0.653474
vt 0.794832 0.354411
vt 0.791917 0.360934
vt 0.791735 0.63973
vt 0.794797 0.646398
vt 0.791917 0.360934
vt 0.7884 0.367156
vt 0.788682 0.634485
vt 0.791735 0.63973
vt 0.7884 0.367156
vt 0.78428 0.373076
vt 0.785173 0.629523
vt 0.788682 0.634485
vt 0.779557 0.378695
vt 0.782038 0.625757
vt 0.785173 0.629523
vt 0.78428 0.373076
vt 0.775222 0.383023
vt 0.777709 0.621305
vt 0.782038 0.625757
vt 0.779557 0.378695
vt 0.770591 0.386897
vt 0.771149 0.615693
vt 0.777709 0.621305
vt 0.775222 0.383023
vt 0.765665 0.390314
vt 0.765238 0.611555
vt 0.771149 0.615693
vt 0.770591 0.386897
vt 0.765665 0.390314
vt 0.760443 0.393276
vt 0.75906 0.608038
vt 0.765238 0.611555
vt 0.760443 0.393276
vt 0.754926 0.395782
vt 0.752617 0.605142
vt 0.75906 0.608038
vt 0.754926 0.395782
vt 0.747915 0.398188
vt 0.745908 0.602866
vt 0.752617 0.605142
vt 0.747915 0.398188
vt 0.740479 0.399938
vt 0.738932 0.601211
vt 0.745908 0.602866
vt 0.740479 0.399938
vt 0.732617 0.401031
vt 0.731691 0.600176
vt 0.738932 0.601211
vt 0.732617 0.401031
vt 0.722906 0.401478
vt 0.722906 0.599754
vt 0.731691 0.600176
vt 0.722906 0.401478
vt 0.277094 0.401478
vt 0.277094 0.599754
vt 0.722906 0.599754
vt 0.266737 0.400926
vt 0.267383 0.600212
vt 0.277094 0.599754
vt 0.271844 0.40134
vt 0.277094 0.401478
vt 0.271844 0.40134
vt 0.277094 0.599754
vt 0.259342 0.399788
vt 0.259521 0.601335
vt 0.267383 0.600212
vt 0.266737 0.400926
vt 0.252266 0.39803
vt 0.252085 0.603132
vt 0.259521 0.601335
vt 0.259342 0.399788
vt 0.252266 0.39803
vt 0.245509 0.39565
vt 0.245074 0.605603
vt 0.252085 0.603132
vt 0.245509 0.39565
vt 0.239072 0.39265
vt 0.239557 0.608177
vt 0.245074 0.605603
vt 0.239072 0.39265
vt 0.234335 0.611219
vt 0.239557 0.608177
vt 0.239072 0.39265
vt 0.232954 0.38903
vt 0.229409 0.614729
vt 0.234335 0.611219
vt 0.232954 0.38903
vt 0.227155 0.384788
vt 0.224778 0.618707
vt 0.229409 0.614729
vt 0.227155 0.384788
vt 0.221675 0.379926
vt 0.220443 0.623153
vt 0.224778 0.618707
vt 0.221675 0.379926
vt 0.216674 0.37455
vt 0.214992 0.629873
vt 0.220443 0.623153
vt 0.216674 0.37455
vt 0.212311 0.368765
vt 0.210972 0.635903
vt 0.214992 0.629873
vt 0.212311 0.368765
vt 0.208587 0.362573
vt 0.207555 0.642181
vt 0.210972 0.635903
vt 0.208587 0.362573
vt 0.205501 0.355973
vt 0.204741 0.648707
vt 0.207555 0.642181
vt 0.205501 0.355973
vt 0.203054 0.348966
vt 0.202531 0.655481
vt 0.204741 0.648707
vt 0 0.922414
vt 0.200923 0.662504
vt 0.202531 0.655481
vt 0 0.077586
vt 0 0.922414
vt 0.202531 0.655481
vt 0.203054 0.348966
vt 0 0.922414
vt 0.199918 0.669775
vt 0.200923 0.662504
vt 0 0.922414
vt 0.199507 0.678571
vt 0.199918 0.669775
vt 0.12069 1
vt 0.199507 0.922414
vt 0.199507 0.678571
vt 0 0.922414
vt 0.12069 1
vt 0.130412 0.99959
vt 0.199085 0.932124
vt 0.199507 0.922414
vt 0.130412 0.99959
vt 0.139579 0.998359
vt 0.197818 0.941255
vt 0.199085 0.932124
vt 0.139579 0.998359
vt 0.146995 0.99665
vt 0.196059 0.948621
vt 0.197818 0.941255
vt 0.177956 0.979064
vt 0.19368 0.955561
vt 0.196059 0.948621
vt 0.172579 0.983787
vt 0.160603 0.991425
vt 0.166795 0.987907
vt 0.172579 0.983787
vt 0.196059 0.948621
vt 0.146995 0.99665
vt 0.154003 0.994339
vt 0.160603 0.991425
vt 0.196059 0.948621
vt 0.181266 0.97562
vt 0.19068 0.962075
vt 0.19368 0.955561
vt 0.177956 0.979064
vt 0.181266 0.97562
vt 0.1843 0.971986
vt 0.187706 0.967178
vt 0.19068 0.962075
vt 0.00041 0.931816
vt 0.077586 1
vt 0.12069 1
vt 0 0.922414
vt 0.001641 0.94071
vt 0.067876 0.999578
vt 0.077586 1
vt 0.00041 0.931816
vt 0.00335 0.947931
vt 0.058745 0.99831
vt 0.067876 0.999578
vt 0.001641 0.94071
vt 0.005661 0.954779
vt 0.051379 0.996552
vt 0.058745 0.99831
vt 0.00335 0.947931
vt 0.012093 0.967359
vt 0.016213 0.97309
vt 0.044439 0.994172
vt 0.051379 0.996552
vt 0.005661 0.954779
vt 0.008575 0.961255
vt 0.012093 0.967359
vt 0.051379 0.996552
vt 0.016213 0.97309
vt 0.020936 0.978448
vt 0.037925 0.991172
vt 0.044439 0.994172
vt 0.028014 0.984793
vt 0.032822 0.988198
vt 0.037925 0.991172
vt 0.020936 0.978448
vt 0.02438 0.981759
vt 0.028014 0.984793
vt 0.037925 0.991172
vt 0.077586 0
vt 0.072152 0.000145972
vt 0.000422 0.068802
vt 0 0.077586
vt 0.220443 0.222906
vt 0.224778 0.218461
vt 0.077586 0
vt 0 0.077586
vt 0.214992 0.229603
vt 0.220443 0.222906
vt 0 0.077586
vt 0.210361 0.236589
vt 0.214992 0.229603
vt 0 0.077586
vt 0.207044 0.242808
vt 0.210361 0.236589
vt 0 0.077586
vt 0.204331 0.249239
vt 0.207044 0.242808
vt 0 0.077586
vt 0.202221 0.255884
vt 0.204331 0.249239
vt 0 0.077586
vt 0.200713 0.262741
vt 0.202221 0.255884
vt 0 0.077586
vt 0.199809 0.269811
vt 0.200713 0.262741
vt 0 0.077586
vt 0.199507 0.277094
vt 0.199809 0.269811
vt 0 0.077586
vt 0.199507 0.32266
vt 0.199507 0.277094
vt 0 0.077586
vt 0.199942 0.332383
vt 0.199507 0.32266
vt 0 0.077586
vt 0.201245 0.34155
vt 0.199942 0.332383
vt 0 0.077586
vt 0.203054 0.348966
vt 0.201245 0.34155
vt 0 0.077586
vt 0.066883 0.000582993
vt 0.001457 0.06156
vt 0.000422 0.068802
vt 0.072152 0.000145972
vt 0.008284 0.041432
vt 0.003112 0.054585
vt 0.001457 0.06156
vt 0.011802 0.035255
vt 0.01594 0.029344
vt 0.011802 0.035255
vt 0.001457 0.06156
vt 0.066883 0.000582993
vt 0.008284 0.041432
vt 0.005388 0.047876
vt 0.003112 0.054585
vt 0.05929 0.00178599
vt 0.018241 0.026488
vt 0.01594 0.029344
vt 0.066883 0.000582993
vt 0.052069 0.003645
vt 0.021552 0.022783
vt 0.018241 0.026488
vt 0.05929 0.00178599
vt 0.045221 0.00616097
vt 0.02691 0.017643
vt 0.021552 0.022783
vt 0.052069 0.003645
vt 0.038745 0.009332
vt 0.032641 0.01316
vt 0.02691 0.017643
vt 0.045221 0.00616097
vt 0.277094 0.199507
vt 0.722906 0.199507
vt 0.922414 0
vt 0.077586 0
vt 0.267383 0.199966
vt 0.277094 0.199507
vt 0.077586 0
vt 0.259521 0.201089
vt 0.267383 0.199966
vt 0.077586 0
vt 0.252085 0.202886
vt 0.259521 0.201089
vt 0.077586 0
vt 0.245074 0.205357
vt 0.252085 0.202886
vt 0.077586 0
vt 0.239557 0.207931
vt 0.245074 0.205357
vt 0.077586 0
vt 0.234335 0.210973
vt 0.239557 0.207931
vt 0.077586 0
vt 0.229409 0.214483
vt 0.234335 0.210973
vt 0.077586 0
vt 0.224778 0.218461
vt 0.229409 0.214483
vt 0.077586 0
vt 0.771149 0.214992
vt 0.777709 0.220443
vt 0.922414 0
vt 0.765238 0.210972
vt 0.771149 0.214992
vt 0.922414 0
vt 0.75906 0.207555
vt 0.765238 0.210972
vt 0.922414 0
vt 0.752617 0.204741
vt 0.75906 0.207555
vt 0.922414 0
vt 0.745908 0.202531
vt 0.752617 0.204741
vt 0.922414 0
vt 0.738932 0.200923
vt 0.745908 0.202531
vt 0.922414 0
vt 0.731691 0.199918
vt 0.738932 0.200923
vt 0.922414 0
vt 0.722906 0.199507
vt 0.731691 0.199918
vt 0.922414 0
vt 0.999791 0.070591
vt 0.999322 0.065208
vt 0.942512 0.00188398
vt 0.933464 0.000536025
vt 0.999322 0.065208
vt 0.997856 0.056242
vt 0.949807 0.00369298
vt 0.942512 0.00188398
vt 0.997856 0.056242
vt 0.995947 0.049019
vt 0.956676 0.00610501
vt 0.949807 0.00369298
vt 0.995947 0.049019
vt 0.993434 0.042221
vt 0.963119 0.00911999
vt 0.956676 0.00610501
vt 0.979064 0.020936
vt 0.973827 0.016213
vt 0.969137 0.012737
vt 0.963119 0.00911999
vt 0.990319 0.035848
vt 0.979064 0.020936
vt 0.963119 0.00911999
vt 0.993434 0.042221
vt 0.987263 0.030863
vt 0.983787 0.026173
vt 0.979064 0.020936
vt 0.990319 0.035848
vt 0.070591 0.000208974
vt 0.065208 0.000678003
vt 0.056242 0.00214398
vt 0.049019 0.004053
vt 0.042221 0.00656599
vt 0.035848 0.00968099
vt 0.030863 0.012737
vt 0.026173 0.016213
vt 0.020936 0.020936
vt 0.016213 0.026173
vt 0.012737 0.030863
vt 0.00912 0.036881
vt 0.006105 0.043324
vt 0.003693 0.050193
vt 0.001884 0.057488
vt 0.000536 0.066536
vt 0 0.077586
vt 0 0.922414
vt 0.00041 0.931816
vt 0.001641 0.94071
vt 0.00335 0.947931
vt 0.005661 0.954779
vt 0.008575 0.961255
vt 0.012093 0.967359
vt 0.016213 0.97309
vt 0.020936 0.978448
vt 0.02438 0.981759
vt 0.028014 0.984793
vt 0.032822 0.988198
vt 0.037925 0.991172
vt 0.044439 0.994172
vt 0.051379 0.996552
vt 0.058745 0.99831
vt 0.067876 0.999578
vt 0.077586 1
vt 0.922414 1
vt 0.931816 0.99959
vt 0.94071 0.998359
vt 0.947931 0.99665
vt 0.954779 0.994339
vt 0.961255 0.991425
vt 0.967359 0.987907
vt 0.97309 0.983787
vt 0.978448 0.979064
vt 0.981759 0.97562
vt 0.984793 0.971986
vt 0.988198 0.967178
vt 0.991172 0.962075
vt 0.994172 0.955561
vt 0.996552 0.948621
vt 0.99831 0.941255
vt 0.999578 0.932124
vt 1 0.922414
vt 1 0.87931
vt 0.99959 0.869588
vt 0.998359 0.860421
vt 0.99665 0.853005
vt 0.994339 0.845997
vt 0.991425 0.839397
vt 0.987907 0.833205
vt 0.983787 0.827421
vt 0.979064 0.822044
vt 0.97562 0.818734
vt 0.971986 0.815699
vt 0.967178 0.812294
vt 0.962075 0.80932
vt 0.955561 0.80632
vt 0.948621 0.803941
vt 0.941255 0.802182
vt 0.932124 0.800915
vt 0.922414 0.800493
vt 0.277094 0.800493
vt 0.268 0.800082
vt 0.259342 0.798851
vt 0.252266 0.797143
vt 0.245509 0.794832
vt 0.239072 0.791917
vt 0.232954 0.7884
vt 0.227155 0.78428
vt 0.221675 0.779557
vt 0.217463 0.775222
vt 0.214413 0.771541
vt 0.210999 0.766674
vt 0.208029 0.761511
vt 0.205501 0.756053
vt 0.203054 0.749113
vt 0.201245 0.741748
vt 0.199942 0.732617
vt 0.199507 0.722906
vt 0.199507 0.077586
vt 0.199085 0.068184
vt 0.197818 0.05929
vt 0.196059 0.052069
vt 0.19368 0.045221
vt 0.19068 0.038745
vt 0.187059 0.032641
vt 0.182818 0.02691
vt 0.177956 0.021552
vt 0.172579 0.01669
vt 0.166795 0.012448
vt 0.160603 0.00882798
vt 0.154003 0.00582802
vt 0.146995 0.00344801
vt 0.139579 0.00168997
vt 0.130412 0.000422001
vt 0.12069 0
vt 0.077586 0
s off
f 107/107/107 108/108/108 1/1/1
f 1/1/1 2/2/2 3/3/3
f 3/3/3 4/4/4 5/5/5
f 5/5/5 6/6/6 7/7/7
f 7/7/7 8/8/8 9/9/9
f 9/9/9 10/10/10 11/11/11
f 11/11/11 12/12/12 13/13/13
f 13/13/13 14/14/14 15/15/15
f 15/15/15 16/16/16 17/17/17
f 17/17/17 18/18/18 19/19/19
f 36/36/36 37/37/37 38/38/38
f 38/38/38 39/39/39 40/40/40
f 40/40/40 41/41/41 42/42/42
f 42/42/42 43/43/43 44/44/44
f 44/44/44 45/45/45 46/46/46
f 46/46/46 47/47/47 48/48/48
f 48/48/48 49/49/49 50/50/50
f 50/50/50 51/51/51 52/52/52
f 52/52/52 53/53/53 54/54/54
f 54/54/54 55/55/55 56/56/56
f 56/56/56 57/57/57 58/58/58
f 58/58/58 59/59/59 60/60/60
f 60/60/60 61/61/61 62/62/62
f 62/62/62 63/63/63 64/64/64
f 64/64/64 65/65/65 66/66/66
f 66/66/66 67/67/67 68/68/68
f 68/68/68 69/69/69 70/70/70
f 70/70/70 71/71/71 72/72/72
f 72/72/72 73/73/73 74/74/74
f 74/74/74 75/75/75 76/76/76
f 76/76/76 77/77/77 78/78/78
f 78/78/78 79/79/79 80/80/80
f 80/80/80 81/81/81 82/82/82
f 82/82/82 83/83/83 84/84/84
f 84/84/84 85/85/85 86/86/86
f 86/86/86 87/87/87 88/88/88
f 88/88/88 89/89/89 90/90/90
f 90/90/90 91/91/91 92/92/92
f 92/92/92 93/93/93 94/94/94
f 94/94/94 95/95/95 96/96/96
f 96/96/96 97/97/97 98/98/98
f 98/98/98 99/99/99 100/100/100
f 100/100/100 101/101/101 102/102/102
f 102/102/102 103/103/103 104/104/104
f 104/104/104 105/105/105 106/106/106
f 106/106/106 107/107/107 1/1/1
f 1/1/1 3/3/3 5/5/5
f 5/5/5 7/7/7 9/9/9
f 9/9/9 11/11/11 13/13/13
f 13/13/13 15/15/15 17/17/17
f 36/36/36 38/38/38 40/40/40
f 40/40/40 42/42/42 44/44/44
f 44/44/44 46/46/46 48/48/48
f 48/48/48 50/50/50 52/52/52
f 52/52/52 54/54/54 56/56/56
f 56/56/56 58/58/58 60/60/60
f 60/60/60 62/62/62 64/64/64
f 64/64/64 66/66/66 68/68/68
f 68/68/68 70/70/70 72/72/72
f 72/72/72 74/74/74 76/76/76
f 76/76/76 78/78/78 80/80/80
f 80/80/80 82/82/82 84/84/84
f 84/84/84 86/86/86 88/88/88
f 88/88/88 90/90/90 92/92/92
f 92/92/92 94/94/94 96/96/96
f 96/96/96 98/98/98 100/100/100
f 100/100/100 102/102/102 104/104/104
f 104/104/104 106/106/106 1/1/1
f 1/1/1 5/5/5 9/9/9
f 9/9/9 13/13/13 17/17/17
f 36/36/36 40/40/40 44/44/44
f 44/44/44 48/48/48 52/52/52
f 52/52/52 56/56/56 60/60/60
f 60/60/60 64/64/64 68/68/68
f 68/68/68 72/72/72 76/76/76
f 76/76/76 80/80/80 84/84/84
f 84/84/84 88/88/88 92/92/92
f 92/92/92 96/96/96 100/100/100
f 100/100/100 104/104/104 1/1/1
f 1/1/1 9/9/9 17/17/17
f 36/36/36 44/44/44 52/52/52
f 52/52/52 60/60/60 68/68/68
f 68/68/68 76/76/76 84/84/84
f 84/84/84 92/92/92 100/100/100
f 100/100/100 1/1/1 17/17/17
f 35/35/35 36/36/36 52/52/52
f 52/52/52 68/68/68 84/84/84
f 84/84/84 100/100/100 17/17/17
f 35/35/35 52/52/52 84/84/84
f 84/84/84 17/17/17 19/19/19
f 34/34/34 35/35/35 84/84/84
f 84/84/84 19/19/19 20/20/20
f 33/33/33 34/34/34 84/84/84
f 84/84/84 20/20/20 21/21/21
f 32/32/32 33/33/33 84/84/84
f 84/84/84 21/21/21 22/22/22
f 31/31/31 32/32/32 84/84/84
f 84/84/84 22/22/22 23/23/23
f 30/30/30 31/31/31 84/84/84
f 84/84/84 23/23/23 24/24/24
f 29/29/29 30/30/30 84/84/84
f 84/84/84 24/24/24 25/25/25
f 28/28/28 29/29/29 84/84/84
f 84/84/84 25/25/25 26/26/26
f 27/27/27 28/28/28 84/84/84
f 84/84/84 26/26/26 27/27/27
f 161/161/161 162/162/162 163/163/163
f 163/163/163 164/164/164 165/165/165
f 165/165/165 166/166/166 167/167/167
f 167/167/167 168/168/168 169/169/169
f 169/169/169 170/170/170 171/171/171
f 171/171/171 172/172/172 173/173/173
f 173/173/173 174/174/174 175/175/175
f 175/175/175 176/176/176 177/177/177
f 177/177/177 178/178/178 179/179/179
f 179/179/179 180/180/180 181/181/181
f 181/181/181 182/182/182 183/183/183
f 183/183/183 184/184/184 185/185/185
f 185/185/185 186/186/186 187/187/187
f 187/187/187 188/188/188 189/189/189
f 189/189/189 190/190/190 191/191/191
f 191/191/191 192/192/192 193/193/193
f 193/193/193 194/194/194 195/195/195
f 195/195/195 196/196/196 197/197/197
f 197/197/197 198/198/198 199/199/199
f 199/199/199 200/200/200 201/201/201
f 201/201/201 202/202/202 203/203/203
f 203/203/203 204/204/204 205/205/205
f 205/205/205 206/206/206 207/207/207
f 207/207/207 208/208/208 209/209/209
f 209/209/209 210/210/210 211/211/211
f 211/211/211 212/212/212 213/213/213
f 213/213/213 214/214/214 215/215/215
f 215/215/215 216/216/216 217/217/217
f 217/217/217 218/218/218 219/219/219
f 219/219/219 220/220/220 221/221/221
f 221/221/221 222/222/222 223/223/223
f 223/223/223 224/224/224 225/225/225
f 225/225/225 226/226/226 227/227/227
f 227/227/227 228/228/228 229/229/229
f 229/229/229 230/230/230 231/231/231
f 231/231/231 232/232/232 233/233/233
f 233/233/233 234/234/234 235/235/235
f 235/235/235 236/236/236 237/237/237
f 237/237/237 238/238/238 239/239/239
f 239/239/239 240/240/240 241/241/241
f 241/241/241 242/242/242 243/243/243
f 243/243/243 244/244/244 245/245/245
f 245/245/245 246/246/246 247/247/247
f 247/247/247 248/248/248 249/249/249
f 249/249/249 250/250/250 251/251/251
f 251/251/251 252/252/252 253/253/253
f 253/253/253 254/254/254 255/255/255
f 255/255/255 256/256/256 257/257/257
f 257/257/257 258/258/258 259/259/259
f 259/259/259 260/260/260 261/261/261
f 261/261/261 262/262/262 263/263/263
f 263/263/263 264/264/264 265/265/265
f 265/265/265 266/266/266 267/267/267
f 267/267/267 268/268/268 269/269/269
f 269/269/269 270/270/270 271/271/271
f 271/271/271 272/272/272 273/273/273
f 273/273/273 274/274/274 275/275/275
f 275/275/275 276/276/276 277/277/277
f 277/277/277 278/278/278 279/279/279
f 279/279/279 280/280/280 281/281/281
f 281/281/281 282/282/282 283/283/283
f 283/283/283 284/284/284 285/285/285
f 285/285/285 286/286/286 287/287/287
f 287/287/287 288/288/288 289/289/289
f 289/289/289 290/290/290 291/291/291
f 291/291/291 292/292/292 293/293/293
f 293/293/293 294/294/294 295/295/295
f 295/295/295 296/296/296 297/297/297
f 297/297/297 298/298/298 299/299/299
f 299/299/299 300/300/300 301/301/301
f 301/301/301 302/302/302 303/303/303
f 303/303/303 304/304/304 305/305/305
f 161/161/161 163/163/163 165/165/165
f 165/165/165 167/167/167 169/169/169
f 169/169/169 171/171/171 173/173/173
f 173/173/173 175/175/175 177/177/177
f 177/177/177 179/179/179 181/181/181
f 181/181/181 183/183/183 185/185/185
f 185/185/185 187/187/187 189/189/189
f 189/189/189 191/191/191 193/193/193
f 193/193/193 195/195/195 197/197/197
f 197/197/197 199/199/199 201/201/201
f 201/201/201 203/203/203 205/205/205
f 205/205/205 207/207/207 209/209/209
f 209/209/209 211/211/211 213/213/213
f 213/213/213 215/215/215 217/217/217
f 217/217/217 219/219/219 221/221/221
f 221/221/221 223/223/223 225/225/225
f 225/225/225 227/227/227 229/229/229
f 229/229/229 231/231/231 233/233/233
f 233/233/233 235/235/235 237/237/237
f 237/237/237 239/239/239 241/241/241
f 241/241/241 243/243/243 245/245/245
f 245/245/245 247/247/247 249/249/249
f 249/249/249 251/251/251 253/253/253
f 253/253/253 255/255/255 257/257/257
f 257/257/257 259/259/259 261/261/261
f 261/261/261 263/263/263 265/265/265
f 265/265/265 267/267/267 269/269/269
f 269/269/269 271/271/271 273/273/273
f 273/273/273 275/275/275 277/277/277
f 277/277/277 279/279/279 281/281/281
f 281/281/281 283/283/283 285/285/285
f 285/285/285 287/287/287 289/289/289
f 289/289/289 291/291/291 293/293/293
f 293/293/293 295/295/295 297/297/297
f 297/297/297 299/299/299 301/301/301
f 301/301/301 303/303/303 305/305/305
f 161/161/161 165/165/165 169/169/169
f 169/169/169 173/173/173 177/177/177
f 177/177/177 181/181/181 185/185/185
f 185/185/185 189/189/189 193/193/193
f 193/193/193 197/197/197 201/201/201
f 201/201/201 205/205/205 209/209/209
f 209/209/209 213/213/213 217/217/217
f 217/217/217 221/221/221 225/225/225
f 225/225/225 229/229/229 233/233/233
f 233/233/233 237/237/237 241/241/241
f 241/241/241 245/245/245 249/249/249
f 249/249/249 253/253/253 257/257/257
f 257/257/257 261/261/261 265/265/265
f 265/265/265 269/269/269 273/273/273
f 273/273/273 277/277/277 281/281/281
f 281/281/281 285/285/285 289/289/289
f 289/289/289 293/293/293 297/297/297
f 297/297/297 301/301/301 305/305/305
f 161/161/161 169/169/169 177/177/177
f 177/177/177 185/185/185 193/193/193
f 193/193/193 201/201/201 209/209/209
f 209/209/209 217/217/217 225/225/225
f 225/225/225 233/233/233 241/241/241
f 241/241/241 249/249/249 257/257/257
f 257/257/257 265/265/265 273/273/273
f 273/273/273 281/281/281 289/289/289
f 289/289/289 297/297/297 305/305/305
f 160/160/160 161/161/161 177/177/177
f 177/177/177 193/193/193 209/209/209
f 257/257/257 273/273/273 289/289/289
f 289/289/289 305/305/305 306/306/306
f 160/160/160 177/177/177 209/209/209
f 257/257/257 289/289/289 306/306/306
f 159/159/159 160/160/160 209/209/209
f 257/257/257 306/306/306 307/307/307
f 158/158/158 159/159/159 209/209/209
f 257/257/257 307/307/307 308/308/308
f 157/157/157 158/158/158 209/209/209
f 257/257/257 308/308/308 309/309/309
f 156/156/156 157/157/157 209/209/209
f 257/257/257 309/309/309 310/310/310
f 155/155/155 156/156/156 209/209/209
f 257/257/257 310/310/310 311/311/311
f 154/154/154 155/155/155 209/209/209
f 257/257/257 311/311/311 312/312/312
f 153/153/153 154/154/154 209/209/209
f 257/257/257 312/312/312 313/313/313
f 152/152/152 153/153/153 209/209/209
f 257/257/257 313/313/313 314/314/314
f 151/151/151 152/152/152 209/209/209
f 257/257/257 314/314/314 315/315/315
f 150/150/150 151/151/151 209/209/209
f 257/257/257 315/315/315 316/316/316
f 149/149/149 150/150/150 209/209/209
f 257/257/257 316/316/316 317/317/317
f 148/148/148 149/149/149 209/209/209
f 257/257/257 317/317/317 318/318/318
f 147/147/147 148/148/148 209/209/209
f 241/241/241 257/257/257 318/318/318
f 146/146/146 147/147/147 209/209/209
f 241/241/241 318/318/318 319/319/319
f 145/145/145 146/146/146 209/209/209
f 241/241/241 319/319/319 320/320/320
f 144/144/144 145/145/145 209/209/209
f 241/241/241 320/320/320 321/321/321
f 143/143/143 144/144/144 209/209/209
f 241/241/241 321/321/321 322/322/322
f 142/142/142 143/143/143 209/209/209
f 241/241/241 322/322/322 323/323/323
f 141/141/141 142/142/142 209/209/209
f 241/241/241 323/323/323 324/324/324
f 140/140/140 141/141/141 209/209/209
f 241/241/241 324/324/324 109/109/109
f 140/140/140 209/209/209 225/225/225
f 241/241/241 109/109/109 110/110/110
f 139/139/139 140/140/140 225/225/225
f 241/241/241 110/110/110 111/111/111
f 138/138/138 139/139/139 225/225/225
f 241/241/241 111/111/111 112/112/112
f 137/137/137 138/138/138 225/225/225
f 241/241/241 112/112/112 113/113/113
f 136/136/136 137/137/137 225/225/225
f 241/241/241 113/113/113 114/114/114
f 135/135/135 136/136/136 225/225/225
f 241/241/241 114/114/114 115/115/115
f 134/134/134 135/135/135 225/225/225
f 241/241/241 115/115/115 116/116/116
f 133/133/133 134/134/134 225/225/225
f 241/241/241 116/116/116 117/117/117
f 132/132/132 133/133/133 225/225/225
f 241/241/241 117/117/117 118/118/118
f 131/131/131 132/132/132 225/225/225
f 241/241/241 118/118/118 119/119/119
f 130/130/130 131/131/131 225/225/225
f 241/241/241 119/119/119 120/120/120
f 129/129/129 130/130/130 225/225/225
f 241/241/241 120/120/120 121/121/121
f 128/128/128 129/129/129 225/225/225
f 241/241/241 121/121/121 122/122/122
f 127/127/127 128/128/128 225/225/225
f 225/225/225 241/241/241 122/122/122
f 126/126/126 127/127/127 225/225/225
f 225/225/225 122/122/122 123/123/123
f 125/125/125 126/126/126 225/225/225
f 225/225/225 123/123/123 124/124/124
f 124/124/124 125/125/125 225/225/225
f 341/341/341 342/342/342 343/343/343
f 343/343/343 344/344/344 345/345/345
f 345/345/345 346/346/346 347/347/347
f 347/347/347 348/348/348 349/349/349
f 349/349/349 350/350/350 351/351/351
f 351/351/351 352/352/352 353/353/353
f 353/353/353 354/354/354 355/355/355
f 355/355/355 356/356/356 357/357/357
f 357/357/357 358/358/358 359/359/359
f 359/359/359 360/360/360 361/361/361
f 361/361/361 362/362/362 363/363/363
f 363/363/363 364/364/364 365/365/365
f 365/365/365 366/366/366 367/367/367
f 367/367/367 368/368/368 369/369/369
f 369/369/369 370/370/370 371/371/371
f 371/371/371 372/372/372 373/373/373
f 373/373/373 374/374/374 375/375/375
f 375/375/375 376/376/376 377/377/377
f 377/377/377 378/378/378 379/379/379
f 396/396/396 397/397/397 398/398/398
f 398/398/398 399/399/399 400/400/400
f 400/400/400 401/401/401 402/402/402
f 402/402/402 403/403/403 404/404/404
f 404/404/404 405/405/405 406/406/406
f 406/406/406 407/407/407 408/408/408
f 408/408/408 409/409/409 410/410/410
f 410/410/410 411/411/411 412/412/412
f 412/412/412 413/413/413 414/414/414
f 414/414/414 415/415/415 416/416/416
f 416/416/416 417/417/417 418/418/418
f 418/418/418 419/419/419 420/420/420
f 420/420/420 421/421/421 422/422/422
f 422/422/422 423/423/423 424/424/424
f 424/424/424 425/425/425 426/426/426
f 426/426/426 427/427/427 428/428/428
f 428/428/428 429/429/429 430/430/430
f 430/430/430 431/431/431 432/432/432
f 432/432/432 433/433/433 434/434/434
f 434/434/434 435/435/435 436/436/436
f 436/436/436 437/437/437 438/438/438
f 438/438/438 439/439/439 440/440/440
f 440/440/440 441/441/441 442/442/442
f 442/442/442 443/443/443 444/444/444
f 444/444/444 445/445/445 446/446/446
f 446/446/446 447/447/447 448/448/448
f 448/448/448 449/449/449 450/450/450
f 450/450/450 451/451/451 452/452/452
f 452/452/452 453/453/453 454/454/454
f 454/454/454 455/455/455 456/456/456
f 456/456/456 457/457/457 458/458/458
f 458/458/458 459/459/459 460/460/460
f 460/460/460 461/461/461 462/462/462
f 462/462/462 463/463/463 464/464/464
f 464/464/464 465/465/465 466/466/466
f 466/466/466 467/467/467 468/468/468
f 341/341/341 343/343/343 345/345/345
f 345/345/345 347/347/347 349/349/349
f 349/349/349 351/351/351 353/353/353
f 353/353/353 355/355/355 357/357/357
f 357/357/357 359/359/359 361/361/361
f 361/361/361 363/363/363 365/365/365
f 365/365/365 367/367/367 369/369/369
f 369/369/369 371/371/371 373/373/373
f 373/373/373 375/375/375 377/377/377
f 396/396/396 398/398/398 400/400/400
f 400/400/400 402/402/402 404/404/404
f 404/404/404 406/406/406 408/408/408
f 408/408/408 410/410/410 412/412/412
f 412/412/412 414/414/414 416/416/416
f 416/416/416 418/418/418 420/420/420
f 420/420/420 422/422/422 424/424/424
f 424/424/424 426/426/426 428/428/428
f 428/428/428 430/430/430 432/432/432
f 432/432/432 434/434/434 436/436/436
f 436/436/436 438/438/438 440/440/440
f 440/440/440 442/442/442 444/444/444
f 444/444/444 446/446/446 448/448/448
f 448/448/448 450/450/450 452/452/452
f 452/452/452 454/454/454 456/456/456
f 456/456/456 458/458/458 460/460/460
f 460/460/460 462/462/462 464/464/464
f 464/464/464 466/466/466 468/468/468
f 341/341/341 345/345/345 349/349/349
f 349/349/349 353/353/353 357/357/357
f 357/357/357 361/361/361 365/365/365
f 365/365/365 369/369/369 373/373/373
f 373/373/373 377/377/377 379/379/379
f 396/396/396 400/400/400 404/404/404
f 404/404/404 408/408/408 412/412/412
f 412/412/412 416/416/416 420/420/420
f 420/420/420 424/424/424 428/428/428
f 428/428/428 432/432/432 436/436/436
f 436/436/436 440/440/440 444/444/444
f 444/444/444 448/448/448 452/452/452
f 452/452/452 456/456/456 460/460/460
f 460/460/460 464/464/464 468/468/468
f 341/341/341 349/349/349 357/357/357
f 357/357/357 365/365/365 373/373/373
f 395/395/395 396/396/396 404/404/404
f 404/404/404 412/412/412 420/420/420
f 420/420/420 428/428/428 436/436/436
f 436/436/436 444/444/444 452/452/452
f 452/452/452 460/460/460 468/468/468
f 340/340/340 341/341/341 357/357/357
f 357/357/357 373/373/373 379/379/379
f 395/395/395 404/404/404 420/420/420
f 420/420/420 436/436/436 452/452/452
f 452/452/452 468/468/468 325/325/325
f 340/340/340 357/357/357 379/379/379
f 394/394/394 395/395/395 420/420/420
f 420/420/420 452/452/452 325/325/325
f 339/339/339 340/340/340 379/379/379
f 393/393/393 394/394/394 420/420/420
f 420/420/420 325/325/325 326/326/326
f 338/338/338 339/339/339 379/379/379
f 392/392/392 393/393/393 420/420/420
f 420/420/420 326/326/326 327/327/327
f 337/337/337 338/338/338 379/379/379
f 391/391/391 392/392/392 420/420/420
f 420/420/420 327/327/327 328/328/328
f 336/336/336 337/337/337 379/379/379
f 391/391/391 420/420/420 328/328/328
f 335/335/335 336/336/336 379/379/379
f 390/390/390 391/391/391 328/328/328
f 334/334/334 335/335/335 379/379/379
f 389/389/389 390/390/390 328/328/328
f 333/333/333 334/334/334 379/379/379
f 388/388/388 389/389/389 328/328/328
f 332/332/332 333/333/333 379/379/379
f 387/387/387 388/388/388 328/328/328
f 331/331/331 332/332/332 379/379/379
f 386/386/386 387/387/387 328/328/328
f 330/330/330 331/331/331 379/379/379
f 385/385/385 386/386/386 328/328/328
f 329/329/329 330/330/330 379/379/379
f 384/384/384 385/385/385 328/328/328
f 328/328/328 329/329/329 379/379/379
f 383/383/383 384/384/384 328/328/328
f 328/328/328 379/379/379 380/380/380
f 382/382/382 383/383/383 328/328/328
f 328/328/328 380/380/380 381/381/381
f 381/381/381 382/382/382 328/328/328
f 469/469/469 470/470/470 471/471/471
f 469/469/469 471/471/471 472/472/472
f 473/473/473 474/474/474 475/475/475
f 476/476/476 477/477/477 478/478/478
f 479/479/479 480/480/480 481/481/481
f 482/482/482 483/483/483 484/484/484
f 485/485/485 486/486/486 487/487/487
f 488/488/488 489/489/489 490/490/490
f 491/491/491 492/492/492 493/493/493
f 494/494/494 495/495/495 496/496/496
f 497/497/497 498/498/498 499/499/499
f 500/500/500 501/501/501 502/502/502
f 503/503/503 504/504/504 505/505/505
f 506/506/506 507/507/507 508/508/508
f 509/509/509 510/510/510 511/511/511
f 509/509/509 511/511/511 512/512/512
f 513/513/513 514/514/514 515/515/515
f 513/513/513 515/515/515 516/516/516
f 517/517/517 518/518/518 519/519/519
f 517/517/517 519/519/519 520/520/520
f 521/521/521 522/522/522 523/523/523
f 524/524/524 525/525/525 526/526/526
f 524/524/524 526/526/526 527/527/527
f 528/528/528 529/529/529 530/530/530
f 531/531/531 532/532/532 533/533/533
f 534/534/534 535/535/535 536/536/536
f 537/537/537 538/538/538 539/539/539
f 537/537/537 539/539/539 540/540/540
f 541/541/541 542/542/542 543/543/543
f 541/541/541 543/543/543 544/544/544
f 545/545/545 546/546/546 547/547/547
f 545/545/545 547/547/547 548/548/548
f 549/549/549 550/550/550 551/551/551
f 552/552/552 553/553/553 554/554/554
f 552/552/552 554/554/554 555/555/555
f 556/556/556 557/557/557 558/558/558
f 556/556/556 558/558/558 559/559/559
f 560/560/560 561/561/561 562/562/562
f 560/560/560 562/562/562 563/563/563
f 564/564/564 565/565/565 566/566/566
f 564/564/564 566/566/566 567/567/567
f 568/568/568 569/569/569 570/570/570
f 568/568/568 570/570/570 571/571/571
f 572/572/572 573/573/573 574/574/574
f 572/572/572 574/574/574 575/575/575
f 576/576/576 577/577/577 578/578/578
f 576/576/576 578/578/578 579/579/579
f 580/580/580 581/581/581 582/582/582
f 580/580/580 582/582/582 583/583/583
f 584/584/584 585/585/585 586/586/586
f 584/584/584 586/586/586 587/587/587
f 588/588/588 589/589/589 590/590/590
f 591/591/591 592/592/592 593/593/593
f 591/591/591 593/593/593 594/594/594
f 595/595/595 596/596/596 597/597/597
f 595/595/595 597/597/597 598/598/598
f 599/599/599 600/600/600 601/601/601
f 599/599/599 601/601/601 602/602/602
f 603/603/603 604/604/604 605/605/605
f 603/603/603 605/605/605 606/606/606
f 607/607/607 608/608/608 609/609/609
f 607/607/607 609/609/609 610/610/610
f 611/611/611 612/612/612 613/613/613
f 611/611/611 613/613/613 614/614/614
f 615/615/615 616/616/616 617/617/617
f 615/615/615 617/617/617 618/618/618
f 619/619/619 620/620/620 621/621/621
f 619/619/619 621/621/621 622/622/622
f 623/623/623 624/624/624 625/625/625
f 623/623/623 625/625/625 626/626/626
f 627/627/627 628/628/628 629/629/629
f 627/627/627 629/629/629 630/630/630
f 631/631/631 632/632/632 633/633/633
f 631/631/631 633/633/633 634/634/634
f 635/635/635 636/636/636 637/637/637
f 635/635/635 637/637/637 638/638/638
f 639/639/639 640/640/640 641/641/641
f 639/639/639 641/641/641 642/642/642
f 643/643/643 644/644/644 645/645/645
f 643/643/643 645/645/645 646/646/646
f 647/647/647 648/648/648 649/649/649
f 647/647/647 649/649/649 650/650/650
f 651/651/651 652/652/652 653/653/653
f 651/651/651 653/653/653 654/654/654
f 655/655/655 656/656/656 657/657/657
f 655/655/655 657/657/657 658/658/658
f 659/659/659 660/660/660 661/661/661
f 659/659/659 661/661/661 662/662/662
f 663/663/663 664/664/664 665/665/665
f 666/666/666 667/667/667 668/668/668
f 666/666/666 668/668/668 669/669/669
f 670/670/670 671/671/671 672/672/672
f 670/670/670 672/672/672 673/673/673
f 674/674/674 675/675/675 676/676/676
f 674/674/674 676/676/676 677/677/677
f 678/678/678 679/679/679 680/680/680
f 678/678/678 680/680/680 681/681/681
f 682/682/682 683/683/683 684/684/684
f 685/685/685 686/686/686 687/687/687
f 685/685/685 687/687/687 688/688/688
f 689/689/689 690/690/690 691/691/691
f 689/689/689 691/691/691 692/692/692
f 693/693/693 694/694/694 695/695/695
f 693/693/693 695/695/695 696/696/696
f 697/697/697 698/698/698 699/699/699
f 697/697/697 699/699/699 700/700/700
f 701/701/701 702/702/702 703/703/703
f 701/701/701 703/703/703 704/704/704
f 705/705/705 706/706/706 707/707/707
f 705/705/705 707/707/707 708/708/708
f 709/709/709 710/710/710 711/711/711
f 709/709/709 711/711/711 712/712/712
f 713/713/713 714/714/714 715/715/715
f 713/713/713 715/715/715 716/716/716
f 717/717/717 718/718/718 719/719/719
f 720/720/720 721/721/721 722/722/722
f 720/720/720 722/722/722 723/723/723
f 724/724/724 725/725/725 726/726/726
f 727/727/727 728/728/728 729/729/729
f 730/730/730 731/731/731 732/732/732
f 730/730/730 732/732/732 733/733/733
f 734/734/734 735/735/735 736/736/736
f 734/734/734 736/736/736 737/737/737
f 738/738/738 739/739/739 740/740/740
f 738/738/738 740/740/740 741/741/741
f 742/742/742 743/743/743 744/744/744
f 742/742/742 744/744/744 745/745/745
f 746/746/746 747/747/747 748/748/748
f 746/746/746 748/748/748 749/749/749
f 750/750/750 751/751/751 752/752/752
f 750/750/750 752/752/752 753/753/753
f 754/754/754 755/755/755 756/756/756
f 754/754/754 756/756/756 757/757/757
f 758/758/758 759/759/759 760/760/760
f 758/758/758 760/760/760 761/761/761
f 762/762/762 763/763/763 764/764/764
f 762/762/762 764/764/764 765/765/765
f 766/766/766 767/767/767 768/768/768
f 766/766/766 768/768/768 769/769/769
f 770/770/770 771/771/771 772/772/772
f 770/770/770 772/772/772 773/773/773
f 774/774/774 775/775/775 776/776/776
f 774/774/774 776/776/776 777/777/777
f 778/778/778 779/779/779 780/780/780
f 778/778/778 780/780/780 781/781/781
f 782/782/782 783/783/783 784/784/784
f 782/782/782 784/784/784 785/785/785
f 786/786/786 787/787/787 788/788/788
f 786/786/786 788/788/788 789/789/789
f 790/790/790 791/791/791 792/792/792
f 790/790/790 792/792/792 793/793/793
f 794/794/794 795/795/795 796/796/796
f 797/797/797 798/798/798 799/799/799
f 797/797/797 799/799/799 800/800/800
f 801/801/801 802/802/802 803/803/803
f 801/801/801 803/803/803 804/804/804
f 805/805/805 806/806/806 807/807/807
f 805/805/805 807/807/807 808/808/808
f 809/809/809 810/810/810 811/811/811
f 812/812/812 813/813/813 814/814/814
f 815/815/815 816/816/816 817/817/817
f 818/818/818 819/819/819 820/820/820
f 821/821/821 822/822/822 823/823/823
f 824/824/824 825/825/825 826/826/826
f 827/827/827 828/828/828 829/829/829
f 830/830/830 831/831/831 832/832/832
f 833/833/833 834/834/834 835/835/835
f 836/836/836 837/837/837 838/838/838
f 839/839/839 840/840/840 841/841/841
f 842/842/842 843/843/843 844/844/844
f 845/845/845 846/846/846 847/847/847
f 845/845/845 847/847/847 848/848/848
f 849/849/849 850/850/850 851/851/851
f 849/849/849 851/851/851 852/852/852
f 853/853/853 854/854/854 855/855/855
f 853/853/853 855/855/855 856/856/856
f 857/857/857 858/858/858 859/859/859
f 860/860/860 861/861/861 862/862/862
f 860/860/860 862/862/862 863/863/863
f 864/864/864 865/865/865 866/866/866
f 864/864/864 866/866/866 867/867/867
f 868/868/868 869/869/869 870/870/870
f 868/868/868 870/870/870 871/871/871
f 872/872/872 873/873/873 874/874/874
f 872/872/872 874/874/874 875/875/875
f 876/876/876 877/877/877 878/878/878
f 876/876/876 878/878/878 879/879/879
f 880/880/880 881/881/881 882/882/882
f 883/883/883 884/884/884 885/885/885
f 886/886/886 887/887/887 888/888/888
f 889/889/889 890/890/890 891/891/891
f 892/892/892 893/893/893 894/894/894
f 895/895/895 896/896/896 897/897/897
f 898/898/898 899/899/899 900/900/900
f 901/901/901 902/902/902 903/903/903
f 904/904/904 905/905/905 906/906/906
f 907/907/907 908/908/908 909/909/909
f 910/910/910 911/911/911 912/912/912
f 913/913/913 914/914/914 915/915/915
f 916/916/916 917/917/917 918/918/918
f 919/919/919 920/920/920 921/921/921
f 922/922/922 923/923/923 924/924/924
f 925/925/925 926/926/926 927/927/927
f 928/928/928 929/929/929 930/930/930
f 928/928/928 930/930/930 931/931/931
f 932/932/932 933/933/933 934/934/934
f 932/932/932 934/934/934 935/935/935
f 936/936/936 937/937/937 938/938/938
f 936/936/936 938/938/938 939/939/939
f 940/940/940 941/941/941 942/942/942
f 940/940/940 942/942/942 943/943/943
f 944/944/944 945/945/945 946/946/946
f 944/944/944 946/946/946 947/947/947
f 948/948/948 949/949/949 950/950/950
f 948/948/948 950/950/950 951/951/951
f 952/952/952 953/953/953 954/954/954
f 952/952/952 954/954/954 955/955/955
f 1061/1061/1061 1062/1062/1062 956/956/956
f 956/956/956 957/957/957 958/958/958
f 958/958/958 959/959/959 960/960/960
f 960/960/960 961/961/961 962/962/962
f 962/962/962 963/963/963 964/964/964
f 964/964/964 965/965/965 966/966/966
f 966/966/966 967/967/967 968/968/968
f 968/968/968 969/969/969 970/970/970
f 970/970/970 971/971/971 972/972/972
f 972/972/972 973/973/973 974/974/974
f 974/974/974 975/975/975 976/976/976
f 976/976/976 977/977/977 978/978/978
f 978/978/978 979/979/979 980/980/980
f 980/980/980 981/981/981 982/982/982
f 982/982/982 983/983/983 984/984/984
f 984/984/984 985/985/985 986/986/986
f 986/986/986 987/987/987 988/988/988
f 988/988/988 989/989/989 990/990/990
f 990/990/990 991/991/991 992/992/992
f 992/992/992 993/993/993 994/994/994
f 994/994/994 995/995/995 996/996/996
f 996/996/996 997/997/997 998/998/998
f 998/998/998 999/999/999 1000/1000/1000
f 1000/1000/1000 1001/1001/1001 1002/1002/1002
f 1002/1002/1002 1003/1003/1003 1004/1004/1004
f 1004/1004/1004 1005/1005/1005 1006/1006/1006
f 1006/1006/1006 1007/1007/1007 1008/1008/1008
f 1008/1008/1008 1009/1009/1009 1010/1010/1010
f 1010/1010/1010 1011/1011/1011 1012/1012/1012
f 1012/1012/1012 1013/1013/1013 1014/1014/1014
f 1014/1014/1014 1015/1015/1015 1016/1016/1016
f 1016/1016/1016 1017/1017/1017 1018/1018/1018
f 1018/1018/1018 1019/1019/1019 1020/1020/1020
f 1020/1020/1020 1021/1021/1021 1022/1022/1022
f 1022/1022/1022 1023/1023/1023 1024/1024/1024
f 1024/1024/1024 1025/1025/1025 1026/1026/1026
f 1044/1044/1044 1045/1045/1045 1046/1046/1046
f 1046/1046/1046 1047/1047/1047 1048/1048/1048
f 1048/1048/1048 1049/1049/1049 1050/1050/1050
f 1050/1050/1050 1051/1051/1051 1052/1052/1052
f 1052/1052/1052 1053/1053/1053 1054/1054/1054
f 1054/1054/1054 1055/1055/1055 1056/1056/1056
f 1056/1056/1056 1057/1057/1057 1058/1058/1058
f 1058/1058/1058 1059/1059/1059 1060/1060/1060
f 1060/1060/1060 1061/1061/1061 956/956/956
f 956/956/956 958/958/958 960/960/960
f 960/960/960 962/962/962 964/964/964
f 964/964/964 966/966/966 968/968/968
f 968/968/968 970/970/970 972/972/972
f 972/972/972 974/974/974 976/976/976
f 976/976/976 978/978/978 980/980/980
f 980/980/980 982/982/982 984/984/984
f 984/984/984 986/986/986 988/988/988
f 988/988/988 990/990/990 992/992/992
f 992/992/992 994/994/994 996/996/996
f 996/996/996 998/998/998 1000/1000/1000
f 1000/1000/1000 1002/1002/1002 1004/1004/1004
f 1004/1004/1004 1006/1006/1006 1008/1008/1008
f 1008/1008/1008 1010/1010/1010 1012/1012/1012
f 1012/1012/1012 1014/1014/1014 1016/1016/1016
f 1016/1016/1016 1018/1018/1018 1020/1020/1020
f 1020/1020/1020 1022/1022/1022 1024/1024/1024
f 1024/1024/1024 1026/1026/1026 1027/1027/1027
f 1044/1044/1044 1046/1046/1046 1048/1048/1048
f 1048/1048/1048 1050/1050/1050 1052/1052/1052
f 1052/1052/1052 1054/1054/1054 1056/1056/1056
f 1056/1056/1056 1058/1058/1058 1060/1060/1060
f 1060/1060/1060 956/956/956 960/960/960
f 960/960/960 964/964/964 968/968/968
f 968/968/968 972/972/972 976/976/976
f 976/976/976 980/980/980 984/984/984
f 984/984/984 988/988/988 992/992/992
f 992/992/992 996/996/996 1000/1000/1000
f 1000/1000/1000 1004/1004/1004 1008/1008/1008
f 1008/1008/1008 1012/1012/1012 1016/1016/1016
f 1016/1016/1016 1020/1020/1020 1024/1024/1024
f 1044/1044/1044 1048/1048/1048 1052/1052/1052
f 1052/1052/1052 1056/1056/1056 1060/1060/1060
f 1060/1060/1060 960/960/960 968/968/968
f 968/968/968 976/976/976 984/984/984
f 984/984/984 992/992/992 1000/1000/1000
f 1000/1000/1000 1008/1008/1008 1016/1016/1016
f 1016/1016/1016 1024/1024/1024 1027/1027/1027
f 1044/1044/1044 1052/1052/1052 1060/1060/1060
f 1060/1060/1060 968/968/968 984/984/984
f 984/984/984 1000/1000/1000 1016/1016/1016
f 1043/1043/1043 1044/1044/1044 1060/1060/1060
f 984/984/984 1016/1016/1016 1027/1027/1027
f 1043/1043/1043 1060/1060/1060 984/984/984
f 984/984/984 1027/1027/1027 1028/1028/1028
f 1042/1042/1042 1043/1043/1043 984/984/984
f 984/984/984 1028/1028/1028 1029/1029/1029
f 1041/1041/1041 1042/1042/1042 984/984/984
f 984/984/984 1029/1029/1029 1030/1030/1030
f 1040/1040/1040 1041/1041/1041 984/984/984
f 984/984/984 1030/1030/1030 1031/1031/1031
f 1039/1039/1039 1040/1040/1040 984/984/984
f 984/984/984 1031/1031/1031 1032/1032/1032
f 1038/1038/1038 1039/1039/1039 984/984/984
f 984/984/984 1032/1032/1032 1033/1033/1033
f 1037/1037/1037 1038/1038/1038 984/984/984
f 984/984/984 1033/1033/1033 1034/1034/1034
f 1036/1036/1036 1037/1037/1037 984/984/984
f 984/984/984 1034/1034/1034 1035/1035/1035
f 1035/1035/1035 1036/1036/1036 984/984/984
