# Blender 5.2.0 LTS
# www.blender.org
mtllib ARROW_RIGHT_text.mtl
o ARROW_RIGHT_text
v 0.961710 0.010546 0.306539
v 0.961779 0.010546 0.306626
v 0.961779 0.008674 0.306626
v 0.961710 0.008674 0.306539
v 0.961710 0.010546 0.306539
v 0.961616 0.010546 0.306440
v 0.957111 0.010546 0.301991
v 0.957021 0.010546 0.301888
v 0.956942 0.010546 0.301780
v 0.956875 0.010546 0.301666
v 0.956819 0.010546 0.301547
v 0.956775 0.010546 0.301421
v 0.956743 0.010546 0.301291
v 0.956722 0.010546 0.301155
v 0.956714 0.010546 0.301061
v 0.956711 0.010546 0.300965
v 0.956718 0.010546 0.300822
v 0.956737 0.010546 0.300683
v 0.956768 0.010546 0.300550
v 0.956812 0.010546 0.300420
v 0.956869 0.010546 0.300297
v 0.956938 0.010546 0.300178
v 0.957020 0.010546 0.300064
v 0.957082 0.010546 0.299991
v 0.957149 0.010546 0.299919
v 0.958346 0.010546 0.298722
v 0.958449 0.010546 0.298627
v 0.958558 0.010546 0.298546
v 0.958672 0.010546 0.298475
v 0.958792 0.010546 0.298417
v 0.958917 0.010546 0.298371
v 0.959047 0.010546 0.298337
v 0.959183 0.010546 0.298315
v 0.959277 0.010546 0.298306
v 0.959373 0.010546 0.298304
v 0.959539 0.010546 0.298312
v 0.959676 0.010546 0.298332
v 0.959808 0.010546 0.298364
v 0.959934 0.010546 0.298409
v 0.960054 0.010546 0.298465
v 0.960169 0.010546 0.298533
v 0.960278 0.010546 0.298613
v 0.960331 0.010546 0.298658
v 0.960399 0.010546 0.298722
v 0.968117 0.010546 0.306421
v 0.968207 0.010546 0.306524
v 0.968286 0.010546 0.306634
v 0.968353 0.010546 0.306749
v 0.968408 0.010546 0.306870
v 0.968452 0.010546 0.306998
v 0.968485 0.010546 0.307131
v 0.968508 0.010546 0.307295
v 0.968516 0.010546 0.307467
v 0.968503 0.010546 0.307638
v 0.968478 0.010546 0.307779
v 0.968441 0.010546 0.307916
v 0.968393 0.010546 0.308046
v 0.968332 0.010546 0.308171
v 0.968259 0.010546 0.308291
v 0.968174 0.010546 0.308405
v 0.968060 0.010546 0.308531
v 0.960342 0.010546 0.316249
v 0.960248 0.010546 0.316339
v 0.960147 0.010546 0.316418
v 0.960039 0.010546 0.316487
v 0.959925 0.010546 0.316544
v 0.959804 0.010546 0.316591
v 0.959676 0.010546 0.316626
v 0.959543 0.010546 0.316651
v 0.959450 0.010546 0.316662
v 0.959354 0.010546 0.316667
v 0.959210 0.010546 0.316665
v 0.959072 0.010546 0.316649
v 0.958938 0.010546 0.316622
v 0.958809 0.010546 0.316580
v 0.958685 0.010546 0.316525
v 0.958566 0.010546 0.316458
v 0.958453 0.010546 0.316377
v 0.958379 0.010546 0.316316
v 0.958308 0.010546 0.316249
v 0.957149 0.010546 0.315089
v 0.957058 0.010546 0.314990
v 0.956979 0.010546 0.314883
v 0.956911 0.010546 0.314770
v 0.956853 0.010546 0.314649
v 0.956806 0.010546 0.314521
v 0.956771 0.010546 0.314386
v 0.956743 0.010546 0.314220
v 0.956730 0.010546 0.314043
v 0.956728 0.010546 0.313868
v 0.956740 0.010546 0.313724
v 0.956765 0.010546 0.313588
v 0.956802 0.010546 0.313459
v 0.956842 0.010546 0.313357
v 0.956891 0.010546 0.313260
v 0.956950 0.010546 0.313168
v 0.957016 0.010546 0.313080
v 0.957092 0.010546 0.312998
v 0.961559 0.010546 0.308531
v 0.961662 0.010546 0.308423
v 0.961752 0.010546 0.308310
v 0.961828 0.010546 0.308192
v 0.961892 0.010546 0.308068
v 0.961942 0.010546 0.307938
v 0.961979 0.010546 0.307802
v 0.962003 0.010546 0.307662
v 0.962012 0.010546 0.307566
v 0.962015 0.010546 0.307467
v 0.962012 0.010546 0.307295
v 0.961995 0.010546 0.307155
v 0.961966 0.010546 0.307023
v 0.961933 0.010546 0.306917
v 0.961890 0.010546 0.306816
v 0.961839 0.010546 0.306718
v 0.961779 0.010546 0.306626
v 0.961616 0.010546 0.306440
v 0.961710 0.010546 0.306539
v 0.961710 0.008674 0.306539
v 0.961616 0.008674 0.306440
v 0.961710 0.008674 0.306539
v 0.961779 0.008674 0.306626
v 0.961839 0.008674 0.306718
v 0.961890 0.008674 0.306816
v 0.961933 0.008674 0.306917
v 0.961966 0.008674 0.307023
v 0.961995 0.008674 0.307155
v 0.962012 0.008674 0.307295
v 0.962015 0.008674 0.307467
v 0.962012 0.008674 0.307566
v 0.962003 0.008674 0.307662
v 0.961979 0.008674 0.307802
v 0.961942 0.008674 0.307938
v 0.961892 0.008674 0.308068
v 0.961828 0.008674 0.308192
v 0.961752 0.008674 0.308310
v 0.961662 0.008674 0.308423
v 0.961559 0.008674 0.308531
v 0.957092 0.008674 0.312998
v 0.957016 0.008674 0.313080
v 0.956950 0.008674 0.313168
v 0.956891 0.008674 0.313260
v 0.956842 0.008674 0.313357
v 0.956802 0.008674 0.313459
v 0.956765 0.008674 0.313588
v 0.956740 0.008674 0.313724
v 0.956728 0.008674 0.313868
v 0.956730 0.008674 0.314043
v 0.956743 0.008674 0.314220
v 0.956771 0.008674 0.314386
v 0.956806 0.008674 0.314521
v 0.956853 0.008674 0.314649
v 0.956911 0.008674 0.314770
v 0.956979 0.008674 0.314883
v 0.957058 0.008674 0.314990
v 0.957149 0.008674 0.315089
v 0.958308 0.008674 0.316249
v 0.958379 0.008674 0.316316
v 0.958453 0.008674 0.316377
v 0.958566 0.008674 0.316458
v 0.958685 0.008674 0.316525
v 0.958809 0.008674 0.316580
v 0.958938 0.008674 0.316622
v 0.959072 0.008674 0.316649
v 0.959210 0.008674 0.316665
v 0.959354 0.008674 0.316667
v 0.959450 0.008674 0.316662
v 0.959543 0.008674 0.316651
v 0.959676 0.008674 0.316626
v 0.959804 0.008674 0.316591
v 0.959925 0.008674 0.316544
v 0.960039 0.008674 0.316487
v 0.960147 0.008674 0.316418
v 0.960248 0.008674 0.316339
v 0.960342 0.008674 0.316249
v 0.968060 0.008674 0.308531
v 0.968174 0.008674 0.308405
v 0.968259 0.008674 0.308291
v 0.968332 0.008674 0.308171
v 0.968393 0.008674 0.308046
v 0.968441 0.008674 0.307916
v 0.968478 0.008674 0.307779
v 0.968503 0.008674 0.307638
v 0.968516 0.008674 0.307467
v 0.968508 0.008674 0.307295
v 0.968485 0.008674 0.307131
v 0.968452 0.008674 0.306998
v 0.968408 0.008674 0.306870
v 0.968353 0.008674 0.306749
v 0.968286 0.008674 0.306634
v 0.968207 0.008674 0.306524
v 0.968117 0.008674 0.306421
v 0.960399 0.008674 0.298722
v 0.960331 0.008674 0.298658
v 0.960278 0.008674 0.298613
v 0.960169 0.008674 0.298533
v 0.960054 0.008674 0.298465
v 0.959934 0.008674 0.298409
v 0.959808 0.008674 0.298364
v 0.959676 0.008674 0.298332
v 0.959539 0.008674 0.298312
v 0.959373 0.008674 0.298304
v 0.959277 0.008674 0.298306
v 0.959183 0.008674 0.298315
v 0.959047 0.008674 0.298337
v 0.958917 0.008674 0.298371
v 0.958792 0.008674 0.298417
v 0.958672 0.008674 0.298475
v 0.958558 0.008674 0.298546
v 0.958449 0.008674 0.298627
v 0.958346 0.008674 0.298722
v 0.957149 0.008674 0.299919
v 0.957082 0.008674 0.299991
v 0.957020 0.008674 0.300064
v 0.956938 0.008674 0.300178
v 0.956869 0.008674 0.300297
v 0.956812 0.008674 0.300420
v 0.956768 0.008674 0.300550
v 0.956737 0.008674 0.300683
v 0.956718 0.008674 0.300822
v 0.956711 0.008674 0.300965
v 0.956714 0.008674 0.301061
v 0.956722 0.008674 0.301155
v 0.956743 0.008674 0.301291
v 0.956775 0.008674 0.301421
v 0.956819 0.008674 0.301547
v 0.956875 0.008674 0.301666
v 0.956942 0.008674 0.301780
v 0.957021 0.008674 0.301888
v 0.957111 0.008674 0.301991
v 0.961616 0.008674 0.306440
v 0.961779 0.010546 0.306626
v 0.961839 0.010546 0.306718
v 0.961839 0.008674 0.306718
v 0.961779 0.008674 0.306626
v 0.961839 0.010546 0.306718
v 0.961890 0.010546 0.306816
v 0.961890 0.008674 0.306816
v 0.961839 0.008674 0.306718
v 0.961890 0.010546 0.306816
v 0.961933 0.010546 0.306917
v 0.961933 0.008674 0.306917
v 0.961890 0.008674 0.306816
v 0.961933 0.010546 0.306917
v 0.961966 0.010546 0.307023
v 0.961966 0.008674 0.307023
v 0.961933 0.008674 0.306917
v 0.961966 0.010546 0.307023
v 0.961995 0.010546 0.307155
v 0.961995 0.008674 0.307155
v 0.961966 0.008674 0.307023
v 0.961995 0.010546 0.307155
v 0.962012 0.010546 0.307295
v 0.962012 0.008674 0.307295
v 0.961995 0.008674 0.307155
v 0.962012 0.010546 0.307295
v 0.962015 0.010546 0.307467
v 0.962015 0.008674 0.307467
v 0.962012 0.008674 0.307295
v 0.962015 0.010546 0.307467
v 0.962012 0.010546 0.307566
v 0.962012 0.008674 0.307566
v 0.962015 0.008674 0.307467
v 0.962012 0.010546 0.307566
v 0.962003 0.010546 0.307662
v 0.962003 0.008674 0.307662
v 0.962012 0.008674 0.307566
v 0.962003 0.010546 0.307662
v 0.961979 0.010546 0.307802
v 0.961979 0.008674 0.307802
v 0.962003 0.008674 0.307662
v 0.961979 0.010546 0.307802
v 0.961942 0.010546 0.307938
v 0.961942 0.008674 0.307938
v 0.961979 0.008674 0.307802
v 0.961942 0.010546 0.307938
v 0.961892 0.010546 0.308068
v 0.961892 0.008674 0.308068
v 0.961942 0.008674 0.307938
v 0.961892 0.010546 0.308068
v 0.961828 0.010546 0.308192
v 0.961828 0.008674 0.308192
v 0.961892 0.008674 0.308068
v 0.961828 0.010546 0.308192
v 0.961752 0.010546 0.308310
v 0.961752 0.008674 0.308310
v 0.961828 0.008674 0.308192
v 0.961752 0.010546 0.308310
v 0.961662 0.010546 0.308423
v 0.961662 0.008674 0.308423
v 0.961752 0.008674 0.308310
v 0.961662 0.010546 0.308423
v 0.961559 0.010546 0.308531
v 0.961559 0.008674 0.308531
v 0.961662 0.008674 0.308423
v 0.961559 0.010546 0.308531
v 0.957092 0.010546 0.312998
v 0.957092 0.008674 0.312998
v 0.961559 0.008674 0.308531
v 0.957092 0.010546 0.312998
v 0.957016 0.010546 0.313080
v 0.957016 0.008674 0.313080
v 0.957092 0.008674 0.312998
v 0.957016 0.010546 0.313080
v 0.956950 0.010546 0.313168
v 0.956950 0.008674 0.313168
v 0.957016 0.008674 0.313080
v 0.956950 0.010546 0.313168
v 0.956891 0.010546 0.313260
v 0.956891 0.008674 0.313260
v 0.956950 0.008674 0.313168
v 0.956891 0.010546 0.313260
v 0.956842 0.010546 0.313357
v 0.956842 0.008674 0.313357
v 0.956891 0.008674 0.313260
v 0.956842 0.010546 0.313357
v 0.956802 0.010546 0.313459
v 0.956802 0.008674 0.313459
v 0.956842 0.008674 0.313357
v 0.956802 0.010546 0.313459
v 0.956765 0.010546 0.313588
v 0.956765 0.008674 0.313588
v 0.956802 0.008674 0.313459
v 0.956765 0.010546 0.313588
v 0.956740 0.010546 0.313724
v 0.956740 0.008674 0.313724
v 0.956765 0.008674 0.313588
v 0.956740 0.010546 0.313724
v 0.956728 0.010546 0.313868
v 0.956728 0.008674 0.313868
v 0.956740 0.008674 0.313724
v 0.956728 0.010546 0.313868
v 0.956730 0.010546 0.314043
v 0.956730 0.008674 0.314043
v 0.956728 0.008674 0.313868
v 0.956730 0.010546 0.314043
v 0.956743 0.010546 0.314220
v 0.956743 0.008674 0.314220
v 0.956730 0.008674 0.314043
v 0.956743 0.010546 0.314220
v 0.956771 0.010546 0.314386
v 0.956771 0.008674 0.314386
v 0.956743 0.008674 0.314220
v 0.956771 0.010546 0.314386
v 0.956806 0.010546 0.314521
v 0.956806 0.008674 0.314521
v 0.956771 0.008674 0.314386
v 0.956806 0.010546 0.314521
v 0.956853 0.010546 0.314649
v 0.956853 0.008674 0.314649
v 0.956806 0.008674 0.314521
v 0.956853 0.010546 0.314649
v 0.956911 0.010546 0.314770
v 0.956911 0.008674 0.314770
v 0.956853 0.008674 0.314649
v 0.956911 0.010546 0.314770
v 0.956979 0.010546 0.314883
v 0.956979 0.008674 0.314883
v 0.956911 0.008674 0.314770
v 0.956979 0.010546 0.314883
v 0.957058 0.010546 0.314990
v 0.957058 0.008674 0.314990
v 0.956979 0.008674 0.314883
v 0.957058 0.010546 0.314990
v 0.957149 0.010546 0.315089
v 0.957149 0.008674 0.315089
v 0.957058 0.008674 0.314990
v 0.957149 0.010546 0.315089
v 0.958308 0.010546 0.316249
v 0.958308 0.008674 0.316249
v 0.957149 0.008674 0.315089
v 0.958308 0.010546 0.316249
v 0.958379 0.010546 0.316316
v 0.958379 0.008674 0.316316
v 0.958308 0.008674 0.316249
v 0.958379 0.010546 0.316316
v 0.958453 0.010546 0.316377
v 0.958453 0.008674 0.316377
v 0.958379 0.008674 0.316316
v 0.958453 0.010546 0.316377
v 0.958566 0.010546 0.316458
v 0.958566 0.008674 0.316458
v 0.958453 0.008674 0.316377
v 0.958566 0.010546 0.316458
v 0.958685 0.010546 0.316525
v 0.958685 0.008674 0.316525
v 0.958566 0.008674 0.316458
v 0.958685 0.010546 0.316525
v 0.958809 0.010546 0.316580
v 0.958809 0.008674 0.316580
v 0.958685 0.008674 0.316525
v 0.958809 0.010546 0.316580
v 0.958938 0.010546 0.316622
v 0.958938 0.008674 0.316622
v 0.958809 0.008674 0.316580
v 0.958938 0.010546 0.316622
v 0.959072 0.010546 0.316649
v 0.959072 0.008674 0.316649
v 0.958938 0.008674 0.316622
v 0.959072 0.010546 0.316649
v 0.959210 0.010546 0.316665
v 0.959210 0.008674 0.316665
v 0.959072 0.008674 0.316649
v 0.959210 0.010546 0.316665
v 0.959354 0.010546 0.316667
v 0.959354 0.008674 0.316667
v 0.959210 0.008674 0.316665
v 0.959354 0.010546 0.316667
v 0.959450 0.010546 0.316662
v 0.959450 0.008674 0.316662
v 0.959354 0.008674 0.316667
v 0.959450 0.010546 0.316662
v 0.959543 0.010546 0.316651
v 0.959543 0.008674 0.316651
v 0.959450 0.008674 0.316662
v 0.959543 0.010546 0.316651
v 0.959676 0.010546 0.316626
v 0.959676 0.008674 0.316626
v 0.959543 0.008674 0.316651
v 0.959676 0.010546 0.316626
v 0.959804 0.010546 0.316591
v 0.959804 0.008674 0.316591
v 0.959676 0.008674 0.316626
v 0.959804 0.010546 0.316591
v 0.959925 0.010546 0.316544
v 0.959925 0.008674 0.316544
v 0.959804 0.008674 0.316591
v 0.959925 0.010546 0.316544
v 0.960039 0.010546 0.316487
v 0.960039 0.008674 0.316487
v 0.959925 0.008674 0.316544
v 0.960039 0.010546 0.316487
v 0.960147 0.010546 0.316418
v 0.960147 0.008674 0.316418
v 0.960039 0.008674 0.316487
v 0.960147 0.010546 0.316418
v 0.960248 0.010546 0.316339
v 0.960248 0.008674 0.316339
v 0.960147 0.008674 0.316418
v 0.960248 0.010546 0.316339
v 0.960342 0.010546 0.316249
v 0.960342 0.008674 0.316249
v 0.960248 0.008674 0.316339
v 0.960342 0.010546 0.316249
v 0.968060 0.010546 0.308531
v 0.968060 0.008674 0.308531
v 0.960342 0.008674 0.316249
v 0.968060 0.010546 0.308531
v 0.968174 0.010546 0.308405
v 0.968174 0.008674 0.308405
v 0.968060 0.008674 0.308531
v 0.968174 0.010546 0.308405
v 0.968259 0.010546 0.308291
v 0.968259 0.008674 0.308291
v 0.968174 0.008674 0.308405
v 0.968259 0.010546 0.308291
v 0.968332 0.010546 0.308171
v 0.968332 0.008674 0.308171
v 0.968259 0.008674 0.308291
v 0.968332 0.010546 0.308171
v 0.968393 0.010546 0.308046
v 0.968393 0.008674 0.308046
v 0.968332 0.008674 0.308171
v 0.968393 0.010546 0.308046
v 0.968441 0.010546 0.307916
v 0.968441 0.008674 0.307916
v 0.968393 0.008674 0.308046
v 0.968441 0.010546 0.307916
v 0.968478 0.010546 0.307779
v 0.968478 0.008674 0.307779
v 0.968441 0.008674 0.307916
v 0.968478 0.010546 0.307779
v 0.968503 0.010546 0.307638
v 0.968503 0.008674 0.307638
v 0.968478 0.008674 0.307779
v 0.968503 0.010546 0.307638
v 0.968516 0.010546 0.307467
v 0.968516 0.008674 0.307467
v 0.968503 0.008674 0.307638
v 0.968516 0.010546 0.307467
v 0.968508 0.010546 0.307295
v 0.968508 0.008674 0.307295
v 0.968516 0.008674 0.307467
v 0.968508 0.010546 0.307295
v 0.968485 0.010546 0.307131
v 0.968485 0.008674 0.307131
v 0.968508 0.008674 0.307295
v 0.968485 0.010546 0.307131
v 0.968452 0.010546 0.306998
v 0.968452 0.008674 0.306998
v 0.968485 0.008674 0.307131
v 0.968452 0.010546 0.306998
v 0.968408 0.010546 0.306870
v 0.968408 0.008674 0.306870
v 0.968452 0.008674 0.306998
v 0.968408 0.010546 0.306870
v 0.968353 0.010546 0.306749
v 0.968353 0.008674 0.306749
v 0.968408 0.008674 0.306870
v 0.968353 0.010546 0.306749
v 0.968286 0.010546 0.306634
v 0.968286 0.008674 0.306634
v 0.968353 0.008674 0.306749
v 0.968286 0.010546 0.306634
v 0.968207 0.010546 0.306524
v 0.968207 0.008674 0.306524
v 0.968286 0.008674 0.306634
v 0.968207 0.010546 0.306524
v 0.968117 0.010546 0.306421
v 0.968117 0.008674 0.306421
v 0.968207 0.008674 0.306524
v 0.968117 0.010546 0.306421
v 0.960399 0.010546 0.298722
v 0.960399 0.008674 0.298722
v 0.968117 0.008674 0.306421
v 0.960399 0.010546 0.298722
v 0.960331 0.010546 0.298658
v 0.960331 0.008674 0.298658
v 0.960399 0.008674 0.298722
v 0.960331 0.010546 0.298658
v 0.960278 0.010546 0.298613
v 0.960278 0.008674 0.298613
v 0.960331 0.008674 0.298658
v 0.960278 0.010546 0.298613
v 0.960169 0.010546 0.298533
v 0.960169 0.008674 0.298533
v 0.960278 0.008674 0.298613
v 0.960169 0.010546 0.298533
v 0.960054 0.010546 0.298465
v 0.960054 0.008674 0.298465
v 0.960169 0.008674 0.298533
v 0.960054 0.010546 0.298465
v 0.959934 0.010546 0.298409
v 0.959934 0.008674 0.298409
v 0.960054 0.008674 0.298465
v 0.959934 0.010546 0.298409
v 0.959808 0.010546 0.298364
v 0.959808 0.008674 0.298364
v 0.959934 0.008674 0.298409
v 0.959808 0.010546 0.298364
v 0.959676 0.010546 0.298332
v 0.959676 0.008674 0.298332
v 0.959808 0.008674 0.298364
v 0.959676 0.010546 0.298332
v 0.959539 0.010546 0.298312
v 0.959539 0.008674 0.298312
v 0.959676 0.008674 0.298332
v 0.959539 0.010546 0.298312
v 0.959373 0.010546 0.298304
v 0.959373 0.008674 0.298304
v 0.959539 0.008674 0.298312
v 0.959373 0.010546 0.298304
v 0.959277 0.010546 0.298306
v 0.959277 0.008674 0.298306
v 0.959373 0.008674 0.298304
v 0.959277 0.010546 0.298306
v 0.959183 0.010546 0.298315
v 0.959183 0.008674 0.298315
v 0.959277 0.008674 0.298306
v 0.959183 0.010546 0.298315
v 0.959047 0.010546 0.298337
v 0.959047 0.008674 0.298337
v 0.959183 0.008674 0.298315
v 0.959047 0.010546 0.298337
v 0.958917 0.010546 0.298371
v 0.958917 0.008674 0.298371
v 0.959047 0.008674 0.298337
v 0.958917 0.010546 0.298371
v 0.958792 0.010546 0.298417
v 0.958792 0.008674 0.298417
v 0.958917 0.008674 0.298371
v 0.958792 0.010546 0.298417
v 0.958672 0.010546 0.298475
v 0.958672 0.008674 0.298475
v 0.958792 0.008674 0.298417
v 0.958672 0.010546 0.298475
v 0.958558 0.010546 0.298546
v 0.958558 0.008674 0.298546
v 0.958672 0.008674 0.298475
v 0.958558 0.010546 0.298546
v 0.958449 0.010546 0.298627
v 0.958449 0.008674 0.298627
v 0.958558 0.008674 0.298546
v 0.958449 0.010546 0.298627
v 0.958346 0.010546 0.298722
v 0.958346 0.008674 0.298722
v 0.958449 0.008674 0.298627
v 0.958346 0.010546 0.298722
v 0.957149 0.010546 0.299919
v 0.957149 0.008674 0.299919
v 0.958346 0.008674 0.298722
v 0.957149 0.010546 0.299919
v 0.957082 0.010546 0.299991
v 0.957082 0.008674 0.299991
v 0.957149 0.008674 0.299919
v 0.957082 0.010546 0.299991
v 0.957020 0.010546 0.300064
v 0.957020 0.008674 0.300064
v 0.957082 0.008674 0.299991
v 0.957020 0.010546 0.300064
v 0.956938 0.010546 0.300178
v 0.956938 0.008674 0.300178
v 0.957020 0.008674 0.300064
v 0.956938 0.010546 0.300178
v 0.956869 0.010546 0.300297
v 0.956869 0.008674 0.300297
v 0.956938 0.008674 0.300178
v 0.956869 0.010546 0.300297
v 0.956812 0.010546 0.300420
v 0.956812 0.008674 0.300420
v 0.956869 0.008674 0.300297
v 0.956812 0.010546 0.300420
v 0.956768 0.010546 0.300550
v 0.956768 0.008674 0.300550
v 0.956812 0.008674 0.300420
v 0.956768 0.010546 0.300550
v 0.956737 0.010546 0.300683
v 0.956737 0.008674 0.300683
v 0.956768 0.008674 0.300550
v 0.956737 0.010546 0.300683
v 0.956718 0.010546 0.300822
v 0.956718 0.008674 0.300822
v 0.956737 0.008674 0.300683
v 0.956718 0.010546 0.300822
v 0.956711 0.010546 0.300965
v 0.956711 0.008674 0.300965
v 0.956718 0.008674 0.300822
v 0.956711 0.010546 0.300965
v 0.956714 0.010546 0.301061
v 0.956714 0.008674 0.301061
v 0.956711 0.008674 0.300965
v 0.956714 0.010546 0.301061
v 0.956722 0.010546 0.301155
v 0.956722 0.008674 0.301155
v 0.956714 0.008674 0.301061
v 0.956722 0.010546 0.301155
v 0.956743 0.010546 0.301291
v 0.956743 0.008674 0.301291
v 0.956722 0.008674 0.301155
v 0.956743 0.010546 0.301291
v 0.956775 0.010546 0.301421
v 0.956775 0.008674 0.301421
v 0.956743 0.008674 0.301291
v 0.956775 0.010546 0.301421
v 0.956819 0.010546 0.301547
v 0.956819 0.008674 0.301547
v 0.956775 0.008674 0.301421
v 0.956819 0.010546 0.301547
v 0.956875 0.010546 0.301666
v 0.956875 0.008674 0.301666
v 0.956819 0.008674 0.301547
v 0.956875 0.010546 0.301666
v 0.956942 0.010546 0.301780
v 0.956942 0.008674 0.301780
v 0.956875 0.008674 0.301666
v 0.956942 0.010546 0.301780
v 0.957021 0.010546 0.301888
v 0.957021 0.008674 0.301888
v 0.956942 0.008674 0.301780
v 0.957021 0.010546 0.301888
v 0.957111 0.010546 0.301991
v 0.957111 0.008674 0.301991
v 0.957021 0.008674 0.301888
v 0.957111 0.010546 0.301991
v 0.961616 0.010546 0.306440
v 0.961616 0.008674 0.306440
v 0.957111 0.008674 0.301991
vn -0.5425 0.6969 0.4691
vn -0.5827 -0.6972 0.4175
vn -0.5827 0.6972 0.4175
vn -0.5423 -0.6969 0.4693
vn -0.5075 0.7034 0.4976
vn -0.5612 0.6968 0.4467
vn -0.5210 0.6989 0.4901
vn -0.6354 0.6965 0.3333
vn -0.6008 0.6965 0.3923
vn -0.6872 0.6966 0.2061
vn -0.6646 0.6962 0.2713
vn -0.7102 0.6990 0.0839
vn -0.7028 0.6971 0.1416
vn -0.7150 0.6991 -0.0061
vn -0.7122 0.7009 0.0386
vn -0.7056 0.6964 -0.1310
vn -0.7143 0.6969 -0.0644
vn -0.6669 0.6960 -0.2661
vn -0.6897 0.6963 -0.1984
vn -0.6026 0.6962 -0.3900
vn -0.6373 0.6960 -0.3308
vn -0.5326 0.7004 -0.4751
vn -0.5649 0.6986 -0.4392
vn -0.4922 0.7021 -0.5145
vn -0.5092 0.7039 -0.4952
vn -0.4053 0.6964 -0.5922
vn -0.4592 0.6967 -0.5511
vn -0.2820 0.6962 -0.6602
vn -0.3460 0.6959 -0.6292
vn -0.1482 0.6965 -0.7020
vn -0.2154 0.6962 -0.6847
vn -0.0403 0.7006 -0.7124
vn -0.0877 0.6988 -0.7100
vn 0.0692 0.6963 -0.7144
vn 0.0077 0.6986 -0.7155
vn 0.2044 0.6962 -0.6882
vn 0.1372 0.6967 -0.7042
vn 0.3352 0.6961 -0.6349
vn 0.2711 0.6960 -0.6649
vn 0.4427 0.6990 -0.5615
vn 0.3956 0.6961 -0.5991
vn 0.4944 0.7038 -0.5101
vn 0.4751 0.7012 -0.5316
vn 0.5624 0.6964 -0.4458
vn 0.5217 0.6994 -0.4884
vn 0.6376 0.6963 -0.3297
vn 0.6025 0.6962 -0.3902
vn 0.6882 0.6966 -0.2027
vn 0.6661 0.6964 -0.2669
vn 0.7147 0.6962 -0.0673
vn 0.7046 0.6964 -0.1362
vn 0.7118 0.6966 0.0895
vn 0.7206 0.6933 0.0116
vn 0.6832 0.6966 0.2190
vn 0.7001 0.6969 0.1554
vn 0.6292 0.6968 0.3443
vn 0.6596 0.6965 0.2826
vn 0.5543 0.6965 0.4557
vn 0.5947 0.6966 0.4013
vn 0.4962 0.7046 0.5072
vn 0.5164 0.7014 0.4912
vn 0.4147 0.6961 0.5861
vn 0.4700 0.6960 0.5428
vn 0.2908 0.6962 0.6563
vn 0.3545 0.6960 0.6245
vn 0.1610 0.6972 0.6985
vn 0.2256 0.6964 0.6813
vn 0.0599 0.7013 0.7104
vn 0.1045 0.6992 0.7073
vn -0.0443 0.6965 0.7161
vn 0.0153 0.6991 0.7149
vn -0.1844 0.6955 0.6944
vn -0.1133 0.6961 0.7089
vn -0.3228 0.6957 0.6417
vn -0.2554 0.6957 0.6714
vn -0.4369 0.6982 0.5671
vn -0.3860 0.6961 0.6054
vn -0.4952 0.7038 0.5094
vn -0.4742 0.7003 0.5335
vn -0.5538 0.6963 0.4567
vn -0.5155 0.7018 0.4918
vn -0.6324 0.6962 0.3398
vn -0.5959 0.6962 0.4003
vn -0.6847 0.6966 0.2144
vn -0.6617 0.6966 0.2773
vn -0.7119 0.6971 0.0852
vn -0.7016 0.6967 0.1497
vn -0.7171 0.6965 -0.0258
vn -0.7134 0.7001 0.0303
vn -0.6994 0.6959 -0.1630
vn -0.7115 0.6964 -0.0936
vn -0.6538 0.6972 -0.2942
vn -0.6796 0.6961 -0.2315
vn -0.5891 0.6969 -0.4090
vn -0.6242 0.6967 -0.3535
vn -0.5143 0.7021 -0.4924
vn -0.5497 0.6972 -0.4601
vn -0.5075 0.7045 -0.4961
vn -0.5426 0.6967 0.4691
vn -0.5828 0.6971 0.4175
vn -0.6177 0.6971 0.3639
vn -0.5406 0.6968 -0.4714
vn -0.6479 0.6970 0.3073
vn -0.5834 0.6962 -0.4183
vn -0.6729 0.6970 0.2479
vn -0.6221 0.6960 -0.3587
vn -0.6553 0.6957 -0.2943
vn -0.6931 0.6966 0.1855
vn -0.6819 0.6957 -0.2259
vn -0.7078 0.6964 0.1188
vn -0.7007 0.6962 -0.1557
vn -0.7162 0.6961 0.0490
vn -0.7098 0.6983 -0.0927
vn -0.7128 0.7014 -0.0037
vn -0.7126 0.7002 -0.0431
vn -0.5074 0.7035 0.4976
vn -0.5074 -0.7035 0.4976
vn -0.5071 -0.7047 -0.4962
vn -0.5498 -0.6972 -0.4600
vn -0.5146 -0.7020 -0.4923
vn -0.6243 -0.6966 -0.3535
vn -0.5891 -0.6969 -0.4090
vn -0.6793 -0.6962 -0.2321
vn -0.6538 -0.6971 -0.2943
vn -0.7115 -0.6965 -0.0934
vn -0.6994 -0.6959 -0.1630
vn -0.7134 -0.7001 0.0303
vn -0.7171 -0.6965 -0.0258
vn -0.7012 -0.6971 0.1499
vn -0.7119 -0.6971 0.0850
vn -0.6617 -0.6966 0.2774
vn -0.6846 -0.6966 0.2145
vn -0.5959 -0.6962 0.4004
vn -0.6324 -0.6961 0.3398
vn -0.5155 -0.7017 0.4918
vn -0.5538 -0.6963 0.4567
vn -0.4742 -0.7003 0.5336
vn -0.4951 -0.7038 0.5095
vn -0.3860 -0.6960 0.6054
vn -0.4370 -0.6983 0.5669
vn -0.2554 -0.6957 0.6713
vn -0.3226 -0.6958 0.6416
vn -0.1133 -0.6963 0.7088
vn -0.1845 -0.6955 0.6944
vn 0.0153 -0.6992 0.7147
vn -0.0443 -0.6965 0.7162
vn 0.1045 -0.6992 0.7073
vn 0.0599 -0.7009 0.7107
vn 0.2256 -0.6964 0.6813
vn 0.1611 -0.6971 0.6987
vn 0.3544 -0.6959 0.6246
vn 0.2907 -0.6964 0.6561
vn 0.4701 -0.6961 0.5427
vn 0.4147 -0.6962 0.5860
vn 0.5165 -0.7015 0.4911
vn 0.4962 -0.7046 0.5072
vn 0.5947 -0.6966 0.4013
vn 0.5543 -0.6965 0.4556
vn 0.6599 -0.6962 0.2825
vn 0.6292 -0.6968 0.3442
vn 0.7000 -0.6971 0.1554
vn 0.6832 -0.6967 0.2188
vn 0.7206 -0.6933 0.0116
vn 0.7118 -0.6967 0.0895
vn 0.7045 -0.6965 -0.1361
vn 0.7146 -0.6963 -0.0672
vn 0.6663 -0.6963 -0.2666
vn 0.6882 -0.6967 -0.2026
vn 0.6021 -0.6965 -0.3903
vn 0.6374 -0.6964 -0.3297
vn 0.5218 -0.6994 -0.4884
vn 0.5623 -0.6964 -0.4458
vn 0.4751 -0.7012 -0.5315
vn 0.4944 -0.7038 -0.5101
vn 0.3956 -0.6961 -0.5992
vn 0.4430 -0.6992 -0.5611
vn 0.2707 -0.6960 -0.6650
vn 0.3357 -0.6960 -0.6348
vn 0.1373 -0.6966 -0.7042
vn 0.2045 -0.6963 -0.6880
vn 0.0076 -0.6984 -0.7156
vn 0.0692 -0.6963 -0.7144
vn -0.0877 -0.6987 -0.7100
vn -0.0404 -0.7008 -0.7123
vn -0.2154 -0.6961 -0.6848
vn -0.1482 -0.6965 -0.7021
vn -0.3460 -0.6960 -0.6292
vn -0.2817 -0.6962 -0.6603
vn -0.4592 -0.6966 -0.5512
vn -0.4053 -0.6964 -0.5922
vn -0.5093 -0.7039 -0.4952
vn -0.4924 -0.7022 -0.5144
vn -0.5649 -0.6985 -0.4393
vn -0.5326 -0.7006 -0.4750
vn -0.6371 -0.6963 -0.3305
vn -0.6022 -0.6965 -0.3901
vn -0.6899 -0.6962 -0.1983
vn -0.6670 -0.6959 -0.2662
vn -0.7142 -0.6970 -0.0645
vn -0.7055 -0.6964 -0.1311
vn -0.7122 -0.7009 0.0386
vn -0.7150 -0.6991 -0.0061
vn -0.7030 -0.6971 0.1411
vn -0.7102 -0.6989 0.0838
vn -0.6645 -0.6962 0.2714
vn -0.6872 -0.6966 0.2060
vn -0.6008 -0.6965 0.3923
vn -0.6354 -0.6965 0.3334
vn -0.5210 -0.6989 0.4901
vn -0.5612 -0.6968 0.4466
vn -0.5075 -0.7034 0.4976
vn -0.5405 -0.6970 -0.4713
vn -0.5835 -0.6959 -0.4187
vn -0.6221 -0.6959 -0.3588
vn -0.5423 -0.6968 0.4694
vn -0.6554 -0.6957 -0.2940
vn -0.5827 -0.6971 0.4177
vn -0.6820 -0.6956 -0.2257
vn -0.6176 -0.6971 0.3641
vn -0.6478 -0.6970 0.3073
vn -0.7009 -0.6960 -0.1560
vn -0.6727 -0.6972 0.2480
vn -0.7097 -0.6983 -0.0929
vn -0.6930 -0.6967 0.1856
vn -0.7126 -0.7002 -0.0430
vn -0.7078 -0.6964 0.1190
vn -0.7127 -0.7015 -0.0038
vn -0.7162 -0.6961 0.0490
vn -0.5827 0.6973 0.4174
vn -0.6175 -0.6973 0.3640
vn -0.6176 0.6972 0.3639
vn -0.5827 -0.6972 0.4176
vn -0.6176 0.6973 0.3639
vn -0.6477 -0.6972 0.3072
vn -0.6478 0.6971 0.3073
vn -0.6177 -0.6971 0.3640
vn -0.6478 0.6971 0.3072
vn -0.6726 -0.6972 0.2480
vn -0.6726 0.6972 0.2479
vn -0.6727 0.6971 0.2479
vn -0.6929 -0.6968 0.1854
vn -0.6929 0.6967 0.1856
vn -0.6726 -0.6973 0.2479
vn -0.6929 0.6968 0.1854
vn -0.7077 -0.6965 0.1189
vn -0.7076 0.6965 0.1189
vn -0.7077 0.6965 0.1188
vn -0.7161 -0.6962 0.0490
vn -0.7161 0.6962 0.0491
vn -0.7077 -0.6965 0.1188
vn -0.7161 0.6963 0.0490
vn -0.7126 -0.7016 -0.0038
vn -0.7126 0.7015 -0.0035
vn -0.7161 -0.6963 0.0489
vn -0.7126 0.7016 -0.0036
vn -0.7125 -0.7004 -0.0431
vn -0.7125 0.7004 -0.0431
vn -0.7096 -0.6984 -0.0929
vn -0.7097 0.6984 -0.0926
vn -0.7007 -0.6962 -0.1560
vn -0.7006 0.6964 -0.1556
vn -0.7096 -0.6985 -0.0929
vn -0.6819 -0.6958 -0.2257
vn -0.6818 0.6959 -0.2257
vn -0.7007 -0.6962 -0.1561
vn -0.6817 0.6959 -0.2258
vn -0.6552 -0.6959 -0.2940
vn -0.6552 0.6958 -0.2942
vn -0.6219 -0.6961 -0.3587
vn -0.6220 0.6960 -0.3586
vn -0.6552 -0.6958 -0.2941
vn -0.6219 0.6961 -0.3587
vn -0.5833 -0.6961 -0.4185
vn -0.5833 0.6964 -0.4181
vn -0.6219 -0.6960 -0.3588
vn -0.5405 -0.6970 -0.4712
vn -0.5406 0.6969 -0.4712
vn -0.5833 -0.6961 -0.4186
vn -0.5071 -0.7046 -0.4963
vn -0.5134 0.7048 -0.4896
vn -0.5404 -0.6971 -0.4712
vn -0.5074 0.7047 -0.4960
vn -0.5145 -0.7021 -0.4922
vn -0.5142 0.7023 -0.4923
vn -0.5017 -0.7047 -0.5017
vn -0.5143 0.7023 -0.4923
vn -0.5497 -0.6974 -0.4599
vn -0.5496 0.6974 -0.4600
vn -0.5146 -0.7021 -0.4921
vn -0.5497 0.6973 -0.4600
vn -0.5890 -0.6970 -0.4090
vn -0.5889 0.6971 -0.4090
vn -0.5889 0.6971 -0.4089
vn -0.6241 -0.6968 -0.3535
vn -0.6242 0.6968 -0.3534
vn -0.5890 -0.6970 -0.4089
vn -0.6242 0.6968 -0.3533
vn -0.6537 -0.6972 -0.2942
vn -0.6536 0.6974 -0.2942
vn -0.6241 -0.6969 -0.3534
vn -0.6536 0.6973 -0.2941
vn -0.6793 -0.6963 -0.2320
vn -0.6794 0.6962 -0.2315
vn -0.6536 -0.6973 -0.2941
vn -0.6794 0.6963 -0.2314
vn -0.6992 -0.6961 -0.1630
vn -0.6992 0.6961 -0.1631
vn -0.6793 -0.6962 -0.2319
vn -0.6992 0.6961 -0.1630
vn -0.7113 -0.6966 -0.0934
vn -0.7113 0.6966 -0.0936
vn -0.7114 0.6966 -0.0936
vn -0.7169 -0.6967 -0.0258
vn -0.7169 0.6967 -0.0259
vn -0.7169 0.6967 -0.0258
vn -0.7132 -0.7003 0.0303
vn -0.7132 0.7003 0.0303
vn -0.7132 0.7003 0.0304
vn -0.7118 -0.6972 0.0850
vn -0.7117 0.6973 0.0852
vn -0.7132 -0.7003 0.0304
vn -0.7011 -0.6972 0.1498
vn -0.7015 0.6968 0.1497
vn -0.7118 -0.6972 0.0851
vn -0.6845 -0.6968 0.2144
vn -0.6845 0.6968 0.2144
vn -0.7011 -0.6972 0.1499
vn -0.6615 -0.6967 0.2774
vn -0.6616 0.6967 0.2773
vn -0.6845 -0.6968 0.2145
vn -0.6615 0.6968 0.2773
vn -0.6323 -0.6962 0.3397
vn -0.6323 0.6963 0.3397
vn -0.6322 0.6963 0.3398
vn -0.5958 -0.6963 0.4002
vn -0.5958 0.6963 0.4002
vn -0.6323 -0.6963 0.3398
vn -0.5958 0.6963 0.4003
vn -0.5537 -0.6964 0.4566
vn -0.5537 0.6964 0.4566
vn -0.5958 -0.6963 0.4003
vn -0.5155 -0.7018 0.4917
vn -0.5153 0.7020 0.4916
vn -0.5536 -0.6965 0.4566
vn -0.5154 0.7019 0.4917
vn -0.4951 -0.7039 0.5093
vn -0.4950 0.7039 0.5094
vn -0.5155 -0.7019 0.4916
vn -0.4950 0.7040 0.5093
vn -0.4741 -0.7005 0.5334
vn -0.4951 -0.7038 0.5094
vn -0.4368 -0.6984 0.5669
vn -0.4367 0.6985 0.5668
vn -0.4742 -0.7005 0.5334
vn -0.4368 0.6984 0.5670
vn -0.3860 -0.6961 0.6054
vn -0.3859 0.6962 0.6053
vn -0.4368 -0.6986 0.5668
vn -0.3858 0.6962 0.6054
vn -0.3226 -0.6960 0.6415
vn -0.3228 0.6958 0.6416
vn -0.3228 0.6959 0.6416
vn -0.2555 -0.6958 0.6713
vn -0.2553 0.6959 0.6712
vn -0.3225 -0.6961 0.6415
vn -0.1845 -0.6958 0.6942
vn -0.2554 -0.6957 0.6714
vn -0.1844 0.6956 0.6943
vn -0.1133 -0.6965 0.7086
vn -0.1133 0.6963 0.7088
vn -0.1845 -0.6956 0.6943
vn -0.1133 0.6962 0.7088
vn -0.0443 -0.6966 0.7161
vn -0.0443 0.6967 0.7160
vn -0.1132 -0.6965 0.7085
vn 0.0153 -0.6993 0.7147
vn 0.0153 0.6994 0.7146
vn -0.0443 -0.6968 0.7159
vn 0.0599 -0.7009 0.7108
vn 0.0599 0.7016 0.7101
vn 0.0153 -0.6996 0.7144
vn 0.0599 0.7014 0.7102
vn 0.1045 -0.6992 0.7072
vn 0.1044 0.6993 0.7072
vn 0.0599 -0.7011 0.7105
vn 0.1046 0.6993 0.7072
vn 0.1609 -0.6973 0.6985
vn 0.1609 0.6974 0.6984
vn 0.1046 -0.6992 0.7072
vn 0.1610 0.6974 0.6984
vn 0.2255 -0.6965 0.6812
vn 0.2255 0.6965 0.6812
vn 0.1610 -0.6972 0.6986
vn 0.2256 0.6966 0.6811
vn 0.2906 -0.6966 0.6560
vn 0.2907 0.6963 0.6563
vn 0.2257 -0.6965 0.6812
vn 0.2908 0.6964 0.6561
vn 0.3543 -0.6961 0.6244
vn 0.3544 0.6961 0.6244
vn 0.2906 -0.6964 0.6561
vn 0.4146 -0.6963 0.5858
vn 0.4147 0.6962 0.5860
vn 0.3544 -0.6961 0.6244
vn 0.4147 0.6962 0.5859
vn 0.4699 -0.6962 0.5426
vn 0.4700 0.6961 0.5427
vn 0.4147 -0.6963 0.5858
vn 0.4700 0.6962 0.5426
vn 0.4962 -0.7047 0.5072
vn 0.4906 0.7048 0.5125
vn 0.4699 -0.6963 0.5426
vn 0.4961 0.7047 0.5071
vn 0.5163 -0.7016 0.4911
vn 0.5163 0.7016 0.4911
vn 0.5017 -0.7048 0.5016
vn 0.5542 -0.6966 0.4555
vn 0.5542 0.6967 0.4555
vn 0.5164 -0.7015 0.4910
vn 0.5543 0.6966 0.4555
vn 0.5946 -0.6967 0.4013
vn 0.5945 0.6968 0.4013
vn 0.5542 -0.6967 0.4555
vn 0.5946 0.6967 0.4013
vn 0.6291 -0.6969 0.3442
vn 0.6291 0.6970 0.3442
vn 0.5946 -0.6968 0.4012
vn 0.6292 0.6970 0.3441
vn 0.6598 -0.6963 0.2825
vn 0.6594 0.6966 0.2826
vn 0.6291 -0.6970 0.3441
vn 0.6595 0.6966 0.2825
vn 0.6830 -0.6969 0.2188
vn 0.6830 0.6968 0.2189
vn 0.6598 -0.6964 0.2824
vn 0.6831 0.6968 0.2189
vn 0.6998 -0.6972 0.1554
vn 0.7000 0.6970 0.1553
vn 0.6830 -0.6968 0.2188
vn 0.7116 -0.6968 0.0895
vn 0.7117 0.6967 0.0895
vn 0.7205 -0.6934 0.0116
vn 0.7205 0.6934 0.0116
vn 0.7116 -0.6969 0.0895
vn 0.7144 -0.6965 -0.0671
vn 0.7145 0.6964 -0.0672
vn 0.7145 0.6964 -0.0673
vn 0.7044 -0.6966 -0.1361
vn 0.7045 0.6965 -0.1361
vn 0.7145 -0.6964 -0.0672
vn 0.7044 0.6966 -0.1362
vn 0.6881 -0.6968 -0.2026
vn 0.6881 0.6968 -0.2027
vn 0.6881 0.6967 -0.2027
vn 0.6663 -0.6964 -0.2666
vn 0.6660 0.6967 -0.2667
vn 0.6880 -0.6968 -0.2026
vn 0.6660 0.6966 -0.2668
vn 0.6373 -0.6965 -0.3296
vn 0.6375 0.6964 -0.3296
vn 0.6662 -0.6965 -0.2666
vn 0.6375 0.6963 -0.3298
vn 0.6020 -0.6966 -0.3902
vn 0.6024 0.6964 -0.3900
vn 0.6373 -0.6966 -0.3297
vn 0.6025 0.6963 -0.3901
vn 0.5623 -0.6965 -0.4458
vn 0.5622 0.6966 -0.4457
vn 0.6019 -0.6967 -0.3902
vn 0.5216 -0.6996 -0.4883
vn 0.5217 0.6995 -0.4884
vn 0.5216 0.6996 -0.4883
vn 0.4944 -0.7039 -0.5100
vn 0.4944 0.7039 -0.5100
vn 0.4943 0.7039 -0.5100
vn 0.4751 -0.7013 -0.5315
vn 0.4751 0.7013 -0.5315
vn 0.4943 -0.7039 -0.5100
vn 0.4430 -0.6993 -0.5610
vn 0.4426 0.6993 -0.5613
vn 0.4749 -0.7015 -0.5314
vn 0.4426 0.6992 -0.5615
vn 0.3956 -0.6962 -0.5991
vn 0.4429 -0.6994 -0.5609
vn 0.3956 0.6962 -0.5991
vn 0.3357 -0.6961 -0.6346
vn 0.3351 0.6963 -0.6347
vn 0.3955 -0.6962 -0.5991
vn 0.2707 -0.6962 -0.6649
vn 0.2710 0.6962 -0.6648
vn 0.3356 -0.6961 -0.6347
vn 0.2045 -0.6965 -0.6878
vn 0.2045 0.6963 -0.6880
vn 0.2706 -0.6961 -0.6650
vn 0.2044 0.6963 -0.6880
vn 0.1373 -0.6967 -0.7041
vn 0.1373 0.6967 -0.7041
vn 0.2044 -0.6965 -0.6878
vn 0.1372 0.6968 -0.7040
vn 0.0692 -0.6965 -0.7142
vn 0.0693 0.6964 -0.7143
vn 0.0691 0.6966 -0.7142
vn 0.0075 -0.6986 -0.7154
vn 0.0691 -0.6964 -0.7144
vn -0.0404 -0.7009 -0.7122
vn -0.0403 0.7010 -0.7120
vn 0.0075 -0.6986 -0.7155
vn -0.0403 0.7007 -0.7123
vn -0.0877 -0.6988 -0.7099
vn -0.0877 0.6989 -0.7098
vn -0.0404 -0.7010 -0.7120
vn -0.0877 0.6990 -0.7097
vn -0.1481 -0.6968 -0.7018
vn -0.1482 0.6965 -0.7021
vn -0.0877 -0.6988 -0.7100
vn -0.1482 0.6967 -0.7019
vn -0.2154 -0.6963 -0.6847
vn -0.2154 0.6963 -0.6847
vn -0.1483 -0.6966 -0.7020
vn -0.2154 0.6963 -0.6846
vn -0.2817 -0.6963 -0.6602
vn -0.2819 0.6963 -0.6601
vn -0.2154 -0.6962 -0.6847
vn -0.3459 -0.6961 -0.6292
vn -0.3459 0.6961 -0.6291
vn -0.2817 -0.6964 -0.6601
vn -0.4051 -0.6966 -0.5921
vn -0.4053 0.6965 -0.5922
vn -0.4052 0.6966 -0.5921
vn -0.4591 -0.6968 -0.5511
vn -0.4591 0.6968 -0.5511
vn -0.4052 -0.6965 -0.5922
vn -0.4591 0.6968 -0.5510
vn -0.4922 -0.7023 -0.5142
vn -0.4921 0.7023 -0.5144
vn -0.4592 -0.6967 -0.5511
vn -0.4922 0.7023 -0.5144
vn -0.5092 -0.7040 -0.4951
vn -0.5021 0.7041 -0.5021
vn -0.4922 -0.7023 -0.5143
vn -0.5091 0.7040 -0.4952
vn -0.5324 -0.7007 -0.4749
vn -0.5325 0.7006 -0.4750
vn -0.5326 0.7005 -0.4750
vn -0.5649 -0.6986 -0.4392
vn -0.5647 0.6987 -0.4392
vn -0.5324 -0.7008 -0.4748
vn -0.5648 0.6987 -0.4392
vn -0.6020 -0.6967 -0.3901
vn -0.6025 0.6963 -0.3900
vn -0.5649 -0.6985 -0.4392
vn -0.6026 0.6963 -0.3899
vn -0.6369 -0.6965 -0.3305
vn -0.6371 0.6962 -0.3308
vn -0.6021 -0.6967 -0.3900
vn -0.6670 -0.6959 -0.2661
vn -0.6668 0.6961 -0.2661
vn -0.6369 -0.6965 -0.3304
vn -0.6668 0.6961 -0.2660
vn -0.6897 -0.6964 -0.1983
vn -0.6897 0.6964 -0.1984
vn -0.6896 0.6965 -0.1983
vn -0.7054 -0.6965 -0.1311
vn -0.7054 0.6966 -0.1310
vn -0.6898 -0.6964 -0.1982
vn -0.7141 -0.6971 -0.0645
vn -0.7141 0.6970 -0.0644
vn -0.7054 -0.6966 -0.1311
vn -0.7141 0.6971 -0.0644
vn -0.7148 -0.6993 -0.0061
vn -0.7148 0.6993 -0.0062
vn -0.7141 -0.6971 -0.0644
vn -0.7148 0.6993 -0.0061
vn -0.7120 -0.7011 0.0386
vn -0.7120 0.7011 0.0385
vn -0.7120 0.7011 0.0386
vn -0.7101 -0.6991 0.0838
vn -0.7100 0.6991 0.0838
vn -0.7100 0.6992 0.0839
vn -0.7029 -0.6972 0.1410
vn -0.7027 0.6972 0.1416
vn -0.6871 -0.6968 0.2060
vn -0.6870 0.6968 0.2060
vn -0.7028 -0.6972 0.1411
vn -0.6870 0.6968 0.2061
vn -0.6644 -0.6963 0.2713
vn -0.6645 0.6963 0.2712
vn -0.6870 -0.6968 0.2060
vn -0.6644 0.6964 0.2712
vn -0.6352 -0.6967 0.3334
vn -0.6353 0.6966 0.3333
vn -0.6645 -0.6963 0.2714
vn -0.6006 -0.6967 0.3923
vn -0.6007 0.6967 0.3922
vn -0.6352 -0.6966 0.3334
vn -0.6007 0.6966 0.3923
vn -0.5611 -0.6970 0.4466
vn -0.5610 0.6971 0.4465
vn -0.5610 0.6970 0.4465
vn -0.5209 -0.6990 0.4899
vn -0.5210 0.6989 0.4900
vn -0.5611 -0.6969 0.4466
vn -0.5209 0.6990 0.4900
vn -0.5075 -0.7035 0.4975
vn -0.5075 0.7035 0.4975
vn -0.5209 -0.6990 0.4900
vt 0.272204 0.448460
vt 0.275949 0.453231
vt 0.267081 0.443064
vt 0.016835 0.195213
vt 0.021739 0.200828
vt 0.008904 0.183089
vt 0.012557 0.189300
vt 0.003478 0.169772
vt 0.005878 0.176580
vt 0.000557 0.155263
vt 0.001704 0.162667
vt 0.000000 0.144928
vt 0.000139 0.150162
vt 0.001371 0.129564
vt 0.000343 0.137111
vt 0.005486 0.115273
vt 0.003086 0.122284
vt 0.012343 0.102055
vt 0.008571 0.108530
vt 0.020152 0.091861
vt 0.016800 0.095849
vt 0.089027 0.022774
vt 0.023810 0.087992
vt 0.100555 0.013154
vt 0.094642 0.017636
vt 0.113275 0.006158
vt 0.106766 0.009328
vt 0.127188 0.001786
vt 0.120083 0.003644
vt 0.139694 0.000146
vt 0.134592 0.000583
vt 0.154000 0.000446
vt 0.144928 0.000000
vt 0.168609 0.003289
vt 0.161453 0.001540
vt 0.182025 0.008754
vt 0.175466 0.005694
vt 0.194248 0.016844
vt 0.188286 0.012471
vt 0.200828 0.022774
vt 0.197118 0.019276
vt 0.626022 0.447659
vt 0.621118 0.442029
vt 0.633953 0.459902
vt 0.630301 0.453617
vt 0.639379 0.473458
vt 0.636979 0.466516
vt 0.642431 0.489623
vt 0.641153 0.480727
vt 0.642121 0.508327
vt 0.642857 0.498965
vt 0.638782 0.523433
vt 0.640779 0.516029
vt 0.632819 0.537346
vt 0.636128 0.530538
vt 0.624233 0.550066
vt 0.628854 0.543855
vt 0.197723 0.977226
vt 0.618012 0.556936
vt 0.187069 0.986468
vt 0.192575 0.982145
vt 0.174985 0.993325
vt 0.181206 0.990195
vt 0.161469 0.997797
vt 0.168406 0.995859
vt 0.149113 0.999702
vt 0.154175 0.999139
vt 0.136076 0.999891
vt 0.143892 1.000000
vt 0.121249 0.997525
vt 0.128528 0.999066
vt 0.107495 0.992298
vt 0.114238 0.995270
vt 0.094814 0.984209
vt 0.101020 0.988611
vt 0.086957 0.977226
vt 0.090826 0.980876
vt 0.018890 0.908667
vt 0.023810 0.914079
vt 0.010841 0.896682
vt 0.014567 0.902869
vt 0.005176 0.883147
vt 0.007710 0.890108
vt 0.001731 0.866734
vt 0.003238 0.875798
vt 0.000922 0.847551
vt 0.001035 0.857143
vt 0.002900 0.832337
vt 0.001568 0.839750
vt 0.007122 0.819752
vt 0.004917 0.825311
vt 0.012961 0.809441
vt 0.009803 0.814462
vt 0.020704 0.800207
vt 0.016594 0.804689
vt 0.263975 0.556936
vt 0.279218 0.458249
vt 0.269580 0.551072
vt 0.282011 0.463516
vt 0.274470 0.544911
vt 0.284328 0.469032
vt 0.278643 0.538451
vt 0.282102 0.531694
vt 0.286169 0.474796
vt 0.284845 0.524638
vt 0.287749 0.482041
vt 0.286872 0.517284
vt 0.288643 0.489643
vt 0.288184 0.509631
vt 0.288820 0.498965
vt 0.288661 0.504364
s 1
f 1/1/1 3/2/2 2/2/3
f 1/1/1 4/1/4 3/2/2
f 6/3/5 8/4/6 7/5/7
f 8/4/6 10/6/8 9/7/9
f 10/6/8 12/8/10 11/9/11
f 12/8/10 14/10/12 13/11/13
f 14/10/12 16/12/14 15/13/15
f 16/12/14 18/14/16 17/15/17
f 18/14/16 20/16/18 19/17/19
f 20/16/18 22/18/20 21/19/21
f 22/18/20 24/20/22 23/21/23
f 24/20/22 26/22/24 25/23/25
f 26/22/24 28/24/26 27/25/27
f 28/24/26 30/26/28 29/27/29
f 30/26/28 32/28/30 31/29/31
f 32/28/30 34/30/32 33/31/33
f 34/30/32 36/32/34 35/33/35
f 36/32/34 38/34/36 37/35/37
f 38/34/36 40/36/38 39/37/39
f 40/36/38 42/38/40 41/39/41
f 42/38/40 44/40/42 43/41/43
f 44/40/42 46/42/44 45/43/45
f 46/42/44 48/44/46 47/45/47
f 48/44/46 50/46/48 49/47/49
f 50/46/48 52/48/50 51/49/51
f 52/48/50 54/50/52 53/51/53
f 54/50/52 56/52/54 55/53/55
f 56/52/54 58/54/56 57/55/57
f 58/54/56 60/56/58 59/57/59
f 60/56/58 62/58/60 61/59/61
f 62/58/60 64/60/62 63/61/63
f 64/60/62 66/62/64 65/63/65
f 66/62/64 68/64/66 67/65/67
f 68/64/66 70/66/68 69/67/69
f 70/66/68 72/68/70 71/69/71
f 72/68/70 74/70/72 73/71/73
f 74/70/72 76/72/74 75/73/75
f 76/72/74 78/74/76 77/75/77
f 78/74/76 80/76/78 79/77/79
f 80/76/78 82/78/80 81/79/81
f 82/78/80 84/80/82 83/81/83
f 84/80/82 86/82/84 85/83/85
f 86/82/84 88/84/86 87/85/87
f 88/84/86 90/86/88 89/87/89
f 90/86/88 92/88/90 91/89/91
f 92/88/90 94/90/92 93/91/93
f 94/90/92 96/92/94 95/93/95
f 96/92/94 98/94/96 97/95/97
f 6/3/5 10/6/8 8/4/6
f 10/6/8 14/10/12 12/8/10
f 14/10/12 18/14/16 16/12/14
f 18/14/16 22/18/20 20/16/18
f 22/18/20 26/22/24 24/20/22
f 26/22/24 30/26/28 28/24/26
f 30/26/28 34/30/32 32/28/30
f 34/30/32 38/34/36 36/32/34
f 38/34/36 42/38/40 40/36/38
f 42/38/40 46/42/44 44/40/42
f 46/42/44 50/46/48 48/44/46
f 50/46/48 54/50/52 52/48/50
f 54/50/52 58/54/56 56/52/54
f 58/54/56 62/58/60 60/56/58
f 62/58/60 66/62/64 64/60/62
f 66/62/64 70/66/68 68/64/66
f 70/66/68 74/70/72 72/68/70
f 74/70/72 78/74/76 76/72/74
f 78/74/76 82/78/80 80/76/78
f 82/78/80 86/82/84 84/80/82
f 86/82/84 90/86/88 88/84/86
f 90/86/88 94/90/92 92/88/90
f 94/90/92 98/94/96 96/92/94
f 6/3/5 14/10/12 10/6/8
f 14/10/12 22/18/20 18/14/16
f 22/18/20 30/26/28 26/22/24
f 30/26/28 38/34/36 34/30/32
f 38/34/36 46/42/44 42/38/40
f 46/42/44 54/50/52 50/46/48
f 54/50/52 62/58/60 58/54/56
f 62/58/60 70/66/68 66/62/64
f 70/66/68 78/74/76 74/70/72
f 78/74/76 86/82/84 82/78/80
f 86/82/84 94/90/92 90/86/88
f 94/90/92 99/96/98 98/94/96
f 5/1/99 14/10/12 6/3/5
f 14/10/12 30/26/28 22/18/20
f 30/26/28 46/42/44 38/34/36
f 46/42/44 62/58/60 54/50/52
f 62/58/60 78/74/76 70/66/68
f 78/74/76 94/90/92 86/82/84
f 5/1/99 30/26/28 14/10/12
f 46/42/44 78/74/76 62/58/60
f 78/74/76 99/96/98 94/90/92
f 115/2/100 30/26/28 5/1/99
f 46/42/44 99/96/98 78/74/76
f 114/97/101 30/26/28 115/2/100
f 46/42/44 100/98/102 99/96/98
f 113/99/103 30/26/28 114/97/101
f 46/42/44 101/100/104 100/98/102
f 112/101/105 30/26/28 113/99/103
f 46/42/44 102/102/106 101/100/104
f 112/101/105 46/42/44 30/26/28
f 46/42/44 103/103/107 102/102/106
f 111/104/108 46/42/44 112/101/105
f 46/42/44 104/105/109 103/103/107
f 110/106/110 46/42/44 111/104/108
f 46/42/44 105/107/111 104/105/109
f 109/108/112 46/42/44 110/106/110
f 46/42/44 106/109/113 105/107/111
f 108/110/114 46/42/44 109/108/112
f 46/42/44 107/111/115 106/109/113
f 107/111/115 46/42/44 108/110/114
f 116/3/116 118/1/4 117/1/1
f 116/3/116 119/3/117 118/1/4
f 137/96/118 139/95/119 138/94/120
f 139/95/119 141/93/121 140/92/122
f 141/93/121 143/91/123 142/90/124
f 143/91/123 145/89/125 144/88/126
f 145/89/125 147/87/127 146/86/128
f 147/87/127 149/85/129 148/84/130
f 149/85/129 151/83/131 150/82/132
f 151/83/131 153/81/133 152/80/134
f 153/81/133 155/79/135 154/78/136
f 155/79/135 157/77/137 156/76/138
f 157/77/137 159/75/139 158/74/140
f 159/75/139 161/73/141 160/72/142
f 161/73/141 163/71/143 162/70/144
f 163/71/143 165/69/145 164/68/146
f 165/69/145 167/67/147 166/66/148
f 167/67/147 169/65/149 168/64/150
f 169/65/149 171/63/151 170/62/152
f 171/63/151 173/61/153 172/60/154
f 173/61/153 175/59/155 174/58/156
f 175/59/155 177/57/157 176/56/158
f 177/57/157 179/55/159 178/54/160
f 179/55/159 181/53/161 180/52/162
f 181/53/161 183/51/163 182/50/164
f 183/51/163 185/49/165 184/48/166
f 185/49/165 187/47/167 186/46/168
f 187/47/167 189/45/169 188/44/170
f 189/45/169 191/43/171 190/42/172
f 191/43/171 193/41/173 192/40/174
f 193/41/173 195/39/175 194/38/176
f 195/39/175 197/37/177 196/36/178
f 197/37/177 199/35/179 198/34/180
f 199/35/179 201/33/181 200/32/182
f 201/33/181 203/31/183 202/30/184
f 203/31/183 205/29/185 204/28/186
f 205/29/185 207/27/187 206/26/188
f 207/27/187 209/25/189 208/24/190
f 209/25/189 211/23/191 210/22/192
f 211/23/191 213/21/193 212/20/194
f 213/21/193 215/19/195 214/18/196
f 215/19/195 217/17/197 216/16/198
f 217/17/197 219/15/199 218/14/200
f 219/15/199 221/13/201 220/12/202
f 221/13/201 223/11/203 222/10/204
f 223/11/203 225/9/205 224/8/206
f 225/9/205 227/7/207 226/6/208
f 227/7/207 229/5/209 228/4/210
f 137/96/118 141/93/121 139/95/119
f 141/93/121 145/89/125 143/91/123
f 145/89/125 149/85/129 147/87/127
f 149/85/129 153/81/133 151/83/131
f 153/81/133 157/77/137 155/79/135
f 157/77/137 161/73/141 159/75/139
f 161/73/141 165/69/145 163/71/143
f 165/69/145 169/65/149 167/67/147
f 169/65/149 173/61/153 171/63/151
f 173/61/153 177/57/157 175/59/155
f 177/57/157 181/53/161 179/55/159
f 181/53/161 185/49/165 183/51/163
f 185/49/165 189/45/169 187/47/167
f 189/45/169 193/41/173 191/43/171
f 193/41/173 197/37/177 195/39/175
f 197/37/177 201/33/181 199/35/179
f 201/33/181 205/29/185 203/31/183
f 205/29/185 209/25/189 207/27/187
f 209/25/189 213/21/193 211/23/191
f 213/21/193 217/17/197 215/19/195
f 217/17/197 221/13/201 219/15/199
f 221/13/201 225/9/205 223/11/203
f 225/9/205 229/5/209 227/7/207
f 137/96/118 145/89/125 141/93/121
f 145/89/125 153/81/133 149/85/129
f 153/81/133 161/73/141 157/77/137
f 161/73/141 169/65/149 165/69/145
f 169/65/149 177/57/157 173/61/153
f 177/57/157 185/49/165 181/53/161
f 185/49/165 193/41/173 189/45/169
f 193/41/173 201/33/181 197/37/177
f 201/33/181 209/25/189 205/29/185
f 209/25/189 217/17/197 213/21/193
f 217/17/197 225/9/205 221/13/201
f 225/9/205 230/3/211 229/5/209
f 136/98/212 145/89/125 137/96/118
f 145/89/125 161/73/141 153/81/133
f 161/73/141 177/57/157 169/65/149
f 177/57/157 193/41/173 185/49/165
f 193/41/173 209/25/189 201/33/181
f 209/25/189 225/9/205 217/17/197
f 136/98/212 161/73/141 145/89/125
f 177/57/157 209/25/189 193/41/173
f 209/25/189 230/3/211 225/9/205
f 135/100/213 161/73/141 136/98/212
f 177/57/157 230/3/211 209/25/189
f 134/102/214 161/73/141 135/100/213
f 177/57/157 120/1/215 230/3/211
f 133/103/216 161/73/141 134/102/214
f 177/57/157 121/2/217 120/1/215
f 132/105/218 161/73/141 133/103/216
f 177/57/157 122/97/219 121/2/217
f 132/105/218 177/57/157 161/73/141
f 177/57/157 123/99/220 122/97/219
f 131/107/221 177/57/157 132/105/218
f 177/57/157 124/101/222 123/99/220
f 130/109/223 177/57/157 131/107/221
f 177/57/157 125/104/224 124/101/222
f 129/111/225 177/57/157 130/109/223
f 177/57/157 126/106/226 125/104/224
f 128/110/227 177/57/157 129/111/225
f 177/57/157 127/108/228 126/106/226
f 127/108/228 177/57/157 128/110/227
f 231/2/229 233/97/230 232/97/231
f 231/2/229 234/2/232 233/97/230
f 235/97/233 237/99/234 236/99/235
f 235/97/233 238/97/236 237/99/234
f 239/99/237 241/101/238 240/101/239
f 239/99/237 242/99/234 241/101/238
f 243/101/240 245/104/241 244/104/242
f 243/101/240 246/101/243 245/104/241
f 247/104/244 249/106/245 248/106/246
f 247/104/244 250/104/241 249/106/245
f 251/106/247 253/108/248 252/108/249
f 251/106/247 254/106/250 253/108/248
f 255/108/251 257/110/252 256/110/253
f 255/108/251 258/108/254 257/110/252
f 259/110/255 261/111/256 260/111/257
f 259/110/255 262/110/252 261/111/256
f 263/111/257 265/109/258 264/109/259
f 263/111/257 266/111/256 265/109/258
f 267/109/259 269/107/260 268/107/261
f 267/109/259 270/109/262 269/107/260
f 271/107/261 273/105/263 272/105/264
f 271/107/261 274/107/265 273/105/263
f 275/105/266 277/103/267 276/103/268
f 275/105/266 278/105/263 277/103/267
f 279/103/268 281/102/269 280/102/270
f 279/103/268 282/103/271 281/102/269
f 283/102/272 285/100/273 284/100/274
f 283/102/272 286/102/275 285/100/273
f 287/100/274 289/98/276 288/98/277
f 287/100/274 290/100/278 289/98/276
f 291/98/277 293/96/279 292/96/280
f 291/98/277 294/98/281 293/96/279
f 295/96/282 297/94/283 296/94/284
f 295/96/282 298/96/285 297/94/283
f 299/94/286 301/95/287 300/95/288
f 299/94/286 302/94/289 301/95/287
f 303/95/290 305/92/291 304/92/292
f 303/95/290 306/95/287 305/92/291
f 307/92/293 309/93/294 308/93/295
f 307/92/293 310/92/296 309/93/294
f 311/93/297 313/90/298 312/90/299
f 311/93/297 314/93/300 313/90/298
f 315/90/301 317/91/302 316/91/303
f 315/90/301 318/90/304 317/91/302
f 319/91/305 321/88/306 320/88/307
f 319/91/305 322/91/308 321/88/306
f 323/88/309 325/89/310 324/89/311
f 323/88/309 326/88/306 325/89/310
f 327/89/312 329/86/313 328/86/314
f 327/89/312 330/89/310 329/86/313
f 331/86/315 333/87/316 332/87/317
f 331/86/315 334/86/313 333/87/316
f 335/87/318 337/84/319 336/84/320
f 335/87/318 338/87/321 337/84/319
f 339/84/320 341/85/322 340/85/323
f 339/84/320 342/84/324 341/85/322
f 343/85/323 345/82/325 344/82/326
f 343/85/323 346/85/327 345/82/325
f 347/82/326 349/83/328 348/83/329
f 347/82/326 350/82/330 349/83/328
f 351/83/331 353/80/332 352/80/333
f 351/83/331 354/83/328 353/80/332
f 355/80/334 357/81/335 356/81/336
f 355/80/334 358/80/337 357/81/335
f 359/81/338 361/78/339 360/78/340
f 359/81/338 362/81/341 361/78/339
f 363/78/340 365/79/342 364/79/343
f 363/78/340 366/78/344 365/79/342
f 367/79/345 369/76/346 368/76/347
f 367/79/345 370/79/348 369/76/346
f 371/76/349 373/77/350 372/77/79
f 371/76/349 374/76/351 373/77/350
f 375/77/79 377/74/352 376/74/353
f 375/77/79 378/77/354 377/74/352
f 379/74/355 381/75/356 380/75/357
f 379/74/355 382/74/358 381/75/356
f 383/75/359 385/72/360 384/72/361
f 383/75/359 386/75/139 385/72/360
f 387/72/362 389/73/363 388/73/364
f 387/72/362 390/72/365 389/73/363
f 391/73/364 393/70/366 392/70/72
f 391/73/364 394/73/367 393/70/366
f 395/70/368 397/71/369 396/71/370
f 395/70/368 398/70/371 397/71/369
f 399/71/372 401/68/373 400/68/374
f 399/71/372 402/71/375 401/68/373
f 403/68/70 405/69/376 404/69/377
f 403/68/70 406/68/378 405/69/376
f 407/69/71 409/66/379 408/66/380
f 407/69/71 410/69/381 409/66/379
f 411/66/382 413/67/383 412/67/384
f 411/66/382 414/66/385 413/67/383
f 415/67/386 417/64/387 416/64/388
f 415/67/386 418/67/389 417/64/387
f 419/64/390 421/65/391 420/65/392
f 419/64/390 422/64/393 421/65/391
f 423/65/394 425/62/395 424/62/396
f 423/65/394 426/65/397 425/62/395
f 427/62/398 429/63/399 428/63/400
f 427/62/398 430/62/401 429/63/399
f 431/63/400 433/60/402 432/60/403
f 431/63/400 434/63/404 433/60/402
f 435/60/405 437/61/406 436/61/407
f 435/60/405 438/60/408 437/61/406
f 439/61/409 441/58/410 440/58/411
f 439/61/409 442/61/412 441/58/410
f 443/58/413 445/59/414 444/59/415
f 443/58/413 446/58/416 445/59/414
f 447/59/415 449/56/417 448/56/418
f 447/59/415 450/59/419 449/56/417
f 451/56/420 453/57/421 452/57/422
f 451/56/420 454/56/423 453/57/421
f 455/57/424 457/54/425 456/54/426
f 455/57/424 458/57/427 457/54/425
f 459/54/428 461/55/429 460/55/430
f 459/54/428 462/54/431 461/55/429
f 463/55/432 465/52/433 464/52/434
f 463/55/432 466/55/435 465/52/433
f 467/52/436 469/53/437 468/53/438
f 467/52/436 470/52/439 469/53/437
f 471/53/438 473/50/440 472/50/441
f 471/53/438 474/53/437 473/50/440
f 475/50/441 477/51/442 476/51/443
f 475/50/441 478/50/444 477/51/442
f 479/51/443 481/48/445 480/48/446
f 479/51/443 482/51/442 481/48/445
f 483/48/447 485/49/448 484/49/449
f 483/48/447 486/48/450 485/49/448
f 487/49/451 489/46/452 488/46/453
f 487/49/451 490/49/448 489/46/452
f 491/46/454 493/47/455 492/47/456
f 491/46/454 494/46/457 493/47/455
f 495/47/458 497/44/459 496/44/460
f 495/47/458 498/47/461 497/44/459
f 499/44/462 501/45/463 500/45/464
f 499/44/462 502/44/465 501/45/463
f 503/45/466 505/42/467 504/42/468
f 503/45/466 506/45/469 505/42/467
f 507/42/468 509/43/470 508/43/471
f 507/42/468 510/42/467 509/43/470
f 511/43/472 513/40/473 512/40/474
f 511/43/472 514/43/470 513/40/473
f 515/40/475 517/41/476 516/41/477
f 515/40/475 518/40/478 517/41/476
f 519/41/43 521/38/479 520/38/480
f 519/41/43 522/41/481 521/38/479
f 523/38/482 525/39/483 524/39/41
f 523/38/482 526/38/484 525/39/483
f 527/39/485 529/36/486 528/36/487
f 527/39/485 530/39/488 529/36/486
f 531/36/487 533/37/489 532/37/490
f 531/36/487 534/36/491 533/37/489
f 535/37/490 537/34/492 536/34/493
f 535/37/490 538/37/494 537/34/492
f 539/34/495 541/35/496 540/35/497
f 539/34/495 542/34/498 541/35/496
f 543/35/499 545/32/500 544/32/501
f 543/35/499 546/35/496 545/32/500
f 547/32/502 549/33/503 548/33/35
f 547/32/502 550/32/504 549/33/503
f 551/33/35 553/30/505 552/30/506
f 551/33/35 554/33/507 553/30/505
f 555/30/508 557/31/509 556/31/510
f 555/30/508 558/30/511 557/31/509
f 559/31/512 561/28/513 560/28/514
f 559/31/512 562/31/515 561/28/513
f 563/28/516 565/29/517 564/29/518
f 563/28/516 566/28/519 565/29/517
f 567/29/520 569/26/521 568/26/522
f 567/29/520 570/29/523 569/26/521
f 571/26/522 573/27/524 572/27/525
f 571/26/522 574/26/526 573/27/524
f 575/27/525 577/24/527 576/24/528
f 575/27/525 578/27/524 577/24/527
f 579/24/529 581/25/530 580/25/531
f 579/24/529 582/24/532 581/25/530
f 583/25/533 585/22/534 584/22/535
f 583/25/533 586/25/536 585/22/534
f 587/22/537 589/23/538 588/23/539
f 587/22/537 590/22/540 589/23/538
f 591/23/541 593/20/542 592/20/543
f 591/23/541 594/23/538 593/20/542
f 595/20/544 597/21/545 596/21/546
f 595/20/544 598/20/547 597/21/545
f 599/21/548 601/18/549 600/18/550
f 599/21/548 602/21/551 601/18/549
f 603/18/552 605/19/553 604/19/554
f 603/18/552 606/18/555 605/19/553
f 607/19/554 609/16/556 608/16/557
f 607/19/554 610/19/558 609/16/556
f 611/16/559 613/17/560 612/17/561
f 611/16/559 614/16/556 613/17/560
f 615/17/562 617/14/563 616/14/564
f 615/17/562 618/17/565 617/14/563
f 619/14/564 621/15/566 620/15/567
f 619/14/564 622/14/568 621/15/566
f 623/15/569 625/12/570 624/12/571
f 623/15/569 626/15/572 625/12/570
f 627/12/573 629/13/574 628/13/575
f 627/12/573 630/12/570 629/13/574
f 631/13/576 633/10/577 632/10/578
f 631/13/576 634/13/574 633/10/577
f 635/10/579 637/11/580 636/11/581
f 635/10/579 638/10/577 637/11/580
f 639/11/581 641/8/582 640/8/583
f 639/11/581 642/11/584 641/8/582
f 643/8/585 645/9/586 644/9/587
f 643/8/585 646/8/588 645/9/586
f 647/9/589 649/6/590 648/6/591
f 647/9/589 650/9/592 649/6/590
f 651/6/591 653/7/593 652/7/594
f 651/6/591 654/6/595 653/7/593
f 655/7/596 657/4/597 656/4/598
f 655/7/596 658/7/593 657/4/597
f 659/4/599 661/5/600 660/5/601
f 659/4/599 662/4/602 661/5/600
f 663/5/603 665/3/604 664/3/605
f 663/5/603 666/5/606 665/3/604
