# Blender 5.2.0 LTS
# www.blender.org
mtllib ARROW_UP_text.mtl
o ARROW_UP_text
v 0.805533 0.018408 0.193616
v 0.805619 0.018392 0.193548
v 0.805262 0.016554 0.193548
v 0.805176 0.016571 0.193616
v 0.805533 0.018408 0.193616
v 0.805435 0.018427 0.193711
v 0.801069 0.019275 0.198216
v 0.800968 0.019295 0.198306
v 0.800861 0.019316 0.198384
v 0.800749 0.019337 0.198452
v 0.800632 0.019360 0.198507
v 0.800509 0.019384 0.198551
v 0.800381 0.019409 0.198583
v 0.800248 0.019435 0.198604
v 0.800156 0.019453 0.198612
v 0.800061 0.019471 0.198615
v 0.799920 0.019498 0.198609
v 0.799784 0.019525 0.198590
v 0.799653 0.019550 0.198558
v 0.799527 0.019575 0.198514
v 0.799405 0.019598 0.198457
v 0.799288 0.019621 0.198389
v 0.799177 0.019643 0.198307
v 0.799105 0.019657 0.198245
v 0.799035 0.019670 0.198178
v 0.797859 0.019899 0.196980
v 0.797767 0.019917 0.196877
v 0.797686 0.019932 0.196769
v 0.797617 0.019946 0.196654
v 0.797560 0.019957 0.196535
v 0.797514 0.019966 0.196410
v 0.797481 0.019972 0.196279
v 0.797459 0.019976 0.196143
v 0.797451 0.019978 0.196049
v 0.797449 0.019978 0.195954
v 0.797457 0.019977 0.195787
v 0.797477 0.019973 0.195650
v 0.797508 0.019967 0.195519
v 0.797551 0.019958 0.195393
v 0.797607 0.019948 0.195273
v 0.797674 0.019935 0.195157
v 0.797752 0.019919 0.195048
v 0.797796 0.019911 0.194995
v 0.797859 0.019899 0.194927
v 0.805417 0.018431 0.187210
v 0.805518 0.018411 0.187119
v 0.805626 0.018390 0.187040
v 0.805739 0.018368 0.186973
v 0.805858 0.018345 0.186918
v 0.805983 0.018321 0.186874
v 0.806114 0.018295 0.186842
v 0.806275 0.018264 0.186818
v 0.806443 0.018232 0.186810
v 0.806612 0.018199 0.186824
v 0.806751 0.018172 0.186849
v 0.806884 0.018146 0.186885
v 0.807012 0.018121 0.186934
v 0.807135 0.018097 0.186994
v 0.807252 0.018074 0.187067
v 0.807364 0.018053 0.187152
v 0.807488 0.018029 0.187266
v 0.815064 0.016557 0.194984
v 0.815153 0.016540 0.195079
v 0.815231 0.016525 0.195180
v 0.815298 0.016512 0.195287
v 0.815355 0.016501 0.195402
v 0.815400 0.016492 0.195523
v 0.815435 0.016485 0.195650
v 0.815459 0.016481 0.195784
v 0.815470 0.016479 0.195877
v 0.815475 0.016478 0.195973
v 0.815473 0.016478 0.196116
v 0.815458 0.016481 0.196255
v 0.815430 0.016486 0.196388
v 0.815390 0.016494 0.196517
v 0.815336 0.016504 0.196641
v 0.815270 0.016517 0.196760
v 0.815190 0.016533 0.196874
v 0.815130 0.016544 0.196947
v 0.815064 0.016557 0.197018
v 0.813926 0.016778 0.198178
v 0.813828 0.016797 0.198268
v 0.813724 0.016818 0.198347
v 0.813612 0.016839 0.198416
v 0.813494 0.016862 0.198473
v 0.813368 0.016887 0.198520
v 0.813236 0.016912 0.198555
v 0.813073 0.016944 0.198583
v 0.812900 0.016978 0.198596
v 0.812727 0.017011 0.198598
v 0.812586 0.017039 0.198586
v 0.812453 0.017064 0.198562
v 0.812326 0.017089 0.198525
v 0.812226 0.017109 0.198484
v 0.812130 0.017127 0.198435
v 0.812040 0.017145 0.198377
v 0.811954 0.017161 0.198310
v 0.811873 0.017177 0.198235
v 0.807488 0.018029 0.193768
v 0.807383 0.018049 0.193665
v 0.807271 0.018071 0.193575
v 0.807155 0.018093 0.193499
v 0.807033 0.018117 0.193435
v 0.806906 0.018142 0.193384
v 0.806773 0.018167 0.193347
v 0.806635 0.018194 0.193323
v 0.806540 0.018213 0.193314
v 0.806443 0.018232 0.193311
v 0.806275 0.018264 0.193314
v 0.806138 0.018291 0.193331
v 0.806008 0.018316 0.193360
v 0.805904 0.018336 0.193394
v 0.805804 0.018356 0.193437
v 0.805709 0.018374 0.193487
v 0.805619 0.018392 0.193548
v 0.805435 0.018427 0.193711
v 0.805533 0.018408 0.193616
v 0.805176 0.016571 0.193616
v 0.805079 0.016590 0.193711
v 0.805176 0.016571 0.193616
v 0.805262 0.016554 0.193548
v 0.805352 0.016537 0.193487
v 0.805447 0.016518 0.193437
v 0.805547 0.016499 0.193394
v 0.805651 0.016479 0.193360
v 0.805781 0.016453 0.193331
v 0.805918 0.016427 0.193314
v 0.806086 0.016394 0.193311
v 0.806184 0.016375 0.193314
v 0.806279 0.016357 0.193323
v 0.806416 0.016330 0.193347
v 0.806549 0.016304 0.193384
v 0.806676 0.016280 0.193435
v 0.806798 0.016256 0.193499
v 0.806915 0.016233 0.193575
v 0.807026 0.016212 0.193665
v 0.807131 0.016191 0.193768
v 0.811516 0.015340 0.198235
v 0.811597 0.015324 0.198310
v 0.811683 0.015307 0.198377
v 0.811773 0.015290 0.198435
v 0.811869 0.015271 0.198484
v 0.811969 0.015252 0.198525
v 0.812096 0.015227 0.198562
v 0.812229 0.015201 0.198586
v 0.812370 0.015174 0.198598
v 0.812543 0.015140 0.198596
v 0.812716 0.015107 0.198583
v 0.812879 0.015075 0.198555
v 0.813012 0.015049 0.198520
v 0.813137 0.015025 0.198473
v 0.813256 0.015002 0.198416
v 0.813367 0.014980 0.198347
v 0.813472 0.014960 0.198268
v 0.813569 0.014941 0.198178
v 0.814707 0.014720 0.197018
v 0.814773 0.014707 0.196947
v 0.814833 0.014695 0.196874
v 0.814913 0.014680 0.196760
v 0.814979 0.014667 0.196641
v 0.815033 0.014657 0.196517
v 0.815073 0.014649 0.196388
v 0.815101 0.014643 0.196255
v 0.815116 0.014641 0.196116
v 0.815118 0.014640 0.195973
v 0.815113 0.014641 0.195877
v 0.815103 0.014643 0.195784
v 0.815078 0.014648 0.195650
v 0.815043 0.014655 0.195523
v 0.814998 0.014664 0.195402
v 0.814941 0.014674 0.195287
v 0.814874 0.014688 0.195180
v 0.814796 0.014703 0.195079
v 0.814707 0.014720 0.194984
v 0.807131 0.016191 0.187266
v 0.807007 0.016215 0.187152
v 0.806896 0.016237 0.187067
v 0.806778 0.016260 0.186994
v 0.806655 0.016284 0.186934
v 0.806527 0.016309 0.186885
v 0.806394 0.016334 0.186849
v 0.806255 0.016361 0.186824
v 0.806086 0.016394 0.186810
v 0.805918 0.016427 0.186818
v 0.805758 0.016458 0.186842
v 0.805626 0.016483 0.186874
v 0.805501 0.016508 0.186918
v 0.805382 0.016531 0.186973
v 0.805269 0.016553 0.187040
v 0.805161 0.016574 0.187119
v 0.805060 0.016593 0.187210
v 0.797502 0.018061 0.194927
v 0.797439 0.018073 0.194995
v 0.797396 0.018082 0.195048
v 0.797317 0.018097 0.195157
v 0.797250 0.018110 0.195273
v 0.797194 0.018121 0.195393
v 0.797151 0.018129 0.195519
v 0.797120 0.018136 0.195650
v 0.797100 0.018139 0.195787
v 0.797092 0.018141 0.195954
v 0.797095 0.018140 0.196049
v 0.797102 0.018139 0.196143
v 0.797124 0.018135 0.196279
v 0.797158 0.018128 0.196410
v 0.797203 0.018119 0.196535
v 0.797260 0.018108 0.196654
v 0.797329 0.018095 0.196769
v 0.797410 0.018079 0.196877
v 0.797502 0.018061 0.196980
v 0.798678 0.017833 0.198178
v 0.798748 0.017819 0.198245
v 0.798820 0.017805 0.198307
v 0.798932 0.017784 0.198389
v 0.799048 0.017761 0.198457
v 0.799170 0.017737 0.198514
v 0.799296 0.017713 0.198558
v 0.799427 0.017687 0.198590
v 0.799564 0.017661 0.198609
v 0.799704 0.017634 0.198615
v 0.799799 0.017615 0.198612
v 0.799891 0.017597 0.198604
v 0.800024 0.017571 0.198583
v 0.800152 0.017547 0.198551
v 0.800275 0.017523 0.198507
v 0.800392 0.017500 0.198452
v 0.800504 0.017478 0.198384
v 0.800611 0.017458 0.198306
v 0.800712 0.017438 0.198216
v 0.805079 0.016590 0.193711
v 0.805619 0.018392 0.193548
v 0.805709 0.018374 0.193487
v 0.805352 0.016537 0.193487
v 0.805262 0.016554 0.193548
v 0.805709 0.018374 0.193487
v 0.805804 0.018356 0.193437
v 0.805447 0.016518 0.193437
v 0.805352 0.016537 0.193487
v 0.805804 0.018356 0.193437
v 0.805904 0.018336 0.193394
v 0.805547 0.016499 0.193394
v 0.805447 0.016518 0.193437
v 0.805904 0.018336 0.193394
v 0.806008 0.018316 0.193360
v 0.805651 0.016479 0.193360
v 0.805547 0.016499 0.193394
v 0.806008 0.018316 0.193360
v 0.806138 0.018291 0.193331
v 0.805781 0.016453 0.193331
v 0.805651 0.016479 0.193360
v 0.806138 0.018291 0.193331
v 0.806275 0.018264 0.193314
v 0.805918 0.016427 0.193314
v 0.805781 0.016453 0.193331
v 0.806275 0.018264 0.193314
v 0.806443 0.018232 0.193311
v 0.806086 0.016394 0.193311
v 0.805918 0.016427 0.193314
v 0.806443 0.018232 0.193311
v 0.806540 0.018213 0.193314
v 0.806184 0.016375 0.193314
v 0.806086 0.016394 0.193311
v 0.806540 0.018213 0.193314
v 0.806635 0.018194 0.193323
v 0.806279 0.016357 0.193323
v 0.806184 0.016375 0.193314
v 0.806635 0.018194 0.193323
v 0.806773 0.018167 0.193347
v 0.806416 0.016330 0.193347
v 0.806279 0.016357 0.193323
v 0.806773 0.018167 0.193347
v 0.806906 0.018142 0.193384
v 0.806549 0.016304 0.193384
v 0.806416 0.016330 0.193347
v 0.806906 0.018142 0.193384
v 0.807033 0.018117 0.193435
v 0.806676 0.016280 0.193435
v 0.806549 0.016304 0.193384
v 0.807033 0.018117 0.193435
v 0.807155 0.018093 0.193499
v 0.806798 0.016256 0.193499
v 0.806676 0.016280 0.193435
v 0.807155 0.018093 0.193499
v 0.807271 0.018071 0.193575
v 0.806915 0.016233 0.193575
v 0.806798 0.016256 0.193499
v 0.807271 0.018071 0.193575
v 0.807383 0.018049 0.193665
v 0.807026 0.016212 0.193665
v 0.806915 0.016233 0.193575
v 0.807383 0.018049 0.193665
v 0.807488 0.018029 0.193768
v 0.807131 0.016191 0.193768
v 0.807026 0.016212 0.193665
v 0.807488 0.018029 0.193768
v 0.811873 0.017177 0.198235
v 0.811516 0.015340 0.198235
v 0.807131 0.016191 0.193768
v 0.811873 0.017177 0.198235
v 0.811954 0.017161 0.198310
v 0.811597 0.015324 0.198310
v 0.811516 0.015340 0.198235
v 0.811954 0.017161 0.198310
v 0.812040 0.017145 0.198377
v 0.811683 0.015307 0.198377
v 0.811597 0.015324 0.198310
v 0.812040 0.017145 0.198377
v 0.812130 0.017127 0.198435
v 0.811773 0.015290 0.198435
v 0.811683 0.015307 0.198377
v 0.812130 0.017127 0.198435
v 0.812226 0.017109 0.198484
v 0.811869 0.015271 0.198484
v 0.811773 0.015290 0.198435
v 0.812226 0.017109 0.198484
v 0.812326 0.017089 0.198525
v 0.811969 0.015252 0.198525
v 0.811869 0.015271 0.198484
v 0.812326 0.017089 0.198525
v 0.812453 0.017064 0.198562
v 0.812096 0.015227 0.198562
v 0.811969 0.015252 0.198525
v 0.812453 0.017064 0.198562
v 0.812586 0.017039 0.198586
v 0.812229 0.015201 0.198586
v 0.812096 0.015227 0.198562
v 0.812586 0.017039 0.198586
v 0.812727 0.017011 0.198598
v 0.812370 0.015174 0.198598
v 0.812229 0.015201 0.198586
v 0.812727 0.017011 0.198598
v 0.812900 0.016978 0.198596
v 0.812543 0.015140 0.198596
v 0.812370 0.015174 0.198598
v 0.812900 0.016978 0.198596
v 0.813073 0.016944 0.198583
v 0.812716 0.015107 0.198583
v 0.812543 0.015140 0.198596
v 0.813073 0.016944 0.198583
v 0.813236 0.016912 0.198555
v 0.812879 0.015075 0.198555
v 0.812716 0.015107 0.198583
v 0.813236 0.016912 0.198555
v 0.813368 0.016887 0.198520
v 0.813012 0.015049 0.198520
v 0.812879 0.015075 0.198555
v 0.813368 0.016887 0.198520
v 0.813494 0.016862 0.198473
v 0.813137 0.015025 0.198473
v 0.813012 0.015049 0.198520
v 0.813494 0.016862 0.198473
v 0.813612 0.016839 0.198416
v 0.813256 0.015002 0.198416
v 0.813137 0.015025 0.198473
v 0.813612 0.016839 0.198416
v 0.813724 0.016818 0.198347
v 0.813367 0.014980 0.198347
v 0.813256 0.015002 0.198416
v 0.813724 0.016818 0.198347
v 0.813828 0.016797 0.198268
v 0.813472 0.014960 0.198268
v 0.813367 0.014980 0.198347
v 0.813828 0.016797 0.198268
v 0.813926 0.016778 0.198178
v 0.813569 0.014941 0.198178
v 0.813472 0.014960 0.198268
v 0.813926 0.016778 0.198178
v 0.815064 0.016557 0.197018
v 0.814707 0.014720 0.197018
v 0.813569 0.014941 0.198178
v 0.815064 0.016557 0.197018
v 0.815130 0.016544 0.196947
v 0.814773 0.014707 0.196947
v 0.814707 0.014720 0.197018
v 0.815130 0.016544 0.196947
v 0.815190 0.016533 0.196874
v 0.814833 0.014695 0.196874
v 0.814773 0.014707 0.196947
v 0.815190 0.016533 0.196874
v 0.815270 0.016517 0.196760
v 0.814913 0.014680 0.196760
v 0.814833 0.014695 0.196874
v 0.815270 0.016517 0.196760
v 0.815336 0.016504 0.196641
v 0.814979 0.014667 0.196641
v 0.814913 0.014680 0.196760
v 0.815336 0.016504 0.196641
v 0.815390 0.016494 0.196517
v 0.815033 0.014657 0.196517
v 0.814979 0.014667 0.196641
v 0.815390 0.016494 0.196517
v 0.815430 0.016486 0.196388
v 0.815073 0.014649 0.196388
v 0.815033 0.014657 0.196517
v 0.815430 0.016486 0.196388
v 0.815458 0.016481 0.196255
v 0.815101 0.014643 0.196255
v 0.815073 0.014649 0.196388
v 0.815458 0.016481 0.196255
v 0.815473 0.016478 0.196116
v 0.815116 0.014641 0.196116
v 0.815101 0.014643 0.196255
v 0.815473 0.016478 0.196116
v 0.815475 0.016478 0.195973
v 0.815118 0.014640 0.195973
v 0.815116 0.014641 0.196116
v 0.815475 0.016478 0.195973
v 0.815470 0.016479 0.195877
v 0.815113 0.014641 0.195877
v 0.815118 0.014640 0.195973
v 0.815470 0.016479 0.195877
v 0.815459 0.016481 0.195784
v 0.815103 0.014643 0.195784
v 0.815113 0.014641 0.195877
v 0.815459 0.016481 0.195784
v 0.815435 0.016485 0.195650
v 0.815078 0.014648 0.195650
v 0.815103 0.014643 0.195784
v 0.815435 0.016485 0.195650
v 0.815400 0.016492 0.195523
v 0.815043 0.014655 0.195523
v 0.815078 0.014648 0.195650
v 0.815400 0.016492 0.195523
v 0.815355 0.016501 0.195402
v 0.814998 0.014664 0.195402
v 0.815043 0.014655 0.195523
v 0.815355 0.016501 0.195402
v 0.815298 0.016512 0.195287
v 0.814941 0.014674 0.195287
v 0.814998 0.014664 0.195402
v 0.815298 0.016512 0.195287
v 0.815231 0.016525 0.195180
v 0.814874 0.014688 0.195180
v 0.814941 0.014674 0.195287
v 0.815231 0.016525 0.195180
v 0.815153 0.016540 0.195079
v 0.814796 0.014703 0.195079
v 0.814874 0.014688 0.195180
v 0.815153 0.016540 0.195079
v 0.815064 0.016557 0.194984
v 0.814707 0.014720 0.194984
v 0.814796 0.014703 0.195079
v 0.815064 0.016557 0.194984
v 0.807488 0.018029 0.187266
v 0.807131 0.016191 0.187266
v 0.814707 0.014720 0.194984
v 0.807488 0.018029 0.187266
v 0.807364 0.018053 0.187152
v 0.807007 0.016215 0.187152
v 0.807131 0.016191 0.187266
v 0.807364 0.018053 0.187152
v 0.807252 0.018074 0.187067
v 0.806896 0.016237 0.187067
v 0.807007 0.016215 0.187152
v 0.807252 0.018074 0.187067
v 0.807135 0.018097 0.186994
v 0.806778 0.016260 0.186994
v 0.806896 0.016237 0.187067
v 0.807135 0.018097 0.186994
v 0.807012 0.018121 0.186934
v 0.806655 0.016284 0.186934
v 0.806778 0.016260 0.186994
v 0.807012 0.018121 0.186934
v 0.806884 0.018146 0.186885
v 0.806527 0.016309 0.186885
v 0.806655 0.016284 0.186934
v 0.806884 0.018146 0.186885
v 0.806751 0.018172 0.186849
v 0.806394 0.016334 0.186849
v 0.806527 0.016309 0.186885
v 0.806751 0.018172 0.186849
v 0.806612 0.018199 0.186824
v 0.806255 0.016361 0.186824
v 0.806394 0.016334 0.186849
v 0.806612 0.018199 0.186824
v 0.806443 0.018232 0.186810
v 0.806086 0.016394 0.186810
v 0.806255 0.016361 0.186824
v 0.806443 0.018232 0.186810
v 0.806275 0.018264 0.186818
v 0.805918 0.016427 0.186818
v 0.806086 0.016394 0.186810
v 0.806275 0.018264 0.186818
v 0.806114 0.018295 0.186842
v 0.805758 0.016458 0.186842
v 0.805918 0.016427 0.186818
v 0.806114 0.018295 0.186842
v 0.805983 0.018321 0.186874
v 0.805626 0.016483 0.186874
v 0.805758 0.016458 0.186842
v 0.805983 0.018321 0.186874
v 0.805858 0.018345 0.186918
v 0.805501 0.016508 0.186918
v 0.805626 0.016483 0.186874
v 0.805858 0.018345 0.186918
v 0.805739 0.018368 0.186973
v 0.805382 0.016531 0.186973
v 0.805501 0.016508 0.186918
v 0.805739 0.018368 0.186973
v 0.805626 0.018390 0.187040
v 0.805269 0.016553 0.187040
v 0.805382 0.016531 0.186973
v 0.805626 0.018390 0.187040
v 0.805518 0.018411 0.187119
v 0.805161 0.016574 0.187119
v 0.805269 0.016553 0.187040
v 0.805518 0.018411 0.187119
v 0.805417 0.018431 0.187210
v 0.805060 0.016593 0.187210
v 0.805161 0.016574 0.187119
v 0.805417 0.018431 0.187210
v 0.797859 0.019899 0.194927
v 0.797502 0.018061 0.194927
v 0.805060 0.016593 0.187210
v 0.797859 0.019899 0.194927
v 0.797796 0.019911 0.194995
v 0.797439 0.018073 0.194995
v 0.797502 0.018061 0.194927
v 0.797796 0.019911 0.194995
v 0.797752 0.019919 0.195048
v 0.797396 0.018082 0.195048
v 0.797439 0.018073 0.194995
v 0.797752 0.019919 0.195048
v 0.797674 0.019935 0.195157
v 0.797317 0.018097 0.195157
v 0.797396 0.018082 0.195048
v 0.797674 0.019935 0.195157
v 0.797607 0.019948 0.195273
v 0.797250 0.018110 0.195273
v 0.797317 0.018097 0.195157
v 0.797607 0.019948 0.195273
v 0.797551 0.019958 0.195393
v 0.797194 0.018121 0.195393
v 0.797250 0.018110 0.195273
v 0.797551 0.019958 0.195393
v 0.797508 0.019967 0.195519
v 0.797151 0.018129 0.195519
v 0.797194 0.018121 0.195393
v 0.797508 0.019967 0.195519
v 0.797477 0.019973 0.195650
v 0.797120 0.018136 0.195650
v 0.797151 0.018129 0.195519
v 0.797477 0.019973 0.195650
v 0.797457 0.019977 0.195787
v 0.797100 0.018139 0.195787
v 0.797120 0.018136 0.195650
v 0.797457 0.019977 0.195787
v 0.797449 0.019978 0.195954
v 0.797092 0.018141 0.195954
v 0.797100 0.018139 0.195787
v 0.797449 0.019978 0.195954
v 0.797451 0.019978 0.196049
v 0.797095 0.018140 0.196049
v 0.797092 0.018141 0.195954
v 0.797451 0.019978 0.196049
v 0.797459 0.019976 0.196143
v 0.797102 0.018139 0.196143
v 0.797095 0.018140 0.196049
v 0.797459 0.019976 0.196143
v 0.797481 0.019972 0.196279
v 0.797124 0.018135 0.196279
v 0.797102 0.018139 0.196143
v 0.797481 0.019972 0.196279
v 0.797514 0.019966 0.196410
v 0.797158 0.018128 0.196410
v 0.797124 0.018135 0.196279
v 0.797514 0.019966 0.196410
v 0.797560 0.019957 0.196535
v 0.797203 0.018119 0.196535
v 0.797158 0.018128 0.196410
v 0.797560 0.019957 0.196535
v 0.797617 0.019946 0.196654
v 0.797260 0.018108 0.196654
v 0.797203 0.018119 0.196535
v 0.797617 0.019946 0.196654
v 0.797686 0.019932 0.196769
v 0.797329 0.018095 0.196769
v 0.797260 0.018108 0.196654
v 0.797686 0.019932 0.196769
v 0.797767 0.019917 0.196877
v 0.797410 0.018079 0.196877
v 0.797329 0.018095 0.196769
v 0.797767 0.019917 0.196877
v 0.797859 0.019899 0.196980
v 0.797502 0.018061 0.196980
v 0.797410 0.018079 0.196877
v 0.797859 0.019899 0.196980
v 0.799035 0.019670 0.198178
v 0.798678 0.017833 0.198178
v 0.797502 0.018061 0.196980
v 0.799035 0.019670 0.198178
v 0.799105 0.019657 0.198245
v 0.798748 0.017819 0.198245
v 0.798678 0.017833 0.198178
v 0.799105 0.019657 0.198245
v 0.799177 0.019643 0.198307
v 0.798820 0.017805 0.198307
v 0.798748 0.017819 0.198245
v 0.799177 0.019643 0.198307
v 0.799288 0.019621 0.198389
v 0.798932 0.017784 0.198389
v 0.798820 0.017805 0.198307
v 0.799288 0.019621 0.198389
v 0.799405 0.019598 0.198457
v 0.799048 0.017761 0.198457
v 0.798932 0.017784 0.198389
v 0.799405 0.019598 0.198457
v 0.799527 0.019575 0.198514
v 0.799170 0.017737 0.198514
v 0.799048 0.017761 0.198457
v 0.799527 0.019575 0.198514
v 0.799653 0.019550 0.198558
v 0.799296 0.017713 0.198558
v 0.799170 0.017737 0.198514
v 0.799653 0.019550 0.198558
v 0.799784 0.019525 0.198590
v 0.799427 0.017687 0.198590
v 0.799296 0.017713 0.198558
v 0.799784 0.019525 0.198590
v 0.799920 0.019498 0.198609
v 0.799564 0.017661 0.198609
v 0.799427 0.017687 0.198590
v 0.799920 0.019498 0.198609
v 0.800061 0.019471 0.198615
v 0.799704 0.017634 0.198615
v 0.799564 0.017661 0.198609
v 0.800061 0.019471 0.198615
v 0.800156 0.019453 0.198612
v 0.799799 0.017615 0.198612
v 0.799704 0.017634 0.198615
v 0.800156 0.019453 0.198612
v 0.800248 0.019435 0.198604
v 0.799891 0.017597 0.198604
v 0.799799 0.017615 0.198612
v 0.800248 0.019435 0.198604
v 0.800381 0.019409 0.198583
v 0.800024 0.017571 0.198583
v 0.799891 0.017597 0.198604
v 0.800381 0.019409 0.198583
v 0.800509 0.019384 0.198551
v 0.800152 0.017547 0.198551
v 0.800024 0.017571 0.198583
v 0.800509 0.019384 0.198551
v 0.800632 0.019360 0.198507
v 0.800275 0.017523 0.198507
v 0.800152 0.017547 0.198551
v 0.800632 0.019360 0.198507
v 0.800749 0.019337 0.198452
v 0.800392 0.017500 0.198452
v 0.800275 0.017523 0.198507
v 0.800749 0.019337 0.198452
v 0.800861 0.019316 0.198384
v 0.800504 0.017478 0.198384
v 0.800392 0.017500 0.198452
v 0.800861 0.019316 0.198384
v 0.800968 0.019295 0.198306
v 0.800611 0.017458 0.198306
v 0.800504 0.017478 0.198384
v 0.800968 0.019295 0.198306
v 0.801069 0.019275 0.198216
v 0.800712 0.017438 0.198216
v 0.800611 0.017458 0.198306
v 0.801069 0.019275 0.198216
v 0.805435 0.018427 0.193711
v 0.805079 0.016590 0.193711
v 0.800712 0.017438 0.198216
vn 0.5930 0.5946 0.5429
vn 0.2772 -0.7640 0.5826
vn 0.5427 0.6050 0.5826
vn 0.3275 -0.7733 0.5429
vn 0.6231 0.5946 0.5081
vn 0.5712 0.5988 0.5614
vn 0.6142 0.5927 0.5211
vn 0.4604 0.6199 0.6355
vn 0.5181 0.6093 0.6003
vn 0.3354 0.6444 0.6872
vn 0.3984 0.6320 0.6647
vn 0.2156 0.6702 0.7101
vn 0.2725 0.6571 0.7028
vn 0.1273 0.6876 0.7148
vn 0.1715 0.6807 0.7122
vn 0.0043 0.7086 0.7056
vn 0.0699 0.6962 0.7144
vn -0.1282 0.7341 0.6669
vn -0.0624 0.7214 0.6897
vn -0.2506 0.7580 0.6023
vn -0.1914 0.7463 0.6375
vn -0.3326 0.7782 0.5328
vn -0.2983 0.7694 0.5648
vn -0.3716 0.7873 0.4921
vn -0.3518 0.7854 0.5093
vn -0.4490 0.7961 0.4057
vn -0.4077 0.7894 0.4589
vn -0.5153 0.8092 0.2823
vn -0.4847 0.8034 0.3458
vn -0.5562 0.8177 0.1485
vn -0.5400 0.8136 0.2157
vn -0.5657 0.8236 0.0404
vn -0.5643 0.8209 0.0881
vn -0.5683 0.8198 -0.0701
vn -0.5693 0.8221 -0.0078
vn -0.5429 0.8147 -0.2038
vn -0.5581 0.8184 -0.1372
vn -0.4903 0.8043 -0.3356
vn -0.5201 0.8099 -0.2711
vn -0.4178 0.7933 -0.4428
vn -0.4547 0.7981 -0.3954
vn -0.3660 0.7884 -0.4944
vn -0.3883 0.7894 -0.4754
vn -0.3044 0.7689 -0.5623
vn -0.3459 0.7794 -0.5224
vn -0.1911 0.7462 -0.6377
vn -0.2501 0.7581 -0.6023
vn -0.0659 0.7224 -0.6883
vn -0.1287 0.7346 -0.6662
vn 0.0660 0.6965 -0.7145
vn -0.0004 0.7095 -0.7047
vn 0.2210 0.6667 -0.7118
vn 0.1438 0.6783 -0.7205
vn 0.3480 0.6420 -0.6831
vn 0.2851 0.6546 -0.7001
vn 0.4703 0.6182 -0.6297
vn 0.4102 0.6299 -0.6595
vn 0.5799 0.5967 -0.5546
vn 0.5263 0.6077 -0.5947
vn 0.6323 0.5949 -0.4962
vn 0.6159 0.5950 -0.5163
vn 0.7079 0.5717 -0.4149
vn 0.6651 0.5803 -0.4700
vn 0.7772 0.5581 -0.2906
vn 0.7457 0.5641 -0.3546
vn 0.8189 0.5508 -0.1614
vn 0.8014 0.5539 -0.2256
vn 0.8313 0.5526 -0.0600
vn 0.8274 0.5518 -0.1047
vn 0.8359 0.5471 0.0441
vn 0.8350 0.5501 -0.0152
vn 0.8143 0.5503 0.1845
vn 0.8287 0.5480 0.1135
vn 0.7627 0.5606 0.3227
vn 0.7918 0.5549 0.2551
vn 0.6893 0.5777 0.4372
vn 0.7271 0.5675 0.3863
vn 0.6342 0.5939 0.4950
vn 0.6576 0.5855 0.4741
vn 0.5807 0.5966 0.5540
vn 0.6164 0.5946 0.5163
vn 0.4664 0.6186 0.6323
vn 0.5257 0.6072 0.5957
vn 0.3429 0.6438 0.6841
vn 0.4050 0.6308 0.6619
vn 0.2163 0.6680 0.7121
vn 0.2800 0.6552 0.7017
vn 0.1077 0.6886 0.7171
vn 0.1633 0.6816 0.7132
vn -0.0273 0.7135 0.7001
vn 0.0414 0.7018 0.7111
vn -0.1563 0.7402 0.6539
vn -0.0946 0.7276 0.6794
vn -0.2690 0.7621 0.5890
vn -0.2141 0.7514 0.6241
vn -0.3494 0.7830 0.5146
vn -0.3189 0.7722 0.5495
vn -0.3530 0.7865 0.5068
vn 0.5931 0.5944 0.5430
vn 0.4900 0.6149 0.6179
vn -0.3299 0.7739 0.5407
vn 0.4343 0.6255 0.6482
vn -0.2776 0.7633 0.5833
vn 0.3768 0.6369 0.6726
vn -0.2197 0.7517 0.6219
vn -0.1562 0.7391 0.6553
vn 0.3151 0.6486 0.6928
vn -0.0892 0.7262 0.6816
vn 0.2491 0.6608 0.7081
vn -0.0206 0.7129 0.7010
vn 0.1805 0.6741 0.7162
vn 0.0421 0.7032 0.7097
vn 0.1300 0.6897 0.7123
vn 0.0913 0.6956 0.7127
vn 0.6226 0.5957 0.5075
vn 0.3275 -0.7734 0.5428
vn 0.5931 0.5946 0.5429
vn 0.3492 -0.7846 0.5124
vn -0.6222 -0.5961 0.5075
vn -0.5848 -0.5966 0.5496
vn -0.6172 -0.5953 0.5145
vn -0.4798 -0.6164 0.6244
vn -0.5347 -0.6061 0.5888
vn -0.3600 -0.6393 0.6795
vn -0.4222 -0.6279 0.6538
vn -0.2241 -0.6661 0.7114
vn -0.2922 -0.6519 0.6997
vn -0.1042 -0.6931 0.7133
vn -0.1582 -0.6789 0.7170
vn 0.0145 -0.7127 0.7013
vn -0.0493 -0.7002 0.7122
vn 0.1394 -0.7366 0.6619
vn 0.0774 -0.7249 0.6845
vn 0.2608 -0.7596 0.5959
vn 0.2009 -0.7483 0.6322
vn 0.3483 -0.7827 0.5158
vn 0.3154 -0.7705 0.5539
vn 0.3903 -0.7892 0.4742
vn 0.3655 -0.7880 0.4954
vn 0.4619 -0.7985 0.3860
vn 0.4233 -0.7937 0.4369
vn 0.5268 -0.8108 0.2553
vn 0.4972 -0.8054 0.3227
vn 0.5634 -0.8183 0.1134
vn 0.5482 -0.8157 0.1849
vn 0.5683 -0.8227 -0.0151
vn 0.5703 -0.8202 0.0440
vn 0.5611 -0.8211 -0.1046
vn 0.5641 -0.8235 -0.0596
vn 0.5361 -0.8134 -0.2256
vn 0.5525 -0.8177 -0.1615
vn 0.4804 -0.8023 -0.3544
vn 0.5117 -0.8085 -0.2906
vn 0.3995 -0.7871 -0.4700
vn 0.4425 -0.7950 -0.4148
vn 0.3484 -0.7820 -0.5168
vn 0.3640 -0.7886 -0.4956
vn 0.2609 -0.7604 -0.5947
vn 0.3145 -0.7705 -0.5545
vn 0.1447 -0.7376 -0.6595
vn 0.2047 -0.7493 -0.6298
vn 0.0192 -0.7136 -0.7003
vn 0.0823 -0.7258 -0.6829
vn -0.1203 -0.6828 -0.7206
vn -0.0447 -0.7010 -0.7117
vn -0.2664 -0.6577 -0.7046
vn -0.1991 -0.6707 -0.7145
vn -0.3945 -0.6327 -0.6664
vn -0.3314 -0.6455 -0.6882
vn -0.5158 -0.6092 -0.6023
vn -0.4564 -0.6208 -0.6374
vn -0.6124 -0.5935 -0.5223
vn -0.5702 -0.5989 -0.5623
vn -0.6554 -0.5869 -0.4754
vn -0.6347 -0.5938 -0.4945
vn -0.7209 -0.5689 -0.3958
vn -0.6843 -0.5794 -0.4427
vn -0.7855 -0.5563 -0.2711
vn -0.7557 -0.5624 -0.3356
vn -0.8241 -0.5495 -0.1375
vn -0.8083 -0.5523 -0.2039
vn -0.8360 -0.5486 -0.0077
vn -0.8338 -0.5475 -0.0700
vn -0.8303 -0.5503 0.0879
vn -0.8327 -0.5522 0.0405
vn -0.8049 -0.5529 0.2154
vn -0.8220 -0.5498 0.1486
vn -0.7505 -0.5631 0.3459
vn -0.7807 -0.5575 0.2822
vn -0.6737 -0.5789 0.4593
vn -0.7142 -0.5707 0.4053
vn -0.6202 -0.5966 0.5093
vn -0.6390 -0.5911 0.4921
vn -0.5646 -0.6020 0.5646
vn -0.5993 -0.5977 0.5326
vn -0.4570 -0.6203 0.6374
vn -0.5159 -0.6091 0.6024
vn -0.3278 -0.6454 0.6899
vn -0.3937 -0.6329 0.6667
vn -0.1957 -0.6718 0.7144
vn -0.2612 -0.6587 0.7056
vn -0.0957 -0.6953 0.7123
vn -0.1394 -0.6852 0.7149
vn 0.0064 -0.7112 0.7029
vn -0.0509 -0.7023 0.7100
vn 0.1327 -0.7352 0.6647
vn 0.0698 -0.7231 0.6872
vn 0.2526 -0.7585 0.6008
vn 0.1945 -0.7472 0.6356
vn 0.3476 -0.7798 0.5206
vn 0.3059 -0.7691 0.5612
vn 0.3544 -0.7854 0.5075
vn -0.5953 -0.5940 0.5411
vn -0.5432 -0.6037 0.5835
vn -0.4850 -0.6147 0.6220
vn -0.4214 -0.6272 0.6551
vn 0.2774 -0.7639 0.5827
vn -0.3544 -0.6400 0.6817
vn 0.2245 -0.7536 0.6178
vn 0.1684 -0.7428 0.6479
vn -0.2864 -0.6531 0.7010
vn 0.1101 -0.7319 0.6725
vn -0.2244 -0.6676 0.7099
vn 0.0496 -0.7192 0.6930
vn -0.1754 -0.6793 0.7126
vn -0.0162 -0.7061 0.7080
vn -0.1374 -0.6881 0.7125
vn -0.0850 -0.6926 0.7163
vn 0.5426 0.6051 0.5826
vn 0.2244 -0.7537 0.6177
vn 0.4901 0.6149 0.6178
vn 0.2771 -0.7641 0.5825
vn 0.4901 0.6148 0.6179
vn 0.1683 -0.7430 0.6478
vn 0.4342 0.6262 0.6476
vn 0.2243 -0.7537 0.6177
vn 0.4342 0.6261 0.6477
vn 0.1102 -0.7320 0.6723
vn 0.3768 0.6370 0.6725
vn 0.1683 -0.7429 0.6479
vn 0.3767 0.6371 0.6725
vn 0.0496 -0.7194 0.6928
vn 0.3151 0.6487 0.6927
vn 0.1101 -0.7319 0.6724
vn 0.3150 0.6487 0.6927
vn -0.0163 -0.7062 0.7079
vn 0.2491 0.6609 0.7079
vn 0.0495 -0.7194 0.6929
vn 0.2490 0.6609 0.7080
vn -0.0850 -0.6928 0.7162
vn 0.1806 0.6743 0.7161
vn -0.0163 -0.7062 0.7078
vn 0.1805 0.6743 0.7161
vn -0.1374 -0.6882 0.7124
vn -0.0851 -0.6927 0.7162
vn 0.1301 0.6898 0.7123
vn -0.1755 -0.6795 0.7124
vn 0.0913 0.6956 0.7126
vn -0.1375 -0.6881 0.7125
vn 0.0913 0.6957 0.7125
vn -0.2244 -0.6678 0.7097
vn -0.1755 -0.6794 0.7125
vn 0.0421 0.7034 0.7096
vn -0.2863 -0.6533 0.7009
vn -0.0205 0.7129 0.7009
vn -0.2244 -0.6677 0.7098
vn -0.0206 0.7130 0.7009
vn -0.3543 -0.6401 0.6817
vn -0.0892 0.7264 0.6815
vn -0.2864 -0.6533 0.7008
vn -0.0891 0.7263 0.6816
vn -0.4214 -0.6270 0.6552
vn -0.1561 0.7392 0.6551
vn -0.3544 -0.6401 0.6816
vn -0.1562 0.7392 0.6551
vn -0.4849 -0.6149 0.6219
vn -0.2196 0.7517 0.6219
vn -0.4214 -0.6270 0.6553
vn -0.2196 0.7518 0.6218
vn -0.5431 -0.6040 0.5833
vn -0.2775 0.7634 0.5832
vn -0.4850 -0.6149 0.6219
vn -0.2776 0.7634 0.5832
vn -0.3298 0.7739 0.5406
vn -0.5431 -0.6039 0.5833
vn -0.3298 0.7740 0.5405
vn -0.6217 -0.5972 0.5068
vn -0.3486 0.7858 0.5109
vn -0.5953 -0.5941 0.5411
vn -0.3528 0.7866 0.5067
vn -0.6171 -0.5955 0.5144
vn -0.3492 0.7832 0.5145
vn -0.6268 -0.5963 0.5015
vn -0.5847 -0.5968 0.5495
vn -0.3189 0.7723 0.5494
vn -0.6171 -0.5954 0.5145
vn -0.3188 0.7724 0.5493
vn -0.5347 -0.6063 0.5886
vn -0.2690 0.7622 0.5888
vn -0.2690 0.7622 0.5889
vn -0.4798 -0.6165 0.6242
vn -0.2140 0.7516 0.6240
vn -0.5346 -0.6063 0.5887
vn -0.2139 0.7515 0.6241
vn -0.4222 -0.6280 0.6537
vn -0.1562 0.7404 0.6537
vn -0.4797 -0.6166 0.6242
vn -0.1563 0.7404 0.6538
vn -0.3600 -0.6394 0.6793
vn -0.0945 0.7278 0.6793
vn -0.4222 -0.6281 0.6537
vn -0.0945 0.7277 0.6794
vn -0.2923 -0.6521 0.6995
vn -0.0273 0.7136 0.7000
vn -0.3600 -0.6394 0.6794
vn -0.0272 0.7136 0.7000
vn -0.2242 -0.6663 0.7112
vn 0.0414 0.7019 0.7110
vn -0.2922 -0.6521 0.6996
vn 0.0415 0.7019 0.7110
vn -0.1582 -0.6790 0.7169
vn 0.1077 0.6888 0.7169
vn -0.2241 -0.6664 0.7111
vn -0.1042 -0.6932 0.7131
vn 0.1632 0.6817 0.7131
vn -0.1582 -0.6791 0.7168
vn 0.1634 0.6818 0.7131
vn -0.0494 -0.7004 0.7121
vn 0.2163 0.6680 0.7120
vn -0.1042 -0.6932 0.7132
vn 0.2163 0.6681 0.7119
vn 0.0144 -0.7129 0.7011
vn 0.2800 0.6553 0.7016
vn -0.0493 -0.7004 0.7121
vn 0.2801 0.6552 0.7016
vn 0.3428 0.6439 0.6840
vn 0.0145 -0.7129 0.7012
vn 0.3429 0.6438 0.6840
vn 0.1392 -0.7366 0.6618
vn 0.4049 0.6310 0.6617
vn 0.0773 -0.7250 0.6844
vn 0.2009 -0.7484 0.6321
vn 0.4664 0.6187 0.6322
vn 0.1393 -0.7367 0.6618
vn 0.2606 -0.7597 0.5958
vn 0.5256 0.6073 0.5957
vn 0.3152 -0.7706 0.5539
vn 0.5807 0.5966 0.5539
vn 0.2608 -0.7597 0.5957
vn 0.5807 0.5967 0.5538
vn 0.3481 -0.7828 0.5158
vn 0.6163 0.5948 0.5162
vn 0.3153 -0.7706 0.5539
vn 0.3654 -0.7881 0.4953
vn 0.6273 0.5954 0.5019
vn 0.3482 -0.7828 0.5157
vn 0.6342 0.5941 0.4949
vn 0.3902 -0.7893 0.4741
vn 0.6574 0.5858 0.4740
vn 0.3716 -0.7894 0.4886
vn 0.6575 0.5857 0.4740
vn 0.4232 -0.7937 0.4369
vn 0.6892 0.5779 0.4370
vn 0.3901 -0.7893 0.4741
vn 0.6893 0.5778 0.4370
vn 0.4618 -0.7986 0.3860
vn 0.7270 0.5678 0.3861
vn 0.4233 -0.7937 0.4368
vn 0.4971 -0.8054 0.3228
vn 0.7626 0.5607 0.3226
vn 0.4617 -0.7987 0.3859
vn 0.5266 -0.8108 0.2553
vn 0.7917 0.5551 0.2551
vn 0.4972 -0.8054 0.3228
vn 0.7918 0.5550 0.2550
vn 0.5481 -0.8157 0.1849
vn 0.8142 0.5504 0.1846
vn 0.8142 0.5505 0.1845
vn 0.5633 -0.8184 0.1134
vn 0.8286 0.5483 0.1136
vn 0.5481 -0.8157 0.1848
vn 0.8286 0.5482 0.1135
vn 0.5701 -0.8204 0.0440
vn 0.8359 0.5472 0.0441
vn 0.5682 -0.8228 -0.0151
vn 0.8349 0.5501 -0.0152
vn 0.8349 0.5501 -0.0153
vn 0.8312 0.5527 -0.0600
vn 0.5681 -0.8228 -0.0151
vn 0.5610 -0.8212 -0.1046
vn 0.8273 0.5519 -0.1047
vn 0.5641 -0.8236 -0.0597
vn 0.5524 -0.8178 -0.1614
vn 0.8188 0.5510 -0.1613
vn 0.5609 -0.8212 -0.1046
vn 0.8188 0.5510 -0.1614
vn 0.5359 -0.8136 -0.2255
vn 0.8014 0.5540 -0.2255
vn 0.8013 0.5541 -0.2255
vn 0.5115 -0.8087 -0.2906
vn 0.7771 0.5583 -0.2906
vn 0.5359 -0.8136 -0.2256
vn 0.4803 -0.8024 -0.3543
vn 0.7456 0.5643 -0.3544
vn 0.5115 -0.8086 -0.2906
vn 0.7456 0.5643 -0.3545
vn 0.4425 -0.7951 -0.4147
vn 0.7079 0.5718 -0.4148
vn 0.4802 -0.8024 -0.3544
vn 0.7078 0.5717 -0.4149
vn 0.3995 -0.7872 -0.4699
vn 0.6649 0.5806 -0.4698
vn 0.4424 -0.7952 -0.4147
vn 0.6649 0.5805 -0.4700
vn 0.3639 -0.7886 -0.4957
vn 0.6383 0.5940 -0.4896
vn 0.3994 -0.7871 -0.4700
vn 0.6322 0.5951 -0.4961
vn 0.3483 -0.7822 -0.5166
vn 0.6158 0.5952 -0.5162
vn 0.3580 -0.7875 -0.5016
vn 0.3143 -0.7707 -0.5543
vn 0.5799 0.5969 -0.5545
vn 0.5798 0.5968 -0.5546
vn 0.2609 -0.7605 -0.5946
vn 0.5263 0.6078 -0.5946
vn 0.3143 -0.7706 -0.5543
vn 0.5263 0.6077 -0.5948
vn 0.2046 -0.7494 -0.6297
vn 0.4703 0.6184 -0.6296
vn 0.2608 -0.7606 -0.5946
vn 0.1446 -0.7378 -0.6593
vn 0.4102 0.6300 -0.6594
vn 0.4101 0.6301 -0.6594
vn 0.0823 -0.7259 -0.6828
vn 0.3480 0.6422 -0.6830
vn 0.1446 -0.7377 -0.6594
vn 0.3479 0.6422 -0.6830
vn 0.0192 -0.7137 -0.7002
vn 0.2851 0.6548 -0.7000
vn 0.0822 -0.7260 -0.6828
vn -0.0447 -0.7012 -0.7116
vn 0.2211 0.6669 -0.7116
vn 0.0191 -0.7137 -0.7002
vn 0.2209 0.6669 -0.7116
vn -0.1204 -0.6829 -0.7205
vn 0.1439 0.6784 -0.7204
vn -0.0448 -0.7012 -0.7116
vn 0.1439 0.6785 -0.7204
vn -0.1991 -0.6709 -0.7143
vn 0.0661 0.6966 -0.7144
vn 0.0660 0.6967 -0.7143
vn -0.2664 -0.6579 -0.7044
vn -0.0004 0.7097 -0.7045
vn -0.0004 0.7096 -0.7046
vn -0.3313 -0.6456 -0.6880
vn -0.0657 0.7226 -0.6882
vn -0.2664 -0.6578 -0.7045
vn -0.0658 0.7226 -0.6882
vn -0.3945 -0.6329 -0.6662
vn -0.1286 0.7347 -0.6661
vn -0.3315 -0.6456 -0.6880
vn -0.1287 0.7347 -0.6661
vn -0.4564 -0.6209 -0.6373
vn -0.1909 0.7464 -0.6375
vn -0.3945 -0.6328 -0.6662
vn -0.1910 0.7464 -0.6375
vn -0.5158 -0.6093 -0.6022
vn -0.2500 0.7582 -0.6022
vn -0.4564 -0.6210 -0.6373
vn -0.2500 0.7583 -0.6021
vn -0.5701 -0.5991 -0.5622
vn -0.3043 0.7690 -0.5622
vn -0.5158 -0.6094 -0.6022
vn -0.3044 0.7690 -0.5621
vn -0.6123 -0.5937 -0.5221
vn -0.3459 0.7794 -0.5223
vn -0.5702 -0.5991 -0.5622
vn -0.3459 0.7795 -0.5223
vn -0.6345 -0.5940 -0.4945
vn -0.3590 0.7873 -0.5014
vn -0.6124 -0.5937 -0.5221
vn -0.3658 0.7886 -0.4943
vn -0.6553 -0.5870 -0.4755
vn -0.3880 0.7897 -0.4753
vn -0.6346 -0.5940 -0.4944
vn -0.3877 0.7899 -0.4751
vn -0.6843 -0.5796 -0.4425
vn -0.4177 0.7934 -0.4427
vn -0.7207 -0.5691 -0.3958
vn -0.4546 0.7982 -0.3954
vn -0.6844 -0.5793 -0.4427
vn -0.4546 0.7981 -0.3954
vn -0.7556 -0.5626 -0.3356
vn -0.4902 0.8044 -0.3356
vn -0.7208 -0.5691 -0.3958
vn -0.4901 0.8045 -0.3355
vn -0.7854 -0.5565 -0.2710
vn -0.5200 0.8101 -0.2710
vn -0.7556 -0.5626 -0.3355
vn -0.5200 0.8100 -0.2709
vn -0.8082 -0.5525 -0.2039
vn -0.5427 0.8148 -0.2038
vn -0.5427 0.8149 -0.2037
vn -0.8240 -0.5497 -0.1375
vn -0.5579 0.8185 -0.1372
vn -0.5580 0.8184 -0.1372
vn -0.5681 0.8199 -0.0701
vn -0.8240 -0.5496 -0.1374
vn -0.5681 0.8200 -0.0701
vn -0.8359 -0.5488 -0.0078
vn -0.5691 0.8223 -0.0078
vn -0.8338 -0.5476 -0.0700
vn -0.5691 0.8222 -0.0078
vn -0.8327 -0.5523 0.0404
vn -0.5655 0.8237 0.0403
vn -0.8359 -0.5488 -0.0076
vn -0.5655 0.8237 0.0404
vn -0.8302 -0.5505 0.0878
vn -0.5640 0.8211 0.0881
vn -0.8326 -0.5523 0.0405
vn -0.5641 0.8210 0.0881
vn -0.5561 0.8178 0.1485
vn -0.8302 -0.5505 0.0879
vn -0.5560 0.8178 0.1486
vn -0.8048 -0.5531 0.2153
vn -0.5398 0.8137 0.2155
vn -0.5398 0.8137 0.2156
vn -0.7807 -0.5576 0.2821
vn -0.5152 0.8093 0.2822
vn -0.8048 -0.5531 0.2155
vn -0.5151 0.8093 0.2823
vn -0.7505 -0.5633 0.3457
vn -0.4847 0.8034 0.3457
vn -0.7807 -0.5576 0.2822
vn -0.4846 0.8035 0.3458
vn -0.7141 -0.5707 0.4053
vn -0.4488 0.7963 0.4056
vn -0.7504 -0.5633 0.3457
vn -0.4488 0.7963 0.4057
vn -0.6737 -0.5791 0.4591
vn -0.4076 0.7895 0.4588
vn -0.7142 -0.5707 0.4054
vn -0.4075 0.7895 0.4589
vn -0.6390 -0.5913 0.4920
vn -0.3715 0.7874 0.4919
vn -0.6736 -0.5791 0.4592
vn -0.3714 0.7874 0.4920
vn -0.6202 -0.5968 0.5091
vn -0.3518 0.7855 0.5092
vn -0.6390 -0.5913 0.4921
vn -0.3517 0.7855 0.5092
vn -0.5992 -0.5978 0.5324
vn -0.3324 0.7783 0.5327
vn -0.5645 -0.6022 0.5645
vn -0.2983 0.7695 0.5647
vn -0.5992 -0.5977 0.5326
vn -0.2981 0.7696 0.5647
vn -0.5159 -0.6093 0.6022
vn -0.2505 0.7580 0.6022
vn -0.5645 -0.6021 0.5646
vn -0.2504 0.7581 0.6022
vn -0.4570 -0.6205 0.6373
vn -0.1914 0.7465 0.6373
vn -0.5158 -0.6093 0.6023
vn -0.1913 0.7464 0.6374
vn -0.3937 -0.6329 0.6666
vn -0.1282 0.7342 0.6668
vn -0.1281 0.7341 0.6668
vn -0.3279 -0.6455 0.6898
vn -0.0624 0.7215 0.6896
vn -0.3937 -0.6330 0.6666
vn 0.0044 0.7087 0.7055
vn -0.3279 -0.6456 0.6897
vn -0.1958 -0.6720 0.7142
vn 0.0700 0.6963 0.7143
vn -0.1394 -0.6854 0.7147
vn 0.1273 0.6878 0.7147
vn -0.1957 -0.6720 0.7143
vn -0.0958 -0.6955 0.7121
vn 0.1715 0.6808 0.7121
vn -0.1393 -0.6854 0.7147
vn 0.1716 0.6808 0.7121
vn -0.0509 -0.7024 0.7099
vn 0.2156 0.6705 0.7099
vn 0.2156 0.6704 0.7100
vn 0.0064 -0.7113 0.7028
vn 0.2725 0.6572 0.7028
vn 0.2725 0.6572 0.7027
vn 0.0697 -0.7233 0.6870
vn 0.3353 0.6445 0.6872
vn 0.0065 -0.7113 0.7029
vn 0.3355 0.6445 0.6871
vn 0.1326 -0.7353 0.6646
vn 0.3983 0.6322 0.6645
vn 0.3984 0.6322 0.6646
vn 0.1944 -0.7473 0.6355
vn 0.4603 0.6200 0.6354
vn 0.1327 -0.7353 0.6646
vn 0.4603 0.6200 0.6353
vn 0.2524 -0.7586 0.6007
vn 0.1944 -0.7473 0.6354
vn 0.5181 0.6093 0.6002
vn 0.3057 -0.7693 0.5610
vn 0.5712 0.5990 0.5613
vn 0.2525 -0.7586 0.6006
vn 0.5712 0.5990 0.5612
vn 0.3475 -0.7799 0.5206
vn 0.6141 0.5928 0.5210
vn 0.3058 -0.7692 0.5611
vn 0.6141 0.5929 0.5210
vn 0.3543 -0.7855 0.5074
vt 0.272204 0.448460
vt 0.275949 0.453231
vt 0.267081 0.443064
vt 0.016835 0.195213
vt 0.021739 0.200828
vt 0.008904 0.183089
vt 0.012557 0.189300
vt 0.003478 0.169772
vt 0.005878 0.176580
vt 0.000557 0.155263
vt 0.001704 0.162667
vt 0.000000 0.144928
vt 0.000139 0.150162
vt 0.001371 0.129564
vt 0.000343 0.137111
vt 0.005486 0.115273
vt 0.003086 0.122284
vt 0.012343 0.102055
vt 0.008571 0.108530
vt 0.020152 0.091861
vt 0.016800 0.095849
vt 0.089027 0.022774
vt 0.023810 0.087992
vt 0.100555 0.013154
vt 0.094642 0.017636
vt 0.113275 0.006158
vt 0.106766 0.009328
vt 0.127188 0.001786
vt 0.120083 0.003644
vt 0.139694 0.000146
vt 0.134592 0.000583
vt 0.154000 0.000446
vt 0.144928 0.000000
vt 0.168609 0.003289
vt 0.161453 0.001540
vt 0.182025 0.008754
vt 0.175466 0.005694
vt 0.194248 0.016844
vt 0.188286 0.012471
vt 0.200828 0.022774
vt 0.197118 0.019276
vt 0.626022 0.447659
vt 0.621118 0.442029
vt 0.633953 0.459902
vt 0.630301 0.453617
vt 0.639379 0.473458
vt 0.636979 0.466516
vt 0.642431 0.489623
vt 0.641153 0.480727
vt 0.642121 0.508327
vt 0.642857 0.498965
vt 0.638782 0.523433
vt 0.640779 0.516029
vt 0.632819 0.537346
vt 0.636128 0.530538
vt 0.624233 0.550066
vt 0.628854 0.543855
vt 0.197723 0.977226
vt 0.618012 0.556936
vt 0.187069 0.986468
vt 0.192575 0.982145
vt 0.174985 0.993325
vt 0.181206 0.990195
vt 0.161469 0.997797
vt 0.168406 0.995859
vt 0.149113 0.999702
vt 0.154175 0.999139
vt 0.136076 0.999891
vt 0.143892 1.000000
vt 0.121249 0.997525
vt 0.128528 0.999066
vt 0.107495 0.992298
vt 0.114238 0.995270
vt 0.094814 0.984209
vt 0.101020 0.988611
vt 0.086957 0.977226
vt 0.090826 0.980876
vt 0.018890 0.908667
vt 0.023810 0.914079
vt 0.010841 0.896682
vt 0.014567 0.902869
vt 0.005176 0.883147
vt 0.007710 0.890108
vt 0.001731 0.866734
vt 0.003238 0.875798
vt 0.000922 0.847551
vt 0.001035 0.857143
vt 0.002900 0.832337
vt 0.001568 0.839750
vt 0.007122 0.819752
vt 0.004917 0.825311
vt 0.012961 0.809441
vt 0.009803 0.814462
vt 0.020704 0.800207
vt 0.016594 0.804689
vt 0.263975 0.556936
vt 0.279218 0.458249
vt 0.269580 0.551072
vt 0.282011 0.463516
vt 0.274470 0.544911
vt 0.284328 0.469032
vt 0.278643 0.538451
vt 0.282102 0.531694
vt 0.286169 0.474796
vt 0.284845 0.524638
vt 0.287749 0.482041
vt 0.286872 0.517284
vt 0.288643 0.489643
vt 0.288184 0.509631
vt 0.288820 0.498965
vt 0.288661 0.504364
s 1
f 1/1/1 3/2/2 2/2/3
f 1/1/1 4/1/4 3/2/2
f 6/3/5 8/4/6 7/5/7
f 8/4/6 10/6/8 9/7/9
f 10/6/8 12/8/10 11/9/11
f 12/8/10 14/10/12 13/11/13
f 14/10/12 16/12/14 15/13/15
f 16/12/14 18/14/16 17/15/17
f 18/14/16 20/16/18 19/17/19
f 20/16/18 22/18/20 21/19/21
f 22/18/20 24/20/22 23/21/23
f 24/20/22 26/22/24 25/23/25
f 26/22/24 28/24/26 27/25/27
f 28/24/26 30/26/28 29/27/29
f 30/26/28 32/28/30 31/29/31
f 32/28/30 34/30/32 33/31/33
f 34/30/32 36/32/34 35/33/35
f 36/32/34 38/34/36 37/35/37
f 38/34/36 40/36/38 39/37/39
f 40/36/38 42/38/40 41/39/41
f 42/38/40 44/40/42 43/41/43
f 44/40/42 46/42/44 45/43/45
f 46/42/44 48/44/46 47/45/47
f 48/44/46 50/46/48 49/47/49
f 50/46/48 52/48/50 51/49/51
f 52/48/50 54/50/52 53/51/53
f 54/50/52 56/52/54 55/53/55
f 56/52/54 58/54/56 57/55/57
f 58/54/56 60/56/58 59/57/59
f 60/56/58 62/58/60 61/59/61
f 62/58/60 64/60/62 63/61/63
f 64/60/62 66/62/64 65/63/65
f 66/62/64 68/64/66 67/65/67
f 68/64/66 70/66/68 69/67/69
f 70/66/68 72/68/70 71/69/71
f 72/68/70 74/70/72 73/71/73
f 74/70/72 76/72/74 75/73/75
f 76/72/74 78/74/76 77/75/77
f 78/74/76 80/76/78 79/77/79
f 80/76/78 82/78/80 81/79/81
f 82/78/80 84/80/82 83/81/83
f 84/80/82 86/82/84 85/83/85
f 86/82/84 88/84/86 87/85/87
f 88/84/86 90/86/88 89/87/89
f 90/86/88 92/88/90 91/89/91
f 92/88/90 94/90/92 93/91/93
f 94/90/92 96/92/94 95/93/95
f 96/92/94 98/94/96 97/95/97
f 6/3/5 10/6/8 8/4/6
f 10/6/8 14/10/12 12/8/10
f 14/10/12 18/14/16 16/12/14
f 18/14/16 22/18/20 20/16/18
f 22/18/20 26/22/24 24/20/22
f 26/22/24 30/26/28 28/24/26
f 30/26/28 34/30/32 32/28/30
f 34/30/32 38/34/36 36/32/34
f 38/34/36 42/38/40 40/36/38
f 42/38/40 46/42/44 44/40/42
f 46/42/44 50/46/48 48/44/46
f 50/46/48 54/50/52 52/48/50
f 54/50/52 58/54/56 56/52/54
f 58/54/56 62/58/60 60/56/58
f 62/58/60 66/62/64 64/60/62
f 66/62/64 70/66/68 68/64/66
f 70/66/68 74/70/72 72/68/70
f 74/70/72 78/74/76 76/72/74
f 78/74/76 82/78/80 80/76/78
f 82/78/80 86/82/84 84/80/82
f 86/82/84 90/86/88 88/84/86
f 90/86/88 94/90/92 92/88/90
f 94/90/92 98/94/96 96/92/94
f 6/3/5 14/10/12 10/6/8
f 14/10/12 22/18/20 18/14/16
f 22/18/20 30/26/28 26/22/24
f 30/26/28 38/34/36 34/30/32
f 38/34/36 46/42/44 42/38/40
f 46/42/44 54/50/52 50/46/48
f 54/50/52 62/58/60 58/54/56
f 62/58/60 70/66/68 66/62/64
f 70/66/68 78/74/76 74/70/72
f 78/74/76 86/82/84 82/78/80
f 86/82/84 94/90/92 90/86/88
f 94/90/92 99/96/98 98/94/96
f 5/1/99 14/10/12 6/3/5
f 14/10/12 30/26/28 22/18/20
f 30/26/28 46/42/44 38/34/36
f 46/42/44 62/58/60 54/50/52
f 62/58/60 78/74/76 70/66/68
f 78/74/76 94/90/92 86/82/84
f 5/1/99 30/26/28 14/10/12
f 46/42/44 78/74/76 62/58/60
f 78/74/76 99/96/98 94/90/92
f 115/2/3 30/26/28 5/1/99
f 46/42/44 99/96/98 78/74/76
f 114/97/100 30/26/28 115/2/3
f 46/42/44 100/98/101 99/96/98
f 113/99/102 30/26/28 114/97/100
f 46/42/44 101/100/103 100/98/101
f 112/101/104 30/26/28 113/99/102
f 46/42/44 102/102/105 101/100/103
f 112/101/104 46/42/44 30/26/28
f 46/42/44 103/103/106 102/102/105
f 111/104/107 46/42/44 112/101/104
f 46/42/44 104/105/108 103/103/106
f 110/106/109 46/42/44 111/104/107
f 46/42/44 105/107/110 104/105/108
f 109/108/111 46/42/44 110/106/109
f 46/42/44 106/109/112 105/107/110
f 108/110/113 46/42/44 109/108/111
f 46/42/44 107/111/114 106/109/112
f 107/111/114 46/42/44 108/110/113
f 116/3/115 118/1/116 117/1/117
f 116/3/115 119/3/118 118/1/116
f 137/96/119 139/95/120 138/94/121
f 139/95/120 141/93/122 140/92/123
f 141/93/122 143/91/124 142/90/125
f 143/91/124 145/89/126 144/88/127
f 145/89/126 147/87/128 146/86/129
f 147/87/128 149/85/130 148/84/131
f 149/85/130 151/83/132 150/82/133
f 151/83/132 153/81/134 152/80/135
f 153/81/134 155/79/136 154/78/137
f 155/79/136 157/77/138 156/76/139
f 157/77/138 159/75/140 158/74/141
f 159/75/140 161/73/142 160/72/143
f 161/73/142 163/71/144 162/70/145
f 163/71/144 165/69/146 164/68/147
f 165/69/146 167/67/148 166/66/149
f 167/67/148 169/65/150 168/64/151
f 169/65/150 171/63/152 170/62/153
f 171/63/152 173/61/154 172/60/155
f 173/61/154 175/59/156 174/58/157
f 175/59/156 177/57/158 176/56/159
f 177/57/158 179/55/160 178/54/161
f 179/55/160 181/53/162 180/52/163
f 181/53/162 183/51/164 182/50/165
f 183/51/164 185/49/166 184/48/167
f 185/49/166 187/47/168 186/46/169
f 187/47/168 189/45/170 188/44/171
f 189/45/170 191/43/172 190/42/173
f 191/43/172 193/41/174 192/40/175
f 193/41/174 195/39/176 194/38/177
f 195/39/176 197/37/178 196/36/179
f 197/37/178 199/35/180 198/34/181
f 199/35/180 201/33/182 200/32/183
f 201/33/182 203/31/184 202/30/185
f 203/31/184 205/29/186 204/28/187
f 205/29/186 207/27/188 206/26/189
f 207/27/188 209/25/190 208/24/191
f 209/25/190 211/23/192 210/22/193
f 211/23/192 213/21/194 212/20/195
f 213/21/194 215/19/196 214/18/197
f 215/19/196 217/17/198 216/16/199
f 217/17/198 219/15/200 218/14/201
f 219/15/200 221/13/202 220/12/203
f 221/13/202 223/11/204 222/10/205
f 223/11/204 225/9/206 224/8/207
f 225/9/206 227/7/208 226/6/209
f 227/7/208 229/5/210 228/4/211
f 137/96/119 141/93/122 139/95/120
f 141/93/122 145/89/126 143/91/124
f 145/89/126 149/85/130 147/87/128
f 149/85/130 153/81/134 151/83/132
f 153/81/134 157/77/138 155/79/136
f 157/77/138 161/73/142 159/75/140
f 161/73/142 165/69/146 163/71/144
f 165/69/146 169/65/150 167/67/148
f 169/65/150 173/61/154 171/63/152
f 173/61/154 177/57/158 175/59/156
f 177/57/158 181/53/162 179/55/160
f 181/53/162 185/49/166 183/51/164
f 185/49/166 189/45/170 187/47/168
f 189/45/170 193/41/174 191/43/172
f 193/41/174 197/37/178 195/39/176
f 197/37/178 201/33/182 199/35/180
f 201/33/182 205/29/186 203/31/184
f 205/29/186 209/25/190 207/27/188
f 209/25/190 213/21/194 211/23/192
f 213/21/194 217/17/198 215/19/196
f 217/17/198 221/13/202 219/15/200
f 221/13/202 225/9/206 223/11/204
f 225/9/206 229/5/210 227/7/208
f 137/96/119 145/89/126 141/93/122
f 145/89/126 153/81/134 149/85/130
f 153/81/134 161/73/142 157/77/138
f 161/73/142 169/65/150 165/69/146
f 169/65/150 177/57/158 173/61/154
f 177/57/158 185/49/166 181/53/162
f 185/49/166 193/41/174 189/45/170
f 193/41/174 201/33/182 197/37/178
f 201/33/182 209/25/190 205/29/186
f 209/25/190 217/17/198 213/21/194
f 217/17/198 225/9/206 221/13/202
f 225/9/206 230/3/212 229/5/210
f 136/98/213 145/89/126 137/96/119
f 145/89/126 161/73/142 153/81/134
f 161/73/142 177/57/158 169/65/150
f 177/57/158 193/41/174 185/49/166
f 193/41/174 209/25/190 201/33/182
f 209/25/190 225/9/206 217/17/198
f 136/98/213 161/73/142 145/89/126
f 177/57/158 209/25/190 193/41/174
f 209/25/190 230/3/212 225/9/206
f 135/100/214 161/73/142 136/98/213
f 177/57/158 230/3/212 209/25/190
f 134/102/215 161/73/142 135/100/214
f 177/57/158 120/1/4 230/3/212
f 133/103/216 161/73/142 134/102/215
f 177/57/158 121/2/217 120/1/4
f 132/105/218 161/73/142 133/103/216
f 177/57/158 122/97/219 121/2/217
f 132/105/218 177/57/158 161/73/142
f 177/57/158 123/99/220 122/97/219
f 131/107/221 177/57/158 132/105/218
f 177/57/158 124/101/222 123/99/220
f 130/109/223 177/57/158 131/107/221
f 177/57/158 125/104/224 124/101/222
f 129/111/225 177/57/158 130/109/223
f 177/57/158 126/106/226 125/104/224
f 128/110/227 177/57/158 129/111/225
f 177/57/158 127/108/228 126/106/226
f 127/108/228 177/57/158 128/110/227
f 231/2/229 233/97/230 232/97/231
f 231/2/229 234/2/232 233/97/230
f 235/97/233 237/99/234 236/99/235
f 235/97/233 238/97/236 237/99/234
f 239/99/237 241/101/238 240/101/239
f 239/99/237 242/99/240 241/101/238
f 243/101/241 245/104/242 244/104/243
f 243/101/241 246/101/244 245/104/242
f 247/104/245 249/106/246 248/106/247
f 247/104/245 250/104/248 249/106/246
f 251/106/249 253/108/250 252/108/251
f 251/106/249 254/106/252 253/108/250
f 255/108/253 257/110/254 256/110/113
f 255/108/253 258/108/255 257/110/254
f 259/110/256 261/111/257 260/111/258
f 259/110/256 262/110/259 261/111/257
f 263/111/260 265/109/261 264/109/112
f 263/111/260 266/111/262 265/109/261
f 267/109/263 269/107/264 268/107/265
f 267/109/263 270/109/266 269/107/264
f 271/107/267 273/105/268 272/105/269
f 271/107/267 274/107/270 273/105/268
f 275/105/271 277/103/272 276/103/273
f 275/105/271 278/105/274 277/103/272
f 279/103/275 281/102/276 280/102/277
f 279/103/275 282/103/278 281/102/276
f 283/102/279 285/100/280 284/100/281
f 283/102/279 286/102/282 285/100/280
f 287/100/283 289/98/213 288/98/284
f 287/100/283 290/100/285 289/98/213
f 291/98/286 293/96/287 292/96/288
f 291/98/286 294/98/289 293/96/287
f 295/96/290 297/94/291 296/94/292
f 295/96/290 298/96/293 297/94/291
f 299/94/292 301/95/294 300/95/295
f 299/94/292 302/94/296 301/95/294
f 303/95/297 305/92/298 304/92/299
f 303/95/297 306/95/294 305/92/298
f 307/92/300 309/93/301 308/93/302
f 307/92/300 310/92/303 309/93/301
f 311/93/304 313/90/305 312/90/306
f 311/93/304 314/93/307 313/90/305
f 315/90/308 317/91/309 316/91/310
f 315/90/308 318/90/311 317/91/309
f 319/91/312 321/88/313 320/88/314
f 319/91/312 322/91/315 321/88/313
f 323/88/316 325/89/317 324/89/318
f 323/88/316 326/88/319 325/89/317
f 327/89/320 329/86/321 328/86/322
f 327/89/320 330/89/323 329/86/321
f 331/86/322 333/87/324 332/87/325
f 331/86/322 334/86/326 333/87/324
f 335/87/327 337/84/328 336/84/329
f 335/87/327 338/87/330 337/84/328
f 339/84/331 341/85/332 340/85/333
f 339/84/331 342/84/334 341/85/332
f 343/85/335 345/82/133 344/82/336
f 343/85/335 346/85/337 345/82/133
f 347/82/338 349/83/339 348/83/340
f 347/82/338 350/82/341 349/83/339
f 351/83/340 353/80/342 352/80/343
f 351/83/340 354/83/344 353/80/342
f 355/80/343 357/81/345 356/81/346
f 355/80/343 358/80/342 357/81/345
f 359/81/83 361/78/347 360/78/348
f 359/81/83 362/81/349 361/78/347
f 363/78/350 365/79/351 364/79/352
f 363/78/350 366/78/353 365/79/351
f 367/79/352 369/76/354 368/76/355
f 367/79/352 370/79/356 369/76/354
f 371/76/357 373/77/358 372/77/359
f 371/76/357 374/76/360 373/77/358
f 375/77/361 377/74/362 376/74/363
f 375/77/361 378/77/364 377/74/362
f 379/74/365 381/75/366 380/75/367
f 379/74/365 382/74/368 381/75/366
f 383/75/367 385/72/369 384/72/370
f 383/75/367 386/75/371 385/72/369
f 387/72/370 389/73/372 388/73/373
f 387/72/370 390/72/374 389/73/372
f 391/73/375 393/70/376 392/70/377
f 391/73/375 394/73/372 393/70/376
f 395/70/378 397/71/379 396/71/380
f 395/70/378 398/70/381 397/71/379
f 399/71/382 401/68/383 400/68/384
f 399/71/382 402/71/379 401/68/383
f 403/68/70 405/69/385 404/69/386
f 403/68/70 406/68/383 405/69/385
f 407/69/387 409/66/149 408/66/388
f 407/69/387 410/69/389 409/66/149
f 411/66/388 413/67/390 412/67/391
f 411/66/388 414/66/392 413/67/390
f 415/67/391 417/64/393 416/64/394
f 415/67/391 418/67/395 417/64/393
f 419/64/396 421/65/397 420/65/398
f 419/64/396 422/64/151 421/65/397
f 423/65/399 425/62/400 424/62/401
f 423/65/399 426/65/402 425/62/400
f 427/62/401 429/63/403 428/63/404
f 427/62/401 430/62/405 429/63/403
f 431/63/406 433/60/407 432/60/408
f 431/63/406 434/63/409 433/60/407
f 435/60/410 437/61/411 436/61/412
f 435/60/410 438/60/413 437/61/411
f 439/61/414 441/58/415 440/58/416
f 439/61/414 442/61/417 441/58/415
f 443/58/418 445/59/419 444/59/420
f 443/58/418 446/58/421 445/59/419
f 447/59/420 449/56/422 448/56/423
f 447/59/420 450/59/419 449/56/422
f 451/56/424 453/57/425 452/57/426
f 451/56/424 454/56/427 453/57/425
f 455/57/428 457/54/429 456/54/430
f 455/57/428 458/57/431 457/54/429
f 459/54/430 461/55/432 460/55/433
f 459/54/430 462/54/429 461/55/432
f 463/55/434 465/52/435 464/52/436
f 463/55/434 466/55/437 465/52/435
f 467/52/438 469/53/439 468/53/440
f 467/52/438 470/52/441 469/53/439
f 471/53/440 473/50/442 472/50/443
f 471/53/440 474/53/444 473/50/442
f 475/50/445 477/51/446 476/51/447
f 475/50/445 478/50/448 477/51/446
f 479/51/449 481/48/450 480/48/451
f 479/51/449 482/51/446 481/48/450
f 483/48/452 485/49/453 484/49/454
f 483/48/452 486/48/450 485/49/453
f 487/49/455 489/46/456 488/46/457
f 487/49/455 490/49/458 489/46/456
f 491/46/459 493/47/460 492/47/461
f 491/46/459 494/46/462 493/47/460
f 495/47/463 497/44/464 496/44/465
f 495/47/463 498/47/466 497/44/464
f 499/44/467 501/45/468 500/45/469
f 499/44/467 502/44/470 501/45/468
f 503/45/471 505/42/472 504/42/473
f 503/45/471 506/45/474 505/42/472
f 507/42/475 509/43/476 508/43/477
f 507/42/475 510/42/478 509/43/476
f 511/43/479 513/40/480 512/40/481
f 511/43/479 514/43/482 513/40/480
f 515/40/483 517/41/484 516/41/485
f 515/40/483 518/40/486 517/41/484
f 519/41/487 521/38/488 520/38/40
f 519/41/487 522/41/174 521/38/488
f 523/38/489 525/39/490 524/39/491
f 523/38/489 526/38/492 525/39/490
f 527/39/493 529/36/494 528/36/495
f 527/39/493 530/39/496 529/36/494
f 531/36/497 533/37/498 532/37/499
f 531/36/497 534/36/500 533/37/498
f 535/37/501 537/34/502 536/34/503
f 535/37/501 538/37/498 537/34/502
f 539/34/504 541/35/505 540/35/506
f 539/34/504 542/34/502 541/35/505
f 543/35/507 545/32/183 544/32/508
f 543/35/507 546/35/509 545/32/183
f 547/32/510 549/33/511 548/33/512
f 547/32/510 550/32/513 549/33/511
f 551/33/514 553/30/515 552/30/516
f 551/33/514 554/33/517 553/30/515
f 555/30/518 557/31/519 556/31/520
f 555/30/518 558/30/521 557/31/519
f 559/31/522 561/28/187 560/28/523
f 559/31/522 562/31/524 561/28/187
f 563/28/525 565/29/526 564/29/527
f 563/28/525 566/28/187 565/29/526
f 567/29/528 569/26/529 568/26/530
f 567/29/528 570/29/531 569/26/529
f 571/26/532 573/27/533 572/27/534
f 571/26/532 574/26/535 573/27/533
f 575/27/536 577/24/537 576/24/538
f 575/27/536 578/27/539 577/24/537
f 579/24/540 581/25/541 580/25/542
f 579/24/540 582/24/543 581/25/541
f 583/25/544 585/22/545 584/22/546
f 583/25/544 586/25/547 585/22/545
f 587/22/548 589/23/549 588/23/550
f 587/22/548 590/22/551 589/23/549
f 591/23/552 593/20/553 592/20/22
f 591/23/552 594/23/192 593/20/553
f 595/20/554 597/21/555 596/21/556
f 595/20/554 598/20/557 597/21/555
f 599/21/558 601/18/559 600/18/560
f 599/21/558 602/21/561 601/18/559
f 603/18/562 605/19/563 604/19/564
f 603/18/562 606/18/565 605/19/563
f 607/19/566 609/16/567 608/16/568
f 607/19/566 610/19/563 609/16/567
f 611/16/569 613/17/570 612/17/571
f 611/16/569 614/16/572 613/17/570
f 615/17/571 617/14/201 616/14/573
f 615/17/571 618/17/574 617/14/201
f 619/14/573 621/15/575 620/15/576
f 619/14/573 622/14/201 621/15/575
f 623/15/576 625/12/577 624/12/578
f 623/15/576 626/15/579 625/12/577
f 627/12/578 629/13/580 628/13/581
f 627/12/578 630/12/582 629/13/580
f 631/13/583 633/10/584 632/10/585
f 631/13/583 634/13/580 633/10/584
f 635/10/586 637/11/587 636/11/588
f 635/10/586 638/10/584 637/11/587
f 639/11/589 641/8/590 640/8/591
f 639/11/589 642/11/592 641/8/590
f 643/8/593 645/9/594 644/9/595
f 643/8/593 646/8/590 645/9/594
f 647/9/596 649/6/597 648/6/598
f 647/9/596 650/9/599 649/6/597
f 651/6/600 653/7/601 652/7/9
f 651/6/600 654/6/602 653/7/601
f 655/7/603 657/4/604 656/4/605
f 655/7/603 658/7/606 657/4/604
f 659/4/607 661/5/608 660/5/609
f 659/4/607 662/4/610 661/5/608
f 663/5/611 665/3/612 664/3/115
f 663/5/611 666/5/608 665/3/612
