# Blender 5.2.0 LTS
# www.blender.org
mtllib ARROW_DOWN_text.mtl
o ARROW_DOWN_text
v 0.810215 0.011919 0.305658
v 0.810128 0.011932 0.305728
v 0.809845 0.010082 0.305728
v 0.809931 0.010069 0.305658
v 0.810215 0.011919 0.305658
v 0.810313 0.011904 0.305564
v 0.814710 0.011230 0.301060
v 0.814812 0.011214 0.300969
v 0.814919 0.011197 0.300891
v 0.815032 0.011180 0.300824
v 0.815150 0.011162 0.300768
v 0.815273 0.011143 0.300724
v 0.815402 0.011123 0.300691
v 0.815537 0.011103 0.300671
v 0.815629 0.011089 0.300662
v 0.815724 0.011074 0.300660
v 0.815866 0.011052 0.300667
v 0.816003 0.011031 0.300685
v 0.816135 0.011011 0.300717
v 0.816263 0.010991 0.300761
v 0.816385 0.010973 0.300817
v 0.816503 0.010955 0.300887
v 0.816615 0.010937 0.300968
v 0.816688 0.010926 0.301030
v 0.816758 0.010915 0.301098
v 0.817941 0.010734 0.302295
v 0.818035 0.010720 0.302398
v 0.818116 0.010707 0.302507
v 0.818186 0.010696 0.302621
v 0.818243 0.010688 0.302740
v 0.818289 0.010681 0.302865
v 0.818322 0.010675 0.302996
v 0.818344 0.010672 0.303131
v 0.818352 0.010671 0.303225
v 0.818355 0.010671 0.303322
v 0.818347 0.010672 0.303488
v 0.818327 0.010675 0.303625
v 0.818295 0.010680 0.303757
v 0.818252 0.010686 0.303882
v 0.818196 0.010695 0.304002
v 0.818129 0.010705 0.304118
v 0.818049 0.010717 0.304227
v 0.818005 0.010724 0.304280
v 0.817941 0.010734 0.304348
v 0.810332 0.011901 0.312066
v 0.810230 0.011917 0.312155
v 0.810121 0.011933 0.312234
v 0.810007 0.011951 0.312301
v 0.809887 0.011969 0.312357
v 0.809761 0.011989 0.312401
v 0.809629 0.012009 0.312434
v 0.809468 0.012034 0.312457
v 0.809298 0.012060 0.312465
v 0.809128 0.012086 0.312452
v 0.808989 0.012107 0.312427
v 0.808854 0.012128 0.312390
v 0.808725 0.012147 0.312342
v 0.808602 0.012166 0.312281
v 0.808484 0.012184 0.312207
v 0.808371 0.012202 0.312123
v 0.808246 0.012221 0.312009
v 0.800618 0.013391 0.304291
v 0.800528 0.013405 0.304197
v 0.800450 0.013417 0.304095
v 0.800382 0.013427 0.303988
v 0.800325 0.013436 0.303874
v 0.800279 0.013443 0.303753
v 0.800244 0.013448 0.303625
v 0.800220 0.013452 0.303491
v 0.800210 0.013453 0.303398
v 0.800204 0.013454 0.303302
v 0.800206 0.013454 0.303159
v 0.800221 0.013452 0.303020
v 0.800249 0.013447 0.302886
v 0.800290 0.013441 0.302758
v 0.800344 0.013433 0.302634
v 0.800411 0.013423 0.302515
v 0.800491 0.013410 0.302401
v 0.800551 0.013401 0.302328
v 0.800618 0.013391 0.302257
v 0.801764 0.013215 0.301098
v 0.801862 0.013200 0.301007
v 0.801967 0.013184 0.300927
v 0.802080 0.013167 0.300859
v 0.802199 0.013148 0.300801
v 0.802325 0.013129 0.300755
v 0.802459 0.013109 0.300719
v 0.802623 0.013083 0.300692
v 0.802797 0.013057 0.300679
v 0.802971 0.013030 0.300677
v 0.803113 0.013008 0.300689
v 0.803247 0.012988 0.300714
v 0.803375 0.012968 0.300750
v 0.803476 0.012953 0.300791
v 0.803572 0.012938 0.300840
v 0.803663 0.012924 0.300898
v 0.803749 0.012911 0.300965
v 0.803831 0.012898 0.301041
v 0.808246 0.012221 0.305508
v 0.808353 0.012205 0.305611
v 0.808464 0.012187 0.305700
v 0.808582 0.012169 0.305777
v 0.808704 0.012151 0.305840
v 0.808832 0.012131 0.305891
v 0.808966 0.012111 0.305928
v 0.809105 0.012089 0.305952
v 0.809200 0.012075 0.305961
v 0.809298 0.012060 0.305963
v 0.809468 0.012034 0.305961
v 0.809606 0.012012 0.305944
v 0.809737 0.011992 0.305915
v 0.809842 0.011976 0.305881
v 0.809942 0.011961 0.305838
v 0.810037 0.011946 0.305788
v 0.810128 0.011932 0.305728
v 0.810313 0.011904 0.305564
v 0.810215 0.011919 0.305658
v 0.809931 0.010069 0.305658
v 0.810029 0.010054 0.305564
v 0.809931 0.010069 0.305658
v 0.809845 0.010082 0.305728
v 0.809754 0.010096 0.305788
v 0.809658 0.010111 0.305838
v 0.809558 0.010126 0.305881
v 0.809453 0.010142 0.305915
v 0.809322 0.010162 0.305944
v 0.809184 0.010183 0.305961
v 0.809015 0.010209 0.305963
v 0.808917 0.010224 0.305961
v 0.808821 0.010239 0.305952
v 0.808682 0.010260 0.305928
v 0.808549 0.010281 0.305891
v 0.808421 0.010301 0.305840
v 0.808298 0.010319 0.305777
v 0.808181 0.010337 0.305700
v 0.808069 0.010355 0.305611
v 0.807962 0.010371 0.305508
v 0.803547 0.011048 0.301041
v 0.803465 0.011061 0.300965
v 0.803379 0.011074 0.300898
v 0.803288 0.011088 0.300840
v 0.803192 0.011102 0.300791
v 0.803091 0.011118 0.300750
v 0.802964 0.011137 0.300714
v 0.802829 0.011158 0.300689
v 0.802687 0.011180 0.300677
v 0.802513 0.011207 0.300679
v 0.802339 0.011233 0.300692
v 0.802175 0.011258 0.300719
v 0.802041 0.011279 0.300755
v 0.801915 0.011298 0.300801
v 0.801796 0.011317 0.300859
v 0.801683 0.011334 0.300927
v 0.801578 0.011350 0.301007
v 0.801480 0.011365 0.301098
v 0.800334 0.011541 0.302257
v 0.800268 0.011551 0.302328
v 0.800207 0.011560 0.302401
v 0.800127 0.011573 0.302515
v 0.800060 0.011583 0.302634
v 0.800006 0.011591 0.302758
v 0.799965 0.011597 0.302886
v 0.799937 0.011602 0.303020
v 0.799922 0.011604 0.303159
v 0.799921 0.011604 0.303302
v 0.799926 0.011603 0.303398
v 0.799936 0.011602 0.303491
v 0.799960 0.011598 0.303625
v 0.799996 0.011593 0.303753
v 0.800042 0.011586 0.303874
v 0.800098 0.011577 0.303988
v 0.800166 0.011567 0.304095
v 0.800245 0.011555 0.304197
v 0.800334 0.011541 0.304291
v 0.807962 0.010371 0.312009
v 0.808087 0.010352 0.312123
v 0.808200 0.010334 0.312207
v 0.808318 0.010316 0.312281
v 0.808442 0.010297 0.312342
v 0.808570 0.010278 0.312390
v 0.808705 0.010257 0.312427
v 0.808845 0.010236 0.312452
v 0.809015 0.010209 0.312465
v 0.809184 0.010183 0.312457
v 0.809346 0.010159 0.312434
v 0.809478 0.010138 0.312401
v 0.809604 0.010119 0.312357
v 0.809724 0.010101 0.312301
v 0.809838 0.010083 0.312234
v 0.809946 0.010067 0.312155
v 0.810048 0.010051 0.312066
v 0.817658 0.008884 0.304348
v 0.817721 0.008874 0.304280
v 0.817765 0.008867 0.304227
v 0.817845 0.008855 0.304118
v 0.817912 0.008845 0.304002
v 0.817968 0.008836 0.303882
v 0.818011 0.008830 0.303757
v 0.818043 0.008825 0.303625
v 0.818063 0.008822 0.303488
v 0.818071 0.008820 0.303322
v 0.818068 0.008821 0.303225
v 0.818060 0.008822 0.303131
v 0.818039 0.008825 0.302996
v 0.818005 0.008831 0.302865
v 0.817959 0.008838 0.302740
v 0.817902 0.008846 0.302621
v 0.817832 0.008857 0.302507
v 0.817751 0.008870 0.302398
v 0.817658 0.008884 0.302295
v 0.816474 0.009065 0.301098
v 0.816404 0.009076 0.301030
v 0.816331 0.009087 0.300968
v 0.816219 0.009105 0.300887
v 0.816101 0.009123 0.300817
v 0.815979 0.009141 0.300761
v 0.815852 0.009161 0.300717
v 0.815720 0.009181 0.300685
v 0.815582 0.009202 0.300667
v 0.815441 0.009224 0.300660
v 0.815346 0.009238 0.300662
v 0.815253 0.009253 0.300671
v 0.815119 0.009273 0.300691
v 0.814990 0.009293 0.300724
v 0.814866 0.009312 0.300768
v 0.814748 0.009330 0.300824
v 0.814635 0.009347 0.300891
v 0.814528 0.009364 0.300969
v 0.814426 0.009379 0.301060
v 0.810029 0.010054 0.305564
v 0.810128 0.011932 0.305728
v 0.810037 0.011946 0.305788
v 0.809754 0.010096 0.305788
v 0.809845 0.010082 0.305728
v 0.810037 0.011946 0.305788
v 0.809942 0.011961 0.305838
v 0.809658 0.010111 0.305838
v 0.809754 0.010096 0.305788
v 0.809942 0.011961 0.305838
v 0.809842 0.011976 0.305881
v 0.809558 0.010126 0.305881
v 0.809658 0.010111 0.305838
v 0.809842 0.011976 0.305881
v 0.809737 0.011992 0.305915
v 0.809453 0.010142 0.305915
v 0.809558 0.010126 0.305881
v 0.809737 0.011992 0.305915
v 0.809606 0.012012 0.305944
v 0.809322 0.010162 0.305944
v 0.809453 0.010142 0.305915
v 0.809606 0.012012 0.305944
v 0.809468 0.012034 0.305961
v 0.809184 0.010183 0.305961
v 0.809322 0.010162 0.305944
v 0.809468 0.012034 0.305961
v 0.809298 0.012060 0.305963
v 0.809015 0.010209 0.305963
v 0.809184 0.010183 0.305961
v 0.809298 0.012060 0.305963
v 0.809200 0.012075 0.305961
v 0.808917 0.010224 0.305961
v 0.809015 0.010209 0.305963
v 0.809200 0.012075 0.305961
v 0.809105 0.012089 0.305952
v 0.808821 0.010239 0.305952
v 0.808917 0.010224 0.305961
v 0.809105 0.012089 0.305952
v 0.808966 0.012111 0.305928
v 0.808682 0.010260 0.305928
v 0.808821 0.010239 0.305952
v 0.808966 0.012111 0.305928
v 0.808832 0.012131 0.305891
v 0.808549 0.010281 0.305891
v 0.808682 0.010260 0.305928
v 0.808832 0.012131 0.305891
v 0.808704 0.012151 0.305840
v 0.808421 0.010301 0.305840
v 0.808549 0.010281 0.305891
v 0.808704 0.012151 0.305840
v 0.808582 0.012169 0.305777
v 0.808298 0.010319 0.305777
v 0.808421 0.010301 0.305840
v 0.808582 0.012169 0.305777
v 0.808464 0.012187 0.305700
v 0.808181 0.010337 0.305700
v 0.808298 0.010319 0.305777
v 0.808464 0.012187 0.305700
v 0.808353 0.012205 0.305611
v 0.808069 0.010355 0.305611
v 0.808181 0.010337 0.305700
v 0.808353 0.012205 0.305611
v 0.808246 0.012221 0.305508
v 0.807962 0.010371 0.305508
v 0.808069 0.010355 0.305611
v 0.808246 0.012221 0.305508
v 0.803831 0.012898 0.301041
v 0.803547 0.011048 0.301041
v 0.807962 0.010371 0.305508
v 0.803831 0.012898 0.301041
v 0.803749 0.012911 0.300965
v 0.803465 0.011061 0.300965
v 0.803547 0.011048 0.301041
v 0.803749 0.012911 0.300965
v 0.803663 0.012924 0.300898
v 0.803379 0.011074 0.300898
v 0.803465 0.011061 0.300965
v 0.803663 0.012924 0.300898
v 0.803572 0.012938 0.300840
v 0.803288 0.011088 0.300840
v 0.803379 0.011074 0.300898
v 0.803572 0.012938 0.300840
v 0.803476 0.012953 0.300791
v 0.803192 0.011102 0.300791
v 0.803288 0.011088 0.300840
v 0.803476 0.012953 0.300791
v 0.803375 0.012968 0.300750
v 0.803091 0.011118 0.300750
v 0.803192 0.011102 0.300791
v 0.803375 0.012968 0.300750
v 0.803247 0.012988 0.300714
v 0.802964 0.011137 0.300714
v 0.803091 0.011118 0.300750
v 0.803247 0.012988 0.300714
v 0.803113 0.013008 0.300689
v 0.802829 0.011158 0.300689
v 0.802964 0.011137 0.300714
v 0.803113 0.013008 0.300689
v 0.802971 0.013030 0.300677
v 0.802687 0.011180 0.300677
v 0.802829 0.011158 0.300689
v 0.802971 0.013030 0.300677
v 0.802797 0.013057 0.300679
v 0.802513 0.011207 0.300679
v 0.802687 0.011180 0.300677
v 0.802797 0.013057 0.300679
v 0.802623 0.013083 0.300692
v 0.802339 0.011233 0.300692
v 0.802513 0.011207 0.300679
v 0.802623 0.013083 0.300692
v 0.802459 0.013109 0.300719
v 0.802175 0.011258 0.300719
v 0.802339 0.011233 0.300692
v 0.802459 0.013109 0.300719
v 0.802325 0.013129 0.300755
v 0.802041 0.011279 0.300755
v 0.802175 0.011258 0.300719
v 0.802325 0.013129 0.300755
v 0.802199 0.013148 0.300801
v 0.801915 0.011298 0.300801
v 0.802041 0.011279 0.300755
v 0.802199 0.013148 0.300801
v 0.802080 0.013167 0.300859
v 0.801796 0.011317 0.300859
v 0.801915 0.011298 0.300801
v 0.802080 0.013167 0.300859
v 0.801967 0.013184 0.300927
v 0.801683 0.011334 0.300927
v 0.801796 0.011317 0.300859
v 0.801967 0.013184 0.300927
v 0.801862 0.013200 0.301007
v 0.801578 0.011350 0.301007
v 0.801683 0.011334 0.300927
v 0.801862 0.013200 0.301007
v 0.801764 0.013215 0.301098
v 0.801480 0.011365 0.301098
v 0.801578 0.011350 0.301007
v 0.801764 0.013215 0.301098
v 0.800618 0.013391 0.302257
v 0.800334 0.011541 0.302257
v 0.801480 0.011365 0.301098
v 0.800618 0.013391 0.302257
v 0.800551 0.013401 0.302328
v 0.800268 0.011551 0.302328
v 0.800334 0.011541 0.302257
v 0.800551 0.013401 0.302328
v 0.800491 0.013410 0.302401
v 0.800207 0.011560 0.302401
v 0.800268 0.011551 0.302328
v 0.800491 0.013410 0.302401
v 0.800411 0.013423 0.302515
v 0.800127 0.011573 0.302515
v 0.800207 0.011560 0.302401
v 0.800411 0.013423 0.302515
v 0.800344 0.013433 0.302634
v 0.800060 0.011583 0.302634
v 0.800127 0.011573 0.302515
v 0.800344 0.013433 0.302634
v 0.800290 0.013441 0.302758
v 0.800006 0.011591 0.302758
v 0.800060 0.011583 0.302634
v 0.800290 0.013441 0.302758
v 0.800249 0.013447 0.302886
v 0.799965 0.011597 0.302886
v 0.800006 0.011591 0.302758
v 0.800249 0.013447 0.302886
v 0.800221 0.013452 0.303020
v 0.799937 0.011602 0.303020
v 0.799965 0.011597 0.302886
v 0.800221 0.013452 0.303020
v 0.800206 0.013454 0.303159
v 0.799922 0.011604 0.303159
v 0.799937 0.011602 0.303020
v 0.800206 0.013454 0.303159
v 0.800204 0.013454 0.303302
v 0.799921 0.011604 0.303302
v 0.799922 0.011604 0.303159
v 0.800204 0.013454 0.303302
v 0.800210 0.013453 0.303398
v 0.799926 0.011603 0.303398
v 0.799921 0.011604 0.303302
v 0.800210 0.013453 0.303398
v 0.800220 0.013452 0.303491
v 0.799936 0.011602 0.303491
v 0.799926 0.011603 0.303398
v 0.800220 0.013452 0.303491
v 0.800244 0.013448 0.303625
v 0.799960 0.011598 0.303625
v 0.799936 0.011602 0.303491
v 0.800244 0.013448 0.303625
v 0.800279 0.013443 0.303753
v 0.799996 0.011593 0.303753
v 0.799960 0.011598 0.303625
v 0.800279 0.013443 0.303753
v 0.800325 0.013436 0.303874
v 0.800042 0.011586 0.303874
v 0.799996 0.011593 0.303753
v 0.800325 0.013436 0.303874
v 0.800382 0.013427 0.303988
v 0.800098 0.011577 0.303988
v 0.800042 0.011586 0.303874
v 0.800382 0.013427 0.303988
v 0.800450 0.013417 0.304095
v 0.800166 0.011567 0.304095
v 0.800098 0.011577 0.303988
v 0.800450 0.013417 0.304095
v 0.800528 0.013405 0.304197
v 0.800245 0.011555 0.304197
v 0.800166 0.011567 0.304095
v 0.800528 0.013405 0.304197
v 0.800618 0.013391 0.304291
v 0.800334 0.011541 0.304291
v 0.800245 0.011555 0.304197
v 0.800618 0.013391 0.304291
v 0.808246 0.012221 0.312009
v 0.807962 0.010371 0.312009
v 0.800334 0.011541 0.304291
v 0.808246 0.012221 0.312009
v 0.808371 0.012202 0.312123
v 0.808087 0.010352 0.312123
v 0.807962 0.010371 0.312009
v 0.808371 0.012202 0.312123
v 0.808484 0.012184 0.312207
v 0.808200 0.010334 0.312207
v 0.808087 0.010352 0.312123
v 0.808484 0.012184 0.312207
v 0.808602 0.012166 0.312281
v 0.808318 0.010316 0.312281
v 0.808200 0.010334 0.312207
v 0.808602 0.012166 0.312281
v 0.808725 0.012147 0.312342
v 0.808442 0.010297 0.312342
v 0.808318 0.010316 0.312281
v 0.808725 0.012147 0.312342
v 0.808854 0.012128 0.312390
v 0.808570 0.010278 0.312390
v 0.808442 0.010297 0.312342
v 0.808854 0.012128 0.312390
v 0.808989 0.012107 0.312427
v 0.808705 0.010257 0.312427
v 0.808570 0.010278 0.312390
v 0.808989 0.012107 0.312427
v 0.809128 0.012086 0.312452
v 0.808845 0.010236 0.312452
v 0.808705 0.010257 0.312427
v 0.809128 0.012086 0.312452
v 0.809298 0.012060 0.312465
v 0.809015 0.010209 0.312465
v 0.808845 0.010236 0.312452
v 0.809298 0.012060 0.312465
v 0.809468 0.012034 0.312457
v 0.809184 0.010183 0.312457
v 0.809015 0.010209 0.312465
v 0.809468 0.012034 0.312457
v 0.809629 0.012009 0.312434
v 0.809346 0.010159 0.312434
v 0.809184 0.010183 0.312457
v 0.809629 0.012009 0.312434
v 0.809761 0.011989 0.312401
v 0.809478 0.010138 0.312401
v 0.809346 0.010159 0.312434
v 0.809761 0.011989 0.312401
v 0.809887 0.011969 0.312357
v 0.809604 0.010119 0.312357
v 0.809478 0.010138 0.312401
v 0.809887 0.011969 0.312357
v 0.810007 0.011951 0.312301
v 0.809724 0.010101 0.312301
v 0.809604 0.010119 0.312357
v 0.810007 0.011951 0.312301
v 0.810121 0.011933 0.312234
v 0.809838 0.010083 0.312234
v 0.809724 0.010101 0.312301
v 0.810121 0.011933 0.312234
v 0.810230 0.011917 0.312155
v 0.809946 0.010067 0.312155
v 0.809838 0.010083 0.312234
v 0.810230 0.011917 0.312155
v 0.810332 0.011901 0.312066
v 0.810048 0.010051 0.312066
v 0.809946 0.010067 0.312155
v 0.810332 0.011901 0.312066
v 0.817941 0.010734 0.304348
v 0.817658 0.008884 0.304348
v 0.810048 0.010051 0.312066
v 0.817941 0.010734 0.304348
v 0.818005 0.010724 0.304280
v 0.817721 0.008874 0.304280
v 0.817658 0.008884 0.304348
v 0.818005 0.010724 0.304280
v 0.818049 0.010717 0.304227
v 0.817765 0.008867 0.304227
v 0.817721 0.008874 0.304280
v 0.818049 0.010717 0.304227
v 0.818129 0.010705 0.304118
v 0.817845 0.008855 0.304118
v 0.817765 0.008867 0.304227
v 0.818129 0.010705 0.304118
v 0.818196 0.010695 0.304002
v 0.817912 0.008845 0.304002
v 0.817845 0.008855 0.304118
v 0.818196 0.010695 0.304002
v 0.818252 0.010686 0.303882
v 0.817968 0.008836 0.303882
v 0.817912 0.008845 0.304002
v 0.818252 0.010686 0.303882
v 0.818295 0.010680 0.303757
v 0.818011 0.008830 0.303757
v 0.817968 0.008836 0.303882
v 0.818295 0.010680 0.303757
v 0.818327 0.010675 0.303625
v 0.818043 0.008825 0.303625
v 0.818011 0.008830 0.303757
v 0.818327 0.010675 0.303625
v 0.818347 0.010672 0.303488
v 0.818063 0.008822 0.303488
v 0.818043 0.008825 0.303625
v 0.818347 0.010672 0.303488
v 0.818355 0.010671 0.303322
v 0.818071 0.008820 0.303322
v 0.818063 0.008822 0.303488
v 0.818355 0.010671 0.303322
v 0.818352 0.010671 0.303225
v 0.818068 0.008821 0.303225
v 0.818071 0.008820 0.303322
v 0.818352 0.010671 0.303225
v 0.818344 0.010672 0.303131
v 0.818060 0.008822 0.303131
v 0.818068 0.008821 0.303225
v 0.818344 0.010672 0.303131
v 0.818322 0.010675 0.302996
v 0.818039 0.008825 0.302996
v 0.818060 0.008822 0.303131
v 0.818322 0.010675 0.302996
v 0.818289 0.010681 0.302865
v 0.818005 0.008831 0.302865
v 0.818039 0.008825 0.302996
v 0.818289 0.010681 0.302865
v 0.818243 0.010688 0.302740
v 0.817959 0.008838 0.302740
v 0.818005 0.008831 0.302865
v 0.818243 0.010688 0.302740
v 0.818186 0.010696 0.302621
v 0.817902 0.008846 0.302621
v 0.817959 0.008838 0.302740
v 0.818186 0.010696 0.302621
v 0.818116 0.010707 0.302507
v 0.817832 0.008857 0.302507
v 0.817902 0.008846 0.302621
v 0.818116 0.010707 0.302507
v 0.818035 0.010720 0.302398
v 0.817751 0.008870 0.302398
v 0.817832 0.008857 0.302507
v 0.818035 0.010720 0.302398
v 0.817941 0.010734 0.302295
v 0.817658 0.008884 0.302295
v 0.817751 0.008870 0.302398
v 0.817941 0.010734 0.302295
v 0.816758 0.010915 0.301098
v 0.816474 0.009065 0.301098
v 0.817658 0.008884 0.302295
v 0.816758 0.010915 0.301098
v 0.816688 0.010926 0.301030
v 0.816404 0.009076 0.301030
v 0.816474 0.009065 0.301098
v 0.816688 0.010926 0.301030
v 0.816615 0.010937 0.300968
v 0.816331 0.009087 0.300968
v 0.816404 0.009076 0.301030
v 0.816615 0.010937 0.300968
v 0.816503 0.010955 0.300887
v 0.816219 0.009105 0.300887
v 0.816331 0.009087 0.300968
v 0.816503 0.010955 0.300887
v 0.816385 0.010973 0.300817
v 0.816101 0.009123 0.300817
v 0.816219 0.009105 0.300887
v 0.816385 0.010973 0.300817
v 0.816263 0.010991 0.300761
v 0.815979 0.009141 0.300761
v 0.816101 0.009123 0.300817
v 0.816263 0.010991 0.300761
v 0.816135 0.011011 0.300717
v 0.815852 0.009161 0.300717
v 0.815979 0.009141 0.300761
v 0.816135 0.011011 0.300717
v 0.816003 0.011031 0.300685
v 0.815720 0.009181 0.300685
v 0.815852 0.009161 0.300717
v 0.816003 0.011031 0.300685
v 0.815866 0.011052 0.300667
v 0.815582 0.009202 0.300667
v 0.815720 0.009181 0.300685
v 0.815866 0.011052 0.300667
v 0.815724 0.011074 0.300660
v 0.815441 0.009224 0.300660
v 0.815582 0.009202 0.300667
v 0.815724 0.011074 0.300660
v 0.815629 0.011089 0.300662
v 0.815346 0.009238 0.300662
v 0.815441 0.009224 0.300660
v 0.815629 0.011089 0.300662
v 0.815537 0.011103 0.300671
v 0.815253 0.009253 0.300671
v 0.815346 0.009238 0.300662
v 0.815537 0.011103 0.300671
v 0.815402 0.011123 0.300691
v 0.815119 0.009273 0.300691
v 0.815253 0.009253 0.300671
v 0.815402 0.011123 0.300691
v 0.815273 0.011143 0.300724
v 0.814990 0.009293 0.300724
v 0.815119 0.009273 0.300691
v 0.815273 0.011143 0.300724
v 0.815150 0.011162 0.300768
v 0.814866 0.009312 0.300768
v 0.814990 0.009293 0.300724
v 0.815150 0.011162 0.300768
v 0.815032 0.011180 0.300824
v 0.814748 0.009330 0.300824
v 0.814866 0.009312 0.300768
v 0.815032 0.011180 0.300824
v 0.814919 0.011197 0.300891
v 0.814635 0.009347 0.300891
v 0.814748 0.009330 0.300824
v 0.814919 0.011197 0.300891
v 0.814812 0.011214 0.300969
v 0.814528 0.009364 0.300969
v 0.814635 0.009347 0.300891
v 0.814812 0.011214 0.300969
v 0.814710 0.011230 0.301060
v 0.814426 0.009379 0.301060
v 0.814528 0.009364 0.300969
v 0.814710 0.011230 0.301060
v 0.810313 0.011904 0.305564
v 0.810029 0.010054 0.305564
v 0.814426 0.009379 0.301060
vn -0.3579 0.7598 -0.5428
vn -0.5183 -0.6260 -0.5826
vn -0.3070 0.7525 -0.5826
vn -0.5691 -0.6178 -0.5427
vn -0.3832 0.7727 -0.5061
vn -0.3361 0.7564 -0.5612
vn -0.3785 0.7651 -0.5209
vn -0.2241 0.7388 -0.6355
vn -0.2824 0.7480 -0.6007
vn -0.0983 0.7200 -0.6870
vn -0.1618 0.7294 -0.6647
vn 0.0230 0.7036 -0.7103
vn -0.0346 0.7103 -0.7030
vn 0.1122 0.6901 -0.7150
vn 0.0682 0.6987 -0.7122
vn 0.2351 0.6685 -0.7055
vn 0.1690 0.6794 -0.7141
vn 0.3682 0.6475 -0.6673
vn 0.3023 0.6581 -0.6896
vn 0.4915 0.6293 -0.6020
vn 0.4322 0.6378 -0.6375
vn 0.5755 0.6205 -0.5327
vn 0.5401 0.6238 -0.5649
vn 0.6149 0.6160 -0.4924
vn 0.5961 0.6207 -0.5093
vn 0.6907 0.5988 -0.4054
vn 0.6501 0.6053 -0.4593
vn 0.7580 0.5882 -0.2818
vn 0.7274 0.5926 -0.3459
vn 0.7995 0.5821 -0.1482
vn 0.7822 0.5846 -0.2153
vn 0.8105 0.5843 -0.0407
vn 0.8077 0.5831 -0.0877
vn 0.8118 0.5797 0.0701
vn 0.8131 0.5821 0.0078
vn 0.7857 0.5839 0.2042
vn 0.8016 0.5819 0.1371
vn 0.7331 0.5916 0.3355
vn 0.7630 0.5870 0.2707
vn 0.6603 0.6065 0.4429
vn 0.6973 0.5975 0.3960
vn 0.6104 0.6185 0.4948
vn 0.6318 0.6125 0.4751
vn 0.5460 0.6212 0.5622
vn 0.5881 0.6175 0.5224
vn 0.4316 0.6382 0.6375
vn 0.4910 0.6293 0.6024
vn 0.3056 0.6580 0.6882
vn 0.3691 0.6478 0.6665
vn 0.1724 0.6780 0.7146
vn 0.2402 0.6675 0.7048
vn 0.0169 0.7017 0.7122
vn 0.0935 0.6872 0.7205
vn -0.1108 0.7218 0.6832
vn -0.0476 0.7125 0.7000
vn -0.2343 0.7406 0.6298
vn -0.1739 0.7313 0.6596
vn -0.3446 0.7574 0.5547
vn -0.2908 0.7497 0.5944
vn -0.3948 0.7732 0.4963
vn -0.3791 0.7677 0.5166
vn -0.4739 0.7768 0.4148
vn -0.4304 0.7705 0.4701
vn -0.5434 0.7875 0.2906
vn -0.5118 0.7826 0.3544
vn -0.5852 0.7947 0.1614
vn -0.5677 0.7917 0.2258
vn -0.5958 0.8010 0.0591
vn -0.5933 0.7982 0.1042
vn -0.6025 0.7969 -0.0440
vn -0.6004 0.7996 0.0153
vn -0.5809 0.7928 -0.1847
vn -0.5944 0.7961 -0.1135
vn -0.5288 0.7849 -0.3229
vn -0.5583 0.7894 -0.2553
vn -0.4546 0.7760 -0.4372
vn -0.4935 0.7795 -0.3857
vn -0.3972 0.7728 -0.4950
vn -0.4213 0.7733 -0.4738
vn -0.3456 0.7575 -0.5539
vn -0.3797 0.7682 -0.5155
vn -0.2304 0.7397 -0.6322
vn -0.2901 0.7489 -0.5959
vn -0.1056 0.7216 -0.6842
vn -0.1685 0.7305 -0.6618
vn 0.0222 0.7016 -0.7123
vn -0.0430 0.7115 -0.7013
vn 0.1307 0.6847 -0.7170
vn 0.0763 0.6972 -0.7128
vn 0.2663 0.6631 -0.6996
vn 0.1978 0.6743 -0.7114
vn 0.3969 0.6443 -0.6538
vn 0.3346 0.6530 -0.6795
vn 0.5103 0.6267 -0.5889
vn 0.4550 0.6350 -0.6243
vn 0.5930 0.6193 -0.5145
vn 0.5608 0.6194 -0.5494
vn 0.5974 0.6208 -0.5076
vn -0.3580 0.7597 -0.5429
vn -0.3071 0.7524 -0.5827
vn -0.2542 0.7442 -0.6177
vn 0.5714 0.6174 -0.5406
vn -0.1979 0.7355 -0.6479
vn 0.5192 0.6246 -0.5834
vn -0.1394 0.7267 -0.6726
vn 0.4602 0.6334 -0.6221
vn 0.3964 0.6432 -0.6552
vn -0.0781 0.7168 -0.6929
vn 0.3287 0.6533 -0.6820
vn -0.0117 0.7061 -0.7080
vn 0.2599 0.6646 -0.7006
vn 0.0574 0.6954 -0.7163
vn 0.1975 0.6759 -0.7100
vn 0.1102 0.6930 -0.7125
vn 0.1482 0.6858 -0.7126
vn -0.3849 0.7708 -0.5076
vn -0.5984 -0.6198 -0.5077
vn 0.3816 -0.7735 -0.5061
vn 0.3496 -0.7591 -0.5491
vn 0.3801 -0.7686 -0.5146
vn 0.2437 -0.7423 -0.6241
vn 0.2990 -0.7508 -0.5890
vn 0.1233 -0.7231 -0.6796
vn 0.1857 -0.7336 -0.6537
vn -0.0137 -0.7027 -0.7114
vn 0.0554 -0.7122 -0.6998
vn -0.1359 -0.6875 -0.7134
vn -0.0800 -0.6925 -0.7170
vn -0.2542 -0.6658 -0.7015
vn -0.1897 -0.6760 -0.7120
vn -0.3796 -0.6464 -0.6618
vn -0.3172 -0.6562 -0.6847
vn -0.5014 -0.6272 -0.5961
vn -0.4418 -0.6363 -0.6324
vn -0.5922 -0.6192 -0.5156
vn -0.5568 -0.6190 -0.5539
vn -0.6338 -0.6113 -0.4738
vn -0.6104 -0.6182 -0.4951
vn -0.7040 -0.5962 -0.3858
vn -0.6662 -0.6043 -0.4370
vn -0.7694 -0.5855 -0.2554
vn -0.7399 -0.5902 -0.3228
vn -0.8063 -0.5804 -0.1137
vn -0.7914 -0.5827 -0.1849
vn -0.8123 -0.5830 0.0152
vn -0.8136 -0.5798 -0.0439
vn -0.8050 -0.5840 0.1043
vn -0.8089 -0.5849 0.0595
vn -0.7787 -0.5854 0.2256
vn -0.7964 -0.5830 0.1609
vn -0.7228 -0.5931 0.3547
vn -0.7544 -0.5885 0.2906
vn -0.6418 -0.6057 0.4703
vn -0.6845 -0.5995 0.4147
vn -0.5921 -0.6190 0.5161
vn -0.6081 -0.6197 0.4961
vn -0.5021 -0.6279 0.5947
vn -0.5557 -0.6193 0.5547
vn -0.3843 -0.6460 0.6595
vn -0.4456 -0.6363 0.6297
vn -0.2590 -0.6655 0.7000
vn -0.3220 -0.6552 0.6834
vn -0.1167 -0.6836 0.7204
vn -0.1945 -0.6747 0.7120
vn 0.0290 -0.7090 0.7047
vn -0.0386 -0.6989 0.7142
vn 0.1585 -0.7286 0.6664
vn 0.0943 -0.7194 0.6881
vn 0.2799 -0.7474 0.6025
vn 0.2207 -0.7382 0.6374
vn 0.3764 -0.7651 0.5225
vn 0.3347 -0.7561 0.5624
vn 0.4192 -0.7735 0.4753
vn 0.3970 -0.7730 0.4947
vn 0.4863 -0.7788 0.3962
vn 0.4488 -0.7762 0.4428
vn 0.5516 -0.7888 0.2711
vn 0.5220 -0.7842 0.3354
vn 0.5907 -0.7952 0.1372
vn 0.5746 -0.7926 0.2041
vn 0.6017 -0.7987 0.0076
vn 0.6004 -0.7967 0.0697
vn 0.5958 -0.7983 -0.0881
vn 0.5979 -0.8006 -0.0406
vn 0.5712 -0.7921 -0.2153
vn 0.5884 -0.7949 -0.1483
vn 0.5160 -0.7835 -0.3463
vn 0.5471 -0.7881 -0.2819
vn 0.4391 -0.7722 -0.4594
vn 0.4796 -0.7781 -0.4055
vn 0.3825 -0.7709 -0.5093
vn 0.4021 -0.7720 -0.4923
vn 0.3283 -0.7571 -0.5649
vn 0.3634 -0.7645 -0.5324
vn 0.2210 -0.7381 -0.6374
vn 0.2799 -0.7476 -0.6023
vn 0.0910 -0.7184 -0.6896
vn 0.1571 -0.7285 -0.6668
vn -0.0424 -0.6985 -0.7143
vn 0.0241 -0.7078 -0.7060
vn -0.1446 -0.6869 -0.7122
vn -0.0997 -0.6920 -0.7150
vn -0.2458 -0.6674 -0.7029
vn -0.1891 -0.6784 -0.7100
vn -0.3734 -0.6473 -0.6645
vn -0.3096 -0.6571 -0.6873
vn -0.4934 -0.6293 -0.6005
vn -0.4354 -0.6377 -0.6354
vn -0.5904 -0.6165 -0.5208
vn -0.5471 -0.6210 -0.5612
vn 0.3601 -0.7602 -0.5407
vn 0.3079 -0.7518 -0.5831
vn 0.2490 -0.7420 -0.6225
vn -0.5691 -0.6176 -0.5429
vn 0.1853 -0.7324 -0.6552
vn -0.5183 -0.6259 -0.5827
vn 0.1181 -0.7218 -0.6819
vn -0.4654 -0.6338 -0.6178
vn -0.4092 -0.6426 -0.6478
vn 0.0486 -0.7118 -0.7007
vn -0.3509 -0.6516 -0.6725
vn -0.0138 -0.7041 -0.7099
vn -0.2898 -0.6603 -0.6928
vn -0.0641 -0.6987 -0.7126
vn -0.2229 -0.6703 -0.7079
vn -0.1024 -0.6942 -0.7124
vn -0.1532 -0.6806 -0.7165
vn -0.3069 0.7525 -0.5827
vn -0.4654 -0.6338 -0.6177
vn -0.2540 0.7444 -0.6176
vn -0.5182 -0.6261 -0.5826
vn -0.2540 0.7444 -0.6175
vn -0.4092 -0.6427 -0.6477
vn -0.1979 0.7356 -0.6478
vn -0.1978 0.7357 -0.6478
vn -0.3509 -0.6517 -0.6724
vn -0.1394 0.7268 -0.6726
vn -0.1393 0.7267 -0.6726
vn -0.2898 -0.6604 -0.6927
vn -0.0780 0.7169 -0.6927
vn -0.0781 0.7167 -0.6930
vn -0.2229 -0.6702 -0.7079
vn -0.0117 0.7064 -0.7077
vn -0.2898 -0.6606 -0.6925
vn -0.1533 -0.6807 -0.7164
vn 0.0575 0.6957 -0.7160
vn -0.2228 -0.6705 -0.7077
vn 0.0575 0.6956 -0.7161
vn -0.1024 -0.6943 -0.7123
vn 0.1102 0.6931 -0.7124
vn -0.1533 -0.6808 -0.7163
vn 0.1103 0.6932 -0.7123
vn -0.0642 -0.6989 -0.7123
vn 0.1484 0.6858 -0.7125
vn -0.1024 -0.6942 -0.7125
vn 0.1483 0.6859 -0.7125
vn -0.0139 -0.7042 -0.7099
vn 0.1974 0.6761 -0.7099
vn -0.0641 -0.6988 -0.7124
vn 0.1975 0.6761 -0.7098
vn 0.0486 -0.7120 -0.7005
vn 0.2599 0.6647 -0.7005
vn -0.0138 -0.7042 -0.7098
vn 0.2598 0.6649 -0.7003
vn 0.1181 -0.7220 -0.6818
vn 0.0486 -0.7119 -0.7006
vn 0.3288 0.6535 -0.6818
vn 0.1852 -0.7325 -0.6551
vn 0.3963 0.6433 -0.6551
vn 0.1181 -0.7219 -0.6818
vn 0.3963 0.6432 -0.6551
vn 0.2489 -0.7422 -0.6222
vn 0.4601 0.6336 -0.6220
vn 0.1853 -0.7325 -0.6551
vn 0.3078 -0.7519 -0.5830
vn 0.5191 0.6248 -0.5833
vn 0.2488 -0.7423 -0.6222
vn 0.5191 0.6248 -0.5832
vn 0.3600 -0.7603 -0.5407
vn 0.5713 0.6176 -0.5405
vn 0.3833 -0.7717 -0.5076
vn 0.5909 0.6220 -0.5138
vn 0.3602 -0.7603 -0.5406
vn 0.5974 0.6210 -0.5075
vn 0.3800 -0.7687 -0.5144
vn 0.5930 0.6194 -0.5144
vn 0.3891 -0.7726 -0.5018
vn 0.3495 -0.7593 -0.5490
vn 0.5608 0.6195 -0.5493
vn 0.3801 -0.7687 -0.5144
vn 0.2988 -0.7510 -0.5888
vn 0.5102 0.6269 -0.5888
vn 0.3494 -0.7592 -0.5491
vn 0.5102 0.6268 -0.5889
vn 0.2436 -0.7425 -0.6240
vn 0.4550 0.6353 -0.6240
vn 0.2989 -0.7509 -0.5889
vn 0.4549 0.6352 -0.6242
vn 0.1858 -0.7335 -0.6538
vn 0.3969 0.6444 -0.6536
vn 0.2436 -0.7426 -0.6239
vn 0.3968 0.6444 -0.6536
vn 0.1232 -0.7233 -0.6794
vn 0.3346 0.6530 -0.6794
vn 0.1857 -0.7335 -0.6538
vn 0.0554 -0.7123 -0.6997
vn 0.2663 0.6633 -0.6993
vn 0.1232 -0.7232 -0.6795
vn 0.2662 0.6633 -0.6994
vn -0.0136 -0.7027 -0.7113
vn 0.1978 0.6744 -0.7113
vn 0.0553 -0.7124 -0.6996
vn 0.1977 0.6745 -0.7113
vn -0.0799 -0.6927 -0.7168
vn 0.1308 0.6848 -0.7169
vn -0.0137 -0.7027 -0.7113
vn 0.1306 0.6848 -0.7169
vn -0.1359 -0.6875 -0.7133
vn 0.0764 0.6974 -0.7126
vn -0.0800 -0.6927 -0.7168
vn 0.0763 0.6974 -0.7126
vn -0.1897 -0.6762 -0.7119
vn 0.0223 0.7016 -0.7122
vn 0.0222 0.7017 -0.7121
vn -0.2541 -0.6660 -0.7013
vn -0.0429 0.7116 -0.7013
vn -0.1898 -0.6761 -0.7119
vn -0.0430 0.7117 -0.7012
vn -0.3171 -0.6563 -0.6846
vn -0.1055 0.7218 -0.6840
vn -0.2543 -0.6660 -0.7013
vn -0.1056 0.7218 -0.6840
vn -0.3795 -0.6467 -0.6617
vn -0.1684 0.7306 -0.6617
vn -0.3172 -0.6563 -0.6846
vn -0.1684 0.7307 -0.6615
vn -0.4417 -0.6365 -0.6323
vn -0.2304 0.7398 -0.6321
vn -0.3796 -0.6465 -0.6618
vn -0.2304 0.7399 -0.6321
vn -0.5012 -0.6273 -0.5960
vn -0.2900 0.7490 -0.5957
vn -0.4418 -0.6364 -0.6323
vn -0.2901 0.7490 -0.5957
vn -0.5567 -0.6191 -0.5538
vn -0.3455 0.7576 -0.5538
vn -0.5013 -0.6273 -0.5959
vn -0.3456 0.7576 -0.5538
vn -0.5922 -0.6193 -0.5155
vn -0.3795 0.7683 -0.5155
vn -0.5568 -0.6192 -0.5537
vn -0.3796 0.7683 -0.5155
vn -0.6103 -0.6184 -0.4951
vn -0.3971 0.7730 -0.4948
vn -0.3972 0.7729 -0.4949
vn -0.6337 -0.6115 -0.4737
vn -0.4211 0.7735 -0.4736
vn -0.6104 -0.6183 -0.4951
vn -0.4212 0.7735 -0.4736
vn -0.6661 -0.6044 -0.4370
vn -0.4544 0.7761 -0.4372
vn -0.4545 0.7761 -0.4371
vn -0.7039 -0.5963 -0.3859
vn -0.4933 0.7797 -0.3856
vn -0.6660 -0.6045 -0.4370
vn -0.4933 0.7798 -0.3855
vn -0.7397 -0.5905 -0.3227
vn -0.5287 0.7850 -0.3229
vn -0.7040 -0.5963 -0.3857
vn -0.5287 0.7850 -0.3228
vn -0.7693 -0.5857 -0.2553
vn -0.5581 0.7895 -0.2553
vn -0.7398 -0.5904 -0.3228
vn -0.5582 0.7894 -0.2553
vn -0.7913 -0.5828 -0.1850
vn -0.5807 0.7929 -0.1847
vn -0.7693 -0.5857 -0.2552
vn -0.5807 0.7929 -0.1846
vn -0.8062 -0.5806 -0.1138
vn -0.5942 0.7963 -0.1134
vn -0.7912 -0.5829 -0.1849
vn -0.5942 0.7963 -0.1133
vn -0.8135 -0.5800 -0.0439
vn -0.6023 0.7970 -0.0441
vn -0.8062 -0.5805 -0.1137
vn -0.6023 0.7970 -0.0440
vn -0.8122 -0.5832 0.0152
vn -0.6003 0.7996 0.0153
vn -0.8134 -0.5800 -0.0439
vn -0.6003 0.7996 0.0154
vn -0.8089 -0.5850 0.0595
vn -0.5957 0.8011 0.0591
vn -0.8122 -0.5831 0.0152
vn -0.5956 0.8011 0.0591
vn -0.8049 -0.5842 0.1043
vn -0.5931 0.7984 0.1042
vn -0.5931 0.7983 0.1042
vn -0.7963 -0.5831 0.1608
vn -0.5851 0.7947 0.1614
vn -0.7786 -0.5856 0.2256
vn -0.5675 0.7918 0.2258
vn -0.7963 -0.5831 0.1609
vn -0.7544 -0.5886 0.2906
vn -0.5433 0.7876 0.2906
vn -0.5433 0.7877 0.2906
vn -0.7227 -0.5933 0.3545
vn -0.5116 0.7827 0.3544
vn -0.7543 -0.5887 0.2906
vn -0.5117 0.7827 0.3544
vn -0.6844 -0.5997 0.4146
vn -0.4738 0.7769 0.4146
vn -0.7227 -0.5933 0.3546
vn -0.4737 0.7769 0.4147
vn -0.6418 -0.6059 0.4701
vn -0.4303 0.7707 0.4700
vn -0.6081 -0.6199 0.4960
vn -0.3969 0.7737 0.4938
vn -0.6418 -0.6059 0.4702
vn -0.3946 0.7734 0.4962
vn -0.5920 -0.6191 0.5160
vn -0.3789 0.7678 0.5166
vn -0.6027 -0.6207 0.5015
vn -0.5557 -0.6195 0.5545
vn -0.3445 0.7575 0.5545
vn -0.3446 0.7574 0.5546
vn -0.5021 -0.6280 0.5945
vn -0.2907 0.7500 0.5942
vn -0.5556 -0.6196 0.5545
vn -0.2907 0.7499 0.5943
vn -0.4456 -0.6365 0.6296
vn -0.2342 0.7407 0.6297
vn -0.3843 -0.6462 0.6594
vn -0.1738 0.7314 0.6594
vn -0.4456 -0.6364 0.6297
vn -0.1738 0.7313 0.6595
vn -0.3220 -0.6552 0.6833
vn -0.1107 0.7220 0.6829
vn -0.3842 -0.6463 0.6593
vn -0.1107 0.7219 0.6831
vn -0.2590 -0.6657 0.6998
vn -0.0475 0.7127 0.6999
vn -0.3220 -0.6553 0.6833
vn -0.1946 -0.6749 0.7118
vn 0.0169 0.7018 0.7121
vn -0.2590 -0.6657 0.6999
vn 0.0170 0.7018 0.7122
vn -0.1167 -0.6837 0.7203
vn 0.0935 0.6875 0.7202
vn -0.1945 -0.6749 0.7118
vn 0.0935 0.6872 0.7204
vn 0.1724 0.6782 0.7144
vn -0.1167 -0.6839 0.7202
vn 0.0290 -0.7090 0.7046
vn 0.2401 0.6676 0.7047
vn -0.0386 -0.6991 0.7140
vn 0.2403 0.6677 0.7046
vn 0.0942 -0.7195 0.6880
vn 0.3056 0.6581 0.6882
vn 0.0290 -0.7091 0.7045
vn 0.3056 0.6581 0.6881
vn 0.1583 -0.7287 0.6663
vn 0.3689 0.6481 0.6662
vn 0.3690 0.6480 0.6663
vn 0.2206 -0.7383 0.6373
vn 0.4316 0.6382 0.6376
vn 0.1584 -0.7287 0.6663
vn 0.4317 0.6383 0.6374
vn 0.2798 -0.7476 0.6024
vn 0.4909 0.6295 0.6023
vn 0.2207 -0.7383 0.6374
vn 0.4910 0.6294 0.6023
vn 0.3346 -0.7561 0.5624
vn 0.5459 0.6214 0.5620
vn 0.2798 -0.7476 0.6023
vn 0.5460 0.6213 0.5620
vn 0.3762 -0.7652 0.5224
vn 0.3346 -0.7562 0.5624
vn 0.5881 0.6175 0.5223
vn 0.3969 -0.7731 0.4947
vn 0.6035 0.6198 0.5016
vn 0.3762 -0.7652 0.5225
vn 0.6104 0.6186 0.4947
vn 0.4191 -0.7736 0.4752
vn 0.6316 0.6129 0.4749
vn 0.3969 -0.7733 0.4945
vn 0.6317 0.6127 0.4750
vn 0.4488 -0.7763 0.4427
vn 0.6601 0.6068 0.4427
vn 0.4191 -0.7737 0.4751
vn 0.6602 0.6067 0.4428
vn 0.4862 -0.7789 0.3962
vn 0.6971 0.5977 0.3959
vn 0.4487 -0.7763 0.4427
vn 0.6973 0.5975 0.3959
vn 0.5218 -0.7844 0.3353
vn 0.7331 0.5917 0.3355
vn 0.7330 0.5917 0.3354
vn 0.5515 -0.7889 0.2711
vn 0.7629 0.5871 0.2706
vn 0.5219 -0.7844 0.3353
vn 0.7630 0.5871 0.2707
vn 0.5744 -0.7927 0.2041
vn 0.7856 0.5840 0.2042
vn 0.5515 -0.7889 0.2710
vn 0.7856 0.5841 0.2042
vn 0.5905 -0.7953 0.1372
vn 0.8015 0.5821 0.1371
vn 0.5745 -0.7927 0.2041
vn 0.8015 0.5821 0.1370
vn 0.6002 -0.7968 0.0697
vn 0.8117 0.5799 0.0701
vn 0.8117 0.5798 0.0700
vn 0.6015 -0.7989 0.0076
vn 0.8130 0.5822 0.0078
vn 0.8130 0.5821 0.0078
vn 0.5978 -0.8006 -0.0406
vn 0.8104 0.5844 -0.0407
vn 0.6015 -0.7988 0.0076
vn 0.8104 0.5845 -0.0408
vn 0.5956 -0.7985 -0.0880
vn 0.5977 -0.8007 -0.0406
vn 0.8076 0.5831 -0.0877
vn 0.5883 -0.7949 -0.1482
vn 0.7994 0.5822 -0.1482
vn 0.5956 -0.7984 -0.0881
vn 0.5712 -0.7921 -0.2152
vn 0.7822 0.5847 -0.2153
vn 0.5883 -0.7949 -0.1483
vn 0.7821 0.5847 -0.2153
vn 0.5470 -0.7883 -0.2818
vn 0.7579 0.5884 -0.2817
vn 0.5711 -0.7921 -0.2153
vn 0.7579 0.5883 -0.2819
vn 0.5159 -0.7836 -0.3463
vn 0.7273 0.5928 -0.3458
vn 0.4795 -0.7783 -0.4054
vn 0.6906 0.5990 -0.4054
vn 0.5159 -0.7835 -0.3463
vn 0.6906 0.5989 -0.4054
vn 0.4389 -0.7723 -0.4592
vn 0.6500 0.6055 -0.4592
vn 0.4795 -0.7782 -0.4055
vn 0.6500 0.6055 -0.4593
vn 0.4020 -0.7721 -0.4923
vn 0.6149 0.6161 -0.4923
vn 0.4389 -0.7723 -0.4593
vn 0.6149 0.6161 -0.4922
vn 0.3825 -0.7710 -0.5092
vn 0.5961 0.6208 -0.5093
vn 0.4020 -0.7721 -0.4922
vn 0.5960 0.6209 -0.5092
vn 0.3632 -0.7646 -0.5323
vn 0.5755 0.6206 -0.5326
vn 0.3790 -0.7704 -0.5126
vn 0.5754 0.6208 -0.5325
vn 0.3283 -0.7572 -0.5647
vn 0.5401 0.6240 -0.5647
vn 0.3633 -0.7646 -0.5324
vn 0.5400 0.6240 -0.5648
vn 0.2799 -0.7477 -0.6021
vn 0.4914 0.6295 -0.6019
vn 0.3282 -0.7572 -0.5647
vn 0.2210 -0.7382 -0.6373
vn 0.4322 0.6381 -0.6372
vn 0.2798 -0.7478 -0.6021
vn 0.4322 0.6380 -0.6373
vn 0.1572 -0.7285 -0.6668
vn 0.3682 0.6476 -0.6672
vn 0.2209 -0.7383 -0.6373
vn 0.3681 0.6475 -0.6672
vn 0.0910 -0.7185 -0.6896
vn 0.3023 0.6583 -0.6894
vn 0.1570 -0.7286 -0.6667
vn 0.3022 0.6583 -0.6894
vn 0.0242 -0.7079 -0.7059
vn 0.2351 0.6686 -0.7055
vn 0.0909 -0.7186 -0.6894
vn 0.2351 0.6687 -0.7054
vn -0.0424 -0.6988 -0.7141
vn 0.1690 0.6795 -0.7140
vn 0.0241 -0.7079 -0.7059
vn 0.1689 0.6794 -0.7141
vn -0.0997 -0.6922 -0.7148
vn 0.1122 0.6904 -0.7147
vn -0.0425 -0.6987 -0.7142
vn 0.1122 0.6902 -0.7149
vn -0.1445 -0.6871 -0.7121
vn 0.0683 0.6988 -0.7120
vn 0.0682 0.6988 -0.7121
vn -0.1891 -0.6783 -0.7100
vn 0.0230 0.7037 -0.7102
vn -0.1446 -0.6872 -0.7119
vn 0.0230 0.7037 -0.7101
vn -0.2458 -0.6676 -0.7028
vn -0.0346 0.7105 -0.7029
vn -0.1891 -0.6784 -0.7099
vn -0.3096 -0.6573 -0.6871
vn -0.0981 0.7201 -0.6869
vn -0.2459 -0.6676 -0.7028
vn -0.0983 0.7201 -0.6869
vn -0.3734 -0.6475 -0.6643
vn -0.1618 0.7295 -0.6645
vn -0.3096 -0.6572 -0.6872
vn -0.4354 -0.6378 -0.6353
vn -0.2241 0.7389 -0.6354
vn -0.4934 -0.6293 -0.6004
vn -0.2822 0.7481 -0.6006
vn -0.4354 -0.6379 -0.6352
vn -0.2823 0.7481 -0.6005
vn -0.5470 -0.6213 -0.5611
vn -0.3360 0.7565 -0.5611
vn -0.4935 -0.6293 -0.6004
vn -0.5904 -0.6166 -0.5208
vn -0.3784 0.7653 -0.5208
vn -0.5471 -0.6212 -0.5610
vn -0.3784 0.7652 -0.5208
vn -0.5984 -0.6199 -0.5076
vn -0.3850 0.7709 -0.5075
vn -0.5904 -0.6167 -0.5207
vt 0.272204 0.448460
vt 0.275949 0.453231
vt 0.267081 0.443064
vt 0.016835 0.195213
vt 0.021739 0.200828
vt 0.008904 0.183089
vt 0.012557 0.189300
vt 0.003478 0.169772
vt 0.005878 0.176580
vt 0.000557 0.155263
vt 0.001704 0.162667
vt 0.000000 0.144928
vt 0.000139 0.150162
vt 0.001371 0.129564
vt 0.000343 0.137111
vt 0.005486 0.115273
vt 0.003086 0.122284
vt 0.012343 0.102055
vt 0.008571 0.108530
vt 0.020152 0.091861
vt 0.016800 0.095849
vt 0.089027 0.022774
vt 0.023810 0.087992
vt 0.100555 0.013154
vt 0.094642 0.017636
vt 0.113275 0.006158
vt 0.106766 0.009328
vt 0.127188 0.001786
vt 0.120083 0.003644
vt 0.139694 0.000146
vt 0.134592 0.000583
vt 0.154000 0.000446
vt 0.144928 0.000000
vt 0.168609 0.003289
vt 0.161453 0.001540
vt 0.182025 0.008754
vt 0.175466 0.005694
vt 0.194248 0.016844
vt 0.188286 0.012471
vt 0.200828 0.022774
vt 0.197118 0.019276
vt 0.626022 0.447659
vt 0.621118 0.442029
vt 0.633953 0.459902
vt 0.630301 0.453617
vt 0.639379 0.473458
vt 0.636979 0.466516
vt 0.642431 0.489623
vt 0.641153 0.480727
vt 0.642121 0.508327
vt 0.642857 0.498965
vt 0.638782 0.523433
vt 0.640779 0.516029
vt 0.632819 0.537346
vt 0.636128 0.530538
vt 0.624233 0.550066
vt 0.628854 0.543855
vt 0.197723 0.977226
vt 0.618012 0.556936
vt 0.187069 0.986468
vt 0.192575 0.982145
vt 0.174985 0.993325
vt 0.181206 0.990195
vt 0.161469 0.997797
vt 0.168406 0.995859
vt 0.149113 0.999702
vt 0.154175 0.999139
vt 0.136076 0.999891
vt 0.143892 1.000000
vt 0.121249 0.997525
vt 0.128528 0.999066
vt 0.107495 0.992298
vt 0.114238 0.995270
vt 0.094814 0.984209
vt 0.101020 0.988611
vt 0.086957 0.977226
vt 0.090826 0.980876
vt 0.018890 0.908667
vt 0.023810 0.914079
vt 0.010841 0.896682
vt 0.014567 0.902869
vt 0.005176 0.883147
vt 0.007710 0.890108
vt 0.001731 0.866734
vt 0.003238 0.875798
vt 0.000922 0.847551
vt 0.001035 0.857143
vt 0.002900 0.832337
vt 0.001568 0.839750
vt 0.007122 0.819752
vt 0.004917 0.825311
vt 0.012961 0.809441
vt 0.009803 0.814462
vt 0.020704 0.800207
vt 0.016594 0.804689
vt 0.263975 0.556936
vt 0.279218 0.458249
vt 0.269580 0.551072
vt 0.282011 0.463516
vt 0.274470 0.544911
vt 0.284328 0.469032
vt 0.278643 0.538451
vt 0.282102 0.531694
vt 0.286169 0.474796
vt 0.284845 0.524638
vt 0.287749 0.482041
vt 0.286872 0.517284
vt 0.288643 0.489643
vt 0.288184 0.509631
vt 0.288820 0.498965
vt 0.288661 0.504364
s 1
f 1/1/1 3/2/2 2/2/3
f 1/1/1 4/1/4 3/2/2
f 6/3/5 8/4/6 7/5/7
f 8/4/6 10/6/8 9/7/9
f 10/6/8 12/8/10 11/9/11
f 12/8/10 14/10/12 13/11/13
f 14/10/12 16/12/14 15/13/15
f 16/12/14 18/14/16 17/15/17
f 18/14/16 20/16/18 19/17/19
f 20/16/18 22/18/20 21/19/21
f 22/18/20 24/20/22 23/21/23
f 24/20/22 26/22/24 25/23/25
f 26/22/24 28/24/26 27/25/27
f 28/24/26 30/26/28 29/27/29
f 30/26/28 32/28/30 31/29/31
f 32/28/30 34/30/32 33/31/33
f 34/30/32 36/32/34 35/33/35
f 36/32/34 38/34/36 37/35/37
f 38/34/36 40/36/38 39/37/39
f 40/36/38 42/38/40 41/39/41
f 42/38/40 44/40/42 43/41/43
f 44/40/42 46/42/44 45/43/45
f 46/42/44 48/44/46 47/45/47
f 48/44/46 50/46/48 49/47/49
f 50/46/48 52/48/50 51/49/51
f 52/48/50 54/50/52 53/51/53
f 54/50/52 56/52/54 55/53/55
f 56/52/54 58/54/56 57/55/57
f 58/54/56 60/56/58 59/57/59
f 60/56/58 62/58/60 61/59/61
f 62/58/60 64/60/62 63/61/63
f 64/60/62 66/62/64 65/63/65
f 66/62/64 68/64/66 67/65/67
f 68/64/66 70/66/68 69/67/69
f 70/66/68 72/68/70 71/69/71
f 72/68/70 74/70/72 73/71/73
f 74/70/72 76/72/74 75/73/75
f 76/72/74 78/74/76 77/75/77
f 78/74/76 80/76/78 79/77/79
f 80/76/78 82/78/80 81/79/81
f 82/78/80 84/80/82 83/81/83
f 84/80/82 86/82/84 85/83/85
f 86/82/84 88/84/86 87/85/87
f 88/84/86 90/86/88 89/87/89
f 90/86/88 92/88/90 91/89/91
f 92/88/90 94/90/92 93/91/93
f 94/90/92 96/92/94 95/93/95
f 96/92/94 98/94/96 97/95/97
f 6/3/5 10/6/8 8/4/6
f 10/6/8 14/10/12 12/8/10
f 14/10/12 18/14/16 16/12/14
f 18/14/16 22/18/20 20/16/18
f 22/18/20 26/22/24 24/20/22
f 26/22/24 30/26/28 28/24/26
f 30/26/28 34/30/32 32/28/30
f 34/30/32 38/34/36 36/32/34
f 38/34/36 42/38/40 40/36/38
f 42/38/40 46/42/44 44/40/42
f 46/42/44 50/46/48 48/44/46
f 50/46/48 54/50/52 52/48/50
f 54/50/52 58/54/56 56/52/54
f 58/54/56 62/58/60 60/56/58
f 62/58/60 66/62/64 64/60/62
f 66/62/64 70/66/68 68/64/66
f 70/66/68 74/70/72 72/68/70
f 74/70/72 78/74/76 76/72/74
f 78/74/76 82/78/80 80/76/78
f 82/78/80 86/82/84 84/80/82
f 86/82/84 90/86/88 88/84/86
f 90/86/88 94/90/92 92/88/90
f 94/90/92 98/94/96 96/92/94
f 6/3/5 14/10/12 10/6/8
f 14/10/12 22/18/20 18/14/16
f 22/18/20 30/26/28 26/22/24
f 30/26/28 38/34/36 34/30/32
f 38/34/36 46/42/44 42/38/40
f 46/42/44 54/50/52 50/46/48
f 54/50/52 62/58/60 58/54/56
f 62/58/60 70/66/68 66/62/64
f 70/66/68 78/74/76 74/70/72
f 78/74/76 86/82/84 82/78/80
f 86/82/84 94/90/92 90/86/88
f 94/90/92 99/96/98 98/94/96
f 5/1/99 14/10/12 6/3/5
f 14/10/12 30/26/28 22/18/20
f 30/26/28 46/42/44 38/34/36
f 46/42/44 62/58/60 54/50/52
f 62/58/60 78/74/76 70/66/68
f 78/74/76 94/90/92 86/82/84
f 5/1/99 30/26/28 14/10/12
f 46/42/44 78/74/76 62/58/60
f 78/74/76 99/96/98 94/90/92
f 115/2/100 30/26/28 5/1/99
f 46/42/44 99/96/98 78/74/76
f 114/97/101 30/26/28 115/2/100
f 46/42/44 100/98/102 99/96/98
f 113/99/103 30/26/28 114/97/101
f 46/42/44 101/100/104 100/98/102
f 112/101/105 30/26/28 113/99/103
f 46/42/44 102/102/106 101/100/104
f 112/101/105 46/42/44 30/26/28
f 46/42/44 103/103/107 102/102/106
f 111/104/108 46/42/44 112/101/105
f 46/42/44 104/105/109 103/103/107
f 110/106/110 46/42/44 111/104/108
f 46/42/44 105/107/111 104/105/109
f 109/108/112 46/42/44 110/106/110
f 46/42/44 106/109/113 105/107/111
f 108/110/114 46/42/44 109/108/112
f 46/42/44 107/111/115 106/109/113
f 107/111/115 46/42/44 108/110/114
f 116/3/116 118/1/4 117/1/1
f 116/3/116 119/3/117 118/1/4
f 137/96/118 139/95/119 138/94/120
f 139/95/119 141/93/121 140/92/122
f 141/93/121 143/91/123 142/90/124
f 143/91/123 145/89/125 144/88/126
f 145/89/125 147/87/127 146/86/128
f 147/87/127 149/85/129 148/84/130
f 149/85/129 151/83/131 150/82/132
f 151/83/131 153/81/133 152/80/134
f 153/81/133 155/79/135 154/78/136
f 155/79/135 157/77/137 156/76/138
f 157/77/137 159/75/139 158/74/140
f 159/75/139 161/73/141 160/72/142
f 161/73/141 163/71/143 162/70/144
f 163/71/143 165/69/145 164/68/146
f 165/69/145 167/67/147 166/66/148
f 167/67/147 169/65/149 168/64/150
f 169/65/149 171/63/151 170/62/152
f 171/63/151 173/61/153 172/60/154
f 173/61/153 175/59/155 174/58/156
f 175/59/155 177/57/157 176/56/158
f 177/57/157 179/55/159 178/54/160
f 179/55/159 181/53/161 180/52/162
f 181/53/161 183/51/163 182/50/164
f 183/51/163 185/49/165 184/48/166
f 185/49/165 187/47/167 186/46/168
f 187/47/167 189/45/169 188/44/170
f 189/45/169 191/43/171 190/42/172
f 191/43/171 193/41/173 192/40/174
f 193/41/173 195/39/175 194/38/176
f 195/39/175 197/37/177 196/36/178
f 197/37/177 199/35/179 198/34/180
f 199/35/179 201/33/181 200/32/182
f 201/33/181 203/31/183 202/30/184
f 203/31/183 205/29/185 204/28/186
f 205/29/185 207/27/187 206/26/188
f 207/27/187 209/25/189 208/24/190
f 209/25/189 211/23/191 210/22/192
f 211/23/191 213/21/193 212/20/194
f 213/21/193 215/19/195 214/18/196
f 215/19/195 217/17/197 216/16/198
f 217/17/197 219/15/199 218/14/200
f 219/15/199 221/13/201 220/12/202
f 221/13/201 223/11/203 222/10/204
f 223/11/203 225/9/205 224/8/206
f 225/9/205 227/7/207 226/6/208
f 227/7/207 229/5/209 228/4/210
f 137/96/118 141/93/121 139/95/119
f 141/93/121 145/89/125 143/91/123
f 145/89/125 149/85/129 147/87/127
f 149/85/129 153/81/133 151/83/131
f 153/81/133 157/77/137 155/79/135
f 157/77/137 161/73/141 159/75/139
f 161/73/141 165/69/145 163/71/143
f 165/69/145 169/65/149 167/67/147
f 169/65/149 173/61/153 171/63/151
f 173/61/153 177/57/157 175/59/155
f 177/57/157 181/53/161 179/55/159
f 181/53/161 185/49/165 183/51/163
f 185/49/165 189/45/169 187/47/167
f 189/45/169 193/41/173 191/43/171
f 193/41/173 197/37/177 195/39/175
f 197/37/177 201/33/181 199/35/179
f 201/33/181 205/29/185 203/31/183
f 205/29/185 209/25/189 207/27/187
f 209/25/189 213/21/193 211/23/191
f 213/21/193 217/17/197 215/19/195
f 217/17/197 221/13/201 219/15/199
f 221/13/201 225/9/205 223/11/203
f 225/9/205 229/5/209 227/7/207
f 137/96/118 145/89/125 141/93/121
f 145/89/125 153/81/133 149/85/129
f 153/81/133 161/73/141 157/77/137
f 161/73/141 169/65/149 165/69/145
f 169/65/149 177/57/157 173/61/153
f 177/57/157 185/49/165 181/53/161
f 185/49/165 193/41/173 189/45/169
f 193/41/173 201/33/181 197/37/177
f 201/33/181 209/25/189 205/29/185
f 209/25/189 217/17/197 213/21/193
f 217/17/197 225/9/205 221/13/201
f 225/9/205 230/3/117 229/5/209
f 136/98/211 145/89/125 137/96/118
f 145/89/125 161/73/141 153/81/133
f 161/73/141 177/57/157 169/65/149
f 177/57/157 193/41/173 185/49/165
f 193/41/173 209/25/189 201/33/181
f 209/25/189 225/9/205 217/17/197
f 136/98/211 161/73/141 145/89/125
f 177/57/157 209/25/189 193/41/173
f 209/25/189 230/3/117 225/9/205
f 135/100/212 161/73/141 136/98/211
f 177/57/157 230/3/117 209/25/189
f 134/102/213 161/73/141 135/100/212
f 177/57/157 120/1/214 230/3/117
f 133/103/215 161/73/141 134/102/213
f 177/57/157 121/2/216 120/1/214
f 132/105/217 161/73/141 133/103/215
f 177/57/157 122/97/218 121/2/216
f 132/105/217 177/57/157 161/73/141
f 177/57/157 123/99/219 122/97/218
f 131/107/220 177/57/157 132/105/217
f 177/57/157 124/101/221 123/99/219
f 130/109/222 177/57/157 131/107/220
f 177/57/157 125/104/223 124/101/221
f 129/111/224 177/57/157 130/109/222
f 177/57/157 126/106/225 125/104/223
f 128/110/226 177/57/157 129/111/224
f 177/57/157 127/108/227 126/106/225
f 127/108/227 177/57/157 128/110/226
f 231/2/228 233/97/229 232/97/230
f 231/2/228 234/2/231 233/97/229
f 235/97/232 237/99/233 236/99/234
f 235/97/232 238/97/218 237/99/233
f 239/99/235 241/101/236 240/101/237
f 239/99/235 242/99/219 241/101/236
f 243/101/238 245/104/239 244/104/240
f 243/101/238 246/101/236 245/104/239
f 247/104/241 249/106/242 248/106/243
f 247/104/241 250/104/244 249/106/242
f 251/106/110 253/108/245 252/108/246
f 251/106/110 254/106/247 253/108/245
f 255/108/248 257/110/249 256/110/250
f 255/108/248 258/108/251 257/110/249
f 259/110/252 261/111/253 260/111/254
f 259/110/252 262/110/255 261/111/253
f 263/111/256 265/109/257 264/109/258
f 263/111/256 266/111/259 265/109/257
f 267/109/260 269/107/261 268/107/262
f 267/109/260 270/109/263 269/107/261
f 271/107/264 273/105/265 272/105/109
f 271/107/264 274/107/266 273/105/265
f 275/105/267 277/103/268 276/103/269
f 275/105/267 278/105/270 277/103/268
f 279/103/271 281/102/272 280/102/273
f 279/103/271 282/103/274 281/102/272
f 283/102/273 285/100/275 284/100/276
f 283/102/273 286/102/277 285/100/275
f 287/100/278 289/98/279 288/98/280
f 287/100/278 290/100/212 289/98/279
f 291/98/280 293/96/281 292/96/282
f 291/98/280 294/98/283 293/96/281
f 295/96/284 297/94/285 296/94/286
f 295/96/284 298/96/287 297/94/285
f 299/94/286 301/95/288 300/95/289
f 299/94/286 302/94/290 301/95/288
f 303/95/97 305/92/291 304/92/292
f 303/95/97 306/95/293 305/92/291
f 307/92/294 309/93/295 308/93/296
f 307/92/294 310/92/297 309/93/295
f 311/93/298 313/90/299 312/90/300
f 311/93/298 314/93/301 313/90/299
f 315/90/302 317/91/303 316/91/304
f 315/90/302 318/90/305 317/91/303
f 319/91/304 321/88/306 320/88/307
f 319/91/304 322/91/308 321/88/306
f 323/88/309 325/89/310 324/89/311
f 323/88/309 326/88/312 325/89/310
f 327/89/313 329/86/314 328/86/315
f 327/89/313 330/89/316 329/86/314
f 331/86/317 333/87/318 332/87/319
f 331/86/317 334/86/320 333/87/318
f 335/87/321 337/84/322 336/84/323
f 335/87/321 338/87/318 337/84/322
f 339/84/324 341/85/325 340/85/326
f 339/84/324 342/84/327 341/85/325
f 343/85/328 345/82/329 344/82/330
f 343/85/328 346/85/331 345/82/329
f 347/82/332 349/83/333 348/83/334
f 347/82/332 350/82/335 349/83/333
f 351/83/336 353/80/337 352/80/338
f 351/83/336 354/83/339 353/80/337
f 355/80/340 357/81/341 356/81/342
f 355/80/340 358/80/343 357/81/341
f 359/81/344 361/78/345 360/78/346
f 359/81/344 362/81/347 361/78/345
f 363/78/348 365/79/349 364/79/350
f 363/78/348 366/78/351 365/79/349
f 367/79/352 369/76/353 368/76/354
f 367/79/352 370/79/349 369/76/353
f 371/76/355 373/77/356 372/77/357
f 371/76/355 374/76/358 373/77/356
f 375/77/359 377/74/360 376/74/361
f 375/77/359 378/77/356 377/74/360
f 379/74/362 381/75/363 380/75/364
f 379/74/362 382/74/365 381/75/363
f 383/75/366 385/72/367 384/72/368
f 383/75/366 386/75/369 385/72/367
f 387/72/370 389/73/371 388/73/372
f 387/72/370 390/72/373 389/73/371
f 391/73/374 393/70/375 392/70/376
f 391/73/374 394/73/377 393/70/375
f 395/70/378 397/71/379 396/71/380
f 395/70/378 398/70/381 397/71/379
f 399/71/382 401/68/383 400/68/384
f 399/71/382 402/71/385 401/68/383
f 403/68/386 405/69/387 404/69/388
f 403/68/386 406/68/389 405/69/387
f 407/69/390 409/66/391 408/66/392
f 407/69/390 410/69/393 409/66/391
f 411/66/394 413/67/395 412/67/396
f 411/66/394 414/66/391 413/67/395
f 415/67/397 417/64/398 416/64/66
f 415/67/397 418/67/395 417/64/398
f 419/64/399 421/65/400 420/65/401
f 419/64/399 422/64/402 421/65/400
f 423/65/401 425/62/403 424/62/404
f 423/65/401 426/65/400 425/62/403
f 427/62/405 429/63/406 428/63/407
f 427/62/405 430/62/408 429/63/406
f 431/63/409 433/60/410 432/60/411
f 431/63/409 434/63/412 433/60/410
f 435/60/413 437/61/414 436/61/63
f 435/60/413 438/60/154 437/61/414
f 439/61/415 441/58/416 440/58/417
f 439/61/415 442/61/418 441/58/416
f 443/58/419 445/59/420 444/59/421
f 443/58/419 446/58/422 445/59/420
f 447/59/421 449/56/423 448/56/424
f 447/59/421 450/59/420 449/56/423
f 451/56/425 453/57/426 452/57/427
f 451/56/425 454/56/428 453/57/426
f 455/57/429 457/54/430 456/54/56
f 455/57/429 458/57/157 457/54/430
f 459/54/431 461/55/432 460/55/433
f 459/54/431 462/54/434 461/55/432
f 463/55/435 465/52/436 464/52/437
f 463/55/435 466/55/438 465/52/436
f 467/52/439 469/53/440 468/53/441
f 467/52/439 470/52/442 469/53/440
f 471/53/441 473/50/443 472/50/444
f 471/53/441 474/53/445 473/50/443
f 475/50/446 477/51/447 476/51/448
f 475/50/446 478/50/449 477/51/447
f 479/51/450 481/48/166 480/48/451
f 479/51/450 482/51/452 481/48/166
f 483/48/451 485/49/453 484/49/454
f 483/48/451 486/48/455 485/49/453
f 487/49/456 489/46/457 488/46/458
f 487/49/456 490/49/459 489/46/457
f 491/46/460 493/47/461 492/47/462
f 491/46/460 494/46/457 493/47/461
f 495/47/463 497/44/464 496/44/465
f 495/47/463 498/47/466 497/44/464
f 499/44/467 501/45/468 500/45/469
f 499/44/467 502/44/470 501/45/468
f 503/45/471 505/42/472 504/42/473
f 503/45/471 506/45/474 505/42/472
f 507/42/475 509/43/476 508/43/45
f 507/42/475 510/42/477 509/43/476
f 511/43/478 513/40/479 512/40/480
f 511/43/478 514/43/481 513/40/479
f 515/40/482 517/41/483 516/41/484
f 515/40/482 518/40/485 517/41/483
f 519/41/486 521/38/487 520/38/488
f 519/41/486 522/41/489 521/38/487
f 523/38/490 525/39/491 524/39/492
f 523/38/490 526/38/493 525/39/491
f 527/39/494 529/36/495 528/36/496
f 527/39/494 530/39/491 529/36/495
f 531/36/497 533/37/498 532/37/499
f 531/36/497 534/36/500 533/37/498
f 535/37/501 537/34/502 536/34/503
f 535/37/501 538/37/504 537/34/502
f 539/34/505 541/35/506 540/35/507
f 539/34/505 542/34/508 541/35/506
f 543/35/509 545/32/510 544/32/511
f 543/35/509 546/35/506 545/32/510
f 547/32/512 549/33/513 548/33/514
f 547/32/512 550/32/510 549/33/513
f 551/33/515 553/30/516 552/30/517
f 551/33/515 554/33/518 553/30/516
f 555/30/519 557/31/520 556/31/33
f 555/30/519 558/30/521 557/31/520
f 559/31/522 561/28/523 560/28/524
f 559/31/522 562/31/525 561/28/523
f 563/28/524 565/29/526 564/29/527
f 563/28/524 566/28/528 565/29/526
f 567/29/529 569/26/530 568/26/531
f 567/29/529 570/29/532 569/26/530
f 571/26/533 573/27/534 572/27/535
f 571/26/533 574/26/530 573/27/534
f 575/27/535 577/24/536 576/24/537
f 575/27/535 578/27/538 577/24/536
f 579/24/539 581/25/540 580/25/541
f 579/24/539 582/24/542 581/25/540
f 583/25/543 585/22/544 584/22/545
f 583/25/543 586/25/546 585/22/544
f 587/22/547 589/23/548 588/23/549
f 587/22/547 590/22/550 589/23/548
f 591/23/551 593/20/552 592/20/553
f 591/23/551 594/23/554 593/20/552
f 595/20/555 597/21/556 596/21/557
f 595/20/555 598/20/558 597/21/556
f 599/21/559 601/18/560 600/18/561
f 599/21/559 602/21/562 601/18/560
f 603/18/20 605/19/563 604/19/564
f 603/18/20 606/18/565 605/19/563
f 607/19/566 609/16/567 608/16/568
f 607/19/566 610/19/569 609/16/567
f 611/16/570 613/17/571 612/17/572
f 611/16/570 614/16/573 613/17/571
f 615/17/574 617/14/575 616/14/576
f 615/17/574 618/17/577 617/14/575
f 619/14/578 621/15/579 620/15/580
f 619/14/578 622/14/581 621/15/579
f 623/15/582 625/12/583 624/12/584
f 623/15/582 626/15/585 625/12/583
f 627/12/586 629/13/587 628/13/588
f 627/12/586 630/12/583 629/13/587
f 631/13/589 633/10/590 632/10/591
f 631/13/589 634/13/592 633/10/590
f 635/10/593 637/11/594 636/11/595
f 635/10/593 638/10/596 637/11/594
f 639/11/595 641/8/597 640/8/598
f 639/11/595 642/11/599 641/8/597
f 643/8/600 645/9/601 644/9/602
f 643/8/600 646/8/603 645/9/601
f 647/9/602 649/6/604 648/6/605
f 647/9/602 650/9/601 649/6/604
f 651/6/605 653/7/606 652/7/607
f 651/6/605 654/6/608 653/7/606
f 655/7/609 657/4/610 656/4/611
f 655/7/609 658/7/612 657/4/610
f 659/4/611 661/5/613 660/5/614
f 659/4/611 662/4/615 661/5/613
f 663/5/616 665/3/617 664/3/618
f 663/5/616 666/5/619 665/3/617
