v -0.411521 0.01894 0.143918
v -0.407109 0.01894 0.143746
v -0.408207 0.01894 0.143724
v -0.411521 0.01894 0.143918
v -0.406005 0.01894 0.143814
v -0.407109 0.01894 0.143746
v -0.411521 0.01894 0.143918
v -0.404888 0.01894 0.143928
v -0.406005 0.01894 0.143814
v -0.414658 0.018939 0.144489
v -0.404888 0.01894 0.143928
v -0.411521 0.01894 0.143918
v -0.414658 0.018939 0.144489
v -0.403755 0.018939 0.144091
v -0.404888 0.01894 0.143928
v -0.414658 0.018939 0.144489
v -0.402602 0.018939 0.144301
v -0.403755 0.018939 0.144091
v -0.414658 0.018939 0.144489
v -0.401422 0.018938 0.144561
v -0.402602 0.018939 0.144301
v -0.417596 0.018937 0.145414
v -0.401422 0.018938 0.144561
v -0.414658 0.018939 0.144489
v -0.417596 0.018937 0.145414
v -0.400213 0.018938 0.144873
v -0.401422 0.018938 0.144561
v -0.417596 0.018937 0.145414
v -0.39897 0.018937 0.145235
v -0.400213 0.018938 0.144873
v -0.417596 0.018937 0.145414
v -0.397687 0.018936 0.145652
v -0.39897 0.018937 0.145235
v -0.420315 0.018934 0.146673
v -0.397687 0.018936 0.145652
v -0.417596 0.018937 0.145414
v -0.420315 0.018934 0.146673
v -0.39636 0.018935 0.146123
v -0.397687 0.018936 0.145652
v -0.420315 0.018934 0.146673
v -0.394985 0.018934 0.146648
v -0.39636 0.018935 0.146123
v -0.420315 0.018934 0.146673
v -0.393558 0.018933 0.147229
v -0.394985 0.018934 0.146648
v -0.422792 0.018931 0.148245
v -0.393558 0.018933 0.147229
v -0.420315 0.018934 0.146673
v -0.422792 0.018931 0.148245
v -0.405828 0.018928 0.149475
v -0.393558 0.018933 0.147229
v -0.405828 0.018928 0.149475
v -0.404624 0.018928 0.149622
v -0.393558 0.018933 0.147229
v -0.404624 0.018928 0.149622
v -0.403426 0.018927 0.149829
v -0.393558 0.018933 0.147229
v -0.403426 0.018927 0.149829
v -0.40223 0.018927 0.150098
v -0.393558 0.018933 0.147229
v -0.40223 0.018927 0.150098
v -0.401031 0.018926 0.15043
v -0.393558 0.018933 0.147229
v -0.401031 0.018926 0.15043
v -0.399826 0.018925 0.150826
v -0.393558 0.018933 0.147229
v -0.399826 0.018925 0.150826
v -0.39861 0.018924 0.151287
v -0.393558 0.018933 0.147229
v -0.39861 0.018924 0.151287
v -0.39738 0.018923 0.151815
v -0.393558 0.018933 0.147229
v -0.39738 0.018923 0.151815
v -0.39613 0.018922 0.152408
v -0.393558 0.018933 0.147229
v -0.39613 0.018922 0.152408
v -0.394858 0.018921 0.153071
v -0.393558 0.018933 0.147229
v -0.394858 0.018921 0.153071
v -0.393558 0.018919 0.153803
v -0.393558 0.018933 0.147229
v -0.425008 0.018927 0.150109
v -0.40827 0.018928 0.149358
v -0.422792 0.018931 0.148245
v -0.40827 0.018928 0.149358
v -0.407042 0.018928 0.149387
v -0.422792 0.018931 0.148245
v -0.407042 0.018928 0.149387
v -0.405828 0.018928 0.149475
v -0.422792 0.018931 0.148245
v -0.425008 0.018927 0.150109
v -0.410656 0.018928 0.149501
v -0.40827 0.018928 0.149358
v -0.425008 0.018927 0.150109
v -0.412922 0.018927 0.149916
v -0.410656 0.018928 0.149501
v -0.425008 0.018927 0.150109
v -0.41505 0.018926 0.15059
v -0.412922 0.018927 0.149916
v -0.42694 0.018922 0.152245
v -0.41505 0.018926 0.15059
v -0.425008 0.018927 0.150109
v -0.42694 0.018922 0.152245
v -0.417025 0.018924 0.151507
v -0.41505 0.018926 0.15059
v -0.42694 0.018922 0.152245
v -0.418829 0.018922 0.152652
v -0.417025 0.018924 0.151507
v -0.428569 0.018917 0.15463
v -0.418829 0.018922 0.152652
v -0.42694 0.018922 0.152245
v -0.428569 0.018917 0.15463
v -0.420446 0.018919 0.154006
v -0.418829 0.018922 0.152652
v -0.428569 0.018917 0.15463
v -0.421859 0.018915 0.155557
v -0.420446 0.018919 0.154006
v -0.429872 0.018912 0.157246
v -0.421859 0.018915 0.155557
v -0.428569 0.018917 0.15463
v -0.429872 0.018912 0.157246
v -0.423053 0.018912 0.157288
v -0.421859 0.018915 0.155557
v -0.430829 0.018906 0.16007
v -0.423053 0.018912 0.157288
v -0.429872 0.018912 0.157246
v -0.430829 0.018906 0.16007
v -0.42401 0.018908 0.159183
v -0.423053 0.018912 0.157288
v -0.430829 0.018906 0.16007
v -0.424714 0.018904 0.161226
v -0.42401 0.018908 0.159183
v -0.431419 0.0189 0.163082
v -0.424714 0.018904 0.161226
v -0.430829 0.018906 0.16007
v -0.431419 0.0189 0.163082
v -0.425149 0.018899 0.163403
v -0.424714 0.018904 0.161226
v -0.43162 0.018893 0.166261
v -0.425149 0.018899 0.163403
v -0.431419 0.0189 0.163082
v -0.43162 0.018893 0.166261
v -0.425297 0.018894 0.165698
v -0.425149 0.018899 0.163403
v -0.43162 0.018893 0.166261
v -0.425154 0.018889 0.168029
v -0.425297 0.018894 0.165698
v -0.431473 0.018888 0.16856
v -0.425154 0.018889 0.168029
v -0.43162 0.018893 0.166261
v -0.431473 0.018888 0.16856
v -0.424731 0.018885 0.170224
v -0.425154 0.018889 0.168029
v -0.431027 0.018883 0.170946
v -0.424731 0.018885 0.170224
v -0.431473 0.018888 0.16856
v -0.431027 0.018883 0.170946
v -0.424042 0.018881 0.172272
v -0.424731 0.018885 0.170224
v -0.430274 0.018878 0.173364
v -0.424042 0.018881 0.172272
v -0.431027 0.018883 0.170946
v -0.430274 0.018878 0.173364
v -0.423099 0.018877 0.174158
v -0.424042 0.018881 0.172272
v -0.429209 0.018873 0.175758
v -0.423099 0.018877 0.174158
v -0.430274 0.018878 0.173364
v -0.429209 0.018873 0.175758
v -0.421917 0.018873 0.17587
v -0.423099 0.018877 0.174158
v -0.427824 0.018868 0.178075
v -0.421917 0.018873 0.17587
v -0.429209 0.018873 0.175758
v -0.427824 0.018868 0.178075
v -0.420508 0.01887 0.177397
v -0.421917 0.018873 0.17587
v -0.394333 0.018869 0.177843
v -0.39312 0.018857 0.18379
v -0.39312 0.018871 0.177091
v -0.427824 0.018868 0.178075
v -0.418885 0.018867 0.178723
v -0.420508 0.01887 0.177397
v -0.395562 0.018867 0.178535
v -0.39312 0.018857 0.18379
v -0.394333 0.018869 0.177843
v -0.426111 0.018864 0.18026
v -0.418885 0.018867 0.178723
v -0.427824 0.018868 0.178075
v -0.396804 0.018866 0.179165
v -0.39312 0.018857 0.18379
v -0.395562 0.018867 0.178535
v -0.426111 0.018864 0.18026
v -0.417062 0.018865 0.179836
v -0.418885 0.018867 0.178723
v -0.398054 0.018865 0.179732
v -0.39312 0.018857 0.18379
v -0.396804 0.018866 0.179165
v -0.39931 0.018864 0.180236
v -0.39312 0.018857 0.18379
v -0.398054 0.018865 0.179732
v -0.426111 0.018864 0.18026
v -0.41505 0.018863 0.180725
v -0.417062 0.018865 0.179836
v -0.400569 0.018863 0.180675
v -0.39312 0.018857 0.18379
v -0.39931 0.018864 0.180236
v -0.424065 0.01886 0.182259
v -0.41505 0.018863 0.180725
v -0.426111 0.018864 0.18026
v -0.401829 0.018862 0.181049
v -0.39312 0.018857 0.18379
v -0.400569 0.018863 0.180675
v -0.424065 0.01886 0.182259
v -0.412864 0.018862 0.181376
v -0.41505 0.018863 0.180725
v -0.403085 0.018862 0.181358
v -0.39312 0.018857 0.18379
v -0.401829 0.018862 0.181049
v -0.404335 0.018861 0.181598
v -0.39312 0.018857 0.18379
v -0.403085 0.018862 0.181358
v -0.424065 0.01886 0.182259
v -0.410516 0.018861 0.181775
v -0.412864 0.018862 0.181376
v -0.405576 0.018861 0.181772
v -0.39312 0.018857 0.18379
v -0.404335 0.018861 0.181598
v -0.406805 0.018861 0.181876
v -0.39312 0.018857 0.18379
v -0.405576 0.018861 0.181772
v -0.424065 0.01886 0.182259
v -0.408019 0.01886 0.181911
v -0.410516 0.018861 0.181775
v -0.408019 0.01886 0.181911
v -0.39312 0.018857 0.18379
v -0.406805 0.018861 0.181876
v -0.424065 0.01886 0.182259
v -0.39312 0.018857 0.18379
v -0.408019 0.01886 0.181911
v -0.421678 0.018856 0.184016
v -0.39312 0.018857 0.18379
v -0.424065 0.01886 0.182259
v -0.421678 0.018856 0.184016
v -0.394177 0.018855 0.184324
v -0.39312 0.018857 0.18379
v -0.418943 0.018853 0.185479
v -0.394177 0.018855 0.184324
v -0.421678 0.018856 0.184016
v -0.418943 0.018853 0.185479
v -0.395256 0.018854 0.184829
v -0.394177 0.018855 0.184324
v -0.418943 0.018853 0.185479
v -0.396363 0.018853 0.185301
v -0.395256 0.018854 0.184829
v -0.418943 0.018853 0.185479
v -0.397504 0.018852 0.185737
v -0.396363 0.018853 0.185301
v -0.415854 0.018851 0.18659
v -0.397504 0.018852 0.185737
v -0.418943 0.018853 0.185479
v -0.415854 0.018851 0.18659
v -0.398685 0.018852 0.186135
v -0.397504 0.018852 0.185737
v -0.415854 0.018851 0.18659
v -0.399912 0.018851 0.186489
v -0.398685 0.018852 0.186135
v -0.415854 0.018851 0.18659
v -0.401191 0.01885 0.186798
v -0.399912 0.018851 0.186489
v -0.412402 0.018849 0.187298
v -0.401191 0.01885 0.186798
v -0.415854 0.018851 0.18659
v -0.412402 0.018849 0.187298
v -0.402529 0.01885 0.187058
v -0.401191 0.01885 0.186798
v -0.412402 0.018849 0.187298
v -0.40393 0.018849 0.187267
v -0.402529 0.01885 0.187058
v -0.412402 0.018849 0.187298
v -0.405403 0.018849 0.18742
v -0.40393 0.018849 0.187267
v -0.408583 0.018849 0.187545
v -0.405403 0.018849 0.18742
v -0.412402 0.018849 0.187298
v -0.408583 0.018849 0.187545
v -0.406951 0.018849 0.187514
v -0.405403 0.018849 0.18742
v -0.407109 0.015184 0.143738
v -0.411521 0.015184 0.143911
v -0.408207 0.015184 0.143716
v -0.406005 0.015184 0.143807
v -0.411521 0.015184 0.143911
v -0.407109 0.015184 0.143738
v -0.404888 0.015184 0.14392
v -0.411521 0.015184 0.143911
v -0.406005 0.015184 0.143807
v -0.404888 0.015184 0.14392
v -0.414658 0.015182 0.144481
v -0.411521 0.015184 0.143911
v -0.403755 0.015183 0.144083
v -0.414658 0.015182 0.144481
v -0.404888 0.015184 0.14392
v -0.402602 0.015183 0.144293
v -0.414658 0.015182 0.144481
v -0.403755 0.015183 0.144083
v -0.401422 0.015182 0.144553
v -0.414658 0.015182 0.144481
v -0.402602 0.015183 0.144293
v -0.401422 0.015182 0.144553
v -0.417596 0.01518 0.145406
v -0.414658 0.015182 0.144481
v -0.400213 0.015182 0.144864
v -0.417596 0.01518 0.145406
v -0.401422 0.015182 0.144553
v -0.39897 0.015181 0.145228
v -0.417596 0.01518 0.145406
v -0.400213 0.015182 0.144864
v -0.397687 0.01518 0.145644
v -0.417596 0.01518 0.145406
v -0.39897 0.015181 0.145228
v -0.397687 0.01518 0.145644
v -0.420315 0.015178 0.146665
v -0.417596 0.01518 0.145406
v -0.39636 0.015179 0.146114
v -0.420315 0.015178 0.146665
v -0.397687 0.01518 0.145644
v -0.394985 0.015178 0.14664
v -0.420315 0.015178 0.146665
v -0.39636 0.015179 0.146114
v -0.393558 0.015177 0.147222
v -0.420315 0.015178 0.146665
v -0.394985 0.015178 0.14664
v -0.393558 0.015177 0.147222
v -0.422792 0.015175 0.148237
v -0.420315 0.015178 0.146665
v -0.405828 0.015172 0.149466
v -0.422792 0.015175 0.148237
v -0.393558 0.015177 0.147222
v -0.404624 0.015172 0.149613
v -0.405828 0.015172 0.149466
v -0.393558 0.015177 0.147222
v -0.403426 0.015171 0.149821
v -0.404624 0.015172 0.149613
v -0.393558 0.015177 0.147222
v -0.40223 0.015171 0.150091
v -0.403426 0.015171 0.149821
v -0.393558 0.015177 0.147222
v -0.401031 0.01517 0.150422
v -0.40223 0.015171 0.150091
v -0.393558 0.015177 0.147222
v -0.399826 0.015169 0.150818
v -0.401031 0.01517 0.150422
v -0.393558 0.015177 0.147222
v -0.39861 0.015168 0.151279
v -0.399826 0.015169 0.150818
v -0.393558 0.015177 0.147222
v -0.39738 0.015167 0.151807
v -0.39861 0.015168 0.151279
v -0.393558 0.015177 0.147222
v -0.39613 0.015166 0.152401
v -0.39738 0.015167 0.151807
v -0.393558 0.015177 0.147222
v -0.394858 0.015164 0.153064
v -0.39613 0.015166 0.152401
v -0.393558 0.015177 0.147222
v -0.393558 0.015163 0.153795
v -0.394858 0.015164 0.153064
v -0.393558 0.015177 0.147222
v -0.40827 0.015172 0.14935
v -0.425008 0.015171 0.150101
v -0.422792 0.015175 0.148237
v -0.407042 0.015172 0.149379
v -0.40827 0.015172 0.14935
v -0.422792 0.015175 0.148237
v -0.405828 0.015172 0.149466
v -0.407042 0.015172 0.149379
v -0.422792 0.015175 0.148237
v -0.410656 0.015172 0.149493
v -0.425008 0.015171 0.150101
v -0.40827 0.015172 0.14935
v -0.412922 0.015171 0.149908
v -0.425008 0.015171 0.150101
v -0.410656 0.015172 0.149493
v -0.41505 0.01517 0.150583
v -0.425008 0.015171 0.150101
v -0.412922 0.015171 0.149908
v -0.41505 0.01517 0.150583
v -0.42694 0.015166 0.152237
v -0.425008 0.015171 0.150101
v -0.417025 0.015168 0.151499
v -0.42694 0.015166 0.152237
v -0.41505 0.01517 0.150583
v -0.418829 0.015165 0.152644
v -0.42694 0.015166 0.152237
v -0.417025 0.015168 0.151499
v -0.418829 0.015165 0.152644
v -0.428569 0.015161 0.154623
v -0.42694 0.015166 0.152237
v -0.420446 0.015163 0.153998
v -0.428569 0.015161 0.154623
v -0.418829 0.015165 0.152644
v -0.421859 0.015159 0.155549
v -0.428569 0.015161 0.154623
v -0.420446 0.015163 0.153998
v -0.421859 0.015159 0.155549
v -0.429872 0.015156 0.157238
v -0.428569 0.015161 0.154623
v -0.423053 0.015156 0.15728
v -0.429872 0.015156 0.157238
v -0.421859 0.015159 0.155549
v -0.423053 0.015156 0.15728
v -0.430829 0.01515 0.160063
v -0.429872 0.015156 0.157238
v -0.42401 0.015152 0.159175
v -0.430829 0.01515 0.160063
v -0.423053 0.015156 0.15728
v -0.424714 0.015147 0.161218
v -0.430829 0.01515 0.160063
v -0.42401 0.015152 0.159175
v -0.424714 0.015147 0.161218
v -0.431419 0.015144 0.163074
v -0.430829 0.01515 0.160063
v -0.425149 0.015143 0.163395
v -0.431419 0.015144 0.163074
v -0.424714 0.015147 0.161218
v -0.425149 0.015143 0.163395
v -0.43162 0.015137 0.166253
v -0.431419 0.015144 0.163074
v -0.425297 0.015138 0.165689
v -0.43162 0.015137 0.166253
v -0.425149 0.015143 0.163395
v -0.425154 0.015133 0.168021
v -0.43162 0.015137 0.166253
v -0.425297 0.015138 0.165689
v -0.425154 0.015133 0.168021
v -0.431473 0.015132 0.168553
v -0.43162 0.015137 0.166253
v -0.424731 0.015129 0.170217
v -0.431473 0.015132 0.168553
v -0.425154 0.015133 0.168021
v -0.424731 0.015129 0.170217
v -0.431027 0.015127 0.170938
v -0.431473 0.015132 0.168553
v -0.424042 0.015124 0.172264
v -0.431027 0.015127 0.170938
v -0.424731 0.015129 0.170217
v -0.424042 0.015124 0.172264
v -0.430274 0.015122 0.173356
v -0.431027 0.015127 0.170938
v -0.423099 0.01512 0.17415
v -0.430274 0.015122 0.173356
v -0.424042 0.015124 0.172264
v -0.423099 0.01512 0.17415
v -0.429209 0.015117 0.17575
v -0.430274 0.015122 0.173356
v -0.421917 0.015117 0.175863
v -0.429209 0.015117 0.17575
v -0.423099 0.01512 0.17415
v -0.421917 0.015117 0.175863
v -0.427824 0.015112 0.178067
v -0.429209 0.015117 0.17575
v -0.420508 0.015114 0.177389
v -0.427824 0.015112 0.178067
v -0.421917 0.015117 0.175863
v -0.39312 0.0151 0.183782
v -0.394333 0.015113 0.177835
v -0.39312 0.015114 0.177083
v -0.418885 0.015111 0.178714
v -0.427824 0.015112 0.178067
v -0.420508 0.015114 0.177389
v -0.39312 0.0151 0.183782
v -0.395562 0.015111 0.178527
v -0.394333 0.015113 0.177835
v -0.418885 0.015111 0.178714
v -0.426111 0.015108 0.180253
v -0.427824 0.015112 0.178067
v -0.39312 0.0151 0.183782
v -0.396804 0.01511 0.179157
v -0.395562 0.015111 0.178527
v -0.417062 0.015109 0.179828
v -0.426111 0.015108 0.180253
v -0.418885 0.015111 0.178714
v -0.39312 0.0151 0.183782
v -0.398054 0.015109 0.179724
v -0.396804 0.01511 0.179157
v -0.39312 0.0151 0.183782
v -0.39931 0.015108 0.180228
v -0.398054 0.015109 0.179724
v -0.41505 0.015107 0.180717
v -0.426111 0.015108 0.180253
v -0.417062 0.015109 0.179828
v -0.39312 0.0151 0.183782
v -0.400569 0.015107 0.180667
v -0.39931 0.015108 0.180228
v -0.41505 0.015107 0.180717
v -0.424065 0.015104 0.182251
v -0.426111 0.015108 0.180253
v -0.39312 0.0151 0.183782
v -0.401829 0.015106 0.181041
v -0.400569 0.015107 0.180667
v -0.412864 0.015105 0.181368
v -0.424065 0.015104 0.182251
v -0.41505 0.015107 0.180717
v -0.39312 0.0151 0.183782
v -0.403085 0.015105 0.18135
v -0.401829 0.015106 0.181041
v -0.39312 0.0151 0.183782
v -0.404335 0.015105 0.18159
v -0.403085 0.015105 0.18135
v -0.410516 0.015105 0.181767
v -0.424065 0.015104 0.182251
v -0.412864 0.015105 0.181368
v -0.39312 0.0151 0.183782
v -0.405576 0.015105 0.181764
v -0.404335 0.015105 0.18159
v -0.39312 0.0151 0.183782
v -0.406805 0.015104 0.181868
v -0.405576 0.015105 0.181764
v -0.408019 0.015104 0.181903
v -0.424065 0.015104 0.182251
v -0.410516 0.015105 0.181767
v -0.39312 0.0151 0.183782
v -0.408019 0.015104 0.181903
v -0.406805 0.015104 0.181868
v -0.39312 0.0151 0.183782
v -0.424065 0.015104 0.182251
v -0.408019 0.015104 0.181903
v -0.39312 0.0151 0.183782
v -0.421678 0.0151 0.184009
v -0.424065 0.015104 0.182251
v -0.394177 0.015099 0.184316
v -0.421678 0.0151 0.184009
v -0.39312 0.0151 0.183782
v -0.394177 0.015099 0.184316
v -0.418943 0.015097 0.185471
v -0.421678 0.0151 0.184009
v -0.395256 0.015098 0.184821
v -0.418943 0.015097 0.185471
v -0.394177 0.015099 0.184316
v -0.396363 0.015097 0.185293
v -0.418943 0.015097 0.185471
v -0.395256 0.015098 0.184821
v -0.397504 0.015096 0.18573
v -0.418943 0.015097 0.185471
v -0.396363 0.015097 0.185293
v -0.397504 0.015096 0.18573
v -0.415854 0.015095 0.186583
v -0.418943 0.015097 0.185471
v -0.398685 0.015095 0.186127
v -0.415854 0.015095 0.186583
v -0.397504 0.015096 0.18573
v -0.399912 0.015095 0.186482
v -0.415854 0.015095 0.186583
v -0.398685 0.015095 0.186127
v -0.401191 0.015094 0.18679
v -0.415854 0.015095 0.186583
v -0.399912 0.015095 0.186482
v -0.401191 0.015094 0.18679
v -0.412402 0.015093 0.18729
v -0.415854 0.015095 0.186583
v -0.402529 0.015094 0.187051
v -0.412402 0.015093 0.18729
v -0.401191 0.015094 0.18679
v -0.40393 0.015093 0.187259
v -0.412402 0.015093 0.18729
v -0.402529 0.015094 0.187051
v -0.405403 0.015093 0.187412
v -0.412402 0.015093 0.18729
v -0.40393 0.015093 0.187259
v -0.405403 0.015093 0.187412
v -0.408583 0.015093 0.187538
v -0.412402 0.015093 0.18729
v -0.406951 0.015093 0.187506
v -0.408583 0.015093 0.187538
v -0.405403 0.015093 0.187412
v -0.394858 0.018921 0.153071
v -0.39613 0.018922 0.152408
v -0.39613 0.015166 0.152401
v -0.394858 0.015164 0.153064
v -0.39613 0.018922 0.152408
v -0.39738 0.018923 0.151815
v -0.39738 0.015167 0.151807
v -0.39613 0.015166 0.152401
v -0.39738 0.018923 0.151815
v -0.39861 0.018924 0.151287
v -0.39861 0.015168 0.151279
v -0.39738 0.015167 0.151807
v -0.39861 0.018924 0.151287
v -0.399826 0.018925 0.150826
v -0.399826 0.015169 0.150818
v -0.39861 0.015168 0.151279
v -0.399826 0.018925 0.150826
v -0.401031 0.018926 0.15043
v -0.401031 0.01517 0.150422
v -0.399826 0.015169 0.150818
v -0.401031 0.018926 0.15043
v -0.40223 0.018927 0.150098
v -0.40223 0.015171 0.150091
v -0.401031 0.01517 0.150422
v -0.40223 0.018927 0.150098
v -0.403426 0.018927 0.149829
v -0.403426 0.015171 0.149821
v -0.40223 0.015171 0.150091
v -0.403426 0.018927 0.149829
v -0.404624 0.018928 0.149622
v -0.404624 0.015172 0.149613
v -0.403426 0.015171 0.149821
v -0.404624 0.018928 0.149622
v -0.405828 0.018928 0.149475
v -0.405828 0.015172 0.149466
v -0.404624 0.015172 0.149613
v -0.405828 0.018928 0.149475
v -0.407042 0.018928 0.149387
v -0.407042 0.015172 0.149379
v -0.405828 0.015172 0.149466
v -0.407042 0.018928 0.149387
v -0.40827 0.018928 0.149358
v -0.40827 0.015172 0.14935
v -0.407042 0.015172 0.149379
v -0.40827 0.018928 0.149358
v -0.410656 0.018928 0.149501
v -0.410656 0.015172 0.149493
v -0.40827 0.015172 0.14935
v -0.410656 0.018928 0.149501
v -0.412922 0.018927 0.149916
v -0.412922 0.015171 0.149908
v -0.410656 0.015172 0.149493
v -0.412922 0.018927 0.149916
v -0.41505 0.018926 0.15059
v -0.41505 0.01517 0.150583
v -0.412922 0.015171 0.149908
v -0.41505 0.018926 0.15059
v -0.417025 0.018924 0.151507
v -0.417025 0.015168 0.151499
v -0.41505 0.01517 0.150583
v -0.417025 0.018924 0.151507
v -0.418829 0.018922 0.152652
v -0.418829 0.015165 0.152644
v -0.417025 0.015168 0.151499
v -0.418829 0.018922 0.152652
v -0.420446 0.018919 0.154006
v -0.420446 0.015163 0.153998
v -0.418829 0.015165 0.152644
v -0.420446 0.018919 0.154006
v -0.421859 0.018915 0.155557
v -0.421859 0.015159 0.155549
v -0.420446 0.015163 0.153998
v -0.421859 0.018915 0.155557
v -0.423053 0.018912 0.157288
v -0.423053 0.015156 0.15728
v -0.421859 0.015159 0.155549
v -0.423053 0.018912 0.157288
v -0.42401 0.018908 0.159183
v -0.42401 0.015152 0.159175
v -0.423053 0.015156 0.15728
v -0.42401 0.018908 0.159183
v -0.424714 0.018904 0.161226
v -0.424714 0.015147 0.161218
v -0.42401 0.015152 0.159175
v -0.424714 0.018904 0.161226
v -0.425149 0.018899 0.163403
v -0.425149 0.015143 0.163395
v -0.424714 0.015147 0.161218
v -0.425149 0.018899 0.163403
v -0.425297 0.018894 0.165698
v -0.425297 0.015138 0.165689
v -0.425149 0.015143 0.163395
v -0.425297 0.018894 0.165698
v -0.425154 0.018889 0.168029
v -0.425154 0.015133 0.168021
v -0.425297 0.015138 0.165689
v -0.425154 0.018889 0.168029
v -0.424731 0.018885 0.170224
v -0.424731 0.015129 0.170217
v -0.425154 0.015133 0.168021
v -0.424731 0.018885 0.170224
v -0.424042 0.018881 0.172272
v -0.424042 0.015124 0.172264
v -0.424731 0.015129 0.170217
v -0.424042 0.018881 0.172272
v -0.423099 0.018877 0.174158
v -0.423099 0.01512 0.17415
v -0.424042 0.015124 0.172264
v -0.423099 0.018877 0.174158
v -0.421917 0.018873 0.17587
v -0.421917 0.015117 0.175863
v -0.423099 0.01512 0.17415
v -0.421917 0.018873 0.17587
v -0.420508 0.01887 0.177397
v -0.420508 0.015114 0.177389
v -0.421917 0.015117 0.175863
v -0.420508 0.01887 0.177397
v -0.418885 0.018867 0.178723
v -0.418885 0.015111 0.178714
v -0.420508 0.015114 0.177389
v -0.418885 0.018867 0.178723
v -0.417062 0.018865 0.179836
v -0.417062 0.015109 0.179828
v -0.418885 0.015111 0.178714
v -0.417062 0.018865 0.179836
v -0.41505 0.018863 0.180725
v -0.41505 0.015107 0.180717
v -0.417062 0.015109 0.179828
v -0.41505 0.018863 0.180725
v -0.412864 0.018862 0.181376
v -0.412864 0.015105 0.181368
v -0.41505 0.015107 0.180717
v -0.412864 0.018862 0.181376
v -0.410516 0.018861 0.181775
v -0.410516 0.015105 0.181767
v -0.412864 0.015105 0.181368
v -0.410516 0.018861 0.181775
v -0.408019 0.01886 0.181911
v -0.408019 0.015104 0.181903
v -0.410516 0.015105 0.181767
v -0.408019 0.01886 0.181911
v -0.406805 0.018861 0.181876
v -0.406805 0.015104 0.181868
v -0.408019 0.015104 0.181903
v -0.406805 0.018861 0.181876
v -0.405576 0.018861 0.181772
v -0.405576 0.015105 0.181764
v -0.406805 0.015104 0.181868
v -0.405576 0.018861 0.181772
v -0.404335 0.018861 0.181598
v -0.404335 0.015105 0.18159
v -0.405576 0.015105 0.181764
v -0.404335 0.018861 0.181598
v -0.403085 0.018862 0.181358
v -0.403085 0.015105 0.18135
v -0.404335 0.015105 0.18159
v -0.403085 0.018862 0.181358
v -0.401829 0.018862 0.181049
v -0.401829 0.015106 0.181041
v -0.403085 0.015105 0.18135
v -0.401829 0.018862 0.181049
v -0.400569 0.018863 0.180675
v -0.400569 0.015107 0.180667
v -0.401829 0.015106 0.181041
v -0.400569 0.018863 0.180675
v -0.39931 0.018864 0.180236
v -0.39931 0.015108 0.180228
v -0.400569 0.015107 0.180667
v -0.39931 0.018864 0.180236
v -0.398054 0.018865 0.179732
v -0.398054 0.015109 0.179724
v -0.39931 0.015108 0.180228
v -0.398054 0.018865 0.179732
v -0.396804 0.018866 0.179165
v -0.396804 0.01511 0.179157
v -0.398054 0.015109 0.179724
v -0.396804 0.018866 0.179165
v -0.395562 0.018867 0.178535
v -0.395562 0.015111 0.178527
v -0.396804 0.01511 0.179157
v -0.395562 0.018867 0.178535
v -0.394333 0.018869 0.177843
v -0.394333 0.015113 0.177835
v -0.395562 0.015111 0.178527
v -0.394333 0.018869 0.177843
v -0.39312 0.018871 0.177091
v -0.39312 0.015114 0.177083
v -0.394333 0.015113 0.177835
v -0.39312 0.018871 0.177091
v -0.39312 0.018857 0.18379
v -0.39312 0.0151 0.183782
v -0.39312 0.015114 0.177083
v -0.39312 0.018857 0.18379
v -0.394177 0.018855 0.184324
v -0.394177 0.015099 0.184316
v -0.39312 0.0151 0.183782
v -0.394177 0.018855 0.184324
v -0.395256 0.018854 0.184829
v -0.395256 0.015098 0.184821
v -0.394177 0.015099 0.184316
v -0.395256 0.018854 0.184829
v -0.396363 0.018853 0.185301
v -0.396363 0.015097 0.185293
v -0.395256 0.015098 0.184821
v -0.396363 0.018853 0.185301
v -0.397504 0.018852 0.185737
v -0.397504 0.015096 0.18573
v -0.396363 0.015097 0.185293
v -0.397504 0.018852 0.185737
v -0.398685 0.018852 0.186135
v -0.398685 0.015095 0.186127
v -0.397504 0.015096 0.18573
v -0.398685 0.018852 0.186135
v -0.399912 0.018851 0.186489
v -0.399912 0.015095 0.186482
v -0.398685 0.015095 0.186127
v -0.399912 0.018851 0.186489
v -0.401191 0.01885 0.186798
v -0.401191 0.015094 0.18679
v -0.399912 0.015095 0.186482
v -0.401191 0.01885 0.186798
v -0.402529 0.01885 0.187058
v -0.402529 0.015094 0.187051
v -0.401191 0.015094 0.18679
v -0.402529 0.01885 0.187058
v -0.40393 0.018849 0.187267
v -0.40393 0.015093 0.187259
v -0.402529 0.015094 0.187051
v -0.40393 0.018849 0.187267
v -0.405403 0.018849 0.18742
v -0.405403 0.015093 0.187412
v -0.40393 0.015093 0.187259
v -0.405403 0.018849 0.18742
v -0.406951 0.018849 0.187514
v -0.406951 0.015093 0.187506
v -0.405403 0.015093 0.187412
v -0.406951 0.018849 0.187514
v -0.408583 0.018849 0.187545
v -0.408583 0.015093 0.187538
v -0.406951 0.015093 0.187506
v -0.408583 0.018849 0.187545
v -0.412402 0.018849 0.187298
v -0.412402 0.015093 0.18729
v -0.408583 0.015093 0.187538
v -0.412402 0.018849 0.187298
v -0.415854 0.018851 0.18659
v -0.415854 0.015095 0.186583
v -0.412402 0.015093 0.18729
v -0.415854 0.018851 0.18659
v -0.418943 0.018853 0.185479
v -0.418943 0.015097 0.185471
v -0.415854 0.015095 0.186583
v -0.418943 0.018853 0.185479
v -0.421678 0.018856 0.184016
v -0.421678 0.0151 0.184009
v -0.418943 0.015097 0.185471
v -0.421678 0.018856 0.184016
v -0.424065 0.01886 0.182259
v -0.424065 0.015104 0.182251
v -0.421678 0.0151 0.184009
v -0.424065 0.01886 0.182259
v -0.426111 0.018864 0.18026
v -0.426111 0.015108 0.180253
v -0.424065 0.015104 0.182251
v -0.426111 0.018864 0.18026
v -0.427824 0.018868 0.178075
v -0.427824 0.015112 0.178067
v -0.426111 0.015108 0.180253
v -0.427824 0.018868 0.178075
v -0.429209 0.018873 0.175758
v -0.429209 0.015117 0.17575
v -0.427824 0.015112 0.178067
v -0.429209 0.018873 0.175758
v -0.430274 0.018878 0.173364
v -0.430274 0.015122 0.173356
v -0.429209 0.015117 0.17575
v -0.430274 0.018878 0.173364
v -0.431027 0.018883 0.170946
v -0.431027 0.015127 0.170938
v -0.430274 0.015122 0.173356
v -0.431027 0.018883 0.170946
v -0.431473 0.018888 0.16856
v -0.431473 0.015132 0.168553
v -0.431027 0.015127 0.170938
v -0.431473 0.018888 0.16856
v -0.43162 0.018893 0.166261
v -0.43162 0.015137 0.166253
v -0.431473 0.015132 0.168553
v -0.43162 0.018893 0.166261
v -0.431419 0.0189 0.163082
v -0.431419 0.015144 0.163074
v -0.43162 0.015137 0.166253
v -0.431419 0.0189 0.163082
v -0.430829 0.018906 0.16007
v -0.430829 0.01515 0.160063
v -0.431419 0.015144 0.163074
v -0.430829 0.018906 0.16007
v -0.429872 0.018912 0.157246
v -0.429872 0.015156 0.157238
v -0.430829 0.01515 0.160063
v -0.429872 0.018912 0.157246
v -0.428569 0.018917 0.15463
v -0.428569 0.015161 0.154623
v -0.429872 0.015156 0.157238
v -0.428569 0.018917 0.15463
v -0.42694 0.018922 0.152245
v -0.42694 0.015166 0.152237
v -0.428569 0.015161 0.154623
v -0.42694 0.018922 0.152245
v -0.425008 0.018927 0.150109
v -0.425008 0.015171 0.150101
v -0.42694 0.015166 0.152237
v -0.425008 0.018927 0.150109
v -0.422792 0.018931 0.148245
v -0.422792 0.015175 0.148237
v -0.425008 0.015171 0.150101
v -0.422792 0.018931 0.148245
v -0.420315 0.018934 0.146673
v -0.420315 0.015178 0.146665
v -0.422792 0.015175 0.148237
v -0.420315 0.018934 0.146673
v -0.417596 0.018937 0.145414
v -0.417596 0.01518 0.145406
v -0.420315 0.015178 0.146665
v -0.417596 0.018937 0.145414
v -0.414658 0.018939 0.144489
v -0.414658 0.015182 0.144481
v -0.417596 0.01518 0.145406
v -0.414658 0.018939 0.144489
v -0.411521 0.01894 0.143918
v -0.411521 0.015184 0.143911
v -0.414658 0.015182 0.144481
v -0.411521 0.01894 0.143918
v -0.408207 0.01894 0.143724
v -0.408207 0.015184 0.143716
v -0.411521 0.015184 0.143911
v -0.408207 0.01894 0.143724
v -0.407109 0.01894 0.143746
v -0.407109 0.015184 0.143738
v -0.408207 0.015184 0.143716
v -0.407109 0.01894 0.143746
v -0.406005 0.01894 0.143814
v -0.406005 0.015184 0.143807
v -0.407109 0.015184 0.143738
v -0.406005 0.01894 0.143814
v -0.404888 0.01894 0.143928
v -0.404888 0.015184 0.14392
v -0.406005 0.015184 0.143807
v -0.404888 0.01894 0.143928
v -0.403755 0.018939 0.144091
v -0.403755 0.015183 0.144083
v -0.404888 0.015184 0.14392
v -0.403755 0.018939 0.144091
v -0.402602 0.018939 0.144301
v -0.402602 0.015183 0.144293
v -0.403755 0.015183 0.144083
v -0.402602 0.018939 0.144301
v -0.401422 0.018938 0.144561
v -0.401422 0.015182 0.144553
v -0.402602 0.015183 0.144293
v -0.401422 0.018938 0.144561
v -0.400213 0.018938 0.144873
v -0.400213 0.015182 0.144864
v -0.401422 0.015182 0.144553
v -0.400213 0.018938 0.144873
v -0.39897 0.018937 0.145235
v -0.39897 0.015181 0.145228
v -0.400213 0.015182 0.144864
v -0.39897 0.018937 0.145235
v -0.397687 0.018936 0.145652
v -0.397687 0.01518 0.145644
v -0.39897 0.015181 0.145228
v -0.397687 0.018936 0.145652
v -0.39636 0.018935 0.146123
v -0.39636 0.015179 0.146114
v -0.397687 0.01518 0.145644
v -0.39636 0.018935 0.146123
v -0.394985 0.018934 0.146648
v -0.394985 0.015178 0.14664
v -0.39636 0.015179 0.146114
v -0.394985 0.018934 0.146648
v -0.393558 0.018933 0.147229
v -0.393558 0.015177 0.147222
v -0.394985 0.015178 0.14664
v -0.393558 0.018933 0.147229
v -0.393558 0.018919 0.153803
v -0.393558 0.015163 0.153795
v -0.393558 0.015177 0.147222
v -0.393558 0.018919 0.153803
v -0.394858 0.018921 0.153071
v -0.394858 0.015164 0.153064
v -0.393558 0.015163 0.153795
vn -0 1 0.0017
vn -0 1 0.0023
vn -0 1 0.0023
vn -0 1 0.0017
vn -0 1 0.0022
vn -0 1 0.0023
vn -0 1 0.0017
vn -0 1 0.0023
vn -0 1 0.0022
vn 0.0001 1 0.0024
vn -0 1 0.0023
vn -0 1 0.0017
vn 0.0001 1 0.0024
vn -0 1 0.0022
vn -0 1 0.0023
vn 0.0001 1 0.0024
vn -0 1 0.0018
vn -0 1 0.0022
vn 0.0001 1 0.0024
vn -0 1 0.0019
vn -0 1 0.0018
vn -0 1 0.0024
vn -0 1 0.0019
vn 0.0001 1 0.0024
vn -0 1 0.0024
vn -0 1 0.0024
vn -0 1 0.0019
vn -0 1 0.0024
vn -0 1 0.002
vn -0 1 0.0024
vn -0 1 0.0024
vn -0 1 0.0021
vn -0 1 0.002
vn -0 1 0.002
vn -0 1 0.0021
vn -0 1 0.0024
vn -0 1 0.002
vn -0 1 0.0019
vn -0 1 0.0021
vn -0 1 0.002
vn -0 1 0.0025
vn -0 1 0.0019
vn -0 1 0.002
vn -0 1 0.002
vn -0 1 0.0025
vn -0 1 0.0011
vn -0 1 0.002
vn -0 1 0.002
vn -0 1 0.0011
vn -0.0001 1 0.001
vn -0 1 0.002
vn -0.0001 1 0.001
vn -0 1 0.0021
vn -0 1 0.002
vn -0 1 0.0021
vn -0 1 0.0023
vn -0 1 0.002
vn -0 1 0.0023
vn -0.0001 1 0.0018
vn -0 1 0.002
vn -0.0001 1 0.0018
vn -0 1 0.002
vn -0 1 0.002
vn -0 1 0.002
vn -0 1 0.0023
vn -0 1 0.002
vn -0 1 0.0023
vn -0 1 0.0022
vn -0 1 0.002
vn -0 1 0.0022
vn -0.0001 1 0.0021
vn -0 1 0.002
vn -0.0001 1 0.0021
vn -0.0002 1 0.002
vn -0 1 0.002
vn -0.0002 1 0.002
vn 0.0001 1 0.0021
vn -0 1 0.002
vn 0.0001 1 0.0021
vn 0.0003 1 0.0021
vn -0 1 0.002
vn -0 1 0.0023
vn -0 1 0.0022
vn -0 1 0.0011
vn -0 1 0.0022
vn -0.0001 1 0.0011
vn -0 1 0.0011
vn -0.0001 1 0.0011
vn -0.0001 1 0.001
vn -0 1 0.0011
vn -0 1 0.0023
vn -0 1 0.0023
vn -0 1 0.0022
vn -0 1 0.0023
vn -0 1 0.0021
vn -0 1 0.0023
vn -0 1 0.0023
vn -0 1 0.0021
vn -0 1 0.0021
vn -0.0001 1 0.0021
vn -0 1 0.0021
vn -0 1 0.0023
vn -0.0001 1 0.0021
vn -0.0001 1 0.002
vn -0 1 0.0021
vn -0.0001 1 0.0021
vn -0.0001 1 0.0017
vn -0.0001 1 0.002
vn -0 1 0.002
vn -0.0001 1 0.0017
vn -0.0001 1 0.0021
vn -0 1 0.002
vn -0.0001 1 0.0022
vn -0.0001 1 0.0017
vn -0 1 0.002
vn -0 1 0.0023
vn -0.0001 1 0.0022
vn -0 1 0.002
vn -0 1 0.0023
vn -0 1 0.002
vn -0 1 0.002
vn -0 1 0.0019
vn -0 1 0.0023
vn -0 1 0.002
vn -0 1 0.0019
vn -0 1 0.002
vn -0 1 0.002
vn -0 1 0.002
vn -0 1 0.0019
vn -0 1 0.002
vn -0 1 0.0021
vn -0 1 0.002
vn -0 1 0.0021
vn -0 1 0.0021
vn -0 1 0.002
vn -0 1 0.0021
vn -0 1 0.0022
vn -0 1 0.0021
vn -0 1 0.0022
vn -0 1 0.0022
vn -0 1 0.0021
vn -0 1 0.0022
vn -0 1 0.0022
vn -0 1 0.0022
vn -0 1 0.0022
vn -0 1 0.002
vn -0 1 0.0022
vn -0 1 0.0021
vn -0 1 0.002
vn -0 1 0.0022
vn -0 1 0.0021
vn -0.0001 1 0.0019
vn -0 1 0.002
vn -0.0001 1 0.0021
vn -0.0001 1 0.0019
vn -0 1 0.0021
vn -0.0001 1 0.0021
vn -0.0001 1 0.0021
vn -0.0001 1 0.0019
vn -0.0001 1 0.0021
vn -0.0001 1 0.0021
vn -0.0001 1 0.0021
vn -0.0001 1 0.0021
vn -0.0001 1 0.0023
vn -0.0001 1 0.0021
vn -0.0001 1 0.0022
vn -0.0001 1 0.0023
vn -0.0001 1 0.0021
vn -0.0001 1 0.0022
vn -0.0001 1 0.0021
vn -0.0001 1 0.0023
vn -0 1 0.0021
vn -0.0001 1 0.0021
vn -0.0001 1 0.0022
vn -0 1 0.0021
vn -0 1 0.0019
vn -0.0001 1 0.0021
vn -0.0004 1 0.0021
vn -0.0001 1 0.0024
vn -0.0004 1 0.0021
vn -0 1 0.0021
vn -0 1 0.0023
vn -0 1 0.0019
vn 0.0002 1 0.002
vn -0.0001 1 0.0024
vn -0.0004 1 0.0021
vn -0 1 0.0019
vn -0 1 0.0023
vn -0 1 0.0021
vn 0.0001 1 0.0019
vn -0.0001 1 0.0024
vn 0.0002 1 0.002
vn -0 1 0.0019
vn -0 1 0.0022
vn -0 1 0.0023
vn -0 1 0.0019
vn -0.0001 1 0.0024
vn 0.0001 1 0.0019
vn -0 1 0.0021
vn -0.0001 1 0.0024
vn -0 1 0.0019
vn -0 1 0.0019
vn -0 1 0.0018
vn -0 1 0.0022
vn -0.0001 1 0.0022
vn -0.0001 1 0.0024
vn -0 1 0.0021
vn -0 1 0.0021
vn -0 1 0.0018
vn -0 1 0.0019
vn -0 1 0.0019
vn -0.0001 1 0.0024
vn -0.0001 1 0.0022
vn -0 1 0.0021
vn -0 1 0.002
vn -0 1 0.0018
vn -0 1 0.002
vn -0.0001 1 0.0024
vn -0 1 0.0019
vn -0.0001 1 0.0024
vn -0.0001 1 0.0024
vn -0 1 0.002
vn -0 1 0.0021
vn -0 1 0.0022
vn -0 1 0.002
vn -0 1 0.0018
vn -0.0001 1 0.0024
vn -0.0001 1 0.0024
vn -0 1 0.0022
vn -0.0001 1 0.0024
vn -0 1 0.0018
vn -0 1 0.0021
vn -0 1 0.0017
vn -0 1 0.0022
vn -0 1 0.0017
vn -0.0001 1 0.0024
vn -0 1 0.0022
vn -0 1 0.0021
vn -0.0001 1 0.0024
vn -0 1 0.0017
vn -0 1 0.0023
vn -0.0001 1 0.0024
vn -0 1 0.0021
vn -0 1 0.0023
vn -0 1 0.0024
vn -0.0001 1 0.0024
vn -0 1 0.0023
vn -0 1 0.0024
vn -0 1 0.0023
vn -0 1 0.0023
vn -0 1 0.002
vn -0 1 0.0024
vn -0 1 0.0023
vn -0 1 0.0022
vn -0 1 0.002
vn -0 1 0.0023
vn -0 1 0.0021
vn -0 1 0.0022
vn -0 1 0.0018
vn -0 1 0.0021
vn -0 1 0.0023
vn -0 1 0.0018
vn -0 1 0.002
vn -0 1 0.0021
vn -0 1 0.0018
vn -0 1 0.0022
vn -0 1 0.002
vn -0 1 0.0018
vn -0 1 0.0023
vn -0 1 0.0022
vn -0 1 0.0026
vn -0 1 0.0023
vn -0 1 0.0018
vn -0 1 0.0026
vn -0 1 0.0019
vn -0 1 0.0023
vn -0 1 0.0026
vn -0 1 0.0019
vn -0 1 0.0019
vn -0 1 0.0026
vn -0 1 0.0022
vn -0 1 0.0019
vn -0 1 0.0019
vn -0 1 0.0022
vn -0 1 0.0026
vn -0 1 0.0019
vn -0 1 0.002
vn -0 1 0.0022
vn -0 -1 -0.0022
vn -0 -1 -0.002
vn -0 -1 -0.0023
vn -0 -1 -0.0022
vn -0 -1 -0.002
vn -0 -1 -0.0022
vn -0 -1 -0.0023
vn -0 -1 -0.002
vn -0 -1 -0.0022
vn -0 -1 -0.0023
vn -0 -1 -0.0022
vn -0 -1 -0.002
vn -0 -1 -0.0019
vn -0 -1 -0.0022
vn -0 -1 -0.0023
vn -0 -1 -0.002
vn -0 -1 -0.0022
vn -0 -1 -0.0019
vn -0 -1 -0.0018
vn -0 -1 -0.0022
vn -0 -1 -0.002
vn -0 -1 -0.0018
vn -0 -1 -0.0021
vn -0 -1 -0.0022
vn -0 -1 -0.0026
vn -0 -1 -0.0021
vn -0 -1 -0.0018
vn -0 -1 -0.0025
vn -0 -1 -0.0021
vn -0 -1 -0.0026
vn -0 -1 -0.0021
vn -0 -1 -0.0021
vn -0 -1 -0.0025
vn -0 -1 -0.0021
vn -0 -1 -0.0019
vn -0 -1 -0.0021
vn -0 -1 -0.0023
vn -0 -1 -0.0019
vn -0 -1 -0.0021
vn -0 -1 -0.0017
vn -0 -1 -0.0019
vn -0 -1 -0.0023
vn -0 -1 -0.0021
vn -0 -1 -0.0019
vn -0 -1 -0.0017
vn -0 -1 -0.0021
vn -0 -1 -0.0027
vn -0 -1 -0.0019
vn 0.0001 -1 -0.0029
vn -0 -1 -0.0027
vn -0 -1 -0.0021
vn -0.0001 -1 -0.0024
vn 0.0001 -1 -0.0029
vn -0 -1 -0.0021
vn -0 -1 -0.0023
vn -0.0001 -1 -0.0024
vn -0 -1 -0.0021
vn 0.0001 -1 -0.0018
vn -0 -1 -0.0023
vn -0 -1 -0.0021
vn -0 -1 -0.002
vn 0.0001 -1 -0.0018
vn -0 -1 -0.0021
vn -0 -1 -0.0023
vn -0 -1 -0.002
vn -0 -1 -0.0021
vn -0 -1 -0.0022
vn -0 -1 -0.0023
vn -0 -1 -0.0021
vn 0.0001 -1 -0.0021
vn -0 -1 -0.0022
vn -0 -1 -0.0021
vn -0.0001 -1 -0.0022
vn 0.0001 -1 -0.0021
vn -0 -1 -0.0021
vn 0.0001 -1 -0.0022
vn -0.0001 -1 -0.0022
vn -0 -1 -0.0021
vn 0.0001 -1 -0.0021
vn 0.0001 -1 -0.0022
vn -0 -1 -0.0021
vn -0 -1 -0.0023
vn -0 -1 -0.0023
vn -0 -1 -0.0027
vn 0.0001 -1 -0.0029
vn -0 -1 -0.0023
vn -0 -1 -0.0027
vn 0.0001 -1 -0.0029
vn 0.0001 -1 -0.0029
vn -0 -1 -0.0027
vn -0 -1 -0.0023
vn -0 -1 -0.0023
vn -0 -1 -0.0023
vn -0 -1 -0.002
vn -0 -1 -0.0023
vn -0 -1 -0.0023
vn -0 -1 -0.0021
vn -0 -1 -0.0023
vn -0 -1 -0.002
vn -0 -1 -0.0021
vn -0 -1 -0.0022
vn -0 -1 -0.0023
vn -0 -1 -0.0022
vn -0 -1 -0.0022
vn -0 -1 -0.0021
vn -0 -1 -0.0024
vn -0 -1 -0.0022
vn -0 -1 -0.0022
vn -0 -1 -0.0024
vn -0 -1 -0.002
vn -0 -1 -0.0022
vn 0.0001 -1 -0.0016
vn -0 -1 -0.002
vn -0 -1 -0.0024
vn -0 -1 -0.0023
vn -0 -1 -0.002
vn 0.0001 -1 -0.0016
vn -0 -1 -0.0023
vn -0 -1 -0.002
vn -0 -1 -0.002
vn -0 -1 -0.0019
vn -0 -1 -0.002
vn -0 -1 -0.0023
vn -0 -1 -0.0019
vn -0.0001 -1 -0.0021
vn -0 -1 -0.002
vn -0 -1 -0.0022
vn -0.0001 -1 -0.0021
vn -0 -1 -0.0019
vn -0.0001 -1 -0.0022
vn -0.0001 -1 -0.0021
vn -0 -1 -0.0022
vn -0.0001 -1 -0.0022
vn -0.0001 -1 -0.0021
vn -0.0001 -1 -0.0021
vn -0.0001 -1 -0.002
vn -0.0001 -1 -0.0021
vn -0.0001 -1 -0.0022
vn -0.0001 -1 -0.002
vn -0 -1 -0.0022
vn -0.0001 -1 -0.0021
vn -0 -1 -0.0022
vn -0 -1 -0.0022
vn -0.0001 -1 -0.002
vn -0 -1 -0.002
vn -0 -1 -0.0022
vn -0 -1 -0.0022
vn -0 -1 -0.002
vn -0 -1 -0.0021
vn -0 -1 -0.0022
vn -0 -1 -0.0022
vn -0 -1 -0.0021
vn -0 -1 -0.002
vn -0 -1 -0.0022
vn -0 -1 -0.0021
vn -0 -1 -0.0021
vn -0 -1 -0.0022
vn -0 -1 -0.0021
vn -0 -1 -0.0022
vn -0 -1 -0.0022
vn -0 -1 -0.0021
vn -0 -1 -0.0021
vn -0 -1 -0.0019
vn -0 -1 -0.0021
vn -0 -1 -0.0022
vn -0 -1 -0.0019
vn -0 -1 -0.0021
vn -0 -1 -0.0021
vn 0.0001 -1 -0.002
vn -0 -1 -0.0021
vn -0 -1 -0.0019
vn 0.0001 -1 -0.002
vn -0 -1 -0.0021
vn -0 -1 -0.0021
vn 0.0001 -1 -0.0023
vn -0 -1 -0.0021
vn 0.0001 -1 -0.002
vn -0 -1 -0.0021
vn -0.0001 -1 -0.0022
vn -0.0005 -1 -0.0021
vn -0 -1 -0.0019
vn -0 -1 -0.0021
vn 0.0001 -1 -0.0023
vn -0 -1 -0.0021
vn 0.0001 -1 -0.0021
vn -0.0001 -1 -0.0022
vn -0 -1 -0.0019
vn -0 -1 -0.0019
vn -0 -1 -0.0021
vn -0 -1 -0.0021
vn -0.0002 -1 -0.002
vn 0.0001 -1 -0.0021
vn -0 -1 -0.0022
vn -0 -1 -0.0019
vn -0 -1 -0.0019
vn -0 -1 -0.0021
vn -0.0001 -1 -0.0021
vn -0.0002 -1 -0.002
vn -0 -1 -0.0021
vn -0 -1 -0.0022
vn -0.0001 -1 -0.0021
vn -0.0001 -1 -0.0026
vn -0 -1 -0.0019
vn -0 -1 -0.0022
vn -0 -1 -0.0021
vn -0.0001 -1 -0.0019
vn -0 -1 -0.0022
vn -0.0001 -1 -0.0026
vn -0 -1 -0.0021
vn -0 -1 -0.0019
vn -0 -1 -0.0021
vn -0 -1 -0.0022
vn -0.0001 -1 -0.0019
vn -0 -1 -0.002
vn -0 -1 -0.0021
vn -0.0001 -1 -0.0026
vn -0 -1 -0.0021
vn -0 -1 -0.0021
vn -0 -1 -0.0022
vn -0 -1 -0.0021
vn -0 -1 -0.0019
vn -0 -1 -0.0021
vn -0 -1 -0.0022
vn -0 -1 -0.0021
vn -0 -1 -0.002
vn -0 -1 -0.0021
vn -0 -1 -0.0021
vn -0 -1 -0.0019
vn -0 -1 -0.0021
vn -0 -1 -0.0023
vn -0 -1 -0.0021
vn -0 -1 -0.0019
vn -0 -1 -0.0021
vn -0 -1 -0.0022
vn -0 -1 -0.0021
vn -0 -1 -0.0019
vn -0 -1 -0.0023
vn -0 -1 -0.0021
vn -0 -1 -0.0021
vn -0 -1 -0.0019
vn -0 -1 -0.0021
vn -0 -1 -0.0022
vn -0 -1 -0.0021
vn -0 -1 -0.0019
vn -0 -1 -0.0022
vn -0 -1 -0.0021
vn -0 -1 -0.0019
vn -0 -1 -0.002
vn -0 -1 -0.0022
vn -0 -1 -0.002
vn -0 -1 -0.002
vn -0 -1 -0.0019
vn -0 -1 -0.0022
vn -0 -1 -0.002
vn -0 -1 -0.002
vn -0 -1 -0.0024
vn -0 -1 -0.002
vn -0 -1 -0.0022
vn -0 -1 -0.0024
vn -0 -1 -0.0018
vn -0 -1 -0.002
vn -0.0001 -1 -0.0025
vn -0 -1 -0.0018
vn -0 -1 -0.0024
vn -0 -1 -0.002
vn -0 -1 -0.0018
vn -0.0001 -1 -0.0025
vn -0 -1 -0.0016
vn -0 -1 -0.0018
vn -0 -1 -0.002
vn -0 -1 -0.0016
vn -0 -1 -0.0021
vn -0 -1 -0.0018
vn -0 -1 -0.0019
vn -0 -1 -0.0021
vn -0 -1 -0.0016
vn -0 -1 -0.0019
vn -0 -1 -0.0021
vn -0 -1 -0.0019
vn -0 -1 -0.0024
vn -0 -1 -0.0021
vn -0 -1 -0.0019
vn -0 -1 -0.0024
vn -0 -1 -0.002
vn -0 -1 -0.0021
vn -0 -1 -0.0024
vn -0 -1 -0.002
vn -0 -1 -0.0024
vn -0.4764 -0.0017 0.8793
vn -0.4456 -0.0017 0.8952
vn -0.4456 -0.0017 0.8952
vn -0.4764 -0.0017 0.8792
vn -0.4456 -0.0017 0.8952
vn -0.4118 -0.0019 0.9113
vn -0.4118 -0.0019 0.9113
vn -0.4456 -0.0017 0.8952
vn -0.4118 -0.0019 0.9113
vn -0.3746 -0.002 0.9272
vn -0.3743 -0.0019 0.9273
vn -0.4118 -0.0019 0.9113
vn -0.3746 -0.002 0.9272
vn -0.3334 -0.002 0.9428
vn -0.3334 -0.002 0.9428
vn -0.3743 -0.0019 0.9273
vn -0.3334 -0.002 0.9428
vn -0.2894 -0.002 0.9572
vn -0.2894 -0.002 0.9572
vn -0.3334 -0.002 0.9428
vn -0.2894 -0.002 0.9572
vn -0.2432 -0.0019 0.97
vn -0.2432 -0.0019 0.97
vn -0.2894 -0.002 0.9572
vn -0.2432 -0.0019 0.97
vn -0.1953 -0.0021 0.9807
vn -0.1953 -0.0021 0.9807
vn -0.2432 -0.0019 0.97
vn -0.1953 -0.0021 0.9807
vn -0.146 -0.0023 0.9893
vn -0.146 -0.0023 0.9893
vn -0.1953 -0.0021 0.9807
vn -0.146 -0.0023 0.9893
vn -0.0966 -0.002 0.9953
vn -0.0966 -0.0023 0.9953
vn -0.146 -0.0023 0.9893
vn -0.0966 -0.002 0.9953
vn -0.0478 -0.0022 0.9989
vn -0.0478 -0.0022 0.9989
vn -0.0966 -0.0023 0.9953
vn -0.0478 -0.0022 0.9989
vn 0.0181 -0.0021 0.9998
vn 0.0181 -0.0021 0.9998
vn -0.0478 -0.0022 0.9989
vn 0.0181 -0.0021 0.9998
vn 0.1202 -0.0021 0.9927
vn 0.1202 -0.0021 0.9927
vn 0.0181 -0.0021 0.9998
vn 0.1202 -0.0021 0.9927
vn 0.2416 -0.002 0.9704
vn 0.2416 -0.002 0.9704
vn 0.1202 -0.0021 0.9927
vn 0.2416 -0.002 0.9704
vn 0.3623 -0.0019 0.9321
vn 0.3623 -0.0019 0.9321
vn 0.2416 -0.002 0.9704
vn 0.3623 -0.0019 0.9321
vn 0.4794 -0.0018 0.8776
vn 0.4794 -0.0018 0.8776
vn 0.3623 -0.0019 0.9321
vn 0.4794 -0.0018 0.8776
vn 0.5902 -0.0017 0.8072
vn 0.5902 -0.0017 0.8072
vn 0.4794 -0.0018 0.8776
vn 0.5902 -0.0017 0.8072
vn 0.6922 -0.0015 0.7217
vn 0.6922 -0.0015 0.7217
vn 0.5902 -0.0017 0.8072
vn 0.6922 -0.0015 0.7217
vn 0.783 -0.0013 0.622
vn 0.783 -0.0013 0.622
vn 0.6922 -0.0015 0.7217
vn 0.783 -0.0013 0.622
vn 0.8599 -0.0011 0.5105
vn 0.8599 -0.0011 0.5105
vn 0.783 -0.0013 0.622
vn 0.8599 -0.0011 0.5105
vn 0.9212 -0.0008 0.3892
vn 0.9212 -0.0008 0.3892
vn 0.8599 -0.0011 0.5105
vn 0.9212 -0.0008 0.3892
vn 0.9652 -0.0006 0.2615
vn 0.9652 -0.0006 0.2615
vn 0.9212 -0.0008 0.3892
vn 0.9652 -0.0006 0.2615
vn 0.9915 -0.0003 0.1304
vn 0.9915 -0.0003 0.1304
vn 0.9652 -0.0006 0.2615
vn 0.9915 -0.0003 0.1304
vn 1 -0 0.0016
vn 1 -0 0.0016
vn 0.9915 -0.0003 0.1304
vn 1 -0 0.0016
vn 0.992 0.0004 -0.1259
vn 0.9921 0.0003 -0.1255
vn 1 -0 0.0016
vn 0.992 0.0004 -0.1259
vn 0.967 0.0005 -0.2546
vn 0.967 0.0005 -0.2546
vn 0.9921 0.0003 -0.1255
vn 0.967 0.0005 -0.2546
vn 0.9233 0.0008 -0.384
vn 0.9233 0.0008 -0.384
vn 0.967 0.0005 -0.2546
vn 0.9233 0.0008 -0.384
vn 0.8608 0.001 -0.5089
vn 0.8608 0.001 -0.5089
vn 0.9233 0.0008 -0.384
vn 0.8608 0.001 -0.5089
vn 0.7809 0.0012 -0.6247
vn 0.7809 0.0012 -0.6247
vn 0.8608 0.001 -0.5089
vn 0.7809 0.0012 -0.6247
vn 0.6854 0.0016 -0.7282
vn 0.6854 0.0016 -0.7282
vn 0.7809 0.0012 -0.6247
vn 0.6854 0.0016 -0.7282
vn 0.5782 0.0018 -0.8159
vn 0.5783 0.0018 -0.8158
vn 0.6854 0.0016 -0.7282
vn 0.5782 0.0018 -0.8159
vn 0.4637 0.0019 -0.886
vn 0.4637 0.0019 -0.886
vn 0.5783 0.0018 -0.8158
vn 0.4637 0.0019 -0.886
vn 0.3455 0.002 -0.9384
vn 0.3455 0.002 -0.9384
vn 0.4637 0.0019 -0.886
vn 0.3455 0.002 -0.9384
vn 0.2269 0.0021 -0.9739
vn 0.2269 0.0021 -0.9739
vn 0.3455 0.002 -0.9384
vn 0.2269 0.0021 -0.9739
vn 0.1111 0.0021 -0.9938
vn 0.1111 0.0021 -0.9938
vn 0.2269 0.0021 -0.9739
vn 0.1111 0.0021 -0.9938
vn 0.0128 0.0021 -0.9999
vn 0.0128 0.0021 -0.9999
vn 0.1111 0.0021 -0.9938
vn 0.0128 0.0021 -0.9999
vn -0.0566 0.0021 -0.9984
vn -0.0573 0.002 -0.9984
vn 0.0128 0.0021 -0.9999
vn -0.0566 0.0021 -0.9984
vn -0.1116 0.0021 -0.9937
vn -0.1116 0.0021 -0.9937
vn -0.0573 0.002 -0.9984
vn -0.1116 0.0021 -0.9937
vn -0.1638 0.0021 -0.9865
vn -0.1638 0.0021 -0.9865
vn -0.1116 0.0021 -0.9937
vn -0.1638 0.0021 -0.9865
vn -0.2138 0.0021 -0.9769
vn -0.2138 0.0021 -0.9769
vn -0.1638 0.0021 -0.9865
vn -0.2138 0.0021 -0.9769
vn -0.2618 0.0021 -0.9651
vn -0.2618 0.0021 -0.9651
vn -0.2138 0.0021 -0.9769
vn -0.2618 0.0021 -0.9651
vn -0.307 0.002 -0.9517
vn -0.3074 0.002 -0.9516
vn -0.2618 0.0021 -0.9651
vn -0.307 0.002 -0.9517
vn -0.3509 0.002 -0.9364
vn -0.3509 0.002 -0.9364
vn -0.3074 0.002 -0.9516
vn -0.3509 0.002 -0.9364
vn -0.3928 0.002 -0.9196
vn -0.3928 0.002 -0.9196
vn -0.3509 0.002 -0.9364
vn -0.3928 0.002 -0.9196
vn -0.4328 0.0019 -0.9015
vn -0.4328 0.0019 -0.9015
vn -0.3928 0.002 -0.9196
vn -0.4328 0.0019 -0.9015
vn -0.4716 0.0019 -0.8818
vn -0.4716 0.0019 -0.8818
vn -0.4328 0.0019 -0.9015
vn -0.4716 0.0019 -0.8818
vn -0.5089 0.0018 -0.8608
vn -0.5089 0.0018 -0.8608
vn -0.4716 0.0019 -0.8818
vn -0.5089 0.0018 -0.8608
vn 0.4865 0.0019 -0.8737
vn 0.4866 0.0019 -0.8737
vn -0.5089 0.0018 -0.8608
vn 0.4865 0.0019 -0.8737
vn 0.8518 -0.0011 0.5238
vn 0.8518 -0.0011 0.5239
vn 0.4866 0.0019 -0.8737
vn 0.8518 -0.0011 0.5238
vn 0.4375 -0.0019 0.8992
vn 0.4375 -0.0019 0.8992
vn 0.8518 -0.0011 0.5239
vn 0.4375 -0.0019 0.8992
vn 0.4081 -0.0019 0.9129
vn 0.4078 -0.0019 0.9131
vn 0.4375 -0.0019 0.8992
vn 0.4081 -0.0019 0.9129
vn 0.3748 -0.0019 0.9271
vn 0.3748 -0.0019 0.9271
vn 0.4078 -0.0019 0.9131
vn 0.3748 -0.0019 0.9271
vn 0.3379 -0.0019 0.9412
vn 0.3382 -0.0019 0.9411
vn 0.3748 -0.0019 0.9271
vn 0.3379 -0.0019 0.9412
vn 0.2984 -0.0019 0.9545
vn 0.2984 -0.0019 0.9545
vn 0.3382 -0.0019 0.9411
vn 0.2984 -0.0019 0.9545
vn 0.2561 -0.0019 0.9666
vn 0.2561 -0.0019 0.9667
vn 0.2984 -0.0019 0.9545
vn 0.2561 -0.0019 0.9666
vn 0.2133 -0.0021 0.977
vn 0.2132 -0.0021 0.977
vn 0.2561 -0.0019 0.9667
vn 0.2133 -0.0021 0.977
vn 0.1689 -0.002 0.9856
vn 0.1692 -0.002 0.9856
vn 0.2132 -0.0021 0.977
vn 0.1689 -0.002 0.9856
vn 0.1253 -0.002 0.9921
vn 0.1253 -0.002 0.9921
vn 0.1692 -0.002 0.9856
vn 0.1253 -0.002 0.9921
vn 0.082 -0.0021 0.9966
vn 0.082 -0.0021 0.9966
vn 0.1253 -0.002 0.9921
vn 0.082 -0.0021 0.9966
vn 0.04 -0.0021 0.9992
vn 0.0403 -0.0019 0.9992
vn 0.082 -0.0021 0.9966
vn 0.04 -0.0021 0.9992
vn -0.0227 -0.002 0.9997
vn -0.0224 -0.002 0.9997
vn 0.0403 -0.0019 0.9992
vn -0.0227 -0.002 0.9997
vn -0.133 -0.002 0.9911
vn -0.133 -0.002 0.9911
vn -0.0224 -0.002 0.9997
vn -0.133 -0.002 0.9911
vn -0.2704 -0.0019 0.9628
vn -0.2704 -0.0019 0.9628
vn -0.133 -0.002 0.9911
vn -0.2704 -0.0019 0.9628
vn -0.4061 -0.0018 0.9138
vn -0.4061 -0.0018 0.9138
vn -0.2704 -0.0019 0.9628
vn -0.4061 -0.0018 0.9138
vn -0.5336 -0.0017 0.8457
vn -0.5336 -0.0017 0.8457
vn -0.4061 -0.0018 0.9138
vn -0.5336 -0.0017 0.8457
vn -0.6474 -0.0015 0.7622
vn -0.6474 -0.0015 0.7622
vn -0.5336 -0.0017 0.8457
vn -0.6474 -0.0015 0.7622
vn -0.7445 -0.0013 0.6676
vn -0.7445 -0.0013 0.6676
vn -0.6474 -0.0015 0.7622
vn -0.7445 -0.0013 0.6676
vn -0.8246 -0.0013 0.5657
vn -0.8243 -0.0012 0.5661
vn -0.7445 -0.0013 0.6676
vn -0.8246 -0.0013 0.5657
vn -0.8876 -0.001 0.4606
vn -0.8876 -0.001 0.4606
vn -0.8243 -0.0012 0.5661
vn -0.8876 -0.001 0.4606
vn -0.9358 -0.0008 0.3525
vn -0.9358 -0.0008 0.3525
vn -0.8876 -0.001 0.4606
vn -0.9358 -0.0008 0.3525
vn -0.9705 -0.0005 0.241
vn -0.9705 -0.0005 0.241
vn -0.9358 -0.0008 0.3525
vn -0.9705 -0.0005 0.241
vn -0.9923 -0.0002 0.124
vn -0.9923 -0.0002 0.124
vn -0.9705 -0.0005 0.241
vn -0.9923 -0.0002 0.124
vn -1 -0 0.0003
vn -1 -0 0.0004
vn -0.9923 -0.0002 0.124
vn -1 -0 0.0003
vn -0.9918 0.0003 -0.128
vn -0.9918 0.0003 -0.128
vn -1 -0 0.0004
vn -0.9918 0.0003 -0.128
vn -0.9664 0.0005 -0.2572
vn -0.9664 0.0005 -0.2571
vn -0.9918 0.0003 -0.128
vn -0.9664 0.0005 -0.2572
vn -0.9232 0.0008 -0.3843
vn -0.9232 0.0008 -0.3843
vn -0.9664 0.0005 -0.2571
vn -0.9232 0.0008 -0.3843
vn -0.8625 0.001 -0.5061
vn -0.8625 0.001 -0.5061
vn -0.9232 0.0008 -0.3843
vn -0.8625 0.001 -0.5061
vn -0.7855 0.0013 -0.6188
vn -0.7856 0.0013 -0.6188
vn -0.8625 0.001 -0.5061
vn -0.7855 0.0013 -0.6188
vn -0.6943 0.0015 -0.7197
vn -0.6943 0.0015 -0.7197
vn -0.7856 0.0013 -0.6188
vn -0.6943 0.0015 -0.7197
vn -0.5911 0.0017 -0.8066
vn -0.5911 0.0017 -0.8066
vn -0.6943 0.0015 -0.7197
vn -0.5911 0.0017 -0.8066
vn -0.4791 0.0019 -0.8778
vn -0.479 0.0019 -0.8778
vn -0.5911 0.0017 -0.8066
vn -0.4791 0.0019 -0.8778
vn -0.361 0.002 -0.9326
vn -0.361 0.002 -0.9326
vn -0.479 0.0019 -0.8778
vn -0.361 0.002 -0.9326
vn -0.2401 0.002 -0.9707
vn -0.2401 0.002 -0.9707
vn -0.361 0.002 -0.9326
vn -0.2401 0.002 -0.9707
vn -0.119 0.002 -0.9929
vn -0.119 0.002 -0.9929
vn -0.2401 0.002 -0.9707
vn -0.119 0.002 -0.9929
vn -0.0193 0.0021 -0.9998
vn -0.0193 0.0021 -0.9998
vn -0.119 0.002 -0.9929
vn -0.0193 0.0021 -0.9998
vn 0.041 0.0021 -0.9992
vn 0.041 0.0021 -0.9992
vn -0.0193 0.0021 -0.9998
vn 0.041 0.0021 -0.9992
vn 0.0815 0.002 -0.9967
vn 0.0815 0.002 -0.9967
vn 0.041 0.0021 -0.9992
vn 0.0815 0.002 -0.9967
vn 0.1218 0.002 -0.9926
vn 0.1218 0.002 -0.9926
vn 0.0815 0.002 -0.9967
vn 0.1218 0.002 -0.9926
vn 0.1608 0.0021 -0.987
vn 0.1608 0.0021 -0.987
vn 0.1218 0.002 -0.9926
vn 0.1608 0.0021 -0.987
vn 0.1972 0.0021 -0.9804
vn 0.1977 0.0021 -0.9803
vn 0.1608 0.0021 -0.987
vn 0.1972 0.0021 -0.9804
vn 0.2324 0.0021 -0.9726
vn 0.2324 0.0021 -0.9726
vn 0.1977 0.0021 -0.9803
vn 0.2324 0.0021 -0.9726
vn 0.265 0.0021 -0.9643
vn 0.265 0.0021 -0.9643
vn 0.2324 0.0021 -0.9726
vn 0.265 0.0021 -0.9643
vn 0.2946 0.002 -0.9556
vn 0.2946 0.002 -0.9556
vn 0.265 0.0021 -0.9643
vn 0.2946 0.002 -0.9556
vn 0.3215 0.002 -0.9469
vn 0.3215 0.002 -0.9469
vn 0.2946 0.002 -0.9556
vn 0.3215 0.002 -0.9469
vn 0.3456 0.0021 -0.9384
vn 0.3456 0.0021 -0.9384
vn 0.3215 0.002 -0.9469
vn 0.3456 0.0021 -0.9384
vn 0.3672 0.002 -0.9301
vn 0.3672 0.002 -0.9301
vn 0.3456 0.0021 -0.9384
vn 0.3672 0.002 -0.9301
vn 0.8298 0.0011 -0.558
vn 0.8299 0.0011 -0.5579
vn 0.3672 0.002 -0.9301
vn 0.8298 0.0011 -0.558
vn 0.5046 -0.0017 0.8633
vn 0.5046 -0.0017 0.8633
vn 0.8299 0.0011 -0.5579
vn 0.5046 -0.0017 0.8633
vn -0.4764 -0.0017 0.8793
vn -0.4764 -0.0017 0.8792
vn 0.5046 -0.0017 0.8633
vt 0.85567 1
vt 0.876289 1
vt 0.865979 1
vt 0.85567 1
vt 0.886598 1
vt 0.876289 1
vt 0.85567 1
vt 0.896907 1
vt 0.886598 1
vt 0.845361 1
vt 0.896907 1
vt 0.85567 1
vt 0.845361 1
vt 0.907216 1
vt 0.896907 1
vt 0.845361 1
vt 0.917526 1
vt 0.907216 1
vt 0.845361 1
vt 0.927835 1
vt 0.917526 1
vt 0.835052 1
vt 0.927835 1
vt 0.845361 1
vt 0.835052 1
vt 0.938144 1
vt 0.927835 1
vt 0.835052 1
vt 0.948454 1
vt 0.938144 1
vt 0.835052 1
vt 0.958763 1
vt 0.948454 1
vt 0.824742 1
vt 0.958763 1
vt 0.835052 1
vt 0.824742 1
vt 0.969072 1
vt 0.958763 1
vt 0.824742 1
vt 0.979381 1
vt 0.969072 1
vt 0.824742 1
vt 0.989691 1
vt 0.979381 1
vt 0.814433 1
vt 0.989691 1
vt 0.824742 1
vt 0.814433 1
vt 0.092784 1
vt 0.989691 1
vt 0.092784 1
vt 0.082474 1
vt 0.989691 1
vt 0.082474 1
vt 0.072165 1
vt 0.989691 1
vt 0.072165 1
vt 0.061856 1
vt 0.989691 1
vt 0.061856 1
vt 0.051546 1
vt 0.989691 1
vt 0.051546 1
vt 0.041237 1
vt 0.989691 1
vt 0.041237 1
vt 0.030928 1
vt 0.989691 1
vt 0.030928 1
vt 0.020619 1
vt 0.989691 1
vt 0.020619 1
vt 0.010309 1
vt 0.989691 1
vt 0.010309 1
vt 0 1
vt 0.989691 1
vt 0 1
vt 1 1
vt 0.989691 1
vt 0.804124 1
vt 0.113402 1
vt 0.814433 1
vt 0.113402 1
vt 0.103093 1
vt 0.814433 1
vt 0.103093 1
vt 0.092784 1
vt 0.814433 1
vt 0.804124 1
vt 0.123711 1
vt 0.113402 1
vt 0.804124 1
vt 0.134021 1
vt 0.123711 1
vt 0.804124 1
vt 0.14433 1
vt 0.134021 1
vt 0.793814 1
vt 0.14433 1
vt 0.804124 1
vt 0.793814 1
vt 0.154639 1
vt 0.14433 1
vt 0.793814 1
vt 0.164948 1
vt 0.154639 1
vt 0.783505 1
vt 0.164948 1
vt 0.793814 1
vt 0.783505 1
vt 0.175258 1
vt 0.164948 1
vt 0.783505 1
vt 0.185567 1
vt 0.175258 1
vt 0.773196 1
vt 0.185567 1
vt 0.783505 1
vt 0.773196 1
vt 0.195876 1
vt 0.185567 1
vt 0.762887 1
vt 0.195876 1
vt 0.773196 1
vt 0.762887 1
vt 0.206186 1
vt 0.195876 1
vt 0.762887 1
vt 0.216495 1
vt 0.206186 1
vt 0.752577 1
vt 0.216495 1
vt 0.762887 1
vt 0.752577 1
vt 0.226804 1
vt 0.216495 1
vt 0.742268 1
vt 0.226804 1
vt 0.752577 1
vt 0.742268 1
vt 0.237113 1
vt 0.226804 1
vt 0.742268 1
vt 0.247423 1
vt 0.237113 1
vt 0.731959 1
vt 0.247423 1
vt 0.742268 1
vt 0.731959 1
vt 0.257732 1
vt 0.247423 1
vt 0.721649 1
vt 0.257732 1
vt 0.731959 1
vt 0.721649 1
vt 0.268041 1
vt 0.257732 1
vt 0.71134 1
vt 0.268041 1
vt 0.721649 1
vt 0.71134 1
vt 0.278351 1
vt 0.268041 1
vt 0.701031 1
vt 0.278351 1
vt 0.71134 1
vt 0.701031 1
vt 0.28866 1
vt 0.278351 1
vt 0.690722 1
vt 0.28866 1
vt 0.701031 1
vt 0.690722 1
vt 0.298969 1
vt 0.28866 1
vt 0.474227 1
vt 0.494845 1
vt 0.484536 1
vt 0.690722 1
vt 0.309278 1
vt 0.298969 1
vt 0.463918 1
vt 0.494845 1
vt 0.474227 1
vt 0.680412 1
vt 0.309278 1
vt 0.690722 1
vt 0.453608 1
vt 0.494845 1
vt 0.463918 1
vt 0.680412 1
vt 0.319588 1
vt 0.309278 1
vt 0.443299 1
vt 0.494845 1
vt 0.453608 1
vt 0.43299 1
vt 0.494845 1
vt 0.443299 1
vt 0.680412 1
vt 0.329897 1
vt 0.319588 1
vt 0.42268 1
vt 0.494845 1
vt 0.43299 1
vt 0.670103 1
vt 0.329897 1
vt 0.680412 1
vt 0.412371 1
vt 0.494845 1
vt 0.42268 1
vt 0.670103 1
vt 0.340206 1
vt 0.329897 1
vt 0.402062 1
vt 0.494845 1
vt 0.412371 1
vt 0.391753 1
vt 0.494845 1
vt 0.402062 1
vt 0.670103 1
vt 0.350515 1
vt 0.340206 1
vt 0.381443 1
vt 0.494845 1
vt 0.391753 1
vt 0.371134 1
vt 0.494845 1
vt 0.381443 1
vt 0.670103 1
vt 0.360825 1
vt 0.350515 1
vt 0.360825 1
vt 0.494845 1
vt 0.371134 1
vt 0.670103 1
vt 0.494845 1
vt 0.360825 1
vt 0.659794 1
vt 0.494845 1
vt 0.670103 1
vt 0.659794 1
vt 0.505155 1
vt 0.494845 1
vt 0.649485 1
vt 0.505155 1
vt 0.659794 1
vt 0.649485 1
vt 0.515464 1
vt 0.505155 1
vt 0.649485 1
vt 0.525773 1
vt 0.515464 1
vt 0.649485 1
vt 0.536082 1
vt 0.525773 1
vt 0.639175 1
vt 0.536082 1
vt 0.649485 1
vt 0.639175 1
vt 0.546392 1
vt 0.536082 1
vt 0.639175 1
vt 0.556701 1
vt 0.546392 1
vt 0.639175 1
vt 0.56701 1
vt 0.556701 1
vt 0.628866 1
vt 0.56701 1
vt 0.639175 1
vt 0.628866 1
vt 0.57732 1
vt 0.56701 1
vt 0.628866 1
vt 0.587629 1
vt 0.57732 1
vt 0.628866 1
vt 0.597938 1
vt 0.587629 1
vt 0.618557 1
vt 0.597938 1
vt 0.628866 1
vt 0.618557 1
vt 0.608247 1
vt 0.597938 1
vt 0.876289 1
vt 0.85567 1
vt 0.865979 1
vt 0.886598 1
vt 0.85567 1
vt 0.876289 1
vt 0.896907 1
vt 0.85567 1
vt 0.886598 1
vt 0.896907 1
vt 0.845361 1
vt 0.85567 1
vt 0.907216 1
vt 0.845361 1
vt 0.896907 1
vt 0.917526 1
vt 0.845361 1
vt 0.907216 1
vt 0.927835 1
vt 0.845361 1
vt 0.917526 1
vt 0.927835 1
vt 0.835052 1
vt 0.845361 1
vt 0.938144 1
vt 0.835052 1
vt 0.927835 1
vt 0.948454 1
vt 0.835052 1
vt 0.938144 1
vt 0.958763 1
vt 0.835052 1
vt 0.948454 1
vt 0.958763 1
vt 0.824742 1
vt 0.835052 1
vt 0.969072 1
vt 0.824742 1
vt 0.958763 1
vt 0.979381 1
vt 0.824742 1
vt 0.969072 1
vt 0.989691 1
vt 0.824742 1
vt 0.979381 1
vt 0.989691 1
vt 0.814433 1
vt 0.824742 1
vt 0.092784 1
vt 0.814433 1
vt 0.989691 1
vt 0.082474 1
vt 0.092784 1
vt 0.989691 1
vt 0.072165 1
vt 0.082474 1
vt 0.989691 1
vt 0.061856 1
vt 0.072165 1
vt 0.989691 1
vt 0.051546 1
vt 0.061856 1
vt 0.989691 1
vt 0.041237 1
vt 0.051546 1
vt 0.989691 1
vt 0.030928 1
vt 0.041237 1
vt 0.989691 1
vt 0.020619 1
vt 0.030928 1
vt 0.989691 1
vt 0.010309 1
vt 0.020619 1
vt 0.989691 1
vt 0 1
vt 0.010309 1
vt 0.989691 1
vt 1 1
vt 0 1
vt 0.989691 1
vt 0.113402 1
vt 0.804124 1
vt 0.814433 1
vt 0.103093 1
vt 0.113402 1
vt 0.814433 1
vt 0.092784 1
vt 0.103093 1
vt 0.814433 1
vt 0.123711 1
vt 0.804124 1
vt 0.113402 1
vt 0.134021 1
vt 0.804124 1
vt 0.123711 1
vt 0.14433 1
vt 0.804124 1
vt 0.134021 1
vt 0.14433 1
vt 0.793814 1
vt 0.804124 1
vt 0.154639 1
vt 0.793814 1
vt 0.14433 1
vt 0.164948 1
vt 0.793814 1
vt 0.154639 1
vt 0.164948 1
vt 0.783505 1
vt 0.793814 1
vt 0.175258 1
vt 0.783505 1
vt 0.164948 1
vt 0.185567 1
vt 0.783505 1
vt 0.175258 1
vt 0.185567 1
vt 0.773196 1
vt 0.783505 1
vt 0.195876 1
vt 0.773196 1
vt 0.185567 1
vt 0.195876 1
vt 0.762887 1
vt 0.773196 1
vt 0.206186 1
vt 0.762887 1
vt 0.195876 1
vt 0.216495 1
vt 0.762887 1
vt 0.206186 1
vt 0.216495 1
vt 0.752577 1
vt 0.762887 1
vt 0.226804 1
vt 0.752577 1
vt 0.216495 1
vt 0.226804 1
vt 0.742268 1
vt 0.752577 1
vt 0.237113 1
vt 0.742268 1
vt 0.226804 1
vt 0.247423 1
vt 0.742268 1
vt 0.237113 1
vt 0.247423 1
vt 0.731959 1
vt 0.742268 1
vt 0.257732 1
vt 0.731959 1
vt 0.247423 1
vt 0.257732 1
vt 0.721649 1
vt 0.731959 1
vt 0.268041 1
vt 0.721649 1
vt 0.257732 1
vt 0.268041 1
vt 0.71134 1
vt 0.721649 1
vt 0.278351 1
vt 0.71134 1
vt 0.268041 1
vt 0.278351 1
vt 0.701031 1
vt 0.71134 1
vt 0.28866 1
vt 0.701031 1
vt 0.278351 1
vt 0.28866 1
vt 0.690722 1
vt 0.701031 1
vt 0.298969 1
vt 0.690722 1
vt 0.28866 1
vt 0.494845 1
vt 0.474227 1
vt 0.484536 1
vt 0.309278 1
vt 0.690722 1
vt 0.298969 1
vt 0.494845 1
vt 0.463918 1
vt 0.474227 1
vt 0.309278 1
vt 0.680412 1
vt 0.690722 1
vt 0.494845 1
vt 0.453608 1
vt 0.463918 1
vt 0.319588 1
vt 0.680412 1
vt 0.309278 1
vt 0.494845 1
vt 0.443299 1
vt 0.453608 1
vt 0.494845 1
vt 0.43299 1
vt 0.443299 1
vt 0.329897 1
vt 0.680412 1
vt 0.319588 1
vt 0.494845 1
vt 0.42268 1
vt 0.43299 1
vt 0.329897 1
vt 0.670103 1
vt 0.680412 1
vt 0.494845 1
vt 0.412371 1
vt 0.42268 1
vt 0.340206 1
vt 0.670103 1
vt 0.329897 1
vt 0.494845 1
vt 0.402062 1
vt 0.412371 1
vt 0.494845 1
vt 0.391753 1
vt 0.402062 1
vt 0.350515 1
vt 0.670103 1
vt 0.340206 1
vt 0.494845 1
vt 0.381443 1
vt 0.391753 1
vt 0.494845 1
vt 0.371134 1
vt 0.381443 1
vt 0.360825 1
vt 0.670103 1
vt 0.350515 1
vt 0.494845 1
vt 0.360825 1
vt 0.371134 1
vt 0.494845 1
vt 0.670103 1
vt 0.360825 1
vt 0.494845 1
vt 0.659794 1
vt 0.670103 1
vt 0.505155 1
vt 0.659794 1
vt 0.494845 1
vt 0.505155 1
vt 0.649485 1
vt 0.659794 1
vt 0.515464 1
vt 0.649485 1
vt 0.505155 1
vt 0.525773 1
vt 0.649485 1
vt 0.515464 1
vt 0.536082 1
vt 0.649485 1
vt 0.525773 1
vt 0.536082 1
vt 0.639175 1
vt 0.649485 1
vt 0.546392 1
vt 0.639175 1
vt 0.536082 1
vt 0.556701 1
vt 0.639175 1
vt 0.546392 1
vt 0.56701 1
vt 0.639175 1
vt 0.556701 1
vt 0.56701 1
vt 0.628866 1
vt 0.639175 1
vt 0.57732 1
vt 0.628866 1
vt 0.56701 1
vt 0.587629 1
vt 0.628866 1
vt 0.57732 1
vt 0.597938 1
vt 0.628866 1
vt 0.587629 1
vt 0.597938 1
vt 0.618557 1
vt 0.628866 1
vt 0.608247 1
vt 0.618557 1
vt 0.597938 1
vt 0 0
vt 0.010204 0
vt 0.010204 1
vt 0 1
vt 0.010204 0
vt 0.020408 0
vt 0.020408 1
vt 0.010204 1
vt 0.020408 0
vt 0.030612 0
vt 0.030612 1
vt 0.020408 1
vt 0.030612 0
vt 0.040816 0
vt 0.040816 1
vt 0.030612 1
vt 0.040816 0
vt 0.05102 0
vt 0.05102 1
vt 0.040816 1
vt 0.05102 0
vt 0.061224 0
vt 0.061224 1
vt 0.05102 1
vt 0.061224 0
vt 0.071429 0
vt 0.071429 1
vt 0.061224 1
vt 0.071429 0
vt 0.081633 0
vt 0.081633 1
vt 0.071429 1
vt 0.081633 0
vt 0.091837 0
vt 0.091837 1
vt 0.081633 1
vt 0.091837 0
vt 0.102041 0
vt 0.102041 1
vt 0.091837 1
vt 0.102041 0
vt 0.112245 0
vt 0.112245 1
vt 0.102041 1
vt 0.112245 0
vt 0.122449 0
vt 0.122449 1
vt 0.112245 1
vt 0.122449 0
vt 0.132653 0
vt 0.132653 1
vt 0.122449 1
vt 0.132653 0
vt 0.142857 0
vt 0.142857 1
vt 0.132653 1
vt 0.142857 0
vt 0.153061 0
vt 0.153061 1
vt 0.142857 1
vt 0.153061 0
vt 0.163265 0
vt 0.163265 1
vt 0.153061 1
vt 0.163265 0
vt 0.173469 0
vt 0.173469 1
vt 0.163265 1
vt 0.173469 0
vt 0.183673 0
vt 0.183673 1
vt 0.173469 1
vt 0.183673 0
vt 0.193878 0
vt 0.193878 1
vt 0.183673 1
vt 0.193878 0
vt 0.204082 0
vt 0.204082 1
vt 0.193878 1
vt 0.204082 0
vt 0.214286 0
vt 0.214286 1
vt 0.204082 1
vt 0.214286 0
vt 0.22449 0
vt 0.22449 1
vt 0.214286 1
vt 0.22449 0
vt 0.234694 0
vt 0.234694 1
vt 0.22449 1
vt 0.234694 0
vt 0.244898 0
vt 0.244898 1
vt 0.234694 1
vt 0.244898 0
vt 0.255102 0
vt 0.255102 1
vt 0.244898 1
vt 0.255102 0
vt 0.265306 0
vt 0.265306 1
vt 0.255102 1
vt 0.265306 0
vt 0.27551 0
vt 0.27551 1
vt 0.265306 1
vt 0.27551 0
vt 0.285714 0
vt 0.285714 1
vt 0.27551 1
vt 0.285714 0
vt 0.295918 0
vt 0.295918 1
vt 0.285714 1
vt 0.295918 0
vt 0.306122 0
vt 0.306122 1
vt 0.295918 1
vt 0.306122 0
vt 0.316327 0
vt 0.316327 1
vt 0.306122 1
vt 0.316327 0
vt 0.326531 0
vt 0.326531 1
vt 0.316327 1
vt 0.326531 0
vt 0.336735 0
vt 0.336735 1
vt 0.326531 1
vt 0.336735 0
vt 0.346939 0
vt 0.346939 1
vt 0.336735 1
vt 0.346939 0
vt 0.357143 0
vt 0.357143 1
vt 0.346939 1
vt 0.357143 0
vt 0.367347 0
vt 0.367347 1
vt 0.357143 1
vt 0.367347 0
vt 0.377551 0
vt 0.377551 1
vt 0.367347 1
vt 0.377551 0
vt 0.387755 0
vt 0.387755 1
vt 0.377551 1
vt 0.387755 0
vt 0.397959 0
vt 0.397959 1
vt 0.387755 1
vt 0.397959 0
vt 0.408163 0
vt 0.408163 1
vt 0.397959 1
vt 0.408163 0
vt 0.418367 0
vt 0.418367 1
vt 0.408163 1
vt 0.418367 0
vt 0.428571 0
vt 0.428571 1
vt 0.418367 1
vt 0.428571 0
vt 0.438776 0
vt 0.438776 1
vt 0.428571 1
vt 0.438776 0
vt 0.44898 0
vt 0.44898 1
vt 0.438776 1
vt 0.44898 0
vt 0.459184 0
vt 0.459184 1
vt 0.44898 1
vt 0.459184 0
vt 0.469388 0
vt 0.469388 1
vt 0.459184 1
vt 0.469388 0
vt 0.479592 0
vt 0.479592 1
vt 0.469388 1
vt 0.479592 0
vt 0.489796 0
vt 0.489796 1
vt 0.479592 1
vt 0.489796 0
vt 0.5 0
vt 0.5 1
vt 0.489796 1
vt 0.5 0
vt 0.510204 0
vt 0.510204 1
vt 0.5 1
vt 0.510204 0
vt 0.520408 0
vt 0.520408 1
vt 0.510204 1
vt 0.520408 0
vt 0.530612 0
vt 0.530612 1
vt 0.520408 1
vt 0.530612 0
vt 0.540816 0
vt 0.540816 1
vt 0.530612 1
vt 0.540816 0
vt 0.55102 0
vt 0.55102 1
vt 0.540816 1
vt 0.55102 0
vt 0.561224 0
vt 0.561224 1
vt 0.55102 1
vt 0.561224 0
vt 0.571429 0
vt 0.571429 1
vt 0.561224 1
vt 0.571429 0
vt 0.581633 0
vt 0.581633 1
vt 0.571429 1
vt 0.581633 0
vt 0.591837 0
vt 0.591837 1
vt 0.581633 1
vt 0.591837 0
vt 0.602041 0
vt 0.602041 1
vt 0.591837 1
vt 0.602041 0
vt 0.612245 0
vt 0.612245 1
vt 0.602041 1
vt 0.612245 0
vt 0.622449 0
vt 0.622449 1
vt 0.612245 1
vt 0.622449 0
vt 0.632653 0
vt 0.632653 1
vt 0.622449 1
vt 0.632653 0
vt 0.642857 0
vt 0.642857 1
vt 0.632653 1
vt 0.642857 0
vt 0.653061 0
vt 0.653061 1
vt 0.642857 1
vt 0.653061 0
vt 0.663265 0
vt 0.663265 1
vt 0.653061 1
vt 0.663265 0
vt 0.673469 0
vt 0.673469 1
vt 0.663265 1
vt 0.673469 0
vt 0.683673 0
vt 0.683673 1
vt 0.673469 1
vt 0.683673 0
vt 0.693878 0
vt 0.693878 1
vt 0.683673 1
vt 0.693878 0
vt 0.704082 0
vt 0.704082 1
vt 0.693878 1
vt 0.704082 0
vt 0.714286 0
vt 0.714286 1
vt 0.704082 1
vt 0.714286 0
vt 0.72449 0
vt 0.72449 1
vt 0.714286 1
vt 0.72449 0
vt 0.734694 0
vt 0.734694 1
vt 0.72449 1
vt 0.734694 0
vt 0.744898 0
vt 0.744898 1
vt 0.734694 1
vt 0.744898 0
vt 0.755102 0
vt 0.755102 1
vt 0.744898 1
vt 0.755102 0
vt 0.765306 0
vt 0.765306 1
vt 0.755102 1
vt 0.765306 0
vt 0.77551 0
vt 0.77551 1
vt 0.765306 1
vt 0.77551 0
vt 0.785714 0
vt 0.785714 1
vt 0.77551 1
vt 0.785714 0
vt 0.795918 0
vt 0.795918 1
vt 0.785714 1
vt 0.795918 0
vt 0.806122 0
vt 0.806122 1
vt 0.795918 1
vt 0.806122 0
vt 0.816327 0
vt 0.816327 1
vt 0.806122 1
vt 0.816327 0
vt 0.826531 0
vt 0.826531 1
vt 0.816327 1
vt 0.826531 0
vt 0.836735 0
vt 0.836735 1
vt 0.826531 1
vt 0.836735 0
vt 0.846939 0
vt 0.846939 1
vt 0.836735 1
vt 0.846939 0
vt 0.857143 0
vt 0.857143 1
vt 0.846939 1
vt 0.857143 0
vt 0.867347 0
vt 0.867347 1
vt 0.857143 1
vt 0.867347 0
vt 0.877551 0
vt 0.877551 1
vt 0.867347 1
vt 0.877551 0
vt 0.887755 0
vt 0.887755 1
vt 0.877551 1
vt 0.887755 0
vt 0.897959 0
vt 0.897959 1
vt 0.887755 1
vt 0.897959 0
vt 0.908163 0
vt 0.908163 1
vt 0.897959 1
vt 0.908163 0
vt 0.918367 0
vt 0.918367 1
vt 0.908163 1
vt 0.918367 0
vt 0.928571 0
vt 0.928571 1
vt 0.918367 1
vt 0.928571 0
vt 0.938776 0
vt 0.938776 1
vt 0.928571 1
vt 0.938776 0
vt 0.94898 0
vt 0.94898 1
vt 0.938776 1
vt 0.94898 0
vt 0.959184 0
vt 0.959184 1
vt 0.94898 1
vt 0.959184 0
vt 0.969388 0
vt 0.969388 1
vt 0.959184 1
vt 0.969388 0
vt 0.979592 0
vt 0.979592 1
vt 0.969388 1
vt 0.979592 0
vt 0.989796 0
vt 0.989796 1
vt 0.979592 1
vt 0.989796 0
vt 1 0
vt 1 1
vt 0.989796 1
s off
f 1/1/1 2/2/2 3/3/3
f 4/4/4 5/5/5 6/6/6
f 7/7/7 8/8/8 9/9/9
f 10/10/10 11/11/11 12/12/12
f 13/13/13 14/14/14 15/15/15
f 16/16/16 17/17/17 18/18/18
f 19/19/19 20/20/20 21/21/21
f 22/22/22 23/23/23 24/24/24
f 25/25/25 26/26/26 27/27/27
f 28/28/28 29/29/29 30/30/30
f 31/31/31 32/32/32 33/33/33
f 34/34/34 35/35/35 36/36/36
f 37/37/37 38/38/38 39/39/39
f 40/40/40 41/41/41 42/42/42
f 43/43/43 44/44/44 45/45/45
f 46/46/46 47/47/47 48/48/48
f 49/49/49 50/50/50 51/51/51
f 52/52/52 53/53/53 54/54/54
f 55/55/55 56/56/56 57/57/57
f 58/58/58 59/59/59 60/60/60
f 61/61/61 62/62/62 63/63/63
f 64/64/64 65/65/65 66/66/66
f 67/67/67 68/68/68 69/69/69
f 70/70/70 71/71/71 72/72/72
f 73/73/73 74/74/74 75/75/75
f 76/76/76 77/77/77 78/78/78
f 79/79/79 80/80/80 81/81/81
f 82/82/82 83/83/83 84/84/84
f 85/85/85 86/86/86 87/87/87
f 88/88/88 89/89/89 90/90/90
f 91/91/91 92/92/92 93/93/93
f 94/94/94 95/95/95 96/96/96
f 97/97/97 98/98/98 99/99/99
f 100/100/100 101/101/101 102/102/102
f 103/103/103 104/104/104 105/105/105
f 106/106/106 107/107/107 108/108/108
f 109/109/109 110/110/110 111/111/111
f 112/112/112 113/113/113 114/114/114
f 115/115/115 116/116/116 117/117/117
f 118/118/118 119/119/119 120/120/120
f 121/121/121 122/122/122 123/123/123
f 124/124/124 125/125/125 126/126/126
f 127/127/127 128/128/128 129/129/129
f 130/130/130 131/131/131 132/132/132
f 133/133/133 134/134/134 135/135/135
f 136/136/136 137/137/137 138/138/138
f 139/139/139 140/140/140 141/141/141
f 142/142/142 143/143/143 144/144/144
f 145/145/145 146/146/146 147/147/147
f 148/148/148 149/149/149 150/150/150
f 151/151/151 152/152/152 153/153/153
f 154/154/154 155/155/155 156/156/156
f 157/157/157 158/158/158 159/159/159
f 160/160/160 161/161/161 162/162/162
f 163/163/163 164/164/164 165/165/165
f 166/166/166 167/167/167 168/168/168
f 169/169/169 170/170/170 171/171/171
f 172/172/172 173/173/173 174/174/174
f 175/175/175 176/176/176 177/177/177
f 178/178/178 179/179/179 180/180/180
f 181/181/181 182/182/182 183/183/183
f 184/184/184 185/185/185 186/186/186
f 187/187/187 188/188/188 189/189/189
f 190/190/190 191/191/191 192/192/192
f 193/193/193 194/194/194 195/195/195
f 196/196/196 197/197/197 198/198/198
f 199/199/199 200/200/200 201/201/201
f 202/202/202 203/203/203 204/204/204
f 205/205/205 206/206/206 207/207/207
f 208/208/208 209/209/209 210/210/210
f 211/211/211 212/212/212 213/213/213
f 214/214/214 215/215/215 216/216/216
f 217/217/217 218/218/218 219/219/219
f 220/220/220 221/221/221 222/222/222
f 223/223/223 224/224/224 225/225/225
f 226/226/226 227/227/227 228/228/228
f 229/229/229 230/230/230 231/231/231
f 232/232/232 233/233/233 234/234/234
f 235/235/235 236/236/236 237/237/237
f 238/238/238 239/239/239 240/240/240
f 241/241/241 242/242/242 243/243/243
f 244/244/244 245/245/245 246/246/246
f 247/247/247 248/248/248 249/249/249
f 250/250/250 251/251/251 252/252/252
f 253/253/253 254/254/254 255/255/255
f 256/256/256 257/257/257 258/258/258
f 259/259/259 260/260/260 261/261/261
f 262/262/262 263/263/263 264/264/264
f 265/265/265 266/266/266 267/267/267
f 268/268/268 269/269/269 270/270/270
f 271/271/271 272/272/272 273/273/273
f 274/274/274 275/275/275 276/276/276
f 277/277/277 278/278/278 279/279/279
f 280/280/280 281/281/281 282/282/282
f 283/283/283 284/284/284 285/285/285
f 286/286/286 287/287/287 288/288/288
f 289/289/289 290/290/290 291/291/291
f 292/292/292 293/293/293 294/294/294
f 295/295/295 296/296/296 297/297/297
f 298/298/298 299/299/299 300/300/300
f 301/301/301 302/302/302 303/303/303
f 304/304/304 305/305/305 306/306/306
f 307/307/307 308/308/308 309/309/309
f 310/310/310 311/311/311 312/312/312
f 313/313/313 314/314/314 315/315/315
f 316/316/316 317/317/317 318/318/318
f 319/319/319 320/320/320 321/321/321
f 322/322/322 323/323/323 324/324/324
f 325/325/325 326/326/326 327/327/327
f 328/328/328 329/329/329 330/330/330
f 331/331/331 332/332/332 333/333/333
f 334/334/334 335/335/335 336/336/336
f 337/337/337 338/338/338 339/339/339
f 340/340/340 341/341/341 342/342/342
f 343/343/343 344/344/344 345/345/345
f 346/346/346 347/347/347 348/348/348
f 349/349/349 350/350/350 351/351/351
f 352/352/352 353/353/353 354/354/354
f 355/355/355 356/356/356 357/357/357
f 358/358/358 359/359/359 360/360/360
f 361/361/361 362/362/362 363/363/363
f 364/364/364 365/365/365 366/366/366
f 367/367/367 368/368/368 369/369/369
f 370/370/370 371/371/371 372/372/372
f 373/373/373 374/374/374 375/375/375
f 376/376/376 377/377/377 378/378/378
f 379/379/379 380/380/380 381/381/381
f 382/382/382 383/383/383 384/384/384
f 385/385/385 386/386/386 387/387/387
f 388/388/388 389/389/389 390/390/390
f 391/391/391 392/392/392 393/393/393
f 394/394/394 395/395/395 396/396/396
f 397/397/397 398/398/398 399/399/399
f 400/400/400 401/401/401 402/402/402
f 403/403/403 404/404/404 405/405/405
f 406/406/406 407/407/407 408/408/408
f 409/409/409 410/410/410 411/411/411
f 412/412/412 413/413/413 414/414/414
f 415/415/415 416/416/416 417/417/417
f 418/418/418 419/419/419 420/420/420
f 421/421/421 422/422/422 423/423/423
f 424/424/424 425/425/425 426/426/426
f 427/427/427 428/428/428 429/429/429
f 430/430/430 431/431/431 432/432/432
f 433/433/433 434/434/434 435/435/435
f 436/436/436 437/437/437 438/438/438
f 439/439/439 440/440/440 441/441/441
f 442/442/442 443/443/443 444/444/444
f 445/445/445 446/446/446 447/447/447
f 448/448/448 449/449/449 450/450/450
f 451/451/451 452/452/452 453/453/453
f 454/454/454 455/455/455 456/456/456
f 457/457/457 458/458/458 459/459/459
f 460/460/460 461/461/461 462/462/462
f 463/463/463 464/464/464 465/465/465
f 466/466/466 467/467/467 468/468/468
f 469/469/469 470/470/470 471/471/471
f 472/472/472 473/473/473 474/474/474
f 475/475/475 476/476/476 477/477/477
f 478/478/478 479/479/479 480/480/480
f 481/481/481 482/482/482 483/483/483
f 484/484/484 485/485/485 486/486/486
f 487/487/487 488/488/488 489/489/489
f 490/490/490 491/491/491 492/492/492
f 493/493/493 494/494/494 495/495/495
f 496/496/496 497/497/497 498/498/498
f 499/499/499 500/500/500 501/501/501
f 502/502/502 503/503/503 504/504/504
f 505/505/505 506/506/506 507/507/507
f 508/508/508 509/509/509 510/510/510
f 511/511/511 512/512/512 513/513/513
f 514/514/514 515/515/515 516/516/516
f 517/517/517 518/518/518 519/519/519
f 520/520/520 521/521/521 522/522/522
f 523/523/523 524/524/524 525/525/525
f 526/526/526 527/527/527 528/528/528
f 529/529/529 530/530/530 531/531/531
f 532/532/532 533/533/533 534/534/534
f 535/535/535 536/536/536 537/537/537
f 538/538/538 539/539/539 540/540/540
f 541/541/541 542/542/542 543/543/543
f 544/544/544 545/545/545 546/546/546
f 547/547/547 548/548/548 549/549/549
f 550/550/550 551/551/551 552/552/552
f 553/553/553 554/554/554 555/555/555
f 556/556/556 557/557/557 558/558/558
f 559/559/559 560/560/560 561/561/561
f 562/562/562 563/563/563 564/564/564
f 565/565/565 566/566/566 567/567/567
f 568/568/568 569/569/569 570/570/570
f 571/571/571 572/572/572 573/573/573
f 574/574/574 575/575/575 576/576/576
f 577/577/577 578/578/578 579/579/579
f 577/577/577 579/579/579 580/580/580
f 581/581/581 582/582/582 583/583/583
f 581/581/581 583/583/583 584/584/584
f 585/585/585 586/586/586 587/587/587
f 585/585/585 587/587/587 588/588/588
f 589/589/589 590/590/590 591/591/591
f 589/589/589 591/591/591 592/592/592
f 593/593/593 594/594/594 595/595/595
f 593/593/593 595/595/595 596/596/596
f 597/597/597 598/598/598 599/599/599
f 597/597/597 599/599/599 600/600/600
f 601/601/601 602/602/602 603/603/603
f 601/601/601 603/603/603 604/604/604
f 605/605/605 606/606/606 607/607/607
f 605/605/605 607/607/607 608/608/608
f 609/609/609 610/610/610 611/611/611
f 609/609/609 611/611/611 612/612/612
f 613/613/613 614/614/614 615/615/615
f 613/613/613 615/615/615 616/616/616
f 617/617/617 618/618/618 619/619/619
f 617/617/617 619/619/619 620/620/620
f 621/621/621 622/622/622 623/623/623
f 621/621/621 623/623/623 624/624/624
f 625/625/625 626/626/626 627/627/627
f 625/625/625 627/627/627 628/628/628
f 629/629/629 630/630/630 631/631/631
f 629/629/629 631/631/631 632/632/632
f 633/633/633 634/634/634 635/635/635
f 633/633/633 635/635/635 636/636/636
f 637/637/637 638/638/638 639/639/639
f 637/637/637 639/639/639 640/640/640
f 641/641/641 642/642/642 643/643/643
f 641/641/641 643/643/643 644/644/644
f 645/645/645 646/646/646 647/647/647
f 645/645/645 647/647/647 648/648/648
f 649/649/649 650/650/650 651/651/651
f 649/649/649 651/651/651 652/652/652
f 653/653/653 654/654/654 655/655/655
f 653/653/653 655/655/655 656/656/656
f 657/657/657 658/658/658 659/659/659
f 657/657/657 659/659/659 660/660/660
f 661/661/661 662/662/662 663/663/663
f 661/661/661 663/663/663 664/664/664
f 665/665/665 666/666/666 667/667/667
f 665/665/665 667/667/667 668/668/668
f 669/669/669 670/670/670 671/671/671
f 669/669/669 671/671/671 672/672/672
f 673/673/673 674/674/674 675/675/675
f 673/673/673 675/675/675 676/676/676
f 677/677/677 678/678/678 679/679/679
f 677/677/677 679/679/679 680/680/680
f 681/681/681 682/682/682 683/683/683
f 681/681/681 683/683/683 684/684/684
f 685/685/685 686/686/686 687/687/687
f 685/685/685 687/687/687 688/688/688
f 689/689/689 690/690/690 691/691/691
f 689/689/689 691/691/691 692/692/692
f 693/693/693 694/694/694 695/695/695
f 693/693/693 695/695/695 696/696/696
f 697/697/697 698/698/698 699/699/699
f 697/697/697 699/699/699 700/700/700
f 701/701/701 702/702/702 703/703/703
f 701/701/701 703/703/703 704/704/704
f 705/705/705 706/706/706 707/707/707
f 705/705/705 707/707/707 708/708/708
f 709/709/709 710/710/710 711/711/711
f 709/709/709 711/711/711 712/712/712
f 713/713/713 714/714/714 715/715/715
f 713/713/713 715/715/715 716/716/716
f 717/717/717 718/718/718 719/719/719
f 717/717/717 719/719/719 720/720/720
f 721/721/721 722/722/722 723/723/723
f 721/721/721 723/723/723 724/724/724
f 725/725/725 726/726/726 727/727/727
f 725/725/725 727/727/727 728/728/728
f 729/729/729 730/730/730 731/731/731
f 729/729/729 731/731/731 732/732/732
f 733/733/733 734/734/734 735/735/735
f 733/733/733 735/735/735 736/736/736
f 737/737/737 738/738/738 739/739/739
f 737/737/737 739/739/739 740/740/740
f 741/741/741 742/742/742 743/743/743
f 741/741/741 743/743/743 744/744/744
f 745/745/745 746/746/746 747/747/747
f 745/745/745 747/747/747 748/748/748
f 749/749/749 750/750/750 751/751/751
f 749/749/749 751/751/751 752/752/752
f 753/753/753 754/754/754 755/755/755
f 753/753/753 755/755/755 756/756/756
f 757/757/757 758/758/758 759/759/759
f 757/757/757 759/759/759 760/760/760
f 761/761/761 762/762/762 763/763/763
f 761/761/761 763/763/763 764/764/764
f 765/765/765 766/766/766 767/767/767
f 765/765/765 767/767/767 768/768/768
f 769/769/769 770/770/770 771/771/771
f 769/769/769 771/771/771 772/772/772
f 773/773/773 774/774/774 775/775/775
f 773/773/773 775/775/775 776/776/776
f 777/777/777 778/778/778 779/779/779
f 777/777/777 779/779/779 780/780/780
f 781/781/781 782/782/782 783/783/783
f 781/781/781 783/783/783 784/784/784
f 785/785/785 786/786/786 787/787/787
f 785/785/785 787/787/787 788/788/788
f 789/789/789 790/790/790 791/791/791
f 789/789/789 791/791/791 792/792/792
f 793/793/793 794/794/794 795/795/795
f 793/793/793 795/795/795 796/796/796
f 797/797/797 798/798/798 799/799/799
f 797/797/797 799/799/799 800/800/800
f 801/801/801 802/802/802 803/803/803
f 801/801/801 803/803/803 804/804/804
f 805/805/805 806/806/806 807/807/807
f 805/805/805 807/807/807 808/808/808
f 809/809/809 810/810/810 811/811/811
f 809/809/809 811/811/811 812/812/812
f 813/813/813 814/814/814 815/815/815
f 813/813/813 815/815/815 816/816/816
f 817/817/817 818/818/818 819/819/819
f 817/817/817 819/819/819 820/820/820
f 821/821/821 822/822/822 823/823/823
f 821/821/821 823/823/823 824/824/824
f 825/825/825 826/826/826 827/827/827
f 825/825/825 827/827/827 828/828/828
f 829/829/829 830/830/830 831/831/831
f 829/829/829 831/831/831 832/832/832
f 833/833/833 834/834/834 835/835/835
f 833/833/833 835/835/835 836/836/836
f 837/837/837 838/838/838 839/839/839
f 837/837/837 839/839/839 840/840/840
f 841/841/841 842/842/842 843/843/843
f 841/841/841 843/843/843 844/844/844
f 845/845/845 846/846/846 847/847/847
f 845/845/845 847/847/847 848/848/848
f 849/849/849 850/850/850 851/851/851
f 849/849/849 851/851/851 852/852/852
f 853/853/853 854/854/854 855/855/855
f 853/853/853 855/855/855 856/856/856
f 857/857/857 858/858/858 859/859/859
f 857/857/857 859/859/859 860/860/860
f 861/861/861 862/862/862 863/863/863
f 861/861/861 863/863/863 864/864/864
f 865/865/865 866/866/866 867/867/867
f 865/865/865 867/867/867 868/868/868
f 869/869/869 870/870/870 871/871/871
f 869/869/869 871/871/871 872/872/872
f 873/873/873 874/874/874 875/875/875
f 873/873/873 875/875/875 876/876/876
f 877/877/877 878/878/878 879/879/879
f 877/877/877 879/879/879 880/880/880
f 881/881/881 882/882/882 883/883/883
f 881/881/881 883/883/883 884/884/884
f 885/885/885 886/886/886 887/887/887
f 885/885/885 887/887/887 888/888/888
f 889/889/889 890/890/890 891/891/891
f 889/889/889 891/891/891 892/892/892
f 893/893/893 894/894/894 895/895/895
f 893/893/893 895/895/895 896/896/896
f 897/897/897 898/898/898 899/899/899
f 897/897/897 899/899/899 900/900/900
f 901/901/901 902/902/902 903/903/903
f 901/901/901 903/903/903 904/904/904
f 905/905/905 906/906/906 907/907/907
f 905/905/905 907/907/907 908/908/908
f 909/909/909 910/910/910 911/911/911
f 909/909/909 911/911/911 912/912/912
f 913/913/913 914/914/914 915/915/915
f 913/913/913 915/915/915 916/916/916
f 917/917/917 918/918/918 919/919/919
f 917/917/917 919/919/919 920/920/920
f 921/921/921 922/922/922 923/923/923
f 921/921/921 923/923/923 924/924/924
f 925/925/925 926/926/926 927/927/927
f 925/925/925 927/927/927 928/928/928
f 929/929/929 930/930/930 931/931/931
f 929/929/929 931/931/931 932/932/932
f 933/933/933 934/934/934 935/935/935
f 933/933/933 935/935/935 936/936/936
f 937/937/937 938/938/938 939/939/939
f 937/937/937 939/939/939 940/940/940
f 941/941/941 942/942/942 943/943/943
f 941/941/941 943/943/943 944/944/944
f 945/945/945 946/946/946 947/947/947
f 945/945/945 947/947/947 948/948/948
f 949/949/949 950/950/950 951/951/951
f 949/949/949 951/951/951 952/952/952
f 953/953/953 954/954/954 955/955/955
f 953/953/953 955/955/955 956/956/956
f 957/957/957 958/958/958 959/959/959
f 957/957/957 959/959/959 960/960/960
f 961/961/961 962/962/962 963/963/963
f 961/961/961 963/963/963 964/964/964
f 965/965/965 966/966/966 967/967/967
f 965/965/965 967/967/967 968/968/968
