v -0.521015 0.02914 -0.060332
v -0.51488 0.029342 -0.097517
v -0.521015 0.029372 -0.103027
v -0.51488 0.029342 -0.097517
v -0.496788 0.029372 -0.103027
v -0.521015 0.029372 -0.103027
v -0.51488 0.029342 -0.097517
v -0.496788 0.029342 -0.097517
v -0.496788 0.029372 -0.103027
v -0.521015 0.02914 -0.060332
v -0.51488 0.029272 -0.084621
v -0.51488 0.029342 -0.097517
v -0.521015 0.02914 -0.060332
v -0.51488 0.029242 -0.079112
v -0.51488 0.029272 -0.084621
v -0.51488 0.029242 -0.079112
v -0.497414 0.029272 -0.084621
v -0.51488 0.029272 -0.084621
v -0.51488 0.029242 -0.079112
v -0.497414 0.029242 -0.079112
v -0.497414 0.029272 -0.084621
v -0.521015 0.02914 -0.060332
v -0.51488 0.02917 -0.065841
v -0.51488 0.029242 -0.079112
v -0.521015 0.02914 -0.060332
v -0.496224 0.02917 -0.065841
v -0.51488 0.02917 -0.065841
v -0.521015 0.02914 -0.060332
v -0.496224 0.02914 -0.060332
v -0.496224 0.02917 -0.065841
v -0.51488 0.025586 -0.097538
v -0.521015 0.025384 -0.060353
v -0.521015 0.025616 -0.103047
v -0.496788 0.025616 -0.103047
v -0.51488 0.025586 -0.097538
v -0.521015 0.025616 -0.103047
v -0.496788 0.025586 -0.097538
v -0.51488 0.025586 -0.097538
v -0.496788 0.025616 -0.103047
v -0.51488 0.025516 -0.084642
v -0.521015 0.025384 -0.060353
v -0.51488 0.025586 -0.097538
v -0.51488 0.025486 -0.079133
v -0.521015 0.025384 -0.060353
v -0.51488 0.025516 -0.084642
v -0.497414 0.025516 -0.084642
v -0.51488 0.025486 -0.079133
v -0.51488 0.025516 -0.084642
v -0.497414 0.025486 -0.079133
v -0.51488 0.025486 -0.079133
v -0.497414 0.025516 -0.084642
v -0.51488 0.025414 -0.065862
v -0.521015 0.025384 -0.060353
v -0.51488 0.025486 -0.079133
v -0.496224 0.025414 -0.065862
v -0.521015 0.025384 -0.060353
v -0.51488 0.025414 -0.065862
v -0.496224 0.025384 -0.060353
v -0.521015 0.025384 -0.060353
v -0.496224 0.025414 -0.065862
v -0.51488 0.029342 -0.097517
v -0.51488 0.029272 -0.084621
v -0.51488 0.025516 -0.084642
v -0.51488 0.025586 -0.097538
v -0.51488 0.029272 -0.084621
v -0.497414 0.029272 -0.084621
v -0.497414 0.025516 -0.084642
v -0.51488 0.025516 -0.084642
v -0.497414 0.029272 -0.084621
v -0.497414 0.029242 -0.079112
v -0.497414 0.025486 -0.079133
v -0.497414 0.025516 -0.084642
v -0.497414 0.029242 -0.079112
v -0.51488 0.029242 -0.079112
v -0.51488 0.025486 -0.079133
v -0.497414 0.025486 -0.079133
v -0.51488 0.029242 -0.079112
v -0.51488 0.02917 -0.065841
v -0.51488 0.025414 -0.065862
v -0.51488 0.025486 -0.079133
v -0.51488 0.02917 -0.065841
v -0.496224 0.02917 -0.065841
v -0.496224 0.025414 -0.065862
v -0.51488 0.025414 -0.065862
v -0.496224 0.02917 -0.065841
v -0.496224 0.02914 -0.060332
v -0.496224 0.025384 -0.060353
v -0.496224 0.025414 -0.065862
v -0.496224 0.02914 -0.060332
v -0.521015 0.02914 -0.060332
v -0.521015 0.025384 -0.060353
v -0.496224 0.025384 -0.060353
v -0.521015 0.02914 -0.060332
v -0.521015 0.029372 -0.103027
v -0.521015 0.025616 -0.103047
v -0.521015 0.025384 -0.060353
v -0.521015 0.029372 -0.103027
v -0.496788 0.029372 -0.103027
v -0.496788 0.025616 -0.103047
v -0.521015 0.025616 -0.103047
v -0.496788 0.029372 -0.103027
v -0.496788 0.029342 -0.097517
v -0.496788 0.025586 -0.097538
v -0.496788 0.025616 -0.103047
v -0.496788 0.029342 -0.097517
v -0.51488 0.029342 -0.097517
v -0.51488 0.025586 -0.097538
v -0.496788 0.025586 -0.097538
vn -0 1 0.0054
vn -0 1 0.0054
vn -0 1 0.0054
vn -0 1 0.0054
vn -0 1 0.0054
vn -0 1 0.0054
vn -0 1 0.0054
vn -0 1 0.0054
vn -0 1 0.0054
vn -0 1 0.0054
vn -0 1 0.0054
vn -0 1 0.0054
vn -0 1 0.0054
vn -0 1 0.0054
vn -0 1 0.0054
vn -0 1 0.0054
vn -0 1 0.0054
vn -0 1 0.0054
vn -0 1 0.0054
vn -0 1 0.0054
vn -0 1 0.0054
vn -0 1 0.0054
vn -0 1 0.0054
vn -0 1 0.0054
vn -0 1 0.0054
vn -0 1 0.0054
vn -0 1 0.0054
vn -0 1 0.0054
vn -0 1 0.0054
vn -0 1 0.0054
vn -0 -1 -0.0054
vn -0 -1 -0.0054
vn -0 -1 -0.0054
vn -0 -1 -0.0054
vn -0 -1 -0.0054
vn -0 -1 -0.0054
vn -0 -1 -0.0054
vn -0 -1 -0.0054
vn -0 -1 -0.0054
vn -0 -1 -0.0054
vn -0 -1 -0.0054
vn -0 -1 -0.0054
vn -0 -1 -0.0054
vn -0 -1 -0.0054
vn -0 -1 -0.0054
vn -0 -1 -0.0054
vn -0 -1 -0.0054
vn -0 -1 -0.0054
vn -0 -1 -0.0054
vn -0 -1 -0.0054
vn -0 -1 -0.0054
vn -0 -1 -0.0054
vn -0 -1 -0.0054
vn -0 -1 -0.0054
vn -0 -1 -0.0054
vn -0 -1 -0.0054
vn -0 -1 -0.0054
vn -0 -1 -0.0054
vn -0 -1 -0.0054
vn -0 -1 -0.0054
vn 0.7071 -0.004 0.7071
vn 0.7071 0.004 -0.7071
vn 0.7071 0.004 -0.7071
vn 0.7071 -0.004 0.7071
vn 0.7071 0.004 -0.7071
vn 0.7071 0.004 -0.7071
vn 0.7071 0.004 -0.7071
vn 0.7071 0.004 -0.7071
vn 0.7071 0.004 -0.7071
vn 0.7071 -0.004 0.7071
vn 0.7071 -0.004 0.7071
vn 0.7071 0.004 -0.7071
vn 0.7071 -0.004 0.7071
vn 0.7071 -0.004 0.7071
vn 0.7071 -0.004 0.7071
vn 0.7071 -0.004 0.7071
vn 0.7071 -0.004 0.7071
vn 0.7071 0.004 -0.7071
vn 0.7071 0.004 -0.7071
vn 0.7071 -0.004 0.7071
vn 0.7071 0.004 -0.7071
vn 0.7071 0.004 -0.7071
vn 0.7071 0.004 -0.7071
vn 0.7071 0.004 -0.7071
vn 0.7071 0.004 -0.7071
vn 0.7071 -0.004 0.7071
vn 0.7071 -0.004 0.7071
vn 0.7071 0.004 -0.7071
vn 0.7071 -0.004 0.7071
vn -0.7071 -0.004 0.7071
vn -0.7071 -0.004 0.7071
vn 0.7071 -0.004 0.7071
vn -0.7071 -0.004 0.7071
vn -0.7071 0.0038 -0.7071
vn -0.7071 0.0041 -0.7071
vn -0.7071 -0.004 0.7071
vn -0.7071 0.0038 -0.7071
vn 0.7071 0.0038 -0.7071
vn 0.7071 0.0038 -0.7071
vn -0.7071 0.0041 -0.7071
vn 0.7071 0.0038 -0.7071
vn 0.7071 -0.004 0.7071
vn 0.7071 -0.004 0.7071
vn 0.7071 0.0038 -0.7071
vn 0.7071 -0.004 0.7071
vn 0.7071 -0.004 0.7071
vn 0.7071 -0.004 0.7071
vn 0.7071 -0.004 0.7071
vt 0.727273 1
vt 0 1
vt 0.818182 1
vt 0 1
vt 0.909091 1
vt 0.818182 1
vt 0 1
vt 1 1
vt 0.909091 1
vt 0.727273 1
vt 0.090909 1
vt 0 1
vt 0.727273 1
vt 0.363636 1
vt 0.090909 1
vt 0.363636 1
vt 0.181818 1
vt 0.090909 1
vt 0.363636 1
vt 0.272727 1
vt 0.181818 1
vt 0.727273 1
vt 0.454545 1
vt 0.363636 1
vt 0.727273 1
vt 0.545455 1
vt 0.454545 1
vt 0.727273 1
vt 0.636364 1
vt 0.545455 1
vt 0 1
vt 0.727273 1
vt 0.818182 1
vt 0.909091 1
vt 0 1
vt 0.818182 1
vt 1 1
vt 0 1
vt 0.909091 1
vt 0.090909 1
vt 0.727273 1
vt 0 1
vt 0.363636 1
vt 0.727273 1
vt 0.090909 1
vt 0.181818 1
vt 0.363636 1
vt 0.090909 1
vt 0.272727 1
vt 0.363636 1
vt 0.181818 1
vt 0.454545 1
vt 0.727273 1
vt 0.363636 1
vt 0.545455 1
vt 0.727273 1
vt 0.454545 1
vt 0.636364 1
vt 0.727273 1
vt 0.545455 1
vt 0 0
vt 0.083333 0
vt 0.083333 1
vt 0 1
vt 0.083333 0
vt 0.166667 0
vt 0.166667 1
vt 0.083333 1
vt 0.166667 0
vt 0.25 0
vt 0.25 1
vt 0.166667 1
vt 0.25 0
vt 0.333333 0
vt 0.333333 1
vt 0.25 1
vt 0.333333 0
vt 0.416667 0
vt 0.416667 1
vt 0.333333 1
vt 0.416667 0
vt 0.5 0
vt 0.5 1
vt 0.416667 1
vt 0.5 0
vt 0.583333 0
vt 0.583333 1
vt 0.5 1
vt 0.583333 0
vt 0.666667 0
vt 0.666667 1
vt 0.583333 1
vt 0.666667 0
vt 0.75 0
vt 0.75 1
vt 0.666667 1
vt 0.75 0
vt 0.833333 0
vt 0.833333 1
vt 0.75 1
vt 0.833333 0
vt 0.916667 0
vt 0.916667 1
vt 0.833333 1
vt 0.916667 0
vt 1 0
vt 1 1
vt 0.916667 1
s off
f 1/1/1 2/2/2 3/3/3
f 4/4/4 5/5/5 6/6/6
f 7/7/7 8/8/8 9/9/9
f 10/10/10 11/11/11 12/12/12
f 13/13/13 14/14/14 15/15/15
f 16/16/16 17/17/17 18/18/18
f 19/19/19 20/20/20 21/21/21
f 22/22/22 23/23/23 24/24/24
f 25/25/25 26/26/26 27/27/27
f 28/28/28 29/29/29 30/30/30
f 31/31/31 32/32/32 33/33/33
f 34/34/34 35/35/35 36/36/36
f 37/37/37 38/38/38 39/39/39
f 40/40/40 41/41/41 42/42/42
f 43/43/43 44/44/44 45/45/45
f 46/46/46 47/47/47 48/48/48
f 49/49/49 50/50/50 51/51/51
f 52/52/52 53/53/53 54/54/54
f 55/55/55 56/56/56 57/57/57
f 58/58/58 59/59/59 60/60/60
f 61/61/61 62/62/62 63/63/63
f 61/61/61 63/63/63 64/64/64
f 65/65/65 66/66/66 67/67/67
f 65/65/65 67/67/67 68/68/68
f 69/69/69 70/70/70 71/71/71
f 69/69/69 71/71/71 72/72/72
f 73/73/73 74/74/74 75/75/75
f 73/73/73 75/75/75 76/76/76
f 77/77/77 78/78/78 79/79/79
f 77/77/77 79/79/79 80/80/80
f 81/81/81 82/82/82 83/83/83
f 81/81/81 83/83/83 84/84/84
f 85/85/85 86/86/86 87/87/87
f 85/85/85 87/87/87 88/88/88
f 89/89/89 90/90/90 91/91/91
f 89/89/89 91/91/91 92/92/92
f 93/93/93 94/94/94 95/95/95
f 93/93/93 95/95/95 96/96/96
f 97/97/97 98/98/98 99/99/99
f 97/97/97 99/99/99 100/100/100
f 101/101/101 102/102/102 103/103/103
f 101/101/101 103/103/103 104/104/104
f 105/105/105 106/106/106 107/107/107
f 105/105/105 107/107/107 108/108/108
