v 0.968865 0.017961 0.146826
v 0.971724 0.018055 0.129499
v 0.968865 0.018069 0.126933
v 0.971724 0.018055 0.129499
v 0.976595 0.018069 0.126933
v 0.968865 0.018069 0.126933
v 0.971724 0.018055 0.129499
v 0.978347 0.018069 0.127039
v 0.976595 0.018069 0.126933
v 0.971724 0.018055 0.129499
v 0.979931 0.018067 0.127344
v 0.978347 0.018069 0.127039
v 0.971724 0.018055 0.129499
v 0.98135 0.018064 0.127826
v 0.979931 0.018067 0.127344
v 0.971724 0.018055 0.129499
v 0.982607 0.018061 0.128468
v 0.98135 0.018064 0.127826
v 0.971724 0.018055 0.129499
v 0.983704 0.018057 0.129248
v 0.982607 0.018061 0.128468
v 0.971724 0.018055 0.129499
v 0.976128 0.018055 0.129499
v 0.983704 0.018057 0.129248
v 0.976128 0.018055 0.129499
v 0.977458 0.018055 0.129569
v 0.983704 0.018057 0.129248
v 0.977458 0.018055 0.129569
v 0.984645 0.018052 0.130145
v 0.983704 0.018057 0.129248
v 0.968865 0.017961 0.146826
v 0.971724 0.017975 0.144259
v 0.971724 0.018055 0.129499
v 0.978663 0.018054 0.129769
v 0.984645 0.018052 0.130145
v 0.977458 0.018055 0.129569
v 0.979745 0.018052 0.130091
v 0.984645 0.018052 0.130145
v 0.978663 0.018054 0.129769
v 0.980706 0.01805 0.130525
v 0.984645 0.018052 0.130145
v 0.979745 0.018052 0.130091
v 0.980706 0.01805 0.130525
v 0.985433 0.018046 0.131141
v 0.984645 0.018052 0.130145
v 0.981548 0.018047 0.131061
v 0.985433 0.018046 0.131141
v 0.980706 0.01805 0.130525
v 0.982272 0.018043 0.131691
v 0.985433 0.018046 0.131141
v 0.981548 0.018047 0.131061
v 0.982272 0.018043 0.131691
v 0.986071 0.01804 0.132214
v 0.985433 0.018046 0.131141
v 0.982879 0.018039 0.132403
v 0.986071 0.01804 0.132214
v 0.982272 0.018043 0.131691
v 0.982879 0.018039 0.132403
v 0.986562 0.018034 0.133344
v 0.986071 0.01804 0.132214
v 0.983373 0.018035 0.13319
v 0.986562 0.018034 0.133344
v 0.982879 0.018039 0.132403
v 0.983753 0.01803 0.134041
v 0.986562 0.018034 0.133344
v 0.983373 0.018035 0.13319
v 0.983753 0.01803 0.134041
v 0.986909 0.018028 0.134512
v 0.986562 0.018034 0.133344
v 0.984023 0.018026 0.134945
v 0.986909 0.018028 0.134512
v 0.983753 0.01803 0.134041
v 0.984023 0.018026 0.134945
v 0.987115 0.018021 0.135697
v 0.986909 0.018028 0.134512
v 0.984184 0.01802 0.135895
v 0.987115 0.018021 0.135697
v 0.984023 0.018026 0.134945
v 0.984184 0.01802 0.135895
v 0.987183 0.018015 0.136879
v 0.987115 0.018021 0.135697
v 0.984237 0.018015 0.136879
v 0.987183 0.018015 0.136879
v 0.984184 0.01802 0.135895
v 0.984204 0.018011 0.137539
v 0.987183 0.018015 0.136879
v 0.984237 0.018015 0.136879
v 0.984204 0.018011 0.137539
v 0.987101 0.018008 0.138147
v 0.987183 0.018015 0.136879
v 0.984097 0.018007 0.138277
v 0.987101 0.018008 0.138147
v 0.984204 0.018011 0.137539
v 0.984097 0.018007 0.138277
v 0.986857 0.018001 0.139389
v 0.987101 0.018008 0.138147
v 0.983903 0.018003 0.139066
v 0.986857 0.018001 0.139389
v 0.984097 0.018007 0.138277
v 0.983611 0.017999 0.139882
v 0.986857 0.018001 0.139389
v 0.983903 0.018003 0.139066
v 0.983611 0.017999 0.139882
v 0.986456 0.017995 0.140586
v 0.986857 0.018001 0.139389
v 0.983209 0.017994 0.140697
v 0.986456 0.017995 0.140586
v 0.983611 0.017999 0.139882
v 0.983209 0.017994 0.140697
v 0.985904 0.017989 0.141726
v 0.986456 0.017995 0.140586
v 0.982684 0.01799 0.141488
v 0.985904 0.017989 0.141726
v 0.983209 0.017994 0.140697
v 0.982024 0.017986 0.142227
v 0.985904 0.017989 0.141726
v 0.982684 0.01799 0.141488
v 0.982024 0.017986 0.142227
v 0.985205 0.017983 0.142791
v 0.985904 0.017989 0.141726
v 0.981216 0.017982 0.14289
v 0.985205 0.017983 0.142791
v 0.982024 0.017986 0.142227
v 0.981216 0.017982 0.14289
v 0.984364 0.017977 0.143766
v 0.985205 0.017983 0.142791
v 0.98025 0.017979 0.14345
v 0.984364 0.017977 0.143766
v 0.981216 0.017982 0.14289
v 0.979112 0.017977 0.143882
v 0.984364 0.017977 0.143766
v 0.98025 0.017979 0.14345
v 0.979112 0.017977 0.143882
v 0.983387 0.017973 0.144635
v 0.984364 0.017977 0.143766
v 0.977791 0.017975 0.14416
v 0.983387 0.017973 0.144635
v 0.979112 0.017977 0.143882
v 0.976274 0.017975 0.144259
v 0.983387 0.017973 0.144635
v 0.977791 0.017975 0.14416
v 0.968865 0.017961 0.146826
v 0.976274 0.017975 0.144259
v 0.971724 0.017975 0.144259
v 0.968865 0.017961 0.146826
v 0.983387 0.017973 0.144635
v 0.976274 0.017975 0.144259
v 0.968865 0.017961 0.146826
v 0.982278 0.017969 0.145381
v 0.983387 0.017973 0.144635
v 0.968865 0.017961 0.146826
v 0.981042 0.017965 0.14599
v 0.982278 0.017969 0.145381
v 0.968865 0.017961 0.146826
v 0.979685 0.017963 0.146443
v 0.981042 0.017965 0.14599
v 0.968865 0.017961 0.146826
v 0.97821 0.017961 0.146728
v 0.979685 0.017963 0.146443
v 0.968865 0.017961 0.146826
v 0.976624 0.017961 0.146826
v 0.97821 0.017961 0.146728
v 0.946026 0.017961 0.146826
v 0.948301 0.018069 0.126933
v 0.946026 0.018069 0.126933
v 0.946026 0.017961 0.146826
v 0.948709 0.018044 0.131512
v 0.948301 0.018069 0.126933
v 0.948709 0.018044 0.131512
v 0.961777 0.017985 0.142333
v 0.948301 0.018069 0.126933
v 0.961777 0.017985 0.142333
v 0.96446 0.018069 0.126933
v 0.961777 0.018069 0.126933
v 0.961777 0.017985 0.142333
v 0.96446 0.017961 0.146826
v 0.96446 0.018069 0.126933
v 0.946026 0.017961 0.146826
v 0.948709 0.017961 0.146826
v 0.948709 0.018044 0.131512
v 0.96201 0.017961 0.146826
v 0.961777 0.017985 0.142333
v 0.948709 0.018044 0.131512
v 0.96201 0.017961 0.146826
v 0.96446 0.017961 0.146826
v 0.961777 0.017985 0.142333
v 0.931471 0.017961 0.146826
v 0.934329 0.018055 0.129499
v 0.931471 0.018069 0.126933
v 0.934329 0.018055 0.129499
v 0.942759 0.018069 0.126933
v 0.931471 0.018069 0.126933
v 0.934329 0.018055 0.129499
v 0.942759 0.018055 0.129499
v 0.942759 0.018069 0.126933
v 0.931471 0.017961 0.146826
v 0.934329 0.018022 0.135508
v 0.934329 0.018055 0.129499
v 0.931471 0.017961 0.146826
v 0.934329 0.018008 0.138075
v 0.934329 0.018022 0.135508
v 0.934329 0.018008 0.138075
v 0.942467 0.018022 0.135508
v 0.934329 0.018022 0.135508
v 0.934329 0.018008 0.138075
v 0.942467 0.018008 0.138075
v 0.942467 0.018022 0.135508
v 0.931471 0.017961 0.146826
v 0.934329 0.017975 0.144259
v 0.934329 0.018008 0.138075
v 0.931471 0.017961 0.146826
v 0.943021 0.017975 0.144259
v 0.934329 0.017975 0.144259
v 0.931471 0.017961 0.146826
v 0.943021 0.017961 0.146826
v 0.943021 0.017975 0.144259
v 0.971724 0.012805 0.129471
v 0.968865 0.012711 0.146797
v 0.968865 0.012819 0.126904
v 0.976595 0.012819 0.126904
v 0.971724 0.012805 0.129471
v 0.968865 0.012819 0.126904
v 0.978347 0.012818 0.12701
v 0.971724 0.012805 0.129471
v 0.976595 0.012819 0.126904
v 0.979931 0.012817 0.127315
v 0.971724 0.012805 0.129471
v 0.978347 0.012818 0.12701
v 0.98135 0.012814 0.127798
v 0.971724 0.012805 0.129471
v 0.979931 0.012817 0.127315
v 0.982607 0.012811 0.128439
v 0.971724 0.012805 0.129471
v 0.98135 0.012814 0.127798
v 0.983704 0.012806 0.129219
v 0.971724 0.012805 0.129471
v 0.982607 0.012811 0.128439
v 0.976128 0.012805 0.129471
v 0.971724 0.012805 0.129471
v 0.983704 0.012806 0.129219
v 0.977458 0.012805 0.12954
v 0.976128 0.012805 0.129471
v 0.983704 0.012806 0.129219
v 0.984645 0.012801 0.130117
v 0.977458 0.012805 0.12954
v 0.983704 0.012806 0.129219
v 0.971724 0.012725 0.14423
v 0.968865 0.012711 0.146797
v 0.971724 0.012805 0.129471
v 0.984645 0.012801 0.130117
v 0.978663 0.012803 0.12974
v 0.977458 0.012805 0.12954
v 0.984645 0.012801 0.130117
v 0.979745 0.012802 0.130062
v 0.978663 0.012803 0.12974
v 0.984645 0.012801 0.130117
v 0.980706 0.012799 0.130496
v 0.979745 0.012802 0.130062
v 0.985433 0.012796 0.131112
v 0.980706 0.012799 0.130496
v 0.984645 0.012801 0.130117
v 0.985433 0.012796 0.131112
v 0.981548 0.012796 0.131033
v 0.980706 0.012799 0.130496
v 0.985433 0.012796 0.131112
v 0.982272 0.012793 0.131662
v 0.981548 0.012796 0.131033
v 0.986071 0.01279 0.132185
v 0.982272 0.012793 0.131662
v 0.985433 0.012796 0.131112
v 0.986071 0.01279 0.132185
v 0.982879 0.012789 0.132375
v 0.982272 0.012793 0.131662
v 0.986562 0.012784 0.133316
v 0.982879 0.012789 0.132375
v 0.986071 0.01279 0.132185
v 0.986562 0.012784 0.133316
v 0.983373 0.012785 0.133162
v 0.982879 0.012789 0.132375
v 0.986562 0.012784 0.133316
v 0.983753 0.01278 0.134012
v 0.983373 0.012785 0.133162
v 0.986909 0.012778 0.134483
v 0.983753 0.01278 0.134012
v 0.986562 0.012784 0.133316
v 0.986909 0.012778 0.134483
v 0.984023 0.012775 0.134916
v 0.983753 0.01278 0.134012
v 0.987115 0.012771 0.135669
v 0.984023 0.012775 0.134916
v 0.986909 0.012778 0.134483
v 0.987115 0.012771 0.135669
v 0.984184 0.01277 0.135866
v 0.984023 0.012775 0.134916
v 0.987183 0.012765 0.136851
v 0.984184 0.01277 0.135866
v 0.987115 0.012771 0.135669
v 0.987183 0.012765 0.136851
v 0.984237 0.012765 0.136851
v 0.984184 0.01277 0.135866
v 0.987183 0.012765 0.136851
v 0.984204 0.012761 0.13751
v 0.984237 0.012765 0.136851
v 0.987101 0.012758 0.138119
v 0.984204 0.012761 0.13751
v 0.987183 0.012765 0.136851
v 0.987101 0.012758 0.138119
v 0.984097 0.012757 0.138248
v 0.984204 0.012761 0.13751
v 0.986857 0.012751 0.13936
v 0.984097 0.012757 0.138248
v 0.987101 0.012758 0.138119
v 0.986857 0.012751 0.13936
v 0.983903 0.012753 0.139038
v 0.984097 0.012757 0.138248
v 0.986857 0.012751 0.13936
v 0.983611 0.012748 0.139852
v 0.983903 0.012753 0.139038
v 0.986456 0.012745 0.140558
v 0.983611 0.012748 0.139852
v 0.986857 0.012751 0.13936
v 0.986456 0.012745 0.140558
v 0.983209 0.012744 0.140668
v 0.983611 0.012748 0.139852
v 0.985904 0.012738 0.141698
v 0.983209 0.012744 0.140668
v 0.986456 0.012745 0.140558
v 0.985904 0.012738 0.141698
v 0.982684 0.01274 0.141459
v 0.983209 0.012744 0.140668
v 0.985904 0.012738 0.141698
v 0.982024 0.012736 0.142199
v 0.982684 0.01274 0.141459
v 0.985205 0.012732 0.142763
v 0.982024 0.012736 0.142199
v 0.985904 0.012738 0.141698
v 0.985205 0.012732 0.142763
v 0.981216 0.012732 0.142862
v 0.982024 0.012736 0.142199
v 0.984364 0.012727 0.143738
v 0.981216 0.012732 0.142862
v 0.985205 0.012732 0.142763
v 0.984364 0.012727 0.143738
v 0.98025 0.012729 0.143422
v 0.981216 0.012732 0.142862
v 0.984364 0.012727 0.143738
v 0.979112 0.012727 0.143854
v 0.98025 0.012729 0.143422
v 0.983387 0.012722 0.144607
v 0.979112 0.012727 0.143854
v 0.984364 0.012727 0.143738
v 0.983387 0.012722 0.144607
v 0.977791 0.012725 0.144131
v 0.979112 0.012727 0.143854
v 0.983387 0.012722 0.144607
v 0.976274 0.012725 0.14423
v 0.977791 0.012725 0.144131
v 0.976274 0.012725 0.14423
v 0.968865 0.012711 0.146797
v 0.971724 0.012725 0.14423
v 0.983387 0.012722 0.144607
v 0.968865 0.012711 0.146797
v 0.976274 0.012725 0.14423
v 0.982278 0.012718 0.145352
v 0.968865 0.012711 0.146797
v 0.983387 0.012722 0.144607
v 0.981042 0.012715 0.14596
v 0.968865 0.012711 0.146797
v 0.982278 0.012718 0.145352
v 0.979685 0.012713 0.146415
v 0.968865 0.012711 0.146797
v 0.981042 0.012715 0.14596
v 0.97821 0.012711 0.146699
v 0.968865 0.012711 0.146797
v 0.979685 0.012713 0.146415
v 0.976624 0.012711 0.146797
v 0.968865 0.012711 0.146797
v 0.97821 0.012711 0.146699
v 0.948301 0.012819 0.126904
v 0.946026 0.012711 0.146797
v 0.946026 0.012819 0.126904
v 0.948709 0.012794 0.131483
v 0.946026 0.012711 0.146797
v 0.948301 0.012819 0.126904
v 0.961777 0.012735 0.142305
v 0.948709 0.012794 0.131483
v 0.948301 0.012819 0.126904
v 0.96446 0.012819 0.126904
v 0.961777 0.012735 0.142305
v 0.961777 0.012819 0.126904
v 0.96446 0.012711 0.146797
v 0.961777 0.012735 0.142305
v 0.96446 0.012819 0.126904
v 0.948709 0.012711 0.146797
v 0.946026 0.012711 0.146797
v 0.948709 0.012794 0.131483
v 0.961777 0.012735 0.142305
v 0.96201 0.012711 0.146797
v 0.948709 0.012794 0.131483
v 0.96446 0.012711 0.146797
v 0.96201 0.012711 0.146797
v 0.961777 0.012735 0.142305
v 0.934329 0.012805 0.129471
v 0.931471 0.012711 0.146797
v 0.931471 0.012819 0.126904
v 0.942759 0.012819 0.126904
v 0.934329 0.012805 0.129471
v 0.931471 0.012819 0.126904
v 0.942759 0.012805 0.129471
v 0.934329 0.012805 0.129471
v 0.942759 0.012819 0.126904
v 0.934329 0.012772 0.135479
v 0.931471 0.012711 0.146797
v 0.934329 0.012805 0.129471
v 0.934329 0.012758 0.138047
v 0.931471 0.012711 0.146797
v 0.934329 0.012772 0.135479
v 0.942467 0.012772 0.135479
v 0.934329 0.012758 0.138047
v 0.934329 0.012772 0.135479
v 0.942467 0.012758 0.138047
v 0.934329 0.012758 0.138047
v 0.942467 0.012772 0.135479
v 0.934329 0.012725 0.14423
v 0.931471 0.012711 0.146797
v 0.934329 0.012758 0.138047
v 0.943021 0.012725 0.14423
v 0.931471 0.012711 0.146797
v 0.934329 0.012725 0.14423
v 0.943021 0.012711 0.146797
v 0.931471 0.012711 0.146797
v 0.943021 0.012725 0.14423
v 0.934329 0.018055 0.129499
v 0.934329 0.018022 0.135508
v 0.934329 0.012772 0.135479
v 0.934329 0.012805 0.129471
v 0.934329 0.018022 0.135508
v 0.942467 0.018022 0.135508
v 0.942467 0.012772 0.135479
v 0.934329 0.012772 0.135479
v 0.942467 0.018022 0.135508
v 0.942467 0.018008 0.138075
v 0.942467 0.012758 0.138047
v 0.942467 0.012772 0.135479
v 0.942467 0.018008 0.138075
v 0.934329 0.018008 0.138075
v 0.934329 0.012758 0.138047
v 0.942467 0.012758 0.138047
v 0.934329 0.018008 0.138075
v 0.934329 0.017975 0.144259
v 0.934329 0.012725 0.14423
v 0.934329 0.012758 0.138047
v 0.934329 0.017975 0.144259
v 0.943021 0.017975 0.144259
v 0.943021 0.012725 0.14423
v 0.934329 0.012725 0.14423
v 0.943021 0.017975 0.144259
v 0.943021 0.017961 0.146826
v 0.943021 0.012711 0.146797
v 0.943021 0.012725 0.14423
v 0.943021 0.017961 0.146826
v 0.931471 0.017961 0.146826
v 0.931471 0.012711 0.146797
v 0.943021 0.012711 0.146797
v 0.931471 0.017961 0.146826
v 0.931471 0.018069 0.126933
v 0.931471 0.012819 0.126904
v 0.931471 0.012711 0.146797
v 0.931471 0.018069 0.126933
v 0.942759 0.018069 0.126933
v 0.942759 0.012819 0.126904
v 0.931471 0.012819 0.126904
v 0.942759 0.018069 0.126933
v 0.942759 0.018055 0.129499
v 0.942759 0.012805 0.129471
v 0.942759 0.012819 0.126904
v 0.942759 0.018055 0.129499
v 0.934329 0.018055 0.129499
v 0.934329 0.012805 0.129471
v 0.942759 0.012805 0.129471
v 0.96201 0.017961 0.146826
v 0.948709 0.018044 0.131512
v 0.948709 0.012794 0.131483
v 0.96201 0.012711 0.146797
v 0.948709 0.018044 0.131512
v 0.948709 0.017961 0.146826
v 0.948709 0.012711 0.146797
v 0.948709 0.012794 0.131483
v 0.948709 0.017961 0.146826
v 0.946026 0.017961 0.146826
v 0.946026 0.012711 0.146797
v 0.948709 0.012711 0.146797
v 0.946026 0.017961 0.146826
v 0.946026 0.018069 0.126933
v 0.946026 0.012819 0.126904
v 0.946026 0.012711 0.146797
v 0.946026 0.018069 0.126933
v 0.948301 0.018069 0.126933
v 0.948301 0.012819 0.126904
v 0.946026 0.012819 0.126904
v 0.948301 0.018069 0.126933
v 0.961777 0.017985 0.142333
v 0.961777 0.012735 0.142305
v 0.948301 0.012819 0.126904
v 0.961777 0.017985 0.142333
v 0.961777 0.018069 0.126933
v 0.961777 0.012819 0.126904
v 0.961777 0.012735 0.142305
v 0.961777 0.018069 0.126933
v 0.96446 0.018069 0.126933
v 0.96446 0.012819 0.126904
v 0.961777 0.012819 0.126904
v 0.96446 0.018069 0.126933
v 0.96446 0.017961 0.146826
v 0.96446 0.012711 0.146797
v 0.96446 0.012819 0.126904
v 0.96446 0.017961 0.146826
v 0.96201 0.017961 0.146826
v 0.96201 0.012711 0.146797
v 0.96446 0.012711 0.146797
v 0.976595 0.018069 0.126933
v 0.978347 0.018069 0.127039
v 0.978347 0.012818 0.12701
v 0.976595 0.012819 0.126904
v 0.978347 0.018069 0.127039
v 0.979931 0.018067 0.127344
v 0.979931 0.012817 0.127315
v 0.978347 0.012818 0.12701
v 0.979931 0.018067 0.127344
v 0.98135 0.018064 0.127826
v 0.98135 0.012814 0.127798
v 0.979931 0.012817 0.127315
v 0.98135 0.018064 0.127826
v 0.982607 0.018061 0.128468
v 0.982607 0.012811 0.128439
v 0.98135 0.012814 0.127798
v 0.982607 0.018061 0.128468
v 0.983704 0.018057 0.129248
v 0.983704 0.012806 0.129219
v 0.982607 0.012811 0.128439
v 0.983704 0.018057 0.129248
v 0.984645 0.018052 0.130145
v 0.984645 0.012801 0.130117
v 0.983704 0.012806 0.129219
v 0.984645 0.018052 0.130145
v 0.985433 0.018046 0.131141
v 0.985433 0.012796 0.131112
v 0.984645 0.012801 0.130117
v 0.985433 0.018046 0.131141
v 0.986071 0.01804 0.132214
v 0.986071 0.01279 0.132185
v 0.985433 0.012796 0.131112
v 0.986071 0.01804 0.132214
v 0.986562 0.018034 0.133344
v 0.986562 0.012784 0.133316
v 0.986071 0.01279 0.132185
v 0.986562 0.018034 0.133344
v 0.986909 0.018028 0.134512
v 0.986909 0.012778 0.134483
v 0.986562 0.012784 0.133316
v 0.986909 0.018028 0.134512
v 0.987115 0.018021 0.135697
v 0.987115 0.012771 0.135669
v 0.986909 0.012778 0.134483
v 0.987115 0.018021 0.135697
v 0.987183 0.018015 0.136879
v 0.987183 0.012765 0.136851
v 0.987115 0.012771 0.135669
v 0.987183 0.018015 0.136879
v 0.987101 0.018008 0.138147
v 0.987101 0.012758 0.138119
v 0.987183 0.012765 0.136851
v 0.987101 0.018008 0.138147
v 0.986857 0.018001 0.139389
v 0.986857 0.012751 0.13936
v 0.987101 0.012758 0.138119
v 0.986857 0.018001 0.139389
v 0.986456 0.017995 0.140586
v 0.986456 0.012745 0.140558
v 0.986857 0.012751 0.13936
v 0.986456 0.017995 0.140586
v 0.985904 0.017989 0.141726
v 0.985904 0.012738 0.141698
v 0.986456 0.012745 0.140558
v 0.985904 0.017989 0.141726
v 0.985205 0.017983 0.142791
v 0.985205 0.012732 0.142763
v 0.985904 0.012738 0.141698
v 0.985205 0.017983 0.142791
v 0.984364 0.017977 0.143766
v 0.984364 0.012727 0.143738
v 0.985205 0.012732 0.142763
v 0.984364 0.017977 0.143766
v 0.983387 0.017973 0.144635
v 0.983387 0.012722 0.144607
v 0.984364 0.012727 0.143738
v 0.983387 0.017973 0.144635
v 0.982278 0.017969 0.145381
v 0.982278 0.012718 0.145352
v 0.983387 0.012722 0.144607
v 0.982278 0.017969 0.145381
v 0.981042 0.017965 0.14599
v 0.981042 0.012715 0.14596
v 0.982278 0.012718 0.145352
v 0.981042 0.017965 0.14599
v 0.979685 0.017963 0.146443
v 0.979685 0.012713 0.146415
v 0.981042 0.012715 0.14596
v 0.979685 0.017963 0.146443
v 0.97821 0.017961 0.146728
v 0.97821 0.012711 0.146699
v 0.979685 0.012713 0.146415
v 0.97821 0.017961 0.146728
v 0.976624 0.017961 0.146826
v 0.976624 0.012711 0.146797
v 0.97821 0.012711 0.146699
v 0.976624 0.017961 0.146826
v 0.968865 0.017961 0.146826
v 0.968865 0.012711 0.146797
v 0.976624 0.012711 0.146797
v 0.968865 0.017961 0.146826
v 0.968865 0.018069 0.126933
v 0.968865 0.012819 0.126904
v 0.968865 0.012711 0.146797
v 0.968865 0.018069 0.126933
v 0.976595 0.018069 0.126933
v 0.976595 0.012819 0.126904
v 0.968865 0.012819 0.126904
v 0.976274 0.017975 0.144259
v 0.977791 0.017975 0.14416
v 0.977791 0.012725 0.144131
v 0.976274 0.012725 0.14423
v 0.977791 0.017975 0.14416
v 0.979112 0.017977 0.143882
v 0.979112 0.012727 0.143854
v 0.977791 0.012725 0.144131
v 0.979112 0.017977 0.143882
v 0.98025 0.017979 0.14345
v 0.98025 0.012729 0.143422
v 0.979112 0.012727 0.143854
v 0.98025 0.017979 0.14345
v 0.981216 0.017982 0.14289
v 0.981216 0.012732 0.142862
v 0.98025 0.012729 0.143422
v 0.981216 0.017982 0.14289
v 0.982024 0.017986 0.142227
v 0.982024 0.012736 0.142199
v 0.981216 0.012732 0.142862
v 0.982024 0.017986 0.142227
v 0.982684 0.01799 0.141488
v 0.982684 0.01274 0.141459
v 0.982024 0.012736 0.142199
v 0.982684 0.01799 0.141488
v 0.983209 0.017994 0.140697
v 0.983209 0.012744 0.140668
v 0.982684 0.01274 0.141459
v 0.983209 0.017994 0.140697
v 0.983611 0.017999 0.139882
v 0.983611 0.012748 0.139852
v 0.983209 0.012744 0.140668
v 0.983611 0.017999 0.139882
v 0.983903 0.018003 0.139066
v 0.983903 0.012753 0.139038
v 0.983611 0.012748 0.139852
v 0.983903 0.018003 0.139066
v 0.984097 0.018007 0.138277
v 0.984097 0.012757 0.138248
v 0.983903 0.012753 0.139038
v 0.984097 0.018007 0.138277
v 0.984204 0.018011 0.137539
v 0.984204 0.012761 0.13751
v 0.984097 0.012757 0.138248
v 0.984204 0.018011 0.137539
v 0.984237 0.018015 0.136879
v 0.984237 0.012765 0.136851
v 0.984204 0.012761 0.13751
v 0.984237 0.018015 0.136879
v 0.984184 0.01802 0.135895
v 0.984184 0.01277 0.135866
v 0.984237 0.012765 0.136851
v 0.984184 0.01802 0.135895
v 0.984023 0.018026 0.134945
v 0.984023 0.012775 0.134916
v 0.984184 0.01277 0.135866
v 0.984023 0.018026 0.134945
v 0.983753 0.01803 0.134041
v 0.983753 0.01278 0.134012
v 0.984023 0.012775 0.134916
v 0.983753 0.01803 0.134041
v 0.983373 0.018035 0.13319
v 0.983373 0.012785 0.133162
v 0.983753 0.01278 0.134012
v 0.983373 0.018035 0.13319
v 0.982879 0.018039 0.132403
v 0.982879 0.012789 0.132375
v 0.983373 0.012785 0.133162
v 0.982879 0.018039 0.132403
v 0.982272 0.018043 0.131691
v 0.982272 0.012793 0.131662
v 0.982879 0.012789 0.132375
v 0.982272 0.018043 0.131691
v 0.981548 0.018047 0.131061
v 0.981548 0.012796 0.131033
v 0.982272 0.012793 0.131662
v 0.981548 0.018047 0.131061
v 0.980706 0.01805 0.130525
v 0.980706 0.012799 0.130496
v 0.981548 0.012796 0.131033
v 0.980706 0.01805 0.130525
v 0.979745 0.018052 0.130091
v 0.979745 0.012802 0.130062
v 0.980706 0.012799 0.130496
v 0.979745 0.018052 0.130091
v 0.978663 0.018054 0.129769
v 0.978663 0.012803 0.12974
v 0.979745 0.012802 0.130062
v 0.978663 0.018054 0.129769
v 0.977458 0.018055 0.129569
v 0.977458 0.012805 0.12954
v 0.978663 0.012803 0.12974
v 0.977458 0.018055 0.129569
v 0.976128 0.018055 0.129499
v 0.976128 0.012805 0.129471
v 0.977458 0.012805 0.12954
v 0.976128 0.018055 0.129499
v 0.971724 0.018055 0.129499
v 0.971724 0.012805 0.129471
v 0.976128 0.012805 0.129471
v 0.971724 0.018055 0.129499
v 0.971724 0.017975 0.144259
v 0.971724 0.012725 0.14423
v 0.971724 0.012805 0.129471
v 0.971724 0.017975 0.144259
v 0.976274 0.017975 0.144259
v 0.976274 0.012725 0.14423
v 0.971724 0.012725 0.14423
vn -0 1 0.0054
vn -0 1 0.0054
vn -0 1 0.0054
vn -0 1 0.0054
vn -0.0001 1 0.0053
vn -0 1 0.0054
vn -0 1 0.0054
vn -0 1 0.0055
vn -0.0001 1 0.0053
vn -0 1 0.0054
vn -0 1 0.0054
vn -0 1 0.0055
vn -0 1 0.0054
vn -0 1 0.0055
vn -0 1 0.0054
vn -0 1 0.0054
vn -0.0001 1 0.0051
vn -0 1 0.0055
vn -0 1 0.0054
vn -0 1 0.0055
vn -0.0001 1 0.0051
vn -0 1 0.0054
vn -0 1 0.006
vn -0 1 0.0055
vn -0 1 0.006
vn -0 1 0.0054
vn -0 1 0.0055
vn -0 1 0.0054
vn -0 1 0.0055
vn -0 1 0.0055
vn -0 1 0.0054
vn -0 1 0.0054
vn -0 1 0.0054
vn -0 1 0.0053
vn -0 1 0.0055
vn -0 1 0.0054
vn -0 1 0.0056
vn -0 1 0.0055
vn -0 1 0.0053
vn -0 1 0.0054
vn -0 1 0.0055
vn -0 1 0.0056
vn -0 1 0.0054
vn -0 1 0.0057
vn -0 1 0.0055
vn 0.0001 1 0.0055
vn -0 1 0.0057
vn -0 1 0.0054
vn 0.0001 1 0.006
vn -0 1 0.0057
vn 0.0001 1 0.0055
vn 0.0001 1 0.006
vn -0 1 0.0054
vn -0 1 0.0057
vn -0 1 0.0054
vn -0 1 0.0054
vn 0.0001 1 0.006
vn -0 1 0.0054
vn -0.0001 1 0.0053
vn -0 1 0.0054
vn 0.0001 1 0.0053
vn -0.0001 1 0.0053
vn -0 1 0.0054
vn -0 1 0.0053
vn -0.0001 1 0.0053
vn 0.0001 1 0.0053
vn -0 1 0.0053
vn -0 1 0.0055
vn -0.0001 1 0.0053
vn -0 1 0.0053
vn -0 1 0.0055
vn -0 1 0.0053
vn -0 1 0.0053
vn 0.0001 1 0.0055
vn -0 1 0.0055
vn -0 1 0.0057
vn 0.0001 1 0.0055
vn -0 1 0.0053
vn -0 1 0.0057
vn -0.0001 1 0.0053
vn 0.0001 1 0.0055
vn -0 1 0.0056
vn -0.0001 1 0.0053
vn -0 1 0.0057
vn -0.0001 1 0.0057
vn -0.0001 1 0.0053
vn -0 1 0.0056
vn -0.0001 1 0.0057
vn -0.0001 1 0.0056
vn -0.0001 1 0.0053
vn -0 1 0.0053
vn -0.0001 1 0.0056
vn -0.0001 1 0.0057
vn -0 1 0.0053
vn -0 1 0.0053
vn -0.0001 1 0.0056
vn 0.0001 1 0.0054
vn -0 1 0.0053
vn -0 1 0.0053
vn -0 1 0.0056
vn -0 1 0.0053
vn 0.0001 1 0.0054
vn -0 1 0.0056
vn -0 1 0.0052
vn -0 1 0.0053
vn -0.0001 1 0.0054
vn -0 1 0.0052
vn -0 1 0.0056
vn -0.0001 1 0.0054
vn -0.0001 1 0.0053
vn -0 1 0.0052
vn -0.0001 1 0.0052
vn -0.0001 1 0.0053
vn -0.0001 1 0.0054
vn -0.0001 1 0.0058
vn -0.0001 1 0.0053
vn -0.0001 1 0.0052
vn -0.0001 1 0.0058
vn -0.0001 1 0.0058
vn -0.0001 1 0.0053
vn -0 1 0.0056
vn -0.0001 1 0.0058
vn -0.0001 1 0.0058
vn -0 1 0.0056
vn -0 1 0.0057
vn -0.0001 1 0.0058
vn -0 1 0.0058
vn -0 1 0.0057
vn -0 1 0.0056
vn -0 1 0.0054
vn -0 1 0.0057
vn -0 1 0.0058
vn -0 1 0.0054
vn 0.0001 1 0.0049
vn -0 1 0.0057
vn -0 1 0.0052
vn 0.0001 1 0.0049
vn -0 1 0.0054
vn -0 1 0.0053
vn 0.0001 1 0.0049
vn -0 1 0.0052
vn -0 1 0.0054
vn -0 1 0.0053
vn -0 1 0.0054
vn -0 1 0.0054
vn 0.0001 1 0.0049
vn -0 1 0.0053
vn -0 1 0.0054
vn -0 1 0.0055
vn 0.0001 1 0.0049
vn -0 1 0.0054
vn -0 1 0.0055
vn -0 1 0.0055
vn -0 1 0.0054
vn -0 1 0.0059
vn -0 1 0.0055
vn -0 1 0.0054
vn -0 1 0.0053
vn -0 1 0.0059
vn -0 1 0.0054
vn -0 1 0.0056
vn -0 1 0.0053
vn -0 1 0.0054
vn -0 1 0.0054
vn -0 1 0.0054
vn -0 1 0.0054
vn 0.0001 1 0.0054
vn -0 1 0.0054
vn 0.0001 1 0.0054
vn -0 1 0.0054
vn -0 1 0.0054
vn -0 1 0.0054
vn -0 1 0.0055
vn -0 1 0.0055
vn -0 1 0.0054
vn -0.0001 1 0.0054
vn -0 1 0.0055
vn -0 1 0.0054
vn -0 1 0.0054
vn 0.0001 1 0.0054
vn -0 1 0.0053
vn -0 1 0.0054
vn 0.0001 1 0.0054
vn -0 1 0.0053
vn -0.0001 1 0.0054
vn -0 1 0.0054
vn -0 1 0.0054
vn -0 1 0.0054
vn -0 1 0.0054
vn -0 1 0.0054
vn -0 1 0.0055
vn -0 1 0.0054
vn -0 1 0.0054
vn -0 1 0.0055
vn -0 1 0.0055
vn -0 1 0.0054
vn -0.0001 1 0.0055
vn -0 1 0.0054
vn -0 1 0.0054
vn 0.0001 1 0.0054
vn -0.0001 1 0.0055
vn 0.0001 1 0.0054
vn -0 1 0.0055
vn -0.0001 1 0.0055
vn 0.0001 1 0.0054
vn -0 1 0.0055
vn -0 1 0.0055
vn -0 1 0.0054
vn -0.0001 1 0.0054
vn 0.0001 1 0.0054
vn -0 1 0.0054
vn -0 1 0.0055
vn -0.0001 1 0.0054
vn -0 1 0.0054
vn -0 1 0.0055
vn -0 1 0.0055
vn -0 -1 -0.0054
vn -0 -1 -0.0054
vn -0 -1 -0.0054
vn -0 -1 -0.0055
vn -0 -1 -0.0054
vn -0 -1 -0.0054
vn 0.0001 -1 -0.0051
vn -0 -1 -0.0054
vn -0 -1 -0.0055
vn 0.0001 -1 -0.0054
vn -0 -1 -0.0054
vn 0.0001 -1 -0.0051
vn 0.0001 -1 -0.005
vn -0 -1 -0.0054
vn 0.0001 -1 -0.0054
vn -0 -1 -0.0061
vn -0 -1 -0.0054
vn 0.0001 -1 -0.005
vn -0.0001 -1 -0.0056
vn -0 -1 -0.0054
vn -0 -1 -0.0061
vn -0 -1 -0.0055
vn -0 -1 -0.0054
vn -0.0001 -1 -0.0056
vn -0 -1 -0.0053
vn -0 -1 -0.0055
vn -0.0001 -1 -0.0056
vn -0 -1 -0.0052
vn -0 -1 -0.0053
vn -0.0001 -1 -0.0056
vn -0 -1 -0.0054
vn -0 -1 -0.0054
vn -0 -1 -0.0054
vn -0 -1 -0.0052
vn -0 -1 -0.0055
vn -0 -1 -0.0053
vn -0 -1 -0.0052
vn -0 -1 -0.0053
vn -0 -1 -0.0055
vn -0 -1 -0.0052
vn -0 -1 -0.0057
vn -0 -1 -0.0053
vn -0 -1 -0.0054
vn -0 -1 -0.0057
vn -0 -1 -0.0052
vn -0 -1 -0.0054
vn 0.0001 -1 -0.0056
vn -0 -1 -0.0057
vn -0 -1 -0.0054
vn -0 -1 -0.0054
vn 0.0001 -1 -0.0056
vn -0 -1 -0.0054
vn -0 -1 -0.0054
vn -0 -1 -0.0054
vn -0 -1 -0.0054
vn -0 -1 -0.0054
vn -0 -1 -0.0054
vn 0.0001 -1 -0.0053
vn -0 -1 -0.0054
vn -0 -1 -0.0054
vn 0.0001 -1 -0.0053
vn -0.0001 -1 -0.0053
vn -0 -1 -0.0054
vn 0.0001 -1 -0.0053
vn 0.0001 -1 -0.0057
vn -0.0001 -1 -0.0053
vn 0.0002 -1 -0.0056
vn 0.0001 -1 -0.0057
vn 0.0001 -1 -0.0053
vn 0.0002 -1 -0.0056
vn 0.0001 -1 -0.0055
vn 0.0001 -1 -0.0057
vn 0.0001 -1 -0.0054
vn 0.0001 -1 -0.0055
vn 0.0002 -1 -0.0056
vn 0.0001 -1 -0.0054
vn -0 -1 -0.0055
vn 0.0001 -1 -0.0055
vn 0.0001 -1 -0.0053
vn -0 -1 -0.0055
vn 0.0001 -1 -0.0054
vn 0.0001 -1 -0.0053
vn -0 -1 -0.0056
vn -0 -1 -0.0055
vn 0.0001 -1 -0.0053
vn -0 -1 -0.0054
vn -0 -1 -0.0056
vn 0.0001 -1 -0.0056
vn -0 -1 -0.0054
vn 0.0001 -1 -0.0053
vn 0.0001 -1 -0.0056
vn -0 -1 -0.0053
vn -0 -1 -0.0054
vn 0.0001 -1 -0.0054
vn -0 -1 -0.0053
vn 0.0001 -1 -0.0056
vn 0.0001 -1 -0.0054
vn -0.0001 -1 -0.0057
vn -0 -1 -0.0053
vn 0.0001 -1 -0.0054
vn 0.0001 -1 -0.0053
vn -0.0001 -1 -0.0057
vn 0.0001 -1 -0.0054
vn 0.0001 -1 -0.0053
vn 0.0001 -1 -0.0054
vn 0.0001 -1 -0.0054
vn -0.0001 -1 -0.0052
vn 0.0001 -1 -0.0053
vn -0 -1 -0.0059
vn -0.0001 -1 -0.0052
vn 0.0001 -1 -0.0054
vn -0 -1 -0.0059
vn -0.0002 -1 -0.0055
vn -0.0001 -1 -0.0052
vn -0 -1 -0.0059
vn -0.0002 -1 -0.006
vn -0.0002 -1 -0.0055
vn -0.0002 -1 -0.0057
vn -0.0002 -1 -0.006
vn -0 -1 -0.0059
vn -0.0002 -1 -0.0057
vn -0 -1 -0.0053
vn -0.0002 -1 -0.006
vn -0.0001 -1 -0.0054
vn -0 -1 -0.0053
vn -0.0002 -1 -0.0057
vn -0.0001 -1 -0.0054
vn -0 -1 -0.0053
vn -0 -1 -0.0053
vn -0.0001 -1 -0.0054
vn -0 -1 -0.0057
vn -0 -1 -0.0053
vn -0.0001 -1 -0.0058
vn -0 -1 -0.0057
vn -0.0001 -1 -0.0054
vn -0.0001 -1 -0.0058
vn -0 -1 -0.0053
vn -0 -1 -0.0057
vn -0.0001 -1 -0.0058
vn -0.0001 -1 -0.0057
vn -0 -1 -0.0053
vn -0.0001 -1 -0.0057
vn -0 -1 -0.0054
vn -0 -1 -0.0054
vn -0.0001 -1 -0.0058
vn -0 -1 -0.0054
vn -0.0001 -1 -0.0057
vn -0.0001 -1 -0.0054
vn -0 -1 -0.0054
vn -0.0001 -1 -0.0058
vn -0 -1 -0.0049
vn -0 -1 -0.0054
vn -0.0001 -1 -0.0054
vn -0 -1 -0.0056
vn -0 -1 -0.0054
vn -0 -1 -0.0049
vn -0 -1 -0.0054
vn -0 -1 -0.0054
vn -0 -1 -0.0056
vn -0 -1 -0.0055
vn -0 -1 -0.0054
vn -0 -1 -0.0054
vn -0 -1 -0.0054
vn -0 -1 -0.0054
vn -0 -1 -0.0054
vn -0.0001 -1 -0.0054
vn -0 -1 -0.0054
vn -0 -1 -0.0054
vn -0 -1 -0.0054
vn -0.0001 -1 -0.0054
vn -0 -1 -0.0054
vn -0 -1 -0.0055
vn -0 -1 -0.0054
vn -0 -1 -0.0055
vn -0 -1 -0.0054
vn -0 -1 -0.0054
vn -0 -1 -0.0055
vn -0 -1 -0.0054
vn -0 -1 -0.0054
vn -0.0001 -1 -0.0054
vn -0 -1 -0.0054
vn -0 -1 -0.0053
vn -0.0001 -1 -0.0054
vn -0 -1 -0.0054
vn -0 -1 -0.0053
vn -0 -1 -0.0054
vn -0 -1 -0.0054
vn -0 -1 -0.0054
vn -0 -1 -0.0054
vn -0 -1 -0.0055
vn -0 -1 -0.0054
vn -0 -1 -0.0054
vn -0 -1 -0.0055
vn -0 -1 -0.0054
vn -0 -1 -0.0055
vn 0.0001 -1 -0.0054
vn -0 -1 -0.0054
vn -0 -1 -0.0054
vn -0.0001 -1 -0.0054
vn -0 -1 -0.0054
vn 0.0001 -1 -0.0054
vn -0 -1 -0.0055
vn -0.0001 -1 -0.0054
vn 0.0001 -1 -0.0054
vn -0 -1 -0.0055
vn -0.0001 -1 -0.0054
vn -0 -1 -0.0055
vn 0.0001 -1 -0.0054
vn -0 -1 -0.0054
vn -0.0001 -1 -0.0054
vn -0 -1 -0.0055
vn -0 -1 -0.0054
vn 0.0001 -1 -0.0054
vn -0 -1 -0.0055
vn -0 -1 -0.0054
vn -0 -1 -0.0055
vn 0.7071 -0.0038 0.7071
vn 0.7071 0.0039 -0.7071
vn 0.7071 0.0039 -0.7071
vn 0.7071 -0.0038 0.7071
vn 0.7071 0.0039 -0.7071
vn 0.7071 0.0039 -0.7071
vn 0.7071 0.0039 -0.7071
vn 0.7071 0.0039 -0.7071
vn 0.7071 0.0039 -0.7071
vn 0.7071 -0.0038 0.7071
vn 0.7071 -0.0038 0.7071
vn 0.7071 0.0039 -0.7071
vn 0.7071 -0.0038 0.7071
vn 0.7071 -0.0038 0.7071
vn 0.7071 -0.0038 0.7071
vn 0.7071 -0.0038 0.7071
vn 0.7071 -0.0038 0.7071
vn 0.7071 0.0039 -0.7071
vn 0.7071 0.0039 -0.7071
vn 0.7071 -0.0038 0.7071
vn 0.7071 0.0039 -0.7071
vn 0.7071 0.0039 -0.7071
vn 0.7071 0.0039 -0.7071
vn 0.7071 0.0039 -0.7071
vn 0.7071 0.0039 -0.7071
vn 0.7071 -0.0039 0.7071
vn 0.7071 -0.0039 0.7071
vn 0.7071 0.0039 -0.7071
vn 0.7071 -0.0039 0.7071
vn -0.7071 -0.0036 0.7071
vn -0.7071 -0.0039 0.7071
vn 0.7071 -0.0039 0.7071
vn -0.7071 -0.0036 0.7071
vn -0.7071 0.0039 -0.7071
vn -0.7071 0.0039 -0.7071
vn -0.7071 -0.0039 0.7071
vn -0.7071 0.0039 -0.7071
vn 0.7071 0.0039 -0.7071
vn 0.7071 0.0039 -0.7071
vn -0.7071 0.0039 -0.7071
vn 0.7071 0.0039 -0.7071
vn 0.7071 -0.0038 0.7071
vn 0.7071 -0.0038 0.7071
vn 0.7071 0.0039 -0.7071
vn 0.7071 -0.0038 0.7071
vn 0.7071 -0.0038 0.7071
vn 0.7071 -0.0038 0.7071
vn 0.7071 -0.0038 0.7071
vn -0.4149 -0.005 0.9099
vn 0.35 -0.0052 0.9367
vn 0.35 -0.0052 0.9367
vn -0.4149 -0.005 0.9099
vn 0.35 -0.0052 0.9367
vn 0.7071 -0.0039 0.7071
vn 0.7071 -0.0039 0.7071
vn 0.35 -0.0052 0.9367
vn 0.7071 -0.0039 0.7071
vn -0.7071 -0.0039 0.7071
vn -0.7071 -0.0039 0.7071
vn 0.7071 -0.0039 0.7071
vn -0.7071 -0.0039 0.7071
vn -0.7071 0.0039 -0.7071
vn -0.7071 0.0039 -0.7071
vn -0.7071 -0.0039 0.7071
vn -0.7071 0.0039 -0.7071
vn 0.4132 0.005 -0.9106
vn 0.4132 0.005 -0.9106
vn -0.7071 0.0039 -0.7071
vn 0.4132 0.005 -0.9106
vn -0.3518 0.0051 -0.9361
vn -0.3517 0.0051 -0.9361
vn 0.4132 0.005 -0.9106
vn -0.3518 0.0051 -0.9361
vn -0.7071 0.0039 -0.7071
vn -0.7071 0.0039 -0.7071
vn -0.3517 0.0051 -0.9361
vn -0.7071 0.0039 -0.7071
vn 0.7071 0.0039 -0.7071
vn 0.7071 0.0039 -0.7071
vn -0.7071 0.0039 -0.7071
vn 0.7071 0.0039 -0.7071
vn 0.7071 -0.0039 0.7071
vn 0.7071 -0.0039 0.7071
vn 0.7071 0.0039 -0.7071
vn 0.7071 -0.0039 0.7071
vn -0.4149 -0.005 0.9099
vn -0.4149 -0.005 0.9099
vn 0.7071 -0.0039 0.7071
vn 0.0302 0.0055 -0.9995
vn 0.125 0.0055 -0.9921
vn 0.125 0.0055 -0.9921
vn 0.0302 0.0055 -0.9995
vn 0.125 0.0055 -0.9921
vn 0.2561 0.0053 -0.9666
vn 0.2561 0.0053 -0.9666
vn 0.125 0.0055 -0.9921
vn 0.2561 0.0053 -0.9666
vn 0.3896 0.005 -0.921
vn 0.3893 0.005 -0.9211
vn 0.2561 0.0053 -0.9666
vn 0.3896 0.005 -0.921
vn 0.5184 0.0047 -0.8551
vn 0.5184 0.0047 -0.8551
vn 0.3893 0.005 -0.9211
vn 0.5184 0.0047 -0.8551
vn 0.6365 0.0042 -0.7713
vn 0.6365 0.0042 -0.7713
vn 0.5184 0.0047 -0.8551
vn 0.6365 0.0042 -0.7713
vn 0.7389 0.0037 -0.6738
vn 0.7389 0.0037 -0.6738
vn 0.6365 0.0042 -0.7713
vn 0.7389 0.0037 -0.6738
vn 0.8236 0.0031 -0.5671
vn 0.8236 0.0031 -0.5671
vn 0.7389 0.0037 -0.6738
vn 0.8236 0.0031 -0.5671
vn 0.8902 0.0025 -0.4556
vn 0.8902 0.0025 -0.4556
vn 0.8236 0.0031 -0.5671
vn 0.8902 0.0025 -0.4556
vn 0.9396 0.0019 -0.3422
vn 0.9396 0.0019 -0.3422
vn 0.8902 0.0025 -0.4556
vn 0.9396 0.0019 -0.3422
vn 0.9736 0.0012 -0.2284
vn 0.9736 0.0012 -0.2281
vn 0.9396 0.0019 -0.3422
vn 0.9736 0.0012 -0.2284
vn 0.9934 0.0006 -0.1145
vn 0.9934 0.0006 -0.1145
vn 0.9736 0.0012 -0.2281
vn 0.9934 0.0006 -0.1145
vn 1 -0 0.0036
vn 1 -0 0.0036
vn 0.9934 0.0006 -0.1145
vn 1 -0 0.0036
vn 0.9917 -0.0007 0.1289
vn 0.9916 -0.0007 0.1293
vn 1 -0 0.0036
vn 0.9917 -0.0007 0.1289
vn 0.9667 -0.0014 0.2557
vn 0.9667 -0.0014 0.2557
vn 0.9916 -0.0007 0.1293
vn 0.9667 -0.0014 0.2557
vn 0.926 -0.002 0.3774
vn 0.9262 -0.002 0.3771
vn 0.9667 -0.0014 0.2557
vn 0.926 -0.002 0.3774
vn 0.8699 -0.0026 0.4933
vn 0.8699 -0.0026 0.4933
vn 0.9262 -0.002 0.3771
vn 0.8699 -0.0026 0.4933
vn 0.7983 -0.0032 0.6022
vn 0.7983 -0.0032 0.6022
vn 0.8699 -0.0026 0.4933
vn 0.7983 -0.0032 0.6022
vn 0.7125 -0.0037 0.7017
vn 0.7125 -0.0037 0.7017
vn 0.7983 -0.0032 0.6022
vn 0.7125 -0.0037 0.7017
vn 0.6126 -0.0043 0.7903
vn 0.6126 -0.0043 0.7903
vn 0.7125 -0.0037 0.7017
vn 0.6126 -0.0043 0.7903
vn 0.5009 -0.0048 0.8655
vn 0.5009 -0.0048 0.8655
vn 0.6126 -0.0043 0.7903
vn 0.5009 -0.0048 0.8655
vn 0.38 -0.0051 0.925
vn 0.3804 -0.0052 0.9248
vn 0.5009 -0.0048 0.8655
vn 0.38 -0.0051 0.925
vn 0.2539 -0.0053 0.9672
vn 0.2539 -0.0053 0.9672
vn 0.3804 -0.0052 0.9248
vn 0.2539 -0.0053 0.9672
vn 0.1258 -0.0054 0.992
vn 0.1258 -0.0054 0.992
vn 0.2539 -0.0053 0.9672
vn 0.1258 -0.0054 0.992
vn 0.0308 -0.0055 0.9995
vn 0.0309 -0.0055 0.9995
vn 0.1258 -0.0054 0.992
vn 0.0308 -0.0055 0.9995
vn -0.7071 -0.0039 0.7071
vn -0.7071 -0.0039 0.7071
vn 0.0309 -0.0055 0.9995
vn -0.7071 -0.0039 0.7071
vn -0.7071 0.0039 -0.7071
vn -0.7071 0.0039 -0.7071
vn -0.7071 -0.0039 0.7071
vn -0.7071 0.0039 -0.7071
vn 0.0302 0.0055 -0.9995
vn 0.0302 0.0055 -0.9995
vn -0.7071 0.0039 -0.7071
vn -0.0324 0.0052 -0.9995
vn -0.1357 0.0054 -0.9907
vn -0.1357 0.0054 -0.9907
vn -0.0326 0.0055 -0.9995
vn -0.1357 0.0054 -0.9907
vn -0.2816 0.0054 -0.9595
vn -0.2815 0.0054 -0.9595
vn -0.1357 0.0054 -0.9907
vn -0.2816 0.0054 -0.9595
vn -0.4296 0.0048 -0.903
vn -0.4296 0.0048 -0.903
vn -0.2815 0.0054 -0.9595
vn -0.4296 0.0048 -0.903
vn -0.5698 0.0044 -0.8218
vn -0.5698 0.0044 -0.8218
vn -0.4296 0.0048 -0.903
vn -0.5698 0.0044 -0.8218
vn -0.6923 0.0039 -0.7216
vn -0.6923 0.0039 -0.7216
vn -0.5698 0.0044 -0.8218
vn -0.6923 0.0039 -0.7216
vn -0.7916 0.0033 -0.611
vn -0.7917 0.0033 -0.611
vn -0.6923 0.0039 -0.7216
vn -0.7916 0.0033 -0.611
vn -0.8667 0.0027 -0.4988
vn -0.8669 0.0028 -0.4986
vn -0.7917 0.0033 -0.611
vn -0.8667 0.0027 -0.4988
vn -0.9207 0.0022 -0.3903
vn -0.9207 0.0022 -0.3903
vn -0.8669 0.0028 -0.4986
vn -0.9207 0.0022 -0.3903
vn -0.9575 0.0016 -0.2884
vn -0.9575 0.0016 -0.2883
vn -0.9207 0.0022 -0.3903
vn -0.9575 0.0016 -0.2884
vn -0.9816 0.001 -0.191
vn -0.9816 0.001 -0.191
vn -0.9575 0.0016 -0.2883
vn -0.9816 0.001 -0.191
vn -0.9953 0.0005 -0.0968
vn -0.9953 0.0005 -0.0969
vn -0.9816 0.001 -0.191
vn -0.9953 0.0005 -0.0968
vn -1 -0 0.0019
vn -1 -0 0.0019
vn -0.9953 0.0005 -0.0969
vn -1 -0 0.0019
vn -0.9939 -0.0006 0.1106
vn -0.9939 -0.0006 0.1106
vn -1 -0 0.0019
vn -0.9939 -0.0006 0.1106
vn -0.974 -0.0012 0.2267
vn -0.9739 -0.0013 0.2271
vn -0.9939 -0.0006 0.1106
vn -0.974 -0.0012 0.2267
vn -0.9376 -0.0019 0.3478
vn -0.9376 -0.0019 0.3478
vn -0.9739 -0.0013 0.2271
vn -0.9376 -0.0019 0.3478
vn -0.8822 -0.0025 0.471
vn -0.8822 -0.0025 0.4709
vn -0.9376 -0.0019 0.3478
vn -0.8822 -0.0025 0.471
vn -0.8062 -0.0032 0.5916
vn -0.8062 -0.0032 0.5916
vn -0.8822 -0.0025 0.4709
vn -0.8062 -0.0032 0.5916
vn -0.7107 -0.0038 0.7035
vn -0.7107 -0.0038 0.7035
vn -0.8062 -0.0032 0.5916
vn -0.7107 -0.0038 0.7035
vn -0.5986 -0.0045 0.801
vn -0.5986 -0.0045 0.801
vn -0.7107 -0.0038 0.7035
vn -0.5986 -0.0045 0.801
vn -0.4762 -0.0048 0.8794
vn -0.476 -0.0048 0.8794
vn -0.5986 -0.0045 0.801
vn -0.4762 -0.0048 0.8794
vn -0.3492 -0.0052 0.937
vn -0.3492 -0.0052 0.937
vn -0.476 -0.0048 0.8794
vn -0.3492 -0.0052 0.937
vn -0.2249 -0.0054 0.9744
vn -0.2249 -0.0054 0.9744
vn -0.3492 -0.0052 0.937
vn -0.2249 -0.0054 0.9744
vn -0.1081 -0.0054 0.9941
vn -0.1078 -0.0054 0.9942
vn -0.2249 -0.0054 0.9744
vn -0.1081 -0.0054 0.9941
vn -0.0258 -0.0054 0.9997
vn -0.0261 -0.0054 0.9996
vn -0.1078 -0.0054 0.9942
vn -0.0258 -0.0054 0.9997
vn 0.7071 -0.0038 0.7071
vn 0.7071 -0.0038 0.7071
vn -0.0261 -0.0054 0.9996
vn 0.7071 -0.0038 0.7071
vn 0.7071 0.0039 -0.7071
vn 0.7071 0.0039 -0.7071
vn 0.7071 -0.0038 0.7071
vn 0.7071 0.0039 -0.7071
vn -0.0324 0.0052 -0.9995
vn -0.0326 0.0055 -0.9995
vn 0.7071 0.0039 -0.7071
vt 0.471698 1
vt 0.981132 1
vt 0.490566 1
vt 0.981132 1
vt 0 1
vt 0.490566 1
vt 0.981132 1
vt 0.018868 1
vt 0 1
vt 0.981132 1
vt 0.037736 1
vt 0.018868 1
vt 0.981132 1
vt 0.056604 1
vt 0.037736 1
vt 0.981132 1
vt 0.075472 1
vt 0.056604 1
vt 0.981132 1
vt 0.09434 1
vt 0.075472 1
vt 0.981132 1
vt 0.962264 1
vt 0.09434 1
vt 0.962264 1
vt 0.943396 1
vt 0.09434 1
vt 0.943396 1
vt 0.113208 1
vt 0.09434 1
vt 0.471698 1
vt 1 1
vt 0.981132 1
vt 0.924528 1
vt 0.113208 1
vt 0.943396 1
vt 0.90566 1
vt 0.113208 1
vt 0.924528 1
vt 0.886792 1
vt 0.113208 1
vt 0.90566 1
vt 0.886792 1
vt 0.132075 1
vt 0.113208 1
vt 0.867925 1
vt 0.132075 1
vt 0.886792 1
vt 0.849057 1
vt 0.132075 1
vt 0.867925 1
vt 0.849057 1
vt 0.150943 1
vt 0.132075 1
vt 0.830189 1
vt 0.150943 1
vt 0.849057 1
vt 0.830189 1
vt 0.169811 1
vt 0.150943 1
vt 0.811321 1
vt 0.169811 1
vt 0.830189 1
vt 0.792453 1
vt 0.169811 1
vt 0.811321 1
vt 0.792453 1
vt 0.188679 1
vt 0.169811 1
vt 0.773585 1
vt 0.188679 1
vt 0.792453 1
vt 0.773585 1
vt 0.207547 1
vt 0.188679 1
vt 0.754717 1
vt 0.207547 1
vt 0.773585 1
vt 0.754717 1
vt 0.226415 1
vt 0.207547 1
vt 0.735849 1
vt 0.226415 1
vt 0.754717 1
vt 0.716981 1
vt 0.226415 1
vt 0.735849 1
vt 0.716981 1
vt 0.245283 1
vt 0.226415 1
vt 0.698113 1
vt 0.245283 1
vt 0.716981 1
vt 0.698113 1
vt 0.264151 1
vt 0.245283 1
vt 0.679245 1
vt 0.264151 1
vt 0.698113 1
vt 0.660377 1
vt 0.264151 1
vt 0.679245 1
vt 0.660377 1
vt 0.283019 1
vt 0.264151 1
vt 0.641509 1
vt 0.283019 1
vt 0.660377 1
vt 0.641509 1
vt 0.301887 1
vt 0.283019 1
vt 0.622642 1
vt 0.301887 1
vt 0.641509 1
vt 0.603774 1
vt 0.301887 1
vt 0.622642 1
vt 0.603774 1
vt 0.320755 1
vt 0.301887 1
vt 0.584906 1
vt 0.320755 1
vt 0.603774 1
vt 0.584906 1
vt 0.339623 1
vt 0.320755 1
vt 0.566038 1
vt 0.339623 1
vt 0.584906 1
vt 0.54717 1
vt 0.339623 1
vt 0.566038 1
vt 0.54717 1
vt 0.358491 1
vt 0.339623 1
vt 0.528302 1
vt 0.358491 1
vt 0.54717 1
vt 0.509434 1
vt 0.358491 1
vt 0.528302 1
vt 0.471698 1
vt 0.509434 1
vt 1 1
vt 0.471698 1
vt 0.358491 1
vt 0.509434 1
vt 0.471698 1
vt 0.377358 1
vt 0.358491 1
vt 0.471698 1
vt 0.396226 1
vt 0.377358 1
vt 0.471698 1
vt 0.415094 1
vt 0.396226 1
vt 0.471698 1
vt 0.433962 1
vt 0.415094 1
vt 0.471698 1
vt 0.45283 1
vt 0.433962 1
vt 0.333333 1
vt 0.555556 1
vt 0.444444 1
vt 0.333333 1
vt 0.111111 1
vt 0.555556 1
vt 0.111111 1
vt 0.666667 1
vt 0.555556 1
vt 0.666667 1
vt 0.888889 1
vt 0.777778 1
vt 0.666667 1
vt 1 1
vt 0.888889 1
vt 0.333333 1
vt 0.222222 1
vt 0.111111 1
vt 0 1
vt 0.666667 1
vt 0.111111 1
vt 0 1
vt 1 1
vt 0.666667 1
vt 0.727273 1
vt 0 1
vt 0.818182 1
vt 0 1
vt 0.909091 1
vt 0.818182 1
vt 0 1
vt 1 1
vt 0.909091 1
vt 0.727273 1
vt 0.090909 1
vt 0 1
vt 0.727273 1
vt 0.363636 1
vt 0.090909 1
vt 0.363636 1
vt 0.181818 1
vt 0.090909 1
vt 0.363636 1
vt 0.272727 1
vt 0.181818 1
vt 0.727273 1
vt 0.454545 1
vt 0.363636 1
vt 0.727273 1
vt 0.545455 1
vt 0.454545 1
vt 0.727273 1
vt 0.636364 1
vt 0.545455 1
vt 0.981132 1
vt 0.471698 1
vt 0.490566 1
vt 0 1
vt 0.981132 1
vt 0.490566 1
vt 0.018868 1
vt 0.981132 1
vt 0 1
vt 0.037736 1
vt 0.981132 1
vt 0.018868 1
vt 0.056604 1
vt 0.981132 1
vt 0.037736 1
vt 0.075472 1
vt 0.981132 1
vt 0.056604 1
vt 0.09434 1
vt 0.981132 1
vt 0.075472 1
vt 0.962264 1
vt 0.981132 1
vt 0.09434 1
vt 0.943396 1
vt 0.962264 1
vt 0.09434 1
vt 0.113208 1
vt 0.943396 1
vt 0.09434 1
vt 1 1
vt 0.471698 1
vt 0.981132 1
vt 0.113208 1
vt 0.924528 1
vt 0.943396 1
vt 0.113208 1
vt 0.90566 1
vt 0.924528 1
vt 0.113208 1
vt 0.886792 1
vt 0.90566 1
vt 0.132075 1
vt 0.886792 1
vt 0.113208 1
vt 0.132075 1
vt 0.867925 1
vt 0.886792 1
vt 0.132075 1
vt 0.849057 1
vt 0.867925 1
vt 0.150943 1
vt 0.849057 1
vt 0.132075 1
vt 0.150943 1
vt 0.830189 1
vt 0.849057 1
vt 0.169811 1
vt 0.830189 1
vt 0.150943 1
vt 0.169811 1
vt 0.811321 1
vt 0.830189 1
vt 0.169811 1
vt 0.792453 1
vt 0.811321 1
vt 0.188679 1
vt 0.792453 1
vt 0.169811 1
vt 0.188679 1
vt 0.773585 1
vt 0.792453 1
vt 0.207547 1
vt 0.773585 1
vt 0.188679 1
vt 0.207547 1
vt 0.754717 1
vt 0.773585 1
vt 0.226415 1
vt 0.754717 1
vt 0.207547 1
vt 0.226415 1
vt 0.735849 1
vt 0.754717 1
vt 0.226415 1
vt 0.716981 1
vt 0.735849 1
vt 0.245283 1
vt 0.716981 1
vt 0.226415 1
vt 0.245283 1
vt 0.698113 1
vt 0.716981 1
vt 0.264151 1
vt 0.698113 1
vt 0.245283 1
vt 0.264151 1
vt 0.679245 1
vt 0.698113 1
vt 0.264151 1
vt 0.660377 1
vt 0.679245 1
vt 0.283019 1
vt 0.660377 1
vt 0.264151 1
vt 0.283019 1
vt 0.641509 1
vt 0.660377 1
vt 0.301887 1
vt 0.641509 1
vt 0.283019 1
vt 0.301887 1
vt 0.622642 1
vt 0.641509 1
vt 0.301887 1
vt 0.603774 1
vt 0.622642 1
vt 0.320755 1
vt 0.603774 1
vt 0.301887 1
vt 0.320755 1
vt 0.584906 1
vt 0.603774 1
vt 0.339623 1
vt 0.584906 1
vt 0.320755 1
vt 0.339623 1
vt 0.566038 1
vt 0.584906 1
vt 0.339623 1
vt 0.54717 1
vt 0.566038 1
vt 0.358491 1
vt 0.54717 1
vt 0.339623 1
vt 0.358491 1
vt 0.528302 1
vt 0.54717 1
vt 0.358491 1
vt 0.509434 1
vt 0.528302 1
vt 0.509434 1
vt 0.471698 1
vt 1 1
vt 0.358491 1
vt 0.471698 1
vt 0.509434 1
vt 0.377358 1
vt 0.471698 1
vt 0.358491 1
vt 0.396226 1
vt 0.471698 1
vt 0.377358 1
vt 0.415094 1
vt 0.471698 1
vt 0.396226 1
vt 0.433962 1
vt 0.471698 1
vt 0.415094 1
vt 0.45283 1
vt 0.471698 1
vt 0.433962 1
vt 0.555556 1
vt 0.333333 1
vt 0.444444 1
vt 0.111111 1
vt 0.333333 1
vt 0.555556 1
vt 0.666667 1
vt 0.111111 1
vt 0.555556 1
vt 0.888889 1
vt 0.666667 1
vt 0.777778 1
vt 1 1
vt 0.666667 1
vt 0.888889 1
vt 0.222222 1
vt 0.333333 1
vt 0.111111 1
vt 0.666667 1
vt 0 1
vt 0.111111 1
vt 1 1
vt 0 1
vt 0.666667 1
vt 0 1
vt 0.727273 1
vt 0.818182 1
vt 0.909091 1
vt 0 1
vt 0.818182 1
vt 1 1
vt 0 1
vt 0.909091 1
vt 0.090909 1
vt 0.727273 1
vt 0 1
vt 0.363636 1
vt 0.727273 1
vt 0.090909 1
vt 0.181818 1
vt 0.363636 1
vt 0.090909 1
vt 0.272727 1
vt 0.363636 1
vt 0.181818 1
vt 0.454545 1
vt 0.727273 1
vt 0.363636 1
vt 0.545455 1
vt 0.727273 1
vt 0.454545 1
vt 0.636364 1
vt 0.727273 1
vt 0.545455 1
vt 0 0
vt 0.083333 0
vt 0.083333 1
vt 0 1
vt 0.083333 0
vt 0.166667 0
vt 0.166667 1
vt 0.083333 1
vt 0.166667 0
vt 0.25 0
vt 0.25 1
vt 0.166667 1
vt 0.25 0
vt 0.333333 0
vt 0.333333 1
vt 0.25 1
vt 0.333333 0
vt 0.416667 0
vt 0.416667 1
vt 0.333333 1
vt 0.416667 0
vt 0.5 0
vt 0.5 1
vt 0.416667 1
vt 0.5 0
vt 0.583333 0
vt 0.583333 1
vt 0.5 1
vt 0.583333 0
vt 0.666667 0
vt 0.666667 1
vt 0.583333 1
vt 0.666667 0
vt 0.75 0
vt 0.75 1
vt 0.666667 1
vt 0.75 0
vt 0.833333 0
vt 0.833333 1
vt 0.75 1
vt 0.833333 0
vt 0.916667 0
vt 0.916667 1
vt 0.833333 1
vt 0.916667 0
vt 1 0
vt 1 1
vt 0.916667 1
vt 0 0
vt 0.1 0
vt 0.1 1
vt 0 1
vt 0.1 0
vt 0.2 0
vt 0.2 1
vt 0.1 1
vt 0.2 0
vt 0.3 0
vt 0.3 1
vt 0.2 1
vt 0.3 0
vt 0.4 0
vt 0.4 1
vt 0.3 1
vt 0.4 0
vt 0.5 0
vt 0.5 1
vt 0.4 1
vt 0.5 0
vt 0.6 0
vt 0.6 1
vt 0.5 1
vt 0.6 0
vt 0.7 0
vt 0.7 1
vt 0.6 1
vt 0.7 0
vt 0.8 0
vt 0.8 1
vt 0.7 1
vt 0.8 0
vt 0.9 0
vt 0.9 1
vt 0.8 1
vt 0.9 0
vt 1 0
vt 1 1
vt 0.9 1
vt 0 0
vt 0.037037 0
vt 0.037037 1
vt 0 1
vt 0.037037 0
vt 0.074074 0
vt 0.074074 1
vt 0.037037 1
vt 0.074074 0
vt 0.111111 0
vt 0.111111 1
vt 0.074074 1
vt 0.111111 0
vt 0.148148 0
vt 0.148148 1
vt 0.111111 1
vt 0.148148 0
vt 0.185185 0
vt 0.185185 1
vt 0.148148 1
vt 0.185185 0
vt 0.222222 0
vt 0.222222 1
vt 0.185185 1
vt 0.222222 0
vt 0.259259 0
vt 0.259259 1
vt 0.222222 1
vt 0.259259 0
vt 0.296296 0
vt 0.296296 1
vt 0.259259 1
vt 0.296296 0
vt 0.333333 0
vt 0.333333 1
vt 0.296296 1
vt 0.333333 0
vt 0.37037 0
vt 0.37037 1
vt 0.333333 1
vt 0.37037 0
vt 0.407407 0
vt 0.407407 1
vt 0.37037 1
vt 0.407407 0
vt 0.444444 0
vt 0.444444 1
vt 0.407407 1
vt 0.444444 0
vt 0.481481 0
vt 0.481481 1
vt 0.444444 1
vt 0.481481 0
vt 0.518519 0
vt 0.518519 1
vt 0.481481 1
vt 0.518519 0
vt 0.555556 0
vt 0.555556 1
vt 0.518519 1
vt 0.555556 0
vt 0.592593 0
vt 0.592593 1
vt 0.555556 1
vt 0.592593 0
vt 0.62963 0
vt 0.62963 1
vt 0.592593 1
vt 0.62963 0
vt 0.666667 0
vt 0.666667 1
vt 0.62963 1
vt 0.666667 0
vt 0.703704 0
vt 0.703704 1
vt 0.666667 1
vt 0.703704 0
vt 0.740741 0
vt 0.740741 1
vt 0.703704 1
vt 0.740741 0
vt 0.777778 0
vt 0.777778 1
vt 0.740741 1
vt 0.777778 0
vt 0.814815 0
vt 0.814815 1
vt 0.777778 1
vt 0.814815 0
vt 0.851852 0
vt 0.851852 1
vt 0.814815 1
vt 0.851852 0
vt 0.888889 0
vt 0.888889 1
vt 0.851852 1
vt 0.888889 0
vt 0.925926 0
vt 0.925926 1
vt 0.888889 1
vt 0.925926 0
vt 0.962963 0
vt 0.962963 1
vt 0.925926 1
vt 0.962963 0
vt 1 0
vt 1 1
vt 0.962963 1
vt 0 0
vt 0.037037 0
vt 0.037037 1
vt 0 1
vt 0.037037 0
vt 0.074074 0
vt 0.074074 1
vt 0.037037 1
vt 0.074074 0
vt 0.111111 0
vt 0.111111 1
vt 0.074074 1
vt 0.111111 0
vt 0.148148 0
vt 0.148148 1
vt 0.111111 1
vt 0.148148 0
vt 0.185185 0
vt 0.185185 1
vt 0.148148 1
vt 0.185185 0
vt 0.222222 0
vt 0.222222 1
vt 0.185185 1
vt 0.222222 0
vt 0.259259 0
vt 0.259259 1
vt 0.222222 1
vt 0.259259 0
vt 0.296296 0
vt 0.296296 1
vt 0.259259 1
vt 0.296296 0
vt 0.333333 0
vt 0.333333 1
vt 0.296296 1
vt 0.333333 0
vt 0.37037 0
vt 0.37037 1
vt 0.333333 1
vt 0.37037 0
vt 0.407407 0
vt 0.407407 1
vt 0.37037 1
vt 0.407407 0
vt 0.444444 0
vt 0.444444 1
vt 0.407407 1
vt 0.444444 0
vt 0.481481 0
vt 0.481481 1
vt 0.444444 1
vt 0.481481 0
vt 0.518519 0
vt 0.518519 1
vt 0.481481 1
vt 0.518519 0
vt 0.555556 0
vt 0.555556 1
vt 0.518519 1
vt 0.555556 0
vt 0.592593 0
vt 0.592593 1
vt 0.555556 1
vt 0.592593 0
vt 0.62963 0
vt 0.62963 1
vt 0.592593 1
vt 0.62963 0
vt 0.666667 0
vt 0.666667 1
vt 0.62963 1
vt 0.666667 0
vt 0.703704 0
vt 0.703704 1
vt 0.666667 1
vt 0.703704 0
vt 0.740741 0
vt 0.740741 1
vt 0.703704 1
vt 0.740741 0
vt 0.777778 0
vt 0.777778 1
vt 0.740741 1
vt 0.777778 0
vt 0.814815 0
vt 0.814815 1
vt 0.777778 1
vt 0.814815 0
vt 0.851852 0
vt 0.851852 1
vt 0.814815 1
vt 0.851852 0
vt 0.888889 0
vt 0.888889 1
vt 0.851852 1
vt 0.888889 0
vt 0.925926 0
vt 0.925926 1
vt 0.888889 1
vt 0.925926 0
vt 0.962963 0
vt 0.962963 1
vt 0.925926 1
vt 0.962963 0
vt 1 0
vt 1 1
vt 0.962963 1
s off
f 1/1/1 2/2/2 3/3/3
f 4/4/4 5/5/5 6/6/6
f 7/7/7 8/8/8 9/9/9
f 10/10/10 11/11/11 12/12/12
f 13/13/13 14/14/14 15/15/15
f 16/16/16 17/17/17 18/18/18
f 19/19/19 20/20/20 21/21/21
f 22/22/22 23/23/23 24/24/24
f 25/25/25 26/26/26 27/27/27
f 28/28/28 29/29/29 30/30/30
f 31/31/31 32/32/32 33/33/33
f 34/34/34 35/35/35 36/36/36
f 37/37/37 38/38/38 39/39/39
f 40/40/40 41/41/41 42/42/42
f 43/43/43 44/44/44 45/45/45
f 46/46/46 47/47/47 48/48/48
f 49/49/49 50/50/50 51/51/51
f 52/52/52 53/53/53 54/54/54
f 55/55/55 56/56/56 57/57/57
f 58/58/58 59/59/59 60/60/60
f 61/61/61 62/62/62 63/63/63
f 64/64/64 65/65/65 66/66/66
f 67/67/67 68/68/68 69/69/69
f 70/70/70 71/71/71 72/72/72
f 73/73/73 74/74/74 75/75/75
f 76/76/76 77/77/77 78/78/78
f 79/79/79 80/80/80 81/81/81
f 82/82/82 83/83/83 84/84/84
f 85/85/85 86/86/86 87/87/87
f 88/88/88 89/89/89 90/90/90
f 91/91/91 92/92/92 93/93/93
f 94/94/94 95/95/95 96/96/96
f 97/97/97 98/98/98 99/99/99
f 100/100/100 101/101/101 102/102/102
f 103/103/103 104/104/104 105/105/105
f 106/106/106 107/107/107 108/108/108
f 109/109/109 110/110/110 111/111/111
f 112/112/112 113/113/113 114/114/114
f 115/115/115 116/116/116 117/117/117
f 118/118/118 119/119/119 120/120/120
f 121/121/121 122/122/122 123/123/123
f 124/124/124 125/125/125 126/126/126
f 127/127/127 128/128/128 129/129/129
f 130/130/130 131/131/131 132/132/132
f 133/133/133 134/134/134 135/135/135
f 136/136/136 137/137/137 138/138/138
f 139/139/139 140/140/140 141/141/141
f 142/142/142 143/143/143 144/144/144
f 145/145/145 146/146/146 147/147/147
f 148/148/148 149/149/149 150/150/150
f 151/151/151 152/152/152 153/153/153
f 154/154/154 155/155/155 156/156/156
f 157/157/157 158/158/158 159/159/159
f 160/160/160 161/161/161 162/162/162
f 163/163/163 164/164/164 165/165/165
f 166/166/166 167/167/167 168/168/168
f 169/169/169 170/170/170 171/171/171
f 172/172/172 173/173/173 174/174/174
f 175/175/175 176/176/176 177/177/177
f 178/178/178 179/179/179 180/180/180
f 181/181/181 182/182/182 183/183/183
f 184/184/184 185/185/185 186/186/186
f 187/187/187 188/188/188 189/189/189
f 190/190/190 191/191/191 192/192/192
f 193/193/193 194/194/194 195/195/195
f 196/196/196 197/197/197 198/198/198
f 199/199/199 200/200/200 201/201/201
f 202/202/202 203/203/203 204/204/204
f 205/205/205 206/206/206 207/207/207
f 208/208/208 209/209/209 210/210/210
f 211/211/211 212/212/212 213/213/213
f 214/214/214 215/215/215 216/216/216
f 217/217/217 218/218/218 219/219/219
f 220/220/220 221/221/221 222/222/222
f 223/223/223 224/224/224 225/225/225
f 226/226/226 227/227/227 228/228/228
f 229/229/229 230/230/230 231/231/231
f 232/232/232 233/233/233 234/234/234
f 235/235/235 236/236/236 237/237/237
f 238/238/238 239/239/239 240/240/240
f 241/241/241 242/242/242 243/243/243
f 244/244/244 245/245/245 246/246/246
f 247/247/247 248/248/248 249/249/249
f 250/250/250 251/251/251 252/252/252
f 253/253/253 254/254/254 255/255/255
f 256/256/256 257/257/257 258/258/258
f 259/259/259 260/260/260 261/261/261
f 262/262/262 263/263/263 264/264/264
f 265/265/265 266/266/266 267/267/267
f 268/268/268 269/269/269 270/270/270
f 271/271/271 272/272/272 273/273/273
f 274/274/274 275/275/275 276/276/276
f 277/277/277 278/278/278 279/279/279
f 280/280/280 281/281/281 282/282/282
f 283/283/283 284/284/284 285/285/285
f 286/286/286 287/287/287 288/288/288
f 289/289/289 290/290/290 291/291/291
f 292/292/292 293/293/293 294/294/294
f 295/295/295 296/296/296 297/297/297
f 298/298/298 299/299/299 300/300/300
f 301/301/301 302/302/302 303/303/303
f 304/304/304 305/305/305 306/306/306
f 307/307/307 308/308/308 309/309/309
f 310/310/310 311/311/311 312/312/312
f 313/313/313 314/314/314 315/315/315
f 316/316/316 317/317/317 318/318/318
f 319/319/319 320/320/320 321/321/321
f 322/322/322 323/323/323 324/324/324
f 325/325/325 326/326/326 327/327/327
f 328/328/328 329/329/329 330/330/330
f 331/331/331 332/332/332 333/333/333
f 334/334/334 335/335/335 336/336/336
f 337/337/337 338/338/338 339/339/339
f 340/340/340 341/341/341 342/342/342
f 343/343/343 344/344/344 345/345/345
f 346/346/346 347/347/347 348/348/348
f 349/349/349 350/350/350 351/351/351
f 352/352/352 353/353/353 354/354/354
f 355/355/355 356/356/356 357/357/357
f 358/358/358 359/359/359 360/360/360
f 361/361/361 362/362/362 363/363/363
f 364/364/364 365/365/365 366/366/366
f 367/367/367 368/368/368 369/369/369
f 370/370/370 371/371/371 372/372/372
f 373/373/373 374/374/374 375/375/375
f 376/376/376 377/377/377 378/378/378
f 379/379/379 380/380/380 381/381/381
f 382/382/382 383/383/383 384/384/384
f 385/385/385 386/386/386 387/387/387
f 388/388/388 389/389/389 390/390/390
f 391/391/391 392/392/392 393/393/393
f 394/394/394 395/395/395 396/396/396
f 397/397/397 398/398/398 399/399/399
f 400/400/400 401/401/401 402/402/402
f 403/403/403 404/404/404 405/405/405
f 406/406/406 407/407/407 408/408/408
f 409/409/409 410/410/410 411/411/411
f 412/412/412 413/413/413 414/414/414
f 415/415/415 416/416/416 417/417/417
f 418/418/418 419/419/419 420/420/420
f 421/421/421 422/422/422 423/423/423
f 424/424/424 425/425/425 426/426/426
f 427/427/427 428/428/428 429/429/429
f 430/430/430 431/431/431 432/432/432
f 433/433/433 434/434/434 435/435/435
f 433/433/433 435/435/435 436/436/436
f 437/437/437 438/438/438 439/439/439
f 437/437/437 439/439/439 440/440/440
f 441/441/441 442/442/442 443/443/443
f 441/441/441 443/443/443 444/444/444
f 445/445/445 446/446/446 447/447/447
f 445/445/445 447/447/447 448/448/448
f 449/449/449 450/450/450 451/451/451
f 449/449/449 451/451/451 452/452/452
f 453/453/453 454/454/454 455/455/455
f 453/453/453 455/455/455 456/456/456
f 457/457/457 458/458/458 459/459/459
f 457/457/457 459/459/459 460/460/460
f 461/461/461 462/462/462 463/463/463
f 461/461/461 463/463/463 464/464/464
f 465/465/465 466/466/466 467/467/467
f 465/465/465 467/467/467 468/468/468
f 469/469/469 470/470/470 471/471/471
f 469/469/469 471/471/471 472/472/472
f 473/473/473 474/474/474 475/475/475
f 473/473/473 475/475/475 476/476/476
f 477/477/477 478/478/478 479/479/479
f 477/477/477 479/479/479 480/480/480
f 481/481/481 482/482/482 483/483/483
f 481/481/481 483/483/483 484/484/484
f 485/485/485 486/486/486 487/487/487
f 485/485/485 487/487/487 488/488/488
f 489/489/489 490/490/490 491/491/491
f 489/489/489 491/491/491 492/492/492
f 493/493/493 494/494/494 495/495/495
f 493/493/493 495/495/495 496/496/496
f 497/497/497 498/498/498 499/499/499
f 497/497/497 499/499/499 500/500/500
f 501/501/501 502/502/502 503/503/503
f 501/501/501 503/503/503 504/504/504
f 505/505/505 506/506/506 507/507/507
f 505/505/505 507/507/507 508/508/508
f 509/509/509 510/510/510 511/511/511
f 509/509/509 511/511/511 512/512/512
f 513/513/513 514/514/514 515/515/515
f 513/513/513 515/515/515 516/516/516
f 517/517/517 518/518/518 519/519/519
f 517/517/517 519/519/519 520/520/520
f 521/521/521 522/522/522 523/523/523
f 521/521/521 523/523/523 524/524/524
f 525/525/525 526/526/526 527/527/527
f 525/525/525 527/527/527 528/528/528
f 529/529/529 530/530/530 531/531/531
f 529/529/529 531/531/531 532/532/532
f 533/533/533 534/534/534 535/535/535
f 533/533/533 535/535/535 536/536/536
f 537/537/537 538/538/538 539/539/539
f 537/537/537 539/539/539 540/540/540
f 541/541/541 542/542/542 543/543/543
f 541/541/541 543/543/543 544/544/544
f 545/545/545 546/546/546 547/547/547
f 545/545/545 547/547/547 548/548/548
f 549/549/549 550/550/550 551/551/551
f 549/549/549 551/551/551 552/552/552
f 553/553/553 554/554/554 555/555/555
f 553/553/553 555/555/555 556/556/556
f 557/557/557 558/558/558 559/559/559
f 557/557/557 559/559/559 560/560/560
f 561/561/561 562/562/562 563/563/563
f 561/561/561 563/563/563 564/564/564
f 565/565/565 566/566/566 567/567/567
f 565/565/565 567/567/567 568/568/568
f 569/569/569 570/570/570 571/571/571
f 569/569/569 571/571/571 572/572/572
f 573/573/573 574/574/574 575/575/575
f 573/573/573 575/575/575 576/576/576
f 577/577/577 578/578/578 579/579/579
f 577/577/577 579/579/579 580/580/580
f 581/581/581 582/582/582 583/583/583
f 581/581/581 583/583/583 584/584/584
f 585/585/585 586/586/586 587/587/587
f 585/585/585 587/587/587 588/588/588
f 589/589/589 590/590/590 591/591/591
f 589/589/589 591/591/591 592/592/592
f 593/593/593 594/594/594 595/595/595
f 593/593/593 595/595/595 596/596/596
f 597/597/597 598/598/598 599/599/599
f 597/597/597 599/599/599 600/600/600
f 601/601/601 602/602/602 603/603/603
f 601/601/601 603/603/603 604/604/604
f 605/605/605 606/606/606 607/607/607
f 605/605/605 607/607/607 608/608/608
f 609/609/609 610/610/610 611/611/611
f 609/609/609 611/611/611 612/612/612
f 613/613/613 614/614/614 615/615/615
f 613/613/613 615/615/615 616/616/616
f 617/617/617 618/618/618 619/619/619
f 617/617/617 619/619/619 620/620/620
f 621/621/621 622/622/622 623/623/623
f 621/621/621 623/623/623 624/624/624
f 625/625/625 626/626/626 627/627/627
f 625/625/625 627/627/627 628/628/628
f 629/629/629 630/630/630 631/631/631
f 629/629/629 631/631/631 632/632/632
f 633/633/633 634/634/634 635/635/635
f 633/633/633 635/635/635 636/636/636
f 637/637/637 638/638/638 639/639/639
f 637/637/637 639/639/639 640/640/640
f 641/641/641 642/642/642 643/643/643
f 641/641/641 643/643/643 644/644/644
f 645/645/645 646/646/646 647/647/647
f 645/645/645 647/647/647 648/648/648
f 649/649/649 650/650/650 651/651/651
f 649/649/649 651/651/651 652/652/652
f 653/653/653 654/654/654 655/655/655
f 653/653/653 655/655/655 656/656/656
f 657/657/657 658/658/658 659/659/659
f 657/657/657 659/659/659 660/660/660
f 661/661/661 662/662/662 663/663/663
f 661/661/661 663/663/663 664/664/664
f 665/665/665 666/666/666 667/667/667
f 665/665/665 667/667/667 668/668/668
f 669/669/669 670/670/670 671/671/671
f 669/669/669 671/671/671 672/672/672
f 673/673/673 674/674/674 675/675/675
f 673/673/673 675/675/675 676/676/676
f 677/677/677 678/678/678 679/679/679
f 677/677/677 679/679/679 680/680/680
f 681/681/681 682/682/682 683/683/683
f 681/681/681 683/683/683 684/684/684
f 685/685/685 686/686/686 687/687/687
f 685/685/685 687/687/687 688/688/688
f 689/689/689 690/690/690 691/691/691
f 689/689/689 691/691/691 692/692/692
f 693/693/693 694/694/694 695/695/695
f 693/693/693 695/695/695 696/696/696
f 697/697/697 698/698/698 699/699/699
f 697/697/697 699/699/699 700/700/700
f 701/701/701 702/702/702 703/703/703
f 701/701/701 703/703/703 704/704/704
f 705/705/705 706/706/706 707/707/707
f 705/705/705 707/707/707 708/708/708
f 709/709/709 710/710/710 711/711/711
f 709/709/709 711/711/711 712/712/712
f 713/713/713 714/714/714 715/715/715
f 713/713/713 715/715/715 716/716/716
f 717/717/717 718/718/718 719/719/719
f 717/717/717 719/719/719 720/720/720
f 721/721/721 722/722/722 723/723/723
f 721/721/721 723/723/723 724/724/724
f 725/725/725 726/726/726 727/727/727
f 725/725/725 727/727/727 728/728/728
f 729/729/729 730/730/730 731/731/731
f 729/729/729 731/731/731 732/732/732
f 733/733/733 734/734/734 735/735/735
f 733/733/733 735/735/735 736/736/736
