v 0.29784 0.010786 0.269531
v 0.297849 0.010786 0.269636
v 0.297878 0.010786 0.269811
v 0.297915 0.010786 0.269952
v 0.297964 0.010786 0.270085
v 0.298025 0.010786 0.270209
v 0.298084 0.010786 0.270306
v 0.298152 0.010786 0.270397
v 0.298244 0.010786 0.270499
v 0.298346 0.010786 0.270591
v 0.298438 0.010786 0.270659
v 0.298555 0.010786 0.27073
v 0.29868 0.010786 0.270788
v 0.298814 0.010786 0.270835
v 0.298957 0.010786 0.270871
v 0.299133 0.010786 0.270897
v 0.299348 0.010786 0.270907
v 0.300189 0.010786 0.270907
v 0.300378 0.010786 0.2709
v 0.300557 0.010786 0.270876
v 0.300701 0.010786 0.270842
v 0.300838 0.010786 0.270797
v 0.300967 0.010786 0.27074
v 0.301087 0.010786 0.270671
v 0.3012 0.010786 0.270591
v 0.301305 0.010786 0.270499
v 0.301369 0.010786 0.270432
v 0.301429 0.010786 0.270361
v 0.301495 0.010786 0.270267
v 0.301553 0.010786 0.270168
v 0.301611 0.010786 0.270041
v 0.301658 0.010786 0.269906
v 0.301692 0.010786 0.269762
v 0.301717 0.010786 0.269584
v 0.301725 0.010786 0.269395
v 0.301725 0.010786 0.264641
v 0.301733 0.010786 0.264458
v 0.301757 0.010786 0.264284
v 0.30179 0.010786 0.264142
v 0.301835 0.010786 0.264008
v 0.301892 0.010786 0.26388
v 0.301961 0.010786 0.263759
v 0.302041 0.010786 0.263644
v 0.302133 0.010786 0.263537
v 0.302218 0.010786 0.263455
v 0.302289 0.010786 0.263395
v 0.302384 0.010786 0.263329
v 0.302485 0.010786 0.263271
v 0.302591 0.010786 0.263222
v 0.302727 0.010786 0.263174
v 0.30287 0.010786 0.263139
v 0.303048 0.010786 0.263113
v 0.303238 0.010786 0.263105
v 0.315817 0.010786 0.263105
v 0.315923 0.010786 0.263102
v 0.316026 0.010786 0.263094
v 0.316174 0.010786 0.26307
v 0.316315 0.010786 0.263034
v 0.316448 0.010786 0.262985
v 0.316574 0.010786 0.262923
v 0.316693 0.010786 0.262848
v 0.316805 0.010786 0.262761
v 0.316909 0.010786 0.262661
v 0.316974 0.010786 0.262589
v 0.317019 0.010786 0.262533
v 0.3171 0.010786 0.262418
v 0.317168 0.010786 0.262298
v 0.317225 0.010786 0.262172
v 0.317269 0.010786 0.262041
v 0.317301 0.010786 0.261905
v 0.317321 0.010786 0.261764
v 0.31733 0.010786 0.261593
v 0.31733 0.010786 0.260752
v 0.317326 0.010786 0.260616
v 0.317316 0.010786 0.260511
v 0.317288 0.010786 0.260336
v 0.317251 0.010786 0.260195
v 0.317202 0.010786 0.260063
v 0.317141 0.010786 0.259939
v 0.317081 0.010786 0.259842
v 0.317014 0.010786 0.25975
v 0.316921 0.010786 0.259648
v 0.316819 0.010786 0.259556
v 0.316728 0.010786 0.259488
v 0.316611 0.010786 0.259418
v 0.316485 0.010786 0.259359
v 0.316351 0.010786 0.259312
v 0.316209 0.010786 0.259277
v 0.316033 0.010786 0.25925
v 0.315817 0.010786 0.25924
v 0.303238 0.010786 0.25924
v 0.303135 0.010786 0.259237
v 0.303036 0.010786 0.259229
v 0.302891 0.010786 0.259207
v 0.302754 0.010786 0.259172
v 0.302622 0.010786 0.259127
v 0.302496 0.010786 0.259068
v 0.302377 0.010786 0.258997
v 0.302264 0.010786 0.258915
v 0.302157 0.010786 0.25882
v 0.30206 0.010786 0.258715
v 0.301975 0.010786 0.258602
v 0.301902 0.010786 0.258482
v 0.301842 0.010786 0.258353
v 0.301794 0.010786 0.258216
v 0.301759 0.010786 0.258072
v 0.301733 0.010786 0.257893
v 0.301725 0.010786 0.257704
v 0.301725 0.010786 0.256815
v 0.301733 0.010786 0.256644
v 0.301753 0.010786 0.256503
v 0.301784 0.010786 0.256367
v 0.301827 0.010786 0.256236
v 0.301882 0.010786 0.25611
v 0.301949 0.010786 0.25599
v 0.302027 0.010786 0.255875
v 0.302133 0.010786 0.255747
v 0.302218 0.010786 0.255663
v 0.302308 0.010786 0.255587
v 0.302404 0.010786 0.25552
v 0.302506 0.010786 0.255462
v 0.302613 0.010786 0.255414
v 0.30275 0.010786 0.255367
v 0.302895 0.010786 0.255333
v 0.303048 0.010786 0.255311
v 0.303238 0.010786 0.255303
v 0.315817 0.010786 0.255303
v 0.316 0.010786 0.255295
v 0.316174 0.010786 0.25527
v 0.316315 0.010786 0.255235
v 0.316448 0.010786 0.255189
v 0.316574 0.010786 0.25513
v 0.316693 0.010786 0.25506
v 0.316805 0.010786 0.254977
v 0.316909 0.010786 0.254883
v 0.317004 0.010786 0.254778
v 0.317087 0.010786 0.254665
v 0.317158 0.010786 0.254544
v 0.317216 0.010786 0.254416
v 0.317262 0.010786 0.254279
v 0.317297 0.010786 0.254135
v 0.317321 0.010786 0.253956
v 0.31733 0.010786 0.253767
v 0.31733 0.010786 0.252926
v 0.317322 0.010786 0.252742
v 0.317298 0.010786 0.252569
v 0.317264 0.010786 0.252429
v 0.317219 0.010786 0.252295
v 0.317162 0.010786 0.252169
v 0.317094 0.010786 0.25205
v 0.317014 0.010786 0.251938
v 0.316921 0.010786 0.251833
v 0.316854 0.010786 0.251769
v 0.316783 0.010786 0.25171
v 0.31669 0.010786 0.251644
v 0.31659 0.010786 0.251586
v 0.316463 0.010786 0.251527
v 0.316328 0.010786 0.251481
v 0.316184 0.010786 0.251446
v 0.316006 0.010786 0.251422
v 0.315817 0.010786 0.251413
v 0.299348 0.010786 0.251413
v 0.299165 0.010786 0.251422
v 0.298992 0.010786 0.251446
v 0.298851 0.010786 0.251479
v 0.298717 0.010786 0.251524
v 0.298591 0.010786 0.251581
v 0.298472 0.010786 0.251649
v 0.298361 0.010786 0.251729
v 0.298256 0.010786 0.251821
v 0.298192 0.010786 0.251889
v 0.298132 0.010786 0.25196
v 0.298066 0.010786 0.252053
v 0.298008 0.010786 0.252153
v 0.297949 0.010786 0.25228
v 0.297903 0.010786 0.252415
v 0.297869 0.010786 0.252559
v 0.297844 0.010786 0.252737
v 0.297836 0.010786 0.252926
v 0.297836 0.010786 0.269395
v 0.323259 0.010786 0.258063
v 0.335671 0.010786 0.270499
v 0.335751 0.010786 0.270577
v 0.335819 0.010786 0.270633
v 0.335911 0.010786 0.270696
v 0.336008 0.010786 0.27075
v 0.336112 0.010786 0.270797
v 0.336244 0.010786 0.270842
v 0.336386 0.010786 0.270876
v 0.336563 0.010786 0.2709
v 0.336751 0.010786 0.270907
v 0.337352 0.010786 0.270907
v 0.337535 0.010786 0.2709
v 0.337708 0.010786 0.270876
v 0.337849 0.010786 0.270842
v 0.337982 0.010786 0.270797
v 0.338109 0.010786 0.27074
v 0.338228 0.010786 0.270671
v 0.338339 0.010786 0.270591
v 0.338444 0.010786 0.270499
v 0.338508 0.010786 0.270432
v 0.338567 0.010786 0.270361
v 0.338634 0.010786 0.270267
v 0.338692 0.010786 0.270168
v 0.33875 0.010786 0.270041
v 0.338797 0.010786 0.269906
v 0.338831 0.010786 0.269762
v 0.338856 0.010786 0.269584
v 0.338864 0.010786 0.269395
v 0.338864 0.010786 0.252926
v 0.338856 0.010786 0.252742
v 0.338832 0.010786 0.252569
v 0.338799 0.010786 0.252429
v 0.338754 0.010786 0.252295
v 0.338697 0.010786 0.252169
v 0.338628 0.010786 0.25205
v 0.338548 0.010786 0.251938
v 0.338456 0.010786 0.251833
v 0.338389 0.010786 0.251769
v 0.338318 0.010786 0.25171
v 0.338224 0.010786 0.251644
v 0.338125 0.010786 0.251586
v 0.337998 0.010786 0.251527
v 0.337862 0.010786 0.251481
v 0.337719 0.010786 0.251446
v 0.337541 0.010786 0.251422
v 0.337352 0.010786 0.251413
v 0.336511 0.010786 0.251413
v 0.336322 0.010786 0.251422
v 0.336143 0.010786 0.251446
v 0.335998 0.010786 0.251479
v 0.335862 0.010786 0.251524
v 0.335733 0.010786 0.251581
v 0.335612 0.010786 0.251649
v 0.3355 0.010786 0.251729
v 0.335395 0.010786 0.251821
v 0.33533 0.010786 0.251889
v 0.335271 0.010786 0.25196
v 0.335205 0.010786 0.252053
v 0.335147 0.010786 0.252153
v 0.335088 0.010786 0.25228
v 0.335042 0.010786 0.252415
v 0.335008 0.010786 0.252559
v 0.334983 0.010786 0.252737
v 0.334975 0.010786 0.252926
v 0.334975 0.010786 0.264233
v 0.322563 0.010786 0.251821
v 0.322461 0.010786 0.251729
v 0.32237 0.010786 0.251662
v 0.322252 0.010786 0.251592
v 0.322127 0.010786 0.251532
v 0.321993 0.010786 0.251485
v 0.321851 0.010786 0.251451
v 0.321674 0.010786 0.251424
v 0.321459 0.010786 0.251413
v 0.320883 0.010786 0.251413
v 0.320699 0.010786 0.251422
v 0.320526 0.010786 0.251446
v 0.320385 0.010786 0.251479
v 0.320252 0.010786 0.251524
v 0.320125 0.010786 0.251581
v 0.320007 0.010786 0.251649
v 0.319895 0.010786 0.251729
v 0.31979 0.010786 0.251821
v 0.319726 0.010786 0.251889
v 0.319667 0.010786 0.25196
v 0.3196 0.010786 0.252053
v 0.319542 0.010786 0.252153
v 0.319484 0.010786 0.25228
v 0.319437 0.010786 0.252415
v 0.319403 0.010786 0.252559
v 0.319378 0.010786 0.252737
v 0.31937 0.010786 0.252926
v 0.31937 0.010786 0.269395
v 0.319378 0.010786 0.269578
v 0.319402 0.010786 0.269751
v 0.319435 0.010786 0.269893
v 0.319481 0.010786 0.270026
v 0.319537 0.010786 0.270152
v 0.319606 0.010786 0.270271
v 0.319686 0.010786 0.270382
v 0.319778 0.010786 0.270487
v 0.319845 0.010786 0.270552
v 0.319916 0.010786 0.270611
v 0.32001 0.010786 0.270678
v 0.32011 0.010786 0.270735
v 0.320236 0.010786 0.270793
v 0.320372 0.010786 0.27084
v 0.320515 0.010786 0.270875
v 0.320693 0.010786 0.270899
v 0.320883 0.010786 0.270907
v 0.321723 0.010786 0.270907
v 0.321912 0.010786 0.270899
v 0.322091 0.010786 0.270875
v 0.322236 0.010786 0.27084
v 0.322372 0.010786 0.270793
v 0.322501 0.010786 0.270735
v 0.322622 0.010786 0.270665
v 0.322734 0.010786 0.270582
v 0.322839 0.010786 0.270487
v 0.322934 0.010786 0.270382
v 0.323017 0.010786 0.270271
v 0.323087 0.010786 0.270152
v 0.323146 0.010786 0.270026
v 0.323192 0.010786 0.269893
v 0.323226 0.010786 0.269751
v 0.323251 0.010786 0.269578
v 0.323259 0.010786 0.269395
vn -0 1 -0
vn -0 1 -0
vn -0 1 -0
vn -0 1 -0
vn -0 1 -0
vn -0 1 -0
vn -0 1 -0
vn -0 1 -0
vn -0 1 -0
vn -0 1 -0
vn -0 1 -0
vn -0 1 -0
vn -0 1 -0
vn -0 1 -0
vn -0 1 -0
vn -0 1 -0
vn -0 1 -0
vn -0 1 -0
vn -0 1 -0
vn -0 1 -0
vn -0 1 -0
vn -0 1 -0
vn -0 1 -0
vn -0 1 -0
vn -0 1 -0
vn -0 1 -0
vn -0 1 -0
vn -0 1 -0
vn -0 1 -0
vn -0 1 -0
vn -0 1 -0
vn -0 1 -0
vn -0 1 -0
vn -0 1 -0
vn -0 1 -0
vn -0 1 -0
vn -0 1 -0
vn -0 1 -0
vn -0 1 -0
vn -0 1 -0
vn -0 1 -0
vn -0 1 -0
vn -0 1 -0
vn -0 1 -0
vn -0 1 -0
vn -0 1 -0
vn -0 1 -0
vn -0 1 -0
vn -0 1 -0
vn -0 1 -0
vn -0 1 -0
vn -0 1 -0
vn -0 1 -0
vn -0 1 -0
vn -0 1 -0
vn -0 1 -0
vn -0 1 -0
vn -0 1 -0
vn -0 1 -0
vn -0 1 -0
vn -0 1 -0
vn -0 1 -0
vn -0 1 -0
vn -0 1 -0
vn -0 1 -0
vn -0 1 -0
vn -0 1 -0
vn -0 1 -0
vn -0 1 -0
vn -0 1 -0
vn -0 1 -0
vn -0 1 -0
vn -0 1 -0
vn -0 1 -0
vn -0 1 -0
vn -0 1 -0
vn -0 1 -0
vn -0 1 -0
vn -0 1 -0
vn -0 1 -0
vn -0 1 -0
vn -0 1 -0
vn -0 1 -0
vn -0 1 -0
vn -0 1 -0
vn -0 1 -0
vn -0 1 -0
vn -0 1 -0
vn -0 1 -0
vn -0 1 -0
vn -0 1 -0
vn -0 1 -0
vn -0 1 -0
vn -0 1 -0
vn -0 1 -0
vn -0 1 -0
vn -0 1 -0
vn -0 1 -0
vn -0 1 -0
vn -0 1 -0
vn -0 1 -0
vn -0 1 -0
vn -0 1 -0
vn -0 1 -0
vn -0 1 -0
vn -0 1 -0
vn -0 1 -0
vn -0 1 -0
vn -0 1 -0
vn -0 1 -0
vn -0 1 -0
vn -0 1 -0
vn -0 1 -0
vn -0 1 -0
vn -0 1 -0
vn -0 1 -0
vn -0 1 -0
vn -0 1 -0
vn -0 1 -0
vn -0 1 -0
vn -0 1 -0
vn -0 1 -0
vn -0 1 -0
vn -0 1 -0
vn -0 1 -0
vn -0 1 -0
vn -0 1 -0
vn -0 1 -0
vn -0 1 -0
vn -0 1 -0
vn -0 1 -0
vn -0 1 -0
vn -0 1 -0
vn -0 1 -0
vn -0 1 -0
vn -0 1 -0
vn -0 1 -0
vn -0 1 -0
vn -0 1 -0
vn -0 1 -0
vn -0 1 -0
vn -0 1 -0
vn -0 1 -0
vn -0 1 -0
vn -0 1 -0
vn -0 1 -0
vn -0 1 -0
vn -0 1 -0
vn -0 1 -0
vn -0 1 -0
vn -0 1 -0
vn -0 1 -0
vn -0 1 -0
vn -0 1 -0
vn -0 1 -0
vn -0 1 -0
vn -0 1 -0
vn -0 1 -0
vn -0 1 -0
vn -0 1 -0
vn -0 1 -0
vn -0 1 -0
vn -0 1 -0
vn -0 1 -0
vn -0 1 -0
vn -0 1 -0
vn -0 1 -0
vn -0 1 -0
vn -0 1 -0
vn -0 1 -0
vn -0 1 -0
vn -0 1 -0
vn -0 1 -0
vn -0 1 -0
vn -0 1 -0
vn -0 1 -0
vn -0 1 -0
vn -0 1 -0
vn -0 1 -0
vn -0 1 -0
vn -0 1 -0
vn -0 1 -0
vn -0 1 -0
vn -0 1 -0
vn -0 1 -0
vn -0 1 -0
vn -0 1 -0
vn -0 1 -0
vn -0 1 -0
vn -0 1 -0
vn -0 1 -0
vn -0 1 -0
vn -0 1 -0
vn -0 1 -0
vn -0 1 -0
vn -0 1 -0
vn -0 1 -0
vn -0 1 -0
vn -0 1 -0
vn -0 1 -0
vn -0 1 -0
vn -0 1 -0
vn -0 1 -0
vn -0 1 -0
vn -0 1 -0
vn -0 1 -0
vn -0 1 -0
vn -0 1 -0
vn -0 1 -0
vn -0 1 -0
vn -0 1 -0
vn -0 1 -0
vn -0 1 -0
vn -0 1 -0
vn -0 1 -0
vn -0 1 -0
vn -0 1 -0
vn -0 1 -0
vn -0 1 -0
vn -0 1 -0
vn -0 1 -0
vn -0 1 -0
vn -0 1 -0
vn -0 1 -0
vn -0 1 -0
vn -0 1 -0
vn -0 1 -0
vn -0 1 -0
vn -0 1 -0
vn -0 1 -0
vn -0 1 -0
vn -0 1 -0
vn -0 1 -0
vn -0 1 -0
vn -0 1 -0
vn -0 1 -0
vn -0 1 -0
vn -0 1 -0
vn -0 1 -0
vn -0 1 -0
vn -0 1 -0
vn -0 1 -0
vn -0 1 -0
vn -0 1 -0
vn -0 1 -0
vn -0 1 -0
vn -0 1 -0
vn -0 1 -0
vn -0 1 -0
vn -0 1 -0
vn -0 1 -0
vn -0 1 -0
vn -0 1 -0
vn -0 1 -0
vn -0 1 -0
vn -0 1 -0
vn -0 1 -0
vn -0 1 -0
vn -0 1 -0
vn -0 1 -0
vn -0 1 -0
vn -0 1 -0
vn -0 1 -0
vn -0 1 -0
vn -0 1 -0
vn -0 1 -0
vn -0 1 -0
vn -0 1 -0
vn -0 1 -0
vn -0 1 -0
vn -0 1 -0
vn -0 1 -0
vn -0 1 -0
vn -0 1 -0
vn -0 1 -0
vn -0 1 -0
vn -0 1 -0
vn -0 1 -0
vn -0 1 -0
vn -0 1 -0
vn -0 1 -0
vn -0 1 -0
vn -0 1 -0
vn -0 1 -0
vn -0 1 -0
vn -0 1 -0
vn -0 1 -0
vn -0 1 -0
vn -0 1 -0
vn -0 1 -0
vn -0 1 -0
vn -0 1 -0
vn -0 1 -0
vn -0 1 -0
vn -0 1 -0
vn -0 1 -0
vn -0 1 -0
vn -0 1 -0
vn -0 1 -0
vn -0 1 -0
vn -0 1 -0
vn -0 1 -0
vn -0 1 -0
vn -0 1 -0
vn -0 1 -0
vn -0 1 -0
vn -0 1 -0
vn -0 1 -0
vt 0.000209 0.929409
vt 0.000678 0.934792
vt 0.002144 0.943758
vt 0.004053 0.950981
vt 0.006566 0.957779
vt 0.009681 0.964152
vt 0.012737 0.969137
vt 0.016213 0.973827
vt 0.020936 0.979064
vt 0.026173 0.983787
vt 0.030863 0.987262
vt 0.036881 0.99088
vt 0.043324 0.993895
vt 0.050193 0.996307
vt 0.057488 0.998116
vt 0.066536 0.999464
vt 0.077586 1
vt 0.12069 1
vt 0.130412 0.99959
vt 0.139579 0.998359
vt 0.146995 0.99665
vt 0.154003 0.994339
vt 0.160603 0.991425
vt 0.166795 0.987907
vt 0.172579 0.983787
vt 0.177956 0.979064
vt 0.181266 0.97562
vt 0.1843 0.971986
vt 0.187706 0.967178
vt 0.19068 0.962075
vt 0.19368 0.955561
vt 0.196059 0.948621
vt 0.197818 0.941255
vt 0.199085 0.932124
vt 0.199507 0.922414
vt 0.199507 0.678571
vt 0.199918 0.669158
vt 0.201149 0.660227
vt 0.202857 0.652956
vt 0.205168 0.646039
vt 0.208083 0.639478
vt 0.2116 0.633271
vt 0.21572 0.627419
vt 0.220443 0.621921
vt 0.224778 0.617709
vt 0.228459 0.614659
vt 0.233326 0.611245
vt 0.238489 0.608275
vt 0.243947 0.605748
vt 0.250887 0.6033
vt 0.258252 0.601492
vt 0.267383 0.600188
vt 0.277094 0.599754
vt 0.922414 0.599754
vt 0.927848 0.599608
vt 0.933117 0.59917
vt 0.94071 0.597968
vt 0.947931 0.596108
vt 0.954779 0.593593
vt 0.961255 0.590422
vt 0.967359 0.586594
vt 0.97309 0.58211
vt 0.978448 0.57697
vt 0.981759 0.573266
vt 0.98406 0.57041
vt 0.988198 0.564499
vt 0.991715 0.558321
vt 0.994612 0.551878
vt 0.996888 0.545169
vt 0.998543 0.538193
vt 0.999578 0.530952
vt 1 0.522167
vt 1 0.479064
vt 0.999791 0.472069
vt 0.999322 0.466686
vt 0.997856 0.45772
vt 0.995947 0.450497
vt 0.993434 0.443699
vt 0.990319 0.437326
vt 0.987263 0.432341
vt 0.983787 0.427651
vt 0.979064 0.422414
vt 0.973827 0.417691
vt 0.969137 0.414215
vt 0.963119 0.410598
vt 0.956676 0.407583
vt 0.949807 0.405171
vt 0.942512 0.403362
vt 0.933464 0.402014
vt 0.922414 0.401478
vt 0.277094 0.401478
vt 0.271844 0.40134
vt 0.266737 0.400926
vt 0.259342 0.399788
vt 0.252266 0.39803
vt 0.245509 0.39565
vt 0.239072 0.39265
vt 0.232954 0.38903
vt 0.227155 0.384788
vt 0.221675 0.379926
vt 0.216674 0.37455
vt 0.212311 0.368765
vt 0.208587 0.362573
vt 0.205501 0.355973
vt 0.203054 0.348966
vt 0.201245 0.34155
vt 0.199942 0.332383
vt 0.199507 0.32266
vt 0.199507 0.277094
vt 0.199918 0.268309
vt 0.200923 0.261068
vt 0.202531 0.254092
vt 0.204741 0.247383
vt 0.207555 0.24094
vt 0.210972 0.234762
vt 0.214992 0.228851
vt 0.220443 0.222291
vt 0.224778 0.217962
vt 0.229409 0.214089
vt 0.234335 0.210671
vt 0.239557 0.207709
vt 0.245074 0.205203
vt 0.252085 0.202797
vt 0.259521 0.201048
vt 0.267383 0.199954
vt 0.277094 0.199507
vt 0.922414 0.199507
vt 0.931816 0.199085
vt 0.94071 0.197818
vt 0.947931 0.196059
vt 0.954779 0.19368
vt 0.961255 0.19068
vt 0.967359 0.187059
vt 0.97309 0.182818
vt 0.978448 0.177956
vt 0.98331 0.172579
vt 0.987552 0.166795
vt 0.991172 0.160603
vt 0.994172 0.154003
vt 0.996552 0.146995
vt 0.99831 0.139579
vt 0.999578 0.130412
vt 1 0.12069
vt 1 0.077586
vt 0.99959 0.068184
vt 0.998359 0.05929
vt 0.99665 0.052069
vt 0.994339 0.045221
vt 0.991425 0.038745
vt 0.987907 0.032641
vt 0.983787 0.02691
vt 0.979064 0.021552
vt 0.97562 0.018241
vt 0.971986 0.015207
vt 0.967178 0.011802
vt 0.962075 0.00882798
vt 0.955561 0.00582802
vt 0.948621 0.00344801
vt 0.941255 0.00168997
vt 0.932124 0.000422001
vt 0.922414 0
vt 0.077586 0
vt 0.068184 0.00041002
vt 0.05929 0.00164098
vt 0.052069 0.00335002
vt 0.045221 0.00566101
vt 0.038745 0.00857502
vt 0.032641 0.012093
vt 0.02691 0.016213
vt 0.021552 0.020936
vt 0.018241 0.02438
vt 0.015207 0.028014
vt 0.011802 0.032822
vt 0.008828 0.037925
vt 0.005828 0.044439
vt 0.003448 0.051379
vt 0.00169 0.058745
vt 0.000422 0.067876
vt 0 0.077586
vt 0 0.922414
vt 0.199507 0.341133
vt 0.836207 0.979064
vt 0.840308 0.983042
vt 0.843819 0.985923
vt 0.848497 0.989147
vt 0.853494 0.991952
vt 0.858812 0.994339
vt 0.865616 0.99665
vt 0.872881 0.998359
vt 0.881939 0.99959
vt 0.891626 1
vt 0.922414 1
vt 0.931816 0.99959
vt 0.94071 0.998359
vt 0.947931 0.99665
vt 0.954779 0.994339
vt 0.961255 0.991425
vt 0.967359 0.987907
vt 0.97309 0.983787
vt 0.978448 0.979064
vt 0.981759 0.97562
vt 0.984793 0.971986
vt 0.988198 0.967178
vt 0.991172 0.962075
vt 0.994172 0.955561
vt 0.996552 0.948621
vt 0.99831 0.941255
vt 0.999578 0.932124
vt 1 0.922414
vt 1 0.077586
vt 0.99959 0.068184
vt 0.998359 0.05929
vt 0.99665 0.052069
vt 0.994339 0.045221
vt 0.991425 0.038745
vt 0.987907 0.032641
vt 0.983787 0.02691
vt 0.979064 0.021552
vt 0.97562 0.018241
vt 0.971986 0.015207
vt 0.967178 0.011802
vt 0.962075 0.00882798
vt 0.955561 0.00582802
vt 0.948621 0.00344801
vt 0.941255 0.00168997
vt 0.932124 0.000422001
vt 0.922414 0
vt 0.87931 0
vt 0.869588 0.00041002
vt 0.860421 0.00164098
vt 0.853005 0.00335002
vt 0.845997 0.00566101
vt 0.839397 0.00857502
vt 0.833205 0.012093
vt 0.827421 0.016213
vt 0.822044 0.020936
vt 0.818734 0.02438
vt 0.8157 0.028014
vt 0.812294 0.032822
vt 0.80932 0.037925
vt 0.80632 0.044439
vt 0.803941 0.051379
vt 0.802182 0.058745
vt 0.800915 0.067876
vt 0.800493 0.077586
vt 0.800493 0.657635
vt 0.163793 0.020936
vt 0.158556 0.016213
vt 0.153866 0.012737
vt 0.147848 0.00911999
vt 0.141405 0.00610501
vt 0.134536 0.00369298
vt 0.127241 0.00188398
vt 0.118193 0.000536025
vt 0.107143 0
vt 0.077586 0
vt 0.068184 0.00041002
vt 0.05929 0.00164098
vt 0.052069 0.00335002
vt 0.045221 0.00566101
vt 0.038745 0.00857502
vt 0.032641 0.012093
vt 0.02691 0.016213
vt 0.021552 0.020936
vt 0.018241 0.02438
vt 0.015207 0.028014
vt 0.011802 0.032822
vt 0.008828 0.037925
vt 0.005828 0.044439
vt 0.003448 0.051379
vt 0.00169 0.058745
vt 0.000422 0.067876
vt 0 0.077586
vt 0 0.922414
vt 0.00041 0.931816
vt 0.001641 0.94071
vt 0.00335 0.947931
vt 0.005661 0.954779
vt 0.008575 0.961255
vt 0.012093 0.967359
vt 0.016213 0.97309
vt 0.020936 0.978448
vt 0.02438 0.981759
vt 0.028014 0.984793
vt 0.032822 0.988198
vt 0.037925 0.991172
vt 0.044439 0.994172
vt 0.051379 0.996552
vt 0.058745 0.99831
vt 0.067876 0.999578
vt 0.077586 1
vt 0.12069 1
vt 0.130412 0.999578
vt 0.139579 0.99831
vt 0.146995 0.996552
vt 0.154003 0.994172
vt 0.160603 0.991172
vt 0.166795 0.987552
vt 0.172579 0.98331
vt 0.177956 0.978448
vt 0.182818 0.97309
vt 0.187059 0.967359
vt 0.19068 0.961255
vt 0.19368 0.954779
vt 0.196059 0.947931
vt 0.197818 0.94071
vt 0.199085 0.931816
vt 0.199507 0.922414
s off
f 179/179/179 180/180/180 1/1/1
f 1/1/1 2/2/2 3/3/3
f 3/3/3 4/4/4 5/5/5
f 5/5/5 6/6/6 7/7/7
f 7/7/7 8/8/8 9/9/9
f 9/9/9 10/10/10 11/11/11
f 11/11/11 12/12/12 13/13/13
f 13/13/13 14/14/14 15/15/15
f 15/15/15 16/16/16 17/17/17
f 17/17/17 18/18/18 19/19/19
f 19/19/19 20/20/20 21/21/21
f 21/21/21 22/22/22 23/23/23
f 23/23/23 24/24/24 25/25/25
f 25/25/25 26/26/26 27/27/27
f 27/27/27 28/28/28 29/29/29
f 29/29/29 30/30/30 31/31/31
f 31/31/31 32/32/32 33/33/33
f 33/33/33 34/34/34 35/35/35
f 53/53/53 54/54/54 55/55/55
f 55/55/55 56/56/56 57/57/57
f 57/57/57 58/58/58 59/59/59
f 59/59/59 60/60/60 61/61/61
f 61/61/61 62/62/62 63/63/63
f 63/63/63 64/64/64 65/65/65
f 65/65/65 66/66/66 67/67/67
f 67/67/67 68/68/68 69/69/69
f 69/69/69 70/70/70 71/71/71
f 71/71/71 72/72/72 73/73/73
f 73/73/73 74/74/74 75/75/75
f 75/75/75 76/76/76 77/77/77
f 77/77/77 78/78/78 79/79/79
f 79/79/79 80/80/80 81/81/81
f 81/81/81 82/82/82 83/83/83
f 83/83/83 84/84/84 85/85/85
f 85/85/85 86/86/86 87/87/87
f 87/87/87 88/88/88 89/89/89
f 89/89/89 90/90/90 91/91/91
f 126/126/126 127/127/127 128/128/128
f 128/128/128 129/129/129 130/130/130
f 130/130/130 131/131/131 132/132/132
f 132/132/132 133/133/133 134/134/134
f 134/134/134 135/135/135 136/136/136
f 136/136/136 137/137/137 138/138/138
f 138/138/138 139/139/139 140/140/140
f 140/140/140 141/141/141 142/142/142
f 142/142/142 143/143/143 144/144/144
f 144/144/144 145/145/145 146/146/146
f 146/146/146 147/147/147 148/148/148
f 148/148/148 149/149/149 150/150/150
f 150/150/150 151/151/151 152/152/152
f 152/152/152 153/153/153 154/154/154
f 154/154/154 155/155/155 156/156/156
f 156/156/156 157/157/157 158/158/158
f 158/158/158 159/159/159 160/160/160
f 160/160/160 161/161/161 162/162/162
f 162/162/162 163/163/163 164/164/164
f 164/164/164 165/165/165 166/166/166
f 166/166/166 167/167/167 168/168/168
f 168/168/168 169/169/169 170/170/170
f 170/170/170 171/171/171 172/172/172
f 172/172/172 173/173/173 174/174/174
f 174/174/174 175/175/175 176/176/176
f 176/176/176 177/177/177 178/178/178
f 178/178/178 179/179/179 1/1/1
f 1/1/1 3/3/3 5/5/5
f 5/5/5 7/7/7 9/9/9
f 9/9/9 11/11/11 13/13/13
f 13/13/13 15/15/15 17/17/17
f 17/17/17 19/19/19 21/21/21
f 21/21/21 23/23/23 25/25/25
f 25/25/25 27/27/27 29/29/29
f 29/29/29 31/31/31 33/33/33
f 33/33/33 35/35/35 36/36/36
f 53/53/53 55/55/55 57/57/57
f 57/57/57 59/59/59 61/61/61
f 61/61/61 63/63/63 65/65/65
f 65/65/65 67/67/67 69/69/69
f 69/69/69 71/71/71 73/73/73
f 73/73/73 75/75/75 77/77/77
f 77/77/77 79/79/79 81/81/81
f 81/81/81 83/83/83 85/85/85
f 85/85/85 87/87/87 89/89/89
f 126/126/126 128/128/128 130/130/130
f 130/130/130 132/132/132 134/134/134
f 134/134/134 136/136/136 138/138/138
f 138/138/138 140/140/140 142/142/142
f 142/142/142 144/144/144 146/146/146
f 146/146/146 148/148/148 150/150/150
f 150/150/150 152/152/152 154/154/154
f 154/154/154 156/156/156 158/158/158
f 158/158/158 160/160/160 162/162/162
f 162/162/162 164/164/164 166/166/166
f 166/166/166 168/168/168 170/170/170
f 170/170/170 172/172/172 174/174/174
f 174/174/174 176/176/176 178/178/178
f 178/178/178 1/1/1 5/5/5
f 5/5/5 9/9/9 13/13/13
f 13/13/13 17/17/17 21/21/21
f 21/21/21 25/25/25 29/29/29
f 29/29/29 33/33/33 36/36/36
f 53/53/53 57/57/57 61/61/61
f 61/61/61 65/65/65 69/69/69
f 69/69/69 73/73/73 77/77/77
f 77/77/77 81/81/81 85/85/85
f 85/85/85 89/89/89 91/91/91
f 126/126/126 130/130/130 134/134/134
f 134/134/134 138/138/138 142/142/142
f 142/142/142 146/146/146 150/150/150
f 150/150/150 154/154/154 158/158/158
f 158/158/158 162/162/162 166/166/166
f 166/166/166 170/170/170 174/174/174
f 174/174/174 178/178/178 5/5/5
f 5/5/5 13/13/13 21/21/21
f 21/21/21 29/29/29 36/36/36
f 53/53/53 61/61/61 69/69/69
f 69/69/69 77/77/77 85/85/85
f 126/126/126 134/134/134 142/142/142
f 142/142/142 150/150/150 158/158/158
f 158/158/158 166/166/166 174/174/174
f 174/174/174 5/5/5 21/21/21
f 21/21/21 36/36/36 37/37/37
f 52/52/52 53/53/53 69/69/69
f 69/69/69 85/85/85 91/91/91
f 125/125/125 126/126/126 142/142/142
f 142/142/142 158/158/158 174/174/174
f 174/174/174 21/21/21 37/37/37
f 52/52/52 69/69/69 91/91/91
f 125/125/125 142/142/142 174/174/174
f 174/174/174 37/37/37 38/38/38
f 51/51/51 52/52/52 91/91/91
f 124/124/124 125/125/125 174/174/174
f 174/174/174 38/38/38 39/39/39
f 50/50/50 51/51/51 91/91/91
f 123/123/123 124/124/124 174/174/174
f 174/174/174 39/39/39 40/40/40
f 49/49/49 50/50/50 91/91/91
f 122/122/122 123/123/123 174/174/174
f 174/174/174 40/40/40 41/41/41
f 48/48/48 49/49/49 91/91/91
f 121/121/121 122/122/122 174/174/174
f 174/174/174 41/41/41 42/42/42
f 47/47/47 48/48/48 91/91/91
f 120/120/120 121/121/121 174/174/174
f 174/174/174 42/42/42 43/43/43
f 46/46/46 47/47/47 91/91/91
f 119/119/119 120/120/120 174/174/174
f 174/174/174 43/43/43 44/44/44
f 45/45/45 46/46/46 91/91/91
f 118/118/118 119/119/119 174/174/174
f 174/174/174 44/44/44 45/45/45
f 45/45/45 91/91/91 92/92/92
f 117/117/117 118/118/118 174/174/174
f 45/45/45 92/92/92 93/93/93
f 116/116/116 117/117/117 174/174/174
f 45/45/45 93/93/93 94/94/94
f 115/115/115 116/116/116 174/174/174
f 45/45/45 94/94/94 95/95/95
f 114/114/114 115/115/115 174/174/174
f 45/45/45 95/95/95 96/96/96
f 113/113/113 114/114/114 174/174/174
f 45/45/45 96/96/96 97/97/97
f 112/112/112 113/113/113 174/174/174
f 45/45/45 97/97/97 98/98/98
f 111/111/111 112/112/112 174/174/174
f 45/45/45 98/98/98 99/99/99
f 110/110/110 111/111/111 174/174/174
f 45/45/45 99/99/99 100/100/100
f 109/109/109 110/110/110 174/174/174
f 45/45/45 100/100/100 101/101/101
f 108/108/108 109/109/109 174/174/174
f 45/45/45 101/101/101 102/102/102
f 107/107/107 108/108/108 174/174/174
f 174/174/174 45/45/45 102/102/102
f 106/106/106 107/107/107 174/174/174
f 174/174/174 102/102/102 103/103/103
f 105/105/105 106/106/106 174/174/174
f 174/174/174 103/103/103 104/104/104
f 104/104/104 105/105/105 174/174/174
f 307/307/307 308/308/308 181/181/181
f 181/181/181 182/182/182 183/183/183
f 183/183/183 184/184/184 185/185/185
f 185/185/185 186/186/186 187/187/187
f 187/187/187 188/188/188 189/189/189
f 189/189/189 190/190/190 191/191/191
f 191/191/191 192/192/192 193/193/193
f 193/193/193 194/194/194 195/195/195
f 195/195/195 196/196/196 197/197/197
f 197/197/197 198/198/198 199/199/199
f 199/199/199 200/200/200 201/201/201
f 201/201/201 202/202/202 203/203/203
f 203/203/203 204/204/204 205/205/205
f 205/205/205 206/206/206 207/207/207
f 207/207/207 208/208/208 209/209/209
f 209/209/209 210/210/210 211/211/211
f 211/211/211 212/212/212 213/213/213
f 213/213/213 214/214/214 215/215/215
f 215/215/215 216/216/216 217/217/217
f 217/217/217 218/218/218 219/219/219
f 219/219/219 220/220/220 221/221/221
f 221/221/221 222/222/222 223/223/223
f 223/223/223 224/224/224 225/225/225
f 225/225/225 226/226/226 227/227/227
f 227/227/227 228/228/228 229/229/229
f 229/229/229 230/230/230 231/231/231
f 231/231/231 232/232/232 233/233/233
f 233/233/233 234/234/234 235/235/235
f 235/235/235 236/236/236 237/237/237
f 237/237/237 238/238/238 239/239/239
f 239/239/239 240/240/240 241/241/241
f 241/241/241 242/242/242 243/243/243
f 243/243/243 244/244/244 245/245/245
f 246/246/246 247/247/247 248/248/248
f 248/248/248 249/249/249 250/250/250
f 250/250/250 251/251/251 252/252/252
f 252/252/252 253/253/253 254/254/254
f 254/254/254 255/255/255 256/256/256
f 256/256/256 257/257/257 258/258/258
f 258/258/258 259/259/259 260/260/260
f 260/260/260 261/261/261 262/262/262
f 262/262/262 263/263/263 264/264/264
f 264/264/264 265/265/265 266/266/266
f 266/266/266 267/267/267 268/268/268
f 268/268/268 269/269/269 270/270/270
f 270/270/270 271/271/271 272/272/272
f 272/272/272 273/273/273 274/274/274
f 274/274/274 275/275/275 276/276/276
f 276/276/276 277/277/277 278/278/278
f 278/278/278 279/279/279 280/280/280
f 280/280/280 281/281/281 282/282/282
f 282/282/282 283/283/283 284/284/284
f 284/284/284 285/285/285 286/286/286
f 286/286/286 287/287/287 288/288/288
f 288/288/288 289/289/289 290/290/290
f 290/290/290 291/291/291 292/292/292
f 292/292/292 293/293/293 294/294/294
f 294/294/294 295/295/295 296/296/296
f 296/296/296 297/297/297 298/298/298
f 298/298/298 299/299/299 300/300/300
f 300/300/300 301/301/301 302/302/302
f 302/302/302 303/303/303 304/304/304
f 304/304/304 305/305/305 306/306/306
f 306/306/306 307/307/307 181/181/181
f 181/181/181 183/183/183 185/185/185
f 185/185/185 187/187/187 189/189/189
f 189/189/189 191/191/191 193/193/193
f 193/193/193 195/195/195 197/197/197
f 197/197/197 199/199/199 201/201/201
f 201/201/201 203/203/203 205/205/205
f 205/205/205 207/207/207 209/209/209
f 209/209/209 211/211/211 213/213/213
f 213/213/213 215/215/215 217/217/217
f 217/217/217 219/219/219 221/221/221
f 221/221/221 223/223/223 225/225/225
f 225/225/225 227/227/227 229/229/229
f 229/229/229 231/231/231 233/233/233
f 233/233/233 235/235/235 237/237/237
f 237/237/237 239/239/239 241/241/241
f 241/241/241 243/243/243 245/245/245
f 246/246/246 248/248/248 250/250/250
f 250/250/250 252/252/252 254/254/254
f 254/254/254 256/256/256 258/258/258
f 258/258/258 260/260/260 262/262/262
f 262/262/262 264/264/264 266/266/266
f 266/266/266 268/268/268 270/270/270
f 270/270/270 272/272/272 274/274/274
f 274/274/274 276/276/276 278/278/278
f 278/278/278 280/280/280 282/282/282
f 282/282/282 284/284/284 286/286/286
f 286/286/286 288/288/288 290/290/290
f 290/290/290 292/292/292 294/294/294
f 294/294/294 296/296/296 298/298/298
f 298/298/298 300/300/300 302/302/302
f 302/302/302 304/304/304 306/306/306
f 181/181/181 185/185/185 189/189/189
f 189/189/189 193/193/193 197/197/197
f 197/197/197 201/201/201 205/205/205
f 205/205/205 209/209/209 213/213/213
f 213/213/213 217/217/217 221/221/221
f 221/221/221 225/225/225 229/229/229
f 229/229/229 233/233/233 237/237/237
f 237/237/237 241/241/241 245/245/245
f 246/246/246 250/250/250 254/254/254
f 254/254/254 258/258/258 262/262/262
f 262/262/262 266/266/266 270/270/270
f 270/270/270 274/274/274 278/278/278
f 278/278/278 282/282/282 286/286/286
f 286/286/286 290/290/290 294/294/294
f 294/294/294 298/298/298 302/302/302
f 302/302/302 306/306/306 181/181/181
f 181/181/181 189/189/189 197/197/197
f 197/197/197 205/205/205 213/213/213
f 213/213/213 221/221/221 229/229/229
f 229/229/229 237/237/237 245/245/245
f 246/246/246 254/254/254 262/262/262
f 262/262/262 270/270/270 278/278/278
f 278/278/278 286/286/286 294/294/294
f 294/294/294 302/302/302 181/181/181
f 197/197/197 213/213/213 229/229/229
f 229/229/229 245/245/245 246/246/246
f 262/262/262 278/278/278 294/294/294
f 197/197/197 229/229/229 246/246/246
f 262/262/262 294/294/294 181/181/181
f 181/181/181 197/197/197 246/246/246
f 246/246/246 262/262/262 181/181/181
