v 0.034602 0.024116 0.061013
v 0.040737 0.024087 0.019633
v 0.034602 0.024087 0.019633
v 0.034602 0.024116 0.061013
v 0.040737 0.024117 0.062829
v 0.040737 0.024087 0.019633
v 0.034587 0.024117 0.062601
v 0.040737 0.024117 0.062829
v 0.034602 0.024116 0.061013
v 0.03453 0.024118 0.06405
v 0.040737 0.024117 0.062829
v 0.034587 0.024117 0.062601
v 0.03453 0.024118 0.06405
v 0.040669 0.024118 0.064772
v 0.040737 0.024117 0.062829
v 0.034412 0.024119 0.065358
v 0.040669 0.024118 0.064772
v 0.03453 0.024118 0.06405
v 0.034412 0.024119 0.065358
v 0.040461 0.02412 0.066619
v 0.040669 0.024118 0.064772
v 0.034215 0.02412 0.066527
v 0.040461 0.02412 0.066619
v 0.034412 0.024119 0.065358
v 0.033919 0.02412 0.067557
v 0.040461 0.02412 0.066619
v 0.034215 0.02412 0.066527
v 0.033919 0.02412 0.067557
v 0.040104 0.024121 0.068354
v 0.040461 0.02412 0.066619
v 0.033506 0.024121 0.068447
v 0.040104 0.024121 0.068354
v 0.033919 0.02412 0.067557
v 0.033506 0.024121 0.068447
v 0.039591 0.024122 0.069965
v 0.040104 0.024121 0.068354
v 0.032958 0.024122 0.0692
v 0.039591 0.024122 0.069965
v 0.033506 0.024121 0.068447
v 0.032255 0.024122 0.069815
v 0.039591 0.024122 0.069965
v 0.032958 0.024122 0.0692
v 0.03138 0.024122 0.070292
v 0.039591 0.024122 0.069965
v 0.032255 0.024122 0.069815
v 0.03138 0.024122 0.070292
v 0.038915 0.024123 0.071438
v 0.039591 0.024122 0.069965
v 0.030312 0.024123 0.070633
v 0.038915 0.024123 0.071438
v 0.03138 0.024122 0.070292
v 0.029035 0.024123 0.070836
v 0.038915 0.024123 0.071438
v 0.030312 0.024123 0.070633
v 0.027528 0.024123 0.070905
v 0.038915 0.024123 0.071438
v 0.029035 0.024123 0.070836
v 0.027089 0.024127 0.076601
v 0.027528 0.024123 0.070905
v 0.025963 0.024123 0.070905
v 0.027089 0.024127 0.076601
v 0.038915 0.024123 0.071438
v 0.027528 0.024123 0.070905
v 0.027089 0.024127 0.076601
v 0.038068 0.024124 0.072759
v 0.038915 0.024123 0.071438
v 0.027089 0.024127 0.076601
v 0.037043 0.024125 0.073914
v 0.038068 0.024124 0.072759
v 0.027089 0.024127 0.076601
v 0.035831 0.024125 0.07489
v 0.037043 0.024125 0.073914
v 0.027089 0.024127 0.076601
v 0.034425 0.024126 0.075673
v 0.035831 0.024125 0.07489
v 0.027089 0.024127 0.076601
v 0.032817 0.024126 0.076249
v 0.034425 0.024126 0.075673
v 0.027089 0.024127 0.076601
v 0.031001 0.024127 0.076605
v 0.032817 0.024126 0.076249
v 0.027244 0.024127 0.076617
v 0.031001 0.024127 0.076605
v 0.027089 0.024127 0.076601
v 0.027244 0.024127 0.076617
v 0.028968 0.024127 0.076727
v 0.031001 0.024127 0.076605
v 0.027394 0.024127 0.076632
v 0.028968 0.024127 0.076727
v 0.027244 0.024127 0.076617
v 0.027541 0.024127 0.076647
v 0.028968 0.024127 0.076727
v 0.027394 0.024127 0.076632
v 0.027688 0.024127 0.076661
v 0.028968 0.024127 0.076727
v 0.027541 0.024127 0.076647
v 0.027834 0.024127 0.076675
v 0.028968 0.024127 0.076727
v 0.027688 0.024127 0.076661
v 0.027982 0.024127 0.076687
v 0.028968 0.024127 0.076727
v 0.027834 0.024127 0.076675
v 0.028132 0.024127 0.076698
v 0.028968 0.024127 0.076727
v 0.027982 0.024127 0.076687
v 0.028286 0.024127 0.076708
v 0.028968 0.024127 0.076727
v 0.028132 0.024127 0.076698
v 0.028445 0.024127 0.076715
v 0.028968 0.024127 0.076727
v 0.028286 0.024127 0.076708
v 0.028611 0.024127 0.076721
v 0.028968 0.024127 0.076727
v 0.028445 0.024127 0.076715
v 0.028785 0.024127 0.076725
v 0.028968 0.024127 0.076727
v 0.028611 0.024127 0.076721
v 0.040737 0.020331 0.019635
v 0.034602 0.02036 0.061016
v 0.034602 0.020331 0.019635
v 0.040737 0.020361 0.062831
v 0.034602 0.02036 0.061016
v 0.040737 0.020331 0.019635
v 0.040737 0.020361 0.062831
v 0.034587 0.020361 0.062605
v 0.034602 0.02036 0.061016
v 0.040737 0.020361 0.062831
v 0.03453 0.020362 0.064052
v 0.034587 0.020361 0.062605
v 0.040669 0.020362 0.064775
v 0.03453 0.020362 0.064052
v 0.040737 0.020361 0.062831
v 0.040669 0.020362 0.064775
v 0.034412 0.020363 0.065361
v 0.03453 0.020362 0.064052
v 0.040461 0.020364 0.066621
v 0.034412 0.020363 0.065361
v 0.040669 0.020362 0.064775
v 0.040461 0.020364 0.066621
v 0.034215 0.020364 0.066529
v 0.034412 0.020363 0.065361
v 0.040461 0.020364 0.066621
v 0.033919 0.020364 0.067559
v 0.034215 0.020364 0.066529
v 0.040104 0.020365 0.068357
v 0.033919 0.020364 0.067559
v 0.040461 0.020364 0.066621
v 0.040104 0.020365 0.068357
v 0.033506 0.020365 0.06845
v 0.033919 0.020364 0.067559
v 0.039591 0.020366 0.069968
v 0.033506 0.020365 0.06845
v 0.040104 0.020365 0.068357
v 0.039591 0.020366 0.069968
v 0.032958 0.020365 0.069202
v 0.033506 0.020365 0.06845
v 0.039591 0.020366 0.069968
v 0.032255 0.020366 0.069817
v 0.032958 0.020365 0.069202
v 0.039591 0.020366 0.069968
v 0.03138 0.020366 0.070294
v 0.032255 0.020366 0.069817
v 0.038915 0.020367 0.071441
v 0.03138 0.020366 0.070294
v 0.039591 0.020366 0.069968
v 0.038915 0.020367 0.071441
v 0.030312 0.020366 0.070635
v 0.03138 0.020366 0.070294
v 0.038915 0.020367 0.071441
v 0.029035 0.020367 0.070839
v 0.030312 0.020366 0.070635
v 0.038915 0.020367 0.071441
v 0.027528 0.020367 0.070907
v 0.029035 0.020367 0.070839
v 0.027528 0.020367 0.070907
v 0.027089 0.020371 0.076604
v 0.025963 0.020367 0.070907
v 0.038915 0.020367 0.071441
v 0.027089 0.020371 0.076604
v 0.027528 0.020367 0.070907
v 0.038068 0.020368 0.072761
v 0.027089 0.020371 0.076604
v 0.038915 0.020367 0.071441
v 0.037043 0.020369 0.073917
v 0.027089 0.020371 0.076604
v 0.038068 0.020368 0.072761
v 0.035831 0.020369 0.074892
v 0.027089 0.020371 0.076604
v 0.037043 0.020369 0.073917
v 0.034425 0.02037 0.075676
v 0.027089 0.020371 0.076604
v 0.035831 0.020369 0.074892
v 0.032817 0.02037 0.076251
v 0.027089 0.020371 0.076604
v 0.034425 0.02037 0.075676
v 0.031001 0.020371 0.076608
v 0.027089 0.020371 0.076604
v 0.032817 0.02037 0.076251
v 0.031001 0.020371 0.076608
v 0.027244 0.020371 0.076619
v 0.027089 0.020371 0.076604
v 0.028968 0.020371 0.076729
v 0.027244 0.020371 0.076619
v 0.031001 0.020371 0.076608
v 0.028968 0.020371 0.076729
v 0.027394 0.020371 0.076635
v 0.027244 0.020371 0.076619
v 0.028968 0.020371 0.076729
v 0.027541 0.020371 0.07665
v 0.027394 0.020371 0.076635
v 0.028968 0.020371 0.076729
v 0.027688 0.020371 0.076664
v 0.027541 0.020371 0.07665
v 0.028968 0.020371 0.076729
v 0.027834 0.020371 0.076678
v 0.027688 0.020371 0.076664
v 0.028968 0.020371 0.076729
v 0.027982 0.020371 0.07669
v 0.027834 0.020371 0.076678
v 0.028968 0.020371 0.076729
v 0.028132 0.020371 0.076701
v 0.027982 0.020371 0.07669
v 0.028968 0.020371 0.076729
v 0.028286 0.020371 0.07671
v 0.028132 0.020371 0.076701
v 0.028968 0.020371 0.076729
v 0.028445 0.020371 0.076718
v 0.028286 0.020371 0.07671
v 0.028968 0.020371 0.076729
v 0.028611 0.020371 0.076724
v 0.028445 0.020371 0.076718
v 0.028968 0.020371 0.076729
v 0.028785 0.020371 0.076728
v 0.028611 0.020371 0.076724
v 0.040669 0.024118 0.064772
v 0.040461 0.02412 0.066619
v 0.040461 0.020364 0.066621
v 0.040669 0.020362 0.064775
v 0.040461 0.02412 0.066619
v 0.040104 0.024121 0.068354
v 0.040104 0.020365 0.068357
v 0.040461 0.020364 0.066621
v 0.040104 0.024121 0.068354
v 0.039591 0.024122 0.069965
v 0.039591 0.020366 0.069968
v 0.040104 0.020365 0.068357
v 0.039591 0.024122 0.069965
v 0.038915 0.024123 0.071438
v 0.038915 0.020367 0.071441
v 0.039591 0.020366 0.069968
v 0.038915 0.024123 0.071438
v 0.038068 0.024124 0.072759
v 0.038068 0.020368 0.072761
v 0.038915 0.020367 0.071441
v 0.038068 0.024124 0.072759
v 0.037043 0.024125 0.073914
v 0.037043 0.020369 0.073917
v 0.038068 0.020368 0.072761
v 0.037043 0.024125 0.073914
v 0.035831 0.024125 0.07489
v 0.035831 0.020369 0.074892
v 0.037043 0.020369 0.073917
v 0.035831 0.024125 0.07489
v 0.034425 0.024126 0.075673
v 0.034425 0.02037 0.075676
v 0.035831 0.020369 0.074892
v 0.034425 0.024126 0.075673
v 0.032817 0.024126 0.076249
v 0.032817 0.02037 0.076251
v 0.034425 0.02037 0.075676
v 0.032817 0.024126 0.076249
v 0.031001 0.024127 0.076605
v 0.031001 0.020371 0.076608
v 0.032817 0.02037 0.076251
v 0.031001 0.024127 0.076605
v 0.028968 0.024127 0.076727
v 0.028968 0.020371 0.076729
v 0.031001 0.020371 0.076608
v 0.028968 0.024127 0.076727
v 0.028785 0.024127 0.076725
v 0.028785 0.020371 0.076728
v 0.028968 0.020371 0.076729
v 0.028785 0.024127 0.076725
v 0.028611 0.024127 0.076721
v 0.028611 0.020371 0.076724
v 0.028785 0.020371 0.076728
v 0.028611 0.024127 0.076721
v 0.028445 0.024127 0.076715
v 0.028445 0.020371 0.076718
v 0.028611 0.020371 0.076724
v 0.028445 0.024127 0.076715
v 0.028286 0.024127 0.076708
v 0.028286 0.020371 0.07671
v 0.028445 0.020371 0.076718
v 0.028286 0.024127 0.076708
v 0.028132 0.024127 0.076698
v 0.028132 0.020371 0.076701
v 0.028286 0.020371 0.07671
v 0.028132 0.024127 0.076698
v 0.027982 0.024127 0.076687
v 0.027982 0.020371 0.07669
v 0.028132 0.020371 0.076701
v 0.027982 0.024127 0.076687
v 0.027834 0.024127 0.076675
v 0.027834 0.020371 0.076678
v 0.027982 0.020371 0.07669
v 0.027834 0.024127 0.076675
v 0.027688 0.024127 0.076661
v 0.027688 0.020371 0.076664
v 0.027834 0.020371 0.076678
v 0.027688 0.024127 0.076661
v 0.027541 0.024127 0.076647
v 0.027541 0.020371 0.07665
v 0.027688 0.020371 0.076664
v 0.027541 0.024127 0.076647
v 0.027394 0.024127 0.076632
v 0.027394 0.020371 0.076635
v 0.027541 0.020371 0.07665
v 0.027394 0.024127 0.076632
v 0.027244 0.024127 0.076617
v 0.027244 0.020371 0.076619
v 0.027394 0.020371 0.076635
v 0.027244 0.024127 0.076617
v 0.027089 0.024127 0.076601
v 0.027089 0.020371 0.076604
v 0.027244 0.020371 0.076619
v 0.027089 0.024127 0.076601
v 0.025963 0.024123 0.070905
v 0.025963 0.020367 0.070907
v 0.027089 0.020371 0.076604
v 0.025963 0.024123 0.070905
v 0.027528 0.024123 0.070905
v 0.027528 0.020367 0.070907
v 0.025963 0.020367 0.070907
v 0.027528 0.024123 0.070905
v 0.029035 0.024123 0.070836
v 0.029035 0.020367 0.070839
v 0.027528 0.020367 0.070907
v 0.029035 0.024123 0.070836
v 0.030312 0.024123 0.070633
v 0.030312 0.020366 0.070635
v 0.029035 0.020367 0.070839
v 0.030312 0.024123 0.070633
v 0.03138 0.024122 0.070292
v 0.03138 0.020366 0.070294
v 0.030312 0.020366 0.070635
v 0.03138 0.024122 0.070292
v 0.032255 0.024122 0.069815
v 0.032255 0.020366 0.069817
v 0.03138 0.020366 0.070294
v 0.032255 0.024122 0.069815
v 0.032958 0.024122 0.0692
v 0.032958 0.020365 0.069202
v 0.032255 0.020366 0.069817
v 0.032958 0.024122 0.0692
v 0.033506 0.024121 0.068447
v 0.033506 0.020365 0.06845
v 0.032958 0.020365 0.069202
v 0.033506 0.024121 0.068447
v 0.033919 0.02412 0.067557
v 0.033919 0.020364 0.067559
v 0.033506 0.020365 0.06845
v 0.033919 0.02412 0.067557
v 0.034215 0.02412 0.066527
v 0.034215 0.020364 0.066529
v 0.033919 0.020364 0.067559
v 0.034215 0.02412 0.066527
v 0.034412 0.024119 0.065358
v 0.034412 0.020363 0.065361
v 0.034215 0.020364 0.066529
v 0.034412 0.024119 0.065358
v 0.03453 0.024118 0.06405
v 0.03453 0.020362 0.064052
v 0.034412 0.020363 0.065361
v 0.03453 0.024118 0.06405
v 0.034587 0.024117 0.062601
v 0.034587 0.020361 0.062605
v 0.03453 0.020362 0.064052
v 0.034587 0.024117 0.062601
v 0.034602 0.024116 0.061013
v 0.034602 0.02036 0.061016
v 0.034587 0.020361 0.062605
v 0.034602 0.024116 0.061013
v 0.034602 0.024087 0.019633
v 0.034602 0.020331 0.019635
v 0.034602 0.02036 0.061016
v 0.034602 0.024087 0.019633
v 0.040737 0.024087 0.019633
v 0.040737 0.020331 0.019635
v 0.034602 0.020331 0.019635
v 0.040737 0.024087 0.019633
v 0.040737 0.024117 0.062829
v 0.040737 0.020361 0.062831
v 0.040737 0.020331 0.019635
v 0.040737 0.024117 0.062829
v 0.040669 0.024118 0.064772
v 0.040669 0.020362 0.064775
v 0.040737 0.020361 0.062831
vn -0 1 -0.0007
vn -0 1 -0.0007
vn -0 1 -0.0007
vn -0 1 -0.0007
vn -0 1 -0.0006
vn -0 1 -0.0007
vn -0 1 -0.0007
vn -0 1 -0.0006
vn -0 1 -0.0007
vn 0.0001 1 -0.0007
vn -0 1 -0.0006
vn -0 1 -0.0007
vn 0.0001 1 -0.0007
vn 0.0001 1 -0.0008
vn -0 1 -0.0006
vn -0 1 -0.0008
vn 0.0001 1 -0.0008
vn 0.0001 1 -0.0007
vn -0 1 -0.0008
vn -0 1 -0.0008
vn 0.0001 1 -0.0008
vn -0 1 -0.0004
vn -0 1 -0.0008
vn -0 1 -0.0008
vn -0 1 -0.0007
vn -0 1 -0.0008
vn -0 1 -0.0004
vn -0 1 -0.0007
vn -0.0001 1 -0.0006
vn -0 1 -0.0008
vn 0.0001 1 -0.0011
vn -0.0001 1 -0.0006
vn -0 1 -0.0007
vn 0.0001 1 -0.0011
vn -0 1 -0.0006
vn -0.0001 1 -0.0006
vn -0 1 -0.0004
vn -0 1 -0.0006
vn 0.0001 1 -0.0011
vn -0 1 -0.0009
vn -0 1 -0.0006
vn -0 1 -0.0004
vn -0 1 -0.0007
vn -0 1 -0.0006
vn -0 1 -0.0009
vn -0 1 -0.0007
vn -0 1 -0.0007
vn -0 1 -0.0006
vn -0 1 -0.0006
vn -0 1 -0.0007
vn -0 1 -0.0007
vn -0 1 -0.0005
vn -0 1 -0.0007
vn -0 1 -0.0006
vn -0 1 -0.0007
vn -0 1 -0.0007
vn -0 1 -0.0005
vn -0 1 -0.0007
vn -0 1 -0.0007
vn -0 1 -0.0007
vn -0 1 -0.0007
vn -0 1 -0.0007
vn -0 1 -0.0007
vn -0 1 -0.0007
vn -0 1 -0.0008
vn -0 1 -0.0007
vn -0 1 -0.0007
vn -0 1 -0.0007
vn -0 1 -0.0008
vn -0 1 -0.0007
vn 0.0001 1 -0.0006
vn -0 1 -0.0007
vn -0 1 -0.0007
vn -0 1 -0.0007
vn 0.0001 1 -0.0006
vn -0 1 -0.0007
vn -0 1 -0.0006
vn -0 1 -0.0007
vn -0 1 -0.0007
vn -0 1 -0.0007
vn -0 1 -0.0006
vn -0 1 -0.0007
vn -0 1 -0.0007
vn -0 1 -0.0007
vn -0 1 -0.0007
vn 0.0001 1 -0.0024
vn -0 1 -0.0007
vn -0 1 -0.0009
vn 0.0001 1 -0.0024
vn -0 1 -0.0007
vn -0 1 -0.0004
vn 0.0001 1 -0.0024
vn -0 1 -0.0009
vn -0 1 -0.0005
vn 0.0001 1 -0.0024
vn -0 1 -0.0004
vn -0 1 -0.0007
vn 0.0001 1 -0.0024
vn -0 1 -0.0005
vn -0 1 -0.0005
vn 0.0001 1 -0.0024
vn -0 1 -0.0007
vn -0 1 -0.0011
vn 0.0001 1 -0.0024
vn -0 1 -0.0005
vn -0 1 -0.0011
vn 0.0001 1 -0.0024
vn -0 1 -0.0011
vn -0 1 -0
vn 0.0001 1 -0.0024
vn -0 1 -0.0011
vn -0 1 -0.0024
vn 0.0001 1 -0.0024
vn -0 1 -0
vn -0 1 -0.0052
vn 0.0001 1 -0.0024
vn -0 1 -0.0024
vn -0 -1 0.0007
vn -0 -1 0.0007
vn -0 -1 0.0007
vn -0 -1 0.0006
vn -0 -1 0.0007
vn -0 -1 0.0007
vn -0 -1 0.0006
vn -0 -1 0.0007
vn -0 -1 0.0007
vn -0 -1 0.0006
vn -0.0001 -1 0.0007
vn -0 -1 0.0007
vn -0.0001 -1 0.0008
vn -0.0001 -1 0.0007
vn -0 -1 0.0006
vn -0.0001 -1 0.0008
vn -0 -1 0.0008
vn -0.0001 -1 0.0007
vn -0 -1 0.0008
vn -0 -1 0.0008
vn -0.0001 -1 0.0008
vn -0 -1 0.0008
vn -0 -1 0.0004
vn -0 -1 0.0008
vn -0 -1 0.0008
vn -0 -1 0.0007
vn -0 -1 0.0004
vn 0.0001 -1 0.0006
vn -0 -1 0.0007
vn -0 -1 0.0008
vn 0.0001 -1 0.0006
vn 0.0001 -1 0.0005
vn -0 -1 0.0007
vn -0 -1 0.0006
vn 0.0001 -1 0.0005
vn 0.0001 -1 0.0006
vn -0 -1 0.0006
vn -0 -1 0.0011
vn 0.0001 -1 0.0005
vn -0 -1 0.0006
vn -0 -1 0.0003
vn -0 -1 0.0011
vn -0 -1 0.0006
vn -0 -1 0.0006
vn -0 -1 0.0003
vn -0 -1 0.0007
vn -0 -1 0.0006
vn -0 -1 0.0006
vn -0 -1 0.0007
vn -0 -1 0.0007
vn -0 -1 0.0006
vn -0 -1 0.0007
vn -0 -1 0.0007
vn -0 -1 0.0007
vn -0 -1 0.0007
vn -0 -1 0.0007
vn -0 -1 0.0007
vn -0 -1 0.0007
vn -0 -1 0.0007
vn -0 -1 0.0007
vn -0 -1 0.0007
vn -0 -1 0.0007
vn -0 -1 0.0007
vn -0 -1 0.0008
vn -0 -1 0.0007
vn -0 -1 0.0007
vn -0 -1 0.0007
vn -0 -1 0.0007
vn -0 -1 0.0008
vn -0.0001 -1 0.0003
vn -0 -1 0.0007
vn -0 -1 0.0007
vn -0 -1 0.0012
vn -0 -1 0.0007
vn -0.0001 -1 0.0003
vn -0 -1 0.0008
vn -0 -1 0.0007
vn -0 -1 0.0012
vn -0 -1 0.0007
vn -0 -1 0.0007
vn -0 -1 0.0008
vn -0 -1 0.0007
vn -0 -1 0.0007
vn -0 -1 0.0007
vn -0 -1 0.0004
vn -0 -1 0.0007
vn -0 -1 0.0007
vn -0 -1 0.0004
vn -0 -1 0.0002
vn -0 -1 0.0007
vn -0 -1 0.0004
vn -0 -1 0.0007
vn -0 -1 0.0002
vn -0 -1 0.0004
vn -0 -1 0.0008
vn -0 -1 0.0007
vn -0 -1 0.0004
vn -0 -1 0.0007
vn -0 -1 0.0008
vn -0 -1 0.0004
vn -0 -1 -0.0001
vn -0 -1 0.0007
vn -0 -1 0.0004
vn -0 -1 -0
vn -0 -1 -0.0001
vn -0 -1 0.0004
vn -0 -1 0.0011
vn -0 -1 -0
vn -0 -1 0.0004
vn -0 -1 0.0007
vn -0 -1 0.0011
vn -0 -1 0.0004
vn -0 -1 0.0001
vn -0 -1 0.0007
vn -0 -1 0.0004
vn -0 -1 -0
vn -0 -1 0.0001
vn 0.9973 -0 0.0735
vn 0.9876 0.0001 0.1569
vn 0.9876 0.0001 0.1569
vn 0.9973 -0 0.0735
vn 0.9876 0.0001 0.1569
vn 0.9675 0.0002 0.2528
vn 0.9675 0.0002 0.2528
vn 0.9876 0.0001 0.1569
vn 0.9675 0.0002 0.2528
vn 0.9326 0.0003 0.3609
vn 0.9327 0.0003 0.3606
vn 0.9675 0.0002 0.2528
vn 0.9326 0.0003 0.3609
vn 0.8774 0.0003 0.4797
vn 0.8774 0.0003 0.4797
vn 0.9327 0.0003 0.3606
vn 0.8774 0.0003 0.4797
vn 0.7973 0.0004 0.6036
vn 0.7973 0.0004 0.6036
vn 0.8774 0.0003 0.4797
vn 0.7973 0.0004 0.6036
vn 0.69 0.0005 0.7238
vn 0.69 0.0005 0.7239
vn 0.7973 0.0004 0.6036
vn 0.69 0.0005 0.7238
vn 0.5589 0.0006 0.8292
vn 0.5589 0.0006 0.8292
vn 0.69 0.0005 0.7239
vn 0.5589 0.0006 0.8292
vn 0.4133 0.0006 0.9106
vn 0.4133 0.0006 0.9106
vn 0.5589 0.0006 0.8292
vn 0.4133 0.0006 0.9106
vn 0.2655 0.0006 0.9641
vn 0.2655 0.0006 0.9641
vn 0.4133 0.0006 0.9106
vn 0.2655 0.0006 0.9641
vn 0.1264 0.0007 0.992
vn 0.1264 0.0007 0.992
vn 0.2655 0.0006 0.9641
vn 0.1264 0.0007 0.992
vn 0.0264 0.0007 0.9997
vn 0.0263 0.0007 0.9997
vn 0.1264 0.0007 0.992
vn 0.0264 0.0007 0.9997
vn -0.0142 0.0007 0.9999
vn -0.0142 0.0007 0.9999
vn 0.0263 0.0007 0.9997
vn -0.0142 0.0007 0.9999
vn -0.0281 0.0007 0.9996
vn -0.0281 0.0007 0.9996
vn -0.0142 0.0007 0.9999
vn -0.0281 0.0007 0.9996
vn -0.0419 0.0007 0.9991
vn -0.0421 0.0007 0.9991
vn -0.0281 0.0007 0.9996
vn -0.0419 0.0007 0.9991
vn -0.0552 0.0007 0.9985
vn -0.0553 0.0007 0.9985
vn -0.0421 0.0007 0.9991
vn -0.0552 0.0007 0.9985
vn -0.0678 0.0007 0.9977
vn -0.0677 0.0007 0.9977
vn -0.0553 0.0007 0.9985
vn -0.0678 0.0007 0.9977
vn -0.0787 0.0007 0.9969
vn -0.0787 0.0007 0.9969
vn -0.0677 0.0007 0.9977
vn -0.0787 0.0007 0.9969
vn -0.0872 0.0007 0.9962
vn -0.0873 0.0007 0.9962
vn -0.0787 0.0007 0.9969
vn -0.0872 0.0007 0.9962
vn -0.0946 0.0007 0.9955
vn -0.0945 0.0007 0.9955
vn -0.0873 0.0007 0.9962
vn -0.0946 0.0007 0.9955
vn -0.099 0.0007 0.9951
vn -0.0989 0.0007 0.9951
vn -0.0945 0.0007 0.9955
vn -0.099 0.0007 0.9951
vn -0.1016 0.0007 0.9948
vn -0.1014 0.0007 0.9948
vn -0.0989 0.0007 0.9951
vn -0.1016 0.0007 0.9948
vn -0.1011 0.0007 0.9949
vn -0.1015 0.0007 0.9948
vn -0.1014 0.0007 0.9948
vn -0.1011 0.0007 0.9949
vn -0.6733 0.0005 0.7394
vn -0.6732 0.0005 0.7394
vn -0.1015 0.0007 0.9948
vn -0.6733 0.0005 0.7394
vn -0.7727 -0.0003 -0.6348
vn -0.7726 -0.0003 -0.6349
vn -0.6732 0.0005 0.7394
vn -0.7727 -0.0003 -0.6348
vn -0.0227 -0.0006 -0.9997
vn -0.0227 -0.0006 -0.9997
vn -0.7726 -0.0003 -0.6349
vn -0.0227 -0.0006 -0.9997
vn -0.1016 -0.0007 -0.9948
vn -0.1016 -0.0007 -0.9948
vn -0.0227 -0.0006 -0.9997
vn -0.1016 -0.0007 -0.9948
vn -0.2314 -0.0006 -0.9729
vn -0.2314 -0.0006 -0.9729
vn -0.1016 -0.0007 -0.9948
vn -0.2314 -0.0006 -0.9729
vn -0.3932 -0.0005 -0.9195
vn -0.3932 -0.0005 -0.9195
vn -0.2314 -0.0006 -0.9729
vn -0.3932 -0.0005 -0.9195
vn -0.572 -0.0004 -0.8203
vn -0.572 -0.0004 -0.8203
vn -0.3932 -0.0005 -0.9195
vn -0.572 -0.0004 -0.8203
vn -0.7377 -0.0007 -0.6752
vn -0.7378 -0.0006 -0.6751
vn -0.572 -0.0004 -0.8203
vn -0.7377 -0.0007 -0.6752
vn -0.8621 -0.0005 -0.5067
vn -0.8621 -0.0006 -0.5067
vn -0.7378 -0.0006 -0.6751
vn -0.8621 -0.0005 -0.5067
vn -0.9369 -0.0002 -0.3495
vn -0.937 -0.0002 -0.3492
vn -0.8621 -0.0006 -0.5067
vn -0.9369 -0.0002 -0.3495
vn -0.9751 -0.0001 -0.2216
vn -0.9751 -0.0003 -0.2219
vn -0.937 -0.0002 -0.3492
vn -0.9751 -0.0001 -0.2216
vn -0.9918 -0.0001 -0.1281
vn -0.9918 -0.0001 -0.1281
vn -0.9751 -0.0003 -0.2219
vn -0.9918 -0.0001 -0.1281
vn -0.9979 -0 -0.0646
vn -0.9979 -0 -0.0646
vn -0.9918 -0.0001 -0.1281
vn -0.9979 -0 -0.0646
vn -0.9997 -0 -0.0244
vn -0.9997 -0 -0.0244
vn -0.9979 -0 -0.0646
vn -0.9997 -0 -0.0244
vn -1 -0 -0.0047
vn -1 -0 -0.0047
vn -0.9997 -0 -0.0244
vn -1 -0 -0.0047
vn -0.7071 -0.0004 -0.7071
vn -0.7071 -0.0004 -0.7071
vn -1 -0 -0.0047
vn -0.7071 -0.0004 -0.7071
vn 0.7071 -0.0004 -0.7071
vn 0.7071 -0.0004 -0.7071
vn -0.7071 -0.0004 -0.7071
vn 0.7071 -0.0004 -0.7071
vn 0.9998 -0 0.0175
vn 0.9998 -0 0.0175
vn 0.7071 -0.0004 -0.7071
vn 0.9998 -0 0.0175
vn 0.9973 -0 0.0735
vn 0.9973 -0 0.0735
vn 0.9998 -0 0.0175
vt 0.925 1
vt 0.975 1
vt 0.95 1
vt 0.925 1
vt 1 1
vt 0.975 1
vt 0.9 1
vt 1 1
vt 0.925 1
vt 0.875 1
vt 1 1
vt 0.9 1
vt 0.875 1
vt 0 1
vt 1 1
vt 0.85 1
vt 0 1
vt 0.875 1
vt 0.85 1
vt 0.025 1
vt 0 1
vt 0.825 1
vt 0.025 1
vt 0.85 1
vt 0.8 1
vt 0.025 1
vt 0.825 1
vt 0.8 1
vt 0.05 1
vt 0.025 1
vt 0.775 1
vt 0.05 1
vt 0.8 1
vt 0.775 1
vt 0.075 1
vt 0.05 1
vt 0.75 1
vt 0.075 1
vt 0.775 1
vt 0.725 1
vt 0.075 1
vt 0.75 1
vt 0.7 1
vt 0.075 1
vt 0.725 1
vt 0.7 1
vt 0.1 1
vt 0.075 1
vt 0.675 1
vt 0.1 1
vt 0.7 1
vt 0.65 1
vt 0.1 1
vt 0.675 1
vt 0.625 1
vt 0.1 1
vt 0.65 1
vt 0.575 1
vt 0.625 1
vt 0.6 1
vt 0.575 1
vt 0.1 1
vt 0.625 1
vt 0.575 1
vt 0.125 1
vt 0.1 1
vt 0.575 1
vt 0.15 1
vt 0.125 1
vt 0.575 1
vt 0.175 1
vt 0.15 1
vt 0.575 1
vt 0.2 1
vt 0.175 1
vt 0.575 1
vt 0.225 1
vt 0.2 1
vt 0.575 1
vt 0.25 1
vt 0.225 1
vt 0.55 1
vt 0.25 1
vt 0.575 1
vt 0.55 1
vt 0.275 1
vt 0.25 1
vt 0.525 1
vt 0.275 1
vt 0.55 1
vt 0.5 1
vt 0.275 1
vt 0.525 1
vt 0.475 1
vt 0.275 1
vt 0.5 1
vt 0.45 1
vt 0.275 1
vt 0.475 1
vt 0.425 1
vt 0.275 1
vt 0.45 1
vt 0.4 1
vt 0.275 1
vt 0.425 1
vt 0.375 1
vt 0.275 1
vt 0.4 1
vt 0.35 1
vt 0.275 1
vt 0.375 1
vt 0.325 1
vt 0.275 1
vt 0.35 1
vt 0.3 1
vt 0.275 1
vt 0.325 1
vt 0.975 1
vt 0.925 1
vt 0.95 1
vt 1 1
vt 0.925 1
vt 0.975 1
vt 1 1
vt 0.9 1
vt 0.925 1
vt 1 1
vt 0.875 1
vt 0.9 1
vt 0 1
vt 0.875 1
vt 1 1
vt 0 1
vt 0.85 1
vt 0.875 1
vt 0.025 1
vt 0.85 1
vt 0 1
vt 0.025 1
vt 0.825 1
vt 0.85 1
vt 0.025 1
vt 0.8 1
vt 0.825 1
vt 0.05 1
vt 0.8 1
vt 0.025 1
vt 0.05 1
vt 0.775 1
vt 0.8 1
vt 0.075 1
vt 0.775 1
vt 0.05 1
vt 0.075 1
vt 0.75 1
vt 0.775 1
vt 0.075 1
vt 0.725 1
vt 0.75 1
vt 0.075 1
vt 0.7 1
vt 0.725 1
vt 0.1 1
vt 0.7 1
vt 0.075 1
vt 0.1 1
vt 0.675 1
vt 0.7 1
vt 0.1 1
vt 0.65 1
vt 0.675 1
vt 0.1 1
vt 0.625 1
vt 0.65 1
vt 0.625 1
vt 0.575 1
vt 0.6 1
vt 0.1 1
vt 0.575 1
vt 0.625 1
vt 0.125 1
vt 0.575 1
vt 0.1 1
vt 0.15 1
vt 0.575 1
vt 0.125 1
vt 0.175 1
vt 0.575 1
vt 0.15 1
vt 0.2 1
vt 0.575 1
vt 0.175 1
vt 0.225 1
vt 0.575 1
vt 0.2 1
vt 0.25 1
vt 0.575 1
vt 0.225 1
vt 0.25 1
vt 0.55 1
vt 0.575 1
vt 0.275 1
vt 0.55 1
vt 0.25 1
vt 0.275 1
vt 0.525 1
vt 0.55 1
vt 0.275 1
vt 0.5 1
vt 0.525 1
vt 0.275 1
vt 0.475 1
vt 0.5 1
vt 0.275 1
vt 0.45 1
vt 0.475 1
vt 0.275 1
vt 0.425 1
vt 0.45 1
vt 0.275 1
vt 0.4 1
vt 0.425 1
vt 0.275 1
vt 0.375 1
vt 0.4 1
vt 0.275 1
vt 0.35 1
vt 0.375 1
vt 0.275 1
vt 0.325 1
vt 0.35 1
vt 0.275 1
vt 0.3 1
vt 0.325 1
vt 0 0
vt 0.02439 0
vt 0.02439 1
vt 0 1
vt 0.02439 0
vt 0.04878 0
vt 0.04878 1
vt 0.02439 1
vt 0.04878 0
vt 0.073171 0
vt 0.073171 1
vt 0.04878 1
vt 0.073171 0
vt 0.097561 0
vt 0.097561 1
vt 0.073171 1
vt 0.097561 0
vt 0.121951 0
vt 0.121951 1
vt 0.097561 1
vt 0.121951 0
vt 0.146341 0
vt 0.146341 1
vt 0.121951 1
vt 0.146341 0
vt 0.170732 0
vt 0.170732 1
vt 0.146341 1
vt 0.170732 0
vt 0.195122 0
vt 0.195122 1
vt 0.170732 1
vt 0.195122 0
vt 0.219512 0
vt 0.219512 1
vt 0.195122 1
vt 0.219512 0
vt 0.243902 0
vt 0.243902 1
vt 0.219512 1
vt 0.243902 0
vt 0.268293 0
vt 0.268293 1
vt 0.243902 1
vt 0.268293 0
vt 0.292683 0
vt 0.292683 1
vt 0.268293 1
vt 0.292683 0
vt 0.317073 0
vt 0.317073 1
vt 0.292683 1
vt 0.317073 0
vt 0.341463 0
vt 0.341463 1
vt 0.317073 1
vt 0.341463 0
vt 0.365854 0
vt 0.365854 1
vt 0.341463 1
vt 0.365854 0
vt 0.390244 0
vt 0.390244 1
vt 0.365854 1
vt 0.390244 0
vt 0.414634 0
vt 0.414634 1
vt 0.390244 1
vt 0.414634 0
vt 0.439024 0
vt 0.439024 1
vt 0.414634 1
vt 0.439024 0
vt 0.463415 0
vt 0.463415 1
vt 0.439024 1
vt 0.463415 0
vt 0.487805 0
vt 0.487805 1
vt 0.463415 1
vt 0.487805 0
vt 0.512195 0
vt 0.512195 1
vt 0.487805 1
vt 0.512195 0
vt 0.536585 0
vt 0.536585 1
vt 0.512195 1
vt 0.536585 0
vt 0.560976 0
vt 0.560976 1
vt 0.536585 1
vt 0.560976 0
vt 0.585366 0
vt 0.585366 1
vt 0.560976 1
vt 0.585366 0
vt 0.609756 0
vt 0.609756 1
vt 0.585366 1
vt 0.609756 0
vt 0.634146 0
vt 0.634146 1
vt 0.609756 1
vt 0.634146 0
vt 0.658537 0
vt 0.658537 1
vt 0.634146 1
vt 0.658537 0
vt 0.682927 0
vt 0.682927 1
vt 0.658537 1
vt 0.682927 0
vt 0.707317 0
vt 0.707317 1
vt 0.682927 1
vt 0.707317 0
vt 0.731707 0
vt 0.731707 1
vt 0.707317 1
vt 0.731707 0
vt 0.756098 0
vt 0.756098 1
vt 0.731707 1
vt 0.756098 0
vt 0.780488 0
vt 0.780488 1
vt 0.756098 1
vt 0.780488 0
vt 0.804878 0
vt 0.804878 1
vt 0.780488 1
vt 0.804878 0
vt 0.829268 0
vt 0.829268 1
vt 0.804878 1
vt 0.829268 0
vt 0.853659 0
vt 0.853659 1
vt 0.829268 1
vt 0.853659 0
vt 0.878049 0
vt 0.878049 1
vt 0.853659 1
vt 0.878049 0
vt 0.902439 0
vt 0.902439 1
vt 0.878049 1
vt 0.902439 0
vt 0.926829 0
vt 0.926829 1
vt 0.902439 1
vt 0.926829 0
vt 0.951219 0
vt 0.951219 1
vt 0.926829 1
vt 0.951219 0
vt 0.97561 0
vt 0.97561 1
vt 0.951219 1
vt 0.97561 0
vt 1 0
vt 1 1
vt 0.97561 1
s off
f 1/1/1 2/2/2 3/3/3
f 4/4/4 5/5/5 6/6/6
f 7/7/7 8/8/8 9/9/9
f 10/10/10 11/11/11 12/12/12
f 13/13/13 14/14/14 15/15/15
f 16/16/16 17/17/17 18/18/18
f 19/19/19 20/20/20 21/21/21
f 22/22/22 23/23/23 24/24/24
f 25/25/25 26/26/26 27/27/27
f 28/28/28 29/29/29 30/30/30
f 31/31/31 32/32/32 33/33/33
f 34/34/34 35/35/35 36/36/36
f 37/37/37 38/38/38 39/39/39
f 40/40/40 41/41/41 42/42/42
f 43/43/43 44/44/44 45/45/45
f 46/46/46 47/47/47 48/48/48
f 49/49/49 50/50/50 51/51/51
f 52/52/52 53/53/53 54/54/54
f 55/55/55 56/56/56 57/57/57
f 58/58/58 59/59/59 60/60/60
f 61/61/61 62/62/62 63/63/63
f 64/64/64 65/65/65 66/66/66
f 67/67/67 68/68/68 69/69/69
f 70/70/70 71/71/71 72/72/72
f 73/73/73 74/74/74 75/75/75
f 76/76/76 77/77/77 78/78/78
f 79/79/79 80/80/80 81/81/81
f 82/82/82 83/83/83 84/84/84
f 85/85/85 86/86/86 87/87/87
f 88/88/88 89/89/89 90/90/90
f 91/91/91 92/92/92 93/93/93
f 94/94/94 95/95/95 96/96/96
f 97/97/97 98/98/98 99/99/99
f 100/100/100 101/101/101 102/102/102
f 103/103/103 104/104/104 105/105/105
f 106/106/106 107/107/107 108/108/108
f 109/109/109 110/110/110 111/111/111
f 112/112/112 113/113/113 114/114/114
f 115/115/115 116/116/116 117/117/117
f 118/118/118 119/119/119 120/120/120
f 121/121/121 122/122/122 123/123/123
f 124/124/124 125/125/125 126/126/126
f 127/127/127 128/128/128 129/129/129
f 130/130/130 131/131/131 132/132/132
f 133/133/133 134/134/134 135/135/135
f 136/136/136 137/137/137 138/138/138
f 139/139/139 140/140/140 141/141/141
f 142/142/142 143/143/143 144/144/144
f 145/145/145 146/146/146 147/147/147
f 148/148/148 149/149/149 150/150/150
f 151/151/151 152/152/152 153/153/153
f 154/154/154 155/155/155 156/156/156
f 157/157/157 158/158/158 159/159/159
f 160/160/160 161/161/161 162/162/162
f 163/163/163 164/164/164 165/165/165
f 166/166/166 167/167/167 168/168/168
f 169/169/169 170/170/170 171/171/171
f 172/172/172 173/173/173 174/174/174
f 175/175/175 176/176/176 177/177/177
f 178/178/178 179/179/179 180/180/180
f 181/181/181 182/182/182 183/183/183
f 184/184/184 185/185/185 186/186/186
f 187/187/187 188/188/188 189/189/189
f 190/190/190 191/191/191 192/192/192
f 193/193/193 194/194/194 195/195/195
f 196/196/196 197/197/197 198/198/198
f 199/199/199 200/200/200 201/201/201
f 202/202/202 203/203/203 204/204/204
f 205/205/205 206/206/206 207/207/207
f 208/208/208 209/209/209 210/210/210
f 211/211/211 212/212/212 213/213/213
f 214/214/214 215/215/215 216/216/216
f 217/217/217 218/218/218 219/219/219
f 220/220/220 221/221/221 222/222/222
f 223/223/223 224/224/224 225/225/225
f 226/226/226 227/227/227 228/228/228
f 229/229/229 230/230/230 231/231/231
f 232/232/232 233/233/233 234/234/234
f 235/235/235 236/236/236 237/237/237
f 235/235/235 237/237/237 238/238/238
f 239/239/239 240/240/240 241/241/241
f 239/239/239 241/241/241 242/242/242
f 243/243/243 244/244/244 245/245/245
f 243/243/243 245/245/245 246/246/246
f 247/247/247 248/248/248 249/249/249
f 247/247/247 249/249/249 250/250/250
f 251/251/251 252/252/252 253/253/253
f 251/251/251 253/253/253 254/254/254
f 255/255/255 256/256/256 257/257/257
f 255/255/255 257/257/257 258/258/258
f 259/259/259 260/260/260 261/261/261
f 259/259/259 261/261/261 262/262/262
f 263/263/263 264/264/264 265/265/265
f 263/263/263 265/265/265 266/266/266
f 267/267/267 268/268/268 269/269/269
f 267/267/267 269/269/269 270/270/270
f 271/271/271 272/272/272 273/273/273
f 271/271/271 273/273/273 274/274/274
f 275/275/275 276/276/276 277/277/277
f 275/275/275 277/277/277 278/278/278
f 279/279/279 280/280/280 281/281/281
f 279/279/279 281/281/281 282/282/282
f 283/283/283 284/284/284 285/285/285
f 283/283/283 285/285/285 286/286/286
f 287/287/287 288/288/288 289/289/289
f 287/287/287 289/289/289 290/290/290
f 291/291/291 292/292/292 293/293/293
f 291/291/291 293/293/293 294/294/294
f 295/295/295 296/296/296 297/297/297
f 295/295/295 297/297/297 298/298/298
f 299/299/299 300/300/300 301/301/301
f 299/299/299 301/301/301 302/302/302
f 303/303/303 304/304/304 305/305/305
f 303/303/303 305/305/305 306/306/306
f 307/307/307 308/308/308 309/309/309
f 307/307/307 309/309/309 310/310/310
f 311/311/311 312/312/312 313/313/313
f 311/311/311 313/313/313 314/314/314
f 315/315/315 316/316/316 317/317/317
f 315/315/315 317/317/317 318/318/318
f 319/319/319 320/320/320 321/321/321
f 319/319/319 321/321/321 322/322/322
f 323/323/323 324/324/324 325/325/325
f 323/323/323 325/325/325 326/326/326
f 327/327/327 328/328/328 329/329/329
f 327/327/327 329/329/329 330/330/330
f 331/331/331 332/332/332 333/333/333
f 331/331/331 333/333/333 334/334/334
f 335/335/335 336/336/336 337/337/337
f 335/335/335 337/337/337 338/338/338
f 339/339/339 340/340/340 341/341/341
f 339/339/339 341/341/341 342/342/342
f 343/343/343 344/344/344 345/345/345
f 343/343/343 345/345/345 346/346/346
f 347/347/347 348/348/348 349/349/349
f 347/347/347 349/349/349 350/350/350
f 351/351/351 352/352/352 353/353/353
f 351/351/351 353/353/353 354/354/354
f 355/355/355 356/356/356 357/357/357
f 355/355/355 357/357/357 358/358/358
f 359/359/359 360/360/360 361/361/361
f 359/359/359 361/361/361 362/362/362
f 363/363/363 364/364/364 365/365/365
f 363/363/363 365/365/365 366/366/366
f 367/367/367 368/368/368 369/369/369
f 367/367/367 369/369/369 370/370/370
f 371/371/371 372/372/372 373/373/373
f 371/371/371 373/373/373 374/374/374
f 375/375/375 376/376/376 377/377/377
f 375/375/375 377/377/377 378/378/378
f 379/379/379 380/380/380 381/381/381
f 379/379/379 381/381/381 382/382/382
f 383/383/383 384/384/384 385/385/385
f 383/383/383 385/385/385 386/386/386
f 387/387/387 388/388/388 389/389/389
f 387/387/387 389/389/389 390/390/390
f 391/391/391 392/392/392 393/393/393
f 391/391/391 393/393/393 394/394/394
f 395/395/395 396/396/396 397/397/397
f 395/395/395 397/397/397 398/398/398
