# Blender 5.2.0 LTS
# www.blender.org
mtllib MINUS_text.mtl
o MINUS_text
v 0.461822 0.026860 -0.188101
v 0.461779 0.026820 -0.187743
v 0.461363 0.032391 -0.187156
v 0.461405 0.032432 -0.187514
v 0.461822 0.026860 -0.188101
v 0.461837 0.026909 -0.188548
v 0.461823 0.027113 -0.190484
v 0.461796 0.027164 -0.190991
v 0.461733 0.027203 -0.191402
v 0.461649 0.027231 -0.191730
v 0.461540 0.027255 -0.192035
v 0.461428 0.027272 -0.192272
v 0.461297 0.027286 -0.192493
v 0.461148 0.027296 -0.192698
v 0.461015 0.027302 -0.192851
v 0.460870 0.027306 -0.192994
v 0.460637 0.027310 -0.193187
v 0.460386 0.027308 -0.193358
v 0.460120 0.027304 -0.193502
v 0.459837 0.027296 -0.193623
v 0.459537 0.027283 -0.193717
v 0.459167 0.027264 -0.193797
v 0.458832 0.027244 -0.193838
v 0.458421 0.027214 -0.193855
v 0.438938 0.025760 -0.193871
v 0.438470 0.025723 -0.193848
v 0.438085 0.025687 -0.193794
v 0.437722 0.025652 -0.193705
v 0.437430 0.025618 -0.193602
v 0.437154 0.025585 -0.193474
v 0.436895 0.025549 -0.193321
v 0.436691 0.025518 -0.193176
v 0.436500 0.025487 -0.193013
v 0.436324 0.025454 -0.192831
v 0.436167 0.025422 -0.192637
v 0.436028 0.025389 -0.192425
v 0.435908 0.025356 -0.192198
v 0.435807 0.025324 -0.191954
v 0.435710 0.025283 -0.191643
v 0.435641 0.025242 -0.191307
v 0.435598 0.025202 -0.190949
v 0.435584 0.025153 -0.190503
v 0.435597 0.024951 -0.188567
v 0.435625 0.024899 -0.188061
v 0.435687 0.024860 -0.187649
v 0.435770 0.024832 -0.187321
v 0.435880 0.024807 -0.187017
v 0.435993 0.024791 -0.186779
v 0.436123 0.024778 -0.186559
v 0.436272 0.024767 -0.186353
v 0.436405 0.024760 -0.186201
v 0.436550 0.024756 -0.186057
v 0.436783 0.024753 -0.185863
v 0.437034 0.024754 -0.185694
v 0.437300 0.024759 -0.185549
v 0.437583 0.024767 -0.185429
v 0.437883 0.024780 -0.185334
v 0.438254 0.024798 -0.185254
v 0.438588 0.024819 -0.185213
v 0.439000 0.024848 -0.185196
v 0.458482 0.026303 -0.185181
v 0.458951 0.026340 -0.185203
v 0.459335 0.026375 -0.185257
v 0.459698 0.026412 -0.185347
v 0.459991 0.026444 -0.185449
v 0.460266 0.026478 -0.185577
v 0.460525 0.026513 -0.185731
v 0.460729 0.026544 -0.185876
v 0.460920 0.026576 -0.186039
v 0.461096 0.026608 -0.186219
v 0.461254 0.026640 -0.186415
v 0.461393 0.026673 -0.186626
v 0.461513 0.026706 -0.186853
v 0.461613 0.026740 -0.187096
v 0.461710 0.026779 -0.187408
v 0.461779 0.026820 -0.187743
v 0.461837 0.026909 -0.188548
v 0.461822 0.026860 -0.188101
v 0.461405 0.032432 -0.187514
v 0.461421 0.032480 -0.187960
v 0.461405 0.032432 -0.187514
v 0.461363 0.032391 -0.187156
v 0.461294 0.032350 -0.186820
v 0.461197 0.032310 -0.186508
v 0.461096 0.032277 -0.186264
v 0.460976 0.032244 -0.186037
v 0.460837 0.032211 -0.185826
v 0.460680 0.032179 -0.185631
v 0.460504 0.032146 -0.185450
v 0.460313 0.032115 -0.185287
v 0.460109 0.032085 -0.185142
v 0.459850 0.032049 -0.184989
v 0.459575 0.032015 -0.184861
v 0.459281 0.031982 -0.184759
v 0.458919 0.031945 -0.184669
v 0.458534 0.031911 -0.184615
v 0.458066 0.031873 -0.184592
v 0.438584 0.030419 -0.184607
v 0.438172 0.030390 -0.184625
v 0.437837 0.030370 -0.184666
v 0.437467 0.030350 -0.184746
v 0.437167 0.030338 -0.184840
v 0.436884 0.030329 -0.184960
v 0.436618 0.030325 -0.185105
v 0.436367 0.030324 -0.185276
v 0.436133 0.030327 -0.185469
v 0.435989 0.030331 -0.185612
v 0.435856 0.030337 -0.185765
v 0.435707 0.030348 -0.185971
v 0.435577 0.030362 -0.186191
v 0.435464 0.030378 -0.186428
v 0.435354 0.030402 -0.186733
v 0.435271 0.030431 -0.187061
v 0.435208 0.030470 -0.187472
v 0.435181 0.030521 -0.187979
v 0.435167 0.030725 -0.189915
v 0.435182 0.030773 -0.190362
v 0.435224 0.030814 -0.190719
v 0.435294 0.030854 -0.191055
v 0.435390 0.030894 -0.191367
v 0.435491 0.030928 -0.191610
v 0.435611 0.030961 -0.191837
v 0.435750 0.030993 -0.192048
v 0.435907 0.031026 -0.192244
v 0.436084 0.031058 -0.192424
v 0.436275 0.031089 -0.192587
v 0.436478 0.031120 -0.192732
v 0.436737 0.031155 -0.192886
v 0.437014 0.031190 -0.193014
v 0.437306 0.031222 -0.193116
v 0.437669 0.031259 -0.193206
v 0.438054 0.031293 -0.193260
v 0.438522 0.031330 -0.193282
v 0.458004 0.032785 -0.193267
v 0.458416 0.032814 -0.193250
v 0.458751 0.032835 -0.193209
v 0.459121 0.032854 -0.193129
v 0.459420 0.032867 -0.193034
v 0.459704 0.032874 -0.192914
v 0.459970 0.032879 -0.192769
v 0.460220 0.032880 -0.192599
v 0.460454 0.032877 -0.192406
v 0.460599 0.032873 -0.192262
v 0.460732 0.032867 -0.192110
v 0.460881 0.032856 -0.191904
v 0.461011 0.032842 -0.191684
v 0.461123 0.032826 -0.191446
v 0.461233 0.032802 -0.191142
v 0.461316 0.032774 -0.190814
v 0.461379 0.032735 -0.190402
v 0.461407 0.032683 -0.189896
v 0.461421 0.032480 -0.187960
v 0.461779 0.026820 -0.187743
v 0.461710 0.026779 -0.187408
v 0.461294 0.032350 -0.186820
v 0.461363 0.032391 -0.187156
v 0.461710 0.026779 -0.187408
v 0.461613 0.026740 -0.187096
v 0.461197 0.032310 -0.186508
v 0.461294 0.032350 -0.186820
v 0.461613 0.026740 -0.187096
v 0.461513 0.026706 -0.186853
v 0.461096 0.032277 -0.186264
v 0.461197 0.032310 -0.186508
v 0.461513 0.026706 -0.186853
v 0.461393 0.026673 -0.186626
v 0.460976 0.032244 -0.186037
v 0.461096 0.032277 -0.186264
v 0.461393 0.026673 -0.186626
v 0.461254 0.026640 -0.186415
v 0.460837 0.032211 -0.185826
v 0.460976 0.032244 -0.186037
v 0.461254 0.026640 -0.186415
v 0.461096 0.026608 -0.186219
v 0.460680 0.032179 -0.185631
v 0.460837 0.032211 -0.185826
v 0.461096 0.026608 -0.186219
v 0.460920 0.026576 -0.186039
v 0.460504 0.032146 -0.185450
v 0.460680 0.032179 -0.185631
v 0.460920 0.026576 -0.186039
v 0.460729 0.026544 -0.185876
v 0.460313 0.032115 -0.185287
v 0.460504 0.032146 -0.185450
v 0.460729 0.026544 -0.185876
v 0.460525 0.026513 -0.185731
v 0.460109 0.032085 -0.185142
v 0.460313 0.032115 -0.185287
v 0.460525 0.026513 -0.185731
v 0.460266 0.026478 -0.185577
v 0.459850 0.032049 -0.184989
v 0.460109 0.032085 -0.185142
v 0.460266 0.026478 -0.185577
v 0.459991 0.026444 -0.185449
v 0.459575 0.032015 -0.184861
v 0.459850 0.032049 -0.184989
v 0.459991 0.026444 -0.185449
v 0.459698 0.026412 -0.185347
v 0.459281 0.031982 -0.184759
v 0.459575 0.032015 -0.184861
v 0.459698 0.026412 -0.185347
v 0.459335 0.026375 -0.185257
v 0.458919 0.031945 -0.184669
v 0.459281 0.031982 -0.184759
v 0.459335 0.026375 -0.185257
v 0.458951 0.026340 -0.185203
v 0.458534 0.031911 -0.184615
v 0.458919 0.031945 -0.184669
v 0.458951 0.026340 -0.185203
v 0.458482 0.026303 -0.185181
v 0.458066 0.031873 -0.184592
v 0.458534 0.031911 -0.184615
v 0.458482 0.026303 -0.185181
v 0.439000 0.024848 -0.185196
v 0.438584 0.030419 -0.184607
v 0.458066 0.031873 -0.184592
v 0.439000 0.024848 -0.185196
v 0.438588 0.024819 -0.185213
v 0.438172 0.030390 -0.184625
v 0.438584 0.030419 -0.184607
v 0.438588 0.024819 -0.185213
v 0.438254 0.024798 -0.185254
v 0.437837 0.030370 -0.184666
v 0.438172 0.030390 -0.184625
v 0.438254 0.024798 -0.185254
v 0.437883 0.024780 -0.185334
v 0.437467 0.030350 -0.184746
v 0.437837 0.030370 -0.184666
v 0.437883 0.024780 -0.185334
v 0.437583 0.024767 -0.185429
v 0.437167 0.030338 -0.184840
v 0.437467 0.030350 -0.184746
v 0.437583 0.024767 -0.185429
v 0.437300 0.024759 -0.185549
v 0.436884 0.030329 -0.184960
v 0.437167 0.030338 -0.184840
v 0.437300 0.024759 -0.185549
v 0.437034 0.024754 -0.185694
v 0.436618 0.030325 -0.185105
v 0.436884 0.030329 -0.184960
v 0.437034 0.024754 -0.185694
v 0.436783 0.024753 -0.185863
v 0.436367 0.030324 -0.185276
v 0.436618 0.030325 -0.185105
v 0.436783 0.024753 -0.185863
v 0.436550 0.024756 -0.186057
v 0.436133 0.030327 -0.185469
v 0.436367 0.030324 -0.185276
v 0.436550 0.024756 -0.186057
v 0.436405 0.024760 -0.186201
v 0.435989 0.030331 -0.185612
v 0.436133 0.030327 -0.185469
v 0.436405 0.024760 -0.186201
v 0.436272 0.024767 -0.186353
v 0.435856 0.030337 -0.185765
v 0.435989 0.030331 -0.185612
v 0.436272 0.024767 -0.186353
v 0.436123 0.024778 -0.186559
v 0.435707 0.030348 -0.185971
v 0.435856 0.030337 -0.185765
v 0.436123 0.024778 -0.186559
v 0.435993 0.024791 -0.186779
v 0.435577 0.030362 -0.186191
v 0.435707 0.030348 -0.185971
v 0.435993 0.024791 -0.186779
v 0.435880 0.024807 -0.187017
v 0.435464 0.030378 -0.186428
v 0.435577 0.030362 -0.186191
v 0.435880 0.024807 -0.187017
v 0.435770 0.024832 -0.187321
v 0.435354 0.030402 -0.186733
v 0.435464 0.030378 -0.186428
v 0.435770 0.024832 -0.187321
v 0.435687 0.024860 -0.187649
v 0.435271 0.030431 -0.187061
v 0.435354 0.030402 -0.186733
v 0.435687 0.024860 -0.187649
v 0.435625 0.024899 -0.188061
v 0.435208 0.030470 -0.187472
v 0.435271 0.030431 -0.187061
v 0.435625 0.024899 -0.188061
v 0.435597 0.024951 -0.188567
v 0.435181 0.030521 -0.187979
v 0.435208 0.030470 -0.187472
v 0.435597 0.024951 -0.188567
v 0.435584 0.025153 -0.190503
v 0.435167 0.030725 -0.189915
v 0.435181 0.030521 -0.187979
v 0.435584 0.025153 -0.190503
v 0.435598 0.025202 -0.190949
v 0.435182 0.030773 -0.190362
v 0.435167 0.030725 -0.189915
v 0.435598 0.025202 -0.190949
v 0.435641 0.025242 -0.191307
v 0.435224 0.030814 -0.190719
v 0.435182 0.030773 -0.190362
v 0.435641 0.025242 -0.191307
v 0.435710 0.025283 -0.191643
v 0.435294 0.030854 -0.191055
v 0.435224 0.030814 -0.190719
v 0.435710 0.025283 -0.191643
v 0.435807 0.025324 -0.191954
v 0.435390 0.030894 -0.191367
v 0.435294 0.030854 -0.191055
v 0.435807 0.025324 -0.191954
v 0.435908 0.025356 -0.192198
v 0.435491 0.030928 -0.191610
v 0.435390 0.030894 -0.191367
v 0.435908 0.025356 -0.192198
v 0.436028 0.025389 -0.192425
v 0.435611 0.030961 -0.191837
v 0.435491 0.030928 -0.191610
v 0.436028 0.025389 -0.192425
v 0.436167 0.025422 -0.192637
v 0.435750 0.030993 -0.192048
v 0.435611 0.030961 -0.191837
v 0.436167 0.025422 -0.192637
v 0.436324 0.025454 -0.192831
v 0.435907 0.031026 -0.192244
v 0.435750 0.030993 -0.192048
v 0.436324 0.025454 -0.192831
v 0.436500 0.025487 -0.193013
v 0.436084 0.031058 -0.192424
v 0.435907 0.031026 -0.192244
v 0.436500 0.025487 -0.193013
v 0.436691 0.025518 -0.193176
v 0.436275 0.031089 -0.192587
v 0.436084 0.031058 -0.192424
v 0.436691 0.025518 -0.193176
v 0.436895 0.025549 -0.193321
v 0.436478 0.031120 -0.192732
v 0.436275 0.031089 -0.192587
v 0.436895 0.025549 -0.193321
v 0.437154 0.025585 -0.193474
v 0.436737 0.031155 -0.192886
v 0.436478 0.031120 -0.192732
v 0.437154 0.025585 -0.193474
v 0.437430 0.025618 -0.193602
v 0.437014 0.031190 -0.193014
v 0.436737 0.031155 -0.192886
v 0.437430 0.025618 -0.193602
v 0.437722 0.025652 -0.193705
v 0.437306 0.031222 -0.193116
v 0.437014 0.031190 -0.193014
v 0.437722 0.025652 -0.193705
v 0.438085 0.025687 -0.193794
v 0.437669 0.031259 -0.193206
v 0.437306 0.031222 -0.193116
v 0.438085 0.025687 -0.193794
v 0.438470 0.025723 -0.193848
v 0.438054 0.031293 -0.193260
v 0.437669 0.031259 -0.193206
v 0.438470 0.025723 -0.193848
v 0.438938 0.025760 -0.193871
v 0.438522 0.031330 -0.193282
v 0.438054 0.031293 -0.193260
v 0.438938 0.025760 -0.193871
v 0.458421 0.027214 -0.193855
v 0.458004 0.032785 -0.193267
v 0.438522 0.031330 -0.193282
v 0.458421 0.027214 -0.193855
v 0.458832 0.027244 -0.193838
v 0.458416 0.032814 -0.193250
v 0.458004 0.032785 -0.193267
v 0.458832 0.027244 -0.193838
v 0.459167 0.027264 -0.193797
v 0.458751 0.032835 -0.193209
v 0.458416 0.032814 -0.193250
v 0.459167 0.027264 -0.193797
v 0.459537 0.027283 -0.193717
v 0.459121 0.032854 -0.193129
v 0.458751 0.032835 -0.193209
v 0.459537 0.027283 -0.193717
v 0.459837 0.027296 -0.193623
v 0.459420 0.032867 -0.193034
v 0.459121 0.032854 -0.193129
v 0.459837 0.027296 -0.193623
v 0.460120 0.027304 -0.193502
v 0.459704 0.032874 -0.192914
v 0.459420 0.032867 -0.193034
v 0.460120 0.027304 -0.193502
v 0.460386 0.027308 -0.193358
v 0.459970 0.032879 -0.192769
v 0.459704 0.032874 -0.192914
v 0.460386 0.027308 -0.193358
v 0.460637 0.027310 -0.193187
v 0.460220 0.032880 -0.192599
v 0.459970 0.032879 -0.192769
v 0.460637 0.027310 -0.193187
v 0.460870 0.027306 -0.192994
v 0.460454 0.032877 -0.192406
v 0.460220 0.032880 -0.192599
v 0.460870 0.027306 -0.192994
v 0.461015 0.027302 -0.192851
v 0.460599 0.032873 -0.192262
v 0.460454 0.032877 -0.192406
v 0.461015 0.027302 -0.192851
v 0.461148 0.027296 -0.192698
v 0.460732 0.032867 -0.192110
v 0.460599 0.032873 -0.192262
v 0.461148 0.027296 -0.192698
v 0.461297 0.027286 -0.192493
v 0.460881 0.032856 -0.191904
v 0.460732 0.032867 -0.192110
v 0.461297 0.027286 -0.192493
v 0.461428 0.027272 -0.192272
v 0.461011 0.032842 -0.191684
v 0.460881 0.032856 -0.191904
v 0.461428 0.027272 -0.192272
v 0.461540 0.027255 -0.192035
v 0.461123 0.032826 -0.191446
v 0.461011 0.032842 -0.191684
v 0.461540 0.027255 -0.192035
v 0.461649 0.027231 -0.191730
v 0.461233 0.032802 -0.191142
v 0.461123 0.032826 -0.191446
v 0.461649 0.027231 -0.191730
v 0.461733 0.027203 -0.191402
v 0.461316 0.032774 -0.190814
v 0.461233 0.032802 -0.191142
v 0.461733 0.027203 -0.191402
v 0.461796 0.027164 -0.190991
v 0.461379 0.032735 -0.190402
v 0.461316 0.032774 -0.190814
v 0.461796 0.027164 -0.190991
v 0.461823 0.027113 -0.190484
v 0.461407 0.032683 -0.189896
v 0.461379 0.032735 -0.190402
v 0.461823 0.027113 -0.190484
v 0.461837 0.026909 -0.188548
v 0.461421 0.032480 -0.187960
v 0.461407 0.032683 -0.189896
v 0.470294 0.031396 -0.225042
v 0.470252 0.031354 -0.224685
v 0.469836 0.036925 -0.224096
v 0.469878 0.036966 -0.224454
v 0.470294 0.031396 -0.225042
v 0.470309 0.031443 -0.225489
v 0.470296 0.031647 -0.227424
v 0.470295 0.031659 -0.227532
v 0.470294 0.031670 -0.227639
v 0.470293 0.031681 -0.227747
v 0.470273 0.031718 -0.228118
v 0.470228 0.031747 -0.228419
v 0.470157 0.031772 -0.228705
v 0.470060 0.031793 -0.228975
v 0.469960 0.031808 -0.229189
v 0.469842 0.031821 -0.229391
v 0.469706 0.031831 -0.229583
v 0.469551 0.031839 -0.229764
v 0.469379 0.031844 -0.229934
v 0.469145 0.031847 -0.230129
v 0.468893 0.031846 -0.230298
v 0.468623 0.031841 -0.230443
v 0.468336 0.031832 -0.230563
v 0.468032 0.031819 -0.230658
v 0.467656 0.031799 -0.230738
v 0.467314 0.031779 -0.230779
v 0.466893 0.031749 -0.230797
v 0.429941 0.028990 -0.230824
v 0.429473 0.028953 -0.230803
v 0.429088 0.028918 -0.230747
v 0.428726 0.028881 -0.230658
v 0.428433 0.028849 -0.230556
v 0.428157 0.028815 -0.230428
v 0.427898 0.028780 -0.230275
v 0.427695 0.028749 -0.230129
v 0.427503 0.028717 -0.229965
v 0.427327 0.028685 -0.229786
v 0.427170 0.028653 -0.229590
v 0.427031 0.028620 -0.229379
v 0.426911 0.028587 -0.229151
v 0.426810 0.028554 -0.228909
v 0.426713 0.028514 -0.228596
v 0.426644 0.028473 -0.228261
v 0.426602 0.028432 -0.227904
v 0.426587 0.028384 -0.227457
v 0.426600 0.028181 -0.225522
v 0.426601 0.028169 -0.225413
v 0.426601 0.028158 -0.225306
v 0.426602 0.028146 -0.225199
v 0.426623 0.028108 -0.224827
v 0.426668 0.028080 -0.224526
v 0.426739 0.028055 -0.224241
v 0.426836 0.028035 -0.223971
v 0.426936 0.028019 -0.223757
v 0.427054 0.028007 -0.223555
v 0.427191 0.027997 -0.223363
v 0.427345 0.027988 -0.223182
v 0.427517 0.027984 -0.223012
v 0.427751 0.027981 -0.222817
v 0.428003 0.027981 -0.222648
v 0.428272 0.027987 -0.222503
v 0.428559 0.027996 -0.222383
v 0.428863 0.028008 -0.222288
v 0.429240 0.028028 -0.222208
v 0.429582 0.028049 -0.222167
v 0.430003 0.028079 -0.222149
v 0.466955 0.030837 -0.222122
v 0.467422 0.030875 -0.222143
v 0.467808 0.030909 -0.222198
v 0.468170 0.030946 -0.222287
v 0.468463 0.030978 -0.222391
v 0.468739 0.031013 -0.222518
v 0.468998 0.031048 -0.222671
v 0.469201 0.031079 -0.222817
v 0.469393 0.031110 -0.222981
v 0.469569 0.031142 -0.223160
v 0.469726 0.031174 -0.223355
v 0.469865 0.031207 -0.223568
v 0.469985 0.031240 -0.223795
v 0.470086 0.031274 -0.224037
v 0.470183 0.031313 -0.224349
v 0.470252 0.031354 -0.224685
v 0.470309 0.031443 -0.225489
v 0.470294 0.031396 -0.225042
v 0.469878 0.036966 -0.224454
v 0.469893 0.037014 -0.224900
v 0.469878 0.036966 -0.224454
v 0.469836 0.036925 -0.224096
v 0.469766 0.036885 -0.223762
v 0.469670 0.036844 -0.223449
v 0.469569 0.036812 -0.223206
v 0.469449 0.036778 -0.222979
v 0.469310 0.036746 -0.222767
v 0.469153 0.036713 -0.222572
v 0.468976 0.036681 -0.222392
v 0.468785 0.036650 -0.222228
v 0.468582 0.036619 -0.222082
v 0.468323 0.036583 -0.221930
v 0.468046 0.036550 -0.221802
v 0.467754 0.036516 -0.221699
v 0.467392 0.036480 -0.221611
v 0.467006 0.036445 -0.221555
v 0.466539 0.036408 -0.221533
v 0.429587 0.033649 -0.221560
v 0.429166 0.033620 -0.221578
v 0.428823 0.033598 -0.221620
v 0.428447 0.033578 -0.221699
v 0.428143 0.033566 -0.221795
v 0.427856 0.033557 -0.221915
v 0.427587 0.033553 -0.222060
v 0.427335 0.033552 -0.222228
v 0.427100 0.033555 -0.222423
v 0.426929 0.033560 -0.222594
v 0.426775 0.033567 -0.222775
v 0.426638 0.033577 -0.222967
v 0.426520 0.033589 -0.223169
v 0.426419 0.033605 -0.223383
v 0.426323 0.033627 -0.223653
v 0.426252 0.033651 -0.223939
v 0.426207 0.033680 -0.224240
v 0.426186 0.033717 -0.224610
v 0.426185 0.033728 -0.224719
v 0.426184 0.033740 -0.224825
v 0.426184 0.033751 -0.224933
v 0.426171 0.033955 -0.226869
v 0.426185 0.034003 -0.227315
v 0.426227 0.034044 -0.227674
v 0.426297 0.034084 -0.228007
v 0.426393 0.034125 -0.228320
v 0.426494 0.034157 -0.228564
v 0.426614 0.034191 -0.228791
v 0.426753 0.034223 -0.229002
v 0.426910 0.034255 -0.229197
v 0.427087 0.034288 -0.229377
v 0.427279 0.034319 -0.229541
v 0.427481 0.034350 -0.229687
v 0.427740 0.034386 -0.229839
v 0.428017 0.034419 -0.229967
v 0.428309 0.034453 -0.230070
v 0.428672 0.034488 -0.230159
v 0.429057 0.034524 -0.230214
v 0.429525 0.034561 -0.230236
v 0.466476 0.037320 -0.230209
v 0.466897 0.037349 -0.230192
v 0.467240 0.037370 -0.230149
v 0.467616 0.037391 -0.230069
v 0.467920 0.037403 -0.229974
v 0.468207 0.037412 -0.229854
v 0.468476 0.037416 -0.229710
v 0.468728 0.037417 -0.229541
v 0.468963 0.037414 -0.229346
v 0.469134 0.037409 -0.229176
v 0.469288 0.037402 -0.228994
v 0.469425 0.037392 -0.228802
v 0.469543 0.037379 -0.228600
v 0.469644 0.037364 -0.228387
v 0.469741 0.037342 -0.228116
v 0.469811 0.037318 -0.227830
v 0.469856 0.037289 -0.227529
v 0.469877 0.037252 -0.227159
v 0.469878 0.037241 -0.227050
v 0.469879 0.037229 -0.226944
v 0.469879 0.037218 -0.226836
v 0.469893 0.037014 -0.224900
v 0.470252 0.031354 -0.224685
v 0.470183 0.031313 -0.224349
v 0.469766 0.036885 -0.223762
v 0.469836 0.036925 -0.224096
v 0.470183 0.031313 -0.224349
v 0.470086 0.031274 -0.224037
v 0.469670 0.036844 -0.223449
v 0.469766 0.036885 -0.223762
v 0.470086 0.031274 -0.224037
v 0.469985 0.031240 -0.223795
v 0.469569 0.036812 -0.223206
v 0.469670 0.036844 -0.223449
v 0.469985 0.031240 -0.223795
v 0.469865 0.031207 -0.223568
v 0.469449 0.036778 -0.222979
v 0.469569 0.036812 -0.223206
v 0.469865 0.031207 -0.223568
v 0.469726 0.031174 -0.223355
v 0.469310 0.036746 -0.222767
v 0.469449 0.036778 -0.222979
v 0.469726 0.031174 -0.223355
v 0.469569 0.031142 -0.223160
v 0.469153 0.036713 -0.222572
v 0.469310 0.036746 -0.222767
v 0.469569 0.031142 -0.223160
v 0.469393 0.031110 -0.222981
v 0.468976 0.036681 -0.222392
v 0.469153 0.036713 -0.222572
v 0.469393 0.031110 -0.222981
v 0.469201 0.031079 -0.222817
v 0.468785 0.036650 -0.222228
v 0.468976 0.036681 -0.222392
v 0.469201 0.031079 -0.222817
v 0.468998 0.031048 -0.222671
v 0.468582 0.036619 -0.222082
v 0.468785 0.036650 -0.222228
v 0.468998 0.031048 -0.222671
v 0.468739 0.031013 -0.222518
v 0.468323 0.036583 -0.221930
v 0.468582 0.036619 -0.222082
v 0.468739 0.031013 -0.222518
v 0.468463 0.030978 -0.222391
v 0.468046 0.036550 -0.221802
v 0.468323 0.036583 -0.221930
v 0.468463 0.030978 -0.222391
v 0.468170 0.030946 -0.222287
v 0.467754 0.036516 -0.221699
v 0.468046 0.036550 -0.221802
v 0.468170 0.030946 -0.222287
v 0.467808 0.030909 -0.222198
v 0.467392 0.036480 -0.221611
v 0.467754 0.036516 -0.221699
v 0.467808 0.030909 -0.222198
v 0.467422 0.030875 -0.222143
v 0.467006 0.036445 -0.221555
v 0.467392 0.036480 -0.221611
v 0.467422 0.030875 -0.222143
v 0.466955 0.030837 -0.222122
v 0.466539 0.036408 -0.221533
v 0.467006 0.036445 -0.221555
v 0.466955 0.030837 -0.222122
v 0.430003 0.028079 -0.222149
v 0.429587 0.033649 -0.221560
v 0.466539 0.036408 -0.221533
v 0.430003 0.028079 -0.222149
v 0.429582 0.028049 -0.222167
v 0.429166 0.033620 -0.221578
v 0.429587 0.033649 -0.221560
v 0.429582 0.028049 -0.222167
v 0.429240 0.028028 -0.222208
v 0.428823 0.033598 -0.221620
v 0.429166 0.033620 -0.221578
v 0.429240 0.028028 -0.222208
v 0.428863 0.028008 -0.222288
v 0.428447 0.033578 -0.221699
v 0.428823 0.033598 -0.221620
v 0.428863 0.028008 -0.222288
v 0.428559 0.027996 -0.222383
v 0.428143 0.033566 -0.221795
v 0.428447 0.033578 -0.221699
v 0.428559 0.027996 -0.222383
v 0.428272 0.027987 -0.222503
v 0.427856 0.033557 -0.221915
v 0.428143 0.033566 -0.221795
v 0.428272 0.027987 -0.222503
v 0.428003 0.027981 -0.222648
v 0.427587 0.033553 -0.222060
v 0.427856 0.033557 -0.221915
v 0.428003 0.027981 -0.222648
v 0.427751 0.027981 -0.222817
v 0.427335 0.033552 -0.222228
v 0.427587 0.033553 -0.222060
v 0.427751 0.027981 -0.222817
v 0.427517 0.027984 -0.223012
v 0.427100 0.033555 -0.222423
v 0.427335 0.033552 -0.222228
v 0.427517 0.027984 -0.223012
v 0.427345 0.027988 -0.223182
v 0.426929 0.033560 -0.222594
v 0.427100 0.033555 -0.222423
v 0.427345 0.027988 -0.223182
v 0.427191 0.027997 -0.223363
v 0.426775 0.033567 -0.222775
v 0.426929 0.033560 -0.222594
v 0.427191 0.027997 -0.223363
v 0.427054 0.028007 -0.223555
v 0.426638 0.033577 -0.222967
v 0.426775 0.033567 -0.222775
v 0.427054 0.028007 -0.223555
v 0.426936 0.028019 -0.223757
v 0.426520 0.033589 -0.223169
v 0.426638 0.033577 -0.222967
v 0.426936 0.028019 -0.223757
v 0.426836 0.028035 -0.223971
v 0.426419 0.033605 -0.223383
v 0.426520 0.033589 -0.223169
v 0.426836 0.028035 -0.223971
v 0.426739 0.028055 -0.224241
v 0.426323 0.033627 -0.223653
v 0.426419 0.033605 -0.223383
v 0.426739 0.028055 -0.224241
v 0.426668 0.028080 -0.224526
v 0.426252 0.033651 -0.223939
v 0.426323 0.033627 -0.223653
v 0.426668 0.028080 -0.224526
v 0.426623 0.028108 -0.224827
v 0.426207 0.033680 -0.224240
v 0.426252 0.033651 -0.223939
v 0.426623 0.028108 -0.224827
v 0.426602 0.028146 -0.225199
v 0.426186 0.033717 -0.224610
v 0.426207 0.033680 -0.224240
v 0.426602 0.028146 -0.225199
v 0.426601 0.028158 -0.225306
v 0.426185 0.033728 -0.224719
v 0.426186 0.033717 -0.224610
v 0.426601 0.028158 -0.225306
v 0.426601 0.028169 -0.225413
v 0.426184 0.033740 -0.224825
v 0.426185 0.033728 -0.224719
v 0.426601 0.028169 -0.225413
v 0.426600 0.028181 -0.225522
v 0.426184 0.033751 -0.224933
v 0.426184 0.033740 -0.224825
v 0.426600 0.028181 -0.225522
v 0.426587 0.028384 -0.227457
v 0.426171 0.033955 -0.226869
v 0.426184 0.033751 -0.224933
v 0.426587 0.028384 -0.227457
v 0.426602 0.028432 -0.227904
v 0.426185 0.034003 -0.227315
v 0.426171 0.033955 -0.226869
v 0.426602 0.028432 -0.227904
v 0.426644 0.028473 -0.228261
v 0.426227 0.034044 -0.227674
v 0.426185 0.034003 -0.227315
v 0.426644 0.028473 -0.228261
v 0.426713 0.028514 -0.228596
v 0.426297 0.034084 -0.228007
v 0.426227 0.034044 -0.227674
v 0.426713 0.028514 -0.228596
v 0.426810 0.028554 -0.228909
v 0.426393 0.034125 -0.228320
v 0.426297 0.034084 -0.228007
v 0.426810 0.028554 -0.228909
v 0.426911 0.028587 -0.229151
v 0.426494 0.034157 -0.228564
v 0.426393 0.034125 -0.228320
v 0.426911 0.028587 -0.229151
v 0.427031 0.028620 -0.229379
v 0.426614 0.034191 -0.228791
v 0.426494 0.034157 -0.228564
v 0.427031 0.028620 -0.229379
v 0.427170 0.028653 -0.229590
v 0.426753 0.034223 -0.229002
v 0.426614 0.034191 -0.228791
v 0.427170 0.028653 -0.229590
v 0.427327 0.028685 -0.229786
v 0.426910 0.034255 -0.229197
v 0.426753 0.034223 -0.229002
v 0.427327 0.028685 -0.229786
v 0.427503 0.028717 -0.229965
v 0.427087 0.034288 -0.229377
v 0.426910 0.034255 -0.229197
v 0.427503 0.028717 -0.229965
v 0.427695 0.028749 -0.230129
v 0.427279 0.034319 -0.229541
v 0.427087 0.034288 -0.229377
v 0.427695 0.028749 -0.230129
v 0.427898 0.028780 -0.230275
v 0.427481 0.034350 -0.229687
v 0.427279 0.034319 -0.229541
v 0.427898 0.028780 -0.230275
v 0.428157 0.028815 -0.230428
v 0.427740 0.034386 -0.229839
v 0.427481 0.034350 -0.229687
v 0.428157 0.028815 -0.230428
v 0.428433 0.028849 -0.230556
v 0.428017 0.034419 -0.229967
v 0.427740 0.034386 -0.229839
v 0.428433 0.028849 -0.230556
v 0.428726 0.028881 -0.230658
v 0.428309 0.034453 -0.230070
v 0.428017 0.034419 -0.229967
v 0.428726 0.028881 -0.230658
v 0.429088 0.028918 -0.230747
v 0.428672 0.034488 -0.230159
v 0.428309 0.034453 -0.230070
v 0.429088 0.028918 -0.230747
v 0.429473 0.028953 -0.230803
v 0.429057 0.034524 -0.230214
v 0.428672 0.034488 -0.230159
v 0.429473 0.028953 -0.230803
v 0.429941 0.028990 -0.230824
v 0.429525 0.034561 -0.230236
v 0.429057 0.034524 -0.230214
v 0.429941 0.028990 -0.230824
v 0.466893 0.031749 -0.230797
v 0.466476 0.037320 -0.230209
v 0.429525 0.034561 -0.230236
v 0.466893 0.031749 -0.230797
v 0.467314 0.031779 -0.230779
v 0.466897 0.037349 -0.230192
v 0.466476 0.037320 -0.230209
v 0.467314 0.031779 -0.230779
v 0.467656 0.031799 -0.230738
v 0.467240 0.037370 -0.230149
v 0.466897 0.037349 -0.230192
v 0.467656 0.031799 -0.230738
v 0.468032 0.031819 -0.230658
v 0.467616 0.037391 -0.230069
v 0.467240 0.037370 -0.230149
v 0.468032 0.031819 -0.230658
v 0.468336 0.031832 -0.230563
v 0.467920 0.037403 -0.229974
v 0.467616 0.037391 -0.230069
v 0.468336 0.031832 -0.230563
v 0.468623 0.031841 -0.230443
v 0.468207 0.037412 -0.229854
v 0.467920 0.037403 -0.229974
v 0.468623 0.031841 -0.230443
v 0.468893 0.031846 -0.230298
v 0.468476 0.037416 -0.229710
v 0.468207 0.037412 -0.229854
v 0.468893 0.031846 -0.230298
v 0.469145 0.031847 -0.230129
v 0.468728 0.037417 -0.229541
v 0.468476 0.037416 -0.229710
v 0.469145 0.031847 -0.230129
v 0.469379 0.031844 -0.229934
v 0.468963 0.037414 -0.229346
v 0.468728 0.037417 -0.229541
v 0.469379 0.031844 -0.229934
v 0.469551 0.031839 -0.229764
v 0.469134 0.037409 -0.229176
v 0.468963 0.037414 -0.229346
v 0.469551 0.031839 -0.229764
v 0.469706 0.031831 -0.229583
v 0.469288 0.037402 -0.228994
v 0.469134 0.037409 -0.229176
v 0.469706 0.031831 -0.229583
v 0.469842 0.031821 -0.229391
v 0.469425 0.037392 -0.228802
v 0.469288 0.037402 -0.228994
v 0.469842 0.031821 -0.229391
v 0.469960 0.031808 -0.229189
v 0.469543 0.037379 -0.228600
v 0.469425 0.037392 -0.228802
v 0.469960 0.031808 -0.229189
v 0.470060 0.031793 -0.228975
v 0.469644 0.037364 -0.228387
v 0.469543 0.037379 -0.228600
v 0.470060 0.031793 -0.228975
v 0.470157 0.031772 -0.228705
v 0.469741 0.037342 -0.228116
v 0.469644 0.037364 -0.228387
v 0.470157 0.031772 -0.228705
v 0.470228 0.031747 -0.228419
v 0.469811 0.037318 -0.227830
v 0.469741 0.037342 -0.228116
v 0.470228 0.031747 -0.228419
v 0.470273 0.031718 -0.228118
v 0.469856 0.037289 -0.227529
v 0.469811 0.037318 -0.227830
v 0.470273 0.031718 -0.228118
v 0.470293 0.031681 -0.227747
v 0.469877 0.037252 -0.227159
v 0.469856 0.037289 -0.227529
v 0.470293 0.031681 -0.227747
v 0.470294 0.031670 -0.227639
v 0.469878 0.037241 -0.227050
v 0.469877 0.037252 -0.227159
v 0.470294 0.031670 -0.227639
v 0.470295 0.031659 -0.227532
v 0.469879 0.037229 -0.226944
v 0.469878 0.037241 -0.227050
v 0.470295 0.031659 -0.227532
v 0.470296 0.031647 -0.227424
v 0.469879 0.037218 -0.226836
v 0.469879 0.037229 -0.226944
v 0.470296 0.031647 -0.227424
v 0.470309 0.031443 -0.225489
v 0.469893 0.037014 -0.224900
v 0.469879 0.037218 -0.226836
vn 0.7637 -0.6454 -0.0133
vn 0.6535 0.7322 0.1922
vn 0.7571 -0.6516 0.0460
vn 0.6603 0.7392 0.1329
vn 0.7446 -0.6585 0.1093
vn 0.7638 -0.6453 -0.0134
vn 0.7571 -0.6516 0.0459
vn 0.7622 -0.6411 -0.0898
vn 0.7619 -0.6451 -0.0583
vn 0.7529 -0.6239 -0.2095
vn 0.7635 -0.6303 -0.1407
vn 0.7124 -0.6131 -0.3416
vn 0.7361 -0.6179 -0.2762
vn 0.6492 -0.6054 -0.4605
vn 0.6833 -0.6089 -0.4030
vn 0.5712 -0.6030 -0.5569
vn 0.6106 -0.6028 -0.5136
vn 0.4794 -0.5981 -0.6422
vn 0.5296 -0.6008 -0.5988
vn 0.3590 -0.6001 -0.7148
vn 0.4205 -0.5990 -0.6815
vn 0.2310 -0.6044 -0.7624
vn 0.2958 -0.6021 -0.7416
vn 0.1050 -0.6131 -0.7830
vn 0.1661 -0.6091 -0.7755
vn 0.0299 -0.6226 -0.7820
vn 0.0618 -0.6217 -0.7808
vn -0.0894 -0.6273 -0.7736
vn -0.0214 -0.6207 -0.7837
vn -0.2230 -0.6416 -0.7339
vn -0.1583 -0.6338 -0.7571
vn -0.3421 -0.6577 -0.6711
vn -0.2861 -0.6489 -0.7051
vn -0.4392 -0.6729 -0.5953
vn -0.3921 -0.6656 -0.6350
vn -0.5288 -0.6892 -0.4953
vn -0.4856 -0.6807 -0.5485
vn -0.5959 -0.7074 -0.3800
vn -0.5657 -0.6982 -0.4388
vn -0.6416 -0.7233 -0.2553
vn -0.6218 -0.7150 -0.3196
vn -0.6610 -0.7386 -0.1327
vn -0.6537 -0.7320 -0.1921
vn -0.6583 -0.7506 -0.0574
vn -0.6577 -0.7480 -0.0886
vn -0.6497 -0.7575 0.0632
vn -0.6603 -0.7510 -0.0054
vn -0.6095 -0.7683 0.1957
vn -0.6331 -0.7629 0.1308
vn -0.5463 -0.7762 0.3146
vn -0.5802 -0.7730 0.2565
vn -0.4677 -0.7829 0.4104
vn -0.5075 -0.7797 0.3668
vn -0.3763 -0.7824 0.4962
vn -0.4267 -0.7828 0.4530
vn -0.2557 -0.7812 0.5696
vn -0.3178 -0.7822 0.5358
vn -0.1275 -0.7768 0.6167
vn -0.1919 -0.7800 0.5956
vn -0.0018 -0.7714 0.6363
vn -0.0625 -0.7745 0.6295
vn 0.0740 -0.7692 0.6347
vn 0.0424 -0.7725 0.6336
vn 0.1932 -0.7538 0.6281
vn 0.1244 -0.7602 0.6377
vn 0.3263 -0.7400 0.5882
vn 0.2610 -0.7471 0.6113
vn 0.4462 -0.7251 0.5245
vn 0.3892 -0.7317 0.5596
vn 0.5425 -0.7098 0.4493
vn 0.4957 -0.7182 0.4883
vn 0.6321 -0.6916 0.3494
vn 0.5888 -0.7009 0.4026
vn 0.6998 -0.6748 0.2342
vn 0.6687 -0.6838 0.2922
vn 0.7253 -0.6662 0.1736
vn 0.7618 -0.6452 -0.0582
vn 0.6603 0.7392 0.1328
vn 0.7637 -0.6454 -0.0134
vn 0.6576 0.7481 0.0890
vn 0.6582 0.7506 0.0572
vn 0.6604 0.7390 0.1328
vn 0.6578 0.7479 0.0890
vn 0.6416 0.7233 0.2554
vn 0.6536 0.7321 0.1921
vn 0.5963 0.7073 0.3798
vn 0.6218 0.7152 0.3191
vn 0.5285 0.6895 0.4952
vn 0.5660 0.6980 0.4387
vn 0.4392 0.6726 0.5956
vn 0.4858 0.6805 0.5485
vn 0.3430 0.6576 0.6707
vn 0.3916 0.6661 0.6348
vn 0.2231 0.6413 0.7341
vn 0.2859 0.6490 0.7051
vn 0.0902 0.6265 0.7742
vn 0.1577 0.6342 0.7569
vn -0.0301 0.6225 0.7820
vn 0.0211 0.6215 0.7832
vn -0.1050 0.6130 0.7831
vn -0.0617 0.6214 0.7811
vn -0.2307 0.6046 0.7624
vn -0.1659 0.6089 0.7757
vn -0.3588 0.5998 0.7152
vn -0.2957 0.6020 0.7417
vn -0.4794 0.5982 0.6421
vn -0.4209 0.5983 0.6818
vn -0.5712 0.6030 0.5569
vn -0.5297 0.6006 0.5989
vn -0.6495 0.6051 0.4605
vn -0.6105 0.6034 0.5130
vn -0.7124 0.6126 0.3424
vn -0.6834 0.6093 0.4022
vn -0.7530 0.6239 0.2090
vn -0.7363 0.6176 0.2767
vn -0.7623 0.6411 0.0895
vn -0.7635 0.6303 0.1406
vn -0.7641 0.6449 0.0141
vn -0.7618 0.6452 0.0583
vn -0.7447 0.6584 -0.1092
vn -0.7571 0.6517 -0.0465
vn -0.6995 0.6752 -0.2341
vn -0.7253 0.6661 -0.1738
vn -0.6317 0.6921 -0.3492
vn -0.6689 0.6834 -0.2924
vn -0.5425 0.7099 -0.4491
vn -0.5892 0.7005 -0.4028
vn -0.4463 0.7248 -0.5248
vn -0.4951 0.7183 -0.4888
vn -0.3265 0.7401 -0.5879
vn -0.3889 0.7317 -0.5597
vn -0.1933 0.7539 -0.6279
vn -0.2613 0.7471 -0.6112
vn -0.0741 0.7692 -0.6347
vn -0.1242 0.7604 -0.6375
vn 0.0018 0.7713 -0.6364
vn -0.0423 0.7722 -0.6340
vn 0.1277 0.7769 -0.6166
vn 0.0628 0.7738 -0.6303
vn 0.2559 0.7810 -0.5697
vn 0.1922 0.7801 -0.5954
vn 0.3763 0.7825 -0.4961
vn 0.3176 0.7822 -0.5359
vn 0.4678 0.7826 -0.4107
vn 0.4265 0.7829 -0.4529
vn 0.5461 0.7764 -0.3146
vn 0.5070 0.7799 -0.3670
vn 0.6093 0.7684 -0.1957
vn 0.5804 0.7727 -0.2570
vn 0.6497 0.7576 -0.0631
vn 0.6329 0.7632 -0.1304
vn 0.6604 0.7509 0.0048
vn 0.7571 -0.6517 0.0460
vn 0.6414 0.7234 0.2554
vn 0.7445 -0.6586 0.1092
vn 0.6535 0.7321 0.1922
vn 0.7445 -0.6586 0.1094
vn 0.6217 0.7153 0.3192
vn 0.7253 -0.6663 0.1734
vn 0.7252 -0.6663 0.1735
vn 0.5962 0.7073 0.3798
vn 0.6997 -0.6750 0.2341
vn 0.6216 0.7153 0.3192
vn 0.6997 -0.6750 0.2342
vn 0.5658 0.6982 0.4386
vn 0.6686 -0.6838 0.2923
vn 0.5961 0.7073 0.3798
vn 0.6685 -0.6838 0.2923
vn 0.5284 0.6897 0.4951
vn 0.6320 -0.6917 0.3494
vn 0.6320 -0.6918 0.3494
vn 0.4858 0.6807 0.5484
vn 0.5888 -0.7008 0.4027
vn 0.5285 0.6896 0.4951
vn 0.5887 -0.7008 0.4029
vn 0.4391 0.6727 0.5956
vn 0.5425 -0.7099 0.4492
vn 0.4857 0.6806 0.5485
vn 0.5423 -0.7099 0.4493
vn 0.3917 0.6660 0.6349
vn 0.4957 -0.7184 0.4881
vn 0.4956 -0.7184 0.4881
vn 0.3429 0.6578 0.6706
vn 0.4460 -0.7253 0.5245
vn 0.4461 -0.7253 0.5244
vn 0.2858 0.6491 0.7049
vn 0.3892 -0.7319 0.5593
vn 0.3429 0.6578 0.6707
vn 0.3890 -0.7319 0.5594
vn 0.2230 0.6414 0.7340
vn 0.3263 -0.7401 0.5881
vn 0.2858 0.6491 0.7050
vn 0.3262 -0.7401 0.5881
vn 0.1576 0.6343 0.7568
vn 0.2229 0.6414 0.7341
vn 0.0902 0.6266 0.7741
vn 0.1932 -0.7539 0.6280
vn 0.1576 0.6344 0.7568
vn 0.0211 0.6217 0.7830
vn 0.1244 -0.7604 0.6375
vn 0.1245 -0.7604 0.6375
vn -0.0300 0.6227 0.7819
vn 0.0741 -0.7693 0.6346
vn 0.0210 0.6217 0.7830
vn 0.0739 -0.7693 0.6346
vn -0.0617 0.6215 0.7810
vn 0.0424 -0.7723 0.6339
vn -0.0301 0.6227 0.7819
vn 0.0425 -0.7723 0.6339
vn -0.1051 0.6131 0.7830
vn -0.0016 -0.7715 0.6362
vn -0.0617 0.6214 0.7810
vn -0.0018 -0.7716 0.6362
vn -0.1660 0.6089 0.7757
vn -0.0626 -0.7744 0.6296
vn -0.1052 0.6131 0.7830
vn -0.0627 -0.7744 0.6296
vn -0.2306 0.6047 0.7623
vn -0.1275 -0.7769 0.6166
vn -0.2957 0.6021 0.7417
vn -0.1919 -0.7801 0.5955
vn -0.2307 0.6047 0.7623
vn -0.1919 -0.7802 0.5954
vn -0.3588 0.5999 0.7151
vn -0.2557 -0.7813 0.5695
vn -0.2958 0.6021 0.7416
vn -0.2556 -0.7813 0.5695
vn -0.4208 0.5986 0.6817
vn -0.3176 -0.7824 0.5357
vn -0.3177 -0.7824 0.5357
vn -0.4794 0.5983 0.6420
vn -0.3762 -0.7826 0.4960
vn -0.4208 0.5985 0.6817
vn -0.3762 -0.7826 0.4961
vn -0.5297 0.6008 0.5987
vn -0.4266 -0.7829 0.4529
vn -0.4794 0.5984 0.6420
vn -0.4267 -0.7829 0.4528
vn -0.5711 0.6031 0.5568
vn -0.4676 -0.7830 0.4103
vn -0.5297 0.6009 0.5986
vn -0.4676 -0.7830 0.4102
vn -0.6102 0.6037 0.5130
vn -0.5074 -0.7797 0.3669
vn -0.6494 0.6052 0.4604
vn -0.5461 -0.7764 0.3146
vn -0.6103 0.6037 0.5130
vn -0.5462 -0.7764 0.3145
vn -0.6832 0.6095 0.4022
vn -0.5801 -0.7731 0.2566
vn -0.5802 -0.7731 0.2565
vn -0.7123 0.6127 0.3424
vn -0.6094 -0.7684 0.1957
vn -0.6832 0.6095 0.4021
vn -0.7361 0.6178 0.2766
vn -0.6331 -0.7629 0.1309
vn -0.7123 0.6127 0.3423
vn -0.7529 0.6240 0.2090
vn -0.6496 -0.7577 0.0631
vn -0.6496 -0.7577 0.0630
vn -0.7634 0.6304 0.1406
vn -0.6602 -0.7511 -0.0052
vn -0.7529 0.6241 0.2090
vn -0.6602 -0.7511 -0.0053
vn -0.7621 0.6412 0.0896
vn -0.6582 -0.7507 -0.0573
vn -0.7634 0.6304 0.1405
vn -0.6582 -0.7507 -0.0575
vn -0.7616 0.6454 0.0585
vn -0.6575 -0.7482 -0.0885
vn -0.7621 0.6412 0.0895
vn -0.7640 0.6451 0.0142
vn -0.6608 -0.7387 -0.1326
vn -0.7616 0.6454 0.0584
vn -0.6608 -0.7387 -0.1327
vn -0.7570 0.6518 -0.0463
vn -0.6535 -0.7322 -0.1921
vn -0.7640 0.6451 0.0141
vn -0.7446 0.6586 -0.1092
vn -0.6414 -0.7234 -0.2553
vn -0.7570 0.6518 -0.0464
vn -0.7252 0.6663 -0.1736
vn -0.6218 -0.7151 -0.3194
vn -0.7445 0.6586 -0.1093
vn -0.6994 0.6753 -0.2340
vn -0.5958 -0.7076 -0.3799
vn -0.5958 -0.7076 -0.3800
vn -0.6689 0.6836 -0.2921
vn -0.5654 -0.6985 -0.4386
vn -0.6316 0.6922 -0.3492
vn -0.5288 -0.6894 -0.4952
vn -0.6688 0.6836 -0.2922
vn -0.5287 -0.6893 -0.4952
vn -0.5891 0.7006 -0.4027
vn -0.4857 -0.6805 -0.5487
vn -0.4855 -0.6804 -0.5490
vn -0.5425 0.7101 -0.4489
vn -0.4390 -0.6730 -0.5953
vn -0.5890 0.7006 -0.4028
vn -0.4390 -0.6730 -0.5952
vn -0.4952 0.7183 -0.4887
vn -0.3921 -0.6660 -0.6346
vn -0.3920 -0.6660 -0.6346
vn -0.4464 0.7249 -0.5246
vn -0.3421 -0.6579 -0.6710
vn -0.3420 -0.6579 -0.6710
vn -0.3890 0.7320 -0.5593
vn -0.2860 -0.6490 -0.7050
vn -0.4463 0.7249 -0.5247
vn -0.2858 -0.6490 -0.7051
vn -0.3264 0.7402 -0.5878
vn -0.2229 -0.6418 -0.7338
vn -0.3889 0.7320 -0.5594
vn -0.2614 0.7472 -0.6110
vn -0.1582 -0.6339 -0.7571
vn -0.1933 0.7540 -0.6277
vn -0.0895 -0.6275 -0.7735
vn -0.2612 0.7472 -0.6111
vn -0.0894 -0.6275 -0.7735
vn -0.1242 0.7605 -0.6374
vn -0.0214 -0.6211 -0.7834
vn -0.1933 0.7541 -0.6277
vn -0.0214 -0.6211 -0.7835
vn -0.0741 0.7693 -0.6346
vn 0.0299 -0.6227 -0.7819
vn -0.1241 0.7605 -0.6374
vn 0.0300 -0.6227 -0.7819
vn -0.0424 0.7723 -0.6339
vn 0.0618 -0.6214 -0.7810
vn 0.0618 -0.6215 -0.7810
vn 0.0017 0.7714 -0.6363
vn 0.1049 -0.6132 -0.7829
vn -0.0423 0.7723 -0.6339
vn 0.1050 -0.6132 -0.7829
vn 0.0627 0.7740 -0.6301
vn 0.1660 -0.6088 -0.7758
vn 0.0018 0.7714 -0.6363
vn 0.1661 -0.6088 -0.7757
vn 0.1276 0.7770 -0.6165
vn 0.2310 -0.6046 -0.7623
vn 0.0628 0.7740 -0.6301
vn 0.2311 -0.6046 -0.7623
vn 0.1921 0.7802 -0.5954
vn 0.2958 -0.6020 -0.7416
vn 0.1277 0.7769 -0.6165
vn 0.2959 -0.6021 -0.7416
vn 0.2559 0.7811 -0.5696
vn 0.3590 -0.6003 -0.7147
vn 0.1922 0.7801 -0.5953
vn 0.3173 0.7825 -0.5358
vn 0.4204 -0.5988 -0.6817
vn 0.2558 0.7811 -0.5696
vn 0.4205 -0.5988 -0.6816
vn 0.3762 0.7826 -0.4960
vn 0.4794 -0.5983 -0.6420
vn 0.3175 0.7824 -0.5357
vn 0.4795 -0.5983 -0.6420
vn 0.4265 0.7830 -0.4528
vn 0.5298 -0.6009 -0.5986
vn 0.4677 0.7827 -0.4107
vn 0.5711 -0.6031 -0.5569
vn 0.4265 0.7830 -0.4527
vn 0.5069 0.7801 -0.3669
vn 0.6107 -0.6028 -0.5135
vn 0.4678 0.7827 -0.4106
vn 0.6108 -0.6028 -0.5134
vn 0.5459 0.7765 -0.3147
vn 0.6491 -0.6055 -0.4604
vn 0.6491 -0.6055 -0.4605
vn 0.5801 0.7730 -0.2568
vn 0.6831 -0.6093 -0.4027
vn 0.5459 0.7765 -0.3146
vn 0.6831 -0.6093 -0.4026
vn 0.6092 0.7685 -0.1957
vn 0.7122 -0.6132 -0.3417
vn 0.5802 0.7729 -0.2568
vn 0.7123 -0.6132 -0.3416
vn 0.6329 0.7631 -0.1306
vn 0.7360 -0.6180 -0.2764
vn 0.6092 0.7685 -0.1956
vn 0.6496 0.7577 -0.0631
vn 0.7528 -0.6240 -0.2095
vn 0.6329 0.7632 -0.1305
vn 0.7528 -0.6240 -0.2094
vn 0.6603 0.7510 0.0048
vn 0.7634 -0.6304 -0.1407
vn 0.6496 0.7577 -0.0630
vn 0.7634 -0.6304 -0.1406
vn 0.6581 0.7507 0.0572
vn 0.7621 -0.6412 -0.0898
vn 0.7621 -0.6412 -0.0897
vn 0.6581 0.7508 0.0572
vn 0.7640 -0.6451 -0.0138
vn 0.6537 0.7319 0.1923
vn 0.7569 -0.6519 0.0461
vn 0.6607 0.7389 0.1321
vn 0.7446 -0.6585 0.1094
vn 0.7641 -0.6450 -0.0137
vn 0.7570 -0.6518 0.0461
vn 0.7548 -0.6517 -0.0738
vn 0.7613 -0.6457 -0.0588
vn 0.7565 -0.6499 -0.0729
vn 0.7633 -0.6307 -0.1399
vn 0.7614 -0.6420 -0.0904
vn 0.7371 -0.6176 -0.2743
vn 0.7538 -0.6238 -0.2068
vn 0.6844 -0.6096 -0.4001
vn 0.7131 -0.6126 -0.3409
vn 0.6153 -0.6031 -0.5077
vn 0.6519 -0.6062 -0.4556
vn 0.5304 -0.6001 -0.5988
vn 0.5745 -0.6021 -0.5544
vn 0.4185 -0.5982 -0.6834
vn 0.4785 -0.5976 -0.6433
vn 0.2928 -0.6025 -0.7425
vn 0.3560 -0.5997 -0.7167
vn 0.1643 -0.6089 -0.7760
vn 0.2285 -0.6048 -0.7629
vn 0.0614 -0.6215 -0.7810
vn 0.1043 -0.6132 -0.7830
vn -0.0212 -0.6211 -0.7834
vn 0.0299 -0.6230 -0.7816
vn -0.0905 -0.6269 -0.7738
vn -0.2856 -0.6488 -0.7054
vn -0.2230 -0.6414 -0.7340
vn -0.3921 -0.6663 -0.6342
vn -0.3432 -0.6574 -0.6709
vn -0.4856 -0.6806 -0.5486
vn -0.4388 -0.6729 -0.5955
vn -0.5657 -0.6984 -0.4385
vn -0.5286 -0.6896 -0.4950
vn -0.6215 -0.7154 -0.3193
vn -0.5961 -0.7071 -0.3804
vn -0.6540 -0.7316 -0.1923
vn -0.6418 -0.7231 -0.2553
vn -0.6577 -0.7480 -0.0883
vn -0.6604 -0.7392 -0.1321
vn -0.6528 -0.7538 -0.0744
vn -0.6484 -0.7576 -0.0753
vn -0.6532 -0.7535 -0.0743
vn -0.6601 -0.7512 -0.0059
vn -0.6567 -0.7520 -0.0564
vn -0.6337 -0.7629 0.1281
vn -0.6503 -0.7573 0.0605
vn -0.5807 -0.7735 0.2538
vn -0.6101 -0.7680 0.1946
vn -0.5119 -0.7795 0.3611
vn -0.5489 -0.7764 0.3098
vn -0.4273 -0.7824 0.4530
vn -0.4719 -0.7814 0.4083
vn -0.3153 -0.7822 0.5373
vn -0.3752 -0.7821 0.4975
vn -0.1898 -0.7796 0.5969
vn -0.2528 -0.7811 0.5709
vn -0.0606 -0.7736 0.6307
vn -0.1248 -0.7771 0.6168
vn 0.0427 -0.7720 0.6342
vn -0.0008 -0.7716 0.6361
vn 0.1246 -0.7603 0.6375
vn 0.0741 -0.7691 0.6348
vn 0.2620 -0.7468 0.6113
vn 0.1933 -0.7538 0.6280
vn 0.3887 -0.7320 0.5596
vn 0.3261 -0.7405 0.5877
vn 0.4959 -0.7183 0.4879
vn 0.4464 -0.7251 0.5244
vn 0.5890 -0.7005 0.4029
vn 0.5426 -0.7097 0.4494
vn 0.6688 -0.6835 0.2923
vn 0.6318 -0.6919 0.3496
vn 0.7249 -0.6666 0.1736
vn 0.6992 -0.6755 0.2344
vn 0.7576 -0.6486 -0.0737
vn 0.7613 -0.6457 -0.0589
vn 0.6607 0.7389 0.1320
vn 0.7640 -0.6451 -0.0137
vn 0.6573 0.7484 0.0884
vn 0.6884 0.7217 0.0726
vn 0.6609 0.7388 0.1321
vn 0.6575 0.7482 0.0883
vn 0.6413 0.7236 0.2553
vn 0.6539 0.7318 0.1924
vn 0.5963 0.7071 0.3801
vn 0.6217 0.7151 0.3196
vn 0.5287 0.6892 0.4954
vn 0.5659 0.6980 0.4388
vn 0.4388 0.6729 0.5955
vn 0.4853 0.6808 0.5486
vn 0.3433 0.6575 0.6707
vn 0.3924 0.6664 0.6340
vn 0.2230 0.6415 0.7340
vn 0.2855 0.6490 0.7052
vn 0.0901 0.6274 0.7735
vn 0.1586 0.6336 0.7572
vn -0.0303 0.6227 0.7819
vn 0.0212 0.6206 0.7838
vn -0.1042 0.6134 0.7828
vn -0.0614 0.6213 0.7812
vn -0.2282 0.6043 0.7633
vn -0.1639 0.6087 0.7763
vn -0.3560 0.5998 0.7166
vn -0.2928 0.6023 0.7426
vn -0.4784 0.5979 0.6432
vn -0.4189 0.5979 0.6834
vn -0.5751 0.6019 0.5541
vn -0.5304 0.6000 0.5989
vn -0.6519 0.6062 0.4556
vn -0.6152 0.6036 0.5071
vn -0.7131 0.6130 0.3402
vn -0.6842 0.6097 0.4002
vn -0.7534 0.6242 0.2067
vn -0.7370 0.6179 0.2739
vn -0.7617 0.6416 0.0902
vn -0.7635 0.6304 0.1401
vn -0.7523 0.6545 0.0746
vn -0.7616 0.6454 0.0588
vn -0.7675 0.6370 0.0715
vn -0.7571 0.6517 -0.0461
vn -0.7640 0.6451 0.0143
vn -0.7247 0.6670 -0.1732
vn -0.7448 0.6583 -0.1095
vn -0.6688 0.6834 -0.2926
vn -0.6998 0.6748 -0.2345
vn -0.5888 0.7008 -0.4028
vn -0.4957 0.7183 -0.4882
vn -0.5420 0.7102 -0.4492
vn -0.3885 0.7322 -0.5594
vn -0.4464 0.7251 -0.5244
vn -0.2613 0.7473 -0.6110
vn -0.3261 0.7399 -0.5884
vn -0.1252 0.7606 -0.6371
vn -0.1937 0.7536 -0.6281
vn -0.0427 0.7723 -0.6338
vn -0.0740 0.7689 -0.6351
vn 0.0610 0.7742 -0.6299
vn 0.0007 0.7710 -0.6368
vn 0.1895 0.7798 -0.5967
vn 0.1249 0.7767 -0.6174
vn 0.3152 0.7822 -0.5375
vn 0.2526 0.7812 -0.5708
vn 0.4275 0.7825 -0.4528
vn 0.3748 0.7822 -0.4977
vn 0.5119 0.7795 -0.3611
vn 0.4714 0.7816 -0.4085
vn 0.5809 0.7735 -0.2534
vn 0.5492 0.7763 -0.3094
vn 0.6339 0.7626 -0.1286
vn 0.6100 0.7682 -0.1944
vn 0.6601 0.7511 0.0060
vn 0.6500 0.7576 -0.0603
vn 0.6528 0.7539 0.0745
vn 0.6582 0.7507 0.0571
vn 0.6598 0.7480 0.0723
vn -0.7578 0.6484 0.0731
vn 0.7568 -0.6520 0.0462
vn 0.6411 0.7237 0.2554
vn 0.7445 -0.6586 0.1093
vn 0.6537 0.7319 0.1924
vn 0.7248 -0.6667 0.1736
vn 0.6411 0.7237 0.2553
vn 0.7248 -0.6667 0.1737
vn 0.5962 0.7072 0.3801
vn 0.6991 -0.6755 0.2342
vn 0.6216 0.7151 0.3197
vn 0.6991 -0.6756 0.2342
vn 0.5657 0.6982 0.4388
vn 0.6688 -0.6836 0.2922
vn 0.5961 0.7072 0.3802
vn 0.6687 -0.6837 0.2922
vn 0.5287 0.6894 0.4952
vn 0.6317 -0.6920 0.3493
vn 0.6317 -0.6921 0.3494
vn 0.5889 -0.7007 0.4028
vn 0.4388 0.6731 0.5954
vn 0.4853 0.6808 0.5487
vn 0.3923 0.6664 0.6340
vn 0.4960 -0.7184 0.4877
vn 0.4387 0.6730 0.5955
vn 0.4958 -0.7185 0.4878
vn 0.3432 0.6576 0.6707
vn 0.4463 -0.7252 0.5243
vn 0.3922 0.6665 0.6341
vn 0.4463 -0.7252 0.5244
vn 0.2854 0.6490 0.7052
vn 0.3887 -0.7320 0.5595
vn 0.3431 0.6576 0.6707
vn 0.2229 0.6417 0.7339
vn 0.3262 -0.7405 0.5876
vn 0.2854 0.6490 0.7053
vn 0.1585 0.6339 0.7570
vn 0.2620 -0.7469 0.6112
vn 0.2228 0.6417 0.7339
vn 0.2619 -0.7469 0.6112
vn 0.0900 0.6275 0.7734
vn 0.1932 -0.7537 0.6281
vn 0.1584 0.6339 0.7570
vn 0.0212 0.6209 0.7836
vn 0.1248 -0.7604 0.6374
vn 0.0899 0.6275 0.7734
vn 0.1247 -0.7604 0.6374
vn -0.0302 0.6229 0.7817
vn 0.0740 -0.7693 0.6346
vn -0.0614 0.6212 0.7812
vn 0.0427 -0.7721 0.6340
vn -0.0303 0.6229 0.7817
vn -0.1043 0.6136 0.7827
vn -0.0007 -0.7719 0.6358
vn -0.0615 0.6212 0.7812
vn -0.1638 0.6091 0.7760
vn -0.0606 -0.7737 0.6306
vn -0.1043 0.6135 0.7827
vn -0.0606 -0.7737 0.6307
vn -0.2283 0.6044 0.7632
vn -0.1247 -0.7772 0.6168
vn -0.1640 0.6091 0.7760
vn -0.1248 -0.7772 0.6167
vn -0.2927 0.6025 0.7425
vn -0.1897 -0.7797 0.5967
vn -0.2282 0.6045 0.7632
vn -0.3560 0.5999 0.7165
vn -0.2527 -0.7814 0.5706
vn -0.2928 0.6025 0.7425
vn -0.4187 0.5983 0.6832
vn -0.3153 -0.7823 0.5372
vn -0.4784 0.5980 0.6431
vn -0.3751 -0.7824 0.4972
vn -0.4188 0.5984 0.6831
vn -0.3752 -0.7824 0.4971
vn -0.5303 0.6000 0.5990
vn -0.4272 -0.7826 0.4529
vn -0.4272 -0.7825 0.4529
vn -0.5749 0.6020 0.5541
vn -0.4716 -0.7818 0.4080
vn -0.5303 0.6000 0.5989
vn -0.4716 -0.7818 0.4079
vn -0.6151 0.6037 0.5072
vn -0.5118 -0.7796 0.3610
vn -0.5750 0.6020 0.5541
vn -0.5117 -0.7796 0.3610
vn -0.6518 0.6063 0.4556
vn -0.5487 -0.7765 0.3096
vn -0.5489 -0.7765 0.3095
vn -0.6841 0.6098 0.4001
vn -0.5806 -0.7736 0.2538
vn -0.6518 0.6063 0.4555
vn -0.7129 0.6132 0.3402
vn -0.6102 -0.7680 0.1945
vn -0.7369 0.6179 0.2741
vn -0.6335 -0.7631 0.1281
vn -0.7130 0.6132 0.3401
vn -0.6335 -0.7631 0.1280
vn -0.7533 0.6243 0.2067
vn -0.6501 -0.7574 0.0606
vn -0.7370 0.6179 0.2740
vn -0.7634 0.6306 0.1400
vn -0.6599 -0.7513 -0.0059
vn -0.7533 0.6243 0.2066
vn -0.7617 0.6416 0.0903
vn -0.6575 -0.7513 -0.0568
vn -0.7577 0.6485 0.0735
vn -0.6527 -0.7539 -0.0743
vn -0.6527 -0.7539 -0.0745
vn -0.7575 0.6486 0.0739
vn -0.6527 -0.7540 -0.0744
vn -0.7577 0.6485 0.0734
vn -0.6527 -0.7539 -0.0746
vn -0.7575 0.6487 0.0736
vn -0.6528 -0.7539 -0.0745
vn -0.7615 0.6455 0.0589
vn -0.6576 -0.7482 -0.0883
vn -0.7576 0.6486 0.0734
vn -0.6576 -0.7482 -0.0884
vn -0.7639 0.6452 0.0143
vn -0.6602 -0.7394 -0.1320
vn -0.6601 -0.7395 -0.1320
vn -0.7569 0.6519 -0.0461
vn -0.6539 -0.7317 -0.1923
vn -0.7639 0.6452 0.0142
vn -0.7447 0.6583 -0.1093
vn -0.6416 -0.7233 -0.2552
vn -0.7569 0.6519 -0.0462
vn -0.7245 0.6671 -0.1731
vn -0.6214 -0.7155 -0.3192
vn -0.7447 0.6584 -0.1093
vn -0.6214 -0.7155 -0.3193
vn -0.6997 0.6749 -0.2344
vn -0.5959 -0.7074 -0.3801
vn -0.7246 0.6671 -0.1732
vn -0.5959 -0.7073 -0.3803
vn -0.6687 0.6835 -0.2925
vn -0.5656 -0.6985 -0.4385
vn -0.6997 0.6749 -0.2345
vn -0.5655 -0.6985 -0.4384
vn -0.6317 0.6922 -0.3490
vn -0.5285 -0.6897 -0.4950
vn -0.6688 0.6835 -0.2925
vn -0.5284 -0.6897 -0.4951
vn -0.5887 0.7009 -0.4027
vn -0.6316 0.6922 -0.3491
vn -0.4854 -0.6807 -0.5486
vn -0.5422 0.7102 -0.4491
vn -0.4387 -0.6731 -0.5953
vn -0.4389 -0.6731 -0.5953
vn -0.4956 0.7184 -0.4882
vn -0.3921 -0.6665 -0.6340
vn -0.5420 0.7102 -0.4493
vn -0.3920 -0.6664 -0.6342
vn -0.4463 0.7251 -0.5244
vn -0.3431 -0.6577 -0.6707
vn -0.4955 0.7184 -0.4882
vn -0.3432 -0.6577 -0.6706
vn -0.3885 0.7323 -0.5593
vn -0.2857 -0.6490 -0.7052
vn -0.2856 -0.6489 -0.7052
vn -0.3261 0.7401 -0.5882
vn -0.2230 -0.6417 -0.7338
vn -0.3883 0.7323 -0.5594
vn -0.2229 -0.6417 -0.7339
vn -0.2613 0.7473 -0.6109
vn -0.1581 -0.6340 -0.7570
vn -0.1937 0.7537 -0.6280
vn -0.0904 -0.6269 -0.7738
vn -0.1252 0.7607 -0.6369
vn -0.0212 -0.6213 -0.7833
vn -0.1936 0.7537 -0.6280
vn -0.0211 -0.6213 -0.7833
vn -0.0741 0.7691 -0.6348
vn 0.0300 -0.6230 -0.7816
vn -0.1250 0.7607 -0.6369
vn 0.0300 -0.6231 -0.7816
vn -0.0427 0.7724 -0.6338
vn 0.0614 -0.6216 -0.7809
vn -0.0740 0.7691 -0.6348
vn 0.0008 0.7710 -0.6368
vn 0.1043 -0.6134 -0.7829
vn -0.0427 0.7724 -0.6337
vn 0.0609 0.7744 -0.6298
vn 0.1642 -0.6091 -0.7759
vn 0.1644 -0.6091 -0.7759
vn 0.1248 0.7768 -0.6172
vn 0.2284 -0.6047 -0.7630
vn 0.0610 0.7744 -0.6297
vn 0.1893 0.7798 -0.5967
vn 0.2927 -0.6027 -0.7424
vn 0.1249 0.7768 -0.6172
vn 0.2929 -0.6027 -0.7423
vn 0.2526 0.7815 -0.5704
vn 0.3560 -0.5999 -0.7165
vn 0.1894 0.7798 -0.5966
vn 0.3559 -0.5999 -0.7165
vn 0.3150 0.7823 -0.5374
vn 0.4182 -0.5983 -0.6834
vn 0.2526 0.7815 -0.5705
vn 0.4184 -0.5983 -0.6834
vn 0.3748 0.7825 -0.4973
vn 0.4784 -0.5980 -0.6431
vn 0.3152 0.7823 -0.5373
vn 0.4785 -0.5980 -0.6430
vn 0.4273 0.7826 -0.4528
vn 0.5304 -0.6002 -0.5987
vn 0.3747 0.7825 -0.4973
vn 0.4712 0.7819 -0.4082
vn 0.5744 -0.6024 -0.5542
vn 0.4273 0.7825 -0.4528
vn 0.5745 -0.6024 -0.5542
vn 0.5118 0.7796 -0.3610
vn 0.6151 -0.6032 -0.5077
vn 0.4713 0.7819 -0.4081
vn 0.6152 -0.6032 -0.5077
vn 0.5490 0.7764 -0.3094
vn 0.6518 -0.6064 -0.4554
vn 0.5118 0.7796 -0.3609
vn 0.6518 -0.6065 -0.4553
vn 0.5808 0.7736 -0.2535
vn 0.6843 -0.6097 -0.4001
vn 0.5491 0.7764 -0.3094
vn 0.6098 0.7684 -0.1942
vn 0.7129 -0.6132 -0.3403
vn 0.5808 0.7736 -0.2534
vn 0.6338 0.7627 -0.1285
vn 0.7369 -0.6178 -0.2744
vn 0.6098 0.7684 -0.1941
vn 0.7369 -0.6178 -0.2743
vn 0.6497 0.7578 -0.0604
vn 0.7536 -0.6240 -0.2069
vn 0.7536 -0.6240 -0.2068
vn 0.6600 0.7513 0.0060
vn 0.7632 -0.6309 -0.1399
vn 0.7632 -0.6309 -0.1398
vn 0.6580 0.7509 0.0571
vn 0.7622 -0.6411 -0.0897
vn 0.6600 0.7513 0.0061
vn 0.6527 0.7540 0.0745
vn 0.7575 -0.6486 -0.0738
vn 0.6580 0.7508 0.0572
vn 0.7575 -0.6487 -0.0738
vn 0.6527 0.7540 0.0744
vn 0.7575 -0.6487 -0.0737
vn 0.6527 0.7540 0.0746
vn 0.7575 -0.6487 -0.0736
vn 0.6527 0.7540 0.0747
vn 0.7575 -0.6487 -0.0735
vn 0.6527 0.7540 0.0748
vt 0.000698 0.219793
vt 0.002408 0.233470
vt 0.005143 0.246278
vt 0.000000 0.128767
vt 0.000000 0.202740
vt 0.003205 0.093671
vt 0.000912 0.109374
vt 0.010386 0.069500
vt 0.006283 0.081152
vt 0.019504 0.052010
vt 0.014588 0.060454
vt 0.030146 0.038330
vt 0.025131 0.044169
vt 0.044480 0.025460
vt 0.035616 0.032877
vt 0.064101 0.013466
vt 0.053975 0.018990
vt 0.086247 0.005260
vt 0.074858 0.008890
vt 0.113087 0.000644
vt 0.100331 0.002222
vt 0.871233 0.000000
vt 0.128767 0.000000
vt 0.903781 0.002959
vt 0.889083 0.000842
vt 0.928798 0.010310
vt 0.917620 0.006365
vt 0.949260 0.021041
vt 0.939345 0.015202
vt 0.964384 0.032877
vt 0.957041 0.026630
vt 0.977205 0.047233
vt 0.971151 0.039753
vt 0.987178 0.064000
vt 0.982548 0.055315
vt 0.994857 0.085229
vt 0.991096 0.073288
vt 0.999302 0.111714
vt 0.997592 0.098037
vt 1.000000 0.202740
vt 1.000000 0.128767
vt 0.996795 0.237836
vt 0.999088 0.222133
vt 0.989614 0.262007
vt 0.993717 0.250355
vt 0.980496 0.279497
vt 0.985412 0.271053
vt 0.969854 0.293177
vt 0.974869 0.287338
vt 0.955520 0.306047
vt 0.964384 0.298630
vt 0.935899 0.318041
vt 0.946025 0.312517
vt 0.913753 0.326247
vt 0.925142 0.322617
vt 0.886913 0.330862
vt 0.899669 0.329284
vt 0.128767 0.331507
vt 0.871233 0.331507
vt 0.096219 0.328548
vt 0.110917 0.330665
vt 0.071202 0.321197
vt 0.082380 0.325142
vt 0.050740 0.310466
vt 0.060655 0.316305
vt 0.035616 0.298630
vt 0.042959 0.304877
vt 0.022795 0.284274
vt 0.028849 0.291753
vt 0.012822 0.267507
vt 0.017452 0.276192
vt 0.008904 0.258219
vt 0.000419 0.131948
vt 0.001445 0.140159
vt 0.003088 0.147848
vt 0.000000 0.077303
vt 0.000000 0.121711
vt 0.000000 0.072368
vt 0.000403 0.061393
vt 0.000000 0.069901
vt 0.002969 0.047933
vt 0.001390 0.054485
vt 0.007401 0.036842
vt 0.005140 0.041735
vt 0.013158 0.027796
vt 0.010074 0.032196
vt 0.020559 0.019737
vt 0.016653 0.023643
vt 0.031628 0.011400
vt 0.025892 0.015284
vt 0.044307 0.005337
vt 0.037766 0.008084
vt 0.059860 0.001334
vt 0.051250 0.003158
vt 0.077303 0.000000
vt 0.067675 0.000387
vt 0.933413 0.000505
vt 0.922697 0.000000
vt 0.950545 0.003821
vt 0.942237 0.001776
vt 0.963587 0.009126
vt 0.957255 0.006189
vt 0.974211 0.015987
vt 0.969539 0.012632
vt 0.982681 0.023865
vt 0.978618 0.019737
vt 0.989523 0.033207
vt 0.986316 0.028355
vt 0.994655 0.043997
vt 0.992303 0.038421
vt 0.998555 0.058855
vt 0.996912 0.051165
vt 1.000000 0.077303
vt 0.999581 0.067065
vt 1.000000 0.124178
vt 1.000000 0.121711
vt 1.000000 0.126645
vt 0.999597 0.137620
vt 1.000000 0.129112
vt 0.997031 0.151081
vt 0.998610 0.144528
vt 0.992599 0.162171
vt 0.994860 0.157278
vt 0.986842 0.171217
vt 0.989926 0.166817
vt 0.979441 0.179276
vt 0.983347 0.175370
vt 0.968372 0.187613
vt 0.974108 0.183729
vt 0.955693 0.193676
vt 0.962234 0.190929
vt 0.940140 0.197679
vt 0.948750 0.195855
vt 0.922697 0.199013
vt 0.932325 0.198626
vt 0.066587 0.198508
vt 0.077303 0.199013
vt 0.049455 0.195192
vt 0.057763 0.197237
vt 0.036413 0.189887
vt 0.042745 0.192824
vt 0.025789 0.183026
vt 0.030461 0.186382
vt 0.017319 0.175148
vt 0.021382 0.179276
vt 0.010477 0.165806
vt 0.013684 0.170658
vt 0.005345 0.155016
vt 0.007697 0.160592
vt 0.000000 0.074836
s 1
f 1/1/1 3/2/2 2/2/3
f 1/1/1 4/1/4 3/2/2
f 75/3/5 5/1/6 76/2/7
f 5/1/6 7/4/8 6/5/9
f 7/4/8 9/6/10 8/7/11
f 9/6/10 11/8/12 10/9/13
f 11/8/12 13/10/14 12/11/15
f 13/10/14 15/12/16 14/13/17
f 15/12/16 17/14/18 16/15/19
f 17/14/18 19/16/20 18/17/21
f 19/16/20 21/18/22 20/19/23
f 21/18/22 23/20/24 22/21/25
f 23/20/24 25/22/26 24/23/27
f 25/22/26 27/24/28 26/25/29
f 27/24/28 29/26/30 28/27/31
f 29/26/30 31/28/32 30/29/33
f 31/28/32 33/30/34 32/31/35
f 33/30/34 35/32/36 34/33/37
f 35/32/36 37/34/38 36/35/39
f 37/34/38 39/36/40 38/37/41
f 39/36/40 41/38/42 40/39/43
f 41/38/42 43/40/44 42/41/45
f 43/40/44 45/42/46 44/43/47
f 45/42/46 47/44/48 46/45/49
f 47/44/48 49/46/50 48/47/51
f 49/46/50 51/48/52 50/49/53
f 51/48/52 53/50/54 52/51/55
f 53/50/54 55/52/56 54/53/57
f 55/52/56 57/54/58 56/55/59
f 57/54/58 59/56/60 58/57/61
f 59/56/60 61/58/62 60/59/63
f 61/58/62 63/60/64 62/61/65
f 63/60/64 65/62/66 64/63/67
f 65/62/66 67/64/68 66/65/69
f 67/64/68 69/66/70 68/67/71
f 69/66/70 71/68/72 70/69/73
f 71/68/72 73/70/74 72/71/75
f 73/70/74 75/3/5 74/72/76
f 75/3/5 7/4/8 5/1/6
f 7/4/8 11/8/12 9/6/10
f 11/8/12 15/12/16 13/10/14
f 15/12/16 19/16/20 17/14/18
f 19/16/20 23/20/24 21/18/22
f 23/20/24 27/24/28 25/22/26
f 27/24/28 31/28/32 29/26/30
f 31/28/32 35/32/36 33/30/34
f 35/32/36 39/36/40 37/34/38
f 39/36/40 43/40/44 41/38/42
f 43/40/44 47/44/48 45/42/46
f 47/44/48 51/48/52 49/46/50
f 51/48/52 55/52/56 53/50/54
f 55/52/56 59/56/60 57/54/58
f 59/56/60 63/60/64 61/58/62
f 63/60/64 67/64/68 65/62/66
f 67/64/68 71/68/72 69/66/70
f 71/68/72 75/3/5 73/70/74
f 75/3/5 11/8/12 7/4/8
f 11/8/12 19/16/20 15/12/16
f 19/16/20 27/24/28 23/20/24
f 27/24/28 35/32/36 31/28/32
f 35/32/36 43/40/44 39/36/40
f 43/40/44 51/48/52 47/44/48
f 51/48/52 59/56/60 55/52/56
f 59/56/60 67/64/68 63/60/64
f 67/64/68 75/3/5 71/68/72
f 75/3/5 19/16/20 11/8/12
f 19/16/20 35/32/36 27/24/28
f 35/32/36 51/48/52 43/40/44
f 51/48/52 67/64/68 59/56/60
f 67/64/68 19/16/20 75/3/5
f 19/16/20 51/48/52 35/32/36
f 51/48/52 19/16/20 67/64/68
f 77/5/77 79/1/78 78/1/79
f 77/5/77 80/5/80 79/1/78
f 151/4/81 81/1/82 152/5/83
f 81/1/82 83/3/84 82/2/85
f 83/3/84 85/70/86 84/72/87
f 85/70/86 87/68/88 86/71/89
f 87/68/88 89/66/90 88/69/91
f 89/66/90 91/64/92 90/67/93
f 91/64/92 93/62/94 92/65/95
f 93/62/94 95/60/96 94/63/97
f 95/60/96 97/58/98 96/61/99
f 97/58/98 99/56/100 98/59/101
f 99/56/100 101/54/102 100/57/103
f 101/54/102 103/52/104 102/55/105
f 103/52/104 105/50/106 104/53/107
f 105/50/106 107/48/108 106/51/109
f 107/48/108 109/46/110 108/49/111
f 109/46/110 111/44/112 110/47/113
f 111/44/112 113/42/114 112/45/115
f 113/42/114 115/40/116 114/43/117
f 115/40/116 117/38/118 116/41/119
f 117/38/118 119/36/120 118/39/121
f 119/36/120 121/34/122 120/37/123
f 121/34/122 123/32/124 122/35/125
f 123/32/124 125/30/126 124/33/127
f 125/30/126 127/28/128 126/31/129
f 127/28/128 129/26/130 128/29/131
f 129/26/130 131/24/132 130/27/133
f 131/24/132 133/22/134 132/25/135
f 133/22/134 135/20/136 134/23/137
f 135/20/136 137/18/138 136/21/139
f 137/18/138 139/16/140 138/19/141
f 139/16/140 141/14/142 140/17/143
f 141/14/142 143/12/144 142/15/145
f 143/12/144 145/10/146 144/13/147
f 145/10/146 147/8/148 146/11/149
f 147/8/148 149/6/150 148/9/151
f 149/6/150 151/4/81 150/7/152
f 151/4/81 83/3/84 81/1/82
f 83/3/84 87/68/88 85/70/86
f 87/68/88 91/64/92 89/66/90
f 91/64/92 95/60/96 93/62/94
f 95/60/96 99/56/100 97/58/98
f 99/56/100 103/52/104 101/54/102
f 103/52/104 107/48/108 105/50/106
f 107/48/108 111/44/112 109/46/110
f 111/44/112 115/40/116 113/42/114
f 115/40/116 119/36/120 117/38/118
f 119/36/120 123/32/124 121/34/122
f 123/32/124 127/28/128 125/30/126
f 127/28/128 131/24/132 129/26/130
f 131/24/132 135/20/136 133/22/134
f 135/20/136 139/16/140 137/18/138
f 139/16/140 143/12/144 141/14/142
f 143/12/144 147/8/148 145/10/146
f 147/8/148 151/4/81 149/6/150
f 151/4/81 87/68/88 83/3/84
f 87/68/88 95/60/96 91/64/92
f 95/60/96 103/52/104 99/56/100
f 103/52/104 111/44/112 107/48/108
f 111/44/112 119/36/120 115/40/116
f 119/36/120 127/28/128 123/32/124
f 127/28/128 135/20/136 131/24/132
f 135/20/136 143/12/144 139/16/140
f 143/12/144 151/4/81 147/8/148
f 151/4/81 95/60/96 87/68/88
f 95/60/96 111/44/112 103/52/104
f 111/44/112 127/28/128 119/36/120
f 127/28/128 143/12/144 135/20/136
f 143/12/144 95/60/96 151/4/81
f 95/60/96 127/28/128 111/44/112
f 127/28/128 95/60/96 143/12/144
f 153/2/153 155/3/154 154/3/155
f 153/2/153 156/2/156 155/3/154
f 157/3/157 159/72/158 158/72/159
f 157/3/157 160/3/154 159/72/158
f 161/72/160 163/70/161 162/70/162
f 161/72/160 164/72/163 163/70/161
f 165/70/164 167/71/165 166/71/166
f 165/70/164 168/70/167 167/71/165
f 169/71/168 171/68/169 170/68/170
f 169/71/168 172/71/165 171/68/169
f 173/68/171 175/69/172 174/69/173
f 173/68/171 176/68/174 175/69/172
f 177/69/175 179/66/176 178/66/177
f 177/69/175 180/69/178 179/66/176
f 181/66/179 183/67/180 182/67/181
f 181/66/179 184/66/176 183/67/180
f 185/67/182 187/64/183 186/64/184
f 185/67/182 188/67/180 187/64/183
f 189/64/185 191/65/186 190/65/187
f 189/64/185 192/64/188 191/65/186
f 193/65/189 195/62/190 194/62/191
f 193/65/189 196/65/192 195/62/190
f 197/62/193 199/63/194 198/63/67
f 197/62/193 200/62/195 199/63/194
f 201/63/67 203/60/196 202/60/197
f 201/63/67 204/63/198 203/60/196
f 205/60/197 207/61/199 206/61/200
f 205/60/197 208/60/196 207/61/199
f 209/61/201 211/58/202 210/58/203
f 209/61/201 212/61/204 211/58/202
f 213/58/205 215/59/206 214/59/207
f 213/58/205 216/58/208 215/59/206
f 217/59/209 219/56/210 218/56/211
f 217/59/209 220/59/212 219/56/210
f 221/56/213 223/57/214 222/57/215
f 221/56/213 224/56/216 223/57/214
f 225/57/217 227/54/218 226/54/219
f 225/57/217 228/57/103 227/54/218
f 229/54/219 231/55/220 230/55/221
f 229/54/219 232/54/222 231/55/220
f 233/55/223 235/52/224 234/52/225
f 233/55/223 236/55/226 235/52/224
f 237/52/227 239/53/228 238/53/229
f 237/52/227 240/52/224 239/53/228
f 241/53/230 243/50/231 242/50/232
f 241/53/230 244/53/233 243/50/231
f 245/50/234 247/51/235 246/51/236
f 245/50/234 248/50/237 247/51/235
f 249/51/238 251/48/239 250/48/240
f 249/51/238 252/51/241 251/48/239
f 253/48/242 255/49/243 254/49/244
f 253/48/242 256/48/239 255/49/243
f 257/49/244 259/46/245 258/46/246
f 257/49/244 260/49/247 259/46/245
f 261/46/248 263/47/249 262/47/250
f 261/46/248 264/46/245 263/47/249
f 265/47/251 267/44/252 266/44/253
f 265/47/251 268/47/254 267/44/252
f 269/44/253 271/45/255 270/45/256
f 269/44/253 272/44/257 271/45/255
f 273/45/256 275/42/258 274/42/259
f 273/45/256 276/45/255 275/42/258
f 277/42/260 279/43/261 278/43/262
f 277/42/260 280/42/263 279/43/261
f 281/43/264 283/40/265 282/40/266
f 281/43/264 284/43/267 283/40/265
f 285/40/268 287/41/269 286/41/270
f 285/40/268 288/40/271 287/41/269
f 289/41/270 291/38/272 290/38/273
f 289/41/270 292/41/274 291/38/272
f 293/38/275 295/39/276 294/39/277
f 293/38/275 296/38/278 295/39/276
f 297/39/277 299/36/279 298/36/280
f 297/39/277 300/39/281 299/36/279
f 301/36/280 303/37/282 302/37/283
f 301/36/280 304/36/284 303/37/282
f 305/37/283 307/34/285 306/34/286
f 305/37/283 308/37/282 307/34/285
f 309/34/287 311/35/288 310/35/289
f 309/34/287 312/34/285 311/35/288
f 313/35/289 315/32/290 314/32/291
f 313/35/289 316/35/292 315/32/290
f 317/32/293 319/33/294 318/33/295
f 317/32/293 320/32/290 319/33/294
f 321/33/296 323/30/297 322/30/298
f 321/33/296 324/33/299 323/30/297
f 325/30/300 327/31/301 326/31/302
f 325/30/300 328/30/297 327/31/301
f 329/31/303 331/28/304 330/28/305
f 329/31/303 332/31/129 331/28/304
f 333/28/306 335/29/307 334/29/308
f 333/28/306 336/28/309 335/29/307
f 337/29/310 339/26/311 338/26/312
f 337/29/310 340/29/313 339/26/311
f 341/26/312 343/27/314 342/27/315
f 341/26/312 344/26/311 343/27/314
f 345/27/315 347/24/316 346/24/317
f 345/27/315 348/27/318 347/24/316
f 349/24/319 351/25/320 350/25/321
f 349/24/319 352/24/322 351/25/320
f 353/25/323 355/22/324 354/22/325
f 353/25/323 356/25/326 355/22/324
f 357/22/327 359/23/328 358/23/329
f 357/22/327 360/22/324 359/23/328
f 361/23/330 363/20/331 362/20/332
f 361/23/330 364/23/333 363/20/331
f 365/20/334 367/21/335 366/21/336
f 365/20/334 368/20/337 367/21/335
f 369/21/338 371/18/339 370/18/340
f 369/21/338 372/21/341 371/18/339
f 373/18/342 375/19/343 374/19/344
f 373/18/342 376/18/345 375/19/343
f 377/19/346 379/16/347 378/16/348
f 377/19/346 380/19/349 379/16/347
f 381/16/348 383/17/350 382/17/351
f 381/16/348 384/16/352 383/17/350
f 385/17/353 387/14/354 386/14/355
f 385/17/353 388/17/356 387/14/354
f 389/14/357 391/15/358 390/15/359
f 389/14/357 392/14/354 391/15/358
f 393/15/359 395/12/360 394/12/361
f 393/15/359 396/15/362 395/12/360
f 397/12/361 399/13/363 398/13/364
f 397/12/361 400/12/365 399/13/363
f 401/13/366 403/10/367 402/10/368
f 401/13/366 404/13/363 403/10/367
f 405/10/369 407/11/370 406/11/371
f 405/10/369 408/10/372 407/11/370
f 409/11/373 411/8/374 410/8/375
f 409/11/373 412/11/376 411/8/374
f 413/8/377 415/9/378 414/9/379
f 413/8/377 416/8/380 415/9/378
f 417/9/379 419/6/381 418/6/382
f 417/9/379 420/9/383 419/6/381
f 421/6/384 423/7/385 422/7/386
f 421/6/384 424/6/387 423/7/385
f 425/7/388 427/4/389 426/4/390
f 425/7/388 428/7/385 427/4/389
f 429/4/391 431/5/80 430/5/77
f 429/4/391 432/4/392 431/5/80
f 433/73/393 435/74/394 434/74/395
f 433/73/393 436/73/396 435/74/394
f 513/75/397 437/73/398 514/74/399
f 437/73/398 439/76/400 438/77/401
f 441/78/402 443/79/403 442/80/404
f 443/79/403 445/81/405 444/82/406
f 445/81/405 447/83/407 446/84/408
f 447/83/407 449/85/409 448/86/410
f 449/85/409 451/87/411 450/88/412
f 451/87/411 453/89/413 452/90/414
f 453/89/413 455/91/415 454/92/416
f 455/91/415 457/93/417 456/94/418
f 457/93/417 459/95/419 458/96/420
f 459/95/419 461/97/421 460/98/422
f 461/97/421 463/99/315 462/100/423
f 463/99/315 465/101/424 464/102/425
f 465/101/424 467/103/426 466/104/427
f 467/103/426 469/105/428 468/106/429
f 469/105/428 471/107/430 470/108/431
f 471/107/430 473/109/432 472/110/433
f 473/109/432 475/111/434 474/112/435
f 475/111/434 477/113/436 476/114/437
f 477/113/436 479/115/438 478/116/439
f 480/117/440 482/118/441 481/119/442
f 482/118/441 484/120/443 483/121/444
f 484/120/443 486/122/445 485/123/446
f 486/122/445 488/124/447 487/125/448
f 488/124/447 490/126/449 489/127/450
f 490/126/449 492/128/451 491/129/452
f 492/128/451 494/130/453 493/131/454
f 494/130/453 496/132/455 495/133/456
f 496/132/455 498/134/457 497/135/458
f 498/134/457 500/136/459 499/137/460
f 500/136/459 502/138/461 501/139/462
f 502/138/461 504/140/463 503/141/464
f 504/140/463 506/142/465 505/143/466
f 506/142/465 508/144/467 507/145/468
f 508/144/467 510/146/469 509/147/470
f 510/146/469 512/148/471 511/149/472
f 512/148/471 437/73/398 513/75/397
f 437/73/398 440/150/473 439/76/400
f 440/150/473 443/79/403 441/78/402
f 443/79/403 447/83/407 445/81/405
f 447/83/407 451/87/411 449/85/409
f 451/87/411 455/91/415 453/89/413
f 455/91/415 459/95/419 457/93/417
f 459/95/419 463/99/315 461/97/421
f 463/99/315 467/103/426 465/101/424
f 467/103/426 471/107/430 469/105/428
f 471/107/430 475/111/434 473/109/432
f 475/111/434 479/115/438 477/113/436
f 479/115/438 482/118/441 480/117/440
f 482/118/441 486/122/445 484/120/443
f 486/122/445 490/126/449 488/124/447
f 490/126/449 494/130/453 492/128/451
f 494/130/453 498/134/457 496/132/455
f 498/134/457 502/138/461 500/136/459
f 502/138/461 506/142/465 504/140/463
f 506/142/465 510/146/469 508/144/467
f 510/146/469 437/73/398 512/148/471
f 437/73/398 443/79/403 440/150/473
f 443/79/403 451/87/411 447/83/407
f 451/87/411 459/95/419 455/91/415
f 459/95/419 467/103/426 463/99/315
f 467/103/426 475/111/434 471/107/430
f 475/111/434 482/118/441 479/115/438
f 482/118/441 490/126/449 486/122/445
f 490/126/449 498/134/457 494/130/453
f 498/134/457 506/142/465 502/138/461
f 506/142/465 437/73/398 510/146/469
f 437/73/398 451/87/411 443/79/403
f 451/87/411 467/103/426 459/95/419
f 467/103/426 482/118/441 475/111/434
f 482/118/441 498/134/457 490/126/449
f 498/134/457 437/73/398 506/142/465
f 437/73/398 467/103/426 451/87/411
f 467/103/426 498/134/457 482/118/441
f 498/134/457 467/103/426 437/73/398
f 515/77/474 517/73/475 516/73/476
f 515/77/474 518/77/477 517/73/475
f 595/76/478 519/73/479 596/77/480
f 519/73/479 521/75/481 520/74/482
f 521/75/481 523/149/483 522/148/484
f 523/149/483 525/147/485 524/146/486
f 525/147/485 527/145/487 526/144/488
f 527/145/487 529/143/489 528/142/490
f 529/143/489 531/141/491 530/140/492
f 531/141/491 533/139/493 532/138/494
f 533/139/493 535/137/495 534/136/496
f 535/137/495 537/135/497 536/134/498
f 537/135/497 539/133/499 538/132/500
f 539/133/499 541/131/501 540/130/502
f 541/131/501 543/129/503 542/128/504
f 543/129/503 545/127/505 544/126/506
f 545/127/505 547/125/507 546/124/508
f 547/125/507 549/123/509 548/122/510
f 549/123/509 551/121/511 550/120/512
f 551/121/511 553/119/513 552/118/514
f 555/115/515 557/113/516 556/116/517
f 557/113/516 559/111/518 558/114/519
f 559/111/518 561/109/520 560/112/521
f 561/109/520 563/107/522 562/110/523
f 563/107/522 565/105/524 564/108/124
f 565/105/524 567/103/525 566/106/526
f 567/103/525 569/101/527 568/104/528
f 569/101/527 571/99/529 570/102/530
f 571/99/529 573/97/531 572/100/532
f 573/97/531 575/95/533 574/98/534
f 575/95/533 577/93/535 576/96/536
f 577/93/535 579/91/537 578/94/538
f 579/91/537 581/89/539 580/92/540
f 581/89/539 583/87/541 582/90/542
f 583/87/541 585/85/543 584/88/544
f 585/85/543 587/83/545 586/86/546
f 587/83/545 589/81/547 588/84/548
f 589/81/547 591/79/549 590/82/550
f 591/79/549 593/78/551 592/80/552
f 594/150/553 519/73/479 595/76/478
f 519/73/479 523/149/483 521/75/481
f 523/149/483 527/145/487 525/147/485
f 527/145/487 531/141/491 529/143/489
f 531/141/491 535/137/495 533/139/493
f 535/137/495 539/133/499 537/135/497
f 539/133/499 543/129/503 541/131/501
f 543/129/503 547/125/507 545/127/505
f 547/125/507 551/121/511 549/123/509
f 551/121/511 554/117/554 553/119/513
f 554/117/554 557/113/516 555/115/515
f 557/113/516 561/109/520 559/111/518
f 561/109/520 565/105/524 563/107/522
f 565/105/524 569/101/527 567/103/525
f 569/101/527 573/97/531 571/99/529
f 573/97/531 577/93/535 575/95/533
f 577/93/535 581/89/539 579/91/537
f 581/89/539 585/85/543 583/87/541
f 585/85/543 589/81/547 587/83/545
f 589/81/547 593/78/551 591/79/549
f 593/78/551 519/73/479 594/150/553
f 519/73/479 527/145/487 523/149/483
f 527/145/487 535/137/495 531/141/491
f 535/137/495 543/129/503 539/133/499
f 543/129/503 551/121/511 547/125/507
f 551/121/511 557/113/516 554/117/554
f 557/113/516 565/105/524 561/109/520
f 565/105/524 573/97/531 569/101/527
f 573/97/531 581/89/539 577/93/535
f 581/89/539 589/81/547 585/85/543
f 589/81/547 519/73/479 593/78/551
f 519/73/479 535/137/495 527/145/487
f 535/137/495 551/121/511 543/129/503
f 551/121/511 565/105/524 557/113/516
f 565/105/524 581/89/539 573/97/531
f 581/89/539 519/73/479 589/81/547
f 519/73/479 551/121/511 535/137/495
f 551/121/511 581/89/539 565/105/524
f 581/89/539 551/121/511 519/73/479
f 597/74/555 599/75/556 598/75/557
f 597/74/555 600/74/558 599/75/556
f 601/75/157 603/148/484 602/148/559
f 601/75/157 604/75/560 603/148/484
f 605/148/561 607/149/562 606/149/563
f 605/148/561 608/148/564 607/149/562
f 609/149/565 611/146/566 610/146/567
f 609/149/565 612/149/568 611/146/566
f 613/146/569 615/147/570 614/147/571
f 613/146/569 616/146/566 615/147/570
f 617/147/572 619/144/488 618/144/573
f 617/147/572 620/147/570 619/144/488
f 621/144/573 623/145/574 622/145/177
f 621/144/573 624/144/575 623/145/574
f 625/145/177 627/142/576 626/142/577
f 625/145/177 628/145/578 627/142/576
f 629/142/579 631/143/580 630/143/581
f 629/142/579 632/142/582 631/143/580
f 633/143/583 635/140/584 634/140/585
f 633/143/583 636/143/586 635/140/584
f 637/140/585 639/141/587 638/141/588
f 637/140/585 640/140/589 639/141/587
f 641/141/464 643/138/590 642/138/591
f 641/141/464 644/141/592 643/138/590
f 645/138/593 647/139/594 646/139/595
f 645/138/593 648/138/596 647/139/594
f 649/139/64 651/136/597 650/136/598
f 649/139/64 652/139/599 651/136/597
f 653/136/600 655/137/601 654/137/203
f 653/136/600 656/136/597 655/137/601
f 657/137/602 659/134/603 658/134/604
f 657/137/602 660/137/605 659/134/603
f 661/134/604 663/135/606 662/135/607
f 661/134/604 664/134/608 663/135/606
f 665/135/607 667/132/609 666/132/610
f 665/135/607 668/135/611 667/132/609
f 669/132/612 671/133/613 670/133/614
f 669/132/612 672/132/615 671/133/613
f 673/133/616 675/130/617 674/130/618
f 673/133/616 676/133/619 675/130/617
f 677/130/618 679/131/620 678/131/621
f 677/130/618 680/130/622 679/131/620
f 681/131/621 683/128/623 682/128/624
f 681/131/621 684/131/620 683/128/623
f 685/128/624 687/129/625 686/129/626
f 685/128/624 688/128/627 687/129/625
f 689/129/628 691/126/629 690/126/630
f 689/129/628 692/129/625 691/126/629
f 693/126/631 695/127/632 694/127/633
f 693/126/631 696/126/634 695/127/632
f 697/127/635 699/124/636 698/124/637
f 697/127/635 700/127/638 699/124/636
f 701/124/639 703/125/640 702/125/641
f 701/124/639 704/124/636 703/125/640
f 705/125/642 707/122/643 706/122/644
f 705/125/642 708/125/645 707/122/643
f 709/122/644 711/123/646 710/123/647
f 709/122/644 712/122/643 711/123/646
f 713/123/647 715/120/648 714/120/649
f 713/123/647 716/123/650 715/120/648
f 717/120/651 719/121/652 718/121/653
f 717/120/651 720/120/654 719/121/652
f 721/121/653 723/118/655 722/118/656
f 721/121/653 724/121/657 723/118/655
f 725/118/656 727/119/658 726/119/659
f 725/118/656 728/118/655 727/119/658
f 729/119/659 731/117/660 730/117/661
f 729/119/659 732/119/513 731/117/660
f 733/117/662 735/115/663 734/115/664
f 733/117/662 736/117/665 735/115/663
f 737/115/664 739/116/660 738/116/666
f 737/115/664 740/115/667 739/116/660
f 741/116/668 743/113/669 742/113/670
f 741/116/668 744/116/671 743/113/669
f 745/113/672 747/114/673 746/114/674
f 745/113/672 748/113/669 747/114/673
f 749/114/675 751/111/676 750/111/677
f 749/114/675 752/114/678 751/111/676
f 753/111/677 755/112/679 754/112/680
f 753/111/677 756/111/681 755/112/679
f 757/112/40 759/109/682 758/109/683
f 757/112/40 760/112/684 759/109/682
f 761/109/685 763/110/686 762/110/687
f 761/109/685 764/109/688 763/110/686
f 765/110/689 767/107/690 766/107/691
f 765/110/689 768/110/692 767/107/690
f 769/107/693 771/108/694 770/108/695
f 769/107/693 772/107/696 771/108/694
f 773/108/697 775/105/698 774/105/37
f 773/108/697 776/108/699 775/105/698
f 777/105/700 779/106/701 778/106/702
f 777/105/700 780/105/698 779/106/701
f 781/106/703 783/103/704 782/103/705
f 781/106/703 784/106/706 783/103/704
f 785/103/707 787/104/708 786/104/709
f 785/103/707 788/103/710 787/104/708
f 789/104/711 791/101/712 790/101/713
f 789/104/711 792/104/708 791/101/712
f 793/101/714 795/102/715 794/102/716
f 793/101/714 796/101/717 795/102/715
f 797/102/718 799/99/719 798/99/720
f 797/102/718 800/102/715 799/99/719
f 801/99/720 803/100/721 802/100/423
f 801/99/720 804/99/719 803/100/721
f 805/100/722 807/97/723 806/97/724
f 805/100/722 808/100/725 807/97/723
f 809/97/726 811/98/727 810/98/728
f 809/97/726 812/97/729 811/98/727
f 813/98/730 815/95/731 814/95/732
f 813/98/730 816/98/733 815/95/731
f 817/95/732 819/96/734 818/96/735
f 817/95/732 820/95/736 819/96/734
f 821/96/735 823/93/737 822/93/738
f 821/96/735 824/96/734 823/93/737
f 825/93/739 827/94/740 826/94/741
f 825/93/739 828/93/742 827/94/740
f 829/94/741 831/91/743 830/91/744
f 829/94/741 832/94/745 831/91/743
f 833/91/746 835/92/747 834/92/748
f 833/91/746 836/91/749 835/92/747
f 837/92/750 839/89/751 838/89/752
f 837/92/750 840/92/753 839/89/751
f 841/89/754 843/90/755 842/90/756
f 841/89/754 844/89/757 843/90/755
f 845/90/758 847/87/759 846/87/760
f 845/90/758 848/90/761 847/87/759
f 849/87/760 851/88/762 850/88/763
f 849/87/760 852/87/764 851/88/762
f 853/88/765 855/85/766 854/85/767
f 853/88/765 856/88/768 855/85/766
f 857/85/769 859/86/770 858/86/771
f 857/85/769 860/85/772 859/86/770
f 861/86/773 863/83/774 862/83/775
f 861/86/773 864/86/776 863/83/774
f 865/83/775 867/84/777 866/84/778
f 865/83/775 868/83/779 867/84/777
f 869/84/778 871/81/780 870/81/781
f 869/84/778 872/84/782 871/81/780
f 873/81/783 875/82/784 874/82/785
f 873/81/783 876/81/780 875/82/784
f 877/82/786 879/79/787 878/79/788
f 877/82/786 880/82/784 879/79/787
f 881/79/789 883/80/790 882/80/791
f 881/79/789 884/79/792 883/80/790
f 885/80/791 887/78/793 886/78/794
f 885/80/791 888/80/795 887/78/793
f 889/78/796 891/150/797 890/150/798
f 889/78/796 892/78/799 891/150/797
f 893/150/800 895/76/801 894/76/800
f 893/150/800 896/150/797 895/76/801
f 897/76/802 899/77/477 898/77/474
f 897/76/802 900/76/803 899/77/477
