# Blender 5.2.0 LTS
# www.blender.org
mtllib PERIOD_text.mtl
o PERIOD_text
v 0.354352 0.017608 0.134395
v 0.354442 0.017608 0.134510
v 0.354442 0.007940 0.134510
v 0.354352 0.007940 0.134395
v 0.354352 0.017608 0.134395
v 0.354229 0.017608 0.134265
v 0.348314 0.017608 0.128425
v 0.348196 0.017608 0.128290
v 0.348093 0.017608 0.128147
v 0.348005 0.017608 0.127998
v 0.347932 0.017608 0.127841
v 0.347874 0.017608 0.127677
v 0.347831 0.017608 0.127505
v 0.347804 0.017608 0.127327
v 0.347794 0.017608 0.127204
v 0.347790 0.017608 0.127078
v 0.347798 0.017608 0.126889
v 0.347823 0.017608 0.126707
v 0.347865 0.017608 0.126532
v 0.347922 0.017608 0.126363
v 0.347997 0.017608 0.126200
v 0.348088 0.017608 0.126044
v 0.348195 0.017608 0.125895
v 0.348276 0.017608 0.125798
v 0.348364 0.017608 0.125705
v 0.349936 0.017608 0.124133
v 0.350072 0.017608 0.124009
v 0.350214 0.017608 0.123901
v 0.350364 0.017608 0.123809
v 0.350521 0.017608 0.123732
v 0.350685 0.017608 0.123672
v 0.350856 0.017608 0.123627
v 0.351035 0.017608 0.123598
v 0.351158 0.017608 0.123587
v 0.351284 0.017608 0.123584
v 0.351503 0.017608 0.123595
v 0.351682 0.017608 0.123621
v 0.351855 0.017608 0.123663
v 0.352020 0.017608 0.123721
v 0.352178 0.017608 0.123795
v 0.352329 0.017608 0.123884
v 0.352473 0.017608 0.123990
v 0.352542 0.017608 0.124049
v 0.352632 0.017608 0.124133
v 0.362764 0.017608 0.134240
v 0.362882 0.017608 0.134375
v 0.362985 0.017608 0.134520
v 0.363073 0.017608 0.134671
v 0.363146 0.017608 0.134831
v 0.363204 0.017608 0.134998
v 0.363247 0.017608 0.135173
v 0.363277 0.017608 0.135387
v 0.363288 0.017608 0.135613
v 0.363270 0.017608 0.135838
v 0.363237 0.017608 0.136024
v 0.363189 0.017608 0.136202
v 0.363125 0.017608 0.136374
v 0.363046 0.017608 0.136538
v 0.362950 0.017608 0.136695
v 0.362839 0.017608 0.136845
v 0.362689 0.017608 0.137010
v 0.352557 0.017608 0.147142
v 0.352432 0.017608 0.147261
v 0.352300 0.017608 0.147365
v 0.352159 0.017608 0.147455
v 0.352009 0.017608 0.147530
v 0.351850 0.017608 0.147591
v 0.351683 0.017608 0.147638
v 0.351507 0.017608 0.147671
v 0.351385 0.017608 0.147684
v 0.351259 0.017608 0.147691
v 0.351071 0.017608 0.147688
v 0.350889 0.017608 0.147668
v 0.350713 0.017608 0.147631
v 0.350544 0.017608 0.147577
v 0.350382 0.017608 0.147506
v 0.350225 0.017608 0.147417
v 0.350076 0.017608 0.147310
v 0.349980 0.017608 0.147230
v 0.349886 0.017608 0.147142
v 0.348364 0.017608 0.145619
v 0.348246 0.017608 0.145489
v 0.348141 0.017608 0.145350
v 0.348052 0.017608 0.145201
v 0.347976 0.017608 0.145042
v 0.347915 0.017608 0.144874
v 0.347868 0.017608 0.144697
v 0.347832 0.017608 0.144478
v 0.347815 0.017608 0.144247
v 0.347812 0.017608 0.144016
v 0.347828 0.017608 0.143828
v 0.347860 0.017608 0.143649
v 0.347909 0.017608 0.143479
v 0.347962 0.017608 0.143346
v 0.348027 0.017608 0.143219
v 0.348103 0.017608 0.143097
v 0.348190 0.017608 0.142982
v 0.348289 0.017608 0.142874
v 0.354154 0.017608 0.137010
v 0.354289 0.017608 0.136869
v 0.354407 0.017608 0.136720
v 0.354507 0.017608 0.136564
v 0.354591 0.017608 0.136402
v 0.354657 0.017608 0.136231
v 0.354706 0.017608 0.136054
v 0.354737 0.017608 0.135870
v 0.354749 0.017608 0.135743
v 0.354753 0.017608 0.135613
v 0.354748 0.017608 0.135388
v 0.354727 0.017608 0.135204
v 0.354689 0.017608 0.135030
v 0.354644 0.017608 0.134891
v 0.354589 0.017608 0.134758
v 0.354521 0.017608 0.134631
v 0.354442 0.017608 0.134510
v 0.354229 0.017608 0.134265
v 0.354352 0.017608 0.134395
v 0.354352 0.007940 0.134395
v 0.354229 0.007940 0.134265
v 0.354352 0.007940 0.134395
v 0.354442 0.007940 0.134510
v 0.354521 0.007940 0.134631
v 0.354589 0.007940 0.134758
v 0.354644 0.007940 0.134891
v 0.354689 0.007940 0.135030
v 0.354727 0.007940 0.135204
v 0.354748 0.007940 0.135388
v 0.354753 0.007940 0.135613
v 0.354749 0.007940 0.135743
v 0.354737 0.007940 0.135870
v 0.354706 0.007940 0.136054
v 0.354657 0.007940 0.136231
v 0.354591 0.007940 0.136402
v 0.354507 0.007940 0.136564
v 0.354407 0.007940 0.136720
v 0.354289 0.007940 0.136869
v 0.354154 0.007940 0.137010
v 0.348289 0.007940 0.142874
v 0.348190 0.007940 0.142982
v 0.348103 0.007940 0.143097
v 0.348027 0.007940 0.143219
v 0.347962 0.007940 0.143346
v 0.347909 0.007940 0.143479
v 0.347860 0.007940 0.143649
v 0.347828 0.007940 0.143828
v 0.347812 0.007940 0.144016
v 0.347815 0.007940 0.144247
v 0.347832 0.007940 0.144478
v 0.347868 0.007940 0.144697
v 0.347915 0.007940 0.144874
v 0.347976 0.007940 0.145042
v 0.348052 0.007940 0.145201
v 0.348141 0.007940 0.145350
v 0.348246 0.007940 0.145489
v 0.348364 0.007940 0.145619
v 0.349886 0.007940 0.147142
v 0.349980 0.007940 0.147230
v 0.350076 0.007940 0.147310
v 0.350225 0.007940 0.147417
v 0.350382 0.007940 0.147506
v 0.350544 0.007940 0.147577
v 0.350713 0.007940 0.147631
v 0.350889 0.007940 0.147668
v 0.351071 0.007940 0.147688
v 0.351259 0.007940 0.147691
v 0.351385 0.007940 0.147684
v 0.351507 0.007940 0.147671
v 0.351683 0.007940 0.147638
v 0.351850 0.007940 0.147591
v 0.352009 0.007940 0.147530
v 0.352159 0.007940 0.147455
v 0.352300 0.007940 0.147365
v 0.352432 0.007940 0.147261
v 0.352557 0.007940 0.147142
v 0.362689 0.007940 0.137010
v 0.362839 0.007940 0.136845
v 0.362950 0.007940 0.136695
v 0.363046 0.007940 0.136538
v 0.363125 0.007940 0.136374
v 0.363189 0.007940 0.136202
v 0.363237 0.007940 0.136024
v 0.363270 0.007940 0.135838
v 0.363288 0.007940 0.135613
v 0.363277 0.007940 0.135387
v 0.363247 0.007940 0.135173
v 0.363204 0.007940 0.134998
v 0.363146 0.007940 0.134831
v 0.363073 0.007940 0.134671
v 0.362985 0.007940 0.134520
v 0.362882 0.007940 0.134375
v 0.362764 0.007940 0.134240
v 0.352632 0.007940 0.124133
v 0.352542 0.007940 0.124049
v 0.352473 0.007940 0.123990
v 0.352329 0.007940 0.123884
v 0.352178 0.007940 0.123795
v 0.352020 0.007940 0.123721
v 0.351855 0.007940 0.123663
v 0.351682 0.007940 0.123621
v 0.351503 0.007940 0.123595
v 0.351284 0.007940 0.123584
v 0.351158 0.007940 0.123587
v 0.351035 0.007940 0.123598
v 0.350856 0.007940 0.123627
v 0.350685 0.007940 0.123672
v 0.350521 0.007940 0.123732
v 0.350364 0.007940 0.123809
v 0.350214 0.007940 0.123901
v 0.350072 0.007940 0.124009
v 0.349936 0.007940 0.124133
v 0.348364 0.007940 0.125705
v 0.348276 0.007940 0.125798
v 0.348195 0.007940 0.125895
v 0.348088 0.007940 0.126044
v 0.347997 0.007940 0.126200
v 0.347922 0.007940 0.126363
v 0.347865 0.007940 0.126532
v 0.347823 0.007940 0.126707
v 0.347798 0.007940 0.126889
v 0.347790 0.007940 0.127078
v 0.347794 0.007940 0.127204
v 0.347804 0.007940 0.127327
v 0.347831 0.007940 0.127505
v 0.347874 0.007940 0.127677
v 0.347932 0.007940 0.127841
v 0.348005 0.007940 0.127998
v 0.348093 0.007940 0.128147
v 0.348196 0.007940 0.128290
v 0.348314 0.007940 0.128425
v 0.354229 0.007940 0.134265
v 0.354442 0.017608 0.134510
v 0.354521 0.017608 0.134631
v 0.354521 0.007940 0.134631
v 0.354442 0.007940 0.134510
v 0.354521 0.017608 0.134631
v 0.354589 0.017608 0.134758
v 0.354589 0.007940 0.134758
v 0.354521 0.007940 0.134631
v 0.354589 0.017608 0.134758
v 0.354644 0.017608 0.134891
v 0.354644 0.007940 0.134891
v 0.354589 0.007940 0.134758
v 0.354644 0.017608 0.134891
v 0.354689 0.017608 0.135030
v 0.354689 0.007940 0.135030
v 0.354644 0.007940 0.134891
v 0.354689 0.017608 0.135030
v 0.354727 0.017608 0.135204
v 0.354727 0.007940 0.135204
v 0.354689 0.007940 0.135030
v 0.354727 0.017608 0.135204
v 0.354748 0.017608 0.135388
v 0.354748 0.007940 0.135388
v 0.354727 0.007940 0.135204
v 0.354748 0.017608 0.135388
v 0.354753 0.017608 0.135613
v 0.354753 0.007940 0.135613
v 0.354748 0.007940 0.135388
v 0.354753 0.017608 0.135613
v 0.354749 0.017608 0.135743
v 0.354749 0.007940 0.135743
v 0.354753 0.007940 0.135613
v 0.354749 0.017608 0.135743
v 0.354737 0.017608 0.135870
v 0.354737 0.007940 0.135870
v 0.354749 0.007940 0.135743
v 0.354737 0.017608 0.135870
v 0.354706 0.017608 0.136054
v 0.354706 0.007940 0.136054
v 0.354737 0.007940 0.135870
v 0.354706 0.017608 0.136054
v 0.354657 0.017608 0.136231
v 0.354657 0.007940 0.136231
v 0.354706 0.007940 0.136054
v 0.354657 0.017608 0.136231
v 0.354591 0.017608 0.136402
v 0.354591 0.007940 0.136402
v 0.354657 0.007940 0.136231
v 0.354591 0.017608 0.136402
v 0.354507 0.017608 0.136564
v 0.354507 0.007940 0.136564
v 0.354591 0.007940 0.136402
v 0.354507 0.017608 0.136564
v 0.354407 0.017608 0.136720
v 0.354407 0.007940 0.136720
v 0.354507 0.007940 0.136564
v 0.354407 0.017608 0.136720
v 0.354289 0.017608 0.136869
v 0.354289 0.007940 0.136869
v 0.354407 0.007940 0.136720
v 0.354289 0.017608 0.136869
v 0.354154 0.017608 0.137010
v 0.354154 0.007940 0.137010
v 0.354289 0.007940 0.136869
v 0.354154 0.017608 0.137010
v 0.348289 0.017608 0.142874
v 0.348289 0.007940 0.142874
v 0.354154 0.007940 0.137010
v 0.348289 0.017608 0.142874
v 0.348190 0.017608 0.142982
v 0.348190 0.007940 0.142982
v 0.348289 0.007940 0.142874
v 0.348190 0.017608 0.142982
v 0.348103 0.017608 0.143097
v 0.348103 0.007940 0.143097
v 0.348190 0.007940 0.142982
v 0.348103 0.017608 0.143097
v 0.348027 0.017608 0.143219
v 0.348027 0.007940 0.143219
v 0.348103 0.007940 0.143097
v 0.348027 0.017608 0.143219
v 0.347962 0.017608 0.143346
v 0.347962 0.007940 0.143346
v 0.348027 0.007940 0.143219
v 0.347962 0.017608 0.143346
v 0.347909 0.017608 0.143479
v 0.347909 0.007940 0.143479
v 0.347962 0.007940 0.143346
v 0.347909 0.017608 0.143479
v 0.347860 0.017608 0.143649
v 0.347860 0.007940 0.143649
v 0.347909 0.007940 0.143479
v 0.347860 0.017608 0.143649
v 0.347828 0.017608 0.143828
v 0.347828 0.007940 0.143828
v 0.347860 0.007940 0.143649
v 0.347828 0.017608 0.143828
v 0.347812 0.017608 0.144016
v 0.347812 0.007940 0.144016
v 0.347828 0.007940 0.143828
v 0.347812 0.017608 0.144016
v 0.347815 0.017608 0.144247
v 0.347815 0.007940 0.144247
v 0.347812 0.007940 0.144016
v 0.347815 0.017608 0.144247
v 0.347832 0.017608 0.144478
v 0.347832 0.007940 0.144478
v 0.347815 0.007940 0.144247
v 0.347832 0.017608 0.144478
v 0.347868 0.017608 0.144697
v 0.347868 0.007940 0.144697
v 0.347832 0.007940 0.144478
v 0.347868 0.017608 0.144697
v 0.347915 0.017608 0.144874
v 0.347915 0.007940 0.144874
v 0.347868 0.007940 0.144697
v 0.347915 0.017608 0.144874
v 0.347976 0.017608 0.145042
v 0.347976 0.007940 0.145042
v 0.347915 0.007940 0.144874
v 0.347976 0.017608 0.145042
v 0.348052 0.017608 0.145201
v 0.348052 0.007940 0.145201
v 0.347976 0.007940 0.145042
v 0.348052 0.017608 0.145201
v 0.348141 0.017608 0.145350
v 0.348141 0.007940 0.145350
v 0.348052 0.007940 0.145201
v 0.348141 0.017608 0.145350
v 0.348246 0.017608 0.145489
v 0.348246 0.007940 0.145489
v 0.348141 0.007940 0.145350
v 0.348246 0.017608 0.145489
v 0.348364 0.017608 0.145619
v 0.348364 0.007940 0.145619
v 0.348246 0.007940 0.145489
v 0.348364 0.017608 0.145619
v 0.349886 0.017608 0.147142
v 0.349886 0.007940 0.147142
v 0.348364 0.007940 0.145619
v 0.349886 0.017608 0.147142
v 0.349980 0.017608 0.147230
v 0.349980 0.007940 0.147230
v 0.349886 0.007940 0.147142
v 0.349980 0.017608 0.147230
v 0.350076 0.017608 0.147310
v 0.350076 0.007940 0.147310
v 0.349980 0.007940 0.147230
v 0.350076 0.017608 0.147310
v 0.350225 0.017608 0.147417
v 0.350225 0.007940 0.147417
v 0.350076 0.007940 0.147310
v 0.350225 0.017608 0.147417
v 0.350382 0.017608 0.147506
v 0.350382 0.007940 0.147506
v 0.350225 0.007940 0.147417
v 0.350382 0.017608 0.147506
v 0.350544 0.017608 0.147577
v 0.350544 0.007940 0.147577
v 0.350382 0.007940 0.147506
v 0.350544 0.017608 0.147577
v 0.350713 0.017608 0.147631
v 0.350713 0.007940 0.147631
v 0.350544 0.007940 0.147577
v 0.350713 0.017608 0.147631
v 0.350889 0.017608 0.147668
v 0.350889 0.007940 0.147668
v 0.350713 0.007940 0.147631
v 0.350889 0.017608 0.147668
v 0.351071 0.017608 0.147688
v 0.351071 0.007940 0.147688
v 0.350889 0.007940 0.147668
v 0.351071 0.017608 0.147688
v 0.351259 0.017608 0.147691
v 0.351259 0.007940 0.147691
v 0.351071 0.007940 0.147688
v 0.351259 0.017608 0.147691
v 0.351385 0.017608 0.147684
v 0.351385 0.007940 0.147684
v 0.351259 0.007940 0.147691
v 0.351385 0.017608 0.147684
v 0.351507 0.017608 0.147671
v 0.351507 0.007940 0.147671
v 0.351385 0.007940 0.147684
v 0.351507 0.017608 0.147671
v 0.351683 0.017608 0.147638
v 0.351683 0.007940 0.147638
v 0.351507 0.007940 0.147671
v 0.351683 0.017608 0.147638
v 0.351850 0.017608 0.147591
v 0.351850 0.007940 0.147591
v 0.351683 0.007940 0.147638
v 0.351850 0.017608 0.147591
v 0.352009 0.017608 0.147530
v 0.352009 0.007940 0.147530
v 0.351850 0.007940 0.147591
v 0.352009 0.017608 0.147530
v 0.352159 0.017608 0.147455
v 0.352159 0.007940 0.147455
v 0.352009 0.007940 0.147530
v 0.352159 0.017608 0.147455
v 0.352300 0.017608 0.147365
v 0.352300 0.007940 0.147365
v 0.352159 0.007940 0.147455
v 0.352300 0.017608 0.147365
v 0.352432 0.017608 0.147261
v 0.352432 0.007940 0.147261
v 0.352300 0.007940 0.147365
v 0.352432 0.017608 0.147261
v 0.352557 0.017608 0.147142
v 0.352557 0.007940 0.147142
v 0.352432 0.007940 0.147261
v 0.352557 0.017608 0.147142
v 0.362689 0.017608 0.137010
v 0.362689 0.007940 0.137010
v 0.352557 0.007940 0.147142
v 0.362689 0.017608 0.137010
v 0.362839 0.017608 0.136845
v 0.362839 0.007940 0.136845
v 0.362689 0.007940 0.137010
v 0.362839 0.017608 0.136845
v 0.362950 0.017608 0.136695
v 0.362950 0.007940 0.136695
v 0.362839 0.007940 0.136845
v 0.362950 0.017608 0.136695
v 0.363046 0.017608 0.136538
v 0.363046 0.007940 0.136538
v 0.362950 0.007940 0.136695
v 0.363046 0.017608 0.136538
v 0.363125 0.017608 0.136374
v 0.363125 0.007940 0.136374
v 0.363046 0.007940 0.136538
v 0.363125 0.017608 0.136374
v 0.363189 0.017608 0.136202
v 0.363189 0.007940 0.136202
v 0.363125 0.007940 0.136374
v 0.363189 0.017608 0.136202
v 0.363237 0.017608 0.136024
v 0.363237 0.007940 0.136024
v 0.363189 0.007940 0.136202
v 0.363237 0.017608 0.136024
v 0.363270 0.017608 0.135838
v 0.363270 0.007940 0.135838
v 0.363237 0.007940 0.136024
v 0.363270 0.017608 0.135838
v 0.363288 0.017608 0.135613
v 0.363288 0.007940 0.135613
v 0.363270 0.007940 0.135838
v 0.363288 0.017608 0.135613
v 0.363277 0.017608 0.135387
v 0.363277 0.007940 0.135387
v 0.363288 0.007940 0.135613
v 0.363277 0.017608 0.135387
v 0.363247 0.017608 0.135173
v 0.363247 0.007940 0.135173
v 0.363277 0.007940 0.135387
v 0.363247 0.017608 0.135173
v 0.363204 0.017608 0.134998
v 0.363204 0.007940 0.134998
v 0.363247 0.007940 0.135173
v 0.363204 0.017608 0.134998
v 0.363146 0.017608 0.134831
v 0.363146 0.007940 0.134831
v 0.363204 0.007940 0.134998
v 0.363146 0.017608 0.134831
v 0.363073 0.017608 0.134671
v 0.363073 0.007940 0.134671
v 0.363146 0.007940 0.134831
v 0.363073 0.017608 0.134671
v 0.362985 0.017608 0.134520
v 0.362985 0.007940 0.134520
v 0.363073 0.007940 0.134671
v 0.362985 0.017608 0.134520
v 0.362882 0.017608 0.134375
v 0.362882 0.007940 0.134375
v 0.362985 0.007940 0.134520
v 0.362882 0.017608 0.134375
v 0.362764 0.017608 0.134240
v 0.362764 0.007940 0.134240
v 0.362882 0.007940 0.134375
v 0.362764 0.017608 0.134240
v 0.352632 0.017608 0.124133
v 0.352632 0.007940 0.124133
v 0.362764 0.007940 0.134240
v 0.352632 0.017608 0.124133
v 0.352542 0.017608 0.124049
v 0.352542 0.007940 0.124049
v 0.352632 0.007940 0.124133
v 0.352542 0.017608 0.124049
v 0.352473 0.017608 0.123990
v 0.352473 0.007940 0.123990
v 0.352542 0.007940 0.124049
v 0.352473 0.017608 0.123990
v 0.352329 0.017608 0.123884
v 0.352329 0.007940 0.123884
v 0.352473 0.007940 0.123990
v 0.352329 0.017608 0.123884
v 0.352178 0.017608 0.123795
v 0.352178 0.007940 0.123795
v 0.352329 0.007940 0.123884
v 0.352178 0.017608 0.123795
v 0.352020 0.017608 0.123721
v 0.352020 0.007940 0.123721
v 0.352178 0.007940 0.123795
v 0.352020 0.017608 0.123721
v 0.351855 0.017608 0.123663
v 0.351855 0.007940 0.123663
v 0.352020 0.007940 0.123721
v 0.351855 0.017608 0.123663
v 0.351682 0.017608 0.123621
v 0.351682 0.007940 0.123621
v 0.351855 0.007940 0.123663
v 0.351682 0.017608 0.123621
v 0.351503 0.017608 0.123595
v 0.351503 0.007940 0.123595
v 0.351682 0.007940 0.123621
v 0.351503 0.017608 0.123595
v 0.351284 0.017608 0.123584
v 0.351284 0.007940 0.123584
v 0.351503 0.007940 0.123595
v 0.351284 0.017608 0.123584
v 0.351158 0.017608 0.123587
v 0.351158 0.007940 0.123587
v 0.351284 0.007940 0.123584
v 0.351158 0.017608 0.123587
v 0.351035 0.017608 0.123598
v 0.351035 0.007940 0.123598
v 0.351158 0.007940 0.123587
v 0.351035 0.017608 0.123598
v 0.350856 0.017608 0.123627
v 0.350856 0.007940 0.123627
v 0.351035 0.007940 0.123598
v 0.350856 0.017608 0.123627
v 0.350685 0.017608 0.123672
v 0.350685 0.007940 0.123672
v 0.350856 0.007940 0.123627
v 0.350685 0.017608 0.123672
v 0.350521 0.017608 0.123732
v 0.350521 0.007940 0.123732
v 0.350685 0.007940 0.123672
v 0.350521 0.017608 0.123732
v 0.350364 0.017608 0.123809
v 0.350364 0.007940 0.123809
v 0.350521 0.007940 0.123732
v 0.350364 0.017608 0.123809
v 0.350214 0.017608 0.123901
v 0.350214 0.007940 0.123901
v 0.350364 0.007940 0.123809
v 0.350214 0.017608 0.123901
v 0.350072 0.017608 0.124009
v 0.350072 0.007940 0.124009
v 0.350214 0.007940 0.123901
v 0.350072 0.017608 0.124009
v 0.349936 0.017608 0.124133
v 0.349936 0.007940 0.124133
v 0.350072 0.007940 0.124009
v 0.349936 0.017608 0.124133
v 0.348364 0.017608 0.125705
v 0.348364 0.007940 0.125705
v 0.349936 0.007940 0.124133
v 0.348364 0.017608 0.125705
v 0.348276 0.017608 0.125798
v 0.348276 0.007940 0.125798
v 0.348364 0.007940 0.125705
v 0.348276 0.017608 0.125798
v 0.348195 0.017608 0.125895
v 0.348195 0.007940 0.125895
v 0.348276 0.007940 0.125798
v 0.348195 0.017608 0.125895
v 0.348088 0.017608 0.126044
v 0.348088 0.007940 0.126044
v 0.348195 0.007940 0.125895
v 0.348088 0.017608 0.126044
v 0.347997 0.017608 0.126200
v 0.347997 0.007940 0.126200
v 0.348088 0.007940 0.126044
v 0.347997 0.017608 0.126200
v 0.347922 0.017608 0.126363
v 0.347922 0.007940 0.126363
v 0.347997 0.007940 0.126200
v 0.347922 0.017608 0.126363
v 0.347865 0.017608 0.126532
v 0.347865 0.007940 0.126532
v 0.347922 0.007940 0.126363
v 0.347865 0.017608 0.126532
v 0.347823 0.017608 0.126707
v 0.347823 0.007940 0.126707
v 0.347865 0.007940 0.126532
v 0.347823 0.017608 0.126707
v 0.347798 0.017608 0.126889
v 0.347798 0.007940 0.126889
v 0.347823 0.007940 0.126707
v 0.347798 0.017608 0.126889
v 0.347790 0.017608 0.127078
v 0.347790 0.007940 0.127078
v 0.347798 0.007940 0.126889
v 0.347790 0.017608 0.127078
v 0.347794 0.017608 0.127204
v 0.347794 0.007940 0.127204
v 0.347790 0.007940 0.127078
v 0.347794 0.017608 0.127204
v 0.347804 0.017608 0.127327
v 0.347804 0.007940 0.127327
v 0.347794 0.007940 0.127204
v 0.347804 0.017608 0.127327
v 0.347831 0.017608 0.127505
v 0.347831 0.007940 0.127505
v 0.347804 0.007940 0.127327
v 0.347831 0.017608 0.127505
v 0.347874 0.017608 0.127677
v 0.347874 0.007940 0.127677
v 0.347831 0.007940 0.127505
v 0.347874 0.017608 0.127677
v 0.347932 0.017608 0.127841
v 0.347932 0.007940 0.127841
v 0.347874 0.007940 0.127677
v 0.347932 0.017608 0.127841
v 0.348005 0.017608 0.127998
v 0.348005 0.007940 0.127998
v 0.347932 0.007940 0.127841
v 0.348005 0.017608 0.127998
v 0.348093 0.017608 0.128147
v 0.348093 0.007940 0.128147
v 0.348005 0.007940 0.127998
v 0.348093 0.017608 0.128147
v 0.348196 0.017608 0.128290
v 0.348196 0.007940 0.128290
v 0.348093 0.007940 0.128147
v 0.348196 0.017608 0.128290
v 0.348314 0.017608 0.128425
v 0.348314 0.007940 0.128425
v 0.348196 0.007940 0.128290
v 0.348314 0.017608 0.128425
v 0.354229 0.017608 0.134265
v 0.354229 0.007940 0.134265
v 0.348314 0.007940 0.128425
v 0.352494 0.017608 0.198994
v 0.352499 0.017608 0.199151
v 0.352499 0.007940 0.199151
v 0.352494 0.007940 0.198994
v 0.352494 0.017608 0.198994
v 0.352494 0.017608 0.197596
v 0.352508 0.017608 0.197323
v 0.352540 0.017608 0.197099
v 0.352592 0.017608 0.196884
v 0.352663 0.017608 0.196679
v 0.352753 0.017608 0.196483
v 0.352863 0.017608 0.196296
v 0.352993 0.017608 0.196119
v 0.353065 0.017608 0.196034
v 0.353168 0.017608 0.195924
v 0.353335 0.017608 0.195772
v 0.353510 0.017608 0.195640
v 0.353695 0.017608 0.195526
v 0.353890 0.017608 0.195432
v 0.354094 0.017608 0.195358
v 0.354307 0.017608 0.195303
v 0.354529 0.017608 0.195267
v 0.354683 0.017608 0.195255
v 0.354840 0.017608 0.195250
v 0.356238 0.017608 0.195250
v 0.356511 0.017608 0.195264
v 0.356735 0.017608 0.195296
v 0.356950 0.017608 0.195348
v 0.357155 0.017608 0.195419
v 0.357351 0.017608 0.195509
v 0.357537 0.017608 0.195619
v 0.357715 0.017608 0.195748
v 0.357800 0.017608 0.195820
v 0.357910 0.017608 0.195924
v 0.358062 0.017608 0.196091
v 0.358194 0.017608 0.196266
v 0.358308 0.017608 0.196451
v 0.358401 0.017608 0.196645
v 0.358476 0.017608 0.196849
v 0.358531 0.017608 0.197063
v 0.358566 0.017608 0.197285
v 0.358579 0.017608 0.197438
v 0.358584 0.017608 0.197596
v 0.358584 0.017608 0.198994
v 0.358570 0.017608 0.199266
v 0.358538 0.017608 0.199491
v 0.358486 0.017608 0.199705
v 0.358415 0.017608 0.199911
v 0.358325 0.017608 0.200107
v 0.358215 0.017608 0.200293
v 0.358085 0.017608 0.200471
v 0.358013 0.017608 0.200556
v 0.357910 0.017608 0.200666
v 0.357743 0.017608 0.200817
v 0.357568 0.017608 0.200950
v 0.357383 0.017608 0.201063
v 0.357188 0.017608 0.201157
v 0.356984 0.017608 0.201231
v 0.356771 0.017608 0.201286
v 0.356549 0.017608 0.201322
v 0.356395 0.017608 0.201335
v 0.356238 0.017608 0.201339
v 0.354840 0.017608 0.201339
v 0.354567 0.017608 0.201326
v 0.354343 0.017608 0.201294
v 0.354128 0.017608 0.201242
v 0.353923 0.017608 0.201171
v 0.353727 0.017608 0.201081
v 0.353540 0.017608 0.200971
v 0.353363 0.017608 0.200841
v 0.353278 0.017608 0.200769
v 0.353168 0.017608 0.200666
v 0.353016 0.017608 0.200499
v 0.352884 0.017608 0.200324
v 0.352770 0.017608 0.200138
v 0.352677 0.017608 0.199944
v 0.352602 0.017608 0.199740
v 0.352547 0.017608 0.199527
v 0.352512 0.017608 0.199305
v 0.352499 0.017608 0.199151
v 0.352494 0.017608 0.197596
v 0.352494 0.017608 0.198994
v 0.352494 0.007940 0.198994
v 0.352494 0.007940 0.197596
v 0.352494 0.007940 0.198994
v 0.352499 0.007940 0.199151
v 0.352512 0.007940 0.199305
v 0.352547 0.007940 0.199527
v 0.352602 0.007940 0.199740
v 0.352677 0.007940 0.199944
v 0.352770 0.007940 0.200138
v 0.352884 0.007940 0.200324
v 0.353016 0.007940 0.200499
v 0.353168 0.007940 0.200666
v 0.353278 0.007940 0.200769
v 0.353363 0.007940 0.200841
v 0.353540 0.007940 0.200971
v 0.353727 0.007940 0.201081
v 0.353923 0.007940 0.201171
v 0.354128 0.007940 0.201242
v 0.354343 0.007940 0.201294
v 0.354567 0.007940 0.201326
v 0.354840 0.007940 0.201339
v 0.356238 0.007940 0.201339
v 0.356395 0.007940 0.201335
v 0.356549 0.007940 0.201322
v 0.356771 0.007940 0.201286
v 0.356984 0.007940 0.201231
v 0.357188 0.007940 0.201157
v 0.357383 0.007940 0.201063
v 0.357568 0.007940 0.200950
v 0.357743 0.007940 0.200817
v 0.357910 0.007940 0.200666
v 0.358013 0.007940 0.200556
v 0.358085 0.007940 0.200471
v 0.358215 0.007940 0.200293
v 0.358325 0.007940 0.200107
v 0.358415 0.007940 0.199911
v 0.358486 0.007940 0.199705
v 0.358538 0.007940 0.199491
v 0.358570 0.007940 0.199266
v 0.358584 0.007940 0.198994
v 0.358584 0.007940 0.197596
v 0.358579 0.007940 0.197438
v 0.358566 0.007940 0.197285
v 0.358531 0.007940 0.197063
v 0.358476 0.007940 0.196849
v 0.358401 0.007940 0.196645
v 0.358308 0.007940 0.196451
v 0.358194 0.007940 0.196266
v 0.358062 0.007940 0.196091
v 0.357910 0.007940 0.195924
v 0.357800 0.007940 0.195820
v 0.357715 0.007940 0.195748
v 0.357537 0.007940 0.195619
v 0.357351 0.007940 0.195509
v 0.357155 0.007940 0.195419
v 0.356950 0.007940 0.195348
v 0.356735 0.007940 0.195296
v 0.356511 0.007940 0.195264
v 0.356238 0.007940 0.195250
v 0.354840 0.007940 0.195250
v 0.354683 0.007940 0.195255
v 0.354529 0.007940 0.195267
v 0.354307 0.007940 0.195303
v 0.354094 0.007940 0.195358
v 0.353890 0.007940 0.195432
v 0.353695 0.007940 0.195526
v 0.353510 0.007940 0.195640
v 0.353335 0.007940 0.195772
v 0.353168 0.007940 0.195924
v 0.353065 0.007940 0.196034
v 0.352993 0.007940 0.196119
v 0.352863 0.007940 0.196296
v 0.352753 0.007940 0.196483
v 0.352663 0.007940 0.196679
v 0.352592 0.007940 0.196884
v 0.352540 0.007940 0.197099
v 0.352508 0.007940 0.197323
v 0.352494 0.007940 0.197596
v 0.352499 0.017608 0.199151
v 0.352512 0.017608 0.199305
v 0.352512 0.007940 0.199305
v 0.352499 0.007940 0.199151
v 0.352512 0.017608 0.199305
v 0.352547 0.017608 0.199527
v 0.352547 0.007940 0.199527
v 0.352512 0.007940 0.199305
v 0.352547 0.017608 0.199527
v 0.352602 0.017608 0.199740
v 0.352602 0.007940 0.199740
v 0.352547 0.007940 0.199527
v 0.352602 0.017608 0.199740
v 0.352677 0.017608 0.199944
v 0.352677 0.007940 0.199944
v 0.352602 0.007940 0.199740
v 0.352677 0.017608 0.199944
v 0.352770 0.017608 0.200138
v 0.352770 0.007940 0.200138
v 0.352677 0.007940 0.199944
v 0.352770 0.017608 0.200138
v 0.352884 0.017608 0.200324
v 0.352884 0.007940 0.200324
v 0.352770 0.007940 0.200138
v 0.352884 0.017608 0.200324
v 0.353016 0.017608 0.200499
v 0.353016 0.007940 0.200499
v 0.352884 0.007940 0.200324
v 0.353016 0.017608 0.200499
v 0.353168 0.017608 0.200666
v 0.353168 0.007940 0.200666
v 0.353016 0.007940 0.200499
v 0.353168 0.017608 0.200666
v 0.353278 0.017608 0.200769
v 0.353278 0.007940 0.200769
v 0.353168 0.007940 0.200666
v 0.353278 0.017608 0.200769
v 0.353363 0.017608 0.200841
v 0.353363 0.007940 0.200841
v 0.353278 0.007940 0.200769
v 0.353363 0.017608 0.200841
v 0.353540 0.017608 0.200971
v 0.353540 0.007940 0.200971
v 0.353363 0.007940 0.200841
v 0.353540 0.017608 0.200971
v 0.353727 0.017608 0.201081
v 0.353727 0.007940 0.201081
v 0.353540 0.007940 0.200971
v 0.353727 0.017608 0.201081
v 0.353923 0.017608 0.201171
v 0.353923 0.007940 0.201171
v 0.353727 0.007940 0.201081
v 0.353923 0.017608 0.201171
v 0.354128 0.017608 0.201242
v 0.354128 0.007940 0.201242
v 0.353923 0.007940 0.201171
v 0.354128 0.017608 0.201242
v 0.354343 0.017608 0.201294
v 0.354343 0.007940 0.201294
v 0.354128 0.007940 0.201242
v 0.354343 0.017608 0.201294
v 0.354567 0.017608 0.201326
v 0.354567 0.007940 0.201326
v 0.354343 0.007940 0.201294
v 0.354567 0.017608 0.201326
v 0.354840 0.017608 0.201339
v 0.354840 0.007940 0.201339
v 0.354567 0.007940 0.201326
v 0.354840 0.017608 0.201339
v 0.356238 0.017608 0.201339
v 0.356238 0.007940 0.201339
v 0.354840 0.007940 0.201339
v 0.356238 0.017608 0.201339
v 0.356395 0.017608 0.201335
v 0.356395 0.007940 0.201335
v 0.356238 0.007940 0.201339
v 0.356395 0.017608 0.201335
v 0.356549 0.017608 0.201322
v 0.356549 0.007940 0.201322
v 0.356395 0.007940 0.201335
v 0.356549 0.017608 0.201322
v 0.356771 0.017608 0.201286
v 0.356771 0.007940 0.201286
v 0.356549 0.007940 0.201322
v 0.356771 0.017608 0.201286
v 0.356984 0.017608 0.201231
v 0.356984 0.007940 0.201231
v 0.356771 0.007940 0.201286
v 0.356984 0.017608 0.201231
v 0.357188 0.017608 0.201157
v 0.357188 0.007940 0.201157
v 0.356984 0.007940 0.201231
v 0.357188 0.017608 0.201157
v 0.357383 0.017608 0.201063
v 0.357383 0.007940 0.201063
v 0.357188 0.007940 0.201157
v 0.357383 0.017608 0.201063
v 0.357568 0.017608 0.200950
v 0.357568 0.007940 0.200950
v 0.357383 0.007940 0.201063
v 0.357568 0.017608 0.200950
v 0.357743 0.017608 0.200817
v 0.357743 0.007940 0.200817
v 0.357568 0.007940 0.200950
v 0.357743 0.017608 0.200817
v 0.357910 0.017608 0.200666
v 0.357910 0.007940 0.200666
v 0.357743 0.007940 0.200817
v 0.357910 0.017608 0.200666
v 0.358013 0.017608 0.200556
v 0.358013 0.007940 0.200556
v 0.357910 0.007940 0.200666
v 0.358013 0.017608 0.200556
v 0.358085 0.017608 0.200471
v 0.358085 0.007940 0.200471
v 0.358013 0.007940 0.200556
v 0.358085 0.017608 0.200471
v 0.358215 0.017608 0.200293
v 0.358215 0.007940 0.200293
v 0.358085 0.007940 0.200471
v 0.358215 0.017608 0.200293
v 0.358325 0.017608 0.200107
v 0.358325 0.007940 0.200107
v 0.358215 0.007940 0.200293
v 0.358325 0.017608 0.200107
v 0.358415 0.017608 0.199911
v 0.358415 0.007940 0.199911
v 0.358325 0.007940 0.200107
v 0.358415 0.017608 0.199911
v 0.358486 0.017608 0.199705
v 0.358486 0.007940 0.199705
v 0.358415 0.007940 0.199911
v 0.358486 0.017608 0.199705
v 0.358538 0.017608 0.199491
v 0.358538 0.007940 0.199491
v 0.358486 0.007940 0.199705
v 0.358538 0.017608 0.199491
v 0.358570 0.017608 0.199266
v 0.358570 0.007940 0.199266
v 0.358538 0.007940 0.199491
v 0.358570 0.017608 0.199266
v 0.358584 0.017608 0.198994
v 0.358584 0.007940 0.198994
v 0.358570 0.007940 0.199266
v 0.358584 0.017608 0.198994
v 0.358584 0.017608 0.197596
v 0.358584 0.007940 0.197596
v 0.358584 0.007940 0.198994
v 0.358584 0.017608 0.197596
v 0.358579 0.017608 0.197438
v 0.358579 0.007940 0.197438
v 0.358584 0.007940 0.197596
v 0.358579 0.017608 0.197438
v 0.358566 0.017608 0.197285
v 0.358566 0.007940 0.197285
v 0.358579 0.007940 0.197438
v 0.358566 0.017608 0.197285
v 0.358531 0.017608 0.197063
v 0.358531 0.007940 0.197063
v 0.358566 0.007940 0.197285
v 0.358531 0.017608 0.197063
v 0.358476 0.017608 0.196849
v 0.358476 0.007940 0.196849
v 0.358531 0.007940 0.197063
v 0.358476 0.017608 0.196849
v 0.358401 0.017608 0.196645
v 0.358401 0.007940 0.196645
v 0.358476 0.007940 0.196849
v 0.358401 0.017608 0.196645
v 0.358308 0.017608 0.196451
v 0.358308 0.007940 0.196451
v 0.358401 0.007940 0.196645
v 0.358308 0.017608 0.196451
v 0.358194 0.017608 0.196266
v 0.358194 0.007940 0.196266
v 0.358308 0.007940 0.196451
v 0.358194 0.017608 0.196266
v 0.358062 0.017608 0.196091
v 0.358062 0.007940 0.196091
v 0.358194 0.007940 0.196266
v 0.358062 0.017608 0.196091
v 0.357910 0.017608 0.195924
v 0.357910 0.007940 0.195924
v 0.358062 0.007940 0.196091
v 0.357910 0.017608 0.195924
v 0.357800 0.017608 0.195820
v 0.357800 0.007940 0.195820
v 0.357910 0.007940 0.195924
v 0.357800 0.017608 0.195820
v 0.357715 0.017608 0.195748
v 0.357715 0.007940 0.195748
v 0.357800 0.007940 0.195820
v 0.357715 0.017608 0.195748
v 0.357537 0.017608 0.195619
v 0.357537 0.007940 0.195619
v 0.357715 0.007940 0.195748
v 0.357537 0.017608 0.195619
v 0.357351 0.017608 0.195509
v 0.357351 0.007940 0.195509
v 0.357537 0.007940 0.195619
v 0.357351 0.017608 0.195509
v 0.357155 0.017608 0.195419
v 0.357155 0.007940 0.195419
v 0.357351 0.007940 0.195509
v 0.357155 0.017608 0.195419
v 0.356950 0.017608 0.195348
v 0.356950 0.007940 0.195348
v 0.357155 0.007940 0.195419
v 0.356950 0.017608 0.195348
v 0.356735 0.017608 0.195296
v 0.356735 0.007940 0.195296
v 0.356950 0.007940 0.195348
v 0.356735 0.017608 0.195296
v 0.356511 0.017608 0.195264
v 0.356511 0.007940 0.195264
v 0.356735 0.007940 0.195296
v 0.356511 0.017608 0.195264
v 0.356238 0.017608 0.195250
v 0.356238 0.007940 0.195250
v 0.356511 0.007940 0.195264
v 0.356238 0.017608 0.195250
v 0.354840 0.017608 0.195250
v 0.354840 0.007940 0.195250
v 0.356238 0.007940 0.195250
v 0.354840 0.017608 0.195250
v 0.354683 0.017608 0.195255
v 0.354683 0.007940 0.195255
v 0.354840 0.007940 0.195250
v 0.354683 0.017608 0.195255
v 0.354529 0.017608 0.195267
v 0.354529 0.007940 0.195267
v 0.354683 0.007940 0.195255
v 0.354529 0.017608 0.195267
v 0.354307 0.017608 0.195303
v 0.354307 0.007940 0.195303
v 0.354529 0.007940 0.195267
v 0.354307 0.017608 0.195303
v 0.354094 0.017608 0.195358
v 0.354094 0.007940 0.195358
v 0.354307 0.007940 0.195303
v 0.354094 0.017608 0.195358
v 0.353890 0.017608 0.195432
v 0.353890 0.007940 0.195432
v 0.354094 0.007940 0.195358
v 0.353890 0.017608 0.195432
v 0.353695 0.017608 0.195526
v 0.353695 0.007940 0.195526
v 0.353890 0.007940 0.195432
v 0.353695 0.017608 0.195526
v 0.353510 0.017608 0.195640
v 0.353510 0.007940 0.195640
v 0.353695 0.007940 0.195526
v 0.353510 0.017608 0.195640
v 0.353335 0.017608 0.195772
v 0.353335 0.007940 0.195772
v 0.353510 0.007940 0.195640
v 0.353335 0.017608 0.195772
v 0.353168 0.017608 0.195924
v 0.353168 0.007940 0.195924
v 0.353335 0.007940 0.195772
v 0.353168 0.017608 0.195924
v 0.353065 0.017608 0.196034
v 0.353065 0.007940 0.196034
v 0.353168 0.007940 0.195924
v 0.353065 0.017608 0.196034
v 0.352993 0.017608 0.196119
v 0.352993 0.007940 0.196119
v 0.353065 0.007940 0.196034
v 0.352993 0.017608 0.196119
v 0.352863 0.017608 0.196296
v 0.352863 0.007940 0.196296
v 0.352993 0.007940 0.196119
v 0.352863 0.017608 0.196296
v 0.352753 0.017608 0.196483
v 0.352753 0.007940 0.196483
v 0.352863 0.007940 0.196296
v 0.352753 0.017608 0.196483
v 0.352663 0.017608 0.196679
v 0.352663 0.007940 0.196679
v 0.352753 0.007940 0.196483
v 0.352663 0.017608 0.196679
v 0.352592 0.017608 0.196884
v 0.352592 0.007940 0.196884
v 0.352663 0.007940 0.196679
v 0.352592 0.017608 0.196884
v 0.352540 0.017608 0.197099
v 0.352540 0.007940 0.197099
v 0.352592 0.007940 0.196884
v 0.352540 0.017608 0.197099
v 0.352508 0.017608 0.197323
v 0.352508 0.007940 0.197323
v 0.352540 0.007940 0.197099
v 0.352508 0.017608 0.197323
v 0.352494 0.017608 0.197596
v 0.352494 0.007940 0.197596
v 0.352508 0.007940 0.197323
vn -0.5427 0.6968 0.4690
vn -0.5826 -0.6974 0.4174
vn -0.5825 0.6977 0.4170
vn -0.5431 -0.6967 0.4687
vn -0.5074 0.7034 0.4977
vn -0.5612 0.6968 0.4466
vn -0.5210 0.6988 0.4901
vn -0.6355 0.6965 0.3333
vn -0.6003 0.6969 0.3924
vn -0.6871 0.6966 0.2065
vn -0.6648 0.6962 0.2706
vn -0.7101 0.6991 0.0833
vn -0.7029 0.6970 0.1419
vn -0.7149 0.6993 -0.0060
vn -0.7120 0.7011 0.0390
vn -0.7056 0.6964 -0.1310
vn -0.7146 0.6966 -0.0640
vn -0.6669 0.6960 -0.2660
vn -0.6898 0.6963 -0.1986
vn -0.6020 0.6965 -0.3905
vn -0.6374 0.6961 -0.3305
vn -0.5327 0.7005 -0.4749
vn -0.5649 0.6988 -0.4388
vn -0.4922 0.7021 -0.5147
vn -0.5091 0.7040 -0.4953
vn -0.4055 0.6960 -0.5926
vn -0.4590 0.6971 -0.5508
vn -0.2820 0.6959 -0.6604
vn -0.3458 0.6961 -0.6292
vn -0.1489 0.6963 -0.7021
vn -0.2154 0.6960 -0.6850
vn -0.0403 0.7006 -0.7125
vn -0.0881 0.6987 -0.7099
vn 0.0696 0.6966 -0.7141
vn 0.0077 0.6984 -0.7156
vn 0.2041 0.6960 -0.6885
vn 0.1371 0.6965 -0.7044
vn 0.3353 0.6964 -0.6345
vn 0.2717 0.6960 -0.6647
vn 0.4426 0.6993 -0.5613
vn 0.3960 0.6959 -0.5991
vn 0.4944 0.7038 -0.5100
vn 0.4751 0.7010 -0.5318
vn 0.5626 0.6966 -0.4452
vn 0.5223 0.6992 -0.4882
vn 0.6373 0.6964 -0.3299
vn 0.6025 0.6963 -0.3901
vn 0.6882 0.6966 -0.2029
vn 0.6659 0.6966 -0.2669
vn 0.7142 0.6967 -0.0673
vn 0.7048 0.6962 -0.1361
vn 0.7117 0.6966 0.0901
vn 0.7208 0.6930 0.0116
vn 0.6833 0.6965 0.2190
vn 0.7001 0.6970 0.1552
vn 0.6299 0.6964 0.3438
vn 0.6596 0.6965 0.2826
vn 0.5546 0.6962 0.4558
vn 0.5944 0.6971 0.4010
vn 0.4960 0.7044 0.5077
vn 0.5156 0.7017 0.4917
vn 0.4149 0.6961 0.5859
vn 0.4698 0.6966 0.5422
vn 0.2906 0.6961 0.6565
vn 0.3542 0.6961 0.6245
vn 0.1613 0.6970 0.6987
vn 0.2258 0.6968 0.6808
vn 0.0597 0.7011 0.7106
vn 0.1043 0.6989 0.7076
vn -0.0449 0.6967 0.7160
vn 0.0155 0.6990 0.7149
vn -0.1845 0.6955 0.6944
vn -0.1132 0.6962 0.7088
vn -0.3228 0.6957 0.6418
vn -0.2551 0.6954 0.6718
vn -0.4376 0.6980 0.5668
vn -0.3862 0.6959 0.6055
vn -0.4950 0.7037 0.5096
vn -0.4739 0.7007 0.5334
vn -0.5539 0.6963 0.4565
vn -0.5160 0.7017 0.4913
vn -0.6323 0.6965 0.3392
vn -0.5960 0.6962 0.4002
vn -0.6845 0.6967 0.2145
vn -0.6617 0.6966 0.2775
vn -0.7126 0.6964 0.0848
vn -0.7015 0.6966 0.1504
vn -0.7173 0.6963 -0.0255
vn -0.7133 0.7002 0.0303
vn -0.6998 0.6955 -0.1629
vn -0.7115 0.6965 -0.0931
vn -0.6538 0.6969 -0.2948
vn -0.6796 0.6960 -0.2316
vn -0.5891 0.6968 -0.4091
vn -0.6240 0.6970 -0.3532
vn -0.5143 0.7022 -0.4924
vn -0.5497 0.6971 -0.4603
vn -0.5077 0.7044 -0.4960
vn -0.5428 0.6966 0.4691
vn -0.5827 0.6975 0.4170
vn -0.6175 0.6971 0.3643
vn -0.5409 0.6966 -0.4713
vn -0.6481 0.6970 0.3070
vn -0.5832 0.6962 -0.4185
vn -0.6724 0.6976 0.2476
vn -0.6218 0.6960 -0.3591
vn -0.6554 0.6956 -0.2941
vn -0.6929 0.6966 0.1859
vn -0.6817 0.6961 -0.2252
vn -0.7079 0.6962 0.1187
vn -0.7013 0.6957 -0.1557
vn -0.7159 0.6965 0.0489
vn -0.7097 0.6984 -0.0926
vn -0.7128 0.7014 -0.0036
vn -0.7126 0.7003 -0.0428
vn -0.5074 0.7035 0.4976
vn -0.5073 -0.7036 0.4977
vn -0.5077 -0.7044 -0.4960
vn -0.5497 -0.6971 -0.4603
vn -0.5143 -0.7021 -0.4925
vn -0.6240 -0.6971 -0.3532
vn -0.5891 -0.6968 -0.4091
vn -0.6797 -0.6960 -0.2315
vn -0.6537 -0.6969 -0.2948
vn -0.7114 -0.6966 -0.0933
vn -0.6998 -0.6955 -0.1629
vn -0.7133 -0.7002 0.0305
vn -0.7173 -0.6963 -0.0255
vn -0.7014 -0.6967 0.1504
vn -0.7125 -0.6965 0.0848
vn -0.6617 -0.6966 0.2774
vn -0.6840 -0.6972 0.2145
vn -0.5960 -0.6961 0.4004
vn -0.6323 -0.6965 0.3392
vn -0.5160 -0.7017 0.4914
vn -0.5539 -0.6963 0.4564
vn -0.4738 -0.7007 0.5335
vn -0.4950 -0.7037 0.5096
vn -0.3860 -0.6959 0.6056
vn -0.4375 -0.6980 0.5669
vn -0.2552 -0.6954 0.6717
vn -0.3228 -0.6957 0.6418
vn -0.1132 -0.6962 0.7089
vn -0.1846 -0.6955 0.6944
vn 0.0155 -0.6990 0.7149
vn -0.0446 -0.6967 0.7160
vn 0.1043 -0.6989 0.7076
vn 0.0598 -0.7011 0.7106
vn 0.2258 -0.6968 0.6807
vn 0.1613 -0.6970 0.6986
vn 0.3544 -0.6960 0.6245
vn 0.2908 -0.6961 0.6564
vn 0.4699 -0.6966 0.5421
vn 0.4150 -0.6960 0.5860
vn 0.5156 -0.7018 0.4916
vn 0.4960 -0.7045 0.5075
vn 0.5945 -0.6970 0.4011
vn 0.5547 -0.6962 0.4557
vn 0.6594 -0.6965 0.2828
vn 0.6298 -0.6965 0.3438
vn 0.7001 -0.6970 0.1551
vn 0.6832 -0.6967 0.2187
vn 0.7208 -0.6930 0.0116
vn 0.7118 -0.6966 0.0900
vn 0.7048 -0.6963 -0.1361
vn 0.7142 -0.6967 -0.0673
vn 0.6659 -0.6966 -0.2669
vn 0.6881 -0.6966 -0.2030
vn 0.6024 -0.6963 -0.3901
vn 0.6376 -0.6960 -0.3303
vn 0.5223 -0.6993 -0.4881
vn 0.5625 -0.6967 -0.4452
vn 0.4750 -0.7011 -0.5317
vn 0.4943 -0.7038 -0.5101
vn 0.3960 -0.6959 -0.5990
vn 0.4427 -0.6993 -0.5612
vn 0.2713 -0.6960 -0.6648
vn 0.3354 -0.6964 -0.6345
vn 0.1373 -0.6964 -0.7044
vn 0.2040 -0.6960 -0.6885
vn 0.0077 -0.6984 -0.7156
vn 0.0696 -0.6966 -0.7140
vn -0.0879 -0.6986 -0.7101
vn -0.0403 -0.7004 -0.7126
vn -0.2153 -0.6960 -0.6850
vn -0.1489 -0.6963 -0.7021
vn -0.3458 -0.6963 -0.6289
vn -0.2820 -0.6958 -0.6605
vn -0.4589 -0.6972 -0.5508
vn -0.4056 -0.6960 -0.5926
vn -0.5091 -0.7040 -0.4953
vn -0.4922 -0.7020 -0.5147
vn -0.5649 -0.6989 -0.4388
vn -0.5326 -0.7005 -0.4750
vn -0.6374 -0.6960 -0.3306
vn -0.6023 -0.6964 -0.3903
vn -0.6898 -0.6963 -0.1986
vn -0.6669 -0.6961 -0.2660
vn -0.7146 -0.6966 -0.0640
vn -0.7056 -0.6964 -0.1310
vn -0.7121 -0.7010 0.0390
vn -0.7149 -0.6993 -0.0061
vn -0.7028 -0.6970 0.1420
vn -0.7101 -0.6991 0.0834
vn -0.6649 -0.6962 0.2706
vn -0.6871 -0.6966 0.2065
vn -0.6005 -0.6967 0.3925
vn -0.6355 -0.6964 0.3333
vn -0.5209 -0.6988 0.4901
vn -0.5615 -0.6967 0.4464
vn -0.5073 -0.7035 0.4977
vn -0.5409 -0.6966 -0.4713
vn -0.5831 -0.6962 -0.4186
vn -0.6219 -0.6959 -0.3592
vn -0.5432 -0.6966 0.4688
vn -0.6554 -0.6957 -0.2940
vn -0.5827 -0.6973 0.4175
vn -0.6817 -0.6961 -0.2252
vn -0.6176 -0.6970 0.3643
vn -0.6482 -0.6968 0.3071
vn -0.7013 -0.6957 -0.1557
vn -0.6724 -0.6976 0.2476
vn -0.7097 -0.6984 -0.0926
vn -0.6929 -0.6966 0.1858
vn -0.7126 -0.7003 -0.0428
vn -0.7079 -0.6962 0.1187
vn -0.7127 -0.7015 -0.0039
vn -0.7159 -0.6965 0.0489
vn -0.6175 -0.6971 0.3642
vn -0.6174 0.6972 0.3643
vn -0.6481 -0.6970 0.3069
vn -0.6479 0.6971 0.3070
vn -0.6176 -0.6971 0.3641
vn -0.6723 -0.6977 0.2476
vn -0.6722 0.6977 0.2477
vn -0.6481 -0.6970 0.3070
vn -0.6723 0.6977 0.2476
vn -0.6928 -0.6967 0.1858
vn -0.6928 0.6968 0.1858
vn -0.6723 -0.6977 0.2475
vn -0.7078 -0.6963 0.1186
vn -0.7078 0.6963 0.1187
vn -0.6928 -0.6968 0.1857
vn -0.7157 -0.6967 0.0489
vn -0.7158 0.6966 0.0490
vn -0.7078 -0.6964 0.1186
vn -0.7126 -0.7016 -0.0040
vn -0.7127 0.7015 -0.0037
vn -0.7157 -0.6966 0.0489
vn -0.7124 -0.7004 -0.0428
vn -0.7124 0.7004 -0.0427
vn -0.7124 0.7004 -0.0428
vn -0.7095 -0.6986 -0.0926
vn -0.7095 0.6986 -0.0925
vn -0.7124 -0.7004 -0.0429
vn -0.7095 0.6986 -0.0926
vn -0.7012 -0.6958 -0.1557
vn -0.7012 0.6958 -0.1556
vn -0.7095 -0.6986 -0.0927
vn -0.7012 0.6958 -0.1557
vn -0.6815 -0.6963 -0.2252
vn -0.6815 0.6963 -0.2252
vn -0.7011 -0.6958 -0.1558
vn -0.6553 -0.6958 -0.2940
vn -0.6554 0.6958 -0.2940
vn -0.6553 0.6958 -0.2941
vn -0.6218 -0.6961 -0.3590
vn -0.6217 0.6962 -0.3590
vn -0.6216 0.6962 -0.3590
vn -0.5831 -0.6964 -0.4184
vn -0.5831 0.6964 -0.4184
vn -0.6217 -0.6960 -0.3591
vn -0.5831 0.6964 -0.4185
vn -0.5408 -0.6968 -0.4712
vn -0.5408 0.6968 -0.4712
vn -0.5830 -0.6964 -0.4185
vn -0.5076 -0.7046 -0.4959
vn -0.5125 0.7046 -0.4908
vn -0.5407 -0.6968 -0.4713
vn -0.5077 0.7046 -0.4958
vn -0.5141 -0.7023 -0.4924
vn -0.5141 0.7023 -0.4924
vn -0.5017 -0.7046 -0.5018
vn -0.5142 0.7023 -0.4923
vn -0.5496 -0.6972 -0.4603
vn -0.5496 0.6972 -0.4603
vn -0.5142 -0.7023 -0.4924
vn -0.5496 0.6972 -0.4602
vn -0.5889 -0.6970 -0.4091
vn -0.5889 0.6970 -0.4091
vn -0.5496 -0.6972 -0.4602
vn -0.5890 0.6969 -0.4091
vn -0.6238 -0.6972 -0.3532
vn -0.6239 0.6972 -0.3531
vn -0.5890 -0.6970 -0.4090
vn -0.6536 -0.6971 -0.2948
vn -0.6536 0.6970 -0.2948
vn -0.6239 -0.6972 -0.3532
vn -0.6537 0.6970 -0.2947
vn -0.6795 -0.6962 -0.2315
vn -0.6795 0.6961 -0.2316
vn -0.6537 -0.6970 -0.2947
vn -0.6996 -0.6957 -0.1629
vn -0.6996 0.6957 -0.1629
vn -0.6996 0.6957 -0.1628
vn -0.7112 -0.6967 -0.0933
vn -0.7113 0.6967 -0.0931
vn -0.7113 0.6967 -0.0930
vn -0.7171 -0.6965 -0.0256
vn -0.7171 0.6965 -0.0256
vn -0.7112 -0.6967 -0.0932
vn -0.7171 0.6965 -0.0255
vn -0.7131 -0.7004 0.0305
vn -0.7131 0.7004 0.0302
vn -0.7171 -0.6965 -0.0255
vn -0.7131 0.7004 0.0304
vn -0.7124 -0.6967 0.0847
vn -0.7125 0.6966 0.0847
vn -0.7131 -0.7004 0.0306
vn -0.7125 0.6966 0.0848
vn -0.7012 -0.6969 0.1504
vn -0.7014 0.6967 0.1503
vn -0.7124 -0.6967 0.0848
vn -0.7014 0.6967 0.1504
vn -0.6839 -0.6973 0.2145
vn -0.6844 0.6969 0.2145
vn -0.6616 -0.6967 0.2773
vn -0.6616 0.6967 0.2774
vn -0.6616 0.6967 0.2775
vn -0.6322 -0.6967 0.3391
vn -0.6322 0.6967 0.3391
vn -0.6615 -0.6967 0.2775
vn -0.6321 0.6967 0.3392
vn -0.5959 -0.6962 0.4003
vn -0.5958 0.6963 0.4001
vn -0.6321 -0.6967 0.3392
vn -0.5958 0.6963 0.4002
vn -0.5538 -0.6965 0.4564
vn -0.5538 0.6964 0.4563
vn -0.5538 0.6965 0.4564
vn -0.5159 -0.7018 0.4912
vn -0.5159 0.7018 0.4912
vn -0.5537 -0.6965 0.4564
vn -0.5158 0.7018 0.4913
vn -0.4950 -0.7039 0.5095
vn -0.4950 0.7039 0.5095
vn -0.5158 -0.7018 0.4913
vn -0.4949 0.7039 0.5095
vn -0.4738 -0.7008 0.5333
vn -0.4738 0.7007 0.5334
vn -0.4950 -0.7038 0.5095
vn -0.4737 0.7008 0.5334
vn -0.4374 -0.6982 0.5667
vn -0.4375 0.6981 0.5668
vn -0.4738 -0.7007 0.5334
vn -0.4375 0.6982 0.5667
vn -0.3859 -0.6961 0.6054
vn -0.3860 0.6960 0.6054
vn -0.4374 -0.6981 0.5668
vn -0.3227 -0.6958 0.6417
vn -0.3227 0.6958 0.6417
vn -0.3227 0.6958 0.6416
vn -0.2552 -0.6956 0.6716
vn -0.2551 0.6956 0.6717
vn -0.3227 -0.6957 0.6417
vn -0.2550 0.6956 0.6717
vn -0.1846 -0.6957 0.6942
vn -0.1845 0.6957 0.6942
vn -0.2551 -0.6956 0.6716
vn -0.1132 -0.6963 0.7087
vn -0.1133 0.6963 0.7087
vn -0.1846 -0.6956 0.6943
vn -0.1132 0.6964 0.7087
vn -0.0445 -0.6969 0.7158
vn -0.0450 0.6968 0.7159
vn -0.0448 0.6968 0.7158
vn 0.0155 -0.6992 0.7148
vn 0.0155 0.6991 0.7148
vn -0.0444 -0.6968 0.7159
vn 0.0155 0.6992 0.7148
vn 0.0598 -0.7012 0.7105
vn 0.0597 0.7012 0.7105
vn 0.0155 -0.6991 0.7148
vn 0.1043 -0.6990 0.7075
vn 0.1043 0.6990 0.7075
vn 0.1613 -0.6971 0.6986
vn 0.1612 0.6972 0.6985
vn 0.1613 0.6971 0.6985
vn 0.2257 -0.6970 0.6807
vn 0.2257 0.6970 0.6806
vn 0.1613 -0.6972 0.6985
vn 0.2258 0.6970 0.6806
vn 0.2906 -0.6962 0.6563
vn 0.2905 0.6963 0.6563
vn 0.2258 -0.6970 0.6806
vn 0.3543 -0.6962 0.6244
vn 0.3542 0.6961 0.6244
vn 0.2907 -0.6962 0.6563
vn 0.3542 0.6962 0.6244
vn 0.4148 -0.6962 0.5859
vn 0.4148 0.6962 0.5859
vn 0.3542 -0.6962 0.6244
vn 0.4149 0.6962 0.5858
vn 0.4698 -0.6968 0.5421
vn 0.4697 0.6967 0.5421
vn 0.4149 -0.6962 0.5859
vn 0.4698 0.6968 0.5420
vn 0.4959 -0.7047 0.5075
vn 0.4893 0.7046 0.5140
vn 0.4698 -0.6967 0.5421
vn 0.4959 0.7045 0.5076
vn 0.5155 -0.7019 0.4916
vn 0.5154 0.7019 0.4916
vn 0.5017 -0.7047 0.5017
vn 0.5155 0.7019 0.4916
vn 0.5545 -0.6963 0.4557
vn 0.5546 0.6963 0.4557
vn 0.5944 -0.6971 0.4010
vn 0.5943 0.6972 0.4009
vn 0.5546 -0.6963 0.4556
vn 0.6297 -0.6966 0.3438
vn 0.6297 0.6966 0.3438
vn 0.5944 -0.6971 0.4009
vn 0.6298 0.6966 0.3437
vn 0.6593 -0.6967 0.2828
vn 0.6594 0.6967 0.2825
vn 0.6297 -0.6966 0.3437
vn 0.6595 0.6967 0.2824
vn 0.6830 -0.6969 0.2187
vn 0.6831 0.6967 0.2190
vn 0.6593 -0.6966 0.2828
vn 0.6832 0.6967 0.2189
vn 0.6999 -0.6972 0.1551
vn 0.6999 0.6972 0.1551
vn 0.6999 0.6971 0.1551
vn 0.7116 -0.6968 0.0900
vn 0.7116 0.6968 0.0901
vn 0.7000 -0.6972 0.1550
vn 0.7116 0.6967 0.0901
vn 0.7207 -0.6931 0.0116
vn 0.7207 0.6931 0.0116
vn 0.7140 -0.6969 -0.0672
vn 0.7140 0.6969 -0.0672
vn 0.7140 0.6969 -0.0674
vn 0.7047 -0.6964 -0.1360
vn 0.7047 0.6964 -0.1360
vn 0.7140 -0.6969 -0.0673
vn 0.7046 0.6964 -0.1361
vn 0.6880 -0.6968 -0.2030
vn 0.6880 0.6968 -0.2028
vn 0.7046 -0.6964 -0.1361
vn 0.6880 0.6967 -0.2029
vn 0.6658 -0.6968 -0.2668
vn 0.6658 0.6968 -0.2668
vn 0.6879 -0.6968 -0.2030
vn 0.6658 0.6968 -0.2669
vn 0.6375 -0.6962 -0.3301
vn 0.6371 0.6966 -0.3299
vn 0.6658 -0.6968 -0.2669
vn 0.6372 0.6966 -0.3299
vn 0.6024 -0.6965 -0.3900
vn 0.6024 0.6965 -0.3900
vn 0.6374 -0.6962 -0.3302
vn 0.6023 0.6964 -0.3901
vn 0.5624 -0.6968 -0.4451
vn 0.5625 0.6968 -0.4451
vn 0.6023 -0.6965 -0.3901
vn 0.5624 0.6968 -0.4452
vn 0.5221 -0.6994 -0.4881
vn 0.5222 0.6994 -0.4880
vn 0.5624 -0.6968 -0.4452
vn 0.4943 -0.7040 -0.5101
vn 0.4943 0.7040 -0.5100
vn 0.4750 -0.7013 -0.5316
vn 0.4751 0.7011 -0.5317
vn 0.4943 -0.7040 -0.5100
vn 0.4425 -0.6995 -0.5612
vn 0.4426 0.6995 -0.5611
vn 0.3960 -0.6960 -0.5989
vn 0.3959 0.6961 -0.5990
vn 0.4425 -0.6995 -0.5611
vn 0.3958 0.6960 -0.5990
vn 0.3353 -0.6965 -0.6344
vn 0.3353 0.6965 -0.6344
vn 0.3959 -0.6961 -0.5989
vn 0.2712 -0.6961 -0.6647
vn 0.2717 0.6961 -0.6645
vn 0.2717 0.6961 -0.6646
vn 0.2041 -0.6961 -0.6883
vn 0.2041 0.6961 -0.6883
vn 0.2711 -0.6962 -0.6647
vn 0.2040 0.6961 -0.6884
vn 0.1373 -0.6965 -0.7043
vn 0.1372 0.6966 -0.7042
vn 0.2040 -0.6961 -0.6883
vn 0.1371 0.6966 -0.7043
vn 0.0696 -0.6967 -0.7139
vn 0.0696 0.6967 -0.7139
vn 0.1373 -0.6966 -0.7042
vn 0.0696 0.6968 -0.7139
vn 0.0077 -0.6986 -0.7155
vn 0.0077 0.6985 -0.7155
vn -0.0402 -0.7006 -0.7125
vn -0.0403 0.7007 -0.7123
vn 0.0076 -0.6986 -0.7155
vn -0.0403 0.7006 -0.7124
vn -0.0879 -0.6987 -0.7100
vn -0.0880 0.6989 -0.7097
vn -0.0404 -0.7006 -0.7124
vn -0.0881 0.6989 -0.7098
vn -0.1488 -0.6964 -0.7020
vn -0.1488 0.6964 -0.7020
vn -0.0879 -0.6988 -0.7099
vn -0.1489 0.6964 -0.7020
vn -0.2153 -0.6961 -0.6849
vn -0.2153 0.6961 -0.6849
vn -0.1489 -0.6965 -0.7020
vn -0.2154 0.6961 -0.6848
vn -0.2820 -0.6960 -0.6604
vn -0.2819 0.6960 -0.6604
vn -0.2153 -0.6961 -0.6848
vn -0.2820 0.6960 -0.6603
vn -0.3457 -0.6965 -0.6288
vn -0.3457 0.6962 -0.6291
vn -0.2820 -0.6959 -0.6604
vn -0.3458 0.6963 -0.6290
vn -0.4054 -0.6961 -0.5925
vn -0.4054 0.6961 -0.5925
vn -0.3458 -0.6965 -0.6288
vn -0.4055 0.6961 -0.5925
vn -0.4588 -0.6973 -0.5507
vn -0.4589 0.6973 -0.5506
vn -0.4055 -0.6961 -0.5925
vn -0.4589 0.6973 -0.5507
vn -0.4921 -0.7022 -0.5146
vn -0.4920 0.7022 -0.5146
vn -0.4589 -0.6973 -0.5506
vn -0.4921 0.7022 -0.5146
vn -0.5090 -0.7041 -0.4952
vn -0.5020 0.7042 -0.5021
vn -0.4921 -0.7021 -0.5146
vn -0.5089 0.7041 -0.4952
vn -0.5325 -0.7006 -0.4749
vn -0.5325 0.7007 -0.4749
vn -0.5157 -0.7042 -0.4880
vn -0.5325 0.7007 -0.4748
vn -0.5647 -0.6990 -0.4387
vn -0.5647 0.6990 -0.4387
vn -0.5326 -0.7006 -0.4749
vn -0.5648 0.6990 -0.4386
vn -0.6021 -0.6965 -0.3903
vn -0.6018 0.6967 -0.3904
vn -0.5648 -0.6990 -0.4387
vn -0.6019 0.6967 -0.3903
vn -0.6373 -0.6961 -0.3306
vn -0.6372 0.6962 -0.3305
vn -0.6022 -0.6965 -0.3902
vn -0.6373 0.6962 -0.3304
vn -0.6668 -0.6962 -0.2660
vn -0.6668 0.6961 -0.2660
vn -0.6373 -0.6962 -0.3305
vn -0.6668 0.6961 -0.2659
vn -0.6896 -0.6964 -0.1986
vn -0.6896 0.6964 -0.1986
vn -0.6668 -0.6962 -0.2659
vn -0.6897 0.6964 -0.1985
vn -0.7054 -0.6966 -0.1310
vn -0.7054 0.6966 -0.1311
vn -0.6897 -0.6964 -0.1985
vn -0.7054 0.6966 -0.1310
vn -0.7144 -0.6968 -0.0641
vn -0.7144 0.6968 -0.0641
vn -0.7145 0.6968 -0.0640
vn -0.7147 -0.6994 -0.0060
vn -0.7147 0.6994 -0.0061
vn -0.7145 -0.6968 -0.0640
vn -0.7147 0.6994 -0.0060
vn -0.7119 -0.7012 0.0389
vn -0.7119 0.7012 0.0390
vn -0.7100 -0.6992 0.0834
vn -0.7100 0.6993 0.0833
vn -0.7119 -0.7012 0.0390
vn -0.7027 -0.6971 0.1420
vn -0.7027 0.6972 0.1419
vn -0.7100 -0.6993 0.0834
vn -0.6870 -0.6968 0.2064
vn -0.6870 0.6967 0.2064
vn -0.7027 -0.6972 0.1420
vn -0.6869 0.6968 0.2065
vn -0.6648 -0.6963 0.2705
vn -0.6647 0.6964 0.2706
vn -0.6869 -0.6968 0.2065
vn -0.6354 -0.6966 0.3332
vn -0.6354 0.6966 0.3333
vn -0.6353 0.6966 0.3333
vn -0.6004 -0.6968 0.3924
vn -0.6002 0.6971 0.3923
vn -0.5614 -0.6969 0.4464
vn -0.5612 0.6969 0.4465
vn -0.6004 -0.6968 0.3925
vn -0.5611 0.6970 0.4466
vn -0.5209 -0.6990 0.4900
vn -0.5209 0.6990 0.4900
vn -0.5613 -0.6969 0.4464
vn -0.5208 0.6990 0.4901
vn -0.5073 -0.7036 0.4976
vn -0.5208 -0.6990 0.4901
vn -0.7101 0.7040 0.0102
vn -0.7122 -0.7008 0.0399
vn -0.7122 0.7008 0.0398
vn -0.7101 -0.7040 0.0102
vn -0.7100 0.6988 0.0863
vn -0.7103 0.7039 0.0102
vn -0.7123 0.7007 0.0399
vn -0.7141 0.6966 -0.0689
vn -0.7125 0.7015 -0.0178
vn -0.6889 0.6964 -0.2013
vn -0.7044 0.6968 -0.1353
vn -0.6361 0.6959 -0.3332
vn -0.6660 0.6961 -0.2683
vn -0.5619 0.6991 -0.4422
vn -0.5998 0.6962 -0.3945
vn -0.5027 0.6982 -0.5098
vn -0.5321 0.7009 -0.4750
vn -0.4040 0.6963 -0.5932
vn -0.4582 0.6967 -0.5519
vn -0.2789 0.6960 -0.6616
vn -0.3437 0.6961 -0.6304
vn -0.1465 0.6966 -0.7023
vn -0.2127 0.6963 -0.6855
vn -0.0397 0.7008 -0.7122
vn -0.0865 0.6988 -0.7101
vn 0.0178 0.7015 -0.7125
vn -0.0104 0.7038 -0.7104
vn 0.1352 0.6964 -0.7048
vn 0.0686 0.6965 -0.7143
vn 0.2686 0.6960 -0.6659
vn 0.2020 0.6964 -0.6887
vn 0.3937 0.6962 -0.6003
vn 0.3332 0.6963 -0.6358
vn 0.4756 0.7009 -0.5315
vn 0.4421 0.6989 -0.5622
vn 0.5521 0.6968 -0.4578
vn 0.5099 0.6986 -0.5019
vn 0.6305 0.6958 -0.3440
vn 0.5930 0.6963 -0.4044
vn 0.6856 0.6961 -0.2133
vn 0.6613 0.6961 -0.2794
vn 0.7100 0.6989 -0.0863
vn 0.7025 0.6965 -0.1462
vn 0.7103 0.7039 -0.0102
vn 0.7123 0.7008 -0.0400
vn 0.7137 0.6971 0.0690
vn 0.7124 0.7016 0.0173
vn 0.6884 0.6966 0.2018
vn 0.7048 0.6963 0.1354
vn 0.6362 0.6959 0.3330
vn 0.6660 0.6961 0.2682
vn 0.5623 0.6991 0.4417
vn 0.5999 0.6960 0.3946
vn 0.5021 0.6986 0.5097
vn 0.5320 0.7012 0.4747
vn 0.4041 0.6962 0.5932
vn 0.4585 0.6967 0.5517
vn 0.2791 0.6962 0.6614
vn 0.3434 0.6960 0.6306
vn 0.1465 0.6966 0.7023
vn 0.2131 0.6962 0.6855
vn 0.0396 0.7006 0.7124
vn 0.0869 0.6987 0.7101
vn -0.0170 0.7017 0.7123
vn 0.0095 0.7041 0.7101
vn -0.1352 0.6964 0.7048
vn -0.0687 0.6965 0.7143
vn -0.2682 0.6961 0.6660
vn -0.2020 0.6964 0.6886
vn -0.3947 0.6959 0.5999
vn -0.3327 0.6959 0.6364
vn -0.4747 0.7012 0.5319
vn -0.4422 0.6991 0.5619
vn -0.5519 0.6967 0.4582
vn -0.5098 0.6982 0.5026
vn -0.6305 0.6959 0.3437
vn -0.5932 0.6963 0.4040
vn -0.6854 0.6962 0.2134
vn -0.6610 0.6965 0.2792
vn -0.7024 0.6965 0.1463
vn -0.7124 0.7016 -0.0178
vn -0.7124 -0.7016 -0.0177
vn -0.7142 -0.6965 -0.0688
vn -0.7103 -0.7039 0.0102
vn -0.7125 -0.7015 -0.0177
vn -0.7101 -0.6988 0.0863
vn -0.7123 -0.7007 0.0399
vn -0.6855 -0.6961 0.2134
vn -0.7025 -0.6965 0.1463
vn -0.6304 -0.6960 0.3438
vn -0.6614 -0.6960 0.2794
vn -0.5519 -0.6965 0.4585
vn -0.5932 -0.6964 0.4040
vn -0.4748 -0.7012 0.5318
vn -0.5098 -0.6985 0.5022
vn -0.3947 -0.6959 0.5999
vn -0.4418 -0.6991 0.5621
vn -0.2683 -0.6961 0.6660
vn -0.3327 -0.6960 0.6364
vn -0.1352 -0.6964 0.7048
vn -0.2020 -0.6964 0.6886
vn -0.0170 -0.7017 0.7123
vn -0.0687 -0.6965 0.7142
vn 0.0395 -0.7007 0.7124
vn 0.0095 -0.7040 0.7101
vn 0.1465 -0.6966 0.7023
vn 0.0869 -0.6987 0.7101
vn 0.2790 -0.6962 0.6614
vn 0.2130 -0.6962 0.6855
vn 0.4040 -0.6962 0.5934
vn 0.3434 -0.6960 0.6306
vn 0.5020 -0.6986 0.5099
vn 0.4584 -0.6967 0.5518
vn 0.5621 -0.6991 0.4419
vn 0.5320 -0.7012 0.4746
vn 0.6362 -0.6959 0.3330
vn 0.5994 -0.6963 0.3948
vn 0.6884 -0.6966 0.2018
vn 0.6660 -0.6961 0.2683
vn 0.7137 -0.6971 0.0690
vn 0.7048 -0.6963 0.1354
vn 0.7104 -0.7038 -0.0104
vn 0.7124 -0.7016 0.0176
vn 0.7098 -0.6991 -0.0860
vn 0.7123 -0.7007 -0.0399
vn 0.6857 -0.6959 -0.2135
vn 0.7025 -0.6965 -0.1462
vn 0.6305 -0.6957 -0.3440
vn 0.6612 -0.6962 -0.2793
vn 0.5518 -0.6967 -0.4584
vn 0.5930 -0.6964 -0.4041
vn 0.4752 -0.7011 -0.5317
vn 0.5099 -0.6986 -0.5019
vn 0.3940 -0.6962 -0.6000
vn 0.4421 -0.6989 -0.5622
vn 0.2685 -0.6961 -0.6659
vn 0.3332 -0.6962 -0.6359
vn 0.1352 -0.6964 -0.7048
vn 0.2016 -0.6962 -0.6889
vn 0.0182 -0.7013 -0.7126
vn 0.0688 -0.6966 -0.7142
vn -0.0398 -0.7008 -0.7122
vn -0.0103 -0.7038 -0.7103
vn -0.1464 -0.6966 -0.7023
vn -0.0865 -0.6988 -0.7101
vn -0.2794 -0.6960 -0.6614
vn -0.2130 -0.6962 -0.6855
vn -0.4042 -0.6963 -0.5931
vn -0.3438 -0.6959 -0.6305
vn -0.5023 -0.6985 -0.5098
vn -0.4582 -0.6968 -0.5519
vn -0.5618 -0.6991 -0.4422
vn -0.5320 -0.7012 -0.4746
vn -0.6358 -0.6962 -0.3333
vn -0.5998 -0.6962 -0.3946
vn -0.6886 -0.6964 -0.2020
vn -0.6659 -0.6960 -0.2686
vn -0.7044 -0.6967 -0.1353
vn -0.7122 0.7008 0.0399
vn -0.7099 -0.6990 0.0863
vn -0.7099 0.6990 0.0862
vn -0.7099 0.6990 0.0863
vn -0.7023 -0.6966 0.1463
vn -0.7023 0.6966 0.1463
vn -0.7099 -0.6990 0.0864
vn -0.7023 0.6967 0.1463
vn -0.6853 -0.6963 0.2133
vn -0.6854 0.6963 0.2132
vn -0.7023 -0.6967 0.1463
vn -0.6853 0.6963 0.2133
vn -0.6613 -0.6962 0.2793
vn -0.6609 0.6967 0.2791
vn -0.6853 -0.6963 0.2135
vn -0.6608 0.6967 0.2792
vn -0.6303 -0.6962 0.3437
vn -0.6304 0.6960 0.3436
vn -0.6613 -0.6962 0.2794
vn -0.6304 0.6960 0.3437
vn -0.5931 -0.6965 0.4040
vn -0.5931 0.6965 0.4039
vn -0.6302 -0.6962 0.3438
vn -0.5931 0.6965 0.4040
vn -0.5518 -0.6967 0.4584
vn -0.5518 0.6969 0.4581
vn -0.5930 -0.6965 0.4040
vn -0.5519 0.6969 0.4581
vn -0.5097 -0.6986 0.5022
vn -0.5097 0.6984 0.5025
vn -0.5517 -0.6967 0.4585
vn -0.5096 0.6984 0.5026
vn -0.4747 -0.7014 0.5317
vn -0.4746 0.7014 0.5318
vn -0.4746 0.7013 0.5319
vn -0.4418 -0.6992 0.5621
vn -0.4420 0.6993 0.5618
vn -0.4746 -0.7014 0.5317
vn -0.4421 0.6992 0.5618
vn -0.3946 -0.6961 0.5998
vn -0.3947 0.6961 0.5998
vn -0.4417 -0.6993 0.5621
vn -0.3327 -0.6961 0.6362
vn -0.3327 0.6961 0.6362
vn -0.3945 -0.6961 0.5999
vn -0.3326 0.6961 0.6363
vn -0.2682 -0.6962 0.6659
vn -0.2682 0.6962 0.6658
vn -0.2682 0.6962 0.6659
vn -0.2019 -0.6965 0.6885
vn -0.2020 0.6966 0.6885
vn -0.2682 -0.6962 0.6658
vn -0.2020 0.6965 0.6885
vn -0.1352 -0.6966 0.7046
vn -0.1353 0.6966 0.7046
vn -0.2020 -0.6965 0.6885
vn -0.1351 0.6965 0.7047
vn -0.0687 -0.6966 0.7142
vn -0.0687 0.6967 0.7141
vn -0.0687 0.6966 0.7142
vn -0.0170 -0.7018 0.7121
vn -0.0171 0.7019 0.7121
vn -0.0687 -0.6967 0.7141
vn -0.0170 0.7018 0.7121
vn 0.0095 -0.7042 0.7100
vn -0.0000 0.7042 0.7100
vn -0.0169 -0.7019 0.7121
vn 0.0095 0.7042 0.7100
vn 0.0395 -0.7008 0.7123
vn 0.0396 0.7008 0.7123
vn 0.0181 -0.7042 0.7097
vn 0.0869 -0.6989 0.7099
vn 0.0868 0.6989 0.7100
vn 0.0868 0.6989 0.7099
vn 0.1465 -0.6967 0.7022
vn 0.1465 0.6968 0.7022
vn 0.0870 -0.6989 0.7099
vn 0.1466 0.6967 0.7022
vn 0.2130 -0.6963 0.6854
vn 0.2129 0.6964 0.6853
vn 0.1465 -0.6968 0.7022
vn 0.2130 0.6964 0.6853
vn 0.2789 -0.6964 0.6613
vn 0.2790 0.6964 0.6612
vn 0.2130 -0.6964 0.6853
vn 0.3433 -0.6962 0.6305
vn 0.3433 0.6962 0.6305
vn 0.2790 -0.6964 0.6612
vn 0.3434 0.6962 0.6304
vn 0.4038 -0.6963 0.5933
vn 0.4041 0.6964 0.5931
vn 0.3434 -0.6962 0.6304
vn 0.4584 -0.6968 0.5517
vn 0.4583 0.6969 0.5517
vn 0.4038 -0.6964 0.5933
vn 0.4584 0.6969 0.5516
vn 0.5019 -0.6988 0.5097
vn 0.5020 0.6987 0.5097
vn 0.4584 -0.6968 0.5516
vn 0.5019 0.6988 0.5097
vn 0.5318 -0.7014 0.4746
vn 0.5318 0.7013 0.4747
vn 0.5020 -0.6987 0.5097
vn 0.5319 0.7013 0.4746
vn 0.5619 -0.6993 0.4418
vn 0.5621 0.6992 0.4417
vn 0.5319 -0.7014 0.4745
vn 0.5622 0.6993 0.4416
vn 0.5992 -0.6965 0.3948
vn 0.5998 0.6961 0.3946
vn 0.5620 -0.6993 0.4419
vn 0.5998 0.6962 0.3945
vn 0.6361 -0.6961 0.3330
vn 0.6362 0.6960 0.3330
vn 0.5993 -0.6965 0.3947
vn 0.6361 0.6961 0.3329
vn 0.6658 -0.6962 0.2683
vn 0.6659 0.6962 0.2682
vn 0.6361 -0.6960 0.3330
vn 0.6659 0.6962 0.2681
vn 0.6883 -0.6968 0.2018
vn 0.6883 0.6968 0.2018
vn 0.6658 -0.6962 0.2682
vn 0.6883 0.6968 0.2017
vn 0.7047 -0.6965 0.1354
vn 0.7047 0.6965 0.1354
vn 0.6884 -0.6968 0.2017
vn 0.7135 -0.6972 0.0690
vn 0.7135 0.6972 0.0690
vn 0.7047 -0.6965 0.1353
vn 0.7123 -0.7017 0.0175
vn 0.7122 0.7018 0.0173
vn 0.7122 0.7017 0.0173
vn 0.7102 -0.7039 -0.0104
vn 0.7101 0.7040 -0.0102
vn 0.7123 -0.7017 0.0174
vn 0.7122 -0.7008 -0.0399
vn 0.7122 0.7009 -0.0399
vn 0.7103 -0.7039 -0.0104
vn 0.7121 0.7009 -0.0400
vn 0.7097 -0.6992 -0.0859
vn 0.7099 0.6991 -0.0862
vn 0.7098 0.6991 -0.0863
vn 0.7024 -0.6967 -0.1462
vn 0.7024 0.6967 -0.1462
vn 0.7097 -0.6992 -0.0860
vn 0.7023 0.6967 -0.1462
vn 0.6856 -0.6960 -0.2135
vn 0.6855 0.6962 -0.2132
vn 0.7023 -0.6967 -0.1462
vn 0.6854 0.6962 -0.2133
vn 0.6611 -0.6964 -0.2793
vn 0.6613 0.6962 -0.2793
vn 0.6612 0.6962 -0.2794
vn 0.6304 -0.6959 -0.3440
vn 0.6304 0.6960 -0.3439
vn 0.5929 -0.6965 -0.4040
vn 0.5929 0.6965 -0.4043
vn 0.5928 0.6965 -0.4043
vn 0.5516 -0.6969 -0.4584
vn 0.5520 0.6970 -0.4577
vn 0.5929 -0.6966 -0.4040
vn 0.5098 -0.6988 -0.5018
vn 0.5097 0.6988 -0.5018
vn 0.5098 0.6988 -0.5018
vn 0.4752 -0.7012 -0.5315
vn 0.4756 0.7011 -0.5314
vn 0.5097 -0.6988 -0.5019
vn 0.4755 0.7011 -0.5314
vn 0.4420 -0.6991 -0.5620
vn 0.4421 0.6990 -0.5621
vn 0.4751 -0.7012 -0.5316
vn 0.4421 0.6991 -0.5620
vn 0.3940 -0.6963 -0.5999
vn 0.3937 0.6963 -0.6002
vn 0.4420 -0.6991 -0.5621
vn 0.3937 0.6963 -0.6001
vn 0.3332 -0.6963 -0.6357
vn 0.3331 0.6964 -0.6357
vn 0.3939 -0.6964 -0.5999
vn 0.2685 -0.6962 -0.6657
vn 0.2686 0.6962 -0.6657
vn 0.3331 -0.6963 -0.6358
vn 0.2685 0.6962 -0.6658
vn 0.2016 -0.6963 -0.6888
vn 0.2020 0.6965 -0.6885
vn 0.2019 0.6965 -0.6886
vn 0.1352 -0.6966 -0.7046
vn 0.1352 0.6966 -0.7046
vn 0.2015 -0.6963 -0.6889
vn 0.0688 -0.6967 -0.7141
vn 0.0686 0.6966 -0.7141
vn 0.0686 0.6967 -0.7141
vn 0.0182 -0.7015 -0.7124
vn 0.0178 0.7016 -0.7124
vn 0.0687 -0.6967 -0.7141
vn -0.0103 -0.7039 -0.7102
vn -0.0104 0.7039 -0.7102
vn 0.0181 -0.7015 -0.7125
vn -0.0397 -0.7010 -0.7121
vn -0.0396 0.7009 -0.7121
vn -0.0397 0.7010 -0.7121
vn -0.0864 -0.6989 -0.7100
vn -0.0864 0.6989 -0.7100
vn -0.0398 -0.7009 -0.7121
vn -0.0866 0.6989 -0.7100
vn -0.1463 -0.6968 -0.7022
vn -0.1465 0.6968 -0.7022
vn -0.0866 -0.6989 -0.7099
vn -0.1465 0.6967 -0.7022
vn -0.2130 -0.6964 -0.6853
vn -0.2127 0.6965 -0.6853
vn -0.1464 -0.6967 -0.7022
vn -0.2794 -0.6961 -0.6613
vn -0.2788 0.6962 -0.6615
vn -0.2789 0.6962 -0.6615
vn -0.3437 -0.6961 -0.6304
vn -0.3436 0.6962 -0.6303
vn -0.2794 -0.6962 -0.6613
vn -0.3437 0.6962 -0.6302
vn -0.4040 -0.6965 -0.5931
vn -0.4039 0.6964 -0.5932
vn -0.3438 -0.6960 -0.6303
vn -0.4040 0.6965 -0.5931
vn -0.4581 -0.6969 -0.5517
vn -0.4580 0.6968 -0.5520
vn -0.4041 -0.6964 -0.5931
vn -0.4581 0.6969 -0.5518
vn -0.5021 -0.6986 -0.5097
vn -0.5026 0.6983 -0.5097
vn -0.4582 -0.6969 -0.5517
vn -0.5318 -0.7014 -0.4746
vn -0.5319 0.7010 -0.4750
vn -0.5022 -0.6986 -0.5097
vn -0.5319 0.7011 -0.4749
vn -0.5617 -0.6993 -0.4422
vn -0.5617 0.6992 -0.4422
vn -0.5319 -0.7014 -0.4745
vn -0.5997 -0.6963 -0.3945
vn -0.5996 0.6963 -0.3945
vn -0.5617 -0.6993 -0.4421
vn -0.5997 0.6963 -0.3944
vn -0.6357 -0.6963 -0.3333
vn -0.6360 0.6961 -0.3332
vn -0.5997 -0.6963 -0.3944
vn -0.6657 -0.6962 -0.2686
vn -0.6658 0.6962 -0.2683
vn -0.6357 -0.6963 -0.3332
vn -0.6659 0.6962 -0.2683
vn -0.6885 -0.6965 -0.2020
vn -0.6888 0.6965 -0.2013
vn -0.6888 0.6965 -0.2012
vn -0.7043 -0.6969 -0.1353
vn -0.7043 0.6969 -0.1353
vn -0.7141 -0.6967 -0.0688
vn -0.7140 0.6967 -0.0689
vn -0.7140 0.6968 -0.0688
vn -0.7123 -0.7016 -0.0178
vn -0.7123 0.7016 -0.0178
vn -0.7141 -0.6967 -0.0687
vt 0.272204 0.448460
vt 0.275949 0.453231
vt 0.267081 0.443064
vt 0.016835 0.195213
vt 0.021739 0.200828
vt 0.008904 0.183089
vt 0.012557 0.189300
vt 0.003478 0.169772
vt 0.005878 0.176580
vt 0.000557 0.155263
vt 0.001704 0.162667
vt 0.000000 0.144928
vt 0.000139 0.150162
vt 0.001371 0.129564
vt 0.000343 0.137111
vt 0.005486 0.115273
vt 0.003086 0.122284
vt 0.012343 0.102055
vt 0.008571 0.108530
vt 0.020152 0.091861
vt 0.016800 0.095849
vt 0.089027 0.022774
vt 0.023810 0.087992
vt 0.100555 0.013154
vt 0.094642 0.017636
vt 0.113275 0.006158
vt 0.106766 0.009328
vt 0.127188 0.001786
vt 0.120083 0.003644
vt 0.139694 0.000146
vt 0.134592 0.000583
vt 0.154000 0.000446
vt 0.144928 0.000000
vt 0.168609 0.003289
vt 0.161453 0.001540
vt 0.182025 0.008754
vt 0.175466 0.005694
vt 0.194248 0.016844
vt 0.188286 0.012471
vt 0.200828 0.022774
vt 0.197118 0.019276
vt 0.626022 0.447659
vt 0.621118 0.442029
vt 0.633953 0.459902
vt 0.630301 0.453617
vt 0.639379 0.473458
vt 0.636979 0.466516
vt 0.642431 0.489623
vt 0.641153 0.480727
vt 0.642121 0.508327
vt 0.642857 0.498965
vt 0.638782 0.523433
vt 0.640779 0.516029
vt 0.632819 0.537346
vt 0.636128 0.530538
vt 0.624233 0.550066
vt 0.628854 0.543855
vt 0.197723 0.977226
vt 0.618012 0.556936
vt 0.187069 0.986468
vt 0.192575 0.982145
vt 0.174985 0.993325
vt 0.181206 0.990195
vt 0.161469 0.997797
vt 0.168406 0.995859
vt 0.149113 0.999702
vt 0.154175 0.999139
vt 0.136076 0.999891
vt 0.143892 1.000000
vt 0.121249 0.997525
vt 0.128528 0.999066
vt 0.107495 0.992298
vt 0.114238 0.995270
vt 0.094814 0.984209
vt 0.101020 0.988611
vt 0.086957 0.977226
vt 0.090826 0.980876
vt 0.018890 0.908667
vt 0.023810 0.914079
vt 0.010841 0.896682
vt 0.014567 0.902869
vt 0.005176 0.883147
vt 0.007710 0.890108
vt 0.001731 0.866734
vt 0.003238 0.875798
vt 0.000922 0.847551
vt 0.001035 0.857143
vt 0.002900 0.832337
vt 0.001568 0.839750
vt 0.007122 0.819752
vt 0.004917 0.825311
vt 0.012961 0.809441
vt 0.009803 0.814462
vt 0.020704 0.800207
vt 0.016594 0.804689
vt 0.263975 0.556936
vt 0.279218 0.458249
vt 0.269580 0.551072
vt 0.282011 0.463516
vt 0.274470 0.544911
vt 0.284328 0.469032
vt 0.278643 0.538451
vt 0.282102 0.531694
vt 0.286169 0.474796
vt 0.284845 0.524638
vt 0.287749 0.482041
vt 0.286872 0.517284
vt 0.288643 0.489643
vt 0.288184 0.509631
vt 0.288820 0.498965
vt 0.288661 0.504364
vt 0.000000 0.614754
vt 0.000708 0.640643
vt 0.002833 0.665849
vt 0.002169 0.340389
vt 0.000000 0.385246
vt 0.015979 0.268349
vt 0.007480 0.303602
vt 0.042536 0.202448
vt 0.027664 0.234631
vt 0.081841 0.142684
vt 0.060595 0.171798
vt 0.110656 0.110656
vt 0.093659 0.128702
vt 0.166839 0.063915
vt 0.137980 0.085692
vt 0.229161 0.029921
vt 0.197233 0.045325
vt 0.297620 0.008675
vt 0.262623 0.017705
vt 0.359357 0.000708
vt 0.334151 0.002833
vt 0.614754 0.000000
vt 0.385246 0.000000
vt 0.696398 0.007480
vt 0.659611 0.002169
vt 0.765369 0.027664
vt 0.731651 0.015979
vt 0.828202 0.060595
vt 0.797552 0.042536
vt 0.871298 0.093659
vt 0.857316 0.081841
vt 0.914308 0.137980
vt 0.889344 0.110656
vt 0.954675 0.197233
vt 0.936085 0.166839
vt 0.982295 0.262623
vt 0.970079 0.229161
vt 0.997167 0.334151
vt 0.991325 0.297620
vt 1.000000 0.385246
vt 0.999292 0.359357
vt 0.997831 0.659611
vt 1.000000 0.614754
vt 0.984021 0.731651
vt 0.992520 0.696398
vt 0.957464 0.797552
vt 0.972336 0.765369
vt 0.918159 0.857316
vt 0.939405 0.828202
vt 0.889344 0.889344
vt 0.906341 0.871298
vt 0.833161 0.936085
vt 0.862020 0.914308
vt 0.770839 0.970079
vt 0.802767 0.954675
vt 0.702380 0.991325
vt 0.737377 0.982295
vt 0.640643 0.999292
vt 0.665849 0.997167
vt 0.385246 1.000000
vt 0.614754 1.000000
vt 0.303602 0.992520
vt 0.340389 0.997831
vt 0.234631 0.972336
vt 0.268349 0.984021
vt 0.171798 0.939405
vt 0.202448 0.957464
vt 0.128702 0.906341
vt 0.142684 0.918159
vt 0.085692 0.862020
vt 0.110656 0.889344
vt 0.045325 0.802767
vt 0.063915 0.833161
vt 0.017705 0.737377
vt 0.029921 0.770839
vt 0.008675 0.702380
s 1
f 1/1/1 3/2/2 2/2/3
f 1/1/1 4/1/4 3/2/2
f 6/3/5 8/4/6 7/5/7
f 8/4/6 10/6/8 9/7/9
f 10/6/8 12/8/10 11/9/11
f 12/8/10 14/10/12 13/11/13
f 14/10/12 16/12/14 15/13/15
f 16/12/14 18/14/16 17/15/17
f 18/14/16 20/16/18 19/17/19
f 20/16/18 22/18/20 21/19/21
f 22/18/20 24/20/22 23/21/23
f 24/20/22 26/22/24 25/23/25
f 26/22/24 28/24/26 27/25/27
f 28/24/26 30/26/28 29/27/29
f 30/26/28 32/28/30 31/29/31
f 32/28/30 34/30/32 33/31/33
f 34/30/32 36/32/34 35/33/35
f 36/32/34 38/34/36 37/35/37
f 38/34/36 40/36/38 39/37/39
f 40/36/38 42/38/40 41/39/41
f 42/38/40 44/40/42 43/41/43
f 44/40/42 46/42/44 45/43/45
f 46/42/44 48/44/46 47/45/47
f 48/44/46 50/46/48 49/47/49
f 50/46/48 52/48/50 51/49/51
f 52/48/50 54/50/52 53/51/53
f 54/50/52 56/52/54 55/53/55
f 56/52/54 58/54/56 57/55/57
f 58/54/56 60/56/58 59/57/59
f 60/56/58 62/58/60 61/59/61
f 62/58/60 64/60/62 63/61/63
f 64/60/62 66/62/64 65/63/65
f 66/62/64 68/64/66 67/65/67
f 68/64/66 70/66/68 69/67/69
f 70/66/68 72/68/70 71/69/71
f 72/68/70 74/70/72 73/71/73
f 74/70/72 76/72/74 75/73/75
f 76/72/74 78/74/76 77/75/77
f 78/74/76 80/76/78 79/77/79
f 80/76/78 82/78/80 81/79/81
f 82/78/80 84/80/82 83/81/83
f 84/80/82 86/82/84 85/83/85
f 86/82/84 88/84/86 87/85/87
f 88/84/86 90/86/88 89/87/89
f 90/86/88 92/88/90 91/89/91
f 92/88/90 94/90/92 93/91/93
f 94/90/92 96/92/94 95/93/95
f 96/92/94 98/94/96 97/95/97
f 6/3/5 10/6/8 8/4/6
f 10/6/8 14/10/12 12/8/10
f 14/10/12 18/14/16 16/12/14
f 18/14/16 22/18/20 20/16/18
f 22/18/20 26/22/24 24/20/22
f 26/22/24 30/26/28 28/24/26
f 30/26/28 34/30/32 32/28/30
f 34/30/32 38/34/36 36/32/34
f 38/34/36 42/38/40 40/36/38
f 42/38/40 46/42/44 44/40/42
f 46/42/44 50/46/48 48/44/46
f 50/46/48 54/50/52 52/48/50
f 54/50/52 58/54/56 56/52/54
f 58/54/56 62/58/60 60/56/58
f 62/58/60 66/62/64 64/60/62
f 66/62/64 70/66/68 68/64/66
f 70/66/68 74/70/72 72/68/70
f 74/70/72 78/74/76 76/72/74
f 78/74/76 82/78/80 80/76/78
f 82/78/80 86/82/84 84/80/82
f 86/82/84 90/86/88 88/84/86
f 90/86/88 94/90/92 92/88/90
f 94/90/92 98/94/96 96/92/94
f 6/3/5 14/10/12 10/6/8
f 14/10/12 22/18/20 18/14/16
f 22/18/20 30/26/28 26/22/24
f 30/26/28 38/34/36 34/30/32
f 38/34/36 46/42/44 42/38/40
f 46/42/44 54/50/52 50/46/48
f 54/50/52 62/58/60 58/54/56
f 62/58/60 70/66/68 66/62/64
f 70/66/68 78/74/76 74/70/72
f 78/74/76 86/82/84 82/78/80
f 86/82/84 94/90/92 90/86/88
f 94/90/92 99/96/98 98/94/96
f 5/1/99 14/10/12 6/3/5
f 14/10/12 30/26/28 22/18/20
f 30/26/28 46/42/44 38/34/36
f 46/42/44 62/58/60 54/50/52
f 62/58/60 78/74/76 70/66/68
f 78/74/76 94/90/92 86/82/84
f 5/1/99 30/26/28 14/10/12
f 46/42/44 78/74/76 62/58/60
f 78/74/76 99/96/98 94/90/92
f 115/2/100 30/26/28 5/1/99
f 46/42/44 99/96/98 78/74/76
f 114/97/101 30/26/28 115/2/100
f 46/42/44 100/98/102 99/96/98
f 113/99/103 30/26/28 114/97/101
f 46/42/44 101/100/104 100/98/102
f 112/101/105 30/26/28 113/99/103
f 46/42/44 102/102/106 101/100/104
f 112/101/105 46/42/44 30/26/28
f 46/42/44 103/103/107 102/102/106
f 111/104/108 46/42/44 112/101/105
f 46/42/44 104/105/109 103/103/107
f 110/106/110 46/42/44 111/104/108
f 46/42/44 105/107/111 104/105/109
f 109/108/112 46/42/44 110/106/110
f 46/42/44 106/109/113 105/107/111
f 108/110/114 46/42/44 109/108/112
f 46/42/44 107/111/115 106/109/113
f 107/111/115 46/42/44 108/110/114
f 116/3/116 118/1/4 117/1/1
f 116/3/116 119/3/117 118/1/4
f 137/96/118 139/95/119 138/94/120
f 139/95/119 141/93/121 140/92/122
f 141/93/121 143/91/123 142/90/124
f 143/91/123 145/89/125 144/88/126
f 145/89/125 147/87/127 146/86/128
f 147/87/127 149/85/129 148/84/130
f 149/85/129 151/83/131 150/82/132
f 151/83/131 153/81/133 152/80/134
f 153/81/133 155/79/135 154/78/136
f 155/79/135 157/77/137 156/76/138
f 157/77/137 159/75/139 158/74/140
f 159/75/139 161/73/141 160/72/142
f 161/73/141 163/71/143 162/70/144
f 163/71/143 165/69/145 164/68/146
f 165/69/145 167/67/147 166/66/148
f 167/67/147 169/65/149 168/64/150
f 169/65/149 171/63/151 170/62/152
f 171/63/151 173/61/153 172/60/154
f 173/61/153 175/59/155 174/58/156
f 175/59/155 177/57/157 176/56/158
f 177/57/157 179/55/159 178/54/160
f 179/55/159 181/53/161 180/52/162
f 181/53/161 183/51/163 182/50/164
f 183/51/163 185/49/165 184/48/166
f 185/49/165 187/47/167 186/46/168
f 187/47/167 189/45/169 188/44/170
f 189/45/169 191/43/171 190/42/172
f 191/43/171 193/41/173 192/40/174
f 193/41/173 195/39/175 194/38/176
f 195/39/175 197/37/177 196/36/178
f 197/37/177 199/35/179 198/34/180
f 199/35/179 201/33/181 200/32/182
f 201/33/181 203/31/183 202/30/184
f 203/31/183 205/29/185 204/28/186
f 205/29/185 207/27/187 206/26/188
f 207/27/187 209/25/189 208/24/190
f 209/25/189 211/23/191 210/22/192
f 211/23/191 213/21/193 212/20/194
f 213/21/193 215/19/195 214/18/196
f 215/19/195 217/17/197 216/16/198
f 217/17/197 219/15/199 218/14/200
f 219/15/199 221/13/201 220/12/202
f 221/13/201 223/11/203 222/10/204
f 223/11/203 225/9/205 224/8/206
f 225/9/205 227/7/207 226/6/208
f 227/7/207 229/5/209 228/4/210
f 137/96/118 141/93/121 139/95/119
f 141/93/121 145/89/125 143/91/123
f 145/89/125 149/85/129 147/87/127
f 149/85/129 153/81/133 151/83/131
f 153/81/133 157/77/137 155/79/135
f 157/77/137 161/73/141 159/75/139
f 161/73/141 165/69/145 163/71/143
f 165/69/145 169/65/149 167/67/147
f 169/65/149 173/61/153 171/63/151
f 173/61/153 177/57/157 175/59/155
f 177/57/157 181/53/161 179/55/159
f 181/53/161 185/49/165 183/51/163
f 185/49/165 189/45/169 187/47/167
f 189/45/169 193/41/173 191/43/171
f 193/41/173 197/37/177 195/39/175
f 197/37/177 201/33/181 199/35/179
f 201/33/181 205/29/185 203/31/183
f 205/29/185 209/25/189 207/27/187
f 209/25/189 213/21/193 211/23/191
f 213/21/193 217/17/197 215/19/195
f 217/17/197 221/13/201 219/15/199
f 221/13/201 225/9/205 223/11/203
f 225/9/205 229/5/209 227/7/207
f 137/96/118 145/89/125 141/93/121
f 145/89/125 153/81/133 149/85/129
f 153/81/133 161/73/141 157/77/137
f 161/73/141 169/65/149 165/69/145
f 169/65/149 177/57/157 173/61/153
f 177/57/157 185/49/165 181/53/161
f 185/49/165 193/41/173 189/45/169
f 193/41/173 201/33/181 197/37/177
f 201/33/181 209/25/189 205/29/185
f 209/25/189 217/17/197 213/21/193
f 217/17/197 225/9/205 221/13/201
f 225/9/205 230/3/211 229/5/209
f 136/98/212 145/89/125 137/96/118
f 145/89/125 161/73/141 153/81/133
f 161/73/141 177/57/157 169/65/149
f 177/57/157 193/41/173 185/49/165
f 193/41/173 209/25/189 201/33/181
f 209/25/189 225/9/205 217/17/197
f 136/98/212 161/73/141 145/89/125
f 177/57/157 209/25/189 193/41/173
f 209/25/189 230/3/211 225/9/205
f 135/100/213 161/73/141 136/98/212
f 177/57/157 230/3/211 209/25/189
f 134/102/214 161/73/141 135/100/213
f 177/57/157 120/1/215 230/3/211
f 133/103/216 161/73/141 134/102/214
f 177/57/157 121/2/217 120/1/215
f 132/105/218 161/73/141 133/103/216
f 177/57/157 122/97/219 121/2/217
f 132/105/218 177/57/157 161/73/141
f 177/57/157 123/99/220 122/97/219
f 131/107/221 177/57/157 132/105/218
f 177/57/157 124/101/222 123/99/220
f 130/109/223 177/57/157 131/107/221
f 177/57/157 125/104/224 124/101/222
f 129/111/225 177/57/157 130/109/223
f 177/57/157 126/106/226 125/104/224
f 128/110/227 177/57/157 129/111/225
f 177/57/157 127/108/228 126/106/226
f 127/108/228 177/57/157 128/110/227
f 231/2/3 233/97/229 232/97/230
f 231/2/3 234/2/2 233/97/229
f 235/97/230 237/99/231 236/99/232
f 235/97/230 238/97/233 237/99/231
f 239/99/232 241/101/234 240/101/235
f 239/99/232 242/99/236 241/101/234
f 243/101/237 245/104/238 244/104/239
f 243/101/237 246/101/240 245/104/238
f 247/104/239 249/106/241 248/106/242
f 247/104/239 250/104/243 249/106/241
f 251/106/242 253/108/244 252/108/245
f 251/106/242 254/106/246 253/108/244
f 255/108/245 257/110/247 256/110/248
f 255/108/245 258/108/249 257/110/247
f 259/110/248 261/111/250 260/111/251
f 259/110/248 262/110/247 261/111/250
f 263/111/252 265/109/253 264/109/254
f 263/111/252 266/111/255 265/109/253
f 267/109/256 269/107/257 268/107/258
f 267/109/256 270/109/259 269/107/257
f 271/107/260 273/105/261 272/105/262
f 271/107/260 274/107/263 273/105/261
f 275/105/262 277/103/264 276/103/265
f 275/105/262 278/105/261 277/103/264
f 279/103/266 281/102/267 280/102/268
f 279/103/266 282/103/264 281/102/267
f 283/102/269 285/100/270 284/100/271
f 283/102/269 286/102/272 285/100/270
f 287/100/273 289/98/274 288/98/275
f 287/100/273 290/100/276 289/98/274
f 291/98/275 293/96/277 292/96/278
f 291/98/275 294/98/279 293/96/277
f 295/96/280 297/94/281 296/94/282
f 295/96/280 298/96/283 297/94/281
f 299/94/284 301/95/285 300/95/286
f 299/94/284 302/94/287 301/95/285
f 303/95/288 305/92/289 304/92/290
f 303/95/288 306/95/291 305/92/289
f 307/92/292 309/93/293 308/93/294
f 307/92/292 310/92/295 309/93/293
f 311/93/294 313/90/296 312/90/297
f 311/93/294 314/93/298 313/90/296
f 315/90/299 317/91/300 316/91/301
f 315/90/299 318/90/302 317/91/300
f 319/91/301 321/88/303 320/88/304
f 319/91/301 322/91/300 321/88/303
f 323/88/305 325/89/306 324/89/307
f 323/88/305 326/88/303 325/89/306
f 327/89/308 329/86/309 328/86/310
f 327/89/308 330/89/311 329/86/309
f 331/86/312 333/87/313 332/87/314
f 331/86/312 334/86/315 333/87/313
f 335/87/316 337/84/317 336/84/318
f 335/87/316 338/87/319 337/84/317
f 339/84/320 341/85/321 340/85/322
f 339/84/320 342/84/323 341/85/321
f 343/85/324 345/82/325 344/82/326
f 343/85/324 346/85/321 345/82/325
f 347/82/326 349/83/327 348/83/328
f 347/82/326 350/82/325 349/83/327
f 351/83/329 353/80/330 352/80/331
f 351/83/329 354/83/332 353/80/330
f 355/80/333 357/81/334 356/81/335
f 355/80/333 358/80/336 357/81/334
f 359/81/337 361/78/338 360/78/339
f 359/81/337 362/81/334 361/78/338
f 363/78/340 365/79/341 364/79/342
f 363/78/340 366/78/343 365/79/341
f 367/79/344 369/76/345 368/76/346
f 367/79/344 370/79/347 369/76/345
f 371/76/348 373/77/349 372/77/350
f 371/76/348 374/76/351 373/77/349
f 375/77/352 377/74/353 376/74/354
f 375/77/352 378/77/355 377/74/353
f 379/74/356 381/75/357 380/75/358
f 379/74/356 382/74/359 381/75/357
f 383/75/358 385/72/360 384/72/361
f 383/75/358 386/75/357 385/72/360
f 387/72/362 389/73/363 388/73/364
f 387/72/362 390/72/365 389/73/363
f 391/73/366 393/70/367 392/70/368
f 391/73/366 394/73/369 393/70/367
f 395/70/368 397/71/370 396/71/371
f 395/70/368 398/70/372 397/71/370
f 399/71/373 401/68/374 400/68/375
f 399/71/373 402/71/370 401/68/374
f 403/68/376 405/69/377 404/69/378
f 403/68/376 406/68/379 405/69/377
f 407/69/380 409/66/381 408/66/382
f 407/69/380 410/69/383 409/66/381
f 411/66/382 413/67/384 412/67/385
f 411/66/382 414/66/381 413/67/384
f 415/67/385 417/64/386 416/64/387
f 415/67/385 418/67/384 417/64/386
f 419/64/388 421/65/389 420/65/390
f 419/64/388 422/64/391 421/65/389
f 423/65/392 425/62/393 424/62/394
f 423/65/392 426/65/395 425/62/393
f 427/62/394 429/63/396 428/63/397
f 427/62/394 430/62/398 429/63/396
f 431/63/399 433/60/400 432/60/401
f 431/63/399 434/63/402 433/60/400
f 435/60/403 437/61/404 436/61/405
f 435/60/403 438/60/406 437/61/404
f 439/61/407 441/58/408 440/58/409
f 439/61/407 442/61/410 441/58/408
f 443/58/411 445/59/412 444/59/413
f 443/58/411 446/58/414 445/59/412
f 447/59/415 449/56/416 448/56/417
f 447/59/415 450/59/412 449/56/416
f 451/56/417 453/57/418 452/57/419
f 451/56/417 454/56/420 453/57/418
f 455/57/419 457/54/421 456/54/422
f 455/57/419 458/57/423 457/54/421
f 459/54/424 461/55/425 460/55/426
f 459/54/424 462/54/427 461/55/425
f 463/55/428 465/52/429 464/52/430
f 463/55/428 466/55/431 465/52/429
f 467/52/432 469/53/433 468/53/434
f 467/52/432 470/52/429 469/53/433
f 471/53/435 473/50/436 472/50/437
f 471/53/435 474/53/438 473/50/436
f 475/50/439 477/51/440 476/51/441
f 475/50/439 478/50/436 477/51/440
f 479/51/441 481/48/442 480/48/443
f 479/51/441 482/51/440 481/48/442
f 483/48/444 485/49/445 484/49/446
f 483/48/444 486/48/447 485/49/445
f 487/49/448 489/46/449 488/46/450
f 487/49/448 490/49/451 489/46/449
f 491/46/452 493/47/453 492/47/454
f 491/46/452 494/46/455 493/47/453
f 495/47/456 497/44/457 496/44/458
f 495/47/456 498/47/459 497/44/457
f 499/44/460 501/45/461 500/45/462
f 499/44/460 502/44/463 501/45/461
f 503/45/464 505/42/465 504/42/466
f 503/45/464 506/45/467 505/42/465
f 507/42/468 509/43/469 508/43/470
f 507/42/468 510/42/471 509/43/469
f 511/43/470 513/40/472 512/40/473
f 511/43/470 514/43/469 513/40/472
f 515/40/473 517/41/474 516/41/475
f 515/40/473 518/40/476 517/41/474
f 519/41/475 521/38/477 520/38/478
f 519/41/475 522/41/474 521/38/477
f 523/38/478 525/39/479 524/39/480
f 523/38/478 526/38/481 525/39/479
f 527/39/482 529/36/483 528/36/484
f 527/39/482 530/39/485 529/36/483
f 531/36/484 533/37/486 532/37/487
f 531/36/484 534/36/483 533/37/486
f 535/37/488 537/34/489 536/34/490
f 535/37/488 538/37/491 537/34/489
f 539/34/492 541/35/493 540/35/494
f 539/34/492 542/34/495 541/35/493
f 543/35/496 545/32/497 544/32/498
f 543/35/496 546/35/499 545/32/497
f 547/32/500 549/33/501 548/33/502
f 547/32/500 550/32/497 549/33/501
f 551/33/502 553/30/503 552/30/504
f 551/33/502 554/33/505 553/30/503
f 555/30/506 557/31/507 556/31/508
f 555/30/506 558/30/509 557/31/507
f 559/31/510 561/28/511 560/28/512
f 559/31/510 562/31/513 561/28/511
f 563/28/514 565/29/515 564/29/516
f 563/28/514 566/28/517 565/29/515
f 567/29/518 569/26/519 568/26/520
f 567/29/518 570/29/521 569/26/519
f 571/26/522 573/27/523 572/27/524
f 571/26/522 574/26/525 573/27/523
f 575/27/526 577/24/527 576/24/528
f 575/27/526 578/27/529 577/24/527
f 579/24/530 581/25/531 580/25/532
f 579/24/530 582/24/533 581/25/531
f 583/25/534 585/22/535 584/22/536
f 583/25/534 586/25/537 585/22/535
f 587/22/538 589/23/539 588/23/540
f 587/22/538 590/22/541 589/23/539
f 591/23/542 593/20/543 592/20/544
f 591/23/542 594/23/545 593/20/543
f 595/20/546 597/21/547 596/21/548
f 595/20/546 598/20/549 597/21/547
f 599/21/550 601/18/551 600/18/552
f 599/21/550 602/21/553 601/18/551
f 603/18/554 605/19/555 604/19/556
f 603/18/554 606/18/557 605/19/555
f 607/19/558 609/16/559 608/16/560
f 607/19/558 610/19/561 609/16/559
f 611/16/562 613/17/563 612/17/564
f 611/16/562 614/16/565 613/17/563
f 615/17/566 617/14/567 616/14/568
f 615/17/566 618/17/569 617/14/567
f 619/14/570 621/15/571 620/15/572
f 619/14/570 622/14/567 621/15/571
f 623/15/573 625/12/574 624/12/575
f 623/15/573 626/15/576 625/12/574
f 627/12/577 629/13/578 628/13/579
f 627/12/577 630/12/574 629/13/578
f 631/13/579 633/10/580 632/10/581
f 631/13/579 634/13/582 633/10/580
f 635/10/581 637/11/583 636/11/584
f 635/10/581 638/10/585 637/11/583
f 639/11/584 641/8/586 640/8/587
f 639/11/584 642/11/588 641/8/586
f 643/8/589 645/9/590 644/9/591
f 643/8/589 646/8/592 645/9/590
f 647/9/591 649/6/593 648/6/594
f 647/9/591 650/9/590 649/6/593
f 651/6/595 653/7/596 652/7/597
f 651/6/595 654/6/593 653/7/596
f 655/7/597 657/4/598 656/4/599
f 655/7/597 658/7/600 657/4/598
f 659/4/601 661/5/602 660/5/603
f 659/4/601 662/4/604 661/5/602
f 663/5/605 665/3/606 664/3/116
f 663/5/605 666/5/607 665/3/606
f 667/112/608 669/113/609 668/113/610
f 667/112/608 670/112/611 669/113/609
f 745/114/612 671/112/613 746/113/614
f 671/112/613 673/115/615 672/116/616
f 673/115/615 675/117/617 674/118/618
f 675/117/617 677/119/619 676/120/620
f 677/119/619 679/121/621 678/122/622
f 679/121/621 681/123/623 680/124/624
f 681/123/623 683/125/625 682/126/626
f 683/125/625 685/127/627 684/128/628
f 685/127/627 687/129/629 686/130/630
f 687/129/629 689/131/631 688/132/632
f 689/131/631 691/133/633 690/134/634
f 691/133/633 693/135/635 692/136/636
f 693/135/635 695/137/637 694/138/638
f 695/137/637 697/139/639 696/140/640
f 697/139/639 699/141/641 698/142/642
f 699/141/641 701/143/643 700/144/644
f 701/143/643 703/145/645 702/146/646
f 703/145/645 705/147/647 704/148/648
f 705/147/647 707/149/649 706/150/650
f 707/149/649 709/151/651 708/152/652
f 709/151/651 711/153/653 710/154/654
f 711/153/653 713/155/655 712/156/656
f 713/155/655 715/157/657 714/158/658
f 715/157/657 717/159/659 716/160/660
f 717/159/659 719/161/661 718/162/662
f 719/161/661 721/163/663 720/164/664
f 721/163/663 723/165/665 722/166/666
f 723/165/665 725/167/667 724/168/668
f 725/167/667 727/169/669 726/170/670
f 727/169/669 729/171/671 728/172/672
f 729/171/671 731/173/673 730/174/674
f 731/173/673 733/175/675 732/176/676
f 733/175/675 735/177/677 734/178/678
f 735/177/677 737/179/679 736/180/680
f 737/179/679 739/181/681 738/182/682
f 739/181/681 741/183/683 740/184/684
f 741/183/683 743/185/685 742/186/686
f 743/185/685 745/114/612 744/187/687
f 745/114/612 673/115/615 671/112/613
f 673/115/615 677/119/619 675/117/617
f 677/119/619 681/123/623 679/121/621
f 681/123/623 685/127/627 683/125/625
f 685/127/627 689/131/631 687/129/629
f 689/131/631 693/135/635 691/133/633
f 693/135/635 697/139/639 695/137/637
f 697/139/639 701/143/643 699/141/641
f 701/143/643 705/147/647 703/145/645
f 705/147/647 709/151/651 707/149/649
f 709/151/651 713/155/655 711/153/653
f 713/155/655 717/159/659 715/157/657
f 717/159/659 721/163/663 719/161/661
f 721/163/663 725/167/667 723/165/665
f 725/167/667 729/171/671 727/169/669
f 729/171/671 733/175/675 731/173/673
f 733/175/675 737/179/679 735/177/677
f 737/179/679 741/183/683 739/181/681
f 741/183/683 745/114/612 743/185/685
f 745/114/612 677/119/619 673/115/615
f 677/119/619 685/127/627 681/123/623
f 685/127/627 693/135/635 689/131/631
f 693/135/635 701/143/643 697/139/639
f 701/143/643 709/151/651 705/147/647
f 709/151/651 717/159/659 713/155/655
f 717/159/659 725/167/667 721/163/663
f 725/167/667 733/175/675 729/171/671
f 733/175/675 741/183/683 737/179/679
f 741/183/683 677/119/619 745/114/612
f 677/119/619 693/135/635 685/127/627
f 693/135/635 709/151/651 701/143/643
f 709/151/651 725/167/667 717/159/659
f 725/167/667 741/183/683 733/175/675
f 741/183/683 693/135/635 677/119/619
f 693/135/635 725/167/667 709/151/651
f 725/167/667 693/135/635 741/183/683
f 747/116/688 749/112/611 748/112/608
f 747/116/688 750/116/689 749/112/611
f 825/115/690 751/112/691 826/116/692
f 751/112/691 753/114/693 752/113/694
f 753/114/693 755/185/695 754/187/696
f 755/185/695 757/183/697 756/186/698
f 757/183/697 759/181/699 758/184/700
f 759/181/699 761/179/701 760/182/702
f 761/179/701 763/177/703 762/180/704
f 763/177/703 765/175/705 764/178/706
f 765/175/705 767/173/707 766/176/708
f 767/173/707 769/171/709 768/174/710
f 769/171/709 771/169/711 770/172/712
f 771/169/711 773/167/713 772/170/714
f 773/167/713 775/165/715 774/168/716
f 775/165/715 777/163/717 776/166/718
f 777/163/717 779/161/719 778/164/720
f 779/161/719 781/159/721 780/162/722
f 781/159/721 783/157/723 782/160/724
f 783/157/723 785/155/725 784/158/726
f 785/155/725 787/153/727 786/156/728
f 787/153/727 789/151/729 788/154/730
f 789/151/729 791/149/731 790/152/732
f 791/149/731 793/147/733 792/150/734
f 793/147/733 795/145/735 794/148/736
f 795/145/735 797/143/737 796/146/738
f 797/143/737 799/141/739 798/144/740
f 799/141/739 801/139/741 800/142/742
f 801/139/741 803/137/743 802/140/744
f 803/137/743 805/135/745 804/138/746
f 805/135/745 807/133/747 806/136/748
f 807/133/747 809/131/749 808/134/750
f 809/131/749 811/129/751 810/132/752
f 811/129/751 813/127/753 812/130/754
f 813/127/753 815/125/755 814/128/756
f 815/125/755 817/123/757 816/126/758
f 817/123/757 819/121/759 818/124/760
f 819/121/759 821/119/761 820/122/762
f 821/119/761 823/117/763 822/120/764
f 823/117/763 825/115/690 824/118/765
f 825/115/690 753/114/693 751/112/691
f 753/114/693 757/183/697 755/185/695
f 757/183/697 761/179/701 759/181/699
f 761/179/701 765/175/705 763/177/703
f 765/175/705 769/171/709 767/173/707
f 769/171/709 773/167/713 771/169/711
f 773/167/713 777/163/717 775/165/715
f 777/163/717 781/159/721 779/161/719
f 781/159/721 785/155/725 783/157/723
f 785/155/725 789/151/729 787/153/727
f 789/151/729 793/147/733 791/149/731
f 793/147/733 797/143/737 795/145/735
f 797/143/737 801/139/741 799/141/739
f 801/139/741 805/135/745 803/137/743
f 805/135/745 809/131/749 807/133/747
f 809/131/749 813/127/753 811/129/751
f 813/127/753 817/123/757 815/125/755
f 817/123/757 821/119/761 819/121/759
f 821/119/761 825/115/690 823/117/763
f 825/115/690 757/183/697 753/114/693
f 757/183/697 765/175/705 761/179/701
f 765/175/705 773/167/713 769/171/709
f 773/167/713 781/159/721 777/163/717
f 781/159/721 789/151/729 785/155/725
f 789/151/729 797/143/737 793/147/733
f 797/143/737 805/135/745 801/139/741
f 805/135/745 813/127/753 809/131/749
f 813/127/753 821/119/761 817/123/757
f 821/119/761 757/183/697 825/115/690
f 757/183/697 773/167/713 765/175/705
f 773/167/713 789/151/729 781/159/721
f 789/151/729 805/135/745 797/143/737
f 805/135/745 821/119/761 813/127/753
f 821/119/761 773/167/713 757/183/697
f 773/167/713 805/135/745 789/151/729
f 805/135/745 773/167/713 821/119/761
f 827/113/766 829/114/767 828/114/768
f 827/113/766 830/113/609 829/114/767
f 831/114/769 833/187/770 832/187/771
f 831/114/769 834/114/772 833/187/770
f 835/187/773 837/185/774 836/185/775
f 835/187/773 838/187/776 837/185/774
f 839/185/777 841/186/778 840/186/779
f 839/185/777 842/185/780 841/186/778
f 843/186/781 845/183/782 844/183/783
f 843/186/781 846/186/784 845/183/782
f 847/183/785 849/184/786 848/184/787
f 847/183/785 850/183/788 849/184/786
f 851/184/789 853/181/790 852/181/791
f 851/184/789 854/184/792 853/181/790
f 855/181/793 857/182/794 856/182/795
f 855/181/793 858/181/796 857/182/794
f 859/182/797 861/179/798 860/179/799
f 859/182/797 862/182/794 861/179/798
f 863/179/800 865/180/801 864/180/802
f 863/179/800 866/179/803 865/180/801
f 867/180/804 869/177/805 868/177/806
f 867/180/804 870/180/807 869/177/805
f 871/177/806 873/178/808 872/178/809
f 871/177/806 874/177/810 873/178/808
f 875/178/811 877/175/812 876/175/813
f 875/178/811 878/178/808 877/175/812
f 879/175/814 881/176/815 880/176/816
f 879/175/814 882/175/817 881/176/815
f 883/176/818 885/173/819 884/173/820
f 883/176/818 886/176/821 885/173/819
f 887/173/822 889/174/823 888/174/824
f 887/173/822 890/173/819 889/174/823
f 891/174/825 893/171/826 892/171/827
f 891/174/825 894/174/828 893/171/826
f 895/171/829 897/172/830 896/172/831
f 895/171/829 898/171/832 897/172/830
f 899/172/833 901/169/834 900/169/835
f 899/172/833 902/172/836 901/169/834
f 903/169/835 905/170/837 904/170/838
f 903/169/835 906/169/834 905/170/837
f 907/170/839 909/167/840 908/167/841
f 907/170/839 910/170/842 909/167/840
f 911/167/843 913/168/844 912/168/845
f 911/167/843 914/167/846 913/168/844
f 915/168/847 917/165/848 916/165/849
f 915/168/847 918/168/850 917/165/848
f 919/165/849 921/166/851 920/166/852
f 919/165/849 922/165/853 921/166/851
f 923/166/854 925/163/855 924/163/856
f 923/166/854 926/166/857 925/163/855
f 927/163/856 929/164/858 928/164/859
f 927/163/856 930/163/860 929/164/858
f 931/164/861 933/161/862 932/161/863
f 931/164/861 934/164/864 933/161/862
f 935/161/865 937/162/866 936/162/867
f 935/161/865 938/161/868 937/162/866
f 939/162/869 941/159/870 940/159/871
f 939/162/869 942/162/872 941/159/870
f 943/159/873 945/160/874 944/160/875
f 943/159/873 946/159/876 945/160/874
f 947/160/877 949/157/878 948/157/879
f 947/160/877 950/160/880 949/157/878
f 951/157/881 953/158/882 952/158/883
f 951/157/881 954/157/884 953/158/882
f 955/158/885 957/155/886 956/155/887
f 955/158/885 958/158/888 957/155/886
f 959/155/889 961/156/890 960/156/891
f 959/155/889 962/155/892 961/156/890
f 963/156/891 965/153/893 964/153/894
f 963/156/891 966/156/895 965/153/893
f 967/153/894 969/154/896 968/154/897
f 967/153/894 970/153/893 969/154/896
f 971/154/898 973/151/899 972/151/900
f 971/154/898 974/154/901 973/151/899
f 975/151/900 977/152/902 976/152/903
f 975/151/900 978/151/904 977/152/902
f 979/152/905 981/149/906 980/149/907
f 979/152/905 982/152/902 981/149/906
f 983/149/908 985/150/909 984/150/910
f 983/149/908 986/149/911 985/150/909
f 987/150/912 989/147/913 988/147/914
f 987/150/912 990/150/915 989/147/913
f 991/147/916 993/148/917 992/148/918
f 991/147/916 994/147/913 993/148/917
f 995/148/919 997/145/920 996/145/921
f 995/148/919 998/148/917 997/145/920
f 999/145/921 1001/146/922 1000/146/923
f 999/145/921 1002/145/920 1001/146/922
f 1003/146/924 1005/143/925 1004/143/926
f 1003/146/924 1006/146/927 1005/143/925
f 1007/143/926 1009/144/928 1008/144/929
f 1007/143/926 1010/143/925 1009/144/928
f 1011/144/930 1013/141/931 1012/141/932
f 1011/144/930 1014/144/933 1013/141/931
f 1015/141/934 1017/142/935 1016/142/936
f 1015/141/934 1018/141/937 1017/142/935
f 1019/142/938 1021/139/939 1020/139/940
f 1019/142/938 1022/142/941 1021/139/939
f 1023/139/942 1025/140/943 1024/140/944
f 1023/139/942 1026/139/945 1025/140/943
f 1027/140/944 1029/137/946 1028/137/947
f 1027/140/944 1030/140/948 1029/137/946
f 1031/137/949 1033/138/950 1032/138/951
f 1031/137/949 1034/137/946 1033/138/950
f 1035/138/952 1037/135/953 1036/135/954
f 1035/138/952 1038/138/955 1037/135/953
f 1039/135/954 1041/136/956 1040/136/957
f 1039/135/954 1042/135/953 1041/136/956
f 1043/136/958 1045/133/959 1044/133/960
f 1043/136/958 1046/136/961 1045/133/959
f 1047/133/960 1049/134/962 1048/134/963
f 1047/133/960 1050/133/964 1049/134/962
f 1051/134/963 1053/131/965 1052/131/966
f 1051/134/963 1054/134/962 1053/131/965
f 1055/131/967 1057/132/968 1056/132/969
f 1055/131/967 1058/131/970 1057/132/968
f 1059/132/971 1061/129/972 1060/129/973
f 1059/132/971 1062/132/974 1061/129/972
f 1063/129/975 1065/130/976 1064/130/977
f 1063/129/975 1066/129/978 1065/130/976
f 1067/130/977 1069/127/979 1068/127/980
f 1067/130/977 1070/130/976 1069/127/979
f 1071/127/981 1073/128/982 1072/128/983
f 1071/127/981 1074/127/984 1073/128/982
f 1075/128/985 1077/125/986 1076/125/987
f 1075/128/985 1078/128/988 1077/125/986
f 1079/125/989 1081/126/990 1080/126/991
f 1079/125/989 1082/125/992 1081/126/990
f 1083/126/993 1085/123/994 1084/123/995
f 1083/126/993 1086/126/996 1085/123/994
f 1087/123/995 1089/124/997 1088/124/998
f 1087/123/995 1090/123/999 1089/124/997
f 1091/124/1000 1093/121/1001 1092/121/1002
f 1091/124/1000 1094/124/1003 1093/121/1001
f 1095/121/1002 1097/122/1004 1096/122/1005
f 1095/121/1002 1098/121/1006 1097/122/1004
f 1099/122/1007 1101/119/1008 1100/119/1009
f 1099/122/1007 1102/122/1010 1101/119/1008
f 1103/119/1009 1105/120/1011 1104/120/1012
f 1103/119/1009 1106/119/1013 1105/120/1011
f 1107/120/1014 1109/117/1015 1108/117/1016
f 1107/120/1014 1110/120/1011 1109/117/1015
f 1111/117/1017 1113/118/1018 1112/118/1019
f 1111/117/1017 1114/117/1015 1113/118/1018
f 1115/118/1019 1117/115/1020 1116/115/1021
f 1115/118/1019 1118/118/1018 1117/115/1020
f 1119/115/1022 1121/116/1023 1120/116/1024
f 1119/115/1022 1122/115/1025 1121/116/1023
