v -0.757561 0.029396 -0.107474
v -0.751067 0.029396 -0.107464
v -0.754192 0.029397 -0.107659
v -0.760739 0.029393 -0.106932
v -0.751067 0.029396 -0.107464
v -0.757561 0.029396 -0.107474
v -0.760739 0.029393 -0.106932
v -0.748093 0.029393 -0.106896
v -0.751067 0.029396 -0.107464
v -0.763707 0.029389 -0.106049
v -0.748093 0.029393 -0.106896
v -0.760739 0.029393 -0.106932
v -0.763707 0.029389 -0.106049
v -0.745293 0.029388 -0.105976
v -0.748093 0.029393 -0.106896
v -0.766444 0.029382 -0.104844
v -0.745293 0.029388 -0.105976
v -0.763707 0.029389 -0.106049
v -0.766444 0.029382 -0.104844
v -0.742689 0.029381 -0.104728
v -0.745293 0.029388 -0.105976
v -0.768931 0.029374 -0.103335
v -0.742689 0.029381 -0.104728
v -0.766444 0.029382 -0.104844
v -0.768931 0.029374 -0.103335
v -0.740306 0.029373 -0.103174
v -0.742689 0.029381 -0.104728
v -0.771149 0.029364 -0.10154
v -0.740306 0.029373 -0.103174
v -0.768931 0.029374 -0.103335
v -0.771149 0.029364 -0.10154
v -0.754442 0.029367 -0.102025
v -0.740306 0.029373 -0.103174
v -0.754442 0.029367 -0.102025
v -0.738166 0.029363 -0.101336
v -0.740306 0.029373 -0.103174
v -0.771149 0.029364 -0.10154
v -0.757459 0.029366 -0.101826
v -0.754442 0.029367 -0.102025
v -0.752134 0.029366 -0.101879
v -0.738166 0.029363 -0.101336
v -0.754442 0.029367 -0.102025
v -0.749945 0.029364 -0.101453
v -0.738166 0.029363 -0.101336
v -0.752134 0.029366 -0.101879
v -0.771149 0.029364 -0.10154
v -0.760133 0.029363 -0.101263
v -0.757459 0.029366 -0.101826
v -0.77308 0.029353 -0.099476
v -0.760133 0.029363 -0.101263
v -0.771149 0.029364 -0.10154
v -0.747892 0.02936 -0.100764
v -0.738166 0.029363 -0.101336
v -0.749945 0.029364 -0.101453
v -0.747892 0.02936 -0.100764
v -0.736292 0.029352 -0.099238
v -0.738166 0.029363 -0.101336
v -0.77308 0.029353 -0.099476
v -0.762481 0.029358 -0.100378
v -0.760133 0.029363 -0.101263
v -0.745989 0.029355 -0.099829
v -0.736292 0.029352 -0.099238
v -0.747892 0.02936 -0.100764
v -0.77308 0.029353 -0.099476
v -0.764517 0.029351 -0.099221
v -0.762481 0.029358 -0.100378
v -0.744252 0.029348 -0.098665
v -0.736292 0.029352 -0.099238
v -0.745989 0.029355 -0.099829
v -0.774702 0.02934 -0.097161
v -0.764517 0.029351 -0.099221
v -0.77308 0.029353 -0.099476
v -0.744252 0.029348 -0.098665
v -0.734706 0.029339 -0.096901
v -0.736292 0.029352 -0.099238
v -0.774702 0.02934 -0.097161
v -0.766256 0.029344 -0.097838
v -0.764517 0.029351 -0.099221
v -0.742697 0.029341 -0.097291
v -0.734706 0.029339 -0.096901
v -0.744252 0.029348 -0.098665
v -0.774702 0.02934 -0.097161
v -0.767714 0.029335 -0.096273
v -0.766256 0.029344 -0.097838
v -0.741338 0.029332 -0.095721
v -0.734706 0.029339 -0.096901
v -0.742697 0.029341 -0.097291
v -0.775998 0.029326 -0.094613
v -0.767714 0.029335 -0.096273
v -0.774702 0.02934 -0.097161
v -0.741338 0.029332 -0.095721
v -0.733433 0.029325 -0.094348
v -0.734706 0.029339 -0.096901
v -0.775998 0.029326 -0.094613
v -0.768906 0.029326 -0.094575
v -0.767714 0.029335 -0.096273
v -0.740192 0.029323 -0.093975
v -0.733433 0.029325 -0.094348
v -0.741338 0.029332 -0.095721
v -0.776948 0.029311 -0.091849
v -0.768906 0.029326 -0.094575
v -0.775998 0.029326 -0.094613
v -0.776948 0.029311 -0.091849
v -0.769847 0.029316 -0.092787
v -0.768906 0.029326 -0.094575
v -0.740192 0.029323 -0.093975
v -0.732496 0.02931 -0.091603
v -0.733433 0.029325 -0.094348
v -0.739274 0.029312 -0.092068
v -0.732496 0.02931 -0.091603
v -0.740192 0.029323 -0.093975
v -0.776948 0.029311 -0.091849
v -0.770553 0.029306 -0.090959
v -0.769847 0.029316 -0.092787
v -0.738599 0.029301 -0.090019
v -0.732496 0.02931 -0.091603
v -0.739274 0.029312 -0.092068
v -0.777532 0.029295 -0.088889
v -0.770553 0.029306 -0.090959
v -0.776948 0.029311 -0.091849
v -0.738599 0.029301 -0.090019
v -0.731916 0.029294 -0.088687
v -0.732496 0.02931 -0.091603
v -0.777532 0.029295 -0.088889
v -0.771038 0.029297 -0.089135
v -0.770553 0.029306 -0.090959
v -0.738183 0.029289 -0.087844
v -0.731916 0.029294 -0.088687
v -0.738599 0.029301 -0.090019
v -0.777532 0.029295 -0.088889
v -0.771318 0.029287 -0.087362
v -0.771038 0.029297 -0.089135
v -0.777731 0.029278 -0.085749
v -0.771318 0.029287 -0.087362
v -0.777532 0.029295 -0.088889
v -0.738183 0.029289 -0.087844
v -0.731718 0.029277 -0.085623
v -0.731916 0.029294 -0.088687
v -0.738041 0.029277 -0.085561
v -0.731718 0.029277 -0.085623
v -0.738183 0.029289 -0.087844
v -0.777731 0.029278 -0.085749
v -0.771408 0.029278 -0.085686
v -0.771318 0.029287 -0.087362
v -0.77758 0.029264 -0.083131
v -0.771408 0.029278 -0.085686
v -0.777731 0.029278 -0.085749
v -0.77758 0.029264 -0.083131
v -0.771289 0.029266 -0.083552
v -0.771408 0.029278 -0.085686
v -0.738041 0.029277 -0.085561
v -0.73187 0.029263 -0.083074
v -0.731718 0.029277 -0.085623
v -0.738179 0.029265 -0.083416
v -0.73187 0.029263 -0.083074
v -0.738041 0.029277 -0.085561
v -0.77758 0.029264 -0.083131
v -0.770933 0.029255 -0.081485
v -0.771289 0.029266 -0.083552
v -0.738585 0.029254 -0.081348
v -0.73187 0.029263 -0.083074
v -0.738179 0.029265 -0.083416
v -0.777139 0.02925 -0.080611
v -0.770933 0.029255 -0.081485
v -0.77758 0.029264 -0.083131
v -0.738585 0.029254 -0.081348
v -0.732317 0.02925 -0.080604
v -0.73187 0.029263 -0.083074
v -0.777139 0.02925 -0.080611
v -0.77034 0.029244 -0.079508
v -0.770933 0.029255 -0.081485
v -0.739246 0.029243 -0.079376
v -0.732317 0.02925 -0.080604
v -0.738585 0.029254 -0.081348
v -0.776421 0.029237 -0.078205
v -0.77034 0.029244 -0.079508
v -0.777139 0.02925 -0.080611
v -0.739246 0.029243 -0.079376
v -0.733043 0.029237 -0.078231
v -0.732317 0.02925 -0.080604
v -0.776421 0.029237 -0.078205
v -0.769509 0.029234 -0.077643
v -0.77034 0.029244 -0.079508
v -0.740146 0.029233 -0.077522
v -0.733043 0.029237 -0.078231
v -0.739246 0.029243 -0.079376
v -0.740146 0.029233 -0.077522
v -0.734032 0.029225 -0.075976
v -0.733043 0.029237 -0.078231
v -0.77544 0.029225 -0.075929
v -0.769509 0.029234 -0.077643
v -0.776421 0.029237 -0.078205
v -0.77544 0.029225 -0.075929
v -0.768441 0.029224 -0.075912
v -0.769509 0.029234 -0.077643
v -0.741272 0.029224 -0.075807
v -0.734032 0.029225 -0.075976
v -0.740146 0.029233 -0.077522
v -0.741272 0.029224 -0.075807
v -0.735267 0.029213 -0.073855
v -0.734032 0.029225 -0.075976
v -0.77421 0.029213 -0.0738
v -0.768441 0.029224 -0.075912
v -0.77544 0.029225 -0.075929
v -0.77421 0.029213 -0.0738
v -0.767135 0.029216 -0.07434
v -0.768441 0.029224 -0.075912
v -0.74261 0.029215 -0.074253
v -0.735267 0.029213 -0.073855
v -0.741272 0.029224 -0.075807
v -0.77421 0.029213 -0.0738
v -0.765592 0.029208 -0.072946
v -0.767135 0.029216 -0.07434
v -0.744147 0.029208 -0.07288
v -0.735267 0.029213 -0.073855
v -0.74261 0.029215 -0.074253
v -0.744147 0.029208 -0.07288
v -0.736734 0.029203 -0.07189
v -0.735267 0.029213 -0.073855
v -0.772746 0.029202 -0.071835
v -0.765592 0.029208 -0.072946
v -0.77421 0.029213 -0.0738
v -0.772746 0.029202 -0.071835
v -0.763812 0.029202 -0.071756
v -0.765592 0.029208 -0.072946
v -0.745868 0.029202 -0.071709
v -0.736734 0.029203 -0.07189
v -0.744147 0.029208 -0.07288
v -0.745868 0.029202 -0.071709
v -0.738415 0.029193 -0.070098
v -0.736734 0.029203 -0.07189
v -0.771061 0.029193 -0.07005
v -0.763812 0.029202 -0.071756
v -0.772746 0.029202 -0.071835
v -0.771061 0.029193 -0.07005
v -0.761794 0.029197 -0.07079
v -0.763812 0.029202 -0.071756
v -0.74776 0.029196 -0.070762
v -0.738415 0.029193 -0.070098
v -0.745868 0.029202 -0.071709
v -0.771061 0.029193 -0.07005
v -0.759539 0.029193 -0.070073
v -0.761794 0.029197 -0.07079
v -0.749808 0.029193 -0.07006
v -0.738415 0.029193 -0.070098
v -0.74776 0.029196 -0.070762
v -0.749808 0.029193 -0.07006
v -0.740297 0.029184 -0.068498
v -0.738415 0.029193 -0.070098
v -0.771061 0.029193 -0.07005
v -0.757047 0.02919 -0.069626
v -0.759539 0.029193 -0.070073
v -0.751998 0.02919 -0.069623
v -0.740297 0.029184 -0.068498
v -0.749808 0.029193 -0.07006
v -0.76917 0.029184 -0.068461
v -0.757047 0.02919 -0.069626
v -0.771061 0.029193 -0.07005
v -0.76917 0.029184 -0.068461
v -0.754317 0.029189 -0.069472
v -0.757047 0.02919 -0.069626
v -0.754317 0.029189 -0.069472
v -0.740297 0.029184 -0.068498
v -0.751998 0.02919 -0.069623
v -0.76917 0.029184 -0.068461
v -0.740297 0.029184 -0.068498
v -0.754317 0.029189 -0.069472
v -0.76917 0.029184 -0.068461
v -0.742361 0.029177 -0.06711
v -0.740297 0.029184 -0.068498
v -0.767087 0.029176 -0.067085
v -0.742361 0.029177 -0.06711
v -0.76917 0.029184 -0.068461
v -0.767087 0.029176 -0.067085
v -0.744593 0.02917 -0.065951
v -0.742361 0.029177 -0.06711
v -0.764826 0.02917 -0.065939
v -0.744593 0.02917 -0.065951
v -0.767087 0.029176 -0.067085
v -0.764826 0.02917 -0.065939
v -0.746977 0.029165 -0.065043
v -0.744593 0.02917 -0.065951
v -0.762401 0.029165 -0.065039
v -0.746977 0.029165 -0.065043
v -0.764826 0.02917 -0.065939
v -0.762401 0.029165 -0.065039
v -0.749497 0.029162 -0.064464
v -0.746977 0.029165 -0.065043
v -0.749497 0.029162 -0.064464
v -0.749497 0.029162 -0.064401
v -0.746977 0.029165 -0.065043
v -0.759826 0.029162 -0.064401
v -0.749497 0.029162 -0.064464
v -0.762401 0.029165 -0.065039
v -0.759826 0.029162 -0.064401
v -0.749497 0.029161 -0.064338
v -0.749497 0.029162 -0.064464
v -0.758322 0.029156 -0.063322
v -0.749497 0.029161 -0.064338
v -0.759826 0.029162 -0.064401
v -0.758322 0.029156 -0.063322
v -0.747685 0.029157 -0.063586
v -0.749497 0.029161 -0.064338
v -0.758322 0.029156 -0.063322
v -0.745997 0.029154 -0.062925
v -0.747685 0.029157 -0.063586
v -0.756782 0.02915 -0.062279
v -0.745997 0.029154 -0.062925
v -0.758322 0.029156 -0.063322
v -0.756782 0.02915 -0.062279
v -0.744423 0.029151 -0.062355
v -0.745997 0.029154 -0.062925
v -0.756782 0.02915 -0.062279
v -0.742951 0.029148 -0.061877
v -0.744423 0.029151 -0.062355
v -0.755202 0.029145 -0.061281
v -0.742951 0.029148 -0.061877
v -0.756782 0.02915 -0.062279
v -0.755202 0.029145 -0.061281
v -0.741571 0.029146 -0.061489
v -0.742951 0.029148 -0.061877
v -0.755202 0.029145 -0.061281
v -0.740271 0.029144 -0.061193
v -0.741571 0.029146 -0.061489
v -0.734585 0.029144 -0.061082
v -0.733345 0.029144 -0.061146
v -0.733533 0.029145 -0.061334
v -0.753582 0.02914 -0.060337
v -0.740271 0.029144 -0.061193
v -0.755202 0.029145 -0.061281
v -0.753582 0.02914 -0.060337
v -0.73904 0.029143 -0.060988
v -0.740271 0.029144 -0.061193
v -0.734585 0.029144 -0.061082
v -0.738854 0.029114 -0.0557
v -0.733345 0.029144 -0.061146
v -0.73565 0.029143 -0.060922
v -0.738854 0.029114 -0.0557
v -0.734585 0.029144 -0.061082
v -0.753582 0.02914 -0.060337
v -0.737867 0.029143 -0.060875
v -0.73904 0.029143 -0.060988
v -0.736741 0.029142 -0.060853
v -0.738854 0.029114 -0.0557
v -0.73565 0.029143 -0.060922
v -0.753582 0.02914 -0.060337
v -0.736741 0.029142 -0.060853
v -0.737867 0.029143 -0.060875
v -0.753582 0.02914 -0.060337
v -0.738854 0.029114 -0.0557
v -0.736741 0.029142 -0.060853
v -0.751919 0.029135 -0.059455
v -0.738854 0.029114 -0.0557
v -0.753582 0.02914 -0.060337
v -0.750209 0.02913 -0.058642
v -0.738854 0.029114 -0.0557
v -0.751919 0.029135 -0.059455
v -0.748451 0.029126 -0.057908
v -0.738854 0.029114 -0.0557
v -0.750209 0.02913 -0.058642
v -0.746643 0.029123 -0.05726
v -0.738854 0.029114 -0.0557
v -0.748451 0.029126 -0.057908
v -0.744781 0.02912 -0.056707
v -0.738854 0.029114 -0.0557
v -0.746643 0.029123 -0.05726
v -0.742864 0.029117 -0.056257
v -0.738854 0.029114 -0.0557
v -0.744781 0.02912 -0.056707
v -0.740889 0.029116 -0.055919
v -0.738854 0.029114 -0.0557
v -0.742864 0.029117 -0.056257
v -0.751067 0.02564 -0.107485
v -0.757561 0.02564 -0.107495
v -0.754192 0.025641 -0.10768
v -0.751067 0.02564 -0.107485
v -0.760739 0.025637 -0.106952
v -0.757561 0.02564 -0.107495
v -0.748093 0.025637 -0.106917
v -0.760739 0.025637 -0.106952
v -0.751067 0.02564 -0.107485
v -0.748093 0.025637 -0.106917
v -0.763707 0.025633 -0.106069
v -0.760739 0.025637 -0.106952
v -0.745293 0.025632 -0.105997
v -0.763707 0.025633 -0.106069
v -0.748093 0.025637 -0.106917
v -0.745293 0.025632 -0.105997
v -0.766444 0.025626 -0.104865
v -0.763707 0.025633 -0.106069
v -0.742689 0.025625 -0.104749
v -0.766444 0.025626 -0.104865
v -0.745293 0.025632 -0.105997
v -0.742689 0.025625 -0.104749
v -0.768931 0.025618 -0.103355
v -0.766444 0.025626 -0.104865
v -0.740306 0.025617 -0.103194
v -0.768931 0.025618 -0.103355
v -0.742689 0.025625 -0.104749
v -0.740306 0.025617 -0.103194
v -0.771149 0.025608 -0.10156
v -0.768931 0.025618 -0.103355
v -0.754442 0.025611 -0.102045
v -0.771149 0.025608 -0.10156
v -0.740306 0.025617 -0.103194
v -0.738166 0.025607 -0.101356
v -0.754442 0.025611 -0.102045
v -0.740306 0.025617 -0.103194
v -0.757459 0.02561 -0.101847
v -0.771149 0.025608 -0.10156
v -0.754442 0.025611 -0.102045
v -0.738166 0.025607 -0.101356
v -0.752134 0.02561 -0.101899
v -0.754442 0.025611 -0.102045
v -0.738166 0.025607 -0.101356
v -0.749945 0.025607 -0.101474
v -0.752134 0.02561 -0.101899
v -0.760133 0.025606 -0.101283
v -0.771149 0.025608 -0.10156
v -0.757459 0.02561 -0.101847
v -0.760133 0.025606 -0.101283
v -0.77308 0.025597 -0.099496
v -0.771149 0.025608 -0.10156
v -0.738166 0.025607 -0.101356
v -0.747892 0.025604 -0.100785
v -0.749945 0.025607 -0.101474
v -0.736292 0.025595 -0.099258
v -0.747892 0.025604 -0.100785
v -0.738166 0.025607 -0.101356
v -0.762481 0.025602 -0.100399
v -0.77308 0.025597 -0.099496
v -0.760133 0.025606 -0.101283
v -0.736292 0.025595 -0.099258
v -0.745989 0.025599 -0.099849
v -0.747892 0.025604 -0.100785
v -0.764517 0.025595 -0.099242
v -0.77308 0.025597 -0.099496
v -0.762481 0.025602 -0.100399
v -0.736292 0.025595 -0.099258
v -0.744252 0.025592 -0.098686
v -0.745989 0.025599 -0.099849
v -0.764517 0.025595 -0.099242
v -0.774702 0.025584 -0.097181
v -0.77308 0.025597 -0.099496
v -0.734706 0.025583 -0.096921
v -0.744252 0.025592 -0.098686
v -0.736292 0.025595 -0.099258
v -0.766256 0.025588 -0.097859
v -0.774702 0.025584 -0.097181
v -0.764517 0.025595 -0.099242
v -0.734706 0.025583 -0.096921
v -0.742697 0.025585 -0.097311
v -0.744252 0.025592 -0.098686
v -0.767714 0.025579 -0.096294
v -0.774702 0.025584 -0.097181
v -0.766256 0.025588 -0.097859
v -0.734706 0.025583 -0.096921
v -0.741338 0.025576 -0.095742
v -0.742697 0.025585 -0.097311
v -0.767714 0.025579 -0.096294
v -0.775998 0.02557 -0.094633
v -0.774702 0.025584 -0.097181
v -0.733433 0.025569 -0.094369
v -0.741338 0.025576 -0.095742
v -0.734706 0.025583 -0.096921
v -0.768906 0.02557 -0.094595
v -0.775998 0.02557 -0.094633
v -0.767714 0.025579 -0.096294
v -0.733433 0.025569 -0.094369
v -0.740192 0.025567 -0.093995
v -0.741338 0.025576 -0.095742
v -0.768906 0.02557 -0.094595
v -0.776948 0.025555 -0.09187
v -0.775998 0.02557 -0.094633
v -0.769847 0.02556 -0.092808
v -0.776948 0.025555 -0.09187
v -0.768906 0.02557 -0.094595
v -0.732496 0.025554 -0.091623
v -0.740192 0.025567 -0.093995
v -0.733433 0.025569 -0.094369
v -0.732496 0.025554 -0.091623
v -0.739274 0.025556 -0.092088
v -0.740192 0.025567 -0.093995
v -0.770553 0.02555 -0.09098
v -0.776948 0.025555 -0.09187
v -0.769847 0.02556 -0.092808
v -0.732496 0.025554 -0.091623
v -0.738599 0.025545 -0.090039
v -0.739274 0.025556 -0.092088
v -0.770553 0.02555 -0.09098
v -0.777532 0.025539 -0.088909
v -0.776948 0.025555 -0.09187
v -0.731916 0.025538 -0.088707
v -0.738599 0.025545 -0.090039
v -0.732496 0.025554 -0.091623
v -0.771038 0.02554 -0.089156
v -0.777532 0.025539 -0.088909
v -0.770553 0.02555 -0.09098
v -0.731916 0.025538 -0.088707
v -0.738183 0.025533 -0.087865
v -0.738599 0.025545 -0.090039
v -0.771318 0.025531 -0.087382
v -0.777532 0.025539 -0.088909
v -0.771038 0.02554 -0.089156
v -0.771318 0.025531 -0.087382
v -0.777731 0.025522 -0.085769
v -0.777532 0.025539 -0.088909
v -0.731718 0.025521 -0.085644
v -0.738183 0.025533 -0.087865
v -0.731916 0.025538 -0.088707
v -0.731718 0.025521 -0.085644
v -0.738041 0.025521 -0.085581
v -0.738183 0.025533 -0.087865
v -0.771408 0.025522 -0.085707
v -0.777731 0.025522 -0.085769
v -0.771318 0.025531 -0.087382
v -0.771408 0.025522 -0.085707
v -0.77758 0.025508 -0.083151
v -0.777731 0.025522 -0.085769
v -0.771289 0.02551 -0.083572
v -0.77758 0.025508 -0.083151
v -0.771408 0.025522 -0.085707
v -0.73187 0.025507 -0.083095
v -0.738041 0.025521 -0.085581
v -0.731718 0.025521 -0.085644
v -0.73187 0.025507 -0.083095
v -0.738179 0.025509 -0.083436
v -0.738041 0.025521 -0.085581
v -0.770933 0.025499 -0.081505
v -0.77758 0.025508 -0.083151
v -0.771289 0.02551 -0.083572
v -0.73187 0.025507 -0.083095
v -0.738585 0.025498 -0.081368
v -0.738179 0.025509 -0.083436
v -0.770933 0.025499 -0.081505
v -0.777139 0.025494 -0.080632
v -0.77758 0.025508 -0.083151
v -0.732317 0.025494 -0.080624
v -0.738585 0.025498 -0.081368
v -0.73187 0.025507 -0.083095
v -0.77034 0.025488 -0.079528
v -0.777139 0.025494 -0.080632
v -0.770933 0.025499 -0.081505
v -0.732317 0.025494 -0.080624
v -0.739246 0.025487 -0.079396
v -0.738585 0.025498 -0.081368
v -0.77034 0.025488 -0.079528
v -0.776421 0.025481 -0.078226
v -0.777139 0.025494 -0.080632
v -0.733043 0.025481 -0.078252
v -0.739246 0.025487 -0.079396
v -0.732317 0.025494 -0.080624
v -0.769509 0.025478 -0.077663
v -0.776421 0.025481 -0.078226
v -0.77034 0.025488 -0.079528
v -0.733043 0.025481 -0.078252
v -0.740146 0.025477 -0.077542
v -0.739246 0.025487 -0.079396
v -0.734032 0.025469 -0.075996
v -0.740146 0.025477 -0.077542
v -0.733043 0.025481 -0.078252
v -0.769509 0.025478 -0.077663
v -0.77544 0.025468 -0.075949
v -0.776421 0.025481 -0.078226
v -0.768441 0.025468 -0.075933
v -0.77544 0.025468 -0.075949
v -0.769509 0.025478 -0.077663
v -0.734032 0.025469 -0.075996
v -0.741272 0.025468 -0.075828
v -0.740146 0.025477 -0.077542
v -0.735267 0.025457 -0.073876
v -0.741272 0.025468 -0.075828
v -0.734032 0.025469 -0.075996
v -0.768441 0.025468 -0.075933
v -0.77421 0.025457 -0.073821
v -0.77544 0.025468 -0.075949
v -0.767135 0.02546 -0.074359
v -0.77421 0.025457 -0.073821
v -0.768441 0.025468 -0.075933
v -0.735267 0.025457 -0.073876
v -0.74261 0.025459 -0.074273
v -0.741272 0.025468 -0.075828
v -0.765592 0.025452 -0.072967
v -0.77421 0.025457 -0.073821
v -0.767135 0.02546 -0.074359
v -0.735267 0.025457 -0.073876
v -0.744147 0.025452 -0.0729
v -0.74261 0.025459 -0.074273
v -0.736734 0.025446 -0.071911
v -0.744147 0.025452 -0.0729
v -0.735267 0.025457 -0.073876
v -0.765592 0.025452 -0.072967
v -0.772746 0.025446 -0.071856
v -0.77421 0.025457 -0.073821
v -0.763812 0.025446 -0.071776
v -0.772746 0.025446 -0.071856
v -0.765592 0.025452 -0.072967
v -0.736734 0.025446 -0.071911
v -0.745868 0.025445 -0.07173
v -0.744147 0.025452 -0.0729
v -0.738415 0.025437 -0.070119
v -0.745868 0.025445 -0.07173
v -0.736734 0.025446 -0.071911
v -0.763812 0.025446 -0.071776
v -0.771061 0.025436 -0.07007
v -0.772746 0.025446 -0.071856
v -0.761794 0.02544 -0.070811
v -0.771061 0.025436 -0.07007
v -0.763812 0.025446 -0.071776
v -0.738415 0.025437 -0.070119
v -0.74776 0.02544 -0.070782
v -0.745868 0.025445 -0.07173
v -0.759539 0.025437 -0.070093
v -0.771061 0.025436 -0.07007
v -0.761794 0.02544 -0.070811
v -0.738415 0.025437 -0.070119
v -0.749808 0.025437 -0.07008
v -0.74776 0.02544 -0.070782
v -0.740297 0.025428 -0.068518
v -0.749808 0.025437 -0.07008
v -0.738415 0.025437 -0.070119
v -0.757047 0.025434 -0.069647
v -0.771061 0.025436 -0.07007
v -0.759539 0.025437 -0.070093
v -0.740297 0.025428 -0.068518
v -0.751998 0.025434 -0.069643
v -0.749808 0.025437 -0.07008
v -0.757047 0.025434 -0.069647
v -0.76917 0.025428 -0.068481
v -0.771061 0.025436 -0.07007
v -0.754317 0.025433 -0.069492
v -0.76917 0.025428 -0.068481
v -0.757047 0.025434 -0.069647
v -0.740297 0.025428 -0.068518
v -0.754317 0.025433 -0.069492
v -0.751998 0.025434 -0.069643
v -0.740297 0.025428 -0.068518
v -0.76917 0.025428 -0.068481
v -0.754317 0.025433 -0.069492
v -0.742361 0.02542 -0.06713
v -0.76917 0.025428 -0.068481
v -0.740297 0.025428 -0.068518
v -0.742361 0.02542 -0.06713
v -0.767087 0.02542 -0.067106
v -0.76917 0.025428 -0.068481
v -0.744593 0.025414 -0.065972
v -0.767087 0.02542 -0.067106
v -0.742361 0.02542 -0.06713
v -0.744593 0.025414 -0.065972
v -0.764826 0.025414 -0.065959
v -0.767087 0.02542 -0.067106
v -0.746977 0.025409 -0.065063
v -0.764826 0.025414 -0.065959
v -0.744593 0.025414 -0.065972
v -0.746977 0.025409 -0.065063
v -0.762401 0.025409 -0.065059
v -0.764826 0.025414 -0.065959
v -0.749497 0.025406 -0.064484
v -0.762401 0.025409 -0.065059
v -0.746977 0.025409 -0.065063
v -0.749497 0.025406 -0.064421
v -0.749497 0.025406 -0.064484
v -0.746977 0.025409 -0.065063
v -0.749497 0.025406 -0.064484
v -0.759826 0.025406 -0.064421
v -0.762401 0.025409 -0.065059
v -0.749497 0.025405 -0.064359
v -0.759826 0.025406 -0.064421
v -0.749497 0.025406 -0.064484
v -0.749497 0.025405 -0.064359
v -0.758322 0.0254 -0.063342
v -0.759826 0.025406 -0.064421
v -0.747685 0.025401 -0.063607
v -0.758322 0.0254 -0.063342
v -0.749497 0.025405 -0.064359
v -0.745997 0.025398 -0.062946
v -0.758322 0.0254 -0.063342
v -0.747685 0.025401 -0.063607
v -0.745997 0.025398 -0.062946
v -0.756782 0.025394 -0.062299
v -0.758322 0.0254 -0.063342
v -0.744423 0.025395 -0.062376
v -0.756782 0.025394 -0.062299
v -0.745997 0.025398 -0.062946
v -0.742951 0.025392 -0.061897
v -0.756782 0.025394 -0.062299
v -0.744423 0.025395 -0.062376
v -0.742951 0.025392 -0.061897
v -0.755202 0.025389 -0.061302
v -0.756782 0.025394 -0.062299
v -0.741571 0.02539 -0.06151
v -0.755202 0.025389 -0.061302
v -0.742951 0.025392 -0.061897
v -0.740271 0.025388 -0.061214
v -0.755202 0.025389 -0.061302
v -0.741571 0.02539 -0.06151
v -0.733345 0.025388 -0.061167
v -0.734585 0.025388 -0.061103
v -0.733533 0.025389 -0.061354
v -0.740271 0.025388 -0.061214
v -0.753582 0.025384 -0.060357
v -0.755202 0.025389 -0.061302
v -0.73904 0.025387 -0.061009
v -0.753582 0.025384 -0.060357
v -0.740271 0.025388 -0.061214
v -0.738854 0.025358 -0.05572
v -0.734585 0.025388 -0.061103
v -0.733345 0.025388 -0.061167
v -0.738854 0.025358 -0.05572
v -0.73565 0.025387 -0.060942
v -0.734585 0.025388 -0.061103
v -0.737867 0.025386 -0.060895
v -0.753582 0.025384 -0.060357
v -0.73904 0.025387 -0.061009
v -0.738854 0.025358 -0.05572
v -0.736741 0.025386 -0.060873
v -0.73565 0.025387 -0.060942
v -0.736741 0.025386 -0.060873
v -0.753582 0.025384 -0.060357
v -0.737867 0.025386 -0.060895
v -0.738854 0.025358 -0.05572
v -0.753582 0.025384 -0.060357
v -0.736741 0.025386 -0.060873
v -0.738854 0.025358 -0.05572
v -0.751919 0.025379 -0.059475
v -0.753582 0.025384 -0.060357
v -0.738854 0.025358 -0.05572
v -0.750209 0.025374 -0.058663
v -0.751919 0.025379 -0.059475
v -0.738854 0.025358 -0.05572
v -0.748451 0.02537 -0.057928
v -0.750209 0.025374 -0.058663
v -0.738854 0.025358 -0.05572
v -0.746643 0.025367 -0.057281
v -0.748451 0.02537 -0.057928
v -0.738854 0.025358 -0.05572
v -0.744781 0.025364 -0.056728
v -0.746643 0.025367 -0.057281
v -0.738854 0.025358 -0.05572
v -0.742864 0.025361 -0.056278
v -0.744781 0.025364 -0.056728
v -0.738854 0.025358 -0.05572
v -0.740889 0.025359 -0.055939
v -0.742864 0.025361 -0.056278
v -0.749497 0.029161 -0.064338
v -0.747685 0.029157 -0.063586
v -0.747685 0.025401 -0.063607
v -0.749497 0.025405 -0.064359
v -0.747685 0.029157 -0.063586
v -0.745997 0.029154 -0.062925
v -0.745997 0.025398 -0.062946
v -0.747685 0.025401 -0.063607
v -0.745997 0.029154 -0.062925
v -0.744423 0.029151 -0.062355
v -0.744423 0.025395 -0.062376
v -0.745997 0.025398 -0.062946
v -0.744423 0.029151 -0.062355
v -0.742951 0.029148 -0.061877
v -0.742951 0.025392 -0.061897
v -0.744423 0.025395 -0.062376
v -0.742951 0.029148 -0.061877
v -0.741571 0.029146 -0.061489
v -0.741571 0.02539 -0.06151
v -0.742951 0.025392 -0.061897
v -0.741571 0.029146 -0.061489
v -0.740271 0.029144 -0.061193
v -0.740271 0.025388 -0.061214
v -0.741571 0.02539 -0.06151
v -0.740271 0.029144 -0.061193
v -0.73904 0.029143 -0.060988
v -0.73904 0.025387 -0.061009
v -0.740271 0.025388 -0.061214
v -0.73904 0.029143 -0.060988
v -0.737867 0.029143 -0.060875
v -0.737867 0.025386 -0.060895
v -0.73904 0.025387 -0.061009
v -0.737867 0.029143 -0.060875
v -0.736741 0.029142 -0.060853
v -0.736741 0.025386 -0.060873
v -0.737867 0.025386 -0.060895
v -0.736741 0.029142 -0.060853
v -0.73565 0.029143 -0.060922
v -0.73565 0.025387 -0.060942
v -0.736741 0.025386 -0.060873
v -0.73565 0.029143 -0.060922
v -0.734585 0.029144 -0.061082
v -0.734585 0.025388 -0.061103
v -0.73565 0.025387 -0.060942
v -0.734585 0.029144 -0.061082
v -0.733533 0.029145 -0.061334
v -0.733533 0.025389 -0.061354
v -0.734585 0.025388 -0.061103
v -0.733533 0.029145 -0.061334
v -0.733345 0.029144 -0.061146
v -0.733345 0.025388 -0.061167
v -0.733533 0.025389 -0.061354
v -0.733345 0.029144 -0.061146
v -0.738854 0.029114 -0.0557
v -0.738854 0.025358 -0.05572
v -0.733345 0.025388 -0.061167
v -0.738854 0.029114 -0.0557
v -0.740889 0.029116 -0.055919
v -0.740889 0.025359 -0.055939
v -0.738854 0.025358 -0.05572
v -0.740889 0.029116 -0.055919
v -0.742864 0.029117 -0.056257
v -0.742864 0.025361 -0.056278
v -0.740889 0.025359 -0.055939
v -0.742864 0.029117 -0.056257
v -0.744781 0.02912 -0.056707
v -0.744781 0.025364 -0.056728
v -0.742864 0.025361 -0.056278
v -0.744781 0.02912 -0.056707
v -0.746643 0.029123 -0.05726
v -0.746643 0.025367 -0.057281
v -0.744781 0.025364 -0.056728
v -0.746643 0.029123 -0.05726
v -0.748451 0.029126 -0.057908
v -0.748451 0.02537 -0.057928
v -0.746643 0.025367 -0.057281
v -0.748451 0.029126 -0.057908
v -0.750209 0.02913 -0.058642
v -0.750209 0.025374 -0.058663
v -0.748451 0.02537 -0.057928
v -0.750209 0.02913 -0.058642
v -0.751919 0.029135 -0.059455
v -0.751919 0.025379 -0.059475
v -0.750209 0.025374 -0.058663
v -0.751919 0.029135 -0.059455
v -0.753582 0.02914 -0.060337
v -0.753582 0.025384 -0.060357
v -0.751919 0.025379 -0.059475
v -0.753582 0.02914 -0.060337
v -0.755202 0.029145 -0.061281
v -0.755202 0.025389 -0.061302
v -0.753582 0.025384 -0.060357
v -0.755202 0.029145 -0.061281
v -0.756782 0.02915 -0.062279
v -0.756782 0.025394 -0.062299
v -0.755202 0.025389 -0.061302
v -0.756782 0.02915 -0.062279
v -0.758322 0.029156 -0.063322
v -0.758322 0.0254 -0.063342
v -0.756782 0.025394 -0.062299
v -0.758322 0.029156 -0.063322
v -0.759826 0.029162 -0.064401
v -0.759826 0.025406 -0.064421
v -0.758322 0.0254 -0.063342
v -0.759826 0.029162 -0.064401
v -0.762401 0.029165 -0.065039
v -0.762401 0.025409 -0.065059
v -0.759826 0.025406 -0.064421
v -0.762401 0.029165 -0.065039
v -0.764826 0.02917 -0.065939
v -0.764826 0.025414 -0.065959
v -0.762401 0.025409 -0.065059
v -0.764826 0.02917 -0.065939
v -0.767087 0.029176 -0.067085
v -0.767087 0.02542 -0.067106
v -0.764826 0.025414 -0.065959
v -0.767087 0.029176 -0.067085
v -0.76917 0.029184 -0.068461
v -0.76917 0.025428 -0.068481
v -0.767087 0.02542 -0.067106
v -0.76917 0.029184 -0.068461
v -0.771061 0.029193 -0.07005
v -0.771061 0.025436 -0.07007
v -0.76917 0.025428 -0.068481
v -0.771061 0.029193 -0.07005
v -0.772746 0.029202 -0.071835
v -0.772746 0.025446 -0.071856
v -0.771061 0.025436 -0.07007
v -0.772746 0.029202 -0.071835
v -0.77421 0.029213 -0.0738
v -0.77421 0.025457 -0.073821
v -0.772746 0.025446 -0.071856
v -0.77421 0.029213 -0.0738
v -0.77544 0.029225 -0.075929
v -0.77544 0.025468 -0.075949
v -0.77421 0.025457 -0.073821
v -0.77544 0.029225 -0.075929
v -0.776421 0.029237 -0.078205
v -0.776421 0.025481 -0.078226
v -0.77544 0.025468 -0.075949
v -0.776421 0.029237 -0.078205
v -0.777139 0.02925 -0.080611
v -0.777139 0.025494 -0.080632
v -0.776421 0.025481 -0.078226
v -0.777139 0.02925 -0.080611
v -0.77758 0.029264 -0.083131
v -0.77758 0.025508 -0.083151
v -0.777139 0.025494 -0.080632
v -0.77758 0.029264 -0.083131
v -0.777731 0.029278 -0.085749
v -0.777731 0.025522 -0.085769
v -0.77758 0.025508 -0.083151
v -0.777731 0.029278 -0.085749
v -0.777532 0.029295 -0.088889
v -0.777532 0.025539 -0.088909
v -0.777731 0.025522 -0.085769
v -0.777532 0.029295 -0.088889
v -0.776948 0.029311 -0.091849
v -0.776948 0.025555 -0.09187
v -0.777532 0.025539 -0.088909
v -0.776948 0.029311 -0.091849
v -0.775998 0.029326 -0.094613
v -0.775998 0.02557 -0.094633
v -0.776948 0.025555 -0.09187
v -0.775998 0.029326 -0.094613
v -0.774702 0.02934 -0.097161
v -0.774702 0.025584 -0.097181
v -0.775998 0.02557 -0.094633
v -0.774702 0.02934 -0.097161
v -0.77308 0.029353 -0.099476
v -0.77308 0.025597 -0.099496
v -0.774702 0.025584 -0.097181
v -0.77308 0.029353 -0.099476
v -0.771149 0.029364 -0.10154
v -0.771149 0.025608 -0.10156
v -0.77308 0.025597 -0.099496
v -0.771149 0.029364 -0.10154
v -0.768931 0.029374 -0.103335
v -0.768931 0.025618 -0.103355
v -0.771149 0.025608 -0.10156
v -0.768931 0.029374 -0.103335
v -0.766444 0.029382 -0.104844
v -0.766444 0.025626 -0.104865
v -0.768931 0.025618 -0.103355
v -0.766444 0.029382 -0.104844
v -0.763707 0.029389 -0.106049
v -0.763707 0.025633 -0.106069
v -0.766444 0.025626 -0.104865
v -0.763707 0.029389 -0.106049
v -0.760739 0.029393 -0.106932
v -0.760739 0.025637 -0.106952
v -0.763707 0.025633 -0.106069
v -0.760739 0.029393 -0.106932
v -0.757561 0.029396 -0.107474
v -0.757561 0.02564 -0.107495
v -0.760739 0.025637 -0.106952
v -0.757561 0.029396 -0.107474
v -0.754192 0.029397 -0.107659
v -0.754192 0.025641 -0.10768
v -0.757561 0.02564 -0.107495
v -0.754192 0.029397 -0.107659
v -0.751067 0.029396 -0.107464
v -0.751067 0.02564 -0.107485
v -0.754192 0.025641 -0.10768
v -0.751067 0.029396 -0.107464
v -0.748093 0.029393 -0.106896
v -0.748093 0.025637 -0.106917
v -0.751067 0.02564 -0.107485
v -0.748093 0.029393 -0.106896
v -0.745293 0.029388 -0.105976
v -0.745293 0.025632 -0.105997
v -0.748093 0.025637 -0.106917
v -0.745293 0.029388 -0.105976
v -0.742689 0.029381 -0.104728
v -0.742689 0.025625 -0.104749
v -0.745293 0.025632 -0.105997
v -0.742689 0.029381 -0.104728
v -0.740306 0.029373 -0.103174
v -0.740306 0.025617 -0.103194
v -0.742689 0.025625 -0.104749
v -0.740306 0.029373 -0.103174
v -0.738166 0.029363 -0.101336
v -0.738166 0.025607 -0.101356
v -0.740306 0.025617 -0.103194
v -0.738166 0.029363 -0.101336
v -0.736292 0.029352 -0.099238
v -0.736292 0.025595 -0.099258
v -0.738166 0.025607 -0.101356
v -0.736292 0.029352 -0.099238
v -0.734706 0.029339 -0.096901
v -0.734706 0.025583 -0.096921
v -0.736292 0.025595 -0.099258
v -0.734706 0.029339 -0.096901
v -0.733433 0.029325 -0.094348
v -0.733433 0.025569 -0.094369
v -0.734706 0.025583 -0.096921
v -0.733433 0.029325 -0.094348
v -0.732496 0.02931 -0.091603
v -0.732496 0.025554 -0.091623
v -0.733433 0.025569 -0.094369
v -0.732496 0.02931 -0.091603
v -0.731916 0.029294 -0.088687
v -0.731916 0.025538 -0.088707
v -0.732496 0.025554 -0.091623
v -0.731916 0.029294 -0.088687
v -0.731718 0.029277 -0.085623
v -0.731718 0.025521 -0.085644
v -0.731916 0.025538 -0.088707
v -0.731718 0.029277 -0.085623
v -0.73187 0.029263 -0.083074
v -0.73187 0.025507 -0.083095
v -0.731718 0.025521 -0.085644
v -0.73187 0.029263 -0.083074
v -0.732317 0.02925 -0.080604
v -0.732317 0.025494 -0.080624
v -0.73187 0.025507 -0.083095
v -0.732317 0.02925 -0.080604
v -0.733043 0.029237 -0.078231
v -0.733043 0.025481 -0.078252
v -0.732317 0.025494 -0.080624
v -0.733043 0.029237 -0.078231
v -0.734032 0.029225 -0.075976
v -0.734032 0.025469 -0.075996
v -0.733043 0.025481 -0.078252
v -0.734032 0.029225 -0.075976
v -0.735267 0.029213 -0.073855
v -0.735267 0.025457 -0.073876
v -0.734032 0.025469 -0.075996
v -0.735267 0.029213 -0.073855
v -0.736734 0.029203 -0.07189
v -0.736734 0.025446 -0.071911
v -0.735267 0.025457 -0.073876
v -0.736734 0.029203 -0.07189
v -0.738415 0.029193 -0.070098
v -0.738415 0.025437 -0.070119
v -0.736734 0.025446 -0.071911
v -0.738415 0.029193 -0.070098
v -0.740297 0.029184 -0.068498
v -0.740297 0.025428 -0.068518
v -0.738415 0.025437 -0.070119
v -0.740297 0.029184 -0.068498
v -0.742361 0.029177 -0.06711
v -0.742361 0.02542 -0.06713
v -0.740297 0.025428 -0.068518
v -0.742361 0.029177 -0.06711
v -0.744593 0.02917 -0.065951
v -0.744593 0.025414 -0.065972
v -0.742361 0.02542 -0.06713
v -0.744593 0.02917 -0.065951
v -0.746977 0.029165 -0.065043
v -0.746977 0.025409 -0.065063
v -0.744593 0.025414 -0.065972
v -0.746977 0.029165 -0.065043
v -0.749497 0.029162 -0.064401
v -0.749497 0.025406 -0.064421
v -0.746977 0.025409 -0.065063
v -0.749497 0.029162 -0.064401
v -0.749497 0.029162 -0.064464
v -0.749497 0.025406 -0.064484
v -0.749497 0.025406 -0.064421
v -0.749497 0.029162 -0.064464
v -0.749497 0.029161 -0.064338
v -0.749497 0.025405 -0.064359
v -0.749497 0.025406 -0.064484
v -0.771289 0.029266 -0.083552
v -0.770933 0.029255 -0.081485
v -0.770933 0.025499 -0.081505
v -0.771289 0.02551 -0.083572
v -0.770933 0.029255 -0.081485
v -0.77034 0.029244 -0.079508
v -0.77034 0.025488 -0.079528
v -0.770933 0.025499 -0.081505
v -0.77034 0.029244 -0.079508
v -0.769509 0.029234 -0.077643
v -0.769509 0.025478 -0.077663
v -0.77034 0.025488 -0.079528
v -0.769509 0.029234 -0.077643
v -0.768441 0.029224 -0.075912
v -0.768441 0.025468 -0.075933
v -0.769509 0.025478 -0.077663
v -0.768441 0.029224 -0.075912
v -0.767135 0.029216 -0.07434
v -0.767135 0.02546 -0.074359
v -0.768441 0.025468 -0.075933
v -0.767135 0.029216 -0.07434
v -0.765592 0.029208 -0.072946
v -0.765592 0.025452 -0.072967
v -0.767135 0.02546 -0.074359
v -0.765592 0.029208 -0.072946
v -0.763812 0.029202 -0.071756
v -0.763812 0.025446 -0.071776
v -0.765592 0.025452 -0.072967
v -0.763812 0.029202 -0.071756
v -0.761794 0.029197 -0.07079
v -0.761794 0.02544 -0.070811
v -0.763812 0.025446 -0.071776
v -0.761794 0.029197 -0.07079
v -0.759539 0.029193 -0.070073
v -0.759539 0.025437 -0.070093
v -0.761794 0.02544 -0.070811
v -0.759539 0.029193 -0.070073
v -0.757047 0.02919 -0.069626
v -0.757047 0.025434 -0.069647
v -0.759539 0.025437 -0.070093
v -0.757047 0.02919 -0.069626
v -0.754317 0.029189 -0.069472
v -0.754317 0.025433 -0.069492
v -0.757047 0.025434 -0.069647
v -0.754317 0.029189 -0.069472
v -0.751998 0.02919 -0.069623
v -0.751998 0.025434 -0.069643
v -0.754317 0.025433 -0.069492
v -0.751998 0.02919 -0.069623
v -0.749808 0.029193 -0.07006
v -0.749808 0.025437 -0.07008
v -0.751998 0.025434 -0.069643
v -0.749808 0.029193 -0.07006
v -0.74776 0.029196 -0.070762
v -0.74776 0.02544 -0.070782
v -0.749808 0.025437 -0.07008
v -0.74776 0.029196 -0.070762
v -0.745868 0.029202 -0.071709
v -0.745868 0.025445 -0.07173
v -0.74776 0.02544 -0.070782
v -0.745868 0.029202 -0.071709
v -0.744147 0.029208 -0.07288
v -0.744147 0.025452 -0.0729
v -0.745868 0.025445 -0.07173
v -0.744147 0.029208 -0.07288
v -0.74261 0.029215 -0.074253
v -0.74261 0.025459 -0.074273
v -0.744147 0.025452 -0.0729
v -0.74261 0.029215 -0.074253
v -0.741272 0.029224 -0.075807
v -0.741272 0.025468 -0.075828
v -0.74261 0.025459 -0.074273
v -0.741272 0.029224 -0.075807
v -0.740146 0.029233 -0.077522
v -0.740146 0.025477 -0.077542
v -0.741272 0.025468 -0.075828
v -0.740146 0.029233 -0.077522
v -0.739246 0.029243 -0.079376
v -0.739246 0.025487 -0.079396
v -0.740146 0.025477 -0.077542
v -0.739246 0.029243 -0.079376
v -0.738585 0.029254 -0.081348
v -0.738585 0.025498 -0.081368
v -0.739246 0.025487 -0.079396
v -0.738585 0.029254 -0.081348
v -0.738179 0.029265 -0.083416
v -0.738179 0.025509 -0.083436
v -0.738585 0.025498 -0.081368
v -0.738179 0.029265 -0.083416
v -0.738041 0.029277 -0.085561
v -0.738041 0.025521 -0.085581
v -0.738179 0.025509 -0.083436
v -0.738041 0.029277 -0.085561
v -0.738183 0.029289 -0.087844
v -0.738183 0.025533 -0.087865
v -0.738041 0.025521 -0.085581
v -0.738183 0.029289 -0.087844
v -0.738599 0.029301 -0.090019
v -0.738599 0.025545 -0.090039
v -0.738183 0.025533 -0.087865
v -0.738599 0.029301 -0.090019
v -0.739274 0.029312 -0.092068
v -0.739274 0.025556 -0.092088
v -0.738599 0.025545 -0.090039
v -0.739274 0.029312 -0.092068
v -0.740192 0.029323 -0.093975
v -0.740192 0.025567 -0.093995
v -0.739274 0.025556 -0.092088
v -0.740192 0.029323 -0.093975
v -0.741338 0.029332 -0.095721
v -0.741338 0.025576 -0.095742
v -0.740192 0.025567 -0.093995
v -0.741338 0.029332 -0.095721
v -0.742697 0.029341 -0.097291
v -0.742697 0.025585 -0.097311
v -0.741338 0.025576 -0.095742
v -0.742697 0.029341 -0.097291
v -0.744252 0.029348 -0.098665
v -0.744252 0.025592 -0.098686
v -0.742697 0.025585 -0.097311
v -0.744252 0.029348 -0.098665
v -0.745989 0.029355 -0.099829
v -0.745989 0.025599 -0.099849
v -0.744252 0.025592 -0.098686
v -0.745989 0.029355 -0.099829
v -0.747892 0.02936 -0.100764
v -0.747892 0.025604 -0.100785
v -0.745989 0.025599 -0.099849
v -0.747892 0.02936 -0.100764
v -0.749945 0.029364 -0.101453
v -0.749945 0.025607 -0.101474
v -0.747892 0.025604 -0.100785
v -0.749945 0.029364 -0.101453
v -0.752134 0.029366 -0.101879
v -0.752134 0.02561 -0.101899
v -0.749945 0.025607 -0.101474
v -0.752134 0.029366 -0.101879
v -0.754442 0.029367 -0.102025
v -0.754442 0.025611 -0.102045
v -0.752134 0.02561 -0.101899
v -0.754442 0.029367 -0.102025
v -0.757459 0.029366 -0.101826
v -0.757459 0.02561 -0.101847
v -0.754442 0.025611 -0.102045
v -0.757459 0.029366 -0.101826
v -0.760133 0.029363 -0.101263
v -0.760133 0.025606 -0.101283
v -0.757459 0.02561 -0.101847
v -0.760133 0.029363 -0.101263
v -0.762481 0.029358 -0.100378
v -0.762481 0.025602 -0.100399
v -0.760133 0.025606 -0.101283
v -0.762481 0.029358 -0.100378
v -0.764517 0.029351 -0.099221
v -0.764517 0.025595 -0.099242
v -0.762481 0.025602 -0.100399
v -0.764517 0.029351 -0.099221
v -0.766256 0.029344 -0.097838
v -0.766256 0.025588 -0.097859
v -0.764517 0.025595 -0.099242
v -0.766256 0.029344 -0.097838
v -0.767714 0.029335 -0.096273
v -0.767714 0.025579 -0.096294
v -0.766256 0.025588 -0.097859
v -0.767714 0.029335 -0.096273
v -0.768906 0.029326 -0.094575
v -0.768906 0.02557 -0.094595
v -0.767714 0.025579 -0.096294
v -0.768906 0.029326 -0.094575
v -0.769847 0.029316 -0.092787
v -0.769847 0.02556 -0.092808
v -0.768906 0.02557 -0.094595
v -0.769847 0.029316 -0.092787
v -0.770553 0.029306 -0.090959
v -0.770553 0.02555 -0.09098
v -0.769847 0.02556 -0.092808
v -0.770553 0.029306 -0.090959
v -0.771038 0.029297 -0.089135
v -0.771038 0.02554 -0.089156
v -0.770553 0.02555 -0.09098
v -0.771038 0.029297 -0.089135
v -0.771318 0.029287 -0.087362
v -0.771318 0.025531 -0.087382
v -0.771038 0.02554 -0.089156
v -0.771318 0.029287 -0.087362
v -0.771408 0.029278 -0.085686
v -0.771408 0.025522 -0.085707
v -0.771318 0.025531 -0.087382
v -0.771408 0.029278 -0.085686
v -0.771289 0.029266 -0.083552
v -0.771289 0.02551 -0.083572
v -0.771408 0.025522 -0.085707
vn -0 1 0.0055
vn -0 1 0.0054
vn -0 1 0.0053
vn -0 1 0.005
vn -0 1 0.0054
vn -0 1 0.0055
vn -0 1 0.005
vn -0 1 0.0053
vn -0 1 0.0054
vn -0 1 0.0054
vn -0 1 0.0053
vn -0 1 0.005
vn -0 1 0.0054
vn -0 1 0.0056
vn -0 1 0.0053
vn -0 1 0.0054
vn -0 1 0.0056
vn -0 1 0.0054
vn -0 1 0.0054
vn -0 1 0.0052
vn -0 1 0.0056
vn -0 1 0.0055
vn -0 1 0.0052
vn -0 1 0.0054
vn -0 1 0.0055
vn -0 1 0.0054
vn -0 1 0.0052
vn -0 1 0.0053
vn -0 1 0.0054
vn -0 1 0.0055
vn -0 1 0.0053
vn -0 1 0.0051
vn -0 1 0.0054
vn -0 1 0.0051
vn -0 1 0.0053
vn -0 1 0.0054
vn -0 1 0.0053
vn -0 1 0.0055
vn -0 1 0.0051
vn -0 1 0.0055
vn -0 1 0.0053
vn -0 1 0.0051
vn -0 1 0.0054
vn -0 1 0.0053
vn -0 1 0.0055
vn -0 1 0.0053
vn -0 1 0.0052
vn -0 1 0.0055
vn -0 1 0.0056
vn -0 1 0.0052
vn -0 1 0.0053
vn -0 1 0.0057
vn -0 1 0.0053
vn -0 1 0.0054
vn -0 1 0.0057
vn -0.0001 1 0.0056
vn -0 1 0.0053
vn -0 1 0.0056
vn -0 1 0.0054
vn -0 1 0.0052
vn -0 1 0.0055
vn -0.0001 1 0.0056
vn -0 1 0.0057
vn -0 1 0.0056
vn -0 1 0.0059
vn -0 1 0.0054
vn -0.0001 1 0.0059
vn -0.0001 1 0.0056
vn -0 1 0.0055
vn -0 1 0.0055
vn -0 1 0.0059
vn -0 1 0.0056
vn -0.0001 1 0.0059
vn -0.0001 1 0.0055
vn -0.0001 1 0.0056
vn -0 1 0.0055
vn -0.0001 1 0.0051
vn -0 1 0.0059
vn -0 1 0.0053
vn -0.0001 1 0.0055
vn -0.0001 1 0.0059
vn -0 1 0.0055
vn -0 1 0.0053
vn -0.0001 1 0.0051
vn -0 1 0.0056
vn -0.0001 1 0.0055
vn -0 1 0.0053
vn -0 1 0.0054
vn -0 1 0.0053
vn -0 1 0.0055
vn -0 1 0.0056
vn -0 1 0.0055
vn -0.0001 1 0.0055
vn -0 1 0.0054
vn -0 1 0.0054
vn -0 1 0.0053
vn -0 1 0.0054
vn -0 1 0.0055
vn -0 1 0.0056
vn -0 1 0.0054
vn -0 1 0.0054
vn -0 1 0.0054
vn -0 1 0.0054
vn -0 1 0.0056
vn -0 1 0.0054
vn -0 1 0.0054
vn -0 1 0.0055
vn -0 1 0.0055
vn -0.0001 1 0.0057
vn -0 1 0.0055
vn -0 1 0.0054
vn -0 1 0.0054
vn -0 1 0.0053
vn -0 1 0.0056
vn -0.0001 1 0.0055
vn -0 1 0.0055
vn -0.0001 1 0.0057
vn -0 1 0.0054
vn -0 1 0.0053
vn -0 1 0.0054
vn -0.0001 1 0.0055
vn -0.0001 1 0.0055
vn -0 1 0.0055
vn -0 1 0.0054
vn -0.0001 1 0.0052
vn -0 1 0.0053
vn -0 1 0.0054
vn -0.0001 1 0.0055
vn -0.0001 1 0.0055
vn -0 1 0.0054
vn -0.0001 1 0.0055
vn -0.0001 1 0.0052
vn -0 1 0.0054
vn -0.0001 1 0.0055
vn -0 1 0.0054
vn -0 1 0.0054
vn -0 1 0.0055
vn -0.0001 1 0.0055
vn -0 1 0.0054
vn -0 1 0.0055
vn -0 1 0.0054
vn -0 1 0.0054
vn -0 1 0.0055
vn -0.0001 1 0.0055
vn -0 1 0.0055
vn -0 1 0.0055
vn -0 1 0.0054
vn -0 1 0.0055
vn -0 1 0.0055
vn -0 1 0.0055
vn -0 1 0.0054
vn -0 1 0.0054
vn -0 1 0.0055
vn -0 1 0.0055
vn -0 1 0.0054
vn -0 1 0.0054
vn -0 1 0.0055
vn -0 1 0.0055
vn -0 1 0.0055
vn -0 1 0.0055
vn -0 1 0.0054
vn -0 1 0.0055
vn -0 1 0.0055
vn -0 1 0.0055
vn -0 1 0.0055
vn -0 1 0.0055
vn -0 1 0.0054
vn -0 1 0.0054
vn -0 1 0.0055
vn -0 1 0.0054
vn -0 1 0.0055
vn -0 1 0.0055
vn -0 1 0.0054
vn -0 1 0.0055
vn -0 1 0.0054
vn -0 1 0.0054
vn -0 1 0.0055
vn -0 1 0.0055
vn -0 1 0.0054
vn -0 1 0.0054
vn -0 1 0.0054
vn 0.0001 1 0.0055
vn -0 1 0.0054
vn -0 1 0.0053
vn -0 1 0.0054
vn -0 1 0.0055
vn -0 1 0.0053
vn -0 1 0.0054
vn -0 1 0.0054
vn 0.0001 1 0.0054
vn 0.0001 1 0.0055
vn -0 1 0.0054
vn 0.0001 1 0.0054
vn -0 1 0.0053
vn 0.0001 1 0.0055
vn -0 1 0.0056
vn -0 1 0.0054
vn -0 1 0.0053
vn -0 1 0.0056
vn -0 1 0.0055
vn -0 1 0.0054
vn 0.0001 1 0.0055
vn -0 1 0.0053
vn 0.0001 1 0.0054
vn 0.0001 1 0.0055
vn -0 1 0.0056
vn -0 1 0.0053
vn -0 1 0.0053
vn -0 1 0.0055
vn -0 1 0.0056
vn 0.0001 1 0.0055
vn -0 1 0.0053
vn -0 1 0.0056
vn -0 1 0.0051
vn -0 1 0.0055
vn -0 1 0.0053
vn -0 1 0.0051
vn -0 1 0.0052
vn -0 1 0.0055
vn -0 1 0.0054
vn -0 1 0.0053
vn 0.0001 1 0.0055
vn -0 1 0.0054
vn -0 1 0.0052
vn -0 1 0.0053
vn -0.0001 1 0.0059
vn -0 1 0.0052
vn -0 1 0.0051
vn -0.0001 1 0.0059
vn -0 1 0.0056
vn -0 1 0.0052
vn -0 1 0.0052
vn -0 1 0.0052
vn -0 1 0.0054
vn -0 1 0.0052
vn -0 1 0.0055
vn -0 1 0.0052
vn -0 1 0.0051
vn -0 1 0.0056
vn -0.0001 1 0.0059
vn -0 1 0.0052
vn -0 1 0.0056
vn -0 1 0.0055
vn -0 1 0.0057
vn -0 1 0.0056
vn -0 1 0.0051
vn -0 1 0.0057
vn -0 1 0.0055
vn -0 1 0.0056
vn -0 1 0.0052
vn -0 1 0.0057
vn -0 1 0.0056
vn -0 1 0.0056
vn -0 1 0.0055
vn -0 1 0.0057
vn -0 1 0.0056
vn -0 1 0.0057
vn -0 1 0.0052
vn -0 1 0.0056
vn -0 1 0.0051
vn -0 1 0.0057
vn -0 1 0.0051
vn -0 1 0.0055
vn -0 1 0.0056
vn -0 1 0.0056
vn -0 1 0.0055
vn -0 1 0.0051
vn -0 1 0.0056
vn -0 1 0.0052
vn -0 1 0.0055
vn -0 1 0.0058
vn -0 1 0.0052
vn -0 1 0.0056
vn -0 1 0.0058
vn -0 1 0.0059
vn -0 1 0.0052
vn -0 1 0.0053
vn -0 1 0.0059
vn -0 1 0.0058
vn -0 1 0.0053
vn -0 1 0.0055
vn -0 1 0.0059
vn -0 1 0.0055
vn -0 1 0.0055
vn -0 1 0.0053
vn -0 1 0.0055
vn -0 1 0.0056
vn -0 1 0.0055
vn -0 1 0.0056
vn -0 1 0.0052
vn -0 1 0.0055
vn -0 1 0.0054
vn -0 1 0.0056
vn -0 1 0.0055
vn -0 1 0.0054
vn -0 1 0.0057
vn -0 1 0.0056
vn -0 1 0.0055
vn -0 1 0.0057
vn -0 1 0.0054
vn -0 1 0.0055
vn -0 1 0.0052
vn -0 1 0.0057
vn -0 1 0.0055
vn -0 1 0.0053
vn -0 1 0.0052
vn -0 1 0.0053
vn -0 1 0.0053
vn -0 1 0.0055
vn -0 1 0.0053
vn -0 1 0.0052
vn -0 1 0.0053
vn -0 1 0.0053
vn -0 1 0.0052
vn -0 1 0.0052
vn -0 1 0.0054
vn -0 1 0.0052
vn -0 1 0.0053
vn -0 1 0.0054
vn -0 1 0.0052
vn -0 1 0.0052
vn -0 1 0.0054
vn -0 1 0.0053
vn -0 1 0.0052
vn -0 1 0.0055
vn -0.0001 1 0.0054
vn -0.0001 1 0.0054
vn -0 1 0.0053
vn -0 1 0.0053
vn -0 1 0.0054
vn -0 1 0.0053
vn -0 1 0.0052
vn -0 1 0.0053
vn -0 1 0.0055
vn -0 1 0.0053
vn -0.0001 1 0.0054
vn -0.0003 1 0.0054
vn -0 1 0.0053
vn -0 1 0.0055
vn -0 1 0.0053
vn -0 1 0.0052
vn -0 1 0.0052
vn -0.0003 1 0.0055
vn -0 1 0.0053
vn -0.0003 1 0.0054
vn -0 1 0.0053
vn -0.0003 1 0.0055
vn -0 1 0.0052
vn -0 1 0.0053
vn -0 1 0.0053
vn -0.0003 1 0.0055
vn -0.0001 1 0.0058
vn -0 1 0.0053
vn -0 1 0.0053
vn -0.0001 1 0.0057
vn -0 1 0.0053
vn -0.0001 1 0.0058
vn -0 1 0.0054
vn -0 1 0.0053
vn -0.0001 1 0.0057
vn -0 1 0.0054
vn -0 1 0.0053
vn -0 1 0.0054
vn -0 1 0.0053
vn -0 1 0.0053
vn -0 1 0.0054
vn -0 1 0.0054
vn -0 1 0.0053
vn -0 1 0.0053
vn -0 1 0.0055
vn -0 1 0.0053
vn -0 1 0.0054
vn -0 -1 -0.0054
vn -0 -1 -0.0055
vn -0 -1 -0.0056
vn -0 -1 -0.0054
vn -0 -1 -0.005
vn -0 -1 -0.0055
vn -0 -1 -0.0053
vn -0 -1 -0.005
vn -0 -1 -0.0054
vn -0 -1 -0.0053
vn -0 -1 -0.0058
vn -0 -1 -0.005
vn -0 -1 -0.0056
vn -0 -1 -0.0058
vn -0 -1 -0.0053
vn -0 -1 -0.0056
vn -0 -1 -0.0054
vn -0 -1 -0.0058
vn -0 -1 -0.0052
vn -0 -1 -0.0054
vn -0 -1 -0.0056
vn -0 -1 -0.0052
vn -0 -1 -0.0055
vn -0 -1 -0.0054
vn -0 -1 -0.0054
vn -0 -1 -0.0055
vn -0 -1 -0.0052
vn -0 -1 -0.0054
vn -0 -1 -0.0054
vn -0 -1 -0.0055
vn -0 -1 -0.0051
vn -0 -1 -0.0054
vn -0 -1 -0.0054
vn -0 -1 -0.0056
vn -0 -1 -0.0051
vn -0 -1 -0.0054
vn -0 -1 -0.0055
vn -0 -1 -0.0054
vn -0 -1 -0.0051
vn -0 -1 -0.0056
vn -0 -1 -0.0055
vn -0 -1 -0.0051
vn -0 -1 -0.0056
vn -0 -1 -0.0055
vn -0 -1 -0.0055
vn -0 -1 -0.0055
vn -0 -1 -0.0054
vn -0 -1 -0.0055
vn -0 -1 -0.0055
vn -0.0001 -1 -0.0056
vn -0 -1 -0.0054
vn -0 -1 -0.0056
vn -0 -1 -0.0052
vn -0 -1 -0.0055
vn -0 -1 -0.0053
vn -0 -1 -0.0052
vn -0 -1 -0.0056
vn -0 -1 -0.005
vn -0.0001 -1 -0.0056
vn -0 -1 -0.0055
vn -0 -1 -0.0053
vn -0.0001 -1 -0.0053
vn -0 -1 -0.0052
vn -0 -1 -0.0059
vn -0.0001 -1 -0.0056
vn -0 -1 -0.005
vn -0 -1 -0.0053
vn -0 -1 -0.0057
vn -0.0001 -1 -0.0053
vn -0 -1 -0.0059
vn -0 -1 -0.0055
vn -0.0001 -1 -0.0056
vn -0 -1 -0.0054
vn -0 -1 -0.0057
vn -0 -1 -0.0053
vn 0.0001 -1 -0.0051
vn -0 -1 -0.0055
vn -0 -1 -0.0059
vn -0 -1 -0.0054
vn -0 -1 -0.0053
vn -0 -1 -0.0057
vn -0 -1 -0.0053
vn -0 -1 -0.0055
vn 0.0001 -1 -0.0051
vn -0 -1 -0.0054
vn -0 -1 -0.0056
vn -0 -1 -0.0053
vn -0 -1 -0.0053
vn -0 -1 -0.0054
vn -0 -1 -0.0055
vn -0 -1 -0.0055
vn -0 -1 -0.0056
vn -0 -1 -0.0054
vn -0 -1 -0.0054
vn -0 -1 -0.0054
vn -0 -1 -0.0053
vn -0 -1 -0.0055
vn -0 -1 -0.0054
vn -0 -1 -0.0056
vn -0 -1 -0.0054
vn -0 -1 -0.0054
vn -0 -1 -0.0054
vn -0 -1 -0.0056
vn -0 -1 -0.0054
vn -0 -1 -0.0054
vn -0 -1 -0.0055
vn -0 -1 -0.0054
vn -0 -1 -0.0055
vn -0 -1 -0.0055
vn 0.0001 -1 -0.0057
vn -0 -1 -0.0054
vn -0 -1 -0.0055
vn -0 -1 -0.0054
vn -0 -1 -0.0056
vn -0 -1 -0.0055
vn 0.0001 -1 -0.0055
vn 0.0001 -1 -0.0057
vn -0 -1 -0.0055
vn -0 -1 -0.0054
vn -0 -1 -0.0054
vn 0.0001 -1 -0.0055
vn 0.0001 -1 -0.0055
vn -0 -1 -0.0055
vn -0 -1 -0.0053
vn -0 -1 -0.0054
vn -0 -1 -0.0055
vn 0.0001 -1 -0.0055
vn -0 -1 -0.0054
vn 0.0001 -1 -0.0055
vn -0 -1 -0.0052
vn -0 -1 -0.0054
vn -0 -1 -0.0053
vn -0 -1 -0.0052
vn -0 -1 -0.0054
vn -0 -1 -0.0054
vn -0 -1 -0.0055
vn -0 -1 -0.0054
vn 0.0001 -1 -0.0055
vn -0 -1 -0.0055
vn -0 -1 -0.0054
vn -0 -1 -0.0054
vn -0 -1 -0.0055
vn -0 -1 -0.0054
vn -0 -1 -0.0052
vn -0 -1 -0.0055
vn -0 -1 -0.0055
vn -0 -1 -0.0054
vn -0 -1 -0.0055
vn -0 -1 -0.0055
vn -0 -1 -0.0055
vn -0 -1 -0.0054
vn -0 -1 -0.0054
vn -0 -1 -0.0055
vn -0 -1 -0.0054
vn -0 -1 -0.0055
vn -0 -1 -0.0054
vn -0 -1 -0.0055
vn -0 -1 -0.0055
vn -0 -1 -0.0055
vn -0 -1 -0.0054
vn -0 -1 -0.0055
vn -0 -1 -0.0055
vn -0 -1 -0.0055
vn -0 -1 -0.0055
vn -0 -1 -0.0055
vn -0 -1 -0.0054
vn -0 -1 -0.0055
vn -0 -1 -0.0054
vn -0 -1 -0.0054
vn -0 -1 -0.0055
vn -0 -1 -0.0055
vn -0 -1 -0.0054
vn -0 -1 -0.0055
vn -0 -1 -0.0055
vn -0 -1 -0.0054
vn -0 -1 -0.0055
vn -0 -1 -0.0055
vn -0 -1 -0.0054
vn -0 -1 -0.0055
vn -0 -1 -0.0054
vn -0 -1 -0.0056
vn -0 -1 -0.0055
vn -0 -1 -0.0054
vn -0 -1 -0.0054
vn -0 -1 -0.0053
vn -0 -1 -0.0055
vn -0 -1 -0.0054
vn -0 -1 -0.0053
vn -0 -1 -0.0054
vn -0 -1 -0.0056
vn -0 -1 -0.0055
vn -0 -1 -0.0055
vn -0 -1 -0.0053
vn -0 -1 -0.0055
vn -0 -1 -0.0056
vn -0 -1 -0.0054
vn -0 -1 -0.0056
vn -0 -1 -0.0053
vn -0 -1 -0.0053
vn -0 -1 -0.0056
vn -0 -1 -0.0054
vn -0 -1 -0.0053
vn -0 -1 -0.0053
vn -0 -1 -0.0055
vn -0 -1 -0.0056
vn -0 -1 -0.0053
vn -0 -1 -0.0053
vn -0 -1 -0.0053
vn -0 -1 -0.0053
vn -0 -1 -0.0056
vn -0 -1 -0.0053
vn -0 -1 -0.0053
vn -0 -1 -0.0056
vn -0 -1 -0.0053
vn -0 -1 -0.0058
vn -0 -1 -0.0053
vn -0 -1 -0.0055
vn -0 -1 -0.0058
vn -0 -1 -0.0053
vn -0 -1 -0.0053
vn -0 -1 -0.0056
vn -0 -1 -0.0053
vn -0 -1 -0.0059
vn -0 -1 -0.0056
vn -0 -1 -0.0053
vn -0 -1 -0.0055
vn -0 -1 -0.0053
vn -0 -1 -0.0058
vn -0 -1 -0.0051
vn -0 -1 -0.0053
vn -0 -1 -0.0055
vn -0 -1 -0.0059
vn -0 -1 -0.0055
vn -0 -1 -0.0056
vn -0 -1 -0.0052
vn -0 -1 -0.0055
vn -0 -1 -0.0059
vn -0 -1 -0.0051
vn -0 -1 -0.0053
vn -0 -1 -0.0053
vn -0 -1 -0.0054
vn -0 -1 -0.0055
vn -0 -1 -0.0052
vn -0 -1 -0.0051
vn -0 -1 -0.0057
vn -0 -1 -0.0053
vn -0 -1 -0.0057
vn -0 -1 -0.0057
vn -0 -1 -0.0051
vn -0 -1 -0.0053
vn -0 -1 -0.0055
vn -0 -1 -0.0054
vn -0 -1 -0.0057
vn 0.0001 -1 -0.0059
vn -0 -1 -0.0057
vn -0 -1 -0.0053
vn -0 -1 -0.0052
vn -0 -1 -0.0055
vn -0 -1 -0.0051
vn -0 -1 -0.0052
vn -0 -1 -0.0053
vn -0 -1 -0.0057
vn -0 -1 -0.0051
vn 0.0001 -1 -0.0059
vn -0 -1 -0.0057
vn -0 -1 -0.0052
vn -0 -1 -0.0051
vn -0 -1 -0.0057
vn -0 -1 -0.0052
vn -0 -1 -0.0057
vn -0 -1 -0.0057
vn -0 -1 -0.0057
vn -0 -1 -0.0052
vn -0 -1 -0.0052
vn -0 -1 -0.0057
vn -0 -1 -0.0057
vn -0 -1 -0.0052
vn -0 -1 -0.0053
vn -0 -1 -0.0057
vn -0 -1 -0.0054
vn -0 -1 -0.0053
vn -0 -1 -0.0052
vn -0 -1 -0.0054
vn -0 -1 -0.0055
vn -0 -1 -0.0053
vn -0 -1 -0.0056
vn -0 -1 -0.0055
vn -0 -1 -0.0054
vn -0 -1 -0.0052
vn -0 -1 -0.0056
vn -0 -1 -0.0054
vn -0 -1 -0.0056
vn -0 -1 -0.0054
vn -0 -1 -0.0055
vn -0 -1 -0.0056
vn -0 -1 -0.0054
vn -0 -1 -0.0056
vn -0 -1 -0.0056
vn -0 -1 -0.0055
vn -0 -1 -0.0054
vn -0 -1 -0.0052
vn -0 -1 -0.0055
vn -0 -1 -0.0056
vn -0 -1 -0.0053
vn -0 -1 -0.0055
vn -0 -1 -0.0052
vn -0 -1 -0.0053
vn -0 -1 -0.0057
vn -0 -1 -0.0055
vn -0 -1 -0.0056
vn -0 -1 -0.0057
vn -0 -1 -0.0053
vn -0 -1 -0.0053
vn -0 -1 -0.0057
vn -0 -1 -0.0056
vn -0 -1 -0.0053
vn -0 -1 -0.0051
vn -0 -1 -0.0057
vn -0 -1 -0.0051
vn -0 -1 -0.0051
vn -0 -1 -0.0053
vn -0 -1 -0.005
vn -0 -1 -0.0051
vn -0 -1 -0.0051
vn -0.0003 -1 -0.0054
vn -0.0002 -1 -0.0057
vn -0.0003 -1 -0.0051
vn -0 -1 -0.005
vn -0 -1 -0.0053
vn -0 -1 -0.0051
vn -0 -1 -0.0053
vn -0 -1 -0.0053
vn -0 -1 -0.005
vn -0 -1 -0.0055
vn -0.0002 -1 -0.0057
vn -0.0003 -1 -0.0054
vn -0 -1 -0.0055
vn 0.0003 -1 -0.0054
vn -0.0002 -1 -0.0057
vn -0 -1 -0.0052
vn -0 -1 -0.0053
vn -0 -1 -0.0053
vn -0 -1 -0.0055
vn 0.0004 -1 -0.0052
vn 0.0003 -1 -0.0054
vn 0.0004 -1 -0.0052
vn -0 -1 -0.0053
vn -0 -1 -0.0052
vn -0 -1 -0.0055
vn -0 -1 -0.0053
vn 0.0004 -1 -0.0052
vn -0 -1 -0.0055
vn 0.0001 -1 -0.0058
vn -0 -1 -0.0053
vn -0 -1 -0.0055
vn -0 -1 -0.0053
vn 0.0001 -1 -0.0058
vn -0 -1 -0.0055
vn -0 -1 -0.0054
vn -0 -1 -0.0053
vn -0 -1 -0.0055
vn -0 -1 -0.0054
vn -0 -1 -0.0054
vn -0 -1 -0.0055
vn -0 -1 -0.0053
vn -0 -1 -0.0054
vn -0 -1 -0.0055
vn -0 -1 -0.0055
vn -0 -1 -0.0053
vn -0 -1 -0.0055
vn -0 -1 -0.0055
vn -0 -1 -0.0055
vn 0.8317 0.003 -0.5553
vn 0.374 0.0052 -0.9274
vn 0.374 0.0052 -0.9274
vn 0.8317 0.003 -0.5553
vn 0.374 0.0052 -0.9274
vn 0.3527 0.0049 -0.9357
vn 0.3526 0.0052 -0.9358
vn 0.374 0.0052 -0.9274
vn 0.3527 0.0049 -0.9357
vn 0.3249 0.0052 -0.9457
vn 0.3249 0.0052 -0.9457
vn 0.3526 0.0052 -0.9358
vn 0.3249 0.0052 -0.9457
vn 0.2898 0.0052 -0.9571
vn 0.2898 0.0052 -0.9571
vn 0.3249 0.0052 -0.9457
vn 0.2898 0.0052 -0.9571
vn 0.2463 0.0054 -0.9692
vn 0.2463 0.0054 -0.9692
vn 0.2898 0.0052 -0.9571
vn 0.2463 0.0054 -0.9692
vn 0.1932 0.0055 -0.9811
vn 0.1932 0.0055 -0.9811
vn 0.2463 0.0054 -0.9692
vn 0.1932 0.0055 -0.9811
vn 0.1304 0.0055 -0.9915
vn 0.1304 0.0055 -0.9915
vn 0.1932 0.0055 -0.9811
vn 0.1304 0.0055 -0.9915
vn 0.058 0.0054 -0.9983
vn 0.058 0.0054 -0.9983
vn 0.1304 0.0055 -0.9915
vn 0.058 0.0054 -0.9983
vn -0.0218 0.0053 -0.9997
vn -0.0218 0.0057 -0.9997
vn 0.058 0.0054 -0.9983
vn -0.0218 0.0053 -0.9997
vn -0.1062 0.0054 -0.9943
vn -0.1062 0.0054 -0.9943
vn -0.0218 0.0057 -0.9997
vn -0.1062 0.0054 -0.9943
vn -0.1909 0.0054 -0.9816
vn -0.1909 0.0054 -0.9816
vn -0.1062 0.0054 -0.9943
vn -0.1909 0.0054 -0.9816
vn 0.2711 0.0053 -0.9625
vn 0.2716 0.0052 -0.9624
vn -0.1909 0.0054 -0.9816
vn 0.2711 0.0053 -0.9625
vn 1 -0 0.003
vn 1 -0 0.0027
vn 0.2716 0.0052 -0.9624
vn 1 -0 0.003
vn 0.3299 -0.0051 0.944
vn 0.3299 -0.0054 0.944
vn 1 -0 0.0027
vn 0.3299 -0.0051 0.944
vn -0.138 -0.0053 0.9904
vn -0.138 -0.0053 0.9904
vn 0.3299 -0.0054 0.944
vn -0.138 -0.0053 0.9904
vn -0.1988 -0.0054 0.98
vn -0.1988 -0.0054 0.98
vn -0.138 -0.0053 0.9904
vn -0.1988 -0.0054 0.98
vn -0.2567 -0.0054 0.9665
vn -0.2569 -0.0051 0.9664
vn -0.1988 -0.0054 0.98
vn -0.2567 -0.0054 0.9665
vn -0.3111 -0.0052 0.9504
vn -0.3111 -0.0052 0.9504
vn -0.2569 -0.0051 0.9664
vn -0.3111 -0.0052 0.9504
vn -0.3615 -0.0051 0.9324
vn -0.3615 -0.0051 0.9324
vn -0.3111 -0.0052 0.9504
vn -0.3615 -0.0051 0.9324
vn -0.4075 -0.005 0.9132
vn -0.4075 -0.005 0.9132
vn -0.3615 -0.0051 0.9324
vn -0.4075 -0.005 0.9132
vn -0.449 -0.0048 0.8935
vn -0.449 -0.0048 0.8935
vn -0.4075 -0.005 0.9132
vn -0.449 -0.0048 0.8935
vn -0.4862 -0.0047 0.8738
vn -0.4862 -0.0047 0.8738
vn -0.449 -0.0048 0.8935
vn -0.4862 -0.0047 0.8738
vn -0.5188 -0.0047 0.8549
vn -0.5188 -0.0047 0.8549
vn -0.4862 -0.0047 0.8738
vn -0.5188 -0.0047 0.8549
vn -0.5474 -0.0045 0.8369
vn -0.5474 -0.0045 0.8369
vn -0.5188 -0.0047 0.8549
vn -0.5474 -0.0045 0.8369
vn -0.5719 -0.0044 0.8203
vn -0.5719 -0.0044 0.8203
vn -0.5474 -0.0045 0.8369
vn -0.5719 -0.0044 0.8203
vn -0.4192 -0.0048 0.9079
vn -0.4192 -0.0048 0.9079
vn -0.5719 -0.0044 0.8203
vn -0.4192 -0.0048 0.9079
vn -0.2947 -0.0051 0.9556
vn -0.2947 -0.0051 0.9556
vn -0.4192 -0.0048 0.9079
vn -0.2947 -0.0051 0.9556
vn -0.4008 -0.0049 0.9162
vn -0.4008 -0.0049 0.9162
vn -0.2947 -0.0051 0.9556
vn -0.4008 -0.0049 0.9162
vn -0.5025 -0.0047 0.8646
vn -0.5025 -0.0047 0.8646
vn -0.4008 -0.0049 0.9162
vn -0.5025 -0.0047 0.8646
vn -0.5982 -0.0043 0.8013
vn -0.5982 -0.0043 0.8014
vn -0.5025 -0.0047 0.8646
vn -0.5982 -0.0043 0.8013
vn -0.6864 -0.0039 0.7272
vn -0.6864 -0.0039 0.7272
vn -0.5982 -0.0043 0.8014
vn -0.6864 -0.0039 0.7272
vn -0.7659 -0.0035 0.643
vn -0.7659 -0.0035 0.643
vn -0.6864 -0.0039 0.7272
vn -0.7659 -0.0035 0.643
vn -0.8353 -0.003 0.5498
vn -0.8353 -0.003 0.5498
vn -0.7659 -0.0035 0.643
vn -0.8353 -0.003 0.5498
vn -0.8936 -0.0024 0.4488
vn -0.8936 -0.0024 0.4488
vn -0.8353 -0.003 0.5498
vn -0.8936 -0.0024 0.4488
vn -0.9399 -0.0019 0.3414
vn -0.9399 -0.0019 0.3414
vn -0.8936 -0.0024 0.4488
vn -0.9399 -0.0019 0.3414
vn -0.9733 -0.0013 0.2296
vn -0.9733 -0.0013 0.2296
vn -0.9399 -0.0019 0.3414
vn -0.9733 -0.0013 0.2296
vn -0.9933 -0.0006 0.1152
vn -0.9933 -0.0006 0.1152
vn -0.9733 -0.0013 0.2296
vn -0.9933 -0.0006 0.1152
vn -1 -0 -0.0028
vn -1 -0 -0.0028
vn -0.9933 -0.0006 0.1152
vn -1 -0 -0.0028
vn -0.9917 0.0007 -0.1287
vn -0.9917 0.0007 -0.1287
vn -1 -0 -0.0028
vn -0.9917 0.0007 -0.1287
vn -0.9656 0.0014 -0.2599
vn -0.9657 0.0014 -0.2596
vn -0.9917 0.0007 -0.1287
vn -0.9656 0.0014 -0.2599
vn -0.9207 0.0021 -0.3902
vn -0.9207 0.0021 -0.3902
vn -0.9657 0.0014 -0.2596
vn -0.9207 0.0021 -0.3902
vn -0.8573 0.0027 -0.5149
vn -0.8573 0.0027 -0.5148
vn -0.9207 0.0021 -0.3902
vn -0.8573 0.0027 -0.5149
vn -0.7765 0.0034 -0.6301
vn -0.7765 0.0034 -0.6301
vn -0.8573 0.0027 -0.5148
vn -0.7765 0.0034 -0.6301
vn -0.6813 0.0039 -0.732
vn -0.6813 0.0039 -0.732
vn -0.7765 0.0034 -0.6301
vn -0.6813 0.0039 -0.732
vn -0.5753 0.0044 -0.8179
vn -0.5753 0.0044 -0.8179
vn -0.6813 0.0039 -0.732
vn -0.5753 0.0044 -0.8179
vn -0.4618 0.0048 -0.887
vn -0.4618 0.0048 -0.887
vn -0.5753 0.0044 -0.8179
vn -0.4618 0.0048 -0.887
vn -0.3447 0.0051 -0.9387
vn -0.3447 0.0051 -0.9387
vn -0.4618 0.0048 -0.887
vn -0.3447 0.0051 -0.9387
vn -0.2271 0.0053 -0.9738
vn -0.2271 0.0053 -0.9739
vn -0.3447 0.0051 -0.9387
vn -0.2271 0.0053 -0.9738
vn -0.1117 0.0055 -0.9937
vn -0.1117 0.0055 -0.9937
vn -0.2271 0.0053 -0.9739
vn -0.1117 0.0055 -0.9937
vn 0.0037 0.0056 -1
vn 0.0037 0.0056 -1
vn -0.1117 0.0055 -0.9937
vn 0.0037 0.0056 -1
vn 0.1252 0.0055 -0.9921
vn 0.1252 0.0052 -0.9921
vn 0.0037 0.0056 -1
vn 0.1252 0.0055 -0.9921
vn 0.2504 0.0054 -0.9681
vn 0.2504 0.0054 -0.9681
vn 0.1252 0.0052 -0.9921
vn 0.2504 0.0054 -0.9681
vn 0.3731 0.0047 -0.9278
vn 0.373 0.0052 -0.9278
vn 0.2504 0.0054 -0.9681
vn 0.3731 0.0047 -0.9278
vn 0.4903 0.0048 -0.8715
vn 0.4903 0.0048 -0.8715
vn 0.373 0.0052 -0.9278
vn 0.4903 0.0048 -0.8715
vn 0.6003 0.0043 -0.7998
vn 0.6003 0.0043 -0.7998
vn 0.4903 0.0048 -0.8715
vn 0.6003 0.0043 -0.7998
vn 0.7002 0.0038 -0.7139
vn 0.7002 0.0038 -0.7139
vn 0.6003 0.0043 -0.7998
vn 0.7002 0.0038 -0.7139
vn 0.7884 0.0033 -0.6152
vn 0.7884 0.0033 -0.6152
vn 0.7002 0.0038 -0.7139
vn 0.7884 0.0033 -0.6152
vn 0.8631 0.0027 -0.505
vn 0.8631 0.0027 -0.505
vn 0.7884 0.0033 -0.6152
vn 0.8631 0.0027 -0.505
vn 0.9227 0.0021 -0.3855
vn 0.9227 0.0021 -0.3855
vn 0.8631 0.0027 -0.505
vn 0.9227 0.0021 -0.3855
vn 0.9657 0.0014 -0.2596
vn 0.9657 0.0014 -0.2596
vn 0.9227 0.0021 -0.3855
vn 0.9657 0.0014 -0.2596
vn 0.9915 0.0007 -0.1301
vn 0.9915 0.0007 -0.1301
vn 0.9657 0.0014 -0.2596
vn 0.9915 0.0007 -0.1301
vn 1 -0 -0.0025
vn 1 -0 -0.0025
vn 0.9915 0.0007 -0.1301
vn 1 -0 -0.0025
vn 0.9929 -0.0007 0.119
vn 0.9929 -0.0007 0.119
vn 1 -0 -0.0025
vn 0.9929 -0.0007 0.119
vn 0.9718 -0.0013 0.2357
vn 0.9718 -0.0013 0.2357
vn 0.9929 -0.0007 0.119
vn 0.9718 -0.0013 0.2357
vn 0.9376 -0.0019 0.3477
vn 0.9376 -0.0019 0.3477
vn 0.9718 -0.0013 0.2357
vn 0.9376 -0.0019 0.3477
vn 0.8914 -0.0025 0.4531
vn 0.8914 -0.0025 0.4532
vn 0.9376 -0.0019 0.3477
vn 0.8914 -0.0025 0.4531
vn 0.8341 -0.003 0.5516
vn 0.8341 -0.003 0.5516
vn 0.8914 -0.0025 0.4532
vn 0.8341 -0.003 0.5516
vn 0.7665 -0.0036 0.6422
vn 0.7665 -0.0036 0.6422
vn 0.8341 -0.003 0.5516
vn 0.7665 -0.0036 0.6422
vn 0.6897 -0.004 0.7241
vn 0.6897 -0.004 0.7241
vn 0.7665 -0.0036 0.6422
vn 0.6897 -0.004 0.7241
vn 0.6039 -0.0043 0.797
vn 0.6039 -0.0043 0.7971
vn 0.6897 -0.004 0.7241
vn 0.6039 -0.0043 0.797
vn 0.5102 -0.0046 0.8601
vn 0.5102 -0.0046 0.8601
vn 0.6039 -0.0043 0.7971
vn 0.5102 -0.0046 0.8601
vn 0.4091 -0.005 0.9125
vn 0.4091 -0.005 0.9125
vn 0.5102 -0.0046 0.8601
vn 0.4091 -0.005 0.9125
vn 0.302 -0.0051 0.9533
vn 0.302 -0.0051 0.9533
vn 0.4091 -0.005 0.9125
vn 0.302 -0.0051 0.9533
vn -0.6139 -0.0043 0.7894
vn -0.6137 -0.0043 0.7895
vn 0.302 -0.0051 0.9533
vn -0.6139 -0.0043 0.7894
vn 0.0307 0.9995 -0
vn -0.0916 0.9958 -0
vn -0.6137 -0.0043 0.7895
vn 0.0307 0.9995 -0
vn 0.8317 0.003 -0.5553
vn 0.8317 0.003 -0.5553
vn -0.0916 0.9958 -0
vn 0.9936 0.0006 -0.1129
vn 0.9734 0.0012 -0.2289
vn 0.9734 0.0012 -0.2289
vn 0.9936 0.0006 -0.1129
vn 0.9734 0.0012 -0.2289
vn 0.9376 0.0019 -0.3478
vn 0.9375 0.0019 -0.3478
vn 0.9734 0.0012 -0.2289
vn 0.9376 0.0019 -0.3478
vn 0.8842 0.0025 -0.4671
vn 0.8842 0.0025 -0.4671
vn 0.9375 0.0019 -0.3478
vn 0.8842 0.0025 -0.4671
vn 0.8122 0.0031 -0.5834
vn 0.8122 0.0031 -0.5834
vn 0.8842 0.0025 -0.4671
vn 0.8122 0.0031 -0.5834
vn 0.7216 0.0037 -0.6923
vn 0.7218 0.0037 -0.6921
vn 0.8122 0.0031 -0.5834
vn 0.7216 0.0037 -0.6923
vn 0.6146 0.0043 -0.7888
vn 0.6146 0.0043 -0.7888
vn 0.7218 0.0037 -0.6921
vn 0.6146 0.0043 -0.7888
vn 0.4948 0.0047 -0.869
vn 0.4948 0.0047 -0.869
vn 0.6146 0.0043 -0.7888
vn 0.4948 0.0047 -0.869
vn 0.3683 0.0051 -0.9297
vn 0.3683 0.0051 -0.9297
vn 0.4948 0.0047 -0.869
vn 0.3683 0.0051 -0.9297
vn 0.2403 0.0053 -0.9707
vn 0.2403 0.0053 -0.9707
vn 0.3683 0.0051 -0.9297
vn 0.2403 0.0053 -0.9707
vn 0.1167 0.0054 -0.9932
vn 0.1166 0.0054 -0.9932
vn 0.2403 0.0053 -0.9707
vn 0.1167 0.0054 -0.9932
vn -0.0042 0.0054 -1
vn -0.0042 0.0054 -1
vn 0.1166 0.0054 -0.9932
vn -0.0042 0.0054 -1
vn -0.1306 0.0053 -0.9914
vn -0.1306 0.0053 -0.9914
vn -0.0042 0.0054 -1
vn -0.1306 0.0053 -0.9914
vn -0.2605 0.0051 -0.9654
vn -0.2606 0.0051 -0.9654
vn -0.1306 0.0053 -0.9914
vn -0.2605 0.0051 -0.9654
vn -0.3869 0.005 -0.9221
vn -0.3869 0.005 -0.9221
vn -0.2606 0.0051 -0.9654
vn -0.3869 0.005 -0.9221
vn -0.5062 0.0047 -0.8624
vn -0.5062 0.0047 -0.8624
vn -0.3869 0.005 -0.9221
vn -0.5062 0.0047 -0.8624
vn -0.6156 0.0043 -0.788
vn -0.6156 0.0043 -0.788
vn -0.5062 0.0047 -0.8624
vn -0.6156 0.0043 -0.788
vn -0.7136 0.0038 -0.7006
vn -0.7136 0.0038 -0.7006
vn -0.6156 0.0043 -0.788
vn -0.7136 0.0038 -0.7006
vn -0.7986 0.0033 -0.6019
vn -0.7986 0.0033 -0.6019
vn -0.7136 0.0038 -0.7006
vn -0.7986 0.0033 -0.6019
vn -0.8694 0.0027 -0.4941
vn -0.8696 0.0027 -0.4938
vn -0.7986 0.0033 -0.6019
vn -0.8694 0.0027 -0.4941
vn -0.9258 0.002 -0.378
vn -0.9258 0.002 -0.378
vn -0.8696 0.0027 -0.4938
vn -0.9258 0.002 -0.378
vn -0.9667 0.0014 -0.2558
vn -0.9667 0.0014 -0.2558
vn -0.9258 0.002 -0.378
vn -0.9667 0.0014 -0.2558
vn -0.9917 0.0007 -0.1287
vn -0.9917 0.0007 -0.1287
vn -0.9667 0.0014 -0.2558
vn -0.9917 0.0007 -0.1287
vn -1 -0 -0.0011
vn -1 -0 -0.0011
vn -0.9917 0.0007 -0.1287
vn -1 -0 -0.0011
vn -0.9921 -0.0007 0.1252
vn -0.9921 -0.0007 0.1252
vn -1 -0 -0.0011
vn -0.9921 -0.0007 0.1252
vn -0.968 -0.0013 0.2509
vn -0.968 -0.0013 0.2509
vn -0.9921 -0.0007 0.1252
vn -0.968 -0.0013 0.2509
vn -0.9274 -0.002 0.3741
vn -0.9274 -0.002 0.3741
vn -0.968 -0.0013 0.2509
vn -0.9274 -0.002 0.3741
vn -0.8705 -0.0027 0.4922
vn -0.8705 -0.0027 0.4922
vn -0.9274 -0.002 0.3741
vn -0.8705 -0.0027 0.4922
vn -0.7978 -0.0033 0.6029
vn -0.7978 -0.0033 0.6029
vn -0.8705 -0.0027 0.4922
vn -0.7978 -0.0033 0.6029
vn -0.7107 -0.0038 0.7035
vn -0.711 -0.0037 0.7031
vn -0.7978 -0.0033 0.6029
vn -0.7107 -0.0038 0.7035
vn -0.6108 -0.0043 0.7918
vn -0.6108 -0.0043 0.7918
vn -0.711 -0.0037 0.7031
vn -0.6108 -0.0043 0.7918
vn -0.5 -0.0047 0.866
vn -0.5 -0.0047 0.866
vn -0.6108 -0.0043 0.7918
vn -0.5 -0.0047 0.866
vn -0.3805 -0.0051 0.9248
vn -0.3805 -0.0051 0.9248
vn -0.5 -0.0047 0.866
vn -0.3805 -0.0051 0.9248
vn -0.255 -0.0053 0.9669
vn -0.255 -0.0053 0.9669
vn -0.3805 -0.0051 0.9248
vn -0.255 -0.0053 0.9669
vn -0.1272 -0.0053 0.9919
vn -0.1272 -0.0053 0.9919
vn -0.255 -0.0053 0.9669
vn -0.1272 -0.0053 0.9919
vn 0.0014 -0.0057 1
vn 0.0013 -0.0054 1
vn -0.1272 -0.0053 0.9919
vn 0.0014 -0.0057 1
vn 0.1363 -0.0054 0.9907
vn 0.1363 -0.0054 0.9907
vn 0.0013 -0.0054 1
vn 0.1363 -0.0054 0.9907
vn 0.2802 -0.0052 0.9599
vn 0.2802 -0.0052 0.9599
vn 0.1363 -0.0054 0.9907
vn 0.2802 -0.0052 0.9599
vn 0.4246 -0.005 0.9054
vn 0.4246 -0.005 0.9054
vn 0.2802 -0.0052 0.9599
vn 0.4246 -0.005 0.9054
vn 0.5599 -0.0046 0.8285
vn 0.5599 -0.0046 0.8285
vn 0.4246 -0.005 0.9054
vn 0.5599 -0.0046 0.8285
vn 0.6789 -0.0041 0.7342
vn 0.6789 -0.0041 0.7342
vn 0.5599 -0.0046 0.8285
vn 0.6789 -0.0041 0.7342
vn 0.777 -0.0035 0.6295
vn 0.777 -0.0035 0.6295
vn 0.6789 -0.0041 0.7342
vn 0.777 -0.0035 0.6295
vn 0.8534 -0.0028 0.5212
vn 0.8534 -0.0028 0.5212
vn 0.777 -0.0035 0.6295
vn 0.8534 -0.0028 0.5212
vn 0.9104 -0.0023 0.4137
vn 0.9104 -0.0023 0.4137
vn 0.8534 -0.0028 0.5212
vn 0.9104 -0.0023 0.4137
vn 0.951 -0.0017 0.3091
vn 0.951 -0.0017 0.3091
vn 0.9104 -0.0023 0.4137
vn 0.951 -0.0017 0.3091
vn 0.9784 -0.0011 0.2067
vn 0.9784 -0.0011 0.2067
vn 0.951 -0.0017 0.3091
vn 0.9784 -0.0011 0.2067
vn 0.9945 -0.0006 0.1049
vn 0.9945 -0.0006 0.1049
vn 0.9784 -0.0011 0.2067
vn 0.9945 -0.0006 0.1049
vn 1 -0 -0.001
vn 1 -0 -0.001
vn 0.9945 -0.0006 0.1049
vn 1 -0 -0.001
vn 0.9936 0.0006 -0.1129
vn 0.9936 0.0006 -0.1129
vn 1 -0 -0.001
vt 0.398374 1
vt 0.414634 1
vt 0.406504 1
vt 0.390244 1
vt 0.414634 1
vt 0.398374 1
vt 0.390244 1
vt 0.422764 1
vt 0.414634 1
vt 0.382114 1
vt 0.422764 1
vt 0.390244 1
vt 0.382114 1
vt 0.430894 1
vt 0.422764 1
vt 0.373984 1
vt 0.430894 1
vt 0.382114 1
vt 0.373984 1
vt 0.439024 1
vt 0.430894 1
vt 0.365854 1
vt 0.439024 1
vt 0.373984 1
vt 0.365854 1
vt 0.447154 1
vt 0.439024 1
vt 0.357724 1
vt 0.447154 1
vt 0.365854 1
vt 0.357724 1
vt 0.902439 1
vt 0.447154 1
vt 0.902439 1
vt 0.455285 1
vt 0.447154 1
vt 0.357724 1
vt 0.910569 1
vt 0.902439 1
vt 0.894309 1
vt 0.455285 1
vt 0.902439 1
vt 0.886179 1
vt 0.455285 1
vt 0.894309 1
vt 0.357724 1
vt 0.918699 1
vt 0.910569 1
vt 0.349593 1
vt 0.918699 1
vt 0.357724 1
vt 0.878049 1
vt 0.455285 1
vt 0.886179 1
vt 0.878049 1
vt 0.463415 1
vt 0.455285 1
vt 0.349593 1
vt 0.926829 1
vt 0.918699 1
vt 0.869919 1
vt 0.463415 1
vt 0.878049 1
vt 0.349593 1
vt 0.934959 1
vt 0.926829 1
vt 0.861789 1
vt 0.463415 1
vt 0.869919 1
vt 0.341463 1
vt 0.934959 1
vt 0.349593 1
vt 0.861789 1
vt 0.471545 1
vt 0.463415 1
vt 0.341463 1
vt 0.943089 1
vt 0.934959 1
vt 0.853659 1
vt 0.471545 1
vt 0.861789 1
vt 0.341463 1
vt 0.951219 1
vt 0.943089 1
vt 0.845528 1
vt 0.471545 1
vt 0.853659 1
vt 0.333333 1
vt 0.951219 1
vt 0.341463 1
vt 0.845528 1
vt 0.479675 1
vt 0.471545 1
vt 0.333333 1
vt 0.95935 1
vt 0.951219 1
vt 0.837398 1
vt 0.479675 1
vt 0.845528 1
vt 0.325203 1
vt 0.95935 1
vt 0.333333 1
vt 0.325203 1
vt 0.96748 1
vt 0.95935 1
vt 0.837398 1
vt 0.487805 1
vt 0.479675 1
vt 0.829268 1
vt 0.487805 1
vt 0.837398 1
vt 0.325203 1
vt 0.97561 1
vt 0.96748 1
vt 0.821138 1
vt 0.487805 1
vt 0.829268 1
vt 0.317073 1
vt 0.97561 1
vt 0.325203 1
vt 0.821138 1
vt 0.495935 1
vt 0.487805 1
vt 0.317073 1
vt 0.98374 1
vt 0.97561 1
vt 0.813008 1
vt 0.495935 1
vt 0.821138 1
vt 0.317073 1
vt 0.99187 1
vt 0.98374 1
vt 0.308943 1
vt 0.99187 1
vt 0.317073 1
vt 0.813008 1
vt 0.504065 1
vt 0.495935 1
vt 0.804878 1
vt 0.504065 1
vt 0.813008 1
vt 0.308943 1
vt 1 1
vt 0.99187 1
vt 0.300813 1
vt 1 1
vt 0.308943 1
vt 0.300813 1
vt 0.617886 1
vt 1 1
vt 0.804878 1
vt 0.512195 1
vt 0.504065 1
vt 0.796748 1
vt 0.512195 1
vt 0.804878 1
vt 0.300813 1
vt 0.626016 1
vt 0.617886 1
vt 0.788618 1
vt 0.512195 1
vt 0.796748 1
vt 0.292683 1
vt 0.626016 1
vt 0.300813 1
vt 0.788618 1
vt 0.520325 1
vt 0.512195 1
vt 0.292683 1
vt 0.634146 1
vt 0.626016 1
vt 0.780488 1
vt 0.520325 1
vt 0.788618 1
vt 0.284553 1
vt 0.634146 1
vt 0.292683 1
vt 0.780488 1
vt 0.528455 1
vt 0.520325 1
vt 0.284553 1
vt 0.642276 1
vt 0.634146 1
vt 0.772358 1
vt 0.528455 1
vt 0.780488 1
vt 0.772358 1
vt 0.536585 1
vt 0.528455 1
vt 0.276423 1
vt 0.642276 1
vt 0.284553 1
vt 0.276423 1
vt 0.650406 1
vt 0.642276 1
vt 0.764228 1
vt 0.536585 1
vt 0.772358 1
vt 0.764228 1
vt 0.544715 1
vt 0.536585 1
vt 0.268293 1
vt 0.650406 1
vt 0.276423 1
vt 0.268293 1
vt 0.658537 1
vt 0.650406 1
vt 0.756098 1
vt 0.544715 1
vt 0.764228 1
vt 0.268293 1
vt 0.666667 1
vt 0.658537 1
vt 0.747967 1
vt 0.544715 1
vt 0.756098 1
vt 0.747967 1
vt 0.552846 1
vt 0.544715 1
vt 0.260163 1
vt 0.666667 1
vt 0.268293 1
vt 0.260163 1
vt 0.674797 1
vt 0.666667 1
vt 0.739837 1
vt 0.552846 1
vt 0.747967 1
vt 0.739837 1
vt 0.560976 1
vt 0.552846 1
vt 0.252033 1
vt 0.674797 1
vt 0.260163 1
vt 0.252033 1
vt 0.682927 1
vt 0.674797 1
vt 0.731707 1
vt 0.560976 1
vt 0.739837 1
vt 0.252033 1
vt 0.691057 1
vt 0.682927 1
vt 0.723577 1
vt 0.560976 1
vt 0.731707 1
vt 0.723577 1
vt 0.569106 1
vt 0.560976 1
vt 0.252033 1
vt 0.699187 1
vt 0.691057 1
vt 0.715447 1
vt 0.569106 1
vt 0.723577 1
vt 0.243902 1
vt 0.699187 1
vt 0.252033 1
vt 0.243902 1
vt 0.707317 1
vt 0.699187 1
vt 0.707317 1
vt 0.569106 1
vt 0.715447 1
vt 0.243902 1
vt 0.569106 1
vt 0.707317 1
vt 0.243902 1
vt 0.577236 1
vt 0.569106 1
vt 0.235772 1
vt 0.577236 1
vt 0.243902 1
vt 0.235772 1
vt 0.585366 1
vt 0.577236 1
vt 0.227642 1
vt 0.585366 1
vt 0.235772 1
vt 0.227642 1
vt 0.593496 1
vt 0.585366 1
vt 0.219512 1
vt 0.593496 1
vt 0.227642 1
vt 0.219512 1
vt 0.609756 1
vt 0.593496 1
vt 0.609756 1
vt 0.601626 1
vt 0.593496 1
vt 0.211382 1
vt 0.609756 1
vt 0.219512 1
vt 0.211382 1
vt 0 1
vt 0.609756 1
vt 0.203252 1
vt 0 1
vt 0.211382 1
vt 0.203252 1
vt 0.00813 1
vt 0 1
vt 0.203252 1
vt 0.01626 1
vt 0.00813 1
vt 0.195122 1
vt 0.01626 1
vt 0.203252 1
vt 0.195122 1
vt 0.02439 1
vt 0.01626 1
vt 0.195122 1
vt 0.03252 1
vt 0.02439 1
vt 0.186992 1
vt 0.03252 1
vt 0.195122 1
vt 0.186992 1
vt 0.04065 1
vt 0.03252 1
vt 0.186992 1
vt 0.04878 1
vt 0.04065 1
vt 0.089431 1
vt 0.105691 1
vt 0.097561 1
vt 0.178862 1
vt 0.04878 1
vt 0.186992 1
vt 0.178862 1
vt 0.056911 1
vt 0.04878 1
vt 0.089431 1
vt 0.113821 1
vt 0.105691 1
vt 0.081301 1
vt 0.113821 1
vt 0.089431 1
vt 0.178862 1
vt 0.065041 1
vt 0.056911 1
vt 0.073171 1
vt 0.113821 1
vt 0.081301 1
vt 0.178862 1
vt 0.073171 1
vt 0.065041 1
vt 0.178862 1
vt 0.113821 1
vt 0.073171 1
vt 0.170732 1
vt 0.113821 1
vt 0.178862 1
vt 0.162602 1
vt 0.113821 1
vt 0.170732 1
vt 0.154472 1
vt 0.113821 1
vt 0.162602 1
vt 0.146341 1
vt 0.113821 1
vt 0.154472 1
vt 0.138211 1
vt 0.113821 1
vt 0.146341 1
vt 0.130081 1
vt 0.113821 1
vt 0.138211 1
vt 0.121951 1
vt 0.113821 1
vt 0.130081 1
vt 0.414634 1
vt 0.398374 1
vt 0.406504 1
vt 0.414634 1
vt 0.390244 1
vt 0.398374 1
vt 0.422764 1
vt 0.390244 1
vt 0.414634 1
vt 0.422764 1
vt 0.382114 1
vt 0.390244 1
vt 0.430894 1
vt 0.382114 1
vt 0.422764 1
vt 0.430894 1
vt 0.373984 1
vt 0.382114 1
vt 0.439024 1
vt 0.373984 1
vt 0.430894 1
vt 0.439024 1
vt 0.365854 1
vt 0.373984 1
vt 0.447154 1
vt 0.365854 1
vt 0.439024 1
vt 0.447154 1
vt 0.357724 1
vt 0.365854 1
vt 0.902439 1
vt 0.357724 1
vt 0.447154 1
vt 0.455285 1
vt 0.902439 1
vt 0.447154 1
vt 0.910569 1
vt 0.357724 1
vt 0.902439 1
vt 0.455285 1
vt 0.894309 1
vt 0.902439 1
vt 0.455285 1
vt 0.886179 1
vt 0.894309 1
vt 0.918699 1
vt 0.357724 1
vt 0.910569 1
vt 0.918699 1
vt 0.349593 1
vt 0.357724 1
vt 0.455285 1
vt 0.878049 1
vt 0.886179 1
vt 0.463415 1
vt 0.878049 1
vt 0.455285 1
vt 0.926829 1
vt 0.349593 1
vt 0.918699 1
vt 0.463415 1
vt 0.869919 1
vt 0.878049 1
vt 0.934959 1
vt 0.349593 1
vt 0.926829 1
vt 0.463415 1
vt 0.861789 1
vt 0.869919 1
vt 0.934959 1
vt 0.341463 1
vt 0.349593 1
vt 0.471545 1
vt 0.861789 1
vt 0.463415 1
vt 0.943089 1
vt 0.341463 1
vt 0.934959 1
vt 0.471545 1
vt 0.853659 1
vt 0.861789 1
vt 0.951219 1
vt 0.341463 1
vt 0.943089 1
vt 0.471545 1
vt 0.845528 1
vt 0.853659 1
vt 0.951219 1
vt 0.333333 1
vt 0.341463 1
vt 0.479675 1
vt 0.845528 1
vt 0.471545 1
vt 0.95935 1
vt 0.333333 1
vt 0.951219 1
vt 0.479675 1
vt 0.837398 1
vt 0.845528 1
vt 0.95935 1
vt 0.325203 1
vt 0.333333 1
vt 0.96748 1
vt 0.325203 1
vt 0.95935 1
vt 0.487805 1
vt 0.837398 1
vt 0.479675 1
vt 0.487805 1
vt 0.829268 1
vt 0.837398 1
vt 0.97561 1
vt 0.325203 1
vt 0.96748 1
vt 0.487805 1
vt 0.821138 1
vt 0.829268 1
vt 0.97561 1
vt 0.317073 1
vt 0.325203 1
vt 0.495935 1
vt 0.821138 1
vt 0.487805 1
vt 0.98374 1
vt 0.317073 1
vt 0.97561 1
vt 0.495935 1
vt 0.813008 1
vt 0.821138 1
vt 0.99187 1
vt 0.317073 1
vt 0.98374 1
vt 0.99187 1
vt 0.308943 1
vt 0.317073 1
vt 0.504065 1
vt 0.813008 1
vt 0.495935 1
vt 0.504065 1
vt 0.804878 1
vt 0.813008 1
vt 1 1
vt 0.308943 1
vt 0.99187 1
vt 1 1
vt 0.300813 1
vt 0.308943 1
vt 0.617886 1
vt 0.300813 1
vt 1 1
vt 0.512195 1
vt 0.804878 1
vt 0.504065 1
vt 0.512195 1
vt 0.796748 1
vt 0.804878 1
vt 0.626016 1
vt 0.300813 1
vt 0.617886 1
vt 0.512195 1
vt 0.788618 1
vt 0.796748 1
vt 0.626016 1
vt 0.292683 1
vt 0.300813 1
vt 0.520325 1
vt 0.788618 1
vt 0.512195 1
vt 0.634146 1
vt 0.292683 1
vt 0.626016 1
vt 0.520325 1
vt 0.780488 1
vt 0.788618 1
vt 0.634146 1
vt 0.284553 1
vt 0.292683 1
vt 0.528455 1
vt 0.780488 1
vt 0.520325 1
vt 0.642276 1
vt 0.284553 1
vt 0.634146 1
vt 0.528455 1
vt 0.772358 1
vt 0.780488 1
vt 0.536585 1
vt 0.772358 1
vt 0.528455 1
vt 0.642276 1
vt 0.276423 1
vt 0.284553 1
vt 0.650406 1
vt 0.276423 1
vt 0.642276 1
vt 0.536585 1
vt 0.764228 1
vt 0.772358 1
vt 0.544715 1
vt 0.764228 1
vt 0.536585 1
vt 0.650406 1
vt 0.268293 1
vt 0.276423 1
vt 0.658537 1
vt 0.268293 1
vt 0.650406 1
vt 0.544715 1
vt 0.756098 1
vt 0.764228 1
vt 0.666667 1
vt 0.268293 1
vt 0.658537 1
vt 0.544715 1
vt 0.747967 1
vt 0.756098 1
vt 0.552846 1
vt 0.747967 1
vt 0.544715 1
vt 0.666667 1
vt 0.260163 1
vt 0.268293 1
vt 0.674797 1
vt 0.260163 1
vt 0.666667 1
vt 0.552846 1
vt 0.739837 1
vt 0.747967 1
vt 0.560976 1
vt 0.739837 1
vt 0.552846 1
vt 0.674797 1
vt 0.252033 1
vt 0.260163 1
vt 0.682927 1
vt 0.252033 1
vt 0.674797 1
vt 0.560976 1
vt 0.731707 1
vt 0.739837 1
vt 0.691057 1
vt 0.252033 1
vt 0.682927 1
vt 0.560976 1
vt 0.723577 1
vt 0.731707 1
vt 0.569106 1
vt 0.723577 1
vt 0.560976 1
vt 0.699187 1
vt 0.252033 1
vt 0.691057 1
vt 0.569106 1
vt 0.715447 1
vt 0.723577 1
vt 0.699187 1
vt 0.243902 1
vt 0.252033 1
vt 0.707317 1
vt 0.243902 1
vt 0.699187 1
vt 0.569106 1
vt 0.707317 1
vt 0.715447 1
vt 0.569106 1
vt 0.243902 1
vt 0.707317 1
vt 0.577236 1
vt 0.243902 1
vt 0.569106 1
vt 0.577236 1
vt 0.235772 1
vt 0.243902 1
vt 0.585366 1
vt 0.235772 1
vt 0.577236 1
vt 0.585366 1
vt 0.227642 1
vt 0.235772 1
vt 0.593496 1
vt 0.227642 1
vt 0.585366 1
vt 0.593496 1
vt 0.219512 1
vt 0.227642 1
vt 0.609756 1
vt 0.219512 1
vt 0.593496 1
vt 0.601626 1
vt 0.609756 1
vt 0.593496 1
vt 0.609756 1
vt 0.211382 1
vt 0.219512 1
vt 0 1
vt 0.211382 1
vt 0.609756 1
vt 0 1
vt 0.203252 1
vt 0.211382 1
vt 0.00813 1
vt 0.203252 1
vt 0 1
vt 0.01626 1
vt 0.203252 1
vt 0.00813 1
vt 0.01626 1
vt 0.195122 1
vt 0.203252 1
vt 0.02439 1
vt 0.195122 1
vt 0.01626 1
vt 0.03252 1
vt 0.195122 1
vt 0.02439 1
vt 0.03252 1
vt 0.186992 1
vt 0.195122 1
vt 0.04065 1
vt 0.186992 1
vt 0.03252 1
vt 0.04878 1
vt 0.186992 1
vt 0.04065 1
vt 0.105691 1
vt 0.089431 1
vt 0.097561 1
vt 0.04878 1
vt 0.178862 1
vt 0.186992 1
vt 0.056911 1
vt 0.178862 1
vt 0.04878 1
vt 0.113821 1
vt 0.089431 1
vt 0.105691 1
vt 0.113821 1
vt 0.081301 1
vt 0.089431 1
vt 0.065041 1
vt 0.178862 1
vt 0.056911 1
vt 0.113821 1
vt 0.073171 1
vt 0.081301 1
vt 0.073171 1
vt 0.178862 1
vt 0.065041 1
vt 0.113821 1
vt 0.178862 1
vt 0.073171 1
vt 0.113821 1
vt 0.170732 1
vt 0.178862 1
vt 0.113821 1
vt 0.162602 1
vt 0.170732 1
vt 0.113821 1
vt 0.154472 1
vt 0.162602 1
vt 0.113821 1
vt 0.146341 1
vt 0.154472 1
vt 0.113821 1
vt 0.138211 1
vt 0.146341 1
vt 0.113821 1
vt 0.130081 1
vt 0.138211 1
vt 0.113821 1
vt 0.121951 1
vt 0.130081 1
vt 0 0
vt 0.013158 0
vt 0.013158 1
vt 0 1
vt 0.013158 0
vt 0.026316 0
vt 0.026316 1
vt 0.013158 1
vt 0.026316 0
vt 0.039474 0
vt 0.039474 1
vt 0.026316 1
vt 0.039474 0
vt 0.052632 0
vt 0.052632 1
vt 0.039474 1
vt 0.052632 0
vt 0.065789 0
vt 0.065789 1
vt 0.052632 1
vt 0.065789 0
vt 0.078947 0
vt 0.078947 1
vt 0.065789 1
vt 0.078947 0
vt 0.092105 0
vt 0.092105 1
vt 0.078947 1
vt 0.092105 0
vt 0.105263 0
vt 0.105263 1
vt 0.092105 1
vt 0.105263 0
vt 0.118421 0
vt 0.118421 1
vt 0.105263 1
vt 0.118421 0
vt 0.131579 0
vt 0.131579 1
vt 0.118421 1
vt 0.131579 0
vt 0.144737 0
vt 0.144737 1
vt 0.131579 1
vt 0.144737 0
vt 0.157895 0
vt 0.157895 1
vt 0.144737 1
vt 0.157895 0
vt 0.171053 0
vt 0.171053 1
vt 0.157895 1
vt 0.171053 0
vt 0.184211 0
vt 0.184211 1
vt 0.171053 1
vt 0.184211 0
vt 0.197368 0
vt 0.197368 1
vt 0.184211 1
vt 0.197368 0
vt 0.210526 0
vt 0.210526 1
vt 0.197368 1
vt 0.210526 0
vt 0.223684 0
vt 0.223684 1
vt 0.210526 1
vt 0.223684 0
vt 0.236842 0
vt 0.236842 1
vt 0.223684 1
vt 0.236842 0
vt 0.25 0
vt 0.25 1
vt 0.236842 1
vt 0.25 0
vt 0.263158 0
vt 0.263158 1
vt 0.25 1
vt 0.263158 0
vt 0.276316 0
vt 0.276316 1
vt 0.263158 1
vt 0.276316 0
vt 0.289474 0
vt 0.289474 1
vt 0.276316 1
vt 0.289474 0
vt 0.302632 0
vt 0.302632 1
vt 0.289474 1
vt 0.302632 0
vt 0.315789 0
vt 0.315789 1
vt 0.302632 1
vt 0.315789 0
vt 0.328947 0
vt 0.328947 1
vt 0.315789 1
vt 0.328947 0
vt 0.342105 0
vt 0.342105 1
vt 0.328947 1
vt 0.342105 0
vt 0.355263 0
vt 0.355263 1
vt 0.342105 1
vt 0.355263 0
vt 0.368421 0
vt 0.368421 1
vt 0.355263 1
vt 0.368421 0
vt 0.381579 0
vt 0.381579 1
vt 0.368421 1
vt 0.381579 0
vt 0.394737 0
vt 0.394737 1
vt 0.381579 1
vt 0.394737 0
vt 0.407895 0
vt 0.407895 1
vt 0.394737 1
vt 0.407895 0
vt 0.421053 0
vt 0.421053 1
vt 0.407895 1
vt 0.421053 0
vt 0.434211 0
vt 0.434211 1
vt 0.421053 1
vt 0.434211 0
vt 0.447368 0
vt 0.447368 1
vt 0.434211 1
vt 0.447368 0
vt 0.460526 0
vt 0.460526 1
vt 0.447368 1
vt 0.460526 0
vt 0.473684 0
vt 0.473684 1
vt 0.460526 1
vt 0.473684 0
vt 0.486842 0
vt 0.486842 1
vt 0.473684 1
vt 0.486842 0
vt 0.5 0
vt 0.5 1
vt 0.486842 1
vt 0.5 0
vt 0.513158 0
vt 0.513158 1
vt 0.5 1
vt 0.513158 0
vt 0.526316 0
vt 0.526316 1
vt 0.513158 1
vt 0.526316 0
vt 0.539474 0
vt 0.539474 1
vt 0.526316 1
vt 0.539474 0
vt 0.552632 0
vt 0.552632 1
vt 0.539474 1
vt 0.552632 0
vt 0.565789 0
vt 0.565789 1
vt 0.552632 1
vt 0.565789 0
vt 0.578947 0
vt 0.578947 1
vt 0.565789 1
vt 0.578947 0
vt 0.592105 0
vt 0.592105 1
vt 0.578947 1
vt 0.592105 0
vt 0.605263 0
vt 0.605263 1
vt 0.592105 1
vt 0.605263 0
vt 0.618421 0
vt 0.618421 1
vt 0.605263 1
vt 0.618421 0
vt 0.631579 0
vt 0.631579 1
vt 0.618421 1
vt 0.631579 0
vt 0.644737 0
vt 0.644737 1
vt 0.631579 1
vt 0.644737 0
vt 0.657895 0
vt 0.657895 1
vt 0.644737 1
vt 0.657895 0
vt 0.671053 0
vt 0.671053 1
vt 0.657895 1
vt 0.671053 0
vt 0.684211 0
vt 0.684211 1
vt 0.671053 1
vt 0.684211 0
vt 0.697368 0
vt 0.697368 1
vt 0.684211 1
vt 0.697368 0
vt 0.710526 0
vt 0.710526 1
vt 0.697368 1
vt 0.710526 0
vt 0.723684 0
vt 0.723684 1
vt 0.710526 1
vt 0.723684 0
vt 0.736842 0
vt 0.736842 1
vt 0.723684 1
vt 0.736842 0
vt 0.75 0
vt 0.75 1
vt 0.736842 1
vt 0.75 0
vt 0.763158 0
vt 0.763158 1
vt 0.75 1
vt 0.763158 0
vt 0.776316 0
vt 0.776316 1
vt 0.763158 1
vt 0.776316 0
vt 0.789474 0
vt 0.789474 1
vt 0.776316 1
vt 0.789474 0
vt 0.802632 0
vt 0.802632 1
vt 0.789474 1
vt 0.802632 0
vt 0.815789 0
vt 0.815789 1
vt 0.802632 1
vt 0.815789 0
vt 0.828947 0
vt 0.828947 1
vt 0.815789 1
vt 0.828947 0
vt 0.842105 0
vt 0.842105 1
vt 0.828947 1
vt 0.842105 0
vt 0.855263 0
vt 0.855263 1
vt 0.842105 1
vt 0.855263 0
vt 0.868421 0
vt 0.868421 1
vt 0.855263 1
vt 0.868421 0
vt 0.881579 0
vt 0.881579 1
vt 0.868421 1
vt 0.881579 0
vt 0.894737 0
vt 0.894737 1
vt 0.881579 1
vt 0.894737 0
vt 0.907895 0
vt 0.907895 1
vt 0.894737 1
vt 0.907895 0
vt 0.921053 0
vt 0.921053 1
vt 0.907895 1
vt 0.921053 0
vt 0.934211 0
vt 0.934211 1
vt 0.921053 1
vt 0.934211 0
vt 0.947368 0
vt 0.947368 1
vt 0.934211 1
vt 0.947368 0
vt 0.960526 0
vt 0.960526 1
vt 0.947368 1
vt 0.960526 0
vt 0.973684 0
vt 0.973684 1
vt 0.960526 1
vt 0.973684 0
vt 0.986842 0
vt 0.986842 1
vt 0.973684 1
vt 0.986842 0
vt 1 0
vt 1 1
vt 0.986842 1
vt 0 0
vt 0.020833 0
vt 0.020833 1
vt 0 1
vt 0.020833 0
vt 0.041667 0
vt 0.041667 1
vt 0.020833 1
vt 0.041667 0
vt 0.0625 0
vt 0.0625 1
vt 0.041667 1
vt 0.0625 0
vt 0.083333 0
vt 0.083333 1
vt 0.0625 1
vt 0.083333 0
vt 0.104167 0
vt 0.104167 1
vt 0.083333 1
vt 0.104167 0
vt 0.125 0
vt 0.125 1
vt 0.104167 1
vt 0.125 0
vt 0.145833 0
vt 0.145833 1
vt 0.125 1
vt 0.145833 0
vt 0.166667 0
vt 0.166667 1
vt 0.145833 1
vt 0.166667 0
vt 0.1875 0
vt 0.1875 1
vt 0.166667 1
vt 0.1875 0
vt 0.208333 0
vt 0.208333 1
vt 0.1875 1
vt 0.208333 0
vt 0.229167 0
vt 0.229167 1
vt 0.208333 1
vt 0.229167 0
vt 0.25 0
vt 0.25 1
vt 0.229167 1
vt 0.25 0
vt 0.270833 0
vt 0.270833 1
vt 0.25 1
vt 0.270833 0
vt 0.291667 0
vt 0.291667 1
vt 0.270833 1
vt 0.291667 0
vt 0.3125 0
vt 0.3125 1
vt 0.291667 1
vt 0.3125 0
vt 0.333333 0
vt 0.333333 1
vt 0.3125 1
vt 0.333333 0
vt 0.354167 0
vt 0.354167 1
vt 0.333333 1
vt 0.354167 0
vt 0.375 0
vt 0.375 1
vt 0.354167 1
vt 0.375 0
vt 0.395833 0
vt 0.395833 1
vt 0.375 1
vt 0.395833 0
vt 0.416667 0
vt 0.416667 1
vt 0.395833 1
vt 0.416667 0
vt 0.4375 0
vt 0.4375 1
vt 0.416667 1
vt 0.4375 0
vt 0.458333 0
vt 0.458333 1
vt 0.4375 1
vt 0.458333 0
vt 0.479167 0
vt 0.479167 1
vt 0.458333 1
vt 0.479167 0
vt 0.5 0
vt 0.5 1
vt 0.479167 1
vt 0.5 0
vt 0.520833 0
vt 0.520833 1
vt 0.5 1
vt 0.520833 0
vt 0.541667 0
vt 0.541667 1
vt 0.520833 1
vt 0.541667 0
vt 0.5625 0
vt 0.5625 1
vt 0.541667 1
vt 0.5625 0
vt 0.583333 0
vt 0.583333 1
vt 0.5625 1
vt 0.583333 0
vt 0.604167 0
vt 0.604167 1
vt 0.583333 1
vt 0.604167 0
vt 0.625 0
vt 0.625 1
vt 0.604167 1
vt 0.625 0
vt 0.645833 0
vt 0.645833 1
vt 0.625 1
vt 0.645833 0
vt 0.666667 0
vt 0.666667 1
vt 0.645833 1
vt 0.666667 0
vt 0.6875 0
vt 0.6875 1
vt 0.666667 1
vt 0.6875 0
vt 0.708333 0
vt 0.708333 1
vt 0.6875 1
vt 0.708333 0
vt 0.729167 0
vt 0.729167 1
vt 0.708333 1
vt 0.729167 0
vt 0.75 0
vt 0.75 1
vt 0.729167 1
vt 0.75 0
vt 0.770833 0
vt 0.770833 1
vt 0.75 1
vt 0.770833 0
vt 0.791667 0
vt 0.791667 1
vt 0.770833 1
vt 0.791667 0
vt 0.8125 0
vt 0.8125 1
vt 0.791667 1
vt 0.8125 0
vt 0.833333 0
vt 0.833333 1
vt 0.8125 1
vt 0.833333 0
vt 0.854167 0
vt 0.854167 1
vt 0.833333 1
vt 0.854167 0
vt 0.875 0
vt 0.875 1
vt 0.854167 1
vt 0.875 0
vt 0.895833 0
vt 0.895833 1
vt 0.875 1
vt 0.895833 0
vt 0.916667 0
vt 0.916667 1
vt 0.895833 1
vt 0.916667 0
vt 0.9375 0
vt 0.9375 1
vt 0.916667 1
vt 0.9375 0
vt 0.958333 0
vt 0.958333 1
vt 0.9375 1
vt 0.958333 0
vt 0.979167 0
vt 0.979167 1
vt 0.958333 1
vt 0.979167 0
vt 1 0
vt 1 1
vt 0.979167 1
s off
f 1/1/1 2/2/2 3/3/3
f 4/4/4 5/5/5 6/6/6
f 7/7/7 8/8/8 9/9/9
f 10/10/10 11/11/11 12/12/12
f 13/13/13 14/14/14 15/15/15
f 16/16/16 17/17/17 18/18/18
f 19/19/19 20/20/20 21/21/21
f 22/22/22 23/23/23 24/24/24
f 25/25/25 26/26/26 27/27/27
f 28/28/28 29/29/29 30/30/30
f 31/31/31 32/32/32 33/33/33
f 34/34/34 35/35/35 36/36/36
f 37/37/37 38/38/38 39/39/39
f 40/40/40 41/41/41 42/42/42
f 43/43/43 44/44/44 45/45/45
f 46/46/46 47/47/47 48/48/48
f 49/49/49 50/50/50 51/51/51
f 52/52/52 53/53/53 54/54/54
f 55/55/55 56/56/56 57/57/57
f 58/58/58 59/59/59 60/60/60
f 61/61/61 62/62/62 63/63/63
f 64/64/64 65/65/65 66/66/66
f 67/67/67 68/68/68 69/69/69
f 70/70/70 71/71/71 72/72/72
f 73/73/73 74/74/74 75/75/75
f 76/76/76 77/77/77 78/78/78
f 79/79/79 80/80/80 81/81/81
f 82/82/82 83/83/83 84/84/84
f 85/85/85 86/86/86 87/87/87
f 88/88/88 89/89/89 90/90/90
f 91/91/91 92/92/92 93/93/93
f 94/94/94 95/95/95 96/96/96
f 97/97/97 98/98/98 99/99/99
f 100/100/100 101/101/101 102/102/102
f 103/103/103 104/104/104 105/105/105
f 106/106/106 107/107/107 108/108/108
f 109/109/109 110/110/110 111/111/111
f 112/112/112 113/113/113 114/114/114
f 115/115/115 116/116/116 117/117/117
f 118/118/118 119/119/119 120/120/120
f 121/121/121 122/122/122 123/123/123
f 124/124/124 125/125/125 126/126/126
f 127/127/127 128/128/128 129/129/129
f 130/130/130 131/131/131 132/132/132
f 133/133/133 134/134/134 135/135/135
f 136/136/136 137/137/137 138/138/138
f 139/139/139 140/140/140 141/141/141
f 142/142/142 143/143/143 144/144/144
f 145/145/145 146/146/146 147/147/147
f 148/148/148 149/149/149 150/150/150
f 151/151/151 152/152/152 153/153/153
f 154/154/154 155/155/155 156/156/156
f 157/157/157 158/158/158 159/159/159
f 160/160/160 161/161/161 162/162/162
f 163/163/163 164/164/164 165/165/165
f 166/166/166 167/167/167 168/168/168
f 169/169/169 170/170/170 171/171/171
f 172/172/172 173/173/173 174/174/174
f 175/175/175 176/176/176 177/177/177
f 178/178/178 179/179/179 180/180/180
f 181/181/181 182/182/182 183/183/183
f 184/184/184 185/185/185 186/186/186
f 187/187/187 188/188/188 189/189/189
f 190/190/190 191/191/191 192/192/192
f 193/193/193 194/194/194 195/195/195
f 196/196/196 197/197/197 198/198/198
f 199/199/199 200/200/200 201/201/201
f 202/202/202 203/203/203 204/204/204
f 205/205/205 206/206/206 207/207/207
f 208/208/208 209/209/209 210/210/210
f 211/211/211 212/212/212 213/213/213
f 214/214/214 215/215/215 216/216/216
f 217/217/217 218/218/218 219/219/219
f 220/220/220 221/221/221 222/222/222
f 223/223/223 224/224/224 225/225/225
f 226/226/226 227/227/227 228/228/228
f 229/229/229 230/230/230 231/231/231
f 232/232/232 233/233/233 234/234/234
f 235/235/235 236/236/236 237/237/237
f 238/238/238 239/239/239 240/240/240
f 241/241/241 242/242/242 243/243/243
f 244/244/244 245/245/245 246/246/246
f 247/247/247 248/248/248 249/249/249
f 250/250/250 251/251/251 252/252/252
f 253/253/253 254/254/254 255/255/255
f 256/256/256 257/257/257 258/258/258
f 259/259/259 260/260/260 261/261/261
f 262/262/262 263/263/263 264/264/264
f 265/265/265 266/266/266 267/267/267
f 268/268/268 269/269/269 270/270/270
f 271/271/271 272/272/272 273/273/273
f 274/274/274 275/275/275 276/276/276
f 277/277/277 278/278/278 279/279/279
f 280/280/280 281/281/281 282/282/282
f 283/283/283 284/284/284 285/285/285
f 286/286/286 287/287/287 288/288/288
f 289/289/289 290/290/290 291/291/291
f 292/292/292 293/293/293 294/294/294
f 295/295/295 296/296/296 297/297/297
f 298/298/298 299/299/299 300/300/300
f 301/301/301 302/302/302 303/303/303
f 304/304/304 305/305/305 306/306/306
f 307/307/307 308/308/308 309/309/309
f 310/310/310 311/311/311 312/312/312
f 313/313/313 314/314/314 315/315/315
f 316/316/316 317/317/317 318/318/318
f 319/319/319 320/320/320 321/321/321
f 322/322/322 323/323/323 324/324/324
f 325/325/325 326/326/326 327/327/327
f 328/328/328 329/329/329 330/330/330
f 331/331/331 332/332/332 333/333/333
f 334/334/334 335/335/335 336/336/336
f 337/337/337 338/338/338 339/339/339
f 340/340/340 341/341/341 342/342/342
f 343/343/343 344/344/344 345/345/345
f 346/346/346 347/347/347 348/348/348
f 349/349/349 350/350/350 351/351/351
f 352/352/352 353/353/353 354/354/354
f 355/355/355 356/356/356 357/357/357
f 358/358/358 359/359/359 360/360/360
f 361/361/361 362/362/362 363/363/363
f 364/364/364 365/365/365 366/366/366
f 367/367/367 368/368/368 369/369/369
f 370/370/370 371/371/371 372/372/372
f 373/373/373 374/374/374 375/375/375
f 376/376/376 377/377/377 378/378/378
f 379/379/379 380/380/380 381/381/381
f 382/382/382 383/383/383 384/384/384
f 385/385/385 386/386/386 387/387/387
f 388/388/388 389/389/389 390/390/390
f 391/391/391 392/392/392 393/393/393
f 394/394/394 395/395/395 396/396/396
f 397/397/397 398/398/398 399/399/399
f 400/400/400 401/401/401 402/402/402
f 403/403/403 404/404/404 405/405/405
f 406/406/406 407/407/407 408/408/408
f 409/409/409 410/410/410 411/411/411
f 412/412/412 413/413/413 414/414/414
f 415/415/415 416/416/416 417/417/417
f 418/418/418 419/419/419 420/420/420
f 421/421/421 422/422/422 423/423/423
f 424/424/424 425/425/425 426/426/426
f 427/427/427 428/428/428 429/429/429
f 430/430/430 431/431/431 432/432/432
f 433/433/433 434/434/434 435/435/435
f 436/436/436 437/437/437 438/438/438
f 439/439/439 440/440/440 441/441/441
f 442/442/442 443/443/443 444/444/444
f 445/445/445 446/446/446 447/447/447
f 448/448/448 449/449/449 450/450/450
f 451/451/451 452/452/452 453/453/453
f 454/454/454 455/455/455 456/456/456
f 457/457/457 458/458/458 459/459/459
f 460/460/460 461/461/461 462/462/462
f 463/463/463 464/464/464 465/465/465
f 466/466/466 467/467/467 468/468/468
f 469/469/469 470/470/470 471/471/471
f 472/472/472 473/473/473 474/474/474
f 475/475/475 476/476/476 477/477/477
f 478/478/478 479/479/479 480/480/480
f 481/481/481 482/482/482 483/483/483
f 484/484/484 485/485/485 486/486/486
f 487/487/487 488/488/488 489/489/489
f 490/490/490 491/491/491 492/492/492
f 493/493/493 494/494/494 495/495/495
f 496/496/496 497/497/497 498/498/498
f 499/499/499 500/500/500 501/501/501
f 502/502/502 503/503/503 504/504/504
f 505/505/505 506/506/506 507/507/507
f 508/508/508 509/509/509 510/510/510
f 511/511/511 512/512/512 513/513/513
f 514/514/514 515/515/515 516/516/516
f 517/517/517 518/518/518 519/519/519
f 520/520/520 521/521/521 522/522/522
f 523/523/523 524/524/524 525/525/525
f 526/526/526 527/527/527 528/528/528
f 529/529/529 530/530/530 531/531/531
f 532/532/532 533/533/533 534/534/534
f 535/535/535 536/536/536 537/537/537
f 538/538/538 539/539/539 540/540/540
f 541/541/541 542/542/542 543/543/543
f 544/544/544 545/545/545 546/546/546
f 547/547/547 548/548/548 549/549/549
f 550/550/550 551/551/551 552/552/552
f 553/553/553 554/554/554 555/555/555
f 556/556/556 557/557/557 558/558/558
f 559/559/559 560/560/560 561/561/561
f 562/562/562 563/563/563 564/564/564
f 565/565/565 566/566/566 567/567/567
f 568/568/568 569/569/569 570/570/570
f 571/571/571 572/572/572 573/573/573
f 574/574/574 575/575/575 576/576/576
f 577/577/577 578/578/578 579/579/579
f 580/580/580 581/581/581 582/582/582
f 583/583/583 584/584/584 585/585/585
f 586/586/586 587/587/587 588/588/588
f 589/589/589 590/590/590 591/591/591
f 592/592/592 593/593/593 594/594/594
f 595/595/595 596/596/596 597/597/597
f 598/598/598 599/599/599 600/600/600
f 601/601/601 602/602/602 603/603/603
f 604/604/604 605/605/605 606/606/606
f 607/607/607 608/608/608 609/609/609
f 610/610/610 611/611/611 612/612/612
f 613/613/613 614/614/614 615/615/615
f 616/616/616 617/617/617 618/618/618
f 619/619/619 620/620/620 621/621/621
f 622/622/622 623/623/623 624/624/624
f 625/625/625 626/626/626 627/627/627
f 628/628/628 629/629/629 630/630/630
f 631/631/631 632/632/632 633/633/633
f 634/634/634 635/635/635 636/636/636
f 637/637/637 638/638/638 639/639/639
f 640/640/640 641/641/641 642/642/642
f 643/643/643 644/644/644 645/645/645
f 646/646/646 647/647/647 648/648/648
f 649/649/649 650/650/650 651/651/651
f 652/652/652 653/653/653 654/654/654
f 655/655/655 656/656/656 657/657/657
f 658/658/658 659/659/659 660/660/660
f 661/661/661 662/662/662 663/663/663
f 664/664/664 665/665/665 666/666/666
f 667/667/667 668/668/668 669/669/669
f 670/670/670 671/671/671 672/672/672
f 673/673/673 674/674/674 675/675/675
f 676/676/676 677/677/677 678/678/678
f 679/679/679 680/680/680 681/681/681
f 682/682/682 683/683/683 684/684/684
f 685/685/685 686/686/686 687/687/687
f 688/688/688 689/689/689 690/690/690
f 691/691/691 692/692/692 693/693/693
f 694/694/694 695/695/695 696/696/696
f 697/697/697 698/698/698 699/699/699
f 700/700/700 701/701/701 702/702/702
f 703/703/703 704/704/704 705/705/705
f 706/706/706 707/707/707 708/708/708
f 709/709/709 710/710/710 711/711/711
f 712/712/712 713/713/713 714/714/714
f 715/715/715 716/716/716 717/717/717
f 718/718/718 719/719/719 720/720/720
f 721/721/721 722/722/722 723/723/723
f 724/724/724 725/725/725 726/726/726
f 727/727/727 728/728/728 729/729/729
f 730/730/730 731/731/731 732/732/732
f 733/733/733 734/734/734 735/735/735
f 736/736/736 737/737/737 738/738/738
f 739/739/739 740/740/740 741/741/741
f 742/742/742 743/743/743 744/744/744
f 745/745/745 746/746/746 747/747/747
f 745/745/745 747/747/747 748/748/748
f 749/749/749 750/750/750 751/751/751
f 749/749/749 751/751/751 752/752/752
f 753/753/753 754/754/754 755/755/755
f 753/753/753 755/755/755 756/756/756
f 757/757/757 758/758/758 759/759/759
f 757/757/757 759/759/759 760/760/760
f 761/761/761 762/762/762 763/763/763
f 761/761/761 763/763/763 764/764/764
f 765/765/765 766/766/766 767/767/767
f 765/765/765 767/767/767 768/768/768
f 769/769/769 770/770/770 771/771/771
f 769/769/769 771/771/771 772/772/772
f 773/773/773 774/774/774 775/775/775
f 773/773/773 775/775/775 776/776/776
f 777/777/777 778/778/778 779/779/779
f 777/777/777 779/779/779 780/780/780
f 781/781/781 782/782/782 783/783/783
f 781/781/781 783/783/783 784/784/784
f 785/785/785 786/786/786 787/787/787
f 785/785/785 787/787/787 788/788/788
f 789/789/789 790/790/790 791/791/791
f 789/789/789 791/791/791 792/792/792
f 793/793/793 794/794/794 795/795/795
f 793/793/793 795/795/795 796/796/796
f 797/797/797 798/798/798 799/799/799
f 797/797/797 799/799/799 800/800/800
f 801/801/801 802/802/802 803/803/803
f 801/801/801 803/803/803 804/804/804
f 805/805/805 806/806/806 807/807/807
f 805/805/805 807/807/807 808/808/808
f 809/809/809 810/810/810 811/811/811
f 809/809/809 811/811/811 812/812/812
f 813/813/813 814/814/814 815/815/815
f 813/813/813 815/815/815 816/816/816
f 817/817/817 818/818/818 819/819/819
f 817/817/817 819/819/819 820/820/820
f 821/821/821 822/822/822 823/823/823
f 821/821/821 823/823/823 824/824/824
f 825/825/825 826/826/826 827/827/827
f 825/825/825 827/827/827 828/828/828
f 829/829/829 830/830/830 831/831/831
f 829/829/829 831/831/831 832/832/832
f 833/833/833 834/834/834 835/835/835
f 833/833/833 835/835/835 836/836/836
f 837/837/837 838/838/838 839/839/839
f 837/837/837 839/839/839 840/840/840
f 841/841/841 842/842/842 843/843/843
f 841/841/841 843/843/843 844/844/844
f 845/845/845 846/846/846 847/847/847
f 845/845/845 847/847/847 848/848/848
f 849/849/849 850/850/850 851/851/851
f 849/849/849 851/851/851 852/852/852
f 853/853/853 854/854/854 855/855/855
f 853/853/853 855/855/855 856/856/856
f 857/857/857 858/858/858 859/859/859
f 857/857/857 859/859/859 860/860/860
f 861/861/861 862/862/862 863/863/863
f 861/861/861 863/863/863 864/864/864
f 865/865/865 866/866/866 867/867/867
f 865/865/865 867/867/867 868/868/868
f 869/869/869 870/870/870 871/871/871
f 869/869/869 871/871/871 872/872/872
f 873/873/873 874/874/874 875/875/875
f 873/873/873 875/875/875 876/876/876
f 877/877/877 878/878/878 879/879/879
f 877/877/877 879/879/879 880/880/880
f 881/881/881 882/882/882 883/883/883
f 881/881/881 883/883/883 884/884/884
f 885/885/885 886/886/886 887/887/887
f 885/885/885 887/887/887 888/888/888
f 889/889/889 890/890/890 891/891/891
f 889/889/889 891/891/891 892/892/892
f 893/893/893 894/894/894 895/895/895
f 893/893/893 895/895/895 896/896/896
f 897/897/897 898/898/898 899/899/899
f 897/897/897 899/899/899 900/900/900
f 901/901/901 902/902/902 903/903/903
f 901/901/901 903/903/903 904/904/904
f 905/905/905 906/906/906 907/907/907
f 905/905/905 907/907/907 908/908/908
f 909/909/909 910/910/910 911/911/911
f 909/909/909 911/911/911 912/912/912
f 913/913/913 914/914/914 915/915/915
f 913/913/913 915/915/915 916/916/916
f 917/917/917 918/918/918 919/919/919
f 917/917/917 919/919/919 920/920/920
f 921/921/921 922/922/922 923/923/923
f 921/921/921 923/923/923 924/924/924
f 925/925/925 926/926/926 927/927/927
f 925/925/925 927/927/927 928/928/928
f 929/929/929 930/930/930 931/931/931
f 929/929/929 931/931/931 932/932/932
f 933/933/933 934/934/934 935/935/935
f 933/933/933 935/935/935 936/936/936
f 937/937/937 938/938/938 939/939/939
f 937/937/937 939/939/939 940/940/940
f 941/941/941 942/942/942 943/943/943
f 941/941/941 943/943/943 944/944/944
f 945/945/945 946/946/946 947/947/947
f 945/945/945 947/947/947 948/948/948
f 949/949/949 950/950/950 951/951/951
f 949/949/949 951/951/951 952/952/952
f 953/953/953 954/954/954 955/955/955
f 953/953/953 955/955/955 956/956/956
f 957/957/957 958/958/958 959/959/959
f 957/957/957 959/959/959 960/960/960
f 961/961/961 962/962/962 963/963/963
f 961/961/961 963/963/963 964/964/964
f 965/965/965 966/966/966 967/967/967
f 965/965/965 967/967/967 968/968/968
f 969/969/969 970/970/970 971/971/971
f 969/969/969 971/971/971 972/972/972
f 973/973/973 974/974/974 975/975/975
f 973/973/973 975/975/975 976/976/976
f 977/977/977 978/978/978 979/979/979
f 977/977/977 979/979/979 980/980/980
f 981/981/981 982/982/982 983/983/983
f 981/981/981 983/983/983 984/984/984
f 985/985/985 986/986/986 987/987/987
f 985/985/985 987/987/987 988/988/988
f 989/989/989 990/990/990 991/991/991
f 989/989/989 991/991/991 992/992/992
f 993/993/993 994/994/994 995/995/995
f 993/993/993 995/995/995 996/996/996
f 997/997/997 998/998/998 999/999/999
f 997/997/997 999/999/999 1000/1000/1000
f 1001/1001/1001 1002/1002/1002 1003/1003/1003
f 1001/1001/1001 1003/1003/1003 1004/1004/1004
f 1005/1005/1005 1006/1006/1006 1007/1007/1007
f 1005/1005/1005 1007/1007/1007 1008/1008/1008
f 1009/1009/1009 1010/1010/1010 1011/1011/1011
f 1009/1009/1009 1011/1011/1011 1012/1012/1012
f 1013/1013/1013 1014/1014/1014 1015/1015/1015
f 1013/1013/1013 1015/1015/1015 1016/1016/1016
f 1017/1017/1017 1018/1018/1018 1019/1019/1019
f 1017/1017/1017 1019/1019/1019 1020/1020/1020
f 1021/1021/1021 1022/1022/1022 1023/1023/1023
f 1021/1021/1021 1023/1023/1023 1024/1024/1024
f 1025/1025/1025 1026/1026/1026 1027/1027/1027
f 1025/1025/1025 1027/1027/1027 1028/1028/1028
f 1029/1029/1029 1030/1030/1030 1031/1031/1031
f 1029/1029/1029 1031/1031/1031 1032/1032/1032
f 1033/1033/1033 1034/1034/1034 1035/1035/1035
f 1033/1033/1033 1035/1035/1035 1036/1036/1036
f 1037/1037/1037 1038/1038/1038 1039/1039/1039
f 1037/1037/1037 1039/1039/1039 1040/1040/1040
f 1041/1041/1041 1042/1042/1042 1043/1043/1043
f 1041/1041/1041 1043/1043/1043 1044/1044/1044
f 1045/1045/1045 1046/1046/1046 1047/1047/1047
f 1045/1045/1045 1047/1047/1047 1048/1048/1048
f 1049/1049/1049 1050/1050/1050 1051/1051/1051
f 1049/1049/1049 1051/1051/1051 1052/1052/1052
f 1053/1053/1053 1054/1054/1054 1055/1055/1055
f 1053/1053/1053 1055/1055/1055 1056/1056/1056
f 1057/1057/1057 1058/1058/1058 1059/1059/1059
f 1057/1057/1057 1059/1059/1059 1060/1060/1060
f 1061/1061/1061 1062/1062/1062 1063/1063/1063
f 1061/1061/1061 1063/1063/1063 1064/1064/1064
f 1065/1065/1065 1066/1066/1066 1067/1067/1067
f 1065/1065/1065 1067/1067/1067 1068/1068/1068
f 1069/1069/1069 1070/1070/1070 1071/1071/1071
f 1069/1069/1069 1071/1071/1071 1072/1072/1072
f 1073/1073/1073 1074/1074/1074 1075/1075/1075
f 1073/1073/1073 1075/1075/1075 1076/1076/1076
f 1077/1077/1077 1078/1078/1078 1079/1079/1079
f 1077/1077/1077 1079/1079/1079 1080/1080/1080
f 1081/1081/1081 1082/1082/1082 1083/1083/1083
f 1081/1081/1081 1083/1083/1083 1084/1084/1084
f 1085/1085/1085 1086/1086/1086 1087/1087/1087
f 1085/1085/1085 1087/1087/1087 1088/1088/1088
f 1089/1089/1089 1090/1090/1090 1091/1091/1091
f 1089/1089/1089 1091/1091/1091 1092/1092/1092
f 1093/1093/1093 1094/1094/1094 1095/1095/1095
f 1093/1093/1093 1095/1095/1095 1096/1096/1096
f 1097/1097/1097 1098/1098/1098 1099/1099/1099
f 1097/1097/1097 1099/1099/1099 1100/1100/1100
f 1101/1101/1101 1102/1102/1102 1103/1103/1103
f 1101/1101/1101 1103/1103/1103 1104/1104/1104
f 1105/1105/1105 1106/1106/1106 1107/1107/1107
f 1105/1105/1105 1107/1107/1107 1108/1108/1108
f 1109/1109/1109 1110/1110/1110 1111/1111/1111
f 1109/1109/1109 1111/1111/1111 1112/1112/1112
f 1113/1113/1113 1114/1114/1114 1115/1115/1115
f 1113/1113/1113 1115/1115/1115 1116/1116/1116
f 1117/1117/1117 1118/1118/1118 1119/1119/1119
f 1117/1117/1117 1119/1119/1119 1120/1120/1120
f 1121/1121/1121 1122/1122/1122 1123/1123/1123
f 1121/1121/1121 1123/1123/1123 1124/1124/1124
f 1125/1125/1125 1126/1126/1126 1127/1127/1127
f 1125/1125/1125 1127/1127/1127 1128/1128/1128
f 1129/1129/1129 1130/1130/1130 1131/1131/1131
f 1129/1129/1129 1131/1131/1131 1132/1132/1132
f 1133/1133/1133 1134/1134/1134 1135/1135/1135
f 1133/1133/1133 1135/1135/1135 1136/1136/1136
f 1137/1137/1137 1138/1138/1138 1139/1139/1139
f 1137/1137/1137 1139/1139/1139 1140/1140/1140
f 1141/1141/1141 1142/1142/1142 1143/1143/1143
f 1141/1141/1141 1143/1143/1143 1144/1144/1144
f 1145/1145/1145 1146/1146/1146 1147/1147/1147
f 1145/1145/1145 1147/1147/1147 1148/1148/1148
f 1149/1149/1149 1150/1150/1150 1151/1151/1151
f 1149/1149/1149 1151/1151/1151 1152/1152/1152
f 1153/1153/1153 1154/1154/1154 1155/1155/1155
f 1153/1153/1153 1155/1155/1155 1156/1156/1156
f 1157/1157/1157 1158/1158/1158 1159/1159/1159
f 1157/1157/1157 1159/1159/1159 1160/1160/1160
f 1161/1161/1161 1162/1162/1162 1163/1163/1163
f 1161/1161/1161 1163/1163/1163 1164/1164/1164
f 1165/1165/1165 1166/1166/1166 1167/1167/1167
f 1165/1165/1165 1167/1167/1167 1168/1168/1168
f 1169/1169/1169 1170/1170/1170 1171/1171/1171
f 1169/1169/1169 1171/1171/1171 1172/1172/1172
f 1173/1173/1173 1174/1174/1174 1175/1175/1175
f 1173/1173/1173 1175/1175/1175 1176/1176/1176
f 1177/1177/1177 1178/1178/1178 1179/1179/1179
f 1177/1177/1177 1179/1179/1179 1180/1180/1180
f 1181/1181/1181 1182/1182/1182 1183/1183/1183
f 1181/1181/1181 1183/1183/1183 1184/1184/1184
f 1185/1185/1185 1186/1186/1186 1187/1187/1187
f 1185/1185/1185 1187/1187/1187 1188/1188/1188
f 1189/1189/1189 1190/1190/1190 1191/1191/1191
f 1189/1189/1189 1191/1191/1191 1192/1192/1192
f 1193/1193/1193 1194/1194/1194 1195/1195/1195
f 1193/1193/1193 1195/1195/1195 1196/1196/1196
f 1197/1197/1197 1198/1198/1198 1199/1199/1199
f 1197/1197/1197 1199/1199/1199 1200/1200/1200
f 1201/1201/1201 1202/1202/1202 1203/1203/1203
f 1201/1201/1201 1203/1203/1203 1204/1204/1204
f 1205/1205/1205 1206/1206/1206 1207/1207/1207
f 1205/1205/1205 1207/1207/1207 1208/1208/1208
f 1209/1209/1209 1210/1210/1210 1211/1211/1211
f 1209/1209/1209 1211/1211/1211 1212/1212/1212
f 1213/1213/1213 1214/1214/1214 1215/1215/1215
f 1213/1213/1213 1215/1215/1215 1216/1216/1216
f 1217/1217/1217 1218/1218/1218 1219/1219/1219
f 1217/1217/1217 1219/1219/1219 1220/1220/1220
f 1221/1221/1221 1222/1222/1222 1223/1223/1223
f 1221/1221/1221 1223/1223/1223 1224/1224/1224
f 1225/1225/1225 1226/1226/1226 1227/1227/1227
f 1225/1225/1225 1227/1227/1227 1228/1228/1228
f 1229/1229/1229 1230/1230/1230 1231/1231/1231
f 1229/1229/1229 1231/1231/1231 1232/1232/1232
f 1233/1233/1233 1234/1234/1234 1235/1235/1235
f 1233/1233/1233 1235/1235/1235 1236/1236/1236
f 1237/1237/1237 1238/1238/1238 1239/1239/1239
f 1237/1237/1237 1239/1239/1239 1240/1240/1240
