v -0.394814 0.02914 -0.060332
v -0.388679 0.029344 -0.097768
v -0.394814 0.029372 -0.103027
v -0.388679 0.029344 -0.097768
v -0.384047 0.029372 -0.103027
v -0.394814 0.029372 -0.103027
v -0.388679 0.029344 -0.097768
v -0.381956 0.029372 -0.102932
v -0.384047 0.029372 -0.103027
v -0.388679 0.029344 -0.097768
v -0.380008 0.02937 -0.102654
v -0.381956 0.029372 -0.102932
v -0.388679 0.029344 -0.097768
v -0.378211 0.029368 -0.102197
v -0.380008 0.02937 -0.102654
v -0.388679 0.029344 -0.097768
v -0.376571 0.029364 -0.101568
v -0.378211 0.029368 -0.102197
v -0.388679 0.029344 -0.097768
v -0.375097 0.02936 -0.100773
v -0.376571 0.029364 -0.101568
v -0.388679 0.029344 -0.097768
v -0.373795 0.029355 -0.099818
v -0.375097 0.02936 -0.100773
v -0.388679 0.029344 -0.097768
v -0.372674 0.029349 -0.098709
v -0.373795 0.029355 -0.099818
v -0.388679 0.029344 -0.097768
v -0.384735 0.029344 -0.097768
v -0.372674 0.029349 -0.098709
v -0.384735 0.029344 -0.097768
v -0.371739 0.029342 -0.097452
v -0.372674 0.029349 -0.098709
v -0.394814 0.02914 -0.060332
v -0.388679 0.029271 -0.084371
v -0.388679 0.029344 -0.097768
v -0.383322 0.029343 -0.097718
v -0.371739 0.029342 -0.097452
v -0.384735 0.029344 -0.097768
v -0.382053 0.029342 -0.097568
v -0.371739 0.029342 -0.097452
v -0.383322 0.029343 -0.097718
v -0.380924 0.029341 -0.097324
v -0.371739 0.029342 -0.097452
v -0.382053 0.029342 -0.097568
v -0.380924 0.029341 -0.097324
v -0.371 0.029334 -0.096054
v -0.371739 0.029342 -0.097452
v -0.379931 0.029339 -0.096987
v -0.371 0.029334 -0.096054
v -0.380924 0.029341 -0.097324
v -0.379069 0.029337 -0.09656
v -0.371 0.029334 -0.096054
v -0.379931 0.029339 -0.096987
v -0.378334 0.029334 -0.096046
v -0.371 0.029334 -0.096054
v -0.379069 0.029337 -0.09656
v -0.378334 0.029334 -0.096046
v -0.370462 0.029326 -0.09452
v -0.371 0.029334 -0.096054
v -0.377722 0.029331 -0.095449
v -0.370462 0.029326 -0.09452
v -0.378334 0.029334 -0.096046
v -0.377228 0.029327 -0.094773
v -0.370462 0.029326 -0.09452
v -0.377722 0.029331 -0.095449
v -0.376847 0.029323 -0.094017
v -0.370462 0.029326 -0.09452
v -0.377228 0.029327 -0.094773
v -0.376847 0.029323 -0.094017
v -0.370135 0.029317 -0.092856
v -0.370462 0.029326 -0.09452
v -0.376577 0.029319 -0.093189
v -0.370135 0.029317 -0.092856
v -0.376847 0.029323 -0.094017
v -0.376411 0.029314 -0.092289
v -0.370135 0.029317 -0.092856
v -0.376577 0.029319 -0.093189
v -0.376411 0.029314 -0.092289
v -0.370024 0.029307 -0.091069
v -0.370135 0.029317 -0.092856
v -0.376347 0.029308 -0.09132
v -0.370024 0.029307 -0.091069
v -0.376411 0.029314 -0.092289
v -0.376373 0.029304 -0.090434
v -0.370024 0.029307 -0.091069
v -0.376347 0.029308 -0.09132
v -0.376373 0.029304 -0.090434
v -0.370077 0.0293 -0.08986
v -0.370024 0.029307 -0.091069
v -0.37649 0.029299 -0.089566
v -0.370077 0.0293 -0.08986
v -0.376373 0.029304 -0.090434
v -0.37649 0.029299 -0.089566
v -0.370235 0.029294 -0.088704
v -0.370077 0.0293 -0.08986
v -0.376707 0.029294 -0.088729
v -0.370235 0.029294 -0.088704
v -0.37649 0.029299 -0.089566
v -0.377033 0.02929 -0.087932
v -0.370235 0.029294 -0.088704
v -0.376707 0.029294 -0.088729
v -0.377033 0.02929 -0.087932
v -0.370496 0.029288 -0.087605
v -0.370235 0.029294 -0.088704
v -0.377478 0.029286 -0.087188
v -0.370496 0.029288 -0.087605
v -0.377033 0.02929 -0.087932
v -0.377478 0.029286 -0.087188
v -0.370858 0.029283 -0.086565
v -0.370496 0.029288 -0.087605
v -0.378052 0.029282 -0.086507
v -0.370858 0.029283 -0.086565
v -0.377478 0.029286 -0.087188
v -0.378052 0.029282 -0.086507
v -0.37132 0.029277 -0.085585
v -0.370858 0.029283 -0.086565
v -0.378765 0.029279 -0.085901
v -0.37132 0.029277 -0.085585
v -0.378052 0.029282 -0.086507
v -0.379625 0.029276 -0.08538
v -0.37132 0.029277 -0.085585
v -0.378765 0.029279 -0.085901
v -0.379625 0.029276 -0.08538
v -0.371878 0.029272 -0.084669
v -0.37132 0.029277 -0.085585
v -0.380643 0.029274 -0.084955
v -0.371878 0.029272 -0.084669
v -0.379625 0.029276 -0.08538
v -0.381827 0.029272 -0.084638
v -0.371878 0.029272 -0.084669
v -0.380643 0.029274 -0.084955
v -0.381827 0.029272 -0.084638
v -0.372532 0.029268 -0.083817
v -0.371878 0.029272 -0.084669
v -0.383188 0.029271 -0.08444
v -0.372532 0.029268 -0.083817
v -0.381827 0.029272 -0.084638
v -0.384735 0.029271 -0.084371
v -0.372532 0.029268 -0.083817
v -0.383188 0.029271 -0.08444
v -0.394814 0.02914 -0.060332
v -0.388679 0.029241 -0.078862
v -0.388679 0.029271 -0.084371
v -0.388679 0.029241 -0.078862
v -0.384735 0.029271 -0.084371
v -0.388679 0.029271 -0.084371
v -0.388679 0.029241 -0.078862
v -0.372532 0.029268 -0.083817
v -0.384735 0.029271 -0.084371
v -0.388679 0.029241 -0.078862
v -0.373279 0.029263 -0.083034
v -0.372532 0.029268 -0.083817
v -0.388679 0.029241 -0.078862
v -0.374117 0.029259 -0.082319
v -0.373279 0.029263 -0.083034
v -0.388679 0.029241 -0.078862
v -0.375045 0.029256 -0.081676
v -0.374117 0.029259 -0.082319
v -0.388679 0.029241 -0.078862
v -0.37606 0.029253 -0.081107
v -0.375045 0.029256 -0.081676
v -0.388679 0.029241 -0.078862
v -0.37716 0.02925 -0.080615
v -0.37606 0.029253 -0.081107
v -0.388679 0.029241 -0.078862
v -0.37622 0.029246 -0.079944
v -0.37716 0.02925 -0.080615
v -0.388679 0.029241 -0.078862
v -0.375334 0.029242 -0.079217
v -0.37622 0.029246 -0.079944
v -0.388679 0.029241 -0.078862
v -0.386113 0.029241 -0.078862
v -0.375334 0.029242 -0.079217
v -0.386113 0.029241 -0.078862
v -0.38534 0.02924 -0.078837
v -0.375334 0.029242 -0.079217
v -0.38534 0.02924 -0.078837
v -0.374494 0.029238 -0.078432
v -0.375334 0.029242 -0.079217
v -0.394814 0.02914 -0.060332
v -0.388679 0.02914 -0.060332
v -0.388679 0.029241 -0.078862
v -0.384578 0.02924 -0.078748
v -0.374494 0.029238 -0.078432
v -0.38534 0.02924 -0.078837
v -0.383814 0.029239 -0.078569
v -0.374494 0.029238 -0.078432
v -0.384578 0.02924 -0.078748
v -0.383036 0.029237 -0.078278
v -0.374494 0.029238 -0.078432
v -0.383814 0.029239 -0.078569
v -0.383036 0.029237 -0.078278
v -0.373692 0.029234 -0.077589
v -0.374494 0.029238 -0.078432
v -0.382231 0.029235 -0.077851
v -0.373692 0.029234 -0.077589
v -0.383036 0.029237 -0.078278
v -0.381386 0.029232 -0.077266
v -0.373692 0.029234 -0.077589
v -0.382231 0.029235 -0.077851
v -0.381386 0.029232 -0.077266
v -0.372919 0.029229 -0.076689
v -0.373692 0.029234 -0.077589
v -0.380489 0.029228 -0.076498
v -0.372919 0.029229 -0.076689
v -0.381386 0.029232 -0.077266
v -0.380489 0.029228 -0.076498
v -0.372168 0.029224 -0.075732
v -0.372919 0.029229 -0.076689
v -0.379528 0.029222 -0.075524
v -0.372168 0.029224 -0.075732
v -0.380489 0.029228 -0.076498
v -0.379528 0.029222 -0.075524
v -0.37143 0.029218 -0.074717
v -0.372168 0.029224 -0.075732
v -0.378489 0.029216 -0.074319
v -0.37143 0.029218 -0.074717
v -0.379528 0.029222 -0.075524
v -0.378489 0.029216 -0.074319
v -0.370696 0.029212 -0.073646
v -0.37143 0.029218 -0.074717
v -0.37736 0.029208 -0.072863
v -0.370696 0.029212 -0.073646
v -0.378489 0.029216 -0.074319
v -0.37736 0.029208 -0.072863
v -0.369959 0.029206 -0.072516
v -0.370696 0.029212 -0.073646
v -0.376128 0.029198 -0.07113
v -0.369959 0.029206 -0.072516
v -0.37736 0.029208 -0.072863
v -0.376128 0.029198 -0.07113
v -0.36921 0.0292 -0.071329
v -0.369959 0.029206 -0.072516
v -0.376128 0.029198 -0.07113
v -0.368442 0.029193 -0.070085
v -0.36921 0.0292 -0.071329
v -0.374781 0.029187 -0.069096
v -0.368442 0.029193 -0.070085
v -0.376128 0.029198 -0.07113
v -0.374781 0.029187 -0.069096
v -0.367645 0.029186 -0.068783
v -0.368442 0.029193 -0.070085
v -0.369147 0.02914 -0.060332
v -0.367645 0.029186 -0.068783
v -0.374781 0.029187 -0.069096
v -0.369147 0.02914 -0.060332
v -0.367205 0.029182 -0.068076
v -0.367645 0.029186 -0.068783
v -0.369147 0.02914 -0.060332
v -0.366788 0.029178 -0.067418
v -0.367205 0.029182 -0.068076
v -0.369147 0.02914 -0.060332
v -0.366383 0.029175 -0.066794
v -0.366788 0.029178 -0.067418
v -0.369147 0.02914 -0.060332
v -0.365982 0.029172 -0.066189
v -0.366383 0.029175 -0.066794
v -0.369147 0.02914 -0.060332
v -0.365577 0.029168 -0.065589
v -0.365982 0.029172 -0.066189
v -0.369147 0.02914 -0.060332
v -0.365156 0.029165 -0.06498
v -0.365577 0.029168 -0.065589
v -0.369147 0.02914 -0.060332
v -0.364713 0.029161 -0.064348
v -0.365156 0.029165 -0.06498
v -0.369147 0.02914 -0.060332
v -0.364236 0.029158 -0.063678
v -0.364713 0.029161 -0.064348
v -0.369147 0.02914 -0.060332
v -0.363718 0.029154 -0.062955
v -0.364236 0.029158 -0.063678
v -0.369147 0.02914 -0.060332
v -0.36315 0.02915 -0.062167
v -0.363718 0.029154 -0.062955
v -0.369147 0.02914 -0.060332
v -0.362521 0.029145 -0.061297
v -0.36315 0.02915 -0.062167
v -0.369147 0.02914 -0.060332
v -0.361823 0.02914 -0.060332
v -0.362521 0.029145 -0.061297
v -0.388679 0.025587 -0.097788
v -0.394814 0.025384 -0.060353
v -0.394814 0.025616 -0.103047
v -0.384047 0.025616 -0.103047
v -0.388679 0.025587 -0.097788
v -0.394814 0.025616 -0.103047
v -0.381956 0.025616 -0.102953
v -0.388679 0.025587 -0.097788
v -0.384047 0.025616 -0.103047
v -0.380008 0.025614 -0.102674
v -0.388679 0.025587 -0.097788
v -0.381956 0.025616 -0.102953
v -0.378211 0.025612 -0.102218
v -0.388679 0.025587 -0.097788
v -0.380008 0.025614 -0.102674
v -0.376571 0.025608 -0.101589
v -0.388679 0.025587 -0.097788
v -0.378211 0.025612 -0.102218
v -0.375097 0.025604 -0.100794
v -0.388679 0.025587 -0.097788
v -0.376571 0.025608 -0.101589
v -0.373795 0.025599 -0.099839
v -0.388679 0.025587 -0.097788
v -0.375097 0.025604 -0.100794
v -0.372674 0.025593 -0.098729
v -0.388679 0.025587 -0.097788
v -0.373795 0.025599 -0.099839
v -0.384735 0.025587 -0.097788
v -0.388679 0.025587 -0.097788
v -0.372674 0.025593 -0.098729
v -0.371739 0.025586 -0.097473
v -0.384735 0.025587 -0.097788
v -0.372674 0.025593 -0.098729
v -0.388679 0.025514 -0.084391
v -0.394814 0.025384 -0.060353
v -0.388679 0.025587 -0.097788
v -0.371739 0.025586 -0.097473
v -0.383322 0.025587 -0.097738
v -0.384735 0.025587 -0.097788
v -0.371739 0.025586 -0.097473
v -0.382053 0.025586 -0.097589
v -0.383322 0.025587 -0.097738
v -0.371739 0.025586 -0.097473
v -0.380924 0.025585 -0.097344
v -0.382053 0.025586 -0.097589
v -0.371 0.025578 -0.096074
v -0.380924 0.025585 -0.097344
v -0.371739 0.025586 -0.097473
v -0.371 0.025578 -0.096074
v -0.379931 0.025583 -0.097007
v -0.380924 0.025585 -0.097344
v -0.371 0.025578 -0.096074
v -0.379069 0.025581 -0.09658
v -0.379931 0.025583 -0.097007
v -0.371 0.025578 -0.096074
v -0.378334 0.025578 -0.096067
v -0.379069 0.025581 -0.09658
v -0.370462 0.02557 -0.09454
v -0.378334 0.025578 -0.096067
v -0.371 0.025578 -0.096074
v -0.370462 0.02557 -0.09454
v -0.377722 0.025575 -0.09547
v -0.378334 0.025578 -0.096067
v -0.370462 0.02557 -0.09454
v -0.377228 0.025571 -0.094793
v -0.377722 0.025575 -0.09547
v -0.370462 0.02557 -0.09454
v -0.376847 0.025567 -0.094038
v -0.377228 0.025571 -0.094793
v -0.370135 0.025561 -0.092877
v -0.376847 0.025567 -0.094038
v -0.370462 0.02557 -0.09454
v -0.370135 0.025561 -0.092877
v -0.376577 0.025562 -0.093209
v -0.376847 0.025567 -0.094038
v -0.370135 0.025561 -0.092877
v -0.376411 0.025558 -0.092309
v -0.376577 0.025562 -0.093209
v -0.370024 0.025551 -0.09109
v -0.376411 0.025558 -0.092309
v -0.370135 0.025561 -0.092877
v -0.370024 0.025551 -0.09109
v -0.376347 0.025552 -0.09134
v -0.376411 0.025558 -0.092309
v -0.370024 0.025551 -0.09109
v -0.376373 0.025547 -0.090454
v -0.376347 0.025552 -0.09134
v -0.370077 0.025544 -0.08988
v -0.376373 0.025547 -0.090454
v -0.370024 0.025551 -0.09109
v -0.370077 0.025544 -0.08988
v -0.37649 0.025543 -0.089586
v -0.376373 0.025547 -0.090454
v -0.370235 0.025538 -0.088725
v -0.37649 0.025543 -0.089586
v -0.370077 0.025544 -0.08988
v -0.370235 0.025538 -0.088725
v -0.376707 0.025538 -0.088749
v -0.37649 0.025543 -0.089586
v -0.370235 0.025538 -0.088725
v -0.377033 0.025534 -0.087953
v -0.376707 0.025538 -0.088749
v -0.370496 0.025532 -0.087626
v -0.377033 0.025534 -0.087953
v -0.370235 0.025538 -0.088725
v -0.370496 0.025532 -0.087626
v -0.377478 0.02553 -0.087209
v -0.377033 0.025534 -0.087953
v -0.370858 0.025526 -0.086585
v -0.377478 0.02553 -0.087209
v -0.370496 0.025532 -0.087626
v -0.370858 0.025526 -0.086585
v -0.378052 0.025526 -0.086528
v -0.377478 0.02553 -0.087209
v -0.37132 0.025521 -0.085606
v -0.378052 0.025526 -0.086528
v -0.370858 0.025526 -0.086585
v -0.37132 0.025521 -0.085606
v -0.378765 0.025523 -0.085922
v -0.378052 0.025526 -0.086528
v -0.37132 0.025521 -0.085606
v -0.379625 0.02552 -0.0854
v -0.378765 0.025523 -0.085922
v -0.371878 0.025516 -0.084689
v -0.379625 0.02552 -0.0854
v -0.37132 0.025521 -0.085606
v -0.371878 0.025516 -0.084689
v -0.380643 0.025518 -0.084976
v -0.379625 0.02552 -0.0854
v -0.371878 0.025516 -0.084689
v -0.381827 0.025516 -0.084659
v -0.380643 0.025518 -0.084976
v -0.372532 0.025511 -0.083838
v -0.381827 0.025516 -0.084659
v -0.371878 0.025516 -0.084689
v -0.372532 0.025511 -0.083838
v -0.383188 0.025515 -0.08446
v -0.381827 0.025516 -0.084659
v -0.372532 0.025511 -0.083838
v -0.384735 0.025514 -0.084391
v -0.383188 0.025515 -0.08446
v -0.388679 0.025484 -0.078883
v -0.394814 0.025384 -0.060353
v -0.388679 0.025514 -0.084391
v -0.384735 0.025514 -0.084391
v -0.388679 0.025484 -0.078883
v -0.388679 0.025514 -0.084391
v -0.372532 0.025511 -0.083838
v -0.388679 0.025484 -0.078883
v -0.384735 0.025514 -0.084391
v -0.373279 0.025507 -0.083054
v -0.388679 0.025484 -0.078883
v -0.372532 0.025511 -0.083838
v -0.374117 0.025503 -0.08234
v -0.388679 0.025484 -0.078883
v -0.373279 0.025507 -0.083054
v -0.375045 0.0255 -0.081697
v -0.388679 0.025484 -0.078883
v -0.374117 0.025503 -0.08234
v -0.37606 0.025497 -0.081128
v -0.388679 0.025484 -0.078883
v -0.375045 0.0255 -0.081697
v -0.37716 0.025494 -0.080636
v -0.388679 0.025484 -0.078883
v -0.37606 0.025497 -0.081128
v -0.37622 0.02549 -0.079965
v -0.388679 0.025484 -0.078883
v -0.37716 0.025494 -0.080636
v -0.375334 0.025486 -0.079237
v -0.388679 0.025484 -0.078883
v -0.37622 0.02549 -0.079965
v -0.386113 0.025484 -0.078883
v -0.388679 0.025484 -0.078883
v -0.375334 0.025486 -0.079237
v -0.38534 0.025484 -0.078858
v -0.386113 0.025484 -0.078883
v -0.375334 0.025486 -0.079237
v -0.374494 0.025482 -0.078452
v -0.38534 0.025484 -0.078858
v -0.375334 0.025486 -0.079237
v -0.388679 0.025384 -0.060353
v -0.394814 0.025384 -0.060353
v -0.388679 0.025484 -0.078883
v -0.374494 0.025482 -0.078452
v -0.384578 0.025484 -0.078768
v -0.38534 0.025484 -0.078858
v -0.374494 0.025482 -0.078452
v -0.383814 0.025483 -0.078589
v -0.384578 0.025484 -0.078768
v -0.374494 0.025482 -0.078452
v -0.383036 0.025481 -0.078299
v -0.383814 0.025483 -0.078589
v -0.373692 0.025478 -0.07761
v -0.383036 0.025481 -0.078299
v -0.374494 0.025482 -0.078452
v -0.373692 0.025478 -0.07761
v -0.382231 0.025479 -0.077872
v -0.383036 0.025481 -0.078299
v -0.373692 0.025478 -0.07761
v -0.381386 0.025476 -0.077286
v -0.382231 0.025479 -0.077872
v -0.372919 0.025473 -0.07671
v -0.381386 0.025476 -0.077286
v -0.373692 0.025478 -0.07761
v -0.372919 0.025473 -0.07671
v -0.380489 0.025472 -0.076518
v -0.381386 0.025476 -0.077286
v -0.372168 0.025467 -0.075752
v -0.380489 0.025472 -0.076518
v -0.372919 0.025473 -0.07671
v -0.372168 0.025467 -0.075752
v -0.379528 0.025466 -0.075544
v -0.380489 0.025472 -0.076518
v -0.37143 0.025462 -0.074738
v -0.379528 0.025466 -0.075544
v -0.372168 0.025467 -0.075752
v -0.37143 0.025462 -0.074738
v -0.378489 0.02546 -0.07434
v -0.379528 0.025466 -0.075544
v -0.370696 0.025456 -0.073666
v -0.378489 0.02546 -0.07434
v -0.37143 0.025462 -0.074738
v -0.370696 0.025456 -0.073666
v -0.37736 0.025452 -0.072884
v -0.378489 0.02546 -0.07434
v -0.369959 0.02545 -0.072536
v -0.37736 0.025452 -0.072884
v -0.370696 0.025456 -0.073666
v -0.369959 0.02545 -0.072536
v -0.376128 0.025442 -0.07115
v -0.37736 0.025452 -0.072884
v -0.36921 0.025443 -0.07135
v -0.376128 0.025442 -0.07115
v -0.369959 0.02545 -0.072536
v -0.368442 0.025437 -0.070106
v -0.376128 0.025442 -0.07115
v -0.36921 0.025443 -0.07135
v -0.368442 0.025437 -0.070106
v -0.374781 0.025431 -0.069117
v -0.376128 0.025442 -0.07115
v -0.367645 0.02543 -0.068804
v -0.374781 0.025431 -0.069117
v -0.368442 0.025437 -0.070106
v -0.367645 0.02543 -0.068804
v -0.369147 0.025384 -0.060353
v -0.374781 0.025431 -0.069117
v -0.367205 0.025426 -0.068097
v -0.369147 0.025384 -0.060353
v -0.367645 0.02543 -0.068804
v -0.366788 0.025422 -0.067439
v -0.369147 0.025384 -0.060353
v -0.367205 0.025426 -0.068097
v -0.366383 0.025419 -0.066814
v -0.369147 0.025384 -0.060353
v -0.366788 0.025422 -0.067439
v -0.365982 0.025415 -0.06621
v -0.369147 0.025384 -0.060353
v -0.366383 0.025419 -0.066814
v -0.365577 0.025412 -0.065609
v -0.369147 0.025384 -0.060353
v -0.365982 0.025415 -0.06621
v -0.365156 0.025409 -0.065001
v -0.369147 0.025384 -0.060353
v -0.365577 0.025412 -0.065609
v -0.364713 0.025405 -0.064369
v -0.369147 0.025384 -0.060353
v -0.365156 0.025409 -0.065001
v -0.364236 0.025402 -0.063699
v -0.369147 0.025384 -0.060353
v -0.364713 0.025405 -0.064369
v -0.363718 0.025398 -0.062976
v -0.369147 0.025384 -0.060353
v -0.364236 0.025402 -0.063699
v -0.36315 0.025394 -0.062187
v -0.369147 0.025384 -0.060353
v -0.363718 0.025398 -0.062976
v -0.362521 0.025389 -0.061318
v -0.369147 0.025384 -0.060353
v -0.36315 0.025394 -0.062187
v -0.361823 0.025384 -0.060353
v -0.369147 0.025384 -0.060353
v -0.362521 0.025389 -0.061318
v -0.381956 0.029372 -0.102932
v -0.380008 0.02937 -0.102654
v -0.380008 0.025614 -0.102674
v -0.381956 0.025616 -0.102953
v -0.380008 0.02937 -0.102654
v -0.378211 0.029368 -0.102197
v -0.378211 0.025612 -0.102218
v -0.380008 0.025614 -0.102674
v -0.378211 0.029368 -0.102197
v -0.376571 0.029364 -0.101568
v -0.376571 0.025608 -0.101589
v -0.378211 0.025612 -0.102218
v -0.376571 0.029364 -0.101568
v -0.375097 0.02936 -0.100773
v -0.375097 0.025604 -0.100794
v -0.376571 0.025608 -0.101589
v -0.375097 0.02936 -0.100773
v -0.373795 0.029355 -0.099818
v -0.373795 0.025599 -0.099839
v -0.375097 0.025604 -0.100794
v -0.373795 0.029355 -0.099818
v -0.372674 0.029349 -0.098709
v -0.372674 0.025593 -0.098729
v -0.373795 0.025599 -0.099839
v -0.372674 0.029349 -0.098709
v -0.371739 0.029342 -0.097452
v -0.371739 0.025586 -0.097473
v -0.372674 0.025593 -0.098729
v -0.371739 0.029342 -0.097452
v -0.371 0.029334 -0.096054
v -0.371 0.025578 -0.096074
v -0.371739 0.025586 -0.097473
v -0.371 0.029334 -0.096054
v -0.370462 0.029326 -0.09452
v -0.370462 0.02557 -0.09454
v -0.371 0.025578 -0.096074
v -0.370462 0.029326 -0.09452
v -0.370135 0.029317 -0.092856
v -0.370135 0.025561 -0.092877
v -0.370462 0.02557 -0.09454
v -0.370135 0.029317 -0.092856
v -0.370024 0.029307 -0.091069
v -0.370024 0.025551 -0.09109
v -0.370135 0.025561 -0.092877
v -0.370024 0.029307 -0.091069
v -0.370077 0.0293 -0.08986
v -0.370077 0.025544 -0.08988
v -0.370024 0.025551 -0.09109
v -0.370077 0.0293 -0.08986
v -0.370235 0.029294 -0.088704
v -0.370235 0.025538 -0.088725
v -0.370077 0.025544 -0.08988
v -0.370235 0.029294 -0.088704
v -0.370496 0.029288 -0.087605
v -0.370496 0.025532 -0.087626
v -0.370235 0.025538 -0.088725
v -0.370496 0.029288 -0.087605
v -0.370858 0.029283 -0.086565
v -0.370858 0.025526 -0.086585
v -0.370496 0.025532 -0.087626
v -0.370858 0.029283 -0.086565
v -0.37132 0.029277 -0.085585
v -0.37132 0.025521 -0.085606
v -0.370858 0.025526 -0.086585
v -0.37132 0.029277 -0.085585
v -0.371878 0.029272 -0.084669
v -0.371878 0.025516 -0.084689
v -0.37132 0.025521 -0.085606
v -0.371878 0.029272 -0.084669
v -0.372532 0.029268 -0.083817
v -0.372532 0.025511 -0.083838
v -0.371878 0.025516 -0.084689
v -0.372532 0.029268 -0.083817
v -0.373279 0.029263 -0.083034
v -0.373279 0.025507 -0.083054
v -0.372532 0.025511 -0.083838
v -0.373279 0.029263 -0.083034
v -0.374117 0.029259 -0.082319
v -0.374117 0.025503 -0.08234
v -0.373279 0.025507 -0.083054
v -0.374117 0.029259 -0.082319
v -0.375045 0.029256 -0.081676
v -0.375045 0.0255 -0.081697
v -0.374117 0.025503 -0.08234
v -0.375045 0.029256 -0.081676
v -0.37606 0.029253 -0.081107
v -0.37606 0.025497 -0.081128
v -0.375045 0.0255 -0.081697
v -0.37606 0.029253 -0.081107
v -0.37716 0.02925 -0.080615
v -0.37716 0.025494 -0.080636
v -0.37606 0.025497 -0.081128
v -0.37716 0.02925 -0.080615
v -0.37622 0.029246 -0.079944
v -0.37622 0.02549 -0.079965
v -0.37716 0.025494 -0.080636
v -0.37622 0.029246 -0.079944
v -0.375334 0.029242 -0.079217
v -0.375334 0.025486 -0.079237
v -0.37622 0.02549 -0.079965
v -0.375334 0.029242 -0.079217
v -0.374494 0.029238 -0.078432
v -0.374494 0.025482 -0.078452
v -0.375334 0.025486 -0.079237
v -0.374494 0.029238 -0.078432
v -0.373692 0.029234 -0.077589
v -0.373692 0.025478 -0.07761
v -0.374494 0.025482 -0.078452
v -0.373692 0.029234 -0.077589
v -0.372919 0.029229 -0.076689
v -0.372919 0.025473 -0.07671
v -0.373692 0.025478 -0.07761
v -0.372919 0.029229 -0.076689
v -0.372168 0.029224 -0.075732
v -0.372168 0.025467 -0.075752
v -0.372919 0.025473 -0.07671
v -0.372168 0.029224 -0.075732
v -0.37143 0.029218 -0.074717
v -0.37143 0.025462 -0.074738
v -0.372168 0.025467 -0.075752
v -0.37143 0.029218 -0.074717
v -0.370696 0.029212 -0.073646
v -0.370696 0.025456 -0.073666
v -0.37143 0.025462 -0.074738
v -0.370696 0.029212 -0.073646
v -0.369959 0.029206 -0.072516
v -0.369959 0.02545 -0.072536
v -0.370696 0.025456 -0.073666
v -0.369959 0.029206 -0.072516
v -0.36921 0.0292 -0.071329
v -0.36921 0.025443 -0.07135
v -0.369959 0.02545 -0.072536
v -0.36921 0.0292 -0.071329
v -0.368442 0.029193 -0.070085
v -0.368442 0.025437 -0.070106
v -0.36921 0.025443 -0.07135
v -0.368442 0.029193 -0.070085
v -0.367645 0.029186 -0.068783
v -0.367645 0.02543 -0.068804
v -0.368442 0.025437 -0.070106
v -0.367645 0.029186 -0.068783
v -0.367205 0.029182 -0.068076
v -0.367205 0.025426 -0.068097
v -0.367645 0.02543 -0.068804
v -0.367205 0.029182 -0.068076
v -0.366788 0.029178 -0.067418
v -0.366788 0.025422 -0.067439
v -0.367205 0.025426 -0.068097
v -0.366788 0.029178 -0.067418
v -0.366383 0.029175 -0.066794
v -0.366383 0.025419 -0.066814
v -0.366788 0.025422 -0.067439
v -0.366383 0.029175 -0.066794
v -0.365982 0.029172 -0.066189
v -0.365982 0.025415 -0.06621
v -0.366383 0.025419 -0.066814
v -0.365982 0.029172 -0.066189
v -0.365577 0.029168 -0.065589
v -0.365577 0.025412 -0.065609
v -0.365982 0.025415 -0.06621
v -0.365577 0.029168 -0.065589
v -0.365156 0.029165 -0.06498
v -0.365156 0.025409 -0.065001
v -0.365577 0.025412 -0.065609
v -0.365156 0.029165 -0.06498
v -0.364713 0.029161 -0.064348
v -0.364713 0.025405 -0.064369
v -0.365156 0.025409 -0.065001
v -0.364713 0.029161 -0.064348
v -0.364236 0.029158 -0.063678
v -0.364236 0.025402 -0.063699
v -0.364713 0.025405 -0.064369
v -0.364236 0.029158 -0.063678
v -0.363718 0.029154 -0.062955
v -0.363718 0.025398 -0.062976
v -0.364236 0.025402 -0.063699
v -0.363718 0.029154 -0.062955
v -0.36315 0.02915 -0.062167
v -0.36315 0.025394 -0.062187
v -0.363718 0.025398 -0.062976
v -0.36315 0.02915 -0.062167
v -0.362521 0.029145 -0.061297
v -0.362521 0.025389 -0.061318
v -0.36315 0.025394 -0.062187
v -0.362521 0.029145 -0.061297
v -0.361823 0.02914 -0.060332
v -0.361823 0.025384 -0.060353
v -0.362521 0.025389 -0.061318
v -0.361823 0.02914 -0.060332
v -0.369147 0.02914 -0.060332
v -0.369147 0.025384 -0.060353
v -0.361823 0.025384 -0.060353
v -0.369147 0.02914 -0.060332
v -0.374781 0.029187 -0.069096
v -0.374781 0.025431 -0.069117
v -0.369147 0.025384 -0.060353
v -0.374781 0.029187 -0.069096
v -0.376128 0.029198 -0.07113
v -0.376128 0.025442 -0.07115
v -0.374781 0.025431 -0.069117
v -0.376128 0.029198 -0.07113
v -0.37736 0.029208 -0.072863
v -0.37736 0.025452 -0.072884
v -0.376128 0.025442 -0.07115
v -0.37736 0.029208 -0.072863
v -0.378489 0.029216 -0.074319
v -0.378489 0.02546 -0.07434
v -0.37736 0.025452 -0.072884
v -0.378489 0.029216 -0.074319
v -0.379528 0.029222 -0.075524
v -0.379528 0.025466 -0.075544
v -0.378489 0.02546 -0.07434
v -0.379528 0.029222 -0.075524
v -0.380489 0.029228 -0.076498
v -0.380489 0.025472 -0.076518
v -0.379528 0.025466 -0.075544
v -0.380489 0.029228 -0.076498
v -0.381386 0.029232 -0.077266
v -0.381386 0.025476 -0.077286
v -0.380489 0.025472 -0.076518
v -0.381386 0.029232 -0.077266
v -0.382231 0.029235 -0.077851
v -0.382231 0.025479 -0.077872
v -0.381386 0.025476 -0.077286
v -0.382231 0.029235 -0.077851
v -0.383036 0.029237 -0.078278
v -0.383036 0.025481 -0.078299
v -0.382231 0.025479 -0.077872
v -0.383036 0.029237 -0.078278
v -0.383814 0.029239 -0.078569
v -0.383814 0.025483 -0.078589
v -0.383036 0.025481 -0.078299
v -0.383814 0.029239 -0.078569
v -0.384578 0.02924 -0.078748
v -0.384578 0.025484 -0.078768
v -0.383814 0.025483 -0.078589
v -0.384578 0.02924 -0.078748
v -0.38534 0.02924 -0.078837
v -0.38534 0.025484 -0.078858
v -0.384578 0.025484 -0.078768
v -0.38534 0.02924 -0.078837
v -0.386113 0.029241 -0.078862
v -0.386113 0.025484 -0.078883
v -0.38534 0.025484 -0.078858
v -0.386113 0.029241 -0.078862
v -0.388679 0.029241 -0.078862
v -0.388679 0.025484 -0.078883
v -0.386113 0.025484 -0.078883
v -0.388679 0.029241 -0.078862
v -0.388679 0.02914 -0.060332
v -0.388679 0.025384 -0.060353
v -0.388679 0.025484 -0.078883
v -0.388679 0.02914 -0.060332
v -0.394814 0.02914 -0.060332
v -0.394814 0.025384 -0.060353
v -0.388679 0.025384 -0.060353
v -0.394814 0.02914 -0.060332
v -0.394814 0.029372 -0.103027
v -0.394814 0.025616 -0.103047
v -0.394814 0.025384 -0.060353
v -0.394814 0.029372 -0.103027
v -0.384047 0.029372 -0.103027
v -0.384047 0.025616 -0.103047
v -0.394814 0.025616 -0.103047
v -0.384047 0.029372 -0.103027
v -0.381956 0.029372 -0.102932
v -0.381956 0.025616 -0.102953
v -0.384047 0.025616 -0.103047
v -0.384735 0.029271 -0.084371
v -0.383188 0.029271 -0.08444
v -0.383188 0.025515 -0.08446
v -0.384735 0.025514 -0.084391
v -0.383188 0.029271 -0.08444
v -0.381827 0.029272 -0.084638
v -0.381827 0.025516 -0.084659
v -0.383188 0.025515 -0.08446
v -0.381827 0.029272 -0.084638
v -0.380643 0.029274 -0.084955
v -0.380643 0.025518 -0.084976
v -0.381827 0.025516 -0.084659
v -0.380643 0.029274 -0.084955
v -0.379625 0.029276 -0.08538
v -0.379625 0.02552 -0.0854
v -0.380643 0.025518 -0.084976
v -0.379625 0.029276 -0.08538
v -0.378765 0.029279 -0.085901
v -0.378765 0.025523 -0.085922
v -0.379625 0.02552 -0.0854
v -0.378765 0.029279 -0.085901
v -0.378052 0.029282 -0.086507
v -0.378052 0.025526 -0.086528
v -0.378765 0.025523 -0.085922
v -0.378052 0.029282 -0.086507
v -0.377478 0.029286 -0.087188
v -0.377478 0.02553 -0.087209
v -0.378052 0.025526 -0.086528
v -0.377478 0.029286 -0.087188
v -0.377033 0.02929 -0.087932
v -0.377033 0.025534 -0.087953
v -0.377478 0.02553 -0.087209
v -0.377033 0.02929 -0.087932
v -0.376707 0.029294 -0.088729
v -0.376707 0.025538 -0.088749
v -0.377033 0.025534 -0.087953
v -0.376707 0.029294 -0.088729
v -0.37649 0.029299 -0.089566
v -0.37649 0.025543 -0.089586
v -0.376707 0.025538 -0.088749
v -0.37649 0.029299 -0.089566
v -0.376373 0.029304 -0.090434
v -0.376373 0.025547 -0.090454
v -0.37649 0.025543 -0.089586
v -0.376373 0.029304 -0.090434
v -0.376347 0.029308 -0.09132
v -0.376347 0.025552 -0.09134
v -0.376373 0.025547 -0.090454
v -0.376347 0.029308 -0.09132
v -0.376411 0.029314 -0.092289
v -0.376411 0.025558 -0.092309
v -0.376347 0.025552 -0.09134
v -0.376411 0.029314 -0.092289
v -0.376577 0.029319 -0.093189
v -0.376577 0.025562 -0.093209
v -0.376411 0.025558 -0.092309
v -0.376577 0.029319 -0.093189
v -0.376847 0.029323 -0.094017
v -0.376847 0.025567 -0.094038
v -0.376577 0.025562 -0.093209
v -0.376847 0.029323 -0.094017
v -0.377228 0.029327 -0.094773
v -0.377228 0.025571 -0.094793
v -0.376847 0.025567 -0.094038
v -0.377228 0.029327 -0.094773
v -0.377722 0.029331 -0.095449
v -0.377722 0.025575 -0.09547
v -0.377228 0.025571 -0.094793
v -0.377722 0.029331 -0.095449
v -0.378334 0.029334 -0.096046
v -0.378334 0.025578 -0.096067
v -0.377722 0.025575 -0.09547
v -0.378334 0.029334 -0.096046
v -0.379069 0.029337 -0.09656
v -0.379069 0.025581 -0.09658
v -0.378334 0.025578 -0.096067
v -0.379069 0.029337 -0.09656
v -0.379931 0.029339 -0.096987
v -0.379931 0.025583 -0.097007
v -0.379069 0.025581 -0.09658
v -0.379931 0.029339 -0.096987
v -0.380924 0.029341 -0.097324
v -0.380924 0.025585 -0.097344
v -0.379931 0.025583 -0.097007
v -0.380924 0.029341 -0.097324
v -0.382053 0.029342 -0.097568
v -0.382053 0.025586 -0.097589
v -0.380924 0.025585 -0.097344
v -0.382053 0.029342 -0.097568
v -0.383322 0.029343 -0.097718
v -0.383322 0.025587 -0.097738
v -0.382053 0.025586 -0.097589
v -0.383322 0.029343 -0.097718
v -0.384735 0.029344 -0.097768
v -0.384735 0.025587 -0.097788
v -0.383322 0.025587 -0.097738
v -0.384735 0.029344 -0.097768
v -0.388679 0.029344 -0.097768
v -0.388679 0.025587 -0.097788
v -0.384735 0.025587 -0.097788
v -0.388679 0.029344 -0.097768
v -0.388679 0.029271 -0.084371
v -0.388679 0.025514 -0.084391
v -0.388679 0.025587 -0.097788
v -0.388679 0.029271 -0.084371
v -0.384735 0.029271 -0.084371
v -0.384735 0.025514 -0.084391
v -0.388679 0.025514 -0.084391
vn -0 1 0.0054
vn -0 1 0.0054
vn -0.0001 1 0.0054
vn -0 1 0.0054
vn -0.0002 1 0.0052
vn -0.0001 1 0.0054
vn -0 1 0.0054
vn 0.0001 1 0.0056
vn -0.0002 1 0.0052
vn -0 1 0.0054
vn -0.0001 1 0.0052
vn 0.0001 1 0.0056
vn -0 1 0.0054
vn 0.0001 1 0.0057
vn -0.0001 1 0.0052
vn -0 1 0.0054
vn -0 1 0.0053
vn 0.0001 1 0.0057
vn -0 1 0.0054
vn -0 1 0.0052
vn -0 1 0.0053
vn -0 1 0.0054
vn -0 1 0.0054
vn -0 1 0.0052
vn -0 1 0.0054
vn -0 1 0.0055
vn -0 1 0.0054
vn -0 1 0.0054
vn -0 1 0.0055
vn -0 1 0.0055
vn -0 1 0.0055
vn -0 1 0.0057
vn -0 1 0.0055
vn -0 1 0.0054
vn -0 1 0.0054
vn -0 1 0.0054
vn -0 1 0.0056
vn -0 1 0.0057
vn -0 1 0.0055
vn -0 1 0.0054
vn -0 1 0.0057
vn -0 1 0.0056
vn -0 1 0.0052
vn -0 1 0.0057
vn -0 1 0.0054
vn -0 1 0.0052
vn -0 1 0.0054
vn -0 1 0.0057
vn -0 1 0.0057
vn -0 1 0.0054
vn -0 1 0.0052
vn -0.0001 1 0.0058
vn -0 1 0.0054
vn -0 1 0.0057
vn -0 1 0.0056
vn -0 1 0.0054
vn -0.0001 1 0.0058
vn -0 1 0.0056
vn -0 1 0.0053
vn -0 1 0.0054
vn -0 1 0.0052
vn -0 1 0.0053
vn -0 1 0.0056
vn -0 1 0.0053
vn -0 1 0.0053
vn -0 1 0.0052
vn -0 1 0.0052
vn -0 1 0.0053
vn -0 1 0.0053
vn -0 1 0.0052
vn -0 1 0.0055
vn -0 1 0.0053
vn -0 1 0.0054
vn -0 1 0.0055
vn -0 1 0.0052
vn -0 1 0.0058
vn -0 1 0.0055
vn -0 1 0.0054
vn -0 1 0.0058
vn 0.0001 1 0.0057
vn -0 1 0.0055
vn -0.0001 1 0.0054
vn 0.0001 1 0.0057
vn -0 1 0.0058
vn -0 1 0.0055
vn 0.0001 1 0.0057
vn -0.0001 1 0.0054
vn -0 1 0.0055
vn 0.0001 1 0.0055
vn 0.0001 1 0.0057
vn -0 1 0.0058
vn 0.0001 1 0.0055
vn -0 1 0.0055
vn -0 1 0.0058
vn 0.0001 1 0.0053
vn 0.0001 1 0.0055
vn -0 1 0.0054
vn 0.0001 1 0.0053
vn -0 1 0.0058
vn -0 1 0.0053
vn 0.0001 1 0.0053
vn -0 1 0.0054
vn -0 1 0.0053
vn -0 1 0.0052
vn 0.0001 1 0.0053
vn -0.0001 1 0.0056
vn -0 1 0.0052
vn -0 1 0.0053
vn -0.0001 1 0.0056
vn -0 1 0.0053
vn -0 1 0.0052
vn -0 1 0.0053
vn -0 1 0.0053
vn -0.0001 1 0.0056
vn -0 1 0.0053
vn -0 1 0.0058
vn -0 1 0.0053
vn -0 1 0.0056
vn -0 1 0.0058
vn -0 1 0.0053
vn -0 1 0.0056
vn -0 1 0.0058
vn -0 1 0.0056
vn -0 1 0.0056
vn -0 1 0.0056
vn -0 1 0.0058
vn -0 1 0.0055
vn -0 1 0.0056
vn -0 1 0.0056
vn -0 1 0.0054
vn -0 1 0.0056
vn -0 1 0.0055
vn -0 1 0.0054
vn 0.0001 1 0.0051
vn -0 1 0.0056
vn -0 1 0.0053
vn 0.0001 1 0.0051
vn -0 1 0.0054
vn -0 1 0.0054
vn 0.0001 1 0.0051
vn -0 1 0.0053
vn -0 1 0.0054
vn -0 1 0.0054
vn -0 1 0.0054
vn -0 1 0.0054
vn -0 1 0.0054
vn -0 1 0.0054
vn -0 1 0.0054
vn 0.0001 1 0.0051
vn -0 1 0.0054
vn -0 1 0.0054
vn -0 1 0.0055
vn 0.0001 1 0.0051
vn -0 1 0.0054
vn 0.0001 1 0.0056
vn -0 1 0.0055
vn -0 1 0.0054
vn -0 1 0.0054
vn 0.0001 1 0.0056
vn -0 1 0.0054
vn -0 1 0.0053
vn -0 1 0.0054
vn -0 1 0.0054
vn -0 1 0.0054
vn -0 1 0.0053
vn -0 1 0.0054
vn 0.0001 1 0.0055
vn -0 1 0.0054
vn -0 1 0.0054
vn -0 1 0.0052
vn 0.0001 1 0.0055
vn -0 1 0.0054
vn -0 1 0.0054
vn -0 1 0.0052
vn -0 1 0.0054
vn -0 1 0.0052
vn -0 1 0.0052
vn -0 1 0.0052
vn -0 1 0.0052
vn -0 1 0.0052
vn -0 1 0.0054
vn -0 1 0.0055
vn -0 1 0.0054
vn -0 1 0.0059
vn -0 1 0.0052
vn -0 1 0.0052
vn -0 1 0.0056
vn -0 1 0.0052
vn -0 1 0.0059
vn -0 1 0.0051
vn -0 1 0.0052
vn -0 1 0.0056
vn -0 1 0.0051
vn -0 1 0.0054
vn -0 1 0.0052
vn -0 1 0.0053
vn -0 1 0.0054
vn -0 1 0.0051
vn -0 1 0.0058
vn -0 1 0.0054
vn -0 1 0.0053
vn -0 1 0.0058
vn -0 1 0.0053
vn -0 1 0.0054
vn -0 1 0.0054
vn -0 1 0.0053
vn -0 1 0.0058
vn -0 1 0.0054
vn -0.0001 1 0.0058
vn -0 1 0.0053
vn -0.0001 1 0.0059
vn -0.0001 1 0.0058
vn -0 1 0.0054
vn -0.0001 1 0.0059
vn -0 1 0.0053
vn -0.0001 1 0.0058
vn -0 1 0.0051
vn -0 1 0.0053
vn -0.0001 1 0.0059
vn -0 1 0.0051
vn -0 1 0.0054
vn -0 1 0.0053
vn -0 1 0.0055
vn -0 1 0.0054
vn -0 1 0.0051
vn -0 1 0.0055
vn -0.0001 1 0.0052
vn -0 1 0.0054
vn -0 1 0.0056
vn -0.0001 1 0.0052
vn -0 1 0.0055
vn -0 1 0.0056
vn -0.0001 1 0.0055
vn -0.0001 1 0.0052
vn -0 1 0.0056
vn -0.0001 1 0.0055
vn -0.0001 1 0.0055
vn -0.0001 1 0.0055
vn -0.0001 1 0.0055
vn -0 1 0.0056
vn -0.0001 1 0.0055
vn -0 1 0.0054
vn -0.0001 1 0.0055
vn -0 1 0.0054
vn -0 1 0.0054
vn -0.0001 1 0.0055
vn -0 1 0.0054
vn -0.0001 1 0.0055
vn -0 1 0.0054
vn -0 1 0.0054
vn 0.0004 1 0.0055
vn -0.0001 1 0.0055
vn -0 1 0.0054
vn -0.0001 1 0.0054
vn 0.0004 1 0.0055
vn -0 1 0.0054
vn 0.0001 1 0.0055
vn -0.0001 1 0.0054
vn -0 1 0.0054
vn 0.0002 1 0.0056
vn 0.0001 1 0.0055
vn -0 1 0.0054
vn 0.0001 1 0.0054
vn 0.0002 1 0.0056
vn -0 1 0.0054
vn 0.0001 1 0.0054
vn 0.0001 1 0.0054
vn -0 1 0.0054
vn -0.0002 1 0.0051
vn 0.0001 1 0.0054
vn -0 1 0.0054
vn -0 1 0.0053
vn -0.0002 1 0.0051
vn -0 1 0.0054
vn -0 1 0.0055
vn -0 1 0.0053
vn -0 1 0.0054
vn -0 1 0.0054
vn -0 1 0.0055
vn -0 1 0.0054
vn -0 1 0.0052
vn -0 1 0.0054
vn -0 -1 -0.0055
vn -0 -1 -0.0054
vn -0 -1 -0.0055
vn 0.0002 -1 -0.0054
vn -0 -1 -0.0055
vn -0 -1 -0.0055
vn -0.0001 -1 -0.0057
vn -0 -1 -0.0055
vn 0.0002 -1 -0.0054
vn 0.0001 -1 -0.0053
vn -0 -1 -0.0055
vn -0.0001 -1 -0.0057
vn -0.0001 -1 -0.0058
vn -0 -1 -0.0055
vn 0.0001 -1 -0.0053
vn -0 -1 -0.0054
vn -0 -1 -0.0055
vn -0.0001 -1 -0.0058
vn 0.0001 -1 -0.0053
vn -0 -1 -0.0055
vn -0 -1 -0.0054
vn 0.0001 -1 -0.0054
vn -0 -1 -0.0055
vn 0.0001 -1 -0.0053
vn 0.0001 -1 -0.0056
vn -0 -1 -0.0055
vn 0.0001 -1 -0.0054
vn -0 -1 -0.0057
vn -0 -1 -0.0055
vn 0.0001 -1 -0.0056
vn -0 -1 -0.0057
vn -0 -1 -0.0057
vn 0.0001 -1 -0.0056
vn -0.0001 -1 -0.0054
vn -0 -1 -0.0054
vn -0 -1 -0.0055
vn -0 -1 -0.0057
vn -0 -1 -0.0054
vn -0 -1 -0.0057
vn -0 -1 -0.0057
vn -0 -1 -0.0055
vn -0 -1 -0.0054
vn -0 -1 -0.0057
vn -0 -1 -0.0052
vn -0 -1 -0.0055
vn -0 -1 -0.0054
vn -0 -1 -0.0052
vn -0 -1 -0.0057
vn -0 -1 -0.0054
vn 0.0001 -1 -0.006
vn -0 -1 -0.0052
vn -0 -1 -0.0054
vn 0.0001 -1 -0.0058
vn 0.0001 -1 -0.006
vn -0 -1 -0.0054
vn -0 -1 -0.0056
vn 0.0001 -1 -0.0058
vn -0 -1 -0.0054
vn -0 -1 -0.0056
vn -0 -1 -0.0054
vn -0 -1 -0.0054
vn -0 -1 -0.0052
vn -0 -1 -0.0056
vn -0 -1 -0.0054
vn 0.0001 -1 -0.0058
vn -0 -1 -0.0052
vn -0 -1 -0.0054
vn 0.0001 -1 -0.0056
vn 0.0001 -1 -0.0058
vn -0 -1 -0.0055
vn 0.0001 -1 -0.0056
vn -0 -1 -0.0054
vn -0 -1 -0.0055
vn 0.0001 -1 -0.0054
vn 0.0001 -1 -0.0056
vn -0 -1 -0.0055
vn 0.0001 -1 -0.0053
vn 0.0001 -1 -0.0054
vn -0 -1 -0.0057
vn 0.0001 -1 -0.0053
vn -0 -1 -0.0055
vn -0 -1 -0.0057
vn -0 -1 -0.0054
vn 0.0001 -1 -0.0053
vn -0 -1 -0.0057
vn -0 -1 -0.0051
vn -0 -1 -0.0054
vn -0 -1 -0.0055
vn -0 -1 -0.0051
vn -0 -1 -0.0057
vn -0 -1 -0.0055
vn -0 -1 -0.0054
vn -0 -1 -0.0051
vn -0.0001 -1 -0.0053
vn -0 -1 -0.0054
vn -0 -1 -0.0055
vn -0.0001 -1 -0.0053
vn -0 -1 -0.0054
vn -0 -1 -0.0054
vn -0.0001 -1 -0.0053
vn -0 -1 -0.0053
vn -0 -1 -0.0054
vn -0 -1 -0.0056
vn -0 -1 -0.0053
vn -0.0001 -1 -0.0053
vn -0 -1 -0.0056
vn -0 -1 -0.0058
vn -0 -1 -0.0053
vn -0.0001 -1 -0.0055
vn -0 -1 -0.0058
vn -0 -1 -0.0056
vn -0.0001 -1 -0.0055
vn -0.0001 -1 -0.0053
vn -0 -1 -0.0058
vn -0 -1 -0.0052
vn -0.0001 -1 -0.0053
vn -0.0001 -1 -0.0055
vn -0 -1 -0.0052
vn -0 -1 -0.0056
vn -0.0001 -1 -0.0053
vn -0 -1 -0.0052
vn -0.0001 -1 -0.005
vn -0 -1 -0.0056
vn -0 -1 -0.0056
vn -0.0001 -1 -0.005
vn -0 -1 -0.0052
vn -0 -1 -0.0056
vn -0 -1 -0.0055
vn -0.0001 -1 -0.005
vn -0 -1 -0.0056
vn -0.0001 -1 -0.0055
vn -0 -1 -0.0055
vn -0 -1 -0.0057
vn -0.0001 -1 -0.0055
vn -0 -1 -0.0056
vn -0 -1 -0.0057
vn -0 -1 -0.0053
vn -0.0001 -1 -0.0055
vn -0 -1 -0.0057
vn -0 -1 -0.0056
vn -0 -1 -0.0053
vn -0.0001 -1 -0.0054
vn -0 -1 -0.0054
vn -0.0001 -1 -0.0054
vn -0 -1 -0.0056
vn -0.0001 -1 -0.0054
vn -0.0001 -1 -0.0054
vn -0 -1 -0.0057
vn -0.0001 -1 -0.0054
vn -0 -1 -0.0056
vn 0.0001 -1 -0.0051
vn -0.0001 -1 -0.0054
vn -0 -1 -0.0057
vn -0 -1 -0.0055
vn -0.0001 -1 -0.0054
vn 0.0001 -1 -0.0051
vn -0 -1 -0.0054
vn -0.0001 -1 -0.0054
vn -0 -1 -0.0055
vn -0 -1 -0.0055
vn -0.0001 -1 -0.0054
vn -0 -1 -0.0054
vn -0.0001 -1 -0.0057
vn -0.0001 -1 -0.0054
vn -0 -1 -0.0055
vn -0 -1 -0.0056
vn -0.0001 -1 -0.0054
vn -0.0001 -1 -0.0057
vn -0 -1 -0.0052
vn -0.0001 -1 -0.0054
vn -0 -1 -0.0056
vn -0 -1 -0.0056
vn -0.0001 -1 -0.0054
vn -0 -1 -0.0052
vn -0 -1 -0.0055
vn -0 -1 -0.0056
vn -0 -1 -0.0052
vn -0 -1 -0.0049
vn -0 -1 -0.0055
vn -0 -1 -0.0052
vn -0 -1 -0.0054
vn -0 -1 -0.0054
vn -0.0001 -1 -0.0054
vn -0 -1 -0.0049
vn -0 -1 -0.0058
vn -0 -1 -0.0055
vn -0 -1 -0.0049
vn -0 -1 -0.0056
vn -0 -1 -0.0058
vn -0 -1 -0.0049
vn -0 -1 -0.0054
vn -0 -1 -0.0056
vn -0 -1 -0.0054
vn -0 -1 -0.0054
vn -0 -1 -0.0049
vn -0 -1 -0.0054
vn 0.0001 -1 -0.0058
vn -0 -1 -0.0054
vn -0 -1 -0.0054
vn -0 -1 -0.0052
vn 0.0001 -1 -0.0058
vn -0 -1 -0.006
vn -0 -1 -0.0052
vn -0 -1 -0.0054
vn -0 -1 -0.006
vn -0 -1 -0.0054
vn -0 -1 -0.0052
vn -0 -1 -0.0053
vn -0 -1 -0.0054
vn -0 -1 -0.006
vn -0 -1 -0.0053
vn -0 -1 -0.0058
vn -0 -1 -0.0054
vn -0 -1 -0.0054
vn -0 -1 -0.0058
vn -0 -1 -0.0053
vn -0 -1 -0.0054
vn -0 -1 -0.0055
vn -0 -1 -0.0058
vn -0 -1 -0.0054
vn -0 -1 -0.0055
vn -0 -1 -0.0054
vn -0 -1 -0.0054
vn -0 -1 -0.0055
vn -0 -1 -0.0055
vn -0 -1 -0.0057
vn -0 -1 -0.0055
vn -0 -1 -0.0054
vn -0 -1 -0.0057
vn -0 -1 -0.0056
vn -0 -1 -0.0055
vn -0 -1 -0.0052
vn -0 -1 -0.0056
vn -0 -1 -0.0057
vn 0.0001 -1 -0.0053
vn -0 -1 -0.0056
vn -0 -1 -0.0052
vn 0.0001 -1 -0.0053
vn 0.0001 -1 -0.0055
vn -0 -1 -0.0056
vn -0 -1 -0.0054
vn 0.0001 -1 -0.0055
vn 0.0001 -1 -0.0053
vn -0 -1 -0.0054
vn -0 -1 -0.0054
vn 0.0001 -1 -0.0055
vn -0.0001 -1 -0.0055
vn -0 -1 -0.0054
vn -0 -1 -0.0054
vn -0.0004 -1 -0.0055
vn -0 -1 -0.0054
vn -0.0001 -1 -0.0055
vn -0.0003 -1 -0.0055
vn -0 -1 -0.0054
vn -0.0004 -1 -0.0055
vn -0.0003 -1 -0.0055
vn -0 -1 -0.0054
vn -0.0003 -1 -0.0055
vn 0.0003 -1 -0.0051
vn -0 -1 -0.0054
vn -0.0003 -1 -0.0055
vn -0.0001 -1 -0.0055
vn -0 -1 -0.0054
vn 0.0003 -1 -0.0051
vn -0.0001 -1 -0.0054
vn -0 -1 -0.0054
vn -0.0001 -1 -0.0055
vn 0.0002 -1 -0.0051
vn -0 -1 -0.0054
vn -0.0001 -1 -0.0054
vn -0 -1 -0.0053
vn -0 -1 -0.0054
vn 0.0002 -1 -0.0051
vn -0 -1 -0.0055
vn -0 -1 -0.0054
vn -0 -1 -0.0053
vn -0 -1 -0.0054
vn -0 -1 -0.0054
vn -0 -1 -0.0055
vn -0 -1 -0.0052
vn -0 -1 -0.0054
vn -0 -1 -0.0054
vn 0.0934 0.0054 -0.9956
vn 0.1941 0.0054 -0.981
vn 0.1941 0.0054 -0.981
vn 0.0934 0.0054 -0.9956
vn 0.1941 0.0054 -0.981
vn 0.3027 0.0053 -0.9531
vn 0.3027 0.0053 -0.9531
vn 0.1941 0.0054 -0.981
vn 0.3027 0.0053 -0.9531
vn 0.4173 0.0051 -0.9088
vn 0.4173 0.0051 -0.9088
vn 0.3027 0.0053 -0.9531
vn 0.4173 0.0051 -0.9088
vn 0.5345 0.0044 -0.8452
vn 0.5346 0.0043 -0.8451
vn 0.4173 0.0051 -0.9088
vn 0.5345 0.0044 -0.8452
vn 0.6492 0.0042 -0.7606
vn 0.6492 0.0042 -0.7606
vn 0.5346 0.0043 -0.8451
vn 0.6492 0.0042 -0.7606
vn 0.755 0.0036 -0.6557
vn 0.755 0.0036 -0.6557
vn 0.6492 0.0042 -0.7606
vn 0.755 0.0036 -0.6557
vn 0.8457 0.0029 -0.5337
vn 0.8457 0.0029 -0.5337
vn 0.755 0.0036 -0.6557
vn 0.8457 0.0029 -0.5337
vn 0.9164 0.0022 -0.4002
vn 0.9164 0.0022 -0.4002
vn 0.8457 0.0029 -0.5337
vn 0.9164 0.0022 -0.4002
vn 0.9649 0.0014 -0.2626
vn 0.9649 0.0014 -0.2626
vn 0.9164 0.0022 -0.4002
vn 0.9649 0.0014 -0.2626
vn 0.9918 0.0007 -0.1281
vn 0.9917 0.0007 -0.1282
vn 0.9649 0.0014 -0.2626
vn 0.9918 0.0007 -0.1281
vn 1 0.0001 -0.0091
vn 1 0.0001 -0.0091
vn 0.9917 0.0007 -0.1282
vn 1 0.0001 -0.0091
vn 0.996 -0.0005 0.0897
vn 0.996 -0.0005 0.0897
vn 1 0.0001 -0.0091
vn 0.996 -0.0005 0.0897
vn 0.983 -0.001 0.1838
vn 0.983 -0.001 0.1835
vn 0.996 -0.0005 0.0897
vn 0.983 -0.001 0.1838
vn 0.9598 -0.0015 0.2805
vn 0.9599 -0.0015 0.2802
vn 0.983 -0.001 0.1835
vn 0.9598 -0.0015 0.2805
vn 0.9258 -0.0021 0.3781
vn 0.9258 -0.0021 0.3781
vn 0.9599 -0.0015 0.2802
vn 0.9258 -0.0021 0.3781
vn 0.8805 -0.0026 0.474
vn 0.8805 -0.0026 0.474
vn 0.9258 -0.0021 0.3781
vn 0.8805 -0.0026 0.474
vn 0.8248 -0.0031 0.5654
vn 0.8248 -0.0031 0.5654
vn 0.8805 -0.0026 0.474
vn 0.8248 -0.0031 0.5654
vn 0.7595 -0.0036 0.6505
vn 0.7595 -0.0036 0.6505
vn 0.8248 -0.0031 0.5654
vn 0.7595 -0.0036 0.6505
vn 0.6872 -0.004 0.7264
vn 0.6872 -0.004 0.7264
vn 0.7595 -0.0036 0.6505
vn 0.6872 -0.004 0.7264
vn 0.6099 -0.0044 0.7924
vn 0.6099 -0.0044 0.7924
vn 0.6872 -0.004 0.7264
vn 0.6099 -0.0044 0.7924
vn 0.5299 -0.0047 0.8481
vn 0.5297 -0.0044 0.8482
vn 0.6099 -0.0044 0.7924
vn 0.5299 -0.0047 0.8481
vn 0.4491 -0.005 0.8935
vn 0.4491 -0.005 0.8935
vn 0.5297 -0.0044 0.8482
vn 0.4491 -0.005 0.8935
vn 0.9951 -0.0005 0.0989
vn 0.9951 -0.0006 0.0993
vn 0.4491 -0.005 0.8935
vn 0.9951 -0.0005 0.0989
vn 0.6081 0.0044 -0.7938
vn 0.6081 0.0044 -0.7938
vn 0.9951 -0.0006 0.0993
vn 0.6081 0.0044 -0.7938
vn 0.659 0.0041 -0.7521
vn 0.659 0.0041 -0.7521
vn 0.6081 0.0044 -0.7938
vn 0.659 0.0041 -0.7521
vn 0.7039 0.0038 -0.7103
vn 0.7038 0.0038 -0.7103
vn 0.659 0.0041 -0.7521
vn 0.7039 0.0038 -0.7103
vn 0.7417 0.0037 -0.6707
vn 0.7417 0.0037 -0.6707
vn 0.7038 0.0038 -0.7103
vn 0.7417 0.0037 -0.6707
vn 0.7729 0.0035 -0.6345
vn 0.7729 0.0035 -0.6345
vn 0.7417 0.0037 -0.6707
vn 0.7729 0.0035 -0.6345
vn 0.7979 0.0033 -0.6028
vn 0.7976 0.0033 -0.6032
vn 0.7729 0.0035 -0.6345
vn 0.7979 0.0033 -0.6028
vn 0.8169 0.0031 -0.5767
vn 0.8169 0.0031 -0.5767
vn 0.7976 0.0033 -0.6032
vn 0.8169 0.0031 -0.5767
vn 0.8314 0.003 -0.5557
vn 0.8314 0.003 -0.5557
vn 0.8169 0.0031 -0.5767
vn 0.8314 0.003 -0.5557
vn 0.8416 0.0029 -0.54
vn 0.8416 0.0029 -0.54
vn 0.8314 0.003 -0.5557
vn 0.8416 0.0029 -0.54
vn 0.8483 0.0029 -0.5296
vn 0.8483 0.0029 -0.5296
vn 0.8416 0.0029 -0.54
vn 0.8483 0.0029 -0.5296
vn 0.8519 0.0029 -0.5237
vn 0.8519 0.0029 -0.5237
vn 0.8483 0.0029 -0.5296
vn 0.8519 0.0029 -0.5237
vn 0.8508 0.0029 -0.5255
vn 0.851 0.0029 -0.5252
vn 0.8519 0.0029 -0.5237
vn 0.8508 0.0029 -0.5255
vn 0.8469 0.003 -0.5318
vn 0.8468 0.003 -0.5318
vn 0.851 0.0029 -0.5252
vn 0.8469 0.003 -0.5318
vn 0.8419 0.003 -0.5397
vn 0.8419 0.003 -0.5397
vn 0.8468 0.003 -0.5318
vn 0.8419 0.003 -0.5397
vn 0.8364 0.003 -0.548
vn 0.8364 0.003 -0.548
vn 0.8419 0.003 -0.5397
vn 0.8364 0.003 -0.548
vn 0.8312 0.003 -0.556
vn 0.8312 0.003 -0.556
vn 0.8364 0.003 -0.548
vn 0.8312 0.003 -0.556
vn 0.8257 0.0031 -0.5641
vn 0.8257 0.0031 -0.5641
vn 0.8312 0.003 -0.556
vn 0.8257 0.0031 -0.5641
vn 0.8209 0.003 -0.5711
vn 0.8208 0.0031 -0.5712
vn 0.8257 0.0031 -0.5641
vn 0.8209 0.003 -0.5711
vn 0.8169 0.0031 -0.5767
vn 0.8168 0.0032 -0.577
vn 0.8208 0.0031 -0.5712
vn 0.8169 0.0031 -0.5767
vn 0.814 0.0033 -0.5809
vn 0.814 0.0032 -0.5808
vn 0.8168 0.0032 -0.577
vn 0.814 0.0033 -0.5809
vn 0.8122 0.0032 -0.5834
vn 0.8122 0.0032 -0.5834
vn 0.814 0.0032 -0.5808
vn 0.8122 0.0032 -0.5834
vn 0.8108 0.0032 -0.5853
vn 0.8108 0.0032 -0.5853
vn 0.8122 0.0032 -0.5834
vn 0.8108 0.0032 -0.5853
vn 0.8102 0.0032 -0.5861
vn 0.8102 0.0032 -0.5861
vn 0.8108 0.0032 -0.5853
vn 0.8102 0.0032 -0.5861
vn 0.8904 -0.0025 0.4551
vn 0.8906 -0.0025 0.4547
vn 0.8102 0.0032 -0.5861
vn 0.8904 -0.0025 0.4551
vn -0.4792 -0.0049 0.8777
vn -0.4792 -0.0049 0.8777
vn 0.8906 -0.0025 0.4547
vn -0.4792 -0.0049 0.8777
vn -0.8375 -0.003 0.5465
vn -0.8375 -0.003 0.5465
vn -0.4792 -0.0049 0.8777
vn -0.8375 -0.003 0.5465
vn -0.8245 -0.0031 0.5658
vn -0.8245 -0.0031 0.5658
vn -0.8375 -0.003 0.5465
vn -0.8245 -0.0031 0.5658
vn -0.8029 -0.0033 0.5962
vn -0.8031 -0.0033 0.5958
vn -0.8245 -0.0031 0.5658
vn -0.8029 -0.0033 0.5962
vn -0.774 -0.0035 0.6332
vn -0.774 -0.0035 0.6332
vn -0.8031 -0.0033 0.5958
vn -0.774 -0.0035 0.6332
vn -0.7349 -0.0037 0.6781
vn -0.7349 -0.0037 0.6781
vn -0.774 -0.0035 0.6332
vn -0.7349 -0.0037 0.6781
vn -0.6817 -0.0039 0.7316
vn -0.6817 -0.0039 0.7316
vn -0.7349 -0.0037 0.6781
vn -0.6817 -0.0039 0.7316
vn -0.6108 -0.0043 0.7918
vn -0.6108 -0.0043 0.7918
vn -0.6817 -0.0039 0.7316
vn -0.6108 -0.0043 0.7918
vn -0.52 -0.0047 0.8542
vn -0.52 -0.0047 0.8542
vn -0.6108 -0.0043 0.7918
vn -0.52 -0.0047 0.8542
vn -0.4101 -0.005 0.912
vn -0.4101 -0.005 0.912
vn -0.52 -0.0047 0.8542
vn -0.4101 -0.005 0.912
vn -0.2895 -0.0052 0.9572
vn -0.2896 -0.0052 0.9571
vn -0.4101 -0.005 0.912
vn -0.2895 -0.0052 0.9572
vn -0.1731 -0.0054 0.9849
vn -0.1731 -0.0054 0.9849
vn -0.2896 -0.0052 0.9571
vn -0.1731 -0.0054 0.9849
vn -0.0746 -0.0055 0.9972
vn -0.0745 -0.0055 0.9972
vn -0.1731 -0.0054 0.9849
vn -0.0746 -0.0055 0.9972
vn -0.0162 -0.0053 0.9999
vn -0.0162 -0.0056 0.9999
vn -0.0745 -0.0055 0.9972
vn -0.0162 -0.0053 0.9999
vn 0.7071 -0.004 0.7071
vn 0.7071 -0.004 0.7071
vn -0.0162 -0.0056 0.9999
vn 0.7071 -0.004 0.7071
vn 0.7071 -0.004 0.7071
vn 0.7072 -0.004 0.7071
vn 0.7071 -0.004 0.7071
vn 0.7071 -0.004 0.7071
vn -0.7071 -0.004 0.7071
vn -0.7071 -0.004 0.7071
vn 0.7072 -0.004 0.7071
vn -0.7071 -0.004 0.7071
vn -0.7071 0.0038 -0.7071
vn -0.7071 0.0041 -0.7071
vn -0.7071 -0.004 0.7071
vn -0.7071 0.0038 -0.7071
vn 0.0226 0.0054 -0.9997
vn 0.0226 0.0054 -0.9997
vn -0.7071 0.0041 -0.7071
vn 0.0226 0.0054 -0.9997
vn 0.0934 0.0054 -0.9956
vn 0.0934 0.0054 -0.9956
vn 0.0226 0.0054 -0.9997
vn -0.0223 0.0053 -0.9997
vn -0.0946 0.0054 -0.9955
vn -0.0942 0.0054 -0.9955
vn -0.0223 0.0053 -0.9997
vn -0.0946 0.0054 -0.9955
vn -0.2018 0.0054 -0.9794
vn -0.2018 0.0054 -0.9794
vn -0.0942 0.0054 -0.9955
vn -0.2018 0.0054 -0.9794
vn -0.3225 0.0052 -0.9466
vn -0.3225 0.0052 -0.9466
vn -0.2018 0.0054 -0.9794
vn -0.3225 0.0052 -0.9466
vn -0.453 0.0049 -0.8915
vn -0.453 0.0049 -0.8915
vn -0.3225 0.0052 -0.9466
vn -0.453 0.0049 -0.8915
vn -0.5853 0.0043 -0.8108
vn -0.5849 0.0045 -0.8111
vn -0.453 0.0049 -0.8915
vn -0.5853 0.0043 -0.8108
vn -0.7088 0.0039 -0.7054
vn -0.7086 0.0039 -0.7056
vn -0.5849 0.0045 -0.8111
vn -0.7088 0.0039 -0.7054
vn -0.8138 0.0032 -0.5812
vn -0.8138 0.0032 -0.5812
vn -0.7086 0.0039 -0.7056
vn -0.8138 0.0032 -0.5812
vn -0.8944 0.0025 -0.4473
vn -0.8944 0.0025 -0.4473
vn -0.8138 0.0032 -0.5812
vn -0.8944 0.0025 -0.4473
vn -0.9489 0.0017 -0.3156
vn -0.9489 0.0017 -0.3156
vn -0.8944 0.0025 -0.4473
vn -0.9489 0.0017 -0.3156
vn -0.9813 0.001 -0.1926
vn -0.9813 0.001 -0.1926
vn -0.9489 0.0017 -0.3156
vn -0.9813 0.001 -0.1926
vn -0.9967 0.0004 -0.0816
vn -0.9967 0.0004 -0.0816
vn -0.9813 0.001 -0.1926
vn -0.9967 0.0004 -0.0816
vn -0.9998 -0.0001 0.0188
vn -0.9998 -0.0001 0.0188
vn -0.9967 0.0004 -0.0816
vn -0.9998 -0.0001 0.0188
vn -0.9923 -0.0007 0.1239
vn -0.9923 -0.0007 0.1238
vn -0.9998 -0.0001 0.0188
vn -0.9923 -0.0007 0.1239
vn -0.9692 -0.0013 0.2462
vn -0.9692 -0.0013 0.2462
vn -0.9923 -0.0007 0.1238
vn -0.9692 -0.0013 0.2462
vn -0.9245 -0.0021 0.3811
vn -0.9245 -0.0021 0.3812
vn -0.9692 -0.0013 0.2462
vn -0.9245 -0.0021 0.3811
vn -0.8531 -0.0028 0.5217
vn -0.8531 -0.0028 0.5217
vn -0.9245 -0.0021 0.3812
vn -0.8531 -0.0028 0.5217
vn -0.7556 -0.0036 0.655
vn -0.7556 -0.0036 0.655
vn -0.8531 -0.0028 0.5217
vn -0.7556 -0.0036 0.655
vn -0.6376 -0.0043 0.7703
vn -0.6372 -0.0042 0.7707
vn -0.7556 -0.0036 0.655
vn -0.6376 -0.0043 0.7703
vn -0.5097 -0.0046 0.8603
vn -0.5097 -0.0046 0.8603
vn -0.6372 -0.0042 0.7707
vn -0.5097 -0.0046 0.8603
vn -0.3835 -0.0049 0.9235
vn -0.3835 -0.0049 0.9235
vn -0.5097 -0.0046 0.8603
vn -0.3835 -0.0049 0.9235
vn -0.2674 -0.0052 0.9636
vn -0.2669 -0.0052 0.9637
vn -0.3835 -0.0049 0.9235
vn -0.2674 -0.0052 0.9636
vn -0.1645 -0.0054 0.9864
vn -0.1645 -0.0054 0.9864
vn -0.2669 -0.0052 0.9637
vn -0.1645 -0.0054 0.9864
vn -0.0762 -0.0054 0.9971
vn -0.0762 -0.0054 0.9971
vn -0.1645 -0.0054 0.9864
vn -0.0762 -0.0054 0.9971
vn -0.0177 -0.0053 0.9998
vn -0.0177 -0.0053 0.9998
vn -0.0762 -0.0054 0.9971
vn -0.0177 -0.0053 0.9998
vn 0.7071 -0.0038 0.7071
vn 0.7071 -0.0041 0.7071
vn -0.0177 -0.0053 0.9998
vn 0.7071 -0.0038 0.7071
vn 0.7071 0.0041 -0.7071
vn 0.7071 0.0038 -0.7071
vn 0.7071 -0.0041 0.7071
vn 0.7071 0.0041 -0.7071
vn -0.0223 0.0053 -0.9997
vn -0.0223 0.0053 -0.9997
vn 0.7071 0.0038 -0.7071
vt 0.688172 1
vt 0.989247 1
vt 0.698925 1
vt 0.989247 1
vt 0.709677 1
vt 0.698925 1
vt 0.989247 1
vt 0 1
vt 0.709677 1
vt 0.989247 1
vt 0.010753 1
vt 0 1
vt 0.989247 1
vt 0.021505 1
vt 0.010753 1
vt 0.989247 1
vt 0.032258 1
vt 0.021505 1
vt 0.989247 1
vt 0.043011 1
vt 0.032258 1
vt 0.989247 1
vt 0.053763 1
vt 0.043011 1
vt 0.989247 1
vt 0.064516 1
vt 0.053763 1
vt 0.989247 1
vt 0.978495 1
vt 0.064516 1
vt 0.978495 1
vt 0.075269 1
vt 0.064516 1
vt 0.688172 1
vt 1 1
vt 0.989247 1
vt 0.967742 1
vt 0.075269 1
vt 0.978495 1
vt 0.956989 1
vt 0.075269 1
vt 0.967742 1
vt 0.946237 1
vt 0.075269 1
vt 0.956989 1
vt 0.946237 1
vt 0.086022 1
vt 0.075269 1
vt 0.935484 1
vt 0.086022 1
vt 0.946237 1
vt 0.924731 1
vt 0.086022 1
vt 0.935484 1
vt 0.913979 1
vt 0.086022 1
vt 0.924731 1
vt 0.913979 1
vt 0.096774 1
vt 0.086022 1
vt 0.903226 1
vt 0.096774 1
vt 0.913979 1
vt 0.892473 1
vt 0.096774 1
vt 0.903226 1
vt 0.88172 1
vt 0.096774 1
vt 0.892473 1
vt 0.88172 1
vt 0.107527 1
vt 0.096774 1
vt 0.870968 1
vt 0.107527 1
vt 0.88172 1
vt 0.860215 1
vt 0.107527 1
vt 0.870968 1
vt 0.860215 1
vt 0.11828 1
vt 0.107527 1
vt 0.849462 1
vt 0.11828 1
vt 0.860215 1
vt 0.83871 1
vt 0.11828 1
vt 0.849462 1
vt 0.83871 1
vt 0.129032 1
vt 0.11828 1
vt 0.827957 1
vt 0.129032 1
vt 0.83871 1
vt 0.827957 1
vt 0.139785 1
vt 0.129032 1
vt 0.817204 1
vt 0.139785 1
vt 0.827957 1
vt 0.806452 1
vt 0.139785 1
vt 0.817204 1
vt 0.806452 1
vt 0.150538 1
vt 0.139785 1
vt 0.795699 1
vt 0.150538 1
vt 0.806452 1
vt 0.795699 1
vt 0.16129 1
vt 0.150538 1
vt 0.784946 1
vt 0.16129 1
vt 0.795699 1
vt 0.784946 1
vt 0.172043 1
vt 0.16129 1
vt 0.774194 1
vt 0.172043 1
vt 0.784946 1
vt 0.763441 1
vt 0.172043 1
vt 0.774194 1
vt 0.763441 1
vt 0.182796 1
vt 0.172043 1
vt 0.752688 1
vt 0.182796 1
vt 0.763441 1
vt 0.741935 1
vt 0.182796 1
vt 0.752688 1
vt 0.741935 1
vt 0.193548 1
vt 0.182796 1
vt 0.731183 1
vt 0.193548 1
vt 0.741935 1
vt 0.72043 1
vt 0.193548 1
vt 0.731183 1
vt 0.688172 1
vt 0.666667 1
vt 1 1
vt 0.666667 1
vt 0.72043 1
vt 1 1
vt 0.666667 1
vt 0.193548 1
vt 0.72043 1
vt 0.666667 1
vt 0.204301 1
vt 0.193548 1
vt 0.666667 1
vt 0.215054 1
vt 0.204301 1
vt 0.666667 1
vt 0.225806 1
vt 0.215054 1
vt 0.666667 1
vt 0.236559 1
vt 0.225806 1
vt 0.666667 1
vt 0.247312 1
vt 0.236559 1
vt 0.666667 1
vt 0.258065 1
vt 0.247312 1
vt 0.666667 1
vt 0.268817 1
vt 0.258065 1
vt 0.666667 1
vt 0.655914 1
vt 0.268817 1
vt 0.655914 1
vt 0.645161 1
vt 0.268817 1
vt 0.645161 1
vt 0.27957 1
vt 0.268817 1
vt 0.688172 1
vt 0.677419 1
vt 0.666667 1
vt 0.634409 1
vt 0.27957 1
vt 0.645161 1
vt 0.623656 1
vt 0.27957 1
vt 0.634409 1
vt 0.612903 1
vt 0.27957 1
vt 0.623656 1
vt 0.612903 1
vt 0.290323 1
vt 0.27957 1
vt 0.602151 1
vt 0.290323 1
vt 0.612903 1
vt 0.591398 1
vt 0.290323 1
vt 0.602151 1
vt 0.591398 1
vt 0.301075 1
vt 0.290323 1
vt 0.580645 1
vt 0.301075 1
vt 0.591398 1
vt 0.580645 1
vt 0.311828 1
vt 0.301075 1
vt 0.569892 1
vt 0.311828 1
vt 0.580645 1
vt 0.569892 1
vt 0.322581 1
vt 0.311828 1
vt 0.55914 1
vt 0.322581 1
vt 0.569892 1
vt 0.55914 1
vt 0.333333 1
vt 0.322581 1
vt 0.548387 1
vt 0.333333 1
vt 0.55914 1
vt 0.548387 1
vt 0.344086 1
vt 0.333333 1
vt 0.537634 1
vt 0.344086 1
vt 0.548387 1
vt 0.537634 1
vt 0.354839 1
vt 0.344086 1
vt 0.537634 1
vt 0.365591 1
vt 0.354839 1
vt 0.526882 1
vt 0.365591 1
vt 0.537634 1
vt 0.526882 1
vt 0.376344 1
vt 0.365591 1
vt 0.516129 1
vt 0.376344 1
vt 0.526882 1
vt 0.516129 1
vt 0.387097 1
vt 0.376344 1
vt 0.516129 1
vt 0.397849 1
vt 0.387097 1
vt 0.516129 1
vt 0.408602 1
vt 0.397849 1
vt 0.516129 1
vt 0.419355 1
vt 0.408602 1
vt 0.516129 1
vt 0.430108 1
vt 0.419355 1
vt 0.516129 1
vt 0.44086 1
vt 0.430108 1
vt 0.516129 1
vt 0.451613 1
vt 0.44086 1
vt 0.516129 1
vt 0.462366 1
vt 0.451613 1
vt 0.516129 1
vt 0.473118 1
vt 0.462366 1
vt 0.516129 1
vt 0.483871 1
vt 0.473118 1
vt 0.516129 1
vt 0.494624 1
vt 0.483871 1
vt 0.516129 1
vt 0.505376 1
vt 0.494624 1
vt 0.989247 1
vt 0.688172 1
vt 0.698925 1
vt 0.709677 1
vt 0.989247 1
vt 0.698925 1
vt 0 1
vt 0.989247 1
vt 0.709677 1
vt 0.010753 1
vt 0.989247 1
vt 0 1
vt 0.021505 1
vt 0.989247 1
vt 0.010753 1
vt 0.032258 1
vt 0.989247 1
vt 0.021505 1
vt 0.043011 1
vt 0.989247 1
vt 0.032258 1
vt 0.053763 1
vt 0.989247 1
vt 0.043011 1
vt 0.064516 1
vt 0.989247 1
vt 0.053763 1
vt 0.978495 1
vt 0.989247 1
vt 0.064516 1
vt 0.075269 1
vt 0.978495 1
vt 0.064516 1
vt 1 1
vt 0.688172 1
vt 0.989247 1
vt 0.075269 1
vt 0.967742 1
vt 0.978495 1
vt 0.075269 1
vt 0.956989 1
vt 0.967742 1
vt 0.075269 1
vt 0.946237 1
vt 0.956989 1
vt 0.086022 1
vt 0.946237 1
vt 0.075269 1
vt 0.086022 1
vt 0.935484 1
vt 0.946237 1
vt 0.086022 1
vt 0.924731 1
vt 0.935484 1
vt 0.086022 1
vt 0.913979 1
vt 0.924731 1
vt 0.096774 1
vt 0.913979 1
vt 0.086022 1
vt 0.096774 1
vt 0.903226 1
vt 0.913979 1
vt 0.096774 1
vt 0.892473 1
vt 0.903226 1
vt 0.096774 1
vt 0.88172 1
vt 0.892473 1
vt 0.107527 1
vt 0.88172 1
vt 0.096774 1
vt 0.107527 1
vt 0.870968 1
vt 0.88172 1
vt 0.107527 1
vt 0.860215 1
vt 0.870968 1
vt 0.11828 1
vt 0.860215 1
vt 0.107527 1
vt 0.11828 1
vt 0.849462 1
vt 0.860215 1
vt 0.11828 1
vt 0.83871 1
vt 0.849462 1
vt 0.129032 1
vt 0.83871 1
vt 0.11828 1
vt 0.129032 1
vt 0.827957 1
vt 0.83871 1
vt 0.139785 1
vt 0.827957 1
vt 0.129032 1
vt 0.139785 1
vt 0.817204 1
vt 0.827957 1
vt 0.139785 1
vt 0.806452 1
vt 0.817204 1
vt 0.150538 1
vt 0.806452 1
vt 0.139785 1
vt 0.150538 1
vt 0.795699 1
vt 0.806452 1
vt 0.16129 1
vt 0.795699 1
vt 0.150538 1
vt 0.16129 1
vt 0.784946 1
vt 0.795699 1
vt 0.172043 1
vt 0.784946 1
vt 0.16129 1
vt 0.172043 1
vt 0.774194 1
vt 0.784946 1
vt 0.172043 1
vt 0.763441 1
vt 0.774194 1
vt 0.182796 1
vt 0.763441 1
vt 0.172043 1
vt 0.182796 1
vt 0.752688 1
vt 0.763441 1
vt 0.182796 1
vt 0.741935 1
vt 0.752688 1
vt 0.193548 1
vt 0.741935 1
vt 0.182796 1
vt 0.193548 1
vt 0.731183 1
vt 0.741935 1
vt 0.193548 1
vt 0.72043 1
vt 0.731183 1
vt 0.666667 1
vt 0.688172 1
vt 1 1
vt 0.72043 1
vt 0.666667 1
vt 1 1
vt 0.193548 1
vt 0.666667 1
vt 0.72043 1
vt 0.204301 1
vt 0.666667 1
vt 0.193548 1
vt 0.215054 1
vt 0.666667 1
vt 0.204301 1
vt 0.225806 1
vt 0.666667 1
vt 0.215054 1
vt 0.236559 1
vt 0.666667 1
vt 0.225806 1
vt 0.247312 1
vt 0.666667 1
vt 0.236559 1
vt 0.258065 1
vt 0.666667 1
vt 0.247312 1
vt 0.268817 1
vt 0.666667 1
vt 0.258065 1
vt 0.655914 1
vt 0.666667 1
vt 0.268817 1
vt 0.645161 1
vt 0.655914 1
vt 0.268817 1
vt 0.27957 1
vt 0.645161 1
vt 0.268817 1
vt 0.677419 1
vt 0.688172 1
vt 0.666667 1
vt 0.27957 1
vt 0.634409 1
vt 0.645161 1
vt 0.27957 1
vt 0.623656 1
vt 0.634409 1
vt 0.27957 1
vt 0.612903 1
vt 0.623656 1
vt 0.290323 1
vt 0.612903 1
vt 0.27957 1
vt 0.290323 1
vt 0.602151 1
vt 0.612903 1
vt 0.290323 1
vt 0.591398 1
vt 0.602151 1
vt 0.301075 1
vt 0.591398 1
vt 0.290323 1
vt 0.301075 1
vt 0.580645 1
vt 0.591398 1
vt 0.311828 1
vt 0.580645 1
vt 0.301075 1
vt 0.311828 1
vt 0.569892 1
vt 0.580645 1
vt 0.322581 1
vt 0.569892 1
vt 0.311828 1
vt 0.322581 1
vt 0.55914 1
vt 0.569892 1
vt 0.333333 1
vt 0.55914 1
vt 0.322581 1
vt 0.333333 1
vt 0.548387 1
vt 0.55914 1
vt 0.344086 1
vt 0.548387 1
vt 0.333333 1
vt 0.344086 1
vt 0.537634 1
vt 0.548387 1
vt 0.354839 1
vt 0.537634 1
vt 0.344086 1
vt 0.365591 1
vt 0.537634 1
vt 0.354839 1
vt 0.365591 1
vt 0.526882 1
vt 0.537634 1
vt 0.376344 1
vt 0.526882 1
vt 0.365591 1
vt 0.376344 1
vt 0.516129 1
vt 0.526882 1
vt 0.387097 1
vt 0.516129 1
vt 0.376344 1
vt 0.397849 1
vt 0.516129 1
vt 0.387097 1
vt 0.408602 1
vt 0.516129 1
vt 0.397849 1
vt 0.419355 1
vt 0.516129 1
vt 0.408602 1
vt 0.430108 1
vt 0.516129 1
vt 0.419355 1
vt 0.44086 1
vt 0.516129 1
vt 0.430108 1
vt 0.451613 1
vt 0.516129 1
vt 0.44086 1
vt 0.462366 1
vt 0.516129 1
vt 0.451613 1
vt 0.473118 1
vt 0.516129 1
vt 0.462366 1
vt 0.483871 1
vt 0.516129 1
vt 0.473118 1
vt 0.494624 1
vt 0.516129 1
vt 0.483871 1
vt 0.505376 1
vt 0.516129 1
vt 0.494624 1
vt 0 0
vt 0.014925 0
vt 0.014925 1
vt 0 1
vt 0.014925 0
vt 0.029851 0
vt 0.029851 1
vt 0.014925 1
vt 0.029851 0
vt 0.044776 0
vt 0.044776 1
vt 0.029851 1
vt 0.044776 0
vt 0.059701 0
vt 0.059701 1
vt 0.044776 1
vt 0.059701 0
vt 0.074627 0
vt 0.074627 1
vt 0.059701 1
vt 0.074627 0
vt 0.089552 0
vt 0.089552 1
vt 0.074627 1
vt 0.089552 0
vt 0.104478 0
vt 0.104478 1
vt 0.089552 1
vt 0.104478 0
vt 0.119403 0
vt 0.119403 1
vt 0.104478 1
vt 0.119403 0
vt 0.134328 0
vt 0.134328 1
vt 0.119403 1
vt 0.134328 0
vt 0.149254 0
vt 0.149254 1
vt 0.134328 1
vt 0.149254 0
vt 0.164179 0
vt 0.164179 1
vt 0.149254 1
vt 0.164179 0
vt 0.179104 0
vt 0.179104 1
vt 0.164179 1
vt 0.179104 0
vt 0.19403 0
vt 0.19403 1
vt 0.179104 1
vt 0.19403 0
vt 0.208955 0
vt 0.208955 1
vt 0.19403 1
vt 0.208955 0
vt 0.223881 0
vt 0.223881 1
vt 0.208955 1
vt 0.223881 0
vt 0.238806 0
vt 0.238806 1
vt 0.223881 1
vt 0.238806 0
vt 0.253731 0
vt 0.253731 1
vt 0.238806 1
vt 0.253731 0
vt 0.268657 0
vt 0.268657 1
vt 0.253731 1
vt 0.268657 0
vt 0.283582 0
vt 0.283582 1
vt 0.268657 1
vt 0.283582 0
vt 0.298507 0
vt 0.298507 1
vt 0.283582 1
vt 0.298507 0
vt 0.313433 0
vt 0.313433 1
vt 0.298507 1
vt 0.313433 0
vt 0.328358 0
vt 0.328358 1
vt 0.313433 1
vt 0.328358 0
vt 0.343284 0
vt 0.343284 1
vt 0.328358 1
vt 0.343284 0
vt 0.358209 0
vt 0.358209 1
vt 0.343284 1
vt 0.358209 0
vt 0.373134 0
vt 0.373134 1
vt 0.358209 1
vt 0.373134 0
vt 0.38806 0
vt 0.38806 1
vt 0.373134 1
vt 0.38806 0
vt 0.402985 0
vt 0.402985 1
vt 0.38806 1
vt 0.402985 0
vt 0.41791 0
vt 0.41791 1
vt 0.402985 1
vt 0.41791 0
vt 0.432836 0
vt 0.432836 1
vt 0.41791 1
vt 0.432836 0
vt 0.447761 0
vt 0.447761 1
vt 0.432836 1
vt 0.447761 0
vt 0.462687 0
vt 0.462687 1
vt 0.447761 1
vt 0.462687 0
vt 0.477612 0
vt 0.477612 1
vt 0.462687 1
vt 0.477612 0
vt 0.492537 0
vt 0.492537 1
vt 0.477612 1
vt 0.492537 0
vt 0.507463 0
vt 0.507463 1
vt 0.492537 1
vt 0.507463 0
vt 0.522388 0
vt 0.522388 1
vt 0.507463 1
vt 0.522388 0
vt 0.537313 0
vt 0.537313 1
vt 0.522388 1
vt 0.537313 0
vt 0.552239 0
vt 0.552239 1
vt 0.537313 1
vt 0.552239 0
vt 0.567164 0
vt 0.567164 1
vt 0.552239 1
vt 0.567164 0
vt 0.58209 0
vt 0.58209 1
vt 0.567164 1
vt 0.58209 0
vt 0.597015 0
vt 0.597015 1
vt 0.58209 1
vt 0.597015 0
vt 0.61194 0
vt 0.61194 1
vt 0.597015 1
vt 0.61194 0
vt 0.626866 0
vt 0.626866 1
vt 0.61194 1
vt 0.626866 0
vt 0.641791 0
vt 0.641791 1
vt 0.626866 1
vt 0.641791 0
vt 0.656716 0
vt 0.656716 1
vt 0.641791 1
vt 0.656716 0
vt 0.671642 0
vt 0.671642 1
vt 0.656716 1
vt 0.671642 0
vt 0.686567 0
vt 0.686567 1
vt 0.671642 1
vt 0.686567 0
vt 0.701493 0
vt 0.701493 1
vt 0.686567 1
vt 0.701493 0
vt 0.716418 0
vt 0.716418 1
vt 0.701493 1
vt 0.716418 0
vt 0.731343 0
vt 0.731343 1
vt 0.716418 1
vt 0.731343 0
vt 0.746269 0
vt 0.746269 1
vt 0.731343 1
vt 0.746269 0
vt 0.761194 0
vt 0.761194 1
vt 0.746269 1
vt 0.761194 0
vt 0.776119 0
vt 0.776119 1
vt 0.761194 1
vt 0.776119 0
vt 0.791045 0
vt 0.791045 1
vt 0.776119 1
vt 0.791045 0
vt 0.80597 0
vt 0.80597 1
vt 0.791045 1
vt 0.80597 0
vt 0.820895 0
vt 0.820895 1
vt 0.80597 1
vt 0.820895 0
vt 0.835821 0
vt 0.835821 1
vt 0.820895 1
vt 0.835821 0
vt 0.850746 0
vt 0.850746 1
vt 0.835821 1
vt 0.850746 0
vt 0.865672 0
vt 0.865672 1
vt 0.850746 1
vt 0.865672 0
vt 0.880597 0
vt 0.880597 1
vt 0.865672 1
vt 0.880597 0
vt 0.895522 0
vt 0.895522 1
vt 0.880597 1
vt 0.895522 0
vt 0.910448 0
vt 0.910448 1
vt 0.895522 1
vt 0.910448 0
vt 0.925373 0
vt 0.925373 1
vt 0.910448 1
vt 0.925373 0
vt 0.940298 0
vt 0.940298 1
vt 0.925373 1
vt 0.940298 0
vt 0.955224 0
vt 0.955224 1
vt 0.940298 1
vt 0.955224 0
vt 0.970149 0
vt 0.970149 1
vt 0.955224 1
vt 0.970149 0
vt 0.985075 0
vt 0.985075 1
vt 0.970149 1
vt 0.985075 0
vt 1 0
vt 1 1
vt 0.985075 1
vt 0 0
vt 0.037037 0
vt 0.037037 1
vt 0 1
vt 0.037037 0
vt 0.074074 0
vt 0.074074 1
vt 0.037037 1
vt 0.074074 0
vt 0.111111 0
vt 0.111111 1
vt 0.074074 1
vt 0.111111 0
vt 0.148148 0
vt 0.148148 1
vt 0.111111 1
vt 0.148148 0
vt 0.185185 0
vt 0.185185 1
vt 0.148148 1
vt 0.185185 0
vt 0.222222 0
vt 0.222222 1
vt 0.185185 1
vt 0.222222 0
vt 0.259259 0
vt 0.259259 1
vt 0.222222 1
vt 0.259259 0
vt 0.296296 0
vt 0.296296 1
vt 0.259259 1
vt 0.296296 0
vt 0.333333 0
vt 0.333333 1
vt 0.296296 1
vt 0.333333 0
vt 0.37037 0
vt 0.37037 1
vt 0.333333 1
vt 0.37037 0
vt 0.407407 0
vt 0.407407 1
vt 0.37037 1
vt 0.407407 0
vt 0.444444 0
vt 0.444444 1
vt 0.407407 1
vt 0.444444 0
vt 0.481481 0
vt 0.481481 1
vt 0.444444 1
vt 0.481481 0
vt 0.518519 0
vt 0.518519 1
vt 0.481481 1
vt 0.518519 0
vt 0.555556 0
vt 0.555556 1
vt 0.518519 1
vt 0.555556 0
vt 0.592593 0
vt 0.592593 1
vt 0.555556 1
vt 0.592593 0
vt 0.62963 0
vt 0.62963 1
vt 0.592593 1
vt 0.62963 0
vt 0.666667 0
vt 0.666667 1
vt 0.62963 1
vt 0.666667 0
vt 0.703704 0
vt 0.703704 1
vt 0.666667 1
vt 0.703704 0
vt 0.740741 0
vt 0.740741 1
vt 0.703704 1
vt 0.740741 0
vt 0.777778 0
vt 0.777778 1
vt 0.740741 1
vt 0.777778 0
vt 0.814815 0
vt 0.814815 1
vt 0.777778 1
vt 0.814815 0
vt 0.851852 0
vt 0.851852 1
vt 0.814815 1
vt 0.851852 0
vt 0.888889 0
vt 0.888889 1
vt 0.851852 1
vt 0.888889 0
vt 0.925926 0
vt 0.925926 1
vt 0.888889 1
vt 0.925926 0
vt 0.962963 0
vt 0.962963 1
vt 0.925926 1
vt 0.962963 0
vt 1 0
vt 1 1
vt 0.962963 1
s off
f 1/1/1 2/2/2 3/3/3
f 4/4/4 5/5/5 6/6/6
f 7/7/7 8/8/8 9/9/9
f 10/10/10 11/11/11 12/12/12
f 13/13/13 14/14/14 15/15/15
f 16/16/16 17/17/17 18/18/18
f 19/19/19 20/20/20 21/21/21
f 22/22/22 23/23/23 24/24/24
f 25/25/25 26/26/26 27/27/27
f 28/28/28 29/29/29 30/30/30
f 31/31/31 32/32/32 33/33/33
f 34/34/34 35/35/35 36/36/36
f 37/37/37 38/38/38 39/39/39
f 40/40/40 41/41/41 42/42/42
f 43/43/43 44/44/44 45/45/45
f 46/46/46 47/47/47 48/48/48
f 49/49/49 50/50/50 51/51/51
f 52/52/52 53/53/53 54/54/54
f 55/55/55 56/56/56 57/57/57
f 58/58/58 59/59/59 60/60/60
f 61/61/61 62/62/62 63/63/63
f 64/64/64 65/65/65 66/66/66
f 67/67/67 68/68/68 69/69/69
f 70/70/70 71/71/71 72/72/72
f 73/73/73 74/74/74 75/75/75
f 76/76/76 77/77/77 78/78/78
f 79/79/79 80/80/80 81/81/81
f 82/82/82 83/83/83 84/84/84
f 85/85/85 86/86/86 87/87/87
f 88/88/88 89/89/89 90/90/90
f 91/91/91 92/92/92 93/93/93
f 94/94/94 95/95/95 96/96/96
f 97/97/97 98/98/98 99/99/99
f 100/100/100 101/101/101 102/102/102
f 103/103/103 104/104/104 105/105/105
f 106/106/106 107/107/107 108/108/108
f 109/109/109 110/110/110 111/111/111
f 112/112/112 113/113/113 114/114/114
f 115/115/115 116/116/116 117/117/117
f 118/118/118 119/119/119 120/120/120
f 121/121/121 122/122/122 123/123/123
f 124/124/124 125/125/125 126/126/126
f 127/127/127 128/128/128 129/129/129
f 130/130/130 131/131/131 132/132/132
f 133/133/133 134/134/134 135/135/135
f 136/136/136 137/137/137 138/138/138
f 139/139/139 140/140/140 141/141/141
f 142/142/142 143/143/143 144/144/144
f 145/145/145 146/146/146 147/147/147
f 148/148/148 149/149/149 150/150/150
f 151/151/151 152/152/152 153/153/153
f 154/154/154 155/155/155 156/156/156
f 157/157/157 158/158/158 159/159/159
f 160/160/160 161/161/161 162/162/162
f 163/163/163 164/164/164 165/165/165
f 166/166/166 167/167/167 168/168/168
f 169/169/169 170/170/170 171/171/171
f 172/172/172 173/173/173 174/174/174
f 175/175/175 176/176/176 177/177/177
f 178/178/178 179/179/179 180/180/180
f 181/181/181 182/182/182 183/183/183
f 184/184/184 185/185/185 186/186/186
f 187/187/187 188/188/188 189/189/189
f 190/190/190 191/191/191 192/192/192
f 193/193/193 194/194/194 195/195/195
f 196/196/196 197/197/197 198/198/198
f 199/199/199 200/200/200 201/201/201
f 202/202/202 203/203/203 204/204/204
f 205/205/205 206/206/206 207/207/207
f 208/208/208 209/209/209 210/210/210
f 211/211/211 212/212/212 213/213/213
f 214/214/214 215/215/215 216/216/216
f 217/217/217 218/218/218 219/219/219
f 220/220/220 221/221/221 222/222/222
f 223/223/223 224/224/224 225/225/225
f 226/226/226 227/227/227 228/228/228
f 229/229/229 230/230/230 231/231/231
f 232/232/232 233/233/233 234/234/234
f 235/235/235 236/236/236 237/237/237
f 238/238/238 239/239/239 240/240/240
f 241/241/241 242/242/242 243/243/243
f 244/244/244 245/245/245 246/246/246
f 247/247/247 248/248/248 249/249/249
f 250/250/250 251/251/251 252/252/252
f 253/253/253 254/254/254 255/255/255
f 256/256/256 257/257/257 258/258/258
f 259/259/259 260/260/260 261/261/261
f 262/262/262 263/263/263 264/264/264
f 265/265/265 266/266/266 267/267/267
f 268/268/268 269/269/269 270/270/270
f 271/271/271 272/272/272 273/273/273
f 274/274/274 275/275/275 276/276/276
f 277/277/277 278/278/278 279/279/279
f 280/280/280 281/281/281 282/282/282
f 283/283/283 284/284/284 285/285/285
f 286/286/286 287/287/287 288/288/288
f 289/289/289 290/290/290 291/291/291
f 292/292/292 293/293/293 294/294/294
f 295/295/295 296/296/296 297/297/297
f 298/298/298 299/299/299 300/300/300
f 301/301/301 302/302/302 303/303/303
f 304/304/304 305/305/305 306/306/306
f 307/307/307 308/308/308 309/309/309
f 310/310/310 311/311/311 312/312/312
f 313/313/313 314/314/314 315/315/315
f 316/316/316 317/317/317 318/318/318
f 319/319/319 320/320/320 321/321/321
f 322/322/322 323/323/323 324/324/324
f 325/325/325 326/326/326 327/327/327
f 328/328/328 329/329/329 330/330/330
f 331/331/331 332/332/332 333/333/333
f 334/334/334 335/335/335 336/336/336
f 337/337/337 338/338/338 339/339/339
f 340/340/340 341/341/341 342/342/342
f 343/343/343 344/344/344 345/345/345
f 346/346/346 347/347/347 348/348/348
f 349/349/349 350/350/350 351/351/351
f 352/352/352 353/353/353 354/354/354
f 355/355/355 356/356/356 357/357/357
f 358/358/358 359/359/359 360/360/360
f 361/361/361 362/362/362 363/363/363
f 364/364/364 365/365/365 366/366/366
f 367/367/367 368/368/368 369/369/369
f 370/370/370 371/371/371 372/372/372
f 373/373/373 374/374/374 375/375/375
f 376/376/376 377/377/377 378/378/378
f 379/379/379 380/380/380 381/381/381
f 382/382/382 383/383/383 384/384/384
f 385/385/385 386/386/386 387/387/387
f 388/388/388 389/389/389 390/390/390
f 391/391/391 392/392/392 393/393/393
f 394/394/394 395/395/395 396/396/396
f 397/397/397 398/398/398 399/399/399
f 400/400/400 401/401/401 402/402/402
f 403/403/403 404/404/404 405/405/405
f 406/406/406 407/407/407 408/408/408
f 409/409/409 410/410/410 411/411/411
f 412/412/412 413/413/413 414/414/414
f 415/415/415 416/416/416 417/417/417
f 418/418/418 419/419/419 420/420/420
f 421/421/421 422/422/422 423/423/423
f 424/424/424 425/425/425 426/426/426
f 427/427/427 428/428/428 429/429/429
f 430/430/430 431/431/431 432/432/432
f 433/433/433 434/434/434 435/435/435
f 436/436/436 437/437/437 438/438/438
f 439/439/439 440/440/440 441/441/441
f 442/442/442 443/443/443 444/444/444
f 445/445/445 446/446/446 447/447/447
f 448/448/448 449/449/449 450/450/450
f 451/451/451 452/452/452 453/453/453
f 454/454/454 455/455/455 456/456/456
f 457/457/457 458/458/458 459/459/459
f 460/460/460 461/461/461 462/462/462
f 463/463/463 464/464/464 465/465/465
f 466/466/466 467/467/467 468/468/468
f 469/469/469 470/470/470 471/471/471
f 472/472/472 473/473/473 474/474/474
f 475/475/475 476/476/476 477/477/477
f 478/478/478 479/479/479 480/480/480
f 481/481/481 482/482/482 483/483/483
f 484/484/484 485/485/485 486/486/486
f 487/487/487 488/488/488 489/489/489
f 490/490/490 491/491/491 492/492/492
f 493/493/493 494/494/494 495/495/495
f 496/496/496 497/497/497 498/498/498
f 499/499/499 500/500/500 501/501/501
f 502/502/502 503/503/503 504/504/504
f 505/505/505 506/506/506 507/507/507
f 508/508/508 509/509/509 510/510/510
f 511/511/511 512/512/512 513/513/513
f 514/514/514 515/515/515 516/516/516
f 517/517/517 518/518/518 519/519/519
f 520/520/520 521/521/521 522/522/522
f 523/523/523 524/524/524 525/525/525
f 526/526/526 527/527/527 528/528/528
f 529/529/529 530/530/530 531/531/531
f 532/532/532 533/533/533 534/534/534
f 535/535/535 536/536/536 537/537/537
f 538/538/538 539/539/539 540/540/540
f 541/541/541 542/542/542 543/543/543
f 544/544/544 545/545/545 546/546/546
f 547/547/547 548/548/548 549/549/549
f 550/550/550 551/551/551 552/552/552
f 553/553/553 554/554/554 555/555/555
f 556/556/556 557/557/557 558/558/558
f 559/559/559 560/560/560 561/561/561
f 562/562/562 563/563/563 564/564/564
f 565/565/565 566/566/566 567/567/567
f 565/565/565 567/567/567 568/568/568
f 569/569/569 570/570/570 571/571/571
f 569/569/569 571/571/571 572/572/572
f 573/573/573 574/574/574 575/575/575
f 573/573/573 575/575/575 576/576/576
f 577/577/577 578/578/578 579/579/579
f 577/577/577 579/579/579 580/580/580
f 581/581/581 582/582/582 583/583/583
f 581/581/581 583/583/583 584/584/584
f 585/585/585 586/586/586 587/587/587
f 585/585/585 587/587/587 588/588/588
f 589/589/589 590/590/590 591/591/591
f 589/589/589 591/591/591 592/592/592
f 593/593/593 594/594/594 595/595/595
f 593/593/593 595/595/595 596/596/596
f 597/597/597 598/598/598 599/599/599
f 597/597/597 599/599/599 600/600/600
f 601/601/601 602/602/602 603/603/603
f 601/601/601 603/603/603 604/604/604
f 605/605/605 606/606/606 607/607/607
f 605/605/605 607/607/607 608/608/608
f 609/609/609 610/610/610 611/611/611
f 609/609/609 611/611/611 612/612/612
f 613/613/613 614/614/614 615/615/615
f 613/613/613 615/615/615 616/616/616
f 617/617/617 618/618/618 619/619/619
f 617/617/617 619/619/619 620/620/620
f 621/621/621 622/622/622 623/623/623
f 621/621/621 623/623/623 624/624/624
f 625/625/625 626/626/626 627/627/627
f 625/625/625 627/627/627 628/628/628
f 629/629/629 630/630/630 631/631/631
f 629/629/629 631/631/631 632/632/632
f 633/633/633 634/634/634 635/635/635
f 633/633/633 635/635/635 636/636/636
f 637/637/637 638/638/638 639/639/639
f 637/637/637 639/639/639 640/640/640
f 641/641/641 642/642/642 643/643/643
f 641/641/641 643/643/643 644/644/644
f 645/645/645 646/646/646 647/647/647
f 645/645/645 647/647/647 648/648/648
f 649/649/649 650/650/650 651/651/651
f 649/649/649 651/651/651 652/652/652
f 653/653/653 654/654/654 655/655/655
f 653/653/653 655/655/655 656/656/656
f 657/657/657 658/658/658 659/659/659
f 657/657/657 659/659/659 660/660/660
f 661/661/661 662/662/662 663/663/663
f 661/661/661 663/663/663 664/664/664
f 665/665/665 666/666/666 667/667/667
f 665/665/665 667/667/667 668/668/668
f 669/669/669 670/670/670 671/671/671
f 669/669/669 671/671/671 672/672/672
f 673/673/673 674/674/674 675/675/675
f 673/673/673 675/675/675 676/676/676
f 677/677/677 678/678/678 679/679/679
f 677/677/677 679/679/679 680/680/680
f 681/681/681 682/682/682 683/683/683
f 681/681/681 683/683/683 684/684/684
f 685/685/685 686/686/686 687/687/687
f 685/685/685 687/687/687 688/688/688
f 689/689/689 690/690/690 691/691/691
f 689/689/689 691/691/691 692/692/692
f 693/693/693 694/694/694 695/695/695
f 693/693/693 695/695/695 696/696/696
f 697/697/697 698/698/698 699/699/699
f 697/697/697 699/699/699 700/700/700
f 701/701/701 702/702/702 703/703/703
f 701/701/701 703/703/703 704/704/704
f 705/705/705 706/706/706 707/707/707
f 705/705/705 707/707/707 708/708/708
f 709/709/709 710/710/710 711/711/711
f 709/709/709 711/711/711 712/712/712
f 713/713/713 714/714/714 715/715/715
f 713/713/713 715/715/715 716/716/716
f 717/717/717 718/718/718 719/719/719
f 717/717/717 719/719/719 720/720/720
f 721/721/721 722/722/722 723/723/723
f 721/721/721 723/723/723 724/724/724
f 725/725/725 726/726/726 727/727/727
f 725/725/725 727/727/727 728/728/728
f 729/729/729 730/730/730 731/731/731
f 729/729/729 731/731/731 732/732/732
f 733/733/733 734/734/734 735/735/735
f 733/733/733 735/735/735 736/736/736
f 737/737/737 738/738/738 739/739/739
f 737/737/737 739/739/739 740/740/740
f 741/741/741 742/742/742 743/743/743
f 741/741/741 743/743/743 744/744/744
f 745/745/745 746/746/746 747/747/747
f 745/745/745 747/747/747 748/748/748
f 749/749/749 750/750/750 751/751/751
f 749/749/749 751/751/751 752/752/752
f 753/753/753 754/754/754 755/755/755
f 753/753/753 755/755/755 756/756/756
f 757/757/757 758/758/758 759/759/759
f 757/757/757 759/759/759 760/760/760
f 761/761/761 762/762/762 763/763/763
f 761/761/761 763/763/763 764/764/764
f 765/765/765 766/766/766 767/767/767
f 765/765/765 767/767/767 768/768/768
f 769/769/769 770/770/770 771/771/771
f 769/769/769 771/771/771 772/772/772
f 773/773/773 774/774/774 775/775/775
f 773/773/773 775/775/775 776/776/776
f 777/777/777 778/778/778 779/779/779
f 777/777/777 779/779/779 780/780/780
f 781/781/781 782/782/782 783/783/783
f 781/781/781 783/783/783 784/784/784
f 785/785/785 786/786/786 787/787/787
f 785/785/785 787/787/787 788/788/788
f 789/789/789 790/790/790 791/791/791
f 789/789/789 791/791/791 792/792/792
f 793/793/793 794/794/794 795/795/795
f 793/793/793 795/795/795 796/796/796
f 797/797/797 798/798/798 799/799/799
f 797/797/797 799/799/799 800/800/800
f 801/801/801 802/802/802 803/803/803
f 801/801/801 803/803/803 804/804/804
f 805/805/805 806/806/806 807/807/807
f 805/805/805 807/807/807 808/808/808
f 809/809/809 810/810/810 811/811/811
f 809/809/809 811/811/811 812/812/812
f 813/813/813 814/814/814 815/815/815
f 813/813/813 815/815/815 816/816/816
f 817/817/817 818/818/818 819/819/819
f 817/817/817 819/819/819 820/820/820
f 821/821/821 822/822/822 823/823/823
f 821/821/821 823/823/823 824/824/824
f 825/825/825 826/826/826 827/827/827
f 825/825/825 827/827/827 828/828/828
f 829/829/829 830/830/830 831/831/831
f 829/829/829 831/831/831 832/832/832
f 833/833/833 834/834/834 835/835/835
f 833/833/833 835/835/835 836/836/836
f 837/837/837 838/838/838 839/839/839
f 837/837/837 839/839/839 840/840/840
f 841/841/841 842/842/842 843/843/843
f 841/841/841 843/843/843 844/844/844
f 845/845/845 846/846/846 847/847/847
f 845/845/845 847/847/847 848/848/848
f 849/849/849 850/850/850 851/851/851
f 849/849/849 851/851/851 852/852/852
f 853/853/853 854/854/854 855/855/855
f 853/853/853 855/855/855 856/856/856
f 857/857/857 858/858/858 859/859/859
f 857/857/857 859/859/859 860/860/860
f 861/861/861 862/862/862 863/863/863
f 861/861/861 863/863/863 864/864/864
f 865/865/865 866/866/866 867/867/867
f 865/865/865 867/867/867 868/868/868
f 869/869/869 870/870/870 871/871/871
f 869/869/869 871/871/871 872/872/872
f 873/873/873 874/874/874 875/875/875
f 873/873/873 875/875/875 876/876/876
f 877/877/877 878/878/878 879/879/879
f 877/877/877 879/879/879 880/880/880
f 881/881/881 882/882/882 883/883/883
f 881/881/881 883/883/883 884/884/884
f 885/885/885 886/886/886 887/887/887
f 885/885/885 887/887/887 888/888/888
f 889/889/889 890/890/890 891/891/891
f 889/889/889 891/891/891 892/892/892
f 893/893/893 894/894/894 895/895/895
f 893/893/893 895/895/895 896/896/896
f 897/897/897 898/898/898 899/899/899
f 897/897/897 899/899/899 900/900/900
f 901/901/901 902/902/902 903/903/903
f 901/901/901 903/903/903 904/904/904
f 905/905/905 906/906/906 907/907/907
f 905/905/905 907/907/907 908/908/908
f 909/909/909 910/910/910 911/911/911
f 909/909/909 911/911/911 912/912/912
f 913/913/913 914/914/914 915/915/915
f 913/913/913 915/915/915 916/916/916
f 917/917/917 918/918/918 919/919/919
f 917/917/917 919/919/919 920/920/920
f 921/921/921 922/922/922 923/923/923
f 921/921/921 923/923/923 924/924/924
f 925/925/925 926/926/926 927/927/927
f 925/925/925 927/927/927 928/928/928
f 929/929/929 930/930/930 931/931/931
f 929/929/929 931/931/931 932/932/932
f 933/933/933 934/934/934 935/935/935
f 933/933/933 935/935/935 936/936/936
f 937/937/937 938/938/938 939/939/939
f 937/937/937 939/939/939 940/940/940
