v -0.282809 0.018849 0.187358
v -0.295142 0.018939 0.144287
v -0.301277 0.018939 0.144287
v -0.282809 0.018849 0.187358
v -0.282308 0.018876 0.174274
v -0.295142 0.018939 0.144287
v -0.282308 0.018876 0.174274
v -0.263465 0.018939 0.144287
v -0.269537 0.018939 0.144287
v -0.282308 0.018876 0.174274
v -0.281557 0.018849 0.187358
v -0.263465 0.018939 0.144287
v -0.282809 0.018849 0.187358
v -0.281557 0.018849 0.187358
v -0.282308 0.018876 0.174274
v -0.295142 0.015183 0.144279
v -0.282809 0.015093 0.18735
v -0.301277 0.015183 0.144279
v -0.282308 0.01512 0.174266
v -0.282809 0.015093 0.18735
v -0.295142 0.015183 0.144279
v -0.263465 0.015183 0.144279
v -0.282308 0.01512 0.174266
v -0.269537 0.015183 0.144279
v -0.281557 0.015093 0.18735
v -0.282308 0.01512 0.174266
v -0.263465 0.015183 0.144279
v -0.281557 0.015093 0.18735
v -0.282809 0.015093 0.18735
v -0.282308 0.01512 0.174266
v -0.282809 0.018849 0.187358
v -0.301277 0.018939 0.144287
v -0.301277 0.015183 0.144279
v -0.282809 0.015093 0.18735
v -0.301277 0.018939 0.144287
v -0.295142 0.018939 0.144287
v -0.295142 0.015183 0.144279
v -0.301277 0.015183 0.144279
v -0.295142 0.018939 0.144287
v -0.282308 0.018876 0.174274
v -0.282308 0.01512 0.174266
v -0.295142 0.015183 0.144279
v -0.282308 0.018876 0.174274
v -0.269537 0.018939 0.144287
v -0.269537 0.015183 0.144279
v -0.282308 0.01512 0.174266
v -0.269537 0.018939 0.144287
v -0.263465 0.018939 0.144287
v -0.263465 0.015183 0.144279
v -0.269537 0.015183 0.144279
v -0.263465 0.018939 0.144287
v -0.281557 0.018849 0.187358
v -0.281557 0.015093 0.18735
v -0.263465 0.015183 0.144279
v -0.281557 0.018849 0.187358
v -0.282809 0.018849 0.187358
v -0.282809 0.015093 0.18735
v -0.281557 0.015093 0.18735
vn -0 1 0.0021
vn -0 1 0.0021
vn -0 1 0.0021
vn -0 1 0.0021
vn -0 1 0.0021
vn -0 1 0.0021
vn -0 1 0.0021
vn -0 1 0.0021
vn -0 1 0.0021
vn -0 1 0.0021
vn -0 1 0.0021
vn -0 1 0.0021
vn -0 1 0.0021
vn -0 1 0.0021
vn -0 1 0.0021
vn -0 -1 -0.0021
vn -0 -1 -0.0021
vn -0 -1 -0.0021
vn -0 -1 -0.0021
vn -0 -1 -0.0021
vn -0 -1 -0.0021
vn -0 -1 -0.0021
vn -0 -1 -0.0021
vn -0 -1 -0.0021
vn -0 -1 -0.0021
vn -0 -1 -0.0021
vn -0 -1 -0.0021
vn -0 -1 -0.0021
vn -0 -1 -0.0021
vn -0 -1 -0.0021
vn -0.5504 -0.0018 0.8349
vn -0.8349 0.0012 -0.5504
vn -0.8349 0.0012 -0.5504
vn -0.5504 -0.0018 0.8349
vn -0.8349 0.0012 -0.5504
vn 0.5507 0.0018 -0.8347
vn 0.5507 0.0018 -0.8347
vn -0.8349 0.0012 -0.5504
vn 0.5507 0.0018 -0.8347
vn -0.0009 0.0021 -1
vn -0.0009 0.0021 -1
vn 0.5507 0.0018 -0.8347
vn -0.0009 0.0021 -1
vn -0.5514 0.0018 -0.8342
vn -0.5514 0.0018 -0.8342
vn -0.0009 0.0021 -1
vn -0.5514 0.0018 -0.8342
vn 0.8329 0.0012 -0.5535
vn 0.8328 0.0012 -0.5535
vn -0.5514 0.0018 -0.8342
vn 0.8329 0.0012 -0.5535
vn 0.5535 -0.0018 0.8329
vn 0.5535 -0.0018 0.8328
vn 0.8328 0.0012 -0.5535
vn 0.5535 -0.0018 0.8329
vn -0.5504 -0.0018 0.8349
vn -0.5504 -0.0018 0.8349
vn 0.5535 -0.0018 0.8328
vt 0 1
vt 0.333333 1
vt 0.166667 1
vt 0 1
vt 0.5 1
vt 0.333333 1
vt 0.5 1
vt 0.833333 1
vt 0.666667 1
vt 0.5 1
vt 1 1
vt 0.833333 1
vt 0 1
vt 1 1
vt 0.5 1
vt 0.333333 1
vt 0 1
vt 0.166667 1
vt 0.5 1
vt 0 1
vt 0.333333 1
vt 0.833333 1
vt 0.5 1
vt 0.666667 1
vt 1 1
vt 0.5 1
vt 0.833333 1
vt 1 1
vt 0 1
vt 0.5 1
vt 0 0
vt 0.142857 0
vt 0.142857 1
vt 0 1
vt 0.142857 0
vt 0.285714 0
vt 0.285714 1
vt 0.142857 1
vt 0.285714 0
vt 0.428571 0
vt 0.428571 1
vt 0.285714 1
vt 0.428571 0
vt 0.571429 0
vt 0.571429 1
vt 0.428571 1
vt 0.571429 0
vt 0.714286 0
vt 0.714286 1
vt 0.571429 1
vt 0.714286 0
vt 0.857143 0
vt 0.857143 1
vt 0.714286 1
vt 0.857143 0
vt 1 0
vt 1 1
vt 0.857143 1
s off
f 1/1/1 2/2/2 3/3/3
f 4/4/4 5/5/5 6/6/6
f 7/7/7 8/8/8 9/9/9
f 10/10/10 11/11/11 12/12/12
f 13/13/13 14/14/14 15/15/15
f 16/16/16 17/17/17 18/18/18
f 19/19/19 20/20/20 21/21/21
f 22/22/22 23/23/23 24/24/24
f 25/25/25 26/26/26 27/27/27
f 28/28/28 29/29/29 30/30/30
f 31/31/31 32/32/32 33/33/33
f 31/31/31 33/33/33 34/34/34
f 35/35/35 36/36/36 37/37/37
f 35/35/35 37/37/37 38/38/38
f 39/39/39 40/40/40 41/41/41
f 39/39/39 41/41/41 42/42/42
f 43/43/43 44/44/44 45/45/45
f 43/43/43 45/45/45 46/46/46
f 47/47/47 48/48/48 49/49/49
f 47/47/47 49/49/49 50/50/50
f 51/51/51 52/52/52 53/53/53
f 51/51/51 53/53/53 54/54/54
f 55/55/55 56/56/56 57/57/57
f 55/55/55 57/57/57 58/58/58
