v -0.646351 0.029139 -0.060145
v -0.657494 0.029373 -0.103215
v -0.663629 0.029373 -0.103215
v -0.646351 0.029139 -0.060145
v -0.645725 0.029213 -0.073791
v -0.657494 0.029373 -0.103215
v -0.645725 0.029213 -0.073791
v -0.628071 0.029373 -0.103215
v -0.633893 0.029373 -0.103215
v -0.645725 0.029213 -0.073791
v -0.631013 0.029329 -0.095076
v -0.628071 0.029373 -0.103215
v -0.631013 0.029329 -0.095076
v -0.616176 0.029213 -0.073791
v -0.628071 0.029373 -0.103215
v -0.616176 0.029213 -0.073791
v -0.59846 0.029373 -0.103215
v -0.604532 0.029373 -0.103215
v -0.616176 0.029213 -0.073791
v -0.615801 0.029139 -0.060145
v -0.59846 0.029373 -0.103215
v -0.645725 0.029213 -0.073791
v -0.645161 0.029139 -0.060145
v -0.631013 0.029329 -0.095076
v -0.61699 0.029139 -0.060145
v -0.616176 0.029213 -0.073791
v -0.631013 0.029329 -0.095076
v -0.646351 0.029139 -0.060145
v -0.645161 0.029139 -0.060145
v -0.645725 0.029213 -0.073791
v -0.61699 0.029139 -0.060145
v -0.615801 0.029139 -0.060145
v -0.616176 0.029213 -0.073791
v -0.657494 0.025617 -0.103234
v -0.646351 0.025383 -0.060165
v -0.663629 0.025617 -0.103234
v -0.645725 0.025457 -0.073812
v -0.646351 0.025383 -0.060165
v -0.657494 0.025617 -0.103234
v -0.628071 0.025617 -0.103234
v -0.645725 0.025457 -0.073812
v -0.633893 0.025617 -0.103234
v -0.631013 0.025573 -0.095096
v -0.645725 0.025457 -0.073812
v -0.628071 0.025617 -0.103234
v -0.616176 0.025457 -0.073812
v -0.631013 0.025573 -0.095096
v -0.628071 0.025617 -0.103234
v -0.59846 0.025617 -0.103234
v -0.616176 0.025457 -0.073812
v -0.604532 0.025617 -0.103234
v -0.615801 0.025383 -0.060165
v -0.616176 0.025457 -0.073812
v -0.59846 0.025617 -0.103234
v -0.645161 0.025383 -0.060165
v -0.645725 0.025457 -0.073812
v -0.631013 0.025573 -0.095096
v -0.616176 0.025457 -0.073812
v -0.61699 0.025383 -0.060165
v -0.631013 0.025573 -0.095096
v -0.645161 0.025383 -0.060165
v -0.646351 0.025383 -0.060165
v -0.645725 0.025457 -0.073812
v -0.615801 0.025383 -0.060165
v -0.61699 0.025383 -0.060165
v -0.616176 0.025457 -0.073812
v -0.61699 0.029139 -0.060145
v -0.631013 0.029329 -0.095076
v -0.631013 0.025573 -0.095096
v -0.61699 0.025383 -0.060165
v -0.631013 0.029329 -0.095076
v -0.645161 0.029139 -0.060145
v -0.645161 0.025383 -0.060165
v -0.631013 0.025573 -0.095096
v -0.645161 0.029139 -0.060145
v -0.646351 0.029139 -0.060145
v -0.646351 0.025383 -0.060165
v -0.645161 0.025383 -0.060165
v -0.646351 0.029139 -0.060145
v -0.663629 0.029373 -0.103215
v -0.663629 0.025617 -0.103234
v -0.646351 0.025383 -0.060165
v -0.663629 0.029373 -0.103215
v -0.657494 0.029373 -0.103215
v -0.657494 0.025617 -0.103234
v -0.663629 0.025617 -0.103234
v -0.657494 0.029373 -0.103215
v -0.645725 0.029213 -0.073791
v -0.645725 0.025457 -0.073812
v -0.657494 0.025617 -0.103234
v -0.645725 0.029213 -0.073791
v -0.633893 0.029373 -0.103215
v -0.633893 0.025617 -0.103234
v -0.645725 0.025457 -0.073812
v -0.633893 0.029373 -0.103215
v -0.628071 0.029373 -0.103215
v -0.628071 0.025617 -0.103234
v -0.633893 0.025617 -0.103234
v -0.628071 0.029373 -0.103215
v -0.616176 0.029213 -0.073791
v -0.616176 0.025457 -0.073812
v -0.628071 0.025617 -0.103234
v -0.616176 0.029213 -0.073791
v -0.604532 0.029373 -0.103215
v -0.604532 0.025617 -0.103234
v -0.616176 0.025457 -0.073812
v -0.604532 0.029373 -0.103215
v -0.59846 0.029373 -0.103215
v -0.59846 0.025617 -0.103234
v -0.604532 0.025617 -0.103234
v -0.59846 0.029373 -0.103215
v -0.615801 0.029139 -0.060145
v -0.615801 0.025383 -0.060165
v -0.59846 0.025617 -0.103234
v -0.615801 0.029139 -0.060145
v -0.61699 0.029139 -0.060145
v -0.61699 0.025383 -0.060165
v -0.615801 0.025383 -0.060165
vn -0 1 0.0054
vn -0 1 0.0054
vn -0 1 0.0054
vn -0 1 0.0054
vn -0 1 0.0054
vn -0 1 0.0054
vn -0 1 0.0054
vn -0 1 0.0054
vn -0 1 0.0054
vn -0 1 0.0054
vn -0.0001 1 0.0054
vn -0 1 0.0054
vn -0.0001 1 0.0054
vn -0 1 0.0054
vn -0 1 0.0054
vn -0 1 0.0054
vn -0 1 0.0054
vn -0 1 0.0054
vn -0 1 0.0054
vn -0 1 0.0054
vn -0 1 0.0054
vn -0 1 0.0054
vn -0 1 0.0054
vn -0.0001 1 0.0054
vn -0 1 0.0054
vn -0 1 0.0054
vn -0.0001 1 0.0054
vn -0 1 0.0054
vn -0 1 0.0054
vn -0 1 0.0054
vn -0 1 0.0054
vn -0 1 0.0054
vn -0 1 0.0054
vn -0 -1 -0.0054
vn -0 -1 -0.0054
vn -0 -1 -0.0054
vn -0 -1 -0.0054
vn -0 -1 -0.0054
vn -0 -1 -0.0054
vn -0 -1 -0.0054
vn -0 -1 -0.0054
vn -0 -1 -0.0054
vn 0.0001 -1 -0.0054
vn -0 -1 -0.0054
vn -0 -1 -0.0054
vn -0 -1 -0.0054
vn 0.0001 -1 -0.0054
vn -0 -1 -0.0054
vn -0 -1 -0.0054
vn -0 -1 -0.0054
vn -0 -1 -0.0054
vn -0 -1 -0.0054
vn -0 -1 -0.0054
vn -0 -1 -0.0054
vn -0 -1 -0.0054
vn -0 -1 -0.0054
vn 0.0001 -1 -0.0054
vn -0 -1 -0.0054
vn -0 -1 -0.0054
vn 0.0001 -1 -0.0054
vn -0 -1 -0.0054
vn -0 -1 -0.0054
vn -0 -1 -0.0054
vn -0 -1 -0.0054
vn -0 -1 -0.0054
vn -0 -1 -0.0054
vn -0.5601 -0.0044 0.8284
vn -0.0015 -0.0053 1
vn -0.0015 -0.0053 1
vn -0.5601 -0.0044 0.8284
vn -0.0015 -0.0053 1
vn 0.5589 -0.0044 0.8293
vn 0.5588 -0.0044 0.8293
vn -0.0015 -0.0053 1
vn 0.5589 -0.0044 0.8293
vn -0.5602 -0.0044 0.8283
vn -0.5602 -0.0044 0.8283
vn 0.5588 -0.0044 0.8293
vn -0.5602 -0.0044 0.8283
vn -0.8283 0.0028 -0.5603
vn -0.8283 0.0032 -0.5603
vn -0.5602 -0.0044 0.8283
vn -0.8283 0.0028 -0.5603
vn 0.5606 0.0043 -0.8281
vn 0.5607 0.0043 -0.828
vn -0.8283 0.0032 -0.5603
vn 0.5606 0.0043 -0.8281
vn 0.0009 0.0053 -1
vn 0.0009 0.0053 -1
vn 0.5607 0.0043 -0.828
vn 0.0009 0.0053 -1
vn -0.5598 0.0042 -0.8286
vn -0.5598 0.0046 -0.8286
vn 0.0009 0.0053 -1
vn -0.5598 0.0042 -0.8286
vn 0.5592 0.0046 -0.8291
vn 0.559 0.0047 -0.8292
vn -0.5598 0.0046 -0.8286
vn 0.5592 0.0046 -0.8291
vn -0.0037 0.0053 -1
vn -0.0037 0.0053 -1
vn 0.559 0.0047 -0.8292
vn -0.0037 0.0053 -1
vn -0.5622 0.0046 -0.827
vn -0.5622 0.0043 -0.827
vn -0.0037 0.0053 -1
vn -0.5622 0.0046 -0.827
vn 0.8286 0.0028 -0.5598
vn 0.8288 0.0028 -0.5596
vn -0.5622 0.0043 -0.827
vn 0.8286 0.0028 -0.5598
vn 0.5597 -0.0044 0.8287
vn 0.5597 -0.0044 0.8287
vn 0.8288 0.0028 -0.5596
vn 0.5597 -0.0044 0.8287
vn -0.5601 -0.0044 0.8284
vn -0.5601 -0.0044 0.8284
vn 0.5597 -0.0044 0.8287
vt 0.25 1
vt 0.416667 1
vt 0.333333 1
vt 0.25 1
vt 0.5 1
vt 0.416667 1
vt 0.5 1
vt 0.666667 1
vt 0.583333 1
vt 0.5 1
vt 0.083333 1
vt 0.666667 1
vt 0.083333 1
vt 0.75 1
vt 0.666667 1
vt 0.75 1
vt 0.916667 1
vt 0.833333 1
vt 0.75 1
vt 1 1
vt 0.916667 1
vt 0.5 1
vt 0.166667 1
vt 0.083333 1
vt 0 1
vt 0.75 1
vt 0.083333 1
vt 0.25 1
vt 0.166667 1
vt 0.5 1
vt 0 1
vt 1 1
vt 0.75 1
vt 0.416667 1
vt 0.25 1
vt 0.333333 1
vt 0.5 1
vt 0.25 1
vt 0.416667 1
vt 0.666667 1
vt 0.5 1
vt 0.583333 1
vt 0.083333 1
vt 0.5 1
vt 0.666667 1
vt 0.75 1
vt 0.083333 1
vt 0.666667 1
vt 0.916667 1
vt 0.75 1
vt 0.833333 1
vt 1 1
vt 0.75 1
vt 0.916667 1
vt 0.166667 1
vt 0.5 1
vt 0.083333 1
vt 0.75 1
vt 0 1
vt 0.083333 1
vt 0.166667 1
vt 0.25 1
vt 0.5 1
vt 1 1
vt 0 1
vt 0.75 1
vt 0 0
vt 0.076923 0
vt 0.076923 1
vt 0 1
vt 0.076923 0
vt 0.153846 0
vt 0.153846 1
vt 0.076923 1
vt 0.153846 0
vt 0.230769 0
vt 0.230769 1
vt 0.153846 1
vt 0.230769 0
vt 0.307692 0
vt 0.307692 1
vt 0.230769 1
vt 0.307692 0
vt 0.384615 0
vt 0.384615 1
vt 0.307692 1
vt 0.384615 0
vt 0.461538 0
vt 0.461538 1
vt 0.384615 1
vt 0.461538 0
vt 0.538462 0
vt 0.538462 1
vt 0.461538 1
vt 0.538462 0
vt 0.615385 0
vt 0.615385 1
vt 0.538462 1
vt 0.615385 0
vt 0.692308 0
vt 0.692308 1
vt 0.615385 1
vt 0.692308 0
vt 0.769231 0
vt 0.769231 1
vt 0.692308 1
vt 0.769231 0
vt 0.846154 0
vt 0.846154 1
vt 0.769231 1
vt 0.846154 0
vt 0.923077 0
vt 0.923077 1
vt 0.846154 1
vt 0.923077 0
vt 1 0
vt 1 1
vt 0.923077 1
s off
f 1/1/1 2/2/2 3/3/3
f 4/4/4 5/5/5 6/6/6
f 7/7/7 8/8/8 9/9/9
f 10/10/10 11/11/11 12/12/12
f 13/13/13 14/14/14 15/15/15
f 16/16/16 17/17/17 18/18/18
f 19/19/19 20/20/20 21/21/21
f 22/22/22 23/23/23 24/24/24
f 25/25/25 26/26/26 27/27/27
f 28/28/28 29/29/29 30/30/30
f 31/31/31 32/32/32 33/33/33
f 34/34/34 35/35/35 36/36/36
f 37/37/37 38/38/38 39/39/39
f 40/40/40 41/41/41 42/42/42
f 43/43/43 44/44/44 45/45/45
f 46/46/46 47/47/47 48/48/48
f 49/49/49 50/50/50 51/51/51
f 52/52/52 53/53/53 54/54/54
f 55/55/55 56/56/56 57/57/57
f 58/58/58 59/59/59 60/60/60
f 61/61/61 62/62/62 63/63/63
f 64/64/64 65/65/65 66/66/66
f 67/67/67 68/68/68 69/69/69
f 67/67/67 69/69/69 70/70/70
f 71/71/71 72/72/72 73/73/73
f 71/71/71 73/73/73 74/74/74
f 75/75/75 76/76/76 77/77/77
f 75/75/75 77/77/77 78/78/78
f 79/79/79 80/80/80 81/81/81
f 79/79/79 81/81/81 82/82/82
f 83/83/83 84/84/84 85/85/85
f 83/83/83 85/85/85 86/86/86
f 87/87/87 88/88/88 89/89/89
f 87/87/87 89/89/89 90/90/90
f 91/91/91 92/92/92 93/93/93
f 91/91/91 93/93/93 94/94/94
f 95/95/95 96/96/96 97/97/97
f 95/95/95 97/97/97 98/98/98
f 99/99/99 100/100/100 101/101/101
f 99/99/99 101/101/101 102/102/102
f 103/103/103 104/104/104 105/105/105
f 103/103/103 105/105/105 106/106/106
f 107/107/107 108/108/108 109/109/109
f 107/107/107 109/109/109 110/110/110
f 111/111/111 112/112/112 113/113/113
f 111/111/111 113/113/113 114/114/114
f 115/115/115 116/116/116 117/117/117
f 115/115/115 117/117/117 118/118/118
