v 0.023374 0.591753 -0.175185
v 0.02339 0.584107 -0.190944
v 0.0214 0.583347 -0.190548
v 0.021388 0.597418 -0.159282
v 0.02336 0.598309 -0.159405
v 0.02339 0.584107 -0.190944
v 0.023609 0.569284 -0.217412
v 0.021812 0.568128 -0.217934
v 0.021502 0.568751 -0.216714
v 0.021364 0.569439 -0.215442
v 0.0214 0.583347 -0.190548
v 0.102886 0.566337 -0.22209
v 0.102885 0.56434 -0.222636
v 0.075379 0.565539 -0.220335
v 0.075406 0.567564 -0.219803
v 0.102885 0.56434 -0.222636
v 0.102886 0.566337 -0.22209
v 0.104112 0.566358 -0.221904
v 0.104248 0.564355 -0.222437
v 0.026281 0.566338 -0.22191
v 0.026656 0.56779 -0.220455
v 0.027496 0.56778 -0.220601
v 0.027514 0.566325 -0.222081
v 0.020564 0.603682 -0.132453
v 0.020564 0.491343 -0.132449
v 0.0208 0.491343 -0.13136
v 0.020794 0.603886 -0.131367
v 0.108695 0.56544 -0.219381
v 0.108103 0.567583 -0.219081
v 0.108629 0.568138 -0.217947
v 0.109312 0.565938 -0.218151
v 0.055301 0.491343 -0.127343
v 0.05531 0.604872 -0.127343
v 0.023347 0.604207 -0.129756
v 0.023347 0.491343 -0.129756
v 0.109842 0.491343 -0.215469
v 0.109841 0.567187 -0.215472
v 0.109841 0.603685 -0.132461
v 0.109842 0.491343 -0.132456
v 0.025094 0.568119 -0.219654
v 0.024026 0.566736 -0.220881
v 0.023117 0.567111 -0.220053
v 0.022331 0.56759 -0.219042
v 0.02393 0.568836 -0.218238
v 0.108695 0.56544 -0.219381
v 0.108685 0.491343 -0.219393
v 0.107803 0.491343 -0.220452
v 0.107803 0.56502 -0.220452
v 0.025094 0.568119 -0.219654
v 0.026656 0.56779 -0.220455
v 0.026281 0.566338 -0.22191
v 0.025126 0.566476 -0.221508
v 0.024026 0.566736 -0.220881
v 0.107122 0.569817 -0.21648
v 0.108962 0.568752 -0.216737
v 0.108629 0.568138 -0.217947
v 0.108103 0.567583 -0.219081
v 0.106582 0.568809 -0.218315
v 0.108982 0.605735 -0.132573
v 0.106768 0.606588 -0.132743
v 0.108767 0.605928 -0.131742
v 0.10832 0.606051 -0.131169
v 0.106768 0.606588 -0.132743
v 0.107743 0.606117 -0.13088
v 0.107743 0.606117 -0.13088
v 0.106768 0.606588 -0.132743
v 0.106877 0.606175 -0.130746
v 0.109312 0.565938 -0.218151
v 0.108629 0.568138 -0.217947
v 0.108962 0.568752 -0.216737
v 0.109712 0.566505 -0.21684
v 0.108767 0.605928 -0.131742
v 0.106768 0.606588 -0.132743
v 0.10832 0.606051 -0.131169
v 0.021706 0.565437 -0.219357
v 0.022601 0.565006 -0.220445
v 0.022601 0.491343 -0.220445
v 0.021714 0.491343 -0.219369
v 0.022331 0.56759 -0.219042
v 0.021706 0.565437 -0.219357
v 0.021094 0.56592 -0.218144
v 0.021812 0.568128 -0.217934
v 0.020719 0.566499 -0.216822
v 0.02072 0.491343 -0.216827
v 0.020564 0.491343 -0.215462
v 0.020564 0.567192 -0.215463
v 0.0214 0.583347 -0.190548
v 0.021364 0.569439 -0.215442
v 0.020564 0.567192 -0.215463
v 0.020564 0.603682 -0.132453
v 0.021419 0.605731 -0.132557
v 0.021388 0.597418 -0.159282
v 0.109312 0.491343 -0.218151
v 0.109312 0.565938 -0.218151
v 0.109712 0.566505 -0.21684
v 0.109708 0.491343 -0.216848
v 0.023687 0.606565 -0.132788
v 0.023537 0.606173 -0.130737
v 0.055346 0.606842 -0.128322
v 0.106877 0.606175 -0.130746
v 0.106768 0.606588 -0.132743
v 0.055295 0.491343 -0.220326
v 0.027521 0.491343 -0.222627
v 0.027521 0.56433 -0.222627
v 0.055295 0.56554 -0.220326
v 0.107039 0.59177 -0.175193
v 0.023374 0.591753 -0.175185
v 0.02336 0.598309 -0.159405
v 0.107056 0.598326 -0.159413
v 0.109841 0.567187 -0.215472
v 0.109037 0.569442 -0.215456
v 0.109015 0.590883 -0.175031
v 0.109021 0.597438 -0.159291
v 0.108982 0.605735 -0.132573
v 0.109841 0.603685 -0.132461
v 0.021419 0.605731 -0.132557
v 0.023687 0.606565 -0.132788
v 0.02336 0.598309 -0.159405
v 0.021388 0.597418 -0.159282
v 0.107059 0.491343 -0.129764
v 0.107059 0.604212 -0.129764
v 0.05531 0.604872 -0.127343
v 0.055301 0.491343 -0.127343
v 0.075406 0.567564 -0.219803
v 0.027514 0.566325 -0.222081
v 0.027496 0.56778 -0.220601
v 0.065338 0.569201 -0.218172
v 0.102889 0.567792 -0.220607
v 0.102886 0.566337 -0.22209
v 0.021812 0.568128 -0.217934
v 0.021094 0.56592 -0.218144
v 0.020719 0.566499 -0.216822
v 0.021502 0.568751 -0.216714
v 0.105351 0.568094 -0.219729
v 0.106582 0.568809 -0.218315
v 0.108103 0.567583 -0.219081
v 0.107306 0.567115 -0.220071
v 0.106379 0.566735 -0.220916
v 0.109312 0.491343 -0.218151
v 0.108685 0.491343 -0.219393
v 0.108695 0.56544 -0.219381
v 0.109312 0.565938 -0.218151
v 0.108157 0.491343 -0.129966
v 0.108162 0.604143 -0.129972
v 0.107059 0.604212 -0.129764
v 0.107059 0.491343 -0.129764
v 0.106379 0.566735 -0.220916
v 0.106766 0.564681 -0.221364
v 0.105547 0.564466 -0.222026
v 0.10529 0.566486 -0.221523
v 0.024859 0.491343 -0.222018
v 0.023635 0.491343 -0.221357
v 0.023623 0.564676 -0.221346
v 0.024859 0.564453 -0.222018
v 0.021379 0.604026 -0.130512
v 0.021379 0.491343 -0.130511
v 0.022281 0.491343 -0.129977
v 0.022277 0.604128 -0.129981
v 0.108767 0.605928 -0.131742
v 0.109592 0.603885 -0.131408
v 0.109841 0.603685 -0.132461
v 0.108982 0.605735 -0.132573
v 0.108162 0.604143 -0.129972
v 0.107743 0.606117 -0.13088
v 0.106877 0.606175 -0.130746
v 0.107059 0.604212 -0.129764
v 0.109712 0.566505 -0.21684
v 0.109841 0.567187 -0.215472
v 0.109842 0.491343 -0.215469
v 0.109708 0.491343 -0.216848
v 0.109588 0.491343 -0.1314
v 0.109592 0.603885 -0.131408
v 0.109026 0.604041 -0.13052
v 0.109026 0.491343 -0.130518
v 0.05531 0.604872 -0.127343
v 0.055346 0.606842 -0.128322
v 0.023537 0.606173 -0.130737
v 0.023347 0.604207 -0.129756
v 0.025126 0.566476 -0.221508
v 0.024859 0.564453 -0.222018
v 0.023623 0.564676 -0.221346
v 0.024026 0.566736 -0.220881
v 0.026141 0.564331 -0.222449
v 0.026281 0.566338 -0.22191
v 0.027514 0.566325 -0.222081
v 0.027521 0.56433 -0.222627
v 0.109026 0.604041 -0.13052
v 0.108162 0.604143 -0.129972
v 0.108157 0.491343 -0.129966
v 0.109026 0.491343 -0.130518
v 0.026141 0.564331 -0.222449
v 0.026151 0.491343 -0.222453
v 0.024859 0.491343 -0.222018
v 0.024859 0.564453 -0.222018
v 0.020564 0.491343 -0.132449
v 0.020564 0.603682 -0.132453
v 0.020564 0.567192 -0.215463
v 0.020564 0.491343 -0.215462
v 0.024026 0.566736 -0.220881
v 0.023623 0.564676 -0.221346
v 0.022601 0.565006 -0.220445
v 0.023117 0.567111 -0.220053
v 0.020719 0.566499 -0.216822
v 0.021094 0.56592 -0.218144
v 0.021094 0.491343 -0.218144
v 0.02072 0.491343 -0.216827
v 0.022601 0.491343 -0.220445
v 0.022601 0.565006 -0.220445
v 0.023623 0.564676 -0.221346
v 0.023635 0.491343 -0.221357
v 0.105547 0.491343 -0.222027
v 0.104242 0.491343 -0.222438
v 0.104248 0.564355 -0.222437
v 0.105547 0.564466 -0.222026
v 0.02393 0.568836 -0.218238
v 0.022331 0.56759 -0.219042
v 0.021812 0.568128 -0.217934
v 0.023609 0.569284 -0.217412
v 0.075379 0.565539 -0.220335
v 0.102885 0.56434 -0.222636
v 0.102885 0.491343 -0.222636
v 0.055295 0.491343 -0.220326
v 0.055295 0.56554 -0.220326
v 0.022102 0.606025 -0.131216
v 0.021379 0.604026 -0.130512
v 0.022277 0.604128 -0.129981
v 0.022697 0.606099 -0.130907
v 0.023687 0.606565 -0.132788
v 0.022102 0.606025 -0.131216
v 0.022697 0.606099 -0.130907
v 0.023537 0.606173 -0.130737
v 0.109037 0.569442 -0.215456
v 0.109841 0.567187 -0.215472
v 0.109712 0.566505 -0.21684
v 0.108962 0.568752 -0.216737
v 0.021379 0.604026 -0.130512
v 0.020794 0.603886 -0.131367
v 0.0208 0.491343 -0.13136
v 0.021379 0.491343 -0.130511
v 0.104112 0.566358 -0.221904
v 0.102886 0.566337 -0.22209
v 0.102889 0.567792 -0.220607
v 0.105351 0.568094 -0.219729
v 0.106379 0.566735 -0.220916
v 0.10529 0.566486 -0.221523
v 0.023347 0.604207 -0.129756
v 0.022277 0.604128 -0.129981
v 0.022281 0.491343 -0.129977
v 0.023347 0.491343 -0.129756
v 0.020564 0.567192 -0.215463
v 0.021364 0.569439 -0.215442
v 0.021502 0.568751 -0.216714
v 0.020719 0.566499 -0.216822
v 0.10529 0.566486 -0.221523
v 0.105547 0.564466 -0.222026
v 0.104248 0.564355 -0.222437
v 0.104112 0.566358 -0.221904
v 0.025094 0.568119 -0.219654
v 0.02393 0.568836 -0.218238
v 0.023609 0.569284 -0.217412
v 0.02339 0.584107 -0.190944
v 0.023374 0.591753 -0.175185
v 0.107039 0.59177 -0.175193
v 0.107122 0.569817 -0.21648
v 0.106582 0.568809 -0.218315
v 0.105351 0.568094 -0.219729
v 0.102889 0.567792 -0.220607
v 0.065338 0.569201 -0.218172
v 0.027496 0.56778 -0.220601
v 0.026656 0.56779 -0.220455
v 0.05531 0.604872 -0.127343
v 0.107059 0.604212 -0.129764
v 0.106877 0.606175 -0.130746
v 0.055346 0.606842 -0.128322
v 0.106766 0.564681 -0.221364
v 0.106754 0.491343 -0.221372
v 0.105547 0.491343 -0.222027
v 0.105547 0.564466 -0.222026
v 0.107056 0.598326 -0.159413
v 0.106768 0.606588 -0.132743
v 0.108982 0.605735 -0.132573
v 0.109021 0.597438 -0.159291
v 0.102885 0.491343 -0.222636
v 0.102885 0.56434 -0.222636
v 0.104248 0.564355 -0.222437
v 0.104242 0.491343 -0.222438
v 0.109841 0.603685 -0.132461
v 0.109592 0.603885 -0.131408
v 0.109588 0.491343 -0.1314
v 0.109842 0.491343 -0.132456
v 0.055295 0.56554 -0.220326
v 0.027521 0.56433 -0.222627
v 0.027514 0.566325 -0.222081
v 0.075406 0.567564 -0.219803
v 0.075379 0.565539 -0.220335
v 0.020794 0.603886 -0.131367
v 0.021665 0.605922 -0.131724
v 0.021419 0.605731 -0.132557
v 0.020564 0.603682 -0.132453
v 0.107803 0.56502 -0.220452
v 0.107306 0.567115 -0.220071
v 0.108103 0.567583 -0.219081
v 0.108695 0.56544 -0.219381
v 0.022697 0.606099 -0.130907
v 0.022277 0.604128 -0.129981
v 0.023347 0.604207 -0.129756
v 0.023537 0.606173 -0.130737
v 0.021706 0.565437 -0.219357
v 0.022331 0.56759 -0.219042
v 0.023117 0.567111 -0.220053
v 0.022601 0.565006 -0.220445
v 0.109037 0.569442 -0.215456
v 0.108962 0.568752 -0.216737
v 0.107122 0.569817 -0.21648
v 0.107039 0.59177 -0.175193
v 0.109015 0.590883 -0.175031
v 0.027521 0.491343 -0.222627
v 0.026151 0.491343 -0.222453
v 0.026141 0.564331 -0.222449
v 0.027521 0.56433 -0.222627
v 0.021706 0.565437 -0.219357
v 0.021714 0.491343 -0.219369
v 0.021094 0.491343 -0.218144
v 0.021094 0.56592 -0.218144
v 0.109015 0.590883 -0.175031
v 0.107039 0.59177 -0.175193
v 0.107056 0.598326 -0.159413
v 0.109021 0.597438 -0.159291
v 0.107306 0.567115 -0.220071
v 0.107803 0.56502 -0.220452
v 0.106766 0.564681 -0.221364
v 0.106379 0.566735 -0.220916
v 0.106766 0.564681 -0.221364
v 0.107803 0.56502 -0.220452
v 0.107803 0.491343 -0.220452
v 0.106754 0.491343 -0.221372
v 0.02336 0.598309 -0.159405
v 0.023687 0.606565 -0.132788
v 0.106768 0.606588 -0.132743
v 0.107056 0.598326 -0.159413
v 0.022102 0.606025 -0.131216
v 0.023687 0.606565 -0.132788
v 0.021665 0.605922 -0.131724
v 0.021379 0.604026 -0.130512
v 0.022102 0.606025 -0.131216
v 0.021665 0.605922 -0.131724
v 0.021379 0.604026 -0.130512
v 0.021665 0.605922 -0.131724
v 0.020794 0.603886 -0.131367
v 0.023687 0.606565 -0.132788
v 0.021419 0.605731 -0.132557
v 0.021665 0.605922 -0.131724
v 0.026281 0.566338 -0.22191
v 0.026141 0.564331 -0.222449
v 0.024859 0.564453 -0.222018
v 0.025126 0.566476 -0.221508
v 0.109592 0.603885 -0.131408
v 0.10832 0.606051 -0.131169
v 0.109026 0.604041 -0.13052
v 0.109592 0.603885 -0.131408
v 0.108767 0.605928 -0.131742
v 0.10832 0.606051 -0.131169
v 0.109026 0.604041 -0.13052
v 0.107743 0.606117 -0.13088
v 0.108162 0.604143 -0.129972
v 0.109026 0.604041 -0.13052
v 0.10832 0.606051 -0.131169
v 0.107743 0.606117 -0.13088
vn -0.4029 0.8233 -0.3998
vn -0.4009 0.8242 -0.3999
vn -0.3955 0.8266 -0.4003
vn -0.4065 0.8434 -0.3513
vn -0.4035 0.8448 -0.3514
vn -0.3955 0.8032 -0.4454
vn -0.364 0.7879 -0.4968
vn -0.3638 0.7889 -0.4953
vn -0.3785 0.7962 -0.472
vn -0.3936 0.7958 -0.4603
vn -0.3955 0.8032 -0.4454
vn -0.0949 0.2606 -0.9608
vn -0.0952 0.2626 -0.9602
vn -0.0424 0.2563 -0.9657
vn -0.0421 0.2546 -0.9661
vn 0.14 0.2614 -0.955
vn 0.1405 0.261 -0.955
vn 0.1373 0.2631 -0.955
vn 0.1369 0.2632 -0.955
vn -0.1102 0.7176 -0.6877
vn -0.1102 0.7176 -0.6877
vn -0.0891 0.7098 -0.6987
vn -0.0891 0.7099 -0.6987
vn -0.9774 -0 0.2114
vn -0.9774 -0 0.2114
vn -0.9784 -0 0.2068
vn -0.9784 -0 0.2068
vn 0.8031 0.2948 -0.5178
vn 0.8035 0.2945 -0.5173
vn 0.8006 0.2963 -0.5208
vn 0.8003 0.2965 -0.5212
vn -0.0454 -0 0.999
vn -0.0452 -0 0.999
vn -0.0969 -0 0.9953
vn -0.097 -0 0.9953
vn 1 -0 -0
vn 1 -0 -0
vn 1 -0 -0
vn 1 -0 -0
vn -0.2546 0.7441 -0.6177
vn -0.255 0.7444 -0.6171
vn -0.2934 0.7556 -0.5857
vn -0.2931 0.7547 -0.5869
vn -0.293 0.7546 -0.5872
vn 0.7685 -0 -0.6398
vn 0.7685 -0 -0.6398
vn 0.7681 -0 -0.6403
vn 0.7681 -0 -0.6403
vn -0.2076 0.734 -0.6466
vn -0.1518 0.7196 -0.6776
vn -0.1503 0.7189 -0.6786
vn -0.2012 0.7289 -0.6544
vn -0.2064 0.7331 -0.6481
vn 0.3808 0.7783 -0.4992
vn 0.3808 0.7783 -0.4992
vn 0.3523 0.7656 -0.5383
vn 0.3434 0.7654 -0.5443
vn 0.3417 0.7653 -0.5455
vn 0.365 0.9231 -0.1207
vn 0.365 0.9231 -0.1207
vn 0.365 0.9231 -0.1207
vn 0.1855 0.9713 0.1485
vn 0.1855 0.9713 0.1485
vn 0.1855 0.9713 0.1485
vn 0.0962 0.9758 0.1963
vn 0.0962 0.9758 0.1963
vn 0.0962 0.9758 0.1963
vn 0.8669 0.3057 -0.3939
vn 0.8672 0.3054 -0.3934
vn 0.8652 0.3068 -0.3966
vn 0.865 0.307 -0.397
vn 0.3 0.9535 0.0293
vn 0.3 0.9535 0.0293
vn 0.3 0.9535 0.0293
vn -0.7715 -0 -0.6362
vn -0.772 -0 -0.6357
vn -0.7715 -0 -0.6362
vn -0.7711 -0 -0.6367
vn -0.7949 0.3077 -0.5229
vn -0.7948 0.3075 -0.5232
vn -0.7951 0.3083 -0.5223
vn -0.7952 0.3084 -0.5222
vn -0.9935 -0 -0.1137
vn -0.9935 -0 -0.1137
vn -0.9936 -0 -0.1128
vn -0.9936 -0 -0.1128
vn -0.9229 0.3371 -0.1861
vn -0.9234 0.3304 -0.1956
vn -0.9234 0.3303 -0.1956
vn -0.9219 0.373 -0.105
vn -0.9196 0.3784 -0.1053
vn -0.925 0.3507 -0.1463
vn 0.9564 -0 -0.2921
vn 0.9564 -0 -0.2921
vn 0.9568 -0 -0.2908
vn 0.9568 -0 -0.2908
vn -0.0441 0.9812 0.1881
vn -0.0422 0.9818 0.185
vn -0.0084 0.9774 0.2114
vn 0.0438 0.9792 0.1981
vn 0.0432 0.9789 0.1998
vn 0.0522 -0 -0.9986
vn 0.1108 -0 -0.9938
vn 0.1108 -0 -0.9938
vn 0.0522 -0 -0.9986
vn 0.0286 0.9231 -0.3836
vn -0.0224 0.9234 -0.3831
vn -0.0204 0.9233 -0.3836
vn 0.0267 0.9233 -0.3831
vn 0.925 0.3312 -0.1864
vn 0.925 0.3312 -0.1864
vn 0.9243 0.3522 -0.147
vn 0.9254 0.3602 -0.1179
vn 0.9217 0.3738 -0.1038
vn 0.919 0.3796 -0.1069
vn -0.3565 0.9008 -0.2481
vn -0.3565 0.9008 -0.2481
vn -0.4093 0.8667 -0.2853
vn -0.4092 0.8667 -0.2853
vn 0.0977 -0 0.9952
vn 0.0977 -0 0.9952
vn -0.0145 -0 0.9999
vn -0.0145 -0 0.9999
vn -0.0117 0.6992 -0.7148
vn 0.042 0.7091 -0.7038
vn 0.04 0.7129 -0.7001
vn 0.0024 0.6956 -0.7184
vn -0.0417 0.7095 -0.7035
vn -0.0425 0.7133 -0.6995
vn -0.8661 0.3188 -0.385
vn -0.8661 0.3184 -0.3854
vn -0.8663 0.3194 -0.3841
vn -0.8663 0.3197 -0.3838
vn 0.2566 0.7386 -0.6234
vn 0.301 0.7455 -0.5946
vn 0.301 0.7455 -0.5946
vn 0.263 0.7379 -0.6215
vn 0.2577 0.7384 -0.6231
vn 0.8936 -0 -0.4489
vn 0.8927 -0.0001 -0.4507
vn 0.8931 -0.0001 -0.4498
vn 0.894 -0 -0.4481
vn 0.1858 -0 0.9826
vn 0.1858 -0 0.9826
vn 0.1814 -0 0.9834
vn 0.1814 -0 0.9834
vn 0.422 0.2689 -0.8658
vn 0.4224 0.2686 -0.8657
vn 0.422 0.2689 -0.8658
vn 0.422 0.2689 -0.8658
vn -0.477 -0 -0.8789
vn -0.4755 -0 -0.8797
vn -0.4761 -0 -0.8794
vn -0.4776 -0 -0.8786
vn -0.5096 -0 0.8604
vn -0.5096 -0 0.8604
vn -0.5088 -0 0.8609
vn -0.5088 -0 0.8609
vn 0.9097 0.3903 0.1417
vn 0.9097 0.3904 0.1412
vn 0.9097 0.3897 0.1436
vn 0.9097 0.3895 0.1441
vn 0.1659 0.4407 0.8822
vn 0.1658 0.4407 0.8822
vn 0.1929 0.4533 0.8702
vn 0.1929 0.4533 0.8702
vn 0.9954 -0 -0.0956
vn 0.9956 -0 -0.0939
vn 0.9955 -0 -0.0947
vn 0.9953 -0.0001 -0.0964
vn 0.843 -0 0.5379
vn 0.843 -0 0.5379
vn 0.843 -0 0.5379
vn 0.843 -0 0.5379
vn -0.0473 0.4471 0.8932
vn -0.0477 0.4455 0.894
vn -0.0975 0.4519 0.8867
vn -0.0974 0.4521 0.8867
vn -0.4215 0.274 -0.8645
vn -0.4208 0.2735 -0.8649
vn -0.425 0.2772 -0.8617
vn -0.4255 0.2778 -0.8612
vn -0.1288 0.2646 -0.9557
vn -0.1296 0.2653 -0.9554
vn -0.1244 0.2618 -0.9571
vn -0.1236 0.2616 -0.9572
vn 0.5358 -0 0.8443
vn 0.5353 -0 0.8446
vn 0.5358 -0 0.8443
vn 0.5362 -0 0.8441
vn -0.3193 -0 -0.9477
vn -0.3193 -0 -0.9477
vn -0.3182 -0 -0.948
vn -0.3182 -0 -0.948
vn -1 -0 -0
vn -1 -0 -0
vn -1 -0 -0
vn -1 -0 -0
vn -0.5802 0.2856 -0.7627
vn -0.5805 0.2858 -0.7625
vn -0.5792 0.2845 -0.7639
vn -0.579 0.2842 -0.7642
vn -0.962 -0 -0.2729
vn -0.962 -0 -0.2729
vn -0.962 -0 -0.2729
vn -0.962 -0 -0.2729
vn -0.6617 -0 -0.7498
vn -0.6617 -0 -0.7498
vn -0.6617 -0 -0.7498
vn -0.6617 -0 -0.7498
vn 0.3013 -0 -0.9535
vn 0.3004 -0 -0.9538
vn 0.301 -0 -0.9536
vn 0.3017 -0 -0.9534
vn -0.3361 0.7757 -0.5342
vn -0.3361 0.7757 -0.5342
vn -0.3351 0.7674 -0.5466
vn -0.3351 0.7674 -0.5466
vn -0.0532 -0 -0.9986
vn -0.1119 -0 -0.9937
vn -0.1119 -0 -0.9937
vn 0.0167 -0 -0.9999
vn 0.0167 -0 -0.9999
vn -0.493 0.4419 0.7494
vn -0.493 0.4419 0.7494
vn -0.4536 0.4561 0.7656
vn -0.4536 0.4561 0.7656
vn -0.1923 0.9714 0.1396
vn -0.1923 0.9714 0.1396
vn -0.1214 0.9765 0.1782
vn -0.1214 0.9765 0.1782
vn 0.9116 0.3269 -0.2491
vn 0.9116 0.3269 -0.249
vn 0.921 0.3178 -0.2251
vn 0.9211 0.3178 -0.2251
vn -0.8257 -0 0.5641
vn -0.8254 -0 0.5646
vn -0.8255 -0 0.5644
vn -0.8262 -0 0.5633
vn 0.093 0.7148 -0.6932
vn 0.1075 0.7097 -0.6962
vn 0.1075 0.7097 -0.6962
vn 0.2012 0.726 -0.6576
vn 0.2008 0.7261 -0.6576
vn 0.1423 0.7183 -0.681
vn -0.2037 -0 0.979
vn -0.2059 -0 0.9786
vn -0.2046 -0 0.9788
vn -0.2025 -0 0.9793
vn -0.9053 0.3252 -0.2733
vn -0.9053 0.3247 -0.2739
vn -0.9053 0.3273 -0.2707
vn -0.9053 0.3278 -0.2701
vn 0.2704 0.2647 -0.9257
vn 0.2704 0.2647 -0.9257
vn 0.2704 0.2647 -0.9257
vn 0.2704 0.2647 -0.9257
vn -0.0758 0.8625 -0.5003
vn -0.0739 0.8642 -0.4977
vn -0.0186 0.8699 -0.4929
vn -0.0204 0.8993 -0.4368
vn -0.0221 0.8995 -0.4364
vn 0.0166 0.8994 -0.4369
vn 0.0589 0.8668 -0.4951
vn 0.0574 0.8684 -0.4925
vn 0.0753 0.8628 -0.4999
vn -0.0056 0.8841 -0.4672
vn -0.0035 0.8511 -0.5249
vn -0.0767 0.8598 -0.5049
vn -0.0767 0.8598 -0.5049
vn -0.0154 0.4455 0.8952
vn 0.0984 0.4519 0.8866
vn 0.0987 0.4526 0.8862
vn -0.0154 0.4454 0.8952
vn 0.4772 -0 -0.8788
vn 0.4772 -0 -0.8788
vn 0.4769 -0 -0.8789
vn 0.4769 -0 -0.8789
vn 0.4095 0.8676 -0.2821
vn 0.3648 0.896 -0.2531
vn 0.3648 0.896 -0.2531
vn 0.4095 0.8676 -0.2821
vn 0.1446 -0 -0.9895
vn 0.1446 -0 -0.9895
vn 0.1446 -0 -0.9895
vn 0.1446 -0 -0.9895
vn 0.9727 -0 0.2323
vn 0.9732 -0 0.2302
vn 0.9729 -0 0.2312
vn 0.9724 -0 0.2334
vn 0.0416 0.2554 -0.9659
vn 0.0942 0.2612 -0.9607
vn 0.0935 0.2631 -0.9602
vn -0.0138 0.2548 -0.9669
vn -0.0138 0.2544 -0.967
vn -0.8948 0.4129 0.1699
vn -0.8948 0.4129 0.1699
vn -0.914 0.3875 0.1204
vn -0.914 0.3875 0.1203
vn 0.6774 0.2837 -0.6787
vn 0.6771 0.2839 -0.6789
vn 0.6793 0.2828 -0.6772
vn 0.6795 0.2826 -0.6771
vn -0.2154 0.4524 0.8654
vn -0.2155 0.4524 0.8654
vn -0.2147 0.4526 0.8655
vn -0.2143 0.4528 0.8655
vn -0.6808 0.2954 -0.6702
vn -0.6812 0.2959 -0.6697
vn -0.6788 0.2923 -0.6736
vn -0.6785 0.2918 -0.6742
vn 0.397 0.7993 -0.4511
vn 0.3993 0.7988 -0.45
vn 0.3997 0.7989 -0.4494
vn 0.3969 0.8257 -0.4009
vn 0.4024 0.8238 -0.3992
vn -0.1276 -0 -0.9918
vn -0.1259 -0 -0.992
vn -0.1266 -0 -0.992
vn -0.1283 -0 -0.9917
vn -0.8927 -0 -0.4507
vn -0.8927 -0 -0.4507
vn -0.8929 -0 -0.4502
vn -0.8929 -0 -0.4502
vn 0.4046 0.8442 -0.3516
vn 0.4072 0.8433 -0.3508
vn 0.4061 0.8437 -0.3511
vn 0.4035 0.8446 -0.3519
vn 0.5823 0.2768 -0.7644
vn 0.5823 0.2768 -0.7644
vn 0.5823 0.2768 -0.7644
vn 0.5827 0.2766 -0.7642
vn 0.6596 -0 -0.7516
vn 0.6606 -0 -0.7507
vn 0.6599 -0 -0.7513
vn 0.6593 -0 -0.7519
vn -0.0044 0.9507 -0.3102
vn -0.0027 0.9613 -0.2756
vn 0.0063 0.9615 -0.2748
vn 0.0286 0.9504 -0.3098
vn -0.281 0.9586 0.046
vn -0.281 0.9586 0.046
vn -0.281 0.9586 0.046
vn -0.7217 0.4469 0.5286
vn -0.7217 0.4469 0.5286
vn -0.7217 0.4469 0.5286
vn -0.7807 0.416 0.4663
vn -0.7807 0.416 0.4663
vn -0.7807 0.416 0.4663
vn -0.3528 0.9294 -0.1084
vn -0.3528 0.9294 -0.1084
vn -0.3528 0.9294 -0.1084
vn -0.2844 0.2671 -0.9208
vn -0.2839 0.2669 -0.921
vn -0.2872 0.2691 -0.9193
vn -0.2876 0.2696 -0.919
vn 0.7966 0.4199 0.4348
vn 0.7966 0.4199 0.4348
vn 0.7966 0.4199 0.4348
vn 0.7642 0.3924 0.5119
vn 0.7642 0.3924 0.5119
vn 0.7642 0.3924 0.5119
vn 0.5161 0.4457 0.7314
vn 0.5161 0.4457 0.7314
vn 0.5161 0.4457 0.7314
vn 0.4454 0.4129 0.7944
vn 0.4454 0.4129 0.7944
vn 0.4454 0.4129 0.7944
vt 0 0
vt 0 0
vt 0 0
vt 0 0
vt 0 0
vt 0 0
vt 0 0
vt 0 0
vt 0 0
vt 0 0
vt 0 0
vt 0 0
vt 0 0
vt 0 0
vt 0 0
vt 0 0
vt 0 0
vt 0 0
vt 0 0
vt 0 0
vt 0 0
vt 0 0
vt 0 0
vt 0 0
vt 0 0
vt 0 0
vt 0 0
vt 0 0
vt 0 0
vt 0 0
vt 0 0
vt 0 0
vt 0 0
vt 0 0
vt 0 0
vt 0 0
vt 0 0
vt 0 0
vt 0 0
vt 0 0
vt 0 0
vt 0 0
vt 0 0
vt 0 0
vt 0 0
vt 0 0
vt 0 0
vt 0 0
vt 0 0
vt 0 0
vt 0 0
vt 0 0
vt 0 0
vt 0 0
vt 0 0
vt 0 0
vt 0 0
vt 0 0
vt 0 0
vt 0 0
vt 0 0
vt 0 0
vt 0 0
vt 0 0
vt 0 0
vt 0 0
vt 0 0
vt 0 0
vt 0 0
vt 0 0
vt 0 0
vt 0 0
vt 0 0
vt 0 0
vt 0 0
vt 0 0
vt 0 0
vt 0 0
vt 0 0
vt 0 0
vt 0 0
vt 0 0
vt 0 0
vt 0 0
vt 0 0
vt 0 0
vt 0 0
vt 0 0
vt 0 0
vt 0 0
vt 0 0
vt 0 0
vt 0 0
vt 0 0
vt 0 0
vt 0 0
vt 0 0
vt 0 0
vt 0 0
vt 0 0
vt 0 0
vt 0 0
vt 0 0
vt 0 0
vt 0 0
vt 0 0
vt 0 0
vt 0 0
vt 0 0
vt 0 0
vt 0 0
vt 0 0
vt 0 0
vt 0 0
vt 0 0
vt 0 0
vt 0 0
vt 0 0
vt 0 0
vt 0 0
vt 0 0
vt 0 0
vt 0 0
vt 0 0
vt 0 0
vt 0 0
vt 0 0
vt 0 0
vt 0 0
vt 0 0
vt 0 0
vt 0 0
vt 0 0
vt 0 0
vt 0 0
vt 0 0
vt 0 0
vt 0 0
vt 0 0
vt 0 0
vt 0 0
vt 0 0
vt 0 0
vt 0 0
vt 0 0
vt 0 0
vt 0 0
vt 0 0
vt 0 0
vt 0 0
vt 0 0
vt 0 0
vt 0 0
vt 0 0
vt 0 0
vt 0 0
vt 0 0
vt 0 0
vt 0 0
vt 0 0
vt 0 0
vt 0 0
vt 0 0
vt 0 0
vt 0 0
vt 0 0
vt 0 0
vt 0 0
vt 0 0
vt 0 0
vt 0 0
vt 0 0
vt 0 0
vt 0 0
vt 0 0
vt 0 0
vt 0 0
vt 0 0
vt 0 0
vt 0 0
vt 0 0
vt 0 0
vt 0 0
vt 0 0
vt 0 0
vt 0 0
vt 0 0
vt 0 0
vt 0 0
vt 0 0
vt 0 0
vt 0 0
vt 0 0
vt 0 0
vt 0 0
vt 0 0
vt 0 0
vt 0 0
vt 0 0
vt 0 0
vt 0 0
vt 0 0
vt 0 0
vt 0 0
vt 0 0
vt 0 0
vt 0 0
vt 0 0
vt 0 0
vt 0 0
vt 0 0
vt 0 0
vt 0 0
vt 0 0
vt 0 0
vt 0 0
vt 0 0
vt 0 0
vt 0 0
vt 0 0
vt 0 0
vt 0 0
vt 0 0
vt 0 0
vt 0 0
vt 0 0
vt 0 0
vt 0 0
vt 0 0
vt 0 0
vt 0 0
vt 0 0
vt 0 0
vt 0 0
vt 0 0
vt 0 0
vt 0 0
vt 0 0
vt 0 0
vt 0 0
vt 0 0
vt 0 0
vt 0 0
vt 0 0
vt 0 0
vt 0 0
vt 0 0
vt 0 0
vt 0 0
vt 0 0
vt 0 0
vt 0 0
vt 0 0
vt 0 0
vt 0 0
vt 0 0
vt 0 0
vt 0 0
vt 0 0
vt 0 0
vt 0 0
vt 0 0
vt 0 0
vt 0 0
vt 0 0
vt 0 0
vt 0 0
vt 0 0
vt 0 0
vt 0 0
vt 0 0
vt 0 0
vt 0 0
vt 0 0
vt 0 0
vt 0 0
vt 0 0
vt 0 0
vt 0 0
vt 0 0
vt 0 0
vt 0 0
vt 0 0
vt 0 0
vt 0 0
vt 0 0
vt 0 0
vt 0 0
vt 0 0
vt 0 0
vt 0 0
vt 0 0
vt 0 0
vt 0 0
vt 0 0
vt 0 0
vt 0 0
vt 0 0
vt 0 0
vt 0 0
vt 0 0
vt 0 0
vt 0 0
vt 0 0
vt 0 0
vt 0 0
vt 0 0
vt 0 0
vt 0 0
vt 0 0
vt 0 0
vt 0 0
vt 0 0
vt 0 0
vt 0 0
vt 0 0
vt 0 0
vt 0 0
vt 0 0
vt 0 0
vt 0 0
vt 0 0
vt 0 0
vt 0 0
vt 0 0
vt 0 0
vt 0 0
vt 0 0
vt 0 0
vt 0 0
vt 0 0
vt 0 0
vt 0 0
vt 0 0
vt 0 0
vt 0 0
vt 0 0
vt 0 0
vt 0 0
vt 0 0
vt 0 0
vt 0 0
vt 0 0
vt 0 0
vt 0 0
vt 0 0
vt 0 0
vt 0 0
vt 0 0
vt 0 0
vt 0 0
vt 0 0
vt 0 0
vt 0 0
vt 0 0
vt 0 0
vt 0 0
vt 0 0
vt 0 0
vt 0 0
vt 0 0
vt 0 0
vt 0 0
vt 0 0
vt 0 0
vt 0 0
vt 0 0
vt 0 0
s off
f 4/4/4 5/5/5 1/1/1
f 1/1/1 2/2/2 3/3/3
f 3/3/3 4/4/4 1/1/1
f 10/10/10 11/11/11 6/6/6
f 6/6/6 7/7/7 8/8/8
f 8/8/8 9/9/9 10/10/10
f 10/10/10 6/6/6 8/8/8
f 12/12/12 13/13/13 14/14/14
f 12/12/12 14/14/14 15/15/15
f 16/16/16 17/17/17 18/18/18
f 16/16/16 18/18/18 19/19/19
f 20/20/20 21/21/21 22/22/22
f 20/20/20 22/22/22 23/23/23
f 24/24/24 25/25/25 26/26/26
f 24/24/24 26/26/26 27/27/27
f 28/28/28 29/29/29 30/30/30
f 28/28/28 30/30/30 31/31/31
f 32/32/32 33/33/33 34/34/34
f 32/32/32 34/34/34 35/35/35
f 36/36/36 37/37/37 38/38/38
f 36/36/36 38/38/38 39/39/39
f 43/43/43 44/44/44 40/40/40
f 40/40/40 41/41/41 42/42/42
f 42/42/42 43/43/43 40/40/40
f 45/45/45 46/46/46 47/47/47
f 45/45/45 47/47/47 48/48/48
f 52/52/52 53/53/53 49/49/49
f 49/49/49 50/50/50 51/51/51
f 51/51/51 52/52/52 49/49/49
f 57/57/57 58/58/58 54/54/54
f 54/54/54 55/55/55 56/56/56
f 56/56/56 57/57/57 54/54/54
f 59/59/59 60/60/60 61/61/61
f 62/62/62 63/63/63 64/64/64
f 65/65/65 66/66/66 67/67/67
f 68/68/68 69/69/69 70/70/70
f 68/68/68 70/70/70 71/71/71
f 72/72/72 73/73/73 74/74/74
f 75/75/75 76/76/76 77/77/77
f 75/75/75 77/77/77 78/78/78
f 79/79/79 80/80/80 81/81/81
f 79/79/79 81/81/81 82/82/82
f 83/83/83 84/84/84 85/85/85
f 83/83/83 85/85/85 86/86/86
f 91/91/91 92/92/92 87/87/87
f 87/87/87 88/88/88 89/89/89
f 89/89/89 90/90/90 91/91/91
f 91/91/91 87/87/87 89/89/89
f 93/93/93 94/94/94 95/95/95
f 93/93/93 95/95/95 96/96/96
f 100/100/100 101/101/101 97/97/97
f 97/97/97 98/98/98 99/99/99
f 99/99/99 100/100/100 97/97/97
f 102/102/102 103/103/103 104/104/104
f 102/102/102 104/104/104 105/105/105
f 106/106/106 107/107/107 108/108/108
f 106/106/106 108/108/108 109/109/109
f 114/114/114 115/115/115 110/110/110
f 110/110/110 111/111/111 112/112/112
f 112/112/112 113/113/113 114/114/114
f 114/114/114 110/110/110 112/112/112
f 116/116/116 117/117/117 118/118/118
f 116/116/116 118/118/118 119/119/119
f 120/120/120 121/121/121 122/122/122
f 120/120/120 122/122/122 123/123/123
f 128/128/128 129/129/129 124/124/124
f 124/124/124 125/125/125 126/126/126
f 127/127/127 128/128/128 124/124/124
f 124/124/124 126/126/126 127/127/127
f 130/130/130 131/131/131 132/132/132
f 130/130/130 132/132/132 133/133/133
f 137/137/137 138/138/138 134/134/134
f 134/134/134 135/135/135 136/136/136
f 136/136/136 137/137/137 134/134/134
f 139/139/139 140/140/140 141/141/141
f 139/139/139 141/141/141 142/142/142
f 143/143/143 144/144/144 145/145/145
f 143/143/143 145/145/145 146/146/146
f 147/147/147 148/148/148 149/149/149
f 147/147/147 149/149/149 150/150/150
f 151/151/151 152/152/152 153/153/153
f 151/151/151 153/153/153 154/154/154
f 155/155/155 156/156/156 157/157/157
f 155/155/155 157/157/157 158/158/158
f 159/159/159 160/160/160 161/161/161
f 159/159/159 161/161/161 162/162/162
f 163/163/163 164/164/164 165/165/165
f 163/163/163 165/165/165 166/166/166
f 167/167/167 168/168/168 169/169/169
f 167/167/167 169/169/169 170/170/170
f 171/171/171 172/172/172 173/173/173
f 171/171/171 173/173/173 174/174/174
f 175/175/175 176/176/176 177/177/177
f 175/175/175 177/177/177 178/178/178
f 179/179/179 180/180/180 181/181/181
f 179/179/179 181/181/181 182/182/182
f 183/183/183 184/184/184 185/185/185
f 183/183/183 185/185/185 186/186/186
f 187/187/187 188/188/188 189/189/189
f 187/187/187 189/189/189 190/190/190
f 191/191/191 192/192/192 193/193/193
f 191/191/191 193/193/193 194/194/194
f 195/195/195 196/196/196 197/197/197
f 195/195/195 197/197/197 198/198/198
f 199/199/199 200/200/200 201/201/201
f 199/199/199 201/201/201 202/202/202
f 203/203/203 204/204/204 205/205/205
f 203/203/203 205/205/205 206/206/206
f 207/207/207 208/208/208 209/209/209
f 207/207/207 209/209/209 210/210/210
f 211/211/211 212/212/212 213/213/213
f 211/211/211 213/213/213 214/214/214
f 215/215/215 216/216/216 217/217/217
f 215/215/215 217/217/217 218/218/218
f 222/222/222 223/223/223 219/219/219
f 219/219/219 220/220/220 221/221/221
f 221/221/221 222/222/222 219/219/219
f 224/224/224 225/225/225 226/226/226
f 224/224/224 226/226/226 227/227/227
f 228/228/228 229/229/229 230/230/230
f 228/228/228 230/230/230 231/231/231
f 232/232/232 233/233/233 234/234/234
f 232/232/232 234/234/234 235/235/235
f 236/236/236 237/237/237 238/238/238
f 236/236/236 238/238/238 239/239/239
f 244/244/244 245/245/245 240/240/240
f 240/240/240 241/241/241 242/242/242
f 242/242/242 243/243/243 244/244/244
f 244/244/244 240/240/240 242/242/242
f 246/246/246 247/247/247 248/248/248
f 246/246/246 248/248/248 249/249/249
f 250/250/250 251/251/251 252/252/252
f 250/250/250 252/252/252 253/253/253
f 254/254/254 255/255/255 256/256/256
f 254/254/254 256/256/256 257/257/257
f 269/269/269 270/270/270 258/258/258
f 258/258/258 259/259/259 260/260/260
f 260/260/260 261/261/261 262/262/262
f 262/262/262 263/263/263 264/264/264
f 264/264/264 265/265/265 266/266/266
f 266/266/266 267/267/267 268/268/268
f 268/268/268 269/269/269 258/258/258
f 258/258/258 260/260/260 262/262/262
f 262/262/262 264/264/264 266/266/266
f 268/268/268 258/258/258 262/262/262
f 262/262/262 266/266/266 268/268/268
f 271/271/271 272/272/272 273/273/273
f 271/271/271 273/273/273 274/274/274
f 275/275/275 276/276/276 277/277/277
f 275/275/275 277/277/277 278/278/278
f 279/279/279 280/280/280 281/281/281
f 279/279/279 281/281/281 282/282/282
f 283/283/283 284/284/284 285/285/285
f 283/283/283 285/285/285 286/286/286
f 287/287/287 288/288/288 289/289/289
f 287/287/287 289/289/289 290/290/290
f 294/294/294 295/295/295 291/291/291
f 291/291/291 292/292/292 293/293/293
f 293/293/293 294/294/294 291/291/291
f 296/296/296 297/297/297 298/298/298
f 296/296/296 298/298/298 299/299/299
f 300/300/300 301/301/301 302/302/302
f 300/300/300 302/302/302 303/303/303
f 304/304/304 305/305/305 306/306/306
f 304/304/304 306/306/306 307/307/307
f 308/308/308 309/309/309 310/310/310
f 308/308/308 310/310/310 311/311/311
f 315/315/315 316/316/316 312/312/312
f 312/312/312 313/313/313 314/314/314
f 314/314/314 315/315/315 312/312/312
f 317/317/317 318/318/318 319/319/319
f 317/317/317 319/319/319 320/320/320
f 321/321/321 322/322/322 323/323/323
f 321/321/321 323/323/323 324/324/324
f 325/325/325 326/326/326 327/327/327
f 325/325/325 327/327/327 328/328/328
f 329/329/329 330/330/330 331/331/331
f 329/329/329 331/331/331 332/332/332
f 333/333/333 334/334/334 335/335/335
f 333/333/333 335/335/335 336/336/336
f 337/337/337 338/338/338 339/339/339
f 337/337/337 339/339/339 340/340/340
f 341/341/341 342/342/342 343/343/343
f 344/344/344 345/345/345 346/346/346
f 347/347/347 348/348/348 349/349/349
f 350/350/350 351/351/351 352/352/352
f 353/353/353 354/354/354 355/355/355
f 353/353/353 355/355/355 356/356/356
f 357/357/357 358/358/358 359/359/359
f 360/360/360 361/361/361 362/362/362
f 363/363/363 364/364/364 365/365/365
f 366/366/366 367/367/367 368/368/368
