v -0.403879 0.384762 -0.286022
v -0.360424 0.378394 -0.293489
v -0.35873 0.338382 -0.258773
v -0.403238 0.370464 -0.271653
v -0.405519 0.38524 -0.285269
v -0.403879 0.384762 -0.286022
v -0.403238 0.370464 -0.271653
v -0.404575 0.398509 -0.293546
v -0.404303 0.393633 -0.292823
v -0.405932 0.393771 -0.291968
v -0.406193 0.398343 -0.292706
v -0.402408 0.350352 -0.249137
v -0.402407 0.348501 -0.245772
v -0.404078 0.349812 -0.245595
v -0.404077 0.351613 -0.248871
v -0.406742 0.40105 -0.288678
v -0.403989 0.458898 -0.007884
v -0.404016 0.458569 -0.015311
v -0.406817 0.405871 -0.280008
v -0.406445 0.401916 -0.289803
v -0.405519 0.38524 -0.285269
v -0.404077 0.351613 -0.248871
v -0.404078 0.349812 -0.245595
v -0.404475 0.351159 -0.245222
v -0.406297 0.393997 -0.29055
v -0.405932 0.393771 -0.291968
v -0.405519 0.38524 -0.285269
v -0.405932 0.393771 -0.291968
v -0.404303 0.393633 -0.292823
v -0.403879 0.384762 -0.286022
v -0.404626 0.349594 -0.236118
v -0.404215 0.349302 -0.242418
v -0.402543 0.347971 -0.242511
v -0.402959 0.348259 -0.236139
v -0.40502 0.378975 -0.010526
v -0.405102 0.377175 -0.010926
v -0.358305 0.359467 0.002895
v -0.358202 0.361678 0.00336
v -0.35829 0.327094 -0.246099
v -0.402407 0.348501 -0.245772
v -0.402408 0.350352 -0.249137
v -0.358344 0.329293 -0.249659
v -0.404836 0.402337 -0.290499
v -0.405212 0.406473 -0.280506
v -0.361556 0.410637 -0.2858
v -0.36136 0.404961 -0.297579
v -0.403538 0.459586 -0.005147
v -0.403989 0.458898 -0.007884
v -0.403922 0.458137 -0.005658
v -0.401735 0.460312 -0.004185
v -0.401808 0.460572 -0.006093
v -0.403607 0.45982 -0.006929
v -0.403538 0.459586 -0.005147
v -0.406769 0.379788 -0.011525
v -0.403618 0.456816 -0.004608
v -0.403922 0.458137 -0.005658
v -0.407171 0.378628 -0.012737
v -0.358398 0.326566 -0.242838
v -0.402543 0.347971 -0.242511
v -0.402407 0.348501 -0.245772
v -0.35829 0.327094 -0.246099
v -0.403547 0.458796 -0.004652
v -0.403618 0.456816 -0.004608
v -0.401813 0.457377 -0.003491
v -0.401744 0.459418 -0.00365
v -0.353894 0.470442 0.010713
v -0.401808 0.460572 -0.006093
v -0.401735 0.460312 -0.004185
v -0.353777 0.470235 0.013015
v -0.405212 0.406473 -0.280506
v -0.401808 0.460572 -0.006093
v -0.353894 0.470442 0.010713
v -0.361556 0.410637 -0.2858
v -0.406769 0.379788 -0.011525
v -0.407171 0.378628 -0.012737
v -0.406844 0.378051 -0.011804
v -0.405102 0.377175 -0.010926
v -0.40502 0.378975 -0.010526
v -0.401813 0.457377 -0.003491
v -0.403618 0.456816 -0.004608
v -0.406769 0.379788 -0.011525
v -0.406844 0.378051 -0.011804
v -0.401808 0.460572 -0.006093
v -0.405212 0.406473 -0.280506
v -0.406817 0.405871 -0.280008
v -0.404016 0.458569 -0.015311
v -0.403607 0.45982 -0.006929
v -0.406891 0.377275 -0.012305
v -0.406844 0.378051 -0.011804
v -0.407171 0.378628 -0.012737
v -0.353869 0.466723 0.013659
v -0.401813 0.457377 -0.003491
v -0.40502 0.378975 -0.010526
v -0.358202 0.361678 0.00336
v -0.403879 0.384762 -0.286022
v -0.404303 0.393633 -0.292823
v -0.360935 0.391578 -0.301419
v -0.360424 0.378394 -0.293489
v -0.361184 0.399103 -0.301808
v -0.404575 0.398509 -0.293546
v -0.404836 0.402337 -0.290499
v -0.36136 0.404961 -0.297579
v -0.405153 0.376297 -0.011465
v -0.405102 0.377175 -0.010926
v -0.406844 0.378051 -0.011804
v -0.406891 0.377275 -0.012305
v -0.407225 0.375777 -0.02043
v -0.406964 0.376671 -0.013769
v -0.407279 0.377473 -0.014634
v -0.353777 0.470235 0.013015
v -0.401735 0.460312 -0.004185
v -0.401744 0.459418 -0.00365
v -0.353785 0.469255 0.013545
v -0.407279 0.377473 -0.014634
v -0.406964 0.376671 -0.013769
v -0.406891 0.377275 -0.012305
v -0.407171 0.378628 -0.012737
v -0.358788 0.326838 -0.236544
v -0.402959 0.348259 -0.236139
v -0.402543 0.347971 -0.242511
v -0.358398 0.326566 -0.242838
v -0.403618 0.456816 -0.004608
v -0.403547 0.458796 -0.004652
v -0.403922 0.458137 -0.005658
v -0.403538 0.459586 -0.005147
v -0.403922 0.458137 -0.005658
v -0.403547 0.458796 -0.004652
v -0.403538 0.459586 -0.005147
v -0.403607 0.45982 -0.006929
v -0.403989 0.458898 -0.007884
v -0.406964 0.376671 -0.013769
v -0.407225 0.375777 -0.02043
v -0.407795 0.373906 -0.036255
v -0.404626 0.349594 -0.236118
v -0.402959 0.348259 -0.236139
v -0.405233 0.375651 -0.013041
v -0.404016 0.458569 -0.015311
v -0.403989 0.458898 -0.007884
v -0.403607 0.45982 -0.006929
v -0.401744 0.459418 -0.00365
v -0.401735 0.460312 -0.004185
v -0.403538 0.459586 -0.005147
v -0.403547 0.458796 -0.004652
v -0.404215 0.349302 -0.242418
v -0.404078 0.349812 -0.245595
v -0.402407 0.348501 -0.245772
v -0.402543 0.347971 -0.242511
v -0.358368 0.358515 0.002349
v -0.405153 0.376297 -0.011465
v -0.405233 0.375651 -0.013041
v -0.358489 0.357786 0.000456
v -0.406891 0.377275 -0.012305
v -0.406964 0.376671 -0.013769
v -0.405233 0.375651 -0.013041
v -0.405153 0.376297 -0.011465
v -0.404836 0.402337 -0.290499
v -0.404575 0.398509 -0.293546
v -0.406193 0.398343 -0.292706
v -0.406445 0.401916 -0.289803
v -0.401744 0.459418 -0.00365
v -0.401813 0.457377 -0.003491
v -0.353869 0.466723 0.013659
v -0.353785 0.469255 0.013545
v -0.407279 0.377473 -0.014634
v -0.407171 0.378628 -0.012737
v -0.403922 0.458137 -0.005658
v -0.403989 0.458898 -0.007884
v -0.406742 0.40105 -0.288678
v -0.406525 0.397995 -0.29135
v -0.406297 0.393997 -0.29055
v -0.404475 0.351159 -0.245222
v -0.406193 0.398343 -0.292706
v -0.405932 0.393771 -0.291968
v -0.406297 0.393997 -0.29055
v -0.406525 0.397995 -0.29135
v -0.402408 0.350352 -0.249137
v -0.403238 0.370464 -0.271653
v -0.35873 0.338382 -0.258773
v -0.358344 0.329293 -0.249659
v -0.405233 0.375651 -0.013041
v -0.402959 0.348259 -0.236139
v -0.358788 0.326838 -0.236544
v -0.358489 0.357786 0.000456
v -0.407279 0.377473 -0.014634
v -0.404475 0.351159 -0.245222
v -0.404078 0.349812 -0.245595
v -0.404215 0.349302 -0.242418
v -0.404626 0.349594 -0.236118
v -0.407795 0.373906 -0.036255
v -0.407225 0.375777 -0.02043
v -0.405102 0.377175 -0.010926
v -0.405153 0.376297 -0.011465
v -0.358368 0.358515 0.002349
v -0.358305 0.359467 0.002895
v -0.406445 0.401916 -0.289803
v -0.406817 0.405871 -0.280008
v -0.405212 0.406473 -0.280506
v -0.404836 0.402337 -0.290499
v -0.406525 0.397995 -0.29135
v -0.406742 0.40105 -0.288678
v -0.406445 0.401916 -0.289803
v -0.406193 0.398343 -0.292706
v -0.360935 0.391578 -0.301419
v -0.404303 0.393633 -0.292823
v -0.404575 0.398509 -0.293546
v -0.361184 0.399103 -0.301808
v -0.402408 0.350352 -0.249137
v -0.404077 0.351613 -0.248871
v -0.405519 0.38524 -0.285269
v -0.403238 0.370464 -0.271653
vn -0.2278 -0.6818 -0.6952
vn -0.2593 -0.623 -0.738
vn -0.301 -0.6483 -0.6993
vn -0.2811 -0.6865 -0.6706
vn -0.4671 -0.6371 -0.6131
vn -0.4671 -0.6371 -0.6131
vn -0.4671 -0.6371 -0.6131
vn -0.4694 -0.155 -0.8693
vn -0.4694 -0.155 -0.8693
vn -0.4405 -0.1675 -0.882
vn -0.4405 -0.1675 -0.882
vn -0.5943 -0.7047 -0.3876
vn -0.5943 -0.7047 -0.3876
vn -0.5943 -0.7047 -0.3876
vn -0.5943 -0.7047 -0.3876
vn -0.9823 0.1599 -0.0974
vn -0.9581 0.2863 -0.0092
vn -0.9686 0.2486 0.0036
vn -0.9757 0.1879 -0.1129
vn -0.9757 0.1879 -0.1129
vn -0.9631 -0.2122 -0.1655
vn -0.9603 -0.2439 -0.1354
vn -0.9598 -0.2457 -0.1355
vn -0.9617 -0.2385 -0.1348
vn -0.9531 -0.2175 -0.2103
vn -0.9636 -0.1923 -0.1856
vn -0.4183 -0.5734 -0.7044
vn -0.4183 -0.5734 -0.7044
vn -0.4755 -0.5495 -0.687
vn -0.4755 -0.5495 -0.687
vn -0.6235 -0.7818 -0.0046
vn -0.6231 -0.7822 -0.0043
vn -0.6246 -0.7809 -0.0052
vn -0.6252 -0.7804 -0.0055
vn -0.35 -0.1917 0.9169
vn -0.3483 -0.1884 0.9183
vn -0.3406 -0.184 0.922
vn -0.3385 -0.1785 0.9239
vn -0.3843 -0.788 -0.481
vn -0.3991 -0.8006 -0.4469
vn -0.3976 -0.804 -0.4422
vn -0.3843 -0.788 -0.481
vn -0.1424 0.9127 -0.3831
vn -0.1424 0.9127 -0.3831
vn -0.1228 0.8933 -0.4325
vn -0.1228 0.8933 -0.4324
vn -0.9657 0.2401 0.0989
vn -0.9657 0.2401 0.0989
vn -0.9694 0.2151 0.1184
vn -0.4313 0.8922 0.1338
vn -0.4357 0.8895 0.1378
vn -0.4359 0.8895 0.137
vn -0.4308 0.8925 0.1339
vn -0.9822 0.0224 0.1864
vn -0.9712 -0.0368 0.2353
vn -0.9712 -0.0368 0.2353
vn -0.9677 0.0885 0.2362
vn -0.4305 -0.8886 -0.1581
vn -0.4381 -0.8843 -0.1617
vn -0.4382 -0.8842 -0.1619
vn -0.4306 -0.8883 -0.1597
vn -0.5346 0.0376 0.8443
vn -0.5346 0.0376 0.8443
vn -0.506 0.084 0.8584
vn -0.5061 0.0839 0.8584
vn -0.2328 0.9675 0.0988
vn -0.2511 0.9586 0.1343
vn -0.2542 0.957 0.14
vn -0.2328 0.9675 0.0988
vn -0.1304 0.9593 -0.2504
vn -0.1633 0.9787 -0.1244
vn -0.1565 0.9796 -0.1257
vn -0.1218 0.9562 -0.2662
vn -0.9458 -0.0113 0.3246
vn -0.9458 -0.0113 0.3246
vn -0.9458 -0.0113 0.3246
vn -0.5442 -0.1583 0.8239
vn -0.5198 -0.0724 0.8512
vn -0.5158 -0.045 0.8555
vn -0.5158 -0.045 0.8555
vn -0.4933 -0.1172 0.862
vn -0.4933 -0.1171 0.8619
vn -0.3926 0.9138 -0.1045
vn -0.4044 0.8835 -0.2363
vn -0.4044 0.8835 -0.2363
vn -0.3333 0.9347 -0.1232
vn -0.3333 0.9347 -0.1232
vn -0.9575 -0.1138 0.2652
vn -0.9575 -0.1138 0.2652
vn -0.9575 -0.1138 0.2652
vn -0.3247 -0.0594 0.9439
vn -0.3345 -0.0464 0.9413
vn -0.3214 -0.0925 0.9424
vn -0.314 -0.0954 0.9446
vn -0.1898 -0.603 -0.7748
vn -0.1898 -0.603 -0.7748
vn -0.2161 -0.5095 -0.8329
vn -0.2161 -0.5095 -0.8329
vn -0.159 0.5747 -0.8027
vn -0.1665 0.6001 -0.7824
vn -0.1721 0.6062 -0.7765
vn -0.159 0.5747 -0.8028
vn -0.566 -0.407 0.7169
vn -0.566 -0.407 0.7169
vn -0.5755 -0.4191 0.7022
vn -0.5755 -0.4191 0.7022
vn -0.9534 -0.2918 0.0765
vn -0.9534 -0.2918 0.0765
vn -0.9534 -0.2918 0.0765
vn -0.3814 0.4419 0.812
vn -0.3878 0.471 0.7923
vn -0.387 0.4767 0.7893
vn -0.3814 0.4419 0.8119
vn -0.9639 -0.2257 0.1416
vn -0.9639 -0.2257 0.1416
vn -0.976 -0.1582 0.1496
vn -0.9763 -0.1537 0.1525
vn -0.435 -0.9003 0.0119
vn -0.4426 -0.8966 0.0115
vn -0.4425 -0.8967 0.0117
vn -0.435 -0.9004 0.0119
vn -0.9448 0.0408 0.3252
vn -0.9448 0.0408 0.3252
vn -0.9448 0.0408 0.3252
vn -0.9547 0.1657 0.2472
vn -0.9547 0.1657 0.2472
vn -0.9547 0.1657 0.2472
vn -0.9469 0.3121 0.0777
vn -0.9469 0.3121 0.0777
vn -0.9469 0.3121 0.0777
vn -0.5851 -0.8004 0.1303
vn -0.5828 -0.8043 0.1161
vn -0.6087 -0.7845 0.1183
vn -0.6259 -0.7788 0.0413
vn -0.6243 -0.7801 0.0412
vn -0.5473 -0.8238 0.1473
vn -0.9184 0.3954 -0.0142
vn -0.9184 0.3954 -0.0142
vn -0.9184 0.3954 -0.0142
vn -0.5536 0.432 0.7119
vn -0.5536 0.432 0.7119
vn -0.5475 0.4485 0.7065
vn -0.5475 0.4486 0.7064
vn -0.6205 -0.7696 -0.1506
vn -0.6201 -0.77 -0.1503
vn -0.6205 -0.7696 -0.1506
vn -0.6209 -0.7692 -0.1509
vn -0.4203 -0.8375 0.3492
vn -0.4273 -0.8293 0.36
vn -0.4272 -0.8288 0.3614
vn -0.4205 -0.8355 0.3538
vn -0.5799 -0.7431 0.334
vn -0.579 -0.743 0.3359
vn -0.5791 -0.743 0.3357
vn -0.5799 -0.7431 0.3341
vn -0.4299 0.5441 -0.7205
vn -0.4299 0.5441 -0.7205
vn -0.449 0.5441 -0.7088
vn -0.449 0.5441 -0.7088
vn -0.3565 0.0845 0.9305
vn -0.3565 0.0845 0.9305
vn -0.3458 0.0537 0.9368
vn -0.3458 0.0536 0.9368
vn -0.9992 0.007 0.0392
vn -0.9987 0.0242 0.0453
vn -0.9981 0.0174 0.0583
vn -0.9974 0.0604 0.04
vn -0.9985 -0.0303 -0.0466
vn -0.9969 -0.0654 -0.0428
vn -0.9962 -0.0787 -0.0373
vn -0.9941 -0.0922 -0.0566
vn -0.9678 -0.093 -0.234
vn -0.9678 -0.093 -0.234
vn -0.9591 -0.1071 -0.262
vn -0.9591 -0.1071 -0.262
vn -0.3392 -0.7249 -0.5995
vn -0.3304 -0.7008 -0.6322
vn -0.3291 -0.6756 -0.6597
vn -0.3291 -0.6756 -0.6598
vn -0.3975 -0.9037 0.1595
vn -0.4415 -0.8949 0.0659
vn -0.4336 -0.8986 0.0668
vn -0.3945 -0.9017 0.177
vn -0.977 -0.2071 0.0515
vn -0.9618 -0.2616 -0.0801
vn -0.9632 -0.2559 -0.0819
vn -0.9661 -0.2529 -0.051
vn -0.9693 -0.2429 -0.0395
vn -0.9768 -0.2058 0.0595
vn -0.9768 -0.2078 0.0518
vn -0.4116 -0.4547 0.7899
vn -0.413 -0.4588 0.7868
vn -0.4035 -0.4435 0.8003
vn -0.4015 -0.4354 0.8058
vn -0.4224 0.8348 -0.3532
vn -0.4224 0.8348 -0.3532
vn -0.3806 0.8493 -0.3658
vn -0.3806 0.8493 -0.3658
vn -0.978 0.0934 -0.1864
vn -0.978 0.0934 -0.1864
vn -0.972 0.103 -0.2112
vn -0.972 0.103 -0.2112
vn -0.195 -0.057 -0.9791
vn -0.1909 -0.1543 -0.9694
vn -0.1909 -0.1543 -0.9694
vn -0.195 -0.057 -0.9791
vn -0.5663 -0.6393 -0.5202
vn -0.5596 -0.6438 -0.5219
vn -0.5179 -0.6215 -0.5877
vn -0.5196 -0.6387 -0.5675
vt 0 0
vt 0 0
vt 0 0
vt 0 0
vt 0 0
vt 0 0
vt 0 0
vt 0 0
vt 0 0
vt 0 0
vt 0 0
vt 0 0
vt 0 0
vt 0 0
vt 0 0
vt 0 0
vt 0 0
vt 0 0
vt 0 0
vt 0 0
vt 0 0
vt 0 0
vt 0 0
vt 0 0
vt 0 0
vt 0 0
vt 0 0
vt 0 0
vt 0 0
vt 0 0
vt 0 0
vt 0 0
vt 0 0
vt 0 0
vt 0 0
vt 0 0
vt 0 0
vt 0 0
vt 0 0
vt 0 0
vt 0 0
vt 0 0
vt 0 0
vt 0 0
vt 0 0
vt 0 0
vt 0 0
vt 0 0
vt 0 0
vt 0 0
vt 0 0
vt 0 0
vt 0 0
vt 0 0
vt 0 0
vt 0 0
vt 0 0
vt 0 0
vt 0 0
vt 0 0
vt 0 0
vt 0 0
vt 0 0
vt 0 0
vt 0 0
vt 0 0
vt 0 0
vt 0 0
vt 0 0
vt 0 0
vt 0 0
vt 0 0
vt 0 0
vt 0 0
vt 0 0
vt 0 0
vt 0 0
vt 0 0
vt 0 0
vt 0 0
vt 0 0
vt 0 0
vt 0 0
vt 0 0
vt 0 0
vt 0 0
vt 0 0
vt 0 0
vt 0 0
vt 0 0
vt 0 0
vt 0 0
vt 0 0
vt 0 0
vt 0 0
vt 0 0
vt 0 0
vt 0 0
vt 0 0
vt 0 0
vt 0 0
vt 0 0
vt 0 0
vt 0 0
vt 0 0
vt 0 0
vt 0 0
vt 0 0
vt 0 0
vt 0 0
vt 0 0
vt 0 0
vt 0 0
vt 0 0
vt 0 0
vt 0 0
vt 0 0
vt 0 0
vt 0 0
vt 0 0
vt 0 0
vt 0 0
vt 0 0
vt 0 0
vt 0 0
vt 0 0
vt 0 0
vt 0 0
vt 0 0
vt 0 0
vt 0 0
vt 0 0
vt 0 0
vt 0 0
vt 0 0
vt 0 0
vt 0 0
vt 0 0
vt 0 0
vt 0 0
vt 0 0
vt 0 0
vt 0 0
vt 0 0
vt 0 0
vt 0 0
vt 0 0
vt 0 0
vt 0 0
vt 0 0
vt 0 0
vt 0 0
vt 0 0
vt 0 0
vt 0 0
vt 0 0
vt 0 0
vt 0 0
vt 0 0
vt 0 0
vt 0 0
vt 0 0
vt 0 0
vt 0 0
vt 0 0
vt 0 0
vt 0 0
vt 0 0
vt 0 0
vt 0 0
vt 0 0
vt 0 0
vt 0 0
vt 0 0
vt 0 0
vt 0 0
vt 0 0
vt 0 0
vt 0 0
vt 0 0
vt 0 0
vt 0 0
vt 0 0
vt 0 0
vt 0 0
vt 0 0
vt 0 0
vt 0 0
vt 0 0
vt 0 0
vt 0 0
vt 0 0
vt 0 0
vt 0 0
vt 0 0
vt 0 0
vt 0 0
vt 0 0
vt 0 0
vt 0 0
vt 0 0
vt 0 0
vt 0 0
vt 0 0
vt 0 0
vt 0 0
vt 0 0
vt 0 0
vt 0 0
vt 0 0
s off
f 1/1/1 2/2/2 3/3/3
f 1/1/1 3/3/3 4/4/4
f 5/5/5 6/6/6 7/7/7
f 8/8/8 9/9/9 10/10/10
f 8/8/8 10/10/10 11/11/11
f 12/12/12 13/13/13 14/14/14
f 12/12/12 14/14/14 15/15/15
f 19/19/19 20/20/20 16/16/16
f 16/16/16 17/17/17 18/18/18
f 18/18/18 19/19/19 16/16/16
f 25/25/25 26/26/26 21/21/21
f 21/21/21 22/22/22 23/23/23
f 23/23/23 24/24/24 25/25/25
f 25/25/25 21/21/21 23/23/23
f 27/27/27 28/28/28 29/29/29
f 27/27/27 29/29/29 30/30/30
f 31/31/31 32/32/32 33/33/33
f 31/31/31 33/33/33 34/34/34
f 35/35/35 36/36/36 37/37/37
f 35/35/35 37/37/37 38/38/38
f 39/39/39 40/40/40 41/41/41
f 39/39/39 41/41/41 42/42/42
f 43/43/43 44/44/44 45/45/45
f 43/43/43 45/45/45 46/46/46
f 47/47/47 48/48/48 49/49/49
f 50/50/50 51/51/51 52/52/52
f 50/50/50 52/52/52 53/53/53
f 54/54/54 55/55/55 56/56/56
f 54/54/54 56/56/56 57/57/57
f 58/58/58 59/59/59 60/60/60
f 58/58/58 60/60/60 61/61/61
f 62/62/62 63/63/63 64/64/64
f 62/62/62 64/64/64 65/65/65
f 66/66/66 67/67/67 68/68/68
f 66/66/66 68/68/68 69/69/69
f 70/70/70 71/71/71 72/72/72
f 70/70/70 72/72/72 73/73/73
f 74/74/74 75/75/75 76/76/76
f 81/81/81 82/82/82 77/77/77
f 77/77/77 78/78/78 79/79/79
f 79/79/79 80/80/80 81/81/81
f 81/81/81 77/77/77 79/79/79
f 86/86/86 87/87/87 83/83/83
f 83/83/83 84/84/84 85/85/85
f 85/85/85 86/86/86 83/83/83
f 88/88/88 89/89/89 90/90/90
f 91/91/91 92/92/92 93/93/93
f 91/91/91 93/93/93 94/94/94
f 95/95/95 96/96/96 97/97/97
f 95/95/95 97/97/97 98/98/98
f 99/99/99 100/100/100 101/101/101
f 99/99/99 101/101/101 102/102/102
f 103/103/103 104/104/104 105/105/105
f 103/103/103 105/105/105 106/106/106
f 107/107/107 108/108/108 109/109/109
f 110/110/110 111/111/111 112/112/112
f 110/110/110 112/112/112 113/113/113
f 114/114/114 115/115/115 116/116/116
f 114/114/114 116/116/116 117/117/117
f 118/118/118 119/119/119 120/120/120
f 118/118/118 120/120/120 121/121/121
f 122/122/122 123/123/123 124/124/124
f 125/125/125 126/126/126 127/127/127
f 128/128/128 129/129/129 130/130/130
f 135/135/135 136/136/136 131/131/131
f 131/131/131 132/132/132 133/133/133
f 133/133/133 134/134/134 135/135/135
f 135/135/135 131/131/131 133/133/133
f 137/137/137 138/138/138 139/139/139
f 140/140/140 141/141/141 142/142/142
f 140/140/140 142/142/142 143/143/143
f 144/144/144 145/145/145 146/146/146
f 144/144/144 146/146/146 147/147/147
f 148/148/148 149/149/149 150/150/150
f 148/148/148 150/150/150 151/151/151
f 152/152/152 153/153/153 154/154/154
f 152/152/152 154/154/154 155/155/155
f 156/156/156 157/157/157 158/158/158
f 156/156/156 158/158/158 159/159/159
f 160/160/160 161/161/161 162/162/162
f 160/160/160 162/162/162 163/163/163
f 170/170/170 171/171/171 164/164/164
f 164/164/164 165/165/165 166/166/166
f 166/166/166 167/167/167 168/168/168
f 168/168/168 169/169/169 170/170/170
f 170/170/170 164/164/164 166/166/166
f 166/166/166 168/168/168 170/170/170
f 172/172/172 173/173/173 174/174/174
f 172/172/172 174/174/174 175/175/175
f 176/176/176 177/177/177 178/178/178
f 176/176/176 178/178/178 179/179/179
f 180/180/180 181/181/181 182/182/182
f 180/180/180 182/182/182 183/183/183
f 189/189/189 190/190/190 184/184/184
f 184/184/184 185/185/185 186/186/186
f 186/186/186 187/187/187 188/188/188
f 188/188/188 189/189/189 184/184/184
f 184/184/184 186/186/186 188/188/188
f 191/191/191 192/192/192 193/193/193
f 191/191/191 193/193/193 194/194/194
f 195/195/195 196/196/196 197/197/197
f 195/195/195 197/197/197 198/198/198
f 199/199/199 200/200/200 201/201/201
f 199/199/199 201/201/201 202/202/202
f 203/203/203 204/204/204 205/205/205
f 203/203/203 205/205/205 206/206/206
f 207/207/207 208/208/208 209/209/209
f 207/207/207 209/209/209 210/210/210
