v -0.41078 0.276291 -0.408417
v -0.410124 0.277804 -0.409454
v -0.409787 0.275302 -0.412524
v -0.409412 0.272313 -0.415119
v -0.410109 0.271251 -0.413648
v -0.38132 0.17194 -0.356522
v -0.381319 0.171891 -0.2231
v -0.382425 0.17145 -0.223022
v -0.382428 0.171499 -0.356589
v -0.379304 0.285496 -0.234219
v -0.380403 0.285952 -0.234189
v -0.380403 0.285469 -0.2307
v -0.379304 0.285021 -0.230795
v -0.379304 0.186375 -0.215645
v -0.379304 0.184711 -0.217601
v -0.338569 0.184711 -0.217601
v -0.338569 0.186375 -0.215645
v -0.382422 0.265171 -0.200549
v -0.381319 0.265107 -0.200994
v -0.381319 0.26982 -0.201965
v -0.382422 0.269944 -0.201533
v -0.379304 0.181795 -0.224664
v -0.380403 0.181342 -0.224597
v -0.380403 0.181375 -0.354965
v -0.379304 0.181827 -0.354894
v -0.404345 0.185952 -0.203228
v -0.406129 0.186297 -0.203868
v -0.405716 0.182817 -0.205992
v -0.403934 0.182379 -0.205419
v -0.382422 0.282853 -0.208208
v -0.382421 0.286417 -0.211535
v -0.414495 0.286443 -0.211908
v -0.414223 0.282886 -0.208565
v -0.338569 0.253452 -0.408395
v -0.338569 0.187204 -0.365037
v -0.379304 0.187204 -0.365037
v -0.379304 0.253452 -0.408393
v -0.380403 0.182098 -0.357878
v -0.379304 0.182532 -0.357731
v -0.379304 0.181827 -0.354894
v -0.380403 0.181375 -0.354965
v -0.338569 0.182532 -0.357731
v -0.338569 0.181827 -0.354894
v -0.379304 0.181827 -0.354894
v -0.379304 0.182532 -0.357731
v -0.380403 0.253266 -0.408813
v -0.379304 0.253452 -0.408393
v -0.379304 0.187204 -0.365037
v -0.380403 0.186892 -0.365372
v -0.338569 0.273411 -0.214356
v -0.338569 0.276223 -0.216336
v -0.379304 0.276223 -0.216336
v -0.379304 0.273411 -0.214356
v -0.411274 0.279283 -0.401793
v -0.410649 0.28107 -0.402258
v -0.410416 0.279745 -0.405998
v -0.410124 0.277804 -0.409454
v -0.41078 0.276291 -0.408417
v -0.405249 0.249412 -0.418247
v -0.405599 0.253293 -0.41955
v -0.382409 0.253201 -0.419328
v -0.38241 0.249313 -0.418041
v -0.382422 0.274539 -0.20316
v -0.382422 0.278868 -0.205398
v -0.413894 0.27891 -0.205739
v -0.413516 0.27459 -0.203481
v -0.382417 0.189606 -0.201669
v -0.382417 0.193687 -0.200679
v -0.4052 0.193897 -0.200652
v -0.404769 0.189823 -0.201626
v -0.416267 0.285882 -0.212457
v -0.416477 0.288885 -0.216174
v -0.416624 0.291358 -0.220266
v -0.417246 0.289732 -0.22112
v -0.416638 0.28126 -0.2106
v -0.415995 0.282405 -0.209181
v -0.380403 0.19527 -0.21059
v -0.379304 0.195339 -0.211043
v -0.379304 0.263749 -0.210939
v -0.380403 0.263809 -0.210486
v -0.379304 0.266538 -0.40691
v -0.380403 0.266806 -0.40728
v -0.380403 0.268606 -0.405719
v -0.379304 0.268279 -0.405399
v -0.382422 0.174036 -0.215034
v -0.382421 0.176229 -0.21144
v -0.403199 0.176472 -0.211341
v -0.402892 0.174282 -0.214926
v -0.407708 0.194314 -0.203139
v -0.415115 0.264901 -0.203357
v -0.415958 0.273576 -0.205854
v -0.416638 0.28126 -0.2106
v -0.417246 0.289732 -0.22112
v -0.41728 0.293365 -0.234135
v -0.411274 0.279283 -0.401793
v -0.41078 0.276291 -0.408417
v -0.410109 0.271251 -0.413648
v -0.409339 0.264736 -0.416871
v -0.408557 0.2575 -0.417698
v -0.407856 0.250392 -0.416013
v -0.401886 0.18195 -0.37082
v -0.401531 0.17683 -0.364097
v -0.401463 0.17413 -0.356076
v -0.405042 0.174085 -0.223271
v -0.405488 0.176452 -0.216015
v -0.406124 0.18094 -0.209867
v -0.406891 0.187098 -0.205433
v -0.382425 0.17145 -0.223022
v -0.382424 0.172429 -0.218927
v -0.402635 0.172678 -0.218813
v -0.402434 0.1717 -0.222905
v -0.402635 0.172678 -0.218813
v -0.404405 0.173353 -0.219018
v -0.404203 0.172398 -0.223004
v -0.402434 0.1717 -0.222905
v -0.380403 0.284517 -0.227313
v -0.380403 0.285469 -0.2307
v -0.380403 0.285952 -0.234189
v -0.380859 0.287052 -0.234117
v -0.380859 0.284094 -0.223583
v -0.380403 0.283116 -0.224091
v -0.382409 0.253201 -0.419328
v -0.381312 0.253302 -0.418875
v -0.381312 0.249489 -0.417614
v -0.38241 0.249313 -0.418041
v -0.382407 0.26919 -0.417534
v -0.381311 0.268986 -0.417113
v -0.381311 0.265236 -0.418569
v -0.382406 0.265366 -0.419018
v -0.381317 0.286081 -0.211836
v -0.382421 0.286417 -0.211535
v -0.382422 0.282853 -0.208208
v -0.381319 0.282562 -0.208551
v -0.380859 0.261169 -0.418265
v -0.381311 0.261294 -0.419361
v -0.381311 0.265236 -0.418569
v -0.380859 0.264927 -0.41751
v -0.380403 0.192717 -0.211211
v -0.380403 0.19527 -0.21059
v -0.380859 0.195103 -0.209498
v -0.380859 0.189786 -0.211241
v -0.380403 0.19029 -0.212223
v -0.382421 0.176229 -0.21144
v -0.381317 0.176589 -0.211715
v -0.381317 0.179268 -0.208562
v -0.382421 0.178956 -0.208233
v -0.380859 0.271786 -0.41414
v -0.381311 0.272434 -0.415035
v -0.381312 0.275476 -0.412395
v -0.381312 0.278025 -0.409274
v -0.380859 0.277114 -0.408647
v -0.407708 0.194314 -0.203139
v -0.406985 0.194029 -0.201381
v -0.414416 0.265144 -0.201582
v -0.415115 0.264901 -0.203357
v -0.382407 0.261348 -0.419825
v -0.381311 0.261294 -0.419361
v -0.381312 0.257277 -0.419465
v -0.382407 0.257253 -0.419928
v -0.416655 0.2952 -0.234002
v -0.414882 0.295978 -0.233925
v -0.414753 0.295986 -0.238814
v -0.408872 0.28183 -0.402437
v -0.410649 0.28107 -0.402258
v -0.382421 0.176229 -0.21144
v -0.382421 0.178956 -0.208233
v -0.40355 0.179193 -0.208146
v -0.403199 0.176472 -0.211341
v -0.405488 0.176452 -0.216015
v -0.404664 0.174919 -0.215235
v -0.404975 0.177057 -0.211748
v -0.405329 0.17971 -0.208641
v -0.406124 0.18094 -0.209867
v -0.380859 0.186424 -0.204683
v -0.380859 0.193921 -0.202223
v -0.381315 0.19375 -0.201132
v -0.381315 0.189738 -0.202106
v -0.381315 0.185925 -0.203699
v -0.380403 0.283116 -0.224091
v -0.379304 0.282709 -0.224301
v -0.379304 0.284086 -0.227468
v -0.380403 0.284517 -0.227313
v -0.382422 0.174036 -0.215034
v -0.381319 0.174433 -0.215247
v -0.381317 0.176589 -0.211715
v -0.382421 0.176229 -0.21144
v -0.382407 0.272703 -0.415415
v -0.382407 0.26919 -0.417534
v -0.407219 0.269248 -0.417824
v -0.407623 0.272755 -0.415721
v -0.380859 0.17748 -0.212366
v -0.381317 0.176589 -0.211715
v -0.381319 0.174433 -0.215247
v -0.381319 0.172854 -0.219074
v -0.380859 0.173904 -0.219419
v -0.382422 0.278868 -0.205398
v -0.382422 0.282853 -0.208208
v -0.414223 0.282886 -0.208565
v -0.413894 0.27891 -0.205739
v -0.380403 0.273648 -0.213965
v -0.380403 0.276511 -0.215982
v -0.380403 0.279075 -0.218372
v -0.380859 0.27988 -0.217619
v -0.380859 0.270976 -0.211346
v -0.380403 0.270538 -0.212358
v -0.380859 0.186424 -0.204683
v -0.381315 0.185925 -0.203699
v -0.381317 0.182406 -0.205868
v -0.381317 0.179268 -0.208562
v -0.380859 0.180048 -0.209345
v -0.406129 0.186297 -0.203868
v -0.404345 0.185952 -0.203228
v -0.404769 0.189823 -0.201626
v -0.406554 0.190066 -0.202319
v -0.401531 0.17683 -0.364097
v -0.400697 0.175315 -0.364901
v -0.400622 0.173532 -0.360744
v -0.400626 0.172443 -0.356354
v -0.401463 0.17413 -0.356076
v -0.380859 0.172981 -0.223275
v -0.381319 0.171891 -0.2231
v -0.38132 0.17194 -0.356522
v -0.380859 0.173029 -0.356345
v -0.379304 0.257889 -0.409445
v -0.379304 0.260178 -0.409385
v -0.338569 0.260178 -0.409385
v -0.338569 0.257889 -0.409446
v -0.406124 0.18094 -0.209867
v -0.405329 0.17971 -0.208641
v -0.405716 0.182817 -0.205992
v -0.406129 0.186297 -0.203868
v -0.406891 0.187098 -0.205433
v -0.338569 0.263749 -0.210939
v -0.338569 0.267117 -0.211632
v -0.379304 0.267117 -0.211632
v -0.379304 0.263749 -0.210939
v -0.338569 0.266538 -0.40691
v -0.338569 0.264567 -0.408099
v -0.379304 0.264567 -0.408099
v -0.379304 0.266538 -0.40691
v -0.382418 0.185727 -0.203288
v -0.382417 0.189606 -0.201669
v -0.404769 0.189823 -0.201626
v -0.404345 0.185952 -0.203228
v -0.410416 0.279745 -0.405998
v -0.408634 0.280456 -0.406302
v -0.408339 0.278443 -0.409874
v -0.410124 0.277804 -0.409454
v -0.338569 0.270871 -0.401597
v -0.338569 0.269737 -0.403611
v -0.379304 0.269737 -0.403611
v -0.379304 0.270871 -0.401597
v -0.398931 0.174685 -0.365232
v -0.400697 0.175315 -0.364901
v -0.400845 0.177747 -0.368711
v -0.399079 0.177174 -0.369138
v -0.380859 0.290646 -0.22019
v -0.380859 0.294415 -0.233598
v -0.381315 0.295516 -0.233528
v -0.381315 0.294855 -0.228749
v -0.381317 0.29355 -0.224106
v -0.381317 0.291627 -0.219686
v -0.381312 0.275476 -0.412395
v -0.382409 0.275805 -0.412725
v -0.382409 0.278403 -0.409544
v -0.381312 0.278025 -0.409274
v -0.379304 0.186375 -0.215645
v -0.380403 0.186051 -0.215322
v -0.380403 0.184341 -0.217332
v -0.379304 0.184711 -0.217601
v -0.380403 0.18805 -0.213605
v -0.379304 0.18832 -0.213974
v -0.379304 0.1905 -0.21263
v -0.380403 0.19029 -0.212223
v -0.379304 0.18832 -0.213974
v -0.380403 0.18805 -0.213605
v -0.380403 0.186051 -0.215322
v -0.379304 0.186375 -0.215645
v -0.381311 0.272434 -0.415035
v -0.380859 0.271786 -0.41414
v -0.380859 0.264927 -0.41751
v -0.381311 0.265236 -0.418569
v -0.381311 0.268986 -0.417113
v -0.406985 0.194029 -0.201381
v -0.4052 0.193897 -0.200652
v -0.412639 0.265242 -0.200829
v -0.414416 0.265144 -0.201582
v -0.382421 0.178956 -0.208233
v -0.381317 0.179268 -0.208562
v -0.381317 0.182406 -0.205868
v -0.382419 0.182148 -0.205494
v -0.38241 0.280419 -0.405965
v -0.381312 0.280003 -0.405761
v -0.381312 0.278025 -0.409274
v -0.382409 0.278403 -0.409544
v -0.380403 0.266806 -0.40728
v -0.380403 0.264769 -0.40851
v -0.380859 0.265257 -0.409502
v -0.380859 0.2694 -0.406487
v -0.380403 0.268606 -0.405719
v -0.404203 0.172398 -0.223004
v -0.400626 0.172443 -0.356354
v -0.398863 0.171742 -0.356475
v -0.402434 0.1717 -0.222905
v -0.380859 0.290646 -0.22019
v -0.380859 0.288219 -0.216203
v -0.380859 0.27988 -0.217619
v -0.380859 0.284094 -0.223583
v -0.380859 0.287052 -0.234117
v -0.380859 0.273163 -0.399798
v -0.380859 0.272293 -0.402245
v -0.380859 0.2694 -0.406487
v -0.380859 0.265257 -0.409502
v -0.380859 0.262866 -0.410432
v -0.380859 0.257794 -0.411005
v -0.380859 0.252819 -0.409824
v -0.380859 0.186139 -0.36618
v -0.380859 0.182305 -0.361145
v -0.380859 0.180283 -0.355134
v -0.380859 0.18025 -0.224433
v -0.380859 0.181981 -0.219086
v -0.380859 0.183447 -0.216686
v -0.380859 0.187399 -0.212714
v -0.380859 0.189786 -0.211241
v -0.380859 0.195103 -0.209498
v -0.380859 0.263952 -0.209393
v -0.380859 0.270976 -0.211346
v -0.380859 0.273913 -0.204581
v -0.380859 0.264958 -0.202086
v -0.380859 0.193921 -0.202223
v -0.380859 0.186424 -0.204683
v -0.380859 0.180048 -0.209345
v -0.380859 0.17748 -0.212366
v -0.380859 0.173904 -0.219419
v -0.380859 0.172981 -0.223275
v -0.380859 0.173029 -0.356345
v -0.380859 0.175815 -0.364605
v -0.380859 0.18109 -0.371532
v -0.380859 0.249921 -0.416598
v -0.380859 0.253554 -0.417801
v -0.380859 0.261169 -0.418265
v -0.380859 0.264927 -0.41751
v -0.380859 0.271786 -0.41414
v -0.380859 0.277114 -0.408647
v -0.380859 0.280285 -0.401678
v -0.380859 0.294415 -0.233598
v -0.382418 0.295303 -0.228669
v -0.381315 0.294855 -0.228749
v -0.381315 0.295516 -0.233528
v -0.382417 0.295974 -0.23351
v -0.379304 0.271647 -0.399419
v -0.380403 0.272091 -0.39953
v -0.380403 0.285952 -0.234189
v -0.379304 0.285496 -0.234219
v -0.405249 0.249412 -0.418247
v -0.399581 0.183861 -0.375491
v -0.401352 0.184293 -0.374918
v -0.407036 0.2497 -0.417609
v -0.382425 0.180033 -0.372668
v -0.382427 0.176941 -0.36923
v -0.399079 0.177174 -0.369138
v -0.399296 0.180261 -0.372588
v -0.382424 0.18364 -0.375555
v -0.382425 0.180033 -0.372668
v -0.399296 0.180261 -0.372588
v -0.399581 0.183861 -0.375491
v -0.380859 0.294415 -0.233598
v -0.380859 0.280285 -0.401678
v -0.381314 0.281352 -0.401963
v -0.381315 0.295516 -0.233528
v -0.382424 0.172429 -0.218927
v -0.381319 0.172854 -0.219074
v -0.381319 0.174433 -0.215247
v -0.382422 0.174036 -0.215034
v -0.416624 0.291358 -0.220266
v -0.414854 0.292048 -0.219887
v -0.414934 0.293991 -0.224373
v -0.416703 0.293257 -0.224657
v -0.382419 0.293982 -0.223965
v -0.381317 0.29355 -0.224106
v -0.381315 0.294855 -0.228749
v -0.382418 0.295303 -0.228669
v -0.379304 0.282709 -0.224301
v -0.379304 0.280917 -0.221355
v -0.338569 0.280917 -0.221355
v -0.338569 0.282709 -0.224301
v -0.381319 0.172854 -0.219074
v -0.382424 0.172429 -0.218927
v -0.382425 0.17145 -0.223022
v -0.381319 0.171891 -0.2231
v -0.379304 0.182394 -0.222167
v -0.379304 0.181795 -0.224664
v -0.338569 0.181795 -0.224664
v -0.33857 0.182394 -0.222167
v -0.380403 0.182965 -0.219585
v -0.379304 0.183373 -0.219792
v -0.379304 0.184711 -0.217601
v -0.380403 0.184341 -0.217332
v -0.380859 0.181981 -0.219086
v -0.380403 0.182965 -0.219585
v -0.380403 0.184341 -0.217332
v -0.380859 0.183447 -0.216686
v -0.33857 0.285021 -0.230795
v -0.33857 0.285496 -0.234219
v -0.379304 0.285496 -0.234219
v -0.379304 0.285021 -0.230795
v -0.338569 0.183373 -0.219792
v -0.338569 0.184711 -0.217601
v -0.379304 0.184711 -0.217601
v -0.379304 0.183373 -0.219792
v -0.379304 0.182394 -0.222167
v -0.380403 0.181959 -0.222026
v -0.380403 0.181342 -0.224597
v -0.379304 0.181795 -0.224664
v -0.381314 0.281352 -0.401963
v -0.380859 0.280285 -0.401678
v -0.380859 0.277114 -0.408647
v -0.381312 0.278025 -0.409274
v -0.381312 0.280003 -0.405761
v -0.38132 0.17194 -0.356522
v -0.382428 0.171499 -0.356589
v -0.382428 0.172618 -0.361082
v -0.38132 0.17304 -0.360942
v -0.380403 0.18328 -0.360629
v -0.379304 0.183685 -0.360414
v -0.379304 0.182532 -0.357731
v -0.380403 0.182098 -0.357878
v -0.380403 0.257862 -0.409902
v -0.379304 0.257889 -0.409445
v -0.379304 0.255624 -0.409112
v -0.380403 0.255519 -0.409557
v -0.380403 0.272091 -0.39953
v -0.379304 0.271647 -0.399419
v -0.379304 0.270871 -0.401597
v -0.380403 0.271288 -0.401787
v -0.404203 0.172398 -0.223004
v -0.405042 0.174085 -0.223271
v -0.401463 0.17413 -0.356076
v -0.400626 0.172443 -0.356354
v -0.379304 0.270357 -0.212778
v -0.380403 0.270538 -0.212358
v -0.380403 0.267238 -0.211191
v -0.379304 0.267117 -0.211632
v -0.379304 0.183685 -0.360414
v -0.379304 0.185257 -0.362871
v -0.338569 0.185257 -0.362871
v -0.338569 0.183685 -0.360414
v -0.381317 0.289122 -0.21557
v -0.381317 0.286081 -0.211836
v -0.380859 0.285273 -0.212586
v -0.380859 0.288219 -0.216203
v -0.380859 0.290646 -0.22019
v -0.381317 0.291627 -0.219686
v -0.380403 0.18328 -0.360629
v -0.380859 0.182305 -0.361145
v -0.380859 0.186139 -0.36618
v -0.380403 0.186892 -0.365372
v -0.380403 0.184893 -0.363147
v -0.380403 0.276511 -0.215982
v -0.379304 0.276223 -0.216336
v -0.379304 0.27874 -0.218684
v -0.380403 0.279075 -0.218372
v -0.338569 0.195339 -0.211043
v -0.338569 0.263749 -0.210939
v -0.379304 0.263749 -0.210939
v -0.379304 0.195339 -0.211043
v -0.379304 0.273411 -0.214356
v -0.380403 0.273648 -0.213965
v -0.380403 0.270538 -0.212358
v -0.379304 0.270357 -0.212778
v -0.379304 0.195339 -0.211043
v -0.380403 0.19527 -0.21059
v -0.380403 0.192717 -0.211211
v -0.379304 0.192859 -0.211644
v -0.382424 0.18364 -0.375555
v -0.381319 0.183897 -0.375188
v -0.381319 0.180336 -0.372338
v -0.382425 0.180033 -0.372668
v -0.414707 0.289516 -0.215705
v -0.414495 0.286443 -0.211908
v -0.382421 0.286417 -0.211535
v -0.382421 0.289498 -0.215318
v -0.38132 0.177294 -0.368957
v -0.382427 0.176941 -0.36923
v -0.382425 0.180033 -0.372668
v -0.381319 0.180336 -0.372338
v -0.338569 0.255624 -0.409112
v -0.338569 0.253452 -0.408395
v -0.379304 0.253452 -0.408393
v -0.379304 0.255624 -0.409112
v -0.338569 0.257889 -0.409446
v -0.338569 0.255624 -0.409112
v -0.379304 0.255624 -0.409112
v -0.379304 0.257889 -0.409445
v -0.414753 0.295986 -0.238814
v -0.382415 0.29598 -0.238398
v -0.382412 0.281796 -0.402092
v -0.408872 0.28183 -0.402437
v -0.380859 0.249921 -0.416598
v -0.381312 0.249489 -0.417614
v -0.381312 0.253302 -0.418875
v -0.380859 0.253554 -0.417801
v -0.380403 0.263809 -0.210486
v -0.379304 0.263749 -0.210939
v -0.379304 0.267117 -0.211632
v -0.380403 0.267238 -0.211191
v -0.379304 0.260178 -0.409385
v -0.380403 0.26023 -0.409839
v -0.380403 0.262555 -0.409371
v -0.379304 0.262426 -0.408932
v -0.38132 0.17484 -0.365124
v -0.382427 0.174448 -0.365334
v -0.382427 0.176941 -0.36923
v -0.38132 0.177294 -0.368957
v -0.380859 0.257794 -0.411005
v -0.380403 0.257862 -0.409902
v -0.380403 0.255519 -0.409557
v -0.380403 0.253266 -0.408813
v -0.380859 0.252819 -0.409824
v -0.379304 0.185257 -0.362871
v -0.379304 0.187204 -0.365037
v -0.338569 0.187204 -0.365037
v -0.338569 0.185257 -0.362871
v -0.382424 0.172429 -0.218927
v -0.382422 0.174036 -0.215034
v -0.402892 0.174282 -0.214926
v -0.402635 0.172678 -0.218813
v -0.409011 0.268923 -0.417162
v -0.407219 0.269248 -0.417824
v -0.406803 0.265434 -0.419291
v -0.408596 0.265231 -0.418592
v -0.380403 0.19029 -0.212223
v -0.379304 0.1905 -0.21263
v -0.379304 0.192859 -0.211644
v -0.380403 0.192717 -0.211211
v -0.33857 0.192859 -0.211644
v -0.338569 0.195339 -0.211043
v -0.379304 0.195339 -0.211043
v -0.379304 0.192859 -0.211644
v -0.338569 0.264567 -0.408099
v -0.338569 0.262426 -0.408932
v -0.379304 0.262426 -0.408932
v -0.379304 0.264567 -0.408099
v -0.380859 0.173029 -0.356345
v -0.38132 0.17194 -0.356522
v -0.38132 0.17304 -0.360942
v -0.38132 0.17484 -0.365124
v -0.380859 0.175815 -0.364605
v -0.380859 0.180283 -0.355134
v -0.380403 0.181375 -0.354965
v -0.380403 0.181342 -0.224597
v -0.380859 0.18025 -0.224433
v -0.380403 0.264769 -0.40851
v -0.379304 0.264567 -0.408099
v -0.379304 0.262426 -0.408932
v -0.380403 0.262555 -0.409371
v -0.380859 0.265257 -0.409502
v -0.380403 0.264769 -0.40851
v -0.380403 0.262555 -0.409371
v -0.380859 0.262866 -0.410432
v -0.379304 0.268279 -0.405399
v -0.380403 0.268606 -0.405719
v -0.380403 0.270115 -0.403869
v -0.379304 0.269737 -0.403611
v -0.382427 0.174448 -0.365334
v -0.38132 0.17484 -0.365124
v -0.38132 0.17304 -0.360942
v -0.382428 0.172618 -0.361082
v -0.33857 0.182394 -0.222167
v -0.338569 0.183373 -0.219792
v -0.379304 0.183373 -0.219792
v -0.379304 0.182394 -0.222167
v -0.381311 0.261294 -0.419361
v -0.380859 0.261169 -0.418265
v -0.380859 0.253554 -0.417801
v -0.381312 0.253302 -0.418875
v -0.381312 0.257277 -0.419465
v -0.403934 0.182379 -0.205419
v -0.40355 0.179193 -0.208146
v -0.382421 0.178956 -0.208233
v -0.382419 0.182148 -0.205494
v -0.407999 0.275851 -0.413045
v -0.408339 0.278443 -0.409874
v -0.382409 0.278403 -0.409544
v -0.382409 0.275805 -0.412725
v -0.414495 0.286443 -0.211908
v -0.416267 0.285882 -0.212457
v -0.415995 0.282405 -0.209181
v -0.414223 0.282886 -0.208565
v -0.338569 0.1905 -0.21263
v -0.33857 0.192859 -0.211644
v -0.379304 0.192859 -0.211644
v -0.379304 0.1905 -0.21263
v -0.379304 0.18832 -0.213974
v -0.379304 0.186375 -0.215645
v -0.338569 0.186375 -0.215645
v -0.33857 0.18832 -0.213974
v -0.382428 0.171499 -0.356589
v -0.382425 0.17145 -0.223022
v -0.402434 0.1717 -0.222905
v -0.398863 0.171742 -0.356475
v -0.415667 0.278517 -0.206409
v -0.413894 0.27891 -0.205739
v -0.414223 0.282886 -0.208565
v -0.415995 0.282405 -0.209181
v -0.408634 0.280456 -0.406302
v -0.410416 0.279745 -0.405998
v -0.410649 0.28107 -0.402258
v -0.408872 0.28183 -0.402437
v -0.382419 0.292035 -0.219488
v -0.382419 0.293982 -0.223965
v -0.414934 0.293991 -0.224373
v -0.414854 0.292048 -0.219887
v -0.406386 0.261423 -0.42008
v -0.408179 0.261349 -0.419364
v -0.408596 0.265231 -0.418592
v -0.406803 0.265434 -0.419291
v -0.405249 0.249412 -0.418247
v -0.407036 0.2497 -0.417609
v -0.407387 0.253467 -0.418866
v -0.405599 0.253293 -0.41955
v -0.414753 0.295986 -0.238814
v -0.414882 0.295978 -0.233925
v -0.382417 0.295974 -0.23351
v -0.382415 0.29598 -0.238398
v -0.381319 0.183897 -0.375188
v -0.382424 0.18364 -0.375555
v -0.38241 0.249313 -0.418041
v -0.381312 0.249489 -0.417614
v -0.38241 0.280419 -0.405965
v -0.382409 0.278403 -0.409544
v -0.408339 0.278443 -0.409874
v -0.408634 0.280456 -0.406302
v -0.408179 0.261349 -0.419364
v -0.407772 0.257388 -0.419457
v -0.408557 0.2575 -0.417698
v -0.409339 0.264736 -0.416871
v -0.408596 0.265231 -0.418592
v -0.403199 0.176472 -0.211341
v -0.404975 0.177057 -0.211748
v -0.404664 0.174919 -0.215235
v -0.402892 0.174282 -0.214926
v -0.398863 0.171742 -0.356475
v -0.39886 0.172858 -0.360974
v -0.382428 0.172618 -0.361082
v -0.382428 0.171499 -0.356589
v -0.338569 0.271647 -0.399419
v -0.338569 0.270871 -0.401597
v -0.379304 0.270871 -0.401597
v -0.379304 0.271647 -0.399419
v -0.379304 0.280917 -0.221355
v -0.380403 0.281289 -0.221093
v -0.380403 0.279075 -0.218372
v -0.379304 0.27874 -0.218684
v -0.380403 0.18805 -0.213605
v -0.380859 0.187399 -0.212714
v -0.380859 0.183447 -0.216686
v -0.380403 0.184341 -0.217332
v -0.380403 0.186051 -0.215322
v -0.38241 0.249313 -0.418041
v -0.382424 0.18364 -0.375555
v -0.399581 0.183861 -0.375491
v -0.405249 0.249412 -0.418247
v -0.415958 0.273576 -0.205854
v -0.415291 0.274291 -0.204194
v -0.415667 0.278517 -0.206409
v -0.415995 0.282405 -0.209181
v -0.416638 0.28126 -0.2106
v -0.381315 0.185925 -0.203699
v -0.382418 0.185727 -0.203288
v -0.382419 0.182148 -0.205494
v -0.381317 0.182406 -0.205868
v -0.408634 0.280456 -0.406302
v -0.408872 0.28183 -0.402437
v -0.382412 0.281796 -0.402092
v -0.38241 0.280419 -0.405965
v -0.382417 0.193687 -0.200679
v -0.382422 0.265171 -0.200549
v -0.412639 0.265242 -0.200829
v -0.4052 0.193897 -0.200652
v -0.400622 0.173532 -0.360744
v -0.39886 0.172858 -0.360974
v -0.398863 0.171742 -0.356475
v -0.400626 0.172443 -0.356354
v -0.382409 0.275805 -0.412725
v -0.382407 0.272703 -0.415415
v -0.407623 0.272755 -0.415721
v -0.407999 0.275851 -0.413045
v -0.400697 0.175315 -0.364901
v -0.398931 0.174685 -0.365232
v -0.39886 0.172858 -0.360974
v -0.400622 0.173532 -0.360744
v -0.381319 0.183897 -0.375188
v -0.381312 0.249489 -0.417614
v -0.380859 0.249921 -0.416598
v -0.380859 0.18109 -0.371532
v -0.381319 0.180336 -0.372338
v -0.416714 0.294546 -0.229263
v -0.414942 0.295309 -0.229082
v -0.414882 0.295978 -0.233925
v -0.416655 0.2952 -0.234002
v -0.41728 0.293365 -0.234135
v -0.417246 0.289732 -0.22112
v -0.416624 0.291358 -0.220266
v -0.416703 0.293257 -0.224657
v -0.416714 0.294546 -0.229263
v -0.416655 0.2952 -0.234002
v -0.382421 0.289498 -0.215318
v -0.382419 0.292035 -0.219488
v -0.414854 0.292048 -0.219887
v -0.414707 0.289516 -0.215705
v -0.404975 0.177057 -0.211748
v -0.403199 0.176472 -0.211341
v -0.40355 0.179193 -0.208146
v -0.405329 0.17971 -0.208641
v -0.379304 0.181795 -0.224664
v -0.379304 0.181827 -0.354894
v -0.338569 0.181827 -0.354894
v -0.338569 0.181795 -0.224664
v -0.404405 0.173353 -0.219018
v -0.402635 0.172678 -0.218813
v -0.402892 0.174282 -0.214926
v -0.404664 0.174919 -0.215235
v -0.380859 0.262866 -0.410432
v -0.380403 0.262555 -0.409371
v -0.380403 0.26023 -0.409839
v -0.380403 0.257862 -0.409902
v -0.380859 0.257794 -0.411005
v -0.382406 0.265366 -0.419018
v -0.381311 0.265236 -0.418569
v -0.381311 0.261294 -0.419361
v -0.382407 0.261348 -0.419825
v -0.380859 0.180048 -0.209345
v -0.381317 0.179268 -0.208562
v -0.381317 0.176589 -0.211715
v -0.380859 0.17748 -0.212366
v -0.411274 0.279283 -0.401793
v -0.41728 0.293365 -0.234135
v -0.416655 0.2952 -0.234002
v -0.410649 0.28107 -0.402258
v -0.414882 0.295978 -0.233925
v -0.414942 0.295309 -0.229082
v -0.382418 0.295303 -0.228669
v -0.382417 0.295974 -0.23351
v -0.381319 0.282562 -0.208551
v -0.382422 0.282853 -0.208208
v -0.382422 0.278868 -0.205398
v -0.381319 0.278628 -0.205779
v -0.414942 0.295309 -0.229082
v -0.416714 0.294546 -0.229263
v -0.416703 0.293257 -0.224657
v -0.414934 0.293991 -0.224373
v -0.405599 0.253293 -0.41955
v -0.407387 0.253467 -0.418866
v -0.407772 0.257388 -0.419457
v -0.405981 0.257337 -0.420167
v -0.399296 0.180261 -0.372588
v -0.401065 0.18076 -0.372074
v -0.401352 0.184293 -0.374918
v -0.399581 0.183861 -0.375491
v -0.382419 0.292035 -0.219488
v -0.381317 0.291627 -0.219686
v -0.381317 0.29355 -0.224106
v -0.382419 0.293982 -0.223965
v -0.382419 0.293982 -0.223965
v -0.382418 0.295303 -0.228669
v -0.414942 0.295309 -0.229082
v -0.414934 0.293991 -0.224373
v -0.381311 0.272434 -0.415035
v -0.382407 0.272703 -0.415415
v -0.382409 0.275805 -0.412725
v -0.381312 0.275476 -0.412395
v -0.380403 0.284517 -0.227313
v -0.379304 0.284086 -0.227468
v -0.379304 0.285021 -0.230795
v -0.380403 0.285469 -0.2307
v -0.338569 0.282709 -0.224301
v -0.338569 0.284086 -0.227468
v -0.379304 0.284086 -0.227468
v -0.379304 0.282709 -0.224301
v -0.33857 0.18832 -0.213974
v -0.338569 0.1905 -0.21263
v -0.379304 0.1905 -0.21263
v -0.379304 0.18832 -0.213974
v -0.401886 0.18195 -0.37082
v -0.407856 0.250392 -0.416013
v -0.407036 0.2497 -0.417609
v -0.401352 0.184293 -0.374918
v -0.401065 0.18076 -0.372074
v -0.379304 0.280917 -0.221355
v -0.379304 0.27874 -0.218684
v -0.338569 0.27874 -0.218684
v -0.338569 0.280917 -0.221355
v -0.380403 0.273648 -0.213965
v -0.379304 0.273411 -0.214356
v -0.379304 0.276223 -0.216336
v -0.380403 0.276511 -0.215982
v -0.382422 0.269944 -0.201533
v -0.381319 0.26982 -0.201965
v -0.381319 0.274354 -0.20357
v -0.382422 0.274539 -0.20316
v -0.380859 0.273163 -0.399798
v -0.380403 0.272091 -0.39953
v -0.380403 0.271288 -0.401787
v -0.380859 0.272293 -0.402245
v -0.380403 0.182098 -0.357878
v -0.380403 0.181375 -0.354965
v -0.380859 0.180283 -0.355134
v -0.380859 0.182305 -0.361145
v -0.380403 0.18328 -0.360629
v -0.380403 0.181959 -0.222026
v -0.379304 0.182394 -0.222167
v -0.379304 0.183373 -0.219792
v -0.380403 0.182965 -0.219585
v -0.416267 0.285882 -0.212457
v -0.414495 0.286443 -0.211908
v -0.414707 0.289516 -0.215705
v -0.416477 0.288885 -0.216174
v -0.338569 0.183685 -0.360414
v -0.338569 0.182532 -0.357731
v -0.379304 0.182532 -0.357731
v -0.379304 0.183685 -0.360414
v -0.404405 0.173353 -0.219018
v -0.404664 0.174919 -0.215235
v -0.405488 0.176452 -0.216015
v -0.405042 0.174085 -0.223271
v -0.404203 0.172398 -0.223004
v -0.38132 0.177294 -0.368957
v -0.381319 0.180336 -0.372338
v -0.380859 0.18109 -0.371532
v -0.380859 0.175815 -0.364605
v -0.38132 0.17484 -0.365124
v -0.382418 0.185727 -0.203288
v -0.381315 0.185925 -0.203699
v -0.381315 0.189738 -0.202106
v -0.382417 0.189606 -0.201669
v -0.381317 0.291627 -0.219686
v -0.382419 0.292035 -0.219488
v -0.382421 0.289498 -0.215318
v -0.381317 0.289122 -0.21557
v -0.41487 0.269806 -0.202574
v -0.413094 0.270004 -0.201834
v -0.413516 0.27459 -0.203481
v -0.415291 0.274291 -0.204194
v -0.382407 0.26919 -0.417534
v -0.382406 0.265366 -0.419018
v -0.406803 0.265434 -0.419291
v -0.407219 0.269248 -0.417824
v -0.379304 0.185257 -0.362871
v -0.380403 0.184893 -0.363147
v -0.380403 0.186892 -0.365372
v -0.379304 0.187204 -0.365037
v -0.381312 0.253302 -0.418875
v -0.382409 0.253201 -0.419328
v -0.382407 0.257253 -0.419928
v -0.381312 0.257277 -0.419465
v -0.381319 0.265107 -0.200994
v -0.381315 0.19375 -0.201132
v -0.380859 0.193921 -0.202223
v -0.380859 0.264958 -0.202086
v -0.413094 0.270004 -0.201834
v -0.41487 0.269806 -0.202574
v -0.414416 0.265144 -0.201582
v -0.412639 0.265242 -0.200829
v -0.405981 0.257337 -0.420167
v -0.407772 0.257388 -0.419457
v -0.408179 0.261349 -0.419364
v -0.406386 0.261423 -0.42008
v -0.405599 0.253293 -0.41955
v -0.405981 0.257337 -0.420167
v -0.382407 0.257253 -0.419928
v -0.382409 0.253201 -0.419328
v -0.382417 0.193687 -0.200679
v -0.381315 0.19375 -0.201132
v -0.381319 0.265107 -0.200994
v -0.382422 0.265171 -0.200549
v -0.379304 0.183685 -0.360414
v -0.380403 0.18328 -0.360629
v -0.380403 0.184893 -0.363147
v -0.379304 0.185257 -0.362871
v -0.381319 0.278628 -0.205779
v -0.382422 0.278868 -0.205398
v -0.382422 0.274539 -0.20316
v -0.381319 0.274354 -0.20357
v -0.379304 0.271647 -0.399419
v -0.379304 0.285496 -0.234219
v -0.33857 0.285496 -0.234219
v -0.338569 0.271647 -0.399419
v -0.380403 0.181959 -0.222026
v -0.380403 0.182965 -0.219585
v -0.380859 0.181981 -0.219086
v -0.380859 0.18025 -0.224433
v -0.380403 0.181342 -0.224597
v -0.380859 0.288219 -0.216203
v -0.380859 0.285273 -0.212586
v -0.380859 0.273913 -0.204581
v -0.380859 0.270976 -0.211346
v -0.380859 0.27988 -0.217619
v -0.380403 0.19527 -0.21059
v -0.380403 0.263809 -0.210486
v -0.380859 0.263952 -0.209393
v -0.380859 0.195103 -0.209498
v -0.380403 0.255519 -0.409557
v -0.379304 0.255624 -0.409112
v -0.379304 0.253452 -0.408393
v -0.380403 0.253266 -0.408813
v -0.380859 0.273913 -0.204581
v -0.381319 0.274354 -0.20357
v -0.381319 0.26982 -0.201965
v -0.381319 0.265107 -0.200994
v -0.380859 0.264958 -0.202086
v -0.382421 0.286417 -0.211535
v -0.381317 0.286081 -0.211836
v -0.381317 0.289122 -0.21557
v -0.382421 0.289498 -0.215318
v -0.379304 0.270357 -0.212778
v -0.379304 0.267117 -0.211632
v -0.338569 0.267117 -0.211632
v -0.338569 0.270357 -0.212778
v -0.379304 0.273411 -0.214356
v -0.379304 0.270357 -0.212778
v -0.338569 0.270357 -0.212778
v -0.338569 0.273411 -0.214356
v -0.338569 0.284086 -0.227468
v -0.33857 0.285021 -0.230795
v -0.379304 0.285021 -0.230795
v -0.379304 0.284086 -0.227468
v -0.338569 0.276223 -0.216336
v -0.338569 0.27874 -0.218684
v -0.379304 0.27874 -0.218684
v -0.379304 0.276223 -0.216336
v -0.415115 0.264901 -0.203357
v -0.414416 0.265144 -0.201582
v -0.41487 0.269806 -0.202574
v -0.415291 0.274291 -0.204194
v -0.415958 0.273576 -0.205854
v -0.382417 0.189606 -0.201669
v -0.381315 0.189738 -0.202106
v -0.381315 0.19375 -0.201132
v -0.382417 0.193687 -0.200679
v -0.380859 0.285273 -0.212586
v -0.381317 0.286081 -0.211836
v -0.381319 0.282562 -0.208551
v -0.381319 0.278628 -0.205779
v -0.381319 0.274354 -0.20357
v -0.380859 0.273913 -0.204581
v -0.407387 0.253467 -0.418866
v -0.407036 0.2497 -0.417609
v -0.407856 0.250392 -0.416013
v -0.408557 0.2575 -0.417698
v -0.407772 0.257388 -0.419457
v -0.380403 0.270115 -0.403869
v -0.380403 0.268606 -0.405719
v -0.380859 0.2694 -0.406487
v -0.380859 0.272293 -0.402245
v -0.380403 0.271288 -0.401787
v -0.381319 0.171891 -0.2231
v -0.380859 0.172981 -0.223275
v -0.380859 0.173904 -0.219419
v -0.381319 0.172854 -0.219074
v -0.382427 0.176941 -0.36923
v -0.382427 0.174448 -0.365334
v -0.398931 0.174685 -0.365232
v -0.399079 0.177174 -0.369138
v -0.401886 0.18195 -0.37082
v -0.401065 0.18076 -0.372074
v -0.400845 0.177747 -0.368711
v -0.400697 0.175315 -0.364901
v -0.401531 0.17683 -0.364097
v -0.382407 0.272703 -0.415415
v -0.381311 0.272434 -0.415035
v -0.381311 0.268986 -0.417113
v -0.382407 0.26919 -0.417534
v -0.414854 0.292048 -0.219887
v -0.416624 0.291358 -0.220266
v -0.416477 0.288885 -0.216174
v -0.414707 0.289516 -0.215705
v -0.410124 0.277804 -0.409454
v -0.408339 0.278443 -0.409874
v -0.407999 0.275851 -0.413045
v -0.409787 0.275302 -0.412524
v -0.380403 0.267238 -0.211191
v -0.380403 0.270538 -0.212358
v -0.380859 0.270976 -0.211346
v -0.380859 0.263952 -0.209393
v -0.380403 0.263809 -0.210486
v -0.39886 0.172858 -0.360974
v -0.398931 0.174685 -0.365232
v -0.382427 0.174448 -0.365334
v -0.382428 0.172618 -0.361082
v -0.406554 0.190066 -0.202319
v -0.404769 0.189823 -0.201626
v -0.4052 0.193897 -0.200652
v -0.406985 0.194029 -0.201381
v -0.406891 0.187098 -0.205433
v -0.406129 0.186297 -0.203868
v -0.406554 0.190066 -0.202319
v -0.406985 0.194029 -0.201381
v -0.407708 0.194314 -0.203139
v -0.382419 0.182148 -0.205494
v -0.382418 0.185727 -0.203288
v -0.404345 0.185952 -0.203228
v -0.403934 0.182379 -0.205419
v -0.413094 0.270004 -0.201834
v -0.412639 0.265242 -0.200829
v -0.382422 0.265171 -0.200549
v -0.382422 0.269944 -0.201533
v -0.379304 0.260178 -0.409385
v -0.379304 0.262426 -0.408932
v -0.338569 0.262426 -0.408932
v -0.338569 0.260178 -0.409385
v -0.379304 0.257889 -0.409445
v -0.380403 0.257862 -0.409902
v -0.380403 0.26023 -0.409839
v -0.379304 0.260178 -0.409385
v -0.380403 0.283116 -0.224091
v -0.380859 0.284094 -0.223583
v -0.380859 0.27988 -0.217619
v -0.380403 0.279075 -0.218372
v -0.380403 0.281289 -0.221093
v -0.380859 0.187399 -0.212714
v -0.380403 0.18805 -0.213605
v -0.380403 0.19029 -0.212223
v -0.380859 0.189786 -0.211241
v -0.379304 0.266538 -0.40691
v -0.379304 0.268279 -0.405399
v -0.338569 0.268278 -0.405399
v -0.338569 0.266538 -0.40691
v -0.401065 0.18076 -0.372074
v -0.399296 0.180261 -0.372588
v -0.399079 0.177174 -0.369138
v -0.400845 0.177747 -0.368711
v -0.407623 0.272755 -0.415721
v -0.409412 0.272313 -0.415119
v -0.409787 0.275302 -0.412524
v -0.407999 0.275851 -0.413045
v -0.382406 0.265366 -0.419018
v -0.382407 0.261348 -0.419825
v -0.406386 0.261423 -0.42008
v -0.406803 0.265434 -0.419291
v -0.382407 0.261348 -0.419825
v -0.382407 0.257253 -0.419928
v -0.405981 0.257337 -0.420167
v -0.406386 0.261423 -0.42008
v -0.380403 0.186892 -0.365372
v -0.380859 0.186139 -0.36618
v -0.380859 0.252819 -0.409824
v -0.380403 0.253266 -0.408813
v -0.379304 0.268279 -0.405399
v -0.379304 0.269737 -0.403611
v -0.338569 0.269737 -0.403611
v -0.338569 0.268278 -0.405399
v -0.379304 0.282709 -0.224301
v -0.380403 0.283116 -0.224091
v -0.380403 0.281289 -0.221093
v -0.379304 0.280917 -0.221355
v -0.410109 0.271251 -0.413648
v -0.409412 0.272313 -0.415119
v -0.409011 0.268923 -0.417162
v -0.408596 0.265231 -0.418592
v -0.409339 0.264736 -0.416871
v -0.380403 0.285952 -0.234189
v -0.380403 0.272091 -0.39953
v -0.380859 0.273163 -0.399798
v -0.380859 0.287052 -0.234117
v -0.382422 0.269944 -0.201533
v -0.382422 0.274539 -0.20316
v -0.413516 0.27459 -0.203481
v -0.413094 0.270004 -0.201834
v -0.382415 0.29598 -0.238398
v -0.382417 0.295974 -0.23351
v -0.381315 0.295516 -0.233528
v -0.381314 0.281352 -0.401963
v -0.382412 0.281796 -0.402092
v -0.380403 0.266806 -0.40728
v -0.379304 0.266538 -0.40691
v -0.379304 0.264567 -0.408099
v -0.380403 0.264769 -0.40851
v -0.415291 0.274291 -0.204194
v -0.413516 0.27459 -0.203481
v -0.413894 0.27891 -0.205739
v -0.415667 0.278517 -0.206409
v -0.382412 0.281796 -0.402092
v -0.381314 0.281352 -0.401963
v -0.381312 0.280003 -0.405761
v -0.38241 0.280419 -0.405965
v -0.380403 0.271288 -0.401787
v -0.379304 0.270871 -0.401597
v -0.379304 0.269737 -0.403611
v -0.380403 0.270115 -0.403869
v -0.407219 0.269248 -0.417824
v -0.409011 0.268923 -0.417162
v -0.409412 0.272313 -0.415119
v -0.407623 0.272755 -0.415721
v -0.403934 0.182379 -0.205419
v -0.405716 0.182817 -0.205992
v -0.405329 0.17971 -0.208641
v -0.40355 0.179193 -0.208146
vn -0.9366 0.2133 -0.2778
vn -0.9362 0.215 -0.2781
vn -0.9315 0.1647 -0.3244
vn -0.9315 0.1645 -0.3244
vn -0.9319 0.1633 -0.3238
vn 0.3726 -0.9249 -0.0754
vn 0.3749 -0.9243 0.0722
vn 0.3735 -0.9248 0.0727
vn 0.372 -0.9252 -0.0752
vn 0.3838 0.9146 0.127
vn 0.3828 0.9151 0.1267
vn 0.3834 0.9148 0.1268
vn 0.3839 0.9146 0.127
vn -0 -0.7618 0.6479
vn -0 -0.7618 0.6479
vn -0 -0.7618 0.6479
vn -0 -0.7618 0.6479
vn 0.3766 0.1869 0.9073
vn 0.377 0.1868 0.9072
vn 0.3766 0.1869 0.9073
vn 0.3766 0.1869 0.9073
vn 0.3822 -0.9223 0.0575
vn 0.3833 -0.9219 0.0571
vn 0.383 -0.9218 -0.0606
vn 0.3825 -0.922 -0.0603
vn -0.3749 -0.5154 0.7706
vn -0.3762 -0.5148 0.7704
vn -0.3756 -0.5151 0.7705
vn -0.3745 -0.5157 0.7706
vn -0.0076 0.6841 0.7294
vn -0.008 0.6824 0.7309
vn -0.0078 0.6831 0.7303
vn -0.0075 0.6847 0.7288
vn -0 -0.4908 -0.8713
vn -0 -0.6139 -0.7894
vn -0 -0.6139 -0.7894
vn -0 -0.4907 -0.8713
vn 0.3828 -0.8966 -0.2227
vn 0.3828 -0.8966 -0.2227
vn 0.3828 -0.8966 -0.2227
vn 0.3825 -0.8967 -0.2226
vn -0 -0.9705 -0.2412
vn -0 -0.9705 -0.2412
vn -0 -0.9705 -0.2412
vn -0 -0.9705 -0.2412
vn 0.3822 -0.4541 -0.8048
vn 0.3839 -0.4531 -0.8046
vn 0.3828 -0.5671 -0.7293
vn 0.3828 -0.5671 -0.7293
vn -0 0.5757 0.8177
vn -0 0.5757 0.8177
vn -0 0.5757 0.8177
vn -0 0.5757 0.8177
vn -0.9445 0.2861 -0.1613
vn -0.944 0.2878 -0.161
vn -0.9406 0.256 -0.223
vn -0.9406 0.2559 -0.223
vn -0.9409 0.2548 -0.223
vn 0.0074 -0.3153 -0.949
vn 0.0078 -0.3178 -0.9481
vn 0.0076 -0.3169 -0.9484
vn 0.0072 -0.3143 -0.9493
vn -0.0086 0.4616 0.8871
vn -0.009 0.4593 0.8882
vn -0.0088 0.4602 0.8878
vn -0.0084 0.4625 0.8866
vn -0.0006 -0.2333 0.9724
vn -0.001 -0.2357 0.9718
vn -0.0008 -0.2347 0.9721
vn -0.0004 -0.2325 0.9726
vn -0.9448 0.2266 0.2365
vn -0.9462 0.2607 0.1916
vn -0.9462 0.2608 0.1917
vn -0.946 0.2612 0.1922
vn -0.9426 0.1869 0.2769
vn -0.9428 0.1865 0.2761
vn 0.3823 -0.0594 0.9221
vn 0.3835 -0.0599 0.9216
vn 0.3829 0.0519 0.9223
vn 0.3829 0.0519 0.9223
vn 0.3829 0.6053 -0.6978
vn 0.3829 0.6053 -0.6978
vn 0.3829 0.6053 -0.6978
vn 0.3829 0.6053 -0.6978
vn -0.0075 -0.8536 0.5208
vn -0.0075 -0.8536 0.5208
vn -0.0075 -0.8536 0.5208
vn -0.0075 -0.8536 0.5208
vn -0.9941 -0.1048 -0.029
vn -0.9947 -0.1018 -0.0127
vn -0.9952 -0.0974 -0.0123
vn -0.9956 -0.0924 -0.0134
vn -0.9961 -0.0864 -0.0187
vn -0.9962 -0.0834 -0.0264
vn -0.9947 -0.0992 -0.0284
vn -0.9944 -0.1014 -0.0292
vn -0.9942 -0.1038 -0.0291
vn -0.9941 -0.1051 -0.0273
vn -0.9942 -0.1049 -0.0253
vn -0.9944 -0.1033 -0.0241
vn -0.9957 -0.0917 -0.0154
vn -0.9959 -0.0879 -0.0196
vn -0.996 -0.0858 -0.0252
vn -0.9951 -0.0952 -0.0285
vn -0.9948 -0.0975 -0.0308
vn -0.9944 -0.101 -0.0316
vn -0.9942 -0.1032 -0.0312
vn -0.0107 -0.9726 0.2323
vn -0.0106 -0.9725 0.2327
vn -0.0107 -0.9725 0.2326
vn -0.0107 -0.9726 0.2323
vn -0.3692 -0.9078 0.1989
vn -0.3692 -0.9078 0.1989
vn -0.3692 -0.9078 0.1989
vn -0.3692 -0.9078 0.1989
vn 0.9238 0.3685 0.1036
vn 0.9237 0.3796 0.0526
vn 0.9237 0.3796 0.0525
vn 0.9236 0.3797 0.0526
vn 0.9237 0.3513 0.1527
vn 0.9237 0.3513 0.1527
vn 0.3873 -0.2898 -0.8752
vn 0.3882 -0.2894 -0.875
vn 0.3876 -0.2897 -0.8751
vn 0.3871 -0.2899 -0.8753
vn 0.3914 0.3331 -0.8578
vn 0.3917 0.3331 -0.8577
vn 0.3914 0.3331 -0.8578
vn 0.3914 0.3331 -0.8578
vn 0.3772 0.6319 0.6771
vn 0.3772 0.6319 0.6771
vn 0.3772 0.6319 0.6771
vn 0.3772 0.6319 0.6771
vn 0.925 0.0748 -0.3725
vn 0.925 0.0748 -0.3725
vn 0.925 0.0748 -0.3725
vn 0.925 0.0748 -0.3725
vn 0.9238 -0.0905 0.372
vn 0.9238 -0.0905 0.372
vn 0.9238 -0.0905 0.372
vn 0.9239 -0.1473 0.3532
vn 0.9239 -0.1473 0.3532
vn 0.3781 -0.7053 0.5997
vn 0.3791 -0.7052 0.5991
vn 0.3784 -0.7053 0.5995
vn 0.3778 -0.7054 0.5998
vn 0.9249 0.2492 -0.2871
vn 0.9252 0.249 -0.2863
vn 0.9248 0.2948 -0.2407
vn 0.9249 0.2946 -0.2405
vn 0.9249 0.2946 -0.2404
vn -0.9246 -0.1244 0.36
vn -0.9246 -0.1244 0.3601
vn -0.9259 -0.0672 0.3718
vn -0.9251 -0.0678 0.3737
vn 0.3893 0.0234 -0.9208
vn 0.3902 0.0235 -0.9204
vn 0.3901 0.0237 -0.9205
vn 0.3893 0.0233 -0.9208
vn -0.4017 0.9157 -0.0092
vn -0.4017 0.9157 -0.0092
vn -0.4005 0.9117 -0.0912
vn -0.4012 0.8998 -0.1716
vn -0.4021 0.8993 -0.172
vn -0.0058 -0.7617 0.6479
vn -0.0058 -0.7617 0.6479
vn -0.0058 -0.7617 0.6479
vn -0.0058 -0.7617 0.6479
vn -0.9005 -0.4022 0.1653
vn -0.9014 -0.4003 0.1651
vn -0.9042 -0.3702 0.2132
vn -0.9041 -0.3704 0.2132
vn -0.9036 -0.3714 0.2135
vn 0.9237 -0.1474 0.3535
vn 0.9238 -0.0903 0.372
vn 0.9238 -0.0903 0.3721
vn 0.9239 -0.1475 0.3531
vn 0.9238 -0.1475 0.3532
vn 0.3834 0.847 0.3683
vn 0.3834 0.847 0.3683
vn 0.3834 0.847 0.3683
vn 0.3834 0.847 0.3683
vn 0.3776 -0.7905 0.4822
vn 0.3776 -0.7905 0.4822
vn 0.3776 -0.7905 0.4822
vn 0.3776 -0.7905 0.4822
vn 0.0113 0.5159 -0.8566
vn 0.0112 0.5165 -0.8562
vn 0.0113 0.5162 -0.8564
vn 0.0114 0.5154 -0.8569
vn 0.9231 -0.3284 0.2002
vn 0.9233 -0.3281 0.1998
vn 0.9229 -0.3558 0.1469
vn 0.9231 -0.3555 0.1466
vn 0.9231 -0.3554 0.1465
vn -0.0082 0.578 0.816
vn -0.0086 0.5762 0.8173
vn -0.0084 0.5768 0.8169
vn -0.0081 0.5788 0.8154
vn 0.9238 0.2206 0.313
vn 0.9239 0.2609 0.2799
vn 0.9238 0.2611 0.28
vn 0.9238 0.2612 0.28
vn 0.9238 0.1758 0.3401
vn 0.9238 0.1757 0.3401
vn 0.9235 -0.2014 0.3265
vn 0.9237 -0.2013 0.3259
vn 0.9234 -0.2501 0.2913
vn 0.9236 -0.2499 0.2909
vn 0.9236 -0.2498 0.2908
vn -0.3785 -0.3884 0.8402
vn -0.3771 -0.3891 0.8405
vn -0.3775 -0.3889 0.8404
vn -0.379 -0.3881 0.8401
vn -0.8981 -0.4098 -0.1597
vn -0.8981 -0.4097 -0.1596
vn -0.8975 -0.4279 -0.1071
vn -0.8976 -0.4277 -0.1069
vn -0.8976 -0.4276 -0.1068
vn 0.9225 -0.3848 0.0301
vn 0.923 -0.3837 0.0297
vn 0.9224 -0.385 -0.0314
vn 0.9224 -0.385 -0.0314
vn -0 0.0265 -0.9996
vn -0 0.0262 -0.9997
vn -0 0.0265 -0.9996
vn -0 0.0265 -0.9996
vn -0.9069 -0.3338 0.2572
vn -0.908 -0.3316 0.2562
vn -0.9115 -0.2876 0.2941
vn -0.9113 -0.2879 0.2943
vn -0.9105 -0.2894 0.2953
vn -0 0.2016 0.9795
vn -0 0.2016 0.9795
vn -0 0.2016 0.9795
vn -0 0.2016 0.9795
vn -0 0.5167 -0.8562
vn -0 0.5167 -0.8562
vn -0 0.5167 -0.8562
vn -0 0.5167 -0.8562
vn -0.0016 -0.3834 0.9236
vn -0.002 -0.3851 0.9229
vn -0.0018 -0.3842 0.9232
vn -0.0014 -0.3824 0.924
vn -0.3938 0.7869 -0.4752
vn -0.3949 0.7861 -0.4756
vn -0.3947 0.7862 -0.4755
vn -0.3936 0.7869 -0.4752
vn -0 0.8714 -0.4905
vn -0 0.8714 -0.4905
vn -0 0.8714 -0.4905
vn -0 0.8714 -0.4905
vn -0.3735 -0.7886 -0.4885
vn -0.3735 -0.7886 -0.4885
vn -0.3735 -0.7886 -0.4885
vn -0.3738 -0.7885 -0.4883
vn 0.9234 0.3519 0.1531
vn 0.9238 0.3792 0.0525
vn 0.9238 0.3792 0.0525
vn 0.9238 0.3685 0.1039
vn 0.9233 0.3521 0.1532
vn 0.9233 0.3522 0.1533
vn 0.3893 0.7135 -0.5826
vn 0.389 0.7135 -0.5827
vn 0.3893 0.7135 -0.5826
vn 0.3897 0.7134 -0.5824
vn 0.3831 -0.7036 0.5985
vn 0.3831 -0.7036 0.5985
vn 0.3831 -0.7036 0.5985
vn 0.3831 -0.7036 0.5985
vn 0.3831 -0.4849 0.7862
vn 0.3831 -0.4849 0.7862
vn 0.3828 -0.4849 0.7864
vn 0.3834 -0.485 0.786
vn 0.3829 -0.6019 0.7008
vn 0.3829 -0.6019 0.7008
vn 0.3829 -0.6019 0.7008
vn 0.3829 -0.6019 0.7008
vn 0.9252 0.1959 -0.3249
vn 0.9253 0.1959 -0.3248
vn 0.925 0.1376 -0.3542
vn 0.925 0.1376 -0.3542
vn 0.925 0.196 -0.3254
vn -0.3854 -0.1091 0.9163
vn -0.3828 -0.1103 0.9172
vn -0.3912 0.0268 0.9199
vn -0.3912 0.0267 0.9199
vn 0.3791 -0.6027 0.7022
vn 0.3791 -0.6027 0.7022
vn 0.3791 -0.6027 0.7022
vn 0.3791 -0.6027 0.7022
vn 0.3881 0.8031 -0.4522
vn 0.3881 0.8031 -0.4522
vn 0.3881 0.8031 -0.4522
vn 0.3881 0.8031 -0.4522
vn 0.9237 0.198 -0.3279
vn 0.9238 0.198 -0.3276
vn 0.9239 0.198 -0.3275
vn 0.9238 0.2509 -0.2893
vn 0.9238 0.2509 -0.2893
vn -0.3691 -0.9274 0.0603
vn -0.3727 -0.9244 -0.0817
vn -0.3727 -0.9244 -0.0817
vn -0.3692 -0.9274 0.0604
vn 1 -0 -0
vn 1 -0 -0
vn 1 -0 -0
vn 1 -0 -0
vn 1 -0 -0
vn 1 -0 -0
vn 1 -0 -0
vn 1 -0 -0
vn 1 -0 -0
vn 1 -0 -0
vn 1 -0 -0
vn 1 -0 -0
vn 1 -0 -0
vn 1 -0 -0
vn 1 -0 -0
vn 1 -0 -0
vn 1 -0 -0
vn 1 -0 -0
vn 1 -0 -0
vn 1 -0 -0
vn 1 -0 -0
vn 1 -0 -0
vn 1 -0 -0
vn 1 -0 -0
vn 1 -0 -0
vn 1 -0 -0
vn 1 -0 -0
vn 1 -0 -0
vn 1 -0 -0
vn 1 -0 -0
vn 1 -0 -0
vn 1 -0 -0
vn 1 -0 -0
vn 1 -0 -0
vn 1 -0 -0
vn 1 -0 -0
vn 1 -0 -0
vn 1 -0 -0
vn 1 -0 -0
vn 1 -0 -0
vn 1 -0 -0
vn 1 -0 -0
vn 0.3825 0.9152 0.1269
vn 0.3817 0.9155 0.1267
vn 0.382 0.9154 0.1268
vn 0.3823 0.9153 0.1269
vn 0.3828 0.9136 -0.1371
vn 0.3828 0.9136 -0.1371
vn 0.383 0.9237 -0.0059
vn 0.3829 0.9238 -0.006
vn -0.363 -0.4678 -0.8059
vn -0.3664 -0.5338 -0.7621
vn -0.3753 -0.5326 -0.7586
vn -0.363 -0.4678 -0.8058
vn -0.0135 -0.745 -0.6669
vn -0.014 -0.7435 -0.6686
vn -0.0139 -0.7441 -0.668
vn -0.0132 -0.7455 -0.6664
vn -0.0112 -0.6274 -0.7786
vn -0.0121 -0.6248 -0.7807
vn -0.0118 -0.6257 -0.78
vn -0.011 -0.6282 -0.778
vn 0.9239 0.3826 0.0007
vn 0.9242 0.3765 -0.0646
vn 0.9241 0.3766 -0.0646
vn 0.9239 0.3826 0.0007
vn 0.3762 -0.8565 0.3534
vn 0.3762 -0.8565 0.3534
vn 0.3758 -0.8565 0.3537
vn 0.3765 -0.8564 0.3533
vn -0.4054 0.8363 0.3692
vn -0.4051 0.8363 0.3693
vn -0.4058 0.8362 0.3689
vn -0.4054 0.8363 0.3692
vn 0.3805 0.8902 0.2503
vn 0.3805 0.8902 0.2503
vn 0.3805 0.8902 0.2503
vn 0.3805 0.8902 0.2503
vn -0 0.8543 0.5198
vn -0 0.8543 0.5198
vn -0 0.8543 0.5198
vn -0 0.8543 0.5198
vn 0.3747 -0.9017 0.2156
vn 0.3747 -0.9017 0.2156
vn 0.3747 -0.9017 0.2156
vn 0.3747 -0.9017 0.2156
vn -0 -0.9725 0.233
vn -0 -0.9725 0.233
vn -0 -0.9725 0.233
vn -0 -0.9725 0.233
vn 0.3832 -0.7884 0.4813
vn 0.3832 -0.7884 0.4813
vn 0.3832 -0.7884 0.4813
vn 0.3832 -0.7884 0.4813
vn 0.9238 -0.3268 0.1996
vn 0.9238 -0.3268 0.1996
vn 0.9238 -0.3268 0.1996
vn 0.9238 -0.3268 0.1996
vn -0 0.9905 0.1375
vn -0 0.9905 0.1375
vn -0 0.9905 0.1375
vn -0 0.9905 0.1375
vn -0 -0.8535 0.5211
vn -0 -0.8535 0.5211
vn -0 -0.8535 0.5211
vn -0 -0.8535 0.5211
vn 0.3831 -0.8983 0.2153
vn 0.3831 -0.8983 0.2153
vn 0.3831 -0.8983 0.2153
vn 0.3831 -0.8983 0.2153
vn 0.9246 0.3591 -0.1273
vn 0.9243 0.3597 -0.1277
vn 0.9248 0.3315 -0.1867
vn 0.9248 0.3315 -0.1867
vn 0.9247 0.3589 -0.1271
vn 0.3714 -0.901 -0.2243
vn 0.3717 -0.9008 -0.2243
vn 0.3714 -0.901 -0.2243
vn 0.3709 -0.9012 -0.2242
vn 0.3835 -0.8485 -0.3646
vn 0.3835 -0.8485 -0.3646
vn 0.3835 -0.8485 -0.3646
vn 0.3835 -0.8485 -0.3646
vn 0.3833 -0.1344 -0.9138
vn 0.3836 -0.1343 -0.9137
vn 0.3833 -0.1344 -0.9138
vn 0.3833 -0.1344 -0.9138
vn 0.3832 0.8702 -0.3096
vn 0.3827 0.8703 -0.3099
vn 0.3829 0.8703 -0.3098
vn 0.3836 0.8702 -0.3094
vn -0.8961 -0.4438 0.0042
vn -0.8954 -0.4452 0.0036
vn -0.898 -0.4368 -0.0517
vn -0.898 -0.4369 -0.0517
vn 0.3834 0.308 0.8707
vn 0.3834 0.308 0.8707
vn 0.3834 0.308 0.8707
vn 0.3834 0.308 0.8707
vn -0 -0.8423 -0.5389
vn -0 -0.8423 -0.5389
vn -0 -0.8423 -0.5389
vn -0 -0.8423 -0.5389
vn 0.9233 0.2978 0.2425
vn 0.9234 0.2976 0.2425
vn 0.9234 0.2976 0.2424
vn 0.9234 0.3279 0.1996
vn 0.9233 0.328 0.1996
vn 0.9233 0.328 0.1997
vn 0.9237 -0.3227 -0.2064
vn 0.9237 -0.3228 -0.2064
vn 0.9238 -0.2847 -0.2559
vn 0.9238 -0.2847 -0.2559
vn 0.9239 -0.3223 -0.2063
vn 0.383 0.63 0.6756
vn 0.383 0.63 0.6756
vn 0.383 0.63 0.6756
vn 0.383 0.63 0.6756
vn -0 -0.0648 0.9979
vn -0 0.0561 0.9984
vn -0 0.0561 0.9984
vn -0 -0.0648 0.9979
vn 0.3835 0.4239 0.8205
vn 0.3835 0.4239 0.8205
vn 0.3835 0.4239 0.8205
vn 0.3835 0.4239 0.8205
vn 0.3829 -0.2181 0.8977
vn 0.3833 -0.2182 0.8975
vn 0.3829 -0.2181 0.8977
vn 0.3829 -0.2181 0.8977
vn 0.3744 -0.5795 -0.7239
vn 0.375 -0.5793 -0.7238
vn 0.3747 -0.5794 -0.7238
vn 0.3743 -0.5796 -0.7239
vn -0.0069 0.7762 0.6305
vn -0.0067 0.777 0.6295
vn -0.0068 0.7765 0.63
vn -0.0071 0.7754 0.6315
vn 0.3735 -0.6897 -0.6203
vn 0.3728 -0.6901 -0.6204
vn 0.3732 -0.6899 -0.6203
vn 0.3736 -0.6896 -0.6203
vn -0 -0.3138 -0.9495
vn -0 -0.3138 -0.9495
vn -0 -0.3138 -0.9495
vn -0 -0.3141 -0.9494
vn -0 -0.1458 -0.9893
vn -0 -0.1458 -0.9893
vn -0 -0.1458 -0.9893
vn -0 -0.1458 -0.9893
vn 0.0019 0.9965 -0.0841
vn 0.0013 0.9964 -0.0842
vn 0.0035 0.9856 -0.169
vn 0.0034 0.9857 -0.1687
vn 0.9246 -0.1197 -0.3617
vn 0.9246 -0.1197 -0.3617
vn 0.9246 -0.1197 -0.3617
vn 0.9246 -0.1197 -0.3617
vn 0.3832 0.1861 0.9047
vn 0.3832 0.1861 0.9047
vn 0.3832 0.1861 0.9047
vn 0.3832 0.1861 0.9047
vn 0.3832 0.1823 -0.9055
vn 0.3832 0.1823 -0.9055
vn 0.3832 0.1823 -0.9055
vn 0.3832 0.1823 -0.9055
vn 0.3719 -0.7818 -0.5005
vn 0.3715 -0.782 -0.5005
vn 0.3719 -0.7818 -0.5005
vn 0.3722 -0.7817 -0.5005
vn 0.9238 -0.0558 -0.3788
vn 0.9238 -0.0558 -0.3787
vn 0.9237 -0.1201 -0.3637
vn 0.9238 -0.12 -0.3636
vn 0.9238 -0.12 -0.3636
vn -0 -0.7437 -0.6685
vn -0 -0.7437 -0.6685
vn -0 -0.7437 -0.6685
vn -0 -0.7437 -0.6685
vn -0.0092 -0.9245 0.3812
vn -0.0091 -0.9243 0.3815
vn -0.0092 -0.9245 0.3812
vn -0.0092 -0.9246 0.3809
vn -0.3762 0.2973 -0.8775
vn -0.3774 0.2964 -0.8773
vn -0.377 0.2967 -0.8774
vn -0.3758 0.2976 -0.8776
vn 0.3827 -0.3559 0.8526
vn 0.3832 -0.356 0.8523
vn 0.3827 -0.3559 0.8526
vn 0.3824 -0.3558 0.8527
vn -0 -0.2358 0.9718
vn -0 -0.2358 0.9718
vn -0 -0.2358 0.9718
vn -0 -0.2358 0.9718
vn -0 0.3625 -0.932
vn -0 0.3625 -0.932
vn -0 0.3625 -0.932
vn -0 0.3625 -0.932
vn 0.9224 -0.3749 -0.0932
vn 0.9224 -0.3749 -0.0932
vn 0.9224 -0.3548 -0.1527
vn 0.9225 -0.3545 -0.1526
vn 0.9225 -0.3544 -0.1526
vn 0.9238 -0.382 -0.0251
vn 0.9239 -0.3819 -0.0251
vn 0.9238 -0.3821 0.0238
vn 0.9238 -0.3822 0.0238
vn 0.3834 0.3348 -0.8608
vn 0.3834 0.3348 -0.8608
vn 0.3834 0.3348 -0.8608
vn 0.3834 0.3348 -0.8608
vn 0.9239 0.1387 -0.3567
vn 0.9239 0.1387 -0.3567
vn 0.9239 0.1387 -0.3567
vn 0.9239 0.1387 -0.3567
vn 0.3828 0.7159 -0.5839
vn 0.3824 0.7159 -0.5842
vn 0.3828 0.7159 -0.5839
vn 0.3832 0.7159 -0.5836
vn 0.3709 -0.853 -0.3671
vn 0.3709 -0.853 -0.3671
vn 0.3709 -0.853 -0.3671
vn 0.3706 -0.8532 -0.367
vn -0 -0.9244 0.3813
vn -0 -0.9244 0.3813
vn -0 -0.9244 0.3813
vn -0 -0.9244 0.3813
vn 0.9248 0.0096 -0.3802
vn 0.925 0.0097 -0.3798
vn 0.9246 -0.0559 -0.3768
vn 0.9246 -0.0559 -0.3769
vn 0.9247 0.0094 -0.3805
vn -0.0043 -0.6509 0.7592
vn -0.0043 -0.6509 0.7592
vn -0.0043 -0.6509 0.7592
vn -0.0043 -0.6509 0.7592
vn 0.0093 0.7746 -0.6324
vn 0.0093 0.7746 -0.6324
vn 0.0093 0.7746 -0.6324
vn 0.0093 0.7746 -0.6324
vn -0.4034 0.6102 0.6818
vn -0.4044 0.6103 0.6812
vn -0.4041 0.6102 0.6814
vn -0.4028 0.6103 0.6821
vn -0 -0.3854 0.9227
vn -0 -0.3854 0.9227
vn -0 -0.3854 0.9227
vn -0 -0.3854 0.9227
vn -0 -0.6516 0.7586
vn -0 -0.6516 0.7586
vn -0 -0.6516 0.7586
vn -0 -0.6516 0.7586
vn -0.0152 -0.9966 -0.0809
vn -0.012 -0.9969 0.0784
vn -0.0121 -0.9969 0.0782
vn -0.0153 -0.9966 -0.0812
vn -0.4023 0.5085 0.7613
vn -0.4008 0.5085 0.7621
vn -0.4013 0.5084 0.7619
vn -0.4026 0.5086 0.7611
vn -0.399 0.856 -0.3287
vn -0.3978 0.8567 -0.3283
vn -0.3982 0.8565 -0.3284
vn -0.3991 0.8559 -0.3288
vn -0.0046 0.9173 0.3981
vn -0.0047 0.9171 0.3987
vn -0.0047 0.9172 0.3984
vn -0.0045 0.9176 0.3976
vn -0.3731 0.1418 -0.9169
vn -0.372 0.1426 -0.9172
vn -0.3724 0.1423 -0.9171
vn -0.3734 0.1415 -0.9168
vn -0.365 -0.3257 -0.8722
vn -0.3639 -0.3252 -0.8728
vn -0.3642 -0.3253 -0.8727
vn -0.3653 -0.3258 -0.872
vn 0.0001 1 0.0014
vn 0.0001 1 0.0014
vn 0.0001 1 0.0014
vn 0.0001 1 0.0014
vn 0.3822 -0.5054 -0.7736
vn 0.3756 -0.507 -0.7758
vn 0.3856 -0.4364 -0.8129
vn 0.3862 -0.4361 -0.8128
vn 0.0076 0.8713 -0.4906
vn 0.0076 0.8713 -0.4906
vn 0.0076 0.8713 -0.4906
vn 0.0076 0.8713 -0.4906
vn -0.9111 -0.084 -0.4036
vn -0.9112 -0.0843 -0.4032
vn -0.912 -0.0855 -0.4012
vn -0.9166 -0.0198 -0.3993
vn -0.916 -0.0187 -0.4007
vn -0.3707 -0.8063 0.461
vn -0.3707 -0.8063 0.461
vn -0.3707 -0.8063 0.461
vn -0.3704 -0.8065 0.4609
vn -0.0159 -0.9703 -0.2412
vn -0.0158 -0.9704 -0.2409
vn -0.0159 -0.9703 -0.2412
vn -0.016 -0.9703 -0.2415
vn -0 0.9421 -0.3354
vn -0 0.9421 -0.3354
vn -0 0.9421 -0.3354
vn -0 0.9421 -0.3354
vn 0.383 0.7162 0.5834
vn 0.3818 0.7169 0.5833
vn 0.3822 0.7167 0.5833
vn 0.3833 0.7161 0.5834
vn 0.9238 -0.2494 0.2905
vn 0.9238 -0.2494 0.2905
vn 0.9238 -0.2917 0.2481
vn 0.9238 -0.2917 0.2482
vn 0.9239 -0.2494 0.2903
vn 0.0056 -0.4752 -0.8799
vn -0.0102 -0.5506 -0.8347
vn -0.0102 -0.5506 -0.8347
vn 0.0058 -0.476 -0.8794
vn -0.9365 0.0932 0.3381
vn -0.937 0.093 0.3366
vn -0.9399 0.142 0.3105
vn -0.9399 0.142 0.3106
vn -0.9398 0.142 0.3107
vn 0.3805 -0.4854 0.7872
vn 0.3805 -0.4854 0.7872
vn 0.3805 -0.4854 0.7872
vn 0.3805 -0.4854 0.7872
vn 0.0056 0.9423 -0.3348
vn 0.0056 0.9424 -0.3345
vn 0.0057 0.9421 -0.3352
vn 0.0056 0.9423 -0.3348
vn 0.0003 -0.0776 0.997
vn -0.0091 0.0665 0.9977
vn -0.009 0.0675 0.9977
vn 0.0005 -0.0766 0.9971
vn -0.3731 -0.9004 -0.2237
vn -0.3731 -0.9004 -0.2237
vn -0.3731 -0.9004 -0.2237
vn -0.3731 -0.9004 -0.2237
vn 0.0105 0.6551 -0.7555
vn 0.0106 0.6548 -0.7557
vn 0.0106 0.6548 -0.7557
vn 0.0107 0.6545 -0.756
vn -0.3728 -0.855 -0.3605
vn -0.3726 -0.8551 -0.3606
vn -0.3732 -0.8549 -0.3603
vn -0.3737 -0.8549 -0.36
vn 0.9228 -0.2107 -0.3225
vn 0.9243 -0.1806 -0.3362
vn 0.9245 -0.1803 -0.3357
vn 0.9229 -0.2406 -0.3006
vn 0.9229 -0.2406 -0.3006
vn -0.4034 0.9071 0.1203
vn -0.4034 0.9071 0.1203
vn -0.4034 0.9071 0.1203
vn -0.4034 0.9071 0.1203
vn -0.947 0.3197 0.0323
vn -0.947 0.2881 0.1417
vn -0.947 0.2881 0.1418
vn -0.9474 0.3075 0.0882
vn -0.9469 0.32 0.0325
vn -0.9469 0.3198 0.0324
vn -0.0058 0.855 0.5186
vn -0.006 0.8544 0.5196
vn -0.0059 0.8546 0.5193
vn -0.0058 0.8552 0.5183
vn -0.3722 -0.7261 0.5781
vn -0.3716 -0.7266 0.5779
vn -0.3721 -0.7263 0.578
vn -0.3718 -0.7264 0.578
vn -0 -0.998 0.0625
vn -0 -0.9979 -0.0653
vn -0 -0.9979 -0.0653
vn -0 -0.998 0.0625
vn -0.3697 -0.8672 0.3335
vn -0.3697 -0.8672 0.3335
vn -0.37 -0.8671 0.3336
vn -0.37 -0.8671 0.3336
vn 0.9239 0.0755 -0.3752
vn 0.9239 0.0755 -0.3752
vn 0.9239 0.0102 -0.3825
vn 0.9238 0.0101 -0.3827
vn 0.9238 0.0101 -0.3827
vn 0.3908 0.1812 -0.9025
vn 0.3912 0.1813 -0.9023
vn 0.3908 0.1812 -0.9025
vn 0.3908 0.1812 -0.9025
vn 0.9234 -0.2924 0.2485
vn 0.9236 -0.2922 0.2482
vn 0.9234 -0.2924 0.2485
vn 0.9234 -0.2924 0.2485
vn -0.9472 0.3062 -0.0948
vn -0.9457 0.3241 -0.0244
vn -0.9459 0.3235 -0.0246
vn -0.9472 0.3063 -0.0948
vn -0.0016 0.9906 0.137
vn -0.0016 0.9906 0.137
vn -0.0016 0.9906 0.137
vn -0.0016 0.9906 0.137
vn 0.3768 0.5336 0.7572
vn 0.3764 0.5338 0.7572
vn 0.3764 0.5338 0.7572
vn 0.3772 0.5334 0.7571
vn -0.4046 0.8804 0.2473
vn -0.4046 0.8804 0.2473
vn -0.4046 0.8804 0.2473
vn -0.4046 0.8804 0.2473
vn -0.3668 -0.1739 -0.9139
vn -0.3668 -0.1739 -0.9139
vn -0.3668 -0.1739 -0.9139
vn -0.3668 -0.1739 -0.9139
vn -0.375 -0.5997 -0.7069
vn -0.375 -0.5997 -0.7069
vn -0.375 -0.5997 -0.7069
vn -0.375 -0.5997 -0.7069
vn 0.3799 0.8483 0.3689
vn 0.3799 0.8483 0.3689
vn 0.3799 0.8483 0.3689
vn 0.3799 0.8483 0.3689
vn -0.0032 0.9628 0.2701
vn -0.0033 0.9627 0.2705
vn -0.0033 0.9628 0.2704
vn -0.0031 0.9629 0.2697
vn 0.3897 0.6037 -0.6955
vn 0.3888 0.6037 -0.696
vn 0.3891 0.6037 -0.6958
vn 0.3899 0.6036 -0.6954
vn 0.3837 0.889 0.2499
vn 0.3837 0.889 0.2499
vn 0.3837 0.889 0.2499
vn 0.384 0.8889 0.2499
vn -0 0.917 0.3988
vn -0 0.917 0.3988
vn -0 0.917 0.3988
vn -0 0.917 0.3988
vn -0 -0.5249 0.8512
vn -0 -0.5249 0.8512
vn -0 -0.5249 0.8512
vn -0 -0.5249 0.8512
vn -0.9028 -0.3124 -0.2955
vn -0.8996 -0.2671 -0.3455
vn -0.8992 -0.267 -0.3466
vn -0.9022 -0.3127 -0.2971
vn -0.9023 -0.3126 -0.2968
vn -0 0.7753 0.6316
vn -0 0.7753 0.6316
vn -0 0.7753 0.6316
vn -0 0.7753 0.6316
vn 0.383 0.5319 0.7552
vn 0.383 0.5319 0.7552
vn 0.383 0.5319 0.7552
vn 0.383 0.5319 0.7552
vn 0.3762 0.3093 0.8734
vn 0.3766 0.3091 0.8733
vn 0.3762 0.3093 0.8734
vn 0.3758 0.3094 0.8735
vn 0.9238 0.3607 -0.1282
vn 0.9238 0.3607 -0.1282
vn 0.9238 0.3607 -0.1282
vn 0.9238 0.3607 -0.1282
vn 0.9239 -0.3715 -0.0922
vn 0.9239 -0.3715 -0.0922
vn 0.9239 -0.3715 -0.0922
vn 0.9237 -0.3519 -0.1512
vn 0.9237 -0.352 -0.1512
vn 0.3831 -0.8539 0.3522
vn 0.3831 -0.8539 0.3522
vn 0.3831 -0.8539 0.3522
vn 0.3831 -0.8539 0.3522
vn -0.4052 0.6997 0.5885
vn -0.4041 0.6998 0.589
vn -0.4045 0.6998 0.5888
vn -0.4057 0.6996 0.5882
vn -0 -0.9187 -0.3949
vn -0 -0.9187 -0.3949
vn -0 -0.9187 -0.3949
vn -0 -0.9187 -0.3949
vn -0.8992 -0.4227 0.1133
vn -0.899 -0.4231 0.1132
vn -0.8981 -0.4249 0.1131
vn -0.8967 -0.4387 0.059
vn -0.8974 -0.4373 0.0592
vn 0.9225 -0.2871 -0.2579
vn 0.9226 -0.2868 -0.2578
vn 0.9228 -0.2864 -0.2576
vn 0.9225 -0.325 -0.2081
vn 0.9226 -0.325 -0.2081
vn 0.3814 -0.3562 0.853
vn 0.382 -0.3563 0.8527
vn 0.3814 -0.3562 0.853
vn 0.381 -0.3562 0.8532
vn 0.3792 0.7905 0.481
vn 0.3789 0.7906 0.481
vn 0.3792 0.7905 0.481
vn 0.3795 0.7903 0.481
vn -0.3972 0.2784 0.8745
vn -0.3955 0.278 0.8754
vn -0.3961 0.2782 0.8751
vn -0.3978 0.2785 0.8742
vn 0.0116 0.3603 -0.9328
vn 0.0114 0.3618 -0.9322
vn 0.0114 0.3614 -0.9323
vn 0.0117 0.3601 -0.9329
vn 0.3828 -0.6871 -0.6176
vn 0.3828 -0.6871 -0.6176
vn 0.3828 -0.6871 -0.6176
vn 0.3828 -0.6871 -0.6176
vn 0.3888 -0.1351 -0.9113
vn 0.3888 -0.1351 -0.9113
vn 0.3888 -0.1351 -0.9113
vn 0.3888 -0.1351 -0.9113
vn 0.9228 0.0256 0.3844
vn 0.9239 -0.0309 0.3815
vn 0.9239 -0.0309 0.3815
vn 0.923 0.0255 0.384
vn -0.3931 0.1539 0.9065
vn -0.3945 0.1542 0.9059
vn -0.3939 0.1541 0.9061
vn -0.3926 0.1538 0.9067
vn -0.3698 -0.0166 -0.929
vn -0.3688 -0.0161 -0.9294
vn -0.3694 -0.0165 -0.9291
vn -0.3699 -0.0168 -0.9289
vn 0.0091 -0.1475 -0.989
vn 0.0095 -0.1498 -0.9887
vn 0.0093 -0.1486 -0.9888
vn 0.0089 -0.1466 -0.9892
vn 0.3824 -0.0744 0.921
vn 0.3831 -0.0745 0.9207
vn 0.3766 0.0616 0.9243
vn 0.3766 0.0615 0.9243
vn 0.3833 -0.7779 -0.4979
vn 0.3833 -0.7779 -0.4979
vn 0.3833 -0.7779 -0.4979
vn 0.3828 -0.7782 -0.4979
vn 0.3764 0.4255 0.823
vn 0.3764 0.4255 0.823
vn 0.3764 0.4255 0.823
vn 0.3764 0.4255 0.823
vn -0 0.9889 -0.1483
vn -0 1 -0.0065
vn -0 1 -0.0065
vn -0 0.9889 -0.1483
vn 0.9238 -0.354 0.146
vn 0.9238 -0.354 0.146
vn 0.9238 -0.354 0.146
vn 0.9238 -0.3724 0.0893
vn 0.9238 -0.3724 0.0893
vn 1 -0 -0
vn 1 -0 -0
vn 1 -0 -0
vn 1 -0 -0
vn 1 -0 -0
vn 0.9238 -0.0246 0.382
vn 0.9239 0.0214 0.3819
vn 0.9237 0.0216 0.3824
vn 0.9238 -0.0246 0.382
vn 0.3835 -0.2898 -0.8769
vn 0.3832 -0.29 -0.877
vn 0.3835 -0.2898 -0.8769
vn 0.3835 -0.2898 -0.8769
vn 0.9229 0.1284 0.3629
vn 0.9229 0.1285 0.363
vn 0.9229 0.0777 0.3771
vn 0.9228 0.0778 0.3773
vn 0.9228 0.0778 0.3773
vn 0.3782 0.7178 0.5846
vn 0.3782 0.7178 0.5846
vn 0.3782 0.7178 0.5846
vn 0.3782 0.7178 0.5846
vn -0 0.3335 0.9428
vn -0 0.3335 0.9428
vn -0 0.3335 0.9428
vn -0 0.3335 0.9428
vn -0 0.459 0.8884
vn -0 0.459 0.8884
vn -0 0.459 0.8884
vn -0 0.459 0.8884
vn -0 0.9627 0.2704
vn -0 0.9627 0.2704
vn -0 0.9627 0.2704
vn -0 0.9627 0.2704
vn -0 0.6821 0.7313
vn -0 0.6821 0.7313
vn -0 0.6821 0.7313
vn -0 0.6821 0.7313
vn -0.9292 -0.0127 0.3693
vn -0.9298 -0.0124 0.3679
vn -0.9334 0.0413 0.3564
vn -0.9334 0.0413 0.3565
vn -0.9331 0.0413 0.3573
vn 0.3821 -0.2179 0.8981
vn 0.3821 -0.2179 0.8981
vn 0.3821 -0.2179 0.8981
vn 0.3821 -0.2179 0.8981
vn 0.9233 0.2619 0.281
vn 0.9233 0.2618 0.2809
vn 0.9231 0.2215 0.3144
vn 0.923 0.1768 0.3419
vn 0.923 0.1768 0.3419
vn 0.923 0.1768 0.3419
vn -0.9027 -0.2095 -0.3759
vn -0.9028 -0.2096 -0.3754
vn -0.9035 -0.21 -0.3735
vn -0.9074 -0.1493 -0.3929
vn -0.9067 -0.1487 -0.3947
vn 0.9237 0.2969 -0.2422
vn 0.9238 0.2968 -0.242
vn 0.9238 0.2967 -0.2419
vn 0.9238 0.3336 -0.188
vn 0.9238 0.3336 -0.188
vn 0.923 -0.3741 0.0895
vn 0.923 -0.3741 0.0895
vn 0.923 -0.3741 0.0895
vn 0.923 -0.3741 0.0895
vn -0.015 -0.843 -0.5376
vn -0.0154 -0.8422 -0.5389
vn -0.0152 -0.8426 -0.5384
vn -0.0147 -0.8435 -0.5369
vn -0.9007 -0.3513 -0.2555
vn -0.9003 -0.3517 -0.2565
vn -0.8989 -0.3844 -0.2103
vn -0.8991 -0.3842 -0.21
vn -0.8993 -0.3839 -0.2095
vn 0.3908 0.4754 -0.7882
vn 0.3895 0.4753 -0.7889
vn 0.39 0.4753 -0.7887
vn 0.3912 0.4754 -0.788
vn -0.4058 0.7756 0.4835
vn -0.406 0.7756 0.4834
vn -0.4058 0.7756 0.4835
vn -0.405 0.7757 0.484
vn -0.3896 0.6925 -0.6072
vn -0.3904 0.6919 -0.6074
vn -0.3904 0.6919 -0.6074
vn -0.3894 0.6926 -0.6072
vn 0.9237 0.1277 0.3611
vn 0.9238 0.1276 0.3609
vn 0.9238 0.1275 0.3609
vn 0.9237 0.0771 0.3752
vn 0.9237 0.0771 0.3752
vn -0.0159 -0.9185 -0.395
vn -0.0156 -0.919 -0.3939
vn -0.0157 -0.9188 -0.3943
vn -0.016 -0.9185 -0.3952
vn -0.3813 -0.2521 0.8894
vn -0.3799 -0.2528 0.8898
vn -0.3802 -0.2526 0.8897
vn -0.3818 -0.2518 0.8893
vn -0.9148 -0.2385 0.3261
vn -0.9157 -0.2369 0.3247
vn -0.9199 -0.1821 0.3474
vn -0.9197 -0.1823 0.3477
vn -0.9193 -0.183 0.3484
vn -0.0027 -0.5235 0.852
vn -0.0031 -0.5249 0.8512
vn -0.0029 -0.5242 0.8516
vn -0.0026 -0.5231 0.8523
vn -0.009 0.203 0.9791
vn -0.0086 0.2056 0.9786
vn -0.0088 0.2044 0.9788
vn -0.0092 0.202 0.9793
vn -0 0.1975 -0.9803
vn -0 0.1975 -0.9803
vn -0 0.1975 -0.9803
vn -0 0.1975 -0.9803
vn 0.3832 0.0244 -0.9233
vn 0.3835 0.0245 -0.9232
vn 0.3832 0.0244 -0.9233
vn 0.3832 0.0244 -0.9233
vn 0.924 0.3267 0.199
vn 0.9238 0.3272 0.1991
vn 0.9238 0.2969 0.2416
vn 0.9238 0.297 0.2417
vn 0.924 0.3266 0.199
vn 0.9238 -0.201 0.3258
vn 0.9238 -0.201 0.3258
vn 0.9238 -0.201 0.3258
vn 0.9238 -0.201 0.3258
vn -0 0.6554 -0.7553
vn -0 0.6554 -0.7553
vn -0 0.6554 -0.7553
vn -0 0.6554 -0.7553
vn -0.3744 -0.7026 -0.6051
vn -0.3744 -0.7026 -0.6051
vn -0.3744 -0.7026 -0.6051
vn -0.3744 -0.7026 -0.6051
vn -0.3862 0.576 -0.7205
vn -0.3848 0.577 -0.7204
vn -0.3851 0.5768 -0.7204
vn -0.3866 0.5757 -0.7205
vn 0.0113 0.195 -0.9807
vn 0.0111 0.1968 -0.9804
vn 0.0111 0.1961 -0.9805
vn 0.0115 0.1942 -0.9809
vn 0.0105 0.0232 -0.9997
vn 0.0102 0.0252 -0.9996
vn 0.0104 0.0243 -0.9997
vn 0.0107 0.0223 -0.9997
vn 0.9238 -0.235 -0.3022
vn 0.9238 -0.235 -0.3022
vn 0.9239 -0.1881 -0.3333
vn 0.9238 -0.1883 -0.3334
vn -0 0.7748 -0.6322
vn -0 0.7748 -0.6322
vn -0 0.7748 -0.6322
vn -0 0.7748 -0.6322
vn 0.3823 0.7893 0.4805
vn 0.3832 0.7888 0.4805
vn 0.3826 0.7891 0.4805
vn 0.3819 0.7895 0.4804
vn -0.927 0.1059 -0.3597
vn -0.9263 0.1081 -0.361
vn -0.9214 0.0458 -0.386
vn -0.9215 0.0455 -0.3858
vn -0.9218 0.0446 -0.385
vn 0.9237 0.3832 -0.0025
vn 0.9238 0.3786 -0.0568
vn 0.9238 0.3786 -0.0568
vn 0.9237 0.3832 -0.0024
vn -0.0088 0.3364 0.9417
vn -0.0092 0.3339 0.9426
vn -0.009 0.335 0.9422
vn -0.0086 0.3373 0.9413
vn 0.382 0.9241 0.0012
vn 0.3824 0.924 0.0014
vn 0.3838 0.9234 0.0017
vn 0.3854 0.9095 -0.156
vn 0.3861 0.9092 -0.1557
vn 0.3833 0.4773 -0.7907
vn 0.3833 0.4773 -0.7907
vn 0.383 0.4773 -0.7909
vn 0.3833 0.4773 -0.7907
vn -0.4 0.3973 0.8259
vn -0.3988 0.3971 0.8266
vn -0.3991 0.3972 0.8264
vn -0.4003 0.3973 0.8258
vn 0.3865 0.869 -0.3088
vn 0.3875 0.8688 -0.3083
vn 0.3869 0.8689 -0.3086
vn 0.3863 0.8691 -0.3088
vn 0.3834 0.8048 -0.4532
vn 0.3834 0.8048 -0.4532
vn 0.3834 0.8048 -0.4532
vn 0.3834 0.8048 -0.4532
vn -0.3818 0.4427 -0.8113
vn -0.3802 0.444 -0.8114
vn -0.3805 0.4437 -0.8114
vn -0.382 0.4426 -0.8113
vn -0.3733 -0.6286 0.6823
vn -0.3737 -0.6284 0.6822
vn -0.3737 -0.6284 0.6823
vn -0.3729 -0.6289 0.6823
vt 0 0
vt 0 0
vt 0 0
vt 0 0
vt 0 0
vt 0 0
vt 0 0
vt 0 0
vt 0 0
vt 0 0
vt 0 0
vt 0 0
vt 0 0
vt 0 0
vt 0 0
vt 0 0
vt 0 0
vt 0 0
vt 0 0
vt 0 0
vt 0 0
vt 0 0
vt 0 0
vt 0 0
vt 0 0
vt 0 0
vt 0 0
vt 0 0
vt 0 0
vt 0 0
vt 0 0
vt 0 0
vt 0 0
vt 0 0
vt 0 0
vt 0 0
vt 0 0
vt 0 0
vt 0 0
vt 0 0
vt 0 0
vt 0 0
vt 0 0
vt 0 0
vt 0 0
vt 0 0
vt 0 0
vt 0 0
vt 0 0
vt 0 0
vt 0 0
vt 0 0
vt 0 0
vt 0 0
vt 0 0
vt 0 0
vt 0 0
vt 0 0
vt 0 0
vt 0 0
vt 0 0
vt 0 0
vt 0 0
vt 0 0
vt 0 0
vt 0 0
vt 0 0
vt 0 0
vt 0 0
vt 0 0
vt 0 0
vt 0 0
vt 0 0
vt 0 0
vt 0 0
vt 0 0
vt 0 0
vt 0 0
vt 0 0
vt 0 0
vt 0 0
vt 0 0
vt 0 0
vt 0 0
vt 0 0
vt 0 0
vt 0 0
vt 0 0
vt 0 0
vt 0 0
vt 0 0
vt 0 0
vt 0 0
vt 0 0
vt 0 0
vt 0 0
vt 0 0
vt 0 0
vt 0 0
vt 0 0
vt 0 0
vt 0 0
vt 0 0
vt 0 0
vt 0 0
vt 0 0
vt 0 0
vt 0 0
vt 0 0
vt 0 0
vt 0 0
vt 0 0
vt 0 0
vt 0 0
vt 0 0
vt 0 0
vt 0 0
vt 0 0
vt 0 0
vt 0 0
vt 0 0
vt 0 0
vt 0 0
vt 0 0
vt 0 0
vt 0 0
vt 0 0
vt 0 0
vt 0 0
vt 0 0
vt 0 0
vt 0 0
vt 0 0
vt 0 0
vt 0 0
vt 0 0
vt 0 0
vt 0 0
vt 0 0
vt 0 0
vt 0 0
vt 0 0
vt 0 0
vt 0 0
vt 0 0
vt 0 0
vt 0 0
vt 0 0
vt 0 0
vt 0 0
vt 0 0
vt 0 0
vt 0 0
vt 0 0
vt 0 0
vt 0 0
vt 0 0
vt 0 0
vt 0 0
vt 0 0
vt 0 0
vt 0 0
vt 0 0
vt 0 0
vt 0 0
vt 0 0
vt 0 0
vt 0 0
vt 0 0
vt 0 0
vt 0 0
vt 0 0
vt 0 0
vt 0 0
vt 0 0
vt 0 0
vt 0 0
vt 0 0
vt 0 0
vt 0 0
vt 0 0
vt 0 0
vt 0 0
vt 0 0
vt 0 0
vt 0 0
vt 0 0
vt 0 0
vt 0 0
vt 0 0
vt 0 0
vt 0 0
vt 0 0
vt 0 0
vt 0 0
vt 0 0
vt 0 0
vt 0 0
vt 0 0
vt 0 0
vt 0 0
vt 0 0
vt 0 0
vt 0 0
vt 0 0
vt 0 0
vt 0 0
vt 0 0
vt 0 0
vt 0 0
vt 0 0
vt 0 0
vt 0 0
vt 0 0
vt 0 0
vt 0 0
vt 0 0
vt 0 0
vt 0 0
vt 0 0
vt 0 0
vt 0 0
vt 0 0
vt 0 0
vt 0 0
vt 0 0
vt 0 0
vt 0 0
vt 0 0
vt 0 0
vt 0 0
vt 0 0
vt 0 0
vt 0 0
vt 0 0
vt 0 0
vt 0 0
vt 0 0
vt 0 0
vt 0 0
vt 0 0
vt 0 0
vt 0 0
vt 0 0
vt 0 0
vt 0 0
vt 0 0
vt 0 0
vt 0 0
vt 0 0
vt 0 0
vt 0 0
vt 0 0
vt 0 0
vt 0 0
vt 0 0
vt 0 0
vt 0 0
vt 0 0
vt 0 0
vt 0 0
vt 0 0
vt 0 0
vt 0 0
vt 0 0
vt 0 0
vt 0 0
vt 0 0
vt 0 0
vt 0 0
vt 0 0
vt 0 0
vt 0 0
vt 0 0
vt 0 0
vt 0 0
vt 0 0
vt 0 0
vt 0 0
vt 0 0
vt 0 0
vt 0 0
vt 0 0
vt 0 0
vt 0 0
vt 0 0
vt 0 0
vt 0 0
vt 0 0
vt 0 0
vt 0 0
vt 0 0
vt 0 0
vt 0 0
vt 0 0
vt 0 0
vt 0 0
vt 0 0
vt 0 0
vt 0 0
vt 0 0
vt 0 0
vt 0 0
vt 0 0
vt 0 0
vt 0 0
vt 0 0
vt 0 0
vt 0 0
vt 0 0
vt 0 0
vt 0 0
vt 0 0
vt 0 0
vt 0 0
vt 0 0
vt 0 0
vt 0 0
vt 0 0
vt 0 0
vt 0 0
vt 0 0
vt 0 0
vt 0 0
vt 0 0
vt 0 0
vt 0 0
vt 0 0
vt 0 0
vt 0 0
vt 0 0
vt 0 0
vt 0 0
vt 0 0
vt 0 0
vt 0 0
vt 0 0
vt 0 0
vt 0 0
vt 0 0
vt 0 0
vt 0 0
vt 0 0
vt 0 0
vt 0 0
vt 0 0
vt 0 0
vt 0 0
vt 0 0
vt 0 0
vt 0 0
vt 0 0
vt 0 0
vt 0 0
vt 0 0
vt 0 0
vt 0 0
vt 0 0
vt 0 0
vt 0 0
vt 0 0
vt 0 0
vt 0 0
vt 0 0
vt 0 0
vt 0 0
vt 0 0
vt 0 0
vt 0 0
vt 0 0
vt 0 0
vt 0 0
vt 0 0
vt 0 0
vt 0 0
vt 0 0
vt 0 0
vt 0 0
vt 0 0
vt 0 0
vt 0 0
vt 0 0
vt 0 0
vt 0 0
vt 0 0
vt 0 0
vt 0 0
vt 0 0
vt 0 0
vt 0 0
vt 0 0
vt 0 0
vt 0 0
vt 0 0
vt 0 0
vt 0 0
vt 0 0
vt 0 0
vt 0 0
vt 0 0
vt 0 0
vt 0 0
vt 0 0
vt 0 0
vt 0 0
vt 0 0
vt 0 0
vt 0 0
vt 0 0
vt 0 0
vt 0 0
vt 0 0
vt 0 0
vt 0 0
vt 0 0
vt 0 0
vt 0 0
vt 0 0
vt 0 0
vt 0 0
vt 0 0
vt 0 0
vt 0 0
vt 0 0
vt 0 0
vt 0 0
vt 0 0
vt 0 0
vt 0 0
vt 0 0
vt 0 0
vt 0 0
vt 0 0
vt 0 0
vt 0 0
vt 0 0
vt 0 0
vt 0 0
vt 0 0
vt 0 0
vt 0 0
vt 0 0
vt 0 0
vt 0 0
vt 0 0
vt 0 0
vt 0 0
vt 0 0
vt 0 0
vt 0 0
vt 0 0
vt 0 0
vt 0 0
vt 0 0
vt 0 0
vt 0 0
vt 0 0
vt 0 0
vt 0 0
vt 0 0
vt 0 0
vt 0 0
vt 0 0
vt 0 0
vt 0 0
vt 0 0
vt 0 0
vt 0 0
vt 0 0
vt 0 0
vt 0 0
vt 0 0
vt 0 0
vt 0 0
vt 0 0
vt 0 0
vt 0 0
vt 0 0
vt 0 0
vt 0 0
vt 0 0
vt 0 0
vt 0 0
vt 0 0
vt 0 0
vt 0 0
vt 0 0
vt 0 0
vt 0 0
vt 0 0
vt 0 0
vt 0 0
vt 0 0
vt 0 0
vt 0 0
vt 0 0
vt 0 0
vt 0 0
vt 0 0
vt 0 0
vt 0 0
vt 0 0
vt 0 0
vt 0 0
vt 0 0
vt 0 0
vt 0 0
vt 0 0
vt 0 0
vt 0 0
vt 0 0
vt 0 0
vt 0 0
vt 0 0
vt 0 0
vt 0 0
vt 0 0
vt 0 0
vt 0 0
vt 0 0
vt 0 0
vt 0 0
vt 0 0
vt 0 0
vt 0 0
vt 0 0
vt 0 0
vt 0 0
vt 0 0
vt 0 0
vt 0 0
vt 0 0
vt 0 0
vt 0 0
vt 0 0
vt 0 0
vt 0 0
vt 0 0
vt 0 0
vt 0 0
vt 0 0
vt 0 0
vt 0 0
vt 0 0
vt 0 0
vt 0 0
vt 0 0
vt 0 0
vt 0 0
vt 0 0
vt 0 0
vt 0 0
vt 0 0
vt 0 0
vt 0 0
vt 0 0
vt 0 0
vt 0 0
vt 0 0
vt 0 0
vt 0 0
vt 0 0
vt 0 0
vt 0 0
vt 0 0
vt 0 0
vt 0 0
vt 0 0
vt 0 0
vt 0 0
vt 0 0
vt 0 0
vt 0 0
vt 0 0
vt 0 0
vt 0 0
vt 0 0
vt 0 0
vt 0 0
vt 0 0
vt 0 0
vt 0 0
vt 0 0
vt 0 0
vt 0 0
vt 0 0
vt 0 0
vt 0 0
vt 0 0
vt 0 0
vt 0 0
vt 0 0
vt 0 0
vt 0 0
vt 0 0
vt 0 0
vt 0 0
vt 0 0
vt 0 0
vt 0 0
vt 0 0
vt 0 0
vt 0 0
vt 0 0
vt 0 0
vt 0 0
vt 0 0
vt 0 0
vt 0 0
vt 0 0
vt 0 0
vt 0 0
vt 0 0
vt 0 0
vt 0 0
vt 0 0
vt 0 0
vt 0 0
vt 0 0
vt 0 0
vt 0 0
vt 0 0
vt 0 0
vt 0 0
vt 0 0
vt 0 0
vt 0 0
vt 0 0
vt 0 0
vt 0 0
vt 0 0
vt 0 0
vt 0 0
vt 0 0
vt 0 0
vt 0 0
vt 0 0
vt 0 0
vt 0 0
vt 0 0
vt 0 0
vt 0 0
vt 0 0
vt 0 0
vt 0 0
vt 0 0
vt 0 0
vt 0 0
vt 0 0
vt 0 0
vt 0 0
vt 0 0
vt 0 0
vt 0 0
vt 0 0
vt 0 0
vt 0 0
vt 0 0
vt 0 0
vt 0 0
vt 0 0
vt 0 0
vt 0 0
vt 0 0
vt 0 0
vt 0 0
vt 0 0
vt 0 0
vt 0 0
vt 0 0
vt 0 0
vt 0 0
vt 0 0
vt 0 0
vt 0 0
vt 0 0
vt 0 0
vt 0 0
vt 0 0
vt 0 0
vt 0 0
vt 0 0
vt 0 0
vt 0 0
vt 0 0
vt 0 0
vt 0 0
vt 0 0
vt 0 0
vt 0 0
vt 0 0
vt 0 0
vt 0 0
vt 0 0
vt 0 0
vt 0 0
vt 0 0
vt 0 0
vt 0 0
vt 0 0
vt 0 0
vt 0 0
vt 0 0
vt 0 0
vt 0 0
vt 0 0
vt 0 0
vt 0 0
vt 0 0
vt 0 0
vt 0 0
vt 0 0
vt 0 0
vt 0 0
vt 0 0
vt 0 0
vt 0 0
vt 0 0
vt 0 0
vt 0 0
vt 0 0
vt 0 0
vt 0 0
vt 0 0
vt 0 0
vt 0 0
vt 0 0
vt 0 0
vt 0 0
vt 0 0
vt 0 0
vt 0 0
vt 0 0
vt 0 0
vt 0 0
vt 0 0
vt 0 0
vt 0 0
vt 0 0
vt 0 0
vt 0 0
vt 0 0
vt 0 0
vt 0 0
vt 0 0
vt 0 0
vt 0 0
vt 0 0
vt 0 0
vt 0 0
vt 0 0
vt 0 0
vt 0 0
vt 0 0
vt 0 0
vt 0 0
vt 0 0
vt 0 0
vt 0 0
vt 0 0
vt 0 0
vt 0 0
vt 0 0
vt 0 0
vt 0 0
vt 0 0
vt 0 0
vt 0 0
vt 0 0
vt 0 0
vt 0 0
vt 0 0
vt 0 0
vt 0 0
vt 0 0
vt 0 0
vt 0 0
vt 0 0
vt 0 0
vt 0 0
vt 0 0
vt 0 0
vt 0 0
vt 0 0
vt 0 0
vt 0 0
vt 0 0
vt 0 0
vt 0 0
vt 0 0
vt 0 0
vt 0 0
vt 0 0
vt 0 0
vt 0 0
vt 0 0
vt 0 0
vt 0 0
vt 0 0
vt 0 0
vt 0 0
vt 0 0
vt 0 0
vt 0 0
vt 0 0
vt 0 0
vt 0 0
vt 0 0
vt 0 0
vt 0 0
vt 0 0
vt 0 0
vt 0 0
vt 0 0
vt 0 0
vt 0 0
vt 0 0
vt 0 0
vt 0 0
vt 0 0
vt 0 0
vt 0 0
vt 0 0
vt 0 0
vt 0 0
vt 0 0
vt 0 0
vt 0 0
vt 0 0
vt 0 0
vt 0 0
vt 0 0
vt 0 0
vt 0 0
vt 0 0
vt 0 0
vt 0 0
vt 0 0
vt 0 0
vt 0 0
vt 0 0
vt 0 0
vt 0 0
vt 0 0
vt 0 0
vt 0 0
vt 0 0
vt 0 0
vt 0 0
vt 0 0
vt 0 0
vt 0 0
vt 0 0
vt 0 0
vt 0 0
vt 0 0
vt 0 0
vt 0 0
vt 0 0
vt 0 0
vt 0 0
vt 0 0
vt 0 0
vt 0 0
vt 0 0
vt 0 0
vt 0 0
vt 0 0
vt 0 0
vt 0 0
vt 0 0
vt 0 0
vt 0 0
vt 0 0
vt 0 0
vt 0 0
vt 0 0
vt 0 0
vt 0 0
vt 0 0
vt 0 0
vt 0 0
vt 0 0
vt 0 0
vt 0 0
vt 0 0
vt 0 0
vt 0 0
vt 0 0
vt 0 0
vt 0 0
vt 0 0
vt 0 0
vt 0 0
vt 0 0
vt 0 0
vt 0 0
vt 0 0
vt 0 0
vt 0 0
vt 0 0
vt 0 0
vt 0 0
vt 0 0
vt 0 0
vt 0 0
vt 0 0
vt 0 0
vt 0 0
vt 0 0
vt 0 0
vt 0 0
vt 0 0
vt 0 0
vt 0 0
vt 0 0
vt 0 0
vt 0 0
vt 0 0
vt 0 0
vt 0 0
vt 0 0
vt 0 0
vt 0 0
vt 0 0
vt 0 0
vt 0 0
vt 0 0
vt 0 0
vt 0 0
vt 0 0
vt 0 0
vt 0 0
vt 0 0
vt 0 0
vt 0 0
vt 0 0
vt 0 0
vt 0 0
vt 0 0
vt 0 0
vt 0 0
vt 0 0
vt 0 0
vt 0 0
vt 0 0
vt 0 0
vt 0 0
vt 0 0
vt 0 0
vt 0 0
vt 0 0
vt 0 0
vt 0 0
vt 0 0
vt 0 0
vt 0 0
vt 0 0
vt 0 0
vt 0 0
vt 0 0
vt 0 0
vt 0 0
vt 0 0
vt 0 0
vt 0 0
vt 0 0
vt 0 0
vt 0 0
vt 0 0
vt 0 0
vt 0 0
vt 0 0
vt 0 0
vt 0 0
vt 0 0
vt 0 0
vt 0 0
vt 0 0
vt 0 0
vt 0 0
vt 0 0
vt 0 0
vt 0 0
vt 0 0
vt 0 0
vt 0 0
vt 0 0
vt 0 0
vt 0 0
vt 0 0
vt 0 0
vt 0 0
vt 0 0
vt 0 0
vt 0 0
vt 0 0
vt 0 0
vt 0 0
vt 0 0
vt 0 0
vt 0 0
vt 0 0
vt 0 0
vt 0 0
vt 0 0
vt 0 0
vt 0 0
vt 0 0
vt 0 0
vt 0 0
vt 0 0
vt 0 0
vt 0 0
vt 0 0
vt 0 0
vt 0 0
vt 0 0
vt 0 0
vt 0 0
vt 0 0
vt 0 0
vt 0 0
vt 0 0
vt 0 0
vt 0 0
vt 0 0
vt 0 0
vt 0 0
vt 0 0
vt 0 0
vt 0 0
vt 0 0
vt 0 0
vt 0 0
vt 0 0
vt 0 0
vt 0 0
vt 0 0
vt 0 0
vt 0 0
vt 0 0
vt 0 0
vt 0 0
vt 0 0
vt 0 0
vt 0 0
vt 0 0
vt 0 0
vt 0 0
vt 0 0
vt 0 0
vt 0 0
vt 0 0
vt 0 0
vt 0 0
vt 0 0
vt 0 0
vt 0 0
vt 0 0
vt 0 0
vt 0 0
vt 0 0
vt 0 0
vt 0 0
vt 0 0
vt 0 0
vt 0 0
vt 0 0
vt 0 0
vt 0 0
vt 0 0
vt 0 0
vt 0 0
vt 0 0
vt 0 0
vt 0 0
vt 0 0
vt 0 0
vt 0 0
vt 0 0
vt 0 0
vt 0 0
vt 0 0
vt 0 0
vt 0 0
vt 0 0
vt 0 0
vt 0 0
vt 0 0
vt 0 0
vt 0 0
vt 0 0
vt 0 0
vt 0 0
vt 0 0
vt 0 0
vt 0 0
s off
f 4/4/4 5/5/5 1/1/1
f 1/1/1 2/2/2 3/3/3
f 3/3/3 4/4/4 1/1/1
f 6/6/6 7/7/7 8/8/8
f 6/6/6 8/8/8 9/9/9
f 10/10/10 11/11/11 12/12/12
f 10/10/10 12/12/12 13/13/13
f 14/14/14 15/15/15 16/16/16
f 14/14/14 16/16/16 17/17/17
f 18/18/18 19/19/19 20/20/20
f 18/18/18 20/20/20 21/21/21
f 22/22/22 23/23/23 24/24/24
f 22/22/22 24/24/24 25/25/25
f 26/26/26 27/27/27 28/28/28
f 26/26/26 28/28/28 29/29/29
f 30/30/30 31/31/31 32/32/32
f 30/30/30 32/32/32 33/33/33
f 34/34/34 35/35/35 36/36/36
f 34/34/34 36/36/36 37/37/37
f 38/38/38 39/39/39 40/40/40
f 38/38/38 40/40/40 41/41/41
f 42/42/42 43/43/43 44/44/44
f 42/42/42 44/44/44 45/45/45
f 46/46/46 47/47/47 48/48/48
f 46/46/46 48/48/48 49/49/49
f 50/50/50 51/51/51 52/52/52
f 50/50/50 52/52/52 53/53/53
f 57/57/57 58/58/58 54/54/54
f 54/54/54 55/55/55 56/56/56
f 56/56/56 57/57/57 54/54/54
f 59/59/59 60/60/60 61/61/61
f 59/59/59 61/61/61 62/62/62
f 63/63/63 64/64/64 65/65/65
f 63/63/63 65/65/65 66/66/66
f 67/67/67 68/68/68 69/69/69
f 67/67/67 69/69/69 70/70/70
f 75/75/75 76/76/76 71/71/71
f 71/71/71 72/72/72 73/73/73
f 73/73/73 74/74/74 75/75/75
f 75/75/75 71/71/71 73/73/73
f 77/77/77 78/78/78 79/79/79
f 77/77/77 79/79/79 80/80/80
f 81/81/81 82/82/82 83/83/83
f 81/81/81 83/83/83 84/84/84
f 85/85/85 86/86/86 87/87/87
f 85/85/85 87/87/87 88/88/88
f 106/106/106 107/107/107 89/89/89
f 89/89/89 90/90/90 91/91/91
f 91/91/91 92/92/92 93/93/93
f 93/93/93 94/94/94 95/95/95
f 95/95/95 96/96/96 97/97/97
f 97/97/97 98/98/98 99/99/99
f 99/99/99 100/100/100 101/101/101
f 101/101/101 102/102/102 103/103/103
f 103/103/103 104/104/104 105/105/105
f 105/105/105 106/106/106 89/89/89
f 89/89/89 91/91/91 93/93/93
f 93/93/93 95/95/95 97/97/97
f 97/97/97 99/99/99 101/101/101
f 101/101/101 103/103/103 105/105/105
f 105/105/105 89/89/89 93/93/93
f 93/93/93 97/97/97 101/101/101
f 101/101/101 105/105/105 93/93/93
f 108/108/108 109/109/109 110/110/110
f 108/108/108 110/110/110 111/111/111
f 112/112/112 113/113/113 114/114/114
f 112/112/112 114/114/114 115/115/115
f 120/120/120 121/121/121 116/116/116
f 117/117/117 118/118/118 119/119/119
f 119/119/119 120/120/120 116/116/116
f 116/116/116 117/117/117 119/119/119
f 122/122/122 123/123/123 124/124/124
f 122/122/122 124/124/124 125/125/125
f 126/126/126 127/127/127 128/128/128
f 126/126/126 128/128/128 129/129/129
f 130/130/130 131/131/131 132/132/132
f 130/130/130 132/132/132 133/133/133
f 134/134/134 135/135/135 136/136/136
f 134/134/134 136/136/136 137/137/137
f 141/141/141 142/142/142 138/138/138
f 138/138/138 139/139/139 140/140/140
f 140/140/140 141/141/141 138/138/138
f 143/143/143 144/144/144 145/145/145
f 143/143/143 145/145/145 146/146/146
f 150/150/150 151/151/151 147/147/147
f 147/147/147 148/148/148 149/149/149
f 149/149/149 150/150/150 147/147/147
f 152/152/152 153/153/153 154/154/154
f 152/152/152 154/154/154 155/155/155
f 156/156/156 157/157/157 158/158/158
f 156/156/156 158/158/158 159/159/159
f 163/163/163 164/164/164 160/160/160
f 160/160/160 161/161/161 162/162/162
f 162/162/162 163/163/163 160/160/160
f 165/165/165 166/166/166 167/167/167
f 165/165/165 167/167/167 168/168/168
f 172/172/172 173/173/173 169/169/169
f 169/169/169 170/170/170 171/171/171
f 171/171/171 172/172/172 169/169/169
f 177/177/177 178/178/178 174/174/174
f 174/174/174 175/175/175 176/176/176
f 176/176/176 177/177/177 174/174/174
f 179/179/179 180/180/180 181/181/181
f 179/179/179 181/181/181 182/182/182
f 183/183/183 184/184/184 185/185/185
f 183/183/183 185/185/185 186/186/186
f 187/187/187 188/188/188 189/189/189
f 187/187/187 189/189/189 190/190/190
f 194/194/194 195/195/195 191/191/191
f 191/191/191 192/192/192 193/193/193
f 193/193/193 194/194/194 191/191/191
f 196/196/196 197/197/197 198/198/198
f 196/196/196 198/198/198 199/199/199
f 204/204/204 205/205/205 200/200/200
f 201/201/201 202/202/202 203/203/203
f 203/203/203 204/204/204 200/200/200
f 200/200/200 201/201/201 203/203/203
f 209/209/209 210/210/210 206/206/206
f 206/206/206 207/207/207 208/208/208
f 208/208/208 209/209/209 206/206/206
f 211/211/211 212/212/212 213/213/213
f 211/211/211 213/213/213 214/214/214
f 218/218/218 219/219/219 215/215/215
f 215/215/215 216/216/216 217/217/217
f 217/217/217 218/218/218 215/215/215
f 220/220/220 221/221/221 222/222/222
f 220/220/220 222/222/222 223/223/223
f 224/224/224 225/225/225 226/226/226
f 224/224/224 226/226/226 227/227/227
f 231/231/231 232/232/232 228/228/228
f 228/228/228 229/229/229 230/230/230
f 230/230/230 231/231/231 228/228/228
f 233/233/233 234/234/234 235/235/235
f 233/233/233 235/235/235 236/236/236
f 237/237/237 238/238/238 239/239/239
f 237/237/237 239/239/239 240/240/240
f 241/241/241 242/242/242 243/243/243
f 241/241/241 243/243/243 244/244/244
f 245/245/245 246/246/246 247/247/247
f 245/245/245 247/247/247 248/248/248
f 249/249/249 250/250/250 251/251/251
f 249/249/249 251/251/251 252/252/252
f 253/253/253 254/254/254 255/255/255
f 253/253/253 255/255/255 256/256/256
f 261/261/261 262/262/262 257/257/257
f 257/257/257 258/258/258 259/259/259
f 259/259/259 260/260/260 261/261/261
f 261/261/261 257/257/257 259/259/259
f 263/263/263 264/264/264 265/265/265
f 263/263/263 265/265/265 266/266/266
f 267/267/267 268/268/268 269/269/269
f 267/267/267 269/269/269 270/270/270
f 271/271/271 272/272/272 273/273/273
f 271/271/271 273/273/273 274/274/274
f 275/275/275 276/276/276 277/277/277
f 275/275/275 277/277/277 278/278/278
f 282/282/282 283/283/283 279/279/279
f 279/279/279 280/280/280 281/281/281
f 281/281/281 282/282/282 279/279/279
f 284/284/284 285/285/285 286/286/286
f 284/284/284 286/286/286 287/287/287
f 288/288/288 289/289/289 290/290/290
f 288/288/288 290/290/290 291/291/291
f 292/292/292 293/293/293 294/294/294
f 292/292/292 294/294/294 295/295/295
f 299/299/299 300/300/300 296/296/296
f 296/296/296 297/297/297 298/298/298
f 298/298/298 299/299/299 296/296/296
f 301/301/301 302/302/302 303/303/303
f 301/301/301 303/303/303 304/304/304
f 345/345/345 346/346/346 305/305/305
f 305/305/305 306/306/306 307/307/307
f 326/326/326 327/327/327 328/328/328
f 328/328/328 329/329/329 330/330/330
f 330/330/330 331/331/331 332/332/332
f 332/332/332 333/333/333 334/334/334
f 334/334/334 335/335/335 336/336/336
f 336/336/336 337/337/337 338/338/338
f 338/338/338 339/339/339 340/340/340
f 340/340/340 341/341/341 342/342/342
f 342/342/342 343/343/343 344/344/344
f 344/344/344 345/345/345 305/305/305
f 305/305/305 307/307/307 308/308/308
f 325/325/325 326/326/326 328/328/328
f 328/328/328 330/330/330 332/332/332
f 332/332/332 334/334/334 336/336/336
f 336/336/336 338/338/338 340/340/340
f 340/340/340 342/342/342 344/344/344
f 305/305/305 308/308/308 309/309/309
f 325/325/325 328/328/328 332/332/332
f 344/344/344 305/305/305 309/309/309
f 324/324/324 325/325/325 332/332/332
f 344/344/344 309/309/309 310/310/310
f 323/323/323 324/324/324 332/332/332
f 344/344/344 310/310/310 311/311/311
f 322/322/322 323/323/323 332/332/332
f 344/344/344 311/311/311 312/312/312
f 321/321/321 322/322/322 332/332/332
f 344/344/344 312/312/312 313/313/313
f 320/320/320 321/321/321 332/332/332
f 340/340/340 344/344/344 313/313/313
f 319/319/319 320/320/320 332/332/332
f 340/340/340 313/313/313 314/314/314
f 319/319/319 332/332/332 336/336/336
f 340/340/340 314/314/314 315/315/315
f 318/318/318 319/319/319 336/336/336
f 340/340/340 315/315/315 316/316/316
f 317/317/317 318/318/318 336/336/336
f 340/340/340 316/316/316 317/317/317
f 317/317/317 336/336/336 340/340/340
f 347/347/347 348/348/348 349/349/349
f 347/347/347 349/349/349 350/350/350
f 351/351/351 352/352/352 353/353/353
f 351/351/351 353/353/353 354/354/354
f 355/355/355 356/356/356 357/357/357
f 355/355/355 357/357/357 358/358/358
f 359/359/359 360/360/360 361/361/361
f 359/359/359 361/361/361 362/362/362
f 363/363/363 364/364/364 365/365/365
f 363/363/363 365/365/365 366/366/366
f 367/367/367 368/368/368 369/369/369
f 367/367/367 369/369/369 370/370/370
f 371/371/371 372/372/372 373/373/373
f 371/371/371 373/373/373 374/374/374
f 375/375/375 376/376/376 377/377/377
f 375/375/375 377/377/377 378/378/378
f 379/379/379 380/380/380 381/381/381
f 379/379/379 381/381/381 382/382/382
f 383/383/383 384/384/384 385/385/385
f 383/383/383 385/385/385 386/386/386
f 387/387/387 388/388/388 389/389/389
f 387/387/387 389/389/389 390/390/390
f 391/391/391 392/392/392 393/393/393
f 391/391/391 393/393/393 394/394/394
f 395/395/395 396/396/396 397/397/397
f 395/395/395 397/397/397 398/398/398
f 399/399/399 400/400/400 401/401/401
f 399/399/399 401/401/401 402/402/402
f 403/403/403 404/404/404 405/405/405
f 403/403/403 405/405/405 406/406/406
f 407/407/407 408/408/408 409/409/409
f 407/407/407 409/409/409 410/410/410
f 411/411/411 412/412/412 413/413/413
f 411/411/411 413/413/413 414/414/414
f 418/418/418 419/419/419 415/415/415
f 415/415/415 416/416/416 417/417/417
f 417/417/417 418/418/418 415/415/415
f 420/420/420 421/421/421 422/422/422
f 420/420/420 422/422/422 423/423/423
f 424/424/424 425/425/425 426/426/426
f 424/424/424 426/426/426 427/427/427
f 428/428/428 429/429/429 430/430/430
f 428/428/428 430/430/430 431/431/431
f 432/432/432 433/433/433 434/434/434
f 432/432/432 434/434/434 435/435/435
f 436/436/436 437/437/437 438/438/438
f 436/436/436 438/438/438 439/439/439
f 440/440/440 441/441/441 442/442/442
f 440/440/440 442/442/442 443/443/443
f 444/444/444 445/445/445 446/446/446
f 444/444/444 446/446/446 447/447/447
f 452/452/452 453/453/453 448/448/448
f 448/448/448 449/449/449 450/450/450
f 451/451/451 452/452/452 448/448/448
f 448/448/448 450/450/450 451/451/451
f 458/458/458 454/454/454 455/455/455
f 455/455/455 456/456/456 457/457/457
f 457/457/457 458/458/458 455/455/455
f 459/459/459 460/460/460 461/461/461
f 459/459/459 461/461/461 462/462/462
f 463/463/463 464/464/464 465/465/465
f 463/463/463 465/465/465 466/466/466
f 467/467/467 468/468/468 469/469/469
f 467/467/467 469/469/469 470/470/470
f 471/471/471 472/472/472 473/473/473
f 471/471/471 473/473/473 474/474/474
f 475/475/475 476/476/476 477/477/477
f 475/475/475 477/477/477 478/478/478
f 479/479/479 480/480/480 481/481/481
f 479/479/479 481/481/481 482/482/482
f 483/483/483 484/484/484 485/485/485
f 483/483/483 485/485/485 486/486/486
f 487/487/487 488/488/488 489/489/489
f 487/487/487 489/489/489 490/490/490
f 491/491/491 492/492/492 493/493/493
f 491/491/491 493/493/493 494/494/494
f 495/495/495 496/496/496 497/497/497
f 495/495/495 497/497/497 498/498/498
f 499/499/499 500/500/500 501/501/501
f 499/499/499 501/501/501 502/502/502
f 503/503/503 504/504/504 505/505/505
f 503/503/503 505/505/505 506/506/506
f 507/507/507 508/508/508 509/509/509
f 507/507/507 509/509/509 510/510/510
f 511/511/511 512/512/512 513/513/513
f 511/511/511 513/513/513 514/514/514
f 518/518/518 519/519/519 515/515/515
f 515/515/515 516/516/516 517/517/517
f 517/517/517 518/518/518 515/515/515
f 520/520/520 521/521/521 522/522/522
f 520/520/520 522/522/522 523/523/523
f 524/524/524 525/525/525 526/526/526
f 524/524/524 526/526/526 527/527/527
f 528/528/528 529/529/529 530/530/530
f 528/528/528 530/530/530 531/531/531
f 532/532/532 533/533/533 534/534/534
f 532/532/532 534/534/534 535/535/535
f 536/536/536 537/537/537 538/538/538
f 536/536/536 538/538/538 539/539/539
f 540/540/540 541/541/541 542/542/542
f 540/540/540 542/542/542 543/543/543
f 547/547/547 548/548/548 544/544/544
f 544/544/544 545/545/545 546/546/546
f 546/546/546 547/547/547 544/544/544
f 549/549/549 550/550/550 551/551/551
f 549/549/549 551/551/551 552/552/552
f 553/553/553 554/554/554 555/555/555
f 553/553/553 555/555/555 556/556/556
f 557/557/557 558/558/558 559/559/559
f 557/557/557 559/559/559 560/560/560
f 561/561/561 562/562/562 563/563/563
f 561/561/561 563/563/563 564/564/564
f 565/565/565 566/566/566 567/567/567
f 565/565/565 567/567/567 568/568/568
f 569/569/569 570/570/570 571/571/571
f 569/569/569 571/571/571 572/572/572
f 576/576/576 577/577/577 573/573/573
f 573/573/573 574/574/574 575/575/575
f 575/575/575 576/576/576 573/573/573
f 578/578/578 579/579/579 580/580/580
f 578/578/578 580/580/580 581/581/581
f 582/582/582 583/583/583 584/584/584
f 582/582/582 584/584/584 585/585/585
f 586/586/586 587/587/587 588/588/588
f 586/586/586 588/588/588 589/589/589
f 590/590/590 591/591/591 592/592/592
f 590/590/590 592/592/592 593/593/593
f 594/594/594 595/595/595 596/596/596
f 594/594/594 596/596/596 597/597/597
f 598/598/598 599/599/599 600/600/600
f 598/598/598 600/600/600 601/601/601
f 602/602/602 603/603/603 604/604/604
f 602/602/602 604/604/604 605/605/605
f 606/606/606 607/607/607 608/608/608
f 606/606/606 608/608/608 609/609/609
f 610/610/610 611/611/611 612/612/612
f 610/610/610 612/612/612 613/613/613
f 614/614/614 615/615/615 616/616/616
f 614/614/614 616/616/616 617/617/617
f 618/618/618 619/619/619 620/620/620
f 618/618/618 620/620/620 621/621/621
f 622/622/622 623/623/623 624/624/624
f 622/622/622 624/624/624 625/625/625
f 626/626/626 627/627/627 628/628/628
f 626/626/626 628/628/628 629/629/629
f 630/630/630 631/631/631 632/632/632
f 630/630/630 632/632/632 633/633/633
f 637/637/637 638/638/638 634/634/634
f 634/634/634 635/635/635 636/636/636
f 636/636/636 637/637/637 634/634/634
f 639/639/639 640/640/640 641/641/641
f 639/639/639 641/641/641 642/642/642
f 643/643/643 644/644/644 645/645/645
f 643/643/643 645/645/645 646/646/646
f 647/647/647 648/648/648 649/649/649
f 647/647/647 649/649/649 650/650/650
f 651/651/651 652/652/652 653/653/653
f 651/651/651 653/653/653 654/654/654
f 659/659/659 655/655/655 656/656/656
f 656/656/656 657/657/657 658/658/658
f 658/658/658 659/659/659 656/656/656
f 660/660/660 661/661/661 662/662/662
f 660/660/660 662/662/662 663/663/663
f 667/667/667 668/668/668 664/664/664
f 664/664/664 665/665/665 666/666/666
f 666/666/666 667/667/667 664/664/664
f 669/669/669 670/670/670 671/671/671
f 669/669/669 671/671/671 672/672/672
f 673/673/673 674/674/674 675/675/675
f 673/673/673 675/675/675 676/676/676
f 677/677/677 678/678/678 679/679/679
f 677/677/677 679/679/679 680/680/680
f 681/681/681 682/682/682 683/683/683
f 681/681/681 683/683/683 684/684/684
f 685/685/685 686/686/686 687/687/687
f 685/685/685 687/687/687 688/688/688
f 689/689/689 690/690/690 691/691/691
f 689/689/689 691/691/691 692/692/692
f 696/696/696 697/697/697 693/693/693
f 693/693/693 694/694/694 695/695/695
f 695/695/695 696/696/696 693/693/693
f 698/698/698 699/699/699 700/700/700
f 698/698/698 700/700/700 701/701/701
f 706/706/706 707/707/707 702/702/702
f 702/702/702 703/703/703 704/704/704
f 704/704/704 705/705/705 706/706/706
f 706/706/706 702/702/702 704/704/704
f 708/708/708 709/709/709 710/710/710
f 708/708/708 710/710/710 711/711/711
f 712/712/712 713/713/713 714/714/714
f 712/712/712 714/714/714 715/715/715
f 716/716/716 717/717/717 718/718/718
f 716/716/716 718/718/718 719/719/719
f 720/720/720 721/721/721 722/722/722
f 720/720/720 722/722/722 723/723/723
f 727/727/727 728/728/728 724/724/724
f 724/724/724 725/725/725 726/726/726
f 726/726/726 727/727/727 724/724/724
f 729/729/729 730/730/730 731/731/731
f 729/729/729 731/731/731 732/732/732
f 733/733/733 734/734/734 735/735/735
f 733/733/733 735/735/735 736/736/736
f 737/737/737 738/738/738 739/739/739
f 737/737/737 739/739/739 740/740/740
f 741/741/741 742/742/742 743/743/743
f 741/741/741 743/743/743 744/744/744
f 745/745/745 746/746/746 747/747/747
f 745/745/745 747/747/747 748/748/748
f 749/749/749 750/750/750 751/751/751
f 749/749/749 751/751/751 752/752/752
f 753/753/753 754/754/754 755/755/755
f 753/753/753 755/755/755 756/756/756
f 757/757/757 758/758/758 759/759/759
f 757/757/757 759/759/759 760/760/760
f 761/761/761 762/762/762 763/763/763
f 761/761/761 763/763/763 764/764/764
f 765/765/765 766/766/766 767/767/767
f 765/765/765 767/767/767 768/768/768
f 769/769/769 770/770/770 771/771/771
f 769/769/769 771/771/771 772/772/772
f 773/773/773 774/774/774 775/775/775
f 773/773/773 775/775/775 776/776/776
f 777/777/777 778/778/778 779/779/779
f 777/777/777 779/779/779 780/780/780
f 781/781/781 782/782/782 783/783/783
f 781/781/781 783/783/783 784/784/784
f 788/788/788 789/789/789 785/785/785
f 785/785/785 786/786/786 787/787/787
f 787/787/787 788/788/788 785/785/785
f 790/790/790 791/791/791 792/792/792
f 790/790/790 792/792/792 793/793/793
f 794/794/794 795/795/795 796/796/796
f 794/794/794 796/796/796 797/797/797
f 798/798/798 799/799/799 800/800/800
f 798/798/798 800/800/800 801/801/801
f 802/802/802 803/803/803 804/804/804
f 802/802/802 804/804/804 805/805/805
f 809/809/809 810/810/810 806/806/806
f 806/806/806 807/807/807 808/808/808
f 808/808/808 809/809/809 806/806/806
f 811/811/811 812/812/812 813/813/813
f 811/811/811 813/813/813 814/814/814
f 815/815/815 816/816/816 817/817/817
f 815/815/815 817/817/817 818/818/818
f 819/819/819 820/820/820 821/821/821
f 819/819/819 821/821/821 822/822/822
f 826/826/826 827/827/827 823/823/823
f 823/823/823 824/824/824 825/825/825
f 825/825/825 826/826/826 823/823/823
f 831/831/831 832/832/832 828/828/828
f 828/828/828 829/829/829 830/830/830
f 830/830/830 831/831/831 828/828/828
f 833/833/833 834/834/834 835/835/835
f 833/833/833 835/835/835 836/836/836
f 837/837/837 838/838/838 839/839/839
f 837/837/837 839/839/839 840/840/840
f 841/841/841 842/842/842 843/843/843
f 841/841/841 843/843/843 844/844/844
f 845/845/845 846/846/846 847/847/847
f 845/845/845 847/847/847 848/848/848
f 849/849/849 850/850/850 851/851/851
f 849/849/849 851/851/851 852/852/852
f 853/853/853 854/854/854 855/855/855
f 853/853/853 855/855/855 856/856/856
f 857/857/857 858/858/858 859/859/859
f 857/857/857 859/859/859 860/860/860
f 861/861/861 862/862/862 863/863/863
f 861/861/861 863/863/863 864/864/864
f 865/865/865 866/866/866 867/867/867
f 865/865/865 867/867/867 868/868/868
f 869/869/869 870/870/870 871/871/871
f 869/869/869 871/871/871 872/872/872
f 873/873/873 874/874/874 875/875/875
f 873/873/873 875/875/875 876/876/876
f 877/877/877 878/878/878 879/879/879
f 877/877/877 879/879/879 880/880/880
f 881/881/881 882/882/882 883/883/883
f 881/881/881 883/883/883 884/884/884
f 885/885/885 886/886/886 887/887/887
f 885/885/885 887/887/887 888/888/888
f 892/892/892 893/893/893 889/889/889
f 889/889/889 890/890/890 891/891/891
f 891/891/891 892/892/892 889/889/889
f 897/897/897 898/898/898 894/894/894
f 894/894/894 895/895/895 896/896/896
f 896/896/896 897/897/897 894/894/894
f 899/899/899 900/900/900 901/901/901
f 899/899/899 901/901/901 902/902/902
f 903/903/903 904/904/904 905/905/905
f 903/903/903 905/905/905 906/906/906
f 910/910/910 911/911/911 907/907/907
f 907/907/907 908/908/908 909/909/909
f 909/909/909 910/910/910 907/907/907
f 912/912/912 913/913/913 914/914/914
f 912/912/912 914/914/914 915/915/915
f 916/916/916 917/917/917 918/918/918
f 916/916/916 918/918/918 919/919/919
f 920/920/920 921/921/921 922/922/922
f 920/920/920 922/922/922 923/923/923
f 924/924/924 925/925/925 926/926/926
f 924/924/924 926/926/926 927/927/927
f 928/928/928 929/929/929 930/930/930
f 928/928/928 930/930/930 931/931/931
f 935/935/935 936/936/936 932/932/932
f 932/932/932 933/933/933 934/934/934
f 934/934/934 935/935/935 932/932/932
f 937/937/937 938/938/938 939/939/939
f 937/937/937 939/939/939 940/940/940
f 945/945/945 946/946/946 941/941/941
f 941/941/941 942/942/942 943/943/943
f 943/943/943 944/944/944 945/945/945
f 945/945/945 941/941/941 943/943/943
f 950/950/950 951/951/951 947/947/947
f 947/947/947 948/948/948 949/949/949
f 949/949/949 950/950/950 947/947/947
f 955/955/955 956/956/956 952/952/952
f 952/952/952 953/953/953 954/954/954
f 954/954/954 955/955/955 952/952/952
f 957/957/957 958/958/958 959/959/959
f 957/957/957 959/959/959 960/960/960
f 961/961/961 962/962/962 963/963/963
f 961/961/961 963/963/963 964/964/964
f 968/968/968 969/969/969 965/965/965
f 965/965/965 966/966/966 967/967/967
f 967/967/967 968/968/968 965/965/965
f 970/970/970 971/971/971 972/972/972
f 970/970/970 972/972/972 973/973/973
f 974/974/974 975/975/975 976/976/976
f 974/974/974 976/976/976 977/977/977
f 978/978/978 979/979/979 980/980/980
f 978/978/978 980/980/980 981/981/981
f 985/985/985 986/986/986 982/982/982
f 982/982/982 983/983/983 984/984/984
f 984/984/984 985/985/985 982/982/982
f 987/987/987 988/988/988 989/989/989
f 987/987/987 989/989/989 990/990/990
f 991/991/991 992/992/992 993/993/993
f 991/991/991 993/993/993 994/994/994
f 998/998/998 999/999/999 995/995/995
f 995/995/995 996/996/996 997/997/997
f 997/997/997 998/998/998 995/995/995
f 1000/1000/1000 1001/1001/1001 1002/1002/1002
f 1000/1000/1000 1002/1002/1002 1003/1003/1003
f 1004/1004/1004 1005/1005/1005 1006/1006/1006
f 1004/1004/1004 1006/1006/1006 1007/1007/1007
f 1008/1008/1008 1009/1009/1009 1010/1010/1010
f 1008/1008/1008 1010/1010/1010 1011/1011/1011
f 1012/1012/1012 1013/1013/1013 1014/1014/1014
f 1012/1012/1012 1014/1014/1014 1015/1015/1015
f 1020/1020/1020 1016/1016/1016 1017/1017/1017
f 1017/1017/1017 1018/1018/1018 1019/1019/1019
f 1019/1019/1019 1020/1020/1020 1017/1017/1017
f 1021/1021/1021 1022/1022/1022 1023/1023/1023
f 1021/1021/1021 1023/1023/1023 1024/1024/1024
f 1025/1025/1025 1026/1026/1026 1027/1027/1027
f 1025/1025/1025 1027/1027/1027 1028/1028/1028
f 1029/1029/1029 1030/1030/1030 1031/1031/1031
f 1029/1029/1029 1031/1031/1031 1032/1032/1032
f 1033/1033/1033 1034/1034/1034 1035/1035/1035
f 1033/1033/1033 1035/1035/1035 1036/1036/1036
f 1037/1037/1037 1038/1038/1038 1039/1039/1039
f 1037/1037/1037 1039/1039/1039 1040/1040/1040
f 1041/1041/1041 1042/1042/1042 1043/1043/1043
f 1041/1041/1041 1043/1043/1043 1044/1044/1044
f 1045/1045/1045 1046/1046/1046 1047/1047/1047
f 1045/1045/1045 1047/1047/1047 1048/1048/1048
f 1049/1049/1049 1050/1050/1050 1051/1051/1051
f 1049/1049/1049 1051/1051/1051 1052/1052/1052
f 1053/1053/1053 1054/1054/1054 1055/1055/1055
f 1053/1053/1053 1055/1055/1055 1056/1056/1056
f 1060/1060/1060 1061/1061/1061 1057/1057/1057
f 1057/1057/1057 1058/1058/1058 1059/1059/1059
f 1059/1059/1059 1060/1060/1060 1057/1057/1057
f 1062/1062/1062 1063/1063/1063 1064/1064/1064
f 1062/1062/1062 1064/1064/1064 1065/1065/1065
f 1066/1066/1066 1067/1067/1067 1068/1068/1068
f 1066/1066/1066 1068/1068/1068 1069/1069/1069
f 1073/1073/1073 1074/1074/1074 1070/1070/1070
f 1070/1070/1070 1071/1071/1071 1072/1072/1072
f 1072/1072/1072 1073/1073/1073 1070/1070/1070
f 1075/1075/1075 1076/1076/1076 1077/1077/1077
f 1075/1075/1075 1077/1077/1077 1078/1078/1078
f 1079/1079/1079 1080/1080/1080 1081/1081/1081
f 1079/1079/1079 1081/1081/1081 1082/1082/1082
f 1083/1083/1083 1084/1084/1084 1085/1085/1085
f 1083/1083/1083 1085/1085/1085 1086/1086/1086
f 1087/1087/1087 1088/1088/1088 1089/1089/1089
f 1087/1087/1087 1089/1089/1089 1090/1090/1090
f 1091/1091/1091 1092/1092/1092 1093/1093/1093
f 1091/1091/1091 1093/1093/1093 1094/1094/1094
f 1095/1095/1095 1096/1096/1096 1097/1097/1097
f 1095/1095/1095 1097/1097/1097 1098/1098/1098
