v -0.357878 0.490885 0.289441
v -0.358592 0.494311 0.281961
v -0.359495 0.492682 0.281503
v -0.35881 0.4896 0.288451
v -0.382585 0.468469 0.030139
v -0.381218 0.468481 0.030031
v -0.381671 0.464652 0.029461
v -0.383039 0.464667 0.029569
v -0.383673 0.46846 0.030438
v -0.384125 0.464679 0.029868
v -0.400103 0.464847 0.036271
v -0.399698 0.468289 0.036823
v -0.359994 0.49593 0.273003
v -0.358592 0.494311 0.281961
v -0.3572 0.494883 0.282379
v -0.358631 0.49654 0.273238
v -0.305049 0.49695 0.290238
v -0.3572 0.494883 0.282379
v -0.356469 0.491391 0.290016
v -0.304193 0.493578 0.298135
v -0.356469 0.491391 0.290016
v -0.3572 0.494883 0.282379
v -0.358592 0.494311 0.281961
v -0.357878 0.490885 0.289441
v -0.375596 0.404224 0.290268
v -0.372866 0.407154 0.301197
v -0.373914 0.408336 0.300469
v -0.37659 0.405477 0.289761
v -0.310056 0.498309 0.263775
v -0.353316 0.471045 0.032848
v -0.382011 0.470661 0.032697
v -0.399179 0.470383 0.039259
v -0.398256 0.471624 0.046263
v -0.396137 0.47394 0.062658
v -0.360857 0.496669 0.261706
v -0.407886 0.38973 0.031464
v -0.393086 0.380584 0.025098
v -0.393163 0.379279 0.025735
v -0.407963 0.388492 0.032103
v -0.391756 0.383413 0.024597
v -0.390419 0.382708 0.02449
v -0.390765 0.379275 0.0247
v -0.39209 0.379998 0.024804
v -0.409099 0.390138 0.035754
v -0.409128 0.391417 0.033448
v -0.408998 0.389533 0.032934
v -0.39948 0.469569 0.0375
v -0.383448 0.469807 0.031117
v -0.383673 0.46846 0.030438
v -0.399698 0.468289 0.036823
v -0.358249 0.472879 0.30144
v -0.307098 0.47017 0.310819
v -0.304514 0.486712 0.304356
v -0.35666 0.485107 0.296031
v -0.392763 0.383988 0.024894
v -0.407594 0.392836 0.031275
v -0.400103 0.464847 0.036271
v -0.384125 0.464679 0.029868
v -0.366302 0.433695 0.309762
v -0.369168 0.420687 0.310032
v -0.368005 0.419806 0.311005
v -0.36507 0.43309 0.310746
v -0.359018 0.483804 0.293838
v -0.369806 0.421381 0.308197
v -0.369168 0.420687 0.310032
v -0.366302 0.433695 0.309762
v -0.359624 0.472728 0.300633
v -0.358068 0.484724 0.295333
v -0.360857 0.496669 0.261706
v -0.358631 0.49654 0.273238
v -0.306938 0.498403 0.279345
v -0.310056 0.498309 0.263775
v -0.407886 0.38973 0.031464
v -0.407594 0.392836 0.031275
v -0.392763 0.383988 0.024894
v -0.393086 0.380584 0.025098
v -0.409128 0.391417 0.033448
v -0.409099 0.390138 0.035754
v -0.400777 0.399151 0.128331
v -0.392356 0.45564 0.127126
v -0.397408 0.451243 0.090445
v -0.390487 0.468075 0.126894
v -0.39582 0.463422 0.090405
v -0.389346 0.475704 0.126681
v -0.394848 0.470916 0.090289
v -0.394268 0.475005 0.090033
v -0.400782 0.469149 0.040957
v -0.401213 0.467488 0.03883
v -0.358249 0.472879 0.30144
v -0.359624 0.472728 0.300633
v -0.366302 0.433695 0.309762
v -0.36507 0.43309 0.310746
v -0.407594 0.392836 0.031275
v -0.407886 0.38973 0.031464
v -0.408932 0.39064 0.032346
v -0.408638 0.393648 0.032292
v -0.382359 0.469819 0.030819
v -0.353529 0.470178 0.03102
v -0.353648 0.468733 0.030346
v -0.381218 0.468481 0.030031
v -0.382585 0.468469 0.030139
v -0.39218 0.378699 0.025446
v -0.362231 0.362761 0.025666
v -0.362217 0.362212 0.0277
v -0.39207 0.378153 0.027544
v -0.392763 0.383988 0.024894
v -0.384125 0.464679 0.029868
v -0.383039 0.464667 0.029569
v -0.391756 0.383413 0.024597
v -0.304514 0.486712 0.304356
v -0.304193 0.493578 0.298135
v -0.356469 0.491391 0.290016
v -0.35666 0.485107 0.296031
v -0.368005 0.419806 0.311005
v -0.322238 0.393223 0.325641
v -0.31837 0.410737 0.324568
v -0.36507 0.43309 0.310746
v -0.383673 0.46846 0.030438
v -0.382585 0.468469 0.030139
v -0.383039 0.464667 0.029569
v -0.384125 0.464679 0.029868
v -0.373914 0.408336 0.300469
v -0.371543 0.413157 0.306867
v -0.371978 0.414406 0.3054
v -0.376709 0.407422 0.289107
v -0.37659 0.405477 0.289761
v -0.357878 0.490885 0.289441
v -0.358068 0.484724 0.295333
v -0.35666 0.485107 0.296031
v -0.356469 0.491391 0.290016
v -0.370438 0.412098 0.307753
v -0.368005 0.419806 0.311005
v -0.369168 0.420687 0.310032
v -0.371543 0.413157 0.306867
v -0.330159 0.377074 0.301461
v -0.375596 0.404224 0.290268
v -0.405924 0.390078 0.061249
v -0.407882 0.38797 0.034086
v -0.39207 0.378153 0.027544
v -0.362217 0.362212 0.0277
v -0.408922 0.389056 0.034777
v -0.408998 0.389533 0.032934
v -0.407963 0.388492 0.032103
v -0.407882 0.38797 0.034086
v -0.358249 0.472879 0.30144
v -0.35666 0.485107 0.296031
v -0.358068 0.484724 0.295333
v -0.359624 0.472728 0.300633
v -0.407963 0.388492 0.032103
v -0.393163 0.379279 0.025735
v -0.39218 0.378699 0.025446
v -0.39207 0.378153 0.027544
v -0.407882 0.38797 0.034086
v -0.39209 0.379998 0.024804
v -0.393086 0.380584 0.025098
v -0.392763 0.383988 0.024894
v -0.391756 0.383413 0.024597
v -0.369806 0.421381 0.308197
v -0.371978 0.414406 0.3054
v -0.371543 0.413157 0.306867
v -0.369168 0.420687 0.310032
v -0.382011 0.470661 0.032697
v -0.353316 0.471045 0.032848
v -0.353529 0.470178 0.03102
v -0.382359 0.469819 0.030819
v -0.383039 0.464667 0.029569
v -0.381671 0.464652 0.029461
v -0.390419 0.382708 0.02449
v -0.391756 0.383413 0.024597
v -0.324726 0.384984 0.322333
v -0.370438 0.412098 0.307753
v -0.372866 0.407154 0.301197
v -0.32709 0.380086 0.315234
v -0.32709 0.380086 0.315234
v -0.372866 0.407154 0.301197
v -0.375596 0.404224 0.290268
v -0.330159 0.377074 0.301461
v -0.393086 0.380584 0.025098
v -0.39209 0.379998 0.024804
v -0.39218 0.378699 0.025446
v -0.393163 0.379279 0.025735
v -0.383448 0.469807 0.031117
v -0.39948 0.469569 0.0375
v -0.399179 0.470383 0.039259
v -0.382011 0.470661 0.032697
v -0.382359 0.469819 0.030819
v -0.358631 0.49654 0.273238
v -0.3572 0.494883 0.282379
v -0.305049 0.49695 0.290238
v -0.306938 0.498403 0.279345
v -0.407886 0.38973 0.031464
v -0.407963 0.388492 0.032103
v -0.408998 0.389533 0.032934
v -0.408932 0.39064 0.032346
v -0.407594 0.392836 0.031275
v -0.408638 0.393648 0.032292
v -0.401261 0.464703 0.037317
v -0.399698 0.468289 0.036823
v -0.400103 0.464847 0.036271
v -0.400684 0.469203 0.038358
v -0.400782 0.469149 0.040957
v -0.400403 0.46996 0.039987
v -0.399498 0.471051 0.046867
v -0.400403 0.46996 0.039987
v -0.400782 0.469149 0.040957
v -0.400403 0.46996 0.039987
v -0.398256 0.471624 0.046263
v -0.399179 0.470383 0.039259
v -0.400684 0.469203 0.038358
v -0.400881 0.468051 0.037729
v -0.401213 0.467488 0.03883
v -0.401261 0.464703 0.037317
v -0.401213 0.467488 0.03883
v -0.400881 0.468051 0.037729
v -0.401261 0.464703 0.037317
v -0.400881 0.468051 0.037729
v -0.399698 0.468289 0.036823
v -0.358592 0.494311 0.281961
v -0.359994 0.49593 0.273003
v -0.362188 0.496033 0.26167
v -0.399498 0.471051 0.046867
v -0.400782 0.469149 0.040957
v -0.394268 0.475005 0.090033
v -0.359495 0.492682 0.281503
v -0.371543 0.413157 0.306867
v -0.373914 0.408336 0.300469
v -0.372866 0.407154 0.301197
v -0.370438 0.412098 0.307753
v -0.401213 0.467488 0.03883
v -0.401261 0.464703 0.037317
v -0.408638 0.393648 0.032292
v -0.409128 0.391417 0.033448
v -0.359994 0.49593 0.273003
v -0.358631 0.49654 0.273238
v -0.360857 0.496669 0.261706
v -0.362188 0.496033 0.26167
v -0.407882 0.38797 0.034086
v -0.405924 0.390078 0.061249
v -0.408345 0.389592 0.04281
v -0.408922 0.389056 0.034777
v -0.360857 0.496669 0.261706
v -0.396137 0.47394 0.062658
v -0.398256 0.471624 0.046263
v -0.400403 0.46996 0.039987
v -0.399498 0.471051 0.046867
v -0.362188 0.496033 0.26167
v -0.390419 0.382708 0.02449
v -0.361804 0.368056 0.024819
v -0.36212 0.364135 0.025024
v -0.390765 0.379275 0.0247
v -0.399179 0.470383 0.039259
v -0.39948 0.469569 0.0375
v -0.400684 0.469203 0.038358
v -0.400403 0.46996 0.039987
v -0.37659 0.405477 0.289761
v -0.408345 0.389592 0.04281
v -0.405924 0.390078 0.061249
v -0.375596 0.404224 0.290268
v -0.408998 0.389533 0.032934
v -0.408922 0.389056 0.034777
v -0.409099 0.390138 0.035754
v -0.408345 0.389592 0.04281
v -0.409099 0.390138 0.035754
v -0.408922 0.389056 0.034777
v -0.400777 0.399151 0.128331
v -0.409099 0.390138 0.035754
v -0.408345 0.389592 0.04281
v -0.37659 0.405477 0.289761
v -0.376709 0.407422 0.289107
v -0.35881 0.4896 0.288451
v -0.359495 0.492682 0.281503
v -0.394268 0.475005 0.090033
v -0.394848 0.470916 0.090289
v -0.389346 0.475704 0.126681
v -0.39582 0.463422 0.090405
v -0.390487 0.468075 0.126894
v -0.397408 0.451243 0.090445
v -0.392356 0.45564 0.127126
v -0.400777 0.399151 0.128331
v -0.376709 0.407422 0.289107
v -0.371978 0.414406 0.3054
v -0.369806 0.421381 0.308197
v -0.359018 0.483804 0.293838
v -0.39948 0.469569 0.0375
v -0.399698 0.468289 0.036823
v -0.400881 0.468051 0.037729
v -0.400684 0.469203 0.038358
v -0.408638 0.393648 0.032292
v -0.408932 0.39064 0.032346
v -0.409128 0.391417 0.033448
v -0.408998 0.389533 0.032934
v -0.409128 0.391417 0.033448
v -0.408932 0.39064 0.032346
v -0.31837 0.410737 0.324568
v -0.307098 0.47017 0.310819
v -0.358249 0.472879 0.30144
v -0.36507 0.43309 0.310746
v -0.36212 0.364135 0.025024
v -0.362231 0.362761 0.025666
v -0.39218 0.378699 0.025446
v -0.39209 0.379998 0.024804
v -0.390765 0.379275 0.0247
v -0.400684 0.469203 0.038358
v -0.401213 0.467488 0.03883
v -0.400782 0.469149 0.040957
v -0.383448 0.469807 0.031117
v -0.382359 0.469819 0.030819
v -0.382585 0.468469 0.030139
v -0.383673 0.46846 0.030438
v -0.358068 0.484724 0.295333
v -0.357878 0.490885 0.289441
v -0.35881 0.4896 0.288451
v -0.359018 0.483804 0.293838
v -0.324726 0.384984 0.322333
v -0.322238 0.393223 0.325641
v -0.368005 0.419806 0.311005
v -0.370438 0.412098 0.307753
v -0.353648 0.468733 0.030346
v -0.361804 0.368056 0.024819
v -0.390419 0.382708 0.02449
v -0.381671 0.464652 0.029461
v -0.381218 0.468481 0.030031
vn -0.871 0.4103 0.2703
vn -0.8723 0.4077 0.27
vn -0.868 0.4161 0.271
vn -0.8665 0.4189 0.2713
vn -0.0768 0.1565 -0.9847
vn -0.0791 0.1559 -0.9846
vn -0.0784 0.1561 -0.9846
vn -0.076 0.1567 -0.9847
vn -0.3466 0.1801 -0.9206
vn -0.3463 0.1802 -0.9207
vn -0.3857 0.1913 -0.9026
vn -0.3846 0.1901 -0.9033
vn -0.4281 0.8752 0.2254
vn -0.4272 0.8757 0.2251
vn -0.4295 0.8744 0.2257
vn -0.43 0.8741 0.2261
vn -0.1265 0.9073 0.4011
vn -0.1071 0.9004 0.4217
vn -0.1082 0.9001 0.422
vn -0.1276 0.9067 0.402
vn -0.4497 0.7952 0.4068
vn -0.449 0.7956 0.4068
vn -0.45 0.795 0.4068
vn -0.4509 0.7944 0.4069
vn -0.7984 -0.5013 0.3336
vn -0.7978 -0.5021 0.3339
vn -0.7989 -0.5006 0.3335
vn -0.7994 -0.4999 0.3332
vn -0.0595 0.997 -0.0498
vn -0.0106 0.9815 -0.1912
vn -0.0579 0.9845 -0.1658
vn -0.1019 0.9817 -0.1609
vn -0.0913 0.9876 -0.1277
vn -0.0929 0.9875 -0.1274
vn -0.0374 0.9972 -0.064
vn -0.5625 -0.3516 -0.7483
vn -0.526 -0.3482 -0.7759
vn -0.528 -0.3502 -0.7737
vn -0.5627 -0.3486 -0.7495
vn -0.1055 -0.0501 -0.9932
vn -0.1058 -0.0501 -0.9931
vn -0.1057 -0.0501 -0.9931
vn -0.1047 -0.0499 -0.9932
vn -0.9964 -0.0832 -0.0177
vn -0.9976 -0.0588 -0.0376
vn -0.9964 -0.0832 -0.0177
vn -0.3498 0.4837 -0.8023
vn -0.3148 0.4689 -0.8252
vn -0.3134 0.4707 -0.8248
vn -0.3488 0.4805 -0.8046
vn -0.176 0.4172 0.8916
vn -0.1602 0.3816 0.9103
vn -0.162 0.381 0.9103
vn -0.1788 0.4168 0.8912
vn -0.337 0.071 -0.9388
vn -0.3776 0.0794 -0.9225
vn -0.3912 0.1214 -0.9123
vn -0.3478 0.1122 -0.9308
vn -0.5708 0.1424 0.8086
vn -0.5695 0.1423 0.8096
vn -0.5729 0.1425 0.8071
vn -0.5742 0.1426 0.8062
vn -0.8858 0.2769 0.3724
vn -0.8969 0.2077 0.3903
vn -0.9008 0.2069 0.3819
vn -0.8952 0.2339 0.3794
vn -0.8789 0.2835 0.3837
vn -0.8789 0.2835 0.3837
vn -0.0421 0.9989 0.0193
vn -0.0399 0.999 0.0193
vn -0.0681 0.9976 0.0083
vn -0.0666 0.9978 0.0068
vn -0.4245 -0.0197 -0.9052
vn -0.4264 -0.0149 -0.9044
vn -0.3828 -0.0191 -0.9237
vn -0.3839 -0.0197 -0.9232
vn -0.9923 0.111 0.055
vn -0.994 0.0885 0.0636
vn -0.987 0.1349 0.0875
vn -0.9844 0.1285 0.1202
vn -0.9835 0.1286 0.1273
vn -0.9835 0.1286 0.1273
vn -0.9828 0.1295 0.1315
vn -0.9828 0.1295 0.1316
vn -0.9823 0.1467 0.1162
vn -0.9836 0.1344 0.1199
vn -0.9822 0.1481 0.1153
vn -0.9895 0.1079 0.0958
vn -0.5094 0.3063 0.8041
vn -0.5066 0.3061 0.806
vn -0.5266 0.2498 0.8126
vn -0.5266 0.2498 0.8126
vn -0.638 0.0132 -0.7699
vn -0.638 0.0132 -0.7699
vn -0.6754 0.0528 -0.7355
vn -0.6754 0.0528 -0.7355
vn -0.0746 0.4577 -0.886
vn 0.008 0.4303 -0.9027
vn 0.0093 0.422 -0.9066
vn -0.0746 0.4578 -0.8859
vn -0.074 0.4582 -0.8858
vn -0.4863 -0.8515 -0.1964
vn -0.4551 -0.8625 -0.2214
vn -0.4551 -0.8604 -0.2292
vn -0.4864 -0.8514 -0.1961
vn -0.249 0.0628 -0.9665
vn -0.2597 0.1047 -0.96
vn -0.2625 0.1046 -0.9592
vn -0.249 0.0628 -0.9665
vn -0.1569 0.6674 0.728
vn -0.1569 0.6671 0.7282
vn -0.1564 0.6853 0.7113
vn -0.1556 0.6855 0.7112
vn -0.3017 0.0852 0.9496
vn -0.2377 0.1116 0.9649
vn -0.2377 0.1116 0.9649
vn -0.2993 0.0851 0.9504
vn -0.26 0.1739 -0.9498
vn -0.2616 0.1736 -0.9494
vn -0.2608 0.1738 -0.9496
vn -0.2593 0.1741 -0.95
vn -0.9477 0.0457 0.3159
vn -0.9471 0.0438 0.3181
vn -0.949 0.05 0.3112
vn -0.9717 0.0199 0.2352
vn -0.971 0.0114 0.239
vn -0.4775 0.615 0.6275
vn -0.4781 0.6147 0.6274
vn -0.4772 0.6151 0.6276
vn -0.477 0.6152 0.6276
vn -0.6783 -0.0931 0.7288
vn -0.6791 -0.0928 0.7281
vn -0.6769 -0.0937 0.7301
vn -0.6761 -0.094 0.7308
vn -0.5557 -0.8163 0.1576
vn -0.5674 -0.8048 0.1742
vn -0.5231 -0.8439 0.1188
vn -0.5149 -0.8537 0.0781
vn -0.4784 -0.8752 0.0714
vn -0.4699 -0.8806 0.0617
vn -0.7546 -0.6421 -0.1349
vn -0.7544 -0.6424 -0.1349
vn -0.7577 -0.6382 -0.1367
vn -0.7577 -0.6381 -0.137
vn -0.4931 0.4046 0.7702
vn -0.4921 0.4048 0.7707
vn -0.4946 0.4042 0.7695
vn -0.4955 0.404 0.7689
vn -0.5881 -0.7877 -0.1833
vn -0.5378 -0.822 -0.1872
vn -0.5398 -0.8211 -0.1855
vn -0.5394 -0.8213 -0.1858
vn -0.5881 -0.7878 -0.1833
vn -0.2981 -0.0288 -0.9541
vn -0.2984 -0.0288 -0.954
vn -0.2981 -0.0288 -0.9541
vn -0.2977 -0.0287 -0.9542
vn -0.9156 0.1319 0.3798
vn -0.9144 0.1312 0.3829
vn -0.9181 0.1335 0.3731
vn -0.9192 0.1342 0.3703
vn -0.0423 0.9145 -0.4023
vn -0.0061 0.9063 -0.4227
vn -0.0051 0.9038 -0.428
vn -0.0419 0.9147 -0.4021
vn -0.0744 0.0865 -0.9935
vn -0.0775 0.0863 -0.9933
vn -0.0577 0.0437 -0.9974
vn -0.0564 0.0437 -0.9975
vn -0.5652 -0.579 0.5876
vn -0.5626 -0.5468 0.6201
vn -0.5614 -0.5473 0.6207
vn -0.5621 -0.579 0.5906
vn -0.5757 -0.7626 0.2951
vn -0.5769 -0.7417 0.3421
vn -0.5743 -0.7434 0.3427
vn -0.5757 -0.7626 0.2951
vn -0.4563 -0.3687 -0.8098
vn -0.4561 -0.3687 -0.81
vn -0.4563 -0.3687 -0.8098
vn -0.4563 -0.3687 -0.8098
vn -0.1553 0.9094 -0.3858
vn -0.1866 0.9037 -0.3854
vn -0.1864 0.9034 -0.3862
vn -0.1144 0.9143 -0.3885
vn -0.1148 0.9142 -0.3886
vn -0.0612 0.9804 0.187
vn -0.0624 0.9803 0.1875
vn -0.0905 0.9849 0.1478
vn -0.09 0.985 0.147
vn -0.7491 -0.2747 -0.6028
vn -0.7517 -0.2653 -0.6038
vn -0.7517 -0.266 -0.6035
vn -0.7487 -0.2756 -0.6029
vn -0.6486 0.1096 -0.7532
vn -0.6486 0.1095 -0.7532
vn -0.6706 0.1937 -0.7161
vn -0.6706 0.1937 -0.7161
vn -0.6732 0.1354 -0.727
vn -0.9174 0.3971 -0.0267
vn -0.9174 0.3971 -0.0267
vn -0.9174 0.3971 -0.0267
vn -0.8845 0.4646 0.0426
vn -0.8845 0.4646 0.0426
vn -0.8845 0.4646 0.0426
vn -0.3833 0.9168 -0.1119
vn -0.3833 0.9168 -0.1119
vn -0.3833 0.9168 -0.1119
vn -0.9548 0.251 -0.1593
vn -0.9548 0.251 -0.1593
vn -0.9548 0.251 -0.1593
vn -0.9657 0.1367 -0.2209
vn -0.9657 0.1367 -0.2209
vn -0.9657 0.1367 -0.2209
vn -0.6203 0.1648 -0.7669
vn -0.6203 0.1648 -0.7669
vn -0.6203 0.1648 -0.7669
vn -0.8826 0.4189 0.2132
vn -0.8928 0.4146 0.1761
vn -0.9005 0.4064 0.1547
vn -0.9267 0.3665 0.083
vn -0.9267 0.3665 0.0834
vn -0.9301 0.3548 0.0956
vn -0.8788 0.4276 0.2121
vn -0.7656 -0.3445 0.5434
vn -0.7656 -0.3445 0.5434
vn -0.7656 -0.3445 0.5434
vn -0.7656 -0.3445 0.5434
vn -0.9914 0.0751 -0.1068
vn -0.9917 0.1097 -0.0664
vn -0.9805 0.1496 -0.1274
vn -0.9805 0.1496 -0.1274
vn -0.4284 0.899 0.0916
vn -0.42 0.9029 0.0912
vn -0.4231 0.9015 0.0913
vn -0.4315 0.8975 0.0917
vn -0.743 -0.664 0.0839
vn -0.7338 -0.6697 0.114
vn -0.6873 -0.7198 0.0973
vn -0.6873 -0.7198 0.0973
vn -0.4317 0.9017 0.0221
vn -0.494 0.8681 -0.0492
vn -0.4501 0.8892 -0.0818
vn -0.4501 0.8892 -0.0818
vn -0.4437 0.8939 -0.0643
vn -0.4317 0.9017 0.0221
vn -0.0285 -0.057 -0.998
vn -0.0135 -0.0539 -0.9985
vn -0.0128 -0.0513 -0.9986
vn -0.0298 -0.058 -0.9979
vn -0.469 0.8293 -0.3038
vn -0.4688 0.8294 -0.3037
vn -0.4683 0.8293 -0.305
vn -0.468 0.8294 -0.305
vn -0.8052 -0.5575 0.202
vn -0.7678 -0.6298 0.1174
vn -0.7669 -0.6301 0.1216
vn -0.804 -0.5594 0.2017
vn -0.987 -0.1609 -0.0007
vn -0.987 -0.1609 -0.0007
vn -0.987 -0.1609 -0.0007
vn -0.9682 -0.2353 0.0851
vn -0.9682 -0.2353 0.0851
vn -0.9682 -0.2353 0.0851
vn -0.9919 -0.0706 0.1053
vn -0.9872 -0.1279 0.0954
vn -0.9927 -0.0862 0.084
vn -0.9812 0.0051 0.193
vn -0.9812 0.006 0.1927
vn -0.9511 0.2367 0.1982
vn -0.9538 0.2313 0.1918
vn -0.9804 0.1474 0.1309
vn -0.9782 0.1651 0.1262
vn -0.9808 0.1501 0.1243
vn -0.9808 0.1501 0.1243
vn -0.9817 0.1497 0.1173
vn -0.9817 0.1498 0.1173
vn -0.9794 0.1497 0.1353
vn -0.9821 0.1563 0.1053
vn -0.961 0.2055 0.1852
vn -0.9546 0.2152 0.2061
vn -0.9549 0.2147 0.2051
vn -0.9486 0.2331 0.2141
vn -0.5979 0.4518 -0.6621
vn -0.5979 0.4518 -0.6621
vn -0.6042 0.4592 -0.6513
vn -0.6042 0.4592 -0.6513
vn -0.9675 0.0903 -0.2361
vn -0.9675 0.0903 -0.2361
vn -0.9675 0.0903 -0.2361
vn -0.9871 -0.0252 -0.1583
vn -0.9871 -0.0252 -0.1583
vn -0.9871 -0.0252 -0.1583
vn -0.1738 0.2258 0.9586
vn -0.1611 0.2781 0.9469
vn -0.1943 0.2922 0.9364
vn -0.2168 0.2203 0.951
vn -0.2033 -0.4085 -0.8898
vn -0.2004 -0.4014 -0.8937
vn -0.292 -0.4074 -0.8653
vn -0.2908 -0.4068 -0.866
vn -0.2205 -0.4168 -0.8818
vn -0.958 0.2828 -0.0472
vn -0.958 0.2828 -0.0472
vn -0.951 0.3077 -0.0298
vn -0.2374 0.4687 -0.8508
vn -0.2384 0.468 -0.8509
vn -0.2385 0.4682 -0.8508
vn -0.2372 0.4688 -0.8509
vn -0.8659 0.3595 0.348
vn -0.8659 0.3594 0.3479
vn -0.8734 0.348 0.3406
vn -0.8734 0.348 0.3406
vn -0.4294 -0.2217 0.8755
vn -0.4292 -0.2218 0.8755
vn -0.4537 -0.2211 0.8633
vn -0.4532 -0.2212 0.8635
vn 0.0138 0.1336 -0.9909
vn 0.03 0.0306 -0.9991
vn 0.0192 0.0355 -0.9992
vn 0.0019 0.147 -0.9891
vn -0.0009 0.1442 -0.9895
vt 0 0
vt 0 0
vt 0 0
vt 0 0
vt 0 0
vt 0 0
vt 0 0
vt 0 0
vt 0 0
vt 0 0
vt 0 0
vt 0 0
vt 0 0
vt 0 0
vt 0 0
vt 0 0
vt 0 0
vt 0 0
vt 0 0
vt 0 0
vt 0 0
vt 0 0
vt 0 0
vt 0 0
vt 0 0
vt 0 0
vt 0 0
vt 0 0
vt 0 0
vt 0 0
vt 0 0
vt 0 0
vt 0 0
vt 0 0
vt 0 0
vt 0 0
vt 0 0
vt 0 0
vt 0 0
vt 0 0
vt 0 0
vt 0 0
vt 0 0
vt 0 0
vt 0 0
vt 0 0
vt 0 0
vt 0 0
vt 0 0
vt 0 0
vt 0 0
vt 0 0
vt 0 0
vt 0 0
vt 0 0
vt 0 0
vt 0 0
vt 0 0
vt 0 0
vt 0 0
vt 0 0
vt 0 0
vt 0 0
vt 0 0
vt 0 0
vt 0 0
vt 0 0
vt 0 0
vt 0 0
vt 0 0
vt 0 0
vt 0 0
vt 0 0
vt 0 0
vt 0 0
vt 0 0
vt 0 0
vt 0 0
vt 0 0
vt 0 0
vt 0 0
vt 0 0
vt 0 0
vt 0 0
vt 0 0
vt 0 0
vt 0 0
vt 0 0
vt 0 0
vt 0 0
vt 0 0
vt 0 0
vt 0 0
vt 0 0
vt 0 0
vt 0 0
vt 0 0
vt 0 0
vt 0 0
vt 0 0
vt 0 0
vt 0 0
vt 0 0
vt 0 0
vt 0 0
vt 0 0
vt 0 0
vt 0 0
vt 0 0
vt 0 0
vt 0 0
vt 0 0
vt 0 0
vt 0 0
vt 0 0
vt 0 0
vt 0 0
vt 0 0
vt 0 0
vt 0 0
vt 0 0
vt 0 0
vt 0 0
vt 0 0
vt 0 0
vt 0 0
vt 0 0
vt 0 0
vt 0 0
vt 0 0
vt 0 0
vt 0 0
vt 0 0
vt 0 0
vt 0 0
vt 0 0
vt 0 0
vt 0 0
vt 0 0
vt 0 0
vt 0 0
vt 0 0
vt 0 0
vt 0 0
vt 0 0
vt 0 0
vt 0 0
vt 0 0
vt 0 0
vt 0 0
vt 0 0
vt 0 0
vt 0 0
vt 0 0
vt 0 0
vt 0 0
vt 0 0
vt 0 0
vt 0 0
vt 0 0
vt 0 0
vt 0 0
vt 0 0
vt 0 0
vt 0 0
vt 0 0
vt 0 0
vt 0 0
vt 0 0
vt 0 0
vt 0 0
vt 0 0
vt 0 0
vt 0 0
vt 0 0
vt 0 0
vt 0 0
vt 0 0
vt 0 0
vt 0 0
vt 0 0
vt 0 0
vt 0 0
vt 0 0
vt 0 0
vt 0 0
vt 0 0
vt 0 0
vt 0 0
vt 0 0
vt 0 0
vt 0 0
vt 0 0
vt 0 0
vt 0 0
vt 0 0
vt 0 0
vt 0 0
vt 0 0
vt 0 0
vt 0 0
vt 0 0
vt 0 0
vt 0 0
vt 0 0
vt 0 0
vt 0 0
vt 0 0
vt 0 0
vt 0 0
vt 0 0
vt 0 0
vt 0 0
vt 0 0
vt 0 0
vt 0 0
vt 0 0
vt 0 0
vt 0 0
vt 0 0
vt 0 0
vt 0 0
vt 0 0
vt 0 0
vt 0 0
vt 0 0
vt 0 0
vt 0 0
vt 0 0
vt 0 0
vt 0 0
vt 0 0
vt 0 0
vt 0 0
vt 0 0
vt 0 0
vt 0 0
vt 0 0
vt 0 0
vt 0 0
vt 0 0
vt 0 0
vt 0 0
vt 0 0
vt 0 0
vt 0 0
vt 0 0
vt 0 0
vt 0 0
vt 0 0
vt 0 0
vt 0 0
vt 0 0
vt 0 0
vt 0 0
vt 0 0
vt 0 0
vt 0 0
vt 0 0
vt 0 0
vt 0 0
vt 0 0
vt 0 0
vt 0 0
vt 0 0
vt 0 0
vt 0 0
vt 0 0
vt 0 0
vt 0 0
vt 0 0
vt 0 0
vt 0 0
vt 0 0
vt 0 0
vt 0 0
vt 0 0
vt 0 0
vt 0 0
vt 0 0
vt 0 0
vt 0 0
vt 0 0
vt 0 0
vt 0 0
vt 0 0
vt 0 0
vt 0 0
vt 0 0
vt 0 0
vt 0 0
vt 0 0
vt 0 0
vt 0 0
vt 0 0
vt 0 0
vt 0 0
vt 0 0
vt 0 0
vt 0 0
vt 0 0
vt 0 0
vt 0 0
vt 0 0
vt 0 0
vt 0 0
vt 0 0
vt 0 0
vt 0 0
vt 0 0
vt 0 0
vt 0 0
vt 0 0
vt 0 0
vt 0 0
vt 0 0
vt 0 0
vt 0 0
vt 0 0
vt 0 0
vt 0 0
vt 0 0
s off
f 1/1/1 2/2/2 3/3/3
f 1/1/1 3/3/3 4/4/4
f 5/5/5 6/6/6 7/7/7
f 5/5/5 7/7/7 8/8/8
f 9/9/9 10/10/10 11/11/11
f 9/9/9 11/11/11 12/12/12
f 13/13/13 14/14/14 15/15/15
f 13/13/13 15/15/15 16/16/16
f 17/17/17 18/18/18 19/19/19
f 17/17/17 19/19/19 20/20/20
f 21/21/21 22/22/22 23/23/23
f 21/21/21 23/23/23 24/24/24
f 25/25/25 26/26/26 27/27/27
f 25/25/25 27/27/27 28/28/28
f 34/34/34 35/35/35 29/29/29
f 29/29/29 30/30/30 31/31/31
f 31/31/31 32/32/32 33/33/33
f 33/33/33 34/34/34 29/29/29
f 29/29/29 31/31/31 33/33/33
f 36/36/36 37/37/37 38/38/38
f 36/36/36 38/38/38 39/39/39
f 40/40/40 41/41/41 42/42/42
f 40/40/40 42/42/42 43/43/43
f 44/44/44 45/45/45 46/46/46
f 47/47/47 48/48/48 49/49/49
f 47/47/47 49/49/49 50/50/50
f 51/51/51 52/52/52 53/53/53
f 51/51/51 53/53/53 54/54/54
f 55/55/55 56/56/56 57/57/57
f 55/55/55 57/57/57 58/58/58
f 59/59/59 60/60/60 61/61/61
f 59/59/59 61/61/61 62/62/62
f 67/67/67 68/68/68 63/63/63
f 63/63/63 64/64/64 65/65/65
f 65/65/65 66/66/66 67/67/67
f 67/67/67 63/63/63 65/65/65
f 69/69/69 70/70/70 71/71/71
f 69/69/69 71/71/71 72/72/72
f 73/73/73 74/74/74 75/75/75
f 73/73/73 75/75/75 76/76/76
f 87/87/87 88/88/88 77/77/77
f 77/77/77 78/78/78 79/79/79
f 79/79/79 80/80/80 81/81/81
f 81/81/81 82/82/82 83/83/83
f 83/83/83 84/84/84 85/85/85
f 85/85/85 86/86/86 87/87/87
f 87/87/87 77/77/77 79/79/79
f 81/81/81 83/83/83 85/85/85
f 87/87/87 79/79/79 81/81/81
f 81/81/81 85/85/85 87/87/87
f 89/89/89 90/90/90 91/91/91
f 89/89/89 91/91/91 92/92/92
f 93/93/93 94/94/94 95/95/95
f 93/93/93 95/95/95 96/96/96
f 100/100/100 101/101/101 97/97/97
f 97/97/97 98/98/98 99/99/99
f 99/99/99 100/100/100 97/97/97
f 102/102/102 103/103/103 104/104/104
f 102/102/102 104/104/104 105/105/105
f 106/106/106 107/107/107 108/108/108
f 106/106/106 108/108/108 109/109/109
f 110/110/110 111/111/111 112/112/112
f 110/110/110 112/112/112 113/113/113
f 114/114/114 115/115/115 116/116/116
f 114/114/114 116/116/116 117/117/117
f 118/118/118 119/119/119 120/120/120
f 118/118/118 120/120/120 121/121/121
f 125/125/125 126/126/126 122/122/122
f 122/122/122 123/123/123 124/124/124
f 124/124/124 125/125/125 122/122/122
f 127/127/127 128/128/128 129/129/129
f 127/127/127 129/129/129 130/130/130
f 131/131/131 132/132/132 133/133/133
f 131/131/131 133/133/133 134/134/134
f 139/139/139 140/140/140 135/135/135
f 135/135/135 136/136/136 137/137/137
f 137/137/137 138/138/138 139/139/139
f 139/139/139 135/135/135 137/137/137
f 141/141/141 142/142/142 143/143/143
f 141/141/141 143/143/143 144/144/144
f 145/145/145 146/146/146 147/147/147
f 145/145/145 147/147/147 148/148/148
f 152/152/152 153/153/153 149/149/149
f 149/149/149 150/150/150 151/151/151
f 151/151/151 152/152/152 149/149/149
f 154/154/154 155/155/155 156/156/156
f 154/154/154 156/156/156 157/157/157
f 158/158/158 159/159/159 160/160/160
f 158/158/158 160/160/160 161/161/161
f 162/162/162 163/163/163 164/164/164
f 162/162/162 164/164/164 165/165/165
f 166/166/166 167/167/167 168/168/168
f 166/166/166 168/168/168 169/169/169
f 170/170/170 171/171/171 172/172/172
f 170/170/170 172/172/172 173/173/173
f 174/174/174 175/175/175 176/176/176
f 174/174/174 176/176/176 177/177/177
f 178/178/178 179/179/179 180/180/180
f 178/178/178 180/180/180 181/181/181
f 185/185/185 186/186/186 182/182/182
f 182/182/182 183/183/183 184/184/184
f 184/184/184 185/185/185 182/182/182
f 187/187/187 188/188/188 189/189/189
f 187/187/187 189/189/189 190/190/190
f 191/191/191 192/192/192 193/193/193
f 191/191/191 193/193/193 194/194/194
f 199/199/199 195/195/195 196/196/196
f 196/196/196 197/197/197 198/198/198
f 198/198/198 199/199/199 196/196/196
f 200/200/200 201/201/201 202/202/202
f 203/203/203 204/204/204 205/205/205
f 206/206/206 207/207/207 208/208/208
f 209/209/209 210/210/210 211/211/211
f 212/212/212 213/213/213 214/214/214
f 215/215/215 216/216/216 217/217/217
f 223/223/223 224/224/224 218/218/218
f 218/218/218 219/219/219 220/220/220
f 220/220/220 221/221/221 222/222/222
f 223/223/223 218/218/218 220/220/220
f 220/220/220 222/222/222 223/223/223
f 225/225/225 226/226/226 227/227/227
f 225/225/225 227/227/227 228/228/228
f 229/229/229 230/230/230 231/231/231
f 229/229/229 231/231/231 232/232/232
f 233/233/233 234/234/234 235/235/235
f 233/233/233 235/235/235 236/236/236
f 237/237/237 238/238/238 239/239/239
f 237/237/237 239/239/239 240/240/240
f 245/245/245 246/246/246 241/241/241
f 242/242/242 243/243/243 244/244/244
f 244/244/244 245/245/245 241/241/241
f 241/241/241 242/242/242 244/244/244
f 247/247/247 248/248/248 249/249/249
f 247/247/247 249/249/249 250/250/250
f 251/251/251 252/252/252 253/253/253
f 251/251/251 253/253/253 254/254/254
f 255/255/255 256/256/256 257/257/257
f 255/255/255 257/257/257 258/258/258
f 259/259/259 260/260/260 261/261/261
f 262/262/262 263/263/263 264/264/264
f 268/268/268 269/269/269 265/265/265
f 265/265/265 266/266/266 267/267/267
f 267/267/267 268/268/268 265/265/265
f 282/282/282 283/283/283 270/270/270
f 270/270/270 271/271/271 272/272/272
f 272/272/272 273/273/273 274/274/274
f 274/274/274 275/275/275 276/276/276
f 276/276/276 277/277/277 278/278/278
f 278/278/278 279/279/279 280/280/280
f 280/280/280 281/281/281 282/282/282
f 270/270/270 272/272/272 274/274/274
f 276/276/276 278/278/278 280/280/280
f 280/280/280 282/282/282 270/270/270
f 270/270/270 274/274/274 276/276/276
f 276/276/276 280/280/280 270/270/270
f 284/284/284 285/285/285 286/286/286
f 284/284/284 286/286/286 287/287/287
f 288/288/288 289/289/289 290/290/290
f 291/291/291 292/292/292 293/293/293
f 294/294/294 295/295/295 296/296/296
f 294/294/294 296/296/296 297/297/297
f 302/302/302 298/298/298 299/299/299
f 299/299/299 300/300/300 301/301/301
f 301/301/301 302/302/302 299/299/299
f 303/303/303 304/304/304 305/305/305
f 306/306/306 307/307/307 308/308/308
f 306/306/306 308/308/308 309/309/309
f 310/310/310 311/311/311 312/312/312
f 310/310/310 312/312/312 313/313/313
f 314/314/314 315/315/315 316/316/316
f 314/314/314 316/316/316 317/317/317
f 321/321/321 322/322/322 318/318/318
f 318/318/318 319/319/319 320/320/320
f 320/320/320 321/321/321 318/318/318
