v 0.020573 0.595335 -0.10107
v 0.02115 0.594541 -0.102305
v 0.021169 0.506824 -0.102408
v 0.020574 0.506824 -0.10097
v 0.109837 0.506824 -0.100971
v 0.109848 0.595264 -0.101118
v 0.109841 0.606604 -0.092069
v 0.109806 0.616462 -0.048048
v 0.109837 0.506823 -0.048699
v 0.109079 0.618213 -0.04691
v 0.109678 0.616735 -0.046811
v 0.109806 0.616462 -0.048048
v 0.109207 0.61794 -0.04809
v 0.021148 0.606823 -0.093474
v 0.020572 0.60667 -0.092015
v 0.021148 0.608051 -0.091515
v 0.021418 0.607801 -0.092724
v 0.038411 0.626675 -0.008003
v 0.038614 0.625221 -0.007346
v 0.040213 0.625106 -0.007944
v 0.039948 0.626553 -0.008574
v 0.033611 0.625441 -0.006591
v 0.031897 0.625453 -0.006713
v 0.031837 0.506826 -0.006603
v 0.033542 0.506824 -0.006489
v 0.108448 0.618737 -0.044669
v 0.10903 0.617262 -0.04443
v 0.109414 0.617002 -0.045594
v 0.108817 0.618481 -0.045752
v 0.021148 0.608051 -0.091515
v 0.020572 0.60667 -0.092015
v 0.020668 0.623283 -0.018131
v 0.021281 0.624753 -0.018225
v 0.109265 0.607985 -0.091569
v 0.109841 0.606604 -0.092069
v 0.109267 0.606758 -0.093528
v 0.108997 0.607734 -0.092778
v 0.108469 0.617504 -0.043334
v 0.107782 0.617714 -0.042341
v 0.107812 0.50682 -0.042963
v 0.108499 0.50682 -0.043968
v 0.036967 0.625318 -0.006917
v 0.036934 0.506824 -0.006854
v 0.038599 0.506824 -0.00731
v 0.038614 0.625221 -0.007346
v 0.10594 0.618051 -0.040682
v 0.040213 0.625106 -0.007944
v 0.040209 0.506824 -0.007934
v 0.105976 0.50682 -0.041291
v 0.028558 0.625275 -0.00771
v 0.028546 0.506826 -0.007616
v 0.030169 0.506826 -0.006995
v 0.030205 0.625399 -0.007101
v 0.107266 0.619176 -0.042741
v 0.107782 0.617714 -0.042341
v 0.108469 0.617504 -0.043334
v 0.107911 0.618972 -0.04365
v 0.10903 0.617262 -0.04443
v 0.108448 0.618737 -0.044669
v 0.107911 0.618972 -0.04365
v 0.108469 0.617504 -0.043334
v 0.021149 0.596724 -0.101541
v 0.021419 0.595776 -0.102329
v 0.02115 0.594541 -0.102305
v 0.020573 0.595335 -0.10107
v 0.105527 0.619506 -0.041213
v 0.10594 0.618051 -0.040682
v 0.106925 0.617892 -0.041469
v 0.106465 0.619349 -0.041946
v 0.106465 0.619349 -0.041946
v 0.106925 0.617892 -0.041469
v 0.107782 0.617714 -0.042341
v 0.107266 0.619176 -0.042741
v 0.109271 0.596655 -0.101591
v 0.109848 0.595264 -0.101118
v 0.109273 0.594472 -0.102353
v 0.109003 0.595707 -0.102378
v 0.107747 0.607117 -0.094137
v 0.107753 0.597171 -0.102077
v 0.022669 0.597239 -0.102029
v 0.022667 0.607182 -0.094086
v 0.035247 0.626869 -0.007338
v 0.035305 0.625403 -0.006644
v 0.036967 0.625318 -0.006917
v 0.038614 0.625221 -0.007346
v 0.038411 0.626675 -0.008003
v 0.021281 0.624753 -0.018225
v 0.02275 0.625322 -0.018452
v 0.022667 0.608757 -0.091575
v 0.021148 0.608051 -0.091515
v 0.021542 0.506824 -0.014921
v 0.021541 0.623935 -0.014865
v 0.021013 0.623625 -0.016452
v 0.021019 0.506824 -0.016536
v 0.021149 0.596724 -0.101541
v 0.022669 0.595923 -0.102756
v 0.021419 0.595776 -0.102329
v 0.021149 0.596724 -0.101541
v 0.022669 0.597239 -0.102029
v 0.022669 0.595923 -0.102756
v 0.021148 0.606823 -0.093474
v 0.022667 0.607182 -0.094086
v 0.022669 0.597239 -0.102029
v 0.021149 0.596724 -0.101541
v 0.109707 0.506823 -0.047457
v 0.109678 0.616735 -0.046811
v 0.109414 0.617002 -0.045594
v 0.109441 0.506822 -0.046236
v 0.022667 0.607182 -0.094086
v 0.022667 0.608182 -0.092964
v 0.107747 0.608118 -0.093015
v 0.107747 0.607117 -0.094137
v 0.020572 0.60667 -0.092015
v 0.021148 0.606823 -0.093474
v 0.021149 0.596724 -0.101541
v 0.020573 0.595335 -0.10107
v 0.02356 0.625917 -0.015645
v 0.022142 0.625398 -0.015098
v 0.023735 0.62595 -0.01229
v 0.024985 0.626413 -0.013196
v 0.020682 0.506823 -0.018248
v 0.020668 0.623283 -0.018131
v 0.020572 0.60667 -0.092015
v 0.020573 0.595335 -0.10107
v 0.020574 0.506824 -0.10097
v 0.021148 0.608051 -0.091515
v 0.022667 0.608757 -0.091575
v 0.022667 0.608182 -0.092964
v 0.109265 0.607985 -0.091569
v 0.107747 0.608691 -0.091626
v 0.107652 0.618783 -0.047163
v 0.109079 0.618213 -0.04691
v 0.109207 0.61794 -0.04809
v 0.0232 0.62449 -0.011897
v 0.023194 0.506824 -0.011895
v 0.024309 0.506824 -0.010563
v 0.024306 0.624733 -0.010595
v 0.021148 0.608051 -0.091515
v 0.022667 0.608182 -0.092964
v 0.021418 0.607801 -0.092724
v 0.022667 0.608182 -0.092964
v 0.021148 0.606823 -0.093474
v 0.021418 0.607801 -0.092724
v 0.108469 0.617504 -0.043334
v 0.108499 0.50682 -0.043968
v 0.109057 0.506822 -0.045068
v 0.10903 0.617262 -0.04443
v 0.107747 0.608691 -0.091626
v 0.107747 0.608118 -0.093015
v 0.022667 0.608182 -0.092964
v 0.022667 0.608757 -0.091575
v 0.021628 0.625093 -0.016604
v 0.021013 0.623625 -0.016452
v 0.021541 0.623935 -0.014865
v 0.022142 0.625398 -0.015098
v 0.107752 0.594375 -0.103055
v 0.022667 0.594442 -0.103008
v 0.022669 0.595923 -0.102756
v 0.107752 0.595855 -0.102804
v 0.108448 0.618737 -0.044669
v 0.107081 0.619256 -0.045243
v 0.106075 0.619635 -0.043683
v 0.107266 0.619176 -0.042741
v 0.107911 0.618972 -0.04365
v 0.025575 0.624938 -0.009476
v 0.025999 0.626397 -0.010008
v 0.024792 0.626188 -0.011061
v 0.024306 0.624733 -0.010595
v 0.028842 0.626746 -0.008345
v 0.029488 0.627114 -0.009765
v 0.026987 0.626809 -0.011214
v 0.025999 0.626397 -0.010008
v 0.10459 0.619918 -0.042437
v 0.105527 0.619506 -0.041213
v 0.106465 0.619349 -0.041946
v 0.107266 0.619176 -0.042741
v 0.106075 0.619635 -0.043683
v 0.028558 0.625275 -0.00771
v 0.028842 0.626746 -0.008345
v 0.025999 0.626397 -0.010008
v 0.025575 0.624938 -0.009476
v 0.028546 0.506826 -0.007616
v 0.028558 0.625275 -0.00771
v 0.025575 0.624938 -0.009476
v 0.025583 0.506824 -0.00942
v 0.033633 0.626916 -0.00729
v 0.033611 0.625441 -0.006591
v 0.035305 0.625403 -0.006644
v 0.035247 0.626869 -0.007338
v 0.023735 0.62595 -0.01229
v 0.0232 0.62449 -0.011897
v 0.024306 0.624733 -0.010595
v 0.024792 0.626188 -0.011061
v 0.030411 0.626874 -0.00777
v 0.030205 0.625399 -0.007101
v 0.031897 0.625453 -0.006713
v 0.032011 0.626929 -0.007406
v 0.035252 0.506824 -0.006558
v 0.035305 0.625403 -0.006644
v 0.033611 0.625441 -0.006591
v 0.033542 0.506824 -0.006489
v 0.020668 0.623283 -0.018131
v 0.020682 0.506823 -0.018248
v 0.021019 0.506824 -0.016536
v 0.021013 0.623625 -0.016452
v 0.109806 0.616462 -0.048048
v 0.109678 0.616735 -0.046811
v 0.109707 0.506823 -0.047457
v 0.109837 0.506823 -0.048699
v 0.032258 0.627248 -0.008951
v 0.032011 0.626929 -0.007406
v 0.033633 0.626916 -0.00729
v 0.035247 0.626869 -0.007338
v 0.038411 0.626675 -0.008003
v 0.037949 0.627043 -0.009485
v 0.10903 0.617262 -0.04443
v 0.109057 0.506822 -0.045068
v 0.109441 0.506822 -0.046236
v 0.109414 0.617002 -0.045594
v 0.109207 0.61794 -0.04809
v 0.109806 0.616462 -0.048048
v 0.109841 0.606604 -0.092069
v 0.109265 0.607985 -0.091569
v 0.032011 0.626929 -0.007406
v 0.032258 0.627248 -0.008951
v 0.029488 0.627114 -0.009765
v 0.028842 0.626746 -0.008345
v 0.030411 0.626874 -0.00777
v 0.022142 0.625398 -0.015098
v 0.021541 0.623935 -0.014865
v 0.0232 0.62449 -0.011897
v 0.023735 0.62595 -0.01229
v 0.107805 0.506823 -0.103005
v 0.022607 0.506824 -0.103004
v 0.022667 0.594442 -0.103008
v 0.107752 0.594375 -0.103055
v 0.0232 0.62449 -0.011897
v 0.021541 0.623935 -0.014865
v 0.021542 0.506824 -0.014921
v 0.023194 0.506824 -0.011895
v 0.109271 0.596655 -0.101591
v 0.107753 0.597171 -0.102077
v 0.107747 0.607117 -0.094137
v 0.109267 0.606758 -0.093528
v 0.022607 0.506824 -0.103004
v 0.021169 0.506824 -0.102408
v 0.02115 0.594541 -0.102305
v 0.022667 0.594442 -0.103008
v 0.033611 0.625441 -0.006591
v 0.033633 0.626916 -0.00729
v 0.032011 0.626929 -0.007406
v 0.031897 0.625453 -0.006713
v 0.109267 0.606758 -0.093528
v 0.109841 0.606604 -0.092069
v 0.109848 0.595264 -0.101118
v 0.109271 0.596655 -0.101591
v 0.02356 0.625917 -0.015645
v 0.024985 0.626413 -0.013196
v 0.026987 0.626809 -0.011214
v 0.029488 0.627114 -0.009765
v 0.032258 0.627248 -0.008951
v 0.037949 0.627043 -0.009485
v 0.10459 0.619918 -0.042437
v 0.106075 0.619635 -0.043683
v 0.107081 0.619256 -0.045243
v 0.107652 0.618783 -0.047163
v 0.107747 0.608691 -0.091626
v 0.022667 0.608757 -0.091575
v 0.02275 0.625322 -0.018452
v 0.107812 0.50682 -0.042963
v 0.107782 0.617714 -0.042341
v 0.106925 0.617892 -0.041469
v 0.106957 0.50682 -0.042084
v 0.031837 0.506826 -0.006603
v 0.031897 0.625453 -0.006713
v 0.030205 0.625399 -0.007101
v 0.030169 0.506826 -0.006995
v 0.10594 0.618051 -0.040682
v 0.105976 0.50682 -0.041291
v 0.106957 0.50682 -0.042084
v 0.106925 0.617892 -0.041469
v 0.039948 0.626553 -0.008574
v 0.105527 0.619506 -0.041213
v 0.10459 0.619918 -0.042437
v 0.037949 0.627043 -0.009485
v 0.038411 0.626675 -0.008003
v 0.107747 0.608118 -0.093015
v 0.107747 0.608691 -0.091626
v 0.109265 0.607985 -0.091569
v 0.021013 0.623625 -0.016452
v 0.021628 0.625093 -0.016604
v 0.021281 0.624753 -0.018225
v 0.020668 0.623283 -0.018131
v 0.107747 0.608118 -0.093015
v 0.109265 0.607985 -0.091569
v 0.108997 0.607734 -0.092778
v 0.024985 0.626413 -0.013196
v 0.023735 0.62595 -0.01229
v 0.024792 0.626188 -0.011061
v 0.025999 0.626397 -0.010008
v 0.026987 0.626809 -0.011214
v 0.10594 0.618051 -0.040682
v 0.105527 0.619506 -0.041213
v 0.039948 0.626553 -0.008574
v 0.040213 0.625106 -0.007944
v 0.109267 0.606758 -0.093528
v 0.107747 0.607117 -0.094137
v 0.107747 0.608118 -0.093015
v 0.109267 0.606758 -0.093528
v 0.107747 0.608118 -0.093015
v 0.108997 0.607734 -0.092778
v 0.107752 0.595855 -0.102804
v 0.107753 0.597171 -0.102077
v 0.109271 0.596655 -0.101591
v 0.109273 0.594472 -0.102353
v 0.107752 0.595855 -0.102804
v 0.109003 0.595707 -0.102378
v 0.109273 0.594472 -0.102353
v 0.107752 0.594375 -0.103055
v 0.107752 0.595855 -0.102804
v 0.107752 0.595855 -0.102804
v 0.109271 0.596655 -0.101591
v 0.109003 0.595707 -0.102378
v 0.025583 0.506824 -0.00942
v 0.025575 0.624938 -0.009476
v 0.024306 0.624733 -0.010595
v 0.024309 0.506824 -0.010563
v 0.109079 0.618213 -0.04691
v 0.107652 0.618783 -0.047163
v 0.107081 0.619256 -0.045243
v 0.108448 0.618737 -0.044669
v 0.108817 0.618481 -0.045752
v 0.028842 0.626746 -0.008345
v 0.028558 0.625275 -0.00771
v 0.030205 0.625399 -0.007101
v 0.030411 0.626874 -0.00777
v 0.109837 0.506824 -0.100971
v 0.109242 0.506823 -0.10241
v 0.109273 0.594472 -0.102353
v 0.109848 0.595264 -0.101118
v 0.022669 0.595923 -0.102756
v 0.022667 0.594442 -0.103008
v 0.02115 0.594541 -0.102305
v 0.107752 0.595855 -0.102804
v 0.022669 0.595923 -0.102756
v 0.022669 0.597239 -0.102029
v 0.107753 0.597171 -0.102077
v 0.036934 0.506824 -0.006854
v 0.036967 0.625318 -0.006917
v 0.035305 0.625403 -0.006644
v 0.035252 0.506824 -0.006558
v 0.040213 0.625106 -0.007944
v 0.038614 0.625221 -0.007346
v 0.038599 0.506824 -0.00731
v 0.040209 0.506824 -0.007934
v 0.109678 0.616735 -0.046811
v 0.109079 0.618213 -0.04691
v 0.108817 0.618481 -0.045752
v 0.109414 0.617002 -0.045594
v 0.109242 0.506823 -0.10241
v 0.107805 0.506823 -0.103005
v 0.107752 0.594375 -0.103055
v 0.109273 0.594472 -0.102353
v 0.022142 0.625398 -0.015098
v 0.02356 0.625917 -0.015645
v 0.02275 0.625322 -0.018452
v 0.021281 0.624753 -0.018225
v 0.021628 0.625093 -0.016604
v 0.022667 0.608182 -0.092964
v 0.022667 0.607182 -0.094086
v 0.021148 0.606823 -0.093474
v 0.022669 0.595923 -0.102756
v 0.02115 0.594541 -0.102305
v 0.021419 0.595776 -0.102329
vn -0.9061 0.0003 -0.423
vn -0.9061 0.0003 -0.423
vn -0.924 -0.0004 -0.3825
vn -0.924 -0.0004 -0.3825
vn 1 -0.0001 0.0007
vn 1 -0.0001 0.0007
vn 1 0.0001 0.0004
vn 1 0.0001 0.0004
vn 1 0.0002 0.0001
vn 0.9266 0.3759 0.0128
vn 0.9265 0.3761 0.0125
vn 0.9266 0.3759 0.0128
vn 0.9266 0.3759 0.0128
vn -0.8468 0.4507 -0.2823
vn -0.8435 0.4553 -0.2852
vn -0.8468 0.4508 -0.2823
vn -0.8473 0.4501 -0.2819
vn 0.3443 0.4266 0.8363
vn 0.344 0.4262 0.8366
vn 0.3443 0.4266 0.8363
vn 0.3448 0.4271 0.8359
vn -0.0678 0.0009 0.9977
vn -0.0707 0.001 0.9975
vn -0.0696 0.001 0.9976
vn -0.0666 0.0009 0.9978
vn 0.8975 0.388 0.2098
vn 0.8975 0.3881 0.2095
vn 0.8975 0.3854 0.2146
vn 0.8974 0.3852 0.2151
vn -0.9064 0.412 -0.0929
vn -0.9065 0.412 -0.0929
vn -0.9237 0.3826 -0.0217
vn -0.9231 0.3839 -0.0207
vn 0.8468 0.4512 -0.2819
vn 0.8438 0.4551 -0.2844
vn 0.8468 0.4511 -0.2818
vn 0.8472 0.4505 -0.2815
vn 0.8245 -0.003 0.5659
vn 0.8221 -0.003 0.5693
vn 0.8231 -0.003 0.5679
vn 0.8255 -0.003 0.5644
vn 0.2641 0.0004 0.9645
vn 0.2641 0.0004 0.9645
vn 0.2521 0.0003 0.9677
vn 0.2521 0.0003 0.9677
vn 0.5059 -0.0046 0.8626
vn 0.4512 -0 0.8924
vn 0.4513 -0 0.8924
vn 0.5059 -0.0046 0.8626
vn -0.3573 0.0008 0.934
vn -0.3573 0.0008 0.934
vn -0.3469 0.0009 0.9379
vn -0.3469 0.0009 0.9379
vn 0.7898 0.4043 0.4613
vn 0.7898 0.4048 0.4608
vn 0.7877 0.4006 0.468
vn 0.7874 0.4003 0.4689
vn 0.848 0.3929 0.3556
vn 0.848 0.3924 0.3563
vn 0.8492 0.3974 0.3476
vn 0.8494 0.3976 0.347
vn -0.8466 0.1757 -0.5025
vn -0.8471 0.1755 -0.5017
vn -0.8465 0.1757 -0.5025
vn -0.8431 0.1776 -0.5076
vn 0.6068 0.4185 0.6758
vn 0.6072 0.4186 0.6754
vn 0.6033 0.4145 0.6814
vn 0.6031 0.414 0.6819
vn 0.6902 0.4124 0.5946
vn 0.6904 0.4129 0.594
vn 0.6865 0.4077 0.6021
vn 0.6861 0.4072 0.6029
vn 0.8476 0.1755 -0.5008
vn 0.8438 0.1774 -0.5065
vn 0.8476 0.1755 -0.5008
vn 0.8481 0.1751 -0.5
vn -0 0.624 -0.7814
vn -0 0.624 -0.7814
vn -0 0.624 -0.7814
vn -0 0.624 -0.7814
vn 0.168 0.4277 0.8882
vn 0.1675 0.4273 0.8885
vn 0.2515 0.4271 0.8685
vn 0.2517 0.4273 0.8684
vn 0.2519 0.4275 0.8682
vn -0.3791 0.9088 -0.1742
vn -0.3788 0.909 -0.174
vn -0.4195 0.8851 -0.2017
vn -0.4195 0.8851 -0.2017
vn -0.9489 -0.0002 0.3157
vn -0.9489 -0.0002 0.3157
vn -0.9513 -0.0003 0.3083
vn -0.9513 -0.0003 0.3083
vn -0.3279 0.5466 -0.7705
vn -0.3279 0.5466 -0.7705
vn -0.3279 0.5466 -0.7705
vn -0.4063 0.4422 -0.7996
vn -0.4063 0.4422 -0.7996
vn -0.4063 0.4422 -0.7996
vn -0.4194 0.5665 -0.7093
vn -0.4194 0.5665 -0.7093
vn -0.4194 0.5665 -0.7093
vn -0.4194 0.5665 -0.7093
vn 0.9772 -0.001 0.2124
vn 0.9772 -0.001 0.2124
vn 0.9772 -0.001 0.2124
vn 0.9772 -0.001 0.2124
vn 0.0002 0.7464 -0.6656
vn 0.0002 0.7464 -0.6656
vn 0.0005 0.7463 -0.6656
vn 0.0002 0.7464 -0.6656
vn -0.9063 0.2637 -0.3302
vn -0.9063 0.2637 -0.3302
vn -0.9063 0.2637 -0.3302
vn -0.9063 0.2637 -0.3302
vn -0.3462 0.9382 -0.0043
vn -0.3451 0.9385 -0.0039
vn -0.3351 0.942 0.0201
vn -0.3348 0.9421 0.0202
vn -0.9979 -0.0002 0.0644
vn -0.9979 -0.0002 0.0644
vn -1 -0 -0.0001
vn -1 -0 -0.0001
vn -1 -0 -0
vn -0.4064 0.8443 -0.3492
vn -0.4064 0.8443 -0.3492
vn -0.4064 0.8443 -0.3492
vn 0.4195 0.8852 -0.2009
vn 0.4195 0.8852 -0.2009
vn 0.3911 0.9049 -0.1677
vn 0.391 0.9051 -0.1671
vn 0.3884 0.8983 -0.2052
vn -0.767 -0 0.6417
vn -0.767 -0 0.6417
vn -0.7623 0.0002 0.6472
vn -0.7623 0.0002 0.6472
vn -0.327 0.9085 -0.2602
vn -0.327 0.9085 -0.2602
vn -0.327 0.9085 -0.2602
vn -0.3274 0.6302 -0.704
vn -0.3274 0.6302 -0.704
vn -0.3274 0.6302 -0.704
vn 0.8917 -0.0024 0.4526
vn 0.8917 -0.0024 0.4526
vn 0.89 -0.0024 0.4559
vn 0.89 -0.0024 0.4559
vn 0.0005 0.9243 -0.3818
vn 0.0005 0.9243 -0.3818
vn 0.0005 0.9243 -0.3818
vn 0.0005 0.9243 -0.3818
vn -0.8888 0.4006 0.2227
vn -0.8917 0.396 0.2192
vn -0.8902 0.3984 0.2208
vn -0.8887 0.4009 0.2226
vn -0.0005 0.1668 -0.986
vn -0.0004 0.1678 -0.9858
vn -0.0004 0.1678 -0.9858
vn -0.0005 0.1669 -0.986
vn 0.3648 0.9307 -0.0261
vn 0.3648 0.9307 -0.0268
vn 0.339 0.9403 0.0292
vn 0.339 0.9403 0.0295
vn 0.3653 0.9306 -0.0226
vn -0.6368 0.4205 0.6463
vn -0.6364 0.4209 0.6464
vn -0.6368 0.4205 0.6463
vn -0.6372 0.4201 0.6462
vn -0.1942 0.9675 0.1621
vn -0.1942 0.9675 0.1619
vn -0.2214 0.9639 0.148
vn -0.2215 0.9638 0.1481
vn 0.2586 0.9578 0.1251
vn 0.2586 0.9579 0.1248
vn 0.2942 0.9515 0.09
vn 0.2938 0.9515 0.0917
vn 0.2939 0.9514 0.0921
vn -0.4685 0.4238 0.7752
vn -0.4679 0.4244 0.7752
vn -0.524 0.4224 0.7396
vn -0.5241 0.4223 0.7396
vn -0.4803 0.0007 0.8771
vn -0.4803 0.0008 0.8771
vn -0.5388 0.0004 0.8424
vn -0.5414 0.0005 0.8407
vn 0.0385 0.4282 0.9029
vn 0.0379 0.4277 0.9031
vn 0.0385 0.4282 0.9029
vn 0.0392 0.4288 0.9025
vn -0.7291 0.4158 0.5436
vn -0.7305 0.4142 0.5429
vn -0.7291 0.4158 0.5436
vn -0.7275 0.4176 0.5444
vn -0.215 0.4284 0.8776
vn -0.2152 0.4282 0.8777
vn -0.215 0.4284 0.8776
vn -0.215 0.4284 0.8776
vn 0.031 0.0007 0.9995
vn 0.031 0.0007 0.9995
vn 0.0403 0.0008 0.9992
vn 0.0403 0.0008 0.9992
vn -0.9811 -0.0003 0.1935
vn -0.9811 -0.0003 0.1935
vn -0.9795 -0.0002 0.2013
vn -0.9795 -0.0002 0.2013
vn 0.9946 -0.0003 0.104
vn 0.9947 -0.0003 0.1026
vn 0.9947 -0.0003 0.1032
vn 0.9945 -0.0003 0.1045
vn -0.0031 0.9801 0.1983
vn -0.0061 0.9796 0.2007
vn 0.034 0.9799 0.1964
vn 0.0874 0.9767 0.1962
vn 0.1098 0.9722 0.2069
vn 0.1104 0.972 0.2076
vn 0.9501 -0.0016 0.3121
vn 0.9501 -0.0016 0.3121
vn 0.9496 -0.0016 0.3135
vn 0.9496 -0.0016 0.3135
vn 0.9245 0.3721 -0.0826
vn 0.9245 0.3722 -0.0826
vn 0.9064 0.412 -0.0931
vn 0.9064 0.412 -0.0931
vn -0.0678 0.9793 0.1909
vn -0.0674 0.9793 0.1908
vn -0.1354 0.9745 0.1792
vn -0.1466 0.9718 0.1847
vn -0.0789 0.9771 0.1975
vn -0.8428 0.4047 0.3549
vn -0.8438 0.4033 0.354
vn -0.8108 0.4089 0.4189
vn -0.8098 0.4101 0.4195
vn -0.0003 -0.0003 -1
vn -0.0006 -0 -1
vn -0.0006 -0 -1
vn -0.0003 -0.0003 -1
vn -0.8537 0.0001 0.5208
vn -0.8915 -0.0002 0.453
vn -0.893 -0.0002 0.4501
vn -0.8537 0.0001 0.5208
vn 0.4187 0.5666 -0.7097
vn 0.4197 0.5664 -0.7093
vn 0.4195 0.5664 -0.7094
vn 0.4186 0.5666 -0.7098
vn -0.3825 0.001 -0.924
vn -0.3825 0.001 -0.924
vn -0.4205 0.0002 -0.9073
vn -0.4204 0.0002 -0.9073
vn -0.0608 0.4282 0.9017
vn -0.0608 0.4282 0.9017
vn -0.0608 0.4282 0.9017
vn -0.0608 0.4282 0.9017
vn 0.9067 0.2634 -0.3295
vn 0.9067 0.2634 -0.3295
vn 0.9067 0.2634 -0.3295
vn 0.9067 0.2634 -0.3295
vn 0.0317 0.9765 -0.213
vn 0.0305 0.9754 -0.2183
vn -0.022 0.9846 -0.1736
vn 0.01 0.9754 -0.2204
vn 0.03 0.9704 -0.2396
vn 0.0195 0.9881 -0.1526
vn -0.0124 0.9718 -0.2356
vn -0.0337 0.966 -0.2562
vn -0.0041 0.9705 -0.241
vn -0.0041 0.9711 -0.2385
vn 0.0007 0.9752 -0.2211
vn 0.0006 0.9753 -0.221
vn 0.0539 0.9731 -0.224
vn 0.7129 -0.0037 0.7013
vn 0.7129 -0.0037 0.7013
vn 0.7168 -0.0037 0.6973
vn 0.7168 -0.0037 0.6973
vn -0.2238 0.001 0.9746
vn -0.2239 0.001 0.9746
vn -0.2285 0.0009 0.9735
vn -0.2285 0.0009 0.9735
vn 0.6289 -0.0041 0.7775
vn 0.6289 -0.0041 0.7775
vn 0.6238 -0.0042 0.7815
vn 0.6239 -0.0041 0.7815
vn 0.1919 0.9651 0.1781
vn 0.2111 0.9638 0.1627
vn 0.211 0.9638 0.1628
vn 0.1485 0.9692 0.1962
vn 0.1492 0.9694 0.1948
vn 0.4063 0.8447 -0.3485
vn 0.4063 0.8447 -0.3485
vn 0.4063 0.8447 -0.3485
vn -0.9148 0.3891 0.1087
vn -0.9124 0.3937 0.1123
vn -0.9124 0.3936 0.112
vn -0.9148 0.3889 0.1089
vn 0.3284 0.9077 -0.261
vn 0.3284 0.9077 -0.261
vn 0.3284 0.9077 -0.261
vn -0.2983 0.9516 0.0733
vn -0.2998 0.9512 0.0731
vn -0.263 0.9583 0.1118
vn -0.2632 0.9582 0.1118
vn -0.2634 0.9582 0.1118
vn 0.4936 0.4185 0.7624
vn 0.4934 0.4182 0.7627
vn 0.4389 0.422 0.7932
vn 0.4387 0.425 0.7918
vn 0.4055 0.6822 -0.6084
vn 0.4055 0.6822 -0.6084
vn 0.4055 0.6822 -0.6084
vn 0.3273 0.6308 -0.7035
vn 0.3273 0.6308 -0.7035
vn 0.3273 0.6308 -0.7035
vn 0.4062 0.4419 -0.7999
vn 0.4062 0.4419 -0.7999
vn 0.4062 0.4419 -0.7999
vn 0.3275 0.0521 -0.9434
vn 0.3275 0.0521 -0.9434
vn 0.3275 0.0521 -0.9434
vn 0.4061 0.1525 -0.901
vn 0.4061 0.1525 -0.901
vn 0.4061 0.1525 -0.901
vn 0.3273 0.5472 -0.7703
vn 0.3273 0.5472 -0.7703
vn 0.3273 0.5472 -0.7703
vn -0.6614 0.0003 0.75
vn -0.6614 0.0003 0.75
vn -0.6675 0.0002 0.7446
vn -0.6675 0.0002 0.7446
vn 0.3877 0.9126 -0.1296
vn 0.3875 0.9126 -0.1304
vn 0.3851 0.9189 -0.0857
vn 0.3849 0.919 -0.0853
vn 0.3907 0.9123 -0.1229
vn -0.3416 0.4271 0.8372
vn -0.3416 0.4271 0.8372
vn -0.3416 0.4271 0.8372
vn -0.3416 0.4271 0.8372
vn 0.9239 -0.0001 -0.3825
vn 0.924 -0.0001 -0.3825
vn 0.9068 -0.0008 -0.4215
vn 0.9068 -0.0008 -0.4215
vn -0.4072 0.1537 -0.9003
vn -0.4072 0.1537 -0.9003
vn -0.4072 0.1537 -0.9003
vn -0.0001 0.4839 -0.8751
vn -0.0001 0.4839 -0.8751
vn -0.0001 0.4839 -0.8751
vn -0.0001 0.4839 -0.8751
vn 0.1621 0.0005 0.9868
vn 0.1621 0.0005 0.9868
vn 0.1731 0.0006 0.9849
vn 0.1731 0.0006 0.9849
vn 0.3583 0.0001 0.9336
vn 0.3506 0.0002 0.9365
vn 0.3538 0.0002 0.9353
vn 0.3615 0.0001 0.9324
vn 0.9174 0.3796 0.1194
vn 0.9173 0.3796 0.1199
vn 0.917 0.3819 0.1152
vn 0.9168 0.3823 0.1151
vn 0.3828 -0.0003 -0.9238
vn 0.3828 -0.0003 -0.9238
vn 0.419 0.0004 -0.908
vn 0.419 0.0004 -0.908
vn -0.3649 0.9289 -0.0628
vn -0.3644 0.9292 -0.0625
vn -0.3742 0.9203 -0.1136
vn -0.3739 0.9205 -0.1134
vn -0.3653 0.9288 -0.063
vn -0.4059 0.6821 -0.6082
vn -0.4059 0.6821 -0.6082
vn -0.4059 0.6821 -0.6082
vn -0.3288 0.0536 -0.9429
vn -0.3288 0.0536 -0.9429
vn -0.3288 0.0536 -0.9429
vt 0 0
vt 0 0
vt 0 0
vt 0 0
vt 0 0
vt 0 0
vt 0 0
vt 0 0
vt 0 0
vt 0 0
vt 0 0
vt 0 0
vt 0 0
vt 0 0
vt 0 0
vt 0 0
vt 0 0
vt 0 0
vt 0 0
vt 0 0
vt 0 0
vt 0 0
vt 0 0
vt 0 0
vt 0 0
vt 0 0
vt 0 0
vt 0 0
vt 0 0
vt 0 0
vt 0 0
vt 0 0
vt 0 0
vt 0 0
vt 0 0
vt 0 0
vt 0 0
vt 0 0
vt 0 0
vt 0 0
vt 0 0
vt 0 0
vt 0 0
vt 0 0
vt 0 0
vt 0 0
vt 0 0
vt 0 0
vt 0 0
vt 0 0
vt 0 0
vt 0 0
vt 0 0
vt 0 0
vt 0 0
vt 0 0
vt 0 0
vt 0 0
vt 0 0
vt 0 0
vt 0 0
vt 0 0
vt 0 0
vt 0 0
vt 0 0
vt 0 0
vt 0 0
vt 0 0
vt 0 0
vt 0 0
vt 0 0
vt 0 0
vt 0 0
vt 0 0
vt 0 0
vt 0 0
vt 0 0
vt 0 0
vt 0 0
vt 0 0
vt 0 0
vt 0 0
vt 0 0
vt 0 0
vt 0 0
vt 0 0
vt 0 0
vt 0 0
vt 0 0
vt 0 0
vt 0 0
vt 0 0
vt 0 0
vt 0 0
vt 0 0
vt 0 0
vt 0 0
vt 0 0
vt 0 0
vt 0 0
vt 0 0
vt 0 0
vt 0 0
vt 0 0
vt 0 0
vt 0 0
vt 0 0
vt 0 0
vt 0 0
vt 0 0
vt 0 0
vt 0 0
vt 0 0
vt 0 0
vt 0 0
vt 0 0
vt 0 0
vt 0 0
vt 0 0
vt 0 0
vt 0 0
vt 0 0
vt 0 0
vt 0 0
vt 0 0
vt 0 0
vt 0 0
vt 0 0
vt 0 0
vt 0 0
vt 0 0
vt 0 0
vt 0 0
vt 0 0
vt 0 0
vt 0 0
vt 0 0
vt 0 0
vt 0 0
vt 0 0
vt 0 0
vt 0 0
vt 0 0
vt 0 0
vt 0 0
vt 0 0
vt 0 0
vt 0 0
vt 0 0
vt 0 0
vt 0 0
vt 0 0
vt 0 0
vt 0 0
vt 0 0
vt 0 0
vt 0 0
vt 0 0
vt 0 0
vt 0 0
vt 0 0
vt 0 0
vt 0 0
vt 0 0
vt 0 0
vt 0 0
vt 0 0
vt 0 0
vt 0 0
vt 0 0
vt 0 0
vt 0 0
vt 0 0
vt 0 0
vt 0 0
vt 0 0
vt 0 0
vt 0 0
vt 0 0
vt 0 0
vt 0 0
vt 0 0
vt 0 0
vt 0 0
vt 0 0
vt 0 0
vt 0 0
vt 0 0
vt 0 0
vt 0 0
vt 0 0
vt 0 0
vt 0 0
vt 0 0
vt 0 0
vt 0 0
vt 0 0
vt 0 0
vt 0 0
vt 0 0
vt 0 0
vt 0 0
vt 0 0
vt 0 0
vt 0 0
vt 0 0
vt 0 0
vt 0 0
vt 0 0
vt 0 0
vt 0 0
vt 0 0
vt 0 0
vt 0 0
vt 0 0
vt 0 0
vt 0 0
vt 0 0
vt 0 0
vt 0 0
vt 0 0
vt 0 0
vt 0 0
vt 0 0
vt 0 0
vt 0 0
vt 0 0
vt 0 0
vt 0 0
vt 0 0
vt 0 0
vt 0 0
vt 0 0
vt 0 0
vt 0 0
vt 0 0
vt 0 0
vt 0 0
vt 0 0
vt 0 0
vt 0 0
vt 0 0
vt 0 0
vt 0 0
vt 0 0
vt 0 0
vt 0 0
vt 0 0
vt 0 0
vt 0 0
vt 0 0
vt 0 0
vt 0 0
vt 0 0
vt 0 0
vt 0 0
vt 0 0
vt 0 0
vt 0 0
vt 0 0
vt 0 0
vt 0 0
vt 0 0
vt 0 0
vt 0 0
vt 0 0
vt 0 0
vt 0 0
vt 0 0
vt 0 0
vt 0 0
vt 0 0
vt 0 0
vt 0 0
vt 0 0
vt 0 0
vt 0 0
vt 0 0
vt 0 0
vt 0 0
vt 0 0
vt 0 0
vt 0 0
vt 0 0
vt 0 0
vt 0 0
vt 0 0
vt 0 0
vt 0 0
vt 0 0
vt 0 0
vt 0 0
vt 0 0
vt 0 0
vt 0 0
vt 0 0
vt 0 0
vt 0 0
vt 0 0
vt 0 0
vt 0 0
vt 0 0
vt 0 0
vt 0 0
vt 0 0
vt 0 0
vt 0 0
vt 0 0
vt 0 0
vt 0 0
vt 0 0
vt 0 0
vt 0 0
vt 0 0
vt 0 0
vt 0 0
vt 0 0
vt 0 0
vt 0 0
vt 0 0
vt 0 0
vt 0 0
vt 0 0
vt 0 0
vt 0 0
vt 0 0
vt 0 0
vt 0 0
vt 0 0
vt 0 0
vt 0 0
vt 0 0
vt 0 0
vt 0 0
vt 0 0
vt 0 0
vt 0 0
vt 0 0
vt 0 0
vt 0 0
vt 0 0
vt 0 0
vt 0 0
vt 0 0
vt 0 0
vt 0 0
vt 0 0
vt 0 0
vt 0 0
vt 0 0
vt 0 0
vt 0 0
vt 0 0
vt 0 0
vt 0 0
vt 0 0
vt 0 0
vt 0 0
vt 0 0
vt 0 0
vt 0 0
vt 0 0
vt 0 0
vt 0 0
vt 0 0
vt 0 0
vt 0 0
vt 0 0
vt 0 0
vt 0 0
vt 0 0
vt 0 0
vt 0 0
vt 0 0
s off
f 1/1/1 2/2/2 3/3/3
f 1/1/1 3/3/3 4/4/4
f 8/8/8 9/9/9 5/5/5
f 5/5/5 6/6/6 7/7/7
f 7/7/7 8/8/8 5/5/5
f 10/10/10 11/11/11 12/12/12
f 10/10/10 12/12/12 13/13/13
f 14/14/14 15/15/15 16/16/16
f 14/14/14 16/16/16 17/17/17
f 18/18/18 19/19/19 20/20/20
f 18/18/18 20/20/20 21/21/21
f 22/22/22 23/23/23 24/24/24
f 22/22/22 24/24/24 25/25/25
f 26/26/26 27/27/27 28/28/28
f 26/26/26 28/28/28 29/29/29
f 30/30/30 31/31/31 32/32/32
f 30/30/30 32/32/32 33/33/33
f 34/34/34 35/35/35 36/36/36
f 34/34/34 36/36/36 37/37/37
f 38/38/38 39/39/39 40/40/40
f 38/38/38 40/40/40 41/41/41
f 42/42/42 43/43/43 44/44/44
f 42/42/42 44/44/44 45/45/45
f 46/46/46 47/47/47 48/48/48
f 46/46/46 48/48/48 49/49/49
f 50/50/50 51/51/51 52/52/52
f 50/50/50 52/52/52 53/53/53
f 54/54/54 55/55/55 56/56/56
f 54/54/54 56/56/56 57/57/57
f 58/58/58 59/59/59 60/60/60
f 58/58/58 60/60/60 61/61/61
f 62/62/62 63/63/63 64/64/64
f 62/62/62 64/64/64 65/65/65
f 66/66/66 67/67/67 68/68/68
f 66/66/66 68/68/68 69/69/69
f 70/70/70 71/71/71 72/72/72
f 70/70/70 72/72/72 73/73/73
f 74/74/74 75/75/75 76/76/76
f 74/74/74 76/76/76 77/77/77
f 78/78/78 79/79/79 80/80/80
f 78/78/78 80/80/80 81/81/81
f 85/85/85 86/86/86 82/82/82
f 82/82/82 83/83/83 84/84/84
f 84/84/84 85/85/85 82/82/82
f 87/87/87 88/88/88 89/89/89
f 87/87/87 89/89/89 90/90/90
f 91/91/91 92/92/92 93/93/93
f 91/91/91 93/93/93 94/94/94
f 95/95/95 96/96/96 97/97/97
f 98/98/98 99/99/99 100/100/100
f 101/101/101 102/102/102 103/103/103
f 101/101/101 103/103/103 104/104/104
f 105/105/105 106/106/106 107/107/107
f 105/105/105 107/107/107 108/108/108
f 109/109/109 110/110/110 111/111/111
f 109/109/109 111/111/111 112/112/112
f 113/113/113 114/114/114 115/115/115
f 113/113/113 115/115/115 116/116/116
f 117/117/117 118/118/118 119/119/119
f 117/117/117 119/119/119 120/120/120
f 124/124/124 125/125/125 121/121/121
f 121/121/121 122/122/122 123/123/123
f 123/123/123 124/124/124 121/121/121
f 126/126/126 127/127/127 128/128/128
f 132/132/132 133/133/133 129/129/129
f 129/129/129 130/130/130 131/131/131
f 131/131/131 132/132/132 129/129/129
f 134/134/134 135/135/135 136/136/136
f 134/134/134 136/136/136 137/137/137
f 138/138/138 139/139/139 140/140/140
f 141/141/141 142/142/142 143/143/143
f 144/144/144 145/145/145 146/146/146
f 144/144/144 146/146/146 147/147/147
f 148/148/148 149/149/149 150/150/150
f 148/148/148 150/150/150 151/151/151
f 152/152/152 153/153/153 154/154/154
f 152/152/152 154/154/154 155/155/155
f 156/156/156 157/157/157 158/158/158
f 156/156/156 158/158/158 159/159/159
f 163/163/163 164/164/164 160/160/160
f 160/160/160 161/161/161 162/162/162
f 162/162/162 163/163/163 160/160/160
f 165/165/165 166/166/166 167/167/167
f 165/165/165 167/167/167 168/168/168
f 169/169/169 170/170/170 171/171/171
f 169/169/169 171/171/171 172/172/172
f 176/176/176 177/177/177 173/173/173
f 173/173/173 174/174/174 175/175/175
f 175/175/175 176/176/176 173/173/173
f 178/178/178 179/179/179 180/180/180
f 178/178/178 180/180/180 181/181/181
f 182/182/182 183/183/183 184/184/184
f 182/182/182 184/184/184 185/185/185
f 186/186/186 187/187/187 188/188/188
f 186/186/186 188/188/188 189/189/189
f 190/190/190 191/191/191 192/192/192
f 190/190/190 192/192/192 193/193/193
f 194/194/194 195/195/195 196/196/196
f 194/194/194 196/196/196 197/197/197
f 198/198/198 199/199/199 200/200/200
f 198/198/198 200/200/200 201/201/201
f 202/202/202 203/203/203 204/204/204
f 202/202/202 204/204/204 205/205/205
f 206/206/206 207/207/207 208/208/208
f 206/206/206 208/208/208 209/209/209
f 214/214/214 215/215/215 210/210/210
f 210/210/210 211/211/211 212/212/212
f 212/212/212 213/213/213 214/214/214
f 214/214/214 210/210/210 212/212/212
f 216/216/216 217/217/217 218/218/218
f 216/216/216 218/218/218 219/219/219
f 220/220/220 221/221/221 222/222/222
f 220/220/220 222/222/222 223/223/223
f 227/227/227 228/228/228 224/224/224
f 224/224/224 225/225/225 226/226/226
f 226/226/226 227/227/227 224/224/224
f 229/229/229 230/230/230 231/231/231
f 229/229/229 231/231/231 232/232/232
f 233/233/233 234/234/234 235/235/235
f 233/233/233 235/235/235 236/236/236
f 237/237/237 238/238/238 239/239/239
f 237/237/237 239/239/239 240/240/240
f 241/241/241 242/242/242 243/243/243
f 241/241/241 243/243/243 244/244/244
f 245/245/245 246/246/246 247/247/247
f 245/245/245 247/247/247 248/248/248
f 249/249/249 250/250/250 251/251/251
f 249/249/249 251/251/251 252/252/252
f 253/253/253 254/254/254 255/255/255
f 253/253/253 255/255/255 256/256/256
f 268/268/268 269/269/269 257/257/257
f 257/257/257 258/258/258 259/259/259
f 259/259/259 260/260/260 261/261/261
f 261/261/261 262/262/262 263/263/263
f 263/263/263 264/264/264 265/265/265
f 265/265/265 266/266/266 267/267/267
f 267/267/267 268/268/268 257/257/257
f 257/257/257 259/259/259 261/261/261
f 261/261/261 263/263/263 265/265/265
f 265/265/265 267/267/267 257/257/257
f 257/257/257 261/261/261 265/265/265
f 270/270/270 271/271/271 272/272/272
f 270/270/270 272/272/272 273/273/273
f 274/274/274 275/275/275 276/276/276
f 274/274/274 276/276/276 277/277/277
f 278/278/278 279/279/279 280/280/280
f 278/278/278 280/280/280 281/281/281
f 285/285/285 286/286/286 282/282/282
f 282/282/282 283/283/283 284/284/284
f 284/284/284 285/285/285 282/282/282
f 287/287/287 288/288/288 289/289/289
f 290/290/290 291/291/291 292/292/292
f 290/290/290 292/292/292 293/293/293
f 294/294/294 295/295/295 296/296/296
f 300/300/300 301/301/301 297/297/297
f 297/297/297 298/298/298 299/299/299
f 299/299/299 300/300/300 297/297/297
f 302/302/302 303/303/303 304/304/304
f 302/302/302 304/304/304 305/305/305
f 306/306/306 307/307/307 308/308/308
f 309/309/309 310/310/310 311/311/311
f 312/312/312 313/313/313 314/314/314
f 315/315/315 316/316/316 317/317/317
f 318/318/318 319/319/319 320/320/320
f 321/321/321 322/322/322 323/323/323
f 324/324/324 325/325/325 326/326/326
f 324/324/324 326/326/326 327/327/327
f 331/331/331 332/332/332 328/328/328
f 328/328/328 329/329/329 330/330/330
f 330/330/330 331/331/331 328/328/328
f 333/333/333 334/334/334 335/335/335
f 333/333/333 335/335/335 336/336/336
f 337/337/337 338/338/338 339/339/339
f 337/337/337 339/339/339 340/340/340
f 341/341/341 342/342/342 343/343/343
f 344/344/344 345/345/345 346/346/346
f 344/344/344 346/346/346 347/347/347
f 348/348/348 349/349/349 350/350/350
f 348/348/348 350/350/350 351/351/351
f 352/352/352 353/353/353 354/354/354
f 352/352/352 354/354/354 355/355/355
f 356/356/356 357/357/357 358/358/358
f 356/356/356 358/358/358 359/359/359
f 360/360/360 361/361/361 362/362/362
f 360/360/360 362/362/362 363/363/363
f 367/367/367 368/368/368 364/364/364
f 364/364/364 365/365/365 366/366/366
f 366/366/366 367/367/367 364/364/364
f 369/369/369 370/370/370 371/371/371
f 372/372/372 373/373/373 374/374/374
