v -0.824442 0.033224 -0.187721
v -0.818306 0.033457 -0.230414
v -0.824442 0.033457 -0.230414
v -0.824442 0.033224 -0.187721
v -0.818306 0.033224 -0.187721
v -0.818306 0.033457 -0.230414
v -0.818306 0.029701 -0.230435
v -0.824442 0.029468 -0.187741
v -0.824442 0.029701 -0.230435
v -0.818306 0.029468 -0.187741
v -0.824442 0.029468 -0.187741
v -0.818306 0.029701 -0.230435
v -0.824442 0.033224 -0.187721
v -0.824442 0.033457 -0.230414
v -0.824442 0.029701 -0.230435
v -0.824442 0.029468 -0.187741
v -0.824442 0.033457 -0.230414
v -0.818306 0.033457 -0.230414
v -0.818306 0.029701 -0.230435
v -0.824442 0.029701 -0.230435
v -0.818306 0.033457 -0.230414
v -0.818306 0.033224 -0.187721
v -0.818306 0.029468 -0.187741
v -0.818306 0.029701 -0.230435
v -0.818306 0.033224 -0.187721
v -0.824442 0.033224 -0.187721
v -0.824442 0.029468 -0.187741
v -0.818306 0.029468 -0.187741
vn -0 1 0.0055
vn -0 1 0.0055
vn -0 1 0.0055
vn -0 1 0.0055
vn -0 1 0.0055
vn -0 1 0.0055
vn -0 -1 -0.0055
vn -0 -1 -0.0055
vn -0 -1 -0.0055
vn -0 -1 -0.0055
vn -0 -1 -0.0055
vn -0 -1 -0.0055
vn -0.7071 -0.0038 0.7071
vn -0.7071 0.004 -0.7071
vn -0.7071 0.004 -0.7071
vn -0.7071 -0.0038 0.7071
vn -0.7071 0.004 -0.7071
vn 0.7071 0.004 -0.7071
vn 0.7071 0.004 -0.7071
vn -0.7071 0.004 -0.7071
vn 0.7071 0.004 -0.7071
vn 0.7071 -0.0038 0.7071
vn 0.7071 -0.0038 0.7071
vn 0.7071 0.004 -0.7071
vn 0.7071 -0.0038 0.7071
vn -0.7071 -0.0038 0.7071
vn -0.7071 -0.0038 0.7071
vn 0.7071 -0.0038 0.7071
vt 0 1
vt 0.666667 1
vt 0.333333 1
vt 0 1
vt 1 1
vt 0.666667 1
vt 0.666667 1
vt 0 1
vt 0.333333 1
vt 1 1
vt 0 1
vt 0.666667 1
vt 0 0
vt 0.25 0
vt 0.25 1
vt 0 1
vt 0.25 0
vt 0.5 0
vt 0.5 1
vt 0.25 1
vt 0.5 0
vt 0.75 0
vt 0.75 1
vt 0.5 1
vt 0.75 0
vt 1 0
vt 1 1
vt 0.75 1
s off
f 1/1/1 2/2/2 3/3/3
f 4/4/4 5/5/5 6/6/6
f 7/7/7 8/8/8 9/9/9
f 10/10/10 11/11/11 12/12/12
f 13/13/13 14/14/14 15/15/15
f 13/13/13 15/15/15 16/16/16
f 17/17/17 18/18/18 19/19/19
f 17/17/17 19/19/19 20/20/20
f 21/21/21 22/22/22 23/23/23
f 21/21/21 23/23/23 24/24/24
f 25/25/25 26/26/26 27/27/27
f 25/25/25 27/27/27 28/28/28
