v -0.698334 0.03346 -0.230951
v -0.695604 0.033459 -0.230867
v -0.697478 0.03346 -0.230978
v -0.699181 0.033459 -0.230868
v -0.695604 0.033459 -0.230867
v -0.698334 0.03346 -0.230951
v -0.700021 0.033458 -0.23073
v -0.695604 0.033459 -0.230867
v -0.699181 0.033459 -0.230868
v -0.700021 0.033458 -0.23073
v -0.69384 0.033457 -0.230538
v -0.695604 0.033459 -0.230867
v -0.700856 0.033457 -0.230535
v -0.69384 0.033457 -0.230538
v -0.700021 0.033458 -0.23073
v -0.700856 0.033457 -0.230535
v -0.692195 0.033455 -0.230004
v -0.69384 0.033457 -0.230538
v -0.701688 0.033456 -0.230284
v -0.692195 0.033455 -0.230004
v -0.700856 0.033457 -0.230535
v -0.702517 0.033454 -0.229977
v -0.692195 0.033455 -0.230004
v -0.701688 0.033456 -0.230284
v -0.702517 0.033454 -0.229977
v -0.69068 0.033451 -0.229274
v -0.692195 0.033455 -0.230004
v -0.703347 0.033452 -0.229611
v -0.69068 0.033451 -0.229274
v -0.702517 0.033454 -0.229977
v -0.704179 0.03345 -0.229188
v -0.69068 0.033451 -0.229274
v -0.703347 0.033452 -0.229611
v -0.704179 0.03345 -0.229188
v -0.689305 0.033446 -0.228359
v -0.69068 0.033451 -0.229274
v -0.705014 0.033447 -0.228707
v -0.689305 0.033446 -0.228359
v -0.704179 0.03345 -0.229188
v -0.705854 0.033445 -0.228167
v -0.689305 0.033446 -0.228359
v -0.705014 0.033447 -0.228707
v -0.705854 0.033445 -0.228167
v -0.68808 0.03344 -0.227269
v -0.689305 0.033446 -0.228359
v -0.706701 0.033441 -0.227567
v -0.68808 0.03344 -0.227269
v -0.705854 0.033445 -0.228167
v -0.707557 0.033438 -0.226909
v -0.68808 0.03344 -0.227269
v -0.706701 0.033441 -0.227567
v -0.707557 0.033438 -0.226909
v -0.687015 0.033433 -0.226015
v -0.68808 0.03344 -0.227269
v -0.707557 0.033396 -0.219209
v -0.706703 0.033401 -0.220243
v -0.707557 0.033438 -0.226909
v -0.706703 0.033401 -0.220243
v -0.70586 0.033406 -0.221157
v -0.707557 0.033438 -0.226909
v -0.70586 0.033406 -0.221157
v -0.705029 0.033411 -0.221958
v -0.707557 0.033438 -0.226909
v -0.705029 0.033411 -0.221958
v -0.704209 0.033414 -0.222649
v -0.707557 0.033438 -0.226909
v -0.704209 0.033414 -0.222649
v -0.703398 0.033418 -0.223239
v -0.707557 0.033438 -0.226909
v -0.703398 0.033418 -0.223239
v -0.702596 0.03342 -0.223732
v -0.707557 0.033438 -0.226909
v -0.702596 0.03342 -0.223732
v -0.701801 0.033423 -0.224134
v -0.707557 0.033438 -0.226909
v -0.701801 0.033423 -0.224134
v -0.701014 0.033424 -0.224449
v -0.707557 0.033438 -0.226909
v -0.701014 0.033424 -0.224449
v -0.700232 0.033426 -0.224685
v -0.707557 0.033438 -0.226909
v -0.700232 0.033426 -0.224685
v -0.699456 0.033426 -0.224846
v -0.707557 0.033438 -0.226909
v -0.699456 0.033426 -0.224846
v -0.698685 0.033427 -0.224938
v -0.707557 0.033438 -0.226909
v -0.698685 0.033427 -0.224938
v -0.687015 0.033433 -0.226015
v -0.707557 0.033438 -0.226909
v -0.698685 0.033427 -0.224938
v -0.697916 0.033427 -0.224968
v -0.687015 0.033433 -0.226015
v -0.697916 0.033427 -0.224968
v -0.686121 0.033425 -0.224606
v -0.687015 0.033433 -0.226015
v -0.696891 0.033427 -0.2249
v -0.686121 0.033425 -0.224606
v -0.697916 0.033427 -0.224968
v -0.695917 0.033426 -0.224701
v -0.686121 0.033425 -0.224606
v -0.696891 0.033427 -0.2249
v -0.695002 0.033424 -0.224376
v -0.686121 0.033425 -0.224606
v -0.695917 0.033426 -0.224701
v -0.695002 0.033424 -0.224376
v -0.685408 0.033417 -0.223055
v -0.686121 0.033425 -0.224606
v -0.694153 0.033421 -0.223934
v -0.685408 0.033417 -0.223055
v -0.695002 0.033424 -0.224376
v -0.693377 0.033418 -0.223381
v -0.685408 0.033417 -0.223055
v -0.694153 0.033421 -0.223934
v -0.692681 0.033415 -0.222723
v -0.685408 0.033417 -0.223055
v -0.693377 0.033418 -0.223381
v -0.692681 0.033415 -0.222723
v -0.684887 0.033408 -0.221371
v -0.685408 0.033417 -0.223055
v -0.692073 0.033411 -0.221967
v -0.684887 0.033408 -0.221371
v -0.692681 0.033415 -0.222723
v -0.691559 0.033406 -0.221119
v -0.684887 0.033408 -0.221371
v -0.692073 0.033411 -0.221967
v -0.691559 0.033406 -0.221119
v -0.684566 0.033398 -0.219563
v -0.684887 0.033408 -0.221371
v -0.691146 0.033401 -0.220188
v -0.684566 0.033398 -0.219563
v -0.691559 0.033406 -0.221119
v -0.690843 0.033396 -0.219179
v -0.684566 0.033398 -0.219563
v -0.691146 0.033401 -0.220188
v -0.690843 0.033396 -0.219179
v -0.684457 0.033387 -0.217644
v -0.684566 0.033398 -0.219563
v -0.690656 0.03339 -0.2181
v -0.684457 0.033387 -0.217644
v -0.690843 0.033396 -0.219179
v -0.690592 0.033383 -0.216955
v -0.684457 0.033387 -0.217644
v -0.690656 0.03339 -0.2181
v -0.690592 0.033383 -0.216955
v -0.684536 0.033378 -0.215926
v -0.684457 0.033387 -0.217644
v -0.690613 0.033379 -0.216091
v -0.684536 0.033378 -0.215926
v -0.690592 0.033383 -0.216955
v -0.690675 0.033374 -0.215279
v -0.684536 0.033378 -0.215926
v -0.690613 0.033379 -0.216091
v -0.690675 0.033374 -0.215279
v -0.684779 0.033369 -0.214233
v -0.684536 0.033378 -0.215926
v -0.69078 0.03337 -0.214506
v -0.684779 0.033369 -0.214233
v -0.690675 0.033374 -0.215279
v -0.690926 0.033366 -0.213765
v -0.684779 0.033369 -0.214233
v -0.69078 0.03337 -0.214506
v -0.690926 0.033366 -0.213765
v -0.685192 0.033359 -0.21254
v -0.684779 0.033369 -0.214233
v -0.691113 0.033362 -0.213045
v -0.685192 0.033359 -0.21254
v -0.690926 0.033366 -0.213765
v -0.691343 0.033358 -0.212339
v -0.685192 0.033359 -0.21254
v -0.691113 0.033362 -0.213045
v -0.691343 0.033358 -0.212339
v -0.685783 0.03335 -0.210825
v -0.685192 0.033359 -0.21254
v -0.691614 0.033354 -0.211634
v -0.685783 0.03335 -0.210825
v -0.691343 0.033358 -0.212339
v -0.691927 0.033351 -0.210922
v -0.685783 0.03335 -0.210825
v -0.691614 0.033354 -0.211634
v -0.692282 0.033347 -0.210194
v -0.685783 0.03335 -0.210825
v -0.691927 0.033351 -0.210922
v -0.692282 0.033347 -0.210194
v -0.686558 0.03334 -0.209065
v -0.685783 0.03335 -0.210825
v -0.692678 0.033343 -0.20944
v -0.686558 0.03334 -0.209065
v -0.692282 0.033347 -0.210194
v -0.693117 0.033338 -0.20865
v -0.686558 0.03334 -0.209065
v -0.692678 0.033343 -0.20944
v -0.693117 0.033338 -0.20865
v -0.687524 0.033331 -0.207236
v -0.686558 0.03334 -0.209065
v -0.693597 0.033334 -0.207815
v -0.687524 0.033331 -0.207236
v -0.693117 0.033338 -0.20865
v -0.694562 0.033325 -0.206235
v -0.687524 0.033331 -0.207236
v -0.693597 0.033334 -0.207815
v -0.694562 0.033325 -0.206235
v -0.688689 0.03332 -0.205316
v -0.687524 0.033331 -0.207236
v -0.69563 0.033316 -0.204603
v -0.688689 0.03332 -0.205316
v -0.694562 0.033325 -0.206235
v -0.69563 0.033316 -0.204603
v -0.690058 0.033309 -0.203283
v -0.688689 0.03332 -0.205316
v -0.696786 0.033307 -0.20293
v -0.690058 0.033309 -0.203283
v -0.69563 0.033316 -0.204603
v -0.696786 0.033307 -0.20293
v -0.69164 0.033297 -0.201111
v -0.690058 0.033309 -0.203283
v -0.698014 0.033298 -0.20123
v -0.69164 0.033297 -0.201111
v -0.696786 0.033307 -0.20293
v -0.699296 0.033288 -0.199516
v -0.69164 0.033297 -0.201111
v -0.698014 0.033298 -0.20123
v -0.699296 0.033288 -0.199516
v -0.693441 0.033284 -0.198779
v -0.69164 0.033297 -0.201111
v -0.700616 0.033279 -0.197799
v -0.693441 0.033284 -0.198779
v -0.699296 0.033288 -0.199516
v -0.700616 0.033279 -0.197799
v -0.695468 0.033271 -0.196264
v -0.693441 0.033284 -0.198779
v -0.701959 0.03327 -0.196093
v -0.695468 0.033271 -0.196264
v -0.700616 0.033279 -0.197799
v -0.701959 0.03327 -0.196093
v -0.697728 0.033256 -0.193542
v -0.695468 0.033271 -0.196264
v -0.703307 0.033261 -0.19441
v -0.697728 0.033256 -0.193542
v -0.701959 0.03327 -0.196093
v -0.704645 0.033252 -0.192762
v -0.697728 0.033256 -0.193542
v -0.703307 0.033261 -0.19441
v -0.704645 0.033252 -0.192762
v -0.681389 0.033256 -0.193542
v -0.697728 0.033256 -0.193542
v -0.704645 0.033252 -0.192762
v -0.681389 0.033224 -0.187721
v -0.681389 0.033256 -0.193542
v -0.705956 0.033243 -0.191162
v -0.681389 0.033224 -0.187721
v -0.704645 0.033252 -0.192762
v -0.707225 0.033235 -0.189624
v -0.681389 0.033224 -0.187721
v -0.705956 0.033243 -0.191162
v -0.708433 0.033227 -0.188158
v -0.681389 0.033224 -0.187721
v -0.707225 0.033235 -0.189624
v -0.708433 0.033224 -0.187721
v -0.681389 0.033224 -0.187721
v -0.708433 0.033227 -0.188158
v -0.695604 0.029703 -0.230887
v -0.698334 0.029704 -0.230971
v -0.697478 0.029704 -0.230999
v -0.695604 0.029703 -0.230887
v -0.699181 0.029703 -0.230889
v -0.698334 0.029704 -0.230971
v -0.695604 0.029703 -0.230887
v -0.700021 0.029702 -0.23075
v -0.699181 0.029703 -0.230889
v -0.69384 0.029701 -0.230558
v -0.700021 0.029702 -0.23075
v -0.695604 0.029703 -0.230887
v -0.69384 0.029701 -0.230558
v -0.700856 0.029701 -0.230556
v -0.700021 0.029702 -0.23075
v -0.692195 0.029698 -0.230025
v -0.700856 0.029701 -0.230556
v -0.69384 0.029701 -0.230558
v -0.692195 0.029698 -0.230025
v -0.701688 0.0297 -0.230304
v -0.700856 0.029701 -0.230556
v -0.692195 0.029698 -0.230025
v -0.702517 0.029698 -0.229997
v -0.701688 0.0297 -0.230304
v -0.69068 0.029694 -0.229294
v -0.702517 0.029698 -0.229997
v -0.692195 0.029698 -0.230025
v -0.69068 0.029694 -0.229294
v -0.703347 0.029696 -0.229631
v -0.702517 0.029698 -0.229997
v -0.69068 0.029694 -0.229294
v -0.704179 0.029694 -0.229208
v -0.703347 0.029696 -0.229631
v -0.689305 0.029689 -0.228379
v -0.704179 0.029694 -0.229208
v -0.69068 0.029694 -0.229294
v -0.689305 0.029689 -0.228379
v -0.705014 0.029691 -0.228728
v -0.704179 0.029694 -0.229208
v -0.689305 0.029689 -0.228379
v -0.705854 0.029688 -0.228187
v -0.705014 0.029691 -0.228728
v -0.68808 0.029684 -0.227289
v -0.705854 0.029688 -0.228187
v -0.689305 0.029689 -0.228379
v -0.68808 0.029684 -0.227289
v -0.706701 0.029685 -0.227588
v -0.705854 0.029688 -0.228187
v -0.68808 0.029684 -0.227289
v -0.707557 0.029682 -0.22693
v -0.706701 0.029685 -0.227588
v -0.687015 0.029677 -0.226035
v -0.707557 0.029682 -0.22693
v -0.68808 0.029684 -0.227289
v -0.706703 0.029645 -0.220263
v -0.707557 0.02964 -0.21923
v -0.707557 0.029682 -0.22693
v -0.70586 0.02965 -0.221178
v -0.706703 0.029645 -0.220263
v -0.707557 0.029682 -0.22693
v -0.705029 0.029655 -0.221978
v -0.70586 0.02965 -0.221178
v -0.707557 0.029682 -0.22693
v -0.704209 0.029658 -0.22267
v -0.705029 0.029655 -0.221978
v -0.707557 0.029682 -0.22693
v -0.703398 0.029662 -0.22326
v -0.704209 0.029658 -0.22267
v -0.707557 0.029682 -0.22693
v -0.702596 0.029664 -0.223752
v -0.703398 0.029662 -0.22326
v -0.707557 0.029682 -0.22693
v -0.701801 0.029666 -0.224154
v -0.702596 0.029664 -0.223752
v -0.707557 0.029682 -0.22693
v -0.701014 0.029668 -0.224469
v -0.701801 0.029666 -0.224154
v -0.707557 0.029682 -0.22693
v -0.700232 0.029669 -0.224705
v -0.701014 0.029668 -0.224469
v -0.707557 0.029682 -0.22693
v -0.699456 0.02967 -0.224866
v -0.700232 0.029669 -0.224705
v -0.707557 0.029682 -0.22693
v -0.698685 0.029671 -0.224959
v -0.699456 0.02967 -0.224866
v -0.707557 0.029682 -0.22693
v -0.687015 0.029677 -0.226035
v -0.698685 0.029671 -0.224959
v -0.707557 0.029682 -0.22693
v -0.697916 0.029671 -0.224989
v -0.698685 0.029671 -0.224959
v -0.687015 0.029677 -0.226035
v -0.686121 0.029669 -0.224627
v -0.697916 0.029671 -0.224989
v -0.687015 0.029677 -0.226035
v -0.686121 0.029669 -0.224627
v -0.696891 0.029671 -0.22492
v -0.697916 0.029671 -0.224989
v -0.686121 0.029669 -0.224627
v -0.695917 0.02967 -0.224721
v -0.696891 0.029671 -0.22492
v -0.686121 0.029669 -0.224627
v -0.695002 0.029668 -0.224397
v -0.695917 0.02967 -0.224721
v -0.685408 0.029661 -0.223075
v -0.695002 0.029668 -0.224397
v -0.686121 0.029669 -0.224627
v -0.685408 0.029661 -0.223075
v -0.694153 0.029665 -0.223954
v -0.695002 0.029668 -0.224397
v -0.685408 0.029661 -0.223075
v -0.693377 0.029662 -0.223401
v -0.694153 0.029665 -0.223954
v -0.685408 0.029661 -0.223075
v -0.692681 0.029659 -0.222743
v -0.693377 0.029662 -0.223401
v -0.684887 0.029651 -0.221391
v -0.692681 0.029659 -0.222743
v -0.685408 0.029661 -0.223075
v -0.684887 0.029651 -0.221391
v -0.692073 0.029655 -0.221987
v -0.692681 0.029659 -0.222743
v -0.684887 0.029651 -0.221391
v -0.691559 0.02965 -0.22114
v -0.692073 0.029655 -0.221987
v -0.684566 0.029642 -0.219583
v -0.691559 0.02965 -0.22114
v -0.684887 0.029651 -0.221391
v -0.684566 0.029642 -0.219583
v -0.691146 0.029645 -0.220208
v -0.691559 0.02965 -0.22114
v -0.684566 0.029642 -0.219583
v -0.690843 0.029639 -0.219199
v -0.691146 0.029645 -0.220208
v -0.684457 0.029631 -0.217664
v -0.690843 0.029639 -0.219199
v -0.684566 0.029642 -0.219583
v -0.684457 0.029631 -0.217664
v -0.690656 0.029634 -0.21812
v -0.690843 0.029639 -0.219199
v -0.684457 0.029631 -0.217664
v -0.690592 0.029627 -0.216976
v -0.690656 0.029634 -0.21812
v -0.684536 0.029622 -0.215947
v -0.690592 0.029627 -0.216976
v -0.684457 0.029631 -0.217664
v -0.684536 0.029622 -0.215947
v -0.690613 0.029623 -0.216112
v -0.690592 0.029627 -0.216976
v -0.684536 0.029622 -0.215947
v -0.690675 0.029618 -0.215299
v -0.690613 0.029623 -0.216112
v -0.684779 0.029613 -0.214253
v -0.690675 0.029618 -0.215299
v -0.684536 0.029622 -0.215947
v -0.684779 0.029613 -0.214253
v -0.69078 0.029614 -0.214527
v -0.690675 0.029618 -0.215299
v -0.684779 0.029613 -0.214253
v -0.690926 0.02961 -0.213785
v -0.69078 0.029614 -0.214527
v -0.685192 0.029603 -0.212561
v -0.690926 0.02961 -0.213785
v -0.684779 0.029613 -0.214253
v -0.685192 0.029603 -0.212561
v -0.691113 0.029606 -0.213066
v -0.690926 0.02961 -0.213785
v -0.685192 0.029603 -0.212561
v -0.691343 0.029602 -0.212359
v -0.691113 0.029606 -0.213066
v -0.685783 0.029594 -0.210846
v -0.691343 0.029602 -0.212359
v -0.685192 0.029603 -0.212561
v -0.685783 0.029594 -0.210846
v -0.691614 0.029598 -0.211654
v -0.691343 0.029602 -0.212359
v -0.685783 0.029594 -0.210846
v -0.691927 0.029595 -0.210943
v -0.691614 0.029598 -0.211654
v -0.685783 0.029594 -0.210846
v -0.692282 0.029591 -0.210215
v -0.691927 0.029595 -0.210943
v -0.686558 0.029584 -0.209085
v -0.692282 0.029591 -0.210215
v -0.685783 0.029594 -0.210846
v -0.686558 0.029584 -0.209085
v -0.692678 0.029586 -0.20946
v -0.692282 0.029591 -0.210215
v -0.686558 0.029584 -0.209085
v -0.693117 0.029582 -0.208671
v -0.692678 0.029586 -0.20946
v -0.687524 0.029574 -0.207257
v -0.693117 0.029582 -0.208671
v -0.686558 0.029584 -0.209085
v -0.687524 0.029574 -0.207257
v -0.693597 0.029578 -0.207836
v -0.693117 0.029582 -0.208671
v -0.687524 0.029574 -0.207257
v -0.694562 0.029569 -0.206256
v -0.693597 0.029578 -0.207836
v -0.688689 0.029564 -0.205337
v -0.694562 0.029569 -0.206256
v -0.687524 0.029574 -0.207257
v -0.688689 0.029564 -0.205337
v -0.69563 0.02956 -0.204624
v -0.694562 0.029569 -0.206256
v -0.690058 0.029553 -0.203303
v -0.69563 0.02956 -0.204624
v -0.688689 0.029564 -0.205337
v -0.690058 0.029553 -0.203303
v -0.696786 0.029551 -0.202951
v -0.69563 0.02956 -0.204624
v -0.69164 0.029541 -0.201131
v -0.696786 0.029551 -0.202951
v -0.690058 0.029553 -0.203303
v -0.69164 0.029541 -0.201131
v -0.698014 0.029542 -0.201251
v -0.696786 0.029551 -0.202951
v -0.69164 0.029541 -0.201131
v -0.699296 0.029532 -0.199537
v -0.698014 0.029542 -0.201251
v -0.693441 0.029528 -0.1988
v -0.699296 0.029532 -0.199537
v -0.69164 0.029541 -0.201131
v -0.693441 0.029528 -0.1988
v -0.700616 0.029523 -0.19782
v -0.699296 0.029532 -0.199537
v -0.695468 0.029515 -0.196285
v -0.700616 0.029523 -0.19782
v -0.693441 0.029528 -0.1988
v -0.695468 0.029515 -0.196285
v -0.701959 0.029514 -0.196113
v -0.700616 0.029523 -0.19782
v -0.697728 0.0295 -0.193562
v -0.701959 0.029514 -0.196113
v -0.695468 0.029515 -0.196285
v -0.697728 0.0295 -0.193562
v -0.703307 0.029505 -0.19443
v -0.701959 0.029514 -0.196113
v -0.697728 0.0295 -0.193562
v -0.704645 0.029496 -0.192782
v -0.703307 0.029505 -0.19443
v -0.681389 0.0295 -0.193562
v -0.704645 0.029496 -0.192782
v -0.697728 0.0295 -0.193562
v -0.681389 0.029468 -0.187741
v -0.704645 0.029496 -0.192782
v -0.681389 0.0295 -0.193562
v -0.681389 0.029468 -0.187741
v -0.705956 0.029487 -0.191182
v -0.704645 0.029496 -0.192782
v -0.681389 0.029468 -0.187741
v -0.707225 0.029478 -0.189644
v -0.705956 0.029487 -0.191182
v -0.681389 0.029468 -0.187741
v -0.708433 0.029471 -0.188179
v -0.707225 0.029478 -0.189644
v -0.681389 0.029468 -0.187741
v -0.708433 0.029468 -0.187741
v -0.708433 0.029471 -0.188179
v -0.708433 0.033224 -0.187721
v -0.708433 0.033227 -0.188158
v -0.708433 0.029471 -0.188179
v -0.708433 0.029468 -0.187741
v -0.708433 0.033227 -0.188158
v -0.707225 0.033235 -0.189624
v -0.707225 0.029478 -0.189644
v -0.708433 0.029471 -0.188179
v -0.707225 0.033235 -0.189624
v -0.705956 0.033243 -0.191162
v -0.705956 0.029487 -0.191182
v -0.707225 0.029478 -0.189644
v -0.705956 0.033243 -0.191162
v -0.704645 0.033252 -0.192762
v -0.704645 0.029496 -0.192782
v -0.705956 0.029487 -0.191182
v -0.704645 0.033252 -0.192762
v -0.703307 0.033261 -0.19441
v -0.703307 0.029505 -0.19443
v -0.704645 0.029496 -0.192782
v -0.703307 0.033261 -0.19441
v -0.701959 0.03327 -0.196093
v -0.701959 0.029514 -0.196113
v -0.703307 0.029505 -0.19443
v -0.701959 0.03327 -0.196093
v -0.700616 0.033279 -0.197799
v -0.700616 0.029523 -0.19782
v -0.701959 0.029514 -0.196113
v -0.700616 0.033279 -0.197799
v -0.699296 0.033288 -0.199516
v -0.699296 0.029532 -0.199537
v -0.700616 0.029523 -0.19782
v -0.699296 0.033288 -0.199516
v -0.698014 0.033298 -0.20123
v -0.698014 0.029542 -0.201251
v -0.699296 0.029532 -0.199537
v -0.698014 0.033298 -0.20123
v -0.696786 0.033307 -0.20293
v -0.696786 0.029551 -0.202951
v -0.698014 0.029542 -0.201251
v -0.696786 0.033307 -0.20293
v -0.69563 0.033316 -0.204603
v -0.69563 0.02956 -0.204624
v -0.696786 0.029551 -0.202951
v -0.69563 0.033316 -0.204603
v -0.694562 0.033325 -0.206235
v -0.694562 0.029569 -0.206256
v -0.69563 0.02956 -0.204624
v -0.694562 0.033325 -0.206235
v -0.693597 0.033334 -0.207815
v -0.693597 0.029578 -0.207836
v -0.694562 0.029569 -0.206256
v -0.693597 0.033334 -0.207815
v -0.693117 0.033338 -0.20865
v -0.693117 0.029582 -0.208671
v -0.693597 0.029578 -0.207836
v -0.693117 0.033338 -0.20865
v -0.692678 0.033343 -0.20944
v -0.692678 0.029586 -0.20946
v -0.693117 0.029582 -0.208671
v -0.692678 0.033343 -0.20944
v -0.692282 0.033347 -0.210194
v -0.692282 0.029591 -0.210215
v -0.692678 0.029586 -0.20946
v -0.692282 0.033347 -0.210194
v -0.691927 0.033351 -0.210922
v -0.691927 0.029595 -0.210943
v -0.692282 0.029591 -0.210215
v -0.691927 0.033351 -0.210922
v -0.691614 0.033354 -0.211634
v -0.691614 0.029598 -0.211654
v -0.691927 0.029595 -0.210943
v -0.691614 0.033354 -0.211634
v -0.691343 0.033358 -0.212339
v -0.691343 0.029602 -0.212359
v -0.691614 0.029598 -0.211654
v -0.691343 0.033358 -0.212339
v -0.691113 0.033362 -0.213045
v -0.691113 0.029606 -0.213066
v -0.691343 0.029602 -0.212359
v -0.691113 0.033362 -0.213045
v -0.690926 0.033366 -0.213765
v -0.690926 0.02961 -0.213785
v -0.691113 0.029606 -0.213066
v -0.690926 0.033366 -0.213765
v -0.69078 0.03337 -0.214506
v -0.69078 0.029614 -0.214527
v -0.690926 0.02961 -0.213785
v -0.69078 0.03337 -0.214506
v -0.690675 0.033374 -0.215279
v -0.690675 0.029618 -0.215299
v -0.69078 0.029614 -0.214527
v -0.690675 0.033374 -0.215279
v -0.690613 0.033379 -0.216091
v -0.690613 0.029623 -0.216112
v -0.690675 0.029618 -0.215299
v -0.690613 0.033379 -0.216091
v -0.690592 0.033383 -0.216955
v -0.690592 0.029627 -0.216976
v -0.690613 0.029623 -0.216112
v -0.690592 0.033383 -0.216955
v -0.690656 0.03339 -0.2181
v -0.690656 0.029634 -0.21812
v -0.690592 0.029627 -0.216976
v -0.690656 0.03339 -0.2181
v -0.690843 0.033396 -0.219179
v -0.690843 0.029639 -0.219199
v -0.690656 0.029634 -0.21812
v -0.690843 0.033396 -0.219179
v -0.691146 0.033401 -0.220188
v -0.691146 0.029645 -0.220208
v -0.690843 0.029639 -0.219199
v -0.691146 0.033401 -0.220188
v -0.691559 0.033406 -0.221119
v -0.691559 0.02965 -0.22114
v -0.691146 0.029645 -0.220208
v -0.691559 0.033406 -0.221119
v -0.692073 0.033411 -0.221967
v -0.692073 0.029655 -0.221987
v -0.691559 0.02965 -0.22114
v -0.692073 0.033411 -0.221967
v -0.692681 0.033415 -0.222723
v -0.692681 0.029659 -0.222743
v -0.692073 0.029655 -0.221987
v -0.692681 0.033415 -0.222723
v -0.693377 0.033418 -0.223381
v -0.693377 0.029662 -0.223401
v -0.692681 0.029659 -0.222743
v -0.693377 0.033418 -0.223381
v -0.694153 0.033421 -0.223934
v -0.694153 0.029665 -0.223954
v -0.693377 0.029662 -0.223401
v -0.694153 0.033421 -0.223934
v -0.695002 0.033424 -0.224376
v -0.695002 0.029668 -0.224397
v -0.694153 0.029665 -0.223954
v -0.695002 0.033424 -0.224376
v -0.695917 0.033426 -0.224701
v -0.695917 0.02967 -0.224721
v -0.695002 0.029668 -0.224397
v -0.695917 0.033426 -0.224701
v -0.696891 0.033427 -0.2249
v -0.696891 0.029671 -0.22492
v -0.695917 0.02967 -0.224721
v -0.696891 0.033427 -0.2249
v -0.697916 0.033427 -0.224968
v -0.697916 0.029671 -0.224989
v -0.696891 0.029671 -0.22492
v -0.697916 0.033427 -0.224968
v -0.698685 0.033427 -0.224938
v -0.698685 0.029671 -0.224959
v -0.697916 0.029671 -0.224989
v -0.698685 0.033427 -0.224938
v -0.699456 0.033426 -0.224846
v -0.699456 0.02967 -0.224866
v -0.698685 0.029671 -0.224959
v -0.699456 0.033426 -0.224846
v -0.700232 0.033426 -0.224685
v -0.700232 0.029669 -0.224705
v -0.699456 0.02967 -0.224866
v -0.700232 0.033426 -0.224685
v -0.701014 0.033424 -0.224449
v -0.701014 0.029668 -0.224469
v -0.700232 0.029669 -0.224705
v -0.701014 0.033424 -0.224449
v -0.701801 0.033423 -0.224134
v -0.701801 0.029666 -0.224154
v -0.701014 0.029668 -0.224469
v -0.701801 0.033423 -0.224134
v -0.702596 0.03342 -0.223732
v -0.702596 0.029664 -0.223752
v -0.701801 0.029666 -0.224154
v -0.702596 0.03342 -0.223732
v -0.703398 0.033418 -0.223239
v -0.703398 0.029662 -0.22326
v -0.702596 0.029664 -0.223752
v -0.703398 0.033418 -0.223239
v -0.704209 0.033414 -0.222649
v -0.704209 0.029658 -0.22267
v -0.703398 0.029662 -0.22326
v -0.704209 0.033414 -0.222649
v -0.705029 0.033411 -0.221958
v -0.705029 0.029655 -0.221978
v -0.704209 0.029658 -0.22267
v -0.705029 0.033411 -0.221958
v -0.70586 0.033406 -0.221157
v -0.70586 0.02965 -0.221178
v -0.705029 0.029655 -0.221978
v -0.70586 0.033406 -0.221157
v -0.706703 0.033401 -0.220243
v -0.706703 0.029645 -0.220263
v -0.70586 0.02965 -0.221178
v -0.706703 0.033401 -0.220243
v -0.707557 0.033396 -0.219209
v -0.707557 0.02964 -0.21923
v -0.706703 0.029645 -0.220263
v -0.707557 0.033396 -0.219209
v -0.707557 0.033438 -0.226909
v -0.707557 0.029682 -0.22693
v -0.707557 0.02964 -0.21923
v -0.707557 0.033438 -0.226909
v -0.706701 0.033441 -0.227567
v -0.706701 0.029685 -0.227588
v -0.707557 0.029682 -0.22693
v -0.706701 0.033441 -0.227567
v -0.705854 0.033445 -0.228167
v -0.705854 0.029688 -0.228187
v -0.706701 0.029685 -0.227588
v -0.705854 0.033445 -0.228167
v -0.705014 0.033447 -0.228707
v -0.705014 0.029691 -0.228728
v -0.705854 0.029688 -0.228187
v -0.705014 0.033447 -0.228707
v -0.704179 0.03345 -0.229188
v -0.704179 0.029694 -0.229208
v -0.705014 0.029691 -0.228728
v -0.704179 0.03345 -0.229188
v -0.703347 0.033452 -0.229611
v -0.703347 0.029696 -0.229631
v -0.704179 0.029694 -0.229208
v -0.703347 0.033452 -0.229611
v -0.702517 0.033454 -0.229977
v -0.702517 0.029698 -0.229997
v -0.703347 0.029696 -0.229631
v -0.702517 0.033454 -0.229977
v -0.701688 0.033456 -0.230284
v -0.701688 0.0297 -0.230304
v -0.702517 0.029698 -0.229997
v -0.701688 0.033456 -0.230284
v -0.700856 0.033457 -0.230535
v -0.700856 0.029701 -0.230556
v -0.701688 0.0297 -0.230304
v -0.700856 0.033457 -0.230535
v -0.700021 0.033458 -0.23073
v -0.700021 0.029702 -0.23075
v -0.700856 0.029701 -0.230556
v -0.700021 0.033458 -0.23073
v -0.699181 0.033459 -0.230868
v -0.699181 0.029703 -0.230889
v -0.700021 0.029702 -0.23075
v -0.699181 0.033459 -0.230868
v -0.698334 0.03346 -0.230951
v -0.698334 0.029704 -0.230971
v -0.699181 0.029703 -0.230889
v -0.698334 0.03346 -0.230951
v -0.697478 0.03346 -0.230978
v -0.697478 0.029704 -0.230999
v -0.698334 0.029704 -0.230971
v -0.697478 0.03346 -0.230978
v -0.695604 0.033459 -0.230867
v -0.695604 0.029703 -0.230887
v -0.697478 0.029704 -0.230999
v -0.695604 0.033459 -0.230867
v -0.69384 0.033457 -0.230538
v -0.69384 0.029701 -0.230558
v -0.695604 0.029703 -0.230887
v -0.69384 0.033457 -0.230538
v -0.692195 0.033455 -0.230004
v -0.692195 0.029698 -0.230025
v -0.69384 0.029701 -0.230558
v -0.692195 0.033455 -0.230004
v -0.69068 0.033451 -0.229274
v -0.69068 0.029694 -0.229294
v -0.692195 0.029698 -0.230025
v -0.69068 0.033451 -0.229274
v -0.689305 0.033446 -0.228359
v -0.689305 0.029689 -0.228379
v -0.69068 0.029694 -0.229294
v -0.689305 0.033446 -0.228359
v -0.68808 0.03344 -0.227269
v -0.68808 0.029684 -0.227289
v -0.689305 0.029689 -0.228379
v -0.68808 0.03344 -0.227269
v -0.687015 0.033433 -0.226015
v -0.687015 0.029677 -0.226035
v -0.68808 0.029684 -0.227289
v -0.687015 0.033433 -0.226015
v -0.686121 0.033425 -0.224606
v -0.686121 0.029669 -0.224627
v -0.687015 0.029677 -0.226035
v -0.686121 0.033425 -0.224606
v -0.685408 0.033417 -0.223055
v -0.685408 0.029661 -0.223075
v -0.686121 0.029669 -0.224627
v -0.685408 0.033417 -0.223055
v -0.684887 0.033408 -0.221371
v -0.684887 0.029651 -0.221391
v -0.685408 0.029661 -0.223075
v -0.684887 0.033408 -0.221371
v -0.684566 0.033398 -0.219563
v -0.684566 0.029642 -0.219583
v -0.684887 0.029651 -0.221391
v -0.684566 0.033398 -0.219563
v -0.684457 0.033387 -0.217644
v -0.684457 0.029631 -0.217664
v -0.684566 0.029642 -0.219583
v -0.684457 0.033387 -0.217644
v -0.684536 0.033378 -0.215926
v -0.684536 0.029622 -0.215947
v -0.684457 0.029631 -0.217664
v -0.684536 0.033378 -0.215926
v -0.684779 0.033369 -0.214233
v -0.684779 0.029613 -0.214253
v -0.684536 0.029622 -0.215947
v -0.684779 0.033369 -0.214233
v -0.685192 0.033359 -0.21254
v -0.685192 0.029603 -0.212561
v -0.684779 0.029613 -0.214253
v -0.685192 0.033359 -0.21254
v -0.685783 0.03335 -0.210825
v -0.685783 0.029594 -0.210846
v -0.685192 0.029603 -0.212561
v -0.685783 0.03335 -0.210825
v -0.686558 0.03334 -0.209065
v -0.686558 0.029584 -0.209085
v -0.685783 0.029594 -0.210846
v -0.686558 0.03334 -0.209065
v -0.687524 0.033331 -0.207236
v -0.687524 0.029574 -0.207257
v -0.686558 0.029584 -0.209085
v -0.687524 0.033331 -0.207236
v -0.688689 0.03332 -0.205316
v -0.688689 0.029564 -0.205337
v -0.687524 0.029574 -0.207257
v -0.688689 0.03332 -0.205316
v -0.690058 0.033309 -0.203283
v -0.690058 0.029553 -0.203303
v -0.688689 0.029564 -0.205337
v -0.690058 0.033309 -0.203283
v -0.69164 0.033297 -0.201111
v -0.69164 0.029541 -0.201131
v -0.690058 0.029553 -0.203303
v -0.69164 0.033297 -0.201111
v -0.693441 0.033284 -0.198779
v -0.693441 0.029528 -0.1988
v -0.69164 0.029541 -0.201131
v -0.693441 0.033284 -0.198779
v -0.695468 0.033271 -0.196264
v -0.695468 0.029515 -0.196285
v -0.693441 0.029528 -0.1988
v -0.695468 0.033271 -0.196264
v -0.697728 0.033256 -0.193542
v -0.697728 0.0295 -0.193562
v -0.695468 0.029515 -0.196285
v -0.697728 0.033256 -0.193542
v -0.681389 0.033256 -0.193542
v -0.681389 0.0295 -0.193562
v -0.697728 0.0295 -0.193562
v -0.681389 0.033256 -0.193542
v -0.681389 0.033224 -0.187721
v -0.681389 0.029468 -0.187741
v -0.681389 0.0295 -0.193562
v -0.681389 0.033224 -0.187721
v -0.708433 0.033224 -0.187721
v -0.708433 0.029468 -0.187741
v -0.681389 0.029468 -0.187741
vn -0 1 0.0054
vn -0 1 0.0057
vn -0 1 0.0052
vn -0 1 0.0054
vn -0 1 0.0057
vn -0 1 0.0054
vn -0 1 0.0052
vn -0 1 0.0057
vn -0 1 0.0054
vn -0 1 0.0052
vn -0 1 0.0052
vn -0 1 0.0057
vn -0 1 0.0054
vn -0 1 0.0052
vn -0 1 0.0052
vn -0 1 0.0054
vn -0.0001 1 0.0055
vn -0 1 0.0052
vn -0 1 0.0056
vn -0.0001 1 0.0055
vn -0 1 0.0054
vn -0.0001 1 0.0055
vn -0.0001 1 0.0055
vn -0 1 0.0056
vn -0.0001 1 0.0055
vn -0 1 0.0055
vn -0.0001 1 0.0055
vn -0 1 0.0052
vn -0 1 0.0055
vn -0.0001 1 0.0055
vn -0 1 0.0056
vn -0 1 0.0055
vn -0 1 0.0052
vn -0 1 0.0056
vn -0 1 0.0055
vn -0 1 0.0055
vn -0 1 0.0052
vn -0 1 0.0055
vn -0 1 0.0056
vn -0 1 0.0055
vn -0 1 0.0055
vn -0 1 0.0052
vn -0 1 0.0055
vn -0 1 0.0056
vn -0 1 0.0055
vn -0 1 0.0053
vn -0 1 0.0056
vn -0 1 0.0055
vn -0 1 0.0052
vn -0 1 0.0056
vn -0 1 0.0053
vn -0 1 0.0052
vn -0 1 0.0057
vn -0 1 0.0056
vn 0.0004 1 0.0055
vn 0.0006 1 0.0055
vn -0 1 0.0052
vn 0.0006 1 0.0055
vn -0.0001 1 0.0056
vn -0 1 0.0052
vn -0.0001 1 0.0056
vn -0 1 0.0055
vn -0 1 0.0052
vn -0 1 0.0055
vn 0.0001 1 0.0056
vn -0 1 0.0052
vn 0.0001 1 0.0056
vn 0.0001 1 0.0054
vn -0 1 0.0052
vn 0.0001 1 0.0054
vn -0.0002 1 0.0059
vn -0 1 0.0052
vn -0.0002 1 0.0059
vn 0.0002 1 0.005
vn -0 1 0.0052
vn 0.0002 1 0.005
vn -0.0001 1 0.0058
vn -0 1 0.0052
vn -0.0001 1 0.0058
vn -0 1 0.0053
vn -0 1 0.0052
vn -0 1 0.0053
vn 0.0001 1 0.0054
vn -0 1 0.0052
vn 0.0001 1 0.0054
vn -0 1 0.0055
vn -0 1 0.0052
vn -0 1 0.0055
vn -0 1 0.0057
vn -0 1 0.0052
vn -0 1 0.0055
vn -0 1 0.0053
vn -0 1 0.0057
vn -0 1 0.0053
vn -0 1 0.0053
vn -0 1 0.0057
vn -0 1 0.0055
vn -0 1 0.0053
vn -0 1 0.0053
vn -0 1 0.0052
vn -0 1 0.0053
vn -0 1 0.0055
vn -0 1 0.0056
vn -0 1 0.0053
vn -0 1 0.0052
vn -0 1 0.0056
vn -0 1 0.0053
vn -0 1 0.0053
vn -0 1 0.0054
vn -0 1 0.0053
vn -0 1 0.0056
vn -0.0001 1 0.0054
vn -0 1 0.0053
vn -0 1 0.0054
vn -0.0001 1 0.0048
vn -0 1 0.0053
vn -0.0001 1 0.0054
vn -0.0001 1 0.0048
vn -0.0001 1 0.0055
vn -0 1 0.0053
vn -0 1 0.0055
vn -0.0001 1 0.0055
vn -0.0001 1 0.0048
vn -0.0001 1 0.0057
vn -0.0001 1 0.0055
vn -0 1 0.0055
vn -0.0001 1 0.0057
vn -0 1 0.0056
vn -0.0001 1 0.0055
vn -0 1 0.0052
vn -0 1 0.0056
vn -0.0001 1 0.0057
vn -0 1 0.0056
vn -0 1 0.0056
vn -0 1 0.0052
vn -0 1 0.0056
vn -0 1 0.0055
vn -0 1 0.0056
vn 0.0001 1 0.0058
vn -0 1 0.0055
vn -0 1 0.0056
vn -0 1 0.0054
vn -0 1 0.0055
vn 0.0001 1 0.0058
vn -0 1 0.0054
vn -0.0001 1 0.0053
vn -0 1 0.0055
vn -0 1 0.0054
vn -0.0001 1 0.0053
vn -0 1 0.0054
vn -0 1 0.0056
vn -0.0001 1 0.0053
vn -0 1 0.0054
vn -0 1 0.0056
vn 0.0001 1 0.0052
vn -0.0001 1 0.0053
vn -0.0001 1 0.0053
vn 0.0001 1 0.0052
vn -0 1 0.0056
vn -0 1 0.0055
vn 0.0001 1 0.0052
vn -0.0001 1 0.0053
vn -0 1 0.0055
vn -0 1 0.0056
vn 0.0001 1 0.0052
vn -0 1 0.0056
vn -0 1 0.0056
vn -0 1 0.0055
vn -0 1 0.0056
vn -0 1 0.0056
vn -0 1 0.0056
vn -0 1 0.0056
vn -0 1 0.0054
vn -0 1 0.0056
vn -0 1 0.0052
vn -0 1 0.0054
vn -0 1 0.0056
vn 0.0001 1 0.0051
vn -0 1 0.0054
vn -0 1 0.0052
vn 0.0001 1 0.0055
vn -0 1 0.0054
vn 0.0001 1 0.0051
vn 0.0001 1 0.0055
vn 0.0001 1 0.0055
vn -0 1 0.0054
vn 0.0001 1 0.0057
vn 0.0001 1 0.0055
vn 0.0001 1 0.0055
vn 0.0001 1 0.0053
vn 0.0001 1 0.0055
vn 0.0001 1 0.0057
vn 0.0001 1 0.0053
vn -0 1 0.0052
vn 0.0001 1 0.0055
vn -0 1 0.0054
vn -0 1 0.0052
vn 0.0001 1 0.0053
vn -0 1 0.0056
vn -0 1 0.0052
vn -0 1 0.0054
vn -0 1 0.0056
vn -0 1 0.0056
vn -0 1 0.0052
vn -0 1 0.0054
vn -0 1 0.0056
vn -0 1 0.0056
vn -0 1 0.0054
vn -0 1 0.0054
vn -0 1 0.0056
vn -0 1 0.0054
vn -0 1 0.0054
vn -0 1 0.0054
vn -0 1 0.0054
vn -0 1 0.0055
vn -0 1 0.0054
vn 0.0001 1 0.0057
vn -0 1 0.0055
vn -0 1 0.0054
vn -0 1 0.0054
vn -0 1 0.0055
vn 0.0001 1 0.0057
vn -0 1 0.0054
vn -0 1 0.0054
vn -0 1 0.0055
vn -0 1 0.0052
vn -0 1 0.0054
vn -0 1 0.0054
vn -0 1 0.0052
vn -0 1 0.0053
vn -0 1 0.0054
vn -0 1 0.0054
vn -0 1 0.0053
vn -0 1 0.0052
vn -0 1 0.0054
vn -0 1 0.0053
vn -0 1 0.0053
vn -0 1 0.0055
vn -0 1 0.0053
vn -0 1 0.0054
vn -0 1 0.0056
vn -0 1 0.0053
vn -0 1 0.0055
vn -0 1 0.0056
vn -0 1 0.0055
vn -0 1 0.0053
vn -0 1 0.0056
vn -0 1 0.0055
vn -0 1 0.0055
vn -0 1 0.0054
vn -0 1 0.0055
vn -0 1 0.0056
vn -0 1 0.0054
vn -0 1 0.0055
vn -0 1 0.0054
vn -0 1 0.0057
vn -0 1 0.0055
vn -0 1 0.0054
vn -0 1 0.0058
vn -0 1 0.0055
vn -0 1 0.0057
vn -0 -1 -0.0056
vn -0 -1 -0.0054
vn -0 -1 -0.0055
vn -0 -1 -0.0056
vn -0 -1 -0.0054
vn -0 -1 -0.0054
vn -0 -1 -0.0056
vn -0 -1 -0.0053
vn -0 -1 -0.0054
vn -0 -1 -0.0056
vn -0 -1 -0.0053
vn -0 -1 -0.0056
vn -0 -1 -0.0056
vn -0 -1 -0.0055
vn -0 -1 -0.0053
vn -0 -1 -0.0055
vn -0 -1 -0.0055
vn -0 -1 -0.0056
vn -0 -1 -0.0055
vn -0 -1 -0.0057
vn -0 -1 -0.0055
vn -0 -1 -0.0055
vn -0 -1 -0.0056
vn -0 -1 -0.0057
vn -0 -1 -0.0054
vn -0 -1 -0.0056
vn -0 -1 -0.0055
vn -0 -1 -0.0054
vn -0 -1 -0.0054
vn -0 -1 -0.0056
vn -0 -1 -0.0054
vn -0 -1 -0.0054
vn -0 -1 -0.0054
vn -0 -1 -0.0054
vn -0 -1 -0.0054
vn -0 -1 -0.0054
vn -0 -1 -0.0054
vn -0 -1 -0.0057
vn -0 -1 -0.0054
vn -0 -1 -0.0054
vn -0 -1 -0.0054
vn -0 -1 -0.0057
vn -0 -1 -0.0053
vn -0 -1 -0.0054
vn -0 -1 -0.0054
vn -0 -1 -0.0053
vn -0 -1 -0.0055
vn -0 -1 -0.0054
vn -0 -1 -0.0053
vn -0.0001 -1 -0.0053
vn -0 -1 -0.0055
vn -0 -1 -0.0057
vn -0.0001 -1 -0.0053
vn -0 -1 -0.0053
vn -0.0002 -1 -0.0055
vn -0.0002 -1 -0.0055
vn -0.0001 -1 -0.0053
vn 0.0001 -1 -0.0056
vn -0.0002 -1 -0.0055
vn -0.0001 -1 -0.0053
vn -0 -1 -0.0055
vn 0.0001 -1 -0.0056
vn -0.0001 -1 -0.0053
vn -0.0001 -1 -0.0056
vn -0 -1 -0.0055
vn -0.0001 -1 -0.0053
vn -0.0001 -1 -0.0054
vn -0.0001 -1 -0.0056
vn -0.0001 -1 -0.0053
vn -0.0003 -1 -0.0052
vn -0.0001 -1 -0.0054
vn -0.0001 -1 -0.0053
vn -0 -1 -0.0058
vn -0.0003 -1 -0.0052
vn -0.0001 -1 -0.0053
vn -0.0002 -1 -0.0053
vn -0 -1 -0.0058
vn -0.0001 -1 -0.0053
vn -0 -1 -0.0058
vn -0.0002 -1 -0.0053
vn -0.0001 -1 -0.0053
vn -0 -1 -0.0057
vn -0 -1 -0.0058
vn -0.0001 -1 -0.0053
vn -0 -1 -0.0058
vn -0 -1 -0.0057
vn -0.0001 -1 -0.0053
vn -0 -1 -0.0057
vn -0 -1 -0.0058
vn -0.0001 -1 -0.0053
vn -0 -1 -0.0054
vn -0 -1 -0.0058
vn -0 -1 -0.0057
vn -0 -1 -0.0053
vn -0 -1 -0.0054
vn -0 -1 -0.0057
vn -0 -1 -0.0053
vn -0 -1 -0.0056
vn -0 -1 -0.0054
vn -0 -1 -0.0053
vn -0.0001 -1 -0.0049
vn -0 -1 -0.0056
vn -0 -1 -0.0053
vn -0 -1 -0.0061
vn -0.0001 -1 -0.0049
vn -0 -1 -0.0056
vn -0 -1 -0.0061
vn -0 -1 -0.0053
vn -0 -1 -0.0056
vn -0 -1 -0.0054
vn -0 -1 -0.0061
vn -0 -1 -0.0056
vn 0.0001 -1 -0.0054
vn -0 -1 -0.0054
vn -0 -1 -0.0056
vn -0 -1 -0.0048
vn 0.0001 -1 -0.0054
vn -0 -1 -0.0054
vn -0 -1 -0.0048
vn -0 -1 -0.0056
vn -0 -1 -0.0054
vn -0.0001 -1 -0.0054
vn -0 -1 -0.0048
vn -0 -1 -0.0054
vn -0 -1 -0.0057
vn -0.0001 -1 -0.0054
vn 0.0001 -1 -0.0054
vn -0 -1 -0.0057
vn -0 -1 -0.0054
vn 0.0001 -1 -0.0054
vn 0.0001 -1 -0.0056
vn -0 -1 -0.0057
vn 0.0001 -1 -0.0054
vn -0 -1 -0.0055
vn 0.0001 -1 -0.0056
vn 0.0001 -1 -0.0055
vn -0 -1 -0.0055
vn 0.0001 -1 -0.0054
vn 0.0001 -1 -0.0055
vn 0.0001 -1 -0.0055
vn -0 -1 -0.0055
vn 0.0001 -1 -0.0055
vn -0 -1 -0.0054
vn 0.0001 -1 -0.0055
vn 0.0001 -1 -0.0053
vn -0 -1 -0.0054
vn 0.0001 -1 -0.0055
vn 0.0001 -1 -0.0053
vn -0 -1 -0.0054
vn -0 -1 -0.0054
vn 0.0001 -1 -0.0053
vn -0 -1 -0.0056
vn -0 -1 -0.0054
vn 0.0001 -1 -0.0055
vn -0 -1 -0.0056
vn 0.0001 -1 -0.0053
vn 0.0001 -1 -0.0055
vn -0 -1 -0.0058
vn -0 -1 -0.0056
vn 0.0001 -1 -0.0055
vn -0 -1 -0.0055
vn -0 -1 -0.0058
vn -0 -1 -0.0056
vn -0 -1 -0.0055
vn 0.0001 -1 -0.0055
vn -0 -1 -0.0056
vn -0 -1 -0.0056
vn -0 -1 -0.0055
vn -0 -1 -0.0056
vn -0 -1 -0.0056
vn -0 -1 -0.0056
vn -0 -1 -0.0054
vn -0 -1 -0.0056
vn -0 -1 -0.0056
vn -0 -1 -0.0054
vn -0 -1 -0.0053
vn -0 -1 -0.0056
vn -0 -1 -0.0054
vn -0.0001 -1 -0.0051
vn -0 -1 -0.0053
vn -0 -1 -0.0054
vn -0 -1 -0.0058
vn -0.0001 -1 -0.0051
vn -0.0001 -1 -0.0057
vn -0 -1 -0.0058
vn -0 -1 -0.0054
vn -0.0001 -1 -0.0057
vn -0 -1 -0.0056
vn -0 -1 -0.0058
vn -0.0001 -1 -0.0057
vn -0.0001 -1 -0.005
vn -0 -1 -0.0056
vn -0.0001 -1 -0.0054
vn -0.0001 -1 -0.005
vn -0.0001 -1 -0.0057
vn -0.0001 -1 -0.0054
vn -0.0001 -1 -0.0055
vn -0.0001 -1 -0.005
vn -0.0001 -1 -0.0054
vn -0 -1 -0.0056
vn -0.0001 -1 -0.0055
vn -0 -1 -0.0053
vn -0 -1 -0.0056
vn -0.0001 -1 -0.0054
vn -0 -1 -0.0053
vn -0 -1 -0.0054
vn -0 -1 -0.0056
vn -0 -1 -0.0054
vn -0 -1 -0.0054
vn -0 -1 -0.0053
vn -0 -1 -0.0054
vn -0 -1 -0.0054
vn -0 -1 -0.0054
vn -0 -1 -0.0055
vn -0 -1 -0.0054
vn -0 -1 -0.0054
vn -0 -1 -0.0055
vn -0 -1 -0.0057
vn -0 -1 -0.0054
vn -0 -1 -0.0055
vn -0 -1 -0.0054
vn -0 -1 -0.0057
vn -0 -1 -0.0054
vn -0 -1 -0.0054
vn -0 -1 -0.0055
vn -0 -1 -0.0054
vn -0 -1 -0.0052
vn -0 -1 -0.0054
vn -0 -1 -0.0053
vn -0 -1 -0.0052
vn -0 -1 -0.0054
vn -0 -1 -0.0053
vn -0 -1 -0.0054
vn -0 -1 -0.0052
vn -0 -1 -0.0053
vn -0 -1 -0.0054
vn -0 -1 -0.0053
vn -0 -1 -0.0053
vn -0 -1 -0.0055
vn -0 -1 -0.0054
vn -0 -1 -0.0053
vn -0 -1 -0.0056
vn -0 -1 -0.0055
vn -0 -1 -0.0055
vn -0 -1 -0.0056
vn -0 -1 -0.0053
vn -0 -1 -0.0055
vn -0 -1 -0.0056
vn -0 -1 -0.0055
vn -0 -1 -0.0055
vn -0 -1 -0.0058
vn -0 -1 -0.0056
vn -0 -1 -0.0055
vn -0 -1 -0.0051
vn -0 -1 -0.0058
vn -0 -1 -0.0055
vn -0 -1 -0.0056
vn -0 -1 -0.0051
vn -0 -1 -0.0055
vn -0 -1 -0.0055
vn -0 -1 -0.0056
vn -0.7075 -0.0038 0.7068
vn -0.9411 0.0019 -0.338
vn -0.9412 0.0019 -0.3378
vn -0.707 -0.0039 0.7072
vn -0.9411 0.0019 -0.338
vn -0.7715 0.0034 -0.6362
vn -0.7715 0.0034 -0.6362
vn -0.9412 0.0019 -0.3378
vn -0.7715 0.0034 -0.6362
vn -0.7724 0.0034 -0.6351
vn -0.7724 0.0034 -0.6351
vn -0.7715 0.0034 -0.6362
vn -0.7724 0.0034 -0.6351
vn -0.7749 0.0034 -0.632
vn -0.7749 0.0034 -0.632
vn -0.7724 0.0034 -0.6351
vn -0.7749 0.0034 -0.632
vn -0.7784 0.0033 -0.6277
vn -0.7784 0.0033 -0.6277
vn -0.7749 0.0034 -0.632
vn -0.7784 0.0033 -0.6277
vn -0.7832 0.0034 -0.6218
vn -0.7832 0.0034 -0.6218
vn -0.7784 0.0033 -0.6277
vn -0.7832 0.0034 -0.6218
vn -0.7893 0.0034 -0.614
vn -0.7893 0.0034 -0.614
vn -0.7832 0.0034 -0.6218
vn -0.7893 0.0034 -0.614
vn -0.7968 0.0034 -0.6042
vn -0.7968 0.0034 -0.6042
vn -0.7893 0.0034 -0.614
vn -0.7968 0.0034 -0.6042
vn -0.8059 0.0031 -0.592
vn -0.8057 0.0033 -0.5923
vn -0.7968 0.0034 -0.6042
vn -0.8059 0.0031 -0.592
vn -0.8167 0.0032 -0.577
vn -0.8167 0.0032 -0.577
vn -0.8057 0.0033 -0.5923
vn -0.8167 0.0032 -0.577
vn -0.8298 0.0031 -0.558
vn -0.8298 0.0031 -0.558
vn -0.8167 0.0032 -0.577
vn -0.8298 0.0031 -0.558
vn -0.8452 0.003 -0.5345
vn -0.8452 0.003 -0.5345
vn -0.8298 0.0031 -0.558
vn -0.8452 0.003 -0.5345
vn -0.8603 0.0028 -0.5098
vn -0.8603 0.0028 -0.5098
vn -0.8452 0.003 -0.5345
vn -0.8603 0.0028 -0.5098
vn -0.8705 0.0027 -0.4922
vn -0.8705 0.0027 -0.4922
vn -0.8603 0.0028 -0.5098
vn -0.8705 0.0027 -0.4922
vn -0.8798 0.0026 -0.4754
vn -0.8796 0.0026 -0.4757
vn -0.8705 0.0027 -0.4922
vn -0.8798 0.0026 -0.4754
vn -0.8922 0.0025 -0.4515
vn -0.8922 0.0025 -0.4515
vn -0.8796 0.0026 -0.4757
vn -0.8922 0.0025 -0.4515
vn -0.9072 0.0023 -0.4206
vn -0.9073 0.0023 -0.4206
vn -0.8922 0.0025 -0.4515
vn -0.9072 0.0023 -0.4206
vn -0.9246 0.0021 -0.3808
vn -0.9246 0.0021 -0.3808
vn -0.9073 0.0023 -0.4206
vn -0.9246 0.0021 -0.3808
vn -0.9425 0.0018 -0.3343
vn -0.9425 0.0018 -0.3343
vn -0.9246 0.0021 -0.3808
vn -0.9425 0.0018 -0.3343
vn -0.9598 0.0015 -0.2807
vn -0.9598 0.0015 -0.2807
vn -0.9425 0.0018 -0.3343
vn -0.9598 0.0015 -0.2807
vn -0.9748 0.0012 -0.2232
vn -0.9747 0.0012 -0.2233
vn -0.9598 0.0015 -0.2807
vn -0.9748 0.0012 -0.2232
vn -0.9865 0.0009 -0.1637
vn -0.9865 0.0009 -0.164
vn -0.9747 0.0012 -0.2233
vn -0.9865 0.0009 -0.1637
vn -0.9944 0.0006 -0.1054
vn -0.9944 0.0006 -0.1054
vn -0.9865 0.0009 -0.164
vn -0.9944 0.0006 -0.1054
vn -0.9987 0.0003 -0.0506
vn -0.9987 0.0003 -0.0502
vn -0.9944 0.0006 -0.1054
vn -0.9987 0.0003 -0.0506
vn -0.9999 -0.0001 0.0158
vn -0.9999 -0.0001 0.0158
vn -0.9987 0.0003 -0.0502
vn -0.9999 -0.0001 0.0158
vn -0.9935 -0.0006 0.1138
vn -0.9935 -0.0006 0.1135
vn -0.9999 -0.0001 0.0158
vn -0.9935 -0.0006 0.1138
vn -0.9733 -0.0012 0.2296
vn -0.9733 -0.0012 0.2296
vn -0.9935 -0.0006 0.1135
vn -0.9733 -0.0012 0.2296
vn -0.9378 -0.0019 0.3471
vn -0.9378 -0.0019 0.3471
vn -0.9733 -0.0012 0.2296
vn -0.9378 -0.0019 0.3471
vn -0.8864 -0.0025 0.4629
vn -0.8864 -0.0025 0.4629
vn -0.9378 -0.0019 0.3471
vn -0.8864 -0.0025 0.4629
vn -0.8189 -0.0031 0.5739
vn -0.8189 -0.0031 0.5739
vn -0.8864 -0.0025 0.4629
vn -0.8189 -0.0031 0.5739
vn -0.7348 -0.0036 0.6782
vn -0.7345 -0.0038 0.6786
vn -0.8189 -0.0031 0.5739
vn -0.7348 -0.0036 0.6782
vn -0.6352 -0.0041 0.7723
vn -0.6354 -0.0042 0.7722
vn -0.7345 -0.0038 0.6786
vn -0.6352 -0.0041 0.7723
vn -0.5225 -0.0046 0.8526
vn -0.5225 -0.0046 0.8526
vn -0.6354 -0.0042 0.7722
vn -0.5225 -0.0046 0.8526
vn -0.3992 -0.005 0.9169
vn -0.3992 -0.005 0.9168
vn -0.5225 -0.0046 0.8526
vn -0.3992 -0.005 0.9169
vn -0.2679 -0.0052 0.9634
vn -0.2679 -0.0052 0.9634
vn -0.3992 -0.005 0.9168
vn -0.2679 -0.0052 0.9634
vn -0.1337 -0.0053 0.991
vn -0.1337 -0.0053 0.991
vn -0.2679 -0.0052 0.9634
vn -0.1337 -0.0053 0.991
vn -0.0139 -0.0055 0.9999
vn -0.0136 -0.0053 0.9999
vn -0.1337 -0.0053 0.991
vn -0.0139 -0.0055 0.9999
vn 0.0787 -0.0053 0.9969
vn 0.0788 -0.0054 0.9969
vn -0.0136 -0.0053 0.9999
vn 0.0787 -0.0053 0.9969
vn 0.1613 -0.0053 0.9869
vn 0.1613 -0.0053 0.9869
vn 0.0788 -0.0054 0.9969
vn 0.1613 -0.0053 0.9869
vn 0.2463 -0.0052 0.9692
vn 0.2463 -0.0052 0.9692
vn 0.1613 -0.0053 0.9869
vn 0.2463 -0.0052 0.9692
vn 0.3306 -0.005 0.9438
vn 0.3309 -0.0051 0.9437
vn 0.2463 -0.0052 0.9692
vn 0.3306 -0.005 0.9438
vn 0.4121 -0.0052 0.9111
vn 0.412 -0.0051 0.9112
vn 0.3309 -0.0051 0.9437
vn 0.4121 -0.0052 0.9111
vn 0.4877 -0.0047 0.873
vn 0.4877 -0.0047 0.873
vn 0.412 -0.0051 0.9112
vn 0.4877 -0.0047 0.873
vn 0.5562 -0.0046 0.831
vn 0.5562 -0.0046 0.831
vn 0.4877 -0.0047 0.873
vn 0.5562 -0.0046 0.831
vn 0.6169 -0.0044 0.787
vn 0.6169 -0.0044 0.787
vn 0.5562 -0.0046 0.831
vn 0.6169 -0.0044 0.787
vn 0.6696 -0.0041 0.7427
vn 0.6696 -0.0041 0.7427
vn 0.6169 -0.0044 0.787
vn 0.6696 -0.0041 0.7427
vn 0.7148 -0.0038 0.6993
vn 0.7148 -0.0038 0.6993
vn 0.6696 -0.0041 0.7427
vn 0.7148 -0.0038 0.6993
vn 0.7534 -0.0036 0.6576
vn 0.7533 -0.0036 0.6576
vn 0.7148 -0.0038 0.6993
vn 0.7534 -0.0036 0.6576
vn -0.3388 -0.0052 0.9408
vn -0.3381 -0.0052 0.9411
vn 0.7533 -0.0036 0.6576
vn -0.3388 -0.0052 0.9408
vn -0.8971 0.0025 -0.4418
vn -0.897 0.0025 -0.442
vn -0.3381 -0.0052 0.9411
vn -0.8971 0.0025 -0.4418
vn -0.5937 0.0044 -0.8047
vn -0.5937 0.0044 -0.8047
vn -0.897 0.0025 -0.442
vn -0.5937 0.0044 -0.8047
vn -0.5596 0.0045 -0.8288
vn -0.5596 0.0045 -0.8288
vn -0.5937 0.0044 -0.8047
vn -0.5596 0.0045 -0.8288
vn -0.5201 0.0047 -0.8541
vn -0.5201 0.0047 -0.8541
vn -0.5596 0.0045 -0.8288
vn -0.5201 0.0047 -0.8541
vn -0.4762 0.0047 -0.8793
vn -0.4762 0.0047 -0.8793
vn -0.5201 0.0047 -0.8541
vn -0.4762 0.0047 -0.8793
vn -0.4285 0.0048 -0.9035
vn -0.4285 0.0048 -0.9035
vn -0.4762 0.0047 -0.8793
vn -0.4285 0.0048 -0.9035
vn -0.3755 0.0049 -0.9268
vn -0.3756 0.0049 -0.9268
vn -0.4285 0.0048 -0.9035
vn -0.3755 0.0049 -0.9268
vn -0.3185 0.0051 -0.9479
vn -0.3185 0.0051 -0.9479
vn -0.3756 0.0049 -0.9268
vn -0.3185 0.0051 -0.9479
vn -0.2579 0.0052 -0.9662
vn -0.2582 0.0053 -0.9661
vn -0.3185 0.0051 -0.9479
vn -0.2579 0.0052 -0.9662
vn -0.1949 0.0054 -0.9808
vn -0.1944 0.0053 -0.9809
vn -0.2582 0.0053 -0.9661
vn -0.1949 0.0054 -0.9808
vn -0.1299 0.0054 -0.9915
vn -0.1299 0.0054 -0.9915
vn -0.1944 0.0053 -0.9809
vn -0.1299 0.0054 -0.9915
vn -0.0646 0.0054 -0.9979
vn -0.0646 0.0054 -0.9979
vn -0.1299 0.0054 -0.9915
vn -0.0646 0.0054 -0.9979
vn 0.0136 0.0055 -0.9999
vn 0.0137 0.0055 -0.9999
vn -0.0646 0.0054 -0.9979
vn 0.0136 0.0055 -0.9999
vn 0.1216 0.0054 -0.9926
vn 0.1216 0.0054 -0.9926
vn 0.0137 0.0055 -0.9999
vn 0.1216 0.0054 -0.9926
vn 0.2464 0.0052 -0.9691
vn 0.2464 0.0052 -0.9691
vn 0.1216 0.0054 -0.9926
vn 0.2464 0.0052 -0.9691
vn 0.3723 0.0051 -0.9281
vn 0.3723 0.0051 -0.9281
vn 0.2464 0.0052 -0.9691
vn 0.3723 0.0051 -0.9281
vn 0.4953 0.0047 -0.8687
vn 0.4953 0.0047 -0.8687
vn 0.3723 0.0051 -0.9281
vn 0.4953 0.0047 -0.8687
vn 0.6109 0.0042 -0.7917
vn 0.6109 0.0042 -0.7917
vn 0.4953 0.0047 -0.8687
vn 0.6109 0.0042 -0.7917
vn 0.7152 0.0037 -0.6989
vn 0.7152 0.0037 -0.6989
vn 0.6109 0.0042 -0.7917
vn 0.7152 0.0037 -0.6989
vn 0.8054 0.0032 -0.5927
vn 0.8055 0.0032 -0.5926
vn 0.7152 0.0037 -0.6989
vn 0.8054 0.0032 -0.5927
vn 0.8785 0.0026 -0.4778
vn 0.8785 0.0026 -0.4778
vn 0.8055 0.0032 -0.5926
vn 0.8785 0.0026 -0.4778
vn 0.934 0.0019 -0.3573
vn 0.934 0.0019 -0.3573
vn 0.8785 0.0026 -0.4778
vn 0.934 0.0019 -0.3573
vn 0.9718 0.0013 -0.2356
vn 0.9718 0.0013 -0.2356
vn 0.934 0.0019 -0.3573
vn 0.9718 0.0013 -0.2356
vn 0.9933 0.0006 -0.116
vn 0.9933 0.0006 -0.116
vn 0.9718 0.0013 -0.2356
vn 0.9933 0.0006 -0.116
vn 1 -0 -0.0054
vn 1 -0 -0.0054
vn 0.9933 0.0006 -0.116
vn 1 -0 -0.0054
vn 0.9956 -0.0005 0.0941
vn 0.9956 -0.0005 0.0941
vn 1 -0 -0.0054
vn 0.9956 -0.0005 0.0941
vn 0.9818 -0.001 0.1898
vn 0.9818 -0.001 0.1898
vn 0.9956 -0.0005 0.0941
vn 0.9818 -0.001 0.1898
vn 0.9595 -0.0016 0.2817
vn 0.9595 -0.0016 0.2817
vn 0.9818 -0.001 0.1898
vn 0.9595 -0.0016 0.2817
vn 0.9311 -0.002 0.3647
vn 0.9311 -0.002 0.3647
vn 0.9595 -0.0016 0.2817
vn 0.9311 -0.002 0.3647
vn 0.9003 -0.0024 0.4353
vn 0.9003 -0.0024 0.4353
vn 0.9311 -0.002 0.3647
vn 0.9003 -0.0024 0.4353
vn 0.8699 -0.0027 0.4931
vn 0.87 -0.0027 0.4931
vn 0.9003 -0.0024 0.4353
vn 0.8699 -0.0027 0.4931
vn 0.8425 -0.003 0.5387
vn 0.8425 -0.003 0.5387
vn 0.87 -0.0027 0.4931
vn 0.8425 -0.003 0.5387
vn 0.8191 -0.0031 0.5737
vn 0.8191 -0.0031 0.5737
vn 0.8425 -0.003 0.5387
vn 0.8191 -0.0031 0.5737
vn 0.7999 -0.0032 0.6001
vn 0.7999 -0.0032 0.6001
vn 0.8191 -0.0031 0.5737
vn 0.7999 -0.0032 0.6001
vn 0.785 -0.0034 0.6194
vn 0.785 -0.0034 0.6194
vn 0.7999 -0.0032 0.6001
vn 0.785 -0.0034 0.6194
vn 0.774 -0.0035 0.6331
vn 0.774 -0.0035 0.6331
vn 0.785 -0.0034 0.6194
vn 0.774 -0.0035 0.6331
vn 0.9052 0.0022 -0.4249
vn 0.9051 0.0022 -0.4251
vn 0.774 -0.0035 0.6331
vn 0.9052 0.0022 -0.4249
vn 0.7071 0.0038 -0.7071
vn 0.7071 0.0038 -0.7071
vn 0.9051 0.0022 -0.4251
vn 0.7071 0.0038 -0.7071
vn 0.7071 -0.0041 0.7072
vn 0.7071 -0.0038 0.7071
vn 0.7071 0.0038 -0.7071
vn 0.7071 -0.0041 0.7072
vn -0.7075 -0.0038 0.7068
vn -0.707 -0.0039 0.7072
vn 0.7071 -0.0038 0.7071
vt 0.693182 1
vt 0.715909 1
vt 0.704545 1
vt 0.681818 1
vt 0.715909 1
vt 0.693182 1
vt 0.670455 1
vt 0.715909 1
vt 0.681818 1
vt 0.670455 1
vt 0.727273 1
vt 0.715909 1
vt 0.659091 1
vt 0.727273 1
vt 0.670455 1
vt 0.659091 1
vt 0.738636 1
vt 0.727273 1
vt 0.647727 1
vt 0.738636 1
vt 0.659091 1
vt 0.636364 1
vt 0.738636 1
vt 0.647727 1
vt 0.636364 1
vt 0.75 1
vt 0.738636 1
vt 0.625 1
vt 0.75 1
vt 0.636364 1
vt 0.613636 1
vt 0.75 1
vt 0.625 1
vt 0.613636 1
vt 0.761364 1
vt 0.75 1
vt 0.602273 1
vt 0.761364 1
vt 0.613636 1
vt 0.590909 1
vt 0.761364 1
vt 0.602273 1
vt 0.590909 1
vt 0.772727 1
vt 0.761364 1
vt 0.579545 1
vt 0.772727 1
vt 0.590909 1
vt 0.568182 1
vt 0.772727 1
vt 0.579545 1
vt 0.568182 1
vt 0.784091 1
vt 0.772727 1
vt 0.556818 1
vt 0.545455 1
vt 0.568182 1
vt 0.545455 1
vt 0.534091 1
vt 0.568182 1
vt 0.534091 1
vt 0.522727 1
vt 0.568182 1
vt 0.522727 1
vt 0.511364 1
vt 0.568182 1
vt 0.511364 1
vt 0.5 1
vt 0.568182 1
vt 0.5 1
vt 0.488636 1
vt 0.568182 1
vt 0.488636 1
vt 0.477273 1
vt 0.568182 1
vt 0.477273 1
vt 0.465909 1
vt 0.568182 1
vt 0.465909 1
vt 0.454545 1
vt 0.568182 1
vt 0.454545 1
vt 0.443182 1
vt 0.568182 1
vt 0.443182 1
vt 0.431818 1
vt 0.568182 1
vt 0.431818 1
vt 0.784091 1
vt 0.568182 1
vt 0.431818 1
vt 0.420455 1
vt 0.784091 1
vt 0.420455 1
vt 0.795455 1
vt 0.784091 1
vt 0.409091 1
vt 0.795455 1
vt 0.420455 1
vt 0.397727 1
vt 0.795455 1
vt 0.409091 1
vt 0.386364 1
vt 0.795455 1
vt 0.397727 1
vt 0.386364 1
vt 0.806818 1
vt 0.795455 1
vt 0.375 1
vt 0.806818 1
vt 0.386364 1
vt 0.363636 1
vt 0.806818 1
vt 0.375 1
vt 0.352273 1
vt 0.806818 1
vt 0.363636 1
vt 0.352273 1
vt 0.818182 1
vt 0.806818 1
vt 0.340909 1
vt 0.818182 1
vt 0.352273 1
vt 0.329545 1
vt 0.818182 1
vt 0.340909 1
vt 0.329545 1
vt 0.829545 1
vt 0.818182 1
vt 0.318182 1
vt 0.829545 1
vt 0.329545 1
vt 0.306818 1
vt 0.829545 1
vt 0.318182 1
vt 0.306818 1
vt 0.840909 1
vt 0.829545 1
vt 0.295455 1
vt 0.840909 1
vt 0.306818 1
vt 0.284091 1
vt 0.840909 1
vt 0.295455 1
vt 0.284091 1
vt 0.852273 1
vt 0.840909 1
vt 0.272727 1
vt 0.852273 1
vt 0.284091 1
vt 0.261364 1
vt 0.852273 1
vt 0.272727 1
vt 0.261364 1
vt 0.863636 1
vt 0.852273 1
vt 0.25 1
vt 0.863636 1
vt 0.261364 1
vt 0.238636 1
vt 0.863636 1
vt 0.25 1
vt 0.238636 1
vt 0.875 1
vt 0.863636 1
vt 0.227273 1
vt 0.875 1
vt 0.238636 1
vt 0.215909 1
vt 0.875 1
vt 0.227273 1
vt 0.215909 1
vt 0.886364 1
vt 0.875 1
vt 0.204545 1
vt 0.886364 1
vt 0.215909 1
vt 0.193182 1
vt 0.886364 1
vt 0.204545 1
vt 0.181818 1
vt 0.886364 1
vt 0.193182 1
vt 0.181818 1
vt 0.897727 1
vt 0.886364 1
vt 0.170455 1
vt 0.897727 1
vt 0.181818 1
vt 0.159091 1
vt 0.897727 1
vt 0.170455 1
vt 0.159091 1
vt 0.909091 1
vt 0.897727 1
vt 0.147727 1
vt 0.909091 1
vt 0.159091 1
vt 0.136364 1
vt 0.909091 1
vt 0.147727 1
vt 0.136364 1
vt 0.920455 1
vt 0.909091 1
vt 0.125 1
vt 0.920455 1
vt 0.136364 1
vt 0.125 1
vt 0.931818 1
vt 0.920455 1
vt 0.113636 1
vt 0.931818 1
vt 0.125 1
vt 0.113636 1
vt 0.943182 1
vt 0.931818 1
vt 0.102273 1
vt 0.943182 1
vt 0.113636 1
vt 0.090909 1
vt 0.943182 1
vt 0.102273 1
vt 0.090909 1
vt 0.954545 1
vt 0.943182 1
vt 0.079545 1
vt 0.954545 1
vt 0.090909 1
vt 0.079545 1
vt 0.965909 1
vt 0.954545 1
vt 0.068182 1
vt 0.965909 1
vt 0.079545 1
vt 0.068182 1
vt 0.977273 1
vt 0.965909 1
vt 0.056818 1
vt 0.977273 1
vt 0.068182 1
vt 0.045455 1
vt 0.977273 1
vt 0.056818 1
vt 0.045455 1
vt 0.988636 1
vt 0.977273 1
vt 0.045455 1
vt 1 1
vt 0.988636 1
vt 0.034091 1
vt 1 1
vt 0.045455 1
vt 0.022727 1
vt 1 1
vt 0.034091 1
vt 0.011364 1
vt 1 1
vt 0.022727 1
vt 0 1
vt 1 1
vt 0.011364 1
vt 0.715909 1
vt 0.693182 1
vt 0.704545 1
vt 0.715909 1
vt 0.681818 1
vt 0.693182 1
vt 0.715909 1
vt 0.670455 1
vt 0.681818 1
vt 0.727273 1
vt 0.670455 1
vt 0.715909 1
vt 0.727273 1
vt 0.659091 1
vt 0.670455 1
vt 0.738636 1
vt 0.659091 1
vt 0.727273 1
vt 0.738636 1
vt 0.647727 1
vt 0.659091 1
vt 0.738636 1
vt 0.636364 1
vt 0.647727 1
vt 0.75 1
vt 0.636364 1
vt 0.738636 1
vt 0.75 1
vt 0.625 1
vt 0.636364 1
vt 0.75 1
vt 0.613636 1
vt 0.625 1
vt 0.761364 1
vt 0.613636 1
vt 0.75 1
vt 0.761364 1
vt 0.602273 1
vt 0.613636 1
vt 0.761364 1
vt 0.590909 1
vt 0.602273 1
vt 0.772727 1
vt 0.590909 1
vt 0.761364 1
vt 0.772727 1
vt 0.579545 1
vt 0.590909 1
vt 0.772727 1
vt 0.568182 1
vt 0.579545 1
vt 0.784091 1
vt 0.568182 1
vt 0.772727 1
vt 0.545455 1
vt 0.556818 1
vt 0.568182 1
vt 0.534091 1
vt 0.545455 1
vt 0.568182 1
vt 0.522727 1
vt 0.534091 1
vt 0.568182 1
vt 0.511364 1
vt 0.522727 1
vt 0.568182 1
vt 0.5 1
vt 0.511364 1
vt 0.568182 1
vt 0.488636 1
vt 0.5 1
vt 0.568182 1
vt 0.477273 1
vt 0.488636 1
vt 0.568182 1
vt 0.465909 1
vt 0.477273 1
vt 0.568182 1
vt 0.454545 1
vt 0.465909 1
vt 0.568182 1
vt 0.443182 1
vt 0.454545 1
vt 0.568182 1
vt 0.431818 1
vt 0.443182 1
vt 0.568182 1
vt 0.784091 1
vt 0.431818 1
vt 0.568182 1
vt 0.420455 1
vt 0.431818 1
vt 0.784091 1
vt 0.795455 1
vt 0.420455 1
vt 0.784091 1
vt 0.795455 1
vt 0.409091 1
vt 0.420455 1
vt 0.795455 1
vt 0.397727 1
vt 0.409091 1
vt 0.795455 1
vt 0.386364 1
vt 0.397727 1
vt 0.806818 1
vt 0.386364 1
vt 0.795455 1
vt 0.806818 1
vt 0.375 1
vt 0.386364 1
vt 0.806818 1
vt 0.363636 1
vt 0.375 1
vt 0.806818 1
vt 0.352273 1
vt 0.363636 1
vt 0.818182 1
vt 0.352273 1
vt 0.806818 1
vt 0.818182 1
vt 0.340909 1
vt 0.352273 1
vt 0.818182 1
vt 0.329545 1
vt 0.340909 1
vt 0.829545 1
vt 0.329545 1
vt 0.818182 1
vt 0.829545 1
vt 0.318182 1
vt 0.329545 1
vt 0.829545 1
vt 0.306818 1
vt 0.318182 1
vt 0.840909 1
vt 0.306818 1
vt 0.829545 1
vt 0.840909 1
vt 0.295455 1
vt 0.306818 1
vt 0.840909 1
vt 0.284091 1
vt 0.295455 1
vt 0.852273 1
vt 0.284091 1
vt 0.840909 1
vt 0.852273 1
vt 0.272727 1
vt 0.284091 1
vt 0.852273 1
vt 0.261364 1
vt 0.272727 1
vt 0.863636 1
vt 0.261364 1
vt 0.852273 1
vt 0.863636 1
vt 0.25 1
vt 0.261364 1
vt 0.863636 1
vt 0.238636 1
vt 0.25 1
vt 0.875 1
vt 0.238636 1
vt 0.863636 1
vt 0.875 1
vt 0.227273 1
vt 0.238636 1
vt 0.875 1
vt 0.215909 1
vt 0.227273 1
vt 0.886364 1
vt 0.215909 1
vt 0.875 1
vt 0.886364 1
vt 0.204545 1
vt 0.215909 1
vt 0.886364 1
vt 0.193182 1
vt 0.204545 1
vt 0.886364 1
vt 0.181818 1
vt 0.193182 1
vt 0.897727 1
vt 0.181818 1
vt 0.886364 1
vt 0.897727 1
vt 0.170455 1
vt 0.181818 1
vt 0.897727 1
vt 0.159091 1
vt 0.170455 1
vt 0.909091 1
vt 0.159091 1
vt 0.897727 1
vt 0.909091 1
vt 0.147727 1
vt 0.159091 1
vt 0.909091 1
vt 0.136364 1
vt 0.147727 1
vt 0.920455 1
vt 0.136364 1
vt 0.909091 1
vt 0.920455 1
vt 0.125 1
vt 0.136364 1
vt 0.931818 1
vt 0.125 1
vt 0.920455 1
vt 0.931818 1
vt 0.113636 1
vt 0.125 1
vt 0.943182 1
vt 0.113636 1
vt 0.931818 1
vt 0.943182 1
vt 0.102273 1
vt 0.113636 1
vt 0.943182 1
vt 0.090909 1
vt 0.102273 1
vt 0.954545 1
vt 0.090909 1
vt 0.943182 1
vt 0.954545 1
vt 0.079545 1
vt 0.090909 1
vt 0.965909 1
vt 0.079545 1
vt 0.954545 1
vt 0.965909 1
vt 0.068182 1
vt 0.079545 1
vt 0.977273 1
vt 0.068182 1
vt 0.965909 1
vt 0.977273 1
vt 0.056818 1
vt 0.068182 1
vt 0.977273 1
vt 0.045455 1
vt 0.056818 1
vt 0.988636 1
vt 0.045455 1
vt 0.977273 1
vt 1 1
vt 0.045455 1
vt 0.988636 1
vt 1 1
vt 0.034091 1
vt 0.045455 1
vt 1 1
vt 0.022727 1
vt 0.034091 1
vt 1 1
vt 0.011364 1
vt 0.022727 1
vt 1 1
vt 0 1
vt 0.011364 1
vt 0 0
vt 0.011236 0
vt 0.011236 1
vt 0 1
vt 0.011236 0
vt 0.022472 0
vt 0.022472 1
vt 0.011236 1
vt 0.022472 0
vt 0.033708 0
vt 0.033708 1
vt 0.022472 1
vt 0.033708 0
vt 0.044944 0
vt 0.044944 1
vt 0.033708 1
vt 0.044944 0
vt 0.05618 0
vt 0.05618 1
vt 0.044944 1
vt 0.05618 0
vt 0.067416 0
vt 0.067416 1
vt 0.05618 1
vt 0.067416 0
vt 0.078652 0
vt 0.078652 1
vt 0.067416 1
vt 0.078652 0
vt 0.089888 0
vt 0.089888 1
vt 0.078652 1
vt 0.089888 0
vt 0.101124 0
vt 0.101124 1
vt 0.089888 1
vt 0.101124 0
vt 0.11236 0
vt 0.11236 1
vt 0.101124 1
vt 0.11236 0
vt 0.123596 0
vt 0.123596 1
vt 0.11236 1
vt 0.123596 0
vt 0.134831 0
vt 0.134831 1
vt 0.123596 1
vt 0.134831 0
vt 0.146067 0
vt 0.146067 1
vt 0.134831 1
vt 0.146067 0
vt 0.157303 0
vt 0.157303 1
vt 0.146067 1
vt 0.157303 0
vt 0.168539 0
vt 0.168539 1
vt 0.157303 1
vt 0.168539 0
vt 0.179775 0
vt 0.179775 1
vt 0.168539 1
vt 0.179775 0
vt 0.191011 0
vt 0.191011 1
vt 0.179775 1
vt 0.191011 0
vt 0.202247 0
vt 0.202247 1
vt 0.191011 1
vt 0.202247 0
vt 0.213483 0
vt 0.213483 1
vt 0.202247 1
vt 0.213483 0
vt 0.224719 0
vt 0.224719 1
vt 0.213483 1
vt 0.224719 0
vt 0.235955 0
vt 0.235955 1
vt 0.224719 1
vt 0.235955 0
vt 0.247191 0
vt 0.247191 1
vt 0.235955 1
vt 0.247191 0
vt 0.258427 0
vt 0.258427 1
vt 0.247191 1
vt 0.258427 0
vt 0.269663 0
vt 0.269663 1
vt 0.258427 1
vt 0.269663 0
vt 0.280899 0
vt 0.280899 1
vt 0.269663 1
vt 0.280899 0
vt 0.292135 0
vt 0.292135 1
vt 0.280899 1
vt 0.292135 0
vt 0.303371 0
vt 0.303371 1
vt 0.292135 1
vt 0.303371 0
vt 0.314607 0
vt 0.314607 1
vt 0.303371 1
vt 0.314607 0
vt 0.325843 0
vt 0.325843 1
vt 0.314607 1
vt 0.325843 0
vt 0.337079 0
vt 0.337079 1
vt 0.325843 1
vt 0.337079 0
vt 0.348315 0
vt 0.348315 1
vt 0.337079 1
vt 0.348315 0
vt 0.359551 0
vt 0.359551 1
vt 0.348315 1
vt 0.359551 0
vt 0.370787 0
vt 0.370787 1
vt 0.359551 1
vt 0.370787 0
vt 0.382022 0
vt 0.382022 1
vt 0.370787 1
vt 0.382022 0
vt 0.393258 0
vt 0.393258 1
vt 0.382022 1
vt 0.393258 0
vt 0.404494 0
vt 0.404494 1
vt 0.393258 1
vt 0.404494 0
vt 0.41573 0
vt 0.41573 1
vt 0.404494 1
vt 0.41573 0
vt 0.426966 0
vt 0.426966 1
vt 0.41573 1
vt 0.426966 0
vt 0.438202 0
vt 0.438202 1
vt 0.426966 1
vt 0.438202 0
vt 0.449438 0
vt 0.449438 1
vt 0.438202 1
vt 0.449438 0
vt 0.460674 0
vt 0.460674 1
vt 0.449438 1
vt 0.460674 0
vt 0.47191 0
vt 0.47191 1
vt 0.460674 1
vt 0.47191 0
vt 0.483146 0
vt 0.483146 1
vt 0.47191 1
vt 0.483146 0
vt 0.494382 0
vt 0.494382 1
vt 0.483146 1
vt 0.494382 0
vt 0.505618 0
vt 0.505618 1
vt 0.494382 1
vt 0.505618 0
vt 0.516854 0
vt 0.516854 1
vt 0.505618 1
vt 0.516854 0
vt 0.52809 0
vt 0.52809 1
vt 0.516854 1
vt 0.52809 0
vt 0.539326 0
vt 0.539326 1
vt 0.52809 1
vt 0.539326 0
vt 0.550562 0
vt 0.550562 1
vt 0.539326 1
vt 0.550562 0
vt 0.561798 0
vt 0.561798 1
vt 0.550562 1
vt 0.561798 0
vt 0.573034 0
vt 0.573034 1
vt 0.561798 1
vt 0.573034 0
vt 0.58427 0
vt 0.58427 1
vt 0.573034 1
vt 0.58427 0
vt 0.595506 0
vt 0.595506 1
vt 0.58427 1
vt 0.595506 0
vt 0.606742 0
vt 0.606742 1
vt 0.595506 1
vt 0.606742 0
vt 0.617977 0
vt 0.617977 1
vt 0.606742 1
vt 0.617977 0
vt 0.629214 0
vt 0.629214 1
vt 0.617977 1
vt 0.629214 0
vt 0.640449 0
vt 0.640449 1
vt 0.629214 1
vt 0.640449 0
vt 0.651685 0
vt 0.651685 1
vt 0.640449 1
vt 0.651685 0
vt 0.662921 0
vt 0.662921 1
vt 0.651685 1
vt 0.662921 0
vt 0.674157 0
vt 0.674157 1
vt 0.662921 1
vt 0.674157 0
vt 0.685393 0
vt 0.685393 1
vt 0.674157 1
vt 0.685393 0
vt 0.696629 0
vt 0.696629 1
vt 0.685393 1
vt 0.696629 0
vt 0.707865 0
vt 0.707865 1
vt 0.696629 1
vt 0.707865 0
vt 0.719101 0
vt 0.719101 1
vt 0.707865 1
vt 0.719101 0
vt 0.730337 0
vt 0.730337 1
vt 0.719101 1
vt 0.730337 0
vt 0.741573 0
vt 0.741573 1
vt 0.730337 1
vt 0.741573 0
vt 0.752809 0
vt 0.752809 1
vt 0.741573 1
vt 0.752809 0
vt 0.764045 0
vt 0.764045 1
vt 0.752809 1
vt 0.764045 0
vt 0.775281 0
vt 0.775281 1
vt 0.764045 1
vt 0.775281 0
vt 0.786517 0
vt 0.786517 1
vt 0.775281 1
vt 0.786517 0
vt 0.797753 0
vt 0.797753 1
vt 0.786517 1
vt 0.797753 0
vt 0.808989 0
vt 0.808989 1
vt 0.797753 1
vt 0.808989 0
vt 0.820225 0
vt 0.820225 1
vt 0.808989 1
vt 0.820225 0
vt 0.831461 0
vt 0.831461 1
vt 0.820225 1
vt 0.831461 0
vt 0.842697 0
vt 0.842697 1
vt 0.831461 1
vt 0.842697 0
vt 0.853933 0
vt 0.853933 1
vt 0.842697 1
vt 0.853933 0
vt 0.865169 0
vt 0.865169 1
vt 0.853933 1
vt 0.865169 0
vt 0.876405 0
vt 0.876405 1
vt 0.865169 1
vt 0.876405 0
vt 0.88764 0
vt 0.88764 1
vt 0.876405 1
vt 0.88764 0
vt 0.898876 0
vt 0.898876 1
vt 0.88764 1
vt 0.898876 0
vt 0.910112 0
vt 0.910112 1
vt 0.898876 1
vt 0.910112 0
vt 0.921348 0
vt 0.921348 1
vt 0.910112 1
vt 0.921348 0
vt 0.932584 0
vt 0.932584 1
vt 0.921348 1
vt 0.932584 0
vt 0.94382 0
vt 0.94382 1
vt 0.932584 1
vt 0.94382 0
vt 0.955056 0
vt 0.955056 1
vt 0.94382 1
vt 0.955056 0
vt 0.966292 0
vt 0.966292 1
vt 0.955056 1
vt 0.966292 0
vt 0.977528 0
vt 0.977528 1
vt 0.966292 1
vt 0.977528 0
vt 0.988764 0
vt 0.988764 1
vt 0.977528 1
vt 0.988764 0
vt 1 0
vt 1 1
vt 0.988764 1
s off
f 1/1/1 2/2/2 3/3/3
f 4/4/4 5/5/5 6/6/6
f 7/7/7 8/8/8 9/9/9
f 10/10/10 11/11/11 12/12/12
f 13/13/13 14/14/14 15/15/15
f 16/16/16 17/17/17 18/18/18
f 19/19/19 20/20/20 21/21/21
f 22/22/22 23/23/23 24/24/24
f 25/25/25 26/26/26 27/27/27
f 28/28/28 29/29/29 30/30/30
f 31/31/31 32/32/32 33/33/33
f 34/34/34 35/35/35 36/36/36
f 37/37/37 38/38/38 39/39/39
f 40/40/40 41/41/41 42/42/42
f 43/43/43 44/44/44 45/45/45
f 46/46/46 47/47/47 48/48/48
f 49/49/49 50/50/50 51/51/51
f 52/52/52 53/53/53 54/54/54
f 55/55/55 56/56/56 57/57/57
f 58/58/58 59/59/59 60/60/60
f 61/61/61 62/62/62 63/63/63
f 64/64/64 65/65/65 66/66/66
f 67/67/67 68/68/68 69/69/69
f 70/70/70 71/71/71 72/72/72
f 73/73/73 74/74/74 75/75/75
f 76/76/76 77/77/77 78/78/78
f 79/79/79 80/80/80 81/81/81
f 82/82/82 83/83/83 84/84/84
f 85/85/85 86/86/86 87/87/87
f 88/88/88 89/89/89 90/90/90
f 91/91/91 92/92/92 93/93/93
f 94/94/94 95/95/95 96/96/96
f 97/97/97 98/98/98 99/99/99
f 100/100/100 101/101/101 102/102/102
f 103/103/103 104/104/104 105/105/105
f 106/106/106 107/107/107 108/108/108
f 109/109/109 110/110/110 111/111/111
f 112/112/112 113/113/113 114/114/114
f 115/115/115 116/116/116 117/117/117
f 118/118/118 119/119/119 120/120/120
f 121/121/121 122/122/122 123/123/123
f 124/124/124 125/125/125 126/126/126
f 127/127/127 128/128/128 129/129/129
f 130/130/130 131/131/131 132/132/132
f 133/133/133 134/134/134 135/135/135
f 136/136/136 137/137/137 138/138/138
f 139/139/139 140/140/140 141/141/141
f 142/142/142 143/143/143 144/144/144
f 145/145/145 146/146/146 147/147/147
f 148/148/148 149/149/149 150/150/150
f 151/151/151 152/152/152 153/153/153
f 154/154/154 155/155/155 156/156/156
f 157/157/157 158/158/158 159/159/159
f 160/160/160 161/161/161 162/162/162
f 163/163/163 164/164/164 165/165/165
f 166/166/166 167/167/167 168/168/168
f 169/169/169 170/170/170 171/171/171
f 172/172/172 173/173/173 174/174/174
f 175/175/175 176/176/176 177/177/177
f 178/178/178 179/179/179 180/180/180
f 181/181/181 182/182/182 183/183/183
f 184/184/184 185/185/185 186/186/186
f 187/187/187 188/188/188 189/189/189
f 190/190/190 191/191/191 192/192/192
f 193/193/193 194/194/194 195/195/195
f 196/196/196 197/197/197 198/198/198
f 199/199/199 200/200/200 201/201/201
f 202/202/202 203/203/203 204/204/204
f 205/205/205 206/206/206 207/207/207
f 208/208/208 209/209/209 210/210/210
f 211/211/211 212/212/212 213/213/213
f 214/214/214 215/215/215 216/216/216
f 217/217/217 218/218/218 219/219/219
f 220/220/220 221/221/221 222/222/222
f 223/223/223 224/224/224 225/225/225
f 226/226/226 227/227/227 228/228/228
f 229/229/229 230/230/230 231/231/231
f 232/232/232 233/233/233 234/234/234
f 235/235/235 236/236/236 237/237/237
f 238/238/238 239/239/239 240/240/240
f 241/241/241 242/242/242 243/243/243
f 244/244/244 245/245/245 246/246/246
f 247/247/247 248/248/248 249/249/249
f 250/250/250 251/251/251 252/252/252
f 253/253/253 254/254/254 255/255/255
f 256/256/256 257/257/257 258/258/258
f 259/259/259 260/260/260 261/261/261
f 262/262/262 263/263/263 264/264/264
f 265/265/265 266/266/266 267/267/267
f 268/268/268 269/269/269 270/270/270
f 271/271/271 272/272/272 273/273/273
f 274/274/274 275/275/275 276/276/276
f 277/277/277 278/278/278 279/279/279
f 280/280/280 281/281/281 282/282/282
f 283/283/283 284/284/284 285/285/285
f 286/286/286 287/287/287 288/288/288
f 289/289/289 290/290/290 291/291/291
f 292/292/292 293/293/293 294/294/294
f 295/295/295 296/296/296 297/297/297
f 298/298/298 299/299/299 300/300/300
f 301/301/301 302/302/302 303/303/303
f 304/304/304 305/305/305 306/306/306
f 307/307/307 308/308/308 309/309/309
f 310/310/310 311/311/311 312/312/312
f 313/313/313 314/314/314 315/315/315
f 316/316/316 317/317/317 318/318/318
f 319/319/319 320/320/320 321/321/321
f 322/322/322 323/323/323 324/324/324
f 325/325/325 326/326/326 327/327/327
f 328/328/328 329/329/329 330/330/330
f 331/331/331 332/332/332 333/333/333
f 334/334/334 335/335/335 336/336/336
f 337/337/337 338/338/338 339/339/339
f 340/340/340 341/341/341 342/342/342
f 343/343/343 344/344/344 345/345/345
f 346/346/346 347/347/347 348/348/348
f 349/349/349 350/350/350 351/351/351
f 352/352/352 353/353/353 354/354/354
f 355/355/355 356/356/356 357/357/357
f 358/358/358 359/359/359 360/360/360
f 361/361/361 362/362/362 363/363/363
f 364/364/364 365/365/365 366/366/366
f 367/367/367 368/368/368 369/369/369
f 370/370/370 371/371/371 372/372/372
f 373/373/373 374/374/374 375/375/375
f 376/376/376 377/377/377 378/378/378
f 379/379/379 380/380/380 381/381/381
f 382/382/382 383/383/383 384/384/384
f 385/385/385 386/386/386 387/387/387
f 388/388/388 389/389/389 390/390/390
f 391/391/391 392/392/392 393/393/393
f 394/394/394 395/395/395 396/396/396
f 397/397/397 398/398/398 399/399/399
f 400/400/400 401/401/401 402/402/402
f 403/403/403 404/404/404 405/405/405
f 406/406/406 407/407/407 408/408/408
f 409/409/409 410/410/410 411/411/411
f 412/412/412 413/413/413 414/414/414
f 415/415/415 416/416/416 417/417/417
f 418/418/418 419/419/419 420/420/420
f 421/421/421 422/422/422 423/423/423
f 424/424/424 425/425/425 426/426/426
f 427/427/427 428/428/428 429/429/429
f 430/430/430 431/431/431 432/432/432
f 433/433/433 434/434/434 435/435/435
f 436/436/436 437/437/437 438/438/438
f 439/439/439 440/440/440 441/441/441
f 442/442/442 443/443/443 444/444/444
f 445/445/445 446/446/446 447/447/447
f 448/448/448 449/449/449 450/450/450
f 451/451/451 452/452/452 453/453/453
f 454/454/454 455/455/455 456/456/456
f 457/457/457 458/458/458 459/459/459
f 460/460/460 461/461/461 462/462/462
f 463/463/463 464/464/464 465/465/465
f 466/466/466 467/467/467 468/468/468
f 469/469/469 470/470/470 471/471/471
f 472/472/472 473/473/473 474/474/474
f 475/475/475 476/476/476 477/477/477
f 478/478/478 479/479/479 480/480/480
f 481/481/481 482/482/482 483/483/483
f 484/484/484 485/485/485 486/486/486
f 487/487/487 488/488/488 489/489/489
f 490/490/490 491/491/491 492/492/492
f 493/493/493 494/494/494 495/495/495
f 496/496/496 497/497/497 498/498/498
f 499/499/499 500/500/500 501/501/501
f 502/502/502 503/503/503 504/504/504
f 505/505/505 506/506/506 507/507/507
f 508/508/508 509/509/509 510/510/510
f 511/511/511 512/512/512 513/513/513
f 514/514/514 515/515/515 516/516/516
f 517/517/517 518/518/518 519/519/519
f 520/520/520 521/521/521 522/522/522
f 523/523/523 524/524/524 525/525/525
f 523/523/523 525/525/525 526/526/526
f 527/527/527 528/528/528 529/529/529
f 527/527/527 529/529/529 530/530/530
f 531/531/531 532/532/532 533/533/533
f 531/531/531 533/533/533 534/534/534
f 535/535/535 536/536/536 537/537/537
f 535/535/535 537/537/537 538/538/538
f 539/539/539 540/540/540 541/541/541
f 539/539/539 541/541/541 542/542/542
f 543/543/543 544/544/544 545/545/545
f 543/543/543 545/545/545 546/546/546
f 547/547/547 548/548/548 549/549/549
f 547/547/547 549/549/549 550/550/550
f 551/551/551 552/552/552 553/553/553
f 551/551/551 553/553/553 554/554/554
f 555/555/555 556/556/556 557/557/557
f 555/555/555 557/557/557 558/558/558
f 559/559/559 560/560/560 561/561/561
f 559/559/559 561/561/561 562/562/562
f 563/563/563 564/564/564 565/565/565
f 563/563/563 565/565/565 566/566/566
f 567/567/567 568/568/568 569/569/569
f 567/567/567 569/569/569 570/570/570
f 571/571/571 572/572/572 573/573/573
f 571/571/571 573/573/573 574/574/574
f 575/575/575 576/576/576 577/577/577
f 575/575/575 577/577/577 578/578/578
f 579/579/579 580/580/580 581/581/581
f 579/579/579 581/581/581 582/582/582
f 583/583/583 584/584/584 585/585/585
f 583/583/583 585/585/585 586/586/586
f 587/587/587 588/588/588 589/589/589
f 587/587/587 589/589/589 590/590/590
f 591/591/591 592/592/592 593/593/593
f 591/591/591 593/593/593 594/594/594
f 595/595/595 596/596/596 597/597/597
f 595/595/595 597/597/597 598/598/598
f 599/599/599 600/600/600 601/601/601
f 599/599/599 601/601/601 602/602/602
f 603/603/603 604/604/604 605/605/605
f 603/603/603 605/605/605 606/606/606
f 607/607/607 608/608/608 609/609/609
f 607/607/607 609/609/609 610/610/610
f 611/611/611 612/612/612 613/613/613
f 611/611/611 613/613/613 614/614/614
f 615/615/615 616/616/616 617/617/617
f 615/615/615 617/617/617 618/618/618
f 619/619/619 620/620/620 621/621/621
f 619/619/619 621/621/621 622/622/622
f 623/623/623 624/624/624 625/625/625
f 623/623/623 625/625/625 626/626/626
f 627/627/627 628/628/628 629/629/629
f 627/627/627 629/629/629 630/630/630
f 631/631/631 632/632/632 633/633/633
f 631/631/631 633/633/633 634/634/634
f 635/635/635 636/636/636 637/637/637
f 635/635/635 637/637/637 638/638/638
f 639/639/639 640/640/640 641/641/641
f 639/639/639 641/641/641 642/642/642
f 643/643/643 644/644/644 645/645/645
f 643/643/643 645/645/645 646/646/646
f 647/647/647 648/648/648 649/649/649
f 647/647/647 649/649/649 650/650/650
f 651/651/651 652/652/652 653/653/653
f 651/651/651 653/653/653 654/654/654
f 655/655/655 656/656/656 657/657/657
f 655/655/655 657/657/657 658/658/658
f 659/659/659 660/660/660 661/661/661
f 659/659/659 661/661/661 662/662/662
f 663/663/663 664/664/664 665/665/665
f 663/663/663 665/665/665 666/666/666
f 667/667/667 668/668/668 669/669/669
f 667/667/667 669/669/669 670/670/670
f 671/671/671 672/672/672 673/673/673
f 671/671/671 673/673/673 674/674/674
f 675/675/675 676/676/676 677/677/677
f 675/675/675 677/677/677 678/678/678
f 679/679/679 680/680/680 681/681/681
f 679/679/679 681/681/681 682/682/682
f 683/683/683 684/684/684 685/685/685
f 683/683/683 685/685/685 686/686/686
f 687/687/687 688/688/688 689/689/689
f 687/687/687 689/689/689 690/690/690
f 691/691/691 692/692/692 693/693/693
f 691/691/691 693/693/693 694/694/694
f 695/695/695 696/696/696 697/697/697
f 695/695/695 697/697/697 698/698/698
f 699/699/699 700/700/700 701/701/701
f 699/699/699 701/701/701 702/702/702
f 703/703/703 704/704/704 705/705/705
f 703/703/703 705/705/705 706/706/706
f 707/707/707 708/708/708 709/709/709
f 707/707/707 709/709/709 710/710/710
f 711/711/711 712/712/712 713/713/713
f 711/711/711 713/713/713 714/714/714
f 715/715/715 716/716/716 717/717/717
f 715/715/715 717/717/717 718/718/718
f 719/719/719 720/720/720 721/721/721
f 719/719/719 721/721/721 722/722/722
f 723/723/723 724/724/724 725/725/725
f 723/723/723 725/725/725 726/726/726
f 727/727/727 728/728/728 729/729/729
f 727/727/727 729/729/729 730/730/730
f 731/731/731 732/732/732 733/733/733
f 731/731/731 733/733/733 734/734/734
f 735/735/735 736/736/736 737/737/737
f 735/735/735 737/737/737 738/738/738
f 739/739/739 740/740/740 741/741/741
f 739/739/739 741/741/741 742/742/742
f 743/743/743 744/744/744 745/745/745
f 743/743/743 745/745/745 746/746/746
f 747/747/747 748/748/748 749/749/749
f 747/747/747 749/749/749 750/750/750
f 751/751/751 752/752/752 753/753/753
f 751/751/751 753/753/753 754/754/754
f 755/755/755 756/756/756 757/757/757
f 755/755/755 757/757/757 758/758/758
f 759/759/759 760/760/760 761/761/761
f 759/759/759 761/761/761 762/762/762
f 763/763/763 764/764/764 765/765/765
f 763/763/763 765/765/765 766/766/766
f 767/767/767 768/768/768 769/769/769
f 767/767/767 769/769/769 770/770/770
f 771/771/771 772/772/772 773/773/773
f 771/771/771 773/773/773 774/774/774
f 775/775/775 776/776/776 777/777/777
f 775/775/775 777/777/777 778/778/778
f 779/779/779 780/780/780 781/781/781
f 779/779/779 781/781/781 782/782/782
f 783/783/783 784/784/784 785/785/785
f 783/783/783 785/785/785 786/786/786
f 787/787/787 788/788/788 789/789/789
f 787/787/787 789/789/789 790/790/790
f 791/791/791 792/792/792 793/793/793
f 791/791/791 793/793/793 794/794/794
f 795/795/795 796/796/796 797/797/797
f 795/795/795 797/797/797 798/798/798
f 799/799/799 800/800/800 801/801/801
f 799/799/799 801/801/801 802/802/802
f 803/803/803 804/804/804 805/805/805
f 803/803/803 805/805/805 806/806/806
f 807/807/807 808/808/808 809/809/809
f 807/807/807 809/809/809 810/810/810
f 811/811/811 812/812/812 813/813/813
f 811/811/811 813/813/813 814/814/814
f 815/815/815 816/816/816 817/817/817
f 815/815/815 817/817/817 818/818/818
f 819/819/819 820/820/820 821/821/821
f 819/819/819 821/821/821 822/822/822
f 823/823/823 824/824/824 825/825/825
f 823/823/823 825/825/825 826/826/826
f 827/827/827 828/828/828 829/829/829
f 827/827/827 829/829/829 830/830/830
f 831/831/831 832/832/832 833/833/833
f 831/831/831 833/833/833 834/834/834
f 835/835/835 836/836/836 837/837/837
f 835/835/835 837/837/837 838/838/838
f 839/839/839 840/840/840 841/841/841
f 839/839/839 841/841/841 842/842/842
f 843/843/843 844/844/844 845/845/845
f 843/843/843 845/845/845 846/846/846
f 847/847/847 848/848/848 849/849/849
f 847/847/847 849/849/849 850/850/850
f 851/851/851 852/852/852 853/853/853
f 851/851/851 853/853/853 854/854/854
f 855/855/855 856/856/856 857/857/857
f 855/855/855 857/857/857 858/858/858
f 859/859/859 860/860/860 861/861/861
f 859/859/859 861/861/861 862/862/862
f 863/863/863 864/864/864 865/865/865
f 863/863/863 865/865/865 866/866/866
f 867/867/867 868/868/868 869/869/869
f 867/867/867 869/869/869 870/870/870
f 871/871/871 872/872/872 873/873/873
f 871/871/871 873/873/873 874/874/874
f 875/875/875 876/876/876 877/877/877
f 875/875/875 877/877/877 878/878/878
