v -0.45458 0.033316 -0.20456
v -0.430353 0.03346 -0.230978
v -0.432982 0.03346 -0.230978
v -0.45458 0.033316 -0.20456
v -0.436613 0.033397 -0.219397
v -0.430353 0.03346 -0.230978
v -0.436613 0.033397 -0.219397
v -0.436488 0.033397 -0.219397
v -0.430353 0.03346 -0.230978
v -0.436488 0.033397 -0.219397
v -0.430353 0.033331 -0.207252
v -0.430353 0.03346 -0.230978
v -0.45458 0.033316 -0.20456
v -0.446379 0.033331 -0.207252
v -0.436613 0.033397 -0.219397
v -0.436488 0.033331 -0.207252
v -0.430353 0.033331 -0.207252
v -0.436488 0.033397 -0.219397
v -0.45458 0.033316 -0.20456
v -0.436488 0.033331 -0.207252
v -0.446379 0.033331 -0.207252
v -0.45458 0.033316 -0.20456
v -0.430353 0.033331 -0.207252
v -0.436488 0.033331 -0.207252
v -0.45458 0.033316 -0.20456
v -0.425783 0.033331 -0.207252
v -0.430353 0.033331 -0.207252
v -0.45458 0.033316 -0.20456
v -0.425783 0.033301 -0.201743
v -0.425783 0.033331 -0.207252
v -0.45458 0.033301 -0.201743
v -0.425783 0.033301 -0.201743
v -0.45458 0.033316 -0.20456
v -0.436488 0.033301 -0.201743
v -0.425783 0.033301 -0.201743
v -0.45458 0.033301 -0.201743
v -0.436488 0.033224 -0.187721
v -0.430353 0.033301 -0.201743
v -0.436488 0.033301 -0.201743
v -0.430353 0.033301 -0.201743
v -0.425783 0.033301 -0.201743
v -0.436488 0.033301 -0.201743
v -0.436488 0.033224 -0.187721
v -0.430353 0.033224 -0.187721
v -0.430353 0.033301 -0.201743
v -0.430353 0.029704 -0.230999
v -0.45458 0.02956 -0.204581
v -0.432982 0.029704 -0.230999
v -0.436613 0.029641 -0.219417
v -0.45458 0.02956 -0.204581
v -0.430353 0.029704 -0.230999
v -0.436488 0.029641 -0.219417
v -0.436613 0.029641 -0.219417
v -0.430353 0.029704 -0.230999
v -0.430353 0.029575 -0.207272
v -0.436488 0.029641 -0.219417
v -0.430353 0.029704 -0.230999
v -0.446379 0.029575 -0.207272
v -0.45458 0.02956 -0.204581
v -0.436613 0.029641 -0.219417
v -0.430353 0.029575 -0.207272
v -0.436488 0.029575 -0.207272
v -0.436488 0.029641 -0.219417
v -0.436488 0.029575 -0.207272
v -0.45458 0.02956 -0.204581
v -0.446379 0.029575 -0.207272
v -0.430353 0.029575 -0.207272
v -0.45458 0.02956 -0.204581
v -0.436488 0.029575 -0.207272
v -0.425783 0.029575 -0.207272
v -0.45458 0.02956 -0.204581
v -0.430353 0.029575 -0.207272
v -0.425783 0.029545 -0.201763
v -0.45458 0.02956 -0.204581
v -0.425783 0.029575 -0.207272
v -0.425783 0.029545 -0.201763
v -0.45458 0.029545 -0.201763
v -0.45458 0.02956 -0.204581
v -0.425783 0.029545 -0.201763
v -0.436488 0.029545 -0.201763
v -0.45458 0.029545 -0.201763
v -0.430353 0.029545 -0.201763
v -0.436488 0.029468 -0.187741
v -0.436488 0.029545 -0.201763
v -0.425783 0.029545 -0.201763
v -0.430353 0.029545 -0.201763
v -0.436488 0.029545 -0.201763
v -0.430353 0.029468 -0.187741
v -0.436488 0.029468 -0.187741
v -0.430353 0.029545 -0.201763
v -0.425783 0.033331 -0.207252
v -0.425783 0.033301 -0.201743
v -0.425783 0.029545 -0.201763
v -0.425783 0.029575 -0.207272
v -0.425783 0.033301 -0.201743
v -0.430353 0.033301 -0.201743
v -0.430353 0.029545 -0.201763
v -0.425783 0.029545 -0.201763
v -0.430353 0.033301 -0.201743
v -0.430353 0.033224 -0.187721
v -0.430353 0.029468 -0.187741
v -0.430353 0.029545 -0.201763
v -0.430353 0.033224 -0.187721
v -0.436488 0.033224 -0.187721
v -0.436488 0.029468 -0.187741
v -0.430353 0.029468 -0.187741
v -0.436488 0.033224 -0.187721
v -0.436488 0.033301 -0.201743
v -0.436488 0.029545 -0.201763
v -0.436488 0.029468 -0.187741
v -0.436488 0.033301 -0.201743
v -0.45458 0.033301 -0.201743
v -0.45458 0.029545 -0.201763
v -0.436488 0.029545 -0.201763
v -0.45458 0.033301 -0.201743
v -0.45458 0.033316 -0.20456
v -0.45458 0.02956 -0.204581
v -0.45458 0.029545 -0.201763
v -0.45458 0.033316 -0.20456
v -0.432982 0.03346 -0.230978
v -0.432982 0.029704 -0.230999
v -0.45458 0.02956 -0.204581
v -0.432982 0.03346 -0.230978
v -0.430353 0.03346 -0.230978
v -0.430353 0.029704 -0.230999
v -0.432982 0.029704 -0.230999
v -0.430353 0.03346 -0.230978
v -0.430353 0.033331 -0.207252
v -0.430353 0.029575 -0.207272
v -0.430353 0.029704 -0.230999
v -0.430353 0.033331 -0.207252
v -0.425783 0.033331 -0.207252
v -0.425783 0.029575 -0.207272
v -0.430353 0.029575 -0.207272
v -0.436488 0.033331 -0.207252
v -0.436488 0.033397 -0.219397
v -0.436488 0.029641 -0.219417
v -0.436488 0.029575 -0.207272
v -0.436488 0.033397 -0.219397
v -0.436613 0.033397 -0.219397
v -0.436613 0.029641 -0.219417
v -0.436488 0.029641 -0.219417
v -0.436613 0.033397 -0.219397
v -0.446379 0.033331 -0.207252
v -0.446379 0.029575 -0.207272
v -0.436613 0.029641 -0.219417
v -0.446379 0.033331 -0.207252
v -0.436488 0.033331 -0.207252
v -0.436488 0.029575 -0.207272
v -0.446379 0.029575 -0.207272
vn -0 1 0.0054
vn -0 1 0.0054
vn -0 1 0.0055
vn -0 1 0.0054
vn -0 1 0.0054
vn -0 1 0.0054
vn -0 1 0.0054
vn -0 1 0.0054
vn -0 1 0.0054
vn -0 1 0.0054
vn -0 1 0.0055
vn -0 1 0.0054
vn -0 1 0.0054
vn -0 1 0.0055
vn -0 1 0.0054
vn -0 1 0.0055
vn -0 1 0.0055
vn -0 1 0.0054
vn -0 1 0.0054
vn -0 1 0.0055
vn -0 1 0.0055
vn -0 1 0.0054
vn -0 1 0.0055
vn -0 1 0.0055
vn -0 1 0.0054
vn -0 1 0.0055
vn -0 1 0.0055
vn -0 1 0.0054
vn -0 1 0.0054
vn -0 1 0.0055
vn -0 1 0.0053
vn -0 1 0.0054
vn -0 1 0.0054
vn -0 -0 1
vn -0 -0 1
vn -0 -0 1
vn -0 1 0.0055
vn -0 1 0.0055
vn -0 1 0.0055
vn -0 -0 1
vn -0 -0 1
vn -0 -0 1
vn -0 1 0.0055
vn -0 1 0.0055
vn -0 1 0.0055
vn -0 -1 -0.0054
vn -0 -1 -0.0054
vn -0 -1 -0.0055
vn -0 -1 -0.0054
vn -0 -1 -0.0054
vn -0 -1 -0.0054
vn -0 -1 -0.0054
vn -0 -1 -0.0054
vn -0 -1 -0.0054
vn -0 -1 -0.0055
vn -0 -1 -0.0054
vn -0 -1 -0.0054
vn -0 -1 -0.0055
vn -0 -1 -0.0054
vn -0 -1 -0.0054
vn -0 -1 -0.0055
vn -0 -1 -0.0055
vn -0 -1 -0.0054
vn -0 -1 -0.0055
vn -0 -1 -0.0054
vn -0 -1 -0.0055
vn -0 -1 -0.0055
vn -0 -1 -0.0054
vn -0 -1 -0.0055
vn -0 -1 -0.0055
vn -0 -1 -0.0054
vn -0 -1 -0.0055
vn -0 -1 -0.0054
vn -0 -1 -0.0054
vn -0 -1 -0.0055
vn -0 -1 -0.0054
vn -0 -1 -0.0053
vn -0 -1 -0.0054
vn -0 -0 -1
vn -0 -0 -1
vn -0 -0 -1
vn -0 -1 -0.0055
vn -0 -1 -0.0055
vn -0 -1 -0.0055
vn -0 -0 1
vn -0 -0 1
vn -0 -0 1
vn -0 -1 -0.0055
vn -0 -1 -0.0055
vn -0 -1 -0.0055
vn 0.7071 0.0038 -0.7071
vn 0.7071 -0.0038 0.7071
vn 0.7071 -0.0038 0.7071
vn 0.7071 0.0038 -0.7071
vn 0.7071 -0.0038 0.7071
vn 0.7071 -0.0038 0.7071
vn 0.7071 -0.0038 0.7071
vn 0.7071 -0.0038 0.7071
vn 0.7071 -0.0038 0.7071
vn 0.7071 -0.0038 0.7071
vn 0.7071 -0.0038 0.7071
vn 0.7071 -0.0038 0.7071
vn 0.7071 -0.0038 0.7071
vn -0.7071 -0.0038 0.7071
vn -0.7071 -0.0038 0.7071
vn 0.7071 -0.0038 0.7071
vn -0.7071 -0.0038 0.7071
vn -0.7071 -0.0038 0.7071
vn -0.7071 -0.0038 0.7071
vn -0.7071 -0.0038 0.7071
vn -0.7071 -0.0038 0.7071
vn -0.7071 -0.0038 0.7071
vn -0.7071 -0.0038 0.7071
vn -0.7071 -0.0038 0.7071
vn -0.7071 -0.0038 0.7071
vn -0.9419 0.0019 -0.336
vn -0.9418 0.0019 -0.336
vn -0.7071 -0.0038 0.7071
vn -0.9419 0.0019 -0.336
vn -0.4284 0.0051 -0.9036
vn -0.4284 0.0051 -0.9036
vn -0.9418 0.0019 -0.336
vn -0.4284 0.0051 -0.9036
vn 0.7071 0.004 -0.7071
vn 0.7071 0.004 -0.7071
vn -0.4284 0.0051 -0.9036
vn 0.7071 0.004 -0.7071
vn 0.707 0.0042 -0.7072
vn 0.7071 0.0038 -0.7071
vn 0.7071 0.004 -0.7071
vn 0.707 0.0042 -0.7072
vn 0.7071 0.0038 -0.7071
vn 0.7071 0.0038 -0.7071
vn 0.7071 0.0038 -0.7071
vn -0.7071 0.0041 -0.7071
vn -0.7071 -0.0038 0.7071
vn -0.7071 -0.0038 0.7071
vn -0.7071 0.0038 -0.7071
vn -0.7071 -0.0038 0.7071
vn 0.4321 -0.0048 0.9018
vn 0.4321 -0.0048 0.9018
vn -0.7071 -0.0038 0.7071
vn 0.4321 -0.0048 0.9018
vn 0.9019 0.0023 -0.432
vn 0.9018 0.0023 -0.4321
vn 0.4321 -0.0048 0.9018
vn 0.9019 0.0023 -0.432
vn -0.7071 0.0041 -0.7071
vn -0.7071 0.0038 -0.7071
vn 0.9018 0.0023 -0.4321
vt 0.5 1
vt 0.642857 1
vt 0.571429 1
vt 0.5 1
vt 0.928571 1
vt 0.642857 1
vt 0.928571 1
vt 0.857143 1
vt 0.642857 1
vt 0.857143 1
vt 0.714286 1
vt 0.642857 1
vt 0.5 1
vt 1 1
vt 0.928571 1
vt 0.785714 1
vt 0.714286 1
vt 0.857143 1
vt 0.5 1
vt 0.785714 1
vt 1 1
vt 0.5 1
vt 0.714286 1
vt 0.785714 1
vt 0.5 1
vt 0 1
vt 0.714286 1
vt 0.5 1
vt 0.071429 1
vt 0 1
vt 0.428571 1
vt 0.071429 1
vt 0.5 1
vt 0.357143 1
vt 0.071429 1
vt 0.428571 1
vt 0.285714 1
vt 0.142857 1
vt 0.357143 1
vt 0.142857 1
vt 0.071429 1
vt 0.357143 1
vt 0.285714 1
vt 0.214286 1
vt 0.142857 1
vt 0.642857 1
vt 0.5 1
vt 0.571429 1
vt 0.928571 1
vt 0.5 1
vt 0.642857 1
vt 0.857143 1
vt 0.928571 1
vt 0.642857 1
vt 0.714286 1
vt 0.857143 1
vt 0.642857 1
vt 1 1
vt 0.5 1
vt 0.928571 1
vt 0.714286 1
vt 0.785714 1
vt 0.857143 1
vt 0.785714 1
vt 0.5 1
vt 1 1
vt 0.714286 1
vt 0.5 1
vt 0.785714 1
vt 0 1
vt 0.5 1
vt 0.714286 1
vt 0.071429 1
vt 0.5 1
vt 0 1
vt 0.071429 1
vt 0.428571 1
vt 0.5 1
vt 0.071429 1
vt 0.357143 1
vt 0.428571 1
vt 0.142857 1
vt 0.285714 1
vt 0.357143 1
vt 0.071429 1
vt 0.142857 1
vt 0.357143 1
vt 0.214286 1
vt 0.285714 1
vt 0.142857 1
vt 0 0
vt 0.090909 0
vt 0.090909 1
vt 0 1
vt 0.090909 0
vt 0.181818 0
vt 0.181818 1
vt 0.090909 1
vt 0.181818 0
vt 0.272727 0
vt 0.272727 1
vt 0.181818 1
vt 0.272727 0
vt 0.363636 0
vt 0.363636 1
vt 0.272727 1
vt 0.363636 0
vt 0.454545 0
vt 0.454545 1
vt 0.363636 1
vt 0.454545 0
vt 0.545455 0
vt 0.545455 1
vt 0.454545 1
vt 0.545455 0
vt 0.636364 0
vt 0.636364 1
vt 0.545455 1
vt 0.636364 0
vt 0.727273 0
vt 0.727273 1
vt 0.636364 1
vt 0.727273 0
vt 0.818182 0
vt 0.818182 1
vt 0.727273 1
vt 0.818182 0
vt 0.909091 0
vt 0.909091 1
vt 0.818182 1
vt 0.909091 0
vt 1 0
vt 1 1
vt 0.909091 1
vt 0 0
vt 0.25 0
vt 0.25 1
vt 0 1
vt 0.25 0
vt 0.5 0
vt 0.5 1
vt 0.25 1
vt 0.5 0
vt 0.75 0
vt 0.75 1
vt 0.5 1
vt 0.75 0
vt 1 0
vt 1 1
vt 0.75 1
s off
f 1/1/1 2/2/2 3/3/3
f 4/4/4 5/5/5 6/6/6
f 7/7/7 8/8/8 9/9/9
f 10/10/10 11/11/11 12/12/12
f 13/13/13 14/14/14 15/15/15
f 16/16/16 17/17/17 18/18/18
f 19/19/19 20/20/20 21/21/21
f 22/22/22 23/23/23 24/24/24
f 25/25/25 26/26/26 27/27/27
f 28/28/28 29/29/29 30/30/30
f 31/31/31 32/32/32 33/33/33
f 34/34/34 35/35/35 36/36/36
f 37/37/37 38/38/38 39/39/39
f 40/40/40 41/41/41 42/42/42
f 43/43/43 44/44/44 45/45/45
f 46/46/46 47/47/47 48/48/48
f 49/49/49 50/50/50 51/51/51
f 52/52/52 53/53/53 54/54/54
f 55/55/55 56/56/56 57/57/57
f 58/58/58 59/59/59 60/60/60
f 61/61/61 62/62/62 63/63/63
f 64/64/64 65/65/65 66/66/66
f 67/67/67 68/68/68 69/69/69
f 70/70/70 71/71/71 72/72/72
f 73/73/73 74/74/74 75/75/75
f 76/76/76 77/77/77 78/78/78
f 79/79/79 80/80/80 81/81/81
f 82/82/82 83/83/83 84/84/84
f 85/85/85 86/86/86 87/87/87
f 88/88/88 89/89/89 90/90/90
f 91/91/91 92/92/92 93/93/93
f 91/91/91 93/93/93 94/94/94
f 95/95/95 96/96/96 97/97/97
f 95/95/95 97/97/97 98/98/98
f 99/99/99 100/100/100 101/101/101
f 99/99/99 101/101/101 102/102/102
f 103/103/103 104/104/104 105/105/105
f 103/103/103 105/105/105 106/106/106
f 107/107/107 108/108/108 109/109/109
f 107/107/107 109/109/109 110/110/110
f 111/111/111 112/112/112 113/113/113
f 111/111/111 113/113/113 114/114/114
f 115/115/115 116/116/116 117/117/117
f 115/115/115 117/117/117 118/118/118
f 119/119/119 120/120/120 121/121/121
f 119/119/119 121/121/121 122/122/122
f 123/123/123 124/124/124 125/125/125
f 123/123/123 125/125/125 126/126/126
f 127/127/127 128/128/128 129/129/129
f 127/127/127 129/129/129 130/130/130
f 131/131/131 132/132/132 133/133/133
f 131/131/131 133/133/133 134/134/134
f 135/135/135 136/136/136 137/137/137
f 135/135/135 137/137/137 138/138/138
f 139/139/139 140/140/140 141/141/141
f 139/139/139 141/141/141 142/142/142
f 143/143/143 144/144/144 145/145/145
f 143/143/143 145/145/145 146/146/146
f 147/147/147 148/148/148 149/149/149
f 147/147/147 149/149/149 150/150/150
