v -0.320698 0.033336 -0.208191
v -0.315126 0.033427 -0.224906
v -0.320698 0.033457 -0.230414
v -0.315126 0.033427 -0.224906
v -0.301729 0.033457 -0.230414
v -0.320698 0.033457 -0.230414
v -0.315126 0.033427 -0.224906
v -0.301729 0.033427 -0.224906
v -0.301729 0.033457 -0.230414
v -0.320698 0.033336 -0.208191
v -0.315126 0.033368 -0.214201
v -0.315126 0.033427 -0.224906
v -0.315126 0.033368 -0.214201
v -0.310628 0.033367 -0.213952
v -0.312795 0.033368 -0.214206
v -0.320698 0.033336 -0.208191
v -0.310628 0.033367 -0.213952
v -0.315126 0.033368 -0.214201
v -0.320698 0.033336 -0.208191
v -0.308633 0.033364 -0.213454
v -0.310628 0.033367 -0.213952
v -0.320698 0.033336 -0.208191
v -0.306816 0.03336 -0.212731
v -0.308633 0.033364 -0.213454
v -0.320698 0.033336 -0.208191
v -0.305185 0.033355 -0.211798
v -0.306816 0.03336 -0.212731
v -0.320698 0.033336 -0.208191
v -0.318431 0.033338 -0.208621
v -0.305185 0.033355 -0.211798
v -0.318431 0.033338 -0.208621
v -0.303748 0.033349 -0.210671
v -0.305185 0.033355 -0.211798
v -0.318431 0.033338 -0.208621
v -0.316329 0.033339 -0.208796
v -0.303748 0.033349 -0.210671
v -0.316329 0.033339 -0.208796
v -0.302512 0.033342 -0.209369
v -0.303748 0.033349 -0.210671
v -0.316329 0.033339 -0.208796
v -0.314398 0.033339 -0.208734
v -0.302512 0.033342 -0.209369
v -0.314398 0.033339 -0.208734
v -0.301483 0.033334 -0.207908
v -0.302512 0.033342 -0.209369
v -0.312645 0.033337 -0.208456
v -0.301483 0.033334 -0.207908
v -0.314398 0.033339 -0.208734
v -0.311075 0.033335 -0.207979
v -0.301483 0.033334 -0.207908
v -0.312645 0.033337 -0.208456
v -0.309695 0.033331 -0.207322
v -0.301483 0.033334 -0.207908
v -0.311075 0.033335 -0.207979
v -0.309695 0.033331 -0.207322
v -0.300671 0.033325 -0.206304
v -0.301483 0.033334 -0.207908
v -0.308511 0.033327 -0.206506
v -0.300671 0.033325 -0.206304
v -0.309695 0.033331 -0.207322
v -0.307528 0.033321 -0.205548
v -0.300671 0.033325 -0.206304
v -0.308511 0.033327 -0.206506
v -0.307528 0.033321 -0.205548
v -0.300081 0.033316 -0.204574
v -0.300671 0.033325 -0.206304
v -0.306753 0.033315 -0.204468
v -0.300081 0.033316 -0.204574
v -0.307528 0.033321 -0.205548
v -0.306753 0.033315 -0.204468
v -0.299722 0.033306 -0.202735
v -0.300081 0.033316 -0.204574
v -0.306192 0.033309 -0.203283
v -0.299722 0.033306 -0.202735
v -0.306753 0.033315 -0.204468
v -0.305851 0.033302 -0.202014
v -0.299722 0.033306 -0.202735
v -0.306192 0.033309 -0.203283
v -0.305851 0.033302 -0.202014
v -0.299601 0.033295 -0.200804
v -0.299722 0.033306 -0.202735
v -0.305736 0.033295 -0.200679
v -0.299601 0.033295 -0.200804
v -0.305851 0.033302 -0.202014
v -0.305736 0.033295 -0.200679
v -0.299721 0.033285 -0.198878
v -0.299601 0.033295 -0.200804
v -0.305817 0.033289 -0.199647
v -0.299721 0.033285 -0.198878
v -0.305736 0.033295 -0.200679
v -0.306055 0.033284 -0.198652
v -0.299721 0.033285 -0.198878
v -0.305817 0.033289 -0.199647
v -0.306055 0.033284 -0.198652
v -0.300074 0.033275 -0.197055
v -0.299721 0.033285 -0.198878
v -0.306437 0.033279 -0.197707
v -0.300074 0.033275 -0.197055
v -0.306055 0.033284 -0.198652
v -0.306953 0.033274 -0.196819
v -0.300074 0.033275 -0.197055
v -0.306437 0.033279 -0.197707
v -0.306953 0.033274 -0.196819
v -0.300646 0.033266 -0.195344
v -0.300074 0.033275 -0.197055
v -0.307591 0.033269 -0.195999
v -0.300646 0.033266 -0.195344
v -0.306953 0.033274 -0.196819
v -0.32389 0.033235 -0.189786
v -0.323122 0.033267 -0.195614
v -0.32389 0.03327 -0.196109
v -0.308341 0.033265 -0.195256
v -0.300646 0.033266 -0.195344
v -0.307591 0.033269 -0.195999
v -0.32389 0.033235 -0.189786
v -0.322352 0.033265 -0.19516
v -0.323122 0.033267 -0.195614
v -0.308341 0.033265 -0.195256
v -0.301425 0.033257 -0.19376
v -0.300646 0.033266 -0.195344
v -0.309192 0.033262 -0.194601
v -0.301425 0.033257 -0.19376
v -0.308341 0.033265 -0.195256
v -0.32389 0.033235 -0.189786
v -0.321579 0.033263 -0.194749
v -0.322352 0.033265 -0.19516
v -0.32389 0.033235 -0.189786
v -0.320804 0.03326 -0.194379
v -0.321579 0.033263 -0.194749
v -0.310132 0.033259 -0.194043
v -0.301425 0.033257 -0.19376
v -0.309192 0.033262 -0.194601
v -0.32389 0.033235 -0.189786
v -0.320028 0.033259 -0.194053
v -0.320804 0.03326 -0.194379
v -0.32389 0.033235 -0.189786
v -0.31925 0.033257 -0.193769
v -0.320028 0.033259 -0.194053
v -0.31115 0.033256 -0.193592
v -0.301425 0.033257 -0.19376
v -0.310132 0.033259 -0.194043
v -0.32389 0.033235 -0.189786
v -0.318471 0.033256 -0.193529
v -0.31925 0.033257 -0.193769
v -0.31115 0.033256 -0.193592
v -0.302398 0.033249 -0.192316
v -0.301425 0.033257 -0.19376
v -0.312235 0.033254 -0.193258
v -0.302398 0.033249 -0.192316
v -0.31115 0.033256 -0.193592
v -0.32389 0.033235 -0.189786
v -0.31769 0.033255 -0.193331
v -0.318471 0.033256 -0.193529
v -0.32389 0.033235 -0.189786
v -0.316909 0.033254 -0.193178
v -0.31769 0.033255 -0.193331
v -0.313376 0.033253 -0.193051
v -0.302398 0.033249 -0.192316
v -0.312235 0.033254 -0.193258
v -0.32389 0.033235 -0.189786
v -0.316127 0.033253 -0.193068
v -0.316909 0.033254 -0.193178
v -0.32389 0.033235 -0.189786
v -0.315345 0.033253 -0.193001
v -0.316127 0.033253 -0.193068
v -0.314563 0.033253 -0.192979
v -0.302398 0.033249 -0.192316
v -0.313376 0.033253 -0.193051
v -0.32389 0.033235 -0.189786
v -0.314563 0.033253 -0.192979
v -0.315345 0.033253 -0.193001
v -0.32389 0.033235 -0.189786
v -0.302398 0.033249 -0.192316
v -0.314563 0.033253 -0.192979
v -0.32389 0.033235 -0.189786
v -0.303552 0.033242 -0.191023
v -0.302398 0.033249 -0.192316
v -0.32389 0.033235 -0.189786
v -0.304875 0.033236 -0.189894
v -0.303552 0.033242 -0.191023
v -0.32389 0.033235 -0.189786
v -0.306352 0.033231 -0.188943
v -0.304875 0.033236 -0.189894
v -0.322982 0.033233 -0.18934
v -0.306352 0.033231 -0.188943
v -0.32389 0.033235 -0.189786
v -0.322099 0.033231 -0.188939
v -0.306352 0.033231 -0.188943
v -0.322982 0.033233 -0.18934
v -0.322099 0.033231 -0.188939
v -0.307973 0.033227 -0.18818
v -0.306352 0.033231 -0.188943
v -0.321238 0.033229 -0.188583
v -0.307973 0.033227 -0.18818
v -0.322099 0.033231 -0.188939
v -0.320392 0.033227 -0.18827
v -0.307973 0.033227 -0.18818
v -0.321238 0.033229 -0.188583
v -0.319556 0.033226 -0.187999
v -0.307973 0.033227 -0.18818
v -0.320392 0.033227 -0.18827
v -0.319556 0.033226 -0.187999
v -0.309723 0.033224 -0.18762
v -0.307973 0.033227 -0.18818
v -0.318726 0.033224 -0.187768
v -0.309723 0.033224 -0.18762
v -0.319556 0.033226 -0.187999
v -0.317895 0.033223 -0.187576
v -0.309723 0.033224 -0.18762
v -0.318726 0.033224 -0.187768
v -0.317895 0.033223 -0.187576
v -0.31159 0.033222 -0.187275
v -0.309723 0.033224 -0.18762
v -0.31706 0.033223 -0.187421
v -0.31159 0.033222 -0.187275
v -0.317895 0.033223 -0.187576
v -0.316214 0.033222 -0.187303
v -0.31159 0.033222 -0.187275
v -0.31706 0.033223 -0.187421
v -0.315352 0.033222 -0.187221
v -0.31159 0.033222 -0.187275
v -0.316214 0.033222 -0.187303
v -0.315352 0.033222 -0.187221
v -0.313561 0.033221 -0.187157
v -0.31159 0.033222 -0.187275
v -0.31447 0.033221 -0.187173
v -0.313561 0.033221 -0.187157
v -0.315352 0.033222 -0.187221
v -0.315126 0.029671 -0.224926
v -0.320698 0.02958 -0.208211
v -0.320698 0.029701 -0.230435
v -0.301729 0.029701 -0.230435
v -0.315126 0.029671 -0.224926
v -0.320698 0.029701 -0.230435
v -0.301729 0.029671 -0.224926
v -0.315126 0.029671 -0.224926
v -0.301729 0.029701 -0.230435
v -0.315126 0.029612 -0.214222
v -0.320698 0.02958 -0.208211
v -0.315126 0.029671 -0.224926
v -0.310628 0.029611 -0.213972
v -0.315126 0.029612 -0.214222
v -0.312795 0.029612 -0.214226
v -0.310628 0.029611 -0.213972
v -0.320698 0.02958 -0.208211
v -0.315126 0.029612 -0.214222
v -0.308633 0.029608 -0.213475
v -0.320698 0.02958 -0.208211
v -0.310628 0.029611 -0.213972
v -0.306816 0.029604 -0.212751
v -0.320698 0.02958 -0.208211
v -0.308633 0.029608 -0.213475
v -0.305185 0.029599 -0.211818
v -0.320698 0.02958 -0.208211
v -0.306816 0.029604 -0.212751
v -0.318431 0.029582 -0.208641
v -0.320698 0.02958 -0.208211
v -0.305185 0.029599 -0.211818
v -0.303748 0.029593 -0.210692
v -0.318431 0.029582 -0.208641
v -0.305185 0.029599 -0.211818
v -0.316329 0.029583 -0.208816
v -0.318431 0.029582 -0.208641
v -0.303748 0.029593 -0.210692
v -0.302512 0.029586 -0.20939
v -0.316329 0.029583 -0.208816
v -0.303748 0.029593 -0.210692
v -0.314398 0.029583 -0.208754
v -0.316329 0.029583 -0.208816
v -0.302512 0.029586 -0.20939
v -0.301483 0.029578 -0.207928
v -0.314398 0.029583 -0.208754
v -0.302512 0.029586 -0.20939
v -0.301483 0.029578 -0.207928
v -0.312645 0.029581 -0.208476
v -0.314398 0.029583 -0.208754
v -0.301483 0.029578 -0.207928
v -0.311075 0.029578 -0.207999
v -0.312645 0.029581 -0.208476
v -0.301483 0.029578 -0.207928
v -0.309695 0.029575 -0.207343
v -0.311075 0.029578 -0.207999
v -0.300671 0.029569 -0.206325
v -0.309695 0.029575 -0.207343
v -0.301483 0.029578 -0.207928
v -0.300671 0.029569 -0.206325
v -0.308511 0.02957 -0.206527
v -0.309695 0.029575 -0.207343
v -0.300671 0.029569 -0.206325
v -0.307528 0.029565 -0.205569
v -0.308511 0.02957 -0.206527
v -0.300081 0.02956 -0.204595
v -0.307528 0.029565 -0.205569
v -0.300671 0.029569 -0.206325
v -0.300081 0.02956 -0.204595
v -0.306753 0.029559 -0.204488
v -0.307528 0.029565 -0.205569
v -0.299722 0.02955 -0.202756
v -0.306753 0.029559 -0.204488
v -0.300081 0.02956 -0.204595
v -0.299722 0.02955 -0.202756
v -0.306192 0.029553 -0.203304
v -0.306753 0.029559 -0.204488
v -0.299722 0.02955 -0.202756
v -0.305851 0.029546 -0.202035
v -0.306192 0.029553 -0.203304
v -0.299601 0.029539 -0.200824
v -0.305851 0.029546 -0.202035
v -0.299722 0.02955 -0.202756
v -0.299601 0.029539 -0.200824
v -0.305736 0.029539 -0.200699
v -0.305851 0.029546 -0.202035
v -0.299721 0.029529 -0.198899
v -0.305736 0.029539 -0.200699
v -0.299601 0.029539 -0.200824
v -0.299721 0.029529 -0.198899
v -0.305817 0.029533 -0.199667
v -0.305736 0.029539 -0.200699
v -0.299721 0.029529 -0.198899
v -0.306055 0.029528 -0.198673
v -0.305817 0.029533 -0.199667
v -0.300074 0.029519 -0.197075
v -0.306055 0.029528 -0.198673
v -0.299721 0.029529 -0.198899
v -0.300074 0.029519 -0.197075
v -0.306437 0.029523 -0.197727
v -0.306055 0.029528 -0.198673
v -0.300074 0.029519 -0.197075
v -0.306953 0.029518 -0.196839
v -0.306437 0.029523 -0.197727
v -0.300646 0.02951 -0.195365
v -0.306953 0.029518 -0.196839
v -0.300074 0.029519 -0.197075
v -0.300646 0.02951 -0.195365
v -0.307591 0.029513 -0.196019
v -0.306953 0.029518 -0.196839
v -0.323122 0.029511 -0.195634
v -0.32389 0.029479 -0.189807
v -0.32389 0.029514 -0.19613
v -0.300646 0.02951 -0.195365
v -0.308341 0.029509 -0.195276
v -0.307591 0.029513 -0.196019
v -0.322352 0.029509 -0.195181
v -0.32389 0.029479 -0.189807
v -0.323122 0.029511 -0.195634
v -0.301425 0.029501 -0.19378
v -0.308341 0.029509 -0.195276
v -0.300646 0.02951 -0.195365
v -0.301425 0.029501 -0.19378
v -0.309192 0.029506 -0.194622
v -0.308341 0.029509 -0.195276
v -0.321579 0.029506 -0.194769
v -0.32389 0.029479 -0.189807
v -0.322352 0.029509 -0.195181
v -0.320804 0.029504 -0.1944
v -0.32389 0.029479 -0.189807
v -0.321579 0.029506 -0.194769
v -0.301425 0.029501 -0.19378
v -0.310132 0.029503 -0.194063
v -0.309192 0.029506 -0.194622
v -0.320028 0.029503 -0.194073
v -0.32389 0.029479 -0.189807
v -0.320804 0.029504 -0.1944
v -0.31925 0.029501 -0.193789
v -0.32389 0.029479 -0.189807
v -0.320028 0.029503 -0.194073
v -0.301425 0.029501 -0.19378
v -0.31115 0.0295 -0.193613
v -0.310132 0.029503 -0.194063
v -0.318471 0.0295 -0.193549
v -0.32389 0.029479 -0.189807
v -0.31925 0.029501 -0.193789
v -0.302398 0.029493 -0.192336
v -0.31115 0.0295 -0.193613
v -0.301425 0.029501 -0.19378
v -0.302398 0.029493 -0.192336
v -0.312235 0.029498 -0.193279
v -0.31115 0.0295 -0.193613
v -0.31769 0.029499 -0.193352
v -0.32389 0.029479 -0.189807
v -0.318471 0.0295 -0.193549
v -0.316909 0.029498 -0.193198
v -0.32389 0.029479 -0.189807
v -0.31769 0.029499 -0.193352
v -0.302398 0.029493 -0.192336
v -0.313376 0.029497 -0.193071
v -0.312235 0.029498 -0.193279
v -0.316127 0.029497 -0.193088
v -0.32389 0.029479 -0.189807
v -0.316909 0.029498 -0.193198
v -0.315345 0.029497 -0.193022
v -0.32389 0.029479 -0.189807
v -0.316127 0.029497 -0.193088
v -0.302398 0.029493 -0.192336
v -0.314563 0.029497 -0.192999
v -0.313376 0.029497 -0.193071
v -0.314563 0.029497 -0.192999
v -0.32389 0.029479 -0.189807
v -0.315345 0.029497 -0.193022
v -0.302398 0.029493 -0.192336
v -0.32389 0.029479 -0.189807
v -0.314563 0.029497 -0.192999
v -0.303552 0.029486 -0.191043
v -0.32389 0.029479 -0.189807
v -0.302398 0.029493 -0.192336
v -0.304875 0.02948 -0.189914
v -0.32389 0.029479 -0.189807
v -0.303552 0.029486 -0.191043
v -0.306352 0.029475 -0.188963
v -0.32389 0.029479 -0.189807
v -0.304875 0.02948 -0.189914
v -0.306352 0.029475 -0.188963
v -0.322982 0.029477 -0.18936
v -0.32389 0.029479 -0.189807
v -0.306352 0.029475 -0.188963
v -0.322099 0.029475 -0.18896
v -0.322982 0.029477 -0.18936
v -0.307973 0.029471 -0.188201
v -0.322099 0.029475 -0.18896
v -0.306352 0.029475 -0.188963
v -0.307973 0.029471 -0.188201
v -0.321238 0.029473 -0.188604
v -0.322099 0.029475 -0.18896
v -0.307973 0.029471 -0.188201
v -0.320392 0.029471 -0.188291
v -0.321238 0.029473 -0.188604
v -0.307973 0.029471 -0.188201
v -0.319556 0.02947 -0.188019
v -0.320392 0.029471 -0.188291
v -0.309723 0.029468 -0.187641
v -0.319556 0.02947 -0.188019
v -0.307973 0.029471 -0.188201
v -0.309723 0.029468 -0.187641
v -0.318726 0.029468 -0.187788
v -0.319556 0.02947 -0.188019
v -0.309723 0.029468 -0.187641
v -0.317895 0.029467 -0.187596
v -0.318726 0.029468 -0.187788
v -0.31159 0.029466 -0.187295
v -0.317895 0.029467 -0.187596
v -0.309723 0.029468 -0.187641
v -0.31159 0.029466 -0.187295
v -0.31706 0.029466 -0.187441
v -0.317895 0.029467 -0.187596
v -0.31159 0.029466 -0.187295
v -0.316214 0.029466 -0.187324
v -0.31706 0.029466 -0.187441
v -0.31159 0.029466 -0.187295
v -0.315352 0.029465 -0.187241
v -0.316214 0.029466 -0.187324
v -0.313561 0.029465 -0.187177
v -0.315352 0.029465 -0.187241
v -0.31159 0.029466 -0.187295
v -0.313561 0.029465 -0.187177
v -0.31447 0.029465 -0.187193
v -0.315352 0.029465 -0.187241
v -0.315126 0.033427 -0.224906
v -0.315126 0.033368 -0.214201
v -0.315126 0.029612 -0.214222
v -0.315126 0.029671 -0.224926
v -0.315126 0.033368 -0.214201
v -0.312795 0.033368 -0.214206
v -0.312795 0.029612 -0.214226
v -0.315126 0.029612 -0.214222
v -0.312795 0.033368 -0.214206
v -0.310628 0.033367 -0.213952
v -0.310628 0.029611 -0.213972
v -0.312795 0.029612 -0.214226
v -0.310628 0.033367 -0.213952
v -0.308633 0.033364 -0.213454
v -0.308633 0.029608 -0.213475
v -0.310628 0.029611 -0.213972
v -0.308633 0.033364 -0.213454
v -0.306816 0.03336 -0.212731
v -0.306816 0.029604 -0.212751
v -0.308633 0.029608 -0.213475
v -0.306816 0.03336 -0.212731
v -0.305185 0.033355 -0.211798
v -0.305185 0.029599 -0.211818
v -0.306816 0.029604 -0.212751
v -0.305185 0.033355 -0.211798
v -0.303748 0.033349 -0.210671
v -0.303748 0.029593 -0.210692
v -0.305185 0.029599 -0.211818
v -0.303748 0.033349 -0.210671
v -0.302512 0.033342 -0.209369
v -0.302512 0.029586 -0.20939
v -0.303748 0.029593 -0.210692
v -0.302512 0.033342 -0.209369
v -0.301483 0.033334 -0.207908
v -0.301483 0.029578 -0.207928
v -0.302512 0.029586 -0.20939
v -0.301483 0.033334 -0.207908
v -0.300671 0.033325 -0.206304
v -0.300671 0.029569 -0.206325
v -0.301483 0.029578 -0.207928
v -0.300671 0.033325 -0.206304
v -0.300081 0.033316 -0.204574
v -0.300081 0.02956 -0.204595
v -0.300671 0.029569 -0.206325
v -0.300081 0.033316 -0.204574
v -0.299722 0.033306 -0.202735
v -0.299722 0.02955 -0.202756
v -0.300081 0.02956 -0.204595
v -0.299722 0.033306 -0.202735
v -0.299601 0.033295 -0.200804
v -0.299601 0.029539 -0.200824
v -0.299722 0.02955 -0.202756
v -0.299601 0.033295 -0.200804
v -0.299721 0.033285 -0.198878
v -0.299721 0.029529 -0.198899
v -0.299601 0.029539 -0.200824
v -0.299721 0.033285 -0.198878
v -0.300074 0.033275 -0.197055
v -0.300074 0.029519 -0.197075
v -0.299721 0.029529 -0.198899
v -0.300074 0.033275 -0.197055
v -0.300646 0.033266 -0.195344
v -0.300646 0.02951 -0.195365
v -0.300074 0.029519 -0.197075
v -0.300646 0.033266 -0.195344
v -0.301425 0.033257 -0.19376
v -0.301425 0.029501 -0.19378
v -0.300646 0.02951 -0.195365
v -0.301425 0.033257 -0.19376
v -0.302398 0.033249 -0.192316
v -0.302398 0.029493 -0.192336
v -0.301425 0.029501 -0.19378
v -0.302398 0.033249 -0.192316
v -0.303552 0.033242 -0.191023
v -0.303552 0.029486 -0.191043
v -0.302398 0.029493 -0.192336
v -0.303552 0.033242 -0.191023
v -0.304875 0.033236 -0.189894
v -0.304875 0.02948 -0.189914
v -0.303552 0.029486 -0.191043
v -0.304875 0.033236 -0.189894
v -0.306352 0.033231 -0.188943
v -0.306352 0.029475 -0.188963
v -0.304875 0.02948 -0.189914
v -0.306352 0.033231 -0.188943
v -0.307973 0.033227 -0.18818
v -0.307973 0.029471 -0.188201
v -0.306352 0.029475 -0.188963
v -0.307973 0.033227 -0.18818
v -0.309723 0.033224 -0.18762
v -0.309723 0.029468 -0.187641
v -0.307973 0.029471 -0.188201
v -0.309723 0.033224 -0.18762
v -0.31159 0.033222 -0.187275
v -0.31159 0.029466 -0.187295
v -0.309723 0.029468 -0.187641
v -0.31159 0.033222 -0.187275
v -0.313561 0.033221 -0.187157
v -0.313561 0.029465 -0.187177
v -0.31159 0.029466 -0.187295
v -0.313561 0.033221 -0.187157
v -0.31447 0.033221 -0.187173
v -0.31447 0.029465 -0.187193
v -0.313561 0.029465 -0.187177
v -0.31447 0.033221 -0.187173
v -0.315352 0.033222 -0.187221
v -0.315352 0.029465 -0.187241
v -0.31447 0.029465 -0.187193
v -0.315352 0.033222 -0.187221
v -0.316214 0.033222 -0.187303
v -0.316214 0.029466 -0.187324
v -0.315352 0.029465 -0.187241
v -0.316214 0.033222 -0.187303
v -0.31706 0.033223 -0.187421
v -0.31706 0.029466 -0.187441
v -0.316214 0.029466 -0.187324
v -0.31706 0.033223 -0.187421
v -0.317895 0.033223 -0.187576
v -0.317895 0.029467 -0.187596
v -0.31706 0.029466 -0.187441
v -0.317895 0.033223 -0.187576
v -0.318726 0.033224 -0.187768
v -0.318726 0.029468 -0.187788
v -0.317895 0.029467 -0.187596
v -0.318726 0.033224 -0.187768
v -0.319556 0.033226 -0.187999
v -0.319556 0.02947 -0.188019
v -0.318726 0.029468 -0.187788
v -0.319556 0.033226 -0.187999
v -0.320392 0.033227 -0.18827
v -0.320392 0.029471 -0.188291
v -0.319556 0.02947 -0.188019
v -0.320392 0.033227 -0.18827
v -0.321238 0.033229 -0.188583
v -0.321238 0.029473 -0.188604
v -0.320392 0.029471 -0.188291
v -0.321238 0.033229 -0.188583
v -0.322099 0.033231 -0.188939
v -0.322099 0.029475 -0.18896
v -0.321238 0.029473 -0.188604
v -0.322099 0.033231 -0.188939
v -0.322982 0.033233 -0.18934
v -0.322982 0.029477 -0.18936
v -0.322099 0.029475 -0.18896
v -0.322982 0.033233 -0.18934
v -0.32389 0.033235 -0.189786
v -0.32389 0.029479 -0.189807
v -0.322982 0.029477 -0.18936
v -0.32389 0.033235 -0.189786
v -0.32389 0.03327 -0.196109
v -0.32389 0.029514 -0.19613
v -0.32389 0.029479 -0.189807
v -0.32389 0.03327 -0.196109
v -0.323122 0.033267 -0.195614
v -0.323122 0.029511 -0.195634
v -0.32389 0.029514 -0.19613
v -0.323122 0.033267 -0.195614
v -0.322352 0.033265 -0.19516
v -0.322352 0.029509 -0.195181
v -0.323122 0.029511 -0.195634
v -0.322352 0.033265 -0.19516
v -0.321579 0.033263 -0.194749
v -0.321579 0.029506 -0.194769
v -0.322352 0.029509 -0.195181
v -0.321579 0.033263 -0.194749
v -0.320804 0.03326 -0.194379
v -0.320804 0.029504 -0.1944
v -0.321579 0.029506 -0.194769
v -0.320804 0.03326 -0.194379
v -0.320028 0.033259 -0.194053
v -0.320028 0.029503 -0.194073
v -0.320804 0.029504 -0.1944
v -0.320028 0.033259 -0.194053
v -0.31925 0.033257 -0.193769
v -0.31925 0.029501 -0.193789
v -0.320028 0.029503 -0.194073
v -0.31925 0.033257 -0.193769
v -0.318471 0.033256 -0.193529
v -0.318471 0.0295 -0.193549
v -0.31925 0.029501 -0.193789
v -0.318471 0.033256 -0.193529
v -0.31769 0.033255 -0.193331
v -0.31769 0.029499 -0.193352
v -0.318471 0.0295 -0.193549
v -0.31769 0.033255 -0.193331
v -0.316909 0.033254 -0.193178
v -0.316909 0.029498 -0.193198
v -0.31769 0.029499 -0.193352
v -0.316909 0.033254 -0.193178
v -0.316127 0.033253 -0.193068
v -0.316127 0.029497 -0.193088
v -0.316909 0.029498 -0.193198
v -0.316127 0.033253 -0.193068
v -0.315345 0.033253 -0.193001
v -0.315345 0.029497 -0.193022
v -0.316127 0.029497 -0.193088
v -0.315345 0.033253 -0.193001
v -0.314563 0.033253 -0.192979
v -0.314563 0.029497 -0.192999
v -0.315345 0.029497 -0.193022
v -0.314563 0.033253 -0.192979
v -0.313376 0.033253 -0.193051
v -0.313376 0.029497 -0.193071
v -0.314563 0.029497 -0.192999
v -0.313376 0.033253 -0.193051
v -0.312235 0.033254 -0.193258
v -0.312235 0.029498 -0.193279
v -0.313376 0.029497 -0.193071
v -0.312235 0.033254 -0.193258
v -0.31115 0.033256 -0.193592
v -0.31115 0.0295 -0.193613
v -0.312235 0.029498 -0.193279
v -0.31115 0.033256 -0.193592
v -0.310132 0.033259 -0.194043
v -0.310132 0.029503 -0.194063
v -0.31115 0.0295 -0.193613
v -0.310132 0.033259 -0.194043
v -0.309192 0.033262 -0.194601
v -0.309192 0.029506 -0.194622
v -0.310132 0.029503 -0.194063
v -0.309192 0.033262 -0.194601
v -0.308341 0.033265 -0.195256
v -0.308341 0.029509 -0.195276
v -0.309192 0.029506 -0.194622
v -0.308341 0.033265 -0.195256
v -0.307591 0.033269 -0.195999
v -0.307591 0.029513 -0.196019
v -0.308341 0.029509 -0.195276
v -0.307591 0.033269 -0.195999
v -0.306953 0.033274 -0.196819
v -0.306953 0.029518 -0.196839
v -0.307591 0.029513 -0.196019
v -0.306953 0.033274 -0.196819
v -0.306437 0.033279 -0.197707
v -0.306437 0.029523 -0.197727
v -0.306953 0.029518 -0.196839
v -0.306437 0.033279 -0.197707
v -0.306055 0.033284 -0.198652
v -0.306055 0.029528 -0.198673
v -0.306437 0.029523 -0.197727
v -0.306055 0.033284 -0.198652
v -0.305817 0.033289 -0.199647
v -0.305817 0.029533 -0.199667
v -0.306055 0.029528 -0.198673
v -0.305817 0.033289 -0.199647
v -0.305736 0.033295 -0.200679
v -0.305736 0.029539 -0.200699
v -0.305817 0.029533 -0.199667
v -0.305736 0.033295 -0.200679
v -0.305851 0.033302 -0.202014
v -0.305851 0.029546 -0.202035
v -0.305736 0.029539 -0.200699
v -0.305851 0.033302 -0.202014
v -0.306192 0.033309 -0.203283
v -0.306192 0.029553 -0.203304
v -0.305851 0.029546 -0.202035
v -0.306192 0.033309 -0.203283
v -0.306753 0.033315 -0.204468
v -0.306753 0.029559 -0.204488
v -0.306192 0.029553 -0.203304
v -0.306753 0.033315 -0.204468
v -0.307528 0.033321 -0.205548
v -0.307528 0.029565 -0.205569
v -0.306753 0.029559 -0.204488
v -0.307528 0.033321 -0.205548
v -0.308511 0.033327 -0.206506
v -0.308511 0.02957 -0.206527
v -0.307528 0.029565 -0.205569
v -0.308511 0.033327 -0.206506
v -0.309695 0.033331 -0.207322
v -0.309695 0.029575 -0.207343
v -0.308511 0.02957 -0.206527
v -0.309695 0.033331 -0.207322
v -0.311075 0.033335 -0.207979
v -0.311075 0.029578 -0.207999
v -0.309695 0.029575 -0.207343
v -0.311075 0.033335 -0.207979
v -0.312645 0.033337 -0.208456
v -0.312645 0.029581 -0.208476
v -0.311075 0.029578 -0.207999
v -0.312645 0.033337 -0.208456
v -0.314398 0.033339 -0.208734
v -0.314398 0.029583 -0.208754
v -0.312645 0.029581 -0.208476
v -0.314398 0.033339 -0.208734
v -0.316329 0.033339 -0.208796
v -0.316329 0.029583 -0.208816
v -0.314398 0.029583 -0.208754
v -0.316329 0.033339 -0.208796
v -0.318431 0.033338 -0.208621
v -0.318431 0.029582 -0.208641
v -0.316329 0.029583 -0.208816
v -0.318431 0.033338 -0.208621
v -0.320698 0.033336 -0.208191
v -0.320698 0.02958 -0.208211
v -0.318431 0.029582 -0.208641
v -0.320698 0.033336 -0.208191
v -0.320698 0.033457 -0.230414
v -0.320698 0.029701 -0.230435
v -0.320698 0.02958 -0.208211
v -0.320698 0.033457 -0.230414
v -0.301729 0.033457 -0.230414
v -0.301729 0.029701 -0.230435
v -0.320698 0.029701 -0.230435
v -0.301729 0.033457 -0.230414
v -0.301729 0.033427 -0.224906
v -0.301729 0.029671 -0.224926
v -0.301729 0.029701 -0.230435
v -0.301729 0.033427 -0.224906
v -0.315126 0.033427 -0.224906
v -0.315126 0.029671 -0.224926
v -0.301729 0.029671 -0.224926
vn 0.0001 1 0.0055
vn -0 1 0.0055
vn -0 1 0.0054
vn -0 1 0.0055
vn -0 1 0.0054
vn -0 1 0.0054
vn -0 1 0.0055
vn -0 1 0.0054
vn -0 1 0.0054
vn 0.0001 1 0.0055
vn 0.0001 1 0.0054
vn -0 1 0.0055
vn 0.0001 1 0.0054
vn 0.0001 1 0.0055
vn -0 1 0.0053
vn 0.0001 1 0.0055
vn 0.0001 1 0.0055
vn 0.0001 1 0.0054
vn 0.0001 1 0.0055
vn 0.0001 1 0.0055
vn 0.0001 1 0.0055
vn 0.0001 1 0.0055
vn -0 1 0.0054
vn 0.0001 1 0.0055
vn 0.0001 1 0.0055
vn -0 1 0.0053
vn -0 1 0.0054
vn 0.0001 1 0.0055
vn -0 1 0.0055
vn -0 1 0.0053
vn -0 1 0.0055
vn -0 1 0.0054
vn -0 1 0.0053
vn -0 1 0.0055
vn -0 1 0.0051
vn -0 1 0.0054
vn -0 1 0.0051
vn -0 1 0.0054
vn -0 1 0.0054
vn -0 1 0.0051
vn -0 1 0.0055
vn -0 1 0.0054
vn -0 1 0.0055
vn -0 1 0.0055
vn -0 1 0.0054
vn -0 1 0.0054
vn -0 1 0.0055
vn -0 1 0.0055
vn -0 1 0.0053
vn -0 1 0.0055
vn -0 1 0.0054
vn 0.0001 1 0.0058
vn -0 1 0.0055
vn -0 1 0.0053
vn 0.0001 1 0.0058
vn -0 1 0.0054
vn -0 1 0.0055
vn 0.0001 1 0.005
vn -0 1 0.0054
vn 0.0001 1 0.0058
vn -0 1 0.006
vn -0 1 0.0054
vn 0.0001 1 0.005
vn -0 1 0.006
vn -0 1 0.0054
vn -0 1 0.0054
vn -0 1 0.0054
vn -0 1 0.0054
vn -0 1 0.006
vn -0 1 0.0054
vn -0 1 0.0056
vn -0 1 0.0054
vn -0 1 0.0052
vn -0 1 0.0056
vn -0 1 0.0054
vn -0 1 0.0054
vn -0 1 0.0056
vn -0 1 0.0052
vn -0 1 0.0054
vn 0.0001 1 0.0054
vn -0 1 0.0056
vn -0 1 0.0055
vn 0.0001 1 0.0054
vn -0 1 0.0054
vn -0 1 0.0055
vn 0.0001 1 0.0054
vn 0.0001 1 0.0054
vn -0 1 0.0054
vn 0.0001 1 0.0054
vn -0 1 0.0055
vn -0 1 0.0055
vn 0.0001 1 0.0054
vn -0 1 0.0054
vn -0 1 0.0055
vn -0 1 0.0054
vn 0.0001 1 0.0054
vn 0.0001 1 0.0055
vn -0 1 0.0054
vn -0 1 0.0055
vn -0.0001 1 0.0058
vn -0 1 0.0054
vn 0.0001 1 0.0055
vn -0.0001 1 0.0058
vn -0 1 0.0054
vn -0 1 0.0054
vn -0.0001 1 0.0055
vn -0 1 0.0054
vn -0.0001 1 0.0058
vn -0 1 0.0053
vn -0 1 0.0055
vn 0.0003 1 0.0055
vn -0 1 0.0053
vn -0 1 0.0054
vn -0.0001 1 0.0055
vn -0 1 0.0053
vn -0.0005 1 0.0054
vn -0 1 0.0055
vn -0 1 0.0053
vn -0 1 0.0056
vn -0 1 0.0054
vn 0.0001 1 0.0053
vn -0 1 0.0056
vn -0 1 0.0053
vn -0 1 0.0053
vn 0.0003 1 0.0058
vn -0.0005 1 0.0054
vn -0 1 0.0053
vn -0 1 0.0054
vn 0.0003 1 0.0058
vn -0 1 0.0055
vn -0 1 0.0056
vn 0.0001 1 0.0053
vn -0 1 0.0053
vn -0.0001 1 0.0056
vn -0 1 0.0054
vn -0 1 0.0053
vn -0.0001 1 0.0054
vn -0.0001 1 0.0056
vn -0 1 0.0056
vn -0 1 0.0056
vn -0 1 0.0055
vn -0 1 0.0053
vn -0.0002 1 0.0054
vn -0.0001 1 0.0054
vn -0 1 0.0056
vn -0 1 0.0055
vn -0 1 0.0056
vn -0 1 0.0054
vn -0 1 0.0055
vn -0 1 0.0056
vn -0 1 0.0053
vn 0.0001 1 0.0058
vn -0.0002 1 0.0054
vn -0 1 0.0053
vn -0 1 0.0054
vn 0.0001 1 0.0058
vn -0 1 0.0056
vn -0 1 0.0055
vn -0 1 0.0054
vn -0 1 0.0053
vn -0 1 0.0054
vn -0 1 0.0054
vn -0 1 0.0053
vn -0.0002 1 0.0051
vn -0 1 0.0054
vn -0 1 0.0055
vn -0 1 0.0055
vn -0 1 0.0056
vn -0 1 0.0053
vn -0 1 0.0055
vn -0.0002 1 0.0051
vn -0 1 0.0053
vn -0 1 0.0055
vn -0 1 0.0055
vn -0 1 0.0053
vn -0 1 0.0054
vn -0 1 0.0055
vn -0 1 0.0053
vn -0 1 0.0053
vn -0 1 0.0054
vn -0 1 0.0053
vn -0 1 0.0052
vn -0 1 0.0053
vn -0 1 0.0055
vn -0 1 0.0052
vn -0 1 0.0053
vn -0 1 0.0051
vn -0 1 0.0052
vn -0 1 0.0055
vn -0 1 0.0051
vn -0 1 0.0053
vn -0 1 0.0052
vn -0 1 0.0057
vn -0 1 0.0053
vn -0 1 0.0051
vn -0 1 0.0055
vn -0 1 0.0053
vn -0 1 0.0057
vn -0 1 0.0055
vn -0 1 0.0053
vn -0 1 0.0055
vn -0 1 0.0055
vn -0 1 0.0054
vn -0 1 0.0053
vn -0 1 0.0055
vn -0 1 0.0054
vn -0 1 0.0055
vn -0.0001 1 0.0053
vn -0 1 0.0054
vn -0 1 0.0055
vn -0.0001 1 0.0053
vn -0.0001 1 0.0053
vn -0 1 0.0054
vn -0 1 0.0055
vn -0.0001 1 0.0053
vn -0.0001 1 0.0053
vn -0 1 0.0054
vn -0.0001 1 0.0053
vn -0 1 0.0055
vn -0 1 0.0054
vn -0.0001 1 0.0053
vn -0 1 0.0054
vn -0 1 0.0054
vn 0.0001 1 0.0056
vn -0.0001 1 0.0053
vn -0 1 0.0053
vn 0.0001 1 0.0056
vn -0 1 0.0054
vn -0 -1 -0.0054
vn -0.0001 -1 -0.0055
vn -0 -1 -0.0054
vn -0 -1 -0.0054
vn -0 -1 -0.0054
vn -0 -1 -0.0054
vn -0 -1 -0.0054
vn -0 -1 -0.0054
vn -0 -1 -0.0054
vn -0.0001 -1 -0.0054
vn -0.0001 -1 -0.0055
vn -0 -1 -0.0054
vn -0.0001 -1 -0.0055
vn -0.0001 -1 -0.0054
vn -0 -1 -0.0051
vn -0.0001 -1 -0.0055
vn -0.0001 -1 -0.0055
vn -0.0001 -1 -0.0054
vn -0.0001 -1 -0.0055
vn -0.0001 -1 -0.0055
vn -0.0001 -1 -0.0055
vn -0 -1 -0.0054
vn -0.0001 -1 -0.0055
vn -0.0001 -1 -0.0055
vn -0 -1 -0.0053
vn -0.0001 -1 -0.0055
vn -0 -1 -0.0054
vn -0 -1 -0.0054
vn -0.0001 -1 -0.0055
vn -0 -1 -0.0053
vn -0 -1 -0.0054
vn -0 -1 -0.0054
vn -0 -1 -0.0053
vn -0 -1 -0.0052
vn -0 -1 -0.0054
vn -0 -1 -0.0054
vn -0 -1 -0.0054
vn -0 -1 -0.0052
vn -0 -1 -0.0054
vn -0 -1 -0.0055
vn -0 -1 -0.0052
vn -0 -1 -0.0054
vn -0 -1 -0.0056
vn -0 -1 -0.0055
vn -0 -1 -0.0054
vn -0 -1 -0.0056
vn -0 -1 -0.0054
vn -0 -1 -0.0055
vn -0 -1 -0.0056
vn -0 -1 -0.0054
vn -0 -1 -0.0054
vn -0 -1 -0.0056
vn -0 -1 -0.0054
vn -0 -1 -0.0054
vn -0 -1 -0.0054
vn -0 -1 -0.0054
vn -0 -1 -0.0056
vn -0 -1 -0.0054
vn -0 -1 -0.0056
vn -0 -1 -0.0054
vn -0 -1 -0.0054
vn -0 -1 -0.0053
vn -0 -1 -0.0056
vn -0 -1 -0.0054
vn -0 -1 -0.0053
vn -0 -1 -0.0054
vn -0 -1 -0.0054
vn -0 -1 -0.0054
vn -0 -1 -0.0053
vn -0 -1 -0.0056
vn -0 -1 -0.0054
vn -0 -1 -0.0054
vn -0 -1 -0.0056
vn -0 -1 -0.0052
vn -0 -1 -0.0054
vn -0 -1 -0.0056
vn -0 -1 -0.0054
vn -0 -1 -0.0052
vn -0.0001 -1 -0.0054
vn -0 -1 -0.0054
vn -0 -1 -0.0056
vn -0.0001 -1 -0.0054
vn -0 -1 -0.0055
vn -0 -1 -0.0054
vn -0.0001 -1 -0.0054
vn -0 -1 -0.0055
vn -0.0001 -1 -0.0054
vn -0.0001 -1 -0.0054
vn -0 -1 -0.0054
vn -0 -1 -0.0055
vn -0.0001 -1 -0.0054
vn -0.0001 -1 -0.0052
vn -0 -1 -0.0054
vn -0 -1 -0.0054
vn -0.0001 -1 -0.0052
vn -0.0001 -1 -0.0054
vn -0 -1 -0.0054
vn -0.0001 -1 -0.0055
vn -0.0001 -1 -0.0052
vn -0 -1 -0.0054
vn -0 -1 -0.0055
vn -0.0001 -1 -0.0055
vn -0 -1 -0.0054
vn -0 -1 -0.0055
vn -0 -1 -0.0054
vn -0 -1 -0.0054
vn 0.0001 -1 -0.0055
vn -0 -1 -0.0055
vn -0 -1 -0.0055
vn -0 -1 -0.0056
vn 0.0002 -1 -0.0055
vn -0 -1 -0.0054
vn -0 -1 -0.0054
vn 0.0001 -1 -0.0055
vn -0 -1 -0.0056
vn -0 -1 -0.0056
vn -0 -1 -0.0055
vn -0 -1 -0.0056
vn -0 -1 -0.0054
vn -0 -1 -0.0054
vn -0 -1 -0.0056
vn -0.0001 -1 -0.0053
vn -0 -1 -0.0054
vn -0.0004 -1 -0.0056
vn -0 -1 -0.0056
vn -0 -1 -0.0056
vn -0 -1 -0.0054
vn -0 -1 -0.0056
vn -0.0004 -1 -0.0056
vn -0 -1 -0.0056
vn -0 -1 -0.0056
vn -0.0001 -1 -0.0053
vn 0.0001 -1 -0.0052
vn -0 -1 -0.0056
vn -0 -1 -0.0054
vn 0.0001 -1 -0.0054
vn -0 -1 -0.0056
vn 0.0001 -1 -0.0052
vn -0 -1 -0.0056
vn -0 -1 -0.0056
vn -0 -1 -0.0056
vn 0.0002 -1 -0.0054
vn -0 -1 -0.0056
vn 0.0001 -1 -0.0054
vn -0 -1 -0.0055
vn -0 -1 -0.0056
vn -0 -1 -0.0056
vn -0 -1 -0.0055
vn -0 -1 -0.0051
vn -0 -1 -0.0056
vn -0.0001 -1 -0.0058
vn -0 -1 -0.0056
vn 0.0002 -1 -0.0054
vn 0.0001 -1 -0.0053
vn -0 -1 -0.0056
vn -0.0001 -1 -0.0058
vn -0 -1 -0.0055
vn -0 -1 -0.0056
vn -0 -1 -0.0051
vn -0.0001 -1 -0.0056
vn -0 -1 -0.0056
vn 0.0001 -1 -0.0053
vn 0.0002 -1 -0.0051
vn -0 -1 -0.0056
vn -0.0001 -1 -0.0056
vn -0 -1 -0.0055
vn -0 -1 -0.0055
vn -0 -1 -0.0056
vn -0 -1 -0.0055
vn -0 -1 -0.0056
vn 0.0002 -1 -0.0051
vn -0 -1 -0.0055
vn -0 -1 -0.0056
vn -0 -1 -0.0055
vn -0 -1 -0.0054
vn -0 -1 -0.0056
vn -0 -1 -0.0055
vn -0 -1 -0.0053
vn -0 -1 -0.0056
vn -0 -1 -0.0054
vn -0 -1 -0.0052
vn -0 -1 -0.0056
vn -0 -1 -0.0053
vn -0 -1 -0.0052
vn -0 -1 -0.0054
vn -0 -1 -0.0056
vn -0 -1 -0.0052
vn -0 -1 -0.0051
vn -0 -1 -0.0054
vn -0 -1 -0.0053
vn -0 -1 -0.0051
vn -0 -1 -0.0052
vn -0 -1 -0.0053
vn -0 -1 -0.0058
vn -0 -1 -0.0051
vn -0 -1 -0.0053
vn -0 -1 -0.0055
vn -0 -1 -0.0058
vn -0 -1 -0.0053
vn -0 -1 -0.0055
vn -0 -1 -0.0055
vn -0 -1 -0.0054
vn -0 -1 -0.0055
vn -0 -1 -0.0053
vn -0 -1 -0.0054
vn -0 -1 -0.0055
vn -0 -1 -0.0055
vn -0 -1 -0.0054
vn 0.0001 -1 -0.0057
vn -0 -1 -0.0055
vn 0.0001 -1 -0.0053
vn 0.0001 -1 -0.0057
vn -0 -1 -0.0054
vn 0.0001 -1 -0.0053
vn -0 -1 -0.0056
vn 0.0001 -1 -0.0057
vn 0.0001 -1 -0.0053
vn -0 -1 -0.0054
vn -0 -1 -0.0056
vn 0.0001 -1 -0.0053
vn -0 -1 -0.0056
vn -0 -1 -0.0054
vn 0.0002 -1 -0.0053
vn -0 -1 -0.0056
vn 0.0001 -1 -0.0053
vn 0.0002 -1 -0.0053
vn -0 -1 -0.0056
vn -0 -1 -0.0056
vn 0.7071 -0.0038 0.7071
vn 0.7064 0.0039 -0.7078
vn 0.7064 0.0039 -0.7078
vn 0.7071 -0.0038 0.7071
vn 0.7064 0.0039 -0.7078
vn 0.0573 0.0054 -0.9983
vn 0.0573 0.0054 -0.9983
vn 0.7064 0.0039 -0.7078
vn 0.0573 0.0054 -0.9983
vn 0.1796 0.0053 -0.9837
vn 0.1796 0.0053 -0.9837
vn 0.0573 0.0054 -0.9983
vn 0.1796 0.0053 -0.9837
vn 0.3066 0.0052 -0.9518
vn 0.3066 0.0052 -0.9518
vn 0.1796 0.0053 -0.9837
vn 0.3066 0.0052 -0.9518
vn 0.4343 0.0049 -0.9007
vn 0.4343 0.0049 -0.9007
vn 0.3066 0.0052 -0.9518
vn 0.4343 0.0049 -0.9007
vn 0.5582 0.0045 -0.8297
vn 0.5582 0.0045 -0.8297
vn 0.4343 0.0049 -0.9007
vn 0.5582 0.0045 -0.8297
vn 0.6729 0.0041 -0.7397
vn 0.6729 0.0041 -0.7397
vn 0.5582 0.0045 -0.8297
vn 0.6729 0.0041 -0.7397
vn 0.7735 0.0035 -0.6338
vn 0.7735 0.0035 -0.6338
vn 0.6729 0.0041 -0.7397
vn 0.7735 0.0035 -0.6338
vn 0.8571 0.0028 -0.5151
vn 0.8572 0.0028 -0.5151
vn 0.7735 0.0035 -0.6338
vn 0.8571 0.0028 -0.5151
vn 0.9216 0.0021 -0.3882
vn 0.9216 0.0021 -0.3882
vn 0.8572 0.0028 -0.5151
vn 0.9216 0.0021 -0.3882
vn 0.9662 0.0014 -0.2578
vn 0.9662 0.0014 -0.2578
vn 0.9216 0.0021 -0.3882
vn 0.9662 0.0014 -0.2578
vn 0.9919 0.0007 -0.1273
vn 0.9919 0.0007 -0.1273
vn 0.9662 0.0014 -0.2578
vn 0.9919 0.0007 -0.1273
vn 1 -0 -0.0002
vn 1 -0 -0.0002
vn 0.9919 0.0007 -0.1273
vn 1 -0 -0.0002
vn 0.992 -0.0007 0.1264
vn 0.992 -0.0007 0.1264
vn 1 -0 -0.0002
vn 0.992 -0.0007 0.1264
vn 0.9672 -0.0014 0.2541
vn 0.9672 -0.0014 0.2541
vn 0.992 -0.0007 0.1264
vn 0.9672 -0.0014 0.2541
vn 0.925 -0.0021 0.38
vn 0.925 -0.0021 0.38
vn 0.9672 -0.0014 0.2541
vn 0.925 -0.0021 0.38
vn 0.8654 -0.0027 0.5011
vn 0.8654 -0.0027 0.5012
vn 0.925 -0.0021 0.38
vn 0.8654 -0.0027 0.5011
vn 0.7895 -0.0033 0.6137
vn 0.7895 -0.0033 0.6137
vn 0.8654 -0.0027 0.5012
vn 0.7895 -0.0033 0.6137
vn 0.6992 -0.0038 0.7149
vn 0.6992 -0.0038 0.7149
vn 0.7895 -0.0033 0.6137
vn 0.6992 -0.0038 0.7149
vn 0.5966 -0.0043 0.8025
vn 0.5966 -0.0043 0.8025
vn 0.6992 -0.0038 0.7149
vn 0.5966 -0.0043 0.8025
vn 0.4846 -0.0047 0.8747
vn 0.4846 -0.0047 0.8747
vn 0.5966 -0.0043 0.8025
vn 0.4846 -0.0047 0.8747
vn 0.366 -0.0051 0.9306
vn 0.366 -0.0051 0.9306
vn 0.4846 -0.0047 0.8747
vn 0.366 -0.0051 0.9306
vn 0.2439 -0.0054 0.9698
vn 0.2439 -0.0054 0.9698
vn 0.366 -0.0051 0.9306
vn 0.2439 -0.0054 0.9698
vn 0.1211 -0.0053 0.9926
vn 0.1211 -0.0053 0.9926
vn 0.2439 -0.0054 0.9698
vn 0.1211 -0.0053 0.9926
vn 0.0211 -0.0053 0.9998
vn 0.0211 -0.0053 0.9998
vn 0.1211 -0.0053 0.9926
vn 0.0211 -0.0053 0.9998
vn -0.036 -0.0053 0.9993
vn -0.036 -0.0053 0.9993
vn 0.0211 -0.0053 0.9998
vn -0.036 -0.0053 0.9993
vn -0.0748 -0.0054 0.9972
vn -0.0748 -0.0054 0.9972
vn -0.036 -0.0053 0.9993
vn -0.0748 -0.0054 0.9972
vn -0.1164 -0.0054 0.9932
vn -0.1164 -0.0054 0.9932
vn -0.0748 -0.0054 0.9972
vn -0.1164 -0.0054 0.9932
vn -0.1596 -0.0054 0.9872
vn -0.1598 -0.0054 0.9871
vn -0.1164 -0.0054 0.9932
vn -0.1596 -0.0054 0.9872
vn -0.2035 -0.0053 0.9791
vn -0.2038 -0.0052 0.979
vn -0.1598 -0.0054 0.9871
vn -0.2035 -0.0053 0.9791
vn -0.2467 -0.0052 0.9691
vn -0.2467 -0.0052 0.9691
vn -0.2038 -0.0052 0.979
vn -0.2467 -0.0052 0.9691
vn -0.2886 -0.0052 0.9574
vn -0.2886 -0.0052 0.9574
vn -0.2467 -0.0052 0.9691
vn -0.2886 -0.0052 0.9574
vn -0.3283 -0.0051 0.9446
vn -0.328 -0.0052 0.9447
vn -0.2886 -0.0052 0.9574
vn -0.3283 -0.0051 0.9446
vn -0.3646 -0.0052 0.9311
vn -0.3646 -0.0052 0.9311
vn -0.328 -0.0052 0.9447
vn -0.3646 -0.0052 0.9311
vn -0.3976 -0.0051 0.9175
vn -0.3976 -0.0051 0.9175
vn -0.3646 -0.0052 0.9311
vn -0.3976 -0.0051 0.9175
vn -0.4269 -0.0049 0.9043
vn -0.4272 -0.0049 0.9041
vn -0.3976 -0.0051 0.9175
vn -0.4269 -0.0049 0.9043
vn -0.8486 -0.0029 0.529
vn -0.8488 -0.0029 0.5287
vn -0.4272 -0.0049 0.9041
vn -0.8486 -0.0029 0.529
vn -0.4786 0.0048 -0.878
vn -0.4786 0.0048 -0.878
vn -0.8488 -0.0029 0.5287
vn -0.4786 0.0048 -0.878
vn 0.5249 0.0046 -0.8511
vn 0.5249 0.0046 -0.8511
vn -0.4786 0.0048 -0.878
vn 0.5249 0.0046 -0.8511
vn 0.4888 0.0048 -0.8724
vn 0.4885 0.0049 -0.8725
vn 0.5249 0.0046 -0.8511
vn 0.4888 0.0048 -0.8724
vn 0.4503 0.0049 -0.8929
vn 0.4503 0.0049 -0.8929
vn 0.4885 0.0049 -0.8725
vn 0.4503 0.0049 -0.8929
vn 0.4088 0.005 -0.9126
vn 0.4089 0.005 -0.9126
vn 0.4503 0.0049 -0.8929
vn 0.4088 0.005 -0.9126
vn 0.3652 0.0051 -0.9309
vn 0.3655 0.005 -0.9308
vn 0.4089 0.005 -0.9126
vn 0.3652 0.0051 -0.9309
vn 0.3191 0.0051 -0.9477
vn 0.3192 0.0051 -0.9477
vn 0.3655 0.005 -0.9308
vn 0.3191 0.0051 -0.9477
vn 0.2699 0.0052 -0.9629
vn 0.2699 0.0052 -0.9629
vn 0.3192 0.0051 -0.9477
vn 0.2699 0.0052 -0.9629
vn 0.2191 0.0053 -0.9757
vn 0.2191 0.0053 -0.9757
vn 0.2699 0.0052 -0.9629
vn 0.2191 0.0053 -0.9757
vn 0.1661 0.0053 -0.9861
vn 0.1661 0.0053 -0.9861
vn 0.2191 0.0053 -0.9757
vn 0.1661 0.0053 -0.9861
vn 0.1121 0.0054 -0.9937
vn 0.1121 0.0054 -0.9937
vn 0.1661 0.0053 -0.9861
vn 0.1121 0.0054 -0.9937
vn 0.0565 0.0054 -0.9984
vn 0.0568 0.0054 -0.9984
vn 0.1121 0.0054 -0.9937
vn 0.0565 0.0054 -0.9984
vn -0.0159 0.0054 -0.9999
vn -0.0159 0.0054 -0.9999
vn 0.0568 0.0054 -0.9984
vn -0.0159 0.0054 -0.9999
vn -0.12 0.0054 -0.9928
vn -0.12 0.0054 -0.9928
vn -0.0159 0.0054 -0.9999
vn -0.12 0.0054 -0.9928
vn -0.237 0.0054 -0.9715
vn -0.237 0.0054 -0.9715
vn -0.12 0.0054 -0.9928
vn -0.237 0.0054 -0.9715
vn -0.3501 0.0052 -0.9367
vn -0.35 0.0052 -0.9367
vn -0.237 0.0054 -0.9715
vn -0.3501 0.0052 -0.9367
vn -0.4586 0.0048 -0.8886
vn -0.4585 0.0048 -0.8887
vn -0.35 0.0052 -0.9367
vn -0.4586 0.0048 -0.8886
vn -0.5612 0.0045 -0.8277
vn -0.5612 0.0045 -0.8276
vn -0.4585 0.0048 -0.8887
vn -0.5612 0.0045 -0.8277
vn -0.658 0.0041 -0.753
vn -0.658 0.0041 -0.753
vn -0.5612 0.0045 -0.8276
vn -0.658 0.0041 -0.753
vn -0.7481 0.0035 -0.6636
vn -0.7481 0.0035 -0.6636
vn -0.658 0.0041 -0.753
vn -0.7481 0.0035 -0.6636
vn -0.8287 0.0031 -0.5597
vn -0.8286 0.0032 -0.5599
vn -0.7481 0.0035 -0.6636
vn -0.8287 0.0031 -0.5597
vn -0.8982 0.0024 -0.4396
vn -0.8982 0.0024 -0.4396
vn -0.8286 0.0032 -0.5599
vn -0.8982 0.0024 -0.4396
vn -0.9525 0.0017 -0.3045
vn -0.9525 0.0017 -0.3045
vn -0.8982 0.0024 -0.4396
vn -0.9525 0.0017 -0.3045
vn -0.9878 0.0008 -0.156
vn -0.9878 0.0008 -0.156
vn -0.9525 0.0017 -0.3045
vn -0.9878 0.0008 -0.156
vn -1 -0 0.0038
vn -1 -0 0.0038
vn -0.9878 0.0008 -0.156
vn -1 -0 0.0038
vn -0.9849 -0.001 0.1733
vn -0.9849 -0.001 0.1733
vn -1 -0 0.0038
vn -0.9849 -0.001 0.1733
vn -0.9385 -0.0019 0.3451
vn -0.9385 -0.0019 0.3452
vn -0.9849 -0.001 0.1733
vn -0.9385 -0.0019 0.3451
vn -0.8617 -0.0028 0.5075
vn -0.8617 -0.0028 0.5075
vn -0.9385 -0.0019 0.3452
vn -0.8617 -0.0028 0.5075
vn -0.7582 -0.0036 0.652
vn -0.7582 -0.0036 0.652
vn -0.8617 -0.0028 0.5075
vn -0.7582 -0.0036 0.652
vn -0.635 -0.0043 0.7725
vn -0.635 -0.0043 0.7725
vn -0.7582 -0.0036 0.652
vn -0.635 -0.0043 0.7725
vn -0.5001 -0.0048 0.8659
vn -0.5001 -0.0048 0.8659
vn -0.635 -0.0043 0.7725
vn -0.5001 -0.0048 0.8659
vn -0.3612 -0.005 0.9325
vn -0.3609 -0.0052 0.9326
vn -0.5001 -0.0048 0.8659
vn -0.3612 -0.005 0.9325
vn -0.2242 -0.0052 0.9745
vn -0.2242 -0.0052 0.9745
vn -0.3609 -0.0052 0.9326
vn -0.2242 -0.0052 0.9745
vn -0.0945 -0.0053 0.9955
vn -0.0946 -0.0053 0.9955
vn -0.2242 -0.0052 0.9745
vn -0.0945 -0.0053 0.9955
vn 0.0255 -0.0053 0.9997
vn 0.0255 -0.0053 0.9997
vn -0.0946 -0.0053 0.9955
vn 0.0255 -0.0053 0.9997
vn 0.1349 -0.0053 0.9909
vn 0.1348 -0.0053 0.9909
vn 0.0255 -0.0053 0.9997
vn 0.1349 -0.0053 0.9909
vn -0.6379 -0.0041 0.7701
vn -0.638 -0.0042 0.77
vn 0.1348 -0.0053 0.9909
vn -0.6379 -0.0041 0.7701
vn -0.7071 0.004 -0.7071
vn -0.7071 0.004 -0.7071
vn -0.638 -0.0042 0.77
vn -0.7071 0.004 -0.7071
vn 0.7071 0.0039 -0.7071
vn 0.7071 0.0039 -0.7071
vn -0.7071 0.004 -0.7071
vn 0.7071 0.0039 -0.7071
vn 0.7071 -0.0043 0.7071
vn 0.7071 -0.0038 0.7071
vn 0.7071 0.0039 -0.7071
vn 0.7071 -0.0043 0.7071
vn 0.7071 -0.0038 0.7071
vn 0.7071 -0.0038 0.7071
vn 0.7071 -0.0038 0.7071
vt 0.961039 1
vt 0 1
vt 0.974026 1
vt 0 1
vt 0.987013 1
vt 0.974026 1
vt 0 1
vt 1 1
vt 0.987013 1
vt 0.961039 1
vt 0.012987 1
vt 0 1
vt 0.012987 1
vt 0.038961 1
vt 0.025974 1
vt 0.961039 1
vt 0.038961 1
vt 0.012987 1
vt 0.961039 1
vt 0.051948 1
vt 0.038961 1
vt 0.961039 1
vt 0.064935 1
vt 0.051948 1
vt 0.961039 1
vt 0.077922 1
vt 0.064935 1
vt 0.961039 1
vt 0.948052 1
vt 0.077922 1
vt 0.948052 1
vt 0.090909 1
vt 0.077922 1
vt 0.948052 1
vt 0.935065 1
vt 0.090909 1
vt 0.935065 1
vt 0.103896 1
vt 0.090909 1
vt 0.935065 1
vt 0.922078 1
vt 0.103896 1
vt 0.922078 1
vt 0.116883 1
vt 0.103896 1
vt 0.909091 1
vt 0.116883 1
vt 0.922078 1
vt 0.896104 1
vt 0.116883 1
vt 0.909091 1
vt 0.883117 1
vt 0.116883 1
vt 0.896104 1
vt 0.883117 1
vt 0.12987 1
vt 0.116883 1
vt 0.87013 1
vt 0.12987 1
vt 0.883117 1
vt 0.857143 1
vt 0.12987 1
vt 0.87013 1
vt 0.857143 1
vt 0.142857 1
vt 0.12987 1
vt 0.844156 1
vt 0.142857 1
vt 0.857143 1
vt 0.844156 1
vt 0.155844 1
vt 0.142857 1
vt 0.831169 1
vt 0.155844 1
vt 0.844156 1
vt 0.818182 1
vt 0.155844 1
vt 0.831169 1
vt 0.818182 1
vt 0.168831 1
vt 0.155844 1
vt 0.805195 1
vt 0.168831 1
vt 0.818182 1
vt 0.805195 1
vt 0.181818 1
vt 0.168831 1
vt 0.792208 1
vt 0.181818 1
vt 0.805195 1
vt 0.779221 1
vt 0.181818 1
vt 0.792208 1
vt 0.779221 1
vt 0.194805 1
vt 0.181818 1
vt 0.766234 1
vt 0.194805 1
vt 0.779221 1
vt 0.753247 1
vt 0.194805 1
vt 0.766234 1
vt 0.753247 1
vt 0.207792 1
vt 0.194805 1
vt 0.74026 1
vt 0.207792 1
vt 0.753247 1
vt 0.480519 1
vt 0.506494 1
vt 0.493506 1
vt 0.727273 1
vt 0.207792 1
vt 0.74026 1
vt 0.480519 1
vt 0.519481 1
vt 0.506494 1
vt 0.727273 1
vt 0.220779 1
vt 0.207792 1
vt 0.714286 1
vt 0.220779 1
vt 0.727273 1
vt 0.480519 1
vt 0.532468 1
vt 0.519481 1
vt 0.480519 1
vt 0.545455 1
vt 0.532468 1
vt 0.701299 1
vt 0.220779 1
vt 0.714286 1
vt 0.480519 1
vt 0.558442 1
vt 0.545455 1
vt 0.480519 1
vt 0.571429 1
vt 0.558442 1
vt 0.688312 1
vt 0.220779 1
vt 0.701299 1
vt 0.480519 1
vt 0.584416 1
vt 0.571429 1
vt 0.688312 1
vt 0.233766 1
vt 0.220779 1
vt 0.675325 1
vt 0.233766 1
vt 0.688312 1
vt 0.480519 1
vt 0.597403 1
vt 0.584416 1
vt 0.480519 1
vt 0.61039 1
vt 0.597403 1
vt 0.662338 1
vt 0.233766 1
vt 0.675325 1
vt 0.480519 1
vt 0.623377 1
vt 0.61039 1
vt 0.480519 1
vt 0.636364 1
vt 0.623377 1
vt 0.649351 1
vt 0.233766 1
vt 0.662338 1
vt 0.480519 1
vt 0.649351 1
vt 0.636364 1
vt 0.480519 1
vt 0.233766 1
vt 0.649351 1
vt 0.480519 1
vt 0.246753 1
vt 0.233766 1
vt 0.480519 1
vt 0.25974 1
vt 0.246753 1
vt 0.480519 1
vt 0.272727 1
vt 0.25974 1
vt 0.467532 1
vt 0.272727 1
vt 0.480519 1
vt 0.454545 1
vt 0.272727 1
vt 0.467532 1
vt 0.454545 1
vt 0.285714 1
vt 0.272727 1
vt 0.441558 1
vt 0.285714 1
vt 0.454545 1
vt 0.428571 1
vt 0.285714 1
vt 0.441558 1
vt 0.415584 1
vt 0.285714 1
vt 0.428571 1
vt 0.415584 1
vt 0.298701 1
vt 0.285714 1
vt 0.402597 1
vt 0.298701 1
vt 0.415584 1
vt 0.38961 1
vt 0.298701 1
vt 0.402597 1
vt 0.38961 1
vt 0.311688 1
vt 0.298701 1
vt 0.376623 1
vt 0.311688 1
vt 0.38961 1
vt 0.363636 1
vt 0.311688 1
vt 0.376623 1
vt 0.350649 1
vt 0.311688 1
vt 0.363636 1
vt 0.350649 1
vt 0.324675 1
vt 0.311688 1
vt 0.337662 1
vt 0.324675 1
vt 0.350649 1
vt 0 1
vt 0.961039 1
vt 0.974026 1
vt 0.987013 1
vt 0 1
vt 0.974026 1
vt 1 1
vt 0 1
vt 0.987013 1
vt 0.012987 1
vt 0.961039 1
vt 0 1
vt 0.038961 1
vt 0.012987 1
vt 0.025974 1
vt 0.038961 1
vt 0.961039 1
vt 0.012987 1
vt 0.051948 1
vt 0.961039 1
vt 0.038961 1
vt 0.064935 1
vt 0.961039 1
vt 0.051948 1
vt 0.077922 1
vt 0.961039 1
vt 0.064935 1
vt 0.948052 1
vt 0.961039 1
vt 0.077922 1
vt 0.090909 1
vt 0.948052 1
vt 0.077922 1
vt 0.935065 1
vt 0.948052 1
vt 0.090909 1
vt 0.103896 1
vt 0.935065 1
vt 0.090909 1
vt 0.922078 1
vt 0.935065 1
vt 0.103896 1
vt 0.116883 1
vt 0.922078 1
vt 0.103896 1
vt 0.116883 1
vt 0.909091 1
vt 0.922078 1
vt 0.116883 1
vt 0.896104 1
vt 0.909091 1
vt 0.116883 1
vt 0.883117 1
vt 0.896104 1
vt 0.12987 1
vt 0.883117 1
vt 0.116883 1
vt 0.12987 1
vt 0.87013 1
vt 0.883117 1
vt 0.12987 1
vt 0.857143 1
vt 0.87013 1
vt 0.142857 1
vt 0.857143 1
vt 0.12987 1
vt 0.142857 1
vt 0.844156 1
vt 0.857143 1
vt 0.155844 1
vt 0.844156 1
vt 0.142857 1
vt 0.155844 1
vt 0.831169 1
vt 0.844156 1
vt 0.155844 1
vt 0.818182 1
vt 0.831169 1
vt 0.168831 1
vt 0.818182 1
vt 0.155844 1
vt 0.168831 1
vt 0.805195 1
vt 0.818182 1
vt 0.181818 1
vt 0.805195 1
vt 0.168831 1
vt 0.181818 1
vt 0.792208 1
vt 0.805195 1
vt 0.181818 1
vt 0.779221 1
vt 0.792208 1
vt 0.194805 1
vt 0.779221 1
vt 0.181818 1
vt 0.194805 1
vt 0.766234 1
vt 0.779221 1
vt 0.194805 1
vt 0.753247 1
vt 0.766234 1
vt 0.207792 1
vt 0.753247 1
vt 0.194805 1
vt 0.207792 1
vt 0.74026 1
vt 0.753247 1
vt 0.506494 1
vt 0.480519 1
vt 0.493506 1
vt 0.207792 1
vt 0.727273 1
vt 0.74026 1
vt 0.519481 1
vt 0.480519 1
vt 0.506494 1
vt 0.220779 1
vt 0.727273 1
vt 0.207792 1
vt 0.220779 1
vt 0.714286 1
vt 0.727273 1
vt 0.532468 1
vt 0.480519 1
vt 0.519481 1
vt 0.545455 1
vt 0.480519 1
vt 0.532468 1
vt 0.220779 1
vt 0.701299 1
vt 0.714286 1
vt 0.558442 1
vt 0.480519 1
vt 0.545455 1
vt 0.571429 1
vt 0.480519 1
vt 0.558442 1
vt 0.220779 1
vt 0.688312 1
vt 0.701299 1
vt 0.584416 1
vt 0.480519 1
vt 0.571429 1
vt 0.233766 1
vt 0.688312 1
vt 0.220779 1
vt 0.233766 1
vt 0.675325 1
vt 0.688312 1
vt 0.597403 1
vt 0.480519 1
vt 0.584416 1
vt 0.61039 1
vt 0.480519 1
vt 0.597403 1
vt 0.233766 1
vt 0.662338 1
vt 0.675325 1
vt 0.623377 1
vt 0.480519 1
vt 0.61039 1
vt 0.636364 1
vt 0.480519 1
vt 0.623377 1
vt 0.233766 1
vt 0.649351 1
vt 0.662338 1
vt 0.649351 1
vt 0.480519 1
vt 0.636364 1
vt 0.233766 1
vt 0.480519 1
vt 0.649351 1
vt 0.246753 1
vt 0.480519 1
vt 0.233766 1
vt 0.25974 1
vt 0.480519 1
vt 0.246753 1
vt 0.272727 1
vt 0.480519 1
vt 0.25974 1
vt 0.272727 1
vt 0.467532 1
vt 0.480519 1
vt 0.272727 1
vt 0.454545 1
vt 0.467532 1
vt 0.285714 1
vt 0.454545 1
vt 0.272727 1
vt 0.285714 1
vt 0.441558 1
vt 0.454545 1
vt 0.285714 1
vt 0.428571 1
vt 0.441558 1
vt 0.285714 1
vt 0.415584 1
vt 0.428571 1
vt 0.298701 1
vt 0.415584 1
vt 0.285714 1
vt 0.298701 1
vt 0.402597 1
vt 0.415584 1
vt 0.298701 1
vt 0.38961 1
vt 0.402597 1
vt 0.311688 1
vt 0.38961 1
vt 0.298701 1
vt 0.311688 1
vt 0.376623 1
vt 0.38961 1
vt 0.311688 1
vt 0.363636 1
vt 0.376623 1
vt 0.311688 1
vt 0.350649 1
vt 0.363636 1
vt 0.324675 1
vt 0.350649 1
vt 0.311688 1
vt 0.324675 1
vt 0.337662 1
vt 0.350649 1
vt 0 0
vt 0.012821 0
vt 0.012821 1
vt 0 1
vt 0.012821 0
vt 0.025641 0
vt 0.025641 1
vt 0.012821 1
vt 0.025641 0
vt 0.038462 0
vt 0.038462 1
vt 0.025641 1
vt 0.038462 0
vt 0.051282 0
vt 0.051282 1
vt 0.038462 1
vt 0.051282 0
vt 0.064103 0
vt 0.064103 1
vt 0.051282 1
vt 0.064103 0
vt 0.076923 0
vt 0.076923 1
vt 0.064103 1
vt 0.076923 0
vt 0.089744 0
vt 0.089744 1
vt 0.076923 1
vt 0.089744 0
vt 0.102564 0
vt 0.102564 1
vt 0.089744 1
vt 0.102564 0
vt 0.115385 0
vt 0.115385 1
vt 0.102564 1
vt 0.115385 0
vt 0.128205 0
vt 0.128205 1
vt 0.115385 1
vt 0.128205 0
vt 0.141026 0
vt 0.141026 1
vt 0.128205 1
vt 0.141026 0
vt 0.153846 0
vt 0.153846 1
vt 0.141026 1
vt 0.153846 0
vt 0.166667 0
vt 0.166667 1
vt 0.153846 1
vt 0.166667 0
vt 0.179487 0
vt 0.179487 1
vt 0.166667 1
vt 0.179487 0
vt 0.192308 0
vt 0.192308 1
vt 0.179487 1
vt 0.192308 0
vt 0.205128 0
vt 0.205128 1
vt 0.192308 1
vt 0.205128 0
vt 0.217949 0
vt 0.217949 1
vt 0.205128 1
vt 0.217949 0
vt 0.230769 0
vt 0.230769 1
vt 0.217949 1
vt 0.230769 0
vt 0.24359 0
vt 0.24359 1
vt 0.230769 1
vt 0.24359 0
vt 0.25641 0
vt 0.25641 1
vt 0.24359 1
vt 0.25641 0
vt 0.269231 0
vt 0.269231 1
vt 0.25641 1
vt 0.269231 0
vt 0.282051 0
vt 0.282051 1
vt 0.269231 1
vt 0.282051 0
vt 0.294872 0
vt 0.294872 1
vt 0.282051 1
vt 0.294872 0
vt 0.307692 0
vt 0.307692 1
vt 0.294872 1
vt 0.307692 0
vt 0.320513 0
vt 0.320513 1
vt 0.307692 1
vt 0.320513 0
vt 0.333333 0
vt 0.333333 1
vt 0.320513 1
vt 0.333333 0
vt 0.346154 0
vt 0.346154 1
vt 0.333333 1
vt 0.346154 0
vt 0.358974 0
vt 0.358974 1
vt 0.346154 1
vt 0.358974 0
vt 0.371795 0
vt 0.371795 1
vt 0.358974 1
vt 0.371795 0
vt 0.384615 0
vt 0.384615 1
vt 0.371795 1
vt 0.384615 0
vt 0.397436 0
vt 0.397436 1
vt 0.384615 1
vt 0.397436 0
vt 0.410256 0
vt 0.410256 1
vt 0.397436 1
vt 0.410256 0
vt 0.423077 0
vt 0.423077 1
vt 0.410256 1
vt 0.423077 0
vt 0.435897 0
vt 0.435897 1
vt 0.423077 1
vt 0.435897 0
vt 0.448718 0
vt 0.448718 1
vt 0.435897 1
vt 0.448718 0
vt 0.461538 0
vt 0.461538 1
vt 0.448718 1
vt 0.461538 0
vt 0.474359 0
vt 0.474359 1
vt 0.461538 1
vt 0.474359 0
vt 0.487179 0
vt 0.487179 1
vt 0.474359 1
vt 0.487179 0
vt 0.5 0
vt 0.5 1
vt 0.487179 1
vt 0.5 0
vt 0.512821 0
vt 0.512821 1
vt 0.5 1
vt 0.512821 0
vt 0.525641 0
vt 0.525641 1
vt 0.512821 1
vt 0.525641 0
vt 0.538462 0
vt 0.538462 1
vt 0.525641 1
vt 0.538462 0
vt 0.551282 0
vt 0.551282 1
vt 0.538462 1
vt 0.551282 0
vt 0.564103 0
vt 0.564103 1
vt 0.551282 1
vt 0.564103 0
vt 0.576923 0
vt 0.576923 1
vt 0.564103 1
vt 0.576923 0
vt 0.589744 0
vt 0.589744 1
vt 0.576923 1
vt 0.589744 0
vt 0.602564 0
vt 0.602564 1
vt 0.589744 1
vt 0.602564 0
vt 0.615385 0
vt 0.615385 1
vt 0.602564 1
vt 0.615385 0
vt 0.628205 0
vt 0.628205 1
vt 0.615385 1
vt 0.628205 0
vt 0.641026 0
vt 0.641026 1
vt 0.628205 1
vt 0.641026 0
vt 0.653846 0
vt 0.653846 1
vt 0.641026 1
vt 0.653846 0
vt 0.666667 0
vt 0.666667 1
vt 0.653846 1
vt 0.666667 0
vt 0.679487 0
vt 0.679487 1
vt 0.666667 1
vt 0.679487 0
vt 0.692308 0
vt 0.692308 1
vt 0.679487 1
vt 0.692308 0
vt 0.705128 0
vt 0.705128 1
vt 0.692308 1
vt 0.705128 0
vt 0.717949 0
vt 0.717949 1
vt 0.705128 1
vt 0.717949 0
vt 0.730769 0
vt 0.730769 1
vt 0.717949 1
vt 0.730769 0
vt 0.74359 0
vt 0.74359 1
vt 0.730769 1
vt 0.74359 0
vt 0.75641 0
vt 0.75641 1
vt 0.74359 1
vt 0.75641 0
vt 0.769231 0
vt 0.769231 1
vt 0.75641 1
vt 0.769231 0
vt 0.782051 0
vt 0.782051 1
vt 0.769231 1
vt 0.782051 0
vt 0.794872 0
vt 0.794872 1
vt 0.782051 1
vt 0.794872 0
vt 0.807692 0
vt 0.807692 1
vt 0.794872 1
vt 0.807692 0
vt 0.820513 0
vt 0.820513 1
vt 0.807692 1
vt 0.820513 0
vt 0.833333 0
vt 0.833333 1
vt 0.820513 1
vt 0.833333 0
vt 0.846154 0
vt 0.846154 1
vt 0.833333 1
vt 0.846154 0
vt 0.858974 0
vt 0.858974 1
vt 0.846154 1
vt 0.858974 0
vt 0.871795 0
vt 0.871795 1
vt 0.858974 1
vt 0.871795 0
vt 0.884615 0
vt 0.884615 1
vt 0.871795 1
vt 0.884615 0
vt 0.897436 0
vt 0.897436 1
vt 0.884615 1
vt 0.897436 0
vt 0.910256 0
vt 0.910256 1
vt 0.897436 1
vt 0.910256 0
vt 0.923077 0
vt 0.923077 1
vt 0.910256 1
vt 0.923077 0
vt 0.935897 0
vt 0.935897 1
vt 0.923077 1
vt 0.935897 0
vt 0.948718 0
vt 0.948718 1
vt 0.935897 1
vt 0.948718 0
vt 0.961538 0
vt 0.961538 1
vt 0.948718 1
vt 0.961538 0
vt 0.974359 0
vt 0.974359 1
vt 0.961538 1
vt 0.974359 0
vt 0.987179 0
vt 0.987179 1
vt 0.974359 1
vt 0.987179 0
vt 1 0
vt 1 1
vt 0.987179 1
s off
f 1/1/1 2/2/2 3/3/3
f 4/4/4 5/5/5 6/6/6
f 7/7/7 8/8/8 9/9/9
f 10/10/10 11/11/11 12/12/12
f 13/13/13 14/14/14 15/15/15
f 16/16/16 17/17/17 18/18/18
f 19/19/19 20/20/20 21/21/21
f 22/22/22 23/23/23 24/24/24
f 25/25/25 26/26/26 27/27/27
f 28/28/28 29/29/29 30/30/30
f 31/31/31 32/32/32 33/33/33
f 34/34/34 35/35/35 36/36/36
f 37/37/37 38/38/38 39/39/39
f 40/40/40 41/41/41 42/42/42
f 43/43/43 44/44/44 45/45/45
f 46/46/46 47/47/47 48/48/48
f 49/49/49 50/50/50 51/51/51
f 52/52/52 53/53/53 54/54/54
f 55/55/55 56/56/56 57/57/57
f 58/58/58 59/59/59 60/60/60
f 61/61/61 62/62/62 63/63/63
f 64/64/64 65/65/65 66/66/66
f 67/67/67 68/68/68 69/69/69
f 70/70/70 71/71/71 72/72/72
f 73/73/73 74/74/74 75/75/75
f 76/76/76 77/77/77 78/78/78
f 79/79/79 80/80/80 81/81/81
f 82/82/82 83/83/83 84/84/84
f 85/85/85 86/86/86 87/87/87
f 88/88/88 89/89/89 90/90/90
f 91/91/91 92/92/92 93/93/93
f 94/94/94 95/95/95 96/96/96
f 97/97/97 98/98/98 99/99/99
f 100/100/100 101/101/101 102/102/102
f 103/103/103 104/104/104 105/105/105
f 106/106/106 107/107/107 108/108/108
f 109/109/109 110/110/110 111/111/111
f 112/112/112 113/113/113 114/114/114
f 115/115/115 116/116/116 117/117/117
f 118/118/118 119/119/119 120/120/120
f 121/121/121 122/122/122 123/123/123
f 124/124/124 125/125/125 126/126/126
f 127/127/127 128/128/128 129/129/129
f 130/130/130 131/131/131 132/132/132
f 133/133/133 134/134/134 135/135/135
f 136/136/136 137/137/137 138/138/138
f 139/139/139 140/140/140 141/141/141
f 142/142/142 143/143/143 144/144/144
f 145/145/145 146/146/146 147/147/147
f 148/148/148 149/149/149 150/150/150
f 151/151/151 152/152/152 153/153/153
f 154/154/154 155/155/155 156/156/156
f 157/157/157 158/158/158 159/159/159
f 160/160/160 161/161/161 162/162/162
f 163/163/163 164/164/164 165/165/165
f 166/166/166 167/167/167 168/168/168
f 169/169/169 170/170/170 171/171/171
f 172/172/172 173/173/173 174/174/174
f 175/175/175 176/176/176 177/177/177
f 178/178/178 179/179/179 180/180/180
f 181/181/181 182/182/182 183/183/183
f 184/184/184 185/185/185 186/186/186
f 187/187/187 188/188/188 189/189/189
f 190/190/190 191/191/191 192/192/192
f 193/193/193 194/194/194 195/195/195
f 196/196/196 197/197/197 198/198/198
f 199/199/199 200/200/200 201/201/201
f 202/202/202 203/203/203 204/204/204
f 205/205/205 206/206/206 207/207/207
f 208/208/208 209/209/209 210/210/210
f 211/211/211 212/212/212 213/213/213
f 214/214/214 215/215/215 216/216/216
f 217/217/217 218/218/218 219/219/219
f 220/220/220 221/221/221 222/222/222
f 223/223/223 224/224/224 225/225/225
f 226/226/226 227/227/227 228/228/228
f 229/229/229 230/230/230 231/231/231
f 232/232/232 233/233/233 234/234/234
f 235/235/235 236/236/236 237/237/237
f 238/238/238 239/239/239 240/240/240
f 241/241/241 242/242/242 243/243/243
f 244/244/244 245/245/245 246/246/246
f 247/247/247 248/248/248 249/249/249
f 250/250/250 251/251/251 252/252/252
f 253/253/253 254/254/254 255/255/255
f 256/256/256 257/257/257 258/258/258
f 259/259/259 260/260/260 261/261/261
f 262/262/262 263/263/263 264/264/264
f 265/265/265 266/266/266 267/267/267
f 268/268/268 269/269/269 270/270/270
f 271/271/271 272/272/272 273/273/273
f 274/274/274 275/275/275 276/276/276
f 277/277/277 278/278/278 279/279/279
f 280/280/280 281/281/281 282/282/282
f 283/283/283 284/284/284 285/285/285
f 286/286/286 287/287/287 288/288/288
f 289/289/289 290/290/290 291/291/291
f 292/292/292 293/293/293 294/294/294
f 295/295/295 296/296/296 297/297/297
f 298/298/298 299/299/299 300/300/300
f 301/301/301 302/302/302 303/303/303
f 304/304/304 305/305/305 306/306/306
f 307/307/307 308/308/308 309/309/309
f 310/310/310 311/311/311 312/312/312
f 313/313/313 314/314/314 315/315/315
f 316/316/316 317/317/317 318/318/318
f 319/319/319 320/320/320 321/321/321
f 322/322/322 323/323/323 324/324/324
f 325/325/325 326/326/326 327/327/327
f 328/328/328 329/329/329 330/330/330
f 331/331/331 332/332/332 333/333/333
f 334/334/334 335/335/335 336/336/336
f 337/337/337 338/338/338 339/339/339
f 340/340/340 341/341/341 342/342/342
f 343/343/343 344/344/344 345/345/345
f 346/346/346 347/347/347 348/348/348
f 349/349/349 350/350/350 351/351/351
f 352/352/352 353/353/353 354/354/354
f 355/355/355 356/356/356 357/357/357
f 358/358/358 359/359/359 360/360/360
f 361/361/361 362/362/362 363/363/363
f 364/364/364 365/365/365 366/366/366
f 367/367/367 368/368/368 369/369/369
f 370/370/370 371/371/371 372/372/372
f 373/373/373 374/374/374 375/375/375
f 376/376/376 377/377/377 378/378/378
f 379/379/379 380/380/380 381/381/381
f 382/382/382 383/383/383 384/384/384
f 385/385/385 386/386/386 387/387/387
f 388/388/388 389/389/389 390/390/390
f 391/391/391 392/392/392 393/393/393
f 394/394/394 395/395/395 396/396/396
f 397/397/397 398/398/398 399/399/399
f 400/400/400 401/401/401 402/402/402
f 403/403/403 404/404/404 405/405/405
f 406/406/406 407/407/407 408/408/408
f 409/409/409 410/410/410 411/411/411
f 412/412/412 413/413/413 414/414/414
f 415/415/415 416/416/416 417/417/417
f 418/418/418 419/419/419 420/420/420
f 421/421/421 422/422/422 423/423/423
f 424/424/424 425/425/425 426/426/426
f 427/427/427 428/428/428 429/429/429
f 430/430/430 431/431/431 432/432/432
f 433/433/433 434/434/434 435/435/435
f 436/436/436 437/437/437 438/438/438
f 439/439/439 440/440/440 441/441/441
f 442/442/442 443/443/443 444/444/444
f 445/445/445 446/446/446 447/447/447
f 448/448/448 449/449/449 450/450/450
f 451/451/451 452/452/452 453/453/453
f 454/454/454 455/455/455 456/456/456
f 457/457/457 458/458/458 459/459/459
f 457/457/457 459/459/459 460/460/460
f 461/461/461 462/462/462 463/463/463
f 461/461/461 463/463/463 464/464/464
f 465/465/465 466/466/466 467/467/467
f 465/465/465 467/467/467 468/468/468
f 469/469/469 470/470/470 471/471/471
f 469/469/469 471/471/471 472/472/472
f 473/473/473 474/474/474 475/475/475
f 473/473/473 475/475/475 476/476/476
f 477/477/477 478/478/478 479/479/479
f 477/477/477 479/479/479 480/480/480
f 481/481/481 482/482/482 483/483/483
f 481/481/481 483/483/483 484/484/484
f 485/485/485 486/486/486 487/487/487
f 485/485/485 487/487/487 488/488/488
f 489/489/489 490/490/490 491/491/491
f 489/489/489 491/491/491 492/492/492
f 493/493/493 494/494/494 495/495/495
f 493/493/493 495/495/495 496/496/496
f 497/497/497 498/498/498 499/499/499
f 497/497/497 499/499/499 500/500/500
f 501/501/501 502/502/502 503/503/503
f 501/501/501 503/503/503 504/504/504
f 505/505/505 506/506/506 507/507/507
f 505/505/505 507/507/507 508/508/508
f 509/509/509 510/510/510 511/511/511
f 509/509/509 511/511/511 512/512/512
f 513/513/513 514/514/514 515/515/515
f 513/513/513 515/515/515 516/516/516
f 517/517/517 518/518/518 519/519/519
f 517/517/517 519/519/519 520/520/520
f 521/521/521 522/522/522 523/523/523
f 521/521/521 523/523/523 524/524/524
f 525/525/525 526/526/526 527/527/527
f 525/525/525 527/527/527 528/528/528
f 529/529/529 530/530/530 531/531/531
f 529/529/529 531/531/531 532/532/532
f 533/533/533 534/534/534 535/535/535
f 533/533/533 535/535/535 536/536/536
f 537/537/537 538/538/538 539/539/539
f 537/537/537 539/539/539 540/540/540
f 541/541/541 542/542/542 543/543/543
f 541/541/541 543/543/543 544/544/544
f 545/545/545 546/546/546 547/547/547
f 545/545/545 547/547/547 548/548/548
f 549/549/549 550/550/550 551/551/551
f 549/549/549 551/551/551 552/552/552
f 553/553/553 554/554/554 555/555/555
f 553/553/553 555/555/555 556/556/556
f 557/557/557 558/558/558 559/559/559
f 557/557/557 559/559/559 560/560/560
f 561/561/561 562/562/562 563/563/563
f 561/561/561 563/563/563 564/564/564
f 565/565/565 566/566/566 567/567/567
f 565/565/565 567/567/567 568/568/568
f 569/569/569 570/570/570 571/571/571
f 569/569/569 571/571/571 572/572/572
f 573/573/573 574/574/574 575/575/575
f 573/573/573 575/575/575 576/576/576
f 577/577/577 578/578/578 579/579/579
f 577/577/577 579/579/579 580/580/580
f 581/581/581 582/582/582 583/583/583
f 581/581/581 583/583/583 584/584/584
f 585/585/585 586/586/586 587/587/587
f 585/585/585 587/587/587 588/588/588
f 589/589/589 590/590/590 591/591/591
f 589/589/589 591/591/591 592/592/592
f 593/593/593 594/594/594 595/595/595
f 593/593/593 595/595/595 596/596/596
f 597/597/597 598/598/598 599/599/599
f 597/597/597 599/599/599 600/600/600
f 601/601/601 602/602/602 603/603/603
f 601/601/601 603/603/603 604/604/604
f 605/605/605 606/606/606 607/607/607
f 605/605/605 607/607/607 608/608/608
f 609/609/609 610/610/610 611/611/611
f 609/609/609 611/611/611 612/612/612
f 613/613/613 614/614/614 615/615/615
f 613/613/613 615/615/615 616/616/616
f 617/617/617 618/618/618 619/619/619
f 617/617/617 619/619/619 620/620/620
f 621/621/621 622/622/622 623/623/623
f 621/621/621 623/623/623 624/624/624
f 625/625/625 626/626/626 627/627/627
f 625/625/625 627/627/627 628/628/628
f 629/629/629 630/630/630 631/631/631
f 629/629/629 631/631/631 632/632/632
f 633/633/633 634/634/634 635/635/635
f 633/633/633 635/635/635 636/636/636
f 637/637/637 638/638/638 639/639/639
f 637/637/637 639/639/639 640/640/640
f 641/641/641 642/642/642 643/643/643
f 641/641/641 643/643/643 644/644/644
f 645/645/645 646/646/646 647/647/647
f 645/645/645 647/647/647 648/648/648
f 649/649/649 650/650/650 651/651/651
f 649/649/649 651/651/651 652/652/652
f 653/653/653 654/654/654 655/655/655
f 653/653/653 655/655/655 656/656/656
f 657/657/657 658/658/658 659/659/659
f 657/657/657 659/659/659 660/660/660
f 661/661/661 662/662/662 663/663/663
f 661/661/661 663/663/663 664/664/664
f 665/665/665 666/666/666 667/667/667
f 665/665/665 667/667/667 668/668/668
f 669/669/669 670/670/670 671/671/671
f 669/669/669 671/671/671 672/672/672
f 673/673/673 674/674/674 675/675/675
f 673/673/673 675/675/675 676/676/676
f 677/677/677 678/678/678 679/679/679
f 677/677/677 679/679/679 680/680/680
f 681/681/681 682/682/682 683/683/683
f 681/681/681 683/683/683 684/684/684
f 685/685/685 686/686/686 687/687/687
f 685/685/685 687/687/687 688/688/688
f 689/689/689 690/690/690 691/691/691
f 689/689/689 691/691/691 692/692/692
f 693/693/693 694/694/694 695/695/695
f 693/693/693 695/695/695 696/696/696
f 697/697/697 698/698/698 699/699/699
f 697/697/697 699/699/699 700/700/700
f 701/701/701 702/702/702 703/703/703
f 701/701/701 703/703/703 704/704/704
f 705/705/705 706/706/706 707/707/707
f 705/705/705 707/707/707 708/708/708
f 709/709/709 710/710/710 711/711/711
f 709/709/709 711/711/711 712/712/712
f 713/713/713 714/714/714 715/715/715
f 713/713/713 715/715/715 716/716/716
f 717/717/717 718/718/718 719/719/719
f 717/717/717 719/719/719 720/720/720
f 721/721/721 722/722/722 723/723/723
f 721/721/721 723/723/723 724/724/724
f 725/725/725 726/726/726 727/727/727
f 725/725/725 727/727/727 728/728/728
f 729/729/729 730/730/730 731/731/731
f 729/729/729 731/731/731 732/732/732
f 733/733/733 734/734/734 735/735/735
f 733/733/733 735/735/735 736/736/736
f 737/737/737 738/738/738 739/739/739
f 737/737/737 739/739/739 740/740/740
f 741/741/741 742/742/742 743/743/743
f 741/741/741 743/743/743 744/744/744
f 745/745/745 746/746/746 747/747/747
f 745/745/745 747/747/747 748/748/748
f 749/749/749 750/750/750 751/751/751
f 749/749/749 751/751/751 752/752/752
f 753/753/753 754/754/754 755/755/755
f 753/753/753 755/755/755 756/756/756
f 757/757/757 758/758/758 759/759/759
f 757/757/757 759/759/759 760/760/760
f 761/761/761 762/762/762 763/763/763
f 761/761/761 763/763/763 764/764/764
f 765/765/765 766/766/766 767/767/767
f 765/765/765 767/767/767 768/768/768
