# Blender 5.2.0 LTS
# www.blender.org
mtllib ARROW_LEFT_text.mtl
o ARROW_LEFT_text
v 0.694382 0.010546 0.308466
v 0.694338 0.010546 0.308414
v 0.694338 0.008674 0.308414
v 0.694382 0.008674 0.308466
v 0.694382 0.010546 0.308466
v 0.694447 0.010546 0.308531
v 0.698933 0.010546 0.312979
v 0.699027 0.010546 0.313082
v 0.699110 0.010546 0.313190
v 0.699180 0.010546 0.313305
v 0.699238 0.010546 0.313424
v 0.699284 0.010546 0.313549
v 0.699318 0.010546 0.313680
v 0.699340 0.010546 0.313816
v 0.699348 0.010546 0.313910
v 0.699351 0.010546 0.314005
v 0.699345 0.010546 0.314149
v 0.699326 0.010546 0.314288
v 0.699294 0.010546 0.314422
v 0.699250 0.010546 0.314550
v 0.699194 0.010546 0.314674
v 0.699124 0.010546 0.314793
v 0.699042 0.010546 0.314907
v 0.698981 0.010546 0.314980
v 0.698914 0.010546 0.315051
v 0.697697 0.010546 0.316267
v 0.697598 0.010546 0.316357
v 0.697493 0.010546 0.316436
v 0.697383 0.010546 0.316503
v 0.697266 0.010546 0.316559
v 0.697143 0.010546 0.316603
v 0.697014 0.010546 0.316635
v 0.696879 0.010546 0.316657
v 0.696786 0.010546 0.316664
v 0.696690 0.010546 0.316667
v 0.696523 0.010546 0.316659
v 0.696386 0.010546 0.316640
v 0.696255 0.010546 0.316609
v 0.696129 0.010546 0.316567
v 0.696008 0.010546 0.316514
v 0.695893 0.010546 0.316448
v 0.695784 0.010546 0.316372
v 0.695731 0.010546 0.316329
v 0.695663 0.010546 0.316267
v 0.687945 0.010546 0.308550
v 0.687851 0.010546 0.308446
v 0.687769 0.010546 0.308337
v 0.687699 0.010546 0.308221
v 0.687640 0.010546 0.308100
v 0.687594 0.010546 0.307973
v 0.687560 0.010546 0.307839
v 0.687538 0.010546 0.307700
v 0.687530 0.010546 0.307604
v 0.687527 0.010546 0.307505
v 0.687534 0.010546 0.307357
v 0.687553 0.010546 0.307214
v 0.687586 0.010546 0.307077
v 0.687632 0.010546 0.306946
v 0.687691 0.010546 0.306820
v 0.687764 0.010546 0.306700
v 0.687849 0.010546 0.306585
v 0.687913 0.010546 0.306511
v 0.687983 0.010546 0.306440
v 0.695701 0.010546 0.298722
v 0.695800 0.010546 0.298632
v 0.695905 0.010546 0.298553
v 0.696016 0.010546 0.298484
v 0.696133 0.010546 0.298427
v 0.696256 0.010546 0.298380
v 0.696384 0.010546 0.298344
v 0.696542 0.010546 0.298317
v 0.696709 0.010546 0.298304
v 0.696852 0.010546 0.298306
v 0.696991 0.010546 0.298321
v 0.697124 0.010546 0.298349
v 0.697253 0.010546 0.298391
v 0.697377 0.010546 0.298445
v 0.697496 0.010546 0.298513
v 0.697610 0.010546 0.298594
v 0.697683 0.010546 0.298655
v 0.697754 0.010546 0.298722
v 0.698914 0.010546 0.299881
v 0.699004 0.010546 0.299985
v 0.699084 0.010546 0.300095
v 0.699152 0.010546 0.300213
v 0.699209 0.010546 0.300335
v 0.699256 0.010546 0.300465
v 0.699296 0.010546 0.300626
v 0.699319 0.010546 0.300770
v 0.699332 0.010546 0.300946
v 0.699329 0.010546 0.301118
v 0.699314 0.010546 0.301257
v 0.699286 0.010546 0.301390
v 0.699246 0.010546 0.301517
v 0.699195 0.010546 0.301636
v 0.699142 0.010546 0.301731
v 0.699069 0.010546 0.301839
v 0.699013 0.010546 0.301908
v 0.698952 0.010546 0.301973
v 0.694485 0.010546 0.306440
v 0.694382 0.010546 0.306547
v 0.694292 0.010546 0.306661
v 0.694215 0.010546 0.306779
v 0.694152 0.010546 0.306904
v 0.694101 0.010546 0.307033
v 0.694064 0.010546 0.307168
v 0.694040 0.010546 0.307308
v 0.694031 0.010546 0.307405
v 0.694028 0.010546 0.307505
v 0.694036 0.010546 0.307676
v 0.694057 0.010546 0.307815
v 0.694089 0.010546 0.307948
v 0.694133 0.010546 0.308075
v 0.694189 0.010546 0.308194
v 0.694257 0.010546 0.308308
v 0.694338 0.010546 0.308414
v 0.694447 0.010546 0.308531
v 0.694382 0.010546 0.308466
v 0.694382 0.008674 0.308466
v 0.694447 0.008674 0.308531
v 0.694382 0.008674 0.308466
v 0.694338 0.008674 0.308414
v 0.694257 0.008674 0.308308
v 0.694189 0.008674 0.308194
v 0.694133 0.008674 0.308075
v 0.694089 0.008674 0.307948
v 0.694057 0.008674 0.307815
v 0.694036 0.008674 0.307676
v 0.694028 0.008674 0.307505
v 0.694031 0.008674 0.307405
v 0.694040 0.008674 0.307308
v 0.694064 0.008674 0.307168
v 0.694101 0.008674 0.307033
v 0.694152 0.008674 0.306904
v 0.694215 0.008674 0.306779
v 0.694292 0.008674 0.306661
v 0.694382 0.008674 0.306547
v 0.694485 0.008674 0.306440
v 0.698952 0.008674 0.301973
v 0.699013 0.008674 0.301908
v 0.699069 0.008674 0.301839
v 0.699142 0.008674 0.301731
v 0.699195 0.008674 0.301636
v 0.699246 0.008674 0.301517
v 0.699286 0.008674 0.301390
v 0.699314 0.008674 0.301257
v 0.699329 0.008674 0.301118
v 0.699332 0.008674 0.300946
v 0.699319 0.008674 0.300770
v 0.699296 0.008674 0.300626
v 0.699256 0.008674 0.300465
v 0.699209 0.008674 0.300335
v 0.699152 0.008674 0.300213
v 0.699084 0.008674 0.300095
v 0.699004 0.008674 0.299985
v 0.698914 0.008674 0.299881
v 0.697754 0.008674 0.298722
v 0.697683 0.008674 0.298655
v 0.697610 0.008674 0.298594
v 0.697496 0.008674 0.298513
v 0.697377 0.008674 0.298445
v 0.697253 0.008674 0.298391
v 0.697124 0.008674 0.298349
v 0.696991 0.008674 0.298321
v 0.696852 0.008674 0.298306
v 0.696709 0.008674 0.298304
v 0.696542 0.008674 0.298317
v 0.696384 0.008674 0.298344
v 0.696256 0.008674 0.298380
v 0.696133 0.008674 0.298427
v 0.696016 0.008674 0.298484
v 0.695905 0.008674 0.298553
v 0.695800 0.008674 0.298632
v 0.695701 0.008674 0.298722
v 0.687983 0.008674 0.306440
v 0.687913 0.008674 0.306511
v 0.687849 0.008674 0.306585
v 0.687764 0.008674 0.306700
v 0.687691 0.008674 0.306820
v 0.687632 0.008674 0.306946
v 0.687586 0.008674 0.307077
v 0.687553 0.008674 0.307214
v 0.687534 0.008674 0.307357
v 0.687527 0.008674 0.307505
v 0.687530 0.008674 0.307604
v 0.687538 0.008674 0.307700
v 0.687560 0.008674 0.307839
v 0.687594 0.008674 0.307973
v 0.687640 0.008674 0.308100
v 0.687699 0.008674 0.308221
v 0.687769 0.008674 0.308337
v 0.687851 0.008674 0.308446
v 0.687945 0.008674 0.308550
v 0.695663 0.008674 0.316267
v 0.695731 0.008674 0.316329
v 0.695784 0.008674 0.316372
v 0.695893 0.008674 0.316448
v 0.696008 0.008674 0.316514
v 0.696129 0.008674 0.316567
v 0.696255 0.008674 0.316609
v 0.696386 0.008674 0.316640
v 0.696523 0.008674 0.316659
v 0.696690 0.008674 0.316667
v 0.696786 0.008674 0.316664
v 0.696879 0.008674 0.316657
v 0.697014 0.008674 0.316635
v 0.697143 0.008674 0.316603
v 0.697266 0.008674 0.316559
v 0.697383 0.008674 0.316503
v 0.697493 0.008674 0.316436
v 0.697598 0.008674 0.316357
v 0.697697 0.008674 0.316267
v 0.698914 0.008674 0.315051
v 0.698981 0.008674 0.314980
v 0.699042 0.008674 0.314907
v 0.699124 0.008674 0.314793
v 0.699194 0.008674 0.314674
v 0.699250 0.008674 0.314550
v 0.699294 0.008674 0.314422
v 0.699326 0.008674 0.314288
v 0.699345 0.008674 0.314149
v 0.699351 0.008674 0.314005
v 0.699348 0.008674 0.313910
v 0.699340 0.008674 0.313816
v 0.699318 0.008674 0.313680
v 0.699284 0.008674 0.313549
v 0.699238 0.008674 0.313424
v 0.699180 0.008674 0.313305
v 0.699110 0.008674 0.313190
v 0.699027 0.008674 0.313082
v 0.698933 0.008674 0.312979
v 0.694447 0.008674 0.308531
v 0.694338 0.010546 0.308414
v 0.694257 0.010546 0.308308
v 0.694257 0.008674 0.308308
v 0.694338 0.008674 0.308414
v 0.694257 0.010546 0.308308
v 0.694189 0.010546 0.308194
v 0.694189 0.008674 0.308194
v 0.694257 0.008674 0.308308
v 0.694189 0.010546 0.308194
v 0.694133 0.010546 0.308075
v 0.694133 0.008674 0.308075
v 0.694189 0.008674 0.308194
v 0.694133 0.010546 0.308075
v 0.694089 0.010546 0.307948
v 0.694089 0.008674 0.307948
v 0.694133 0.008674 0.308075
v 0.694089 0.010546 0.307948
v 0.694057 0.010546 0.307815
v 0.694057 0.008674 0.307815
v 0.694089 0.008674 0.307948
v 0.694057 0.010546 0.307815
v 0.694036 0.010546 0.307676
v 0.694036 0.008674 0.307676
v 0.694057 0.008674 0.307815
v 0.694036 0.010546 0.307676
v 0.694028 0.010546 0.307505
v 0.694028 0.008674 0.307505
v 0.694036 0.008674 0.307676
v 0.694028 0.010546 0.307505
v 0.694031 0.010546 0.307405
v 0.694031 0.008674 0.307405
v 0.694028 0.008674 0.307505
v 0.694031 0.010546 0.307405
v 0.694040 0.010546 0.307308
v 0.694040 0.008674 0.307308
v 0.694031 0.008674 0.307405
v 0.694040 0.010546 0.307308
v 0.694064 0.010546 0.307168
v 0.694064 0.008674 0.307168
v 0.694040 0.008674 0.307308
v 0.694064 0.010546 0.307168
v 0.694101 0.010546 0.307033
v 0.694101 0.008674 0.307033
v 0.694064 0.008674 0.307168
v 0.694101 0.010546 0.307033
v 0.694152 0.010546 0.306904
v 0.694152 0.008674 0.306904
v 0.694101 0.008674 0.307033
v 0.694152 0.010546 0.306904
v 0.694215 0.010546 0.306779
v 0.694215 0.008674 0.306779
v 0.694152 0.008674 0.306904
v 0.694215 0.010546 0.306779
v 0.694292 0.010546 0.306661
v 0.694292 0.008674 0.306661
v 0.694215 0.008674 0.306779
v 0.694292 0.010546 0.306661
v 0.694382 0.010546 0.306547
v 0.694382 0.008674 0.306547
v 0.694292 0.008674 0.306661
v 0.694382 0.010546 0.306547
v 0.694485 0.010546 0.306440
v 0.694485 0.008674 0.306440
v 0.694382 0.008674 0.306547
v 0.694485 0.010546 0.306440
v 0.698952 0.010546 0.301973
v 0.698952 0.008674 0.301973
v 0.694485 0.008674 0.306440
v 0.698952 0.010546 0.301973
v 0.699013 0.010546 0.301908
v 0.699013 0.008674 0.301908
v 0.698952 0.008674 0.301973
v 0.699013 0.010546 0.301908
v 0.699069 0.010546 0.301839
v 0.699069 0.008674 0.301839
v 0.699013 0.008674 0.301908
v 0.699069 0.010546 0.301839
v 0.699142 0.010546 0.301731
v 0.699142 0.008674 0.301731
v 0.699069 0.008674 0.301839
v 0.699142 0.010546 0.301731
v 0.699195 0.010546 0.301636
v 0.699195 0.008674 0.301636
v 0.699142 0.008674 0.301731
v 0.699195 0.010546 0.301636
v 0.699246 0.010546 0.301517
v 0.699246 0.008674 0.301517
v 0.699195 0.008674 0.301636
v 0.699246 0.010546 0.301517
v 0.699286 0.010546 0.301390
v 0.699286 0.008674 0.301390
v 0.699246 0.008674 0.301517
v 0.699286 0.010546 0.301390
v 0.699314 0.010546 0.301257
v 0.699314 0.008674 0.301257
v 0.699286 0.008674 0.301390
v 0.699314 0.010546 0.301257
v 0.699329 0.010546 0.301118
v 0.699329 0.008674 0.301118
v 0.699314 0.008674 0.301257
v 0.699329 0.010546 0.301118
v 0.699332 0.010546 0.300946
v 0.699332 0.008674 0.300946
v 0.699329 0.008674 0.301118
v 0.699332 0.010546 0.300946
v 0.699319 0.010546 0.300770
v 0.699319 0.008674 0.300770
v 0.699332 0.008674 0.300946
v 0.699319 0.010546 0.300770
v 0.699296 0.010546 0.300626
v 0.699296 0.008674 0.300626
v 0.699319 0.008674 0.300770
v 0.699296 0.010546 0.300626
v 0.699256 0.010546 0.300465
v 0.699256 0.008674 0.300465
v 0.699296 0.008674 0.300626
v 0.699256 0.010546 0.300465
v 0.699209 0.010546 0.300335
v 0.699209 0.008674 0.300335
v 0.699256 0.008674 0.300465
v 0.699209 0.010546 0.300335
v 0.699152 0.010546 0.300213
v 0.699152 0.008674 0.300213
v 0.699209 0.008674 0.300335
v 0.699152 0.010546 0.300213
v 0.699084 0.010546 0.300095
v 0.699084 0.008674 0.300095
v 0.699152 0.008674 0.300213
v 0.699084 0.010546 0.300095
v 0.699004 0.010546 0.299985
v 0.699004 0.008674 0.299985
v 0.699084 0.008674 0.300095
v 0.699004 0.010546 0.299985
v 0.698914 0.010546 0.299881
v 0.698914 0.008674 0.299881
v 0.699004 0.008674 0.299985
v 0.698914 0.010546 0.299881
v 0.697754 0.010546 0.298722
v 0.697754 0.008674 0.298722
v 0.698914 0.008674 0.299881
v 0.697754 0.010546 0.298722
v 0.697683 0.010546 0.298655
v 0.697683 0.008674 0.298655
v 0.697754 0.008674 0.298722
v 0.697683 0.010546 0.298655
v 0.697610 0.010546 0.298594
v 0.697610 0.008674 0.298594
v 0.697683 0.008674 0.298655
v 0.697610 0.010546 0.298594
v 0.697496 0.010546 0.298513
v 0.697496 0.008674 0.298513
v 0.697610 0.008674 0.298594
v 0.697496 0.010546 0.298513
v 0.697377 0.010546 0.298445
v 0.697377 0.008674 0.298445
v 0.697496 0.008674 0.298513
v 0.697377 0.010546 0.298445
v 0.697253 0.010546 0.298391
v 0.697253 0.008674 0.298391
v 0.697377 0.008674 0.298445
v 0.697253 0.010546 0.298391
v 0.697124 0.010546 0.298349
v 0.697124 0.008674 0.298349
v 0.697253 0.008674 0.298391
v 0.697124 0.010546 0.298349
v 0.696991 0.010546 0.298321
v 0.696991 0.008674 0.298321
v 0.697124 0.008674 0.298349
v 0.696991 0.010546 0.298321
v 0.696852 0.010546 0.298306
v 0.696852 0.008674 0.298306
v 0.696991 0.008674 0.298321
v 0.696852 0.010546 0.298306
v 0.696709 0.010546 0.298304
v 0.696709 0.008674 0.298304
v 0.696852 0.008674 0.298306
v 0.696709 0.010546 0.298304
v 0.696542 0.010546 0.298317
v 0.696542 0.008674 0.298317
v 0.696709 0.008674 0.298304
v 0.696542 0.010546 0.298317
v 0.696384 0.010546 0.298344
v 0.696384 0.008674 0.298344
v 0.696542 0.008674 0.298317
v 0.696384 0.010546 0.298344
v 0.696256 0.010546 0.298380
v 0.696256 0.008674 0.298380
v 0.696384 0.008674 0.298344
v 0.696256 0.010546 0.298380
v 0.696133 0.010546 0.298427
v 0.696133 0.008674 0.298427
v 0.696256 0.008674 0.298380
v 0.696133 0.010546 0.298427
v 0.696016 0.010546 0.298484
v 0.696016 0.008674 0.298484
v 0.696133 0.008674 0.298427
v 0.696016 0.010546 0.298484
v 0.695905 0.010546 0.298553
v 0.695905 0.008674 0.298553
v 0.696016 0.008674 0.298484
v 0.695905 0.010546 0.298553
v 0.695800 0.010546 0.298632
v 0.695800 0.008674 0.298632
v 0.695905 0.008674 0.298553
v 0.695800 0.010546 0.298632
v 0.695701 0.010546 0.298722
v 0.695701 0.008674 0.298722
v 0.695800 0.008674 0.298632
v 0.695701 0.010546 0.298722
v 0.687983 0.010546 0.306440
v 0.687983 0.008674 0.306440
v 0.695701 0.008674 0.298722
v 0.687983 0.010546 0.306440
v 0.687913 0.010546 0.306511
v 0.687913 0.008674 0.306511
v 0.687983 0.008674 0.306440
v 0.687913 0.010546 0.306511
v 0.687849 0.010546 0.306585
v 0.687849 0.008674 0.306585
v 0.687913 0.008674 0.306511
v 0.687849 0.010546 0.306585
v 0.687764 0.010546 0.306700
v 0.687764 0.008674 0.306700
v 0.687849 0.008674 0.306585
v 0.687764 0.010546 0.306700
v 0.687691 0.010546 0.306820
v 0.687691 0.008674 0.306820
v 0.687764 0.008674 0.306700
v 0.687691 0.010546 0.306820
v 0.687632 0.010546 0.306946
v 0.687632 0.008674 0.306946
v 0.687691 0.008674 0.306820
v 0.687632 0.010546 0.306946
v 0.687586 0.010546 0.307077
v 0.687586 0.008674 0.307077
v 0.687632 0.008674 0.306946
v 0.687586 0.010546 0.307077
v 0.687553 0.010546 0.307214
v 0.687553 0.008674 0.307214
v 0.687586 0.008674 0.307077
v 0.687553 0.010546 0.307214
v 0.687534 0.010546 0.307357
v 0.687534 0.008674 0.307357
v 0.687553 0.008674 0.307214
v 0.687534 0.010546 0.307357
v 0.687527 0.010546 0.307505
v 0.687527 0.008674 0.307505
v 0.687534 0.008674 0.307357
v 0.687527 0.010546 0.307505
v 0.687530 0.010546 0.307604
v 0.687530 0.008674 0.307604
v 0.687527 0.008674 0.307505
v 0.687530 0.010546 0.307604
v 0.687538 0.010546 0.307700
v 0.687538 0.008674 0.307700
v 0.687530 0.008674 0.307604
v 0.687538 0.010546 0.307700
v 0.687560 0.010546 0.307839
v 0.687560 0.008674 0.307839
v 0.687538 0.008674 0.307700
v 0.687560 0.010546 0.307839
v 0.687594 0.010546 0.307973
v 0.687594 0.008674 0.307973
v 0.687560 0.008674 0.307839
v 0.687594 0.010546 0.307973
v 0.687640 0.010546 0.308100
v 0.687640 0.008674 0.308100
v 0.687594 0.008674 0.307973
v 0.687640 0.010546 0.308100
v 0.687699 0.010546 0.308221
v 0.687699 0.008674 0.308221
v 0.687640 0.008674 0.308100
v 0.687699 0.010546 0.308221
v 0.687769 0.010546 0.308337
v 0.687769 0.008674 0.308337
v 0.687699 0.008674 0.308221
v 0.687769 0.010546 0.308337
v 0.687851 0.010546 0.308446
v 0.687851 0.008674 0.308446
v 0.687769 0.008674 0.308337
v 0.687851 0.010546 0.308446
v 0.687945 0.010546 0.308550
v 0.687945 0.008674 0.308550
v 0.687851 0.008674 0.308446
v 0.687945 0.010546 0.308550
v 0.695663 0.010546 0.316267
v 0.695663 0.008674 0.316267
v 0.687945 0.008674 0.308550
v 0.695663 0.010546 0.316267
v 0.695731 0.010546 0.316329
v 0.695731 0.008674 0.316329
v 0.695663 0.008674 0.316267
v 0.695731 0.010546 0.316329
v 0.695784 0.010546 0.316372
v 0.695784 0.008674 0.316372
v 0.695731 0.008674 0.316329
v 0.695784 0.010546 0.316372
v 0.695893 0.010546 0.316448
v 0.695893 0.008674 0.316448
v 0.695784 0.008674 0.316372
v 0.695893 0.010546 0.316448
v 0.696008 0.010546 0.316514
v 0.696008 0.008674 0.316514
v 0.695893 0.008674 0.316448
v 0.696008 0.010546 0.316514
v 0.696129 0.010546 0.316567
v 0.696129 0.008674 0.316567
v 0.696008 0.008674 0.316514
v 0.696129 0.010546 0.316567
v 0.696255 0.010546 0.316609
v 0.696255 0.008674 0.316609
v 0.696129 0.008674 0.316567
v 0.696255 0.010546 0.316609
v 0.696386 0.010546 0.316640
v 0.696386 0.008674 0.316640
v 0.696255 0.008674 0.316609
v 0.696386 0.010546 0.316640
v 0.696523 0.010546 0.316659
v 0.696523 0.008674 0.316659
v 0.696386 0.008674 0.316640
v 0.696523 0.010546 0.316659
v 0.696690 0.010546 0.316667
v 0.696690 0.008674 0.316667
v 0.696523 0.008674 0.316659
v 0.696690 0.010546 0.316667
v 0.696786 0.010546 0.316664
v 0.696786 0.008674 0.316664
v 0.696690 0.008674 0.316667
v 0.696786 0.010546 0.316664
v 0.696879 0.010546 0.316657
v 0.696879 0.008674 0.316657
v 0.696786 0.008674 0.316664
v 0.696879 0.010546 0.316657
v 0.697014 0.010546 0.316635
v 0.697014 0.008674 0.316635
v 0.696879 0.008674 0.316657
v 0.697014 0.010546 0.316635
v 0.697143 0.010546 0.316603
v 0.697143 0.008674 0.316603
v 0.697014 0.008674 0.316635
v 0.697143 0.010546 0.316603
v 0.697266 0.010546 0.316559
v 0.697266 0.008674 0.316559
v 0.697143 0.008674 0.316603
v 0.697266 0.010546 0.316559
v 0.697383 0.010546 0.316503
v 0.697383 0.008674 0.316503
v 0.697266 0.008674 0.316559
v 0.697383 0.010546 0.316503
v 0.697493 0.010546 0.316436
v 0.697493 0.008674 0.316436
v 0.697383 0.008674 0.316503
v 0.697493 0.010546 0.316436
v 0.697598 0.010546 0.316357
v 0.697598 0.008674 0.316357
v 0.697493 0.008674 0.316436
v 0.697598 0.010546 0.316357
v 0.697697 0.010546 0.316267
v 0.697697 0.008674 0.316267
v 0.697598 0.008674 0.316357
v 0.697697 0.010546 0.316267
v 0.698914 0.010546 0.315051
v 0.698914 0.008674 0.315051
v 0.697697 0.008674 0.316267
v 0.698914 0.010546 0.315051
v 0.698981 0.010546 0.314980
v 0.698981 0.008674 0.314980
v 0.698914 0.008674 0.315051
v 0.698981 0.010546 0.314980
v 0.699042 0.010546 0.314907
v 0.699042 0.008674 0.314907
v 0.698981 0.008674 0.314980
v 0.699042 0.010546 0.314907
v 0.699124 0.010546 0.314793
v 0.699124 0.008674 0.314793
v 0.699042 0.008674 0.314907
v 0.699124 0.010546 0.314793
v 0.699194 0.010546 0.314674
v 0.699194 0.008674 0.314674
v 0.699124 0.008674 0.314793
v 0.699194 0.010546 0.314674
v 0.699250 0.010546 0.314550
v 0.699250 0.008674 0.314550
v 0.699194 0.008674 0.314674
v 0.699250 0.010546 0.314550
v 0.699294 0.010546 0.314422
v 0.699294 0.008674 0.314422
v 0.699250 0.008674 0.314550
v 0.699294 0.010546 0.314422
v 0.699326 0.010546 0.314288
v 0.699326 0.008674 0.314288
v 0.699294 0.008674 0.314422
v 0.699326 0.010546 0.314288
v 0.699345 0.010546 0.314149
v 0.699345 0.008674 0.314149
v 0.699326 0.008674 0.314288
v 0.699345 0.010546 0.314149
v 0.699351 0.010546 0.314005
v 0.699351 0.008674 0.314005
v 0.699345 0.008674 0.314149
v 0.699351 0.010546 0.314005
v 0.699348 0.010546 0.313910
v 0.699348 0.008674 0.313910
v 0.699351 0.008674 0.314005
v 0.699348 0.010546 0.313910
v 0.699340 0.010546 0.313816
v 0.699340 0.008674 0.313816
v 0.699348 0.008674 0.313910
v 0.699340 0.010546 0.313816
v 0.699318 0.010546 0.313680
v 0.699318 0.008674 0.313680
v 0.699340 0.008674 0.313816
v 0.699318 0.010546 0.313680
v 0.699284 0.010546 0.313549
v 0.699284 0.008674 0.313549
v 0.699318 0.008674 0.313680
v 0.699284 0.010546 0.313549
v 0.699238 0.010546 0.313424
v 0.699238 0.008674 0.313424
v 0.699284 0.008674 0.313549
v 0.699238 0.010546 0.313424
v 0.699180 0.010546 0.313305
v 0.699180 0.008674 0.313305
v 0.699238 0.008674 0.313424
v 0.699180 0.010546 0.313305
v 0.699110 0.010546 0.313190
v 0.699110 0.008674 0.313190
v 0.699180 0.008674 0.313305
v 0.699110 0.010546 0.313190
v 0.699027 0.010546 0.313082
v 0.699027 0.008674 0.313082
v 0.699110 0.008674 0.313190
v 0.699027 0.010546 0.313082
v 0.698933 0.010546 0.312979
v 0.698933 0.008674 0.312979
v 0.699027 0.008674 0.313082
v 0.698933 0.010546 0.312979
v 0.694447 0.010546 0.308531
v 0.694447 0.008674 0.308531
v 0.698933 0.008674 0.312979
vn 0.5228 0.7008 -0.4854
vn 0.5550 -0.6991 -0.4509
vn 0.5551 0.6989 -0.4510
vn 0.5229 -0.7006 -0.4855
vn 0.5018 0.7057 -0.5002
vn 0.5508 0.6968 -0.4595
vn 0.5138 0.7016 -0.4937
vn 0.6293 0.6962 -0.3455
vn 0.5925 0.6960 -0.4056
vn 0.6850 0.6958 -0.2159
vn 0.6606 0.6959 -0.2817
vn 0.7101 0.6987 -0.0874
vn 0.7019 0.6967 -0.1479
vn 0.7147 0.6995 0.0058
vn 0.7124 0.7007 -0.0402
vn 0.7055 0.6965 0.1309
vn 0.7143 0.6968 0.0641
vn 0.6670 0.6961 0.2656
vn 0.6900 0.6960 0.1986
vn 0.6019 0.6965 0.3906
vn 0.6377 0.6958 0.3304
vn 0.5328 0.7004 0.4748
vn 0.5649 0.6987 0.4389
vn 0.4915 0.7017 0.5158
vn 0.5095 0.7037 0.4952
vn 0.4015 0.6960 0.5953
vn 0.4574 0.6963 0.5531
vn 0.2758 0.6959 0.6630
vn 0.3405 0.6960 0.6321
vn 0.1432 0.6968 0.7028
vn 0.2089 0.6962 0.6868
vn 0.0389 0.7009 0.7122
vn 0.0843 0.6988 0.7103
vn -0.0664 0.6970 0.7140
vn -0.0070 0.6988 0.7152
vn -0.1958 0.6969 0.6899
vn -0.1313 0.6969 0.7050
vn -0.3233 0.6962 0.6409
vn -0.2603 0.6963 0.6689
vn -0.4301 0.6989 0.5714
vn -0.3832 0.6965 0.6066
vn -0.4906 0.7011 0.5174
vn -0.4628 0.7010 0.5425
vn -0.5526 0.6964 0.4579
vn -0.5151 0.7019 0.4919
vn -0.6308 0.6965 0.3421
vn -0.5946 0.6961 0.4023
vn -0.6860 0.6962 0.2115
vn -0.6620 0.6958 0.2786
vn -0.7100 0.6989 0.0858
vn -0.7028 0.6965 0.1449
vn -0.7152 0.6989 -0.0060
vn -0.7121 0.7009 0.0394
vn -0.7054 0.6962 -0.1331
vn -0.7143 0.6968 -0.0651
vn -0.6647 0.6960 -0.2714
vn -0.6890 0.6958 -0.2026
vn -0.5966 0.6962 -0.3992
vn -0.6340 0.6956 -0.3380
vn -0.5233 0.7003 -0.4855
vn -0.5575 0.6981 -0.4493
vn -0.4919 0.7019 -0.5150
vn -0.5025 0.7062 -0.4988
vn -0.4057 0.6964 -0.5920
vn -0.4588 0.6969 -0.5512
vn -0.2855 0.6965 -0.6583
vn -0.3472 0.6962 -0.6282
vn -0.1575 0.6964 -0.7002
vn -0.2225 0.6968 -0.6819
vn -0.0228 0.6968 -0.7169
vn -0.0897 0.6962 -0.7122
vn 0.1139 0.6957 -0.7092
vn 0.0436 0.6966 -0.7161
vn 0.2552 0.6957 -0.6715
vn 0.1844 0.6957 -0.6943
vn 0.3858 0.6962 -0.6054
vn 0.3233 0.6956 -0.6415
vn 0.4740 0.7004 -0.5336
vn 0.4372 0.6983 -0.5667
vn 0.5226 0.6994 -0.4877
vn 0.4948 0.7038 -0.5097
vn 0.6015 0.6964 -0.3915
vn 0.5617 0.6969 -0.4459
vn 0.6632 0.6969 -0.2730
vn 0.6353 0.6968 -0.3329
vn 0.7025 0.6970 -0.1439
vn 0.6865 0.6963 -0.2092
vn 0.7169 0.6969 -0.0202
vn 0.7118 0.6976 -0.0817
vn 0.7087 0.6965 0.1124
vn 0.7159 0.6967 0.0454
vn 0.6735 0.6958 0.2496
vn 0.6949 0.6961 0.1805
vn 0.6112 0.6965 0.3759
vn 0.6446 0.6964 0.3156
vn 0.5378 0.6995 0.4706
vn 0.5739 0.6973 0.4294
vn 0.5072 0.7046 0.4962
vn 0.5106 0.7035 0.4945
vn 0.5229 0.7006 -0.4855
vn 0.5552 0.6988 -0.4510
vn 0.5954 0.6958 -0.4017
vn 0.5408 0.6967 0.4713
vn 0.6338 0.6956 -0.3383
vn 0.5831 0.6964 0.4184
vn 0.6656 0.6953 -0.2712
vn 0.6220 0.6958 0.3590
vn 0.6889 0.6963 -0.2016
vn 0.6551 0.6960 0.2938
vn 0.6820 0.6955 0.2260
vn 0.7044 0.6967 -0.1357
vn 0.7007 0.6963 0.1556
vn 0.7142 0.6965 -0.0685
vn 0.7095 0.6984 0.0936
vn 0.7156 0.6985 -0.0060
vn 0.7128 0.7000 0.0436
vn 0.5017 0.7059 -0.5000
vn 0.5227 -0.7008 -0.4854
vn 0.5229 0.7006 -0.4856
vn 0.5010 -0.7058 -0.5009
vn 0.5074 -0.7045 0.4962
vn 0.5377 -0.6995 0.4707
vn 0.5106 -0.7035 0.4944
vn 0.6113 -0.6965 0.3758
vn 0.5736 -0.6976 0.4294
vn 0.6733 -0.6960 0.2495
vn 0.6446 -0.6963 0.3156
vn 0.7086 -0.6966 0.1123
vn 0.6949 -0.6961 0.1804
vn 0.7169 -0.6969 -0.0202
vn 0.7159 -0.6967 0.0454
vn 0.7024 -0.6971 -0.1438
vn 0.7116 -0.6978 -0.0817
vn 0.6632 -0.6969 -0.2731
vn 0.6865 -0.6964 -0.2092
vn 0.6015 -0.6964 -0.3916
vn 0.6354 -0.6968 -0.3327
vn 0.5228 -0.6993 -0.4875
vn 0.5618 -0.6968 -0.4459
vn 0.4740 -0.7004 -0.5336
vn 0.4948 -0.7038 -0.5098
vn 0.3865 -0.6962 -0.6050
vn 0.4372 -0.6983 -0.5668
vn 0.2553 -0.6956 -0.6716
vn 0.3231 -0.6956 -0.6417
vn 0.1135 -0.6959 -0.7091
vn 0.1847 -0.6955 -0.6943
vn -0.0228 -0.6968 -0.7169
vn 0.0441 -0.6965 -0.7162
vn -0.1575 -0.6965 -0.7001
vn -0.0895 -0.6963 -0.7121
vn -0.2855 -0.6964 -0.6584
vn -0.2225 -0.6968 -0.6819
vn -0.4055 -0.6966 -0.5918
vn -0.3471 -0.6964 -0.6282
vn -0.4921 -0.7020 -0.5148
vn -0.4590 -0.6968 -0.5511
vn -0.5233 -0.7004 -0.4854
vn -0.5024 -0.7063 -0.4988
vn -0.5966 -0.6964 -0.3989
vn -0.5573 -0.6983 -0.4491
vn -0.6648 -0.6960 -0.2714
vn -0.6340 -0.6957 -0.3377
vn -0.7055 -0.6961 -0.1331
vn -0.6888 -0.6958 -0.2034
vn -0.7152 -0.6989 -0.0060
vn -0.7143 -0.6968 -0.0651
vn -0.7101 -0.6989 0.0852
vn -0.7121 -0.7009 0.0396
vn -0.6857 -0.6964 0.2117
vn -0.7026 -0.6967 0.1446
vn -0.6311 -0.6961 0.3422
vn -0.6619 -0.6960 0.2783
vn -0.5525 -0.6964 0.4580
vn -0.5945 -0.6961 0.4024
vn -0.4906 -0.7011 0.5174
vn -0.5150 -0.7020 0.4920
vn -0.4302 -0.6989 0.5714
vn -0.4628 -0.7011 0.5425
vn -0.3234 -0.6964 0.6406
vn -0.3831 -0.6966 0.6066
vn -0.1958 -0.6968 0.6901
vn -0.2601 -0.6964 0.6689
vn -0.0664 -0.6970 0.7140
vn -0.1315 -0.6968 0.7051
vn 0.0388 -0.7009 0.7122
vn -0.0069 -0.6988 0.7153
vn 0.1429 -0.6968 0.7029
vn 0.0845 -0.6988 0.7103
vn 0.2758 -0.6959 0.6630
vn 0.2090 -0.6962 0.6867
vn 0.4015 -0.6961 0.5953
vn 0.3404 -0.6958 0.6324
vn 0.4915 -0.7017 0.5158
vn 0.4574 -0.6964 0.5529
vn 0.5328 -0.7004 0.4750
vn 0.5095 -0.7037 0.4952
vn 0.6020 -0.6965 0.3906
vn 0.5648 -0.6987 0.4392
vn 0.6670 -0.6962 0.2654
vn 0.6378 -0.6957 0.3305
vn 0.7055 -0.6965 0.1309
vn 0.6901 -0.6960 0.1984
vn 0.7150 -0.6991 0.0056
vn 0.7143 -0.6969 0.0643
vn 0.7101 -0.6987 -0.0874
vn 0.7124 -0.7007 -0.0402
vn 0.6848 -0.6961 -0.2156
vn 0.7020 -0.6967 -0.1479
vn 0.6292 -0.6962 -0.3455
vn 0.6606 -0.6959 -0.2817
vn 0.5507 -0.6969 -0.4595
vn 0.5924 -0.6961 -0.4055
vn 0.5018 -0.7057 -0.5001
vn 0.5135 -0.7017 -0.4938
vn 0.5409 -0.6967 0.4711
vn 0.5228 -0.7006 -0.4856
vn 0.5831 -0.6964 0.4183
vn 0.6221 -0.6958 0.3589
vn 0.5552 -0.6988 -0.4510
vn 0.6552 -0.6959 0.2939
vn 0.5955 -0.6956 -0.4018
vn 0.6820 -0.6956 0.2257
vn 0.6337 -0.6956 -0.3384
vn 0.6657 -0.6953 -0.2711
vn 0.7007 -0.6963 0.1557
vn 0.6888 -0.6962 -0.2022
vn 0.7095 -0.6984 0.0936
vn 0.7043 -0.6967 -0.1358
vn 0.7128 -0.7000 0.0436
vn 0.7143 -0.6965 -0.0686
vn 0.7156 -0.6985 -0.0060
vn 0.5550 0.6989 -0.4510
vn 0.5955 -0.6958 -0.4017
vn 0.5953 0.6959 -0.4016
vn 0.5550 -0.6990 -0.4509
vn 0.5953 0.6959 -0.4017
vn 0.6336 -0.6957 -0.3383
vn 0.6337 0.6957 -0.3383
vn 0.5955 -0.6958 -0.4016
vn 0.6337 0.6958 -0.3382
vn 0.6655 -0.6954 -0.2711
vn 0.6655 0.6954 -0.2711
vn 0.6336 -0.6958 -0.3383
vn 0.6656 0.6954 -0.2711
vn 0.6886 -0.6964 -0.2021
vn 0.6888 0.6964 -0.2016
vn 0.6656 -0.6954 -0.2711
vn 0.7042 -0.6969 -0.1358
vn 0.7042 0.6969 -0.1358
vn 0.6887 -0.6964 -0.2020
vn 0.7042 0.6969 -0.1357
vn 0.7142 -0.6966 -0.0686
vn 0.7141 0.6967 -0.0686
vn 0.7042 -0.6969 -0.1357
vn 0.7141 0.6966 -0.0685
vn 0.7154 -0.6986 -0.0060
vn 0.7154 0.6987 -0.0061
vn 0.7142 -0.6966 -0.0685
vn 0.7154 0.6987 -0.0060
vn 0.7127 -0.7002 0.0436
vn 0.7127 0.7002 0.0435
vn 0.7127 0.7002 0.0436
vn 0.7094 -0.6985 0.0936
vn 0.7094 0.6985 0.0935
vn 0.7094 0.6986 0.0935
vn 0.7006 -0.6964 0.1556
vn 0.7006 0.6964 0.1555
vn 0.7094 -0.6986 0.0936
vn 0.6819 -0.6958 0.2256
vn 0.6820 0.6956 0.2258
vn 0.7005 -0.6964 0.1557
vn 0.6819 0.6956 0.2259
vn 0.6551 -0.6961 0.2938
vn 0.6550 0.6962 0.2937
vn 0.6819 -0.6957 0.2258
vn 0.6550 0.6962 0.2938
vn 0.6220 -0.6960 0.3589
vn 0.6220 0.6959 0.3588
vn 0.6220 0.6959 0.3589
vn 0.5831 -0.6965 0.4182
vn 0.5830 0.6966 0.4181
vn 0.6219 -0.6960 0.3589
vn 0.5830 0.6966 0.4182
vn 0.5407 -0.6969 0.4711
vn 0.5408 0.6968 0.4711
vn 0.5830 -0.6965 0.4183
vn 0.5407 0.6969 0.4712
vn 0.5072 -0.7047 0.4961
vn 0.5110 0.7048 0.4921
vn 0.5407 -0.6968 0.4712
vn 0.5071 0.7048 0.4961
vn 0.5105 -0.7036 0.4944
vn 0.5105 0.7036 0.4944
vn 0.5017 -0.7047 0.5016
vn 0.5106 0.7035 0.4944
vn 0.5375 -0.6996 0.4707
vn 0.5375 0.6998 0.4705
vn 0.5105 -0.7036 0.4943
vn 0.5376 0.6996 0.4706
vn 0.5735 -0.6977 0.4294
vn 0.5375 -0.6997 0.4706
vn 0.5739 0.6974 0.4294
vn 0.6111 -0.6967 0.3758
vn 0.6110 0.6967 0.3759
vn 0.5735 -0.6977 0.4293
vn 0.6445 -0.6965 0.3155
vn 0.6445 0.6965 0.3155
vn 0.6112 -0.6966 0.3757
vn 0.6445 0.6965 0.3154
vn 0.6731 -0.6962 0.2495
vn 0.6734 0.6959 0.2496
vn 0.6446 -0.6964 0.3155
vn 0.6734 0.6959 0.2495
vn 0.6948 -0.6962 0.1803
vn 0.6947 0.6963 0.1805
vn 0.6947 0.6963 0.1804
vn 0.7085 -0.6968 0.1123
vn 0.7085 0.6967 0.1124
vn 0.7086 0.6966 0.1124
vn 0.7158 -0.6968 0.0454
vn 0.7158 0.6969 0.0454
vn 0.7085 -0.6968 0.1122
vn 0.7158 0.6968 0.0454
vn 0.7167 -0.6970 -0.0202
vn 0.7167 0.6970 -0.0202
vn 0.7167 0.6971 -0.0202
vn 0.7115 -0.6979 -0.0817
vn 0.7117 0.6977 -0.0817
vn 0.7167 -0.6970 -0.0203
vn 0.7116 0.6978 -0.0817
vn 0.7022 -0.6973 -0.1438
vn 0.7023 0.6972 -0.1438
vn 0.6864 -0.6965 -0.2092
vn 0.6864 0.6965 -0.2091
vn 0.7022 -0.6973 -0.1439
vn 0.6864 0.6965 -0.2092
vn 0.6631 -0.6970 -0.2731
vn 0.6631 0.6970 -0.2730
vn 0.6863 -0.6966 -0.2092
vn 0.6630 0.6970 -0.2730
vn 0.6352 -0.6970 -0.3327
vn 0.6353 0.6969 -0.3327
vn 0.6352 0.6970 -0.3328
vn 0.6014 -0.6965 -0.3915
vn 0.6013 0.6965 -0.3915
vn 0.6013 0.6966 -0.3915
vn 0.5616 -0.6970 -0.4459
vn 0.5616 0.6970 -0.4459
vn 0.6014 -0.6964 -0.3916
vn 0.5615 0.6971 -0.4458
vn 0.5228 -0.6994 -0.4874
vn 0.5226 0.6994 -0.4876
vn 0.5224 0.6995 -0.4876
vn 0.4948 -0.7039 -0.5096
vn 0.4948 0.7039 -0.5096
vn 0.5227 -0.6994 -0.4875
vn 0.4947 0.7039 -0.5097
vn 0.4740 -0.7005 -0.5336
vn 0.4740 0.7006 -0.5334
vn 0.4947 -0.7041 -0.5095
vn 0.4738 0.7006 -0.5335
vn 0.4371 -0.6985 -0.5666
vn 0.4373 0.6983 -0.5667
vn 0.4740 -0.7004 -0.5337
vn 0.4371 0.6985 -0.5666
vn 0.3864 -0.6964 -0.6048
vn 0.3858 0.6962 -0.6053
vn 0.4372 -0.6984 -0.5667
vn 0.3231 -0.6957 -0.6416
vn 0.3232 0.6959 -0.6413
vn 0.3232 0.6957 -0.6415
vn 0.2552 -0.6956 -0.6716
vn 0.2551 0.6960 -0.6712
vn 0.3230 -0.6959 -0.6414
vn 0.2551 0.6958 -0.6714
vn 0.1847 -0.6956 -0.6942
vn 0.1844 0.6960 -0.6940
vn 0.2551 -0.6957 -0.6715
vn 0.1843 0.6958 -0.6941
vn 0.1135 -0.6961 -0.7089
vn 0.1139 0.6959 -0.7091
vn 0.1846 -0.6957 -0.6942
vn 0.1138 0.6958 -0.7092
vn 0.0442 -0.6966 -0.7161
vn 0.0436 0.6969 -0.7159
vn 0.1134 -0.6961 -0.7089
vn 0.0435 0.6968 -0.7160
vn -0.0228 -0.6969 -0.7168
vn -0.0228 0.6970 -0.7167
vn 0.0440 -0.6968 -0.7159
vn -0.0895 -0.6964 -0.7120
vn -0.0897 0.6964 -0.7120
vn -0.0228 -0.6970 -0.7167
vn -0.0897 0.6963 -0.7121
vn -0.1575 -0.6966 -0.7000
vn -0.1574 0.6966 -0.7000
vn -0.0895 -0.6965 -0.7120
vn -0.1575 0.6966 -0.7000
vn -0.2224 -0.6970 -0.6817
vn -0.2224 0.6968 -0.6819
vn -0.2224 0.6970 -0.6817
vn -0.2854 -0.6967 -0.6582
vn -0.2855 0.6966 -0.6582
vn -0.3471 0.6964 -0.6281
vn -0.2854 -0.6967 -0.6581
vn -0.3472 0.6963 -0.6282
vn -0.4055 -0.6967 -0.5918
vn -0.4056 0.6966 -0.5918
vn -0.3471 -0.6965 -0.6280
vn -0.4057 0.6966 -0.5918
vn -0.4588 -0.6970 -0.5510
vn -0.4587 0.6970 -0.5511
vn -0.4587 0.6971 -0.5510
vn -0.4920 -0.7022 -0.5146
vn -0.4918 0.7020 -0.5150
vn -0.4590 -0.6969 -0.5511
vn -0.4919 0.7021 -0.5149
vn -0.5024 -0.7064 -0.4987
vn -0.5005 0.7064 -0.5005
vn -0.4921 -0.7021 -0.5146
vn -0.5024 0.7064 -0.4987
vn -0.5231 -0.7005 -0.4854
vn -0.5233 0.7005 -0.4853
vn -0.5042 -0.7064 -0.4968
vn -0.5234 0.7004 -0.4854
vn -0.5573 -0.6984 -0.4491
vn -0.5572 0.6985 -0.4491
vn -0.5231 -0.7007 -0.4852
vn -0.5574 0.6983 -0.4492
vn -0.5964 -0.6965 -0.3989
vn -0.5964 0.6964 -0.3992
vn -0.5573 -0.6984 -0.4490
vn -0.5964 0.6964 -0.3991
vn -0.6338 -0.6959 -0.3377
vn -0.6339 0.6956 -0.3380
vn -0.5965 -0.6965 -0.3989
vn -0.6338 0.6957 -0.3380
vn -0.6646 -0.6962 -0.2713
vn -0.6646 0.6961 -0.2714
vn -0.6339 -0.6958 -0.3376
vn -0.6887 -0.6959 -0.2035
vn -0.6889 0.6960 -0.2026
vn -0.6889 0.6959 -0.2026
vn -0.7053 -0.6963 -0.1331
vn -0.7052 0.6964 -0.1331
vn -0.6887 -0.6960 -0.2034
vn -0.7141 -0.6970 -0.0651
vn -0.7141 0.6970 -0.0651
vn -0.7141 0.6970 -0.0650
vn -0.7150 -0.6991 -0.0060
vn -0.7150 0.6991 -0.0060
vn -0.7141 -0.6970 -0.0650
vn -0.7120 -0.7010 0.0396
vn -0.7120 0.7010 0.0394
vn -0.7150 -0.6991 -0.0059
vn -0.7099 -0.6991 0.0851
vn -0.7099 0.6990 0.0858
vn -0.7025 -0.6969 0.1444
vn -0.7027 0.6966 0.1449
vn -0.7100 -0.6991 0.0852
vn -0.7027 0.6966 0.1450
vn -0.6856 -0.6965 0.2116
vn -0.6858 0.6964 0.2114
vn -0.7025 -0.6969 0.1445
vn -0.6859 0.6963 0.2115
vn -0.6618 -0.6961 0.2783
vn -0.6618 0.6960 0.2786
vn -0.6856 -0.6966 0.2116
vn -0.6618 0.6960 0.2785
vn -0.6311 -0.6962 0.3421
vn -0.6308 0.6966 0.3419
vn -0.6307 0.6966 0.3420
vn -0.5945 -0.6963 0.4023
vn -0.5945 0.6962 0.4022
vn -0.6310 -0.6962 0.3422
vn -0.5945 0.6962 0.4023
vn -0.5524 -0.6966 0.4579
vn -0.5524 0.6966 0.4577
vn -0.5944 -0.6963 0.4023
vn -0.5524 0.6966 0.4578
vn -0.5149 -0.7021 0.4919
vn -0.5150 0.7021 0.4918
vn -0.5523 -0.6967 0.4578
vn -0.5149 0.7021 0.4919
vn -0.4906 -0.7013 0.5172
vn -0.4906 0.7013 0.5172
vn -0.5148 -0.7021 0.4919
vn -0.4906 0.7012 0.5173
vn -0.4627 -0.7012 0.5425
vn -0.4627 0.7013 0.5423
vn -0.4628 0.7011 0.5425
vn -0.4302 -0.6990 0.5713
vn -0.4300 0.6992 0.5711
vn -0.4626 -0.7013 0.5424
vn -0.4301 0.6991 0.5713
vn -0.3832 0.6966 0.6065
vn -0.4300 -0.6992 0.5712
vn -0.3831 0.6967 0.6065
vn -0.3233 -0.6966 0.6406
vn -0.3233 0.6964 0.6407
vn -0.3830 -0.6967 0.6066
vn -0.3232 0.6964 0.6407
vn -0.2600 -0.6966 0.6687
vn -0.2602 0.6964 0.6688
vn -0.3233 -0.6965 0.6406
vn -0.2601 0.6965 0.6687
vn -0.1957 -0.6970 0.6898
vn -0.1958 0.6970 0.6898
vn -0.1314 -0.6969 0.7050
vn -0.1314 0.6971 0.7048
vn -0.1956 -0.6970 0.6899
vn -0.1314 0.6970 0.7050
vn -0.0664 -0.6971 0.7138
vn -0.0664 0.6973 0.7137
vn -0.1314 -0.6970 0.7049
vn -0.0663 0.6971 0.7139
vn -0.0070 -0.6989 0.7152
vn -0.0070 0.6990 0.7151
vn -0.0664 -0.6972 0.7137
vn -0.0070 0.6991 0.7150
vn 0.0387 -0.7011 0.7120
vn 0.0388 0.7009 0.7122
vn 0.0388 0.7010 0.7121
vn 0.0845 -0.6991 0.7101
vn 0.0843 0.6991 0.7101
vn 0.0389 -0.7010 0.7121
vn 0.0843 0.6990 0.7102
vn 0.1428 -0.6969 0.7028
vn 0.1431 0.6970 0.7026
vn 0.0846 -0.6991 0.7100
vn 0.1432 0.6970 0.7026
vn 0.2089 -0.6964 0.6866
vn 0.2089 0.6963 0.6867
vn 0.2089 0.6963 0.6866
vn 0.2758 -0.6961 0.6629
vn 0.2757 0.6961 0.6629
vn 0.2089 -0.6963 0.6866
vn 0.2758 0.6960 0.6629
vn 0.3403 -0.6959 0.6324
vn 0.3404 0.6962 0.6320
vn 0.2758 -0.6961 0.6628
vn 0.3405 0.6961 0.6321
vn 0.4013 -0.6962 0.5952
vn 0.4013 0.6963 0.5951
vn 0.3403 -0.6960 0.6323
vn 0.4013 0.6962 0.5952
vn 0.4573 -0.6966 0.5528
vn 0.4573 0.6964 0.5530
vn 0.4014 -0.6961 0.5952
vn 0.4574 0.6965 0.5530
vn 0.4914 -0.7018 0.5157
vn 0.4913 0.7019 0.5157
vn 0.4573 -0.6967 0.5528
vn 0.4914 0.7019 0.5156
vn 0.5094 -0.7039 0.4951
vn 0.5094 0.7039 0.4951
vn 0.4914 -0.7019 0.5156
vn 0.5093 0.7039 0.4950
vn 0.5326 -0.7006 0.4748
vn 0.5328 0.7005 0.4748
vn 0.5094 -0.7038 0.4951
vn 0.5327 0.7006 0.4747
vn 0.5647 -0.6989 0.4390
vn 0.5648 0.6988 0.4390
vn 0.5329 -0.7003 0.4749
vn 0.5649 0.6988 0.4388
vn 0.6019 -0.6965 0.3906
vn 0.6017 0.6967 0.3906
vn 0.5647 -0.6988 0.4390
vn 0.6019 0.6966 0.3905
vn 0.6376 -0.6958 0.3305
vn 0.6375 0.6960 0.3304
vn 0.6018 -0.6966 0.3906
vn 0.6376 0.6960 0.3303
vn 0.6668 -0.6964 0.2654
vn 0.6668 0.6962 0.2657
vn 0.6377 -0.6958 0.3304
vn 0.6669 0.6963 0.2655
vn 0.6899 -0.6962 0.1984
vn 0.6899 0.6962 0.1985
vn 0.6669 -0.6964 0.2653
vn 0.6899 0.6961 0.1985
vn 0.7053 -0.6967 0.1309
vn 0.7053 0.6967 0.1309
vn 0.6899 -0.6962 0.1983
vn 0.7054 0.6967 0.1309
vn 0.7141 -0.6971 0.0642
vn 0.7142 0.6970 0.0641
vn 0.7054 -0.6967 0.1309
vn 0.7148 -0.6993 0.0056
vn 0.7146 0.6996 0.0058
vn 0.7145 0.6996 0.0058
vn 0.7122 -0.7008 -0.0402
vn 0.7122 0.7008 -0.0402
vn 0.7149 -0.6992 0.0056
vn 0.7123 0.7008 -0.0402
vn 0.7100 -0.6988 -0.0874
vn 0.7100 0.6988 -0.0874
vn 0.7019 -0.6968 -0.1478
vn 0.7018 0.6968 -0.1479
vn 0.7018 0.6969 -0.1479
vn 0.6847 -0.6963 -0.2156
vn 0.6849 0.6960 -0.2157
vn 0.6848 0.6960 -0.2158
vn 0.6605 -0.6960 -0.2816
vn 0.6605 0.6960 -0.2816
vn 0.6846 -0.6962 -0.2157
vn 0.6604 0.6960 -0.2817
vn 0.6291 -0.6964 -0.3453
vn 0.6292 0.6963 -0.3454
vn 0.6605 -0.6960 -0.2818
vn 0.6292 0.6963 -0.3455
vn 0.5923 -0.6962 -0.4055
vn 0.5924 0.6962 -0.4055
vn 0.6291 -0.6964 -0.3454
vn 0.5505 -0.6971 -0.4594
vn 0.5506 0.6969 -0.4594
vn 0.5924 -0.6962 -0.4055
vn 0.5506 0.6970 -0.4594
vn 0.5134 -0.7019 -0.4938
vn 0.5506 -0.6970 -0.4594
vn 0.5137 0.7017 -0.4936
vn 0.5017 -0.7059 -0.5000
vn 0.4988 0.7059 -0.5030
vn 0.5133 -0.7019 -0.4938
vt 0.373313 0.553378
vt 0.370881 0.550605
vt 0.376812 0.556936
vt 0.626256 0.804787
vt 0.621118 0.799172
vt 0.634564 0.816911
vt 0.630738 0.810700
vt 0.640248 0.830228
vt 0.637734 0.823420
vt 0.643309 0.844737
vt 0.642107 0.837333
vt 0.643892 0.855072
vt 0.643747 0.849838
vt 0.642521 0.870436
vt 0.643550 0.862889
vt 0.638407 0.884727
vt 0.640807 0.877716
vt 0.631549 0.897944
vt 0.635321 0.891470
vt 0.623740 0.908139
vt 0.627092 0.904151
vt 0.553830 0.978261
vt 0.620083 0.912008
vt 0.542740 0.987443
vt 0.548449 0.983165
vt 0.530337 0.994122
vt 0.536702 0.991096
vt 0.516623 0.998296
vt 0.523644 0.996522
vt 0.504192 0.999861
vt 0.509274 0.999443
vt 0.489892 0.999574
vt 0.498965 1.000000
vt 0.475284 0.996861
vt 0.482439 0.998530
vt 0.461867 0.991643
vt 0.468426 0.994565
vt 0.449644 0.983922
vt 0.455607 0.988096
vt 0.443064 0.978261
vt 0.446774 0.981600
vt 0.017636 0.552341
vt 0.022774 0.557971
vt 0.009328 0.540098
vt 0.013154 0.546383
vt 0.003644 0.526542
vt 0.006158 0.533484
vt 0.000583 0.511675
vt 0.001786 0.519273
vt 0.000000 0.501035
vt 0.000146 0.506428
vt 0.001431 0.485234
vt 0.000358 0.492985
vt 0.005724 0.470625
vt 0.003220 0.477781
vt 0.012880 0.457209
vt 0.008944 0.463768
vt 0.021029 0.446940
vt 0.017530 0.450948
vt 0.445135 0.022774
vt 0.024845 0.443064
vt 0.456225 0.013532
vt 0.450516 0.017855
vt 0.468628 0.006675
vt 0.462263 0.009805
vt 0.482342 0.002203
vt 0.475321 0.004141
vt 0.500000 0.000000
vt 0.490948 0.000696
vt 0.515364 0.000934
vt 0.507816 0.000109
vt 0.529655 0.004730
vt 0.522644 0.002475
vt 0.542872 0.011389
vt 0.536398 0.007702
vt 0.553067 0.019124
vt 0.549078 0.015791
vt 0.620083 0.085921
vt 0.556936 0.022774
vt 0.629325 0.097569
vt 0.625002 0.091566
vt 0.636182 0.110647
vt 0.633052 0.103929
vt 0.640919 0.126430
vt 0.638716 0.117723
vt 0.642857 0.143892
vt 0.642161 0.134281
vt 0.641856 0.160817
vt 0.642701 0.153214
vt 0.638199 0.174948
vt 0.640355 0.168061
vt 0.632542 0.186645
vt 0.635386 0.181477
vt 0.625486 0.196235
vt 0.628527 0.192518
vt 0.378882 0.443064
vt 0.622153 0.199793
vt 0.366508 0.544792
vt 0.373277 0.448928
vt 0.362792 0.538620
vt 0.368388 0.455089
vt 0.359731 0.532091
vt 0.364214 0.461549
vt 0.357326 0.525204
vt 0.360755 0.468306
vt 0.358012 0.475362
vt 0.355577 0.517959
vt 0.355985 0.482716
vt 0.354484 0.510357
vt 0.354673 0.490368
vt 0.354037 0.501035
vt 0.354196 0.495636
s 1
f 1/1/1 3/2/2 2/2/3
f 1/1/1 4/1/4 3/2/2
f 6/3/5 8/4/6 7/5/7
f 8/4/6 10/6/8 9/7/9
f 10/6/8 12/8/10 11/9/11
f 12/8/10 14/10/12 13/11/13
f 14/10/12 16/12/14 15/13/15
f 16/12/14 18/14/16 17/15/17
f 18/14/16 20/16/18 19/17/19
f 20/16/18 22/18/20 21/19/21
f 22/18/20 24/20/22 23/21/23
f 24/20/22 26/22/24 25/23/25
f 26/22/24 28/24/26 27/25/27
f 28/24/26 30/26/28 29/27/29
f 30/26/28 32/28/30 31/29/31
f 32/28/30 34/30/32 33/31/33
f 34/30/32 36/32/34 35/33/35
f 36/32/34 38/34/36 37/35/37
f 38/34/36 40/36/38 39/37/39
f 40/36/38 42/38/40 41/39/41
f 42/38/40 44/40/42 43/41/43
f 44/40/42 46/42/44 45/43/45
f 46/42/44 48/44/46 47/45/47
f 48/44/46 50/46/48 49/47/49
f 50/46/48 52/48/50 51/49/51
f 52/48/50 54/50/52 53/51/53
f 54/50/52 56/52/54 55/53/55
f 56/52/54 58/54/56 57/55/57
f 58/54/56 60/56/58 59/57/59
f 60/56/58 62/58/60 61/59/61
f 62/58/60 64/60/62 63/61/63
f 64/60/62 66/62/64 65/63/65
f 66/62/64 68/64/66 67/65/67
f 68/64/66 70/66/68 69/67/69
f 70/66/68 72/68/70 71/69/71
f 72/68/70 74/70/72 73/71/73
f 74/70/72 76/72/74 75/73/75
f 76/72/74 78/74/76 77/75/77
f 78/74/76 80/76/78 79/77/79
f 80/76/78 82/78/80 81/79/81
f 82/78/80 84/80/82 83/81/83
f 84/80/82 86/82/84 85/83/85
f 86/82/84 88/84/86 87/85/87
f 88/84/86 90/86/88 89/87/89
f 90/86/88 92/88/90 91/89/91
f 92/88/90 94/90/92 93/91/93
f 94/90/92 96/92/94 95/93/95
f 96/92/94 98/94/96 97/95/97
f 98/94/96 100/96/98 99/97/99
f 6/3/5 10/6/8 8/4/6
f 10/6/8 14/10/12 12/8/10
f 14/10/12 18/14/16 16/12/14
f 18/14/16 22/18/20 20/16/18
f 22/18/20 26/22/24 24/20/22
f 26/22/24 30/26/28 28/24/26
f 30/26/28 34/30/32 32/28/30
f 34/30/32 38/34/36 36/32/34
f 38/34/36 42/38/40 40/36/38
f 42/38/40 46/42/44 44/40/42
f 46/42/44 50/46/48 48/44/46
f 50/46/48 54/50/52 52/48/50
f 54/50/52 58/54/56 56/52/54
f 58/54/56 62/58/60 60/56/58
f 62/58/60 66/62/64 64/60/62
f 66/62/64 70/66/68 68/64/66
f 70/66/68 74/70/72 72/68/70
f 74/70/72 78/74/76 76/72/74
f 78/74/76 82/78/80 80/76/78
f 82/78/80 86/82/84 84/80/82
f 86/82/84 90/86/88 88/84/86
f 90/86/88 94/90/92 92/88/90
f 94/90/92 98/94/96 96/92/94
f 5/1/100 10/6/8 6/3/5
f 10/6/8 18/14/16 14/10/12
f 18/14/16 26/22/24 22/18/20
f 26/22/24 34/30/32 30/26/28
f 34/30/32 42/38/40 38/34/36
f 42/38/40 50/46/48 46/42/44
f 50/46/48 58/54/56 54/50/52
f 58/54/56 66/62/64 62/58/60
f 66/62/64 74/70/72 70/66/68
f 74/70/72 82/78/80 78/74/76
f 82/78/80 90/86/88 86/82/84
f 90/86/88 98/94/96 94/90/92
f 5/1/100 18/14/16 10/6/8
f 18/14/16 34/30/32 26/22/24
f 34/30/32 50/46/48 42/38/40
f 50/46/48 66/62/64 58/54/56
f 66/62/64 82/78/80 74/70/72
f 82/78/80 98/94/96 90/86/88
f 5/1/100 34/30/32 18/14/16
f 50/46/48 82/78/80 66/62/64
f 82/78/80 100/96/98 98/94/96
f 116/2/101 34/30/32 5/1/100
f 50/46/48 100/96/98 82/78/80
f 115/98/102 34/30/32 116/2/101
f 50/46/48 101/99/103 100/96/98
f 114/100/104 34/30/32 115/98/102
f 50/46/48 102/101/105 101/99/103
f 113/102/106 34/30/32 114/100/104
f 50/46/48 103/103/107 102/101/105
f 112/104/108 34/30/32 113/102/106
f 50/46/48 104/105/109 103/103/107
f 112/104/108 50/46/48 34/30/32
f 50/46/48 105/106/110 104/105/109
f 111/107/111 50/46/48 112/104/108
f 50/46/48 106/108/112 105/106/110
f 110/109/113 50/46/48 111/107/111
f 50/46/48 107/110/114 106/108/112
f 109/111/115 50/46/48 110/109/113
f 50/46/48 108/112/116 107/110/114
f 108/112/116 50/46/48 109/111/115
f 117/3/117 119/1/118 118/1/119
f 117/3/117 120/3/120 119/1/118
f 138/96/121 140/94/122 139/97/123
f 140/94/122 142/92/124 141/95/125
f 142/92/124 144/90/126 143/93/127
f 144/90/126 146/88/128 145/91/129
f 146/88/128 148/86/130 147/89/131
f 148/86/130 150/84/132 149/87/133
f 150/84/132 152/82/134 151/85/135
f 152/82/134 154/80/136 153/83/137
f 154/80/136 156/78/138 155/81/139
f 156/78/138 158/76/140 157/79/141
f 158/76/140 160/74/142 159/77/143
f 160/74/142 162/72/144 161/75/145
f 162/72/144 164/70/146 163/73/147
f 164/70/146 166/68/148 165/71/149
f 166/68/148 168/66/150 167/69/151
f 168/66/150 170/64/152 169/67/153
f 170/64/152 172/62/154 171/65/155
f 172/62/154 174/60/156 173/63/157
f 174/60/156 176/58/158 175/61/159
f 176/58/158 178/56/160 177/59/161
f 178/56/160 180/54/162 179/57/163
f 180/54/162 182/52/164 181/55/165
f 182/52/164 184/50/166 183/53/167
f 184/50/166 186/48/168 185/51/169
f 186/48/168 188/46/170 187/49/171
f 188/46/170 190/44/172 189/47/173
f 190/44/172 192/42/174 191/45/175
f 192/42/174 194/40/176 193/43/177
f 194/40/176 196/38/178 195/41/179
f 196/38/178 198/36/180 197/39/181
f 198/36/180 200/34/182 199/37/183
f 200/34/182 202/32/184 201/35/185
f 202/32/184 204/30/186 203/33/187
f 204/30/186 206/28/188 205/31/189
f 206/28/188 208/26/190 207/29/191
f 208/26/190 210/24/192 209/27/193
f 210/24/192 212/22/194 211/25/195
f 212/22/194 214/20/196 213/23/197
f 214/20/196 216/18/198 215/21/199
f 216/18/198 218/16/200 217/19/201
f 218/16/200 220/14/202 219/17/203
f 220/14/202 222/12/204 221/15/205
f 222/12/204 224/10/206 223/13/207
f 224/10/206 226/8/208 225/11/209
f 226/8/208 228/6/210 227/9/211
f 228/6/210 230/4/212 229/7/213
f 230/4/212 232/3/214 231/5/215
f 138/96/121 142/92/124 140/94/122
f 142/92/124 146/88/128 144/90/126
f 146/88/128 150/84/132 148/86/130
f 150/84/132 154/80/136 152/82/134
f 154/80/136 158/76/140 156/78/138
f 158/76/140 162/72/144 160/74/142
f 162/72/144 166/68/148 164/70/146
f 166/68/148 170/64/152 168/66/150
f 170/64/152 174/60/156 172/62/154
f 174/60/156 178/56/160 176/58/158
f 178/56/160 182/52/164 180/54/162
f 182/52/164 186/48/168 184/50/166
f 186/48/168 190/44/172 188/46/170
f 190/44/172 194/40/176 192/42/174
f 194/40/176 198/36/180 196/38/178
f 198/36/180 202/32/184 200/34/182
f 202/32/184 206/28/188 204/30/186
f 206/28/188 210/24/192 208/26/190
f 210/24/192 214/20/196 212/22/194
f 214/20/196 218/16/200 216/18/198
f 218/16/200 222/12/204 220/14/202
f 222/12/204 226/8/208 224/10/206
f 226/8/208 230/4/212 228/6/210
f 138/96/121 146/88/128 142/92/124
f 146/88/128 154/80/136 150/84/132
f 154/80/136 162/72/144 158/76/140
f 162/72/144 170/64/152 166/68/148
f 170/64/152 178/56/160 174/60/156
f 178/56/160 186/48/168 182/52/164
f 186/48/168 194/40/176 190/44/172
f 194/40/176 202/32/184 198/36/180
f 202/32/184 210/24/192 206/28/188
f 210/24/192 218/16/200 214/20/196
f 218/16/200 226/8/208 222/12/204
f 226/8/208 232/3/214 230/4/212
f 137/99/216 146/88/128 138/96/121
f 146/88/128 162/72/144 154/80/136
f 162/72/144 178/56/160 170/64/152
f 178/56/160 194/40/176 186/48/168
f 194/40/176 210/24/192 202/32/184
f 210/24/192 226/8/208 218/16/200
f 226/8/208 121/1/217 232/3/214
f 137/99/216 162/72/144 146/88/128
f 178/56/160 210/24/192 194/40/176
f 210/24/192 121/1/217 226/8/208
f 136/101/218 162/72/144 137/99/216
f 178/56/160 121/1/217 210/24/192
f 135/103/219 162/72/144 136/101/218
f 178/56/160 122/2/220 121/1/217
f 134/105/221 162/72/144 135/103/219
f 178/56/160 123/98/222 122/2/220
f 133/106/223 162/72/144 134/105/221
f 178/56/160 124/100/224 123/98/222
f 133/106/223 178/56/160 162/72/144
f 178/56/160 125/102/225 124/100/224
f 132/108/226 178/56/160 133/106/223
f 178/56/160 126/104/227 125/102/225
f 131/110/228 178/56/160 132/108/226
f 178/56/160 127/107/229 126/104/227
f 130/112/230 178/56/160 131/110/228
f 178/56/160 128/109/231 127/107/229
f 129/111/232 178/56/160 130/112/230
f 178/56/160 129/111/232 128/109/231
f 233/2/233 235/98/234 234/98/235
f 233/2/233 236/2/236 235/98/234
f 237/98/237 239/100/238 238/100/239
f 237/98/237 240/98/240 239/100/238
f 241/100/241 243/102/242 242/102/243
f 241/100/241 244/100/244 243/102/242
f 245/102/245 247/104/246 246/104/247
f 245/102/245 248/102/248 247/104/246
f 249/104/247 251/107/249 250/107/250
f 249/104/247 252/104/251 251/107/249
f 253/107/252 255/109/253 254/109/254
f 253/107/252 256/107/255 255/109/253
f 257/109/256 259/111/257 258/111/258
f 257/109/256 260/109/259 259/111/257
f 261/111/260 263/112/261 262/112/262
f 261/111/260 264/111/257 263/112/261
f 265/112/263 267/110/264 266/110/265
f 265/112/263 268/112/261 267/110/264
f 269/110/266 271/108/267 270/108/268
f 269/110/266 272/110/269 271/108/267
f 273/108/268 275/106/270 274/106/271
f 273/108/268 276/108/272 275/106/270
f 277/106/273 279/105/274 278/105/275
f 277/106/273 280/106/276 279/105/274
f 281/105/277 283/103/278 282/103/279
f 281/105/277 284/105/274 283/103/278
f 285/103/280 287/101/281 286/101/282
f 285/103/280 288/103/283 287/101/281
f 289/101/284 291/99/285 290/99/286
f 289/101/284 292/101/287 291/99/285
f 293/99/288 295/96/289 294/96/290
f 293/99/288 296/99/291 295/96/289
f 297/96/292 299/97/293 298/97/294
f 297/96/292 300/96/295 299/97/293
f 301/97/296 303/94/297 302/94/298
f 301/97/296 304/97/299 303/94/297
f 305/94/300 307/95/301 306/95/97
f 305/94/300 308/94/302 307/95/301
f 309/95/303 311/92/304 310/92/305
f 309/95/303 312/95/306 311/92/304
f 313/92/305 315/93/307 314/93/308
f 313/92/305 316/92/309 315/93/307
f 317/93/310 319/90/311 318/90/312
f 317/93/310 320/93/313 319/90/311
f 321/90/314 323/91/315 322/91/316
f 321/90/314 324/90/311 323/91/315
f 325/91/317 327/88/318 326/88/319
f 325/91/317 328/91/315 327/88/318
f 329/88/320 331/89/321 330/89/322
f 329/88/320 332/88/323 331/89/321
f 333/89/324 335/86/325 334/86/326
f 333/89/324 336/89/321 335/86/325
f 337/86/327 339/87/328 338/87/329
f 337/86/327 340/86/330 339/87/328
f 341/87/331 343/84/332 342/84/333
f 341/87/331 344/87/328 343/84/332
f 345/84/333 347/85/334 346/85/335
f 345/84/333 348/84/336 347/85/334
f 349/85/337 351/82/338 350/82/339
f 349/85/337 352/85/340 351/82/338
f 353/82/341 355/83/342 354/83/343
f 353/82/341 356/82/338 355/83/342
f 357/83/344 359/80/345 358/80/346
f 357/83/344 360/83/342 359/80/345
f 361/80/347 363/81/348 362/81/349
f 361/80/347 364/80/350 363/81/348
f 365/81/351 367/78/352 366/78/353
f 365/81/351 368/81/348 367/78/352
f 369/78/354 371/79/355 370/79/356
f 369/78/354 372/78/357 371/79/355
f 373/79/358 375/76/359 374/76/360
f 373/79/358 376/79/361 375/76/359
f 377/76/362 379/77/363 378/77/364
f 377/76/362 380/76/365 379/77/363
f 381/77/366 383/74/367 382/74/368
f 381/77/366 384/77/369 383/74/367
f 385/74/368 387/75/370 386/75/371
f 385/74/368 388/74/367 387/75/370
f 389/75/372 391/72/373 390/72/374
f 389/75/372 392/75/375 391/72/373
f 393/72/376 395/73/377 394/73/378
f 393/72/376 396/72/379 395/73/377
f 397/73/380 399/70/381 398/70/382
f 397/73/380 400/73/383 399/70/381
f 401/70/384 403/71/385 402/71/386
f 401/70/384 404/70/387 403/71/385
f 405/71/388 407/68/389 406/68/390
f 405/71/388 408/71/391 407/68/389
f 409/68/390 411/69/392 410/69/393
f 409/68/390 412/68/394 411/69/392
f 413/69/395 415/66/396 414/66/397
f 413/69/395 416/69/398 415/66/396
f 417/66/399 419/67/400 418/67/401
f 417/66/399 420/66/396 419/67/400
f 421/67/402 423/64/403 422/64/66
f 421/67/402 424/67/153 423/64/403
f 425/64/404 427/65/155 426/65/405
f 425/64/404 428/64/406 427/65/155
f 429/65/407 431/62/408 430/62/409
f 429/65/407 432/65/410 431/62/408
f 433/62/411 435/63/412 434/63/413
f 433/62/411 436/62/408 435/63/412
f 437/63/414 439/60/415 438/60/416
f 437/63/414 440/63/417 439/60/415
f 441/60/418 443/61/419 442/61/420
f 441/60/418 444/60/421 443/61/419
f 445/61/422 447/58/423 446/58/424
f 445/61/422 448/61/425 447/58/423
f 449/58/426 451/59/427 450/59/428
f 449/58/426 452/58/429 451/59/427
f 453/59/430 455/56/431 454/56/432
f 453/59/430 456/59/433 455/56/431
f 457/56/434 459/57/435 458/57/436
f 457/56/434 460/56/437 459/57/435
f 461/57/438 463/54/439 462/54/440
f 461/57/438 464/57/441 463/54/439
f 465/54/440 467/55/442 466/55/443
f 465/54/440 468/54/439 467/55/442
f 469/55/444 471/52/445 470/52/446
f 469/55/444 472/55/447 471/52/445
f 473/52/446 475/53/448 474/53/449
f 473/52/446 476/52/445 475/53/448
f 477/53/450 479/50/451 478/50/452
f 477/53/450 480/53/453 479/50/451
f 481/50/452 483/51/454 482/51/455
f 481/50/452 484/50/456 483/51/454
f 485/51/455 487/48/457 486/48/458
f 485/51/455 488/51/454 487/48/457
f 489/48/458 491/49/459 490/49/460
f 489/48/458 492/48/461 491/49/459
f 493/49/462 495/46/463 494/46/464
f 493/49/462 496/49/465 495/46/463
f 497/46/466 499/47/467 498/47/468
f 497/46/466 500/46/469 499/47/467
f 501/47/470 503/44/471 502/44/472
f 501/47/470 504/47/467 503/44/471
f 505/44/473 507/45/474 506/45/475
f 505/44/473 508/44/476 507/45/474
f 509/45/477 511/42/478 510/42/479
f 509/45/477 512/45/480 511/42/478
f 513/42/481 515/43/482 514/43/483
f 513/42/481 516/42/484 515/43/482
f 517/43/485 519/40/486 518/40/487
f 517/43/485 520/43/488 519/40/486
f 521/40/489 523/41/490 522/41/491
f 521/40/489 524/40/486 523/41/490
f 525/41/492 527/38/493 526/38/494
f 525/41/492 528/41/495 527/38/493
f 529/38/496 531/39/181 530/39/497
f 529/38/496 532/38/498 531/39/181
f 533/39/499 535/36/500 534/36/501
f 533/39/499 536/39/502 535/36/500
f 537/36/503 539/37/504 538/37/505
f 537/36/503 540/36/506 539/37/504
f 541/37/507 543/34/508 542/34/36
f 541/37/507 544/37/183 543/34/508
f 545/34/509 547/35/510 546/35/511
f 545/34/509 548/34/512 547/35/510
f 549/35/513 551/32/514 550/32/515
f 549/35/513 552/35/516 551/32/514
f 553/32/517 555/33/518 554/33/519
f 553/32/517 556/32/520 555/33/518
f 557/33/521 559/30/522 558/30/523
f 557/33/521 560/33/518 559/30/522
f 561/30/524 563/31/525 562/31/526
f 561/30/524 564/30/527 563/31/525
f 565/31/528 567/28/529 566/28/530
f 565/31/528 568/31/531 567/28/529
f 569/28/532 571/29/533 570/29/534
f 569/28/532 572/28/529 571/29/533
f 573/29/535 575/26/536 574/26/537
f 573/29/535 576/29/538 575/26/536
f 577/26/539 579/27/540 578/27/541
f 577/26/539 580/26/542 579/27/540
f 581/27/543 583/24/544 582/24/545
f 581/27/543 584/27/546 583/24/544
f 585/24/547 587/25/548 586/25/549
f 585/24/547 588/24/550 587/25/548
f 589/25/551 591/22/552 590/22/553
f 589/25/551 592/25/554 591/22/552
f 593/22/555 595/23/556 594/23/557
f 593/22/555 596/22/558 595/23/556
f 597/23/559 599/20/560 598/20/561
f 597/23/559 600/23/562 599/20/560
f 601/20/563 603/21/564 602/21/565
f 601/20/563 604/20/566 603/21/564
f 605/21/567 607/18/568 606/18/569
f 605/21/567 608/21/570 607/18/568
f 609/18/571 611/19/572 610/19/573
f 609/18/571 612/18/574 611/19/572
f 613/19/575 615/16/576 614/16/577
f 613/19/575 616/19/578 615/16/576
f 617/16/579 619/17/580 618/17/581
f 617/16/579 620/16/582 619/17/580
f 621/17/583 623/14/584 622/14/585
f 621/17/583 624/17/586 623/14/584
f 625/14/587 627/15/588 626/15/589
f 625/14/587 628/14/590 627/15/588
f 629/15/589 631/12/591 630/12/592
f 629/15/589 632/15/588 631/12/591
f 633/12/593 635/13/594 634/13/595
f 633/12/593 636/12/596 635/13/594
f 637/13/597 639/10/598 638/10/599
f 637/13/597 640/13/594 639/10/598
f 641/10/599 643/11/600 642/11/601
f 641/10/599 644/10/598 643/11/600
f 645/11/602 647/8/603 646/8/604
f 645/11/602 648/11/600 647/8/603
f 649/8/605 651/9/606 650/9/607
f 649/8/605 652/8/608 651/9/606
f 653/9/609 655/6/610 654/6/611
f 653/9/609 656/9/612 655/6/610
f 657/6/613 659/7/614 658/7/615
f 657/6/613 660/6/616 659/7/614
f 661/7/615 663/4/617 662/4/618
f 661/7/615 664/7/619 663/4/617
f 665/4/620 667/5/621 666/5/7
f 665/4/620 668/4/622 667/5/621
f 669/5/623 671/3/624 670/3/625
f 669/5/623 672/5/626 671/3/624
