v -0.170641 0.01885 0.186982
v -0.164506 0.018927 0.149797
v -0.170641 0.018939 0.144287
v -0.164506 0.018927 0.149797
v -0.158246 0.018939 0.144287
v -0.170641 0.018939 0.144287
v -0.164506 0.018927 0.149797
v -0.156054 0.018939 0.144399
v -0.158246 0.018939 0.144287
v -0.164506 0.018927 0.149797
v -0.154077 0.018938 0.14472
v -0.156054 0.018939 0.144399
v -0.164506 0.018927 0.149797
v -0.152309 0.018937 0.145232
v -0.154077 0.018938 0.14472
v -0.164506 0.018927 0.149797
v -0.150748 0.018936 0.145915
v -0.152309 0.018937 0.145232
v -0.164506 0.018927 0.149797
v -0.149386 0.018934 0.146749
v -0.150748 0.018936 0.145915
v -0.164506 0.018927 0.149797
v -0.148222 0.018932 0.147715
v -0.149386 0.018934 0.146749
v -0.164506 0.018927 0.149797
v -0.147249 0.01893 0.148793
v -0.148222 0.018932 0.147715
v -0.164506 0.018927 0.149797
v -0.158872 0.018927 0.149797
v -0.147249 0.01893 0.148793
v -0.158872 0.018927 0.149797
v -0.146463 0.018927 0.149963
v -0.147249 0.01893 0.148793
v -0.170641 0.01885 0.186982
v -0.164506 0.018901 0.162567
v -0.164506 0.018927 0.149797
v -0.157542 0.018927 0.149852
v -0.146463 0.018927 0.149963
v -0.158872 0.018927 0.149797
v -0.156364 0.018927 0.150015
v -0.146463 0.018927 0.149963
v -0.157542 0.018927 0.149852
v -0.156364 0.018927 0.150015
v -0.145859 0.018925 0.151207
v -0.146463 0.018927 0.149963
v -0.155331 0.018926 0.150276
v -0.145859 0.018925 0.151207
v -0.156364 0.018927 0.150015
v -0.154436 0.018926 0.150629
v -0.145859 0.018925 0.151207
v -0.155331 0.018926 0.150276
v -0.153673 0.018925 0.151064
v -0.145859 0.018925 0.151207
v -0.154436 0.018926 0.150629
v -0.153034 0.018924 0.151572
v -0.145859 0.018925 0.151207
v -0.153673 0.018925 0.151064
v -0.153034 0.018924 0.151572
v -0.145434 0.018922 0.152504
v -0.145859 0.018925 0.151207
v -0.152513 0.018923 0.152149
v -0.145434 0.018922 0.152504
v -0.153034 0.018924 0.151572
v -0.152102 0.018921 0.152783
v -0.145434 0.018922 0.152504
v -0.152513 0.018923 0.152149
v -0.152102 0.018921 0.152783
v -0.145182 0.018919 0.153835
v -0.145434 0.018922 0.152504
v -0.151794 0.01892 0.153468
v -0.145182 0.018919 0.153835
v -0.152102 0.018921 0.152783
v -0.151583 0.018918 0.154195
v -0.145182 0.018919 0.153835
v -0.151794 0.01892 0.153468
v -0.151583 0.018918 0.154195
v -0.145099 0.018916 0.15518
v -0.145182 0.018919 0.153835
v -0.151461 0.018917 0.154956
v -0.145099 0.018916 0.15518
v -0.151583 0.018918 0.154195
v -0.151422 0.018915 0.155743
v -0.145099 0.018916 0.15518
v -0.151461 0.018917 0.154956
v -0.151422 0.018915 0.155743
v -0.145143 0.018914 0.156259
v -0.145099 0.018916 0.15518
v -0.151484 0.018913 0.156838
v -0.145143 0.018914 0.156259
v -0.151422 0.018915 0.155743
v -0.151484 0.018913 0.156838
v -0.145273 0.018912 0.157274
v -0.145143 0.018914 0.156259
v -0.151668 0.018911 0.157836
v -0.145273 0.018912 0.157274
v -0.151484 0.018913 0.156838
v -0.151668 0.018911 0.157836
v -0.145492 0.01891 0.158228
v -0.145273 0.018912 0.157274
v -0.151977 0.018909 0.158738
v -0.145492 0.01891 0.158228
v -0.151668 0.018911 0.157836
v -0.151977 0.018909 0.158738
v -0.1458 0.018908 0.159122
v -0.145492 0.01891 0.158228
v -0.15241 0.018907 0.159544
v -0.1458 0.018908 0.159122
v -0.151977 0.018909 0.158738
v -0.15241 0.018907 0.159544
v -0.146198 0.018906 0.159957
v -0.1458 0.018908 0.159122
v -0.152968 0.018906 0.160254
v -0.146198 0.018906 0.159957
v -0.15241 0.018907 0.159544
v -0.152968 0.018906 0.160254
v -0.146688 0.018905 0.160736
v -0.146198 0.018906 0.159957
v -0.153652 0.018904 0.160869
v -0.146688 0.018905 0.160736
v -0.152968 0.018906 0.160254
v -0.153652 0.018904 0.160869
v -0.14727 0.018903 0.161461
v -0.146688 0.018905 0.160736
v -0.154463 0.018903 0.161389
v -0.14727 0.018903 0.161461
v -0.153652 0.018904 0.160869
v -0.155401 0.018902 0.161814
v -0.14727 0.018903 0.161461
v -0.154463 0.018903 0.161389
v -0.155401 0.018902 0.161814
v -0.147947 0.018902 0.162132
v -0.14727 0.018903 0.161461
v -0.156467 0.018902 0.162144
v -0.147947 0.018902 0.162132
v -0.155401 0.018902 0.161814
v -0.156467 0.018902 0.162144
v -0.148718 0.0189 0.162751
v -0.147947 0.018902 0.162132
v -0.157661 0.018901 0.162379
v -0.148718 0.0189 0.162751
v -0.156467 0.018902 0.162144
v -0.158984 0.018901 0.16252
v -0.148718 0.0189 0.162751
v -0.157661 0.018901 0.162379
v -0.160437 0.018901 0.162567
v -0.148718 0.0189 0.162751
v -0.158984 0.018901 0.16252
v -0.170641 0.01885 0.186982
v -0.164506 0.018889 0.168077
v -0.164506 0.018901 0.162567
v -0.164506 0.018889 0.168077
v -0.160437 0.018901 0.162567
v -0.164506 0.018901 0.162567
v -0.164506 0.018889 0.168077
v -0.148718 0.0189 0.162751
v -0.160437 0.018901 0.162567
v -0.164506 0.018889 0.168077
v -0.149584 0.018899 0.163321
v -0.148718 0.0189 0.162751
v -0.164506 0.018889 0.168077
v -0.150548 0.018898 0.163844
v -0.149584 0.018899 0.163321
v -0.164506 0.018889 0.168077
v -0.15161 0.018897 0.16432
v -0.150548 0.018898 0.163844
v -0.164506 0.018889 0.168077
v -0.15161 0.018897 0.164446
v -0.15161 0.018897 0.16432
v -0.164506 0.018889 0.168077
v -0.150067 0.018896 0.164805
v -0.15161 0.018897 0.164446
v -0.164506 0.018889 0.168077
v -0.148632 0.018895 0.165284
v -0.150067 0.018896 0.164805
v -0.164506 0.018889 0.168077
v -0.147312 0.018894 0.165879
v -0.148632 0.018895 0.165284
v -0.164506 0.018889 0.168077
v -0.14611 0.018892 0.166583
v -0.147312 0.018894 0.165879
v -0.164506 0.018889 0.168077
v -0.145032 0.018891 0.167393
v -0.14611 0.018892 0.166583
v -0.164506 0.018889 0.168077
v -0.157119 0.018889 0.168077
v -0.145032 0.018891 0.167393
v -0.157119 0.018889 0.168077
v -0.144082 0.018889 0.168304
v -0.145032 0.018891 0.167393
v -0.170641 0.01885 0.186982
v -0.164506 0.018861 0.181473
v -0.164506 0.018889 0.168077
v -0.155579 0.018889 0.168133
v -0.144082 0.018889 0.168304
v -0.157119 0.018889 0.168077
v -0.15418 0.018889 0.168298
v -0.144082 0.018889 0.168304
v -0.155579 0.018889 0.168133
v -0.152922 0.018888 0.168567
v -0.144082 0.018889 0.168304
v -0.15418 0.018889 0.168298
v -0.152922 0.018888 0.168567
v -0.143265 0.018887 0.169308
v -0.144082 0.018889 0.168304
v -0.151803 0.018888 0.168934
v -0.143265 0.018887 0.169308
v -0.152922 0.018888 0.168567
v -0.150821 0.018887 0.169393
v -0.143265 0.018887 0.169308
v -0.151803 0.018888 0.168934
v -0.150821 0.018887 0.169393
v -0.142586 0.018884 0.170404
v -0.143265 0.018887 0.169308
v -0.149975 0.018885 0.169939
v -0.142586 0.018884 0.170404
v -0.150821 0.018887 0.169393
v -0.149263 0.018884 0.170565
v -0.142586 0.018884 0.170404
v -0.149975 0.018885 0.169939
v -0.149263 0.018884 0.170565
v -0.142049 0.018882 0.171585
v -0.142586 0.018884 0.170404
v -0.148684 0.018883 0.171266
v -0.142049 0.018882 0.171585
v -0.149263 0.018884 0.170565
v -0.148236 0.018881 0.172038
v -0.142049 0.018882 0.171585
v -0.148684 0.018883 0.171266
v -0.148236 0.018881 0.172038
v -0.14166 0.018879 0.172846
v -0.142049 0.018882 0.171585
v -0.147919 0.018879 0.172873
v -0.14166 0.018879 0.172846
v -0.148236 0.018881 0.172038
v -0.147919 0.018879 0.172873
v -0.141423 0.018877 0.174182
v -0.14166 0.018879 0.172846
v -0.147729 0.018877 0.173766
v -0.141423 0.018877 0.174182
v -0.147919 0.018879 0.172873
v -0.147666 0.018875 0.174712
v -0.141423 0.018877 0.174182
v -0.147729 0.018877 0.173766
v -0.147666 0.018875 0.174712
v -0.141343 0.018874 0.175589
v -0.141423 0.018877 0.174182
v -0.147708 0.018874 0.175516
v -0.141343 0.018874 0.175589
v -0.147666 0.018875 0.174712
v -0.147843 0.018872 0.176322
v -0.141343 0.018874 0.175589
v -0.147708 0.018874 0.175516
v -0.147843 0.018872 0.176322
v -0.141427 0.018871 0.176917
v -0.141343 0.018874 0.175589
v -0.148082 0.01887 0.177115
v -0.141427 0.018871 0.176917
v -0.147843 0.018872 0.176322
v -0.148082 0.01887 0.177115
v -0.141685 0.018868 0.178258
v -0.141427 0.018871 0.176917
v -0.148436 0.018869 0.177884
v -0.141685 0.018868 0.178258
v -0.148082 0.01887 0.177115
v -0.148917 0.018867 0.178613
v -0.141685 0.018868 0.178258
v -0.148436 0.018869 0.177884
v -0.148917 0.018867 0.178613
v -0.142127 0.018865 0.179587
v -0.141685 0.018868 0.178258
v -0.149536 0.018866 0.17929
v -0.142127 0.018865 0.179587
v -0.148917 0.018867 0.178613
v -0.150306 0.018865 0.1799
v -0.142127 0.018865 0.179587
v -0.149536 0.018866 0.17929
v -0.150306 0.018865 0.1799
v -0.142762 0.018863 0.18088
v -0.142127 0.018865 0.179587
v -0.151237 0.018864 0.18043
v -0.142762 0.018863 0.18088
v -0.150306 0.018865 0.1799
v -0.152341 0.018863 0.180866
v -0.142762 0.018863 0.18088
v -0.151237 0.018864 0.18043
v -0.153629 0.018862 0.181194
v -0.142762 0.018863 0.18088
v -0.152341 0.018863 0.180866
v -0.153629 0.018862 0.181194
v -0.143601 0.01886 0.182111
v -0.142762 0.018863 0.18088
v -0.155114 0.018862 0.181401
v -0.143601 0.01886 0.182111
v -0.153629 0.018862 0.181194
v -0.156806 0.018861 0.181473
v -0.143601 0.01886 0.182111
v -0.155114 0.018862 0.181401
v -0.170641 0.01885 0.186982
v -0.156806 0.018861 0.181473
v -0.164506 0.018861 0.181473
v -0.170641 0.01885 0.186982
v -0.143601 0.01886 0.182111
v -0.156806 0.018861 0.181473
v -0.170641 0.01885 0.186982
v -0.144653 0.018858 0.183258
v -0.143601 0.01886 0.182111
v -0.170641 0.01885 0.186982
v -0.145929 0.018855 0.184294
v -0.144653 0.018858 0.183258
v -0.170641 0.01885 0.186982
v -0.147437 0.018854 0.185197
v -0.145929 0.018855 0.184294
v -0.170641 0.01885 0.186982
v -0.149187 0.018852 0.185942
v -0.147437 0.018854 0.185197
v -0.170641 0.01885 0.186982
v -0.15119 0.018851 0.186503
v -0.149187 0.018852 0.185942
v -0.170641 0.01885 0.186982
v -0.153455 0.01885 0.186859
v -0.15119 0.018851 0.186503
v -0.170641 0.01885 0.186982
v -0.155992 0.01885 0.186982
v -0.153455 0.01885 0.186859
v -0.164506 0.015171 0.149788
v -0.170641 0.015094 0.186974
v -0.170641 0.015183 0.144279
v -0.158246 0.015183 0.144279
v -0.164506 0.015171 0.149788
v -0.170641 0.015183 0.144279
v -0.156054 0.015183 0.144391
v -0.164506 0.015171 0.149788
v -0.158246 0.015183 0.144279
v -0.154077 0.015182 0.144712
v -0.164506 0.015171 0.149788
v -0.156054 0.015183 0.144391
v -0.152309 0.015181 0.145224
v -0.164506 0.015171 0.149788
v -0.154077 0.015182 0.144712
v -0.150748 0.015179 0.145907
v -0.164506 0.015171 0.149788
v -0.152309 0.015181 0.145224
v -0.149386 0.015178 0.146741
v -0.164506 0.015171 0.149788
v -0.150748 0.015179 0.145907
v -0.148222 0.015176 0.147707
v -0.164506 0.015171 0.149788
v -0.149386 0.015178 0.146741
v -0.147249 0.015173 0.148785
v -0.164506 0.015171 0.149788
v -0.148222 0.015176 0.147707
v -0.158872 0.015171 0.149788
v -0.164506 0.015171 0.149788
v -0.147249 0.015173 0.148785
v -0.146463 0.015171 0.149955
v -0.158872 0.015171 0.149788
v -0.147249 0.015173 0.148785
v -0.164506 0.015145 0.162559
v -0.170641 0.015094 0.186974
v -0.164506 0.015171 0.149788
v -0.146463 0.015171 0.149955
v -0.157542 0.015171 0.149844
v -0.158872 0.015171 0.149788
v -0.146463 0.015171 0.149955
v -0.156364 0.015171 0.150008
v -0.157542 0.015171 0.149844
v -0.145859 0.015168 0.151199
v -0.156364 0.015171 0.150008
v -0.146463 0.015171 0.149955
v -0.145859 0.015168 0.151199
v -0.155331 0.01517 0.150269
v -0.156364 0.015171 0.150008
v -0.145859 0.015168 0.151199
v -0.154436 0.01517 0.150621
v -0.155331 0.01517 0.150269
v -0.145859 0.015168 0.151199
v -0.153673 0.015169 0.151055
v -0.154436 0.01517 0.150621
v -0.145859 0.015168 0.151199
v -0.153034 0.015168 0.151565
v -0.153673 0.015169 0.151055
v -0.145434 0.015166 0.152496
v -0.153034 0.015168 0.151565
v -0.145859 0.015168 0.151199
v -0.145434 0.015166 0.152496
v -0.152513 0.015166 0.15214
v -0.153034 0.015168 0.151565
v -0.145434 0.015166 0.152496
v -0.152102 0.015165 0.152775
v -0.152513 0.015166 0.15214
v -0.145182 0.015163 0.153827
v -0.152102 0.015165 0.152775
v -0.145434 0.015166 0.152496
v -0.145182 0.015163 0.153827
v -0.151794 0.015164 0.15346
v -0.152102 0.015165 0.152775
v -0.145182 0.015163 0.153827
v -0.151583 0.015162 0.154187
v -0.151794 0.015164 0.15346
v -0.145099 0.01516 0.155172
v -0.151583 0.015162 0.154187
v -0.145182 0.015163 0.153827
v -0.145099 0.01516 0.155172
v -0.151461 0.015161 0.154948
v -0.151583 0.015162 0.154187
v -0.145099 0.01516 0.155172
v -0.151422 0.015159 0.155736
v -0.151461 0.015161 0.154948
v -0.145143 0.015158 0.156252
v -0.151422 0.015159 0.155736
v -0.145099 0.01516 0.155172
v -0.145143 0.015158 0.156252
v -0.151484 0.015157 0.15683
v -0.151422 0.015159 0.155736
v -0.145273 0.015156 0.157266
v -0.151484 0.015157 0.15683
v -0.145143 0.015158 0.156252
v -0.145273 0.015156 0.157266
v -0.151668 0.015155 0.157828
v -0.151484 0.015157 0.15683
v -0.145492 0.015154 0.15822
v -0.151668 0.015155 0.157828
v -0.145273 0.015156 0.157266
v -0.145492 0.015154 0.15822
v -0.151977 0.015153 0.15873
v -0.151668 0.015155 0.157828
v -0.1458 0.015152 0.159114
v -0.151977 0.015153 0.15873
v -0.145492 0.015154 0.15822
v -0.1458 0.015152 0.159114
v -0.15241 0.015151 0.159536
v -0.151977 0.015153 0.15873
v -0.146198 0.01515 0.159949
v -0.15241 0.015151 0.159536
v -0.1458 0.015152 0.159114
v -0.146198 0.01515 0.159949
v -0.152968 0.01515 0.160247
v -0.15241 0.015151 0.159536
v -0.146688 0.015148 0.160728
v -0.152968 0.01515 0.160247
v -0.146198 0.01515 0.159949
v -0.146688 0.015148 0.160728
v -0.153652 0.015148 0.160862
v -0.152968 0.01515 0.160247
v -0.14727 0.015147 0.161453
v -0.153652 0.015148 0.160862
v -0.146688 0.015148 0.160728
v -0.14727 0.015147 0.161453
v -0.154463 0.015147 0.161381
v -0.153652 0.015148 0.160862
v -0.14727 0.015147 0.161453
v -0.155401 0.015146 0.161806
v -0.154463 0.015147 0.161381
v -0.147947 0.015146 0.162124
v -0.155401 0.015146 0.161806
v -0.14727 0.015147 0.161453
v -0.147947 0.015146 0.162124
v -0.156467 0.015146 0.162136
v -0.155401 0.015146 0.161806
v -0.148718 0.015144 0.162743
v -0.156467 0.015146 0.162136
v -0.147947 0.015146 0.162124
v -0.148718 0.015144 0.162743
v -0.157661 0.015145 0.162372
v -0.156467 0.015146 0.162136
v -0.148718 0.015144 0.162743
v -0.158984 0.015145 0.162512
v -0.157661 0.015145 0.162372
v -0.148718 0.015144 0.162743
v -0.160437 0.015145 0.162559
v -0.158984 0.015145 0.162512
v -0.164506 0.015133 0.168068
v -0.170641 0.015094 0.186974
v -0.164506 0.015145 0.162559
v -0.160437 0.015145 0.162559
v -0.164506 0.015133 0.168068
v -0.164506 0.015145 0.162559
v -0.148718 0.015144 0.162743
v -0.164506 0.015133 0.168068
v -0.160437 0.015145 0.162559
v -0.149584 0.015143 0.163313
v -0.164506 0.015133 0.168068
v -0.148718 0.015144 0.162743
v -0.150548 0.015142 0.163836
v -0.164506 0.015133 0.168068
v -0.149584 0.015143 0.163313
v -0.15161 0.015141 0.164312
v -0.164506 0.015133 0.168068
v -0.150548 0.015142 0.163836
v -0.15161 0.015141 0.164438
v -0.164506 0.015133 0.168068
v -0.15161 0.015141 0.164312
v -0.150067 0.01514 0.164797
v -0.164506 0.015133 0.168068
v -0.15161 0.015141 0.164438
v -0.148632 0.015139 0.165276
v -0.164506 0.015133 0.168068
v -0.150067 0.01514 0.164797
v -0.147312 0.015138 0.165871
v -0.164506 0.015133 0.168068
v -0.148632 0.015139 0.165276
v -0.14611 0.015136 0.166576
v -0.164506 0.015133 0.168068
v -0.147312 0.015138 0.165871
v -0.145032 0.015135 0.167386
v -0.164506 0.015133 0.168068
v -0.14611 0.015136 0.166576
v -0.157119 0.015133 0.168068
v -0.164506 0.015133 0.168068
v -0.145032 0.015135 0.167386
v -0.144082 0.015133 0.168296
v -0.157119 0.015133 0.168068
v -0.145032 0.015135 0.167386
v -0.164506 0.015105 0.181466
v -0.170641 0.015094 0.186974
v -0.164506 0.015133 0.168068
v -0.144082 0.015133 0.168296
v -0.155579 0.015133 0.168125
v -0.157119 0.015133 0.168068
v -0.144082 0.015133 0.168296
v -0.15418 0.015133 0.16829
v -0.155579 0.015133 0.168125
v -0.144082 0.015133 0.168296
v -0.152922 0.015132 0.16856
v -0.15418 0.015133 0.16829
v -0.143265 0.015131 0.1693
v -0.152922 0.015132 0.16856
v -0.144082 0.015133 0.168296
v -0.143265 0.015131 0.1693
v -0.151803 0.015131 0.168927
v -0.152922 0.015132 0.16856
v -0.143265 0.015131 0.1693
v -0.150821 0.01513 0.169385
v -0.151803 0.015131 0.168927
v -0.142586 0.015128 0.170397
v -0.150821 0.01513 0.169385
v -0.143265 0.015131 0.1693
v -0.142586 0.015128 0.170397
v -0.149975 0.015129 0.169931
v -0.150821 0.01513 0.169385
v -0.142586 0.015128 0.170397
v -0.149263 0.015128 0.170557
v -0.149975 0.015129 0.169931
v -0.142049 0.015126 0.171577
v -0.149263 0.015128 0.170557
v -0.142586 0.015128 0.170397
v -0.142049 0.015126 0.171577
v -0.148684 0.015127 0.171259
v -0.149263 0.015128 0.170557
v -0.142049 0.015126 0.171577
v -0.148236 0.015125 0.17203
v -0.148684 0.015127 0.171259
v -0.14166 0.015123 0.172838
v -0.148236 0.015125 0.17203
v -0.142049 0.015126 0.171577
v -0.14166 0.015123 0.172838
v -0.147919 0.015123 0.172865
v -0.148236 0.015125 0.17203
v -0.141423 0.01512 0.174175
v -0.147919 0.015123 0.172865
v -0.14166 0.015123 0.172838
v -0.141423 0.01512 0.174175
v -0.147729 0.015121 0.173759
v -0.147919 0.015123 0.172865
v -0.141423 0.01512 0.174175
v -0.147666 0.015119 0.174705
v -0.147729 0.015121 0.173759
v -0.141343 0.015117 0.175581
v -0.147666 0.015119 0.174705
v -0.141423 0.01512 0.174175
v -0.141343 0.015117 0.175581
v -0.147708 0.015118 0.175508
v -0.147666 0.015119 0.174705
v -0.141343 0.015117 0.175581
v -0.147843 0.015116 0.176314
v -0.147708 0.015118 0.175508
v -0.141427 0.015115 0.17691
v -0.147843 0.015116 0.176314
v -0.141343 0.015117 0.175581
v -0.141427 0.015115 0.17691
v -0.148082 0.015114 0.177107
v -0.147843 0.015116 0.176314
v -0.141685 0.015112 0.178251
v -0.148082 0.015114 0.177107
v -0.141427 0.015115 0.17691
v -0.141685 0.015112 0.178251
v -0.148436 0.015113 0.177876
v -0.148082 0.015114 0.177107
v -0.141685 0.015112 0.178251
v -0.148917 0.015111 0.178605
v -0.148436 0.015113 0.177876
v -0.142127 0.015109 0.179579
v -0.148917 0.015111 0.178605
v -0.141685 0.015112 0.178251
v -0.142127 0.015109 0.179579
v -0.149536 0.01511 0.179282
v -0.148917 0.015111 0.178605
v -0.142127 0.015109 0.179579
v -0.150306 0.015108 0.179892
v -0.149536 0.01511 0.179282
v -0.142762 0.015106 0.180872
v -0.150306 0.015108 0.179892
v -0.142127 0.015109 0.179579
v -0.142762 0.015106 0.180872
v -0.151237 0.015107 0.180422
v -0.150306 0.015108 0.179892
v -0.142762 0.015106 0.180872
v -0.152341 0.015106 0.180858
v -0.151237 0.015107 0.180422
v -0.142762 0.015106 0.180872
v -0.153629 0.015106 0.181186
v -0.152341 0.015106 0.180858
v -0.143601 0.015104 0.182103
v -0.153629 0.015106 0.181186
v -0.142762 0.015106 0.180872
v -0.143601 0.015104 0.182103
v -0.155114 0.015105 0.181394
v -0.153629 0.015106 0.181186
v -0.143601 0.015104 0.182103
v -0.156806 0.015105 0.181466
v -0.155114 0.015105 0.181394
v -0.156806 0.015105 0.181466
v -0.170641 0.015094 0.186974
v -0.164506 0.015105 0.181466
v -0.143601 0.015104 0.182103
v -0.170641 0.015094 0.186974
v -0.156806 0.015105 0.181466
v -0.144653 0.015101 0.18325
v -0.170641 0.015094 0.186974
v -0.143601 0.015104 0.182103
v -0.145929 0.015099 0.184287
v -0.170641 0.015094 0.186974
v -0.144653 0.015101 0.18325
v -0.147437 0.015097 0.185189
v -0.170641 0.015094 0.186974
v -0.145929 0.015099 0.184287
v -0.149187 0.015096 0.185934
v -0.170641 0.015094 0.186974
v -0.147437 0.015097 0.185189
v -0.15119 0.015095 0.186495
v -0.170641 0.015094 0.186974
v -0.149187 0.015096 0.185934
v -0.153455 0.015094 0.186851
v -0.170641 0.015094 0.186974
v -0.15119 0.015095 0.186495
v -0.155992 0.015094 0.186974
v -0.170641 0.015094 0.186974
v -0.153455 0.015094 0.186851
v -0.158246 0.018939 0.144287
v -0.156054 0.018939 0.144399
v -0.156054 0.015183 0.144391
v -0.158246 0.015183 0.144279
v -0.156054 0.018939 0.144399
v -0.154077 0.018938 0.14472
v -0.154077 0.015182 0.144712
v -0.156054 0.015183 0.144391
v -0.154077 0.018938 0.14472
v -0.152309 0.018937 0.145232
v -0.152309 0.015181 0.145224
v -0.154077 0.015182 0.144712
v -0.152309 0.018937 0.145232
v -0.150748 0.018936 0.145915
v -0.150748 0.015179 0.145907
v -0.152309 0.015181 0.145224
v -0.150748 0.018936 0.145915
v -0.149386 0.018934 0.146749
v -0.149386 0.015178 0.146741
v -0.150748 0.015179 0.145907
v -0.149386 0.018934 0.146749
v -0.148222 0.018932 0.147715
v -0.148222 0.015176 0.147707
v -0.149386 0.015178 0.146741
v -0.148222 0.018932 0.147715
v -0.147249 0.01893 0.148793
v -0.147249 0.015173 0.148785
v -0.148222 0.015176 0.147707
v -0.147249 0.01893 0.148793
v -0.146463 0.018927 0.149963
v -0.146463 0.015171 0.149955
v -0.147249 0.015173 0.148785
v -0.146463 0.018927 0.149963
v -0.145859 0.018925 0.151207
v -0.145859 0.015168 0.151199
v -0.146463 0.015171 0.149955
v -0.145859 0.018925 0.151207
v -0.145434 0.018922 0.152504
v -0.145434 0.015166 0.152496
v -0.145859 0.015168 0.151199
v -0.145434 0.018922 0.152504
v -0.145182 0.018919 0.153835
v -0.145182 0.015163 0.153827
v -0.145434 0.015166 0.152496
v -0.145182 0.018919 0.153835
v -0.145099 0.018916 0.15518
v -0.145099 0.01516 0.155172
v -0.145182 0.015163 0.153827
v -0.145099 0.018916 0.15518
v -0.145143 0.018914 0.156259
v -0.145143 0.015158 0.156252
v -0.145099 0.01516 0.155172
v -0.145143 0.018914 0.156259
v -0.145273 0.018912 0.157274
v -0.145273 0.015156 0.157266
v -0.145143 0.015158 0.156252
v -0.145273 0.018912 0.157274
v -0.145492 0.01891 0.158228
v -0.145492 0.015154 0.15822
v -0.145273 0.015156 0.157266
v -0.145492 0.01891 0.158228
v -0.1458 0.018908 0.159122
v -0.1458 0.015152 0.159114
v -0.145492 0.015154 0.15822
v -0.1458 0.018908 0.159122
v -0.146198 0.018906 0.159957
v -0.146198 0.01515 0.159949
v -0.1458 0.015152 0.159114
v -0.146198 0.018906 0.159957
v -0.146688 0.018905 0.160736
v -0.146688 0.015148 0.160728
v -0.146198 0.01515 0.159949
v -0.146688 0.018905 0.160736
v -0.14727 0.018903 0.161461
v -0.14727 0.015147 0.161453
v -0.146688 0.015148 0.160728
v -0.14727 0.018903 0.161461
v -0.147947 0.018902 0.162132
v -0.147947 0.015146 0.162124
v -0.14727 0.015147 0.161453
v -0.147947 0.018902 0.162132
v -0.148718 0.0189 0.162751
v -0.148718 0.015144 0.162743
v -0.147947 0.015146 0.162124
v -0.148718 0.0189 0.162751
v -0.149584 0.018899 0.163321
v -0.149584 0.015143 0.163313
v -0.148718 0.015144 0.162743
v -0.149584 0.018899 0.163321
v -0.150548 0.018898 0.163844
v -0.150548 0.015142 0.163836
v -0.149584 0.015143 0.163313
v -0.150548 0.018898 0.163844
v -0.15161 0.018897 0.16432
v -0.15161 0.015141 0.164312
v -0.150548 0.015142 0.163836
v -0.15161 0.018897 0.16432
v -0.15161 0.018897 0.164446
v -0.15161 0.015141 0.164438
v -0.15161 0.015141 0.164312
v -0.15161 0.018897 0.164446
v -0.150067 0.018896 0.164805
v -0.150067 0.01514 0.164797
v -0.15161 0.015141 0.164438
v -0.150067 0.018896 0.164805
v -0.148632 0.018895 0.165284
v -0.148632 0.015139 0.165276
v -0.150067 0.01514 0.164797
v -0.148632 0.018895 0.165284
v -0.147312 0.018894 0.165879
v -0.147312 0.015138 0.165871
v -0.148632 0.015139 0.165276
v -0.147312 0.018894 0.165879
v -0.14611 0.018892 0.166583
v -0.14611 0.015136 0.166576
v -0.147312 0.015138 0.165871
v -0.14611 0.018892 0.166583
v -0.145032 0.018891 0.167393
v -0.145032 0.015135 0.167386
v -0.14611 0.015136 0.166576
v -0.145032 0.018891 0.167393
v -0.144082 0.018889 0.168304
v -0.144082 0.015133 0.168296
v -0.145032 0.015135 0.167386
v -0.144082 0.018889 0.168304
v -0.143265 0.018887 0.169308
v -0.143265 0.015131 0.1693
v -0.144082 0.015133 0.168296
v -0.143265 0.018887 0.169308
v -0.142586 0.018884 0.170404
v -0.142586 0.015128 0.170397
v -0.143265 0.015131 0.1693
v -0.142586 0.018884 0.170404
v -0.142049 0.018882 0.171585
v -0.142049 0.015126 0.171577
v -0.142586 0.015128 0.170397
v -0.142049 0.018882 0.171585
v -0.14166 0.018879 0.172846
v -0.14166 0.015123 0.172838
v -0.142049 0.015126 0.171577
v -0.14166 0.018879 0.172846
v -0.141423 0.018877 0.174182
v -0.141423 0.01512 0.174175
v -0.14166 0.015123 0.172838
v -0.141423 0.018877 0.174182
v -0.141343 0.018874 0.175589
v -0.141343 0.015117 0.175581
v -0.141423 0.01512 0.174175
v -0.141343 0.018874 0.175589
v -0.141427 0.018871 0.176917
v -0.141427 0.015115 0.17691
v -0.141343 0.015117 0.175581
v -0.141427 0.018871 0.176917
v -0.141685 0.018868 0.178258
v -0.141685 0.015112 0.178251
v -0.141427 0.015115 0.17691
v -0.141685 0.018868 0.178258
v -0.142127 0.018865 0.179587
v -0.142127 0.015109 0.179579
v -0.141685 0.015112 0.178251
v -0.142127 0.018865 0.179587
v -0.142762 0.018863 0.18088
v -0.142762 0.015106 0.180872
v -0.142127 0.015109 0.179579
v -0.142762 0.018863 0.18088
v -0.143601 0.01886 0.182111
v -0.143601 0.015104 0.182103
v -0.142762 0.015106 0.180872
v -0.143601 0.01886 0.182111
v -0.144653 0.018858 0.183258
v -0.144653 0.015101 0.18325
v -0.143601 0.015104 0.182103
v -0.144653 0.018858 0.183258
v -0.145929 0.018855 0.184294
v -0.145929 0.015099 0.184287
v -0.144653 0.015101 0.18325
v -0.145929 0.018855 0.184294
v -0.147437 0.018854 0.185197
v -0.147437 0.015097 0.185189
v -0.145929 0.015099 0.184287
v -0.147437 0.018854 0.185197
v -0.149187 0.018852 0.185942
v -0.149187 0.015096 0.185934
v -0.147437 0.015097 0.185189
v -0.149187 0.018852 0.185942
v -0.15119 0.018851 0.186503
v -0.15119 0.015095 0.186495
v -0.149187 0.015096 0.185934
v -0.15119 0.018851 0.186503
v -0.153455 0.01885 0.186859
v -0.153455 0.015094 0.186851
v -0.15119 0.015095 0.186495
v -0.153455 0.01885 0.186859
v -0.155992 0.01885 0.186982
v -0.155992 0.015094 0.186974
v -0.153455 0.015094 0.186851
v -0.155992 0.01885 0.186982
v -0.170641 0.01885 0.186982
v -0.170641 0.015094 0.186974
v -0.155992 0.015094 0.186974
v -0.170641 0.01885 0.186982
v -0.170641 0.018939 0.144287
v -0.170641 0.015183 0.144279
v -0.170641 0.015094 0.186974
v -0.170641 0.018939 0.144287
v -0.158246 0.018939 0.144287
v -0.158246 0.015183 0.144279
v -0.170641 0.015183 0.144279
v -0.160437 0.018901 0.162567
v -0.158984 0.018901 0.16252
v -0.158984 0.015145 0.162512
v -0.160437 0.015145 0.162559
v -0.158984 0.018901 0.16252
v -0.157661 0.018901 0.162379
v -0.157661 0.015145 0.162372
v -0.158984 0.015145 0.162512
v -0.157661 0.018901 0.162379
v -0.156467 0.018902 0.162144
v -0.156467 0.015146 0.162136
v -0.157661 0.015145 0.162372
v -0.156467 0.018902 0.162144
v -0.155401 0.018902 0.161814
v -0.155401 0.015146 0.161806
v -0.156467 0.015146 0.162136
v -0.155401 0.018902 0.161814
v -0.154463 0.018903 0.161389
v -0.154463 0.015147 0.161381
v -0.155401 0.015146 0.161806
v -0.154463 0.018903 0.161389
v -0.153652 0.018904 0.160869
v -0.153652 0.015148 0.160862
v -0.154463 0.015147 0.161381
v -0.153652 0.018904 0.160869
v -0.152968 0.018906 0.160254
v -0.152968 0.01515 0.160247
v -0.153652 0.015148 0.160862
v -0.152968 0.018906 0.160254
v -0.15241 0.018907 0.159544
v -0.15241 0.015151 0.159536
v -0.152968 0.01515 0.160247
v -0.15241 0.018907 0.159544
v -0.151977 0.018909 0.158738
v -0.151977 0.015153 0.15873
v -0.15241 0.015151 0.159536
v -0.151977 0.018909 0.158738
v -0.151668 0.018911 0.157836
v -0.151668 0.015155 0.157828
v -0.151977 0.015153 0.15873
v -0.151668 0.018911 0.157836
v -0.151484 0.018913 0.156838
v -0.151484 0.015157 0.15683
v -0.151668 0.015155 0.157828
v -0.151484 0.018913 0.156838
v -0.151422 0.018915 0.155743
v -0.151422 0.015159 0.155736
v -0.151484 0.015157 0.15683
v -0.151422 0.018915 0.155743
v -0.151461 0.018917 0.154956
v -0.151461 0.015161 0.154948
v -0.151422 0.015159 0.155736
v -0.151461 0.018917 0.154956
v -0.151583 0.018918 0.154195
v -0.151583 0.015162 0.154187
v -0.151461 0.015161 0.154948
v -0.151583 0.018918 0.154195
v -0.151794 0.01892 0.153468
v -0.151794 0.015164 0.15346
v -0.151583 0.015162 0.154187
v -0.151794 0.01892 0.153468
v -0.152102 0.018921 0.152783
v -0.152102 0.015165 0.152775
v -0.151794 0.015164 0.15346
v -0.152102 0.018921 0.152783
v -0.152513 0.018923 0.152149
v -0.152513 0.015166 0.15214
v -0.152102 0.015165 0.152775
v -0.152513 0.018923 0.152149
v -0.153034 0.018924 0.151572
v -0.153034 0.015168 0.151565
v -0.152513 0.015166 0.15214
v -0.153034 0.018924 0.151572
v -0.153673 0.018925 0.151064
v -0.153673 0.015169 0.151055
v -0.153034 0.015168 0.151565
v -0.153673 0.018925 0.151064
v -0.154436 0.018926 0.150629
v -0.154436 0.01517 0.150621
v -0.153673 0.015169 0.151055
v -0.154436 0.018926 0.150629
v -0.155331 0.018926 0.150276
v -0.155331 0.01517 0.150269
v -0.154436 0.01517 0.150621
v -0.155331 0.018926 0.150276
v -0.156364 0.018927 0.150015
v -0.156364 0.015171 0.150008
v -0.155331 0.01517 0.150269
v -0.156364 0.018927 0.150015
v -0.157542 0.018927 0.149852
v -0.157542 0.015171 0.149844
v -0.156364 0.015171 0.150008
v -0.157542 0.018927 0.149852
v -0.158872 0.018927 0.149797
v -0.158872 0.015171 0.149788
v -0.157542 0.015171 0.149844
v -0.158872 0.018927 0.149797
v -0.164506 0.018927 0.149797
v -0.164506 0.015171 0.149788
v -0.158872 0.015171 0.149788
v -0.164506 0.018927 0.149797
v -0.164506 0.018901 0.162567
v -0.164506 0.015145 0.162559
v -0.164506 0.015171 0.149788
v -0.164506 0.018901 0.162567
v -0.160437 0.018901 0.162567
v -0.160437 0.015145 0.162559
v -0.164506 0.015145 0.162559
v -0.156806 0.018861 0.181473
v -0.155114 0.018862 0.181401
v -0.155114 0.015105 0.181394
v -0.156806 0.015105 0.181466
v -0.155114 0.018862 0.181401
v -0.153629 0.018862 0.181194
v -0.153629 0.015106 0.181186
v -0.155114 0.015105 0.181394
v -0.153629 0.018862 0.181194
v -0.152341 0.018863 0.180866
v -0.152341 0.015106 0.180858
v -0.153629 0.015106 0.181186
v -0.152341 0.018863 0.180866
v -0.151237 0.018864 0.18043
v -0.151237 0.015107 0.180422
v -0.152341 0.015106 0.180858
v -0.151237 0.018864 0.18043
v -0.150306 0.018865 0.1799
v -0.150306 0.015108 0.179892
v -0.151237 0.015107 0.180422
v -0.150306 0.018865 0.1799
v -0.149536 0.018866 0.17929
v -0.149536 0.01511 0.179282
v -0.150306 0.015108 0.179892
v -0.149536 0.018866 0.17929
v -0.148917 0.018867 0.178613
v -0.148917 0.015111 0.178605
v -0.149536 0.01511 0.179282
v -0.148917 0.018867 0.178613
v -0.148436 0.018869 0.177884
v -0.148436 0.015113 0.177876
v -0.148917 0.015111 0.178605
v -0.148436 0.018869 0.177884
v -0.148082 0.01887 0.177115
v -0.148082 0.015114 0.177107
v -0.148436 0.015113 0.177876
v -0.148082 0.01887 0.177115
v -0.147843 0.018872 0.176322
v -0.147843 0.015116 0.176314
v -0.148082 0.015114 0.177107
v -0.147843 0.018872 0.176322
v -0.147708 0.018874 0.175516
v -0.147708 0.015118 0.175508
v -0.147843 0.015116 0.176314
v -0.147708 0.018874 0.175516
v -0.147666 0.018875 0.174712
v -0.147666 0.015119 0.174705
v -0.147708 0.015118 0.175508
v -0.147666 0.018875 0.174712
v -0.147729 0.018877 0.173766
v -0.147729 0.015121 0.173759
v -0.147666 0.015119 0.174705
v -0.147729 0.018877 0.173766
v -0.147919 0.018879 0.172873
v -0.147919 0.015123 0.172865
v -0.147729 0.015121 0.173759
v -0.147919 0.018879 0.172873
v -0.148236 0.018881 0.172038
v -0.148236 0.015125 0.17203
v -0.147919 0.015123 0.172865
v -0.148236 0.018881 0.172038
v -0.148684 0.018883 0.171266
v -0.148684 0.015127 0.171259
v -0.148236 0.015125 0.17203
v -0.148684 0.018883 0.171266
v -0.149263 0.018884 0.170565
v -0.149263 0.015128 0.170557
v -0.148684 0.015127 0.171259
v -0.149263 0.018884 0.170565
v -0.149975 0.018885 0.169939
v -0.149975 0.015129 0.169931
v -0.149263 0.015128 0.170557
v -0.149975 0.018885 0.169939
v -0.150821 0.018887 0.169393
v -0.150821 0.01513 0.169385
v -0.149975 0.015129 0.169931
v -0.150821 0.018887 0.169393
v -0.151803 0.018888 0.168934
v -0.151803 0.015131 0.168927
v -0.150821 0.01513 0.169385
v -0.151803 0.018888 0.168934
v -0.152922 0.018888 0.168567
v -0.152922 0.015132 0.16856
v -0.151803 0.015131 0.168927
v -0.152922 0.018888 0.168567
v -0.15418 0.018889 0.168298
v -0.15418 0.015133 0.16829
v -0.152922 0.015132 0.16856
v -0.15418 0.018889 0.168298
v -0.155579 0.018889 0.168133
v -0.155579 0.015133 0.168125
v -0.15418 0.015133 0.16829
v -0.155579 0.018889 0.168133
v -0.157119 0.018889 0.168077
v -0.157119 0.015133 0.168068
v -0.155579 0.015133 0.168125
v -0.157119 0.018889 0.168077
v -0.164506 0.018889 0.168077
v -0.164506 0.015133 0.168068
v -0.157119 0.015133 0.168068
v -0.164506 0.018889 0.168077
v -0.164506 0.018861 0.181473
v -0.164506 0.015105 0.181466
v -0.164506 0.015133 0.168068
v -0.164506 0.018861 0.181473
v -0.156806 0.018861 0.181473
v -0.156806 0.015105 0.181466
v -0.164506 0.015105 0.181466
vn -0 1 0.002
vn -0 1 0.0021
vn -0 1 0.0021
vn -0 1 0.0021
vn -0.0001 1 0.0021
vn -0 1 0.0021
vn -0 1 0.0021
vn -0.0001 1 0.002
vn -0.0001 1 0.0021
vn -0 1 0.0021
vn -0 1 0.0022
vn -0.0001 1 0.002
vn -0 1 0.0021
vn -0.0001 1 0.0019
vn -0 1 0.0022
vn -0 1 0.0021
vn -0 1 0.0022
vn -0.0001 1 0.0019
vn -0 1 0.0021
vn -0 1 0.0022
vn -0 1 0.0022
vn -0 1 0.0021
vn -0.0001 1 0.002
vn -0 1 0.0022
vn -0 1 0.0021
vn -0 1 0.0024
vn -0.0001 1 0.002
vn -0 1 0.0021
vn -0 1 0.0026
vn -0 1 0.0024
vn -0 1 0.0026
vn -0 1 0.0019
vn -0 1 0.0024
vn -0 1 0.002
vn -0.0001 1 0.0021
vn -0 1 0.0021
vn -0 1 0.0017
vn -0 1 0.0019
vn -0 1 0.0026
vn -0 1 0.0022
vn -0 1 0.0019
vn -0 1 0.0017
vn -0 1 0.0022
vn -0 1 0.0021
vn -0 1 0.0019
vn -0 1 0.0021
vn -0 1 0.0021
vn -0 1 0.0022
vn -0 1 0.0018
vn -0 1 0.0021
vn -0 1 0.0021
vn -0 1 0.0023
vn -0 1 0.0021
vn -0 1 0.0018
vn -0 1 0.002
vn -0 1 0.0021
vn -0 1 0.0023
vn -0 1 0.002
vn -0 1 0.0023
vn -0 1 0.0021
vn -0 1 0.0021
vn -0 1 0.0023
vn -0 1 0.002
vn -0 1 0.0026
vn -0 1 0.0023
vn -0 1 0.0021
vn -0 1 0.0026
vn -0 1 0.0022
vn -0 1 0.0023
vn -0 1 0.0023
vn -0 1 0.0022
vn -0 1 0.0026
vn -0 1 0.0022
vn -0 1 0.0022
vn -0 1 0.0023
vn -0 1 0.0022
vn -0 1 0.002
vn -0 1 0.0022
vn 0.0001 1 0.0019
vn -0 1 0.002
vn -0 1 0.0022
vn -0 1 0.0022
vn -0 1 0.002
vn 0.0001 1 0.0019
vn -0 1 0.0022
vn -0 1 0.0019
vn -0 1 0.002
vn -0 1 0.0019
vn -0 1 0.0019
vn -0 1 0.0022
vn -0 1 0.0019
vn -0 1 0.002
vn -0 1 0.0019
vn -0 1 0.0021
vn -0 1 0.002
vn -0 1 0.0019
vn -0 1 0.0021
vn -0 1 0.0022
vn -0 1 0.002
vn -0 1 0.0021
vn -0 1 0.0022
vn -0 1 0.0021
vn -0 1 0.0021
vn -0 1 0.0023
vn -0 1 0.0022
vn -0 1 0.0018
vn -0 1 0.0023
vn -0 1 0.0021
vn -0 1 0.0018
vn -0 1 0.002
vn -0 1 0.0023
vn -0 1 0.0023
vn -0 1 0.002
vn -0 1 0.0018
vn -0 1 0.0023
vn -0 1 0.0018
vn -0 1 0.002
vn -0 1 0.0022
vn -0 1 0.0018
vn -0 1 0.0023
vn -0 1 0.0022
vn -0.0001 1 0.0023
vn -0 1 0.0018
vn -0 1 0.0022
vn -0.0001 1 0.0023
vn -0 1 0.0022
vn -0 1 0.0015
vn -0.0001 1 0.0023
vn -0 1 0.0022
vn -0 1 0.0015
vn -0 1 0.0021
vn -0.0001 1 0.0023
vn -0 1 0.0022
vn -0 1 0.0021
vn -0 1 0.0015
vn -0 1 0.0022
vn -0 1 0.0022
vn -0 1 0.0021
vn -0 1 0.0021
vn -0 1 0.0022
vn -0 1 0.0022
vn -0 1 0.0022
vn -0 1 0.0022
vn -0 1 0.0021
vn -0 1 0.0022
vn -0 1 0.0022
vn -0 1 0.0022
vn -0 1 0.002
vn 0.0002 1 0.0022
vn -0.0001 1 0.0021
vn 0.0002 1 0.0022
vn -0 1 0.0022
vn -0.0001 1 0.0021
vn 0.0002 1 0.0022
vn -0 1 0.0022
vn -0 1 0.0022
vn 0.0002 1 0.0022
vn -0.0001 1 0.0018
vn -0 1 0.0022
vn 0.0002 1 0.0022
vn -0.0001 1 0.0017
vn -0.0001 1 0.0018
vn 0.0002 1 0.0022
vn -0 1 0.0023
vn -0.0001 1 0.0017
vn 0.0002 1 0.0022
vn -0 1 0.0021
vn -0 1 0.0023
vn 0.0002 1 0.0022
vn -0 1 0.0022
vn -0 1 0.0021
vn 0.0002 1 0.0022
vn -0 1 0.0023
vn -0 1 0.0022
vn 0.0002 1 0.0022
vn -0 1 0.0026
vn -0 1 0.0023
vn 0.0002 1 0.0022
vn -0 1 0.0016
vn -0 1 0.0026
vn 0.0002 1 0.0022
vn -0 1 0.002
vn -0 1 0.0016
vn 0.0002 1 0.0022
vn -0 1 0.0023
vn -0 1 0.002
vn -0 1 0.0023
vn -0 1 0.0021
vn -0 1 0.002
vn -0 1 0.002
vn -0 1 0.002
vn 0.0002 1 0.0022
vn -0 1 0.0018
vn -0 1 0.0021
vn -0 1 0.0023
vn -0 1 0.0022
vn -0 1 0.0021
vn -0 1 0.0018
vn -0 1 0.0018
vn -0 1 0.0021
vn -0 1 0.0022
vn -0 1 0.0018
vn -0 1 0.0025
vn -0 1 0.0021
vn -0 1 0.0019
vn -0 1 0.0025
vn -0 1 0.0018
vn -0 1 0.0024
vn -0 1 0.0025
vn -0 1 0.0019
vn -0 1 0.0024
vn -0 1 0.002
vn -0 1 0.0025
vn -0 1 0.0022
vn -0 1 0.002
vn -0 1 0.0024
vn -0 1 0.0015
vn -0 1 0.002
vn -0 1 0.0022
vn -0 1 0.0015
vn -0 1 0.0021
vn -0 1 0.002
vn 0.0001 1 0.0017
vn -0 1 0.0021
vn -0 1 0.0015
vn -0 1 0.0022
vn -0 1 0.0021
vn 0.0001 1 0.0017
vn -0 1 0.0022
vn -0 1 0.0019
vn -0 1 0.0021
vn -0 1 0.0023
vn -0 1 0.0019
vn -0 1 0.0022
vn -0 1 0.0023
vn -0.0001 1 0.0019
vn -0 1 0.0019
vn -0.0001 1 0.0022
vn -0.0001 1 0.0019
vn -0 1 0.0023
vn -0.0001 1 0.0017
vn -0.0001 1 0.0019
vn -0.0001 1 0.0022
vn -0.0001 1 0.0017
vn -0.0001 1 0.0022
vn -0.0001 1 0.0019
vn -0 1 0.0019
vn -0.0001 1 0.0022
vn -0.0001 1 0.0017
vn -0.0001 1 0.0025
vn -0.0001 1 0.0022
vn -0 1 0.0019
vn -0.0001 1 0.0025
vn -0.0001 1 0.0022
vn -0.0001 1 0.0022
vn -0 1 0.0018
vn -0.0001 1 0.0022
vn -0.0001 1 0.0025
vn -0 1 0.0018
vn -0.0001 1 0.0022
vn -0.0001 1 0.0022
vn -0 1 0.0022
vn -0.0001 1 0.0022
vn -0 1 0.0018
vn -0 1 0.0019
vn -0.0001 1 0.0022
vn -0 1 0.0022
vn -0 1 0.0019
vn -0 1 0.002
vn -0.0001 1 0.0022
vn 0.0001 1 0.0017
vn -0 1 0.002
vn -0 1 0.0019
vn -0 1 0.0019
vn -0 1 0.002
vn 0.0001 1 0.0017
vn -0 1 0.0019
vn -0 1 0.0019
vn -0 1 0.002
vn -0 1 0.0022
vn -0 1 0.0019
vn -0 1 0.0019
vn -0 1 0.0025
vn -0 1 0.0019
vn -0 1 0.0022
vn -0 1 0.0019
vn -0 1 0.0019
vn -0 1 0.0025
vn -0 1 0.0019
vn -0 1 0.0022
vn -0 1 0.0019
vn -0 1 0.0022
vn -0 1 0.0022
vn -0 1 0.0019
vn -0 1 0.0021
vn -0 1 0.0022
vn -0 1 0.0022
vn -0 1 0.002
vn -0 1 0.0021
vn -0 1 0.002
vn -0 1 0.002
vn -0 1 0.0022
vn -0 1 0.0021
vn -0 1 0.002
vn -0 1 0.0023
vn -0 1 0.0022
vn -0 1 0.002
vn -0 1 0.0024
vn -0 1 0.0023
vn -0 1 0.002
vn -0 1 0.002
vn -0 1 0.0024
vn -0 1 0.002
vn -0 1 0.0021
vn -0 1 0.002
vn -0 1 0.002
vn -0 1 0.0018
vn -0 1 0.0021
vn -0 1 0.002
vn -0 1 0.002
vn -0 1 0.0018
vn -0 1 0.002
vn -0 1 0.002
vn -0 1 0.002
vn -0 -1 -0.0021
vn -0 -1 -0.002
vn -0 -1 -0.0021
vn 0.0001 -1 -0.0021
vn -0 -1 -0.0021
vn -0 -1 -0.0021
vn -0.0001 -1 -0.0023
vn -0 -1 -0.0021
vn 0.0001 -1 -0.0021
vn -0 -1 -0.0022
vn -0 -1 -0.0021
vn -0.0001 -1 -0.0023
vn -0 -1 -0.0022
vn -0 -1 -0.0021
vn -0 -1 -0.0022
vn 0.0001 -1 -0.0017
vn -0 -1 -0.0021
vn -0 -1 -0.0022
vn 0.0001 -1 -0.002
vn -0 -1 -0.0021
vn 0.0001 -1 -0.0017
vn -0 -1 -0.0026
vn -0 -1 -0.0021
vn 0.0001 -1 -0.002
vn -0 -1 -0.002
vn -0 -1 -0.0021
vn -0 -1 -0.0026
vn -0 -1 -0.002
vn -0 -1 -0.0021
vn -0 -1 -0.002
vn -0 -1 -0.0022
vn -0 -1 -0.002
vn -0 -1 -0.002
vn 0.0001 -1 -0.0021
vn -0 -1 -0.002
vn -0 -1 -0.0021
vn -0 -1 -0.0022
vn -0 -1 -0.0017
vn -0 -1 -0.002
vn -0 -1 -0.0022
vn -0 -1 -0.0023
vn -0 -1 -0.0017
vn -0.0001 -1 -0.0018
vn -0 -1 -0.0023
vn -0 -1 -0.0022
vn -0.0001 -1 -0.0018
vn -0 -1 -0.0017
vn -0 -1 -0.0023
vn -0.0001 -1 -0.0018
vn -0 -1 -0.0021
vn -0 -1 -0.0017
vn -0.0001 -1 -0.0018
vn -0.0001 -1 -0.0021
vn -0 -1 -0.0021
vn -0.0001 -1 -0.0018
vn -0 -1 -0.0022
vn -0.0001 -1 -0.0021
vn -0 -1 -0.002
vn -0 -1 -0.0022
vn -0.0001 -1 -0.0018
vn -0 -1 -0.002
vn -0 -1 -0.0023
vn -0 -1 -0.0022
vn -0 -1 -0.002
vn -0 -1 -0.0016
vn -0 -1 -0.0023
vn -0 -1 -0.0022
vn -0 -1 -0.0016
vn -0 -1 -0.002
vn -0 -1 -0.0022
vn -0 -1 -0.0019
vn -0 -1 -0.0016
vn -0 -1 -0.0022
vn -0 -1 -0.0022
vn -0 -1 -0.0019
vn -0 -1 -0.002
vn -0 -1 -0.0022
vn -0 -1 -0.0022
vn -0 -1 -0.002
vn -0 -1 -0.0022
vn -0 -1 -0.0022
vn -0 -1 -0.002
vn -0 -1 -0.0022
vn -0 -1 -0.0022
vn -0 -1 -0.0019
vn -0 -1 -0.0022
vn -0 -1 -0.002
vn -0 -1 -0.0019
vn -0 -1 -0.0019
vn -0 -1 -0.0022
vn -0 -1 -0.002
vn -0 -1 -0.0019
vn -0 -1 -0.0019
vn -0 -1 -0.002
vn -0 -1 -0.0021
vn -0 -1 -0.0019
vn -0 -1 -0.0022
vn -0 -1 -0.0021
vn -0 -1 -0.002
vn -0 -1 -0.0022
vn -0 -1 -0.0024
vn -0 -1 -0.0021
vn -0 -1 -0.0023
vn -0 -1 -0.0024
vn -0 -1 -0.0022
vn -0 -1 -0.0023
vn -0 -1 -0.0018
vn -0 -1 -0.0024
vn -0 -1 -0.0021
vn -0 -1 -0.0018
vn -0 -1 -0.0023
vn -0 -1 -0.0021
vn -0 -1 -0.0023
vn -0 -1 -0.0018
vn -0.0001 -1 -0.0023
vn -0 -1 -0.0023
vn -0 -1 -0.0021
vn -0.0001 -1 -0.0023
vn -0 -1 -0.0022
vn -0 -1 -0.0023
vn -0 -1 -0.0019
vn -0 -1 -0.0022
vn -0.0001 -1 -0.0023
vn -0 -1 -0.0019
vn -0 -1 -0.0022
vn -0 -1 -0.0022
vn -0 -1 -0.0019
vn -0 -1 -0.0016
vn -0 -1 -0.0022
vn -0 -1 -0.0018
vn -0 -1 -0.0016
vn -0 -1 -0.0019
vn -0 -1 -0.0018
vn -0 -1 -0.0022
vn -0 -1 -0.0016
vn -0 -1 -0.0022
vn -0 -1 -0.0022
vn -0 -1 -0.0018
vn -0 -1 -0.0022
vn -0 -1 -0.0021
vn -0 -1 -0.0022
vn -0 -1 -0.0022
vn -0 -1 -0.0022
vn -0 -1 -0.0021
vn -0 -1 -0.0022
vn -0 -1 -0.0022
vn -0 -1 -0.0022
vn -0.0002 -1 -0.0022
vn -0 -1 -0.002
vn 0.0001 -1 -0.0021
vn -0 -1 -0.0022
vn -0.0002 -1 -0.0022
vn 0.0001 -1 -0.0021
vn -0 -1 -0.0022
vn -0.0002 -1 -0.0022
vn -0 -1 -0.0022
vn 0.0001 -1 -0.0018
vn -0.0002 -1 -0.0022
vn -0 -1 -0.0022
vn 0.0001 -1 -0.0017
vn -0.0002 -1 -0.0022
vn 0.0001 -1 -0.0018
vn -0 -1 -0.0021
vn -0.0002 -1 -0.0022
vn 0.0001 -1 -0.0017
vn -0 -1 -0.0019
vn -0.0002 -1 -0.0022
vn -0 -1 -0.0021
vn -0 -1 -0.0022
vn -0.0002 -1 -0.0022
vn -0 -1 -0.0019
vn -0 -1 -0.0024
vn -0.0002 -1 -0.0022
vn -0 -1 -0.0022
vn -0 -1 -0.0026
vn -0.0002 -1 -0.0022
vn -0 -1 -0.0024
vn -0 -1 -0.0016
vn -0.0002 -1 -0.0022
vn -0 -1 -0.0026
vn -0 -1 -0.002
vn -0.0002 -1 -0.0022
vn -0 -1 -0.0016
vn -0 -1 -0.0023
vn -0.0002 -1 -0.0022
vn -0 -1 -0.002
vn -0 -1 -0.0021
vn -0 -1 -0.0023
vn -0 -1 -0.002
vn -0 -1 -0.002
vn -0 -1 -0.002
vn -0.0002 -1 -0.0022
vn -0 -1 -0.0021
vn -0 -1 -0.0018
vn -0 -1 -0.0023
vn -0 -1 -0.0021
vn -0 -1 -0.0022
vn -0 -1 -0.0018
vn -0 -1 -0.0021
vn -0 -1 -0.0019
vn -0 -1 -0.0022
vn -0 -1 -0.0023
vn -0 -1 -0.0019
vn -0 -1 -0.0021
vn -0 -1 -0.0023
vn -0 -1 -0.0021
vn -0 -1 -0.0019
vn -0 -1 -0.0023
vn 0.0001 -1 -0.0023
vn -0 -1 -0.0021
vn -0 -1 -0.002
vn 0.0001 -1 -0.0023
vn -0 -1 -0.0023
vn -0 -1 -0.002
vn -0 -1 -0.0018
vn 0.0001 -1 -0.0023
vn -0 -1 -0.002
vn -0 -1 -0.0021
vn -0 -1 -0.0018
vn -0 -1 -0.0021
vn -0 -1 -0.0021
vn -0 -1 -0.002
vn -0 -1 -0.0021
vn -0.0001 -1 -0.0017
vn -0 -1 -0.0021
vn -0 -1 -0.0021
vn -0 -1 -0.0025
vn -0.0001 -1 -0.0017
vn -0 -1 -0.0023
vn -0 -1 -0.0025
vn -0 -1 -0.0021
vn -0 -1 -0.0023
vn -0 -1 -0.002
vn -0 -1 -0.0025
vn -0 -1 -0.0022
vn -0 -1 -0.002
vn -0 -1 -0.0023
vn -0 -1 -0.0022
vn -0 -1 -0.0022
vn -0 -1 -0.002
vn -0 -1 -0.0022
vn -0.0001 -1 -0.0017
vn -0 -1 -0.0022
vn -0 -1 -0.0018
vn -0.0001 -1 -0.0017
vn -0 -1 -0.0022
vn -0 -1 -0.0018
vn -0.0001 -1 -0.0019
vn -0.0001 -1 -0.0017
vn -0 -1 -0.0018
vn -0 -1 -0.0024
vn -0.0001 -1 -0.0019
vn -0 -1 -0.0019
vn -0 -1 -0.0024
vn -0 -1 -0.0018
vn -0 -1 -0.0019
vn -0 -1 -0.0018
vn -0 -1 -0.0024
vn 0.0001 -1 -0.0022
vn -0 -1 -0.0018
vn -0 -1 -0.0019
vn 0.0001 -1 -0.0022
vn -0 -1 -0.0022
vn -0 -1 -0.0018
vn 0.0001 -1 -0.0022
vn -0 -1 -0.0019
vn -0 -1 -0.0022
vn -0 -1 -0.0023
vn -0 -1 -0.0019
vn 0.0001 -1 -0.0022
vn -0 -1 -0.0023
vn -0 -1 -0.0025
vn -0 -1 -0.0019
vn -0 -1 -0.0023
vn -0 -1 -0.0022
vn -0 -1 -0.0025
vn -0 -1 -0.0021
vn -0 -1 -0.0022
vn -0 -1 -0.0023
vn -0 -1 -0.0021
vn -0 -1 -0.0022
vn -0 -1 -0.0022
vn -0 -1 -0.0021
vn -0 -1 -0.002
vn -0 -1 -0.0022
vn -0 -1 -0.0021
vn -0 -1 -0.0023
vn -0 -1 -0.002
vn -0.0001 -1 -0.0019
vn -0 -1 -0.0023
vn -0 -1 -0.0021
vn -0.0001 -1 -0.0019
vn -0 -1 -0.0021
vn -0 -1 -0.0023
vn -0.0001 -1 -0.0019
vn -0 -1 -0.0019
vn -0 -1 -0.0021
vn -0 -1 -0.0019
vn -0 -1 -0.002
vn -0 -1 -0.002
vn -0.0001 -1 -0.0019
vn -0 -1 -0.002
vn -0 -1 -0.0019
vn -0 -1 -0.0023
vn -0 -1 -0.002
vn -0.0001 -1 -0.0019
vn -0 -1 -0.002
vn -0 -1 -0.002
vn -0 -1 -0.0023
vn -0 -1 -0.0022
vn -0 -1 -0.002
vn -0 -1 -0.002
vn -0 -1 -0.002
vn -0 -1 -0.002
vn -0 -1 -0.0022
vn -0 -1 -0.0018
vn -0 -1 -0.002
vn -0 -1 -0.002
vn -0 -1 -0.0023
vn -0 -1 -0.002
vn -0 -1 -0.0018
vn -0 -1 -0.002
vn -0 -1 -0.002
vn -0 -1 -0.0023
vn 0.0255 0.0021 -0.9997
vn 0.1058 0.0021 -0.9944
vn 0.1058 0.0021 -0.9944
vn 0.0255 0.0021 -0.9997
vn 0.1058 0.0021 -0.9944
vn 0.22 0.0021 -0.9755
vn 0.2196 0.0021 -0.9756
vn 0.1058 0.0021 -0.9944
vn 0.22 0.0021 -0.9755
vn 0.3402 0.002 -0.9403
vn 0.3402 0.002 -0.9403
vn 0.2196 0.0021 -0.9756
vn 0.3402 0.002 -0.9403
vn 0.4626 0.0019 -0.8866
vn 0.4626 0.0019 -0.8866
vn 0.3402 0.002 -0.9403
vn 0.4626 0.0019 -0.8866
vn 0.5819 0.0017 -0.8133
vn 0.5819 0.0017 -0.8133
vn 0.4626 0.0019 -0.8866
vn 0.5819 0.0017 -0.8133
vn 0.6919 0.0015 -0.722
vn 0.6923 0.0015 -0.7216
vn 0.5819 0.0017 -0.8133
vn 0.6919 0.0015 -0.722
vn 0.7882 0.0013 -0.6154
vn 0.7882 0.0013 -0.6154
vn 0.6923 0.0015 -0.7216
vn 0.7882 0.0013 -0.6154
vn 0.8669 0.0011 -0.4984
vn 0.8669 0.0011 -0.4984
vn 0.7882 0.0013 -0.6154
vn 0.8669 0.0011 -0.4984
vn 0.9271 0.0008 -0.3749
vn 0.927 0.0008 -0.3749
vn 0.8669 0.0011 -0.4984
vn 0.9271 0.0008 -0.3749
vn 0.9684 0.0005 -0.2492
vn 0.9684 0.0005 -0.2492
vn 0.927 0.0008 -0.3749
vn 0.9684 0.0005 -0.2492
vn 0.9923 0.0003 -0.1241
vn 0.9923 0.0003 -0.1241
vn 0.9684 0.0005 -0.2492
vn 0.9923 0.0003 -0.1241
vn 0.9999 -0 -0.0104
vn 0.9999 -0 -0.0104
vn 0.9923 0.0003 -0.1241
vn 0.9999 -0 -0.0104
vn 0.9965 -0.0002 0.0837
vn 0.9965 -0.0002 0.0837
vn 0.9999 -0 -0.0104
vn 0.9965 -0.0002 0.0837
vn 0.9845 -0.0004 0.1756
vn 0.9845 -0.0004 0.1756
vn 0.9965 -0.0002 0.0837
vn 0.9845 -0.0004 0.1756
vn 0.9614 -0.0006 0.2751
vn 0.9614 -0.0006 0.2751
vn 0.9845 -0.0004 0.1756
vn 0.9614 -0.0006 0.2751
vn 0.9256 -0.0008 0.3786
vn 0.9257 -0.0008 0.3783
vn 0.9614 -0.0006 0.2751
vn 0.9256 -0.0008 0.3786
vn 0.8761 -0.001 0.4822
vn 0.8761 -0.001 0.4822
vn 0.9257 -0.0008 0.3783
vn 0.8761 -0.001 0.4822
vn 0.8145 -0.0012 0.5802
vn 0.8145 -0.0012 0.5802
vn 0.8761 -0.001 0.4822
vn 0.8145 -0.0012 0.5802
vn 0.7431 -0.0014 0.6692
vn 0.7431 -0.0014 0.6692
vn 0.8145 -0.0012 0.5802
vn 0.7431 -0.0014 0.6692
vn 0.6663 -0.0016 0.7457
vn 0.6663 -0.0016 0.7457
vn 0.7431 -0.0014 0.6692
vn 0.6663 -0.0016 0.7457
vn 0.5886 -0.0017 0.8084
vn 0.5886 -0.0017 0.8084
vn 0.6663 -0.0016 0.7457
vn 0.5886 -0.0017 0.8084
vn 0.5135 -0.0018 0.8581
vn 0.5138 -0.0018 0.8579
vn 0.5886 -0.0017 0.8084
vn 0.5135 -0.0018 0.8581
vn 0.4433 -0.0019 0.8964
vn 0.4433 -0.0019 0.8964
vn 0.5138 -0.0018 0.8579
vn 0.4433 -0.0019 0.8964
vn 0.8391 -0.0011 0.5439
vn 0.8396 -0.0011 0.5433
vn 0.4433 -0.0019 0.8964
vn 0.8391 -0.0011 0.5439
vn 0.7834 0.0013 -0.6216
vn 0.7834 0.0013 -0.6215
vn 0.8396 -0.0011 0.5433
vn 0.7834 0.0013 -0.6216
vn 0.2719 0.002 -0.9623
vn 0.2719 0.002 -0.9623
vn 0.7834 0.0013 -0.6215
vn 0.2719 0.002 -0.9623
vn 0.3642 0.002 -0.9313
vn 0.3642 0.002 -0.9313
vn 0.2719 0.002 -0.9623
vn 0.3642 0.002 -0.9313
vn 0.4589 0.0018 -0.8885
vn 0.459 0.0018 -0.8885
vn 0.3642 0.002 -0.9313
vn 0.4589 0.0018 -0.8885
vn 0.5541 0.0016 -0.8325
vn 0.5541 0.0016 -0.8325
vn 0.459 0.0018 -0.8885
vn 0.5541 0.0016 -0.8325
vn 0.6475 0.0015 -0.7621
vn 0.6475 0.0015 -0.7621
vn 0.5541 0.0016 -0.8325
vn 0.6475 0.0015 -0.7621
vn 0.7352 0.0014 -0.6779
vn 0.7352 0.0014 -0.6779
vn 0.6475 0.0015 -0.7621
vn 0.7352 0.0014 -0.6779
vn 0.8146 0.0012 -0.58
vn 0.8146 0.0012 -0.58
vn 0.7352 0.0014 -0.6779
vn 0.8146 0.0012 -0.58
vn 0.882 0.0009 -0.4712
vn 0.882 0.0009 -0.4712
vn 0.8146 0.0012 -0.58
vn 0.882 0.0009 -0.4712
vn 0.9348 0.0007 -0.3551
vn 0.9348 0.0007 -0.3551
vn 0.882 0.0009 -0.4712
vn 0.9348 0.0007 -0.3551
vn 0.972 0.0005 -0.2351
vn 0.972 0.0005 -0.2351
vn 0.9348 0.0007 -0.3551
vn 0.972 0.0005 -0.2351
vn 0.9933 0.0002 -0.1159
vn 0.9933 0.0002 -0.1159
vn 0.972 0.0005 -0.2351
vn 0.9933 0.0002 -0.1159
vn 1 -0 0.0032
vn 1 -0 0.0031
vn 0.9933 0.0002 -0.1159
vn 1 -0 0.0032
vn 0.992 -0.0002 0.1263
vn 0.992 -0.0002 0.1263
vn 1 -0 0.0031
vn 0.992 -0.0002 0.1263
vn 0.9675 -0.0005 0.2528
vn 0.9675 -0.0005 0.2529
vn 0.992 -0.0002 0.1263
vn 0.9675 -0.0005 0.2528
vn 0.9253 -0.0008 0.3791
vn 0.9253 -0.0008 0.3791
vn 0.9675 -0.0005 0.2529
vn 0.9253 -0.0008 0.3791
vn 0.8641 -0.0011 0.5033
vn 0.8641 -0.0011 0.5033
vn 0.9253 -0.0008 0.3791
vn 0.8641 -0.0011 0.5033
vn 0.7837 -0.0013 0.6212
vn 0.7837 -0.0013 0.6212
vn 0.8641 -0.0011 0.5033
vn 0.7837 -0.0013 0.6212
vn 0.6856 -0.0015 0.728
vn 0.6856 -0.0015 0.728
vn 0.7837 -0.0013 0.6212
vn 0.6856 -0.0015 0.728
vn 0.5735 -0.0016 0.8192
vn 0.5735 -0.0016 0.8192
vn 0.6856 -0.0015 0.728
vn 0.5735 -0.0016 0.8192
vn 0.4537 -0.0018 0.8912
vn 0.4537 -0.0018 0.8912
vn 0.5735 -0.0016 0.8192
vn 0.4537 -0.0018 0.8912
vn 0.3314 -0.002 0.9435
vn 0.3314 -0.002 0.9435
vn 0.4537 -0.0018 0.8912
vn 0.3314 -0.002 0.9435
vn 0.2128 -0.0021 0.9771
vn 0.2128 -0.0021 0.9771
vn 0.3314 -0.002 0.9435
vn 0.2128 -0.0021 0.9771
vn 0.102 -0.0021 0.9948
vn 0.102 -0.0021 0.9948
vn 0.2128 -0.0021 0.9771
vn 0.102 -0.0021 0.9948
vn 0.0242 -0.0021 0.9997
vn 0.0246 -0.0021 0.9997
vn 0.102 -0.0021 0.9948
vn 0.0242 -0.0021 0.9997
vn -0.7071 -0.0015 0.7071
vn -0.7071 -0.0015 0.7071
vn 0.0246 -0.0021 0.9997
vn -0.7071 -0.0015 0.7071
vn -0.7071 0.0015 -0.7071
vn -0.7071 0.0015 -0.7071
vn -0.7071 -0.0015 0.7071
vn -0.7071 0.0015 -0.7071
vn 0.0255 0.0021 -0.9997
vn 0.0255 0.0021 -0.9997
vn -0.7071 0.0015 -0.7071
vn -0.0162 0.0021 -0.9999
vn -0.0693 0.0021 -0.9976
vn -0.0693 0.0021 -0.9976
vn -0.0162 0.0021 -0.9999
vn -0.0693 0.0021 -0.9976
vn -0.1497 0.002 -0.9887
vn -0.1497 0.002 -0.9887
vn -0.0693 0.0021 -0.9976
vn -0.1497 0.002 -0.9887
vn -0.2449 0.002 -0.9695
vn -0.2449 0.002 -0.9695
vn -0.1497 0.002 -0.9887
vn -0.2449 0.002 -0.9695
vn -0.3549 0.002 -0.9349
vn -0.3549 0.002 -0.9349
vn -0.2449 0.002 -0.9695
vn -0.3549 0.002 -0.9349
vn -0.4773 0.0018 -0.8787
vn -0.4773 0.0018 -0.8787
vn -0.3549 0.002 -0.9349
vn -0.4773 0.0018 -0.8787
vn -0.606 0.0015 -0.7954
vn -0.606 0.0015 -0.7955
vn -0.4773 0.0018 -0.8787
vn -0.606 0.0015 -0.7954
vn -0.7303 0.0013 -0.6832
vn -0.7299 0.0014 -0.6835
vn -0.606 0.0015 -0.7955
vn -0.7303 0.0013 -0.6832
vn -0.8368 0.0011 -0.5475
vn -0.8368 0.0011 -0.5475
vn -0.7299 0.0014 -0.6835
vn -0.8368 0.0011 -0.5475
vn -0.9166 0.0009 -0.3997
vn -0.9165 0.0009 -0.4
vn -0.8368 0.0011 -0.5475
vn -0.9166 0.0009 -0.3997
vn -0.9674 0.0005 -0.2534
vn -0.9674 0.0005 -0.2534
vn -0.9165 0.0009 -0.4
vn -0.9674 0.0005 -0.2534
vn -0.9929 0.0002 -0.1192
vn -0.9929 0.0002 -0.1192
vn -0.9674 0.0005 -0.2534
vn -0.9929 0.0002 -0.1192
vn -1 -0 -0.0035
vn -1 -0 -0.0036
vn -0.9929 0.0002 -0.1192
vn -1 -0 -0.0035
vn -0.9946 -0.0002 0.104
vn -0.9946 -0.0002 0.104
vn -1 -0 -0.0036
vn -0.9946 -0.0002 0.104
vn -0.9757 -0.0005 0.2189
vn -0.9757 -0.0005 0.2189
vn -0.9946 -0.0002 0.104
vn -0.9757 -0.0005 0.2189
vn -0.9385 -0.0007 0.3453
vn -0.9385 -0.0007 0.3453
vn -0.9757 -0.0005 0.2189
vn -0.9385 -0.0007 0.3453
vn -0.8782 -0.0011 0.4783
vn -0.8782 -0.0011 0.4783
vn -0.9385 -0.0007 0.3453
vn -0.8782 -0.0011 0.4783
vn -0.7928 -0.0013 0.6095
vn -0.793 -0.0013 0.6092
vn -0.8782 -0.0011 0.4783
vn -0.7928 -0.0013 0.6095
vn -0.6846 -0.0016 0.7289
vn -0.6846 -0.0016 0.7289
vn -0.793 -0.0013 0.6092
vn -0.6846 -0.0016 0.7289
vn -0.5606 -0.0018 0.8281
vn -0.5606 -0.0018 0.8281
vn -0.6846 -0.0016 0.7289
vn -0.5606 -0.0018 0.8281
vn -0.4318 -0.0019 0.902
vn -0.4317 -0.0019 0.902
vn -0.5606 -0.0018 0.8281
vn -0.4318 -0.0019 0.902
vn -0.3063 -0.0018 0.9519
vn -0.3063 -0.0018 0.9519
vn -0.4317 -0.0019 0.902
vn -0.3063 -0.0018 0.9519
vn -0.1915 -0.0022 0.9815
vn -0.1915 -0.0022 0.9815
vn -0.3063 -0.0018 0.9519
vn -0.1915 -0.0022 0.9815
vn -0.0897 -0.0021 0.996
vn -0.0897 -0.0021 0.996
vn -0.1915 -0.0022 0.9815
vn -0.0897 -0.0021 0.996
vn -0.0209 -0.0023 0.9998
vn -0.0208 -0.0023 0.9998
vn -0.0897 -0.0021 0.996
vn -0.0209 -0.0023 0.9998
vn 0.7072 -0.0017 0.707
vn 0.707 -0.0017 0.7072
vn -0.0208 -0.0023 0.9998
vn 0.7072 -0.0017 0.707
vn 0.7071 0.0015 -0.7071
vn 0.7071 0.0015 -0.7071
vn 0.707 -0.0017 0.7072
vn 0.7071 0.0015 -0.7071
vn -0.0162 0.0021 -0.9999
vn -0.0162 0.0021 -0.9999
vn 0.7071 0.0015 -0.7071
vn -0.0213 0.0022 -0.9998
vn -0.0906 0.0019 -0.9959
vn -0.0905 0.0019 -0.9959
vn -0.0213 0.0022 -0.9998
vn -0.0906 0.0019 -0.9959
vn -0.1929 0.002 -0.9812
vn -0.1929 0.002 -0.9812
vn -0.0905 0.0019 -0.9959
vn -0.1929 0.002 -0.9812
vn -0.3077 0.002 -0.9515
vn -0.3077 0.002 -0.9515
vn -0.1929 0.002 -0.9812
vn -0.3077 0.002 -0.9515
vn -0.4321 0.0019 -0.9018
vn -0.4321 0.0019 -0.9018
vn -0.3077 0.002 -0.9515
vn -0.4321 0.0019 -0.9018
vn -0.5595 0.0018 -0.8289
vn -0.5595 0.0018 -0.8289
vn -0.4321 0.0019 -0.9018
vn -0.5595 0.0018 -0.8289
vn -0.6817 0.0016 -0.7317
vn -0.6817 0.0016 -0.7317
vn -0.5595 0.0018 -0.8289
vn -0.6817 0.0016 -0.7317
vn -0.7888 0.0013 -0.6147
vn -0.7888 0.0013 -0.6147
vn -0.6817 0.0016 -0.7317
vn -0.7888 0.0013 -0.6147
vn -0.874 0.001 -0.4858
vn -0.8741 0.001 -0.4858
vn -0.7888 0.0013 -0.6147
vn -0.874 0.001 -0.4858
vn -0.9352 0.0008 -0.3542
vn -0.9352 0.0008 -0.3542
vn -0.8741 0.001 -0.4858
vn -0.9352 0.0008 -0.3542
vn -0.9738 0.0005 -0.2273
vn -0.9738 0.0005 -0.2274
vn -0.9352 0.0008 -0.3542
vn -0.9738 0.0005 -0.2273
vn -0.9941 0.0002 -0.1089
vn -0.9941 0.0002 -0.1089
vn -0.9738 0.0005 -0.2274
vn -0.9941 0.0002 -0.1089
vn -1 -0 0.0071
vn -1 -0 0.0071
vn -0.9941 0.0002 -0.1089
vn -1 -0 0.0071
vn -0.9906 -0.0003 0.1371
vn -0.9906 -0.0003 0.1371
vn -1 -0 0.0071
vn -0.9906 -0.0003 0.1371
vn -0.9593 -0.0006 0.2823
vn -0.9592 -0.0006 0.2828
vn -0.9906 -0.0003 0.1371
vn -0.9593 -0.0006 0.2823
vn -0.9028 -0.0009 0.43
vn -0.9028 -0.0009 0.43
vn -0.9592 -0.0006 0.2828
vn -0.9028 -0.0009 0.43
vn -0.8208 -0.0011 0.5713
vn -0.8208 -0.0011 0.5713
vn -0.9028 -0.0009 0.43
vn -0.8208 -0.0011 0.5713
vn -0.7184 -0.0015 0.6956
vn -0.7183 -0.0015 0.6958
vn -0.8208 -0.0011 0.5713
vn -0.7184 -0.0015 0.6956
vn -0.6029 -0.0017 0.7978
vn -0.6032 -0.0018 0.7976
vn -0.7183 -0.0015 0.6958
vn -0.6029 -0.0017 0.7978
vn -0.4838 -0.0018 0.8752
vn -0.4842 -0.0018 0.875
vn -0.6032 -0.0018 0.7976
vn -0.4838 -0.0018 0.8752
vn -0.368 -0.0018 0.9298
vn -0.368 -0.0018 0.9298
vn -0.4842 -0.0018 0.875
vn -0.368 -0.0018 0.9298
vn -0.2606 -0.002 0.9654
vn -0.2609 -0.0019 0.9654
vn -0.368 -0.0018 0.9298
vn -0.2606 -0.002 0.9654
vn -0.1635 -0.002 0.9865
vn -0.1635 -0.002 0.9865
vn -0.2609 -0.0019 0.9654
vn -0.1635 -0.002 0.9865
vn -0.0772 -0.002 0.997
vn -0.0772 -0.002 0.997
vn -0.1635 -0.002 0.9865
vn -0.0772 -0.002 0.997
vn -0.0183 -0.0023 0.9998
vn -0.0183 -0.0023 0.9998
vn -0.0772 -0.002 0.997
vn -0.0183 -0.0023 0.9998
vn 0.7072 -0.0017 0.707
vn 0.707 -0.0017 0.7072
vn -0.0183 -0.0023 0.9998
vn 0.7072 -0.0017 0.707
vn 0.7072 0.0013 -0.7071
vn 0.7071 0.0013 -0.7072
vn 0.707 -0.0017 0.7072
vn 0.7072 0.0013 -0.7071
vn -0.0213 0.0022 -0.9998
vn -0.0213 0.0022 -0.9998
vn 0.7071 0.0013 -0.7072
vt 0.47619 1
vt 0.733333 1
vt 0.485714 1
vt 0.733333 1
vt 0 1
vt 0.485714 1
vt 0.733333 1
vt 0.009524 1
vt 0 1
vt 0.733333 1
vt 0.019048 1
vt 0.009524 1
vt 0.733333 1
vt 0.028571 1
vt 0.019048 1
vt 0.733333 1
vt 0.038095 1
vt 0.028571 1
vt 0.733333 1
vt 0.047619 1
vt 0.038095 1
vt 0.733333 1
vt 0.057143 1
vt 0.047619 1
vt 0.733333 1
vt 0.066667 1
vt 0.057143 1
vt 0.733333 1
vt 0.72381 1
vt 0.066667 1
vt 0.72381 1
vt 0.07619 1
vt 0.066667 1
vt 0.47619 1
vt 0.742857 1
vt 0.733333 1
vt 0.714286 1
vt 0.07619 1
vt 0.72381 1
vt 0.704762 1
vt 0.07619 1
vt 0.714286 1
vt 0.704762 1
vt 0.085714 1
vt 0.07619 1
vt 0.695238 1
vt 0.085714 1
vt 0.704762 1
vt 0.685714 1
vt 0.085714 1
vt 0.695238 1
vt 0.67619 1
vt 0.085714 1
vt 0.685714 1
vt 0.666667 1
vt 0.085714 1
vt 0.67619 1
vt 0.666667 1
vt 0.095238 1
vt 0.085714 1
vt 0.657143 1
vt 0.095238 1
vt 0.666667 1
vt 0.647619 1
vt 0.095238 1
vt 0.657143 1
vt 0.647619 1
vt 0.104762 1
vt 0.095238 1
vt 0.638095 1
vt 0.104762 1
vt 0.647619 1
vt 0.628571 1
vt 0.104762 1
vt 0.638095 1
vt 0.628571 1
vt 0.114286 1
vt 0.104762 1
vt 0.619048 1
vt 0.114286 1
vt 0.628571 1
vt 0.609524 1
vt 0.114286 1
vt 0.619048 1
vt 0.609524 1
vt 0.12381 1
vt 0.114286 1
vt 0.6 1
vt 0.12381 1
vt 0.609524 1
vt 0.6 1
vt 0.133333 1
vt 0.12381 1
vt 0.590476 1
vt 0.133333 1
vt 0.6 1
vt 0.590476 1
vt 0.142857 1
vt 0.133333 1
vt 0.580952 1
vt 0.142857 1
vt 0.590476 1
vt 0.580952 1
vt 0.152381 1
vt 0.142857 1
vt 0.571429 1
vt 0.152381 1
vt 0.580952 1
vt 0.571429 1
vt 0.161905 1
vt 0.152381 1
vt 0.561905 1
vt 0.161905 1
vt 0.571429 1
vt 0.561905 1
vt 0.171429 1
vt 0.161905 1
vt 0.552381 1
vt 0.171429 1
vt 0.561905 1
vt 0.552381 1
vt 0.180952 1
vt 0.171429 1
vt 0.542857 1
vt 0.180952 1
vt 0.552381 1
vt 0.533333 1
vt 0.180952 1
vt 0.542857 1
vt 0.533333 1
vt 0.190476 1
vt 0.180952 1
vt 0.52381 1
vt 0.190476 1
vt 0.533333 1
vt 0.52381 1
vt 0.2 1
vt 0.190476 1
vt 0.514286 1
vt 0.2 1
vt 0.52381 1
vt 0.504762 1
vt 0.2 1
vt 0.514286 1
vt 0.495238 1
vt 0.2 1
vt 0.504762 1
vt 0.47619 1
vt 0.990476 1
vt 0.742857 1
vt 0.990476 1
vt 0.495238 1
vt 0.742857 1
vt 0.990476 1
vt 0.2 1
vt 0.495238 1
vt 0.990476 1
vt 0.209524 1
vt 0.2 1
vt 0.990476 1
vt 0.219048 1
vt 0.209524 1
vt 0.990476 1
vt 0.228571 1
vt 0.219048 1
vt 0.990476 1
vt 0.238095 1
vt 0.228571 1
vt 0.990476 1
vt 0.247619 1
vt 0.238095 1
vt 0.990476 1
vt 0.257143 1
vt 0.247619 1
vt 0.990476 1
vt 0.266667 1
vt 0.257143 1
vt 0.990476 1
vt 0.27619 1
vt 0.266667 1
vt 0.990476 1
vt 0.285714 1
vt 0.27619 1
vt 0.990476 1
vt 0.980952 1
vt 0.285714 1
vt 0.980952 1
vt 0.295238 1
vt 0.285714 1
vt 0.47619 1
vt 1 1
vt 0.990476 1
vt 0.971429 1
vt 0.295238 1
vt 0.980952 1
vt 0.961905 1
vt 0.295238 1
vt 0.971429 1
vt 0.952381 1
vt 0.295238 1
vt 0.961905 1
vt 0.952381 1
vt 0.304762 1
vt 0.295238 1
vt 0.942857 1
vt 0.304762 1
vt 0.952381 1
vt 0.933333 1
vt 0.304762 1
vt 0.942857 1
vt 0.933333 1
vt 0.314286 1
vt 0.304762 1
vt 0.92381 1
vt 0.314286 1
vt 0.933333 1
vt 0.914286 1
vt 0.314286 1
vt 0.92381 1
vt 0.914286 1
vt 0.32381 1
vt 0.314286 1
vt 0.904762 1
vt 0.32381 1
vt 0.914286 1
vt 0.895238 1
vt 0.32381 1
vt 0.904762 1
vt 0.895238 1
vt 0.333333 1
vt 0.32381 1
vt 0.885714 1
vt 0.333333 1
vt 0.895238 1
vt 0.885714 1
vt 0.342857 1
vt 0.333333 1
vt 0.87619 1
vt 0.342857 1
vt 0.885714 1
vt 0.866667 1
vt 0.342857 1
vt 0.87619 1
vt 0.866667 1
vt 0.352381 1
vt 0.342857 1
vt 0.857143 1
vt 0.352381 1
vt 0.866667 1
vt 0.847619 1
vt 0.352381 1
vt 0.857143 1
vt 0.847619 1
vt 0.361905 1
vt 0.352381 1
vt 0.838095 1
vt 0.361905 1
vt 0.847619 1
vt 0.838095 1
vt 0.371429 1
vt 0.361905 1
vt 0.828571 1
vt 0.371429 1
vt 0.838095 1
vt 0.819048 1
vt 0.371429 1
vt 0.828571 1
vt 0.819048 1
vt 0.380952 1
vt 0.371429 1
vt 0.809524 1
vt 0.380952 1
vt 0.819048 1
vt 0.8 1
vt 0.380952 1
vt 0.809524 1
vt 0.8 1
vt 0.390476 1
vt 0.380952 1
vt 0.790476 1
vt 0.390476 1
vt 0.8 1
vt 0.780952 1
vt 0.390476 1
vt 0.790476 1
vt 0.771429 1
vt 0.390476 1
vt 0.780952 1
vt 0.771429 1
vt 0.4 1
vt 0.390476 1
vt 0.761905 1
vt 0.4 1
vt 0.771429 1
vt 0.752381 1
vt 0.4 1
vt 0.761905 1
vt 0.47619 1
vt 0.752381 1
vt 1 1
vt 0.47619 1
vt 0.4 1
vt 0.752381 1
vt 0.47619 1
vt 0.409524 1
vt 0.4 1
vt 0.47619 1
vt 0.419048 1
vt 0.409524 1
vt 0.47619 1
vt 0.428571 1
vt 0.419048 1
vt 0.47619 1
vt 0.438095 1
vt 0.428571 1
vt 0.47619 1
vt 0.447619 1
vt 0.438095 1
vt 0.47619 1
vt 0.457143 1
vt 0.447619 1
vt 0.47619 1
vt 0.466667 1
vt 0.457143 1
vt 0.733333 1
vt 0.47619 1
vt 0.485714 1
vt 0 1
vt 0.733333 1
vt 0.485714 1
vt 0.009524 1
vt 0.733333 1
vt 0 1
vt 0.019048 1
vt 0.733333 1
vt 0.009524 1
vt 0.028571 1
vt 0.733333 1
vt 0.019048 1
vt 0.038095 1
vt 0.733333 1
vt 0.028571 1
vt 0.047619 1
vt 0.733333 1
vt 0.038095 1
vt 0.057143 1
vt 0.733333 1
vt 0.047619 1
vt 0.066667 1
vt 0.733333 1
vt 0.057143 1
vt 0.72381 1
vt 0.733333 1
vt 0.066667 1
vt 0.07619 1
vt 0.72381 1
vt 0.066667 1
vt 0.742857 1
vt 0.47619 1
vt 0.733333 1
vt 0.07619 1
vt 0.714286 1
vt 0.72381 1
vt 0.07619 1
vt 0.704762 1
vt 0.714286 1
vt 0.085714 1
vt 0.704762 1
vt 0.07619 1
vt 0.085714 1
vt 0.695238 1
vt 0.704762 1
vt 0.085714 1
vt 0.685714 1
vt 0.695238 1
vt 0.085714 1
vt 0.67619 1
vt 0.685714 1
vt 0.085714 1
vt 0.666667 1
vt 0.67619 1
vt 0.095238 1
vt 0.666667 1
vt 0.085714 1
vt 0.095238 1
vt 0.657143 1
vt 0.666667 1
vt 0.095238 1
vt 0.647619 1
vt 0.657143 1
vt 0.104762 1
vt 0.647619 1
vt 0.095238 1
vt 0.104762 1
vt 0.638095 1
vt 0.647619 1
vt 0.104762 1
vt 0.628571 1
vt 0.638095 1
vt 0.114286 1
vt 0.628571 1
vt 0.104762 1
vt 0.114286 1
vt 0.619048 1
vt 0.628571 1
vt 0.114286 1
vt 0.609524 1
vt 0.619048 1
vt 0.12381 1
vt 0.609524 1
vt 0.114286 1
vt 0.12381 1
vt 0.6 1
vt 0.609524 1
vt 0.133333 1
vt 0.6 1
vt 0.12381 1
vt 0.133333 1
vt 0.590476 1
vt 0.6 1
vt 0.142857 1
vt 0.590476 1
vt 0.133333 1
vt 0.142857 1
vt 0.580952 1
vt 0.590476 1
vt 0.152381 1
vt 0.580952 1
vt 0.142857 1
vt 0.152381 1
vt 0.571429 1
vt 0.580952 1
vt 0.161905 1
vt 0.571429 1
vt 0.152381 1
vt 0.161905 1
vt 0.561905 1
vt 0.571429 1
vt 0.171429 1
vt 0.561905 1
vt 0.161905 1
vt 0.171429 1
vt 0.552381 1
vt 0.561905 1
vt 0.180952 1
vt 0.552381 1
vt 0.171429 1
vt 0.180952 1
vt 0.542857 1
vt 0.552381 1
vt 0.180952 1
vt 0.533333 1
vt 0.542857 1
vt 0.190476 1
vt 0.533333 1
vt 0.180952 1
vt 0.190476 1
vt 0.52381 1
vt 0.533333 1
vt 0.2 1
vt 0.52381 1
vt 0.190476 1
vt 0.2 1
vt 0.514286 1
vt 0.52381 1
vt 0.2 1
vt 0.504762 1
vt 0.514286 1
vt 0.2 1
vt 0.495238 1
vt 0.504762 1
vt 0.990476 1
vt 0.47619 1
vt 0.742857 1
vt 0.495238 1
vt 0.990476 1
vt 0.742857 1
vt 0.2 1
vt 0.990476 1
vt 0.495238 1
vt 0.209524 1
vt 0.990476 1
vt 0.2 1
vt 0.219048 1
vt 0.990476 1
vt 0.209524 1
vt 0.228571 1
vt 0.990476 1
vt 0.219048 1
vt 0.238095 1
vt 0.990476 1
vt 0.228571 1
vt 0.247619 1
vt 0.990476 1
vt 0.238095 1
vt 0.257143 1
vt 0.990476 1
vt 0.247619 1
vt 0.266667 1
vt 0.990476 1
vt 0.257143 1
vt 0.27619 1
vt 0.990476 1
vt 0.266667 1
vt 0.285714 1
vt 0.990476 1
vt 0.27619 1
vt 0.980952 1
vt 0.990476 1
vt 0.285714 1
vt 0.295238 1
vt 0.980952 1
vt 0.285714 1
vt 1 1
vt 0.47619 1
vt 0.990476 1
vt 0.295238 1
vt 0.971429 1
vt 0.980952 1
vt 0.295238 1
vt 0.961905 1
vt 0.971429 1
vt 0.295238 1
vt 0.952381 1
vt 0.961905 1
vt 0.304762 1
vt 0.952381 1
vt 0.295238 1
vt 0.304762 1
vt 0.942857 1
vt 0.952381 1
vt 0.304762 1
vt 0.933333 1
vt 0.942857 1
vt 0.314286 1
vt 0.933333 1
vt 0.304762 1
vt 0.314286 1
vt 0.92381 1
vt 0.933333 1
vt 0.314286 1
vt 0.914286 1
vt 0.92381 1
vt 0.32381 1
vt 0.914286 1
vt 0.314286 1
vt 0.32381 1
vt 0.904762 1
vt 0.914286 1
vt 0.32381 1
vt 0.895238 1
vt 0.904762 1
vt 0.333333 1
vt 0.895238 1
vt 0.32381 1
vt 0.333333 1
vt 0.885714 1
vt 0.895238 1
vt 0.342857 1
vt 0.885714 1
vt 0.333333 1
vt 0.342857 1
vt 0.87619 1
vt 0.885714 1
vt 0.342857 1
vt 0.866667 1
vt 0.87619 1
vt 0.352381 1
vt 0.866667 1
vt 0.342857 1
vt 0.352381 1
vt 0.857143 1
vt 0.866667 1
vt 0.352381 1
vt 0.847619 1
vt 0.857143 1
vt 0.361905 1
vt 0.847619 1
vt 0.352381 1
vt 0.361905 1
vt 0.838095 1
vt 0.847619 1
vt 0.371429 1
vt 0.838095 1
vt 0.361905 1
vt 0.371429 1
vt 0.828571 1
vt 0.838095 1
vt 0.371429 1
vt 0.819048 1
vt 0.828571 1
vt 0.380952 1
vt 0.819048 1
vt 0.371429 1
vt 0.380952 1
vt 0.809524 1
vt 0.819048 1
vt 0.380952 1
vt 0.8 1
vt 0.809524 1
vt 0.390476 1
vt 0.8 1
vt 0.380952 1
vt 0.390476 1
vt 0.790476 1
vt 0.8 1
vt 0.390476 1
vt 0.780952 1
vt 0.790476 1
vt 0.390476 1
vt 0.771429 1
vt 0.780952 1
vt 0.4 1
vt 0.771429 1
vt 0.390476 1
vt 0.4 1
vt 0.761905 1
vt 0.771429 1
vt 0.4 1
vt 0.752381 1
vt 0.761905 1
vt 0.752381 1
vt 0.47619 1
vt 1 1
vt 0.4 1
vt 0.47619 1
vt 0.752381 1
vt 0.409524 1
vt 0.47619 1
vt 0.4 1
vt 0.419048 1
vt 0.47619 1
vt 0.409524 1
vt 0.428571 1
vt 0.47619 1
vt 0.419048 1
vt 0.438095 1
vt 0.47619 1
vt 0.428571 1
vt 0.447619 1
vt 0.47619 1
vt 0.438095 1
vt 0.457143 1
vt 0.47619 1
vt 0.447619 1
vt 0.466667 1
vt 0.47619 1
vt 0.457143 1
vt 0 0
vt 0.019231 0
vt 0.019231 1
vt 0 1
vt 0.019231 0
vt 0.038462 0
vt 0.038462 1
vt 0.019231 1
vt 0.038462 0
vt 0.057692 0
vt 0.057692 1
vt 0.038462 1
vt 0.057692 0
vt 0.076923 0
vt 0.076923 1
vt 0.057692 1
vt 0.076923 0
vt 0.096154 0
vt 0.096154 1
vt 0.076923 1
vt 0.096154 0
vt 0.115385 0
vt 0.115385 1
vt 0.096154 1
vt 0.115385 0
vt 0.134615 0
vt 0.134615 1
vt 0.115385 1
vt 0.134615 0
vt 0.153846 0
vt 0.153846 1
vt 0.134615 1
vt 0.153846 0
vt 0.173077 0
vt 0.173077 1
vt 0.153846 1
vt 0.173077 0
vt 0.192308 0
vt 0.192308 1
vt 0.173077 1
vt 0.192308 0
vt 0.211538 0
vt 0.211538 1
vt 0.192308 1
vt 0.211538 0
vt 0.230769 0
vt 0.230769 1
vt 0.211538 1
vt 0.230769 0
vt 0.25 0
vt 0.25 1
vt 0.230769 1
vt 0.25 0
vt 0.269231 0
vt 0.269231 1
vt 0.25 1
vt 0.269231 0
vt 0.288462 0
vt 0.288462 1
vt 0.269231 1
vt 0.288462 0
vt 0.307692 0
vt 0.307692 1
vt 0.288462 1
vt 0.307692 0
vt 0.326923 0
vt 0.326923 1
vt 0.307692 1
vt 0.326923 0
vt 0.346154 0
vt 0.346154 1
vt 0.326923 1
vt 0.346154 0
vt 0.365385 0
vt 0.365385 1
vt 0.346154 1
vt 0.365385 0
vt 0.384615 0
vt 0.384615 1
vt 0.365385 1
vt 0.384615 0
vt 0.403846 0
vt 0.403846 1
vt 0.384615 1
vt 0.403846 0
vt 0.423077 0
vt 0.423077 1
vt 0.403846 1
vt 0.423077 0
vt 0.442308 0
vt 0.442308 1
vt 0.423077 1
vt 0.442308 0
vt 0.461538 0
vt 0.461538 1
vt 0.442308 1
vt 0.461538 0
vt 0.480769 0
vt 0.480769 1
vt 0.461538 1
vt 0.480769 0
vt 0.5 0
vt 0.5 1
vt 0.480769 1
vt 0.5 0
vt 0.519231 0
vt 0.519231 1
vt 0.5 1
vt 0.519231 0
vt 0.538462 0
vt 0.538462 1
vt 0.519231 1
vt 0.538462 0
vt 0.557692 0
vt 0.557692 1
vt 0.538462 1
vt 0.557692 0
vt 0.576923 0
vt 0.576923 1
vt 0.557692 1
vt 0.576923 0
vt 0.596154 0
vt 0.596154 1
vt 0.576923 1
vt 0.596154 0
vt 0.615385 0
vt 0.615385 1
vt 0.596154 1
vt 0.615385 0
vt 0.634615 0
vt 0.634615 1
vt 0.615385 1
vt 0.634615 0
vt 0.653846 0
vt 0.653846 1
vt 0.634615 1
vt 0.653846 0
vt 0.673077 0
vt 0.673077 1
vt 0.653846 1
vt 0.673077 0
vt 0.692308 0
vt 0.692308 1
vt 0.673077 1
vt 0.692308 0
vt 0.711538 0
vt 0.711538 1
vt 0.692308 1
vt 0.711538 0
vt 0.730769 0
vt 0.730769 1
vt 0.711538 1
vt 0.730769 0
vt 0.75 0
vt 0.75 1
vt 0.730769 1
vt 0.75 0
vt 0.769231 0
vt 0.769231 1
vt 0.75 1
vt 0.769231 0
vt 0.788462 0
vt 0.788462 1
vt 0.769231 1
vt 0.788462 0
vt 0.807692 0
vt 0.807692 1
vt 0.788462 1
vt 0.807692 0
vt 0.826923 0
vt 0.826923 1
vt 0.807692 1
vt 0.826923 0
vt 0.846154 0
vt 0.846154 1
vt 0.826923 1
vt 0.846154 0
vt 0.865385 0
vt 0.865385 1
vt 0.846154 1
vt 0.865385 0
vt 0.884615 0
vt 0.884615 1
vt 0.865385 1
vt 0.884615 0
vt 0.903846 0
vt 0.903846 1
vt 0.884615 1
vt 0.903846 0
vt 0.923077 0
vt 0.923077 1
vt 0.903846 1
vt 0.923077 0
vt 0.942308 0
vt 0.942308 1
vt 0.923077 1
vt 0.942308 0
vt 0.961538 0
vt 0.961538 1
vt 0.942308 1
vt 0.961538 0
vt 0.980769 0
vt 0.980769 1
vt 0.961538 1
vt 0.980769 0
vt 1 0
vt 1 1
vt 0.980769 1
vt 0 0
vt 0.037037 0
vt 0.037037 1
vt 0 1
vt 0.037037 0
vt 0.074074 0
vt 0.074074 1
vt 0.037037 1
vt 0.074074 0
vt 0.111111 0
vt 0.111111 1
vt 0.074074 1
vt 0.111111 0
vt 0.148148 0
vt 0.148148 1
vt 0.111111 1
vt 0.148148 0
vt 0.185185 0
vt 0.185185 1
vt 0.148148 1
vt 0.185185 0
vt 0.222222 0
vt 0.222222 1
vt 0.185185 1
vt 0.222222 0
vt 0.259259 0
vt 0.259259 1
vt 0.222222 1
vt 0.259259 0
vt 0.296296 0
vt 0.296296 1
vt 0.259259 1
vt 0.296296 0
vt 0.333333 0
vt 0.333333 1
vt 0.296296 1
vt 0.333333 0
vt 0.37037 0
vt 0.37037 1
vt 0.333333 1
vt 0.37037 0
vt 0.407407 0
vt 0.407407 1
vt 0.37037 1
vt 0.407407 0
vt 0.444444 0
vt 0.444444 1
vt 0.407407 1
vt 0.444444 0
vt 0.481481 0
vt 0.481481 1
vt 0.444444 1
vt 0.481481 0
vt 0.518519 0
vt 0.518519 1
vt 0.481481 1
vt 0.518519 0
vt 0.555556 0
vt 0.555556 1
vt 0.518519 1
vt 0.555556 0
vt 0.592593 0
vt 0.592593 1
vt 0.555556 1
vt 0.592593 0
vt 0.62963 0
vt 0.62963 1
vt 0.592593 1
vt 0.62963 0
vt 0.666667 0
vt 0.666667 1
vt 0.62963 1
vt 0.666667 0
vt 0.703704 0
vt 0.703704 1
vt 0.666667 1
vt 0.703704 0
vt 0.740741 0
vt 0.740741 1
vt 0.703704 1
vt 0.740741 0
vt 0.777778 0
vt 0.777778 1
vt 0.740741 1
vt 0.777778 0
vt 0.814815 0
vt 0.814815 1
vt 0.777778 1
vt 0.814815 0
vt 0.851852 0
vt 0.851852 1
vt 0.814815 1
vt 0.851852 0
vt 0.888889 0
vt 0.888889 1
vt 0.851852 1
vt 0.888889 0
vt 0.925926 0
vt 0.925926 1
vt 0.888889 1
vt 0.925926 0
vt 0.962963 0
vt 0.962963 1
vt 0.925926 1
vt 0.962963 0
vt 1 0
vt 1 1
vt 0.962963 1
vt 0 0
vt 0.037037 0
vt 0.037037 1
vt 0 1
vt 0.037037 0
vt 0.074074 0
vt 0.074074 1
vt 0.037037 1
vt 0.074074 0
vt 0.111111 0
vt 0.111111 1
vt 0.074074 1
vt 0.111111 0
vt 0.148148 0
vt 0.148148 1
vt 0.111111 1
vt 0.148148 0
vt 0.185185 0
vt 0.185185 1
vt 0.148148 1
vt 0.185185 0
vt 0.222222 0
vt 0.222222 1
vt 0.185185 1
vt 0.222222 0
vt 0.259259 0
vt 0.259259 1
vt 0.222222 1
vt 0.259259 0
vt 0.296296 0
vt 0.296296 1
vt 0.259259 1
vt 0.296296 0
vt 0.333333 0
vt 0.333333 1
vt 0.296296 1
vt 0.333333 0
vt 0.37037 0
vt 0.37037 1
vt 0.333333 1
vt 0.37037 0
vt 0.407407 0
vt 0.407407 1
vt 0.37037 1
vt 0.407407 0
vt 0.444444 0
vt 0.444444 1
vt 0.407407 1
vt 0.444444 0
vt 0.481481 0
vt 0.481481 1
vt 0.444444 1
vt 0.481481 0
vt 0.518519 0
vt 0.518519 1
vt 0.481481 1
vt 0.518519 0
vt 0.555556 0
vt 0.555556 1
vt 0.518519 1
vt 0.555556 0
vt 0.592593 0
vt 0.592593 1
vt 0.555556 1
vt 0.592593 0
vt 0.62963 0
vt 0.62963 1
vt 0.592593 1
vt 0.62963 0
vt 0.666667 0
vt 0.666667 1
vt 0.62963 1
vt 0.666667 0
vt 0.703704 0
vt 0.703704 1
vt 0.666667 1
vt 0.703704 0
vt 0.740741 0
vt 0.740741 1
vt 0.703704 1
vt 0.740741 0
vt 0.777778 0
vt 0.777778 1
vt 0.740741 1
vt 0.777778 0
vt 0.814815 0
vt 0.814815 1
vt 0.777778 1
vt 0.814815 0
vt 0.851852 0
vt 0.851852 1
vt 0.814815 1
vt 0.851852 0
vt 0.888889 0
vt 0.888889 1
vt 0.851852 1
vt 0.888889 0
vt 0.925926 0
vt 0.925926 1
vt 0.888889 1
vt 0.925926 0
vt 0.962963 0
vt 0.962963 1
vt 0.925926 1
vt 0.962963 0
vt 1 0
vt 1 1
vt 0.962963 1
s off
f 1/1/1 2/2/2 3/3/3
f 4/4/4 5/5/5 6/6/6
f 7/7/7 8/8/8 9/9/9
f 10/10/10 11/11/11 12/12/12
f 13/13/13 14/14/14 15/15/15
f 16/16/16 17/17/17 18/18/18
f 19/19/19 20/20/20 21/21/21
f 22/22/22 23/23/23 24/24/24
f 25/25/25 26/26/26 27/27/27
f 28/28/28 29/29/29 30/30/30
f 31/31/31 32/32/32 33/33/33
f 34/34/34 35/35/35 36/36/36
f 37/37/37 38/38/38 39/39/39
f 40/40/40 41/41/41 42/42/42
f 43/43/43 44/44/44 45/45/45
f 46/46/46 47/47/47 48/48/48
f 49/49/49 50/50/50 51/51/51
f 52/52/52 53/53/53 54/54/54
f 55/55/55 56/56/56 57/57/57
f 58/58/58 59/59/59 60/60/60
f 61/61/61 62/62/62 63/63/63
f 64/64/64 65/65/65 66/66/66
f 67/67/67 68/68/68 69/69/69
f 70/70/70 71/71/71 72/72/72
f 73/73/73 74/74/74 75/75/75
f 76/76/76 77/77/77 78/78/78
f 79/79/79 80/80/80 81/81/81
f 82/82/82 83/83/83 84/84/84
f 85/85/85 86/86/86 87/87/87
f 88/88/88 89/89/89 90/90/90
f 91/91/91 92/92/92 93/93/93
f 94/94/94 95/95/95 96/96/96
f 97/97/97 98/98/98 99/99/99
f 100/100/100 101/101/101 102/102/102
f 103/103/103 104/104/104 105/105/105
f 106/106/106 107/107/107 108/108/108
f 109/109/109 110/110/110 111/111/111
f 112/112/112 113/113/113 114/114/114
f 115/115/115 116/116/116 117/117/117
f 118/118/118 119/119/119 120/120/120
f 121/121/121 122/122/122 123/123/123
f 124/124/124 125/125/125 126/126/126
f 127/127/127 128/128/128 129/129/129
f 130/130/130 131/131/131 132/132/132
f 133/133/133 134/134/134 135/135/135
f 136/136/136 137/137/137 138/138/138
f 139/139/139 140/140/140 141/141/141
f 142/142/142 143/143/143 144/144/144
f 145/145/145 146/146/146 147/147/147
f 148/148/148 149/149/149 150/150/150
f 151/151/151 152/152/152 153/153/153
f 154/154/154 155/155/155 156/156/156
f 157/157/157 158/158/158 159/159/159
f 160/160/160 161/161/161 162/162/162
f 163/163/163 164/164/164 165/165/165
f 166/166/166 167/167/167 168/168/168
f 169/169/169 170/170/170 171/171/171
f 172/172/172 173/173/173 174/174/174
f 175/175/175 176/176/176 177/177/177
f 178/178/178 179/179/179 180/180/180
f 181/181/181 182/182/182 183/183/183
f 184/184/184 185/185/185 186/186/186
f 187/187/187 188/188/188 189/189/189
f 190/190/190 191/191/191 192/192/192
f 193/193/193 194/194/194 195/195/195
f 196/196/196 197/197/197 198/198/198
f 199/199/199 200/200/200 201/201/201
f 202/202/202 203/203/203 204/204/204
f 205/205/205 206/206/206 207/207/207
f 208/208/208 209/209/209 210/210/210
f 211/211/211 212/212/212 213/213/213
f 214/214/214 215/215/215 216/216/216
f 217/217/217 218/218/218 219/219/219
f 220/220/220 221/221/221 222/222/222
f 223/223/223 224/224/224 225/225/225
f 226/226/226 227/227/227 228/228/228
f 229/229/229 230/230/230 231/231/231
f 232/232/232 233/233/233 234/234/234
f 235/235/235 236/236/236 237/237/237
f 238/238/238 239/239/239 240/240/240
f 241/241/241 242/242/242 243/243/243
f 244/244/244 245/245/245 246/246/246
f 247/247/247 248/248/248 249/249/249
f 250/250/250 251/251/251 252/252/252
f 253/253/253 254/254/254 255/255/255
f 256/256/256 257/257/257 258/258/258
f 259/259/259 260/260/260 261/261/261
f 262/262/262 263/263/263 264/264/264
f 265/265/265 266/266/266 267/267/267
f 268/268/268 269/269/269 270/270/270
f 271/271/271 272/272/272 273/273/273
f 274/274/274 275/275/275 276/276/276
f 277/277/277 278/278/278 279/279/279
f 280/280/280 281/281/281 282/282/282
f 283/283/283 284/284/284 285/285/285
f 286/286/286 287/287/287 288/288/288
f 289/289/289 290/290/290 291/291/291
f 292/292/292 293/293/293 294/294/294
f 295/295/295 296/296/296 297/297/297
f 298/298/298 299/299/299 300/300/300
f 301/301/301 302/302/302 303/303/303
f 304/304/304 305/305/305 306/306/306
f 307/307/307 308/308/308 309/309/309
f 310/310/310 311/311/311 312/312/312
f 313/313/313 314/314/314 315/315/315
f 316/316/316 317/317/317 318/318/318
f 319/319/319 320/320/320 321/321/321
f 322/322/322 323/323/323 324/324/324
f 325/325/325 326/326/326 327/327/327
f 328/328/328 329/329/329 330/330/330
f 331/331/331 332/332/332 333/333/333
f 334/334/334 335/335/335 336/336/336
f 337/337/337 338/338/338 339/339/339
f 340/340/340 341/341/341 342/342/342
f 343/343/343 344/344/344 345/345/345
f 346/346/346 347/347/347 348/348/348
f 349/349/349 350/350/350 351/351/351
f 352/352/352 353/353/353 354/354/354
f 355/355/355 356/356/356 357/357/357
f 358/358/358 359/359/359 360/360/360
f 361/361/361 362/362/362 363/363/363
f 364/364/364 365/365/365 366/366/366
f 367/367/367 368/368/368 369/369/369
f 370/370/370 371/371/371 372/372/372
f 373/373/373 374/374/374 375/375/375
f 376/376/376 377/377/377 378/378/378
f 379/379/379 380/380/380 381/381/381
f 382/382/382 383/383/383 384/384/384
f 385/385/385 386/386/386 387/387/387
f 388/388/388 389/389/389 390/390/390
f 391/391/391 392/392/392 393/393/393
f 394/394/394 395/395/395 396/396/396
f 397/397/397 398/398/398 399/399/399
f 400/400/400 401/401/401 402/402/402
f 403/403/403 404/404/404 405/405/405
f 406/406/406 407/407/407 408/408/408
f 409/409/409 410/410/410 411/411/411
f 412/412/412 413/413/413 414/414/414
f 415/415/415 416/416/416 417/417/417
f 418/418/418 419/419/419 420/420/420
f 421/421/421 422/422/422 423/423/423
f 424/424/424 425/425/425 426/426/426
f 427/427/427 428/428/428 429/429/429
f 430/430/430 431/431/431 432/432/432
f 433/433/433 434/434/434 435/435/435
f 436/436/436 437/437/437 438/438/438
f 439/439/439 440/440/440 441/441/441
f 442/442/442 443/443/443 444/444/444
f 445/445/445 446/446/446 447/447/447
f 448/448/448 449/449/449 450/450/450
f 451/451/451 452/452/452 453/453/453
f 454/454/454 455/455/455 456/456/456
f 457/457/457 458/458/458 459/459/459
f 460/460/460 461/461/461 462/462/462
f 463/463/463 464/464/464 465/465/465
f 466/466/466 467/467/467 468/468/468
f 469/469/469 470/470/470 471/471/471
f 472/472/472 473/473/473 474/474/474
f 475/475/475 476/476/476 477/477/477
f 478/478/478 479/479/479 480/480/480
f 481/481/481 482/482/482 483/483/483
f 484/484/484 485/485/485 486/486/486
f 487/487/487 488/488/488 489/489/489
f 490/490/490 491/491/491 492/492/492
f 493/493/493 494/494/494 495/495/495
f 496/496/496 497/497/497 498/498/498
f 499/499/499 500/500/500 501/501/501
f 502/502/502 503/503/503 504/504/504
f 505/505/505 506/506/506 507/507/507
f 508/508/508 509/509/509 510/510/510
f 511/511/511 512/512/512 513/513/513
f 514/514/514 515/515/515 516/516/516
f 517/517/517 518/518/518 519/519/519
f 520/520/520 521/521/521 522/522/522
f 523/523/523 524/524/524 525/525/525
f 526/526/526 527/527/527 528/528/528
f 529/529/529 530/530/530 531/531/531
f 532/532/532 533/533/533 534/534/534
f 535/535/535 536/536/536 537/537/537
f 538/538/538 539/539/539 540/540/540
f 541/541/541 542/542/542 543/543/543
f 544/544/544 545/545/545 546/546/546
f 547/547/547 548/548/548 549/549/549
f 550/550/550 551/551/551 552/552/552
f 553/553/553 554/554/554 555/555/555
f 556/556/556 557/557/557 558/558/558
f 559/559/559 560/560/560 561/561/561
f 562/562/562 563/563/563 564/564/564
f 565/565/565 566/566/566 567/567/567
f 568/568/568 569/569/569 570/570/570
f 571/571/571 572/572/572 573/573/573
f 574/574/574 575/575/575 576/576/576
f 577/577/577 578/578/578 579/579/579
f 580/580/580 581/581/581 582/582/582
f 583/583/583 584/584/584 585/585/585
f 586/586/586 587/587/587 588/588/588
f 589/589/589 590/590/590 591/591/591
f 592/592/592 593/593/593 594/594/594
f 595/595/595 596/596/596 597/597/597
f 598/598/598 599/599/599 600/600/600
f 601/601/601 602/602/602 603/603/603
f 604/604/604 605/605/605 606/606/606
f 607/607/607 608/608/608 609/609/609
f 610/610/610 611/611/611 612/612/612
f 613/613/613 614/614/614 615/615/615
f 616/616/616 617/617/617 618/618/618
f 619/619/619 620/620/620 621/621/621
f 622/622/622 623/623/623 624/624/624
f 625/625/625 626/626/626 627/627/627
f 628/628/628 629/629/629 630/630/630
f 631/631/631 632/632/632 633/633/633
f 634/634/634 635/635/635 636/636/636
f 637/637/637 638/638/638 639/639/639
f 640/640/640 641/641/641 642/642/642
f 643/643/643 644/644/644 645/645/645
f 646/646/646 647/647/647 648/648/648
f 649/649/649 650/650/650 651/651/651
f 649/649/649 651/651/651 652/652/652
f 653/653/653 654/654/654 655/655/655
f 653/653/653 655/655/655 656/656/656
f 657/657/657 658/658/658 659/659/659
f 657/657/657 659/659/659 660/660/660
f 661/661/661 662/662/662 663/663/663
f 661/661/661 663/663/663 664/664/664
f 665/665/665 666/666/666 667/667/667
f 665/665/665 667/667/667 668/668/668
f 669/669/669 670/670/670 671/671/671
f 669/669/669 671/671/671 672/672/672
f 673/673/673 674/674/674 675/675/675
f 673/673/673 675/675/675 676/676/676
f 677/677/677 678/678/678 679/679/679
f 677/677/677 679/679/679 680/680/680
f 681/681/681 682/682/682 683/683/683
f 681/681/681 683/683/683 684/684/684
f 685/685/685 686/686/686 687/687/687
f 685/685/685 687/687/687 688/688/688
f 689/689/689 690/690/690 691/691/691
f 689/689/689 691/691/691 692/692/692
f 693/693/693 694/694/694 695/695/695
f 693/693/693 695/695/695 696/696/696
f 697/697/697 698/698/698 699/699/699
f 697/697/697 699/699/699 700/700/700
f 701/701/701 702/702/702 703/703/703
f 701/701/701 703/703/703 704/704/704
f 705/705/705 706/706/706 707/707/707
f 705/705/705 707/707/707 708/708/708
f 709/709/709 710/710/710 711/711/711
f 709/709/709 711/711/711 712/712/712
f 713/713/713 714/714/714 715/715/715
f 713/713/713 715/715/715 716/716/716
f 717/717/717 718/718/718 719/719/719
f 717/717/717 719/719/719 720/720/720
f 721/721/721 722/722/722 723/723/723
f 721/721/721 723/723/723 724/724/724
f 725/725/725 726/726/726 727/727/727
f 725/725/725 727/727/727 728/728/728
f 729/729/729 730/730/730 731/731/731
f 729/729/729 731/731/731 732/732/732
f 733/733/733 734/734/734 735/735/735
f 733/733/733 735/735/735 736/736/736
f 737/737/737 738/738/738 739/739/739
f 737/737/737 739/739/739 740/740/740
f 741/741/741 742/742/742 743/743/743
f 741/741/741 743/743/743 744/744/744
f 745/745/745 746/746/746 747/747/747
f 745/745/745 747/747/747 748/748/748
f 749/749/749 750/750/750 751/751/751
f 749/749/749 751/751/751 752/752/752
f 753/753/753 754/754/754 755/755/755
f 753/753/753 755/755/755 756/756/756
f 757/757/757 758/758/758 759/759/759
f 757/757/757 759/759/759 760/760/760
f 761/761/761 762/762/762 763/763/763
f 761/761/761 763/763/763 764/764/764
f 765/765/765 766/766/766 767/767/767
f 765/765/765 767/767/767 768/768/768
f 769/769/769 770/770/770 771/771/771
f 769/769/769 771/771/771 772/772/772
f 773/773/773 774/774/774 775/775/775
f 773/773/773 775/775/775 776/776/776
f 777/777/777 778/778/778 779/779/779
f 777/777/777 779/779/779 780/780/780
f 781/781/781 782/782/782 783/783/783
f 781/781/781 783/783/783 784/784/784
f 785/785/785 786/786/786 787/787/787
f 785/785/785 787/787/787 788/788/788
f 789/789/789 790/790/790 791/791/791
f 789/789/789 791/791/791 792/792/792
f 793/793/793 794/794/794 795/795/795
f 793/793/793 795/795/795 796/796/796
f 797/797/797 798/798/798 799/799/799
f 797/797/797 799/799/799 800/800/800
f 801/801/801 802/802/802 803/803/803
f 801/801/801 803/803/803 804/804/804
f 805/805/805 806/806/806 807/807/807
f 805/805/805 807/807/807 808/808/808
f 809/809/809 810/810/810 811/811/811
f 809/809/809 811/811/811 812/812/812
f 813/813/813 814/814/814 815/815/815
f 813/813/813 815/815/815 816/816/816
f 817/817/817 818/818/818 819/819/819
f 817/817/817 819/819/819 820/820/820
f 821/821/821 822/822/822 823/823/823
f 821/821/821 823/823/823 824/824/824
f 825/825/825 826/826/826 827/827/827
f 825/825/825 827/827/827 828/828/828
f 829/829/829 830/830/830 831/831/831
f 829/829/829 831/831/831 832/832/832
f 833/833/833 834/834/834 835/835/835
f 833/833/833 835/835/835 836/836/836
f 837/837/837 838/838/838 839/839/839
f 837/837/837 839/839/839 840/840/840
f 841/841/841 842/842/842 843/843/843
f 841/841/841 843/843/843 844/844/844
f 845/845/845 846/846/846 847/847/847
f 845/845/845 847/847/847 848/848/848
f 849/849/849 850/850/850 851/851/851
f 849/849/849 851/851/851 852/852/852
f 853/853/853 854/854/854 855/855/855
f 853/853/853 855/855/855 856/856/856
f 857/857/857 858/858/858 859/859/859
f 857/857/857 859/859/859 860/860/860
f 861/861/861 862/862/862 863/863/863
f 861/861/861 863/863/863 864/864/864
f 865/865/865 866/866/866 867/867/867
f 865/865/865 867/867/867 868/868/868
f 869/869/869 870/870/870 871/871/871
f 869/869/869 871/871/871 872/872/872
f 873/873/873 874/874/874 875/875/875
f 873/873/873 875/875/875 876/876/876
f 877/877/877 878/878/878 879/879/879
f 877/877/877 879/879/879 880/880/880
f 881/881/881 882/882/882 883/883/883
f 881/881/881 883/883/883 884/884/884
f 885/885/885 886/886/886 887/887/887
f 885/885/885 887/887/887 888/888/888
f 889/889/889 890/890/890 891/891/891
f 889/889/889 891/891/891 892/892/892
f 893/893/893 894/894/894 895/895/895
f 893/893/893 895/895/895 896/896/896
f 897/897/897 898/898/898 899/899/899
f 897/897/897 899/899/899 900/900/900
f 901/901/901 902/902/902 903/903/903
f 901/901/901 903/903/903 904/904/904
f 905/905/905 906/906/906 907/907/907
f 905/905/905 907/907/907 908/908/908
f 909/909/909 910/910/910 911/911/911
f 909/909/909 911/911/911 912/912/912
f 913/913/913 914/914/914 915/915/915
f 913/913/913 915/915/915 916/916/916
f 917/917/917 918/918/918 919/919/919
f 917/917/917 919/919/919 920/920/920
f 921/921/921 922/922/922 923/923/923
f 921/921/921 923/923/923 924/924/924
f 925/925/925 926/926/926 927/927/927
f 925/925/925 927/927/927 928/928/928
f 929/929/929 930/930/930 931/931/931
f 929/929/929 931/931/931 932/932/932
f 933/933/933 934/934/934 935/935/935
f 933/933/933 935/935/935 936/936/936
f 937/937/937 938/938/938 939/939/939
f 937/937/937 939/939/939 940/940/940
f 941/941/941 942/942/942 943/943/943
f 941/941/941 943/943/943 944/944/944
f 945/945/945 946/946/946 947/947/947
f 945/945/945 947/947/947 948/948/948
f 949/949/949 950/950/950 951/951/951
f 949/949/949 951/951/951 952/952/952
f 953/953/953 954/954/954 955/955/955
f 953/953/953 955/955/955 956/956/956
f 957/957/957 958/958/958 959/959/959
f 957/957/957 959/959/959 960/960/960
f 961/961/961 962/962/962 963/963/963
f 961/961/961 963/963/963 964/964/964
f 965/965/965 966/966/966 967/967/967
f 965/965/965 967/967/967 968/968/968
f 969/969/969 970/970/970 971/971/971
f 969/969/969 971/971/971 972/972/972
f 973/973/973 974/974/974 975/975/975
f 973/973/973 975/975/975 976/976/976
f 977/977/977 978/978/978 979/979/979
f 977/977/977 979/979/979 980/980/980
f 981/981/981 982/982/982 983/983/983
f 981/981/981 983/983/983 984/984/984
f 985/985/985 986/986/986 987/987/987
f 985/985/985 987/987/987 988/988/988
f 989/989/989 990/990/990 991/991/991
f 989/989/989 991/991/991 992/992/992
f 993/993/993 994/994/994 995/995/995
f 993/993/993 995/995/995 996/996/996
f 997/997/997 998/998/998 999/999/999
f 997/997/997 999/999/999 1000/1000/1000
f 1001/1001/1001 1002/1002/1002 1003/1003/1003
f 1001/1001/1001 1003/1003/1003 1004/1004/1004
f 1005/1005/1005 1006/1006/1006 1007/1007/1007
f 1005/1005/1005 1007/1007/1007 1008/1008/1008
f 1009/1009/1009 1010/1010/1010 1011/1011/1011
f 1009/1009/1009 1011/1011/1011 1012/1012/1012
f 1013/1013/1013 1014/1014/1014 1015/1015/1015
f 1013/1013/1013 1015/1015/1015 1016/1016/1016
f 1017/1017/1017 1018/1018/1018 1019/1019/1019
f 1017/1017/1017 1019/1019/1019 1020/1020/1020
f 1021/1021/1021 1022/1022/1022 1023/1023/1023
f 1021/1021/1021 1023/1023/1023 1024/1024/1024
f 1025/1025/1025 1026/1026/1026 1027/1027/1027
f 1025/1025/1025 1027/1027/1027 1028/1028/1028
f 1029/1029/1029 1030/1030/1030 1031/1031/1031
f 1029/1029/1029 1031/1031/1031 1032/1032/1032
f 1033/1033/1033 1034/1034/1034 1035/1035/1035
f 1033/1033/1033 1035/1035/1035 1036/1036/1036
f 1037/1037/1037 1038/1038/1038 1039/1039/1039
f 1037/1037/1037 1039/1039/1039 1040/1040/1040
f 1041/1041/1041 1042/1042/1042 1043/1043/1043
f 1041/1041/1041 1043/1043/1043 1044/1044/1044
f 1045/1045/1045 1046/1046/1046 1047/1047/1047
f 1045/1045/1045 1047/1047/1047 1048/1048/1048
f 1049/1049/1049 1050/1050/1050 1051/1051/1051
f 1049/1049/1049 1051/1051/1051 1052/1052/1052
f 1053/1053/1053 1054/1054/1054 1055/1055/1055
f 1053/1053/1053 1055/1055/1055 1056/1056/1056
f 1057/1057/1057 1058/1058/1058 1059/1059/1059
f 1057/1057/1057 1059/1059/1059 1060/1060/1060
f 1061/1061/1061 1062/1062/1062 1063/1063/1063
f 1061/1061/1061 1063/1063/1063 1064/1064/1064
f 1065/1065/1065 1066/1066/1066 1067/1067/1067
f 1065/1065/1065 1067/1067/1067 1068/1068/1068
f 1069/1069/1069 1070/1070/1070 1071/1071/1071
f 1069/1069/1069 1071/1071/1071 1072/1072/1072
