v -0.848443 -0.052202 -0.26906
v -0.848443 -0.052202 -0.304489
v -0.848443 -0.031545 -0.304489
v -0.848443 -0.031545 -0.26906
v -0.793774 -0.045085 -0.26906
v -0.83412 -0.045085 -0.26906
v -0.83412 -0.045085 -0.29028
v -0.793774 -0.045085 -0.29028
v -1.0262 -0.060556 0.366147
v -1.0262 -0.043147 0.366147
v -1.0262 -0.021136 -0.304489
v -1.0262 -0.064407 -0.304489
v -1.0262 -0.064407 -0.304489
v -1.0262 -0.021136 -0.304489
v -0.848443 -0.031545 -0.304489
v -0.848443 -0.052202 -0.304489
v -0.77945 -0.052202 -0.304489
v 1.04079 -0.064407 -0.304489
v 1.04079 -0.064407 -0.304489
v 1.04079 -0.021136 -0.304489
v 1.04079 -0.043147 0.366147
v 1.04079 -0.060556 0.366147
v 1.04079 -0.060556 0.366147
v 1.04079 -0.043147 0.366147
v -1.0262 -0.043147 0.366147
v -1.0262 -0.060556 0.366147
v -0.864593 -0.085181 -0.252055
v 0.879183 -0.085181 -0.252055
v 0.879183 -0.08133 0.313713
v -0.864593 -0.08133 0.313713
v 1.04079 -0.021136 -0.304489
v -1.0262 -0.021136 -0.304489
v -1.0262 -0.043147 0.366147
v 1.04079 -0.043147 0.366147
v -0.864593 -0.085181 -0.252055
v -0.864593 -0.08133 0.313713
v -1.0262 -0.060556 0.366147
v -1.0262 -0.064407 -0.304489
v 0.879183 -0.085181 -0.252055
v -0.864593 -0.085181 -0.252055
v -1.0262 -0.064407 -0.304489
v 1.04079 -0.064407 -0.304489
v 0.879183 -0.08133 0.313713
v 0.879183 -0.085181 -0.252055
v 1.04079 -0.064407 -0.304489
v 1.04079 -0.060556 0.366147
v -0.77945 -0.052202 -0.304489
v -0.77945 -0.052202 -0.26906
v -0.77945 -0.031545 -0.26906
v -0.77945 -0.031545 -0.304489
v 1.04079 -0.064407 -0.304489
v -0.77945 -0.052202 -0.304489
v -0.77945 -0.031545 -0.304489
v -0.848443 -0.031545 -0.304489
v -1.0262 -0.021136 -0.304489
v 1.04079 -0.021136 -0.304489
v -0.848443 -0.052202 -0.304489
v -0.848443 -0.052202 -0.26906
v -0.77945 -0.052202 -0.26906
v -0.77945 -0.052202 -0.304489
v -0.77945 -0.031545 -0.304489
v -0.77945 -0.031545 -0.26906
v -0.848443 -0.031545 -0.26906
v -0.848443 -0.031545 -0.304489
v -0.83412 -0.038662 -0.26906
v -0.83412 -0.045085 -0.26906
v -0.848443 -0.052202 -0.26906
v -0.848443 -0.031545 -0.26906
v -0.793774 -0.045085 -0.26906
v -0.793774 -0.038662 -0.26906
v -0.77945 -0.031545 -0.26906
v -0.77945 -0.052202 -0.26906
v -0.83412 -0.045085 -0.26906
v -0.793774 -0.045085 -0.26906
v -0.77945 -0.052202 -0.26906
v -0.848443 -0.052202 -0.26906
v -0.793774 -0.038662 -0.26906
v -0.83412 -0.038662 -0.26906
v -0.848443 -0.031545 -0.26906
v -0.77945 -0.031545 -0.26906
v -0.793774 -0.045085 -0.29028
v -0.83412 -0.045085 -0.29028
v -0.83412 -0.038662 -0.29028
v -0.793774 -0.038662 -0.29028
v -0.83412 -0.045085 -0.26906
v -0.83412 -0.038662 -0.26906
v -0.83412 -0.038662 -0.29028
v -0.83412 -0.045085 -0.29028
v -0.83412 -0.038662 -0.26906
v -0.793774 -0.038662 -0.26906
v -0.793774 -0.038662 -0.29028
v -0.83412 -0.038662 -0.29028
v -0.793774 -0.038662 -0.26906
v -0.793774 -0.045085 -0.26906
v -0.793774 -0.045085 -0.29028
v -0.793774 -0.038662 -0.29028
vn 1 -0 -0
vn 1 -0 -0
vn 1 -0 -0
vn 1 -0 -0
vn -0 -1 -0
vn -0 -1 -0
vn -0 -1 -0
vn -0 -1 -0
vn -1 -0 -0
vn -1 -0 -0
vn -1 -0 -0
vn -1 -0 -0
vn -0 -0 -1
vn -0 -0 -1
vn -0 -0 -1
vn -0 -0 -1
vn -0 -0 -1
vn -0 -0 -1
vn 1 -0 -0
vn 1 -0 -0
vn 1 -0 -0
vn 1 -0 -0
vn -0 -0 1
vn -0 -0 1
vn -0 -0 1
vn -0 -0 1
vn -0 -1 0.0068
vn -0 -1 0.0068
vn -0 -1 0.0068
vn -0 -1 0.0068
vn -0 0.9995 0.0328
vn -0 0.9995 0.0328
vn -0 0.9995 0.0328
vn -0 0.9995 0.0328
vn -0.1275 -0.9918 0.0062
vn -0.1275 -0.9918 0.0062
vn -0.1275 -0.9918 0.0062
vn -0.1275 -0.9918 0.0062
vn -0 -0.9297 -0.3683
vn -0 -0.9297 -0.3683
vn -0 -0.9297 -0.3683
vn -0 -0.9297 -0.3683
vn 0.1275 -0.9918 0.0062
vn 0.1275 -0.9918 0.0062
vn 0.1275 -0.9918 0.0062
vn 0.1275 -0.9918 0.0062
vn -1 -0 -0
vn -1 -0 -0
vn -1 -0 -0
vn -1 -0 -0
vn -0 -0 -1
vn -0 -0 -1
vn -0 -0 -1
vn -0 -0 -1
vn -0 -0 -1
vn -0 -0 -1
vn -0 1 -0
vn -0 1 -0
vn -0 1 -0
vn -0 1 -0
vn -0 -1 -0
vn -0 -1 -0
vn -0 -1 -0
vn -0 -1 -0
vn -0 -0 -1
vn -0 -0 -1
vn -0 -0 -1
vn -0 -0 -1
vn -0 -0 -1
vn -0 -0 -1
vn -0 -0 -1
vn -0 -0 -1
vn -0 -0 -1
vn -0 -0 -1
vn -0 -0 -1
vn -0 -0 -1
vn -0 -0 -1
vn -0 -0 -1
vn -0 -0 -1
vn -0 -0 -1
vn -0 -0 -1
vn -0 -0 -1
vn -0 -0 -1
vn -0 -0 -1
vn -1 -0 -0
vn -1 -0 -0
vn -1 -0 -0
vn -1 -0 -0
vn -0 1 -0
vn -0 1 -0
vn -0 1 -0
vn -0 1 -0
vn 1 -0 -0
vn 1 -0 -0
vn 1 -0 -0
vn 1 -0 -0
vt 0.375 1
vt 0.375 0.871623
vt 0.625 0.871623
vt 0.625 1
vt 0.378304 0.198098
vt 0.378304 0.051902
vt 0.378304 0.051902
vt 0.378304 0.198098
vt 0.375 1
vt 0.625 1
vt 0.625 0.75
vt 0.375 0.75
vt 0.375 0.75
vt 0.625 0.75
vt 0.564862 0.7285
vt 0.445514 0.7285
vt 0.445514 0.720156
vt 0.375 0.5
vt 0.375 0.5
vt 0.625 0.5
vt 0.625 0.25
vt 0.375 0.25
vt 0.375 0.25
vt 0.625 0.25
vt 0.625 0
vt 0.375 0
vt 0.144546 0.480454
vt 0.355454 0.480454
vt 0.355454 0.269546
vt 0.144546 0.269546
vt 0.625 0.5
vt 0.875 0.5
vt 0.875 0.25
vt 0.625 0.25
vt 0.144546 0.480454
vt 0.144546 0.269546
vt 0.125 0.25
vt 0.125 0.5
vt 0.355454 0.480454
vt 0.144546 0.480454
vt 0.125 0.5
vt 0.375 0.5
vt 0.355454 0.269546
vt 0.355454 0.480454
vt 0.375 0.5
vt 0.375 0.25
vt 0.375 0.378377
vt 0.375 0.25
vt 0.625 0.25
vt 0.625 0.378377
vt 0.375 0.5
vt 0.445514 0.720156
vt 0.564862 0.720156
vt 0.564862 0.7285
vt 0.625 0.75
vt 0.625 0.5
vt 0.125 0.378377
vt 0.125 0.25
vt 0.375 0.25
vt 0.375 0.378377
vt 0.625 0.378377
vt 0.625 0.25
vt 0.875 0.25
vt 0.875 0.378377
vt 0.621696 0.051902
vt 0.378304 0.051902
vt 0.375 0
vt 0.625 0
vt 0.378304 0.198098
vt 0.621696 0.198098
vt 0.625 0.25
vt 0.375 0.25
vt 0.378304 0.051902
vt 0.378304 0.198098
vt 0.375 0.25
vt 0.375 0
vt 0.621696 0.198098
vt 0.621696 0.051902
vt 0.625 0
vt 0.625 0.25
vt 0.378304 0.198098
vt 0.378304 0.051902
vt 0.621696 0.051902
vt 0.621696 0.198098
vt 0.378304 0.051902
vt 0.621696 0.051902
vt 0.621696 0.051902
vt 0.378304 0.051902
vt 0.621696 0.051902
vt 0.621696 0.198098
vt 0.621696 0.198098
vt 0.621696 0.051902
vt 0.621696 0.198098
vt 0.378304 0.198098
vt 0.378304 0.198098
vt 0.621696 0.198098
s off
f 1/1/1 2/2/2 3/3/3
f 1/1/1 3/3/3 4/4/4
f 5/5/5 6/6/6 7/7/7
f 5/5/5 7/7/7 8/8/8
f 9/9/9 10/10/10 11/11/11
f 9/9/9 11/11/11 12/12/12
f 17/17/17 18/18/18 13/13/13
f 13/13/13 14/14/14 15/15/15
f 16/16/16 17/17/17 13/13/13
f 13/13/13 15/15/15 16/16/16
f 19/19/19 20/20/20 21/21/21
f 19/19/19 21/21/21 22/22/22
f 23/23/23 24/24/24 25/25/25
f 23/23/23 25/25/25 26/26/26
f 27/27/27 28/28/28 29/29/29
f 27/27/27 29/29/29 30/30/30
f 31/31/31 32/32/32 33/33/33
f 31/31/31 33/33/33 34/34/34
f 35/35/35 36/36/36 37/37/37
f 35/35/35 37/37/37 38/38/38
f 39/39/39 40/40/40 41/41/41
f 39/39/39 41/41/41 42/42/42
f 43/43/43 44/44/44 45/45/45
f 43/43/43 45/45/45 46/46/46
f 47/47/47 48/48/48 49/49/49
f 47/47/47 49/49/49 50/50/50
f 55/55/55 56/56/56 51/51/51
f 51/51/51 52/52/52 53/53/53
f 53/53/53 54/54/54 55/55/55
f 55/55/55 51/51/51 53/53/53
f 57/57/57 58/58/58 59/59/59
f 57/57/57 59/59/59 60/60/60
f 61/61/61 62/62/62 63/63/63
f 61/61/61 63/63/63 64/64/64
f 65/65/65 66/66/66 67/67/67
f 65/65/65 67/67/67 68/68/68
f 69/69/69 70/70/70 71/71/71
f 69/69/69 71/71/71 72/72/72
f 73/73/73 74/74/74 75/75/75
f 73/73/73 75/75/75 76/76/76
f 77/77/77 78/78/78 79/79/79
f 77/77/77 79/79/79 80/80/80
f 81/81/81 82/82/82 83/83/83
f 81/81/81 83/83/83 84/84/84
f 85/85/85 86/86/86 87/87/87
f 85/85/85 87/87/87 88/88/88
f 89/89/89 90/90/90 91/91/91
f 89/89/89 91/91/91 92/92/92
f 93/93/93 94/94/94 95/95/95
f 93/93/93 95/95/95 96/96/96
