# Blender 5.2.0 LTS
# www.blender.org
mtllib COMMA_text.mtl
o COMMA_text
v 0.228063 0.017608 0.185153
v 0.227994 0.017608 0.185095
v 0.227994 0.007940 0.185095
v 0.228063 0.007940 0.185153
v 0.228063 0.017608 0.185153
v 0.228153 0.017608 0.185238
v 0.229650 0.017608 0.186785
v 0.229774 0.017608 0.186920
v 0.229882 0.017608 0.187062
v 0.229974 0.017608 0.187210
v 0.230051 0.017608 0.187364
v 0.230111 0.017608 0.187525
v 0.230156 0.017608 0.187692
v 0.230185 0.017608 0.187866
v 0.230196 0.017608 0.187985
v 0.230199 0.017608 0.188108
v 0.230189 0.017608 0.188322
v 0.230162 0.017608 0.188502
v 0.230120 0.017608 0.188678
v 0.230062 0.017608 0.188850
v 0.229974 0.017608 0.189047
v 0.229865 0.017608 0.189239
v 0.229774 0.017608 0.189372
v 0.229650 0.017608 0.189530
v 0.224609 0.017608 0.194522
v 0.224474 0.017608 0.194645
v 0.224333 0.017608 0.194753
v 0.224185 0.017608 0.194845
v 0.224031 0.017608 0.194922
v 0.223870 0.017608 0.194982
v 0.223702 0.017608 0.195028
v 0.223528 0.017608 0.195056
v 0.223409 0.017608 0.195067
v 0.223287 0.017608 0.195071
v 0.223104 0.017608 0.195063
v 0.222928 0.017608 0.195039
v 0.222759 0.017608 0.194999
v 0.222596 0.017608 0.194944
v 0.222439 0.017608 0.194872
v 0.222289 0.017608 0.194786
v 0.222145 0.017608 0.194683
v 0.222053 0.017608 0.194605
v 0.221964 0.017608 0.194522
v 0.220367 0.017608 0.192924
v 0.220224 0.017608 0.192752
v 0.220119 0.017608 0.192600
v 0.220029 0.017608 0.192440
v 0.219955 0.017608 0.192275
v 0.219897 0.017608 0.192105
v 0.219855 0.017608 0.191929
v 0.219829 0.017608 0.191747
v 0.219818 0.017608 0.191527
v 0.219829 0.017608 0.191310
v 0.219855 0.017608 0.191135
v 0.219897 0.017608 0.190970
v 0.219944 0.017608 0.190840
v 0.220003 0.017608 0.190718
v 0.220072 0.017608 0.190602
v 0.220152 0.017608 0.190493
v 0.220243 0.017608 0.190391
v 0.220303 0.017608 0.190334
v 0.220367 0.017608 0.190279
v 0.225358 0.017608 0.185238
v 0.225530 0.017608 0.185095
v 0.225685 0.017608 0.184989
v 0.225846 0.017608 0.184900
v 0.226013 0.017608 0.184826
v 0.226187 0.017608 0.184768
v 0.226367 0.017608 0.184726
v 0.226554 0.017608 0.184700
v 0.226780 0.017608 0.184689
v 0.227006 0.017608 0.184700
v 0.227190 0.017608 0.184726
v 0.227367 0.017608 0.184768
v 0.227535 0.017608 0.184826
v 0.227696 0.017608 0.184900
v 0.227849 0.017608 0.184989
v 0.227994 0.017608 0.185095
v 0.228153 0.017608 0.185238
v 0.228063 0.017608 0.185153
v 0.228063 0.007940 0.185153
v 0.228153 0.007940 0.185238
v 0.228063 0.007940 0.185153
v 0.227994 0.007940 0.185095
v 0.227849 0.007940 0.184989
v 0.227696 0.007940 0.184900
v 0.227535 0.007940 0.184826
v 0.227367 0.007940 0.184768
v 0.227190 0.007940 0.184726
v 0.227006 0.007940 0.184700
v 0.226780 0.007940 0.184689
v 0.226554 0.007940 0.184700
v 0.226367 0.007940 0.184726
v 0.226187 0.007940 0.184768
v 0.226013 0.007940 0.184826
v 0.225846 0.007940 0.184900
v 0.225685 0.007940 0.184989
v 0.225530 0.007940 0.185095
v 0.225358 0.007940 0.185238
v 0.220367 0.007940 0.190279
v 0.220303 0.007940 0.190334
v 0.220243 0.007940 0.190391
v 0.220152 0.007940 0.190493
v 0.220072 0.007940 0.190602
v 0.220003 0.007940 0.190718
v 0.219944 0.007940 0.190840
v 0.219897 0.007940 0.190970
v 0.219855 0.007940 0.191135
v 0.219829 0.007940 0.191310
v 0.219818 0.007940 0.191527
v 0.219829 0.007940 0.191747
v 0.219855 0.007940 0.191929
v 0.219897 0.007940 0.192105
v 0.219955 0.007940 0.192275
v 0.220029 0.007940 0.192440
v 0.220119 0.007940 0.192600
v 0.220224 0.007940 0.192752
v 0.220367 0.007940 0.192924
v 0.221964 0.007940 0.194522
v 0.222053 0.007940 0.194605
v 0.222145 0.007940 0.194683
v 0.222289 0.007940 0.194786
v 0.222439 0.007940 0.194872
v 0.222596 0.007940 0.194944
v 0.222759 0.007940 0.194999
v 0.222928 0.007940 0.195039
v 0.223104 0.007940 0.195063
v 0.223287 0.007940 0.195071
v 0.223409 0.007940 0.195067
v 0.223528 0.007940 0.195056
v 0.223702 0.007940 0.195028
v 0.223870 0.007940 0.194982
v 0.224031 0.007940 0.194922
v 0.224185 0.007940 0.194845
v 0.224333 0.007940 0.194753
v 0.224474 0.007940 0.194645
v 0.224609 0.007940 0.194522
v 0.229650 0.007940 0.189530
v 0.229774 0.007940 0.189372
v 0.229865 0.007940 0.189239
v 0.229974 0.007940 0.189047
v 0.230062 0.007940 0.188850
v 0.230120 0.007940 0.188678
v 0.230162 0.007940 0.188502
v 0.230189 0.007940 0.188322
v 0.230199 0.007940 0.188108
v 0.230196 0.007940 0.187985
v 0.230185 0.007940 0.187866
v 0.230156 0.007940 0.187692
v 0.230111 0.007940 0.187525
v 0.230051 0.007940 0.187364
v 0.229974 0.007940 0.187210
v 0.229882 0.007940 0.187062
v 0.229774 0.007940 0.186920
v 0.229650 0.007940 0.186785
v 0.228153 0.007940 0.185238
v 0.227994 0.017608 0.185095
v 0.227849 0.017608 0.184989
v 0.227849 0.007940 0.184989
v 0.227994 0.007940 0.185095
v 0.227849 0.017608 0.184989
v 0.227696 0.017608 0.184900
v 0.227696 0.007940 0.184900
v 0.227849 0.007940 0.184989
v 0.227696 0.017608 0.184900
v 0.227535 0.017608 0.184826
v 0.227535 0.007940 0.184826
v 0.227696 0.007940 0.184900
v 0.227535 0.017608 0.184826
v 0.227367 0.017608 0.184768
v 0.227367 0.007940 0.184768
v 0.227535 0.007940 0.184826
v 0.227367 0.017608 0.184768
v 0.227190 0.017608 0.184726
v 0.227190 0.007940 0.184726
v 0.227367 0.007940 0.184768
v 0.227190 0.017608 0.184726
v 0.227006 0.017608 0.184700
v 0.227006 0.007940 0.184700
v 0.227190 0.007940 0.184726
v 0.227006 0.017608 0.184700
v 0.226780 0.017608 0.184689
v 0.226780 0.007940 0.184689
v 0.227006 0.007940 0.184700
v 0.226780 0.017608 0.184689
v 0.226554 0.017608 0.184700
v 0.226554 0.007940 0.184700
v 0.226780 0.007940 0.184689
v 0.226554 0.017608 0.184700
v 0.226367 0.017608 0.184726
v 0.226367 0.007940 0.184726
v 0.226554 0.007940 0.184700
v 0.226367 0.017608 0.184726
v 0.226187 0.017608 0.184768
v 0.226187 0.007940 0.184768
v 0.226367 0.007940 0.184726
v 0.226187 0.017608 0.184768
v 0.226013 0.017608 0.184826
v 0.226013 0.007940 0.184826
v 0.226187 0.007940 0.184768
v 0.226013 0.017608 0.184826
v 0.225846 0.017608 0.184900
v 0.225846 0.007940 0.184900
v 0.226013 0.007940 0.184826
v 0.225846 0.017608 0.184900
v 0.225685 0.017608 0.184989
v 0.225685 0.007940 0.184989
v 0.225846 0.007940 0.184900
v 0.225685 0.017608 0.184989
v 0.225530 0.017608 0.185095
v 0.225530 0.007940 0.185095
v 0.225685 0.007940 0.184989
v 0.225530 0.017608 0.185095
v 0.225358 0.017608 0.185238
v 0.225358 0.007940 0.185238
v 0.225530 0.007940 0.185095
v 0.225358 0.017608 0.185238
v 0.220367 0.017608 0.190279
v 0.220367 0.007940 0.190279
v 0.225358 0.007940 0.185238
v 0.220367 0.017608 0.190279
v 0.220303 0.017608 0.190334
v 0.220303 0.007940 0.190334
v 0.220367 0.007940 0.190279
v 0.220303 0.017608 0.190334
v 0.220243 0.017608 0.190391
v 0.220243 0.007940 0.190391
v 0.220303 0.007940 0.190334
v 0.220243 0.017608 0.190391
v 0.220152 0.017608 0.190493
v 0.220152 0.007940 0.190493
v 0.220243 0.007940 0.190391
v 0.220152 0.017608 0.190493
v 0.220072 0.017608 0.190602
v 0.220072 0.007940 0.190602
v 0.220152 0.007940 0.190493
v 0.220072 0.017608 0.190602
v 0.220003 0.017608 0.190718
v 0.220003 0.007940 0.190718
v 0.220072 0.007940 0.190602
v 0.220003 0.017608 0.190718
v 0.219944 0.017608 0.190840
v 0.219944 0.007940 0.190840
v 0.220003 0.007940 0.190718
v 0.219944 0.017608 0.190840
v 0.219897 0.017608 0.190970
v 0.219897 0.007940 0.190970
v 0.219944 0.007940 0.190840
v 0.219897 0.017608 0.190970
v 0.219855 0.017608 0.191135
v 0.219855 0.007940 0.191135
v 0.219897 0.007940 0.190970
v 0.219855 0.017608 0.191135
v 0.219829 0.017608 0.191310
v 0.219829 0.007940 0.191310
v 0.219855 0.007940 0.191135
v 0.219829 0.017608 0.191310
v 0.219818 0.017608 0.191527
v 0.219818 0.007940 0.191527
v 0.219829 0.007940 0.191310
v 0.219818 0.017608 0.191527
v 0.219829 0.017608 0.191747
v 0.219829 0.007940 0.191747
v 0.219818 0.007940 0.191527
v 0.219829 0.017608 0.191747
v 0.219855 0.017608 0.191929
v 0.219855 0.007940 0.191929
v 0.219829 0.007940 0.191747
v 0.219855 0.017608 0.191929
v 0.219897 0.017608 0.192105
v 0.219897 0.007940 0.192105
v 0.219855 0.007940 0.191929
v 0.219897 0.017608 0.192105
v 0.219955 0.017608 0.192275
v 0.219955 0.007940 0.192275
v 0.219897 0.007940 0.192105
v 0.219955 0.017608 0.192275
v 0.220029 0.017608 0.192440
v 0.220029 0.007940 0.192440
v 0.219955 0.007940 0.192275
v 0.220029 0.017608 0.192440
v 0.220119 0.017608 0.192600
v 0.220119 0.007940 0.192600
v 0.220029 0.007940 0.192440
v 0.220119 0.017608 0.192600
v 0.220224 0.017608 0.192752
v 0.220224 0.007940 0.192752
v 0.220119 0.007940 0.192600
v 0.220224 0.017608 0.192752
v 0.220367 0.017608 0.192924
v 0.220367 0.007940 0.192924
v 0.220224 0.007940 0.192752
v 0.220367 0.017608 0.192924
v 0.221964 0.017608 0.194522
v 0.221964 0.007940 0.194522
v 0.220367 0.007940 0.192924
v 0.221964 0.017608 0.194522
v 0.222053 0.017608 0.194605
v 0.222053 0.007940 0.194605
v 0.221964 0.007940 0.194522
v 0.222053 0.017608 0.194605
v 0.222145 0.017608 0.194683
v 0.222145 0.007940 0.194683
v 0.222053 0.007940 0.194605
v 0.222145 0.017608 0.194683
v 0.222289 0.017608 0.194786
v 0.222289 0.007940 0.194786
v 0.222145 0.007940 0.194683
v 0.222289 0.017608 0.194786
v 0.222439 0.017608 0.194872
v 0.222439 0.007940 0.194872
v 0.222289 0.007940 0.194786
v 0.222439 0.017608 0.194872
v 0.222596 0.017608 0.194944
v 0.222596 0.007940 0.194944
v 0.222439 0.007940 0.194872
v 0.222596 0.017608 0.194944
v 0.222759 0.017608 0.194999
v 0.222759 0.007940 0.194999
v 0.222596 0.007940 0.194944
v 0.222759 0.017608 0.194999
v 0.222928 0.017608 0.195039
v 0.222928 0.007940 0.195039
v 0.222759 0.007940 0.194999
v 0.222928 0.017608 0.195039
v 0.223104 0.017608 0.195063
v 0.223104 0.007940 0.195063
v 0.222928 0.007940 0.195039
v 0.223104 0.017608 0.195063
v 0.223287 0.017608 0.195071
v 0.223287 0.007940 0.195071
v 0.223104 0.007940 0.195063
v 0.223287 0.017608 0.195071
v 0.223409 0.017608 0.195067
v 0.223409 0.007940 0.195067
v 0.223287 0.007940 0.195071
v 0.223409 0.017608 0.195067
v 0.223528 0.017608 0.195056
v 0.223528 0.007940 0.195056
v 0.223409 0.007940 0.195067
v 0.223528 0.017608 0.195056
v 0.223702 0.017608 0.195028
v 0.223702 0.007940 0.195028
v 0.223528 0.007940 0.195056
v 0.223702 0.017608 0.195028
v 0.223870 0.017608 0.194982
v 0.223870 0.007940 0.194982
v 0.223702 0.007940 0.195028
v 0.223870 0.017608 0.194982
v 0.224031 0.017608 0.194922
v 0.224031 0.007940 0.194922
v 0.223870 0.007940 0.194982
v 0.224031 0.017608 0.194922
v 0.224185 0.017608 0.194845
v 0.224185 0.007940 0.194845
v 0.224031 0.007940 0.194922
v 0.224185 0.017608 0.194845
v 0.224333 0.017608 0.194753
v 0.224333 0.007940 0.194753
v 0.224185 0.007940 0.194845
v 0.224333 0.017608 0.194753
v 0.224474 0.017608 0.194645
v 0.224474 0.007940 0.194645
v 0.224333 0.007940 0.194753
v 0.224474 0.017608 0.194645
v 0.224609 0.017608 0.194522
v 0.224609 0.007940 0.194522
v 0.224474 0.007940 0.194645
v 0.224609 0.017608 0.194522
v 0.229650 0.017608 0.189530
v 0.229650 0.007940 0.189530
v 0.224609 0.007940 0.194522
v 0.229650 0.017608 0.189530
v 0.229774 0.017608 0.189372
v 0.229774 0.007940 0.189372
v 0.229650 0.007940 0.189530
v 0.229774 0.017608 0.189372
v 0.229865 0.017608 0.189239
v 0.229865 0.007940 0.189239
v 0.229774 0.007940 0.189372
v 0.229865 0.017608 0.189239
v 0.229974 0.017608 0.189047
v 0.229974 0.007940 0.189047
v 0.229865 0.007940 0.189239
v 0.229974 0.017608 0.189047
v 0.230062 0.017608 0.188850
v 0.230062 0.007940 0.188850
v 0.229974 0.007940 0.189047
v 0.230062 0.017608 0.188850
v 0.230120 0.017608 0.188678
v 0.230120 0.007940 0.188678
v 0.230062 0.007940 0.188850
v 0.230120 0.017608 0.188678
v 0.230162 0.017608 0.188502
v 0.230162 0.007940 0.188502
v 0.230120 0.007940 0.188678
v 0.230162 0.017608 0.188502
v 0.230189 0.017608 0.188322
v 0.230189 0.007940 0.188322
v 0.230162 0.007940 0.188502
v 0.230189 0.017608 0.188322
v 0.230199 0.017608 0.188108
v 0.230199 0.007940 0.188108
v 0.230189 0.007940 0.188322
v 0.230199 0.017608 0.188108
v 0.230196 0.017608 0.187985
v 0.230196 0.007940 0.187985
v 0.230199 0.007940 0.188108
v 0.230196 0.017608 0.187985
v 0.230185 0.017608 0.187866
v 0.230185 0.007940 0.187866
v 0.230196 0.007940 0.187985
v 0.230185 0.017608 0.187866
v 0.230156 0.017608 0.187692
v 0.230156 0.007940 0.187692
v 0.230185 0.007940 0.187866
v 0.230156 0.017608 0.187692
v 0.230111 0.017608 0.187525
v 0.230111 0.007940 0.187525
v 0.230156 0.007940 0.187692
v 0.230111 0.017608 0.187525
v 0.230051 0.017608 0.187364
v 0.230051 0.007940 0.187364
v 0.230111 0.007940 0.187525
v 0.230051 0.017608 0.187364
v 0.229974 0.017608 0.187210
v 0.229974 0.007940 0.187210
v 0.230051 0.007940 0.187364
v 0.229974 0.017608 0.187210
v 0.229882 0.017608 0.187062
v 0.229882 0.007940 0.187062
v 0.229974 0.007940 0.187210
v 0.229882 0.017608 0.187062
v 0.229774 0.017608 0.186920
v 0.229774 0.007940 0.186920
v 0.229882 0.007940 0.187062
v 0.229774 0.017608 0.186920
v 0.229650 0.017608 0.186785
v 0.229650 0.007940 0.186785
v 0.229774 0.007940 0.186920
v 0.229650 0.017608 0.186785
v 0.228153 0.017608 0.185238
v 0.228153 0.007940 0.185238
v 0.229650 0.007940 0.186785
v 0.224731 0.017608 0.136925
v 0.224673 0.017608 0.136857
v 0.224673 0.007940 0.136857
v 0.224731 0.007940 0.136925
v 0.224731 0.017608 0.136925
v 0.224816 0.017608 0.137010
v 0.230705 0.017608 0.142850
v 0.230829 0.017608 0.142985
v 0.230937 0.017608 0.143128
v 0.231030 0.017608 0.143277
v 0.231106 0.017608 0.143434
v 0.231166 0.017608 0.143598
v 0.231211 0.017608 0.143770
v 0.231240 0.017608 0.143948
v 0.231251 0.017608 0.144071
v 0.231254 0.017608 0.144197
v 0.231246 0.017608 0.144386
v 0.231221 0.017608 0.144568
v 0.231180 0.017608 0.144743
v 0.231122 0.017608 0.144912
v 0.231048 0.017608 0.145075
v 0.230957 0.017608 0.145231
v 0.230849 0.017608 0.145380
v 0.230769 0.017608 0.145477
v 0.230680 0.017608 0.145570
v 0.229083 0.017608 0.147167
v 0.228954 0.017608 0.147285
v 0.228816 0.017608 0.147389
v 0.228670 0.017608 0.147476
v 0.228517 0.017608 0.147549
v 0.228355 0.017608 0.147607
v 0.228186 0.017608 0.147650
v 0.228009 0.017608 0.147677
v 0.227887 0.017608 0.147687
v 0.227760 0.017608 0.147691
v 0.227542 0.017608 0.147681
v 0.227362 0.017608 0.147656
v 0.227190 0.017608 0.147616
v 0.227024 0.017608 0.147560
v 0.226866 0.017608 0.147490
v 0.226715 0.017608 0.147404
v 0.226572 0.017608 0.147304
v 0.226502 0.017608 0.147247
v 0.226413 0.017608 0.147167
v 0.216281 0.017608 0.137035
v 0.216157 0.017608 0.136900
v 0.216049 0.017608 0.136755
v 0.215957 0.017608 0.136604
v 0.215880 0.017608 0.136444
v 0.215820 0.017608 0.136277
v 0.215775 0.017608 0.136102
v 0.215746 0.017608 0.135919
v 0.215736 0.017608 0.135792
v 0.215732 0.017608 0.135662
v 0.215741 0.017608 0.135468
v 0.215766 0.017608 0.135282
v 0.215810 0.017608 0.135102
v 0.215870 0.017608 0.134929
v 0.215948 0.017608 0.134764
v 0.216043 0.017608 0.134606
v 0.216155 0.017608 0.134455
v 0.216239 0.017608 0.134358
v 0.216331 0.017608 0.134265
v 0.226463 0.017608 0.124133
v 0.226593 0.017608 0.124014
v 0.226730 0.017608 0.123910
v 0.226876 0.017608 0.123820
v 0.227029 0.017608 0.123745
v 0.227191 0.017608 0.123684
v 0.227360 0.017608 0.123637
v 0.227567 0.017608 0.123600
v 0.227785 0.017608 0.123584
v 0.227974 0.017608 0.123586
v 0.228156 0.017608 0.123607
v 0.228331 0.017608 0.123644
v 0.228500 0.017608 0.123698
v 0.228663 0.017608 0.123769
v 0.228819 0.017608 0.123858
v 0.228969 0.017608 0.123965
v 0.229065 0.017608 0.124045
v 0.229158 0.017608 0.124133
v 0.230680 0.017608 0.125655
v 0.230799 0.017608 0.125792
v 0.230903 0.017608 0.125936
v 0.230993 0.017608 0.126089
v 0.231068 0.017608 0.126252
v 0.231130 0.017608 0.126422
v 0.231183 0.017608 0.126632
v 0.231213 0.017608 0.126821
v 0.231229 0.017608 0.127053
v 0.231226 0.017608 0.127277
v 0.231205 0.017608 0.127461
v 0.231169 0.017608 0.127635
v 0.231117 0.017608 0.127801
v 0.231049 0.017608 0.127959
v 0.230981 0.017608 0.128083
v 0.230884 0.017608 0.128225
v 0.230811 0.017608 0.128314
v 0.230730 0.017608 0.128401
v 0.224866 0.017608 0.134265
v 0.224731 0.017608 0.134407
v 0.224613 0.017608 0.134555
v 0.224512 0.017608 0.134711
v 0.224429 0.017608 0.134873
v 0.224363 0.017608 0.135044
v 0.224314 0.017608 0.135221
v 0.224282 0.017608 0.135405
v 0.224271 0.017608 0.135532
v 0.224267 0.017608 0.135662
v 0.224278 0.017608 0.135887
v 0.224304 0.017608 0.136071
v 0.224346 0.017608 0.136245
v 0.224404 0.017608 0.136411
v 0.224478 0.017608 0.136569
v 0.224567 0.017608 0.136717
v 0.224673 0.017608 0.136857
v 0.224816 0.017608 0.137010
v 0.224731 0.017608 0.136925
v 0.224731 0.007940 0.136925
v 0.224816 0.007940 0.137010
v 0.224731 0.007940 0.136925
v 0.224673 0.007940 0.136857
v 0.224567 0.007940 0.136717
v 0.224478 0.007940 0.136569
v 0.224404 0.007940 0.136411
v 0.224346 0.007940 0.136245
v 0.224304 0.007940 0.136071
v 0.224278 0.007940 0.135887
v 0.224267 0.007940 0.135662
v 0.224271 0.007940 0.135532
v 0.224282 0.007940 0.135405
v 0.224314 0.007940 0.135221
v 0.224363 0.007940 0.135044
v 0.224429 0.007940 0.134873
v 0.224512 0.007940 0.134711
v 0.224613 0.007940 0.134555
v 0.224731 0.007940 0.134407
v 0.224866 0.007940 0.134265
v 0.230730 0.007940 0.128401
v 0.230811 0.007940 0.128314
v 0.230884 0.007940 0.128225
v 0.230981 0.007940 0.128083
v 0.231049 0.007940 0.127959
v 0.231117 0.007940 0.127801
v 0.231169 0.007940 0.127635
v 0.231205 0.007940 0.127461
v 0.231226 0.007940 0.127277
v 0.231229 0.007940 0.127053
v 0.231213 0.007940 0.126821
v 0.231183 0.007940 0.126632
v 0.231130 0.007940 0.126422
v 0.231068 0.007940 0.126252
v 0.230993 0.007940 0.126089
v 0.230903 0.007940 0.125936
v 0.230799 0.007940 0.125792
v 0.230680 0.007940 0.125655
v 0.229158 0.007940 0.124133
v 0.229065 0.007940 0.124045
v 0.228969 0.007940 0.123965
v 0.228819 0.007940 0.123858
v 0.228663 0.007940 0.123769
v 0.228500 0.007940 0.123698
v 0.228331 0.007940 0.123644
v 0.228156 0.007940 0.123607
v 0.227974 0.007940 0.123586
v 0.227785 0.007940 0.123584
v 0.227567 0.007940 0.123600
v 0.227360 0.007940 0.123637
v 0.227191 0.007940 0.123684
v 0.227029 0.007940 0.123745
v 0.226876 0.007940 0.123820
v 0.226730 0.007940 0.123910
v 0.226593 0.007940 0.124014
v 0.226463 0.007940 0.124133
v 0.216331 0.007940 0.134265
v 0.216239 0.007940 0.134358
v 0.216155 0.007940 0.134455
v 0.216043 0.007940 0.134606
v 0.215948 0.007940 0.134764
v 0.215870 0.007940 0.134929
v 0.215810 0.007940 0.135102
v 0.215766 0.007940 0.135282
v 0.215741 0.007940 0.135468
v 0.215732 0.007940 0.135662
v 0.215736 0.007940 0.135792
v 0.215746 0.007940 0.135919
v 0.215775 0.007940 0.136102
v 0.215820 0.007940 0.136277
v 0.215880 0.007940 0.136444
v 0.215957 0.007940 0.136604
v 0.216049 0.007940 0.136755
v 0.216157 0.007940 0.136900
v 0.216281 0.007940 0.137035
v 0.226413 0.007940 0.147167
v 0.226502 0.007940 0.147247
v 0.226572 0.007940 0.147304
v 0.226715 0.007940 0.147404
v 0.226866 0.007940 0.147490
v 0.227024 0.007940 0.147560
v 0.227190 0.007940 0.147616
v 0.227362 0.007940 0.147656
v 0.227542 0.007940 0.147681
v 0.227760 0.007940 0.147691
v 0.227887 0.007940 0.147687
v 0.228009 0.007940 0.147677
v 0.228186 0.007940 0.147650
v 0.228355 0.007940 0.147607
v 0.228517 0.007940 0.147549
v 0.228670 0.007940 0.147476
v 0.228816 0.007940 0.147389
v 0.228954 0.007940 0.147285
v 0.229083 0.007940 0.147167
v 0.230680 0.007940 0.145570
v 0.230769 0.007940 0.145477
v 0.230849 0.007940 0.145380
v 0.230957 0.007940 0.145231
v 0.231048 0.007940 0.145075
v 0.231122 0.007940 0.144912
v 0.231180 0.007940 0.144743
v 0.231221 0.007940 0.144568
v 0.231246 0.007940 0.144386
v 0.231254 0.007940 0.144197
v 0.231251 0.007940 0.144071
v 0.231240 0.007940 0.143948
v 0.231211 0.007940 0.143770
v 0.231166 0.007940 0.143598
v 0.231106 0.007940 0.143434
v 0.231030 0.007940 0.143277
v 0.230937 0.007940 0.143128
v 0.230829 0.007940 0.142985
v 0.230705 0.007940 0.142850
v 0.224816 0.007940 0.137010
v 0.224673 0.017608 0.136857
v 0.224567 0.017608 0.136717
v 0.224567 0.007940 0.136717
v 0.224673 0.007940 0.136857
v 0.224567 0.017608 0.136717
v 0.224478 0.017608 0.136569
v 0.224478 0.007940 0.136569
v 0.224567 0.007940 0.136717
v 0.224478 0.017608 0.136569
v 0.224404 0.017608 0.136411
v 0.224404 0.007940 0.136411
v 0.224478 0.007940 0.136569
v 0.224404 0.017608 0.136411
v 0.224346 0.017608 0.136245
v 0.224346 0.007940 0.136245
v 0.224404 0.007940 0.136411
v 0.224346 0.017608 0.136245
v 0.224304 0.017608 0.136071
v 0.224304 0.007940 0.136071
v 0.224346 0.007940 0.136245
v 0.224304 0.017608 0.136071
v 0.224278 0.017608 0.135887
v 0.224278 0.007940 0.135887
v 0.224304 0.007940 0.136071
v 0.224278 0.017608 0.135887
v 0.224267 0.017608 0.135662
v 0.224267 0.007940 0.135662
v 0.224278 0.007940 0.135887
v 0.224267 0.017608 0.135662
v 0.224271 0.017608 0.135532
v 0.224271 0.007940 0.135532
v 0.224267 0.007940 0.135662
v 0.224271 0.017608 0.135532
v 0.224282 0.017608 0.135405
v 0.224282 0.007940 0.135405
v 0.224271 0.007940 0.135532
v 0.224282 0.017608 0.135405
v 0.224314 0.017608 0.135221
v 0.224314 0.007940 0.135221
v 0.224282 0.007940 0.135405
v 0.224314 0.017608 0.135221
v 0.224363 0.017608 0.135044
v 0.224363 0.007940 0.135044
v 0.224314 0.007940 0.135221
v 0.224363 0.017608 0.135044
v 0.224429 0.017608 0.134873
v 0.224429 0.007940 0.134873
v 0.224363 0.007940 0.135044
v 0.224429 0.017608 0.134873
v 0.224512 0.017608 0.134711
v 0.224512 0.007940 0.134711
v 0.224429 0.007940 0.134873
v 0.224512 0.017608 0.134711
v 0.224613 0.017608 0.134555
v 0.224613 0.007940 0.134555
v 0.224512 0.007940 0.134711
v 0.224613 0.017608 0.134555
v 0.224731 0.017608 0.134407
v 0.224731 0.007940 0.134407
v 0.224613 0.007940 0.134555
v 0.224731 0.017608 0.134407
v 0.224866 0.017608 0.134265
v 0.224866 0.007940 0.134265
v 0.224731 0.007940 0.134407
v 0.224866 0.017608 0.134265
v 0.230730 0.017608 0.128401
v 0.230730 0.007940 0.128401
v 0.224866 0.007940 0.134265
v 0.230730 0.017608 0.128401
v 0.230811 0.017608 0.128314
v 0.230811 0.007940 0.128314
v 0.230730 0.007940 0.128401
v 0.230811 0.017608 0.128314
v 0.230884 0.017608 0.128225
v 0.230884 0.007940 0.128225
v 0.230811 0.007940 0.128314
v 0.230884 0.017608 0.128225
v 0.230981 0.017608 0.128083
v 0.230981 0.007940 0.128083
v 0.230884 0.007940 0.128225
v 0.230981 0.017608 0.128083
v 0.231049 0.017608 0.127959
v 0.231049 0.007940 0.127959
v 0.230981 0.007940 0.128083
v 0.231049 0.017608 0.127959
v 0.231117 0.017608 0.127801
v 0.231117 0.007940 0.127801
v 0.231049 0.007940 0.127959
v 0.231117 0.017608 0.127801
v 0.231169 0.017608 0.127635
v 0.231169 0.007940 0.127635
v 0.231117 0.007940 0.127801
v 0.231169 0.017608 0.127635
v 0.231205 0.017608 0.127461
v 0.231205 0.007940 0.127461
v 0.231169 0.007940 0.127635
v 0.231205 0.017608 0.127461
v 0.231226 0.017608 0.127277
v 0.231226 0.007940 0.127277
v 0.231205 0.007940 0.127461
v 0.231226 0.017608 0.127277
v 0.231229 0.017608 0.127053
v 0.231229 0.007940 0.127053
v 0.231226 0.007940 0.127277
v 0.231229 0.017608 0.127053
v 0.231213 0.017608 0.126821
v 0.231213 0.007940 0.126821
v 0.231229 0.007940 0.127053
v 0.231213 0.017608 0.126821
v 0.231183 0.017608 0.126632
v 0.231183 0.007940 0.126632
v 0.231213 0.007940 0.126821
v 0.231183 0.017608 0.126632
v 0.231130 0.017608 0.126422
v 0.231130 0.007940 0.126422
v 0.231183 0.007940 0.126632
v 0.231130 0.017608 0.126422
v 0.231068 0.017608 0.126252
v 0.231068 0.007940 0.126252
v 0.231130 0.007940 0.126422
v 0.231068 0.017608 0.126252
v 0.230993 0.017608 0.126089
v 0.230993 0.007940 0.126089
v 0.231068 0.007940 0.126252
v 0.230993 0.017608 0.126089
v 0.230903 0.017608 0.125936
v 0.230903 0.007940 0.125936
v 0.230993 0.007940 0.126089
v 0.230903 0.017608 0.125936
v 0.230799 0.017608 0.125792
v 0.230799 0.007940 0.125792
v 0.230903 0.007940 0.125936
v 0.230799 0.017608 0.125792
v 0.230680 0.017608 0.125655
v 0.230680 0.007940 0.125655
v 0.230799 0.007940 0.125792
v 0.230680 0.017608 0.125655
v 0.229158 0.017608 0.124133
v 0.229158 0.007940 0.124133
v 0.230680 0.007940 0.125655
v 0.229158 0.017608 0.124133
v 0.229065 0.017608 0.124045
v 0.229065 0.007940 0.124045
v 0.229158 0.007940 0.124133
v 0.229065 0.017608 0.124045
v 0.228969 0.017608 0.123965
v 0.228969 0.007940 0.123965
v 0.229065 0.007940 0.124045
v 0.228969 0.017608 0.123965
v 0.228819 0.017608 0.123858
v 0.228819 0.007940 0.123858
v 0.228969 0.007940 0.123965
v 0.228819 0.017608 0.123858
v 0.228663 0.017608 0.123769
v 0.228663 0.007940 0.123769
v 0.228819 0.007940 0.123858
v 0.228663 0.017608 0.123769
v 0.228500 0.017608 0.123698
v 0.228500 0.007940 0.123698
v 0.228663 0.007940 0.123769
v 0.228500 0.017608 0.123698
v 0.228331 0.017608 0.123644
v 0.228331 0.007940 0.123644
v 0.228500 0.007940 0.123698
v 0.228331 0.017608 0.123644
v 0.228156 0.017608 0.123607
v 0.228156 0.007940 0.123607
v 0.228331 0.007940 0.123644
v 0.228156 0.017608 0.123607
v 0.227974 0.017608 0.123586
v 0.227974 0.007940 0.123586
v 0.228156 0.007940 0.123607
v 0.227974 0.017608 0.123586
v 0.227785 0.017608 0.123584
v 0.227785 0.007940 0.123584
v 0.227974 0.007940 0.123586
v 0.227785 0.017608 0.123584
v 0.227567 0.017608 0.123600
v 0.227567 0.007940 0.123600
v 0.227785 0.007940 0.123584
v 0.227567 0.017608 0.123600
v 0.227360 0.017608 0.123637
v 0.227360 0.007940 0.123637
v 0.227567 0.007940 0.123600
v 0.227360 0.017608 0.123637
v 0.227191 0.017608 0.123684
v 0.227191 0.007940 0.123684
v 0.227360 0.007940 0.123637
v 0.227191 0.017608 0.123684
v 0.227029 0.017608 0.123745
v 0.227029 0.007940 0.123745
v 0.227191 0.007940 0.123684
v 0.227029 0.017608 0.123745
v 0.226876 0.017608 0.123820
v 0.226876 0.007940 0.123820
v 0.227029 0.007940 0.123745
v 0.226876 0.017608 0.123820
v 0.226730 0.017608 0.123910
v 0.226730 0.007940 0.123910
v 0.226876 0.007940 0.123820
v 0.226730 0.017608 0.123910
v 0.226593 0.017608 0.124014
v 0.226593 0.007940 0.124014
v 0.226730 0.007940 0.123910
v 0.226593 0.017608 0.124014
v 0.226463 0.017608 0.124133
v 0.226463 0.007940 0.124133
v 0.226593 0.007940 0.124014
v 0.226463 0.017608 0.124133
v 0.216331 0.017608 0.134265
v 0.216331 0.007940 0.134265
v 0.226463 0.007940 0.124133
v 0.216331 0.017608 0.134265
v 0.216239 0.017608 0.134358
v 0.216239 0.007940 0.134358
v 0.216331 0.007940 0.134265
v 0.216239 0.017608 0.134358
v 0.216155 0.017608 0.134455
v 0.216155 0.007940 0.134455
v 0.216239 0.007940 0.134358
v 0.216155 0.017608 0.134455
v 0.216043 0.017608 0.134606
v 0.216043 0.007940 0.134606
v 0.216155 0.007940 0.134455
v 0.216043 0.017608 0.134606
v 0.215948 0.017608 0.134764
v 0.215948 0.007940 0.134764
v 0.216043 0.007940 0.134606
v 0.215948 0.017608 0.134764
v 0.215870 0.017608 0.134929
v 0.215870 0.007940 0.134929
v 0.215948 0.007940 0.134764
v 0.215870 0.017608 0.134929
v 0.215810 0.017608 0.135102
v 0.215810 0.007940 0.135102
v 0.215870 0.007940 0.134929
v 0.215810 0.017608 0.135102
v 0.215766 0.017608 0.135282
v 0.215766 0.007940 0.135282
v 0.215810 0.007940 0.135102
v 0.215766 0.017608 0.135282
v 0.215741 0.017608 0.135468
v 0.215741 0.007940 0.135468
v 0.215766 0.007940 0.135282
v 0.215741 0.017608 0.135468
v 0.215732 0.017608 0.135662
v 0.215732 0.007940 0.135662
v 0.215741 0.007940 0.135468
v 0.215732 0.017608 0.135662
v 0.215736 0.017608 0.135792
v 0.215736 0.007940 0.135792
v 0.215732 0.007940 0.135662
v 0.215736 0.017608 0.135792
v 0.215746 0.017608 0.135919
v 0.215746 0.007940 0.135919
v 0.215736 0.007940 0.135792
v 0.215746 0.017608 0.135919
v 0.215775 0.017608 0.136102
v 0.215775 0.007940 0.136102
v 0.215746 0.007940 0.135919
v 0.215775 0.017608 0.136102
v 0.215820 0.017608 0.136277
v 0.215820 0.007940 0.136277
v 0.215775 0.007940 0.136102
v 0.215820 0.017608 0.136277
v 0.215880 0.017608 0.136444
v 0.215880 0.007940 0.136444
v 0.215820 0.007940 0.136277
v 0.215880 0.017608 0.136444
v 0.215957 0.017608 0.136604
v 0.215957 0.007940 0.136604
v 0.215880 0.007940 0.136444
v 0.215957 0.017608 0.136604
v 0.216049 0.017608 0.136755
v 0.216049 0.007940 0.136755
v 0.215957 0.007940 0.136604
v 0.216049 0.017608 0.136755
v 0.216157 0.017608 0.136900
v 0.216157 0.007940 0.136900
v 0.216049 0.007940 0.136755
v 0.216157 0.017608 0.136900
v 0.216281 0.017608 0.137035
v 0.216281 0.007940 0.137035
v 0.216157 0.007940 0.136900
v 0.216281 0.017608 0.137035
v 0.226413 0.017608 0.147167
v 0.226413 0.007940 0.147167
v 0.216281 0.007940 0.137035
v 0.226413 0.017608 0.147167
v 0.226502 0.017608 0.147247
v 0.226502 0.007940 0.147247
v 0.226413 0.007940 0.147167
v 0.226502 0.017608 0.147247
v 0.226572 0.017608 0.147304
v 0.226572 0.007940 0.147304
v 0.226502 0.007940 0.147247
v 0.226572 0.017608 0.147304
v 0.226715 0.017608 0.147404
v 0.226715 0.007940 0.147404
v 0.226572 0.007940 0.147304
v 0.226715 0.017608 0.147404
v 0.226866 0.017608 0.147490
v 0.226866 0.007940 0.147490
v 0.226715 0.007940 0.147404
v 0.226866 0.017608 0.147490
v 0.227024 0.017608 0.147560
v 0.227024 0.007940 0.147560
v 0.226866 0.007940 0.147490
v 0.227024 0.017608 0.147560
v 0.227190 0.017608 0.147616
v 0.227190 0.007940 0.147616
v 0.227024 0.007940 0.147560
v 0.227190 0.017608 0.147616
v 0.227362 0.017608 0.147656
v 0.227362 0.007940 0.147656
v 0.227190 0.007940 0.147616
v 0.227362 0.017608 0.147656
v 0.227542 0.017608 0.147681
v 0.227542 0.007940 0.147681
v 0.227362 0.007940 0.147656
v 0.227542 0.017608 0.147681
v 0.227760 0.017608 0.147691
v 0.227760 0.007940 0.147691
v 0.227542 0.007940 0.147681
v 0.227760 0.017608 0.147691
v 0.227887 0.017608 0.147687
v 0.227887 0.007940 0.147687
v 0.227760 0.007940 0.147691
v 0.227887 0.017608 0.147687
v 0.228009 0.017608 0.147677
v 0.228009 0.007940 0.147677
v 0.227887 0.007940 0.147687
v 0.228009 0.017608 0.147677
v 0.228186 0.017608 0.147650
v 0.228186 0.007940 0.147650
v 0.228009 0.007940 0.147677
v 0.228186 0.017608 0.147650
v 0.228355 0.017608 0.147607
v 0.228355 0.007940 0.147607
v 0.228186 0.007940 0.147650
v 0.228355 0.017608 0.147607
v 0.228517 0.017608 0.147549
v 0.228517 0.007940 0.147549
v 0.228355 0.007940 0.147607
v 0.228517 0.017608 0.147549
v 0.228670 0.017608 0.147476
v 0.228670 0.007940 0.147476
v 0.228517 0.007940 0.147549
v 0.228670 0.017608 0.147476
v 0.228816 0.017608 0.147389
v 0.228816 0.007940 0.147389
v 0.228670 0.007940 0.147476
v 0.228816 0.017608 0.147389
v 0.228954 0.017608 0.147285
v 0.228954 0.007940 0.147285
v 0.228816 0.007940 0.147389
v 0.228954 0.017608 0.147285
v 0.229083 0.017608 0.147167
v 0.229083 0.007940 0.147167
v 0.228954 0.007940 0.147285
v 0.229083 0.017608 0.147167
v 0.230680 0.017608 0.145570
v 0.230680 0.007940 0.145570
v 0.229083 0.007940 0.147167
v 0.230680 0.017608 0.145570
v 0.230769 0.017608 0.145477
v 0.230769 0.007940 0.145477
v 0.230680 0.007940 0.145570
v 0.230769 0.017608 0.145477
v 0.230849 0.017608 0.145380
v 0.230849 0.007940 0.145380
v 0.230769 0.007940 0.145477
v 0.230849 0.017608 0.145380
v 0.230957 0.017608 0.145231
v 0.230957 0.007940 0.145231
v 0.230849 0.007940 0.145380
v 0.230957 0.017608 0.145231
v 0.231048 0.017608 0.145075
v 0.231048 0.007940 0.145075
v 0.230957 0.007940 0.145231
v 0.231048 0.017608 0.145075
v 0.231122 0.017608 0.144912
v 0.231122 0.007940 0.144912
v 0.231048 0.007940 0.145075
v 0.231122 0.017608 0.144912
v 0.231180 0.017608 0.144743
v 0.231180 0.007940 0.144743
v 0.231122 0.007940 0.144912
v 0.231180 0.017608 0.144743
v 0.231221 0.017608 0.144568
v 0.231221 0.007940 0.144568
v 0.231180 0.007940 0.144743
v 0.231221 0.017608 0.144568
v 0.231246 0.017608 0.144386
v 0.231246 0.007940 0.144386
v 0.231221 0.007940 0.144568
v 0.231246 0.017608 0.144386
v 0.231254 0.017608 0.144197
v 0.231254 0.007940 0.144197
v 0.231246 0.007940 0.144386
v 0.231254 0.017608 0.144197
v 0.231251 0.017608 0.144071
v 0.231251 0.007940 0.144071
v 0.231254 0.007940 0.144197
v 0.231251 0.017608 0.144071
v 0.231240 0.017608 0.143948
v 0.231240 0.007940 0.143948
v 0.231251 0.007940 0.144071
v 0.231240 0.017608 0.143948
v 0.231211 0.017608 0.143770
v 0.231211 0.007940 0.143770
v 0.231240 0.007940 0.143948
v 0.231211 0.017608 0.143770
v 0.231166 0.017608 0.143598
v 0.231166 0.007940 0.143598
v 0.231211 0.007940 0.143770
v 0.231166 0.017608 0.143598
v 0.231106 0.017608 0.143434
v 0.231106 0.007940 0.143434
v 0.231166 0.007940 0.143598
v 0.231106 0.017608 0.143434
v 0.231030 0.017608 0.143277
v 0.231030 0.007940 0.143277
v 0.231106 0.007940 0.143434
v 0.231030 0.017608 0.143277
v 0.230937 0.017608 0.143128
v 0.230937 0.007940 0.143128
v 0.231030 0.007940 0.143277
v 0.230937 0.017608 0.143128
v 0.230829 0.017608 0.142985
v 0.230829 0.007940 0.142985
v 0.230937 0.007940 0.143128
v 0.230829 0.017608 0.142985
v 0.230705 0.017608 0.142850
v 0.230705 0.007940 0.142850
v 0.230829 0.007940 0.142985
v 0.230705 0.017608 0.142850
v 0.224816 0.017608 0.137010
v 0.224816 0.007940 0.137010
v 0.230705 0.007940 0.142850
vn 0.4744 0.7012 -0.5323
vn 0.4410 -0.6996 -0.5622
vn 0.4413 0.6993 -0.5624
vn 0.4745 -0.7011 -0.5324
vn 0.3935 0.6958 -0.6009
vn 0.4745 0.7010 -0.5323
vn 0.4413 0.6991 -0.5626
vn 0.5166 0.7041 -0.4871
vn 0.5006 0.7020 -0.5066
vn 0.5906 0.6965 -0.4074
vn 0.5502 0.6968 -0.4602
vn 0.6588 0.6959 -0.2860
vn 0.6269 0.6963 -0.3497
vn 0.7015 0.6962 -0.1526
vn 0.6833 0.6964 -0.2193
vn 0.7126 0.7003 -0.0412
vn 0.7099 0.6985 -0.0904
vn 0.7143 0.6963 0.0701
vn 0.7154 0.6986 0.0075
vn 0.6893 0.6969 0.1980
vn 0.7038 0.6973 0.1358
vn 0.6405 0.6963 0.3239
vn 0.6685 0.6966 0.2607
vn 0.5769 0.6992 0.4222
vn 0.6077 0.6982 0.3785
vn 0.4906 0.7027 0.5152
vn 0.5381 0.6933 0.4795
vn 0.4082 0.6962 0.5905
vn 0.4602 0.6972 0.5496
vn 0.2859 0.6961 0.6585
vn 0.3495 0.6962 0.6270
vn 0.1523 0.6962 0.7015
vn 0.2198 0.6960 0.6835
vn 0.0417 0.7004 0.7125
vn 0.0904 0.6985 0.7099
vn -0.0637 0.6970 0.7143
vn -0.0053 0.6989 0.7152
vn -0.1973 0.6963 0.6901
vn -0.1297 0.6964 0.7058
vn -0.3288 0.6963 0.6380
vn -0.2644 0.6959 0.6677
vn -0.4386 0.6984 0.5655
vn -0.3891 0.6964 0.6030
vn -0.4950 0.7038 0.5096
vn -0.4747 0.7008 0.5324
vn -0.5718 0.6967 0.4331
vn -0.5299 0.6969 0.4832
vn -0.6403 0.6970 0.3228
vn -0.6083 0.6972 0.3793
vn -0.6893 0.6965 0.1993
vn -0.6674 0.6967 0.2628
vn -0.7140 0.6968 0.0687
vn -0.7044 0.6969 0.1347
vn -0.7145 0.6960 -0.0713
vn -0.7179 0.6962 -0.0002
vn -0.6859 0.6962 -0.2119
vn -0.7043 0.6955 -0.1425
vn -0.6329 0.6963 -0.3384
vn -0.6619 0.6965 -0.2770
vn -0.5566 0.6964 -0.4529
vn -0.5976 0.6963 -0.3974
vn -0.4805 0.7010 -0.5269
vn -0.5147 0.6988 -0.4967
vn -0.4887 0.6983 -0.5230
vn -0.4322 0.6967 -0.5726
vn -0.4850 0.6963 -0.5291
vn -0.3195 0.6970 -0.6420
vn -0.3765 0.6966 -0.6108
vn -0.1951 0.6968 -0.6902
vn -0.2591 0.6965 -0.6692
vn -0.0669 0.6967 -0.7142
vn -0.1315 0.6973 -0.7046
vn 0.0677 0.6969 -0.7140
vn -0.0000 0.6966 -0.7174
vn 0.2003 0.6961 -0.6895
vn 0.1340 0.6970 -0.7045
vn 0.3314 0.6962 -0.6368
vn 0.2673 0.6962 -0.6663
vn 0.5004 0.7022 -0.5065
vn 0.4744 -0.7011 -0.5323
vn 0.4745 0.7011 -0.5323
vn 0.5004 -0.7021 -0.5066
vn 0.5166 -0.7041 -0.4872
vn 0.4745 -0.7009 -0.5325
vn 0.5005 -0.7020 -0.5066
vn 0.3933 -0.6958 -0.6010
vn 0.4410 -0.6995 -0.5623
vn 0.2673 -0.6962 -0.6663
vn 0.3313 -0.6962 -0.6368
vn 0.1340 -0.6970 -0.7045
vn 0.2003 -0.6961 -0.6895
vn -0.0000 -0.6965 -0.7176
vn 0.0678 -0.6965 -0.7143
vn -0.1317 -0.6970 -0.7048
vn -0.0670 -0.6966 -0.7143
vn -0.2586 -0.6966 -0.6692
vn -0.1951 -0.6968 -0.6902
vn -0.3767 -0.6967 -0.6105
vn -0.3193 -0.6970 -0.6420
vn -0.4850 -0.6963 -0.5290
vn -0.4322 -0.6966 -0.5726
vn -0.4885 -0.6983 -0.5233
vn -0.5148 -0.6990 -0.4963
vn -0.4805 -0.7010 -0.5269
vn -0.5974 -0.6964 -0.3976
vn -0.5565 -0.6964 -0.4530
vn -0.6618 -0.6966 -0.2772
vn -0.6329 -0.6963 -0.3384
vn -0.7041 -0.6957 -0.1424
vn -0.6859 -0.6961 -0.2123
vn -0.7179 -0.6962 -0.0002
vn -0.7144 -0.6961 -0.0713
vn -0.7044 -0.6969 0.1348
vn -0.7140 -0.6968 0.0687
vn -0.6674 -0.6967 0.2628
vn -0.6893 -0.6965 0.1994
vn -0.6082 -0.6968 0.3801
vn -0.6403 -0.6969 0.3229
vn -0.5299 -0.6969 0.4833
vn -0.5716 -0.6968 0.4332
vn -0.4747 -0.7008 0.5324
vn -0.4949 -0.7038 0.5097
vn -0.3891 -0.6963 0.6031
vn -0.4391 -0.6982 0.5654
vn -0.2643 -0.6959 0.6677
vn -0.3287 -0.6963 0.6381
vn -0.1298 -0.6965 0.7058
vn -0.1973 -0.6963 0.6901
vn -0.0056 -0.6990 0.7151
vn -0.0631 -0.6972 0.7141
vn 0.0903 -0.6985 0.7099
vn 0.0416 -0.7004 0.7125
vn 0.2196 -0.6964 0.6833
vn 0.1523 -0.6963 0.7014
vn 0.3496 -0.6961 0.6271
vn 0.2862 -0.6959 0.6586
vn 0.4602 -0.6972 0.5497
vn 0.4082 -0.6965 0.5902
vn 0.5380 -0.6933 0.4795
vn 0.4907 -0.7028 0.5151
vn 0.6076 -0.6980 0.3789
vn 0.5768 -0.6993 0.4223
vn 0.6685 -0.6965 0.2607
vn 0.6405 -0.6963 0.3239
vn 0.7036 -0.6974 0.1360
vn 0.6893 -0.6969 0.1980
vn 0.7155 -0.6985 0.0075
vn 0.7142 -0.6964 0.0701
vn 0.7098 -0.6985 -0.0904
vn 0.7126 -0.7003 -0.0413
vn 0.6835 -0.6962 -0.2194
vn 0.7015 -0.6962 -0.1526
vn 0.6269 -0.6963 -0.3496
vn 0.6588 -0.6958 -0.2860
vn 0.5499 -0.6968 -0.4605
vn 0.5906 -0.6965 -0.4074
vn 0.4413 0.6992 -0.5624
vn 0.3932 -0.6959 -0.6010
vn 0.3935 0.6959 -0.6007
vn 0.4409 -0.6997 -0.5622
vn 0.3935 0.6959 -0.6008
vn 0.3313 -0.6964 -0.6367
vn 0.3314 0.6963 -0.6366
vn 0.3932 -0.6958 -0.6010
vn 0.3313 0.6963 -0.6367
vn 0.2673 -0.6963 -0.6662
vn 0.2673 0.6963 -0.6662
vn 0.3312 -0.6964 -0.6367
vn 0.2672 0.6963 -0.6662
vn 0.2004 -0.6962 -0.6893
vn 0.2004 0.6962 -0.6893
vn 0.2672 -0.6963 -0.6662
vn 0.2003 0.6962 -0.6893
vn 0.1340 -0.6971 -0.7043
vn 0.1341 0.6970 -0.7044
vn 0.2002 -0.6962 -0.6894
vn 0.1340 0.6971 -0.7044
vn 0.0678 -0.6967 -0.7142
vn 0.0677 0.6970 -0.7139
vn 0.1340 -0.6971 -0.7044
vn -0.0000 -0.6966 -0.7174
vn -0.0000 0.6968 -0.7173
vn -0.0000 0.6967 -0.7173
vn -0.0670 -0.6967 -0.7142
vn -0.0669 0.6969 -0.7140
vn -0.0001 -0.6967 -0.7174
vn -0.1317 -0.6972 -0.7047
vn -0.1314 0.6974 -0.7046
vn -0.0671 -0.6967 -0.7142
vn -0.1315 0.6974 -0.7045
vn -0.1951 -0.6969 -0.6901
vn -0.1950 0.6969 -0.6901
vn -0.1317 -0.6971 -0.7047
vn -0.1951 0.6969 -0.6901
vn -0.2586 -0.6968 -0.6691
vn -0.2591 0.6966 -0.6691
vn -0.2591 0.6966 -0.6690
vn -0.3192 -0.6972 -0.6419
vn -0.3193 0.6971 -0.6420
vn -0.2587 -0.6968 -0.6690
vn -0.3194 0.6971 -0.6419
vn -0.3766 -0.6969 -0.6104
vn -0.3765 0.6967 -0.6107
vn -0.3193 -0.6971 -0.6419
vn -0.4321 -0.6968 -0.5725
vn -0.4321 0.6968 -0.5725
vn -0.3767 -0.6969 -0.6103
vn -0.4322 0.6968 -0.5725
vn -0.4849 -0.6965 -0.5289
vn -0.4849 0.6965 -0.5289
vn -0.4322 -0.6968 -0.5725
vn -0.4850 0.6965 -0.5289
vn -0.4884 -0.6984 -0.5232
vn -0.4886 0.6985 -0.5229
vn -0.4850 -0.6965 -0.5289
vn -0.4885 0.6985 -0.5229
vn -0.4805 -0.7012 -0.5268
vn -0.4804 0.7011 -0.5269
vn -0.4883 -0.6984 -0.5233
vn -0.4804 0.7012 -0.5268
vn -0.5147 -0.6992 -0.4961
vn -0.5146 0.6989 -0.4967
vn -0.4805 -0.7011 -0.5268
vn -0.5146 0.6989 -0.4966
vn -0.5565 -0.6965 -0.4530
vn -0.5565 0.6966 -0.4528
vn -0.5566 0.6965 -0.4528
vn -0.5973 -0.6966 -0.3974
vn -0.5975 0.6965 -0.3974
vn -0.5565 -0.6966 -0.4529
vn -0.6328 -0.6965 -0.3384
vn -0.6328 0.6965 -0.3384
vn -0.5974 -0.6966 -0.3974
vn -0.6328 0.6964 -0.3384
vn -0.6616 -0.6967 -0.2772
vn -0.6618 0.6967 -0.2770
vn -0.6329 -0.6964 -0.3383
vn -0.6858 -0.6962 -0.2122
vn -0.6857 0.6963 -0.2119
vn -0.6617 -0.6967 -0.2771
vn -0.6858 0.6963 -0.2119
vn -0.7039 -0.6959 -0.1425
vn -0.7041 0.6957 -0.1425
vn -0.7041 0.6956 -0.1425
vn -0.7142 -0.6963 -0.0713
vn -0.7143 0.6962 -0.0713
vn -0.7039 -0.6958 -0.1423
vn -0.7178 -0.6963 -0.0002
vn -0.7178 0.6963 -0.0003
vn -0.7178 0.6963 -0.0002
vn -0.7138 -0.6970 0.0687
vn -0.7138 0.6970 0.0687
vn -0.7042 -0.6971 0.1347
vn -0.7043 0.6971 0.1346
vn -0.7138 -0.6970 0.0688
vn -0.7043 0.6971 0.1347
vn -0.6891 -0.6967 0.1993
vn -0.6891 0.6967 0.1993
vn -0.7042 -0.6971 0.1348
vn -0.6674 -0.6969 0.2627
vn -0.6674 0.6968 0.2628
vn -0.6673 0.6968 0.2628
vn -0.6403 -0.6971 0.3227
vn -0.6402 0.6971 0.3227
vn -0.6673 -0.6969 0.2628
vn -0.6402 0.6971 0.3228
vn -0.6081 -0.6970 0.3800
vn -0.6082 0.6974 0.3792
vn -0.6402 -0.6970 0.3228
vn -0.6081 0.6974 0.3793
vn -0.5715 -0.6970 0.4331
vn -0.5718 0.6968 0.4330
vn -0.6082 -0.6970 0.3800
vn -0.5717 0.6968 0.4330
vn -0.5299 -0.6970 0.4831
vn -0.5298 0.6970 0.4831
vn -0.5715 -0.6969 0.4332
vn -0.5298 0.6970 0.4832
vn -0.4949 -0.7039 0.5096
vn -0.4949 0.7039 0.5095
vn -0.5298 -0.6970 0.4832
vn -0.4746 -0.7010 0.5323
vn -0.4746 0.7009 0.5324
vn -0.4391 -0.6984 0.5652
vn -0.4385 0.6986 0.5654
vn -0.3890 -0.6964 0.6030
vn -0.3891 0.6966 0.6028
vn -0.4390 -0.6984 0.5653
vn -0.3890 0.6966 0.6028
vn -0.3287 -0.6964 0.6379
vn -0.3287 0.6964 0.6379
vn -0.3889 -0.6965 0.6031
vn -0.3286 0.6965 0.6379
vn -0.2642 -0.6961 0.6676
vn -0.2644 0.6960 0.6675
vn -0.3287 -0.6964 0.6380
vn -0.2644 0.6961 0.6675
vn -0.1972 -0.6964 0.6901
vn -0.1973 0.6964 0.6899
vn -0.2642 -0.6960 0.6676
vn -0.1973 0.6964 0.6900
vn -0.1297 -0.6966 0.7057
vn -0.1297 0.6967 0.7056
vn -0.1972 -0.6964 0.6900
vn -0.1296 0.6966 0.7057
vn -0.0631 -0.6973 0.7140
vn -0.0637 0.6971 0.7141
vn -0.1296 -0.6966 0.7056
vn -0.0056 -0.6992 0.7149
vn -0.0053 0.6990 0.7151
vn -0.0630 -0.6973 0.7140
vn -0.0053 0.6991 0.7150
vn 0.0416 -0.7006 0.7124
vn 0.0415 0.7005 0.7125
vn -0.0055 -0.6992 0.7149
vn 0.0416 0.7005 0.7124
vn 0.0902 -0.6986 0.7098
vn 0.0902 0.6986 0.7098
vn 0.0416 -0.7005 0.7124
vn 0.0904 0.6986 0.7098
vn 0.1523 -0.6964 0.7013
vn 0.1523 0.6964 0.7013
vn 0.0904 -0.6986 0.7098
vn 0.2195 -0.6965 0.6831
vn 0.2197 0.6961 0.6835
vn 0.2198 0.6961 0.6834
vn 0.2862 -0.6960 0.6585
vn 0.2858 0.6963 0.6584
vn 0.2196 -0.6965 0.6831
vn 0.3495 -0.6963 0.6270
vn 0.3495 0.6963 0.6270
vn 0.3495 0.6963 0.6269
vn 0.4081 -0.6966 0.5901
vn 0.4081 0.6963 0.5904
vn 0.3495 -0.6963 0.6269
vn 0.4082 0.6964 0.5903
vn 0.4602 -0.6973 0.5496
vn 0.4601 0.6973 0.5496
vn 0.4601 0.6974 0.5496
vn 0.4907 -0.7029 0.5150
vn 0.4905 0.7028 0.5151
vn 0.4602 -0.6973 0.5495
vn 0.4906 0.7028 0.5151
vn 0.5379 -0.6934 0.4794
vn 0.5379 0.6934 0.4794
vn 0.5380 0.6934 0.4794
vn 0.5768 -0.6994 0.4221
vn 0.5768 0.6994 0.4221
vn 0.5380 -0.6934 0.4793
vn 0.5768 0.6993 0.4222
vn 0.6075 -0.6982 0.3788
vn 0.6075 0.6983 0.3784
vn 0.6075 0.6983 0.3785
vn 0.6403 -0.6965 0.3239
vn 0.6403 0.6965 0.3239
vn 0.6075 -0.6982 0.3787
vn 0.6684 -0.6966 0.2606
vn 0.6683 0.6967 0.2607
vn 0.6684 0.6967 0.2607
vn 0.6892 -0.6970 0.1980
vn 0.6891 0.6971 0.1980
vn 0.6684 -0.6967 0.2606
vn 0.6891 0.6971 0.1979
vn 0.7035 -0.6975 0.1360
vn 0.7036 0.6975 0.1358
vn 0.7036 0.6975 0.1357
vn 0.7140 -0.6966 0.0701
vn 0.7141 0.6965 0.0701
vn 0.7142 0.6965 0.0701
vn 0.7154 -0.6987 0.0075
vn 0.7153 0.6987 0.0075
vn 0.7141 -0.6966 0.0701
vn 0.7125 -0.7004 -0.0413
vn 0.7125 0.7005 -0.0412
vn 0.7125 0.7004 -0.0413
vn 0.7097 -0.6986 -0.0904
vn 0.7098 0.6986 -0.0904
vn 0.7013 -0.6963 -0.1526
vn 0.7013 0.6963 -0.1526
vn 0.6833 -0.6964 -0.2193
vn 0.6832 0.6965 -0.2193
vn 0.7014 -0.6963 -0.1526
vn 0.6832 0.6966 -0.2193
vn 0.6587 -0.6960 -0.2859
vn 0.6587 0.6960 -0.2858
vn 0.6833 -0.6964 -0.2194
vn 0.6587 0.6960 -0.2859
vn 0.6268 -0.6964 -0.3495
vn 0.6268 0.6964 -0.3495
vn 0.6587 -0.6959 -0.2860
vn 0.6268 0.6964 -0.3496
vn 0.5906 -0.6967 -0.4073
vn 0.5905 0.6967 -0.4073
vn 0.5905 0.6966 -0.4074
vn 0.5499 -0.6970 -0.4603
vn 0.5501 0.6969 -0.4601
vn 0.5905 -0.6966 -0.4074
vn 0.5501 0.6969 -0.4602
vn 0.5166 -0.7042 -0.4870
vn 0.5229 0.7043 -0.4802
vn 0.5498 -0.6970 -0.4603
vn 0.5165 0.7042 -0.4871
vn 0.5004 -0.7021 -0.5065
vn 0.5005 0.7021 -0.5065
vn 0.5101 -0.7043 -0.4937
vn 0.5228 0.7007 -0.4854
vn 0.5552 -0.6989 -0.4509
vn 0.5552 0.6988 -0.4510
vn 0.5229 -0.7007 -0.4853
vn 0.5020 0.7056 -0.5000
vn 0.5512 0.6964 -0.4595
vn 0.5139 0.7016 -0.4935
vn 0.6294 0.6958 -0.3459
vn 0.5919 0.6965 -0.4056
vn 0.6848 0.6963 -0.2151
vn 0.6605 0.6960 -0.2816
vn 0.7101 0.6985 -0.0880
vn 0.7020 0.6965 -0.1486
vn 0.7149 0.6993 0.0054
vn 0.7124 0.7006 -0.0401
vn 0.7056 0.6964 0.1308
vn 0.7146 0.6966 0.0640
vn 0.6668 0.6962 0.2660
vn 0.6897 0.6963 0.1984
vn 0.6023 0.6963 0.3904
vn 0.6372 0.6963 0.3304
vn 0.5328 0.7004 0.4750
vn 0.5649 0.6987 0.4390
vn 0.4919 0.7020 0.5151
vn 0.5091 0.7039 0.4953
vn 0.4018 0.6960 0.5952
vn 0.4575 0.6962 0.5531
vn 0.2757 0.6960 0.6630
vn 0.3404 0.6960 0.6323
vn 0.1434 0.6967 0.7029
vn 0.2096 0.6966 0.6862
vn 0.0391 0.7010 0.7121
vn 0.0841 0.6990 0.7101
vn -0.0666 0.6970 0.7140
vn -0.0071 0.6986 0.7154
vn -0.1955 0.6964 0.6905
vn -0.1311 0.6970 0.7050
vn -0.3235 0.6959 0.6411
vn -0.2601 0.6968 0.6684
vn -0.4304 0.6991 0.5710
vn -0.3832 0.6965 0.6066
vn -0.4906 0.7011 0.5174
vn -0.4628 0.7012 0.5423
vn -0.5524 0.6965 0.4580
vn -0.5152 0.7019 0.4918
vn -0.6312 0.6961 0.3422
vn -0.5943 0.6962 0.4028
vn -0.6859 0.6963 0.2112
vn -0.6622 0.6959 0.2779
vn -0.7103 0.6987 0.0854
vn -0.7026 0.6965 0.1456
vn -0.7151 0.6990 -0.0060
vn -0.7122 0.7009 0.0392
vn -0.7055 0.6961 -0.1332
vn -0.7144 0.6967 -0.0650
vn -0.6652 0.6954 -0.2717
vn -0.6888 0.6961 -0.2026
vn -0.5964 0.6964 -0.3992
vn -0.6337 0.6958 -0.3380
vn -0.5236 0.7002 -0.4852
vn -0.5578 0.6983 -0.4486
vn -0.4921 0.7020 -0.5149
vn -0.5026 0.7061 -0.4987
vn -0.4057 0.6963 -0.5920
vn -0.4590 0.6970 -0.5509
vn -0.2851 0.6964 -0.6586
vn -0.3470 0.6964 -0.6281
vn -0.1577 0.6963 -0.7002
vn -0.2226 0.6972 -0.6815
vn -0.0223 0.6973 -0.7165
vn -0.0895 0.6962 -0.7123
vn 0.1135 0.6962 -0.7089
vn 0.0441 0.6962 -0.7165
vn 0.2552 0.6957 -0.6715
vn 0.1845 0.6955 -0.6944
vn 0.3856 0.6960 -0.6057
vn 0.3225 0.6956 -0.6420
vn 0.4742 0.7000 -0.5339
vn 0.4369 0.6984 -0.5670
vn 0.5229 0.6993 -0.4874
vn 0.4953 0.7039 -0.5091
vn 0.6009 0.6966 -0.3919
vn 0.5619 0.6971 -0.4454
vn 0.6633 0.6970 -0.2725
vn 0.6354 0.6965 -0.3334
vn 0.7024 0.6971 -0.1441
vn 0.6865 0.6964 -0.2093
vn 0.7159 0.6979 -0.0198
vn 0.7120 0.6975 -0.0815
vn 0.7084 0.6968 0.1125
vn 0.7162 0.6964 0.0455
vn 0.6736 0.6956 0.2497
vn 0.6950 0.6960 0.1803
vn 0.6112 0.6963 0.3762
vn 0.6449 0.6965 0.3146
vn 0.5377 0.6995 0.4707
vn 0.5735 0.6973 0.4299
vn 0.5078 0.7044 0.4959
vn 0.5109 0.7034 0.4943
vn 0.5230 0.7006 -0.4854
vn 0.5553 0.6987 -0.4511
vn 0.5955 0.6956 -0.4019
vn 0.5404 0.6974 0.4708
vn 0.6340 0.6956 -0.3379
vn 0.5829 0.6962 0.4189
vn 0.6652 0.6957 -0.2711
vn 0.6219 0.6958 0.3593
vn 0.6887 0.6960 -0.2029
vn 0.6555 0.6956 0.2941
vn 0.7046 0.6965 -0.1353
vn 0.6816 0.6961 0.2253
vn 0.7142 0.6966 -0.0681
vn 0.7007 0.6962 0.1563
vn 0.7159 0.6982 -0.0065
vn 0.7099 0.6982 0.0926
vn 0.7125 0.7004 0.0423
vn 0.5020 0.7058 -0.4999
vn 0.5229 -0.7007 -0.4854
vn 0.5010 -0.7058 -0.5009
vn 0.5081 -0.7043 0.4958
vn 0.5377 -0.6995 0.4708
vn 0.5109 -0.7033 0.4942
vn 0.6113 -0.6963 0.3761
vn 0.5735 -0.6977 0.4293
vn 0.6736 -0.6956 0.2497
vn 0.6446 -0.6965 0.3154
vn 0.7083 -0.6969 0.1126
vn 0.6950 -0.6960 0.1803
vn 0.7163 -0.6975 -0.0198
vn 0.7163 -0.6963 0.0455
vn 0.7024 -0.6971 -0.1441
vn 0.7121 -0.6973 -0.0812
vn 0.6631 -0.6971 -0.2725
vn 0.6864 -0.6964 -0.2093
vn 0.6011 -0.6966 -0.3917
vn 0.6354 -0.6965 -0.3334
vn 0.5229 -0.6992 -0.4875
vn 0.5621 -0.6967 -0.4456
vn 0.4742 -0.7000 -0.5340
vn 0.4952 -0.7039 -0.5092
vn 0.3856 -0.6960 -0.6057
vn 0.4369 -0.6984 -0.5668
vn 0.2551 -0.6957 -0.6715
vn 0.3226 -0.6957 -0.6419
vn 0.1134 -0.6961 -0.7089
vn 0.1846 -0.6957 -0.6942
vn -0.0223 -0.6972 -0.7166
vn 0.0441 -0.6962 -0.7165
vn -0.1578 -0.6963 -0.7002
vn -0.0895 -0.6962 -0.7123
vn -0.2851 -0.6964 -0.6585
vn -0.2226 -0.6972 -0.6815
vn -0.4057 -0.6963 -0.5920
vn -0.3472 -0.6964 -0.6280
vn -0.4921 -0.7020 -0.5149
vn -0.4590 -0.6970 -0.5509
vn -0.5236 -0.7002 -0.4852
vn -0.5026 -0.7062 -0.4987
vn -0.5965 -0.6964 -0.3991
vn -0.5576 -0.6983 -0.4489
vn -0.6652 -0.6955 -0.2716
vn -0.6337 -0.6958 -0.3379
vn -0.7057 -0.6959 -0.1332
vn -0.6888 -0.6961 -0.2027
vn -0.7150 -0.6991 -0.0061
vn -0.7145 -0.6966 -0.0652
vn -0.7102 -0.6987 0.0855
vn -0.7122 -0.7009 0.0392
vn -0.6856 -0.6967 0.2108
vn -0.7025 -0.6967 0.1453
vn -0.6312 -0.6961 0.3423
vn -0.6621 -0.6960 0.2779
vn -0.5525 -0.6965 0.4579
vn -0.5943 -0.6962 0.4028
vn -0.4907 -0.7011 0.5174
vn -0.5151 -0.7019 0.4919
vn -0.4301 -0.6992 0.5710
vn -0.4630 -0.7013 0.5420
vn -0.3234 -0.6963 0.6408
vn -0.3832 -0.6965 0.6067
vn -0.1962 -0.6964 0.6904
vn -0.2606 -0.6964 0.6687
vn -0.0663 -0.6970 0.7140
vn -0.1307 -0.6970 0.7050
vn 0.0391 -0.7010 0.7120
vn -0.0072 -0.6986 0.7154
vn 0.1434 -0.6964 0.7031
vn 0.0839 -0.6990 0.7102
vn 0.2761 -0.6958 0.6630
vn 0.2096 -0.6966 0.6862
vn 0.4017 -0.6960 0.5952
vn 0.3404 -0.6960 0.6323
vn 0.4919 -0.7019 0.5151
vn 0.4574 -0.6962 0.5532
vn 0.5329 -0.7003 0.4749
vn 0.5091 -0.7039 0.4953
vn 0.6020 -0.6965 0.3904
vn 0.5649 -0.6987 0.4389
vn 0.6669 -0.6961 0.2660
vn 0.6374 -0.6962 0.3303
vn 0.7055 -0.6964 0.1311
vn 0.6901 -0.6959 0.1987
vn 0.7149 -0.6993 0.0053
vn 0.7146 -0.6966 0.0640
vn 0.7101 -0.6985 -0.0880
vn 0.7124 -0.7007 -0.0401
vn 0.6848 -0.6963 -0.2152
vn 0.7020 -0.6965 -0.1486
vn 0.6294 -0.6958 -0.3459
vn 0.6605 -0.6960 -0.2816
vn 0.5512 -0.6964 -0.4596
vn 0.5920 -0.6965 -0.4056
vn 0.5021 -0.7056 -0.5000
vn 0.5137 -0.7016 -0.4937
vn 0.5404 -0.6974 0.4707
vn 0.5230 -0.7006 -0.4854
vn 0.5832 -0.6962 0.4185
vn 0.6219 -0.6958 0.3593
vn 0.5554 -0.6987 -0.4509
vn 0.6556 -0.6956 0.2939
vn 0.5956 -0.6957 -0.4015
vn 0.6817 -0.6959 0.2257
vn 0.6339 -0.6956 -0.3379
vn 0.6651 -0.6957 -0.2711
vn 0.7009 -0.6960 0.1562
vn 0.6888 -0.6960 -0.2029
vn 0.7100 -0.6981 0.0925
vn 0.7047 -0.6965 -0.1354
vn 0.7124 -0.7004 0.0423
vn 0.7139 -0.6969 -0.0678
vn 0.7159 -0.6982 -0.0065
vn 0.5955 -0.6959 -0.4015
vn 0.5953 0.6958 -0.4019
vn 0.5553 -0.6989 -0.4508
vn 0.6339 -0.6958 -0.3379
vn 0.6338 0.6958 -0.3379
vn 0.5955 -0.6959 -0.4014
vn 0.6339 0.6958 -0.3379
vn 0.6651 -0.6958 -0.2711
vn 0.6650 0.6959 -0.2712
vn 0.6339 -0.6958 -0.3378
vn 0.6651 0.6959 -0.2711
vn 0.6887 -0.6961 -0.2028
vn 0.6886 0.6961 -0.2029
vn 0.6651 -0.6959 -0.2710
vn 0.7045 -0.6967 -0.1354
vn 0.7045 0.6967 -0.1353
vn 0.6886 -0.6962 -0.2028
vn 0.7045 0.6967 -0.1352
vn 0.7138 -0.6970 -0.0678
vn 0.7140 0.6968 -0.0682
vn 0.7045 -0.6966 -0.1354
vn 0.7140 0.6968 -0.0681
vn 0.7157 -0.6984 -0.0065
vn 0.7157 0.6984 -0.0066
vn 0.7157 0.6984 -0.0065
vn 0.7123 -0.7006 0.0423
vn 0.7123 0.7006 0.0422
vn 0.7157 -0.6984 -0.0064
vn 0.7123 0.7006 0.0423
vn 0.7098 -0.6983 0.0925
vn 0.7097 0.6984 0.0925
vn 0.7097 0.6984 0.0926
vn 0.7007 -0.6961 0.1562
vn 0.7006 0.6963 0.1562
vn 0.6816 -0.6960 0.2257
vn 0.6815 0.6963 0.2252
vn 0.7008 -0.6961 0.1563
vn 0.6815 0.6963 0.2253
vn 0.6555 -0.6957 0.2939
vn 0.6554 0.6958 0.2940
vn 0.6816 -0.6961 0.2257
vn 0.6553 0.6958 0.2941
vn 0.6217 -0.6960 0.3593
vn 0.6218 0.6960 0.3592
vn 0.6554 -0.6957 0.2939
vn 0.6217 0.6960 0.3593
vn 0.5830 -0.6964 0.4185
vn 0.5829 0.6964 0.4187
vn 0.5828 0.6964 0.4188
vn 0.5404 -0.6975 0.4706
vn 0.5404 0.6975 0.4706
vn 0.5830 -0.6963 0.4185
vn 0.5404 0.6975 0.4707
vn 0.5079 -0.7045 0.4957
vn 0.5142 0.7046 0.4889
vn 0.5077 0.7046 0.4959
vn 0.5108 -0.7035 0.4942
vn 0.5108 0.7035 0.4942
vn 0.5019 -0.7045 0.5018
vn 0.5108 0.7035 0.4941
vn 0.5376 -0.6996 0.4707
vn 0.5376 0.6996 0.4707
vn 0.5377 0.6996 0.4706
vn 0.5733 -0.6979 0.4292
vn 0.5734 0.6974 0.4298
vn 0.5377 -0.6995 0.4707
vn 0.5735 0.6974 0.4297
vn 0.6113 -0.6964 0.3760
vn 0.6111 0.6965 0.3761
vn 0.5734 -0.6979 0.4292
vn 0.6112 0.6965 0.3761
vn 0.6445 -0.6966 0.3153
vn 0.6447 0.6967 0.3146
vn 0.6112 -0.6964 0.3759
vn 0.6448 0.6967 0.3145
vn 0.6734 -0.6958 0.2498
vn 0.6734 0.6958 0.2497
vn 0.6445 -0.6966 0.3152
vn 0.6949 -0.6961 0.1803
vn 0.6949 0.6961 0.1803
vn 0.6734 -0.6958 0.2497
vn 0.7082 -0.6970 0.1126
vn 0.7082 0.6970 0.1125
vn 0.6949 -0.6961 0.1802
vn 0.7162 -0.6964 0.0455
vn 0.7160 0.6966 0.0455
vn 0.7161 -0.6977 -0.0198
vn 0.7158 0.6980 -0.0198
vn 0.7120 -0.6975 -0.0812
vn 0.7119 0.6976 -0.0815
vn 0.7161 -0.6977 -0.0199
vn 0.7118 0.6976 -0.0815
vn 0.7022 -0.6972 -0.1440
vn 0.7023 0.6972 -0.1440
vn 0.7120 -0.6974 -0.0812
vn 0.7023 0.6972 -0.1441
vn 0.6863 -0.6966 -0.2093
vn 0.6863 0.6966 -0.2093
vn 0.7023 -0.6972 -0.1442
vn 0.6863 0.6965 -0.2093
vn 0.6631 -0.6972 -0.2724
vn 0.6632 0.6971 -0.2725
vn 0.6863 -0.6965 -0.2093
vn 0.6353 -0.6966 -0.3332
vn 0.6353 0.6966 -0.3334
vn 0.6630 -0.6973 -0.2725
vn 0.6010 -0.6968 -0.3915
vn 0.6009 0.6968 -0.3917
vn 0.6353 -0.6966 -0.3333
vn 0.6009 0.6968 -0.3918
vn 0.5620 -0.6969 -0.4456
vn 0.5617 0.6972 -0.4453
vn 0.6010 -0.6968 -0.3916
vn 0.5617 0.6972 -0.4454
vn 0.5228 -0.6994 -0.4873
vn 0.5229 0.6993 -0.4873
vn 0.5620 -0.6968 -0.4456
vn 0.4952 -0.7041 -0.5090
vn 0.5021 0.7041 -0.5021
vn 0.5228 -0.6994 -0.4874
vn 0.4951 0.7041 -0.5090
vn 0.4741 -0.7002 -0.5338
vn 0.4742 0.7002 -0.5338
vn 0.4880 -0.7041 -0.5158
vn 0.4741 0.7002 -0.5338
vn 0.4368 -0.6985 -0.5667
vn 0.4368 0.6985 -0.5669
vn 0.4741 -0.7002 -0.5339
vn 0.3855 -0.6961 -0.6056
vn 0.3856 0.6961 -0.6056
vn 0.4368 -0.6985 -0.5668
vn 0.3226 -0.6958 -0.6417
vn 0.3225 0.6957 -0.6419
vn 0.3855 -0.6962 -0.6056
vn 0.3224 0.6957 -0.6419
vn 0.2551 -0.6959 -0.6713
vn 0.2552 0.6958 -0.6714
vn 0.3225 -0.6958 -0.6418
vn 0.2552 0.6958 -0.6713
vn 0.1846 -0.6959 -0.6940
vn 0.1845 0.6957 -0.6942
vn 0.2551 -0.6959 -0.6714
vn 0.1845 0.6957 -0.6943
vn 0.1134 -0.6963 -0.7088
vn 0.1134 0.6963 -0.7088
vn 0.1845 -0.6959 -0.6940
vn 0.0441 -0.6964 -0.7163
vn 0.0441 0.6964 -0.7163
vn 0.1133 -0.6963 -0.7088
vn 0.0440 0.6964 -0.7163
vn -0.0223 -0.6973 -0.7165
vn -0.0223 0.6974 -0.7164
vn 0.0440 -0.6964 -0.7163
vn -0.0223 0.6974 -0.7163
vn -0.0895 -0.6963 -0.7121
vn -0.0895 0.6963 -0.7121
vn -0.0223 -0.6973 -0.7164
vn -0.1577 -0.6965 -0.7000
vn -0.1576 0.6964 -0.7001
vn -0.1577 0.6965 -0.7000
vn -0.2225 -0.6973 -0.6814
vn -0.2225 0.6973 -0.6814
vn -0.1578 -0.6964 -0.7000
vn -0.2226 0.6973 -0.6814
vn -0.2851 -0.6966 -0.6584
vn -0.2851 0.6966 -0.6584
vn -0.2226 -0.6973 -0.6813
vn -0.2850 0.6966 -0.6584
vn -0.3472 -0.6965 -0.6279
vn -0.3469 0.6965 -0.6281
vn -0.3470 0.6966 -0.6280
vn -0.4056 -0.6965 -0.5920
vn -0.4056 0.6965 -0.5920
vn -0.3472 -0.6966 -0.6279
vn -0.4057 0.6965 -0.5919
vn -0.4589 -0.6972 -0.5507
vn -0.4590 0.6971 -0.5508
vn -0.4057 -0.6964 -0.5920
vn -0.4920 -0.7021 -0.5148
vn -0.4919 0.7021 -0.5148
vn -0.4590 -0.6972 -0.5507
vn -0.4920 0.7021 -0.5148
vn -0.5025 -0.7063 -0.4986
vn -0.5006 0.7063 -0.5006
vn -0.5026 0.7062 -0.4987
vn -0.5235 -0.7004 -0.4852
vn -0.5235 0.7004 -0.4851
vn -0.5032 -0.7063 -0.4979
vn -0.5236 0.7004 -0.4851
vn -0.5574 -0.6984 -0.4489
vn -0.5576 0.6985 -0.4485
vn -0.5236 -0.7003 -0.4852
vn -0.5577 0.6985 -0.4485
vn -0.5964 -0.6965 -0.3991
vn -0.5964 0.6965 -0.3991
vn -0.5574 -0.6984 -0.4488
vn -0.5964 0.6965 -0.3990
vn -0.6336 -0.6960 -0.3379
vn -0.6336 0.6960 -0.3380
vn -0.5964 -0.6964 -0.3991
vn -0.6651 -0.6957 -0.2716
vn -0.6651 0.6956 -0.2717
vn -0.6337 -0.6959 -0.3378
vn -0.6651 0.6956 -0.2716
vn -0.6887 -0.6962 -0.2026
vn -0.6886 0.6962 -0.2027
vn -0.6651 -0.6957 -0.2715
vn -0.6887 0.6962 -0.2026
vn -0.7055 -0.6960 -0.1332
vn -0.7053 0.6962 -0.1332
vn -0.7053 0.6963 -0.1332
vn -0.7143 -0.6968 -0.0651
vn -0.7142 0.6969 -0.0651
vn -0.7055 -0.6961 -0.1331
vn -0.7142 0.6969 -0.0649
vn -0.7148 -0.6993 -0.0061
vn -0.7149 0.6992 -0.0060
vn -0.7143 -0.6968 -0.0650
vn -0.7120 -0.7011 0.0392
vn -0.7120 0.7011 0.0392
vn -0.7101 -0.6989 0.0854
vn -0.7101 0.6989 0.0853
vn -0.7101 0.6989 0.0855
vn -0.7024 -0.6968 0.1453
vn -0.7025 0.6967 0.1456
vn -0.7102 -0.6988 0.0855
vn -0.6855 -0.6969 0.2108
vn -0.6859 0.6964 0.2111
vn -0.7024 -0.6968 0.1454
vn -0.6858 0.6965 0.2112
vn -0.6619 -0.6962 0.2779
vn -0.6620 0.6961 0.2779
vn -0.6311 -0.6962 0.3422
vn -0.6311 0.6962 0.3421
vn -0.6310 0.6962 0.3422
vn -0.5942 -0.6963 0.4027
vn -0.5942 0.6963 0.4027
vn -0.5941 0.6963 0.4027
vn -0.5524 -0.6966 0.4578
vn -0.5523 0.6967 0.4578
vn -0.5522 0.6967 0.4579
vn -0.5150 -0.7021 0.4918
vn -0.5151 0.7021 0.4918
vn -0.5524 -0.6966 0.4579
vn -0.5150 0.7021 0.4918
vn -0.4905 -0.7013 0.5173
vn -0.4905 0.7013 0.5173
vn -0.5150 -0.7020 0.4919
vn -0.4629 -0.7015 0.5419
vn -0.4628 0.7013 0.5422
vn -0.4905 -0.7013 0.5174
vn -0.4627 0.7013 0.5422
vn -0.4300 -0.6994 0.5709
vn -0.4304 0.6993 0.5708
vn -0.4303 0.6992 0.5709
vn -0.3831 -0.6966 0.6066
vn -0.3832 0.6967 0.6064
vn -0.4299 -0.6994 0.5710
vn -0.3234 -0.6964 0.6407
vn -0.3235 0.6960 0.6411
vn -0.3831 -0.6965 0.6067
vn -0.3234 0.6961 0.6410
vn -0.2606 -0.6966 0.6685
vn -0.2601 0.6970 0.6682
vn -0.3233 -0.6964 0.6407
vn -0.2601 0.6970 0.6683
vn -0.1962 -0.6965 0.6902
vn -0.1954 0.6966 0.6904
vn -0.1953 0.6965 0.6904
vn -0.1307 -0.6971 0.7049
vn -0.1311 0.6972 0.7048
vn -0.1961 -0.6965 0.6903
vn -0.0664 -0.6970 0.7140
vn -0.0667 0.6972 0.7138
vn -0.1307 -0.6972 0.7049
vn -0.0666 0.6971 0.7139
vn -0.0072 -0.6987 0.7153
vn -0.0072 0.6988 0.7153
vn -0.0662 -0.6971 0.7139
vn 0.0391 -0.7012 0.7119
vn 0.0391 0.7011 0.7120
vn -0.0071 -0.6988 0.7153
vn 0.0839 -0.6992 0.7100
vn 0.0840 0.6992 0.7100
vn 0.0841 0.6992 0.7100
vn 0.1434 -0.6965 0.7030
vn 0.1434 0.6969 0.7027
vn 0.2095 -0.6967 0.6861
vn 0.2095 0.6967 0.6861
vn 0.1435 -0.6965 0.7030
vn 0.2096 0.6967 0.6860
vn 0.2759 -0.6960 0.6629
vn 0.2757 0.6961 0.6629
vn 0.2096 -0.6967 0.6860
vn 0.2757 0.6962 0.6628
vn 0.3403 -0.6961 0.6322
vn 0.3402 0.6960 0.6323
vn 0.2760 -0.6959 0.6630
vn 0.3403 0.6961 0.6322
vn 0.4016 -0.6961 0.5951
vn 0.4016 0.6961 0.5951
vn 0.4017 0.6961 0.5951
vn 0.4574 -0.6964 0.5531
vn 0.4574 0.6964 0.5531
vn 0.4017 -0.6961 0.5951
vn 0.4574 0.6964 0.5530
vn 0.4919 -0.7020 0.5150
vn 0.4919 0.7021 0.5149
vn 0.4574 -0.6964 0.5530
vn 0.5089 -0.7041 0.4952
vn 0.5021 0.7041 0.5021
vn 0.4919 -0.7021 0.5150
vn 0.5090 0.7041 0.4952
vn 0.5328 -0.7004 0.4748
vn 0.5328 0.7005 0.4749
vn 0.5131 -0.7041 0.4909
vn 0.5648 -0.6989 0.4389
vn 0.5647 0.6989 0.4388
vn 0.5328 -0.7005 0.4748
vn 0.5648 0.6989 0.4388
vn 0.6019 -0.6966 0.3904
vn 0.6021 0.6965 0.3904
vn 0.6021 0.6965 0.3903
vn 0.6372 -0.6963 0.3303
vn 0.6371 0.6964 0.3303
vn 0.6019 -0.6966 0.3903
vn 0.6668 -0.6962 0.2660
vn 0.6666 0.6963 0.2660
vn 0.6373 -0.6963 0.3302
vn 0.6667 0.6963 0.2659
vn 0.6899 -0.6961 0.1988
vn 0.6896 0.6965 0.1984
vn 0.6668 -0.6962 0.2659
vn 0.6897 0.6964 0.1983
vn 0.7054 -0.6966 0.1311
vn 0.7055 0.6966 0.1308
vn 0.6900 -0.6961 0.1986
vn 0.7055 0.6965 0.1307
vn 0.7144 -0.6968 0.0640
vn 0.7145 0.6968 0.0640
vn 0.7055 -0.6965 0.1310
vn 0.7145 0.6968 0.0639
vn 0.7148 -0.6994 0.0053
vn 0.7148 0.6994 0.0054
vn 0.7145 -0.6968 0.0639
vn 0.7147 0.6994 0.0054
vn 0.7122 -0.7008 -0.0401
vn 0.7123 0.7007 -0.0401
vn 0.7147 -0.6994 0.0052
vn 0.7100 -0.6987 -0.0880
vn 0.7100 0.6987 -0.0880
vn 0.7123 -0.7008 -0.0401
vn 0.7100 0.6986 -0.0880
vn 0.7018 -0.6967 -0.1485
vn 0.7018 0.6967 -0.1485
vn 0.7100 -0.6986 -0.0880
vn 0.7018 0.6967 -0.1487
vn 0.6847 -0.6964 -0.2152
vn 0.6846 0.6965 -0.2151
vn 0.7018 -0.6967 -0.1486
vn 0.6846 0.6964 -0.2151
vn 0.6603 -0.6962 -0.2816
vn 0.6604 0.6962 -0.2815
vn 0.6603 0.6962 -0.2816
vn 0.6293 -0.6959 -0.3459
vn 0.6294 0.6960 -0.3457
vn 0.6293 0.6960 -0.3458
vn 0.5919 -0.6966 -0.4054
vn 0.5918 0.6966 -0.4055
vn 0.5917 0.6967 -0.4056
vn 0.5512 -0.6966 -0.4594
vn 0.5511 0.6965 -0.4594
vn 0.5919 -0.6966 -0.4055
vn 0.5136 -0.7018 -0.4937
vn 0.5138 0.7018 -0.4934
vn 0.5511 -0.6965 -0.4594
vn 0.5139 0.7018 -0.4934
vn 0.5020 -0.7058 -0.4999
vn 0.4989 0.7058 -0.5030
vn 0.5136 -0.7018 -0.4936
vt 0.794254 0.044762
vt 0.787559 0.039113
vt 0.773597 0.028960
vt 0.947115 0.201923
vt 0.802885 0.052885
vt 0.969454 0.228554
vt 0.959046 0.214927
vt 0.985700 0.257677
vt 0.978338 0.242804
vt 0.995854 0.289292
vt 0.991538 0.273173
vt 0.999662 0.317542
vt 0.998646 0.306035
vt 0.998963 0.349957
vt 1.000000 0.329327
vt 0.992363 0.384226
vt 0.996425 0.367264
vt 0.978338 0.419788
vt 0.986779 0.400841
vt 0.959046 0.451173
vt 0.967825 0.438264
vt 0.461538 0.947115
vt 0.947115 0.466346
vt 0.434908 0.969454
vt 0.448535 0.959046
vt 0.405785 0.985700
vt 0.420658 0.978338
vt 0.374169 0.995854
vt 0.390288 0.991538
vt 0.345919 0.999662
vt 0.357427 0.998646
vt 0.316562 0.999238
vt 0.334135 1.000000
vt 0.283285 0.993146
vt 0.299612 0.996954
vt 0.252500 0.980962
vt 0.267581 0.987815
vt 0.224208 0.962685
vt 0.238042 0.972585
vt 0.206731 0.947115
vt 0.215331 0.955238
vt 0.039113 0.776738
vt 0.052885 0.793269
vt 0.020329 0.746646
vt 0.028960 0.761969
vt 0.007637 0.714338
vt 0.013221 0.730769
vt 0.001037 0.679815
vt 0.003575 0.697354
vt 0.001037 0.637775
vt 0.000000 0.658654
vt 0.007637 0.605052
vt 0.003575 0.620929
vt 0.017790 0.580744
vt 0.012185 0.592561
vt 0.032175 0.559129
vt 0.024454 0.569600
vt 0.046729 0.543775
vt 0.040954 0.549331
vt 0.052885 0.538462
vt 0.550232 0.039113
vt 0.533654 0.052885
vt 0.580624 0.020329
vt 0.565116 0.028960
vt 0.613509 0.007637
vt 0.596755 0.013221
vt 0.648886 0.001037
vt 0.630886 0.003575
vt 0.692366 0.001037
vt 0.670673 0.000000
vt 0.727143 0.007637
vt 0.710136 0.003575
vt 0.758874 0.020329
vt 0.743389 0.013221
vt 0.373313 0.553378
vt 0.370881 0.550605
vt 0.376812 0.556936
vt 0.626256 0.804787
vt 0.621118 0.799172
vt 0.634564 0.816911
vt 0.630738 0.810700
vt 0.640248 0.830228
vt 0.637734 0.823420
vt 0.643309 0.844737
vt 0.642107 0.837333
vt 0.643892 0.855072
vt 0.643747 0.849838
vt 0.642521 0.870436
vt 0.643550 0.862889
vt 0.638407 0.884727
vt 0.640807 0.877716
vt 0.631549 0.897944
vt 0.635321 0.891470
vt 0.623740 0.908139
vt 0.627092 0.904151
vt 0.553830 0.978261
vt 0.620083 0.912008
vt 0.542740 0.987443
vt 0.548449 0.983165
vt 0.530337 0.994122
vt 0.536702 0.991096
vt 0.516623 0.998296
vt 0.523644 0.996522
vt 0.504192 0.999861
vt 0.509274 0.999443
vt 0.489892 0.999574
vt 0.498965 1.000000
vt 0.475284 0.996861
vt 0.482439 0.998530
vt 0.461867 0.991643
vt 0.468426 0.994565
vt 0.449644 0.983922
vt 0.455607 0.988096
vt 0.443064 0.978261
vt 0.446774 0.981600
vt 0.017636 0.552341
vt 0.022774 0.557971
vt 0.009328 0.540098
vt 0.013154 0.546383
vt 0.003644 0.526542
vt 0.006158 0.533484
vt 0.000583 0.511675
vt 0.001786 0.519273
vt 0.000000 0.501035
vt 0.000146 0.506428
vt 0.001431 0.485234
vt 0.000358 0.492985
vt 0.005724 0.470625
vt 0.003220 0.477781
vt 0.012880 0.457209
vt 0.008944 0.463768
vt 0.021029 0.446940
vt 0.017530 0.450948
vt 0.445135 0.022774
vt 0.024845 0.443064
vt 0.456225 0.013532
vt 0.450516 0.017855
vt 0.468628 0.006675
vt 0.462263 0.009805
vt 0.482342 0.002203
vt 0.475321 0.004141
vt 0.500000 0.000000
vt 0.490948 0.000696
vt 0.515364 0.000934
vt 0.507816 0.000109
vt 0.529655 0.004730
vt 0.522644 0.002475
vt 0.542872 0.011389
vt 0.536398 0.007702
vt 0.553067 0.019124
vt 0.549078 0.015791
vt 0.620083 0.085921
vt 0.556936 0.022774
vt 0.629325 0.097569
vt 0.625002 0.091566
vt 0.636182 0.110647
vt 0.633052 0.103929
vt 0.640919 0.126430
vt 0.638716 0.117723
vt 0.642857 0.143892
vt 0.642161 0.134281
vt 0.641856 0.160817
vt 0.642701 0.153214
vt 0.638199 0.174948
vt 0.640355 0.168061
vt 0.632542 0.186645
vt 0.635386 0.181477
vt 0.625486 0.196235
vt 0.628527 0.192518
vt 0.378882 0.443064
vt 0.622153 0.199793
vt 0.366508 0.544792
vt 0.373277 0.448928
vt 0.362792 0.538620
vt 0.368388 0.455089
vt 0.359731 0.532091
vt 0.364214 0.461549
vt 0.357326 0.525204
vt 0.360755 0.468306
vt 0.355577 0.517959
vt 0.358012 0.475362
vt 0.354484 0.510357
vt 0.355985 0.482716
vt 0.354037 0.501035
vt 0.354673 0.490368
vt 0.354196 0.495636
s 1
f 1/1/1 3/2/2 2/2/3
f 1/1/1 4/1/4 3/2/2
f 77/3/5 5/1/6 78/2/7
f 5/1/6 7/4/8 6/5/9
f 7/4/8 9/6/10 8/7/11
f 9/6/10 11/8/12 10/9/13
f 11/8/12 13/10/14 12/11/15
f 13/10/14 15/12/16 14/13/17
f 15/12/16 17/14/18 16/15/19
f 17/14/18 19/16/20 18/17/21
f 19/16/20 21/18/22 20/19/23
f 21/18/22 23/20/24 22/21/25
f 23/20/24 25/22/26 24/23/27
f 25/22/26 27/24/28 26/25/29
f 27/24/28 29/26/30 28/27/31
f 29/26/30 31/28/32 30/29/33
f 31/28/32 33/30/34 32/31/35
f 33/30/34 35/32/36 34/33/37
f 35/32/36 37/34/38 36/35/39
f 37/34/38 39/36/40 38/37/41
f 39/36/40 41/38/42 40/39/43
f 41/38/42 43/40/44 42/41/45
f 43/40/44 45/42/46 44/43/47
f 45/42/46 47/44/48 46/45/49
f 47/44/48 49/46/50 48/47/51
f 49/46/50 51/48/52 50/49/53
f 51/48/52 53/50/54 52/51/55
f 53/50/54 55/52/56 54/53/57
f 55/52/56 57/54/58 56/55/59
f 57/54/58 59/56/60 58/57/61
f 59/56/60 61/58/62 60/59/63
f 62/60/64 64/61/65 63/62/66
f 64/61/65 66/63/67 65/64/68
f 66/63/67 68/65/69 67/66/70
f 68/65/69 70/67/71 69/68/72
f 70/67/71 72/69/73 71/70/74
f 72/69/73 74/71/75 73/72/76
f 74/71/75 76/73/77 75/74/78
f 76/73/77 5/1/6 77/3/5
f 5/1/6 9/6/10 7/4/8
f 9/6/10 13/10/14 11/8/12
f 13/10/14 17/14/18 15/12/16
f 17/14/18 21/18/22 19/16/20
f 21/18/22 25/22/26 23/20/24
f 25/22/26 29/26/30 27/24/28
f 29/26/30 33/30/34 31/28/32
f 33/30/34 37/34/38 35/32/36
f 37/34/38 41/38/42 39/36/40
f 41/38/42 45/42/46 43/40/44
f 45/42/46 49/46/50 47/44/48
f 49/46/50 53/50/54 51/48/52
f 53/50/54 57/54/58 55/52/56
f 57/54/58 61/58/62 59/56/60
f 62/60/64 66/63/67 64/61/65
f 66/63/67 70/67/71 68/65/69
f 70/67/71 74/71/75 72/69/73
f 74/71/75 5/1/6 76/73/77
f 5/1/6 13/10/14 9/6/10
f 13/10/14 21/18/22 17/14/18
f 21/18/22 29/26/30 25/22/26
f 29/26/30 37/34/38 33/30/34
f 37/34/38 45/42/46 41/38/42
f 45/42/46 53/50/54 49/46/50
f 53/50/54 61/58/62 57/54/58
f 62/60/64 70/67/71 66/63/67
f 70/67/71 5/1/6 74/71/75
f 5/1/6 21/18/22 13/10/14
f 21/18/22 37/34/38 29/26/30
f 37/34/38 53/50/54 45/42/46
f 53/50/54 62/60/64 61/58/62
f 62/60/64 5/1/6 70/67/71
f 5/1/6 37/34/38 21/18/22
f 37/34/38 62/60/64 53/50/54
f 62/60/64 37/34/38 5/1/6
f 79/5/79 81/1/80 80/1/81
f 79/5/79 82/5/82 81/1/80
f 155/4/83 83/1/84 156/5/85
f 83/1/84 85/3/86 84/2/87
f 85/3/86 87/74/88 86/73/89
f 87/74/88 89/72/90 88/71/91
f 89/72/90 91/70/92 90/69/93
f 91/70/92 93/68/94 92/67/95
f 93/68/94 95/66/96 94/65/97
f 95/66/96 97/64/98 96/63/99
f 97/64/98 99/62/100 98/61/101
f 100/60/102 102/59/103 101/58/104
f 102/59/103 104/57/105 103/56/106
f 104/57/105 106/55/107 105/54/108
f 106/55/107 108/53/109 107/52/110
f 108/53/109 110/51/111 109/50/112
f 110/51/111 112/49/113 111/48/114
f 112/49/113 114/47/115 113/46/116
f 114/47/115 116/45/117 115/44/118
f 116/45/117 118/43/119 117/42/120
f 118/43/119 120/41/121 119/40/122
f 120/41/121 122/39/123 121/38/124
f 122/39/123 124/37/125 123/36/126
f 124/37/125 126/35/127 125/34/128
f 126/35/127 128/33/129 127/32/130
f 128/33/129 130/31/131 129/30/132
f 130/31/131 132/29/133 131/28/134
f 132/29/133 134/27/135 133/26/136
f 134/27/135 136/25/137 135/24/138
f 136/25/137 138/23/139 137/22/140
f 138/23/139 140/21/141 139/20/142
f 140/21/141 142/19/143 141/18/144
f 142/19/143 144/17/145 143/16/146
f 144/17/145 146/15/147 145/14/148
f 146/15/147 148/13/149 147/12/150
f 148/13/149 150/11/151 149/10/152
f 150/11/151 152/9/153 151/8/154
f 152/9/153 154/7/155 153/6/156
f 154/7/155 83/1/84 155/4/83
f 83/1/84 87/74/88 85/3/86
f 87/74/88 91/70/92 89/72/90
f 91/70/92 95/66/96 93/68/94
f 95/66/96 99/62/100 97/64/98
f 100/60/102 104/57/105 102/59/103
f 104/57/105 108/53/109 106/55/107
f 108/53/109 112/49/113 110/51/111
f 112/49/113 116/45/117 114/47/115
f 116/45/117 120/41/121 118/43/119
f 120/41/121 124/37/125 122/39/123
f 124/37/125 128/33/129 126/35/127
f 128/33/129 132/29/133 130/31/131
f 132/29/133 136/25/137 134/27/135
f 136/25/137 140/21/141 138/23/139
f 140/21/141 144/17/145 142/19/143
f 144/17/145 148/13/149 146/15/147
f 148/13/149 152/9/153 150/11/151
f 152/9/153 83/1/84 154/7/155
f 83/1/84 91/70/92 87/74/88
f 91/70/92 99/62/100 95/66/96
f 99/62/100 104/57/105 100/60/102
f 104/57/105 112/49/113 108/53/109
f 112/49/113 120/41/121 116/45/117
f 120/41/121 128/33/129 124/37/125
f 128/33/129 136/25/137 132/29/133
f 136/25/137 144/17/145 140/21/141
f 144/17/145 152/9/153 148/13/149
f 152/9/153 91/70/92 83/1/84
f 91/70/92 104/57/105 99/62/100
f 104/57/105 120/41/121 112/49/113
f 120/41/121 136/25/137 128/33/129
f 136/25/137 152/9/153 144/17/145
f 152/9/153 104/57/105 91/70/92
f 104/57/105 136/25/137 120/41/121
f 136/25/137 104/57/105 152/9/153
f 157/2/157 159/3/158 158/3/159
f 157/2/157 160/2/160 159/3/158
f 161/3/161 163/73/162 162/73/163
f 161/3/161 164/3/164 163/73/162
f 165/73/165 167/74/166 166/74/167
f 165/73/165 168/73/168 167/74/166
f 169/74/169 171/71/170 170/71/171
f 169/74/169 172/74/172 171/71/170
f 173/71/173 175/72/174 174/72/175
f 173/71/173 176/71/176 175/72/174
f 177/72/177 179/69/178 178/69/179
f 177/72/177 180/72/180 179/69/178
f 181/69/179 183/70/181 182/70/182
f 181/69/179 184/69/178 183/70/181
f 185/70/183 187/67/184 186/67/185
f 185/70/183 188/70/186 187/67/184
f 189/67/185 191/68/187 190/68/188
f 189/67/185 192/67/189 191/68/187
f 193/68/190 195/65/191 194/65/192
f 193/68/190 196/68/193 195/65/191
f 197/65/194 199/66/195 198/66/196
f 197/65/194 200/65/191 199/66/195
f 201/66/197 203/63/198 202/63/199
f 201/66/197 204/66/200 203/63/198
f 205/63/201 207/64/202 206/64/203
f 205/63/201 208/63/204 207/64/202
f 209/64/203 211/61/205 210/61/206
f 209/64/203 212/64/207 211/61/205
f 213/61/208 215/62/209 214/62/210
f 213/61/208 216/61/211 215/62/209
f 217/62/212 219/60/213 218/60/214
f 217/62/212 220/62/215 219/60/213
f 221/60/216 223/58/217 222/58/218
f 221/60/216 224/60/219 223/58/217
f 225/58/220 227/59/221 226/59/222
f 225/58/220 228/58/223 227/59/221
f 229/59/224 231/56/225 230/56/226
f 229/59/224 232/59/221 231/56/225
f 233/56/227 235/57/228 234/57/229
f 233/56/227 236/56/230 235/57/228
f 237/57/229 239/54/231 238/54/232
f 237/57/229 240/57/233 239/54/231
f 241/54/234 243/55/235 242/55/236
f 241/54/234 244/54/237 243/55/235
f 245/55/236 247/52/238 246/52/239
f 245/55/236 248/55/240 247/52/238
f 249/52/241 251/53/242 250/53/243
f 249/52/241 252/52/238 251/53/242
f 253/53/244 255/50/245 254/50/246
f 253/53/244 256/53/247 255/50/245
f 257/50/246 259/51/248 258/51/249
f 257/50/246 260/50/245 259/51/248
f 261/51/250 263/48/251 262/48/252
f 261/51/250 264/51/248 263/48/251
f 265/48/252 267/49/253 266/49/254
f 265/48/252 268/48/255 267/49/253
f 269/49/256 271/46/257 270/46/258
f 269/49/256 272/49/259 271/46/257
f 273/46/258 275/47/260 274/47/261
f 273/46/258 276/46/257 275/47/260
f 277/47/262 279/44/263 278/44/264
f 277/47/262 280/47/265 279/44/263
f 281/44/266 283/45/267 282/45/268
f 281/44/266 284/44/269 283/45/267
f 285/45/270 287/42/271 286/42/272
f 285/45/270 288/45/273 287/42/271
f 289/42/274 291/43/275 290/43/276
f 289/42/274 292/42/277 291/43/275
f 293/43/278 295/40/279 294/40/280
f 293/43/278 296/43/281 295/40/279
f 297/40/280 299/41/282 298/41/283
f 297/40/280 300/40/279 299/41/282
f 301/41/283 303/38/284 302/38/285
f 301/41/283 304/41/282 303/38/284
f 305/38/285 307/39/286 306/39/287
f 305/38/285 308/38/288 307/39/286
f 309/39/289 311/36/290 310/36/291
f 309/39/289 312/39/292 311/36/290
f 313/36/293 315/37/294 314/37/295
f 313/36/293 316/36/296 315/37/294
f 317/37/297 319/34/298 318/34/299
f 317/37/297 320/37/300 319/34/298
f 321/34/301 323/35/302 322/35/303
f 321/34/301 324/34/304 323/35/302
f 325/35/305 327/32/306 326/32/307
f 325/35/305 328/35/308 327/32/306
f 329/32/307 331/33/309 330/33/310
f 329/32/307 332/32/311 331/33/309
f 333/33/312 335/30/313 334/30/314
f 333/33/312 336/33/315 335/30/313
f 337/30/316 339/31/317 338/31/318
f 337/30/316 340/30/319 339/31/317
f 341/31/320 343/28/321 342/28/322
f 341/31/320 344/31/323 343/28/321
f 345/28/322 347/29/324 346/29/325
f 345/28/322 348/28/321 347/29/324
f 349/29/326 351/26/327 350/26/328
f 349/29/326 352/29/329 351/26/327
f 353/26/328 355/27/330 354/27/331
f 353/26/328 356/26/327 355/27/330
f 357/27/332 359/24/333 358/24/334
f 357/27/332 360/27/335 359/24/333
f 361/24/336 363/25/337 362/25/338
f 361/24/336 364/24/333 363/25/337
f 365/25/339 367/22/340 366/22/341
f 365/25/339 368/25/342 367/22/340
f 369/22/343 371/23/344 370/23/345
f 369/22/343 372/22/340 371/23/344
f 373/23/346 375/20/347 374/20/348
f 373/23/346 376/23/349 375/20/347
f 377/20/350 379/21/351 378/21/352
f 377/20/350 380/20/347 379/21/351
f 381/21/353 383/18/354 382/18/355
f 381/21/353 384/21/356 383/18/354
f 385/18/355 387/19/357 386/19/358
f 385/18/355 388/18/354 387/19/357
f 389/19/359 391/16/360 390/16/361
f 389/19/359 392/19/362 391/16/360
f 393/16/363 395/17/364 394/17/365
f 393/16/363 396/16/360 395/17/364
f 397/17/366 399/14/367 398/14/368
f 397/17/366 400/17/364 399/14/367
f 401/14/369 403/15/370 402/15/371
f 401/14/369 404/14/372 403/15/370
f 405/15/371 407/12/373 406/12/374
f 405/15/371 408/15/370 407/12/373
f 409/12/375 411/13/376 410/13/377
f 409/12/375 412/12/373 411/13/376
f 413/13/377 415/10/378 414/10/379
f 413/13/377 416/13/376 415/10/378
f 417/10/379 419/11/380 418/11/381
f 417/10/379 420/10/382 419/11/380
f 421/11/383 423/8/384 422/8/385
f 421/11/383 424/11/386 423/8/384
f 425/8/387 427/9/388 426/9/389
f 425/8/387 428/8/390 427/9/388
f 429/9/391 431/6/392 430/6/393
f 429/9/391 432/9/388 431/6/392
f 433/6/394 435/7/395 434/7/396
f 433/6/394 436/6/397 435/7/395
f 437/7/398 439/4/399 438/4/400
f 437/7/398 440/7/401 439/4/399
f 441/4/402 443/5/403 442/5/404
f 441/4/402 444/4/405 443/5/403
f 445/75/406 447/76/407 446/76/408
f 445/75/406 448/75/409 447/76/407
f 450/77/410 452/78/411 451/79/412
f 452/78/411 454/80/413 453/81/414
f 454/80/413 456/82/415 455/83/416
f 456/82/415 458/84/417 457/85/418
f 458/84/417 460/86/419 459/87/420
f 460/86/419 462/88/421 461/89/422
f 462/88/421 464/90/423 463/91/424
f 464/90/423 466/92/425 465/93/426
f 466/92/425 468/94/427 467/95/428
f 468/94/427 470/96/429 469/97/430
f 470/96/429 472/98/431 471/99/432
f 472/98/431 474/100/433 473/101/434
f 474/100/433 476/102/435 475/103/436
f 476/102/435 478/104/437 477/105/438
f 478/104/437 480/106/439 479/107/440
f 480/106/439 482/108/441 481/109/442
f 482/108/441 484/110/443 483/111/444
f 484/110/443 486/112/445 485/113/446
f 486/112/445 488/114/447 487/115/448
f 488/114/447 490/116/449 489/117/450
f 490/116/449 492/118/451 491/119/452
f 492/118/451 494/120/453 493/121/454
f 494/120/453 496/122/455 495/123/456
f 496/122/455 498/124/457 497/125/458
f 498/124/457 500/126/459 499/127/460
f 500/126/459 502/128/461 501/129/462
f 502/128/461 504/130/463 503/131/464
f 504/130/463 506/132/465 505/133/466
f 506/132/465 508/134/467 507/135/468
f 508/134/467 510/136/469 509/137/470
f 510/136/469 512/138/471 511/139/472
f 512/138/471 514/140/473 513/141/474
f 514/140/473 516/142/475 515/143/476
f 516/142/475 518/144/477 517/145/478
f 518/144/477 520/146/479 519/147/480
f 520/146/479 522/148/481 521/149/482
f 522/148/481 524/150/483 523/151/484
f 524/150/483 526/152/485 525/153/486
f 526/152/485 528/154/487 527/155/488
f 528/154/487 530/156/489 529/157/490
f 530/156/489 532/158/491 531/159/492
f 532/158/491 534/160/493 533/161/494
f 534/160/493 536/162/495 535/163/496
f 536/162/495 538/164/497 537/165/498
f 538/164/497 540/166/499 539/167/500
f 540/166/499 542/168/501 541/169/502
f 542/168/501 544/170/503 543/171/504
f 450/77/410 454/80/413 452/78/411
f 454/80/413 458/84/417 456/82/415
f 458/84/417 462/88/421 460/86/419
f 462/88/421 466/92/425 464/90/423
f 466/92/425 470/96/429 468/94/427
f 470/96/429 474/100/433 472/98/431
f 474/100/433 478/104/437 476/102/435
f 478/104/437 482/108/441 480/106/439
f 482/108/441 486/112/445 484/110/443
f 486/112/445 490/116/449 488/114/447
f 490/116/449 494/120/453 492/118/451
f 494/120/453 498/124/457 496/122/455
f 498/124/457 502/128/461 500/126/459
f 502/128/461 506/132/465 504/130/463
f 506/132/465 510/136/469 508/134/467
f 510/136/469 514/140/473 512/138/471
f 514/140/473 518/144/477 516/142/475
f 518/144/477 522/148/481 520/146/479
f 522/148/481 526/152/485 524/150/483
f 526/152/485 530/156/489 528/154/487
f 530/156/489 534/160/493 532/158/491
f 534/160/493 538/164/497 536/162/495
f 538/164/497 542/168/501 540/166/499
f 449/75/505 454/80/413 450/77/410
f 454/80/413 462/88/421 458/84/417
f 462/88/421 470/96/429 466/92/425
f 470/96/429 478/104/437 474/100/433
f 478/104/437 486/112/445 482/108/441
f 486/112/445 494/120/453 490/116/449
f 494/120/453 502/128/461 498/124/457
f 502/128/461 510/136/469 506/132/465
f 510/136/469 518/144/477 514/140/473
f 518/144/477 526/152/485 522/148/481
f 526/152/485 534/160/493 530/156/489
f 534/160/493 542/168/501 538/164/497
f 449/75/505 462/88/421 454/80/413
f 462/88/421 478/104/437 470/96/429
f 478/104/437 494/120/453 486/112/445
f 494/120/453 510/136/469 502/128/461
f 510/136/469 526/152/485 518/144/477
f 526/152/485 542/168/501 534/160/493
f 560/76/506 462/88/421 449/75/505
f 462/88/421 494/120/453 478/104/437
f 494/120/453 526/152/485 510/136/469
f 526/152/485 544/170/503 542/168/501
f 560/76/506 494/120/453 462/88/421
f 494/120/453 544/170/503 526/152/485
f 559/172/507 494/120/453 560/76/506
f 494/120/453 545/173/508 544/170/503
f 558/174/509 494/120/453 559/172/507
f 494/120/453 546/175/510 545/173/508
f 557/176/511 494/120/453 558/174/509
f 494/120/453 547/177/512 546/175/510
f 556/178/513 494/120/453 557/176/511
f 494/120/453 548/179/514 547/177/512
f 555/180/515 494/120/453 556/178/513
f 494/120/453 549/181/516 548/179/514
f 554/182/517 494/120/453 555/180/515
f 494/120/453 550/183/518 549/181/516
f 553/184/519 494/120/453 554/182/517
f 494/120/453 551/185/520 550/183/518
f 552/186/521 494/120/453 553/184/519
f 494/120/453 552/186/521 551/185/520
f 561/77/522 563/75/523 562/75/406
f 561/77/522 564/77/524 563/75/523
f 582/170/525 584/168/526 583/171/527
f 584/168/526 586/166/528 585/169/529
f 586/166/528 588/164/530 587/167/531
f 588/164/530 590/162/532 589/165/533
f 590/162/532 592/160/534 591/163/535
f 592/160/534 594/158/536 593/161/537
f 594/158/536 596/156/538 595/159/539
f 596/156/538 598/154/540 597/157/541
f 598/154/540 600/152/542 599/155/543
f 600/152/542 602/150/544 601/153/545
f 602/150/544 604/148/546 603/151/547
f 604/148/546 606/146/548 605/149/549
f 606/146/548 608/144/550 607/147/551
f 608/144/550 610/142/552 609/145/553
f 610/142/552 612/140/554 611/143/555
f 612/140/554 614/138/556 613/141/557
f 614/138/556 616/136/558 615/139/559
f 616/136/558 618/134/560 617/137/561
f 618/134/560 620/132/562 619/135/563
f 620/132/562 622/130/564 621/133/565
f 622/130/564 624/128/566 623/131/567
f 624/128/566 626/126/568 625/129/569
f 626/126/568 628/124/570 627/127/571
f 628/124/570 630/122/572 629/125/573
f 630/122/572 632/120/574 631/123/575
f 632/120/574 634/118/576 633/121/577
f 634/118/576 636/116/578 635/119/579
f 636/116/578 638/114/580 637/117/581
f 638/114/580 640/112/582 639/115/583
f 640/112/582 642/110/584 641/113/585
f 642/110/584 644/108/586 643/111/587
f 644/108/586 646/106/588 645/109/589
f 646/106/588 648/104/590 647/107/591
f 648/104/590 650/102/592 649/105/593
f 650/102/592 652/100/594 651/103/595
f 652/100/594 654/98/596 653/101/597
f 654/98/596 656/96/598 655/99/599
f 656/96/598 658/94/600 657/97/601
f 658/94/600 660/92/602 659/95/603
f 660/92/602 662/90/604 661/93/605
f 662/90/604 664/88/606 663/91/607
f 664/88/606 666/86/608 665/89/609
f 666/86/608 668/84/610 667/87/611
f 668/84/610 670/82/612 669/85/613
f 670/82/612 672/80/614 671/83/615
f 672/80/614 674/78/616 673/81/617
f 674/78/616 676/77/618 675/79/619
f 582/170/525 586/166/528 584/168/526
f 586/166/528 590/162/532 588/164/530
f 590/162/532 594/158/536 592/160/534
f 594/158/536 598/154/540 596/156/538
f 598/154/540 602/150/544 600/152/542
f 602/150/544 606/146/548 604/148/546
f 606/146/548 610/142/552 608/144/550
f 610/142/552 614/138/556 612/140/554
f 614/138/556 618/134/560 616/136/558
f 618/134/560 622/130/564 620/132/562
f 622/130/564 626/126/568 624/128/566
f 626/126/568 630/122/572 628/124/570
f 630/122/572 634/118/576 632/120/574
f 634/118/576 638/114/580 636/116/578
f 638/114/580 642/110/584 640/112/582
f 642/110/584 646/106/588 644/108/586
f 646/106/588 650/102/592 648/104/590
f 650/102/592 654/98/596 652/100/594
f 654/98/596 658/94/600 656/96/598
f 658/94/600 662/90/604 660/92/602
f 662/90/604 666/86/608 664/88/606
f 666/86/608 670/82/612 668/84/610
f 670/82/612 674/78/616 672/80/614
f 582/170/525 590/162/532 586/166/528
f 590/162/532 598/154/540 594/158/536
f 598/154/540 606/146/548 602/150/544
f 606/146/548 614/138/556 610/142/552
f 614/138/556 622/130/564 618/134/560
f 622/130/564 630/122/572 626/126/568
f 630/122/572 638/114/580 634/118/576
f 638/114/580 646/106/588 642/110/584
f 646/106/588 654/98/596 650/102/592
f 654/98/596 662/90/604 658/94/600
f 662/90/604 670/82/612 666/86/608
f 670/82/612 676/77/618 674/78/616
f 581/173/620 590/162/532 582/170/525
f 590/162/532 606/146/548 598/154/540
f 606/146/548 622/130/564 614/138/556
f 622/130/564 638/114/580 630/122/572
f 638/114/580 654/98/596 646/106/588
f 654/98/596 670/82/612 662/90/604
f 670/82/612 565/75/621 676/77/618
f 581/173/620 606/146/548 590/162/532
f 622/130/564 654/98/596 638/114/580
f 654/98/596 565/75/621 670/82/612
f 580/175/622 606/146/548 581/173/620
f 622/130/564 565/75/621 654/98/596
f 579/177/623 606/146/548 580/175/622
f 622/130/564 566/76/624 565/75/621
f 578/179/625 606/146/548 579/177/623
f 622/130/564 567/172/626 566/76/624
f 577/181/627 606/146/548 578/179/625
f 622/130/564 568/174/628 567/172/626
f 577/181/627 622/130/564 606/146/548
f 622/130/564 569/176/629 568/174/628
f 576/183/630 622/130/564 577/181/627
f 622/130/564 570/178/631 569/176/629
f 575/185/632 622/130/564 576/183/630
f 622/130/564 571/180/633 570/178/631
f 574/186/634 622/130/564 575/185/632
f 622/130/564 572/182/635 571/180/633
f 573/184/636 622/130/564 574/186/634
f 622/130/564 573/184/636 572/182/635
f 677/76/408 679/172/637 678/172/638
f 677/76/408 680/76/639 679/172/637
f 681/172/638 683/174/640 682/174/641
f 681/172/638 684/172/642 683/174/640
f 685/174/643 687/176/644 686/176/645
f 685/174/643 688/174/646 687/176/644
f 689/176/647 691/178/648 690/178/649
f 689/176/647 692/176/650 691/178/648
f 693/178/649 695/180/651 694/180/652
f 693/178/649 696/178/653 695/180/651
f 697/180/654 699/182/655 698/182/656
f 697/180/654 700/180/657 699/182/655
f 701/182/658 703/184/659 702/184/660
f 701/182/658 704/182/655 703/184/659
f 705/184/661 707/186/662 706/186/663
f 705/184/661 708/184/664 707/186/662
f 709/186/665 711/185/666 710/185/667
f 709/186/665 712/186/662 711/185/666
f 713/185/668 715/183/669 714/183/670
f 713/185/668 716/185/666 715/183/669
f 717/183/670 719/181/671 718/181/672
f 717/183/670 720/183/673 719/181/671
f 721/181/674 723/179/675 722/179/676
f 721/181/674 724/181/677 723/179/675
f 725/179/678 727/177/679 726/177/680
f 725/179/678 728/179/681 727/177/679
f 729/177/682 731/175/683 730/175/684
f 729/177/682 732/177/679 731/175/683
f 733/175/685 735/173/686 734/173/687
f 733/175/685 736/175/688 735/173/686
f 737/173/689 739/170/690 738/170/691
f 737/173/689 740/173/620 739/170/690
f 741/170/692 743/171/693 742/171/694
f 741/170/692 744/170/695 743/171/693
f 745/171/696 747/168/697 746/168/698
f 745/171/696 748/171/693 747/168/697
f 749/168/699 751/169/700 750/169/701
f 749/168/699 752/168/702 751/169/700
f 753/169/703 755/166/704 754/166/705
f 753/169/703 756/169/706 755/166/704
f 757/166/707 759/167/708 758/167/709
f 757/166/707 760/166/710 759/167/708
f 761/167/711 763/164/712 762/164/713
f 761/167/711 764/167/714 763/164/712
f 765/164/713 767/165/715 766/165/716
f 765/164/713 768/164/717 767/165/715
f 769/165/716 771/162/718 770/162/719
f 769/165/716 772/165/720 771/162/718
f 773/162/719 775/163/721 774/163/722
f 773/162/719 776/162/718 775/163/721
f 777/163/722 779/160/723 778/160/724
f 777/163/722 780/163/721 779/160/723
f 781/160/724 783/161/725 782/161/726
f 781/160/724 784/160/727 783/161/725
f 785/161/728 787/158/729 786/158/730
f 785/161/728 788/161/731 787/158/729
f 789/158/732 791/159/733 790/159/734
f 789/158/732 792/158/735 791/159/733
f 793/159/736 795/156/737 794/156/738
f 793/159/736 796/159/739 795/156/737
f 797/156/738 799/157/740 798/157/741
f 797/156/738 800/156/742 799/157/740
f 801/157/741 803/154/743 802/154/744
f 801/157/741 804/157/745 803/154/743
f 805/154/746 807/155/747 806/155/748
f 805/154/746 808/154/749 807/155/747
f 809/155/750 811/152/751 810/152/752
f 809/155/750 812/155/753 811/152/751
f 813/152/485 815/153/754 814/153/755
f 813/152/485 816/152/756 815/153/754
f 817/153/757 819/150/758 818/150/759
f 817/153/757 820/153/760 819/150/758
f 821/150/761 823/151/762 822/151/763
f 821/150/761 824/150/764 823/151/762
f 825/151/763 827/148/765 826/148/766
f 825/151/763 828/151/767 827/148/765
f 829/148/766 831/149/768 830/149/769
f 829/148/766 832/148/770 831/149/768
f 833/149/771 835/146/772 834/146/773
f 833/149/771 836/149/774 835/146/772
f 837/146/775 839/147/776 838/147/777
f 837/146/775 840/146/778 839/147/776
f 841/147/779 843/144/780 842/144/781
f 841/147/779 844/147/782 843/144/780
f 845/144/781 847/145/783 846/145/784
f 845/144/781 848/144/785 847/145/783
f 849/145/786 851/142/787 850/142/788
f 849/145/786 852/145/789 851/142/787
f 853/142/790 855/143/791 854/143/792
f 853/142/790 856/142/793 855/143/791
f 857/143/792 859/140/794 858/140/795
f 857/143/792 860/143/791 859/140/794
f 861/140/796 863/141/797 862/141/798
f 861/140/796 864/140/799 863/141/797
f 865/141/800 867/138/801 866/138/802
f 865/141/800 868/141/803 867/138/801
f 869/138/804 871/139/805 870/139/806
f 869/138/804 872/138/801 871/139/805
f 873/139/807 875/136/808 874/136/809
f 873/139/807 876/139/810 875/136/808
f 877/136/811 879/137/812 878/137/813
f 877/136/811 880/136/814 879/137/812
f 881/137/813 883/134/815 882/134/816
f 881/137/813 884/137/817 883/134/815
f 885/134/818 887/135/819 886/135/820
f 885/134/818 888/134/815 887/135/819
f 889/135/821 891/132/822 890/132/823
f 889/135/821 892/135/824 891/132/822
f 893/132/825 895/133/826 894/133/827
f 893/132/825 896/132/828 895/133/826
f 897/133/829 899/130/830 898/130/831
f 897/133/829 900/133/832 899/130/830
f 901/130/833 903/131/834 902/131/835
f 901/130/833 904/130/836 903/131/834
f 905/131/835 907/128/837 906/128/838
f 905/131/835 908/131/839 907/128/837
f 909/128/840 911/129/841 910/129/842
f 909/128/840 912/128/843 911/129/841
f 913/129/844 915/126/845 914/126/846
f 913/129/844 916/129/841 915/126/845
f 917/126/847 919/127/848 918/127/849
f 917/126/847 920/126/850 919/127/848
f 921/127/851 923/124/852 922/124/853
f 921/127/851 924/127/854 923/124/852
f 925/124/853 927/125/855 926/125/856
f 925/124/853 928/124/852 927/125/855
f 929/125/856 931/122/857 930/122/858
f 929/125/856 932/125/855 931/122/857
f 933/122/859 935/123/860 934/123/861
f 933/122/859 936/122/862 935/123/860
f 937/123/861 939/120/863 938/120/864
f 937/123/861 940/123/865 939/120/863
f 941/120/866 943/121/867 942/121/868
f 941/120/866 944/120/863 943/121/867
f 945/121/868 947/118/869 946/118/870
f 945/121/868 948/121/867 947/118/869
f 949/118/871 951/119/872 950/119/873
f 949/118/871 952/118/869 951/119/872
f 953/119/874 955/116/875 954/116/876
f 953/119/874 956/119/872 955/116/875
f 957/116/877 959/117/878 958/117/879
f 957/116/877 960/116/880 959/117/878
f 961/117/881 963/114/882 962/114/883
f 961/117/881 964/117/884 963/114/882
f 965/114/883 967/115/885 966/115/886
f 965/114/883 968/114/887 967/115/885
f 969/115/888 971/112/889 970/112/890
f 969/115/888 972/115/885 971/112/889
f 973/112/891 975/113/892 974/113/893
f 973/112/891 976/112/894 975/113/892
f 977/113/893 979/110/895 978/110/896
f 977/113/893 980/113/897 979/110/895
f 981/110/898 983/111/899 982/111/900
f 981/110/898 984/110/901 983/111/899
f 985/111/902 987/108/903 986/108/904
f 985/111/902 988/111/899 987/108/903
f 989/108/905 991/109/906 990/109/907
f 989/108/905 992/108/908 991/109/906
f 993/109/907 995/106/909 994/106/910
f 993/109/907 996/109/911 995/106/909
f 997/106/912 999/107/913 998/107/914
f 997/106/912 1000/106/915 999/107/913
f 1001/107/914 1003/104/916 1002/104/917
f 1001/107/914 1004/107/918 1003/104/916
f 1005/104/917 1007/105/919 1006/105/920
f 1005/104/917 1008/104/916 1007/105/919
f 1009/105/921 1011/102/922 1010/102/923
f 1009/105/921 1012/105/919 1011/102/922
f 1013/102/923 1015/103/924 1014/103/925
f 1013/102/923 1016/102/926 1015/103/924
f 1017/103/927 1019/100/928 1018/100/929
f 1017/103/927 1020/103/930 1019/100/928
f 1021/100/931 1023/101/932 1022/101/933
f 1021/100/931 1024/100/934 1023/101/932
f 1025/101/935 1027/98/936 1026/98/937
f 1025/101/935 1028/101/932 1027/98/936
f 1029/98/938 1031/99/939 1030/99/940
f 1029/98/938 1032/98/941 1031/99/939
f 1033/99/942 1035/96/943 1034/96/944
f 1033/99/942 1036/99/945 1035/96/943
f 1037/96/944 1039/97/946 1038/97/947
f 1037/96/944 1040/96/948 1039/97/946
f 1041/97/949 1043/94/950 1042/94/951
f 1041/97/949 1044/97/952 1043/94/950
f 1045/94/951 1047/95/953 1046/95/954
f 1045/94/951 1048/94/955 1047/95/953
f 1049/95/956 1051/92/957 1050/92/958
f 1049/95/956 1052/95/953 1051/92/957
f 1053/92/959 1055/93/960 1054/93/961
f 1053/92/959 1056/92/962 1055/93/960
f 1057/93/961 1059/90/963 1058/90/964
f 1057/93/961 1060/93/965 1059/90/963
f 1061/90/966 1063/91/967 1062/91/968
f 1061/90/966 1064/90/969 1063/91/967
f 1065/91/970 1067/88/971 1066/88/972
f 1065/91/970 1068/91/973 1067/88/971
f 1069/88/974 1071/89/975 1070/89/976
f 1069/88/974 1072/88/977 1071/89/975
f 1073/89/978 1075/86/979 1074/86/980
f 1073/89/978 1076/89/981 1075/86/979
f 1077/86/982 1079/87/983 1078/87/984
f 1077/86/982 1080/86/985 1079/87/983
f 1081/87/984 1083/84/986 1082/84/987
f 1081/87/984 1084/87/988 1083/84/986
f 1085/84/989 1087/85/990 1086/85/991
f 1085/84/989 1088/84/992 1087/85/990
f 1089/85/993 1091/82/994 1090/82/995
f 1089/85/993 1092/85/996 1091/82/994
f 1093/82/997 1095/83/998 1094/83/999
f 1093/82/997 1096/82/994 1095/83/998
f 1097/83/1000 1099/80/1001 1098/80/1002
f 1097/83/1000 1100/83/998 1099/80/1001
f 1101/80/1003 1103/81/1004 1102/81/1005
f 1101/80/1003 1104/80/1001 1103/81/1004
f 1105/81/1006 1107/78/1007 1106/78/1008
f 1105/81/1006 1108/81/1009 1107/78/1007
f 1109/78/1008 1111/79/1010 1110/79/1011
f 1109/78/1008 1112/78/1012 1111/79/1010
f 1113/79/1013 1115/77/1014 1114/77/1015
f 1113/79/1013 1116/79/1016 1115/77/1014
