v -0.487257 0.024117 0.062328
v -0.481121 0.024091 0.025142
v -0.487257 0.024087 0.019633
v -0.481121 0.024091 0.025142
v -0.470667 0.024087 0.019633
v -0.487257 0.024087 0.019633
v -0.481121 0.024091 0.025142
v -0.466906 0.024087 0.01986
v -0.470667 0.024087 0.019633
v -0.481121 0.024091 0.025142
v -0.463506 0.024088 0.020514
v -0.466906 0.024087 0.01986
v -0.481121 0.024091 0.025142
v -0.460461 0.024088 0.021551
v -0.463506 0.024088 0.020514
v -0.481121 0.024091 0.025142
v -0.457764 0.024089 0.022927
v -0.460461 0.024088 0.021551
v -0.481121 0.024091 0.025142
v -0.455409 0.02409 0.0246
v -0.457764 0.024089 0.022927
v -0.481121 0.024091 0.025142
v -0.471668 0.024091 0.025142
v -0.455409 0.02409 0.0246
v -0.471668 0.024091 0.025142
v -0.468814 0.024091 0.025289
v -0.455409 0.02409 0.0246
v -0.468814 0.024091 0.025289
v -0.453389 0.024092 0.026527
v -0.455409 0.02409 0.0246
v -0.487257 0.024117 0.062328
v -0.481121 0.024113 0.056819
v -0.481121 0.024091 0.025142
v -0.466228 0.024091 0.025719
v -0.453389 0.024092 0.026527
v -0.468814 0.024091 0.025289
v -0.463905 0.024092 0.02641
v -0.453389 0.024092 0.026527
v -0.466228 0.024091 0.025719
v -0.461842 0.024092 0.027342
v -0.453389 0.024092 0.026527
v -0.463905 0.024092 0.02641
v -0.461842 0.024092 0.027342
v -0.451697 0.024093 0.028663
v -0.453389 0.024092 0.026527
v -0.460036 0.024093 0.028494
v -0.451697 0.024093 0.028663
v -0.461842 0.024092 0.027342
v -0.458483 0.024094 0.029845
v -0.451697 0.024093 0.028663
v -0.460036 0.024093 0.028494
v -0.458483 0.024094 0.029845
v -0.450328 0.024095 0.030966
v -0.451697 0.024093 0.028663
v -0.457179 0.024095 0.031374
v -0.450328 0.024095 0.030966
v -0.458483 0.024094 0.029845
v -0.457179 0.024095 0.031374
v -0.449274 0.024097 0.033393
v -0.450328 0.024095 0.030966
v -0.45612 0.024096 0.033062
v -0.449274 0.024097 0.033393
v -0.457179 0.024095 0.031374
v -0.455303 0.024098 0.034888
v -0.449274 0.024097 0.033393
v -0.45612 0.024096 0.033062
v -0.455303 0.024098 0.034888
v -0.44853 0.024098 0.0359
v -0.449274 0.024097 0.033393
v -0.454724 0.024099 0.036829
v -0.44853 0.024098 0.0359
v -0.455303 0.024098 0.034888
v -0.454724 0.024099 0.036829
v -0.448088 0.0241 0.038443
v -0.44853 0.024098 0.0359
v -0.454379 0.0241 0.038867
v -0.448088 0.0241 0.038443
v -0.454724 0.024099 0.036829
v -0.454379 0.0241 0.038867
v -0.447942 0.024102 0.04098
v -0.448088 0.0241 0.038443
v -0.454265 0.024102 0.04098
v -0.447942 0.024102 0.04098
v -0.454379 0.0241 0.038867
v -0.454336 0.024103 0.042397
v -0.447942 0.024102 0.04098
v -0.454265 0.024102 0.04098
v -0.454336 0.024103 0.042397
v -0.448119 0.024104 0.043701
v -0.447942 0.024102 0.04098
v -0.454566 0.024104 0.043979
v -0.448119 0.024104 0.043701
v -0.454336 0.024103 0.042397
v -0.454566 0.024104 0.043979
v -0.448643 0.024106 0.046365
v -0.448119 0.024104 0.043701
v -0.454981 0.024105 0.045674
v -0.448643 0.024106 0.046365
v -0.454566 0.024104 0.043979
v -0.455607 0.024106 0.047424
v -0.448643 0.024106 0.046365
v -0.454981 0.024105 0.045674
v -0.455607 0.024106 0.047424
v -0.449502 0.024107 0.048937
v -0.448643 0.024106 0.046365
v -0.456471 0.024108 0.049175
v -0.449502 0.024107 0.048937
v -0.455607 0.024106 0.047424
v -0.456471 0.024108 0.049175
v -0.450687 0.024109 0.051384
v -0.449502 0.024107 0.048937
v -0.457599 0.024109 0.050871
v -0.450687 0.024109 0.051384
v -0.456471 0.024108 0.049175
v -0.459015 0.02411 0.052458
v -0.450687 0.024109 0.051384
v -0.457599 0.024109 0.050871
v -0.459015 0.02411 0.052458
v -0.452187 0.024111 0.05367
v -0.450687 0.024109 0.051384
v -0.460748 0.024111 0.053881
v -0.452187 0.024111 0.05367
v -0.459015 0.02411 0.052458
v -0.460748 0.024111 0.053881
v -0.453991 0.024112 0.055762
v -0.452187 0.024111 0.05367
v -0.462822 0.024112 0.055083
v -0.453991 0.024112 0.055762
v -0.460748 0.024111 0.053881
v -0.465264 0.024112 0.05601
v -0.453991 0.024112 0.055762
v -0.462822 0.024112 0.055083
v -0.465264 0.024112 0.05601
v -0.456088 0.024113 0.057626
v -0.453991 0.024112 0.055762
v -0.4681 0.024113 0.056607
v -0.456088 0.024113 0.057626
v -0.465264 0.024112 0.05601
v -0.471356 0.024113 0.056819
v -0.456088 0.024113 0.057626
v -0.4681 0.024113 0.056607
v -0.487257 0.024117 0.062328
v -0.471356 0.024113 0.056819
v -0.481121 0.024113 0.056819
v -0.487257 0.024117 0.062328
v -0.456088 0.024113 0.057626
v -0.471356 0.024113 0.056819
v -0.487257 0.024117 0.062328
v -0.458469 0.024115 0.059228
v -0.456088 0.024113 0.057626
v -0.487257 0.024117 0.062328
v -0.461121 0.024115 0.060533
v -0.458469 0.024115 0.059228
v -0.487257 0.024117 0.062328
v -0.464035 0.024116 0.061508
v -0.461121 0.024115 0.060533
v -0.487257 0.024117 0.062328
v -0.467199 0.024117 0.062117
v -0.464035 0.024116 0.061508
v -0.487257 0.024117 0.062328
v -0.470604 0.024117 0.062328
v -0.467199 0.024117 0.062117
v -0.481121 0.020335 0.025144
v -0.487257 0.020361 0.06233
v -0.487257 0.020331 0.019635
v -0.470667 0.020331 0.019635
v -0.481121 0.020335 0.025144
v -0.487257 0.020331 0.019635
v -0.466906 0.020331 0.019863
v -0.481121 0.020335 0.025144
v -0.470667 0.020331 0.019635
v -0.463506 0.020331 0.020516
v -0.481121 0.020335 0.025144
v -0.466906 0.020331 0.019863
v -0.460461 0.020332 0.021553
v -0.481121 0.020335 0.025144
v -0.463506 0.020331 0.020516
v -0.457764 0.020333 0.02293
v -0.481121 0.020335 0.025144
v -0.460461 0.020332 0.021553
v -0.455409 0.020334 0.024603
v -0.481121 0.020335 0.025144
v -0.457764 0.020333 0.02293
v -0.471668 0.020335 0.025144
v -0.481121 0.020335 0.025144
v -0.455409 0.020334 0.024603
v -0.468814 0.020335 0.025292
v -0.471668 0.020335 0.025144
v -0.455409 0.020334 0.024603
v -0.453389 0.020336 0.026529
v -0.468814 0.020335 0.025292
v -0.455409 0.020334 0.024603
v -0.481121 0.020357 0.056821
v -0.487257 0.020361 0.06233
v -0.481121 0.020335 0.025144
v -0.453389 0.020336 0.026529
v -0.466228 0.020335 0.025722
v -0.468814 0.020335 0.025292
v -0.453389 0.020336 0.026529
v -0.463905 0.020336 0.026413
v -0.466228 0.020335 0.025722
v -0.453389 0.020336 0.026529
v -0.461842 0.020336 0.027345
v -0.463905 0.020336 0.026413
v -0.451697 0.020337 0.028666
v -0.461842 0.020336 0.027345
v -0.453389 0.020336 0.026529
v -0.451697 0.020337 0.028666
v -0.460036 0.020337 0.028496
v -0.461842 0.020336 0.027345
v -0.451697 0.020337 0.028666
v -0.458483 0.020338 0.029847
v -0.460036 0.020337 0.028496
v -0.450328 0.020339 0.030969
v -0.458483 0.020338 0.029847
v -0.451697 0.020337 0.028666
v -0.450328 0.020339 0.030969
v -0.457179 0.020339 0.031377
v -0.458483 0.020338 0.029847
v -0.449274 0.02034 0.033395
v -0.457179 0.020339 0.031377
v -0.450328 0.020339 0.030969
v -0.449274 0.02034 0.033395
v -0.45612 0.02034 0.033065
v -0.457179 0.020339 0.031377
v -0.449274 0.02034 0.033395
v -0.455303 0.020341 0.03489
v -0.45612 0.02034 0.033065
v -0.44853 0.020342 0.035902
v -0.455303 0.020341 0.03489
v -0.449274 0.02034 0.033395
v -0.44853 0.020342 0.035902
v -0.454724 0.020343 0.036831
v -0.455303 0.020341 0.03489
v -0.448088 0.020344 0.038445
v -0.454724 0.020343 0.036831
v -0.44853 0.020342 0.035902
v -0.448088 0.020344 0.038445
v -0.454379 0.020344 0.03887
v -0.454724 0.020343 0.036831
v -0.447942 0.020346 0.040983
v -0.454379 0.020344 0.03887
v -0.448088 0.020344 0.038445
v -0.447942 0.020346 0.040983
v -0.454265 0.020346 0.040983
v -0.454379 0.020344 0.03887
v -0.447942 0.020346 0.040983
v -0.454336 0.020347 0.042399
v -0.454265 0.020346 0.040983
v -0.448119 0.020348 0.043704
v -0.454336 0.020347 0.042399
v -0.447942 0.020346 0.040983
v -0.448119 0.020348 0.043704
v -0.454566 0.020348 0.043982
v -0.454336 0.020347 0.042399
v -0.448643 0.020349 0.046368
v -0.454566 0.020348 0.043982
v -0.448119 0.020348 0.043704
v -0.448643 0.020349 0.046368
v -0.454981 0.020349 0.045676
v -0.454566 0.020348 0.043982
v -0.448643 0.020349 0.046368
v -0.455607 0.02035 0.047426
v -0.454981 0.020349 0.045676
v -0.449502 0.020351 0.04894
v -0.455607 0.02035 0.047426
v -0.448643 0.020349 0.046368
v -0.449502 0.020351 0.04894
v -0.456471 0.020351 0.049178
v -0.455607 0.02035 0.047426
v -0.450687 0.020353 0.051387
v -0.456471 0.020351 0.049178
v -0.449502 0.020351 0.04894
v -0.450687 0.020353 0.051387
v -0.457599 0.020353 0.050874
v -0.456471 0.020351 0.049178
v -0.450687 0.020353 0.051387
v -0.459015 0.020354 0.052461
v -0.457599 0.020353 0.050874
v -0.452187 0.020355 0.053672
v -0.459015 0.020354 0.052461
v -0.450687 0.020353 0.051387
v -0.452187 0.020355 0.053672
v -0.460748 0.020355 0.053884
v -0.459015 0.020354 0.052461
v -0.453991 0.020356 0.055765
v -0.460748 0.020355 0.053884
v -0.452187 0.020355 0.053672
v -0.453991 0.020356 0.055765
v -0.462822 0.020356 0.055086
v -0.460748 0.020355 0.053884
v -0.453991 0.020356 0.055765
v -0.465264 0.020356 0.056013
v -0.462822 0.020356 0.055086
v -0.456088 0.020357 0.057629
v -0.465264 0.020356 0.056013
v -0.453991 0.020356 0.055765
v -0.456088 0.020357 0.057629
v -0.4681 0.020357 0.05661
v -0.465264 0.020356 0.056013
v -0.456088 0.020357 0.057629
v -0.471356 0.020357 0.056821
v -0.4681 0.020357 0.05661
v -0.471356 0.020357 0.056821
v -0.487257 0.020361 0.06233
v -0.481121 0.020357 0.056821
v -0.456088 0.020357 0.057629
v -0.487257 0.020361 0.06233
v -0.471356 0.020357 0.056821
v -0.458469 0.020358 0.05923
v -0.487257 0.020361 0.06233
v -0.456088 0.020357 0.057629
v -0.461121 0.020359 0.060536
v -0.487257 0.020361 0.06233
v -0.458469 0.020358 0.05923
v -0.464035 0.02036 0.06151
v -0.487257 0.020361 0.06233
v -0.461121 0.020359 0.060536
v -0.467199 0.02036 0.062119
v -0.487257 0.020361 0.06233
v -0.464035 0.02036 0.06151
v -0.470604 0.020361 0.06233
v -0.487257 0.020361 0.06233
v -0.467199 0.02036 0.062119
v -0.470667 0.024087 0.019633
v -0.466906 0.024087 0.01986
v -0.466906 0.020331 0.019863
v -0.470667 0.020331 0.019635
v -0.466906 0.024087 0.01986
v -0.463506 0.024088 0.020514
v -0.463506 0.020331 0.020516
v -0.466906 0.020331 0.019863
v -0.463506 0.024088 0.020514
v -0.460461 0.024088 0.021551
v -0.460461 0.020332 0.021553
v -0.463506 0.020331 0.020516
v -0.460461 0.024088 0.021551
v -0.457764 0.024089 0.022927
v -0.457764 0.020333 0.02293
v -0.460461 0.020332 0.021553
v -0.457764 0.024089 0.022927
v -0.455409 0.02409 0.0246
v -0.455409 0.020334 0.024603
v -0.457764 0.020333 0.02293
v -0.455409 0.02409 0.0246
v -0.453389 0.024092 0.026527
v -0.453389 0.020336 0.026529
v -0.455409 0.020334 0.024603
v -0.453389 0.024092 0.026527
v -0.451697 0.024093 0.028663
v -0.451697 0.020337 0.028666
v -0.453389 0.020336 0.026529
v -0.451697 0.024093 0.028663
v -0.450328 0.024095 0.030966
v -0.450328 0.020339 0.030969
v -0.451697 0.020337 0.028666
v -0.450328 0.024095 0.030966
v -0.449274 0.024097 0.033393
v -0.449274 0.02034 0.033395
v -0.450328 0.020339 0.030969
v -0.449274 0.024097 0.033393
v -0.44853 0.024098 0.0359
v -0.44853 0.020342 0.035902
v -0.449274 0.02034 0.033395
v -0.44853 0.024098 0.0359
v -0.448088 0.0241 0.038443
v -0.448088 0.020344 0.038445
v -0.44853 0.020342 0.035902
v -0.448088 0.0241 0.038443
v -0.447942 0.024102 0.04098
v -0.447942 0.020346 0.040983
v -0.448088 0.020344 0.038445
v -0.447942 0.024102 0.04098
v -0.448119 0.024104 0.043701
v -0.448119 0.020348 0.043704
v -0.447942 0.020346 0.040983
v -0.448119 0.024104 0.043701
v -0.448643 0.024106 0.046365
v -0.448643 0.020349 0.046368
v -0.448119 0.020348 0.043704
v -0.448643 0.024106 0.046365
v -0.449502 0.024107 0.048937
v -0.449502 0.020351 0.04894
v -0.448643 0.020349 0.046368
v -0.449502 0.024107 0.048937
v -0.450687 0.024109 0.051384
v -0.450687 0.020353 0.051387
v -0.449502 0.020351 0.04894
v -0.450687 0.024109 0.051384
v -0.452187 0.024111 0.05367
v -0.452187 0.020355 0.053672
v -0.450687 0.020353 0.051387
v -0.452187 0.024111 0.05367
v -0.453991 0.024112 0.055762
v -0.453991 0.020356 0.055765
v -0.452187 0.020355 0.053672
v -0.453991 0.024112 0.055762
v -0.456088 0.024113 0.057626
v -0.456088 0.020357 0.057629
v -0.453991 0.020356 0.055765
v -0.456088 0.024113 0.057626
v -0.458469 0.024115 0.059228
v -0.458469 0.020358 0.05923
v -0.456088 0.020357 0.057629
v -0.458469 0.024115 0.059228
v -0.461121 0.024115 0.060533
v -0.461121 0.020359 0.060536
v -0.458469 0.020358 0.05923
v -0.461121 0.024115 0.060533
v -0.464035 0.024116 0.061508
v -0.464035 0.02036 0.06151
v -0.461121 0.020359 0.060536
v -0.464035 0.024116 0.061508
v -0.467199 0.024117 0.062117
v -0.467199 0.02036 0.062119
v -0.464035 0.02036 0.06151
v -0.467199 0.024117 0.062117
v -0.470604 0.024117 0.062328
v -0.470604 0.020361 0.06233
v -0.467199 0.02036 0.062119
v -0.470604 0.024117 0.062328
v -0.487257 0.024117 0.062328
v -0.487257 0.020361 0.06233
v -0.470604 0.020361 0.06233
v -0.487257 0.024117 0.062328
v -0.487257 0.024087 0.019633
v -0.487257 0.020331 0.019635
v -0.487257 0.020361 0.06233
v -0.487257 0.024087 0.019633
v -0.470667 0.024087 0.019633
v -0.470667 0.020331 0.019635
v -0.487257 0.020331 0.019635
v -0.471356 0.024113 0.056819
v -0.4681 0.024113 0.056607
v -0.4681 0.020357 0.05661
v -0.471356 0.020357 0.056821
v -0.4681 0.024113 0.056607
v -0.465264 0.024112 0.05601
v -0.465264 0.020356 0.056013
v -0.4681 0.020357 0.05661
v -0.465264 0.024112 0.05601
v -0.462822 0.024112 0.055083
v -0.462822 0.020356 0.055086
v -0.465264 0.020356 0.056013
v -0.462822 0.024112 0.055083
v -0.460748 0.024111 0.053881
v -0.460748 0.020355 0.053884
v -0.462822 0.020356 0.055086
v -0.460748 0.024111 0.053881
v -0.459015 0.02411 0.052458
v -0.459015 0.020354 0.052461
v -0.460748 0.020355 0.053884
v -0.459015 0.02411 0.052458
v -0.457599 0.024109 0.050871
v -0.457599 0.020353 0.050874
v -0.459015 0.020354 0.052461
v -0.457599 0.024109 0.050871
v -0.456471 0.024108 0.049175
v -0.456471 0.020351 0.049178
v -0.457599 0.020353 0.050874
v -0.456471 0.024108 0.049175
v -0.455607 0.024106 0.047424
v -0.455607 0.02035 0.047426
v -0.456471 0.020351 0.049178
v -0.455607 0.024106 0.047424
v -0.454981 0.024105 0.045674
v -0.454981 0.020349 0.045676
v -0.455607 0.02035 0.047426
v -0.454981 0.024105 0.045674
v -0.454566 0.024104 0.043979
v -0.454566 0.020348 0.043982
v -0.454981 0.020349 0.045676
v -0.454566 0.024104 0.043979
v -0.454336 0.024103 0.042397
v -0.454336 0.020347 0.042399
v -0.454566 0.020348 0.043982
v -0.454336 0.024103 0.042397
v -0.454265 0.024102 0.04098
v -0.454265 0.020346 0.040983
v -0.454336 0.020347 0.042399
v -0.454265 0.024102 0.04098
v -0.454379 0.0241 0.038867
v -0.454379 0.020344 0.03887
v -0.454265 0.020346 0.040983
v -0.454379 0.0241 0.038867
v -0.454724 0.024099 0.036829
v -0.454724 0.020343 0.036831
v -0.454379 0.020344 0.03887
v -0.454724 0.024099 0.036829
v -0.455303 0.024098 0.034888
v -0.455303 0.020341 0.03489
v -0.454724 0.020343 0.036831
v -0.455303 0.024098 0.034888
v -0.45612 0.024096 0.033062
v -0.45612 0.02034 0.033065
v -0.455303 0.020341 0.03489
v -0.45612 0.024096 0.033062
v -0.457179 0.024095 0.031374
v -0.457179 0.020339 0.031377
v -0.45612 0.02034 0.033065
v -0.457179 0.024095 0.031374
v -0.458483 0.024094 0.029845
v -0.458483 0.020338 0.029847
v -0.457179 0.020339 0.031377
v -0.458483 0.024094 0.029845
v -0.460036 0.024093 0.028494
v -0.460036 0.020337 0.028496
v -0.458483 0.020338 0.029847
v -0.460036 0.024093 0.028494
v -0.461842 0.024092 0.027342
v -0.461842 0.020336 0.027345
v -0.460036 0.020337 0.028496
v -0.461842 0.024092 0.027342
v -0.463905 0.024092 0.02641
v -0.463905 0.020336 0.026413
v -0.461842 0.020336 0.027345
v -0.463905 0.024092 0.02641
v -0.466228 0.024091 0.025719
v -0.466228 0.020335 0.025722
v -0.463905 0.020336 0.026413
v -0.466228 0.024091 0.025719
v -0.468814 0.024091 0.025289
v -0.468814 0.020335 0.025292
v -0.466228 0.020335 0.025722
v -0.468814 0.024091 0.025289
v -0.471668 0.024091 0.025142
v -0.471668 0.020335 0.025144
v -0.468814 0.020335 0.025292
v -0.471668 0.024091 0.025142
v -0.481121 0.024091 0.025142
v -0.481121 0.020335 0.025144
v -0.471668 0.020335 0.025144
v -0.481121 0.024091 0.025142
v -0.481121 0.024113 0.056819
v -0.481121 0.020357 0.056821
v -0.481121 0.020335 0.025144
v -0.481121 0.024113 0.056819
v -0.471356 0.024113 0.056819
v -0.471356 0.020357 0.056821
v -0.481121 0.020357 0.056821
vn -0 1 -0.0007
vn -0 1 -0.0007
vn -0 1 -0.0007
vn -0 1 -0.0007
vn -0 1 -0.0007
vn -0 1 -0.0007
vn -0 1 -0.0007
vn -0 1 -0.0006
vn -0 1 -0.0007
vn -0 1 -0.0007
vn 0.0001 1 -0.0004
vn -0 1 -0.0006
vn -0 1 -0.0007
vn -0 1 -0.0007
vn 0.0001 1 -0.0004
vn -0 1 -0.0007
vn -0 1 -0.0007
vn -0 1 -0.0007
vn -0 1 -0.0007
vn -0 1 -0.0006
vn -0 1 -0.0007
vn -0 1 -0.0007
vn -0 1 -0.0006
vn -0 1 -0.0006
vn -0 1 -0.0006
vn -0 1 -0.0007
vn -0 1 -0.0006
vn -0 1 -0.0007
vn -0 1 -0.0006
vn -0 1 -0.0006
vn -0 1 -0.0007
vn -0 1 -0.0007
vn -0 1 -0.0007
vn -0 1 -0.0008
vn -0 1 -0.0006
vn -0 1 -0.0007
vn -0 1 -0.0006
vn -0 1 -0.0006
vn -0 1 -0.0008
vn -0 1 -0.0001
vn -0 1 -0.0006
vn -0 1 -0.0006
vn -0 1 -0.0001
vn -0 1 -0.0007
vn -0 1 -0.0006
vn -0 1 -0.0009
vn -0 1 -0.0007
vn -0 1 -0.0001
vn -0 1 -0.0007
vn -0 1 -0.0007
vn -0 1 -0.0009
vn -0 1 -0.0007
vn -0 1 -0.0008
vn -0 1 -0.0007
vn -0.0001 1 -0.0006
vn -0 1 -0.0008
vn -0 1 -0.0007
vn -0.0001 1 -0.0006
vn -0 1 -0.0006
vn -0 1 -0.0008
vn -0.0001 1 -0.0007
vn -0 1 -0.0006
vn -0.0001 1 -0.0006
vn -0 1 -0.0008
vn -0 1 -0.0006
vn -0.0001 1 -0.0007
vn -0 1 -0.0008
vn 0.0001 1 -0.0006
vn -0 1 -0.0006
vn -0 1 -0.0006
vn 0.0001 1 -0.0006
vn -0 1 -0.0008
vn -0 1 -0.0006
vn -0 1 -0.0008
vn 0.0001 1 -0.0006
vn -0 1 -0.0007
vn -0 1 -0.0008
vn -0 1 -0.0006
vn -0 1 -0.0007
vn -0 1 -0.0008
vn -0 1 -0.0008
vn -0 1 -0.0008
vn -0 1 -0.0008
vn -0 1 -0.0007
vn -0 1 -0.0007
vn -0 1 -0.0008
vn -0 1 -0.0008
vn -0 1 -0.0007
vn -0 1 -0.0007
vn -0 1 -0.0008
vn -0.0001 1 -0.0006
vn -0 1 -0.0007
vn -0 1 -0.0007
vn -0.0001 1 -0.0006
vn -0.0001 1 -0.0006
vn -0 1 -0.0007
vn -0.0001 1 -0.0006
vn -0.0001 1 -0.0006
vn -0.0001 1 -0.0006
vn -0 1 -0.0008
vn -0.0001 1 -0.0006
vn -0.0001 1 -0.0006
vn -0 1 -0.0008
vn -0 1 -0.0006
vn -0.0001 1 -0.0006
vn 0.0001 1 -0.0008
vn -0 1 -0.0006
vn -0 1 -0.0008
vn 0.0001 1 -0.0008
vn 0.0001 1 -0.0008
vn -0 1 -0.0006
vn -0 1 -0.0006
vn 0.0001 1 -0.0008
vn 0.0001 1 -0.0008
vn -0 1 -0.0007
vn 0.0001 1 -0.0008
vn -0 1 -0.0006
vn -0 1 -0.0007
vn -0 1 -0.0008
vn 0.0001 1 -0.0008
vn -0 1 -0.0007
vn -0 1 -0.0008
vn -0 1 -0.0007
vn -0 1 -0.0007
vn -0 1 -0.0008
vn -0 1 -0.0008
vn -0 1 -0.0005
vn -0 1 -0.0008
vn -0 1 -0.0007
vn 0.0001 1 -0.001
vn -0 1 -0.0008
vn -0 1 -0.0005
vn 0.0001 1 -0.001
vn -0 1 -0.0007
vn -0 1 -0.0008
vn -0 1 -0.0004
vn -0 1 -0.0007
vn 0.0001 1 -0.001
vn -0 1 -0.0006
vn -0 1 -0.0007
vn -0 1 -0.0004
vn -0 1 -0.0007
vn -0 1 -0.0006
vn -0 1 -0.0007
vn -0 1 -0.0007
vn -0 1 -0.0007
vn -0 1 -0.0006
vn -0 1 -0.0007
vn -0.0001 1 -0.0012
vn -0 1 -0.0007
vn -0 1 -0.0007
vn -0 1 -0.0007
vn -0.0001 1 -0.0012
vn -0 1 -0.0007
vn -0 1 -0.001
vn -0 1 -0.0007
vn -0 1 -0.0007
vn -0 1 -0.0005
vn -0 1 -0.001
vn -0 1 -0.0007
vn -0 1 -0.0007
vn -0 1 -0.0005
vn -0 -1 0.0007
vn -0 -1 0.0007
vn -0 -1 0.0007
vn -0 -1 0.0007
vn -0 -1 0.0007
vn -0 -1 0.0007
vn -0.0001 -1 0.0005
vn -0 -1 0.0007
vn -0 -1 0.0007
vn -0 -1 0.0009
vn -0 -1 0.0007
vn -0.0001 -1 0.0005
vn -0 -1 0.0008
vn -0 -1 0.0007
vn -0 -1 0.0009
vn -0 -1 0.0007
vn -0 -1 0.0007
vn -0 -1 0.0008
vn -0 -1 0.0006
vn -0 -1 0.0007
vn -0 -1 0.0007
vn -0 -1 0.0006
vn -0 -1 0.0007
vn -0 -1 0.0006
vn -0 -1 0.0007
vn -0 -1 0.0006
vn -0 -1 0.0006
vn -0 -1 0.0006
vn -0 -1 0.0007
vn -0 -1 0.0006
vn -0 -1 0.0007
vn -0 -1 0.0007
vn -0 -1 0.0007
vn -0 -1 0.0006
vn -0 -1 0.0008
vn -0 -1 0.0007
vn -0 -1 0.0006
vn -0 -1 0.0008
vn -0 -1 0.0008
vn -0 -1 0.0006
vn -0 -1 0.0002
vn -0 -1 0.0008
vn -0 -1 0.0008
vn -0 -1 0.0002
vn -0 -1 0.0006
vn -0 -1 0.0008
vn -0 -1 0.0009
vn -0 -1 0.0002
vn -0 -1 0.0008
vn -0 -1 0.0004
vn -0 -1 0.0009
vn -0 -1 0.0006
vn -0 -1 0.0004
vn -0 -1 0.0008
vn -0 -1 0.0006
vn -0 -1 0.0006
vn -0 -1 0.0004
vn -0 -1 0.0006
vn -0 -1 0.0006
vn -0 -1 0.0006
vn -0 -1 0.0006
vn -0 -1 0.0006
vn -0 -1 0.0006
vn -0 -1 0.0006
vn -0 -1 0.0007
vn -0 -1 0.0006
vn -0 -1 0.0008
vn -0 -1 0.0007
vn -0 -1 0.0006
vn -0 -1 0.0008
vn -0 -1 0.0005
vn -0 -1 0.0007
vn -0 -1 0.0008
vn -0 -1 0.0005
vn -0 -1 0.0008
vn -0 -1 0.0008
vn -0 -1 0.0007
vn -0 -1 0.0005
vn -0 -1 0.0008
vn -0 -1 0.0007
vn -0 -1 0.0008
vn -0 -1 0.0008
vn -0 -1 0.0008
vn -0 -1 0.0007
vn -0 -1 0.0008
vn -0 -1 0.0007
vn -0 -1 0.0008
vn -0 -1 0.0006
vn -0 -1 0.0007
vn -0 -1 0.0008
vn -0 -1 0.0006
vn -0 -1 0.0006
vn -0 -1 0.0007
vn -0 -1 0.0006
vn -0 -1 0.0006
vn -0 -1 0.0006
vn -0 -1 0.0006
vn -0.0001 -1 0.0006
vn -0 -1 0.0006
vn -0 -1 0.0006
vn -0 -1 0.0006
vn -0.0001 -1 0.0006
vn -0 -1 0.0008
vn -0 -1 0.0006
vn -0 -1 0.0006
vn -0 -1 0.0008
vn -0 -1 0.0009
vn -0 -1 0.0006
vn -0 -1 0.0005
vn -0 -1 0.0009
vn -0 -1 0.0008
vn -0 -1 0.0005
vn -0.0001 -1 0.0008
vn -0 -1 0.0009
vn -0 -1 0.0005
vn -0 -1 0.0007
vn -0.0001 -1 0.0008
vn -0 -1 0.0008
vn -0 -1 0.0007
vn -0 -1 0.0005
vn -0 -1 0.0008
vn -0 -1 0.0007
vn -0 -1 0.0007
vn -0 -1 0.0005
vn -0 -1 0.0007
vn -0 -1 0.0008
vn -0 -1 0.0005
vn -0 -1 0.0005
vn -0 -1 0.0007
vn -0 -1 0.0005
vn -0.0001 -1 0.001
vn -0 -1 0.0005
vn -0 -1 0.0006
vn -0.0001 -1 0.001
vn -0 -1 0.0005
vn -0 -1 0.0006
vn -0 -1 0.0007
vn -0.0001 -1 0.001
vn -0 -1 0.0006
vn -0 -1 0.0006
vn -0 -1 0.0007
vn -0 -1 0.0006
vn -0 -1 0.0007
vn -0 -1 0.0007
vn -0 -1 0.0006
vn -0 -1 0.0007
vn -0 -1 0.0006
vn -0 -1 0.0006
vn -0 -1 0.0007
vn -0 -1 0.0006
vn -0 -1 0.0007
vn -0 -1 0.0007
vn -0 -1 0.0006
vn -0 -1 0.0009
vn -0 -1 0.0007
vn -0 -1 0.0007
vn -0 -1 0.0007
vn -0 -1 0.0007
vn -0 -1 0.0009
vn -0 -1 0.0007
vn -0 -1 0.0007
vn -0 -1 0.0007
vn 0.0302 -0.0006 -0.9995
vn 0.1248 -0.0007 -0.9922
vn 0.1248 -0.0007 -0.9922
vn 0.0302 -0.0006 -0.9995
vn 0.1248 -0.0007 -0.9922
vn 0.2562 -0.0006 -0.9666
vn 0.2562 -0.0006 -0.9666
vn 0.1248 -0.0007 -0.9922
vn 0.2562 -0.0006 -0.9666
vn 0.3895 -0.0006 -0.921
vn 0.3895 -0.0006 -0.921
vn 0.2562 -0.0006 -0.9666
vn 0.3895 -0.0006 -0.921
vn 0.5182 -0.0006 -0.8552
vn 0.5182 -0.0006 -0.8552
vn 0.3895 -0.0006 -0.921
vn 0.5182 -0.0006 -0.8552
vn 0.6363 -0.0006 -0.7714
vn 0.6363 -0.0006 -0.7714
vn 0.5182 -0.0006 -0.8552
vn 0.6363 -0.0006 -0.7714
vn 0.7388 -0.0004 -0.6739
vn 0.7388 -0.0004 -0.6739
vn 0.6363 -0.0006 -0.7714
vn 0.7388 -0.0004 -0.6739
vn 0.8236 -0.0004 -0.5672
vn 0.8236 -0.0004 -0.5672
vn 0.7388 -0.0004 -0.6739
vn 0.8236 -0.0004 -0.5672
vn 0.8902 -0.0003 -0.4556
vn 0.8902 -0.0003 -0.4556
vn 0.8236 -0.0004 -0.5672
vn 0.8902 -0.0003 -0.4556
vn 0.9397 -0.0002 -0.3421
vn 0.9397 -0.0002 -0.3421
vn 0.8902 -0.0003 -0.4556
vn 0.9397 -0.0002 -0.3421
vn 0.9736 -0.0001 -0.2283
vn 0.9736 -0.0001 -0.2283
vn 0.9397 -0.0002 -0.3421
vn 0.9736 -0.0001 -0.2283
vn 0.9934 -0.0001 -0.1145
vn 0.9934 -0.0001 -0.1145
vn 0.9736 -0.0001 -0.2283
vn 0.9934 -0.0001 -0.1145
vn 1 -0 0.0037
vn 1 -0 0.0037
vn 0.9934 -0.0001 -0.1145
vn 1 -0 0.0037
vn 0.9917 0.0001 0.1289
vn 0.9916 0.0001 0.1292
vn 1 -0 0.0037
vn 0.9917 0.0001 0.1289
vn 0.9668 0.0002 0.2554
vn 0.9668 0.0002 0.2554
vn 0.9916 0.0001 0.1292
vn 0.9668 0.0002 0.2554
vn 0.9262 0.0003 0.3771
vn 0.9262 0.0003 0.3771
vn 0.9668 0.0002 0.2554
vn 0.9262 0.0003 0.3771
vn 0.8699 0.0004 0.4933
vn 0.8699 0.0004 0.4933
vn 0.9262 0.0003 0.3771
vn 0.8699 0.0004 0.4933
vn 0.7984 0.0004 0.6021
vn 0.7984 0.0004 0.6021
vn 0.8699 0.0004 0.4933
vn 0.7984 0.0004 0.6021
vn 0.7124 0.0005 0.7017
vn 0.7124 0.0005 0.7017
vn 0.7984 0.0004 0.6021
vn 0.7124 0.0005 0.7017
vn 0.6126 0.0006 0.7904
vn 0.6126 0.0006 0.7904
vn 0.7124 0.0005 0.7017
vn 0.6126 0.0006 0.7904
vn 0.501 0.0006 0.8654
vn 0.501 0.0006 0.8654
vn 0.6126 0.0006 0.7904
vn 0.501 0.0006 0.8654
vn 0.3803 0.0006 0.9249
vn 0.3803 0.0006 0.9249
vn 0.501 0.0006 0.8654
vn 0.3803 0.0006 0.9249
vn 0.2536 0.0006 0.9673
vn 0.2536 0.0006 0.9673
vn 0.3803 0.0006 0.9249
vn 0.2536 0.0006 0.9673
vn 0.1257 0.0005 0.9921
vn 0.1257 0.0005 0.9921
vn 0.2536 0.0006 0.9673
vn 0.1257 0.0005 0.9921
vn 0.0309 0.0005 0.9995
vn 0.0309 0.0005 0.9995
vn 0.1257 0.0005 0.9921
vn 0.0309 0.0005 0.9995
vn -0.7071 0.0004 0.7071
vn -0.7071 0.0004 0.7071
vn 0.0309 0.0005 0.9995
vn -0.7071 0.0004 0.7071
vn -0.7071 -0.0007 -0.7072
vn -0.7071 -0.0004 -0.7071
vn -0.7071 0.0004 0.7071
vn -0.7071 -0.0007 -0.7072
vn 0.0302 -0.0006 -0.9995
vn 0.0302 -0.0006 -0.9995
vn -0.7071 -0.0004 -0.7071
vn -0.0324 -0.0006 -0.9995
vn -0.1357 -0.0007 -0.9907
vn -0.1358 -0.0007 -0.9907
vn -0.0324 -0.0006 -0.9995
vn -0.1357 -0.0007 -0.9907
vn -0.2813 -0.0008 -0.9596
vn -0.2813 -0.0008 -0.9596
vn -0.1358 -0.0007 -0.9907
vn -0.2813 -0.0008 -0.9596
vn -0.4298 -0.0005 -0.9029
vn -0.4299 -0.0004 -0.9029
vn -0.2813 -0.0008 -0.9596
vn -0.4298 -0.0005 -0.9029
vn -0.5699 -0.0007 -0.8217
vn -0.5699 -0.0007 -0.8217
vn -0.4299 -0.0004 -0.9029
vn -0.5699 -0.0007 -0.8217
vn -0.6925 -0.0006 -0.7215
vn -0.6925 -0.0006 -0.7215
vn -0.5699 -0.0007 -0.8217
vn -0.6925 -0.0006 -0.7215
vn -0.7914 -0.0005 -0.6113
vn -0.7914 -0.0005 -0.6113
vn -0.6925 -0.0006 -0.7215
vn -0.7914 -0.0005 -0.6113
vn -0.8667 -0.0002 -0.4988
vn -0.8665 -0.0004 -0.4991
vn -0.7914 -0.0005 -0.6113
vn -0.8667 -0.0002 -0.4988
vn -0.9205 -0.0004 -0.3906
vn -0.9206 -0.0004 -0.3905
vn -0.8665 -0.0004 -0.4991
vn -0.9205 -0.0004 -0.3906
vn -0.9577 -0.0002 -0.2877
vn -0.9577 -0.0002 -0.2877
vn -0.9206 -0.0004 -0.3905
vn -0.9577 -0.0002 -0.2877
vn -0.9816 -0.0001 -0.1911
vn -0.9816 -0.0001 -0.1911
vn -0.9577 -0.0002 -0.2877
vn -0.9816 -0.0001 -0.1911
vn -0.9953 -0.0001 -0.0971
vn -0.9953 -0.0001 -0.097
vn -0.9816 -0.0001 -0.1911
vn -0.9953 -0.0001 -0.0971
vn -1 -0 0.0019
vn -1 -0 0.0019
vn -0.9953 -0.0001 -0.097
vn -1 -0 0.0019
vn -0.9939 0.0001 0.1106
vn -0.9939 0.0001 0.1106
vn -1 -0 0.0019
vn -0.9939 0.0001 0.1106
vn -0.9739 0.0001 0.2268
vn -0.974 0.0003 0.2265
vn -0.9939 0.0001 0.1106
vn -0.9739 0.0001 0.2268
vn -0.9375 0.0002 0.3479
vn -0.9375 0.0002 0.3479
vn -0.974 0.0003 0.2265
vn -0.9375 0.0002 0.3479
vn -0.8821 0.0004 0.4711
vn -0.8821 0.0004 0.4711
vn -0.9375 0.0002 0.3479
vn -0.8821 0.0004 0.4711
vn -0.8062 0.0004 0.5917
vn -0.8062 0.0004 0.5917
vn -0.8821 0.0004 0.4711
vn -0.8062 0.0004 0.5917
vn -0.7106 0.0004 0.7036
vn -0.7106 0.0004 0.7036
vn -0.8062 0.0004 0.5917
vn -0.7106 0.0004 0.7036
vn -0.5986 0.0005 0.801
vn -0.5986 0.0005 0.801
vn -0.7106 0.0004 0.7036
vn -0.5986 0.0005 0.801
vn -0.4759 0.0006 0.8795
vn -0.4759 0.0006 0.8795
vn -0.5986 0.0005 0.801
vn -0.4759 0.0006 0.8795
vn -0.3492 0.0007 0.937
vn -0.3492 0.0007 0.937
vn -0.4759 0.0006 0.8795
vn -0.3492 0.0007 0.937
vn -0.225 0.0008 0.9744
vn -0.225 0.0008 0.9744
vn -0.3492 0.0007 0.937
vn -0.225 0.0008 0.9744
vn -0.108 0.0007 0.9942
vn -0.108 0.0007 0.9942
vn -0.225 0.0008 0.9744
vn -0.108 0.0007 0.9942
vn -0.0258 0.0006 0.9997
vn -0.0258 0.0006 0.9997
vn -0.108 0.0007 0.9942
vn -0.0258 0.0006 0.9997
vn 0.7071 0.0004 0.7071
vn 0.7071 0.0004 0.7071
vn -0.0258 0.0006 0.9997
vn 0.7071 0.0004 0.7071
vn 0.7071 -0.0004 -0.7071
vn 0.7071 -0.0007 -0.7071
vn 0.7071 0.0004 0.7071
vn 0.7071 -0.0004 -0.7071
vn -0.0324 -0.0006 -0.9995
vn -0.0324 -0.0006 -0.9995
vn 0.7071 -0.0007 -0.7071
vt 0.471698 1
vt 0.981132 1
vt 0.490566 1
vt 0.981132 1
vt 0 1
vt 0.490566 1
vt 0.981132 1
vt 0.018868 1
vt 0 1
vt 0.981132 1
vt 0.037736 1
vt 0.018868 1
vt 0.981132 1
vt 0.056604 1
vt 0.037736 1
vt 0.981132 1
vt 0.075472 1
vt 0.056604 1
vt 0.981132 1
vt 0.09434 1
vt 0.075472 1
vt 0.981132 1
vt 0.962264 1
vt 0.09434 1
vt 0.962264 1
vt 0.943396 1
vt 0.09434 1
vt 0.943396 1
vt 0.113208 1
vt 0.09434 1
vt 0.471698 1
vt 1 1
vt 0.981132 1
vt 0.924528 1
vt 0.113208 1
vt 0.943396 1
vt 0.90566 1
vt 0.113208 1
vt 0.924528 1
vt 0.886792 1
vt 0.113208 1
vt 0.90566 1
vt 0.886792 1
vt 0.132075 1
vt 0.113208 1
vt 0.867925 1
vt 0.132075 1
vt 0.886792 1
vt 0.849057 1
vt 0.132075 1
vt 0.867925 1
vt 0.849057 1
vt 0.150943 1
vt 0.132075 1
vt 0.830189 1
vt 0.150943 1
vt 0.849057 1
vt 0.830189 1
vt 0.169811 1
vt 0.150943 1
vt 0.811321 1
vt 0.169811 1
vt 0.830189 1
vt 0.792453 1
vt 0.169811 1
vt 0.811321 1
vt 0.792453 1
vt 0.188679 1
vt 0.169811 1
vt 0.773585 1
vt 0.188679 1
vt 0.792453 1
vt 0.773585 1
vt 0.207547 1
vt 0.188679 1
vt 0.754717 1
vt 0.207547 1
vt 0.773585 1
vt 0.754717 1
vt 0.226415 1
vt 0.207547 1
vt 0.735849 1
vt 0.226415 1
vt 0.754717 1
vt 0.716981 1
vt 0.226415 1
vt 0.735849 1
vt 0.716981 1
vt 0.245283 1
vt 0.226415 1
vt 0.698113 1
vt 0.245283 1
vt 0.716981 1
vt 0.698113 1
vt 0.264151 1
vt 0.245283 1
vt 0.679245 1
vt 0.264151 1
vt 0.698113 1
vt 0.660377 1
vt 0.264151 1
vt 0.679245 1
vt 0.660377 1
vt 0.283019 1
vt 0.264151 1
vt 0.641509 1
vt 0.283019 1
vt 0.660377 1
vt 0.641509 1
vt 0.301887 1
vt 0.283019 1
vt 0.622642 1
vt 0.301887 1
vt 0.641509 1
vt 0.603774 1
vt 0.301887 1
vt 0.622642 1
vt 0.603774 1
vt 0.320755 1
vt 0.301887 1
vt 0.584906 1
vt 0.320755 1
vt 0.603774 1
vt 0.584906 1
vt 0.339623 1
vt 0.320755 1
vt 0.566038 1
vt 0.339623 1
vt 0.584906 1
vt 0.54717 1
vt 0.339623 1
vt 0.566038 1
vt 0.54717 1
vt 0.358491 1
vt 0.339623 1
vt 0.528302 1
vt 0.358491 1
vt 0.54717 1
vt 0.509434 1
vt 0.358491 1
vt 0.528302 1
vt 0.471698 1
vt 0.509434 1
vt 1 1
vt 0.471698 1
vt 0.358491 1
vt 0.509434 1
vt 0.471698 1
vt 0.377358 1
vt 0.358491 1
vt 0.471698 1
vt 0.396226 1
vt 0.377358 1
vt 0.471698 1
vt 0.415094 1
vt 0.396226 1
vt 0.471698 1
vt 0.433962 1
vt 0.415094 1
vt 0.471698 1
vt 0.45283 1
vt 0.433962 1
vt 0.981132 1
vt 0.471698 1
vt 0.490566 1
vt 0 1
vt 0.981132 1
vt 0.490566 1
vt 0.018868 1
vt 0.981132 1
vt 0 1
vt 0.037736 1
vt 0.981132 1
vt 0.018868 1
vt 0.056604 1
vt 0.981132 1
vt 0.037736 1
vt 0.075472 1
vt 0.981132 1
vt 0.056604 1
vt 0.09434 1
vt 0.981132 1
vt 0.075472 1
vt 0.962264 1
vt 0.981132 1
vt 0.09434 1
vt 0.943396 1
vt 0.962264 1
vt 0.09434 1
vt 0.113208 1
vt 0.943396 1
vt 0.09434 1
vt 1 1
vt 0.471698 1
vt 0.981132 1
vt 0.113208 1
vt 0.924528 1
vt 0.943396 1
vt 0.113208 1
vt 0.90566 1
vt 0.924528 1
vt 0.113208 1
vt 0.886792 1
vt 0.90566 1
vt 0.132075 1
vt 0.886792 1
vt 0.113208 1
vt 0.132075 1
vt 0.867925 1
vt 0.886792 1
vt 0.132075 1
vt 0.849057 1
vt 0.867925 1
vt 0.150943 1
vt 0.849057 1
vt 0.132075 1
vt 0.150943 1
vt 0.830189 1
vt 0.849057 1
vt 0.169811 1
vt 0.830189 1
vt 0.150943 1
vt 0.169811 1
vt 0.811321 1
vt 0.830189 1
vt 0.169811 1
vt 0.792453 1
vt 0.811321 1
vt 0.188679 1
vt 0.792453 1
vt 0.169811 1
vt 0.188679 1
vt 0.773585 1
vt 0.792453 1
vt 0.207547 1
vt 0.773585 1
vt 0.188679 1
vt 0.207547 1
vt 0.754717 1
vt 0.773585 1
vt 0.226415 1
vt 0.754717 1
vt 0.207547 1
vt 0.226415 1
vt 0.735849 1
vt 0.754717 1
vt 0.226415 1
vt 0.716981 1
vt 0.735849 1
vt 0.245283 1
vt 0.716981 1
vt 0.226415 1
vt 0.245283 1
vt 0.698113 1
vt 0.716981 1
vt 0.264151 1
vt 0.698113 1
vt 0.245283 1
vt 0.264151 1
vt 0.679245 1
vt 0.698113 1
vt 0.264151 1
vt 0.660377 1
vt 0.679245 1
vt 0.283019 1
vt 0.660377 1
vt 0.264151 1
vt 0.283019 1
vt 0.641509 1
vt 0.660377 1
vt 0.301887 1
vt 0.641509 1
vt 0.283019 1
vt 0.301887 1
vt 0.622642 1
vt 0.641509 1
vt 0.301887 1
vt 0.603774 1
vt 0.622642 1
vt 0.320755 1
vt 0.603774 1
vt 0.301887 1
vt 0.320755 1
vt 0.584906 1
vt 0.603774 1
vt 0.339623 1
vt 0.584906 1
vt 0.320755 1
vt 0.339623 1
vt 0.566038 1
vt 0.584906 1
vt 0.339623 1
vt 0.54717 1
vt 0.566038 1
vt 0.358491 1
vt 0.54717 1
vt 0.339623 1
vt 0.358491 1
vt 0.528302 1
vt 0.54717 1
vt 0.358491 1
vt 0.509434 1
vt 0.528302 1
vt 0.509434 1
vt 0.471698 1
vt 1 1
vt 0.358491 1
vt 0.471698 1
vt 0.509434 1
vt 0.377358 1
vt 0.471698 1
vt 0.358491 1
vt 0.396226 1
vt 0.471698 1
vt 0.377358 1
vt 0.415094 1
vt 0.471698 1
vt 0.396226 1
vt 0.433962 1
vt 0.471698 1
vt 0.415094 1
vt 0.45283 1
vt 0.471698 1
vt 0.433962 1
vt 0 0
vt 0.037037 0
vt 0.037037 1
vt 0 1
vt 0.037037 0
vt 0.074074 0
vt 0.074074 1
vt 0.037037 1
vt 0.074074 0
vt 0.111111 0
vt 0.111111 1
vt 0.074074 1
vt 0.111111 0
vt 0.148148 0
vt 0.148148 1
vt 0.111111 1
vt 0.148148 0
vt 0.185185 0
vt 0.185185 1
vt 0.148148 1
vt 0.185185 0
vt 0.222222 0
vt 0.222222 1
vt 0.185185 1
vt 0.222222 0
vt 0.259259 0
vt 0.259259 1
vt 0.222222 1
vt 0.259259 0
vt 0.296296 0
vt 0.296296 1
vt 0.259259 1
vt 0.296296 0
vt 0.333333 0
vt 0.333333 1
vt 0.296296 1
vt 0.333333 0
vt 0.37037 0
vt 0.37037 1
vt 0.333333 1
vt 0.37037 0
vt 0.407407 0
vt 0.407407 1
vt 0.37037 1
vt 0.407407 0
vt 0.444444 0
vt 0.444444 1
vt 0.407407 1
vt 0.444444 0
vt 0.481481 0
vt 0.481481 1
vt 0.444444 1
vt 0.481481 0
vt 0.518519 0
vt 0.518519 1
vt 0.481481 1
vt 0.518519 0
vt 0.555556 0
vt 0.555556 1
vt 0.518519 1
vt 0.555556 0
vt 0.592593 0
vt 0.592593 1
vt 0.555556 1
vt 0.592593 0
vt 0.62963 0
vt 0.62963 1
vt 0.592593 1
vt 0.62963 0
vt 0.666667 0
vt 0.666667 1
vt 0.62963 1
vt 0.666667 0
vt 0.703704 0
vt 0.703704 1
vt 0.666667 1
vt 0.703704 0
vt 0.740741 0
vt 0.740741 1
vt 0.703704 1
vt 0.740741 0
vt 0.777778 0
vt 0.777778 1
vt 0.740741 1
vt 0.777778 0
vt 0.814815 0
vt 0.814815 1
vt 0.777778 1
vt 0.814815 0
vt 0.851852 0
vt 0.851852 1
vt 0.814815 1
vt 0.851852 0
vt 0.888889 0
vt 0.888889 1
vt 0.851852 1
vt 0.888889 0
vt 0.925926 0
vt 0.925926 1
vt 0.888889 1
vt 0.925926 0
vt 0.962963 0
vt 0.962963 1
vt 0.925926 1
vt 0.962963 0
vt 1 0
vt 1 1
vt 0.962963 1
vt 0 0
vt 0.037037 0
vt 0.037037 1
vt 0 1
vt 0.037037 0
vt 0.074074 0
vt 0.074074 1
vt 0.037037 1
vt 0.074074 0
vt 0.111111 0
vt 0.111111 1
vt 0.074074 1
vt 0.111111 0
vt 0.148148 0
vt 0.148148 1
vt 0.111111 1
vt 0.148148 0
vt 0.185185 0
vt 0.185185 1
vt 0.148148 1
vt 0.185185 0
vt 0.222222 0
vt 0.222222 1
vt 0.185185 1
vt 0.222222 0
vt 0.259259 0
vt 0.259259 1
vt 0.222222 1
vt 0.259259 0
vt 0.296296 0
vt 0.296296 1
vt 0.259259 1
vt 0.296296 0
vt 0.333333 0
vt 0.333333 1
vt 0.296296 1
vt 0.333333 0
vt 0.37037 0
vt 0.37037 1
vt 0.333333 1
vt 0.37037 0
vt 0.407407 0
vt 0.407407 1
vt 0.37037 1
vt 0.407407 0
vt 0.444444 0
vt 0.444444 1
vt 0.407407 1
vt 0.444444 0
vt 0.481481 0
vt 0.481481 1
vt 0.444444 1
vt 0.481481 0
vt 0.518519 0
vt 0.518519 1
vt 0.481481 1
vt 0.518519 0
vt 0.555556 0
vt 0.555556 1
vt 0.518519 1
vt 0.555556 0
vt 0.592593 0
vt 0.592593 1
vt 0.555556 1
vt 0.592593 0
vt 0.62963 0
vt 0.62963 1
vt 0.592593 1
vt 0.62963 0
vt 0.666667 0
vt 0.666667 1
vt 0.62963 1
vt 0.666667 0
vt 0.703704 0
vt 0.703704 1
vt 0.666667 1
vt 0.703704 0
vt 0.740741 0
vt 0.740741 1
vt 0.703704 1
vt 0.740741 0
vt 0.777778 0
vt 0.777778 1
vt 0.740741 1
vt 0.777778 0
vt 0.814815 0
vt 0.814815 1
vt 0.777778 1
vt 0.814815 0
vt 0.851852 0
vt 0.851852 1
vt 0.814815 1
vt 0.851852 0
vt 0.888889 0
vt 0.888889 1
vt 0.851852 1
vt 0.888889 0
vt 0.925926 0
vt 0.925926 1
vt 0.888889 1
vt 0.925926 0
vt 0.962963 0
vt 0.962963 1
vt 0.925926 1
vt 0.962963 0
vt 1 0
vt 1 1
vt 0.962963 1
s off
f 1/1/1 2/2/2 3/3/3
f 4/4/4 5/5/5 6/6/6
f 7/7/7 8/8/8 9/9/9
f 10/10/10 11/11/11 12/12/12
f 13/13/13 14/14/14 15/15/15
f 16/16/16 17/17/17 18/18/18
f 19/19/19 20/20/20 21/21/21
f 22/22/22 23/23/23 24/24/24
f 25/25/25 26/26/26 27/27/27
f 28/28/28 29/29/29 30/30/30
f 31/31/31 32/32/32 33/33/33
f 34/34/34 35/35/35 36/36/36
f 37/37/37 38/38/38 39/39/39
f 40/40/40 41/41/41 42/42/42
f 43/43/43 44/44/44 45/45/45
f 46/46/46 47/47/47 48/48/48
f 49/49/49 50/50/50 51/51/51
f 52/52/52 53/53/53 54/54/54
f 55/55/55 56/56/56 57/57/57
f 58/58/58 59/59/59 60/60/60
f 61/61/61 62/62/62 63/63/63
f 64/64/64 65/65/65 66/66/66
f 67/67/67 68/68/68 69/69/69
f 70/70/70 71/71/71 72/72/72
f 73/73/73 74/74/74 75/75/75
f 76/76/76 77/77/77 78/78/78
f 79/79/79 80/80/80 81/81/81
f 82/82/82 83/83/83 84/84/84
f 85/85/85 86/86/86 87/87/87
f 88/88/88 89/89/89 90/90/90
f 91/91/91 92/92/92 93/93/93
f 94/94/94 95/95/95 96/96/96
f 97/97/97 98/98/98 99/99/99
f 100/100/100 101/101/101 102/102/102
f 103/103/103 104/104/104 105/105/105
f 106/106/106 107/107/107 108/108/108
f 109/109/109 110/110/110 111/111/111
f 112/112/112 113/113/113 114/114/114
f 115/115/115 116/116/116 117/117/117
f 118/118/118 119/119/119 120/120/120
f 121/121/121 122/122/122 123/123/123
f 124/124/124 125/125/125 126/126/126
f 127/127/127 128/128/128 129/129/129
f 130/130/130 131/131/131 132/132/132
f 133/133/133 134/134/134 135/135/135
f 136/136/136 137/137/137 138/138/138
f 139/139/139 140/140/140 141/141/141
f 142/142/142 143/143/143 144/144/144
f 145/145/145 146/146/146 147/147/147
f 148/148/148 149/149/149 150/150/150
f 151/151/151 152/152/152 153/153/153
f 154/154/154 155/155/155 156/156/156
f 157/157/157 158/158/158 159/159/159
f 160/160/160 161/161/161 162/162/162
f 163/163/163 164/164/164 165/165/165
f 166/166/166 167/167/167 168/168/168
f 169/169/169 170/170/170 171/171/171
f 172/172/172 173/173/173 174/174/174
f 175/175/175 176/176/176 177/177/177
f 178/178/178 179/179/179 180/180/180
f 181/181/181 182/182/182 183/183/183
f 184/184/184 185/185/185 186/186/186
f 187/187/187 188/188/188 189/189/189
f 190/190/190 191/191/191 192/192/192
f 193/193/193 194/194/194 195/195/195
f 196/196/196 197/197/197 198/198/198
f 199/199/199 200/200/200 201/201/201
f 202/202/202 203/203/203 204/204/204
f 205/205/205 206/206/206 207/207/207
f 208/208/208 209/209/209 210/210/210
f 211/211/211 212/212/212 213/213/213
f 214/214/214 215/215/215 216/216/216
f 217/217/217 218/218/218 219/219/219
f 220/220/220 221/221/221 222/222/222
f 223/223/223 224/224/224 225/225/225
f 226/226/226 227/227/227 228/228/228
f 229/229/229 230/230/230 231/231/231
f 232/232/232 233/233/233 234/234/234
f 235/235/235 236/236/236 237/237/237
f 238/238/238 239/239/239 240/240/240
f 241/241/241 242/242/242 243/243/243
f 244/244/244 245/245/245 246/246/246
f 247/247/247 248/248/248 249/249/249
f 250/250/250 251/251/251 252/252/252
f 253/253/253 254/254/254 255/255/255
f 256/256/256 257/257/257 258/258/258
f 259/259/259 260/260/260 261/261/261
f 262/262/262 263/263/263 264/264/264
f 265/265/265 266/266/266 267/267/267
f 268/268/268 269/269/269 270/270/270
f 271/271/271 272/272/272 273/273/273
f 274/274/274 275/275/275 276/276/276
f 277/277/277 278/278/278 279/279/279
f 280/280/280 281/281/281 282/282/282
f 283/283/283 284/284/284 285/285/285
f 286/286/286 287/287/287 288/288/288
f 289/289/289 290/290/290 291/291/291
f 292/292/292 293/293/293 294/294/294
f 295/295/295 296/296/296 297/297/297
f 298/298/298 299/299/299 300/300/300
f 301/301/301 302/302/302 303/303/303
f 304/304/304 305/305/305 306/306/306
f 307/307/307 308/308/308 309/309/309
f 310/310/310 311/311/311 312/312/312
f 313/313/313 314/314/314 315/315/315
f 316/316/316 317/317/317 318/318/318
f 319/319/319 320/320/320 321/321/321
f 322/322/322 323/323/323 324/324/324
f 325/325/325 326/326/326 327/327/327
f 325/325/325 327/327/327 328/328/328
f 329/329/329 330/330/330 331/331/331
f 329/329/329 331/331/331 332/332/332
f 333/333/333 334/334/334 335/335/335
f 333/333/333 335/335/335 336/336/336
f 337/337/337 338/338/338 339/339/339
f 337/337/337 339/339/339 340/340/340
f 341/341/341 342/342/342 343/343/343
f 341/341/341 343/343/343 344/344/344
f 345/345/345 346/346/346 347/347/347
f 345/345/345 347/347/347 348/348/348
f 349/349/349 350/350/350 351/351/351
f 349/349/349 351/351/351 352/352/352
f 353/353/353 354/354/354 355/355/355
f 353/353/353 355/355/355 356/356/356
f 357/357/357 358/358/358 359/359/359
f 357/357/357 359/359/359 360/360/360
f 361/361/361 362/362/362 363/363/363
f 361/361/361 363/363/363 364/364/364
f 365/365/365 366/366/366 367/367/367
f 365/365/365 367/367/367 368/368/368
f 369/369/369 370/370/370 371/371/371
f 369/369/369 371/371/371 372/372/372
f 373/373/373 374/374/374 375/375/375
f 373/373/373 375/375/375 376/376/376
f 377/377/377 378/378/378 379/379/379
f 377/377/377 379/379/379 380/380/380
f 381/381/381 382/382/382 383/383/383
f 381/381/381 383/383/383 384/384/384
f 385/385/385 386/386/386 387/387/387
f 385/385/385 387/387/387 388/388/388
f 389/389/389 390/390/390 391/391/391
f 389/389/389 391/391/391 392/392/392
f 393/393/393 394/394/394 395/395/395
f 393/393/393 395/395/395 396/396/396
f 397/397/397 398/398/398 399/399/399
f 397/397/397 399/399/399 400/400/400
f 401/401/401 402/402/402 403/403/403
f 401/401/401 403/403/403 404/404/404
f 405/405/405 406/406/406 407/407/407
f 405/405/405 407/407/407 408/408/408
f 409/409/409 410/410/410 411/411/411
f 409/409/409 411/411/411 412/412/412
f 413/413/413 414/414/414 415/415/415
f 413/413/413 415/415/415 416/416/416
f 417/417/417 418/418/418 419/419/419
f 417/417/417 419/419/419 420/420/420
f 421/421/421 422/422/422 423/423/423
f 421/421/421 423/423/423 424/424/424
f 425/425/425 426/426/426 427/427/427
f 425/425/425 427/427/427 428/428/428
f 429/429/429 430/430/430 431/431/431
f 429/429/429 431/431/431 432/432/432
f 433/433/433 434/434/434 435/435/435
f 433/433/433 435/435/435 436/436/436
f 437/437/437 438/438/438 439/439/439
f 437/437/437 439/439/439 440/440/440
f 441/441/441 442/442/442 443/443/443
f 441/441/441 443/443/443 444/444/444
f 445/445/445 446/446/446 447/447/447
f 445/445/445 447/447/447 448/448/448
f 449/449/449 450/450/450 451/451/451
f 449/449/449 451/451/451 452/452/452
f 453/453/453 454/454/454 455/455/455
f 453/453/453 455/455/455 456/456/456
f 457/457/457 458/458/458 459/459/459
f 457/457/457 459/459/459 460/460/460
f 461/461/461 462/462/462 463/463/463
f 461/461/461 463/463/463 464/464/464
f 465/465/465 466/466/466 467/467/467
f 465/465/465 467/467/467 468/468/468
f 469/469/469 470/470/470 471/471/471
f 469/469/469 471/471/471 472/472/472
f 473/473/473 474/474/474 475/475/475
f 473/473/473 475/475/475 476/476/476
f 477/477/477 478/478/478 479/479/479
f 477/477/477 479/479/479 480/480/480
f 481/481/481 482/482/482 483/483/483
f 481/481/481 483/483/483 484/484/484
f 485/485/485 486/486/486 487/487/487
f 485/485/485 487/487/487 488/488/488
f 489/489/489 490/490/490 491/491/491
f 489/489/489 491/491/491 492/492/492
f 493/493/493 494/494/494 495/495/495
f 493/493/493 495/495/495 496/496/496
f 497/497/497 498/498/498 499/499/499
f 497/497/497 499/499/499 500/500/500
f 501/501/501 502/502/502 503/503/503
f 501/501/501 503/503/503 504/504/504
f 505/505/505 506/506/506 507/507/507
f 505/505/505 507/507/507 508/508/508
f 509/509/509 510/510/510 511/511/511
f 509/509/509 511/511/511 512/512/512
f 513/513/513 514/514/514 515/515/515
f 513/513/513 515/515/515 516/516/516
f 517/517/517 518/518/518 519/519/519
f 517/517/517 519/519/519 520/520/520
f 521/521/521 522/522/522 523/523/523
f 521/521/521 523/523/523 524/524/524
f 525/525/525 526/526/526 527/527/527
f 525/525/525 527/527/527 528/528/528
f 529/529/529 530/530/530 531/531/531
f 529/529/529 531/531/531 532/532/532
f 533/533/533 534/534/534 535/535/535
f 533/533/533 535/535/535 536/536/536
f 537/537/537 538/538/538 539/539/539
f 537/537/537 539/539/539 540/540/540
