v -0.215577 0.024087 0.019265
v -0.211168 0.024087 0.019087
v -0.212391 0.024087 0.019069
v -0.215577 0.024087 0.019265
v -0.20999 0.024087 0.019142
v -0.211168 0.024087 0.019087
v -0.215577 0.024087 0.019265
v -0.208843 0.024087 0.01924
v -0.20999 0.024087 0.019142
v -0.215577 0.024087 0.019265
v -0.20771 0.024087 0.019384
v -0.208843 0.024087 0.01924
v -0.21861 0.024087 0.019837
v -0.20771 0.024087 0.019384
v -0.215577 0.024087 0.019265
v -0.21861 0.024087 0.019837
v -0.206574 0.024087 0.019579
v -0.20771 0.024087 0.019384
v -0.21861 0.024087 0.019837
v -0.205419 0.024087 0.019828
v -0.206574 0.024087 0.019579
v -0.21861 0.024087 0.019837
v -0.204228 0.024087 0.020136
v -0.205419 0.024087 0.019828
v -0.221464 0.024088 0.020762
v -0.204228 0.024087 0.020136
v -0.21861 0.024087 0.019837
v -0.221464 0.024088 0.020762
v -0.202987 0.024088 0.020507
v -0.204228 0.024087 0.020136
v -0.221464 0.024088 0.020762
v -0.201677 0.024088 0.020944
v -0.202987 0.024088 0.020507
v -0.224119 0.024089 0.022018
v -0.201677 0.024088 0.020944
v -0.221464 0.024088 0.020762
v -0.224119 0.024089 0.022018
v -0.200283 0.024088 0.021453
v -0.201677 0.024088 0.020944
v -0.224119 0.024089 0.022018
v -0.198789 0.024089 0.022037
v -0.200283 0.024088 0.021453
v -0.226548 0.02409 0.023582
v -0.198789 0.024089 0.022037
v -0.224119 0.024089 0.022018
v -0.226548 0.02409 0.023582
v -0.197179 0.024089 0.0227
v -0.198789 0.024089 0.022037
v -0.226548 0.02409 0.023582
v -0.209945 0.024091 0.024823
v -0.197179 0.024089 0.0227
v -0.209945 0.024091 0.024823
v -0.208658 0.024091 0.024971
v -0.197179 0.024089 0.0227
v -0.208658 0.024091 0.024971
v -0.207371 0.024091 0.025179
v -0.197179 0.024089 0.0227
v -0.207371 0.024091 0.025179
v -0.206085 0.024091 0.025444
v -0.197179 0.024089 0.0227
v -0.206085 0.024091 0.025444
v -0.2048 0.024091 0.025768
v -0.197179 0.024089 0.0227
v -0.2048 0.024091 0.025768
v -0.203519 0.024092 0.026148
v -0.197179 0.024089 0.0227
v -0.203519 0.024092 0.026148
v -0.20224 0.024092 0.026586
v -0.197179 0.024089 0.0227
v -0.20224 0.024092 0.026586
v -0.200966 0.024092 0.02708
v -0.197179 0.024089 0.0227
v -0.200966 0.024092 0.02708
v -0.199697 0.024093 0.027631
v -0.197179 0.024089 0.0227
v -0.199697 0.024093 0.027631
v -0.198434 0.024093 0.028237
v -0.197179 0.024089 0.0227
v -0.198434 0.024093 0.028237
v -0.197179 0.024093 0.028898
v -0.197179 0.024089 0.0227
v -0.22873 0.024091 0.025431
v -0.212516 0.024091 0.024703
v -0.226548 0.02409 0.023582
v -0.212516 0.024091 0.024703
v -0.211232 0.024091 0.024733
v -0.226548 0.02409 0.023582
v -0.211232 0.024091 0.024733
v -0.209945 0.024091 0.024823
v -0.226548 0.02409 0.023582
v -0.22873 0.024091 0.025431
v -0.214786 0.024091 0.024848
v -0.212516 0.024091 0.024703
v -0.22873 0.024091 0.025431
v -0.216953 0.024091 0.02527
v -0.214786 0.024091 0.024848
v -0.22873 0.024091 0.025431
v -0.218998 0.024091 0.025953
v -0.216953 0.024091 0.02527
v -0.230641 0.024093 0.027542
v -0.218998 0.024091 0.025953
v -0.22873 0.024091 0.025431
v -0.230641 0.024093 0.027542
v -0.220903 0.024092 0.026881
v -0.218998 0.024091 0.025953
v -0.230641 0.024093 0.027542
v -0.22265 0.024093 0.028035
v -0.220903 0.024092 0.026881
v -0.232257 0.024094 0.029892
v -0.22265 0.024093 0.028035
v -0.230641 0.024093 0.027542
v -0.232257 0.024094 0.029892
v -0.224223 0.024094 0.029399
v -0.22265 0.024093 0.028035
v -0.232257 0.024094 0.029892
v -0.225602 0.024095 0.030956
v -0.224223 0.024094 0.029399
v -0.233555 0.024096 0.03246
v -0.225602 0.024095 0.030956
v -0.232257 0.024094 0.029892
v -0.233555 0.024096 0.03246
v -0.226771 0.024096 0.032689
v -0.225602 0.024095 0.030956
v -0.234511 0.024098 0.03522
v -0.226771 0.024096 0.032689
v -0.233555 0.024096 0.03246
v -0.234511 0.024098 0.03522
v -0.227711 0.024097 0.034581
v -0.226771 0.024096 0.032689
v -0.234511 0.024098 0.03522
v -0.228404 0.024099 0.036615
v -0.227711 0.024097 0.034581
v -0.235101 0.0241 0.038151
v -0.228404 0.024099 0.036615
v -0.234511 0.024098 0.03522
v -0.235101 0.0241 0.038151
v -0.228834 0.0241 0.038775
v -0.228404 0.024099 0.036615
v -0.235304 0.024102 0.04123
v -0.228834 0.0241 0.038775
v -0.235101 0.0241 0.038151
v -0.235304 0.024102 0.04123
v -0.228981 0.024102 0.041043
v -0.228834 0.0241 0.038775
v -0.235304 0.024102 0.04123
v -0.228834 0.024104 0.043361
v -0.228981 0.024102 0.041043
v -0.235106 0.024104 0.044287
v -0.228834 0.024104 0.043361
v -0.235304 0.024102 0.04123
v -0.210638 0.024106 0.046802
v -0.196302 0.024102 0.041294
v -0.210638 0.024102 0.041294
v -0.210638 0.024106 0.046802
v -0.202437 0.024106 0.046802
v -0.196302 0.024102 0.041294
v -0.202437 0.024106 0.046802
v -0.196302 0.024115 0.059386
v -0.196302 0.024102 0.041294
v -0.235106 0.024104 0.044287
v -0.228405 0.024105 0.045548
v -0.228834 0.024104 0.043361
v -0.234529 0.024106 0.047183
v -0.228405 0.024105 0.045548
v -0.235106 0.024104 0.044287
v -0.234529 0.024106 0.047183
v -0.227707 0.024106 0.047591
v -0.228405 0.024105 0.045548
v -0.202437 0.024112 0.055567
v -0.196302 0.024115 0.059386
v -0.202437 0.024106 0.046802
v -0.233593 0.024108 0.049897
v -0.227707 0.024106 0.047591
v -0.234529 0.024106 0.047183
v -0.233593 0.024108 0.049897
v -0.226755 0.024108 0.049475
v -0.227707 0.024106 0.047591
v -0.233593 0.024108 0.049897
v -0.225563 0.024109 0.05119
v -0.226755 0.024108 0.049475
v -0.232319 0.02411 0.052411
v -0.225563 0.024109 0.05119
v -0.233593 0.024108 0.049897
v -0.232319 0.02411 0.052411
v -0.224145 0.02411 0.052719
v -0.225563 0.024109 0.05119
v -0.230731 0.024111 0.054704
v -0.224145 0.02411 0.052719
v -0.232319 0.02411 0.052411
v -0.230731 0.024111 0.054704
v -0.222515 0.024111 0.054049
v -0.224145 0.02411 0.052719
v -0.230731 0.024111 0.054704
v -0.220689 0.024112 0.055168
v -0.222515 0.024111 0.054049
v -0.228848 0.024113 0.056756
v -0.220689 0.024112 0.055168
v -0.230731 0.024111 0.054704
v -0.228848 0.024113 0.056756
v -0.218681 0.024112 0.056061
v -0.220689 0.024112 0.055168
v -0.203174 0.024112 0.055797
v -0.196302 0.024115 0.059386
v -0.202437 0.024112 0.055567
v -0.203915 0.024112 0.056018
v -0.196302 0.024115 0.059386
v -0.203174 0.024112 0.055797
v -0.20466 0.024112 0.056227
v -0.196302 0.024115 0.059386
v -0.203915 0.024112 0.056018
v -0.228848 0.024113 0.056756
v -0.216504 0.024113 0.056717
v -0.218681 0.024112 0.056061
v -0.20541 0.024113 0.056423
v -0.196302 0.024115 0.059386
v -0.20466 0.024112 0.056227
v -0.206166 0.024113 0.056602
v -0.196302 0.024115 0.059386
v -0.20541 0.024113 0.056423
v -0.206929 0.024113 0.056764
v -0.196302 0.024115 0.059386
v -0.206166 0.024113 0.056602
v -0.228848 0.024113 0.056756
v -0.214173 0.024113 0.057119
v -0.216504 0.024113 0.056717
v -0.226692 0.024114 0.058548
v -0.214173 0.024113 0.057119
v -0.228848 0.024113 0.056756
v -0.2077 0.024113 0.056906
v -0.196302 0.024115 0.059386
v -0.206929 0.024113 0.056764
v -0.208479 0.024113 0.057028
v -0.196302 0.024115 0.059386
v -0.2077 0.024113 0.056906
v -0.209269 0.024113 0.057125
v -0.196302 0.024115 0.059386
v -0.208479 0.024113 0.057028
v -0.226692 0.024114 0.058548
v -0.211702 0.024113 0.057257
v -0.214173 0.024113 0.057119
v -0.210068 0.024113 0.057197
v -0.196302 0.024115 0.059386
v -0.209269 0.024113 0.057125
v -0.210879 0.024113 0.057241
v -0.196302 0.024115 0.059386
v -0.210068 0.024113 0.057197
v -0.211702 0.024113 0.057257
v -0.196302 0.024115 0.059386
v -0.210879 0.024113 0.057241
v -0.226692 0.024114 0.058548
v -0.196302 0.024115 0.059386
v -0.211702 0.024113 0.057257
v -0.224285 0.024115 0.060058
v -0.196302 0.024115 0.059386
v -0.226692 0.024114 0.058548
v -0.224285 0.024115 0.060058
v -0.197706 0.024115 0.059981
v -0.196302 0.024115 0.059386
v -0.224285 0.024115 0.060058
v -0.199073 0.024115 0.060514
v -0.197706 0.024115 0.059981
v -0.221649 0.024116 0.061267
v -0.199073 0.024115 0.060514
v -0.224285 0.024115 0.060058
v -0.221649 0.024116 0.061267
v -0.200412 0.024116 0.060989
v -0.199073 0.024115 0.060514
v -0.221649 0.024116 0.061267
v -0.201732 0.024116 0.061407
v -0.200412 0.024116 0.060989
v -0.218805 0.024117 0.062156
v -0.201732 0.024116 0.061407
v -0.221649 0.024116 0.061267
v -0.218805 0.024117 0.062156
v -0.203041 0.024116 0.061769
v -0.201732 0.024116 0.061407
v -0.218805 0.024117 0.062156
v -0.204347 0.024117 0.062077
v -0.203041 0.024116 0.061769
v -0.218805 0.024117 0.062156
v -0.205657 0.024117 0.062333
v -0.204347 0.024117 0.062077
v -0.215774 0.024117 0.062704
v -0.205657 0.024117 0.062333
v -0.218805 0.024117 0.062156
v -0.215774 0.024117 0.062704
v -0.206982 0.024117 0.062539
v -0.205657 0.024117 0.062333
v -0.215774 0.024117 0.062704
v -0.208328 0.024117 0.062696
v -0.206982 0.024117 0.062539
v -0.215774 0.024117 0.062704
v -0.209704 0.024117 0.062806
v -0.208328 0.024117 0.062696
v -0.212579 0.024117 0.062891
v -0.209704 0.024117 0.062806
v -0.215774 0.024117 0.062704
v -0.212579 0.024117 0.062891
v -0.211118 0.024117 0.06287
v -0.209704 0.024117 0.062806
v -0.211168 0.02033 0.019089
v -0.215577 0.020331 0.019267
v -0.212391 0.02033 0.019072
v -0.20999 0.020331 0.019145
v -0.215577 0.020331 0.019267
v -0.211168 0.02033 0.019089
v -0.208843 0.020331 0.019243
v -0.215577 0.020331 0.019267
v -0.20999 0.020331 0.019145
v -0.20771 0.020331 0.019387
v -0.215577 0.020331 0.019267
v -0.208843 0.020331 0.019243
v -0.20771 0.020331 0.019387
v -0.21861 0.020331 0.019839
v -0.215577 0.020331 0.019267
v -0.206574 0.020331 0.019582
v -0.21861 0.020331 0.019839
v -0.20771 0.020331 0.019387
v -0.205419 0.020331 0.019831
v -0.21861 0.020331 0.019839
v -0.206574 0.020331 0.019582
v -0.204228 0.020331 0.020139
v -0.21861 0.020331 0.019839
v -0.205419 0.020331 0.019831
v -0.204228 0.020331 0.020139
v -0.221464 0.020332 0.020765
v -0.21861 0.020331 0.019839
v -0.202987 0.020331 0.020509
v -0.221464 0.020332 0.020765
v -0.204228 0.020331 0.020139
v -0.201677 0.020332 0.020947
v -0.221464 0.020332 0.020765
v -0.202987 0.020331 0.020509
v -0.201677 0.020332 0.020947
v -0.224119 0.020333 0.022021
v -0.221464 0.020332 0.020765
v -0.200283 0.020332 0.021456
v -0.224119 0.020333 0.022021
v -0.201677 0.020332 0.020947
v -0.198789 0.020333 0.022039
v -0.224119 0.020333 0.022021
v -0.200283 0.020332 0.021456
v -0.198789 0.020333 0.022039
v -0.226548 0.020334 0.023585
v -0.224119 0.020333 0.022021
v -0.197179 0.020333 0.022703
v -0.226548 0.020334 0.023585
v -0.198789 0.020333 0.022039
v -0.209945 0.020334 0.024825
v -0.226548 0.020334 0.023585
v -0.197179 0.020333 0.022703
v -0.208658 0.020335 0.024974
v -0.209945 0.020334 0.024825
v -0.197179 0.020333 0.022703
v -0.207371 0.020335 0.025181
v -0.208658 0.020335 0.024974
v -0.197179 0.020333 0.022703
v -0.206085 0.020335 0.025447
v -0.207371 0.020335 0.025181
v -0.197179 0.020333 0.022703
v -0.2048 0.020335 0.02577
v -0.206085 0.020335 0.025447
v -0.197179 0.020333 0.022703
v -0.203519 0.020335 0.026151
v -0.2048 0.020335 0.02577
v -0.197179 0.020333 0.022703
v -0.20224 0.020336 0.026589
v -0.203519 0.020335 0.026151
v -0.197179 0.020333 0.022703
v -0.200966 0.020336 0.027083
v -0.20224 0.020336 0.026589
v -0.197179 0.020333 0.022703
v -0.199697 0.020336 0.027633
v -0.200966 0.020336 0.027083
v -0.197179 0.020333 0.022703
v -0.198434 0.020337 0.028239
v -0.199697 0.020336 0.027633
v -0.197179 0.020333 0.022703
v -0.197179 0.020337 0.0289
v -0.198434 0.020337 0.028239
v -0.197179 0.020333 0.022703
v -0.212516 0.020334 0.024706
v -0.22873 0.020335 0.025434
v -0.226548 0.020334 0.023585
v -0.211232 0.020334 0.024736
v -0.212516 0.020334 0.024706
v -0.226548 0.020334 0.023585
v -0.209945 0.020334 0.024825
v -0.211232 0.020334 0.024736
v -0.226548 0.020334 0.023585
v -0.214786 0.020335 0.02485
v -0.22873 0.020335 0.025434
v -0.212516 0.020334 0.024706
v -0.216953 0.020335 0.025273
v -0.22873 0.020335 0.025434
v -0.214786 0.020335 0.02485
v -0.218998 0.020335 0.025956
v -0.22873 0.020335 0.025434
v -0.216953 0.020335 0.025273
v -0.218998 0.020335 0.025956
v -0.230641 0.020336 0.027545
v -0.22873 0.020335 0.025434
v -0.220903 0.020336 0.026883
v -0.230641 0.020336 0.027545
v -0.218998 0.020335 0.025956
v -0.22265 0.020337 0.028037
v -0.230641 0.020336 0.027545
v -0.220903 0.020336 0.026883
v -0.22265 0.020337 0.028037
v -0.232257 0.020338 0.029895
v -0.230641 0.020336 0.027545
v -0.224223 0.020338 0.029401
v -0.232257 0.020338 0.029895
v -0.22265 0.020337 0.028037
v -0.225602 0.020339 0.030958
v -0.232257 0.020338 0.029895
v -0.224223 0.020338 0.029401
v -0.225602 0.020339 0.030958
v -0.233555 0.02034 0.032462
v -0.232257 0.020338 0.029895
v -0.226771 0.02034 0.032692
v -0.233555 0.02034 0.032462
v -0.225602 0.020339 0.030958
v -0.226771 0.02034 0.032692
v -0.234511 0.020342 0.035223
v -0.233555 0.02034 0.032462
v -0.227711 0.020341 0.034584
v -0.234511 0.020342 0.035223
v -0.226771 0.02034 0.032692
v -0.228404 0.020343 0.036618
v -0.234511 0.020342 0.035223
v -0.227711 0.020341 0.034584
v -0.228404 0.020343 0.036618
v -0.235101 0.020344 0.038154
v -0.234511 0.020342 0.035223
v -0.228834 0.020344 0.038778
v -0.235101 0.020344 0.038154
v -0.228404 0.020343 0.036618
v -0.228834 0.020344 0.038778
v -0.235304 0.020346 0.041233
v -0.235101 0.020344 0.038154
v -0.228981 0.020346 0.041046
v -0.235304 0.020346 0.041233
v -0.228834 0.020344 0.038778
v -0.228834 0.020347 0.043364
v -0.235304 0.020346 0.041233
v -0.228981 0.020346 0.041046
v -0.228834 0.020347 0.043364
v -0.235106 0.020348 0.044289
v -0.235304 0.020346 0.041233
v -0.196302 0.020346 0.041296
v -0.210638 0.02035 0.046805
v -0.210638 0.020346 0.041296
v -0.202437 0.02035 0.046805
v -0.210638 0.02035 0.046805
v -0.196302 0.020346 0.041296
v -0.196302 0.020359 0.059388
v -0.202437 0.02035 0.046805
v -0.196302 0.020346 0.041296
v -0.228405 0.020349 0.04555
v -0.235106 0.020348 0.044289
v -0.228834 0.020347 0.043364
v -0.228405 0.020349 0.04555
v -0.234529 0.02035 0.047185
v -0.235106 0.020348 0.044289
v -0.227707 0.02035 0.047594
v -0.234529 0.02035 0.047185
v -0.228405 0.020349 0.04555
v -0.196302 0.020359 0.059388
v -0.202437 0.020356 0.055569
v -0.202437 0.02035 0.046805
v -0.227707 0.02035 0.047594
v -0.233593 0.020352 0.0499
v -0.234529 0.02035 0.047185
v -0.226755 0.020352 0.049479
v -0.233593 0.020352 0.0499
v -0.227707 0.02035 0.047594
v -0.225563 0.020353 0.051192
v -0.233593 0.020352 0.0499
v -0.226755 0.020352 0.049479
v -0.225563 0.020353 0.051192
v -0.232319 0.020354 0.052414
v -0.233593 0.020352 0.0499
v -0.224145 0.020354 0.052721
v -0.232319 0.020354 0.052414
v -0.225563 0.020353 0.051192
v -0.224145 0.020354 0.052721
v -0.230731 0.020355 0.054706
v -0.232319 0.020354 0.052414
v -0.222515 0.020355 0.054051
v -0.230731 0.020355 0.054706
v -0.224145 0.020354 0.052721
v -0.220689 0.020356 0.05517
v -0.230731 0.020355 0.054706
v -0.222515 0.020355 0.054051
v -0.220689 0.020356 0.05517
v -0.228848 0.020357 0.056759
v -0.230731 0.020355 0.054706
v -0.218681 0.020356 0.056064
v -0.228848 0.020357 0.056759
v -0.220689 0.020356 0.05517
v -0.196302 0.020359 0.059388
v -0.203174 0.020356 0.0558
v -0.202437 0.020356 0.055569
v -0.196302 0.020359 0.059388
v -0.203915 0.020356 0.05602
v -0.203174 0.020356 0.0558
v -0.196302 0.020359 0.059388
v -0.20466 0.020356 0.056229
v -0.203915 0.020356 0.05602
v -0.216504 0.020357 0.05672
v -0.228848 0.020357 0.056759
v -0.218681 0.020356 0.056064
v -0.196302 0.020359 0.059388
v -0.20541 0.020356 0.056425
v -0.20466 0.020356 0.056229
v -0.196302 0.020359 0.059388
v -0.206166 0.020357 0.056605
v -0.20541 0.020356 0.056425
v -0.196302 0.020359 0.059388
v -0.206929 0.020357 0.056766
v -0.206166 0.020357 0.056605
v -0.214173 0.020357 0.057122
v -0.228848 0.020357 0.056759
v -0.216504 0.020357 0.05672
v -0.214173 0.020357 0.057122
v -0.226692 0.020358 0.05855
v -0.228848 0.020357 0.056759
v -0.196302 0.020359 0.059388
v -0.2077 0.020357 0.056909
v -0.206929 0.020357 0.056766
v -0.196302 0.020359 0.059388
v -0.208479 0.020357 0.05703
v -0.2077 0.020357 0.056909
v -0.196302 0.020359 0.059388
v -0.209269 0.020357 0.057128
v -0.208479 0.020357 0.05703
v -0.211702 0.020357 0.05726
v -0.226692 0.020358 0.05855
v -0.214173 0.020357 0.057122
v -0.196302 0.020359 0.059388
v -0.210068 0.020357 0.0572
v -0.209269 0.020357 0.057128
v -0.196302 0.020359 0.059388
v -0.210879 0.020357 0.057244
v -0.210068 0.020357 0.0572
v -0.196302 0.020359 0.059388
v -0.211702 0.020357 0.05726
v -0.210879 0.020357 0.057244
v -0.196302 0.020359 0.059388
v -0.226692 0.020358 0.05855
v -0.211702 0.020357 0.05726
v -0.196302 0.020359 0.059388
v -0.224285 0.020359 0.060061
v -0.226692 0.020358 0.05855
v -0.197706 0.020359 0.059983
v -0.224285 0.020359 0.060061
v -0.196302 0.020359 0.059388
v -0.199073 0.020359 0.060517
v -0.224285 0.020359 0.060061
v -0.197706 0.020359 0.059983
v -0.199073 0.020359 0.060517
v -0.221649 0.02036 0.06127
v -0.224285 0.020359 0.060061
v -0.200412 0.02036 0.060992
v -0.221649 0.02036 0.06127
v -0.199073 0.020359 0.060517
v -0.201732 0.02036 0.06141
v -0.221649 0.02036 0.06127
v -0.200412 0.02036 0.060992
v -0.201732 0.02036 0.06141
v -0.218805 0.02036 0.062159
v -0.221649 0.02036 0.06127
v -0.203041 0.02036 0.061772
v -0.218805 0.02036 0.062159
v -0.201732 0.02036 0.06141
v -0.204347 0.02036 0.06208
v -0.218805 0.02036 0.062159
v -0.203041 0.02036 0.061772
v -0.205657 0.020361 0.062336
v -0.218805 0.02036 0.062159
v -0.204347 0.02036 0.06208
v -0.205657 0.020361 0.062336
v -0.215774 0.020361 0.062707
v -0.218805 0.02036 0.062159
v -0.206982 0.020361 0.062541
v -0.215774 0.020361 0.062707
v -0.205657 0.020361 0.062336
v -0.208328 0.020361 0.062698
v -0.215774 0.020361 0.062707
v -0.206982 0.020361 0.062541
v -0.209704 0.020361 0.062808
v -0.215774 0.020361 0.062707
v -0.208328 0.020361 0.062698
v -0.209704 0.020361 0.062808
v -0.212579 0.020361 0.062894
v -0.215774 0.020361 0.062707
v -0.211118 0.020361 0.062872
v -0.212579 0.020361 0.062894
v -0.209704 0.020361 0.062808
v -0.197706 0.024115 0.059981
v -0.199073 0.024115 0.060514
v -0.199073 0.020359 0.060517
v -0.197706 0.020359 0.059983
v -0.199073 0.024115 0.060514
v -0.200412 0.024116 0.060989
v -0.200412 0.02036 0.060992
v -0.199073 0.020359 0.060517
v -0.200412 0.024116 0.060989
v -0.201732 0.024116 0.061407
v -0.201732 0.02036 0.06141
v -0.200412 0.02036 0.060992
v -0.201732 0.024116 0.061407
v -0.203041 0.024116 0.061769
v -0.203041 0.02036 0.061772
v -0.201732 0.02036 0.06141
v -0.203041 0.024116 0.061769
v -0.204347 0.024117 0.062077
v -0.204347 0.02036 0.06208
v -0.203041 0.02036 0.061772
v -0.204347 0.024117 0.062077
v -0.205657 0.024117 0.062333
v -0.205657 0.020361 0.062336
v -0.204347 0.02036 0.06208
v -0.205657 0.024117 0.062333
v -0.206982 0.024117 0.062539
v -0.206982 0.020361 0.062541
v -0.205657 0.020361 0.062336
v -0.206982 0.024117 0.062539
v -0.208328 0.024117 0.062696
v -0.208328 0.020361 0.062698
v -0.206982 0.020361 0.062541
v -0.208328 0.024117 0.062696
v -0.209704 0.024117 0.062806
v -0.209704 0.020361 0.062808
v -0.208328 0.020361 0.062698
v -0.209704 0.024117 0.062806
v -0.211118 0.024117 0.06287
v -0.211118 0.020361 0.062872
v -0.209704 0.020361 0.062808
v -0.211118 0.024117 0.06287
v -0.212579 0.024117 0.062891
v -0.212579 0.020361 0.062894
v -0.211118 0.020361 0.062872
v -0.212579 0.024117 0.062891
v -0.215774 0.024117 0.062704
v -0.215774 0.020361 0.062707
v -0.212579 0.020361 0.062894
v -0.215774 0.024117 0.062704
v -0.218805 0.024117 0.062156
v -0.218805 0.02036 0.062159
v -0.215774 0.020361 0.062707
v -0.218805 0.024117 0.062156
v -0.221649 0.024116 0.061267
v -0.221649 0.02036 0.06127
v -0.218805 0.02036 0.062159
v -0.221649 0.024116 0.061267
v -0.224285 0.024115 0.060058
v -0.224285 0.020359 0.060061
v -0.221649 0.02036 0.06127
v -0.224285 0.024115 0.060058
v -0.226692 0.024114 0.058548
v -0.226692 0.020358 0.05855
v -0.224285 0.020359 0.060061
v -0.226692 0.024114 0.058548
v -0.228848 0.024113 0.056756
v -0.228848 0.020357 0.056759
v -0.226692 0.020358 0.05855
v -0.228848 0.024113 0.056756
v -0.230731 0.024111 0.054704
v -0.230731 0.020355 0.054706
v -0.228848 0.020357 0.056759
v -0.230731 0.024111 0.054704
v -0.232319 0.02411 0.052411
v -0.232319 0.020354 0.052414
v -0.230731 0.020355 0.054706
v -0.232319 0.02411 0.052411
v -0.233593 0.024108 0.049897
v -0.233593 0.020352 0.0499
v -0.232319 0.020354 0.052414
v -0.233593 0.024108 0.049897
v -0.234529 0.024106 0.047183
v -0.234529 0.02035 0.047185
v -0.233593 0.020352 0.0499
v -0.234529 0.024106 0.047183
v -0.235106 0.024104 0.044287
v -0.235106 0.020348 0.044289
v -0.234529 0.02035 0.047185
v -0.235106 0.024104 0.044287
v -0.235304 0.024102 0.04123
v -0.235304 0.020346 0.041233
v -0.235106 0.020348 0.044289
v -0.235304 0.024102 0.04123
v -0.235101 0.0241 0.038151
v -0.235101 0.020344 0.038154
v -0.235304 0.020346 0.041233
v -0.235101 0.0241 0.038151
v -0.234511 0.024098 0.03522
v -0.234511 0.020342 0.035223
v -0.235101 0.020344 0.038154
v -0.234511 0.024098 0.03522
v -0.233555 0.024096 0.03246
v -0.233555 0.02034 0.032462
v -0.234511 0.020342 0.035223
v -0.233555 0.024096 0.03246
v -0.232257 0.024094 0.029892
v -0.232257 0.020338 0.029895
v -0.233555 0.02034 0.032462
v -0.232257 0.024094 0.029892
v -0.230641 0.024093 0.027542
v -0.230641 0.020336 0.027545
v -0.232257 0.020338 0.029895
v -0.230641 0.024093 0.027542
v -0.22873 0.024091 0.025431
v -0.22873 0.020335 0.025434
v -0.230641 0.020336 0.027545
v -0.22873 0.024091 0.025431
v -0.226548 0.02409 0.023582
v -0.226548 0.020334 0.023585
v -0.22873 0.020335 0.025434
v -0.226548 0.02409 0.023582
v -0.224119 0.024089 0.022018
v -0.224119 0.020333 0.022021
v -0.226548 0.020334 0.023585
v -0.224119 0.024089 0.022018
v -0.221464 0.024088 0.020762
v -0.221464 0.020332 0.020765
v -0.224119 0.020333 0.022021
v -0.221464 0.024088 0.020762
v -0.21861 0.024087 0.019837
v -0.21861 0.020331 0.019839
v -0.221464 0.020332 0.020765
v -0.21861 0.024087 0.019837
v -0.215577 0.024087 0.019265
v -0.215577 0.020331 0.019267
v -0.21861 0.020331 0.019839
v -0.215577 0.024087 0.019265
v -0.212391 0.024087 0.019069
v -0.212391 0.02033 0.019072
v -0.215577 0.020331 0.019267
v -0.212391 0.024087 0.019069
v -0.211168 0.024087 0.019087
v -0.211168 0.02033 0.019089
v -0.212391 0.02033 0.019072
v -0.211168 0.024087 0.019087
v -0.20999 0.024087 0.019142
v -0.20999 0.020331 0.019145
v -0.211168 0.02033 0.019089
v -0.20999 0.024087 0.019142
v -0.208843 0.024087 0.01924
v -0.208843 0.020331 0.019243
v -0.20999 0.020331 0.019145
v -0.208843 0.024087 0.01924
v -0.20771 0.024087 0.019384
v -0.20771 0.020331 0.019387
v -0.208843 0.020331 0.019243
v -0.20771 0.024087 0.019384
v -0.206574 0.024087 0.019579
v -0.206574 0.020331 0.019582
v -0.20771 0.020331 0.019387
v -0.206574 0.024087 0.019579
v -0.205419 0.024087 0.019828
v -0.205419 0.020331 0.019831
v -0.206574 0.020331 0.019582
v -0.205419 0.024087 0.019828
v -0.204228 0.024087 0.020136
v -0.204228 0.020331 0.020139
v -0.205419 0.020331 0.019831
v -0.204228 0.024087 0.020136
v -0.202987 0.024088 0.020507
v -0.202987 0.020331 0.020509
v -0.204228 0.020331 0.020139
v -0.202987 0.024088 0.020507
v -0.201677 0.024088 0.020944
v -0.201677 0.020332 0.020947
v -0.202987 0.020331 0.020509
v -0.201677 0.024088 0.020944
v -0.200283 0.024088 0.021453
v -0.200283 0.020332 0.021456
v -0.201677 0.020332 0.020947
v -0.200283 0.024088 0.021453
v -0.198789 0.024089 0.022037
v -0.198789 0.020333 0.022039
v -0.200283 0.020332 0.021456
v -0.198789 0.024089 0.022037
v -0.197179 0.024089 0.0227
v -0.197179 0.020333 0.022703
v -0.198789 0.020333 0.022039
v -0.197179 0.024089 0.0227
v -0.197179 0.024093 0.028898
v -0.197179 0.020337 0.0289
v -0.197179 0.020333 0.022703
v -0.197179 0.024093 0.028898
v -0.198434 0.024093 0.028237
v -0.198434 0.020337 0.028239
v -0.197179 0.020337 0.0289
v -0.198434 0.024093 0.028237
v -0.199697 0.024093 0.027631
v -0.199697 0.020336 0.027633
v -0.198434 0.020337 0.028239
v -0.199697 0.024093 0.027631
v -0.200966 0.024092 0.02708
v -0.200966 0.020336 0.027083
v -0.199697 0.020336 0.027633
v -0.200966 0.024092 0.02708
v -0.20224 0.024092 0.026586
v -0.20224 0.020336 0.026589
v -0.200966 0.020336 0.027083
v -0.20224 0.024092 0.026586
v -0.203519 0.024092 0.026148
v -0.203519 0.020335 0.026151
v -0.20224 0.020336 0.026589
v -0.203519 0.024092 0.026148
v -0.2048 0.024091 0.025768
v -0.2048 0.020335 0.02577
v -0.203519 0.020335 0.026151
v -0.2048 0.024091 0.025768
v -0.206085 0.024091 0.025444
v -0.206085 0.020335 0.025447
v -0.2048 0.020335 0.02577
v -0.206085 0.024091 0.025444
v -0.207371 0.024091 0.025179
v -0.207371 0.020335 0.025181
v -0.206085 0.020335 0.025447
v -0.207371 0.024091 0.025179
v -0.208658 0.024091 0.024971
v -0.208658 0.020335 0.024974
v -0.207371 0.020335 0.025181
v -0.208658 0.024091 0.024971
v -0.209945 0.024091 0.024823
v -0.209945 0.020334 0.024825
v -0.208658 0.020335 0.024974
v -0.209945 0.024091 0.024823
v -0.211232 0.024091 0.024733
v -0.211232 0.020334 0.024736
v -0.209945 0.020334 0.024825
v -0.211232 0.024091 0.024733
v -0.212516 0.024091 0.024703
v -0.212516 0.020334 0.024706
v -0.211232 0.020334 0.024736
v -0.212516 0.024091 0.024703
v -0.214786 0.024091 0.024848
v -0.214786 0.020335 0.02485
v -0.212516 0.020334 0.024706
v -0.214786 0.024091 0.024848
v -0.216953 0.024091 0.02527
v -0.216953 0.020335 0.025273
v -0.214786 0.020335 0.02485
v -0.216953 0.024091 0.02527
v -0.218998 0.024091 0.025953
v -0.218998 0.020335 0.025956
v -0.216953 0.020335 0.025273
v -0.218998 0.024091 0.025953
v -0.220903 0.024092 0.026881
v -0.220903 0.020336 0.026883
v -0.218998 0.020335 0.025956
v -0.220903 0.024092 0.026881
v -0.22265 0.024093 0.028035
v -0.22265 0.020337 0.028037
v -0.220903 0.020336 0.026883
v -0.22265 0.024093 0.028035
v -0.224223 0.024094 0.029399
v -0.224223 0.020338 0.029401
v -0.22265 0.020337 0.028037
v -0.224223 0.024094 0.029399
v -0.225602 0.024095 0.030956
v -0.225602 0.020339 0.030958
v -0.224223 0.020338 0.029401
v -0.225602 0.024095 0.030956
v -0.226771 0.024096 0.032689
v -0.226771 0.02034 0.032692
v -0.225602 0.020339 0.030958
v -0.226771 0.024096 0.032689
v -0.227711 0.024097 0.034581
v -0.227711 0.020341 0.034584
v -0.226771 0.02034 0.032692
v -0.227711 0.024097 0.034581
v -0.228404 0.024099 0.036615
v -0.228404 0.020343 0.036618
v -0.227711 0.020341 0.034584
v -0.228404 0.024099 0.036615
v -0.228834 0.0241 0.038775
v -0.228834 0.020344 0.038778
v -0.228404 0.020343 0.036618
v -0.228834 0.0241 0.038775
v -0.228981 0.024102 0.041043
v -0.228981 0.020346 0.041046
v -0.228834 0.020344 0.038778
v -0.228981 0.024102 0.041043
v -0.228834 0.024104 0.043361
v -0.228834 0.020347 0.043364
v -0.228981 0.020346 0.041046
v -0.228834 0.024104 0.043361
v -0.228405 0.024105 0.045548
v -0.228405 0.020349 0.04555
v -0.228834 0.020347 0.043364
v -0.228405 0.024105 0.045548
v -0.227707 0.024106 0.047591
v -0.227707 0.02035 0.047594
v -0.228405 0.020349 0.04555
v -0.227707 0.024106 0.047591
v -0.226755 0.024108 0.049475
v -0.226755 0.020352 0.049479
v -0.227707 0.02035 0.047594
v -0.226755 0.024108 0.049475
v -0.225563 0.024109 0.05119
v -0.225563 0.020353 0.051192
v -0.226755 0.020352 0.049479
v -0.225563 0.024109 0.05119
v -0.224145 0.02411 0.052719
v -0.224145 0.020354 0.052721
v -0.225563 0.020353 0.051192
v -0.224145 0.02411 0.052719
v -0.222515 0.024111 0.054049
v -0.222515 0.020355 0.054051
v -0.224145 0.020354 0.052721
v -0.222515 0.024111 0.054049
v -0.220689 0.024112 0.055168
v -0.220689 0.020356 0.05517
v -0.222515 0.020355 0.054051
v -0.220689 0.024112 0.055168
v -0.218681 0.024112 0.056061
v -0.218681 0.020356 0.056064
v -0.220689 0.020356 0.05517
v -0.218681 0.024112 0.056061
v -0.216504 0.024113 0.056717
v -0.216504 0.020357 0.05672
v -0.218681 0.020356 0.056064
v -0.216504 0.024113 0.056717
v -0.214173 0.024113 0.057119
v -0.214173 0.020357 0.057122
v -0.216504 0.020357 0.05672
v -0.214173 0.024113 0.057119
v -0.211702 0.024113 0.057257
v -0.211702 0.020357 0.05726
v -0.214173 0.020357 0.057122
v -0.211702 0.024113 0.057257
v -0.210879 0.024113 0.057241
v -0.210879 0.020357 0.057244
v -0.211702 0.020357 0.05726
v -0.210879 0.024113 0.057241
v -0.210068 0.024113 0.057197
v -0.210068 0.020357 0.0572
v -0.210879 0.020357 0.057244
v -0.210068 0.024113 0.057197
v -0.209269 0.024113 0.057125
v -0.209269 0.020357 0.057128
v -0.210068 0.020357 0.0572
v -0.209269 0.024113 0.057125
v -0.208479 0.024113 0.057028
v -0.208479 0.020357 0.05703
v -0.209269 0.020357 0.057128
v -0.208479 0.024113 0.057028
v -0.2077 0.024113 0.056906
v -0.2077 0.020357 0.056909
v -0.208479 0.020357 0.05703
v -0.2077 0.024113 0.056906
v -0.206929 0.024113 0.056764
v -0.206929 0.020357 0.056766
v -0.2077 0.020357 0.056909
v -0.206929 0.024113 0.056764
v -0.206166 0.024113 0.056602
v -0.206166 0.020357 0.056605
v -0.206929 0.020357 0.056766
v -0.206166 0.024113 0.056602
v -0.20541 0.024113 0.056423
v -0.20541 0.020356 0.056425
v -0.206166 0.020357 0.056605
v -0.20541 0.024113 0.056423
v -0.20466 0.024112 0.056227
v -0.20466 0.020356 0.056229
v -0.20541 0.020356 0.056425
v -0.20466 0.024112 0.056227
v -0.203915 0.024112 0.056018
v -0.203915 0.020356 0.05602
v -0.20466 0.020356 0.056229
v -0.203915 0.024112 0.056018
v -0.203174 0.024112 0.055797
v -0.203174 0.020356 0.0558
v -0.203915 0.020356 0.05602
v -0.203174 0.024112 0.055797
v -0.202437 0.024112 0.055567
v -0.202437 0.020356 0.055569
v -0.203174 0.020356 0.0558
v -0.202437 0.024112 0.055567
v -0.202437 0.024106 0.046802
v -0.202437 0.02035 0.046805
v -0.202437 0.020356 0.055569
v -0.202437 0.024106 0.046802
v -0.210638 0.024106 0.046802
v -0.210638 0.02035 0.046805
v -0.202437 0.02035 0.046805
v -0.210638 0.024106 0.046802
v -0.210638 0.024102 0.041294
v -0.210638 0.020346 0.041296
v -0.210638 0.02035 0.046805
v -0.210638 0.024102 0.041294
v -0.196302 0.024102 0.041294
v -0.196302 0.020346 0.041296
v -0.210638 0.020346 0.041296
v -0.196302 0.024102 0.041294
v -0.196302 0.024115 0.059386
v -0.196302 0.020359 0.059388
v -0.196302 0.020346 0.041296
v -0.196302 0.024115 0.059386
v -0.197706 0.024115 0.059981
v -0.197706 0.020359 0.059983
v -0.196302 0.020359 0.059388
vn -0 1 -0.0006
vn -0 1 -0.0007
vn -0 1 -0.0006
vn -0 1 -0.0006
vn -0 1 -0.0005
vn -0 1 -0.0007
vn -0 1 -0.0006
vn -0 1 -0.0007
vn -0 1 -0.0005
vn -0 1 -0.0006
vn -0 1 -0
vn -0 1 -0.0007
vn -0 1 -0.0006
vn -0 1 -0
vn -0 1 -0.0006
vn -0 1 -0.0006
vn -0 1 -0.0007
vn -0 1 -0
vn -0 1 -0.0006
vn -0 1 -0.0005
vn -0 1 -0.0007
vn -0 1 -0.0006
vn -0 1 -0.0007
vn -0 1 -0.0005
vn -0 1 -0.0008
vn -0 1 -0.0007
vn -0 1 -0.0006
vn -0 1 -0.0008
vn -0 1 -0.0007
vn -0 1 -0.0007
vn -0 1 -0.0008
vn -0 1 -0.0007
vn -0 1 -0.0007
vn -0 1 -0.0007
vn -0 1 -0.0007
vn -0 1 -0.0008
vn -0 1 -0.0007
vn -0 1 -0.001
vn -0 1 -0.0007
vn -0 1 -0.0007
vn -0 1 -0.0006
vn -0 1 -0.001
vn -0 1 -0.0006
vn -0 1 -0.0006
vn -0 1 -0.0007
vn -0 1 -0.0006
vn 0.0001 1 -0.0006
vn -0 1 -0.0006
vn -0 1 -0.0006
vn -0 1 -0.0009
vn 0.0001 1 -0.0006
vn -0 1 -0.0009
vn 0.0001 1 -0.0005
vn 0.0001 1 -0.0006
vn 0.0001 1 -0.0005
vn 0.0001 1 -0.0005
vn 0.0001 1 -0.0006
vn 0.0001 1 -0.0005
vn 0.0001 1 -0.0004
vn 0.0001 1 -0.0006
vn 0.0001 1 -0.0004
vn -0 1 -0.0006
vn 0.0001 1 -0.0006
vn -0 1 -0.0006
vn -0.0002 1 -0.0012
vn 0.0001 1 -0.0006
vn -0.0002 1 -0.0012
vn -0 1 -0.0008
vn 0.0001 1 -0.0006
vn -0 1 -0.0008
vn -0 1 -0.0007
vn 0.0001 1 -0.0006
vn -0 1 -0.0007
vn -0 1 -0.0008
vn 0.0001 1 -0.0006
vn -0 1 -0.0008
vn 0.0003 1 -0.0006
vn 0.0001 1 -0.0006
vn 0.0003 1 -0.0006
vn -0 1 -0.0007
vn 0.0001 1 -0.0006
vn -0 1 -0.0008
vn -0 1 -0.0007
vn -0 1 -0.0006
vn -0 1 -0.0007
vn -0 1 -0.0003
vn -0 1 -0.0006
vn -0 1 -0.0003
vn -0 1 -0.0009
vn -0 1 -0.0006
vn -0 1 -0.0008
vn -0 1 -0.0006
vn -0 1 -0.0007
vn -0 1 -0.0008
vn -0 1 -0.0007
vn -0 1 -0.0006
vn -0 1 -0.0008
vn -0 1 -0.0006
vn -0 1 -0.0007
vn -0 1 -0.0006
vn -0 1 -0.0006
vn -0 1 -0.0008
vn -0 1 -0.0006
vn -0 1 -0.0005
vn -0 1 -0.0006
vn -0 1 -0.0006
vn -0 1 -0.0004
vn -0 1 -0.0005
vn -0 1 -0.0007
vn -0 1 -0.0004
vn -0 1 -0.0006
vn -0 1 -0.0007
vn -0 1 -0.0008
vn -0 1 -0.0004
vn -0 1 -0.0007
vn -0 1 -0.0007
vn -0 1 -0.0008
vn -0 1 -0.0007
vn -0 1 -0.0007
vn -0 1 -0.0007
vn -0 1 -0.0007
vn -0 1 -0.0006
vn -0 1 -0.0007
vn -0 1 -0.0007
vn -0 1 -0.0006
vn -0 1 -0.0007
vn -0 1 -0.0007
vn 0.0001 1 -0.0006
vn -0 1 -0.0006
vn -0 1 -0.0007
vn -0 1 -0.0007
vn 0.0001 1 -0.0006
vn -0 1 -0.0006
vn -0 1 -0.0007
vn -0 1 -0.0007
vn -0 1 -0.0006
vn -0 1 -0.0006
vn -0 1 -0.0007
vn -0 1 -0.0007
vn -0 1 -0.0006
vn -0 1 -0.0006
vn -0 1 -0.0007
vn -0 1 -0.0009
vn -0 1 -0.0006
vn -0 1 -0.0007
vn -0.0001 1 -0.0006
vn -0 1 -0.0009
vn -0.0001 1 -0.0006
vn -0.0001 1 -0.0006
vn -0 1 -0.0007
vn -0 1 -0.0007
vn -0 1 -0.0007
vn -0 1 -0.0007
vn -0 1 -0.0007
vn -0 1 -0.0007
vn -0 1 -0.0007
vn -0 1 -0.0007
vn -0 1 -0.0006
vn -0 1 -0.0007
vn -0.0001 1 -0.0006
vn -0 1 -0.0005
vn -0.0001 1 -0.0006
vn -0 1 -0.0007
vn -0 1 -0.0005
vn -0.0001 1 -0.0006
vn -0 1 -0.0007
vn -0 1 -0.0008
vn -0 1 -0.0005
vn -0.0001 1 -0.0006
vn -0 1 -0.0006
vn -0 1 -0.0007
vn -0 1 -0.0008
vn -0 1 -0.0008
vn -0 1 -0.0007
vn -0 1 -0.0008
vn -0 1 -0.0007
vn -0 1 -0.0008
vn -0 1 -0.0008
vn -0 1 -0.0007
vn -0 1 -0.0007
vn -0 1 -0.0007
vn -0 1 -0.0007
vn -0 1 -0.0008
vn -0 1 -0.0007
vn -0 1 -0.0007
vn -0 1 -0.0007
vn -0 1 -0.0006
vn -0 1 -0.0007
vn -0 1 -0.0007
vn -0 1 -0.0006
vn -0.0001 1 -0.0008
vn -0 1 -0.0007
vn -0 1 -0.0006
vn 0.0001 1 -0.0003
vn -0.0001 1 -0.0008
vn -0 1 -0.0008
vn 0.0001 1 -0.0003
vn -0 1 -0.0006
vn -0 1 -0.0008
vn -0 1 -0.0006
vn 0.0001 1 -0.0003
vn -0.0002 1 -0.0005
vn -0 1 -0.0006
vn -0.0001 1 -0.0006
vn -0.0002 1 -0.0005
vn -0 1 -0.0006
vn -0.0002 1 -0.0005
vn -0 1 -0.0009
vn -0 1 -0.0006
vn -0.0002 1 -0.0005
vn -0 1 -0.0008
vn -0 1 -0.0012
vn -0 1 -0.0006
vn -0 1 -0.0008
vn -0 1 -0.0006
vn -0 1 -0.0009
vn -0.0001 1 -0.0004
vn -0 1 -0.0006
vn -0 1 -0.0008
vn -0.0001 1 -0.0004
vn -0 1 -0.0006
vn -0.0001 1 -0.0004
vn -0 1 -0.0008
vn -0 1 -0.0004
vn -0 1 -0.0012
vn -0 1 -0.0006
vn -0 1 -0.0004
vn -0 1 -0.0008
vn -0.0001 1 -0.0005
vn -0 1 -0.0006
vn -0.0001 1 -0.0004
vn -0.0001 1 -0.0005
vn -0 1 -0.0006
vn -0.0001 1 -0.0005
vn -0.0001 1 -0.0006
vn -0 1 -0.0006
vn -0.0001 1 -0.0005
vn -0 1 -0.0006
vn -0 1 -0.0009
vn -0 1 -0.0004
vn -0 1 -0.0007
vn -0 1 -0.0006
vn -0.0001 1 -0.0006
vn -0 1 -0.0008
vn -0 1 -0.0006
vn -0 1 -0.0007
vn -0 1 -0.0009
vn -0 1 -0.0006
vn -0 1 -0.0008
vn -0 1 -0.0006
vn -0 1 -0.0006
vn -0 1 -0.0009
vn -0 1 -0.0007
vn -0 1 -0.0006
vn -0 1 -0.0006
vn -0 1 -0.0007
vn -0 1 -0.0007
vn -0 1 -0.0006
vn -0 1 -0.0007
vn -0 1 -0.0007
vn -0 1 -0.0007
vn -0 1 -0.0004
vn -0 1 -0.0007
vn -0 1 -0.0007
vn -0 1 -0.0004
vn -0 1 -0.0009
vn -0 1 -0.0007
vn -0 1 -0.0004
vn -0 1 -0.0011
vn -0 1 -0.0009
vn -0 1 -0.0011
vn -0 1 -0.0011
vn -0 1 -0.0004
vn -0 1 -0.0011
vn -0 1 -0.0007
vn -0 1 -0.0011
vn -0 1 -0.0011
vn -0 1 -0.0005
vn -0 1 -0.0007
vn -0 1 -0.0011
vn -0 1 -0.0005
vn -0 1 -0.0005
vn -0 1 -0.0003
vn -0 1 -0.0005
vn -0 1 -0.0011
vn -0 1 -0.0003
vn -0 1 -0.0007
vn -0 1 -0.0005
vn -0 1 -0.0003
vn -0 1 -0.0005
vn -0 1 -0.0007
vn -0 1 -0.0003
vn -0 1 -0.0005
vn -0 1 -0.0005
vn -0 1 -0.0007
vn -0 1 -0.0005
vn -0 1 -0.0003
vn -0 1 -0.0007
vn -0 1 -0.0007
vn -0 1 -0.0005
vn -0 -1 0.0009
vn -0 -1 0.0006
vn -0 -1 0.0006
vn -0 -1 0.0003
vn -0 -1 0.0006
vn -0 -1 0.0009
vn -0 -1 0.0007
vn -0 -1 0.0006
vn -0 -1 0.0003
vn -0 -1 0.0005
vn -0 -1 0.0006
vn -0 -1 0.0007
vn -0 -1 0.0005
vn -0 -1 0.0006
vn -0 -1 0.0006
vn -0 -1 0.0009
vn -0 -1 0.0006
vn -0 -1 0.0005
vn -0 -1 0.0005
vn -0 -1 0.0006
vn -0 -1 0.0009
vn -0 -1 0.0006
vn -0 -1 0.0006
vn -0 -1 0.0005
vn -0 -1 0.0006
vn -0 -1 0.0008
vn -0 -1 0.0006
vn -0 -1 0.0006
vn -0 -1 0.0008
vn -0 -1 0.0006
vn -0 -1 0.0008
vn -0 -1 0.0008
vn -0 -1 0.0006
vn -0 -1 0.0008
vn -0 -1 0.0007
vn -0 -1 0.0008
vn -0 -1 0.001
vn -0 -1 0.0007
vn -0 -1 0.0008
vn -0 -1 0.0006
vn -0 -1 0.0007
vn -0 -1 0.001
vn -0 -1 0.0006
vn -0 -1 0.0005
vn -0 -1 0.0007
vn -0 -1 0.0005
vn -0 -1 0.0005
vn -0 -1 0.0006
vn -0 -1 0.0006
vn -0 -1 0.0005
vn -0 -1 0.0005
vn -0 -1 0.0008
vn -0 -1 0.0006
vn -0 -1 0.0005
vn -0.0001 -1 0.0005
vn -0 -1 0.0008
vn -0 -1 0.0005
vn -0.0001 -1 0.0004
vn -0.0001 -1 0.0005
vn -0 -1 0.0005
vn 0.0001 -1 0.0009
vn -0.0001 -1 0.0004
vn -0 -1 0.0005
vn -0.0002 -1 0.0004
vn 0.0001 -1 0.0009
vn -0 -1 0.0005
vn 0.0002 -1 0.001
vn -0.0002 -1 0.0004
vn -0 -1 0.0005
vn -0 -1 0.0007
vn 0.0002 -1 0.001
vn -0 -1 0.0005
vn 0.0001 -1 0.0007
vn -0 -1 0.0007
vn -0 -1 0.0005
vn -0 -1 0.0007
vn 0.0001 -1 0.0007
vn -0 -1 0.0005
vn -0 -1 0.0006
vn -0 -1 0.0007
vn -0 -1 0.0005
vn -0 -1 0.0006
vn -0 -1 0.0005
vn -0 -1 0.0005
vn -0 -1 0.0007
vn -0 -1 0.0006
vn -0 -1 0.0005
vn -0 -1 0.0006
vn -0 -1 0.0007
vn -0 -1 0.0005
vn -0 -1 0.0006
vn -0 -1 0.0005
vn -0 -1 0.0006
vn -0 -1 -0
vn -0 -1 0.0005
vn -0 -1 0.0006
vn -0 -1 0.0006
vn -0 -1 0.0005
vn -0 -1 -0
vn -0 -1 0.0006
vn -0 -1 0.0008
vn -0 -1 0.0005
vn 0.0001 -1 0.0012
vn -0 -1 0.0008
vn -0 -1 0.0006
vn 0.0001 -1 0.0009
vn -0 -1 0.0008
vn 0.0001 -1 0.0012
vn 0.0001 -1 0.0009
vn -0 -1 0.0008
vn -0 -1 0.0008
vn -0 -1 0.0008
vn -0 -1 0.0008
vn 0.0001 -1 0.0009
vn -0 -1 0.0007
vn -0 -1 0.0008
vn -0 -1 0.0008
vn -0 -1 0.0007
vn -0 -1 0.0007
vn -0 -1 0.0008
vn -0 -1 0.0006
vn -0 -1 0.0007
vn -0 -1 0.0007
vn -0 -1 0.0006
vn -0 -1 0.0007
vn -0 -1 0.0007
vn -0.0001 -1 0.0006
vn -0 -1 0.0007
vn -0 -1 0.0006
vn -0 -1 0.0007
vn -0 -1 0.0007
vn -0.0001 -1 0.0006
vn -0 -1 0.0007
vn -0 -1 0.0006
vn -0 -1 0.0007
vn -0 -1 0.0006
vn -0 -1 0.0006
vn -0 -1 0.0007
vn -0 -1 0.0006
vn -0 -1 0.0007
vn -0 -1 0.0006
vn -0 -1 0.0007
vn -0 -1 0.0007
vn -0 -1 0.0006
vn -0 -1 0.0007
vn -0 -1 0.0007
vn -0 -1 0.0007
vn -0 -1 0.0007
vn -0 -1 0.0007
vn -0 -1 0.0007
vn -0 -1 0.0007
vn -0 -1 0.0007
vn -0 -1 0.0007
vn -0 -1 0.0007
vn -0 -1 0.0007
vn -0 -1 0.0007
vn -0 -1 0.0006
vn -0 -1 0.0007
vn -0 -1 0.0007
vn -0 -1 0.0007
vn -0 -1 0.0007
vn -0 -1 0.0007
vn -0 -1 0.0007
vn -0 -1 0.0007
vn -0 -1 0.0007
vn -0 -1 0.0008
vn -0 -1 0.0007
vn -0 -1 0.0007
vn -0 -1 0.0006
vn -0.0001 -1 0.001
vn -0 -1 0.0007
vn -0 -1 0.0008
vn -0 -1 0.0008
vn -0 -1 0.0007
vn -0 -1 0.0007
vn -0 -1 0.0008
vn -0 -1 0.0008
vn -0 -1 0.0007
vn -0 -1 0.0008
vn -0 -1 0.0007
vn -0 -1 0.0007
vn -0 -1 0.0007
vn -0 -1 0.0008
vn -0 -1 0.0007
vn -0 -1 0.0007
vn -0 -1 0.0007
vn -0 -1 0.0007
vn -0 -1 0.0006
vn -0 -1 0.0007
vn 0.0001 -1 0.0008
vn -0 -1 0.0006
vn -0 -1 0.0007
vn -0.0001 -1 0.0003
vn -0 -1 0.0006
vn 0.0001 -1 0.0008
vn -0.0001 -1 0.0003
vn -0 -1 0.0008
vn -0 -1 0.0006
vn -0 -1 0.0008
vn -0 -1 0.0008
vn -0.0001 -1 0.0003
vn -0 -1 0.0006
vn 0.0002 -1 0.0005
vn -0.0001 -1 0.001
vn -0 -1 0.0006
vn 0.0002 -1 0.0005
vn 0.0002 -1 0.0005
vn -0 -1 0.0006
vn 0.0001 -1 0.0006
vn 0.0002 -1 0.0005
vn -0 -1 0.0005
vn -0 -1 0.0008
vn -0 -1 0.0008
vn -0 -1 0.0006
vn -0 -1 0.0007
vn 0.0001 -1 0.0006
vn -0 -1 0.0006
vn -0 -1 0.0008
vn -0 -1 0.0007
vn -0 -1 0.0006
vn 0.0001 -1 0.0004
vn -0 -1 0.0008
vn -0 -1 0.0005
vn -0 -1 0.0008
vn -0 -1 0.0005
vn -0 -1 0.0005
vn -0 -1 0.0006
vn -0 -1 0.0008
vn -0 -1 0.0006
vn 0.0001 -1 0.0005
vn 0.0001 -1 0.0004
vn -0 -1 0.0006
vn 0.0001 -1 0.0005
vn 0.0001 -1 0.0005
vn -0 -1 0.0006
vn -0.0001 -1 0.0009
vn 0.0001 -1 0.0005
vn -0 -1 0.0009
vn -0 -1 0.0006
vn -0 -1 0.0005
vn -0 -1 0.0006
vn -0 -1 0.0007
vn -0.0001 -1 0.0009
vn -0 -1 0.0006
vn -0 -1 0.0008
vn -0 -1 0.0007
vn -0 -1 0.0006
vn -0 -1 0.0009
vn -0 -1 0.0008
vn -0 -1 0.0006
vn -0 -1 0.0006
vn -0 -1 0.0009
vn -0 -1 0.0006
vn -0 -1 0.0007
vn -0 -1 0.0006
vn -0 -1 0.0005
vn -0 -1 0.0007
vn -0 -1 0.0006
vn -0 -1 0.0006
vn -0 -1 0.0007
vn -0 -1 0.0005
vn -0 -1 0.0006
vn -0 -1 0.0008
vn -0 -1 0.0007
vn -0 -1 0.001
vn -0 -1 0.0008
vn -0 -1 0.0006
vn -0 -1 0.0005
vn -0 -1 0.0008
vn -0 -1 0.001
vn -0 -1 0.0005
vn -0 -1 0.0001
vn -0 -1 0.0008
vn -0 -1 0.0007
vn -0 -1 0.0001
vn -0 -1 0.0005
vn -0 -1 0.0002
vn -0 -1 0.0001
vn -0 -1 0.0007
vn -0 -1 0.0006
vn -0 -1 0.0001
vn -0 -1 0.0002
vn -0 -1 0.0006
vn -0 -1 0.0007
vn -0 -1 0.0001
vn -0 -1 0.0007
vn -0 -1 0.0007
vn -0 -1 0.0006
vn -0 -1 0.0007
vn -0 -1 0.0007
vn -0 -1 0.0007
vn -0 -1 0.0005
vn -0 -1 0.0007
vn -0 -1 0.0007
vn -0 -1 0.0005
vn -0 -1 0.0007
vn -0 -1 0.0007
vn -0 -1 0.0007
vn -0 -1 0.0007
vn -0 -1 0.0005
vn 0.3769 0.0006 0.9262
vn 0.349 0.0007 0.9371
vn 0.349 0.0007 0.9371
vn 0.3769 0.0006 0.9262
vn 0.349 0.0007 0.9371
vn 0.3179 0.0006 0.9481
vn 0.3179 0.0006 0.9481
vn 0.349 0.0007 0.9371
vn 0.3179 0.0006 0.9481
vn 0.2843 0.0008 0.9587
vn 0.2843 0.0008 0.9587
vn 0.3179 0.0006 0.9481
vn 0.2843 0.0008 0.9587
vn 0.2481 0.0008 0.9687
vn 0.2481 0.0008 0.9687
vn 0.2843 0.0008 0.9587
vn 0.2481 0.0008 0.9687
vn 0.2107 0.0008 0.9775
vn 0.2107 0.0008 0.9775
vn 0.2481 0.0008 0.9687
vn 0.2107 0.0008 0.9775
vn 0.1726 0.0007 0.985
vn 0.1726 0.0007 0.985
vn 0.2107 0.0008 0.9775
vn 0.1726 0.0007 0.985
vn 0.1346 0.0006 0.9909
vn 0.1346 0.0006 0.9909
vn 0.1726 0.0007 0.985
vn 0.1346 0.0006 0.9909
vn 0.0975 0.0008 0.9952
vn 0.0975 0.0008 0.9952
vn 0.1346 0.0006 0.9909
vn 0.0975 0.0008 0.9952
vn 0.0625 0.0005 0.998
vn 0.0625 0.0005 0.998
vn 0.0975 0.0008 0.9952
vn 0.0625 0.0005 0.998
vn 0.03 0.0006 0.9996
vn 0.03 0.0006 0.9996
vn 0.0625 0.0005 0.998
vn 0.03 0.0006 0.9996
vn -0.0219 0.0007 0.9998
vn -0.0222 0.0006 0.9998
vn 0.03 0.0006 0.9996
vn -0.0219 0.0007 0.9998
vn -0.1184 0.0008 0.993
vn -0.1184 0.0008 0.993
vn -0.0222 0.0006 0.9998
vn -0.1184 0.0008 0.993
vn -0.2386 0.0008 0.9711
vn -0.2386 0.0008 0.9711
vn -0.1184 0.0008 0.993
vn -0.2386 0.0008 0.9711
vn -0.3583 0.0007 0.9336
vn -0.3583 0.0007 0.9336
vn -0.2386 0.0008 0.9711
vn -0.3583 0.0007 0.9336
vn -0.4752 0.0006 0.8799
vn -0.4752 0.0006 0.8799
vn -0.3583 0.0007 0.9336
vn -0.4752 0.0006 0.8799
vn -0.5866 0.0005 0.8099
vn -0.5866 0.0005 0.8099
vn -0.4752 0.0006 0.8799
vn -0.5866 0.0005 0.8099
vn -0.6896 0.0005 0.7242
vn -0.6896 0.0005 0.7242
vn -0.5866 0.0005 0.8099
vn -0.6896 0.0005 0.7242
vn -0.7813 0.0004 0.6242
vn -0.7813 0.0004 0.6242
vn -0.6896 0.0005 0.7242
vn -0.7813 0.0004 0.6242
vn -0.859 0.0004 0.5119
vn -0.859 0.0004 0.5119
vn -0.7813 0.0004 0.6242
vn -0.859 0.0004 0.5119
vn -0.921 0.0003 0.3896
vn -0.9208 0.0003 0.3899
vn -0.859 0.0004 0.5119
vn -0.921 0.0003 0.3896
vn -0.9653 0.0002 0.2613
vn -0.9653 0.0002 0.2613
vn -0.9208 0.0003 0.3899
vn -0.9653 0.0002 0.2613
vn -0.9915 0.0001 0.1303
vn -0.9915 0.0001 0.1303
vn -0.9653 0.0002 0.2613
vn -0.9915 0.0001 0.1303
vn -1 -0 -0.0006
vn -1 -0 -0.0006
vn -0.9915 0.0001 0.1303
vn -1 -0 -0.0006
vn -0.9913 -0.0001 -0.1319
vn -0.9913 -0.0001 -0.1318
vn -1 -0 -0.0006
vn -0.9913 -0.0001 -0.1319
vn -0.9648 -0.0002 -0.2629
vn -0.9648 -0.0002 -0.2629
vn -0.9913 -0.0001 -0.1318
vn -0.9648 -0.0002 -0.2629
vn -0.9208 -0.0003 -0.3901
vn -0.9208 -0.0003 -0.3901
vn -0.9648 -0.0002 -0.2629
vn -0.9208 -0.0003 -0.3901
vn -0.8601 -0.0004 -0.5101
vn -0.8601 -0.0004 -0.51
vn -0.9208 -0.0003 -0.3901
vn -0.8601 -0.0004 -0.5101
vn -0.7844 -0.0005 -0.6202
vn -0.7844 -0.0005 -0.6202
vn -0.8601 -0.0004 -0.51
vn -0.7844 -0.0005 -0.6202
vn -0.6954 -0.0006 -0.7186
vn -0.6954 -0.0006 -0.7186
vn -0.7844 -0.0005 -0.6202
vn -0.6954 -0.0006 -0.7186
vn -0.5952 -0.0006 -0.8036
vn -0.5952 -0.0006 -0.8036
vn -0.6954 -0.0006 -0.7186
vn -0.5952 -0.0006 -0.8036
vn -0.4855 -0.0007 -0.8742
vn -0.4855 -0.0007 -0.8742
vn -0.5952 -0.0006 -0.8036
vn -0.4855 -0.0007 -0.8742
vn -0.3688 -0.0007 -0.9295
vn -0.3688 -0.0007 -0.9295
vn -0.4855 -0.0007 -0.8742
vn -0.3688 -0.0007 -0.9295
vn -0.2474 -0.0006 -0.9689
vn -0.2474 -0.0006 -0.9689
vn -0.3688 -0.0007 -0.9295
vn -0.2474 -0.0006 -0.9689
vn -0.1235 -0.0006 -0.9923
vn -0.1235 -0.0006 -0.9923
vn -0.2474 -0.0006 -0.9689
vn -0.1235 -0.0006 -0.9923
vn -0.0235 -0.0007 -0.9997
vn -0.0235 -0.0007 -0.9997
vn -0.1235 -0.0006 -0.9923
vn -0.0235 -0.0007 -0.9997
vn 0.0307 -0.0007 -0.9995
vn 0.0307 -0.0007 -0.9995
vn -0.0235 -0.0007 -0.9997
vn 0.0307 -0.0007 -0.9995
vn 0.0661 -0.0007 -0.9978
vn 0.0661 -0.0007 -0.9978
vn 0.0307 -0.0007 -0.9995
vn 0.0661 -0.0007 -0.9978
vn 0.1056 -0.0008 -0.9944
vn 0.1056 -0.0008 -0.9944
vn 0.0661 -0.0007 -0.9978
vn 0.1056 -0.0008 -0.9944
vn 0.1477 -0.0008 -0.989
vn 0.1477 -0.0008 -0.989
vn 0.1056 -0.0008 -0.9944
vn 0.1477 -0.0008 -0.989
vn 0.19 -0.0008 -0.9818
vn 0.19 -0.0008 -0.9818
vn 0.1477 -0.0008 -0.989
vn 0.19 -0.0008 -0.9818
vn 0.2306 -0.0008 -0.973
vn 0.2306 -0.0008 -0.973
vn 0.19 -0.0008 -0.9818
vn 0.2306 -0.0008 -0.973
vn 0.2683 -0.0007 -0.9633
vn 0.2683 -0.0007 -0.9633
vn 0.2306 -0.0008 -0.973
vn 0.2683 -0.0007 -0.9633
vn 0.3015 -0.0006 -0.9535
vn 0.3015 -0.0006 -0.9535
vn 0.2683 -0.0007 -0.9633
vn 0.3015 -0.0006 -0.9535
vn 0.3299 -0.0007 -0.944
vn 0.3299 -0.0007 -0.944
vn 0.3015 -0.0006 -0.9535
vn 0.3299 -0.0007 -0.944
vn 0.3534 -0.0007 -0.9355
vn 0.3534 -0.0007 -0.9355
vn 0.3299 -0.0007 -0.944
vn 0.3534 -0.0007 -0.9355
vn 0.3724 -0.0006 -0.9281
vn 0.3724 -0.0006 -0.9281
vn 0.3534 -0.0007 -0.9355
vn 0.3724 -0.0006 -0.9281
vn 0.8309 -0.0004 -0.5564
vn 0.8308 -0.0004 -0.5566
vn 0.3724 -0.0006 -0.9281
vn 0.8309 -0.0004 -0.5564
vn 0.5166 0.0005 0.8563
vn 0.5169 0.0005 0.8561
vn 0.8308 -0.0004 -0.5566
vn 0.5166 0.0005 0.8563
vn -0.4494 0.0005 0.8933
vn -0.4494 0.0005 0.8933
vn 0.5169 0.0005 0.8561
vn -0.4494 0.0005 0.8933
vn -0.4154 0.0005 0.9097
vn -0.4154 0.0005 0.9097
vn -0.4494 0.0005 0.8933
vn -0.4154 0.0005 0.9097
vn -0.3798 0.0007 0.9251
vn -0.3798 0.0007 0.9251
vn -0.4154 0.0005 0.9097
vn -0.3798 0.0007 0.9251
vn -0.3428 0.0007 0.9394
vn -0.3428 0.0007 0.9394
vn -0.3798 0.0007 0.9251
vn -0.3428 0.0007 0.9394
vn -0.3044 0.0007 0.9525
vn -0.3044 0.0007 0.9525
vn -0.3428 0.0007 0.9394
vn -0.3044 0.0007 0.9525
vn -0.2645 0.0006 0.9644
vn -0.2645 0.0006 0.9644
vn -0.3044 0.0007 0.9525
vn -0.2645 0.0006 0.9644
vn -0.2232 0.0006 0.9748
vn -0.2232 0.0006 0.9748
vn -0.2645 0.0006 0.9644
vn -0.2232 0.0006 0.9748
vn -0.1807 0.0007 0.9835
vn -0.1807 0.0007 0.9835
vn -0.2232 0.0006 0.9748
vn -0.1807 0.0007 0.9835
vn -0.1369 0.0007 0.9906
vn -0.1369 0.0007 0.9906
vn -0.1807 0.0007 0.9835
vn -0.1369 0.0007 0.9906
vn -0.092 0.0007 0.9958
vn -0.092 0.0007 0.9958
vn -0.1369 0.0007 0.9906
vn -0.092 0.0007 0.9958
vn -0.0464 0.0007 0.9989
vn -0.0464 0.0007 0.9989
vn -0.092 0.0007 0.9958
vn -0.0464 0.0007 0.9989
vn 0.0201 0.0007 0.9998
vn 0.0201 0.0007 0.9998
vn -0.0464 0.0007 0.9989
vn 0.0201 0.0007 0.9998
vn 0.1277 0.0007 0.9918
vn 0.1277 0.0007 0.9918
vn 0.0201 0.0007 0.9998
vn 0.1277 0.0007 0.9918
vn 0.2546 0.0007 0.967
vn 0.2546 0.0007 0.967
vn 0.1277 0.0007 0.9918
vn 0.2546 0.0007 0.967
vn 0.3781 0.0007 0.9258
vn 0.3781 0.0007 0.9258
vn 0.2546 0.0007 0.967
vn 0.3781 0.0007 0.9258
vn 0.4955 0.0005 0.8686
vn 0.4953 0.0007 0.8687
vn 0.3781 0.0007 0.9258
vn 0.4955 0.0005 0.8686
vn 0.6044 0.0004 0.7966
vn 0.6044 0.0004 0.7967
vn 0.4953 0.0007 0.8687
vn 0.6044 0.0004 0.7966
vn 0.7034 0.0004 0.7108
vn 0.7034 0.0004 0.7108
vn 0.6044 0.0004 0.7967
vn 0.7034 0.0004 0.7108
vn 0.7904 0.0005 0.6126
vn 0.7906 0.0004 0.6124
vn 0.7034 0.0004 0.7108
vn 0.7904 0.0005 0.6126
vn 0.8642 0.0004 0.5031
vn 0.8642 0.0004 0.5031
vn 0.7906 0.0004 0.6124
vn 0.8642 0.0004 0.5031
vn 0.9231 0.0003 0.3846
vn 0.9231 0.0003 0.3846
vn 0.8642 0.0004 0.5031
vn 0.9231 0.0003 0.3846
vn 0.9658 0.0002 0.2594
vn 0.9658 0.0002 0.2594
vn 0.9231 0.0003 0.3846
vn 0.9658 0.0002 0.2594
vn 0.9915 0.0001 0.1302
vn 0.9915 0.0001 0.1302
vn 0.9658 0.0002 0.2594
vn 0.9915 0.0001 0.1302
vn 1 -0 0.0007
vn 1 -0 0.0007
vn 0.9915 0.0001 0.1302
vn 1 -0 0.0007
vn 0.9918 -0.0001 -0.1282
vn 0.9917 -0.0001 -0.1282
vn 1 -0 0.0007
vn 0.9918 -0.0001 -0.1282
vn 0.966 -0.0002 -0.2585
vn 0.966 -0.0002 -0.2585
vn 0.9917 -0.0001 -0.1282
vn 0.966 -0.0002 -0.2585
vn 0.9215 -0.0003 -0.3883
vn 0.9217 -0.0003 -0.388
vn 0.966 -0.0002 -0.2585
vn 0.9215 -0.0003 -0.3883
vn 0.8589 -0.0004 -0.5122
vn 0.8589 -0.0004 -0.5122
vn 0.9217 -0.0003 -0.388
vn 0.8589 -0.0004 -0.5122
vn 0.779 -0.0004 -0.627
vn 0.779 -0.0004 -0.627
vn 0.8589 -0.0004 -0.5122
vn 0.779 -0.0004 -0.627
vn 0.6844 -0.0004 -0.7292
vn 0.6844 -0.0004 -0.7291
vn 0.779 -0.0004 -0.627
vn 0.6844 -0.0004 -0.7292
vn 0.5787 -0.0004 -0.8156
vn 0.5787 -0.0004 -0.8156
vn 0.6844 -0.0004 -0.7291
vn 0.5787 -0.0004 -0.8156
vn 0.4655 -0.0005 -0.885
vn 0.4655 -0.0005 -0.885
vn 0.5787 -0.0004 -0.8156
vn 0.4655 -0.0005 -0.885
vn 0.3482 -0.0007 -0.9374
vn 0.3482 -0.0007 -0.9374
vn 0.4655 -0.0005 -0.885
vn 0.3482 -0.0007 -0.9374
vn 0.2297 -0.0008 -0.9733
vn 0.2297 -0.0008 -0.9733
vn 0.3482 -0.0007 -0.9374
vn 0.2297 -0.0008 -0.9733
vn 0.113 -0.0008 -0.9936
vn 0.113 -0.0008 -0.9936
vn 0.2297 -0.0008 -0.9733
vn 0.113 -0.0008 -0.9936
vn 0.0182 -0.0008 -0.9998
vn 0.0182 -0.0008 -0.9998
vn 0.113 -0.0008 -0.9936
vn 0.0182 -0.0008 -0.9998
vn -0.0368 -0.0008 -0.9993
vn -0.0368 -0.0008 -0.9993
vn 0.0182 -0.0008 -0.9998
vn -0.0368 -0.0008 -0.9993
vn -0.0723 -0.0007 -0.9974
vn -0.0723 -0.0007 -0.9974
vn -0.0368 -0.0008 -0.9993
vn -0.0723 -0.0007 -0.9974
vn -0.1061 -0.0007 -0.9944
vn -0.1061 -0.0007 -0.9944
vn -0.0723 -0.0007 -0.9974
vn -0.1061 -0.0007 -0.9944
vn -0.138 -0.0007 -0.9904
vn -0.1383 -0.0007 -0.9904
vn -0.1061 -0.0007 -0.9944
vn -0.138 -0.0007 -0.9904
vn -0.1679 -0.0007 -0.9858
vn -0.1676 -0.0007 -0.9859
vn -0.1383 -0.0007 -0.9904
vn -0.1679 -0.0007 -0.9858
vn -0.1947 -0.0007 -0.9809
vn -0.1944 -0.0007 -0.9809
vn -0.1676 -0.0007 -0.9859
vn -0.1947 -0.0007 -0.9809
vn -0.2191 -0.0006 -0.9757
vn -0.2194 -0.0006 -0.9756
vn -0.1944 -0.0007 -0.9809
vn -0.2191 -0.0006 -0.9757
vn -0.2419 -0.0006 -0.9703
vn -0.2419 -0.0006 -0.9703
vn -0.2194 -0.0006 -0.9756
vn -0.2419 -0.0006 -0.9703
vn -0.2615 -0.0005 -0.9652
vn -0.2615 -0.0005 -0.9652
vn -0.2419 -0.0006 -0.9703
vn -0.2615 -0.0005 -0.9652
vn -0.2777 -0.0006 -0.9607
vn -0.2777 -0.0006 -0.9607
vn -0.2615 -0.0005 -0.9652
vn -0.2777 -0.0006 -0.9607
vn -0.2919 -0.0006 -0.9565
vn -0.2922 -0.0007 -0.9564
vn -0.2777 -0.0006 -0.9607
vn -0.2919 -0.0006 -0.9565
vn -0.8058 -0.0004 -0.5922
vn -0.8059 -0.0007 -0.5921
vn -0.2922 -0.0007 -0.9564
vn -0.8058 -0.0004 -0.5922
vn -0.7071 0.0006 0.7071
vn -0.7071 0.0006 0.7071
vn -0.8059 -0.0007 -0.5921
vn -0.7071 0.0006 0.7071
vn -0.7071 0.0006 0.7071
vn -0.7071 0.0006 0.7071
vn -0.7071 0.0006 0.7071
vn -0.7071 0.0006 0.7071
vn -0.7072 -0.0004 -0.7071
vn -0.7071 -0.0004 -0.7072
vn -0.7071 0.0006 0.7071
vn -0.7072 -0.0004 -0.7071
vn 0.7071 -0.0004 -0.7071
vn 0.7072 -0.0008 -0.707
vn -0.7071 -0.0004 -0.7072
vn 0.7071 -0.0004 -0.7071
vn 0.8337 0.0003 0.5522
vn 0.8337 0.0006 0.5523
vn 0.7072 -0.0008 -0.707
vn 0.8337 0.0003 0.5522
vn 0.3769 0.0006 0.9262
vn 0.3769 0.0006 0.9262
vn 0.8337 0.0006 0.5523
vt 0.336634 1
vt 0.356436 1
vt 0.346535 1
vt 0.336634 1
vt 0.366337 1
vt 0.356436 1
vt 0.336634 1
vt 0.376238 1
vt 0.366337 1
vt 0.336634 1
vt 0.386139 1
vt 0.376238 1
vt 0.326733 1
vt 0.386139 1
vt 0.336634 1
vt 0.326733 1
vt 0.39604 1
vt 0.386139 1
vt 0.326733 1
vt 0.405941 1
vt 0.39604 1
vt 0.326733 1
vt 0.415842 1
vt 0.405941 1
vt 0.316832 1
vt 0.415842 1
vt 0.326733 1
vt 0.316832 1
vt 0.425743 1
vt 0.415842 1
vt 0.316832 1
vt 0.435644 1
vt 0.425743 1
vt 0.306931 1
vt 0.435644 1
vt 0.316832 1
vt 0.306931 1
vt 0.445545 1
vt 0.435644 1
vt 0.306931 1
vt 0.455446 1
vt 0.445545 1
vt 0.29703 1
vt 0.455446 1
vt 0.306931 1
vt 0.29703 1
vt 0.465347 1
vt 0.455446 1
vt 0.29703 1
vt 0.574257 1
vt 0.465347 1
vt 0.574257 1
vt 0.564356 1
vt 0.465347 1
vt 0.564356 1
vt 0.554455 1
vt 0.465347 1
vt 0.554455 1
vt 0.544554 1
vt 0.465347 1
vt 0.544554 1
vt 0.534653 1
vt 0.465347 1
vt 0.534653 1
vt 0.524752 1
vt 0.465347 1
vt 0.524752 1
vt 0.514852 1
vt 0.465347 1
vt 0.514852 1
vt 0.504951 1
vt 0.465347 1
vt 0.504951 1
vt 0.49505 1
vt 0.465347 1
vt 0.49505 1
vt 0.485149 1
vt 0.465347 1
vt 0.485149 1
vt 0.475248 1
vt 0.465347 1
vt 0.287129 1
vt 0.594059 1
vt 0.29703 1
vt 0.594059 1
vt 0.584158 1
vt 0.29703 1
vt 0.584158 1
vt 0.574257 1
vt 0.29703 1
vt 0.287129 1
vt 0.60396 1
vt 0.594059 1
vt 0.287129 1
vt 0.613861 1
vt 0.60396 1
vt 0.287129 1
vt 0.623762 1
vt 0.613861 1
vt 0.277228 1
vt 0.623762 1
vt 0.287129 1
vt 0.277228 1
vt 0.633663 1
vt 0.623762 1
vt 0.277228 1
vt 0.643564 1
vt 0.633663 1
vt 0.267327 1
vt 0.643564 1
vt 0.277228 1
vt 0.267327 1
vt 0.653465 1
vt 0.643564 1
vt 0.267327 1
vt 0.663366 1
vt 0.653465 1
vt 0.257426 1
vt 0.663366 1
vt 0.267327 1
vt 0.257426 1
vt 0.673267 1
vt 0.663366 1
vt 0.247525 1
vt 0.673267 1
vt 0.257426 1
vt 0.247525 1
vt 0.683168 1
vt 0.673267 1
vt 0.247525 1
vt 0.693069 1
vt 0.683168 1
vt 0.237624 1
vt 0.693069 1
vt 0.247525 1
vt 0.237624 1
vt 0.70297 1
vt 0.693069 1
vt 0.227723 1
vt 0.70297 1
vt 0.237624 1
vt 0.227723 1
vt 0.712871 1
vt 0.70297 1
vt 0.227723 1
vt 0.722772 1
vt 0.712871 1
vt 0.217822 1
vt 0.722772 1
vt 0.227723 1
vt 0.970297 1
vt 0.990099 1
vt 0.980198 1
vt 0.970297 1
vt 0.960396 1
vt 0.990099 1
vt 0.960396 1
vt 1 1
vt 0.990099 1
vt 0.217822 1
vt 0.732673 1
vt 0.722772 1
vt 0.207921 1
vt 0.732673 1
vt 0.217822 1
vt 0.207921 1
vt 0.742574 1
vt 0.732673 1
vt 0.950495 1
vt 1 1
vt 0.960396 1
vt 0.19802 1
vt 0.742574 1
vt 0.207921 1
vt 0.19802 1
vt 0.752475 1
vt 0.742574 1
vt 0.19802 1
vt 0.762376 1
vt 0.752475 1
vt 0.188119 1
vt 0.762376 1
vt 0.19802 1
vt 0.188119 1
vt 0.772277 1
vt 0.762376 1
vt 0.178218 1
vt 0.772277 1
vt 0.188119 1
vt 0.178218 1
vt 0.782178 1
vt 0.772277 1
vt 0.178218 1
vt 0.792079 1
vt 0.782178 1
vt 0.168317 1
vt 0.792079 1
vt 0.178218 1
vt 0.168317 1
vt 0.80198 1
vt 0.792079 1
vt 0.940594 1
vt 1 1
vt 0.950495 1
vt 0.930693 1
vt 1 1
vt 0.940594 1
vt 0.920792 1
vt 1 1
vt 0.930693 1
vt 0.168317 1
vt 0.811881 1
vt 0.80198 1
vt 0.910891 1
vt 1 1
vt 0.920792 1
vt 0.90099 1
vt 1 1
vt 0.910891 1
vt 0.891089 1
vt 1 1
vt 0.90099 1
vt 0.168317 1
vt 0.821782 1
vt 0.811881 1
vt 0.158416 1
vt 0.821782 1
vt 0.168317 1
vt 0.881188 1
vt 1 1
vt 0.891089 1
vt 0.871287 1
vt 1 1
vt 0.881188 1
vt 0.861386 1
vt 1 1
vt 0.871287 1
vt 0.158416 1
vt 0.831683 1
vt 0.821782 1
vt 0.851485 1
vt 1 1
vt 0.861386 1
vt 0.841584 1
vt 1 1
vt 0.851485 1
vt 0.831683 1
vt 1 1
vt 0.841584 1
vt 0.158416 1
vt 1 1
vt 0.831683 1
vt 0.148515 1
vt 1 1
vt 0.158416 1
vt 0.148515 1
vt 0 1
vt 1 1
vt 0.148515 1
vt 0.009901 1
vt 0 1
vt 0.138614 1
vt 0.009901 1
vt 0.148515 1
vt 0.138614 1
vt 0.019802 1
vt 0.009901 1
vt 0.138614 1
vt 0.029703 1
vt 0.019802 1
vt 0.128713 1
vt 0.029703 1
vt 0.138614 1
vt 0.128713 1
vt 0.039604 1
vt 0.029703 1
vt 0.128713 1
vt 0.049505 1
vt 0.039604 1
vt 0.128713 1
vt 0.059406 1
vt 0.049505 1
vt 0.118812 1
vt 0.059406 1
vt 0.128713 1
vt 0.118812 1
vt 0.069307 1
vt 0.059406 1
vt 0.118812 1
vt 0.079208 1
vt 0.069307 1
vt 0.118812 1
vt 0.089109 1
vt 0.079208 1
vt 0.108911 1
vt 0.089109 1
vt 0.118812 1
vt 0.108911 1
vt 0.09901 1
vt 0.089109 1
vt 0.356436 1
vt 0.336634 1
vt 0.346535 1
vt 0.366337 1
vt 0.336634 1
vt 0.356436 1
vt 0.376238 1
vt 0.336634 1
vt 0.366337 1
vt 0.386139 1
vt 0.336634 1
vt 0.376238 1
vt 0.386139 1
vt 0.326733 1
vt 0.336634 1
vt 0.39604 1
vt 0.326733 1
vt 0.386139 1
vt 0.405941 1
vt 0.326733 1
vt 0.39604 1
vt 0.415842 1
vt 0.326733 1
vt 0.405941 1
vt 0.415842 1
vt 0.316832 1
vt 0.326733 1
vt 0.425743 1
vt 0.316832 1
vt 0.415842 1
vt 0.435644 1
vt 0.316832 1
vt 0.425743 1
vt 0.435644 1
vt 0.306931 1
vt 0.316832 1
vt 0.445545 1
vt 0.306931 1
vt 0.435644 1
vt 0.455446 1
vt 0.306931 1
vt 0.445545 1
vt 0.455446 1
vt 0.29703 1
vt 0.306931 1
vt 0.465347 1
vt 0.29703 1
vt 0.455446 1
vt 0.574257 1
vt 0.29703 1
vt 0.465347 1
vt 0.564356 1
vt 0.574257 1
vt 0.465347 1
vt 0.554455 1
vt 0.564356 1
vt 0.465347 1
vt 0.544554 1
vt 0.554455 1
vt 0.465347 1
vt 0.534653 1
vt 0.544554 1
vt 0.465347 1
vt 0.524752 1
vt 0.534653 1
vt 0.465347 1
vt 0.514852 1
vt 0.524752 1
vt 0.465347 1
vt 0.504951 1
vt 0.514852 1
vt 0.465347 1
vt 0.49505 1
vt 0.504951 1
vt 0.465347 1
vt 0.485149 1
vt 0.49505 1
vt 0.465347 1
vt 0.475248 1
vt 0.485149 1
vt 0.465347 1
vt 0.594059 1
vt 0.287129 1
vt 0.29703 1
vt 0.584158 1
vt 0.594059 1
vt 0.29703 1
vt 0.574257 1
vt 0.584158 1
vt 0.29703 1
vt 0.60396 1
vt 0.287129 1
vt 0.594059 1
vt 0.613861 1
vt 0.287129 1
vt 0.60396 1
vt 0.623762 1
vt 0.287129 1
vt 0.613861 1
vt 0.623762 1
vt 0.277228 1
vt 0.287129 1
vt 0.633663 1
vt 0.277228 1
vt 0.623762 1
vt 0.643564 1
vt 0.277228 1
vt 0.633663 1
vt 0.643564 1
vt 0.267327 1
vt 0.277228 1
vt 0.653465 1
vt 0.267327 1
vt 0.643564 1
vt 0.663366 1
vt 0.267327 1
vt 0.653465 1
vt 0.663366 1
vt 0.257426 1
vt 0.267327 1
vt 0.673267 1
vt 0.257426 1
vt 0.663366 1
vt 0.673267 1
vt 0.247525 1
vt 0.257426 1
vt 0.683168 1
vt 0.247525 1
vt 0.673267 1
vt 0.693069 1
vt 0.247525 1
vt 0.683168 1
vt 0.693069 1
vt 0.237624 1
vt 0.247525 1
vt 0.70297 1
vt 0.237624 1
vt 0.693069 1
vt 0.70297 1
vt 0.227723 1
vt 0.237624 1
vt 0.712871 1
vt 0.227723 1
vt 0.70297 1
vt 0.722772 1
vt 0.227723 1
vt 0.712871 1
vt 0.722772 1
vt 0.217822 1
vt 0.227723 1
vt 0.990099 1
vt 0.970297 1
vt 0.980198 1
vt 0.960396 1
vt 0.970297 1
vt 0.990099 1
vt 1 1
vt 0.960396 1
vt 0.990099 1
vt 0.732673 1
vt 0.217822 1
vt 0.722772 1
vt 0.732673 1
vt 0.207921 1
vt 0.217822 1
vt 0.742574 1
vt 0.207921 1
vt 0.732673 1
vt 1 1
vt 0.950495 1
vt 0.960396 1
vt 0.742574 1
vt 0.19802 1
vt 0.207921 1
vt 0.752475 1
vt 0.19802 1
vt 0.742574 1
vt 0.762376 1
vt 0.19802 1
vt 0.752475 1
vt 0.762376 1
vt 0.188119 1
vt 0.19802 1
vt 0.772277 1
vt 0.188119 1
vt 0.762376 1
vt 0.772277 1
vt 0.178218 1
vt 0.188119 1
vt 0.782178 1
vt 0.178218 1
vt 0.772277 1
vt 0.792079 1
vt 0.178218 1
vt 0.782178 1
vt 0.792079 1
vt 0.168317 1
vt 0.178218 1
vt 0.80198 1
vt 0.168317 1
vt 0.792079 1
vt 1 1
vt 0.940594 1
vt 0.950495 1
vt 1 1
vt 0.930693 1
vt 0.940594 1
vt 1 1
vt 0.920792 1
vt 0.930693 1
vt 0.811881 1
vt 0.168317 1
vt 0.80198 1
vt 1 1
vt 0.910891 1
vt 0.920792 1
vt 1 1
vt 0.90099 1
vt 0.910891 1
vt 1 1
vt 0.891089 1
vt 0.90099 1
vt 0.821782 1
vt 0.168317 1
vt 0.811881 1
vt 0.821782 1
vt 0.158416 1
vt 0.168317 1
vt 1 1
vt 0.881188 1
vt 0.891089 1
vt 1 1
vt 0.871287 1
vt 0.881188 1
vt 1 1
vt 0.861386 1
vt 0.871287 1
vt 0.831683 1
vt 0.158416 1
vt 0.821782 1
vt 1 1
vt 0.851485 1
vt 0.861386 1
vt 1 1
vt 0.841584 1
vt 0.851485 1
vt 1 1
vt 0.831683 1
vt 0.841584 1
vt 1 1
vt 0.158416 1
vt 0.831683 1
vt 1 1
vt 0.148515 1
vt 0.158416 1
vt 0 1
vt 0.148515 1
vt 1 1
vt 0.009901 1
vt 0.148515 1
vt 0 1
vt 0.009901 1
vt 0.138614 1
vt 0.148515 1
vt 0.019802 1
vt 0.138614 1
vt 0.009901 1
vt 0.029703 1
vt 0.138614 1
vt 0.019802 1
vt 0.029703 1
vt 0.128713 1
vt 0.138614 1
vt 0.039604 1
vt 0.128713 1
vt 0.029703 1
vt 0.049505 1
vt 0.128713 1
vt 0.039604 1
vt 0.059406 1
vt 0.128713 1
vt 0.049505 1
vt 0.059406 1
vt 0.118812 1
vt 0.128713 1
vt 0.069307 1
vt 0.118812 1
vt 0.059406 1
vt 0.079208 1
vt 0.118812 1
vt 0.069307 1
vt 0.089109 1
vt 0.118812 1
vt 0.079208 1
vt 0.089109 1
vt 0.108911 1
vt 0.118812 1
vt 0.09901 1
vt 0.108911 1
vt 0.089109 1
vt 0 0
vt 0.009804 0
vt 0.009804 1
vt 0 1
vt 0.009804 0
vt 0.019608 0
vt 0.019608 1
vt 0.009804 1
vt 0.019608 0
vt 0.029412 0
vt 0.029412 1
vt 0.019608 1
vt 0.029412 0
vt 0.039216 0
vt 0.039216 1
vt 0.029412 1
vt 0.039216 0
vt 0.04902 0
vt 0.04902 1
vt 0.039216 1
vt 0.04902 0
vt 0.058824 0
vt 0.058824 1
vt 0.04902 1
vt 0.058824 0
vt 0.068627 0
vt 0.068627 1
vt 0.058824 1
vt 0.068627 0
vt 0.078431 0
vt 0.078431 1
vt 0.068627 1
vt 0.078431 0
vt 0.088235 0
vt 0.088235 1
vt 0.078431 1
vt 0.088235 0
vt 0.098039 0
vt 0.098039 1
vt 0.088235 1
vt 0.098039 0
vt 0.107843 0
vt 0.107843 1
vt 0.098039 1
vt 0.107843 0
vt 0.117647 0
vt 0.117647 1
vt 0.107843 1
vt 0.117647 0
vt 0.127451 0
vt 0.127451 1
vt 0.117647 1
vt 0.127451 0
vt 0.137255 0
vt 0.137255 1
vt 0.127451 1
vt 0.137255 0
vt 0.147059 0
vt 0.147059 1
vt 0.137255 1
vt 0.147059 0
vt 0.156863 0
vt 0.156863 1
vt 0.147059 1
vt 0.156863 0
vt 0.166667 0
vt 0.166667 1
vt 0.156863 1
vt 0.166667 0
vt 0.176471 0
vt 0.176471 1
vt 0.166667 1
vt 0.176471 0
vt 0.186275 0
vt 0.186275 1
vt 0.176471 1
vt 0.186275 0
vt 0.196078 0
vt 0.196078 1
vt 0.186275 1
vt 0.196078 0
vt 0.205882 0
vt 0.205882 1
vt 0.196078 1
vt 0.205882 0
vt 0.215686 0
vt 0.215686 1
vt 0.205882 1
vt 0.215686 0
vt 0.22549 0
vt 0.22549 1
vt 0.215686 1
vt 0.22549 0
vt 0.235294 0
vt 0.235294 1
vt 0.22549 1
vt 0.235294 0
vt 0.245098 0
vt 0.245098 1
vt 0.235294 1
vt 0.245098 0
vt 0.254902 0
vt 0.254902 1
vt 0.245098 1
vt 0.254902 0
vt 0.264706 0
vt 0.264706 1
vt 0.254902 1
vt 0.264706 0
vt 0.27451 0
vt 0.27451 1
vt 0.264706 1
vt 0.27451 0
vt 0.284314 0
vt 0.284314 1
vt 0.27451 1
vt 0.284314 0
vt 0.294118 0
vt 0.294118 1
vt 0.284314 1
vt 0.294118 0
vt 0.303922 0
vt 0.303922 1
vt 0.294118 1
vt 0.303922 0
vt 0.313726 0
vt 0.313726 1
vt 0.303922 1
vt 0.313726 0
vt 0.323529 0
vt 0.323529 1
vt 0.313726 1
vt 0.323529 0
vt 0.333333 0
vt 0.333333 1
vt 0.323529 1
vt 0.333333 0
vt 0.343137 0
vt 0.343137 1
vt 0.333333 1
vt 0.343137 0
vt 0.352941 0
vt 0.352941 1
vt 0.343137 1
vt 0.352941 0
vt 0.362745 0
vt 0.362745 1
vt 0.352941 1
vt 0.362745 0
vt 0.372549 0
vt 0.372549 1
vt 0.362745 1
vt 0.372549 0
vt 0.382353 0
vt 0.382353 1
vt 0.372549 1
vt 0.382353 0
vt 0.392157 0
vt 0.392157 1
vt 0.382353 1
vt 0.392157 0
vt 0.401961 0
vt 0.401961 1
vt 0.392157 1
vt 0.401961 0
vt 0.411765 0
vt 0.411765 1
vt 0.401961 1
vt 0.411765 0
vt 0.421569 0
vt 0.421569 1
vt 0.411765 1
vt 0.421569 0
vt 0.431373 0
vt 0.431373 1
vt 0.421569 1
vt 0.431373 0
vt 0.441176 0
vt 0.441176 1
vt 0.431373 1
vt 0.441176 0
vt 0.45098 0
vt 0.45098 1
vt 0.441176 1
vt 0.45098 0
vt 0.460784 0
vt 0.460784 1
vt 0.45098 1
vt 0.460784 0
vt 0.470588 0
vt 0.470588 1
vt 0.460784 1
vt 0.470588 0
vt 0.480392 0
vt 0.480392 1
vt 0.470588 1
vt 0.480392 0
vt 0.490196 0
vt 0.490196 1
vt 0.480392 1
vt 0.490196 0
vt 0.5 0
vt 0.5 1
vt 0.490196 1
vt 0.5 0
vt 0.509804 0
vt 0.509804 1
vt 0.5 1
vt 0.509804 0
vt 0.519608 0
vt 0.519608 1
vt 0.509804 1
vt 0.519608 0
vt 0.529412 0
vt 0.529412 1
vt 0.519608 1
vt 0.529412 0
vt 0.539216 0
vt 0.539216 1
vt 0.529412 1
vt 0.539216 0
vt 0.54902 0
vt 0.54902 1
vt 0.539216 1
vt 0.54902 0
vt 0.558824 0
vt 0.558824 1
vt 0.54902 1
vt 0.558824 0
vt 0.568627 0
vt 0.568627 1
vt 0.558824 1
vt 0.568627 0
vt 0.578431 0
vt 0.578431 1
vt 0.568627 1
vt 0.578431 0
vt 0.588235 0
vt 0.588235 1
vt 0.578431 1
vt 0.588235 0
vt 0.598039 0
vt 0.598039 1
vt 0.588235 1
vt 0.598039 0
vt 0.607843 0
vt 0.607843 1
vt 0.598039 1
vt 0.607843 0
vt 0.617647 0
vt 0.617647 1
vt 0.607843 1
vt 0.617647 0
vt 0.627451 0
vt 0.627451 1
vt 0.617647 1
vt 0.627451 0
vt 0.637255 0
vt 0.637255 1
vt 0.627451 1
vt 0.637255 0
vt 0.647059 0
vt 0.647059 1
vt 0.637255 1
vt 0.647059 0
vt 0.656863 0
vt 0.656863 1
vt 0.647059 1
vt 0.656863 0
vt 0.666667 0
vt 0.666667 1
vt 0.656863 1
vt 0.666667 0
vt 0.676471 0
vt 0.676471 1
vt 0.666667 1
vt 0.676471 0
vt 0.686275 0
vt 0.686275 1
vt 0.676471 1
vt 0.686275 0
vt 0.696078 0
vt 0.696078 1
vt 0.686275 1
vt 0.696078 0
vt 0.705882 0
vt 0.705882 1
vt 0.696078 1
vt 0.705882 0
vt 0.715686 0
vt 0.715686 1
vt 0.705882 1
vt 0.715686 0
vt 0.72549 0
vt 0.72549 1
vt 0.715686 1
vt 0.72549 0
vt 0.735294 0
vt 0.735294 1
vt 0.72549 1
vt 0.735294 0
vt 0.745098 0
vt 0.745098 1
vt 0.735294 1
vt 0.745098 0
vt 0.754902 0
vt 0.754902 1
vt 0.745098 1
vt 0.754902 0
vt 0.764706 0
vt 0.764706 1
vt 0.754902 1
vt 0.764706 0
vt 0.77451 0
vt 0.77451 1
vt 0.764706 1
vt 0.77451 0
vt 0.784314 0
vt 0.784314 1
vt 0.77451 1
vt 0.784314 0
vt 0.794118 0
vt 0.794118 1
vt 0.784314 1
vt 0.794118 0
vt 0.803922 0
vt 0.803922 1
vt 0.794118 1
vt 0.803922 0
vt 0.813725 0
vt 0.813725 1
vt 0.803922 1
vt 0.813725 0
vt 0.823529 0
vt 0.823529 1
vt 0.813725 1
vt 0.823529 0
vt 0.833333 0
vt 0.833333 1
vt 0.823529 1
vt 0.833333 0
vt 0.843137 0
vt 0.843137 1
vt 0.833333 1
vt 0.843137 0
vt 0.852941 0
vt 0.852941 1
vt 0.843137 1
vt 0.852941 0
vt 0.862745 0
vt 0.862745 1
vt 0.852941 1
vt 0.862745 0
vt 0.872549 0
vt 0.872549 1
vt 0.862745 1
vt 0.872549 0
vt 0.882353 0
vt 0.882353 1
vt 0.872549 1
vt 0.882353 0
vt 0.892157 0
vt 0.892157 1
vt 0.882353 1
vt 0.892157 0
vt 0.901961 0
vt 0.901961 1
vt 0.892157 1
vt 0.901961 0
vt 0.911765 0
vt 0.911765 1
vt 0.901961 1
vt 0.911765 0
vt 0.921569 0
vt 0.921569 1
vt 0.911765 1
vt 0.921569 0
vt 0.931373 0
vt 0.931373 1
vt 0.921569 1
vt 0.931373 0
vt 0.941176 0
vt 0.941176 1
vt 0.931373 1
vt 0.941176 0
vt 0.95098 0
vt 0.95098 1
vt 0.941176 1
vt 0.95098 0
vt 0.960784 0
vt 0.960784 1
vt 0.95098 1
vt 0.960784 0
vt 0.970588 0
vt 0.970588 1
vt 0.960784 1
vt 0.970588 0
vt 0.980392 0
vt 0.980392 1
vt 0.970588 1
vt 0.980392 0
vt 0.990196 0
vt 0.990196 1
vt 0.980392 1
vt 0.990196 0
vt 1 0
vt 1 1
vt 0.990196 1
s off
f 1/1/1 2/2/2 3/3/3
f 4/4/4 5/5/5 6/6/6
f 7/7/7 8/8/8 9/9/9
f 10/10/10 11/11/11 12/12/12
f 13/13/13 14/14/14 15/15/15
f 16/16/16 17/17/17 18/18/18
f 19/19/19 20/20/20 21/21/21
f 22/22/22 23/23/23 24/24/24
f 25/25/25 26/26/26 27/27/27
f 28/28/28 29/29/29 30/30/30
f 31/31/31 32/32/32 33/33/33
f 34/34/34 35/35/35 36/36/36
f 37/37/37 38/38/38 39/39/39
f 40/40/40 41/41/41 42/42/42
f 43/43/43 44/44/44 45/45/45
f 46/46/46 47/47/47 48/48/48
f 49/49/49 50/50/50 51/51/51
f 52/52/52 53/53/53 54/54/54
f 55/55/55 56/56/56 57/57/57
f 58/58/58 59/59/59 60/60/60
f 61/61/61 62/62/62 63/63/63
f 64/64/64 65/65/65 66/66/66
f 67/67/67 68/68/68 69/69/69
f 70/70/70 71/71/71 72/72/72
f 73/73/73 74/74/74 75/75/75
f 76/76/76 77/77/77 78/78/78
f 79/79/79 80/80/80 81/81/81
f 82/82/82 83/83/83 84/84/84
f 85/85/85 86/86/86 87/87/87
f 88/88/88 89/89/89 90/90/90
f 91/91/91 92/92/92 93/93/93
f 94/94/94 95/95/95 96/96/96
f 97/97/97 98/98/98 99/99/99
f 100/100/100 101/101/101 102/102/102
f 103/103/103 104/104/104 105/105/105
f 106/106/106 107/107/107 108/108/108
f 109/109/109 110/110/110 111/111/111
f 112/112/112 113/113/113 114/114/114
f 115/115/115 116/116/116 117/117/117
f 118/118/118 119/119/119 120/120/120
f 121/121/121 122/122/122 123/123/123
f 124/124/124 125/125/125 126/126/126
f 127/127/127 128/128/128 129/129/129
f 130/130/130 131/131/131 132/132/132
f 133/133/133 134/134/134 135/135/135
f 136/136/136 137/137/137 138/138/138
f 139/139/139 140/140/140 141/141/141
f 142/142/142 143/143/143 144/144/144
f 145/145/145 146/146/146 147/147/147
f 148/148/148 149/149/149 150/150/150
f 151/151/151 152/152/152 153/153/153
f 154/154/154 155/155/155 156/156/156
f 157/157/157 158/158/158 159/159/159
f 160/160/160 161/161/161 162/162/162
f 163/163/163 164/164/164 165/165/165
f 166/166/166 167/167/167 168/168/168
f 169/169/169 170/170/170 171/171/171
f 172/172/172 173/173/173 174/174/174
f 175/175/175 176/176/176 177/177/177
f 178/178/178 179/179/179 180/180/180
f 181/181/181 182/182/182 183/183/183
f 184/184/184 185/185/185 186/186/186
f 187/187/187 188/188/188 189/189/189
f 190/190/190 191/191/191 192/192/192
f 193/193/193 194/194/194 195/195/195
f 196/196/196 197/197/197 198/198/198
f 199/199/199 200/200/200 201/201/201
f 202/202/202 203/203/203 204/204/204
f 205/205/205 206/206/206 207/207/207
f 208/208/208 209/209/209 210/210/210
f 211/211/211 212/212/212 213/213/213
f 214/214/214 215/215/215 216/216/216
f 217/217/217 218/218/218 219/219/219
f 220/220/220 221/221/221 222/222/222
f 223/223/223 224/224/224 225/225/225
f 226/226/226 227/227/227 228/228/228
f 229/229/229 230/230/230 231/231/231
f 232/232/232 233/233/233 234/234/234
f 235/235/235 236/236/236 237/237/237
f 238/238/238 239/239/239 240/240/240
f 241/241/241 242/242/242 243/243/243
f 244/244/244 245/245/245 246/246/246
f 247/247/247 248/248/248 249/249/249
f 250/250/250 251/251/251 252/252/252
f 253/253/253 254/254/254 255/255/255
f 256/256/256 257/257/257 258/258/258
f 259/259/259 260/260/260 261/261/261
f 262/262/262 263/263/263 264/264/264
f 265/265/265 266/266/266 267/267/267
f 268/268/268 269/269/269 270/270/270
f 271/271/271 272/272/272 273/273/273
f 274/274/274 275/275/275 276/276/276
f 277/277/277 278/278/278 279/279/279
f 280/280/280 281/281/281 282/282/282
f 283/283/283 284/284/284 285/285/285
f 286/286/286 287/287/287 288/288/288
f 289/289/289 290/290/290 291/291/291
f 292/292/292 293/293/293 294/294/294
f 295/295/295 296/296/296 297/297/297
f 298/298/298 299/299/299 300/300/300
f 301/301/301 302/302/302 303/303/303
f 304/304/304 305/305/305 306/306/306
f 307/307/307 308/308/308 309/309/309
f 310/310/310 311/311/311 312/312/312
f 313/313/313 314/314/314 315/315/315
f 316/316/316 317/317/317 318/318/318
f 319/319/319 320/320/320 321/321/321
f 322/322/322 323/323/323 324/324/324
f 325/325/325 326/326/326 327/327/327
f 328/328/328 329/329/329 330/330/330
f 331/331/331 332/332/332 333/333/333
f 334/334/334 335/335/335 336/336/336
f 337/337/337 338/338/338 339/339/339
f 340/340/340 341/341/341 342/342/342
f 343/343/343 344/344/344 345/345/345
f 346/346/346 347/347/347 348/348/348
f 349/349/349 350/350/350 351/351/351
f 352/352/352 353/353/353 354/354/354
f 355/355/355 356/356/356 357/357/357
f 358/358/358 359/359/359 360/360/360
f 361/361/361 362/362/362 363/363/363
f 364/364/364 365/365/365 366/366/366
f 367/367/367 368/368/368 369/369/369
f 370/370/370 371/371/371 372/372/372
f 373/373/373 374/374/374 375/375/375
f 376/376/376 377/377/377 378/378/378
f 379/379/379 380/380/380 381/381/381
f 382/382/382 383/383/383 384/384/384
f 385/385/385 386/386/386 387/387/387
f 388/388/388 389/389/389 390/390/390
f 391/391/391 392/392/392 393/393/393
f 394/394/394 395/395/395 396/396/396
f 397/397/397 398/398/398 399/399/399
f 400/400/400 401/401/401 402/402/402
f 403/403/403 404/404/404 405/405/405
f 406/406/406 407/407/407 408/408/408
f 409/409/409 410/410/410 411/411/411
f 412/412/412 413/413/413 414/414/414
f 415/415/415 416/416/416 417/417/417
f 418/418/418 419/419/419 420/420/420
f 421/421/421 422/422/422 423/423/423
f 424/424/424 425/425/425 426/426/426
f 427/427/427 428/428/428 429/429/429
f 430/430/430 431/431/431 432/432/432
f 433/433/433 434/434/434 435/435/435
f 436/436/436 437/437/437 438/438/438
f 439/439/439 440/440/440 441/441/441
f 442/442/442 443/443/443 444/444/444
f 445/445/445 446/446/446 447/447/447
f 448/448/448 449/449/449 450/450/450
f 451/451/451 452/452/452 453/453/453
f 454/454/454 455/455/455 456/456/456
f 457/457/457 458/458/458 459/459/459
f 460/460/460 461/461/461 462/462/462
f 463/463/463 464/464/464 465/465/465
f 466/466/466 467/467/467 468/468/468
f 469/469/469 470/470/470 471/471/471
f 472/472/472 473/473/473 474/474/474
f 475/475/475 476/476/476 477/477/477
f 478/478/478 479/479/479 480/480/480
f 481/481/481 482/482/482 483/483/483
f 484/484/484 485/485/485 486/486/486
f 487/487/487 488/488/488 489/489/489
f 490/490/490 491/491/491 492/492/492
f 493/493/493 494/494/494 495/495/495
f 496/496/496 497/497/497 498/498/498
f 499/499/499 500/500/500 501/501/501
f 502/502/502 503/503/503 504/504/504
f 505/505/505 506/506/506 507/507/507
f 508/508/508 509/509/509 510/510/510
f 511/511/511 512/512/512 513/513/513
f 514/514/514 515/515/515 516/516/516
f 517/517/517 518/518/518 519/519/519
f 520/520/520 521/521/521 522/522/522
f 523/523/523 524/524/524 525/525/525
f 526/526/526 527/527/527 528/528/528
f 529/529/529 530/530/530 531/531/531
f 532/532/532 533/533/533 534/534/534
f 535/535/535 536/536/536 537/537/537
f 538/538/538 539/539/539 540/540/540
f 541/541/541 542/542/542 543/543/543
f 544/544/544 545/545/545 546/546/546
f 547/547/547 548/548/548 549/549/549
f 550/550/550 551/551/551 552/552/552
f 553/553/553 554/554/554 555/555/555
f 556/556/556 557/557/557 558/558/558
f 559/559/559 560/560/560 561/561/561
f 562/562/562 563/563/563 564/564/564
f 565/565/565 566/566/566 567/567/567
f 568/568/568 569/569/569 570/570/570
f 571/571/571 572/572/572 573/573/573
f 574/574/574 575/575/575 576/576/576
f 577/577/577 578/578/578 579/579/579
f 580/580/580 581/581/581 582/582/582
f 583/583/583 584/584/584 585/585/585
f 586/586/586 587/587/587 588/588/588
f 589/589/589 590/590/590 591/591/591
f 592/592/592 593/593/593 594/594/594
f 595/595/595 596/596/596 597/597/597
f 598/598/598 599/599/599 600/600/600
f 601/601/601 602/602/602 603/603/603
f 601/601/601 603/603/603 604/604/604
f 605/605/605 606/606/606 607/607/607
f 605/605/605 607/607/607 608/608/608
f 609/609/609 610/610/610 611/611/611
f 609/609/609 611/611/611 612/612/612
f 613/613/613 614/614/614 615/615/615
f 613/613/613 615/615/615 616/616/616
f 617/617/617 618/618/618 619/619/619
f 617/617/617 619/619/619 620/620/620
f 621/621/621 622/622/622 623/623/623
f 621/621/621 623/623/623 624/624/624
f 625/625/625 626/626/626 627/627/627
f 625/625/625 627/627/627 628/628/628
f 629/629/629 630/630/630 631/631/631
f 629/629/629 631/631/631 632/632/632
f 633/633/633 634/634/634 635/635/635
f 633/633/633 635/635/635 636/636/636
f 637/637/637 638/638/638 639/639/639
f 637/637/637 639/639/639 640/640/640
f 641/641/641 642/642/642 643/643/643
f 641/641/641 643/643/643 644/644/644
f 645/645/645 646/646/646 647/647/647
f 645/645/645 647/647/647 648/648/648
f 649/649/649 650/650/650 651/651/651
f 649/649/649 651/651/651 652/652/652
f 653/653/653 654/654/654 655/655/655
f 653/653/653 655/655/655 656/656/656
f 657/657/657 658/658/658 659/659/659
f 657/657/657 659/659/659 660/660/660
f 661/661/661 662/662/662 663/663/663
f 661/661/661 663/663/663 664/664/664
f 665/665/665 666/666/666 667/667/667
f 665/665/665 667/667/667 668/668/668
f 669/669/669 670/670/670 671/671/671
f 669/669/669 671/671/671 672/672/672
f 673/673/673 674/674/674 675/675/675
f 673/673/673 675/675/675 676/676/676
f 677/677/677 678/678/678 679/679/679
f 677/677/677 679/679/679 680/680/680
f 681/681/681 682/682/682 683/683/683
f 681/681/681 683/683/683 684/684/684
f 685/685/685 686/686/686 687/687/687
f 685/685/685 687/687/687 688/688/688
f 689/689/689 690/690/690 691/691/691
f 689/689/689 691/691/691 692/692/692
f 693/693/693 694/694/694 695/695/695
f 693/693/693 695/695/695 696/696/696
f 697/697/697 698/698/698 699/699/699
f 697/697/697 699/699/699 700/700/700
f 701/701/701 702/702/702 703/703/703
f 701/701/701 703/703/703 704/704/704
f 705/705/705 706/706/706 707/707/707
f 705/705/705 707/707/707 708/708/708
f 709/709/709 710/710/710 711/711/711
f 709/709/709 711/711/711 712/712/712
f 713/713/713 714/714/714 715/715/715
f 713/713/713 715/715/715 716/716/716
f 717/717/717 718/718/718 719/719/719
f 717/717/717 719/719/719 720/720/720
f 721/721/721 722/722/722 723/723/723
f 721/721/721 723/723/723 724/724/724
f 725/725/725 726/726/726 727/727/727
f 725/725/725 727/727/727 728/728/728
f 729/729/729 730/730/730 731/731/731
f 729/729/729 731/731/731 732/732/732
f 733/733/733 734/734/734 735/735/735
f 733/733/733 735/735/735 736/736/736
f 737/737/737 738/738/738 739/739/739
f 737/737/737 739/739/739 740/740/740
f 741/741/741 742/742/742 743/743/743
f 741/741/741 743/743/743 744/744/744
f 745/745/745 746/746/746 747/747/747
f 745/745/745 747/747/747 748/748/748
f 749/749/749 750/750/750 751/751/751
f 749/749/749 751/751/751 752/752/752
f 753/753/753 754/754/754 755/755/755
f 753/753/753 755/755/755 756/756/756
f 757/757/757 758/758/758 759/759/759
f 757/757/757 759/759/759 760/760/760
f 761/761/761 762/762/762 763/763/763
f 761/761/761 763/763/763 764/764/764
f 765/765/765 766/766/766 767/767/767
f 765/765/765 767/767/767 768/768/768
f 769/769/769 770/770/770 771/771/771
f 769/769/769 771/771/771 772/772/772
f 773/773/773 774/774/774 775/775/775
f 773/773/773 775/775/775 776/776/776
f 777/777/777 778/778/778 779/779/779
f 777/777/777 779/779/779 780/780/780
f 781/781/781 782/782/782 783/783/783
f 781/781/781 783/783/783 784/784/784
f 785/785/785 786/786/786 787/787/787
f 785/785/785 787/787/787 788/788/788
f 789/789/789 790/790/790 791/791/791
f 789/789/789 791/791/791 792/792/792
f 793/793/793 794/794/794 795/795/795
f 793/793/793 795/795/795 796/796/796
f 797/797/797 798/798/798 799/799/799
f 797/797/797 799/799/799 800/800/800
f 801/801/801 802/802/802 803/803/803
f 801/801/801 803/803/803 804/804/804
f 805/805/805 806/806/806 807/807/807
f 805/805/805 807/807/807 808/808/808
f 809/809/809 810/810/810 811/811/811
f 809/809/809 811/811/811 812/812/812
f 813/813/813 814/814/814 815/815/815
f 813/813/813 815/815/815 816/816/816
f 817/817/817 818/818/818 819/819/819
f 817/817/817 819/819/819 820/820/820
f 821/821/821 822/822/822 823/823/823
f 821/821/821 823/823/823 824/824/824
f 825/825/825 826/826/826 827/827/827
f 825/825/825 827/827/827 828/828/828
f 829/829/829 830/830/830 831/831/831
f 829/829/829 831/831/831 832/832/832
f 833/833/833 834/834/834 835/835/835
f 833/833/833 835/835/835 836/836/836
f 837/837/837 838/838/838 839/839/839
f 837/837/837 839/839/839 840/840/840
f 841/841/841 842/842/842 843/843/843
f 841/841/841 843/843/843 844/844/844
f 845/845/845 846/846/846 847/847/847
f 845/845/845 847/847/847 848/848/848
f 849/849/849 850/850/850 851/851/851
f 849/849/849 851/851/851 852/852/852
f 853/853/853 854/854/854 855/855/855
f 853/853/853 855/855/855 856/856/856
f 857/857/857 858/858/858 859/859/859
f 857/857/857 859/859/859 860/860/860
f 861/861/861 862/862/862 863/863/863
f 861/861/861 863/863/863 864/864/864
f 865/865/865 866/866/866 867/867/867
f 865/865/865 867/867/867 868/868/868
f 869/869/869 870/870/870 871/871/871
f 869/869/869 871/871/871 872/872/872
f 873/873/873 874/874/874 875/875/875
f 873/873/873 875/875/875 876/876/876
f 877/877/877 878/878/878 879/879/879
f 877/877/877 879/879/879 880/880/880
f 881/881/881 882/882/882 883/883/883
f 881/881/881 883/883/883 884/884/884
f 885/885/885 886/886/886 887/887/887
f 885/885/885 887/887/887 888/888/888
f 889/889/889 890/890/890 891/891/891
f 889/889/889 891/891/891 892/892/892
f 893/893/893 894/894/894 895/895/895
f 893/893/893 895/895/895 896/896/896
f 897/897/897 898/898/898 899/899/899
f 897/897/897 899/899/899 900/900/900
f 901/901/901 902/902/902 903/903/903
f 901/901/901 903/903/903 904/904/904
f 905/905/905 906/906/906 907/907/907
f 905/905/905 907/907/907 908/908/908
f 909/909/909 910/910/910 911/911/911
f 909/909/909 911/911/911 912/912/912
f 913/913/913 914/914/914 915/915/915
f 913/913/913 915/915/915 916/916/916
f 917/917/917 918/918/918 919/919/919
f 917/917/917 919/919/919 920/920/920
f 921/921/921 922/922/922 923/923/923
f 921/921/921 923/923/923 924/924/924
f 925/925/925 926/926/926 927/927/927
f 925/925/925 927/927/927 928/928/928
f 929/929/929 930/930/930 931/931/931
f 929/929/929 931/931/931 932/932/932
f 933/933/933 934/934/934 935/935/935
f 933/933/933 935/935/935 936/936/936
f 937/937/937 938/938/938 939/939/939
f 937/937/937 939/939/939 940/940/940
f 941/941/941 942/942/942 943/943/943
f 941/941/941 943/943/943 944/944/944
f 945/945/945 946/946/946 947/947/947
f 945/945/945 947/947/947 948/948/948
f 949/949/949 950/950/950 951/951/951
f 949/949/949 951/951/951 952/952/952
f 953/953/953 954/954/954 955/955/955
f 953/953/953 955/955/955 956/956/956
f 957/957/957 958/958/958 959/959/959
f 957/957/957 959/959/959 960/960/960
f 961/961/961 962/962/962 963/963/963
f 961/961/961 963/963/963 964/964/964
f 965/965/965 966/966/966 967/967/967
f 965/965/965 967/967/967 968/968/968
f 969/969/969 970/970/970 971/971/971
f 969/969/969 971/971/971 972/972/972
f 973/973/973 974/974/974 975/975/975
f 973/973/973 975/975/975 976/976/976
f 977/977/977 978/978/978 979/979/979
f 977/977/977 979/979/979 980/980/980
f 981/981/981 982/982/982 983/983/983
f 981/981/981 983/983/983 984/984/984
f 985/985/985 986/986/986 987/987/987
f 985/985/985 987/987/987 988/988/988
f 989/989/989 990/990/990 991/991/991
f 989/989/989 991/991/991 992/992/992
f 993/993/993 994/994/994 995/995/995
f 993/993/993 995/995/995 996/996/996
f 997/997/997 998/998/998 999/999/999
f 997/997/997 999/999/999 1000/1000/1000
f 1001/1001/1001 1002/1002/1002 1003/1003/1003
f 1001/1001/1001 1003/1003/1003 1004/1004/1004
f 1005/1005/1005 1006/1006/1006 1007/1007/1007
f 1005/1005/1005 1007/1007/1007 1008/1008/1008
