v 0.151201 0.024117 0.062328
v 0.157337 0.024087 0.019633
v 0.151201 0.024087 0.019633
v 0.151201 0.024117 0.062328
v 0.157337 0.024101 0.039165
v 0.157337 0.024087 0.019633
v 0.157337 0.024101 0.039165
v 0.182941 0.024087 0.019633
v 0.175303 0.024087 0.019633
v 0.157337 0.024101 0.039165
v 0.164348 0.024101 0.039853
v 0.182941 0.024087 0.019633
v 0.151201 0.024117 0.062328
v 0.157337 0.024102 0.04123
v 0.157337 0.024101 0.039165
v 0.157337 0.024102 0.04123
v 0.164348 0.024101 0.039853
v 0.157337 0.024101 0.039165
v 0.157337 0.024102 0.04123
v 0.187511 0.024117 0.062328
v 0.164348 0.024101 0.039853
v 0.151201 0.024117 0.062328
v 0.157337 0.024117 0.062328
v 0.157337 0.024102 0.04123
v 0.17906 0.024117 0.062328
v 0.187511 0.024117 0.062328
v 0.157337 0.024102 0.04123
v 0.157337 0.020331 0.019635
v 0.151201 0.020361 0.06233
v 0.151201 0.020331 0.019635
v 0.157337 0.020344 0.039168
v 0.151201 0.020361 0.06233
v 0.157337 0.020331 0.019635
v 0.182941 0.020331 0.019635
v 0.157337 0.020344 0.039168
v 0.175303 0.020331 0.019635
v 0.164348 0.020345 0.039856
v 0.157337 0.020344 0.039168
v 0.182941 0.020331 0.019635
v 0.157337 0.020346 0.041233
v 0.151201 0.020361 0.06233
v 0.157337 0.020344 0.039168
v 0.164348 0.020345 0.039856
v 0.157337 0.020346 0.041233
v 0.157337 0.020344 0.039168
v 0.187511 0.020361 0.06233
v 0.157337 0.020346 0.041233
v 0.164348 0.020345 0.039856
v 0.157337 0.020361 0.06233
v 0.151201 0.020361 0.06233
v 0.157337 0.020346 0.041233
v 0.187511 0.020361 0.06233
v 0.17906 0.020361 0.06233
v 0.157337 0.020346 0.041233
v 0.17906 0.024117 0.062328
v 0.157337 0.024102 0.04123
v 0.157337 0.020346 0.041233
v 0.17906 0.020361 0.06233
v 0.157337 0.024102 0.04123
v 0.157337 0.024117 0.062328
v 0.157337 0.020361 0.06233
v 0.157337 0.020346 0.041233
v 0.157337 0.024117 0.062328
v 0.151201 0.024117 0.062328
v 0.151201 0.020361 0.06233
v 0.157337 0.020361 0.06233
v 0.151201 0.024117 0.062328
v 0.151201 0.024087 0.019633
v 0.151201 0.020331 0.019635
v 0.151201 0.020361 0.06233
v 0.151201 0.024087 0.019633
v 0.157337 0.024087 0.019633
v 0.157337 0.020331 0.019635
v 0.151201 0.020331 0.019635
v 0.157337 0.024087 0.019633
v 0.157337 0.024101 0.039165
v 0.157337 0.020344 0.039168
v 0.157337 0.020331 0.019635
v 0.157337 0.024101 0.039165
v 0.175303 0.024087 0.019633
v 0.175303 0.020331 0.019635
v 0.157337 0.020344 0.039168
v 0.175303 0.024087 0.019633
v 0.182941 0.024087 0.019633
v 0.182941 0.020331 0.019635
v 0.175303 0.020331 0.019635
v 0.182941 0.024087 0.019633
v 0.164348 0.024101 0.039853
v 0.164348 0.020345 0.039856
v 0.182941 0.020331 0.019635
v 0.164348 0.024101 0.039853
v 0.187511 0.024117 0.062328
v 0.187511 0.020361 0.06233
v 0.164348 0.020345 0.039856
v 0.187511 0.024117 0.062328
v 0.17906 0.024117 0.062328
v 0.17906 0.020361 0.06233
v 0.187511 0.020361 0.06233
vn -0 1 -0.0007
vn -0 1 -0.0007
vn -0 1 -0.0007
vn -0 1 -0.0007
vn -0 1 -0.0006
vn -0 1 -0.0007
vn -0 1 -0.0006
vn -0 1 -0.0007
vn -0 1 -0.0007
vn -0 1 -0.0006
vn -0 1 -0.0007
vn -0 1 -0.0007
vn -0 1 -0.0007
vn -0 1 -0.0007
vn -0 1 -0.0006
vn -0 1 -0.0007
vn -0 1 -0.0007
vn -0 1 -0.0006
vn -0 1 -0.0007
vn -0 1 -0.0007
vn -0 1 -0.0007
vn -0 1 -0.0007
vn -0 1 -0.0007
vn -0 1 -0.0007
vn -0 1 -0.0007
vn -0 1 -0.0007
vn -0 1 -0.0007
vn -0 -1 0.0007
vn -0 -1 0.0007
vn -0 -1 0.0007
vn -0.0001 -1 0.0008
vn -0 -1 0.0007
vn -0 -1 0.0007
vn -0 -1 0.0007
vn -0.0001 -1 0.0008
vn -0 -1 0.0007
vn -0 -1 0.0007
vn -0.0001 -1 0.0008
vn -0 -1 0.0007
vn 0.0002 -1 0.0008
vn -0 -1 0.0007
vn -0.0001 -1 0.0008
vn -0 -1 0.0007
vn 0.0002 -1 0.0008
vn -0.0001 -1 0.0008
vn -0 -1 0.0007
vn 0.0002 -1 0.0008
vn -0 -1 0.0007
vn -0 -1 0.0007
vn -0 -1 0.0007
vn 0.0002 -1 0.0008
vn -0 -1 0.0007
vn -0 -1 0.0007
vn 0.0002 -1 0.0008
vn -0.3759 0.0005 0.9267
vn 0.3894 0.0006 0.9211
vn 0.3894 0.0006 0.9211
vn -0.3759 0.0005 0.9266
vn 0.3894 0.0006 0.9211
vn 0.7072 0.0007 0.7071
vn 0.7071 0.0004 0.7071
vn 0.3894 0.0006 0.9211
vn 0.7072 0.0007 0.7071
vn -0.7071 0.0004 0.7071
vn -0.7071 0.0004 0.7071
vn 0.7071 0.0004 0.7071
vn -0.7071 0.0004 0.7071
vn -0.7071 -0.0007 -0.7072
vn -0.7071 -0.0004 -0.7071
vn -0.7071 0.0004 0.7071
vn -0.7071 -0.0007 -0.7072
vn 0.7071 -0.0004 -0.7071
vn 0.7071 -0.0004 -0.7071
vn -0.7071 -0.0004 -0.7071
vn 0.7071 -0.0004 -0.7071
vn 0.3633 -0.0006 -0.9317
vn 0.3633 -0.0006 -0.9317
vn 0.7071 -0.0004 -0.7071
vn 0.3633 -0.0006 -0.9317
vn -0.4019 -0.0005 -0.9157
vn -0.4019 -0.0005 -0.9157
vn 0.3633 -0.0006 -0.9317
vn -0.4019 -0.0005 -0.9157
vn 0.9157 -0.0001 -0.4019
vn 0.9156 -0.0001 -0.402
vn -0.4019 -0.0005 -0.9157
vn 0.9157 -0.0001 -0.4019
vn 0.9996 -0 -0.0284
vn 0.9996 -0 -0.0285
vn 0.9156 -0.0001 -0.402
vn 0.9996 -0 -0.0284
vn 0.9267 0.0001 0.3758
vn 0.9268 0.0001 0.3756
vn 0.9996 -0 -0.0285
vn 0.9267 0.0001 0.3758
vn -0.3759 0.0005 0.9267
vn -0.3759 0.0005 0.9266
vn 0.9268 0.0001 0.3756
vt 0.3 1
vt 0.5 1
vt 0.4 1
vt 0.3 1
vt 0.6 1
vt 0.5 1
vt 0.6 1
vt 0.8 1
vt 0.7 1
vt 0.6 1
vt 0.9 1
vt 0.8 1
vt 0.3 1
vt 0.1 1
vt 0.6 1
vt 0.1 1
vt 0.9 1
vt 0.6 1
vt 0.1 1
vt 1 1
vt 0.9 1
vt 0.3 1
vt 0.2 1
vt 0.1 1
vt 0 1
vt 1 1
vt 0.1 1
vt 0.5 1
vt 0.3 1
vt 0.4 1
vt 0.6 1
vt 0.3 1
vt 0.5 1
vt 0.8 1
vt 0.6 1
vt 0.7 1
vt 0.9 1
vt 0.6 1
vt 0.8 1
vt 0.1 1
vt 0.3 1
vt 0.6 1
vt 0.9 1
vt 0.1 1
vt 0.6 1
vt 1 1
vt 0.1 1
vt 0.9 1
vt 0.2 1
vt 0.3 1
vt 0.1 1
vt 1 1
vt 0 1
vt 0.1 1
vt 0 0
vt 0.090909 0
vt 0.090909 1
vt 0 1
vt 0.090909 0
vt 0.181818 0
vt 0.181818 1
vt 0.090909 1
vt 0.181818 0
vt 0.272727 0
vt 0.272727 1
vt 0.181818 1
vt 0.272727 0
vt 0.363636 0
vt 0.363636 1
vt 0.272727 1
vt 0.363636 0
vt 0.454545 0
vt 0.454545 1
vt 0.363636 1
vt 0.454545 0
vt 0.545455 0
vt 0.545455 1
vt 0.454545 1
vt 0.545455 0
vt 0.636364 0
vt 0.636364 1
vt 0.545455 1
vt 0.636364 0
vt 0.727273 0
vt 0.727273 1
vt 0.636364 1
vt 0.727273 0
vt 0.818182 0
vt 0.818182 1
vt 0.727273 1
vt 0.818182 0
vt 0.909091 0
vt 0.909091 1
vt 0.818182 1
vt 0.909091 0
vt 1 0
vt 1 1
vt 0.909091 1
s off
f 1/1/1 2/2/2 3/3/3
f 4/4/4 5/5/5 6/6/6
f 7/7/7 8/8/8 9/9/9
f 10/10/10 11/11/11 12/12/12
f 13/13/13 14/14/14 15/15/15
f 16/16/16 17/17/17 18/18/18
f 19/19/19 20/20/20 21/21/21
f 22/22/22 23/23/23 24/24/24
f 25/25/25 26/26/26 27/27/27
f 28/28/28 29/29/29 30/30/30
f 31/31/31 32/32/32 33/33/33
f 34/34/34 35/35/35 36/36/36
f 37/37/37 38/38/38 39/39/39
f 40/40/40 41/41/41 42/42/42
f 43/43/43 44/44/44 45/45/45
f 46/46/46 47/47/47 48/48/48
f 49/49/49 50/50/50 51/51/51
f 52/52/52 53/53/53 54/54/54
f 55/55/55 56/56/56 57/57/57
f 55/55/55 57/57/57 58/58/58
f 59/59/59 60/60/60 61/61/61
f 59/59/59 61/61/61 62/62/62
f 63/63/63 64/64/64 65/65/65
f 63/63/63 65/65/65 66/66/66
f 67/67/67 68/68/68 69/69/69
f 67/67/67 69/69/69 70/70/70
f 71/71/71 72/72/72 73/73/73
f 71/71/71 73/73/73 74/74/74
f 75/75/75 76/76/76 77/77/77
f 75/75/75 77/77/77 78/78/78
f 79/79/79 80/80/80 81/81/81
f 79/79/79 81/81/81 82/82/82
f 83/83/83 84/84/84 85/85/85
f 83/83/83 85/85/85 86/86/86
f 87/87/87 88/88/88 89/89/89
f 87/87/87 89/89/89 90/90/90
f 91/91/91 92/92/92 93/93/93
f 91/91/91 93/93/93 94/94/94
f 95/95/95 96/96/96 97/97/97
f 95/95/95 97/97/97 98/98/98
