v 0.282124 0.024116 0.060564
v 0.288259 0.024086 0.017869
v 0.282124 0.024086 0.017869
v 0.282124 0.024116 0.060564
v 0.288259 0.024112 0.055055
v 0.288259 0.024086 0.017869
v 0.282124 0.024116 0.060564
v 0.30754 0.024112 0.055055
v 0.288259 0.024112 0.055055
v 0.282124 0.024116 0.060564
v 0.30754 0.024116 0.060564
v 0.30754 0.024112 0.055055
v 0.288259 0.02033 0.017871
v 0.282124 0.020359 0.060566
v 0.282124 0.02033 0.017871
v 0.288259 0.020356 0.055057
v 0.282124 0.020359 0.060566
v 0.288259 0.02033 0.017871
v 0.30754 0.020356 0.055057
v 0.282124 0.020359 0.060566
v 0.288259 0.020356 0.055057
v 0.30754 0.020359 0.060566
v 0.282124 0.020359 0.060566
v 0.30754 0.020356 0.055057
v 0.30754 0.024112 0.055055
v 0.30754 0.024116 0.060564
v 0.30754 0.020359 0.060566
v 0.30754 0.020356 0.055057
v 0.30754 0.024116 0.060564
v 0.282124 0.024116 0.060564
v 0.282124 0.020359 0.060566
v 0.30754 0.020359 0.060566
v 0.282124 0.024116 0.060564
v 0.282124 0.024086 0.017869
v 0.282124 0.02033 0.017871
v 0.282124 0.020359 0.060566
v 0.282124 0.024086 0.017869
v 0.288259 0.024086 0.017869
v 0.288259 0.02033 0.017871
v 0.282124 0.02033 0.017871
v 0.288259 0.024086 0.017869
v 0.288259 0.024112 0.055055
v 0.288259 0.020356 0.055057
v 0.288259 0.02033 0.017871
v 0.288259 0.024112 0.055055
v 0.30754 0.024112 0.055055
v 0.30754 0.020356 0.055057
v 0.288259 0.020356 0.055057
vn -0 1 -0.0007
vn -0 1 -0.0007
vn -0 1 -0.0007
vn -0 1 -0.0007
vn -0 1 -0.0007
vn -0 1 -0.0007
vn -0 1 -0.0007
vn -0 1 -0.0007
vn -0 1 -0.0007
vn -0 1 -0.0007
vn -0 1 -0.0007
vn -0 1 -0.0007
vn -0 -1 0.0007
vn 0.0001 -1 0.0006
vn -0 -1 0.0007
vn 0.0001 -1 0.0006
vn 0.0001 -1 0.0006
vn -0 -1 0.0007
vn -0 -1 0.0005
vn 0.0001 -1 0.0006
vn 0.0001 -1 0.0006
vn -0 -1 0.0005
vn 0.0001 -1 0.0006
vn -0 -1 0.0005
vn 0.7072 -0.0004 -0.7071
vn 0.7072 0.0007 0.707
vn 0.7071 0.0004 0.7071
vn 0.7071 -0.0004 -0.7071
vn 0.7072 0.0007 0.707
vn -0.7071 0.0004 0.7071
vn -0.7071 0.0004 0.7071
vn 0.7071 0.0004 0.7071
vn -0.7071 0.0004 0.7071
vn -0.7071 -0.0004 -0.7071
vn -0.7071 -0.0004 -0.7071
vn -0.7071 0.0004 0.7071
vn -0.7071 -0.0004 -0.7071
vn 0.7071 -0.0004 -0.7071
vn 0.7071 -0.0004 -0.7071
vn -0.7071 -0.0004 -0.7071
vn 0.7071 -0.0004 -0.7071
vn 0.7071 -0.0004 -0.7071
vn 0.7071 -0.0004 -0.7071
vn 0.7071 -0.0004 -0.7071
vn 0.7071 -0.0004 -0.7071
vn 0.7072 -0.0004 -0.7071
vn 0.7071 -0.0004 -0.7071
vn 0.7071 -0.0004 -0.7071
vt 0.4 1
vt 0.8 1
vt 0.6 1
vt 0.4 1
vt 1 1
vt 0.8 1
vt 0.4 1
vt 0 1
vt 1 1
vt 0.4 1
vt 0.2 1
vt 0 1
vt 0.8 1
vt 0.4 1
vt 0.6 1
vt 1 1
vt 0.4 1
vt 0.8 1
vt 0 1
vt 0.4 1
vt 1 1
vt 0.2 1
vt 0.4 1
vt 0 1
vt 0 0
vt 0.166667 0
vt 0.166667 1
vt 0 1
vt 0.166667 0
vt 0.333333 0
vt 0.333333 1
vt 0.166667 1
vt 0.333333 0
vt 0.5 0
vt 0.5 1
vt 0.333333 1
vt 0.5 0
vt 0.666667 0
vt 0.666667 1
vt 0.5 1
vt 0.666667 0
vt 0.833333 0
vt 0.833333 1
vt 0.666667 1
vt 0.833333 0
vt 1 0
vt 1 1
vt 0.833333 1
s off
f 1/1/1 2/2/2 3/3/3
f 4/4/4 5/5/5 6/6/6
f 7/7/7 8/8/8 9/9/9
f 10/10/10 11/11/11 12/12/12
f 13/13/13 14/14/14 15/15/15
f 16/16/16 17/17/17 18/18/18
f 19/19/19 20/20/20 21/21/21
f 22/22/22 23/23/23 24/24/24
f 25/25/25 26/26/26 27/27/27
f 25/25/25 27/27/27 28/28/28
f 29/29/29 30/30/30 31/31/31
f 29/29/29 31/31/31 32/32/32
f 33/33/33 34/34/34 35/35/35
f 33/33/33 35/35/35 36/36/36
f 37/37/37 38/38/38 39/39/39
f 37/37/37 39/39/39 40/40/40
f 41/41/41 42/42/42 43/43/43
f 41/41/41 43/43/43 44/44/44
f 45/45/45 46/46/46 47/47/47
f 45/45/45 47/47/47 48/48/48
