v -0.663074 -0.031369 -0.11404
v -0.663074 -0.031717 -0.049981
v -0.665174 -0.031433 -0.049979
v -0.665174 -0.031084 -0.114038
v -0.663074 -0.031717 -0.049981
v -0.663074 -0.031445 -0.047879
v -0.664789 -0.031317 -0.048264
v -0.665174 -0.031433 -0.049979
v -0.663074 -0.031717 -0.049981
v -0.599014 -0.031717 -0.049981
v -0.599014 -0.031445 -0.047879
v -0.663074 -0.031445 -0.047879
v -0.663074 -0.031369 -0.11404
v -0.599014 -0.031369 -0.11404
v -0.599014 -0.031717 -0.049981
v -0.663074 -0.031717 -0.049981
v -0.599014 -0.031717 -0.049981
v -0.596914 -0.031433 -0.049979
v -0.597299 -0.031317 -0.048264
v -0.599014 -0.031445 -0.047879
v -0.599014 -0.031717 -0.049981
v -0.599014 -0.031369 -0.11404
v -0.596914 -0.031084 -0.114038
v -0.596914 -0.031433 -0.049979
v -0.599014 -0.031369 -0.11404
v -0.663074 -0.031369 -0.11404
v -0.663074 -0.031073 -0.116139
v -0.599014 -0.031073 -0.116139
v -0.599014 -0.031369 -0.11404
v -0.599014 -0.031073 -0.116139
v -0.597299 -0.030949 -0.115753
v -0.596914 -0.031084 -0.114038
v -0.599014 -0.031073 -0.116139
v -0.663074 -0.031073 -0.116139
v -0.663074 -0.030382 -0.117004
v -0.599014 -0.030382 -0.117004
v -0.599014 -0.030382 -0.117004
v -0.596914 -0.030387 -0.116135
v -0.597299 -0.030949 -0.115753
v -0.599014 -0.031073 -0.116139
v -0.596044 -0.030398 -0.114035
v -0.596914 -0.031084 -0.114038
v -0.597299 -0.030949 -0.115753
v -0.596914 -0.030387 -0.116135
v -0.596914 -0.012659 -0.116039
v -0.596914 -0.030387 -0.116135
v -0.599014 -0.030382 -0.117004
v -0.599014 -0.012654 -0.116908
v -0.596044 -0.01267 -0.113939
v -0.596044 -0.030398 -0.114035
v -0.596914 -0.030387 -0.116135
v -0.596914 -0.012659 -0.116039
v -0.596044 -0.030398 -0.114035
v -0.596044 -0.01267 -0.113939
v -0.596044 -0.013019 -0.049879
v -0.596044 -0.030747 -0.049975
v -0.596914 -0.031433 -0.049979
v -0.596914 -0.031084 -0.114038
v -0.596044 -0.030398 -0.114035
v -0.596044 -0.030747 -0.049975
v -0.596914 -0.01303 -0.047779
v -0.596914 -0.030759 -0.047875
v -0.596044 -0.030747 -0.049975
v -0.596044 -0.013019 -0.049879
v -0.596044 -0.030747 -0.049975
v -0.596914 -0.030759 -0.047875
v -0.597299 -0.031317 -0.048264
v -0.596914 -0.031433 -0.049979
v -0.599014 -0.013035 -0.046909
v -0.599014 -0.030763 -0.047005
v -0.596914 -0.030759 -0.047875
v -0.596914 -0.01303 -0.047779
v -0.599014 -0.030763 -0.047005
v -0.599014 -0.031445 -0.047879
v -0.597299 -0.031317 -0.048264
v -0.596914 -0.030759 -0.047875
v -0.596044 -0.013019 -0.049879
v -0.596914 -0.010879 -0.049867
v -0.597299 -0.011014 -0.048154
v -0.596914 -0.01303 -0.047779
v -0.599014 -0.013035 -0.046909
v -0.596914 -0.01303 -0.047779
v -0.597299 -0.011014 -0.048154
v -0.599014 -0.010891 -0.047768
v -0.666044 -0.013019 -0.049879
v -0.665174 -0.01303 -0.047779
v -0.663074 -0.013035 -0.046909
v -0.599014 -0.013035 -0.046909
v -0.596914 -0.01303 -0.047779
v -0.596044 -0.013019 -0.049879
v -0.596044 -0.01267 -0.113939
v -0.596914 -0.012659 -0.116039
v -0.599014 -0.012654 -0.116908
v -0.663074 -0.012654 -0.116908
v -0.665174 -0.012659 -0.116039
v -0.666044 -0.01267 -0.113939
v -0.599014 -0.030763 -0.047005
v -0.599014 -0.013035 -0.046909
v -0.663074 -0.013035 -0.046909
v -0.663074 -0.030763 -0.047005
v -0.599014 -0.010891 -0.047768
v -0.663074 -0.010891 -0.047768
v -0.663074 -0.013035 -0.046909
v -0.599014 -0.013035 -0.046909
v -0.599014 -0.00885 -0.049856
v -0.599014 -0.010891 -0.047768
v -0.597299 -0.011014 -0.048154
v -0.596914 -0.010879 -0.049867
v -0.599014 -0.00885 -0.049856
v -0.663074 -0.00885 -0.049856
v -0.663074 -0.010891 -0.047768
v -0.599014 -0.010891 -0.047768
v -0.599014 -0.008502 -0.113916
v -0.663074 -0.008502 -0.113916
v -0.663074 -0.00885 -0.049856
v -0.599014 -0.00885 -0.049856
v -0.599014 -0.008502 -0.113916
v -0.599014 -0.00885 -0.049856
v -0.596914 -0.010879 -0.049867
v -0.596914 -0.01053 -0.113927
v -0.596914 -0.01053 -0.113927
v -0.596914 -0.010879 -0.049867
v -0.596044 -0.013019 -0.049879
v -0.596044 -0.01267 -0.113939
v -0.599014 -0.008502 -0.113916
v -0.596914 -0.01053 -0.113927
v -0.597299 -0.010647 -0.115642
v -0.599014 -0.010519 -0.116026
v -0.596044 -0.01267 -0.113939
v -0.596914 -0.012659 -0.116039
v -0.597299 -0.010647 -0.115642
v -0.596914 -0.01053 -0.113927
v -0.599014 -0.012654 -0.116908
v -0.599014 -0.010519 -0.116026
v -0.597299 -0.010647 -0.115642
v -0.596914 -0.012659 -0.116039
v -0.663074 -0.010519 -0.116026
v -0.599014 -0.010519 -0.116026
v -0.599014 -0.012654 -0.116908
v -0.663074 -0.012654 -0.116908
v -0.663074 -0.008502 -0.113916
v -0.599014 -0.008502 -0.113916
v -0.599014 -0.010519 -0.116026
v -0.663074 -0.010519 -0.116026
v -0.663074 -0.030382 -0.117004
v -0.663074 -0.012654 -0.116908
v -0.599014 -0.012654 -0.116908
v -0.599014 -0.030382 -0.117004
v -0.663074 -0.012654 -0.116908
v -0.665174 -0.012659 -0.116039
v -0.664789 -0.010647 -0.115642
v -0.663074 -0.010519 -0.116026
v -0.663074 -0.012654 -0.116908
v -0.663074 -0.030382 -0.117004
v -0.665174 -0.030387 -0.116135
v -0.665174 -0.012659 -0.116039
v -0.663074 -0.030382 -0.117004
v -0.663074 -0.031073 -0.116139
v -0.664789 -0.030949 -0.115753
v -0.665174 -0.030387 -0.116135
v -0.665174 -0.012659 -0.116039
v -0.665174 -0.030387 -0.116135
v -0.666044 -0.030398 -0.114035
v -0.666044 -0.01267 -0.113939
v -0.666044 -0.030398 -0.114035
v -0.665174 -0.030387 -0.116135
v -0.664789 -0.030949 -0.115753
v -0.665174 -0.031084 -0.114038
v -0.663074 -0.031369 -0.11404
v -0.665174 -0.031084 -0.114038
v -0.664789 -0.030949 -0.115753
v -0.663074 -0.031073 -0.116139
v -0.665174 -0.031084 -0.114038
v -0.665174 -0.031433 -0.049979
v -0.666044 -0.030747 -0.049975
v -0.666044 -0.030398 -0.114035
v -0.666044 -0.030747 -0.049975
v -0.666044 -0.013019 -0.049879
v -0.666044 -0.01267 -0.113939
v -0.666044 -0.030398 -0.114035
v -0.665174 -0.030759 -0.047875
v -0.665174 -0.01303 -0.047779
v -0.666044 -0.013019 -0.049879
v -0.666044 -0.030747 -0.049975
v -0.666044 -0.030747 -0.049975
v -0.665174 -0.031433 -0.049979
v -0.664789 -0.031317 -0.048264
v -0.665174 -0.030759 -0.047875
v -0.663074 -0.030763 -0.047005
v -0.663074 -0.013035 -0.046909
v -0.665174 -0.01303 -0.047779
v -0.665174 -0.030759 -0.047875
v -0.663074 -0.030763 -0.047005
v -0.665174 -0.030759 -0.047875
v -0.664789 -0.031317 -0.048264
v -0.663074 -0.031445 -0.047879
v -0.663074 -0.013035 -0.046909
v -0.663074 -0.010891 -0.047768
v -0.664789 -0.011014 -0.048154
v -0.665174 -0.01303 -0.047779
v -0.666044 -0.013019 -0.049879
v -0.665174 -0.01303 -0.047779
v -0.664789 -0.011014 -0.048154
v -0.665174 -0.010879 -0.049867
v -0.663074 -0.00885 -0.049856
v -0.665174 -0.010879 -0.049867
v -0.664789 -0.011014 -0.048154
v -0.663074 -0.010891 -0.047768
v -0.663074 -0.00885 -0.049856
v -0.663074 -0.008502 -0.113916
v -0.665174 -0.01053 -0.113927
v -0.665174 -0.010879 -0.049867
v -0.665174 -0.010879 -0.049867
v -0.665174 -0.01053 -0.113927
v -0.666044 -0.01267 -0.113939
v -0.666044 -0.013019 -0.049879
v -0.666044 -0.01267 -0.113939
v -0.665174 -0.01053 -0.113927
v -0.664789 -0.010647 -0.115642
v -0.665174 -0.012659 -0.116039
v -0.663074 -0.008502 -0.113916
v -0.663074 -0.010519 -0.116026
v -0.664789 -0.010647 -0.115642
v -0.665174 -0.01053 -0.113927
v -0.663074 -0.031445 -0.047879
v -0.599014 -0.031445 -0.047879
v -0.599014 -0.030763 -0.047005
v -0.663074 -0.030763 -0.047005
vn -0.1343 -0.9909 -0.0054
vn -0.1343 -0.9909 -0.0054
vn -0.1343 -0.9909 -0.0054
vn -0.1343 -0.9909 -0.0054
vn -0.1178 -0.9867 0.1122
vn -0.1178 -0.9867 0.1122
vn -0.1178 -0.9867 0.1122
vn -0.1178 -0.9867 0.1122
vn -0 -0.9917 0.1283
vn -0 -0.9917 0.1283
vn -0 -0.9917 0.1283
vn -0 -0.9917 0.1283
vn -0 -1 -0.0054
vn -0 -1 -0.0054
vn -0 -1 -0.0054
vn -0 -1 -0.0054
vn 0.1178 -0.9866 0.1125
vn 0.1178 -0.9866 0.1125
vn 0.1178 -0.9867 0.1122
vn 0.1178 -0.9867 0.1122
vn 0.1343 -0.9909 -0.0054
vn 0.1343 -0.9909 -0.0054
vn 0.1343 -0.9909 -0.0054
vn 0.1343 -0.9909 -0.0054
vn -0 -0.9902 -0.1396
vn -0 -0.9902 -0.1396
vn -0 -0.9902 -0.1396
vn -0 -0.9902 -0.1396
vn 0.1182 -0.9853 -0.1233
vn 0.1182 -0.9853 -0.1233
vn 0.1182 -0.9853 -0.1233
vn 0.1182 -0.9853 -0.1233
vn -0 -0.7817 -0.6236
vn -0 -0.7817 -0.6236
vn -0 -0.7817 -0.6236
vn -0 -0.7817 -0.6236
vn 0.2367 -0.7212 -0.6511
vn 0.2367 -0.7209 -0.6513
vn 0.2367 -0.7213 -0.651
vn 0.2367 -0.7209 -0.6513
vn 0.647 -0.7236 -0.2405
vn 0.647 -0.7236 -0.2405
vn 0.647 -0.7236 -0.2405
vn 0.647 -0.7236 -0.2405
vn 0.3824 0.005 -0.924
vn 0.3824 0.005 -0.924
vn 0.3824 0.005 -0.924
vn 0.3824 0.005 -0.924
vn 0.9239 0.0021 -0.3827
vn 0.9239 0.0021 -0.3827
vn 0.9239 0.0021 -0.3827
vn 0.9239 0.0021 -0.3827
vn 1 -0 -0
vn 1 -0 -0
vn 1 -0 -0
vn 1 -0 -0
vn 0.6192 -0.7852 -0.0043
vn 0.6192 -0.7852 -0.0043
vn 0.6192 -0.7852 -0.0043
vn 0.6192 -0.7852 -0.0043
vn 0.9239 -0.0021 0.3827
vn 0.9239 -0.0021 0.3827
vn 0.9239 -0.0021 0.3827
vn 0.9239 -0.0021 0.3827
vn 0.647 -0.7261 0.2326
vn 0.647 -0.7261 0.2326
vn 0.647 -0.7261 0.2326
vn 0.647 -0.7261 0.2326
vn 0.3827 -0.005 0.9238
vn 0.3827 -0.005 0.9238
vn 0.3827 -0.005 0.9238
vn 0.3827 -0.005 0.9238
vn 0.2367 -0.7284 0.643
vn 0.2367 -0.7284 0.643
vn 0.2367 -0.7284 0.643
vn 0.2367 -0.7284 0.643
vn 0.9028 0.2996 0.3086
vn 0.9028 0.2996 0.3086
vn 0.9028 0.2996 0.3086
vn 0.9028 0.2996 0.3086
vn 0.3069 0.2967 0.9043
vn 0.3069 0.2967 0.9043
vn 0.3069 0.2967 0.9043
vn 0.3069 0.2967 0.9043
vn -0 1 0.0054
vn -0 1 0.0054
vn -0 1 0.0054
vn -0 1 0.0054
vn -0 1 0.0054
vn -0 1 0.0054
vn -0 1 0.0054
vn -0 1 0.0054
vn -0 1 0.0054
vn -0 1 0.0054
vn -0 1 0.0054
vn -0 1 0.0054
vn -0 -0.0054 1
vn -0 -0.0054 1
vn -0 -0.0054 1
vn -0 -0.0054 1
vn -0 0.3711 0.9286
vn -0 0.3711 0.9286
vn -0 0.3711 0.9286
vn -0 0.3711 0.9286
vn 0.4695 0.7449 0.474
vn 0.4696 0.745 0.4737
vn 0.4695 0.7449 0.474
vn 0.4697 0.7451 0.4736
vn -0 0.7151 0.699
vn -0 0.7151 0.699
vn -0 0.7151 0.699
vn -0 0.7151 0.699
vn -0 1 0.0054
vn -0 1 0.0054
vn -0 1 0.0054
vn -0 1 0.0054
vn 0.6948 0.7192 0.0039
vn 0.6948 0.7192 0.0039
vn 0.6948 0.7192 0.0039
vn 0.6948 0.7192 0.0039
vn 0.9264 0.3766 0.0021
vn 0.9264 0.3766 0.0021
vn 0.9264 0.3766 0.0021
vn 0.9264 0.3766 0.0021
vn 0.4695 0.7501 -0.4658
vn 0.4695 0.7501 -0.4658
vn 0.4695 0.7501 -0.4658
vn 0.4695 0.7501 -0.4658
vn 0.9028 0.3029 -0.3054
vn 0.9028 0.3029 -0.3054
vn 0.9028 0.3029 -0.3054
vn 0.9028 0.3029 -0.3054
vn 0.3067 0.3064 -0.9012
vn 0.3067 0.3064 -0.9012
vn 0.3067 0.3064 -0.9012
vn 0.3067 0.3064 -0.9012
vn -0 0.3818 -0.9242
vn -0 0.3818 -0.9242
vn -0 0.3818 -0.9242
vn -0 0.3818 -0.9242
vn -0 0.7229 -0.691
vn -0 0.7229 -0.691
vn -0 0.7229 -0.691
vn -0 0.7229 -0.691
vn -0 0.0054 -1
vn -0 0.0054 -1
vn -0 0.0054 -1
vn -0 0.0054 -1
vn -0.3067 0.3064 -0.9012
vn -0.3067 0.3064 -0.9012
vn -0.3067 0.3064 -0.9012
vn -0.3067 0.3064 -0.9012
vn -0.3824 0.005 -0.924
vn -0.3824 0.005 -0.924
vn -0.3824 0.005 -0.924
vn -0.3824 0.005 -0.924
vn -0.2367 -0.7213 -0.651
vn -0.2367 -0.7214 -0.6508
vn -0.2367 -0.7213 -0.6509
vn -0.2367 -0.7214 -0.6508
vn -0.9239 0.0021 -0.3827
vn -0.9239 0.0021 -0.3827
vn -0.9239 0.0021 -0.3827
vn -0.9239 0.0021 -0.3827
vn -0.6469 -0.7236 -0.2405
vn -0.6469 -0.7236 -0.2405
vn -0.6469 -0.7236 -0.2405
vn -0.6469 -0.7236 -0.2405
vn -0.1182 -0.9853 -0.1233
vn -0.1182 -0.9853 -0.1233
vn -0.1182 -0.9853 -0.1233
vn -0.1182 -0.9853 -0.1233
vn -0.6192 -0.7852 -0.0043
vn -0.6192 -0.7852 -0.0043
vn -0.6192 -0.7852 -0.0043
vn -0.6192 -0.7852 -0.0043
vn -1 -0 -0
vn -1 -0 -0
vn -1 -0 -0
vn -1 -0 -0
vn -0.9239 -0.0021 0.3827
vn -0.9239 -0.0021 0.3827
vn -0.9239 -0.0021 0.3827
vn -0.9239 -0.0021 0.3827
vn -0.6469 -0.7262 0.2326
vn -0.6469 -0.7262 0.2326
vn -0.6469 -0.7262 0.2326
vn -0.6469 -0.7262 0.2326
vn -0.3827 -0.005 0.9238
vn -0.3827 -0.005 0.9238
vn -0.3827 -0.005 0.9238
vn -0.3827 -0.005 0.9238
vn -0.2367 -0.7284 0.643
vn -0.2367 -0.7284 0.643
vn -0.2367 -0.7284 0.643
vn -0.2367 -0.7284 0.643
vn -0.3069 0.2967 0.9043
vn -0.3069 0.2967 0.9043
vn -0.3069 0.2967 0.9043
vn -0.3069 0.2967 0.9043
vn -0.9028 0.2996 0.3086
vn -0.9028 0.2996 0.3086
vn -0.9028 0.2996 0.3086
vn -0.9028 0.2996 0.3086
vn -0.4695 0.7449 0.474
vn -0.4695 0.7449 0.474
vn -0.4695 0.7449 0.474
vn -0.4695 0.7449 0.474
vn -0.6948 0.7192 0.0039
vn -0.6948 0.7192 0.0039
vn -0.6948 0.7192 0.0039
vn -0.6948 0.7192 0.0039
vn -0.9264 0.3766 0.0021
vn -0.9264 0.3766 0.0021
vn -0.9264 0.3766 0.0021
vn -0.9264 0.3766 0.0021
vn -0.9027 0.303 -0.3054
vn -0.9027 0.303 -0.3054
vn -0.9027 0.303 -0.3054
vn -0.9027 0.303 -0.3054
vn -0.4695 0.7501 -0.4658
vn -0.4695 0.7501 -0.4658
vn -0.4695 0.7501 -0.4658
vn -0.4695 0.7501 -0.4658
vn -0 -0.7884 0.6152
vn -0 -0.7884 0.6152
vn -0 -0.7884 0.6152
vn -0 -0.7884 0.6152
vt 0.135607 0.489393
vt 0.135607 0.260607
vt 0.125 0.260607
vt 0.125 0.489393
vt 0.135607 0.260607
vt 0.135607 0.25
vt 0.129483 0.25
vt 0.125 0.260607
vt 0.135607 0.260607
vt 0.364393 0.260607
vt 0.364393 0.25
vt 0.135607 0.25
vt 0.135607 0.489393
vt 0.364393 0.489393
vt 0.364393 0.260607
vt 0.135607 0.260607
vt 0.364393 0.260607
vt 0.375 0.260607
vt 0.376494 0.25
vt 0.364393 0.25
vt 0.364393 0.260607
vt 0.364393 0.489393
vt 0.375 0.489393
vt 0.375 0.260607
vt 0.364393 0.489393
vt 0.135607 0.489393
vt 0.135607 0.5
vt 0.364393 0.5
vt 0.364393 0.489393
vt 0.364393 0.5
vt 0.375 0.498506
vt 0.375 0.489393
vt 0.375 0.510607
vt 0.375 0.739393
vt 0.385607 0.739393
vt 0.385607 0.510607
vt 0.385607 0.510607
vt 0.385607 0.5
vt 0.375 0.498506
vt 0.375 0.510607
vt 0.385607 0.489393
vt 0.375 0.489393
vt 0.375 0.498506
vt 0.385607 0.5
vt 0.614393 0.5
vt 0.385607 0.5
vt 0.385607 0.510607
vt 0.614393 0.510607
vt 0.614393 0.489393
vt 0.385607 0.489393
vt 0.385607 0.5
vt 0.614393 0.5
vt 0.385607 0.489393
vt 0.614393 0.489393
vt 0.614393 0.260607
vt 0.385607 0.260607
vt 0.375 0.260607
vt 0.375 0.489393
vt 0.385607 0.489393
vt 0.385607 0.260607
vt 0.614393 0.25
vt 0.385607 0.25
vt 0.385607 0.260607
vt 0.614393 0.260607
vt 0.385607 0.260607
vt 0.385607 0.25
vt 0.376494 0.25
vt 0.375 0.260607
vt 0.614393 0.239393
vt 0.385607 0.239393
vt 0.385607 0.25
vt 0.614393 0.25
vt 0.385607 0.239393
vt 0.375 0.239393
vt 0.376494 0.25
vt 0.385607 0.25
vt 0.614393 0.260607
vt 0.625 0.260607
vt 0.625 0.251494
vt 0.614393 0.25
vt 0.614393 0.239393
vt 0.614393 0.25
vt 0.625 0.251494
vt 0.625 0.239393
vt 0 1
vt 0 1
vt 0 1
vt 0 1
vt 0 1
vt 0 1
vt 0 1
vt 0 1
vt 0 1
vt 0 1
vt 0 1
vt 0 1
vt 0.385607 0.239393
vt 0.614393 0.239393
vt 0.614393 0.010607
vt 0.385607 0.010607
vt 0.625 0.239393
vt 0.625 0.010607
vt 0.614393 0.010607
vt 0.614393 0.239393
vt 0.635607 0.260607
vt 0.635607 0.25
vt 0.625 0.251494
vt 0.625 0.260607
vt 0.635607 0.260607
vt 0.864393 0.260607
vt 0.864393 0.25
vt 0.635607 0.25
vt 0.635607 0.489393
vt 0.864393 0.489393
vt 0.864393 0.260607
vt 0.635607 0.260607
vt 0.635607 0.489393
vt 0.635607 0.260607
vt 0.625 0.260607
vt 0.625 0.489393
vt 0.625 0.489393
vt 0.625 0.260607
vt 0.614393 0.260607
vt 0.614393 0.489393
vt 0.635607 0.489393
vt 0.625 0.489393
vt 0.623506 0.5
vt 0.635607 0.5
vt 0.614393 0.489393
vt 0.614393 0.5
vt 0.623506 0.5
vt 0.625 0.489393
vt 0.614393 0.510607
vt 0.625 0.510607
vt 0.623506 0.5
vt 0.614393 0.5
vt 0.625 0.739393
vt 0.625 0.510607
vt 0.614393 0.510607
vt 0.614393 0.739393
vt 0.864393 0.489393
vt 0.635607 0.489393
vt 0.635607 0.5
vt 0.864393 0.5
vt 0.385607 0.739393
vt 0.614393 0.739393
vt 0.614393 0.510607
vt 0.385607 0.510607
vt 0.614393 0.739393
vt 0.614393 0.75
vt 0.620517 0.75
vt 0.625 0.739393
vt 0.614393 0.739393
vt 0.385607 0.739393
vt 0.385607 0.75
vt 0.614393 0.75
vt 0.385607 0.739393
vt 0.375 0.739393
vt 0.375 0.745517
vt 0.385607 0.75
vt 0.614393 0.75
vt 0.385607 0.75
vt 0.385607 0.760607
vt 0.614393 0.760607
vt 0.385607 0.760607
vt 0.385607 0.75
vt 0.379483 0.75
vt 0.375 0.760607
vt 0.135607 0.489393
vt 0.125 0.489393
vt 0.125 0.495517
vt 0.135607 0.5
vt 0.375 0.760607
vt 0.375 0.989393
vt 0.385607 0.989393
vt 0.385607 0.760607
vt 0.385607 0.989393
vt 0.614393 0.989393
vt 0.614393 0.760607
vt 0.385607 0.760607
vt 0.385607 1
vt 0.614393 1
vt 0.614393 0.989393
vt 0.385607 0.989393
vt 0.385607 0.989393
vt 0.375 0.989393
vt 0.375 0.995517
vt 0.385607 1
vt 0.385607 0.010607
vt 0.614393 0.010607
vt 0.614393 0
vt 0.385607 0
vt 0.385607 0.010607
vt 0.385607 0
vt 0.379483 0
vt 0.375 0.010607
vt 0.614393 0.010607
vt 0.625 0.010607
vt 0.625 0.00448298
vt 0.614393 0
vt 0.614393 0.989393
vt 0.614393 1
vt 0.620517 1
vt 0.625 0.989393
vt 0.864393 0.260607
vt 0.875 0.260607
vt 0.875 0.254483
vt 0.864393 0.25
vt 0.864393 0.260607
vt 0.864393 0.489393
vt 0.875 0.489393
vt 0.875 0.260607
vt 0.625 0.989393
vt 0.625 0.760607
vt 0.614393 0.760607
vt 0.614393 0.989393
vt 0.614393 0.760607
vt 0.625 0.760607
vt 0.625 0.754483
vt 0.614393 0.75
vt 0.864393 0.489393
vt 0.864393 0.5
vt 0.870517 0.5
vt 0.875 0.489393
vt 0.375 0.010607
vt 0.375 0.239393
vt 0.385607 0.239393
vt 0.385607 0.010607
s off
f 1/1/1 2/2/2 3/3/3
f 1/1/1 3/3/3 4/4/4
f 5/5/5 6/6/6 7/7/7
f 5/5/5 7/7/7 8/8/8
f 9/9/9 10/10/10 11/11/11
f 9/9/9 11/11/11 12/12/12
f 13/13/13 14/14/14 15/15/15
f 13/13/13 15/15/15 16/16/16
f 17/17/17 18/18/18 19/19/19
f 17/17/17 19/19/19 20/20/20
f 21/21/21 22/22/22 23/23/23
f 21/21/21 23/23/23 24/24/24
f 25/25/25 26/26/26 27/27/27
f 25/25/25 27/27/27 28/28/28
f 29/29/29 30/30/30 31/31/31
f 29/29/29 31/31/31 32/32/32
f 33/33/33 34/34/34 35/35/35
f 33/33/33 35/35/35 36/36/36
f 37/37/37 38/38/38 39/39/39
f 37/37/37 39/39/39 40/40/40
f 41/41/41 42/42/42 43/43/43
f 41/41/41 43/43/43 44/44/44
f 45/45/45 46/46/46 47/47/47
f 45/45/45 47/47/47 48/48/48
f 49/49/49 50/50/50 51/51/51
f 49/49/49 51/51/51 52/52/52
f 53/53/53 54/54/54 55/55/55
f 53/53/53 55/55/55 56/56/56
f 57/57/57 58/58/58 59/59/59
f 57/57/57 59/59/59 60/60/60
f 61/61/61 62/62/62 63/63/63
f 61/61/61 63/63/63 64/64/64
f 65/65/65 66/66/66 67/67/67
f 65/65/65 67/67/67 68/68/68
f 69/69/69 70/70/70 71/71/71
f 69/69/69 71/71/71 72/72/72
f 73/73/73 74/74/74 75/75/75
f 73/73/73 75/75/75 76/76/76
f 77/77/77 78/78/78 79/79/79
f 77/77/77 79/79/79 80/80/80
f 81/81/81 82/82/82 83/83/83
f 81/81/81 83/83/83 84/84/84
f 95/95/95 96/96/96 85/85/85
f 85/85/85 86/86/86 87/87/87
f 87/87/87 88/88/88 89/89/89
f 89/89/89 90/90/90 91/91/91
f 91/91/91 92/92/92 93/93/93
f 93/93/93 94/94/94 95/95/95
f 95/95/95 85/85/85 87/87/87
f 87/87/87 89/89/89 91/91/91
f 91/91/91 93/93/93 95/95/95
f 95/95/95 87/87/87 91/91/91
f 97/97/97 98/98/98 99/99/99
f 97/97/97 99/99/99 100/100/100
f 101/101/101 102/102/102 103/103/103
f 101/101/101 103/103/103 104/104/104
f 105/105/105 106/106/106 107/107/107
f 105/105/105 107/107/107 108/108/108
f 109/109/109 110/110/110 111/111/111
f 109/109/109 111/111/111 112/112/112
f 113/113/113 114/114/114 115/115/115
f 113/113/113 115/115/115 116/116/116
f 117/117/117 118/118/118 119/119/119
f 117/117/117 119/119/119 120/120/120
f 121/121/121 122/122/122 123/123/123
f 121/121/121 123/123/123 124/124/124
f 125/125/125 126/126/126 127/127/127
f 125/125/125 127/127/127 128/128/128
f 129/129/129 130/130/130 131/131/131
f 129/129/129 131/131/131 132/132/132
f 133/133/133 134/134/134 135/135/135
f 133/133/133 135/135/135 136/136/136
f 137/137/137 138/138/138 139/139/139
f 137/137/137 139/139/139 140/140/140
f 141/141/141 142/142/142 143/143/143
f 141/141/141 143/143/143 144/144/144
f 145/145/145 146/146/146 147/147/147
f 145/145/145 147/147/147 148/148/148
f 149/149/149 150/150/150 151/151/151
f 149/149/149 151/151/151 152/152/152
f 153/153/153 154/154/154 155/155/155
f 153/153/153 155/155/155 156/156/156
f 157/157/157 158/158/158 159/159/159
f 157/157/157 159/159/159 160/160/160
f 161/161/161 162/162/162 163/163/163
f 161/161/161 163/163/163 164/164/164
f 165/165/165 166/166/166 167/167/167
f 165/165/165 167/167/167 168/168/168
f 169/169/169 170/170/170 171/171/171
f 169/169/169 171/171/171 172/172/172
f 173/173/173 174/174/174 175/175/175
f 173/173/173 175/175/175 176/176/176
f 177/177/177 178/178/178 179/179/179
f 177/177/177 179/179/179 180/180/180
f 181/181/181 182/182/182 183/183/183
f 181/181/181 183/183/183 184/184/184
f 185/185/185 186/186/186 187/187/187
f 185/185/185 187/187/187 188/188/188
f 189/189/189 190/190/190 191/191/191
f 189/189/189 191/191/191 192/192/192
f 193/193/193 194/194/194 195/195/195
f 193/193/193 195/195/195 196/196/196
f 197/197/197 198/198/198 199/199/199
f 197/197/197 199/199/199 200/200/200
f 201/201/201 202/202/202 203/203/203
f 201/201/201 203/203/203 204/204/204
f 205/205/205 206/206/206 207/207/207
f 205/205/205 207/207/207 208/208/208
f 209/209/209 210/210/210 211/211/211
f 209/209/209 211/211/211 212/212/212
f 213/213/213 214/214/214 215/215/215
f 213/213/213 215/215/215 216/216/216
f 217/217/217 218/218/218 219/219/219
f 217/217/217 219/219/219 220/220/220
f 221/221/221 222/222/222 223/223/223
f 221/221/221 223/223/223 224/224/224
f 225/225/225 226/226/226 227/227/227
f 225/225/225 227/227/227 228/228/228
