v -0.631393 -0.023115 -0.099465
v -0.627979 -0.023117 -0.099128
v -0.624696 -0.023123 -0.098133
v -0.621671 -0.023131 -0.096515
v -0.619019 -0.023143 -0.094339
v -0.616842 -0.023158 -0.091688
v -0.615225 -0.023174 -0.088662
v -0.614229 -0.023192 -0.085379
v -0.613893 -0.023211 -0.081965
v -0.614229 -0.023229 -0.078551
v -0.615225 -0.023247 -0.075268
v -0.616842 -0.023264 -0.072243
v -0.619019 -0.023278 -0.069591
v -0.621671 -0.02329 -0.067414
v -0.624696 -0.023299 -0.065798
v -0.627979 -0.023304 -0.064801
v -0.631393 -0.023306 -0.064466
v -0.634807 -0.023304 -0.064801
v -0.63809 -0.023299 -0.065798
v -0.641116 -0.02329 -0.067414
v -0.643768 -0.023278 -0.069591
v -0.645944 -0.023264 -0.072243
v -0.647561 -0.023247 -0.075268
v -0.648557 -0.023229 -0.078551
v -0.648893 -0.023211 -0.081965
v -0.648557 -0.023192 -0.085379
v -0.647561 -0.023174 -0.088662
v -0.645944 -0.023158 -0.091688
v -0.643768 -0.023143 -0.094339
v -0.641116 -0.023131 -0.096515
v -0.63809 -0.023123 -0.098133
v -0.634807 -0.023117 -0.099128
v -0.631393 -0.023115 -0.099465
v -0.631393 0.021688 -0.099221
v -0.627979 0.021686 -0.098885
v -0.627979 -0.023117 -0.099128
v -0.634807 -0.023117 -0.099128
v -0.634807 0.021686 -0.098885
v -0.631393 0.021688 -0.099221
v -0.631393 -0.023115 -0.099465
v -0.63809 -0.023123 -0.098133
v -0.63809 0.021681 -0.097888
v -0.634807 0.021686 -0.098885
v -0.634807 -0.023117 -0.099128
v -0.641116 -0.023131 -0.096515
v -0.641116 0.021672 -0.096271
v -0.63809 0.021681 -0.097888
v -0.63809 -0.023123 -0.098133
v -0.627979 0.021686 -0.098885
v -0.631393 0.021688 -0.099221
v -0.634807 0.021686 -0.098885
v -0.63809 0.021681 -0.097888
v -0.641116 0.021672 -0.096271
v -0.643768 0.02166 -0.094095
v -0.645944 0.021645 -0.091444
v -0.647561 0.021629 -0.088418
v -0.648557 0.021611 -0.085135
v -0.648893 0.021592 -0.081721
v -0.648557 0.021574 -0.078307
v -0.647561 0.021556 -0.075024
v -0.645944 0.02154 -0.071999
v -0.643768 0.021525 -0.069347
v -0.641116 0.021513 -0.067171
v -0.63809 0.021504 -0.065554
v -0.634807 0.021499 -0.064558
v -0.631393 0.021497 -0.064222
v -0.627979 0.021499 -0.064558
v -0.624696 0.021504 -0.065554
v -0.621671 0.021513 -0.067171
v -0.619019 0.021525 -0.069347
v -0.616842 0.02154 -0.071998
v -0.615225 0.021556 -0.075024
v -0.614229 0.021574 -0.078307
v -0.613893 0.021592 -0.081721
v -0.614229 0.021611 -0.085135
v -0.615225 0.021629 -0.088418
v -0.616842 0.021645 -0.091444
v -0.619019 0.02166 -0.094095
v -0.621671 0.021672 -0.096271
v -0.624696 0.021681 -0.097888
v -0.643768 -0.023143 -0.094339
v -0.643768 0.02166 -0.094095
v -0.641116 0.021672 -0.096271
v -0.641116 -0.023131 -0.096515
v -0.645944 -0.023158 -0.091688
v -0.645944 0.021645 -0.091444
v -0.643768 0.02166 -0.094095
v -0.643768 -0.023143 -0.094339
v -0.647561 -0.023174 -0.088662
v -0.647561 0.021629 -0.088418
v -0.645944 0.021645 -0.091444
v -0.645944 -0.023158 -0.091688
v -0.648557 -0.023192 -0.085379
v -0.648557 0.021611 -0.085135
v -0.647561 0.021629 -0.088418
v -0.647561 -0.023174 -0.088662
v -0.648893 -0.023211 -0.081965
v -0.648893 0.021592 -0.081721
v -0.648557 0.021611 -0.085135
v -0.648557 -0.023192 -0.085379
v -0.648557 -0.023229 -0.078551
v -0.648557 0.021574 -0.078307
v -0.648893 0.021592 -0.081721
v -0.648893 -0.023211 -0.081965
v -0.647561 -0.023247 -0.075268
v -0.647561 0.021556 -0.075024
v -0.648557 0.021574 -0.078307
v -0.648557 -0.023229 -0.078551
v -0.645944 -0.023264 -0.072243
v -0.645944 0.02154 -0.071999
v -0.647561 0.021556 -0.075024
v -0.647561 -0.023247 -0.075268
v -0.643768 -0.023278 -0.069591
v -0.643768 0.021525 -0.069347
v -0.645944 0.02154 -0.071999
v -0.645944 -0.023264 -0.072243
v -0.641116 -0.02329 -0.067414
v -0.641116 0.021513 -0.067171
v -0.643768 0.021525 -0.069347
v -0.643768 -0.023278 -0.069591
v -0.63809 -0.023299 -0.065798
v -0.63809 0.021504 -0.065554
v -0.641116 0.021513 -0.067171
v -0.641116 -0.02329 -0.067414
v -0.634807 -0.023304 -0.064801
v -0.634807 0.021499 -0.064558
v -0.63809 0.021504 -0.065554
v -0.63809 -0.023299 -0.065798
v -0.631393 -0.023306 -0.064466
v -0.631393 0.021497 -0.064222
v -0.634807 0.021499 -0.064558
v -0.634807 -0.023304 -0.064801
v -0.627979 -0.023304 -0.064801
v -0.627979 0.021499 -0.064558
v -0.631393 0.021497 -0.064222
v -0.631393 -0.023306 -0.064466
v -0.624696 -0.023299 -0.065798
v -0.624696 0.021504 -0.065554
v -0.627979 0.021499 -0.064558
v -0.627979 -0.023304 -0.064801
v -0.621671 -0.02329 -0.067414
v -0.621671 0.021513 -0.067171
v -0.624696 0.021504 -0.065554
v -0.624696 -0.023299 -0.065798
v -0.619019 -0.023278 -0.069591
v -0.619019 0.021525 -0.069347
v -0.621671 0.021513 -0.067171
v -0.621671 -0.02329 -0.067414
v -0.616842 -0.023264 -0.072243
v -0.616842 0.02154 -0.071998
v -0.619019 0.021525 -0.069347
v -0.619019 -0.023278 -0.069591
v -0.615225 -0.023247 -0.075268
v -0.615225 0.021556 -0.075024
v -0.616842 0.02154 -0.071998
v -0.616842 -0.023264 -0.072243
v -0.614229 -0.023229 -0.078551
v -0.614229 0.021574 -0.078307
v -0.615225 0.021556 -0.075024
v -0.615225 -0.023247 -0.075268
v -0.613893 -0.023211 -0.081965
v -0.613893 0.021592 -0.081721
v -0.614229 0.021574 -0.078307
v -0.614229 -0.023229 -0.078551
v -0.614229 -0.023192 -0.085379
v -0.614229 0.021611 -0.085135
v -0.613893 0.021592 -0.081721
v -0.613893 -0.023211 -0.081965
v -0.615225 -0.023174 -0.088662
v -0.615225 0.021629 -0.088418
v -0.614229 0.021611 -0.085135
v -0.614229 -0.023192 -0.085379
v -0.616842 -0.023158 -0.091688
v -0.616842 0.021645 -0.091444
v -0.615225 0.021629 -0.088418
v -0.615225 -0.023174 -0.088662
v -0.619019 -0.023143 -0.094339
v -0.619019 0.02166 -0.094095
v -0.616842 0.021645 -0.091444
v -0.616842 -0.023158 -0.091688
v -0.621671 -0.023131 -0.096515
v -0.621671 0.021672 -0.096271
v -0.619019 0.02166 -0.094095
v -0.619019 -0.023143 -0.094339
v -0.624696 -0.023123 -0.098133
v -0.624696 0.021681 -0.097888
v -0.621671 0.021672 -0.096271
v -0.621671 -0.023131 -0.096515
v -0.627979 -0.023117 -0.099128
v -0.627979 0.021686 -0.098885
v -0.624696 0.021681 -0.097888
v -0.624696 -0.023123 -0.098133
vn -0 -1 -0.0055
vn -0 -1 -0.0055
vn -0 -1 -0.0055
vn -0 -1 -0.0055
vn -0 -1 -0.0055
vn -0 -1 -0.0055
vn -0 -1 -0.0055
vn -0 -1 -0.0055
vn -0 -1 -0.0055
vn -0 -1 -0.0055
vn -0 -1 -0.0055
vn -0 -1 -0.0055
vn -0 -1 -0.0055
vn -0 -1 -0.0055
vn -0 -1 -0.0055
vn -0 -1 -0.0055
vn -0 -1 -0.0055
vn -0 -1 -0.0055
vn -0 -1 -0.0055
vn -0 -1 -0.0055
vn -0 -1 -0.0055
vn -0 -1 -0.0055
vn -0 -1 -0.0055
vn -0 -1 -0.0055
vn -0 -1 -0.0055
vn -0 -1 -0.0055
vn -0 -1 -0.0055
vn -0 -1 -0.0055
vn -0 -1 -0.0055
vn -0 -1 -0.0055
vn -0 -1 -0.0055
vn -0 -1 -0.0055
vn 0.0981 0.0054 -0.9952
vn 0.0981 0.0054 -0.9952
vn 0.0981 0.0054 -0.9952
vn 0.0981 0.0054 -0.9952
vn -0.0981 0.0054 -0.9952
vn -0.0981 0.0054 -0.9952
vn -0.0981 0.0054 -0.9952
vn -0.0981 0.0054 -0.9952
vn -0.2903 0.0052 -0.9569
vn -0.2903 0.0052 -0.9569
vn -0.2903 0.0052 -0.9569
vn -0.2903 0.0052 -0.9569
vn -0.4714 0.0048 -0.8819
vn -0.4714 0.0048 -0.8819
vn -0.4714 0.0048 -0.8819
vn -0.4714 0.0048 -0.8819
vn -0 1 0.0055
vn -0 1 0.0055
vn -0 1 0.0055
vn -0 1 0.0055
vn -0 1 0.0055
vn -0 1 0.0055
vn -0 1 0.0055
vn -0 1 0.0055
vn -0 1 0.0055
vn -0 1 0.0055
vn -0 1 0.0055
vn -0 1 0.0055
vn -0 1 0.0055
vn -0 1 0.0055
vn -0 1 0.0055
vn -0 1 0.0055
vn -0 1 0.0055
vn -0 1 0.0055
vn -0 1 0.0055
vn -0 1 0.0055
vn -0 1 0.0055
vn -0 1 0.0055
vn -0 1 0.0055
vn -0 1 0.0055
vn -0 1 0.0055
vn -0 1 0.0055
vn -0 1 0.0055
vn -0 1 0.0055
vn -0 1 0.0055
vn -0 1 0.0055
vn -0 1 0.0055
vn -0 1 0.0055
vn -0.6343 0.0042 -0.7731
vn -0.6343 0.0042 -0.7731
vn -0.6343 0.0042 -0.7731
vn -0.6343 0.0042 -0.7731
vn -0.7732 0.0035 -0.6342
vn -0.7732 0.0035 -0.6342
vn -0.7732 0.0035 -0.6342
vn -0.7732 0.0035 -0.6342
vn -0.882 0.0026 -0.4713
vn -0.882 0.0026 -0.4713
vn -0.882 0.0026 -0.4713
vn -0.882 0.0026 -0.4713
vn -0.9569 0.0016 -0.2903
vn -0.9569 0.0016 -0.2903
vn -0.9569 0.0016 -0.2903
vn -0.9569 0.0016 -0.2903
vn -0.9952 0.0005 -0.0983
vn -0.9952 0.0005 -0.0983
vn -0.9952 0.0005 -0.0983
vn -0.9952 0.0005 -0.0983
vn -0.9951 -0.0004 0.0984
vn -0.9951 -0.0004 0.0984
vn -0.9951 -0.0004 0.0984
vn -0.9951 -0.0004 0.0984
vn -0.9569 -0.0016 0.2903
vn -0.9569 -0.0016 0.2903
vn -0.9569 -0.0016 0.2903
vn -0.9569 -0.0016 0.2903
vn -0.8819 -0.0026 0.4714
vn -0.8819 -0.0026 0.4714
vn -0.8819 -0.0026 0.4714
vn -0.8819 -0.0026 0.4714
vn -0.7731 -0.0035 0.6343
vn -0.7731 -0.0035 0.6343
vn -0.7731 -0.0035 0.6343
vn -0.7731 -0.0035 0.6343
vn -0.6344 -0.0042 0.773
vn -0.6344 -0.0042 0.773
vn -0.6344 -0.0042 0.773
vn -0.6344 -0.0042 0.773
vn -0.4712 -0.0048 0.882
vn -0.4712 -0.0048 0.882
vn -0.4712 -0.0048 0.882
vn -0.4712 -0.0048 0.882
vn -0.2905 -0.0052 0.9569
vn -0.2905 -0.0052 0.9569
vn -0.2905 -0.0052 0.9569
vn -0.2905 -0.0052 0.9569
vn -0.0978 -0.0054 0.9952
vn -0.0978 -0.0054 0.9952
vn -0.0978 -0.0054 0.9952
vn -0.0978 -0.0054 0.9952
vn 0.0978 -0.0054 0.9952
vn 0.0978 -0.0054 0.9952
vn 0.0978 -0.0054 0.9952
vn 0.0978 -0.0054 0.9952
vn 0.2905 -0.0052 0.9569
vn 0.2905 -0.0052 0.9569
vn 0.2905 -0.0052 0.9569
vn 0.2905 -0.0052 0.9569
vn 0.4713 -0.0048 0.882
vn 0.4713 -0.0048 0.882
vn 0.4713 -0.0048 0.882
vn 0.4713 -0.0048 0.882
vn 0.6344 -0.0042 0.773
vn 0.6344 -0.0042 0.773
vn 0.6344 -0.0042 0.773
vn 0.6344 -0.0042 0.773
vn 0.7729 -0.0035 0.6345
vn 0.7729 -0.0035 0.6345
vn 0.7729 -0.0035 0.6345
vn 0.7729 -0.0035 0.6345
vn 0.8819 -0.0026 0.4713
vn 0.8819 -0.0026 0.4713
vn 0.8819 -0.0026 0.4713
vn 0.8819 -0.0026 0.4713
vn 0.9569 -0.0016 0.2903
vn 0.9569 -0.0016 0.2903
vn 0.9569 -0.0016 0.2903
vn 0.9569 -0.0016 0.2903
vn 0.9952 -0.0005 0.098
vn 0.9952 -0.0005 0.098
vn 0.9952 -0.0005 0.098
vn 0.9952 -0.0005 0.098
vn 0.9952 0.0005 -0.098
vn 0.9952 0.0005 -0.098
vn 0.9952 0.0005 -0.098
vn 0.9952 0.0005 -0.098
vn 0.9569 0.0016 -0.2903
vn 0.9569 0.0016 -0.2903
vn 0.9569 0.0016 -0.2903
vn 0.9569 0.0016 -0.2903
vn 0.882 0.0026 -0.4713
vn 0.882 0.0026 -0.4713
vn 0.882 0.0026 -0.4713
vn 0.882 0.0026 -0.4713
vn 0.7728 0.0035 -0.6346
vn 0.7728 0.0035 -0.6346
vn 0.7728 0.0035 -0.6346
vn 0.7728 0.0035 -0.6346
vn 0.6343 0.0042 -0.7731
vn 0.6343 0.0042 -0.7731
vn 0.6343 0.0042 -0.7731
vn 0.6343 0.0042 -0.7731
vn 0.4715 0.0048 -0.8818
vn 0.4715 0.0048 -0.8818
vn 0.4715 0.0048 -0.8818
vn 0.4715 0.0048 -0.8818
vn 0.2903 0.0052 -0.9569
vn 0.2903 0.0052 -0.9569
vn 0.2903 0.0052 -0.9569
vn 0.2903 0.0052 -0.9569
vt 0.75 0.51
vt 0.796822 0.514612
vt 0.841844 0.528269
vt 0.883337 0.550447
vt 0.919706 0.580294
vt 0.949553 0.616663
vt 0.971731 0.658156
vt 0.985388 0.703178
vt 0.99 0.75
vt 0.985388 0.796822
vt 0.971731 0.841844
vt 0.949553 0.883337
vt 0.919706 0.919706
vt 0.883337 0.949553
vt 0.841844 0.971731
vt 0.796822 0.985388
vt 0.75 0.99
vt 0.703178 0.985388
vt 0.658156 0.971731
vt 0.616663 0.949553
vt 0.580294 0.919706
vt 0.550447 0.883337
vt 0.528269 0.841844
vt 0.514611 0.796821
vt 0.51 0.75
vt 0.514612 0.703178
vt 0.528269 0.658156
vt 0.550447 0.616663
vt 0.580295 0.580294
vt 0.616663 0.550447
vt 0.658156 0.528269
vt 0.703179 0.514611
vt 1 0.5
vt 1 0
vt 0.96875 0
vt 0.96875 0.5
vt 0.03125 0.5
vt 0.03125 0
vt 0 0
vt 0 0.5
vt 0.0625 0.5
vt 0.0625 0
vt 0.03125 0
vt 0.03125 0.5
vt 0.09375 0.5
vt 0.09375 0
vt 0.0625 0
vt 0.0625 0.5
vt 0.296822 0.514612
vt 0.25 0.51
vt 0.203179 0.514611
vt 0.158156 0.528269
vt 0.116663 0.550447
vt 0.080295 0.580294
vt 0.050447 0.616663
vt 0.028269 0.658156
vt 0.014612 0.703178
vt 0.01 0.75
vt 0.014611 0.796821
vt 0.028269 0.841844
vt 0.050447 0.883337
vt 0.080294 0.919706
vt 0.116663 0.949553
vt 0.158156 0.971731
vt 0.203178 0.985388
vt 0.25 0.99
vt 0.296822 0.985388
vt 0.341844 0.971731
vt 0.383337 0.949553
vt 0.419706 0.919706
vt 0.449553 0.883337
vt 0.471731 0.841844
vt 0.485388 0.796822
vt 0.49 0.75
vt 0.485388 0.703178
vt 0.471731 0.658156
vt 0.449553 0.616663
vt 0.419706 0.580294
vt 0.383337 0.550447
vt 0.341844 0.528269
vt 0.125 0.5
vt 0.125 0
vt 0.09375 0
vt 0.09375 0.5
vt 0.15625 0.5
vt 0.15625 0
vt 0.125 0
vt 0.125 0.5
vt 0.1875 0.5
vt 0.1875 0
vt 0.15625 0
vt 0.15625 0.5
vt 0.21875 0.5
vt 0.21875 0
vt 0.1875 0
vt 0.1875 0.5
vt 0.25 0.5
vt 0.25 0
vt 0.21875 0
vt 0.21875 0.5
vt 0.28125 0.5
vt 0.28125 0
vt 0.25 0
vt 0.25 0.5
vt 0.3125 0.5
vt 0.3125 0
vt 0.28125 0
vt 0.28125 0.5
vt 0.34375 0.5
vt 0.34375 0
vt 0.3125 0
vt 0.3125 0.5
vt 0.375 0.5
vt 0.375 0
vt 0.34375 0
vt 0.34375 0.5
vt 0.40625 0.5
vt 0.40625 0
vt 0.375 0
vt 0.375 0.5
vt 0.4375 0.5
vt 0.4375 0
vt 0.40625 0
vt 0.40625 0.5
vt 0.46875 0.5
vt 0.46875 0
vt 0.4375 0
vt 0.4375 0.5
vt 0.5 0.5
vt 0.5 0
vt 0.46875 0
vt 0.46875 0.5
vt 0.53125 0.5
vt 0.53125 0
vt 0.5 0
vt 0.5 0.5
vt 0.5625 0.5
vt 0.5625 0
vt 0.53125 0
vt 0.53125 0.5
vt 0.59375 0.5
vt 0.59375 0
vt 0.5625 0
vt 0.5625 0.5
vt 0.625 0.5
vt 0.625 0
vt 0.59375 0
vt 0.59375 0.5
vt 0.65625 0.5
vt 0.65625 0
vt 0.625 0
vt 0.625 0.5
vt 0.6875 0.5
vt 0.6875 0
vt 0.65625 0
vt 0.65625 0.5
vt 0.71875 0.5
vt 0.71875 0
vt 0.6875 0
vt 0.6875 0.5
vt 0.75 0.5
vt 0.75 0
vt 0.71875 0
vt 0.71875 0.5
vt 0.78125 0.5
vt 0.78125 0
vt 0.75 0
vt 0.75 0.5
vt 0.8125 0.5
vt 0.8125 0
vt 0.78125 0
vt 0.78125 0.5
vt 0.84375 0.5
vt 0.84375 0
vt 0.8125 0
vt 0.8125 0.5
vt 0.875 0.5
vt 0.875 0
vt 0.84375 0
vt 0.84375 0.5
vt 0.90625 0.5
vt 0.90625 0
vt 0.875 0
vt 0.875 0.5
vt 0.9375 0.5
vt 0.9375 0
vt 0.90625 0
vt 0.90625 0.5
vt 0.96875 0.5
vt 0.96875 0
vt 0.9375 0
vt 0.9375 0.5
s off
f 31/31/31 32/32/32 1/1/1
f 1/1/1 2/2/2 3/3/3
f 3/3/3 4/4/4 5/5/5
f 5/5/5 6/6/6 7/7/7
f 7/7/7 8/8/8 9/9/9
f 9/9/9 10/10/10 11/11/11
f 11/11/11 12/12/12 13/13/13
f 13/13/13 14/14/14 15/15/15
f 15/15/15 16/16/16 17/17/17
f 17/17/17 18/18/18 19/19/19
f 19/19/19 20/20/20 21/21/21
f 21/21/21 22/22/22 23/23/23
f 23/23/23 24/24/24 25/25/25
f 25/25/25 26/26/26 27/27/27
f 27/27/27 28/28/28 29/29/29
f 29/29/29 30/30/30 31/31/31
f 31/31/31 1/1/1 3/3/3
f 3/3/3 5/5/5 7/7/7
f 7/7/7 9/9/9 11/11/11
f 11/11/11 13/13/13 15/15/15
f 15/15/15 17/17/17 19/19/19
f 19/19/19 21/21/21 23/23/23
f 23/23/23 25/25/25 27/27/27
f 27/27/27 29/29/29 31/31/31
f 31/31/31 3/3/3 7/7/7
f 7/7/7 11/11/11 15/15/15
f 15/15/15 19/19/19 23/23/23
f 23/23/23 27/27/27 31/31/31
f 31/31/31 7/7/7 15/15/15
f 15/15/15 23/23/23 31/31/31
f 33/33/33 34/34/34 35/35/35
f 33/33/33 35/35/35 36/36/36
f 37/37/37 38/38/38 39/39/39
f 37/37/37 39/39/39 40/40/40
f 41/41/41 42/42/42 43/43/43
f 41/41/41 43/43/43 44/44/44
f 45/45/45 46/46/46 47/47/47
f 45/45/45 47/47/47 48/48/48
f 79/79/79 80/80/80 49/49/49
f 49/49/49 50/50/50 51/51/51
f 51/51/51 52/52/52 53/53/53
f 53/53/53 54/54/54 55/55/55
f 55/55/55 56/56/56 57/57/57
f 57/57/57 58/58/58 59/59/59
f 59/59/59 60/60/60 61/61/61
f 61/61/61 62/62/62 63/63/63
f 63/63/63 64/64/64 65/65/65
f 65/65/65 66/66/66 67/67/67
f 67/67/67 68/68/68 69/69/69
f 69/69/69 70/70/70 71/71/71
f 71/71/71 72/72/72 73/73/73
f 73/73/73 74/74/74 75/75/75
f 75/75/75 76/76/76 77/77/77
f 77/77/77 78/78/78 79/79/79
f 79/79/79 49/49/49 51/51/51
f 51/51/51 53/53/53 55/55/55
f 55/55/55 57/57/57 59/59/59
f 59/59/59 61/61/61 63/63/63
f 63/63/63 65/65/65 67/67/67
f 67/67/67 69/69/69 71/71/71
f 71/71/71 73/73/73 75/75/75
f 75/75/75 77/77/77 79/79/79
f 79/79/79 51/51/51 55/55/55
f 55/55/55 59/59/59 63/63/63
f 63/63/63 67/67/67 71/71/71
f 71/71/71 75/75/75 79/79/79
f 79/79/79 55/55/55 63/63/63
f 63/63/63 71/71/71 79/79/79
f 81/81/81 82/82/82 83/83/83
f 81/81/81 83/83/83 84/84/84
f 85/85/85 86/86/86 87/87/87
f 85/85/85 87/87/87 88/88/88
f 89/89/89 90/90/90 91/91/91
f 89/89/89 91/91/91 92/92/92
f 93/93/93 94/94/94 95/95/95
f 93/93/93 95/95/95 96/96/96
f 97/97/97 98/98/98 99/99/99
f 97/97/97 99/99/99 100/100/100
f 101/101/101 102/102/102 103/103/103
f 101/101/101 103/103/103 104/104/104
f 105/105/105 106/106/106 107/107/107
f 105/105/105 107/107/107 108/108/108
f 109/109/109 110/110/110 111/111/111
f 109/109/109 111/111/111 112/112/112
f 113/113/113 114/114/114 115/115/115
f 113/113/113 115/115/115 116/116/116
f 117/117/117 118/118/118 119/119/119
f 117/117/117 119/119/119 120/120/120
f 121/121/121 122/122/122 123/123/123
f 121/121/121 123/123/123 124/124/124
f 125/125/125 126/126/126 127/127/127
f 125/125/125 127/127/127 128/128/128
f 129/129/129 130/130/130 131/131/131
f 129/129/129 131/131/131 132/132/132
f 133/133/133 134/134/134 135/135/135
f 133/133/133 135/135/135 136/136/136
f 137/137/137 138/138/138 139/139/139
f 137/137/137 139/139/139 140/140/140
f 141/141/141 142/142/142 143/143/143
f 141/141/141 143/143/143 144/144/144
f 145/145/145 146/146/146 147/147/147
f 145/145/145 147/147/147 148/148/148
f 149/149/149 150/150/150 151/151/151
f 149/149/149 151/151/151 152/152/152
f 153/153/153 154/154/154 155/155/155
f 153/153/153 155/155/155 156/156/156
f 157/157/157 158/158/158 159/159/159
f 157/157/157 159/159/159 160/160/160
f 161/161/161 162/162/162 163/163/163
f 161/161/161 163/163/163 164/164/164
f 165/165/165 166/166/166 167/167/167
f 165/165/165 167/167/167 168/168/168
f 169/169/169 170/170/170 171/171/171
f 169/169/169 171/171/171 172/172/172
f 173/173/173 174/174/174 175/175/175
f 173/173/173 175/175/175 176/176/176
f 177/177/177 178/178/178 179/179/179
f 177/177/177 179/179/179 180/180/180
f 181/181/181 182/182/182 183/183/183
f 181/181/181 183/183/183 184/184/184
f 185/185/185 186/186/186 187/187/187
f 185/185/185 187/187/187 188/188/188
f 189/189/189 190/190/190 191/191/191
f 189/189/189 191/191/191 192/192/192
