v -0.050055 0.01885 0.186982
v -0.045172 0.018939 0.144287
v -0.050055 0.018939 0.144287
v -0.050055 0.01885 0.186982
v -0.044296 0.018918 0.154116
v -0.045172 0.018939 0.144287
v -0.044296 0.018918 0.154116
v -0.01625 0.01887 0.177342
v -0.045172 0.018939 0.144287
v -0.01625 0.01887 0.177342
v -0.01049 0.018939 0.144287
v -0.01625 0.018939 0.144287
v -0.01625 0.01887 0.177342
v -0.01049 0.01885 0.186982
v -0.01049 0.018939 0.144287
v -0.050055 0.01885 0.186982
v -0.044296 0.01885 0.186982
v -0.044296 0.018918 0.154116
v -0.015749 0.01885 0.186982
v -0.01625 0.01887 0.177342
v -0.044296 0.018918 0.154116
v -0.015749 0.01885 0.186982
v -0.01049 0.01885 0.186982
v -0.01625 0.01887 0.177342
v -0.045172 0.015183 0.144279
v -0.050055 0.015094 0.186974
v -0.050055 0.015183 0.144279
v -0.044296 0.015162 0.154108
v -0.050055 0.015094 0.186974
v -0.045172 0.015183 0.144279
v -0.01625 0.015114 0.177334
v -0.044296 0.015162 0.154108
v -0.045172 0.015183 0.144279
v -0.01049 0.015183 0.144279
v -0.01625 0.015114 0.177334
v -0.01625 0.015183 0.144279
v -0.01049 0.015094 0.186974
v -0.01625 0.015114 0.177334
v -0.01049 0.015183 0.144279
v -0.044296 0.015094 0.186974
v -0.050055 0.015094 0.186974
v -0.044296 0.015162 0.154108
v -0.01625 0.015114 0.177334
v -0.015749 0.015094 0.186974
v -0.044296 0.015162 0.154108
v -0.01049 0.015094 0.186974
v -0.015749 0.015094 0.186974
v -0.01625 0.015114 0.177334
v -0.015749 0.01885 0.186982
v -0.044296 0.018918 0.154116
v -0.044296 0.015162 0.154108
v -0.015749 0.015094 0.186974
v -0.044296 0.018918 0.154116
v -0.044296 0.01885 0.186982
v -0.044296 0.015094 0.186974
v -0.044296 0.015162 0.154108
v -0.044296 0.01885 0.186982
v -0.050055 0.01885 0.186982
v -0.050055 0.015094 0.186974
v -0.044296 0.015094 0.186974
v -0.050055 0.01885 0.186982
v -0.050055 0.018939 0.144287
v -0.050055 0.015183 0.144279
v -0.050055 0.015094 0.186974
v -0.050055 0.018939 0.144287
v -0.045172 0.018939 0.144287
v -0.045172 0.015183 0.144279
v -0.050055 0.015183 0.144279
v -0.045172 0.018939 0.144287
v -0.01625 0.01887 0.177342
v -0.01625 0.015114 0.177334
v -0.045172 0.015183 0.144279
v -0.01625 0.01887 0.177342
v -0.01625 0.018939 0.144287
v -0.01625 0.015183 0.144279
v -0.01625 0.015114 0.177334
v -0.01625 0.018939 0.144287
v -0.01049 0.018939 0.144287
v -0.01049 0.015183 0.144279
v -0.01625 0.015183 0.144279
v -0.01049 0.018939 0.144287
v -0.01049 0.01885 0.186982
v -0.01049 0.015094 0.186974
v -0.01049 0.015183 0.144279
v -0.01049 0.01885 0.186982
v -0.015749 0.01885 0.186982
v -0.015749 0.015094 0.186974
v -0.01049 0.015094 0.186974
vn -0 1 0.0021
vn -0 1 0.0021
vn -0 1 0.0021
vn -0 1 0.0021
vn 0.0001 1 0.0021
vn -0 1 0.0021
vn 0.0001 1 0.0021
vn -0 1 0.0021
vn -0 1 0.0021
vn -0 1 0.0021
vn -0 1 0.0021
vn -0 1 0.0021
vn -0 1 0.0021
vn -0 1 0.0021
vn -0 1 0.0021
vn -0 1 0.0021
vn -0 1 0.0021
vn 0.0001 1 0.0021
vn -0 1 0.0021
vn -0 1 0.0021
vn 0.0001 1 0.0021
vn -0 1 0.0021
vn -0 1 0.0021
vn -0 1 0.0021
vn -0 -1 -0.0021
vn -0 -1 -0.0021
vn -0 -1 -0.0021
vn -0.0001 -1 -0.0021
vn -0 -1 -0.0021
vn -0 -1 -0.0021
vn -0 -1 -0.0021
vn -0.0001 -1 -0.0021
vn -0 -1 -0.0021
vn -0 -1 -0.0021
vn -0 -1 -0.0021
vn -0 -1 -0.0021
vn -0 -1 -0.0021
vn -0 -1 -0.0021
vn -0 -1 -0.0021
vn -0 -1 -0.0021
vn -0 -1 -0.0021
vn -0.0001 -1 -0.0021
vn -0 -1 -0.0021
vn -0 -1 -0.0021
vn -0.0001 -1 -0.0021
vn -0 -1 -0.0021
vn -0 -1 -0.0021
vn -0 -1 -0.0021
vn -0.4149 -0.0019 0.9099
vn 0.35 -0.002 0.9367
vn 0.35 -0.002 0.9367
vn -0.4149 -0.0019 0.9099
vn 0.35 -0.002 0.9367
vn 0.7071 -0.0015 0.7071
vn 0.7071 -0.0015 0.7071
vn 0.35 -0.002 0.9367
vn 0.7071 -0.0015 0.7071
vn -0.7071 -0.0015 0.7071
vn -0.7071 -0.0015 0.7071
vn 0.7071 -0.0015 0.7071
vn -0.7071 -0.0015 0.7071
vn -0.7071 0.0015 -0.7071
vn -0.7071 0.0015 -0.7071
vn -0.7071 -0.0015 0.7071
vn -0.7071 0.0015 -0.7071
vn 0.4132 0.0019 -0.9106
vn 0.4132 0.0019 -0.9106
vn -0.7071 0.0015 -0.7071
vn 0.4132 0.0019 -0.9106
vn -0.3517 0.002 -0.9361
vn -0.3517 0.002 -0.9361
vn 0.4132 0.0019 -0.9106
vn -0.3517 0.002 -0.9361
vn -0.7071 0.0015 -0.7071
vn -0.7071 0.0015 -0.7071
vn -0.3517 0.002 -0.9361
vn -0.7071 0.0015 -0.7071
vn 0.7071 0.0015 -0.7071
vn 0.7071 0.0015 -0.7071
vn -0.7071 0.0015 -0.7071
vn 0.7071 0.0015 -0.7071
vn 0.7071 -0.0015 0.7071
vn 0.7071 -0.0015 0.7071
vn 0.7071 0.0015 -0.7071
vn 0.7071 -0.0015 0.7071
vn -0.4149 -0.0019 0.9099
vn -0.4149 -0.0019 0.9099
vn 0.7071 -0.0015 0.7071
vt 0.333333 1
vt 0.555556 1
vt 0.444444 1
vt 0.333333 1
vt 0.111111 1
vt 0.555556 1
vt 0.111111 1
vt 0.666667 1
vt 0.555556 1
vt 0.666667 1
vt 0.888889 1
vt 0.777778 1
vt 0.666667 1
vt 1 1
vt 0.888889 1
vt 0.333333 1
vt 0.222222 1
vt 0.111111 1
vt 0 1
vt 0.666667 1
vt 0.111111 1
vt 0 1
vt 1 1
vt 0.666667 1
vt 0.555556 1
vt 0.333333 1
vt 0.444444 1
vt 0.111111 1
vt 0.333333 1
vt 0.555556 1
vt 0.666667 1
vt 0.111111 1
vt 0.555556 1
vt 0.888889 1
vt 0.666667 1
vt 0.777778 1
vt 1 1
vt 0.666667 1
vt 0.888889 1
vt 0.222222 1
vt 0.333333 1
vt 0.111111 1
vt 0.666667 1
vt 0 1
vt 0.111111 1
vt 1 1
vt 0 1
vt 0.666667 1
vt 0 0
vt 0.1 0
vt 0.1 1
vt 0 1
vt 0.1 0
vt 0.2 0
vt 0.2 1
vt 0.1 1
vt 0.2 0
vt 0.3 0
vt 0.3 1
vt 0.2 1
vt 0.3 0
vt 0.4 0
vt 0.4 1
vt 0.3 1
vt 0.4 0
vt 0.5 0
vt 0.5 1
vt 0.4 1
vt 0.5 0
vt 0.6 0
vt 0.6 1
vt 0.5 1
vt 0.6 0
vt 0.7 0
vt 0.7 1
vt 0.6 1
vt 0.7 0
vt 0.8 0
vt 0.8 1
vt 0.7 1
vt 0.8 0
vt 0.9 0
vt 0.9 1
vt 0.8 1
vt 0.9 0
vt 1 0
vt 1 1
vt 0.9 1
s off
f 1/1/1 2/2/2 3/3/3
f 4/4/4 5/5/5 6/6/6
f 7/7/7 8/8/8 9/9/9
f 10/10/10 11/11/11 12/12/12
f 13/13/13 14/14/14 15/15/15
f 16/16/16 17/17/17 18/18/18
f 19/19/19 20/20/20 21/21/21
f 22/22/22 23/23/23 24/24/24
f 25/25/25 26/26/26 27/27/27
f 28/28/28 29/29/29 30/30/30
f 31/31/31 32/32/32 33/33/33
f 34/34/34 35/35/35 36/36/36
f 37/37/37 38/38/38 39/39/39
f 40/40/40 41/41/41 42/42/42
f 43/43/43 44/44/44 45/45/45
f 46/46/46 47/47/47 48/48/48
f 49/49/49 50/50/50 51/51/51
f 49/49/49 51/51/51 52/52/52
f 53/53/53 54/54/54 55/55/55
f 53/53/53 55/55/55 56/56/56
f 57/57/57 58/58/58 59/59/59
f 57/57/57 59/59/59 60/60/60
f 61/61/61 62/62/62 63/63/63
f 61/61/61 63/63/63 64/64/64
f 65/65/65 66/66/66 67/67/67
f 65/65/65 67/67/67 68/68/68
f 69/69/69 70/70/70 71/71/71
f 69/69/69 71/71/71 72/72/72
f 73/73/73 74/74/74 75/75/75
f 73/73/73 75/75/75 76/76/76
f 77/77/77 78/78/78 79/79/79
f 77/77/77 79/79/79 80/80/80
f 81/81/81 82/82/82 83/83/83
f 81/81/81 83/83/83 84/84/84
f 85/85/85 86/86/86 87/87/87
f 85/85/85 87/87/87 88/88/88
