v 0.249884 0.029371 -0.102772
v 0.256652 0.029371 -0.102774
v 0.253241 0.029372 -0.102977
v 0.249884 0.029371 -0.102772
v 0.259834 0.029368 -0.102181
v 0.256652 0.029371 -0.102774
v 0.24674 0.029368 -0.102176
v 0.259834 0.029368 -0.102181
v 0.249884 0.029371 -0.102772
v 0.24674 0.029368 -0.102176
v 0.262774 0.029362 -0.101227
v 0.259834 0.029368 -0.102181
v 0.243825 0.029362 -0.101218
v 0.262774 0.029362 -0.101227
v 0.24674 0.029368 -0.102176
v 0.243825 0.029362 -0.101218
v 0.265458 0.029355 -0.099941
v 0.262774 0.029362 -0.101227
v 0.241152 0.029355 -0.099927
v 0.265458 0.029355 -0.099941
v 0.243825 0.029362 -0.101218
v 0.241152 0.029355 -0.099927
v 0.267875 0.029347 -0.098349
v 0.265458 0.029355 -0.099941
v 0.238738 0.029347 -0.09833
v 0.267875 0.029347 -0.098349
v 0.241152 0.029355 -0.099927
v 0.238738 0.029347 -0.09833
v 0.270011 0.029337 -0.096483
v 0.267875 0.029347 -0.098349
v 0.236597 0.029336 -0.09646
v 0.253241 0.029341 -0.097343
v 0.238738 0.029347 -0.09833
v 0.253241 0.029341 -0.097343
v 0.270011 0.029337 -0.096483
v 0.238738 0.029347 -0.09833
v 0.236597 0.029336 -0.09646
v 0.250916 0.02934 -0.097203
v 0.253241 0.029341 -0.097343
v 0.255581 0.02934 -0.097203
v 0.270011 0.029337 -0.096483
v 0.253241 0.029341 -0.097343
v 0.236597 0.029336 -0.09646
v 0.248708 0.029338 -0.09679
v 0.250916 0.02934 -0.097203
v 0.257801 0.029338 -0.09679
v 0.270011 0.029337 -0.096483
v 0.255581 0.02934 -0.097203
v 0.236597 0.029336 -0.09646
v 0.246635 0.029335 -0.096121
v 0.248708 0.029338 -0.09679
v 0.259884 0.029335 -0.096121
v 0.270011 0.029337 -0.096483
v 0.257801 0.029338 -0.09679
v 0.259884 0.029335 -0.096121
v 0.271854 0.029325 -0.094368
v 0.270011 0.029337 -0.096483
v 0.234744 0.029325 -0.094342
v 0.246635 0.029335 -0.096121
v 0.236597 0.029336 -0.09646
v 0.234744 0.029325 -0.094342
v 0.244711 0.02933 -0.095211
v 0.246635 0.029335 -0.096121
v 0.261816 0.02933 -0.095211
v 0.271854 0.029325 -0.094368
v 0.259884 0.029335 -0.096121
v 0.234744 0.029325 -0.094342
v 0.242954 0.029323 -0.094074
v 0.244711 0.02933 -0.095211
v 0.263579 0.029323 -0.094074
v 0.271854 0.029325 -0.094368
v 0.261816 0.02933 -0.095211
v 0.263579 0.029323 -0.094074
v 0.27339 0.029312 -0.092034
v 0.271854 0.029325 -0.094368
v 0.233195 0.029312 -0.092006
v 0.242954 0.029323 -0.094074
v 0.234744 0.029325 -0.094342
v 0.233195 0.029312 -0.092006
v 0.241378 0.029316 -0.092726
v 0.242954 0.029323 -0.094074
v 0.265159 0.029316 -0.092726
v 0.27339 0.029312 -0.092034
v 0.263579 0.029323 -0.094074
v 0.233195 0.029312 -0.092006
v 0.240001 0.029308 -0.091183
v 0.241378 0.029316 -0.092726
v 0.26654 0.029308 -0.091183
v 0.27339 0.029312 -0.092034
v 0.265159 0.029316 -0.092726
v 0.26654 0.029308 -0.091183
v 0.274607 0.029299 -0.089509
v 0.27339 0.029312 -0.092034
v 0.231963 0.029298 -0.089482
v 0.240001 0.029308 -0.091183
v 0.233195 0.029312 -0.092006
v 0.231963 0.029298 -0.089482
v 0.238838 0.029298 -0.08946
v 0.240001 0.029308 -0.091183
v 0.267705 0.029298 -0.08946
v 0.274607 0.029299 -0.089509
v 0.26654 0.029308 -0.091183
v 0.267705 0.029298 -0.08946
v 0.275493 0.029284 -0.08682
v 0.274607 0.029299 -0.089509
v 0.231065 0.029284 -0.086798
v 0.238838 0.029298 -0.08946
v 0.231963 0.029298 -0.089482
v 0.231065 0.029284 -0.086798
v 0.237906 0.029288 -0.087572
v 0.238838 0.029298 -0.08946
v 0.268639 0.029288 -0.087572
v 0.275493 0.029284 -0.08682
v 0.267705 0.029298 -0.08946
v 0.269325 0.029277 -0.085533
v 0.275493 0.029284 -0.08682
v 0.268639 0.029288 -0.087572
v 0.231065 0.029284 -0.086798
v 0.23722 0.029277 -0.085533
v 0.237906 0.029288 -0.087572
v 0.269325 0.029277 -0.085533
v 0.276033 0.029269 -0.083997
v 0.275493 0.029284 -0.08682
v 0.230515 0.029268 -0.083984
v 0.23722 0.029277 -0.085533
v 0.231065 0.029284 -0.086798
v 0.269749 0.029265 -0.08336
v 0.276033 0.029269 -0.083997
v 0.269325 0.029277 -0.085533
v 0.230515 0.029268 -0.083984
v 0.236796 0.029265 -0.08336
v 0.23722 0.029277 -0.085533
v 0.269749 0.029265 -0.08336
v 0.276217 0.029253 -0.081067
v 0.276033 0.029269 -0.083997
v 0.230329 0.029253 -0.081067
v 0.236796 0.029265 -0.08336
v 0.230515 0.029268 -0.083984
v 0.269894 0.029253 -0.081067
v 0.276217 0.029253 -0.081067
v 0.269749 0.029265 -0.08336
v 0.230329 0.029253 -0.081067
v 0.236652 0.029253 -0.081067
v 0.236796 0.029265 -0.08336
v 0.23051 0.029237 -0.078203
v 0.236652 0.029253 -0.081067
v 0.230329 0.029253 -0.081067
v 0.23051 0.029237 -0.078203
v 0.236796 0.02924 -0.078787
v 0.236652 0.029253 -0.081067
v 0.269749 0.02924 -0.078787
v 0.276217 0.029253 -0.081067
v 0.269894 0.029253 -0.081067
v 0.269749 0.02924 -0.078787
v 0.276038 0.029237 -0.078216
v 0.276217 0.029253 -0.081067
v 0.269325 0.029228 -0.076623
v 0.276038 0.029237 -0.078216
v 0.269749 0.02924 -0.078787
v 0.23051 0.029237 -0.078203
v 0.23722 0.029228 -0.076623
v 0.236796 0.02924 -0.078787
v 0.269325 0.029228 -0.076623
v 0.27551 0.029222 -0.075444
v 0.276038 0.029237 -0.078216
v 0.231047 0.029222 -0.075423
v 0.23722 0.029228 -0.076623
v 0.23051 0.029237 -0.078203
v 0.268639 0.029217 -0.074589
v 0.27551 0.029222 -0.075444
v 0.269325 0.029228 -0.076623
v 0.231047 0.029222 -0.075423
v 0.237906 0.029217 -0.074589
v 0.23722 0.029228 -0.076623
v 0.268639 0.029217 -0.074589
v 0.274641 0.029207 -0.072784
v 0.27551 0.029222 -0.075444
v 0.231926 0.029207 -0.072757
v 0.237906 0.029217 -0.074589
v 0.231047 0.029222 -0.075423
v 0.267705 0.029207 -0.072701
v 0.274641 0.029207 -0.072784
v 0.268639 0.029217 -0.074589
v 0.231926 0.029207 -0.072757
v 0.238838 0.029207 -0.072701
v 0.237906 0.029217 -0.074589
v 0.267705 0.029207 -0.072701
v 0.273441 0.029194 -0.070267
v 0.274641 0.029207 -0.072784
v 0.233134 0.029194 -0.070239
v 0.238838 0.029207 -0.072701
v 0.231926 0.029207 -0.072757
v 0.26654 0.029198 -0.070977
v 0.273441 0.029194 -0.070267
v 0.267705 0.029207 -0.072701
v 0.233134 0.029194 -0.070239
v 0.240001 0.029198 -0.070977
v 0.238838 0.029207 -0.072701
v 0.265159 0.029189 -0.069431
v 0.273441 0.029194 -0.070267
v 0.26654 0.029198 -0.070977
v 0.233134 0.029194 -0.070239
v 0.241378 0.029189 -0.069431
v 0.240001 0.029198 -0.070977
v 0.265159 0.029189 -0.069431
v 0.271921 0.029181 -0.067926
v 0.273441 0.029194 -0.070267
v 0.234659 0.029181 -0.067899
v 0.241378 0.029189 -0.069431
v 0.233134 0.029194 -0.070239
v 0.263579 0.029182 -0.068079
v 0.271921 0.029181 -0.067926
v 0.265159 0.029189 -0.069431
v 0.234659 0.029181 -0.067899
v 0.242954 0.029182 -0.068079
v 0.241378 0.029189 -0.069431
v 0.261816 0.029176 -0.066937
v 0.271921 0.029181 -0.067926
v 0.263579 0.029182 -0.068079
v 0.234659 0.029181 -0.067899
v 0.244711 0.029176 -0.066937
v 0.242954 0.029182 -0.068079
v 0.261816 0.029176 -0.066937
v 0.270089 0.029169 -0.065793
v 0.271921 0.029181 -0.067926
v 0.236487 0.029169 -0.065769
v 0.244711 0.029176 -0.066937
v 0.234659 0.029181 -0.067899
v 0.259884 0.029171 -0.066022
v 0.270089 0.029169 -0.065793
v 0.261816 0.029176 -0.066937
v 0.236487 0.029169 -0.065769
v 0.246635 0.029171 -0.066022
v 0.244711 0.029176 -0.066937
v 0.257801 0.029167 -0.065348
v 0.270089 0.029169 -0.065793
v 0.259884 0.029171 -0.066022
v 0.236487 0.029169 -0.065769
v 0.248708 0.029167 -0.065348
v 0.246635 0.029171 -0.066022
v 0.257801 0.029167 -0.065348
v 0.267957 0.029159 -0.063898
v 0.270089 0.029169 -0.065793
v 0.238606 0.029159 -0.063879
v 0.248708 0.029167 -0.065348
v 0.236487 0.029169 -0.065769
v 0.255581 0.029165 -0.064933
v 0.267957 0.029159 -0.063898
v 0.257801 0.029167 -0.065348
v 0.238606 0.029159 -0.063879
v 0.250916 0.029165 -0.064933
v 0.248708 0.029167 -0.065348
v 0.253241 0.029164 -0.064791
v 0.267957 0.029159 -0.063898
v 0.255581 0.029165 -0.064933
v 0.238606 0.029159 -0.063879
v 0.253241 0.029164 -0.064791
v 0.250916 0.029165 -0.064933
v 0.238606 0.029159 -0.063879
v 0.267957 0.029159 -0.063898
v 0.253241 0.029164 -0.064791
v 0.238606 0.029159 -0.063879
v 0.265532 0.02915 -0.062278
v 0.267957 0.029159 -0.063898
v 0.241004 0.02915 -0.062264
v 0.265532 0.02915 -0.062278
v 0.238606 0.029159 -0.063879
v 0.241004 0.02915 -0.062264
v 0.262826 0.029143 -0.06096
v 0.265532 0.02915 -0.062278
v 0.243666 0.029143 -0.060952
v 0.262826 0.029143 -0.06096
v 0.241004 0.02915 -0.062264
v 0.243666 0.029143 -0.060952
v 0.259848 0.029138 -0.05998
v 0.262826 0.029143 -0.06096
v 0.246581 0.029138 -0.059975
v 0.259848 0.029138 -0.05998
v 0.243666 0.029143 -0.060952
v 0.246581 0.029138 -0.059975
v 0.256608 0.029134 -0.059368
v 0.259848 0.029138 -0.05998
v 0.249735 0.029134 -0.059367
v 0.256608 0.029134 -0.059368
v 0.246581 0.029138 -0.059975
v 0.249735 0.029134 -0.059367
v 0.253116 0.029133 -0.059157
v 0.256608 0.029134 -0.059368
v 0.256652 0.025615 -0.102794
v 0.249884 0.025615 -0.102793
v 0.253241 0.025616 -0.102998
v 0.259834 0.025611 -0.102201
v 0.249884 0.025615 -0.102793
v 0.256652 0.025615 -0.102794
v 0.259834 0.025611 -0.102201
v 0.24674 0.025611 -0.102196
v 0.249884 0.025615 -0.102793
v 0.262774 0.025606 -0.101247
v 0.24674 0.025611 -0.102196
v 0.259834 0.025611 -0.102201
v 0.262774 0.025606 -0.101247
v 0.243825 0.025606 -0.101238
v 0.24674 0.025611 -0.102196
v 0.265458 0.025599 -0.099961
v 0.243825 0.025606 -0.101238
v 0.262774 0.025606 -0.101247
v 0.265458 0.025599 -0.099961
v 0.241152 0.025599 -0.099947
v 0.243825 0.025606 -0.101238
v 0.267875 0.025591 -0.09837
v 0.241152 0.025599 -0.099947
v 0.265458 0.025599 -0.099961
v 0.267875 0.025591 -0.09837
v 0.238738 0.02559 -0.098351
v 0.241152 0.025599 -0.099947
v 0.270011 0.02558 -0.096503
v 0.238738 0.02559 -0.098351
v 0.267875 0.025591 -0.09837
v 0.253241 0.025585 -0.097364
v 0.236597 0.02558 -0.096479
v 0.238738 0.02559 -0.098351
v 0.270011 0.02558 -0.096503
v 0.253241 0.025585 -0.097364
v 0.238738 0.02559 -0.098351
v 0.250916 0.025584 -0.097223
v 0.236597 0.02558 -0.096479
v 0.253241 0.025585 -0.097364
v 0.270011 0.02558 -0.096503
v 0.255581 0.025584 -0.097223
v 0.253241 0.025585 -0.097364
v 0.248708 0.025582 -0.09681
v 0.236597 0.02558 -0.096479
v 0.250916 0.025584 -0.097223
v 0.270011 0.02558 -0.096503
v 0.257801 0.025582 -0.09681
v 0.255581 0.025584 -0.097223
v 0.246635 0.025578 -0.096141
v 0.236597 0.02558 -0.096479
v 0.248708 0.025582 -0.09681
v 0.270011 0.02558 -0.096503
v 0.259884 0.025578 -0.096141
v 0.257801 0.025582 -0.09681
v 0.271854 0.025569 -0.094388
v 0.259884 0.025578 -0.096141
v 0.270011 0.02558 -0.096503
v 0.246635 0.025578 -0.096141
v 0.234744 0.025569 -0.094362
v 0.236597 0.02558 -0.096479
v 0.244711 0.025573 -0.095231
v 0.234744 0.025569 -0.094362
v 0.246635 0.025578 -0.096141
v 0.271854 0.025569 -0.094388
v 0.261816 0.025573 -0.095231
v 0.259884 0.025578 -0.096141
v 0.242954 0.025567 -0.094094
v 0.234744 0.025569 -0.094362
v 0.244711 0.025573 -0.095231
v 0.271854 0.025569 -0.094388
v 0.263579 0.025567 -0.094094
v 0.261816 0.025573 -0.095231
v 0.27339 0.025556 -0.092055
v 0.263579 0.025567 -0.094094
v 0.271854 0.025569 -0.094388
v 0.242954 0.025567 -0.094094
v 0.233195 0.025556 -0.092027
v 0.234744 0.025569 -0.094362
v 0.241378 0.02556 -0.092747
v 0.233195 0.025556 -0.092027
v 0.242954 0.025567 -0.094094
v 0.27339 0.025556 -0.092055
v 0.265159 0.02556 -0.092747
v 0.263579 0.025567 -0.094094
v 0.240001 0.025552 -0.091204
v 0.233195 0.025556 -0.092027
v 0.241378 0.02556 -0.092747
v 0.27339 0.025556 -0.092055
v 0.26654 0.025552 -0.091204
v 0.265159 0.02556 -0.092747
v 0.274607 0.025542 -0.089529
v 0.26654 0.025552 -0.091204
v 0.27339 0.025556 -0.092055
v 0.240001 0.025552 -0.091204
v 0.231963 0.025542 -0.089502
v 0.233195 0.025556 -0.092027
v 0.238838 0.025542 -0.089481
v 0.231963 0.025542 -0.089502
v 0.240001 0.025552 -0.091204
v 0.274607 0.025542 -0.089529
v 0.267705 0.025542 -0.089481
v 0.26654 0.025552 -0.091204
v 0.275493 0.025528 -0.086841
v 0.267705 0.025542 -0.089481
v 0.274607 0.025542 -0.089529
v 0.238838 0.025542 -0.089481
v 0.231065 0.025528 -0.086819
v 0.231963 0.025542 -0.089502
v 0.237906 0.025532 -0.087592
v 0.231065 0.025528 -0.086819
v 0.238838 0.025542 -0.089481
v 0.275493 0.025528 -0.086841
v 0.268639 0.025532 -0.087592
v 0.267705 0.025542 -0.089481
v 0.275493 0.025528 -0.086841
v 0.269325 0.025521 -0.085553
v 0.268639 0.025532 -0.087592
v 0.23722 0.025521 -0.085553
v 0.231065 0.025528 -0.086819
v 0.237906 0.025532 -0.087592
v 0.276033 0.025512 -0.084018
v 0.269325 0.025521 -0.085553
v 0.275493 0.025528 -0.086841
v 0.23722 0.025521 -0.085553
v 0.230515 0.025512 -0.084004
v 0.231065 0.025528 -0.086819
v 0.276033 0.025512 -0.084018
v 0.269749 0.025509 -0.08338
v 0.269325 0.025521 -0.085553
v 0.236796 0.025509 -0.08338
v 0.230515 0.025512 -0.084004
v 0.23722 0.025521 -0.085553
v 0.276217 0.025496 -0.081087
v 0.269749 0.025509 -0.08338
v 0.276033 0.025512 -0.084018
v 0.236796 0.025509 -0.08338
v 0.230329 0.025496 -0.081087
v 0.230515 0.025512 -0.084004
v 0.276217 0.025496 -0.081087
v 0.269894 0.025496 -0.081087
v 0.269749 0.025509 -0.08338
v 0.236652 0.025496 -0.081087
v 0.230329 0.025496 -0.081087
v 0.236796 0.025509 -0.08338
v 0.236652 0.025496 -0.081087
v 0.23051 0.025481 -0.078223
v 0.230329 0.025496 -0.081087
v 0.236796 0.025484 -0.078808
v 0.23051 0.025481 -0.078223
v 0.236652 0.025496 -0.081087
v 0.276217 0.025496 -0.081087
v 0.269749 0.025484 -0.078808
v 0.269894 0.025496 -0.081087
v 0.276038 0.025481 -0.078236
v 0.269749 0.025484 -0.078808
v 0.276217 0.025496 -0.081087
v 0.276038 0.025481 -0.078236
v 0.269325 0.025472 -0.076643
v 0.269749 0.025484 -0.078808
v 0.23722 0.025472 -0.076643
v 0.23051 0.025481 -0.078223
v 0.236796 0.025484 -0.078808
v 0.27551 0.025466 -0.075465
v 0.269325 0.025472 -0.076643
v 0.276038 0.025481 -0.078236
v 0.23722 0.025472 -0.076643
v 0.231047 0.025466 -0.075443
v 0.23051 0.025481 -0.078223
v 0.27551 0.025466 -0.075465
v 0.268639 0.025461 -0.074609
v 0.269325 0.025472 -0.076643
v 0.237906 0.025461 -0.074609
v 0.231047 0.025466 -0.075443
v 0.23722 0.025472 -0.076643
v 0.274641 0.025451 -0.072805
v 0.268639 0.025461 -0.074609
v 0.27551 0.025466 -0.075465
v 0.237906 0.025461 -0.074609
v 0.231926 0.025451 -0.072778
v 0.231047 0.025466 -0.075443
v 0.274641 0.025451 -0.072805
v 0.267705 0.025451 -0.072722
v 0.268639 0.025461 -0.074609
v 0.238838 0.025451 -0.072722
v 0.231926 0.025451 -0.072778
v 0.237906 0.025461 -0.074609
v 0.273441 0.025438 -0.070288
v 0.267705 0.025451 -0.072722
v 0.274641 0.025451 -0.072805
v 0.238838 0.025451 -0.072722
v 0.233134 0.025437 -0.070259
v 0.231926 0.025451 -0.072778
v 0.273441 0.025438 -0.070288
v 0.26654 0.025442 -0.070997
v 0.267705 0.025451 -0.072722
v 0.240001 0.025442 -0.070997
v 0.233134 0.025437 -0.070259
v 0.238838 0.025451 -0.072722
v 0.273441 0.025438 -0.070288
v 0.265159 0.025433 -0.069452
v 0.26654 0.025442 -0.070997
v 0.241378 0.025433 -0.069452
v 0.233134 0.025437 -0.070259
v 0.240001 0.025442 -0.070997
v 0.271921 0.025425 -0.067946
v 0.265159 0.025433 -0.069452
v 0.273441 0.025438 -0.070288
v 0.241378 0.025433 -0.069452
v 0.234659 0.025425 -0.06792
v 0.233134 0.025437 -0.070259
v 0.271921 0.025425 -0.067946
v 0.263579 0.025426 -0.068099
v 0.265159 0.025433 -0.069452
v 0.242954 0.025426 -0.068099
v 0.234659 0.025425 -0.06792
v 0.241378 0.025433 -0.069452
v 0.271921 0.025425 -0.067946
v 0.261816 0.025419 -0.066958
v 0.263579 0.025426 -0.068099
v 0.244711 0.025419 -0.066958
v 0.234659 0.025425 -0.06792
v 0.242954 0.025426 -0.068099
v 0.270089 0.025413 -0.065812
v 0.261816 0.025419 -0.066958
v 0.271921 0.025425 -0.067946
v 0.244711 0.025419 -0.066958
v 0.236487 0.025413 -0.065789
v 0.234659 0.025425 -0.06792
v 0.270089 0.025413 -0.065812
v 0.259884 0.025415 -0.066042
v 0.261816 0.025419 -0.066958
v 0.246635 0.025415 -0.066042
v 0.236487 0.025413 -0.065789
v 0.244711 0.025419 -0.066958
v 0.270089 0.025413 -0.065812
v 0.257801 0.025411 -0.065369
v 0.259884 0.025415 -0.066042
v 0.248708 0.025411 -0.065369
v 0.236487 0.025413 -0.065789
v 0.246635 0.025415 -0.066042
v 0.267957 0.025403 -0.063919
v 0.257801 0.025411 -0.065369
v 0.270089 0.025413 -0.065812
v 0.248708 0.025411 -0.065369
v 0.238606 0.025403 -0.0639
v 0.236487 0.025413 -0.065789
v 0.267957 0.025403 -0.063919
v 0.255581 0.025409 -0.064953
v 0.257801 0.025411 -0.065369
v 0.250916 0.025409 -0.064953
v 0.238606 0.025403 -0.0639
v 0.248708 0.025411 -0.065369
v 0.267957 0.025403 -0.063919
v 0.253241 0.025408 -0.064811
v 0.255581 0.025409 -0.064953
v 0.253241 0.025408 -0.064811
v 0.238606 0.025403 -0.0639
v 0.250916 0.025409 -0.064953
v 0.267957 0.025403 -0.063919
v 0.238606 0.025403 -0.0639
v 0.253241 0.025408 -0.064811
v 0.265532 0.025394 -0.062298
v 0.238606 0.025403 -0.0639
v 0.267957 0.025403 -0.063919
v 0.265532 0.025394 -0.062298
v 0.241004 0.025394 -0.062284
v 0.238606 0.025403 -0.0639
v 0.262826 0.025387 -0.060981
v 0.241004 0.025394 -0.062284
v 0.265532 0.025394 -0.062298
v 0.262826 0.025387 -0.060981
v 0.243666 0.025387 -0.060972
v 0.241004 0.025394 -0.062284
v 0.259848 0.025382 -0.06
v 0.243666 0.025387 -0.060972
v 0.262826 0.025387 -0.060981
v 0.259848 0.025382 -0.06
v 0.246581 0.025382 -0.059996
v 0.243666 0.025387 -0.060972
v 0.256608 0.025378 -0.059388
v 0.246581 0.025382 -0.059996
v 0.259848 0.025382 -0.06
v 0.256608 0.025378 -0.059388
v 0.249735 0.025378 -0.059387
v 0.246581 0.025382 -0.059996
v 0.253116 0.025377 -0.059177
v 0.249735 0.025378 -0.059387
v 0.256608 0.025378 -0.059388
v 0.256652 0.029371 -0.102774
v 0.259834 0.029368 -0.102181
v 0.259834 0.025611 -0.102201
v 0.256652 0.025615 -0.102794
v 0.259834 0.029368 -0.102181
v 0.262774 0.029362 -0.101227
v 0.262774 0.025606 -0.101247
v 0.259834 0.025611 -0.102201
v 0.262774 0.029362 -0.101227
v 0.265458 0.029355 -0.099941
v 0.265458 0.025599 -0.099961
v 0.262774 0.025606 -0.101247
v 0.265458 0.029355 -0.099941
v 0.267875 0.029347 -0.098349
v 0.267875 0.025591 -0.09837
v 0.265458 0.025599 -0.099961
v 0.267875 0.029347 -0.098349
v 0.270011 0.029337 -0.096483
v 0.270011 0.02558 -0.096503
v 0.267875 0.025591 -0.09837
v 0.270011 0.029337 -0.096483
v 0.271854 0.029325 -0.094368
v 0.271854 0.025569 -0.094388
v 0.270011 0.02558 -0.096503
v 0.271854 0.029325 -0.094368
v 0.27339 0.029312 -0.092034
v 0.27339 0.025556 -0.092055
v 0.271854 0.025569 -0.094388
v 0.27339 0.029312 -0.092034
v 0.274607 0.029299 -0.089509
v 0.274607 0.025542 -0.089529
v 0.27339 0.025556 -0.092055
v 0.274607 0.029299 -0.089509
v 0.275493 0.029284 -0.08682
v 0.275493 0.025528 -0.086841
v 0.274607 0.025542 -0.089529
v 0.275493 0.029284 -0.08682
v 0.276033 0.029269 -0.083997
v 0.276033 0.025512 -0.084018
v 0.275493 0.025528 -0.086841
v 0.276033 0.029269 -0.083997
v 0.276217 0.029253 -0.081067
v 0.276217 0.025496 -0.081087
v 0.276033 0.025512 -0.084018
v 0.276217 0.029253 -0.081067
v 0.276038 0.029237 -0.078216
v 0.276038 0.025481 -0.078236
v 0.276217 0.025496 -0.081087
v 0.276038 0.029237 -0.078216
v 0.27551 0.029222 -0.075444
v 0.27551 0.025466 -0.075465
v 0.276038 0.025481 -0.078236
v 0.27551 0.029222 -0.075444
v 0.274641 0.029207 -0.072784
v 0.274641 0.025451 -0.072805
v 0.27551 0.025466 -0.075465
v 0.274641 0.029207 -0.072784
v 0.273441 0.029194 -0.070267
v 0.273441 0.025438 -0.070288
v 0.274641 0.025451 -0.072805
v 0.273441 0.029194 -0.070267
v 0.271921 0.029181 -0.067926
v 0.271921 0.025425 -0.067946
v 0.273441 0.025438 -0.070288
v 0.271921 0.029181 -0.067926
v 0.270089 0.029169 -0.065793
v 0.270089 0.025413 -0.065812
v 0.271921 0.025425 -0.067946
v 0.270089 0.029169 -0.065793
v 0.267957 0.029159 -0.063898
v 0.267957 0.025403 -0.063919
v 0.270089 0.025413 -0.065812
v 0.267957 0.029159 -0.063898
v 0.265532 0.02915 -0.062278
v 0.265532 0.025394 -0.062298
v 0.267957 0.025403 -0.063919
v 0.265532 0.02915 -0.062278
v 0.262826 0.029143 -0.06096
v 0.262826 0.025387 -0.060981
v 0.265532 0.025394 -0.062298
v 0.262826 0.029143 -0.06096
v 0.259848 0.029138 -0.05998
v 0.259848 0.025382 -0.06
v 0.262826 0.025387 -0.060981
v 0.259848 0.029138 -0.05998
v 0.256608 0.029134 -0.059368
v 0.256608 0.025378 -0.059388
v 0.259848 0.025382 -0.06
v 0.256608 0.029134 -0.059368
v 0.253116 0.029133 -0.059157
v 0.253116 0.025377 -0.059177
v 0.256608 0.025378 -0.059388
v 0.253116 0.029133 -0.059157
v 0.249735 0.029134 -0.059367
v 0.249735 0.025378 -0.059387
v 0.253116 0.025377 -0.059177
v 0.249735 0.029134 -0.059367
v 0.246581 0.029138 -0.059975
v 0.246581 0.025382 -0.059996
v 0.249735 0.025378 -0.059387
v 0.246581 0.029138 -0.059975
v 0.243666 0.029143 -0.060952
v 0.243666 0.025387 -0.060972
v 0.246581 0.025382 -0.059996
v 0.243666 0.029143 -0.060952
v 0.241004 0.02915 -0.062264
v 0.241004 0.025394 -0.062284
v 0.243666 0.025387 -0.060972
v 0.241004 0.02915 -0.062264
v 0.238606 0.029159 -0.063879
v 0.238606 0.025403 -0.0639
v 0.241004 0.025394 -0.062284
v 0.238606 0.029159 -0.063879
v 0.236487 0.029169 -0.065769
v 0.236487 0.025413 -0.065789
v 0.238606 0.025403 -0.0639
v 0.236487 0.029169 -0.065769
v 0.234659 0.029181 -0.067899
v 0.234659 0.025425 -0.06792
v 0.236487 0.025413 -0.065789
v 0.234659 0.029181 -0.067899
v 0.233134 0.029194 -0.070239
v 0.233134 0.025437 -0.070259
v 0.234659 0.025425 -0.06792
v 0.233134 0.029194 -0.070239
v 0.231926 0.029207 -0.072757
v 0.231926 0.025451 -0.072778
v 0.233134 0.025437 -0.070259
v 0.231926 0.029207 -0.072757
v 0.231047 0.029222 -0.075423
v 0.231047 0.025466 -0.075443
v 0.231926 0.025451 -0.072778
v 0.231047 0.029222 -0.075423
v 0.23051 0.029237 -0.078203
v 0.23051 0.025481 -0.078223
v 0.231047 0.025466 -0.075443
v 0.23051 0.029237 -0.078203
v 0.230329 0.029253 -0.081067
v 0.230329 0.025496 -0.081087
v 0.23051 0.025481 -0.078223
v 0.230329 0.029253 -0.081067
v 0.230515 0.029268 -0.083984
v 0.230515 0.025512 -0.084004
v 0.230329 0.025496 -0.081087
v 0.230515 0.029268 -0.083984
v 0.231065 0.029284 -0.086798
v 0.231065 0.025528 -0.086819
v 0.230515 0.025512 -0.084004
v 0.231065 0.029284 -0.086798
v 0.231963 0.029298 -0.089482
v 0.231963 0.025542 -0.089502
v 0.231065 0.025528 -0.086819
v 0.231963 0.029298 -0.089482
v 0.233195 0.029312 -0.092006
v 0.233195 0.025556 -0.092027
v 0.231963 0.025542 -0.089502
v 0.233195 0.029312 -0.092006
v 0.234744 0.029325 -0.094342
v 0.234744 0.025569 -0.094362
v 0.233195 0.025556 -0.092027
v 0.234744 0.029325 -0.094342
v 0.236597 0.029336 -0.09646
v 0.236597 0.02558 -0.096479
v 0.234744 0.025569 -0.094362
v 0.236597 0.029336 -0.09646
v 0.238738 0.029347 -0.09833
v 0.238738 0.02559 -0.098351
v 0.236597 0.02558 -0.096479
v 0.238738 0.029347 -0.09833
v 0.241152 0.029355 -0.099927
v 0.241152 0.025599 -0.099947
v 0.238738 0.02559 -0.098351
v 0.241152 0.029355 -0.099927
v 0.243825 0.029362 -0.101218
v 0.243825 0.025606 -0.101238
v 0.241152 0.025599 -0.099947
v 0.243825 0.029362 -0.101218
v 0.24674 0.029368 -0.102176
v 0.24674 0.025611 -0.102196
v 0.243825 0.025606 -0.101238
v 0.24674 0.029368 -0.102176
v 0.249884 0.029371 -0.102772
v 0.249884 0.025615 -0.102793
v 0.24674 0.025611 -0.102196
v 0.249884 0.029371 -0.102772
v 0.253241 0.029372 -0.102977
v 0.253241 0.025616 -0.102998
v 0.249884 0.025615 -0.102793
v 0.253241 0.029372 -0.102977
v 0.256652 0.029371 -0.102774
v 0.256652 0.025615 -0.102794
v 0.253241 0.025616 -0.102998
v 0.255581 0.029165 -0.064933
v 0.257801 0.029167 -0.065348
v 0.257801 0.025411 -0.065369
v 0.255581 0.025409 -0.064953
v 0.257801 0.029167 -0.065348
v 0.259884 0.029171 -0.066022
v 0.259884 0.025415 -0.066042
v 0.257801 0.025411 -0.065369
v 0.259884 0.029171 -0.066022
v 0.261816 0.029176 -0.066937
v 0.261816 0.025419 -0.066958
v 0.259884 0.025415 -0.066042
v 0.261816 0.029176 -0.066937
v 0.263579 0.029182 -0.068079
v 0.263579 0.025426 -0.068099
v 0.261816 0.025419 -0.066958
v 0.263579 0.029182 -0.068079
v 0.265159 0.029189 -0.069431
v 0.265159 0.025433 -0.069452
v 0.263579 0.025426 -0.068099
v 0.265159 0.029189 -0.069431
v 0.26654 0.029198 -0.070977
v 0.26654 0.025442 -0.070997
v 0.265159 0.025433 -0.069452
v 0.26654 0.029198 -0.070977
v 0.267705 0.029207 -0.072701
v 0.267705 0.025451 -0.072722
v 0.26654 0.025442 -0.070997
v 0.267705 0.029207 -0.072701
v 0.268639 0.029217 -0.074589
v 0.268639 0.025461 -0.074609
v 0.267705 0.025451 -0.072722
v 0.268639 0.029217 -0.074589
v 0.269325 0.029228 -0.076623
v 0.269325 0.025472 -0.076643
v 0.268639 0.025461 -0.074609
v 0.269325 0.029228 -0.076623
v 0.269749 0.02924 -0.078787
v 0.269749 0.025484 -0.078808
v 0.269325 0.025472 -0.076643
v 0.269749 0.02924 -0.078787
v 0.269894 0.029253 -0.081067
v 0.269894 0.025496 -0.081087
v 0.269749 0.025484 -0.078808
v 0.269894 0.029253 -0.081067
v 0.269749 0.029265 -0.08336
v 0.269749 0.025509 -0.08338
v 0.269894 0.025496 -0.081087
v 0.269749 0.029265 -0.08336
v 0.269325 0.029277 -0.085533
v 0.269325 0.025521 -0.085553
v 0.269749 0.025509 -0.08338
v 0.269325 0.029277 -0.085533
v 0.268639 0.029288 -0.087572
v 0.268639 0.025532 -0.087592
v 0.269325 0.025521 -0.085553
v 0.268639 0.029288 -0.087572
v 0.267705 0.029298 -0.08946
v 0.267705 0.025542 -0.089481
v 0.268639 0.025532 -0.087592
v 0.267705 0.029298 -0.08946
v 0.26654 0.029308 -0.091183
v 0.26654 0.025552 -0.091204
v 0.267705 0.025542 -0.089481
v 0.26654 0.029308 -0.091183
v 0.265159 0.029316 -0.092726
v 0.265159 0.02556 -0.092747
v 0.26654 0.025552 -0.091204
v 0.265159 0.029316 -0.092726
v 0.263579 0.029323 -0.094074
v 0.263579 0.025567 -0.094094
v 0.265159 0.02556 -0.092747
v 0.263579 0.029323 -0.094074
v 0.261816 0.02933 -0.095211
v 0.261816 0.025573 -0.095231
v 0.263579 0.025567 -0.094094
v 0.261816 0.02933 -0.095211
v 0.259884 0.029335 -0.096121
v 0.259884 0.025578 -0.096141
v 0.261816 0.025573 -0.095231
v 0.259884 0.029335 -0.096121
v 0.257801 0.029338 -0.09679
v 0.257801 0.025582 -0.09681
v 0.259884 0.025578 -0.096141
v 0.257801 0.029338 -0.09679
v 0.255581 0.02934 -0.097203
v 0.255581 0.025584 -0.097223
v 0.257801 0.025582 -0.09681
v 0.255581 0.02934 -0.097203
v 0.253241 0.029341 -0.097343
v 0.253241 0.025585 -0.097364
v 0.255581 0.025584 -0.097223
v 0.253241 0.029341 -0.097343
v 0.250916 0.02934 -0.097203
v 0.250916 0.025584 -0.097223
v 0.253241 0.025585 -0.097364
v 0.250916 0.02934 -0.097203
v 0.248708 0.029338 -0.09679
v 0.248708 0.025582 -0.09681
v 0.250916 0.025584 -0.097223
v 0.248708 0.029338 -0.09679
v 0.246635 0.029335 -0.096121
v 0.246635 0.025578 -0.096141
v 0.248708 0.025582 -0.09681
v 0.246635 0.029335 -0.096121
v 0.244711 0.02933 -0.095211
v 0.244711 0.025573 -0.095231
v 0.246635 0.025578 -0.096141
v 0.244711 0.02933 -0.095211
v 0.242954 0.029323 -0.094074
v 0.242954 0.025567 -0.094094
v 0.244711 0.025573 -0.095231
v 0.242954 0.029323 -0.094074
v 0.241378 0.029316 -0.092726
v 0.241378 0.02556 -0.092747
v 0.242954 0.025567 -0.094094
v 0.241378 0.029316 -0.092726
v 0.240001 0.029308 -0.091183
v 0.240001 0.025552 -0.091204
v 0.241378 0.02556 -0.092747
v 0.240001 0.029308 -0.091183
v 0.238838 0.029298 -0.08946
v 0.238838 0.025542 -0.089481
v 0.240001 0.025552 -0.091204
v 0.238838 0.029298 -0.08946
v 0.237906 0.029288 -0.087572
v 0.237906 0.025532 -0.087592
v 0.238838 0.025542 -0.089481
v 0.237906 0.029288 -0.087572
v 0.23722 0.029277 -0.085533
v 0.23722 0.025521 -0.085553
v 0.237906 0.025532 -0.087592
v 0.23722 0.029277 -0.085533
v 0.236796 0.029265 -0.08336
v 0.236796 0.025509 -0.08338
v 0.23722 0.025521 -0.085553
v 0.236796 0.029265 -0.08336
v 0.236652 0.029253 -0.081067
v 0.236652 0.025496 -0.081087
v 0.236796 0.025509 -0.08338
v 0.236652 0.029253 -0.081067
v 0.236796 0.02924 -0.078787
v 0.236796 0.025484 -0.078808
v 0.236652 0.025496 -0.081087
v 0.236796 0.02924 -0.078787
v 0.23722 0.029228 -0.076623
v 0.23722 0.025472 -0.076643
v 0.236796 0.025484 -0.078808
v 0.23722 0.029228 -0.076623
v 0.237906 0.029217 -0.074589
v 0.237906 0.025461 -0.074609
v 0.23722 0.025472 -0.076643
v 0.237906 0.029217 -0.074589
v 0.238838 0.029207 -0.072701
v 0.238838 0.025451 -0.072722
v 0.237906 0.025461 -0.074609
v 0.238838 0.029207 -0.072701
v 0.240001 0.029198 -0.070977
v 0.240001 0.025442 -0.070997
v 0.238838 0.025451 -0.072722
v 0.240001 0.029198 -0.070977
v 0.241378 0.029189 -0.069431
v 0.241378 0.025433 -0.069452
v 0.240001 0.025442 -0.070997
v 0.241378 0.029189 -0.069431
v 0.242954 0.029182 -0.068079
v 0.242954 0.025426 -0.068099
v 0.241378 0.025433 -0.069452
v 0.242954 0.029182 -0.068079
v 0.244711 0.029176 -0.066937
v 0.244711 0.025419 -0.066958
v 0.242954 0.025426 -0.068099
v 0.244711 0.029176 -0.066937
v 0.246635 0.029171 -0.066022
v 0.246635 0.025415 -0.066042
v 0.244711 0.025419 -0.066958
v 0.246635 0.029171 -0.066022
v 0.248708 0.029167 -0.065348
v 0.248708 0.025411 -0.065369
v 0.246635 0.025415 -0.066042
v 0.248708 0.029167 -0.065348
v 0.250916 0.029165 -0.064933
v 0.250916 0.025409 -0.064953
v 0.248708 0.025411 -0.065369
v 0.250916 0.029165 -0.064933
v 0.253241 0.029164 -0.064791
v 0.253241 0.025408 -0.064811
v 0.250916 0.025409 -0.064953
v 0.253241 0.029164 -0.064791
v 0.255581 0.029165 -0.064933
v 0.255581 0.025409 -0.064953
v 0.253241 0.025408 -0.064811
vn -0 1 0.005
vn -0 1 0.005
vn -0 1 0.0054
vn -0 1 0.005
vn -0 1 0.0054
vn -0 1 0.005
vn -0 1 0.0059
vn -0 1 0.0054
vn -0 1 0.005
vn -0 1 0.0059
vn -0 1 0.0055
vn -0 1 0.0054
vn -0 1 0.0055
vn -0 1 0.0055
vn -0 1 0.0059
vn -0 1 0.0055
vn -0 1 0.0051
vn -0 1 0.0055
vn -0 1 0.0051
vn -0 1 0.0051
vn -0 1 0.0055
vn -0 1 0.0051
vn -0 1 0.0053
vn -0 1 0.0051
vn -0 1 0.0057
vn -0 1 0.0053
vn -0 1 0.0051
vn -0 1 0.0057
vn -0 1 0.0056
vn -0 1 0.0053
vn -0.0001 1 0.0053
vn -0 1 0.0053
vn -0 1 0.0057
vn -0 1 0.0053
vn -0 1 0.0056
vn -0 1 0.0057
vn -0.0001 1 0.0053
vn -0 1 0.0054
vn -0 1 0.0053
vn -0 1 0.0055
vn -0 1 0.0056
vn -0 1 0.0053
vn -0.0001 1 0.0053
vn -0 1 0.0054
vn -0 1 0.0054
vn -0 1 0.0051
vn -0 1 0.0056
vn -0 1 0.0055
vn -0.0001 1 0.0053
vn -0 1 0.0052
vn -0 1 0.0054
vn -0 1 0.0052
vn -0 1 0.0056
vn -0 1 0.0051
vn -0 1 0.0052
vn -0 1 0.0056
vn -0 1 0.0056
vn -0 1 0.0055
vn -0 1 0.0052
vn -0.0001 1 0.0053
vn -0 1 0.0055
vn -0 1 0.0056
vn -0 1 0.0052
vn -0 1 0.0055
vn -0 1 0.0056
vn -0 1 0.0052
vn -0 1 0.0055
vn -0 1 0.006
vn -0 1 0.0056
vn -0 1 0.0055
vn -0 1 0.0056
vn -0 1 0.0055
vn -0 1 0.0055
vn -0 1 0.0052
vn -0 1 0.0056
vn -0 1 0.0055
vn -0 1 0.006
vn -0 1 0.0055
vn -0 1 0.0055
vn -0 1 0.0052
vn -0 1 0.006
vn 0.0001 1 0.0051
vn -0 1 0.0052
vn -0 1 0.0055
vn -0 1 0.0055
vn -0 1 0.0053
vn -0 1 0.0052
vn -0 1 0.0053
vn -0 1 0.0052
vn 0.0001 1 0.0051
vn -0 1 0.0053
vn -0.0001 1 0.0055
vn -0 1 0.0052
vn -0 1 0.0053
vn -0 1 0.0053
vn -0 1 0.0055
vn -0 1 0.0053
vn -0 1 0.0056
vn -0 1 0.0053
vn -0.0001 1 0.0057
vn -0.0001 1 0.0055
vn -0 1 0.0053
vn -0.0001 1 0.0057
vn -0 1 0.0054
vn -0.0001 1 0.0055
vn -0 1 0.0055
vn -0 1 0.0056
vn -0 1 0.0053
vn -0 1 0.0055
vn -0 1 0.0053
vn -0 1 0.0056
vn -0 1 0.0053
vn -0 1 0.0054
vn -0.0001 1 0.0057
vn -0 1 0.0054
vn -0 1 0.0054
vn -0 1 0.0053
vn -0 1 0.0055
vn -0 1 0.0055
vn -0 1 0.0053
vn -0 1 0.0054
vn -0.0001 1 0.0054
vn -0 1 0.0054
vn -0 1 0.0054
vn -0 1 0.0055
vn -0 1 0.0055
vn -0 1 0.0054
vn -0.0001 1 0.0054
vn -0 1 0.0054
vn -0 1 0.0054
vn -0 1 0.0054
vn -0 1 0.0055
vn -0 1 0.0054
vn -0 1 0.0055
vn -0.0001 1 0.0054
vn -0 1 0.0054
vn -0 1 0.0054
vn -0 1 0.0054
vn -0 1 0.0055
vn -0 1 0.0055
vn -0 1 0.0054
vn -0 1 0.0054
vn -0 1 0.0055
vn -0 1 0.0054
vn -0 1 0.0055
vn -0 1 0.0055
vn -0 1 0.0054
vn -0 1 0.0055
vn -0 1 0.0056
vn -0 1 0.0055
vn -0 1 0.0056
vn -0 1 0.0055
vn -0 1 0.0055
vn -0 1 0.0056
vn -0 1 0.0055
vn -0 1 0.0055
vn -0 1 0.0054
vn -0 1 0.0055
vn -0 1 0.0056
vn -0 1 0.0055
vn 0.0001 1 0.0054
vn -0 1 0.0056
vn -0 1 0.0054
vn -0 1 0.0055
vn -0 1 0.0055
vn 0.0001 1 0.0055
vn 0.0001 1 0.0054
vn -0 1 0.0055
vn -0 1 0.0054
vn -0 1 0.0055
vn -0 1 0.0054
vn 0.0001 1 0.0055
vn -0 1 0.0054
vn 0.0001 1 0.0054
vn -0 1 0.0054
vn -0 1 0.0054
vn -0 1 0.0055
vn -0 1 0.0054
vn -0 1 0.0054
vn 0.0001 1 0.0055
vn 0.0001 1 0.0053
vn -0 1 0.0054
vn -0 1 0.0054
vn -0 1 0.0054
vn -0 1 0.0053
vn -0 1 0.0054
vn 0.0001 1 0.0053
vn -0 1 0.0053
vn -0 1 0.0054
vn -0 1 0.0053
vn -0 1 0.0053
vn -0 1 0.0054
vn -0 1 0.0056
vn -0 1 0.0053
vn 0.0001 1 0.0053
vn -0 1 0.0053
vn -0 1 0.0056
vn -0 1 0.0053
vn -0 1 0.0054
vn -0 1 0.0053
vn -0 1 0.0056
vn -0 1 0.0053
vn -0 1 0.0054
vn -0 1 0.0056
vn -0 1 0.0054
vn -0 1 0.0055
vn -0 1 0.0053
vn -0 1 0.0055
vn -0 1 0.0054
vn -0 1 0.0053
vn -0 1 0.0053
vn -0 1 0.0055
vn -0 1 0.0054
vn -0 1 0.0055
vn -0 1 0.0052
vn -0 1 0.0054
vn 0.0001 1 0.0056
vn -0 1 0.0055
vn -0 1 0.0053
vn -0 1 0.0055
vn -0 1 0.0055
vn -0 1 0.0052
vn 0.0001 1 0.0056
vn 0.0001 1 0.0056
vn -0 1 0.0055
vn -0 1 0.0056
vn -0 1 0.0055
vn -0 1 0.0055
vn 0.0001 1 0.006
vn 0.0001 1 0.0056
vn 0.0001 1 0.0056
vn -0 1 0.0056
vn -0 1 0.006
vn -0 1 0.0055
vn 0.0001 1 0.0052
vn 0.0001 1 0.0056
vn 0.0001 1 0.006
vn -0 1 0.0056
vn -0 1 0.0052
vn -0 1 0.006
vn 0.0001 1 0.0052
vn -0 1 0.0054
vn 0.0001 1 0.0056
vn -0 1 0.0054
vn -0 1 0.0052
vn -0 1 0.0056
vn -0 1 0.0058
vn -0 1 0.0054
vn 0.0001 1 0.0052
vn -0 1 0.0054
vn -0 1 0.0055
vn -0 1 0.0052
vn -0 1 0.0056
vn -0 1 0.0054
vn -0 1 0.0058
vn -0 1 0.0054
vn -0 1 0.0056
vn -0 1 0.0055
vn -0 1 0.0054
vn -0 1 0.0054
vn -0 1 0.0056
vn -0 1 0.0054
vn -0 1 0.0055
vn -0 1 0.0054
vn -0 1 0.0055
vn -0 1 0.0055
vn -0 1 0.0054
vn -0 1 0.0055
vn -0 1 0.0053
vn -0 1 0.0055
vn -0 1 0.0053
vn -0 1 0.0053
vn -0 1 0.0055
vn -0 1 0.0053
vn -0 1 0.0052
vn -0 1 0.0053
vn -0 1 0.0052
vn -0 1 0.0052
vn -0 1 0.0053
vn -0 1 0.0052
vn -0 1 0.0057
vn -0 1 0.0052
vn -0 1 0.0054
vn -0 1 0.0057
vn -0 1 0.0052
vn -0 1 0.0054
vn -0 1 0.0055
vn -0 1 0.0057
vn -0 -1 -0.0055
vn -0 -1 -0.0056
vn -0 -1 -0.0049
vn -0 -1 -0.0053
vn -0 -1 -0.0056
vn -0 -1 -0.0055
vn -0 -1 -0.0053
vn -0 -1 -0.0053
vn -0 -1 -0.0056
vn -0 -1 -0.0054
vn -0 -1 -0.0053
vn -0 -1 -0.0053
vn -0 -1 -0.0054
vn -0 -1 -0.0054
vn -0 -1 -0.0053
vn -0 -1 -0.0054
vn -0 -1 -0.0054
vn -0 -1 -0.0054
vn -0 -1 -0.0054
vn -0 -1 -0.0056
vn -0 -1 -0.0054
vn -0 -1 -0.0058
vn -0 -1 -0.0056
vn -0 -1 -0.0054
vn -0 -1 -0.0058
vn -0 -1 -0.0054
vn -0 -1 -0.0056
vn -0 -1 -0.0054
vn -0 -1 -0.0054
vn -0 -1 -0.0058
vn -0 -1 -0.0056
vn -0 -1 -0.0053
vn -0 -1 -0.0054
vn -0 -1 -0.0054
vn -0 -1 -0.0056
vn -0 -1 -0.0054
vn -0 -1 -0.0056
vn -0 -1 -0.0053
vn -0 -1 -0.0056
vn -0 -1 -0.0054
vn -0 -1 -0.0054
vn -0 -1 -0.0056
vn -0 -1 -0.0053
vn -0 -1 -0.0053
vn -0 -1 -0.0056
vn -0 -1 -0.0054
vn -0 -1 -0.0055
vn -0 -1 -0.0054
vn -0 -1 -0.0056
vn -0 -1 -0.0053
vn -0 -1 -0.0053
vn -0 -1 -0.0054
vn -0 -1 -0.0054
vn -0 -1 -0.0055
vn -0 -1 -0.0055
vn -0 -1 -0.0054
vn -0 -1 -0.0054
vn -0 -1 -0.0056
vn -0.0001 -1 -0.0055
vn -0 -1 -0.0053
vn -0.0001 -1 -0.0056
vn -0.0001 -1 -0.0055
vn -0 -1 -0.0056
vn -0 -1 -0.0055
vn 0.0001 -1 -0.0056
vn -0 -1 -0.0054
vn -0.0001 -1 -0.0054
vn -0.0001 -1 -0.0055
vn -0.0001 -1 -0.0056
vn -0 -1 -0.0055
vn -0 -1 -0.0053
vn 0.0001 -1 -0.0056
vn -0.0001 -1 -0.0055
vn -0 -1 -0.0053
vn -0 -1 -0.0055
vn -0.0001 -1 -0.0054
vn -0 -1 -0.0055
vn -0.0001 -1 -0.0055
vn -0 -1 -0.0052
vn -0 -1 -0.0055
vn -0.0001 -1 -0.0054
vn -0.0001 -1 -0.0055
vn -0.0001 -1 -0.0051
vn -0 -1 -0.0053
vn -0 -1 -0.0053
vn -0 -1 -0.0055
vn -0 -1 -0.0052
vn -0.0001 -1 -0.0055
vn -0.0001 -1 -0.0053
vn -0.0001 -1 -0.0051
vn -0.0001 -1 -0.0053
vn -0.0001 -1 -0.0053
vn -0.0001 -1 -0.0055
vn -0 -1 -0.0053
vn -0 -1 -0.0053
vn -0 -1 -0.0055
vn -0 -1 -0.0056
vn -0 -1 -0.0053
vn -0 -1 -0.0053
vn -0.0001 -1 -0.0053
vn -0 -1 -0.0056
vn -0.0001 -1 -0.0053
vn -0 -1 -0.0055
vn -0 -1 -0.0056
vn -0.0001 -1 -0.0053
vn -0 -1 -0.0056
vn -0 -1 -0.0055
vn -0 -1 -0.0053
vn -0 -1 -0.0053
vn -0 -1 -0.0055
vn -0 -1 -0.0056
vn -0 -1 -0.0055
vn -0 -1 -0.0053
vn -0 -1 -0.0056
vn -0 -1 -0.0055
vn -0 -1 -0.0055
vn -0 -1 -0.0053
vn -0 -1 -0.0055
vn -0 -1 -0.0055
vn -0 -1 -0.0053
vn -0.0001 -1 -0.0055
vn -0 -1 -0.0055
vn -0 -1 -0.0055
vn -0 -1 -0.0055
vn 0.0001 -1 -0.0056
vn -0 -1 -0.0055
vn -0.0001 -1 -0.0055
vn -0.0001 -1 -0.0056
vn -0 -1 -0.0055
vn -0 -1 -0.0056
vn 0.0001 -1 -0.0056
vn -0 -1 -0.0055
vn -0 -1 -0.0054
vn -0.0001 -1 -0.0056
vn -0.0001 -1 -0.0055
vn -0 -1 -0.0056
vn -0 -1 -0.0054
vn 0.0001 -1 -0.0056
vn -0 -1 -0.0054
vn -0 -1 -0.0055
vn -0.0001 -1 -0.0056
vn -0 -1 -0.0055
vn -0 -1 -0.0054
vn -0 -1 -0.0056
vn -0 -1 -0.0055
vn -0 -1 -0.0053
vn -0 -1 -0.0054
vn -0 -1 -0.0054
vn -0 -1 -0.0053
vn -0 -1 -0.0055
vn -0 -1 -0.0054
vn -0 -1 -0.0054
vn -0 -1 -0.0055
vn -0 -1 -0.0053
vn -0 -1 -0.0054
vn -0 -1 -0.0054
vn -0 -1 -0.0053
vn -0 -1 -0.0054
vn -0 -1 -0.0054
vn -0.0001 -1 -0.0054
vn -0 -1 -0.0053
vn -0 -1 -0.0054
vn -0 -1 -0.0055
vn -0 -1 -0.0054
vn -0 -1 -0.0053
vn -0.0001 -1 -0.0054
vn -0.0001 -1 -0.0055
vn -0 -1 -0.0053
vn -0 -1 -0.0055
vn -0 -1 -0.0054
vn -0 -1 -0.0054
vn -0 -1 -0.0054
vn -0.0001 -1 -0.0055
vn -0.0001 -1 -0.0054
vn -0 -1 -0.0054
vn -0 -1 -0.0054
vn -0 -1 -0.0055
vn -0 -1 -0.0054
vn -0 -1 -0.0056
vn -0.0001 -1 -0.0055
vn -0 -1 -0.0054
vn -0.0001 -1 -0.0053
vn -0 -1 -0.0054
vn 0.0001 -1 -0.0054
vn -0 -1 -0.0056
vn -0 -1 -0.0054
vn -0 -1 -0.0053
vn -0.0001 -1 -0.0053
vn -0 -1 -0.0054
vn 0.0001 -1 -0.0054
vn 0.0001 -1 -0.0054
vn -0 -1 -0.0056
vn -0 -1 -0.0053
vn -0 -1 -0.0056
vn -0.0001 -1 -0.0053
vn 0.0001 -1 -0.0054
vn 0.0001 -1 -0.0054
vn 0.0001 -1 -0.0054
vn -0 -1 -0.0053
vn -0 -1 -0.0054
vn -0 -1 -0.0056
vn -0 -1 -0.0053
vn 0.0001 -1 -0.0054
vn 0.0001 -1 -0.0054
vn -0 -1 -0.0055
vn -0 -1 -0.0054
vn -0 -1 -0.0053
vn -0 -1 -0.0053
vn -0 -1 -0.0053
vn 0.0001 -1 -0.0054
vn -0 -1 -0.0055
vn -0 -1 -0.0056
vn -0 -1 -0.0054
vn -0 -1 -0.0059
vn -0 -1 -0.0053
vn -0 -1 -0.0053
vn -0 -1 -0.0055
vn -0 -1 -0.0054
vn -0 -1 -0.0056
vn -0 -1 -0.0052
vn -0 -1 -0.0053
vn -0 -1 -0.0059
vn -0 -1 -0.0055
vn -0 -1 -0.0054
vn -0 -1 -0.0055
vn -0 -1 -0.0052
vn -0 -1 -0.0055
vn -0 -1 -0.0053
vn -0 -1 -0.0055
vn -0.0001 -1 -0.0059
vn -0 -1 -0.0054
vn 0.0001 -1 -0.0059
vn -0 -1 -0.0055
vn -0 -1 -0.0052
vn -0 -1 -0.0055
vn -0.0001 -1 -0.0052
vn -0.0001 -1 -0.0059
vn -0 -1 -0.0052
vn -0 -1 -0.0055
vn 0.0001 -1 -0.0059
vn -0 -1 -0.0054
vn -0.0001 -1 -0.0052
vn -0 -1 -0.0055
vn -0 -1 -0.0052
vn -0 -1 -0.0054
vn -0 -1 -0.0055
vn -0 -1 -0.0054
vn -0 -1 -0.0055
vn -0.0001 -1 -0.0052
vn -0 -1 -0.0056
vn -0 -1 -0.0054
vn -0 -1 -0.0052
vn -0 -1 -0.0054
vn -0 -1 -0.0056
vn -0 -1 -0.0055
vn -0 -1 -0.0056
vn -0 -1 -0.0054
vn -0 -1 -0.0056
vn -0 -1 -0.0054
vn -0 -1 -0.0054
vn -0 -1 -0.0056
vn -0 -1 -0.0055
vn -0 -1 -0.0054
vn -0 -1 -0.0054
vn -0 -1 -0.0055
vn -0 -1 -0.0055
vn -0 -1 -0.0054
vn -0 -1 -0.0053
vn -0 -1 -0.0055
vn -0 -1 -0.0055
vn -0 -1 -0.0053
vn -0 -1 -0.0053
vn -0 -1 -0.0055
vn -0 -1 -0.0052
vn -0 -1 -0.0053
vn -0 -1 -0.0053
vn -0 -1 -0.0052
vn -0 -1 -0.0052
vn -0 -1 -0.0053
vn -0 -1 -0.0056
vn -0 -1 -0.0052
vn -0 -1 -0.0052
vn -0 -1 -0.0056
vn -0 -1 -0.0054
vn -0 -1 -0.0052
vn -0 -1 -0.0056
vn -0 -1 -0.0054
vn -0 -1 -0.0056
vn 0.1216 0.0054 -0.9926
vn 0.2464 0.0052 -0.9691
vn 0.2465 0.0052 -0.9691
vn 0.1216 0.0054 -0.9926
vn 0.2464 0.0052 -0.9691
vn 0.3712 0.0049 -0.9285
vn 0.3712 0.0049 -0.9285
vn 0.2465 0.0052 -0.9691
vn 0.3712 0.0049 -0.9285
vn 0.4922 0.0047 -0.8705
vn 0.4922 0.0047 -0.8705
vn 0.3712 0.0049 -0.9285
vn 0.4922 0.0047 -0.8705
vn 0.6054 0.0043 -0.7959
vn 0.6054 0.0043 -0.7959
vn 0.4922 0.0047 -0.8705
vn 0.6054 0.0043 -0.7959
vn 0.7076 0.0038 -0.7066
vn 0.7076 0.0038 -0.7066
vn 0.6054 0.0043 -0.7959
vn 0.7076 0.0038 -0.7066
vn 0.7964 0.0033 -0.6048
vn 0.7964 0.0033 -0.6047
vn 0.7076 0.0038 -0.7066
vn 0.7964 0.0033 -0.6048
vn 0.87 0.0027 -0.493
vn 0.87 0.0027 -0.493
vn 0.7964 0.0033 -0.6047
vn 0.87 0.0027 -0.493
vn 0.9273 0.002 -0.3743
vn 0.9273 0.002 -0.3743
vn 0.87 0.0027 -0.493
vn 0.9273 0.002 -0.3743
vn 0.968 0.0014 -0.2509
vn 0.968 0.0014 -0.251
vn 0.9273 0.002 -0.3743
vn 0.968 0.0014 -0.2509
vn 0.9921 0.0007 -0.1255
vn 0.9921 0.0007 -0.1255
vn 0.968 0.0014 -0.251
vn 0.9921 0.0007 -0.1255
vn 1 -0 -0
vn 1 -0 -0
vn 0.9921 0.0007 -0.1255
vn 1 -0 -0
vn 0.9921 -0.0007 0.1251
vn 0.9921 -0.0007 0.1251
vn 1 -0 -0
vn 0.9921 -0.0007 0.1251
vn 0.9684 -0.0014 0.2493
vn 0.9684 -0.0014 0.2493
vn 0.9921 -0.0007 0.1251
vn 0.9684 -0.0014 0.2493
vn 0.9285 -0.0021 0.3712
vn 0.9285 -0.0021 0.3712
vn 0.9684 -0.0014 0.2493
vn 0.9285 -0.0021 0.3712
vn 0.8726 -0.0027 0.4885
vn 0.8726 -0.0027 0.4884
vn 0.9285 -0.0021 0.3712
vn 0.8726 -0.0027 0.4885
vn 0.8005 -0.0032 0.5993
vn 0.8005 -0.0032 0.5993
vn 0.8726 -0.0027 0.4884
vn 0.8005 -0.0032 0.5993
vn 0.713 -0.0037 0.7011
vn 0.713 -0.004 0.7011
vn 0.8005 -0.0032 0.5993
vn 0.713 -0.0037 0.7011
vn 0.6113 -0.0043 0.7914
vn 0.6113 -0.0043 0.7914
vn 0.713 -0.004 0.7011
vn 0.6113 -0.0043 0.7914
vn 0.4978 -0.0047 0.8673
vn 0.4978 -0.0047 0.8673
vn 0.6113 -0.0043 0.7914
vn 0.4978 -0.0047 0.8673
vn 0.3761 -0.0051 0.9266
vn 0.3761 -0.0051 0.9266
vn 0.4978 -0.0047 0.8673
vn 0.3761 -0.0051 0.9266
vn 0.2497 -0.0052 0.9683
vn 0.2497 -0.0052 0.9683
vn 0.3761 -0.0051 0.9266
vn 0.2497 -0.0052 0.9683
vn 0.1232 -0.0053 0.9924
vn 0.1232 -0.0053 0.9924
vn 0.2497 -0.0052 0.9683
vn 0.1232 -0.0053 0.9924
vn -0.0008 -0.0053 1
vn -0.0008 -0.0053 1
vn 0.1232 -0.0053 0.9924
vn -0.0008 -0.0053 1
vn -0.126 -0.0053 0.992
vn -0.126 -0.0053 0.992
vn -0.0008 -0.0053 1
vn -0.126 -0.0053 0.992
vn -0.2541 -0.0053 0.9672
vn -0.2541 -0.0053 0.9672
vn -0.126 -0.0053 0.992
vn -0.2541 -0.0053 0.9672
vn -0.3807 -0.005 0.9247
vn -0.3807 -0.005 0.9247
vn -0.2541 -0.0053 0.9672
vn -0.3807 -0.005 0.9247
vn -0.5016 -0.0047 0.8651
vn -0.5015 -0.0047 0.8651
vn -0.3807 -0.005 0.9247
vn -0.5016 -0.0047 0.8651
vn -0.6135 -0.0043 0.7897
vn -0.6135 -0.0043 0.7897
vn -0.5015 -0.0047 0.8651
vn -0.6135 -0.0043 0.7897
vn -0.7138 -0.0038 0.7003
vn -0.7138 -0.0038 0.7003
vn -0.6135 -0.0043 0.7897
vn -0.7138 -0.0038 0.7003
vn -0.8001 -0.0033 0.5999
vn -0.8001 -0.0033 0.5999
vn -0.7138 -0.0038 0.7003
vn -0.8001 -0.0033 0.5999
vn -0.8715 -0.0027 0.4903
vn -0.8715 -0.0027 0.4903
vn -0.8001 -0.0033 0.5999
vn -0.8715 -0.0027 0.4903
vn -0.9276 -0.002 0.3736
vn -0.9276 -0.002 0.3736
vn -0.8715 -0.0027 0.4903
vn -0.9276 -0.002 0.3736
vn -0.9677 -0.0014 0.2519
vn -0.9677 -0.0014 0.2519
vn -0.9276 -0.002 0.3736
vn -0.9677 -0.0014 0.2519
vn -0.992 -0.0007 0.1266
vn -0.992 -0.0007 0.1266
vn -0.9677 -0.0014 0.2519
vn -0.992 -0.0007 0.1266
vn -1 -0 -0.0003
vn -1 -0 -0.0003
vn -0.992 -0.0007 0.1266
vn -1 -0 -0.0003
vn -0.9918 0.0007 -0.128
vn -0.9918 0.0007 -0.128
vn -1 -0 -0.0003
vn -0.9918 0.0007 -0.128
vn -0.9669 0.0014 -0.2551
vn -0.9669 0.0014 -0.2551
vn -0.9918 0.0007 -0.128
vn -0.9669 0.0014 -0.2551
vn -0.9255 0.0021 -0.3788
vn -0.9255 0.0021 -0.3788
vn -0.9669 0.0014 -0.2551
vn -0.9255 0.0021 -0.3788
vn -0.8679 0.0027 -0.4967
vn -0.8679 0.0027 -0.4967
vn -0.9255 0.0021 -0.3788
vn -0.8679 0.0027 -0.4967
vn -0.7947 0.0032 -0.607
vn -0.7947 0.0032 -0.607
vn -0.8679 0.0027 -0.4967
vn -0.7947 0.0032 -0.607
vn -0.7069 0.0037 -0.7073
vn -0.7069 0.0037 -0.7073
vn -0.7947 0.0032 -0.607
vn -0.7069 0.0037 -0.7073
vn -0.6062 0.0043 -0.7953
vn -0.6062 0.0043 -0.7953
vn -0.7069 0.0037 -0.7073
vn -0.6062 0.0043 -0.7953
vn -0.4944 0.0047 -0.8692
vn -0.4944 0.0047 -0.8692
vn -0.6062 0.0043 -0.7953
vn -0.4944 0.0047 -0.8692
vn -0.3744 0.0049 -0.9273
vn -0.3744 0.0049 -0.9273
vn -0.4944 0.0047 -0.8692
vn -0.3744 0.0049 -0.9273
vn -0.2498 0.0052 -0.9683
vn -0.2498 0.0052 -0.9683
vn -0.3744 0.0049 -0.9273
vn -0.2498 0.0052 -0.9683
vn -0.1239 0.0055 -0.9923
vn -0.1239 0.0055 -0.9923
vn -0.2498 0.0052 -0.9683
vn -0.1239 0.0055 -0.9923
vn -0.0007 0.0055 -1
vn -0.0007 0.0055 -1
vn -0.1239 0.0055 -0.9923
vn -0.0007 0.0055 -1
vn 0.1216 0.0054 -0.9926
vn 0.1216 0.0054 -0.9926
vn -0.0007 0.0055 -1
vn -0.1225 0.0053 -0.9925
vn -0.2463 0.0053 -0.9692
vn -0.2463 0.0053 -0.9692
vn -0.1225 0.0053 -0.9925
vn -0.2463 0.0053 -0.9692
vn -0.3687 0.0051 -0.9295
vn -0.3687 0.0051 -0.9295
vn -0.2463 0.0053 -0.9692
vn -0.3687 0.0051 -0.9295
vn -0.4869 0.0048 -0.8734
vn -0.4869 0.0048 -0.8734
vn -0.3687 0.0051 -0.9295
vn -0.4869 0.0048 -0.8734
vn -0.5982 0.0044 -0.8013
vn -0.5982 0.0044 -0.8013
vn -0.4869 0.0048 -0.8734
vn -0.5982 0.0044 -0.8013
vn -0.6996 0.0039 -0.7146
vn -0.6996 0.0039 -0.7146
vn -0.5982 0.0044 -0.8013
vn -0.6996 0.0039 -0.7146
vn -0.789 0.0034 -0.6144
vn -0.789 0.0034 -0.6144
vn -0.6996 0.0039 -0.7146
vn -0.789 0.0034 -0.6144
vn -0.8644 0.0027 -0.5028
vn -0.8644 0.0027 -0.5028
vn -0.789 0.0034 -0.6144
vn -0.8644 0.0027 -0.5028
vn -0.924 0.0021 -0.3824
vn -0.924 0.0021 -0.3824
vn -0.8644 0.0027 -0.5028
vn -0.924 0.0021 -0.3824
vn -0.9666 0.0014 -0.2564
vn -0.9666 0.0014 -0.2565
vn -0.924 0.0021 -0.3824
vn -0.9666 0.0014 -0.2564
vn -0.9918 0.0007 -0.1281
vn -0.9918 0.0007 -0.1281
vn -0.9666 0.0014 -0.2565
vn -0.9918 0.0007 -0.1281
vn -1 -0 -0.0002
vn -1 -0 -0.0002
vn -0.9918 0.0007 -0.1281
vn -1 -0 -0.0002
vn -0.9918 -0.0007 0.1276
vn -0.9918 -0.0007 0.1276
vn -1 -0 -0.0002
vn -0.9918 -0.0007 0.1276
vn -0.9667 -0.0014 0.2557
vn -0.9667 -0.0014 0.2557
vn -0.9918 -0.0007 0.1276
vn -0.9667 -0.0014 0.2557
vn -0.9242 -0.0021 0.382
vn -0.9242 -0.0021 0.382
vn -0.9667 -0.0014 0.2557
vn -0.9242 -0.0021 0.382
vn -0.8644 -0.0028 0.5029
vn -0.8644 -0.0028 0.5029
vn -0.9242 -0.0021 0.382
vn -0.8644 -0.0028 0.5029
vn -0.7886 -0.0034 0.6149
vn -0.7886 -0.0034 0.6149
vn -0.8644 -0.0028 0.5029
vn -0.7886 -0.0034 0.6149
vn -0.6986 -0.004 0.7155
vn -0.6986 -0.004 0.7155
vn -0.7886 -0.0034 0.6149
vn -0.6986 -0.004 0.7155
vn -0.5968 -0.0043 0.8024
vn -0.5968 -0.0043 0.8024
vn -0.6986 -0.004 0.7155
vn -0.5968 -0.0043 0.8024
vn -0.4851 -0.0047 0.8744
vn -0.4851 -0.0047 0.8744
vn -0.5968 -0.0043 0.8024
vn -0.4851 -0.0047 0.8744
vn -0.3667 -0.005 0.9303
vn -0.3667 -0.005 0.9303
vn -0.4851 -0.0047 0.8744
vn -0.3667 -0.005 0.9303
vn -0.2448 -0.0052 0.9695
vn -0.2447 -0.0055 0.9696
vn -0.3667 -0.005 0.9303
vn -0.2448 -0.0052 0.9695
vn -0.1217 -0.0054 0.9926
vn -0.1217 -0.0054 0.9926
vn -0.2447 -0.0055 0.9696
vn -0.1217 -0.0054 0.9926
vn 0.0002 -0.0055 1
vn 0.0002 -0.0055 1
vn -0.1217 -0.0054 0.9926
vn 0.0002 -0.0055 1
vn 0.1223 -0.0054 0.9925
vn 0.1223 -0.0054 0.9925
vn 0.0002 -0.0055 1
vn 0.1223 -0.0054 0.9925
vn 0.2458 -0.0054 0.9693
vn 0.2458 -0.0054 0.9693
vn 0.1223 -0.0054 0.9925
vn 0.2458 -0.0054 0.9693
vn 0.3681 -0.005 0.9298
vn 0.3681 -0.005 0.9298
vn 0.2458 -0.0054 0.9693
vn 0.3681 -0.005 0.9298
vn 0.4865 -0.0047 0.8737
vn 0.4865 -0.0047 0.8737
vn 0.3681 -0.005 0.9298
vn 0.4865 -0.0047 0.8737
vn 0.5979 -0.0043 0.8016
vn 0.5979 -0.0043 0.8016
vn 0.4865 -0.0047 0.8737
vn 0.5979 -0.0043 0.8016
vn 0.6996 -0.0039 0.7145
vn 0.6996 -0.0039 0.7146
vn 0.5979 -0.0043 0.8016
vn 0.6996 -0.0039 0.7145
vn 0.7893 -0.0034 0.614
vn 0.7893 -0.0034 0.614
vn 0.6996 -0.0039 0.7146
vn 0.7893 -0.0034 0.614
vn 0.8648 -0.0028 0.5021
vn 0.8648 -0.0028 0.5021
vn 0.7893 -0.0034 0.614
vn 0.8648 -0.0028 0.5021
vn 0.9242 -0.0021 0.3819
vn 0.9243 -0.0021 0.3816
vn 0.8648 -0.0028 0.5021
vn 0.9242 -0.0021 0.3819
vn 0.9667 -0.0014 0.2557
vn 0.9668 -0.0014 0.2554
vn 0.9243 -0.0021 0.3816
vn 0.9667 -0.0014 0.2557
vn 0.9919 -0.0007 0.1274
vn 0.9919 -0.0007 0.1273
vn 0.9668 -0.0014 0.2554
vn 0.9919 -0.0007 0.1274
vn 1 -0 -0.0002
vn 1 -0 -0.0002
vn 0.9919 -0.0007 0.1273
vn 1 -0 -0.0002
vn 0.9918 0.0007 -0.1279
vn 0.9918 0.0007 -0.1279
vn 1 -0 -0.0002
vn 0.9918 0.0007 -0.1279
vn 0.9666 0.0014 -0.2564
vn 0.9666 0.0014 -0.2565
vn 0.9918 0.0007 -0.1279
vn 0.9666 0.0014 -0.2564
vn 0.924 0.0022 -0.3824
vn 0.9242 0.0021 -0.382
vn 0.9666 0.0014 -0.2565
vn 0.924 0.0022 -0.3824
vn 0.8648 0.0027 -0.5021
vn 0.8648 0.0027 -0.5021
vn 0.9242 0.0021 -0.382
vn 0.8648 0.0027 -0.5021
vn 0.7897 0.0033 -0.6135
vn 0.7896 0.0033 -0.6136
vn 0.8648 0.0027 -0.5021
vn 0.7897 0.0033 -0.6135
vn 0.7005 0.0039 -0.7136
vn 0.7005 0.0039 -0.7136
vn 0.7896 0.0033 -0.6136
vn 0.7005 0.0039 -0.7136
vn 0.5994 0.0044 -0.8005
vn 0.5994 0.0044 -0.8005
vn 0.7005 0.0039 -0.7136
vn 0.5994 0.0044 -0.8005
vn 0.4883 0.0048 -0.8727
vn 0.4883 0.0048 -0.8727
vn 0.5994 0.0044 -0.8005
vn 0.4883 0.0048 -0.8727
vn 0.3701 0.0051 -0.929
vn 0.3701 0.0051 -0.929
vn 0.4883 0.0048 -0.8727
vn 0.3701 0.0051 -0.929
vn 0.2475 0.0053 -0.9689
vn 0.2475 0.0053 -0.9689
vn 0.3701 0.0051 -0.929
vn 0.2475 0.0053 -0.9689
vn 0.1232 0.0053 -0.9924
vn 0.1232 0.0053 -0.9924
vn 0.2475 0.0053 -0.9689
vn 0.1232 0.0053 -0.9924
vn 0.0002 0.0053 -1
vn 0.0002 0.0053 -1
vn 0.1232 0.0053 -0.9924
vn 0.0002 0.0053 -1
vn -0.1225 0.0053 -0.9925
vn -0.1225 0.0053 -0.9925
vn 0.0002 0.0053 -1
vt 0.484211 1
vt 0 1
vt 0.494737 1
vt 0.484211 1
vt 0.010526 1
vt 0 1
vt 0.473684 1
vt 0.010526 1
vt 0.484211 1
vt 0.473684 1
vt 0.021053 1
vt 0.010526 1
vt 0.463158 1
vt 0.021053 1
vt 0.473684 1
vt 0.463158 1
vt 0.031579 1
vt 0.021053 1
vt 0.452632 1
vt 0.031579 1
vt 0.463158 1
vt 0.452632 1
vt 0.042105 1
vt 0.031579 1
vt 0.442105 1
vt 0.042105 1
vt 0.452632 1
vt 0.442105 1
vt 0.052632 1
vt 0.042105 1
vt 0.431579 1
vt 0.747368 1
vt 0.442105 1
vt 0.747368 1
vt 0.052632 1
vt 0.442105 1
vt 0.431579 1
vt 0.757895 1
vt 0.747368 1
vt 0.736842 1
vt 0.052632 1
vt 0.747368 1
vt 0.431579 1
vt 0.768421 1
vt 0.757895 1
vt 0.726316 1
vt 0.052632 1
vt 0.736842 1
vt 0.431579 1
vt 0.778947 1
vt 0.768421 1
vt 0.715789 1
vt 0.052632 1
vt 0.726316 1
vt 0.715789 1
vt 0.063158 1
vt 0.052632 1
vt 0.421053 1
vt 0.778947 1
vt 0.431579 1
vt 0.421053 1
vt 0.789474 1
vt 0.778947 1
vt 0.705263 1
vt 0.063158 1
vt 0.715789 1
vt 0.421053 1
vt 0.8 1
vt 0.789474 1
vt 0.694737 1
vt 0.063158 1
vt 0.705263 1
vt 0.694737 1
vt 0.073684 1
vt 0.063158 1
vt 0.410526 1
vt 0.8 1
vt 0.421053 1
vt 0.410526 1
vt 0.810526 1
vt 0.8 1
vt 0.684211 1
vt 0.073684 1
vt 0.694737 1
vt 0.410526 1
vt 0.821053 1
vt 0.810526 1
vt 0.673684 1
vt 0.073684 1
vt 0.684211 1
vt 0.673684 1
vt 0.084211 1
vt 0.073684 1
vt 0.4 1
vt 0.821053 1
vt 0.410526 1
vt 0.4 1
vt 0.831579 1
vt 0.821053 1
vt 0.663158 1
vt 0.084211 1
vt 0.673684 1
vt 0.663158 1
vt 0.094737 1
vt 0.084211 1
vt 0.389474 1
vt 0.831579 1
vt 0.4 1
vt 0.389474 1
vt 0.842105 1
vt 0.831579 1
vt 0.652632 1
vt 0.094737 1
vt 0.663158 1
vt 0.642105 1
vt 0.094737 1
vt 0.652632 1
vt 0.389474 1
vt 0.852632 1
vt 0.842105 1
vt 0.642105 1
vt 0.105263 1
vt 0.094737 1
vt 0.378947 1
vt 0.852632 1
vt 0.389474 1
vt 0.631579 1
vt 0.105263 1
vt 0.642105 1
vt 0.378947 1
vt 0.863158 1
vt 0.852632 1
vt 0.631579 1
vt 0.115789 1
vt 0.105263 1
vt 0.368421 1
vt 0.863158 1
vt 0.378947 1
vt 0.621053 1
vt 0.115789 1
vt 0.631579 1
vt 0.368421 1
vt 0.873684 1
vt 0.863158 1
vt 0.357895 1
vt 0.873684 1
vt 0.368421 1
vt 0.357895 1
vt 0.884211 1
vt 0.873684 1
vt 0.610526 1
vt 0.115789 1
vt 0.621053 1
vt 0.610526 1
vt 0.126316 1
vt 0.115789 1
vt 0.6 1
vt 0.126316 1
vt 0.610526 1
vt 0.357895 1
vt 0.894737 1
vt 0.884211 1
vt 0.6 1
vt 0.136842 1
vt 0.126316 1
vt 0.347368 1
vt 0.894737 1
vt 0.357895 1
vt 0.589474 1
vt 0.136842 1
vt 0.6 1
vt 0.347368 1
vt 0.905263 1
vt 0.894737 1
vt 0.589474 1
vt 0.147368 1
vt 0.136842 1
vt 0.336842 1
vt 0.905263 1
vt 0.347368 1
vt 0.578947 1
vt 0.147368 1
vt 0.589474 1
vt 0.336842 1
vt 0.915789 1
vt 0.905263 1
vt 0.578947 1
vt 0.157895 1
vt 0.147368 1
vt 0.326316 1
vt 0.915789 1
vt 0.336842 1
vt 0.568421 1
vt 0.157895 1
vt 0.578947 1
vt 0.326316 1
vt 0.926316 1
vt 0.915789 1
vt 0.557895 1
vt 0.157895 1
vt 0.568421 1
vt 0.326316 1
vt 0.936842 1
vt 0.926316 1
vt 0.557895 1
vt 0.168421 1
vt 0.157895 1
vt 0.315789 1
vt 0.936842 1
vt 0.326316 1
vt 0.547368 1
vt 0.168421 1
vt 0.557895 1
vt 0.315789 1
vt 0.947368 1
vt 0.936842 1
vt 0.536842 1
vt 0.168421 1
vt 0.547368 1
vt 0.315789 1
vt 0.957895 1
vt 0.947368 1
vt 0.536842 1
vt 0.178947 1
vt 0.168421 1
vt 0.305263 1
vt 0.957895 1
vt 0.315789 1
vt 0.526316 1
vt 0.178947 1
vt 0.536842 1
vt 0.305263 1
vt 0.968421 1
vt 0.957895 1
vt 0.515789 1
vt 0.178947 1
vt 0.526316 1
vt 0.305263 1
vt 0.978947 1
vt 0.968421 1
vt 0.515789 1
vt 0.189474 1
vt 0.178947 1
vt 0.294737 1
vt 0.978947 1
vt 0.305263 1
vt 0.505263 1
vt 0.189474 1
vt 0.515789 1
vt 0.294737 1
vt 0.989474 1
vt 0.978947 1
vt 1 1
vt 0.189474 1
vt 0.505263 1
vt 0.294737 1
vt 1 1
vt 0.989474 1
vt 0.294737 1
vt 0.189474 1
vt 1 1
vt 0.294737 1
vt 0.2 1
vt 0.189474 1
vt 0.284211 1
vt 0.2 1
vt 0.294737 1
vt 0.284211 1
vt 0.210526 1
vt 0.2 1
vt 0.273684 1
vt 0.210526 1
vt 0.284211 1
vt 0.273684 1
vt 0.221053 1
vt 0.210526 1
vt 0.263158 1
vt 0.221053 1
vt 0.273684 1
vt 0.263158 1
vt 0.231579 1
vt 0.221053 1
vt 0.252632 1
vt 0.231579 1
vt 0.263158 1
vt 0.252632 1
vt 0.242105 1
vt 0.231579 1
vt 0 1
vt 0.484211 1
vt 0.494737 1
vt 0.010526 1
vt 0.484211 1
vt 0 1
vt 0.010526 1
vt 0.473684 1
vt 0.484211 1
vt 0.021053 1
vt 0.473684 1
vt 0.010526 1
vt 0.021053 1
vt 0.463158 1
vt 0.473684 1
vt 0.031579 1
vt 0.463158 1
vt 0.021053 1
vt 0.031579 1
vt 0.452632 1
vt 0.463158 1
vt 0.042105 1
vt 0.452632 1
vt 0.031579 1
vt 0.042105 1
vt 0.442105 1
vt 0.452632 1
vt 0.052632 1
vt 0.442105 1
vt 0.042105 1
vt 0.747368 1
vt 0.431579 1
vt 0.442105 1
vt 0.052632 1
vt 0.747368 1
vt 0.442105 1
vt 0.757895 1
vt 0.431579 1
vt 0.747368 1
vt 0.052632 1
vt 0.736842 1
vt 0.747368 1
vt 0.768421 1
vt 0.431579 1
vt 0.757895 1
vt 0.052632 1
vt 0.726316 1
vt 0.736842 1
vt 0.778947 1
vt 0.431579 1
vt 0.768421 1
vt 0.052632 1
vt 0.715789 1
vt 0.726316 1
vt 0.063158 1
vt 0.715789 1
vt 0.052632 1
vt 0.778947 1
vt 0.421053 1
vt 0.431579 1
vt 0.789474 1
vt 0.421053 1
vt 0.778947 1
vt 0.063158 1
vt 0.705263 1
vt 0.715789 1
vt 0.8 1
vt 0.421053 1
vt 0.789474 1
vt 0.063158 1
vt 0.694737 1
vt 0.705263 1
vt 0.073684 1
vt 0.694737 1
vt 0.063158 1
vt 0.8 1
vt 0.410526 1
vt 0.421053 1
vt 0.810526 1
vt 0.410526 1
vt 0.8 1
vt 0.073684 1
vt 0.684211 1
vt 0.694737 1
vt 0.821053 1
vt 0.410526 1
vt 0.810526 1
vt 0.073684 1
vt 0.673684 1
vt 0.684211 1
vt 0.084211 1
vt 0.673684 1
vt 0.073684 1
vt 0.821053 1
vt 0.4 1
vt 0.410526 1
vt 0.831579 1
vt 0.4 1
vt 0.821053 1
vt 0.084211 1
vt 0.663158 1
vt 0.673684 1
vt 0.094737 1
vt 0.663158 1
vt 0.084211 1
vt 0.831579 1
vt 0.389474 1
vt 0.4 1
vt 0.842105 1
vt 0.389474 1
vt 0.831579 1
vt 0.094737 1
vt 0.652632 1
vt 0.663158 1
vt 0.094737 1
vt 0.642105 1
vt 0.652632 1
vt 0.852632 1
vt 0.389474 1
vt 0.842105 1
vt 0.105263 1
vt 0.642105 1
vt 0.094737 1
vt 0.852632 1
vt 0.378947 1
vt 0.389474 1
vt 0.105263 1
vt 0.631579 1
vt 0.642105 1
vt 0.863158 1
vt 0.378947 1
vt 0.852632 1
vt 0.115789 1
vt 0.631579 1
vt 0.105263 1
vt 0.863158 1
vt 0.368421 1
vt 0.378947 1
vt 0.115789 1
vt 0.621053 1
vt 0.631579 1
vt 0.873684 1
vt 0.368421 1
vt 0.863158 1
vt 0.873684 1
vt 0.357895 1
vt 0.368421 1
vt 0.884211 1
vt 0.357895 1
vt 0.873684 1
vt 0.115789 1
vt 0.610526 1
vt 0.621053 1
vt 0.126316 1
vt 0.610526 1
vt 0.115789 1
vt 0.126316 1
vt 0.6 1
vt 0.610526 1
vt 0.894737 1
vt 0.357895 1
vt 0.884211 1
vt 0.136842 1
vt 0.6 1
vt 0.126316 1
vt 0.894737 1
vt 0.347368 1
vt 0.357895 1
vt 0.136842 1
vt 0.589474 1
vt 0.6 1
vt 0.905263 1
vt 0.347368 1
vt 0.894737 1
vt 0.147368 1
vt 0.589474 1
vt 0.136842 1
vt 0.905263 1
vt 0.336842 1
vt 0.347368 1
vt 0.147368 1
vt 0.578947 1
vt 0.589474 1
vt 0.915789 1
vt 0.336842 1
vt 0.905263 1
vt 0.157895 1
vt 0.578947 1
vt 0.147368 1
vt 0.915789 1
vt 0.326316 1
vt 0.336842 1
vt 0.157895 1
vt 0.568421 1
vt 0.578947 1
vt 0.926316 1
vt 0.326316 1
vt 0.915789 1
vt 0.157895 1
vt 0.557895 1
vt 0.568421 1
vt 0.936842 1
vt 0.326316 1
vt 0.926316 1
vt 0.168421 1
vt 0.557895 1
vt 0.157895 1
vt 0.936842 1
vt 0.315789 1
vt 0.326316 1
vt 0.168421 1
vt 0.547368 1
vt 0.557895 1
vt 0.947368 1
vt 0.315789 1
vt 0.936842 1
vt 0.168421 1
vt 0.536842 1
vt 0.547368 1
vt 0.957895 1
vt 0.315789 1
vt 0.947368 1
vt 0.178947 1
vt 0.536842 1
vt 0.168421 1
vt 0.957895 1
vt 0.305263 1
vt 0.315789 1
vt 0.178947 1
vt 0.526316 1
vt 0.536842 1
vt 0.968421 1
vt 0.305263 1
vt 0.957895 1
vt 0.178947 1
vt 0.515789 1
vt 0.526316 1
vt 0.978947 1
vt 0.305263 1
vt 0.968421 1
vt 0.189474 1
vt 0.515789 1
vt 0.178947 1
vt 0.978947 1
vt 0.294737 1
vt 0.305263 1
vt 0.189474 1
vt 0.505263 1
vt 0.515789 1
vt 0.989474 1
vt 0.294737 1
vt 0.978947 1
vt 0.189474 1
vt 1 1
vt 0.505263 1
vt 1 1
vt 0.294737 1
vt 0.989474 1
vt 0.189474 1
vt 0.294737 1
vt 1 1
vt 0.2 1
vt 0.294737 1
vt 0.189474 1
vt 0.2 1
vt 0.284211 1
vt 0.294737 1
vt 0.210526 1
vt 0.284211 1
vt 0.2 1
vt 0.210526 1
vt 0.273684 1
vt 0.284211 1
vt 0.221053 1
vt 0.273684 1
vt 0.210526 1
vt 0.221053 1
vt 0.263158 1
vt 0.273684 1
vt 0.231579 1
vt 0.263158 1
vt 0.221053 1
vt 0.231579 1
vt 0.252632 1
vt 0.263158 1
vt 0.242105 1
vt 0.252632 1
vt 0.231579 1
vt 0 0
vt 0.020833 0
vt 0.020833 1
vt 0 1
vt 0.020833 0
vt 0.041667 0
vt 0.041667 1
vt 0.020833 1
vt 0.041667 0
vt 0.0625 0
vt 0.0625 1
vt 0.041667 1
vt 0.0625 0
vt 0.083333 0
vt 0.083333 1
vt 0.0625 1
vt 0.083333 0
vt 0.104167 0
vt 0.104167 1
vt 0.083333 1
vt 0.104167 0
vt 0.125 0
vt 0.125 1
vt 0.104167 1
vt 0.125 0
vt 0.145833 0
vt 0.145833 1
vt 0.125 1
vt 0.145833 0
vt 0.166667 0
vt 0.166667 1
vt 0.145833 1
vt 0.166667 0
vt 0.1875 0
vt 0.1875 1
vt 0.166667 1
vt 0.1875 0
vt 0.208333 0
vt 0.208333 1
vt 0.1875 1
vt 0.208333 0
vt 0.229167 0
vt 0.229167 1
vt 0.208333 1
vt 0.229167 0
vt 0.25 0
vt 0.25 1
vt 0.229167 1
vt 0.25 0
vt 0.270833 0
vt 0.270833 1
vt 0.25 1
vt 0.270833 0
vt 0.291667 0
vt 0.291667 1
vt 0.270833 1
vt 0.291667 0
vt 0.3125 0
vt 0.3125 1
vt 0.291667 1
vt 0.3125 0
vt 0.333333 0
vt 0.333333 1
vt 0.3125 1
vt 0.333333 0
vt 0.354167 0
vt 0.354167 1
vt 0.333333 1
vt 0.354167 0
vt 0.375 0
vt 0.375 1
vt 0.354167 1
vt 0.375 0
vt 0.395833 0
vt 0.395833 1
vt 0.375 1
vt 0.395833 0
vt 0.416667 0
vt 0.416667 1
vt 0.395833 1
vt 0.416667 0
vt 0.4375 0
vt 0.4375 1
vt 0.416667 1
vt 0.4375 0
vt 0.458333 0
vt 0.458333 1
vt 0.4375 1
vt 0.458333 0
vt 0.479167 0
vt 0.479167 1
vt 0.458333 1
vt 0.479167 0
vt 0.5 0
vt 0.5 1
vt 0.479167 1
vt 0.5 0
vt 0.520833 0
vt 0.520833 1
vt 0.5 1
vt 0.520833 0
vt 0.541667 0
vt 0.541667 1
vt 0.520833 1
vt 0.541667 0
vt 0.5625 0
vt 0.5625 1
vt 0.541667 1
vt 0.5625 0
vt 0.583333 0
vt 0.583333 1
vt 0.5625 1
vt 0.583333 0
vt 0.604167 0
vt 0.604167 1
vt 0.583333 1
vt 0.604167 0
vt 0.625 0
vt 0.625 1
vt 0.604167 1
vt 0.625 0
vt 0.645833 0
vt 0.645833 1
vt 0.625 1
vt 0.645833 0
vt 0.666667 0
vt 0.666667 1
vt 0.645833 1
vt 0.666667 0
vt 0.6875 0
vt 0.6875 1
vt 0.666667 1
vt 0.6875 0
vt 0.708333 0
vt 0.708333 1
vt 0.6875 1
vt 0.708333 0
vt 0.729167 0
vt 0.729167 1
vt 0.708333 1
vt 0.729167 0
vt 0.75 0
vt 0.75 1
vt 0.729167 1
vt 0.75 0
vt 0.770833 0
vt 0.770833 1
vt 0.75 1
vt 0.770833 0
vt 0.791667 0
vt 0.791667 1
vt 0.770833 1
vt 0.791667 0
vt 0.8125 0
vt 0.8125 1
vt 0.791667 1
vt 0.8125 0
vt 0.833333 0
vt 0.833333 1
vt 0.8125 1
vt 0.833333 0
vt 0.854167 0
vt 0.854167 1
vt 0.833333 1
vt 0.854167 0
vt 0.875 0
vt 0.875 1
vt 0.854167 1
vt 0.875 0
vt 0.895833 0
vt 0.895833 1
vt 0.875 1
vt 0.895833 0
vt 0.916667 0
vt 0.916667 1
vt 0.895833 1
vt 0.916667 0
vt 0.9375 0
vt 0.9375 1
vt 0.916667 1
vt 0.9375 0
vt 0.958333 0
vt 0.958333 1
vt 0.9375 1
vt 0.958333 0
vt 0.979167 0
vt 0.979167 1
vt 0.958333 1
vt 0.979167 0
vt 1 0
vt 1 1
vt 0.979167 1
vt 0 0
vt 0.020833 0
vt 0.020833 1
vt 0 1
vt 0.020833 0
vt 0.041667 0
vt 0.041667 1
vt 0.020833 1
vt 0.041667 0
vt 0.0625 0
vt 0.0625 1
vt 0.041667 1
vt 0.0625 0
vt 0.083333 0
vt 0.083333 1
vt 0.0625 1
vt 0.083333 0
vt 0.104167 0
vt 0.104167 1
vt 0.083333 1
vt 0.104167 0
vt 0.125 0
vt 0.125 1
vt 0.104167 1
vt 0.125 0
vt 0.145833 0
vt 0.145833 1
vt 0.125 1
vt 0.145833 0
vt 0.166667 0
vt 0.166667 1
vt 0.145833 1
vt 0.166667 0
vt 0.1875 0
vt 0.1875 1
vt 0.166667 1
vt 0.1875 0
vt 0.208333 0
vt 0.208333 1
vt 0.1875 1
vt 0.208333 0
vt 0.229167 0
vt 0.229167 1
vt 0.208333 1
vt 0.229167 0
vt 0.25 0
vt 0.25 1
vt 0.229167 1
vt 0.25 0
vt 0.270833 0
vt 0.270833 1
vt 0.25 1
vt 0.270833 0
vt 0.291667 0
vt 0.291667 1
vt 0.270833 1
vt 0.291667 0
vt 0.3125 0
vt 0.3125 1
vt 0.291667 1
vt 0.3125 0
vt 0.333333 0
vt 0.333333 1
vt 0.3125 1
vt 0.333333 0
vt 0.354167 0
vt 0.354167 1
vt 0.333333 1
vt 0.354167 0
vt 0.375 0
vt 0.375 1
vt 0.354167 1
vt 0.375 0
vt 0.395833 0
vt 0.395833 1
vt 0.375 1
vt 0.395833 0
vt 0.416667 0
vt 0.416667 1
vt 0.395833 1
vt 0.416667 0
vt 0.4375 0
vt 0.4375 1
vt 0.416667 1
vt 0.4375 0
vt 0.458333 0
vt 0.458333 1
vt 0.4375 1
vt 0.458333 0
vt 0.479167 0
vt 0.479167 1
vt 0.458333 1
vt 0.479167 0
vt 0.5 0
vt 0.5 1
vt 0.479167 1
vt 0.5 0
vt 0.520833 0
vt 0.520833 1
vt 0.5 1
vt 0.520833 0
vt 0.541667 0
vt 0.541667 1
vt 0.520833 1
vt 0.541667 0
vt 0.5625 0
vt 0.5625 1
vt 0.541667 1
vt 0.5625 0
vt 0.583333 0
vt 0.583333 1
vt 0.5625 1
vt 0.583333 0
vt 0.604167 0
vt 0.604167 1
vt 0.583333 1
vt 0.604167 0
vt 0.625 0
vt 0.625 1
vt 0.604167 1
vt 0.625 0
vt 0.645833 0
vt 0.645833 1
vt 0.625 1
vt 0.645833 0
vt 0.666667 0
vt 0.666667 1
vt 0.645833 1
vt 0.666667 0
vt 0.6875 0
vt 0.6875 1
vt 0.666667 1
vt 0.6875 0
vt 0.708333 0
vt 0.708333 1
vt 0.6875 1
vt 0.708333 0
vt 0.729167 0
vt 0.729167 1
vt 0.708333 1
vt 0.729167 0
vt 0.75 0
vt 0.75 1
vt 0.729167 1
vt 0.75 0
vt 0.770833 0
vt 0.770833 1
vt 0.75 1
vt 0.770833 0
vt 0.791667 0
vt 0.791667 1
vt 0.770833 1
vt 0.791667 0
vt 0.8125 0
vt 0.8125 1
vt 0.791667 1
vt 0.8125 0
vt 0.833333 0
vt 0.833333 1
vt 0.8125 1
vt 0.833333 0
vt 0.854167 0
vt 0.854167 1
vt 0.833333 1
vt 0.854167 0
vt 0.875 0
vt 0.875 1
vt 0.854167 1
vt 0.875 0
vt 0.895833 0
vt 0.895833 1
vt 0.875 1
vt 0.895833 0
vt 0.916667 0
vt 0.916667 1
vt 0.895833 1
vt 0.916667 0
vt 0.9375 0
vt 0.9375 1
vt 0.916667 1
vt 0.9375 0
vt 0.958333 0
vt 0.958333 1
vt 0.9375 1
vt 0.958333 0
vt 0.979167 0
vt 0.979167 1
vt 0.958333 1
vt 0.979167 0
vt 1 0
vt 1 1
vt 0.979167 1
s off
f 1/1/1 2/2/2 3/3/3
f 4/4/4 5/5/5 6/6/6
f 7/7/7 8/8/8 9/9/9
f 10/10/10 11/11/11 12/12/12
f 13/13/13 14/14/14 15/15/15
f 16/16/16 17/17/17 18/18/18
f 19/19/19 20/20/20 21/21/21
f 22/22/22 23/23/23 24/24/24
f 25/25/25 26/26/26 27/27/27
f 28/28/28 29/29/29 30/30/30
f 31/31/31 32/32/32 33/33/33
f 34/34/34 35/35/35 36/36/36
f 37/37/37 38/38/38 39/39/39
f 40/40/40 41/41/41 42/42/42
f 43/43/43 44/44/44 45/45/45
f 46/46/46 47/47/47 48/48/48
f 49/49/49 50/50/50 51/51/51
f 52/52/52 53/53/53 54/54/54
f 55/55/55 56/56/56 57/57/57
f 58/58/58 59/59/59 60/60/60
f 61/61/61 62/62/62 63/63/63
f 64/64/64 65/65/65 66/66/66
f 67/67/67 68/68/68 69/69/69
f 70/70/70 71/71/71 72/72/72
f 73/73/73 74/74/74 75/75/75
f 76/76/76 77/77/77 78/78/78
f 79/79/79 80/80/80 81/81/81
f 82/82/82 83/83/83 84/84/84
f 85/85/85 86/86/86 87/87/87
f 88/88/88 89/89/89 90/90/90
f 91/91/91 92/92/92 93/93/93
f 94/94/94 95/95/95 96/96/96
f 97/97/97 98/98/98 99/99/99
f 100/100/100 101/101/101 102/102/102
f 103/103/103 104/104/104 105/105/105
f 106/106/106 107/107/107 108/108/108
f 109/109/109 110/110/110 111/111/111
f 112/112/112 113/113/113 114/114/114
f 115/115/115 116/116/116 117/117/117
f 118/118/118 119/119/119 120/120/120
f 121/121/121 122/122/122 123/123/123
f 124/124/124 125/125/125 126/126/126
f 127/127/127 128/128/128 129/129/129
f 130/130/130 131/131/131 132/132/132
f 133/133/133 134/134/134 135/135/135
f 136/136/136 137/137/137 138/138/138
f 139/139/139 140/140/140 141/141/141
f 142/142/142 143/143/143 144/144/144
f 145/145/145 146/146/146 147/147/147
f 148/148/148 149/149/149 150/150/150
f 151/151/151 152/152/152 153/153/153
f 154/154/154 155/155/155 156/156/156
f 157/157/157 158/158/158 159/159/159
f 160/160/160 161/161/161 162/162/162
f 163/163/163 164/164/164 165/165/165
f 166/166/166 167/167/167 168/168/168
f 169/169/169 170/170/170 171/171/171
f 172/172/172 173/173/173 174/174/174
f 175/175/175 176/176/176 177/177/177
f 178/178/178 179/179/179 180/180/180
f 181/181/181 182/182/182 183/183/183
f 184/184/184 185/185/185 186/186/186
f 187/187/187 188/188/188 189/189/189
f 190/190/190 191/191/191 192/192/192
f 193/193/193 194/194/194 195/195/195
f 196/196/196 197/197/197 198/198/198
f 199/199/199 200/200/200 201/201/201
f 202/202/202 203/203/203 204/204/204
f 205/205/205 206/206/206 207/207/207
f 208/208/208 209/209/209 210/210/210
f 211/211/211 212/212/212 213/213/213
f 214/214/214 215/215/215 216/216/216
f 217/217/217 218/218/218 219/219/219
f 220/220/220 221/221/221 222/222/222
f 223/223/223 224/224/224 225/225/225
f 226/226/226 227/227/227 228/228/228
f 229/229/229 230/230/230 231/231/231
f 232/232/232 233/233/233 234/234/234
f 235/235/235 236/236/236 237/237/237
f 238/238/238 239/239/239 240/240/240
f 241/241/241 242/242/242 243/243/243
f 244/244/244 245/245/245 246/246/246
f 247/247/247 248/248/248 249/249/249
f 250/250/250 251/251/251 252/252/252
f 253/253/253 254/254/254 255/255/255
f 256/256/256 257/257/257 258/258/258
f 259/259/259 260/260/260 261/261/261
f 262/262/262 263/263/263 264/264/264
f 265/265/265 266/266/266 267/267/267
f 268/268/268 269/269/269 270/270/270
f 271/271/271 272/272/272 273/273/273
f 274/274/274 275/275/275 276/276/276
f 277/277/277 278/278/278 279/279/279
f 280/280/280 281/281/281 282/282/282
f 283/283/283 284/284/284 285/285/285
f 286/286/286 287/287/287 288/288/288
f 289/289/289 290/290/290 291/291/291
f 292/292/292 293/293/293 294/294/294
f 295/295/295 296/296/296 297/297/297
f 298/298/298 299/299/299 300/300/300
f 301/301/301 302/302/302 303/303/303
f 304/304/304 305/305/305 306/306/306
f 307/307/307 308/308/308 309/309/309
f 310/310/310 311/311/311 312/312/312
f 313/313/313 314/314/314 315/315/315
f 316/316/316 317/317/317 318/318/318
f 319/319/319 320/320/320 321/321/321
f 322/322/322 323/323/323 324/324/324
f 325/325/325 326/326/326 327/327/327
f 328/328/328 329/329/329 330/330/330
f 331/331/331 332/332/332 333/333/333
f 334/334/334 335/335/335 336/336/336
f 337/337/337 338/338/338 339/339/339
f 340/340/340 341/341/341 342/342/342
f 343/343/343 344/344/344 345/345/345
f 346/346/346 347/347/347 348/348/348
f 349/349/349 350/350/350 351/351/351
f 352/352/352 353/353/353 354/354/354
f 355/355/355 356/356/356 357/357/357
f 358/358/358 359/359/359 360/360/360
f 361/361/361 362/362/362 363/363/363
f 364/364/364 365/365/365 366/366/366
f 367/367/367 368/368/368 369/369/369
f 370/370/370 371/371/371 372/372/372
f 373/373/373 374/374/374 375/375/375
f 376/376/376 377/377/377 378/378/378
f 379/379/379 380/380/380 381/381/381
f 382/382/382 383/383/383 384/384/384
f 385/385/385 386/386/386 387/387/387
f 388/388/388 389/389/389 390/390/390
f 391/391/391 392/392/392 393/393/393
f 394/394/394 395/395/395 396/396/396
f 397/397/397 398/398/398 399/399/399
f 400/400/400 401/401/401 402/402/402
f 403/403/403 404/404/404 405/405/405
f 406/406/406 407/407/407 408/408/408
f 409/409/409 410/410/410 411/411/411
f 412/412/412 413/413/413 414/414/414
f 415/415/415 416/416/416 417/417/417
f 418/418/418 419/419/419 420/420/420
f 421/421/421 422/422/422 423/423/423
f 424/424/424 425/425/425 426/426/426
f 427/427/427 428/428/428 429/429/429
f 430/430/430 431/431/431 432/432/432
f 433/433/433 434/434/434 435/435/435
f 436/436/436 437/437/437 438/438/438
f 439/439/439 440/440/440 441/441/441
f 442/442/442 443/443/443 444/444/444
f 445/445/445 446/446/446 447/447/447
f 448/448/448 449/449/449 450/450/450
f 451/451/451 452/452/452 453/453/453
f 454/454/454 455/455/455 456/456/456
f 457/457/457 458/458/458 459/459/459
f 460/460/460 461/461/461 462/462/462
f 463/463/463 464/464/464 465/465/465
f 466/466/466 467/467/467 468/468/468
f 469/469/469 470/470/470 471/471/471
f 472/472/472 473/473/473 474/474/474
f 475/475/475 476/476/476 477/477/477
f 478/478/478 479/479/479 480/480/480
f 481/481/481 482/482/482 483/483/483
f 484/484/484 485/485/485 486/486/486
f 487/487/487 488/488/488 489/489/489
f 490/490/490 491/491/491 492/492/492
f 493/493/493 494/494/494 495/495/495
f 496/496/496 497/497/497 498/498/498
f 499/499/499 500/500/500 501/501/501
f 502/502/502 503/503/503 504/504/504
f 505/505/505 506/506/506 507/507/507
f 508/508/508 509/509/509 510/510/510
f 511/511/511 512/512/512 513/513/513
f 514/514/514 515/515/515 516/516/516
f 517/517/517 518/518/518 519/519/519
f 520/520/520 521/521/521 522/522/522
f 523/523/523 524/524/524 525/525/525
f 526/526/526 527/527/527 528/528/528
f 529/529/529 530/530/530 531/531/531
f 532/532/532 533/533/533 534/534/534
f 535/535/535 536/536/536 537/537/537
f 538/538/538 539/539/539 540/540/540
f 541/541/541 542/542/542 543/543/543
f 544/544/544 545/545/545 546/546/546
f 547/547/547 548/548/548 549/549/549
f 550/550/550 551/551/551 552/552/552
f 553/553/553 554/554/554 555/555/555
f 556/556/556 557/557/557 558/558/558
f 559/559/559 560/560/560 561/561/561
f 562/562/562 563/563/563 564/564/564
f 565/565/565 566/566/566 567/567/567
f 568/568/568 569/569/569 570/570/570
f 571/571/571 572/572/572 573/573/573
f 574/574/574 575/575/575 576/576/576
f 577/577/577 578/578/578 579/579/579
f 577/577/577 579/579/579 580/580/580
f 581/581/581 582/582/582 583/583/583
f 581/581/581 583/583/583 584/584/584
f 585/585/585 586/586/586 587/587/587
f 585/585/585 587/587/587 588/588/588
f 589/589/589 590/590/590 591/591/591
f 589/589/589 591/591/591 592/592/592
f 593/593/593 594/594/594 595/595/595
f 593/593/593 595/595/595 596/596/596
f 597/597/597 598/598/598 599/599/599
f 597/597/597 599/599/599 600/600/600
f 601/601/601 602/602/602 603/603/603
f 601/601/601 603/603/603 604/604/604
f 605/605/605 606/606/606 607/607/607
f 605/605/605 607/607/607 608/608/608
f 609/609/609 610/610/610 611/611/611
f 609/609/609 611/611/611 612/612/612
f 613/613/613 614/614/614 615/615/615
f 613/613/613 615/615/615 616/616/616
f 617/617/617 618/618/618 619/619/619
f 617/617/617 619/619/619 620/620/620
f 621/621/621 622/622/622 623/623/623
f 621/621/621 623/623/623 624/624/624
f 625/625/625 626/626/626 627/627/627
f 625/625/625 627/627/627 628/628/628
f 629/629/629 630/630/630 631/631/631
f 629/629/629 631/631/631 632/632/632
f 633/633/633 634/634/634 635/635/635
f 633/633/633 635/635/635 636/636/636
f 637/637/637 638/638/638 639/639/639
f 637/637/637 639/639/639 640/640/640
f 641/641/641 642/642/642 643/643/643
f 641/641/641 643/643/643 644/644/644
f 645/645/645 646/646/646 647/647/647
f 645/645/645 647/647/647 648/648/648
f 649/649/649 650/650/650 651/651/651
f 649/649/649 651/651/651 652/652/652
f 653/653/653 654/654/654 655/655/655
f 653/653/653 655/655/655 656/656/656
f 657/657/657 658/658/658 659/659/659
f 657/657/657 659/659/659 660/660/660
f 661/661/661 662/662/662 663/663/663
f 661/661/661 663/663/663 664/664/664
f 665/665/665 666/666/666 667/667/667
f 665/665/665 667/667/667 668/668/668
f 669/669/669 670/670/670 671/671/671
f 669/669/669 671/671/671 672/672/672
f 673/673/673 674/674/674 675/675/675
f 673/673/673 675/675/675 676/676/676
f 677/677/677 678/678/678 679/679/679
f 677/677/677 679/679/679 680/680/680
f 681/681/681 682/682/682 683/683/683
f 681/681/681 683/683/683 684/684/684
f 685/685/685 686/686/686 687/687/687
f 685/685/685 687/687/687 688/688/688
f 689/689/689 690/690/690 691/691/691
f 689/689/689 691/691/691 692/692/692
f 693/693/693 694/694/694 695/695/695
f 693/693/693 695/695/695 696/696/696
f 697/697/697 698/698/698 699/699/699
f 697/697/697 699/699/699 700/700/700
f 701/701/701 702/702/702 703/703/703
f 701/701/701 703/703/703 704/704/704
f 705/705/705 706/706/706 707/707/707
f 705/705/705 707/707/707 708/708/708
f 709/709/709 710/710/710 711/711/711
f 709/709/709 711/711/711 712/712/712
f 713/713/713 714/714/714 715/715/715
f 713/713/713 715/715/715 716/716/716
f 717/717/717 718/718/718 719/719/719
f 717/717/717 719/719/719 720/720/720
f 721/721/721 722/722/722 723/723/723
f 721/721/721 723/723/723 724/724/724
f 725/725/725 726/726/726 727/727/727
f 725/725/725 727/727/727 728/728/728
f 729/729/729 730/730/730 731/731/731
f 729/729/729 731/731/731 732/732/732
f 733/733/733 734/734/734 735/735/735
f 733/733/733 735/735/735 736/736/736
f 737/737/737 738/738/738 739/739/739
f 737/737/737 739/739/739 740/740/740
f 741/741/741 742/742/742 743/743/743
f 741/741/741 743/743/743 744/744/744
f 745/745/745 746/746/746 747/747/747
f 745/745/745 747/747/747 748/748/748
f 749/749/749 750/750/750 751/751/751
f 749/749/749 751/751/751 752/752/752
f 753/753/753 754/754/754 755/755/755
f 753/753/753 755/755/755 756/756/756
f 757/757/757 758/758/758 759/759/759
f 757/757/757 759/759/759 760/760/760
f 761/761/761 762/762/762 763/763/763
f 761/761/761 763/763/763 764/764/764
f 765/765/765 766/766/766 767/767/767
f 765/765/765 767/767/767 768/768/768
f 769/769/769 770/770/770 771/771/771
f 769/769/769 771/771/771 772/772/772
f 773/773/773 774/774/774 775/775/775
f 773/773/773 775/775/775 776/776/776
f 777/777/777 778/778/778 779/779/779
f 777/777/777 779/779/779 780/780/780
f 781/781/781 782/782/782 783/783/783
f 781/781/781 783/783/783 784/784/784
f 785/785/785 786/786/786 787/787/787
f 785/785/785 787/787/787 788/788/788
f 789/789/789 790/790/790 791/791/791
f 789/789/789 791/791/791 792/792/792
f 793/793/793 794/794/794 795/795/795
f 793/793/793 795/795/795 796/796/796
f 797/797/797 798/798/798 799/799/799
f 797/797/797 799/799/799 800/800/800
f 801/801/801 802/802/802 803/803/803
f 801/801/801 803/803/803 804/804/804
f 805/805/805 806/806/806 807/807/807
f 805/805/805 807/807/807 808/808/808
f 809/809/809 810/810/810 811/811/811
f 809/809/809 811/811/811 812/812/812
f 813/813/813 814/814/814 815/815/815
f 813/813/813 815/815/815 816/816/816
f 817/817/817 818/818/818 819/819/819
f 817/817/817 819/819/819 820/820/820
f 821/821/821 822/822/822 823/823/823
f 821/821/821 823/823/823 824/824/824
f 825/825/825 826/826/826 827/827/827
f 825/825/825 827/827/827 828/828/828
f 829/829/829 830/830/830 831/831/831
f 829/829/829 831/831/831 832/832/832
f 833/833/833 834/834/834 835/835/835
f 833/833/833 835/835/835 836/836/836
f 837/837/837 838/838/838 839/839/839
f 837/837/837 839/839/839 840/840/840
f 841/841/841 842/842/842 843/843/843
f 841/841/841 843/843/843 844/844/844
f 845/845/845 846/846/846 847/847/847
f 845/845/845 847/847/847 848/848/848
f 849/849/849 850/850/850 851/851/851
f 849/849/849 851/851/851 852/852/852
f 853/853/853 854/854/854 855/855/855
f 853/853/853 855/855/855 856/856/856
f 857/857/857 858/858/858 859/859/859
f 857/857/857 859/859/859 860/860/860
f 861/861/861 862/862/862 863/863/863
f 861/861/861 863/863/863 864/864/864
f 865/865/865 866/866/866 867/867/867
f 865/865/865 867/867/867 868/868/868
f 869/869/869 870/870/870 871/871/871
f 869/869/869 871/871/871 872/872/872
f 873/873/873 874/874/874 875/875/875
f 873/873/873 875/875/875 876/876/876
f 877/877/877 878/878/878 879/879/879
f 877/877/877 879/879/879 880/880/880
f 881/881/881 882/882/882 883/883/883
f 881/881/881 883/883/883 884/884/884
f 885/885/885 886/886/886 887/887/887
f 885/885/885 887/887/887 888/888/888
f 889/889/889 890/890/890 891/891/891
f 889/889/889 891/891/891 892/892/892
f 893/893/893 894/894/894 895/895/895
f 893/893/893 895/895/895 896/896/896
f 897/897/897 898/898/898 899/899/899
f 897/897/897 899/899/899 900/900/900
f 901/901/901 902/902/902 903/903/903
f 901/901/901 903/903/903 904/904/904
f 905/905/905 906/906/906 907/907/907
f 905/905/905 907/907/907 908/908/908
f 909/909/909 910/910/910 911/911/911
f 909/909/909 911/911/911 912/912/912
f 913/913/913 914/914/914 915/915/915
f 913/913/913 915/915/915 916/916/916
f 917/917/917 918/918/918 919/919/919
f 917/917/917 919/919/919 920/920/920
f 921/921/921 922/922/922 923/923/923
f 921/921/921 923/923/923 924/924/924
f 925/925/925 926/926/926 927/927/927
f 925/925/925 927/927/927 928/928/928
f 929/929/929 930/930/930 931/931/931
f 929/929/929 931/931/931 932/932/932
f 933/933/933 934/934/934 935/935/935
f 933/933/933 935/935/935 936/936/936
f 937/937/937 938/938/938 939/939/939
f 937/937/937 939/939/939 940/940/940
f 941/941/941 942/942/942 943/943/943
f 941/941/941 943/943/943 944/944/944
f 945/945/945 946/946/946 947/947/947
f 945/945/945 947/947/947 948/948/948
f 949/949/949 950/950/950 951/951/951
f 949/949/949 951/951/951 952/952/952
f 953/953/953 954/954/954 955/955/955
f 953/953/953 955/955/955 956/956/956
f 957/957/957 958/958/958 959/959/959
f 957/957/957 959/959/959 960/960/960
