v 0.366894 0.029136 -0.05972
v 0.373029 0.029339 -0.096905
v 0.366894 0.029369 -0.102414
v 0.373029 0.029339 -0.096905
v 0.380228 0.029369 -0.102414
v 0.366894 0.029369 -0.102414
v 0.373029 0.029339 -0.096905
v 0.382455 0.029368 -0.102302
v 0.380228 0.029369 -0.102414
v 0.373029 0.029339 -0.096905
v 0.384473 0.029366 -0.101975
v 0.382455 0.029368 -0.102302
v 0.373029 0.029339 -0.096905
v 0.386286 0.029364 -0.101448
v 0.384473 0.029366 -0.101975
v 0.373029 0.029339 -0.096905
v 0.387896 0.02936 -0.100736
v 0.386286 0.029364 -0.101448
v 0.373029 0.029339 -0.096905
v 0.389306 0.029355 -0.099853
v 0.387896 0.02936 -0.100736
v 0.373029 0.029339 -0.096905
v 0.390518 0.029349 -0.098815
v 0.389306 0.029355 -0.099853
v 0.373029 0.029339 -0.096905
v 0.391537 0.029343 -0.097636
v 0.390518 0.029349 -0.098815
v 0.373029 0.029339 -0.096905
v 0.380228 0.029339 -0.096905
v 0.391537 0.029343 -0.097636
v 0.380228 0.029339 -0.096905
v 0.392364 0.029336 -0.09633
v 0.391537 0.029343 -0.097636
v 0.366894 0.029136 -0.05972
v 0.373029 0.029267 -0.083696
v 0.373029 0.029339 -0.096905
v 0.381541 0.029338 -0.096837
v 0.392364 0.029336 -0.09633
v 0.380228 0.029339 -0.096905
v 0.382701 0.029337 -0.09664
v 0.392364 0.029336 -0.09633
v 0.381541 0.029338 -0.096837
v 0.383713 0.029336 -0.096328
v 0.392364 0.029336 -0.09633
v 0.382701 0.029337 -0.09664
v 0.383713 0.029336 -0.096328
v 0.393002 0.029328 -0.094914
v 0.392364 0.029336 -0.09633
v 0.384587 0.029333 -0.095913
v 0.393002 0.029328 -0.094914
v 0.383713 0.029336 -0.096328
v 0.38533 0.029331 -0.095407
v 0.393002 0.029328 -0.094914
v 0.384587 0.029333 -0.095913
v 0.385948 0.029327 -0.094824
v 0.393002 0.029328 -0.094914
v 0.38533 0.029331 -0.095407
v 0.385948 0.029327 -0.094824
v 0.393454 0.02932 -0.093401
v 0.393002 0.029328 -0.094914
v 0.386451 0.029324 -0.094175
v 0.393454 0.02932 -0.093401
v 0.385948 0.029327 -0.094824
v 0.386845 0.02932 -0.093474
v 0.393454 0.02932 -0.093401
v 0.386451 0.029324 -0.094175
v 0.387139 0.029316 -0.092732
v 0.393454 0.02932 -0.093401
v 0.386845 0.02932 -0.093474
v 0.387139 0.029316 -0.092732
v 0.393724 0.029311 -0.091806
v 0.393454 0.02932 -0.093401
v 0.387339 0.029312 -0.091964
v 0.393724 0.029311 -0.091806
v 0.387139 0.029316 -0.092732
v 0.387454 0.029308 -0.091181
v 0.393724 0.029311 -0.091806
v 0.387339 0.029312 -0.091964
v 0.387454 0.029308 -0.091181
v 0.393813 0.029302 -0.090145
v 0.393724 0.029311 -0.091806
v 0.38749 0.029303 -0.090394
v 0.393813 0.029302 -0.090145
v 0.387454 0.029308 -0.091181
v 0.387429 0.029298 -0.089368
v 0.393813 0.029302 -0.090145
v 0.38749 0.029303 -0.090394
v 0.387429 0.029298 -0.089368
v 0.393719 0.029293 -0.088502
v 0.393813 0.029302 -0.090145
v 0.387251 0.029293 -0.088421
v 0.393719 0.029293 -0.088502
v 0.387429 0.029298 -0.089368
v 0.387251 0.029293 -0.088421
v 0.393433 0.029285 -0.086933
v 0.393719 0.029293 -0.088502
v 0.386959 0.029288 -0.087552
v 0.393433 0.029285 -0.086933
v 0.387251 0.029293 -0.088421
v 0.386558 0.029284 -0.086766
v 0.393433 0.029285 -0.086933
v 0.386959 0.029288 -0.087552
v 0.386558 0.029284 -0.086766
v 0.392954 0.029276 -0.08545
v 0.393433 0.029285 -0.086933
v 0.386053 0.02928 -0.086065
v 0.392954 0.029276 -0.08545
v 0.386558 0.029284 -0.086766
v 0.385448 0.029276 -0.085449
v 0.392954 0.029276 -0.08545
v 0.386053 0.02928 -0.086065
v 0.385448 0.029276 -0.085449
v 0.392278 0.029269 -0.084068
v 0.392954 0.029276 -0.08545
v 0.384747 0.029274 -0.084922
v 0.392278 0.029269 -0.084068
v 0.385448 0.029276 -0.085449
v 0.383956 0.029271 -0.084487
v 0.392278 0.029269 -0.084068
v 0.384747 0.029274 -0.084922
v 0.38308 0.029269 -0.084145
v 0.392278 0.029269 -0.084068
v 0.383956 0.029271 -0.084487
v 0.382121 0.029268 -0.083897
v 0.392278 0.029269 -0.084068
v 0.38308 0.029269 -0.084145
v 0.382121 0.029268 -0.083897
v 0.391402 0.029262 -0.082797
v 0.392278 0.029269 -0.084068
v 0.381086 0.029267 -0.083747
v 0.391402 0.029262 -0.082797
v 0.382121 0.029268 -0.083897
v 0.379978 0.029267 -0.083696
v 0.391402 0.029262 -0.082797
v 0.381086 0.029267 -0.083747
v 0.366894 0.029136 -0.05972
v 0.373029 0.029237 -0.078188
v 0.373029 0.029267 -0.083696
v 0.373029 0.029237 -0.078188
v 0.379978 0.029267 -0.083696
v 0.373029 0.029267 -0.083696
v 0.373029 0.029237 -0.078188
v 0.391402 0.029262 -0.082797
v 0.379978 0.029267 -0.083696
v 0.373029 0.029237 -0.078188
v 0.390323 0.029256 -0.081654
v 0.391402 0.029262 -0.082797
v 0.373029 0.029237 -0.078188
v 0.389038 0.02925 -0.08065
v 0.390323 0.029256 -0.081654
v 0.373029 0.029237 -0.078188
v 0.387543 0.029246 -0.079799
v 0.389038 0.02925 -0.08065
v 0.373029 0.029237 -0.078188
v 0.385837 0.029242 -0.079113
v 0.387543 0.029246 -0.079799
v 0.373029 0.029237 -0.078188
v 0.383915 0.029239 -0.078608
v 0.385837 0.029242 -0.079113
v 0.373029 0.029237 -0.078188
v 0.381775 0.029237 -0.078295
v 0.383915 0.029239 -0.078608
v 0.373029 0.029237 -0.078188
v 0.379414 0.029237 -0.078188
v 0.381775 0.029237 -0.078295
v 0.366894 0.029136 -0.05972
v 0.373029 0.029136 -0.05972
v 0.373029 0.029237 -0.078188
v 0.373029 0.025583 -0.096925
v 0.366894 0.02538 -0.059741
v 0.366894 0.025613 -0.102435
v 0.380228 0.025613 -0.102435
v 0.373029 0.025583 -0.096925
v 0.366894 0.025613 -0.102435
v 0.382455 0.025612 -0.102322
v 0.373029 0.025583 -0.096925
v 0.380228 0.025613 -0.102435
v 0.384473 0.02561 -0.101995
v 0.373029 0.025583 -0.096925
v 0.382455 0.025612 -0.102322
v 0.386286 0.025607 -0.101469
v 0.373029 0.025583 -0.096925
v 0.384473 0.02561 -0.101995
v 0.387896 0.025604 -0.100756
v 0.373029 0.025583 -0.096925
v 0.386286 0.025607 -0.101469
v 0.389306 0.025599 -0.099873
v 0.373029 0.025583 -0.096925
v 0.387896 0.025604 -0.100756
v 0.390518 0.025593 -0.098835
v 0.373029 0.025583 -0.096925
v 0.389306 0.025599 -0.099873
v 0.391537 0.025587 -0.097656
v 0.373029 0.025583 -0.096925
v 0.390518 0.025593 -0.098835
v 0.380228 0.025583 -0.096925
v 0.373029 0.025583 -0.096925
v 0.391537 0.025587 -0.097656
v 0.392364 0.02558 -0.09635
v 0.380228 0.025583 -0.096925
v 0.391537 0.025587 -0.097656
v 0.373029 0.025511 -0.083717
v 0.366894 0.02538 -0.059741
v 0.373029 0.025583 -0.096925
v 0.392364 0.02558 -0.09635
v 0.381541 0.025582 -0.096858
v 0.380228 0.025583 -0.096925
v 0.392364 0.02558 -0.09635
v 0.382701 0.025581 -0.096661
v 0.381541 0.025582 -0.096858
v 0.392364 0.02558 -0.09635
v 0.383713 0.02558 -0.096349
v 0.382701 0.025581 -0.096661
v 0.393002 0.025572 -0.094934
v 0.383713 0.02558 -0.096349
v 0.392364 0.02558 -0.09635
v 0.393002 0.025572 -0.094934
v 0.384587 0.025577 -0.095933
v 0.383713 0.02558 -0.096349
v 0.393002 0.025572 -0.094934
v 0.38533 0.025575 -0.095427
v 0.384587 0.025577 -0.095933
v 0.393002 0.025572 -0.094934
v 0.385948 0.025571 -0.094844
v 0.38533 0.025575 -0.095427
v 0.393454 0.025564 -0.093421
v 0.385948 0.025571 -0.094844
v 0.393002 0.025572 -0.094934
v 0.393454 0.025564 -0.093421
v 0.386451 0.025568 -0.094196
v 0.385948 0.025571 -0.094844
v 0.393454 0.025564 -0.093421
v 0.386845 0.025564 -0.093494
v 0.386451 0.025568 -0.094196
v 0.393454 0.025564 -0.093421
v 0.387139 0.02556 -0.092753
v 0.386845 0.025564 -0.093494
v 0.393724 0.025555 -0.091826
v 0.387139 0.02556 -0.092753
v 0.393454 0.025564 -0.093421
v 0.393724 0.025555 -0.091826
v 0.387339 0.025556 -0.091984
v 0.387139 0.02556 -0.092753
v 0.393724 0.025555 -0.091826
v 0.387454 0.025552 -0.091201
v 0.387339 0.025556 -0.091984
v 0.393813 0.025546 -0.090165
v 0.387454 0.025552 -0.091201
v 0.393724 0.025555 -0.091826
v 0.393813 0.025546 -0.090165
v 0.38749 0.025547 -0.090415
v 0.387454 0.025552 -0.091201
v 0.393813 0.025546 -0.090165
v 0.387429 0.025542 -0.089389
v 0.38749 0.025547 -0.090415
v 0.393719 0.025537 -0.088523
v 0.387429 0.025542 -0.089389
v 0.393813 0.025546 -0.090165
v 0.393719 0.025537 -0.088523
v 0.387251 0.025537 -0.088441
v 0.387429 0.025542 -0.089389
v 0.393433 0.025528 -0.086953
v 0.387251 0.025537 -0.088441
v 0.393719 0.025537 -0.088523
v 0.393433 0.025528 -0.086953
v 0.386959 0.025532 -0.087573
v 0.387251 0.025537 -0.088441
v 0.393433 0.025528 -0.086953
v 0.386558 0.025528 -0.086787
v 0.386959 0.025532 -0.087573
v 0.392954 0.02552 -0.08547
v 0.386558 0.025528 -0.086787
v 0.393433 0.025528 -0.086953
v 0.392954 0.02552 -0.08547
v 0.386053 0.025524 -0.086085
v 0.386558 0.025528 -0.086787
v 0.392954 0.02552 -0.08547
v 0.385448 0.02552 -0.085469
v 0.386053 0.025524 -0.086085
v 0.392278 0.025513 -0.084088
v 0.385448 0.02552 -0.085469
v 0.392954 0.02552 -0.08547
v 0.392278 0.025513 -0.084088
v 0.384747 0.025517 -0.084943
v 0.385448 0.02552 -0.085469
v 0.392278 0.025513 -0.084088
v 0.383956 0.025515 -0.084508
v 0.384747 0.025517 -0.084943
v 0.392278 0.025513 -0.084088
v 0.38308 0.025513 -0.084165
v 0.383956 0.025515 -0.084508
v 0.392278 0.025513 -0.084088
v 0.382121 0.025512 -0.083917
v 0.38308 0.025513 -0.084165
v 0.391402 0.025506 -0.082818
v 0.382121 0.025512 -0.083917
v 0.392278 0.025513 -0.084088
v 0.391402 0.025506 -0.082818
v 0.381086 0.025511 -0.083768
v 0.382121 0.025512 -0.083917
v 0.391402 0.025506 -0.082818
v 0.379978 0.025511 -0.083717
v 0.381086 0.025511 -0.083768
v 0.373029 0.025481 -0.078208
v 0.366894 0.02538 -0.059741
v 0.373029 0.025511 -0.083717
v 0.379978 0.025511 -0.083717
v 0.373029 0.025481 -0.078208
v 0.373029 0.025511 -0.083717
v 0.391402 0.025506 -0.082818
v 0.373029 0.025481 -0.078208
v 0.379978 0.025511 -0.083717
v 0.390323 0.0255 -0.081675
v 0.373029 0.025481 -0.078208
v 0.391402 0.025506 -0.082818
v 0.389038 0.025494 -0.08067
v 0.373029 0.025481 -0.078208
v 0.390323 0.0255 -0.081675
v 0.387543 0.02549 -0.07982
v 0.373029 0.025481 -0.078208
v 0.389038 0.025494 -0.08067
v 0.385837 0.025486 -0.079134
v 0.373029 0.025481 -0.078208
v 0.387543 0.02549 -0.07982
v 0.383915 0.025483 -0.078629
v 0.373029 0.025481 -0.078208
v 0.385837 0.025486 -0.079134
v 0.381775 0.025481 -0.078315
v 0.373029 0.025481 -0.078208
v 0.383915 0.025483 -0.078629
v 0.379414 0.025481 -0.078208
v 0.373029 0.025481 -0.078208
v 0.381775 0.025481 -0.078315
v 0.373029 0.02538 -0.059741
v 0.366894 0.02538 -0.059741
v 0.373029 0.025481 -0.078208
v 0.382455 0.029368 -0.102302
v 0.384473 0.029366 -0.101975
v 0.384473 0.02561 -0.101995
v 0.382455 0.025612 -0.102322
v 0.384473 0.029366 -0.101975
v 0.386286 0.029364 -0.101448
v 0.386286 0.025607 -0.101469
v 0.384473 0.02561 -0.101995
v 0.386286 0.029364 -0.101448
v 0.387896 0.02936 -0.100736
v 0.387896 0.025604 -0.100756
v 0.386286 0.025607 -0.101469
v 0.387896 0.02936 -0.100736
v 0.389306 0.029355 -0.099853
v 0.389306 0.025599 -0.099873
v 0.387896 0.025604 -0.100756
v 0.389306 0.029355 -0.099853
v 0.390518 0.029349 -0.098815
v 0.390518 0.025593 -0.098835
v 0.389306 0.025599 -0.099873
v 0.390518 0.029349 -0.098815
v 0.391537 0.029343 -0.097636
v 0.391537 0.025587 -0.097656
v 0.390518 0.025593 -0.098835
v 0.391537 0.029343 -0.097636
v 0.392364 0.029336 -0.09633
v 0.392364 0.02558 -0.09635
v 0.391537 0.025587 -0.097656
v 0.392364 0.029336 -0.09633
v 0.393002 0.029328 -0.094914
v 0.393002 0.025572 -0.094934
v 0.392364 0.02558 -0.09635
v 0.393002 0.029328 -0.094914
v 0.393454 0.02932 -0.093401
v 0.393454 0.025564 -0.093421
v 0.393002 0.025572 -0.094934
v 0.393454 0.02932 -0.093401
v 0.393724 0.029311 -0.091806
v 0.393724 0.025555 -0.091826
v 0.393454 0.025564 -0.093421
v 0.393724 0.029311 -0.091806
v 0.393813 0.029302 -0.090145
v 0.393813 0.025546 -0.090165
v 0.393724 0.025555 -0.091826
v 0.393813 0.029302 -0.090145
v 0.393719 0.029293 -0.088502
v 0.393719 0.025537 -0.088523
v 0.393813 0.025546 -0.090165
v 0.393719 0.029293 -0.088502
v 0.393433 0.029285 -0.086933
v 0.393433 0.025528 -0.086953
v 0.393719 0.025537 -0.088523
v 0.393433 0.029285 -0.086933
v 0.392954 0.029276 -0.08545
v 0.392954 0.02552 -0.08547
v 0.393433 0.025528 -0.086953
v 0.392954 0.029276 -0.08545
v 0.392278 0.029269 -0.084068
v 0.392278 0.025513 -0.084088
v 0.392954 0.02552 -0.08547
v 0.392278 0.029269 -0.084068
v 0.391402 0.029262 -0.082797
v 0.391402 0.025506 -0.082818
v 0.392278 0.025513 -0.084088
v 0.391402 0.029262 -0.082797
v 0.390323 0.029256 -0.081654
v 0.390323 0.0255 -0.081675
v 0.391402 0.025506 -0.082818
v 0.390323 0.029256 -0.081654
v 0.389038 0.02925 -0.08065
v 0.389038 0.025494 -0.08067
v 0.390323 0.0255 -0.081675
v 0.389038 0.02925 -0.08065
v 0.387543 0.029246 -0.079799
v 0.387543 0.02549 -0.07982
v 0.389038 0.025494 -0.08067
v 0.387543 0.029246 -0.079799
v 0.385837 0.029242 -0.079113
v 0.385837 0.025486 -0.079134
v 0.387543 0.02549 -0.07982
v 0.385837 0.029242 -0.079113
v 0.383915 0.029239 -0.078608
v 0.383915 0.025483 -0.078629
v 0.385837 0.025486 -0.079134
v 0.383915 0.029239 -0.078608
v 0.381775 0.029237 -0.078295
v 0.381775 0.025481 -0.078315
v 0.383915 0.025483 -0.078629
v 0.381775 0.029237 -0.078295
v 0.379414 0.029237 -0.078188
v 0.379414 0.025481 -0.078208
v 0.381775 0.025481 -0.078315
v 0.379414 0.029237 -0.078188
v 0.373029 0.029237 -0.078188
v 0.373029 0.025481 -0.078208
v 0.379414 0.025481 -0.078208
v 0.373029 0.029237 -0.078188
v 0.373029 0.029136 -0.05972
v 0.373029 0.02538 -0.059741
v 0.373029 0.025481 -0.078208
v 0.373029 0.029136 -0.05972
v 0.366894 0.029136 -0.05972
v 0.366894 0.02538 -0.059741
v 0.373029 0.02538 -0.059741
v 0.366894 0.029136 -0.05972
v 0.366894 0.029369 -0.102414
v 0.366894 0.025613 -0.102435
v 0.366894 0.02538 -0.059741
v 0.366894 0.029369 -0.102414
v 0.380228 0.029369 -0.102414
v 0.380228 0.025613 -0.102435
v 0.366894 0.025613 -0.102435
v 0.380228 0.029369 -0.102414
v 0.382455 0.029368 -0.102302
v 0.382455 0.025612 -0.102322
v 0.380228 0.025613 -0.102435
v 0.379978 0.029267 -0.083696
v 0.381086 0.029267 -0.083747
v 0.381086 0.025511 -0.083768
v 0.379978 0.025511 -0.083717
v 0.381086 0.029267 -0.083747
v 0.382121 0.029268 -0.083897
v 0.382121 0.025512 -0.083917
v 0.381086 0.025511 -0.083768
v 0.382121 0.029268 -0.083897
v 0.38308 0.029269 -0.084145
v 0.38308 0.025513 -0.084165
v 0.382121 0.025512 -0.083917
v 0.38308 0.029269 -0.084145
v 0.383956 0.029271 -0.084487
v 0.383956 0.025515 -0.084508
v 0.38308 0.025513 -0.084165
v 0.383956 0.029271 -0.084487
v 0.384747 0.029274 -0.084922
v 0.384747 0.025517 -0.084943
v 0.383956 0.025515 -0.084508
v 0.384747 0.029274 -0.084922
v 0.385448 0.029276 -0.085449
v 0.385448 0.02552 -0.085469
v 0.384747 0.025517 -0.084943
v 0.385448 0.029276 -0.085449
v 0.386053 0.02928 -0.086065
v 0.386053 0.025524 -0.086085
v 0.385448 0.02552 -0.085469
v 0.386053 0.02928 -0.086065
v 0.386558 0.029284 -0.086766
v 0.386558 0.025528 -0.086787
v 0.386053 0.025524 -0.086085
v 0.386558 0.029284 -0.086766
v 0.386959 0.029288 -0.087552
v 0.386959 0.025532 -0.087573
v 0.386558 0.025528 -0.086787
v 0.386959 0.029288 -0.087552
v 0.387251 0.029293 -0.088421
v 0.387251 0.025537 -0.088441
v 0.386959 0.025532 -0.087573
v 0.387251 0.029293 -0.088421
v 0.387429 0.029298 -0.089368
v 0.387429 0.025542 -0.089389
v 0.387251 0.025537 -0.088441
v 0.387429 0.029298 -0.089368
v 0.38749 0.029303 -0.090394
v 0.38749 0.025547 -0.090415
v 0.387429 0.025542 -0.089389
v 0.38749 0.029303 -0.090394
v 0.387454 0.029308 -0.091181
v 0.387454 0.025552 -0.091201
v 0.38749 0.025547 -0.090415
v 0.387454 0.029308 -0.091181
v 0.387339 0.029312 -0.091964
v 0.387339 0.025556 -0.091984
v 0.387454 0.025552 -0.091201
v 0.387339 0.029312 -0.091964
v 0.387139 0.029316 -0.092732
v 0.387139 0.02556 -0.092753
v 0.387339 0.025556 -0.091984
v 0.387139 0.029316 -0.092732
v 0.386845 0.02932 -0.093474
v 0.386845 0.025564 -0.093494
v 0.387139 0.02556 -0.092753
v 0.386845 0.02932 -0.093474
v 0.386451 0.029324 -0.094175
v 0.386451 0.025568 -0.094196
v 0.386845 0.025564 -0.093494
v 0.386451 0.029324 -0.094175
v 0.385948 0.029327 -0.094824
v 0.385948 0.025571 -0.094844
v 0.386451 0.025568 -0.094196
v 0.385948 0.029327 -0.094824
v 0.38533 0.029331 -0.095407
v 0.38533 0.025575 -0.095427
v 0.385948 0.025571 -0.094844
v 0.38533 0.029331 -0.095407
v 0.384587 0.029333 -0.095913
v 0.384587 0.025577 -0.095933
v 0.38533 0.025575 -0.095427
v 0.384587 0.029333 -0.095913
v 0.383713 0.029336 -0.096328
v 0.383713 0.02558 -0.096349
v 0.384587 0.025577 -0.095933
v 0.383713 0.029336 -0.096328
v 0.382701 0.029337 -0.09664
v 0.382701 0.025581 -0.096661
v 0.383713 0.02558 -0.096349
v 0.382701 0.029337 -0.09664
v 0.381541 0.029338 -0.096837
v 0.381541 0.025582 -0.096858
v 0.382701 0.025581 -0.096661
v 0.381541 0.029338 -0.096837
v 0.380228 0.029339 -0.096905
v 0.380228 0.025583 -0.096925
v 0.381541 0.025582 -0.096858
v 0.380228 0.029339 -0.096905
v 0.373029 0.029339 -0.096905
v 0.373029 0.025583 -0.096925
v 0.380228 0.025583 -0.096925
v 0.373029 0.029339 -0.096905
v 0.373029 0.029267 -0.083696
v 0.373029 0.025511 -0.083717
v 0.373029 0.025583 -0.096925
v 0.373029 0.029267 -0.083696
v 0.379978 0.029267 -0.083696
v 0.379978 0.025511 -0.083717
v 0.373029 0.025511 -0.083717
vn -0 1 0.0055
vn -0 1 0.0054
vn -0 1 0.0055
vn -0 1 0.0054
vn 0.0001 1 0.0056
vn -0 1 0.0055
vn -0 1 0.0054
vn 0.0001 1 0.0056
vn 0.0001 1 0.0056
vn -0 1 0.0054
vn -0.0002 1 0.0049
vn 0.0001 1 0.0056
vn -0 1 0.0054
vn -0 1 0.0054
vn -0.0002 1 0.0049
vn -0 1 0.0054
vn -0 1 0.0056
vn -0 1 0.0054
vn -0 1 0.0054
vn -0 1 0.0057
vn -0 1 0.0056
vn -0 1 0.0054
vn -0 1 0.0053
vn -0 1 0.0057
vn -0 1 0.0054
vn -0 1 0.0053
vn -0 1 0.0053
vn -0 1 0.0054
vn -0 1 0.0056
vn -0 1 0.0053
vn -0 1 0.0056
vn -0 1 0.0055
vn -0 1 0.0053
vn -0 1 0.0055
vn -0 1 0.0054
vn -0 1 0.0054
vn -0 1 0.0052
vn -0 1 0.0055
vn -0 1 0.0056
vn -0.0001 1 0.0053
vn -0 1 0.0055
vn -0 1 0.0052
vn -0 1 0.0052
vn -0 1 0.0055
vn -0.0001 1 0.0053
vn -0 1 0.0052
vn -0 1 0.0055
vn -0 1 0.0055
vn -0 1 0.0054
vn -0 1 0.0055
vn -0 1 0.0052
vn 0.0001 1 0.0051
vn -0 1 0.0055
vn -0 1 0.0054
vn -0 1 0.0058
vn -0 1 0.0055
vn 0.0001 1 0.0051
vn -0 1 0.0058
vn -0 1 0.0055
vn -0 1 0.0055
vn -0 1 0.0056
vn -0 1 0.0055
vn -0 1 0.0058
vn -0.0001 1 0.0056
vn -0 1 0.0055
vn -0 1 0.0056
vn -0 1 0.0054
vn -0 1 0.0055
vn -0.0001 1 0.0056
vn -0 1 0.0054
vn -0 1 0.0052
vn -0 1 0.0055
vn -0.0001 1 0.0055
vn -0 1 0.0052
vn -0 1 0.0054
vn -0 1 0.0057
vn -0 1 0.0052
vn -0.0001 1 0.0055
vn -0 1 0.0057
vn -0 1 0.0055
vn -0 1 0.0052
vn -0.0001 1 0.0056
vn -0 1 0.0055
vn -0 1 0.0057
vn -0 1 0.0051
vn -0 1 0.0055
vn -0.0001 1 0.0056
vn -0 1 0.0051
vn 0.0001 1 0.0053
vn -0 1 0.0055
vn -0 1 0.0055
vn 0.0001 1 0.0053
vn -0 1 0.0051
vn -0 1 0.0055
vn -0 1 0.0055
vn 0.0001 1 0.0053
vn -0 1 0.0053
vn -0 1 0.0055
vn -0 1 0.0055
vn -0 1 0.0056
vn -0 1 0.0055
vn -0 1 0.0053
vn -0 1 0.0056
vn -0 1 0.0057
vn -0 1 0.0055
vn -0 1 0.0058
vn -0 1 0.0057
vn -0 1 0.0056
vn -0 1 0.0053
vn -0 1 0.0057
vn -0 1 0.0058
vn -0 1 0.0053
vn -0 1 0.0052
vn -0 1 0.0057
vn -0 1 0.0061
vn -0 1 0.0052
vn -0 1 0.0053
vn -0 1 0.0056
vn -0 1 0.0052
vn -0 1 0.0061
vn -0 1 0.006
vn -0 1 0.0052
vn -0 1 0.0056
vn -0 1 0.0056
vn -0 1 0.0052
vn -0 1 0.006
vn -0 1 0.0056
vn -0 1 0.0054
vn -0 1 0.0052
vn -0 1 0.0056
vn -0 1 0.0054
vn -0 1 0.0056
vn -0 1 0.0054
vn -0 1 0.0054
vn -0 1 0.0056
vn -0 1 0.0055
vn -0 1 0.0054
vn -0 1 0.0054
vn -0 1 0.0054
vn -0 1 0.0054
vn -0 1 0.0054
vn -0 1 0.0054
vn -0 1 0.0054
vn -0 1 0.0054
vn -0 1 0.0054
vn -0 1 0.005
vn -0 1 0.0054
vn -0 1 0.0054
vn -0 1 0.0056
vn -0 1 0.005
vn -0 1 0.0054
vn -0 1 0.0052
vn -0 1 0.0056
vn -0 1 0.0054
vn -0 1 0.0056
vn -0 1 0.0052
vn -0 1 0.0054
vn -0 1 0.0052
vn -0 1 0.0056
vn -0 1 0.0054
vn -0 1 0.0054
vn -0 1 0.0052
vn -0 1 0.0054
vn -0 1 0.005
vn -0 1 0.0054
vn -0 1 0.0055
vn -0 1 0.0055
vn -0 1 0.0054
vn -0 -1 -0.0054
vn -0 -1 -0.0055
vn -0 -1 -0.0055
vn -0.0001 -1 -0.0056
vn -0 -1 -0.0054
vn -0 -1 -0.0055
vn -0.0001 -1 -0.0056
vn -0 -1 -0.0054
vn -0.0001 -1 -0.0056
vn -0.0001 -1 -0.0055
vn -0 -1 -0.0054
vn -0.0001 -1 -0.0056
vn 0.0001 -1 -0.0052
vn -0 -1 -0.0054
vn -0.0001 -1 -0.0055
vn -0 -1 -0.0054
vn -0 -1 -0.0054
vn 0.0001 -1 -0.0052
vn -0 -1 -0.0057
vn -0 -1 -0.0054
vn -0 -1 -0.0054
vn -0 -1 -0.0056
vn -0 -1 -0.0054
vn -0 -1 -0.0057
vn -0 -1 -0.0053
vn -0 -1 -0.0054
vn -0 -1 -0.0056
vn -0 -1 -0.0056
vn -0 -1 -0.0054
vn -0 -1 -0.0053
vn -0 -1 -0.0055
vn -0 -1 -0.0056
vn -0 -1 -0.0053
vn -0 -1 -0.0054
vn -0 -1 -0.0055
vn -0 -1 -0.0054
vn -0 -1 -0.0055
vn -0 -1 -0.0053
vn -0 -1 -0.0056
vn -0 -1 -0.0055
vn 0.0001 -1 -0.0053
vn -0 -1 -0.0053
vn -0 -1 -0.0055
vn -0 -1 -0.0054
vn 0.0001 -1 -0.0053
vn -0 -1 -0.0055
vn -0 -1 -0.0054
vn -0 -1 -0.0055
vn -0 -1 -0.0055
vn -0 -1 -0.0055
vn -0 -1 -0.0054
vn -0 -1 -0.0055
vn -0.0001 -1 -0.005
vn -0 -1 -0.0055
vn -0 -1 -0.0055
vn -0 -1 -0.0055
vn -0.0001 -1 -0.005
vn -0 -1 -0.0055
vn -0 -1 -0.0055
vn -0 -1 -0.0055
vn -0 -1 -0.0055
vn -0 -1 -0.0052
vn -0 -1 -0.0055
vn -0 -1 -0.0055
vn 0.0001 -1 -0.0056
vn -0 -1 -0.0052
vn -0 -1 -0.0055
vn -0 -1 -0.0054
vn 0.0001 -1 -0.0056
vn -0 -1 -0.0055
vn -0 -1 -0.0054
vn -0 -1 -0.0055
vn -0 -1 -0.0055
vn -0 -1 -0.0052
vn -0 -1 -0.0054
vn -0 -1 -0.0055
vn -0 -1 -0.0057
vn -0 -1 -0.0052
vn -0 -1 -0.0055
vn -0 -1 -0.0057
vn -0 -1 -0.0055
vn -0 -1 -0.0055
vn 0.0001 -1 -0.0056
vn -0 -1 -0.0057
vn -0 -1 -0.0055
vn -0 -1 -0.0051
vn 0.0001 -1 -0.0056
vn -0.0001 -1 -0.0056
vn -0 -1 -0.0051
vn -0 -1 -0.0055
vn -0.0001 -1 -0.0056
vn -0.0001 -1 -0.0056
vn -0 -1 -0.0051
vn -0.0001 -1 -0.0056
vn -0.0001 -1 -0.0056
vn -0.0001 -1 -0.0056
vn -0.0001 -1 -0.0056
vn -0.0001 -1 -0.0054
vn -0.0001 -1 -0.0056
vn -0.0001 -1 -0.0056
vn -0.0001 -1 -0.0055
vn -0.0001 -1 -0.0054
vn -0.0001 -1 -0.0053
vn -0.0001 -1 -0.0055
vn -0.0001 -1 -0.0056
vn -0.0001 -1 -0.0053
vn -0 -1 -0.0058
vn -0.0001 -1 -0.0055
vn -0.0001 -1 -0.0053
vn 0.0001 -1 -0.0058
vn -0 -1 -0.0058
vn -0 -1 -0.0055
vn 0.0001 -1 -0.0058
vn -0.0001 -1 -0.0053
vn -0 -1 -0.0055
vn -0 -1 -0.0053
vn 0.0001 -1 -0.0058
vn -0 -1 -0.0055
vn -0 -1 -0.0055
vn -0 -1 -0.0053
vn -0 -1 -0.0055
vn -0 -1 -0.0054
vn -0 -1 -0.0055
vn -0 -1 -0.0055
vn -0 -1 -0.0056
vn -0 -1 -0.0054
vn -0 -1 -0.0054
vn -0 -1 -0.0056
vn -0 -1 -0.0055
vn -0 -1 -0.0054
vn -0 -1 -0.0056
vn -0 -1 -0.0056
vn -0 -1 -0.0054
vn -0 -1 -0.0054
vn -0 -1 -0.0056
vn -0 -1 -0.0054
vn -0 -1 -0.0055
vn -0 -1 -0.0054
vn -0 -1 -0.0054
vn -0 -1 -0.0054
vn -0 -1 -0.0054
vn -0 -1 -0.0054
vn -0 -1 -0.0054
vn -0 -1 -0.0054
vn -0 -1 -0.0053
vn -0 -1 -0.0054
vn -0 -1 -0.0054
vn -0 -1 -0.0054
vn -0 -1 -0.0054
vn -0 -1 -0.0053
vn -0 -1 -0.0051
vn -0 -1 -0.0054
vn -0 -1 -0.0054
vn -0 -1 -0.0059
vn -0 -1 -0.0054
vn -0 -1 -0.0051
vn -0 -1 -0.0052
vn -0 -1 -0.0054
vn -0 -1 -0.0059
vn -0 -1 -0.0055
vn -0 -1 -0.0054
vn -0 -1 -0.0052
vn -0 -1 -0.0055
vn -0 -1 -0.0054
vn -0 -1 -0.0055
vn -0 -1 -0.0055
vn -0 -1 -0.0055
vn -0 -1 -0.0054
vn 0.1054 0.0054 -0.9944
vn 0.2198 0.0053 -0.9755
vn 0.2198 0.0053 -0.9755
vn 0.1054 0.0054 -0.9944
vn 0.2198 0.0053 -0.9755
vn 0.3429 0.0051 -0.9394
vn 0.3425 0.0051 -0.9395
vn 0.2198 0.0053 -0.9755
vn 0.3429 0.0051 -0.9394
vn 0.4689 0.0048 -0.8832
vn 0.4689 0.0048 -0.8832
vn 0.3425 0.0051 -0.9395
vn 0.4689 0.0048 -0.8832
vn 0.5923 0.0043 -0.8057
vn 0.5923 0.0043 -0.8057
vn 0.4689 0.0048 -0.8832
vn 0.5923 0.0043 -0.8057
vn 0.7055 0.0038 -0.7087
vn 0.7055 0.0038 -0.7087
vn 0.5923 0.0043 -0.8057
vn 0.7055 0.0038 -0.7087
vn 0.8029 0.0032 -0.5961
vn 0.8029 0.0032 -0.5961
vn 0.7055 0.0038 -0.7087
vn 0.8029 0.0032 -0.5961
vn 0.8805 0.0025 -0.4741
vn 0.8805 0.0025 -0.4741
vn 0.8029 0.0032 -0.5961
vn 0.8805 0.0025 -0.4741
vn 0.9369 0.002 -0.3496
vn 0.937 0.0019 -0.3493
vn 0.8805 0.0025 -0.4741
vn 0.9369 0.002 -0.3496
vn 0.9739 0.0012 -0.227
vn 0.9739 0.0012 -0.227
vn 0.937 0.0019 -0.3493
vn 0.9739 0.0012 -0.227
vn 0.9939 0.0006 -0.1101
vn 0.9939 0.0006 -0.1099
vn 0.9739 0.0012 -0.227
vn 0.9939 0.0006 -0.1101
vn 1 -0 0.0018
vn 1 -0 0.0018
vn 0.9939 0.0006 -0.1099
vn 1 -0 0.0018
vn 0.993 -0.0006 0.1184
vn 0.993 -0.0006 0.1184
vn 1 -0 0.0018
vn 0.993 -0.0006 0.1184
vn 0.9698 -0.0013 0.2438
vn 0.9698 -0.0013 0.2438
vn 0.993 -0.0006 0.1184
vn 0.9698 -0.0013 0.2438
vn 0.9273 -0.002 0.3743
vn 0.9273 -0.002 0.3743
vn 0.9698 -0.0013 0.2438
vn 0.9273 -0.002 0.3743
vn 0.8629 -0.0029 0.5053
vn 0.863 -0.0028 0.5052
vn 0.9273 -0.002 0.3743
vn 0.8629 -0.0029 0.5053
vn 0.7775 -0.0035 0.6289
vn 0.7775 -0.0035 0.6289
vn 0.863 -0.0028 0.5052
vn 0.7775 -0.0035 0.6289
vn 0.6734 -0.0041 0.7392
vn 0.6734 -0.0041 0.7392
vn 0.7775 -0.0035 0.6289
vn 0.6734 -0.0041 0.7392
vn 0.5567 -0.0045 0.8307
vn 0.5567 -0.0045 0.8307
vn 0.6734 -0.0041 0.7392
vn 0.5567 -0.0045 0.8307
vn 0.4348 -0.005 0.9005
vn 0.4348 -0.005 0.9005
vn 0.5567 -0.0045 0.8307
vn 0.4348 -0.005 0.9005
vn 0.3142 -0.005 0.9494
vn 0.3142 -0.0053 0.9493
vn 0.4348 -0.005 0.9005
vn 0.3142 -0.005 0.9494
vn 0.1999 -0.0054 0.9798
vn 0.1998 -0.0054 0.9798
vn 0.3142 -0.0053 0.9493
vn 0.1999 -0.0054 0.9798
vn 0.0952 -0.0054 0.9954
vn 0.0952 -0.0054 0.9954
vn 0.1998 -0.0054 0.9798
vn 0.0952 -0.0054 0.9954
vn 0.0226 -0.0053 0.9997
vn 0.0226 -0.0057 0.9997
vn 0.0952 -0.0054 0.9954
vn 0.0226 -0.0053 0.9997
vn 0.7071 -0.0041 0.7071
vn 0.7071 -0.0038 0.7071
vn 0.0226 -0.0057 0.9997
vn 0.7071 -0.0041 0.7071
vn 0.7071 -0.0039 0.7071
vn 0.7071 -0.0039 0.7071
vn 0.7071 -0.0038 0.7071
vn 0.7071 -0.0039 0.7071
vn -0.7071 -0.004 0.7071
vn -0.7071 -0.004 0.7071
vn 0.7071 -0.0039 0.7071
vn -0.7071 -0.004 0.7071
vn -0.7071 0.004 -0.7071
vn -0.7071 0.004 -0.7071
vn -0.7071 -0.004 0.7071
vn -0.7071 0.004 -0.7071
vn 0.0252 0.0055 -0.9997
vn 0.0252 0.0055 -0.9997
vn -0.7071 0.004 -0.7071
vn 0.0252 0.0055 -0.9997
vn 0.1054 0.0054 -0.9944
vn 0.1054 0.0054 -0.9944
vn 0.0252 0.0055 -0.9997
vn -0.0227 0.0055 -0.9997
vn -0.0946 0.0055 -0.9955
vn -0.0946 0.0055 -0.9955
vn -0.0227 0.0055 -0.9997
vn -0.0946 0.0055 -0.9955
vn -0.197 0.0053 -0.9804
vn -0.197 0.0053 -0.9804
vn -0.0946 0.0055 -0.9955
vn -0.197 0.0053 -0.9804
vn -0.3078 0.0051 -0.9514
vn -0.3078 0.0051 -0.9514
vn -0.197 0.0053 -0.9804
vn -0.3078 0.0051 -0.9514
vn -0.4239 0.005 -0.9057
vn -0.4239 0.005 -0.9057
vn -0.3078 0.0051 -0.9514
vn -0.4239 0.005 -0.9057
vn -0.5426 0.0046 -0.84
vn -0.5426 0.0046 -0.84
vn -0.4239 0.005 -0.9057
vn -0.5426 0.0046 -0.84
vn -0.6589 0.0041 -0.7523
vn -0.6588 0.0041 -0.7523
vn -0.5426 0.0046 -0.84
vn -0.6589 0.0041 -0.7523
vn -0.7648 0.0035 -0.6443
vn -0.7647 0.0035 -0.6444
vn -0.6588 0.0041 -0.7523
vn -0.7648 0.0035 -0.6443
vn -0.8536 0.0029 -0.5208
vn -0.8537 0.0029 -0.5208
vn -0.7647 0.0035 -0.6444
vn -0.8536 0.0029 -0.5208
vn -0.9218 0.0021 -0.3876
vn -0.9218 0.0021 -0.3876
vn -0.8537 0.0029 -0.5208
vn -0.9218 0.0021 -0.3876
vn -0.9677 0.0014 -0.2523
vn -0.9675 0.0014 -0.2529
vn -0.9218 0.0021 -0.3876
vn -0.9677 0.0014 -0.2523
vn -0.9925 0.0007 -0.1223
vn -0.9925 0.0007 -0.1222
vn -0.9675 0.0014 -0.2529
vn -0.9925 0.0007 -0.1223
vn -1 -0 -0.0068
vn -1 -0 -0.0068
vn -0.9925 0.0007 -0.1222
vn -1 -0 -0.0068
vn -0.9954 -0.0005 0.0957
vn -0.9954 -0.0005 0.0956
vn -1 -0 -0.0068
vn -0.9954 -0.0005 0.0957
vn -0.98 -0.0011 0.1989
vn -0.98 -0.0011 0.1989
vn -0.9954 -0.0005 0.0956
vn -0.98 -0.0011 0.1989
vn -0.9505 -0.0017 0.3108
vn -0.9505 -0.0017 0.3108
vn -0.98 -0.0011 0.1989
vn -0.9505 -0.0017 0.3108
vn -0.903 -0.0023 0.4297
vn -0.903 -0.0022 0.4297
vn -0.9505 -0.0017 0.3108
vn -0.903 -0.0023 0.4297
vn -0.8333 -0.003 0.5528
vn -0.8333 -0.003 0.5528
vn -0.903 -0.0022 0.4297
vn -0.8333 -0.003 0.5528
vn -0.7404 -0.0036 0.6722
vn -0.7404 -0.0036 0.6721
vn -0.8333 -0.003 0.5528
vn -0.7404 -0.0036 0.6722
vn -0.6265 -0.0041 0.7794
vn -0.6265 -0.0041 0.7794
vn -0.7404 -0.0036 0.6721
vn -0.6265 -0.0041 0.7794
vn -0.4976 -0.0047 0.8674
vn -0.4976 -0.0047 0.8674
vn -0.6265 -0.0041 0.7794
vn -0.4976 -0.0047 0.8674
vn -0.3629 -0.0052 0.9318
vn -0.3629 -0.0052 0.9318
vn -0.4976 -0.0047 0.8674
vn -0.3629 -0.0052 0.9318
vn -0.2315 -0.0054 0.9728
vn -0.2315 -0.0051 0.9728
vn -0.3629 -0.0052 0.9318
vn -0.2315 -0.0054 0.9728
vn -0.1096 -0.0055 0.994
vn -0.1096 -0.0055 0.994
vn -0.2315 -0.0051 0.9728
vn -0.1096 -0.0055 0.994
vn -0.0262 -0.0054 0.9996
vn -0.026 -0.0054 0.9996
vn -0.1096 -0.0055 0.994
vn -0.0262 -0.0054 0.9996
vn 0.7071 -0.0038 0.7071
vn 0.7071 -0.0038 0.7071
vn -0.026 -0.0054 0.9996
vn 0.7071 -0.0038 0.7071
vn 0.7071 0.004 -0.7071
vn 0.7071 0.004 -0.7071
vn 0.7071 -0.0038 0.7071
vn 0.7071 0.004 -0.7071
vn -0.0227 0.0055 -0.9997
vn -0.0227 0.0055 -0.9997
vn 0.7071 0.004 -0.7071
vt 0.472727 1
vt 0.981818 1
vt 0.490909 1
vt 0.981818 1
vt 0.509091 1
vt 0.490909 1
vt 0.981818 1
vt 0 1
vt 0.509091 1
vt 0.981818 1
vt 0.018182 1
vt 0 1
vt 0.981818 1
vt 0.036364 1
vt 0.018182 1
vt 0.981818 1
vt 0.054545 1
vt 0.036364 1
vt 0.981818 1
vt 0.072727 1
vt 0.054545 1
vt 0.981818 1
vt 0.090909 1
vt 0.072727 1
vt 0.981818 1
vt 0.109091 1
vt 0.090909 1
vt 0.981818 1
vt 0.963636 1
vt 0.109091 1
vt 0.963636 1
vt 0.127273 1
vt 0.109091 1
vt 0.472727 1
vt 1 1
vt 0.981818 1
vt 0.945455 1
vt 0.127273 1
vt 0.963636 1
vt 0.927273 1
vt 0.127273 1
vt 0.945455 1
vt 0.909091 1
vt 0.127273 1
vt 0.927273 1
vt 0.909091 1
vt 0.145455 1
vt 0.127273 1
vt 0.890909 1
vt 0.145455 1
vt 0.909091 1
vt 0.872727 1
vt 0.145455 1
vt 0.890909 1
vt 0.854545 1
vt 0.145455 1
vt 0.872727 1
vt 0.854545 1
vt 0.163636 1
vt 0.145455 1
vt 0.836364 1
vt 0.163636 1
vt 0.854545 1
vt 0.818182 1
vt 0.163636 1
vt 0.836364 1
vt 0.8 1
vt 0.163636 1
vt 0.818182 1
vt 0.8 1
vt 0.181818 1
vt 0.163636 1
vt 0.781818 1
vt 0.181818 1
vt 0.8 1
vt 0.763636 1
vt 0.181818 1
vt 0.781818 1
vt 0.763636 1
vt 0.2 1
vt 0.181818 1
vt 0.745455 1
vt 0.2 1
vt 0.763636 1
vt 0.727273 1
vt 0.2 1
vt 0.745455 1
vt 0.727273 1
vt 0.218182 1
vt 0.2 1
vt 0.709091 1
vt 0.218182 1
vt 0.727273 1
vt 0.709091 1
vt 0.236364 1
vt 0.218182 1
vt 0.690909 1
vt 0.236364 1
vt 0.709091 1
vt 0.672727 1
vt 0.236364 1
vt 0.690909 1
vt 0.672727 1
vt 0.254545 1
vt 0.236364 1
vt 0.654545 1
vt 0.254545 1
vt 0.672727 1
vt 0.636364 1
vt 0.254545 1
vt 0.654545 1
vt 0.636364 1
vt 0.272727 1
vt 0.254545 1
vt 0.618182 1
vt 0.272727 1
vt 0.636364 1
vt 0.6 1
vt 0.272727 1
vt 0.618182 1
vt 0.581818 1
vt 0.272727 1
vt 0.6 1
vt 0.563636 1
vt 0.272727 1
vt 0.581818 1
vt 0.563636 1
vt 0.290909 1
vt 0.272727 1
vt 0.545455 1
vt 0.290909 1
vt 0.563636 1
vt 0.527273 1
vt 0.290909 1
vt 0.545455 1
vt 0.472727 1
vt 0.436364 1
vt 1 1
vt 0.436364 1
vt 0.527273 1
vt 1 1
vt 0.436364 1
vt 0.290909 1
vt 0.527273 1
vt 0.436364 1
vt 0.309091 1
vt 0.290909 1
vt 0.436364 1
vt 0.327273 1
vt 0.309091 1
vt 0.436364 1
vt 0.345455 1
vt 0.327273 1
vt 0.436364 1
vt 0.363636 1
vt 0.345455 1
vt 0.436364 1
vt 0.381818 1
vt 0.363636 1
vt 0.436364 1
vt 0.4 1
vt 0.381818 1
vt 0.436364 1
vt 0.418182 1
vt 0.4 1
vt 0.472727 1
vt 0.454545 1
vt 0.436364 1
vt 0.981818 1
vt 0.472727 1
vt 0.490909 1
vt 0.509091 1
vt 0.981818 1
vt 0.490909 1
vt 0 1
vt 0.981818 1
vt 0.509091 1
vt 0.018182 1
vt 0.981818 1
vt 0 1
vt 0.036364 1
vt 0.981818 1
vt 0.018182 1
vt 0.054545 1
vt 0.981818 1
vt 0.036364 1
vt 0.072727 1
vt 0.981818 1
vt 0.054545 1
vt 0.090909 1
vt 0.981818 1
vt 0.072727 1
vt 0.109091 1
vt 0.981818 1
vt 0.090909 1
vt 0.963636 1
vt 0.981818 1
vt 0.109091 1
vt 0.127273 1
vt 0.963636 1
vt 0.109091 1
vt 1 1
vt 0.472727 1
vt 0.981818 1
vt 0.127273 1
vt 0.945455 1
vt 0.963636 1
vt 0.127273 1
vt 0.927273 1
vt 0.945455 1
vt 0.127273 1
vt 0.909091 1
vt 0.927273 1
vt 0.145455 1
vt 0.909091 1
vt 0.127273 1
vt 0.145455 1
vt 0.890909 1
vt 0.909091 1
vt 0.145455 1
vt 0.872727 1
vt 0.890909 1
vt 0.145455 1
vt 0.854545 1
vt 0.872727 1
vt 0.163636 1
vt 0.854545 1
vt 0.145455 1
vt 0.163636 1
vt 0.836364 1
vt 0.854545 1
vt 0.163636 1
vt 0.818182 1
vt 0.836364 1
vt 0.163636 1
vt 0.8 1
vt 0.818182 1
vt 0.181818 1
vt 0.8 1
vt 0.163636 1
vt 0.181818 1
vt 0.781818 1
vt 0.8 1
vt 0.181818 1
vt 0.763636 1
vt 0.781818 1
vt 0.2 1
vt 0.763636 1
vt 0.181818 1
vt 0.2 1
vt 0.745455 1
vt 0.763636 1
vt 0.2 1
vt 0.727273 1
vt 0.745455 1
vt 0.218182 1
vt 0.727273 1
vt 0.2 1
vt 0.218182 1
vt 0.709091 1
vt 0.727273 1
vt 0.236364 1
vt 0.709091 1
vt 0.218182 1
vt 0.236364 1
vt 0.690909 1
vt 0.709091 1
vt 0.236364 1
vt 0.672727 1
vt 0.690909 1
vt 0.254545 1
vt 0.672727 1
vt 0.236364 1
vt 0.254545 1
vt 0.654545 1
vt 0.672727 1
vt 0.254545 1
vt 0.636364 1
vt 0.654545 1
vt 0.272727 1
vt 0.636364 1
vt 0.254545 1
vt 0.272727 1
vt 0.618182 1
vt 0.636364 1
vt 0.272727 1
vt 0.6 1
vt 0.618182 1
vt 0.272727 1
vt 0.581818 1
vt 0.6 1
vt 0.272727 1
vt 0.563636 1
vt 0.581818 1
vt 0.290909 1
vt 0.563636 1
vt 0.272727 1
vt 0.290909 1
vt 0.545455 1
vt 0.563636 1
vt 0.290909 1
vt 0.527273 1
vt 0.545455 1
vt 0.436364 1
vt 0.472727 1
vt 1 1
vt 0.527273 1
vt 0.436364 1
vt 1 1
vt 0.290909 1
vt 0.436364 1
vt 0.527273 1
vt 0.309091 1
vt 0.436364 1
vt 0.290909 1
vt 0.327273 1
vt 0.436364 1
vt 0.309091 1
vt 0.345455 1
vt 0.436364 1
vt 0.327273 1
vt 0.363636 1
vt 0.436364 1
vt 0.345455 1
vt 0.381818 1
vt 0.436364 1
vt 0.363636 1
vt 0.4 1
vt 0.436364 1
vt 0.381818 1
vt 0.418182 1
vt 0.436364 1
vt 0.4 1
vt 0.454545 1
vt 0.472727 1
vt 0.436364 1
vt 0 0
vt 0.034483 0
vt 0.034483 1
vt 0 1
vt 0.034483 0
vt 0.068966 0
vt 0.068966 1
vt 0.034483 1
vt 0.068966 0
vt 0.103448 0
vt 0.103448 1
vt 0.068966 1
vt 0.103448 0
vt 0.137931 0
vt 0.137931 1
vt 0.103448 1
vt 0.137931 0
vt 0.172414 0
vt 0.172414 1
vt 0.137931 1
vt 0.172414 0
vt 0.206897 0
vt 0.206897 1
vt 0.172414 1
vt 0.206897 0
vt 0.241379 0
vt 0.241379 1
vt 0.206897 1
vt 0.241379 0
vt 0.275862 0
vt 0.275862 1
vt 0.241379 1
vt 0.275862 0
vt 0.310345 0
vt 0.310345 1
vt 0.275862 1
vt 0.310345 0
vt 0.344828 0
vt 0.344828 1
vt 0.310345 1
vt 0.344828 0
vt 0.37931 0
vt 0.37931 1
vt 0.344828 1
vt 0.37931 0
vt 0.413793 0
vt 0.413793 1
vt 0.37931 1
vt 0.413793 0
vt 0.448276 0
vt 0.448276 1
vt 0.413793 1
vt 0.448276 0
vt 0.482759 0
vt 0.482759 1
vt 0.448276 1
vt 0.482759 0
vt 0.517241 0
vt 0.517241 1
vt 0.482759 1
vt 0.517241 0
vt 0.551724 0
vt 0.551724 1
vt 0.517241 1
vt 0.551724 0
vt 0.586207 0
vt 0.586207 1
vt 0.551724 1
vt 0.586207 0
vt 0.62069 0
vt 0.62069 1
vt 0.586207 1
vt 0.62069 0
vt 0.655172 0
vt 0.655172 1
vt 0.62069 1
vt 0.655172 0
vt 0.689655 0
vt 0.689655 1
vt 0.655172 1
vt 0.689655 0
vt 0.724138 0
vt 0.724138 1
vt 0.689655 1
vt 0.724138 0
vt 0.758621 0
vt 0.758621 1
vt 0.724138 1
vt 0.758621 0
vt 0.793103 0
vt 0.793103 1
vt 0.758621 1
vt 0.793103 0
vt 0.827586 0
vt 0.827586 1
vt 0.793103 1
vt 0.827586 0
vt 0.862069 0
vt 0.862069 1
vt 0.827586 1
vt 0.862069 0
vt 0.896552 0
vt 0.896552 1
vt 0.862069 1
vt 0.896552 0
vt 0.931035 0
vt 0.931035 1
vt 0.896552 1
vt 0.931035 0
vt 0.965517 0
vt 0.965517 1
vt 0.931035 1
vt 0.965517 0
vt 1 0
vt 1 1
vt 0.965517 1
vt 0 0
vt 0.037037 0
vt 0.037037 1
vt 0 1
vt 0.037037 0
vt 0.074074 0
vt 0.074074 1
vt 0.037037 1
vt 0.074074 0
vt 0.111111 0
vt 0.111111 1
vt 0.074074 1
vt 0.111111 0
vt 0.148148 0
vt 0.148148 1
vt 0.111111 1
vt 0.148148 0
vt 0.185185 0
vt 0.185185 1
vt 0.148148 1
vt 0.185185 0
vt 0.222222 0
vt 0.222222 1
vt 0.185185 1
vt 0.222222 0
vt 0.259259 0
vt 0.259259 1
vt 0.222222 1
vt 0.259259 0
vt 0.296296 0
vt 0.296296 1
vt 0.259259 1
vt 0.296296 0
vt 0.333333 0
vt 0.333333 1
vt 0.296296 1
vt 0.333333 0
vt 0.37037 0
vt 0.37037 1
vt 0.333333 1
vt 0.37037 0
vt 0.407407 0
vt 0.407407 1
vt 0.37037 1
vt 0.407407 0
vt 0.444444 0
vt 0.444444 1
vt 0.407407 1
vt 0.444444 0
vt 0.481481 0
vt 0.481481 1
vt 0.444444 1
vt 0.481481 0
vt 0.518519 0
vt 0.518519 1
vt 0.481481 1
vt 0.518519 0
vt 0.555556 0
vt 0.555556 1
vt 0.518519 1
vt 0.555556 0
vt 0.592593 0
vt 0.592593 1
vt 0.555556 1
vt 0.592593 0
vt 0.62963 0
vt 0.62963 1
vt 0.592593 1
vt 0.62963 0
vt 0.666667 0
vt 0.666667 1
vt 0.62963 1
vt 0.666667 0
vt 0.703704 0
vt 0.703704 1
vt 0.666667 1
vt 0.703704 0
vt 0.740741 0
vt 0.740741 1
vt 0.703704 1
vt 0.740741 0
vt 0.777778 0
vt 0.777778 1
vt 0.740741 1
vt 0.777778 0
vt 0.814815 0
vt 0.814815 1
vt 0.777778 1
vt 0.814815 0
vt 0.851852 0
vt 0.851852 1
vt 0.814815 1
vt 0.851852 0
vt 0.888889 0
vt 0.888889 1
vt 0.851852 1
vt 0.888889 0
vt 0.925926 0
vt 0.925926 1
vt 0.888889 1
vt 0.925926 0
vt 0.962963 0
vt 0.962963 1
vt 0.925926 1
vt 0.962963 0
vt 1 0
vt 1 1
vt 0.962963 1
s off
f 1/1/1 2/2/2 3/3/3
f 4/4/4 5/5/5 6/6/6
f 7/7/7 8/8/8 9/9/9
f 10/10/10 11/11/11 12/12/12
f 13/13/13 14/14/14 15/15/15
f 16/16/16 17/17/17 18/18/18
f 19/19/19 20/20/20 21/21/21
f 22/22/22 23/23/23 24/24/24
f 25/25/25 26/26/26 27/27/27
f 28/28/28 29/29/29 30/30/30
f 31/31/31 32/32/32 33/33/33
f 34/34/34 35/35/35 36/36/36
f 37/37/37 38/38/38 39/39/39
f 40/40/40 41/41/41 42/42/42
f 43/43/43 44/44/44 45/45/45
f 46/46/46 47/47/47 48/48/48
f 49/49/49 50/50/50 51/51/51
f 52/52/52 53/53/53 54/54/54
f 55/55/55 56/56/56 57/57/57
f 58/58/58 59/59/59 60/60/60
f 61/61/61 62/62/62 63/63/63
f 64/64/64 65/65/65 66/66/66
f 67/67/67 68/68/68 69/69/69
f 70/70/70 71/71/71 72/72/72
f 73/73/73 74/74/74 75/75/75
f 76/76/76 77/77/77 78/78/78
f 79/79/79 80/80/80 81/81/81
f 82/82/82 83/83/83 84/84/84
f 85/85/85 86/86/86 87/87/87
f 88/88/88 89/89/89 90/90/90
f 91/91/91 92/92/92 93/93/93
f 94/94/94 95/95/95 96/96/96
f 97/97/97 98/98/98 99/99/99
f 100/100/100 101/101/101 102/102/102
f 103/103/103 104/104/104 105/105/105
f 106/106/106 107/107/107 108/108/108
f 109/109/109 110/110/110 111/111/111
f 112/112/112 113/113/113 114/114/114
f 115/115/115 116/116/116 117/117/117
f 118/118/118 119/119/119 120/120/120
f 121/121/121 122/122/122 123/123/123
f 124/124/124 125/125/125 126/126/126
f 127/127/127 128/128/128 129/129/129
f 130/130/130 131/131/131 132/132/132
f 133/133/133 134/134/134 135/135/135
f 136/136/136 137/137/137 138/138/138
f 139/139/139 140/140/140 141/141/141
f 142/142/142 143/143/143 144/144/144
f 145/145/145 146/146/146 147/147/147
f 148/148/148 149/149/149 150/150/150
f 151/151/151 152/152/152 153/153/153
f 154/154/154 155/155/155 156/156/156
f 157/157/157 158/158/158 159/159/159
f 160/160/160 161/161/161 162/162/162
f 163/163/163 164/164/164 165/165/165
f 166/166/166 167/167/167 168/168/168
f 169/169/169 170/170/170 171/171/171
f 172/172/172 173/173/173 174/174/174
f 175/175/175 176/176/176 177/177/177
f 178/178/178 179/179/179 180/180/180
f 181/181/181 182/182/182 183/183/183
f 184/184/184 185/185/185 186/186/186
f 187/187/187 188/188/188 189/189/189
f 190/190/190 191/191/191 192/192/192
f 193/193/193 194/194/194 195/195/195
f 196/196/196 197/197/197 198/198/198
f 199/199/199 200/200/200 201/201/201
f 202/202/202 203/203/203 204/204/204
f 205/205/205 206/206/206 207/207/207
f 208/208/208 209/209/209 210/210/210
f 211/211/211 212/212/212 213/213/213
f 214/214/214 215/215/215 216/216/216
f 217/217/217 218/218/218 219/219/219
f 220/220/220 221/221/221 222/222/222
f 223/223/223 224/224/224 225/225/225
f 226/226/226 227/227/227 228/228/228
f 229/229/229 230/230/230 231/231/231
f 232/232/232 233/233/233 234/234/234
f 235/235/235 236/236/236 237/237/237
f 238/238/238 239/239/239 240/240/240
f 241/241/241 242/242/242 243/243/243
f 244/244/244 245/245/245 246/246/246
f 247/247/247 248/248/248 249/249/249
f 250/250/250 251/251/251 252/252/252
f 253/253/253 254/254/254 255/255/255
f 256/256/256 257/257/257 258/258/258
f 259/259/259 260/260/260 261/261/261
f 262/262/262 263/263/263 264/264/264
f 265/265/265 266/266/266 267/267/267
f 268/268/268 269/269/269 270/270/270
f 271/271/271 272/272/272 273/273/273
f 274/274/274 275/275/275 276/276/276
f 277/277/277 278/278/278 279/279/279
f 280/280/280 281/281/281 282/282/282
f 283/283/283 284/284/284 285/285/285
f 286/286/286 287/287/287 288/288/288
f 289/289/289 290/290/290 291/291/291
f 292/292/292 293/293/293 294/294/294
f 295/295/295 296/296/296 297/297/297
f 298/298/298 299/299/299 300/300/300
f 301/301/301 302/302/302 303/303/303
f 304/304/304 305/305/305 306/306/306
f 307/307/307 308/308/308 309/309/309
f 310/310/310 311/311/311 312/312/312
f 313/313/313 314/314/314 315/315/315
f 316/316/316 317/317/317 318/318/318
f 319/319/319 320/320/320 321/321/321
f 322/322/322 323/323/323 324/324/324
f 325/325/325 326/326/326 327/327/327
f 328/328/328 329/329/329 330/330/330
f 331/331/331 332/332/332 333/333/333
f 334/334/334 335/335/335 336/336/336
f 337/337/337 338/338/338 339/339/339
f 337/337/337 339/339/339 340/340/340
f 341/341/341 342/342/342 343/343/343
f 341/341/341 343/343/343 344/344/344
f 345/345/345 346/346/346 347/347/347
f 345/345/345 347/347/347 348/348/348
f 349/349/349 350/350/350 351/351/351
f 349/349/349 351/351/351 352/352/352
f 353/353/353 354/354/354 355/355/355
f 353/353/353 355/355/355 356/356/356
f 357/357/357 358/358/358 359/359/359
f 357/357/357 359/359/359 360/360/360
f 361/361/361 362/362/362 363/363/363
f 361/361/361 363/363/363 364/364/364
f 365/365/365 366/366/366 367/367/367
f 365/365/365 367/367/367 368/368/368
f 369/369/369 370/370/370 371/371/371
f 369/369/369 371/371/371 372/372/372
f 373/373/373 374/374/374 375/375/375
f 373/373/373 375/375/375 376/376/376
f 377/377/377 378/378/378 379/379/379
f 377/377/377 379/379/379 380/380/380
f 381/381/381 382/382/382 383/383/383
f 381/381/381 383/383/383 384/384/384
f 385/385/385 386/386/386 387/387/387
f 385/385/385 387/387/387 388/388/388
f 389/389/389 390/390/390 391/391/391
f 389/389/389 391/391/391 392/392/392
f 393/393/393 394/394/394 395/395/395
f 393/393/393 395/395/395 396/396/396
f 397/397/397 398/398/398 399/399/399
f 397/397/397 399/399/399 400/400/400
f 401/401/401 402/402/402 403/403/403
f 401/401/401 403/403/403 404/404/404
f 405/405/405 406/406/406 407/407/407
f 405/405/405 407/407/407 408/408/408
f 409/409/409 410/410/410 411/411/411
f 409/409/409 411/411/411 412/412/412
f 413/413/413 414/414/414 415/415/415
f 413/413/413 415/415/415 416/416/416
f 417/417/417 418/418/418 419/419/419
f 417/417/417 419/419/419 420/420/420
f 421/421/421 422/422/422 423/423/423
f 421/421/421 423/423/423 424/424/424
f 425/425/425 426/426/426 427/427/427
f 425/425/425 427/427/427 428/428/428
f 429/429/429 430/430/430 431/431/431
f 429/429/429 431/431/431 432/432/432
f 433/433/433 434/434/434 435/435/435
f 433/433/433 435/435/435 436/436/436
f 437/437/437 438/438/438 439/439/439
f 437/437/437 439/439/439 440/440/440
f 441/441/441 442/442/442 443/443/443
f 441/441/441 443/443/443 444/444/444
f 445/445/445 446/446/446 447/447/447
f 445/445/445 447/447/447 448/448/448
f 449/449/449 450/450/450 451/451/451
f 449/449/449 451/451/451 452/452/452
f 453/453/453 454/454/454 455/455/455
f 453/453/453 455/455/455 456/456/456
f 457/457/457 458/458/458 459/459/459
f 457/457/457 459/459/459 460/460/460
f 461/461/461 462/462/462 463/463/463
f 461/461/461 463/463/463 464/464/464
f 465/465/465 466/466/466 467/467/467
f 465/465/465 467/467/467 468/468/468
f 469/469/469 470/470/470 471/471/471
f 469/469/469 471/471/471 472/472/472
f 473/473/473 474/474/474 475/475/475
f 473/473/473 475/475/475 476/476/476
f 477/477/477 478/478/478 479/479/479
f 477/477/477 479/479/479 480/480/480
f 481/481/481 482/482/482 483/483/483
f 481/481/481 483/483/483 484/484/484
f 485/485/485 486/486/486 487/487/487
f 485/485/485 487/487/487 488/488/488
f 489/489/489 490/490/490 491/491/491
f 489/489/489 491/491/491 492/492/492
f 493/493/493 494/494/494 495/495/495
f 493/493/493 495/495/495 496/496/496
f 497/497/497 498/498/498 499/499/499
f 497/497/497 499/499/499 500/500/500
f 501/501/501 502/502/502 503/503/503
f 501/501/501 503/503/503 504/504/504
f 505/505/505 506/506/506 507/507/507
f 505/505/505 507/507/507 508/508/508
f 509/509/509 510/510/510 511/511/511
f 509/509/509 511/511/511 512/512/512
f 513/513/513 514/514/514 515/515/515
f 513/513/513 515/515/515 516/516/516
f 517/517/517 518/518/518 519/519/519
f 517/517/517 519/519/519 520/520/520
f 521/521/521 522/522/522 523/523/523
f 521/521/521 523/523/523 524/524/524
f 525/525/525 526/526/526 527/527/527
f 525/525/525 527/527/527 528/528/528
f 529/529/529 530/530/530 531/531/531
f 529/529/529 531/531/531 532/532/532
f 533/533/533 534/534/534 535/535/535
f 533/533/533 535/535/535 536/536/536
f 537/537/537 538/538/538 539/539/539
f 537/537/537 539/539/539 540/540/540
f 541/541/541 542/542/542 543/543/543
f 541/541/541 543/543/543 544/544/544
f 545/545/545 546/546/546 547/547/547
f 545/545/545 547/547/547 548/548/548
f 549/549/549 550/550/550 551/551/551
f 549/549/549 551/551/551 552/552/552
f 553/553/553 554/554/554 555/555/555
f 553/553/553 555/555/555 556/556/556
f 557/557/557 558/558/558 559/559/559
f 557/557/557 559/559/559 560/560/560
