# Blender 5.2.0 LTS
# www.blender.org
mtllib QUOTE_text.mtl
o QUOTE_text
v 0.548044 0.024257 0.063725
v 0.548042 0.024257 0.063641
v 0.548042 0.011559 0.063641
v 0.548044 0.011559 0.063725
v 0.548044 0.024257 0.063725
v 0.548044 0.024257 0.069120
v 0.548039 0.024257 0.069237
v 0.548023 0.024257 0.069351
v 0.547997 0.024257 0.069463
v 0.547961 0.024257 0.069571
v 0.547914 0.024257 0.069677
v 0.547856 0.024257 0.069780
v 0.547776 0.024257 0.069896
v 0.547682 0.024257 0.070009
v 0.547593 0.024257 0.070097
v 0.547499 0.024257 0.070175
v 0.547400 0.024257 0.070242
v 0.547297 0.024257 0.070297
v 0.547207 0.024257 0.070334
v 0.547095 0.024257 0.070368
v 0.546978 0.024257 0.070391
v 0.546897 0.024257 0.070399
v 0.546794 0.024257 0.070403
v 0.545346 0.024257 0.070403
v 0.545229 0.024257 0.070398
v 0.545114 0.024257 0.070381
v 0.545001 0.024257 0.070352
v 0.544891 0.024257 0.070312
v 0.544784 0.024257 0.070261
v 0.544678 0.024257 0.070198
v 0.544558 0.024257 0.070111
v 0.544441 0.024257 0.070009
v 0.544334 0.024257 0.069896
v 0.544243 0.024257 0.069780
v 0.544178 0.024257 0.069677
v 0.544125 0.024257 0.069571
v 0.544083 0.024257 0.069463
v 0.544058 0.024257 0.069370
v 0.544041 0.024257 0.069275
v 0.544033 0.024257 0.069198
v 0.544030 0.024257 0.069120
v 0.544030 0.024257 0.063725
v 0.544036 0.024257 0.063607
v 0.544053 0.024257 0.063492
v 0.544081 0.024257 0.063379
v 0.544121 0.024257 0.063270
v 0.544172 0.024257 0.063162
v 0.544235 0.024257 0.063056
v 0.544322 0.024257 0.062936
v 0.544425 0.024257 0.062820
v 0.544538 0.024257 0.062712
v 0.544639 0.024257 0.062633
v 0.544744 0.024257 0.062566
v 0.544853 0.024257 0.062511
v 0.544965 0.024257 0.062468
v 0.545081 0.024257 0.062436
v 0.545201 0.024257 0.062417
v 0.545263 0.024257 0.062411
v 0.545346 0.024257 0.062408
v 0.546794 0.024257 0.062408
v 0.546910 0.024257 0.062414
v 0.547024 0.024257 0.062431
v 0.547134 0.024257 0.062459
v 0.547241 0.024257 0.062500
v 0.547345 0.024257 0.062551
v 0.547445 0.024257 0.062613
v 0.547542 0.024257 0.062687
v 0.547604 0.024257 0.062743
v 0.547666 0.024257 0.062803
v 0.547764 0.024257 0.062916
v 0.547837 0.024257 0.063018
v 0.547898 0.024257 0.063122
v 0.547949 0.024257 0.063231
v 0.547989 0.024257 0.063343
v 0.548018 0.024257 0.063460
v 0.548037 0.024257 0.063579
v 0.548042 0.024257 0.063641
v 0.548044 0.024257 0.069120
v 0.548044 0.024257 0.063725
v 0.548044 0.011559 0.063725
v 0.548044 0.011559 0.069120
v 0.548044 0.011559 0.063725
v 0.548042 0.011559 0.063641
v 0.548037 0.011559 0.063579
v 0.548018 0.011559 0.063460
v 0.547989 0.011559 0.063343
v 0.547949 0.011559 0.063231
v 0.547898 0.011559 0.063122
v 0.547837 0.011559 0.063018
v 0.547764 0.011559 0.062916
v 0.547666 0.011559 0.062803
v 0.547604 0.011559 0.062743
v 0.547542 0.011559 0.062687
v 0.547445 0.011559 0.062613
v 0.547345 0.011559 0.062551
v 0.547241 0.011559 0.062500
v 0.547134 0.011559 0.062459
v 0.547024 0.011559 0.062431
v 0.546910 0.011559 0.062414
v 0.546794 0.011559 0.062408
v 0.545346 0.011559 0.062408
v 0.545263 0.011559 0.062411
v 0.545201 0.011559 0.062417
v 0.545081 0.011559 0.062436
v 0.544965 0.011559 0.062468
v 0.544853 0.011559 0.062511
v 0.544744 0.011559 0.062566
v 0.544639 0.011559 0.062633
v 0.544538 0.011559 0.062712
v 0.544425 0.011559 0.062820
v 0.544322 0.011559 0.062936
v 0.544235 0.011559 0.063056
v 0.544172 0.011559 0.063162
v 0.544121 0.011559 0.063270
v 0.544081 0.011559 0.063379
v 0.544053 0.011559 0.063492
v 0.544036 0.011559 0.063607
v 0.544030 0.011559 0.063725
v 0.544030 0.011559 0.069120
v 0.544033 0.011559 0.069198
v 0.544041 0.011559 0.069275
v 0.544058 0.011559 0.069370
v 0.544083 0.011559 0.069463
v 0.544125 0.011559 0.069571
v 0.544178 0.011559 0.069677
v 0.544243 0.011559 0.069780
v 0.544334 0.011559 0.069896
v 0.544441 0.011559 0.070009
v 0.544558 0.011559 0.070111
v 0.544678 0.011559 0.070198
v 0.544784 0.011559 0.070261
v 0.544891 0.011559 0.070312
v 0.545001 0.011559 0.070352
v 0.545114 0.011559 0.070381
v 0.545229 0.011559 0.070398
v 0.545346 0.011559 0.070403
v 0.546794 0.011559 0.070403
v 0.546897 0.011559 0.070399
v 0.546978 0.011559 0.070391
v 0.547095 0.011559 0.070368
v 0.547207 0.011559 0.070334
v 0.547297 0.011559 0.070297
v 0.547400 0.011559 0.070242
v 0.547499 0.011559 0.070175
v 0.547593 0.011559 0.070097
v 0.547682 0.011559 0.070009
v 0.547776 0.011559 0.069896
v 0.547856 0.011559 0.069780
v 0.547914 0.011559 0.069677
v 0.547961 0.011559 0.069571
v 0.547997 0.011559 0.069463
v 0.548023 0.011559 0.069351
v 0.548039 0.011559 0.069237
v 0.548044 0.011559 0.069120
v 0.548042 0.024257 0.063641
v 0.548037 0.024257 0.063579
v 0.548037 0.011559 0.063579
v 0.548042 0.011559 0.063641
v 0.548037 0.024257 0.063579
v 0.548018 0.024257 0.063460
v 0.548018 0.011559 0.063460
v 0.548037 0.011559 0.063579
v 0.548018 0.024257 0.063460
v 0.547989 0.024257 0.063343
v 0.547989 0.011559 0.063343
v 0.548018 0.011559 0.063460
v 0.547989 0.024257 0.063343
v 0.547949 0.024257 0.063231
v 0.547949 0.011559 0.063231
v 0.547989 0.011559 0.063343
v 0.547949 0.024257 0.063231
v 0.547898 0.024257 0.063122
v 0.547898 0.011559 0.063122
v 0.547949 0.011559 0.063231
v 0.547898 0.024257 0.063122
v 0.547837 0.024257 0.063018
v 0.547837 0.011559 0.063018
v 0.547898 0.011559 0.063122
v 0.547837 0.024257 0.063018
v 0.547764 0.024257 0.062916
v 0.547764 0.011559 0.062916
v 0.547837 0.011559 0.063018
v 0.547764 0.024257 0.062916
v 0.547666 0.024257 0.062803
v 0.547666 0.011559 0.062803
v 0.547764 0.011559 0.062916
v 0.547666 0.024257 0.062803
v 0.547604 0.024257 0.062743
v 0.547604 0.011559 0.062743
v 0.547666 0.011559 0.062803
v 0.547604 0.024257 0.062743
v 0.547542 0.024257 0.062687
v 0.547542 0.011559 0.062687
v 0.547604 0.011559 0.062743
v 0.547542 0.024257 0.062687
v 0.547445 0.024257 0.062613
v 0.547445 0.011559 0.062613
v 0.547542 0.011559 0.062687
v 0.547445 0.024257 0.062613
v 0.547345 0.024257 0.062551
v 0.547345 0.011559 0.062551
v 0.547445 0.011559 0.062613
v 0.547345 0.024257 0.062551
v 0.547241 0.024257 0.062500
v 0.547241 0.011559 0.062500
v 0.547345 0.011559 0.062551
v 0.547241 0.024257 0.062500
v 0.547134 0.024257 0.062459
v 0.547134 0.011559 0.062459
v 0.547241 0.011559 0.062500
v 0.547134 0.024257 0.062459
v 0.547024 0.024257 0.062431
v 0.547024 0.011559 0.062431
v 0.547134 0.011559 0.062459
v 0.547024 0.024257 0.062431
v 0.546910 0.024257 0.062414
v 0.546910 0.011559 0.062414
v 0.547024 0.011559 0.062431
v 0.546910 0.024257 0.062414
v 0.546794 0.024257 0.062408
v 0.546794 0.011559 0.062408
v 0.546910 0.011559 0.062414
v 0.546794 0.024257 0.062408
v 0.545346 0.024257 0.062408
v 0.545346 0.011559 0.062408
v 0.546794 0.011559 0.062408
v 0.545346 0.024257 0.062408
v 0.545263 0.024257 0.062411
v 0.545263 0.011559 0.062411
v 0.545346 0.011559 0.062408
v 0.545263 0.024257 0.062411
v 0.545201 0.024257 0.062417
v 0.545201 0.011559 0.062417
v 0.545263 0.011559 0.062411
v 0.545201 0.024257 0.062417
v 0.545081 0.024257 0.062436
v 0.545081 0.011559 0.062436
v 0.545201 0.011559 0.062417
v 0.545081 0.024257 0.062436
v 0.544965 0.024257 0.062468
v 0.544965 0.011559 0.062468
v 0.545081 0.011559 0.062436
v 0.544965 0.024257 0.062468
v 0.544853 0.024257 0.062511
v 0.544853 0.011559 0.062511
v 0.544965 0.011559 0.062468
v 0.544853 0.024257 0.062511
v 0.544744 0.024257 0.062566
v 0.544744 0.011559 0.062566
v 0.544853 0.011559 0.062511
v 0.544744 0.024257 0.062566
v 0.544639 0.024257 0.062633
v 0.544639 0.011559 0.062633
v 0.544744 0.011559 0.062566
v 0.544639 0.024257 0.062633
v 0.544538 0.024257 0.062712
v 0.544538 0.011559 0.062712
v 0.544639 0.011559 0.062633
v 0.544538 0.024257 0.062712
v 0.544425 0.024257 0.062820
v 0.544425 0.011559 0.062820
v 0.544538 0.011559 0.062712
v 0.544425 0.024257 0.062820
v 0.544322 0.024257 0.062936
v 0.544322 0.011559 0.062936
v 0.544425 0.011559 0.062820
v 0.544322 0.024257 0.062936
v 0.544235 0.024257 0.063056
v 0.544235 0.011559 0.063056
v 0.544322 0.011559 0.062936
v 0.544235 0.024257 0.063056
v 0.544172 0.024257 0.063162
v 0.544172 0.011559 0.063162
v 0.544235 0.011559 0.063056
v 0.544172 0.024257 0.063162
v 0.544121 0.024257 0.063270
v 0.544121 0.011559 0.063270
v 0.544172 0.011559 0.063162
v 0.544121 0.024257 0.063270
v 0.544081 0.024257 0.063379
v 0.544081 0.011559 0.063379
v 0.544121 0.011559 0.063270
v 0.544081 0.024257 0.063379
v 0.544053 0.024257 0.063492
v 0.544053 0.011559 0.063492
v 0.544081 0.011559 0.063379
v 0.544053 0.024257 0.063492
v 0.544036 0.024257 0.063607
v 0.544036 0.011559 0.063607
v 0.544053 0.011559 0.063492
v 0.544036 0.024257 0.063607
v 0.544030 0.024257 0.063725
v 0.544030 0.011559 0.063725
v 0.544036 0.011559 0.063607
v 0.544030 0.024257 0.063725
v 0.544030 0.024257 0.069120
v 0.544030 0.011559 0.069120
v 0.544030 0.011559 0.063725
v 0.544030 0.024257 0.069120
v 0.544033 0.024257 0.069198
v 0.544033 0.011559 0.069198
v 0.544030 0.011559 0.069120
v 0.544033 0.024257 0.069198
v 0.544041 0.024257 0.069275
v 0.544041 0.011559 0.069275
v 0.544033 0.011559 0.069198
v 0.544041 0.024257 0.069275
v 0.544058 0.024257 0.069370
v 0.544058 0.011559 0.069370
v 0.544041 0.011559 0.069275
v 0.544058 0.024257 0.069370
v 0.544083 0.024257 0.069463
v 0.544083 0.011559 0.069463
v 0.544058 0.011559 0.069370
v 0.544083 0.024257 0.069463
v 0.544125 0.024257 0.069571
v 0.544125 0.011559 0.069571
v 0.544083 0.011559 0.069463
v 0.544125 0.024257 0.069571
v 0.544178 0.024257 0.069677
v 0.544178 0.011559 0.069677
v 0.544125 0.011559 0.069571
v 0.544178 0.024257 0.069677
v 0.544243 0.024257 0.069780
v 0.544243 0.011559 0.069780
v 0.544178 0.011559 0.069677
v 0.544243 0.024257 0.069780
v 0.544334 0.024257 0.069896
v 0.544334 0.011559 0.069896
v 0.544243 0.011559 0.069780
v 0.544334 0.024257 0.069896
v 0.544441 0.024257 0.070009
v 0.544441 0.011559 0.070009
v 0.544334 0.011559 0.069896
v 0.544441 0.024257 0.070009
v 0.544558 0.024257 0.070111
v 0.544558 0.011559 0.070111
v 0.544441 0.011559 0.070009
v 0.544558 0.024257 0.070111
v 0.544678 0.024257 0.070198
v 0.544678 0.011559 0.070198
v 0.544558 0.011559 0.070111
v 0.544678 0.024257 0.070198
v 0.544784 0.024257 0.070261
v 0.544784 0.011559 0.070261
v 0.544678 0.011559 0.070198
v 0.544784 0.024257 0.070261
v 0.544891 0.024257 0.070312
v 0.544891 0.011559 0.070312
v 0.544784 0.011559 0.070261
v 0.544891 0.024257 0.070312
v 0.545001 0.024257 0.070352
v 0.545001 0.011559 0.070352
v 0.544891 0.011559 0.070312
v 0.545001 0.024257 0.070352
v 0.545114 0.024257 0.070381
v 0.545114 0.011559 0.070381
v 0.545001 0.011559 0.070352
v 0.545114 0.024257 0.070381
v 0.545229 0.024257 0.070398
v 0.545229 0.011559 0.070398
v 0.545114 0.011559 0.070381
v 0.545229 0.024257 0.070398
v 0.545346 0.024257 0.070403
v 0.545346 0.011559 0.070403
v 0.545229 0.011559 0.070398
v 0.545346 0.024257 0.070403
v 0.546794 0.024257 0.070403
v 0.546794 0.011559 0.070403
v 0.545346 0.011559 0.070403
v 0.546794 0.024257 0.070403
v 0.546897 0.024257 0.070399
v 0.546897 0.011559 0.070399
v 0.546794 0.011559 0.070403
v 0.546897 0.024257 0.070399
v 0.546978 0.024257 0.070391
v 0.546978 0.011559 0.070391
v 0.546897 0.011559 0.070399
v 0.546978 0.024257 0.070391
v 0.547095 0.024257 0.070368
v 0.547095 0.011559 0.070368
v 0.546978 0.011559 0.070391
v 0.547095 0.024257 0.070368
v 0.547207 0.024257 0.070334
v 0.547207 0.011559 0.070334
v 0.547095 0.011559 0.070368
v 0.547207 0.024257 0.070334
v 0.547297 0.024257 0.070297
v 0.547297 0.011559 0.070297
v 0.547207 0.011559 0.070334
v 0.547297 0.024257 0.070297
v 0.547400 0.024257 0.070242
v 0.547400 0.011559 0.070242
v 0.547297 0.011559 0.070297
v 0.547400 0.024257 0.070242
v 0.547499 0.024257 0.070175
v 0.547499 0.011559 0.070175
v 0.547400 0.011559 0.070242
v 0.547499 0.024257 0.070175
v 0.547593 0.024257 0.070097
v 0.547593 0.011559 0.070097
v 0.547499 0.011559 0.070175
v 0.547593 0.024257 0.070097
v 0.547682 0.024257 0.070009
v 0.547682 0.011559 0.070009
v 0.547593 0.011559 0.070097
v 0.547682 0.024257 0.070009
v 0.547776 0.024257 0.069896
v 0.547776 0.011559 0.069896
v 0.547682 0.011559 0.070009
v 0.547776 0.024257 0.069896
v 0.547856 0.024257 0.069780
v 0.547856 0.011559 0.069780
v 0.547776 0.011559 0.069896
v 0.547856 0.024257 0.069780
v 0.547914 0.024257 0.069677
v 0.547914 0.011559 0.069677
v 0.547856 0.011559 0.069780
v 0.547914 0.024257 0.069677
v 0.547961 0.024257 0.069571
v 0.547961 0.011559 0.069571
v 0.547914 0.011559 0.069677
v 0.547961 0.024257 0.069571
v 0.547997 0.024257 0.069463
v 0.547997 0.011559 0.069463
v 0.547961 0.011559 0.069571
v 0.547997 0.024257 0.069463
v 0.548023 0.024257 0.069351
v 0.548023 0.011559 0.069351
v 0.547997 0.011559 0.069463
v 0.548023 0.024257 0.069351
v 0.548039 0.024257 0.069237
v 0.548039 0.011559 0.069237
v 0.548023 0.011559 0.069351
v 0.548039 0.024257 0.069237
v 0.548044 0.024257 0.069120
v 0.548044 0.011559 0.069120
v 0.548039 0.011559 0.069237
v 0.535947 0.021971 0.012132
v 0.541456 0.022011 0.004808
v 0.535947 0.022011 0.004808
v 0.535947 0.021971 0.012132
v 0.541456 0.021971 0.012132
v 0.541456 0.022011 0.004808
v 0.537387 0.021925 0.020708
v 0.541456 0.021971 0.012132
v 0.535947 0.021971 0.012132
v 0.537387 0.021925 0.020708
v 0.540016 0.021925 0.020708
v 0.541456 0.021971 0.012132
v 0.546590 0.021971 0.012132
v 0.552099 0.022011 0.004808
v 0.546590 0.022011 0.004808
v 0.546590 0.021971 0.012132
v 0.552099 0.021971 0.012132
v 0.552099 0.022011 0.004808
v 0.548029 0.021925 0.020708
v 0.552099 0.021971 0.012132
v 0.546590 0.021971 0.012132
v 0.548029 0.021925 0.020708
v 0.550659 0.021925 0.020708
v 0.552099 0.021971 0.012132
v 0.541456 0.018256 0.004787
v 0.535947 0.018215 0.012112
v 0.535947 0.018256 0.004787
v 0.541456 0.018215 0.012112
v 0.535947 0.018215 0.012112
v 0.541456 0.018256 0.004787
v 0.541456 0.018215 0.012112
v 0.537387 0.018169 0.020688
v 0.535947 0.018215 0.012112
v 0.540016 0.018169 0.020688
v 0.537387 0.018169 0.020688
v 0.541456 0.018215 0.012112
v 0.552099 0.018256 0.004787
v 0.546590 0.018215 0.012112
v 0.546590 0.018256 0.004787
v 0.552099 0.018215 0.012112
v 0.546590 0.018215 0.012112
v 0.552099 0.018256 0.004787
v 0.552099 0.018215 0.012112
v 0.548029 0.018169 0.020688
v 0.546590 0.018215 0.012112
v 0.550659 0.018169 0.020688
v 0.548029 0.018169 0.020688
v 0.552099 0.018215 0.012112
v 0.546590 0.022011 0.004808
v 0.552099 0.022011 0.004808
v 0.552099 0.018256 0.004787
v 0.546590 0.018256 0.004787
v 0.552099 0.022011 0.004808
v 0.552099 0.021971 0.012132
v 0.552099 0.018215 0.012112
v 0.552099 0.018256 0.004787
v 0.552099 0.021971 0.012132
v 0.550659 0.021925 0.020708
v 0.550659 0.018169 0.020688
v 0.552099 0.018215 0.012112
v 0.550659 0.021925 0.020708
v 0.548029 0.021925 0.020708
v 0.548029 0.018169 0.020688
v 0.550659 0.018169 0.020688
v 0.548029 0.021925 0.020708
v 0.546590 0.021971 0.012132
v 0.546590 0.018215 0.012112
v 0.548029 0.018169 0.020688
v 0.546590 0.021971 0.012132
v 0.546590 0.022011 0.004808
v 0.546590 0.018256 0.004787
v 0.546590 0.018215 0.012112
v 0.535947 0.022011 0.004808
v 0.541456 0.022011 0.004808
v 0.541456 0.018256 0.004787
v 0.535947 0.018256 0.004787
v 0.541456 0.022011 0.004808
v 0.541456 0.021971 0.012132
v 0.541456 0.018215 0.012112
v 0.541456 0.018256 0.004787
v 0.541456 0.021971 0.012132
v 0.540016 0.021925 0.020708
v 0.540016 0.018169 0.020688
v 0.541456 0.018215 0.012112
v 0.540016 0.021925 0.020708
v 0.537387 0.021925 0.020708
v 0.537387 0.018169 0.020688
v 0.540016 0.018169 0.020688
v 0.537387 0.021925 0.020708
v 0.535947 0.021971 0.012132
v 0.535947 0.018215 0.012112
v 0.537387 0.018169 0.020688
v 0.535947 0.021971 0.012132
v 0.535947 0.022011 0.004808
v 0.535947 0.018256 0.004787
v 0.535947 0.018215 0.012112
vn 0.7103 0.7039 -0.0105
vn 0.7116 -0.7015 -0.0394
vn 0.7116 0.7015 -0.0394
vn 0.7101 -0.7039 -0.0172
vn -0.7101 -0.6993 0.0824
vn -0.7117 -0.7013 0.0395
vn -0.7104 -0.7038 0.0104
vn 0.7104 0.7038 -0.0104
vn 0.7142 0.6970 0.0650
vn 0.7122 0.7018 0.0166
vn -0.7142 -0.6970 -0.0652
vn -0.7054 -0.6968 -0.1300
vn -0.6903 -0.6964 -0.1964
vn -0.6686 -0.6968 -0.2598
vn -0.6412 -0.6970 -0.3210
vn -0.6094 -0.6968 -0.3783
vn -0.5713 -0.6967 -0.4339
vn -0.5712 -0.6967 -0.4340
vn -0.5283 -0.6972 -0.4846
vn -0.4824 -0.6968 -0.5308
vn -0.4298 -0.6962 -0.5750
vn -0.3694 -0.6956 -0.6162
vn -0.3056 -0.6963 -0.6494
vn -0.2409 -0.6965 -0.6760
vn -0.1738 -0.6960 -0.6967
vn -0.1077 -0.6978 -0.7081
vn -0.1077 -0.6974 -0.7085
vn -0.0526 -0.6992 -0.7130
vn -0.0138 -0.7027 -0.7113
vn 0.0171 -0.7016 -0.7123
vn 0.0701 -0.6965 -0.7142
vn 0.0702 -0.6961 -0.7145
vn 0.1409 -0.6958 -0.7042
vn 0.2100 -0.6962 -0.6865
vn 0.2763 -0.6962 -0.6625
vn 0.3372 -0.6969 -0.6330
vn 0.3372 -0.6968 -0.6330
vn 0.3944 -0.6967 -0.5992
vn 0.4486 -0.6968 -0.5597
vn 0.4967 -0.6974 -0.5167
vn 0.5434 -0.6965 -0.4687
vn 0.5435 -0.6964 -0.4687
vn 0.5871 -0.6959 -0.4135
vn 0.6241 -0.6966 -0.3540
vn 0.6567 -0.6958 -0.2909
vn 0.6820 -0.6962 -0.2237
vn 0.6821 -0.6962 -0.2237
vn 0.6989 -0.6972 -0.1594
vn 0.7082 -0.6989 -0.1001
vn 0.7131 -0.6993 -0.0486
vn 0.7109 -0.7032 -0.0120
vn 0.7123 -0.7016 0.0174
vn 0.7143 -0.6963 0.0708
vn 0.7142 -0.6963 0.0708
vn 0.7041 -0.6960 0.1409
vn 0.6867 -0.6959 0.2102
vn 0.6866 -0.6959 0.2102
vn 0.6624 -0.6963 0.2763
vn 0.6330 -0.6969 0.3372
vn 0.5993 -0.6965 0.3945
vn 0.5597 -0.6967 0.4487
vn 0.5161 -0.6970 0.4978
vn 0.4682 -0.6967 0.5436
vn 0.4146 -0.6964 0.5857
vn 0.3564 -0.6962 0.6231
vn 0.3564 -0.6961 0.6232
vn 0.2927 -0.6959 0.6558
vn 0.2241 -0.6956 0.6826
vn 0.1525 -0.6956 0.7021
vn 0.0895 -0.6989 0.7096
vn 0.0427 -0.7007 0.7122
vn 0.0112 -0.7036 0.7106
vn -0.0177 -0.7016 0.7124
vn -0.0710 -0.6960 0.7145
vn -0.0710 -0.6960 0.7146
vn -0.1431 -0.6956 0.7040
vn -0.2159 -0.6954 0.6854
vn -0.2847 -0.6960 0.6592
vn -0.3494 -0.6959 0.6274
vn -0.3495 -0.6959 0.6274
vn -0.4080 -0.6968 0.5899
vn -0.4548 -0.6987 0.5522
vn -0.4875 -0.7009 0.5206
vn -0.5218 -0.6988 0.4894
vn -0.5218 -0.6988 0.4893
vn -0.5626 -0.6967 0.4451
vn -0.6009 -0.6970 0.3913
vn 0.6009 0.6970 -0.3913
vn 0.6640 0.6962 -0.2727
vn 0.6347 0.6966 -0.3345
vn -0.6640 -0.6962 0.2727
vn -0.6871 -0.6964 0.2072
vn -0.7032 -0.6968 0.1413
vn -0.7104 -0.7038 0.0105
vn -0.7109 0.7032 0.0120
vn -0.6867 0.6959 -0.2102
vn -0.7143 0.6963 -0.0708
vn 0.5712 0.6967 0.4340
vn 0.6903 0.6964 0.1964
vn 0.1076 0.6978 0.7081
vn -0.3371 0.6968 0.6330
vn -0.0701 0.6961 0.7145
vn -0.6821 0.6962 0.2237
vn -0.5434 0.6964 0.4688
vn 0.0710 0.6960 -0.7146
vn 0.5218 0.6988 -0.4893
vn 0.3495 0.6959 -0.6273
vn -0.3564 0.6962 -0.6232
vn 0.7120 0.7020 0.0167
vn 0.7102 -0.7039 -0.0105
vn 0.7102 0.7039 -0.0105
vn 0.7120 -0.7020 0.0166
vn 0.7143 -0.6968 0.0650
vn 0.7104 -0.7038 -0.0105
vn 0.7122 -0.7018 0.0167
vn -0.7104 0.7038 0.0105
vn -0.7117 0.7013 0.0395
vn -0.7101 0.6992 0.0824
vn -0.7032 0.6968 0.1413
vn -0.6872 0.6963 0.2073
vn -0.6640 0.6963 0.2726
vn -0.6346 0.6967 0.3345
vn -0.6008 0.6971 0.3913
vn -0.5625 0.6967 0.4452
vn -0.5217 0.6988 0.4894
vn -0.4874 0.7010 0.5206
vn -0.4545 0.6988 0.5523
vn -0.4080 0.6967 0.5900
vn -0.3494 0.6960 0.6274
vn -0.2848 0.6960 0.6592
vn -0.2154 0.6956 0.6853
vn -0.1428 0.6956 0.7041
vn -0.1429 0.6956 0.7041
vn -0.0710 0.6960 0.7145
vn -0.0174 0.7016 0.7123
vn -0.0173 0.7016 0.7124
vn 0.0111 0.7036 0.7105
vn 0.0427 0.7006 0.7123
vn 0.0427 0.7006 0.7122
vn 0.0896 0.6989 0.7096
vn 0.1525 0.6956 0.7021
vn -0.1525 -0.6955 -0.7021
vn -0.2928 -0.6958 -0.6558
vn -0.2241 -0.6957 -0.6825
vn 0.2928 0.6958 0.6558
vn 0.3566 0.6961 0.6231
vn 0.4149 0.6967 0.5852
vn 0.4682 0.6967 0.5435
vn 0.5161 0.6971 0.4977
vn 0.5160 0.6971 0.4977
vn 0.5598 0.6967 0.4486
vn 0.5992 0.6969 0.3941
vn -0.5992 -0.6969 -0.3941
vn -0.6624 -0.6964 -0.2763
vn -0.6332 -0.6967 -0.3371
vn -0.6624 -0.6963 -0.2763
vn -0.7042 -0.6959 -0.1410
vn -0.6867 -0.6959 -0.2101
vn -0.7042 -0.6958 -0.1410
vn -0.7123 -0.7016 -0.0175
vn -0.7145 -0.6961 -0.0703
vn -0.7123 -0.7016 -0.0174
vn -0.7132 -0.6993 0.0486
vn -0.7109 -0.7032 0.0120
vn 0.7131 0.6993 -0.0487
vn 0.7082 0.6989 -0.1001
vn 0.6990 0.6972 -0.1594
vn 0.6990 0.6971 -0.1594
vn 0.6819 0.6964 -0.2238
vn 0.6566 0.6958 -0.2910
vn 0.6240 0.6966 -0.3541
vn 0.5872 0.6960 -0.4133
vn 0.5872 0.6960 -0.4134
vn 0.5434 0.6964 -0.4687
vn 0.4967 0.6974 -0.5167
vn 0.4485 0.6968 -0.5598
vn 0.3940 0.6970 -0.5992
vn 0.3375 0.6970 -0.6327
vn 0.2763 0.6963 -0.6625
vn 0.2762 0.6961 -0.6626
vn 0.2100 0.6962 -0.6865
vn 0.1411 0.6957 -0.7043
vn 0.1409 0.6958 -0.7043
vn 0.0702 0.6962 -0.7144
vn 0.0170 0.7016 -0.7123
vn -0.0170 -0.7017 0.7122
vn 0.0527 -0.6991 0.7131
vn 0.0138 -0.7027 0.7113
vn -0.0528 0.6991 -0.7131
vn -0.1076 0.6978 -0.7082
vn -0.1738 0.6959 -0.6968
vn -0.1739 0.6958 -0.6969
vn -0.2410 0.6965 -0.6759
vn -0.3057 0.6960 -0.6497
vn -0.3058 0.6962 -0.6495
vn -0.3695 0.6955 -0.6162
vn -0.4297 0.6961 -0.5751
vn -0.4825 0.6968 -0.5308
vn -0.5283 0.6972 -0.4846
vn -0.5283 0.6973 -0.4845
vn -0.5713 0.6966 -0.4341
vn -0.6095 0.6967 -0.3782
vn -0.6096 0.6967 -0.3780
vn -0.6415 0.6968 -0.3207
vn -0.6685 0.6968 -0.2600
vn -0.6685 0.6968 -0.2599
vn -0.6903 0.6964 -0.1963
vn -0.7053 0.6969 -0.1303
vn 0.7053 -0.6968 0.1303
vn 0.1429 -0.6956 -0.7041
vn -0.0427 -0.7006 -0.7123
vn 0.0174 -0.7016 -0.7123
vn 0.2928 0.6959 0.6558
vn -0.5160 -0.6971 -0.4977
vn 0.6624 0.6964 0.2762
vn 0.7042 0.6958 0.1409
vn 0.7123 0.7016 0.0174
vn -0.6990 -0.6972 0.1594
vn -0.3940 -0.6970 0.5992
vn -0.1410 -0.6958 0.7042
vn -0.2763 -0.6963 0.6625
vn 0.3057 -0.6962 0.6495
vn 0.1739 -0.6959 0.6968
vn 0.5282 -0.6973 0.4846
vn 0.6685 -0.6968 0.2601
vn 0.6096 -0.6967 0.3781
vn -0.5872 -0.6960 0.4134
vn 0.5625 -0.6967 -0.4452
vn 0.7116 0.7015 -0.0395
vn 0.7100 -0.6994 -0.0824
vn 0.7100 0.6994 -0.0823
vn 0.7116 -0.7014 -0.0395
vn 0.7100 0.6993 -0.0824
vn 0.7031 -0.6969 -0.1413
vn 0.7031 0.6969 -0.1413
vn 0.7100 -0.6993 -0.0824
vn 0.6871 -0.6964 -0.2073
vn 0.6870 0.6965 -0.2071
vn 0.6870 0.6965 -0.2072
vn 0.6639 -0.6964 -0.2725
vn 0.6639 0.6964 -0.2726
vn 0.6871 -0.6963 -0.2073
vn 0.6638 0.6964 -0.2727
vn 0.6346 -0.6968 -0.3344
vn 0.6346 0.6968 -0.3344
vn 0.6345 0.6968 -0.3344
vn 0.6007 -0.6972 -0.3913
vn 0.6008 0.6972 -0.3912
vn 0.6345 -0.6968 -0.3345
vn 0.6007 0.6972 -0.3913
vn 0.5625 -0.6968 -0.4451
vn 0.5625 0.6967 -0.4451
vn 0.5625 0.6968 -0.4451
vn 0.5216 -0.6990 -0.4892
vn 0.5217 0.6989 -0.4893
vn 0.5216 0.6990 -0.4893
vn 0.4874 -0.7011 -0.5205
vn 0.4875 0.7010 -0.5206
vn 0.5216 -0.6989 -0.4893
vn 0.4874 0.7010 -0.5206
vn 0.4545 -0.6989 -0.5522
vn 0.4548 0.6988 -0.5521
vn 0.4547 0.6988 -0.5521
vn 0.4080 -0.6968 -0.5899
vn 0.4080 0.6969 -0.5899
vn 0.4544 -0.6990 -0.5522
vn 0.4079 0.6969 -0.5899
vn 0.3494 -0.6961 -0.6272
vn 0.3494 0.6961 -0.6272
vn 0.4079 -0.6968 -0.5899
vn 0.3493 0.6961 -0.6273
vn 0.2848 -0.6960 -0.6591
vn 0.2847 0.6961 -0.6591
vn 0.2846 0.6961 -0.6592
vn 0.2154 -0.6958 -0.6852
vn 0.2158 0.6955 -0.6853
vn 0.2847 -0.6960 -0.6591
vn 0.2158 0.6956 -0.6853
vn 0.1429 -0.6958 -0.7039
vn 0.1430 0.6957 -0.7040
vn 0.0710 -0.6961 -0.7144
vn 0.0711 0.6961 -0.7144
vn 0.1428 -0.6958 -0.7039
vn 0.0710 0.6961 -0.7144
vn 0.0174 -0.7018 -0.7122
vn 0.0176 0.7017 -0.7123
vn 0.0709 -0.6961 -0.7144
vn -0.0111 -0.7037 -0.7104
vn -0.0112 0.7037 -0.7104
vn 0.0173 -0.7017 -0.7122
vn -0.0427 -0.7008 -0.7121
vn -0.0426 0.7008 -0.7121
vn -0.0427 0.7007 -0.7121
vn -0.0896 -0.6990 -0.7095
vn -0.0895 0.6990 -0.7095
vn -0.0427 -0.7007 -0.7121
vn -0.0896 0.6990 -0.7095
vn -0.1524 -0.6957 -0.7020
vn -0.1525 0.6956 -0.7020
vn -0.0896 -0.6990 -0.7094
vn -0.1525 0.6957 -0.7020
vn -0.2241 -0.6959 -0.6823
vn -0.2241 0.6956 -0.6825
vn -0.1525 -0.6957 -0.7020
vn -0.2928 -0.6959 -0.6557
vn -0.2927 0.6960 -0.6557
vn -0.3565 -0.6962 -0.6230
vn -0.3563 0.6963 -0.6231
vn -0.3564 0.6963 -0.6230
vn -0.4148 -0.6968 -0.5851
vn -0.4145 0.6966 -0.5856
vn -0.3566 -0.6962 -0.6230
vn -0.4146 0.6965 -0.5856
vn -0.4682 -0.6967 -0.5435
vn -0.4681 0.6968 -0.5434
vn -0.4149 -0.6968 -0.5851
vn -0.4682 0.6968 -0.5434
vn -0.5159 -0.6972 -0.4977
vn -0.5160 0.6971 -0.4977
vn -0.4682 -0.6968 -0.5434
vn -0.5161 0.6971 -0.4977
vn -0.5597 -0.6968 -0.4486
vn -0.5596 0.6969 -0.4486
vn -0.5160 -0.6973 -0.4976
vn -0.5596 0.6968 -0.4486
vn -0.5990 -0.6970 -0.3941
vn -0.5992 0.6966 -0.3945
vn -0.5597 -0.6968 -0.4485
vn -0.6331 -0.6968 -0.3369
vn -0.6329 0.6969 -0.3372
vn -0.5991 -0.6971 -0.3940
vn -0.6329 0.6969 -0.3371
vn -0.6623 -0.6965 -0.2763
vn -0.6623 0.6964 -0.2763
vn -0.6331 -0.6968 -0.3370
vn -0.6623 0.6964 -0.2762
vn -0.6866 -0.6961 -0.2101
vn -0.6865 0.6961 -0.2102
vn -0.6623 -0.6965 -0.2762
vn -0.6865 0.6961 -0.2101
vn -0.7041 -0.6960 -0.1410
vn -0.7040 0.6961 -0.1409
vn -0.7040 0.6960 -0.1409
vn -0.7143 -0.6963 -0.0704
vn -0.7141 0.6964 -0.0708
vn -0.7122 -0.7017 -0.0174
vn -0.7122 0.7017 -0.0174
vn -0.7144 -0.6963 -0.0703
vn -0.7107 -0.7034 0.0120
vn -0.7107 0.7034 0.0120
vn -0.7122 -0.7017 -0.0173
vn -0.7130 -0.6994 0.0486
vn -0.7130 0.6994 0.0486
vn -0.7081 -0.6990 0.1001
vn -0.7081 0.6990 0.1000
vn -0.7081 0.6990 0.1001
vn -0.6989 -0.6973 0.1593
vn -0.6988 0.6973 0.1593
vn -0.6818 -0.6965 0.2238
vn -0.6819 0.6964 0.2237
vn -0.6988 -0.6973 0.1594
vn -0.6819 0.6964 0.2238
vn -0.6565 -0.6960 0.2909
vn -0.6567 0.6959 0.2908
vn -0.6566 0.6959 0.2909
vn -0.6240 -0.6966 0.3540
vn -0.6240 0.6967 0.3539
vn -0.5871 -0.6961 0.4133
vn -0.5871 0.6960 0.4135
vn -0.6239 -0.6967 0.3541
vn -0.5434 -0.6965 0.4686
vn -0.5434 0.6965 0.4686
vn -0.5433 0.6965 0.4687
vn -0.4967 -0.6974 0.5166
vn -0.4966 0.6974 0.5166
vn -0.5433 -0.6965 0.4686
vn -0.4967 0.6974 0.5166
vn -0.4485 -0.6969 0.5597
vn -0.4485 0.6969 0.5596
vn -0.4966 -0.6975 0.5167
vn -0.4485 0.6969 0.5597
vn -0.3940 -0.6971 0.5991
vn -0.3944 0.6968 0.5991
vn -0.3943 0.6968 0.5992
vn -0.3375 -0.6971 0.6326
vn -0.3371 0.6970 0.6329
vn -0.3939 -0.6971 0.5991
vn -0.2763 -0.6964 0.6623
vn -0.2762 0.6963 0.6624
vn -0.3374 -0.6970 0.6327
vn -0.2762 0.6963 0.6625
vn -0.2100 -0.6963 0.6864
vn -0.2100 0.6963 0.6863
vn -0.2762 -0.6964 0.6623
vn -0.2099 0.6963 0.6864
vn -0.1410 -0.6960 0.7041
vn -0.1409 0.6960 0.7041
vn -0.2099 -0.6963 0.6864
vn -0.0702 -0.6963 0.7143
vn -0.0701 0.6963 0.7143
vn -0.1409 -0.6960 0.7041
vn -0.0170 -0.7019 0.7121
vn -0.0171 0.7018 0.7122
vn -0.0171 0.7017 0.7122
vn 0.0138 -0.7028 0.7112
vn 0.0138 0.7028 0.7112
vn -0.0169 -0.7019 0.7121
vn 0.0527 -0.6993 0.7129
vn 0.0527 0.6992 0.7129
vn 0.0527 0.6993 0.7129
vn 0.1076 -0.6979 0.7081
vn 0.1077 0.6979 0.7080
vn 0.1077 0.6980 0.7080
vn 0.1738 -0.6961 0.6966
vn 0.1737 0.6960 0.6967
vn 0.1738 0.6960 0.6967
vn 0.2409 -0.6965 0.6759
vn 0.2408 0.6966 0.6758
vn 0.2409 0.6966 0.6758
vn 0.3057 -0.6963 0.6494
vn 0.3055 0.6964 0.6494
vn 0.2409 -0.6966 0.6758
vn 0.3056 0.6964 0.6493
vn 0.3694 -0.6957 0.6161
vn 0.3693 0.6957 0.6162
vn 0.3694 0.6957 0.6161
vn 0.4296 -0.6962 0.5750
vn 0.4298 0.6962 0.5749
vn 0.4824 -0.6969 0.5307
vn 0.4824 0.6969 0.5307
vn 0.4297 -0.6962 0.5750
vn 0.4824 0.6970 0.5306
vn 0.5282 -0.6974 0.4845
vn 0.5282 0.6972 0.4846
vn 0.5283 0.6973 0.4845
vn 0.5712 -0.6967 0.4341
vn 0.5712 0.6968 0.4339
vn 0.5282 -0.6974 0.4844
vn 0.6095 -0.6969 0.3781
vn 0.6094 0.6969 0.3782
vn 0.5712 -0.6967 0.4340
vn 0.6414 -0.6970 0.3207
vn 0.6411 0.6971 0.3210
vn 0.6095 -0.6969 0.3780
vn 0.6412 0.6971 0.3209
vn 0.6684 -0.6969 0.2600
vn 0.6685 0.6969 0.2598
vn 0.6414 -0.6970 0.3206
vn 0.6685 0.6969 0.2597
vn 0.6902 -0.6965 0.1963
vn 0.6901 0.6965 0.1964
vn 0.6902 0.6965 0.1962
vn 0.7051 -0.6970 0.1303
vn 0.7053 0.6969 0.1300
vn 0.6902 -0.6965 0.1962
vn 0.7141 -0.6970 0.0651
vn 0.7140 0.6971 0.0651
vn 0.7051 -0.6970 0.1302
vn 0.7141 0.6971 0.0651
vn 0.7120 -0.7020 0.0168
vn 0.7142 -0.6970 0.0651
vn -0.0000 1.0000 0.0055
vn -0.0000 1.0000 0.0054
vn -0.0000 -1.0000 -0.0056
vn -0.0000 -1.0000 -0.0054
vn -0.7071 0.0039 -0.7071
vn 0.7071 0.0040 -0.7071
vn -0.7071 0.0040 -0.7071
vn 0.7071 0.0041 -0.7071
vn 0.9965 -0.0004 0.0831
vn 0.6459 -0.0041 0.7634
vn -0.6460 -0.0041 0.7633
vn -0.6459 -0.0040 0.7634
vn -0.6459 -0.0041 0.7634
vn -0.9965 -0.0004 0.0830
vn -0.9966 -0.0004 0.0830
vn -0.9965 -0.0004 0.0831
vt 0.502058 0.164609
vt 0.501755 0.154179
vt 0.501130 0.146495
vt 0.501406 0.854143
vt 0.502058 0.839506
vt 0.499450 0.868425
vt 0.496191 0.882351
vt 0.491628 0.895921
vt 0.485761 0.909136
vt 0.478591 0.921995
vt 0.468578 0.936548
vt 0.456790 0.950617
vt 0.445630 0.961758
vt 0.433877 0.971477
vt 0.421531 0.979773
vt 0.408593 0.986647
vt 0.397358 0.991289
vt 0.383333 0.995556
vt 0.368716 0.998400
vt 0.358642 0.999506
vt 0.345679 1.000000
vt 0.164609 1.000000
vt 0.149942 0.999289
vt 0.135572 0.997156
vt 0.121498 0.993600
vt 0.107720 0.988622
vt 0.094239 0.982222
vt 0.081053 0.974400
vt 0.066045 0.963477
vt 0.051440 0.950617
vt 0.038045 0.936548
vt 0.026667 0.921995
vt 0.018519 0.909136
vt 0.011852 0.895921
vt 0.006667 0.882351
vt 0.003477 0.870770
vt 0.001317 0.858943
vt 0.000329 0.849304
vt 0.000000 0.839506
vt 0.000000 0.164609
vt 0.000711 0.149942
vt 0.002844 0.135572
vt 0.006400 0.121498
vt 0.011378 0.107720
vt 0.017778 0.094239
vt 0.025600 0.081053
vt 0.036523 0.066045
vt 0.049383 0.051440
vt 0.063533 0.038045
vt 0.076174 0.028169
vt 0.089291 0.019774
vt 0.102881 0.012860
vt 0.116945 0.007428
vt 0.131483 0.003477
vt 0.146495 0.001008
vt 0.154179 0.000329
vt 0.164609 0.000000
vt 0.345679 0.000000
vt 0.360286 0.000711
vt 0.374479 0.002844
vt 0.388257 0.006400
vt 0.401620 0.011378
vt 0.414568 0.017778
vt 0.427101 0.025600
vt 0.439220 0.034844
vt 0.447068 0.041798
vt 0.454733 0.049383
vt 0.467056 0.063532
vt 0.476142 0.076174
vt 0.490226 0.102881
vt 0.483866 0.089290
vt 0.495224 0.116945
vt 0.498858 0.131483
vt 1.000000 1.000000
vt 0.636364 1.000000
vt 0.545455 1.000000
vt 0.727273 1.000000
vt 0.909091 1.000000
vt 0.818182 1.000000
vt 0.454545 1.000000
vt 0.090909 1.000000
vt 0.000000 1.000000
vt 0.181818 1.000000
vt 0.363636 1.000000
vt 0.272727 1.000000
vt 0.000000 0.000000
vt 0.166667 0.000000
vt 0.166667 1.000000
vt 0.333333 0.000000
vt 0.333333 1.000000
vt 0.500000 0.000000
vt 0.500000 1.000000
vt 0.666667 0.000000
vt 0.666667 1.000000
vt 0.833333 0.000000
vt 0.833333 1.000000
vt 1.000000 0.000000
s 1
f 1/1/1 3/2/2 2/2/3
f 1/1/1 4/1/4 3/2/2
f 76/3/5 77/2/6 5/1/7
f 5/1/8 7/4/9 6/5/10
f 7/4/11 8/6/12 9/7/13
f 9/7/13 10/8/14 11/9/15
f 11/9/15 12/10/16 13/11/17
f 13/11/18 14/12/19 15/13/20
f 15/13/20 16/14/21 17/15/22
f 17/15/22 18/16/23 19/17/24
f 19/17/24 20/18/25 21/19/26
f 21/19/27 22/20/28 23/21/29
f 23/21/29 24/22/30 25/23/31
f 25/23/32 26/24/33 27/25/34
f 27/25/34 28/26/35 29/27/36
f 29/27/37 30/28/38 31/29/39
f 31/29/39 32/30/40 33/31/41
f 33/31/42 34/32/43 35/33/44
f 35/33/44 36/34/45 37/35/46
f 37/35/47 38/36/48 39/37/49
f 39/37/49 40/38/50 41/39/51
f 41/39/51 42/40/52 43/41/53
f 43/41/54 44/42/55 45/43/56
f 45/43/57 46/44/58 47/45/59
f 47/45/59 48/46/60 49/47/61
f 49/47/61 50/48/62 51/49/63
f 51/49/63 52/50/64 53/51/65
f 53/51/66 54/52/67 55/53/68
f 55/53/68 56/54/69 57/55/70
f 57/55/70 58/56/71 59/57/72
f 59/57/72 60/58/73 61/59/74
f 61/59/75 62/60/76 63/61/77
f 63/61/77 64/62/78 65/63/79
f 65/63/80 66/64/81 67/65/82
f 67/65/82 68/66/83 69/67/84
f 69/67/85 70/68/86 71/69/87
f 71/69/88 73/70/89 72/71/90
f 73/70/91 74/72/92 75/73/93
f 75/73/93 76/3/5 5/1/7
f 5/1/94 7/4/11 9/7/13
f 9/7/13 11/9/15 13/11/17
f 13/11/18 15/13/20 17/15/22
f 17/15/22 19/17/24 21/19/26
f 21/19/27 23/21/29 25/23/31
f 25/23/32 27/25/34 29/27/36
f 29/27/37 31/29/39 33/31/41
f 33/31/42 35/33/44 37/35/46
f 37/35/47 39/37/49 41/39/51
f 41/39/95 45/43/96 43/41/97
f 45/43/57 47/45/59 49/47/61
f 49/47/61 51/49/63 53/51/65
f 53/51/66 55/53/68 57/55/70
f 57/55/70 59/57/72 61/59/74
f 61/59/75 63/61/77 65/63/79
f 65/63/80 67/65/82 69/67/84
f 69/67/85 71/69/87 73/70/91
f 73/70/91 75/73/93 5/1/7
f 5/1/8 13/11/98 9/7/99
f 13/11/18 17/15/22 21/19/26
f 21/19/100 29/27/101 25/23/102
f 29/27/101 37/35/103 33/31/104
f 37/35/103 45/43/96 41/39/95
f 45/43/57 49/47/61 53/51/65
f 53/51/66 57/55/70 61/59/74
f 61/59/105 69/67/106 65/63/107
f 69/67/85 73/70/91 5/1/7
f 5/1/8 21/19/100 13/11/98
f 21/19/100 37/35/103 29/27/101
f 37/35/103 53/51/108 45/43/96
f 53/51/108 69/67/106 61/59/105
f 69/67/106 21/19/100 5/1/8
f 21/19/100 53/51/108 37/35/103
f 53/51/108 21/19/100 69/67/106
f 78/5/109 80/1/110 79/1/111
f 78/5/109 81/5/112 80/1/110
f 153/4/113 82/1/114 154/5/115
f 82/1/116 83/2/117 84/3/118
f 84/3/118 85/73/119 86/72/120
f 86/72/120 87/70/121 88/71/122
f 88/71/122 89/69/123 90/68/124
f 90/68/124 91/67/125 92/66/126
f 92/66/126 93/65/127 94/64/128
f 94/64/128 95/63/129 96/62/130
f 96/62/130 97/61/131 98/60/132
f 98/60/133 99/59/134 100/58/135
f 100/58/136 101/57/137 102/56/138
f 102/56/139 103/55/140 104/54/141
f 104/54/142 106/52/143 105/53/144
f 106/52/145 107/51/146 108/50/147
f 108/50/147 109/49/148 110/48/149
f 110/48/150 111/47/151 112/46/152
f 112/46/153 114/44/154 113/45/155
f 114/44/156 116/42/157 115/43/158
f 116/42/159 118/40/160 117/41/161
f 118/40/162 120/38/163 119/39/164
f 120/38/165 121/37/166 122/36/167
f 122/36/168 123/35/169 124/34/170
f 124/34/170 125/33/171 126/32/172
f 126/32/173 127/31/174 128/30/175
f 128/30/175 129/29/176 130/28/177
f 130/28/177 131/27/178 132/26/179
f 132/26/180 133/25/181 134/24/182
f 134/24/183 135/23/184 136/22/185
f 136/22/186 138/20/187 137/21/188
f 138/20/189 139/19/190 140/18/191
f 140/18/192 141/17/193 142/16/194
f 142/16/195 143/15/196 144/14/197
f 144/14/197 145/13/198 146/12/199
f 146/12/200 147/11/201 148/10/202
f 148/10/203 149/9/204 150/8/205
f 150/8/206 151/7/207 152/6/208
f 152/6/209 82/1/114 153/4/113
f 82/1/116 84/3/118 86/72/120
f 86/72/120 88/71/122 90/68/124
f 90/68/124 92/66/126 94/64/128
f 94/64/128 96/62/130 98/60/132
f 98/60/210 102/56/211 100/58/212
f 102/56/139 104/54/141 106/52/213
f 106/52/145 108/50/147 110/48/149
f 110/48/214 114/44/154 112/46/153
f 114/44/215 116/42/216 118/40/217
f 118/40/162 122/36/218 120/38/163
f 122/36/168 124/34/170 126/32/172
f 126/32/173 128/30/175 130/28/177
f 130/28/219 134/24/220 132/26/221
f 134/24/220 138/20/187 136/22/186
f 138/20/187 142/16/222 140/18/223
f 142/16/195 144/14/197 146/12/199
f 146/12/224 150/8/225 148/10/226
f 150/8/225 82/1/114 152/6/209
f 82/1/116 86/72/120 90/68/124
f 90/68/124 94/64/128 98/60/132
f 98/60/210 106/52/143 102/56/211
f 106/52/143 114/44/154 110/48/214
f 114/44/154 122/36/218 118/40/162
f 122/36/218 130/28/219 126/32/227
f 130/28/219 138/20/187 134/24/220
f 138/20/187 146/12/224 142/16/222
f 146/12/224 82/1/114 150/8/225
f 82/1/114 98/60/210 90/68/228
f 98/60/210 114/44/154 106/52/143
f 114/44/154 130/28/219 122/36/218
f 130/28/219 146/12/224 138/20/187
f 146/12/224 98/60/210 82/1/114
f 98/60/210 130/28/219 114/44/154
f 130/28/219 98/60/210 146/12/224
f 155/2/229 157/3/230 156/3/231
f 155/2/229 158/2/232 157/3/230
f 159/3/233 161/73/234 160/73/235
f 159/3/233 162/3/236 161/73/234
f 163/73/235 165/72/237 164/72/238
f 163/73/235 166/73/234 165/72/237
f 167/72/239 169/70/240 168/70/241
f 167/72/239 170/72/242 169/70/240
f 171/70/243 173/71/244 172/71/245
f 171/70/243 174/70/240 173/71/244
f 175/71/246 177/69/247 176/69/248
f 175/71/246 178/71/249 177/69/247
f 179/69/250 181/68/251 180/68/252
f 179/69/250 182/69/247 181/68/251
f 183/68/253 185/67/254 184/67/255
f 183/68/253 186/68/251 185/67/254
f 187/67/256 189/66/257 188/66/258
f 187/67/256 190/67/259 189/66/257
f 191/66/260 193/65/261 192/65/262
f 191/66/260 194/66/257 193/65/261
f 195/65/263 197/64/264 196/64/265
f 195/65/263 198/65/266 197/64/264
f 199/64/267 201/63/268 200/63/269
f 199/64/267 202/64/270 201/63/268
f 203/63/271 205/62/272 204/62/273
f 203/63/271 206/63/268 205/62/272
f 207/62/274 209/61/275 208/61/276
f 207/62/274 210/62/277 209/61/275
f 211/61/278 213/60/279 212/60/280
f 211/61/278 214/61/275 213/60/279
f 215/60/280 217/59/281 216/59/282
f 215/60/280 218/60/283 217/59/281
f 219/59/284 221/58/285 220/58/286
f 219/59/284 222/59/287 221/58/285
f 223/58/286 225/57/288 224/57/289
f 223/58/286 226/58/290 225/57/288
f 227/57/289 229/56/291 228/56/292
f 227/57/289 230/57/288 229/56/291
f 231/56/293 233/55/294 232/55/295
f 231/56/293 234/56/296 233/55/294
f 235/55/297 237/54/298 236/54/299
f 235/55/297 238/55/300 237/54/298
f 239/54/301 241/53/302 240/53/303
f 239/54/301 242/54/304 241/53/302
f 243/53/303 245/52/305 244/52/306
f 243/53/303 246/53/302 245/52/305
f 247/52/306 249/51/307 248/51/308
f 247/52/306 250/52/305 249/51/307
f 251/51/309 253/50/310 252/50/311
f 251/51/309 254/51/312 253/50/310
f 255/50/313 257/49/314 256/49/315
f 255/50/313 258/50/316 257/49/314
f 259/49/317 261/48/318 260/48/319
f 259/49/317 262/49/320 261/48/318
f 263/48/321 265/47/322 264/47/323
f 263/48/321 266/48/324 265/47/322
f 267/47/325 269/46/326 268/46/327
f 267/47/325 270/47/328 269/46/326
f 271/46/327 273/45/329 272/45/330
f 271/46/327 274/46/331 273/45/329
f 275/45/332 277/44/333 276/44/334
f 275/45/332 278/45/335 277/44/333
f 279/44/336 281/43/337 280/43/338
f 279/44/336 282/44/339 281/43/337
f 283/43/340 285/42/341 284/42/342
f 283/43/340 286/43/337 285/42/341
f 287/42/343 289/41/344 288/41/345
f 287/42/343 290/42/341 289/41/344
f 291/41/345 293/40/346 292/40/347
f 291/41/345 294/41/348 293/40/346
f 295/40/347 297/39/349 296/39/350
f 295/40/347 298/40/351 297/39/349
f 299/39/350 301/38/352 300/38/353
f 299/39/350 302/39/349 301/38/352
f 303/38/353 305/37/354 304/37/355
f 303/38/353 306/38/352 305/37/354
f 307/37/356 309/36/357 308/36/358
f 307/37/356 310/37/354 309/36/357
f 311/36/358 313/35/359 312/35/360
f 311/36/358 314/36/361 313/35/359
f 315/35/362 317/34/363 316/34/364
f 315/35/362 318/35/359 317/34/363
f 319/34/365 321/33/366 320/33/367
f 319/34/365 322/34/363 321/33/366
f 323/33/367 325/32/368 324/32/369
f 323/33/367 326/33/370 325/32/368
f 327/32/369 329/31/371 328/31/372
f 327/32/369 330/32/368 329/31/371
f 331/31/373 333/30/374 332/30/375
f 331/31/373 334/31/376 333/30/374
f 335/30/377 337/29/378 336/29/379
f 335/30/377 338/30/380 337/29/378
f 339/29/381 341/28/382 340/28/383
f 339/29/381 342/29/378 341/28/382
f 343/28/384 345/27/385 344/27/386
f 343/28/384 346/28/387 345/27/385
f 347/27/386 349/26/388 348/26/389
f 347/27/386 350/27/390 349/26/388
f 351/26/391 353/25/392 352/25/393
f 351/26/391 354/26/394 353/25/392
f 355/25/395 357/24/396 356/24/397
f 355/25/395 358/25/398 357/24/396
f 359/24/397 361/23/399 360/23/400
f 359/24/397 362/24/401 361/23/399
f 363/23/400 365/22/402 364/22/403
f 363/23/400 366/23/399 365/22/402
f 367/22/404 369/21/405 368/21/406
f 367/22/404 370/22/407 369/21/405
f 371/21/406 373/20/408 372/20/409
f 371/21/406 374/21/405 373/20/408
f 375/20/410 377/19/411 376/19/412
f 375/20/410 378/20/408 377/19/411
f 379/19/413 381/18/414 380/18/415
f 379/19/413 382/19/411 381/18/414
f 383/18/416 385/17/417 384/17/418
f 383/18/416 386/18/414 385/17/417
f 387/17/419 389/16/420 388/16/421
f 387/17/419 390/17/422 389/16/420
f 391/16/423 393/15/424 392/15/425
f 391/16/423 394/16/420 393/15/424
f 395/15/426 397/14/427 396/14/428
f 395/15/426 398/15/424 397/14/427
f 399/14/428 401/13/429 400/13/430
f 399/14/428 402/14/431 401/13/429
f 403/13/432 405/12/433 404/12/434
f 403/13/432 406/13/429 405/12/433
f 407/12/435 409/11/436 408/11/437
f 407/12/435 410/12/438 409/11/436
f 411/11/437 413/10/439 412/10/440
f 411/11/437 414/11/441 413/10/439
f 415/10/440 417/9/442 416/9/443
f 415/10/440 418/10/444 417/9/442
f 419/9/445 421/8/446 420/8/447
f 419/9/445 422/9/448 421/8/446
f 423/8/449 425/7/450 424/7/451
f 423/8/449 426/8/446 425/7/450
f 427/7/452 429/6/453 428/6/454
f 427/7/452 430/7/455 429/6/453
f 431/6/454 433/4/456 432/4/457
f 431/6/454 434/6/458 433/4/456
f 435/4/459 437/5/460 436/5/109
f 435/4/459 438/4/461 437/5/460
f 439/74/462 440/75/462 441/76/462
f 442/74/462 443/77/462 444/75/462
f 445/78/463 446/77/463 447/74/463
f 448/78/463 449/79/463 450/77/463
f 451/80/462 452/81/462 453/82/462
f 454/80/462 455/83/462 456/81/462
f 457/84/463 458/83/463 459/80/463
f 460/84/463 461/85/463 462/83/463
f 463/75/464 464/74/464 465/76/464
f 466/77/464 467/74/464 468/75/464
f 469/77/465 470/78/465 471/74/465
f 472/79/465 473/78/465 474/77/465
f 475/81/464 476/80/464 477/82/464
f 478/83/464 479/80/464 480/81/464
f 481/83/465 482/84/465 483/80/465
f 484/85/465 485/84/465 486/83/465
f 487/86/466 488/87/467 489/88/467
f 487/86/466 489/88/467 490/82/468
f 491/87/469 492/89/470 493/90/470
f 491/87/469 493/90/470 494/88/467
f 495/89/470 496/91/471 497/92/471
f 495/89/470 497/92/471 498/90/470
f 499/91/471 500/93/472 501/94/473
f 499/91/471 501/94/473 502/92/471
f 503/93/474 504/95/475 505/96/475
f 503/93/474 505/96/475 506/94/474
f 507/95/476 508/97/468 509/74/468
f 507/95/476 509/74/468 510/96/476
f 511/86/466 512/87/467 513/88/467
f 511/86/466 513/88/467 514/82/468
f 515/87/469 516/89/470 517/90/470
f 515/87/469 517/90/470 518/88/467
f 519/89/470 520/91/471 521/92/471
f 519/89/470 521/92/471 522/90/470
f 523/91/471 524/93/474 525/94/473
f 523/91/471 525/94/473 526/92/471
f 527/93/474 528/95/477 529/96/477
f 527/93/474 529/96/477 530/94/474
f 531/95/477 532/97/468 533/74/468
f 531/95/477 533/74/468 534/96/477
