v -0.271424 0.029342 -0.097517
v -0.235741 0.029372 -0.103027
v -0.271424 0.029372 -0.103027
v -0.271424 0.029342 -0.097517
v -0.235741 0.029342 -0.097517
v -0.235741 0.029372 -0.103027
v -0.25665 0.029342 -0.097517
v -0.235741 0.029342 -0.097517
v -0.271424 0.029342 -0.097517
v -0.25665 0.02914 -0.060332
v -0.250515 0.029342 -0.097517
v -0.25665 0.029342 -0.097517
v -0.250515 0.029342 -0.097517
v -0.235741 0.029342 -0.097517
v -0.25665 0.029342 -0.097517
v -0.25665 0.02914 -0.060332
v -0.250515 0.02914 -0.060332
v -0.250515 0.029342 -0.097517
v -0.235741 0.025616 -0.103047
v -0.271424 0.025586 -0.097538
v -0.271424 0.025616 -0.103047
v -0.235741 0.025586 -0.097538
v -0.271424 0.025586 -0.097538
v -0.235741 0.025616 -0.103047
v -0.235741 0.025586 -0.097538
v -0.25665 0.025586 -0.097538
v -0.271424 0.025586 -0.097538
v -0.250515 0.025586 -0.097538
v -0.25665 0.025384 -0.060353
v -0.25665 0.025586 -0.097538
v -0.235741 0.025586 -0.097538
v -0.250515 0.025586 -0.097538
v -0.25665 0.025586 -0.097538
v -0.250515 0.025384 -0.060353
v -0.25665 0.025384 -0.060353
v -0.250515 0.025586 -0.097538
v -0.250515 0.029342 -0.097517
v -0.250515 0.02914 -0.060332
v -0.250515 0.025384 -0.060353
v -0.250515 0.025586 -0.097538
v -0.250515 0.02914 -0.060332
v -0.25665 0.02914 -0.060332
v -0.25665 0.025384 -0.060353
v -0.250515 0.025384 -0.060353
v -0.25665 0.02914 -0.060332
v -0.25665 0.029342 -0.097517
v -0.25665 0.025586 -0.097538
v -0.25665 0.025384 -0.060353
v -0.25665 0.029342 -0.097517
v -0.271424 0.029342 -0.097517
v -0.271424 0.025586 -0.097538
v -0.25665 0.025586 -0.097538
v -0.271424 0.029342 -0.097517
v -0.271424 0.029372 -0.103027
v -0.271424 0.025616 -0.103047
v -0.271424 0.025586 -0.097538
v -0.271424 0.029372 -0.103027
v -0.235741 0.029372 -0.103027
v -0.235741 0.025616 -0.103047
v -0.271424 0.025616 -0.103047
v -0.235741 0.029372 -0.103027
v -0.235741 0.029342 -0.097517
v -0.235741 0.025586 -0.097538
v -0.235741 0.025616 -0.103047
v -0.235741 0.029342 -0.097517
v -0.250515 0.029342 -0.097517
v -0.250515 0.025586 -0.097538
v -0.235741 0.025586 -0.097538
vn -0 1 0.0054
vn -0 1 0.0054
vn -0 1 0.0054
vn -0 1 0.0054
vn -0 1 0.0054
vn -0 1 0.0054
vn -0 -0 1
vn -0 -0 1
vn -0 -0 1
vn -0 1 0.0054
vn -0 1 0.0054
vn -0 1 0.0054
vn -0 -0 -1
vn -0 -0 -1
vn -0 -0 -1
vn -0 1 0.0054
vn -0 1 0.0054
vn -0 1 0.0054
vn -0 -1 -0.0054
vn -0 -1 -0.0054
vn -0 -1 -0.0054
vn -0 -1 -0.0054
vn -0 -1 -0.0054
vn -0 -1 -0.0054
vn -0 -0 1
vn -0 -0 1
vn -0 -0 1
vn -0 -1 -0.0054
vn -0 -1 -0.0054
vn -0 -1 -0.0054
vn -0 -0 1
vn -0 -0 1
vn -0 -0 1
vn -0 -1 -0.0054
vn -0 -1 -0.0054
vn -0 -1 -0.0054
vn 0.7071 -0.004 0.7071
vn 0.7071 -0.004 0.7071
vn 0.7071 -0.004 0.7071
vn 0.7071 -0.004 0.7071
vn 0.7071 -0.004 0.7071
vn -0.7071 -0.004 0.7071
vn -0.7071 -0.004 0.7071
vn 0.7071 -0.004 0.7071
vn -0.7071 -0.004 0.7071
vn -0.7071 -0.004 0.7071
vn -0.7071 -0.004 0.7071
vn -0.7071 -0.004 0.7071
vn -0.7071 -0.004 0.7071
vn -0.7071 -0.004 0.7071
vn -0.7071 -0.004 0.7071
vn -0.7071 -0.004 0.7071
vn -0.7071 -0.004 0.7071
vn -0.7071 0.0038 -0.7071
vn -0.7071 0.0038 -0.7071
vn -0.7071 -0.004 0.7071
vn -0.7071 0.0038 -0.7071
vn 0.7071 0.0038 -0.7071
vn 0.7071 0.0038 -0.7071
vn -0.7071 0.0038 -0.7071
vn 0.7071 0.0038 -0.7071
vn 0.7071 -0.004 0.7071
vn 0.7071 -0.0039 0.7071
vn 0.7071 0.0038 -0.7071
vn 0.7071 -0.004 0.7071
vn 0.7071 -0.004 0.7071
vn 0.7071 -0.004 0.7071
vn 0.7071 -0.0039 0.7071
vt 0.571429 1
vt 0.857143 1
vt 0.714286 1
vt 0.571429 1
vt 1 1
vt 0.857143 1
vt 0.428571 1
vt 1 1
vt 0.571429 1
vt 0.285714 1
vt 0 1
vt 0.428571 1
vt 0 1
vt 1 1
vt 0.428571 1
vt 0.285714 1
vt 0.142857 1
vt 0 1
vt 0.857143 1
vt 0.571429 1
vt 0.714286 1
vt 1 1
vt 0.571429 1
vt 0.857143 1
vt 1 1
vt 0.428571 1
vt 0.571429 1
vt 0 1
vt 0.285714 1
vt 0.428571 1
vt 1 1
vt 0 1
vt 0.428571 1
vt 0.142857 1
vt 0.285714 1
vt 0 1
vt 0 0
vt 0.125 0
vt 0.125 1
vt 0 1
vt 0.125 0
vt 0.25 0
vt 0.25 1
vt 0.125 1
vt 0.25 0
vt 0.375 0
vt 0.375 1
vt 0.25 1
vt 0.375 0
vt 0.5 0
vt 0.5 1
vt 0.375 1
vt 0.5 0
vt 0.625 0
vt 0.625 1
vt 0.5 1
vt 0.625 0
vt 0.75 0
vt 0.75 1
vt 0.625 1
vt 0.75 0
vt 0.875 0
vt 0.875 1
vt 0.75 1
vt 0.875 0
vt 1 0
vt 1 1
vt 0.875 1
s off
f 1/1/1 2/2/2 3/3/3
f 4/4/4 5/5/5 6/6/6
f 7/7/7 8/8/8 9/9/9
f 10/10/10 11/11/11 12/12/12
f 13/13/13 14/14/14 15/15/15
f 16/16/16 17/17/17 18/18/18
f 19/19/19 20/20/20 21/21/21
f 22/22/22 23/23/23 24/24/24
f 25/25/25 26/26/26 27/27/27
f 28/28/28 29/29/29 30/30/30
f 31/31/31 32/32/32 33/33/33
f 34/34/34 35/35/35 36/36/36
f 37/37/37 38/38/38 39/39/39
f 37/37/37 39/39/39 40/40/40
f 41/41/41 42/42/42 43/43/43
f 41/41/41 43/43/43 44/44/44
f 45/45/45 46/46/46 47/47/47
f 45/45/45 47/47/47 48/48/48
f 49/49/49 50/50/50 51/51/51
f 49/49/49 51/51/51 52/52/52
f 53/53/53 54/54/54 55/55/55
f 53/53/53 55/55/55 56/56/56
f 57/57/57 58/58/58 59/59/59
f 57/57/57 59/59/59 60/60/60
f 61/61/61 62/62/62 63/63/63
f 61/61/61 63/63/63 64/64/64
f 65/65/65 66/66/66 67/67/67
f 65/65/65 67/67/67 68/68/68
