v -0.01867 0.029224 -0.075871
v -0.012534 0.029369 -0.102414
v -0.01867 0.029369 -0.102414
v -0.01867 0.029224 -0.075871
v -0.012534 0.029231 -0.077186
v -0.012534 0.029369 -0.102414
v 0.011943 0.029233 -0.077561
v 0.018078 0.029369 -0.102414
v 0.011943 0.029369 -0.102414
v 0.011943 0.029233 -0.077561
v 0.018078 0.029228 -0.076497
v 0.018078 0.029369 -0.102414
v 0.011932 0.029228 -0.076578
v 0.018078 0.029228 -0.076497
v 0.011943 0.029233 -0.077561
v -0.01867 0.029224 -0.075871
v -0.012521 0.029225 -0.076038
v -0.012534 0.029231 -0.077186
v 0.011896 0.029223 -0.075631
v 0.018078 0.029228 -0.076497
v 0.011932 0.029228 -0.076578
v 0.011896 0.029223 -0.075631
v 0.017948 0.029214 -0.07396
v 0.018078 0.029228 -0.076497
v -0.01867 0.029224 -0.075871
v -0.012479 0.029219 -0.074997
v -0.012521 0.029225 -0.076038
v -0.018492 0.029209 -0.073096
v -0.012479 0.029219 -0.074997
v -0.01867 0.029224 -0.075871
v 0.011831 0.029218 -0.074722
v 0.017948 0.029214 -0.07396
v 0.011896 0.029223 -0.075631
v -0.018492 0.029209 -0.073096
v -0.012406 0.029214 -0.074056
v -0.012479 0.029219 -0.074997
v 0.011732 0.029213 -0.073849
v 0.017948 0.029214 -0.07396
v 0.011831 0.029218 -0.074722
v -0.018492 0.029209 -0.073096
v -0.0123 0.02921 -0.073202
v -0.012406 0.029214 -0.074056
v 0.011732 0.029213 -0.073849
v 0.017556 0.029201 -0.071583
v 0.017948 0.029214 -0.07396
v 0.011596 0.029209 -0.073014
v 0.017556 0.029201 -0.071583
v 0.011732 0.029213 -0.073849
v -0.018492 0.029209 -0.073096
v -0.012159 0.029206 -0.072429
v -0.0123 0.02921 -0.073202
v -0.017979 0.029195 -0.07059
v -0.012159 0.029206 -0.072429
v -0.018492 0.029209 -0.073096
v 0.011419 0.029204 -0.072217
v 0.017556 0.029201 -0.071583
v 0.011596 0.029209 -0.073014
v -0.017979 0.029195 -0.07059
v -0.011979 0.029202 -0.071724
v -0.012159 0.029206 -0.072429
v 0.011196 0.0292 -0.071457
v 0.017556 0.029201 -0.071583
v 0.011419 0.029204 -0.072217
v -0.017979 0.029195 -0.07059
v -0.011759 0.029198 -0.071079
v -0.011979 0.029202 -0.071724
v 0.011196 0.0292 -0.071457
v 0.016901 0.029189 -0.069377
v 0.017556 0.029201 -0.071583
v 0.010923 0.029196 -0.070735
v 0.016901 0.029189 -0.069377
v 0.011196 0.0292 -0.071457
v -0.017979 0.029195 -0.07059
v -0.011496 0.029195 -0.070485
v -0.011759 0.029198 -0.071079
v 0.010596 0.029193 -0.070052
v 0.016901 0.029189 -0.069377
v 0.010923 0.029196 -0.070735
v -0.017159 0.029183 -0.068347
v -0.011496 0.029195 -0.070485
v -0.017979 0.029195 -0.07059
v -0.017159 0.029183 -0.068347
v -0.011188 0.029192 -0.069932
v -0.011496 0.029195 -0.070485
v 0.010211 0.029189 -0.069407
v 0.016901 0.029189 -0.069377
v 0.010596 0.029193 -0.070052
v -0.017159 0.029183 -0.068347
v -0.010832 0.029189 -0.06941
v -0.011188 0.029192 -0.069932
v -0.017159 0.029183 -0.068347
v -0.010426 0.029186 -0.06891
v -0.010832 0.029189 -0.06941
v 0.009764 0.029186 -0.068801
v 0.016901 0.029189 -0.069377
v 0.010211 0.029189 -0.069407
v 0.009764 0.029186 -0.068801
v 0.015984 0.029178 -0.067355
v 0.016901 0.029189 -0.069377
v -0.017159 0.029183 -0.068347
v -0.009968 0.029184 -0.068421
v -0.010426 0.029186 -0.06891
v 0.009251 0.029183 -0.068233
v 0.015984 0.029178 -0.067355
v 0.009764 0.029186 -0.068801
v -0.017159 0.029183 -0.068347
v -0.009344 0.02918 -0.067837
v -0.009968 0.029184 -0.068421
v -0.016063 0.029172 -0.066363
v -0.009344 0.02918 -0.067837
v -0.017159 0.029183 -0.068347
v 0.008736 0.02918 -0.067759
v 0.015984 0.029178 -0.067355
v 0.009251 0.029183 -0.068233
v -0.016063 0.029172 -0.066363
v -0.008695 0.029178 -0.067305
v -0.009344 0.02918 -0.067837
v 0.008161 0.029178 -0.067305
v 0.015984 0.029178 -0.067355
v 0.008736 0.02918 -0.067759
v 0.008161 0.029178 -0.067305
v 0.014804 0.029168 -0.065527
v 0.015984 0.029178 -0.067355
v 0.007528 0.029175 -0.066877
v 0.014804 0.029168 -0.065527
v 0.008161 0.029178 -0.067305
v -0.016063 0.029172 -0.066363
v -0.008019 0.029175 -0.066824
v -0.008695 0.029178 -0.067305
v 0.006835 0.029173 -0.066478
v 0.014804 0.029168 -0.065527
v 0.007528 0.029175 -0.066877
v -0.016063 0.029172 -0.066363
v -0.007318 0.029173 -0.066395
v -0.008019 0.029175 -0.066824
v 0.006085 0.029171 -0.066113
v 0.014804 0.029168 -0.065527
v 0.006835 0.029173 -0.066478
v -0.016063 0.029172 -0.066363
v -0.00659 0.029171 -0.066018
v -0.007318 0.029173 -0.066395
v -0.014721 0.029163 -0.064631
v -0.00659 0.029171 -0.066018
v -0.016063 0.029172 -0.066363
v 0.005276 0.029169 -0.065784
v 0.014804 0.029168 -0.065527
v 0.006085 0.029171 -0.066113
v -0.014721 0.029163 -0.064631
v -0.005836 0.029169 -0.065691
v -0.00659 0.029171 -0.066018
v 0.00441 0.029168 -0.065496
v 0.014804 0.029168 -0.065527
v 0.005276 0.029169 -0.065784
v -0.014721 0.029163 -0.064631
v -0.005056 0.029167 -0.065415
v -0.005836 0.029169 -0.065691
v 0.00441 0.029168 -0.065496
v 0.01336 0.029159 -0.063906
v 0.014804 0.029168 -0.065527
v 0.003487 0.029166 -0.065252
v 0.01336 0.029159 -0.063906
v 0.00441 0.029168 -0.065496
v -0.014721 0.029163 -0.064631
v -0.00425 0.029166 -0.06519
v -0.005056 0.029167 -0.065415
v 0.002508 0.029165 -0.065055
v 0.01336 0.029159 -0.063906
v 0.003487 0.029166 -0.065252
v -0.014721 0.029163 -0.064631
v -0.003418 0.029165 -0.065014
v -0.00425 0.029166 -0.06519
v 0.001472 0.029165 -0.064911
v 0.01336 0.029159 -0.063906
v 0.002508 0.029165 -0.065055
v -0.014721 0.029163 -0.064631
v -0.00256 0.029164 -0.06489
v -0.003418 0.029165 -0.065014
v 0.000381 0.029164 -0.064821
v 0.01336 0.029159 -0.063906
v 0.001472 0.029165 -0.064911
v -0.014721 0.029163 -0.064631
v -0.001676 0.029164 -0.064815
v -0.00256 0.029164 -0.06489
v -0.000765 0.029164 -0.064791
v 0.01336 0.029159 -0.063906
v 0.000381 0.029164 -0.064821
v -0.014721 0.029163 -0.064631
v -0.000765 0.029164 -0.064791
v -0.001676 0.029164 -0.064815
v -0.014721 0.029163 -0.064631
v 0.01336 0.029159 -0.063906
v -0.000765 0.029164 -0.064791
v -0.01316 0.029155 -0.063148
v 0.01336 0.029159 -0.063906
v -0.014721 0.029163 -0.064631
v -0.01316 0.029155 -0.063148
v 0.01165 0.029151 -0.062503
v 0.01336 0.029159 -0.063906
v -0.011413 0.029148 -0.061906
v 0.01165 0.029151 -0.062503
v -0.01316 0.029155 -0.063148
v -0.011413 0.029148 -0.061906
v 0.009676 0.029145 -0.061329
v 0.01165 0.029151 -0.062503
v -0.009506 0.029143 -0.060903
v 0.009676 0.029145 -0.061329
v -0.011413 0.029148 -0.061906
v -0.009506 0.029143 -0.060903
v 0.007435 0.02914 -0.060396
v 0.009676 0.029145 -0.061329
v -0.007471 0.029139 -0.060131
v 0.007435 0.02914 -0.060396
v -0.009506 0.029143 -0.060903
v -0.007471 0.029139 -0.060131
v 0.004927 0.029136 -0.059715
v 0.007435 0.02914 -0.060396
v -0.005337 0.029136 -0.059586
v 0.004927 0.029136 -0.059715
v -0.007471 0.029139 -0.060131
v -0.005337 0.029136 -0.059586
v 0.002152 0.029134 -0.059298
v 0.004927 0.029136 -0.059715
v -0.003134 0.029134 -0.059263
v 0.002152 0.029134 -0.059298
v -0.005337 0.029136 -0.059586
v -0.003134 0.029134 -0.059263
v -0.00089 0.029133 -0.059157
v 0.002152 0.029134 -0.059298
v -0.012534 0.025613 -0.102435
v -0.01867 0.025468 -0.075892
v -0.01867 0.025613 -0.102435
v -0.012534 0.025475 -0.077206
v -0.01867 0.025468 -0.075892
v -0.012534 0.025613 -0.102435
v 0.018078 0.025613 -0.102435
v 0.011943 0.025477 -0.077582
v 0.011943 0.025613 -0.102435
v 0.018078 0.025472 -0.076517
v 0.011943 0.025477 -0.077582
v 0.018078 0.025613 -0.102435
v 0.018078 0.025472 -0.076517
v 0.011932 0.025472 -0.076599
v 0.011943 0.025477 -0.077582
v -0.012521 0.025469 -0.076058
v -0.01867 0.025468 -0.075892
v -0.012534 0.025475 -0.077206
v 0.018078 0.025472 -0.076517
v 0.011896 0.025467 -0.075652
v 0.011932 0.025472 -0.076599
v 0.017948 0.025458 -0.07398
v 0.011896 0.025467 -0.075652
v 0.018078 0.025472 -0.076517
v -0.012479 0.025463 -0.075018
v -0.01867 0.025468 -0.075892
v -0.012521 0.025469 -0.076058
v -0.012479 0.025463 -0.075018
v -0.018492 0.025453 -0.073117
v -0.01867 0.025468 -0.075892
v 0.017948 0.025458 -0.07398
v 0.011831 0.025462 -0.074743
v 0.011896 0.025467 -0.075652
v -0.012406 0.025458 -0.074076
v -0.018492 0.025453 -0.073117
v -0.012479 0.025463 -0.075018
v 0.017948 0.025458 -0.07398
v 0.011732 0.025457 -0.07387
v 0.011831 0.025462 -0.074743
v -0.0123 0.025454 -0.073223
v -0.018492 0.025453 -0.073117
v -0.012406 0.025458 -0.074076
v 0.017556 0.025445 -0.071603
v 0.011732 0.025457 -0.07387
v 0.017948 0.025458 -0.07398
v 0.017556 0.025445 -0.071603
v 0.011596 0.025453 -0.073035
v 0.011732 0.025457 -0.07387
v -0.012159 0.025449 -0.072449
v -0.018492 0.025453 -0.073117
v -0.0123 0.025454 -0.073223
v -0.012159 0.025449 -0.072449
v -0.017979 0.025439 -0.070611
v -0.018492 0.025453 -0.073117
v 0.017556 0.025445 -0.071603
v 0.011419 0.025448 -0.072237
v 0.011596 0.025453 -0.073035
v -0.011979 0.025446 -0.071744
v -0.017979 0.025439 -0.070611
v -0.012159 0.025449 -0.072449
v 0.017556 0.025445 -0.071603
v 0.011196 0.025444 -0.071478
v 0.011419 0.025448 -0.072237
v -0.011759 0.025442 -0.071099
v -0.017979 0.025439 -0.070611
v -0.011979 0.025446 -0.071744
v 0.016901 0.025433 -0.069398
v 0.011196 0.025444 -0.071478
v 0.017556 0.025445 -0.071603
v 0.016901 0.025433 -0.069398
v 0.010923 0.02544 -0.070756
v 0.011196 0.025444 -0.071478
v -0.011496 0.025439 -0.070505
v -0.017979 0.025439 -0.070611
v -0.011759 0.025442 -0.071099
v 0.016901 0.025433 -0.069398
v 0.010596 0.025436 -0.070073
v 0.010923 0.02544 -0.070756
v -0.011496 0.025439 -0.070505
v -0.017159 0.025427 -0.068368
v -0.017979 0.025439 -0.070611
v -0.011188 0.025436 -0.069952
v -0.017159 0.025427 -0.068368
v -0.011496 0.025439 -0.070505
v 0.016901 0.025433 -0.069398
v 0.010211 0.025433 -0.069427
v 0.010596 0.025436 -0.070073
v -0.010832 0.025433 -0.069431
v -0.017159 0.025427 -0.068368
v -0.011188 0.025436 -0.069952
v -0.010426 0.02543 -0.06893
v -0.017159 0.025427 -0.068368
v -0.010832 0.025433 -0.069431
v 0.016901 0.025433 -0.069398
v 0.009764 0.02543 -0.068821
v 0.010211 0.025433 -0.069427
v 0.015984 0.025422 -0.067376
v 0.009764 0.02543 -0.068821
v 0.016901 0.025433 -0.069398
v -0.009968 0.025428 -0.068442
v -0.017159 0.025427 -0.068368
v -0.010426 0.02543 -0.06893
v 0.015984 0.025422 -0.067376
v 0.009251 0.025427 -0.068254
v 0.009764 0.02543 -0.068821
v -0.009344 0.025424 -0.067857
v -0.017159 0.025427 -0.068368
v -0.009968 0.025428 -0.068442
v -0.009344 0.025424 -0.067857
v -0.016063 0.025416 -0.066383
v -0.017159 0.025427 -0.068368
v 0.015984 0.025422 -0.067376
v 0.008736 0.025424 -0.067779
v 0.009251 0.025427 -0.068254
v -0.008695 0.025421 -0.067326
v -0.016063 0.025416 -0.066383
v -0.009344 0.025424 -0.067857
v 0.015984 0.025422 -0.067376
v 0.008161 0.025421 -0.067326
v 0.008736 0.025424 -0.067779
v 0.014804 0.025412 -0.065548
v 0.008161 0.025421 -0.067326
v 0.015984 0.025422 -0.067376
v 0.014804 0.025412 -0.065548
v 0.007528 0.025419 -0.066897
v 0.008161 0.025421 -0.067326
v -0.008019 0.025419 -0.066845
v -0.016063 0.025416 -0.066383
v -0.008695 0.025421 -0.067326
v 0.014804 0.025412 -0.065548
v 0.006835 0.025417 -0.066499
v 0.007528 0.025419 -0.066897
v -0.007318 0.025417 -0.066416
v -0.016063 0.025416 -0.066383
v -0.008019 0.025419 -0.066845
v 0.014804 0.025412 -0.065548
v 0.006085 0.025415 -0.066133
v 0.006835 0.025417 -0.066499
v -0.00659 0.025414 -0.066037
v -0.016063 0.025416 -0.066383
v -0.007318 0.025417 -0.066416
v -0.00659 0.025414 -0.066037
v -0.014721 0.025407 -0.064651
v -0.016063 0.025416 -0.066383
v 0.014804 0.025412 -0.065548
v 0.005276 0.025413 -0.065805
v 0.006085 0.025415 -0.066133
v -0.005836 0.025413 -0.065711
v -0.014721 0.025407 -0.064651
v -0.00659 0.025414 -0.066037
v 0.014804 0.025412 -0.065548
v 0.00441 0.025412 -0.065517
v 0.005276 0.025413 -0.065805
v -0.005056 0.025411 -0.065435
v -0.014721 0.025407 -0.064651
v -0.005836 0.025413 -0.065711
v 0.01336 0.025403 -0.063927
v 0.00441 0.025412 -0.065517
v 0.014804 0.025412 -0.065548
v 0.01336 0.025403 -0.063927
v 0.003487 0.02541 -0.065273
v 0.00441 0.025412 -0.065517
v -0.00425 0.02541 -0.06521
v -0.014721 0.025407 -0.064651
v -0.005056 0.025411 -0.065435
v 0.01336 0.025403 -0.063927
v 0.002508 0.025409 -0.065076
v 0.003487 0.02541 -0.065273
v -0.003418 0.025409 -0.065035
v -0.014721 0.025407 -0.064651
v -0.00425 0.02541 -0.06521
v 0.01336 0.025403 -0.063927
v 0.001472 0.025408 -0.064931
v 0.002508 0.025409 -0.065076
v -0.00256 0.025408 -0.064911
v -0.014721 0.025407 -0.064651
v -0.003418 0.025409 -0.065035
v 0.01336 0.025403 -0.063927
v 0.000381 0.025408 -0.064842
v 0.001472 0.025408 -0.064931
v -0.001676 0.025408 -0.064836
v -0.014721 0.025407 -0.064651
v -0.00256 0.025408 -0.064911
v 0.01336 0.025403 -0.063927
v -0.000765 0.025408 -0.064811
v 0.000381 0.025408 -0.064842
v -0.000765 0.025408 -0.064811
v -0.014721 0.025407 -0.064651
v -0.001676 0.025408 -0.064836
v 0.01336 0.025403 -0.063927
v -0.014721 0.025407 -0.064651
v -0.000765 0.025408 -0.064811
v 0.01336 0.025403 -0.063927
v -0.01316 0.025399 -0.063168
v -0.014721 0.025407 -0.064651
v 0.01165 0.025395 -0.062523
v -0.01316 0.025399 -0.063168
v 0.01336 0.025403 -0.063927
v 0.01165 0.025395 -0.062523
v -0.011413 0.025392 -0.061927
v -0.01316 0.025399 -0.063168
v 0.009676 0.025389 -0.06135
v -0.011413 0.025392 -0.061927
v 0.01165 0.025395 -0.062523
v 0.009676 0.025389 -0.06135
v -0.009506 0.025387 -0.060923
v -0.011413 0.025392 -0.061927
v 0.007435 0.025384 -0.060417
v -0.009506 0.025387 -0.060923
v 0.009676 0.025389 -0.06135
v 0.007435 0.025384 -0.060417
v -0.007471 0.025382 -0.060151
v -0.009506 0.025387 -0.060923
v 0.004927 0.02538 -0.059736
v -0.007471 0.025382 -0.060151
v 0.007435 0.025384 -0.060417
v 0.004927 0.02538 -0.059736
v -0.005337 0.025379 -0.059607
v -0.007471 0.025382 -0.060151
v 0.002152 0.025378 -0.059319
v -0.005337 0.025379 -0.059607
v 0.004927 0.02538 -0.059736
v 0.002152 0.025378 -0.059319
v -0.003134 0.025378 -0.059284
v -0.005337 0.025379 -0.059607
v -0.00089 0.025377 -0.059177
v -0.003134 0.025378 -0.059284
v 0.002152 0.025378 -0.059319
v 0.017948 0.029214 -0.07396
v 0.017556 0.029201 -0.071583
v 0.017556 0.025445 -0.071603
v 0.017948 0.025458 -0.07398
v 0.017556 0.029201 -0.071583
v 0.016901 0.029189 -0.069377
v 0.016901 0.025433 -0.069398
v 0.017556 0.025445 -0.071603
v 0.016901 0.029189 -0.069377
v 0.015984 0.029178 -0.067355
v 0.015984 0.025422 -0.067376
v 0.016901 0.025433 -0.069398
v 0.015984 0.029178 -0.067355
v 0.014804 0.029168 -0.065527
v 0.014804 0.025412 -0.065548
v 0.015984 0.025422 -0.067376
v 0.014804 0.029168 -0.065527
v 0.01336 0.029159 -0.063906
v 0.01336 0.025403 -0.063927
v 0.014804 0.025412 -0.065548
v 0.01336 0.029159 -0.063906
v 0.01165 0.029151 -0.062503
v 0.01165 0.025395 -0.062523
v 0.01336 0.025403 -0.063927
v 0.01165 0.029151 -0.062503
v 0.009676 0.029145 -0.061329
v 0.009676 0.025389 -0.06135
v 0.01165 0.025395 -0.062523
v 0.009676 0.029145 -0.061329
v 0.007435 0.02914 -0.060396
v 0.007435 0.025384 -0.060417
v 0.009676 0.025389 -0.06135
v 0.007435 0.02914 -0.060396
v 0.004927 0.029136 -0.059715
v 0.004927 0.02538 -0.059736
v 0.007435 0.025384 -0.060417
v 0.004927 0.029136 -0.059715
v 0.002152 0.029134 -0.059298
v 0.002152 0.025378 -0.059319
v 0.004927 0.02538 -0.059736
v 0.002152 0.029134 -0.059298
v -0.00089 0.029133 -0.059157
v -0.00089 0.025377 -0.059177
v 0.002152 0.025378 -0.059319
v -0.00089 0.029133 -0.059157
v -0.003134 0.029134 -0.059263
v -0.003134 0.025378 -0.059284
v -0.00089 0.025377 -0.059177
v -0.003134 0.029134 -0.059263
v -0.005337 0.029136 -0.059586
v -0.005337 0.025379 -0.059607
v -0.003134 0.025378 -0.059284
v -0.005337 0.029136 -0.059586
v -0.007471 0.029139 -0.060131
v -0.007471 0.025382 -0.060151
v -0.005337 0.025379 -0.059607
v -0.007471 0.029139 -0.060131
v -0.009506 0.029143 -0.060903
v -0.009506 0.025387 -0.060923
v -0.007471 0.025382 -0.060151
v -0.009506 0.029143 -0.060903
v -0.011413 0.029148 -0.061906
v -0.011413 0.025392 -0.061927
v -0.009506 0.025387 -0.060923
v -0.011413 0.029148 -0.061906
v -0.01316 0.029155 -0.063148
v -0.01316 0.025399 -0.063168
v -0.011413 0.025392 -0.061927
v -0.01316 0.029155 -0.063148
v -0.014721 0.029163 -0.064631
v -0.014721 0.025407 -0.064651
v -0.01316 0.025399 -0.063168
v -0.014721 0.029163 -0.064631
v -0.016063 0.029172 -0.066363
v -0.016063 0.025416 -0.066383
v -0.014721 0.025407 -0.064651
v -0.016063 0.029172 -0.066363
v -0.017159 0.029183 -0.068347
v -0.017159 0.025427 -0.068368
v -0.016063 0.025416 -0.066383
v -0.017159 0.029183 -0.068347
v -0.017979 0.029195 -0.07059
v -0.017979 0.025439 -0.070611
v -0.017159 0.025427 -0.068368
v -0.017979 0.029195 -0.07059
v -0.018492 0.029209 -0.073096
v -0.018492 0.025453 -0.073117
v -0.017979 0.025439 -0.070611
v -0.018492 0.029209 -0.073096
v -0.01867 0.029224 -0.075871
v -0.01867 0.025468 -0.075892
v -0.018492 0.025453 -0.073117
v -0.01867 0.029224 -0.075871
v -0.01867 0.029369 -0.102414
v -0.01867 0.025613 -0.102435
v -0.01867 0.025468 -0.075892
v -0.01867 0.029369 -0.102414
v -0.012534 0.029369 -0.102414
v -0.012534 0.025613 -0.102435
v -0.01867 0.025613 -0.102435
v -0.012534 0.029369 -0.102414
v -0.012534 0.029231 -0.077186
v -0.012534 0.025475 -0.077206
v -0.012534 0.025613 -0.102435
v -0.012534 0.029231 -0.077186
v -0.012521 0.029225 -0.076038
v -0.012521 0.025469 -0.076058
v -0.012534 0.025475 -0.077206
v -0.012521 0.029225 -0.076038
v -0.012479 0.029219 -0.074997
v -0.012479 0.025463 -0.075018
v -0.012521 0.025469 -0.076058
v -0.012479 0.029219 -0.074997
v -0.012406 0.029214 -0.074056
v -0.012406 0.025458 -0.074076
v -0.012479 0.025463 -0.075018
v -0.012406 0.029214 -0.074056
v -0.0123 0.02921 -0.073202
v -0.0123 0.025454 -0.073223
v -0.012406 0.025458 -0.074076
v -0.0123 0.02921 -0.073202
v -0.012159 0.029206 -0.072429
v -0.012159 0.025449 -0.072449
v -0.0123 0.025454 -0.073223
v -0.012159 0.029206 -0.072429
v -0.011979 0.029202 -0.071724
v -0.011979 0.025446 -0.071744
v -0.012159 0.025449 -0.072449
v -0.011979 0.029202 -0.071724
v -0.011759 0.029198 -0.071079
v -0.011759 0.025442 -0.071099
v -0.011979 0.025446 -0.071744
v -0.011759 0.029198 -0.071079
v -0.011496 0.029195 -0.070485
v -0.011496 0.025439 -0.070505
v -0.011759 0.025442 -0.071099
v -0.011496 0.029195 -0.070485
v -0.011188 0.029192 -0.069932
v -0.011188 0.025436 -0.069952
v -0.011496 0.025439 -0.070505
v -0.011188 0.029192 -0.069932
v -0.010832 0.029189 -0.06941
v -0.010832 0.025433 -0.069431
v -0.011188 0.025436 -0.069952
v -0.010832 0.029189 -0.06941
v -0.010426 0.029186 -0.06891
v -0.010426 0.02543 -0.06893
v -0.010832 0.025433 -0.069431
v -0.010426 0.029186 -0.06891
v -0.009968 0.029184 -0.068421
v -0.009968 0.025428 -0.068442
v -0.010426 0.02543 -0.06893
v -0.009968 0.029184 -0.068421
v -0.009344 0.02918 -0.067837
v -0.009344 0.025424 -0.067857
v -0.009968 0.025428 -0.068442
v -0.009344 0.02918 -0.067837
v -0.008695 0.029178 -0.067305
v -0.008695 0.025421 -0.067326
v -0.009344 0.025424 -0.067857
v -0.008695 0.029178 -0.067305
v -0.008019 0.029175 -0.066824
v -0.008019 0.025419 -0.066845
v -0.008695 0.025421 -0.067326
v -0.008019 0.029175 -0.066824
v -0.007318 0.029173 -0.066395
v -0.007318 0.025417 -0.066416
v -0.008019 0.025419 -0.066845
v -0.007318 0.029173 -0.066395
v -0.00659 0.029171 -0.066018
v -0.00659 0.025414 -0.066037
v -0.007318 0.025417 -0.066416
v -0.00659 0.029171 -0.066018
v -0.005836 0.029169 -0.065691
v -0.005836 0.025413 -0.065711
v -0.00659 0.025414 -0.066037
v -0.005836 0.029169 -0.065691
v -0.005056 0.029167 -0.065415
v -0.005056 0.025411 -0.065435
v -0.005836 0.025413 -0.065711
v -0.005056 0.029167 -0.065415
v -0.00425 0.029166 -0.06519
v -0.00425 0.02541 -0.06521
v -0.005056 0.025411 -0.065435
v -0.00425 0.029166 -0.06519
v -0.003418 0.029165 -0.065014
v -0.003418 0.025409 -0.065035
v -0.00425 0.02541 -0.06521
v -0.003418 0.029165 -0.065014
v -0.00256 0.029164 -0.06489
v -0.00256 0.025408 -0.064911
v -0.003418 0.025409 -0.065035
v -0.00256 0.029164 -0.06489
v -0.001676 0.029164 -0.064815
v -0.001676 0.025408 -0.064836
v -0.00256 0.025408 -0.064911
v -0.001676 0.029164 -0.064815
v -0.000765 0.029164 -0.064791
v -0.000765 0.025408 -0.064811
v -0.001676 0.025408 -0.064836
v -0.000765 0.029164 -0.064791
v 0.000381 0.029164 -0.064821
v 0.000381 0.025408 -0.064842
v -0.000765 0.025408 -0.064811
v 0.000381 0.029164 -0.064821
v 0.001472 0.029165 -0.064911
v 0.001472 0.025408 -0.064931
v 0.000381 0.025408 -0.064842
v 0.001472 0.029165 -0.064911
v 0.002508 0.029165 -0.065055
v 0.002508 0.025409 -0.065076
v 0.001472 0.025408 -0.064931
v 0.002508 0.029165 -0.065055
v 0.003487 0.029166 -0.065252
v 0.003487 0.02541 -0.065273
v 0.002508 0.025409 -0.065076
v 0.003487 0.029166 -0.065252
v 0.00441 0.029168 -0.065496
v 0.00441 0.025412 -0.065517
v 0.003487 0.02541 -0.065273
v 0.00441 0.029168 -0.065496
v 0.005276 0.029169 -0.065784
v 0.005276 0.025413 -0.065805
v 0.00441 0.025412 -0.065517
v 0.005276 0.029169 -0.065784
v 0.006085 0.029171 -0.066113
v 0.006085 0.025415 -0.066133
v 0.005276 0.025413 -0.065805
v 0.006085 0.029171 -0.066113
v 0.006835 0.029173 -0.066478
v 0.006835 0.025417 -0.066499
v 0.006085 0.025415 -0.066133
v 0.006835 0.029173 -0.066478
v 0.007528 0.029175 -0.066877
v 0.007528 0.025419 -0.066897
v 0.006835 0.025417 -0.066499
v 0.007528 0.029175 -0.066877
v 0.008161 0.029178 -0.067305
v 0.008161 0.025421 -0.067326
v 0.007528 0.025419 -0.066897
v 0.008161 0.029178 -0.067305
v 0.008736 0.02918 -0.067759
v 0.008736 0.025424 -0.067779
v 0.008161 0.025421 -0.067326
v 0.008736 0.02918 -0.067759
v 0.009251 0.029183 -0.068233
v 0.009251 0.025427 -0.068254
v 0.008736 0.025424 -0.067779
v 0.009251 0.029183 -0.068233
v 0.009764 0.029186 -0.068801
v 0.009764 0.02543 -0.068821
v 0.009251 0.025427 -0.068254
v 0.009764 0.029186 -0.068801
v 0.010211 0.029189 -0.069407
v 0.010211 0.025433 -0.069427
v 0.009764 0.02543 -0.068821
v 0.010211 0.029189 -0.069407
v 0.010596 0.029193 -0.070052
v 0.010596 0.025436 -0.070073
v 0.010211 0.025433 -0.069427
v 0.010596 0.029193 -0.070052
v 0.010923 0.029196 -0.070735
v 0.010923 0.02544 -0.070756
v 0.010596 0.025436 -0.070073
v 0.010923 0.029196 -0.070735
v 0.011196 0.0292 -0.071457
v 0.011196 0.025444 -0.071478
v 0.010923 0.02544 -0.070756
v 0.011196 0.0292 -0.071457
v 0.011419 0.029204 -0.072217
v 0.011419 0.025448 -0.072237
v 0.011196 0.025444 -0.071478
v 0.011419 0.029204 -0.072217
v 0.011596 0.029209 -0.073014
v 0.011596 0.025453 -0.073035
v 0.011419 0.025448 -0.072237
v 0.011596 0.029209 -0.073014
v 0.011732 0.029213 -0.073849
v 0.011732 0.025457 -0.07387
v 0.011596 0.025453 -0.073035
v 0.011732 0.029213 -0.073849
v 0.011831 0.029218 -0.074722
v 0.011831 0.025462 -0.074743
v 0.011732 0.025457 -0.07387
v 0.011831 0.029218 -0.074722
v 0.011896 0.029223 -0.075631
v 0.011896 0.025467 -0.075652
v 0.011831 0.025462 -0.074743
v 0.011896 0.029223 -0.075631
v 0.011932 0.029228 -0.076578
v 0.011932 0.025472 -0.076599
v 0.011896 0.025467 -0.075652
v 0.011932 0.029228 -0.076578
v 0.011943 0.029233 -0.077561
v 0.011943 0.025477 -0.077582
v 0.011932 0.025472 -0.076599
v 0.011943 0.029233 -0.077561
v 0.011943 0.029369 -0.102414
v 0.011943 0.025613 -0.102435
v 0.011943 0.025477 -0.077582
v 0.011943 0.029369 -0.102414
v 0.018078 0.029369 -0.102414
v 0.018078 0.025613 -0.102435
v 0.011943 0.025613 -0.102435
v 0.018078 0.029369 -0.102414
v 0.018078 0.029228 -0.076497
v 0.018078 0.025472 -0.076517
v 0.018078 0.025613 -0.102435
v 0.018078 0.029228 -0.076497
v 0.017948 0.029214 -0.07396
v 0.017948 0.025458 -0.07398
v 0.018078 0.025472 -0.076517
vn -0 1 0.0054
vn -0 1 0.0055
vn -0 1 0.0055
vn -0 1 0.0054
vn -0 1 0.0054
vn -0 1 0.0055
vn -0.0001 1 0.0053
vn -0 1 0.0055
vn -0 1 0.0055
vn -0.0001 1 0.0053
vn -0.0001 1 0.0054
vn -0 1 0.0055
vn -0.0001 1 0.0052
vn -0.0001 1 0.0054
vn -0.0001 1 0.0053
vn -0 1 0.0054
vn -0 1 0.0055
vn -0 1 0.0054
vn -0 1 0.0054
vn -0.0001 1 0.0054
vn -0.0001 1 0.0052
vn -0 1 0.0054
vn -0 1 0.0055
vn -0.0001 1 0.0054
vn -0 1 0.0054
vn -0 1 0.0055
vn -0 1 0.0055
vn -0 1 0.0054
vn -0 1 0.0055
vn -0 1 0.0054
vn -0 1 0.0056
vn -0 1 0.0055
vn -0 1 0.0054
vn -0 1 0.0054
vn -0 1 0.005
vn -0 1 0.0055
vn -0 1 0.0053
vn -0 1 0.0055
vn -0 1 0.0056
vn -0 1 0.0054
vn -0 1 0.0054
vn -0 1 0.005
vn -0 1 0.0053
vn -0.0001 1 0.0054
vn -0 1 0.0055
vn -0 1 0.0055
vn -0.0001 1 0.0054
vn -0 1 0.0053
vn -0 1 0.0054
vn -0.0001 1 0.0055
vn -0 1 0.0054
vn -0.0001 1 0.0055
vn -0.0001 1 0.0055
vn -0 1 0.0054
vn -0.0001 1 0.0057
vn -0.0001 1 0.0054
vn -0 1 0.0055
vn -0.0001 1 0.0055
vn -0 1 0.0056
vn -0.0001 1 0.0055
vn -0.0001 1 0.0054
vn -0.0001 1 0.0054
vn -0.0001 1 0.0057
vn -0.0001 1 0.0055
vn -0 1 0.0055
vn -0 1 0.0056
vn -0.0001 1 0.0054
vn -0 1 0.0054
vn -0.0001 1 0.0054
vn 0.0001 1 0.0049
vn -0 1 0.0054
vn -0.0001 1 0.0054
vn -0.0001 1 0.0055
vn -0.0001 1 0.0053
vn -0 1 0.0055
vn -0 1 0.0055
vn -0 1 0.0054
vn 0.0001 1 0.0049
vn -0 1 0.0055
vn -0.0001 1 0.0053
vn -0.0001 1 0.0055
vn -0 1 0.0055
vn -0.0001 1 0.0051
vn -0.0001 1 0.0053
vn -0 1 0.0053
vn -0 1 0.0054
vn -0 1 0.0055
vn -0 1 0.0055
vn -0 1 0.0059
vn -0.0001 1 0.0051
vn -0 1 0.0055
vn -0 1 0.0054
vn -0 1 0.0059
vn -0 1 0.0052
vn -0 1 0.0054
vn -0 1 0.0053
vn -0 1 0.0052
vn -0 1 0.0055
vn -0 1 0.0054
vn -0 1 0.0055
vn -0 1 0.0059
vn -0 1 0.0054
vn -0 1 0.0054
vn -0 1 0.0055
vn -0 1 0.0052
vn -0 1 0.0055
vn -0.0001 1 0.0052
vn -0 1 0.0059
vn -0 1 0.0054
vn -0.0001 1 0.0052
vn -0 1 0.0055
vn -0 1 0.0054
vn -0 1 0.0055
vn -0 1 0.0054
vn -0 1 0.0054
vn -0.0001 1 0.0057
vn -0.0001 1 0.0052
vn -0 1 0.0058
vn -0 1 0.0055
vn -0 1 0.0054
vn -0 1 0.0058
vn -0 1 0.0055
vn -0 1 0.0055
vn -0 1 0.0054
vn -0 1 0.0055
vn -0 1 0.0058
vn -0 1 0.0054
vn -0 1 0.0054
vn -0.0001 1 0.0057
vn -0 1 0.0054
vn -0 1 0.0055
vn -0 1 0.0054
vn -0 1 0.0054
vn -0.0001 1 0.0054
vn -0 1 0.0054
vn -0 1 0.0058
vn -0 1 0.0055
vn -0 1 0.0054
vn -0 1 0.0054
vn -0 1 0.0059
vn -0.0001 1 0.0054
vn -0.0001 1 0.0053
vn -0 1 0.0059
vn -0 1 0.0054
vn -0 1 0.0054
vn -0 1 0.0055
vn -0 1 0.0058
vn -0.0001 1 0.0053
vn -0 1 0.0056
vn -0 1 0.0059
vn -0.0001 1 0.0057
vn -0 1 0.0055
vn -0 1 0.0054
vn -0.0001 1 0.0053
vn -0 1 0.0056
vn -0 1 0.0056
vn -0.0001 1 0.0057
vn -0 1 0.0056
vn -0 1 0.0055
vn -0 1 0.0054
vn -0 1 0.0056
vn -0.0001 1 0.0057
vn -0.0001 1 0.0053
vn -0 1 0.0055
vn -0 1 0.0056
vn -0 1 0.0053
vn -0 1 0.0056
vn -0 1 0.0054
vn -0.0001 1 0.0053
vn -0 1 0.0057
vn -0 1 0.0055
vn -0 1 0.0054
vn -0 1 0.0056
vn -0 1 0.0053
vn -0.0001 1 0.0053
vn -0 1 0.0053
vn -0 1 0.0057
vn -0 1 0.0053
vn -0 1 0.0056
vn -0 1 0.0054
vn -0.0001 1 0.0053
vn -0 1 0.0056
vn -0 1 0.0053
vn -0 1 0.0056
vn -0 1 0.0056
vn -0 1 0.0053
vn -0.0001 1 0.0053
vn -0 1 0.0056
vn -0 1 0.0056
vn -0.0001 1 0.0053
vn -0 1 0.0056
vn -0 1 0.0056
vn -0 1 0.0054
vn -0 1 0.0056
vn -0.0001 1 0.0053
vn -0 1 0.0054
vn -0 1 0.0056
vn -0 1 0.0056
vn -0 1 0.0055
vn -0 1 0.0056
vn -0 1 0.0054
vn -0 1 0.0055
vn -0 1 0.0051
vn -0 1 0.0056
vn -0 1 0.0053
vn -0 1 0.0051
vn -0 1 0.0055
vn -0 1 0.0053
vn -0 1 0.0054
vn -0 1 0.0051
vn -0 1 0.0051
vn -0 1 0.0054
vn -0 1 0.0053
vn -0 1 0.0051
vn -0 1 0.0054
vn -0 1 0.0054
vn 0.0001 1 0.0053
vn -0 1 0.0054
vn -0 1 0.0051
vn 0.0001 1 0.0053
vn 0.0001 1 0.0053
vn -0 1 0.0054
vn -0 1 0.006
vn 0.0001 1 0.0053
vn 0.0001 1 0.0053
vn -0 1 0.006
vn -0 1 0.0052
vn 0.0001 1 0.0053
vn -0 -1 -0.0055
vn -0 -1 -0.0054
vn -0 -1 -0.0055
vn -0 -1 -0.0054
vn -0 -1 -0.0054
vn -0 -1 -0.0055
vn -0 -1 -0.0055
vn 0.0001 -1 -0.0053
vn -0 -1 -0.0055
vn 0.0001 -1 -0.0054
vn 0.0001 -1 -0.0053
vn -0 -1 -0.0055
vn 0.0001 -1 -0.0054
vn 0.0001 -1 -0.0052
vn 0.0001 -1 -0.0053
vn -0 -1 -0.0055
vn -0 -1 -0.0054
vn -0 -1 -0.0054
vn 0.0001 -1 -0.0054
vn -0 -1 -0.0054
vn 0.0001 -1 -0.0052
vn 0.0001 -1 -0.0055
vn -0 -1 -0.0054
vn 0.0001 -1 -0.0054
vn -0 -1 -0.0055
vn -0 -1 -0.0054
vn -0 -1 -0.0055
vn -0 -1 -0.0055
vn -0 -1 -0.0055
vn -0 -1 -0.0054
vn 0.0001 -1 -0.0055
vn -0 -1 -0.0056
vn -0 -1 -0.0054
vn -0 -1 -0.005
vn -0 -1 -0.0055
vn -0 -1 -0.0055
vn 0.0001 -1 -0.0055
vn -0 -1 -0.0053
vn -0 -1 -0.0056
vn 0.0001 -1 -0.0057
vn -0 -1 -0.0055
vn -0 -1 -0.005
vn 0.0001 -1 -0.0054
vn -0 -1 -0.0053
vn 0.0001 -1 -0.0055
vn 0.0001 -1 -0.0054
vn -0 -1 -0.0055
vn -0 -1 -0.0053
vn 0.0002 -1 -0.0054
vn -0 -1 -0.0055
vn 0.0001 -1 -0.0057
vn 0.0002 -1 -0.0054
vn -0 -1 -0.0055
vn -0 -1 -0.0055
vn 0.0001 -1 -0.0054
vn 0.0001 -1 -0.0057
vn -0 -1 -0.0055
vn 0.0002 -1 -0.0053
vn -0 -1 -0.0055
vn 0.0002 -1 -0.0054
vn 0.0001 -1 -0.0054
vn 0.0001 -1 -0.0054
vn 0.0001 -1 -0.0057
vn -0 -1 -0.0055
vn -0 -1 -0.0055
vn 0.0002 -1 -0.0053
vn -0 -1 -0.0054
vn 0.0001 -1 -0.0054
vn 0.0001 -1 -0.0054
vn -0 -1 -0.0054
vn 0.0001 -1 -0.0057
vn 0.0001 -1 -0.0054
vn 0.0001 -1 -0.0053
vn -0 -1 -0.0055
vn -0 -1 -0.0055
vn -0 -1 -0.0054
vn -0 -1 -0.0056
vn 0.0001 -1 -0.0057
vn 0.0001 -1 -0.0053
vn -0 -1 -0.0055
vn -0 -1 -0.0055
vn -0 -1 -0.0056
vn -0 -1 -0.0055
vn 0.0001 -1 -0.0053
vn -0 -1 -0.0054
vn -0 -1 -0.0048
vn -0 -1 -0.0056
vn -0 -1 -0.0055
vn -0 -1 -0.0055
vn -0 -1 -0.0056
vn -0 -1 -0.005
vn -0 -1 -0.0055
vn -0 -1 -0.0055
vn -0 -1 -0.0054
vn -0 -1 -0.0052
vn -0 -1 -0.0048
vn -0 -1 -0.0055
vn -0 -1 -0.0052
vn -0 -1 -0.0054
vn -0 -1 -0.0059
vn -0 -1 -0.0055
vn -0 -1 -0.005
vn -0 -1 -0.0055
vn -0 -1 -0.006
vn -0 -1 -0.0052
vn -0 -1 -0.0059
vn -0 -1 -0.0055
vn -0 -1 -0.0059
vn -0 -1 -0.0059
vn -0 -1 -0.0054
vn -0 -1 -0.0055
vn -0 -1 -0.0055
vn -0 -1 -0.0058
vn -0 -1 -0.006
vn -0 -1 -0.0052
vn -0 -1 -0.0054
vn -0 -1 -0.0059
vn -0 -1 -0.0055
vn -0 -1 -0.0052
vn -0 -1 -0.0058
vn 0.0001 -1 -0.0054
vn -0 -1 -0.0052
vn -0 -1 -0.0055
vn 0.0001 -1 -0.0054
vn -0 -1 -0.0059
vn -0 -1 -0.0052
vn -0 -1 -0.0053
vn -0 -1 -0.0054
vn -0 -1 -0.0052
vn 0.0001 -1 -0.0054
vn -0 -1 -0.0053
vn -0 -1 -0.0059
vn -0 -1 -0.0054
vn -0 -1 -0.0054
vn -0 -1 -0.0053
vn 0.0001 -1 -0.0054
vn 0.0001 -1 -0.0059
vn -0 -1 -0.0053
vn 0.0001 -1 -0.005
vn -0 -1 -0.0054
vn -0 -1 -0.0054
vn 0.0001 -1 -0.005
vn -0 -1 -0.0052
vn -0 -1 -0.0054
vn 0.0001 -1 -0.0054
vn -0 -1 -0.0053
vn 0.0001 -1 -0.0059
vn -0 -1 -0.0055
vn -0 -1 -0.0052
vn 0.0001 -1 -0.005
vn 0.0001 -1 -0.0054
vn -0 -1 -0.0055
vn -0 -1 -0.0053
vn -0 -1 -0.0054
vn -0 -1 -0.0052
vn -0 -1 -0.0055
vn -0 -1 -0.0053
vn -0 -1 -0.0055
vn 0.0001 -1 -0.0054
vn -0 -1 -0.0053
vn -0 -1 -0.0054
vn -0 -1 -0.0055
vn -0 -1 -0.0055
vn -0 -1 -0.0052
vn -0 -1 -0.0054
vn -0 -1 -0.0053
vn -0 -1 -0.0056
vn -0 -1 -0.0054
vn -0 -1 -0.0056
vn -0 -1 -0.0052
vn -0 -1 -0.0055
vn -0 -1 -0.0053
vn -0 -1 -0.0056
vn -0 -1 -0.0056
vn -0 -1 -0.0054
vn -0 -1 -0.0052
vn -0 -1 -0.0056
vn -0 -1 -0.0053
vn -0 -1 -0.0053
vn -0 -1 -0.0056
vn -0 -1 -0.0053
vn -0 -1 -0.0052
vn -0 -1 -0.0054
vn -0 -1 -0.0053
vn -0 -1 -0.0056
vn -0 -1 -0.0053
vn -0 -1 -0.0056
vn -0 -1 -0.0052
vn -0 -1 -0.0053
vn -0 -1 -0.0053
vn -0 -1 -0.0052
vn -0 -1 -0.0056
vn -0 -1 -0.0053
vn -0 -1 -0.0054
vn -0 -1 -0.0052
vn -0 -1 -0.0056
vn -0 -1 -0.0054
vn -0 -1 -0.0053
vn -0 -1 -0.0056
vn -0 -1 -0.0055
vn -0 -1 -0.0054
vn -0 -1 -0.0052
vn -0 -1 -0.0055
vn -0 -1 -0.0056
vn -0 -1 -0.0052
vn -0 -1 -0.0055
vn -0 -1 -0.0055
vn -0 -1 -0.0054
vn -0 -1 -0.0055
vn -0 -1 -0.0052
vn -0 -1 -0.0054
vn -0 -1 -0.0058
vn -0 -1 -0.0055
vn -0 -1 -0.005
vn -0 -1 -0.0058
vn -0 -1 -0.0054
vn -0 -1 -0.005
vn -0 -1 -0.0055
vn -0 -1 -0.0058
vn -0 -1 -0.0055
vn -0 -1 -0.0055
vn -0 -1 -0.005
vn -0 -1 -0.0055
vn -0 -1 -0.0055
vn -0 -1 -0.0055
vn -0 -1 -0.0052
vn -0 -1 -0.0055
vn -0 -1 -0.0055
vn 0.9942 -0.0006 0.1071
vn 0.9746 -0.0012 0.2241
vn 0.9746 -0.0012 0.2241
vn 0.9942 -0.0006 0.1071
vn 0.9746 -0.0012 0.2241
vn 0.9369 -0.0019 0.3497
vn 0.9369 -0.0019 0.3497
vn 0.9746 -0.0012 0.2241
vn 0.9369 -0.0019 0.3497
vn 0.8778 -0.0027 0.479
vn 0.8778 -0.0027 0.479
vn 0.9369 -0.0019 0.3497
vn 0.8778 -0.0027 0.479
vn 0.7958 -0.0034 0.6055
vn 0.7958 -0.0034 0.6055
vn 0.8778 -0.0027 0.479
vn 0.7958 -0.0034 0.6055
vn 0.6927 -0.004 0.7212
vn 0.6927 -0.004 0.7212
vn 0.7958 -0.0034 0.6055
vn 0.6927 -0.004 0.7212
vn 0.5744 -0.0045 0.8186
vn 0.5744 -0.0045 0.8186
vn 0.6927 -0.004 0.7212
vn 0.5744 -0.0045 0.8186
vn 0.4488 -0.0049 0.8936
vn 0.4488 -0.0049 0.8936
vn 0.5744 -0.0045 0.8186
vn 0.4488 -0.0049 0.8936
vn 0.3239 -0.0053 0.9461
vn 0.3239 -0.0053 0.9461
vn 0.4488 -0.0049 0.8936
vn 0.3239 -0.0053 0.9461
vn 0.2057 -0.0055 0.9786
vn 0.2057 -0.0055 0.9786
vn 0.3239 -0.0053 0.9461
vn 0.2057 -0.0055 0.9786
vn 0.0977 -0.0055 0.9952
vn 0.0977 -0.0055 0.9952
vn 0.2057 -0.0055 0.9786
vn 0.0977 -0.0055 0.9952
vn -0.0005 -0.0055 1
vn -0.0005 -0.0055 1
vn 0.0977 -0.0055 0.9952
vn -0.0005 -0.0055 1
vn -0.0964 -0.0055 0.9953
vn -0.0964 -0.0055 0.9953
vn -0.0005 -0.0055 1
vn -0.0964 -0.0055 0.9953
vn -0.1964 -0.0054 0.9805
vn -0.1964 -0.0054 0.9805
vn -0.0964 -0.0055 0.9953
vn -0.1964 -0.0054 0.9805
vn -0.3014 -0.0051 0.9535
vn -0.3014 -0.0051 0.9535
vn -0.1964 -0.0054 0.9805
vn -0.3014 -0.0051 0.9535
vn -0.411 -0.0049 0.9116
vn -0.411 -0.0049 0.9116
vn -0.3014 -0.0051 0.9535
vn -0.411 -0.0049 0.9116
vn -0.5236 -0.0046 0.8519
vn -0.5237 -0.0046 0.8519
vn -0.411 -0.0049 0.9116
vn -0.5236 -0.0046 0.8519
vn -0.6356 -0.0042 0.772
vn -0.6356 -0.0042 0.772
vn -0.5237 -0.0046 0.8519
vn -0.6356 -0.0042 0.772
vn -0.7418 -0.0036 0.6707
vn -0.7418 -0.0036 0.6707
vn -0.6356 -0.0042 0.772
vn -0.7418 -0.0036 0.6707
vn -0.8354 -0.003 0.5496
vn -0.8352 -0.0031 0.55
vn -0.7418 -0.0036 0.6707
vn -0.8354 -0.003 0.5496
vn -0.91 -0.0023 0.4146
vn -0.91 -0.0023 0.4146
vn -0.8352 -0.0031 0.55
vn -0.91 -0.0023 0.4146
vn -0.9621 -0.0015 0.2727
vn -0.9621 -0.0015 0.2727
vn -0.91 -0.0023 0.4146
vn -0.9621 -0.0015 0.2727
vn -0.9912 -0.0007 0.1326
vn -0.9912 -0.0007 0.1326
vn -0.9621 -0.0015 0.2727
vn -0.9912 -0.0007 0.1326
vn -0.9995 -0.0002 0.032
vn -0.9995 -0.0002 0.032
vn -0.9912 -0.0007 0.1326
vn -0.9995 -0.0002 0.032
vn -0.7071 0.004 -0.7071
vn -0.7071 0.004 -0.7071
vn -0.9995 -0.0002 0.032
vn -0.7071 0.004 -0.7071
vn 0.7071 0.004 -0.7071
vn 0.7071 0.004 -0.7071
vn -0.7071 0.004 -0.7071
vn 0.7071 0.004 -0.7071
vn 1 -0 -0.006
vn 1 -0 -0.006
vn 0.7071 0.004 -0.7071
vn 1 -0 -0.006
vn 0.9997 0.0001 -0.0262
vn 0.9997 0.0001 -0.0258
vn 1 -0 -0.006
vn 0.9997 0.0001 -0.0262
vn 0.9983 0.0003 -0.0588
vn 0.9983 0.0003 -0.0588
vn 0.9997 0.0001 -0.0258
vn 0.9983 0.0003 -0.0588
vn 0.995 0.0005 -0.1003
vn 0.995 0.0005 -0.1003
vn 0.9983 0.0003 -0.0588
vn 0.995 0.0005 -0.1003
vn 0.9884 0.0008 -0.1517
vn 0.9884 0.0008 -0.1518
vn 0.995 0.0005 -0.1003
vn 0.9884 0.0008 -0.1517
vn 0.9768 0.0012 -0.2139
vn 0.9768 0.0012 -0.2139
vn 0.9884 0.0008 -0.1518
vn 0.9768 0.0012 -0.2139
vn 0.9584 0.0015 -0.2853
vn 0.9584 0.0015 -0.2853
vn 0.9768 0.0012 -0.2139
vn 0.9584 0.0015 -0.2853
vn 0.9313 0.0019 -0.3642
vn 0.9313 0.0019 -0.3642
vn 0.9584 0.0015 -0.2853
vn 0.9313 0.0019 -0.3642
vn 0.8949 0.0024 -0.4462
vn 0.8949 0.0024 -0.4462
vn 0.9313 0.0019 -0.3642
vn 0.8949 0.0024 -0.4462
vn 0.8507 0.0028 -0.5257
vn 0.8507 0.0028 -0.5257
vn 0.8949 0.0024 -0.4462
vn 0.8507 0.0028 -0.5257
vn 0.802 0.0033 -0.5974
vn 0.8019 0.0033 -0.5974
vn 0.8507 0.0028 -0.5257
vn 0.802 0.0033 -0.5974
vn 0.7535 0.0036 -0.6574
vn 0.7536 0.0036 -0.6574
vn 0.8019 0.0033 -0.5974
vn 0.7535 0.0036 -0.6574
vn 0.7069 0.0039 -0.7073
vn 0.707 0.0039 -0.7073
vn 0.7536 0.0036 -0.6574
vn 0.7069 0.0039 -0.7073
vn 0.659 0.0041 -0.7522
vn 0.659 0.0041 -0.7522
vn 0.707 0.0039 -0.7073
vn 0.659 0.0041 -0.7522
vn 0.607 0.0044 -0.7947
vn 0.6074 0.0042 -0.7944
vn 0.659 0.0041 -0.7522
vn 0.607 0.0044 -0.7947
vn 0.5512 0.0047 -0.8344
vn 0.5512 0.0047 -0.8343
vn 0.6074 0.0042 -0.7944
vn 0.5512 0.0047 -0.8344
vn 0.4914 0.0047 -0.8709
vn 0.4914 0.0047 -0.8709
vn 0.5512 0.0047 -0.8343
vn 0.4914 0.0047 -0.8709
vn 0.4294 0.0047 -0.9031
vn 0.4294 0.0047 -0.9031
vn 0.4914 0.0047 -0.8709
vn 0.4294 0.0047 -0.9031
vn 0.3657 0.0049 -0.9307
vn 0.3661 0.0051 -0.9306
vn 0.4294 0.0047 -0.9031
vn 0.3657 0.0049 -0.9307
vn 0.3014 0.0051 -0.9535
vn 0.3014 0.0051 -0.9535
vn 0.3661 0.0051 -0.9306
vn 0.3014 0.0051 -0.9535
vn 0.2375 0.0053 -0.9714
vn 0.2378 0.0052 -0.9713
vn 0.3014 0.0051 -0.9535
vn 0.2375 0.0053 -0.9714
vn 0.1748 0.0054 -0.9846
vn 0.1748 0.0054 -0.9846
vn 0.2378 0.0052 -0.9713
vn 0.1748 0.0054 -0.9846
vn 0.1138 0.0056 -0.9935
vn 0.1138 0.0056 -0.9935
vn 0.1748 0.0054 -0.9846
vn 0.1138 0.0056 -0.9935
vn 0.0557 0.0055 -0.9984
vn 0.0557 0.0055 -0.9984
vn 0.1138 0.0056 -0.9935
vn 0.0557 0.0055 -0.9984
vn 0.0001 0.0055 -1
vn 0.0001 0.0055 -1
vn 0.0557 0.0055 -0.9984
vn 0.0001 0.0055 -1
vn -0.0542 0.0054 -0.9985
vn -0.0545 0.0054 -0.9985
vn 0.0001 0.0055 -1
vn -0.0542 0.0054 -0.9985
vn -0.11 0.0054 -0.9939
vn -0.11 0.0054 -0.9939
vn -0.0545 0.0054 -0.9985
vn -0.11 0.0054 -0.9939
vn -0.1675 0.0054 -0.9859
vn -0.1678 0.0054 -0.9858
vn -0.11 0.0054 -0.9939
vn -0.1675 0.0054 -0.9859
vn -0.2262 0.0053 -0.9741
vn -0.2261 0.0053 -0.9741
vn -0.1678 0.0054 -0.9858
vn -0.2262 0.0053 -0.9741
vn -0.2861 0.0052 -0.9582
vn -0.286 0.0052 -0.9582
vn -0.2261 0.0053 -0.9741
vn -0.2861 0.0052 -0.9582
vn -0.3461 0.0052 -0.9382
vn -0.3461 0.0052 -0.9382
vn -0.286 0.0052 -0.9582
vn -0.3461 0.0052 -0.9382
vn -0.4074 0.005 -0.9132
vn -0.4074 0.005 -0.9132
vn -0.3461 0.0052 -0.9382
vn -0.4074 0.005 -0.9132
vn -0.4686 0.0048 -0.8834
vn -0.4686 0.0048 -0.8834
vn -0.4074 0.005 -0.9132
vn -0.4686 0.0048 -0.8834
vn -0.5293 0.0046 -0.8484
vn -0.5296 0.0046 -0.8482
vn -0.4686 0.0048 -0.8834
vn -0.5293 0.0046 -0.8484
vn -0.5899 0.0044 -0.8074
vn -0.5899 0.0044 -0.8074
vn -0.5296 0.0046 -0.8482
vn -0.5899 0.0044 -0.8074
vn -0.6489 0.0042 -0.7608
vn -0.6491 0.0041 -0.7607
vn -0.5899 0.0044 -0.8074
vn -0.6489 0.0042 -0.7608
vn -0.7105 0.0038 -0.7037
vn -0.7105 0.0038 -0.7037
vn -0.6491 0.0041 -0.7607
vn -0.7105 0.0038 -0.7037
vn -0.7742 0.0034 -0.6329
vn -0.7743 0.0034 -0.6329
vn -0.7105 0.0038 -0.7037
vn -0.7742 0.0034 -0.6329
vn -0.8328 0.003 -0.5536
vn -0.8328 0.003 -0.5536
vn -0.7743 0.0034 -0.6329
vn -0.8328 0.003 -0.5536
vn -0.8813 0.0026 -0.4725
vn -0.8815 0.0026 -0.4722
vn -0.8328 0.003 -0.5536
vn -0.8813 0.0026 -0.4725
vn -0.9197 0.002 -0.3926
vn -0.9196 0.0021 -0.3928
vn -0.8815 0.0026 -0.4722
vn -0.9197 0.002 -0.3926
vn -0.9481 0.0018 -0.3179
vn -0.9482 0.0017 -0.3176
vn -0.9196 0.0021 -0.3928
vn -0.9481 0.0018 -0.3179
vn -0.9684 0.0014 -0.2493
vn -0.9684 0.0014 -0.2493
vn -0.9482 0.0017 -0.3176
vn -0.9684 0.0014 -0.2493
vn -0.982 0.001 -0.1891
vn -0.982 0.001 -0.1888
vn -0.9684 0.0014 -0.2493
vn -0.982 0.001 -0.1891
vn -0.9906 0.0008 -0.1368
vn -0.9906 0.0008 -0.1367
vn -0.982 0.001 -0.1888
vn -0.9906 0.0008 -0.1368
vn -0.9958 0.0005 -0.092
vn -0.9958 0.0005 -0.092
vn -0.9906 0.0008 -0.1367
vn -0.9958 0.0005 -0.092
vn -0.9985 0.0003 -0.0547
vn -0.9985 0.0003 -0.0547
vn -0.9958 0.0005 -0.092
vn -0.9985 0.0003 -0.0547
vn -0.9997 0.0001 -0.0246
vn -0.9997 0.0001 -0.0246
vn -0.9985 0.0003 -0.0547
vn -0.9997 0.0001 -0.0246
vn -1 -0 -0.0056
vn -1 -0 -0.0056
vn -0.9997 0.0001 -0.0246
vn -1 -0 -0.0056
vn -0.7071 0.004 -0.7071
vn -0.7071 0.004 -0.7071
vn -1 -0 -0.0056
vn -0.7071 0.004 -0.7071
vn 0.7071 0.004 -0.7071
vn 0.7071 0.004 -0.7071
vn -0.7071 0.004 -0.7071
vn 0.7071 0.004 -0.7071
vn 0.9997 -0.0001 0.0256
vn 0.9997 -0.0001 0.0256
vn 0.7071 0.004 -0.7071
vn 0.9997 -0.0001 0.0256
vn 0.9942 -0.0006 0.1071
vn 0.9942 -0.0006 0.1071
vn 0.9997 -0.0001 0.0256
vt 0.298701 1
vt 0.324675 1
vt 0.311688 1
vt 0.298701 1
vt 0.337662 1
vt 0.324675 1
vt 0.961039 1
vt 0.987013 1
vt 0.974026 1
vt 0.961039 1
vt 1 1
vt 0.987013 1
vt 0.948052 1
vt 1 1
vt 0.961039 1
vt 0.298701 1
vt 0.350649 1
vt 0.337662 1
vt 0.935065 1
vt 1 1
vt 0.948052 1
vt 0.935065 1
vt 0 1
vt 1 1
vt 0.298701 1
vt 0.363636 1
vt 0.350649 1
vt 0.285714 1
vt 0.363636 1
vt 0.298701 1
vt 0.922078 1
vt 0 1
vt 0.935065 1
vt 0.285714 1
vt 0.376623 1
vt 0.363636 1
vt 0.909091 1
vt 0 1
vt 0.922078 1
vt 0.285714 1
vt 0.38961 1
vt 0.376623 1
vt 0.909091 1
vt 0.012987 1
vt 0 1
vt 0.896104 1
vt 0.012987 1
vt 0.909091 1
vt 0.285714 1
vt 0.402597 1
vt 0.38961 1
vt 0.272727 1
vt 0.402597 1
vt 0.285714 1
vt 0.883117 1
vt 0.012987 1
vt 0.896104 1
vt 0.272727 1
vt 0.415584 1
vt 0.402597 1
vt 0.87013 1
vt 0.012987 1
vt 0.883117 1
vt 0.272727 1
vt 0.428571 1
vt 0.415584 1
vt 0.87013 1
vt 0.025974 1
vt 0.012987 1
vt 0.857143 1
vt 0.025974 1
vt 0.87013 1
vt 0.272727 1
vt 0.441558 1
vt 0.428571 1
vt 0.844156 1
vt 0.025974 1
vt 0.857143 1
vt 0.25974 1
vt 0.441558 1
vt 0.272727 1
vt 0.25974 1
vt 0.454545 1
vt 0.441558 1
vt 0.831169 1
vt 0.025974 1
vt 0.844156 1
vt 0.25974 1
vt 0.467532 1
vt 0.454545 1
vt 0.25974 1
vt 0.480519 1
vt 0.467532 1
vt 0.818182 1
vt 0.025974 1
vt 0.831169 1
vt 0.818182 1
vt 0.038961 1
vt 0.025974 1
vt 0.25974 1
vt 0.493506 1
vt 0.480519 1
vt 0.805195 1
vt 0.038961 1
vt 0.818182 1
vt 0.25974 1
vt 0.506494 1
vt 0.493506 1
vt 0.246753 1
vt 0.506494 1
vt 0.25974 1
vt 0.792208 1
vt 0.038961 1
vt 0.805195 1
vt 0.246753 1
vt 0.519481 1
vt 0.506494 1
vt 0.779221 1
vt 0.038961 1
vt 0.792208 1
vt 0.779221 1
vt 0.051948 1
vt 0.038961 1
vt 0.766234 1
vt 0.051948 1
vt 0.779221 1
vt 0.246753 1
vt 0.532468 1
vt 0.519481 1
vt 0.753247 1
vt 0.051948 1
vt 0.766234 1
vt 0.246753 1
vt 0.545455 1
vt 0.532468 1
vt 0.74026 1
vt 0.051948 1
vt 0.753247 1
vt 0.246753 1
vt 0.558442 1
vt 0.545455 1
vt 0.233766 1
vt 0.558442 1
vt 0.246753 1
vt 0.727273 1
vt 0.051948 1
vt 0.74026 1
vt 0.233766 1
vt 0.571429 1
vt 0.558442 1
vt 0.714286 1
vt 0.051948 1
vt 0.727273 1
vt 0.233766 1
vt 0.584416 1
vt 0.571429 1
vt 0.714286 1
vt 0.064935 1
vt 0.051948 1
vt 0.701299 1
vt 0.064935 1
vt 0.714286 1
vt 0.233766 1
vt 0.597403 1
vt 0.584416 1
vt 0.688312 1
vt 0.064935 1
vt 0.701299 1
vt 0.233766 1
vt 0.61039 1
vt 0.597403 1
vt 0.675325 1
vt 0.064935 1
vt 0.688312 1
vt 0.233766 1
vt 0.623377 1
vt 0.61039 1
vt 0.662338 1
vt 0.064935 1
vt 0.675325 1
vt 0.233766 1
vt 0.636364 1
vt 0.623377 1
vt 0.649351 1
vt 0.064935 1
vt 0.662338 1
vt 0.233766 1
vt 0.649351 1
vt 0.636364 1
vt 0.233766 1
vt 0.064935 1
vt 0.649351 1
vt 0.220779 1
vt 0.064935 1
vt 0.233766 1
vt 0.220779 1
vt 0.077922 1
vt 0.064935 1
vt 0.207792 1
vt 0.077922 1
vt 0.220779 1
vt 0.207792 1
vt 0.090909 1
vt 0.077922 1
vt 0.194805 1
vt 0.090909 1
vt 0.207792 1
vt 0.194805 1
vt 0.103896 1
vt 0.090909 1
vt 0.181818 1
vt 0.103896 1
vt 0.194805 1
vt 0.181818 1
vt 0.116883 1
vt 0.103896 1
vt 0.168831 1
vt 0.116883 1
vt 0.181818 1
vt 0.168831 1
vt 0.12987 1
vt 0.116883 1
vt 0.155844 1
vt 0.12987 1
vt 0.168831 1
vt 0.155844 1
vt 0.142857 1
vt 0.12987 1
vt 0.324675 1
vt 0.298701 1
vt 0.311688 1
vt 0.337662 1
vt 0.298701 1
vt 0.324675 1
vt 0.987013 1
vt 0.961039 1
vt 0.974026 1
vt 1 1
vt 0.961039 1
vt 0.987013 1
vt 1 1
vt 0.948052 1
vt 0.961039 1
vt 0.350649 1
vt 0.298701 1
vt 0.337662 1
vt 1 1
vt 0.935065 1
vt 0.948052 1
vt 0 1
vt 0.935065 1
vt 1 1
vt 0.363636 1
vt 0.298701 1
vt 0.350649 1
vt 0.363636 1
vt 0.285714 1
vt 0.298701 1
vt 0 1
vt 0.922078 1
vt 0.935065 1
vt 0.376623 1
vt 0.285714 1
vt 0.363636 1
vt 0 1
vt 0.909091 1
vt 0.922078 1
vt 0.38961 1
vt 0.285714 1
vt 0.376623 1
vt 0.012987 1
vt 0.909091 1
vt 0 1
vt 0.012987 1
vt 0.896104 1
vt 0.909091 1
vt 0.402597 1
vt 0.285714 1
vt 0.38961 1
vt 0.402597 1
vt 0.272727 1
vt 0.285714 1
vt 0.012987 1
vt 0.883117 1
vt 0.896104 1
vt 0.415584 1
vt 0.272727 1
vt 0.402597 1
vt 0.012987 1
vt 0.87013 1
vt 0.883117 1
vt 0.428571 1
vt 0.272727 1
vt 0.415584 1
vt 0.025974 1
vt 0.87013 1
vt 0.012987 1
vt 0.025974 1
vt 0.857143 1
vt 0.87013 1
vt 0.441558 1
vt 0.272727 1
vt 0.428571 1
vt 0.025974 1
vt 0.844156 1
vt 0.857143 1
vt 0.441558 1
vt 0.25974 1
vt 0.272727 1
vt 0.454545 1
vt 0.25974 1
vt 0.441558 1
vt 0.025974 1
vt 0.831169 1
vt 0.844156 1
vt 0.467532 1
vt 0.25974 1
vt 0.454545 1
vt 0.480519 1
vt 0.25974 1
vt 0.467532 1
vt 0.025974 1
vt 0.818182 1
vt 0.831169 1
vt 0.038961 1
vt 0.818182 1
vt 0.025974 1
vt 0.493506 1
vt 0.25974 1
vt 0.480519 1
vt 0.038961 1
vt 0.805195 1
vt 0.818182 1
vt 0.506494 1
vt 0.25974 1
vt 0.493506 1
vt 0.506494 1
vt 0.246753 1
vt 0.25974 1
vt 0.038961 1
vt 0.792208 1
vt 0.805195 1
vt 0.519481 1
vt 0.246753 1
vt 0.506494 1
vt 0.038961 1
vt 0.779221 1
vt 0.792208 1
vt 0.051948 1
vt 0.779221 1
vt 0.038961 1
vt 0.051948 1
vt 0.766234 1
vt 0.779221 1
vt 0.532468 1
vt 0.246753 1
vt 0.519481 1
vt 0.051948 1
vt 0.753247 1
vt 0.766234 1
vt 0.545455 1
vt 0.246753 1
vt 0.532468 1
vt 0.051948 1
vt 0.74026 1
vt 0.753247 1
vt 0.558442 1
vt 0.246753 1
vt 0.545455 1
vt 0.558442 1
vt 0.233766 1
vt 0.246753 1
vt 0.051948 1
vt 0.727273 1
vt 0.74026 1
vt 0.571429 1
vt 0.233766 1
vt 0.558442 1
vt 0.051948 1
vt 0.714286 1
vt 0.727273 1
vt 0.584416 1
vt 0.233766 1
vt 0.571429 1
vt 0.064935 1
vt 0.714286 1
vt 0.051948 1
vt 0.064935 1
vt 0.701299 1
vt 0.714286 1
vt 0.597403 1
vt 0.233766 1
vt 0.584416 1
vt 0.064935 1
vt 0.688312 1
vt 0.701299 1
vt 0.61039 1
vt 0.233766 1
vt 0.597403 1
vt 0.064935 1
vt 0.675325 1
vt 0.688312 1
vt 0.623377 1
vt 0.233766 1
vt 0.61039 1
vt 0.064935 1
vt 0.662338 1
vt 0.675325 1
vt 0.636364 1
vt 0.233766 1
vt 0.623377 1
vt 0.064935 1
vt 0.649351 1
vt 0.662338 1
vt 0.649351 1
vt 0.233766 1
vt 0.636364 1
vt 0.064935 1
vt 0.233766 1
vt 0.649351 1
vt 0.064935 1
vt 0.220779 1
vt 0.233766 1
vt 0.077922 1
vt 0.220779 1
vt 0.064935 1
vt 0.077922 1
vt 0.207792 1
vt 0.220779 1
vt 0.090909 1
vt 0.207792 1
vt 0.077922 1
vt 0.090909 1
vt 0.194805 1
vt 0.207792 1
vt 0.103896 1
vt 0.194805 1
vt 0.090909 1
vt 0.103896 1
vt 0.181818 1
vt 0.194805 1
vt 0.116883 1
vt 0.181818 1
vt 0.103896 1
vt 0.116883 1
vt 0.168831 1
vt 0.181818 1
vt 0.12987 1
vt 0.168831 1
vt 0.116883 1
vt 0.12987 1
vt 0.155844 1
vt 0.168831 1
vt 0.142857 1
vt 0.155844 1
vt 0.12987 1
vt 0 0
vt 0.012821 0
vt 0.012821 1
vt 0 1
vt 0.012821 0
vt 0.025641 0
vt 0.025641 1
vt 0.012821 1
vt 0.025641 0
vt 0.038462 0
vt 0.038462 1
vt 0.025641 1
vt 0.038462 0
vt 0.051282 0
vt 0.051282 1
vt 0.038462 1
vt 0.051282 0
vt 0.064103 0
vt 0.064103 1
vt 0.051282 1
vt 0.064103 0
vt 0.076923 0
vt 0.076923 1
vt 0.064103 1
vt 0.076923 0
vt 0.089744 0
vt 0.089744 1
vt 0.076923 1
vt 0.089744 0
vt 0.102564 0
vt 0.102564 1
vt 0.089744 1
vt 0.102564 0
vt 0.115385 0
vt 0.115385 1
vt 0.102564 1
vt 0.115385 0
vt 0.128205 0
vt 0.128205 1
vt 0.115385 1
vt 0.128205 0
vt 0.141026 0
vt 0.141026 1
vt 0.128205 1
vt 0.141026 0
vt 0.153846 0
vt 0.153846 1
vt 0.141026 1
vt 0.153846 0
vt 0.166667 0
vt 0.166667 1
vt 0.153846 1
vt 0.166667 0
vt 0.179487 0
vt 0.179487 1
vt 0.166667 1
vt 0.179487 0
vt 0.192308 0
vt 0.192308 1
vt 0.179487 1
vt 0.192308 0
vt 0.205128 0
vt 0.205128 1
vt 0.192308 1
vt 0.205128 0
vt 0.217949 0
vt 0.217949 1
vt 0.205128 1
vt 0.217949 0
vt 0.230769 0
vt 0.230769 1
vt 0.217949 1
vt 0.230769 0
vt 0.24359 0
vt 0.24359 1
vt 0.230769 1
vt 0.24359 0
vt 0.25641 0
vt 0.25641 1
vt 0.24359 1
vt 0.25641 0
vt 0.269231 0
vt 0.269231 1
vt 0.25641 1
vt 0.269231 0
vt 0.282051 0
vt 0.282051 1
vt 0.269231 1
vt 0.282051 0
vt 0.294872 0
vt 0.294872 1
vt 0.282051 1
vt 0.294872 0
vt 0.307692 0
vt 0.307692 1
vt 0.294872 1
vt 0.307692 0
vt 0.320513 0
vt 0.320513 1
vt 0.307692 1
vt 0.320513 0
vt 0.333333 0
vt 0.333333 1
vt 0.320513 1
vt 0.333333 0
vt 0.346154 0
vt 0.346154 1
vt 0.333333 1
vt 0.346154 0
vt 0.358974 0
vt 0.358974 1
vt 0.346154 1
vt 0.358974 0
vt 0.371795 0
vt 0.371795 1
vt 0.358974 1
vt 0.371795 0
vt 0.384615 0
vt 0.384615 1
vt 0.371795 1
vt 0.384615 0
vt 0.397436 0
vt 0.397436 1
vt 0.384615 1
vt 0.397436 0
vt 0.410256 0
vt 0.410256 1
vt 0.397436 1
vt 0.410256 0
vt 0.423077 0
vt 0.423077 1
vt 0.410256 1
vt 0.423077 0
vt 0.435897 0
vt 0.435897 1
vt 0.423077 1
vt 0.435897 0
vt 0.448718 0
vt 0.448718 1
vt 0.435897 1
vt 0.448718 0
vt 0.461538 0
vt 0.461538 1
vt 0.448718 1
vt 0.461538 0
vt 0.474359 0
vt 0.474359 1
vt 0.461538 1
vt 0.474359 0
vt 0.487179 0
vt 0.487179 1
vt 0.474359 1
vt 0.487179 0
vt 0.5 0
vt 0.5 1
vt 0.487179 1
vt 0.5 0
vt 0.512821 0
vt 0.512821 1
vt 0.5 1
vt 0.512821 0
vt 0.525641 0
vt 0.525641 1
vt 0.512821 1
vt 0.525641 0
vt 0.538462 0
vt 0.538462 1
vt 0.525641 1
vt 0.538462 0
vt 0.551282 0
vt 0.551282 1
vt 0.538462 1
vt 0.551282 0
vt 0.564103 0
vt 0.564103 1
vt 0.551282 1
vt 0.564103 0
vt 0.576923 0
vt 0.576923 1
vt 0.564103 1
vt 0.576923 0
vt 0.589744 0
vt 0.589744 1
vt 0.576923 1
vt 0.589744 0
vt 0.602564 0
vt 0.602564 1
vt 0.589744 1
vt 0.602564 0
vt 0.615385 0
vt 0.615385 1
vt 0.602564 1
vt 0.615385 0
vt 0.628205 0
vt 0.628205 1
vt 0.615385 1
vt 0.628205 0
vt 0.641026 0
vt 0.641026 1
vt 0.628205 1
vt 0.641026 0
vt 0.653846 0
vt 0.653846 1
vt 0.641026 1
vt 0.653846 0
vt 0.666667 0
vt 0.666667 1
vt 0.653846 1
vt 0.666667 0
vt 0.679487 0
vt 0.679487 1
vt 0.666667 1
vt 0.679487 0
vt 0.692308 0
vt 0.692308 1
vt 0.679487 1
vt 0.692308 0
vt 0.705128 0
vt 0.705128 1
vt 0.692308 1
vt 0.705128 0
vt 0.717949 0
vt 0.717949 1
vt 0.705128 1
vt 0.717949 0
vt 0.730769 0
vt 0.730769 1
vt 0.717949 1
vt 0.730769 0
vt 0.74359 0
vt 0.74359 1
vt 0.730769 1
vt 0.74359 0
vt 0.75641 0
vt 0.75641 1
vt 0.74359 1
vt 0.75641 0
vt 0.769231 0
vt 0.769231 1
vt 0.75641 1
vt 0.769231 0
vt 0.782051 0
vt 0.782051 1
vt 0.769231 1
vt 0.782051 0
vt 0.794872 0
vt 0.794872 1
vt 0.782051 1
vt 0.794872 0
vt 0.807692 0
vt 0.807692 1
vt 0.794872 1
vt 0.807692 0
vt 0.820513 0
vt 0.820513 1
vt 0.807692 1
vt 0.820513 0
vt 0.833333 0
vt 0.833333 1
vt 0.820513 1
vt 0.833333 0
vt 0.846154 0
vt 0.846154 1
vt 0.833333 1
vt 0.846154 0
vt 0.858974 0
vt 0.858974 1
vt 0.846154 1
vt 0.858974 0
vt 0.871795 0
vt 0.871795 1
vt 0.858974 1
vt 0.871795 0
vt 0.884615 0
vt 0.884615 1
vt 0.871795 1
vt 0.884615 0
vt 0.897436 0
vt 0.897436 1
vt 0.884615 1
vt 0.897436 0
vt 0.910256 0
vt 0.910256 1
vt 0.897436 1
vt 0.910256 0
vt 0.923077 0
vt 0.923077 1
vt 0.910256 1
vt 0.923077 0
vt 0.935897 0
vt 0.935897 1
vt 0.923077 1
vt 0.935897 0
vt 0.948718 0
vt 0.948718 1
vt 0.935897 1
vt 0.948718 0
vt 0.961538 0
vt 0.961538 1
vt 0.948718 1
vt 0.961538 0
vt 0.974359 0
vt 0.974359 1
vt 0.961538 1
vt 0.974359 0
vt 0.987179 0
vt 0.987179 1
vt 0.974359 1
vt 0.987179 0
vt 1 0
vt 1 1
vt 0.987179 1
s off
f 1/1/1 2/2/2 3/3/3
f 4/4/4 5/5/5 6/6/6
f 7/7/7 8/8/8 9/9/9
f 10/10/10 11/11/11 12/12/12
f 13/13/13 14/14/14 15/15/15
f 16/16/16 17/17/17 18/18/18
f 19/19/19 20/20/20 21/21/21
f 22/22/22 23/23/23 24/24/24
f 25/25/25 26/26/26 27/27/27
f 28/28/28 29/29/29 30/30/30
f 31/31/31 32/32/32 33/33/33
f 34/34/34 35/35/35 36/36/36
f 37/37/37 38/38/38 39/39/39
f 40/40/40 41/41/41 42/42/42
f 43/43/43 44/44/44 45/45/45
f 46/46/46 47/47/47 48/48/48
f 49/49/49 50/50/50 51/51/51
f 52/52/52 53/53/53 54/54/54
f 55/55/55 56/56/56 57/57/57
f 58/58/58 59/59/59 60/60/60
f 61/61/61 62/62/62 63/63/63
f 64/64/64 65/65/65 66/66/66
f 67/67/67 68/68/68 69/69/69
f 70/70/70 71/71/71 72/72/72
f 73/73/73 74/74/74 75/75/75
f 76/76/76 77/77/77 78/78/78
f 79/79/79 80/80/80 81/81/81
f 82/82/82 83/83/83 84/84/84
f 85/85/85 86/86/86 87/87/87
f 88/88/88 89/89/89 90/90/90
f 91/91/91 92/92/92 93/93/93
f 94/94/94 95/95/95 96/96/96
f 97/97/97 98/98/98 99/99/99
f 100/100/100 101/101/101 102/102/102
f 103/103/103 104/104/104 105/105/105
f 106/106/106 107/107/107 108/108/108
f 109/109/109 110/110/110 111/111/111
f 112/112/112 113/113/113 114/114/114
f 115/115/115 116/116/116 117/117/117
f 118/118/118 119/119/119 120/120/120
f 121/121/121 122/122/122 123/123/123
f 124/124/124 125/125/125 126/126/126
f 127/127/127 128/128/128 129/129/129
f 130/130/130 131/131/131 132/132/132
f 133/133/133 134/134/134 135/135/135
f 136/136/136 137/137/137 138/138/138
f 139/139/139 140/140/140 141/141/141
f 142/142/142 143/143/143 144/144/144
f 145/145/145 146/146/146 147/147/147
f 148/148/148 149/149/149 150/150/150
f 151/151/151 152/152/152 153/153/153
f 154/154/154 155/155/155 156/156/156
f 157/157/157 158/158/158 159/159/159
f 160/160/160 161/161/161 162/162/162
f 163/163/163 164/164/164 165/165/165
f 166/166/166 167/167/167 168/168/168
f 169/169/169 170/170/170 171/171/171
f 172/172/172 173/173/173 174/174/174
f 175/175/175 176/176/176 177/177/177
f 178/178/178 179/179/179 180/180/180
f 181/181/181 182/182/182 183/183/183
f 184/184/184 185/185/185 186/186/186
f 187/187/187 188/188/188 189/189/189
f 190/190/190 191/191/191 192/192/192
f 193/193/193 194/194/194 195/195/195
f 196/196/196 197/197/197 198/198/198
f 199/199/199 200/200/200 201/201/201
f 202/202/202 203/203/203 204/204/204
f 205/205/205 206/206/206 207/207/207
f 208/208/208 209/209/209 210/210/210
f 211/211/211 212/212/212 213/213/213
f 214/214/214 215/215/215 216/216/216
f 217/217/217 218/218/218 219/219/219
f 220/220/220 221/221/221 222/222/222
f 223/223/223 224/224/224 225/225/225
f 226/226/226 227/227/227 228/228/228
f 229/229/229 230/230/230 231/231/231
f 232/232/232 233/233/233 234/234/234
f 235/235/235 236/236/236 237/237/237
f 238/238/238 239/239/239 240/240/240
f 241/241/241 242/242/242 243/243/243
f 244/244/244 245/245/245 246/246/246
f 247/247/247 248/248/248 249/249/249
f 250/250/250 251/251/251 252/252/252
f 253/253/253 254/254/254 255/255/255
f 256/256/256 257/257/257 258/258/258
f 259/259/259 260/260/260 261/261/261
f 262/262/262 263/263/263 264/264/264
f 265/265/265 266/266/266 267/267/267
f 268/268/268 269/269/269 270/270/270
f 271/271/271 272/272/272 273/273/273
f 274/274/274 275/275/275 276/276/276
f 277/277/277 278/278/278 279/279/279
f 280/280/280 281/281/281 282/282/282
f 283/283/283 284/284/284 285/285/285
f 286/286/286 287/287/287 288/288/288
f 289/289/289 290/290/290 291/291/291
f 292/292/292 293/293/293 294/294/294
f 295/295/295 296/296/296 297/297/297
f 298/298/298 299/299/299 300/300/300
f 301/301/301 302/302/302 303/303/303
f 304/304/304 305/305/305 306/306/306
f 307/307/307 308/308/308 309/309/309
f 310/310/310 311/311/311 312/312/312
f 313/313/313 314/314/314 315/315/315
f 316/316/316 317/317/317 318/318/318
f 319/319/319 320/320/320 321/321/321
f 322/322/322 323/323/323 324/324/324
f 325/325/325 326/326/326 327/327/327
f 328/328/328 329/329/329 330/330/330
f 331/331/331 332/332/332 333/333/333
f 334/334/334 335/335/335 336/336/336
f 337/337/337 338/338/338 339/339/339
f 340/340/340 341/341/341 342/342/342
f 343/343/343 344/344/344 345/345/345
f 346/346/346 347/347/347 348/348/348
f 349/349/349 350/350/350 351/351/351
f 352/352/352 353/353/353 354/354/354
f 355/355/355 356/356/356 357/357/357
f 358/358/358 359/359/359 360/360/360
f 361/361/361 362/362/362 363/363/363
f 364/364/364 365/365/365 366/366/366
f 367/367/367 368/368/368 369/369/369
f 370/370/370 371/371/371 372/372/372
f 373/373/373 374/374/374 375/375/375
f 376/376/376 377/377/377 378/378/378
f 379/379/379 380/380/380 381/381/381
f 382/382/382 383/383/383 384/384/384
f 385/385/385 386/386/386 387/387/387
f 388/388/388 389/389/389 390/390/390
f 391/391/391 392/392/392 393/393/393
f 394/394/394 395/395/395 396/396/396
f 397/397/397 398/398/398 399/399/399
f 400/400/400 401/401/401 402/402/402
f 403/403/403 404/404/404 405/405/405
f 406/406/406 407/407/407 408/408/408
f 409/409/409 410/410/410 411/411/411
f 412/412/412 413/413/413 414/414/414
f 415/415/415 416/416/416 417/417/417
f 418/418/418 419/419/419 420/420/420
f 421/421/421 422/422/422 423/423/423
f 424/424/424 425/425/425 426/426/426
f 427/427/427 428/428/428 429/429/429
f 430/430/430 431/431/431 432/432/432
f 433/433/433 434/434/434 435/435/435
f 436/436/436 437/437/437 438/438/438
f 439/439/439 440/440/440 441/441/441
f 442/442/442 443/443/443 444/444/444
f 445/445/445 446/446/446 447/447/447
f 448/448/448 449/449/449 450/450/450
f 451/451/451 452/452/452 453/453/453
f 454/454/454 455/455/455 456/456/456
f 457/457/457 458/458/458 459/459/459
f 457/457/457 459/459/459 460/460/460
f 461/461/461 462/462/462 463/463/463
f 461/461/461 463/463/463 464/464/464
f 465/465/465 466/466/466 467/467/467
f 465/465/465 467/467/467 468/468/468
f 469/469/469 470/470/470 471/471/471
f 469/469/469 471/471/471 472/472/472
f 473/473/473 474/474/474 475/475/475
f 473/473/473 475/475/475 476/476/476
f 477/477/477 478/478/478 479/479/479
f 477/477/477 479/479/479 480/480/480
f 481/481/481 482/482/482 483/483/483
f 481/481/481 483/483/483 484/484/484
f 485/485/485 486/486/486 487/487/487
f 485/485/485 487/487/487 488/488/488
f 489/489/489 490/490/490 491/491/491
f 489/489/489 491/491/491 492/492/492
f 493/493/493 494/494/494 495/495/495
f 493/493/493 495/495/495 496/496/496
f 497/497/497 498/498/498 499/499/499
f 497/497/497 499/499/499 500/500/500
f 501/501/501 502/502/502 503/503/503
f 501/501/501 503/503/503 504/504/504
f 505/505/505 506/506/506 507/507/507
f 505/505/505 507/507/507 508/508/508
f 509/509/509 510/510/510 511/511/511
f 509/509/509 511/511/511 512/512/512
f 513/513/513 514/514/514 515/515/515
f 513/513/513 515/515/515 516/516/516
f 517/517/517 518/518/518 519/519/519
f 517/517/517 519/519/519 520/520/520
f 521/521/521 522/522/522 523/523/523
f 521/521/521 523/523/523 524/524/524
f 525/525/525 526/526/526 527/527/527
f 525/525/525 527/527/527 528/528/528
f 529/529/529 530/530/530 531/531/531
f 529/529/529 531/531/531 532/532/532
f 533/533/533 534/534/534 535/535/535
f 533/533/533 535/535/535 536/536/536
f 537/537/537 538/538/538 539/539/539
f 537/537/537 539/539/539 540/540/540
f 541/541/541 542/542/542 543/543/543
f 541/541/541 543/543/543 544/544/544
f 545/545/545 546/546/546 547/547/547
f 545/545/545 547/547/547 548/548/548
f 549/549/549 550/550/550 551/551/551
f 549/549/549 551/551/551 552/552/552
f 553/553/553 554/554/554 555/555/555
f 553/553/553 555/555/555 556/556/556
f 557/557/557 558/558/558 559/559/559
f 557/557/557 559/559/559 560/560/560
f 561/561/561 562/562/562 563/563/563
f 561/561/561 563/563/563 564/564/564
f 565/565/565 566/566/566 567/567/567
f 565/565/565 567/567/567 568/568/568
f 569/569/569 570/570/570 571/571/571
f 569/569/569 571/571/571 572/572/572
f 573/573/573 574/574/574 575/575/575
f 573/573/573 575/575/575 576/576/576
f 577/577/577 578/578/578 579/579/579
f 577/577/577 579/579/579 580/580/580
f 581/581/581 582/582/582 583/583/583
f 581/581/581 583/583/583 584/584/584
f 585/585/585 586/586/586 587/587/587
f 585/585/585 587/587/587 588/588/588
f 589/589/589 590/590/590 591/591/591
f 589/589/589 591/591/591 592/592/592
f 593/593/593 594/594/594 595/595/595
f 593/593/593 595/595/595 596/596/596
f 597/597/597 598/598/598 599/599/599
f 597/597/597 599/599/599 600/600/600
f 601/601/601 602/602/602 603/603/603
f 601/601/601 603/603/603 604/604/604
f 605/605/605 606/606/606 607/607/607
f 605/605/605 607/607/607 608/608/608
f 609/609/609 610/610/610 611/611/611
f 609/609/609 611/611/611 612/612/612
f 613/613/613 614/614/614 615/615/615
f 613/613/613 615/615/615 616/616/616
f 617/617/617 618/618/618 619/619/619
f 617/617/617 619/619/619 620/620/620
f 621/621/621 622/622/622 623/623/623
f 621/621/621 623/623/623 624/624/624
f 625/625/625 626/626/626 627/627/627
f 625/625/625 627/627/627 628/628/628
f 629/629/629 630/630/630 631/631/631
f 629/629/629 631/631/631 632/632/632
f 633/633/633 634/634/634 635/635/635
f 633/633/633 635/635/635 636/636/636
f 637/637/637 638/638/638 639/639/639
f 637/637/637 639/639/639 640/640/640
f 641/641/641 642/642/642 643/643/643
f 641/641/641 643/643/643 644/644/644
f 645/645/645 646/646/646 647/647/647
f 645/645/645 647/647/647 648/648/648
f 649/649/649 650/650/650 651/651/651
f 649/649/649 651/651/651 652/652/652
f 653/653/653 654/654/654 655/655/655
f 653/653/653 655/655/655 656/656/656
f 657/657/657 658/658/658 659/659/659
f 657/657/657 659/659/659 660/660/660
f 661/661/661 662/662/662 663/663/663
f 661/661/661 663/663/663 664/664/664
f 665/665/665 666/666/666 667/667/667
f 665/665/665 667/667/667 668/668/668
f 669/669/669 670/670/670 671/671/671
f 669/669/669 671/671/671 672/672/672
f 673/673/673 674/674/674 675/675/675
f 673/673/673 675/675/675 676/676/676
f 677/677/677 678/678/678 679/679/679
f 677/677/677 679/679/679 680/680/680
f 681/681/681 682/682/682 683/683/683
f 681/681/681 683/683/683 684/684/684
f 685/685/685 686/686/686 687/687/687
f 685/685/685 687/687/687 688/688/688
f 689/689/689 690/690/690 691/691/691
f 689/689/689 691/691/691 692/692/692
f 693/693/693 694/694/694 695/695/695
f 693/693/693 695/695/695 696/696/696
f 697/697/697 698/698/698 699/699/699
f 697/697/697 699/699/699 700/700/700
f 701/701/701 702/702/702 703/703/703
f 701/701/701 703/703/703 704/704/704
f 705/705/705 706/706/706 707/707/707
f 705/705/705 707/707/707 708/708/708
f 709/709/709 710/710/710 711/711/711
f 709/709/709 711/711/711 712/712/712
f 713/713/713 714/714/714 715/715/715
f 713/713/713 715/715/715 716/716/716
f 717/717/717 718/718/718 719/719/719
f 717/717/717 719/719/719 720/720/720
f 721/721/721 722/722/722 723/723/723
f 721/721/721 723/723/723 724/724/724
f 725/725/725 726/726/726 727/727/727
f 725/725/725 727/727/727 728/728/728
f 729/729/729 730/730/730 731/731/731
f 729/729/729 731/731/731 732/732/732
f 733/733/733 734/734/734 735/735/735
f 733/733/733 735/735/735 736/736/736
f 737/737/737 738/738/738 739/739/739
f 737/737/737 739/739/739 740/740/740
f 741/741/741 742/742/742 743/743/743
f 741/741/741 743/743/743 744/744/744
f 745/745/745 746/746/746 747/747/747
f 745/745/745 747/747/747 748/748/748
f 749/749/749 750/750/750 751/751/751
f 749/749/749 751/751/751 752/752/752
f 753/753/753 754/754/754 755/755/755
f 753/753/753 755/755/755 756/756/756
f 757/757/757 758/758/758 759/759/759
f 757/757/757 759/759/759 760/760/760
f 761/761/761 762/762/762 763/763/763
f 761/761/761 763/763/763 764/764/764
f 765/765/765 766/766/766 767/767/767
f 765/765/765 767/767/767 768/768/768
