v -0.12915 0.029259 -0.082319
v -0.137601 0.029369 -0.102414
v -0.144988 0.029369 -0.102414
v -0.12915 0.029259 -0.082319
v -0.126145 0.029289 -0.087702
v -0.137601 0.029369 -0.102414
v -0.126145 0.029289 -0.087702
v -0.107176 0.029369 -0.102414
v -0.114563 0.029369 -0.102414
v -0.126145 0.029289 -0.087702
v -0.123015 0.029259 -0.082257
v -0.107176 0.029369 -0.102414
v -0.12915 0.029259 -0.082319
v -0.123015 0.029259 -0.082257
v -0.126145 0.029289 -0.087702
v -0.12915 0.029136 -0.05972
v -0.123015 0.029259 -0.082257
v -0.12915 0.029259 -0.082319
v -0.12915 0.029136 -0.05972
v -0.123015 0.029136 -0.05972
v -0.123015 0.029259 -0.082257
v -0.137601 0.025613 -0.102435
v -0.12915 0.025503 -0.08234
v -0.144988 0.025613 -0.102435
v -0.126145 0.025533 -0.087723
v -0.12915 0.025503 -0.08234
v -0.137601 0.025613 -0.102435
v -0.107176 0.025613 -0.102435
v -0.126145 0.025533 -0.087723
v -0.114563 0.025613 -0.102435
v -0.123015 0.025503 -0.082277
v -0.126145 0.025533 -0.087723
v -0.107176 0.025613 -0.102435
v -0.123015 0.025503 -0.082277
v -0.12915 0.025503 -0.08234
v -0.126145 0.025533 -0.087723
v -0.123015 0.025503 -0.082277
v -0.12915 0.02538 -0.05974
v -0.12915 0.025503 -0.08234
v -0.123015 0.02538 -0.05974
v -0.12915 0.02538 -0.05974
v -0.123015 0.025503 -0.082277
v -0.107176 0.029369 -0.102414
v -0.123015 0.029259 -0.082257
v -0.123015 0.025503 -0.082277
v -0.107176 0.025613 -0.102435
v -0.123015 0.029259 -0.082257
v -0.123015 0.029136 -0.05972
v -0.123015 0.02538 -0.05974
v -0.123015 0.025503 -0.082277
v -0.123015 0.029136 -0.05972
v -0.12915 0.029136 -0.05972
v -0.12915 0.02538 -0.05974
v -0.123015 0.02538 -0.05974
v -0.12915 0.029136 -0.05972
v -0.12915 0.029259 -0.082319
v -0.12915 0.025503 -0.08234
v -0.12915 0.02538 -0.05974
v -0.12915 0.029259 -0.082319
v -0.144988 0.029369 -0.102414
v -0.144988 0.025613 -0.102435
v -0.12915 0.025503 -0.08234
v -0.144988 0.029369 -0.102414
v -0.137601 0.029369 -0.102414
v -0.137601 0.025613 -0.102435
v -0.144988 0.025613 -0.102435
v -0.137601 0.029369 -0.102414
v -0.126145 0.029289 -0.087702
v -0.126145 0.025533 -0.087723
v -0.137601 0.025613 -0.102435
v -0.126145 0.029289 -0.087702
v -0.114563 0.029369 -0.102414
v -0.114563 0.025613 -0.102435
v -0.126145 0.025533 -0.087723
v -0.114563 0.029369 -0.102414
v -0.107176 0.029369 -0.102414
v -0.107176 0.025613 -0.102435
v -0.114563 0.025613 -0.102435
vn -0.0001 1 0.0055
vn -0 1 0.0055
vn -0 1 0.0055
vn -0.0001 1 0.0055
vn -0 1 0.0055
vn -0 1 0.0055
vn -0 1 0.0055
vn -0 1 0.0055
vn -0 1 0.0054
vn -0 1 0.0055
vn -0 1 0.0055
vn -0 1 0.0055
vn -0.0001 1 0.0055
vn -0 1 0.0055
vn -0 1 0.0055
vn -0 1 0.0055
vn -0 1 0.0055
vn -0.0001 1 0.0055
vn -0 1 0.0055
vn -0 1 0.0055
vn -0 1 0.0055
vn -0 -1 -0.0055
vn 0.0001 -1 -0.0055
vn -0 -1 -0.0055
vn -0 -1 -0.0055
vn 0.0001 -1 -0.0055
vn -0 -1 -0.0055
vn -0 -1 -0.0055
vn -0 -1 -0.0055
vn -0 -1 -0.0054
vn -0 -1 -0.0055
vn -0 -1 -0.0055
vn -0 -1 -0.0055
vn -0 -1 -0.0055
vn 0.0001 -1 -0.0055
vn -0 -1 -0.0055
vn -0 -1 -0.0055
vn -0 -1 -0.0055
vn 0.0001 -1 -0.0055
vn -0 -1 -0.0055
vn -0 -1 -0.0055
vn -0 -1 -0.0055
vn 0.8994 0.0021 -0.4372
vn 0.9451 -0.0018 0.3269
vn 0.9451 -0.0018 0.3268
vn 0.8995 0.0022 -0.437
vn 0.9451 -0.0018 0.3269
vn 0.7071 -0.0038 0.7071
vn 0.7071 -0.0038 0.7071
vn 0.9451 -0.0018 0.3268
vn 0.7071 -0.0038 0.7071
vn -0.7071 -0.0041 0.7071
vn -0.7071 -0.0038 0.7071
vn 0.7071 -0.0038 0.7071
vn -0.7071 -0.0041 0.7071
vn -0.9448 -0.0018 0.3275
vn -0.9448 -0.0018 0.3276
vn -0.7071 -0.0038 0.7071
vn -0.9448 -0.0018 0.3275
vn -0.8997 0.0024 -0.4364
vn -0.8997 0.0024 -0.4365
vn -0.9448 -0.0018 0.3276
vn -0.8997 0.0024 -0.4364
vn 0.4391 0.005 -0.8984
vn 0.4392 0.0047 -0.8984
vn -0.8997 0.0024 -0.4365
vn 0.4391 0.005 -0.8984
vn 0.0027 0.0056 -1
vn 0.0027 0.0056 -1
vn 0.4392 0.0047 -0.8984
vn 0.0027 0.0056 -1
vn -0.4367 0.005 -0.8996
vn -0.4367 0.005 -0.8996
vn 0.0027 0.0056 -1
vn -0.4367 0.005 -0.8996
vn 0.8994 0.0021 -0.4372
vn 0.8995 0.0022 -0.437
vn -0.4367 0.005 -0.8996
vt 0.5 1
vt 0.75 1
vt 0.625 1
vt 0.5 1
vt 0.875 1
vt 0.75 1
vt 0.875 1
vt 0 1
vt 1 1
vt 0.875 1
vt 0.125 1
vt 0 1
vt 0.5 1
vt 0.125 1
vt 0.875 1
vt 0.375 1
vt 0.125 1
vt 0.5 1
vt 0.375 1
vt 0.25 1
vt 0.125 1
vt 0.75 1
vt 0.5 1
vt 0.625 1
vt 0.875 1
vt 0.5 1
vt 0.75 1
vt 0 1
vt 0.875 1
vt 1 1
vt 0.125 1
vt 0.875 1
vt 0 1
vt 0.125 1
vt 0.5 1
vt 0.875 1
vt 0.125 1
vt 0.375 1
vt 0.5 1
vt 0.25 1
vt 0.375 1
vt 0.125 1
vt 0 0
vt 0.111111 0
vt 0.111111 1
vt 0 1
vt 0.111111 0
vt 0.222222 0
vt 0.222222 1
vt 0.111111 1
vt 0.222222 0
vt 0.333333 0
vt 0.333333 1
vt 0.222222 1
vt 0.333333 0
vt 0.444444 0
vt 0.444444 1
vt 0.333333 1
vt 0.444444 0
vt 0.555556 0
vt 0.555556 1
vt 0.444444 1
vt 0.555556 0
vt 0.666667 0
vt 0.666667 1
vt 0.555556 1
vt 0.666667 0
vt 0.777778 0
vt 0.777778 1
vt 0.666667 1
vt 0.777778 0
vt 0.888889 0
vt 0.888889 1
vt 0.777778 1
vt 0.888889 0
vt 1 0
vt 1 1
vt 0.888889 1
s off
f 1/1/1 2/2/2 3/3/3
f 4/4/4 5/5/5 6/6/6
f 7/7/7 8/8/8 9/9/9
f 10/10/10 11/11/11 12/12/12
f 13/13/13 14/14/14 15/15/15
f 16/16/16 17/17/17 18/18/18
f 19/19/19 20/20/20 21/21/21
f 22/22/22 23/23/23 24/24/24
f 25/25/25 26/26/26 27/27/27
f 28/28/28 29/29/29 30/30/30
f 31/31/31 32/32/32 33/33/33
f 34/34/34 35/35/35 36/36/36
f 37/37/37 38/38/38 39/39/39
f 40/40/40 41/41/41 42/42/42
f 43/43/43 44/44/44 45/45/45
f 43/43/43 45/45/45 46/46/46
f 47/47/47 48/48/48 49/49/49
f 47/47/47 49/49/49 50/50/50
f 51/51/51 52/52/52 53/53/53
f 51/51/51 53/53/53 54/54/54
f 55/55/55 56/56/56 57/57/57
f 55/55/55 57/57/57 58/58/58
f 59/59/59 60/60/60 61/61/61
f 59/59/59 61/61/61 62/62/62
f 63/63/63 64/64/64 65/65/65
f 63/63/63 65/65/65 66/66/66
f 67/67/67 68/68/68 69/69/69
f 67/67/67 69/69/69 70/70/70
f 71/71/71 72/72/72 73/73/73
f 71/71/71 73/73/73 74/74/74
f 75/75/75 76/76/76 77/77/77
f 75/75/75 77/77/77 78/78/78
