v -0.013983 0.195803 -0.336198
v -0.014206 0.241169 -0.340472
v -0.000752 0.241103 -0.341837
v -0.000752 0.195739 -0.337533
v -0.000752 0.241103 -0.341837
v 0.012701 0.241169 -0.340472
v 0.012478 0.195803 -0.336198
v -0.000752 0.195739 -0.337533
v -0.000752 0.241103 -0.341837
v -0.000752 0.243871 -0.341358
v 0.012568 0.243938 -0.340006
v 0.012701 0.241169 -0.340472
v -0.000752 0.243871 -0.341358
v -0.000752 0.241103 -0.341837
v -0.014206 0.241169 -0.340472
v -0.014073 0.243938 -0.340006
v 0.012701 0.241169 -0.340472
v 0.012568 0.243938 -0.340006
v 0.025401 0.244133 -0.336086
v 0.025658 0.241365 -0.336515
v 0.012701 0.241169 -0.340472
v 0.025658 0.241365 -0.336515
v 0.025217 0.195989 -0.332327
v 0.012478 0.195803 -0.336198
v 0.025658 0.241365 -0.336515
v 0.025401 0.244133 -0.336086
v 0.03725 0.244452 -0.329801
v 0.03762 0.241685 -0.330172
v 0.025658 0.241365 -0.336515
v 0.03762 0.241685 -0.330172
v 0.036976 0.196287 -0.326122
v 0.025217 0.195989 -0.332327
v 0.036976 0.196287 -0.326122
v 0.03762 0.241685 -0.330172
v 0.048092 0.242126 -0.321649
v 0.047262 0.196687 -0.317783
v 0.048092 0.242126 -0.321649
v 0.056625 0.242677 -0.311199
v 0.055637 0.197178 -0.307561
v 0.047262 0.196687 -0.317783
v 0.047619 0.24489 -0.32136
v 0.048092 0.242126 -0.321649
v 0.03762 0.241685 -0.330172
v 0.03725 0.244452 -0.329801
v 0.048092 0.242126 -0.321649
v 0.047619 0.24489 -0.32136
v 0.056069 0.245434 -0.31101
v 0.056625 0.242677 -0.311199
v 0.056625 0.242677 -0.311199
v 0.056069 0.245434 -0.31101
v 0.062353 0.246054 -0.299191
v 0.062968 0.243307 -0.29927
v 0.056625 0.242677 -0.311199
v 0.062968 0.243307 -0.29927
v 0.061855 0.197738 -0.29589
v 0.055637 0.197178 -0.307561
v 0.062968 0.243307 -0.29927
v 0.062353 0.246054 -0.299191
v 0.066266 0.246716 -0.286394
v 0.066919 0.243978 -0.286354
v 0.062968 0.243307 -0.29927
v 0.066919 0.243978 -0.286354
v 0.065725 0.198344 -0.283255
v 0.061855 0.197738 -0.29589
v 0.065725 0.198344 -0.283255
v 0.066919 0.243978 -0.286354
v 0.068275 0.244652 -0.272946
v 0.067052 0.198973 -0.270138
v 0.068275 0.244652 -0.272946
v 0.066902 0.245297 -0.259539
v 0.065708 0.199602 -0.257023
v 0.067052 0.198973 -0.270138
v 0.068275 0.244652 -0.272946
v 0.067609 0.247382 -0.273114
v 0.066249 0.248023 -0.259836
v 0.066902 0.245297 -0.259539
v 0.067609 0.247382 -0.273114
v 0.068275 0.244652 -0.272946
v 0.066919 0.243978 -0.286354
v 0.066266 0.246716 -0.286394
v 0.066902 0.245297 -0.259539
v 0.066249 0.248023 -0.259836
v 0.06232 0.248622 -0.247045
v 0.062936 0.245898 -0.246629
v 0.066902 0.245297 -0.259539
v 0.062936 0.245898 -0.246629
v 0.061823 0.200208 -0.244394
v 0.065708 0.199602 -0.257023
v 0.062936 0.245898 -0.246629
v 0.06232 0.248622 -0.247045
v 0.056026 0.249164 -0.235234
v 0.056582 0.246442 -0.234707
v 0.062936 0.245898 -0.246629
v 0.056582 0.246442 -0.234707
v 0.055594 0.200767 -0.232732
v 0.061823 0.200208 -0.244394
v 0.055594 0.200767 -0.232732
v 0.056582 0.246442 -0.234707
v 0.048045 0.246919 -0.224268
v 0.047216 0.201256 -0.222521
v 0.048045 0.246919 -0.224268
v 0.037577 0.247316 -0.215758
v 0.036933 0.201655 -0.214196
v 0.047216 0.201256 -0.222521
v 0.047572 0.249639 -0.224896
v 0.048045 0.246919 -0.224268
v 0.056582 0.246442 -0.234707
v 0.056026 0.249164 -0.235234
v 0.048045 0.246919 -0.224268
v 0.047572 0.249639 -0.224896
v 0.037207 0.250032 -0.216467
v 0.037577 0.247316 -0.215758
v 0.037577 0.247316 -0.215758
v 0.037207 0.250032 -0.216467
v 0.025369 0.25033 -0.210195
v 0.025625 0.24762 -0.209428
v 0.037577 0.247316 -0.215758
v 0.025625 0.24762 -0.209428
v 0.025185 0.201952 -0.208003
v 0.036933 0.201655 -0.214196
v 0.025625 0.24762 -0.209428
v 0.025369 0.25033 -0.210195
v 0.012551 0.25052 -0.206285
v 0.012684 0.247813 -0.205481
v 0.025625 0.24762 -0.209428
v 0.012684 0.247813 -0.205481
v 0.01246 0.202137 -0.204142
v 0.025185 0.201952 -0.208003
v 0.01246 0.202137 -0.204142
v 0.012684 0.247813 -0.205481
v -0.000752 0.247881 -0.20412
v -0.000752 0.202201 -0.202811
v -0.000752 0.247881 -0.20412
v -0.014189 0.247813 -0.205481
v -0.013965 0.202137 -0.204142
v -0.000752 0.202201 -0.202811
v -0.000752 0.250586 -0.204937
v -0.000752 0.247881 -0.20412
v 0.012684 0.247813 -0.205481
v 0.012551 0.25052 -0.206285
v -0.000752 0.247881 -0.20412
v -0.000752 0.250586 -0.204937
v -0.014056 0.25052 -0.206285
v -0.014189 0.247813 -0.205481
v -0.026874 0.25033 -0.210195
v -0.02713 0.247619 -0.209428
v -0.014189 0.247813 -0.205481
v -0.014056 0.25052 -0.206285
v -0.014189 0.247813 -0.205481
v -0.02713 0.247619 -0.209428
v -0.02669 0.201952 -0.208003
v -0.013965 0.202137 -0.204142
v -0.038712 0.250032 -0.216467
v -0.039082 0.247316 -0.215758
v -0.02713 0.247619 -0.209428
v -0.026874 0.25033 -0.210195
v -0.02713 0.247619 -0.209428
v -0.039082 0.247316 -0.215758
v -0.038438 0.201655 -0.214196
v -0.02669 0.201952 -0.208003
v -0.038438 0.201655 -0.214196
v -0.039082 0.247316 -0.215758
v -0.04955 0.246919 -0.224268
v -0.048721 0.201256 -0.222521
v -0.04955 0.246919 -0.224268
v -0.058087 0.246442 -0.234707
v -0.057099 0.200767 -0.232732
v -0.048721 0.201256 -0.222521
v -0.04955 0.246919 -0.224268
v -0.049077 0.249639 -0.224896
v -0.057531 0.249164 -0.235234
v -0.058087 0.246442 -0.234707
v -0.049077 0.249639 -0.224896
v -0.04955 0.246919 -0.224268
v -0.039082 0.247316 -0.215758
v -0.038712 0.250032 -0.216467
v -0.063825 0.248622 -0.247045
v -0.064441 0.245898 -0.246629
v -0.058087 0.246442 -0.234707
v -0.057531 0.249164 -0.235234
v -0.058087 0.246442 -0.234707
v -0.064441 0.245898 -0.246629
v -0.063328 0.200208 -0.244394
v -0.057099 0.200767 -0.232732
v -0.067754 0.248023 -0.259837
v -0.068407 0.245297 -0.25954
v -0.064441 0.245898 -0.246629
v -0.063825 0.248622 -0.247045
v -0.064441 0.245898 -0.246629
v -0.068407 0.245297 -0.25954
v -0.067213 0.199602 -0.257023
v -0.063328 0.200208 -0.244394
v -0.067213 0.199602 -0.257023
v -0.068407 0.245297 -0.25954
v -0.06978 0.244652 -0.272946
v -0.068557 0.198973 -0.270138
v -0.06978 0.244652 -0.272946
v -0.068424 0.243977 -0.286354
v -0.06723 0.198344 -0.283255
v -0.068557 0.198973 -0.270138
v -0.069114 0.247382 -0.273114
v -0.06978 0.244652 -0.272946
v -0.068407 0.245297 -0.25954
v -0.067754 0.248023 -0.259837
v -0.06978 0.244652 -0.272946
v -0.069114 0.247382 -0.273114
v -0.067771 0.246716 -0.286394
v -0.068424 0.243977 -0.286354
v -0.063858 0.246054 -0.299191
v -0.064473 0.243307 -0.29927
v -0.068424 0.243977 -0.286354
v -0.067771 0.246716 -0.286394
v -0.068424 0.243977 -0.286354
v -0.064473 0.243307 -0.29927
v -0.06336 0.197738 -0.29589
v -0.06723 0.198344 -0.283255
v -0.057574 0.245434 -0.31101
v -0.05813 0.242677 -0.311199
v -0.064473 0.243307 -0.29927
v -0.063858 0.246054 -0.299191
v -0.064473 0.243307 -0.29927
v -0.05813 0.242677 -0.311199
v -0.057142 0.197178 -0.307561
v -0.06336 0.197738 -0.29589
v -0.057142 0.197178 -0.307561
v -0.05813 0.242677 -0.311199
v -0.049597 0.242126 -0.321649
v -0.048767 0.196687 -0.317783
v -0.049597 0.242126 -0.321649
v -0.039125 0.241685 -0.330172
v -0.03848 0.196287 -0.326122
v -0.048767 0.196687 -0.317783
v -0.049597 0.242126 -0.321649
v -0.049124 0.24489 -0.32136
v -0.038755 0.244452 -0.329801
v -0.039125 0.241685 -0.330172
v -0.049124 0.24489 -0.32136
v -0.049597 0.242126 -0.321649
v -0.05813 0.242677 -0.311199
v -0.057574 0.245434 -0.31101
v -0.026906 0.244133 -0.336086
v -0.027163 0.241365 -0.336515
v -0.039125 0.241685 -0.330172
v -0.038755 0.244452 -0.329801
v -0.039125 0.241685 -0.330172
v -0.027163 0.241365 -0.336515
v -0.026722 0.195989 -0.332327
v -0.03848 0.196287 -0.326122
v -0.014073 0.243938 -0.340006
v -0.014206 0.241169 -0.340472
v -0.027163 0.241365 -0.336515
v -0.026906 0.244133 -0.336086
v -0.027163 0.241365 -0.336515
v -0.014206 0.241169 -0.340472
v -0.013983 0.195803 -0.336198
v -0.026722 0.195989 -0.332327
v -0.026154 0.246231 -0.334409
v -0.026906 0.244133 -0.336086
v -0.038755 0.244452 -0.329801
v -0.037667 0.246546 -0.328301
v -0.013684 0.246037 -0.338219
v -0.014073 0.243938 -0.340006
v -0.026906 0.244133 -0.336086
v -0.026154 0.246231 -0.334409
v -0.000752 0.245969 -0.339531
v -0.000752 0.243871 -0.341358
v -0.014073 0.243938 -0.340006
v -0.013684 0.246037 -0.338219
v -0.000752 0.246835 -0.336846
v -0.000752 0.245969 -0.339531
v -0.013684 0.246037 -0.338219
v -0.013142 0.246904 -0.335588
v -0.013142 0.246904 -0.335588
v -0.013684 0.246037 -0.338219
v -0.026154 0.246231 -0.334409
v -0.025106 0.247097 -0.331933
v -0.000752 0.245969 -0.339531
v -0.000752 0.246835 -0.336846
v 0.011637 0.246904 -0.335588
v 0.012179 0.246037 -0.338219
v -0.000752 0.243871 -0.341358
v -0.000752 0.245969 -0.339531
v 0.012179 0.246037 -0.338219
v 0.012568 0.243938 -0.340006
v 0.012568 0.243938 -0.340006
v 0.012179 0.246037 -0.338219
v 0.024649 0.246231 -0.334409
v 0.025401 0.244133 -0.336086
v 0.012179 0.246037 -0.338219
v 0.011637 0.246904 -0.335588
v 0.023601 0.247097 -0.331933
v 0.024649 0.246231 -0.334409
v -0.000752 0.250022 -0.273305
v 0.023601 0.247097 -0.331933
v 0.011637 0.246904 -0.335588
v -0.000752 0.250022 -0.273305
v 0.011637 0.246904 -0.335588
v -0.000752 0.246835 -0.336846
v -0.000752 0.250022 -0.273305
v -0.000752 0.253091 -0.209787
v 0.011621 0.253036 -0.211041
v -0.000752 0.250022 -0.273305
v -0.013126 0.253036 -0.211041
v -0.000752 0.253091 -0.209787
v -0.000752 0.250022 -0.273305
v -0.025076 0.252869 -0.214688
v -0.013126 0.253036 -0.211041
v -0.000752 0.250022 -0.273305
v -0.036112 0.252601 -0.220537
v -0.025076 0.252869 -0.214688
v -0.000752 0.250022 -0.273305
v -0.045751 0.252241 -0.228378
v -0.036112 0.252601 -0.220537
v -0.000752 0.250022 -0.273305
v -0.053614 0.251784 -0.237995
v -0.045751 0.252241 -0.228378
v -0.000752 0.250022 -0.273305
v -0.059512 0.248866 -0.29757
v -0.063161 0.249462 -0.285638
v -0.000752 0.250022 -0.273305
v -0.053655 0.248309 -0.308592
v -0.059512 0.248866 -0.29757
v -0.000752 0.250022 -0.273305
v -0.045796 0.247817 -0.31822
v -0.053655 0.248309 -0.308592
v -0.000752 0.250022 -0.273305
v -0.063161 0.249462 -0.285638
v -0.064411 0.250069 -0.273283
v -0.000752 0.250022 -0.273305
v -0.064411 0.250069 -0.273283
v -0.063145 0.250679 -0.260932
v -0.000752 0.250022 -0.273305
v -0.036152 0.247405 -0.326073
v -0.045796 0.247817 -0.31822
v -0.000752 0.250022 -0.273305
v -0.059482 0.251258 -0.249007
v -0.053614 0.251784 -0.237995
v -0.000752 0.250022 -0.273305
v -0.063145 0.250679 -0.260932
v -0.059482 0.251258 -0.249007
v -0.000752 0.250022 -0.273305
v -0.025106 0.247097 -0.331933
v -0.036152 0.247405 -0.326073
v -0.000752 0.250022 -0.273305
v -0.013142 0.246904 -0.335588
v -0.025106 0.247097 -0.331933
v -0.000752 0.250022 -0.273305
v -0.000752 0.246835 -0.336846
v -0.013142 0.246904 -0.335588
v -0.000752 0.250022 -0.273305
v 0.034607 0.252601 -0.220537
v 0.044247 0.252241 -0.228378
v -0.000752 0.250022 -0.273305
v 0.023571 0.252869 -0.214688
v 0.034607 0.252601 -0.220537
v -0.000752 0.250022 -0.273305
v 0.011621 0.253036 -0.211041
v 0.023571 0.252869 -0.214688
v -0.000752 0.250022 -0.273305
v 0.044247 0.252241 -0.228378
v 0.052109 0.251784 -0.237995
v -0.000752 0.250022 -0.273305
v 0.05215 0.248308 -0.308592
v 0.044291 0.247817 -0.31822
v -0.000752 0.250022 -0.273305
v 0.058007 0.248866 -0.29757
v 0.05215 0.248308 -0.308592
v -0.000752 0.250022 -0.273305
v 0.061656 0.249462 -0.285638
v 0.058007 0.248866 -0.29757
v -0.000752 0.250022 -0.273305
v 0.062906 0.250069 -0.273283
v 0.061656 0.249462 -0.285638
v -0.000752 0.250022 -0.273305
v 0.044291 0.247817 -0.31822
v 0.034647 0.247405 -0.326073
v -0.000752 0.250022 -0.273305
v 0.06164 0.250679 -0.260932
v 0.062906 0.250069 -0.273283
v -0.000752 0.250022 -0.273305
v 0.057977 0.251258 -0.249007
v 0.06164 0.250679 -0.260932
v -0.000752 0.250022 -0.273305
v 0.052109 0.251784 -0.237995
v 0.057977 0.251258 -0.249007
v -0.000752 0.250022 -0.273305
v 0.034647 0.247405 -0.326073
v 0.023601 0.247097 -0.331933
v 0.044291 0.247817 -0.31822
v 0.046228 0.246973 -0.320105
v 0.036162 0.246546 -0.328301
v 0.034647 0.247405 -0.326073
v 0.024649 0.246231 -0.334409
v 0.023601 0.247097 -0.331933
v 0.034647 0.247405 -0.326073
v 0.036162 0.246546 -0.328301
v 0.046228 0.246973 -0.320105
v 0.047619 0.24489 -0.32136
v 0.03725 0.244452 -0.329801
v 0.036162 0.246546 -0.328301
v 0.025401 0.244133 -0.336086
v 0.024649 0.246231 -0.334409
v 0.036162 0.246546 -0.328301
v 0.03725 0.244452 -0.329801
v 0.047619 0.24489 -0.32136
v 0.046228 0.246973 -0.320105
v 0.054431 0.247495 -0.310056
v 0.056069 0.245434 -0.31101
v 0.046228 0.246973 -0.320105
v 0.044291 0.247817 -0.31822
v 0.05215 0.248308 -0.308592
v 0.054431 0.247495 -0.310056
v 0.056069 0.245434 -0.31101
v 0.054431 0.247495 -0.310056
v 0.060537 0.248089 -0.298569
v 0.062353 0.246054 -0.299191
v 0.054431 0.247495 -0.310056
v 0.05215 0.248308 -0.308592
v 0.058007 0.248866 -0.29757
v 0.060537 0.248089 -0.298569
v 0.062353 0.246054 -0.299191
v 0.060537 0.248089 -0.298569
v 0.06434 0.248723 -0.286132
v 0.066266 0.246716 -0.286394
v 0.060537 0.248089 -0.298569
v 0.058007 0.248866 -0.29757
v 0.061656 0.249462 -0.285638
v 0.06434 0.248723 -0.286132
v 0.065644 0.249365 -0.273238
v 0.067609 0.247382 -0.273114
v 0.066266 0.246716 -0.286394
v 0.06434 0.248723 -0.286132
v 0.062906 0.250069 -0.273283
v 0.065644 0.249365 -0.273238
v 0.06434 0.248723 -0.286132
v 0.061656 0.249462 -0.285638
v 0.065644 0.249365 -0.273238
v 0.062906 0.250069 -0.273283
v 0.06164 0.250679 -0.260932
v 0.064323 0.249993 -0.260346
v 0.067609 0.247382 -0.273114
v 0.065644 0.249365 -0.273238
v 0.064323 0.249993 -0.260346
v 0.066249 0.248023 -0.259836
v 0.066249 0.248023 -0.259836
v 0.064323 0.249993 -0.260346
v 0.060505 0.250583 -0.247916
v 0.06232 0.248622 -0.247045
v 0.064323 0.249993 -0.260346
v 0.06164 0.250679 -0.260932
v 0.057977 0.251258 -0.249007
v 0.060505 0.250583 -0.247916
v 0.06232 0.248622 -0.247045
v 0.060505 0.250583 -0.247916
v 0.054389 0.25112 -0.236438
v 0.056026 0.249164 -0.235234
v 0.060505 0.250583 -0.247916
v 0.057977 0.251258 -0.249007
v 0.052109 0.251784 -0.237995
v 0.054389 0.25112 -0.236438
v 0.046182 0.251587 -0.2264
v 0.047572 0.249639 -0.224896
v 0.056026 0.249164 -0.235234
v 0.054389 0.25112 -0.236438
v 0.044247 0.252241 -0.228378
v 0.046182 0.251587 -0.2264
v 0.054389 0.25112 -0.236438
v 0.052109 0.251784 -0.237995
v 0.047572 0.249639 -0.224896
v 0.046182 0.251587 -0.2264
v 0.03612 0.251966 -0.218216
v 0.037207 0.250032 -0.216467
v 0.046182 0.251587 -0.2264
v 0.044247 0.252241 -0.228378
v 0.034607 0.252601 -0.220537
v 0.03612 0.251966 -0.218216
v 0.037207 0.250032 -0.216467
v 0.03612 0.251966 -0.218216
v 0.024617 0.252252 -0.212121
v 0.025369 0.25033 -0.210195
v 0.03612 0.251966 -0.218216
v 0.034607 0.252601 -0.220537
v 0.023571 0.252869 -0.214688
v 0.024617 0.252252 -0.212121
v 0.025369 0.25033 -0.210195
v 0.024617 0.252252 -0.212121
v 0.012162 0.252432 -0.20832
v 0.012551 0.25052 -0.206285
v 0.024617 0.252252 -0.212121
v 0.023571 0.252869 -0.214688
v 0.011621 0.253036 -0.211041
v 0.012162 0.252432 -0.20832
v -0.000752 0.252494 -0.207011
v -0.000752 0.250586 -0.204937
v 0.012551 0.25052 -0.206285
v 0.012162 0.252432 -0.20832
v -0.000752 0.253091 -0.209787
v -0.000752 0.252494 -0.207011
v 0.012162 0.252432 -0.20832
v 0.011621 0.253036 -0.211041
v -0.000752 0.250586 -0.204937
v -0.000752 0.252494 -0.207011
v -0.013667 0.252432 -0.20832
v -0.014056 0.25052 -0.206285
v -0.000752 0.252494 -0.207011
v -0.000752 0.253091 -0.209787
v -0.013126 0.253036 -0.211041
v -0.013667 0.252432 -0.20832
v -0.025076 0.252869 -0.214688
v -0.026122 0.252252 -0.212121
v -0.013667 0.252432 -0.20832
v -0.013126 0.253036 -0.211041
v -0.026122 0.252252 -0.212121
v -0.026874 0.25033 -0.210195
v -0.014056 0.25052 -0.206285
v -0.013667 0.252432 -0.20832
v -0.036112 0.252601 -0.220537
v -0.037625 0.251966 -0.218216
v -0.026122 0.252252 -0.212121
v -0.025076 0.252869 -0.214688
v -0.037625 0.251966 -0.218216
v -0.038712 0.250032 -0.216467
v -0.026874 0.25033 -0.210195
v -0.026122 0.252252 -0.212121
v -0.045751 0.252241 -0.228378
v -0.047687 0.251587 -0.2264
v -0.037625 0.251966 -0.218216
v -0.036112 0.252601 -0.220537
v -0.047687 0.251587 -0.2264
v -0.049077 0.249639 -0.224896
v -0.038712 0.250032 -0.216467
v -0.037625 0.251966 -0.218216
v -0.047687 0.251587 -0.2264
v -0.045751 0.252241 -0.228378
v -0.053614 0.251784 -0.237995
v -0.055894 0.25112 -0.236438
v -0.049077 0.249639 -0.224896
v -0.047687 0.251587 -0.2264
v -0.055894 0.25112 -0.236438
v -0.057531 0.249164 -0.235234
v -0.059482 0.251258 -0.249007
v -0.06201 0.250583 -0.247916
v -0.055894 0.25112 -0.236438
v -0.053614 0.251784 -0.237995
v -0.06201 0.250583 -0.247916
v -0.063825 0.248622 -0.247045
v -0.057531 0.249164 -0.235234
v -0.055894 0.25112 -0.236438
v -0.063145 0.250679 -0.260932
v -0.065828 0.249993 -0.260346
v -0.06201 0.250583 -0.247916
v -0.059482 0.251258 -0.249007
v -0.065828 0.249993 -0.260346
v -0.067754 0.248023 -0.259837
v -0.063825 0.248622 -0.247045
v -0.06201 0.250583 -0.247916
v -0.064411 0.250069 -0.273283
v -0.067149 0.249365 -0.273238
v -0.065828 0.249993 -0.260346
v -0.063145 0.250679 -0.260932
v -0.067149 0.249365 -0.273238
v -0.069114 0.247382 -0.273114
v -0.067754 0.248023 -0.259837
v -0.065828 0.249993 -0.260346
v -0.069114 0.247382 -0.273114
v -0.067149 0.249365 -0.273238
v -0.065845 0.248724 -0.286132
v -0.067771 0.246716 -0.286394
v -0.067149 0.249365 -0.273238
v -0.064411 0.250069 -0.273283
v -0.063161 0.249462 -0.285638
v -0.065845 0.248724 -0.286132
v -0.059512 0.248866 -0.29757
v -0.062042 0.248089 -0.298569
v -0.065845 0.248724 -0.286132
v -0.063161 0.249462 -0.285638
v -0.062042 0.248089 -0.298569
v -0.063858 0.246054 -0.299191
v -0.067771 0.246716 -0.286394
v -0.065845 0.248724 -0.286132
v -0.053655 0.248309 -0.308592
v -0.055936 0.247495 -0.310056
v -0.062042 0.248089 -0.298569
v -0.059512 0.248866 -0.29757
v -0.055936 0.247495 -0.310056
v -0.057574 0.245434 -0.31101
v -0.063858 0.246054 -0.299191
v -0.062042 0.248089 -0.298569
v -0.045796 0.247817 -0.31822
v -0.047733 0.246973 -0.320105
v -0.055936 0.247495 -0.310056
v -0.053655 0.248309 -0.308592
v -0.047733 0.246973 -0.320105
v -0.049124 0.24489 -0.32136
v -0.057574 0.245434 -0.31101
v -0.055936 0.247495 -0.310056
v -0.047733 0.246973 -0.320105
v -0.045796 0.247817 -0.31822
v -0.036152 0.247405 -0.326073
v -0.037667 0.246546 -0.328301
v -0.049124 0.24489 -0.32136
v -0.047733 0.246973 -0.320105
v -0.037667 0.246546 -0.328301
v -0.038755 0.244452 -0.329801
v -0.025106 0.247097 -0.331933
v -0.026154 0.246231 -0.334409
v -0.037667 0.246546 -0.328301
v -0.036152 0.247405 -0.326073
vn -0.1973 -0.0928 -0.9759
vn -0.1967 0.0391 -0.9797
vn -0 0.0377 -0.9993
vn -0 -0.0944 -0.9955
vn -0 0.0377 -0.9993
vn 0.1967 0.0391 -0.9797
vn 0.1973 -0.0928 -0.9759
vn -0 -0.0944 -0.9955
vn -0 0.0377 -0.9993
vn -0 0.422 -0.9066
vn 0.1748 0.4232 -0.889
vn 0.1967 0.0391 -0.9797
vn -0 0.422 -0.9066
vn -0 0.0377 -0.9993
vn -0.1967 0.0391 -0.9797
vn -0.1748 0.4232 -0.889
vn 0.1967 0.0391 -0.9797
vn 0.1748 0.4232 -0.889
vn 0.3379 0.4262 -0.8392
vn 0.3805 0.0433 -0.9238
vn 0.1967 0.0391 -0.9797
vn 0.3805 0.0433 -0.9238
vn 0.3817 -0.0886 -0.92
vn 0.1973 -0.0928 -0.9759
vn 0.3805 0.0433 -0.9238
vn 0.3379 0.4262 -0.8392
vn 0.4882 0.4311 -0.7589
vn 0.5502 0.0499 -0.8336
vn 0.3805 0.0433 -0.9238
vn 0.5502 0.0499 -0.8336
vn 0.5523 -0.0818 -0.8296
vn 0.3817 -0.0886 -0.92
vn 0.5523 -0.0818 -0.8296
vn 0.5502 0.0499 -0.8336
vn 0.7034 0.0588 -0.7083
vn 0.7065 -0.0728 -0.704
vn 0.7034 0.0588 -0.7083
vn 0.8288 0.0693 -0.5552
vn 0.8327 -0.0621 -0.5502
vn 0.7065 -0.0728 -0.704
vn 0.6234 0.4382 -0.6475
vn 0.7034 0.0588 -0.7083
vn 0.5502 0.0499 -0.8336
vn 0.4882 0.4311 -0.7589
vn 0.7034 0.0588 -0.7083
vn 0.6234 0.4382 -0.6475
vn 0.7336 0.4477 -0.5113
vn 0.8288 0.0693 -0.5552
vn 0.8288 0.0693 -0.5552
vn 0.7336 0.4477 -0.5113
vn 0.8124 0.4583 -0.3605
vn 0.9193 0.0807 -0.3853
vn 0.8288 0.0693 -0.5552
vn 0.9193 0.0807 -0.3853
vn 0.9238 -0.0508 -0.3795
vn 0.8327 -0.0621 -0.5502
vn 0.9193 0.0807 -0.3853
vn 0.8124 0.4583 -0.3605
vn 0.8608 0.4692 -0.1974
vn 0.9751 0.0927 -0.2013
vn 0.9193 0.0807 -0.3853
vn 0.9751 0.0927 -0.2013
vn 0.9801 -0.0389 -0.1947
vn 0.9238 -0.0508 -0.3795
vn 0.9801 -0.0389 -0.1947
vn 0.9751 0.0927 -0.2013
vn 0.9945 0.1049 -0.0046
vn 0.9996 -0.0266 0.0028
vn 0.9945 0.1049 -0.0046
vn 0.9744 0.1167 0.1921
vn 0.9796 -0.0146 0.2002
vn 0.9996 -0.0266 0.0028
vn 0.9945 0.1049 -0.0046
vn 0.8771 0.4797 -0.0233
vn 0.859 0.4894 0.1506
vn 0.9744 0.1167 0.1921
vn 0.8771 0.4797 -0.0233
vn 0.9945 0.1049 -0.0046
vn 0.9751 0.0927 -0.2013
vn 0.8608 0.4692 -0.1974
vn 0.9744 0.1167 0.1921
vn 0.859 0.4894 0.1506
vn 0.8091 0.4975 0.3129
vn 0.9179 0.1273 0.3757
vn 0.9744 0.1167 0.1921
vn 0.9179 0.1273 0.3757
vn 0.923 -0.0037 0.3848
vn 0.9796 -0.0146 0.2002
vn 0.9179 0.1273 0.3757
vn 0.8091 0.4975 0.3129
vn 0.7293 0.5044 0.4623
vn 0.8272 0.1367 0.545
vn 0.9179 0.1273 0.3757
vn 0.8272 0.1367 0.545
vn 0.8318 0.006 0.5551
vn 0.923 -0.0037 0.3848
vn 0.8318 0.006 0.5551
vn 0.8272 0.1367 0.545
vn 0.7017 0.1448 0.6976
vn 0.7054 0.0143 0.7086
vn 0.7017 0.1448 0.6976
vn 0.5486 0.1512 0.8223
vn 0.5513 0.0208 0.834
vn 0.7054 0.0143 0.7086
vn 0.6189 0.5106 0.5968
vn 0.7017 0.1448 0.6976
vn 0.8272 0.1367 0.545
vn 0.7293 0.5044 0.4623
vn 0.7017 0.1448 0.6976
vn 0.6189 0.5106 0.5968
vn 0.484 0.5163 0.7065
vn 0.5486 0.1512 0.8223
vn 0.5486 0.1512 0.8223
vn 0.484 0.5163 0.7065
vn 0.3346 0.5207 0.7854
vn 0.3792 0.1557 0.9121
vn 0.5486 0.1512 0.8223
vn 0.3792 0.1557 0.9121
vn 0.381 0.0252 0.9242
vn 0.5513 0.0208 0.834
vn 0.3792 0.1557 0.9121
vn 0.3346 0.5207 0.7854
vn 0.173 0.5235 0.8343
vn 0.196 0.1585 0.9677
vn 0.3792 0.1557 0.9121
vn 0.196 0.1585 0.9677
vn 0.1968 0.0278 0.98
vn 0.381 0.0252 0.9242
vn 0.1968 0.0278 0.98
vn 0.196 0.1585 0.9677
vn -0 0.1594 0.9872
vn -0 0.0287 0.9996
vn -0 0.1594 0.9872
vn -0.196 0.1584 0.9677
vn -0.1968 0.0278 0.98
vn -0 0.0287 0.9996
vn -0 0.5244 0.8515
vn -0 0.1594 0.9872
vn 0.196 0.1585 0.9677
vn 0.173 0.5235 0.8343
vn -0 0.1594 0.9872
vn -0 0.5244 0.8515
vn -0.173 0.5235 0.8343
vn -0.196 0.1584 0.9677
vn -0.3347 0.5207 0.7854
vn -0.3792 0.1557 0.9121
vn -0.196 0.1584 0.9677
vn -0.173 0.5235 0.8343
vn -0.196 0.1584 0.9677
vn -0.3792 0.1557 0.9121
vn -0.381 0.0252 0.9242
vn -0.1968 0.0278 0.98
vn -0.484 0.5163 0.7065
vn -0.5486 0.1512 0.8223
vn -0.3792 0.1557 0.9121
vn -0.3347 0.5207 0.7854
vn -0.3792 0.1557 0.9121
vn -0.5486 0.1512 0.8223
vn -0.5513 0.0208 0.834
vn -0.381 0.0252 0.9242
vn -0.5513 0.0208 0.834
vn -0.5486 0.1512 0.8223
vn -0.7017 0.1448 0.6976
vn -0.7054 0.0143 0.7086
vn -0.7017 0.1448 0.6976
vn -0.8272 0.1367 0.545
vn -0.8318 0.006 0.5551
vn -0.7054 0.0143 0.7086
vn -0.7017 0.1448 0.6976
vn -0.6189 0.5106 0.5968
vn -0.7293 0.5044 0.4623
vn -0.8272 0.1367 0.545
vn -0.6189 0.5106 0.5968
vn -0.7017 0.1448 0.6976
vn -0.5486 0.1512 0.8223
vn -0.484 0.5163 0.7065
vn -0.8091 0.4975 0.3129
vn -0.918 0.1273 0.3757
vn -0.8272 0.1367 0.545
vn -0.7293 0.5044 0.4623
vn -0.8272 0.1367 0.545
vn -0.918 0.1273 0.3757
vn -0.923 -0.0037 0.3848
vn -0.8318 0.006 0.5551
vn -0.859 0.4894 0.1506
vn -0.9744 0.1167 0.1921
vn -0.918 0.1273 0.3757
vn -0.8091 0.4975 0.3129
vn -0.918 0.1273 0.3757
vn -0.9744 0.1167 0.1921
vn -0.9796 -0.0146 0.2002
vn -0.923 -0.0037 0.3848
vn -0.9796 -0.0146 0.2002
vn -0.9744 0.1167 0.1921
vn -0.9945 0.1049 -0.0046
vn -0.9996 -0.0266 0.0028
vn -0.9945 0.1049 -0.0046
vn -0.9751 0.0926 -0.2013
vn -0.9801 -0.0389 -0.1947
vn -0.9996 -0.0266 0.0028
vn -0.8771 0.4797 -0.0232
vn -0.9945 0.1049 -0.0046
vn -0.9744 0.1167 0.1921
vn -0.859 0.4894 0.1506
vn -0.9945 0.1049 -0.0046
vn -0.8771 0.4797 -0.0232
vn -0.8608 0.4691 -0.1974
vn -0.9751 0.0926 -0.2013
vn -0.8124 0.4582 -0.3605
vn -0.9193 0.0807 -0.3853
vn -0.9751 0.0926 -0.2013
vn -0.8608 0.4691 -0.1974
vn -0.9751 0.0926 -0.2013
vn -0.9193 0.0807 -0.3853
vn -0.9238 -0.0508 -0.3795
vn -0.9801 -0.0389 -0.1947
vn -0.7336 0.4477 -0.5113
vn -0.8288 0.0693 -0.5552
vn -0.9193 0.0807 -0.3853
vn -0.8124 0.4582 -0.3605
vn -0.9193 0.0807 -0.3853
vn -0.8288 0.0693 -0.5552
vn -0.8327 -0.0621 -0.5502
vn -0.9238 -0.0508 -0.3795
vn -0.8327 -0.0621 -0.5502
vn -0.8288 0.0693 -0.5552
vn -0.7034 0.0588 -0.7084
vn -0.7064 -0.0728 -0.704
vn -0.7034 0.0588 -0.7084
vn -0.5502 0.0499 -0.8336
vn -0.5523 -0.0819 -0.8296
vn -0.7064 -0.0728 -0.704
vn -0.7034 0.0588 -0.7084
vn -0.6234 0.4382 -0.6475
vn -0.4882 0.4311 -0.7589
vn -0.5502 0.0499 -0.8336
vn -0.6234 0.4382 -0.6475
vn -0.7034 0.0588 -0.7084
vn -0.8288 0.0693 -0.5552
vn -0.7336 0.4477 -0.5113
vn -0.3379 0.4262 -0.8392
vn -0.3805 0.0433 -0.9238
vn -0.5502 0.0499 -0.8336
vn -0.4882 0.4311 -0.7589
vn -0.5502 0.0499 -0.8336
vn -0.3805 0.0433 -0.9238
vn -0.3817 -0.0886 -0.92
vn -0.5523 -0.0819 -0.8296
vn -0.1748 0.4232 -0.889
vn -0.1967 0.0391 -0.9797
vn -0.3805 0.0433 -0.9238
vn -0.3379 0.4262 -0.8392
vn -0.3805 0.0433 -0.9238
vn -0.1967 0.0391 -0.9797
vn -0.1973 -0.0928 -0.9759
vn -0.3817 -0.0886 -0.92
vn -0.1993 0.8277 -0.5246
vn -0.3379 0.4262 -0.8392
vn -0.4882 0.4311 -0.7589
vn -0.2884 0.8296 -0.4782
vn -0.1029 0.8267 -0.5532
vn -0.1748 0.4232 -0.889
vn -0.3379 0.4262 -0.8392
vn -0.1993 0.8277 -0.5246
vn -0 0.8263 -0.5633
vn -0 0.422 -0.9066
vn -0.1748 0.4232 -0.889
vn -0.1029 0.8267 -0.5532
vn -0 0.9821 -0.1886
vn -0 0.8263 -0.5633
vn -0.1029 0.8267 -0.5532
vn -0.0271 0.9822 -0.1861
vn -0.0271 0.9822 -0.1861
vn -0.1029 0.8267 -0.5532
vn -0.1993 0.8277 -0.5246
vn -0.0529 0.9824 -0.1791
vn -0 0.8263 -0.5633
vn -0 0.9821 -0.1886
vn 0.0271 0.9822 -0.1861
vn 0.1029 0.8267 -0.5532
vn -0 0.422 -0.9066
vn -0 0.8263 -0.5633
vn 0.1029 0.8267 -0.5532
vn 0.1748 0.4232 -0.889
vn 0.1748 0.4232 -0.889
vn 0.1029 0.8267 -0.5532
vn 0.1993 0.8277 -0.5246
vn 0.3379 0.4262 -0.8392
vn 0.1029 0.8267 -0.5532
vn 0.0271 0.9822 -0.1861
vn 0.0529 0.9824 -0.1791
vn 0.1993 0.8277 -0.5246
vn -0 0.9988 -0.0492
vn 0.0529 0.9824 -0.1791
vn 0.0271 0.9822 -0.1861
vn -0 0.9988 -0.0492
vn 0.0271 0.9822 -0.1861
vn -0 0.9821 -0.1886
vn -0 0.9988 -0.0492
vn -0 0.9959 0.0903
vn 0.0269 0.9958 0.0879
vn -0 0.9988 -0.0492
vn -0.0269 0.9958 0.0879
vn -0 0.9959 0.0903
vn -0 0.9988 -0.0492
vn -0.0525 0.9953 0.081
vn -0.0269 0.9958 0.0879
vn -0 0.9988 -0.0492
vn -0.0765 0.9946 0.0695
vn -0.0525 0.9953 0.081
vn -0 0.9988 -0.0492
vn -0.0983 0.9938 0.0522
vn -0.0765 0.9946 0.0695
vn -0 0.9988 -0.0492
vn -0.115 0.9929 0.0296
vn -0.0983 0.9938 0.0522
vn -0 0.9988 -0.0492
vn -0.1261 0.9867 -0.1023
vn -0.132 0.9883 -0.0759
vn -0 0.9988 -0.0492
vn -0.1155 0.9851 -0.1272
vn -0.1261 0.9867 -0.1023
vn -0 0.9988 -0.0492
vn -0.0988 0.9837 -0.15
vn -0.1155 0.9851 -0.1272
vn -0 0.9988 -0.0492
vn -0.132 0.9883 -0.0759
vn -0.1341 0.9898 -0.0487
vn -0 0.9988 -0.0492
vn -0.1341 0.9898 -0.0487
vn -0.132 0.991 -0.0215
vn -0 0.9988 -0.0492
vn -0.077 0.9829 -0.1675
vn -0.0988 0.9837 -0.15
vn -0 0.9988 -0.0492
vn -0.1258 0.992 0.0049
vn -0.115 0.9929 0.0296
vn -0 0.9988 -0.0492
vn -0.132 0.991 -0.0215
vn -0.1258 0.992 0.0049
vn -0 0.9988 -0.0492
vn -0.0529 0.9824 -0.1791
vn -0.077 0.9829 -0.1675
vn -0 0.9988 -0.0492
vn -0.0271 0.9822 -0.1861
vn -0.0529 0.9824 -0.1791
vn -0 0.9988 -0.0492
vn -0 0.9821 -0.1886
vn -0.0271 0.9822 -0.1861
vn -0 0.9988 -0.0492
vn 0.0765 0.9946 0.0695
vn 0.0983 0.9938 0.0522
vn -0 0.9988 -0.0492
vn 0.0525 0.9953 0.081
vn 0.0765 0.9946 0.0695
vn -0 0.9988 -0.0492
vn 0.0269 0.9958 0.0879
vn 0.0525 0.9953 0.081
vn -0 0.9988 -0.0492
vn 0.0983 0.9938 0.0522
vn 0.115 0.9929 0.0296
vn -0 0.9988 -0.0492
vn 0.1155 0.9851 -0.1272
vn 0.0988 0.9837 -0.1499
vn -0 0.9988 -0.0492
vn 0.1261 0.9867 -0.1023
vn 0.1155 0.9851 -0.1272
vn -0 0.9988 -0.0492
vn 0.1321 0.9883 -0.0759
vn 0.1261 0.9867 -0.1023
vn -0 0.9988 -0.0492
vn 0.1341 0.9898 -0.0487
vn 0.1321 0.9883 -0.0759
vn -0 0.9988 -0.0492
vn 0.0988 0.9837 -0.1499
vn 0.077 0.9829 -0.1675
vn -0 0.9988 -0.0492
vn 0.132 0.991 -0.0215
vn 0.1341 0.9898 -0.0487
vn -0 0.9988 -0.0492
vn 0.1259 0.992 0.0049
vn 0.132 0.991 -0.0215
vn -0 0.9988 -0.0492
vn 0.115 0.9929 0.0296
vn 0.1259 0.992 0.0049
vn -0 0.9988 -0.0492
vn 0.077 0.9829 -0.1675
vn 0.0529 0.9824 -0.1791
vn 0.0988 0.9837 -0.1499
vn 0.3684 0.8331 -0.4125
vn 0.2884 0.8296 -0.4782
vn 0.077 0.9829 -0.1675
vn 0.1993 0.8277 -0.5246
vn 0.0529 0.9824 -0.1791
vn 0.077 0.9829 -0.1675
vn 0.2884 0.8296 -0.4782
vn 0.3684 0.8331 -0.4125
vn 0.6234 0.4382 -0.6475
vn 0.4882 0.4311 -0.7589
vn 0.2884 0.8296 -0.4782
vn 0.3379 0.4262 -0.8392
vn 0.1993 0.8277 -0.5246
vn 0.2884 0.8296 -0.4782
vn 0.4882 0.4311 -0.7589
vn 0.6234 0.4382 -0.6475
vn 0.3684 0.8331 -0.4125
vn 0.4321 0.8389 -0.331
vn 0.7336 0.4477 -0.5113
vn 0.3684 0.8331 -0.4125
vn 0.0988 0.9837 -0.1499
vn 0.1155 0.9851 -0.1272
vn 0.4321 0.8389 -0.331
vn 0.7336 0.4477 -0.5113
vn 0.4321 0.8389 -0.331
vn 0.4764 0.8456 -0.241
vn 0.8124 0.4583 -0.3605
vn 0.4321 0.8389 -0.331
vn 0.1155 0.9851 -0.1272
vn 0.1261 0.9867 -0.1023
vn 0.4764 0.8456 -0.241
vn 0.8124 0.4583 -0.3605
vn 0.4764 0.8456 -0.241
vn 0.5028 0.8522 -0.1445
vn 0.8608 0.4692 -0.1974
vn 0.4764 0.8456 -0.241
vn 0.1261 0.9867 -0.1023
vn 0.1321 0.9883 -0.0759
vn 0.5028 0.8522 -0.1445
vn 0.5117 0.8581 -0.0421
vn 0.8771 0.4797 -0.0233
vn 0.8608 0.4692 -0.1974
vn 0.5028 0.8522 -0.1445
vn 0.1341 0.9898 -0.0487
vn 0.5117 0.8581 -0.0421
vn 0.5028 0.8522 -0.1445
vn 0.1321 0.9883 -0.0759
vn 0.5117 0.8581 -0.0421
vn 0.1341 0.9898 -0.0487
vn 0.132 0.991 -0.0215
vn 0.5016 0.863 0.06
vn 0.8771 0.4797 -0.0233
vn 0.5117 0.8581 -0.0421
vn 0.5016 0.863 0.06
vn 0.859 0.4894 0.1506
vn 0.859 0.4894 0.1506
vn 0.5016 0.863 0.06
vn 0.4741 0.8665 0.156
vn 0.8091 0.4975 0.3129
vn 0.5016 0.863 0.06
vn 0.132 0.991 -0.0215
vn 0.1259 0.992 0.0049
vn 0.4741 0.8665 0.156
vn 0.8091 0.4975 0.3129
vn 0.4741 0.8665 0.156
vn 0.4292 0.8693 0.2451
vn 0.7293 0.5044 0.4623
vn 0.4741 0.8665 0.156
vn 0.1259 0.992 0.0049
vn 0.115 0.9929 0.0296
vn 0.4292 0.8693 0.2451
vn 0.3652 0.8722 0.3255
vn 0.6189 0.5106 0.5968
vn 0.7293 0.5044 0.4623
vn 0.4292 0.8693 0.2451
vn 0.0983 0.9938 0.0522
vn 0.3652 0.8722 0.3255
vn 0.4292 0.8693 0.2451
vn 0.115 0.9929 0.0296
vn 0.6189 0.5106 0.5968
vn 0.3652 0.8722 0.3255
vn 0.2854 0.8755 0.3899
vn 0.484 0.5163 0.7065
vn 0.3652 0.8722 0.3255
vn 0.0983 0.9938 0.0522
vn 0.0765 0.9946 0.0695
vn 0.2854 0.8755 0.3899
vn 0.484 0.5163 0.7065
vn 0.2854 0.8755 0.3899
vn 0.1969 0.8785 0.4352
vn 0.3346 0.5207 0.7854
vn 0.2854 0.8755 0.3899
vn 0.0765 0.9946 0.0695
vn 0.0525 0.9953 0.081
vn 0.1969 0.8785 0.4352
vn 0.3346 0.5207 0.7854
vn 0.1969 0.8785 0.4352
vn 0.1016 0.8805 0.4631
vn 0.173 0.5235 0.8343
vn 0.1969 0.8785 0.4352
vn 0.0525 0.9953 0.081
vn 0.0269 0.9958 0.0879
vn 0.1016 0.8805 0.4631
vn -0 0.8811 0.473
vn -0 0.5244 0.8515
vn 0.173 0.5235 0.8343
vn 0.1016 0.8805 0.4631
vn -0 0.9959 0.0903
vn -0 0.8811 0.473
vn 0.1016 0.8805 0.4631
vn 0.0269 0.9958 0.0879
vn -0 0.5244 0.8515
vn -0 0.8811 0.473
vn -0.1016 0.8805 0.4631
vn -0.173 0.5235 0.8343
vn -0 0.8811 0.473
vn -0 0.9959 0.0903
vn -0.0269 0.9958 0.0879
vn -0.1016 0.8805 0.4631
vn -0.0525 0.9953 0.081
vn -0.1969 0.8785 0.4352
vn -0.1016 0.8805 0.4631
vn -0.0269 0.9958 0.0879
vn -0.1969 0.8785 0.4352
vn -0.3347 0.5207 0.7854
vn -0.173 0.5235 0.8343
vn -0.1016 0.8805 0.4631
vn -0.0765 0.9946 0.0695
vn -0.2854 0.8755 0.3899
vn -0.1969 0.8785 0.4352
vn -0.0525 0.9953 0.081
vn -0.2854 0.8755 0.3899
vn -0.484 0.5163 0.7065
vn -0.3347 0.5207 0.7854
vn -0.1969 0.8785 0.4352
vn -0.0983 0.9938 0.0522
vn -0.3652 0.8722 0.3255
vn -0.2854 0.8755 0.3899
vn -0.0765 0.9946 0.0695
vn -0.3652 0.8722 0.3255
vn -0.6189 0.5106 0.5968
vn -0.484 0.5163 0.7065
vn -0.2854 0.8755 0.3899
vn -0.3652 0.8722 0.3255
vn -0.0983 0.9938 0.0522
vn -0.115 0.9929 0.0296
vn -0.4292 0.8693 0.2451
vn -0.6189 0.5106 0.5968
vn -0.3652 0.8722 0.3255
vn -0.4292 0.8693 0.2451
vn -0.7293 0.5044 0.4623
vn -0.1258 0.992 0.0049
vn -0.4741 0.8665 0.156
vn -0.4292 0.8693 0.2451
vn -0.115 0.9929 0.0296
vn -0.4741 0.8665 0.156
vn -0.8091 0.4975 0.3129
vn -0.7293 0.5044 0.4623
vn -0.4292 0.8693 0.2451
vn -0.132 0.991 -0.0215
vn -0.5016 0.863 0.06
vn -0.4741 0.8665 0.156
vn -0.1258 0.992 0.0049
vn -0.5016 0.863 0.06
vn -0.859 0.4894 0.1506
vn -0.8091 0.4975 0.3129
vn -0.4741 0.8665 0.156
vn -0.1341 0.9898 -0.0487
vn -0.5117 0.8581 -0.0421
vn -0.5016 0.863 0.06
vn -0.132 0.991 -0.0215
vn -0.5117 0.8581 -0.0421
vn -0.8771 0.4797 -0.0232
vn -0.859 0.4894 0.1506
vn -0.5016 0.863 0.06
vn -0.8771 0.4797 -0.0232
vn -0.5117 0.8581 -0.0421
vn -0.5028 0.8522 -0.1444
vn -0.8608 0.4691 -0.1974
vn -0.5117 0.8581 -0.0421
vn -0.1341 0.9898 -0.0487
vn -0.132 0.9883 -0.0759
vn -0.5028 0.8522 -0.1444
vn -0.1261 0.9867 -0.1023
vn -0.4764 0.8455 -0.241
vn -0.5028 0.8522 -0.1444
vn -0.132 0.9883 -0.0759
vn -0.4764 0.8455 -0.241
vn -0.8124 0.4582 -0.3605
vn -0.8608 0.4691 -0.1974
vn -0.5028 0.8522 -0.1444
vn -0.1155 0.9851 -0.1272
vn -0.4322 0.8388 -0.331
vn -0.4764 0.8455 -0.241
vn -0.1261 0.9867 -0.1023
vn -0.4322 0.8388 -0.331
vn -0.7336 0.4477 -0.5113
vn -0.8124 0.4582 -0.3605
vn -0.4764 0.8455 -0.241
vn -0.0988 0.9837 -0.15
vn -0.3684 0.8331 -0.4125
vn -0.4322 0.8388 -0.331
vn -0.1155 0.9851 -0.1272
vn -0.3684 0.8331 -0.4125
vn -0.6234 0.4382 -0.6475
vn -0.7336 0.4477 -0.5113
vn -0.4322 0.8388 -0.331
vn -0.3684 0.8331 -0.4125
vn -0.0988 0.9837 -0.15
vn -0.077 0.9829 -0.1675
vn -0.2884 0.8296 -0.4782
vn -0.6234 0.4382 -0.6475
vn -0.3684 0.8331 -0.4125
vn -0.2884 0.8296 -0.4782
vn -0.4882 0.4311 -0.7589
vn -0.0529 0.9824 -0.1791
vn -0.1993 0.8277 -0.5246
vn -0.2884 0.8296 -0.4782
vn -0.077 0.9829 -0.1675
vt 0.437617 0.189563
vt 0.437792 0.15409
vt 0.427265 0.154041
vt 0.427265 0.189514
vt 0.427265 0.154041
vt 0.416738 0.15409
vt 0.416914 0.189563
vt 0.427265 0.189514
vt 0.76271 0.896021
vt 0.764851 0.896674
vt 0.768919 0.886954
vt 0.76695 0.885885
vt 0.764851 0.896674
vt 0.76271 0.896021
vt 0.760576 0.9068
vt 0.762807 0.907011
vt 0.76695 0.885885
vt 0.768919 0.886954
vt 0.774812 0.878185
vt 0.773087 0.87675
vt 0.416738 0.15409
vt 0.406192 0.15423
vt 0.406549 0.189704
vt 0.416914 0.189563
vt 0.773087 0.87675
vt 0.774812 0.878185
vt 0.782267 0.870703
vt 0.780854 0.868957
vt 0.406192 0.15423
vt 0.39565 0.154451
vt 0.396198 0.189933
vt 0.406549 0.189704
vt 0.396198 0.189933
vt 0.39565 0.154451
vt 0.385138 0.154746
vt 0.38589 0.190245
vt 0.385138 0.154746
vt 0.374633 0.15511
vt 0.375603 0.190638
vt 0.38589 0.190245
vt 0.791012 0.864833
vt 0.789974 0.86284
vt 0.780854 0.868957
vt 0.782267 0.870703
vt 0.789974 0.86284
vt 0.791012 0.864833
vt 0.800754 0.86084
vt 0.800131 0.85868
vt 0.800131 0.85868
vt 0.800754 0.86084
vt 0.811111 0.858817
vt 0.810917 0.856579
vt 0.374633 0.15511
vt 0.364113 0.155542
vt 0.365309 0.191104
vt 0.375603 0.190638
vt 0.810917 0.856579
vt 0.811111 0.858817
vt 0.821665 0.858806
vt 0.821906 0.85657
vt 0.364113 0.155542
vt 0.353597 0.156044
vt 0.355025 0.191634
vt 0.365309 0.191104
vt 0.355025 0.191634
vt 0.353597 0.156044
vt 0.343109 0.156621
vt 0.344767 0.192222
vt 0.343109 0.156621
vt 0.332626 0.157277
vt 0.334513 0.192865
vt 0.344767 0.192222
vt 0.832692 0.858686
vt 0.832008 0.860837
vt 0.841719 0.864931
vt 0.842815 0.862965
vt 0.832008 0.860837
vt 0.832692 0.858686
vt 0.821906 0.85657
vt 0.821665 0.858806
vt 0.842815 0.862965
vt 0.841719 0.864931
vt 0.850462 0.870836
vt 0.851915 0.869115
vt 0.332626 0.157277
vt 0.322126 0.158
vt 0.324239 0.193559
vt 0.334513 0.192865
vt 0.851915 0.869115
vt 0.850462 0.870836
vt 0.857919 0.878296
vt 0.859676 0.876882
vt 0.322126 0.158
vt 0.311629 0.158774
vt 0.313964 0.194296
vt 0.324239 0.193559
vt 0.313964 0.194296
vt 0.311629 0.158774
vt 0.301157 0.159586
vt 0.303704 0.195074
vt 0.301157 0.159586
vt 0.290684 0.16043
vt 0.293432 0.195894
vt 0.303704 0.195074
vt 0.863767 0.887043
vt 0.865766 0.885997
vt 0.859676 0.876882
vt 0.857919 0.878296
vt 0.865766 0.885997
vt 0.863767 0.887043
vt 0.867741 0.896785
vt 0.869906 0.89615
vt 0.869906 0.89615
vt 0.867741 0.896785
vt 0.869749 0.907142
vt 0.871994 0.906931
vt 0.290684 0.16043
vt 0.280189 0.161308
vt 0.283127 0.196756
vt 0.293432 0.195894
vt 0.871994 0.906931
vt 0.869749 0.907142
vt 0.869746 0.917692
vt 0.871989 0.917914
vt 0.280189 0.161308
vt 0.269695 0.16222
vt 0.272814 0.197656
vt 0.283127 0.196756
vt 0.272814 0.197656
vt 0.269695 0.16222
vt 0.259225 0.163171
vt 0.262518 0.198593
vt 0.595306 0.163171
vt 0.584836 0.16222
vt 0.581717 0.197656
vt 0.592012 0.198593
vt 0.867701 0.928015
vt 0.869855 0.928672
vt 0.871989 0.917914
vt 0.869746 0.917692
vt 0.869855 0.928672
vt 0.867701 0.928015
vt 0.863641 0.937724
vt 0.865627 0.938791
vt 0.85776 0.946484
vt 0.859507 0.947911
vt 0.865627 0.938791
vt 0.863641 0.937724
vt 0.584836 0.16222
vt 0.574341 0.161308
vt 0.571403 0.196756
vt 0.581717 0.197656
vt 0.850318 0.953961
vt 0.851761 0.955696
vt 0.859507 0.947911
vt 0.85776 0.946484
vt 0.574341 0.161308
vt 0.563847 0.16043
vt 0.561098 0.195894
vt 0.571403 0.196756
vt 0.561098 0.195894
vt 0.563847 0.16043
vt 0.553374 0.159587
vt 0.550827 0.195074
vt 0.553374 0.159587
vt 0.542901 0.158774
vt 0.540567 0.194296
vt 0.550827 0.195074
vt 0.842663 0.961814
vt 0.841586 0.959831
vt 0.831855 0.96383
vt 0.832524 0.965983
vt 0.841586 0.959831
vt 0.842663 0.961814
vt 0.851761 0.955696
vt 0.850318 0.953961
vt 0.821505 0.965864
vt 0.821751 0.968103
vt 0.832524 0.965983
vt 0.831855 0.96383
vt 0.542901 0.158774
vt 0.532405 0.158
vt 0.530292 0.193559
vt 0.540567 0.194296
vt 0.810954 0.965889
vt 0.810767 0.968132
vt 0.821751 0.968103
vt 0.821505 0.965864
vt 0.532405 0.158
vt 0.521905 0.157277
vt 0.520018 0.192865
vt 0.530292 0.193559
vt 0.520018 0.192865
vt 0.521905 0.157277
vt 0.511422 0.156621
vt 0.509763 0.192222
vt 0.511422 0.156621
vt 0.500933 0.156044
vt 0.499505 0.191634
vt 0.509763 0.192222
vt 0.80061 0.963872
vt 0.799978 0.966039
vt 0.810767 0.968132
vt 0.810954 0.965889
vt 0.799978 0.966039
vt 0.80061 0.963872
vt 0.790892 0.959791
vt 0.789845 0.96178
vt 0.782138 0.953895
vt 0.780729 0.955645
vt 0.789845 0.96178
vt 0.790892 0.959791
vt 0.500933 0.156044
vt 0.490418 0.155542
vt 0.489221 0.191104
vt 0.499505 0.191634
vt 0.774669 0.94644
vt 0.772948 0.947886
vt 0.780729 0.955645
vt 0.782138 0.953895
vt 0.490418 0.155542
vt 0.479897 0.15511
vt 0.478928 0.190638
vt 0.489221 0.191104
vt 0.478928 0.190638
vt 0.479897 0.15511
vt 0.469393 0.154746
vt 0.468641 0.190245
vt 0.469393 0.154746
vt 0.45888 0.154451
vt 0.458332 0.189933
vt 0.468641 0.190245
vt 0.766836 0.938768
vt 0.768809 0.937693
vt 0.764824 0.927944
vt 0.762678 0.928605
vt 0.768809 0.937693
vt 0.766836 0.938768
vt 0.772948 0.947886
vt 0.774669 0.94644
vt 0.762808 0.917576
vt 0.760576 0.917805
vt 0.762678 0.928605
vt 0.764824 0.927944
vt 0.45888 0.154451
vt 0.448339 0.15423
vt 0.447982 0.189704
vt 0.458332 0.189933
vt 0.762807 0.907011
vt 0.760576 0.9068
vt 0.760576 0.917805
vt 0.762808 0.917576
vt 0.448339 0.15423
vt 0.437792 0.15409
vt 0.437617 0.189563
vt 0.447982 0.189704
vt 0.764979 0.917356
vt 0.762808 0.917576
vt 0.764824 0.927944
vt 0.766915 0.927306
vt 0.764974 0.907218
vt 0.762807 0.907011
vt 0.762808 0.917576
vt 0.764979 0.917356
vt 0.76693 0.897307
vt 0.764851 0.896674
vt 0.762807 0.907011
vt 0.764974 0.907218
vt 0.769025 0.897946
vt 0.76693 0.897307
vt 0.764974 0.907218
vt 0.767155 0.907429
vt 0.767155 0.907429
vt 0.764974 0.907218
vt 0.764979 0.917356
vt 0.767163 0.917141
vt 0.76693 0.897307
vt 0.769025 0.897946
vt 0.772761 0.889031
vt 0.770833 0.88799
vt 0.764851 0.896674
vt 0.76693 0.897307
vt 0.770833 0.88799
vt 0.768919 0.886954
vt 0.768919 0.886954
vt 0.770833 0.88799
vt 0.776491 0.879578
vt 0.774812 0.878185
vt 0.770833 0.88799
vt 0.772761 0.889031
vt 0.778184 0.880974
vt 0.776491 0.879578
vt 0.816266 0.912341
vt 0.778184 0.880974
vt 0.772761 0.889031
vt 0.816266 0.912341
vt 0.772761 0.889031
vt 0.769025 0.897946
vt 0.816266 0.912341
vt 0.863488 0.926731
vt 0.865358 0.91726
vt 0.816266 0.912341
vt 0.859758 0.935636
vt 0.863488 0.926731
vt 0.816266 0.912341
vt 0.854345 0.943686
vt 0.859758 0.935636
vt 0.816266 0.912341
vt 0.847501 0.950558
vt 0.854345 0.943686
vt 0.816266 0.912341
vt 0.839492 0.955943
vt 0.847501 0.950558
vt 0.816266 0.912341
vt 0.830566 0.959611
vt 0.839492 0.955943
vt 0.816266 0.912341
vt 0.78491 0.950493
vt 0.792957 0.955918
vt 0.816266 0.912341
vt 0.778045 0.943636
vt 0.78491 0.950493
vt 0.816266 0.912341
vt 0.772672 0.935614
vt 0.778045 0.943636
vt 0.816266 0.912341
vt 0.792957 0.955918
vt 0.801866 0.959655
vt 0.816266 0.912341
vt 0.801866 0.959655
vt 0.811346 0.96151
vt 0.816266 0.912341
vt 0.769018 0.926673
vt 0.772672 0.935614
vt 0.816266 0.912341
vt 0.821049 0.961484
vt 0.830566 0.959611
vt 0.816266 0.912341
vt 0.811346 0.96151
vt 0.821049 0.961484
vt 0.816266 0.912341
vt 0.767163 0.917141
vt 0.769018 0.926673
vt 0.816266 0.912341
vt 0.767155 0.907429
vt 0.767163 0.917141
vt 0.816266 0.912341
vt 0.769025 0.897946
vt 0.767155 0.907429
vt 0.816266 0.912341
vt 0.863505 0.898038
vt 0.85986 0.889102
vt 0.816266 0.912341
vt 0.865354 0.90756
vt 0.863505 0.898038
vt 0.816266 0.912341
vt 0.865358 0.91726
vt 0.865354 0.90756
vt 0.816266 0.912341
vt 0.85986 0.889102
vt 0.854496 0.88108
vt 0.816266 0.912341
vt 0.801993 0.86505
vt 0.793058 0.868712
vt 0.816266 0.912341
vt 0.811515 0.863187
vt 0.801993 0.86505
vt 0.816266 0.912341
vt 0.82122 0.863171
vt 0.811515 0.863187
vt 0.816266 0.912341
vt 0.830698 0.865038
vt 0.82122 0.863171
vt 0.816266 0.912341
vt 0.793058 0.868712
vt 0.785039 0.874097
vt 0.816266 0.912341
vt 0.839602 0.868785
vt 0.830698 0.865038
vt 0.816266 0.912341
vt 0.847641 0.874218
vt 0.839602 0.868785
vt 0.816266 0.912341
vt 0.854496 0.88108
vt 0.847641 0.874218
vt 0.816266 0.912341
vt 0.785039 0.874097
vt 0.778184 0.880974
vt 0.793058 0.868712
vt 0.792029 0.866771
vt 0.783647 0.872398
vt 0.785039 0.874097
vt 0.776491 0.879578
vt 0.778184 0.880974
vt 0.785039 0.874097
vt 0.783647 0.872398
vt 0.792029 0.866771
vt 0.791012 0.864833
vt 0.782267 0.870703
vt 0.783647 0.872398
vt 0.774812 0.878185
vt 0.776491 0.879578
vt 0.783647 0.872398
vt 0.782267 0.870703
vt 0.791012 0.864833
vt 0.792029 0.866771
vt 0.801367 0.862943
vt 0.800754 0.86084
vt 0.792029 0.866771
vt 0.793058 0.868712
vt 0.801993 0.86505
vt 0.801367 0.862943
vt 0.800754 0.86084
vt 0.801367 0.862943
vt 0.811307 0.860998
vt 0.811111 0.858817
vt 0.801367 0.862943
vt 0.801993 0.86505
vt 0.811515 0.863187
vt 0.811307 0.860998
vt 0.811111 0.858817
vt 0.811307 0.860998
vt 0.821437 0.860982
vt 0.821665 0.858806
vt 0.811307 0.860998
vt 0.811515 0.863187
vt 0.82122 0.863171
vt 0.821437 0.860982
vt 0.831349 0.862931
vt 0.832008 0.860837
vt 0.821665 0.858806
vt 0.821437 0.860982
vt 0.830698 0.865038
vt 0.831349 0.862931
vt 0.821437 0.860982
vt 0.82122 0.863171
vt 0.831349 0.862931
vt 0.830698 0.865038
vt 0.839602 0.868785
vt 0.840657 0.866852
vt 0.832008 0.860837
vt 0.831349 0.862931
vt 0.840657 0.866852
vt 0.841719 0.864931
vt 0.841719 0.864931
vt 0.840657 0.866852
vt 0.849049 0.872522
vt 0.850462 0.870836
vt 0.840657 0.866852
vt 0.839602 0.868785
vt 0.847641 0.874218
vt 0.849049 0.872522
vt 0.850462 0.870836
vt 0.849049 0.872522
vt 0.856205 0.879684
vt 0.857919 0.878296
vt 0.849049 0.872522
vt 0.847641 0.874218
vt 0.854496 0.88108
vt 0.856205 0.879684
vt 0.861811 0.88807
vt 0.863767 0.887043
vt 0.857919 0.878296
vt 0.856205 0.879684
vt 0.85986 0.889102
vt 0.861811 0.88807
vt 0.856205 0.879684
vt 0.854496 0.88108
vt 0.863767 0.887043
vt 0.861811 0.88807
vt 0.865622 0.89741
vt 0.867741 0.896785
vt 0.861811 0.88807
vt 0.85986 0.889102
vt 0.863505 0.898038
vt 0.865622 0.89741
vt 0.867741 0.896785
vt 0.865622 0.89741
vt 0.867551 0.90735
vt 0.869749 0.907142
vt 0.865622 0.89741
vt 0.863505 0.898038
vt 0.865354 0.90756
vt 0.867551 0.90735
vt 0.869749 0.907142
vt 0.867551 0.90735
vt 0.867552 0.917476
vt 0.869746 0.917692
vt 0.867551 0.90735
vt 0.865354 0.90756
vt 0.865358 0.91726
vt 0.867552 0.917476
vt 0.865596 0.927374
vt 0.867701 0.928015
vt 0.869746 0.917692
vt 0.867552 0.917476
vt 0.863488 0.926731
vt 0.865596 0.927374
vt 0.867552 0.917476
vt 0.865358 0.91726
vt 0.867701 0.928015
vt 0.865596 0.927374
vt 0.8617 0.936681
vt 0.863641 0.937724
vt 0.865596 0.927374
vt 0.863488 0.926731
vt 0.859758 0.935636
vt 0.8617 0.936681
vt 0.854345 0.943686
vt 0.856052 0.945085
vt 0.8617 0.936681
vt 0.859758 0.935636
vt 0.856052 0.945085
vt 0.85776 0.946484
vt 0.863641 0.937724
vt 0.8617 0.936681
vt 0.847501 0.950558
vt 0.848907 0.95226
vt 0.856052 0.945085
vt 0.854345 0.943686
vt 0.848907 0.95226
vt 0.850318 0.953961
vt 0.85776 0.946484
vt 0.856052 0.945085
vt 0.839492 0.955943
vt 0.840536 0.957887
vt 0.848907 0.95226
vt 0.847501 0.950558
vt 0.840536 0.957887
vt 0.841586 0.959831
vt 0.850318 0.953961
vt 0.848907 0.95226
vt 0.840536 0.957887
vt 0.839492 0.955943
vt 0.830566 0.959611
vt 0.831206 0.961722
vt 0.841586 0.959831
vt 0.840536 0.957887
vt 0.831206 0.961722
vt 0.831855 0.96383
vt 0.821049 0.961484
vt 0.821272 0.963676
vt 0.831206 0.961722
vt 0.830566 0.959611
vt 0.821272 0.963676
vt 0.821505 0.965864
vt 0.831855 0.96383
vt 0.831206 0.961722
vt 0.811346 0.96151
vt 0.811144 0.963703
vt 0.821272 0.963676
vt 0.821049 0.961484
vt 0.811144 0.963703
vt 0.810954 0.965889
vt 0.821505 0.965864
vt 0.821272 0.963676
vt 0.801866 0.959655
vt 0.801231 0.961767
vt 0.811144 0.963703
vt 0.811346 0.96151
vt 0.801231 0.961767
vt 0.80061 0.963872
vt 0.810954 0.965889
vt 0.811144 0.963703
vt 0.80061 0.963872
vt 0.801231 0.961767
vt 0.791917 0.957857
vt 0.790892 0.959791
vt 0.801231 0.961767
vt 0.801866 0.959655
vt 0.792957 0.955918
vt 0.791917 0.957857
vt 0.78491 0.950493
vt 0.783517 0.952195
vt 0.791917 0.957857
vt 0.792957 0.955918
vt 0.783517 0.952195
vt 0.782138 0.953895
vt 0.790892 0.959791
vt 0.791917 0.957857
vt 0.778045 0.943636
vt 0.776351 0.945037
vt 0.783517 0.952195
vt 0.78491 0.950493
vt 0.776351 0.945037
vt 0.774669 0.94644
vt 0.782138 0.953895
vt 0.783517 0.952195
vt 0.772672 0.935614
vt 0.770735 0.936651
vt 0.776351 0.945037
vt 0.778045 0.943636
vt 0.770735 0.936651
vt 0.768809 0.937693
vt 0.774669 0.94644
vt 0.776351 0.945037
vt 0.770735 0.936651
vt 0.772672 0.935614
vt 0.769018 0.926673
vt 0.766915 0.927306
vt 0.768809 0.937693
vt 0.770735 0.936651
vt 0.766915 0.927306
vt 0.764824 0.927944
vt 0.767163 0.917141
vt 0.764979 0.917356
vt 0.766915 0.927306
vt 0.769018 0.926673
s off
f 1/1/1 2/2/2 3/3/3
f 1/1/1 3/3/3 4/4/4
f 5/5/5 6/6/6 7/7/7
f 5/5/5 7/7/7 8/8/8
f 9/9/9 10/10/10 11/11/11
f 9/9/9 11/11/11 12/12/12
f 13/13/13 14/14/14 15/15/15
f 13/13/13 15/15/15 16/16/16
f 17/17/17 18/18/18 19/19/19
f 17/17/17 19/19/19 20/20/20
f 21/21/21 22/22/22 23/23/23
f 21/21/21 23/23/23 24/24/24
f 25/25/25 26/26/26 27/27/27
f 25/25/25 27/27/27 28/28/28
f 29/29/29 30/30/30 31/31/31
f 29/29/29 31/31/31 32/32/32
f 33/33/33 34/34/34 35/35/35
f 33/33/33 35/35/35 36/36/36
f 37/37/37 38/38/38 39/39/39
f 37/37/37 39/39/39 40/40/40
f 41/41/41 42/42/42 43/43/43
f 41/41/41 43/43/43 44/44/44
f 45/45/45 46/46/46 47/47/47
f 45/45/45 47/47/47 48/48/48
f 49/49/49 50/50/50 51/51/51
f 49/49/49 51/51/51 52/52/52
f 53/53/53 54/54/54 55/55/55
f 53/53/53 55/55/55 56/56/56
f 57/57/57 58/58/58 59/59/59
f 57/57/57 59/59/59 60/60/60
f 61/61/61 62/62/62 63/63/63
f 61/61/61 63/63/63 64/64/64
f 65/65/65 66/66/66 67/67/67
f 65/65/65 67/67/67 68/68/68
f 69/69/69 70/70/70 71/71/71
f 69/69/69 71/71/71 72/72/72
f 73/73/73 74/74/74 75/75/75
f 73/73/73 75/75/75 76/76/76
f 77/77/77 78/78/78 79/79/79
f 77/77/77 79/79/79 80/80/80
f 81/81/81 82/82/82 83/83/83
f 81/81/81 83/83/83 84/84/84
f 85/85/85 86/86/86 87/87/87
f 85/85/85 87/87/87 88/88/88
f 89/89/89 90/90/90 91/91/91
f 89/89/89 91/91/91 92/92/92
f 93/93/93 94/94/94 95/95/95
f 93/93/93 95/95/95 96/96/96
f 97/97/97 98/98/98 99/99/99
f 97/97/97 99/99/99 100/100/100
f 101/101/101 102/102/102 103/103/103
f 101/101/101 103/103/103 104/104/104
f 105/105/105 106/106/106 107/107/107
f 105/105/105 107/107/107 108/108/108
f 109/109/109 110/110/110 111/111/111
f 109/109/109 111/111/111 112/112/112
f 113/113/113 114/114/114 115/115/115
f 113/113/113 115/115/115 116/116/116
f 117/117/117 118/118/118 119/119/119
f 117/117/117 119/119/119 120/120/120
f 121/121/121 122/122/122 123/123/123
f 121/121/121 123/123/123 124/124/124
f 125/125/125 126/126/126 127/127/127
f 125/125/125 127/127/127 128/128/128
f 129/129/129 130/130/130 131/131/131
f 129/129/129 131/131/131 132/132/132
f 133/133/133 134/134/134 135/135/135
f 133/133/133 135/135/135 136/136/136
f 137/137/137 138/138/138 139/139/139
f 137/137/137 139/139/139 140/140/140
f 141/141/141 142/142/142 143/143/143
f 141/141/141 143/143/143 144/144/144
f 145/145/145 146/146/146 147/147/147
f 145/145/145 147/147/147 148/148/148
f 149/149/149 150/150/150 151/151/151
f 149/149/149 151/151/151 152/152/152
f 153/153/153 154/154/154 155/155/155
f 153/153/153 155/155/155 156/156/156
f 157/157/157 158/158/158 159/159/159
f 157/157/157 159/159/159 160/160/160
f 161/161/161 162/162/162 163/163/163
f 161/161/161 163/163/163 164/164/164
f 165/165/165 166/166/166 167/167/167
f 165/165/165 167/167/167 168/168/168
f 169/169/169 170/170/170 171/171/171
f 169/169/169 171/171/171 172/172/172
f 173/173/173 174/174/174 175/175/175
f 173/173/173 175/175/175 176/176/176
f 177/177/177 178/178/178 179/179/179
f 177/177/177 179/179/179 180/180/180
f 181/181/181 182/182/182 183/183/183
f 181/181/181 183/183/183 184/184/184
f 185/185/185 186/186/186 187/187/187
f 185/185/185 187/187/187 188/188/188
f 189/189/189 190/190/190 191/191/191
f 189/189/189 191/191/191 192/192/192
f 193/193/193 194/194/194 195/195/195
f 193/193/193 195/195/195 196/196/196
f 197/197/197 198/198/198 199/199/199
f 197/197/197 199/199/199 200/200/200
f 201/201/201 202/202/202 203/203/203
f 201/201/201 203/203/203 204/204/204
f 205/205/205 206/206/206 207/207/207
f 205/205/205 207/207/207 208/208/208
f 209/209/209 210/210/210 211/211/211
f 209/209/209 211/211/211 212/212/212
f 213/213/213 214/214/214 215/215/215
f 213/213/213 215/215/215 216/216/216
f 217/217/217 218/218/218 219/219/219
f 217/217/217 219/219/219 220/220/220
f 221/221/221 222/222/222 223/223/223
f 221/221/221 223/223/223 224/224/224
f 225/225/225 226/226/226 227/227/227
f 225/225/225 227/227/227 228/228/228
f 229/229/229 230/230/230 231/231/231
f 229/229/229 231/231/231 232/232/232
f 233/233/233 234/234/234 235/235/235
f 233/233/233 235/235/235 236/236/236
f 237/237/237 238/238/238 239/239/239
f 237/237/237 239/239/239 240/240/240
f 241/241/241 242/242/242 243/243/243
f 241/241/241 243/243/243 244/244/244
f 245/245/245 246/246/246 247/247/247
f 245/245/245 247/247/247 248/248/248
f 249/249/249 250/250/250 251/251/251
f 249/249/249 251/251/251 252/252/252
f 253/253/253 254/254/254 255/255/255
f 253/253/253 255/255/255 256/256/256
f 257/257/257 258/258/258 259/259/259
f 257/257/257 259/259/259 260/260/260
f 261/261/261 262/262/262 263/263/263
f 261/261/261 263/263/263 264/264/264
f 265/265/265 266/266/266 267/267/267
f 265/265/265 267/267/267 268/268/268
f 269/269/269 270/270/270 271/271/271
f 269/269/269 271/271/271 272/272/272
f 273/273/273 274/274/274 275/275/275
f 273/273/273 275/275/275 276/276/276
f 277/277/277 278/278/278 279/279/279
f 277/277/277 279/279/279 280/280/280
f 281/281/281 282/282/282 283/283/283
f 281/281/281 283/283/283 284/284/284
f 285/285/285 286/286/286 287/287/287
f 285/285/285 287/287/287 288/288/288
f 289/289/289 290/290/290 291/291/291
f 289/289/289 291/291/291 292/292/292
f 293/293/293 294/294/294 295/295/295
f 296/296/296 297/297/297 298/298/298
f 299/299/299 300/300/300 301/301/301
f 302/302/302 303/303/303 304/304/304
f 305/305/305 306/306/306 307/307/307
f 308/308/308 309/309/309 310/310/310
f 311/311/311 312/312/312 313/313/313
f 314/314/314 315/315/315 316/316/316
f 317/317/317 318/318/318 319/319/319
f 320/320/320 321/321/321 322/322/322
f 323/323/323 324/324/324 325/325/325
f 326/326/326 327/327/327 328/328/328
f 329/329/329 330/330/330 331/331/331
f 332/332/332 333/333/333 334/334/334
f 335/335/335 336/336/336 337/337/337
f 338/338/338 339/339/339 340/340/340
f 341/341/341 342/342/342 343/343/343
f 344/344/344 345/345/345 346/346/346
f 347/347/347 348/348/348 349/349/349
f 350/350/350 351/351/351 352/352/352
f 353/353/353 354/354/354 355/355/355
f 356/356/356 357/357/357 358/358/358
f 359/359/359 360/360/360 361/361/361
f 362/362/362 363/363/363 364/364/364
f 365/365/365 366/366/366 367/367/367
f 368/368/368 369/369/369 370/370/370
f 371/371/371 372/372/372 373/373/373
f 374/374/374 375/375/375 376/376/376
f 377/377/377 378/378/378 379/379/379
f 380/380/380 381/381/381 382/382/382
f 383/383/383 384/384/384 385/385/385
f 386/386/386 387/387/387 388/388/388
f 389/389/389 390/390/390 391/391/391
f 389/389/389 391/391/391 392/392/392
f 393/393/393 394/394/394 395/395/395
f 393/393/393 395/395/395 396/396/396
f 397/397/397 398/398/398 399/399/399
f 397/397/397 399/399/399 400/400/400
f 401/401/401 402/402/402 403/403/403
f 401/401/401 403/403/403 404/404/404
f 405/405/405 406/406/406 407/407/407
f 405/405/405 407/407/407 408/408/408
f 409/409/409 410/410/410 411/411/411
f 409/409/409 411/411/411 412/412/412
f 413/413/413 414/414/414 415/415/415
f 413/413/413 415/415/415 416/416/416
f 417/417/417 418/418/418 419/419/419
f 417/417/417 419/419/419 420/420/420
f 421/421/421 422/422/422 423/423/423
f 421/421/421 423/423/423 424/424/424
f 425/425/425 426/426/426 427/427/427
f 425/425/425 427/427/427 428/428/428
f 429/429/429 430/430/430 431/431/431
f 429/429/429 431/431/431 432/432/432
f 433/433/433 434/434/434 435/435/435
f 433/433/433 435/435/435 436/436/436
f 437/437/437 438/438/438 439/439/439
f 437/437/437 439/439/439 440/440/440
f 441/441/441 442/442/442 443/443/443
f 441/441/441 443/443/443 444/444/444
f 445/445/445 446/446/446 447/447/447
f 445/445/445 447/447/447 448/448/448
f 449/449/449 450/450/450 451/451/451
f 449/449/449 451/451/451 452/452/452
f 453/453/453 454/454/454 455/455/455
f 453/453/453 455/455/455 456/456/456
f 457/457/457 458/458/458 459/459/459
f 457/457/457 459/459/459 460/460/460
f 461/461/461 462/462/462 463/463/463
f 461/461/461 463/463/463 464/464/464
f 465/465/465 466/466/466 467/467/467
f 465/465/465 467/467/467 468/468/468
f 469/469/469 470/470/470 471/471/471
f 469/469/469 471/471/471 472/472/472
f 473/473/473 474/474/474 475/475/475
f 473/473/473 475/475/475 476/476/476
f 477/477/477 478/478/478 479/479/479
f 477/477/477 479/479/479 480/480/480
f 481/481/481 482/482/482 483/483/483
f 481/481/481 483/483/483 484/484/484
f 485/485/485 486/486/486 487/487/487
f 485/485/485 487/487/487 488/488/488
f 489/489/489 490/490/490 491/491/491
f 489/489/489 491/491/491 492/492/492
f 493/493/493 494/494/494 495/495/495
f 493/493/493 495/495/495 496/496/496
f 497/497/497 498/498/498 499/499/499
f 497/497/497 499/499/499 500/500/500
f 501/501/501 502/502/502 503/503/503
f 501/501/501 503/503/503 504/504/504
f 505/505/505 506/506/506 507/507/507
f 505/505/505 507/507/507 508/508/508
f 509/509/509 510/510/510 511/511/511
f 509/509/509 511/511/511 512/512/512
f 513/513/513 514/514/514 515/515/515
f 513/513/513 515/515/515 516/516/516
f 517/517/517 518/518/518 519/519/519
f 517/517/517 519/519/519 520/520/520
f 521/521/521 522/522/522 523/523/523
f 521/521/521 523/523/523 524/524/524
f 525/525/525 526/526/526 527/527/527
f 525/525/525 527/527/527 528/528/528
f 529/529/529 530/530/530 531/531/531
f 529/529/529 531/531/531 532/532/532
f 533/533/533 534/534/534 535/535/535
f 533/533/533 535/535/535 536/536/536
f 537/537/537 538/538/538 539/539/539
f 537/537/537 539/539/539 540/540/540
f 541/541/541 542/542/542 543/543/543
f 541/541/541 543/543/543 544/544/544
f 545/545/545 546/546/546 547/547/547
f 545/545/545 547/547/547 548/548/548
f 549/549/549 550/550/550 551/551/551
f 549/549/549 551/551/551 552/552/552
f 553/553/553 554/554/554 555/555/555
f 553/553/553 555/555/555 556/556/556
f 557/557/557 558/558/558 559/559/559
f 557/557/557 559/559/559 560/560/560
f 561/561/561 562/562/562 563/563/563
f 561/561/561 563/563/563 564/564/564
f 565/565/565 566/566/566 567/567/567
f 565/565/565 567/567/567 568/568/568
f 569/569/569 570/570/570 571/571/571
f 569/569/569 571/571/571 572/572/572
f 573/573/573 574/574/574 575/575/575
f 573/573/573 575/575/575 576/576/576
f 577/577/577 578/578/578 579/579/579
f 577/577/577 579/579/579 580/580/580
f 581/581/581 582/582/582 583/583/583
f 581/581/581 583/583/583 584/584/584
f 585/585/585 586/586/586 587/587/587
f 585/585/585 587/587/587 588/588/588
f 589/589/589 590/590/590 591/591/591
f 589/589/589 591/591/591 592/592/592
f 593/593/593 594/594/594 595/595/595
f 593/593/593 595/595/595 596/596/596
f 597/597/597 598/598/598 599/599/599
f 597/597/597 599/599/599 600/600/600
f 601/601/601 602/602/602 603/603/603
f 601/601/601 603/603/603 604/604/604
f 605/605/605 606/606/606 607/607/607
f 605/605/605 607/607/607 608/608/608
