v 0.679896 0.157082 -0.452879
v 0.679896 0.210497 -0.452879
v 0.69692 0.208227 -0.450638
v 0.69692 0.157082 -0.450638
v 0.662871 0.157082 -0.450638
v 0.662871 0.213371 -0.450638
v 0.679896 0.210497 -0.452879
v 0.679896 0.157082 -0.452879
v 0.69692 0.208227 -0.450638
v 0.679896 0.210497 -0.452879
v 0.67993 0.218004 -0.451014
v 0.69647 0.215791 -0.448837
v 0.679896 0.210497 -0.452879
v 0.662871 0.213371 -0.450638
v 0.663383 0.220804 -0.448836
v 0.67993 0.218004 -0.451014
v 0.662871 0.213371 -0.450638
v 0.647007 0.216656 -0.444067
v 0.647958 0.224003 -0.442447
v 0.663383 0.220804 -0.448836
v 0.647007 0.157082 -0.444067
v 0.647007 0.216656 -0.444067
v 0.662871 0.213371 -0.450638
v 0.662871 0.157082 -0.450638
v 0.647007 0.216656 -0.444067
v 0.633385 0.220131 -0.433614
v 0.634711 0.227383 -0.432281
v 0.647958 0.224003 -0.442447
v 0.633385 0.157082 -0.433614
v 0.633385 0.220131 -0.433614
v 0.647007 0.216656 -0.444067
v 0.647007 0.157082 -0.444067
v 0.622932 0.157082 -0.419991
v 0.622932 0.223559 -0.419991
v 0.633385 0.220131 -0.433614
v 0.633385 0.157082 -0.433614
v 0.616361 0.157082 -0.404127
v 0.616361 0.226705 -0.404127
v 0.622932 0.223559 -0.419991
v 0.622932 0.157082 -0.419991
v 0.633385 0.220131 -0.433614
v 0.622932 0.223559 -0.419991
v 0.624546 0.230714 -0.419035
v 0.634711 0.227383 -0.432281
v 0.622932 0.223559 -0.419991
v 0.616361 0.226705 -0.404127
v 0.618158 0.233766 -0.403612
v 0.624546 0.230714 -0.419035
v 0.616361 0.226705 -0.404127
v 0.614119 0.229352 -0.387103
v 0.61598 0.236331 -0.387068
v 0.618158 0.233766 -0.403612
v 0.614119 0.157082 -0.387103
v 0.614119 0.229352 -0.387103
v 0.616361 0.226705 -0.404127
v 0.616361 0.157082 -0.404127
v 0.614119 0.229352 -0.387103
v 0.616361 0.231317 -0.370079
v 0.618157 0.238233 -0.370531
v 0.61598 0.236331 -0.387068
v 0.616361 0.157082 -0.370079
v 0.616361 0.231317 -0.370079
v 0.614119 0.229352 -0.387103
v 0.614119 0.157082 -0.387103
v 0.622932 0.157082 -0.354215
v 0.622932 0.232463 -0.354215
v 0.616361 0.231317 -0.370079
v 0.616361 0.157082 -0.370079
v 0.633385 0.157082 -0.340592
v 0.633385 0.232709 -0.340592
v 0.622932 0.232463 -0.354215
v 0.622932 0.157082 -0.354215
v 0.616361 0.231317 -0.370079
v 0.622932 0.232463 -0.354215
v 0.624538 0.239341 -0.355126
v 0.618157 0.238233 -0.370531
v 0.622932 0.232463 -0.354215
v 0.633385 0.232709 -0.340592
v 0.634687 0.239579 -0.3419
v 0.624538 0.239341 -0.355126
v 0.633385 0.232709 -0.340592
v 0.647007 0.232039 -0.330139
v 0.647914 0.238932 -0.331751
v 0.634687 0.239579 -0.3419
v 0.647007 0.157082 -0.330139
v 0.647007 0.232039 -0.330139
v 0.633385 0.232709 -0.340592
v 0.633385 0.157082 -0.340592
v 0.647007 0.232039 -0.330139
v 0.662871 0.2305 -0.323568
v 0.663321 0.237443 -0.325369
v 0.647914 0.238932 -0.331751
v 0.662871 0.157082 -0.323568
v 0.662871 0.2305 -0.323568
v 0.647007 0.232039 -0.330139
v 0.647007 0.157082 -0.330139
v 0.679896 0.157082 -0.321326
v 0.679896 0.228199 -0.321326
v 0.662871 0.2305 -0.323568
v 0.662871 0.157082 -0.323568
v 0.69692 0.157082 -0.323568
v 0.69692 0.225295 -0.323568
v 0.679896 0.228199 -0.321326
v 0.679896 0.157082 -0.321326
v 0.662871 0.2305 -0.323568
v 0.679896 0.228199 -0.321326
v 0.679861 0.235214 -0.323191
v 0.663321 0.237443 -0.325369
v 0.679896 0.228199 -0.321326
v 0.69692 0.225295 -0.323568
v 0.696408 0.232399 -0.32537
v 0.679861 0.235214 -0.323191
v 0.69692 0.225295 -0.323568
v 0.712784 0.22199 -0.330139
v 0.711833 0.22919 -0.331759
v 0.696408 0.232399 -0.32537
v 0.712784 0.157082 -0.330139
v 0.712784 0.22199 -0.330139
v 0.69692 0.225295 -0.323568
v 0.69692 0.157082 -0.323568
v 0.712784 0.22199 -0.330139
v 0.726406 0.218511 -0.340592
v 0.72508 0.225808 -0.341924
v 0.711833 0.22919 -0.331759
v 0.726406 0.157082 -0.340592
v 0.726406 0.218511 -0.340592
v 0.712784 0.22199 -0.330139
v 0.712784 0.157082 -0.330139
v 0.73686 0.157082 -0.354215
v 0.73686 0.215095 -0.354215
v 0.726406 0.218511 -0.340592
v 0.726406 0.157082 -0.340592
v 0.743431 0.157082 -0.370079
v 0.743431 0.211974 -0.370079
v 0.73686 0.215095 -0.354215
v 0.73686 0.157082 -0.354215
v 0.726406 0.218511 -0.340592
v 0.73686 0.215095 -0.354215
v 0.735245 0.222483 -0.355171
v 0.72508 0.225808 -0.341924
v 0.73686 0.215095 -0.354215
v 0.743431 0.211974 -0.370079
v 0.741633 0.219443 -0.370593
v 0.735245 0.222483 -0.355171
v 0.743431 0.211974 -0.370079
v 0.745672 0.209358 -0.387103
v 0.743811 0.216894 -0.387137
v 0.741633 0.219443 -0.370593
v 0.745672 0.157082 -0.387103
v 0.745672 0.209358 -0.387103
v 0.743431 0.211974 -0.370079
v 0.743431 0.157082 -0.370079
v 0.745672 0.209358 -0.387103
v 0.743431 0.207423 -0.404127
v 0.741634 0.215007 -0.403674
v 0.743811 0.216894 -0.387137
v 0.743431 0.157082 -0.404127
v 0.743431 0.207423 -0.404127
v 0.745672 0.209358 -0.387103
v 0.745672 0.157082 -0.387103
v 0.73686 0.157082 -0.419991
v 0.73686 0.206296 -0.419991
v 0.743431 0.207423 -0.404127
v 0.743431 0.157082 -0.404127
v 0.726406 0.157082 -0.433614
v 0.726406 0.206054 -0.433614
v 0.73686 0.206296 -0.419991
v 0.73686 0.157082 -0.419991
v 0.743431 0.207423 -0.404127
v 0.73686 0.206296 -0.419991
v 0.735253 0.213908 -0.419079
v 0.741634 0.215007 -0.403674
v 0.73686 0.206296 -0.419991
v 0.726406 0.206054 -0.433614
v 0.725104 0.213672 -0.432305
v 0.735253 0.213908 -0.419079
v 0.726406 0.206054 -0.433614
v 0.712784 0.206712 -0.444067
v 0.711877 0.214314 -0.442455
v 0.725104 0.213672 -0.432305
v 0.712784 0.157082 -0.444067
v 0.712784 0.206712 -0.444067
v 0.726406 0.206054 -0.433614
v 0.726406 0.157082 -0.433614
v 0.712784 0.206712 -0.444067
v 0.69692 0.208227 -0.450638
v 0.69647 0.215791 -0.448837
v 0.711877 0.214314 -0.442455
v 0.69692 0.157082 -0.450638
v 0.69692 0.208227 -0.450638
v 0.712784 0.206712 -0.444067
v 0.712784 0.157082 -0.444067
v 0.711877 0.214314 -0.442455
v 0.69647 0.215791 -0.448837
v 0.695242 0.221949 -0.443915
v 0.709401 0.220588 -0.438051
v 0.725104 0.213672 -0.432305
v 0.711877 0.214314 -0.442455
v 0.709401 0.220588 -0.438051
v 0.721546 0.219997 -0.428731
v 0.709401 0.220588 -0.438051
v 0.695242 0.221949 -0.443915
v 0.693564 0.225052 -0.437193
v 0.706018 0.223854 -0.432035
v 0.721546 0.219997 -0.428731
v 0.709401 0.220588 -0.438051
v 0.706018 0.223854 -0.432035
v 0.716686 0.223334 -0.423849
v 0.735253 0.213908 -0.419079
v 0.725104 0.213672 -0.432305
v 0.721546 0.219997 -0.428731
v 0.730864 0.220215 -0.416588
v 0.730864 0.220215 -0.416588
v 0.721546 0.219997 -0.428731
v 0.716686 0.223334 -0.423849
v 0.724868 0.223525 -0.413186
v 0.741634 0.215007 -0.403674
v 0.735253 0.213908 -0.419079
v 0.730864 0.220215 -0.416588
v 0.736725 0.221227 -0.402438
v 0.736725 0.221227 -0.402438
v 0.730864 0.220215 -0.416588
v 0.724868 0.223525 -0.413186
v 0.73002 0.224416 -0.400749
v 0.743811 0.216894 -0.387137
v 0.741634 0.215007 -0.403674
v 0.736725 0.221227 -0.402438
v 0.738727 0.222967 -0.387231
v 0.738727 0.222967 -0.387231
v 0.736725 0.221227 -0.402438
v 0.73002 0.224416 -0.400749
v 0.731782 0.225949 -0.38736
v 0.741633 0.219443 -0.370593
v 0.743811 0.216894 -0.387137
v 0.738727 0.222967 -0.387231
v 0.736722 0.225319 -0.371999
v 0.736722 0.225319 -0.371999
v 0.738727 0.222967 -0.387231
v 0.731782 0.225949 -0.38736
v 0.730013 0.228027 -0.373919
v 0.735245 0.222483 -0.355171
v 0.741633 0.219443 -0.370593
v 0.736722 0.225319 -0.371999
v 0.730833 0.228125 -0.357783
v 0.730833 0.228125 -0.357783
v 0.736722 0.225319 -0.371999
v 0.730013 0.228027 -0.373919
v 0.724807 0.230509 -0.361351
v 0.72508 0.225808 -0.341924
v 0.735245 0.222483 -0.355171
v 0.730833 0.228125 -0.357783
v 0.721457 0.231194 -0.345563
v 0.721457 0.231194 -0.345563
v 0.730833 0.228125 -0.357783
v 0.724807 0.230509 -0.361351
v 0.716507 0.233226 -0.350535
v 0.711833 0.22919 -0.331759
v 0.72508 0.225808 -0.341924
v 0.721457 0.231194 -0.345563
v 0.709235 0.234314 -0.336185
v 0.709235 0.234314 -0.336185
v 0.721457 0.231194 -0.345563
v 0.716507 0.233226 -0.350535
v 0.705686 0.235988 -0.342232
v 0.696408 0.232399 -0.32537
v 0.711833 0.22919 -0.331759
v 0.709235 0.234314 -0.336185
v 0.695011 0.23727 -0.330294
v 0.695011 0.23727 -0.330294
v 0.709235 0.234314 -0.336185
v 0.705686 0.235988 -0.342232
v 0.693103 0.238602 -0.337019
v 0.679861 0.235214 -0.323191
v 0.696408 0.232399 -0.32537
v 0.695011 0.23727 -0.330294
v 0.679767 0.239858 -0.328287
v 0.679767 0.239858 -0.328287
v 0.695011 0.23727 -0.330294
v 0.693103 0.238602 -0.337019
v 0.679639 0.240887 -0.335247
v 0.663321 0.237443 -0.325369
v 0.679861 0.235214 -0.323191
v 0.679767 0.239858 -0.328287
v 0.664549 0.241904 -0.33029
v 0.664549 0.241904 -0.33029
v 0.679767 0.239858 -0.328287
v 0.679639 0.240887 -0.335247
v 0.666227 0.242688 -0.337013
v 0.647914 0.238932 -0.331751
v 0.663321 0.237443 -0.325369
v 0.664549 0.241904 -0.33029
v 0.65039 0.243268 -0.336155
v 0.65039 0.243268 -0.336155
v 0.664549 0.241904 -0.33029
v 0.666227 0.242688 -0.337013
v 0.653773 0.243886 -0.342171
v 0.634687 0.239579 -0.3419
v 0.647914 0.238932 -0.331751
v 0.65039 0.243268 -0.336155
v 0.638245 0.243861 -0.345474
v 0.638245 0.243861 -0.345474
v 0.65039 0.243268 -0.336155
v 0.653773 0.243886 -0.342171
v 0.643105 0.244406 -0.350357
v 0.624538 0.239341 -0.355126
v 0.634687 0.239579 -0.3419
v 0.638245 0.243861 -0.345474
v 0.628927 0.243643 -0.357617
v 0.628927 0.243643 -0.357617
v 0.638245 0.243861 -0.345474
v 0.643105 0.244406 -0.350357
v 0.634923 0.244215 -0.36102
v 0.618157 0.238233 -0.370531
v 0.624538 0.239341 -0.355126
v 0.628927 0.243643 -0.357617
v 0.623066 0.242628 -0.371768
v 0.623066 0.242628 -0.371768
v 0.628927 0.243643 -0.357617
v 0.634923 0.244215 -0.36102
v 0.629772 0.243324 -0.373457
v 0.61598 0.236331 -0.387068
v 0.618157 0.238233 -0.370531
v 0.623066 0.242628 -0.371768
v 0.621064 0.240884 -0.386974
v 0.621064 0.240884 -0.386974
v 0.623066 0.242628 -0.371768
v 0.629772 0.243324 -0.373457
v 0.628009 0.24179 -0.386846
v 0.618158 0.233766 -0.403612
v 0.61598 0.236331 -0.387068
v 0.621064 0.240884 -0.386974
v 0.623069 0.238527 -0.402206
v 0.623069 0.238527 -0.402206
v 0.621064 0.240884 -0.386974
v 0.628009 0.24179 -0.386846
v 0.629778 0.239713 -0.400286
v 0.624546 0.230714 -0.419035
v 0.618158 0.233766 -0.403612
v 0.623069 0.238527 -0.402206
v 0.628958 0.235718 -0.416422
v 0.628958 0.235718 -0.416422
v 0.623069 0.238527 -0.402206
v 0.629778 0.239713 -0.400286
v 0.634984 0.237231 -0.412854
v 0.634711 0.227383 -0.432281
v 0.624546 0.230714 -0.419035
v 0.628958 0.235718 -0.416422
v 0.638334 0.232648 -0.428642
v 0.638334 0.232648 -0.428642
v 0.628958 0.235718 -0.416422
v 0.634984 0.237231 -0.412854
v 0.643284 0.234514 -0.42367
v 0.647958 0.224003 -0.442447
v 0.634711 0.227383 -0.432281
v 0.638334 0.232648 -0.428642
v 0.650556 0.229529 -0.43802
v 0.650556 0.229529 -0.43802
v 0.638334 0.232648 -0.428642
v 0.643284 0.234514 -0.42367
v 0.654105 0.231752 -0.431974
v 0.663383 0.220804 -0.448836
v 0.647958 0.224003 -0.442447
v 0.650556 0.229529 -0.43802
v 0.66478 0.226575 -0.443912
v 0.66478 0.226575 -0.443912
v 0.650556 0.229529 -0.43802
v 0.654105 0.231752 -0.431974
v 0.666689 0.229138 -0.437186
v 0.67993 0.218004 -0.451014
v 0.663383 0.220804 -0.448836
v 0.66478 0.226575 -0.443912
v 0.680024 0.22399 -0.445919
v 0.680024 0.22399 -0.445919
v 0.66478 0.226575 -0.443912
v 0.666689 0.229138 -0.437186
v 0.680152 0.226853 -0.438959
v 0.69647 0.215791 -0.448837
v 0.67993 0.218004 -0.451014
v 0.680024 0.22399 -0.445919
v 0.695242 0.221949 -0.443915
v 0.695242 0.221949 -0.443915
v 0.680024 0.22399 -0.445919
v 0.680152 0.226853 -0.438959
v 0.693564 0.225052 -0.437193
v 0.679896 0.23387 -0.387103
v 0.693564 0.225052 -0.437193
v 0.680152 0.226853 -0.438959
v 0.679896 0.23387 -0.387103
v 0.680152 0.226853 -0.438959
v 0.666689 0.229138 -0.437186
v 0.679896 0.23387 -0.387103
v 0.706018 0.223854 -0.432035
v 0.693564 0.225052 -0.437193
v 0.679896 0.23387 -0.387103
v 0.716686 0.223334 -0.423849
v 0.706018 0.223854 -0.432035
v 0.679896 0.23387 -0.387103
v 0.724868 0.223525 -0.413186
v 0.716686 0.223334 -0.423849
v 0.679896 0.23387 -0.387103
v 0.73002 0.224416 -0.400749
v 0.724868 0.223525 -0.413186
v 0.679896 0.23387 -0.387103
v 0.731782 0.225949 -0.38736
v 0.73002 0.224416 -0.400749
v 0.679896 0.23387 -0.387103
v 0.730013 0.228027 -0.373919
v 0.731782 0.225949 -0.38736
v 0.679896 0.23387 -0.387103
v 0.724807 0.230509 -0.361351
v 0.730013 0.228027 -0.373919
v 0.679896 0.23387 -0.387103
v 0.716507 0.233226 -0.350535
v 0.724807 0.230509 -0.361351
v 0.679896 0.23387 -0.387103
v 0.705686 0.235988 -0.342232
v 0.716507 0.233226 -0.350535
v 0.679896 0.23387 -0.387103
v 0.693103 0.238602 -0.337019
v 0.705686 0.235988 -0.342232
v 0.679896 0.23387 -0.387103
v 0.679639 0.240887 -0.335247
v 0.693103 0.238602 -0.337019
v 0.679896 0.23387 -0.387103
v 0.666227 0.242688 -0.337013
v 0.679639 0.240887 -0.335247
v 0.679896 0.23387 -0.387103
v 0.653773 0.243886 -0.342171
v 0.666227 0.242688 -0.337013
v 0.679896 0.23387 -0.387103
v 0.643105 0.244406 -0.350357
v 0.653773 0.243886 -0.342171
v 0.679896 0.23387 -0.387103
v 0.634923 0.244215 -0.36102
v 0.643105 0.244406 -0.350357
v 0.679896 0.23387 -0.387103
v 0.629772 0.243324 -0.373457
v 0.634923 0.244215 -0.36102
v 0.679896 0.23387 -0.387103
v 0.628009 0.24179 -0.386846
v 0.629772 0.243324 -0.373457
v 0.679896 0.23387 -0.387103
v 0.629778 0.239713 -0.400286
v 0.628009 0.24179 -0.386846
v 0.679896 0.23387 -0.387103
v 0.634984 0.237231 -0.412854
v 0.629778 0.239713 -0.400286
v 0.679896 0.23387 -0.387103
v 0.643284 0.234514 -0.42367
v 0.634984 0.237231 -0.412854
v 0.679896 0.23387 -0.387103
v 0.654105 0.231752 -0.431974
v 0.643284 0.234514 -0.42367
v 0.679896 0.23387 -0.387103
v 0.666689 0.229138 -0.437186
v 0.654105 0.231752 -0.431974
vn -0 -0 -1
vn 0.017 0.1188 -0.9928
vn 0.2689 0.1171 -0.956
vn 0.2588 -0 -0.9659
vn -0.2588 -0 -0.9659
vn -0.2368 0.1208 -0.964
vn 0.017 0.1188 -0.9928
vn -0 -0 -1
vn 0.2689 0.1171 -0.956
vn 0.017 0.1188 -0.9928
vn 0.0641 0.4453 -0.8931
vn 0.2772 0.4374 -0.8554
vn 0.017 0.1188 -0.9928
vn -0.2368 0.1208 -0.964
vn -0.1538 0.4552 -0.877
vn 0.0641 0.4453 -0.8931
vn -0.2368 0.1208 -0.964
vn -0.4758 0.123 -0.8709
vn -0.3636 0.4668 -0.8062
vn -0.1538 0.4552 -0.877
vn -0.5 -0 -0.866
vn -0.4758 0.123 -0.8709
vn -0.2368 0.1208 -0.964
vn -0.2588 -0 -0.9659
vn -0.4758 0.123 -0.8709
vn -0.684 0.1252 -0.7186
vn -0.5518 0.4793 -0.6825
vn -0.3636 0.4668 -0.8062
vn -0.7071 -0 -0.7071
vn -0.684 0.1252 -0.7186
vn -0.4758 0.123 -0.8709
vn -0.5 -0 -0.866
vn -0.866 -0 -0.5
vn -0.8468 0.1271 -0.5164
vn -0.684 0.1252 -0.7186
vn -0.7071 -0 -0.7071
vn -0.9659 -0 -0.2588
vn -0.9521 0.1288 -0.2773
vn -0.8468 0.1271 -0.5164
vn -0.866 -0 -0.5
vn -0.684 0.1252 -0.7186
vn -0.8468 0.1271 -0.5164
vn -0.7048 0.4919 -0.5111
vn -0.5518 0.4793 -0.6825
vn -0.8468 0.1271 -0.5164
vn -0.9521 0.1288 -0.2773
vn -0.8096 0.5039 -0.3012
vn -0.7048 0.4919 -0.5111
vn -0.9521 0.1288 -0.2773
vn -0.9913 0.1301 -0.0173
vn -0.8551 0.5142 -0.0661
vn -0.8096 0.5039 -0.3012
vn -1 -0 -0
vn -0.9913 0.1301 -0.0173
vn -0.9521 0.1288 -0.2773
vn -0.9659 -0 -0.2588
vn -0.9913 0.1301 -0.0173
vn -0.9606 0.131 0.2452
vn -0.8344 0.522 0.1767
vn -0.8551 0.5142 -0.0661
vn -0.9659 -0 0.2588
vn -0.9606 0.131 0.2452
vn -0.9913 0.1301 -0.0173
vn -1 -0 -0
vn -0.866 -0 0.5
vn -0.8612 0.1315 0.491
vn -0.9606 0.131 0.2452
vn -0.9659 -0 0.2588
vn -0.7071 -0 0.7071
vn -0.6998 0.1316 0.7021
vn -0.8612 0.1315 0.491
vn -0.866 -0 0.5
vn -0.9606 0.131 0.2452
vn -0.8612 0.1315 0.491
vn -0.7462 0.5267 0.4072
vn -0.8344 0.522 0.1767
vn -0.8612 0.1315 0.491
vn -0.6998 0.1316 0.7021
vn -0.5962 0.5277 0.605
vn -0.7462 0.5267 0.4072
vn -0.6998 0.1316 0.7021
vn -0.4884 0.1313 0.8627
vn -0.3973 0.525 0.7527
vn -0.5962 0.5277 0.605
vn -0.5 -0 0.866
vn -0.4884 0.1313 0.8627
vn -0.6998 0.1316 0.7021
vn -0.7071 -0 0.7071
vn -0.4884 0.1313 0.8627
vn -0.2426 0.1306 0.9613
vn -0.1672 0.5188 0.8384
vn -0.3973 0.525 0.7527
vn -0.2588 -0 0.9659
vn -0.2426 0.1306 0.9613
vn -0.4884 0.1313 0.8627
vn -0.5 -0 0.866
vn -0 -0 1
vn 0.0194 0.1296 0.9914
vn -0.2426 0.1306 0.9613
vn -0.2588 -0 0.9659
vn 0.2588 -0 0.9659
vn 0.2786 0.1281 0.9518
vn 0.0194 0.1296 0.9914
vn -0 -0 1
vn -0.2426 0.1306 0.9613
vn 0.0194 0.1296 0.9914
vn 0.0739 0.5097 0.8572
vn -0.1672 0.5188 0.8384
vn 0.0194 0.1296 0.9914
vn 0.2786 0.1281 0.9518
vn 0.3066 0.4985 0.8109
vn 0.0739 0.5097 0.8572
vn 0.2786 0.1281 0.9518
vn 0.5169 0.1262 0.8467
vn 0.5142 0.4861 0.7066
vn 0.3066 0.4985 0.8109
vn 0.5 -0 0.866
vn 0.5169 0.1262 0.8467
vn 0.2786 0.1281 0.9518
vn 0.2588 -0 0.9659
vn 0.5169 0.1262 0.8467
vn 0.7185 0.1241 0.6843
vn 0.684 0.4734 0.555
vn 0.5142 0.4861 0.7066
vn 0.7071 -0 0.7071
vn 0.7185 0.1241 0.6843
vn 0.5169 0.1262 0.8467
vn 0.5 -0 0.866
vn 0.866 -0 0.5
vn 0.8705 0.122 0.4768
vn 0.7185 0.1241 0.6843
vn 0.7071 -0 0.7071
vn 0.9659 -0 0.2588
vn 0.9637 0.1198 0.2384
vn 0.8705 0.122 0.4768
vn 0.866 -0 0.5
vn 0.7185 0.1241 0.6843
vn 0.8705 0.122 0.4768
vn 0.8071 0.4613 0.3686
vn 0.684 0.4734 0.555
vn 0.8705 0.122 0.4768
vn 0.9637 0.1198 0.2384
vn 0.8783 0.4504 0.1605
vn 0.8071 0.4613 0.3686
vn 0.9637 0.1198 0.2384
vn 0.9929 0.118 -0.0149
vn 0.8956 0.4413 -0.0562
vn 0.8783 0.4504 0.1605
vn 1 -0 -0
vn 0.9929 0.118 -0.0149
vn 0.9637 0.1198 0.2384
vn 0.9659 -0 0.2588
vn 0.9929 0.118 -0.0149
vn 0.9567 0.1166 -0.2666
vn 0.8595 0.4347 -0.2689
vn 0.8956 0.4413 -0.0562
vn 0.9659 -0 -0.2588
vn 0.9567 0.1166 -0.2666
vn 0.9929 0.118 -0.0149
vn 1 -0 -0
vn 0.866 -0 -0.5
vn 0.858 0.1157 -0.5004
vn 0.9567 0.1166 -0.2666
vn 0.9659 -0 -0.2588
vn 0.7071 -0 -0.7071
vn 0.7033 0.1155 -0.7014
vn 0.858 0.1157 -0.5004
vn 0.866 -0 -0.5
vn 0.9567 0.1166 -0.2666
vn 0.858 0.1157 -0.5004
vn 0.7731 0.4308 -0.4655
vn 0.8595 0.4347 -0.2689
vn 0.858 0.1157 -0.5004
vn 0.7033 0.1155 -0.7014
vn 0.6419 0.43 -0.6348
vn 0.7731 0.4308 -0.4655
vn 0.7033 0.1155 -0.7014
vn 0.5026 0.116 -0.8567
vn 0.4735 0.4322 -0.7674
vn 0.6419 0.43 -0.6348
vn 0.5 -0 -0.866
vn 0.5026 0.116 -0.8567
vn 0.7033 0.1155 -0.7014
vn 0.7071 -0 -0.7071
vn 0.5026 0.116 -0.8567
vn 0.2689 0.1171 -0.956
vn 0.2772 0.4374 -0.8554
vn 0.4735 0.4322 -0.7674
vn 0.2588 -0 -0.9659
vn 0.2689 0.1171 -0.956
vn 0.5026 0.116 -0.8567
vn 0.5 -0 -0.866
vn 0.4735 0.4322 -0.7674
vn 0.2772 0.4374 -0.8554
vn 0.2424 0.7811 -0.5754
vn 0.3578 0.7738 -0.5227
vn 0.6419 0.43 -0.6348
vn 0.4735 0.4322 -0.7674
vn 0.3578 0.7738 -0.5227
vn 0.4572 0.7706 -0.4441
vn 0.3578 0.7738 -0.5227
vn 0.2424 0.7811 -0.5754
vn 0.1797 0.9482 -0.2619
vn 0.2128 0.9453 -0.2473
vn 0.4572 0.7706 -0.4441
vn 0.3578 0.7738 -0.5227
vn 0.2128 0.9453 -0.2473
vn 0.2414 0.944 -0.225
vn 0.7731 0.4308 -0.4655
vn 0.6419 0.43 -0.6348
vn 0.4572 0.7706 -0.4441
vn 0.5348 0.7718 -0.344
vn 0.5348 0.7718 -0.344
vn 0.4572 0.7706 -0.4441
vn 0.2414 0.944 -0.225
vn 0.2636 0.9445 -0.1962
vn 0.8595 0.4347 -0.2689
vn 0.7731 0.4308 -0.4655
vn 0.5348 0.7718 -0.344
vn 0.5864 0.7772 -0.2282
vn 0.5864 0.7772 -0.2282
vn 0.5348 0.7718 -0.344
vn 0.2636 0.9445 -0.1962
vn 0.2779 0.9467 -0.163
vn 0.8956 0.4413 -0.0562
vn 0.8595 0.4347 -0.2689
vn 0.5864 0.7772 -0.2282
vn 0.6088 0.7866 -0.1031
vn 0.6088 0.7866 -0.1031
vn 0.5864 0.7772 -0.2282
vn 0.2779 0.9467 -0.163
vn 0.2836 0.9504 -0.1274
vn 0.8783 0.4504 0.1605
vn 0.8956 0.4413 -0.0562
vn 0.6088 0.7866 -0.1031
vn 0.6002 0.7995 0.0243
vn 0.6002 0.7995 0.0243
vn 0.6088 0.7866 -0.1031
vn 0.2836 0.9504 -0.1274
vn 0.2802 0.9555 -0.0918
vn 0.8071 0.4613 0.3686
vn 0.8783 0.4504 0.1605
vn 0.6002 0.7995 0.0243
vn 0.5602 0.8152 0.147
vn 0.5602 0.8152 0.147
vn 0.6002 0.7995 0.0243
vn 0.2802 0.9555 -0.0918
vn 0.268 0.9617 -0.0583
vn 0.684 0.4734 0.555
vn 0.8071 0.4613 0.3686
vn 0.5602 0.8152 0.147
vn 0.4898 0.8329 0.2575
vn 0.4898 0.8329 0.2575
vn 0.5602 0.8152 0.147
vn 0.268 0.9617 -0.0583
vn 0.2476 0.9684 -0.0289
vn 0.5142 0.4861 0.7066
vn 0.684 0.4734 0.555
vn 0.4898 0.8329 0.2575
vn 0.3913 0.8517 0.3485
vn 0.3913 0.8517 0.3485
vn 0.4898 0.8329 0.2575
vn 0.2476 0.9684 -0.0289
vn 0.22 0.9755 -0.0056
vn 0.3066 0.4985 0.8109
vn 0.5142 0.4861 0.7066
vn 0.3913 0.8517 0.3485
vn 0.2693 0.8704 0.4121
vn 0.2693 0.8704 0.4121
vn 0.3913 0.8517 0.3485
vn 0.22 0.9755 -0.0056
vn 0.1867 0.9824 0.01
vn 0.0739 0.5097 0.8572
vn 0.3066 0.4985 0.8109
vn 0.2693 0.8704 0.4121
vn 0.1308 0.8876 0.4417
vn 0.1308 0.8876 0.4417
vn 0.2693 0.8704 0.4121
vn 0.1867 0.9824 0.01
vn 0.1497 0.9886 0.0163
vn -0.1672 0.5188 0.8384
vn 0.0739 0.5097 0.8572
vn 0.1308 0.8876 0.4417
vn -0.0144 0.9018 0.4319
vn -0.0144 0.9018 0.4319
vn 0.1308 0.8876 0.4417
vn 0.1497 0.9886 0.0163
vn 0.1114 0.9937 0.0124
vn -0.3973 0.525 0.7527
vn -0.1672 0.5188 0.8384
vn -0.0144 0.9018 0.4319
vn -0.1544 0.9116 0.3809
vn -0.1544 0.9116 0.3809
vn -0.0144 0.9018 0.4319
vn 0.1114 0.9937 0.0124
vn 0.0749 0.9972 -0.0019
vn -0.5962 0.5277 0.605
vn -0.3973 0.525 0.7527
vn -0.1544 0.9116 0.3809
vn -0.2759 0.916 0.2913
vn -0.2759 0.916 0.2913
vn -0.1544 0.9116 0.3809
vn 0.0749 0.9972 -0.0019
vn 0.0432 0.9987 -0.0258
vn -0.7462 0.5267 0.4072
vn -0.5962 0.5277 0.605
vn -0.2759 0.916 0.2913
vn -0.3672 0.9144 0.1706
vn -0.3672 0.9144 0.1706
vn -0.2759 0.916 0.2913
vn 0.0432 0.9987 -0.0258
vn 0.019 0.9982 -0.0575
vn -0.8344 0.522 0.1767
vn -0.7462 0.5267 0.4072
vn -0.3672 0.9144 0.1706
vn -0.4201 0.907 0.0301
vn -0.4201 0.907 0.0301
vn -0.3672 0.9144 0.1706
vn 0.019 0.9982 -0.0575
vn 0.0044 0.9955 -0.0943
vn -0.8551 0.5142 -0.0661
vn -0.8344 0.522 0.1767
vn -0.4201 0.907 0.0301
vn -0.4313 0.8946 -0.1167
vn -0.4313 0.8946 -0.1167
vn -0.4201 0.907 0.0301
vn 0.0044 0.9955 -0.0943
vn 0.0003 0.9911 -0.1329
vn -0.8096 0.5039 -0.3012
vn -0.8551 0.5142 -0.0661
vn -0.4313 0.8946 -0.1167
vn -0.4023 0.8786 -0.2572
vn -0.4023 0.8786 -0.2572
vn -0.4313 0.8946 -0.1167
vn 0.0003 0.9911 -0.1329
vn 0.0065 0.9854 -0.1703
vn -0.7048 0.4919 -0.5111
vn -0.8096 0.5039 -0.3012
vn -0.4023 0.8786 -0.2572
vn -0.3382 0.8605 -0.3811
vn -0.3382 0.8605 -0.3811
vn -0.4023 0.8786 -0.2572
vn 0.0065 0.9854 -0.1703
vn 0.0221 0.9787 -0.204
vn -0.5518 0.4793 -0.6825
vn -0.7048 0.4919 -0.5111
vn -0.3382 0.8605 -0.3811
vn -0.2462 0.8416 -0.4808
vn -0.2462 0.8416 -0.4808
vn -0.3382 0.8605 -0.3811
vn 0.0221 0.9787 -0.204
vn 0.0456 0.9717 -0.2318
vn -0.3636 0.4668 -0.8062
vn -0.5518 0.4793 -0.6825
vn -0.2462 0.8416 -0.4808
vn -0.1344 0.8232 -0.5516
vn -0.1344 0.8232 -0.5516
vn -0.2462 0.8416 -0.4808
vn 0.0456 0.9717 -0.2318
vn 0.0751 0.9647 -0.2523
vn -0.1538 0.4552 -0.877
vn -0.3636 0.4668 -0.8062
vn -0.1344 0.8232 -0.5516
vn -0.0107 0.8065 -0.5912
vn -0.0107 0.8065 -0.5912
vn -0.1344 0.8232 -0.5516
vn 0.0751 0.9647 -0.2523
vn 0.1087 0.9583 -0.2644
vn 0.0641 0.4453 -0.8931
vn -0.1538 0.4552 -0.877
vn -0.0107 0.8065 -0.5912
vn 0.1173 0.7922 -0.5989
vn 0.1173 0.7922 -0.5989
vn -0.0107 0.8065 -0.5912
vn 0.1087 0.9583 -0.2644
vn 0.1443 0.9526 -0.2677
vn 0.2772 0.4374 -0.8554
vn 0.0641 0.4453 -0.8931
vn 0.1173 0.7922 -0.5989
vn 0.2424 0.7811 -0.5754
vn 0.2424 0.7811 -0.5754
vn 0.1173 0.7922 -0.5989
vn 0.1443 0.9526 -0.2677
vn 0.1797 0.9482 -0.2619
vn 0.1489 0.98 -0.1319
vn 0.1797 0.9482 -0.2619
vn 0.1443 0.9526 -0.2677
vn 0.1489 0.98 -0.1319
vn 0.1443 0.9526 -0.2677
vn 0.1087 0.9583 -0.2644
vn 0.1489 0.98 -0.1319
vn 0.2128 0.9453 -0.2473
vn 0.1797 0.9482 -0.2619
vn 0.1489 0.98 -0.1319
vn 0.2414 0.944 -0.225
vn 0.2128 0.9453 -0.2473
vn 0.1489 0.98 -0.1319
vn 0.2636 0.9445 -0.1962
vn 0.2414 0.944 -0.225
vn 0.1489 0.98 -0.1319
vn 0.2779 0.9467 -0.163
vn 0.2636 0.9445 -0.1962
vn 0.1489 0.98 -0.1319
vn 0.2836 0.9504 -0.1274
vn 0.2779 0.9467 -0.163
vn 0.1489 0.98 -0.1319
vn 0.2802 0.9555 -0.0918
vn 0.2836 0.9504 -0.1274
vn 0.1489 0.98 -0.1319
vn 0.268 0.9617 -0.0583
vn 0.2802 0.9555 -0.0918
vn 0.1489 0.98 -0.1319
vn 0.2476 0.9684 -0.0289
vn 0.268 0.9617 -0.0583
vn 0.1489 0.98 -0.1319
vn 0.22 0.9755 -0.0056
vn 0.2476 0.9684 -0.0289
vn 0.1489 0.98 -0.1319
vn 0.1867 0.9824 0.01
vn 0.22 0.9755 -0.0056
vn 0.1489 0.98 -0.1319
vn 0.1497 0.9886 0.0163
vn 0.1867 0.9824 0.01
vn 0.1489 0.98 -0.1319
vn 0.1114 0.9937 0.0124
vn 0.1497 0.9886 0.0163
vn 0.1489 0.98 -0.1319
vn 0.0749 0.9972 -0.0019
vn 0.1114 0.9937 0.0124
vn 0.1489 0.98 -0.1319
vn 0.0432 0.9987 -0.0258
vn 0.0749 0.9972 -0.0019
vn 0.1489 0.98 -0.1319
vn 0.019 0.9982 -0.0575
vn 0.0432 0.9987 -0.0258
vn 0.1489 0.98 -0.1319
vn 0.0044 0.9955 -0.0943
vn 0.019 0.9982 -0.0575
vn 0.1489 0.98 -0.1319
vn 0.0003 0.9911 -0.1329
vn 0.0044 0.9955 -0.0943
vn 0.1489 0.98 -0.1319
vn 0.0065 0.9854 -0.1703
vn 0.0003 0.9911 -0.1329
vn 0.1489 0.98 -0.1319
vn 0.0221 0.9787 -0.204
vn 0.0065 0.9854 -0.1703
vn 0.1489 0.98 -0.1319
vn 0.0456 0.9717 -0.2318
vn 0.0221 0.9787 -0.204
vn 0.1489 0.98 -0.1319
vn 0.0751 0.9647 -0.2523
vn 0.0456 0.9717 -0.2318
vn 0.1489 0.98 -0.1319
vn 0.1087 0.9583 -0.2644
vn 0.0751 0.9647 -0.2523
vt 0.037125 0.154456
vt 0.037125 0.117986
vt 0.025401 0.119536
vt 0.025401 0.154456
vt 0.048849 0.154456
vt 0.048849 0.116023
vt 0.037125 0.117986
vt 0.037125 0.154456
vt 0.85693 0.403367
vt 0.86329 0.39203
vt 0.858421 0.389268
vt 0.85277 0.399585
vt 0.86329 0.39203
vt 0.8666 0.379334
vt 0.861254 0.377756
vt 0.858421 0.389268
vt 0.8666 0.379334
vt 0.8666 0.366053
vt 0.861045 0.365797
vt 0.861254 0.377756
vt 0.060573 0.154456
vt 0.060573 0.11378
vt 0.048849 0.116023
vt 0.048849 0.154456
vt 0.8666 0.366053
vt 0.863151 0.352996
vt 0.857717 0.354212
vt 0.861045 0.365797
vt 0.072297 0.154456
vt 0.072297 0.111407
vt 0.060573 0.11378
vt 0.060573 0.154456
vt 0.084021 0.154456
vt 0.084021 0.109067
vt 0.072297 0.111407
vt 0.072297 0.154456
vt 0.095745 0.154456
vt 0.095745 0.106919
vt 0.084021 0.109067
vt 0.084021 0.154456
vt 0.863151 0.352996
vt 0.856144 0.341432
vt 0.851382 0.344003
vt 0.857717 0.354212
vt 0.856144 0.341432
vt 0.846544 0.33218
vt 0.842757 0.335879
vt 0.851382 0.344003
vt 0.846544 0.33218
vt 0.83501 0.325736
vt 0.832485 0.330286
vt 0.842757 0.335879
vt 0.107469 0.154456
vt 0.107469 0.105112
vt 0.095745 0.106919
vt 0.095745 0.154456
vt 0.83501 0.325736
vt 0.822287 0.32249
vt 0.821245 0.327524
vt 0.832485 0.330286
vt 0.119193 0.154456
vt 0.119193 0.10377
vt 0.107469 0.105112
vt 0.107469 0.154456
vt 0.130917 0.154456
vt 0.130917 0.102988
vt 0.119193 0.10377
vt 0.119193 0.154456
vt 0.142641 0.154456
vt 0.142641 0.102819
vt 0.130917 0.102988
vt 0.130917 0.154456
vt 0.822287 0.32249
vt 0.80921 0.322659
vt 0.809758 0.327733
vt 0.821245 0.327524
vt 0.80921 0.322659
vt 0.796653 0.326237
vt 0.798745 0.330882
vt 0.809758 0.327733
vt 0.796653 0.326237
vt 0.785485 0.333004
vt 0.788923 0.336791
vt 0.798745 0.330882
vt 0.154365 0.154456
vt 0.154365 0.103277
vt 0.142641 0.102819
vt 0.142641 0.154456
vt 0.785485 0.333004
vt 0.776446 0.342472
vt 0.78091 0.345062
vt 0.788923 0.336791
vt 0.166089 0.154456
vt 0.166089 0.104328
vt 0.154365 0.103277
vt 0.154365 0.154456
vt 0.177813 0.154456
vt 0.177813 0.105899
vt 0.166089 0.104328
vt 0.166089 0.154456
vt 0.189537 0.154456
vt 0.189537 0.107882
vt 0.177813 0.105899
vt 0.177813 0.154456
vt 0.776446 0.342472
vt 0.770134 0.354003
vt 0.775229 0.35519
vt 0.78091 0.345062
vt 0.770134 0.354003
vt 0.766957 0.366843
vt 0.772274 0.36655
vt 0.775229 0.35519
vt 0.766957 0.366843
vt 0.767138 0.380184
vt 0.772296 0.378434
vt 0.772274 0.36655
vt 0.201261 0.154456
vt 0.201261 0.110138
vt 0.189537 0.107882
vt 0.189537 0.154456
vt 0.767138 0.380184
vt 0.770772 0.393204
vt 0.77541 0.39006
vt 0.772296 0.378434
vt 0.212985 0.154456
vt 0.212985 0.112514
vt 0.201261 0.110138
vt 0.201261 0.154456
vt 0.224709 0.154456
vt 0.224709 0.114846
vt 0.212985 0.112514
vt 0.212985 0.154456
vt 0.236433 0.154456
vt 0.236433 0.116977
vt 0.224709 0.114846
vt 0.224709 0.154456
vt 0.770772 0.393204
vt 0.777918 0.404639
vt 0.781582 0.400415
vt 0.77541 0.39006
vt 0.777918 0.404639
vt 0.787579 0.413709
vt 0.790155 0.408736
vt 0.781582 0.400415
vt 0.787579 0.413709
vt 0.799078 0.419959
vt 0.800479 0.414519
vt 0.790155 0.408736
vt 0.248157 0.154456
vt 0.248157 0.118763
vt 0.236433 0.116977
vt 0.236433 0.154456
vt 0.799078 0.419959
vt 0.811672 0.42305
vt 0.811855 0.417417
vt 0.800479 0.414519
vt 0.259881 0.154456
vt 0.259881 0.120085
vt 0.248157 0.118763
vt 0.248157 0.154456
vt 0.271605 0.154456
vt 0.271605 0.120854
vt 0.259881 0.120085
vt 0.259881 0.154456
vt 0.283329 0.154456
vt 0.283329 0.121019
vt 0.271605 0.120854
vt 0.271605 0.154456
vt 0.811672 0.42305
vt 0.824558 0.422808
vt 0.823526 0.417255
vt 0.811855 0.417417
vt 0.824558 0.422808
vt 0.836913 0.419254
vt 0.834716 0.414049
vt 0.823526 0.417255
vt 0.836913 0.419254
vt 0.847944 0.412638
vt 0.844688 0.408032
vt 0.834716 0.414049
vt 0.013677 0.154456
vt 0.013677 0.12057
vt 0.001953 0.121019
vt 0.001953 0.154456
vt 0.847944 0.412638
vt 0.85693 0.403367
vt 0.85277 0.399585
vt 0.844688 0.408032
vt 0.025401 0.154456
vt 0.025401 0.119536
vt 0.013677 0.12057
vt 0.013677 0.154456
vt 0.844688 0.408032
vt 0.85277 0.399585
vt 0.848588 0.396035
vt 0.841406 0.403576
vt 0.834716 0.414049
vt 0.844688 0.408032
vt 0.841406 0.403576
vt 0.832538 0.408939
vt 0.841406 0.403576
vt 0.848588 0.396035
vt 0.844532 0.3929
vt 0.838246 0.399506
vt 0.832538 0.408939
vt 0.841406 0.403576
vt 0.838246 0.399506
vt 0.83049 0.404201
vt 0.823526 0.417255
vt 0.834716 0.414049
vt 0.832538 0.408939
vt 0.82258 0.411786
vt 0.82258 0.411786
vt 0.832538 0.408939
vt 0.83049 0.404201
vt 0.821781 0.406686
vt 0.811855 0.417417
vt 0.823526 0.417255
vt 0.82258 0.411786
vt 0.812188 0.41191
vt 0.812188 0.41191
vt 0.82258 0.411786
vt 0.821781 0.406686
vt 0.812686 0.40679
vt 0.800479 0.414519
vt 0.811855 0.417417
vt 0.812188 0.41191
vt 0.80206 0.409294
vt 0.80206 0.409294
vt 0.812188 0.41191
vt 0.812686 0.40679
vt 0.803811 0.404488
vt 0.790155 0.408736
vt 0.800479 0.414519
vt 0.80206 0.409294
vt 0.792881 0.404093
vt 0.792881 0.404093
vt 0.80206 0.409294
vt 0.803811 0.404488
vt 0.795761 0.399911
vt 0.781582 0.400415
vt 0.790155 0.408736
vt 0.792881 0.404093
vt 0.785294 0.396632
vt 0.785294 0.396632
vt 0.792881 0.404093
vt 0.795761 0.399911
vt 0.789112 0.393347
vt 0.77541 0.39006
vt 0.781582 0.400415
vt 0.785294 0.396632
vt 0.77988 0.3874
vt 0.77988 0.3874
vt 0.785294 0.396632
vt 0.789112 0.393347
vt 0.784369 0.385243
vt 0.772296 0.378434
vt 0.77541 0.39006
vt 0.77988 0.3874
vt 0.777118 0.377087
vt 0.777118 0.377087
vt 0.77988 0.3874
vt 0.784369 0.385243
vt 0.781905 0.376198
vt 0.772274 0.36655
vt 0.772296 0.378434
vt 0.777118 0.377087
vt 0.7771 0.366528
vt 0.7771 0.366528
vt 0.777118 0.377087
vt 0.781905 0.376198
vt 0.781847 0.366905
vt 0.775229 0.35519
vt 0.772274 0.36655
vt 0.7771 0.366528
vt 0.779732 0.356442
vt 0.779732 0.356442
vt 0.7771 0.366528
vt 0.781847 0.366905
vt 0.784131 0.358018
vt 0.78091 0.345062
vt 0.775229 0.35519
vt 0.779732 0.356442
vt 0.784776 0.34747
vt 0.784776 0.34747
vt 0.779732 0.356442
vt 0.784131 0.358018
vt 0.788547 0.350116
vt 0.788923 0.336791
vt 0.78091 0.345062
vt 0.784776 0.34747
vt 0.791872 0.340158
vt 0.791872 0.340158
vt 0.784776 0.34747
vt 0.788547 0.350116
vt 0.794769 0.343686
vt 0.798745 0.330882
vt 0.788923 0.336791
vt 0.791872 0.340158
vt 0.800556 0.334942
vt 0.800556 0.334942
vt 0.791872 0.340158
vt 0.794769 0.343686
vt 0.802383 0.33911
vt 0.809758 0.327733
vt 0.798745 0.330882
vt 0.800556 0.334942
vt 0.810286 0.332157
vt 0.810286 0.332157
vt 0.800556 0.334942
vt 0.802383 0.33911
vt 0.810913 0.336668
vt 0.821245 0.327524
vt 0.809758 0.327733
vt 0.810286 0.332157
vt 0.820441 0.331967
vt 0.820441 0.331967
vt 0.810286 0.332157
vt 0.810913 0.336668
vt 0.819825 0.336513
vt 0.832485 0.330286
vt 0.821245 0.327524
vt 0.820441 0.331967
vt 0.830395 0.334406
vt 0.830395 0.334406
vt 0.820441 0.331967
vt 0.819825 0.336513
vt 0.828567 0.338677
vt 0.842757 0.335879
vt 0.832485 0.330286
vt 0.830395 0.334406
vt 0.83951 0.339362
vt 0.83951 0.339362
vt 0.830395 0.334406
vt 0.828567 0.338677
vt 0.83657 0.343066
vt 0.851382 0.344003
vt 0.842757 0.335879
vt 0.83951 0.339362
vt 0.847167 0.346574
vt 0.847167 0.346574
vt 0.83951 0.339362
vt 0.83657 0.343066
vt 0.843276 0.34944
vt 0.857717 0.354212
vt 0.851382 0.344003
vt 0.847167 0.346574
vt 0.852782 0.355625
vt 0.852782 0.355625
vt 0.847167 0.346574
vt 0.843276 0.34944
vt 0.848171 0.357409
vt 0.861045 0.365797
vt 0.857717 0.354212
vt 0.852782 0.355625
vt 0.855808 0.365886
vt 0.855808 0.365886
vt 0.852782 0.355625
vt 0.848171 0.357409
vt 0.850834 0.366413
vt 0.861254 0.377756
vt 0.861045 0.365797
vt 0.855808 0.365886
vt 0.856066 0.376538
vt 0.856066 0.376538
vt 0.855808 0.365886
vt 0.850834 0.366413
vt 0.851077 0.375772
vt 0.858421 0.389268
vt 0.861254 0.377756
vt 0.856066 0.376538
vt 0.853592 0.386818
vt 0.853592 0.386818
vt 0.856066 0.376538
vt 0.851077 0.375772
vt 0.848916 0.384809
vt 0.85277 0.399585
vt 0.858421 0.389268
vt 0.853592 0.386818
vt 0.848588 0.396035
vt 0.848588 0.396035
vt 0.853592 0.386818
vt 0.848916 0.384809
vt 0.844532 0.3929
vt 0.816354 0.37149
vt 0.844532 0.3929
vt 0.848916 0.384809
vt 0.816354 0.37149
vt 0.848916 0.384809
vt 0.851077 0.375772
vt 0.816354 0.37149
vt 0.838246 0.399506
vt 0.844532 0.3929
vt 0.816354 0.37149
vt 0.83049 0.404201
vt 0.838246 0.399506
vt 0.816354 0.37149
vt 0.821781 0.406686
vt 0.83049 0.404201
vt 0.816354 0.37149
vt 0.812686 0.40679
vt 0.821781 0.406686
vt 0.816354 0.37149
vt 0.803811 0.404488
vt 0.812686 0.40679
vt 0.816354 0.37149
vt 0.795761 0.399911
vt 0.803811 0.404488
vt 0.816354 0.37149
vt 0.789112 0.393347
vt 0.795761 0.399911
vt 0.816354 0.37149
vt 0.784369 0.385243
vt 0.789112 0.393347
vt 0.816354 0.37149
vt 0.781905 0.376198
vt 0.784369 0.385243
vt 0.816354 0.37149
vt 0.781847 0.366905
vt 0.781905 0.376198
vt 0.816354 0.37149
vt 0.784131 0.358018
vt 0.781847 0.366905
vt 0.816354 0.37149
vt 0.788547 0.350116
vt 0.784131 0.358018
vt 0.816354 0.37149
vt 0.794769 0.343686
vt 0.788547 0.350116
vt 0.816354 0.37149
vt 0.802383 0.33911
vt 0.794769 0.343686
vt 0.816354 0.37149
vt 0.810913 0.336668
vt 0.802383 0.33911
vt 0.816354 0.37149
vt 0.819825 0.336513
vt 0.810913 0.336668
vt 0.816354 0.37149
vt 0.828567 0.338677
vt 0.819825 0.336513
vt 0.816354 0.37149
vt 0.83657 0.343066
vt 0.828567 0.338677
vt 0.816354 0.37149
vt 0.843276 0.34944
vt 0.83657 0.343066
vt 0.816354 0.37149
vt 0.848171 0.357409
vt 0.843276 0.34944
vt 0.816354 0.37149
vt 0.850834 0.366413
vt 0.848171 0.357409
vt 0.816354 0.37149
vt 0.851077 0.375772
vt 0.850834 0.366413
s off
f 1/1/1 2/2/2 3/3/3
f 1/1/1 3/3/3 4/4/4
f 5/5/5 6/6/6 7/7/7
f 5/5/5 7/7/7 8/8/8
f 9/9/9 10/10/10 11/11/11
f 9/9/9 11/11/11 12/12/12
f 13/13/13 14/14/14 15/15/15
f 13/13/13 15/15/15 16/16/16
f 17/17/17 18/18/18 19/19/19
f 17/17/17 19/19/19 20/20/20
f 21/21/21 22/22/22 23/23/23
f 21/21/21 23/23/23 24/24/24
f 25/25/25 26/26/26 27/27/27
f 25/25/25 27/27/27 28/28/28
f 29/29/29 30/30/30 31/31/31
f 29/29/29 31/31/31 32/32/32
f 33/33/33 34/34/34 35/35/35
f 33/33/33 35/35/35 36/36/36
f 37/37/37 38/38/38 39/39/39
f 37/37/37 39/39/39 40/40/40
f 41/41/41 42/42/42 43/43/43
f 41/41/41 43/43/43 44/44/44
f 45/45/45 46/46/46 47/47/47
f 45/45/45 47/47/47 48/48/48
f 49/49/49 50/50/50 51/51/51
f 49/49/49 51/51/51 52/52/52
f 53/53/53 54/54/54 55/55/55
f 53/53/53 55/55/55 56/56/56
f 57/57/57 58/58/58 59/59/59
f 57/57/57 59/59/59 60/60/60
f 61/61/61 62/62/62 63/63/63
f 61/61/61 63/63/63 64/64/64
f 65/65/65 66/66/66 67/67/67
f 65/65/65 67/67/67 68/68/68
f 69/69/69 70/70/70 71/71/71
f 69/69/69 71/71/71 72/72/72
f 73/73/73 74/74/74 75/75/75
f 73/73/73 75/75/75 76/76/76
f 77/77/77 78/78/78 79/79/79
f 77/77/77 79/79/79 80/80/80
f 81/81/81 82/82/82 83/83/83
f 81/81/81 83/83/83 84/84/84
f 85/85/85 86/86/86 87/87/87
f 85/85/85 87/87/87 88/88/88
f 89/89/89 90/90/90 91/91/91
f 89/89/89 91/91/91 92/92/92
f 93/93/93 94/94/94 95/95/95
f 93/93/93 95/95/95 96/96/96
f 97/97/97 98/98/98 99/99/99
f 97/97/97 99/99/99 100/100/100
f 101/101/101 102/102/102 103/103/103
f 101/101/101 103/103/103 104/104/104
f 105/105/105 106/106/106 107/107/107
f 105/105/105 107/107/107 108/108/108
f 109/109/109 110/110/110 111/111/111
f 109/109/109 111/111/111 112/112/112
f 113/113/113 114/114/114 115/115/115
f 113/113/113 115/115/115 116/116/116
f 117/117/117 118/118/118 119/119/119
f 117/117/117 119/119/119 120/120/120
f 121/121/121 122/122/122 123/123/123
f 121/121/121 123/123/123 124/124/124
f 125/125/125 126/126/126 127/127/127
f 125/125/125 127/127/127 128/128/128
f 129/129/129 130/130/130 131/131/131
f 129/129/129 131/131/131 132/132/132
f 133/133/133 134/134/134 135/135/135
f 133/133/133 135/135/135 136/136/136
f 137/137/137 138/138/138 139/139/139
f 137/137/137 139/139/139 140/140/140
f 141/141/141 142/142/142 143/143/143
f 141/141/141 143/143/143 144/144/144
f 145/145/145 146/146/146 147/147/147
f 145/145/145 147/147/147 148/148/148
f 149/149/149 150/150/150 151/151/151
f 149/149/149 151/151/151 152/152/152
f 153/153/153 154/154/154 155/155/155
f 153/153/153 155/155/155 156/156/156
f 157/157/157 158/158/158 159/159/159
f 157/157/157 159/159/159 160/160/160
f 161/161/161 162/162/162 163/163/163
f 161/161/161 163/163/163 164/164/164
f 165/165/165 166/166/166 167/167/167
f 165/165/165 167/167/167 168/168/168
f 169/169/169 170/170/170 171/171/171
f 169/169/169 171/171/171 172/172/172
f 173/173/173 174/174/174 175/175/175
f 173/173/173 175/175/175 176/176/176
f 177/177/177 178/178/178 179/179/179
f 177/177/177 179/179/179 180/180/180
f 181/181/181 182/182/182 183/183/183
f 181/181/181 183/183/183 184/184/184
f 185/185/185 186/186/186 187/187/187
f 185/185/185 187/187/187 188/188/188
f 189/189/189 190/190/190 191/191/191
f 189/189/189 191/191/191 192/192/192
f 193/193/193 194/194/194 195/195/195
f 193/193/193 195/195/195 196/196/196
f 197/197/197 198/198/198 199/199/199
f 197/197/197 199/199/199 200/200/200
f 201/201/201 202/202/202 203/203/203
f 201/201/201 203/203/203 204/204/204
f 205/205/205 206/206/206 207/207/207
f 205/205/205 207/207/207 208/208/208
f 209/209/209 210/210/210 211/211/211
f 209/209/209 211/211/211 212/212/212
f 213/213/213 214/214/214 215/215/215
f 213/213/213 215/215/215 216/216/216
f 217/217/217 218/218/218 219/219/219
f 217/217/217 219/219/219 220/220/220
f 221/221/221 222/222/222 223/223/223
f 221/221/221 223/223/223 224/224/224
f 225/225/225 226/226/226 227/227/227
f 225/225/225 227/227/227 228/228/228
f 229/229/229 230/230/230 231/231/231
f 229/229/229 231/231/231 232/232/232
f 233/233/233 234/234/234 235/235/235
f 233/233/233 235/235/235 236/236/236
f 237/237/237 238/238/238 239/239/239
f 237/237/237 239/239/239 240/240/240
f 241/241/241 242/242/242 243/243/243
f 241/241/241 243/243/243 244/244/244
f 245/245/245 246/246/246 247/247/247
f 245/245/245 247/247/247 248/248/248
f 249/249/249 250/250/250 251/251/251
f 249/249/249 251/251/251 252/252/252
f 253/253/253 254/254/254 255/255/255
f 253/253/253 255/255/255 256/256/256
f 257/257/257 258/258/258 259/259/259
f 257/257/257 259/259/259 260/260/260
f 261/261/261 262/262/262 263/263/263
f 261/261/261 263/263/263 264/264/264
f 265/265/265 266/266/266 267/267/267
f 265/265/265 267/267/267 268/268/268
f 269/269/269 270/270/270 271/271/271
f 269/269/269 271/271/271 272/272/272
f 273/273/273 274/274/274 275/275/275
f 273/273/273 275/275/275 276/276/276
f 277/277/277 278/278/278 279/279/279
f 277/277/277 279/279/279 280/280/280
f 281/281/281 282/282/282 283/283/283
f 281/281/281 283/283/283 284/284/284
f 285/285/285 286/286/286 287/287/287
f 285/285/285 287/287/287 288/288/288
f 289/289/289 290/290/290 291/291/291
f 289/289/289 291/291/291 292/292/292
f 293/293/293 294/294/294 295/295/295
f 293/293/293 295/295/295 296/296/296
f 297/297/297 298/298/298 299/299/299
f 297/297/297 299/299/299 300/300/300
f 301/301/301 302/302/302 303/303/303
f 301/301/301 303/303/303 304/304/304
f 305/305/305 306/306/306 307/307/307
f 305/305/305 307/307/307 308/308/308
f 309/309/309 310/310/310 311/311/311
f 309/309/309 311/311/311 312/312/312
f 313/313/313 314/314/314 315/315/315
f 313/313/313 315/315/315 316/316/316
f 317/317/317 318/318/318 319/319/319
f 317/317/317 319/319/319 320/320/320
f 321/321/321 322/322/322 323/323/323
f 321/321/321 323/323/323 324/324/324
f 325/325/325 326/326/326 327/327/327
f 325/325/325 327/327/327 328/328/328
f 329/329/329 330/330/330 331/331/331
f 329/329/329 331/331/331 332/332/332
f 333/333/333 334/334/334 335/335/335
f 333/333/333 335/335/335 336/336/336
f 337/337/337 338/338/338 339/339/339
f 337/337/337 339/339/339 340/340/340
f 341/341/341 342/342/342 343/343/343
f 341/341/341 343/343/343 344/344/344
f 345/345/345 346/346/346 347/347/347
f 345/345/345 347/347/347 348/348/348
f 349/349/349 350/350/350 351/351/351
f 349/349/349 351/351/351 352/352/352
f 353/353/353 354/354/354 355/355/355
f 353/353/353 355/355/355 356/356/356
f 357/357/357 358/358/358 359/359/359
f 357/357/357 359/359/359 360/360/360
f 361/361/361 362/362/362 363/363/363
f 361/361/361 363/363/363 364/364/364
f 365/365/365 366/366/366 367/367/367
f 365/365/365 367/367/367 368/368/368
f 369/369/369 370/370/370 371/371/371
f 369/369/369 371/371/371 372/372/372
f 373/373/373 374/374/374 375/375/375
f 373/373/373 375/375/375 376/376/376
f 377/377/377 378/378/378 379/379/379
f 377/377/377 379/379/379 380/380/380
f 381/381/381 382/382/382 383/383/383
f 381/381/381 383/383/383 384/384/384
f 385/385/385 386/386/386 387/387/387
f 388/388/388 389/389/389 390/390/390
f 391/391/391 392/392/392 393/393/393
f 394/394/394 395/395/395 396/396/396
f 397/397/397 398/398/398 399/399/399
f 400/400/400 401/401/401 402/402/402
f 403/403/403 404/404/404 405/405/405
f 406/406/406 407/407/407 408/408/408
f 409/409/409 410/410/410 411/411/411
f 412/412/412 413/413/413 414/414/414
f 415/415/415 416/416/416 417/417/417
f 418/418/418 419/419/419 420/420/420
f 421/421/421 422/422/422 423/423/423
f 424/424/424 425/425/425 426/426/426
f 427/427/427 428/428/428 429/429/429
f 430/430/430 431/431/431 432/432/432
f 433/433/433 434/434/434 435/435/435
f 436/436/436 437/437/437 438/438/438
f 439/439/439 440/440/440 441/441/441
f 442/442/442 443/443/443 444/444/444
f 445/445/445 446/446/446 447/447/447
f 448/448/448 449/449/449 450/450/450
f 451/451/451 452/452/452 453/453/453
f 454/454/454 455/455/455 456/456/456
