v 0.493571 0.182962 -0.266554
v 0.495812 0.182962 -0.24953
v 0.495812 0.245193 -0.24953
v 0.493571 0.244884 -0.266554
v 0.495812 0.182962 -0.283578
v 0.493571 0.182962 -0.266554
v 0.493571 0.244884 -0.266554
v 0.495812 0.244302 -0.283578
v 0.495448 0.251967 -0.266551
v 0.497625 0.251402 -0.283089
v 0.495812 0.244302 -0.283578
v 0.493571 0.244884 -0.266554
v 0.497625 0.252266 -0.250015
v 0.495448 0.251967 -0.266551
v 0.493571 0.244884 -0.266554
v 0.495812 0.245193 -0.24953
v 0.497625 0.251402 -0.283089
v 0.504008 0.250611 -0.2985
v 0.502383 0.243486 -0.299442
v 0.495812 0.244302 -0.283578
v 0.502383 0.182962 -0.299442
v 0.495812 0.182962 -0.283578
v 0.495812 0.244302 -0.283578
v 0.502383 0.243486 -0.299442
v 0.504008 0.250611 -0.2985
v 0.514163 0.249646 -0.311734
v 0.512836 0.242492 -0.313065
v 0.502383 0.243486 -0.299442
v 0.512836 0.182962 -0.313065
v 0.502383 0.182962 -0.299442
v 0.502383 0.243486 -0.299442
v 0.512836 0.242492 -0.313065
v 0.526459 0.182962 -0.323518
v 0.512836 0.182962 -0.313065
v 0.512836 0.242492 -0.313065
v 0.526459 0.241388 -0.323518
v 0.542323 0.182962 -0.330089
v 0.526459 0.182962 -0.323518
v 0.526459 0.241388 -0.323518
v 0.542323 0.24025 -0.330089
v 0.514163 0.249646 -0.311734
v 0.527398 0.248574 -0.321889
v 0.526459 0.241388 -0.323518
v 0.512836 0.242492 -0.313065
v 0.527398 0.248574 -0.321889
v 0.54281 0.247468 -0.328273
v 0.542323 0.24025 -0.330089
v 0.526459 0.241388 -0.323518
v 0.54281 0.247468 -0.328273
v 0.55935 0.246403 -0.330451
v 0.559347 0.239155 -0.33233
v 0.542323 0.24025 -0.330089
v 0.559347 0.182962 -0.33233
v 0.542323 0.182962 -0.330089
v 0.542323 0.24025 -0.330089
v 0.559347 0.239155 -0.33233
v 0.55935 0.246403 -0.330451
v 0.575888 0.245453 -0.328273
v 0.576371 0.238177 -0.330089
v 0.559347 0.239155 -0.33233
v 0.576371 0.182962 -0.330089
v 0.559347 0.182962 -0.33233
v 0.559347 0.239155 -0.33233
v 0.576371 0.238177 -0.330089
v 0.592235 0.182962 -0.323518
v 0.576371 0.182962 -0.330089
v 0.576371 0.238177 -0.330089
v 0.592235 0.237384 -0.323518
v 0.605858 0.182962 -0.313065
v 0.592235 0.182962 -0.323518
v 0.592235 0.237384 -0.323518
v 0.605858 0.236827 -0.313065
v 0.575888 0.245453 -0.328273
v 0.591299 0.244681 -0.32189
v 0.592235 0.237384 -0.323518
v 0.576371 0.238177 -0.330089
v 0.591299 0.244681 -0.32189
v 0.604532 0.24414 -0.311736
v 0.605858 0.236827 -0.313065
v 0.592235 0.237384 -0.323518
v 0.604532 0.24414 -0.311736
v 0.614686 0.243867 -0.298503
v 0.616311 0.236547 -0.299442
v 0.605858 0.236827 -0.313065
v 0.616311 0.182962 -0.299442
v 0.605858 0.182962 -0.313065
v 0.605858 0.236827 -0.313065
v 0.616311 0.236547 -0.299442
v 0.614686 0.243867 -0.298503
v 0.621069 0.24388 -0.283094
v 0.622882 0.23656 -0.283578
v 0.616311 0.236547 -0.299442
v 0.622882 0.182962 -0.283578
v 0.616311 0.182962 -0.299442
v 0.616311 0.236547 -0.299442
v 0.622882 0.23656 -0.283578
v 0.625123 0.182962 -0.266554
v 0.622882 0.182962 -0.283578
v 0.622882 0.23656 -0.283578
v 0.625123 0.236866 -0.266554
v 0.622882 0.182962 -0.24953
v 0.625123 0.182962 -0.266554
v 0.625123 0.236866 -0.266554
v 0.622882 0.237446 -0.24953
v 0.621069 0.24388 -0.283094
v 0.623246 0.244178 -0.266557
v 0.625123 0.236866 -0.266554
v 0.622882 0.23656 -0.283578
v 0.623246 0.244178 -0.266557
v 0.621069 0.244741 -0.25002
v 0.622882 0.237446 -0.24953
v 0.625123 0.236866 -0.266554
v 0.621069 0.244741 -0.25002
v 0.614685 0.245532 -0.234609
v 0.616311 0.238258 -0.233666
v 0.622882 0.237446 -0.24953
v 0.616311 0.182962 -0.233666
v 0.622882 0.182962 -0.24953
v 0.622882 0.237446 -0.24953
v 0.616311 0.238258 -0.233666
v 0.614685 0.245532 -0.234609
v 0.60453 0.246495 -0.221374
v 0.605858 0.239249 -0.220043
v 0.616311 0.238258 -0.233666
v 0.605858 0.182962 -0.220043
v 0.616311 0.182962 -0.233666
v 0.616311 0.238258 -0.233666
v 0.605858 0.239249 -0.220043
v 0.592235 0.182962 -0.20959
v 0.605858 0.182962 -0.220043
v 0.605858 0.239249 -0.220043
v 0.592235 0.240351 -0.20959
v 0.576371 0.182962 -0.203019
v 0.592235 0.182962 -0.20959
v 0.592235 0.240351 -0.20959
v 0.576371 0.24149 -0.203019
v 0.60453 0.246495 -0.221374
v 0.591296 0.247566 -0.211219
v 0.592235 0.240351 -0.20959
v 0.605858 0.239249 -0.220043
v 0.591296 0.247566 -0.211219
v 0.575883 0.248672 -0.204835
v 0.576371 0.24149 -0.203019
v 0.592235 0.240351 -0.20959
v 0.575883 0.248672 -0.204835
v 0.559344 0.249737 -0.202658
v 0.559347 0.242587 -0.200778
v 0.576371 0.24149 -0.203019
v 0.559347 0.182962 -0.200778
v 0.576371 0.182962 -0.203019
v 0.576371 0.24149 -0.203019
v 0.559347 0.242587 -0.200778
v 0.559344 0.249737 -0.202658
v 0.542805 0.250689 -0.204835
v 0.542323 0.243567 -0.203019
v 0.559347 0.242587 -0.200778
v 0.542323 0.182962 -0.203019
v 0.559347 0.182962 -0.200778
v 0.559347 0.242587 -0.200778
v 0.542323 0.243567 -0.203019
v 0.526459 0.182962 -0.20959
v 0.542323 0.182962 -0.203019
v 0.542323 0.243567 -0.203019
v 0.526459 0.244365 -0.20959
v 0.512836 0.182962 -0.220043
v 0.526459 0.182962 -0.20959
v 0.526459 0.244365 -0.20959
v 0.512836 0.244924 -0.220043
v 0.542805 0.250689 -0.204835
v 0.527395 0.251463 -0.211218
v 0.526459 0.244365 -0.20959
v 0.542323 0.243567 -0.203019
v 0.527395 0.251463 -0.211218
v 0.514162 0.252005 -0.221372
v 0.512836 0.244924 -0.220043
v 0.526459 0.244365 -0.20959
v 0.514162 0.252005 -0.221372
v 0.504008 0.252279 -0.234605
v 0.502383 0.245206 -0.233666
v 0.512836 0.244924 -0.220043
v 0.502383 0.182962 -0.233666
v 0.512836 0.182962 -0.220043
v 0.512836 0.244924 -0.220043
v 0.502383 0.245206 -0.233666
v 0.504008 0.252279 -0.234605
v 0.497625 0.252266 -0.250015
v 0.495812 0.245193 -0.24953
v 0.502383 0.245206 -0.233666
v 0.495812 0.182962 -0.24953
v 0.502383 0.182962 -0.233666
v 0.502383 0.245206 -0.233666
v 0.495812 0.245193 -0.24953
v 0.517783 0.256959 -0.225004
v 0.508447 0.25721 -0.237171
v 0.504008 0.252279 -0.234605
v 0.514162 0.252005 -0.221372
v 0.508447 0.25721 -0.237171
v 0.502578 0.257198 -0.251339
v 0.497625 0.252266 -0.250015
v 0.504008 0.252279 -0.234605
v 0.502578 0.257198 -0.251339
v 0.500577 0.256924 -0.266544
v 0.495448 0.251967 -0.266551
v 0.497625 0.252266 -0.250015
v 0.514511 0.258677 -0.240676
v 0.509345 0.258667 -0.253148
v 0.502578 0.257198 -0.251339
v 0.508447 0.25721 -0.237171
v 0.509345 0.258667 -0.253148
v 0.507583 0.258425 -0.266534
v 0.500577 0.256924 -0.266544
v 0.502578 0.257198 -0.251339
v 0.507583 0.258425 -0.266534
v 0.509345 0.257969 -0.279923
v 0.502579 0.256405 -0.281751
v 0.500577 0.256924 -0.266544
v 0.500577 0.256924 -0.266544
v 0.502579 0.256405 -0.281751
v 0.497625 0.251402 -0.283089
v 0.495448 0.251967 -0.266551
v 0.509345 0.257969 -0.279923
v 0.514516 0.257328 -0.292406
v 0.508449 0.255677 -0.295924
v 0.502579 0.256405 -0.281751
v 0.502579 0.256405 -0.281751
v 0.508449 0.255677 -0.295924
v 0.504008 0.250611 -0.2985
v 0.497625 0.251402 -0.283089
v 0.514516 0.257328 -0.292406
v 0.522744 0.256547 -0.303129
v 0.51779 0.25479 -0.308097
v 0.508449 0.255677 -0.295924
v 0.508449 0.255677 -0.295924
v 0.51779 0.25479 -0.308097
v 0.514163 0.249646 -0.311734
v 0.504008 0.250611 -0.2985
v 0.522744 0.256547 -0.303129
v 0.533471 0.255678 -0.31136
v 0.529965 0.253804 -0.317439
v 0.51779 0.25479 -0.308097
v 0.51779 0.25479 -0.308097
v 0.529965 0.253804 -0.317439
v 0.527398 0.248574 -0.321889
v 0.514163 0.249646 -0.311734
v 0.533471 0.255678 -0.31136
v 0.545963 0.254782 -0.316534
v 0.544143 0.252787 -0.323312
v 0.529965 0.253804 -0.317439
v 0.529965 0.253804 -0.317439
v 0.544143 0.252787 -0.323312
v 0.54281 0.247468 -0.328273
v 0.527398 0.248574 -0.321889
v 0.545963 0.254782 -0.316534
v 0.559367 0.253919 -0.318299
v 0.559357 0.251807 -0.325315
v 0.544143 0.252787 -0.323312
v 0.544143 0.252787 -0.323312
v 0.559357 0.251807 -0.325315
v 0.55935 0.246403 -0.330451
v 0.54281 0.247468 -0.328273
v 0.559367 0.253919 -0.318299
v 0.572768 0.253148 -0.316535
v 0.574569 0.250933 -0.323312
v 0.559357 0.251807 -0.325315
v 0.559357 0.251807 -0.325315
v 0.574569 0.250933 -0.323312
v 0.575888 0.245453 -0.328273
v 0.55935 0.246403 -0.330451
v 0.572768 0.253148 -0.316535
v 0.58525 0.252522 -0.311365
v 0.588742 0.250222 -0.317441
v 0.574569 0.250933 -0.323312
v 0.574569 0.250933 -0.323312
v 0.588742 0.250222 -0.317441
v 0.591299 0.244681 -0.32189
v 0.575888 0.245453 -0.328273
v 0.58525 0.252522 -0.311365
v 0.595964 0.252084 -0.303143
v 0.600911 0.249724 -0.308104
v 0.588742 0.250222 -0.317441
v 0.588742 0.250222 -0.317441
v 0.600911 0.249724 -0.308104
v 0.604532 0.24414 -0.311736
v 0.591299 0.244681 -0.32189
v 0.595964 0.252084 -0.303143
v 0.604183 0.251862 -0.292432
v 0.610247 0.249473 -0.295937
v 0.600911 0.249724 -0.308104
v 0.600911 0.249724 -0.308104
v 0.610247 0.249473 -0.295937
v 0.614686 0.243867 -0.298503
v 0.604532 0.24414 -0.311736
v 0.604183 0.251862 -0.292432
v 0.609349 0.251873 -0.27996
v 0.616115 0.249485 -0.281769
v 0.610247 0.249473 -0.295937
v 0.610247 0.249473 -0.295937
v 0.616115 0.249485 -0.281769
v 0.621069 0.24388 -0.283094
v 0.614686 0.243867 -0.298503
v 0.609349 0.251873 -0.27996
v 0.611111 0.252114 -0.266575
v 0.618117 0.249759 -0.266564
v 0.616115 0.249485 -0.281769
v 0.616115 0.249485 -0.281769
v 0.618117 0.249759 -0.266564
v 0.623246 0.244178 -0.266557
v 0.621069 0.24388 -0.283094
v 0.611111 0.252114 -0.266575
v 0.609348 0.252571 -0.253185
v 0.616115 0.250278 -0.251357
v 0.618117 0.249759 -0.266564
v 0.618117 0.249759 -0.266564
v 0.616115 0.250278 -0.251357
v 0.621069 0.244741 -0.25002
v 0.623246 0.244178 -0.266557
v 0.609348 0.252571 -0.253185
v 0.604178 0.253212 -0.240702
v 0.610244 0.251005 -0.237184
v 0.616115 0.250278 -0.251357
v 0.616115 0.250278 -0.251357
v 0.610244 0.251005 -0.237184
v 0.614685 0.245532 -0.234609
v 0.621069 0.244741 -0.25002
v 0.604178 0.253212 -0.240702
v 0.59595 0.253993 -0.229979
v 0.600904 0.251892 -0.225011
v 0.610244 0.251005 -0.237184
v 0.610244 0.251005 -0.237184
v 0.600904 0.251892 -0.225011
v 0.60453 0.246495 -0.221374
v 0.614685 0.245532 -0.234609
v 0.59595 0.253993 -0.229979
v 0.585223 0.254861 -0.221748
v 0.588729 0.252877 -0.215669
v 0.600904 0.251892 -0.225011
v 0.600904 0.251892 -0.225011
v 0.588729 0.252877 -0.215669
v 0.591296 0.247566 -0.211219
v 0.60453 0.246495 -0.221374
v 0.585223 0.254861 -0.221748
v 0.572731 0.255758 -0.216574
v 0.574551 0.253895 -0.209796
v 0.588729 0.252877 -0.215669
v 0.588729 0.252877 -0.215669
v 0.574551 0.253895 -0.209796
v 0.575883 0.248672 -0.204835
v 0.591296 0.247566 -0.211219
v 0.572731 0.255758 -0.216574
v 0.559326 0.256621 -0.214809
v 0.559337 0.254874 -0.207793
v 0.574551 0.253895 -0.209796
v 0.574551 0.253895 -0.209796
v 0.559337 0.254874 -0.207793
v 0.559344 0.249737 -0.202658
v 0.575883 0.248672 -0.204835
v 0.559326 0.256621 -0.214809
v 0.545926 0.257392 -0.216573
v 0.544124 0.255749 -0.209796
v 0.559337 0.254874 -0.207793
v 0.559337 0.254874 -0.207793
v 0.544124 0.255749 -0.209796
v 0.542805 0.250689 -0.204835
v 0.559344 0.249737 -0.202658
v 0.545926 0.257392 -0.216573
v 0.533444 0.258017 -0.221743
v 0.529951 0.25646 -0.215667
v 0.544124 0.255749 -0.209796
v 0.544124 0.255749 -0.209796
v 0.529951 0.25646 -0.215667
v 0.527395 0.251463 -0.211218
v 0.542805 0.250689 -0.204835
v 0.533444 0.258017 -0.221743
v 0.52273 0.258456 -0.229965
v 0.517783 0.256959 -0.225004
v 0.529951 0.25646 -0.215667
v 0.529951 0.25646 -0.215667
v 0.517783 0.256959 -0.225004
v 0.514162 0.252005 -0.221372
v 0.527395 0.251463 -0.211218
v 0.52273 0.258456 -0.229965
v 0.514511 0.258677 -0.240676
v 0.508447 0.25721 -0.237171
v 0.517783 0.256959 -0.225004
v 0.559347 0.25527 -0.266554
v 0.514511 0.258677 -0.240676
v 0.52273 0.258456 -0.229965
v 0.559347 0.25527 -0.266554
v 0.52273 0.258456 -0.229965
v 0.533444 0.258017 -0.221743
v 0.559347 0.25527 -0.266554
v 0.509345 0.257969 -0.279923
v 0.507583 0.258425 -0.266534
v 0.559347 0.25527 -0.266554
v 0.507583 0.258425 -0.266534
v 0.509345 0.258667 -0.253148
v 0.559347 0.25527 -0.266554
v 0.509345 0.258667 -0.253148
v 0.514511 0.258677 -0.240676
v 0.559347 0.25527 -0.266554
v 0.533444 0.258017 -0.221743
v 0.545926 0.257392 -0.216573
v 0.559347 0.25527 -0.266554
v 0.545926 0.257392 -0.216573
v 0.559326 0.256621 -0.214809
v 0.559347 0.25527 -0.266554
v 0.559326 0.256621 -0.214809
v 0.572731 0.255758 -0.216574
v 0.559347 0.25527 -0.266554
v 0.572731 0.255758 -0.216574
v 0.585223 0.254861 -0.221748
v 0.559347 0.25527 -0.266554
v 0.585223 0.254861 -0.221748
v 0.59595 0.253993 -0.229979
v 0.559347 0.25527 -0.266554
v 0.59595 0.253993 -0.229979
v 0.604178 0.253212 -0.240702
v 0.559347 0.25527 -0.266554
v 0.604178 0.253212 -0.240702
v 0.609348 0.252571 -0.253185
v 0.559347 0.25527 -0.266554
v 0.609348 0.252571 -0.253185
v 0.611111 0.252114 -0.266575
v 0.559347 0.25527 -0.266554
v 0.611111 0.252114 -0.266575
v 0.609349 0.251873 -0.27996
v 0.559347 0.25527 -0.266554
v 0.609349 0.251873 -0.27996
v 0.604183 0.251862 -0.292432
v 0.559347 0.25527 -0.266554
v 0.604183 0.251862 -0.292432
v 0.595964 0.252084 -0.303143
v 0.559347 0.25527 -0.266554
v 0.595964 0.252084 -0.303143
v 0.58525 0.252522 -0.311365
v 0.559347 0.25527 -0.266554
v 0.58525 0.252522 -0.311365
v 0.572768 0.253148 -0.316535
v 0.559347 0.25527 -0.266554
v 0.572768 0.253148 -0.316535
v 0.559367 0.253919 -0.318299
v 0.559347 0.25527 -0.266554
v 0.559367 0.253919 -0.318299
v 0.545963 0.254782 -0.316534
v 0.559347 0.25527 -0.266554
v 0.545963 0.254782 -0.316534
v 0.533471 0.255678 -0.31136
v 0.559347 0.25527 -0.266554
v 0.533471 0.255678 -0.31136
v 0.522744 0.256547 -0.303129
v 0.559347 0.25527 -0.266554
v 0.522744 0.256547 -0.303129
v 0.514516 0.257328 -0.292406
v 0.559347 0.25527 -0.266554
v 0.514516 0.257328 -0.292406
v 0.509345 0.257969 -0.279923
vn -1 -0 -0
vn -0.9659 -0 0.2588
vn -0.9582 0.1286 0.2555
vn -0.9917 0.1284 -0.0033
vn -0.9659 -0 -0.2588
vn -1 -0 -0
vn -0.9917 0.1284 -0.0033
vn -0.9566 0.1281 -0.2616
vn -0.8673 0.4976 -0.0124
vn -0.8339 0.4954 -0.2434
vn -0.9566 0.1281 -0.2616
vn -0.9917 0.1284 -0.0033
vn -0.8383 0.4988 0.22
vn -0.8673 0.4976 -0.0124
vn -0.9917 0.1284 -0.0033
vn -0.9582 0.1286 0.2555
vn -0.8339 0.4954 -0.2434
vn -0.7411 0.4923 -0.4566
vn -0.8556 0.1276 -0.5016
vn -0.9566 0.1281 -0.2616
vn -0.866 -0 -0.5
vn -0.9659 -0 -0.2588
vn -0.9566 0.1281 -0.2616
vn -0.8556 0.1276 -0.5016
vn -0.7411 0.4923 -0.4566
vn -0.5964 0.4885 -0.6369
vn -0.696 0.127 -0.7067
vn -0.8556 0.1276 -0.5016
vn -0.7071 -0 -0.7071
vn -0.866 -0 -0.5
vn -0.8556 0.1276 -0.5016
vn -0.696 0.127 -0.7067
vn -0.5 -0 -0.866
vn -0.7071 -0 -0.7071
vn -0.696 0.127 -0.7067
vn -0.489 0.1263 -0.8631
vn -0.2588 -0 -0.9659
vn -0.5 -0 -0.866
vn -0.489 0.1263 -0.8631
vn -0.2491 0.1256 -0.9603
vn -0.5964 0.4885 -0.6369
vn -0.4109 0.4844 -0.7724
vn -0.489 0.1263 -0.8631
vn -0.696 0.127 -0.7067
vn -0.4109 0.4844 -0.7724
vn -0.198 0.4801 -0.8546
vn -0.2491 0.1256 -0.9603
vn -0.489 0.1263 -0.8631
vn -0.198 0.4801 -0.8546
vn 0.0276 0.4761 -0.879
vn 0.0073 0.1249 -0.9921
vn -0.2491 0.1256 -0.9603
vn -0 -0 -1
vn -0.2588 -0 -0.9659
vn -0.2491 0.1256 -0.9603
vn 0.0073 0.1249 -0.9921
vn 0.0276 0.4761 -0.879
vn 0.2506 0.4725 -0.8449
vn 0.2628 0.1243 -0.9568
vn 0.0073 0.1249 -0.9921
vn 0.2588 -0 -0.9659
vn -0 -0 -1
vn 0.0073 0.1249 -0.9921
vn 0.2628 0.1243 -0.9568
vn 0.5 -0 -0.866
vn 0.2588 -0 -0.9659
vn 0.2628 0.1243 -0.9568
vn 0.5002 0.1238 -0.857
vn 0.7071 -0 -0.7071
vn 0.5 -0 -0.866
vn 0.5002 0.1238 -0.857
vn 0.7037 0.1234 -0.6996
vn 0.2506 0.4725 -0.8449
vn 0.4567 0.4696 -0.7556
vn 0.5002 0.1238 -0.857
vn 0.2628 0.1243 -0.9568
vn 0.4567 0.4696 -0.7556
vn 0.6327 0.4676 -0.6173
vn 0.7037 0.1234 -0.6996
vn 0.5002 0.1238 -0.857
vn 0.6327 0.4676 -0.6173
vn 0.7677 0.4666 -0.4392
vn 0.8599 0.1232 -0.4954
vn 0.7037 0.1234 -0.6996
vn 0.866 -0 -0.5
vn 0.7071 -0 -0.7071
vn 0.7037 0.1234 -0.6996
vn 0.8599 0.1232 -0.4954
vn 0.7677 0.4666 -0.4392
vn 0.8532 0.4666 -0.2329
vn 0.9583 0.1232 -0.2579
vn 0.8599 0.1232 -0.4954
vn 0.9659 -0 -0.2588
vn 0.866 -0 -0.5
vn 0.8599 0.1232 -0.4954
vn 0.9583 0.1232 -0.2579
vn 1 -0 -0
vn 0.9659 -0 -0.2588
vn 0.9583 0.1232 -0.2579
vn 0.9923 0.1234 -0.0031
vn 0.9659 -0 0.2588
vn 1 -0 -0
vn 0.9923 0.1234 -0.0031
vn 0.9597 0.1238 0.2521
vn 0.8532 0.4666 -0.2329
vn 0.8838 0.4677 -0.0116
vn 0.9923 0.1234 -0.0031
vn 0.9583 0.1232 -0.2579
vn 0.8838 0.4677 -0.0116
vn 0.8572 0.4698 0.2108
vn 0.9597 0.1238 0.2521
vn 0.9923 0.1234 -0.0031
vn 0.8572 0.4698 0.2108
vn 0.7747 0.4728 0.4198
vn 0.8624 0.1244 0.4906
vn 0.9597 0.1238 0.2521
vn 0.866 -0 0.5
vn 0.9659 -0 0.2588
vn 0.9597 0.1238 0.2521
vn 0.8624 0.1244 0.4906
vn 0.7747 0.4728 0.4198
vn 0.6411 0.4764 0.6017
vn 0.7068 0.125 0.6963
vn 0.8624 0.1244 0.4906
vn 0.7071 -0 0.7071
vn 0.866 -0 0.5
vn 0.8624 0.1244 0.4906
vn 0.7068 0.125 0.6963
vn 0.5 -0 0.866
vn 0.7071 -0 0.7071
vn 0.7068 0.125 0.6963
vn 0.5029 0.1257 0.8552
vn 0.2588 -0 0.9659
vn 0.5 -0 0.866
vn 0.5029 0.1257 0.8552
vn 0.2645 0.1264 0.9561
vn 0.6411 0.4764 0.6017
vn 0.4643 0.4805 0.744
vn 0.5029 0.1257 0.8552
vn 0.7068 0.125 0.6963
vn 0.4643 0.4805 0.744
vn 0.2555 0.4848 0.8365
vn 0.2645 0.1264 0.9561
vn 0.5029 0.1257 0.8552
vn 0.2555 0.4848 0.8365
vn 0.0284 0.4889 0.8719
vn 0.0075 0.1271 0.9919
vn 0.2645 0.1264 0.9561
vn -0 -0 1
vn 0.2588 -0 0.9659
vn 0.2645 0.1264 0.9561
vn 0.0075 0.1271 0.9919
vn 0.0284 0.4889 0.8719
vn -0.2015 0.4926 0.8466
vn -0.2504 0.1277 0.9597
vn 0.0075 0.1271 0.9919
vn -0.2588 -0 0.9659
vn -0 -0 1
vn 0.0075 0.1271 0.9919
vn -0.2504 0.1277 0.9597
vn -0.5 -0 0.866
vn -0.2588 -0 0.9659
vn -0.2504 0.1277 0.9597
vn -0.4916 0.1282 0.8614
vn -0.7071 -0 0.7071
vn -0.5 -0 0.866
vn -0.4916 0.1282 0.8614
vn -0.6991 0.1285 0.7034
vn -0.2015 0.4926 0.8466
vn -0.4179 0.4957 0.7614
vn -0.4916 0.1282 0.8614
vn -0.2504 0.1277 0.9597
vn -0.4179 0.4957 0.7614
vn -0.6049 0.4978 0.6215
vn -0.6991 0.1285 0.7034
vn -0.4916 0.1282 0.8614
vn -0.6049 0.4978 0.6215
vn -0.7487 0.4989 0.4366
vn -0.8583 0.1287 0.4967
vn -0.6991 0.1285 0.7034
vn -0.866 -0 0.5
vn -0.7071 -0 0.7071
vn -0.6991 0.1285 0.7034
vn -0.8583 0.1287 0.4967
vn -0.7487 0.4989 0.4366
vn -0.8383 0.4988 0.22
vn -0.9582 0.1286 0.2555
vn -0.8583 0.1287 0.4967
vn -0.9659 -0 0.2588
vn -0.866 -0 0.5
vn -0.8583 0.1287 0.4967
vn -0.9582 0.1286 0.2555
vn -0.3294 0.8733 0.359
vn -0.416 0.8749 0.2479
vn -0.7487 0.4989 0.4366
vn -0.6049 0.4978 0.6215
vn -0.416 0.8749 0.2479
vn -0.4699 0.8748 0.1176
vn -0.8383 0.4988 0.22
vn -0.7487 0.4989 0.4366
vn -0.4699 0.8748 0.1176
vn -0.4871 0.8731 -0.0221
vn -0.8673 0.4976 -0.0124
vn -0.8383 0.4988 0.22
vn -0.0667 0.9966 0.0475
vn -0.0813 0.9966 0.0121
vn -0.4699 0.8748 0.1176
vn -0.416 0.8749 0.2479
vn -0.0813 0.9966 0.0121
vn -0.0862 0.9959 -0.0259
vn -0.4871 0.8731 -0.0221
vn -0.4699 0.8748 0.1176
vn -0.0862 0.9959 -0.0259
vn -0.0809 0.9947 -0.0637
vn -0.4667 0.8697 -0.1609
vn -0.4871 0.8731 -0.0221
vn -0.4871 0.8731 -0.0221
vn -0.4667 0.8697 -0.1609
vn -0.8339 0.4954 -0.2434
vn -0.8673 0.4976 -0.0124
vn -0.0809 0.9947 -0.0637
vn -0.066 0.9929 -0.0987
vn -0.4105 0.865 -0.2885
vn -0.4667 0.8697 -0.1609
vn -0.4667 0.8697 -0.1609
vn -0.4105 0.865 -0.2885
vn -0.7411 0.4923 -0.4566
vn -0.8339 0.4954 -0.2434
vn -0.066 0.9929 -0.0987
vn -0.0425 0.9908 -0.1284
vn -0.3234 0.8594 -0.3961
vn -0.4105 0.865 -0.2885
vn -0.4105 0.865 -0.2885
vn -0.3234 0.8594 -0.3961
vn -0.5964 0.4885 -0.6369
vn -0.7411 0.4923 -0.4566
vn -0.0425 0.9908 -0.1284
vn -0.0123 0.9885 -0.1509
vn -0.2121 0.8532 -0.4766
vn -0.3234 0.8594 -0.3961
vn -0.3234 0.8594 -0.3961
vn -0.2121 0.8532 -0.4766
vn -0.4109 0.4844 -0.7724
vn -0.5964 0.4885 -0.6369
vn -0.0123 0.9885 -0.1509
vn 0.0226 0.9861 -0.1647
vn -0.0847 0.8469 -0.525
vn -0.2121 0.8532 -0.4766
vn -0.2121 0.8532 -0.4766
vn -0.0847 0.8469 -0.525
vn -0.198 0.4801 -0.8546
vn -0.4109 0.4844 -0.7724
vn 0.0226 0.9861 -0.1647
vn 0.0597 0.9838 -0.1691
vn 0.0499 0.8409 -0.5389
vn -0.0847 0.8469 -0.525
vn -0.0847 0.8469 -0.525
vn 0.0499 0.8409 -0.5389
vn 0.0276 0.4761 -0.879
vn -0.198 0.4801 -0.8546
vn 0.0597 0.9838 -0.1691
vn 0.0967 0.9818 -0.1637
vn 0.1827 0.8356 -0.518
vn 0.0499 0.8409 -0.5389
vn 0.0499 0.8409 -0.5389
vn 0.1827 0.8356 -0.518
vn 0.2506 0.4725 -0.8449
vn 0.0276 0.4761 -0.879
vn 0.0967 0.9818 -0.1637
vn 0.1309 0.9801 -0.1491
vn 0.3052 0.8314 -0.4644
vn 0.1827 0.8356 -0.518
vn 0.1827 0.8356 -0.518
vn 0.3052 0.8314 -0.4644
vn 0.4567 0.4696 -0.7556
vn 0.2506 0.4725 -0.8449
vn 0.1309 0.9801 -0.1491
vn 0.1602 0.979 -0.1262
vn 0.4099 0.8284 -0.3817
vn 0.3052 0.8314 -0.4644
vn 0.3052 0.8314 -0.4644
vn 0.4099 0.8284 -0.3817
vn 0.6327 0.4676 -0.6173
vn 0.4567 0.4696 -0.7556
vn 0.1602 0.979 -0.1262
vn 0.1827 0.9784 -0.0966
vn 0.4901 0.8269 -0.2756
vn 0.4099 0.8284 -0.3817
vn 0.4099 0.8284 -0.3817
vn 0.4901 0.8269 -0.2756
vn 0.7677 0.4666 -0.4392
vn 0.6327 0.4676 -0.6173
vn 0.1827 0.9784 -0.0966
vn 0.197 0.9784 -0.0623
vn 0.541 0.827 -0.1528
vn 0.4901 0.8269 -0.2756
vn 0.4901 0.8269 -0.2756
vn 0.541 0.827 -0.1528
vn 0.8532 0.4666 -0.2329
vn 0.7677 0.4666 -0.4392
vn 0.197 0.9784 -0.0623
vn 0.202 0.9791 -0.0254
vn 0.5594 0.8286 -0.021
vn 0.541 0.827 -0.1528
vn 0.541 0.827 -0.1528
vn 0.5594 0.8286 -0.021
vn 0.8838 0.4677 -0.0116
vn 0.8532 0.4666 -0.2329
vn 0.202 0.9791 -0.0254
vn 0.1974 0.9803 0.0114
vn 0.5439 0.8317 0.1114
vn 0.5594 0.8286 -0.021
vn 0.5594 0.8286 -0.021
vn 0.5439 0.8317 0.1114
vn 0.8572 0.4698 0.2108
vn 0.8838 0.4677 -0.0116
vn 0.1974 0.9803 0.0114
vn 0.1836 0.9819 0.046
vn 0.4953 0.8361 0.2361
vn 0.5439 0.8317 0.1114
vn 0.5439 0.8317 0.1114
vn 0.4953 0.8361 0.2361
vn 0.7747 0.4728 0.4198
vn 0.8572 0.4698 0.2108
vn 0.1836 0.9819 0.046
vn 0.1612 0.984 0.0759
vn 0.4161 0.8414 0.3448
vn 0.4953 0.8361 0.2361
vn 0.4953 0.8361 0.2361
vn 0.4161 0.8414 0.3448
vn 0.6411 0.4764 0.6017
vn 0.7747 0.4728 0.4198
vn 0.1612 0.984 0.0759
vn 0.1319 0.9863 0.0991
vn 0.3111 0.8474 0.4302
vn 0.4161 0.8414 0.3448
vn 0.4161 0.8414 0.3448
vn 0.3111 0.8474 0.4302
vn 0.4643 0.4805 0.744
vn 0.6411 0.4764 0.6017
vn 0.1319 0.9863 0.0991
vn 0.0975 0.9887 0.114
vn 0.1867 0.8537 0.4861
vn 0.3111 0.8474 0.4302
vn 0.3111 0.8474 0.4302
vn 0.1867 0.8537 0.4861
vn 0.2555 0.4848 0.8365
vn 0.4643 0.4805 0.744
vn 0.0975 0.9887 0.114
vn 0.0602 0.991 0.1195
vn 0.0509 0.8599 0.508
vn 0.1867 0.8537 0.4861
vn 0.1867 0.8537 0.4861
vn 0.0509 0.8599 0.508
vn 0.0284 0.4889 0.8719
vn 0.2555 0.4848 0.8365
vn 0.0602 0.991 0.1195
vn 0.0225 0.9931 0.1151
vn -0.0868 0.8654 0.4934
vn 0.0509 0.8599 0.508
vn 0.0509 0.8599 0.508
vn -0.0868 0.8654 0.4934
vn -0.2015 0.4926 0.8466
vn 0.0284 0.4889 0.8719
vn 0.0225 0.9931 0.1151
vn -0.0128 0.9948 0.1009
vn -0.2168 0.87 0.4427
vn -0.0868 0.8654 0.4934
vn -0.0868 0.8654 0.4934
vn -0.2168 0.87 0.4427
vn -0.4179 0.4957 0.7614
vn -0.2015 0.4926 0.8466
vn -0.0128 0.9948 0.1009
vn -0.0432 0.996 0.0778
vn -0.3294 0.8733 0.359
vn -0.2168 0.87 0.4427
vn -0.2168 0.87 0.4427
vn -0.3294 0.8733 0.359
vn -0.6049 0.4978 0.6215
vn -0.4179 0.4957 0.7614
vn -0.0432 0.996 0.0778
vn -0.0667 0.9966 0.0475
vn -0.416 0.8749 0.2479
vn -0.3294 0.8733 0.359
vn 0.0608 0.9978 -0.026
vn -0.0667 0.9966 0.0475
vn -0.0432 0.996 0.0778
vn 0.0608 0.9978 -0.026
vn -0.0432 0.996 0.0778
vn -0.0128 0.9948 0.1009
vn 0.0608 0.9978 -0.026
vn -0.0809 0.9947 -0.0637
vn -0.0862 0.9959 -0.0259
vn 0.0608 0.9978 -0.026
vn -0.0862 0.9959 -0.0259
vn -0.0813 0.9966 0.0121
vn 0.0608 0.9978 -0.026
vn -0.0813 0.9966 0.0121
vn -0.0667 0.9966 0.0475
vn 0.0608 0.9978 -0.026
vn -0.0128 0.9948 0.1009
vn 0.0225 0.9931 0.1151
vn 0.0608 0.9978 -0.026
vn 0.0225 0.9931 0.1151
vn 0.0602 0.991 0.1195
vn 0.0608 0.9978 -0.026
vn 0.0602 0.991 0.1195
vn 0.0975 0.9887 0.114
vn 0.0608 0.9978 -0.026
vn 0.0975 0.9887 0.114
vn 0.1319 0.9863 0.0991
vn 0.0608 0.9978 -0.026
vn 0.1319 0.9863 0.0991
vn 0.1612 0.984 0.0759
vn 0.0608 0.9978 -0.026
vn 0.1612 0.984 0.0759
vn 0.1836 0.9819 0.046
vn 0.0608 0.9978 -0.026
vn 0.1836 0.9819 0.046
vn 0.1974 0.9803 0.0114
vn 0.0608 0.9978 -0.026
vn 0.1974 0.9803 0.0114
vn 0.202 0.9791 -0.0254
vn 0.0608 0.9978 -0.026
vn 0.202 0.9791 -0.0254
vn 0.197 0.9784 -0.0623
vn 0.0608 0.9978 -0.026
vn 0.197 0.9784 -0.0623
vn 0.1827 0.9784 -0.0966
vn 0.0608 0.9978 -0.026
vn 0.1827 0.9784 -0.0966
vn 0.1602 0.979 -0.1262
vn 0.0608 0.9978 -0.026
vn 0.1602 0.979 -0.1262
vn 0.1309 0.9801 -0.1491
vn 0.0608 0.9978 -0.026
vn 0.1309 0.9801 -0.1491
vn 0.0967 0.9818 -0.1637
vn 0.0608 0.9978 -0.026
vn 0.0967 0.9818 -0.1637
vn 0.0597 0.9838 -0.1691
vn 0.0608 0.9978 -0.026
vn 0.0597 0.9838 -0.1691
vn 0.0226 0.9861 -0.1647
vn 0.0608 0.9978 -0.026
vn 0.0226 0.9861 -0.1647
vn -0.0123 0.9885 -0.1509
vn 0.0608 0.9978 -0.026
vn -0.0123 0.9885 -0.1509
vn -0.0425 0.9908 -0.1284
vn 0.0608 0.9978 -0.026
vn -0.0425 0.9908 -0.1284
vn -0.066 0.9929 -0.0987
vn 0.0608 0.9978 -0.026
vn -0.066 0.9929 -0.0987
vn -0.0809 0.9947 -0.0637
vt 0.722327 0.44899
vt 0.722327 0.460714
vt 0.764816 0.460714
vt 0.764606 0.44899
vt 0.722327 0.437266
vt 0.722327 0.44899
vt 0.764606 0.44899
vt 0.764208 0.437266
vt 0.850026 0.444164
vt 0.858122 0.452431
vt 0.862468 0.449422
vt 0.8534 0.440094
vt 0.840061 0.438225
vt 0.850026 0.444164
vt 0.8534 0.440094
vt 0.842208 0.433373
vt 0.858122 0.452431
vt 0.863835 0.462484
vt 0.868837 0.46074
vt 0.862468 0.449422
vt 0.722327 0.425542
vt 0.722327 0.437266
vt 0.764208 0.437266
vt 0.763651 0.425542
vt 0.863835 0.462484
vt 0.866793 0.473668
vt 0.872097 0.4733
vt 0.868837 0.46074
vt 0.722327 0.413818
vt 0.722327 0.425542
vt 0.763651 0.425542
vt 0.762972 0.413818
vt 0.722327 0.402095
vt 0.722327 0.413818
vt 0.762972 0.413818
vt 0.762219 0.402094
vt 0.722327 0.39037
vt 0.722327 0.402095
vt 0.762219 0.402094
vt 0.761442 0.39037
vt 0.866793 0.473668
vt 0.866797 0.485249
vt 0.872042 0.486272
vt 0.872097 0.4733
vt 0.866797 0.485249
vt 0.863841 0.496465
vt 0.868679 0.498803
vt 0.872042 0.486272
vt 0.863841 0.496465
vt 0.858104 0.506576
vt 0.86223 0.510078
vt 0.868679 0.498803
vt 0.722327 0.378647
vt 0.722327 0.39037
vt 0.761442 0.39037
vt 0.760694 0.378647
vt 0.858104 0.506576
vt 0.84994 0.514911
vt 0.853098 0.519366
vt 0.86223 0.510078
vt 0.722327 0.366923
vt 0.722327 0.378647
vt 0.760694 0.378647
vt 0.760026 0.366923
vt 0.722327 0.355199
vt 0.722327 0.366923
vt 0.760026 0.366923
vt 0.759484 0.355199
vt 0.722327 0.343475
vt 0.722327 0.355199
vt 0.759484 0.355199
vt 0.759105 0.343475
vt 0.84994 0.514911
vt 0.839848 0.520895
vt 0.841825 0.526054
vt 0.853098 0.519366
vt 0.839848 0.520895
vt 0.828451 0.524044
vt 0.829047 0.529631
vt 0.841825 0.526054
vt 0.828451 0.524044
vt 0.816632 0.523901
vt 0.815786 0.529378
vt 0.829047 0.529631
vt 0.722327 0.331751
vt 0.722327 0.343475
vt 0.759105 0.343475
vt 0.758913 0.331751
vt 0.816632 0.523901
vt 0.805348 0.520699
vt 0.803206 0.525757
vt 0.815786 0.529378
vt 0.722327 0.601402
vt 0.722327 0.613126
vt 0.758913 0.613126
vt 0.758922 0.601402
vt 0.722327 0.589678
vt 0.722327 0.601402
vt 0.758922 0.601402
vt 0.759131 0.589678
vt 0.722327 0.577954
vt 0.722327 0.589678
vt 0.759131 0.589678
vt 0.759527 0.577954
vt 0.805348 0.520699
vt 0.795336 0.514717
vt 0.792054 0.519079
vt 0.803206 0.525757
vt 0.795336 0.514717
vt 0.787225 0.506388
vt 0.783005 0.509807
vt 0.792054 0.519079
vt 0.787225 0.506388
vt 0.781531 0.496274
vt 0.776625 0.498548
vt 0.783005 0.509807
vt 0.722327 0.56623
vt 0.722327 0.577954
vt 0.759527 0.577954
vt 0.760081 0.56623
vt 0.781531 0.496274
vt 0.77862 0.485047
vt 0.773326 0.486032
vt 0.776625 0.498548
vt 0.722327 0.554506
vt 0.722327 0.56623
vt 0.760081 0.56623
vt 0.760758 0.554506
vt 0.722327 0.542782
vt 0.722327 0.554506
vt 0.760758 0.554506
vt 0.761511 0.542782
vt 0.722327 0.531058
vt 0.722327 0.542782
vt 0.761511 0.542782
vt 0.762288 0.531058
vt 0.77862 0.485047
vt 0.778678 0.473452
vt 0.773326 0.473077
vt 0.773326 0.486032
vt 0.778678 0.473452
vt 0.781696 0.462252
vt 0.776633 0.46053
vt 0.773326 0.473077
vt 0.781696 0.462252
vt 0.78748 0.452186
vt 0.783044 0.449214
vt 0.776633 0.46053
vt 0.722327 0.519334
vt 0.722327 0.531058
vt 0.762288 0.531058
vt 0.763037 0.519334
vt 0.78748 0.452186
vt 0.795661 0.443913
vt 0.792163 0.43987
vt 0.783044 0.449214
vt 0.722327 0.50761
vt 0.722327 0.519334
vt 0.763037 0.519334
vt 0.763706 0.50761
vt 0.722327 0.495886
vt 0.722327 0.50761
vt 0.763706 0.50761
vt 0.764251 0.495887
vt 0.722327 0.484162
vt 0.722327 0.495886
vt 0.764251 0.495887
vt 0.764632 0.484162
vt 0.795661 0.443913
vt 0.805735 0.437991
vt 0.80345 0.433126
vt 0.792163 0.43987
vt 0.805735 0.437991
vt 0.817084 0.43488
vt 0.816267 0.429501
vt 0.80345 0.433126
vt 0.817084 0.43488
vt 0.828845 0.435023
vt 0.829582 0.429721
vt 0.816267 0.429501
vt 0.722327 0.472439
vt 0.722327 0.484162
vt 0.764632 0.484162
vt 0.764825 0.472439
vt 0.828845 0.435023
vt 0.840061 0.438225
vt 0.842208 0.433373
vt 0.829582 0.429721
vt 0.722327 0.460714
vt 0.722327 0.472439
vt 0.764825 0.472439
vt 0.764816 0.460714
vt 0.817793 0.439789
vt 0.828174 0.439881
vt 0.828845 0.435023
vt 0.817084 0.43488
vt 0.828174 0.439881
vt 0.838113 0.442685
vt 0.840061 0.438225
vt 0.828845 0.435023
vt 0.838113 0.442685
vt 0.84696 0.44793
vt 0.850026 0.444164
vt 0.840061 0.438225
vt 0.827504 0.444664
vt 0.836216 0.44709
vt 0.838113 0.442685
vt 0.828174 0.439881
vt 0.836216 0.44709
vt 0.843985 0.451676
vt 0.84696 0.44793
vt 0.838113 0.442685
vt 0.843985 0.451676
vt 0.850307 0.458098
vt 0.854154 0.455253
vt 0.84696 0.44793
vt 0.84696 0.44793
vt 0.854154 0.455253
vt 0.858122 0.452431
vt 0.850026 0.444164
vt 0.850307 0.458098
vt 0.854772 0.465929
vt 0.859236 0.464171
vt 0.854154 0.455253
vt 0.854154 0.455253
vt 0.859236 0.464171
vt 0.863835 0.462484
vt 0.858122 0.452431
vt 0.854772 0.465929
vt 0.857085 0.47465
vt 0.861873 0.474099
vt 0.859236 0.464171
vt 0.859236 0.464171
vt 0.861873 0.474099
vt 0.866793 0.473668
vt 0.863835 0.462484
vt 0.857085 0.47465
vt 0.857089 0.483686
vt 0.861885 0.484388
vt 0.861873 0.474099
vt 0.861873 0.474099
vt 0.861885 0.484388
vt 0.866797 0.485249
vt 0.866793 0.473668
vt 0.857089 0.483686
vt 0.854773 0.492438
vt 0.85926 0.494356
vt 0.861885 0.484388
vt 0.861885 0.484388
vt 0.85926 0.494356
vt 0.863841 0.496465
vt 0.866797 0.485249
vt 0.854773 0.492438
vt 0.850281 0.500317
vt 0.854159 0.503341
vt 0.85926 0.494356
vt 0.85926 0.494356
vt 0.854159 0.503341
vt 0.858104 0.506576
vt 0.863841 0.496465
vt 0.850281 0.500317
vt 0.843896 0.506786
vt 0.846897 0.510736
vt 0.854159 0.503341
vt 0.854159 0.503341
vt 0.846897 0.510736
vt 0.84994 0.514911
vt 0.858104 0.506576
vt 0.843896 0.506786
vt 0.836035 0.511386
vt 0.837932 0.516021
vt 0.846897 0.510736
vt 0.846897 0.510736
vt 0.837932 0.516021
vt 0.839848 0.520895
vt 0.84994 0.514911
vt 0.836035 0.511386
vt 0.827228 0.513765
vt 0.827848 0.518773
vt 0.837932 0.516021
vt 0.837932 0.516021
vt 0.827848 0.518773
vt 0.828451 0.524044
vt 0.839848 0.520895
vt 0.827228 0.513765
vt 0.818114 0.513716
vt 0.817405 0.518689
vt 0.827848 0.518773
vt 0.827848 0.518773
vt 0.817405 0.518689
vt 0.816632 0.523901
vt 0.828451 0.524044
vt 0.818114 0.513716
vt 0.809349 0.511283
vt 0.807392 0.515882
vt 0.817405 0.518689
vt 0.817405 0.518689
vt 0.807392 0.515882
vt 0.805348 0.520699
vt 0.816632 0.523901
vt 0.809349 0.511283
vt 0.801536 0.506659
vt 0.798487 0.510585
vt 0.807392 0.515882
vt 0.807392 0.515882
vt 0.798487 0.510585
vt 0.795336 0.514717
vt 0.805348 0.520699
vt 0.801536 0.506659
vt 0.795197 0.500181
vt 0.79127 0.503187
vt 0.798487 0.510585
vt 0.798487 0.510585
vt 0.79127 0.503187
vt 0.787225 0.506388
vt 0.795336 0.514717
vt 0.795197 0.500181
vt 0.790746 0.492294
vt 0.786208 0.494194
vt 0.79127 0.503187
vt 0.79127 0.503187
vt 0.786208 0.494194
vt 0.781531 0.496274
vt 0.787225 0.506388
vt 0.790746 0.492294
vt 0.788474 0.483531
vt 0.783626 0.484211
vt 0.786208 0.494194
vt 0.786208 0.494194
vt 0.783626 0.484211
vt 0.77862 0.485047
vt 0.781531 0.496274
vt 0.788474 0.483531
vt 0.788526 0.474479
vt 0.783689 0.473903
vt 0.783626 0.484211
vt 0.783626 0.484211
vt 0.783689 0.473903
vt 0.778678 0.473452
vt 0.77862 0.485047
vt 0.788526 0.474479
vt 0.790898 0.465743
vt 0.786388 0.463955
vt 0.783689 0.473903
vt 0.783689 0.473903
vt 0.786388 0.463955
vt 0.781696 0.462252
vt 0.778678 0.473452
vt 0.790898 0.465743
vt 0.795431 0.457905
vt 0.791544 0.455025
vt 0.786388 0.463955
vt 0.786388 0.463955
vt 0.791544 0.455025
vt 0.78748 0.452186
vt 0.781696 0.462252
vt 0.795431 0.457905
vt 0.80183 0.451492
vt 0.798825 0.447704
vt 0.791544 0.455025
vt 0.791544 0.455025
vt 0.798825 0.447704
vt 0.795661 0.443913
vt 0.78748 0.452186
vt 0.80183 0.451492
vt 0.809674 0.446946
vt 0.807767 0.442493
vt 0.798825 0.447704
vt 0.798825 0.447704
vt 0.807767 0.442493
vt 0.805735 0.437991
vt 0.795661 0.443913
vt 0.809674 0.446946
vt 0.818439 0.444604
vt 0.817793 0.439789
vt 0.807767 0.442493
vt 0.807767 0.442493
vt 0.817793 0.439789
vt 0.817084 0.43488
vt 0.805735 0.437991
vt 0.818439 0.444604
vt 0.827504 0.444664
vt 0.828174 0.439881
vt 0.817793 0.439789
vt 0.822808 0.479138
vt 0.827504 0.444664
vt 0.818439 0.444604
vt 0.822808 0.479138
vt 0.818439 0.444604
vt 0.809674 0.446946
vt 0.822808 0.479138
vt 0.850307 0.458098
vt 0.843985 0.451676
vt 0.822808 0.479138
vt 0.843985 0.451676
vt 0.836216 0.44709
vt 0.822808 0.479138
vt 0.836216 0.44709
vt 0.827504 0.444664
vt 0.822808 0.479138
vt 0.809674 0.446946
vt 0.80183 0.451492
vt 0.822808 0.479138
vt 0.80183 0.451492
vt 0.795431 0.457905
vt 0.822808 0.479138
vt 0.795431 0.457905
vt 0.790898 0.465743
vt 0.822808 0.479138
vt 0.790898 0.465743
vt 0.788526 0.474479
vt 0.822808 0.479138
vt 0.788526 0.474479
vt 0.788474 0.483531
vt 0.822808 0.479138
vt 0.788474 0.483531
vt 0.790746 0.492294
vt 0.822808 0.479138
vt 0.790746 0.492294
vt 0.795197 0.500181
vt 0.822808 0.479138
vt 0.795197 0.500181
vt 0.801536 0.506659
vt 0.822808 0.479138
vt 0.801536 0.506659
vt 0.809349 0.511283
vt 0.822808 0.479138
vt 0.809349 0.511283
vt 0.818114 0.513716
vt 0.822808 0.479138
vt 0.818114 0.513716
vt 0.827228 0.513765
vt 0.822808 0.479138
vt 0.827228 0.513765
vt 0.836035 0.511386
vt 0.822808 0.479138
vt 0.836035 0.511386
vt 0.843896 0.506786
vt 0.822808 0.479138
vt 0.843896 0.506786
vt 0.850281 0.500317
vt 0.822808 0.479138
vt 0.850281 0.500317
vt 0.854773 0.492438
vt 0.822808 0.479138
vt 0.854773 0.492438
vt 0.857089 0.483686
vt 0.822808 0.479138
vt 0.857089 0.483686
vt 0.857085 0.47465
vt 0.822808 0.479138
vt 0.857085 0.47465
vt 0.854772 0.465929
vt 0.822808 0.479138
vt 0.854772 0.465929
vt 0.850307 0.458098
s off
f 1/1/1 2/2/2 3/3/3
f 1/1/1 3/3/3 4/4/4
f 5/5/5 6/6/6 7/7/7
f 5/5/5 7/7/7 8/8/8
f 9/9/9 10/10/10 11/11/11
f 9/9/9 11/11/11 12/12/12
f 13/13/13 14/14/14 15/15/15
f 13/13/13 15/15/15 16/16/16
f 17/17/17 18/18/18 19/19/19
f 17/17/17 19/19/19 20/20/20
f 21/21/21 22/22/22 23/23/23
f 21/21/21 23/23/23 24/24/24
f 25/25/25 26/26/26 27/27/27
f 25/25/25 27/27/27 28/28/28
f 29/29/29 30/30/30 31/31/31
f 29/29/29 31/31/31 32/32/32
f 33/33/33 34/34/34 35/35/35
f 33/33/33 35/35/35 36/36/36
f 37/37/37 38/38/38 39/39/39
f 37/37/37 39/39/39 40/40/40
f 41/41/41 42/42/42 43/43/43
f 41/41/41 43/43/43 44/44/44
f 45/45/45 46/46/46 47/47/47
f 45/45/45 47/47/47 48/48/48
f 49/49/49 50/50/50 51/51/51
f 49/49/49 51/51/51 52/52/52
f 53/53/53 54/54/54 55/55/55
f 53/53/53 55/55/55 56/56/56
f 57/57/57 58/58/58 59/59/59
f 57/57/57 59/59/59 60/60/60
f 61/61/61 62/62/62 63/63/63
f 61/61/61 63/63/63 64/64/64
f 65/65/65 66/66/66 67/67/67
f 65/65/65 67/67/67 68/68/68
f 69/69/69 70/70/70 71/71/71
f 69/69/69 71/71/71 72/72/72
f 73/73/73 74/74/74 75/75/75
f 73/73/73 75/75/75 76/76/76
f 77/77/77 78/78/78 79/79/79
f 77/77/77 79/79/79 80/80/80
f 81/81/81 82/82/82 83/83/83
f 81/81/81 83/83/83 84/84/84
f 85/85/85 86/86/86 87/87/87
f 85/85/85 87/87/87 88/88/88
f 89/89/89 90/90/90 91/91/91
f 89/89/89 91/91/91 92/92/92
f 93/93/93 94/94/94 95/95/95
f 93/93/93 95/95/95 96/96/96
f 97/97/97 98/98/98 99/99/99
f 97/97/97 99/99/99 100/100/100
f 101/101/101 102/102/102 103/103/103
f 101/101/101 103/103/103 104/104/104
f 105/105/105 106/106/106 107/107/107
f 105/105/105 107/107/107 108/108/108
f 109/109/109 110/110/110 111/111/111
f 109/109/109 111/111/111 112/112/112
f 113/113/113 114/114/114 115/115/115
f 113/113/113 115/115/115 116/116/116
f 117/117/117 118/118/118 119/119/119
f 117/117/117 119/119/119 120/120/120
f 121/121/121 122/122/122 123/123/123
f 121/121/121 123/123/123 124/124/124
f 125/125/125 126/126/126 127/127/127
f 125/125/125 127/127/127 128/128/128
f 129/129/129 130/130/130 131/131/131
f 129/129/129 131/131/131 132/132/132
f 133/133/133 134/134/134 135/135/135
f 133/133/133 135/135/135 136/136/136
f 137/137/137 138/138/138 139/139/139
f 137/137/137 139/139/139 140/140/140
f 141/141/141 142/142/142 143/143/143
f 141/141/141 143/143/143 144/144/144
f 145/145/145 146/146/146 147/147/147
f 145/145/145 147/147/147 148/148/148
f 149/149/149 150/150/150 151/151/151
f 149/149/149 151/151/151 152/152/152
f 153/153/153 154/154/154 155/155/155
f 153/153/153 155/155/155 156/156/156
f 157/157/157 158/158/158 159/159/159
f 157/157/157 159/159/159 160/160/160
f 161/161/161 162/162/162 163/163/163
f 161/161/161 163/163/163 164/164/164
f 165/165/165 166/166/166 167/167/167
f 165/165/165 167/167/167 168/168/168
f 169/169/169 170/170/170 171/171/171
f 169/169/169 171/171/171 172/172/172
f 173/173/173 174/174/174 175/175/175
f 173/173/173 175/175/175 176/176/176
f 177/177/177 178/178/178 179/179/179
f 177/177/177 179/179/179 180/180/180
f 181/181/181 182/182/182 183/183/183
f 181/181/181 183/183/183 184/184/184
f 185/185/185 186/186/186 187/187/187
f 185/185/185 187/187/187 188/188/188
f 189/189/189 190/190/190 191/191/191
f 189/189/189 191/191/191 192/192/192
f 193/193/193 194/194/194 195/195/195
f 193/193/193 195/195/195 196/196/196
f 197/197/197 198/198/198 199/199/199
f 197/197/197 199/199/199 200/200/200
f 201/201/201 202/202/202 203/203/203
f 201/201/201 203/203/203 204/204/204
f 205/205/205 206/206/206 207/207/207
f 205/205/205 207/207/207 208/208/208
f 209/209/209 210/210/210 211/211/211
f 209/209/209 211/211/211 212/212/212
f 213/213/213 214/214/214 215/215/215
f 213/213/213 215/215/215 216/216/216
f 217/217/217 218/218/218 219/219/219
f 217/217/217 219/219/219 220/220/220
f 221/221/221 222/222/222 223/223/223
f 221/221/221 223/223/223 224/224/224
f 225/225/225 226/226/226 227/227/227
f 225/225/225 227/227/227 228/228/228
f 229/229/229 230/230/230 231/231/231
f 229/229/229 231/231/231 232/232/232
f 233/233/233 234/234/234 235/235/235
f 233/233/233 235/235/235 236/236/236
f 237/237/237 238/238/238 239/239/239
f 237/237/237 239/239/239 240/240/240
f 241/241/241 242/242/242 243/243/243
f 241/241/241 243/243/243 244/244/244
f 245/245/245 246/246/246 247/247/247
f 245/245/245 247/247/247 248/248/248
f 249/249/249 250/250/250 251/251/251
f 249/249/249 251/251/251 252/252/252
f 253/253/253 254/254/254 255/255/255
f 253/253/253 255/255/255 256/256/256
f 257/257/257 258/258/258 259/259/259
f 257/257/257 259/259/259 260/260/260
f 261/261/261 262/262/262 263/263/263
f 261/261/261 263/263/263 264/264/264
f 265/265/265 266/266/266 267/267/267
f 265/265/265 267/267/267 268/268/268
f 269/269/269 270/270/270 271/271/271
f 269/269/269 271/271/271 272/272/272
f 273/273/273 274/274/274 275/275/275
f 273/273/273 275/275/275 276/276/276
f 277/277/277 278/278/278 279/279/279
f 277/277/277 279/279/279 280/280/280
f 281/281/281 282/282/282 283/283/283
f 281/281/281 283/283/283 284/284/284
f 285/285/285 286/286/286 287/287/287
f 285/285/285 287/287/287 288/288/288
f 289/289/289 290/290/290 291/291/291
f 289/289/289 291/291/291 292/292/292
f 293/293/293 294/294/294 295/295/295
f 293/293/293 295/295/295 296/296/296
f 297/297/297 298/298/298 299/299/299
f 297/297/297 299/299/299 300/300/300
f 301/301/301 302/302/302 303/303/303
f 301/301/301 303/303/303 304/304/304
f 305/305/305 306/306/306 307/307/307
f 305/305/305 307/307/307 308/308/308
f 309/309/309 310/310/310 311/311/311
f 309/309/309 311/311/311 312/312/312
f 313/313/313 314/314/314 315/315/315
f 313/313/313 315/315/315 316/316/316
f 317/317/317 318/318/318 319/319/319
f 317/317/317 319/319/319 320/320/320
f 321/321/321 322/322/322 323/323/323
f 321/321/321 323/323/323 324/324/324
f 325/325/325 326/326/326 327/327/327
f 325/325/325 327/327/327 328/328/328
f 329/329/329 330/330/330 331/331/331
f 329/329/329 331/331/331 332/332/332
f 333/333/333 334/334/334 335/335/335
f 333/333/333 335/335/335 336/336/336
f 337/337/337 338/338/338 339/339/339
f 337/337/337 339/339/339 340/340/340
f 341/341/341 342/342/342 343/343/343
f 341/341/341 343/343/343 344/344/344
f 345/345/345 346/346/346 347/347/347
f 345/345/345 347/347/347 348/348/348
f 349/349/349 350/350/350 351/351/351
f 349/349/349 351/351/351 352/352/352
f 353/353/353 354/354/354 355/355/355
f 353/353/353 355/355/355 356/356/356
f 357/357/357 358/358/358 359/359/359
f 357/357/357 359/359/359 360/360/360
f 361/361/361 362/362/362 363/363/363
f 361/361/361 363/363/363 364/364/364
f 365/365/365 366/366/366 367/367/367
f 365/365/365 367/367/367 368/368/368
f 369/369/369 370/370/370 371/371/371
f 369/369/369 371/371/371 372/372/372
f 373/373/373 374/374/374 375/375/375
f 373/373/373 375/375/375 376/376/376
f 377/377/377 378/378/378 379/379/379
f 377/377/377 379/379/379 380/380/380
f 381/381/381 382/382/382 383/383/383
f 381/381/381 383/383/383 384/384/384
f 385/385/385 386/386/386 387/387/387
f 388/388/388 389/389/389 390/390/390
f 391/391/391 392/392/392 393/393/393
f 394/394/394 395/395/395 396/396/396
f 397/397/397 398/398/398 399/399/399
f 400/400/400 401/401/401 402/402/402
f 403/403/403 404/404/404 405/405/405
f 406/406/406 407/407/407 408/408/408
f 409/409/409 410/410/410 411/411/411
f 412/412/412 413/413/413 414/414/414
f 415/415/415 416/416/416 417/417/417
f 418/418/418 419/419/419 420/420/420
f 421/421/421 422/422/422 423/423/423
f 424/424/424 425/425/425 426/426/426
f 427/427/427 428/428/428 429/429/429
f 430/430/430 431/431/431 432/432/432
f 433/433/433 434/434/434 435/435/435
f 436/436/436 437/437/437 438/438/438
f 439/439/439 440/440/440 441/441/441
f 442/442/442 443/443/443 444/444/444
f 445/445/445 446/446/446 447/447/447
f 448/448/448 449/449/449 450/450/450
f 451/451/451 452/452/452 453/453/453
f 454/454/454 455/455/455 456/456/456
