v 0.679896 0.16981 -0.080229
v 0.679896 0.235071 -0.080229
v 0.662871 0.236864 -0.08247
v 0.662871 0.16981 -0.08247
v 0.69692 0.16981 -0.08247
v 0.69692 0.233164 -0.08247
v 0.679896 0.235071 -0.080229
v 0.679896 0.16981 -0.080229
v 0.662871 0.236864 -0.08247
v 0.679896 0.235071 -0.080229
v 0.679891 0.242239 -0.082109
v 0.663349 0.243979 -0.084287
v 0.679896 0.235071 -0.080229
v 0.69692 0.233164 -0.08247
v 0.696434 0.240386 -0.084287
v 0.679891 0.242239 -0.082109
v 0.69692 0.233164 -0.08247
v 0.712784 0.231272 -0.089041
v 0.711849 0.238547 -0.090672
v 0.696434 0.240386 -0.084287
v 0.712784 0.16981 -0.089041
v 0.712784 0.231272 -0.089041
v 0.69692 0.233164 -0.08247
v 0.69692 0.16981 -0.08247
v 0.712784 0.231272 -0.089041
v 0.726406 0.229524 -0.099495
v 0.725086 0.236847 -0.100829
v 0.711849 0.238547 -0.090672
v 0.726406 0.16981 -0.099495
v 0.726406 0.229524 -0.099495
v 0.712784 0.231272 -0.089041
v 0.712784 0.16981 -0.089041
v 0.73686 0.16981 -0.113117
v 0.73686 0.228039 -0.113117
v 0.726406 0.229524 -0.099495
v 0.726406 0.16981 -0.099495
v 0.743431 0.16981 -0.128981
v 0.743431 0.226917 -0.128981
v 0.73686 0.228039 -0.113117
v 0.73686 0.16981 -0.113117
v 0.726406 0.229524 -0.099495
v 0.73686 0.228039 -0.113117
v 0.735241 0.235402 -0.114064
v 0.725086 0.236847 -0.100829
v 0.73686 0.228039 -0.113117
v 0.743431 0.226917 -0.128981
v 0.741625 0.23431 -0.129474
v 0.735241 0.235402 -0.114064
v 0.743431 0.226917 -0.128981
v 0.745672 0.226234 -0.146005
v 0.743802 0.233644 -0.14601
v 0.741625 0.23431 -0.129474
v 0.745672 0.16981 -0.146005
v 0.745672 0.226234 -0.146005
v 0.743431 0.226917 -0.128981
v 0.743431 0.16981 -0.128981
v 0.745672 0.226234 -0.146005
v 0.743431 0.226034 -0.16303
v 0.741625 0.23345 -0.162545
v 0.743802 0.233644 -0.14601
v 0.743431 0.16981 -0.16303
v 0.743431 0.226034 -0.16303
v 0.745672 0.226234 -0.146005
v 0.745672 0.16981 -0.146005
v 0.73686 0.16981 -0.178894
v 0.73686 0.226333 -0.178894
v 0.743431 0.226034 -0.16303
v 0.743431 0.16981 -0.16303
v 0.726406 0.16981 -0.192516
v 0.726406 0.227109 -0.192516
v 0.73686 0.226333 -0.178894
v 0.73686 0.16981 -0.178894
v 0.743431 0.226034 -0.16303
v 0.73686 0.226333 -0.178894
v 0.735242 0.233741 -0.177953
v 0.741625 0.23345 -0.162545
v 0.73686 0.226333 -0.178894
v 0.726406 0.227109 -0.192516
v 0.725089 0.234496 -0.191185
v 0.735242 0.233741 -0.177953
v 0.726406 0.227109 -0.192516
v 0.712784 0.228311 -0.202969
v 0.711855 0.235666 -0.20134
v 0.725089 0.234496 -0.191185
v 0.712784 0.16981 -0.202969
v 0.712784 0.228311 -0.202969
v 0.726406 0.227109 -0.192516
v 0.726406 0.16981 -0.192516
v 0.712784 0.228311 -0.202969
v 0.69692 0.229857 -0.20954
v 0.696442 0.237171 -0.207724
v 0.711855 0.235666 -0.20134
v 0.69692 0.16981 -0.20954
v 0.69692 0.229857 -0.20954
v 0.712784 0.228311 -0.202969
v 0.712784 0.16981 -0.202969
v 0.679896 0.16981 -0.211782
v 0.679896 0.231644 -0.211782
v 0.69692 0.229857 -0.20954
v 0.69692 0.16981 -0.20954
v 0.662871 0.16981 -0.20954
v 0.662871 0.233549 -0.20954
v 0.679896 0.231644 -0.211782
v 0.679896 0.16981 -0.211782
v 0.69692 0.229857 -0.20954
v 0.679896 0.231644 -0.211782
v 0.6799 0.238908 -0.209902
v 0.696442 0.237171 -0.207724
v 0.679896 0.231644 -0.211782
v 0.662871 0.233549 -0.20954
v 0.663358 0.24076 -0.207724
v 0.6799 0.238908 -0.209902
v 0.662871 0.233549 -0.20954
v 0.647007 0.235444 -0.202969
v 0.647942 0.242601 -0.201339
v 0.663358 0.24076 -0.207724
v 0.647007 0.16981 -0.202969
v 0.647007 0.235444 -0.202969
v 0.662871 0.233549 -0.20954
v 0.662871 0.16981 -0.20954
v 0.647007 0.235444 -0.202969
v 0.633385 0.237199 -0.192516
v 0.634706 0.244304 -0.191182
v 0.647942 0.242601 -0.201339
v 0.633385 0.16981 -0.192516
v 0.633385 0.237199 -0.192516
v 0.647007 0.235444 -0.202969
v 0.647007 0.16981 -0.202969
v 0.622932 0.16981 -0.178894
v 0.622932 0.238693 -0.178894
v 0.633385 0.237199 -0.192516
v 0.633385 0.16981 -0.192516
v 0.616361 0.16981 -0.16303
v 0.616361 0.239824 -0.163029
v 0.622932 0.238693 -0.178894
v 0.622932 0.16981 -0.178894
v 0.633385 0.237199 -0.192516
v 0.622932 0.238693 -0.178894
v 0.62455 0.245753 -0.177947
v 0.634706 0.244304 -0.191182
v 0.622932 0.238693 -0.178894
v 0.616361 0.239824 -0.163029
v 0.618167 0.24685 -0.162536
v 0.62455 0.245753 -0.177947
v 0.616361 0.239824 -0.163029
v 0.614119 0.240514 -0.146005
v 0.61599 0.247519 -0.146001
v 0.618167 0.24685 -0.162536
v 0.614119 0.16981 -0.146005
v 0.614119 0.240514 -0.146005
v 0.616361 0.239824 -0.163029
v 0.616361 0.16981 -0.16303
v 0.614119 0.240514 -0.146005
v 0.616361 0.240715 -0.128981
v 0.618167 0.247714 -0.129466
v 0.61599 0.247519 -0.146001
v 0.616361 0.16981 -0.128981
v 0.616361 0.240715 -0.128981
v 0.614119 0.240514 -0.146005
v 0.614119 0.16981 -0.146005
v 0.622932 0.16981 -0.113117
v 0.622932 0.240414 -0.113117
v 0.616361 0.240715 -0.128981
v 0.616361 0.16981 -0.128981
v 0.633385 0.16981 -0.099495
v 0.633385 0.239631 -0.099495
v 0.622932 0.240414 -0.113117
v 0.622932 0.16981 -0.113117
v 0.616361 0.240715 -0.128981
v 0.622932 0.240414 -0.113117
v 0.624549 0.247422 -0.114058
v 0.618167 0.247714 -0.129466
v 0.622932 0.240414 -0.113117
v 0.633385 0.239631 -0.099495
v 0.634702 0.246663 -0.100825
v 0.624549 0.247422 -0.114058
v 0.633385 0.239631 -0.099495
v 0.647007 0.238419 -0.089041
v 0.647936 0.245488 -0.090671
v 0.634702 0.246663 -0.100825
v 0.647007 0.16981 -0.089041
v 0.647007 0.238419 -0.089041
v 0.633385 0.239631 -0.099495
v 0.633385 0.16981 -0.099495
v 0.647007 0.238419 -0.089041
v 0.662871 0.236864 -0.08247
v 0.663349 0.243979 -0.084287
v 0.647936 0.245488 -0.090671
v 0.662871 0.16981 -0.08247
v 0.662871 0.236864 -0.08247
v 0.647007 0.238419 -0.089041
v 0.647007 0.16981 -0.089041
v 0.647936 0.245488 -0.090671
v 0.663349 0.243979 -0.084287
v 0.664653 0.24899 -0.089249
v 0.650472 0.250377 -0.095122
v 0.634702 0.246663 -0.100825
v 0.647936 0.245488 -0.090671
v 0.650472 0.250377 -0.095122
v 0.638301 0.251455 -0.104462
v 0.650472 0.250377 -0.095122
v 0.664653 0.24899 -0.089249
v 0.666435 0.250553 -0.096027
v 0.653937 0.251774 -0.101203
v 0.638301 0.251455 -0.104462
v 0.650472 0.250377 -0.095122
v 0.653937 0.251774 -0.101203
v 0.643218 0.252724 -0.109429
v 0.624549 0.247422 -0.114058
v 0.634702 0.246663 -0.100825
v 0.638301 0.251455 -0.104462
v 0.628967 0.252152 -0.116627
v 0.628967 0.252152 -0.116627
v 0.638301 0.251455 -0.104462
v 0.643218 0.252724 -0.109429
v 0.635002 0.253337 -0.120136
v 0.618167 0.247714 -0.129466
v 0.624549 0.247422 -0.114058
v 0.628967 0.252152 -0.116627
v 0.6231 0.25242 -0.130789
v 0.6231 0.25242 -0.130789
v 0.628967 0.252152 -0.116627
v 0.635002 0.253337 -0.120136
v 0.62984 0.253572 -0.132597
v 0.61599 0.247519 -0.146001
v 0.618167 0.247714 -0.129466
v 0.6231 0.25242 -0.130789
v 0.6211 0.252241 -0.145987
v 0.6211 0.252241 -0.145987
v 0.6231 0.25242 -0.130789
v 0.62984 0.253572 -0.132597
v 0.62808 0.253415 -0.145969
v 0.618167 0.24685 -0.162536
v 0.61599 0.247519 -0.146001
v 0.6211 0.252241 -0.145987
v 0.623101 0.251627 -0.161189
v 0.623101 0.251627 -0.161189
v 0.6211 0.252241 -0.145987
v 0.62808 0.253415 -0.145969
v 0.629841 0.252875 -0.159348
v 0.62455 0.245753 -0.177947
v 0.618167 0.24685 -0.162536
v 0.623101 0.251627 -0.161189
v 0.628971 0.25062 -0.175361
v 0.628971 0.25062 -0.175361
v 0.623101 0.251627 -0.161189
v 0.629841 0.252875 -0.159348
v 0.63501 0.251989 -0.171828
v 0.634706 0.244304 -0.191182
v 0.62455 0.245753 -0.177947
v 0.628971 0.25062 -0.175361
v 0.638314 0.249288 -0.187537
v 0.638314 0.249288 -0.187537
v 0.628971 0.25062 -0.175361
v 0.63501 0.251989 -0.171828
v 0.643243 0.250816 -0.182557
v 0.647942 0.242601 -0.201339
v 0.634706 0.244304 -0.191182
v 0.638314 0.249288 -0.187537
v 0.650496 0.247722 -0.196884
v 0.650496 0.247722 -0.196884
v 0.638314 0.249288 -0.187537
v 0.643243 0.250816 -0.182557
v 0.653984 0.249435 -0.190799
v 0.663358 0.24076 -0.207724
v 0.647942 0.242601 -0.201339
v 0.650496 0.247722 -0.196884
v 0.664686 0.246028 -0.202762
v 0.664686 0.246028 -0.202762
v 0.650496 0.247722 -0.196884
v 0.653984 0.249435 -0.190799
v 0.6665 0.247941 -0.195983
v 0.6799 0.238908 -0.209902
v 0.663358 0.24076 -0.207724
v 0.664686 0.246028 -0.202762
v 0.679914 0.244323 -0.204766
v 0.679914 0.244323 -0.204766
v 0.664686 0.246028 -0.202762
v 0.6665 0.247941 -0.195983
v 0.679932 0.246437 -0.197751
v 0.696442 0.237171 -0.207724
v 0.6799 0.238908 -0.209902
v 0.679914 0.244323 -0.204766
v 0.695138 0.242723 -0.202762
v 0.695138 0.242723 -0.202762
v 0.679914 0.244323 -0.204766
v 0.679932 0.246437 -0.197751
v 0.693356 0.245026 -0.195984
v 0.711855 0.235666 -0.20134
v 0.696442 0.237171 -0.207724
v 0.695138 0.242723 -0.202762
v 0.709319 0.241337 -0.196888
v 0.709319 0.241337 -0.196888
v 0.695138 0.242723 -0.202762
v 0.693356 0.245026 -0.195984
v 0.705854 0.243804 -0.190807
v 0.725089 0.234496 -0.191185
v 0.711855 0.235666 -0.20134
v 0.709319 0.241337 -0.196888
v 0.72149 0.24026 -0.187549
v 0.72149 0.24026 -0.187549
v 0.709319 0.241337 -0.196888
v 0.705854 0.243804 -0.190807
v 0.716573 0.242855 -0.182582
v 0.735242 0.233741 -0.177953
v 0.725089 0.234496 -0.191185
v 0.72149 0.24026 -0.187549
v 0.730824 0.239564 -0.175384
v 0.730824 0.239564 -0.175384
v 0.72149 0.24026 -0.187549
v 0.716573 0.242855 -0.182582
v 0.724789 0.242242 -0.171875
v 0.741625 0.23345 -0.162545
v 0.735242 0.233741 -0.177953
v 0.730824 0.239564 -0.175384
v 0.736691 0.239296 -0.161221
v 0.736691 0.239296 -0.161221
v 0.730824 0.239564 -0.175384
v 0.724789 0.242242 -0.171875
v 0.729951 0.242006 -0.159413
v 0.743802 0.233644 -0.14601
v 0.741625 0.23345 -0.162545
v 0.736691 0.239296 -0.161221
v 0.738692 0.239475 -0.146024
v 0.738692 0.239475 -0.146024
v 0.736691 0.239296 -0.161221
v 0.729951 0.242006 -0.159413
v 0.731711 0.242164 -0.146042
v 0.741625 0.23431 -0.129474
v 0.743802 0.233644 -0.14601
v 0.738692 0.239475 -0.146024
v 0.73669 0.240088 -0.130822
v 0.73669 0.240088 -0.130822
v 0.738692 0.239475 -0.146024
v 0.731711 0.242164 -0.146042
v 0.72995 0.242703 -0.132663
v 0.735241 0.235402 -0.114064
v 0.741625 0.23431 -0.129474
v 0.73669 0.240088 -0.130822
v 0.73082 0.241094 -0.11665
v 0.73082 0.241094 -0.11665
v 0.73669 0.240088 -0.130822
v 0.72995 0.242703 -0.132663
v 0.724781 0.24359 -0.120183
v 0.725086 0.236847 -0.100829
v 0.735241 0.235402 -0.114064
v 0.73082 0.241094 -0.11665
v 0.721477 0.242425 -0.104474
v 0.721477 0.242425 -0.104474
v 0.73082 0.241094 -0.11665
v 0.724781 0.24359 -0.120183
v 0.716548 0.244763 -0.109454
v 0.711849 0.238547 -0.090672
v 0.725086 0.236847 -0.100829
v 0.721477 0.242425 -0.104474
v 0.709295 0.24399 -0.095127
v 0.709295 0.24399 -0.095127
v 0.721477 0.242425 -0.104474
v 0.716548 0.244763 -0.109454
v 0.705807 0.246144 -0.101212
v 0.696434 0.240386 -0.084287
v 0.711849 0.238547 -0.090672
v 0.709295 0.24399 -0.095127
v 0.695106 0.245683 -0.089249
v 0.695106 0.245683 -0.089249
v 0.709295 0.24399 -0.095127
v 0.705807 0.246144 -0.101212
v 0.693291 0.247637 -0.096028
v 0.679891 0.242239 -0.082109
v 0.696434 0.240386 -0.084287
v 0.695106 0.245683 -0.089249
v 0.679878 0.247389 -0.087244
v 0.679878 0.247389 -0.087244
v 0.695106 0.245683 -0.089249
v 0.693291 0.247637 -0.096028
v 0.679859 0.249141 -0.094259
v 0.663349 0.243979 -0.084287
v 0.679891 0.242239 -0.082109
v 0.679878 0.247389 -0.087244
v 0.664653 0.24899 -0.089249
v 0.664653 0.24899 -0.089249
v 0.679878 0.247389 -0.087244
v 0.679859 0.249141 -0.094259
v 0.666435 0.250553 -0.096027
v 0.679896 0.247789 -0.146005
v 0.666435 0.250553 -0.096027
v 0.679859 0.249141 -0.094259
v 0.679896 0.247789 -0.146005
v 0.679859 0.249141 -0.094259
v 0.693291 0.247637 -0.096028
v 0.679896 0.247789 -0.146005
v 0.653937 0.251774 -0.101203
v 0.666435 0.250553 -0.096027
v 0.679896 0.247789 -0.146005
v 0.643218 0.252724 -0.109429
v 0.653937 0.251774 -0.101203
v 0.679896 0.247789 -0.146005
v 0.635002 0.253337 -0.120136
v 0.643218 0.252724 -0.109429
v 0.679896 0.247789 -0.146005
v 0.62984 0.253572 -0.132597
v 0.635002 0.253337 -0.120136
v 0.679896 0.247789 -0.146005
v 0.62808 0.253415 -0.145969
v 0.62984 0.253572 -0.132597
v 0.679896 0.247789 -0.146005
v 0.629841 0.252875 -0.159348
v 0.62808 0.253415 -0.145969
v 0.679896 0.247789 -0.146005
v 0.63501 0.251989 -0.171828
v 0.629841 0.252875 -0.159348
v 0.679896 0.247789 -0.146005
v 0.643243 0.250816 -0.182557
v 0.63501 0.251989 -0.171828
v 0.679896 0.247789 -0.146005
v 0.653984 0.249435 -0.190799
v 0.643243 0.250816 -0.182557
v 0.679896 0.247789 -0.146005
v 0.6665 0.247941 -0.195983
v 0.653984 0.249435 -0.190799
v 0.679896 0.247789 -0.146005
v 0.679932 0.246437 -0.197751
v 0.6665 0.247941 -0.195983
v 0.679896 0.247789 -0.146005
v 0.693356 0.245026 -0.195984
v 0.679932 0.246437 -0.197751
v 0.679896 0.247789 -0.146005
v 0.705854 0.243804 -0.190807
v 0.693356 0.245026 -0.195984
v 0.679896 0.247789 -0.146005
v 0.716573 0.242855 -0.182582
v 0.705854 0.243804 -0.190807
v 0.679896 0.247789 -0.146005
v 0.724789 0.242242 -0.171875
v 0.716573 0.242855 -0.182582
v 0.679896 0.247789 -0.146005
v 0.729951 0.242006 -0.159413
v 0.724789 0.242242 -0.171875
v 0.679896 0.247789 -0.146005
v 0.731711 0.242164 -0.146042
v 0.729951 0.242006 -0.159413
v 0.679896 0.247789 -0.146005
v 0.72995 0.242703 -0.132663
v 0.731711 0.242164 -0.146042
v 0.679896 0.247789 -0.146005
v 0.724781 0.24359 -0.120183
v 0.72995 0.242703 -0.132663
v 0.679896 0.247789 -0.146005
v 0.716548 0.244763 -0.109454
v 0.724781 0.24359 -0.120183
v 0.679896 0.247789 -0.146005
v 0.705807 0.246144 -0.101212
v 0.716548 0.244763 -0.109454
v 0.679896 0.247789 -0.146005
v 0.693291 0.247637 -0.096028
v 0.705807 0.246144 -0.101212
vn -0 -0 1
vn 0.0133 0.1268 0.9918
vn -0.2449 0.1279 0.9611
vn -0.2588 -0 0.9659
vn 0.2588 -0 0.9659
vn 0.2698 0.1256 0.9547
vn 0.0133 0.1268 0.9918
vn -0 -0 1
vn -0.2449 0.1279 0.9611
vn 0.0133 0.1268 0.9918
vn 0.0504 0.4875 0.8717
vn -0.1801 0.4943 0.8505
vn 0.0133 0.1268 0.9918
vn 0.2698 0.1256 0.9547
vn 0.2759 0.4804 0.8325
vn 0.0504 0.4875 0.8717
vn 0.2698 0.1256 0.9547
vn 0.5071 0.1244 0.8528
vn 0.4815 0.4735 0.7376
vn 0.2759 0.4804 0.8325
vn 0.5 -0 0.866
vn 0.5071 0.1244 0.8528
vn 0.2698 0.1256 0.9547
vn 0.2588 -0 0.9659
vn 0.5071 0.1244 0.8528
vn 0.7096 0.1232 0.6938
vn 0.6544 0.4671 0.5947
vn 0.4815 0.4735 0.7376
vn 0.7071 -0 0.7071
vn 0.7096 0.1232 0.6938
vn 0.5071 0.1244 0.8528
vn 0.5 -0 0.866
vn 0.866 -0 0.5
vn 0.8639 0.1222 0.4885
vn 0.7096 0.1232 0.6938
vn 0.7071 -0 0.7071
vn 0.9659 -0 0.2588
vn 0.9603 0.1215 0.251
vn 0.8639 0.1222 0.4885
vn 0.866 -0 0.5
vn 0.7096 0.1232 0.6938
vn 0.8639 0.1222 0.4885
vn 0.7845 0.4617 0.414
vn 0.6544 0.4671 0.5947
vn 0.8639 0.1222 0.4885
vn 0.9603 0.1215 0.251
vn 0.8645 0.4577 0.2077
vn 0.7845 0.4617 0.414
vn 0.9603 0.1215 0.251
vn 0.9927 0.121 -0.003
vn 0.8903 0.4553 -0.0113
vn 0.8645 0.4577 0.2077
vn 1 -0 -0
vn 0.9927 0.121 -0.003
vn 0.9603 0.1215 0.251
vn 0.9659 -0 0.2588
vn 0.9927 0.121 -0.003
vn 0.9589 0.1209 -0.2566
vn 0.8607 0.4546 -0.2293
vn 0.8903 0.4553 -0.0113
vn 0.9659 -0 -0.2588
vn 0.9589 0.1209 -0.2566
vn 0.9927 0.121 -0.003
vn 1 -0 -0
vn 0.866 -0 -0.5
vn 0.8614 0.1211 -0.4932
vn 0.9589 0.1209 -0.2566
vn 0.9659 -0 -0.2588
vn 0.7071 -0 -0.7071
vn 0.7066 0.1216 -0.6971
vn 0.8614 0.1211 -0.4932
vn 0.866 -0 -0.5
vn 0.9589 0.1209 -0.2566
vn 0.8614 0.1211 -0.4932
vn 0.7776 0.4557 -0.4332
vn 0.8607 0.4546 -0.2293
vn 0.8614 0.1211 -0.4932
vn 0.7066 0.1216 -0.6971
vn 0.6461 0.4584 -0.6102
vn 0.7776 0.4557 -0.4332
vn 0.7066 0.1216 -0.6971
vn 0.5044 0.1224 -0.8548
vn 0.4737 0.4627 -0.7493
vn 0.6461 0.4584 -0.6102
vn 0.5 -0 -0.866
vn 0.5044 0.1224 -0.8548
vn 0.7066 0.1216 -0.6971
vn 0.7071 -0 -0.7071
vn 0.5044 0.1224 -0.8548
vn 0.268 0.1235 -0.9555
vn 0.2706 0.4683 -0.8411
vn 0.4737 0.4627 -0.7493
vn 0.2588 -0 -0.9659
vn 0.268 0.1235 -0.9555
vn 0.5044 0.1224 -0.8548
vn 0.5 -0 -0.866
vn -0 -0 -1
vn 0.013 0.1247 -0.9921
vn 0.268 0.1235 -0.9555
vn 0.2588 -0 -0.9659
vn -0.2588 -0 -0.9659
vn -0.2437 0.1258 -0.9617
vn 0.013 0.1247 -0.9921
vn -0 -0 -1
vn 0.268 0.1235 -0.9555
vn 0.013 0.1247 -0.9921
vn 0.049 0.4748 -0.8787
vn 0.2706 0.4683 -0.8411
vn 0.013 0.1247 -0.9921
vn -0.2437 0.1258 -0.9617
vn -0.177 0.4818 -0.8582
vn 0.049 0.4748 -0.8787
vn -0.2437 0.1258 -0.9617
vn -0.4845 0.127 -0.8655
vn -0.3923 0.4889 -0.7792
vn -0.177 0.4818 -0.8582
vn -0.5 -0 -0.866
vn -0.4845 0.127 -0.8655
vn -0.2437 0.1258 -0.9617
vn -0.2588 -0 -0.9659
vn -0.4845 0.127 -0.8655
vn -0.6929 0.128 -0.7096
vn -0.5816 0.4955 -0.6451
vn -0.3923 0.4889 -0.7792
vn -0.7071 -0 -0.7071
vn -0.6929 0.128 -0.7096
vn -0.4845 0.127 -0.8655
vn -0.5 -0 -0.866
vn -0.866 -0 -0.5
vn -0.8539 0.1289 -0.5042
vn -0.6929 0.128 -0.7096
vn -0.7071 -0 -0.7071
vn -0.9659 -0 -0.2588
vn -0.956 0.1295 -0.2632
vn -0.8539 0.1289 -0.5042
vn -0.866 -0 -0.5
vn -0.6929 0.128 -0.7096
vn -0.8539 0.1289 -0.5042
vn -0.7303 0.5013 -0.464
vn -0.5816 0.4955 -0.6451
vn -0.8539 0.1289 -0.5042
vn -0.956 0.1295 -0.2632
vn -0.8263 0.5057 -0.248
vn -0.7303 0.5013 -0.464
vn -0.956 0.1295 -0.2632
vn -0.9915 0.1299 -0.0033
vn -0.861 0.5084 -0.0127
vn -0.8263 0.5057 -0.248
vn -1 -0 -0
vn -0.9915 0.1299 -0.0033
vn -0.956 0.1295 -0.2632
vn -0.9659 -0 -0.2588
vn -0.9915 0.1299 -0.0033
vn -0.9576 0.13 0.257
vn -0.831 0.5092 0.2241
vn -0.861 0.5084 -0.0127
vn -0.9659 -0 0.2588
vn -0.9576 0.13 0.257
vn -0.9915 0.1299 -0.0033
vn -1 -0 -0
vn -0.866 -0 0.5
vn -0.8567 0.1298 0.4993
vn -0.9576 0.13 0.257
vn -0.9659 -0 0.2588
vn -0.7071 -0 0.7071
vn -0.6959 0.1294 0.7064
vn -0.8567 0.1298 0.4993
vn -0.866 -0 0.5
vn -0.9576 0.13 0.257
vn -0.8567 0.1298 0.4993
vn -0.7382 0.508 0.4439
vn -0.831 0.5092 0.2241
vn -0.8567 0.1298 0.4993
vn -0.6959 0.1294 0.7064
vn -0.5902 0.5049 0.6299
vn -0.7382 0.508 0.4439
vn -0.6959 0.1294 0.7064
vn -0.487 0.1287 0.8639
vn -0.3991 0.5002 0.7685
vn -0.5902 0.5049 0.6299
vn -0.5 -0 0.866
vn -0.487 0.1287 0.8639
vn -0.6959 0.1294 0.7064
vn -0.7071 -0 0.7071
vn -0.487 0.1287 0.8639
vn -0.2449 0.1279 0.9611
vn -0.1801 0.4943 0.8505
vn -0.3991 0.5002 0.7685
vn -0.2588 -0 0.9659
vn -0.2449 0.1279 0.9611
vn -0.487 0.1287 0.8639
vn -0.5 -0 0.866
vn -0.3991 0.5002 0.7685
vn -0.1801 0.4943 0.8505
vn -0.0473 0.867 0.496
vn -0.1789 0.8761 0.4478
vn -0.5902 0.5049 0.6299
vn -0.3991 0.5002 0.7685
vn -0.1789 0.8761 0.4478
vn -0.2943 0.8832 0.365
vn -0.1789 0.8761 0.4478
vn -0.0473 0.867 0.496
vn 0.0694 0.9909 0.1153
vn 0.034 0.9943 0.1015
vn -0.2943 0.8832 0.365
vn -0.1789 0.8761 0.4478
vn 0.034 0.9943 0.1015
vn 0.0032 0.9969 0.0787
vn -0.7382 0.508 0.4439
vn -0.5902 0.5049 0.6299
vn -0.2943 0.8832 0.365
vn -0.384 0.888 0.2532
vn -0.384 0.888 0.2532
vn -0.2943 0.8832 0.365
vn 0.0032 0.9969 0.0787
vn -0.0206 0.9986 0.0483
vn -0.831 0.5092 0.2241
vn -0.7382 0.508 0.4439
vn -0.384 0.888 0.2532
vn -0.4402 0.8898 0.1206
vn -0.4402 0.8898 0.1206
vn -0.384 0.888 0.2532
vn -0.0206 0.9986 0.0483
vn -0.0356 0.9993 0.0125
vn -0.861 0.5084 -0.0127
vn -0.831 0.5092 0.2241
vn -0.4402 0.8898 0.1206
vn -0.4582 0.8886 -0.0225
vn -0.4582 0.8886 -0.0225
vn -0.4402 0.8898 0.1206
vn -0.0356 0.9993 0.0125
vn -0.0405 0.9988 -0.0259
vn -0.8263 0.5057 -0.248
vn -0.861 0.5084 -0.0127
vn -0.4582 0.8886 -0.0225
vn -0.4368 0.8844 -0.1644
vn -0.4368 0.8844 -0.1644
vn -0.4582 0.8886 -0.0225
vn -0.0405 0.9988 -0.0259
vn -0.0351 0.9973 -0.0642
vn -0.7303 0.5013 -0.464
vn -0.8263 0.5057 -0.248
vn -0.4368 0.8844 -0.1644
vn -0.3784 0.8777 -0.2941
vn -0.3784 0.8777 -0.2941
vn -0.4368 0.8844 -0.1644
vn -0.0351 0.9973 -0.0642
vn -0.0199 0.9948 -0.0994
vn -0.5816 0.4955 -0.6451
vn -0.7303 0.5013 -0.464
vn -0.3784 0.8777 -0.2941
vn -0.2885 0.869 -0.4021
vn -0.2885 0.869 -0.4021
vn -0.3784 0.8777 -0.2941
vn -0.0199 0.9948 -0.0994
vn 0.0038 0.9916 -0.1292
vn -0.3923 0.4889 -0.7792
vn -0.5816 0.4955 -0.6451
vn -0.2885 0.869 -0.4021
vn -0.1747 0.859 -0.4813
vn -0.1747 0.859 -0.4813
vn -0.2885 0.869 -0.4021
vn 0.0038 0.9916 -0.1292
vn 0.0343 0.9879 -0.1514
vn -0.177 0.4818 -0.8582
vn -0.3923 0.4889 -0.7792
vn -0.1747 0.859 -0.4813
vn -0.0459 0.8484 -0.5273
vn -0.0459 0.8484 -0.5273
vn -0.1747 0.859 -0.4813
vn 0.0343 0.9879 -0.1514
vn 0.0691 0.9839 -0.1648
vn 0.049 0.4748 -0.8787
vn -0.177 0.4818 -0.8582
vn -0.0459 0.8484 -0.5273
vn 0.0885 0.8381 -0.5383
vn 0.0885 0.8381 -0.5383
vn -0.0459 0.8484 -0.5273
vn 0.0691 0.9839 -0.1648
vn 0.106 0.98 -0.1687
vn 0.2706 0.4683 -0.8411
vn 0.049 0.4748 -0.8787
vn 0.0885 0.8381 -0.5383
vn 0.2199 0.8286 -0.5149
vn 0.2199 0.8286 -0.5149
vn 0.0885 0.8381 -0.5383
vn 0.106 0.98 -0.1687
vn 0.1425 0.9763 -0.163
vn 0.4737 0.4627 -0.7493
vn 0.2706 0.4683 -0.8411
vn 0.2199 0.8286 -0.5149
vn 0.3401 0.8204 -0.4596
vn 0.3401 0.8204 -0.4596
vn 0.2199 0.8286 -0.5149
vn 0.1425 0.9763 -0.163
vn 0.1762 0.9731 -0.1481
vn 0.6461 0.4584 -0.6102
vn 0.4737 0.4627 -0.7493
vn 0.3401 0.8204 -0.4596
vn 0.4419 0.8142 -0.3765
vn 0.4419 0.8142 -0.3765
vn 0.3401 0.8204 -0.4596
vn 0.1762 0.9731 -0.1481
vn 0.205 0.9707 -0.1252
vn 0.7776 0.4557 -0.4332
vn 0.6461 0.4584 -0.6102
vn 0.4419 0.8142 -0.3765
vn 0.5196 0.8102 -0.2711
vn 0.5196 0.8102 -0.2711
vn 0.4419 0.8142 -0.3765
vn 0.205 0.9707 -0.1252
vn 0.2272 0.9691 -0.0958
vn 0.8607 0.4546 -0.2293
vn 0.7776 0.4557 -0.4332
vn 0.5196 0.8102 -0.2711
vn 0.5688 0.8087 -0.15
vn 0.5688 0.8087 -0.15
vn 0.5196 0.8102 -0.2711
vn 0.2272 0.9691 -0.0958
vn 0.2411 0.9685 -0.0617
vn 0.8903 0.4553 -0.0113
vn 0.8607 0.4546 -0.2293
vn 0.5688 0.8087 -0.15
vn 0.5864 0.8097 -0.0206
vn 0.5864 0.8097 -0.0206
vn 0.5688 0.8087 -0.15
vn 0.2411 0.9685 -0.0617
vn 0.246 0.9689 -0.0252
vn 0.8645 0.4577 0.2077
vn 0.8903 0.4553 -0.0113
vn 0.5864 0.8097 -0.0206
vn 0.5715 0.8132 0.1095
vn 0.5715 0.8132 0.1095
vn 0.5864 0.8097 -0.0206
vn 0.246 0.9689 -0.0252
vn 0.2416 0.9703 0.0114
vn 0.7845 0.4617 0.414
vn 0.8645 0.4577 0.2077
vn 0.5715 0.8132 0.1095
vn 0.5247 0.819 0.2322
vn 0.5247 0.819 0.2322
vn 0.5715 0.8132 0.1095
vn 0.2416 0.9703 0.0114
vn 0.228 0.9726 0.0456
vn 0.6544 0.4671 0.5947
vn 0.7845 0.4617 0.414
vn 0.5247 0.819 0.2322
vn 0.4482 0.8268 0.3399
vn 0.4482 0.8268 0.3399
vn 0.5247 0.819 0.2322
vn 0.228 0.9726 0.0456
vn 0.2062 0.9756 0.0753
vn 0.4815 0.4735 0.7376
vn 0.6544 0.4671 0.5947
vn 0.4482 0.8268 0.3399
vn 0.3462 0.8361 0.4255
vn 0.3462 0.8361 0.4255
vn 0.4482 0.8268 0.3399
vn 0.2062 0.9756 0.0753
vn 0.1774 0.9792 0.0985
vn 0.2759 0.4804 0.8325
vn 0.4815 0.4735 0.7376
vn 0.3462 0.8361 0.4255
vn 0.2246 0.8463 0.483
vn 0.2246 0.8463 0.483
vn 0.3462 0.8361 0.4255
vn 0.1774 0.9792 0.0985
vn 0.1436 0.9831 0.1135
vn 0.0504 0.4875 0.8717
vn 0.2759 0.4804 0.8325
vn 0.2246 0.8463 0.483
vn 0.0904 0.8569 0.5075
vn 0.0904 0.8569 0.5075
vn 0.2246 0.8463 0.483
vn 0.1436 0.9831 0.1135
vn 0.1068 0.9871 0.1193
vn -0.1801 0.4943 0.8505
vn 0.0504 0.4875 0.8717
vn 0.0904 0.8569 0.5075
vn -0.0473 0.867 0.496
vn -0.0473 0.867 0.496
vn 0.0904 0.8569 0.5075
vn 0.1068 0.9871 0.1193
vn 0.0694 0.9909 0.1153
vn 0.1079 0.9938 -0.0259
vn 0.0694 0.9909 0.1153
vn 0.1068 0.9871 0.1193
vn 0.1079 0.9938 -0.0259
vn 0.1068 0.9871 0.1193
vn 0.1436 0.9831 0.1135
vn 0.1079 0.9938 -0.0259
vn 0.034 0.9943 0.1015
vn 0.0694 0.9909 0.1153
vn 0.1079 0.9938 -0.0259
vn 0.0032 0.9969 0.0787
vn 0.034 0.9943 0.1015
vn 0.1079 0.9938 -0.0259
vn -0.0206 0.9986 0.0483
vn 0.0032 0.9969 0.0787
vn 0.1079 0.9938 -0.0259
vn -0.0356 0.9993 0.0125
vn -0.0206 0.9986 0.0483
vn 0.1079 0.9938 -0.0259
vn -0.0405 0.9988 -0.0259
vn -0.0356 0.9993 0.0125
vn 0.1079 0.9938 -0.0259
vn -0.0351 0.9973 -0.0642
vn -0.0405 0.9988 -0.0259
vn 0.1079 0.9938 -0.0259
vn -0.0199 0.9948 -0.0994
vn -0.0351 0.9973 -0.0642
vn 0.1079 0.9938 -0.0259
vn 0.0038 0.9916 -0.1292
vn -0.0199 0.9948 -0.0994
vn 0.1079 0.9938 -0.0259
vn 0.0343 0.9879 -0.1514
vn 0.0038 0.9916 -0.1292
vn 0.1079 0.9938 -0.0259
vn 0.0691 0.9839 -0.1648
vn 0.0343 0.9879 -0.1514
vn 0.1079 0.9938 -0.0259
vn 0.106 0.98 -0.1687
vn 0.0691 0.9839 -0.1648
vn 0.1079 0.9938 -0.0259
vn 0.1425 0.9763 -0.163
vn 0.106 0.98 -0.1687
vn 0.1079 0.9938 -0.0259
vn 0.1762 0.9731 -0.1481
vn 0.1425 0.9763 -0.163
vn 0.1079 0.9938 -0.0259
vn 0.205 0.9707 -0.1252
vn 0.1762 0.9731 -0.1481
vn 0.1079 0.9938 -0.0259
vn 0.2272 0.9691 -0.0958
vn 0.205 0.9707 -0.1252
vn 0.1079 0.9938 -0.0259
vn 0.2411 0.9685 -0.0617
vn 0.2272 0.9691 -0.0958
vn 0.1079 0.9938 -0.0259
vn 0.246 0.9689 -0.0252
vn 0.2411 0.9685 -0.0617
vn 0.1079 0.9938 -0.0259
vn 0.2416 0.9703 0.0114
vn 0.246 0.9689 -0.0252
vn 0.1079 0.9938 -0.0259
vn 0.228 0.9726 0.0456
vn 0.2416 0.9703 0.0114
vn 0.1079 0.9938 -0.0259
vn 0.2062 0.9756 0.0753
vn 0.228 0.9726 0.0456
vn 0.1079 0.9938 -0.0259
vn 0.1774 0.9792 0.0985
vn 0.2062 0.9756 0.0753
vn 0.1079 0.9938 -0.0259
vn 0.1436 0.9831 0.1135
vn 0.1774 0.9792 0.0985
vt 0.484619 0.103146
vt 0.484619 0.147705
vt 0.496343 0.148929
vt 0.496343 0.103146
vt 0.472895 0.103146
vt 0.472895 0.146402
vt 0.484619 0.147705
vt 0.484619 0.103146
vt 0.772645 0.806705
vt 0.775972 0.819326
vt 0.780704 0.816827
vt 0.777816 0.805553
vt 0.775972 0.819326
vt 0.782415 0.830725
vt 0.786396 0.827048
vt 0.780704 0.816827
vt 0.782415 0.830725
vt 0.791601 0.840167
vt 0.79457 0.835528
vt 0.786396 0.827048
vt 0.461171 0.103146
vt 0.461171 0.145111
vt 0.472895 0.146402
vt 0.472895 0.103146
vt 0.791601 0.840167
vt 0.803043 0.846993
vt 0.804755 0.841634
vt 0.79457 0.835528
vt 0.449447 0.103146
vt 0.449447 0.143917
vt 0.461171 0.145111
vt 0.461171 0.103146
vt 0.437723 0.103146
vt 0.437723 0.142903
vt 0.449447 0.143917
vt 0.449447 0.103146
vt 0.425999 0.103146
vt 0.425999 0.142137
vt 0.437723 0.142903
vt 0.437723 0.103146
vt 0.803043 0.846993
vt 0.815935 0.850255
vt 0.816225 0.844687
vt 0.804755 0.841634
vt 0.815935 0.850255
vt 0.829033 0.850064
vt 0.827992 0.844616
vt 0.816225 0.844687
vt 0.829033 0.850064
vt 0.841537 0.846557
vt 0.839262 0.841516
vt 0.827992 0.844616
vt 0.414275 0.103146
vt 0.414275 0.141671
vt 0.425999 0.142137
vt 0.425999 0.103146
vt 0.841537 0.846557
vt 0.852678 0.839996
vt 0.849305 0.83563
vt 0.839262 0.841516
vt 0.402551 0.103146
vt 0.402551 0.141535
vt 0.414275 0.141671
vt 0.414275 0.103146
vt 0.390827 0.103146
vt 0.390827 0.141738
vt 0.402551 0.141535
vt 0.402551 0.103146
vt 0.660479 0.103146
vt 0.660479 0.142268
vt 0.672203 0.141738
vt 0.672203 0.103146
vt 0.852678 0.839996
vt 0.861766 0.830832
vt 0.857483 0.827374
vt 0.849305 0.83563
vt 0.861766 0.830832
vt 0.868204 0.819647
vt 0.86325 0.817287
vt 0.857483 0.827374
vt 0.868204 0.819647
vt 0.871577 0.807168
vt 0.866227 0.806044
vt 0.86325 0.817287
vt 0.648755 0.103146
vt 0.648755 0.143089
vt 0.660479 0.142268
vt 0.660479 0.103146
vt 0.871577 0.807168
vt 0.871661 0.794205
vt 0.86622 0.794394
vt 0.866227 0.806044
vt 0.637031 0.103146
vt 0.637031 0.144145
vt 0.648755 0.143089
vt 0.648755 0.103146
vt 0.625307 0.103146
vt 0.625307 0.145364
vt 0.637031 0.144145
vt 0.637031 0.103146
vt 0.613583 0.103146
vt 0.613583 0.146665
vt 0.625307 0.145364
vt 0.625307 0.103146
vt 0.871661 0.794205
vt 0.868438 0.781597
vt 0.863227 0.783105
vt 0.86622 0.794394
vt 0.868438 0.781597
vt 0.862088 0.770158
vt 0.857435 0.772923
vt 0.863227 0.783105
vt 0.862088 0.770158
vt 0.852964 0.760635
vt 0.84919 0.764527
vt 0.857435 0.772923
vt 0.601859 0.103146
vt 0.601859 0.147959
vt 0.613583 0.146665
vt 0.613583 0.103146
vt 0.852964 0.760635
vt 0.841534 0.753705
vt 0.838987 0.758535
vt 0.84919 0.764527
vt 0.590135 0.103146
vt 0.590135 0.149157
vt 0.601859 0.147959
vt 0.601859 0.103146
vt 0.578411 0.103146
vt 0.578411 0.150178
vt 0.590135 0.149157
vt 0.590135 0.103146
vt 0.566687 0.103146
vt 0.566687 0.15095
vt 0.578411 0.150178
vt 0.578411 0.103146
vt 0.841534 0.753705
vt 0.828601 0.750351
vt 0.827562 0.755593
vt 0.838987 0.758535
vt 0.828601 0.750351
vt 0.815421 0.750477
vt 0.81589 0.755725
vt 0.827562 0.755593
vt 0.815421 0.750477
vt 0.802812 0.753964
vt 0.804729 0.758825
vt 0.81589 0.755725
vt 0.554963 0.103146
vt 0.554963 0.151421
vt 0.566687 0.15095
vt 0.566687 0.103146
vt 0.802812 0.753964
vt 0.791566 0.760548
vt 0.794771 0.764651
vt 0.804729 0.758825
vt 0.543239 0.103146
vt 0.543239 0.151558
vt 0.554963 0.151421
vt 0.554963 0.103146
vt 0.531515 0.103146
vt 0.531515 0.151353
vt 0.543239 0.151558
vt 0.543239 0.103146
vt 0.519791 0.103146
vt 0.519791 0.150818
vt 0.531515 0.151353
vt 0.531515 0.103146
vt 0.791566 0.760548
vt 0.782426 0.769805
vt 0.786663 0.772833
vt 0.794771 0.764651
vt 0.782426 0.769805
vt 0.775977 0.781098
vt 0.780911 0.782818
vt 0.786663 0.772833
vt 0.775977 0.781098
vt 0.772645 0.793677
vt 0.777893 0.793965
vt 0.780911 0.782818
vt 0.508067 0.103146
vt 0.508067 0.149991
vt 0.519791 0.150818
vt 0.519791 0.103146
vt 0.772645 0.793677
vt 0.772645 0.806705
vt 0.777816 0.805553
vt 0.777893 0.793965
vt 0.496343 0.103146
vt 0.496343 0.148929
vt 0.508067 0.149991
vt 0.508067 0.103146
vt 0.777893 0.793965
vt 0.777816 0.805553
vt 0.782601 0.804628
vt 0.782677 0.794341
vt 0.780911 0.782818
vt 0.777893 0.793965
vt 0.782677 0.794341
vt 0.785362 0.784455
vt 0.782677 0.794341
vt 0.782601 0.804628
vt 0.787333 0.803927
vt 0.787386 0.794886
vt 0.785362 0.784455
vt 0.782677 0.794341
vt 0.787386 0.794886
vt 0.789738 0.786198
vt 0.786663 0.772833
vt 0.780911 0.782818
vt 0.785362 0.784455
vt 0.790468 0.775608
vt 0.790468 0.775608
vt 0.785362 0.784455
vt 0.789738 0.786198
vt 0.794221 0.778428
vt 0.794771 0.764651
vt 0.786663 0.772833
vt 0.790468 0.775608
vt 0.797661 0.768363
vt 0.797661 0.768363
vt 0.790468 0.775608
vt 0.794221 0.778428
vt 0.800539 0.772076
vt 0.804729 0.758825
vt 0.794771 0.764651
vt 0.797661 0.768363
vt 0.80649 0.763207
vt 0.80649 0.763207
vt 0.797661 0.768363
vt 0.800539 0.772076
vt 0.80829 0.767559
vt 0.81589 0.755725
vt 0.804729 0.758825
vt 0.80649 0.763207
vt 0.81638 0.760476
vt 0.81638 0.760476
vt 0.80649 0.763207
vt 0.80829 0.767559
vt 0.816972 0.765182
vt 0.827562 0.755593
vt 0.81589 0.755725
vt 0.81638 0.760476
vt 0.826709 0.760379
vt 0.826709 0.760379
vt 0.81638 0.760476
vt 0.816972 0.765182
vt 0.826025 0.76513
vt 0.838987 0.758535
vt 0.827562 0.755593
vt 0.826709 0.760379
vt 0.83679 0.762999
vt 0.83679 0.762999
vt 0.826709 0.760379
vt 0.826025 0.76513
vt 0.834832 0.767451
vt 0.84919 0.764527
vt 0.838987 0.758535
vt 0.83679 0.762999
vt 0.845832 0.768246
vt 0.845832 0.768246
vt 0.83679 0.762999
vt 0.834832 0.767451
vt 0.842747 0.772029
vt 0.857435 0.772923
vt 0.84919 0.764527
vt 0.845832 0.768246
vt 0.853183 0.775658
vt 0.853183 0.775658
vt 0.845832 0.768246
vt 0.842747 0.772029
vt 0.849205 0.778516
vt 0.863227 0.783105
vt 0.857435 0.772923
vt 0.853183 0.775658
vt 0.858369 0.78469
vt 0.858369 0.78469
vt 0.853183 0.775658
vt 0.849205 0.778516
vt 0.85377 0.786442
vt 0.86622 0.794394
vt 0.863227 0.783105
vt 0.858369 0.78469
vt 0.861062 0.794727
vt 0.861062 0.794727
vt 0.858369 0.78469
vt 0.85377 0.786442
vt 0.85614 0.795257
vt 0.866227 0.806044
vt 0.86622 0.794394
vt 0.861062 0.794727
vt 0.86109 0.805097
vt 0.86109 0.805097
vt 0.861062 0.794727
vt 0.85614 0.795257
vt 0.856166 0.804361
vt 0.86325 0.817287
vt 0.866227 0.806044
vt 0.86109 0.805097
vt 0.858453 0.815105
vt 0.858453 0.815105
vt 0.86109 0.805097
vt 0.856166 0.804361
vt 0.853852 0.813142
vt 0.857483 0.827374
vt 0.86325 0.817287
vt 0.858453 0.815105
vt 0.853328 0.824082
vt 0.853328 0.824082
vt 0.858453 0.815105
vt 0.853852 0.813142
vt 0.849354 0.82101
vt 0.849305 0.83563
vt 0.857483 0.827374
vt 0.853328 0.824082
vt 0.846053 0.831421
vt 0.846053 0.831421
vt 0.853328 0.824082
vt 0.849354 0.82101
vt 0.842975 0.827439
vt 0.839262 0.841516
vt 0.849305 0.83563
vt 0.846053 0.831421
vt 0.837116 0.836639
vt 0.837116 0.836639
vt 0.846053 0.831421
vt 0.842975 0.827439
vt 0.835136 0.831999
vt 0.827992 0.844616
vt 0.839262 0.841516
vt 0.837116 0.836639
vt 0.82709 0.839365
vt 0.82709 0.839365
vt 0.837116 0.836639
vt 0.835136 0.831999
vt 0.826352 0.834368
vt 0.816225 0.844687
vt 0.827992 0.844616
vt 0.82709 0.839365
vt 0.816645 0.839382
vt 0.816645 0.839382
vt 0.82709 0.839365
vt 0.826352 0.834368
vt 0.817216 0.83436
vt 0.804755 0.841634
vt 0.816225 0.844687
vt 0.816645 0.839382
vt 0.806511 0.83663
vt 0.806511 0.83663
vt 0.816645 0.839382
vt 0.817216 0.83436
vt 0.808369 0.831941
vt 0.79457 0.835528
vt 0.804755 0.841634
vt 0.806511 0.83663
vt 0.797488 0.831243
vt 0.797488 0.831243
vt 0.806511 0.83663
vt 0.808369 0.831941
vt 0.800467 0.827258
vt 0.786396 0.827048
vt 0.79457 0.835528
vt 0.797488 0.831243
vt 0.790223 0.823725
vt 0.790223 0.823725
vt 0.797488 0.831243
vt 0.800467 0.827258
vt 0.794072 0.82069
vt 0.780704 0.816827
vt 0.786396 0.827048
vt 0.790223 0.823725
vt 0.785162 0.814645
vt 0.785162 0.814645
vt 0.790223 0.823725
vt 0.794072 0.82069
vt 0.789603 0.812726
vt 0.777816 0.805553
vt 0.780704 0.816827
vt 0.785162 0.814645
vt 0.782601 0.804628
vt 0.782601 0.804628
vt 0.785162 0.814645
vt 0.789603 0.812726
vt 0.787333 0.803927
vt 0.821698 0.799682
vt 0.787333 0.803927
vt 0.789603 0.812726
vt 0.821698 0.799682
vt 0.789603 0.812726
vt 0.794072 0.82069
vt 0.821698 0.799682
vt 0.787386 0.794886
vt 0.787333 0.803927
vt 0.821698 0.799682
vt 0.789738 0.786198
vt 0.787386 0.794886
vt 0.821698 0.799682
vt 0.794221 0.778428
vt 0.789738 0.786198
vt 0.821698 0.799682
vt 0.800539 0.772076
vt 0.794221 0.778428
vt 0.821698 0.799682
vt 0.80829 0.767559
vt 0.800539 0.772076
vt 0.821698 0.799682
vt 0.816972 0.765182
vt 0.80829 0.767559
vt 0.821698 0.799682
vt 0.826025 0.76513
vt 0.816972 0.765182
vt 0.821698 0.799682
vt 0.834832 0.767451
vt 0.826025 0.76513
vt 0.821698 0.799682
vt 0.842747 0.772029
vt 0.834832 0.767451
vt 0.821698 0.799682
vt 0.849205 0.778516
vt 0.842747 0.772029
vt 0.821698 0.799682
vt 0.85377 0.786442
vt 0.849205 0.778516
vt 0.821698 0.799682
vt 0.85614 0.795257
vt 0.85377 0.786442
vt 0.821698 0.799682
vt 0.856166 0.804361
vt 0.85614 0.795257
vt 0.821698 0.799682
vt 0.853852 0.813142
vt 0.856166 0.804361
vt 0.821698 0.799682
vt 0.849354 0.82101
vt 0.853852 0.813142
vt 0.821698 0.799682
vt 0.842975 0.827439
vt 0.849354 0.82101
vt 0.821698 0.799682
vt 0.835136 0.831999
vt 0.842975 0.827439
vt 0.821698 0.799682
vt 0.826352 0.834368
vt 0.835136 0.831999
vt 0.821698 0.799682
vt 0.817216 0.83436
vt 0.826352 0.834368
vt 0.821698 0.799682
vt 0.808369 0.831941
vt 0.817216 0.83436
vt 0.821698 0.799682
vt 0.800467 0.827258
vt 0.808369 0.831941
vt 0.821698 0.799682
vt 0.794072 0.82069
vt 0.800467 0.827258
s off
f 1/1/1 2/2/2 3/3/3
f 1/1/1 3/3/3 4/4/4
f 5/5/5 6/6/6 7/7/7
f 5/5/5 7/7/7 8/8/8
f 9/9/9 10/10/10 11/11/11
f 9/9/9 11/11/11 12/12/12
f 13/13/13 14/14/14 15/15/15
f 13/13/13 15/15/15 16/16/16
f 17/17/17 18/18/18 19/19/19
f 17/17/17 19/19/19 20/20/20
f 21/21/21 22/22/22 23/23/23
f 21/21/21 23/23/23 24/24/24
f 25/25/25 26/26/26 27/27/27
f 25/25/25 27/27/27 28/28/28
f 29/29/29 30/30/30 31/31/31
f 29/29/29 31/31/31 32/32/32
f 33/33/33 34/34/34 35/35/35
f 33/33/33 35/35/35 36/36/36
f 37/37/37 38/38/38 39/39/39
f 37/37/37 39/39/39 40/40/40
f 41/41/41 42/42/42 43/43/43
f 41/41/41 43/43/43 44/44/44
f 45/45/45 46/46/46 47/47/47
f 45/45/45 47/47/47 48/48/48
f 49/49/49 50/50/50 51/51/51
f 49/49/49 51/51/51 52/52/52
f 53/53/53 54/54/54 55/55/55
f 53/53/53 55/55/55 56/56/56
f 57/57/57 58/58/58 59/59/59
f 57/57/57 59/59/59 60/60/60
f 61/61/61 62/62/62 63/63/63
f 61/61/61 63/63/63 64/64/64
f 65/65/65 66/66/66 67/67/67
f 65/65/65 67/67/67 68/68/68
f 69/69/69 70/70/70 71/71/71
f 69/69/69 71/71/71 72/72/72
f 73/73/73 74/74/74 75/75/75
f 73/73/73 75/75/75 76/76/76
f 77/77/77 78/78/78 79/79/79
f 77/77/77 79/79/79 80/80/80
f 81/81/81 82/82/82 83/83/83
f 81/81/81 83/83/83 84/84/84
f 85/85/85 86/86/86 87/87/87
f 85/85/85 87/87/87 88/88/88
f 89/89/89 90/90/90 91/91/91
f 89/89/89 91/91/91 92/92/92
f 93/93/93 94/94/94 95/95/95
f 93/93/93 95/95/95 96/96/96
f 97/97/97 98/98/98 99/99/99
f 97/97/97 99/99/99 100/100/100
f 101/101/101 102/102/102 103/103/103
f 101/101/101 103/103/103 104/104/104
f 105/105/105 106/106/106 107/107/107
f 105/105/105 107/107/107 108/108/108
f 109/109/109 110/110/110 111/111/111
f 109/109/109 111/111/111 112/112/112
f 113/113/113 114/114/114 115/115/115
f 113/113/113 115/115/115 116/116/116
f 117/117/117 118/118/118 119/119/119
f 117/117/117 119/119/119 120/120/120
f 121/121/121 122/122/122 123/123/123
f 121/121/121 123/123/123 124/124/124
f 125/125/125 126/126/126 127/127/127
f 125/125/125 127/127/127 128/128/128
f 129/129/129 130/130/130 131/131/131
f 129/129/129 131/131/131 132/132/132
f 133/133/133 134/134/134 135/135/135
f 133/133/133 135/135/135 136/136/136
f 137/137/137 138/138/138 139/139/139
f 137/137/137 139/139/139 140/140/140
f 141/141/141 142/142/142 143/143/143
f 141/141/141 143/143/143 144/144/144
f 145/145/145 146/146/146 147/147/147
f 145/145/145 147/147/147 148/148/148
f 149/149/149 150/150/150 151/151/151
f 149/149/149 151/151/151 152/152/152
f 153/153/153 154/154/154 155/155/155
f 153/153/153 155/155/155 156/156/156
f 157/157/157 158/158/158 159/159/159
f 157/157/157 159/159/159 160/160/160
f 161/161/161 162/162/162 163/163/163
f 161/161/161 163/163/163 164/164/164
f 165/165/165 166/166/166 167/167/167
f 165/165/165 167/167/167 168/168/168
f 169/169/169 170/170/170 171/171/171
f 169/169/169 171/171/171 172/172/172
f 173/173/173 174/174/174 175/175/175
f 173/173/173 175/175/175 176/176/176
f 177/177/177 178/178/178 179/179/179
f 177/177/177 179/179/179 180/180/180
f 181/181/181 182/182/182 183/183/183
f 181/181/181 183/183/183 184/184/184
f 185/185/185 186/186/186 187/187/187
f 185/185/185 187/187/187 188/188/188
f 189/189/189 190/190/190 191/191/191
f 189/189/189 191/191/191 192/192/192
f 193/193/193 194/194/194 195/195/195
f 193/193/193 195/195/195 196/196/196
f 197/197/197 198/198/198 199/199/199
f 197/197/197 199/199/199 200/200/200
f 201/201/201 202/202/202 203/203/203
f 201/201/201 203/203/203 204/204/204
f 205/205/205 206/206/206 207/207/207
f 205/205/205 207/207/207 208/208/208
f 209/209/209 210/210/210 211/211/211
f 209/209/209 211/211/211 212/212/212
f 213/213/213 214/214/214 215/215/215
f 213/213/213 215/215/215 216/216/216
f 217/217/217 218/218/218 219/219/219
f 217/217/217 219/219/219 220/220/220
f 221/221/221 222/222/222 223/223/223
f 221/221/221 223/223/223 224/224/224
f 225/225/225 226/226/226 227/227/227
f 225/225/225 227/227/227 228/228/228
f 229/229/229 230/230/230 231/231/231
f 229/229/229 231/231/231 232/232/232
f 233/233/233 234/234/234 235/235/235
f 233/233/233 235/235/235 236/236/236
f 237/237/237 238/238/238 239/239/239
f 237/237/237 239/239/239 240/240/240
f 241/241/241 242/242/242 243/243/243
f 241/241/241 243/243/243 244/244/244
f 245/245/245 246/246/246 247/247/247
f 245/245/245 247/247/247 248/248/248
f 249/249/249 250/250/250 251/251/251
f 249/249/249 251/251/251 252/252/252
f 253/253/253 254/254/254 255/255/255
f 253/253/253 255/255/255 256/256/256
f 257/257/257 258/258/258 259/259/259
f 257/257/257 259/259/259 260/260/260
f 261/261/261 262/262/262 263/263/263
f 261/261/261 263/263/263 264/264/264
f 265/265/265 266/266/266 267/267/267
f 265/265/265 267/267/267 268/268/268
f 269/269/269 270/270/270 271/271/271
f 269/269/269 271/271/271 272/272/272
f 273/273/273 274/274/274 275/275/275
f 273/273/273 275/275/275 276/276/276
f 277/277/277 278/278/278 279/279/279
f 277/277/277 279/279/279 280/280/280
f 281/281/281 282/282/282 283/283/283
f 281/281/281 283/283/283 284/284/284
f 285/285/285 286/286/286 287/287/287
f 285/285/285 287/287/287 288/288/288
f 289/289/289 290/290/290 291/291/291
f 289/289/289 291/291/291 292/292/292
f 293/293/293 294/294/294 295/295/295
f 293/293/293 295/295/295 296/296/296
f 297/297/297 298/298/298 299/299/299
f 297/297/297 299/299/299 300/300/300
f 301/301/301 302/302/302 303/303/303
f 301/301/301 303/303/303 304/304/304
f 305/305/305 306/306/306 307/307/307
f 305/305/305 307/307/307 308/308/308
f 309/309/309 310/310/310 311/311/311
f 309/309/309 311/311/311 312/312/312
f 313/313/313 314/314/314 315/315/315
f 313/313/313 315/315/315 316/316/316
f 317/317/317 318/318/318 319/319/319
f 317/317/317 319/319/319 320/320/320
f 321/321/321 322/322/322 323/323/323
f 321/321/321 323/323/323 324/324/324
f 325/325/325 326/326/326 327/327/327
f 325/325/325 327/327/327 328/328/328
f 329/329/329 330/330/330 331/331/331
f 329/329/329 331/331/331 332/332/332
f 333/333/333 334/334/334 335/335/335
f 333/333/333 335/335/335 336/336/336
f 337/337/337 338/338/338 339/339/339
f 337/337/337 339/339/339 340/340/340
f 341/341/341 342/342/342 343/343/343
f 341/341/341 343/343/343 344/344/344
f 345/345/345 346/346/346 347/347/347
f 345/345/345 347/347/347 348/348/348
f 349/349/349 350/350/350 351/351/351
f 349/349/349 351/351/351 352/352/352
f 353/353/353 354/354/354 355/355/355
f 353/353/353 355/355/355 356/356/356
f 357/357/357 358/358/358 359/359/359
f 357/357/357 359/359/359 360/360/360
f 361/361/361 362/362/362 363/363/363
f 361/361/361 363/363/363 364/364/364
f 365/365/365 366/366/366 367/367/367
f 365/365/365 367/367/367 368/368/368
f 369/369/369 370/370/370 371/371/371
f 369/369/369 371/371/371 372/372/372
f 373/373/373 374/374/374 375/375/375
f 373/373/373 375/375/375 376/376/376
f 377/377/377 378/378/378 379/379/379
f 377/377/377 379/379/379 380/380/380
f 381/381/381 382/382/382 383/383/383
f 381/381/381 383/383/383 384/384/384
f 385/385/385 386/386/386 387/387/387
f 388/388/388 389/389/389 390/390/390
f 391/391/391 392/392/392 393/393/393
f 394/394/394 395/395/395 396/396/396
f 397/397/397 398/398/398 399/399/399
f 400/400/400 401/401/401 402/402/402
f 403/403/403 404/404/404 405/405/405
f 406/406/406 407/407/407 408/408/408
f 409/409/409 410/410/410 411/411/411
f 412/412/412 413/413/413 414/414/414
f 415/415/415 416/416/416 417/417/417
f 418/418/418 419/419/419 420/420/420
f 421/421/421 422/422/422 423/423/423
f 424/424/424 425/425/425 426/426/426
f 427/427/427 428/428/428 429/429/429
f 430/430/430 431/431/431 432/432/432
f 433/433/433 434/434/434 435/435/435
f 436/436/436 437/437/437 438/438/438
f 439/439/439 440/440/440 441/441/441
f 442/442/442 443/443/443 444/444/444
f 445/445/445 446/446/446 447/447/447
f 448/448/448 449/449/449 450/450/450
f 451/451/451 452/452/452 453/453/453
f 454/454/454 455/455/455 456/456/456
