v 0.866221 0.138743 -0.266554
v 0.863979 0.138743 -0.283578
v 0.863979 0.187121 -0.283578
v 0.866221 0.188073 -0.266554
v 0.863979 0.138743 -0.24953
v 0.866221 0.138743 -0.266554
v 0.866221 0.188073 -0.266554
v 0.863979 0.190191 -0.24953
v 0.864397 0.195844 -0.266594
v 0.86222 0.197912 -0.250063
v 0.863979 0.190191 -0.24953
v 0.866221 0.188073 -0.266554
v 0.862221 0.194915 -0.283117
v 0.864397 0.195844 -0.266594
v 0.866221 0.188073 -0.266554
v 0.863979 0.187121 -0.283578
v 0.86222 0.197912 -0.250063
v 0.855835 0.20098 -0.234647
v 0.857408 0.193335 -0.233666
v 0.863979 0.190191 -0.24953
v 0.857408 0.138743 -0.233666
v 0.863979 0.138743 -0.24953
v 0.863979 0.190191 -0.24953
v 0.857408 0.193335 -0.233666
v 0.855835 0.20098 -0.234647
v 0.845669 0.204845 -0.221399
v 0.846955 0.197296 -0.220043
v 0.857408 0.193335 -0.233666
v 0.846955 0.138743 -0.220043
v 0.857408 0.138743 -0.233666
v 0.857408 0.193335 -0.233666
v 0.846955 0.197296 -0.220043
v 0.833332 0.138743 -0.20959
v 0.846955 0.138743 -0.220043
v 0.846955 0.197296 -0.220043
v 0.833332 0.20181 -0.20959
v 0.817468 0.138743 -0.203019
v 0.833332 0.138743 -0.20959
v 0.833332 0.20181 -0.20959
v 0.817468 0.206574 -0.203019
v 0.845669 0.204845 -0.221399
v 0.832414 0.209246 -0.211227
v 0.833332 0.20181 -0.20959
v 0.846955 0.197296 -0.220043
v 0.832414 0.209246 -0.211227
v 0.816973 0.213884 -0.204832
v 0.817468 0.206574 -0.203019
v 0.833332 0.20181 -0.20959
v 0.816973 0.213884 -0.204832
v 0.800406 0.218441 -0.20265
v 0.800444 0.211262 -0.200778
v 0.817468 0.206574 -0.203019
v 0.800444 0.138743 -0.200778
v 0.817468 0.138743 -0.203019
v 0.817468 0.206574 -0.203019
v 0.800444 0.211262 -0.200778
v 0.800406 0.218441 -0.20265
v 0.783845 0.222605 -0.204831
v 0.78342 0.215554 -0.203019
v 0.800444 0.211262 -0.200778
v 0.78342 0.138743 -0.203019
v 0.800444 0.138743 -0.200778
v 0.800444 0.211262 -0.200778
v 0.78342 0.215554 -0.203019
v 0.767556 0.138743 -0.20959
v 0.78342 0.138743 -0.203019
v 0.78342 0.215554 -0.203019
v 0.767556 0.219151 -0.20959
v 0.753933 0.138743 -0.220043
v 0.767556 0.138743 -0.20959
v 0.767556 0.219151 -0.20959
v 0.753933 0.221804 -0.220043
v 0.783845 0.222605 -0.204831
v 0.768424 0.226089 -0.211218
v 0.767556 0.219151 -0.20959
v 0.78342 0.215554 -0.203019
v 0.768424 0.226089 -0.211218
v 0.755191 0.228652 -0.221372
v 0.753933 0.221804 -0.220043
v 0.767556 0.219151 -0.20959
v 0.755191 0.228652 -0.221372
v 0.745044 0.230121 -0.234596
v 0.74348 0.223325 -0.233666
v 0.753933 0.221804 -0.220043
v 0.74348 0.138743 -0.233666
v 0.753933 0.138743 -0.220043
v 0.753933 0.221804 -0.220043
v 0.74348 0.223325 -0.233666
v 0.745044 0.230121 -0.234596
v 0.738667 0.230394 -0.249991
v 0.736909 0.223608 -0.24953
v 0.74348 0.223325 -0.233666
v 0.736909 0.138743 -0.24953
v 0.74348 0.138743 -0.233666
v 0.74348 0.223325 -0.233666
v 0.736909 0.223608 -0.24953
v 0.734668 0.138743 -0.266554
v 0.736909 0.138743 -0.24953
v 0.736909 0.223608 -0.24953
v 0.734668 0.222633 -0.266554
v 0.736909 0.138743 -0.283578
v 0.734668 0.138743 -0.266554
v 0.734668 0.222633 -0.266554
v 0.736909 0.220468 -0.283578
v 0.738667 0.230394 -0.249991
v 0.736492 0.229453 -0.266514
v 0.734668 0.222633 -0.266554
v 0.736909 0.223608 -0.24953
v 0.736492 0.229453 -0.266514
v 0.738668 0.227362 -0.283045
v 0.736909 0.220468 -0.283578
v 0.734668 0.222633 -0.266554
v 0.738668 0.227362 -0.283045
v 0.745054 0.224264 -0.298461
v 0.74348 0.217266 -0.299442
v 0.736909 0.220468 -0.283578
v 0.74348 0.138743 -0.299442
v 0.736909 0.138743 -0.283578
v 0.736909 0.220468 -0.283578
v 0.74348 0.217266 -0.299442
v 0.745054 0.224264 -0.298461
v 0.755219 0.220372 -0.311709
v 0.753933 0.213251 -0.313065
v 0.74348 0.217266 -0.299442
v 0.753933 0.138743 -0.313065
v 0.74348 0.138743 -0.299442
v 0.74348 0.217266 -0.299442
v 0.753933 0.213251 -0.313065
v 0.767556 0.138743 -0.323518
v 0.753933 0.138743 -0.313065
v 0.753933 0.213251 -0.313065
v 0.767556 0.208701 -0.323518
v 0.78342 0.138743 -0.330089
v 0.767556 0.138743 -0.323518
v 0.767556 0.208701 -0.323518
v 0.78342 0.203931 -0.330089
v 0.755219 0.220372 -0.311709
v 0.768475 0.215953 -0.321881
v 0.767556 0.208701 -0.323518
v 0.753933 0.213251 -0.313065
v 0.768475 0.215953 -0.321881
v 0.783915 0.211312 -0.328276
v 0.78342 0.203931 -0.330089
v 0.767556 0.208701 -0.323518
v 0.783915 0.211312 -0.328276
v 0.800483 0.206766 -0.330458
v 0.800444 0.199266 -0.33233
v 0.78342 0.203931 -0.330089
v 0.800444 0.138743 -0.33233
v 0.78342 0.138743 -0.330089
v 0.78342 0.203931 -0.330089
v 0.800444 0.199266 -0.33233
v 0.800483 0.206766 -0.330458
v 0.817044 0.202626 -0.328277
v 0.817468 0.195022 -0.330089
v 0.800444 0.199266 -0.33233
v 0.817468 0.138743 -0.330089
v 0.800444 0.138743 -0.33233
v 0.800444 0.199266 -0.33233
v 0.817468 0.195022 -0.330089
v 0.833332 0.138743 -0.323518
v 0.817468 0.138743 -0.330089
v 0.817468 0.195022 -0.330089
v 0.833332 0.191482 -0.323518
v 0.846955 0.138743 -0.313065
v 0.833332 0.138743 -0.323518
v 0.833332 0.191482 -0.323518
v 0.846955 0.188884 -0.313065
v 0.817044 0.202626 -0.328277
v 0.832465 0.199172 -0.32189
v 0.833332 0.191482 -0.323518
v 0.817468 0.195022 -0.330089
v 0.832465 0.199172 -0.32189
v 0.845697 0.196635 -0.311736
v 0.846955 0.188884 -0.313065
v 0.833332 0.191482 -0.323518
v 0.845697 0.196635 -0.311736
v 0.855845 0.195184 -0.298512
v 0.857408 0.187397 -0.299442
v 0.846955 0.188884 -0.313065
v 0.857408 0.138743 -0.299442
v 0.846955 0.138743 -0.313065
v 0.846955 0.188884 -0.313065
v 0.857408 0.187397 -0.299442
v 0.855845 0.195184 -0.298512
v 0.862221 0.194915 -0.283117
v 0.863979 0.187121 -0.283578
v 0.857408 0.187397 -0.299442
v 0.863979 0.138743 -0.283578
v 0.857408 0.138743 -0.299442
v 0.857408 0.187397 -0.299442
v 0.863979 0.187121 -0.283578
v 0.842261 0.203213 -0.308105
v 0.851573 0.201876 -0.29597
v 0.855845 0.195184 -0.298512
v 0.845697 0.196635 -0.311736
v 0.851573 0.201876 -0.29597
v 0.857419 0.201628 -0.281856
v 0.862221 0.194915 -0.283117
v 0.855845 0.195184 -0.298512
v 0.857419 0.201628 -0.281856
v 0.859414 0.202484 -0.266703
v 0.864397 0.195844 -0.266594
v 0.862221 0.194915 -0.283117
v 0.845737 0.205679 -0.292498
v 0.850859 0.205461 -0.280134
v 0.857419 0.201628 -0.281856
v 0.851573 0.201876 -0.29597
v 0.850859 0.205461 -0.280134
v 0.852608 0.206213 -0.266852
v 0.859414 0.202484 -0.266703
v 0.857419 0.201628 -0.281856
v 0.852608 0.206213 -0.266852
v 0.850851 0.207892 -0.253506
v 0.857415 0.20439 -0.251518
v 0.859414 0.202484 -0.266703
v 0.859414 0.202484 -0.266703
v 0.857415 0.20439 -0.251518
v 0.86222 0.197912 -0.250063
v 0.864397 0.195844 -0.266594
v 0.850851 0.207892 -0.253506
v 0.845665 0.210396 -0.240986
v 0.851536 0.207225 -0.237326
v 0.857415 0.20439 -0.251518
v 0.857415 0.20439 -0.251518
v 0.851536 0.207225 -0.237326
v 0.855835 0.20098 -0.234647
v 0.86222 0.197912 -0.250063
v 0.845665 0.210396 -0.240986
v 0.837358 0.213565 -0.230161
v 0.842157 0.2108 -0.225102
v 0.851536 0.207225 -0.237326
v 0.851536 0.207225 -0.237326
v 0.842157 0.2108 -0.225102
v 0.845669 0.204845 -0.221399
v 0.855835 0.20098 -0.234647
v 0.837358 0.213565 -0.230161
v 0.826476 0.217185 -0.221811
v 0.829904 0.214874 -0.2157
v 0.842157 0.2108 -0.225102
v 0.842157 0.2108 -0.225102
v 0.829904 0.214874 -0.2157
v 0.832414 0.209246 -0.211227
v 0.845669 0.204845 -0.221399
v 0.826476 0.217185 -0.221811
v 0.813773 0.221002 -0.216549
v 0.815621 0.219165 -0.209784
v 0.829904 0.214874 -0.2157
v 0.829904 0.214874 -0.2157
v 0.815621 0.219165 -0.209784
v 0.816973 0.213884 -0.204832
v 0.832414 0.209246 -0.211227
v 0.813773 0.221002 -0.216549
v 0.800155 0.224743 -0.214756
v 0.800299 0.223376 -0.207767
v 0.815621 0.219165 -0.209784
v 0.815621 0.219165 -0.209784
v 0.800299 0.223376 -0.207767
v 0.800406 0.218441 -0.20265
v 0.816973 0.213884 -0.204832
v 0.800155 0.224743 -0.214756
v 0.786591 0.228144 -0.216542
v 0.785005 0.227213 -0.20978
v 0.800299 0.223376 -0.207767
v 0.800299 0.223376 -0.207767
v 0.785005 0.227213 -0.20978
v 0.783845 0.222605 -0.204831
v 0.800406 0.218441 -0.20265
v 0.786591 0.228144 -0.216542
v 0.774031 0.230969 -0.221744
v 0.770793 0.230414 -0.215667
v 0.785005 0.227213 -0.20978
v 0.785005 0.227213 -0.20978
v 0.770793 0.230414 -0.215667
v 0.768424 0.226089 -0.211218
v 0.783845 0.222605 -0.204831
v 0.774031 0.230969 -0.221744
v 0.763321 0.233033 -0.229962
v 0.758627 0.232763 -0.225003
v 0.770793 0.230414 -0.215667
v 0.770793 0.230414 -0.215667
v 0.758627 0.232763 -0.225003
v 0.755191 0.228652 -0.221372
v 0.768424 0.226089 -0.211218
v 0.763321 0.233033 -0.229962
v 0.755151 0.234209 -0.24061
v 0.749316 0.234105 -0.237138
v 0.758627 0.232763 -0.225003
v 0.758627 0.232763 -0.225003
v 0.749316 0.234105 -0.237138
v 0.745044 0.230121 -0.234596
v 0.755191 0.228652 -0.221372
v 0.755151 0.234209 -0.24061
v 0.75003 0.234427 -0.252974
v 0.743469 0.234354 -0.251252
v 0.749316 0.234105 -0.237138
v 0.749316 0.234105 -0.237138
v 0.743469 0.234354 -0.251252
v 0.738667 0.230394 -0.249991
v 0.745044 0.230121 -0.234596
v 0.75003 0.234427 -0.252974
v 0.748281 0.233675 -0.266257
v 0.741474 0.233494 -0.266405
v 0.743469 0.234354 -0.251252
v 0.743469 0.234354 -0.251252
v 0.741474 0.233494 -0.266405
v 0.736492 0.229453 -0.266514
v 0.738667 0.230394 -0.249991
v 0.748281 0.233675 -0.266257
v 0.750038 0.231996 -0.279602
v 0.743474 0.231581 -0.28159
v 0.741474 0.233494 -0.266405
v 0.741474 0.233494 -0.266405
v 0.743474 0.231581 -0.28159
v 0.738668 0.227362 -0.283045
v 0.736492 0.229453 -0.266514
v 0.750038 0.231996 -0.279602
v 0.755224 0.229492 -0.292122
v 0.749352 0.228739 -0.295782
v 0.743474 0.231581 -0.28159
v 0.743474 0.231581 -0.28159
v 0.749352 0.228739 -0.295782
v 0.745054 0.224264 -0.298461
v 0.738668 0.227362 -0.283045
v 0.755224 0.229492 -0.292122
v 0.76353 0.226323 -0.302947
v 0.758732 0.225157 -0.308006
v 0.749352 0.228739 -0.295782
v 0.749352 0.228739 -0.295782
v 0.758732 0.225157 -0.308006
v 0.755219 0.220372 -0.311709
v 0.745054 0.224264 -0.298461
v 0.76353 0.226323 -0.302947
v 0.774412 0.222702 -0.311297
v 0.770984 0.221078 -0.317408
v 0.758732 0.225157 -0.308006
v 0.758732 0.225157 -0.308006
v 0.770984 0.221078 -0.317408
v 0.768475 0.215953 -0.321881
v 0.755219 0.220372 -0.311709
v 0.774412 0.222702 -0.311297
v 0.787115 0.218886 -0.316559
v 0.785268 0.216786 -0.323324
v 0.770984 0.221078 -0.317408
v 0.770984 0.221078 -0.317408
v 0.785268 0.216786 -0.323324
v 0.783915 0.211312 -0.328276
v 0.768475 0.215953 -0.321881
v 0.787115 0.218886 -0.316559
v 0.800734 0.215144 -0.318352
v 0.800589 0.212578 -0.325341
v 0.785268 0.216786 -0.323324
v 0.785268 0.216786 -0.323324
v 0.800589 0.212578 -0.325341
v 0.800483 0.206766 -0.330458
v 0.783915 0.211312 -0.328276
v 0.800734 0.215144 -0.318352
v 0.814298 0.211744 -0.316566
v 0.815883 0.208747 -0.323328
v 0.800589 0.212578 -0.325341
v 0.800589 0.212578 -0.325341
v 0.815883 0.208747 -0.323328
v 0.817044 0.202626 -0.328277
v 0.800483 0.206766 -0.330458
v 0.814298 0.211744 -0.316566
v 0.826858 0.208919 -0.311364
v 0.830095 0.205554 -0.317441
v 0.815883 0.208747 -0.323328
v 0.815883 0.208747 -0.323328
v 0.830095 0.205554 -0.317441
v 0.832465 0.199172 -0.32189
v 0.817044 0.202626 -0.328277
v 0.826858 0.208919 -0.311364
v 0.837567 0.206855 -0.303146
v 0.842261 0.203213 -0.308105
v 0.830095 0.205554 -0.317441
v 0.830095 0.205554 -0.317441
v 0.842261 0.203213 -0.308105
v 0.845697 0.196635 -0.311736
v 0.832465 0.199172 -0.32189
v 0.837567 0.206855 -0.303146
v 0.845737 0.205679 -0.292498
v 0.851573 0.201876 -0.29597
v 0.842261 0.203213 -0.308105
v 0.800444 0.219944 -0.266554
v 0.845737 0.205679 -0.292498
v 0.837567 0.206855 -0.303146
v 0.800444 0.219944 -0.266554
v 0.837567 0.206855 -0.303146
v 0.826858 0.208919 -0.311364
v 0.800444 0.219944 -0.266554
v 0.850851 0.207892 -0.253506
v 0.852608 0.206213 -0.266852
v 0.800444 0.219944 -0.266554
v 0.852608 0.206213 -0.266852
v 0.850859 0.205461 -0.280134
v 0.800444 0.219944 -0.266554
v 0.850859 0.205461 -0.280134
v 0.845737 0.205679 -0.292498
v 0.800444 0.219944 -0.266554
v 0.826858 0.208919 -0.311364
v 0.814298 0.211744 -0.316566
v 0.800444 0.219944 -0.266554
v 0.814298 0.211744 -0.316566
v 0.800734 0.215144 -0.318352
v 0.800444 0.219944 -0.266554
v 0.800734 0.215144 -0.318352
v 0.787115 0.218886 -0.316559
v 0.800444 0.219944 -0.266554
v 0.787115 0.218886 -0.316559
v 0.774412 0.222702 -0.311297
v 0.800444 0.219944 -0.266554
v 0.774412 0.222702 -0.311297
v 0.76353 0.226323 -0.302947
v 0.800444 0.219944 -0.266554
v 0.76353 0.226323 -0.302947
v 0.755224 0.229492 -0.292122
v 0.800444 0.219944 -0.266554
v 0.755224 0.229492 -0.292122
v 0.750038 0.231996 -0.279602
v 0.800444 0.219944 -0.266554
v 0.750038 0.231996 -0.279602
v 0.748281 0.233675 -0.266257
v 0.800444 0.219944 -0.266554
v 0.748281 0.233675 -0.266257
v 0.75003 0.234427 -0.252974
v 0.800444 0.219944 -0.266554
v 0.75003 0.234427 -0.252974
v 0.755151 0.234209 -0.24061
v 0.800444 0.219944 -0.266554
v 0.755151 0.234209 -0.24061
v 0.763321 0.233033 -0.229962
v 0.800444 0.219944 -0.266554
v 0.763321 0.233033 -0.229962
v 0.774031 0.230969 -0.221744
v 0.800444 0.219944 -0.266554
v 0.774031 0.230969 -0.221744
v 0.786591 0.228144 -0.216542
v 0.800444 0.219944 -0.266554
v 0.786591 0.228144 -0.216542
v 0.800155 0.224743 -0.214756
v 0.800444 0.219944 -0.266554
v 0.800155 0.224743 -0.214756
v 0.813773 0.221002 -0.216549
v 0.800444 0.219944 -0.266554
v 0.813773 0.221002 -0.216549
v 0.826476 0.217185 -0.221811
v 0.800444 0.219944 -0.266554
v 0.826476 0.217185 -0.221811
v 0.837358 0.213565 -0.230161
v 0.800444 0.219944 -0.266554
v 0.837358 0.213565 -0.230161
v 0.845665 0.210396 -0.240986
v 0.800444 0.219944 -0.266554
v 0.845665 0.210396 -0.240986
v 0.850851 0.207892 -0.253506
vn 1 -0 -0
vn 0.9659 -0 -0.2588
vn 0.9595 0.1107 -0.2592
vn 0.9937 0.1114 -0.0093
vn 0.9659 -0 0.2588
vn 1 -0 -0
vn 0.9937 0.1114 -0.0093
vn 0.9638 0.1131 0.2414
vn 0.9102 0.4126 -0.0355
vn 0.8908 0.4196 0.1746
vn 0.9638 0.1131 0.2414
vn 0.9937 0.1114 -0.0093
vn 0.8792 0.4094 -0.2436
vn 0.9102 0.4126 -0.0355
vn 0.9937 0.1114 -0.0093
vn 0.9595 0.1107 -0.2592
vn 0.8908 0.4196 0.1746
vn 0.8211 0.43 0.3752
vn 0.8713 0.1154 0.4769
vn 0.9638 0.1131 0.2414
vn 0.866 -0 0.5
vn 0.9659 -0 0.2588
vn 0.9638 0.1131 0.2414
vn 0.8713 0.1154 0.4769
vn 0.8211 0.43 0.3752
vn 0.7038 0.4433 0.5551
vn 0.7216 0.1182 0.6822
vn 0.8713 0.1154 0.4769
vn 0.7071 -0 0.7071
vn 0.866 -0 0.5
vn 0.8713 0.1154 0.4769
vn 0.7216 0.1182 0.6822
vn 0.5 -0 0.866
vn 0.7071 -0 0.7071
vn 0.7216 0.1182 0.6822
vn 0.5234 0.1212 0.8434
vn 0.2588 -0 0.9659
vn 0.5 -0 0.866
vn 0.5234 0.1212 0.8434
vn 0.2888 0.1241 0.9493
vn 0.7038 0.4433 0.5551
vn 0.5433 0.4586 0.7032
vn 0.5234 0.1212 0.8434
vn 0.7216 0.1182 0.6822
vn 0.5433 0.4586 0.7032
vn 0.3466 0.4753 0.8087
vn 0.2888 0.1241 0.9493
vn 0.5234 0.1212 0.8434
vn 0.3466 0.4753 0.8087
vn 0.1233 0.4922 0.8617
vn 0.0326 0.1267 0.9914
vn 0.2888 0.1241 0.9493
vn -0 -0 1
vn 0.2588 -0 0.9659
vn 0.2888 0.1241 0.9493
vn 0.0326 0.1267 0.9914
vn 0.1233 0.4922 0.8617
vn -0.113 0.5084 0.8537
vn -0.2282 0.1288 0.9651
vn 0.0326 0.1267 0.9914
vn -0.2588 -0 0.9659
vn -0 -0 1
vn 0.0326 0.1267 0.9914
vn -0.2282 0.1288 0.9651
vn -0.5 -0 0.866
vn -0.2588 -0 0.9659
vn -0.2282 0.1288 0.9651
vn -0.475 0.1304 0.8703
vn -0.7071 -0 0.7071
vn -0.5 -0 0.866
vn -0.475 0.1304 0.8703
vn -0.6895 0.1314 0.7122
vn -0.113 0.5084 0.8537
vn -0.3451 0.5226 0.7796
vn -0.475 0.1304 0.8703
vn -0.2282 0.1288 0.9651
vn -0.3451 0.5226 0.7796
vn -0.5527 0.5334 0.6403
vn -0.6895 0.1314 0.7122
vn -0.475 0.1304 0.8703
vn -0.5527 0.5334 0.6403
vn -0.7151 0.5398 0.4442
vn -0.8549 0.1319 0.5017
vn -0.6895 0.1314 0.7122
vn -0.866 -0 0.5
vn -0.7071 -0 0.7071
vn -0.6895 0.1314 0.7122
vn -0.8549 0.1319 0.5017
vn -0.7151 0.5398 0.4442
vn -0.815 0.541 0.2076
vn -0.9582 0.132 0.2539
vn -0.8549 0.1319 0.5017
vn -0.9659 -0 0.2588
vn -0.866 -0 0.5
vn -0.8549 0.1319 0.5017
vn -0.9582 0.132 0.2539
vn -1 -0 -0
vn -0.9659 -0 0.2588
vn -0.9582 0.132 0.2539
vn -0.9912 0.1317 -0.0121
vn -0.9659 -0 -0.2588
vn -1 -0 -0
vn -0.9912 0.1317 -0.0121
vn -0.9521 0.1309 -0.2763
vn -0.815 0.541 0.2076
vn -0.8423 0.5369 -0.0469
vn -0.9912 0.1317 -0.0121
vn -0.9582 0.132 0.2539
vn -0.8423 0.5369 -0.0469
vn -0.7964 0.5279 -0.2951
vn -0.9521 0.1309 -0.2763
vn -0.9912 0.1317 -0.0121
vn -0.7964 0.5279 -0.2951
vn -0.6851 0.5151 -0.5151
vn -0.8448 0.1296 -0.5191
vn -0.9521 0.1309 -0.2763
vn -0.866 -0 -0.5
vn -0.9659 -0 -0.2588
vn -0.9521 0.1309 -0.2763
vn -0.8448 0.1296 -0.5191
vn -0.6851 0.5151 -0.5151
vn -0.5223 0.4996 -0.691
vn -0.6787 0.1278 -0.7232
vn -0.8448 0.1296 -0.5191
vn -0.7071 -0 -0.7071
vn -0.866 -0 -0.5
vn -0.8448 0.1296 -0.5191
vn -0.6787 0.1278 -0.7232
vn -0.5 -0 -0.866
vn -0.7071 -0 -0.7071
vn -0.6787 0.1278 -0.7232
vn -0.467 0.1253 -0.8753
vn -0.2588 -0 -0.9659
vn -0.5 -0 -0.866
vn -0.467 0.1253 -0.8753
vn -0.2252 0.1225 -0.9666
vn -0.5223 0.4996 -0.691
vn -0.3245 0.4829 -0.8133
vn -0.467 0.1253 -0.8753
vn -0.6787 0.1278 -0.7232
vn -0.3245 0.4829 -0.8133
vn -0.1081 0.466 -0.8782
vn -0.2252 0.1225 -0.9666
vn -0.467 0.1253 -0.8753
vn -0.1081 0.466 -0.8782
vn 0.1121 0.4499 -0.886
vn 0.0298 0.1195 -0.9924
vn -0.2252 0.1225 -0.9666
vn -0 -0 -1
vn -0.2588 -0 -0.9659
vn -0.2252 0.1225 -0.9666
vn 0.0298 0.1195 -0.9924
vn 0.1121 0.4499 -0.886
vn 0.3234 0.4357 -0.84
vn 0.2812 0.1166 -0.9525
vn 0.0298 0.1195 -0.9924
vn 0.2588 -0 -0.9659
vn -0 -0 -1
vn 0.0298 0.1195 -0.9924
vn 0.2812 0.1166 -0.9525
vn 0.5 -0 -0.866
vn 0.2588 -0 -0.9659
vn 0.2812 0.1166 -0.9525
vn 0.5133 0.114 -0.8506
vn 0.7071 -0 -0.7071
vn 0.5 -0 -0.866
vn 0.5133 0.114 -0.8506
vn 0.7115 0.1121 -0.6937
vn 0.3234 0.4357 -0.84
vn 0.5145 0.4239 -0.7454
vn 0.5133 0.114 -0.8506
vn 0.2812 0.1166 -0.9525
vn 0.5145 0.4239 -0.7454
vn 0.676 0.4153 -0.6087
vn 0.7115 0.1121 -0.6937
vn 0.5133 0.114 -0.8506
vn 0.676 0.4153 -0.6087
vn 0.7997 0.4103 -0.4383
vn 0.8633 0.1109 -0.4923
vn 0.7115 0.1121 -0.6937
vn 0.866 -0 -0.5
vn 0.7071 -0 -0.7071
vn 0.7115 0.1121 -0.6937
vn 0.8633 0.1109 -0.4923
vn 0.7997 0.4103 -0.4383
vn 0.8792 0.4094 -0.2436
vn 0.9595 0.1107 -0.2592
vn 0.8633 0.1109 -0.4923
vn 0.9659 -0 -0.2588
vn 0.866 -0 -0.5
vn 0.8633 0.1109 -0.4923
vn 0.9595 0.1107 -0.2592
vn 0.5289 0.7463 -0.4041
vn 0.601 0.7394 -0.3034
vn 0.7997 0.4103 -0.4383
vn 0.676 0.4153 -0.6087
vn 0.601 0.7394 -0.3034
vn 0.6477 0.7382 -0.1885
vn 0.8792 0.4094 -0.2436
vn 0.7997 0.4103 -0.4383
vn 0.6477 0.7382 -0.1885
vn 0.6665 0.7425 -0.066
vn 0.9102 0.4126 -0.0355
vn 0.8792 0.4094 -0.2436
vn 0.3603 0.9203 -0.1526
vn 0.374 0.9197 -0.1193
vn 0.6477 0.7382 -0.1885
vn 0.601 0.7394 -0.3034
vn 0.374 0.9197 -0.1193
vn 0.3791 0.9215 -0.0837
vn 0.6665 0.7425 -0.066
vn 0.6477 0.7382 -0.1885
vn 0.3791 0.9215 -0.0837
vn 0.3756 0.9255 -0.0484
vn 0.6564 0.7523 0.0574
vn 0.6665 0.7425 -0.066
vn 0.6665 0.7425 -0.066
vn 0.6564 0.7523 0.0574
vn 0.8908 0.4196 0.1746
vn 0.9102 0.4126 -0.0355
vn 0.3756 0.9255 -0.0484
vn 0.3636 0.9314 -0.0155
vn 0.6175 0.7669 0.175
vn 0.6564 0.7523 0.0574
vn 0.6564 0.7523 0.0574
vn 0.6175 0.7669 0.175
vn 0.8211 0.43 0.3752
vn 0.8908 0.4196 0.1746
vn 0.3636 0.9314 -0.0155
vn 0.3441 0.9388 0.0131
vn 0.5515 0.7856 0.2806
vn 0.6175 0.7669 0.175
vn 0.6175 0.7669 0.175
vn 0.5515 0.7856 0.2806
vn 0.7038 0.4433 0.5551
vn 0.8211 0.43 0.3752
vn 0.3441 0.9388 0.0131
vn 0.3182 0.9473 0.0356
vn 0.4606 0.8076 0.3683
vn 0.5515 0.7856 0.2806
vn 0.5515 0.7856 0.2806
vn 0.4606 0.8076 0.3683
vn 0.5433 0.4586 0.7032
vn 0.7038 0.4433 0.5551
vn 0.3182 0.9473 0.0356
vn 0.2873 0.9565 0.0509
vn 0.3481 0.8319 0.4322
vn 0.4606 0.8076 0.3683
vn 0.4606 0.8076 0.3683
vn 0.3481 0.8319 0.4322
vn 0.3466 0.4753 0.8087
vn 0.5433 0.4586 0.7032
vn 0.2873 0.9565 0.0509
vn 0.2528 0.9658 0.0578
vn 0.2187 0.8573 0.4661
vn 0.3481 0.8319 0.4322
vn 0.3481 0.8319 0.4322
vn 0.2187 0.8573 0.4661
vn 0.1233 0.4922 0.8617
vn 0.3466 0.4753 0.8087
vn 0.2528 0.9658 0.0578
vn 0.2166 0.9747 0.0551
vn 0.0793 0.8821 0.4644
vn 0.2187 0.8573 0.4661
vn 0.2187 0.8573 0.4661
vn 0.0793 0.8821 0.4644
vn -0.113 0.5084 0.8537
vn 0.1233 0.4922 0.8617
vn 0.2166 0.9747 0.0551
vn 0.1812 0.9825 0.0423
vn -0.0601 0.9043 0.4225
vn 0.0793 0.8821 0.4644
vn 0.0793 0.8821 0.4644
vn -0.0601 0.9043 0.4225
vn -0.3451 0.5226 0.7796
vn -0.113 0.5084 0.8537
vn 0.1812 0.9825 0.0423
vn 0.1494 0.9886 0.0195
vn -0.1869 0.9218 0.3397
vn -0.0601 0.9043 0.4225
vn -0.0601 0.9043 0.4225
vn -0.1869 0.9218 0.3397
vn -0.5527 0.5334 0.6403
vn -0.3451 0.5226 0.7796
vn 0.1494 0.9886 0.0195
vn 0.1243 0.9922 -0.012
vn -0.2872 0.9322 0.2203
vn -0.1869 0.9218 0.3397
vn -0.1869 0.9218 0.3397
vn -0.2872 0.9322 0.2203
vn -0.7151 0.5398 0.4442
vn -0.5527 0.5334 0.6403
vn 0.1243 0.9922 -0.012
vn 0.1085 0.9929 -0.0497
vn -0.349 0.9342 0.0747
vn -0.2872 0.9322 0.2203
vn -0.2872 0.9322 0.2203
vn -0.349 0.9342 0.0747
vn -0.815 0.541 0.2076
vn -0.7151 0.5398 0.4442
vn 0.1085 0.9929 -0.0497
vn 0.1037 0.9905 -0.09
vn -0.3651 0.9274 -0.0817
vn -0.349 0.9342 0.0747
vn -0.349 0.9342 0.0747
vn -0.3651 0.9274 -0.0817
vn -0.8423 0.5369 -0.0469
vn -0.815 0.541 0.2076
vn 0.1037 0.9905 -0.09
vn 0.1099 0.9855 -0.1292
vn -0.3355 0.9129 -0.2325
vn -0.3651 0.9274 -0.0817
vn -0.3651 0.9274 -0.0817
vn -0.3355 0.9129 -0.2325
vn -0.7964 0.5279 -0.2951
vn -0.8423 0.5369 -0.0469
vn 0.1099 0.9855 -0.1292
vn 0.126 0.9784 -0.1639
vn -0.2666 0.8925 -0.3638
vn -0.3355 0.9129 -0.2325
vn -0.3355 0.9129 -0.2325
vn -0.2666 0.8925 -0.3638
vn -0.6851 0.5151 -0.5151
vn -0.7964 0.5279 -0.2951
vn 0.126 0.9784 -0.1639
vn 0.15 0.9699 -0.192
vn -0.168 0.8686 -0.4662
vn -0.2666 0.8925 -0.3638
vn -0.2666 0.8925 -0.3638
vn -0.168 0.8686 -0.4662
vn -0.5223 0.4996 -0.691
vn -0.6851 0.5151 -0.5151
vn 0.15 0.9699 -0.192
vn 0.1795 0.9607 -0.2119
vn -0.0506 0.8432 -0.5352
vn -0.168 0.8686 -0.4662
vn -0.168 0.8686 -0.4662
vn -0.0506 0.8432 -0.5352
vn -0.3245 0.4829 -0.8133
vn -0.5223 0.4996 -0.691
vn 0.1795 0.9607 -0.2119
vn 0.2124 0.9514 -0.223
vn 0.076 0.8183 -0.5698
vn -0.0506 0.8432 -0.5352
vn -0.0506 0.8432 -0.5352
vn 0.076 0.8183 -0.5698
vn -0.1081 0.466 -0.8782
vn -0.3245 0.4829 -0.8133
vn 0.2124 0.9514 -0.223
vn 0.2467 0.9425 -0.2253
vn 0.2034 0.7951 -0.5714
vn 0.076 0.8183 -0.5698
vn 0.076 0.8183 -0.5698
vn 0.2034 0.7951 -0.5714
vn 0.1121 0.4499 -0.886
vn -0.1081 0.466 -0.8782
vn 0.2467 0.9425 -0.2253
vn 0.2805 0.9346 -0.2188
vn 0.3252 0.7748 -0.5422
vn 0.2034 0.7951 -0.5714
vn 0.2034 0.7951 -0.5714
vn 0.3252 0.7748 -0.5422
vn 0.3234 0.4357 -0.84
vn 0.1121 0.4499 -0.886
vn 0.2805 0.9346 -0.2188
vn 0.312 0.928 -0.2039
vn 0.4354 0.7582 -0.4853
vn 0.3252 0.7748 -0.5422
vn 0.3252 0.7748 -0.5422
vn 0.4354 0.7582 -0.4853
vn 0.5145 0.4239 -0.7454
vn 0.3234 0.4357 -0.84
vn 0.312 0.928 -0.2039
vn 0.3392 0.9231 -0.1814
vn 0.5289 0.7463 -0.4041
vn 0.4354 0.7582 -0.4853
vn 0.4354 0.7582 -0.4853
vn 0.5289 0.7463 -0.4041
vn 0.676 0.4153 -0.6087
vn 0.5145 0.4239 -0.7454
vn 0.3392 0.9231 -0.1814
vn 0.3603 0.9203 -0.1526
vn 0.601 0.7394 -0.3034
vn 0.5289 0.7463 -0.4041
vn 0.2531 0.9634 -0.0879
vn 0.3603 0.9203 -0.1526
vn 0.3392 0.9231 -0.1814
vn 0.2531 0.9634 -0.0879
vn 0.3392 0.9231 -0.1814
vn 0.312 0.928 -0.2039
vn 0.2531 0.9634 -0.0879
vn 0.3756 0.9255 -0.0484
vn 0.3791 0.9215 -0.0837
vn 0.2531 0.9634 -0.0879
vn 0.3791 0.9215 -0.0837
vn 0.374 0.9197 -0.1193
vn 0.2531 0.9634 -0.0879
vn 0.374 0.9197 -0.1193
vn 0.3603 0.9203 -0.1526
vn 0.2531 0.9634 -0.0879
vn 0.312 0.928 -0.2039
vn 0.2805 0.9346 -0.2188
vn 0.2531 0.9634 -0.0879
vn 0.2805 0.9346 -0.2188
vn 0.2467 0.9425 -0.2253
vn 0.2531 0.9634 -0.0879
vn 0.2467 0.9425 -0.2253
vn 0.2124 0.9514 -0.223
vn 0.2531 0.9634 -0.0879
vn 0.2124 0.9514 -0.223
vn 0.1795 0.9607 -0.2119
vn 0.2531 0.9634 -0.0879
vn 0.1795 0.9607 -0.2119
vn 0.15 0.9699 -0.192
vn 0.2531 0.9634 -0.0879
vn 0.15 0.9699 -0.192
vn 0.126 0.9784 -0.1639
vn 0.2531 0.9634 -0.0879
vn 0.126 0.9784 -0.1639
vn 0.1099 0.9855 -0.1292
vn 0.2531 0.9634 -0.0879
vn 0.1099 0.9855 -0.1292
vn 0.1037 0.9905 -0.09
vn 0.2531 0.9634 -0.0879
vn 0.1037 0.9905 -0.09
vn 0.1085 0.9929 -0.0497
vn 0.2531 0.9634 -0.0879
vn 0.1085 0.9929 -0.0497
vn 0.1243 0.9922 -0.012
vn 0.2531 0.9634 -0.0879
vn 0.1243 0.9922 -0.012
vn 0.1494 0.9886 0.0195
vn 0.2531 0.9634 -0.0879
vn 0.1494 0.9886 0.0195
vn 0.1812 0.9825 0.0423
vn 0.2531 0.9634 -0.0879
vn 0.1812 0.9825 0.0423
vn 0.2166 0.9747 0.0551
vn 0.2531 0.9634 -0.0879
vn 0.2166 0.9747 0.0551
vn 0.2528 0.9658 0.0578
vn 0.2531 0.9634 -0.0879
vn 0.2528 0.9658 0.0578
vn 0.2873 0.9565 0.0509
vn 0.2531 0.9634 -0.0879
vn 0.2873 0.9565 0.0509
vn 0.3182 0.9473 0.0356
vn 0.2531 0.9634 -0.0879
vn 0.3182 0.9473 0.0356
vn 0.3441 0.9388 0.0131
vn 0.2531 0.9634 -0.0879
vn 0.3441 0.9388 0.0131
vn 0.3636 0.9314 -0.0155
vn 0.2531 0.9634 -0.0879
vn 0.3636 0.9314 -0.0155
vn 0.3756 0.9255 -0.0484
vt 0.300551 0.203258
vt 0.288827 0.203258
vt 0.288827 0.236289
vt 0.300551 0.236939
vt 0.312275 0.203258
vt 0.300551 0.203258
vt 0.300551 0.236939
vt 0.312275 0.238385
vt 0.810801 0.632123
vt 0.799418 0.628956
vt 0.797944 0.63454
vt 0.810497 0.637896
vt 0.822504 0.632159
vt 0.810801 0.632123
vt 0.810497 0.637896
vt 0.823369 0.637873
vt 0.799418 0.628956
vt 0.789115 0.622824
vt 0.786496 0.62797
vt 0.797944 0.63454
vt 0.323999 0.203258
vt 0.312275 0.203258
vt 0.312275 0.238385
vt 0.323999 0.240531
vt 0.789115 0.622824
vt 0.780651 0.614055
vt 0.776903 0.618463
vt 0.786496 0.62797
vt 0.335723 0.203258
vt 0.323999 0.203258
vt 0.323999 0.240531
vt 0.335723 0.243236
vt 0.347447 0.203258
vt 0.335723 0.203258
vt 0.335723 0.243236
vt 0.347447 0.246318
vt 0.359171 0.203258
vt 0.347447 0.203258
vt 0.347447 0.246318
vt 0.359171 0.249571
vt 0.780651 0.614055
vt 0.774861 0.603244
vt 0.770305 0.606532
vt 0.776903 0.618463
vt 0.774861 0.603244
vt 0.772038 0.591395
vt 0.766952 0.593422
vt 0.770305 0.606532
vt 0.772038 0.591395
vt 0.772264 0.579335
vt 0.766952 0.579964
vt 0.766952 0.593422
vt 0.370895 0.203258
vt 0.359171 0.203258
vt 0.359171 0.249571
vt 0.370895 0.252772
vt 0.772264 0.579335
vt 0.775455 0.567862
vt 0.770287 0.567011
vt 0.766952 0.579964
vt 0.382619 0.203258
vt 0.370895 0.203258
vt 0.370895 0.252772
vt 0.382619 0.255702
vt 0.394343 0.203258
vt 0.382619 0.203258
vt 0.382619 0.255702
vt 0.394343 0.258159
vt 0.406067 0.203258
vt 0.394343 0.203258
vt 0.394343 0.258159
vt 0.406067 0.25997
vt 0.775455 0.567862
vt 0.781338 0.557713
vt 0.776742 0.555406
vt 0.770287 0.567011
vt 0.781338 0.557713
vt 0.78949 0.549511
vt 0.785903 0.545925
vt 0.776742 0.555406
vt 0.78949 0.549511
vt 0.799377 0.543745
vt 0.797185 0.539219
vt 0.785903 0.545925
vt 0.417791 0.203258
vt 0.406067 0.203258
vt 0.406067 0.25997
vt 0.417791 0.261008
vt 0.799377 0.543745
vt 0.810384 0.54076
vt 0.80983 0.535765
vt 0.797185 0.539219
vt 0.429515 0.203258
vt 0.417791 0.203258
vt 0.417791 0.261008
vt 0.429515 0.261202
vt 0.441239 0.203258
vt 0.429515 0.203258
vt 0.429515 0.261202
vt 0.441239 0.260536
vt 0.452963 0.203258
vt 0.441239 0.203258
vt 0.441239 0.260536
vt 0.452963 0.259058
vt 0.810384 0.54076
vt 0.821824 0.540773
vt 0.822964 0.535836
vt 0.80983 0.535765
vt 0.821824 0.540773
vt 0.832989 0.543774
vt 0.8357 0.539394
vt 0.822964 0.535836
vt 0.832989 0.543774
vt 0.843191 0.549643
vt 0.847216 0.546225
vt 0.8357 0.539394
vt 0.464687 0.203258
vt 0.452963 0.203258
vt 0.452963 0.259058
vt 0.464687 0.256871
vt 0.843191 0.549643
vt 0.851734 0.558125
vt 0.856764 0.555995
vt 0.847216 0.546225
vt 0.476411 0.203258
vt 0.464687 0.203258
vt 0.464687 0.256871
vt 0.476411 0.25413
vt 0.488135 0.203258
vt 0.476411 0.203258
vt 0.476411 0.25413
vt 0.488135 0.251023
vt 0.499859 0.203258
vt 0.488135 0.203258
vt 0.488135 0.251023
vt 0.499859 0.247766
vt 0.851734 0.558125
vt 0.857733 0.568743
vt 0.863184 0.568131
vt 0.856764 0.555995
vt 0.857733 0.568743
vt 0.86081 0.580534
vt 0.866283 0.581322
vt 0.863184 0.568131
vt 0.86081 0.580534
vt 0.860831 0.592656
vt 0.866024 0.594715
vt 0.866283 0.581322
vt 0.511583 0.203258
vt 0.499859 0.203258
vt 0.499859 0.247766
vt 0.511583 0.244581
vt 0.860831 0.592656
vt 0.857832 0.604298
vt 0.862496 0.607476
vt 0.866024 0.594715
vt 0.523307 0.203258
vt 0.511583 0.203258
vt 0.511583 0.244581
vt 0.523307 0.241683
vt 0.535031 0.203258
vt 0.523307 0.203258
vt 0.523307 0.241683
vt 0.535031 0.239267
vt 0.546755 0.203258
vt 0.535031 0.203258
vt 0.535031 0.239267
vt 0.546755 0.237492
vt 0.857832 0.604298
vt 0.852031 0.614688
vt 0.855962 0.61881
vt 0.862496 0.607476
vt 0.852031 0.614688
vt 0.843827 0.623143
vt 0.846853 0.628018
vt 0.855962 0.61881
vt 0.843827 0.623143
vt 0.833762 0.629101
vt 0.835752 0.634512
vt 0.846853 0.628018
vt 0.558479 0.203258
vt 0.546755 0.203258
vt 0.546755 0.237492
vt 0.558479 0.236477
vt 0.833762 0.629101
vt 0.822504 0.632159
vt 0.823369 0.637873
vt 0.835752 0.634512
vt 0.570203 0.203258
vt 0.558479 0.203258
vt 0.558479 0.236477
vt 0.570203 0.236289
vt 0.840657 0.618423
vt 0.831698 0.623742
vt 0.833762 0.629101
vt 0.843827 0.623143
vt 0.831698 0.623742
vt 0.821681 0.626458
vt 0.822504 0.632159
vt 0.833762 0.629101
vt 0.821681 0.626458
vt 0.811268 0.626398
vt 0.810801 0.632123
vt 0.822504 0.632159
vt 0.82971 0.618862
vt 0.820973 0.621226
vt 0.821681 0.626458
vt 0.831698 0.623742
vt 0.820973 0.621226
vt 0.811887 0.621158
vt 0.811268 0.626398
vt 0.821681 0.626458
vt 0.811887 0.621158
vt 0.80304 0.618631
vt 0.80114 0.623528
vt 0.811268 0.626398
vt 0.811268 0.626398
vt 0.80114 0.623528
vt 0.799418 0.628956
vt 0.810801 0.632123
vt 0.80304 0.618631
vt 0.795043 0.613766
vt 0.791995 0.617997
vt 0.80114 0.623528
vt 0.80114 0.623528
vt 0.791995 0.617997
vt 0.789115 0.622824
vt 0.799418 0.628956
vt 0.795043 0.613766
vt 0.788499 0.606855
vt 0.784523 0.61013
vt 0.791995 0.617997
vt 0.791995 0.617997
vt 0.784523 0.61013
vt 0.780651 0.614055
vt 0.789115 0.622824
vt 0.788499 0.606855
vt 0.78394 0.598389
vt 0.779378 0.600491
vt 0.784523 0.61013
vt 0.784523 0.61013
vt 0.779378 0.600491
vt 0.774861 0.603244
vt 0.780651 0.614055
vt 0.78394 0.598389
vt 0.781684 0.589038
vt 0.776874 0.589898
vt 0.779378 0.600491
vt 0.779378 0.600491
vt 0.776874 0.589898
vt 0.772038 0.591395
vt 0.774861 0.603244
vt 0.781684 0.589038
vt 0.781846 0.579503
vt 0.777103 0.579125
vt 0.776874 0.589898
vt 0.776874 0.589898
vt 0.777103 0.579125
vt 0.772264 0.579335
vt 0.772038 0.591395
vt 0.781846 0.579503
vt 0.784348 0.570462
vt 0.779973 0.568909
vt 0.777103 0.579125
vt 0.777103 0.579125
vt 0.779973 0.568909
vt 0.775455 0.567862
vt 0.772264 0.579335
vt 0.784348 0.570462
vt 0.788949 0.56251
vt 0.78522 0.559911
vt 0.779973 0.568909
vt 0.779973 0.568909
vt 0.78522 0.559911
vt 0.781338 0.557713
vt 0.775455 0.567862
vt 0.788949 0.56251
vt 0.795291 0.55613
vt 0.792447 0.552671
vt 0.78522 0.559911
vt 0.78522 0.559911
vt 0.792447 0.552671
vt 0.78949 0.549511
vt 0.781338 0.557713
vt 0.795291 0.55613
vt 0.802942 0.551675
vt 0.801175 0.5476
vt 0.792447 0.552671
vt 0.792447 0.552671
vt 0.801175 0.5476
vt 0.799377 0.543745
vt 0.78949 0.549511
vt 0.802942 0.551675
vt 0.811432 0.549387
vt 0.810873 0.544979
vt 0.801175 0.5476
vt 0.801175 0.5476
vt 0.810873 0.544979
vt 0.810384 0.54076
vt 0.799377 0.543745
vt 0.811432 0.549387
vt 0.820263 0.549407
vt 0.820956 0.544988
vt 0.810873 0.544979
vt 0.810873 0.544979
vt 0.820956 0.544988
vt 0.821824 0.540773
vt 0.810384 0.54076
vt 0.820263 0.549407
vt 0.828907 0.55176
vt 0.830814 0.547634
vt 0.820956 0.544988
vt 0.820956 0.544988
vt 0.830814 0.547634
vt 0.832989 0.543774
vt 0.821824 0.540773
vt 0.828907 0.55176
vt 0.83682 0.556365
vt 0.839842 0.552825
vt 0.830814 0.547634
vt 0.830814 0.547634
vt 0.839842 0.552825
vt 0.843191 0.549643
vt 0.832989 0.543774
vt 0.83682 0.556365
vt 0.843431 0.563005
vt 0.847405 0.560333
vt 0.839842 0.552825
vt 0.839842 0.552825
vt 0.847405 0.560333
vt 0.851734 0.558125
vt 0.843191 0.549643
vt 0.843431 0.563005
vt 0.848183 0.571273
vt 0.852807 0.56972
vt 0.847405 0.560333
vt 0.847405 0.560333
vt 0.852807 0.56972
vt 0.857733 0.568743
vt 0.851734 0.558125
vt 0.848183 0.571273
vt 0.850694 0.580555
vt 0.855641 0.58023
vt 0.852807 0.56972
vt 0.852807 0.56972
vt 0.855641 0.58023
vt 0.86081 0.580534
vt 0.857733 0.568743
vt 0.850694 0.580555
vt 0.850786 0.590156
vt 0.855735 0.591089
vt 0.855641 0.58023
vt 0.855641 0.58023
vt 0.855735 0.591089
vt 0.860831 0.592656
vt 0.86081 0.580534
vt 0.850786 0.590156
vt 0.848471 0.59938
vt 0.853107 0.601534
vt 0.855735 0.591089
vt 0.855735 0.591089
vt 0.853107 0.601534
vt 0.857832 0.604298
vt 0.860831 0.592656
vt 0.848471 0.59938
vt 0.843942 0.607583
vt 0.847959 0.610854
vt 0.853107 0.601534
vt 0.853107 0.601534
vt 0.847959 0.610854
vt 0.852031 0.614688
vt 0.857832 0.604298
vt 0.843942 0.607583
vt 0.837539 0.614218
vt 0.840657 0.618423
vt 0.847959 0.610854
vt 0.847959 0.610854
vt 0.840657 0.618423
vt 0.843827 0.623143
vt 0.852031 0.614688
vt 0.837539 0.614218
vt 0.82971 0.618862
vt 0.831698 0.623742
vt 0.840657 0.618423
vt 0.816191 0.585042
vt 0.82971 0.618862
vt 0.837539 0.614218
vt 0.816191 0.585042
vt 0.837539 0.614218
vt 0.843942 0.607583
vt 0.816191 0.585042
vt 0.80304 0.618631
vt 0.811887 0.621158
vt 0.816191 0.585042
vt 0.811887 0.621158
vt 0.820973 0.621226
vt 0.816191 0.585042
vt 0.820973 0.621226
vt 0.82971 0.618862
vt 0.816191 0.585042
vt 0.843942 0.607583
vt 0.848471 0.59938
vt 0.816191 0.585042
vt 0.848471 0.59938
vt 0.850786 0.590156
vt 0.816191 0.585042
vt 0.850786 0.590156
vt 0.850694 0.580555
vt 0.816191 0.585042
vt 0.850694 0.580555
vt 0.848183 0.571273
vt 0.816191 0.585042
vt 0.848183 0.571273
vt 0.843431 0.563005
vt 0.816191 0.585042
vt 0.843431 0.563005
vt 0.83682 0.556365
vt 0.816191 0.585042
vt 0.83682 0.556365
vt 0.828907 0.55176
vt 0.816191 0.585042
vt 0.828907 0.55176
vt 0.820263 0.549407
vt 0.816191 0.585042
vt 0.820263 0.549407
vt 0.811432 0.549387
vt 0.816191 0.585042
vt 0.811432 0.549387
vt 0.802942 0.551675
vt 0.816191 0.585042
vt 0.802942 0.551675
vt 0.795291 0.55613
vt 0.816191 0.585042
vt 0.795291 0.55613
vt 0.788949 0.56251
vt 0.816191 0.585042
vt 0.788949 0.56251
vt 0.784348 0.570462
vt 0.816191 0.585042
vt 0.784348 0.570462
vt 0.781846 0.579503
vt 0.816191 0.585042
vt 0.781846 0.579503
vt 0.781684 0.589038
vt 0.816191 0.585042
vt 0.781684 0.589038
vt 0.78394 0.598389
vt 0.816191 0.585042
vt 0.78394 0.598389
vt 0.788499 0.606855
vt 0.816191 0.585042
vt 0.788499 0.606855
vt 0.795043 0.613766
vt 0.816191 0.585042
vt 0.795043 0.613766
vt 0.80304 0.618631
s off
f 1/1/1 2/2/2 3/3/3
f 1/1/1 3/3/3 4/4/4
f 5/5/5 6/6/6 7/7/7
f 5/5/5 7/7/7 8/8/8
f 9/9/9 10/10/10 11/11/11
f 9/9/9 11/11/11 12/12/12
f 13/13/13 14/14/14 15/15/15
f 13/13/13 15/15/15 16/16/16
f 17/17/17 18/18/18 19/19/19
f 17/17/17 19/19/19 20/20/20
f 21/21/21 22/22/22 23/23/23
f 21/21/21 23/23/23 24/24/24
f 25/25/25 26/26/26 27/27/27
f 25/25/25 27/27/27 28/28/28
f 29/29/29 30/30/30 31/31/31
f 29/29/29 31/31/31 32/32/32
f 33/33/33 34/34/34 35/35/35
f 33/33/33 35/35/35 36/36/36
f 37/37/37 38/38/38 39/39/39
f 37/37/37 39/39/39 40/40/40
f 41/41/41 42/42/42 43/43/43
f 41/41/41 43/43/43 44/44/44
f 45/45/45 46/46/46 47/47/47
f 45/45/45 47/47/47 48/48/48
f 49/49/49 50/50/50 51/51/51
f 49/49/49 51/51/51 52/52/52
f 53/53/53 54/54/54 55/55/55
f 53/53/53 55/55/55 56/56/56
f 57/57/57 58/58/58 59/59/59
f 57/57/57 59/59/59 60/60/60
f 61/61/61 62/62/62 63/63/63
f 61/61/61 63/63/63 64/64/64
f 65/65/65 66/66/66 67/67/67
f 65/65/65 67/67/67 68/68/68
f 69/69/69 70/70/70 71/71/71
f 69/69/69 71/71/71 72/72/72
f 73/73/73 74/74/74 75/75/75
f 73/73/73 75/75/75 76/76/76
f 77/77/77 78/78/78 79/79/79
f 77/77/77 79/79/79 80/80/80
f 81/81/81 82/82/82 83/83/83
f 81/81/81 83/83/83 84/84/84
f 85/85/85 86/86/86 87/87/87
f 85/85/85 87/87/87 88/88/88
f 89/89/89 90/90/90 91/91/91
f 89/89/89 91/91/91 92/92/92
f 93/93/93 94/94/94 95/95/95
f 93/93/93 95/95/95 96/96/96
f 97/97/97 98/98/98 99/99/99
f 97/97/97 99/99/99 100/100/100
f 101/101/101 102/102/102 103/103/103
f 101/101/101 103/103/103 104/104/104
f 105/105/105 106/106/106 107/107/107
f 105/105/105 107/107/107 108/108/108
f 109/109/109 110/110/110 111/111/111
f 109/109/109 111/111/111 112/112/112
f 113/113/113 114/114/114 115/115/115
f 113/113/113 115/115/115 116/116/116
f 117/117/117 118/118/118 119/119/119
f 117/117/117 119/119/119 120/120/120
f 121/121/121 122/122/122 123/123/123
f 121/121/121 123/123/123 124/124/124
f 125/125/125 126/126/126 127/127/127
f 125/125/125 127/127/127 128/128/128
f 129/129/129 130/130/130 131/131/131
f 129/129/129 131/131/131 132/132/132
f 133/133/133 134/134/134 135/135/135
f 133/133/133 135/135/135 136/136/136
f 137/137/137 138/138/138 139/139/139
f 137/137/137 139/139/139 140/140/140
f 141/141/141 142/142/142 143/143/143
f 141/141/141 143/143/143 144/144/144
f 145/145/145 146/146/146 147/147/147
f 145/145/145 147/147/147 148/148/148
f 149/149/149 150/150/150 151/151/151
f 149/149/149 151/151/151 152/152/152
f 153/153/153 154/154/154 155/155/155
f 153/153/153 155/155/155 156/156/156
f 157/157/157 158/158/158 159/159/159
f 157/157/157 159/159/159 160/160/160
f 161/161/161 162/162/162 163/163/163
f 161/161/161 163/163/163 164/164/164
f 165/165/165 166/166/166 167/167/167
f 165/165/165 167/167/167 168/168/168
f 169/169/169 170/170/170 171/171/171
f 169/169/169 171/171/171 172/172/172
f 173/173/173 174/174/174 175/175/175
f 173/173/173 175/175/175 176/176/176
f 177/177/177 178/178/178 179/179/179
f 177/177/177 179/179/179 180/180/180
f 181/181/181 182/182/182 183/183/183
f 181/181/181 183/183/183 184/184/184
f 185/185/185 186/186/186 187/187/187
f 185/185/185 187/187/187 188/188/188
f 189/189/189 190/190/190 191/191/191
f 189/189/189 191/191/191 192/192/192
f 193/193/193 194/194/194 195/195/195
f 193/193/193 195/195/195 196/196/196
f 197/197/197 198/198/198 199/199/199
f 197/197/197 199/199/199 200/200/200
f 201/201/201 202/202/202 203/203/203
f 201/201/201 203/203/203 204/204/204
f 205/205/205 206/206/206 207/207/207
f 205/205/205 207/207/207 208/208/208
f 209/209/209 210/210/210 211/211/211
f 209/209/209 211/211/211 212/212/212
f 213/213/213 214/214/214 215/215/215
f 213/213/213 215/215/215 216/216/216
f 217/217/217 218/218/218 219/219/219
f 217/217/217 219/219/219 220/220/220
f 221/221/221 222/222/222 223/223/223
f 221/221/221 223/223/223 224/224/224
f 225/225/225 226/226/226 227/227/227
f 225/225/225 227/227/227 228/228/228
f 229/229/229 230/230/230 231/231/231
f 229/229/229 231/231/231 232/232/232
f 233/233/233 234/234/234 235/235/235
f 233/233/233 235/235/235 236/236/236
f 237/237/237 238/238/238 239/239/239
f 237/237/237 239/239/239 240/240/240
f 241/241/241 242/242/242 243/243/243
f 241/241/241 243/243/243 244/244/244
f 245/245/245 246/246/246 247/247/247
f 245/245/245 247/247/247 248/248/248
f 249/249/249 250/250/250 251/251/251
f 249/249/249 251/251/251 252/252/252
f 253/253/253 254/254/254 255/255/255
f 253/253/253 255/255/255 256/256/256
f 257/257/257 258/258/258 259/259/259
f 257/257/257 259/259/259 260/260/260
f 261/261/261 262/262/262 263/263/263
f 261/261/261 263/263/263 264/264/264
f 265/265/265 266/266/266 267/267/267
f 265/265/265 267/267/267 268/268/268
f 269/269/269 270/270/270 271/271/271
f 269/269/269 271/271/271 272/272/272
f 273/273/273 274/274/274 275/275/275
f 273/273/273 275/275/275 276/276/276
f 277/277/277 278/278/278 279/279/279
f 277/277/277 279/279/279 280/280/280
f 281/281/281 282/282/282 283/283/283
f 281/281/281 283/283/283 284/284/284
f 285/285/285 286/286/286 287/287/287
f 285/285/285 287/287/287 288/288/288
f 289/289/289 290/290/290 291/291/291
f 289/289/289 291/291/291 292/292/292
f 293/293/293 294/294/294 295/295/295
f 293/293/293 295/295/295 296/296/296
f 297/297/297 298/298/298 299/299/299
f 297/297/297 299/299/299 300/300/300
f 301/301/301 302/302/302 303/303/303
f 301/301/301 303/303/303 304/304/304
f 305/305/305 306/306/306 307/307/307
f 305/305/305 307/307/307 308/308/308
f 309/309/309 310/310/310 311/311/311
f 309/309/309 311/311/311 312/312/312
f 313/313/313 314/314/314 315/315/315
f 313/313/313 315/315/315 316/316/316
f 317/317/317 318/318/318 319/319/319
f 317/317/317 319/319/319 320/320/320
f 321/321/321 322/322/322 323/323/323
f 321/321/321 323/323/323 324/324/324
f 325/325/325 326/326/326 327/327/327
f 325/325/325 327/327/327 328/328/328
f 329/329/329 330/330/330 331/331/331
f 329/329/329 331/331/331 332/332/332
f 333/333/333 334/334/334 335/335/335
f 333/333/333 335/335/335 336/336/336
f 337/337/337 338/338/338 339/339/339
f 337/337/337 339/339/339 340/340/340
f 341/341/341 342/342/342 343/343/343
f 341/341/341 343/343/343 344/344/344
f 345/345/345 346/346/346 347/347/347
f 345/345/345 347/347/347 348/348/348
f 349/349/349 350/350/350 351/351/351
f 349/349/349 351/351/351 352/352/352
f 353/353/353 354/354/354 355/355/355
f 353/353/353 355/355/355 356/356/356
f 357/357/357 358/358/358 359/359/359
f 357/357/357 359/359/359 360/360/360
f 361/361/361 362/362/362 363/363/363
f 361/361/361 363/363/363 364/364/364
f 365/365/365 366/366/366 367/367/367
f 365/365/365 367/367/367 368/368/368
f 369/369/369 370/370/370 371/371/371
f 369/369/369 371/371/371 372/372/372
f 373/373/373 374/374/374 375/375/375
f 373/373/373 375/375/375 376/376/376
f 377/377/377 378/378/378 379/379/379
f 377/377/377 379/379/379 380/380/380
f 381/381/381 382/382/382 383/383/383
f 381/381/381 383/383/383 384/384/384
f 385/385/385 386/386/386 387/387/387
f 388/388/388 389/389/389 390/390/390
f 391/391/391 392/392/392 393/393/393
f 394/394/394 395/395/395 396/396/396
f 397/397/397 398/398/398 399/399/399
f 400/400/400 401/401/401 402/402/402
f 403/403/403 404/404/404 405/405/405
f 406/406/406 407/407/407 408/408/408
f 409/409/409 410/410/410 411/411/411
f 412/412/412 413/413/413 414/414/414
f 415/415/415 416/416/416 417/417/417
f 418/418/418 419/419/419 420/420/420
f 421/421/421 422/422/422 423/423/423
f 424/424/424 425/425/425 426/426/426
f 427/427/427 428/428/428 429/429/429
f 430/430/430 431/431/431 432/432/432
f 433/433/433 434/434/434 435/435/435
f 436/436/436 437/437/437 438/438/438
f 439/439/439 440/440/440 441/441/441
f 442/442/442 443/443/443 444/444/444
f 445/445/445 446/446/446 447/447/447
f 448/448/448 449/449/449 450/450/450
f 451/451/451 452/452/452 453/453/453
f 454/454/454 455/455/455 456/456/456
