v -0.683148 -0.228007 0.772861
v -0.646492 -0.244145 0.778063
v -0.635858 -0.222178 0.777824
v -0.674998 -0.20576 0.772428
v -0.690607 -0.24974 0.768742
v -0.656262 -0.265523 0.773701
v -0.646492 -0.244145 0.778063
v -0.683148 -0.228007 0.772861
v -0.635858 -0.222178 0.777824
v -0.646492 -0.244145 0.778063
v -0.640592 -0.247276 0.777146
v -0.630049 -0.225497 0.776924
v -0.650265 -0.268439 0.772822
v -0.640592 -0.247276 0.777146
v -0.646492 -0.244145 0.778063
v -0.656262 -0.265523 0.773701
v -0.624876 -0.200653 0.773135
v -0.635858 -0.222178 0.777824
v -0.630049 -0.225497 0.776924
v -0.619152 -0.204134 0.772299
v -0.624876 -0.200653 0.773135
v -0.666459 -0.184032 0.767614
v -0.674998 -0.20576 0.772428
v -0.635858 -0.222178 0.777824
v -0.619152 -0.204134 0.772299
v -0.630049 -0.225497 0.776924
v -0.625594 -0.228413 0.772788
v -0.615044 -0.207726 0.76833
v -0.630049 -0.225497 0.776924
v -0.640592 -0.247276 0.777146
v -0.635783 -0.24946 0.772992
v -0.625594 -0.228413 0.772788
v -0.615044 -0.207726 0.76833
v -0.625594 -0.228413 0.772788
v -0.623686 -0.230144 0.766524
v -0.613651 -0.210466 0.762291
v -0.625594 -0.228413 0.772788
v -0.635783 -0.24946 0.772992
v -0.633353 -0.250112 0.766714
v -0.623686 -0.230144 0.766524
v -0.642172 -0.269405 0.762767
v -0.633353 -0.250112 0.766714
v -0.635783 -0.24946 0.772992
v -0.645108 -0.26986 0.768821
v -0.645108 -0.26986 0.768821
v -0.635783 -0.24946 0.772992
v -0.640592 -0.247276 0.777146
v -0.650265 -0.268439 0.772822
v -0.649913 -0.287446 0.755049
v -0.642172 -0.269405 0.762767
v -0.645108 -0.26986 0.768821
v -0.6533 -0.288954 0.760652
v -0.6533 -0.288954 0.760652
v -0.645108 -0.26986 0.768821
v -0.650265 -0.268439 0.772822
v -0.658772 -0.28827 0.764339
v -0.658772 -0.28827 0.764339
v -0.650265 -0.268439 0.772822
v -0.656262 -0.265523 0.773701
v -0.664862 -0.285576 0.765124
v -0.660114 -0.3061 0.749004
v -0.6533 -0.288954 0.760652
v -0.658772 -0.28827 0.764339
v -0.66586 -0.306113 0.752219
v -0.66586 -0.306113 0.752219
v -0.658772 -0.28827 0.764339
v -0.664862 -0.285576 0.765124
v -0.672037 -0.303645 0.752852
v -0.664862 -0.285576 0.765124
v -0.697231 -0.270153 0.760412
v -0.70292 -0.288495 0.748341
v -0.672037 -0.303645 0.752852
v -0.656262 -0.265523 0.773701
v -0.690607 -0.24974 0.768742
v -0.697231 -0.270153 0.760412
v -0.664862 -0.285576 0.765124
v -0.677534 -0.319067 0.737403
v -0.672037 -0.303645 0.752852
v -0.70292 -0.288495 0.748341
v -0.707574 -0.304017 0.733
v -0.711068 -0.316073 0.714906
v -0.68114 -0.331255 0.719323
v -0.677534 -0.319067 0.737403
v -0.707574 -0.304017 0.733
v -0.677534 -0.319067 0.737403
v -0.68114 -0.331255 0.719323
v -0.674827 -0.333298 0.719193
v -0.67128 -0.321312 0.736989
v -0.67128 -0.321312 0.736989
v -0.66586 -0.306113 0.752219
v -0.672037 -0.303645 0.752852
v -0.677534 -0.319067 0.737403
v -0.68114 -0.331255 0.719323
v -0.682803 -0.339924 0.699275
v -0.676454 -0.341808 0.699467
v -0.674827 -0.333298 0.719193
v -0.68114 -0.331255 0.719323
v -0.711068 -0.316073 0.714906
v -0.713178 -0.324441 0.69477
v -0.682803 -0.339924 0.699275
v -0.682803 -0.339924 0.699275
v -0.682508 -0.344865 0.67795
v -0.67615 -0.346644 0.678485
v -0.676454 -0.341808 0.699467
v -0.682803 -0.339924 0.699275
v -0.713178 -0.324441 0.69477
v -0.713655 -0.329004 0.673346
v -0.682508 -0.344865 0.67795
v -0.680242 -0.345873 0.656038
v -0.682508 -0.344865 0.67795
v -0.713655 -0.329004 0.673346
v -0.71225 -0.329646 0.651393
v -0.708801 -0.326313 0.629679
v -0.676032 -0.342822 0.634257
v -0.680242 -0.345873 0.656038
v -0.71225 -0.329646 0.651393
v -0.682508 -0.344865 0.67795
v -0.680242 -0.345873 0.656038
v -0.673904 -0.347608 0.656918
v -0.67615 -0.346644 0.678485
v -0.680242 -0.345873 0.656038
v -0.676032 -0.342822 0.634257
v -0.669741 -0.344575 0.635456
v -0.673904 -0.347608 0.656918
v -0.676032 -0.342822 0.634257
v -0.670071 -0.335895 0.613434
v -0.663848 -0.337718 0.614915
v -0.669741 -0.344575 0.635456
v -0.676032 -0.342822 0.634257
v -0.708801 -0.326313 0.629679
v -0.703488 -0.319208 0.609017
v -0.670071 -0.335895 0.613434
v -0.670071 -0.335895 0.613434
v -0.662593 -0.325353 0.594426
v -0.656455 -0.327293 0.596154
v -0.663848 -0.337718 0.614915
v -0.670071 -0.335895 0.613434
v -0.703488 -0.319208 0.609017
v -0.696575 -0.3086 0.590236
v -0.662593 -0.325353 0.594426
v -0.688329 -0.294755 0.574161
v -0.65383 -0.311457 0.578087
v -0.662593 -0.325353 0.594426
v -0.696575 -0.3086 0.590236
v -0.679057 -0.278011 0.561522
v -0.644044 -0.294548 0.565178
v -0.65383 -0.311457 0.578087
v -0.688329 -0.294755 0.574161
v -0.662593 -0.325353 0.594426
v -0.65383 -0.311457 0.578087
v -0.647795 -0.313559 0.580029
v -0.656455 -0.327293 0.596154
v -0.65383 -0.311457 0.578087
v -0.644044 -0.294548 0.565178
v -0.63812 -0.296843 0.56728
v -0.647795 -0.313559 0.580029
v -0.644044 -0.294548 0.565178
v -0.633603 -0.275295 0.556079
v -0.627787 -0.277785 0.558281
v -0.63812 -0.296843 0.56728
v -0.644044 -0.294548 0.565178
v -0.679057 -0.278011 0.561522
v -0.669242 -0.258988 0.552671
v -0.633603 -0.275295 0.556079
v -0.633603 -0.275295 0.556079
v -0.622904 -0.254441 0.551072
v -0.617188 -0.257128 0.553321
v -0.627787 -0.277785 0.558281
v -0.633603 -0.275295 0.556079
v -0.669242 -0.258988 0.552671
v -0.65941 -0.238373 0.547859
v -0.622904 -0.254441 0.551072
v -0.612341 -0.232731 0.550439
v -0.622904 -0.254441 0.551072
v -0.65941 -0.238373 0.547859
v -0.650087 -0.216857 0.54734
v -0.641741 -0.195188 0.551262
v -0.602315 -0.210953 0.554349
v -0.612341 -0.232731 0.550439
v -0.650087 -0.216857 0.54734
v -0.622904 -0.254441 0.551072
v -0.612341 -0.232731 0.550439
v -0.606717 -0.235611 0.552685
v -0.617188 -0.257128 0.553321
v -0.596774 -0.214016 0.556541
v -0.606717 -0.235611 0.552685
v -0.612341 -0.232731 0.550439
v -0.602315 -0.210953 0.554349
v -0.587803 -0.193342 0.564598
v -0.596774 -0.214016 0.556541
v -0.602315 -0.210953 0.554349
v -0.593269 -0.190102 0.562506
v -0.602315 -0.210953 0.554349
v -0.641741 -0.195188 0.551262
v -0.634612 -0.174354 0.559343
v -0.593269 -0.190102 0.562506
v -0.580268 -0.174658 0.576434
v -0.587803 -0.193342 0.564598
v -0.593269 -0.190102 0.562506
v -0.585658 -0.171221 0.574504
v -0.593269 -0.190102 0.562506
v -0.634612 -0.174354 0.559343
v -0.628885 -0.155404 0.571196
v -0.585658 -0.171221 0.574504
v -0.579938 -0.155362 0.589933
v -0.585658 -0.171221 0.574504
v -0.628885 -0.155404 0.571196
v -0.624743 -0.139386 0.586434
v -0.622333 -0.127157 0.604595
v -0.576463 -0.143374 0.608314
v -0.579938 -0.155362 0.589933
v -0.624743 -0.139386 0.586434
v -0.574627 -0.159024 0.591621
v -0.580268 -0.174658 0.576434
v -0.585658 -0.171221 0.574504
v -0.579938 -0.155362 0.589933
v -0.571216 -0.147249 0.609692
v -0.574627 -0.159024 0.591621
v -0.579938 -0.155362 0.589933
v -0.576463 -0.143374 0.608314
v -0.569949 -0.139345 0.629942
v -0.571216 -0.147249 0.609692
v -0.576463 -0.143374 0.608314
v -0.575161 -0.13531 0.628881
v -0.576463 -0.143374 0.608314
v -0.622333 -0.127157 0.604595
v -0.621653 -0.118813 0.624917
v -0.575161 -0.13531 0.628881
v -0.57065 -0.135158 0.651565
v -0.569949 -0.139345 0.629942
v -0.575161 -0.13531 0.628881
v -0.575852 -0.13102 0.650796
v -0.575161 -0.13531 0.628881
v -0.621653 -0.118813 0.624917
v -0.622666 -0.114257 0.646567
v -0.575852 -0.13102 0.650796
v -0.625332 -0.113395 0.668709
v -0.578358 -0.130357 0.673224
v -0.575852 -0.13102 0.650796
v -0.622666 -0.114257 0.646567
v -0.62958 -0.116154 0.690518
v -0.582517 -0.133207 0.695332
v -0.578358 -0.130357 0.673224
v -0.625332 -0.113395 0.668709
v -0.577266 -0.137385 0.695575
v -0.573144 -0.134543 0.673726
v -0.578358 -0.130357 0.673224
v -0.582517 -0.133207 0.695332
v -0.573144 -0.134543 0.673726
v -0.57065 -0.135158 0.651565
v -0.575852 -0.13102 0.650796
v -0.578358 -0.130357 0.673224
v -0.582932 -0.143724 0.716277
v -0.577266 -0.137385 0.695575
v -0.582517 -0.133207 0.695332
v -0.588248 -0.139609 0.716301
v -0.582517 -0.133207 0.695332
v -0.62958 -0.116154 0.690518
v -0.635202 -0.122558 0.711199
v -0.588248 -0.139609 0.716301
v -0.590075 -0.153632 0.735018
v -0.582932 -0.143724 0.716277
v -0.588248 -0.139609 0.716301
v -0.595483 -0.149638 0.735312
v -0.588248 -0.139609 0.716301
v -0.635202 -0.122558 0.711199
v -0.641956 -0.132653 0.729969
v -0.595483 -0.149638 0.735312
v -0.649602 -0.146484 0.746044
v -0.604157 -0.163369 0.751549
v -0.595483 -0.149638 0.735312
v -0.641956 -0.132653 0.729969
v -0.657879 -0.163911 0.758719
v -0.614118 -0.18068 0.764281
v -0.604157 -0.163369 0.751549
v -0.649602 -0.146484 0.746044
v -0.604157 -0.163369 0.751549
v -0.614118 -0.18068 0.764281
v -0.608487 -0.184324 0.76356
v -0.598636 -0.167194 0.751009
v -0.598636 -0.167194 0.751009
v -0.590075 -0.153632 0.735018
v -0.595483 -0.149638 0.735312
v -0.604157 -0.163369 0.751549
v -0.614118 -0.18068 0.764281
v -0.624876 -0.200653 0.773135
v -0.619152 -0.204134 0.772299
v -0.608487 -0.184324 0.76356
v -0.614118 -0.18068 0.764281
v -0.657879 -0.163911 0.758719
v -0.666459 -0.184032 0.767614
v -0.624876 -0.200653 0.773135
v -0.598636 -0.167194 0.751009
v -0.608487 -0.184324 0.76356
v -0.60474 -0.188581 0.759913
v -0.595278 -0.172121 0.747888
v -0.608487 -0.184324 0.76356
v -0.619152 -0.204134 0.772299
v -0.615044 -0.207726 0.76833
v -0.60474 -0.188581 0.759913
v -0.595278 -0.172121 0.747888
v -0.60474 -0.188581 0.759913
v -0.60388 -0.192308 0.754319
v -0.594983 -0.176828 0.743022
v -0.60474 -0.188581 0.759913
v -0.615044 -0.207726 0.76833
v -0.613651 -0.210466 0.762291
v -0.60388 -0.192308 0.754319
v -0.617491 -0.2436 0.665644
v -0.594983 -0.176828 0.743022
v -0.60388 -0.192308 0.754319
v -0.617491 -0.2436 0.665644
v -0.60388 -0.192308 0.754319
v -0.613651 -0.210466 0.762291
v -0.617491 -0.2436 0.665644
v -0.647701 -0.322239 0.603936
v -0.639861 -0.309803 0.589356
v -0.617491 -0.2436 0.665644
v -0.639861 -0.309803 0.589356
v -0.631084 -0.294637 0.577803
v -0.617491 -0.2436 0.665644
v -0.631084 -0.294637 0.577803
v -0.62165 -0.277239 0.569594
v -0.617491 -0.2436 0.665644
v -0.62165 -0.277239 0.569594
v -0.61194 -0.258316 0.565051
v -0.617491 -0.2436 0.665644
v -0.61194 -0.258316 0.565051
v -0.602346 -0.238601 0.56446
v -0.617491 -0.2436 0.665644
v -0.602346 -0.238601 0.56446
v -0.59322 -0.218786 0.567979
v -0.617491 -0.2436 0.665644
v -0.659755 -0.337929 0.639521
v -0.65441 -0.331703 0.620933
v -0.617491 -0.2436 0.665644
v -0.663512 -0.340681 0.658824
v -0.659755 -0.337929 0.639521
v -0.617491 -0.2436 0.665644
v -0.665537 -0.339846 0.678117
v -0.663512 -0.340681 0.658824
v -0.617491 -0.2436 0.665644
v -0.65441 -0.331703 0.620933
v -0.647701 -0.322239 0.603936
v -0.617491 -0.2436 0.665644
v -0.66121 -0.317267 0.730379
v -0.664376 -0.327968 0.714477
v -0.617491 -0.2436 0.665644
v -0.656337 -0.30361 0.744068
v -0.66121 -0.317267 0.730379
v -0.617491 -0.2436 0.665644
v -0.649913 -0.287446 0.755049
v -0.656337 -0.30361 0.744068
v -0.617491 -0.2436 0.665644
v -0.642172 -0.269405 0.762767
v -0.649913 -0.287446 0.755049
v -0.617491 -0.2436 0.665644
v -0.633353 -0.250112 0.766714
v -0.642172 -0.269405 0.762767
v -0.617491 -0.2436 0.665644
v -0.623686 -0.230144 0.766524
v -0.633353 -0.250112 0.766714
v -0.617491 -0.2436 0.665644
v -0.664376 -0.327968 0.714477
v -0.665821 -0.335549 0.696863
v -0.617491 -0.2436 0.665644
v -0.665821 -0.335549 0.696863
v -0.665537 -0.339846 0.678117
v -0.617491 -0.2436 0.665644
v -0.571972 -0.147376 0.673169
v -0.575749 -0.149996 0.693127
v -0.617491 -0.2436 0.665644
v -0.569681 -0.147899 0.652954
v -0.571972 -0.147376 0.673169
v -0.617491 -0.2436 0.665644
v -0.569029 -0.151636 0.633432
v -0.569681 -0.147899 0.652954
v -0.617491 -0.2436 0.665644
v -0.570142 -0.158633 0.615423
v -0.569029 -0.151636 0.633432
v -0.617491 -0.2436 0.665644
v -0.57314 -0.168985 0.59952
v -0.570142 -0.158633 0.615423
v -0.617491 -0.2436 0.665644
v -0.578158 -0.182888 0.586037
v -0.57314 -0.168985 0.59952
v -0.617491 -0.2436 0.665644
v -0.584994 -0.199835 0.575334
v -0.578158 -0.182888 0.586037
v -0.617491 -0.2436 0.665644
v -0.59322 -0.218786 0.567979
v -0.584994 -0.199835 0.575334
v -0.617491 -0.2436 0.665644
v -0.587323 -0.164685 0.728747
v -0.594983 -0.176828 0.743022
v -0.617491 -0.2436 0.665644
v -0.580897 -0.155764 0.711912
v -0.587323 -0.164685 0.728747
v -0.617491 -0.2436 0.665644
v -0.575749 -0.149996 0.693127
v -0.580897 -0.155764 0.711912
v -0.617491 -0.2436 0.665644
v -0.613651 -0.210466 0.762291
v -0.623686 -0.230144 0.766524
v -0.580897 -0.155764 0.711912
v -0.575749 -0.149996 0.693127
v -0.574789 -0.143531 0.694768
v -0.580242 -0.149637 0.71467
v -0.575749 -0.149996 0.693127
v -0.571972 -0.147376 0.673169
v -0.570807 -0.140773 0.673706
v -0.574789 -0.143531 0.694768
v -0.580242 -0.149637 0.71467
v -0.574789 -0.143531 0.694768
v -0.577266 -0.137385 0.695575
v -0.582932 -0.143724 0.716277
v -0.574789 -0.143531 0.694768
v -0.570807 -0.140773 0.673706
v -0.573144 -0.134543 0.673726
v -0.577266 -0.137385 0.695575
v -0.571972 -0.147376 0.673169
v -0.569681 -0.147899 0.652954
v -0.568392 -0.141336 0.652355
v -0.570807 -0.140773 0.673706
v -0.570807 -0.140773 0.673706
v -0.568392 -0.141336 0.652355
v -0.57065 -0.135158 0.651565
v -0.573144 -0.134543 0.673726
v -0.569681 -0.147899 0.652954
v -0.569029 -0.151636 0.633432
v -0.567704 -0.14532 0.631608
v -0.568392 -0.141336 0.652355
v -0.568392 -0.141336 0.652355
v -0.567704 -0.14532 0.631608
v -0.569949 -0.139345 0.629942
v -0.57065 -0.135158 0.651565
v -0.569029 -0.151636 0.633432
v -0.570142 -0.158633 0.615423
v -0.568902 -0.152834 0.612294
v -0.567704 -0.14532 0.631608
v -0.567704 -0.14532 0.631608
v -0.568902 -0.152834 0.612294
v -0.571216 -0.147249 0.609692
v -0.569949 -0.139345 0.629942
v -0.570142 -0.158633 0.615423
v -0.57314 -0.168985 0.59952
v -0.572139 -0.16401 0.59513
v -0.568902 -0.152834 0.612294
v -0.568902 -0.152834 0.612294
v -0.572139 -0.16401 0.59513
v -0.574627 -0.159024 0.591621
v -0.571216 -0.147249 0.609692
v -0.57314 -0.168985 0.59952
v -0.578158 -0.182888 0.586037
v -0.577522 -0.178929 0.580656
v -0.572139 -0.16401 0.59513
v -0.572139 -0.16401 0.59513
v -0.577522 -0.178929 0.580656
v -0.580268 -0.174658 0.576434
v -0.574627 -0.159024 0.591621
v -0.578158 -0.182888 0.586037
v -0.584994 -0.199835 0.575334
v -0.584774 -0.196904 0.569293
v -0.577522 -0.178929 0.580656
v -0.577522 -0.178929 0.580656
v -0.584774 -0.196904 0.569293
v -0.587803 -0.193342 0.564598
v -0.580268 -0.174658 0.576434
v -0.584994 -0.199835 0.575334
v -0.59322 -0.218786 0.567979
v -0.593445 -0.216883 0.561531
v -0.584774 -0.196904 0.569293
v -0.584774 -0.196904 0.569293
v -0.593445 -0.216883 0.561531
v -0.596774 -0.214016 0.556541
v -0.587803 -0.193342 0.564598
v -0.59322 -0.218786 0.567979
v -0.602346 -0.238601 0.56446
v -0.603059 -0.23776 0.557818
v -0.593445 -0.216883 0.561531
v -0.593445 -0.216883 0.561531
v -0.603059 -0.23776 0.557818
v -0.606717 -0.235611 0.552685
v -0.596774 -0.214016 0.556541
v -0.617188 -0.257128 0.553321
v -0.606717 -0.235611 0.552685
v -0.603059 -0.23776 0.557818
v -0.613175 -0.258546 0.558438
v -0.613175 -0.258546 0.558438
v -0.603059 -0.23776 0.557818
v -0.602346 -0.238601 0.56446
v -0.61194 -0.258316 0.565051
v -0.627787 -0.277785 0.558281
v -0.617188 -0.257128 0.553321
v -0.613175 -0.258546 0.558438
v -0.623411 -0.278497 0.563228
v -0.623411 -0.278497 0.563228
v -0.613175 -0.258546 0.558438
v -0.61194 -0.258316 0.565051
v -0.62165 -0.277239 0.569594
v -0.63812 -0.296843 0.56728
v -0.627787 -0.277785 0.558281
v -0.623411 -0.278497 0.563228
v -0.633377 -0.296875 0.571901
v -0.633377 -0.296875 0.571901
v -0.623411 -0.278497 0.563228
v -0.62165 -0.277239 0.569594
v -0.631084 -0.294637 0.577803
v -0.647795 -0.313559 0.580029
v -0.63812 -0.296843 0.56728
v -0.633377 -0.296875 0.571901
v -0.642683 -0.312954 0.584154
v -0.642683 -0.312954 0.584154
v -0.633377 -0.296875 0.571901
v -0.631084 -0.294637 0.577803
v -0.639861 -0.309803 0.589356
v -0.656455 -0.327293 0.596154
v -0.647795 -0.313559 0.580029
v -0.642683 -0.312954 0.584154
v -0.651004 -0.326153 0.599635
v -0.651004 -0.326153 0.599635
v -0.642683 -0.312954 0.584154
v -0.639861 -0.309803 0.589356
v -0.647701 -0.322239 0.603936
v -0.663848 -0.337718 0.614915
v -0.656455 -0.327293 0.596154
v -0.651004 -0.326153 0.599635
v -0.658115 -0.336184 0.61766
v -0.658115 -0.336184 0.61766
v -0.651004 -0.326153 0.599635
v -0.647701 -0.322239 0.603936
v -0.65441 -0.331703 0.620933
v -0.669741 -0.344575 0.635456
v -0.663848 -0.337718 0.614915
v -0.658115 -0.336184 0.61766
v -0.663783 -0.342784 0.637383
v -0.663783 -0.342784 0.637383
v -0.658115 -0.336184 0.61766
v -0.65441 -0.331703 0.620933
v -0.659755 -0.337929 0.639521
v -0.673904 -0.347608 0.656918
v -0.669741 -0.344575 0.635456
v -0.663783 -0.342784 0.637383
v -0.66778 -0.345707 0.657937
v -0.66778 -0.345707 0.657937
v -0.663783 -0.342784 0.637383
v -0.659755 -0.337929 0.639521
v -0.663512 -0.340681 0.658824
v -0.67615 -0.346644 0.678485
v -0.673904 -0.347608 0.656918
v -0.66778 -0.345707 0.657937
v -0.669938 -0.344807 0.678546
v -0.669938 -0.344807 0.678546
v -0.66778 -0.345707 0.657937
v -0.663512 -0.340681 0.658824
v -0.665537 -0.339846 0.678117
v -0.676454 -0.341808 0.699467
v -0.67615 -0.346644 0.678485
v -0.669938 -0.344807 0.678546
v -0.670238 -0.340207 0.698585
v -0.670238 -0.340207 0.698585
v -0.669938 -0.344807 0.678546
v -0.665537 -0.339846 0.678117
v -0.665821 -0.335549 0.696863
v -0.674827 -0.333298 0.719193
v -0.676454 -0.341808 0.699467
v -0.670238 -0.340207 0.698585
v -0.668691 -0.332095 0.717419
v -0.668691 -0.332095 0.717419
v -0.670238 -0.340207 0.698585
v -0.665821 -0.335549 0.696863
v -0.664376 -0.327968 0.714477
v -0.67128 -0.321312 0.736989
v -0.674827 -0.333298 0.719193
v -0.668691 -0.332095 0.717419
v -0.665305 -0.320653 0.734418
v -0.665305 -0.320653 0.734418
v -0.668691 -0.332095 0.717419
v -0.664376 -0.327968 0.714477
v -0.66121 -0.317267 0.730379
v -0.66121 -0.317267 0.730379
v -0.656337 -0.30361 0.744068
v -0.660114 -0.3061 0.749004
v -0.665305 -0.320653 0.734418
v -0.665305 -0.320653 0.734418
v -0.660114 -0.3061 0.749004
v -0.66586 -0.306113 0.752219
v -0.67128 -0.321312 0.736989
v -0.656337 -0.30361 0.744068
v -0.649913 -0.287446 0.755049
v -0.6533 -0.288954 0.760652
v -0.660114 -0.3061 0.749004
v -0.587323 -0.164685 0.728747
v -0.580897 -0.155764 0.711912
v -0.580242 -0.149637 0.71467
v -0.587088 -0.15914 0.732616
v -0.587088 -0.15914 0.732616
v -0.580242 -0.149637 0.71467
v -0.582932 -0.143724 0.716277
v -0.590075 -0.153632 0.735018
v -0.594983 -0.176828 0.743022
v -0.587323 -0.164685 0.728747
v -0.587088 -0.15914 0.732616
v -0.595278 -0.172121 0.747888
v -0.595278 -0.172121 0.747888
v -0.587088 -0.15914 0.732616
v -0.590075 -0.153632 0.735018
v -0.598636 -0.167194 0.751009
vn -0.1507 -0.0229 0.9883
vn -0.035 -0.0779 0.9963
vn 0.0473 0.0909 0.9947
vn -0.0737 0.1497 0.986
vn -0.2284 -0.1972 0.9534
vn -0.1178 -0.2482 0.9615
vn -0.035 -0.0779 0.9963
vn -0.1507 -0.0229 0.9883
vn 0.0473 0.0909 0.9947
vn -0.035 -0.0779 0.9963
vn 0.3097 -0.2359 0.9211
vn 0.3862 -0.0898 0.918
vn 0.2331 -0.3847 0.8931
vn 0.3097 -0.2359 0.9211
vn -0.035 -0.0779 0.9963
vn -0.1178 -0.2482 0.9615
vn 0.1247 0.2514 0.9598
vn 0.0473 0.0909 0.9947
vn 0.3862 -0.0898 0.918
vn 0.4584 0.0483 0.8874
vn 0.1247 0.2514 0.9598
vn -0.0012 0.3134 0.9496
vn -0.0737 0.1497 0.986
vn 0.0473 0.0909 0.9947
vn 0.4584 0.0483 0.8874
vn 0.3862 -0.0898 0.918
vn 0.7386 -0.3005 0.6034
vn 0.7805 -0.2193 0.5854
vn 0.3862 -0.0898 0.918
vn 0.3097 -0.2359 0.9211
vn 0.695 -0.3869 0.6061
vn 0.7386 -0.3005 0.6034
vn 0.7805 -0.2193 0.5854
vn 0.7386 -0.3005 0.6034
vn 0.8783 -0.409 0.2477
vn 0.8894 -0.3871 0.2429
vn 0.7386 -0.3005 0.6034
vn 0.695 -0.3869 0.6061
vn 0.8668 -0.4323 0.2484
vn 0.8783 -0.409 0.2477
vn 0.8558 -0.4562 0.2438
vn 0.8668 -0.4323 0.2484
vn 0.695 -0.3869 0.6061
vn 0.6522 -0.4756 0.5903
vn 0.6522 -0.4756 0.5903
vn 0.695 -0.3869 0.6061
vn 0.3097 -0.2359 0.9211
vn 0.2331 -0.3847 0.8931
vn 0.846 -0.4789 0.2345
vn 0.8558 -0.4562 0.2438
vn 0.6522 -0.4756 0.5903
vn 0.6131 -0.5605 0.5567
vn 0.6131 -0.5605 0.5567
vn 0.6522 -0.4756 0.5903
vn 0.2331 -0.3847 0.8931
vn 0.1622 -0.5262 0.8347
vn 0.1622 -0.5262 0.8347
vn 0.2331 -0.3847 0.8931
vn -0.1178 -0.2482 0.9615
vn -0.1945 -0.4081 0.892
vn 0.5785 -0.6401 0.5056
vn 0.6131 -0.5605 0.5567
vn 0.1622 -0.5262 0.8347
vn 0.0992 -0.6583 0.7462
vn 0.0992 -0.6583 0.7462
vn 0.1622 -0.5262 0.8347
vn -0.1945 -0.4081 0.892
vn -0.2623 -0.5553 0.7892
vn -0.1945 -0.4081 0.892
vn -0.3003 -0.3606 0.8831
vn -0.3641 -0.5106 0.7789
vn -0.2623 -0.5553 0.7892
vn -0.1178 -0.2482 0.9615
vn -0.2284 -0.1972 0.9534
vn -0.3003 -0.3606 0.8831
vn -0.1945 -0.4081 0.892
vn -0.3187 -0.688 0.652
vn -0.2623 -0.5553 0.7892
vn -0.3641 -0.5106 0.7789
vn -0.4168 -0.6457 0.6398
vn -0.4528 -0.7566 0.4718
vn -0.3579 -0.7975 0.4856
vn -0.3187 -0.688 0.652
vn -0.4168 -0.6457 0.6398
vn -0.3187 -0.688 0.652
vn -0.3579 -0.7975 0.4856
vn 0.009 -0.8787 0.4774
vn 0.0462 -0.7787 0.6257
vn 0.0462 -0.7787 0.6257
vn 0.0992 -0.6583 0.7462
vn -0.2623 -0.5553 0.7892
vn -0.3187 -0.688 0.652
vn -0.3579 -0.7975 0.4856
vn -0.3758 -0.8763 0.3015
vn -0.0086 -0.9502 0.3114
vn 0.009 -0.8787 0.4774
vn -0.3579 -0.7975 0.4856
vn -0.4528 -0.7566 0.4718
vn -0.4679 -0.8359 0.2869
vn -0.3758 -0.8763 0.3015
vn -0.3758 -0.8763 0.3015
vn -0.3719 -0.9222 0.1063
vn -0.0063 -0.9908 0.135
vn -0.0086 -0.9502 0.3114
vn -0.3758 -0.8763 0.3015
vn -0.4679 -0.8359 0.2869
vn -0.4623 -0.882 0.0916
vn -0.3719 -0.9222 0.1063
vn -0.3474 -0.933 -0.0935
vn -0.3719 -0.9222 0.1063
vn -0.4623 -0.882 0.0916
vn -0.437 -0.8929 -0.1081
vn -0.3958 -0.8682 -0.2992
vn -0.3056 -0.9086 -0.2847
vn -0.3474 -0.933 -0.0935
vn -0.437 -0.8929 -0.1081
vn -0.3719 -0.9222 0.1063
vn -0.3474 -0.933 -0.0935
vn 0.0152 -0.9989 -0.0447
vn -0.0063 -0.9908 0.135
vn -0.3474 -0.933 -0.0935
vn -0.3056 -0.9086 -0.2847
vn 0.0531 -0.975 -0.2156
vn 0.0152 -0.9989 -0.0447
vn -0.3056 -0.9086 -0.2847
vn -0.2508 -0.8526 -0.4585
vn 0.1031 -0.9233 -0.37
vn 0.0531 -0.975 -0.2156
vn -0.3056 -0.9086 -0.2847
vn -0.3958 -0.8682 -0.2992
vn -0.3429 -0.8115 -0.4732
vn -0.2508 -0.8526 -0.4585
vn -0.2508 -0.8526 -0.4585
vn -0.1843 -0.7663 -0.6154
vn 0.1641 -0.8452 -0.5086
vn 0.1031 -0.9233 -0.37
vn -0.2508 -0.8526 -0.4585
vn -0.3429 -0.8115 -0.4732
vn -0.2794 -0.724 -0.6307
vn -0.1843 -0.7663 -0.6154
vn -0.2056 -0.6051 -0.7692
vn -0.1066 -0.6492 -0.7531
vn -0.1843 -0.7663 -0.6154
vn -0.2794 -0.724 -0.6307
vn -0.1268 -0.4621 -0.8777
vn -0.0231 -0.5088 -0.8606
vn -0.1066 -0.6492 -0.7531
vn -0.2056 -0.6051 -0.7692
vn -0.1843 -0.7663 -0.6154
vn -0.1066 -0.6492 -0.7531
vn 0.2358 -0.7405 -0.6293
vn 0.1641 -0.8452 -0.5086
vn -0.1066 -0.6492 -0.7531
vn -0.0231 -0.5088 -0.8606
vn 0.3135 -0.6161 -0.7226
vn 0.2358 -0.7405 -0.6293
vn -0.0231 -0.5088 -0.8606
vn 0.0591 -0.3565 -0.9324
vn 0.3904 -0.4824 -0.7841
vn 0.3135 -0.6161 -0.7226
vn -0.0231 -0.5088 -0.8606
vn -0.1268 -0.4621 -0.8777
vn -0.0496 -0.3064 -0.9506
vn 0.0591 -0.3565 -0.9324
vn 0.0591 -0.3565 -0.9324
vn 0.1388 -0.1948 -0.971
vn 0.4654 -0.3415 -0.8166
vn 0.3904 -0.4824 -0.7841
vn 0.0591 -0.3565 -0.9324
vn -0.0496 -0.3064 -0.9506
vn 0.0249 -0.1406 -0.9898
vn 0.1388 -0.1948 -0.971
vn 0.215 -0.0244 -0.9763
vn 0.1388 -0.1948 -0.971
vn 0.0249 -0.1406 -0.9898
vn 0.0957 0.0344 -0.9948
vn 0.1589 0.2093 -0.9649
vn 0.2837 0.1463 -0.9477
vn 0.215 -0.0244 -0.9763
vn 0.0957 0.0344 -0.9948
vn 0.1388 -0.1948 -0.971
vn 0.215 -0.0244 -0.9763
vn 0.5378 -0.1937 -0.8205
vn 0.4654 -0.3415 -0.8166
vn 0.6042 -0.0456 -0.7955
vn 0.5378 -0.1937 -0.8205
vn 0.215 -0.0244 -0.9763
vn 0.2837 0.1463 -0.9477
vn 0.6628 0.0989 -0.7422
vn 0.6042 -0.0456 -0.7955
vn 0.2837 0.1463 -0.9477
vn 0.3431 0.3119 -0.886
vn 0.2837 0.1463 -0.9477
vn 0.1589 0.2093 -0.9649
vn 0.2127 0.3775 -0.9012
vn 0.3431 0.3119 -0.886
vn 0.7157 0.2436 -0.6545
vn 0.6628 0.0989 -0.7422
vn 0.3431 0.3119 -0.886
vn 0.3959 0.4755 -0.7856
vn 0.3431 0.3119 -0.886
vn 0.2127 0.3775 -0.9012
vn 0.2599 0.542 -0.7992
vn 0.3959 0.4755 -0.7856
vn 0.4421 0.6325 -0.636
vn 0.3959 0.4755 -0.7856
vn 0.2599 0.542 -0.7992
vn 0.3007 0.6983 -0.6496
vn 0.3293 0.8228 -0.4632
vn 0.4746 0.7578 -0.4478
vn 0.4421 0.6325 -0.636
vn 0.3007 0.6983 -0.6496
vn 0.7621 0.384 -0.5213
vn 0.7157 0.2436 -0.6545
vn 0.3959 0.4755 -0.7856
vn 0.4421 0.6325 -0.636
vn 0.7943 0.4955 -0.3514
vn 0.7621 0.384 -0.5213
vn 0.4421 0.6325 -0.636
vn 0.4746 0.7578 -0.4478
vn 0.8084 0.5622 -0.1743
vn 0.7943 0.4955 -0.3514
vn 0.4746 0.7578 -0.4478
vn 0.4899 0.8347 -0.2516
vn 0.4746 0.7578 -0.4478
vn 0.3293 0.8228 -0.4632
vn 0.3427 0.9002 -0.2689
vn 0.4899 0.8347 -0.2516
vn 0.8073 0.5902 -0.0068
vn 0.8084 0.5622 -0.1743
vn 0.4899 0.8347 -0.2516
vn 0.4901 0.8693 -0.0638
vn 0.4899 0.8347 -0.2516
vn 0.3427 0.9002 -0.2689
vn 0.3423 0.936 -0.0818
vn 0.4901 0.8693 -0.0638
vn 0.3293 0.9393 0.0961
vn 0.4771 0.8716 0.113
vn 0.4901 0.8693 -0.0638
vn 0.3423 0.936 -0.0818
vn 0.3032 0.914 0.2695
vn 0.4504 0.8462 0.2848
vn 0.4771 0.8716 0.113
vn 0.3293 0.9393 0.0961
vn 0.7679 0.5667 0.2987
vn 0.7937 0.5899 0.1486
vn 0.4771 0.8716 0.113
vn 0.4504 0.8462 0.2848
vn 0.7937 0.5899 0.1486
vn 0.8073 0.5902 -0.0068
vn 0.4901 0.8693 -0.0638
vn 0.4771 0.8716 0.113
vn 0.7282 0.5175 0.4493
vn 0.7679 0.5667 0.2987
vn 0.4504 0.8462 0.2848
vn 0.4088 0.7901 0.4567
vn 0.4504 0.8462 0.2848
vn 0.3032 0.914 0.2695
vn 0.2633 0.8573 0.4425
vn 0.4088 0.7901 0.4567
vn 0.673 0.4357 0.5976
vn 0.7282 0.5175 0.4493
vn 0.4088 0.7901 0.4567
vn 0.3511 0.6968 0.6255
vn 0.4088 0.7901 0.4567
vn 0.2633 0.8573 0.4425
vn 0.2089 0.763 0.6117
vn 0.3511 0.6968 0.6255
vn 0.1417 0.6296 0.7639
vn 0.2788 0.5642 0.7771
vn 0.3511 0.6968 0.6255
vn 0.2089 0.763 0.6117
vn 0.0697 0.4734 0.8781
vn 0.2009 0.4091 0.8901
vn 0.2788 0.5642 0.7771
vn 0.1417 0.6296 0.7639
vn 0.2788 0.5642 0.7771
vn 0.2009 0.4091 0.8901
vn 0.53 0.1845 0.8277
vn 0.6038 0.3196 0.7302
vn 0.6038 0.3196 0.7302
vn 0.673 0.4357 0.5976
vn 0.3511 0.6968 0.6255
vn 0.2788 0.5642 0.7771
vn 0.2009 0.4091 0.8901
vn 0.1247 0.2514 0.9598
vn 0.4584 0.0483 0.8874
vn 0.53 0.1845 0.8277
vn 0.2009 0.4091 0.8901
vn 0.0697 0.4734 0.8781
vn -0.0012 0.3134 0.9496
vn 0.1247 0.2514 0.9598
vn 0.6038 0.3196 0.7302
vn 0.53 0.1845 0.8277
vn 0.8228 -0.1391 0.5511
vn 0.867 -0.0591 0.4948
vn 0.53 0.1845 0.8277
vn 0.4584 0.0483 0.8874
vn 0.7805 -0.2193 0.5854
vn 0.8228 -0.1391 0.5511
vn 0.867 -0.0591 0.4948
vn 0.8228 -0.1391 0.5511
vn 0.9009 -0.3655 0.234
vn 0.9131 -0.3439 0.2191
vn 0.8228 -0.1391 0.5511
vn 0.7805 -0.2193 0.5854
vn 0.8894 -0.3871 0.2429
vn 0.9009 -0.3655 0.234
vn 0.8948 -0.4321 0.1126
vn 0.9131 -0.3439 0.2191
vn 0.9009 -0.3655 0.234
vn 0.8948 -0.4321 0.1126
vn 0.9009 -0.3655 0.234
vn 0.8894 -0.3871 0.2429
vn 0.8948 -0.4321 0.1126
vn 0.8479 -0.5296 0.0235
vn 0.8583 -0.5131 0.0042
vn 0.8948 -0.4321 0.1126
vn 0.8583 -0.5131 0.0042
vn 0.8699 -0.4931 -0.0104
vn 0.8948 -0.4321 0.1126
vn 0.8699 -0.4931 -0.0104
vn 0.8815 -0.4718 -0.02
vn 0.8948 -0.4321 0.1126
vn 0.8815 -0.4718 -0.02
vn 0.8929 -0.4496 -0.0253
vn 0.8948 -0.4321 0.1126
vn 0.8929 -0.4496 -0.0253
vn 0.9042 -0.4263 -0.0261
vn 0.8948 -0.4321 0.1126
vn 0.9042 -0.4263 -0.0261
vn 0.9148 -0.4032 -0.0219
vn 0.8948 -0.4321 0.1126
vn 0.832 -0.5504 0.0697
vn 0.8392 -0.542 0.0455
vn 0.8948 -0.4321 0.1126
vn 0.8265 -0.5546 0.0965
vn 0.832 -0.5504 0.0697
vn 0.8948 -0.4321 0.1126
vn 0.8235 -0.5534 0.1247
vn 0.8265 -0.5546 0.0965
vn 0.8948 -0.4321 0.1126
vn 0.8392 -0.542 0.0455
vn 0.8479 -0.5296 0.0235
vn 0.8948 -0.4321 0.1126
vn 0.8301 -0.5197 0.2019
vn 0.8253 -0.5358 0.1785
vn 0.8948 -0.4321 0.1126
vn 0.8373 -0.5002 0.2206
vn 0.8301 -0.5197 0.2019
vn 0.8948 -0.4321 0.1126
vn 0.846 -0.4789 0.2345
vn 0.8373 -0.5002 0.2206
vn 0.8948 -0.4321 0.1126
vn 0.8558 -0.4562 0.2438
vn 0.846 -0.4789 0.2345
vn 0.8948 -0.4321 0.1126
vn 0.8668 -0.4323 0.2484
vn 0.8558 -0.4562 0.2438
vn 0.8948 -0.4321 0.1126
vn 0.8783 -0.409 0.2477
vn 0.8668 -0.4323 0.2484
vn 0.8948 -0.4321 0.1126
vn 0.8253 -0.5358 0.1785
vn 0.8231 -0.5471 0.1524
vn 0.8948 -0.4321 0.1126
vn 0.8231 -0.5471 0.1524
vn 0.8235 -0.5534 0.1247
vn 0.8948 -0.4321 0.1126
vn 0.9444 -0.3035 0.1267
vn 0.9399 -0.3065 0.1502
vn 0.8948 -0.4321 0.1126
vn 0.9473 -0.3036 0.1025
vn 0.9444 -0.3035 0.1267
vn 0.8948 -0.4321 0.1126
vn 0.9484 -0.3078 0.0761
vn 0.9473 -0.3036 0.1025
vn 0.8948 -0.4321 0.1126
vn 0.9469 -0.318 0.0478
vn 0.9484 -0.3078 0.0761
vn 0.8948 -0.4321 0.1126
vn 0.9418 -0.3355 0.0205
vn 0.9469 -0.318 0.0478
vn 0.8948 -0.4321 0.1126
vn 0.9337 -0.358 -0.0001
vn 0.9418 -0.3355 0.0205
vn 0.8948 -0.4321 0.1126
vn 0.9246 -0.3808 -0.0136
vn 0.9337 -0.358 -0.0001
vn 0.8948 -0.4321 0.1126
vn 0.9148 -0.4032 -0.0219
vn 0.9246 -0.3808 -0.0136
vn 0.8948 -0.4321 0.1126
vn 0.9245 -0.3258 0.1979
vn 0.9131 -0.3439 0.2191
vn 0.8948 -0.4321 0.1126
vn 0.9335 -0.3136 0.174
vn 0.9245 -0.3258 0.1979
vn 0.8948 -0.4321 0.1126
vn 0.9399 -0.3065 0.1502
vn 0.9335 -0.3136 0.174
vn 0.8948 -0.4321 0.1126
vn 0.8894 -0.3871 0.2429
vn 0.8783 -0.409 0.2477
vn 0.9335 -0.3136 0.174
vn 0.9399 -0.3065 0.1502
vn 0.9669 0.0842 0.2407
vn 0.9426 0.0561 0.3293
vn 0.9399 -0.3065 0.1502
vn 0.9444 -0.3035 0.1267
vn 0.9835 0.0972 0.1528
vn 0.9669 0.0842 0.2407
vn 0.9426 0.0561 0.3293
vn 0.9669 0.0842 0.2407
vn 0.7679 0.5667 0.2987
vn 0.7282 0.5175 0.4493
vn 0.9669 0.0842 0.2407
vn 0.9835 0.0972 0.1528
vn 0.7937 0.5899 0.1486
vn 0.7679 0.5667 0.2987
vn 0.9444 -0.3035 0.1267
vn 0.9473 -0.3036 0.1025
vn 0.9933 0.0975 0.0618
vn 0.9835 0.0972 0.1528
vn 0.9835 0.0972 0.1528
vn 0.9933 0.0975 0.0618
vn 0.8073 0.5902 -0.0068
vn 0.7937 0.5899 0.1486
vn 0.9473 -0.3036 0.1025
vn 0.9484 -0.3078 0.0761
vn 0.996 0.0816 -0.037
vn 0.9933 0.0975 0.0618
vn 0.9933 0.0975 0.0618
vn 0.996 0.0816 -0.037
vn 0.8084 0.5622 -0.1743
vn 0.8073 0.5902 -0.0068
vn 0.9484 -0.3078 0.0761
vn 0.9469 -0.318 0.0478
vn 0.9889 0.0429 -0.1423
vn 0.996 0.0816 -0.037
vn 0.996 0.0816 -0.037
vn 0.9889 0.0429 -0.1423
vn 0.7943 0.4955 -0.3514
vn 0.8084 0.5622 -0.1743
vn 0.9469 -0.318 0.0478
vn 0.9418 -0.3355 0.0205
vn 0.9697 -0.0229 -0.2434
vn 0.9889 0.0429 -0.1423
vn 0.9889 0.0429 -0.1423
vn 0.9697 -0.0229 -0.2434
vn 0.7621 0.384 -0.5213
vn 0.7943 0.4955 -0.3514
vn 0.9418 -0.3355 0.0205
vn 0.9337 -0.358 -0.0001
vn 0.9409 -0.1066 -0.3215
vn 0.9697 -0.0229 -0.2434
vn 0.9697 -0.0229 -0.2434
vn 0.9409 -0.1066 -0.3215
vn 0.7157 0.2436 -0.6545
vn 0.7621 0.384 -0.5213
vn 0.9337 -0.358 -0.0001
vn 0.9246 -0.3808 -0.0136
vn 0.908 -0.1919 -0.3723
vn 0.9409 -0.1066 -0.3215
vn 0.9409 -0.1066 -0.3215
vn 0.908 -0.1919 -0.3723
vn 0.6628 0.0989 -0.7422
vn 0.7157 0.2436 -0.6545
vn 0.9246 -0.3808 -0.0136
vn 0.9148 -0.4032 -0.0219
vn 0.8723 -0.2766 -0.4033
vn 0.908 -0.1919 -0.3723
vn 0.908 -0.1919 -0.3723
vn 0.8723 -0.2766 -0.4033
vn 0.6042 -0.0456 -0.7955
vn 0.6628 0.0989 -0.7422
vn 0.9148 -0.4032 -0.0219
vn 0.9042 -0.4263 -0.0261
vn 0.8326 -0.3634 -0.418
vn 0.8723 -0.2766 -0.4033
vn 0.8723 -0.2766 -0.4033
vn 0.8326 -0.3634 -0.418
vn 0.5378 -0.1937 -0.8205
vn 0.6042 -0.0456 -0.7955
vn 0.4654 -0.3415 -0.8166
vn 0.5378 -0.1937 -0.8205
vn 0.8326 -0.3634 -0.418
vn 0.7902 -0.4505 -0.4156
vn 0.7902 -0.4505 -0.4156
vn 0.8326 -0.3634 -0.418
vn 0.9042 -0.4263 -0.0261
vn 0.8929 -0.4496 -0.0253
vn 0.3904 -0.4824 -0.7841
vn 0.4654 -0.3415 -0.8166
vn 0.7902 -0.4505 -0.4156
vn 0.7469 -0.5338 -0.3965
vn 0.7469 -0.5338 -0.3965
vn 0.7902 -0.4505 -0.4156
vn 0.8929 -0.4496 -0.0253
vn 0.8815 -0.4718 -0.02
vn 0.3135 -0.6161 -0.7226
vn 0.3904 -0.4824 -0.7841
vn 0.7469 -0.5338 -0.3965
vn 0.7027 -0.6133 -0.3607
vn 0.7027 -0.6133 -0.3607
vn 0.7469 -0.5338 -0.3965
vn 0.8815 -0.4718 -0.02
vn 0.8699 -0.4931 -0.0104
vn 0.2358 -0.7405 -0.6293
vn 0.3135 -0.6161 -0.7226
vn 0.7027 -0.6133 -0.3607
vn 0.6582 -0.6878 -0.3062
vn 0.6582 -0.6878 -0.3062
vn 0.7027 -0.6133 -0.3607
vn 0.8699 -0.4931 -0.0104
vn 0.8583 -0.5131 0.0042
vn 0.1641 -0.8452 -0.5086
vn 0.2358 -0.7405 -0.6293
vn 0.6582 -0.6878 -0.3062
vn 0.6176 -0.7506 -0.2349
vn 0.6176 -0.7506 -0.2349
vn 0.6582 -0.6878 -0.3062
vn 0.8583 -0.5131 0.0042
vn 0.8479 -0.5296 0.0235
vn 0.1031 -0.9233 -0.37
vn 0.1641 -0.8452 -0.5086
vn 0.6176 -0.7506 -0.2349
vn 0.5833 -0.7977 -0.153
vn 0.5833 -0.7977 -0.153
vn 0.6176 -0.7506 -0.2349
vn 0.8479 -0.5296 0.0235
vn 0.8392 -0.542 0.0455
vn 0.0531 -0.975 -0.2156
vn 0.1031 -0.9233 -0.37
vn 0.5833 -0.7977 -0.153
vn 0.5551 -0.8295 -0.0619
vn 0.5551 -0.8295 -0.0619
vn 0.5833 -0.7977 -0.153
vn 0.8392 -0.542 0.0455
vn 0.832 -0.5504 0.0697
vn 0.0152 -0.9989 -0.0447
vn 0.0531 -0.975 -0.2156
vn 0.5551 -0.8295 -0.0619
vn 0.5335 -0.8449 0.0391
vn 0.5335 -0.8449 0.0391
vn 0.5551 -0.8295 -0.0619
vn 0.832 -0.5504 0.0697
vn 0.8265 -0.5546 0.0965
vn -0.0063 -0.9908 0.135
vn 0.0152 -0.9989 -0.0447
vn 0.5335 -0.8449 0.0391
vn 0.5214 -0.8408 0.1455
vn 0.5214 -0.8408 0.1455
vn 0.5335 -0.8449 0.0391
vn 0.8265 -0.5546 0.0965
vn 0.8235 -0.5534 0.1247
vn -0.0086 -0.9502 0.3114
vn -0.0063 -0.9908 0.135
vn 0.5214 -0.8408 0.1455
vn 0.5199 -0.8168 0.25
vn 0.5199 -0.8168 0.25
vn 0.5214 -0.8408 0.1455
vn 0.8235 -0.5534 0.1247
vn 0.8231 -0.5471 0.1524
vn 0.009 -0.8787 0.4774
vn -0.0086 -0.9502 0.3114
vn 0.5199 -0.8168 0.25
vn 0.5293 -0.7737 0.3481
vn 0.5293 -0.7737 0.3481
vn 0.5199 -0.8168 0.25
vn 0.8231 -0.5471 0.1524
vn 0.8253 -0.5358 0.1785
vn 0.0462 -0.7787 0.6257
vn 0.009 -0.8787 0.4774
vn 0.5293 -0.7737 0.3481
vn 0.5494 -0.7132 0.4354
vn 0.5494 -0.7132 0.4354
vn 0.5293 -0.7737 0.3481
vn 0.8253 -0.5358 0.1785
vn 0.8301 -0.5197 0.2019
vn 0.8301 -0.5197 0.2019
vn 0.8373 -0.5002 0.2206
vn 0.5785 -0.6401 0.5056
vn 0.5494 -0.7132 0.4354
vn 0.5494 -0.7132 0.4354
vn 0.5785 -0.6401 0.5056
vn 0.0992 -0.6583 0.7462
vn 0.0462 -0.7787 0.6257
vn 0.8373 -0.5002 0.2206
vn 0.846 -0.4789 0.2345
vn 0.6131 -0.5605 0.5567
vn 0.5785 -0.6401 0.5056
vn 0.9245 -0.3258 0.1979
vn 0.9335 -0.3136 0.174
vn 0.9426 0.0561 0.3293
vn 0.909 0.0089 0.4167
vn 0.909 0.0089 0.4167
vn 0.9426 0.0561 0.3293
vn 0.7282 0.5175 0.4493
vn 0.673 0.4357 0.5976
vn 0.9131 -0.3439 0.2191
vn 0.9245 -0.3258 0.1979
vn 0.909 0.0089 0.4167
vn 0.867 -0.0591 0.4948
vn 0.867 -0.0591 0.4948
vn 0.909 0.0089 0.4167
vn 0.673 0.4357 0.5976
vn 0.6038 0.3196 0.7302
vt 0.085937 0.035438
vt 0.085725 0.054145
vt 0.097018 0.054663
vt 0.096897 0.034846
vt 0.075137 0.035957
vt 0.074665 0.053608
vt 0.085725 0.054145
vt 0.085937 0.035438
vt 0.114369 0.288705
vt 0.112151 0.27695
vt 0.108963 0.277676
vt 0.111102 0.288864
vt 0.104799 0.267346
vt 0.108963 0.277676
vt 0.112151 0.27695
vt 0.107798 0.266054
vt 0.114369 0.300752
vt 0.114369 0.288705
vt 0.111102 0.288864
vt 0.111127 0.300358
vt 0.108409 0.055147
vt 0.107922 0.034253
vt 0.096897 0.034846
vt 0.097018 0.054663
vt 0.111127 0.300358
vt 0.111102 0.288864
vt 0.107928 0.28906
vt 0.10797 0.300002
vt 0.111102 0.288864
vt 0.108963 0.277676
vt 0.105886 0.27843
vt 0.107928 0.28906
vt 0.10797 0.300002
vt 0.107928 0.28906
vt 0.104796 0.289325
vt 0.104847 0.299702
vt 0.107928 0.28906
vt 0.105886 0.27843
vt 0.102863 0.279267
vt 0.104796 0.289325
vt 0.099132 0.270038
vt 0.102863 0.279267
vt 0.105886 0.27843
vt 0.101931 0.268648
vt 0.101931 0.268648
vt 0.105886 0.27843
vt 0.108963 0.277676
vt 0.104799 0.267346
vt 0.093826 0.261889
vt 0.099132 0.270038
vt 0.101931 0.268648
vt 0.0963 0.26
vt 0.0963 0.26
vt 0.101931 0.268648
vt 0.104799 0.267346
vt 0.098854 0.258196
vt 0.098854 0.258196
vt 0.104799 0.267346
vt 0.107798 0.266054
vt 0.101552 0.256371
vt 0.089295 0.252762
vt 0.0963 0.26
vt 0.098854 0.258196
vt 0.091433 0.250516
vt 0.091433 0.250516
vt 0.098854 0.258196
vt 0.101552 0.256371
vt 0.093717 0.24821
vt 0.063819 0.053059
vt 0.06448 0.036321
vt 0.053974 0.036443
vt 0.053185 0.052494
vt 0.074665 0.053608
vt 0.075137 0.035957
vt 0.06448 0.036321
vt 0.063819 0.053059
vt 0.042775 0.051905
vt 0.053185 0.052494
vt 0.053974 0.036443
vt 0.04364 0.036232
vt 0.033458 0.035626
vt 0.032557 0.051279
vt 0.042775 0.051905
vt 0.04364 0.036232
vt 0.084628 0.241859
vt 0.07462 0.237533
vt 0.07349 0.240559
vt 0.082872 0.244577
vt 0.082872 0.244577
vt 0.091433 0.250516
vt 0.093717 0.24821
vt 0.084628 0.241859
vt 0.07462 0.237533
vt 0.064021 0.235318
vt 0.063575 0.238519
vt 0.07349 0.240559
vt 0.032557 0.051279
vt 0.033458 0.035626
vt 0.023352 0.034702
vt 0.022433 0.050605
vt 0.064021 0.235318
vt 0.053167 0.235261
vt 0.05343 0.238497
vt 0.063575 0.238519
vt 0.022433 0.050605
vt 0.023352 0.034702
vt 0.013267 0.033575
vt 0.012319 0.049877
vt 0.002135 0.049096
vt 0.012319 0.049877
vt 0.013267 0.033575
vt 0.003145 0.032366
vt 0.997541 0.812549
vt 0.980498 0.81425
vt 0.981377 0.824585
vt 0.998047 0.822837
vt 0.053167 0.235261
vt 0.042374 0.237409
vt 0.043367 0.240566
vt 0.05343 0.238497
vt 0.042374 0.237409
vt 0.032122 0.241833
vt 0.033743 0.244655
vt 0.043367 0.240566
vt 0.032122 0.241833
vt 0.022848 0.248207
vt 0.024994 0.25064
vt 0.033743 0.244655
vt 0.980498 0.81425
vt 0.997541 0.812549
vt 0.996979 0.802149
vt 0.979631 0.803753
vt 0.022848 0.248207
vt 0.014896 0.256288
vt 0.017477 0.25825
vt 0.024994 0.25064
vt 0.979631 0.803753
vt 0.996979 0.802149
vt 0.996369 0.791675
vt 0.978773 0.79314
vt 0.995725 0.781151
vt 0.977925 0.782441
vt 0.978773 0.79314
vt 0.996369 0.791675
vt 0.99507 0.770548
vt 0.977086 0.771628
vt 0.977925 0.782441
vt 0.995725 0.781151
vt 0.014896 0.256288
vt 0.008617 0.265803
vt 0.011533 0.267218
vt 0.017477 0.25825
vt 0.008617 0.265803
vt 0.004288 0.276457
vt 0.007425 0.277286
vt 0.011533 0.267218
vt 0.004288 0.276457
vt 0.002044 0.28787
vt 0.00528 0.288111
vt 0.007425 0.277286
vt 0.977086 0.771628
vt 0.99507 0.770548
vt 0.994466 0.759835
vt 0.976263 0.760673
vt 0.002044 0.28787
vt 0.001955 0.299603
vt 0.005179 0.299264
vt 0.00528 0.288111
vt 0.976263 0.760673
vt 0.994466 0.759835
vt 0.993994 0.749034
vt 0.975468 0.7496
vt 0.974725 0.738438
vt 0.975468 0.7496
vt 0.993994 0.749034
vt 0.993744 0.738173
vt 0.993781 0.727265
vt 0.974062 0.727206
vt 0.974725 0.738438
vt 0.993744 0.738173
vt 0.001955 0.299603
vt 0.004055 0.311202
vt 0.007153 0.310303
vt 0.005179 0.299264
vt 0.011164 0.320797
vt 0.007153 0.310303
vt 0.004055 0.311202
vt 0.008309 0.322187
vt 0.016999 0.330304
vt 0.011164 0.320797
vt 0.008309 0.322187
vt 0.014393 0.332188
vt 0.974062 0.727206
vt 0.993781 0.727265
vt 0.994058 0.716404
vt 0.973518 0.716034
vt 0.024339 0.338368
vt 0.016999 0.330304
vt 0.014393 0.332188
vt 0.022142 0.340731
vt 0.973518 0.716034
vt 0.994058 0.716404
vt 0.994503 0.705726
vt 0.973137 0.705095
vt 0.972972 0.694511
vt 0.973137 0.705095
vt 0.994503 0.705726
vt 0.99505 0.695322
vt 0.995656 0.685137
vt 0.973073 0.68422
vt 0.972972 0.694511
vt 0.99505 0.695322
vt 0.032873 0.344509
vt 0.024339 0.338368
vt 0.022142 0.340731
vt 0.031242 0.347307
vt 0.042318 0.348447
vt 0.032873 0.344509
vt 0.031242 0.347307
vt 0.041372 0.351571
vt 0.052454 0.350202
vt 0.042318 0.348447
vt 0.041372 0.351571
vt 0.052234 0.353525
vt 0.973073 0.68422
vt 0.995656 0.685137
vt 0.99634 0.674979
vt 0.973438 0.673976
vt 0.062893 0.349875
vt 0.052454 0.350202
vt 0.052234 0.353525
vt 0.063352 0.353118
vt 0.973438 0.673976
vt 0.99634 0.674979
vt 0.997129 0.664751
vt 0.974041 0.663645
vt 0.998047 0.654454
vt 0.974852 0.653219
vt 0.974041 0.663645
vt 0.997129 0.664751
vt 0.160682 0.032638
vt 0.162284 0.055876
vt 0.172782 0.055528
vt 0.171049 0.032366
vt 0.082927 0.343446
vt 0.073187 0.347563
vt 0.074227 0.350658
vt 0.084501 0.346302
vt 0.073187 0.347563
vt 0.062893 0.349875
vt 0.063352 0.353118
vt 0.074227 0.350658
vt 0.091709 0.337662
vt 0.082927 0.343446
vt 0.084501 0.346302
vt 0.093781 0.34017
vt 0.162284 0.055876
vt 0.160682 0.032638
vt 0.150323 0.032837
vt 0.151789 0.05605
vt 0.099172 0.330343
vt 0.091709 0.337662
vt 0.093781 0.34017
vt 0.101684 0.332387
vt 0.151789 0.05605
vt 0.150323 0.032837
vt 0.139969 0.033036
vt 0.141284 0.05605
vt 0.129531 0.033311
vt 0.130648 0.055883
vt 0.141284 0.05605
vt 0.139969 0.033036
vt 0.118847 0.033724
vt 0.119682 0.055567
vt 0.130648 0.055883
vt 0.129531 0.033311
vt 0.107865 0.323101
vt 0.112165 0.312435
vt 0.109058 0.311482
vt 0.105045 0.321612
vt 0.105045 0.321612
vt 0.099172 0.330343
vt 0.101684 0.332387
vt 0.107865 0.323101
vt 0.112165 0.312435
vt 0.114369 0.300752
vt 0.111127 0.300358
vt 0.109058 0.311482
vt 0.119682 0.055567
vt 0.118847 0.033724
vt 0.107922 0.034253
vt 0.108409 0.055147
vt 0.105045 0.321612
vt 0.109058 0.311482
vt 0.106037 0.310574
vt 0.102269 0.320152
vt 0.109058 0.311482
vt 0.111127 0.300358
vt 0.10797 0.300002
vt 0.106037 0.310574
vt 0.102269 0.320152
vt 0.106037 0.310574
vt 0.103039 0.309705
vt 0.099507 0.318703
vt 0.106037 0.310574
vt 0.10797 0.300002
vt 0.104847 0.299702
vt 0.103039 0.309705
vt 0.058081 0.294273
vt 0.099507 0.318703
vt 0.103039 0.309705
vt 0.058081 0.294273
vt 0.103039 0.309705
vt 0.104847 0.299702
vt 0.058081 0.294273
vt 0.022349 0.262076
vt 0.017072 0.270021
vt 0.058081 0.294273
vt 0.017072 0.270021
vt 0.013421 0.278973
vt 0.058081 0.294273
vt 0.013421 0.278973
vt 0.011499 0.288659
vt 0.058081 0.294273
vt 0.011499 0.288659
vt 0.011394 0.298679
vt 0.058081 0.294273
vt 0.011394 0.298679
vt 0.013151 0.308616
vt 0.058081 0.294273
vt 0.013151 0.308616
vt 0.016748 0.318085
vt 0.058081 0.294273
vt 0.036773 0.250043
vt 0.029026 0.255333
vt 0.058081 0.294273
vt 0.045215 0.246437
vt 0.036773 0.250043
vt 0.058081 0.294273
vt 0.053994 0.244613
vt 0.045215 0.246437
vt 0.058081 0.294273
vt 0.029026 0.255333
vt 0.022349 0.262076
vt 0.058081 0.294273
vt 0.079711 0.249856
vt 0.071505 0.246357
vt 0.058081 0.294273
vt 0.087242 0.25508
vt 0.079711 0.249856
vt 0.058081 0.294273
vt 0.093826 0.261889
vt 0.087242 0.25508
vt 0.058081 0.294273
vt 0.099132 0.270038
vt 0.093826 0.261889
vt 0.058081 0.294273
vt 0.102863 0.279267
vt 0.099132 0.270038
vt 0.058081 0.294273
vt 0.104796 0.289325
vt 0.102863 0.279267
vt 0.058081 0.294273
vt 0.071505 0.246357
vt 0.062846 0.2446
vt 0.058081 0.294273
vt 0.062846 0.2446
vt 0.053994 0.244613
vt 0.058081 0.294273
vt 0.071225 0.341605
vt 0.079937 0.337938
vt 0.058081 0.294273
vt 0.062054 0.343671
vt 0.071225 0.341605
vt 0.058081 0.294273
vt 0.052867 0.343985
vt 0.062054 0.343671
vt 0.058081 0.294273
vt 0.04407 0.342506
vt 0.052867 0.343985
vt 0.058081 0.294273
vt 0.035928 0.339143
vt 0.04407 0.342506
vt 0.058081 0.294273
vt 0.028493 0.333801
vt 0.035928 0.339143
vt 0.058081 0.294273
vt 0.021976 0.326639
vt 0.028493 0.333801
vt 0.058081 0.294273
vt 0.016748 0.318085
vt 0.021976 0.326639
vt 0.058081 0.294273
vt 0.094356 0.326385
vt 0.099507 0.318703
vt 0.058081 0.294273
vt 0.087757 0.332818
vt 0.094356 0.326385
vt 0.058081 0.294273
vt 0.079937 0.337938
vt 0.087757 0.332818
vt 0.058081 0.294273
vt 0.104847 0.299702
vt 0.104796 0.289325
vt 0.087757 0.332818
vt 0.079937 0.337938
vt 0.081416 0.340688
vt 0.089716 0.335238
vt 0.079937 0.337938
vt 0.071225 0.341605
vt 0.072191 0.344578
vt 0.081416 0.340688
vt 0.089716 0.335238
vt 0.081416 0.340688
vt 0.082927 0.343446
vt 0.091709 0.337662
vt 0.081416 0.340688
vt 0.072191 0.344578
vt 0.073187 0.347563
vt 0.082927 0.343446
vt 0.071225 0.341605
vt 0.062054 0.343671
vt 0.062459 0.346764
vt 0.072191 0.344578
vt 0.072191 0.344578
vt 0.062459 0.346764
vt 0.062893 0.349875
vt 0.073187 0.347563
vt 0.062054 0.343671
vt 0.052867 0.343985
vt 0.052658 0.347084
vt 0.062459 0.346764
vt 0.062459 0.346764
vt 0.052658 0.347084
vt 0.052454 0.350202
vt 0.062893 0.349875
vt 0.052867 0.343985
vt 0.04407 0.342506
vt 0.043206 0.345478
vt 0.052658 0.347084
vt 0.052658 0.347084
vt 0.043206 0.345478
vt 0.042318 0.348447
vt 0.052454 0.350202
vt 0.04407 0.342506
vt 0.035928 0.339143
vt 0.034415 0.34184
vt 0.043206 0.345478
vt 0.043206 0.345478
vt 0.034415 0.34184
vt 0.032873 0.344509
vt 0.042318 0.348447
vt 0.035928 0.339143
vt 0.028493 0.333801
vt 0.026435 0.336096
vt 0.034415 0.34184
vt 0.034415 0.34184
vt 0.026435 0.336096
vt 0.024339 0.338368
vt 0.032873 0.344509
vt 0.028493 0.333801
vt 0.021976 0.326639
vt 0.019504 0.328479
vt 0.026435 0.336096
vt 0.026435 0.336096
vt 0.019504 0.328479
vt 0.016999 0.330304
vt 0.024339 0.338368
vt 0.021976 0.326639
vt 0.016748 0.318085
vt 0.013965 0.319443
vt 0.019504 0.328479
vt 0.019504 0.328479
vt 0.013965 0.319443
vt 0.011164 0.320797
vt 0.016999 0.330304
vt 0.016748 0.318085
vt 0.013151 0.308616
vt 0.010151 0.309452
vt 0.013965 0.319443
vt 0.013965 0.319443
vt 0.010151 0.309452
vt 0.007153 0.310303
vt 0.011164 0.320797
vt 0.005179 0.299264
vt 0.007153 0.310303
vt 0.010151 0.309452
vt 0.008292 0.298954
vt 0.008292 0.298954
vt 0.010151 0.309452
vt 0.013151 0.308616
vt 0.011394 0.298679
vt 0.00528 0.288111
vt 0.005179 0.299264
vt 0.008292 0.298954
vt 0.008398 0.288363
vt 0.008398 0.288363
vt 0.008292 0.298954
vt 0.011394 0.298679
vt 0.011499 0.288659
vt 0.007425 0.277286
vt 0.00528 0.288111
vt 0.008398 0.288363
vt 0.010434 0.278106
vt 0.010434 0.278106
vt 0.008398 0.288363
vt 0.011499 0.288659
vt 0.013421 0.278973
vt 0.011533 0.267218
vt 0.007425 0.277286
vt 0.010434 0.278106
vt 0.014316 0.268596
vt 0.014316 0.268596
vt 0.010434 0.278106
vt 0.013421 0.278973
vt 0.017072 0.270021
vt 0.017477 0.25825
vt 0.011533 0.267218
vt 0.014316 0.268596
vt 0.019928 0.260142
vt 0.019928 0.260142
vt 0.014316 0.268596
vt 0.017072 0.270021
vt 0.022349 0.262076
vt 0.024994 0.25064
vt 0.017477 0.25825
vt 0.019928 0.260142
vt 0.027025 0.25297
vt 0.027025 0.25297
vt 0.019928 0.260142
vt 0.022349 0.262076
vt 0.029026 0.255333
vt 0.033743 0.244655
vt 0.024994 0.25064
vt 0.027025 0.25297
vt 0.035269 0.247336
vt 0.035269 0.247336
vt 0.027025 0.25297
vt 0.029026 0.255333
vt 0.036773 0.250043
vt 0.043367 0.240566
vt 0.033743 0.244655
vt 0.035269 0.247336
vt 0.044292 0.243501
vt 0.044292 0.243501
vt 0.035269 0.247336
vt 0.036773 0.250043
vt 0.045215 0.246437
vt 0.05343 0.238497
vt 0.043367 0.240566
vt 0.044292 0.243501
vt 0.053695 0.241548
vt 0.053695 0.241548
vt 0.044292 0.243501
vt 0.045215 0.246437
vt 0.053994 0.244613
vt 0.063575 0.238519
vt 0.05343 0.238497
vt 0.053695 0.241548
vt 0.063183 0.241546
vt 0.063183 0.241546
vt 0.053695 0.241548
vt 0.053994 0.244613
vt 0.062846 0.2446
vt 0.07349 0.240559
vt 0.063575 0.238519
vt 0.063183 0.241546
vt 0.072461 0.243437
vt 0.072461 0.243437
vt 0.063183 0.241546
vt 0.062846 0.2446
vt 0.071505 0.246357
vt 0.082872 0.244577
vt 0.07349 0.240559
vt 0.072461 0.243437
vt 0.08125 0.247187
vt 0.08125 0.247187
vt 0.072461 0.243437
vt 0.071505 0.246357
vt 0.079711 0.249856
vt 0.079711 0.249856
vt 0.087242 0.25508
vt 0.089295 0.252762
vt 0.08125 0.247187
vt 0.08125 0.247187
vt 0.089295 0.252762
vt 0.091433 0.250516
vt 0.082872 0.244577
vt 0.087242 0.25508
vt 0.093826 0.261889
vt 0.0963 0.26
vt 0.089295 0.252762
vt 0.094356 0.326385
vt 0.087757 0.332818
vt 0.089716 0.335238
vt 0.096748 0.328364
vt 0.096748 0.328364
vt 0.089716 0.335238
vt 0.091709 0.337662
vt 0.099172 0.330343
vt 0.099507 0.318703
vt 0.094356 0.326385
vt 0.096748 0.328364
vt 0.102269 0.320152
vt 0.102269 0.320152
vt 0.096748 0.328364
vt 0.099172 0.330343
vt 0.105045 0.321612
s off
f 1/1/1 2/2/2 3/3/3
f 1/1/1 3/3/3 4/4/4
f 5/5/5 6/6/6 7/7/7
f 5/5/5 7/7/7 8/8/8
f 9/9/9 10/10/10 11/11/11
f 9/9/9 11/11/11 12/12/12
f 13/13/13 14/14/14 15/15/15
f 13/13/13 15/15/15 16/16/16
f 17/17/17 18/18/18 19/19/19
f 17/17/17 19/19/19 20/20/20
f 21/21/21 22/22/22 23/23/23
f 21/21/21 23/23/23 24/24/24
f 25/25/25 26/26/26 27/27/27
f 25/25/25 27/27/27 28/28/28
f 29/29/29 30/30/30 31/31/31
f 29/29/29 31/31/31 32/32/32
f 33/33/33 34/34/34 35/35/35
f 33/33/33 35/35/35 36/36/36
f 37/37/37 38/38/38 39/39/39
f 37/37/37 39/39/39 40/40/40
f 41/41/41 42/42/42 43/43/43
f 41/41/41 43/43/43 44/44/44
f 45/45/45 46/46/46 47/47/47
f 45/45/45 47/47/47 48/48/48
f 49/49/49 50/50/50 51/51/51
f 49/49/49 51/51/51 52/52/52
f 53/53/53 54/54/54 55/55/55
f 53/53/53 55/55/55 56/56/56
f 57/57/57 58/58/58 59/59/59
f 57/57/57 59/59/59 60/60/60
f 61/61/61 62/62/62 63/63/63
f 61/61/61 63/63/63 64/64/64
f 65/65/65 66/66/66 67/67/67
f 65/65/65 67/67/67 68/68/68
f 69/69/69 70/70/70 71/71/71
f 69/69/69 71/71/71 72/72/72
f 73/73/73 74/74/74 75/75/75
f 73/73/73 75/75/75 76/76/76
f 77/77/77 78/78/78 79/79/79
f 77/77/77 79/79/79 80/80/80
f 81/81/81 82/82/82 83/83/83
f 81/81/81 83/83/83 84/84/84
f 85/85/85 86/86/86 87/87/87
f 85/85/85 87/87/87 88/88/88
f 89/89/89 90/90/90 91/91/91
f 89/89/89 91/91/91 92/92/92
f 93/93/93 94/94/94 95/95/95
f 93/93/93 95/95/95 96/96/96
f 97/97/97 98/98/98 99/99/99
f 97/97/97 99/99/99 100/100/100
f 101/101/101 102/102/102 103/103/103
f 101/101/101 103/103/103 104/104/104
f 105/105/105 106/106/106 107/107/107
f 105/105/105 107/107/107 108/108/108
f 109/109/109 110/110/110 111/111/111
f 109/109/109 111/111/111 112/112/112
f 113/113/113 114/114/114 115/115/115
f 113/113/113 115/115/115 116/116/116
f 117/117/117 118/118/118 119/119/119
f 117/117/117 119/119/119 120/120/120
f 121/121/121 122/122/122 123/123/123
f 121/121/121 123/123/123 124/124/124
f 125/125/125 126/126/126 127/127/127
f 125/125/125 127/127/127 128/128/128
f 129/129/129 130/130/130 131/131/131
f 129/129/129 131/131/131 132/132/132
f 133/133/133 134/134/134 135/135/135
f 133/133/133 135/135/135 136/136/136
f 137/137/137 138/138/138 139/139/139
f 137/137/137 139/139/139 140/140/140
f 141/141/141 142/142/142 143/143/143
f 141/141/141 143/143/143 144/144/144
f 145/145/145 146/146/146 147/147/147
f 145/145/145 147/147/147 148/148/148
f 149/149/149 150/150/150 151/151/151
f 149/149/149 151/151/151 152/152/152
f 153/153/153 154/154/154 155/155/155
f 153/153/153 155/155/155 156/156/156
f 157/157/157 158/158/158 159/159/159
f 157/157/157 159/159/159 160/160/160
f 161/161/161 162/162/162 163/163/163
f 161/161/161 163/163/163 164/164/164
f 165/165/165 166/166/166 167/167/167
f 165/165/165 167/167/167 168/168/168
f 169/169/169 170/170/170 171/171/171
f 169/169/169 171/171/171 172/172/172
f 173/173/173 174/174/174 175/175/175
f 173/173/173 175/175/175 176/176/176
f 177/177/177 178/178/178 179/179/179
f 177/177/177 179/179/179 180/180/180
f 181/181/181 182/182/182 183/183/183
f 181/181/181 183/183/183 184/184/184
f 185/185/185 186/186/186 187/187/187
f 185/185/185 187/187/187 188/188/188
f 189/189/189 190/190/190 191/191/191
f 189/189/189 191/191/191 192/192/192
f 193/193/193 194/194/194 195/195/195
f 193/193/193 195/195/195 196/196/196
f 197/197/197 198/198/198 199/199/199
f 197/197/197 199/199/199 200/200/200
f 201/201/201 202/202/202 203/203/203
f 201/201/201 203/203/203 204/204/204
f 205/205/205 206/206/206 207/207/207
f 205/205/205 207/207/207 208/208/208
f 209/209/209 210/210/210 211/211/211
f 209/209/209 211/211/211 212/212/212
f 213/213/213 214/214/214 215/215/215
f 213/213/213 215/215/215 216/216/216
f 217/217/217 218/218/218 219/219/219
f 217/217/217 219/219/219 220/220/220
f 221/221/221 222/222/222 223/223/223
f 221/221/221 223/223/223 224/224/224
f 225/225/225 226/226/226 227/227/227
f 225/225/225 227/227/227 228/228/228
f 229/229/229 230/230/230 231/231/231
f 229/229/229 231/231/231 232/232/232
f 233/233/233 234/234/234 235/235/235
f 233/233/233 235/235/235 236/236/236
f 237/237/237 238/238/238 239/239/239
f 237/237/237 239/239/239 240/240/240
f 241/241/241 242/242/242 243/243/243
f 241/241/241 243/243/243 244/244/244
f 245/245/245 246/246/246 247/247/247
f 245/245/245 247/247/247 248/248/248
f 249/249/249 250/250/250 251/251/251
f 249/249/249 251/251/251 252/252/252
f 253/253/253 254/254/254 255/255/255
f 253/253/253 255/255/255 256/256/256
f 257/257/257 258/258/258 259/259/259
f 257/257/257 259/259/259 260/260/260
f 261/261/261 262/262/262 263/263/263
f 261/261/261 263/263/263 264/264/264
f 265/265/265 266/266/266 267/267/267
f 265/265/265 267/267/267 268/268/268
f 269/269/269 270/270/270 271/271/271
f 269/269/269 271/271/271 272/272/272
f 273/273/273 274/274/274 275/275/275
f 273/273/273 275/275/275 276/276/276
f 277/277/277 278/278/278 279/279/279
f 277/277/277 279/279/279 280/280/280
f 281/281/281 282/282/282 283/283/283
f 281/281/281 283/283/283 284/284/284
f 285/285/285 286/286/286 287/287/287
f 285/285/285 287/287/287 288/288/288
f 289/289/289 290/290/290 291/291/291
f 289/289/289 291/291/291 292/292/292
f 293/293/293 294/294/294 295/295/295
f 293/293/293 295/295/295 296/296/296
f 297/297/297 298/298/298 299/299/299
f 297/297/297 299/299/299 300/300/300
f 301/301/301 302/302/302 303/303/303
f 301/301/301 303/303/303 304/304/304
f 305/305/305 306/306/306 307/307/307
f 305/305/305 307/307/307 308/308/308
f 309/309/309 310/310/310 311/311/311
f 312/312/312 313/313/313 314/314/314
f 315/315/315 316/316/316 317/317/317
f 318/318/318 319/319/319 320/320/320
f 321/321/321 322/322/322 323/323/323
f 324/324/324 325/325/325 326/326/326
f 327/327/327 328/328/328 329/329/329
f 330/330/330 331/331/331 332/332/332
f 333/333/333 334/334/334 335/335/335
f 336/336/336 337/337/337 338/338/338
f 339/339/339 340/340/340 341/341/341
f 342/342/342 343/343/343 344/344/344
f 345/345/345 346/346/346 347/347/347
f 348/348/348 349/349/349 350/350/350
f 351/351/351 352/352/352 353/353/353
f 354/354/354 355/355/355 356/356/356
f 357/357/357 358/358/358 359/359/359
f 360/360/360 361/361/361 362/362/362
f 363/363/363 364/364/364 365/365/365
f 366/366/366 367/367/367 368/368/368
f 369/369/369 370/370/370 371/371/371
f 372/372/372 373/373/373 374/374/374
f 375/375/375 376/376/376 377/377/377
f 378/378/378 379/379/379 380/380/380
f 381/381/381 382/382/382 383/383/383
f 384/384/384 385/385/385 386/386/386
f 387/387/387 388/388/388 389/389/389
f 390/390/390 391/391/391 392/392/392
f 393/393/393 394/394/394 395/395/395
f 396/396/396 397/397/397 398/398/398
f 399/399/399 400/400/400 401/401/401
f 402/402/402 403/403/403 404/404/404
f 405/405/405 406/406/406 407/407/407
f 405/405/405 407/407/407 408/408/408
f 409/409/409 410/410/410 411/411/411
f 409/409/409 411/411/411 412/412/412
f 413/413/413 414/414/414 415/415/415
f 413/413/413 415/415/415 416/416/416
f 417/417/417 418/418/418 419/419/419
f 417/417/417 419/419/419 420/420/420
f 421/421/421 422/422/422 423/423/423
f 421/421/421 423/423/423 424/424/424
f 425/425/425 426/426/426 427/427/427
f 425/425/425 427/427/427 428/428/428
f 429/429/429 430/430/430 431/431/431
f 429/429/429 431/431/431 432/432/432
f 433/433/433 434/434/434 435/435/435
f 433/433/433 435/435/435 436/436/436
f 437/437/437 438/438/438 439/439/439
f 437/437/437 439/439/439 440/440/440
f 441/441/441 442/442/442 443/443/443
f 441/441/441 443/443/443 444/444/444
f 445/445/445 446/446/446 447/447/447
f 445/445/445 447/447/447 448/448/448
f 449/449/449 450/450/450 451/451/451
f 449/449/449 451/451/451 452/452/452
f 453/453/453 454/454/454 455/455/455
f 453/453/453 455/455/455 456/456/456
f 457/457/457 458/458/458 459/459/459
f 457/457/457 459/459/459 460/460/460
f 461/461/461 462/462/462 463/463/463
f 461/461/461 463/463/463 464/464/464
f 465/465/465 466/466/466 467/467/467
f 465/465/465 467/467/467 468/468/468
f 469/469/469 470/470/470 471/471/471
f 469/469/469 471/471/471 472/472/472
f 473/473/473 474/474/474 475/475/475
f 473/473/473 475/475/475 476/476/476
f 477/477/477 478/478/478 479/479/479
f 477/477/477 479/479/479 480/480/480
f 481/481/481 482/482/482 483/483/483
f 481/481/481 483/483/483 484/484/484
f 485/485/485 486/486/486 487/487/487
f 485/485/485 487/487/487 488/488/488
f 489/489/489 490/490/490 491/491/491
f 489/489/489 491/491/491 492/492/492
f 493/493/493 494/494/494 495/495/495
f 493/493/493 495/495/495 496/496/496
f 497/497/497 498/498/498 499/499/499
f 497/497/497 499/499/499 500/500/500
f 501/501/501 502/502/502 503/503/503
f 501/501/501 503/503/503 504/504/504
f 505/505/505 506/506/506 507/507/507
f 505/505/505 507/507/507 508/508/508
f 509/509/509 510/510/510 511/511/511
f 509/509/509 511/511/511 512/512/512
f 513/513/513 514/514/514 515/515/515
f 513/513/513 515/515/515 516/516/516
f 517/517/517 518/518/518 519/519/519
f 517/517/517 519/519/519 520/520/520
f 521/521/521 522/522/522 523/523/523
f 521/521/521 523/523/523 524/524/524
f 525/525/525 526/526/526 527/527/527
f 525/525/525 527/527/527 528/528/528
f 529/529/529 530/530/530 531/531/531
f 529/529/529 531/531/531 532/532/532
f 533/533/533 534/534/534 535/535/535
f 533/533/533 535/535/535 536/536/536
f 537/537/537 538/538/538 539/539/539
f 537/537/537 539/539/539 540/540/540
f 541/541/541 542/542/542 543/543/543
f 541/541/541 543/543/543 544/544/544
f 545/545/545 546/546/546 547/547/547
f 545/545/545 547/547/547 548/548/548
f 549/549/549 550/550/550 551/551/551
f 549/549/549 551/551/551 552/552/552
f 553/553/553 554/554/554 555/555/555
f 553/553/553 555/555/555 556/556/556
f 557/557/557 558/558/558 559/559/559
f 557/557/557 559/559/559 560/560/560
f 561/561/561 562/562/562 563/563/563
f 561/561/561 563/563/563 564/564/564
f 565/565/565 566/566/566 567/567/567
f 565/565/565 567/567/567 568/568/568
f 569/569/569 570/570/570 571/571/571
f 569/569/569 571/571/571 572/572/572
f 573/573/573 574/574/574 575/575/575
f 573/573/573 575/575/575 576/576/576
f 577/577/577 578/578/578 579/579/579
f 577/577/577 579/579/579 580/580/580
f 581/581/581 582/582/582 583/583/583
f 581/581/581 583/583/583 584/584/584
f 585/585/585 586/586/586 587/587/587
f 585/585/585 587/587/587 588/588/588
f 589/589/589 590/590/590 591/591/591
f 589/589/589 591/591/591 592/592/592
f 593/593/593 594/594/594 595/595/595
f 593/593/593 595/595/595 596/596/596
f 597/597/597 598/598/598 599/599/599
f 597/597/597 599/599/599 600/600/600
f 601/601/601 602/602/602 603/603/603
f 601/601/601 603/603/603 604/604/604
f 605/605/605 606/606/606 607/607/607
f 605/605/605 607/607/607 608/608/608
