v -0.635418 -0.183007 0.46346
v -0.594102 -0.211115 0.467427
v -0.581306 -0.191515 0.466981
v -0.621787 -0.165217 0.462821
v -0.648529 -0.200557 0.459901
v -0.606321 -0.230328 0.463668
v -0.594102 -0.211115 0.467427
v -0.635418 -0.183007 0.46346
v -0.581306 -0.191515 0.466981
v -0.594102 -0.211115 0.467427
v -0.588212 -0.214191 0.466203
v -0.575519 -0.194737 0.465787
v -0.600321 -0.233236 0.462469
v -0.588212 -0.214191 0.466203
v -0.594102 -0.211115 0.467427
v -0.606321 -0.230328 0.463668
v -0.568513 -0.172403 0.462482
v -0.581306 -0.191515 0.466981
v -0.575519 -0.194737 0.465787
v -0.562792 -0.175773 0.461371
v -0.568513 -0.172403 0.462482
v -0.608234 -0.147955 0.458134
v -0.621787 -0.165217 0.462821
v -0.581306 -0.191515 0.466981
v -0.562792 -0.175773 0.461371
v -0.575519 -0.194737 0.465787
v -0.571293 -0.19752 0.461423
v -0.558851 -0.179187 0.457191
v -0.575519 -0.194737 0.465787
v -0.588212 -0.214191 0.466203
v -0.583571 -0.216346 0.461806
v -0.571293 -0.19752 0.461423
v -0.558851 -0.179187 0.457191
v -0.571293 -0.19752 0.461423
v -0.569761 -0.199119 0.455059
v -0.557807 -0.1816 0.451061
v -0.571293 -0.19752 0.461423
v -0.583571 -0.216346 0.461806
v -0.581423 -0.217004 0.455416
v -0.569761 -0.199119 0.455059
v -0.5925 -0.234431 0.451993
v -0.581423 -0.217004 0.455416
v -0.583571 -0.216346 0.461806
v -0.595262 -0.234737 0.458196
v -0.595262 -0.234737 0.458196
v -0.583571 -0.216346 0.461806
v -0.588212 -0.214191 0.466203
v -0.600321 -0.233236 0.462469
v -0.6026 -0.250766 0.445077
v -0.5925 -0.234431 0.451993
v -0.595262 -0.234737 0.458196
v -0.605946 -0.252016 0.450878
v -0.605946 -0.252016 0.450878
v -0.595262 -0.234737 0.458196
v -0.600321 -0.233236 0.462469
v -0.611407 -0.251163 0.454872
v -0.611407 -0.251163 0.454872
v -0.600321 -0.233236 0.462469
v -0.606321 -0.230328 0.463668
v -0.61752 -0.248434 0.455988
v -0.615214 -0.267505 0.440265
v -0.605946 -0.252016 0.450878
v -0.611407 -0.251163 0.454872
v -0.62106 -0.267293 0.443808
v -0.62106 -0.267293 0.443808
v -0.611407 -0.251163 0.454872
v -0.61752 -0.248434 0.455988
v -0.627288 -0.264755 0.44478
v -0.61752 -0.248434 0.455988
v -0.66064 -0.217208 0.452426
v -0.671297 -0.232327 0.441423
v -0.627288 -0.264755 0.44478
v -0.606321 -0.230328 0.463668
v -0.648529 -0.200557 0.459901
v -0.66064 -0.217208 0.452426
v -0.61752 -0.248434 0.455988
v -0.635215 -0.278615 0.430436
v -0.627288 -0.264755 0.44478
v -0.671297 -0.232327 0.441423
v -0.68005 -0.245282 0.427283
v -0.68652 -0.255528 0.410453
v -0.640962 -0.289442 0.413407
v -0.635215 -0.278615 0.430436
v -0.68005 -0.245282 0.427283
v -0.635215 -0.278615 0.430436
v -0.640962 -0.289442 0.413407
v -0.634526 -0.291604 0.412932
v -0.628873 -0.280954 0.429683
v -0.628873 -0.280954 0.429683
v -0.62106 -0.267293 0.443808
v -0.627288 -0.264755 0.44478
v -0.635215 -0.278615 0.430436
v -0.640962 -0.289442 0.413407
v -0.64449 -0.297093 0.394371
v -0.637992 -0.299125 0.394197
v -0.634526 -0.291604 0.412932
v -0.640962 -0.289442 0.413407
v -0.68652 -0.255528 0.410453
v -0.69062 -0.262882 0.391614
v -0.64449 -0.297093 0.394371
v -0.64449 -0.297093 0.394371
v -0.645831 -0.301533 0.374063
v -0.639306 -0.303488 0.374192
v -0.637992 -0.299125 0.394197
v -0.64449 -0.297093 0.394371
v -0.69062 -0.262882 0.391614
v -0.692338 -0.267247 0.371508
v -0.645831 -0.301533 0.374063
v -0.645019 -0.302725 0.353217
v -0.645831 -0.301533 0.374063
v -0.692338 -0.267247 0.371508
v -0.691659 -0.26853 0.350873
v -0.688598 -0.266668 0.330451
v -0.642096 -0.30065 0.332572
v -0.645019 -0.302725 0.353217
v -0.691659 -0.26853 0.350873
v -0.645831 -0.301533 0.374063
v -0.645019 -0.302725 0.353217
v -0.638502 -0.304657 0.353644
v -0.639306 -0.303488 0.374192
v -0.645019 -0.302725 0.353217
v -0.642096 -0.30065 0.332572
v -0.635623 -0.302616 0.333292
v -0.638502 -0.304657 0.353644
v -0.642096 -0.30065 0.332572
v -0.637147 -0.29535 0.312886
v -0.630753 -0.297402 0.313892
v -0.635623 -0.302616 0.333292
v -0.642096 -0.30065 0.332572
v -0.688598 -0.266668 0.330451
v -0.683268 -0.261734 0.310991
v -0.637147 -0.29535 0.312886
v -0.637147 -0.29535 0.312886
v -0.630266 -0.28688 0.294921
v -0.623984 -0.289071 0.296201
v -0.630753 -0.297402 0.313892
v -0.637147 -0.29535 0.312886
v -0.683268 -0.261734 0.310991
v -0.675812 -0.253834 0.293244
v -0.630266 -0.28688 0.294921
v -0.666371 -0.243074 0.277961
v -0.621549 -0.2753 0.279438
v -0.630266 -0.28688 0.294921
v -0.675812 -0.253834 0.293244
v -0.655148 -0.229651 0.265812
v -0.61115 -0.260766 0.267116
v -0.621549 -0.2753 0.279438
v -0.666371 -0.243074 0.277961
v -0.630266 -0.28688 0.294921
v -0.621549 -0.2753 0.279438
v -0.615408 -0.277674 0.280964
v -0.623984 -0.289071 0.296201
v -0.621549 -0.2753 0.279438
v -0.61115 -0.260766 0.267116
v -0.605157 -0.263343 0.268827
v -0.615408 -0.277674 0.280964
v -0.61115 -0.260766 0.267116
v -0.599461 -0.24384 0.258301
v -0.593602 -0.246605 0.260123
v -0.605157 -0.263343 0.268827
v -0.61115 -0.260766 0.267116
v -0.655148 -0.229651 0.265812
v -0.642592 -0.214112 0.257152
v -0.599461 -0.24384 0.258301
v -0.599461 -0.24384 0.258301
v -0.586931 -0.225184 0.253255
v -0.581187 -0.228113 0.255126
v -0.593602 -0.246605 0.260123
v -0.599461 -0.24384 0.258301
v -0.642592 -0.214112 0.257152
v -0.629211 -0.197099 0.252257
v -0.586931 -0.225184 0.253255
v -0.57401 -0.205462 0.252241
v -0.586931 -0.225184 0.253255
v -0.629211 -0.197099 0.252257
v -0.615517 -0.17925 0.251402
v -0.602039 -0.16124 0.254756
v -0.561183 -0.185406 0.255426
v -0.57401 -0.205462 0.252241
v -0.615517 -0.17925 0.251402
v -0.586931 -0.225184 0.253255
v -0.57401 -0.205462 0.252241
v -0.56836 -0.208527 0.254105
v -0.581187 -0.228113 0.255126
v -0.555606 -0.188573 0.257228
v -0.56836 -0.208527 0.254105
v -0.57401 -0.205462 0.252241
v -0.561183 -0.185406 0.255426
v -0.543479 -0.169341 0.264296
v -0.555606 -0.188573 0.257228
v -0.561183 -0.185406 0.255426
v -0.549057 -0.16604 0.262597
v -0.561183 -0.185406 0.255426
v -0.602039 -0.16124 0.254756
v -0.589381 -0.143889 0.262064
v -0.549057 -0.16604 0.262597
v -0.531026 -0.151299 0.275174
v -0.543479 -0.169341 0.264296
v -0.549057 -0.16604 0.262597
v -0.536524 -0.148143 0.27363
v -0.549057 -0.16604 0.262597
v -0.589381 -0.143889 0.262064
v -0.577913 -0.128219 0.272982
v -0.536524 -0.148143 0.27363
v -0.523067 -0.132173 0.288358
v -0.536524 -0.148143 0.27363
v -0.577913 -0.128219 0.272982
v -0.56571 -0.115126 0.287402
v -0.554201 -0.104915 0.304814
v -0.509186 -0.122381 0.306276
v -0.523067 -0.132173 0.288358
v -0.56571 -0.115126 0.287402
v -0.517787 -0.136249 0.289618
v -0.531026 -0.151299 0.275174
v -0.536524 -0.148143 0.27363
v -0.523067 -0.132173 0.288358
v -0.504896 -0.127423 0.307105
v -0.517787 -0.136249 0.289618
v -0.523067 -0.132173 0.288358
v -0.509186 -0.122381 0.306276
v -0.494726 -0.124732 0.326784
v -0.504896 -0.127423 0.307105
v -0.509186 -0.122381 0.306276
v -0.498035 -0.119133 0.326371
v -0.509186 -0.122381 0.306276
v -0.554201 -0.104915 0.304814
v -0.546176 -0.101565 0.324104
v -0.498035 -0.119133 0.326371
v -0.490217 -0.124152 0.347773
v -0.494726 -0.124732 0.326784
v -0.498035 -0.119133 0.326371
v -0.493119 -0.118367 0.347654
v -0.498035 -0.119133 0.326371
v -0.546176 -0.101565 0.324104
v -0.542173 -0.099705 0.344631
v -0.493119 -0.118367 0.347654
v -0.5427 -0.099025 0.365575
v -0.493719 -0.118179 0.369482
v -0.493119 -0.118367 0.347654
v -0.542173 -0.099705 0.344631
v -0.546341 -0.100811 0.386239
v -0.497468 -0.119927 0.391172
v -0.493719 -0.118179 0.369482
v -0.5427 -0.099025 0.365575
v -0.494544 -0.125715 0.390937
v -0.490832 -0.123985 0.369411
v -0.493719 -0.118179 0.369482
v -0.497468 -0.119927 0.391172
v -0.490832 -0.123985 0.369411
v -0.490217 -0.124152 0.347773
v -0.493119 -0.118367 0.347654
v -0.493719 -0.118179 0.369482
v -0.503304 -0.127776 0.410917
v -0.494544 -0.125715 0.390937
v -0.497468 -0.119927 0.391172
v -0.50667 -0.122176 0.411337
v -0.497468 -0.119927 0.391172
v -0.546341 -0.100811 0.386239
v -0.554407 -0.103667 0.405707
v -0.50667 -0.122176 0.411337
v -0.517441 -0.131851 0.428104
v -0.503304 -0.127776 0.410917
v -0.50667 -0.122176 0.411337
v -0.521805 -0.126896 0.428718
v -0.50667 -0.122176 0.411337
v -0.554407 -0.103667 0.405707
v -0.566251 -0.108101 0.423202
v -0.521805 -0.126896 0.428718
v -0.580813 -0.118856 0.437931
v -0.539063 -0.137876 0.443045
v -0.521805 -0.126896 0.428718
v -0.566251 -0.108101 0.423202
v -0.59521 -0.132125 0.449671
v -0.554735 -0.15449 0.454356
v -0.539063 -0.137876 0.443045
v -0.580813 -0.118856 0.437931
v -0.539063 -0.137876 0.443045
v -0.554735 -0.15449 0.454356
v -0.549011 -0.157826 0.453399
v -0.533591 -0.141975 0.442265
v -0.533591 -0.141975 0.442265
v -0.517441 -0.131851 0.428104
v -0.521805 -0.126896 0.428718
v -0.539063 -0.137876 0.443045
v -0.554735 -0.15449 0.454356
v -0.568513 -0.172403 0.462482
v -0.562792 -0.175773 0.461371
v -0.549011 -0.157826 0.453399
v -0.554735 -0.15449 0.454356
v -0.59521 -0.132125 0.449671
v -0.608234 -0.147955 0.458134
v -0.568513 -0.172403 0.462482
v -0.533591 -0.141975 0.442265
v -0.549011 -0.157826 0.453399
v -0.545519 -0.161446 0.449556
v -0.53074 -0.146745 0.438915
v -0.549011 -0.157826 0.453399
v -0.562792 -0.175773 0.461371
v -0.558851 -0.179187 0.457191
v -0.545519 -0.161446 0.449556
v -0.53074 -0.146745 0.438915
v -0.545519 -0.161446 0.449556
v -0.545131 -0.164442 0.443862
v -0.531349 -0.150673 0.433896
v -0.545519 -0.161446 0.449556
v -0.558851 -0.179187 0.457191
v -0.557807 -0.1816 0.451061
v -0.545131 -0.164442 0.443862
v -0.531349 -0.150673 0.433896
v -0.545131 -0.164442 0.443862
v -0.536949 -0.16127 0.364342
v -0.524218 -0.147956 0.36569
v -0.545131 -0.164442 0.443862
v -0.557807 -0.1816 0.451061
v -0.549 -0.178391 0.362976
v -0.536949 -0.16127 0.364342
v -0.536949 -0.16127 0.364342
v -0.549 -0.178391 0.362976
v -0.540193 -0.175183 0.274892
v -0.52876 -0.158094 0.284761
v -0.524218 -0.147956 0.36569
v -0.536949 -0.16127 0.364342
v -0.52876 -0.158094 0.284761
v -0.517087 -0.145239 0.297479
v -0.551644 -0.193126 0.268395
v -0.540193 -0.175183 0.274892
v -0.549 -0.178391 0.362976
v -0.549 -0.178391 0.362976
v -0.557807 -0.1816 0.451061
v -0.569761 -0.199119 0.455059
v -0.569761 -0.199119 0.455059
v -0.581423 -0.217004 0.455416
v -0.549 -0.178391 0.362976
v -0.581423 -0.217004 0.455416
v -0.5925 -0.234431 0.451993
v -0.549 -0.178391 0.362976
v -0.5925 -0.234431 0.451993
v -0.6026 -0.250766 0.445077
v -0.549 -0.178391 0.362976
v -0.6026 -0.250766 0.445077
v -0.611317 -0.265333 0.435098
v -0.549 -0.178391 0.362976
v -0.611317 -0.265333 0.435098
v -0.618276 -0.277501 0.422527
v -0.549 -0.178391 0.362976
v -0.618276 -0.277501 0.422527
v -0.623273 -0.286917 0.407719
v -0.549 -0.178391 0.362976
v -0.623273 -0.286917 0.407719
v -0.626347 -0.293592 0.391072
v -0.549 -0.178391 0.362976
v -0.626347 -0.293592 0.391072
v -0.627517 -0.297485 0.373172
v -0.549 -0.178391 0.362976
v -0.627517 -0.297485 0.373172
v -0.62679 -0.298529 0.354711
v -0.549 -0.178391 0.362976
v -0.62679 -0.298529 0.354711
v -0.624205 -0.296698 0.336411
v -0.549 -0.178391 0.362976
v -0.624205 -0.296698 0.336411
v -0.619845 -0.292033 0.319018
v -0.549 -0.178391 0.362976
v -0.619845 -0.292033 0.319018
v -0.613822 -0.28462 0.30326
v -0.549 -0.178391 0.362976
v -0.613822 -0.28462 0.30326
v -0.606224 -0.274522 0.28976
v -0.549 -0.178391 0.362976
v -0.606224 -0.274522 0.28976
v -0.59708 -0.261732 0.278938
v -0.549 -0.178391 0.362976
v -0.59708 -0.261732 0.278938
v -0.586619 -0.246575 0.271069
v -0.549 -0.178391 0.362976
v -0.586619 -0.246575 0.271069
v -0.575258 -0.229646 0.266499
v -0.549 -0.178391 0.362976
v -0.575258 -0.229646 0.266499
v -0.563446 -0.211601 0.265545
v -0.549 -0.178391 0.362976
v -0.563446 -0.211601 0.265545
v -0.551644 -0.193126 0.268395
v -0.549 -0.178391 0.362976
v -0.540193 -0.175183 0.274892
v -0.551644 -0.193126 0.268395
v -0.552115 -0.191399 0.261975
v -0.540219 -0.172719 0.268796
v -0.551644 -0.193126 0.268395
v -0.563446 -0.211601 0.265545
v -0.564493 -0.210774 0.258974
v -0.552115 -0.191399 0.261975
v -0.540219 -0.172719 0.268796
v -0.552115 -0.191399 0.261975
v -0.555606 -0.188573 0.257228
v -0.543479 -0.169341 0.264296
v -0.552115 -0.191399 0.261975
v -0.564493 -0.210774 0.258974
v -0.56836 -0.208527 0.254105
v -0.555606 -0.188573 0.257228
v -0.581187 -0.228113 0.255126
v -0.56836 -0.208527 0.254105
v -0.564493 -0.210774 0.258974
v -0.576914 -0.229746 0.259974
v -0.576914 -0.229746 0.259974
v -0.564493 -0.210774 0.258974
v -0.563446 -0.211601 0.265545
v -0.575258 -0.229646 0.266499
v -0.593602 -0.246605 0.260123
v -0.581187 -0.228113 0.255126
v -0.576914 -0.229746 0.259974
v -0.588902 -0.247607 0.264796
v -0.588902 -0.247607 0.264796
v -0.576914 -0.229746 0.259974
v -0.575258 -0.229646 0.266499
v -0.586619 -0.246575 0.271069
v -0.605157 -0.263343 0.268827
v -0.593602 -0.246605 0.260123
v -0.588902 -0.247607 0.264796
v -0.600007 -0.263697 0.273154
v -0.600007 -0.263697 0.273154
v -0.588902 -0.247607 0.264796
v -0.586619 -0.246575 0.271069
v -0.59708 -0.261732 0.278938
v -0.615408 -0.277674 0.280964
v -0.605157 -0.263343 0.268827
v -0.600007 -0.263697 0.273154
v -0.609798 -0.277389 0.284742
v -0.609798 -0.277389 0.284742
v -0.600007 -0.263697 0.273154
v -0.59708 -0.261732 0.278938
v -0.606224 -0.274522 0.28976
v -0.623984 -0.289071 0.296201
v -0.615408 -0.277674 0.280964
v -0.609798 -0.277389 0.284742
v -0.617965 -0.288243 0.299253
v -0.617965 -0.288243 0.299253
v -0.609798 -0.277389 0.284742
v -0.606224 -0.274522 0.28976
v -0.613822 -0.28462 0.30326
v -0.630753 -0.297402 0.313892
v -0.623984 -0.289071 0.296201
v -0.617965 -0.288243 0.299253
v -0.62442 -0.296188 0.316136
v -0.62442 -0.296188 0.316136
v -0.617965 -0.288243 0.299253
v -0.613822 -0.28462 0.30326
v -0.619845 -0.292033 0.319018
v -0.635623 -0.302616 0.333292
v -0.630753 -0.297402 0.313892
v -0.62442 -0.296188 0.316136
v -0.629075 -0.301169 0.334697
v -0.629075 -0.301169 0.334697
v -0.62442 -0.296188 0.316136
v -0.619845 -0.292033 0.319018
v -0.624205 -0.296698 0.336411
v -0.638502 -0.304657 0.353644
v -0.635623 -0.302616 0.333292
v -0.629075 -0.301169 0.334697
v -0.63183 -0.303121 0.354191
v -0.63183 -0.303121 0.354191
v -0.629075 -0.301169 0.334697
v -0.624205 -0.296698 0.336411
v -0.62679 -0.298529 0.354711
v -0.639306 -0.303488 0.374192
v -0.638502 -0.304657 0.353644
v -0.63183 -0.303121 0.354191
v -0.632603 -0.302006 0.373866
v -0.632603 -0.302006 0.373866
v -0.63183 -0.303121 0.354191
v -0.62679 -0.298529 0.354711
v -0.627517 -0.297485 0.373172
v -0.637992 -0.299125 0.394197
v -0.639306 -0.303488 0.374192
v -0.632603 -0.302006 0.373866
v -0.631352 -0.297844 0.392989
v -0.631352 -0.297844 0.392989
v -0.632603 -0.302006 0.373866
v -0.627517 -0.297485 0.373172
v -0.626347 -0.293592 0.391072
v -0.634526 -0.291604 0.412932
v -0.637992 -0.299125 0.394197
v -0.631352 -0.297844 0.392989
v -0.628051 -0.29068 0.41085
v -0.628051 -0.29068 0.41085
v -0.631352 -0.297844 0.392989
v -0.626347 -0.293592 0.391072
v -0.623273 -0.286917 0.407719
v -0.628873 -0.280954 0.429683
v -0.634526 -0.291604 0.412932
v -0.628051 -0.29068 0.41085
v -0.622673 -0.280546 0.426788
v -0.622673 -0.280546 0.426788
v -0.628051 -0.29068 0.41085
v -0.623273 -0.286917 0.407719
v -0.618276 -0.277501 0.422527
v -0.618276 -0.277501 0.422527
v -0.611317 -0.265333 0.435098
v -0.615214 -0.267505 0.440265
v -0.622673 -0.280546 0.426788
v -0.622673 -0.280546 0.426788
v -0.615214 -0.267505 0.440265
v -0.62106 -0.267293 0.443808
v -0.628873 -0.280954 0.429683
v -0.611317 -0.265333 0.435098
v -0.6026 -0.250766 0.445077
v -0.605946 -0.252016 0.450878
v -0.615214 -0.267505 0.440265
v -0.52876 -0.158094 0.284761
v -0.540193 -0.175183 0.274892
v -0.540219 -0.172719 0.268796
v -0.528196 -0.154954 0.279247
v -0.528196 -0.154954 0.279247
v -0.540219 -0.172719 0.268796
v -0.543479 -0.169341 0.264296
v -0.531026 -0.151299 0.275174
v -0.517087 -0.145239 0.297479
v -0.52876 -0.158094 0.284761
v -0.528196 -0.154954 0.279247
v -0.515591 -0.141057 0.292956
v -0.515591 -0.141057 0.292956
v -0.528196 -0.154954 0.279247
v -0.531026 -0.151299 0.275174
v -0.517787 -0.136249 0.289618
v -0.506605 -0.138219 0.312574
v -0.517087 -0.145239 0.297479
v -0.515591 -0.141057 0.292956
v -0.503838 -0.133363 0.309416
v -0.503838 -0.133363 0.309416
v -0.515591 -0.141057 0.292956
v -0.517787 -0.136249 0.289618
v -0.504896 -0.127423 0.307105
v -0.498928 -0.135706 0.329753
v -0.506605 -0.138219 0.312574
v -0.503838 -0.133363 0.309416
v -0.495039 -0.130814 0.328023
v -0.495039 -0.130814 0.328023
v -0.503838 -0.133363 0.309416
v -0.504896 -0.127423 0.307105
v -0.494726 -0.124732 0.326784
v -0.495505 -0.134917 0.348559
v -0.498928 -0.135706 0.329753
v -0.495039 -0.130814 0.328023
v -0.49109 -0.13021 0.348105
v -0.49109 -0.13021 0.348105
v -0.495039 -0.130814 0.328023
v -0.494726 -0.124732 0.326784
v -0.490217 -0.124152 0.347773
v -0.496087 -0.134782 0.368344
v -0.495505 -0.134917 0.348559
v -0.49109 -0.13021 0.348105
v -0.491699 -0.130062 0.368995
v -0.491699 -0.130062 0.368995
v -0.49109 -0.13021 0.348105
v -0.490217 -0.124152 0.347773
v -0.490832 -0.123985 0.369411
v -0.49948 -0.136363 0.388069
v -0.496087 -0.134782 0.368344
v -0.491699 -0.130062 0.368995
v -0.49528 -0.131731 0.389801
v -0.49528 -0.131731 0.389801
v -0.491699 -0.130062 0.368995
v -0.490832 -0.123985 0.369411
v -0.494544 -0.125715 0.390937
v -0.506726 -0.138511 0.406096
v -0.49948 -0.136363 0.388069
v -0.49528 -0.131731 0.389801
v -0.50331 -0.133771 0.408999
v -0.50331 -0.133771 0.408999
v -0.49528 -0.131731 0.389801
v -0.494544 -0.125715 0.390937
v -0.503304 -0.127776 0.410917
v -0.517896 -0.142359 0.421351
v -0.506726 -0.138511 0.406096
v -0.50331 -0.133771 0.408999
v -0.515875 -0.13774 0.425413
v -0.515875 -0.13774 0.425413
v -0.50331 -0.133771 0.408999
v -0.503304 -0.127776 0.410917
v -0.517441 -0.131851 0.428104
v -0.531349 -0.150673 0.433896
v -0.517896 -0.142359 0.421351
v -0.515875 -0.13774 0.425413
v -0.53074 -0.146745 0.438915
v -0.53074 -0.146745 0.438915
v -0.515875 -0.13774 0.425413
v -0.517441 -0.131851 0.428104
v -0.533591 -0.141975 0.442265
v -0.517896 -0.142359 0.421351
v -0.531349 -0.150673 0.433896
v -0.524218 -0.147956 0.36569
v -0.51224 -0.140285 0.366861
v -0.506726 -0.138511 0.406096
v -0.517896 -0.142359 0.421351
v -0.51224 -0.140285 0.366861
v -0.502807 -0.137102 0.367727
v -0.502807 -0.137102 0.367727
v -0.51224 -0.140285 0.366861
v -0.506605 -0.138219 0.312574
v -0.498928 -0.135706 0.329753
v -0.51224 -0.140285 0.366861
v -0.524218 -0.147956 0.36569
v -0.517087 -0.145239 0.297479
v -0.506605 -0.138219 0.312574
v -0.497482 -0.135636 0.368208
v -0.502807 -0.137102 0.367727
v -0.498928 -0.135706 0.329753
v -0.495505 -0.134917 0.348559
v -0.49948 -0.136363 0.388069
v -0.506726 -0.138511 0.406096
v -0.502807 -0.137102 0.367727
v -0.497482 -0.135636 0.368208
v -0.495505 -0.134917 0.348559
v -0.496087 -0.134782 0.368344
v -0.497482 -0.135636 0.368208
v -0.496087 -0.134782 0.368344
v -0.49948 -0.136363 0.388069
v -0.497482 -0.135636 0.368208
vn -0.1061 -0.0142 0.9943
vn 0.0052 -0.089 0.996
vn 0.0932 0.0677 0.9933
vn -0.0113 0.1408 0.99
vn -0.2048 -0.1675 0.9644
vn -0.0866 -0.2443 0.9658
vn 0.0052 -0.089 0.996
vn -0.1061 -0.0142 0.9943
vn 0.0932 0.0677 0.9933
vn 0.0052 -0.089 0.996
vn 0.3276 -0.2877 0.8999
vn 0.4006 -0.1498 0.9039
vn 0.2516 -0.4242 0.8699
vn 0.3276 -0.2877 0.8999
vn 0.0052 -0.089 0.996
vn -0.0866 -0.2443 0.9658
vn 0.166 0.2166 0.962
vn 0.0932 0.0677 0.9933
vn 0.4006 -0.1498 0.9039
vn 0.4564 -0.0265 0.8894
vn 0.166 0.2166 0.962
vn 0.0711 0.2903 0.9543
vn -0.0113 0.1408 0.99
vn 0.0932 0.0677 0.9933
vn 0.4564 -0.0265 0.8894
vn 0.4006 -0.1498 0.9039
vn 0.716 -0.4031 0.57
vn 0.7482 -0.3461 0.566
vn 0.4006 -0.1498 0.9039
vn 0.3276 -0.2877 0.8999
vn 0.6713 -0.4803 0.5645
vn 0.716 -0.4031 0.57
vn 0.7482 -0.3461 0.566
vn 0.716 -0.4031 0.57
vn 0.8267 -0.5251 0.2019
vn 0.8287 -0.5233 0.1986
vn 0.716 -0.4031 0.57
vn 0.6713 -0.4803 0.5645
vn 0.8156 -0.5426 0.201
vn 0.8267 -0.5251 0.2019
vn 0.8024 -0.5635 0.1965
vn 0.8156 -0.5426 0.201
vn 0.6713 -0.4803 0.5645
vn 0.6243 -0.5585 0.5463
vn 0.6243 -0.5585 0.5463
vn 0.6713 -0.4803 0.5645
vn 0.3276 -0.2877 0.8999
vn 0.2516 -0.4242 0.8699
vn 0.7899 -0.5838 0.1877
vn 0.8024 -0.5635 0.1965
vn 0.6243 -0.5585 0.5463
vn 0.5794 -0.6335 0.5128
vn 0.5794 -0.6335 0.5128
vn 0.6243 -0.5585 0.5463
vn 0.2516 -0.4242 0.8699
vn 0.1778 -0.5543 0.8131
vn 0.1778 -0.5543 0.8131
vn 0.2516 -0.4242 0.8699
vn -0.0866 -0.2443 0.9658
vn -0.1763 -0.3919 0.9029
vn 0.5368 -0.7058 0.4623
vn 0.5794 -0.6335 0.5128
vn 0.1778 -0.5543 0.8131
vn 0.1074 -0.6786 0.7266
vn 0.1074 -0.6786 0.7266
vn 0.1778 -0.5543 0.8131
vn -0.1763 -0.3919 0.9029
vn -0.2621 -0.5325 0.8048
vn -0.1763 -0.3919 0.9029
vn -0.3012 -0.3127 0.9008
vn -0.3929 -0.4504 0.8017
vn -0.2621 -0.5325 0.8048
vn -0.0866 -0.2443 0.9658
vn -0.2048 -0.1675 0.9644
vn -0.3012 -0.3127 0.9008
vn -0.1763 -0.3919 0.9029
vn -0.3398 -0.6633 0.6668
vn -0.2621 -0.5325 0.8048
vn -0.3929 -0.4504 0.8017
vn -0.4759 -0.578 0.6629
vn -0.5397 -0.6827 0.4926
vn -0.3992 -0.7704 0.4971
vn -0.3398 -0.6633 0.6668
vn -0.4759 -0.578 0.6629
vn -0.3398 -0.6633 0.6668
vn -0.3992 -0.7704 0.4971
vn -0.0045 -0.8897 0.4566
vn 0.0436 -0.7946 0.6055
vn 0.0436 -0.7946 0.6055
vn 0.1074 -0.6786 0.7266
vn -0.2621 -0.5325 0.8048
vn -0.3398 -0.6633 0.6668
vn -0.3992 -0.7704 0.4971
vn -0.4346 -0.844 0.3144
vn -0.0325 -0.9543 0.2969
vn -0.0045 -0.8897 0.4566
vn -0.3992 -0.7704 0.4971
vn -0.5397 -0.6827 0.4926
vn -0.5783 -0.755 0.3093
vn -0.4346 -0.844 0.3144
vn -0.4346 -0.844 0.3144
vn -0.4479 -0.8848 0.1285
vn -0.0424 -0.9898 0.1357
vn -0.0325 -0.9543 0.2969
vn -0.4346 -0.844 0.3144
vn -0.5783 -0.755 0.3093
vn -0.5935 -0.7955 0.1221
vn -0.4479 -0.8848 0.1285
vn -0.4424 -0.895 -0.0576
vn -0.4479 -0.8848 0.1285
vn -0.5935 -0.7955 0.1221
vn -0.5882 -0.806 -0.0659
vn -0.5638 -0.7868 -0.2513
vn -0.4193 -0.8753 -0.2411
vn -0.4424 -0.895 -0.0576
vn -0.5882 -0.806 -0.0659
vn -0.4479 -0.8848 0.1285
vn -0.4424 -0.895 -0.0576
vn -0.0373 -0.999 -0.0248
vn -0.0424 -0.9898 0.1357
vn -0.4424 -0.895 -0.0576
vn -0.4193 -0.8753 -0.2411
vn -0.0182 -0.9829 -0.1834
vn -0.0373 -0.999 -0.0248
vn -0.4193 -0.8753 -0.2411
vn -0.378 -0.8253 -0.4195
vn 0.0157 -0.9406 -0.3392
vn -0.0182 -0.9829 -0.1834
vn -0.4193 -0.8753 -0.2411
vn -0.5638 -0.7868 -0.2513
vn -0.52 -0.7377 -0.4305
vn -0.378 -0.8253 -0.4195
vn -0.378 -0.8253 -0.4195
vn -0.3161 -0.743 -0.59
vn 0.067 -0.8691 -0.49
vn 0.0157 -0.9406 -0.3392
vn -0.378 -0.8253 -0.4195
vn -0.52 -0.7377 -0.4305
vn -0.4545 -0.6574 -0.601
vn -0.3161 -0.743 -0.59
vn -0.3667 -0.5451 -0.754
vn -0.2327 -0.6275 -0.743
vn -0.3161 -0.743 -0.59
vn -0.4545 -0.6574 -0.601
vn -0.2648 -0.4111 -0.8723
vn -0.1362 -0.4898 -0.8611
vn -0.2327 -0.6275 -0.743
vn -0.3667 -0.5451 -0.754
vn -0.3161 -0.743 -0.59
vn -0.2327 -0.6275 -0.743
vn 0.1367 -0.7673 -0.6266
vn 0.067 -0.8691 -0.49
vn -0.2327 -0.6275 -0.743
vn -0.1362 -0.4898 -0.8611
vn 0.2179 -0.6451 -0.7324
vn 0.1367 -0.7673 -0.6266
vn -0.1362 -0.4898 -0.8611
vn -0.0383 -0.345 -0.9378
vn 0.3002 -0.5166 -0.8019
vn 0.2179 -0.6451 -0.7324
vn -0.1362 -0.4898 -0.8611
vn -0.2648 -0.4111 -0.8723
vn -0.1609 -0.2696 -0.9494
vn -0.0383 -0.345 -0.9378
vn -0.0383 -0.345 -0.9378
vn 0.0567 -0.196 -0.979
vn 0.3802 -0.3848 -0.8411
vn 0.3002 -0.5166 -0.8019
vn -0.0383 -0.345 -0.9378
vn -0.1609 -0.2696 -0.9494
vn -0.0595 -0.1233 -0.9906
vn 0.0567 -0.196 -0.979
vn 0.1467 -0.042 -0.9883
vn 0.0567 -0.196 -0.979
vn -0.0595 -0.1233 -0.9906
vn 0.037 0.0289 -0.9989
vn 0.1231 0.183 -0.9754
vn 0.2267 0.1137 -0.9673
vn 0.1467 -0.042 -0.9883
vn 0.037 0.0289 -0.9989
vn 0.0567 -0.196 -0.979
vn 0.1467 -0.042 -0.9883
vn 0.4567 -0.2491 -0.854
vn 0.3802 -0.3848 -0.8411
vn 0.5252 -0.1118 -0.8436
vn 0.4567 -0.2491 -0.854
vn 0.1467 -0.042 -0.9883
vn 0.2267 0.1137 -0.9673
vn 0.5773 0.0153 -0.8164
vn 0.5252 -0.1118 -0.8436
vn 0.2267 0.1137 -0.9673
vn 0.2896 0.2655 -0.9196
vn 0.2267 0.1137 -0.9673
vn 0.1231 0.183 -0.9754
vn 0.1938 0.3347 -0.9222
vn 0.2896 0.2655 -0.9196
vn 0.6187 0.1196 -0.7765
vn 0.5773 0.0153 -0.8164
vn 0.2896 0.2655 -0.9196
vn 0.3382 0.4059 -0.8491
vn 0.2896 0.2655 -0.9196
vn 0.1938 0.3347 -0.9222
vn 0.2422 0.479 -0.8437
vn 0.3382 0.4059 -0.8491
vn 0.3992 0.548 -0.735
vn 0.3382 0.4059 -0.8491
vn 0.2422 0.479 -0.8437
vn 0.2788 0.628 -0.7265
vn 0.3232 0.797 -0.5102
vn 0.5067 0.6796 -0.5305
vn 0.3992 0.548 -0.735
vn 0.2788 0.628 -0.7265
vn 0.6822 0.2004 -0.7032
vn 0.6187 0.1196 -0.7765
vn 0.3382 0.4059 -0.8491
vn 0.3992 0.548 -0.735
vn 0.7945 0.2316 -0.5614
vn 0.6822 0.2004 -0.7032
vn 0.3992 0.548 -0.735
vn 0.5067 0.6796 -0.5305
vn 0.9181 0.2007 -0.3417
vn 0.7945 0.2316 -0.5614
vn 0.5067 0.6796 -0.5305
vn 0.6203 0.7253 -0.2986
vn 0.5067 0.6796 -0.5305
vn 0.3232 0.797 -0.5102
vn 0.3497 0.9054 -0.2408
vn 0.6203 0.7253 -0.2986
vn 0.9814 0.1684 -0.0923
vn 0.9181 0.2007 -0.3417
vn 0.6203 0.7253 -0.2986
vn 0.6777 0.7301 -0.0874
vn 0.6203 0.7253 -0.2986
vn 0.3497 0.9054 -0.2408
vn 0.3569 0.9311 -0.0758
vn 0.6777 0.7301 -0.0874
vn 0.3561 0.9322 0.0651
vn 0.6727 0.7343 0.0916
vn 0.6777 0.7301 -0.0874
vn 0.3569 0.9311 -0.0758
vn 0.3375 0.919 0.2038
vn 0.6492 0.7113 0.2694
vn 0.6727 0.7343 0.0916
vn 0.3561 0.9322 0.0651
vn 0.9441 0.1456 0.2957
vn 0.9815 0.1614 0.1034
vn 0.6727 0.7343 0.0916
vn 0.6492 0.7113 0.2694
vn 0.9815 0.1614 0.1034
vn 0.9814 0.1684 -0.0923
vn 0.6777 0.7301 -0.0874
vn 0.6727 0.7343 0.0916
vn 0.8337 0.1508 0.5313
vn 0.9441 0.1456 0.2957
vn 0.6492 0.7113 0.2694
vn 0.5569 0.6846 0.4703
vn 0.6492 0.7113 0.2694
vn 0.3375 0.919 0.2038
vn 0.3057 0.8772 0.3701
vn 0.5569 0.6846 0.4703
vn 0.6749 0.1621 0.7199
vn 0.8337 0.1508 0.5313
vn 0.5569 0.6846 0.4703
vn 0.4092 0.6175 0.6717
vn 0.5569 0.6846 0.4703
vn 0.3057 0.8772 0.3701
vn 0.2401 0.7469 0.6201
vn 0.4092 0.6175 0.6717
vn 0.1735 0.5719 0.8018
vn 0.2836 0.4807 0.8298
vn 0.4092 0.6175 0.6717
vn 0.2401 0.7469 0.6201
vn 0.129 0.4286 0.8942
vn 0.2204 0.348 0.9112
vn 0.2836 0.4807 0.8298
vn 0.1735 0.5719 0.8018
vn 0.2836 0.4807 0.8298
vn 0.2204 0.348 0.9112
vn 0.4968 0.0641 0.8655
vn 0.5544 0.1312 0.8219
vn 0.5544 0.1312 0.8219
vn 0.6749 0.1621 0.7199
vn 0.4092 0.6175 0.6717
vn 0.2836 0.4807 0.8298
vn 0.2204 0.348 0.9112
vn 0.166 0.2166 0.962
vn 0.4564 -0.0265 0.8894
vn 0.4968 0.0641 0.8655
vn 0.2204 0.348 0.9112
vn 0.129 0.4286 0.8942
vn 0.0711 0.2903 0.9543
vn 0.166 0.2166 0.962
vn 0.5544 0.1312 0.8219
vn 0.4968 0.0641 0.8655
vn 0.7544 -0.3292 0.568
vn 0.7431 -0.3417 0.5753
vn 0.4968 0.0641 0.8655
vn 0.4564 -0.0265 0.8894
vn 0.7482 -0.3461 0.566
vn 0.7544 -0.3292 0.568
vn 0.7431 -0.3417 0.5753
vn 0.7544 -0.3292 0.568
vn 0.8001 -0.5655 0.2
vn 0.7224 -0.6588 0.2102
vn 0.7544 -0.3292 0.568
vn 0.7482 -0.3461 0.566
vn 0.8287 -0.5233 0.1986
vn 0.8001 -0.5655 0.2
vn 0.7224 -0.6588 0.2102
vn 0.8001 -0.5655 0.2
vn 0.7689 -0.6371 0.0539
vn 0.633 -0.7733 0.0353
vn 0.8001 -0.5655 0.2
vn 0.8287 -0.5233 0.1986
vn 0.8248 -0.562 0.062
vn 0.7689 -0.6371 0.0539
vn 0.7689 -0.6371 0.0539
vn 0.8248 -0.562 0.062
vn 0.8506 -0.521 -0.0709
vn 0.822 -0.5634 -0.0826
vn 0.633 -0.7733 0.0353
vn 0.7689 -0.6371 0.0539
vn 0.822 -0.5634 -0.0826
vn 0.7491 -0.6524 -0.1149
vn 0.8495 -0.5223 -0.0742
vn 0.8506 -0.521 -0.0709
vn 0.8248 -0.562 0.062
vn 0.8248 -0.562 0.062
vn 0.8287 -0.5233 0.1986
vn 0.8267 -0.5251 0.2019
vn 0.8267 -0.5251 0.2019
vn 0.8156 -0.5426 0.201
vn 0.8248 -0.562 0.062
vn 0.8156 -0.5426 0.201
vn 0.8024 -0.5635 0.1965
vn 0.8248 -0.562 0.062
vn 0.8024 -0.5635 0.1965
vn 0.7899 -0.5838 0.1877
vn 0.8248 -0.562 0.062
vn 0.7899 -0.5838 0.1877
vn 0.778 -0.6036 0.1743
vn 0.8248 -0.562 0.062
vn 0.778 -0.6036 0.1743
vn 0.7672 -0.6223 0.1552
vn 0.8248 -0.562 0.062
vn 0.7672 -0.6223 0.1552
vn 0.7593 -0.6373 0.1312
vn 0.8248 -0.562 0.062
vn 0.7593 -0.6373 0.1312
vn 0.7549 -0.6473 0.1054
vn 0.8248 -0.562 0.062
vn 0.7549 -0.6473 0.1054
vn 0.7534 -0.6528 0.0795
vn 0.8248 -0.562 0.062
vn 0.7534 -0.6528 0.0795
vn 0.7544 -0.6542 0.054
vn 0.8248 -0.562 0.062
vn 0.7544 -0.6542 0.054
vn 0.7578 -0.6518 0.0288
vn 0.8248 -0.562 0.062
vn 0.7578 -0.6518 0.0288
vn 0.7638 -0.6455 0.0039
vn 0.8248 -0.562 0.062
vn 0.7638 -0.6455 0.0039
vn 0.7725 -0.6347 -0.0203
vn 0.8248 -0.562 0.062
vn 0.7725 -0.6347 -0.0203
vn 0.7844 -0.6188 -0.0422
vn 0.8248 -0.562 0.062
vn 0.7844 -0.6188 -0.0422
vn 0.7983 -0.5994 -0.0585
vn 0.8248 -0.562 0.062
vn 0.7983 -0.5994 -0.0585
vn 0.8122 -0.5793 -0.0688
vn 0.8248 -0.562 0.062
vn 0.8122 -0.5793 -0.0688
vn 0.8258 -0.559 -0.0745
vn 0.8248 -0.562 0.062
vn 0.8258 -0.559 -0.0745
vn 0.8391 -0.5386 -0.076
vn 0.8248 -0.562 0.062
vn 0.8391 -0.5386 -0.076
vn 0.8495 -0.5223 -0.0742
vn 0.8248 -0.562 0.062
vn 0.8506 -0.521 -0.0709
vn 0.8495 -0.5223 -0.0742
vn 0.798 -0.3868 -0.4621
vn 0.8299 -0.328 -0.4513
vn 0.8495 -0.5223 -0.0742
vn 0.8391 -0.5386 -0.076
vn 0.7546 -0.4625 -0.4655
vn 0.798 -0.3868 -0.4621
vn 0.8299 -0.328 -0.4513
vn 0.798 -0.3868 -0.4621
vn 0.5252 -0.1118 -0.8436
vn 0.5773 0.0153 -0.8164
vn 0.798 -0.3868 -0.4621
vn 0.7546 -0.4625 -0.4655
vn 0.4567 -0.2491 -0.854
vn 0.5252 -0.1118 -0.8436
vn 0.3802 -0.3848 -0.8411
vn 0.4567 -0.2491 -0.854
vn 0.7546 -0.4625 -0.4655
vn 0.7065 -0.54 -0.4575
vn 0.7065 -0.54 -0.4575
vn 0.7546 -0.4625 -0.4655
vn 0.8391 -0.5386 -0.076
vn 0.8258 -0.559 -0.0745
vn 0.3002 -0.5166 -0.8019
vn 0.3802 -0.3848 -0.8411
vn 0.7065 -0.54 -0.4575
vn 0.6572 -0.6158 -0.4346
vn 0.6572 -0.6158 -0.4346
vn 0.7065 -0.54 -0.4575
vn 0.8258 -0.559 -0.0745
vn 0.8122 -0.5793 -0.0688
vn 0.2179 -0.6451 -0.7324
vn 0.3002 -0.5166 -0.8019
vn 0.6572 -0.6158 -0.4346
vn 0.6069 -0.6901 -0.3942
vn 0.6069 -0.6901 -0.3942
vn 0.6572 -0.6158 -0.4346
vn 0.8122 -0.5793 -0.0688
vn 0.7983 -0.5994 -0.0585
vn 0.1367 -0.7673 -0.6266
vn 0.2179 -0.6451 -0.7324
vn 0.6069 -0.6901 -0.3942
vn 0.5572 -0.761 -0.3324
vn 0.5572 -0.761 -0.3324
vn 0.6069 -0.6901 -0.3942
vn 0.7983 -0.5994 -0.0585
vn 0.7844 -0.6188 -0.0422
vn 0.067 -0.8691 -0.49
vn 0.1367 -0.7673 -0.6266
vn 0.5572 -0.761 -0.3324
vn 0.5147 -0.8196 -0.2517
vn 0.5147 -0.8196 -0.2517
vn 0.5572 -0.761 -0.3324
vn 0.7844 -0.6188 -0.0422
vn 0.7725 -0.6347 -0.0203
vn 0.0157 -0.9406 -0.3392
vn 0.067 -0.8691 -0.49
vn 0.5147 -0.8196 -0.2517
vn 0.4836 -0.86 -0.1628
vn 0.4836 -0.86 -0.1628
vn 0.5147 -0.8196 -0.2517
vn 0.7725 -0.6347 -0.0203
vn 0.7638 -0.6455 0.0039
vn -0.0182 -0.9829 -0.1834
vn 0.0157 -0.9406 -0.3392
vn 0.4836 -0.86 -0.1628
vn 0.4628 -0.8836 -0.0714
vn 0.4628 -0.8836 -0.0714
vn 0.4836 -0.86 -0.1628
vn 0.7638 -0.6455 0.0039
vn 0.7578 -0.6518 0.0288
vn -0.0373 -0.999 -0.0248
vn -0.0182 -0.9829 -0.1834
vn 0.4628 -0.8836 -0.0714
vn 0.4509 -0.8923 0.0214
vn 0.4509 -0.8923 0.0214
vn 0.4628 -0.8836 -0.0714
vn 0.7578 -0.6518 0.0288
vn 0.7544 -0.6542 0.054
vn -0.0424 -0.9898 0.1357
vn -0.0373 -0.999 -0.0248
vn 0.4509 -0.8923 0.0214
vn 0.4475 -0.8868 0.1152
vn 0.4475 -0.8868 0.1152
vn 0.4509 -0.8923 0.0214
vn 0.7544 -0.6542 0.054
vn 0.7534 -0.6528 0.0795
vn -0.0325 -0.9543 0.2969
vn -0.0424 -0.9898 0.1357
vn 0.4475 -0.8868 0.1152
vn 0.4531 -0.8664 0.2098
vn 0.4531 -0.8664 0.2098
vn 0.4475 -0.8868 0.1152
vn 0.7534 -0.6528 0.0795
vn 0.7549 -0.6473 0.1054
vn -0.0045 -0.8897 0.4566
vn -0.0325 -0.9543 0.2969
vn 0.4531 -0.8664 0.2098
vn 0.4696 -0.829 0.3038
vn 0.4696 -0.829 0.3038
vn 0.4531 -0.8664 0.2098
vn 0.7549 -0.6473 0.1054
vn 0.7593 -0.6373 0.1312
vn 0.0436 -0.7946 0.6055
vn -0.0045 -0.8897 0.4566
vn 0.4696 -0.829 0.3038
vn 0.4982 -0.7736 0.3915
vn 0.4982 -0.7736 0.3915
vn 0.4696 -0.829 0.3038
vn 0.7593 -0.6373 0.1312
vn 0.7672 -0.6223 0.1552
vn 0.7672 -0.6223 0.1552
vn 0.778 -0.6036 0.1743
vn 0.5368 -0.7058 0.4623
vn 0.4982 -0.7736 0.3915
vn 0.4982 -0.7736 0.3915
vn 0.5368 -0.7058 0.4623
vn 0.1074 -0.6786 0.7266
vn 0.0436 -0.7946 0.6055
vn 0.778 -0.6036 0.1743
vn 0.7899 -0.5838 0.1877
vn 0.5794 -0.6335 0.5128
vn 0.5368 -0.7058 0.4623
vn 0.822 -0.5634 -0.0826
vn 0.8506 -0.521 -0.0709
vn 0.8299 -0.328 -0.4513
vn 0.8391 -0.3032 -0.4516
vn 0.8391 -0.3032 -0.4516
vn 0.8299 -0.328 -0.4513
vn 0.5773 0.0153 -0.8164
vn 0.6187 0.1196 -0.7765
vn 0.7491 -0.6524 -0.1149
vn 0.822 -0.5634 -0.0826
vn 0.8391 -0.3032 -0.4516
vn 0.8368 -0.3042 -0.4551
vn 0.8368 -0.3042 -0.4551
vn 0.8391 -0.3032 -0.4516
vn 0.6187 0.1196 -0.7765
vn 0.6822 0.2004 -0.7032
vn 0.6521 -0.7459 -0.1357
vn 0.7491 -0.6524 -0.1149
vn 0.8368 -0.3042 -0.4551
vn 0.8527 -0.3273 -0.4071
vn 0.8527 -0.3273 -0.4071
vn 0.8368 -0.3042 -0.4551
vn 0.6822 0.2004 -0.7032
vn 0.7945 0.2316 -0.5614
vn 0.564 -0.8192 -0.104
vn 0.6521 -0.7459 -0.1357
vn 0.8527 -0.3273 -0.4071
vn 0.8885 -0.3758 -0.2632
vn 0.8885 -0.3758 -0.2632
vn 0.8527 -0.3273 -0.4071
vn 0.7945 0.2316 -0.5614
vn 0.9181 0.2007 -0.3417
vn 0.5391 -0.8417 -0.0284
vn 0.564 -0.8192 -0.104
vn 0.8885 -0.3758 -0.2632
vn 0.908 -0.4136 -0.0676
vn 0.908 -0.4136 -0.0676
vn 0.8885 -0.3758 -0.2632
vn 0.9181 0.2007 -0.3417
vn 0.9814 0.1684 -0.0923
vn 0.6355 -0.7713 0.0356
vn 0.5391 -0.8417 -0.0284
vn 0.908 -0.4136 -0.0676
vn 0.9031 -0.4229 0.0746
vn 0.9031 -0.4229 0.0746
vn 0.908 -0.4136 -0.0676
vn 0.9814 0.1684 -0.0923
vn 0.9815 0.1614 0.1034
vn 0.5281 -0.846 0.0741
vn 0.6355 -0.7713 0.0356
vn 0.9031 -0.4229 0.0746
vn 0.8783 -0.4272 0.2149
vn 0.8783 -0.4272 0.2149
vn 0.9031 -0.4229 0.0746
vn 0.9815 0.1614 0.1034
vn 0.9441 0.1456 0.2957
vn 0.5392 -0.8278 0.1551
vn 0.5281 -0.846 0.0741
vn 0.8783 -0.4272 0.2149
vn 0.8188 -0.4066 0.4053
vn 0.8188 -0.4066 0.4053
vn 0.8783 -0.4272 0.2149
vn 0.9441 0.1456 0.2957
vn 0.8337 0.1508 0.5313
vn 0.6202 -0.7566 0.207
vn 0.5392 -0.8278 0.1551
vn 0.8188 -0.4066 0.4053
vn 0.7575 -0.3691 0.5384
vn 0.7575 -0.3691 0.5384
vn 0.8188 -0.4066 0.4053
vn 0.8337 0.1508 0.5313
vn 0.6749 0.1621 0.7199
vn 0.7224 -0.6588 0.2102
vn 0.6202 -0.7566 0.207
vn 0.7575 -0.3691 0.5384
vn 0.7431 -0.3417 0.5753
vn 0.7431 -0.3417 0.5753
vn 0.7575 -0.3691 0.5384
vn 0.6749 0.1621 0.7199
vn 0.5544 0.1312 0.8219
vn 0.6202 -0.7566 0.207
vn 0.7224 -0.6588 0.2102
vn 0.633 -0.7733 0.0353
vn 0.4319 -0.9018 0.0104
vn 0.5392 -0.8278 0.1551
vn 0.6202 -0.7566 0.207
vn 0.4319 -0.9018 0.0104
vn 0.2931 -0.9561 -0.0054
vn 0.2931 -0.9561 -0.0054
vn 0.4319 -0.9018 0.0104
vn 0.6521 -0.7459 -0.1357
vn 0.564 -0.8192 -0.104
vn 0.4319 -0.9018 0.0104
vn 0.633 -0.7733 0.0353
vn 0.7491 -0.6524 -0.1149
vn 0.6521 -0.7459 -0.1357
vn 0.3972 -0.9177 0.0065
vn 0.2931 -0.9561 -0.0054
vn 0.564 -0.8192 -0.104
vn 0.5391 -0.8417 -0.0284
vn 0.5281 -0.846 0.0741
vn 0.5392 -0.8278 0.1551
vn 0.2931 -0.9561 -0.0054
vn 0.3972 -0.9177 0.0065
vn 0.5391 -0.8417 -0.0284
vn 0.6355 -0.7713 0.0356
vn 0.3972 -0.9177 0.0065
vn 0.6355 -0.7713 0.0356
vn 0.5281 -0.846 0.0741
vn 0.3972 -0.9177 0.0065
vt 0.962737 0.919236
vt 0.985927 0.918078
vt 0.985165 0.90726
vt 0.962779 0.908851
vt 0.962672 0.929516
vt 0.986647 0.928743
vt 0.985927 0.918078
vt 0.962737 0.919236
vt 0.709577 0.158368
vt 0.709577 0.169702
vt 0.712775 0.169173
vt 0.712804 0.15832
vt 0.714605 0.179699
vt 0.712775 0.169173
vt 0.709577 0.169702
vt 0.711518 0.180738
vt 0.711337 0.147171
vt 0.709577 0.158368
vt 0.712804 0.15832
vt 0.71456 0.14753
vt 0.984364 0.896435
vt 0.962761 0.898456
vt 0.962779 0.908851
vt 0.985165 0.90726
vt 0.71456 0.14753
vt 0.712804 0.15832
vt 0.715937 0.158355
vt 0.717693 0.147999
vt 0.712804 0.15832
vt 0.712775 0.169173
vt 0.715898 0.168723
vt 0.715937 0.158355
vt 0.717693 0.147999
vt 0.715937 0.158355
vt 0.719055 0.158541
vt 0.720759 0.148633
vt 0.715937 0.158355
vt 0.715898 0.168723
vt 0.719007 0.168395
vt 0.719055 0.158541
vt 0.720644 0.177875
vt 0.719007 0.168395
vt 0.715898 0.168723
vt 0.717632 0.178736
vt 0.717632 0.178736
vt 0.715898 0.168723
vt 0.712775 0.169173
vt 0.714605 0.179699
vt 0.723864 0.186667
vt 0.720644 0.177875
vt 0.717632 0.178736
vt 0.721052 0.188051
vt 0.721052 0.188051
vt 0.717632 0.178736
vt 0.714605 0.179699
vt 0.718225 0.189525
vt 0.718225 0.189525
vt 0.714605 0.179699
vt 0.711518 0.180738
vt 0.715346 0.191073
vt 0.725975 0.196292
vt 0.721052 0.188051
vt 0.718225 0.189525
vt 0.723463 0.198259
vt 0.723463 0.198259
vt 0.718225 0.189525
vt 0.715346 0.191073
vt 0.720904 0.2003
vt 0.98732 0.939204
vt 0.962609 0.939662
vt 0.962562 0.949631
vt 0.98793 0.949412
vt 0.986647 0.928743
vt 0.962672 0.929516
vt 0.962609 0.939662
vt 0.98732 0.939204
vt 0.988459 0.95934
vt 0.98793 0.949412
vt 0.962562 0.949631
vt 0.96254 0.959395
vt 0.962547 0.969002
vt 0.98889 0.969049
vt 0.988459 0.95934
vt 0.96254 0.959395
vt 0.727977 0.20803
vt 0.7363 0.213974
vt 0.737881 0.211125
vt 0.730094 0.205537
vt 0.730094 0.205537
vt 0.723463 0.198259
vt 0.720904 0.2003
vt 0.727977 0.20803
vt 0.7363 0.213974
vt 0.745527 0.218047
vt 0.746543 0.214998
vt 0.737881 0.211125
vt 0.98889 0.969049
vt 0.962547 0.969002
vt 0.962587 0.978559
vt 0.989219 0.978686
vt 0.745527 0.218047
vt 0.755356 0.220339
vt 0.755826 0.217109
vt 0.746543 0.214998
vt 0.989219 0.978686
vt 0.962587 0.978559
vt 0.96266 0.988122
vt 0.989448 0.988332
vt 0.989576 0.99801
vt 0.989448 0.988332
vt 0.96266 0.988122
vt 0.962767 0.997703
vt 0.933338 0.406476
vt 0.960033 0.406676
vt 0.959932 0.396971
vt 0.933122 0.396875
vt 0.755356 0.220339
vt 0.765533 0.220753
vt 0.765421 0.217476
vt 0.755826 0.217109
vt 0.765533 0.220753
vt 0.775665 0.219251
vt 0.774968 0.216044
vt 0.765421 0.217476
vt 0.775665 0.219251
vt 0.78536 0.21586
vt 0.784088 0.212839
vt 0.774968 0.216044
vt 0.960033 0.406676
vt 0.933338 0.406476
vt 0.933578 0.416094
vt 0.960027 0.416394
vt 0.78536 0.21586
vt 0.794235 0.210639
vt 0.79241 0.207926
vt 0.784088 0.212839
vt 0.960027 0.416394
vt 0.933578 0.416094
vt 0.933832 0.425729
vt 0.959905 0.426129
vt 0.934084 0.435425
vt 0.959659 0.43595
vt 0.959905 0.426129
vt 0.933832 0.425729
vt 0.934322 0.445289
vt 0.959281 0.445998
vt 0.959659 0.43595
vt 0.934084 0.435425
vt 0.794235 0.210639
vt 0.801935 0.20367
vt 0.799611 0.201382
vt 0.79241 0.207926
vt 0.801935 0.20367
vt 0.808162 0.195069
vt 0.80544 0.193285
vt 0.799611 0.201382
vt 0.808162 0.195069
vt 0.812707 0.185133
vt 0.809716 0.183878
vt 0.80544 0.193285
vt 0.959281 0.445998
vt 0.934322 0.445289
vt 0.934532 0.455372
vt 0.958782 0.456352
vt 0.812707 0.185133
vt 0.815421 0.174249
vt 0.812275 0.173517
vt 0.809716 0.183878
vt 0.958782 0.456352
vt 0.934532 0.455372
vt 0.934698 0.46565
vt 0.958175 0.467003
vt 0.957468 0.477912
vt 0.958175 0.467003
vt 0.934698 0.46565
vt 0.934799 0.476077
vt 0.934801 0.486612
vt 0.956659 0.489008
vt 0.957468 0.477912
vt 0.934799 0.476077
vt 0.815421 0.174249
vt 0.816201 0.162814
vt 0.812996 0.162587
vt 0.812275 0.173517
vt 0.811844 0.151476
vt 0.812996 0.162587
vt 0.816201 0.162814
vt 0.815034 0.151237
vt 0.808949 0.140665
vt 0.811844 0.151476
vt 0.815034 0.151237
vt 0.812112 0.140013
vt 0.956659 0.489008
vt 0.934801 0.486612
vt 0.934658 0.49712
vt 0.955766 0.500064
vt 0.804132 0.130095
vt 0.808949 0.140665
vt 0.812112 0.140013
vt 0.807169 0.129223
vt 0.955766 0.500064
vt 0.934658 0.49712
vt 0.93445 0.507436
vt 0.955357 0.511395
vt 0.95568 0.523227
vt 0.955357 0.511395
vt 0.93445 0.507436
vt 0.935039 0.518066
vt 0.93582 0.528801
vt 0.957451 0.534526
vt 0.95568 0.523227
vt 0.935039 0.518066
vt 0.797347 0.120458
vt 0.804132 0.130095
vt 0.807169 0.129223
vt 0.800257 0.118903
vt 0.788778 0.113367
vt 0.797347 0.120458
vt 0.800257 0.118903
vt 0.791074 0.11108
vt 0.779231 0.109362
vt 0.788778 0.113367
vt 0.791074 0.11108
vt 0.780641 0.106562
vt 0.957451 0.534526
vt 0.93582 0.528801
vt 0.936515 0.538577
vt 0.959361 0.545105
vt 0.769595 0.107521
vt 0.779231 0.109362
vt 0.780641 0.106562
vt 0.770073 0.104371
vt 0.959361 0.545105
vt 0.936515 0.538577
vt 0.935686 0.548267
vt 0.959022 0.555224
vt 0.933122 0.557632
vt 0.956413 0.564997
vt 0.959022 0.555224
vt 0.935686 0.548267
vt 0.965882 0.847142
vt 0.989576 0.841251
vt 0.987475 0.831241
vt 0.963887 0.837594
vt 0.749631 0.109067
vt 0.759587 0.107286
vt 0.759254 0.104146
vt 0.748559 0.106153
vt 0.759587 0.107286
vt 0.769595 0.107521
vt 0.770073 0.104371
vt 0.759254 0.104146
vt 0.740283 0.112409
vt 0.749631 0.109067
vt 0.748559 0.106153
vt 0.73839 0.109928
vt 0.989576 0.841251
vt 0.965882 0.847142
vt 0.966124 0.856989
vt 0.989358 0.851568
vt 0.731324 0.117854
vt 0.740283 0.112409
vt 0.73839 0.109928
vt 0.728691 0.116019
vt 0.989358 0.851568
vt 0.966124 0.856989
vt 0.964878 0.86691
vt 0.986872 0.862177
vt 0.963635 0.877648
vt 0.984615 0.873523
vt 0.986872 0.862177
vt 0.964878 0.86691
vt 0.962728 0.888184
vt 0.984065 0.885315
vt 0.984615 0.873523
vt 0.963635 0.877648
vt 0.720592 0.125104
vt 0.71501 0.136142
vt 0.718198 0.13672
vt 0.723736 0.126235
vt 0.723736 0.126235
vt 0.731324 0.117854
vt 0.728691 0.116019
vt 0.720592 0.125104
vt 0.71501 0.136142
vt 0.711337 0.147171
vt 0.71456 0.14753
vt 0.718198 0.13672
vt 0.984065 0.885315
vt 0.962728 0.888184
vt 0.962761 0.898456
vt 0.984364 0.896435
vt 0.723736 0.126235
vt 0.718198 0.13672
vt 0.721159 0.13743
vt 0.726561 0.127585
vt 0.718198 0.13672
vt 0.71456 0.14753
vt 0.717693 0.147999
vt 0.721159 0.13743
vt 0.726561 0.127585
vt 0.721159 0.13743
vt 0.724052 0.138496
vt 0.729124 0.129304
vt 0.721159 0.13743
vt 0.717693 0.147999
vt 0.720759 0.148633
vt 0.724052 0.138496
vt 0.729124 0.129304
vt 0.724052 0.138496
vt 0.761371 0.135714
vt 0.760916 0.127326
vt 0.724052 0.138496
vt 0.720759 0.148633
vt 0.761897 0.145345
vt 0.761371 0.135714
vt 0.761371 0.135714
vt 0.761897 0.145345
vt 0.802999 0.142273
vt 0.798616 0.132428
vt 0.760916 0.127326
vt 0.761371 0.135714
vt 0.798616 0.132428
vt 0.792559 0.124117
vt 0.805735 0.152272
vt 0.802999 0.142273
vt 0.761897 0.145345
vt 0.761897 0.145345
vt 0.720759 0.148633
vt 0.719055 0.158541
vt 0.719055 0.158541
vt 0.719007 0.168395
vt 0.761897 0.145345
vt 0.719007 0.168395
vt 0.720644 0.177875
vt 0.761897 0.145345
vt 0.720644 0.177875
vt 0.723864 0.186667
vt 0.761897 0.145345
vt 0.723864 0.186667
vt 0.728473 0.194407
vt 0.761897 0.145345
vt 0.728473 0.194407
vt 0.734237 0.200776
vt 0.761897 0.145345
vt 0.734237 0.200776
vt 0.740984 0.20563
vt 0.761897 0.145345
vt 0.740984 0.20563
vt 0.748542 0.209004
vt 0.761897 0.145345
vt 0.748542 0.209004
vt 0.75669 0.210843
vt 0.761897 0.145345
vt 0.75669 0.210843
vt 0.765134 0.211139
vt 0.761897 0.145345
vt 0.765134 0.211139
vt 0.773533 0.209866
vt 0.761897 0.145345
vt 0.773533 0.209866
vt 0.78153 0.207055
vt 0.761897 0.145345
vt 0.78153 0.207055
vt 0.788787 0.202777
vt 0.761897 0.145345
vt 0.788787 0.202777
vt 0.795037 0.197095
vt 0.761897 0.145345
vt 0.795037 0.197095
vt 0.800113 0.190006
vt 0.761897 0.145345
vt 0.800113 0.190006
vt 0.803882 0.181648
vt 0.761897 0.145345
vt 0.803882 0.181648
vt 0.806162 0.172335
vt 0.761897 0.145345
vt 0.806162 0.172335
vt 0.806804 0.162425
vt 0.761897 0.145345
vt 0.806804 0.162425
vt 0.805735 0.152272
vt 0.761897 0.145345
vt 0.802999 0.142273
vt 0.805735 0.152272
vt 0.808791 0.15179
vt 0.805949 0.141382
vt 0.805735 0.152272
vt 0.806804 0.162425
vt 0.809902 0.162439
vt 0.808791 0.15179
vt 0.805949 0.141382
vt 0.808791 0.15179
vt 0.811844 0.151476
vt 0.808949 0.140665
vt 0.808791 0.15179
vt 0.809902 0.162439
vt 0.812996 0.162587
vt 0.811844 0.151476
vt 0.812275 0.173517
vt 0.812996 0.162587
vt 0.809902 0.162439
vt 0.809222 0.17287
vt 0.809222 0.17287
vt 0.809902 0.162439
vt 0.806804 0.162425
vt 0.806162 0.172335
vt 0.809716 0.183878
vt 0.812275 0.173517
vt 0.809222 0.17287
vt 0.806804 0.182713
vt 0.806804 0.182713
vt 0.809222 0.17287
vt 0.806162 0.172335
vt 0.803882 0.181648
vt 0.80544 0.193285
vt 0.809716 0.183878
vt 0.806804 0.182713
vt 0.802784 0.1916
vt 0.802784 0.1916
vt 0.806804 0.182713
vt 0.803882 0.181648
vt 0.800113 0.190006
vt 0.799611 0.201382
vt 0.80544 0.193285
vt 0.802784 0.1916
vt 0.797334 0.199197
vt 0.797334 0.199197
vt 0.802784 0.1916
vt 0.800113 0.190006
vt 0.795037 0.197095
vt 0.79241 0.207926
vt 0.799611 0.201382
vt 0.797334 0.199197
vt 0.790611 0.205312
vt 0.790611 0.205312
vt 0.797334 0.199197
vt 0.795037 0.197095
vt 0.788787 0.202777
vt 0.784088 0.212839
vt 0.79241 0.207926
vt 0.790611 0.205312
vt 0.782823 0.209909
vt 0.782823 0.209909
vt 0.790611 0.205312
vt 0.788787 0.202777
vt 0.78153 0.207055
vt 0.774968 0.216044
vt 0.784088 0.212839
vt 0.782823 0.209909
vt 0.774266 0.212919
vt 0.774266 0.212919
vt 0.782823 0.209909
vt 0.78153 0.207055
vt 0.773533 0.209866
vt 0.765421 0.217476
vt 0.774968 0.216044
vt 0.774266 0.212919
vt 0.765294 0.214273
vt 0.765294 0.214273
vt 0.774266 0.212919
vt 0.773533 0.209866
vt 0.765134 0.211139
vt 0.755826 0.217109
vt 0.765421 0.217476
vt 0.765294 0.214273
vt 0.756275 0.213946
vt 0.756275 0.213946
vt 0.765294 0.214273
vt 0.765134 0.211139
vt 0.75669 0.210843
vt 0.746543 0.214998
vt 0.755826 0.217109
vt 0.756275 0.213946
vt 0.747551 0.211971
vt 0.747551 0.211971
vt 0.756275 0.213946
vt 0.75669 0.210843
vt 0.748542 0.209004
vt 0.737881 0.211125
vt 0.746543 0.214998
vt 0.747551 0.211971
vt 0.739432 0.208348
vt 0.739432 0.208348
vt 0.747551 0.211971
vt 0.748542 0.209004
vt 0.740984 0.20563
vt 0.730094 0.205537
vt 0.737881 0.211125
vt 0.739432 0.208348
vt 0.73217 0.203121
vt 0.73217 0.203121
vt 0.739432 0.208348
vt 0.740984 0.20563
vt 0.734237 0.200776
vt 0.734237 0.200776
vt 0.728473 0.194407
vt 0.725975 0.196292
vt 0.73217 0.203121
vt 0.73217 0.203121
vt 0.725975 0.196292
vt 0.723463 0.198259
vt 0.730094 0.205537
vt 0.728473 0.194407
vt 0.723864 0.186667
vt 0.721052 0.188051
vt 0.725975 0.196292
vt 0.798616 0.132428
vt 0.802999 0.142273
vt 0.805949 0.141382
vt 0.801341 0.131083
vt 0.801341 0.131083
vt 0.805949 0.141382
vt 0.808949 0.140665
vt 0.804132 0.130095
vt 0.792559 0.124117
vt 0.798616 0.132428
vt 0.801341 0.131083
vt 0.794831 0.122099
vt 0.794831 0.122099
vt 0.801341 0.131083
vt 0.804132 0.130095
vt 0.797347 0.120458
vt 0.785224 0.118283
vt 0.792559 0.124117
vt 0.794831 0.122099
vt 0.786822 0.115722
vt 0.786822 0.115722
vt 0.794831 0.122099
vt 0.797347 0.120458
vt 0.788778 0.113367
vt 0.777232 0.11475
vt 0.785224 0.118283
vt 0.786822 0.115722
vt 0.778127 0.11199
vt 0.778127 0.11199
vt 0.786822 0.115722
vt 0.788778 0.113367
vt 0.779231 0.109362
vt 0.768952 0.113127
vt 0.777232 0.11475
vt 0.778127 0.11199
vt 0.769239 0.1103
vt 0.769239 0.1103
vt 0.778127 0.11199
vt 0.779231 0.109362
vt 0.769595 0.107521
vt 0.760116 0.113113
vt 0.768952 0.113127
vt 0.769239 0.1103
vt 0.759871 0.110155
vt 0.759871 0.110155
vt 0.769239 0.1103
vt 0.769595 0.107521
vt 0.759587 0.107286
vt 0.751272 0.114478
vt 0.760116 0.113113
vt 0.759871 0.110155
vt 0.75051 0.111725
vt 0.75051 0.111725
vt 0.759871 0.110155
vt 0.759587 0.107286
vt 0.749631 0.109067
vt 0.743185 0.117405
vt 0.751272 0.114478
vt 0.75051 0.111725
vt 0.741847 0.114818
vt 0.741847 0.114818
vt 0.75051 0.111725
vt 0.749631 0.109067
vt 0.740283 0.112409
vt 0.735714 0.122234
vt 0.743185 0.117405
vt 0.741847 0.114818
vt 0.733707 0.11993
vt 0.733707 0.11993
vt 0.741847 0.114818
vt 0.740283 0.112409
vt 0.731324 0.117854
vt 0.729124 0.129304
vt 0.735714 0.122234
vt 0.733707 0.11993
vt 0.726561 0.127585
vt 0.726561 0.127585
vt 0.733707 0.11993
vt 0.731324 0.117854
vt 0.723736 0.126235
vt 0.735714 0.122234
vt 0.729124 0.129304
vt 0.760916 0.127326
vt 0.760562 0.120911
vt 0.743185 0.117405
vt 0.735714 0.122234
vt 0.760562 0.120911
vt 0.760302 0.116387
vt 0.760302 0.116387
vt 0.760562 0.120911
vt 0.785224 0.118283
vt 0.777232 0.11475
vt 0.760562 0.120911
vt 0.760916 0.127326
vt 0.792559 0.124117
vt 0.785224 0.118283
vt 0.760156 0.113852
vt 0.760302 0.116387
vt 0.777232 0.11475
vt 0.768952 0.113127
vt 0.751272 0.114478
vt 0.743185 0.117405
vt 0.760302 0.116387
vt 0.760156 0.113852
vt 0.768952 0.113127
vt 0.760116 0.113113
vt 0.760156 0.113852
vt 0.760116 0.113113
vt 0.751272 0.114478
vt 0.760156 0.113852
s off
f 1/1/1 2/2/2 3/3/3
f 1/1/1 3/3/3 4/4/4
f 5/5/5 6/6/6 7/7/7
f 5/5/5 7/7/7 8/8/8
f 9/9/9 10/10/10 11/11/11
f 9/9/9 11/11/11 12/12/12
f 13/13/13 14/14/14 15/15/15
f 13/13/13 15/15/15 16/16/16
f 17/17/17 18/18/18 19/19/19
f 17/17/17 19/19/19 20/20/20
f 21/21/21 22/22/22 23/23/23
f 21/21/21 23/23/23 24/24/24
f 25/25/25 26/26/26 27/27/27
f 25/25/25 27/27/27 28/28/28
f 29/29/29 30/30/30 31/31/31
f 29/29/29 31/31/31 32/32/32
f 33/33/33 34/34/34 35/35/35
f 33/33/33 35/35/35 36/36/36
f 37/37/37 38/38/38 39/39/39
f 37/37/37 39/39/39 40/40/40
f 41/41/41 42/42/42 43/43/43
f 41/41/41 43/43/43 44/44/44
f 45/45/45 46/46/46 47/47/47
f 45/45/45 47/47/47 48/48/48
f 49/49/49 50/50/50 51/51/51
f 49/49/49 51/51/51 52/52/52
f 53/53/53 54/54/54 55/55/55
f 53/53/53 55/55/55 56/56/56
f 57/57/57 58/58/58 59/59/59
f 57/57/57 59/59/59 60/60/60
f 61/61/61 62/62/62 63/63/63
f 61/61/61 63/63/63 64/64/64
f 65/65/65 66/66/66 67/67/67
f 65/65/65 67/67/67 68/68/68
f 69/69/69 70/70/70 71/71/71
f 69/69/69 71/71/71 72/72/72
f 73/73/73 74/74/74 75/75/75
f 73/73/73 75/75/75 76/76/76
f 77/77/77 78/78/78 79/79/79
f 77/77/77 79/79/79 80/80/80
f 81/81/81 82/82/82 83/83/83
f 81/81/81 83/83/83 84/84/84
f 85/85/85 86/86/86 87/87/87
f 85/85/85 87/87/87 88/88/88
f 89/89/89 90/90/90 91/91/91
f 89/89/89 91/91/91 92/92/92
f 93/93/93 94/94/94 95/95/95
f 93/93/93 95/95/95 96/96/96
f 97/97/97 98/98/98 99/99/99
f 97/97/97 99/99/99 100/100/100
f 101/101/101 102/102/102 103/103/103
f 101/101/101 103/103/103 104/104/104
f 105/105/105 106/106/106 107/107/107
f 105/105/105 107/107/107 108/108/108
f 109/109/109 110/110/110 111/111/111
f 109/109/109 111/111/111 112/112/112
f 113/113/113 114/114/114 115/115/115
f 113/113/113 115/115/115 116/116/116
f 117/117/117 118/118/118 119/119/119
f 117/117/117 119/119/119 120/120/120
f 121/121/121 122/122/122 123/123/123
f 121/121/121 123/123/123 124/124/124
f 125/125/125 126/126/126 127/127/127
f 125/125/125 127/127/127 128/128/128
f 129/129/129 130/130/130 131/131/131
f 129/129/129 131/131/131 132/132/132
f 133/133/133 134/134/134 135/135/135
f 133/133/133 135/135/135 136/136/136
f 137/137/137 138/138/138 139/139/139
f 137/137/137 139/139/139 140/140/140
f 141/141/141 142/142/142 143/143/143
f 141/141/141 143/143/143 144/144/144
f 145/145/145 146/146/146 147/147/147
f 145/145/145 147/147/147 148/148/148
f 149/149/149 150/150/150 151/151/151
f 149/149/149 151/151/151 152/152/152
f 153/153/153 154/154/154 155/155/155
f 153/153/153 155/155/155 156/156/156
f 157/157/157 158/158/158 159/159/159
f 157/157/157 159/159/159 160/160/160
f 161/161/161 162/162/162 163/163/163
f 161/161/161 163/163/163 164/164/164
f 165/165/165 166/166/166 167/167/167
f 165/165/165 167/167/167 168/168/168
f 169/169/169 170/170/170 171/171/171
f 169/169/169 171/171/171 172/172/172
f 173/173/173 174/174/174 175/175/175
f 173/173/173 175/175/175 176/176/176
f 177/177/177 178/178/178 179/179/179
f 177/177/177 179/179/179 180/180/180
f 181/181/181 182/182/182 183/183/183
f 181/181/181 183/183/183 184/184/184
f 185/185/185 186/186/186 187/187/187
f 185/185/185 187/187/187 188/188/188
f 189/189/189 190/190/190 191/191/191
f 189/189/189 191/191/191 192/192/192
f 193/193/193 194/194/194 195/195/195
f 193/193/193 195/195/195 196/196/196
f 197/197/197 198/198/198 199/199/199
f 197/197/197 199/199/199 200/200/200
f 201/201/201 202/202/202 203/203/203
f 201/201/201 203/203/203 204/204/204
f 205/205/205 206/206/206 207/207/207
f 205/205/205 207/207/207 208/208/208
f 209/209/209 210/210/210 211/211/211
f 209/209/209 211/211/211 212/212/212
f 213/213/213 214/214/214 215/215/215
f 213/213/213 215/215/215 216/216/216
f 217/217/217 218/218/218 219/219/219
f 217/217/217 219/219/219 220/220/220
f 221/221/221 222/222/222 223/223/223
f 221/221/221 223/223/223 224/224/224
f 225/225/225 226/226/226 227/227/227
f 225/225/225 227/227/227 228/228/228
f 229/229/229 230/230/230 231/231/231
f 229/229/229 231/231/231 232/232/232
f 233/233/233 234/234/234 235/235/235
f 233/233/233 235/235/235 236/236/236
f 237/237/237 238/238/238 239/239/239
f 237/237/237 239/239/239 240/240/240
f 241/241/241 242/242/242 243/243/243
f 241/241/241 243/243/243 244/244/244
f 245/245/245 246/246/246 247/247/247
f 245/245/245 247/247/247 248/248/248
f 249/249/249 250/250/250 251/251/251
f 249/249/249 251/251/251 252/252/252
f 253/253/253 254/254/254 255/255/255
f 253/253/253 255/255/255 256/256/256
f 257/257/257 258/258/258 259/259/259
f 257/257/257 259/259/259 260/260/260
f 261/261/261 262/262/262 263/263/263
f 261/261/261 263/263/263 264/264/264
f 265/265/265 266/266/266 267/267/267
f 265/265/265 267/267/267 268/268/268
f 269/269/269 270/270/270 271/271/271
f 269/269/269 271/271/271 272/272/272
f 273/273/273 274/274/274 275/275/275
f 273/273/273 275/275/275 276/276/276
f 277/277/277 278/278/278 279/279/279
f 277/277/277 279/279/279 280/280/280
f 281/281/281 282/282/282 283/283/283
f 281/281/281 283/283/283 284/284/284
f 285/285/285 286/286/286 287/287/287
f 285/285/285 287/287/287 288/288/288
f 289/289/289 290/290/290 291/291/291
f 289/289/289 291/291/291 292/292/292
f 293/293/293 294/294/294 295/295/295
f 293/293/293 295/295/295 296/296/296
f 297/297/297 298/298/298 299/299/299
f 297/297/297 299/299/299 300/300/300
f 301/301/301 302/302/302 303/303/303
f 301/301/301 303/303/303 304/304/304
f 305/305/305 306/306/306 307/307/307
f 305/305/305 307/307/307 308/308/308
f 309/309/309 310/310/310 311/311/311
f 309/309/309 311/311/311 312/312/312
f 313/313/313 314/314/314 315/315/315
f 313/313/313 315/315/315 316/316/316
f 317/317/317 318/318/318 319/319/319
f 317/317/317 319/319/319 320/320/320
f 321/321/321 322/322/322 323/323/323
f 321/321/321 323/323/323 324/324/324
f 325/325/325 326/326/326 327/327/327
f 328/328/328 329/329/329 330/330/330
f 331/331/331 332/332/332 333/333/333
f 334/334/334 335/335/335 336/336/336
f 337/337/337 338/338/338 339/339/339
f 340/340/340 341/341/341 342/342/342
f 343/343/343 344/344/344 345/345/345
f 346/346/346 347/347/347 348/348/348
f 349/349/349 350/350/350 351/351/351
f 352/352/352 353/353/353 354/354/354
f 355/355/355 356/356/356 357/357/357
f 358/358/358 359/359/359 360/360/360
f 361/361/361 362/362/362 363/363/363
f 364/364/364 365/365/365 366/366/366
f 367/367/367 368/368/368 369/369/369
f 370/370/370 371/371/371 372/372/372
f 373/373/373 374/374/374 375/375/375
f 376/376/376 377/377/377 378/378/378
f 379/379/379 380/380/380 381/381/381
f 382/382/382 383/383/383 384/384/384
f 385/385/385 386/386/386 387/387/387
f 385/385/385 387/387/387 388/388/388
f 389/389/389 390/390/390 391/391/391
f 389/389/389 391/391/391 392/392/392
f 393/393/393 394/394/394 395/395/395
f 393/393/393 395/395/395 396/396/396
f 397/397/397 398/398/398 399/399/399
f 397/397/397 399/399/399 400/400/400
f 401/401/401 402/402/402 403/403/403
f 401/401/401 403/403/403 404/404/404
f 405/405/405 406/406/406 407/407/407
f 405/405/405 407/407/407 408/408/408
f 409/409/409 410/410/410 411/411/411
f 409/409/409 411/411/411 412/412/412
f 413/413/413 414/414/414 415/415/415
f 413/413/413 415/415/415 416/416/416
f 417/417/417 418/418/418 419/419/419
f 417/417/417 419/419/419 420/420/420
f 421/421/421 422/422/422 423/423/423
f 421/421/421 423/423/423 424/424/424
f 425/425/425 426/426/426 427/427/427
f 425/425/425 427/427/427 428/428/428
f 429/429/429 430/430/430 431/431/431
f 429/429/429 431/431/431 432/432/432
f 433/433/433 434/434/434 435/435/435
f 433/433/433 435/435/435 436/436/436
f 437/437/437 438/438/438 439/439/439
f 437/437/437 439/439/439 440/440/440
f 441/441/441 442/442/442 443/443/443
f 441/441/441 443/443/443 444/444/444
f 445/445/445 446/446/446 447/447/447
f 445/445/445 447/447/447 448/448/448
f 449/449/449 450/450/450 451/451/451
f 449/449/449 451/451/451 452/452/452
f 453/453/453 454/454/454 455/455/455
f 453/453/453 455/455/455 456/456/456
f 457/457/457 458/458/458 459/459/459
f 457/457/457 459/459/459 460/460/460
f 461/461/461 462/462/462 463/463/463
f 461/461/461 463/463/463 464/464/464
f 465/465/465 466/466/466 467/467/467
f 465/465/465 467/467/467 468/468/468
f 469/469/469 470/470/470 471/471/471
f 469/469/469 471/471/471 472/472/472
f 473/473/473 474/474/474 475/475/475
f 473/473/473 475/475/475 476/476/476
f 477/477/477 478/478/478 479/479/479
f 477/477/477 479/479/479 480/480/480
f 481/481/481 482/482/482 483/483/483
f 481/481/481 483/483/483 484/484/484
f 485/485/485 486/486/486 487/487/487
f 485/485/485 487/487/487 488/488/488
f 489/489/489 490/490/490 491/491/491
f 489/489/489 491/491/491 492/492/492
f 493/493/493 494/494/494 495/495/495
f 493/493/493 495/495/495 496/496/496
f 497/497/497 498/498/498 499/499/499
f 497/497/497 499/499/499 500/500/500
f 501/501/501 502/502/502 503/503/503
f 501/501/501 503/503/503 504/504/504
f 505/505/505 506/506/506 507/507/507
f 505/505/505 507/507/507 508/508/508
f 509/509/509 510/510/510 511/511/511
f 509/509/509 511/511/511 512/512/512
f 513/513/513 514/514/514 515/515/515
f 513/513/513 515/515/515 516/516/516
f 517/517/517 518/518/518 519/519/519
f 517/517/517 519/519/519 520/520/520
f 521/521/521 522/522/522 523/523/523
f 521/521/521 523/523/523 524/524/524
f 525/525/525 526/526/526 527/527/527
f 525/525/525 527/527/527 528/528/528
f 529/529/529 530/530/530 531/531/531
f 529/529/529 531/531/531 532/532/532
f 533/533/533 534/534/534 535/535/535
f 533/533/533 535/535/535 536/536/536
f 537/537/537 538/538/538 539/539/539
f 537/537/537 539/539/539 540/540/540
f 541/541/541 542/542/542 543/543/543
f 541/541/541 543/543/543 544/544/544
f 545/545/545 546/546/546 547/547/547
f 545/545/545 547/547/547 548/548/548
f 549/549/549 550/550/550 551/551/551
f 549/549/549 551/551/551 552/552/552
f 553/553/553 554/554/554 555/555/555
f 553/553/553 555/555/555 556/556/556
f 557/557/557 558/558/558 559/559/559
f 557/557/557 559/559/559 560/560/560
f 561/561/561 562/562/562 563/563/563
f 561/561/561 563/563/563 564/564/564
f 565/565/565 566/566/566 567/567/567
f 565/565/565 567/567/567 568/568/568
f 569/569/569 570/570/570 571/571/571
f 569/569/569 571/571/571 572/572/572
f 573/573/573 574/574/574 575/575/575
f 573/573/573 575/575/575 576/576/576
f 577/577/577 578/578/578 579/579/579
f 577/577/577 579/579/579 580/580/580
f 581/581/581 582/582/582 583/583/583
f 581/581/581 583/583/583 584/584/584
f 585/585/585 586/586/586 587/587/587
f 585/585/585 587/587/587 588/588/588
f 589/589/589 590/590/590 591/591/591
f 589/589/589 591/591/591 592/592/592
f 593/593/593 594/594/594 595/595/595
f 593/593/593 595/595/595 596/596/596
f 597/597/597 598/598/598 599/599/599
f 597/597/597 599/599/599 600/600/600
f 601/601/601 602/602/602 603/603/603
f 601/601/601 603/603/603 604/604/604
f 605/605/605 606/606/606 607/607/607
f 605/605/605 607/607/607 608/608/608
f 609/609/609 610/610/610 611/611/611
f 609/609/609 611/611/611 612/612/612
f 613/613/613 614/614/614 615/615/615
f 616/616/616 617/617/617 618/618/618
