v -0.476568 0.220738 -0.446813
v -0.471993 0.220477 -0.449723
v -0.470877 0.187896 -0.445411
v -0.475395 0.188193 -0.442553
v -0.479723 0.188755 -0.438001
v -0.480936 0.221235 -0.442183
v -0.476568 0.220738 -0.446813
v -0.475395 0.188193 -0.442553
v -0.471993 0.220477 -0.449723
v -0.476568 0.220738 -0.446813
v -0.476171 0.223713 -0.446593
v -0.471774 0.223462 -0.44939
v -0.480425 0.224196 -0.442081
v -0.476171 0.223713 -0.446593
v -0.476568 0.220738 -0.446813
v -0.480936 0.221235 -0.442183
v -0.466409 0.220432 -0.451224
v -0.471993 0.220477 -0.449723
v -0.471774 0.223462 -0.44939
v -0.466372 0.223418 -0.450843
v -0.466409 0.220432 -0.451224
v -0.465359 0.187844 -0.446882
v -0.470877 0.187896 -0.445411
v -0.471993 0.220477 -0.449723
v -0.466372 0.223418 -0.450843
v -0.471774 0.223462 -0.44939
v -0.470978 0.225854 -0.447719
v -0.466087 0.225815 -0.449035
v -0.471774 0.223462 -0.44939
v -0.476171 0.223713 -0.446593
v -0.474877 0.226077 -0.445238
v -0.470978 0.225854 -0.447719
v -0.466087 0.225815 -0.449035
v -0.470978 0.225854 -0.447719
v -0.46982 0.227015 -0.445157
v -0.46563 0.226981 -0.446284
v -0.470978 0.225854 -0.447719
v -0.474877 0.226077 -0.445238
v -0.473035 0.227198 -0.443111
v -0.46982 0.227015 -0.445157
v -0.476535 0.227596 -0.439397
v -0.473035 0.227198 -0.443111
v -0.474877 0.226077 -0.445238
v -0.478814 0.226525 -0.441061
v -0.478814 0.226525 -0.441061
v -0.474877 0.226077 -0.445238
v -0.476171 0.223713 -0.446593
v -0.480425 0.224196 -0.442081
v -0.479791 0.228188 -0.434286
v -0.476535 0.227596 -0.439397
v -0.478814 0.226525 -0.441061
v -0.482367 0.22717 -0.435485
v -0.482367 0.22717 -0.435485
v -0.478814 0.226525 -0.441061
v -0.480425 0.224196 -0.442081
v -0.484195 0.22488 -0.436168
v -0.484195 0.22488 -0.436168
v -0.480425 0.224196 -0.442081
v -0.480936 0.221235 -0.442183
v -0.484783 0.221932 -0.436152
v -0.484876 0.227953 -0.429094
v -0.482367 0.22717 -0.435485
v -0.484195 0.22488 -0.436168
v -0.486868 0.225714 -0.42936
v -0.486868 0.225714 -0.42936
v -0.484195 0.22488 -0.436168
v -0.484783 0.221932 -0.436152
v -0.487517 0.222784 -0.429198
v -0.484783 0.221932 -0.436152
v -0.483549 0.18952 -0.432065
v -0.48628 0.1904 -0.425212
v -0.487517 0.222784 -0.429198
v -0.480936 0.221235 -0.442183
v -0.479723 0.188755 -0.438001
v -0.483549 0.18952 -0.432065
v -0.484783 0.221932 -0.436152
v -0.488546 0.223743 -0.421797
v -0.487517 0.222784 -0.429198
v -0.48628 0.1904 -0.425212
v -0.48732 0.191312 -0.417907
v -0.486276 0.192178 -0.410614
v -0.487475 0.224756 -0.414423
v -0.488546 0.223743 -0.421797
v -0.48732 0.191312 -0.417907
v -0.486824 0.227636 -0.414964
v -0.487868 0.226648 -0.422148
v -0.488546 0.223743 -0.421797
v -0.487475 0.224756 -0.414423
v -0.487868 0.226648 -0.422148
v -0.486868 0.225714 -0.42936
v -0.487517 0.222784 -0.429198
v -0.488546 0.223743 -0.421797
v -0.484111 0.22861 -0.408226
v -0.486824 0.227636 -0.414964
v -0.487475 0.224756 -0.414423
v -0.484704 0.225751 -0.407538
v -0.487475 0.224756 -0.414423
v -0.486276 0.192178 -0.410614
v -0.483544 0.19296 -0.403795
v -0.484704 0.225751 -0.407538
v -0.480315 0.229491 -0.402409
v -0.484111 0.22861 -0.408226
v -0.484704 0.225751 -0.407538
v -0.480832 0.22665 -0.401604
v -0.484704 0.225751 -0.407538
v -0.483544 0.19296 -0.403795
v -0.479717 0.193629 -0.39791
v -0.480832 0.22665 -0.401604
v -0.47539 0.194154 -0.39342
v -0.476454 0.227376 -0.397078
v -0.480832 0.22665 -0.401604
v -0.479717 0.193629 -0.39791
v -0.470876 0.194524 -0.390633
v -0.47189 0.227877 -0.39427
v -0.476454 0.227376 -0.397078
v -0.47539 0.194154 -0.39342
v -0.476454 0.227376 -0.397078
v -0.47189 0.227877 -0.39427
v -0.471668 0.230679 -0.395305
v -0.476052 0.230197 -0.398002
v -0.476052 0.230197 -0.398002
v -0.480315 0.229491 -0.402409
v -0.480832 0.22665 -0.401604
v -0.476454 0.227376 -0.397078
v -0.47189 0.227877 -0.39427
v -0.46633 0.228217 -0.392881
v -0.466293 0.231007 -0.393961
v -0.471668 0.230679 -0.395305
v -0.47189 0.227877 -0.39427
v -0.470876 0.194524 -0.390633
v -0.465364 0.194786 -0.389252
v -0.46633 0.228217 -0.392881
v -0.46633 0.228217 -0.392881
v -0.458688 0.228485 -0.392458
v -0.458747 0.231273 -0.393544
v -0.466293 0.231007 -0.393961
v -0.46633 0.228217 -0.392881
v -0.465364 0.194786 -0.389252
v -0.457762 0.195006 -0.388829
v -0.458688 0.228485 -0.392458
v -0.446979 0.195248 -0.388915
v -0.447875 0.228773 -0.39255
v -0.458688 0.228485 -0.392458
v -0.457762 0.195006 -0.388829
v -0.432466 0.195558 -0.389131
v -0.433343 0.229147 -0.392776
v -0.447875 0.228773 -0.39255
v -0.446979 0.195248 -0.388915
v -0.458688 0.228485 -0.392458
v -0.447875 0.228773 -0.39255
v -0.447959 0.23156 -0.393636
v -0.458747 0.231273 -0.393544
v -0.447875 0.228773 -0.39255
v -0.433343 0.229147 -0.392776
v -0.433427 0.231933 -0.393862
v -0.447959 0.23156 -0.393636
v -0.433343 0.229147 -0.392776
v -0.41671 0.229574 -0.393033
v -0.416793 0.23236 -0.394119
v -0.433427 0.231933 -0.393862
v -0.433343 0.229147 -0.392776
v -0.432466 0.195558 -0.389131
v -0.415845 0.195911 -0.389377
v -0.41671 0.229574 -0.393033
v -0.41671 0.229574 -0.393033
v -0.400133 0.23 -0.393289
v -0.400216 0.232786 -0.394375
v -0.416793 0.23236 -0.394119
v -0.41671 0.229574 -0.393033
v -0.415845 0.195911 -0.389377
v -0.39928 0.196262 -0.389622
v -0.400133 0.23 -0.393289
v -0.385772 0.230369 -0.393511
v -0.400133 0.23 -0.393289
v -0.39928 0.196262 -0.389622
v -0.384937 0.196567 -0.389835
v -0.374427 0.196787 -0.390067
v -0.375232 0.23063 -0.393751
v -0.385772 0.230369 -0.393511
v -0.384937 0.196567 -0.389835
v -0.400133 0.23 -0.393289
v -0.385772 0.230369 -0.393511
v -0.385855 0.233155 -0.394598
v -0.400216 0.232786 -0.394375
v -0.385772 0.230369 -0.393511
v -0.375232 0.23063 -0.393751
v -0.375342 0.233415 -0.394837
v -0.385855 0.233155 -0.394598
v -0.375232 0.23063 -0.393751
v -0.367921 0.230747 -0.39439
v -0.368127 0.233531 -0.395468
v -0.375342 0.233415 -0.394837
v -0.375232 0.23063 -0.393751
v -0.374427 0.196787 -0.390067
v -0.367156 0.196901 -0.390697
v -0.367921 0.230747 -0.39439
v -0.367921 0.230747 -0.39439
v -0.362691 0.230692 -0.395895
v -0.363083 0.233478 -0.39692
v -0.368127 0.233531 -0.395468
v -0.367921 0.230747 -0.39439
v -0.367156 0.196901 -0.390697
v -0.361974 0.196893 -0.392188
v -0.362691 0.230692 -0.395895
v -0.358399 0.230432 -0.398731
v -0.362691 0.230692 -0.395895
v -0.361974 0.196893 -0.392188
v -0.357736 0.196749 -0.395001
v -0.353586 0.196456 -0.399444
v -0.354195 0.229951 -0.403212
v -0.358399 0.230432 -0.398731
v -0.357736 0.196749 -0.395001
v -0.362691 0.230692 -0.395895
v -0.358399 0.230432 -0.398731
v -0.358963 0.233229 -0.399643
v -0.363083 0.233478 -0.39692
v -0.354864 0.23276 -0.404011
v -0.358963 0.233229 -0.399643
v -0.358399 0.230432 -0.398731
v -0.354195 0.229951 -0.403212
v -0.351155 0.232101 -0.409724
v -0.354864 0.23276 -0.404011
v -0.354195 0.229951 -0.403212
v -0.350412 0.229279 -0.409038
v -0.354195 0.229951 -0.403212
v -0.353586 0.196456 -0.399444
v -0.349853 0.196015 -0.405222
v -0.350412 0.229279 -0.409038
v -0.348484 0.231298 -0.416299
v -0.351155 0.232101 -0.409724
v -0.350412 0.229279 -0.409038
v -0.347681 0.228458 -0.41576
v -0.350412 0.229279 -0.409038
v -0.349853 0.196015 -0.405222
v -0.347157 0.195431 -0.411883
v -0.347681 0.228458 -0.41576
v -0.346633 0.227532 -0.422925
v -0.347681 0.228458 -0.41576
v -0.347157 0.195431 -0.411883
v -0.346121 0.194708 -0.418978
v -0.347157 0.193865 -0.426058
v -0.347686 0.226547 -0.430084
v -0.346633 0.227532 -0.422925
v -0.346121 0.194708 -0.418978
v -0.347465 0.230396 -0.423269
v -0.348484 0.231298 -0.416299
v -0.347681 0.228458 -0.41576
v -0.346633 0.227532 -0.422925
v -0.34849 0.229439 -0.430233
v -0.347465 0.230396 -0.423269
v -0.346633 0.227532 -0.422925
v -0.347686 0.226547 -0.430084
v -0.351165 0.22849 -0.43679
v -0.34849 0.229439 -0.430233
v -0.347686 0.226547 -0.430084
v -0.350421 0.225577 -0.436786
v -0.347686 0.226547 -0.430084
v -0.347157 0.193865 -0.426058
v -0.349852 0.192982 -0.432681
v -0.350421 0.225577 -0.436786
v -0.354876 0.227629 -0.442475
v -0.351165 0.22849 -0.43679
v -0.350421 0.225577 -0.436786
v -0.354205 0.224699 -0.442584
v -0.350421 0.225577 -0.436786
v -0.349852 0.192982 -0.432681
v -0.353584 0.19215 -0.438404
v -0.354205 0.224699 -0.442584
v -0.357731 0.191465 -0.442787
v -0.358408 0.22399 -0.447027
v -0.354205 0.224699 -0.442584
v -0.353584 0.19215 -0.438404
v -0.361967 0.190988 -0.445535
v -0.362695 0.223498 -0.449817
v -0.358408 0.22399 -0.447027
v -0.357731 0.191465 -0.442787
v -0.358408 0.22399 -0.447027
v -0.362695 0.223498 -0.449817
v -0.363087 0.226466 -0.449485
v -0.358974 0.226937 -0.446807
v -0.358974 0.226937 -0.446807
v -0.354876 0.227629 -0.442475
v -0.354205 0.224699 -0.442584
v -0.358408 0.22399 -0.447027
v -0.362695 0.223498 -0.449817
v -0.367917 0.223162 -0.451254
v -0.368123 0.226141 -0.450872
v -0.363087 0.226466 -0.449485
v -0.362695 0.223498 -0.449817
v -0.361967 0.190988 -0.445535
v -0.367145 0.190658 -0.446946
v -0.367917 0.223162 -0.451254
v -0.367917 0.223162 -0.451254
v -0.375221 0.222888 -0.451789
v -0.375328 0.225871 -0.4514
v -0.368123 0.226141 -0.450872
v -0.367917 0.223162 -0.451254
v -0.367145 0.190658 -0.446946
v -0.374413 0.190386 -0.447465
v -0.375221 0.222888 -0.451789
v -0.385755 0.222584 -0.451871
v -0.375221 0.222888 -0.451789
v -0.374413 0.190386 -0.447465
v -0.38492 0.190079 -0.447537
v -0.399261 0.189672 -0.447532
v -0.400116 0.222185 -0.451876
v -0.385755 0.222584 -0.451871
v -0.38492 0.190079 -0.447537
v -0.375221 0.222888 -0.451789
v -0.385755 0.222584 -0.451871
v -0.385835 0.225568 -0.451483
v -0.375328 0.225871 -0.4514
v -0.385755 0.222584 -0.451871
v -0.400116 0.222185 -0.451876
v -0.400195 0.225169 -0.451489
v -0.385835 0.225568 -0.451483
v -0.400116 0.222185 -0.451876
v -0.416697 0.221724 -0.451878
v -0.416777 0.224708 -0.451491
v -0.400195 0.225169 -0.451489
v -0.400116 0.222185 -0.451876
v -0.399261 0.189672 -0.447532
v -0.415826 0.1892 -0.447527
v -0.416697 0.221724 -0.451878
v -0.416697 0.221724 -0.451878
v -0.433341 0.221263 -0.451877
v -0.433423 0.224246 -0.45149
v -0.416777 0.224708 -0.451491
v -0.416697 0.221724 -0.451878
v -0.415826 0.1892 -0.447527
v -0.432448 0.188723 -0.44752
v -0.433341 0.221263 -0.451877
v -0.446964 0.188301 -0.447513
v -0.447893 0.220859 -0.451872
v -0.433341 0.221263 -0.451877
v -0.432448 0.188723 -0.44752
v -0.457752 0.187993 -0.447429
v -0.458735 0.22057 -0.451784
v -0.447893 0.220859 -0.451872
v -0.446964 0.188301 -0.447513
v -0.433341 0.221263 -0.451877
v -0.447893 0.220859 -0.451872
v -0.447975 0.223843 -0.451485
v -0.433423 0.224246 -0.45149
v -0.447893 0.220859 -0.451872
v -0.458735 0.22057 -0.451784
v -0.458793 0.223554 -0.451397
v -0.447975 0.223843 -0.451485
v -0.458735 0.22057 -0.451784
v -0.466409 0.220432 -0.451224
v -0.466372 0.223418 -0.450843
v -0.458793 0.223554 -0.451397
v -0.458735 0.22057 -0.451784
v -0.457752 0.187993 -0.447429
v -0.465359 0.187844 -0.446882
v -0.466409 0.220432 -0.451224
v -0.447975 0.223843 -0.451485
v -0.458793 0.223554 -0.451397
v -0.458778 0.225946 -0.44957
v -0.448035 0.226233 -0.449658
v -0.458793 0.223554 -0.451397
v -0.466372 0.223418 -0.450843
v -0.466087 0.225815 -0.449035
v -0.458778 0.225946 -0.44957
v -0.448035 0.226233 -0.449658
v -0.458778 0.225946 -0.44957
v -0.458693 0.227105 -0.446792
v -0.448057 0.227389 -0.446879
v -0.458778 0.225946 -0.44957
v -0.466087 0.225815 -0.449035
v -0.46563 0.226981 -0.446284
v -0.458693 0.227105 -0.446792
v -0.458561 0.227575 -0.4433
v -0.448055 0.227855 -0.443386
v -0.448057 0.227389 -0.446879
v -0.458693 0.227105 -0.446792
v -0.465046 0.227458 -0.442825
v -0.458561 0.227575 -0.4433
v -0.458693 0.227105 -0.446792
v -0.46563 0.226981 -0.446284
v -0.417463 0.231406 -0.423126
v -0.448055 0.227855 -0.443386
v -0.458561 0.227575 -0.4433
v -0.417463 0.231406 -0.423126
v -0.458561 0.227575 -0.4433
v -0.465046 0.227458 -0.442825
v -0.417463 0.231406 -0.423126
v -0.479336 0.229765 -0.422556
v -0.478606 0.230454 -0.41754
v -0.417463 0.231406 -0.423126
v -0.478638 0.229111 -0.427599
v -0.479336 0.229765 -0.422556
v -0.417463 0.231406 -0.423126
v -0.476632 0.228485 -0.432714
v -0.478638 0.229111 -0.427599
v -0.417463 0.231406 -0.423126
v -0.473737 0.227959 -0.437259
v -0.476632 0.228485 -0.432714
v -0.417463 0.231406 -0.423126
v -0.470767 0.227622 -0.440409
v -0.473737 0.227959 -0.437259
v -0.417463 0.231406 -0.423126
v -0.468383 0.227485 -0.441927
v -0.470767 0.227622 -0.440409
v -0.417463 0.231406 -0.423126
v -0.364594 0.230539 -0.440635
v -0.366755 0.230291 -0.442043
v -0.417463 0.231406 -0.423126
v -0.361705 0.231026 -0.43758
v -0.364594 0.230539 -0.440635
v -0.417463 0.231406 -0.423126
v -0.358845 0.23169 -0.433199
v -0.361705 0.231026 -0.43758
v -0.417463 0.231406 -0.423126
v -0.356856 0.232395 -0.428325
v -0.358845 0.23169 -0.433199
v -0.417463 0.231406 -0.423126
v -0.356157 0.233048 -0.423581
v -0.356856 0.232395 -0.428325
v -0.417463 0.231406 -0.423126
v -0.356851 0.233661 -0.418835
v -0.356157 0.233048 -0.423581
v -0.417463 0.231406 -0.423126
v -0.433532 0.228257 -0.443391
v -0.448055 0.227855 -0.443386
v -0.417463 0.231406 -0.423126
v -0.465046 0.227458 -0.442825
v -0.468383 0.227485 -0.441927
v -0.417463 0.231406 -0.423126
v -0.375854 0.235162 -0.403628
v -0.369748 0.23526 -0.404162
v -0.417463 0.231406 -0.423126
v -0.386057 0.23491 -0.403396
v -0.375854 0.235162 -0.403628
v -0.417463 0.231406 -0.423126
v -0.400391 0.234542 -0.403173
v -0.386057 0.23491 -0.403396
v -0.417463 0.231406 -0.423126
v -0.369748 0.23526 -0.404162
v -0.366771 0.235229 -0.405019
v -0.417463 0.231406 -0.423126
v -0.366771 0.235229 -0.405019
v -0.364587 0.235097 -0.406463
v -0.417463 0.231406 -0.423126
v -0.364587 0.235097 -0.406463
v -0.361692 0.234766 -0.409548
v -0.417463 0.231406 -0.423126
v -0.358835 0.234258 -0.41395
v -0.356851 0.233661 -0.418835
v -0.417463 0.231406 -0.423126
v -0.361692 0.234766 -0.409548
v -0.358835 0.234258 -0.41395
v -0.417463 0.231406 -0.423126
v -0.470702 0.23235 -0.404974
v -0.46835 0.232608 -0.403527
v -0.417463 0.231406 -0.423126
v -0.473665 0.231859 -0.408037
v -0.470702 0.23235 -0.404974
v -0.417463 0.231406 -0.423126
v -0.476573 0.231184 -0.412493
v -0.473665 0.231859 -0.408037
v -0.417463 0.231406 -0.423126
v -0.478606 0.230454 -0.41754
v -0.476573 0.231184 -0.412493
v -0.417463 0.231406 -0.423126
v -0.366755 0.230291 -0.442043
v -0.369698 0.230101 -0.442854
v -0.417463 0.231406 -0.423126
v -0.369698 0.230101 -0.442854
v -0.375781 0.229873 -0.443301
v -0.417463 0.231406 -0.423126
v -0.375781 0.229873 -0.443301
v -0.385974 0.229579 -0.443382
v -0.417463 0.231406 -0.423126
v -0.385974 0.229579 -0.443382
v -0.400304 0.22918 -0.443388
v -0.417463 0.231406 -0.423126
v -0.400304 0.22918 -0.443388
v -0.416886 0.228719 -0.443392
v -0.417463 0.231406 -0.423126
v -0.416886 0.228719 -0.443392
v -0.433532 0.228257 -0.443391
v -0.417463 0.231406 -0.423126
v -0.46835 0.232608 -0.403527
v -0.465049 0.23281 -0.402702
v -0.417463 0.231406 -0.423126
v -0.465049 0.23281 -0.402702
v -0.458593 0.233036 -0.402344
v -0.417463 0.231406 -0.423126
v -0.458593 0.233036 -0.402344
v -0.448111 0.233315 -0.402433
v -0.417463 0.231406 -0.423126
v -0.448111 0.233315 -0.402433
v -0.433605 0.233688 -0.402659
v -0.417463 0.231406 -0.423126
v -0.433605 0.233688 -0.402659
v -0.416969 0.234116 -0.402917
v -0.417463 0.231406 -0.423126
v -0.416969 0.234116 -0.402917
v -0.400391 0.234542 -0.403173
v -0.400391 0.234542 -0.403173
v -0.416969 0.234116 -0.402917
v -0.416927 0.234583 -0.399424
v -0.400349 0.235009 -0.39968
v -0.386057 0.23491 -0.403396
v -0.400391 0.234542 -0.403173
v -0.400349 0.235009 -0.39968
v -0.386002 0.235377 -0.399903
v -0.400294 0.23462 -0.396714
v -0.385939 0.234988 -0.396937
v -0.386002 0.235377 -0.399903
v -0.400349 0.235009 -0.39968
v -0.416873 0.234194 -0.396458
v -0.400294 0.23462 -0.396714
v -0.400349 0.235009 -0.39968
v -0.416927 0.234583 -0.399424
v -0.385939 0.234988 -0.396937
v -0.375502 0.235247 -0.397174
v -0.375672 0.235633 -0.400138
v -0.386002 0.235377 -0.399903
v -0.375854 0.235162 -0.403628
v -0.386057 0.23491 -0.403396
v -0.386002 0.235377 -0.399903
v -0.375672 0.235633 -0.400138
v -0.375502 0.235247 -0.397174
v -0.368562 0.235358 -0.397782
v -0.369107 0.235738 -0.400712
v -0.375672 0.235633 -0.400138
v -0.369748 0.23526 -0.404162
v -0.375854 0.235162 -0.403628
v -0.375672 0.235633 -0.400138
v -0.369107 0.235738 -0.400712
v -0.368562 0.235358 -0.397782
v -0.364029 0.23531 -0.399087
v -0.365278 0.235697 -0.401815
v -0.369107 0.235738 -0.400712
v -0.366771 0.235229 -0.405019
v -0.369748 0.23526 -0.404162
v -0.369107 0.235738 -0.400712
v -0.365278 0.235697 -0.401815
v -0.364029 0.23531 -0.399087
v -0.360388 0.23509 -0.401493
v -0.362295 0.235517 -0.403786
v -0.365278 0.235697 -0.401815
v -0.364587 0.235097 -0.406463
v -0.366771 0.235229 -0.405019
v -0.365278 0.235697 -0.401815
v -0.362295 0.235517 -0.403786
v -0.358902 0.235129 -0.407402
v -0.362295 0.235517 -0.403786
v -0.360388 0.23509 -0.401493
v -0.356587 0.234655 -0.405545
v -0.361692 0.234766 -0.409548
v -0.364587 0.235097 -0.406463
v -0.362295 0.235517 -0.403786
v -0.358902 0.235129 -0.407402
v -0.358835 0.234258 -0.41395
v -0.361692 0.234766 -0.409548
v -0.358902 0.235129 -0.407402
v -0.355693 0.234559 -0.412346
v -0.355693 0.234559 -0.412346
v -0.358902 0.235129 -0.407402
v -0.356587 0.234655 -0.405545
v -0.353088 0.234033 -0.410935
v -0.353088 0.234033 -0.410935
v -0.356587 0.234655 -0.405545
v -0.354864 0.23276 -0.404011
v -0.351155 0.232101 -0.409724
v -0.356587 0.234655 -0.405545
v -0.360388 0.23509 -0.401493
v -0.358963 0.233229 -0.399643
v -0.354864 0.23276 -0.404011
v -0.353425 0.233877 -0.41793
v -0.355693 0.234559 -0.412346
v -0.353088 0.234033 -0.410935
v -0.350587 0.233281 -0.417093
v -0.350587 0.233281 -0.417093
v -0.353088 0.234033 -0.410935
v -0.351155 0.232101 -0.409724
v -0.348484 0.231298 -0.416299
v -0.352597 0.233144 -0.423596
v -0.353425 0.233877 -0.41793
v -0.350587 0.233281 -0.417093
v -0.349648 0.232451 -0.423515
v -0.349648 0.232451 -0.423515
v -0.350587 0.233281 -0.417093
v -0.348484 0.231298 -0.416299
v -0.347465 0.230396 -0.423269
v -0.353431 0.232366 -0.429257
v -0.352597 0.233144 -0.423596
v -0.349648 0.232451 -0.423515
v -0.350593 0.231569 -0.429931
v -0.350593 0.231569 -0.429931
v -0.349648 0.232451 -0.423515
v -0.347465 0.230396 -0.423269
v -0.34849 0.229439 -0.430233
v -0.355704 0.23156 -0.434827
v -0.353431 0.232366 -0.429257
v -0.350593 0.231569 -0.429931
v -0.353099 0.23068 -0.436073
v -0.353099 0.23068 -0.436073
v -0.350593 0.231569 -0.429931
v -0.34849 0.229439 -0.430233
v -0.351165 0.22849 -0.43679
v -0.358916 0.230815 -0.439748
v -0.355704 0.23156 -0.434827
v -0.353099 0.23068 -0.436073
v -0.356601 0.229868 -0.441437
v -0.356601 0.229868 -0.441437
v -0.353099 0.23068 -0.436073
v -0.351165 0.22849 -0.43679
v -0.354876 0.227629 -0.442475
v -0.362305 0.230243 -0.443331
v -0.358916 0.230815 -0.439748
v -0.356601 0.229868 -0.441437
v -0.3604 0.229226 -0.445454
v -0.3604 0.229226 -0.445454
v -0.356601 0.229868 -0.441437
v -0.354876 0.227629 -0.442475
v -0.358974 0.226937 -0.446807
v -0.3604 0.229226 -0.445454
v -0.364031 0.22881 -0.447818
v -0.365272 0.229903 -0.445263
v -0.362305 0.230243 -0.443331
v -0.358974 0.226937 -0.446807
v -0.363087 0.226466 -0.449485
v -0.364031 0.22881 -0.447818
v -0.3604 0.229226 -0.445454
v -0.363087 0.226466 -0.449485
v -0.368123 0.226141 -0.450872
v -0.368547 0.228519 -0.449063
v -0.364031 0.22881 -0.447818
v -0.364031 0.22881 -0.447818
v -0.368547 0.228519 -0.449063
v -0.369077 0.229657 -0.446312
v -0.365272 0.229903 -0.445263
v -0.368123 0.226141 -0.450872
v -0.375328 0.225871 -0.4514
v -0.375475 0.228258 -0.449572
v -0.368547 0.228519 -0.449063
v -0.368547 0.228519 -0.449063
v -0.375475 0.228258 -0.449572
v -0.375624 0.229411 -0.446794
v -0.369077 0.229657 -0.446312
v -0.375328 0.225871 -0.4514
v -0.385835 0.225568 -0.451483
v -0.385905 0.227958 -0.449655
v -0.375475 0.228258 -0.449572
v -0.375475 0.228258 -0.449572
v -0.385905 0.227958 -0.449655
v -0.385946 0.229114 -0.446876
v -0.375624 0.229411 -0.446794
v -0.385835 0.225568 -0.451483
v -0.400195 0.225169 -0.451489
v -0.400258 0.227559 -0.449661
v -0.385905 0.227958 -0.449655
v -0.385905 0.227958 -0.449655
v -0.400258 0.227559 -0.449661
v -0.40029 0.228715 -0.446882
v -0.385946 0.229114 -0.446876
v -0.400195 0.225169 -0.451489
v -0.416777 0.224708 -0.451491
v -0.416841 0.227098 -0.449664
v -0.400258 0.227559 -0.449661
v -0.400258 0.227559 -0.449661
v -0.416841 0.227098 -0.449664
v -0.416873 0.228254 -0.446885
v -0.40029 0.228715 -0.446882
v -0.416777 0.224708 -0.451491
v -0.433423 0.224246 -0.45149
v -0.433488 0.226636 -0.449663
v -0.416841 0.227098 -0.449664
v -0.416841 0.227098 -0.449664
v -0.433488 0.226636 -0.449663
v -0.433519 0.227792 -0.446885
v -0.416873 0.228254 -0.446885
v -0.433423 0.224246 -0.45149
v -0.447975 0.223843 -0.451485
v -0.448035 0.226233 -0.449658
v -0.433488 0.226636 -0.449663
v -0.433488 0.226636 -0.449663
v -0.448035 0.226233 -0.449658
v -0.448057 0.227389 -0.446879
v -0.433519 0.227792 -0.446885
v -0.433532 0.228257 -0.443391
v -0.416886 0.228719 -0.443392
v -0.416873 0.228254 -0.446885
v -0.433519 0.227792 -0.446885
v -0.448055 0.227855 -0.443386
v -0.433532 0.228257 -0.443391
v -0.433519 0.227792 -0.446885
v -0.448057 0.227389 -0.446879
v -0.416886 0.228719 -0.443392
v -0.400304 0.22918 -0.443388
v -0.40029 0.228715 -0.446882
v -0.416873 0.228254 -0.446885
v -0.400304 0.22918 -0.443388
v -0.385974 0.229579 -0.443382
v -0.385946 0.229114 -0.446876
v -0.40029 0.228715 -0.446882
v -0.385974 0.229579 -0.443382
v -0.375781 0.229873 -0.443301
v -0.375624 0.229411 -0.446794
v -0.385946 0.229114 -0.446876
v -0.375781 0.229873 -0.443301
v -0.369698 0.230101 -0.442854
v -0.369077 0.229657 -0.446312
v -0.375624 0.229411 -0.446794
v -0.369698 0.230101 -0.442854
v -0.366755 0.230291 -0.442043
v -0.365272 0.229903 -0.445263
v -0.369077 0.229657 -0.446312
v -0.366755 0.230291 -0.442043
v -0.364594 0.230539 -0.440635
v -0.362305 0.230243 -0.443331
v -0.365272 0.229903 -0.445263
v -0.364594 0.230539 -0.440635
v -0.361705 0.231026 -0.43758
v -0.358916 0.230815 -0.439748
v -0.362305 0.230243 -0.443331
v -0.361705 0.231026 -0.43758
v -0.358845 0.23169 -0.433199
v -0.355704 0.23156 -0.434827
v -0.358916 0.230815 -0.439748
v -0.358845 0.23169 -0.433199
v -0.356856 0.232395 -0.428325
v -0.353431 0.232366 -0.429257
v -0.355704 0.23156 -0.434827
v -0.356856 0.232395 -0.428325
v -0.356157 0.233048 -0.423581
v -0.352597 0.233144 -0.423596
v -0.353431 0.232366 -0.429257
v -0.356157 0.233048 -0.423581
v -0.356851 0.233661 -0.418835
v -0.353425 0.233877 -0.41793
v -0.352597 0.233144 -0.423596
v -0.356851 0.233661 -0.418835
v -0.358835 0.234258 -0.41395
v -0.355693 0.234559 -0.412346
v -0.353425 0.233877 -0.41793
v -0.363083 0.233478 -0.39692
v -0.358963 0.233229 -0.399643
v -0.360388 0.23509 -0.401493
v -0.364029 0.23531 -0.399087
v -0.368127 0.233531 -0.395468
v -0.363083 0.233478 -0.39692
v -0.364029 0.23531 -0.399087
v -0.368562 0.235358 -0.397782
v -0.375342 0.233415 -0.394837
v -0.368127 0.233531 -0.395468
v -0.368562 0.235358 -0.397782
v -0.375502 0.235247 -0.397174
v -0.385855 0.233155 -0.394598
v -0.375342 0.233415 -0.394837
v -0.375502 0.235247 -0.397174
v -0.385939 0.234988 -0.396937
v -0.400216 0.232786 -0.394375
v -0.385855 0.233155 -0.394598
v -0.385939 0.234988 -0.396937
v -0.400294 0.23462 -0.396714
v -0.433508 0.233766 -0.3962
v -0.416873 0.234194 -0.396458
v -0.416927 0.234583 -0.399424
v -0.433563 0.234155 -0.399166
v -0.416969 0.234116 -0.402917
v -0.433605 0.233688 -0.402659
v -0.433563 0.234155 -0.399166
v -0.416927 0.234583 -0.399424
v -0.448034 0.233393 -0.395974
v -0.433508 0.233766 -0.3962
v -0.433563 0.234155 -0.399166
v -0.448081 0.233782 -0.39894
v -0.433605 0.233688 -0.402659
v -0.448111 0.233315 -0.402433
v -0.448081 0.233782 -0.39894
v -0.433563 0.234155 -0.399166
v -0.458747 0.233108 -0.395883
v -0.448034 0.233393 -0.395974
v -0.448081 0.233782 -0.39894
v -0.458689 0.2335 -0.398849
v -0.448111 0.233315 -0.402433
v -0.458593 0.233036 -0.402344
v -0.458689 0.2335 -0.398849
v -0.448081 0.233782 -0.39894
v -0.466024 0.232852 -0.396286
v -0.458747 0.233108 -0.395883
v -0.458689 0.2335 -0.398849
v -0.465596 0.233257 -0.399232
v -0.458593 0.233036 -0.402344
v -0.465049 0.23281 -0.402702
v -0.465596 0.233257 -0.399232
v -0.458689 0.2335 -0.398849
v -0.470885 0.232555 -0.397502
v -0.466024 0.232852 -0.396286
v -0.465596 0.233257 -0.399232
v -0.469752 0.233003 -0.400271
v -0.465049 0.23281 -0.402702
v -0.46835 0.232608 -0.403527
v -0.469752 0.233003 -0.400271
v -0.465596 0.233257 -0.399232
v -0.474766 0.232129 -0.399889
v -0.470885 0.232555 -0.397502
v -0.469752 0.233003 -0.400271
v -0.472943 0.232653 -0.402234
v -0.46835 0.232608 -0.403527
v -0.470702 0.23235 -0.404974
v -0.472943 0.232653 -0.402234
v -0.469752 0.233003 -0.400271
v -0.472943 0.232653 -0.402234
v -0.476443 0.232073 -0.405853
v -0.478709 0.231476 -0.403965
v -0.474766 0.232129 -0.399889
v -0.470702 0.23235 -0.404974
v -0.473665 0.231859 -0.408037
v -0.476443 0.232073 -0.405853
v -0.472943 0.232653 -0.402234
v -0.476443 0.232073 -0.405853
v -0.479719 0.231313 -0.410872
v -0.482287 0.230645 -0.409446
v -0.478709 0.231476 -0.403965
v -0.473665 0.231859 -0.408037
v -0.476573 0.231184 -0.412493
v -0.479719 0.231313 -0.410872
v -0.476443 0.232073 -0.405853
v -0.479719 0.231313 -0.410872
v -0.482033 0.230482 -0.416618
v -0.484832 0.229732 -0.415767
v -0.482287 0.230645 -0.409446
v -0.476573 0.231184 -0.412493
v -0.478606 0.230454 -0.41754
v -0.482033 0.230482 -0.416618
v -0.479719 0.231313 -0.410872
v -0.482033 0.230482 -0.416618
v -0.482894 0.22967 -0.42253
v -0.4858 0.228818 -0.422417
v -0.484832 0.229732 -0.415767
v -0.478606 0.230454 -0.41754
v -0.479336 0.229765 -0.422556
v -0.482894 0.22967 -0.42253
v -0.482033 0.230482 -0.416618
v -0.482894 0.22967 -0.42253
v -0.482072 0.2289 -0.42847
v -0.484876 0.227953 -0.429094
v -0.4858 0.228818 -0.422417
v -0.479336 0.229765 -0.422556
v -0.478638 0.229111 -0.427599
v -0.482072 0.2289 -0.42847
v -0.482894 0.22967 -0.42253
v -0.482072 0.2289 -0.42847
v -0.479791 0.228188 -0.434286
v -0.482367 0.22717 -0.435485
v -0.484876 0.227953 -0.429094
v -0.478638 0.229111 -0.427599
v -0.476632 0.228485 -0.432714
v -0.479791 0.228188 -0.434286
v -0.482072 0.2289 -0.42847
v -0.476632 0.228485 -0.432714
v -0.473737 0.227959 -0.437259
v -0.476535 0.227596 -0.439397
v -0.479791 0.228188 -0.434286
v -0.4858 0.228818 -0.422417
v -0.484876 0.227953 -0.429094
v -0.486868 0.225714 -0.42936
v -0.487868 0.226648 -0.422148
v -0.484832 0.229732 -0.415767
v -0.4858 0.228818 -0.422417
v -0.487868 0.226648 -0.422148
v -0.486824 0.227636 -0.414964
v -0.482287 0.230645 -0.409446
v -0.484832 0.229732 -0.415767
v -0.486824 0.227636 -0.414964
v -0.484111 0.22861 -0.408226
v -0.478709 0.231476 -0.403965
v -0.482287 0.230645 -0.409446
v -0.484111 0.22861 -0.408226
v -0.480315 0.229491 -0.402409
v -0.474766 0.232129 -0.399889
v -0.478709 0.231476 -0.403965
v -0.480315 0.229491 -0.402409
v -0.476052 0.230197 -0.398002
v -0.476052 0.230197 -0.398002
v -0.471668 0.230679 -0.395305
v -0.470885 0.232555 -0.397502
v -0.474766 0.232129 -0.399889
v -0.471668 0.230679 -0.395305
v -0.466293 0.231007 -0.393961
v -0.466024 0.232852 -0.396286
v -0.470885 0.232555 -0.397502
v -0.466293 0.231007 -0.393961
v -0.458747 0.231273 -0.393544
v -0.458747 0.233108 -0.395883
v -0.466024 0.232852 -0.396286
v -0.458747 0.231273 -0.393544
v -0.447959 0.23156 -0.393636
v -0.448034 0.233393 -0.395974
v -0.458747 0.233108 -0.395883
v -0.447959 0.23156 -0.393636
v -0.433427 0.231933 -0.393862
v -0.433508 0.233766 -0.3962
v -0.448034 0.233393 -0.395974
v -0.433427 0.231933 -0.393862
v -0.416793 0.23236 -0.394119
v -0.416873 0.234194 -0.396458
v -0.433508 0.233766 -0.3962
v -0.416793 0.23236 -0.394119
v -0.400216 0.232786 -0.394375
v -0.400294 0.23462 -0.396714
v -0.416873 0.234194 -0.396458
v -0.468383 0.227485 -0.441927
v -0.465046 0.227458 -0.442825
v -0.46563 0.226981 -0.446284
v -0.46982 0.227015 -0.445157
v -0.470767 0.227622 -0.440409
v -0.468383 0.227485 -0.441927
v -0.46982 0.227015 -0.445157
v -0.473035 0.227198 -0.443111
v -0.473737 0.227959 -0.437259
v -0.470767 0.227622 -0.440409
v -0.473035 0.227198 -0.443111
v -0.476535 0.227596 -0.439397
vn -0.6361 0.0076 -0.7716
vn -0.4025 -0.0033 -0.9154
vn -0.4008 -0.1337 -0.9064
vn -0.6362 -0.1226 -0.7617
vn -0.7882 -0.1074 -0.606
vn -0.7868 0.0227 -0.6168
vn -0.6361 0.0076 -0.7716
vn -0.6362 -0.1226 -0.7617
vn -0.4025 -0.0033 -0.9154
vn -0.6361 0.0076 -0.7716
vn -0.5694 0.3836 -0.7271
vn -0.3642 0.3728 -0.8534
vn -0.7016 0.3982 -0.5909
vn -0.5694 0.3836 -0.7271
vn -0.6361 0.0076 -0.7716
vn -0.7868 0.0227 -0.6168
vn -0.1666 -0.0054 -0.986
vn -0.4025 -0.0033 -0.9154
vn -0.3642 0.3728 -0.8534
vn -0.1569 0.3727 -0.9146
vn -0.1666 -0.0054 -0.986
vn -0.1637 -0.1355 -0.9772
vn -0.4008 -0.1337 -0.9064
vn -0.4025 -0.0033 -0.9154
vn -0.1569 0.3727 -0.9146
vn -0.3642 0.3728 -0.8534
vn -0.2312 0.7813 -0.5797
vn -0.1079 0.7833 -0.6122
vn -0.3642 0.3728 -0.8534
vn -0.5694 0.3836 -0.7271
vn -0.3514 0.7892 -0.5037
vn -0.2312 0.7813 -0.5797
vn -0.1079 0.7833 -0.6122
vn -0.2312 0.7813 -0.5797
vn -0.0843 0.9622 -0.259
vn -0.05 0.9628 -0.2655
vn -0.2312 0.7813 -0.5797
vn -0.3514 0.7892 -0.5037
vn -0.1165 0.9645 -0.2372
vn -0.0843 0.9622 -0.259
vn -0.1362 0.9673 -0.2141
vn -0.1165 0.9645 -0.2372
vn -0.3514 0.7892 -0.5037
vn -0.4277 0.7992 -0.4223
vn -0.4277 0.7992 -0.4223
vn -0.3514 0.7892 -0.5037
vn -0.5694 0.3836 -0.7271
vn -0.7016 0.3982 -0.5909
vn -0.1503 0.9698 -0.1921
vn -0.1362 0.9673 -0.2141
vn -0.4277 0.7992 -0.4223
vn -0.4802 0.8083 -0.3406
vn -0.4802 0.8083 -0.3406
vn -0.4277 0.7992 -0.4223
vn -0.7016 0.3982 -0.5909
vn -0.7906 0.4134 -0.4517
vn -0.7906 0.4134 -0.4517
vn -0.7016 0.3982 -0.5909
vn -0.7868 0.0227 -0.6168
vn -0.8879 0.0399 -0.4582
vn -0.5209 0.8193 -0.2394
vn -0.4802 0.8083 -0.3406
vn -0.7906 0.4134 -0.4517
vn -0.8573 0.4328 -0.2788
vn -0.8573 0.4328 -0.2788
vn -0.7906 0.4134 -0.4517
vn -0.8879 0.0399 -0.4582
vn -0.9632 0.0626 -0.2613
vn -0.8879 0.0399 -0.4582
vn -0.8903 -0.0902 -0.4464
vn -0.9664 -0.0675 -0.2479
vn -0.9632 0.0626 -0.2613
vn -0.7868 0.0227 -0.6168
vn -0.7882 -0.1074 -0.606
vn -0.8903 -0.0902 -0.4464
vn -0.8879 0.0399 -0.4582
vn -0.9956 0.0929 -0.0101
vn -0.9632 0.0626 -0.2613
vn -0.9664 -0.0675 -0.2479
vn -0.9993 -0.0371 0.0063
vn -0.9654 -0.0051 0.2609
vn -0.9624 0.1244 0.2416
vn -0.9956 0.0929 -0.0101
vn -0.9993 -0.0371 0.0063
vn -0.8573 0.4883 0.1628
vn -0.8864 0.4593 -0.0581
vn -0.9956 0.0929 -0.0101
vn -0.9624 0.1244 0.2416
vn -0.8864 0.4593 -0.0581
vn -0.8573 0.4328 -0.2788
vn -0.9632 0.0626 -0.2613
vn -0.9956 0.0929 -0.0101
vn -0.7901 0.5125 0.3363
vn -0.8573 0.4883 0.1628
vn -0.9624 0.1244 0.2416
vn -0.8857 0.1503 0.4392
vn -0.9624 0.1244 0.2416
vn -0.9654 -0.0051 0.2609
vn -0.8876 0.0211 0.4601
vn -0.8857 0.1503 0.4392
vn -0.7 0.5322 0.4762
vn -0.7901 0.5125 0.3363
vn -0.8857 0.1503 0.4392
vn -0.7829 0.1721 0.5979
vn -0.8857 0.1503 0.4392
vn -0.8876 0.0211 0.4601
vn -0.7836 0.0429 0.6198
vn -0.7829 0.1721 0.5979
vn -0.6292 0.0651 0.7745
vn -0.63 0.1945 0.7519
vn -0.7829 0.1721 0.5979
vn -0.7836 0.0429 0.6198
vn -0.3911 0.088 0.9161
vn -0.3936 0.2176 0.8931
vn -0.63 0.1945 0.7519
vn -0.6292 0.0651 0.7745
vn -0.63 0.1945 0.7519
vn -0.3936 0.2176 0.8931
vn -0.3581 0.5718 0.7381
vn -0.5661 0.5515 0.6127
vn -0.5661 0.5515 0.6127
vn -0.7 0.5322 0.4762
vn -0.7829 0.1721 0.5979
vn -0.63 0.1945 0.7519
vn -0.3936 0.2176 0.8931
vn -0.1561 0.2316 0.9602
vn -0.1485 0.5861 0.7965
vn -0.3581 0.5718 0.7381
vn -0.3936 0.2176 0.8931
vn -0.3911 0.088 0.9161
vn -0.1528 0.1023 0.983
vn -0.1561 0.2316 0.9602
vn -0.1561 0.2316 0.9602
vn -0.03 0.2364 0.9712
vn -0.0371 0.5932 0.8042
vn -0.1485 0.5861 0.7965
vn -0.1561 0.2316 0.9602
vn -0.1528 0.1023 0.983
vn -0.0264 0.107 0.9939
vn -0.03 0.2364 0.9712
vn 0.0091 0.108 0.9941
vn 0.0054 0.2376 0.9713
vn -0.03 0.2364 0.9712
vn -0.0264 0.107 0.9939
vn 0.0125 0.1082 0.9941
vn 0.0089 0.2378 0.9713
vn 0.0054 0.2376 0.9713
vn 0.0091 0.108 0.9941
vn -0.03 0.2364 0.9712
vn 0.0054 0.2376 0.9713
vn -0.0059 0.5958 0.8031
vn -0.0371 0.5932 0.8042
vn 0.0054 0.2376 0.9713
vn 0.0089 0.2378 0.9713
vn -0.0029 0.5961 0.8029
vn -0.0059 0.5958 0.8031
vn 0.0089 0.2378 0.9713
vn 0.0089 0.2379 0.9713
vn -0.0029 0.5961 0.8029
vn -0.0029 0.5961 0.8029
vn 0.0089 0.2378 0.9713
vn 0.0125 0.1082 0.9941
vn 0.0125 0.1083 0.994
vn 0.0089 0.2379 0.9713
vn 0.0089 0.2379 0.9713
vn 0.0089 0.2379 0.9712
vn -0.0029 0.5962 0.8028
vn -0.0029 0.5961 0.8029
vn 0.0089 0.2379 0.9713
vn 0.0125 0.1083 0.994
vn 0.0125 0.1084 0.994
vn 0.0089 0.2379 0.9712
vn 0.0125 0.2381 0.9712
vn 0.0089 0.2379 0.9712
vn 0.0125 0.1084 0.994
vn 0.0162 0.1085 0.994
vn 0.0521 0.1093 0.9926
vn 0.0484 0.2387 0.9699
vn 0.0125 0.2381 0.9712
vn 0.0162 0.1085 0.994
vn 0.0089 0.2379 0.9712
vn 0.0125 0.2381 0.9712
vn 0.0003 0.5961 0.8029
vn -0.0029 0.5962 0.8028
vn 0.0125 0.2381 0.9712
vn 0.0484 0.2387 0.9699
vn 0.0321 0.5951 0.803
vn 0.0003 0.5961 0.8029
vn 0.0484 0.2387 0.9699
vn 0.1764 0.24 0.9546
vn 0.1454 0.5935 0.7916
vn 0.0321 0.5951 0.803
vn 0.0484 0.2387 0.9699
vn 0.0521 0.1093 0.9926
vn 0.1805 0.1107 0.9773
vn 0.1764 0.24 0.9546
vn 0.1764 0.24 0.9546
vn 0.4131 0.2374 0.8792
vn 0.3544 0.5894 0.7259
vn 0.1454 0.5935 0.7916
vn 0.1764 0.24 0.9546
vn 0.1805 0.1107 0.9773
vn 0.4179 0.1078 0.9021
vn 0.4131 0.2374 0.8792
vn 0.639 0.2259 0.7353
vn 0.4131 0.2374 0.8792
vn 0.4179 0.1078 0.9021
vn 0.6452 0.0966 0.7579
vn 0.788 0.0829 0.6101
vn 0.7804 0.212 0.5882
vn 0.639 0.2259 0.7353
vn 0.6452 0.0966 0.7579
vn 0.4131 0.2374 0.8792
vn 0.639 0.2259 0.7353
vn 0.5532 0.5798 0.5981
vn 0.3544 0.5894 0.7259
vn 0.6772 0.5681 0.4676
vn 0.5532 0.5798 0.5981
vn 0.639 0.2259 0.7353
vn 0.7804 0.212 0.5882
vn 0.7634 0.5537 0.3327
vn 0.6772 0.5681 0.4676
vn 0.7804 0.212 0.5882
vn 0.8786 0.1964 0.4353
vn 0.7804 0.212 0.5882
vn 0.788 0.0829 0.6101
vn 0.8871 0.0673 0.4566
vn 0.8786 0.1964 0.4353
vn 0.8309 0.5332 0.1592
vn 0.7634 0.5537 0.3327
vn 0.8786 0.1964 0.4353
vn 0.9554 0.1748 0.2382
vn 0.8786 0.1964 0.4353
vn 0.8871 0.0673 0.4566
vn 0.9649 0.0457 0.2585
vn 0.9554 0.1748 0.2382
vn 0.9893 0.1449 -0.0194
vn 0.9554 0.1748 0.2382
vn 0.9649 0.0457 0.2585
vn 0.9999 0.0155 -0.0012
vn 0.9652 -0.0165 -0.261
vn 0.9544 0.1129 -0.2765
vn 0.9893 0.1449 -0.0194
vn 0.9999 0.0155 -0.0012
vn 0.8603 0.5053 -0.0674
vn 0.8309 0.5332 0.1592
vn 0.9554 0.1748 0.2382
vn 0.9893 0.1449 -0.0194
vn 0.8284 0.4771 -0.2934
vn 0.8603 0.5053 -0.0674
vn 0.9893 0.1449 -0.0194
vn 0.9544 0.1129 -0.2765
vn 0.7594 0.4548 -0.4652
vn 0.8284 0.4771 -0.2934
vn 0.9544 0.1129 -0.2765
vn 0.877 0.087 -0.4725
vn 0.9544 0.1129 -0.2765
vn 0.9652 -0.0165 -0.261
vn 0.8874 -0.0423 -0.459
vn 0.877 0.087 -0.4725
vn 0.6724 0.4361 -0.5981
vn 0.7594 0.4548 -0.4652
vn 0.877 0.087 -0.4725
vn 0.7783 0.0659 -0.6244
vn 0.877 0.087 -0.4725
vn 0.8874 -0.0423 -0.459
vn 0.788 -0.0636 -0.6123
vn 0.7783 0.0659 -0.6244
vn 0.6443 -0.0857 -0.7599
vn 0.6359 0.0441 -0.7705
vn 0.7783 0.0659 -0.6244
vn 0.788 -0.0636 -0.6123
vn 0.4142 -0.1098 -0.9035
vn 0.4081 0.0204 -0.9127
vn 0.6359 0.0441 -0.7705
vn 0.6443 -0.0857 -0.7599
vn 0.6359 0.0441 -0.7705
vn 0.4081 0.0204 -0.9127
vn 0.3484 0.3933 -0.8508
vn 0.5478 0.4155 -0.7261
vn 0.5478 0.4155 -0.7261
vn 0.6724 0.4361 -0.5981
vn 0.7783 0.0659 -0.6244
vn 0.6359 0.0441 -0.7705
vn 0.4081 0.0204 -0.9127
vn 0.1692 0.0046 -0.9856
vn 0.1385 0.3812 -0.9141
vn 0.3484 0.3933 -0.8508
vn 0.4081 0.0204 -0.9127
vn 0.4142 -0.1098 -0.9035
vn 0.1735 -0.1253 -0.9768
vn 0.1692 0.0046 -0.9856
vn 0.1692 0.0046 -0.9856
vn 0.0401 -0.0005 -0.9992
vn 0.0249 0.3799 -0.9247
vn 0.1385 0.3812 -0.9141
vn 0.1692 0.0046 -0.9856
vn 0.1735 -0.1253 -0.9768
vn 0.0437 -0.1307 -0.9905
vn 0.0401 -0.0005 -0.9992
vn 0.0039 -0.0016 -1
vn 0.0401 -0.0005 -0.9992
vn 0.0437 -0.1307 -0.9905
vn 0.0074 -0.132 -0.9912
vn 0.0037 -0.1323 -0.9912
vn 0.0002 -0.0019 -1
vn 0.0039 -0.0016 -1
vn 0.0074 -0.132 -0.9912
vn 0.0401 -0.0005 -0.9992
vn 0.0039 -0.0016 -1
vn -0.0069 0.3808 -0.9246
vn 0.0249 0.3799 -0.9247
vn 0.0039 -0.0016 -1
vn 0.0002 -0.0019 -1
vn -0.0103 0.3808 -0.9246
vn -0.0069 0.3808 -0.9246
vn 0.0002 -0.0019 -1
vn -0 -0.002 -1
vn -0.0105 0.3807 -0.9246
vn -0.0103 0.3808 -0.9246
vn 0.0002 -0.0019 -1
vn 0.0037 -0.1323 -0.9912
vn 0.0036 -0.1325 -0.9912
vn -0 -0.002 -1
vn -0 -0.002 -1
vn -0.0002 -0.002 -1
vn -0.0107 0.3807 -0.9246
vn -0.0105 0.3807 -0.9246
vn -0 -0.002 -1
vn 0.0036 -0.1325 -0.9912
vn 0.0034 -0.1326 -0.9912
vn -0.0002 -0.002 -1
vn -0.0004 -0.1327 -0.9912
vn -0.0041 -0.0022 -1
vn -0.0002 -0.002 -1
vn 0.0034 -0.1326 -0.9912
vn -0.0367 -0.1335 -0.9904
vn -0.0402 -0.0033 -0.9992
vn -0.0041 -0.0022 -1
vn -0.0004 -0.1327 -0.9912
vn -0.0002 -0.002 -1
vn -0.0041 -0.0022 -1
vn -0.0143 0.3803 -0.9247
vn -0.0107 0.3807 -0.9246
vn -0.0041 -0.0022 -1
vn -0.0402 -0.0033 -0.9992
vn -0.046 0.3776 -0.9248
vn -0.0143 0.3803 -0.9247
vn -0.0402 -0.0033 -0.9992
vn -0.1666 -0.0054 -0.986
vn -0.1569 0.3727 -0.9146
vn -0.046 0.3776 -0.9248
vn -0.0402 -0.0033 -0.9992
vn -0.0367 -0.1335 -0.9904
vn -0.1637 -0.1355 -0.9772
vn -0.1666 -0.0054 -0.986
vn -0.0143 0.3803 -0.9247
vn -0.046 0.3776 -0.9248
vn -0.0425 0.7887 -0.6132
vn -0.0241 0.7916 -0.6106
vn -0.046 0.3776 -0.9248
vn -0.1569 0.3727 -0.9146
vn -0.1079 0.7833 -0.6122
vn -0.0425 0.7887 -0.6132
vn -0.0241 0.7916 -0.6106
vn -0.0425 0.7887 -0.6132
vn -0.0322 0.9643 -0.2628
vn -0.0274 0.965 -0.2607
vn -0.0425 0.7887 -0.6132
vn -0.1079 0.7833 -0.6122
vn -0.05 0.9628 -0.2655
vn -0.0322 0.9643 -0.2628
vn -0.0275 0.9909 -0.1321
vn -0.0275 0.9908 -0.1322
vn -0.0274 0.965 -0.2607
vn -0.0322 0.9643 -0.2628
vn -0.0275 0.9909 -0.1321
vn -0.0275 0.9909 -0.1321
vn -0.0322 0.9643 -0.2628
vn -0.05 0.9628 -0.2655
vn -0.0275 0.9908 -0.1322
vn -0.0275 0.9908 -0.1322
vn -0.0275 0.9909 -0.1321
vn -0.0275 0.9908 -0.1322
vn -0.0275 0.9909 -0.1321
vn -0.0275 0.9909 -0.1321
vn -0.0275 0.9908 -0.1322
vn -0.0274 0.9908 -0.1322
vn -0.0275 0.9908 -0.1322
vn -0.0275 0.9908 -0.1322
vn -0.0274 0.9908 -0.1322
vn -0.0274 0.9908 -0.1322
vn -0.0275 0.9908 -0.1322
vn -0.0275 0.9909 -0.1321
vn -0.0274 0.9908 -0.1322
vn -0.0275 0.9908 -0.1322
vn -0.0275 0.9908 -0.1322
vn -0.0275 0.9909 -0.1321
vn -0.0275 0.9908 -0.1322
vn -0.0275 0.9908 -0.1321
vn -0.0275 0.9908 -0.1322
vn -0.0275 0.9908 -0.1322
vn -0.0275 0.9908 -0.1322
vn -0.0275 0.9908 -0.1321
vn -0.0275 0.9908 -0.1322
vn -0.0275 0.9909 -0.1321
vn -0.0276 0.9908 -0.1322
vn -0.0275 0.9908 -0.1322
vn -0.0274 0.9908 -0.1324
vn -0.0275 0.9909 -0.1321
vn -0.0275 0.9908 -0.1322
vn -0.0275 0.9909 -0.1321
vn -0.0274 0.9908 -0.1324
vn -0.0275 0.9908 -0.1322
vn -0.0275 0.9908 -0.1322
vn -0.0275 0.9909 -0.1321
vn -0.0275 0.9908 -0.1322
vn -0.0275 0.9908 -0.1322
vn -0.0275 0.9908 -0.1322
vn -0.0275 0.9908 -0.1322
vn -0.0275 0.9909 -0.1321
vn -0.0275 0.9908 -0.1322
vn -0.0275 0.9908 -0.1322
vn -0.0275 0.9909 -0.1321
vn -0.0275 0.9908 -0.1322
vn -0.0275 0.9908 -0.1322
vn -0.0275 0.9909 -0.1321
vn -0.0275 0.9908 -0.1322
vn -0.0275 0.9908 -0.1322
vn -0.0275 0.9908 -0.1322
vn -0.0275 0.9909 -0.132
vn -0.0275 0.9908 -0.1322
vn -0.0275 0.9908 -0.1322
vn -0.0275 0.9908 -0.1322
vn -0.0275 0.9908 -0.1322
vn -0.0275 0.9908 -0.1322
vn -0.0275 0.9908 -0.1322
vn -0.0275 0.9908 -0.1322
vn -0.0275 0.9909 -0.132
vn -0.0275 0.9909 -0.132
vn -0.0275 0.9908 -0.1322
vn -0.0275 0.9909 -0.132
vn -0.0274 0.9909 -0.1321
vn -0.0275 0.9908 -0.1322
vn -0.0274 0.9909 -0.1321
vn -0.0275 0.9909 -0.1321
vn -0.0275 0.9908 -0.1322
vn -0.0275 0.9908 -0.1322
vn -0.0275 0.9909 -0.1321
vn -0.0275 0.9908 -0.1322
vn -0.0275 0.9909 -0.1321
vn -0.0275 0.9908 -0.1322
vn -0.0275 0.9908 -0.1322
vn -0.0275 0.9909 -0.1321
vn -0.0275 0.9909 -0.1321
vn -0.0275 0.9908 -0.1322
vn -0.0275 0.9908 -0.1322
vn -0.0275 0.9909 -0.1321
vn -0.0275 0.9908 -0.1322
vn -0.0275 0.9908 -0.1322
vn -0.0275 0.9908 -0.1322
vn -0.0275 0.9908 -0.1322
vn -0.0275 0.9908 -0.1322
vn -0.0275 0.9908 -0.1322
vn -0.0275 0.9908 -0.1322
vn -0.0276 0.9908 -0.1322
vn -0.0275 0.9908 -0.1322
vn -0.0275 0.9908 -0.1322
vn -0.0275 0.9908 -0.1322
vn -0.0275 0.9909 -0.1321
vn -0.0275 0.9908 -0.1322
vn -0.0275 0.9909 -0.1321
vn -0.0275 0.9908 -0.1321
vn -0.0275 0.9908 -0.1322
vn -0.0275 0.9908 -0.1321
vn -0.0275 0.9909 -0.1321
vn -0.0275 0.9908 -0.1322
vn -0.0275 0.9909 -0.1321
vn -0.0275 0.9909 -0.1321
vn -0.0275 0.9908 -0.1322
vn -0.0275 0.9909 -0.1321
vn -0.0275 0.9909 -0.1321
vn -0.0275 0.9908 -0.1322
vn -0.0275 0.9909 -0.1321
vn -0.0275 0.9908 -0.1322
vn -0.0275 0.9908 -0.1322
vn -0.0275 0.9908 -0.1322
vn -0.0274 0.9909 -0.1321
vn -0.0275 0.9908 -0.1322
vn -0.0274 0.9909 -0.1321
vn -0.0275 0.9908 -0.1322
vn -0.0275 0.9908 -0.1322
vn -0.0275 0.9908 -0.1322
vn -0.0275 0.9908 -0.1322
vn -0.0275 0.9908 -0.1322
vn -0.0275 0.9908 -0.1322
vn -0.0275 0.9908 -0.1322
vn -0.0275 0.9908 -0.1322
vn -0.0275 0.9908 -0.1322
vn -0.0275 0.9908 -0.1322
vn -0.0275 0.9908 -0.1322
vn -0.0275 0.9908 -0.1322
vn -0.0257 0.9997 -0.0009
vn -0.0257 0.9997 -0.0008
vn -0.0275 0.9908 -0.1322
vn -0.0275 0.9908 -0.1322
vn -0.0257 0.9997 -0.0008
vn -0.0252 0.9997 -0.0006
vn -0.0177 0.9217 0.3876
vn -0.0158 0.9215 0.388
vn -0.0252 0.9997 -0.0006
vn -0.0257 0.9997 -0.0008
vn -0.0177 0.9217 0.3876
vn -0.0177 0.9217 0.3876
vn -0.0257 0.9997 -0.0008
vn -0.0257 0.9997 -0.0009
vn -0.0158 0.9215 0.388
vn 0.0028 0.9204 0.391
vn -0.0203 0.9998 0.0015
vn -0.0252 0.9997 -0.0006
vn -0.0275 0.9908 -0.1322
vn -0.0275 0.9908 -0.1322
vn -0.0252 0.9997 -0.0006
vn -0.0203 0.9998 0.0015
vn 0.0028 0.9204 0.391
vn 0.0698 0.9182 0.3899
vn -0.0021 1 0.0042
vn -0.0203 0.9998 0.0015
vn -0.0275 0.9909 -0.132
vn -0.0275 0.9908 -0.1322
vn -0.0203 0.9998 0.0015
vn -0.0021 1 0.0042
vn 0.0698 0.9182 0.3899
vn 0.1944 0.9144 0.355
vn 0.0323 0.9995 -0.003
vn -0.0021 1 0.0042
vn -0.0275 0.9909 -0.132
vn -0.0275 0.9909 -0.132
vn -0.0021 1 0.0042
vn 0.0323 0.9995 -0.003
vn 0.1944 0.9144 0.355
vn 0.3106 0.9092 0.2773
vn 0.0631 0.9977 -0.0253
vn 0.0323 0.9995 -0.003
vn -0.0274 0.9909 -0.1321
vn -0.0275 0.9909 -0.132
vn 0.0323 0.9995 -0.003
vn 0.0631 0.9977 -0.0253
vn 0.0816 0.9956 -0.0472
vn 0.0631 0.9977 -0.0253
vn 0.3106 0.9092 0.2773
vn 0.382 0.9025 0.1988
vn -0.0275 0.9909 -0.1321
vn -0.0274 0.9909 -0.1321
vn 0.0631 0.9977 -0.0253
vn 0.0816 0.9956 -0.0472
vn -0.0275 0.9908 -0.1322
vn -0.0275 0.9909 -0.1321
vn 0.0816 0.9956 -0.0472
vn 0.0955 0.9931 -0.0682
vn 0.0955 0.9931 -0.0682
vn 0.0816 0.9956 -0.0472
vn 0.382 0.9025 0.1988
vn 0.433 0.8934 0.1199
vn 0.433 0.8934 0.1199
vn 0.382 0.9025 0.1988
vn 0.6772 0.5681 0.4676
vn 0.7634 0.5537 0.3327
vn 0.382 0.9025 0.1988
vn 0.3106 0.9092 0.2773
vn 0.5532 0.5798 0.5981
vn 0.6772 0.5681 0.4676
vn 0.1078 0.9896 -0.0952
vn 0.0955 0.9931 -0.0682
vn 0.433 0.8934 0.1199
vn 0.4743 0.8802 0.0185
vn 0.4743 0.8802 0.0185
vn 0.433 0.8934 0.1199
vn 0.7634 0.5537 0.3327
vn 0.8309 0.5332 0.1592
vn 0.114 0.9848 -0.1314
vn 0.1078 0.9896 -0.0952
vn 0.4743 0.8802 0.0185
vn 0.4932 0.8623 -0.1149
vn 0.4932 0.8623 -0.1149
vn 0.4743 0.8802 0.0185
vn 0.8309 0.5332 0.1592
vn 0.8603 0.5053 -0.0674
vn 0.1074 0.98 -0.1675
vn 0.114 0.9848 -0.1314
vn 0.4932 0.8623 -0.1149
vn 0.4726 0.8456 -0.2481
vn 0.4726 0.8456 -0.2481
vn 0.4932 0.8623 -0.1149
vn 0.8603 0.5053 -0.0674
vn 0.8284 0.4771 -0.2934
vn 0.095 0.9763 -0.1942
vn 0.1074 0.98 -0.1675
vn 0.4726 0.8456 -0.2481
vn 0.4303 0.8327 -0.3486
vn 0.4303 0.8327 -0.3486
vn 0.4726 0.8456 -0.2481
vn 0.8284 0.4771 -0.2934
vn 0.7594 0.4548 -0.4652
vn 0.081 0.9732 -0.215
vn 0.095 0.9763 -0.1942
vn 0.4303 0.8327 -0.3486
vn 0.3788 0.8215 -0.4263
vn 0.3788 0.8215 -0.4263
vn 0.4303 0.8327 -0.3486
vn 0.7594 0.4548 -0.4652
vn 0.6724 0.4361 -0.5981
vn 0.0626 0.9696 -0.2367
vn 0.081 0.9732 -0.215
vn 0.3788 0.8215 -0.4263
vn 0.3071 0.808 -0.5028
vn 0.3071 0.808 -0.5028
vn 0.3788 0.8215 -0.4263
vn 0.6724 0.4361 -0.5981
vn 0.5478 0.4155 -0.7261
vn 0.3071 0.808 -0.5028
vn 0.1907 0.7933 -0.5781
vn 0.0316 0.9655 -0.2586
vn 0.0626 0.9696 -0.2367
vn 0.5478 0.4155 -0.7261
vn 0.3484 0.3933 -0.8508
vn 0.1907 0.7933 -0.5781
vn 0.3071 0.808 -0.5028
vn 0.3484 0.3933 -0.8508
vn 0.1385 0.3812 -0.9141
vn 0.0657 0.7881 -0.612
vn 0.1907 0.7933 -0.5781
vn 0.1907 0.7933 -0.5781
vn 0.0657 0.7881 -0.612
vn -0.0031 0.9641 -0.2656
vn 0.0316 0.9655 -0.2586
vn 0.1385 0.3812 -0.9141
vn 0.0249 0.3799 -0.9247
vn -0.0013 0.7899 -0.6132
vn 0.0657 0.7881 -0.612
vn 0.0657 0.7881 -0.612
vn -0.0013 0.7899 -0.6132
vn -0.0213 0.9646 -0.2629
vn -0.0031 0.9641 -0.2656
vn 0.0249 0.3799 -0.9247
vn -0.0069 0.3808 -0.9246
vn -0.0198 0.7917 -0.6105
vn -0.0013 0.7899 -0.6132
vn -0.0013 0.7899 -0.6132
vn -0.0198 0.7917 -0.6105
vn -0.0262 0.9651 -0.2607
vn -0.0213 0.9646 -0.2629
vn -0.0069 0.3808 -0.9246
vn -0.0103 0.3808 -0.9246
vn -0.0218 0.792 -0.6101
vn -0.0198 0.7917 -0.6105
vn -0.0198 0.7917 -0.6105
vn -0.0218 0.792 -0.6101
vn -0.0268 0.9651 -0.2604
vn -0.0262 0.9651 -0.2607
vn -0.0103 0.3808 -0.9246
vn -0.0105 0.3807 -0.9246
vn -0.022 0.7919 -0.6102
vn -0.0218 0.792 -0.6101
vn -0.0218 0.792 -0.6101
vn -0.022 0.7919 -0.6102
vn -0.0268 0.9651 -0.2603
vn -0.0268 0.9651 -0.2604
vn -0.0105 0.3807 -0.9246
vn -0.0107 0.3807 -0.9246
vn -0.0221 0.7919 -0.6102
vn -0.022 0.7919 -0.6102
vn -0.022 0.7919 -0.6102
vn -0.0221 0.7919 -0.6102
vn -0.0268 0.9651 -0.2604
vn -0.0268 0.9651 -0.2603
vn -0.0107 0.3807 -0.9246
vn -0.0143 0.3803 -0.9247
vn -0.0241 0.7916 -0.6106
vn -0.0221 0.7919 -0.6102
vn -0.0221 0.7919 -0.6102
vn -0.0241 0.7916 -0.6106
vn -0.0274 0.965 -0.2607
vn -0.0268 0.9651 -0.2604
vn -0.0275 0.9909 -0.1321
vn -0.0275 0.9909 -0.1321
vn -0.0268 0.9651 -0.2603
vn -0.0268 0.9651 -0.2604
vn -0.0275 0.9908 -0.1322
vn -0.0275 0.9909 -0.1321
vn -0.0268 0.9651 -0.2604
vn -0.0274 0.965 -0.2607
vn -0.0275 0.9909 -0.1321
vn -0.0275 0.9909 -0.1321
vn -0.0268 0.9651 -0.2604
vn -0.0268 0.9651 -0.2603
vn -0.0275 0.9909 -0.1321
vn -0.0275 0.9908 -0.1321
vn -0.0262 0.9651 -0.2607
vn -0.0268 0.9651 -0.2604
vn -0.0275 0.9908 -0.1321
vn -0.0275 0.9909 -0.1321
vn -0.0213 0.9646 -0.2629
vn -0.0262 0.9651 -0.2607
vn -0.0275 0.9909 -0.1321
vn -0.0275 0.9908 -0.1322
vn -0.0031 0.9641 -0.2656
vn -0.0213 0.9646 -0.2629
vn -0.0275 0.9908 -0.1322
vn -0.0276 0.9908 -0.1322
vn 0.0316 0.9655 -0.2586
vn -0.0031 0.9641 -0.2656
vn -0.0276 0.9908 -0.1322
vn -0.0275 0.9909 -0.1321
vn 0.0626 0.9696 -0.2367
vn 0.0316 0.9655 -0.2586
vn -0.0275 0.9909 -0.1321
vn -0.0274 0.9908 -0.1324
vn 0.081 0.9732 -0.215
vn 0.0626 0.9696 -0.2367
vn -0.0274 0.9908 -0.1324
vn -0.0275 0.9909 -0.1321
vn 0.095 0.9763 -0.1942
vn 0.081 0.9732 -0.215
vn -0.0275 0.9909 -0.1321
vn -0.0275 0.9908 -0.1322
vn 0.1074 0.98 -0.1675
vn 0.095 0.9763 -0.1942
vn -0.0275 0.9908 -0.1322
vn -0.0275 0.9908 -0.1322
vn 0.114 0.9848 -0.1314
vn 0.1074 0.98 -0.1675
vn -0.0275 0.9908 -0.1322
vn -0.0275 0.9909 -0.1321
vn 0.1078 0.9896 -0.0952
vn 0.114 0.9848 -0.1314
vn -0.0275 0.9909 -0.1321
vn -0.0275 0.9908 -0.1322
vn 0.0955 0.9931 -0.0682
vn 0.1078 0.9896 -0.0952
vn 0.3544 0.5894 0.7259
vn 0.5532 0.5798 0.5981
vn 0.3106 0.9092 0.2773
vn 0.1944 0.9144 0.355
vn 0.1454 0.5935 0.7916
vn 0.3544 0.5894 0.7259
vn 0.1944 0.9144 0.355
vn 0.0698 0.9182 0.3899
vn 0.0321 0.5951 0.803
vn 0.1454 0.5935 0.7916
vn 0.0698 0.9182 0.3899
vn 0.0028 0.9204 0.391
vn 0.0003 0.5961 0.8029
vn 0.0321 0.5951 0.803
vn 0.0028 0.9204 0.391
vn -0.0158 0.9215 0.388
vn -0.0029 0.5962 0.8028
vn 0.0003 0.5961 0.8029
vn -0.0158 0.9215 0.388
vn -0.0177 0.9217 0.3876
vn -0.0177 0.9217 0.3876
vn -0.0177 0.9217 0.3876
vn -0.0257 0.9997 -0.0009
vn -0.0257 0.9997 -0.0009
vn -0.0275 0.9908 -0.1322
vn -0.0275 0.9908 -0.1322
vn -0.0257 0.9997 -0.0009
vn -0.0257 0.9997 -0.0009
vn -0.0194 0.9214 0.388
vn -0.0177 0.9217 0.3876
vn -0.0257 0.9997 -0.0009
vn -0.0261 0.9997 -0.0006
vn -0.0275 0.9908 -0.1322
vn -0.0275 0.9908 -0.1322
vn -0.0261 0.9997 -0.0006
vn -0.0257 0.9997 -0.0009
vn -0.0376 0.9194 0.3915
vn -0.0194 0.9214 0.388
vn -0.0261 0.9997 -0.0006
vn -0.0309 0.9995 0.0017
vn -0.0275 0.9908 -0.1322
vn -0.0274 0.9909 -0.1321
vn -0.0309 0.9995 0.0017
vn -0.0261 0.9997 -0.0006
vn -0.1032 0.9139 0.3926
vn -0.0376 0.9194 0.3915
vn -0.0309 0.9995 0.0017
vn -0.0486 0.9988 0.0049
vn -0.0274 0.9909 -0.1321
vn -0.0275 0.9908 -0.1322
vn -0.0486 0.9988 0.0049
vn -0.0309 0.9995 0.0017
vn -0.2279 0.9038 0.3622
vn -0.1032 0.9139 0.3926
vn -0.0486 0.9988 0.0049
vn -0.0831 0.9965 -0.0015
vn -0.0275 0.9908 -0.1322
vn -0.0275 0.9909 -0.1321
vn -0.0831 0.9965 -0.0015
vn -0.0486 0.9988 0.0049
vn -0.3499 0.8919 0.2863
vn -0.2279 0.9038 0.3622
vn -0.0831 0.9965 -0.0015
vn -0.1158 0.993 -0.0225
vn -0.0275 0.9909 -0.1321
vn -0.0275 0.9909 -0.1321
vn -0.1158 0.993 -0.0225
vn -0.0831 0.9965 -0.0015
vn -0.1158 0.993 -0.0225
vn -0.1357 0.9897 -0.0456
vn -0.4272 0.8808 0.2042
vn -0.3499 0.8919 0.2863
vn -0.0275 0.9909 -0.1321
vn -0.0275 0.9908 -0.1322
vn -0.1357 0.9897 -0.0456
vn -0.1158 0.993 -0.0225
vn -0.1357 0.9897 -0.0456
vn -0.1501 0.9864 -0.0675
vn -0.4802 0.8686 0.1222
vn -0.4272 0.8808 0.2042
vn -0.0275 0.9908 -0.1322
vn -0.0275 0.9908 -0.1322
vn -0.1501 0.9864 -0.0675
vn -0.1357 0.9897 -0.0456
vn -0.1501 0.9864 -0.0675
vn -0.1621 0.9822 -0.0946
vn -0.5211 0.8532 0.0208
vn -0.4802 0.8686 0.1222
vn -0.0275 0.9908 -0.1322
vn -0.0275 0.9908 -0.1322
vn -0.1621 0.9822 -0.0946
vn -0.1501 0.9864 -0.0675
vn -0.1621 0.9822 -0.0946
vn -0.1681 0.9772 -0.1298
vn -0.5397 0.8348 -0.1093
vn -0.5211 0.8532 0.0208
vn -0.0275 0.9908 -0.1322
vn -0.0274 0.9908 -0.1322
vn -0.1681 0.9772 -0.1298
vn -0.1621 0.9822 -0.0946
vn -0.1681 0.9772 -0.1298
vn -0.1621 0.9729 -0.1651
vn -0.5209 0.8193 -0.2394
vn -0.5397 0.8348 -0.1093
vn -0.0274 0.9908 -0.1322
vn -0.0274 0.9908 -0.1322
vn -0.1621 0.9729 -0.1651
vn -0.1681 0.9772 -0.1298
vn -0.1621 0.9729 -0.1651
vn -0.1503 0.9698 -0.1921
vn -0.4802 0.8083 -0.3406
vn -0.5209 0.8193 -0.2394
vn -0.0274 0.9908 -0.1322
vn -0.0275 0.9909 -0.1321
vn -0.1503 0.9698 -0.1921
vn -0.1621 0.9729 -0.1651
vn -0.0275 0.9909 -0.1321
vn -0.0275 0.9908 -0.1322
vn -0.1362 0.9673 -0.2141
vn -0.1503 0.9698 -0.1921
vn -0.5397 0.8348 -0.1093
vn -0.5209 0.8193 -0.2394
vn -0.8573 0.4328 -0.2788
vn -0.8864 0.4593 -0.0581
vn -0.5211 0.8532 0.0208
vn -0.5397 0.8348 -0.1093
vn -0.8864 0.4593 -0.0581
vn -0.8573 0.4883 0.1628
vn -0.4802 0.8686 0.1222
vn -0.5211 0.8532 0.0208
vn -0.8573 0.4883 0.1628
vn -0.7901 0.5125 0.3363
vn -0.4272 0.8808 0.2042
vn -0.4802 0.8686 0.1222
vn -0.7901 0.5125 0.3363
vn -0.7 0.5322 0.4762
vn -0.3499 0.8919 0.2863
vn -0.4272 0.8808 0.2042
vn -0.7 0.5322 0.4762
vn -0.5661 0.5515 0.6127
vn -0.5661 0.5515 0.6127
vn -0.3581 0.5718 0.7381
vn -0.2279 0.9038 0.3622
vn -0.3499 0.8919 0.2863
vn -0.3581 0.5718 0.7381
vn -0.1485 0.5861 0.7965
vn -0.1032 0.9139 0.3926
vn -0.2279 0.9038 0.3622
vn -0.1485 0.5861 0.7965
vn -0.0371 0.5932 0.8042
vn -0.0376 0.9194 0.3915
vn -0.1032 0.9139 0.3926
vn -0.0371 0.5932 0.8042
vn -0.0059 0.5958 0.8031
vn -0.0194 0.9214 0.388
vn -0.0376 0.9194 0.3915
vn -0.0059 0.5958 0.8031
vn -0.0029 0.5961 0.8029
vn -0.0177 0.9217 0.3876
vn -0.0194 0.9214 0.388
vn -0.0029 0.5961 0.8029
vn -0.0029 0.5961 0.8029
vn -0.0177 0.9217 0.3876
vn -0.0177 0.9217 0.3876
vn -0.0029 0.5961 0.8029
vn -0.0029 0.5962 0.8028
vn -0.0177 0.9217 0.3876
vn -0.0177 0.9217 0.3876
vn -0.0275 0.9908 -0.1322
vn -0.0275 0.9909 -0.1321
vn -0.05 0.9628 -0.2655
vn -0.0843 0.9622 -0.259
vn -0.0275 0.9908 -0.1321
vn -0.0275 0.9908 -0.1322
vn -0.0843 0.9622 -0.259
vn -0.1165 0.9645 -0.2372
vn -0.0275 0.9908 -0.1322
vn -0.0275 0.9908 -0.1321
vn -0.1165 0.9645 -0.2372
vn -0.1362 0.9673 -0.2141
vt 0.222288 0.63411
vt 0.222198 0.631597
vt 0.206973 0.632049
vt 0.207081 0.634527
vt 0.207217 0.637445
vt 0.222391 0.637066
vt 0.222288 0.63411
vt 0.207081 0.634527
vt 0.568559 0.420661
vt 0.569957 0.422942
vt 0.5711 0.422064
vt 0.569833 0.420079
vt 0.573139 0.424076
vt 0.5711 0.422064
vt 0.569957 0.422942
vt 0.5722 0.425198
vt 0.567685 0.417973
vt 0.568559 0.420661
vt 0.569833 0.420079
vt 0.569083 0.417658
vt 0.222102 0.62892
vt 0.206874 0.629406
vt 0.206973 0.632049
vt 0.222198 0.631597
vt 0.569083 0.417658
vt 0.569833 0.420079
vt 0.571061 0.419515
vt 0.57042 0.417368
vt 0.569833 0.420079
vt 0.5711 0.422064
vt 0.572168 0.421222
vt 0.571061 0.419515
vt 0.57042 0.417368
vt 0.571061 0.419515
vt 0.572283 0.418953
vt 0.571744 0.417102
vt 0.571061 0.419515
vt 0.572168 0.421222
vt 0.573204 0.420371
vt 0.572283 0.418953
vt 0.574866 0.42194
vt 0.573204 0.420371
vt 0.572168 0.421222
vt 0.57402 0.423004
vt 0.57402 0.423004
vt 0.572168 0.421222
vt 0.5711 0.422064
vt 0.573139 0.424076
vt 0.577177 0.42342
vt 0.574866 0.42194
vt 0.57402 0.423004
vt 0.57655 0.424637
vt 0.57655 0.424637
vt 0.57402 0.423004
vt 0.573139 0.424076
vt 0.575894 0.425875
vt 0.575894 0.425875
vt 0.573139 0.424076
vt 0.5722 0.425198
vt 0.575201 0.427168
vt 0.579471 0.425785
vt 0.57655 0.424637
vt 0.575894 0.425875
vt 0.579096 0.427131
vt 0.579096 0.427131
vt 0.575894 0.425875
vt 0.575201 0.427168
vt 0.578699 0.428543
vt 0.222504 0.640393
vt 0.207365 0.640732
vt 0.207497 0.644171
vt 0.222618 0.643874
vt 0.222391 0.637066
vt 0.207217 0.637445
vt 0.207365 0.640732
vt 0.222504 0.640393
vt 0.222727 0.647362
vt 0.222618 0.643874
vt 0.207497 0.644171
vt 0.207589 0.647613
vt 0.207623 0.651049
vt 0.222825 0.650844
vt 0.222727 0.647362
vt 0.207589 0.647613
vt 0.585863 0.427182
vt 0.582476 0.427606
vt 0.582436 0.429074
vt 0.586189 0.428619
vt 0.582476 0.427606
vt 0.579096 0.427131
vt 0.578699 0.428543
vt 0.582436 0.429074
vt 0.58908 0.425971
vt 0.585863 0.427182
vt 0.586189 0.428619
vt 0.589717 0.427299
vt 0.222825 0.650844
vt 0.207623 0.651049
vt 0.207616 0.654471
vt 0.222912 0.654311
vt 0.591851 0.424205
vt 0.58908 0.425971
vt 0.589717 0.427299
vt 0.592744 0.425368
vt 0.222912 0.654311
vt 0.207616 0.654471
vt 0.207587 0.657737
vt 0.222986 0.657619
vt 0.207553 0.660636
vt 0.223041 0.660554
vt 0.222986 0.657619
vt 0.207587 0.657737
vt 0.207528 0.663099
vt 0.223075 0.663047
vt 0.223041 0.660554
vt 0.207553 0.660636
vt 0.595026 0.423148
vt 0.596485 0.420868
vt 0.59519 0.420229
vt 0.593915 0.422213
vt 0.593915 0.422213
vt 0.591851 0.424205
vt 0.592744 0.425368
vt 0.595026 0.423148
vt 0.596485 0.420868
vt 0.597372 0.418135
vt 0.595959 0.417806
vt 0.59519 0.420229
vt 0.223075 0.663047
vt 0.207528 0.663099
vt 0.207511 0.665733
vt 0.223093 0.665706
vt 0.597372 0.418135
vt 0.597821 0.414404
vt 0.596384 0.414293
vt 0.595959 0.417806
vt 0.223093 0.665706
vt 0.207511 0.665733
vt 0.207496 0.669261
vt 0.2231 0.669253
vt 0.207477 0.674257
vt 0.223102 0.674264
vt 0.2231 0.669253
vt 0.207496 0.669261
vt 0.207449 0.680982
vt 0.223104 0.680998
vt 0.223102 0.674264
vt 0.207477 0.674257
vt 0.597821 0.414404
vt 0.597945 0.40922
vt 0.596522 0.409201
vt 0.596384 0.414293
vt 0.597945 0.40922
vt 0.597945 0.402355
vt 0.596536 0.402356
vt 0.596522 0.409201
vt 0.597945 0.402355
vt 0.59791 0.39454
vt 0.596505 0.394547
vt 0.596536 0.402356
vt 0.223104 0.680998
vt 0.207449 0.680982
vt 0.207416 0.688683
vt 0.223105 0.688706
vt 0.59791 0.39454
vt 0.59785 0.386749
vt 0.59644 0.386761
vt 0.596505 0.394547
vt 0.223105 0.688706
vt 0.207416 0.688683
vt 0.207383 0.696358
vt 0.223107 0.696388
vt 0.223108 0.703043
vt 0.223107 0.696388
vt 0.207383 0.696358
vt 0.207354 0.703004
vt 0.207336 0.707875
vt 0.223109 0.707927
vt 0.223108 0.703043
vt 0.207354 0.703004
vt 0.59785 0.386749
vt 0.597767 0.379954
vt 0.59634 0.37999
vt 0.59644 0.386761
vt 0.597767 0.379954
vt 0.59757 0.374888
vt 0.596131 0.375018
vt 0.59634 0.37999
vt 0.59757 0.374888
vt 0.597077 0.371308
vt 0.595668 0.371659
vt 0.596131 0.375018
vt 0.223109 0.707927
vt 0.207336 0.707875
vt 0.207329 0.711256
vt 0.223103 0.711327
vt 0.597077 0.371308
vt 0.596188 0.368725
vt 0.5949 0.36938
vt 0.595668 0.371659
vt 0.223103 0.711327
vt 0.207329 0.711256
vt 0.207335 0.713753
vt 0.223088 0.713848
vt 0.223055 0.716234
vt 0.223088 0.713848
vt 0.207335 0.713753
vt 0.207355 0.71611
vt 0.207387 0.718929
vt 0.223001 0.719088
vt 0.223055 0.716234
vt 0.207355 0.71611
vt 0.596188 0.368725
vt 0.594764 0.366554
vt 0.593654 0.367493
vt 0.5949 0.36938
vt 0.591637 0.36555
vt 0.593654 0.367493
vt 0.594764 0.366554
vt 0.592538 0.364391
vt 0.588935 0.3638
vt 0.591637 0.36555
vt 0.592538 0.364391
vt 0.589587 0.362477
vt 0.223001 0.719088
vt 0.207387 0.718929
vt 0.20742 0.722122
vt 0.222929 0.72232
vt 0.585811 0.362585
vt 0.588935 0.3638
vt 0.589587 0.362477
vt 0.586152 0.361149
vt 0.222929 0.72232
vt 0.20742 0.722122
vt 0.207439 0.725461
vt 0.222842 0.725701
vt 0.222742 0.729081
vt 0.222842 0.725701
vt 0.207439 0.725461
vt 0.20743 0.728799
vt 0.20738 0.732137
vt 0.222631 0.732462
vt 0.222742 0.729081
vt 0.20743 0.728799
vt 0.582534 0.362142
vt 0.585811 0.362585
vt 0.586152 0.361149
vt 0.582504 0.360673
vt 0.579266 0.362585
vt 0.582534 0.362142
vt 0.582504 0.360673
vt 0.578872 0.361171
vt 0.576154 0.363805
vt 0.579266 0.362585
vt 0.578872 0.361171
vt 0.575462 0.362507
vt 0.222631 0.732462
vt 0.20738 0.732137
vt 0.207298 0.735473
vt 0.222513 0.735842
vt 0.573464 0.365547
vt 0.576154 0.363805
vt 0.575462 0.362507
vt 0.572532 0.364415
vt 0.222513 0.735842
vt 0.207298 0.735473
vt 0.2072 0.738659
vt 0.222397 0.739073
vt 0.207103 0.74147
vt 0.222292 0.741923
vt 0.222397 0.739073
vt 0.2072 0.738659
vt 0.207019 0.743818
vt 0.222204 0.744301
vt 0.222292 0.741923
vt 0.207103 0.74147
vt 0.570336 0.366573
vt 0.568964 0.368711
vt 0.570226 0.369324
vt 0.571467 0.367472
vt 0.571467 0.367472
vt 0.573464 0.365547
vt 0.572532 0.364415
vt 0.570336 0.366573
vt 0.568964 0.368711
vt 0.568081 0.371222
vt 0.569473 0.37157
vt 0.570226 0.369324
vt 0.222204 0.744301
vt 0.207019 0.743818
vt 0.206927 0.746307
vt 0.22211 0.746813
vt 0.568081 0.371222
vt 0.567564 0.374753
vt 0.568999 0.374891
vt 0.569473 0.37157
vt 0.22211 0.746813
vt 0.206927 0.746307
vt 0.2068 0.749682
vt 0.221983 0.750206
vt 0.221801 0.755084
vt 0.221983 0.750206
vt 0.2068 0.749682
vt 0.206616 0.754547
vt 0.206363 0.761188
vt 0.221553 0.761733
vt 0.221801 0.755084
vt 0.206616 0.754547
vt 0.567564 0.374753
vt 0.567337 0.379794
vt 0.568769 0.379837
vt 0.568999 0.374891
vt 0.567337 0.379794
vt 0.56723 0.386584
vt 0.568648 0.386602
vt 0.568769 0.379837
vt 0.56723 0.386584
vt 0.567149 0.394386
vt 0.568564 0.394397
vt 0.568648 0.386602
vt 0.221553 0.761733
vt 0.206363 0.761188
vt 0.206071 0.768858
vt 0.221266 0.769411
vt 0.567149 0.394386
vt 0.567096 0.402216
vt 0.568514 0.402221
vt 0.568564 0.394397
vt 0.221265 0.605892
vt 0.206071 0.606459
vt 0.206343 0.614156
vt 0.221545 0.613599
vt 0.206578 0.620879
vt 0.22179 0.620338
vt 0.221545 0.613599
vt 0.206343 0.614156
vt 0.206751 0.625875
vt 0.221972 0.625359
vt 0.22179 0.620338
vt 0.206578 0.620879
vt 0.567096 0.402216
vt 0.567091 0.40909
vt 0.568519 0.409072
vt 0.568514 0.402221
vt 0.567091 0.40909
vt 0.567224 0.414268
vt 0.568659 0.414159
vt 0.568519 0.409072
vt 0.567224 0.414268
vt 0.567685 0.417973
vt 0.569083 0.417658
vt 0.568659 0.414159
vt 0.221972 0.625359
vt 0.206751 0.625875
vt 0.206874 0.629406
vt 0.222102 0.62892
vt 0.568519 0.409072
vt 0.568659 0.414159
vt 0.57006 0.414058
vt 0.569937 0.409055
vt 0.568659 0.414159
vt 0.569083 0.417658
vt 0.57042 0.417368
vt 0.57006 0.414058
vt 0.569937 0.409055
vt 0.57006 0.414058
vt 0.571443 0.413969
vt 0.571348 0.409041
vt 0.57006 0.414058
vt 0.57042 0.417368
vt 0.571744 0.417102
vt 0.571443 0.413969
vt 0.573059 0.413881
vt 0.572996 0.409029
vt 0.571348 0.409041
vt 0.571443 0.413969
vt 0.5733 0.416805
vt 0.573059 0.413881
vt 0.571443 0.413969
vt 0.571744 0.417102
vt 0.582583 0.394752
vt 0.572996 0.409029
vt 0.573059 0.413881
vt 0.582583 0.394752
vt 0.573059 0.413881
vt 0.5733 0.416805
vt 0.582583 0.394752
vt 0.582532 0.423238
vt 0.584828 0.422935
vt 0.582583 0.394752
vt 0.580231 0.422909
vt 0.582532 0.423238
vt 0.582583 0.394752
vt 0.577903 0.421995
vt 0.580231 0.422909
vt 0.582583 0.394752
vt 0.575842 0.420685
vt 0.577903 0.421995
vt 0.582583 0.394752
vt 0.574414 0.419356
vt 0.575842 0.420685
vt 0.582583 0.394752
vt 0.57372 0.418292
vt 0.574414 0.419356
vt 0.582583 0.394752
vt 0.574732 0.370245
vt 0.574071 0.371203
vt 0.582583 0.394752
vt 0.576141 0.368966
vt 0.574732 0.370245
vt 0.582583 0.394752
vt 0.578154 0.367693
vt 0.576141 0.368966
vt 0.582583 0.394752
vt 0.580389 0.36681
vt 0.578154 0.367693
vt 0.582583 0.394752
vt 0.58256 0.366505
vt 0.580389 0.36681
vt 0.582583 0.394752
vt 0.584729 0.366815
vt 0.58256 0.366505
vt 0.582583 0.394752
vt 0.572997 0.402236
vt 0.572996 0.409029
vt 0.582583 0.394752
vt 0.5733 0.416805
vt 0.57372 0.418292
vt 0.582583 0.394752
vt 0.59173 0.375366
vt 0.591457 0.372594
vt 0.582583 0.394752
vt 0.59187 0.380097
vt 0.59173 0.375366
vt 0.582583 0.394752
vt 0.59198 0.386811
vt 0.59187 0.380097
vt 0.582583 0.394752
vt 0.591457 0.372594
vt 0.591051 0.37126
vt 0.582583 0.394752
vt 0.591051 0.37126
vt 0.590384 0.370282
vt 0.582583 0.394752
vt 0.590384 0.370282
vt 0.588973 0.368986
vt 0.582583 0.394752
vt 0.586962 0.367702
vt 0.584729 0.366815
vt 0.582583 0.394752
vt 0.588973 0.368986
vt 0.586962 0.367702
vt 0.582583 0.394752
vt 0.590628 0.419453
vt 0.591315 0.418409
vt 0.582583 0.394752
vt 0.589205 0.420762
vt 0.590628 0.419453
vt 0.582583 0.394752
vt 0.587149 0.422048
vt 0.589205 0.420762
vt 0.582583 0.394752
vt 0.584828 0.422935
vt 0.587149 0.422048
vt 0.582583 0.394752
vt 0.574071 0.371203
vt 0.573668 0.372512
vt 0.582583 0.394752
vt 0.573668 0.372512
vt 0.573394 0.375252
vt 0.582583 0.394752
vt 0.573394 0.375252
vt 0.573251 0.379958
vt 0.582583 0.394752
vt 0.573251 0.379958
vt 0.573134 0.386662
vt 0.582583 0.394752
vt 0.573134 0.386662
vt 0.573043 0.394435
vt 0.582583 0.394752
vt 0.573043 0.394435
vt 0.572997 0.402236
vt 0.582583 0.394752
vt 0.591315 0.418409
vt 0.591734 0.416935
vt 0.582583 0.394752
vt 0.591734 0.416935
vt 0.591981 0.414008
vt 0.582583 0.394752
vt 0.591981 0.414008
vt 0.592058 0.409149
vt 0.582583 0.394752
vt 0.592058 0.409149
vt 0.59208 0.402359
vt 0.582583 0.394752
vt 0.59208 0.402359
vt 0.592057 0.394573
vt 0.582583 0.394752
vt 0.592057 0.394573
vt 0.59198 0.386811
vt 0.59198 0.386811
vt 0.592057 0.394573
vt 0.593708 0.394562
vt 0.593635 0.386792
vt 0.59187 0.380097
vt 0.59198 0.386811
vt 0.593635 0.386792
vt 0.593524 0.38006
vt 0.595041 0.386775
vt 0.594932 0.380025
vt 0.593524 0.38006
vt 0.593635 0.386792
vt 0.59511 0.394554
vt 0.595041 0.386775
vt 0.593635 0.386792
vt 0.593708 0.394562
vt 0.594932 0.380025
vt 0.594737 0.37514
vt 0.593354 0.375251
vt 0.593524 0.38006
vt 0.59173 0.375366
vt 0.59187 0.380097
vt 0.593524 0.38006
vt 0.593354 0.375251
vt 0.594737 0.37514
vt 0.594339 0.371976
vt 0.593018 0.372268
vt 0.593354 0.375251
vt 0.591457 0.372594
vt 0.59173 0.375366
vt 0.593354 0.375251
vt 0.593018 0.372268
vt 0.594339 0.371976
vt 0.593695 0.369974
vt 0.592485 0.370565
vt 0.593018 0.372268
vt 0.591051 0.37126
vt 0.591457 0.372594
vt 0.593018 0.372268
vt 0.592485 0.370565
vt 0.593695 0.369974
vt 0.592607 0.368367
vt 0.591585 0.369242
vt 0.592485 0.370565
vt 0.590384 0.370282
vt 0.591051 0.37126
vt 0.592485 0.370565
vt 0.591585 0.369242
vt 0.589948 0.367724
vt 0.591585 0.369242
vt 0.592607 0.368367
vt 0.590781 0.36665
vt 0.588973 0.368986
vt 0.590384 0.370282
vt 0.591585 0.369242
vt 0.589948 0.367724
vt 0.586962 0.367702
vt 0.588973 0.368986
vt 0.589948 0.367724
vt 0.587693 0.366275
vt 0.587693 0.366275
vt 0.589948 0.367724
vt 0.590781 0.36665
vt 0.588314 0.365052
vt 0.588314 0.365052
vt 0.590781 0.36665
vt 0.591637 0.36555
vt 0.588935 0.3638
vt 0.590781 0.36665
vt 0.592607 0.368367
vt 0.593654 0.367493
vt 0.591637 0.36555
vt 0.58514 0.365263
vt 0.587693 0.366275
vt 0.588314 0.365052
vt 0.585482 0.363938
vt 0.585482 0.363938
vt 0.588314 0.365052
vt 0.588935 0.3638
vt 0.585811 0.362585
vt 0.582561 0.364898
vt 0.58514 0.365263
vt 0.585482 0.363938
vt 0.582558 0.363528
vt 0.582558 0.363528
vt 0.585482 0.363938
vt 0.585811 0.362585
vt 0.582534 0.362142
vt 0.57998 0.365258
vt 0.582561 0.364898
vt 0.582558 0.363528
vt 0.57963 0.363931
vt 0.57963 0.363931
vt 0.582558 0.363528
vt 0.582534 0.362142
vt 0.579266 0.362585
vt 0.577428 0.366268
vt 0.57998 0.365258
vt 0.57963 0.363931
vt 0.576804 0.36505
vt 0.576804 0.36505
vt 0.57963 0.363931
vt 0.579266 0.362585
vt 0.576154 0.363805
vt 0.575175 0.367704
vt 0.577428 0.366268
vt 0.576804 0.36505
vt 0.574339 0.36663
vt 0.574339 0.36663
vt 0.576804 0.36505
vt 0.576154 0.363805
vt 0.573464 0.365547
vt 0.573542 0.369206
vt 0.575175 0.367704
vt 0.574339 0.36663
vt 0.572521 0.368335
vt 0.572521 0.368335
vt 0.574339 0.36663
vt 0.573464 0.365547
vt 0.571467 0.367472
vt 0.572521 0.368335
vt 0.57144 0.369916
vt 0.572649 0.370507
vt 0.573542 0.369206
vt 0.571467 0.367472
vt 0.570226 0.369324
vt 0.57144 0.369916
vt 0.572521 0.368335
vt 0.570226 0.369324
vt 0.569473 0.37157
vt 0.570802 0.37189
vt 0.57144 0.369916
vt 0.57144 0.369916
vt 0.570802 0.37189
vt 0.572119 0.372184
vt 0.572649 0.370507
vt 0.569473 0.37157
vt 0.568999 0.374891
vt 0.570399 0.37502
vt 0.570802 0.37189
vt 0.570802 0.37189
vt 0.570399 0.37502
vt 0.571781 0.375135
vt 0.572119 0.372184
vt 0.568999 0.374891
vt 0.568769 0.379837
vt 0.57019 0.379878
vt 0.570399 0.37502
vt 0.570399 0.37502
vt 0.57019 0.379878
vt 0.571602 0.379917
vt 0.571781 0.375135
vt 0.568769 0.379837
vt 0.568648 0.386602
vt 0.570065 0.38662
vt 0.57019 0.379878
vt 0.57019 0.379878
vt 0.570065 0.38662
vt 0.571479 0.38664
vt 0.571602 0.379917
vt 0.568648 0.386602
vt 0.568564 0.394397
vt 0.569977 0.394408
vt 0.570065 0.38662
vt 0.570065 0.38662
vt 0.569977 0.394408
vt 0.57139 0.39442
vt 0.571479 0.38664
vt 0.568564 0.394397
vt 0.568514 0.402221
vt 0.56993 0.402225
vt 0.569977 0.394408
vt 0.569977 0.394408
vt 0.56993 0.402225
vt 0.571343 0.40223
vt 0.57139 0.39442
vt 0.568514 0.402221
vt 0.568519 0.409072
vt 0.569937 0.409055
vt 0.56993 0.402225
vt 0.56993 0.402225
vt 0.569937 0.409055
vt 0.571348 0.409041
vt 0.571343 0.40223
vt 0.572997 0.402236
vt 0.573043 0.394435
vt 0.57139 0.39442
vt 0.571343 0.40223
vt 0.572996 0.409029
vt 0.572997 0.402236
vt 0.571343 0.40223
vt 0.571348 0.409041
vt 0.573043 0.394435
vt 0.573134 0.386662
vt 0.571479 0.38664
vt 0.57139 0.39442
vt 0.573134 0.386662
vt 0.573251 0.379958
vt 0.571602 0.379917
vt 0.571479 0.38664
vt 0.573251 0.379958
vt 0.573394 0.375252
vt 0.571781 0.375135
vt 0.571602 0.379917
vt 0.573394 0.375252
vt 0.573668 0.372512
vt 0.572119 0.372184
vt 0.571781 0.375135
vt 0.573668 0.372512
vt 0.574071 0.371203
vt 0.572649 0.370507
vt 0.572119 0.372184
vt 0.574071 0.371203
vt 0.574732 0.370245
vt 0.573542 0.369206
vt 0.572649 0.370507
vt 0.574732 0.370245
vt 0.576141 0.368966
vt 0.575175 0.367704
vt 0.573542 0.369206
vt 0.576141 0.368966
vt 0.578154 0.367693
vt 0.577428 0.366268
vt 0.575175 0.367704
vt 0.578154 0.367693
vt 0.580389 0.36681
vt 0.57998 0.365258
vt 0.577428 0.366268
vt 0.580389 0.36681
vt 0.58256 0.366505
vt 0.582561 0.364898
vt 0.57998 0.365258
vt 0.58256 0.366505
vt 0.584729 0.366815
vt 0.58514 0.365263
vt 0.582561 0.364898
vt 0.584729 0.366815
vt 0.586962 0.367702
vt 0.587693 0.366275
vt 0.58514 0.365263
vt 0.5949 0.36938
vt 0.593654 0.367493
vt 0.592607 0.368367
vt 0.593695 0.369974
vt 0.595668 0.371659
vt 0.5949 0.36938
vt 0.593695 0.369974
vt 0.594339 0.371976
vt 0.596131 0.375018
vt 0.595668 0.371659
vt 0.594339 0.371976
vt 0.594737 0.37514
vt 0.59634 0.37999
vt 0.596131 0.375018
vt 0.594737 0.37514
vt 0.594932 0.380025
vt 0.59644 0.386761
vt 0.59634 0.37999
vt 0.594932 0.380025
vt 0.595041 0.386775
vt 0.595138 0.402356
vt 0.59511 0.394554
vt 0.593708 0.394562
vt 0.593734 0.402357
vt 0.592057 0.394573
vt 0.59208 0.402359
vt 0.593734 0.402357
vt 0.593708 0.394562
vt 0.595118 0.409181
vt 0.595138 0.402356
vt 0.593734 0.402357
vt 0.593712 0.409165
vt 0.59208 0.402359
vt 0.592058 0.409149
vt 0.593712 0.409165
vt 0.593734 0.402357
vt 0.594991 0.41419
vt 0.595118 0.409181
vt 0.593712 0.409165
vt 0.593606 0.414099
vt 0.592058 0.409149
vt 0.591981 0.414008
vt 0.593606 0.414099
vt 0.593712 0.409165
vt 0.594625 0.417508
vt 0.594991 0.41419
vt 0.593606 0.414099
vt 0.5933 0.417236
vt 0.591981 0.414008
vt 0.591734 0.416935
vt 0.5933 0.417236
vt 0.593606 0.414099
vt 0.593976 0.41965
vt 0.594625 0.417508
vt 0.5933 0.417236
vt 0.592758 0.419078
vt 0.591734 0.416935
vt 0.591315 0.418409
vt 0.592758 0.419078
vt 0.5933 0.417236
vt 0.592864 0.421346
vt 0.593976 0.41965
vt 0.592758 0.419078
vt 0.591837 0.42048
vt 0.591315 0.418409
vt 0.590628 0.419453
vt 0.591837 0.42048
vt 0.592758 0.419078
vt 0.591837 0.42048
vt 0.590174 0.422026
vt 0.591001 0.423102
vt 0.592864 0.421346
vt 0.590628 0.419453
vt 0.589205 0.420762
vt 0.590174 0.422026
vt 0.591837 0.42048
vt 0.590174 0.422026
vt 0.587865 0.423482
vt 0.588472 0.424712
vt 0.591001 0.423102
vt 0.589205 0.420762
vt 0.587149 0.422048
vt 0.587865 0.423482
vt 0.590174 0.422026
vt 0.587865 0.423482
vt 0.585222 0.424491
vt 0.585549 0.425822
vt 0.588472 0.424712
vt 0.587149 0.422048
vt 0.584828 0.422935
vt 0.585222 0.424491
vt 0.587865 0.423482
vt 0.585222 0.424491
vt 0.582523 0.424845
vt 0.58251 0.426216
vt 0.585549 0.425822
vt 0.584828 0.422935
vt 0.582532 0.423238
vt 0.582523 0.424845
vt 0.585222 0.424491
vt 0.582523 0.424845
vt 0.579821 0.424459
vt 0.579471 0.425785
vt 0.58251 0.426216
vt 0.582532 0.423238
vt 0.580231 0.422909
vt 0.579821 0.424459
vt 0.582523 0.424845
vt 0.579821 0.424459
vt 0.577177 0.42342
vt 0.57655 0.424637
vt 0.579471 0.425785
vt 0.580231 0.422909
vt 0.577903 0.421995
vt 0.577177 0.42342
vt 0.579821 0.424459
vt 0.577903 0.421995
vt 0.575842 0.420685
vt 0.574866 0.42194
vt 0.577177 0.42342
vt 0.58251 0.426216
vt 0.579471 0.425785
vt 0.579096 0.427131
vt 0.582476 0.427606
vt 0.585549 0.425822
vt 0.58251 0.426216
vt 0.582476 0.427606
vt 0.585863 0.427182
vt 0.588472 0.424712
vt 0.585549 0.425822
vt 0.585863 0.427182
vt 0.58908 0.425971
vt 0.591001 0.423102
vt 0.588472 0.424712
vt 0.58908 0.425971
vt 0.591851 0.424205
vt 0.592864 0.421346
vt 0.591001 0.423102
vt 0.591851 0.424205
vt 0.593915 0.422213
vt 0.593915 0.422213
vt 0.59519 0.420229
vt 0.593976 0.41965
vt 0.592864 0.421346
vt 0.59519 0.420229
vt 0.595959 0.417806
vt 0.594625 0.417508
vt 0.593976 0.41965
vt 0.595959 0.417806
vt 0.596384 0.414293
vt 0.594991 0.41419
vt 0.594625 0.417508
vt 0.596384 0.414293
vt 0.596522 0.409201
vt 0.595118 0.409181
vt 0.594991 0.41419
vt 0.596522 0.409201
vt 0.596536 0.402356
vt 0.595138 0.402356
vt 0.595118 0.409181
vt 0.596536 0.402356
vt 0.596505 0.394547
vt 0.59511 0.394554
vt 0.595138 0.402356
vt 0.596505 0.394547
vt 0.59644 0.386761
vt 0.595041 0.386775
vt 0.59511 0.394554
vt 0.57372 0.418292
vt 0.5733 0.416805
vt 0.571744 0.417102
vt 0.572283 0.418953
vt 0.574414 0.419356
vt 0.57372 0.418292
vt 0.572283 0.418953
vt 0.573204 0.420371
vt 0.575842 0.420685
vt 0.574414 0.419356
vt 0.573204 0.420371
vt 0.574866 0.42194
s off
f 1/1/1 2/2/2 3/3/3
f 1/1/1 3/3/3 4/4/4
f 5/5/5 6/6/6 7/7/7
f 5/5/5 7/7/7 8/8/8
f 9/9/9 10/10/10 11/11/11
f 9/9/9 11/11/11 12/12/12
f 13/13/13 14/14/14 15/15/15
f 13/13/13 15/15/15 16/16/16
f 17/17/17 18/18/18 19/19/19
f 17/17/17 19/19/19 20/20/20
f 21/21/21 22/22/22 23/23/23
f 21/21/21 23/23/23 24/24/24
f 25/25/25 26/26/26 27/27/27
f 25/25/25 27/27/27 28/28/28
f 29/29/29 30/30/30 31/31/31
f 29/29/29 31/31/31 32/32/32
f 33/33/33 34/34/34 35/35/35
f 33/33/33 35/35/35 36/36/36
f 37/37/37 38/38/38 39/39/39
f 37/37/37 39/39/39 40/40/40
f 41/41/41 42/42/42 43/43/43
f 41/41/41 43/43/43 44/44/44
f 45/45/45 46/46/46 47/47/47
f 45/45/45 47/47/47 48/48/48
f 49/49/49 50/50/50 51/51/51
f 49/49/49 51/51/51 52/52/52
f 53/53/53 54/54/54 55/55/55
f 53/53/53 55/55/55 56/56/56
f 57/57/57 58/58/58 59/59/59
f 57/57/57 59/59/59 60/60/60
f 61/61/61 62/62/62 63/63/63
f 61/61/61 63/63/63 64/64/64
f 65/65/65 66/66/66 67/67/67
f 65/65/65 67/67/67 68/68/68
f 69/69/69 70/70/70 71/71/71
f 69/69/69 71/71/71 72/72/72
f 73/73/73 74/74/74 75/75/75
f 73/73/73 75/75/75 76/76/76
f 77/77/77 78/78/78 79/79/79
f 77/77/77 79/79/79 80/80/80
f 81/81/81 82/82/82 83/83/83
f 81/81/81 83/83/83 84/84/84
f 85/85/85 86/86/86 87/87/87
f 85/85/85 87/87/87 88/88/88
f 89/89/89 90/90/90 91/91/91
f 89/89/89 91/91/91 92/92/92
f 93/93/93 94/94/94 95/95/95
f 93/93/93 95/95/95 96/96/96
f 97/97/97 98/98/98 99/99/99
f 97/97/97 99/99/99 100/100/100
f 101/101/101 102/102/102 103/103/103
f 101/101/101 103/103/103 104/104/104
f 105/105/105 106/106/106 107/107/107
f 105/105/105 107/107/107 108/108/108
f 109/109/109 110/110/110 111/111/111
f 109/109/109 111/111/111 112/112/112
f 113/113/113 114/114/114 115/115/115
f 113/113/113 115/115/115 116/116/116
f 117/117/117 118/118/118 119/119/119
f 117/117/117 119/119/119 120/120/120
f 121/121/121 122/122/122 123/123/123
f 121/121/121 123/123/123 124/124/124
f 125/125/125 126/126/126 127/127/127
f 125/125/125 127/127/127 128/128/128
f 129/129/129 130/130/130 131/131/131
f 129/129/129 131/131/131 132/132/132
f 133/133/133 134/134/134 135/135/135
f 133/133/133 135/135/135 136/136/136
f 137/137/137 138/138/138 139/139/139
f 137/137/137 139/139/139 140/140/140
f 141/141/141 142/142/142 143/143/143
f 141/141/141 143/143/143 144/144/144
f 145/145/145 146/146/146 147/147/147
f 145/145/145 147/147/147 148/148/148
f 149/149/149 150/150/150 151/151/151
f 149/149/149 151/151/151 152/152/152
f 153/153/153 154/154/154 155/155/155
f 153/153/153 155/155/155 156/156/156
f 157/157/157 158/158/158 159/159/159
f 157/157/157 159/159/159 160/160/160
f 161/161/161 162/162/162 163/163/163
f 161/161/161 163/163/163 164/164/164
f 165/165/165 166/166/166 167/167/167
f 165/165/165 167/167/167 168/168/168
f 169/169/169 170/170/170 171/171/171
f 169/169/169 171/171/171 172/172/172
f 173/173/173 174/174/174 175/175/175
f 173/173/173 175/175/175 176/176/176
f 177/177/177 178/178/178 179/179/179
f 177/177/177 179/179/179 180/180/180
f 181/181/181 182/182/182 183/183/183
f 181/181/181 183/183/183 184/184/184
f 185/185/185 186/186/186 187/187/187
f 185/185/185 187/187/187 188/188/188
f 189/189/189 190/190/190 191/191/191
f 189/189/189 191/191/191 192/192/192
f 193/193/193 194/194/194 195/195/195
f 193/193/193 195/195/195 196/196/196
f 197/197/197 198/198/198 199/199/199
f 197/197/197 199/199/199 200/200/200
f 201/201/201 202/202/202 203/203/203
f 201/201/201 203/203/203 204/204/204
f 205/205/205 206/206/206 207/207/207
f 205/205/205 207/207/207 208/208/208
f 209/209/209 210/210/210 211/211/211
f 209/209/209 211/211/211 212/212/212
f 213/213/213 214/214/214 215/215/215
f 213/213/213 215/215/215 216/216/216
f 217/217/217 218/218/218 219/219/219
f 217/217/217 219/219/219 220/220/220
f 221/221/221 222/222/222 223/223/223
f 221/221/221 223/223/223 224/224/224
f 225/225/225 226/226/226 227/227/227
f 225/225/225 227/227/227 228/228/228
f 229/229/229 230/230/230 231/231/231
f 229/229/229 231/231/231 232/232/232
f 233/233/233 234/234/234 235/235/235
f 233/233/233 235/235/235 236/236/236
f 237/237/237 238/238/238 239/239/239
f 237/237/237 239/239/239 240/240/240
f 241/241/241 242/242/242 243/243/243
f 241/241/241 243/243/243 244/244/244
f 245/245/245 246/246/246 247/247/247
f 245/245/245 247/247/247 248/248/248
f 249/249/249 250/250/250 251/251/251
f 249/249/249 251/251/251 252/252/252
f 253/253/253 254/254/254 255/255/255
f 253/253/253 255/255/255 256/256/256
f 257/257/257 258/258/258 259/259/259
f 257/257/257 259/259/259 260/260/260
f 261/261/261 262/262/262 263/263/263
f 261/261/261 263/263/263 264/264/264
f 265/265/265 266/266/266 267/267/267
f 265/265/265 267/267/267 268/268/268
f 269/269/269 270/270/270 271/271/271
f 269/269/269 271/271/271 272/272/272
f 273/273/273 274/274/274 275/275/275
f 273/273/273 275/275/275 276/276/276
f 277/277/277 278/278/278 279/279/279
f 277/277/277 279/279/279 280/280/280
f 281/281/281 282/282/282 283/283/283
f 281/281/281 283/283/283 284/284/284
f 285/285/285 286/286/286 287/287/287
f 285/285/285 287/287/287 288/288/288
f 289/289/289 290/290/290 291/291/291
f 289/289/289 291/291/291 292/292/292
f 293/293/293 294/294/294 295/295/295
f 293/293/293 295/295/295 296/296/296
f 297/297/297 298/298/298 299/299/299
f 297/297/297 299/299/299 300/300/300
f 301/301/301 302/302/302 303/303/303
f 301/301/301 303/303/303 304/304/304
f 305/305/305 306/306/306 307/307/307
f 305/305/305 307/307/307 308/308/308
f 309/309/309 310/310/310 311/311/311
f 309/309/309 311/311/311 312/312/312
f 313/313/313 314/314/314 315/315/315
f 313/313/313 315/315/315 316/316/316
f 317/317/317 318/318/318 319/319/319
f 317/317/317 319/319/319 320/320/320
f 321/321/321 322/322/322 323/323/323
f 321/321/321 323/323/323 324/324/324
f 325/325/325 326/326/326 327/327/327
f 325/325/325 327/327/327 328/328/328
f 329/329/329 330/330/330 331/331/331
f 329/329/329 331/331/331 332/332/332
f 333/333/333 334/334/334 335/335/335
f 333/333/333 335/335/335 336/336/336
f 337/337/337 338/338/338 339/339/339
f 337/337/337 339/339/339 340/340/340
f 341/341/341 342/342/342 343/343/343
f 341/341/341 343/343/343 344/344/344
f 345/345/345 346/346/346 347/347/347
f 345/345/345 347/347/347 348/348/348
f 349/349/349 350/350/350 351/351/351
f 349/349/349 351/351/351 352/352/352
f 353/353/353 354/354/354 355/355/355
f 353/353/353 355/355/355 356/356/356
f 357/357/357 358/358/358 359/359/359
f 357/357/357 359/359/359 360/360/360
f 361/361/361 362/362/362 363/363/363
f 361/361/361 363/363/363 364/364/364
f 365/365/365 366/366/366 367/367/367
f 365/365/365 367/367/367 368/368/368
f 369/369/369 370/370/370 371/371/371
f 369/369/369 371/371/371 372/372/372
f 373/373/373 374/374/374 375/375/375
f 373/373/373 375/375/375 376/376/376
f 377/377/377 378/378/378 379/379/379
f 377/377/377 379/379/379 380/380/380
f 381/381/381 382/382/382 383/383/383
f 384/384/384 385/385/385 386/386/386
f 387/387/387 388/388/388 389/389/389
f 390/390/390 391/391/391 392/392/392
f 393/393/393 394/394/394 395/395/395
f 396/396/396 397/397/397 398/398/398
f 399/399/399 400/400/400 401/401/401
f 402/402/402 403/403/403 404/404/404
f 405/405/405 406/406/406 407/407/407
f 408/408/408 409/409/409 410/410/410
f 411/411/411 412/412/412 413/413/413
f 414/414/414 415/415/415 416/416/416
f 417/417/417 418/418/418 419/419/419
f 420/420/420 421/421/421 422/422/422
f 423/423/423 424/424/424 425/425/425
f 426/426/426 427/427/427 428/428/428
f 429/429/429 430/430/430 431/431/431
f 432/432/432 433/433/433 434/434/434
f 435/435/435 436/436/436 437/437/437
f 438/438/438 439/439/439 440/440/440
f 441/441/441 442/442/442 443/443/443
f 444/444/444 445/445/445 446/446/446
f 447/447/447 448/448/448 449/449/449
f 450/450/450 451/451/451 452/452/452
f 453/453/453 454/454/454 455/455/455
f 456/456/456 457/457/457 458/458/458
f 459/459/459 460/460/460 461/461/461
f 462/462/462 463/463/463 464/464/464
f 465/465/465 466/466/466 467/467/467
f 468/468/468 469/469/469 470/470/470
f 471/471/471 472/472/472 473/473/473
f 474/474/474 475/475/475 476/476/476
f 477/477/477 478/478/478 479/479/479
f 480/480/480 481/481/481 482/482/482
f 483/483/483 484/484/484 485/485/485
f 486/486/486 487/487/487 488/488/488
f 489/489/489 490/490/490 491/491/491
f 492/492/492 493/493/493 494/494/494
f 495/495/495 496/496/496 497/497/497
f 498/498/498 499/499/499 500/500/500
f 501/501/501 502/502/502 503/503/503
f 501/501/501 503/503/503 504/504/504
f 505/505/505 506/506/506 507/507/507
f 505/505/505 507/507/507 508/508/508
f 509/509/509 510/510/510 511/511/511
f 509/509/509 511/511/511 512/512/512
f 513/513/513 514/514/514 515/515/515
f 513/513/513 515/515/515 516/516/516
f 517/517/517 518/518/518 519/519/519
f 517/517/517 519/519/519 520/520/520
f 521/521/521 522/522/522 523/523/523
f 521/521/521 523/523/523 524/524/524
f 525/525/525 526/526/526 527/527/527
f 525/525/525 527/527/527 528/528/528
f 529/529/529 530/530/530 531/531/531
f 529/529/529 531/531/531 532/532/532
f 533/533/533 534/534/534 535/535/535
f 533/533/533 535/535/535 536/536/536
f 537/537/537 538/538/538 539/539/539
f 537/537/537 539/539/539 540/540/540
f 541/541/541 542/542/542 543/543/543
f 541/541/541 543/543/543 544/544/544
f 545/545/545 546/546/546 547/547/547
f 545/545/545 547/547/547 548/548/548
f 549/549/549 550/550/550 551/551/551
f 549/549/549 551/551/551 552/552/552
f 553/553/553 554/554/554 555/555/555
f 553/553/553 555/555/555 556/556/556
f 557/557/557 558/558/558 559/559/559
f 557/557/557 559/559/559 560/560/560
f 561/561/561 562/562/562 563/563/563
f 561/561/561 563/563/563 564/564/564
f 565/565/565 566/566/566 567/567/567
f 565/565/565 567/567/567 568/568/568
f 569/569/569 570/570/570 571/571/571
f 569/569/569 571/571/571 572/572/572
f 573/573/573 574/574/574 575/575/575
f 573/573/573 575/575/575 576/576/576
f 577/577/577 578/578/578 579/579/579
f 577/577/577 579/579/579 580/580/580
f 581/581/581 582/582/582 583/583/583
f 581/581/581 583/583/583 584/584/584
f 585/585/585 586/586/586 587/587/587
f 585/585/585 587/587/587 588/588/588
f 589/589/589 590/590/590 591/591/591
f 589/589/589 591/591/591 592/592/592
f 593/593/593 594/594/594 595/595/595
f 593/593/593 595/595/595 596/596/596
f 597/597/597 598/598/598 599/599/599
f 597/597/597 599/599/599 600/600/600
f 601/601/601 602/602/602 603/603/603
f 601/601/601 603/603/603 604/604/604
f 605/605/605 606/606/606 607/607/607
f 605/605/605 607/607/607 608/608/608
f 609/609/609 610/610/610 611/611/611
f 609/609/609 611/611/611 612/612/612
f 613/613/613 614/614/614 615/615/615
f 613/613/613 615/615/615 616/616/616
f 617/617/617 618/618/618 619/619/619
f 617/617/617 619/619/619 620/620/620
f 621/621/621 622/622/622 623/623/623
f 621/621/621 623/623/623 624/624/624
f 625/625/625 626/626/626 627/627/627
f 625/625/625 627/627/627 628/628/628
f 629/629/629 630/630/630 631/631/631
f 629/629/629 631/631/631 632/632/632
f 633/633/633 634/634/634 635/635/635
f 633/633/633 635/635/635 636/636/636
f 637/637/637 638/638/638 639/639/639
f 637/637/637 639/639/639 640/640/640
f 641/641/641 642/642/642 643/643/643
f 641/641/641 643/643/643 644/644/644
f 645/645/645 646/646/646 647/647/647
f 645/645/645 647/647/647 648/648/648
f 649/649/649 650/650/650 651/651/651
f 649/649/649 651/651/651 652/652/652
f 653/653/653 654/654/654 655/655/655
f 653/653/653 655/655/655 656/656/656
f 657/657/657 658/658/658 659/659/659
f 657/657/657 659/659/659 660/660/660
f 661/661/661 662/662/662 663/663/663
f 661/661/661 663/663/663 664/664/664
f 665/665/665 666/666/666 667/667/667
f 665/665/665 667/667/667 668/668/668
f 669/669/669 670/670/670 671/671/671
f 669/669/669 671/671/671 672/672/672
f 673/673/673 674/674/674 675/675/675
f 673/673/673 675/675/675 676/676/676
f 677/677/677 678/678/678 679/679/679
f 677/677/677 679/679/679 680/680/680
f 681/681/681 682/682/682 683/683/683
f 681/681/681 683/683/683 684/684/684
f 685/685/685 686/686/686 687/687/687
f 685/685/685 687/687/687 688/688/688
f 689/689/689 690/690/690 691/691/691
f 689/689/689 691/691/691 692/692/692
f 693/693/693 694/694/694 695/695/695
f 693/693/693 695/695/695 696/696/696
f 697/697/697 698/698/698 699/699/699
f 697/697/697 699/699/699 700/700/700
f 701/701/701 702/702/702 703/703/703
f 701/701/701 703/703/703 704/704/704
f 705/705/705 706/706/706 707/707/707
f 705/705/705 707/707/707 708/708/708
f 709/709/709 710/710/710 711/711/711
f 709/709/709 711/711/711 712/712/712
f 713/713/713 714/714/714 715/715/715
f 713/713/713 715/715/715 716/716/716
f 717/717/717 718/718/718 719/719/719
f 717/717/717 719/719/719 720/720/720
f 721/721/721 722/722/722 723/723/723
f 721/721/721 723/723/723 724/724/724
f 725/725/725 726/726/726 727/727/727
f 725/725/725 727/727/727 728/728/728
f 729/729/729 730/730/730 731/731/731
f 729/729/729 731/731/731 732/732/732
f 733/733/733 734/734/734 735/735/735
f 733/733/733 735/735/735 736/736/736
f 737/737/737 738/738/738 739/739/739
f 737/737/737 739/739/739 740/740/740
f 741/741/741 742/742/742 743/743/743
f 741/741/741 743/743/743 744/744/744
f 745/745/745 746/746/746 747/747/747
f 745/745/745 747/747/747 748/748/748
f 749/749/749 750/750/750 751/751/751
f 749/749/749 751/751/751 752/752/752
f 753/753/753 754/754/754 755/755/755
f 753/753/753 755/755/755 756/756/756
f 757/757/757 758/758/758 759/759/759
f 757/757/757 759/759/759 760/760/760
f 761/761/761 762/762/762 763/763/763
f 761/761/761 763/763/763 764/764/764
f 765/765/765 766/766/766 767/767/767
f 765/765/765 767/767/767 768/768/768
f 769/769/769 770/770/770 771/771/771
f 769/769/769 771/771/771 772/772/772
f 773/773/773 774/774/774 775/775/775
f 773/773/773 775/775/775 776/776/776
f 777/777/777 778/778/778 779/779/779
f 777/777/777 779/779/779 780/780/780
f 781/781/781 782/782/782 783/783/783
f 781/781/781 783/783/783 784/784/784
f 785/785/785 786/786/786 787/787/787
f 785/785/785 787/787/787 788/788/788
f 789/789/789 790/790/790 791/791/791
f 789/789/789 791/791/791 792/792/792
f 793/793/793 794/794/794 795/795/795
f 793/793/793 795/795/795 796/796/796
f 797/797/797 798/798/798 799/799/799
f 797/797/797 799/799/799 800/800/800
f 801/801/801 802/802/802 803/803/803
f 801/801/801 803/803/803 804/804/804
f 805/805/805 806/806/806 807/807/807
f 805/805/805 807/807/807 808/808/808
f 809/809/809 810/810/810 811/811/811
f 809/809/809 811/811/811 812/812/812
f 813/813/813 814/814/814 815/815/815
f 813/813/813 815/815/815 816/816/816
f 817/817/817 818/818/818 819/819/819
f 817/817/817 819/819/819 820/820/820
f 821/821/821 822/822/822 823/823/823
f 821/821/821 823/823/823 824/824/824
f 825/825/825 826/826/826 827/827/827
f 825/825/825 827/827/827 828/828/828
f 829/829/829 830/830/830 831/831/831
f 829/829/829 831/831/831 832/832/832
f 833/833/833 834/834/834 835/835/835
f 833/833/833 835/835/835 836/836/836
f 837/837/837 838/838/838 839/839/839
f 837/837/837 839/839/839 840/840/840
f 841/841/841 842/842/842 843/843/843
f 841/841/841 843/843/843 844/844/844
f 845/845/845 846/846/846 847/847/847
f 845/845/845 847/847/847 848/848/848
f 849/849/849 850/850/850 851/851/851
f 849/849/849 851/851/851 852/852/852
f 853/853/853 854/854/854 855/855/855
f 853/853/853 855/855/855 856/856/856
f 857/857/857 858/858/858 859/859/859
f 857/857/857 859/859/859 860/860/860
f 861/861/861 862/862/862 863/863/863
f 861/861/861 863/863/863 864/864/864
f 865/865/865 866/866/866 867/867/867
f 865/865/865 867/867/867 868/868/868
f 869/869/869 870/870/870 871/871/871
f 869/869/869 871/871/871 872/872/872
f 873/873/873 874/874/874 875/875/875
f 873/873/873 875/875/875 876/876/876
f 877/877/877 878/878/878 879/879/879
f 877/877/877 879/879/879 880/880/880
f 881/881/881 882/882/882 883/883/883
f 881/881/881 883/883/883 884/884/884
f 885/885/885 886/886/886 887/887/887
f 885/885/885 887/887/887 888/888/888
f 889/889/889 890/890/890 891/891/891
f 889/889/889 891/891/891 892/892/892
f 893/893/893 894/894/894 895/895/895
f 893/893/893 895/895/895 896/896/896
f 897/897/897 898/898/898 899/899/899
f 897/897/897 899/899/899 900/900/900
f 901/901/901 902/902/902 903/903/903
f 901/901/901 903/903/903 904/904/904
f 905/905/905 906/906/906 907/907/907
f 905/905/905 907/907/907 908/908/908
f 909/909/909 910/910/910 911/911/911
f 909/909/909 911/911/911 912/912/912
f 913/913/913 914/914/914 915/915/915
f 913/913/913 915/915/915 916/916/916
f 917/917/917 918/918/918 919/919/919
f 917/917/917 919/919/919 920/920/920
