v -0.980561 -0.423545 0.869698
v -0.974931 -0.426738 0.870652
v -0.974686 -0.427646 0.868375
v -0.980869 -0.424139 0.867327
v -0.985977 -0.41994 0.870387
v -0.980561 -0.423545 0.869698
v -0.980869 -0.424139 0.867327
v -0.986818 -0.420179 0.868084
v -0.981435 -0.425112 0.865946
v -0.987737 -0.420917 0.866748
v -0.986818 -0.420179 0.868084
v -0.980869 -0.424139 0.867327
v -0.974884 -0.428827 0.867056
v -0.981435 -0.425112 0.865946
v -0.980869 -0.424139 0.867327
v -0.974686 -0.427646 0.868375
v -0.992126 -0.416038 0.870595
v -0.986818 -0.420179 0.868084
v -0.987737 -0.420917 0.866748
v -0.99336 -0.41653 0.869407
v -0.99081 -0.416169 0.872673
v -0.985977 -0.41994 0.870387
v -0.986818 -0.420179 0.868084
v -0.992126 -0.416038 0.870595
v -0.99336 -0.41653 0.869407
v -0.987737 -0.420917 0.866748
v -0.988762 -0.422359 0.86679
v -0.994473 -0.417904 0.869491
v -0.982363 -0.426619 0.865976
v -0.988762 -0.422359 0.86679
v -0.987737 -0.420917 0.866748
v -0.981435 -0.425112 0.865946
v -0.994473 -0.417904 0.869491
v -0.988762 -0.422359 0.86679
v -0.990782 -0.425919 0.868656
v -0.996355 -0.42157 0.871292
v -0.988762 -0.422359 0.86679
v -0.982363 -0.426619 0.865976
v -0.984536 -0.430076 0.867862
v -0.990782 -0.425919 0.868656
v -0.996355 -0.42157 0.871292
v -0.990782 -0.425919 0.868656
v -0.992849 -0.430667 0.873307
v -0.997809 -0.426797 0.875653
v -0.990782 -0.425919 0.868656
v -0.984536 -0.430076 0.867862
v -0.98729 -0.434366 0.8726
v -0.992849 -0.430667 0.873307
v -0.982363 -0.426619 0.865976
v -0.975711 -0.430392 0.867104
v -0.978044 -0.433758 0.868962
v -0.984536 -0.430076 0.867862
v -0.984536 -0.430076 0.867862
v -0.978044 -0.433758 0.868962
v -0.981513 -0.437643 0.87358
v -0.98729 -0.434366 0.8726
v -0.98729 -0.434366 0.8726
v -0.981513 -0.437643 0.87358
v -0.984507 -0.439831 0.87949
v -0.989172 -0.437185 0.878699
v -0.992849 -0.430667 0.873307
v -0.98729 -0.434366 0.8726
v -0.989172 -0.437185 0.878699
v -0.993659 -0.434198 0.87927
v -0.989172 -0.437185 0.878699
v -0.984507 -0.439831 0.87949
v -0.986734 -0.440107 0.886116
v -0.989996 -0.438257 0.885563
v -0.993659 -0.434198 0.87927
v -0.989172 -0.437185 0.878699
v -0.989996 -0.438257 0.885563
v -0.993134 -0.436168 0.885962
v -0.997809 -0.426797 0.875653
v -0.992849 -0.430667 0.873307
v -0.993659 -0.434198 0.87927
v -0.997663 -0.431074 0.881164
v -0.997663 -0.431074 0.881164
v -0.993659 -0.434198 0.87927
v -0.993134 -0.436168 0.885962
v -0.995934 -0.433983 0.887287
v -0.995934 -0.433983 0.887287
v -0.993134 -0.436168 0.885962
v -0.991325 -0.436383 0.892727
v -0.992791 -0.43524 0.893421
v -0.993134 -0.436168 0.885962
v -0.989996 -0.438257 0.885563
v -0.989683 -0.437476 0.892518
v -0.991325 -0.436383 0.892727
v -0.988973 -0.436032 0.89996
v -0.992791 -0.43524 0.893421
v -0.991325 -0.436383 0.892727
v -0.988973 -0.436032 0.89996
v -0.991325 -0.436383 0.892727
v -0.989683 -0.437476 0.892518
v -0.988973 -0.436032 0.89996
v -0.989683 -0.437476 0.892518
v -0.987976 -0.438445 0.892808
v -0.988973 -0.436032 0.89996
v -0.987976 -0.438445 0.892808
v -0.98632 -0.439222 0.893576
v -0.988973 -0.436032 0.89996
v -0.98632 -0.439222 0.893576
v -0.984829 -0.439756 0.89477
v -0.988973 -0.436032 0.89996
v -0.984829 -0.439756 0.89477
v -0.983603 -0.440009 0.89631
v -0.988973 -0.436032 0.89996
v -0.983603 -0.440009 0.89631
v -0.982728 -0.439965 0.898089
v -0.988973 -0.436032 0.89996
v -0.982728 -0.439965 0.898089
v -0.982261 -0.439627 0.899987
v -0.988973 -0.436032 0.89996
v -0.982261 -0.439627 0.899987
v -0.982235 -0.439017 0.901875
v -0.988973 -0.436032 0.89996
v -0.982235 -0.439017 0.901875
v -0.982652 -0.438178 0.903623
v -0.988973 -0.436032 0.89996
v -0.982652 -0.438178 0.903623
v -0.983483 -0.437165 0.905113
v -0.988973 -0.436032 0.89996
v -0.983483 -0.437165 0.905113
v -0.984672 -0.43605 0.906243
v -0.988973 -0.436032 0.89996
v -0.984672 -0.43605 0.906243
v -0.986138 -0.434906 0.906936
v -0.988973 -0.436032 0.89996
v -0.986138 -0.434906 0.906936
v -0.98778 -0.433813 0.907145
v -0.988973 -0.436032 0.89996
v -0.98778 -0.433813 0.907145
v -0.989487 -0.432845 0.906856
v -0.988973 -0.436032 0.89996
v -0.989487 -0.432845 0.906856
v -0.991143 -0.432068 0.906088
v -0.988973 -0.436032 0.89996
v -0.991143 -0.432068 0.906088
v -0.992634 -0.431534 0.904894
v -0.988973 -0.436032 0.89996
v -0.992634 -0.431534 0.904894
v -0.993859 -0.43128 0.903354
v -0.988973 -0.436032 0.89996
v -0.993859 -0.43128 0.903354
v -0.994735 -0.431324 0.901575
v -0.988973 -0.436032 0.89996
v -0.994735 -0.431324 0.901575
v -0.995202 -0.431663 0.899677
v -0.988973 -0.436032 0.89996
v -0.995202 -0.431663 0.899677
v -0.995228 -0.432272 0.897789
v -0.988973 -0.436032 0.89996
v -0.995228 -0.432272 0.897789
v -0.994811 -0.433112 0.896041
v -0.988973 -0.436032 0.89996
v -0.994811 -0.433112 0.896041
v -0.993979 -0.434124 0.894551
v -0.988973 -0.436032 0.89996
v -0.993979 -0.434124 0.894551
v -0.992791 -0.43524 0.893421
v -0.998206 -0.431851 0.889446
v -0.995934 -0.433983 0.887287
v -0.992791 -0.43524 0.893421
v -0.993979 -0.434124 0.894551
v -0.999794 -0.429917 0.892293
v -0.998206 -0.431851 0.889446
v -0.993979 -0.434124 0.894551
v -0.994811 -0.433112 0.896041
v -1.00091 -0.428025 0.884252
v -0.997663 -0.431074 0.881164
v -0.995934 -0.433983 0.887287
v -0.998206 -0.431851 0.889446
v -1.00318 -0.425259 0.888324
v -1.00091 -0.428025 0.884252
v -0.998206 -0.431851 0.889446
v -0.999794 -0.429917 0.892293
v -1.00432 -0.422965 0.893101
v -1.00318 -0.425259 0.888324
v -0.999794 -0.429917 0.892293
v -1.00059 -0.428313 0.895634
v -1.00059 -0.428313 0.895634
v -0.999794 -0.429917 0.892293
v -0.994811 -0.433112 0.896041
v -0.995228 -0.432272 0.897789
v -1.00425 -0.421299 0.898259
v -1.00432 -0.422965 0.893101
v -1.00059 -0.428313 0.895634
v -1.00054 -0.427148 0.899241
v -1.00054 -0.427148 0.899241
v -1.00059 -0.428313 0.895634
v -0.995228 -0.432272 0.897789
v -0.995202 -0.431663 0.899677
v -1.00298 -0.420375 0.903445
v -1.00425 -0.421299 0.898259
v -1.00054 -0.427148 0.899241
v -0.99965 -0.426501 0.902868
v -0.99965 -0.426501 0.902868
v -1.00054 -0.427148 0.899241
v -0.995202 -0.431663 0.899677
v -0.994735 -0.431324 0.901575
v -1.00058 -0.420255 0.908307
v -1.00298 -0.420375 0.903445
v -0.99965 -0.426501 0.902868
v -0.997976 -0.426417 0.906268
v -0.997976 -0.426417 0.906268
v -0.99965 -0.426501 0.902868
v -0.994735 -0.431324 0.901575
v -0.993859 -0.43128 0.903354
v -0.997235 -0.420947 0.912514
v -1.00058 -0.420255 0.908307
v -0.997976 -0.426417 0.906268
v -0.995635 -0.426902 0.909209
v -0.995635 -0.426902 0.909209
v -0.997976 -0.426417 0.906268
v -0.993859 -0.43128 0.903354
v -0.992634 -0.431534 0.904894
v -0.99316 -0.422406 0.915778
v -0.997235 -0.420947 0.912514
v -0.995635 -0.426902 0.909209
v -0.992785 -0.427922 0.911492
v -0.992785 -0.427922 0.911492
v -0.995635 -0.426902 0.909209
v -0.992634 -0.431534 0.904894
v -0.991143 -0.432068 0.906088
v -0.988636 -0.42453 0.917876
v -0.99316 -0.422406 0.915778
v -0.992785 -0.427922 0.911492
v -0.989622 -0.429407 0.91296
v -0.989622 -0.429407 0.91296
v -0.992785 -0.427922 0.911492
v -0.991143 -0.432068 0.906088
v -0.989487 -0.432845 0.906856
v -0.983972 -0.427176 0.918667
v -0.988636 -0.42453 0.917876
v -0.989622 -0.429407 0.91296
v -0.98636 -0.431257 0.913512
v -0.98636 -0.431257 0.913512
v -0.989622 -0.429407 0.91296
v -0.989487 -0.432845 0.906856
v -0.98778 -0.433813 0.907145
v -0.979484 -0.430162 0.918096
v -0.983972 -0.427176 0.918667
v -0.98636 -0.431257 0.913512
v -0.983222 -0.433346 0.913113
v -0.983222 -0.433346 0.913113
v -0.98636 -0.431257 0.913512
v -0.98778 -0.433813 0.907145
v -0.986138 -0.434906 0.906936
v -0.97548 -0.433287 0.916202
v -0.979484 -0.430162 0.918096
v -0.983222 -0.433346 0.913113
v -0.980421 -0.435531 0.911789
v -0.980421 -0.435531 0.911789
v -0.983222 -0.433346 0.913113
v -0.986138 -0.434906 0.906936
v -0.984672 -0.43605 0.906243
v -0.972231 -0.436336 0.913115
v -0.97548 -0.433287 0.916202
v -0.980421 -0.435531 0.911789
v -0.97815 -0.437663 0.909629
v -0.97815 -0.437663 0.909629
v -0.980421 -0.435531 0.911789
v -0.984672 -0.43605 0.906243
v -0.983483 -0.437165 0.905113
v -0.96996 -0.439101 0.909043
v -0.972231 -0.436336 0.913115
v -0.97815 -0.437663 0.909629
v -0.976561 -0.439597 0.906782
v -0.976561 -0.439597 0.906782
v -0.97815 -0.437663 0.909629
v -0.983483 -0.437165 0.905113
v -0.982652 -0.438178 0.903623
v -0.968821 -0.441395 0.904266
v -0.96996 -0.439101 0.909043
v -0.976561 -0.439597 0.906782
v -0.975765 -0.441201 0.903441
v -0.975765 -0.441201 0.903441
v -0.976561 -0.439597 0.906782
v -0.982652 -0.438178 0.903623
v -0.982235 -0.439017 0.901875
v -0.968891 -0.443061 0.899108
v -0.968821 -0.441395 0.904266
v -0.975765 -0.441201 0.903441
v -0.975814 -0.442366 0.899835
v -0.975814 -0.442366 0.899835
v -0.975765 -0.441201 0.903441
v -0.982235 -0.439017 0.901875
v -0.982261 -0.439627 0.899987
v -0.970167 -0.443986 0.893921
v -0.968891 -0.443061 0.899108
v -0.975814 -0.442366 0.899835
v -0.976706 -0.443013 0.896208
v -0.976706 -0.443013 0.896208
v -0.975814 -0.442366 0.899835
v -0.982261 -0.439627 0.899987
v -0.982728 -0.439965 0.898089
v -0.97256 -0.444106 0.889059
v -0.970167 -0.443986 0.893921
v -0.976706 -0.443013 0.896208
v -0.97838 -0.443097 0.892807
v -0.97838 -0.443097 0.892807
v -0.976706 -0.443013 0.896208
v -0.982728 -0.439965 0.898089
v -0.983603 -0.440009 0.89631
v -0.975908 -0.443413 0.884853
v -0.97256 -0.444106 0.889059
v -0.97838 -0.443097 0.892807
v -0.980721 -0.442612 0.889866
v -0.980721 -0.442612 0.889866
v -0.97838 -0.443097 0.892807
v -0.983603 -0.440009 0.89631
v -0.984829 -0.439756 0.89477
v -0.979983 -0.441955 0.881589
v -0.975908 -0.443413 0.884853
v -0.980721 -0.442612 0.889866
v -0.983571 -0.441592 0.887584
v -0.983571 -0.441592 0.887584
v -0.980721 -0.442612 0.889866
v -0.984829 -0.439756 0.89477
v -0.98632 -0.439222 0.893576
v -0.984507 -0.439831 0.87949
v -0.979983 -0.441955 0.881589
v -0.983571 -0.441592 0.887584
v -0.986734 -0.440107 0.886116
v -0.986734 -0.440107 0.886116
v -0.983571 -0.441592 0.887584
v -0.98632 -0.439222 0.893576
v -0.987976 -0.438445 0.892808
v -0.989996 -0.438257 0.885563
v -0.986734 -0.440107 0.886116
v -0.987976 -0.438445 0.892808
v -0.989683 -0.437476 0.892518
v -0.975909 -0.440274 0.876179
v -0.970862 -0.442081 0.880222
v -0.975908 -0.443413 0.884853
v -0.979983 -0.441955 0.881589
v -0.981513 -0.437643 0.87358
v -0.975909 -0.440274 0.876179
v -0.979983 -0.441955 0.881589
v -0.984507 -0.439831 0.87949
v -0.971747 -0.436715 0.871884
v -0.966075 -0.438745 0.876426
v -0.970862 -0.442081 0.880222
v -0.975909 -0.440274 0.876179
v -0.978044 -0.433758 0.868962
v -0.971747 -0.436715 0.871884
v -0.975909 -0.440274 0.876179
v -0.981513 -0.437643 0.87358
v -0.966075 -0.438745 0.876426
v -0.961415 -0.439709 0.882281
v -0.966714 -0.442939 0.885432
v -0.970862 -0.442081 0.880222
v -0.970862 -0.442081 0.880222
v -0.966714 -0.442939 0.885432
v -0.97256 -0.444106 0.889059
v -0.975908 -0.443413 0.884853
v -0.961415 -0.439709 0.882281
v -0.958084 -0.439542 0.889048
v -0.96375 -0.44279 0.891454
v -0.966714 -0.442939 0.885432
v -0.966714 -0.442939 0.885432
v -0.96375 -0.44279 0.891454
v -0.970167 -0.443986 0.893921
v -0.97256 -0.444106 0.889059
v -0.958084 -0.439542 0.889048
v -0.956309 -0.438255 0.896267
v -0.96217 -0.441645 0.897879
v -0.96375 -0.44279 0.891454
v -0.96375 -0.44279 0.891454
v -0.96217 -0.441645 0.897879
v -0.968891 -0.443061 0.899108
v -0.970167 -0.443986 0.893921
v -0.956309 -0.438255 0.896267
v -0.956211 -0.435936 0.903446
v -0.962083 -0.439581 0.904267
v -0.96217 -0.441645 0.897879
v -0.96217 -0.441645 0.897879
v -0.962083 -0.439581 0.904267
v -0.968821 -0.441395 0.904266
v -0.968891 -0.443061 0.899108
v -0.956211 -0.435936 0.903446
v -0.957797 -0.432743 0.910096
v -0.963494 -0.43674 0.910185
v -0.962083 -0.439581 0.904267
v -0.962083 -0.439581 0.904267
v -0.963494 -0.43674 0.910185
v -0.96996 -0.439101 0.909043
v -0.968821 -0.441395 0.904266
v -0.957797 -0.432743 0.910096
v -0.960958 -0.428894 0.915762
v -0.966307 -0.433314 0.915228
v -0.963494 -0.43674 0.910185
v -0.963494 -0.43674 0.910185
v -0.966307 -0.433314 0.915228
v -0.972231 -0.436336 0.913115
v -0.96996 -0.439101 0.909043
v -0.960958 -0.428894 0.915762
v -0.965479 -0.42465 0.92006
v -0.970331 -0.429537 0.919052
v -0.966307 -0.433314 0.915228
v -0.966307 -0.433314 0.915228
v -0.970331 -0.429537 0.919052
v -0.97548 -0.433287 0.916202
v -0.972231 -0.436336 0.913115
v -0.965479 -0.42465 0.92006
v -0.971053 -0.420301 0.922696
v -0.975291 -0.425668 0.921398
v -0.970331 -0.429537 0.919052
v -0.970331 -0.429537 0.919052
v -0.975291 -0.425668 0.921398
v -0.979484 -0.430162 0.918096
v -0.97548 -0.433287 0.916202
v -0.971053 -0.420301 0.922696
v -0.977298 -0.416144 0.923491
v -0.980849 -0.421968 0.922106
v -0.975291 -0.425668 0.921398
v -0.975291 -0.425668 0.921398
v -0.980849 -0.421968 0.922106
v -0.983972 -0.427176 0.918667
v -0.979484 -0.430162 0.918096
v -0.977298 -0.416144 0.923491
v -0.983791 -0.412462 0.92239
v -0.986627 -0.418691 0.921126
v -0.980849 -0.421968 0.922106
v -0.980849 -0.421968 0.922106
v -0.986627 -0.418691 0.921126
v -0.988636 -0.42453 0.917876
v -0.983972 -0.427176 0.918667
v -0.983791 -0.412462 0.92239
v -0.990087 -0.409505 0.919469
v -0.99223 -0.41606 0.918526
v -0.986627 -0.418691 0.921126
v -0.986627 -0.418691 0.921126
v -0.99223 -0.41606 0.918526
v -0.99316 -0.422406 0.915778
v -0.988636 -0.42453 0.917876
v -0.990087 -0.409505 0.919469
v -0.995759 -0.407476 0.914926
v -0.997278 -0.414254 0.914484
v -0.99223 -0.41606 0.918526
v -0.99223 -0.41606 0.918526
v -0.997278 -0.414254 0.914484
v -0.997235 -0.420947 0.912514
v -0.99316 -0.422406 0.915778
v -0.995759 -0.407476 0.914926
v -1.00042 -0.406511 0.909072
v -1.00143 -0.413396 0.909274
v -0.997278 -0.414254 0.914484
v -0.997278 -0.414254 0.914484
v -1.00143 -0.413396 0.909274
v -1.00058 -0.420255 0.908307
v -0.997235 -0.420947 0.912514
v -1.00042 -0.406511 0.909072
v -1.00375 -0.406678 0.902304
v -1.00439 -0.413544 0.903251
v -1.00143 -0.413396 0.909274
v -1.00143 -0.413396 0.909274
v -1.00439 -0.413544 0.903251
v -1.00298 -0.420375 0.903445
v -1.00058 -0.420255 0.908307
v -1.00375 -0.406678 0.902304
v -1.00552 -0.407965 0.895085
v -1.00597 -0.414689 0.896827
v -1.00439 -0.413544 0.903251
v -1.00439 -0.413544 0.903251
v -1.00597 -0.414689 0.896827
v -1.00425 -0.421299 0.898259
v -1.00298 -0.420375 0.903445
v -1.00552 -0.407965 0.895085
v -1.00562 -0.410284 0.887906
v -1.00606 -0.416753 0.890438
v -1.00597 -0.414689 0.896827
v -1.00597 -0.414689 0.896827
v -1.00606 -0.416753 0.890438
v -1.00432 -0.422965 0.893101
v -1.00425 -0.421299 0.898259
v -1.00562 -0.410284 0.887906
v -1.00404 -0.413477 0.881257
v -1.00464 -0.419595 0.884521
v -1.00606 -0.416753 0.890438
v -1.00606 -0.416753 0.890438
v -1.00464 -0.419595 0.884521
v -1.00318 -0.425259 0.888324
v -1.00432 -0.422965 0.893101
v -1.00404 -0.413477 0.881257
v -1.00088 -0.417327 0.87559
v -1.00183 -0.42302 0.879478
v -1.00464 -0.419595 0.884521
v -1.00464 -0.419595 0.884521
v -1.00183 -0.42302 0.879478
v -1.00091 -0.428025 0.884252
v -1.00318 -0.425259 0.888324
v -1.00088 -0.417327 0.87559
v -0.996355 -0.42157 0.871292
v -0.997809 -0.426797 0.875653
v -1.00183 -0.42302 0.879478
v -1.00183 -0.42302 0.879478
v -0.997809 -0.426797 0.875653
v -0.997663 -0.431074 0.881164
v -1.00091 -0.428025 0.884252
v -1.00234 -0.409613 0.8797
v -0.999105 -0.413556 0.873894
v -1.00088 -0.417327 0.87559
v -1.00404 -0.413477 0.881257
v -0.999105 -0.413556 0.873894
v -0.994473 -0.417904 0.869491
v -0.996355 -0.42157 0.871292
v -1.00088 -0.417327 0.87559
v -0.994473 -0.417904 0.869491
v -0.999105 -0.413556 0.873894
v -0.997922 -0.412248 0.873744
v -0.99336 -0.41653 0.869407
v -0.999105 -0.413556 0.873894
v -1.00234 -0.409613 0.8797
v -1.00111 -0.408364 0.879461
v -0.997922 -0.412248 0.873744
v -1.00234 -0.409613 0.8797
v -1.00397 -0.406341 0.886513
v -1.00271 -0.405143 0.88617
v -1.00111 -0.408364 0.879461
v -1.00397 -0.406341 0.886513
v -1.00234 -0.409613 0.8797
v -1.00404 -0.413477 0.881257
v -1.00562 -0.410284 0.887906
v -1.00397 -0.406341 0.886513
v -1.00387 -0.403965 0.893868
v -1.00261 -0.402803 0.893413
v -1.00271 -0.405143 0.88617
v -1.00387 -0.403965 0.893868
v -1.00397 -0.406341 0.886513
v -1.00562 -0.410284 0.887906
v -1.00552 -0.407965 0.895085
v -1.00387 -0.403965 0.893868
v -1.00205 -0.402647 0.901264
v -1.00082 -0.401505 0.900697
v -1.00261 -0.402803 0.893413
v -1.00205 -0.402647 0.901264
v -1.00387 -0.403965 0.893868
v -1.00552 -0.407965 0.895085
v -1.00375 -0.406678 0.902304
v -1.00205 -0.402647 0.901264
v -0.998636 -0.402476 0.908198
v -0.99746 -0.401336 0.907525
v -1.00082 -0.401505 0.900697
v -0.998636 -0.402476 0.908198
v -1.00205 -0.402647 0.901264
v -1.00375 -0.406678 0.902304
v -1.00042 -0.406511 0.909072
v -0.998636 -0.402476 0.908198
v -0.993862 -0.403464 0.914196
v -0.992758 -0.402309 0.913432
v -0.99746 -0.401336 0.907525
v -0.993862 -0.403464 0.914196
v -0.998636 -0.402476 0.908198
v -1.00042 -0.406511 0.909072
v -0.995759 -0.407476 0.914926
v -0.993862 -0.403464 0.914196
v -0.988051 -0.405543 0.91885
v -0.987036 -0.404357 0.918016
v -0.992758 -0.402309 0.913432
v -0.988051 -0.405543 0.91885
v -0.993862 -0.403464 0.914196
v -0.995759 -0.407476 0.914926
v -0.990087 -0.409505 0.919469
v -0.980683 -0.40734 0.920963
v -0.987036 -0.404357 0.918016
v -0.988051 -0.405543 0.91885
v -0.981599 -0.408572 0.921843
v -0.981599 -0.408572 0.921843
v -0.988051 -0.405543 0.91885
v -0.990087 -0.409505 0.919469
v -0.983791 -0.412462 0.92239
v -0.974132 -0.411055 0.922074
v -0.980683 -0.40734 0.920963
v -0.981599 -0.408572 0.921843
v -0.974948 -0.412345 0.922971
v -0.974948 -0.412345 0.922971
v -0.981599 -0.408572 0.921843
v -0.983791 -0.412462 0.92239
v -0.977298 -0.416144 0.923491
v -0.974948 -0.412345 0.922971
v -0.968549 -0.416604 0.922157
v -0.967831 -0.41525 0.921272
v -0.974132 -0.411055 0.922074
v -0.968549 -0.416604 0.922157
v -0.974948 -0.412345 0.922971
v -0.977298 -0.416144 0.923491
v -0.971053 -0.420301 0.922696
v -0.968549 -0.416604 0.922157
v -0.962838 -0.42106 0.919456
v -0.962207 -0.419637 0.918612
v -0.967831 -0.41525 0.921272
v -0.962838 -0.42106 0.919456
v -0.968549 -0.416604 0.922157
v -0.971053 -0.420301 0.922696
v -0.965479 -0.42465 0.92006
v -0.962838 -0.42106 0.919456
v -0.958206 -0.425407 0.915052
v -0.957645 -0.423919 0.914276
v -0.962207 -0.419637 0.918612
v -0.958206 -0.425407 0.915052
v -0.962838 -0.42106 0.919456
v -0.965479 -0.42465 0.92006
v -0.960958 -0.428894 0.915762
v -0.954456 -0.427803 0.908558
v -0.957645 -0.423919 0.914276
v -0.958206 -0.425407 0.915052
v -0.954967 -0.429351 0.909247
v -0.954967 -0.429351 0.909247
v -0.958206 -0.425407 0.915052
v -0.960958 -0.428894 0.915762
v -0.957797 -0.432743 0.910096
v -0.954967 -0.429351 0.909247
v -0.953343 -0.432623 0.902434
v -0.952856 -0.431024 0.901849
v -0.954456 -0.427803 0.908558
v -0.953343 -0.432623 0.902434
v -0.954967 -0.429351 0.909247
v -0.957797 -0.432743 0.910096
v -0.956211 -0.435936 0.903446
v -0.953343 -0.432623 0.902434
v -0.953443 -0.434998 0.895079
v -0.952955 -0.433364 0.894606
v -0.952856 -0.431024 0.901849
v -0.953443 -0.434998 0.895079
v -0.953343 -0.432623 0.902434
v -0.956211 -0.435936 0.903446
v -0.956309 -0.438255 0.896267
v -0.954746 -0.434662 0.887322
v -0.952955 -0.433364 0.894606
v -0.953443 -0.434998 0.895079
v -0.955262 -0.436317 0.887682
v -0.955262 -0.436317 0.887682
v -0.953443 -0.434998 0.895079
v -0.956309 -0.438255 0.896267
v -0.958084 -0.439542 0.889048
v -0.955262 -0.436317 0.887682
v -0.958675 -0.436488 0.880749
v -0.958107 -0.434831 0.880494
v -0.954746 -0.434662 0.887322
v -0.958675 -0.436488 0.880749
v -0.955262 -0.436317 0.887682
v -0.958084 -0.439542 0.889048
v -0.961415 -0.439709 0.882281
v -0.958675 -0.436488 0.880749
v -0.963449 -0.4355 0.874751
v -0.962809 -0.433858 0.874587
v -0.958107 -0.434831 0.880494
v -0.963449 -0.4355 0.874751
v -0.958675 -0.436488 0.880749
v -0.961415 -0.439709 0.882281
v -0.966075 -0.438745 0.876426
v -0.963449 -0.4355 0.874751
v -0.96926 -0.433421 0.870097
v -0.968531 -0.43181 0.870004
v -0.962809 -0.433858 0.874587
v -0.96926 -0.433421 0.870097
v -0.963449 -0.4355 0.874751
v -0.966075 -0.438745 0.876426
v -0.971747 -0.436715 0.871884
v -0.96926 -0.433421 0.870097
v -0.975711 -0.430392 0.867104
v -0.974884 -0.428827 0.867056
v -0.968531 -0.43181 0.870004
v -0.975711 -0.430392 0.867104
v -0.96926 -0.433421 0.870097
v -0.971747 -0.436715 0.871884
v -0.978044 -0.433758 0.868962
v -0.975711 -0.430392 0.867104
v -0.982363 -0.426619 0.865976
v -0.981435 -0.425112 0.865946
v -0.974884 -0.428827 0.867056
v -0.968531 -0.43181 0.870004
v -0.974884 -0.428827 0.867056
v -0.974686 -0.427646 0.868375
v -0.968689 -0.430462 0.871158
v -0.962809 -0.433858 0.874587
v -0.968531 -0.43181 0.870004
v -0.968689 -0.430462 0.871158
v -0.963287 -0.432395 0.875484
v -0.974931 -0.426738 0.870652
v -0.969471 -0.429302 0.873185
v -0.968689 -0.430462 0.871158
v -0.974686 -0.427646 0.868375
v -0.969471 -0.429302 0.873185
v -0.964552 -0.431062 0.877125
v -0.963287 -0.432395 0.875484
v -0.968689 -0.430462 0.871158
v -0.964552 -0.431062 0.877125
v -0.960511 -0.431898 0.882201
v -0.958849 -0.433313 0.88106
v -0.963287 -0.432395 0.875484
v -0.960511 -0.431898 0.882201
v -0.957622 -0.431753 0.88807
v -0.955676 -0.433154 0.887505
v -0.958849 -0.433313 0.88106
v -0.954746 -0.434662 0.887322
v -0.958107 -0.434831 0.880494
v -0.958849 -0.433313 0.88106
v -0.955676 -0.433154 0.887505
v -0.958107 -0.434831 0.880494
v -0.962809 -0.433858 0.874587
v -0.963287 -0.432395 0.875484
v -0.958849 -0.433313 0.88106
v -0.955676 -0.433154 0.887505
v -0.953986 -0.431928 0.894381
v -0.952955 -0.433364 0.894606
v -0.954746 -0.434662 0.887322
v -0.957622 -0.431753 0.88807
v -0.956083 -0.430638 0.89433
v -0.953986 -0.431928 0.894381
v -0.955676 -0.433154 0.887505
v -0.952856 -0.431024 0.901849
v -0.952955 -0.433364 0.894606
v -0.953986 -0.431928 0.894381
v -0.953892 -0.42972 0.901218
v -0.956083 -0.430638 0.89433
v -0.955998 -0.428627 0.900556
v -0.953892 -0.42972 0.901218
v -0.953986 -0.431928 0.894381
v -0.955998 -0.428627 0.900556
v -0.957373 -0.425858 0.906322
v -0.955403 -0.426679 0.907551
v -0.953892 -0.42972 0.901218
v -0.957373 -0.425858 0.906322
v -0.960114 -0.42252 0.911236
v -0.958413 -0.423013 0.912947
v -0.955403 -0.426679 0.907551
v -0.954456 -0.427803 0.908558
v -0.952856 -0.431024 0.901849
v -0.953892 -0.42972 0.901218
v -0.955403 -0.426679 0.907551
v -0.955403 -0.426679 0.907551
v -0.958413 -0.423013 0.912947
v -0.957645 -0.423919 0.914276
v -0.954456 -0.427803 0.908558
v -0.962207 -0.419637 0.918612
v -0.957645 -0.423919 0.914276
v -0.958413 -0.423013 0.912947
v -0.96272 -0.418971 0.917041
v -0.960114 -0.42252 0.911236
v -0.964035 -0.41884 0.914963
v -0.96272 -0.418971 0.917041
v -0.958413 -0.423013 0.912947
v -0.967831 -0.41525 0.921272
v -0.962207 -0.419637 0.918612
v -0.96272 -0.418971 0.917041
v -0.968028 -0.41483 0.919551
v -0.964035 -0.41884 0.914963
v -0.968868 -0.415069 0.917249
v -0.968028 -0.41483 0.919551
v -0.96272 -0.418971 0.917041
v -0.968868 -0.415069 0.917249
v -0.974284 -0.411464 0.917938
v -0.973976 -0.41087 0.920308
v -0.968028 -0.41483 0.919551
v -0.974284 -0.411464 0.917938
v -0.979915 -0.408271 0.916983
v -0.980159 -0.407363 0.91926
v -0.973976 -0.41087 0.920308
v -0.974132 -0.411055 0.922074
v -0.967831 -0.41525 0.921272
v -0.968028 -0.41483 0.919551
v -0.973976 -0.41087 0.920308
v -0.973976 -0.41087 0.920308
v -0.980159 -0.407363 0.91926
v -0.980683 -0.40734 0.920963
v -0.974132 -0.411055 0.922074
v -0.980159 -0.407363 0.91926
v -0.986156 -0.404547 0.916478
v -0.987036 -0.404357 0.918016
v -0.980683 -0.40734 0.920963
v -0.979915 -0.408271 0.916983
v -0.985375 -0.405707 0.91445
v -0.986156 -0.404547 0.916478
v -0.980159 -0.407363 0.91926
v -0.992758 -0.402309 0.913432
v -0.987036 -0.404357 0.918016
v -0.986156 -0.404547 0.916478
v -0.991558 -0.402614 0.912151
v -0.985375 -0.405707 0.91445
v -0.990293 -0.403947 0.910511
v -0.991558 -0.402614 0.912151
v -0.986156 -0.404547 0.916478
v -0.990293 -0.403947 0.910511
v -0.994334 -0.403111 0.905434
v -0.995996 -0.401696 0.906576
v -0.991558 -0.402614 0.912151
v -0.994334 -0.403111 0.905434
v -0.997223 -0.403255 0.899565
v -0.999169 -0.401855 0.90013
v -0.995996 -0.401696 0.906576
v -1.00082 -0.401505 0.900697
v -0.99746 -0.401336 0.907525
v -0.995996 -0.401696 0.906576
v -0.999169 -0.401855 0.90013
v -0.99746 -0.401336 0.907525
v -0.992758 -0.402309 0.913432
v -0.991558 -0.402614 0.912151
v -0.995996 -0.401696 0.906576
v -1.00261 -0.402803 0.893413
v -1.00082 -0.401505 0.900697
v -0.999169 -0.401855 0.90013
v -1.00086 -0.403081 0.893255
v -0.997223 -0.403255 0.899565
v -0.998762 -0.404371 0.893305
v -1.00086 -0.403081 0.893255
v -0.999169 -0.401855 0.90013
v -1.00271 -0.405143 0.88617
v -1.00261 -0.402803 0.893413
v -1.00086 -0.403081 0.893255
v -1.00095 -0.405289 0.886418
v -0.998762 -0.404371 0.893305
v -0.998847 -0.406382 0.88708
v -1.00095 -0.405289 0.886418
v -1.00086 -0.403081 0.893255
v -0.998847 -0.406382 0.88708
v -0.997472 -0.409151 0.881314
v -0.999443 -0.40833 0.880085
v -1.00095 -0.405289 0.886418
v -0.997472 -0.409151 0.881314
v -0.994731 -0.412489 0.8764
v -0.996432 -0.411996 0.874688
v -0.999443 -0.40833 0.880085
v -0.997922 -0.412248 0.873744
v -1.00111 -0.408364 0.879461
v -0.999443 -0.40833 0.880085
v -0.996432 -0.411996 0.874688
v -1.00111 -0.408364 0.879461
v -1.00271 -0.405143 0.88617
v -1.00095 -0.405289 0.886418
v -0.999443 -0.40833 0.880085
v -0.99336 -0.41653 0.869407
v -0.997922 -0.412248 0.873744
v -0.996432 -0.411996 0.874688
v -0.992126 -0.416038 0.870595
v -0.994731 -0.412489 0.8764
v -0.99081 -0.416169 0.872673
v -0.992126 -0.416038 0.870595
v -0.996432 -0.411996 0.874688
vn 0.5093 0.8169 -0.2708
vn 0.5093 0.8169 -0.2709
vn 0.5187 0.716 -0.4671
vn 0.4694 0.7442 -0.4753
vn 0.5093 0.8169 -0.2708
vn 0.5093 0.8169 -0.2708
vn 0.4694 0.7442 -0.4753
vn 0.422 0.7757 -0.4693
vn 0.226 0.3315 -0.916
vn 0.059 0.4428 -0.8947
vn 0.422 0.7757 -0.4693
vn 0.4694 0.7442 -0.4753
vn 0.3997 0.233 -0.8865
vn 0.226 0.3315 -0.916
vn 0.4694 0.7442 -0.4753
vn 0.5187 0.716 -0.4671
vn 0.3797 0.8087 -0.4492
vn 0.422 0.7757 -0.4693
vn 0.059 0.4428 -0.8947
vn -0.0901 0.5592 -0.8241
vn 0.5092 0.8169 -0.2709
vn 0.5093 0.8169 -0.2708
vn 0.422 0.7757 -0.4693
vn 0.3797 0.8087 -0.4492
vn -0.0901 0.5592 -0.8241
vn 0.059 0.4428 -0.8947
vn -0.3161 -0.0573 -0.947
vn -0.5088 0.093 -0.8559
vn -0.1003 -0.201 -0.9744
vn -0.3161 -0.0573 -0.947
vn 0.059 0.4428 -0.8947
vn 0.226 0.3315 -0.916
vn -0.5088 0.093 -0.8559
vn -0.3161 -0.0573 -0.947
vn -0.4813 -0.3437 -0.8064
vn -0.6649 -0.2005 -0.7196
vn -0.3161 -0.0573 -0.947
vn -0.1003 -0.201 -0.9744
vn -0.2757 -0.4805 -0.8325
vn -0.4813 -0.3437 -0.8064
vn -0.6649 -0.2005 -0.7196
vn -0.4813 -0.3437 -0.8064
vn -0.5747 -0.5566 -0.6
vn -0.7311 -0.4345 -0.526
vn -0.4813 -0.3437 -0.8064
vn -0.2757 -0.4805 -0.8325
vn -0.3993 -0.6732 -0.6223
vn -0.5747 -0.5566 -0.6
vn -0.1003 -0.201 -0.9744
vn 0.124 -0.3284 -0.9364
vn -0.062 -0.6018 -0.7963
vn -0.2757 -0.4805 -0.8325
vn -0.2757 -0.4805 -0.8325
vn -0.062 -0.6018 -0.7963
vn -0.2171 -0.7766 -0.5914
vn -0.3993 -0.6732 -0.6223
vn -0.3993 -0.6732 -0.6223
vn -0.2171 -0.7766 -0.5914
vn -0.351 -0.8762 -0.3301
vn -0.4843 -0.8007 -0.3527
vn -0.5747 -0.5566 -0.6
vn -0.3993 -0.6732 -0.6223
vn -0.4843 -0.8007 -0.3527
vn -0.6125 -0.7154 -0.3364
vn -0.4843 -0.8007 -0.3527
vn -0.351 -0.8762 -0.3301
vn -0.4511 -0.8917 -0.0375
vn -0.5227 -0.8511 -0.0496
vn -0.6125 -0.7154 -0.3364
vn -0.4843 -0.8007 -0.3527
vn -0.5227 -0.8511 -0.0496
vn -0.5914 -0.8053 -0.0409
vn -0.7311 -0.4345 -0.526
vn -0.5747 -0.5566 -0.6
vn -0.6125 -0.7154 -0.3364
vn -0.7268 -0.6261 -0.2823
vn -0.7268 -0.6261 -0.2823
vn -0.6125 -0.7154 -0.3364
vn -0.5914 -0.8053 -0.0409
vn -0.6528 -0.7574 -0.0119
vn -0.6528 -0.7574 -0.0119
vn -0.5914 -0.8053 -0.0409
vn -0.5444 -0.8227 0.1637
vn -0.5662 -0.8057 0.1741
vn -0.5914 -0.8053 -0.0409
vn -0.5227 -0.8511 -0.0496
vn -0.5202 -0.8388 0.1607
vn -0.5444 -0.8227 0.1637
vn -0.5092 -0.8169 0.2708
vn -0.5662 -0.8057 0.1741
vn -0.5444 -0.8227 0.1637
vn -0.5092 -0.8169 0.2708
vn -0.5444 -0.8227 0.1637
vn -0.5202 -0.8388 0.1607
vn -0.5092 -0.8169 0.2708
vn -0.5202 -0.8388 0.1607
vn -0.4948 -0.8532 0.165
vn -0.5092 -0.8169 0.2708
vn -0.4948 -0.8532 0.165
vn -0.4702 -0.8647 0.1764
vn -0.5092 -0.8169 0.2708
vn -0.4702 -0.8647 0.1764
vn -0.4481 -0.8726 0.1941
vn -0.5092 -0.8169 0.2708
vn -0.4481 -0.8726 0.1941
vn -0.43 -0.8764 0.2169
vn -0.5092 -0.8169 0.2708
vn -0.43 -0.8764 0.2169
vn -0.4171 -0.8757 0.2433
vn -0.5092 -0.8169 0.2708
vn -0.4171 -0.8757 0.2433
vn -0.4101 -0.8707 0.2714
vn -0.5092 -0.8169 0.2708
vn -0.4101 -0.8707 0.2714
vn -0.4097 -0.8617 0.2994
vn -0.5092 -0.8169 0.2708
vn -0.4097 -0.8617 0.2994
vn -0.4159 -0.8492 0.3253
vn -0.5092 -0.8169 0.2708
vn -0.4159 -0.8492 0.3253
vn -0.4282 -0.8342 0.3474
vn -0.5092 -0.8169 0.2708
vn -0.4282 -0.8342 0.3474
vn -0.4458 -0.8177 0.3641
vn -0.5092 -0.8169 0.2708
vn -0.4458 -0.8177 0.3641
vn -0.4676 -0.8007 0.3744
vn -0.5092 -0.8169 0.2708
vn -0.4676 -0.8007 0.3744
vn -0.4919 -0.7846 0.3775
vn -0.5092 -0.8169 0.2708
vn -0.4919 -0.7846 0.3775
vn -0.5171 -0.7703 0.3733
vn -0.5092 -0.8169 0.2708
vn -0.5171 -0.7703 0.3733
vn -0.5417 -0.7587 0.3618
vn -0.5092 -0.8169 0.2708
vn -0.5417 -0.7587 0.3618
vn -0.564 -0.7507 0.344
vn -0.5092 -0.8169 0.2708
vn -0.564 -0.7507 0.344
vn -0.5821 -0.747 0.3213
vn -0.5092 -0.8169 0.2708
vn -0.5821 -0.747 0.3213
vn -0.5949 -0.7476 0.2951
vn -0.5092 -0.8169 0.2708
vn -0.5949 -0.7476 0.2951
vn -0.6019 -0.7527 0.2668
vn -0.5092 -0.8169 0.2708
vn -0.6019 -0.7527 0.2668
vn -0.6023 -0.7617 0.2388
vn -0.5092 -0.8169 0.2708
vn -0.6023 -0.7617 0.2388
vn -0.5961 -0.7742 0.2129
vn -0.5092 -0.8169 0.2708
vn -0.5961 -0.7742 0.2129
vn -0.5838 -0.7891 0.1908
vn -0.5092 -0.8169 0.2708
vn -0.5838 -0.7891 0.1908
vn -0.5662 -0.8057 0.1741
vn -0.7026 -0.7107 0.0355
vn -0.6528 -0.7574 -0.0119
vn -0.5662 -0.8057 0.1741
vn -0.5838 -0.7891 0.1908
vn -0.7375 -0.6683 0.0979
vn -0.7026 -0.7107 0.0355
vn -0.5838 -0.7891 0.1908
vn -0.5961 -0.7742 0.2129
vn -0.8196 -0.539 -0.1941
vn -0.7268 -0.6261 -0.2823
vn -0.6528 -0.7574 -0.0119
vn -0.7026 -0.7107 0.0355
vn -0.8845 -0.4601 -0.0778
vn -0.8196 -0.539 -0.1941
vn -0.7026 -0.7107 0.0355
vn -0.7375 -0.6683 0.0979
vn -0.917 -0.3946 0.0586
vn -0.8845 -0.4601 -0.0778
vn -0.7375 -0.6683 0.0979
vn -0.7549 -0.6331 0.1711
vn -0.7549 -0.6331 0.1711
vn -0.7375 -0.6683 0.0979
vn -0.5961 -0.7742 0.2129
vn -0.6023 -0.7617 0.2388
vn -0.915 -0.3469 0.2059
vn -0.917 -0.3946 0.0586
vn -0.7549 -0.6331 0.1711
vn -0.7538 -0.6076 0.2502
vn -0.7538 -0.6076 0.2502
vn -0.7549 -0.6331 0.1711
vn -0.6023 -0.7617 0.2388
vn -0.6019 -0.7527 0.2668
vn -0.8786 -0.3205 0.3541
vn -0.915 -0.3469 0.2059
vn -0.7538 -0.6076 0.2502
vn -0.7342 -0.5934 0.3298
vn -0.7342 -0.5934 0.3298
vn -0.7538 -0.6076 0.2502
vn -0.6019 -0.7527 0.2668
vn -0.5949 -0.7476 0.2951
vn -0.8102 -0.3171 0.4929
vn -0.8786 -0.3205 0.3541
vn -0.7342 -0.5934 0.3298
vn -0.6976 -0.5915 0.4043
vn -0.6976 -0.5915 0.4043
vn -0.7342 -0.5934 0.3298
vn -0.5949 -0.7476 0.2951
vn -0.5821 -0.747 0.3213
vn -0.7146 -0.3369 0.6131
vn -0.8102 -0.3171 0.4929
vn -0.6976 -0.5915 0.4043
vn -0.6459 -0.6024 0.469
vn -0.6459 -0.6024 0.469
vn -0.6976 -0.5915 0.4043
vn -0.5821 -0.747 0.3213
vn -0.564 -0.7507 0.344
vn -0.5982 -0.3785 0.7063
vn -0.7146 -0.3369 0.6131
vn -0.6459 -0.6024 0.469
vn -0.5838 -0.6245 0.5188
vn -0.5838 -0.6245 0.5188
vn -0.6459 -0.6024 0.469
vn -0.564 -0.7507 0.344
vn -0.5417 -0.7587 0.3618
vn -0.469 -0.4392 0.7663
vn -0.5982 -0.3785 0.7063
vn -0.5838 -0.6245 0.5188
vn -0.5143 -0.6571 0.5511
vn -0.5143 -0.6571 0.5511
vn -0.5838 -0.6245 0.5188
vn -0.5417 -0.7587 0.3618
vn -0.5171 -0.7703 0.3733
vn -0.3358 -0.5148 0.7888
vn -0.469 -0.4392 0.7663
vn -0.5143 -0.6571 0.5511
vn -0.4429 -0.6977 0.5631
vn -0.4429 -0.6977 0.5631
vn -0.5143 -0.6571 0.5511
vn -0.5171 -0.7703 0.3733
vn -0.4919 -0.7846 0.3775
vn -0.2076 -0.6001 0.7725
vn -0.3358 -0.5148 0.7888
vn -0.4429 -0.6977 0.5631
vn -0.3741 -0.7434 0.5544
vn -0.3741 -0.7434 0.5544
vn -0.4429 -0.6977 0.5631
vn -0.4919 -0.7846 0.3775
vn -0.4676 -0.8007 0.3744
vn -0.0933 -0.6893 0.7185
vn -0.2076 -0.6001 0.7725
vn -0.3741 -0.7434 0.5544
vn -0.3127 -0.7913 0.5254
vn -0.3127 -0.7913 0.5254
vn -0.3741 -0.7434 0.5544
vn -0.4676 -0.8007 0.3744
vn -0.4458 -0.8177 0.3641
vn -0.0004 -0.7764 0.6302
vn -0.0933 -0.6893 0.7185
vn -0.3127 -0.7913 0.5254
vn -0.2629 -0.8381 0.4779
vn -0.2629 -0.8381 0.4779
vn -0.3127 -0.7913 0.5254
vn -0.4458 -0.8177 0.3641
vn -0.4282 -0.8342 0.3474
vn 0.0644 -0.8554 0.5139
vn -0.0004 -0.7764 0.6302
vn -0.2629 -0.8381 0.4779
vn -0.228 -0.8805 0.4156
vn -0.228 -0.8805 0.4156
vn -0.2629 -0.8381 0.4779
vn -0.4282 -0.8342 0.3474
vn -0.4159 -0.8492 0.3253
vn 0.0969 -0.9209 0.3775
vn 0.0644 -0.8554 0.5139
vn -0.228 -0.8805 0.4156
vn -0.2106 -0.9157 0.3423
vn -0.2106 -0.9157 0.3423
vn -0.228 -0.8805 0.4156
vn -0.4159 -0.8492 0.3253
vn -0.4097 -0.8617 0.2994
vn 0.095 -0.9685 0.2302
vn 0.0969 -0.9209 0.3775
vn -0.2106 -0.9157 0.3423
vn -0.2117 -0.9412 0.2633
vn -0.2117 -0.9412 0.2633
vn -0.2106 -0.9157 0.3423
vn -0.4097 -0.8617 0.2994
vn -0.4101 -0.8707 0.2714
vn 0.0585 -0.9949 0.0821
vn 0.095 -0.9685 0.2302
vn -0.2117 -0.9412 0.2633
vn -0.2312 -0.9554 0.1838
vn -0.2312 -0.9554 0.1838
vn -0.2117 -0.9412 0.2633
vn -0.4101 -0.8707 0.2714
vn -0.4171 -0.8757 0.2433
vn -0.0099 -0.9983 -0.0568
vn 0.0585 -0.9949 0.0821
vn -0.2312 -0.9554 0.1838
vn -0.268 -0.9572 0.1091
vn -0.268 -0.9572 0.1091
vn -0.2312 -0.9554 0.1838
vn -0.4171 -0.8757 0.2433
vn -0.43 -0.8764 0.2169
vn -0.1055 -0.9785 -0.177
vn -0.0099 -0.9983 -0.0568
vn -0.268 -0.9572 0.1091
vn -0.3193 -0.9466 0.0446
vn -0.3193 -0.9466 0.0446
vn -0.268 -0.9572 0.1091
vn -0.43 -0.8764 0.2169
vn -0.4481 -0.8726 0.1941
vn -0.2218 -0.9369 -0.2702
vn -0.1055 -0.9785 -0.177
vn -0.3193 -0.9466 0.0446
vn -0.3817 -0.9243 -0.0053
vn -0.3817 -0.9243 -0.0053
vn -0.3193 -0.9466 0.0446
vn -0.4481 -0.8726 0.1941
vn -0.4702 -0.8647 0.1764
vn -0.351 -0.8762 -0.3301
vn -0.2218 -0.9369 -0.2702
vn -0.3817 -0.9243 -0.0053
vn -0.4511 -0.8917 -0.0375
vn -0.4511 -0.8917 -0.0375
vn -0.3817 -0.9243 -0.0053
vn -0.4702 -0.8647 0.1764
vn -0.4948 -0.8532 0.165
vn -0.5227 -0.8511 -0.0496
vn -0.4511 -0.8917 -0.0375
vn -0.4948 -0.8532 0.165
vn -0.5202 -0.8388 0.1607
vn -0.0404 -0.8596 -0.5094
vn 0.1187 -0.9165 -0.3819
vn -0.1055 -0.9785 -0.177
vn -0.2218 -0.9369 -0.2702
vn -0.2171 -0.7766 -0.5914
vn -0.0404 -0.8596 -0.5094
vn -0.2218 -0.9369 -0.2702
vn -0.351 -0.8762 -0.3301
vn 0.1453 -0.6991 -0.7001
vn 0.3321 -0.7659 -0.5505
vn 0.1187 -0.9165 -0.3819
vn -0.0404 -0.8596 -0.5094
vn -0.062 -0.6018 -0.7963
vn 0.1453 -0.6991 -0.7001
vn -0.0404 -0.8596 -0.5094
vn -0.2171 -0.7766 -0.5914
vn 0.3321 -0.7659 -0.5505
vn 0.4855 -0.7977 -0.3578
vn 0.2496 -0.9436 -0.2176
vn 0.1187 -0.9165 -0.3819
vn 0.1187 -0.9165 -0.3819
vn 0.2496 -0.9436 -0.2176
vn -0.0099 -0.9983 -0.0568
vn -0.1055 -0.9785 -0.177
vn 0.4855 -0.7977 -0.3578
vn 0.5952 -0.7922 -0.1349
vn 0.3431 -0.9389 -0.0276
vn 0.2496 -0.9436 -0.2176
vn 0.2496 -0.9436 -0.2176
vn 0.3431 -0.9389 -0.0276
vn 0.0585 -0.9949 0.0821
vn -0.0099 -0.9983 -0.0568
vn 0.5952 -0.7922 -0.1349
vn 0.6536 -0.7498 0.1027
vn 0.3929 -0.9028 0.175
vn 0.3431 -0.9389 -0.0276
vn 0.3431 -0.9389 -0.0276
vn 0.3929 -0.9028 0.175
vn 0.095 -0.9685 0.2302
vn 0.0585 -0.9949 0.0821
vn 0.6536 -0.7498 0.1027
vn 0.6569 -0.6735 0.3391
vn 0.3956 -0.8377 0.3765
vn 0.3929 -0.9028 0.175
vn 0.3929 -0.9028 0.175
vn 0.3956 -0.8377 0.3765
vn 0.0969 -0.9209 0.3775
vn 0.095 -0.9685 0.2302
vn 0.6569 -0.6735 0.3391
vn 0.6046 -0.5683 0.558
vn 0.3512 -0.7481 0.5631
vn 0.3956 -0.8377 0.3765
vn 0.3956 -0.8377 0.3765
vn 0.3512 -0.7481 0.5631
vn 0.0644 -0.8554 0.5139
vn 0.0969 -0.9209 0.3775
vn 0.6046 -0.5683 0.558
vn 0.5006 -0.4416 0.7446
vn 0.2624 -0.64 0.7222
vn 0.3512 -0.7481 0.5631
vn 0.3512 -0.7481 0.5631
vn 0.2624 -0.64 0.7222
vn -0.0004 -0.7764 0.6302
vn 0.0644 -0.8554 0.5139
vn 0.5006 -0.4416 0.7446
vn 0.3517 -0.3019 0.8861
vn 0.1355 -0.5209 0.8428
vn 0.2624 -0.64 0.7222
vn 0.2624 -0.64 0.7222
vn 0.1355 -0.5209 0.8428
vn -0.0933 -0.6893 0.7185
vn -0.0004 -0.7764 0.6302
vn 0.3517 -0.3019 0.8861
vn 0.1682 -0.1588 0.9729
vn -0.0209 -0.3989 0.9168
vn 0.1355 -0.5209 0.8428
vn 0.1355 -0.5209 0.8428
vn -0.0209 -0.3989 0.9168
vn -0.2076 -0.6001 0.7725
vn -0.0933 -0.6893 0.7185
vn 0.1682 -0.1588 0.9729
vn -0.0374 -0.0219 0.9991
vn -0.1962 -0.2822 0.9391
vn -0.0209 -0.3989 0.9168
vn -0.0209 -0.3989 0.9168
vn -0.1962 -0.2822 0.9391
vn -0.3358 -0.5148 0.7888
vn -0.2076 -0.6001 0.7725
vn -0.0374 -0.0219 0.9991
vn -0.2512 0.0994 0.9628
vn -0.3785 -0.1788 0.9082
vn -0.1962 -0.2822 0.9391
vn -0.1962 -0.2822 0.9391
vn -0.3785 -0.1788 0.9082
vn -0.469 -0.4392 0.7663
vn -0.3358 -0.5148 0.7888
vn -0.2512 0.0994 0.9628
vn -0.4585 0.1967 0.8666
vn -0.5552 -0.0959 0.8262
vn -0.3785 -0.1788 0.9082
vn -0.3785 -0.1788 0.9082
vn -0.5552 -0.0959 0.8262
vn -0.5982 -0.3785 0.7063
vn -0.469 -0.4392 0.7663
vn -0.4585 0.1967 0.8666
vn -0.6452 0.2635 0.7171
vn -0.7144 -0.0389 0.6987
vn -0.5552 -0.0959 0.8262
vn -0.5552 -0.0959 0.8262
vn -0.7144 -0.0389 0.6987
vn -0.7146 -0.3369 0.6131
vn -0.5982 -0.3785 0.7063
vn -0.6452 0.2635 0.7171
vn -0.7987 0.2953 0.5243
vn -0.8452 -0.0118 0.5343
vn -0.7144 -0.0389 0.6987
vn -0.7144 -0.0389 0.6987
vn -0.8452 -0.0118 0.5343
vn -0.8102 -0.3171 0.4929
vn -0.7146 -0.3369 0.6131
vn -0.7987 0.2953 0.5243
vn -0.9084 0.2898 0.3015
vn -0.9387 -0.0165 0.3444
vn -0.8452 -0.0118 0.5343
vn -0.8452 -0.0118 0.5343
vn -0.9387 -0.0165 0.3444
vn -0.8786 -0.3205 0.3541
vn -0.8102 -0.3171 0.4929
vn -0.9084 0.2898 0.3015
vn -0.9668 0.2474 0.0639
vn -0.9885 -0.0526 0.1418
vn -0.9387 -0.0165 0.3444
vn -0.9387 -0.0165 0.3444
vn -0.9885 -0.0526 0.1418
vn -0.915 -0.3469 0.2059
vn -0.8786 -0.3205 0.3541
vn -0.9668 0.2474 0.0639
vn -0.97 0.1711 -0.1725
vn -0.9912 -0.1177 -0.0597
vn -0.9885 -0.0526 0.1418
vn -0.9885 -0.0526 0.1418
vn -0.9912 -0.1177 -0.0597
vn -0.917 -0.3946 0.0586
vn -0.915 -0.3469 0.2059
vn -0.97 0.1711 -0.1725
vn -0.9178 0.066 -0.3915
vn -0.9467 -0.2074 -0.2463
vn -0.9912 -0.1177 -0.0597
vn -0.9912 -0.1177 -0.0597
vn -0.9467 -0.2074 -0.2463
vn -0.8845 -0.4601 -0.0778
vn -0.917 -0.3946 0.0586
vn -0.9178 0.066 -0.3915
vn -0.8138 -0.0608 -0.578
vn -0.858 -0.3154 -0.4053
vn -0.9467 -0.2074 -0.2463
vn -0.9467 -0.2074 -0.2463
vn -0.858 -0.3154 -0.4053
vn -0.8196 -0.539 -0.1941
vn -0.8845 -0.4601 -0.0778
vn -0.8138 -0.0608 -0.578
vn -0.6649 -0.2005 -0.7196
vn -0.7311 -0.4345 -0.526
vn -0.858 -0.3154 -0.4053
vn -0.858 -0.3154 -0.4053
vn -0.7311 -0.4345 -0.526
vn -0.7268 -0.6261 -0.2823
vn -0.8196 -0.539 -0.1941
vn -0.7743 0.3726 -0.5115
vn -0.665 0.2396 -0.7073
vn -0.8138 -0.0608 -0.578
vn -0.9178 0.066 -0.3915
vn -0.665 0.2396 -0.7073
vn -0.5088 0.093 -0.8559
vn -0.6649 -0.2005 -0.7196
vn -0.8138 -0.0608 -0.578
vn -0.5088 0.093 -0.8559
vn -0.665 0.2396 -0.7073
vn -0.2111 0.6727 -0.7091
vn -0.0901 0.5592 -0.8241
vn -0.665 0.2396 -0.7073
vn -0.7743 0.3726 -0.5115
vn -0.2958 0.7757 -0.5575
vn -0.2111 0.6727 -0.7091
vn -0.7743 0.3726 -0.5115
vn -0.8291 0.483 -0.2817
vn -0.3383 0.8611 -0.3796
vn -0.2958 0.7757 -0.5575
vn -0.8291 0.483 -0.2817
vn -0.7743 0.3726 -0.5115
vn -0.9178 0.066 -0.3915
vn -0.97 0.1711 -0.1725
vn -0.8291 0.483 -0.2817
vn -0.8256 0.5632 -0.0336
vn -0.3354 0.9232 -0.1876
vn -0.3383 0.8611 -0.3796
vn -0.8256 0.5632 -0.0336
vn -0.8291 0.483 -0.2817
vn -0.97 0.1711 -0.1725
vn -0.9668 0.2474 0.0639
vn -0.8256 0.5632 -0.0336
vn -0.7643 0.6077 0.2159
vn -0.2879 0.9576 0.0056
vn -0.3354 0.9232 -0.1876
vn -0.7643 0.6077 0.2159
vn -0.8256 0.5632 -0.0336
vn -0.9668 0.2474 0.0639
vn -0.9084 0.2898 0.3015
vn -0.7643 0.6077 0.2159
vn -0.6492 0.6134 0.4498
vn -0.1989 0.9621 0.1867
vn -0.2879 0.9576 0.0056
vn -0.6492 0.6134 0.4498
vn -0.7643 0.6077 0.2159
vn -0.9084 0.2898 0.3015
vn -0.7987 0.2953 0.5243
vn -0.6492 0.6134 0.4498
vn -0.4882 0.5801 0.6521
vn -0.0742 0.9363 0.3434
vn -0.1989 0.9621 0.1867
vn -0.4882 0.5801 0.6521
vn -0.6492 0.6134 0.4498
vn -0.7987 0.2953 0.5243
vn -0.6452 0.2635 0.7171
vn -0.4882 0.5801 0.6521
vn -0.2922 0.5099 0.8091
vn 0.0775 0.8819 0.465
vn -0.0742 0.9363 0.3434
vn -0.2922 0.5099 0.8091
vn -0.4882 0.5801 0.6521
vn -0.6452 0.2635 0.7171
vn -0.4585 0.1967 0.8666
vn 0.2459 0.8028 0.5431
vn 0.0775 0.8819 0.465
vn -0.2922 0.5099 0.8091
vn -0.0746 0.4077 0.9101
vn -0.0746 0.4077 0.9101
vn -0.2922 0.5099 0.8091
vn -0.4585 0.1967 0.8666
vn -0.2512 0.0994 0.9628
vn 0.4197 0.7043 0.5725
vn 0.2459 0.8028 0.5431
vn -0.0746 0.4077 0.9101
vn 0.1498 0.2804 0.9481
vn 0.1498 0.2804 0.9481
vn -0.0746 0.4077 0.9101
vn -0.2512 0.0994 0.9628
vn -0.0374 -0.0219 0.9991
vn 0.1498 0.2804 0.9481
vn 0.3657 0.1368 0.9206
vn 0.5866 0.593 0.5516
vn 0.4197 0.7043 0.5725
vn 0.3657 0.1368 0.9206
vn 0.1498 0.2804 0.9481
vn -0.0374 -0.0219 0.9991
vn 0.1682 -0.1588 0.9729
vn 0.3657 0.1368 0.9206
vn 0.5583 -0.0135 0.8295
vn 0.736 0.4768 0.4806
vn 0.5866 0.593 0.5516
vn 0.5583 -0.0135 0.8295
vn 0.3657 0.1368 0.9206
vn 0.1682 -0.1588 0.9729
vn 0.3517 -0.3019 0.8861
vn 0.5583 -0.0135 0.8295
vn 0.7145 -0.1602 0.681
vn 0.8569 0.3632 0.3657
vn 0.736 0.4768 0.4806
vn 0.7145 -0.1602 0.681
vn 0.5583 -0.0135 0.8295
vn 0.3517 -0.3019 0.8861
vn 0.5006 -0.4416 0.7446
vn 0.9415 0.2602 0.2141
vn 0.8569 0.3632 0.3657
vn 0.7145 -0.1602 0.681
vn 0.8238 -0.2932 0.4852
vn 0.8238 -0.2932 0.4852
vn 0.7145 -0.1602 0.681
vn 0.5006 -0.4416 0.7446
vn 0.6046 -0.5683 0.558
vn 0.8238 -0.2932 0.4852
vn 0.8786 -0.4035 0.2554
vn 0.9839 0.1748 0.0362
vn 0.9415 0.2602 0.2141
vn 0.8786 -0.4035 0.2554
vn 0.8238 -0.2932 0.4852
vn 0.6046 -0.5683 0.558
vn 0.6569 -0.6735 0.3391
vn 0.8786 -0.4035 0.2554
vn 0.8752 -0.4836 0.0073
vn 0.9813 0.1127 -0.1559
vn 0.9839 0.1748 0.0362
vn 0.8752 -0.4836 0.0073
vn 0.8786 -0.4035 0.2554
vn 0.6569 -0.6735 0.3391
vn 0.6536 -0.7498 0.1027
vn 0.9338 0.0782 -0.3491
vn 0.9813 0.1127 -0.1559
vn 0.8752 -0.4836 0.0073
vn 0.8139 -0.5281 -0.2423
vn 0.8139 -0.5281 -0.2423
vn 0.8752 -0.4836 0.0073
vn 0.6536 -0.7498 0.1027
vn 0.5952 -0.7922 -0.1349
vn 0.8139 -0.5281 -0.2423
vn 0.6987 -0.5339 -0.4761
vn 0.8447 0.0737 -0.5302
vn 0.9338 0.0782 -0.3491
vn 0.6987 -0.5339 -0.4761
vn 0.8139 -0.5281 -0.2423
vn 0.5952 -0.7922 -0.1349
vn 0.4855 -0.7977 -0.3578
vn 0.6987 -0.5339 -0.4761
vn 0.5377 -0.5006 -0.6784
vn 0.72 0.0996 -0.6868
vn 0.8447 0.0737 -0.5302
vn 0.5377 -0.5006 -0.6784
vn 0.6987 -0.5339 -0.4761
vn 0.4855 -0.7977 -0.3578
vn 0.3321 -0.7659 -0.5505
vn 0.5377 -0.5006 -0.6784
vn 0.3417 -0.4305 -0.8354
vn 0.5683 0.154 -0.8083
vn 0.72 0.0996 -0.6868
vn 0.3417 -0.4305 -0.8354
vn 0.5377 -0.5006 -0.6784
vn 0.3321 -0.7659 -0.5505
vn 0.1453 -0.6991 -0.7001
vn 0.3417 -0.4305 -0.8354
vn 0.124 -0.3284 -0.9364
vn 0.3997 0.233 -0.8865
vn 0.5683 0.154 -0.8083
vn 0.124 -0.3284 -0.9364
vn 0.3417 -0.4305 -0.8354
vn 0.1453 -0.6991 -0.7001
vn -0.062 -0.6018 -0.7963
vn 0.124 -0.3284 -0.9364
vn -0.1003 -0.201 -0.9744
vn 0.226 0.3315 -0.916
vn 0.3997 0.233 -0.8865
vn 0.5683 0.154 -0.8083
vn 0.3997 0.233 -0.8865
vn 0.5187 0.716 -0.4671
vn 0.5664 0.6938 -0.4447
vn 0.72 0.0996 -0.6868
vn 0.5683 0.154 -0.8083
vn 0.5664 0.6938 -0.4447
vn 0.6095 0.6784 -0.4103
vn 0.5093 0.8169 -0.2709
vn 0.5093 0.8168 -0.271
vn 0.5664 0.6938 -0.4447
vn 0.5187 0.716 -0.4671
vn 0.5093 0.8168 -0.271
vn 0.5093 0.8168 -0.271
vn 0.6095 0.6784 -0.4103
vn 0.5664 0.6938 -0.4447
vn 0.5093 0.8168 -0.271
vn 0.5094 0.8168 -0.2709
vn 0.6449 0.671 -0.3659
vn 0.6095 0.6784 -0.4103
vn 0.5094 0.8168 -0.2709
vn 0.5093 0.8168 -0.2708
vn 0.6701 0.6723 -0.3145
vn 0.6449 0.671 -0.3659
vn 0.9338 0.0782 -0.3491
vn 0.8447 0.0737 -0.5302
vn 0.6449 0.671 -0.3659
vn 0.6701 0.6723 -0.3145
vn 0.8447 0.0737 -0.5302
vn 0.72 0.0996 -0.6868
vn 0.6095 0.6784 -0.4103
vn 0.6449 0.671 -0.3659
vn 0.6701 0.6723 -0.3145
vn 0.6835 0.6821 -0.2597
vn 0.9813 0.1127 -0.1559
vn 0.9338 0.0782 -0.3491
vn 0.5093 0.8168 -0.2708
vn 0.5092 0.8169 -0.2708
vn 0.6835 0.6821 -0.2597
vn 0.6701 0.6723 -0.3145
vn 0.9839 0.1748 0.0362
vn 0.9813 0.1127 -0.1559
vn 0.6835 0.6821 -0.2597
vn 0.6843 0.6997 -0.2053
vn 0.5092 0.8169 -0.2708
vn 0.5092 0.8169 -0.2708
vn 0.6843 0.6997 -0.2053
vn 0.6835 0.6821 -0.2597
vn 0.5092 0.8169 -0.2708
vn 0.5093 0.8169 -0.2708
vn 0.6722 0.724 -0.1549
vn 0.6843 0.6997 -0.2053
vn 0.5093 0.8169 -0.2708
vn 0.5093 0.8169 -0.2708
vn 0.6483 0.7531 -0.1119
vn 0.6722 0.724 -0.1549
vn 0.9415 0.2602 0.2141
vn 0.9839 0.1748 0.0362
vn 0.6843 0.6997 -0.2053
vn 0.6722 0.724 -0.1549
vn 0.6722 0.724 -0.1549
vn 0.6483 0.7531 -0.1119
vn 0.8569 0.3632 0.3657
vn 0.9415 0.2602 0.2141
vn 0.736 0.4768 0.4806
vn 0.8569 0.3632 0.3657
vn 0.6483 0.7531 -0.1119
vn 0.6139 0.7854 -0.0793
vn 0.5093 0.8169 -0.2708
vn 0.5093 0.8169 -0.2708
vn 0.6139 0.7854 -0.0793
vn 0.6483 0.7531 -0.1119
vn 0.5866 0.593 0.5516
vn 0.736 0.4768 0.4806
vn 0.6139 0.7854 -0.0793
vn 0.5717 0.8183 -0.0593
vn 0.5093 0.8169 -0.2708
vn 0.5093 0.8169 -0.2708
vn 0.5717 0.8183 -0.0593
vn 0.6139 0.7854 -0.0793
vn 0.5093 0.8169 -0.2708
vn 0.5093 0.8168 -0.2709
vn 0.5243 0.8498 -0.0533
vn 0.5717 0.8183 -0.0593
vn 0.5093 0.8168 -0.2709
vn 0.5093 0.8168 -0.2711
vn 0.475 0.8778 -0.0616
vn 0.5243 0.8498 -0.0533
vn 0.4197 0.7043 0.5725
vn 0.5866 0.593 0.5516
vn 0.5717 0.8183 -0.0593
vn 0.5243 0.8498 -0.0533
vn 0.5243 0.8498 -0.0533
vn 0.475 0.8778 -0.0616
vn 0.2459 0.8028 0.5431
vn 0.4197 0.7043 0.5725
vn 0.475 0.8778 -0.0616
vn 0.4273 0.9002 -0.0837
vn 0.0775 0.8819 0.465
vn 0.2459 0.8028 0.5431
vn 0.5093 0.8168 -0.2711
vn 0.5093 0.8168 -0.2711
vn 0.4273 0.9002 -0.0837
vn 0.475 0.8778 -0.0616
vn -0.0742 0.9363 0.3434
vn 0.0775 0.8819 0.465
vn 0.4273 0.9002 -0.0837
vn 0.3843 0.9156 -0.1182
vn 0.5093 0.8168 -0.2711
vn 0.5093 0.8168 -0.271
vn 0.3843 0.9156 -0.1182
vn 0.4273 0.9002 -0.0837
vn 0.5093 0.8168 -0.271
vn 0.5093 0.8168 -0.2709
vn 0.3489 0.9229 -0.1626
vn 0.3843 0.9156 -0.1182
vn 0.5093 0.8168 -0.2709
vn 0.5092 0.817 -0.2708
vn 0.3236 0.9217 -0.214
vn 0.3489 0.9229 -0.1626
vn -0.2879 0.9576 0.0056
vn -0.1989 0.9621 0.1867
vn 0.3489 0.9229 -0.1626
vn 0.3236 0.9217 -0.214
vn -0.1989 0.9621 0.1867
vn -0.0742 0.9363 0.3434
vn 0.3843 0.9156 -0.1182
vn 0.3489 0.9229 -0.1626
vn -0.3354 0.9232 -0.1876
vn -0.2879 0.9576 0.0056
vn 0.3236 0.9217 -0.214
vn 0.3101 0.9119 -0.2687
vn 0.5092 0.817 -0.2708
vn 0.5091 0.817 -0.2708
vn 0.3101 0.9119 -0.2687
vn 0.3236 0.9217 -0.214
vn -0.3383 0.8611 -0.3796
vn -0.3354 0.9232 -0.1876
vn 0.3101 0.9119 -0.2687
vn 0.3094 0.8943 -0.3232
vn 0.5091 0.817 -0.2708
vn 0.5091 0.817 -0.2709
vn 0.3094 0.8943 -0.3232
vn 0.3101 0.9119 -0.2687
vn 0.5091 0.817 -0.2709
vn 0.5092 0.8169 -0.2708
vn 0.3214 0.8701 -0.3736
vn 0.3094 0.8943 -0.3232
vn 0.5092 0.8169 -0.2708
vn 0.5092 0.8169 -0.2709
vn 0.3455 0.8409 -0.4166
vn 0.3214 0.8701 -0.3736
vn -0.2111 0.6727 -0.7091
vn -0.2958 0.7757 -0.5575
vn 0.3214 0.8701 -0.3736
vn 0.3455 0.8409 -0.4166
vn -0.2958 0.7757 -0.5575
vn -0.3383 0.8611 -0.3796
vn 0.3094 0.8943 -0.3232
vn 0.3214 0.8701 -0.3736
vn -0.0901 0.5592 -0.8241
vn -0.2111 0.6727 -0.7091
vn 0.3455 0.8409 -0.4166
vn 0.3797 0.8087 -0.4492
vn 0.5092 0.8169 -0.2709
vn 0.5092 0.8169 -0.2709
vn 0.3797 0.8087 -0.4492
vn 0.3455 0.8409 -0.4166
vt 0.375645 0.317523
vt 0.375578 0.312606
vt 0.373811 0.312909
vt 0.374 0.317394
vt 0.374813 0.322343
vt 0.375645 0.317523
vt 0.374 0.317394
vt 0.373168 0.32179
vt 0.372968 0.317317
vt 0.372141 0.321446
vt 0.373168 0.32179
vt 0.374 0.317394
vt 0.372753 0.313106
vt 0.372968 0.317317
vt 0.374 0.317394
vt 0.373811 0.312909
vt 0.371212 0.325966
vt 0.373168 0.32179
vt 0.372141 0.321446
vt 0.370257 0.325339
vt 0.372692 0.326966
vt 0.374813 0.322343
vt 0.373168 0.32179
vt 0.371212 0.325966
vt 0.370257 0.325339
vt 0.372141 0.321446
vt 0.371209 0.321137
vt 0.369421 0.32479
vt 0.372006 0.317245
vt 0.371209 0.321137
vt 0.372141 0.321446
vt 0.372968 0.317317
vt 0.369421 0.32479
vt 0.371209 0.321137
vt 0.369093 0.320444
vt 0.36754 0.323557
vt 0.371209 0.321137
vt 0.372006 0.317245
vt 0.369797 0.317088
vt 0.369093 0.320444
vt 0.36754 0.323557
vt 0.369093 0.320444
vt 0.366258 0.319491
vt 0.365028 0.321869
vt 0.369093 0.320444
vt 0.369797 0.317088
vt 0.366825 0.316882
vt 0.366258 0.319491
vt 0.372006 0.317245
vt 0.371784 0.31328
vt 0.369643 0.31366
vt 0.369797 0.317088
vt 0.369797 0.317088
vt 0.369643 0.31366
vt 0.366706 0.314217
vt 0.366825 0.316882
vt 0.366825 0.316882
vt 0.366706 0.314217
vt 0.364079 0.314679
vt 0.364186 0.316658
vt 0.366258 0.319491
vt 0.366825 0.316882
vt 0.364186 0.316658
vt 0.363744 0.318591
vt 0.364186 0.316658
vt 0.364079 0.314679
vt 0.361625 0.315101
vt 0.361688 0.316433
vt 0.363744 0.318591
vt 0.364186 0.316658
vt 0.361688 0.316433
vt 0.361404 0.317738
vt 0.365028 0.321869
vt 0.366258 0.319491
vt 0.363744 0.318591
vt 0.362851 0.320362
vt 0.362851 0.320362
vt 0.363744 0.318591
vt 0.361404 0.317738
vt 0.360794 0.31893
vt 0.360794 0.31893
vt 0.361404 0.317738
vt 0.359089 0.316908
vt 0.358768 0.317528
vt 0.361404 0.317738
vt 0.361688 0.316433
vt 0.359238 0.316227
vt 0.359089 0.316908
vt 0.356573 0.315998
vt 0.358768 0.317528
vt 0.359089 0.316908
vt 0.356573 0.315998
vt 0.359089 0.316908
vt 0.359238 0.316227
vt 0.356573 0.315998
vt 0.359238 0.316227
vt 0.359206 0.31553
vt 0.356573 0.315998
vt 0.359206 0.31553
vt 0.358995 0.314866
vt 0.356573 0.315998
vt 0.358995 0.314866
vt 0.358621 0.314278
vt 0.356573 0.315998
vt 0.358621 0.314278
vt 0.358107 0.313807
vt 0.356573 0.315998
vt 0.358107 0.313807
vt 0.357489 0.313484
vt 0.356573 0.315998
vt 0.357489 0.313484
vt 0.356808 0.313331
vt 0.356573 0.315998
vt 0.356808 0.313331
vt 0.356109 0.31336
vt 0.356573 0.315998
vt 0.356109 0.31336
vt 0.355442 0.31357
vt 0.356573 0.315998
vt 0.355442 0.31357
vt 0.354852 0.313945
vt 0.356573 0.315998
vt 0.354852 0.313945
vt 0.354379 0.31446
vt 0.356573 0.315998
vt 0.354379 0.31446
vt 0.354055 0.31508
vt 0.356573 0.315998
vt 0.354055 0.31508
vt 0.353901 0.315763
vt 0.356573 0.315998
vt 0.353901 0.315763
vt 0.353931 0.316464
vt 0.356573 0.315998
vt 0.353931 0.316464
vt 0.354141 0.317133
vt 0.356573 0.315998
vt 0.354141 0.317133
vt 0.354519 0.317724
vt 0.356573 0.315998
vt 0.354519 0.317724
vt 0.355036 0.318198
vt 0.356573 0.315998
vt 0.355036 0.318198
vt 0.355659 0.318521
vt 0.356573 0.315998
vt 0.355659 0.318521
vt 0.356345 0.318671
vt 0.356573 0.315998
vt 0.356345 0.318671
vt 0.357044 0.318637
vt 0.356573 0.315998
vt 0.357044 0.318637
vt 0.357711 0.318424
vt 0.356573 0.315998
vt 0.357711 0.318424
vt 0.358299 0.318045
vt 0.356573 0.315998
vt 0.358299 0.318045
vt 0.358768 0.317528
vt 0.359896 0.319927
vt 0.360794 0.31893
vt 0.358768 0.317528
vt 0.358299 0.318045
vt 0.358768 0.320657
vt 0.359896 0.319927
vt 0.358299 0.318045
vt 0.357711 0.318424
vt 0.361524 0.32186
vt 0.362851 0.320362
vt 0.360794 0.31893
vt 0.359896 0.319927
vt 0.35983 0.322929
vt 0.361524 0.32186
vt 0.359896 0.319927
vt 0.358768 0.320657
vt 0.357932 0.323557
vt 0.35983 0.322929
vt 0.358768 0.320657
vt 0.357486 0.321072
vt 0.357486 0.321072
vt 0.358768 0.320657
vt 0.357711 0.318424
vt 0.357044 0.318637
vt 0.355935 0.323642
vt 0.357932 0.323557
vt 0.357486 0.321072
vt 0.356137 0.321143
vt 0.356137 0.321143
vt 0.357486 0.321072
vt 0.357044 0.318637
vt 0.356345 0.318671
vt 0.353969 0.323244
vt 0.355935 0.323642
vt 0.356137 0.321143
vt 0.354816 0.320853
vt 0.354816 0.320853
vt 0.356137 0.321143
vt 0.356345 0.318671
vt 0.355659 0.318521
vt 0.352186 0.322312
vt 0.353969 0.323244
vt 0.354816 0.320853
vt 0.353618 0.320231
vt 0.353618 0.320231
vt 0.354816 0.320853
vt 0.355659 0.318521
vt 0.355036 0.318198
vt 0.350672 0.320967
vt 0.352186 0.322312
vt 0.353618 0.320231
vt 0.352624 0.319318
vt 0.352624 0.319318
vt 0.353618 0.320231
vt 0.355036 0.318198
vt 0.354519 0.317724
vt 0.349589 0.319248
vt 0.350672 0.320967
vt 0.352624 0.319318
vt 0.351892 0.318183
vt 0.351892 0.318183
vt 0.352624 0.319318
vt 0.354519 0.317724
vt 0.354141 0.317133
vt 0.348991 0.317321
vt 0.349589 0.319248
vt 0.351892 0.318183
vt 0.351483 0.316893
vt 0.351483 0.316893
vt 0.351892 0.318183
vt 0.354141 0.317133
vt 0.353931 0.316464
vt 0.348933 0.315319
vt 0.348991 0.317321
vt 0.351483 0.316893
vt 0.351434 0.315542
vt 0.351434 0.315542
vt 0.351483 0.316893
vt 0.353931 0.316464
vt 0.353901 0.315763
vt 0.349362 0.313369
vt 0.348933 0.315319
vt 0.351434 0.315542
vt 0.351732 0.314227
vt 0.351732 0.314227
vt 0.351434 0.315542
vt 0.353901 0.315763
vt 0.354055 0.31508
vt 0.350282 0.311584
vt 0.349362 0.313369
vt 0.351732 0.314227
vt 0.352359 0.313034
vt 0.352359 0.313034
vt 0.351732 0.314227
vt 0.354055 0.31508
vt 0.354379 0.31446
vt 0.351655 0.310125
vt 0.350282 0.311584
vt 0.352359 0.313034
vt 0.353272 0.312049
vt 0.353272 0.312049
vt 0.352359 0.313034
vt 0.354379 0.31446
vt 0.354852 0.313945
vt 0.353345 0.309048
vt 0.351655 0.310125
vt 0.353272 0.312049
vt 0.354408 0.311335
vt 0.354408 0.311335
vt 0.353272 0.312049
vt 0.354852 0.313945
vt 0.355442 0.31357
vt 0.355261 0.308448
vt 0.353345 0.309048
vt 0.354408 0.311335
vt 0.355686 0.310929
vt 0.355686 0.310929
vt 0.354408 0.311335
vt 0.355442 0.31357
vt 0.356109 0.31336
vt 0.357262 0.308363
vt 0.355261 0.308448
vt 0.355686 0.310929
vt 0.357029 0.310869
vt 0.357029 0.310869
vt 0.355686 0.310929
vt 0.356109 0.31336
vt 0.356808 0.313331
vt 0.359201 0.308825
vt 0.357262 0.308363
vt 0.357029 0.310869
vt 0.358339 0.311171
vt 0.358339 0.311171
vt 0.357029 0.310869
vt 0.356808 0.313331
vt 0.357489 0.313484
vt 0.360976 0.309738
vt 0.359201 0.308825
vt 0.358339 0.311171
vt 0.359523 0.311798
vt 0.359523 0.311798
vt 0.358339 0.311171
vt 0.357489 0.313484
vt 0.358107 0.313807
vt 0.362425 0.311106
vt 0.360976 0.309738
vt 0.359523 0.311798
vt 0.36051 0.312699
vt 0.36051 0.312699
vt 0.359523 0.311798
vt 0.358107 0.313807
vt 0.358621 0.314278
vt 0.3635 0.312777
vt 0.362425 0.311106
vt 0.36051 0.312699
vt 0.361221 0.313831
vt 0.361221 0.313831
vt 0.36051 0.312699
vt 0.358621 0.314278
vt 0.358995 0.314866
vt 0.364079 0.314679
vt 0.3635 0.312777
vt 0.361221 0.313831
vt 0.361625 0.315101
vt 0.361625 0.315101
vt 0.361221 0.313831
vt 0.358995 0.314866
vt 0.359206 0.31553
vt 0.361688 0.316433
vt 0.361625 0.315101
vt 0.359206 0.31553
vt 0.359238 0.316227
vt 0.365903 0.311667
vt 0.36448 0.309404
vt 0.362425 0.311106
vt 0.3635 0.312777
vt 0.366706 0.314217
vt 0.365903 0.311667
vt 0.3635 0.312777
vt 0.364079 0.314679
vt 0.368573 0.310385
vt 0.366728 0.30751
vt 0.36448 0.309404
vt 0.365903 0.311667
vt 0.369643 0.31366
vt 0.368573 0.310385
vt 0.365903 0.311667
vt 0.366706 0.314217
vt 0.366728 0.30751
vt 0.364249 0.305142
vt 0.362526 0.307554
vt 0.36448 0.309404
vt 0.36448 0.309404
vt 0.362526 0.307554
vt 0.360976 0.309738
vt 0.362425 0.311106
vt 0.364249 0.305142
vt 0.361199 0.303538
vt 0.360133 0.306318
vt 0.362526 0.307554
vt 0.362526 0.307554
vt 0.360133 0.306318
vt 0.359201 0.308825
vt 0.360976 0.309738
vt 0.361199 0.303538
vt 0.357825 0.302712
vt 0.35752 0.305741
vt 0.360133 0.306318
vt 0.360133 0.306318
vt 0.35752 0.305741
vt 0.357262 0.308363
vt 0.359201 0.308825
vt 0.357825 0.302712
vt 0.354313 0.30282
vt 0.354837 0.305806
vt 0.35752 0.305741
vt 0.35752 0.305741
vt 0.354837 0.305806
vt 0.355261 0.308448
vt 0.357262 0.308363
vt 0.354313 0.30282
vt 0.350953 0.303868
vt 0.35224 0.30659
vt 0.354837 0.305806
vt 0.354837 0.305806
vt 0.35224 0.30659
vt 0.353345 0.309048
vt 0.355261 0.308448
vt 0.350953 0.303868
vt 0.348007 0.305746
vt 0.349918 0.308028
vt 0.35224 0.30659
vt 0.35224 0.30659
vt 0.349918 0.308028
vt 0.351655 0.310125
vt 0.353345 0.309048
vt 0.348007 0.305746
vt 0.345646 0.30829
vt 0.348093 0.310043
vt 0.349918 0.308028
vt 0.349918 0.308028
vt 0.348093 0.310043
vt 0.350282 0.311584
vt 0.351655 0.310125
vt 0.345646 0.30829
vt 0.343984 0.311358
vt 0.346864 0.312428
vt 0.348093 0.310043
vt 0.348093 0.310043
vt 0.346864 0.312428
vt 0.349362 0.313369
vt 0.350282 0.311584
vt 0.343984 0.311358
vt 0.343233 0.314773
vt 0.346236 0.315058
vt 0.346864 0.312428
vt 0.346864 0.312428
vt 0.346236 0.315058
vt 0.348933 0.315319
vt 0.349362 0.313369
vt 0.343233 0.314773
vt 0.34333 0.318296
vt 0.346306 0.3178
vt 0.346236 0.315058
vt 0.346236 0.315058
vt 0.346306 0.3178
vt 0.348991 0.317321
vt 0.348933 0.315319
vt 0.34333 0.318296
vt 0.344352 0.321711
vt 0.347156 0.320405
vt 0.346306 0.3178
vt 0.346306 0.3178
vt 0.347156 0.320405
vt 0.349589 0.319248
vt 0.348991 0.317321
vt 0.344352 0.321711
vt 0.346315 0.324665
vt 0.348601 0.322725
vt 0.347156 0.320405
vt 0.347156 0.320405
vt 0.348601 0.322725
vt 0.350672 0.320967
vt 0.349589 0.319248
vt 0.346315 0.324665
vt 0.348903 0.327054
vt 0.350646 0.324553
vt 0.348601 0.322725
vt 0.348601 0.322725
vt 0.350646 0.324553
vt 0.352186 0.322312
vt 0.350672 0.320967
vt 0.348903 0.327054
vt 0.352046 0.328619
vt 0.353078 0.325774
vt 0.350646 0.324553
vt 0.350646 0.324553
vt 0.353078 0.325774
vt 0.353969 0.323244
vt 0.352186 0.322312
vt 0.352046 0.328619
vt 0.355458 0.329317
vt 0.355726 0.326322
vt 0.353078 0.325774
vt 0.353078 0.325774
vt 0.355726 0.326322
vt 0.355935 0.323642
vt 0.353969 0.323244
vt 0.355458 0.329317
vt 0.358959 0.329171
vt 0.35841 0.326161
vt 0.355726 0.326322
vt 0.355726 0.326322
vt 0.35841 0.326161
vt 0.357932 0.323557
vt 0.355935 0.323642
vt 0.358959 0.329171
vt 0.362311 0.328102
vt 0.360982 0.325364
vt 0.35841 0.326161
vt 0.35841 0.326161
vt 0.360982 0.325364
vt 0.35983 0.322929
vt 0.357932 0.323557
vt 0.362311 0.328102
vt 0.365204 0.326148
vt 0.363265 0.323902
vt 0.360982 0.325364
vt 0.360982 0.325364
vt 0.363265 0.323902
vt 0.361524 0.32186
vt 0.35983 0.322929
vt 0.365204 0.326148
vt 0.36754 0.323557
vt 0.365028 0.321869
vt 0.363265 0.323902
vt 0.363265 0.323902
vt 0.365028 0.321869
vt 0.362851 0.320362
vt 0.361524 0.32186
vt 0.36328 0.330119
vt 0.366712 0.327889
vt 0.365204 0.326148
vt 0.362311 0.328102
vt 0.366712 0.327889
vt 0.369421 0.32479
vt 0.36754 0.323557
vt 0.365204 0.326148
vt 0.369421 0.32479
vt 0.366712 0.327889
vt 0.367379 0.32866
vt 0.370257 0.325339
vt 0.366712 0.327889
vt 0.36328 0.330119
vt 0.363712 0.331026
vt 0.367379 0.32866
vt 0.36328 0.330119
vt 0.359382 0.331399
vt 0.359564 0.332389
vt 0.363712 0.331026
vt 0.359382 0.331399
vt 0.36328 0.330119
vt 0.362311 0.328102
vt 0.358959 0.329171
vt 0.359382 0.331399
vt 0.355273 0.331611
vt 0.355191 0.332598
vt 0.359564 0.332389
vt 0.355273 0.331611
vt 0.359382 0.331399
vt 0.358959 0.329171
vt 0.355458 0.329317
vt 0.355273 0.331611
vt 0.351285 0.330752
vt 0.35095 0.331705
vt 0.355191 0.332598
vt 0.351285 0.330752
vt 0.355273 0.331611
vt 0.355458 0.329317
vt 0.352046 0.328619
vt 0.351285 0.330752
vt 0.347643 0.32891
vt 0.347077 0.329741
vt 0.35095 0.331705
vt 0.347643 0.32891
vt 0.351285 0.330752
vt 0.352046 0.328619
vt 0.348903 0.327054
vt 0.347643 0.32891
vt 0.344554 0.326171
vt 0.343794 0.326825
vt 0.347077 0.329741
vt 0.344554 0.326171
vt 0.347643 0.32891
vt 0.348903 0.327054
vt 0.346315 0.324665
vt 0.344554 0.326171
vt 0.342305 0.322673
vt 0.34138 0.323109
vt 0.343794 0.326825
vt 0.342305 0.322673
vt 0.344554 0.326171
vt 0.346315 0.324665
vt 0.344352 0.321711
vt 0.34005 0.31885
vt 0.34138 0.323109
vt 0.342305 0.322673
vt 0.341068 0.318681
vt 0.341068 0.318681
vt 0.342305 0.322673
vt 0.344352 0.321711
vt 0.34333 0.318296
vt 0.339945 0.314422
vt 0.34005 0.31885
vt 0.341068 0.318681
vt 0.340935 0.314532
vt 0.340935 0.314532
vt 0.341068 0.318681
vt 0.34333 0.318296
vt 0.343233 0.314773
vt 0.340935 0.314532
vt 0.341902 0.310572
vt 0.340972 0.310217
vt 0.339945 0.314422
vt 0.341902 0.310572
vt 0.340935 0.314532
vt 0.343233 0.314773
vt 0.343984 0.311358
vt 0.341902 0.310572
vt 0.343811 0.307013
vt 0.343005 0.306444
vt 0.340972 0.310217
vt 0.343811 0.307013
vt 0.341902 0.310572
vt 0.343984 0.311358
vt 0.345646 0.30829
vt 0.343811 0.307013
vt 0.346543 0.304044
vt 0.345895 0.30328
vt 0.343005 0.306444
vt 0.346543 0.304044
vt 0.343811 0.307013
vt 0.345646 0.30829
vt 0.348007 0.305746
vt 0.34954 0.300919
vt 0.345895 0.30328
vt 0.346543 0.304044
vt 0.349971 0.301828
vt 0.349971 0.301828
vt 0.346543 0.304044
vt 0.348007 0.305746
vt 0.350953 0.303868
vt 0.349971 0.301828
vt 0.35392 0.300567
vt 0.353753 0.299576
vt 0.34954 0.300919
vt 0.35392 0.300567
vt 0.349971 0.301828
vt 0.350953 0.303868
vt 0.354313 0.30282
vt 0.35392 0.300567
vt 0.358048 0.300455
vt 0.358154 0.299457
vt 0.353753 0.299576
vt 0.358048 0.300455
vt 0.35392 0.300567
vt 0.354313 0.30282
vt 0.357825 0.302712
vt 0.362363 0.300478
vt 0.358154 0.299457
vt 0.358048 0.300455
vt 0.362005 0.301405
vt 0.362005 0.301405
vt 0.358048 0.300455
vt 0.357825 0.302712
vt 0.361199 0.303538
vt 0.362005 0.301405
vt 0.365538 0.303358
vt 0.366114 0.302563
vt 0.362363 0.300478
vt 0.365538 0.303358
vt 0.362005 0.301405
vt 0.361199 0.303538
vt 0.364249 0.305142
vt 0.365538 0.303358
vt 0.368461 0.306089
vt 0.369211 0.305467
vt 0.366114 0.302563
vt 0.368461 0.306089
vt 0.365538 0.303358
vt 0.364249 0.305142
vt 0.366728 0.30751
vt 0.368461 0.306089
vt 0.37058 0.309458
vt 0.371464 0.309043
vt 0.369211 0.305467
vt 0.37058 0.309458
vt 0.368461 0.306089
vt 0.366728 0.30751
vt 0.368573 0.310385
vt 0.37058 0.309458
vt 0.371784 0.31328
vt 0.372753 0.313106
vt 0.371464 0.309043
vt 0.371784 0.31328
vt 0.37058 0.309458
vt 0.368573 0.310385
vt 0.369643 0.31366
vt 0.371784 0.31328
vt 0.372006 0.317245
vt 0.372968 0.317317
vt 0.372753 0.313106
vt 0.371464 0.309043
vt 0.372753 0.313106
vt 0.373811 0.312909
vt 0.372434 0.308574
vt 0.369211 0.305467
vt 0.371464 0.309043
vt 0.372434 0.308574
vt 0.370036 0.304778
vt 0.375578 0.312606
vt 0.374006 0.30786
vt 0.372434 0.308574
vt 0.373811 0.312909
vt 0.374006 0.30786
vt 0.371317 0.30373
vt 0.370036 0.304778
vt 0.372434 0.308574
vt 0.371317 0.30373
vt 0.367778 0.300246
vt 0.366774 0.301661
vt 0.370036 0.304778
vt 0.367778 0.300246
vt 0.363361 0.297838
vt 0.362748 0.29949
vt 0.366774 0.301661
vt 0.362363 0.300478
vt 0.366114 0.302563
vt 0.366774 0.301661
vt 0.362748 0.29949
vt 0.366114 0.302563
vt 0.369211 0.305467
vt 0.370036 0.304778
vt 0.366774 0.301661
vt 0.362748 0.29949
vt 0.358269 0.298354
vt 0.358154 0.299457
vt 0.362363 0.300478
vt 0.363361 0.297838
vt 0.358449 0.296572
vt 0.358269 0.298354
vt 0.362748 0.29949
vt 0.353753 0.299576
vt 0.358154 0.299457
vt 0.358269 0.298354
vt 0.353557 0.298465
vt 0.358449 0.296572
vt 0.353247 0.296601
vt 0.353557 0.298465
vt 0.358269 0.298354
vt 0.353247 0.296601
vt 0.348276 0.29826
vt 0.349041 0.299882
vt 0.353557 0.298465
vt 0.348276 0.29826
vt 0.344087 0.301165
vt 0.345191 0.302441
vt 0.349041 0.299882
vt 0.34954 0.300919
vt 0.353753 0.299576
vt 0.353557 0.298465
vt 0.349041 0.299882
vt 0.349041 0.299882
vt 0.345191 0.302441
vt 0.345895 0.30328
vt 0.34954 0.300919
vt 0.343005 0.306444
vt 0.345895 0.30328
vt 0.345191 0.302441
vt 0.342126 0.305807
vt 0.344087 0.301165
vt 0.340692 0.304827
vt 0.342126 0.305807
vt 0.345191 0.302441
vt 0.340972 0.310217
vt 0.343005 0.306444
vt 0.342126 0.305807
vt 0.339984 0.309834
vt 0.340692 0.304827
vt 0.338338 0.309228
vt 0.339984 0.309834
vt 0.342126 0.305807
vt 0.338338 0.309228
vt 0.337058 0.314117
vt 0.33884 0.314305
vt 0.339984 0.309834
vt 0.337058 0.314117
vt 0.337058 0.319345
vt 0.338933 0.319044
vt 0.33884 0.314305
vt 0.339945 0.314422
vt 0.340972 0.310217
vt 0.339984 0.309834
vt 0.33884 0.314305
vt 0.33884 0.314305
vt 0.338933 0.319044
vt 0.34005 0.31885
vt 0.339945 0.314422
vt 0.338933 0.319044
vt 0.340358 0.323602
vt 0.34138 0.323109
vt 0.34005 0.31885
vt 0.337058 0.319345
vt 0.338693 0.324353
vt 0.340358 0.323602
vt 0.338933 0.319044
vt 0.343794 0.326825
vt 0.34138 0.323109
vt 0.340358 0.323602
vt 0.342918 0.327582
vt 0.338693 0.324353
vt 0.34153 0.328736
vt 0.342918 0.327582
vt 0.340358 0.323602
vt 0.34153 0.328736
vt 0.34543 0.332123
vt 0.34645 0.330658
vt 0.342918 0.327582
vt 0.34543 0.332123
vt 0.34998 0.334368
vt 0.350595 0.332712
vt 0.34645 0.330658
vt 0.35095 0.331705
vt 0.347077 0.329741
vt 0.34645 0.330658
vt 0.350595 0.332712
vt 0.347077 0.329741
vt 0.343794 0.326825
vt 0.342918 0.327582
vt 0.34645 0.330658
vt 0.355191 0.332598
vt 0.35095 0.331705
vt 0.350595 0.332712
vt 0.355094 0.333734
vt 0.34998 0.334368
vt 0.354936 0.335431
vt 0.355094 0.333734
vt 0.350595 0.332712
vt 0.359564 0.332389
vt 0.355191 0.332598
vt 0.355094 0.333734
vt 0.359757 0.333487
vt 0.354936 0.335431
vt 0.360096 0.335314
vt 0.359757 0.333487
vt 0.355094 0.333734
vt 0.360096 0.335314
vt 0.364927 0.33358
vt 0.364183 0.332031
vt 0.359757 0.333487
vt 0.364927 0.33358
vt 0.369293 0.330897
vt 0.368082 0.329478
vt 0.364183 0.332031
vt 0.367379 0.32866
vt 0.363712 0.331026
vt 0.364183 0.332031
vt 0.368082 0.329478
vt 0.363712 0.331026
vt 0.359564 0.332389
vt 0.359757 0.333487
vt 0.364183 0.332031
vt 0.370257 0.325339
vt 0.367379 0.32866
vt 0.368082 0.329478
vt 0.371212 0.325966
vt 0.369293 0.330897
vt 0.372692 0.326966
vt 0.371212 0.325966
vt 0.368082 0.329478
s off
f 1/1/1 2/2/2 3/3/3
f 1/1/1 3/3/3 4/4/4
f 5/5/5 6/6/6 7/7/7
f 5/5/5 7/7/7 8/8/8
f 9/9/9 10/10/10 11/11/11
f 9/9/9 11/11/11 12/12/12
f 13/13/13 14/14/14 15/15/15
f 13/13/13 15/15/15 16/16/16
f 17/17/17 18/18/18 19/19/19
f 17/17/17 19/19/19 20/20/20
f 21/21/21 22/22/22 23/23/23
f 21/21/21 23/23/23 24/24/24
f 25/25/25 26/26/26 27/27/27
f 25/25/25 27/27/27 28/28/28
f 29/29/29 30/30/30 31/31/31
f 29/29/29 31/31/31 32/32/32
f 33/33/33 34/34/34 35/35/35
f 33/33/33 35/35/35 36/36/36
f 37/37/37 38/38/38 39/39/39
f 37/37/37 39/39/39 40/40/40
f 41/41/41 42/42/42 43/43/43
f 41/41/41 43/43/43 44/44/44
f 45/45/45 46/46/46 47/47/47
f 45/45/45 47/47/47 48/48/48
f 49/49/49 50/50/50 51/51/51
f 49/49/49 51/51/51 52/52/52
f 53/53/53 54/54/54 55/55/55
f 53/53/53 55/55/55 56/56/56
f 57/57/57 58/58/58 59/59/59
f 57/57/57 59/59/59 60/60/60
f 61/61/61 62/62/62 63/63/63
f 61/61/61 63/63/63 64/64/64
f 65/65/65 66/66/66 67/67/67
f 65/65/65 67/67/67 68/68/68
f 69/69/69 70/70/70 71/71/71
f 69/69/69 71/71/71 72/72/72
f 73/73/73 74/74/74 75/75/75
f 73/73/73 75/75/75 76/76/76
f 77/77/77 78/78/78 79/79/79
f 77/77/77 79/79/79 80/80/80
f 81/81/81 82/82/82 83/83/83
f 81/81/81 83/83/83 84/84/84
f 85/85/85 86/86/86 87/87/87
f 85/85/85 87/87/87 88/88/88
f 89/89/89 90/90/90 91/91/91
f 92/92/92 93/93/93 94/94/94
f 95/95/95 96/96/96 97/97/97
f 98/98/98 99/99/99 100/100/100
f 101/101/101 102/102/102 103/103/103
f 104/104/104 105/105/105 106/106/106
f 107/107/107 108/108/108 109/109/109
f 110/110/110 111/111/111 112/112/112
f 113/113/113 114/114/114 115/115/115
f 116/116/116 117/117/117 118/118/118
f 119/119/119 120/120/120 121/121/121
f 122/122/122 123/123/123 124/124/124
f 125/125/125 126/126/126 127/127/127
f 128/128/128 129/129/129 130/130/130
f 131/131/131 132/132/132 133/133/133
f 134/134/134 135/135/135 136/136/136
f 137/137/137 138/138/138 139/139/139
f 140/140/140 141/141/141 142/142/142
f 143/143/143 144/144/144 145/145/145
f 146/146/146 147/147/147 148/148/148
f 149/149/149 150/150/150 151/151/151
f 152/152/152 153/153/153 154/154/154
f 155/155/155 156/156/156 157/157/157
f 158/158/158 159/159/159 160/160/160
f 161/161/161 162/162/162 163/163/163
f 161/161/161 163/163/163 164/164/164
f 165/165/165 166/166/166 167/167/167
f 165/165/165 167/167/167 168/168/168
f 169/169/169 170/170/170 171/171/171
f 169/169/169 171/171/171 172/172/172
f 173/173/173 174/174/174 175/175/175
f 173/173/173 175/175/175 176/176/176
f 177/177/177 178/178/178 179/179/179
f 177/177/177 179/179/179 180/180/180
f 181/181/181 182/182/182 183/183/183
f 181/181/181 183/183/183 184/184/184
f 185/185/185 186/186/186 187/187/187
f 185/185/185 187/187/187 188/188/188
f 189/189/189 190/190/190 191/191/191
f 189/189/189 191/191/191 192/192/192
f 193/193/193 194/194/194 195/195/195
f 193/193/193 195/195/195 196/196/196
f 197/197/197 198/198/198 199/199/199
f 197/197/197 199/199/199 200/200/200
f 201/201/201 202/202/202 203/203/203
f 201/201/201 203/203/203 204/204/204
f 205/205/205 206/206/206 207/207/207
f 205/205/205 207/207/207 208/208/208
f 209/209/209 210/210/210 211/211/211
f 209/209/209 211/211/211 212/212/212
f 213/213/213 214/214/214 215/215/215
f 213/213/213 215/215/215 216/216/216
f 217/217/217 218/218/218 219/219/219
f 217/217/217 219/219/219 220/220/220
f 221/221/221 222/222/222 223/223/223
f 221/221/221 223/223/223 224/224/224
f 225/225/225 226/226/226 227/227/227
f 225/225/225 227/227/227 228/228/228
f 229/229/229 230/230/230 231/231/231
f 229/229/229 231/231/231 232/232/232
f 233/233/233 234/234/234 235/235/235
f 233/233/233 235/235/235 236/236/236
f 237/237/237 238/238/238 239/239/239
f 237/237/237 239/239/239 240/240/240
f 241/241/241 242/242/242 243/243/243
f 241/241/241 243/243/243 244/244/244
f 245/245/245 246/246/246 247/247/247
f 245/245/245 247/247/247 248/248/248
f 249/249/249 250/250/250 251/251/251
f 249/249/249 251/251/251 252/252/252
f 253/253/253 254/254/254 255/255/255
f 253/253/253 255/255/255 256/256/256
f 257/257/257 258/258/258 259/259/259
f 257/257/257 259/259/259 260/260/260
f 261/261/261 262/262/262 263/263/263
f 261/261/261 263/263/263 264/264/264
f 265/265/265 266/266/266 267/267/267
f 265/265/265 267/267/267 268/268/268
f 269/269/269 270/270/270 271/271/271
f 269/269/269 271/271/271 272/272/272
f 273/273/273 274/274/274 275/275/275
f 273/273/273 275/275/275 276/276/276
f 277/277/277 278/278/278 279/279/279
f 277/277/277 279/279/279 280/280/280
f 281/281/281 282/282/282 283/283/283
f 281/281/281 283/283/283 284/284/284
f 285/285/285 286/286/286 287/287/287
f 285/285/285 287/287/287 288/288/288
f 289/289/289 290/290/290 291/291/291
f 289/289/289 291/291/291 292/292/292
f 293/293/293 294/294/294 295/295/295
f 293/293/293 295/295/295 296/296/296
f 297/297/297 298/298/298 299/299/299
f 297/297/297 299/299/299 300/300/300
f 301/301/301 302/302/302 303/303/303
f 301/301/301 303/303/303 304/304/304
f 305/305/305 306/306/306 307/307/307
f 305/305/305 307/307/307 308/308/308
f 309/309/309 310/310/310 311/311/311
f 309/309/309 311/311/311 312/312/312
f 313/313/313 314/314/314 315/315/315
f 313/313/313 315/315/315 316/316/316
f 317/317/317 318/318/318 319/319/319
f 317/317/317 319/319/319 320/320/320
f 321/321/321 322/322/322 323/323/323
f 321/321/321 323/323/323 324/324/324
f 325/325/325 326/326/326 327/327/327
f 325/325/325 327/327/327 328/328/328
f 329/329/329 330/330/330 331/331/331
f 329/329/329 331/331/331 332/332/332
f 333/333/333 334/334/334 335/335/335
f 333/333/333 335/335/335 336/336/336
f 337/337/337 338/338/338 339/339/339
f 337/337/337 339/339/339 340/340/340
f 341/341/341 342/342/342 343/343/343
f 341/341/341 343/343/343 344/344/344
f 345/345/345 346/346/346 347/347/347
f 345/345/345 347/347/347 348/348/348
f 349/349/349 350/350/350 351/351/351
f 349/349/349 351/351/351 352/352/352
f 353/353/353 354/354/354 355/355/355
f 353/353/353 355/355/355 356/356/356
f 357/357/357 358/358/358 359/359/359
f 357/357/357 359/359/359 360/360/360
f 361/361/361 362/362/362 363/363/363
f 361/361/361 363/363/363 364/364/364
f 365/365/365 366/366/366 367/367/367
f 365/365/365 367/367/367 368/368/368
f 369/369/369 370/370/370 371/371/371
f 369/369/369 371/371/371 372/372/372
f 373/373/373 374/374/374 375/375/375
f 373/373/373 375/375/375 376/376/376
f 377/377/377 378/378/378 379/379/379
f 377/377/377 379/379/379 380/380/380
f 381/381/381 382/382/382 383/383/383
f 381/381/381 383/383/383 384/384/384
f 385/385/385 386/386/386 387/387/387
f 385/385/385 387/387/387 388/388/388
f 389/389/389 390/390/390 391/391/391
f 389/389/389 391/391/391 392/392/392
f 393/393/393 394/394/394 395/395/395
f 393/393/393 395/395/395 396/396/396
f 397/397/397 398/398/398 399/399/399
f 397/397/397 399/399/399 400/400/400
f 401/401/401 402/402/402 403/403/403
f 401/401/401 403/403/403 404/404/404
f 405/405/405 406/406/406 407/407/407
f 405/405/405 407/407/407 408/408/408
f 409/409/409 410/410/410 411/411/411
f 409/409/409 411/411/411 412/412/412
f 413/413/413 414/414/414 415/415/415
f 413/413/413 415/415/415 416/416/416
f 417/417/417 418/418/418 419/419/419
f 417/417/417 419/419/419 420/420/420
f 421/421/421 422/422/422 423/423/423
f 421/421/421 423/423/423 424/424/424
f 425/425/425 426/426/426 427/427/427
f 425/425/425 427/427/427 428/428/428
f 429/429/429 430/430/430 431/431/431
f 429/429/429 431/431/431 432/432/432
f 433/433/433 434/434/434 435/435/435
f 433/433/433 435/435/435 436/436/436
f 437/437/437 438/438/438 439/439/439
f 437/437/437 439/439/439 440/440/440
f 441/441/441 442/442/442 443/443/443
f 441/441/441 443/443/443 444/444/444
f 445/445/445 446/446/446 447/447/447
f 445/445/445 447/447/447 448/448/448
f 449/449/449 450/450/450 451/451/451
f 449/449/449 451/451/451 452/452/452
f 453/453/453 454/454/454 455/455/455
f 453/453/453 455/455/455 456/456/456
f 457/457/457 458/458/458 459/459/459
f 457/457/457 459/459/459 460/460/460
f 461/461/461 462/462/462 463/463/463
f 461/461/461 463/463/463 464/464/464
f 465/465/465 466/466/466 467/467/467
f 465/465/465 467/467/467 468/468/468
f 469/469/469 470/470/470 471/471/471
f 469/469/469 471/471/471 472/472/472
f 473/473/473 474/474/474 475/475/475
f 473/473/473 475/475/475 476/476/476
f 477/477/477 478/478/478 479/479/479
f 477/477/477 479/479/479 480/480/480
f 481/481/481 482/482/482 483/483/483
f 481/481/481 483/483/483 484/484/484
f 485/485/485 486/486/486 487/487/487
f 485/485/485 487/487/487 488/488/488
f 489/489/489 490/490/490 491/491/491
f 489/489/489 491/491/491 492/492/492
f 493/493/493 494/494/494 495/495/495
f 493/493/493 495/495/495 496/496/496
f 497/497/497 498/498/498 499/499/499
f 497/497/497 499/499/499 500/500/500
f 501/501/501 502/502/502 503/503/503
f 501/501/501 503/503/503 504/504/504
f 505/505/505 506/506/506 507/507/507
f 505/505/505 507/507/507 508/508/508
f 509/509/509 510/510/510 511/511/511
f 509/509/509 511/511/511 512/512/512
f 513/513/513 514/514/514 515/515/515
f 513/513/513 515/515/515 516/516/516
f 517/517/517 518/518/518 519/519/519
f 517/517/517 519/519/519 520/520/520
f 521/521/521 522/522/522 523/523/523
f 521/521/521 523/523/523 524/524/524
f 525/525/525 526/526/526 527/527/527
f 525/525/525 527/527/527 528/528/528
f 529/529/529 530/530/530 531/531/531
f 529/529/529 531/531/531 532/532/532
f 533/533/533 534/534/534 535/535/535
f 533/533/533 535/535/535 536/536/536
f 537/537/537 538/538/538 539/539/539
f 537/537/537 539/539/539 540/540/540
f 541/541/541 542/542/542 543/543/543
f 541/541/541 543/543/543 544/544/544
f 545/545/545 546/546/546 547/547/547
f 545/545/545 547/547/547 548/548/548
f 549/549/549 550/550/550 551/551/551
f 549/549/549 551/551/551 552/552/552
f 553/553/553 554/554/554 555/555/555
f 553/553/553 555/555/555 556/556/556
f 557/557/557 558/558/558 559/559/559
f 557/557/557 559/559/559 560/560/560
f 561/561/561 562/562/562 563/563/563
f 561/561/561 563/563/563 564/564/564
f 565/565/565 566/566/566 567/567/567
f 565/565/565 567/567/567 568/568/568
f 569/569/569 570/570/570 571/571/571
f 569/569/569 571/571/571 572/572/572
f 573/573/573 574/574/574 575/575/575
f 573/573/573 575/575/575 576/576/576
f 577/577/577 578/578/578 579/579/579
f 577/577/577 579/579/579 580/580/580
f 581/581/581 582/582/582 583/583/583
f 581/581/581 583/583/583 584/584/584
f 585/585/585 586/586/586 587/587/587
f 585/585/585 587/587/587 588/588/588
f 589/589/589 590/590/590 591/591/591
f 589/589/589 591/591/591 592/592/592
f 593/593/593 594/594/594 595/595/595
f 593/593/593 595/595/595 596/596/596
f 597/597/597 598/598/598 599/599/599
f 597/597/597 599/599/599 600/600/600
f 601/601/601 602/602/602 603/603/603
f 601/601/601 603/603/603 604/604/604
f 605/605/605 606/606/606 607/607/607
f 605/605/605 607/607/607 608/608/608
f 609/609/609 610/610/610 611/611/611
f 609/609/609 611/611/611 612/612/612
f 613/613/613 614/614/614 615/615/615
f 613/613/613 615/615/615 616/616/616
f 617/617/617 618/618/618 619/619/619
f 617/617/617 619/619/619 620/620/620
f 621/621/621 622/622/622 623/623/623
f 621/621/621 623/623/623 624/624/624
f 625/625/625 626/626/626 627/627/627
f 625/625/625 627/627/627 628/628/628
f 629/629/629 630/630/630 631/631/631
f 629/629/629 631/631/631 632/632/632
f 633/633/633 634/634/634 635/635/635
f 633/633/633 635/635/635 636/636/636
f 637/637/637 638/638/638 639/639/639
f 637/637/637 639/639/639 640/640/640
f 641/641/641 642/642/642 643/643/643
f 641/641/641 643/643/643 644/644/644
f 645/645/645 646/646/646 647/647/647
f 645/645/645 647/647/647 648/648/648
f 649/649/649 650/650/650 651/651/651
f 649/649/649 651/651/651 652/652/652
f 653/653/653 654/654/654 655/655/655
f 653/653/653 655/655/655 656/656/656
f 657/657/657 658/658/658 659/659/659
f 657/657/657 659/659/659 660/660/660
f 661/661/661 662/662/662 663/663/663
f 661/661/661 663/663/663 664/664/664
f 665/665/665 666/666/666 667/667/667
f 665/665/665 667/667/667 668/668/668
f 669/669/669 670/670/670 671/671/671
f 669/669/669 671/671/671 672/672/672
f 673/673/673 674/674/674 675/675/675
f 673/673/673 675/675/675 676/676/676
f 677/677/677 678/678/678 679/679/679
f 677/677/677 679/679/679 680/680/680
f 681/681/681 682/682/682 683/683/683
f 681/681/681 683/683/683 684/684/684
f 685/685/685 686/686/686 687/687/687
f 685/685/685 687/687/687 688/688/688
f 689/689/689 690/690/690 691/691/691
f 689/689/689 691/691/691 692/692/692
f 693/693/693 694/694/694 695/695/695
f 693/693/693 695/695/695 696/696/696
f 697/697/697 698/698/698 699/699/699
f 697/697/697 699/699/699 700/700/700
f 701/701/701 702/702/702 703/703/703
f 701/701/701 703/703/703 704/704/704
f 705/705/705 706/706/706 707/707/707
f 705/705/705 707/707/707 708/708/708
f 709/709/709 710/710/710 711/711/711
f 709/709/709 711/711/711 712/712/712
f 713/713/713 714/714/714 715/715/715
f 713/713/713 715/715/715 716/716/716
f 717/717/717 718/718/718 719/719/719
f 717/717/717 719/719/719 720/720/720
f 721/721/721 722/722/722 723/723/723
f 721/721/721 723/723/723 724/724/724
f 725/725/725 726/726/726 727/727/727
f 725/725/725 727/727/727 728/728/728
f 729/729/729 730/730/730 731/731/731
f 729/729/729 731/731/731 732/732/732
f 733/733/733 734/734/734 735/735/735
f 733/733/733 735/735/735 736/736/736
f 737/737/737 738/738/738 739/739/739
f 737/737/737 739/739/739 740/740/740
f 741/741/741 742/742/742 743/743/743
f 741/741/741 743/743/743 744/744/744
f 745/745/745 746/746/746 747/747/747
f 745/745/745 747/747/747 748/748/748
f 749/749/749 750/750/750 751/751/751
f 749/749/749 751/751/751 752/752/752
f 753/753/753 754/754/754 755/755/755
f 753/753/753 755/755/755 756/756/756
f 757/757/757 758/758/758 759/759/759
f 757/757/757 759/759/759 760/760/760
f 761/761/761 762/762/762 763/763/763
f 761/761/761 763/763/763 764/764/764
f 765/765/765 766/766/766 767/767/767
f 765/765/765 767/767/767 768/768/768
f 769/769/769 770/770/770 771/771/771
f 769/769/769 771/771/771 772/772/772
f 773/773/773 774/774/774 775/775/775
f 773/773/773 775/775/775 776/776/776
f 777/777/777 778/778/778 779/779/779
f 777/777/777 779/779/779 780/780/780
f 781/781/781 782/782/782 783/783/783
f 781/781/781 783/783/783 784/784/784
f 785/785/785 786/786/786 787/787/787
f 785/785/785 787/787/787 788/788/788
f 789/789/789 790/790/790 791/791/791
f 789/789/789 791/791/791 792/792/792
f 793/793/793 794/794/794 795/795/795
f 793/793/793 795/795/795 796/796/796
f 797/797/797 798/798/798 799/799/799
f 797/797/797 799/799/799 800/800/800
f 801/801/801 802/802/802 803/803/803
f 801/801/801 803/803/803 804/804/804
f 805/805/805 806/806/806 807/807/807
f 805/805/805 807/807/807 808/808/808
f 809/809/809 810/810/810 811/811/811
f 809/809/809 811/811/811 812/812/812
f 813/813/813 814/814/814 815/815/815
f 813/813/813 815/815/815 816/816/816
f 817/817/817 818/818/818 819/819/819
f 817/817/817 819/819/819 820/820/820
f 821/821/821 822/822/822 823/823/823
f 821/821/821 823/823/823 824/824/824
f 825/825/825 826/826/826 827/827/827
f 825/825/825 827/827/827 828/828/828
f 829/829/829 830/830/830 831/831/831
f 829/829/829 831/831/831 832/832/832
f 833/833/833 834/834/834 835/835/835
f 833/833/833 835/835/835 836/836/836
f 837/837/837 838/838/838 839/839/839
f 837/837/837 839/839/839 840/840/840
