v -0.000752 -0.047978 0.527637
v 0.006114 -0.047912 0.528539
v 0.006789 -0.048095 0.526027
v -0.000752 -0.048168 0.525037
v -0.007619 -0.047912 0.528539
v -0.000752 -0.047978 0.527637
v -0.000752 -0.048168 0.525037
v -0.008293 -0.048095 0.526027
v -0.000752 -0.049042 0.523366
v -0.008741 -0.048966 0.524415
v -0.008293 -0.048095 0.526027
v -0.000752 -0.048168 0.525037
v 0.007237 -0.048966 0.524415
v -0.000752 -0.049042 0.523366
v -0.000752 -0.048168 0.525037
v 0.006789 -0.048095 0.526027
v -0.015321 -0.047883 0.52893
v -0.008293 -0.048095 0.526027
v -0.008741 -0.048966 0.524415
v -0.016186 -0.048741 0.52749
v -0.014017 -0.047719 0.531182
v -0.007619 -0.047912 0.528539
v -0.008293 -0.048095 0.526027
v -0.015321 -0.047883 0.52893
v -0.016186 -0.048741 0.52749
v -0.008741 -0.048966 0.524415
v -0.008865 -0.050806 0.524088
v -0.016424 -0.050578 0.527211
v -0.000752 -0.050884 0.523022
v -0.008865 -0.050806 0.524088
v -0.008741 -0.048966 0.524415
v -0.000752 -0.049042 0.523366
v -0.016424 -0.050578 0.527211
v -0.008865 -0.050806 0.524088
v -0.00867 -0.055442 0.525154
v -0.016049 -0.05522 0.528202
v -0.008865 -0.050806 0.524088
v -0.000752 -0.050884 0.523022
v -0.000752 -0.055518 0.524114
v -0.00867 -0.055442 0.525154
v -0.016049 -0.05522 0.528202
v -0.00867 -0.055442 0.525154
v -0.007799 -0.061741 0.528875
v -0.014365 -0.061543 0.531588
v -0.00867 -0.055442 0.525154
v -0.000752 -0.055518 0.524114
v -0.000752 -0.061809 0.52795
v -0.007799 -0.061741 0.528875
v -0.000752 -0.050884 0.523022
v 0.00736 -0.050806 0.524088
v 0.007166 -0.055442 0.525154
v -0.000752 -0.055518 0.524114
v -0.000752 -0.055518 0.524114
v 0.007166 -0.055442 0.525154
v 0.006294 -0.061741 0.528875
v -0.000752 -0.061809 0.52795
v -0.000752 -0.061809 0.52795
v 0.006294 -0.061741 0.528875
v 0.004937 -0.066558 0.534307
v -0.000752 -0.066613 0.53356
v -0.007799 -0.061741 0.528875
v -0.000752 -0.061809 0.52795
v -0.000752 -0.066613 0.53356
v -0.006441 -0.066558 0.534307
v -0.000752 -0.066613 0.53356
v 0.004937 -0.066558 0.534307
v 0.003226 -0.069423 0.540918
v -0.000752 -0.069461 0.540396
v -0.006441 -0.066558 0.534307
v -0.000752 -0.066613 0.53356
v -0.000752 -0.069461 0.540396
v -0.00473 -0.069423 0.540918
v -0.014365 -0.061543 0.531588
v -0.007799 -0.061741 0.528875
v -0.006441 -0.066558 0.534307
v -0.011742 -0.066398 0.536497
v -0.011742 -0.066398 0.536497
v -0.006441 -0.066558 0.534307
v -0.00473 -0.069423 0.540918
v -0.008438 -0.069311 0.542449
v -0.008438 -0.069311 0.542449
v -0.00473 -0.069423 0.540918
v -0.002834 -0.070055 0.54806
v -0.004774 -0.069996 0.548861
v -0.00473 -0.069423 0.540918
v -0.000752 -0.069461 0.540396
v -0.000752 -0.070075 0.547787
v -0.002834 -0.070055 0.54806
v -0.000752 -0.069989 0.555846
v -0.004774 -0.069996 0.548861
v -0.002834 -0.070055 0.54806
v -0.000752 -0.069989 0.555846
v -0.002834 -0.070055 0.54806
v -0.000752 -0.070075 0.547787
v -0.000752 -0.069989 0.555846
v -0.000752 -0.070075 0.547787
v 0.00133 -0.070055 0.54806
v -0.000752 -0.069989 0.555846
v 0.00133 -0.070055 0.54806
v 0.00327 -0.069996 0.548861
v -0.000752 -0.069989 0.555846
v 0.00327 -0.069996 0.548861
v 0.004936 -0.069903 0.550136
v -0.000752 -0.069989 0.555846
v 0.004936 -0.069903 0.550136
v 0.006214 -0.069782 0.551798
v -0.000752 -0.069989 0.555846
v 0.006214 -0.069782 0.551798
v 0.007018 -0.069641 0.553733
v -0.000752 -0.069989 0.555846
v 0.007018 -0.069641 0.553733
v 0.007292 -0.069489 0.555809
v -0.000752 -0.069989 0.555846
v 0.007292 -0.069489 0.555809
v 0.007018 -0.069337 0.557886
v -0.000752 -0.069989 0.555846
v 0.007018 -0.069337 0.557886
v 0.006214 -0.069196 0.559821
v -0.000752 -0.069989 0.555846
v 0.006214 -0.069196 0.559821
v 0.004936 -0.069074 0.561482
v -0.000752 -0.069989 0.555846
v 0.004936 -0.069074 0.561482
v 0.00327 -0.068981 0.562757
v -0.000752 -0.069989 0.555846
v 0.00327 -0.068981 0.562757
v 0.00133 -0.068923 0.563559
v -0.000752 -0.069989 0.555846
v 0.00133 -0.068923 0.563559
v -0.000752 -0.068903 0.563832
v -0.000752 -0.069989 0.555846
v -0.000752 -0.068903 0.563832
v -0.002834 -0.068923 0.563559
v -0.000752 -0.069989 0.555846
v -0.002834 -0.068923 0.563559
v -0.004774 -0.068981 0.562757
v -0.000752 -0.069989 0.555846
v -0.004774 -0.068981 0.562757
v -0.00644 -0.069074 0.561482
v -0.000752 -0.069989 0.555846
v -0.00644 -0.069074 0.561482
v -0.007719 -0.069196 0.559821
v -0.000752 -0.069989 0.555846
v -0.007719 -0.069196 0.559821
v -0.008522 -0.069337 0.557886
v -0.000752 -0.069989 0.555846
v -0.008522 -0.069337 0.557886
v -0.008796 -0.069489 0.555809
v -0.000752 -0.069989 0.555846
v -0.008796 -0.069489 0.555809
v -0.008522 -0.069641 0.553733
v -0.000752 -0.069989 0.555846
v -0.008522 -0.069641 0.553733
v -0.007719 -0.069782 0.551798
v -0.000752 -0.069989 0.555846
v -0.007719 -0.069782 0.551798
v -0.00644 -0.069903 0.550136
v -0.000752 -0.069989 0.555846
v -0.00644 -0.069903 0.550136
v -0.004774 -0.069996 0.548861
v -0.011621 -0.069133 0.544886
v -0.008438 -0.069311 0.542449
v -0.004774 -0.069996 0.548861
v -0.00644 -0.069903 0.550136
v -0.014064 -0.068901 0.548061
v -0.011621 -0.069133 0.544886
v -0.00644 -0.069903 0.550136
v -0.007719 -0.069782 0.551798
v -0.016295 -0.066144 0.539981
v -0.011742 -0.066398 0.536497
v -0.008438 -0.069311 0.542449
v -0.011621 -0.069133 0.544886
v -0.019788 -0.065812 0.544521
v -0.016295 -0.066144 0.539981
v -0.011621 -0.069133 0.544886
v -0.014064 -0.068901 0.548061
v -0.021983 -0.065426 0.549808
v -0.019788 -0.065812 0.544521
v -0.014064 -0.068901 0.548061
v -0.015599 -0.068631 0.551758
v -0.015599 -0.068631 0.551758
v -0.014064 -0.068901 0.548061
v -0.007719 -0.069782 0.551798
v -0.008522 -0.069641 0.553733
v -0.022732 -0.065011 0.555482
v -0.021983 -0.065426 0.549808
v -0.015599 -0.068631 0.551758
v -0.016123 -0.068341 0.555725
v -0.016123 -0.068341 0.555725
v -0.015599 -0.068631 0.551758
v -0.008522 -0.069641 0.553733
v -0.008796 -0.069489 0.555809
v -0.021983 -0.064597 0.561156
v -0.022732 -0.065011 0.555482
v -0.016123 -0.068341 0.555725
v -0.015599 -0.068052 0.559693
v -0.015599 -0.068052 0.559693
v -0.016123 -0.068341 0.555725
v -0.008796 -0.069489 0.555809
v -0.008522 -0.069337 0.557886
v -0.019788 -0.064211 0.566443
v -0.021983 -0.064597 0.561156
v -0.015599 -0.068052 0.559693
v -0.014064 -0.067781 0.56339
v -0.014064 -0.067781 0.56339
v -0.015599 -0.068052 0.559693
v -0.008522 -0.069337 0.557886
v -0.007719 -0.069196 0.559821
v -0.016295 -0.063879 0.570983
v -0.019788 -0.064211 0.566443
v -0.014064 -0.067781 0.56339
v -0.011621 -0.06755 0.566565
v -0.011621 -0.06755 0.566565
v -0.014064 -0.067781 0.56339
v -0.007719 -0.069196 0.559821
v -0.00644 -0.069074 0.561482
v -0.011742 -0.063625 0.574467
v -0.016295 -0.063879 0.570983
v -0.011621 -0.06755 0.566565
v -0.008438 -0.067372 0.569002
v -0.008438 -0.067372 0.569002
v -0.011621 -0.06755 0.566565
v -0.00644 -0.069074 0.561482
v -0.004774 -0.068981 0.562757
v -0.006441 -0.063465 0.576657
v -0.011742 -0.063625 0.574467
v -0.008438 -0.067372 0.569002
v -0.00473 -0.06726 0.570533
v -0.00473 -0.06726 0.570533
v -0.008438 -0.067372 0.569002
v -0.004774 -0.068981 0.562757
v -0.002834 -0.068923 0.563559
v -0.000752 -0.06341 0.577404
v -0.006441 -0.063465 0.576657
v -0.00473 -0.06726 0.570533
v -0.000752 -0.067222 0.571055
v -0.000752 -0.067222 0.571055
v -0.00473 -0.06726 0.570533
v -0.002834 -0.068923 0.563559
v -0.000752 -0.068903 0.563832
v 0.004937 -0.063465 0.576657
v -0.000752 -0.06341 0.577404
v -0.000752 -0.067222 0.571055
v 0.003226 -0.06726 0.570533
v 0.003226 -0.06726 0.570533
v -0.000752 -0.067222 0.571055
v -0.000752 -0.068903 0.563832
v 0.00133 -0.068923 0.563559
v 0.010238 -0.063625 0.574467
v 0.004937 -0.063465 0.576657
v 0.003226 -0.06726 0.570533
v 0.006933 -0.067372 0.569002
v 0.006933 -0.067372 0.569002
v 0.003226 -0.06726 0.570533
v 0.00133 -0.068923 0.563559
v 0.00327 -0.068981 0.562757
v 0.01479 -0.063879 0.570983
v 0.010238 -0.063625 0.574467
v 0.006933 -0.067372 0.569002
v 0.010116 -0.06755 0.566565
v 0.010116 -0.06755 0.566565
v 0.006933 -0.067372 0.569002
v 0.00327 -0.068981 0.562757
v 0.004936 -0.069074 0.561482
v 0.018283 -0.064211 0.566443
v 0.01479 -0.063879 0.570983
v 0.010116 -0.06755 0.566565
v 0.012559 -0.067781 0.56339
v 0.012559 -0.067781 0.56339
v 0.010116 -0.06755 0.566565
v 0.004936 -0.069074 0.561482
v 0.006214 -0.069196 0.559821
v 0.020479 -0.064597 0.561156
v 0.018283 -0.064211 0.566443
v 0.012559 -0.067781 0.56339
v 0.014095 -0.068052 0.559693
v 0.014095 -0.068052 0.559693
v 0.012559 -0.067781 0.56339
v 0.006214 -0.069196 0.559821
v 0.007018 -0.069337 0.557886
v 0.021228 -0.065011 0.555482
v 0.020479 -0.064597 0.561156
v 0.014095 -0.068052 0.559693
v 0.014618 -0.068341 0.555725
v 0.014618 -0.068341 0.555725
v 0.014095 -0.068052 0.559693
v 0.007018 -0.069337 0.557886
v 0.007292 -0.069489 0.555809
v 0.020479 -0.065426 0.549808
v 0.021228 -0.065011 0.555482
v 0.014618 -0.068341 0.555725
v 0.014095 -0.068631 0.551758
v 0.014095 -0.068631 0.551758
v 0.014618 -0.068341 0.555725
v 0.007292 -0.069489 0.555809
v 0.007018 -0.069641 0.553733
v 0.018283 -0.065812 0.544521
v 0.020479 -0.065426 0.549808
v 0.014095 -0.068631 0.551758
v 0.012559 -0.068901 0.548061
v 0.012559 -0.068901 0.548061
v 0.014095 -0.068631 0.551758
v 0.007018 -0.069641 0.553733
v 0.006214 -0.069782 0.551798
v 0.01479 -0.066144 0.539981
v 0.018283 -0.065812 0.544521
v 0.012559 -0.068901 0.548061
v 0.010117 -0.069133 0.544886
v 0.010117 -0.069133 0.544886
v 0.012559 -0.068901 0.548061
v 0.006214 -0.069782 0.551798
v 0.004936 -0.069903 0.550136
v 0.010238 -0.066398 0.536497
v 0.01479 -0.066144 0.539981
v 0.010117 -0.069133 0.544886
v 0.006933 -0.069311 0.542449
v 0.006933 -0.069311 0.542449
v 0.010117 -0.069133 0.544886
v 0.004936 -0.069903 0.550136
v 0.00327 -0.069996 0.548861
v 0.004937 -0.066558 0.534307
v 0.010238 -0.066398 0.536497
v 0.006933 -0.069311 0.542449
v 0.003226 -0.069423 0.540918
v 0.003226 -0.069423 0.540918
v 0.006933 -0.069311 0.542449
v 0.00327 -0.069996 0.548861
v 0.00133 -0.070055 0.54806
v -0.000752 -0.069461 0.540396
v 0.003226 -0.069423 0.540918
v 0.00133 -0.070055 0.54806
v -0.000752 -0.070075 0.547787
v 0.01286 -0.061543 0.531588
v 0.018499 -0.061228 0.535903
v 0.01479 -0.066144 0.539981
v 0.010238 -0.066398 0.536497
v 0.006294 -0.061741 0.528875
v 0.01286 -0.061543 0.531588
v 0.010238 -0.066398 0.536497
v 0.004937 -0.066558 0.534307
v 0.014544 -0.05522 0.528202
v 0.02088 -0.054866 0.533051
v 0.018499 -0.061228 0.535903
v 0.01286 -0.061543 0.531588
v 0.007166 -0.055442 0.525154
v 0.014544 -0.05522 0.528202
v 0.01286 -0.061543 0.531588
v 0.006294 -0.061741 0.528875
v 0.02088 -0.054866 0.533051
v 0.025742 -0.054404 0.53937
v 0.022826 -0.060817 0.541527
v 0.018499 -0.061228 0.535903
v 0.018499 -0.061228 0.535903
v 0.022826 -0.060817 0.541527
v 0.018283 -0.065812 0.544521
v 0.01479 -0.066144 0.539981
v 0.025742 -0.054404 0.53937
v 0.028798 -0.053866 0.546729
v 0.025546 -0.060338 0.548076
v 0.022826 -0.060817 0.541527
v 0.022826 -0.060817 0.541527
v 0.025546 -0.060338 0.548076
v 0.020479 -0.065426 0.549808
v 0.018283 -0.065812 0.544521
v 0.028798 -0.053866 0.546729
v 0.029841 -0.053289 0.554626
v 0.026473 -0.059825 0.555103
v 0.025546 -0.060338 0.548076
v 0.025546 -0.060338 0.548076
v 0.026473 -0.059825 0.555103
v 0.021228 -0.065011 0.555482
v 0.020479 -0.065426 0.549808
v 0.029841 -0.053289 0.554626
v 0.028798 -0.052712 0.562523
v 0.025546 -0.059311 0.562131
v 0.026473 -0.059825 0.555103
v 0.026473 -0.059825 0.555103
v 0.025546 -0.059311 0.562131
v 0.020479 -0.064597 0.561156
v 0.021228 -0.065011 0.555482
v 0.028798 -0.052712 0.562523
v 0.025742 -0.052175 0.569882
v 0.022826 -0.058833 0.56868
v 0.025546 -0.059311 0.562131
v 0.025546 -0.059311 0.562131
v 0.022826 -0.058833 0.56868
v 0.018283 -0.064211 0.566443
v 0.020479 -0.064597 0.561156
v 0.025742 -0.052175 0.569882
v 0.02088 -0.051713 0.576201
v 0.018499 -0.058422 0.574303
v 0.022826 -0.058833 0.56868
v 0.022826 -0.058833 0.56868
v 0.018499 -0.058422 0.574303
v 0.01479 -0.063879 0.570983
v 0.018283 -0.064211 0.566443
v 0.02088 -0.051713 0.576201
v 0.014544 -0.051359 0.58105
v 0.01286 -0.058107 0.578619
v 0.018499 -0.058422 0.574303
v 0.018499 -0.058422 0.574303
v 0.01286 -0.058107 0.578619
v 0.010238 -0.063625 0.574467
v 0.01479 -0.063879 0.570983
v 0.014544 -0.051359 0.58105
v 0.007166 -0.051136 0.584098
v 0.006294 -0.057909 0.581331
v 0.01286 -0.058107 0.578619
v 0.01286 -0.058107 0.578619
v 0.006294 -0.057909 0.581331
v 0.004937 -0.063465 0.576657
v 0.010238 -0.063625 0.574467
v 0.007166 -0.051136 0.584098
v -0.000752 -0.05106 0.585138
v -0.000752 -0.057841 0.582256
v 0.006294 -0.057909 0.581331
v 0.006294 -0.057909 0.581331
v -0.000752 -0.057841 0.582256
v -0.000752 -0.06341 0.577404
v 0.004937 -0.063465 0.576657
v -0.000752 -0.05106 0.585138
v -0.00867 -0.051136 0.584098
v -0.007799 -0.057909 0.581331
v -0.000752 -0.057841 0.582256
v -0.000752 -0.057841 0.582256
v -0.007799 -0.057909 0.581331
v -0.006441 -0.063465 0.576657
v -0.000752 -0.06341 0.577404
v -0.00867 -0.051136 0.584098
v -0.016049 -0.051359 0.58105
v -0.014365 -0.058107 0.578619
v -0.007799 -0.057909 0.581331
v -0.007799 -0.057909 0.581331
v -0.014365 -0.058107 0.578619
v -0.011742 -0.063625 0.574467
v -0.006441 -0.063465 0.576657
v -0.016049 -0.051359 0.58105
v -0.022385 -0.051713 0.576201
v -0.020004 -0.058422 0.574303
v -0.014365 -0.058107 0.578619
v -0.014365 -0.058107 0.578619
v -0.020004 -0.058422 0.574303
v -0.016295 -0.063879 0.570983
v -0.011742 -0.063625 0.574467
v -0.022385 -0.051713 0.576201
v -0.027247 -0.052175 0.569882
v -0.02433 -0.058833 0.56868
v -0.020004 -0.058422 0.574303
v -0.020004 -0.058422 0.574303
v -0.02433 -0.058833 0.56868
v -0.019788 -0.064211 0.566443
v -0.016295 -0.063879 0.570983
v -0.027247 -0.052175 0.569882
v -0.030303 -0.052712 0.562523
v -0.02705 -0.059311 0.562131
v -0.02433 -0.058833 0.56868
v -0.02433 -0.058833 0.56868
v -0.02705 -0.059311 0.562131
v -0.021983 -0.064597 0.561156
v -0.019788 -0.064211 0.566443
v -0.030303 -0.052712 0.562523
v -0.031345 -0.053289 0.554626
v -0.027978 -0.059825 0.555103
v -0.02705 -0.059311 0.562131
v -0.02705 -0.059311 0.562131
v -0.027978 -0.059825 0.555103
v -0.022732 -0.065011 0.555482
v -0.021983 -0.064597 0.561156
v -0.031345 -0.053289 0.554626
v -0.030303 -0.053866 0.546729
v -0.02705 -0.060338 0.548076
v -0.027978 -0.059825 0.555103
v -0.027978 -0.059825 0.555103
v -0.02705 -0.060338 0.548076
v -0.021983 -0.065426 0.549808
v -0.022732 -0.065011 0.555482
v -0.030303 -0.053866 0.546729
v -0.027247 -0.054404 0.53937
v -0.02433 -0.060817 0.541527
v -0.02705 -0.060338 0.548076
v -0.02705 -0.060338 0.548076
v -0.02433 -0.060817 0.541527
v -0.019788 -0.065812 0.544521
v -0.021983 -0.065426 0.549808
v -0.027247 -0.054404 0.53937
v -0.022385 -0.054866 0.533051
v -0.020004 -0.061228 0.535903
v -0.02433 -0.060817 0.541527
v -0.02433 -0.060817 0.541527
v -0.020004 -0.061228 0.535903
v -0.016295 -0.066144 0.539981
v -0.019788 -0.065812 0.544521
v -0.022385 -0.054866 0.533051
v -0.016049 -0.05522 0.528202
v -0.014365 -0.061543 0.531588
v -0.020004 -0.061228 0.535903
v -0.020004 -0.061228 0.535903
v -0.014365 -0.061543 0.531588
v -0.011742 -0.066398 0.536497
v -0.016295 -0.066144 0.539981
v -0.027897 -0.049742 0.538653
v -0.022916 -0.050215 0.532178
v -0.022385 -0.054866 0.533051
v -0.027247 -0.054404 0.53937
v -0.022916 -0.050215 0.532178
v -0.016424 -0.050578 0.527211
v -0.016049 -0.05522 0.528202
v -0.022385 -0.054866 0.533051
v -0.016424 -0.050578 0.527211
v -0.022916 -0.050215 0.532178
v -0.022579 -0.048384 0.532383
v -0.016186 -0.048741 0.52749
v -0.022916 -0.050215 0.532178
v -0.027897 -0.049742 0.538653
v -0.027484 -0.047918 0.538759
v -0.022579 -0.048384 0.532383
v -0.027897 -0.049742 0.538653
v -0.031028 -0.049191 0.546192
v -0.030568 -0.047375 0.546183
v -0.027484 -0.047918 0.538759
v -0.031028 -0.049191 0.546192
v -0.027897 -0.049742 0.538653
v -0.027247 -0.054404 0.53937
v -0.030303 -0.053866 0.546729
v -0.031028 -0.049191 0.546192
v -0.032096 -0.0486 0.554283
v -0.03162 -0.046793 0.554151
v -0.030568 -0.047375 0.546183
v -0.032096 -0.0486 0.554283
v -0.031028 -0.049191 0.546192
v -0.030303 -0.053866 0.546729
v -0.031345 -0.053289 0.554626
v -0.032096 -0.0486 0.554283
v -0.031028 -0.048009 0.562374
v -0.030568 -0.046211 0.562119
v -0.03162 -0.046793 0.554151
v -0.031028 -0.048009 0.562374
v -0.032096 -0.0486 0.554283
v -0.031345 -0.053289 0.554626
v -0.030303 -0.052712 0.562523
v -0.031028 -0.048009 0.562374
v -0.027897 -0.047458 0.569914
v -0.027484 -0.045669 0.569544
v -0.030568 -0.046211 0.562119
v -0.027897 -0.047458 0.569914
v -0.031028 -0.048009 0.562374
v -0.030303 -0.052712 0.562523
v -0.027247 -0.052175 0.569882
v -0.027897 -0.047458 0.569914
v -0.022916 -0.046985 0.576388
v -0.022579 -0.045203 0.57592
v -0.027484 -0.045669 0.569544
v -0.022916 -0.046985 0.576388
v -0.027897 -0.047458 0.569914
v -0.027247 -0.052175 0.569882
v -0.022385 -0.051713 0.576201
v -0.022916 -0.046985 0.576388
v -0.016424 -0.046623 0.581356
v -0.016186 -0.044846 0.580812
v -0.022579 -0.045203 0.57592
v -0.016424 -0.046623 0.581356
v -0.022916 -0.046985 0.576388
v -0.022385 -0.051713 0.576201
v -0.016049 -0.051359 0.58105
v -0.008741 -0.044621 0.583887
v -0.016186 -0.044846 0.580812
v -0.016424 -0.046623 0.581356
v -0.008865 -0.046394 0.584479
v -0.008865 -0.046394 0.584479
v -0.016424 -0.046623 0.581356
v -0.016049 -0.051359 0.58105
v -0.00867 -0.051136 0.584098
v -0.000752 -0.044544 0.584936
v -0.008741 -0.044621 0.583887
v -0.008865 -0.046394 0.584479
v -0.000752 -0.046317 0.585544
v -0.000752 -0.046317 0.585544
v -0.008865 -0.046394 0.584479
v -0.00867 -0.051136 0.584098
v -0.000752 -0.05106 0.585138
v -0.000752 -0.046317 0.585544
v 0.00736 -0.046394 0.584479
v 0.007237 -0.044621 0.583887
v -0.000752 -0.044544 0.584936
v 0.00736 -0.046394 0.584479
v -0.000752 -0.046317 0.585544
v -0.000752 -0.05106 0.585138
v 0.007166 -0.051136 0.584098
v 0.00736 -0.046394 0.584479
v 0.01492 -0.046623 0.581356
v 0.014681 -0.044846 0.580812
v 0.007237 -0.044621 0.583887
v 0.01492 -0.046623 0.581356
v 0.00736 -0.046394 0.584479
v 0.007166 -0.051136 0.584098
v 0.014544 -0.051359 0.58105
v 0.01492 -0.046623 0.581356
v 0.021411 -0.046985 0.576388
v 0.021074 -0.045203 0.57592
v 0.014681 -0.044846 0.580812
v 0.021411 -0.046985 0.576388
v 0.01492 -0.046623 0.581356
v 0.014544 -0.051359 0.58105
v 0.02088 -0.051713 0.576201
v 0.02598 -0.045669 0.569544
v 0.021074 -0.045203 0.57592
v 0.021411 -0.046985 0.576388
v 0.026393 -0.047458 0.569914
v 0.026393 -0.047458 0.569914
v 0.021411 -0.046985 0.576388
v 0.02088 -0.051713 0.576201
v 0.025742 -0.052175 0.569882
v 0.026393 -0.047458 0.569914
v 0.029524 -0.048009 0.562374
v 0.029063 -0.046211 0.562119
v 0.02598 -0.045669 0.569544
v 0.029524 -0.048009 0.562374
v 0.026393 -0.047458 0.569914
v 0.025742 -0.052175 0.569882
v 0.028798 -0.052712 0.562523
v 0.029524 -0.048009 0.562374
v 0.030592 -0.0486 0.554283
v 0.030115 -0.046793 0.554151
v 0.029063 -0.046211 0.562119
v 0.030592 -0.0486 0.554283
v 0.029524 -0.048009 0.562374
v 0.028798 -0.052712 0.562523
v 0.029841 -0.053289 0.554626
v 0.029063 -0.047375 0.546183
v 0.030115 -0.046793 0.554151
v 0.030592 -0.0486 0.554283
v 0.029524 -0.049191 0.546192
v 0.029524 -0.049191 0.546192
v 0.030592 -0.0486 0.554283
v 0.029841 -0.053289 0.554626
v 0.028798 -0.053866 0.546729
v 0.029524 -0.049191 0.546192
v 0.026393 -0.049742 0.538653
v 0.02598 -0.047918 0.538759
v 0.029063 -0.047375 0.546183
v 0.026393 -0.049742 0.538653
v 0.029524 -0.049191 0.546192
v 0.028798 -0.053866 0.546729
v 0.025742 -0.054404 0.53937
v 0.026393 -0.049742 0.538653
v 0.021411 -0.050215 0.532178
v 0.021074 -0.048384 0.532383
v 0.02598 -0.047918 0.538759
v 0.021411 -0.050215 0.532178
v 0.026393 -0.049742 0.538653
v 0.025742 -0.054404 0.53937
v 0.02088 -0.054866 0.533051
v 0.021411 -0.050215 0.532178
v 0.01492 -0.050578 0.527211
v 0.014681 -0.048741 0.52749
v 0.021074 -0.048384 0.532383
v 0.01492 -0.050578 0.527211
v 0.021411 -0.050215 0.532178
v 0.02088 -0.054866 0.533051
v 0.014544 -0.05522 0.528202
v 0.01492 -0.050578 0.527211
v 0.00736 -0.050806 0.524088
v 0.007237 -0.048966 0.524415
v 0.014681 -0.048741 0.52749
v 0.00736 -0.050806 0.524088
v 0.01492 -0.050578 0.527211
v 0.014544 -0.05522 0.528202
v 0.007166 -0.055442 0.525154
v 0.00736 -0.050806 0.524088
v -0.000752 -0.050884 0.523022
v -0.000752 -0.049042 0.523366
v 0.007237 -0.048966 0.524415
v 0.014681 -0.048741 0.52749
v 0.007237 -0.048966 0.524415
v 0.006789 -0.048095 0.526027
v 0.013816 -0.047883 0.52893
v 0.021074 -0.048384 0.532383
v 0.014681 -0.048741 0.52749
v 0.013816 -0.047883 0.52893
v 0.019851 -0.047546 0.533548
v 0.006114 -0.047912 0.528539
v 0.012513 -0.047719 0.531182
v 0.013816 -0.047883 0.52893
v 0.006789 -0.048095 0.526027
v 0.012513 -0.047719 0.531182
v 0.018007 -0.047412 0.535387
v 0.019851 -0.047546 0.533548
v 0.013816 -0.047883 0.52893
v 0.018007 -0.047412 0.535387
v 0.022223 -0.047011 0.540867
v 0.024481 -0.047106 0.539567
v 0.019851 -0.047546 0.533548
v 0.022223 -0.047011 0.540867
v 0.024873 -0.046545 0.547248
v 0.027392 -0.046594 0.546575
v 0.024481 -0.047106 0.539567
v 0.029063 -0.047375 0.546183
v 0.02598 -0.047918 0.538759
v 0.024481 -0.047106 0.539567
v 0.027392 -0.046594 0.546575
v 0.02598 -0.047918 0.538759
v 0.021074 -0.048384 0.532383
v 0.019851 -0.047546 0.533548
v 0.024481 -0.047106 0.539567
v 0.027392 -0.046594 0.546575
v 0.028385 -0.046045 0.554097
v 0.030115 -0.046793 0.554151
v 0.029063 -0.047375 0.546183
v 0.024873 -0.046545 0.547248
v 0.025777 -0.046045 0.554097
v 0.028385 -0.046045 0.554097
v 0.027392 -0.046594 0.546575
v 0.029063 -0.046211 0.562119
v 0.030115 -0.046793 0.554151
v 0.028385 -0.046045 0.554097
v 0.027392 -0.045495 0.561618
v 0.025777 -0.046045 0.554097
v 0.024873 -0.045544 0.560945
v 0.027392 -0.045495 0.561618
v 0.028385 -0.046045 0.554097
v 0.024873 -0.045544 0.560945
v 0.022223 -0.045078 0.567326
v 0.024481 -0.044983 0.568626
v 0.027392 -0.045495 0.561618
v 0.022223 -0.045078 0.567326
v 0.018007 -0.044678 0.572806
v 0.019851 -0.044544 0.574645
v 0.024481 -0.044983 0.568626
v 0.02598 -0.045669 0.569544
v 0.029063 -0.046211 0.562119
v 0.027392 -0.045495 0.561618
v 0.024481 -0.044983 0.568626
v 0.024481 -0.044983 0.568626
v 0.019851 -0.044544 0.574645
v 0.021074 -0.045203 0.57592
v 0.02598 -0.045669 0.569544
v 0.014681 -0.044846 0.580812
v 0.021074 -0.045203 0.57592
v 0.019851 -0.044544 0.574645
v 0.013816 -0.044206 0.579263
v 0.018007 -0.044678 0.572806
v 0.012513 -0.044371 0.577011
v 0.013816 -0.044206 0.579263
v 0.019851 -0.044544 0.574645
v 0.007237 -0.044621 0.583887
v 0.014681 -0.044846 0.580812
v 0.013816 -0.044206 0.579263
v 0.006789 -0.043994 0.582166
v 0.012513 -0.044371 0.577011
v 0.006114 -0.044178 0.579654
v 0.006789 -0.043994 0.582166
v 0.013816 -0.044206 0.579263
v 0.006114 -0.044178 0.579654
v -0.000752 -0.044112 0.580556
v -0.000752 -0.043922 0.583156
v 0.006789 -0.043994 0.582166
v -0.000752 -0.044112 0.580556
v -0.007619 -0.044178 0.579654
v -0.008293 -0.043994 0.582166
v -0.000752 -0.043922 0.583156
v -0.000752 -0.044544 0.584936
v 0.007237 -0.044621 0.583887
v 0.006789 -0.043994 0.582166
v -0.000752 -0.043922 0.583156
v -0.000752 -0.043922 0.583156
v -0.008293 -0.043994 0.582166
v -0.008741 -0.044621 0.583887
v -0.000752 -0.044544 0.584936
v -0.008293 -0.043994 0.582166
v -0.015321 -0.044206 0.579263
v -0.016186 -0.044846 0.580812
v -0.008741 -0.044621 0.583887
v -0.007619 -0.044178 0.579654
v -0.014017 -0.044371 0.577011
v -0.015321 -0.044206 0.579263
v -0.008293 -0.043994 0.582166
v -0.022579 -0.045203 0.57592
v -0.016186 -0.044846 0.580812
v -0.015321 -0.044206 0.579263
v -0.021355 -0.044544 0.574645
v -0.014017 -0.044371 0.577011
v -0.019512 -0.044678 0.572806
v -0.021355 -0.044544 0.574645
v -0.015321 -0.044206 0.579263
v -0.019512 -0.044678 0.572806
v -0.023728 -0.045078 0.567326
v -0.025985 -0.044983 0.568626
v -0.021355 -0.044544 0.574645
v -0.023728 -0.045078 0.567326
v -0.026378 -0.045544 0.560945
v -0.028896 -0.045495 0.561618
v -0.025985 -0.044983 0.568626
v -0.030568 -0.046211 0.562119
v -0.027484 -0.045669 0.569544
v -0.025985 -0.044983 0.568626
v -0.028896 -0.045495 0.561618
v -0.027484 -0.045669 0.569544
v -0.022579 -0.045203 0.57592
v -0.021355 -0.044544 0.574645
v -0.025985 -0.044983 0.568626
v -0.03162 -0.046793 0.554151
v -0.030568 -0.046211 0.562119
v -0.028896 -0.045495 0.561618
v -0.029889 -0.046045 0.554097
v -0.026378 -0.045544 0.560945
v -0.027282 -0.046045 0.554097
v -0.029889 -0.046045 0.554097
v -0.028896 -0.045495 0.561618
v -0.030568 -0.047375 0.546183
v -0.03162 -0.046793 0.554151
v -0.029889 -0.046045 0.554097
v -0.028896 -0.046594 0.546575
v -0.027282 -0.046045 0.554097
v -0.026378 -0.046545 0.547248
v -0.028896 -0.046594 0.546575
v -0.029889 -0.046045 0.554097
v -0.026378 -0.046545 0.547248
v -0.023728 -0.047011 0.540867
v -0.025985 -0.047106 0.539567
v -0.028896 -0.046594 0.546575
v -0.023728 -0.047011 0.540867
v -0.019512 -0.047412 0.535387
v -0.021355 -0.047546 0.533548
v -0.025985 -0.047106 0.539567
v -0.022579 -0.048384 0.532383
v -0.027484 -0.047918 0.538759
v -0.025985 -0.047106 0.539567
v -0.021355 -0.047546 0.533548
v -0.027484 -0.047918 0.538759
v -0.030568 -0.047375 0.546183
v -0.028896 -0.046594 0.546575
v -0.025985 -0.047106 0.539567
v -0.016186 -0.048741 0.52749
v -0.022579 -0.048384 0.532383
v -0.021355 -0.047546 0.533548
v -0.015321 -0.047883 0.52893
v -0.019512 -0.047412 0.535387
v -0.014017 -0.047719 0.531182
v -0.015321 -0.047883 0.52893
v -0.021355 -0.047546 0.533548
vn -0 0.9973 -0.0733
vn 0.0001 0.9973 -0.0732
vn 0.0568 0.9576 -0.2824
vn -0 0.9571 -0.2898
vn 0.0001 0.9974 -0.0727
vn -0 0.9973 -0.0733
vn -0 0.9571 -0.2898
vn -0.0567 0.9576 -0.2824
vn -0 0.576 -0.8175
vn -0.2002 0.5778 -0.7913
vn -0.0567 0.9576 -0.2824
vn -0 0.9571 -0.2898
vn 0.2002 0.5778 -0.7913
vn -0 0.576 -0.8175
vn -0 0.9571 -0.2898
vn 0.0568 0.9576 -0.2824
vn -0.1097 0.9592 -0.2605
vn -0.0567 0.9576 -0.2824
vn -0.2002 0.5778 -0.7913
vn -0.3867 0.5834 -0.7142
vn 0.0001 0.9974 -0.0727
vn 0.0001 0.9974 -0.0727
vn -0.0567 0.9576 -0.2824
vn -0.1097 0.9592 -0.2605
vn -0.3867 0.5834 -0.7142
vn -0.2002 0.5778 -0.7913
vn -0.2586 -0.0218 -0.9657
vn -0.4994 -0.0146 -0.8663
vn -0 -0.0243 -0.9997
vn -0.2586 -0.0218 -0.9657
vn -0.2002 0.5778 -0.7913
vn -0 0.576 -0.8175
vn -0.4994 -0.0146 -0.8663
vn -0.2586 -0.0218 -0.9657
vn -0.2463 -0.3736 -0.8943
vn -0.4758 -0.3667 -0.7995
vn -0.2586 -0.0218 -0.9657
vn -0 -0.0243 -0.9997
vn -0 -0.376 -0.9266
vn -0.2463 -0.3736 -0.8943
vn -0.4758 -0.3667 -0.7995
vn -0.2463 -0.3736 -0.8943
vn -0.21 -0.6403 -0.7389
vn -0.4056 -0.6344 -0.658
vn -0.2463 -0.3736 -0.8943
vn -0 -0.376 -0.9266
vn -0 -0.6423 -0.7664
vn -0.21 -0.6403 -0.7389
vn -0 -0.0243 -0.9997
vn 0.2585 -0.0219 -0.9658
vn 0.2463 -0.3736 -0.8943
vn -0 -0.376 -0.9266
vn -0 -0.376 -0.9266
vn 0.2463 -0.3736 -0.8943
vn 0.21 -0.6403 -0.7389
vn -0 -0.6423 -0.7664
vn -0 -0.6423 -0.7664
vn 0.21 -0.6403 -0.7389
vn 0.1535 -0.8448 -0.5126
vn -0 -0.8463 -0.5328
vn -0.21 -0.6403 -0.7389
vn -0 -0.6423 -0.7664
vn -0 -0.8463 -0.5328
vn -0.1535 -0.8448 -0.5126
vn -0 -0.8463 -0.5328
vn 0.1535 -0.8448 -0.5126
vn 0.0824 -0.9679 -0.2376
vn -0 -0.9686 -0.2484
vn -0.1535 -0.8448 -0.5126
vn -0 -0.8463 -0.5328
vn -0 -0.9686 -0.2484
vn -0.0824 -0.9679 -0.2376
vn -0.4056 -0.6344 -0.658
vn -0.21 -0.6403 -0.7389
vn -0.1535 -0.8448 -0.5126
vn -0.2965 -0.8405 -0.4536
vn -0.2965 -0.8405 -0.4536
vn -0.1535 -0.8448 -0.5126
vn -0.0824 -0.9679 -0.2376
vn -0.1592 -0.9655 -0.2059
vn -0.1592 -0.9655 -0.2059
vn -0.0824 -0.9679 -0.2376
vn -0.0292 -0.9989 -0.0361
vn -0.0564 -0.9981 -0.0249
vn -0.0824 -0.9679 -0.2376
vn -0 -0.9686 -0.2484
vn -0 -0.9992 -0.04
vn -0.0292 -0.9989 -0.0361
vn -0 -0.9973 0.0729
vn -0.0564 -0.9981 -0.0249
vn -0.0292 -0.9989 -0.0361
vn -0 -0.9973 0.0729
vn -0.0292 -0.9989 -0.0361
vn -0 -0.9992 -0.04
vn -0 -0.9973 0.0729
vn -0 -0.9992 -0.04
vn 0.0292 -0.9989 -0.0361
vn -0 -0.9973 0.0729
vn 0.0292 -0.9989 -0.0361
vn 0.0564 -0.9981 -0.0249
vn -0 -0.9973 0.0729
vn 0.0564 -0.9981 -0.0249
vn 0.0796 -0.9968 -0.0071
vn -0 -0.9973 0.0729
vn 0.0796 -0.9968 -0.0071
vn 0.0975 -0.9951 0.0161
vn -0 -0.9973 0.0729
vn 0.0975 -0.9951 0.0161
vn 0.1088 -0.9931 0.0433
vn -0 -0.9973 0.0729
vn 0.1088 -0.9931 0.0433
vn 0.1127 -0.991 0.0725
vn -0 -0.9973 0.0729
vn 0.1127 -0.991 0.0725
vn 0.1088 -0.9889 0.1015
vn -0 -0.9973 0.0729
vn 0.1088 -0.9889 0.1015
vn 0.0975 -0.9869 0.1286
vn -0 -0.9973 0.0729
vn 0.0975 -0.9869 0.1286
vn 0.0796 -0.9852 0.1519
vn -0 -0.9973 0.0729
vn 0.0796 -0.9852 0.1519
vn 0.0564 -0.9839 0.1696
vn -0 -0.9973 0.0729
vn 0.0564 -0.9839 0.1696
vn 0.0292 -0.9831 0.1809
vn -0 -0.9973 0.0729
vn 0.0292 -0.9831 0.1809
vn -0 -0.9828 0.1847
vn -0 -0.9973 0.0729
vn -0 -0.9828 0.1847
vn -0.0292 -0.9831 0.1809
vn -0 -0.9973 0.0729
vn -0.0292 -0.9831 0.1809
vn -0.0564 -0.9839 0.1696
vn -0 -0.9973 0.0729
vn -0.0564 -0.9839 0.1696
vn -0.0796 -0.9852 0.1519
vn -0 -0.9973 0.0729
vn -0.0796 -0.9852 0.1519
vn -0.0975 -0.9869 0.1286
vn -0 -0.9973 0.0729
vn -0.0975 -0.9869 0.1286
vn -0.1088 -0.9889 0.1014
vn -0 -0.9973 0.0729
vn -0.1088 -0.9889 0.1014
vn -0.1127 -0.991 0.0725
vn -0 -0.9973 0.0729
vn -0.1127 -0.991 0.0725
vn -0.1088 -0.9931 0.0433
vn -0 -0.9973 0.0729
vn -0.1088 -0.9931 0.0433
vn -0.0975 -0.9951 0.0161
vn -0 -0.9973 0.0729
vn -0.0975 -0.9951 0.0161
vn -0.0796 -0.9968 -0.0071
vn -0 -0.9973 0.0729
vn -0.0796 -0.9968 -0.0071
vn -0.0564 -0.9981 -0.0249
vn -0.2251 -0.9619 -0.1554
vn -0.1592 -0.9655 -0.2059
vn -0.0564 -0.9981 -0.0249
vn -0.0796 -0.9968 -0.0071
vn -0.2757 -0.957 -0.0897
vn -0.2251 -0.9619 -0.1554
vn -0.0796 -0.9968 -0.0071
vn -0.0975 -0.9951 0.0161
vn -0.4193 -0.8336 -0.3596
vn -0.2965 -0.8405 -0.4536
vn -0.1592 -0.9655 -0.2059
vn -0.2251 -0.9619 -0.1554
vn -0.5136 -0.8246 -0.237
vn -0.4193 -0.8336 -0.3596
vn -0.2251 -0.9619 -0.1554
vn -0.2757 -0.957 -0.0897
vn -0.5728 -0.8142 -0.0944
vn -0.5136 -0.8246 -0.237
vn -0.2757 -0.957 -0.0897
vn -0.3075 -0.9514 -0.0131
vn -0.3075 -0.9514 -0.0131
vn -0.2757 -0.957 -0.0897
vn -0.0975 -0.9951 0.0161
vn -0.1088 -0.9931 0.0433
vn -0.593 -0.803 0.0587
vn -0.5728 -0.8142 -0.0944
vn -0.3075 -0.9514 -0.0131
vn -0.3184 -0.9454 0.069
vn -0.3184 -0.9454 0.069
vn -0.3075 -0.9514 -0.0131
vn -0.1088 -0.9931 0.0433
vn -0.1127 -0.991 0.0725
vn -0.5729 -0.7918 0.2117
vn -0.593 -0.803 0.0587
vn -0.3184 -0.9454 0.069
vn -0.3075 -0.9395 0.1512
vn -0.3075 -0.9395 0.1512
vn -0.3184 -0.9454 0.069
vn -0.1127 -0.991 0.0725
vn -0.1088 -0.9889 0.1014
vn -0.5136 -0.7814 0.3544
vn -0.5729 -0.7918 0.2117
vn -0.3075 -0.9395 0.1512
vn -0.2757 -0.9338 0.2278
vn -0.2757 -0.9338 0.2278
vn -0.3075 -0.9395 0.1512
vn -0.1088 -0.9889 0.1014
vn -0.0975 -0.9869 0.1286
vn -0.4194 -0.7725 0.4769
vn -0.5136 -0.7814 0.3544
vn -0.2757 -0.9338 0.2278
vn -0.2251 -0.9291 0.2935
vn -0.2251 -0.9291 0.2935
vn -0.2757 -0.9338 0.2278
vn -0.0975 -0.9869 0.1286
vn -0.0796 -0.9852 0.1519
vn -0.2965 -0.7656 0.5709
vn -0.4194 -0.7725 0.4769
vn -0.2251 -0.9291 0.2935
vn -0.1592 -0.9254 0.344
vn -0.1592 -0.9254 0.344
vn -0.2251 -0.9291 0.2935
vn -0.0796 -0.9852 0.1519
vn -0.0564 -0.9839 0.1696
vn -0.1535 -0.7613 0.63
vn -0.2965 -0.7656 0.5709
vn -0.1592 -0.9254 0.344
vn -0.0824 -0.923 0.3758
vn -0.0824 -0.923 0.3758
vn -0.1592 -0.9254 0.344
vn -0.0564 -0.9839 0.1696
vn -0.0292 -0.9831 0.1809
vn -0 -0.7598 0.6502
vn -0.1535 -0.7613 0.63
vn -0.0824 -0.923 0.3758
vn -0 -0.9223 0.3866
vn -0 -0.9223 0.3866
vn -0.0824 -0.923 0.3758
vn -0.0292 -0.9831 0.1809
vn -0 -0.9828 0.1847
vn 0.1535 -0.7613 0.63
vn -0 -0.7598 0.6502
vn -0 -0.9223 0.3866
vn 0.0824 -0.923 0.3758
vn 0.0824 -0.923 0.3758
vn -0 -0.9223 0.3866
vn -0 -0.9828 0.1847
vn 0.0292 -0.9831 0.1809
vn 0.2966 -0.7656 0.5709
vn 0.1535 -0.7613 0.63
vn 0.0824 -0.923 0.3758
vn 0.1592 -0.9254 0.344
vn 0.1592 -0.9254 0.344
vn 0.0824 -0.923 0.3758
vn 0.0292 -0.9831 0.1809
vn 0.0564 -0.9839 0.1696
vn 0.4194 -0.7725 0.4769
vn 0.2966 -0.7656 0.5709
vn 0.1592 -0.9254 0.344
vn 0.2251 -0.9291 0.2935
vn 0.2251 -0.9291 0.2935
vn 0.1592 -0.9254 0.344
vn 0.0564 -0.9839 0.1696
vn 0.0796 -0.9852 0.1519
vn 0.5136 -0.7814 0.3544
vn 0.4194 -0.7725 0.4769
vn 0.2251 -0.9291 0.2935
vn 0.2757 -0.9338 0.2279
vn 0.2757 -0.9338 0.2279
vn 0.2251 -0.9291 0.2935
vn 0.0796 -0.9852 0.1519
vn 0.0975 -0.9869 0.1286
vn 0.5728 -0.7918 0.2117
vn 0.5136 -0.7814 0.3544
vn 0.2757 -0.9338 0.2279
vn 0.3075 -0.9394 0.1512
vn 0.3075 -0.9394 0.1512
vn 0.2757 -0.9338 0.2279
vn 0.0975 -0.9869 0.1286
vn 0.1088 -0.9889 0.1015
vn 0.5931 -0.803 0.0587
vn 0.5728 -0.7918 0.2117
vn 0.3075 -0.9394 0.1512
vn 0.3184 -0.9454 0.069
vn 0.3184 -0.9454 0.069
vn 0.3075 -0.9394 0.1512
vn 0.1088 -0.9889 0.1015
vn 0.1127 -0.991 0.0725
vn 0.5728 -0.8142 -0.0944
vn 0.5931 -0.803 0.0587
vn 0.3184 -0.9454 0.069
vn 0.3075 -0.9514 -0.0131
vn 0.3075 -0.9514 -0.0131
vn 0.3184 -0.9454 0.069
vn 0.1127 -0.991 0.0725
vn 0.1088 -0.9931 0.0433
vn 0.5136 -0.8246 -0.2371
vn 0.5728 -0.8142 -0.0944
vn 0.3075 -0.9514 -0.0131
vn 0.2757 -0.957 -0.0897
vn 0.2757 -0.957 -0.0897
vn 0.3075 -0.9514 -0.0131
vn 0.1088 -0.9931 0.0433
vn 0.0975 -0.9951 0.0161
vn 0.4193 -0.8336 -0.3596
vn 0.5136 -0.8246 -0.2371
vn 0.2757 -0.957 -0.0897
vn 0.2251 -0.9619 -0.1554
vn 0.2251 -0.9619 -0.1554
vn 0.2757 -0.957 -0.0897
vn 0.0975 -0.9951 0.0161
vn 0.0796 -0.9968 -0.0071
vn 0.2965 -0.8404 -0.4536
vn 0.4193 -0.8336 -0.3596
vn 0.2251 -0.9619 -0.1554
vn 0.1592 -0.9655 -0.2059
vn 0.1592 -0.9655 -0.2059
vn 0.2251 -0.9619 -0.1554
vn 0.0796 -0.9968 -0.0071
vn 0.0564 -0.9981 -0.0249
vn 0.1535 -0.8448 -0.5126
vn 0.2965 -0.8404 -0.4536
vn 0.1592 -0.9655 -0.2059
vn 0.0824 -0.9679 -0.2376
vn 0.0824 -0.9679 -0.2376
vn 0.1592 -0.9655 -0.2059
vn 0.0564 -0.9981 -0.0249
vn 0.0292 -0.9989 -0.0361
vn -0 -0.9686 -0.2484
vn 0.0824 -0.9679 -0.2376
vn 0.0292 -0.9989 -0.0361
vn -0 -0.9992 -0.04
vn 0.4056 -0.6344 -0.658
vn 0.5736 -0.625 -0.5295
vn 0.4193 -0.8336 -0.3596
vn 0.2965 -0.8404 -0.4536
vn 0.21 -0.6403 -0.7389
vn 0.4056 -0.6344 -0.658
vn 0.2965 -0.8404 -0.4536
vn 0.1535 -0.8448 -0.5126
vn 0.4758 -0.3667 -0.7995
vn 0.6728 -0.3557 -0.6487
vn 0.5736 -0.625 -0.5295
vn 0.4056 -0.6344 -0.658
vn 0.2463 -0.3736 -0.8943
vn 0.4758 -0.3667 -0.7995
vn 0.4056 -0.6344 -0.658
vn 0.21 -0.6403 -0.7389
vn 0.6728 -0.3557 -0.6487
vn 0.8241 -0.3414 -0.4521
vn 0.7025 -0.6128 -0.3619
vn 0.5736 -0.625 -0.5295
vn 0.5736 -0.625 -0.5295
vn 0.7025 -0.6128 -0.3619
vn 0.5136 -0.8246 -0.2371
vn 0.4193 -0.8336 -0.3596
vn 0.8241 -0.3414 -0.4521
vn 0.9191 -0.3246 -0.2232
vn 0.7836 -0.5985 -0.1668
vn 0.7025 -0.6128 -0.3619
vn 0.7025 -0.6128 -0.3619
vn 0.7836 -0.5985 -0.1668
vn 0.5728 -0.8142 -0.0944
vn 0.5136 -0.8246 -0.2371
vn 0.9191 -0.3246 -0.2232
vn 0.9515 -0.3067 0.0224
vn 0.8112 -0.5832 0.0426
vn 0.7836 -0.5985 -0.1668
vn 0.7836 -0.5985 -0.1668
vn 0.8112 -0.5832 0.0426
vn 0.5931 -0.803 0.0587
vn 0.5728 -0.8142 -0.0944
vn 0.9515 -0.3067 0.0224
vn 0.9191 -0.2887 0.268
vn 0.7836 -0.5679 0.252
vn 0.8112 -0.5832 0.0426
vn 0.8112 -0.5832 0.0426
vn 0.7836 -0.5679 0.252
vn 0.5728 -0.7918 0.2117
vn 0.5931 -0.803 0.0587
vn 0.9191 -0.2887 0.268
vn 0.8241 -0.272 0.4969
vn 0.7025 -0.5537 0.4471
vn 0.7836 -0.5679 0.252
vn 0.7836 -0.5679 0.252
vn 0.7025 -0.5537 0.4471
vn 0.5136 -0.7814 0.3544
vn 0.5728 -0.7918 0.2117
vn 0.8241 -0.272 0.4969
vn 0.6728 -0.2577 0.6935
vn 0.5736 -0.5414 0.6147
vn 0.7025 -0.5537 0.4471
vn 0.7025 -0.5537 0.4471
vn 0.5736 -0.5414 0.6147
vn 0.4194 -0.7725 0.4769
vn 0.5136 -0.7814 0.3544
vn 0.6728 -0.2577 0.6935
vn 0.4758 -0.2466 0.8443
vn 0.4056 -0.532 0.7432
vn 0.5736 -0.5414 0.6147
vn 0.5736 -0.5414 0.6147
vn 0.4056 -0.532 0.7432
vn 0.2966 -0.7656 0.5709
vn 0.4194 -0.7725 0.4769
vn 0.4758 -0.2466 0.8443
vn 0.2463 -0.2397 0.9391
vn 0.2099 -0.5261 0.8241
vn 0.4056 -0.532 0.7432
vn 0.4056 -0.532 0.7432
vn 0.2099 -0.5261 0.8241
vn 0.1535 -0.7613 0.63
vn 0.2966 -0.7656 0.5709
vn 0.2463 -0.2397 0.9391
vn -0 -0.2373 0.9714
vn -0 -0.5241 0.8516
vn 0.2099 -0.5261 0.8241
vn 0.2099 -0.5261 0.8241
vn -0 -0.5241 0.8516
vn -0 -0.7598 0.6502
vn 0.1535 -0.7613 0.63
vn -0 -0.2373 0.9714
vn -0.2463 -0.2397 0.9391
vn -0.2099 -0.5261 0.8241
vn -0 -0.5241 0.8516
vn -0 -0.5241 0.8516
vn -0.2099 -0.5261 0.8241
vn -0.1535 -0.7613 0.63
vn -0 -0.7598 0.6502
vn -0.2463 -0.2397 0.9391
vn -0.4758 -0.2466 0.8443
vn -0.4056 -0.532 0.7432
vn -0.2099 -0.5261 0.8241
vn -0.2099 -0.5261 0.8241
vn -0.4056 -0.532 0.7432
vn -0.2965 -0.7656 0.5709
vn -0.1535 -0.7613 0.63
vn -0.4758 -0.2466 0.8443
vn -0.6728 -0.2576 0.6935
vn -0.5736 -0.5414 0.6147
vn -0.4056 -0.532 0.7432
vn -0.4056 -0.532 0.7432
vn -0.5736 -0.5414 0.6147
vn -0.4194 -0.7725 0.4769
vn -0.2965 -0.7656 0.5709
vn -0.6728 -0.2576 0.6935
vn -0.8241 -0.272 0.4969
vn -0.7025 -0.5537 0.4471
vn -0.5736 -0.5414 0.6147
vn -0.5736 -0.5414 0.6147
vn -0.7025 -0.5537 0.4471
vn -0.5136 -0.7814 0.3544
vn -0.4194 -0.7725 0.4769
vn -0.8241 -0.272 0.4969
vn -0.9191 -0.2887 0.268
vn -0.7836 -0.5679 0.252
vn -0.7025 -0.5537 0.4471
vn -0.7025 -0.5537 0.4471
vn -0.7836 -0.5679 0.252
vn -0.5729 -0.7918 0.2117
vn -0.5136 -0.7814 0.3544
vn -0.9191 -0.2887 0.268
vn -0.9516 -0.3066 0.0224
vn -0.8112 -0.5832 0.0426
vn -0.7836 -0.5679 0.252
vn -0.7836 -0.5679 0.252
vn -0.8112 -0.5832 0.0426
vn -0.593 -0.803 0.0587
vn -0.5729 -0.7918 0.2117
vn -0.9516 -0.3066 0.0224
vn -0.9191 -0.3246 -0.2232
vn -0.7836 -0.5985 -0.1668
vn -0.8112 -0.5832 0.0426
vn -0.8112 -0.5832 0.0426
vn -0.7836 -0.5985 -0.1668
vn -0.5728 -0.8142 -0.0944
vn -0.593 -0.803 0.0587
vn -0.9191 -0.3246 -0.2232
vn -0.8241 -0.3413 -0.4521
vn -0.7025 -0.6128 -0.3619
vn -0.7836 -0.5985 -0.1668
vn -0.7836 -0.5985 -0.1668
vn -0.7025 -0.6128 -0.3619
vn -0.5136 -0.8246 -0.237
vn -0.5728 -0.8142 -0.0944
vn -0.8241 -0.3413 -0.4521
vn -0.6728 -0.3557 -0.6487
vn -0.5736 -0.625 -0.5295
vn -0.7025 -0.6128 -0.3619
vn -0.7025 -0.6128 -0.3619
vn -0.5736 -0.625 -0.5295
vn -0.4193 -0.8336 -0.3596
vn -0.5136 -0.8246 -0.237
vn -0.6728 -0.3557 -0.6487
vn -0.4758 -0.3667 -0.7995
vn -0.4056 -0.6344 -0.658
vn -0.5736 -0.625 -0.5295
vn -0.5736 -0.625 -0.5295
vn -0.4056 -0.6344 -0.658
vn -0.2965 -0.8405 -0.4536
vn -0.4193 -0.8336 -0.3596
vn -0.865 0.0121 -0.5016
vn -0.7063 -0.0029 -0.708
vn -0.6728 -0.3557 -0.6487
vn -0.8241 -0.3413 -0.4521
vn -0.7063 -0.0029 -0.708
vn -0.4994 -0.0146 -0.8663
vn -0.4758 -0.3667 -0.7995
vn -0.6728 -0.3557 -0.6487
vn -0.4994 -0.0146 -0.8663
vn -0.7063 -0.0029 -0.708
vn -0.5469 0.5924 -0.5916
vn -0.3867 0.5834 -0.7142
vn -0.7063 -0.0029 -0.708
vn -0.865 0.0121 -0.5016
vn -0.6697 0.6041 -0.4318
vn -0.5469 0.5924 -0.5916
vn -0.865 0.0121 -0.5016
vn -0.9648 0.0299 -0.2614
vn -0.747 0.6177 -0.2458
vn -0.6697 0.6041 -0.4318
vn -0.9648 0.0299 -0.2614
vn -0.865 0.0121 -0.5016
vn -0.8241 -0.3413 -0.4521
vn -0.9191 -0.3246 -0.2232
vn -0.9648 0.0299 -0.2614
vn -0.9988 0.0483 -0.0035
vn -0.7734 0.6323 -0.0462
vn -0.747 0.6177 -0.2458
vn -0.9988 0.0483 -0.0035
vn -0.9648 0.0299 -0.2614
vn -0.9191 -0.3246 -0.2232
vn -0.9516 -0.3066 0.0224
vn -0.9988 0.0483 -0.0035
vn -0.9648 0.0673 0.2543
vn -0.747 0.6469 0.1534
vn -0.7734 0.6323 -0.0462
vn -0.9648 0.0673 0.2543
vn -0.9988 0.0483 -0.0035
vn -0.9516 -0.3066 0.0224
vn -0.9191 -0.2887 0.268
vn -0.9648 0.0673 0.2543
vn -0.865 0.0849 0.4945
vn -0.6697 0.6605 0.3394
vn -0.747 0.6469 0.1534
vn -0.865 0.0849 0.4945
vn -0.9648 0.0673 0.2543
vn -0.9191 -0.2887 0.268
vn -0.8241 -0.272 0.4969
vn -0.865 0.0849 0.4945
vn -0.7063 0.1 0.7009
vn -0.5468 0.6721 0.4992
vn -0.6697 0.6605 0.3394
vn -0.7063 0.1 0.7009
vn -0.865 0.0849 0.4945
vn -0.8241 -0.272 0.4969
vn -0.6728 -0.2576 0.6935
vn -0.7063 0.1 0.7009
vn -0.4994 0.1116 0.8592
vn -0.3867 0.6811 0.6218
vn -0.5468 0.6721 0.4992
vn -0.4994 0.1116 0.8592
vn -0.7063 0.1 0.7009
vn -0.6728 -0.2576 0.6935
vn -0.4758 -0.2466 0.8443
vn -0.2001 0.6868 0.6988
vn -0.3867 0.6811 0.6218
vn -0.4994 0.1116 0.8592
vn -0.2585 0.1189 0.9587
vn -0.2585 0.1189 0.9587
vn -0.4994 0.1116 0.8592
vn -0.4758 -0.2466 0.8443
vn -0.2463 -0.2397 0.9391
vn -0 0.6887 0.725
vn -0.2001 0.6868 0.6988
vn -0.2585 0.1189 0.9587
vn -0 0.1214 0.9926
vn -0 0.1214 0.9926
vn -0.2585 0.1189 0.9587
vn -0.2463 -0.2397 0.9391
vn -0 -0.2373 0.9714
vn -0 0.1214 0.9926
vn 0.2585 0.1189 0.9587
vn 0.2002 0.6868 0.6988
vn -0 0.6887 0.725
vn 0.2585 0.1189 0.9587
vn -0 0.1214 0.9926
vn -0 -0.2373 0.9714
vn 0.2463 -0.2397 0.9391
vn 0.2585 0.1189 0.9587
vn 0.4994 0.1116 0.8591
vn 0.3867 0.6811 0.6218
vn 0.2002 0.6868 0.6988
vn 0.4994 0.1116 0.8591
vn 0.2585 0.1189 0.9587
vn 0.2463 -0.2397 0.9391
vn 0.4758 -0.2466 0.8443
vn 0.4994 0.1116 0.8591
vn 0.7062 0.1 0.7009
vn 0.5468 0.6722 0.4992
vn 0.3867 0.6811 0.6218
vn 0.7062 0.1 0.7009
vn 0.4994 0.1116 0.8591
vn 0.4758 -0.2466 0.8443
vn 0.6728 -0.2577 0.6935
vn 0.6697 0.6605 0.3395
vn 0.5468 0.6722 0.4992
vn 0.7062 0.1 0.7009
vn 0.865 0.0849 0.4945
vn 0.865 0.0849 0.4945
vn 0.7062 0.1 0.7009
vn 0.6728 -0.2577 0.6935
vn 0.8241 -0.272 0.4969
vn 0.865 0.0849 0.4945
vn 0.9648 0.0674 0.2543
vn 0.7469 0.6469 0.1534
vn 0.6697 0.6605 0.3395
vn 0.9648 0.0674 0.2543
vn 0.865 0.0849 0.4945
vn 0.8241 -0.272 0.4969
vn 0.9191 -0.2887 0.268
vn 0.9648 0.0674 0.2543
vn 0.9988 0.0485 -0.0035
vn 0.7733 0.6324 -0.0462
vn 0.7469 0.6469 0.1534
vn 0.9988 0.0485 -0.0035
vn 0.9648 0.0674 0.2543
vn 0.9191 -0.2887 0.268
vn 0.9515 -0.3067 0.0224
vn 0.7469 0.6178 -0.2458
vn 0.7733 0.6324 -0.0462
vn 0.9988 0.0485 -0.0035
vn 0.9648 0.0297 -0.2614
vn 0.9648 0.0297 -0.2614
vn 0.9988 0.0485 -0.0035
vn 0.9515 -0.3067 0.0224
vn 0.9191 -0.3246 -0.2232
vn 0.9648 0.0297 -0.2614
vn 0.865 0.0121 -0.5016
vn 0.6697 0.6041 -0.4319
vn 0.7469 0.6178 -0.2458
vn 0.865 0.0121 -0.5016
vn 0.9648 0.0297 -0.2614
vn 0.9191 -0.3246 -0.2232
vn 0.8241 -0.3414 -0.4521
vn 0.865 0.0121 -0.5016
vn 0.7062 -0.0029 -0.708
vn 0.5469 0.5924 -0.5916
vn 0.6697 0.6041 -0.4319
vn 0.7062 -0.0029 -0.708
vn 0.865 0.0121 -0.5016
vn 0.8241 -0.3414 -0.4521
vn 0.6728 -0.3557 -0.6487
vn 0.7062 -0.0029 -0.708
vn 0.4994 -0.0146 -0.8662
vn 0.3867 0.5834 -0.7142
vn 0.5469 0.5924 -0.5916
vn 0.4994 -0.0146 -0.8662
vn 0.7062 -0.0029 -0.708
vn 0.6728 -0.3557 -0.6487
vn 0.4758 -0.3667 -0.7995
vn 0.4994 -0.0146 -0.8662
vn 0.2585 -0.0219 -0.9658
vn 0.2002 0.5778 -0.7913
vn 0.3867 0.5834 -0.7142
vn 0.2585 -0.0219 -0.9658
vn 0.4994 -0.0146 -0.8662
vn 0.4758 -0.3667 -0.7995
vn 0.2463 -0.3736 -0.8943
vn 0.2585 -0.0219 -0.9658
vn -0 -0.0243 -0.9997
vn -0 0.576 -0.8175
vn 0.2002 0.5778 -0.7913
vn 0.3867 0.5834 -0.7142
vn 0.2002 0.5778 -0.7913
vn 0.0568 0.9576 -0.2824
vn 0.1097 0.9592 -0.2605
vn 0.5469 0.5924 -0.5916
vn 0.3867 0.5834 -0.7142
vn 0.1097 0.9592 -0.2605
vn 0.1551 0.9617 -0.2258
vn 0.0001 0.9973 -0.0732
vn -0 0.9973 -0.073
vn 0.1097 0.9592 -0.2605
vn 0.0568 0.9576 -0.2824
vn -0 0.9973 -0.073
vn -0.0001 0.9973 -0.0728
vn 0.1551 0.9617 -0.2258
vn 0.1097 0.9592 -0.2605
vn -0.0001 0.9973 -0.0728
vn -0.0001 0.9973 -0.0729
vn 0.19 0.9651 -0.1805
vn 0.1551 0.9617 -0.2258
vn -0.0001 0.9973 -0.0729
vn -0 0.9973 -0.0728
vn 0.2118 0.9689 -0.1277
vn 0.19 0.9651 -0.1805
vn 0.7469 0.6178 -0.2458
vn 0.6697 0.6041 -0.4319
vn 0.19 0.9651 -0.1805
vn 0.2118 0.9689 -0.1277
vn 0.6697 0.6041 -0.4319
vn 0.5469 0.5924 -0.5916
vn 0.1551 0.9617 -0.2258
vn 0.19 0.9651 -0.1805
vn 0.2118 0.9689 -0.1277
vn 0.2193 0.9731 -0.0711
vn 0.7733 0.6324 -0.0462
vn 0.7469 0.6178 -0.2458
vn -0 0.9973 -0.0728
vn -0 0.9973 -0.0729
vn 0.2193 0.9731 -0.0711
vn 0.2118 0.9689 -0.1277
vn 0.7469 0.6469 0.1534
vn 0.7733 0.6324 -0.0462
vn 0.2193 0.9731 -0.0711
vn 0.2119 0.9772 -0.0145
vn -0 0.9973 -0.0729
vn -0 0.9973 -0.0729
vn 0.2119 0.9772 -0.0145
vn 0.2193 0.9731 -0.0711
vn -0 0.9973 -0.0729
vn -0 0.9973 -0.0728
vn 0.19 0.981 0.0383
vn 0.2119 0.9772 -0.0145
vn -0 0.9973 -0.0728
vn -0 0.9973 -0.0728
vn 0.1551 0.9844 0.0836
vn 0.19 0.981 0.0383
vn 0.6697 0.6605 0.3395
vn 0.7469 0.6469 0.1534
vn 0.2119 0.9772 -0.0145
vn 0.19 0.981 0.0383
vn 0.19 0.981 0.0383
vn 0.1551 0.9844 0.0836
vn 0.5468 0.6722 0.4992
vn 0.6697 0.6605 0.3395
vn 0.3867 0.6811 0.6218
vn 0.5468 0.6722 0.4992
vn 0.1551 0.9844 0.0836
vn 0.1097 0.9869 0.1184
vn -0 0.9973 -0.0728
vn -0 0.9973 -0.073
vn 0.1097 0.9869 0.1184
vn 0.1551 0.9844 0.0836
vn 0.2002 0.6868 0.6988
vn 0.3867 0.6811 0.6218
vn 0.1097 0.9869 0.1184
vn 0.0568 0.9885 0.1402
vn -0 0.9973 -0.073
vn -0.0001 0.9973 -0.073
vn 0.0568 0.9885 0.1402
vn 0.1097 0.9869 0.1184
vn -0.0001 0.9973 -0.073
vn -0 0.9973 -0.073
vn -0 0.989 0.1476
vn 0.0568 0.9885 0.1402
vn -0 0.9973 -0.073
vn 0.0001 0.9973 -0.073
vn -0.0568 0.9885 0.1402
vn -0 0.989 0.1476
vn -0 0.6887 0.725
vn 0.2002 0.6868 0.6988
vn 0.0568 0.9885 0.1402
vn -0 0.989 0.1476
vn -0 0.989 0.1476
vn -0.0568 0.9885 0.1402
vn -0.2001 0.6868 0.6988
vn -0 0.6887 0.725
vn -0.0568 0.9885 0.1402
vn -0.1097 0.9869 0.1184
vn -0.3867 0.6811 0.6218
vn -0.2001 0.6868 0.6988
vn 0.0001 0.9973 -0.073
vn -0 0.9973 -0.073
vn -0.1097 0.9869 0.1184
vn -0.0568 0.9885 0.1402
vn -0.5468 0.6721 0.4992
vn -0.3867 0.6811 0.6218
vn -0.1097 0.9869 0.1184
vn -0.1551 0.9844 0.0836
vn -0 0.9973 -0.073
vn -0 0.9973 -0.0728
vn -0.1551 0.9844 0.0836
vn -0.1097 0.9869 0.1184
vn -0 0.9973 -0.0728
vn -0 0.9973 -0.0728
vn -0.1899 0.9811 0.0383
vn -0.1551 0.9844 0.0836
vn -0 0.9973 -0.0728
vn -0 0.9973 -0.0729
vn -0.2118 0.9772 -0.0145
vn -0.1899 0.9811 0.0383
vn -0.747 0.6469 0.1534
vn -0.6697 0.6605 0.3394
vn -0.1899 0.9811 0.0383
vn -0.2118 0.9772 -0.0145
vn -0.6697 0.6605 0.3394
vn -0.5468 0.6721 0.4992
vn -0.1551 0.9844 0.0836
vn -0.1899 0.9811 0.0383
vn -0.7734 0.6323 -0.0462
vn -0.747 0.6469 0.1534
vn -0.2118 0.9772 -0.0145
vn -0.2192 0.9731 -0.0711
vn -0 0.9973 -0.0729
vn -0 0.9973 -0.0729
vn -0.2192 0.9731 -0.0711
vn -0.2118 0.9772 -0.0145
vn -0.747 0.6177 -0.2458
vn -0.7734 0.6323 -0.0462
vn -0.2192 0.9731 -0.0711
vn -0.2117 0.969 -0.1277
vn -0 0.9973 -0.0729
vn -0 0.9973 -0.0728
vn -0.2117 0.969 -0.1277
vn -0.2192 0.9731 -0.0711
vn -0 0.9973 -0.0728
vn 0.0001 0.9973 -0.0729
vn -0.1899 0.9651 -0.1805
vn -0.2117 0.969 -0.1277
vn 0.0001 0.9973 -0.0729
vn 0.0001 0.9973 -0.0728
vn -0.1551 0.9617 -0.2258
vn -0.1899 0.9651 -0.1805
vn -0.5469 0.5924 -0.5916
vn -0.6697 0.6041 -0.4318
vn -0.1899 0.9651 -0.1805
vn -0.1551 0.9617 -0.2258
vn -0.6697 0.6041 -0.4318
vn -0.747 0.6177 -0.2458
vn -0.2117 0.969 -0.1277
vn -0.1899 0.9651 -0.1805
vn -0.3867 0.5834 -0.7142
vn -0.5469 0.5924 -0.5916
vn -0.1551 0.9617 -0.2258
vn -0.1097 0.9592 -0.2605
vn 0.0001 0.9973 -0.0728
vn 0.0001 0.9974 -0.0727
vn -0.1097 0.9592 -0.2605
vn -0.1551 0.9617 -0.2258
vt 0.352624 0.501913
vt 0.353608 0.496664
vt 0.351834 0.496506
vt 0.35081 0.501247
vt 0.349973 0.506583
vt 0.352624 0.501913
vt 0.35081 0.501247
vt 0.348495 0.505542
vt 0.349689 0.500833
vt 0.347573 0.504891
vt 0.348495 0.505542
vt 0.35081 0.501247
vt 0.350724 0.4964
vt 0.349689 0.500833
vt 0.35081 0.501247
vt 0.351834 0.496506
vt 0.345206 0.509175
vt 0.348495 0.505542
vt 0.347573 0.504891
vt 0.344437 0.508247
vt 0.346453 0.510675
vt 0.349973 0.506583
vt 0.348495 0.505542
vt 0.345206 0.509175
vt 0.344437 0.508247
vt 0.347573 0.504891
vt 0.34672 0.504286
vt 0.343756 0.507426
vt 0.348697 0.500464
vt 0.34672 0.504286
vt 0.347573 0.504891
vt 0.349689 0.500833
vt 0.343756 0.507426
vt 0.34672 0.504286
vt 0.344748 0.502885
vt 0.342252 0.505605
vt 0.34672 0.504286
vt 0.348697 0.500464
vt 0.346499 0.499646
vt 0.344748 0.502885
vt 0.342252 0.505605
vt 0.344748 0.502885
vt 0.342151 0.50103
vt 0.340229 0.503145
vt 0.344748 0.502885
vt 0.346499 0.499646
vt 0.343532 0.498532
vt 0.342151 0.50103
vt 0.348697 0.500464
vt 0.349692 0.496301
vt 0.347304 0.496065
vt 0.346499 0.499646
vt 0.346499 0.499646
vt 0.347304 0.496065
vt 0.344142 0.495749
vt 0.343532 0.498532
vt 0.343532 0.498532
vt 0.344142 0.495749
vt 0.341333 0.495466
vt 0.340873 0.497529
vt 0.342151 0.50103
vt 0.343532 0.498532
vt 0.340873 0.497529
vt 0.339853 0.499381
vt 0.340873 0.497529
vt 0.341333 0.495466
vt 0.338693 0.4952
vt 0.338376 0.496584
vt 0.339853 0.499381
vt 0.340873 0.497529
vt 0.338376 0.496584
vt 0.337696 0.497832
vt 0.340229 0.503145
vt 0.342151 0.50103
vt 0.339853 0.499381
vt 0.338422 0.500942
vt 0.338422 0.500942
vt 0.339853 0.499381
vt 0.337696 0.497832
vt 0.336728 0.498874
vt 0.336728 0.498874
vt 0.337696 0.497832
vt 0.335578 0.496307
vt 0.335071 0.496846
vt 0.337696 0.497832
vt 0.338376 0.496584
vt 0.335929 0.495656
vt 0.335578 0.496307
vt 0.33328 0.494648
vt 0.335071 0.496846
vt 0.335578 0.496307
vt 0.33328 0.494648
vt 0.335578 0.496307
vt 0.335929 0.495656
vt 0.33328 0.494648
vt 0.335929 0.495656
vt 0.336098 0.494936
vt 0.33328 0.494648
vt 0.336098 0.494936
vt 0.336077 0.494197
vt 0.33328 0.494648
vt 0.336077 0.494197
vt 0.335865 0.493489
vt 0.33328 0.494648
vt 0.335865 0.493489
vt 0.335477 0.49286
vt 0.33328 0.494648
vt 0.335477 0.49286
vt 0.33494 0.492353
vt 0.33328 0.494648
vt 0.33494 0.492353
vt 0.33429 0.492001
vt 0.33328 0.494648
vt 0.33429 0.492001
vt 0.333571 0.491831
vt 0.33328 0.494648
vt 0.333571 0.491831
vt 0.332832 0.491851
vt 0.33328 0.494648
vt 0.332832 0.491851
vt 0.332124 0.492062
vt 0.33328 0.494648
vt 0.332124 0.492062
vt 0.331493 0.492449
vt 0.33328 0.494648
vt 0.331493 0.492449
vt 0.330985 0.492986
vt 0.33328 0.494648
vt 0.330985 0.492986
vt 0.330633 0.493636
vt 0.33328 0.494648
vt 0.330633 0.493636
vt 0.330461 0.494356
vt 0.33328 0.494648
vt 0.330461 0.494356
vt 0.330481 0.495096
vt 0.33328 0.494648
vt 0.330481 0.495096
vt 0.330693 0.495805
vt 0.33328 0.494648
vt 0.330693 0.495805
vt 0.331081 0.496435
vt 0.33328 0.494648
vt 0.331081 0.496435
vt 0.331618 0.496945
vt 0.33328 0.494648
vt 0.331618 0.496945
vt 0.33227 0.497296
vt 0.33328 0.494648
vt 0.33227 0.497296
vt 0.33299 0.497468
vt 0.33328 0.494648
vt 0.33299 0.497468
vt 0.333731 0.497447
vt 0.33328 0.494648
vt 0.333731 0.497447
vt 0.334441 0.497235
vt 0.33328 0.494648
vt 0.334441 0.497235
vt 0.335071 0.496846
vt 0.335515 0.499616
vt 0.336728 0.498874
vt 0.335071 0.496846
vt 0.334441 0.497235
vt 0.334152 0.500036
vt 0.335515 0.499616
vt 0.334441 0.497235
vt 0.333731 0.497447
vt 0.33661 0.502036
vt 0.338422 0.500942
vt 0.336728 0.498874
vt 0.335515 0.499616
vt 0.33459 0.502669
vt 0.33661 0.502036
vt 0.335515 0.499616
vt 0.334152 0.500036
vt 0.332457 0.502753
vt 0.33459 0.502669
vt 0.334152 0.500036
vt 0.332723 0.500074
vt 0.332723 0.500074
vt 0.334152 0.500036
vt 0.333731 0.497447
vt 0.33299 0.497468
vt 0.330388 0.502233
vt 0.332457 0.502753
vt 0.332723 0.500074
vt 0.331339 0.499738
vt 0.331339 0.499738
vt 0.332723 0.500074
vt 0.33299 0.497468
vt 0.33227 0.497296
vt 0.328505 0.501239
vt 0.330388 0.502233
vt 0.331339 0.499738
vt 0.330081 0.499068
vt 0.330081 0.499068
vt 0.331339 0.499738
vt 0.33227 0.497296
vt 0.331618 0.496945
vt 0.326984 0.499753
vt 0.328505 0.501239
vt 0.330081 0.499068
vt 0.329053 0.498081
vt 0.329053 0.498081
vt 0.330081 0.499068
vt 0.331618 0.496945
vt 0.331081 0.496435
vt 0.325862 0.497954
vt 0.326984 0.499753
vt 0.329053 0.498081
vt 0.328303 0.496872
vt 0.328303 0.496872
vt 0.329053 0.498081
vt 0.331081 0.496435
vt 0.330693 0.495805
vt 0.325245 0.495921
vt 0.325862 0.497954
vt 0.328303 0.496872
vt 0.327891 0.495507
vt 0.327891 0.495507
vt 0.328303 0.496872
vt 0.330693 0.495805
vt 0.330481 0.495096
vt 0.325221 0.493803
vt 0.325245 0.495921
vt 0.327891 0.495507
vt 0.327864 0.494084
vt 0.327864 0.494084
vt 0.327891 0.495507
vt 0.330481 0.495096
vt 0.330461 0.494356
vt 0.325696 0.491742
vt 0.325221 0.493803
vt 0.327864 0.494084
vt 0.328189 0.4927
vt 0.328189 0.4927
vt 0.327864 0.494084
vt 0.330461 0.494356
vt 0.330633 0.493636
vt 0.326728 0.489898
vt 0.325696 0.491742
vt 0.328189 0.4927
vt 0.328874 0.491455
vt 0.328874 0.491455
vt 0.328189 0.4927
vt 0.330633 0.493636
vt 0.330985 0.492986
vt 0.328165 0.488348
vt 0.326728 0.489898
vt 0.328874 0.491455
vt 0.329845 0.490418
vt 0.329845 0.490418
vt 0.328874 0.491455
vt 0.330985 0.492986
vt 0.331493 0.492449
vt 0.329977 0.487256
vt 0.328165 0.488348
vt 0.329845 0.490418
vt 0.33106 0.489681
vt 0.33106 0.489681
vt 0.329845 0.490418
vt 0.331493 0.492449
vt 0.332124 0.492062
vt 0.331998 0.48663
vt 0.329977 0.487256
vt 0.33106 0.489681
vt 0.332419 0.489268
vt 0.332419 0.489268
vt 0.33106 0.489681
vt 0.332124 0.492062
vt 0.332832 0.491851
vt 0.334112 0.486598
vt 0.331998 0.48663
vt 0.332419 0.489268
vt 0.333839 0.489237
vt 0.333839 0.489237
vt 0.332419 0.489268
vt 0.332832 0.491851
vt 0.333571 0.491831
vt 0.336173 0.487065
vt 0.334112 0.486598
vt 0.333839 0.489237
vt 0.335222 0.489558
vt 0.335222 0.489558
vt 0.333839 0.489237
vt 0.333571 0.491831
vt 0.33429 0.492001
vt 0.33802 0.488091
vt 0.336173 0.487065
vt 0.335222 0.489558
vt 0.336467 0.49024
vt 0.336467 0.49024
vt 0.335222 0.489558
vt 0.33429 0.492001
vt 0.33494 0.492353
vt 0.339575 0.489525
vt 0.33802 0.488091
vt 0.336467 0.49024
vt 0.337505 0.491209
vt 0.337505 0.491209
vt 0.336467 0.49024
vt 0.33494 0.492353
vt 0.335477 0.49286
vt 0.340664 0.491337
vt 0.339575 0.489525
vt 0.337505 0.491209
vt 0.338244 0.492422
vt 0.338244 0.492422
vt 0.337505 0.491209
vt 0.335477 0.49286
vt 0.335865 0.493489
vt 0.341294 0.493354
vt 0.340664 0.491337
vt 0.338244 0.492422
vt 0.338659 0.49378
vt 0.338659 0.49378
vt 0.338244 0.492422
vt 0.335865 0.493489
vt 0.336077 0.494197
vt 0.341333 0.495466
vt 0.341294 0.493354
vt 0.338659 0.49378
vt 0.338693 0.4952
vt 0.338693 0.4952
vt 0.338659 0.49378
vt 0.336077 0.494197
vt 0.336098 0.494936
vt 0.338376 0.496584
vt 0.338693 0.4952
vt 0.336098 0.494936
vt 0.335929 0.495656
vt 0.344098 0.492902
vt 0.343244 0.490181
vt 0.340664 0.491337
vt 0.341294 0.493354
vt 0.344142 0.495749
vt 0.344098 0.492902
vt 0.341294 0.493354
vt 0.341333 0.495466
vt 0.347226 0.492405
vt 0.346172 0.488872
vt 0.343244 0.490181
vt 0.344098 0.492902
vt 0.347304 0.496065
vt 0.347226 0.492405
vt 0.344098 0.492902
vt 0.344142 0.495749
vt 0.346172 0.488872
vt 0.344214 0.485739
vt 0.341774 0.487732
vt 0.343244 0.490181
vt 0.343244 0.490181
vt 0.341774 0.487732
vt 0.339575 0.489525
vt 0.340664 0.491337
vt 0.344214 0.485739
vt 0.341532 0.483223
vt 0.339672 0.485804
vt 0.341774 0.487732
vt 0.341774 0.487732
vt 0.339672 0.485804
vt 0.33802 0.488091
vt 0.339575 0.489525
vt 0.341532 0.483223
vt 0.33831 0.481454
vt 0.337184 0.484413
vt 0.339672 0.485804
vt 0.339672 0.485804
vt 0.337184 0.484413
vt 0.336173 0.487065
vt 0.33802 0.488091
vt 0.33831 0.481454
vt 0.334736 0.48063
vt 0.334405 0.48379
vt 0.337184 0.484413
vt 0.337184 0.484413
vt 0.334405 0.48379
vt 0.334112 0.486598
vt 0.336173 0.487065
vt 0.334736 0.48063
vt 0.331079 0.48069
vt 0.331556 0.483819
vt 0.334405 0.48379
vt 0.334405 0.48379
vt 0.331556 0.483819
vt 0.331998 0.48663
vt 0.334112 0.486598
vt 0.331079 0.48069
vt 0.327553 0.481744
vt 0.328814 0.484655
vt 0.331556 0.483819
vt 0.331556 0.483819
vt 0.328814 0.484655
vt 0.329977 0.487256
vt 0.331998 0.48663
vt 0.327553 0.481744
vt 0.324404 0.48368
vt 0.326387 0.486166
vt 0.328814 0.484655
vt 0.328814 0.484655
vt 0.326387 0.486166
vt 0.328165 0.488348
vt 0.329977 0.487256
vt 0.324404 0.48368
vt 0.321873 0.486357
vt 0.32445 0.488243
vt 0.326387 0.486166
vt 0.326387 0.486166
vt 0.32445 0.488243
vt 0.326728 0.489898
vt 0.328165 0.488348
vt 0.321873 0.486357
vt 0.320088 0.489576
vt 0.323047 0.490719
vt 0.32445 0.488243
vt 0.32445 0.488243
vt 0.323047 0.490719
vt 0.325696 0.491742
vt 0.326728 0.489898
vt 0.320088 0.489576
vt 0.319247 0.49315
vt 0.322411 0.493497
vt 0.323047 0.490719
vt 0.323047 0.490719
vt 0.322411 0.493497
vt 0.325221 0.493803
vt 0.325696 0.491742
vt 0.319247 0.49315
vt 0.319288 0.49681
vt 0.322428 0.496349
vt 0.322411 0.493497
vt 0.322411 0.493497
vt 0.322428 0.496349
vt 0.325245 0.495921
vt 0.325221 0.493803
vt 0.319288 0.49681
vt 0.320323 0.500361
vt 0.323256 0.499095
vt 0.322428 0.496349
vt 0.322428 0.496349
vt 0.323256 0.499095
vt 0.325862 0.497954
vt 0.325245 0.495921
vt 0.320323 0.500361
vt 0.322249 0.503532
vt 0.324768 0.50153
vt 0.323256 0.499095
vt 0.323256 0.499095
vt 0.324768 0.50153
vt 0.326984 0.499753
vt 0.325862 0.497954
vt 0.322249 0.503532
vt 0.324923 0.506145
vt 0.326817 0.503553
vt 0.324768 0.50153
vt 0.324768 0.50153
vt 0.326817 0.503553
vt 0.328505 0.501239
vt 0.326984 0.499753
vt 0.324923 0.506145
vt 0.328213 0.507905
vt 0.329368 0.504895
vt 0.326817 0.503553
vt 0.326817 0.503553
vt 0.329368 0.504895
vt 0.330388 0.502233
vt 0.328505 0.501239
vt 0.328213 0.507905
vt 0.331825 0.508796
vt 0.33216 0.505606
vt 0.329368 0.504895
vt 0.329368 0.504895
vt 0.33216 0.505606
vt 0.332457 0.502753
vt 0.330388 0.502233
vt 0.331825 0.508796
vt 0.335565 0.508641
vt 0.335046 0.505482
vt 0.33216 0.505606
vt 0.33216 0.505606
vt 0.335046 0.505482
vt 0.33459 0.502669
vt 0.332457 0.502753
vt 0.335565 0.508641
vt 0.339101 0.507542
vt 0.337777 0.504618
vt 0.335046 0.505482
vt 0.335046 0.505482
vt 0.337777 0.504618
vt 0.33661 0.502036
vt 0.33459 0.502669
vt 0.339101 0.507542
vt 0.342252 0.505605
vt 0.340229 0.503145
vt 0.337777 0.504618
vt 0.337777 0.504618
vt 0.340229 0.503145
vt 0.338422 0.500942
vt 0.33661 0.502036
vt 0.335962 0.511007
vt 0.340109 0.50976
vt 0.339101 0.507542
vt 0.335565 0.508641
vt 0.340109 0.50976
vt 0.343756 0.507426
vt 0.342252 0.505605
vt 0.339101 0.507542
vt 0.343756 0.507426
vt 0.340109 0.50976
vt 0.340548 0.510716
vt 0.344437 0.508247
vt 0.340109 0.50976
vt 0.335962 0.511007
vt 0.336143 0.512066
vt 0.340548 0.510716
vt 0.335962 0.511007
vt 0.331576 0.51117
vt 0.331468 0.512236
vt 0.336143 0.512066
vt 0.331576 0.51117
vt 0.335962 0.511007
vt 0.335565 0.508641
vt 0.331825 0.508796
vt 0.331576 0.51117
vt 0.327339 0.510193
vt 0.326962 0.511183
vt 0.331468 0.512236
vt 0.327339 0.510193
vt 0.331576 0.51117
vt 0.331825 0.508796
vt 0.328213 0.507905
vt 0.327339 0.510193
vt 0.323517 0.508074
vt 0.322877 0.508949
vt 0.326962 0.511183
vt 0.323517 0.508074
vt 0.327339 0.510193
vt 0.328213 0.507905
vt 0.324923 0.506145
vt 0.323517 0.508074
vt 0.320326 0.505049
vt 0.319483 0.505713
vt 0.322877 0.508949
vt 0.320326 0.505049
vt 0.323517 0.508074
vt 0.324923 0.506145
vt 0.322249 0.503532
vt 0.320326 0.505049
vt 0.318117 0.5013
vt 0.317151 0.501708
vt 0.319483 0.505713
vt 0.318117 0.5013
vt 0.320326 0.505049
vt 0.322249 0.503532
vt 0.320323 0.500361
vt 0.318117 0.5013
vt 0.316968 0.49714
vt 0.315922 0.497291
vt 0.317151 0.501708
vt 0.316968 0.49714
vt 0.318117 0.5013
vt 0.320323 0.500361
vt 0.319288 0.49681
vt 0.31583 0.492781
vt 0.315922 0.497291
vt 0.316968 0.49714
vt 0.316859 0.492891
vt 0.316859 0.492891
vt 0.316968 0.49714
vt 0.319288 0.49681
vt 0.319247 0.49315
vt 0.316905 0.488357
vt 0.31583 0.492781
vt 0.316859 0.492891
vt 0.317895 0.488735
vt 0.317895 0.488735
vt 0.316859 0.492891
vt 0.319247 0.49315
vt 0.320088 0.489576
vt 0.317895 0.488735
vt 0.319913 0.484926
vt 0.319064 0.484311
vt 0.316905 0.488357
vt 0.319913 0.484926
vt 0.317895 0.488735
vt 0.320088 0.489576
vt 0.321873 0.486357
vt 0.319913 0.484926
vt 0.322916 0.481816
vt 0.322248 0.480983
vt 0.319064 0.484311
vt 0.322916 0.481816
vt 0.319913 0.484926
vt 0.321873 0.486357
vt 0.324404 0.48368
vt 0.322916 0.481816
vt 0.326613 0.479565
vt 0.326194 0.478598
vt 0.322248 0.480983
vt 0.326613 0.479565
vt 0.322916 0.481816
vt 0.324404 0.48368
vt 0.327553 0.481744
vt 0.330571 0.47734
vt 0.326194 0.478598
vt 0.326613 0.479565
vt 0.330728 0.478373
vt 0.330728 0.478373
vt 0.326613 0.479565
vt 0.327553 0.481744
vt 0.331079 0.48069
vt 0.330728 0.478373
vt 0.334983 0.478243
vt 0.335089 0.477213
vt 0.330571 0.47734
vt 0.334983 0.478243
vt 0.330728 0.478373
vt 0.331079 0.48069
vt 0.334736 0.48063
vt 0.334983 0.478243
vt 0.33914 0.479262
vt 0.339514 0.478272
vt 0.335089 0.477213
vt 0.33914 0.479262
vt 0.334983 0.478243
vt 0.334736 0.48063
vt 0.33831 0.481454
vt 0.343561 0.480408
vt 0.339514 0.478272
vt 0.33914 0.479262
vt 0.342952 0.481259
vt 0.342952 0.481259
vt 0.33914 0.479262
vt 0.33831 0.481454
vt 0.341532 0.483223
vt 0.342952 0.481259
vt 0.346075 0.484243
vt 0.346902 0.483569
vt 0.343561 0.480408
vt 0.346075 0.484243
vt 0.342952 0.481259
vt 0.341532 0.483223
vt 0.344214 0.485739
vt 0.346075 0.484243
vt 0.348358 0.487921
vt 0.349317 0.4875
vt 0.346902 0.483569
vt 0.348358 0.487921
vt 0.346075 0.484243
vt 0.344214 0.485739
vt 0.346172 0.488872
vt 0.348358 0.487921
vt 0.349531 0.492047
vt 0.35057 0.491884
vt 0.349317 0.4875
vt 0.349531 0.492047
vt 0.348358 0.487921
vt 0.346172 0.488872
vt 0.347226 0.492405
vt 0.349531 0.492047
vt 0.349692 0.496301
vt 0.350724 0.4964
vt 0.35057 0.491884
vt 0.349692 0.496301
vt 0.349531 0.492047
vt 0.347226 0.492405
vt 0.347304 0.496065
vt 0.349692 0.496301
vt 0.348697 0.500464
vt 0.349689 0.500833
vt 0.350724 0.4964
vt 0.35057 0.491884
vt 0.350724 0.4964
vt 0.351834 0.496506
vt 0.351741 0.491705
vt 0.349317 0.4875
vt 0.35057 0.491884
vt 0.351741 0.491705
vt 0.350353 0.487049
vt 0.353608 0.496664
vt 0.353557 0.491398
vt 0.351741 0.491705
vt 0.351834 0.496506
vt 0.353557 0.491398
vt 0.352067 0.486274
vt 0.350353 0.487049
vt 0.351741 0.491705
vt 0.352067 0.486274
vt 0.349352 0.481562
vt 0.347838 0.482806
vt 0.350353 0.487049
vt 0.349352 0.481562
vt 0.345266 0.478015
vt 0.344217 0.479489
vt 0.347838 0.482806
vt 0.343561 0.480408
vt 0.346902 0.483569
vt 0.347838 0.482806
vt 0.344217 0.479489
vt 0.346902 0.483569
vt 0.349317 0.4875
vt 0.350353 0.487049
vt 0.347838 0.482806
vt 0.344217 0.479489
vt 0.339934 0.477154
vt 0.339514 0.478272
vt 0.343561 0.480408
vt 0.345266 0.478015
vt 0.340609 0.475345
vt 0.339934 0.477154
vt 0.344217 0.479489
vt 0.335089 0.477213
vt 0.339514 0.478272
vt 0.339934 0.477154
vt 0.3352 0.476105
vt 0.340609 0.475345
vt 0.335375 0.474331
vt 0.3352 0.476105
vt 0.339934 0.477154
vt 0.335375 0.474331
vt 0.330103 0.474308
vt 0.330387 0.476202
vt 0.3352 0.476105
vt 0.330103 0.474308
vt 0.325013 0.475877
vt 0.325721 0.477534
vt 0.330387 0.476202
vt 0.330571 0.47734
vt 0.335089 0.477213
vt 0.3352 0.476105
vt 0.330387 0.476202
vt 0.330387 0.476202
vt 0.325721 0.477534
vt 0.326194 0.478598
vt 0.330571 0.47734
vt 0.322248 0.480983
vt 0.326194 0.478598
vt 0.325721 0.477534
vt 0.32149 0.480041
vt 0.325013 0.475877
vt 0.320261 0.478516
vt 0.32149 0.480041
vt 0.325721 0.477534
vt 0.319064 0.484311
vt 0.322248 0.480983
vt 0.32149 0.480041
vt 0.318146 0.483648
vt 0.320261 0.478516
vt 0.316674 0.482588
vt 0.318146 0.483648
vt 0.32149 0.480041
vt 0.316674 0.482588
vt 0.313976 0.48725
vt 0.315787 0.487932
vt 0.318146 0.483648
vt 0.313976 0.48725
vt 0.312953 0.492493
vt 0.314722 0.492667
vt 0.315787 0.487932
vt 0.316905 0.488357
vt 0.319064 0.484311
vt 0.318146 0.483648
vt 0.315787 0.487932
vt 0.315787 0.487932
vt 0.314722 0.492667
vt 0.31583 0.492781
vt 0.316905 0.488357
vt 0.314722 0.492667
vt 0.314781 0.497459
vt 0.315922 0.497291
vt 0.31583 0.492781
vt 0.312953 0.492493
vt 0.312953 0.497737
vt 0.314781 0.497459
vt 0.314722 0.492667
vt 0.317151 0.501708
vt 0.315922 0.497291
vt 0.314781 0.497459
vt 0.316039 0.502178
vt 0.312953 0.497737
vt 0.314318 0.502939
vt 0.316039 0.502178
vt 0.314781 0.497459
vt 0.314318 0.502939
vt 0.31709 0.507625
vt 0.318579 0.506421
vt 0.316039 0.502178
vt 0.31709 0.507625
vt 0.320993 0.511555
vt 0.322156 0.50994
vt 0.318579 0.506421
vt 0.322877 0.508949
vt 0.319483 0.505713
vt 0.318579 0.506421
vt 0.322156 0.50994
vt 0.319483 0.505713
vt 0.317151 0.501708
vt 0.316039 0.502178
vt 0.318579 0.506421
vt 0.326962 0.511183
vt 0.322877 0.508949
vt 0.322156 0.50994
vt 0.326558 0.512251
vt 0.320993 0.511555
vt 0.325912 0.513964
vt 0.326558 0.512251
vt 0.322156 0.50994
vt 0.331468 0.512236
vt 0.326962 0.511183
vt 0.326558 0.512251
vt 0.331357 0.513416
vt 0.325912 0.513964
vt 0.331146 0.515384
vt 0.331357 0.513416
vt 0.326558 0.512251
vt 0.331146 0.515384
vt 0.336663 0.515133
vt 0.336354 0.513263
vt 0.331357 0.513416
vt 0.336663 0.515133
vt 0.341773 0.513398
vt 0.341022 0.511748
vt 0.336354 0.513263
vt 0.340548 0.510716
vt 0.336143 0.512066
vt 0.336354 0.513263
vt 0.341022 0.511748
vt 0.336143 0.512066
vt 0.331468 0.512236
vt 0.331357 0.513416
vt 0.336354 0.513263
vt 0.344437 0.508247
vt 0.340548 0.510716
vt 0.341022 0.511748
vt 0.345206 0.509175
vt 0.341773 0.513398
vt 0.346453 0.510675
vt 0.345206 0.509175
vt 0.341022 0.511748
s off
f 1/1/1 2/2/2 3/3/3
f 1/1/1 3/3/3 4/4/4
f 5/5/5 6/6/6 7/7/7
f 5/5/5 7/7/7 8/8/8
f 9/9/9 10/10/10 11/11/11
f 9/9/9 11/11/11 12/12/12
f 13/13/13 14/14/14 15/15/15
f 13/13/13 15/15/15 16/16/16
f 17/17/17 18/18/18 19/19/19
f 17/17/17 19/19/19 20/20/20
f 21/21/21 22/22/22 23/23/23
f 21/21/21 23/23/23 24/24/24
f 25/25/25 26/26/26 27/27/27
f 25/25/25 27/27/27 28/28/28
f 29/29/29 30/30/30 31/31/31
f 29/29/29 31/31/31 32/32/32
f 33/33/33 34/34/34 35/35/35
f 33/33/33 35/35/35 36/36/36
f 37/37/37 38/38/38 39/39/39
f 37/37/37 39/39/39 40/40/40
f 41/41/41 42/42/42 43/43/43
f 41/41/41 43/43/43 44/44/44
f 45/45/45 46/46/46 47/47/47
f 45/45/45 47/47/47 48/48/48
f 49/49/49 50/50/50 51/51/51
f 49/49/49 51/51/51 52/52/52
f 53/53/53 54/54/54 55/55/55
f 53/53/53 55/55/55 56/56/56
f 57/57/57 58/58/58 59/59/59
f 57/57/57 59/59/59 60/60/60
f 61/61/61 62/62/62 63/63/63
f 61/61/61 63/63/63 64/64/64
f 65/65/65 66/66/66 67/67/67
f 65/65/65 67/67/67 68/68/68
f 69/69/69 70/70/70 71/71/71
f 69/69/69 71/71/71 72/72/72
f 73/73/73 74/74/74 75/75/75
f 73/73/73 75/75/75 76/76/76
f 77/77/77 78/78/78 79/79/79
f 77/77/77 79/79/79 80/80/80
f 81/81/81 82/82/82 83/83/83
f 81/81/81 83/83/83 84/84/84
f 85/85/85 86/86/86 87/87/87
f 85/85/85 87/87/87 88/88/88
f 89/89/89 90/90/90 91/91/91
f 92/92/92 93/93/93 94/94/94
f 95/95/95 96/96/96 97/97/97
f 98/98/98 99/99/99 100/100/100
f 101/101/101 102/102/102 103/103/103
f 104/104/104 105/105/105 106/106/106
f 107/107/107 108/108/108 109/109/109
f 110/110/110 111/111/111 112/112/112
f 113/113/113 114/114/114 115/115/115
f 116/116/116 117/117/117 118/118/118
f 119/119/119 120/120/120 121/121/121
f 122/122/122 123/123/123 124/124/124
f 125/125/125 126/126/126 127/127/127
f 128/128/128 129/129/129 130/130/130
f 131/131/131 132/132/132 133/133/133
f 134/134/134 135/135/135 136/136/136
f 137/137/137 138/138/138 139/139/139
f 140/140/140 141/141/141 142/142/142
f 143/143/143 144/144/144 145/145/145
f 146/146/146 147/147/147 148/148/148
f 149/149/149 150/150/150 151/151/151
f 152/152/152 153/153/153 154/154/154
f 155/155/155 156/156/156 157/157/157
f 158/158/158 159/159/159 160/160/160
f 161/161/161 162/162/162 163/163/163
f 161/161/161 163/163/163 164/164/164
f 165/165/165 166/166/166 167/167/167
f 165/165/165 167/167/167 168/168/168
f 169/169/169 170/170/170 171/171/171
f 169/169/169 171/171/171 172/172/172
f 173/173/173 174/174/174 175/175/175
f 173/173/173 175/175/175 176/176/176
f 177/177/177 178/178/178 179/179/179
f 177/177/177 179/179/179 180/180/180
f 181/181/181 182/182/182 183/183/183
f 181/181/181 183/183/183 184/184/184
f 185/185/185 186/186/186 187/187/187
f 185/185/185 187/187/187 188/188/188
f 189/189/189 190/190/190 191/191/191
f 189/189/189 191/191/191 192/192/192
f 193/193/193 194/194/194 195/195/195
f 193/193/193 195/195/195 196/196/196
f 197/197/197 198/198/198 199/199/199
f 197/197/197 199/199/199 200/200/200
f 201/201/201 202/202/202 203/203/203
f 201/201/201 203/203/203 204/204/204
f 205/205/205 206/206/206 207/207/207
f 205/205/205 207/207/207 208/208/208
f 209/209/209 210/210/210 211/211/211
f 209/209/209 211/211/211 212/212/212
f 213/213/213 214/214/214 215/215/215
f 213/213/213 215/215/215 216/216/216
f 217/217/217 218/218/218 219/219/219
f 217/217/217 219/219/219 220/220/220
f 221/221/221 222/222/222 223/223/223
f 221/221/221 223/223/223 224/224/224
f 225/225/225 226/226/226 227/227/227
f 225/225/225 227/227/227 228/228/228
f 229/229/229 230/230/230 231/231/231
f 229/229/229 231/231/231 232/232/232
f 233/233/233 234/234/234 235/235/235
f 233/233/233 235/235/235 236/236/236
f 237/237/237 238/238/238 239/239/239
f 237/237/237 239/239/239 240/240/240
f 241/241/241 242/242/242 243/243/243
f 241/241/241 243/243/243 244/244/244
f 245/245/245 246/246/246 247/247/247
f 245/245/245 247/247/247 248/248/248
f 249/249/249 250/250/250 251/251/251
f 249/249/249 251/251/251 252/252/252
f 253/253/253 254/254/254 255/255/255
f 253/253/253 255/255/255 256/256/256
f 257/257/257 258/258/258 259/259/259
f 257/257/257 259/259/259 260/260/260
f 261/261/261 262/262/262 263/263/263
f 261/261/261 263/263/263 264/264/264
f 265/265/265 266/266/266 267/267/267
f 265/265/265 267/267/267 268/268/268
f 269/269/269 270/270/270 271/271/271
f 269/269/269 271/271/271 272/272/272
f 273/273/273 274/274/274 275/275/275
f 273/273/273 275/275/275 276/276/276
f 277/277/277 278/278/278 279/279/279
f 277/277/277 279/279/279 280/280/280
f 281/281/281 282/282/282 283/283/283
f 281/281/281 283/283/283 284/284/284
f 285/285/285 286/286/286 287/287/287
f 285/285/285 287/287/287 288/288/288
f 289/289/289 290/290/290 291/291/291
f 289/289/289 291/291/291 292/292/292
f 293/293/293 294/294/294 295/295/295
f 293/293/293 295/295/295 296/296/296
f 297/297/297 298/298/298 299/299/299
f 297/297/297 299/299/299 300/300/300
f 301/301/301 302/302/302 303/303/303
f 301/301/301 303/303/303 304/304/304
f 305/305/305 306/306/306 307/307/307
f 305/305/305 307/307/307 308/308/308
f 309/309/309 310/310/310 311/311/311
f 309/309/309 311/311/311 312/312/312
f 313/313/313 314/314/314 315/315/315
f 313/313/313 315/315/315 316/316/316
f 317/317/317 318/318/318 319/319/319
f 317/317/317 319/319/319 320/320/320
f 321/321/321 322/322/322 323/323/323
f 321/321/321 323/323/323 324/324/324
f 325/325/325 326/326/326 327/327/327
f 325/325/325 327/327/327 328/328/328
f 329/329/329 330/330/330 331/331/331
f 329/329/329 331/331/331 332/332/332
f 333/333/333 334/334/334 335/335/335
f 333/333/333 335/335/335 336/336/336
f 337/337/337 338/338/338 339/339/339
f 337/337/337 339/339/339 340/340/340
f 341/341/341 342/342/342 343/343/343
f 341/341/341 343/343/343 344/344/344
f 345/345/345 346/346/346 347/347/347
f 345/345/345 347/347/347 348/348/348
f 349/349/349 350/350/350 351/351/351
f 349/349/349 351/351/351 352/352/352
f 353/353/353 354/354/354 355/355/355
f 353/353/353 355/355/355 356/356/356
f 357/357/357 358/358/358 359/359/359
f 357/357/357 359/359/359 360/360/360
f 361/361/361 362/362/362 363/363/363
f 361/361/361 363/363/363 364/364/364
f 365/365/365 366/366/366 367/367/367
f 365/365/365 367/367/367 368/368/368
f 369/369/369 370/370/370 371/371/371
f 369/369/369 371/371/371 372/372/372
f 373/373/373 374/374/374 375/375/375
f 373/373/373 375/375/375 376/376/376
f 377/377/377 378/378/378 379/379/379
f 377/377/377 379/379/379 380/380/380
f 381/381/381 382/382/382 383/383/383
f 381/381/381 383/383/383 384/384/384
f 385/385/385 386/386/386 387/387/387
f 385/385/385 387/387/387 388/388/388
f 389/389/389 390/390/390 391/391/391
f 389/389/389 391/391/391 392/392/392
f 393/393/393 394/394/394 395/395/395
f 393/393/393 395/395/395 396/396/396
f 397/397/397 398/398/398 399/399/399
f 397/397/397 399/399/399 400/400/400
f 401/401/401 402/402/402 403/403/403
f 401/401/401 403/403/403 404/404/404
f 405/405/405 406/406/406 407/407/407
f 405/405/405 407/407/407 408/408/408
f 409/409/409 410/410/410 411/411/411
f 409/409/409 411/411/411 412/412/412
f 413/413/413 414/414/414 415/415/415
f 413/413/413 415/415/415 416/416/416
f 417/417/417 418/418/418 419/419/419
f 417/417/417 419/419/419 420/420/420
f 421/421/421 422/422/422 423/423/423
f 421/421/421 423/423/423 424/424/424
f 425/425/425 426/426/426 427/427/427
f 425/425/425 427/427/427 428/428/428
f 429/429/429 430/430/430 431/431/431
f 429/429/429 431/431/431 432/432/432
f 433/433/433 434/434/434 435/435/435
f 433/433/433 435/435/435 436/436/436
f 437/437/437 438/438/438 439/439/439
f 437/437/437 439/439/439 440/440/440
f 441/441/441 442/442/442 443/443/443
f 441/441/441 443/443/443 444/444/444
f 445/445/445 446/446/446 447/447/447
f 445/445/445 447/447/447 448/448/448
f 449/449/449 450/450/450 451/451/451
f 449/449/449 451/451/451 452/452/452
f 453/453/453 454/454/454 455/455/455
f 453/453/453 455/455/455 456/456/456
f 457/457/457 458/458/458 459/459/459
f 457/457/457 459/459/459 460/460/460
f 461/461/461 462/462/462 463/463/463
f 461/461/461 463/463/463 464/464/464
f 465/465/465 466/466/466 467/467/467
f 465/465/465 467/467/467 468/468/468
f 469/469/469 470/470/470 471/471/471
f 469/469/469 471/471/471 472/472/472
f 473/473/473 474/474/474 475/475/475
f 473/473/473 475/475/475 476/476/476
f 477/477/477 478/478/478 479/479/479
f 477/477/477 479/479/479 480/480/480
f 481/481/481 482/482/482 483/483/483
f 481/481/481 483/483/483 484/484/484
f 485/485/485 486/486/486 487/487/487
f 485/485/485 487/487/487 488/488/488
f 489/489/489 490/490/490 491/491/491
f 489/489/489 491/491/491 492/492/492
f 493/493/493 494/494/494 495/495/495
f 493/493/493 495/495/495 496/496/496
f 497/497/497 498/498/498 499/499/499
f 497/497/497 499/499/499 500/500/500
f 501/501/501 502/502/502 503/503/503
f 501/501/501 503/503/503 504/504/504
f 505/505/505 506/506/506 507/507/507
f 505/505/505 507/507/507 508/508/508
f 509/509/509 510/510/510 511/511/511
f 509/509/509 511/511/511 512/512/512
f 513/513/513 514/514/514 515/515/515
f 513/513/513 515/515/515 516/516/516
f 517/517/517 518/518/518 519/519/519
f 517/517/517 519/519/519 520/520/520
f 521/521/521 522/522/522 523/523/523
f 521/521/521 523/523/523 524/524/524
f 525/525/525 526/526/526 527/527/527
f 525/525/525 527/527/527 528/528/528
f 529/529/529 530/530/530 531/531/531
f 529/529/529 531/531/531 532/532/532
f 533/533/533 534/534/534 535/535/535
f 533/533/533 535/535/535 536/536/536
f 537/537/537 538/538/538 539/539/539
f 537/537/537 539/539/539 540/540/540
f 541/541/541 542/542/542 543/543/543
f 541/541/541 543/543/543 544/544/544
f 545/545/545 546/546/546 547/547/547
f 545/545/545 547/547/547 548/548/548
f 549/549/549 550/550/550 551/551/551
f 549/549/549 551/551/551 552/552/552
f 553/553/553 554/554/554 555/555/555
f 553/553/553 555/555/555 556/556/556
f 557/557/557 558/558/558 559/559/559
f 557/557/557 559/559/559 560/560/560
f 561/561/561 562/562/562 563/563/563
f 561/561/561 563/563/563 564/564/564
f 565/565/565 566/566/566 567/567/567
f 565/565/565 567/567/567 568/568/568
f 569/569/569 570/570/570 571/571/571
f 569/569/569 571/571/571 572/572/572
f 573/573/573 574/574/574 575/575/575
f 573/573/573 575/575/575 576/576/576
f 577/577/577 578/578/578 579/579/579
f 577/577/577 579/579/579 580/580/580
f 581/581/581 582/582/582 583/583/583
f 581/581/581 583/583/583 584/584/584
f 585/585/585 586/586/586 587/587/587
f 585/585/585 587/587/587 588/588/588
f 589/589/589 590/590/590 591/591/591
f 589/589/589 591/591/591 592/592/592
f 593/593/593 594/594/594 595/595/595
f 593/593/593 595/595/595 596/596/596
f 597/597/597 598/598/598 599/599/599
f 597/597/597 599/599/599 600/600/600
f 601/601/601 602/602/602 603/603/603
f 601/601/601 603/603/603 604/604/604
f 605/605/605 606/606/606 607/607/607
f 605/605/605 607/607/607 608/608/608
f 609/609/609 610/610/610 611/611/611
f 609/609/609 611/611/611 612/612/612
f 613/613/613 614/614/614 615/615/615
f 613/613/613 615/615/615 616/616/616
f 617/617/617 618/618/618 619/619/619
f 617/617/617 619/619/619 620/620/620
f 621/621/621 622/622/622 623/623/623
f 621/621/621 623/623/623 624/624/624
f 625/625/625 626/626/626 627/627/627
f 625/625/625 627/627/627 628/628/628
f 629/629/629 630/630/630 631/631/631
f 629/629/629 631/631/631 632/632/632
f 633/633/633 634/634/634 635/635/635
f 633/633/633 635/635/635 636/636/636
f 637/637/637 638/638/638 639/639/639
f 637/637/637 639/639/639 640/640/640
f 641/641/641 642/642/642 643/643/643
f 641/641/641 643/643/643 644/644/644
f 645/645/645 646/646/646 647/647/647
f 645/645/645 647/647/647 648/648/648
f 649/649/649 650/650/650 651/651/651
f 649/649/649 651/651/651 652/652/652
f 653/653/653 654/654/654 655/655/655
f 653/653/653 655/655/655 656/656/656
f 657/657/657 658/658/658 659/659/659
f 657/657/657 659/659/659 660/660/660
f 661/661/661 662/662/662 663/663/663
f 661/661/661 663/663/663 664/664/664
f 665/665/665 666/666/666 667/667/667
f 665/665/665 667/667/667 668/668/668
f 669/669/669 670/670/670 671/671/671
f 669/669/669 671/671/671 672/672/672
f 673/673/673 674/674/674 675/675/675
f 673/673/673 675/675/675 676/676/676
f 677/677/677 678/678/678 679/679/679
f 677/677/677 679/679/679 680/680/680
f 681/681/681 682/682/682 683/683/683
f 681/681/681 683/683/683 684/684/684
f 685/685/685 686/686/686 687/687/687
f 685/685/685 687/687/687 688/688/688
f 689/689/689 690/690/690 691/691/691
f 689/689/689 691/691/691 692/692/692
f 693/693/693 694/694/694 695/695/695
f 693/693/693 695/695/695 696/696/696
f 697/697/697 698/698/698 699/699/699
f 697/697/697 699/699/699 700/700/700
f 701/701/701 702/702/702 703/703/703
f 701/701/701 703/703/703 704/704/704
f 705/705/705 706/706/706 707/707/707
f 705/705/705 707/707/707 708/708/708
f 709/709/709 710/710/710 711/711/711
f 709/709/709 711/711/711 712/712/712
f 713/713/713 714/714/714 715/715/715
f 713/713/713 715/715/715 716/716/716
f 717/717/717 718/718/718 719/719/719
f 717/717/717 719/719/719 720/720/720
f 721/721/721 722/722/722 723/723/723
f 721/721/721 723/723/723 724/724/724
f 725/725/725 726/726/726 727/727/727
f 725/725/725 727/727/727 728/728/728
f 729/729/729 730/730/730 731/731/731
f 729/729/729 731/731/731 732/732/732
f 733/733/733 734/734/734 735/735/735
f 733/733/733 735/735/735 736/736/736
f 737/737/737 738/738/738 739/739/739
f 737/737/737 739/739/739 740/740/740
f 741/741/741 742/742/742 743/743/743
f 741/741/741 743/743/743 744/744/744
f 745/745/745 746/746/746 747/747/747
f 745/745/745 747/747/747 748/748/748
f 749/749/749 750/750/750 751/751/751
f 749/749/749 751/751/751 752/752/752
f 753/753/753 754/754/754 755/755/755
f 753/753/753 755/755/755 756/756/756
f 757/757/757 758/758/758 759/759/759
f 757/757/757 759/759/759 760/760/760
f 761/761/761 762/762/762 763/763/763
f 761/761/761 763/763/763 764/764/764
f 765/765/765 766/766/766 767/767/767
f 765/765/765 767/767/767 768/768/768
f 769/769/769 770/770/770 771/771/771
f 769/769/769 771/771/771 772/772/772
f 773/773/773 774/774/774 775/775/775
f 773/773/773 775/775/775 776/776/776
f 777/777/777 778/778/778 779/779/779
f 777/777/777 779/779/779 780/780/780
f 781/781/781 782/782/782 783/783/783
f 781/781/781 783/783/783 784/784/784
f 785/785/785 786/786/786 787/787/787
f 785/785/785 787/787/787 788/788/788
f 789/789/789 790/790/790 791/791/791
f 789/789/789 791/791/791 792/792/792
f 793/793/793 794/794/794 795/795/795
f 793/793/793 795/795/795 796/796/796
f 797/797/797 798/798/798 799/799/799
f 797/797/797 799/799/799 800/800/800
f 801/801/801 802/802/802 803/803/803
f 801/801/801 803/803/803 804/804/804
f 805/805/805 806/806/806 807/807/807
f 805/805/805 807/807/807 808/808/808
f 809/809/809 810/810/810 811/811/811
f 809/809/809 811/811/811 812/812/812
f 813/813/813 814/814/814 815/815/815
f 813/813/813 815/815/815 816/816/816
f 817/817/817 818/818/818 819/819/819
f 817/817/817 819/819/819 820/820/820
f 821/821/821 822/822/822 823/823/823
f 821/821/821 823/823/823 824/824/824
f 825/825/825 826/826/826 827/827/827
f 825/825/825 827/827/827 828/828/828
f 829/829/829 830/830/830 831/831/831
f 829/829/829 831/831/831 832/832/832
f 833/833/833 834/834/834 835/835/835
f 833/833/833 835/835/835 836/836/836
f 837/837/837 838/838/838 839/839/839
f 837/837/837 839/839/839 840/840/840
