v -0.286883 -0.117506 -0.422995
v -0.279419 -0.117429 -0.422015
v -0.278686 -0.117642 -0.424745
v -0.286883 -0.117726 -0.425821
v -0.294348 -0.117429 -0.422015
v -0.286883 -0.117506 -0.422995
v -0.286883 -0.117726 -0.425821
v -0.295081 -0.117642 -0.424745
v -0.286883 -0.118685 -0.427633
v -0.295568 -0.118597 -0.426493
v -0.295081 -0.117642 -0.424745
v -0.286883 -0.117726 -0.425821
v -0.278199 -0.118597 -0.426493
v -0.286883 -0.118685 -0.427633
v -0.286883 -0.117726 -0.425821
v -0.278686 -0.117642 -0.424745
v -0.30272 -0.117396 -0.42159
v -0.295081 -0.117642 -0.424745
v -0.295568 -0.118597 -0.426493
v -0.303661 -0.118336 -0.423151
v -0.301303 -0.117206 -0.419143
v -0.294348 -0.117429 -0.422015
v -0.295081 -0.117642 -0.424745
v -0.30272 -0.117396 -0.42159
v -0.303661 -0.118336 -0.423151
v -0.295568 -0.118597 -0.426493
v -0.295702 -0.120599 -0.426839
v -0.30392 -0.120335 -0.423446
v -0.286883 -0.120689 -0.427997
v -0.295702 -0.120599 -0.426839
v -0.295568 -0.118597 -0.426493
v -0.286883 -0.118685 -0.427633
v -0.30392 -0.120335 -0.423446
v -0.295702 -0.120599 -0.426839
v -0.295491 -0.125633 -0.425656
v -0.303512 -0.125375 -0.422344
v -0.295702 -0.120599 -0.426839
v -0.286883 -0.120689 -0.427997
v -0.286883 -0.125721 -0.426786
v -0.295491 -0.125633 -0.425656
v -0.303512 -0.125375 -0.422344
v -0.295491 -0.125633 -0.425656
v -0.294543 -0.132461 -0.421577
v -0.301681 -0.132231 -0.41863
v -0.295491 -0.125633 -0.425656
v -0.286883 -0.125721 -0.426786
v -0.286883 -0.132539 -0.422583
v -0.294543 -0.132461 -0.421577
v -0.286883 -0.120689 -0.427997
v -0.278064 -0.120599 -0.426839
v -0.278276 -0.125633 -0.425656
v -0.286883 -0.125721 -0.426786
v -0.286883 -0.125721 -0.426786
v -0.278276 -0.125633 -0.425656
v -0.279223 -0.132461 -0.421577
v -0.286883 -0.132539 -0.422583
v -0.286883 -0.132539 -0.422583
v -0.279223 -0.132461 -0.421577
v -0.280699 -0.137669 -0.415647
v -0.286883 -0.137733 -0.416459
v -0.294543 -0.132461 -0.421577
v -0.286883 -0.132539 -0.422583
v -0.286883 -0.137733 -0.416459
v -0.293068 -0.137669 -0.415647
v -0.286883 -0.137733 -0.416459
v -0.280699 -0.137669 -0.415647
v -0.282559 -0.140749 -0.408446
v -0.286883 -0.140793 -0.409014
v -0.293068 -0.137669 -0.415647
v -0.286883 -0.137733 -0.416459
v -0.286883 -0.140793 -0.409014
v -0.291208 -0.140749 -0.408446
v -0.301681 -0.132231 -0.41863
v -0.294543 -0.132461 -0.421577
v -0.293068 -0.137669 -0.415647
v -0.29883 -0.137484 -0.413268
v -0.29883 -0.137484 -0.413268
v -0.293068 -0.137669 -0.415647
v -0.291208 -0.140749 -0.408446
v -0.295238 -0.140619 -0.406782
v -0.295238 -0.140619 -0.406782
v -0.291208 -0.140749 -0.408446
v -0.289147 -0.141399 -0.400679
v -0.291256 -0.141331 -0.399808
v -0.291208 -0.140749 -0.408446
v -0.286883 -0.140793 -0.409014
v -0.286883 -0.141422 -0.400976
v -0.289147 -0.141399 -0.400679
v -0.286883 -0.141286 -0.392216
v -0.291256 -0.141331 -0.399808
v -0.289147 -0.141399 -0.400679
v -0.286883 -0.141286 -0.392216
v -0.289147 -0.141399 -0.400679
v -0.286883 -0.141422 -0.400976
v -0.286883 -0.141286 -0.392216
v -0.286883 -0.141422 -0.400976
v -0.28462 -0.141399 -0.400679
v -0.286883 -0.141286 -0.392216
v -0.28462 -0.141399 -0.400679
v -0.282511 -0.141331 -0.399808
v -0.286883 -0.141286 -0.392216
v -0.282511 -0.141331 -0.399808
v -0.2807 -0.141223 -0.398423
v -0.286883 -0.141286 -0.392216
v -0.2807 -0.141223 -0.398423
v -0.27931 -0.141082 -0.396617
v -0.286883 -0.141286 -0.392216
v -0.27931 -0.141082 -0.396617
v -0.278437 -0.140918 -0.394515
v -0.286883 -0.141286 -0.392216
v -0.278437 -0.140918 -0.394515
v -0.278139 -0.140743 -0.392258
v -0.286883 -0.141286 -0.392216
v -0.278139 -0.140743 -0.392258
v -0.278437 -0.140567 -0.390002
v -0.286883 -0.141286 -0.392216
v -0.278437 -0.140567 -0.390002
v -0.27931 -0.140403 -0.387899
v -0.286883 -0.141286 -0.392216
v -0.27931 -0.140403 -0.387899
v -0.2807 -0.140263 -0.386093
v -0.286883 -0.141286 -0.392216
v -0.2807 -0.140263 -0.386093
v -0.282511 -0.140155 -0.384708
v -0.286883 -0.141286 -0.392216
v -0.282511 -0.140155 -0.384708
v -0.28462 -0.140087 -0.383837
v -0.286883 -0.141286 -0.392216
v -0.28462 -0.140087 -0.383837
v -0.286883 -0.140064 -0.38354
v -0.286883 -0.141286 -0.392216
v -0.286883 -0.140064 -0.38354
v -0.289147 -0.140087 -0.383837
v -0.286883 -0.141286 -0.392216
v -0.289147 -0.140087 -0.383837
v -0.291256 -0.140155 -0.384708
v -0.286883 -0.141286 -0.392216
v -0.291256 -0.140155 -0.384708
v -0.293067 -0.140263 -0.386093
v -0.286883 -0.141286 -0.392216
v -0.293067 -0.140263 -0.386093
v -0.294456 -0.140403 -0.387899
v -0.286883 -0.141286 -0.392216
v -0.294456 -0.140403 -0.387899
v -0.29533 -0.140567 -0.390002
v -0.286883 -0.141286 -0.392216
v -0.29533 -0.140567 -0.390002
v -0.295628 -0.140743 -0.392258
v -0.286883 -0.141286 -0.392216
v -0.295628 -0.140743 -0.392258
v -0.29533 -0.140918 -0.394515
v -0.286883 -0.141286 -0.392216
v -0.29533 -0.140918 -0.394515
v -0.294456 -0.141082 -0.396617
v -0.286883 -0.141286 -0.392216
v -0.294456 -0.141082 -0.396617
v -0.293067 -0.141223 -0.398423
v -0.286883 -0.141286 -0.392216
v -0.293067 -0.141223 -0.398423
v -0.291256 -0.141331 -0.399808
v -0.298698 -0.140413 -0.404135
v -0.295238 -0.140619 -0.406782
v -0.291256 -0.141331 -0.399808
v -0.293067 -0.141223 -0.398423
v -0.301354 -0.140145 -0.400685
v -0.298698 -0.140413 -0.404135
v -0.293067 -0.141223 -0.398423
v -0.294456 -0.141082 -0.396617
v -0.303779 -0.137189 -0.409482
v -0.29883 -0.137484 -0.413268
v -0.295238 -0.140619 -0.406782
v -0.298698 -0.140413 -0.404135
v -0.307576 -0.136805 -0.404548
v -0.303779 -0.137189 -0.409482
v -0.298698 -0.140413 -0.404135
v -0.301354 -0.140145 -0.400685
v -0.309963 -0.136357 -0.398803
v -0.307576 -0.136805 -0.404548
v -0.301354 -0.140145 -0.400685
v -0.303023 -0.139832 -0.396667
v -0.303023 -0.139832 -0.396667
v -0.301354 -0.140145 -0.400685
v -0.294456 -0.141082 -0.396617
v -0.29533 -0.140918 -0.394515
v -0.310777 -0.135877 -0.392637
v -0.309963 -0.136357 -0.398803
v -0.303023 -0.139832 -0.396667
v -0.303592 -0.139496 -0.392355
v -0.303592 -0.139496 -0.392355
v -0.303023 -0.139832 -0.396667
v -0.29533 -0.140918 -0.394515
v -0.295628 -0.140743 -0.392258
v -0.309963 -0.135397 -0.386471
v -0.310777 -0.135877 -0.392637
v -0.303592 -0.139496 -0.392355
v -0.303023 -0.13916 -0.388044
v -0.303023 -0.13916 -0.388044
v -0.303592 -0.139496 -0.392355
v -0.295628 -0.140743 -0.392258
v -0.29533 -0.140567 -0.390002
v -0.307576 -0.13495 -0.380726
v -0.309963 -0.135397 -0.386471
v -0.303023 -0.13916 -0.388044
v -0.301354 -0.138847 -0.384026
v -0.301354 -0.138847 -0.384026
v -0.303023 -0.13916 -0.388044
v -0.29533 -0.140567 -0.390002
v -0.294456 -0.140403 -0.387899
v -0.303779 -0.134565 -0.375792
v -0.307576 -0.13495 -0.380726
v -0.301354 -0.138847 -0.384026
v -0.298698 -0.138578 -0.380576
v -0.298698 -0.138578 -0.380576
v -0.301354 -0.138847 -0.384026
v -0.294456 -0.140403 -0.387899
v -0.293067 -0.140263 -0.386093
v -0.29883 -0.13427 -0.372007
v -0.303779 -0.134565 -0.375792
v -0.298698 -0.138578 -0.380576
v -0.295238 -0.138372 -0.377928
v -0.295238 -0.138372 -0.377928
v -0.298698 -0.138578 -0.380576
v -0.293067 -0.140263 -0.386093
v -0.291256 -0.140155 -0.384708
v -0.293068 -0.134085 -0.369627
v -0.29883 -0.13427 -0.372007
v -0.295238 -0.138372 -0.377928
v -0.291208 -0.138243 -0.376264
v -0.291208 -0.138243 -0.376264
v -0.295238 -0.138372 -0.377928
v -0.291256 -0.140155 -0.384708
v -0.289147 -0.140087 -0.383837
v -0.286883 -0.134022 -0.368815
v -0.293068 -0.134085 -0.369627
v -0.291208 -0.138243 -0.376264
v -0.286883 -0.138198 -0.375697
v -0.286883 -0.138198 -0.375697
v -0.291208 -0.138243 -0.376264
v -0.289147 -0.140087 -0.383837
v -0.286883 -0.140064 -0.38354
v -0.280699 -0.134085 -0.369627
v -0.286883 -0.134022 -0.368815
v -0.286883 -0.138198 -0.375697
v -0.282559 -0.138243 -0.376264
v -0.282559 -0.138243 -0.376264
v -0.286883 -0.138198 -0.375697
v -0.286883 -0.140064 -0.38354
v -0.28462 -0.140087 -0.383837
v -0.274936 -0.13427 -0.372007
v -0.280699 -0.134085 -0.369627
v -0.282559 -0.138243 -0.376264
v -0.278529 -0.138372 -0.377928
v -0.278529 -0.138372 -0.377928
v -0.282559 -0.138243 -0.376264
v -0.28462 -0.140087 -0.383837
v -0.282511 -0.140155 -0.384708
v -0.269988 -0.134565 -0.375792
v -0.274936 -0.13427 -0.372007
v -0.278529 -0.138372 -0.377928
v -0.275068 -0.138578 -0.380576
v -0.275068 -0.138578 -0.380576
v -0.278529 -0.138372 -0.377928
v -0.282511 -0.140155 -0.384708
v -0.2807 -0.140263 -0.386093
v -0.26619 -0.13495 -0.380726
v -0.269988 -0.134565 -0.375792
v -0.275068 -0.138578 -0.380576
v -0.272413 -0.138847 -0.384026
v -0.272413 -0.138847 -0.384026
v -0.275068 -0.138578 -0.380576
v -0.2807 -0.140263 -0.386093
v -0.27931 -0.140403 -0.387899
v -0.263803 -0.135397 -0.386472
v -0.26619 -0.13495 -0.380726
v -0.272413 -0.138847 -0.384026
v -0.270744 -0.13916 -0.388044
v -0.270744 -0.13916 -0.388044
v -0.272413 -0.138847 -0.384026
v -0.27931 -0.140403 -0.387899
v -0.278437 -0.140567 -0.390002
v -0.262989 -0.135877 -0.392637
v -0.263803 -0.135397 -0.386472
v -0.270744 -0.13916 -0.388044
v -0.270174 -0.139496 -0.392355
v -0.270174 -0.139496 -0.392355
v -0.270744 -0.13916 -0.388044
v -0.278437 -0.140567 -0.390002
v -0.278139 -0.140743 -0.392258
v -0.263803 -0.136357 -0.398803
v -0.262989 -0.135877 -0.392637
v -0.270174 -0.139496 -0.392355
v -0.270744 -0.139832 -0.396667
v -0.270744 -0.139832 -0.396667
v -0.270174 -0.139496 -0.392355
v -0.278139 -0.140743 -0.392258
v -0.278437 -0.140918 -0.394515
v -0.26619 -0.136805 -0.404548
v -0.263803 -0.136357 -0.398803
v -0.270744 -0.139832 -0.396667
v -0.272413 -0.140145 -0.400685
v -0.272413 -0.140145 -0.400685
v -0.270744 -0.139832 -0.396667
v -0.278437 -0.140918 -0.394515
v -0.27931 -0.141082 -0.396617
v -0.269988 -0.137189 -0.409482
v -0.26619 -0.136805 -0.404548
v -0.272413 -0.140145 -0.400685
v -0.275068 -0.140413 -0.404135
v -0.275068 -0.140413 -0.404135
v -0.272413 -0.140145 -0.400685
v -0.27931 -0.141082 -0.396617
v -0.2807 -0.141223 -0.398423
v -0.274936 -0.137484 -0.413268
v -0.269988 -0.137189 -0.409482
v -0.275068 -0.140413 -0.404135
v -0.278529 -0.140619 -0.406782
v -0.278529 -0.140619 -0.406782
v -0.275068 -0.140413 -0.404135
v -0.2807 -0.141223 -0.398423
v -0.282511 -0.141331 -0.399808
v -0.280699 -0.137669 -0.415647
v -0.274936 -0.137484 -0.413268
v -0.278529 -0.140619 -0.406782
v -0.282559 -0.140749 -0.408446
v -0.282559 -0.140749 -0.408446
v -0.278529 -0.140619 -0.406782
v -0.282511 -0.141331 -0.399808
v -0.28462 -0.141399 -0.400679
v -0.286883 -0.140793 -0.409014
v -0.282559 -0.140749 -0.408446
v -0.28462 -0.141399 -0.400679
v -0.286883 -0.141422 -0.400976
v -0.272085 -0.132231 -0.41863
v -0.265956 -0.131866 -0.41394
v -0.269988 -0.137189 -0.409482
v -0.274936 -0.137484 -0.413268
v -0.279223 -0.132461 -0.421577
v -0.272085 -0.132231 -0.41863
v -0.274936 -0.137484 -0.413268
v -0.280699 -0.137669 -0.415647
v -0.270255 -0.125375 -0.422344
v -0.263367 -0.124965 -0.417074
v -0.265956 -0.131866 -0.41394
v -0.272085 -0.132231 -0.41863
v -0.278276 -0.125633 -0.425656
v -0.270255 -0.125375 -0.422344
v -0.272085 -0.132231 -0.41863
v -0.279223 -0.132461 -0.421577
v -0.263367 -0.124965 -0.417074
v -0.258082 -0.12443 -0.410207
v -0.261252 -0.13139 -0.407829
v -0.265956 -0.131866 -0.41394
v -0.265956 -0.131866 -0.41394
v -0.261252 -0.13139 -0.407829
v -0.26619 -0.136805 -0.404548
v -0.269988 -0.137189 -0.409482
v -0.258082 -0.12443 -0.410207
v -0.254759 -0.123807 -0.402211
v -0.258296 -0.130836 -0.400713
v -0.261252 -0.13139 -0.407829
v -0.261252 -0.13139 -0.407829
v -0.258296 -0.130836 -0.400713
v -0.263803 -0.136357 -0.398803
v -0.26619 -0.136805 -0.404548
v -0.254759 -0.123807 -0.402211
v -0.253626 -0.123139 -0.393629
v -0.257287 -0.130241 -0.393076
v -0.258296 -0.130836 -0.400713
v -0.258296 -0.130836 -0.400713
v -0.257287 -0.130241 -0.393076
v -0.262989 -0.135877 -0.392637
v -0.263803 -0.136357 -0.398803
v -0.253626 -0.123139 -0.393629
v -0.254759 -0.122471 -0.385048
v -0.258296 -0.129646 -0.385439
v -0.257287 -0.130241 -0.393076
v -0.257287 -0.130241 -0.393076
v -0.258296 -0.129646 -0.385439
v -0.263803 -0.135397 -0.386472
v -0.262989 -0.135877 -0.392637
v -0.254759 -0.122471 -0.385048
v -0.258082 -0.121848 -0.377051
v -0.261252 -0.129092 -0.378323
v -0.258296 -0.129646 -0.385439
v -0.258296 -0.129646 -0.385439
v -0.261252 -0.129092 -0.378323
v -0.26619 -0.13495 -0.380726
v -0.263803 -0.135397 -0.386472
v -0.258082 -0.121848 -0.377051
v -0.263367 -0.121313 -0.370184
v -0.265956 -0.128616 -0.372212
v -0.261252 -0.129092 -0.378323
v -0.261252 -0.129092 -0.378323
v -0.265956 -0.128616 -0.372212
v -0.269988 -0.134565 -0.375792
v -0.26619 -0.13495 -0.380726
v -0.263367 -0.121313 -0.370184
v -0.270255 -0.120903 -0.364915
v -0.272085 -0.128251 -0.367522
v -0.265956 -0.128616 -0.372212
v -0.265956 -0.128616 -0.372212
v -0.272085 -0.128251 -0.367522
v -0.274936 -0.13427 -0.372007
v -0.269988 -0.134565 -0.375792
v -0.270255 -0.120903 -0.364915
v -0.278276 -0.120645 -0.361602
v -0.279223 -0.128021 -0.364575
v -0.272085 -0.128251 -0.367522
v -0.272085 -0.128251 -0.367522
v -0.279223 -0.128021 -0.364575
v -0.280699 -0.134085 -0.369627
v -0.274936 -0.13427 -0.372007
v -0.278276 -0.120645 -0.361602
v -0.286883 -0.120557 -0.360472
v -0.286883 -0.127943 -0.363569
v -0.279223 -0.128021 -0.364575
v -0.279223 -0.128021 -0.364575
v -0.286883 -0.127943 -0.363569
v -0.286883 -0.134022 -0.368815
v -0.280699 -0.134085 -0.369627
v -0.286883 -0.120557 -0.360472
v -0.295491 -0.120645 -0.361602
v -0.294543 -0.128021 -0.364575
v -0.286883 -0.127943 -0.363569
v -0.286883 -0.127943 -0.363569
v -0.294543 -0.128021 -0.364575
v -0.293068 -0.134085 -0.369627
v -0.286883 -0.134022 -0.368815
v -0.295491 -0.120645 -0.361602
v -0.303512 -0.120903 -0.364915
v -0.301681 -0.128251 -0.367522
v -0.294543 -0.128021 -0.364575
v -0.294543 -0.128021 -0.364575
v -0.301681 -0.128251 -0.367522
v -0.29883 -0.13427 -0.372007
v -0.293068 -0.134085 -0.369627
v -0.303512 -0.120903 -0.364915
v -0.3104 -0.121313 -0.370184
v -0.307811 -0.128616 -0.372212
v -0.301681 -0.128251 -0.367522
v -0.301681 -0.128251 -0.367522
v -0.307811 -0.128616 -0.372212
v -0.303779 -0.134565 -0.375792
v -0.29883 -0.13427 -0.372007
v -0.3104 -0.121313 -0.370184
v -0.315685 -0.121848 -0.377051
v -0.312514 -0.129092 -0.378323
v -0.307811 -0.128616 -0.372212
v -0.307811 -0.128616 -0.372212
v -0.312514 -0.129092 -0.378323
v -0.307576 -0.13495 -0.380726
v -0.303779 -0.134565 -0.375792
v -0.315685 -0.121848 -0.377051
v -0.319007 -0.122471 -0.385048
v -0.315471 -0.129646 -0.385439
v -0.312514 -0.129092 -0.378323
v -0.312514 -0.129092 -0.378323
v -0.315471 -0.129646 -0.385439
v -0.309963 -0.135397 -0.386471
v -0.307576 -0.13495 -0.380726
v -0.319007 -0.122471 -0.385048
v -0.32014 -0.123139 -0.393629
v -0.316479 -0.130241 -0.393076
v -0.315471 -0.129646 -0.385439
v -0.315471 -0.129646 -0.385439
v -0.316479 -0.130241 -0.393076
v -0.310777 -0.135877 -0.392637
v -0.309963 -0.135397 -0.386471
v -0.32014 -0.123139 -0.393629
v -0.319007 -0.123807 -0.402211
v -0.315471 -0.130836 -0.400713
v -0.316479 -0.130241 -0.393076
v -0.316479 -0.130241 -0.393076
v -0.315471 -0.130836 -0.400713
v -0.309963 -0.136357 -0.398803
v -0.310777 -0.135877 -0.392637
v -0.319007 -0.123807 -0.402211
v -0.315685 -0.12443 -0.410207
v -0.312514 -0.13139 -0.407829
v -0.315471 -0.130836 -0.400713
v -0.315471 -0.130836 -0.400713
v -0.312514 -0.13139 -0.407829
v -0.307576 -0.136805 -0.404548
v -0.309963 -0.136357 -0.398803
v -0.315685 -0.12443 -0.410207
v -0.3104 -0.124965 -0.417074
v -0.307811 -0.131866 -0.41394
v -0.312514 -0.13139 -0.407829
v -0.312514 -0.13139 -0.407829
v -0.307811 -0.131866 -0.41394
v -0.303779 -0.137189 -0.409482
v -0.307576 -0.136805 -0.404548
v -0.3104 -0.124965 -0.417074
v -0.303512 -0.125375 -0.422344
v -0.301681 -0.132231 -0.41863
v -0.307811 -0.131866 -0.41394
v -0.307811 -0.131866 -0.41394
v -0.301681 -0.132231 -0.41863
v -0.29883 -0.137484 -0.413268
v -0.303779 -0.137189 -0.409482
v -0.316392 -0.119366 -0.411011
v -0.310977 -0.119914 -0.418047
v -0.3104 -0.124965 -0.417074
v -0.315685 -0.12443 -0.410207
v -0.310977 -0.119914 -0.418047
v -0.30392 -0.120335 -0.423446
v -0.303512 -0.125375 -0.422344
v -0.3104 -0.124965 -0.417074
v -0.30392 -0.120335 -0.423446
v -0.310977 -0.119914 -0.418047
v -0.31061 -0.117922 -0.417834
v -0.303661 -0.118336 -0.423151
v -0.310977 -0.119914 -0.418047
v -0.316392 -0.119366 -0.411011
v -0.315943 -0.117383 -0.410906
v -0.31061 -0.117922 -0.417834
v -0.316392 -0.119366 -0.411011
v -0.319796 -0.118728 -0.402818
v -0.319295 -0.116754 -0.402837
v -0.315943 -0.117383 -0.410906
v -0.319796 -0.118728 -0.402818
v -0.316392 -0.119366 -0.411011
v -0.315685 -0.12443 -0.410207
v -0.319007 -0.123807 -0.402211
v -0.319796 -0.118728 -0.402818
v -0.320957 -0.118044 -0.394026
v -0.320438 -0.11608 -0.394179
v -0.319295 -0.116754 -0.402837
v -0.320957 -0.118044 -0.394026
v -0.319796 -0.118728 -0.402818
v -0.319007 -0.123807 -0.402211
v -0.32014 -0.123139 -0.393629
v -0.320957 -0.118044 -0.394026
v -0.319796 -0.117359 -0.385234
v -0.319295 -0.115405 -0.385521
v -0.320438 -0.11608 -0.394179
v -0.319796 -0.117359 -0.385234
v -0.320957 -0.118044 -0.394026
v -0.32014 -0.123139 -0.393629
v -0.319007 -0.122471 -0.385048
v -0.319796 -0.117359 -0.385234
v -0.316392 -0.116721 -0.377041
v -0.315943 -0.114777 -0.377452
v -0.319295 -0.115405 -0.385521
v -0.316392 -0.116721 -0.377041
v -0.319796 -0.117359 -0.385234
v -0.319007 -0.122471 -0.385048
v -0.315685 -0.121848 -0.377051
v -0.316392 -0.116721 -0.377041
v -0.310977 -0.116173 -0.370005
v -0.31061 -0.114237 -0.370524
v -0.315943 -0.114777 -0.377452
v -0.310977 -0.116173 -0.370005
v -0.316392 -0.116721 -0.377041
v -0.315685 -0.121848 -0.377051
v -0.3104 -0.121313 -0.370184
v -0.310977 -0.116173 -0.370005
v -0.30392 -0.115752 -0.364607
v -0.303661 -0.113823 -0.365207
v -0.31061 -0.114237 -0.370524
v -0.30392 -0.115752 -0.364607
v -0.310977 -0.116173 -0.370005
v -0.3104 -0.121313 -0.370184
v -0.303512 -0.120903 -0.364915
v -0.295568 -0.113563 -0.361865
v -0.303661 -0.113823 -0.365207
v -0.30392 -0.115752 -0.364607
v -0.295702 -0.115488 -0.361213
v -0.295702 -0.115488 -0.361213
v -0.30392 -0.115752 -0.364607
v -0.303512 -0.120903 -0.364915
v -0.295491 -0.120645 -0.361602
v -0.286883 -0.113474 -0.360725
v -0.295568 -0.113563 -0.361865
v -0.295702 -0.115488 -0.361213
v -0.286883 -0.115398 -0.360055
v -0.286883 -0.115398 -0.360055
v -0.295702 -0.115488 -0.361213
v -0.295491 -0.120645 -0.361602
v -0.286883 -0.120557 -0.360472
v -0.286883 -0.115398 -0.360055
v -0.278064 -0.115488 -0.361213
v -0.278199 -0.113563 -0.361865
v -0.286883 -0.113474 -0.360725
v -0.278064 -0.115488 -0.361213
v -0.286883 -0.115398 -0.360055
v -0.286883 -0.120557 -0.360472
v -0.278276 -0.120645 -0.361602
v -0.278064 -0.115488 -0.361213
v -0.269847 -0.115752 -0.364607
v -0.270106 -0.113823 -0.365207
v -0.278199 -0.113563 -0.361865
v -0.269847 -0.115752 -0.364607
v -0.278064 -0.115488 -0.361213
v -0.278276 -0.120645 -0.361602
v -0.270255 -0.120903 -0.364915
v -0.269847 -0.115752 -0.364607
v -0.26279 -0.116173 -0.370005
v -0.263156 -0.114237 -0.370524
v -0.270106 -0.113823 -0.365207
v -0.26279 -0.116173 -0.370005
v -0.269847 -0.115752 -0.364607
v -0.270255 -0.120903 -0.364915
v -0.263367 -0.121313 -0.370184
v -0.257824 -0.114777 -0.377452
v -0.263156 -0.114237 -0.370524
v -0.26279 -0.116173 -0.370005
v -0.257375 -0.116721 -0.377041
v -0.257375 -0.116721 -0.377041
v -0.26279 -0.116173 -0.370005
v -0.263367 -0.121313 -0.370184
v -0.258082 -0.121848 -0.377051
v -0.257375 -0.116721 -0.377041
v -0.253971 -0.117359 -0.385234
v -0.254472 -0.115405 -0.385521
v -0.257824 -0.114777 -0.377452
v -0.253971 -0.117359 -0.385234
v -0.257375 -0.116721 -0.377041
v -0.258082 -0.121848 -0.377051
v -0.254759 -0.122471 -0.385048
v -0.253971 -0.117359 -0.385234
v -0.25281 -0.118044 -0.394026
v -0.253328 -0.11608 -0.394179
v -0.254472 -0.115405 -0.385521
v -0.25281 -0.118044 -0.394026
v -0.253971 -0.117359 -0.385234
v -0.254759 -0.122471 -0.385048
v -0.253626 -0.123139 -0.393629
v -0.254472 -0.116754 -0.402837
v -0.253328 -0.11608 -0.394179
v -0.25281 -0.118044 -0.394026
v -0.253971 -0.118728 -0.402818
v -0.253971 -0.118728 -0.402818
v -0.25281 -0.118044 -0.394026
v -0.253626 -0.123139 -0.393629
v -0.254759 -0.123807 -0.402211
v -0.253971 -0.118728 -0.402818
v -0.257375 -0.119366 -0.411011
v -0.257824 -0.117383 -0.410906
v -0.254472 -0.116754 -0.402837
v -0.257375 -0.119366 -0.411011
v -0.253971 -0.118728 -0.402818
v -0.254759 -0.123807 -0.402211
v -0.258082 -0.12443 -0.410207
v -0.257375 -0.119366 -0.411011
v -0.26279 -0.119914 -0.418047
v -0.263156 -0.117922 -0.417834
v -0.257824 -0.117383 -0.410906
v -0.26279 -0.119914 -0.418047
v -0.257375 -0.119366 -0.411011
v -0.258082 -0.12443 -0.410207
v -0.263367 -0.124965 -0.417074
v -0.26279 -0.119914 -0.418047
v -0.269847 -0.120335 -0.423446
v -0.270106 -0.118336 -0.423151
v -0.263156 -0.117922 -0.417834
v -0.269847 -0.120335 -0.423446
v -0.26279 -0.119914 -0.418047
v -0.263367 -0.124965 -0.417074
v -0.270255 -0.125375 -0.422344
v -0.269847 -0.120335 -0.423446
v -0.278064 -0.120599 -0.426839
v -0.278199 -0.118597 -0.426493
v -0.270106 -0.118336 -0.423151
v -0.278064 -0.120599 -0.426839
v -0.269847 -0.120335 -0.423446
v -0.270255 -0.125375 -0.422344
v -0.278276 -0.125633 -0.425656
v -0.278064 -0.120599 -0.426839
v -0.286883 -0.120689 -0.427997
v -0.286883 -0.118685 -0.427633
v -0.278199 -0.118597 -0.426493
v -0.270106 -0.118336 -0.423151
v -0.278199 -0.118597 -0.426493
v -0.278686 -0.117642 -0.424745
v -0.271046 -0.117396 -0.42159
v -0.263156 -0.117922 -0.417834
v -0.270106 -0.118336 -0.423151
v -0.271046 -0.117396 -0.42159
v -0.264486 -0.117005 -0.416571
v -0.279419 -0.117429 -0.422015
v -0.272463 -0.117206 -0.419143
v -0.271046 -0.117396 -0.42159
v -0.278686 -0.117642 -0.424745
v -0.272463 -0.117206 -0.419143
v -0.266491 -0.11685 -0.414573
v -0.264486 -0.117005 -0.416571
v -0.271046 -0.117396 -0.42159
v -0.266491 -0.11685 -0.414573
v -0.261907 -0.116386 -0.408619
v -0.259453 -0.116496 -0.410031
v -0.264486 -0.117005 -0.416571
v -0.261907 -0.116386 -0.408619
v -0.259026 -0.115846 -0.401684
v -0.256289 -0.115903 -0.402415
v -0.259453 -0.116496 -0.410031
v -0.254472 -0.116754 -0.402837
v -0.257824 -0.117383 -0.410906
v -0.259453 -0.116496 -0.410031
v -0.256289 -0.115903 -0.402415
v -0.257824 -0.117383 -0.410906
v -0.263156 -0.117922 -0.417834
v -0.264486 -0.117005 -0.416571
v -0.259453 -0.116496 -0.410031
v -0.256289 -0.115903 -0.402415
v -0.255209 -0.115266 -0.394242
v -0.253328 -0.11608 -0.394179
v -0.254472 -0.116754 -0.402837
v -0.259026 -0.115846 -0.401684
v -0.258044 -0.115266 -0.394242
v -0.255209 -0.115266 -0.394242
v -0.256289 -0.115903 -0.402415
v -0.254472 -0.115405 -0.385521
v -0.253328 -0.11608 -0.394179
v -0.255209 -0.115266 -0.394242
v -0.256289 -0.11463 -0.386069
v -0.258044 -0.115266 -0.394242
v -0.259026 -0.114687 -0.386801
v -0.256289 -0.11463 -0.386069
v -0.255209 -0.115266 -0.394242
v -0.259026 -0.114687 -0.386801
v -0.261907 -0.114147 -0.379866
v -0.259453 -0.114037 -0.378453
v -0.256289 -0.11463 -0.386069
v -0.261907 -0.114147 -0.379866
v -0.266491 -0.113683 -0.373911
v -0.264486 -0.113527 -0.371913
v -0.259453 -0.114037 -0.378453
v -0.257824 -0.114777 -0.377452
v -0.254472 -0.115405 -0.385521
v -0.256289 -0.11463 -0.386069
v -0.259453 -0.114037 -0.378453
v -0.259453 -0.114037 -0.378453
v -0.264486 -0.113527 -0.371913
v -0.263156 -0.114237 -0.370524
v -0.257824 -0.114777 -0.377452
v -0.270106 -0.113823 -0.365207
v -0.263156 -0.114237 -0.370524
v -0.264486 -0.113527 -0.371913
v -0.271046 -0.113136 -0.366895
v -0.266491 -0.113683 -0.373911
v -0.272463 -0.113327 -0.369342
v -0.271046 -0.113136 -0.366895
v -0.264486 -0.113527 -0.371913
v -0.278199 -0.113563 -0.361865
v -0.270106 -0.113823 -0.365207
v -0.271046 -0.113136 -0.366895
v -0.278686 -0.112891 -0.36374
v -0.272463 -0.113327 -0.369342
v -0.279419 -0.113103 -0.366469
v -0.278686 -0.112891 -0.36374
v -0.271046 -0.113136 -0.366895
v -0.279419 -0.113103 -0.366469
v -0.286883 -0.113027 -0.36549
v -0.286883 -0.112807 -0.362664
v -0.278686 -0.112891 -0.36374
v -0.286883 -0.113027 -0.36549
v -0.294348 -0.113103 -0.366469
v -0.295081 -0.112891 -0.36374
v -0.286883 -0.112807 -0.362664
v -0.286883 -0.113474 -0.360725
v -0.278199 -0.113563 -0.361865
v -0.278686 -0.112891 -0.36374
v -0.286883 -0.112807 -0.362664
v -0.286883 -0.112807 -0.362664
v -0.295081 -0.112891 -0.36374
v -0.295568 -0.113563 -0.361865
v -0.286883 -0.113474 -0.360725
v -0.295081 -0.112891 -0.36374
v -0.30272 -0.113136 -0.366895
v -0.303661 -0.113823 -0.365207
v -0.295568 -0.113563 -0.361865
v -0.294348 -0.113103 -0.366469
v -0.301303 -0.113327 -0.369342
v -0.30272 -0.113136 -0.366895
v -0.295081 -0.112891 -0.36374
v -0.31061 -0.114237 -0.370524
v -0.303661 -0.113823 -0.365207
v -0.30272 -0.113136 -0.366895
v -0.30928 -0.113527 -0.371913
v -0.301303 -0.113327 -0.369342
v -0.307276 -0.113683 -0.373911
v -0.30928 -0.113527 -0.371913
v -0.30272 -0.113136 -0.366895
v -0.307276 -0.113683 -0.373911
v -0.311859 -0.114147 -0.379866
v -0.314314 -0.114037 -0.378453
v -0.30928 -0.113527 -0.371913
v -0.311859 -0.114147 -0.379866
v -0.31474 -0.114687 -0.386801
v -0.317478 -0.11463 -0.386069
v -0.314314 -0.114037 -0.378453
v -0.319295 -0.115405 -0.385521
v -0.315943 -0.114777 -0.377452
v -0.314314 -0.114037 -0.378453
v -0.317478 -0.11463 -0.386069
v -0.315943 -0.114777 -0.377452
v -0.31061 -0.114237 -0.370524
v -0.30928 -0.113527 -0.371913
v -0.314314 -0.114037 -0.378453
v -0.320438 -0.11608 -0.394179
v -0.319295 -0.115405 -0.385521
v -0.317478 -0.11463 -0.386069
v -0.318557 -0.115266 -0.394242
v -0.31474 -0.114687 -0.386801
v -0.315723 -0.115266 -0.394242
v -0.318557 -0.115266 -0.394242
v -0.317478 -0.11463 -0.386069
v -0.319295 -0.116754 -0.402837
v -0.320438 -0.11608 -0.394179
v -0.318557 -0.115266 -0.394242
v -0.317478 -0.115903 -0.402415
v -0.315723 -0.115266 -0.394242
v -0.31474 -0.115846 -0.401684
v -0.317478 -0.115903 -0.402415
v -0.318557 -0.115266 -0.394242
v -0.31474 -0.115846 -0.401684
v -0.311859 -0.116386 -0.408619
v -0.314314 -0.116496 -0.410031
v -0.317478 -0.115903 -0.402415
v -0.311859 -0.116386 -0.408619
v -0.307276 -0.11685 -0.414573
v -0.30928 -0.117005 -0.416572
v -0.314314 -0.116496 -0.410031
v -0.31061 -0.117922 -0.417834
v -0.315943 -0.117383 -0.410906
v -0.314314 -0.116496 -0.410031
v -0.30928 -0.117005 -0.416572
v -0.315943 -0.117383 -0.410906
v -0.319295 -0.116754 -0.402837
v -0.317478 -0.115903 -0.402415
v -0.314314 -0.116496 -0.410031
v -0.303661 -0.118336 -0.423151
v -0.31061 -0.117922 -0.417834
v -0.30928 -0.117005 -0.416572
v -0.30272 -0.117396 -0.42159
v -0.307276 -0.11685 -0.414573
v -0.301303 -0.117206 -0.419143
v -0.30272 -0.117396 -0.42159
v -0.30928 -0.117005 -0.416572
vn -0 0.997 -0.0777
vn -0 0.997 -0.0777
vn 0.0568 0.9562 -0.287
vn -0 0.9557 -0.2944
vn -0 0.997 -0.0777
vn -0 0.997 -0.0777
vn -0 0.9557 -0.2944
vn -0.0568 0.9562 -0.287
vn -0 0.572 -0.8202
vn -0.2002 0.574 -0.794
vn -0.0568 0.9562 -0.287
vn -0 0.9557 -0.2944
vn 0.2001 0.5741 -0.794
vn -0 0.572 -0.8202
vn -0 0.9557 -0.2944
vn 0.0568 0.9562 -0.287
vn -0.1096 0.958 -0.2651
vn -0.0568 0.9562 -0.287
vn -0.2002 0.574 -0.794
vn -0.3867 0.5801 -0.7169
vn 0.0001 0.997 -0.0775
vn -0 0.997 -0.0777
vn -0.0568 0.9562 -0.287
vn -0.1096 0.958 -0.2651
vn -0.3867 0.5801 -0.7169
vn -0.2002 0.574 -0.794
vn -0.2585 -0.0264 -0.9656
vn -0.4994 -0.0187 -0.8662
vn -0 -0.0291 -0.9996
vn -0.2585 -0.0264 -0.9656
vn -0.2002 0.574 -0.794
vn -0 0.572 -0.8202
vn -0.4994 -0.0187 -0.8662
vn -0.2585 -0.0264 -0.9656
vn -0.2463 -0.3779 -0.8925
vn -0.4758 -0.3706 -0.7977
vn -0.2585 -0.0264 -0.9656
vn -0 -0.0291 -0.9996
vn -0 -0.3805 -0.9248
vn -0.2463 -0.3779 -0.8925
vn -0.4758 -0.3706 -0.7977
vn -0.2463 -0.3779 -0.8925
vn -0.2099 -0.6439 -0.7358
vn -0.4056 -0.6376 -0.655
vn -0.2463 -0.3779 -0.8925
vn -0 -0.3805 -0.9248
vn -0 -0.646 -0.7633
vn -0.2099 -0.6439 -0.7358
vn -0 -0.0291 -0.9996
vn 0.2585 -0.0264 -0.9656
vn 0.2463 -0.3779 -0.8925
vn -0 -0.3805 -0.9248
vn -0 -0.3805 -0.9248
vn 0.2463 -0.3779 -0.8925
vn 0.21 -0.6439 -0.7358
vn -0 -0.646 -0.7633
vn -0 -0.646 -0.7633
vn 0.21 -0.6439 -0.7358
vn 0.1535 -0.8472 -0.5086
vn -0 -0.8488 -0.5287
vn -0.2099 -0.6439 -0.7358
vn -0 -0.646 -0.7633
vn -0 -0.8488 -0.5287
vn -0.1535 -0.8472 -0.5086
vn -0 -0.8488 -0.5287
vn 0.1535 -0.8472 -0.5086
vn 0.0824 -0.969 -0.233
vn -0 -0.9698 -0.2438
vn -0.1535 -0.8472 -0.5086
vn -0 -0.8488 -0.5287
vn -0 -0.9698 -0.2438
vn -0.0824 -0.969 -0.233
vn -0.4056 -0.6376 -0.655
vn -0.2099 -0.6439 -0.7358
vn -0.1535 -0.8472 -0.5086
vn -0.2965 -0.8426 -0.4495
vn -0.2965 -0.8426 -0.4495
vn -0.1535 -0.8472 -0.5086
vn -0.0824 -0.969 -0.233
vn -0.1592 -0.9665 -0.2013
vn -0.1592 -0.9665 -0.2013
vn -0.0824 -0.969 -0.233
vn -0.0292 -0.9991 -0.0313
vn -0.0564 -0.9982 -0.0201
vn -0.0824 -0.969 -0.233
vn -0 -0.9698 -0.2438
vn -0 -0.9994 -0.0352
vn -0.0292 -0.9991 -0.0313
vn -0 -0.997 0.0776
vn -0.0564 -0.9982 -0.0201
vn -0.0292 -0.9991 -0.0313
vn -0 -0.997 0.0776
vn -0.0292 -0.9991 -0.0313
vn -0 -0.9994 -0.0352
vn -0 -0.997 0.0776
vn -0 -0.9994 -0.0352
vn 0.0292 -0.9991 -0.0313
vn -0 -0.997 0.0776
vn 0.0292 -0.9991 -0.0313
vn 0.0564 -0.9982 -0.0201
vn -0 -0.997 0.0776
vn 0.0564 -0.9982 -0.0201
vn 0.0797 -0.9968 -0.0022
vn -0 -0.997 0.0776
vn 0.0797 -0.9968 -0.0022
vn 0.0976 -0.995 0.0211
vn -0 -0.997 0.0776
vn 0.0976 -0.995 0.0211
vn 0.1088 -0.9929 0.048
vn -0 -0.997 0.0776
vn 0.1088 -0.9929 0.048
vn 0.1126 -0.9906 0.0771
vn -0 -0.997 0.0776
vn 0.1126 -0.9906 0.0771
vn 0.1088 -0.9884 0.1063
vn -0 -0.997 0.0776
vn 0.1088 -0.9884 0.1063
vn 0.0976 -0.9863 0.1333
vn -0 -0.997 0.0776
vn 0.0976 -0.9863 0.1333
vn 0.0797 -0.9845 0.1565
vn -0 -0.997 0.0776
vn 0.0797 -0.9845 0.1565
vn 0.0563 -0.9831 0.1744
vn -0 -0.997 0.0776
vn 0.0563 -0.9831 0.1744
vn 0.0291 -0.9822 0.1856
vn -0 -0.997 0.0776
vn 0.0291 -0.9822 0.1856
vn -0 -0.9819 0.1894
vn -0 -0.997 0.0776
vn -0 -0.9819 0.1894
vn -0.0291 -0.9822 0.1856
vn -0 -0.997 0.0776
vn -0.0291 -0.9822 0.1856
vn -0.0563 -0.9831 0.1744
vn -0 -0.997 0.0776
vn -0.0563 -0.9831 0.1744
vn -0.0797 -0.9845 0.1565
vn -0 -0.997 0.0776
vn -0.0797 -0.9845 0.1565
vn -0.0976 -0.9863 0.1333
vn -0 -0.997 0.0776
vn -0.0976 -0.9863 0.1333
vn -0.1088 -0.9884 0.1063
vn -0 -0.997 0.0776
vn -0.1088 -0.9884 0.1063
vn -0.1126 -0.9906 0.0771
vn -0 -0.997 0.0776
vn -0.1126 -0.9906 0.0771
vn -0.1088 -0.9929 0.048
vn -0 -0.997 0.0776
vn -0.1088 -0.9929 0.048
vn -0.0975 -0.995 0.0211
vn -0 -0.997 0.0776
vn -0.0975 -0.995 0.0211
vn -0.0797 -0.9968 -0.0022
vn -0 -0.997 0.0776
vn -0.0797 -0.9968 -0.0022
vn -0.0564 -0.9982 -0.0201
vn -0.2251 -0.9626 -0.1509
vn -0.1592 -0.9665 -0.2013
vn -0.0564 -0.9982 -0.0201
vn -0.0797 -0.9968 -0.0022
vn -0.2757 -0.9575 -0.0851
vn -0.2251 -0.9626 -0.1509
vn -0.0797 -0.9968 -0.0022
vn -0.0975 -0.995 0.0211
vn -0.4194 -0.8353 -0.3556
vn -0.2965 -0.8426 -0.4495
vn -0.1592 -0.9665 -0.2013
vn -0.2251 -0.9626 -0.1509
vn -0.5136 -0.8257 -0.2331
vn -0.4194 -0.8353 -0.3556
vn -0.2251 -0.9626 -0.1509
vn -0.2757 -0.9575 -0.0851
vn -0.5729 -0.8146 -0.0905
vn -0.5136 -0.8257 -0.2331
vn -0.2757 -0.9575 -0.0851
vn -0.3075 -0.9515 -0.0085
vn -0.3075 -0.9515 -0.0085
vn -0.2757 -0.9575 -0.0851
vn -0.0975 -0.995 0.0211
vn -0.1088 -0.9929 0.048
vn -0.5931 -0.8027 0.0625
vn -0.5729 -0.8146 -0.0905
vn -0.3075 -0.9515 -0.0085
vn -0.3184 -0.9451 0.0736
vn -0.3184 -0.9451 0.0736
vn -0.3075 -0.9515 -0.0085
vn -0.1088 -0.9929 0.048
vn -0.1126 -0.9906 0.0771
vn -0.5729 -0.7908 0.2155
vn -0.5931 -0.8027 0.0625
vn -0.3184 -0.9451 0.0736
vn -0.3075 -0.9387 0.1558
vn -0.3075 -0.9387 0.1558
vn -0.3184 -0.9451 0.0736
vn -0.1126 -0.9906 0.0771
vn -0.1088 -0.9884 0.1063
vn -0.5136 -0.7797 0.3582
vn -0.5729 -0.7908 0.2155
vn -0.3075 -0.9387 0.1558
vn -0.2757 -0.9327 0.2323
vn -0.2757 -0.9327 0.2323
vn -0.3075 -0.9387 0.1558
vn -0.1088 -0.9884 0.1063
vn -0.0976 -0.9863 0.1333
vn -0.4193 -0.7702 0.4806
vn -0.5136 -0.7797 0.3582
vn -0.2757 -0.9327 0.2323
vn -0.2251 -0.9276 0.2981
vn -0.2251 -0.9276 0.2981
vn -0.2757 -0.9327 0.2323
vn -0.0976 -0.9863 0.1333
vn -0.0797 -0.9845 0.1565
vn -0.2965 -0.7629 0.5746
vn -0.4193 -0.7702 0.4806
vn -0.2251 -0.9276 0.2981
vn -0.1593 -0.9237 0.3485
vn -0.1593 -0.9237 0.3485
vn -0.2251 -0.9276 0.2981
vn -0.0797 -0.9845 0.1565
vn -0.0563 -0.9831 0.1744
vn -0.1535 -0.7582 0.6336
vn -0.2965 -0.7629 0.5746
vn -0.1593 -0.9237 0.3485
vn -0.0824 -0.9212 0.3802
vn -0.0824 -0.9212 0.3802
vn -0.1593 -0.9237 0.3485
vn -0.0563 -0.9831 0.1744
vn -0.0291 -0.9822 0.1856
vn -0 -0.7567 0.6538
vn -0.1535 -0.7582 0.6336
vn -0.0824 -0.9212 0.3802
vn -0 -0.9204 0.391
vn -0 -0.9204 0.391
vn -0.0824 -0.9212 0.3802
vn -0.0291 -0.9822 0.1856
vn -0 -0.9819 0.1894
vn 0.1535 -0.7582 0.6336
vn -0 -0.7567 0.6538
vn -0 -0.9204 0.391
vn 0.0824 -0.9212 0.3802
vn 0.0824 -0.9212 0.3802
vn -0 -0.9204 0.391
vn -0 -0.9819 0.1894
vn 0.0291 -0.9822 0.1856
vn 0.2965 -0.7629 0.5746
vn 0.1535 -0.7582 0.6336
vn 0.0824 -0.9212 0.3802
vn 0.1592 -0.9237 0.3485
vn 0.1592 -0.9237 0.3485
vn 0.0824 -0.9212 0.3802
vn 0.0291 -0.9822 0.1856
vn 0.0563 -0.9831 0.1744
vn 0.4193 -0.7702 0.4806
vn 0.2965 -0.7629 0.5746
vn 0.1592 -0.9237 0.3485
vn 0.2251 -0.9276 0.2981
vn 0.2251 -0.9276 0.2981
vn 0.1592 -0.9237 0.3485
vn 0.0563 -0.9831 0.1744
vn 0.0797 -0.9845 0.1565
vn 0.5136 -0.7797 0.3582
vn 0.4193 -0.7702 0.4806
vn 0.2251 -0.9276 0.2981
vn 0.2757 -0.9328 0.2323
vn 0.2757 -0.9328 0.2323
vn 0.2251 -0.9276 0.2981
vn 0.0797 -0.9845 0.1565
vn 0.0976 -0.9863 0.1333
vn 0.5729 -0.7908 0.2155
vn 0.5136 -0.7797 0.3582
vn 0.2757 -0.9328 0.2323
vn 0.3075 -0.9387 0.1558
vn 0.3075 -0.9387 0.1558
vn 0.2757 -0.9328 0.2323
vn 0.0976 -0.9863 0.1333
vn 0.1088 -0.9884 0.1063
vn 0.5931 -0.8027 0.0625
vn 0.5729 -0.7908 0.2155
vn 0.3075 -0.9387 0.1558
vn 0.3184 -0.9451 0.0736
vn 0.3184 -0.9451 0.0736
vn 0.3075 -0.9387 0.1558
vn 0.1088 -0.9884 0.1063
vn 0.1126 -0.9906 0.0771
vn 0.5729 -0.8146 -0.0905
vn 0.5931 -0.8027 0.0625
vn 0.3184 -0.9451 0.0736
vn 0.3075 -0.9515 -0.0085
vn 0.3075 -0.9515 -0.0085
vn 0.3184 -0.9451 0.0736
vn 0.1126 -0.9906 0.0771
vn 0.1088 -0.9929 0.048
vn 0.5136 -0.8257 -0.2331
vn 0.5729 -0.8146 -0.0905
vn 0.3075 -0.9515 -0.0085
vn 0.2757 -0.9575 -0.0851
vn 0.2757 -0.9575 -0.0851
vn 0.3075 -0.9515 -0.0085
vn 0.1088 -0.9929 0.048
vn 0.0976 -0.995 0.0211
vn 0.4193 -0.8353 -0.3556
vn 0.5136 -0.8257 -0.2331
vn 0.2757 -0.9575 -0.0851
vn 0.2251 -0.9626 -0.1509
vn 0.2251 -0.9626 -0.1509
vn 0.2757 -0.9575 -0.0851
vn 0.0976 -0.995 0.0211
vn 0.0797 -0.9968 -0.0022
vn 0.2965 -0.8426 -0.4495
vn 0.4193 -0.8353 -0.3556
vn 0.2251 -0.9626 -0.1509
vn 0.1592 -0.9665 -0.2013
vn 0.1592 -0.9665 -0.2013
vn 0.2251 -0.9626 -0.1509
vn 0.0797 -0.9968 -0.0022
vn 0.0564 -0.9982 -0.0201
vn 0.1535 -0.8472 -0.5086
vn 0.2965 -0.8426 -0.4495
vn 0.1592 -0.9665 -0.2013
vn 0.0824 -0.969 -0.233
vn 0.0824 -0.969 -0.233
vn 0.1592 -0.9665 -0.2013
vn 0.0564 -0.9982 -0.0201
vn 0.0292 -0.9991 -0.0313
vn -0 -0.9698 -0.2438
vn 0.0824 -0.969 -0.233
vn 0.0292 -0.9991 -0.0313
vn -0 -0.9994 -0.0352
vn 0.4056 -0.6376 -0.655
vn 0.5736 -0.6275 -0.5265
vn 0.4193 -0.8353 -0.3556
vn 0.2965 -0.8426 -0.4495
vn 0.21 -0.6439 -0.7358
vn 0.4056 -0.6376 -0.655
vn 0.2965 -0.8426 -0.4495
vn 0.1535 -0.8472 -0.5086
vn 0.4758 -0.3706 -0.7977
vn 0.6729 -0.3588 -0.6469
vn 0.5736 -0.6275 -0.5265
vn 0.4056 -0.6376 -0.655
vn 0.2463 -0.3779 -0.8925
vn 0.4758 -0.3706 -0.7977
vn 0.4056 -0.6376 -0.655
vn 0.21 -0.6439 -0.7358
vn 0.6729 -0.3588 -0.6469
vn 0.8241 -0.3435 -0.4505
vn 0.7025 -0.6145 -0.359
vn 0.5736 -0.6275 -0.5265
vn 0.5736 -0.6275 -0.5265
vn 0.7025 -0.6145 -0.359
vn 0.5136 -0.8257 -0.2331
vn 0.4193 -0.8353 -0.3556
vn 0.8241 -0.3435 -0.4505
vn 0.9191 -0.3257 -0.2217
vn 0.7835 -0.5993 -0.1639
vn 0.7025 -0.6145 -0.359
vn 0.7025 -0.6145 -0.359
vn 0.7835 -0.5993 -0.1639
vn 0.5729 -0.8146 -0.0905
vn 0.5136 -0.8257 -0.2331
vn 0.9191 -0.3257 -0.2217
vn 0.9516 -0.3066 0.0239
vn 0.8112 -0.583 0.0454
vn 0.7835 -0.5993 -0.1639
vn 0.7835 -0.5993 -0.1639
vn 0.8112 -0.583 0.0454
vn 0.5931 -0.8027 0.0625
vn 0.5729 -0.8146 -0.0905
vn 0.9516 -0.3066 0.0239
vn 0.9191 -0.2874 0.2694
vn 0.7835 -0.5667 0.2547
vn 0.8112 -0.583 0.0454
vn 0.8112 -0.583 0.0454
vn 0.7835 -0.5667 0.2547
vn 0.5729 -0.7908 0.2155
vn 0.5931 -0.8027 0.0625
vn 0.9191 -0.2874 0.2694
vn 0.8241 -0.2696 0.4982
vn 0.7025 -0.5515 0.4498
vn 0.7835 -0.5667 0.2547
vn 0.7835 -0.5667 0.2547
vn 0.7025 -0.5515 0.4498
vn 0.5136 -0.7797 0.3582
vn 0.5729 -0.7908 0.2155
vn 0.8241 -0.2696 0.4982
vn 0.6728 -0.2543 0.6947
vn 0.5736 -0.5385 0.6173
vn 0.7025 -0.5515 0.4498
vn 0.7025 -0.5515 0.4498
vn 0.5736 -0.5385 0.6173
vn 0.4193 -0.7702 0.4806
vn 0.5136 -0.7797 0.3582
vn 0.6728 -0.2543 0.6947
vn 0.4758 -0.2426 0.8454
vn 0.4056 -0.5285 0.7458
vn 0.5736 -0.5385 0.6173
vn 0.5736 -0.5385 0.6173
vn 0.4056 -0.5285 0.7458
vn 0.2965 -0.7629 0.5746
vn 0.4193 -0.7702 0.4806
vn 0.4758 -0.2426 0.8454
vn 0.2463 -0.2352 0.9402
vn 0.21 -0.5222 0.8266
vn 0.4056 -0.5285 0.7458
vn 0.4056 -0.5285 0.7458
vn 0.21 -0.5222 0.8266
vn 0.1535 -0.7582 0.6336
vn 0.2965 -0.7629 0.5746
vn 0.2463 -0.2352 0.9402
vn -0 -0.2327 0.9725
vn -0 -0.5201 0.8541
vn 0.21 -0.5222 0.8266
vn 0.21 -0.5222 0.8266
vn -0 -0.5201 0.8541
vn -0 -0.7567 0.6538
vn 0.1535 -0.7582 0.6336
vn -0 -0.2327 0.9725
vn -0.2463 -0.2352 0.9402
vn -0.21 -0.5222 0.8266
vn -0 -0.5201 0.8541
vn -0 -0.5201 0.8541
vn -0.21 -0.5222 0.8266
vn -0.1535 -0.7582 0.6336
vn -0 -0.7567 0.6538
vn -0.2463 -0.2352 0.9402
vn -0.4758 -0.2426 0.8455
vn -0.4056 -0.5285 0.7458
vn -0.21 -0.5222 0.8266
vn -0.21 -0.5222 0.8266
vn -0.4056 -0.5285 0.7458
vn -0.2965 -0.7629 0.5746
vn -0.1535 -0.7582 0.6336
vn -0.4758 -0.2426 0.8455
vn -0.6728 -0.2543 0.6947
vn -0.5736 -0.5385 0.6173
vn -0.4056 -0.5285 0.7458
vn -0.4056 -0.5285 0.7458
vn -0.5736 -0.5385 0.6173
vn -0.4193 -0.7702 0.4806
vn -0.2965 -0.7629 0.5746
vn -0.6728 -0.2543 0.6947
vn -0.8241 -0.2697 0.4982
vn -0.7025 -0.5515 0.4498
vn -0.5736 -0.5385 0.6173
vn -0.5736 -0.5385 0.6173
vn -0.7025 -0.5515 0.4498
vn -0.5136 -0.7797 0.3582
vn -0.4193 -0.7702 0.4806
vn -0.8241 -0.2697 0.4982
vn -0.9191 -0.2875 0.2694
vn -0.7835 -0.5667 0.2547
vn -0.7025 -0.5515 0.4498
vn -0.7025 -0.5515 0.4498
vn -0.7835 -0.5667 0.2547
vn -0.5729 -0.7908 0.2155
vn -0.5136 -0.7797 0.3582
vn -0.9191 -0.2875 0.2694
vn -0.9515 -0.3066 0.0239
vn -0.8112 -0.583 0.0454
vn -0.7835 -0.5667 0.2547
vn -0.7835 -0.5667 0.2547
vn -0.8112 -0.583 0.0454
vn -0.5931 -0.8027 0.0625
vn -0.5729 -0.7908 0.2155
vn -0.9515 -0.3066 0.0239
vn -0.9191 -0.3257 -0.2217
vn -0.7835 -0.5993 -0.1639
vn -0.8112 -0.583 0.0454
vn -0.8112 -0.583 0.0454
vn -0.7835 -0.5993 -0.1639
vn -0.5729 -0.8146 -0.0905
vn -0.5931 -0.8027 0.0625
vn -0.9191 -0.3257 -0.2217
vn -0.8241 -0.3435 -0.4504
vn -0.7025 -0.6145 -0.359
vn -0.7835 -0.5993 -0.1639
vn -0.7835 -0.5993 -0.1639
vn -0.7025 -0.6145 -0.359
vn -0.5136 -0.8257 -0.2331
vn -0.5729 -0.8146 -0.0905
vn -0.8241 -0.3435 -0.4504
vn -0.6729 -0.3588 -0.6469
vn -0.5736 -0.6276 -0.5264
vn -0.7025 -0.6145 -0.359
vn -0.7025 -0.6145 -0.359
vn -0.5736 -0.6276 -0.5264
vn -0.4194 -0.8353 -0.3556
vn -0.5136 -0.8257 -0.2331
vn -0.6729 -0.3588 -0.6469
vn -0.4758 -0.3706 -0.7977
vn -0.4056 -0.6376 -0.655
vn -0.5736 -0.6276 -0.5264
vn -0.5736 -0.6276 -0.5264
vn -0.4056 -0.6376 -0.655
vn -0.2965 -0.8426 -0.4495
vn -0.4194 -0.8353 -0.3556
vn -0.865 0.0098 -0.5017
vn -0.7063 -0.0063 -0.7079
vn -0.6729 -0.3588 -0.6469
vn -0.8241 -0.3435 -0.4504
vn -0.7063 -0.0063 -0.7079
vn -0.4994 -0.0187 -0.8662
vn -0.4758 -0.3706 -0.7977
vn -0.6729 -0.3588 -0.6469
vn -0.4994 -0.0187 -0.8662
vn -0.7063 -0.0063 -0.7079
vn -0.5468 0.5897 -0.5944
vn -0.3867 0.5801 -0.7169
vn -0.7063 -0.0063 -0.7079
vn -0.865 0.0098 -0.5017
vn -0.6697 0.6021 -0.4347
vn -0.5468 0.5897 -0.5944
vn -0.865 0.0098 -0.5017
vn -0.9648 0.0285 -0.2615
vn -0.7469 0.6166 -0.2488
vn -0.6697 0.6021 -0.4347
vn -0.9648 0.0285 -0.2615
vn -0.865 0.0098 -0.5017
vn -0.8241 -0.3435 -0.4504
vn -0.9191 -0.3257 -0.2217
vn -0.9648 0.0285 -0.2615
vn -0.9988 0.0485 -0.0038
vn -0.7733 0.6321 -0.0492
vn -0.7469 0.6166 -0.2488
vn -0.9988 0.0485 -0.0038
vn -0.9648 0.0285 -0.2615
vn -0.9191 -0.3257 -0.2217
vn -0.9515 -0.3066 0.0239
vn -0.9988 0.0485 -0.0038
vn -0.9648 0.0686 0.2539
vn -0.7469 0.6477 0.1503
vn -0.7733 0.6321 -0.0492
vn -0.9648 0.0686 0.2539
vn -0.9988 0.0485 -0.0038
vn -0.9515 -0.3066 0.0239
vn -0.9191 -0.2875 0.2694
vn -0.9648 0.0686 0.2539
vn -0.865 0.0873 0.4941
vn -0.6697 0.6622 0.3363
vn -0.7469 0.6477 0.1503
vn -0.865 0.0873 0.4941
vn -0.9648 0.0686 0.2539
vn -0.9191 -0.2875 0.2694
vn -0.8241 -0.2697 0.4982
vn -0.865 0.0873 0.4941
vn -0.7063 0.1033 0.7004
vn -0.5468 0.6746 0.4959
vn -0.6697 0.6622 0.3363
vn -0.7063 0.1033 0.7004
vn -0.865 0.0873 0.4941
vn -0.8241 -0.2697 0.4982
vn -0.6728 -0.2543 0.6947
vn -0.7063 0.1033 0.7004
vn -0.4994 0.1156 0.8586
vn -0.3867 0.6841 0.6185
vn -0.5468 0.6746 0.4959
vn -0.4994 0.1156 0.8586
vn -0.7063 0.1033 0.7004
vn -0.6728 -0.2543 0.6947
vn -0.4758 -0.2426 0.8455
vn -0.2002 0.6901 0.6955
vn -0.3867 0.6841 0.6185
vn -0.4994 0.1156 0.8586
vn -0.2585 0.1234 0.9581
vn -0.2585 0.1234 0.9581
vn -0.4994 0.1156 0.8586
vn -0.4758 -0.2426 0.8455
vn -0.2463 -0.2352 0.9402
vn -0 0.6922 0.7217
vn -0.2002 0.6901 0.6955
vn -0.2585 0.1234 0.9581
vn -0 0.126 0.992
vn -0 0.126 0.992
vn -0.2585 0.1234 0.9581
vn -0.2463 -0.2352 0.9402
vn -0 -0.2327 0.9725
vn -0 0.126 0.992
vn 0.2586 0.1234 0.9581
vn 0.2001 0.6901 0.6955
vn -0 0.6922 0.7217
vn 0.2586 0.1234 0.9581
vn -0 0.126 0.992
vn -0 -0.2327 0.9725
vn 0.2463 -0.2352 0.9402
vn 0.2586 0.1234 0.9581
vn 0.4994 0.1156 0.8586
vn 0.3867 0.6841 0.6185
vn 0.2001 0.6901 0.6955
vn 0.4994 0.1156 0.8586
vn 0.2586 0.1234 0.9581
vn 0.2463 -0.2352 0.9402
vn 0.4758 -0.2426 0.8454
vn 0.4994 0.1156 0.8586
vn 0.7063 0.1032 0.7004
vn 0.5469 0.6745 0.496
vn 0.3867 0.6841 0.6185
vn 0.7063 0.1032 0.7004
vn 0.4994 0.1156 0.8586
vn 0.4758 -0.2426 0.8454
vn 0.6728 -0.2543 0.6947
vn 0.6697 0.6621 0.3363
vn 0.5469 0.6745 0.496
vn 0.7063 0.1032 0.7004
vn 0.865 0.0872 0.4941
vn 0.865 0.0872 0.4941
vn 0.7063 0.1032 0.7004
vn 0.6728 -0.2543 0.6947
vn 0.8241 -0.2696 0.4982
vn 0.865 0.0872 0.4941
vn 0.9648 0.0686 0.254
vn 0.747 0.6477 0.1503
vn 0.6697 0.6621 0.3363
vn 0.9648 0.0686 0.254
vn 0.865 0.0872 0.4941
vn 0.8241 -0.2696 0.4982
vn 0.9191 -0.2874 0.2694
vn 0.9648 0.0686 0.254
vn 0.9988 0.0485 -0.0038
vn 0.7734 0.632 -0.0492
vn 0.747 0.6477 0.1503
vn 0.9988 0.0485 -0.0038
vn 0.9648 0.0686 0.254
vn 0.9191 -0.2874 0.2694
vn 0.9516 -0.3066 0.0239
vn 0.747 0.6166 -0.2488
vn 0.7734 0.632 -0.0492
vn 0.9988 0.0485 -0.0038
vn 0.9648 0.0285 -0.2615
vn 0.9648 0.0285 -0.2615
vn 0.9988 0.0485 -0.0038
vn 0.9516 -0.3066 0.0239
vn 0.9191 -0.3257 -0.2217
vn 0.9648 0.0285 -0.2615
vn 0.865 0.0097 -0.5017
vn 0.6697 0.602 -0.4347
vn 0.747 0.6166 -0.2488
vn 0.865 0.0097 -0.5017
vn 0.9648 0.0285 -0.2615
vn 0.9191 -0.3257 -0.2217
vn 0.8241 -0.3435 -0.4505
vn 0.865 0.0097 -0.5017
vn 0.7063 -0.0064 -0.7079
vn 0.5469 0.5896 -0.5944
vn 0.6697 0.602 -0.4347
vn 0.7063 -0.0064 -0.7079
vn 0.865 0.0097 -0.5017
vn 0.8241 -0.3435 -0.4505
vn 0.6729 -0.3588 -0.6469
vn 0.7063 -0.0064 -0.7079
vn 0.4994 -0.0187 -0.8662
vn 0.3867 0.5801 -0.7169
vn 0.5469 0.5896 -0.5944
vn 0.4994 -0.0187 -0.8662
vn 0.7063 -0.0064 -0.7079
vn 0.6729 -0.3588 -0.6469
vn 0.4758 -0.3706 -0.7977
vn 0.4994 -0.0187 -0.8662
vn 0.2585 -0.0264 -0.9656
vn 0.2001 0.5741 -0.794
vn 0.3867 0.5801 -0.7169
vn 0.2585 -0.0264 -0.9656
vn 0.4994 -0.0187 -0.8662
vn 0.4758 -0.3706 -0.7977
vn 0.2463 -0.3779 -0.8925
vn 0.2585 -0.0264 -0.9656
vn -0 -0.0291 -0.9996
vn -0 0.572 -0.8202
vn 0.2001 0.5741 -0.794
vn 0.3867 0.5801 -0.7169
vn 0.2001 0.5741 -0.794
vn 0.0568 0.9562 -0.287
vn 0.1096 0.958 -0.2651
vn 0.5469 0.5896 -0.5944
vn 0.3867 0.5801 -0.7169
vn 0.1096 0.958 -0.2651
vn 0.1551 0.9607 -0.2303
vn -0 0.997 -0.0777
vn -0.0001 0.997 -0.0775
vn 0.1096 0.958 -0.2651
vn 0.0568 0.9562 -0.287
vn -0.0001 0.997 -0.0775
vn -0.0001 0.997 -0.0775
vn 0.1551 0.9607 -0.2303
vn 0.1096 0.958 -0.2651
vn -0.0001 0.997 -0.0775
vn -0 0.997 -0.0776
vn 0.19 0.9642 -0.1851
vn 0.1551 0.9607 -0.2303
vn -0 0.997 -0.0776
vn -0 0.997 -0.0777
vn 0.2119 0.9683 -0.1324
vn 0.19 0.9642 -0.1851
vn 0.747 0.6166 -0.2488
vn 0.6697 0.602 -0.4347
vn 0.19 0.9642 -0.1851
vn 0.2119 0.9683 -0.1324
vn 0.6697 0.602 -0.4347
vn 0.5469 0.5896 -0.5944
vn 0.1551 0.9607 -0.2303
vn 0.19 0.9642 -0.1851
vn 0.2119 0.9683 -0.1324
vn 0.2193 0.9727 -0.0758
vn 0.7734 0.632 -0.0492
vn 0.747 0.6166 -0.2488
vn -0 0.997 -0.0777
vn -0 0.997 -0.0776
vn 0.2193 0.9727 -0.0758
vn 0.2119 0.9683 -0.1324
vn 0.747 0.6477 0.1503
vn 0.7734 0.632 -0.0492
vn 0.2193 0.9727 -0.0758
vn 0.2118 0.9771 -0.0192
vn -0 0.997 -0.0776
vn -0 0.997 -0.0776
vn 0.2118 0.9771 -0.0192
vn 0.2193 0.9727 -0.0758
vn -0 0.997 -0.0776
vn -0 0.997 -0.0777
vn 0.1899 0.9812 0.0335
vn 0.2118 0.9771 -0.0192
vn -0 0.997 -0.0777
vn -0 0.997 -0.0773
vn 0.1551 0.9848 0.0788
vn 0.1899 0.9812 0.0335
vn 0.6697 0.6621 0.3363
vn 0.747 0.6477 0.1503
vn 0.2118 0.9771 -0.0192
vn 0.1899 0.9812 0.0335
vn 0.1899 0.9812 0.0335
vn 0.1551 0.9848 0.0788
vn 0.5469 0.6745 0.496
vn 0.6697 0.6621 0.3363
vn 0.3867 0.6841 0.6185
vn 0.5469 0.6745 0.496
vn 0.1551 0.9848 0.0788
vn 0.1096 0.9875 0.1136
vn -0 0.997 -0.0773
vn -0 0.997 -0.0777
vn 0.1096 0.9875 0.1136
vn 0.1551 0.9848 0.0788
vn 0.2001 0.6901 0.6955
vn 0.3867 0.6841 0.6185
vn 0.1096 0.9875 0.1136
vn 0.0567 0.9892 0.1354
vn -0 0.997 -0.0777
vn -0 0.997 -0.0776
vn 0.0567 0.9892 0.1354
vn 0.1096 0.9875 0.1136
vn -0 0.997 -0.0776
vn -0 0.997 -0.0775
vn -0 0.9897 0.1428
vn 0.0567 0.9892 0.1354
vn -0 0.997 -0.0775
vn -0 0.997 -0.0776
vn -0.0567 0.9892 0.1354
vn -0 0.9897 0.1428
vn -0 0.6922 0.7217
vn 0.2001 0.6901 0.6955
vn 0.0567 0.9892 0.1354
vn -0 0.9897 0.1428
vn -0 0.9897 0.1428
vn -0.0567 0.9892 0.1354
vn -0.2002 0.6901 0.6955
vn -0 0.6922 0.7217
vn -0.0567 0.9892 0.1354
vn -0.1096 0.9875 0.1135
vn -0.3867 0.6841 0.6185
vn -0.2002 0.6901 0.6955
vn -0 0.997 -0.0776
vn -0 0.997 -0.0777
vn -0.1096 0.9875 0.1135
vn -0.0567 0.9892 0.1354
vn -0.5468 0.6746 0.4959
vn -0.3867 0.6841 0.6185
vn -0.1096 0.9875 0.1135
vn -0.155 0.9848 0.0788
vn -0 0.997 -0.0777
vn -0 0.997 -0.0773
vn -0.155 0.9848 0.0788
vn -0.1096 0.9875 0.1135
vn -0 0.997 -0.0773
vn -0 0.997 -0.0777
vn -0.1899 0.9812 0.0335
vn -0.155 0.9848 0.0788
vn -0 0.997 -0.0777
vn -0 0.997 -0.0776
vn -0.2118 0.9771 -0.0192
vn -0.1899 0.9812 0.0335
vn -0.7469 0.6477 0.1503
vn -0.6697 0.6622 0.3363
vn -0.1899 0.9812 0.0335
vn -0.2118 0.9771 -0.0192
vn -0.6697 0.6622 0.3363
vn -0.5468 0.6746 0.4959
vn -0.155 0.9848 0.0788
vn -0.1899 0.9812 0.0335
vn -0.7733 0.6321 -0.0492
vn -0.7469 0.6477 0.1503
vn -0.2118 0.9771 -0.0192
vn -0.2193 0.9727 -0.0758
vn -0 0.997 -0.0776
vn -0 0.997 -0.0776
vn -0.2193 0.9727 -0.0758
vn -0.2118 0.9771 -0.0192
vn -0.7469 0.6166 -0.2488
vn -0.7733 0.6321 -0.0492
vn -0.2193 0.9727 -0.0758
vn -0.2119 0.9683 -0.1324
vn -0 0.997 -0.0776
vn -0 0.997 -0.0777
vn -0.2119 0.9683 -0.1324
vn -0.2193 0.9727 -0.0758
vn -0 0.997 -0.0777
vn -0 0.997 -0.0776
vn -0.19 0.9642 -0.1851
vn -0.2119 0.9683 -0.1324
vn -0 0.997 -0.0776
vn -0.0002 0.997 -0.0777
vn -0.1551 0.9607 -0.2304
vn -0.19 0.9642 -0.1851
vn -0.5468 0.5897 -0.5944
vn -0.6697 0.6021 -0.4347
vn -0.19 0.9642 -0.1851
vn -0.1551 0.9607 -0.2304
vn -0.6697 0.6021 -0.4347
vn -0.7469 0.6166 -0.2488
vn -0.2119 0.9683 -0.1324
vn -0.19 0.9642 -0.1851
vn -0.3867 0.5801 -0.7169
vn -0.5468 0.5897 -0.5944
vn -0.1551 0.9607 -0.2304
vn -0.1096 0.958 -0.2651
vn -0.0002 0.997 -0.0777
vn 0.0001 0.997 -0.0775
vn -0.1096 0.958 -0.2651
vn -0.1551 0.9607 -0.2304
vt 0.138171 0.24687
vt 0.140882 0.241513
vt 0.138943 0.240809
vt 0.136473 0.24565
vt 0.134131 0.251325
vt 0.138171 0.24687
vt 0.136473 0.24565
vt 0.132801 0.249693
vt 0.135395 0.244923
vt 0.13195 0.248703
vt 0.132801 0.249693
vt 0.136473 0.24565
vt 0.137689 0.240375
vt 0.135395 0.244923
vt 0.136473 0.24565
vt 0.138943 0.240809
vt 0.128129 0.252629
vt 0.132801 0.249693
vt 0.13195 0.248703
vt 0.127602 0.251472
vt 0.129042 0.254632
vt 0.134131 0.251325
vt 0.132801 0.249693
vt 0.128129 0.252629
vt 0.127602 0.251472
vt 0.13195 0.248703
vt 0.131189 0.247801
vt 0.127105 0.250377
vt 0.134439 0.244263
vt 0.131189 0.247801
vt 0.13195 0.248703
vt 0.135395 0.244923
vt 0.127105 0.250377
vt 0.131189 0.247801
vt 0.129487 0.245751
vt 0.126019 0.247987
vt 0.131189 0.247801
vt 0.134439 0.244263
vt 0.13223 0.242725
vt 0.129487 0.245751
vt 0.126019 0.247987
vt 0.129487 0.245751
vt 0.127234 0.243058
vt 0.124536 0.244698
vt 0.129487 0.245751
vt 0.13223 0.242725
vt 0.129337 0.240703
vt 0.127234 0.243058
vt 0.134439 0.244263
vt 0.136594 0.239988
vt 0.134117 0.239118
vt 0.13223 0.242725
vt 0.13223 0.242725
vt 0.134117 0.239118
vt 0.130816 0.237944
vt 0.129337 0.240703
vt 0.129337 0.240703
vt 0.130816 0.237944
vt 0.127888 0.23689
vt 0.126796 0.238938
vt 0.127234 0.243058
vt 0.129337 0.240703
vt 0.126796 0.238938
vt 0.12521 0.240629
vt 0.126796 0.238938
vt 0.127888 0.23689
vt 0.125152 0.235866
vt 0.124427 0.237247
vt 0.12521 0.240629
vt 0.126796 0.238938
vt 0.124427 0.237247
vt 0.123358 0.23838
vt 0.124536 0.244698
vt 0.127234 0.243058
vt 0.12521 0.240629
vt 0.123251 0.241884
vt 0.123251 0.241884
vt 0.12521 0.240629
vt 0.123358 0.23838
vt 0.12204 0.239212
vt 0.12204 0.239212
vt 0.123358 0.23838
vt 0.121544 0.236178
vt 0.120859 0.236606
vt 0.123358 0.23838
vt 0.124427 0.237247
vt 0.122095 0.235588
vt 0.121544 0.236178
vt 0.11958 0.233794
vt 0.120859 0.236606
vt 0.121544 0.236178
vt 0.11958 0.233794
vt 0.121544 0.236178
vt 0.122095 0.235588
vt 0.11958 0.233794
vt 0.122095 0.235588
vt 0.122472 0.234873
vt 0.11958 0.233794
vt 0.122472 0.234873
vt 0.122653 0.234087
vt 0.11958 0.233794
vt 0.122653 0.234087
vt 0.122622 0.233281
vt 0.11958 0.233794
vt 0.122622 0.233281
vt 0.122383 0.232511
vt 0.11958 0.233794
vt 0.122383 0.232511
vt 0.121955 0.23183
vt 0.11958 0.233794
vt 0.121955 0.23183
vt 0.121365 0.231284
vt 0.11958 0.233794
vt 0.121365 0.231284
vt 0.120654 0.23091
vt 0.11958 0.233794
vt 0.120654 0.23091
vt 0.119872 0.23073
vt 0.11958 0.233794
vt 0.119872 0.23073
vt 0.119071 0.23076
vt 0.11958 0.233794
vt 0.119071 0.23076
vt 0.118304 0.230995
vt 0.11958 0.233794
vt 0.118304 0.230995
vt 0.117625 0.23142
vt 0.11958 0.233794
vt 0.117625 0.23142
vt 0.117078 0.232005
vt 0.11958 0.233794
vt 0.117078 0.232005
vt 0.1167 0.232712
vt 0.11958 0.233794
vt 0.1167 0.232712
vt 0.116517 0.233493
vt 0.11958 0.233794
vt 0.116517 0.233493
vt 0.116543 0.234295
vt 0.11958 0.233794
vt 0.116543 0.234295
vt 0.116774 0.235064
vt 0.11958 0.233794
vt 0.116774 0.235064
vt 0.117196 0.235748
vt 0.11958 0.233794
vt 0.117196 0.235748
vt 0.117783 0.236301
vt 0.11958 0.233794
vt 0.117783 0.236301
vt 0.118493 0.236682
vt 0.11958 0.233794
vt 0.118493 0.236682
vt 0.119279 0.236867
vt 0.11958 0.233794
vt 0.119279 0.236867
vt 0.120086 0.236841
vt 0.11958 0.233794
vt 0.120086 0.236841
vt 0.120859 0.236606
vt 0.120546 0.239654
vt 0.12204 0.239212
vt 0.120859 0.236606
vt 0.120086 0.236841
vt 0.118992 0.239706
vt 0.120546 0.239654
vt 0.120086 0.236841
vt 0.119279 0.236867
vt 0.121011 0.242547
vt 0.123251 0.241884
vt 0.12204 0.239212
vt 0.120546 0.239654
vt 0.11868 0.242608
vt 0.121011 0.242547
vt 0.120546 0.239654
vt 0.118992 0.239706
vt 0.116425 0.24206
vt 0.11868 0.242608
vt 0.118992 0.239706
vt 0.117479 0.239349
vt 0.117479 0.239349
vt 0.118992 0.239706
vt 0.119279 0.236867
vt 0.118493 0.236682
vt 0.114406 0.240946
vt 0.116425 0.24206
vt 0.117479 0.239349
vt 0.116109 0.238612
vt 0.116109 0.238612
vt 0.117479 0.239349
vt 0.118493 0.236682
vt 0.117783 0.236301
vt 0.11272 0.239371
vt 0.114406 0.240946
vt 0.116109 0.238612
vt 0.114987 0.23754
vt 0.114987 0.23754
vt 0.116109 0.238612
vt 0.117783 0.236301
vt 0.117196 0.235748
vt 0.111551 0.237384
vt 0.11272 0.239371
vt 0.114987 0.23754
vt 0.114191 0.23622
vt 0.114191 0.23622
vt 0.114987 0.23754
vt 0.117196 0.235748
vt 0.116774 0.235064
vt 0.110895 0.235186
vt 0.111551 0.237384
vt 0.114191 0.23622
vt 0.113749 0.234747
vt 0.113749 0.234747
vt 0.114191 0.23622
vt 0.116774 0.235064
vt 0.116543 0.234295
vt 0.110861 0.232904
vt 0.110895 0.235186
vt 0.113749 0.234747
vt 0.113702 0.23321
vt 0.113702 0.23321
vt 0.113749 0.234747
vt 0.116543 0.234295
vt 0.116517 0.233493
vt 0.111371 0.230694
vt 0.110861 0.232904
vt 0.113702 0.23321
vt 0.114051 0.231713
vt 0.114051 0.231713
vt 0.113702 0.23321
vt 0.116517 0.233493
vt 0.1167 0.232712
vt 0.112441 0.228676
vt 0.111371 0.230694
vt 0.114051 0.231713
vt 0.114783 0.230363
vt 0.114783 0.230363
vt 0.114051 0.231713
vt 0.1167 0.232712
vt 0.117078 0.232005
vt 0.114018 0.22703
vt 0.112441 0.228676
vt 0.114783 0.230363
vt 0.115828 0.22924
vt 0.115828 0.22924
vt 0.114783 0.230363
vt 0.117078 0.232005
vt 0.117625 0.23142
vt 0.115929 0.225809
vt 0.114018 0.22703
vt 0.115828 0.22924
vt 0.117127 0.228419
vt 0.117127 0.228419
vt 0.115828 0.22924
vt 0.117625 0.23142
vt 0.118304 0.230995
vt 0.118102 0.225157
vt 0.115929 0.225809
vt 0.117127 0.228419
vt 0.118598 0.227971
vt 0.118598 0.227971
vt 0.117127 0.228419
vt 0.118304 0.230995
vt 0.119071 0.23076
vt 0.120377 0.225038
vt 0.118102 0.225157
vt 0.118598 0.227971
vt 0.120135 0.227912
vt 0.120135 0.227912
vt 0.118598 0.227971
vt 0.119071 0.23076
vt 0.119872 0.23073
vt 0.122607 0.225544
vt 0.120377 0.225038
vt 0.120135 0.227912
vt 0.121637 0.228252
vt 0.121637 0.228252
vt 0.120135 0.227912
vt 0.119872 0.23073
vt 0.120654 0.23091
vt 0.124661 0.226582
vt 0.122607 0.225544
vt 0.121637 0.228252
vt 0.123002 0.228969
vt 0.123002 0.228969
vt 0.121637 0.228252
vt 0.120654 0.23091
vt 0.121365 0.231284
vt 0.126355 0.228155
vt 0.124661 0.226582
vt 0.123002 0.228969
vt 0.124132 0.230018
vt 0.124132 0.230018
vt 0.123002 0.228969
vt 0.121365 0.231284
vt 0.121955 0.23183
vt 0.127577 0.230105
vt 0.126355 0.228155
vt 0.124132 0.230018
vt 0.124966 0.231319
vt 0.124966 0.231319
vt 0.124132 0.230018
vt 0.121955 0.23183
vt 0.122383 0.232511
vt 0.128287 0.232297
vt 0.127577 0.230105
vt 0.124966 0.231319
vt 0.125422 0.232798
vt 0.125422 0.232798
vt 0.124966 0.231319
vt 0.122383 0.232511
vt 0.122622 0.233281
vt 0.128414 0.234619
vt 0.128287 0.232297
vt 0.125422 0.232798
vt 0.125493 0.234347
vt 0.125493 0.234347
vt 0.125422 0.232798
vt 0.122622 0.233281
vt 0.122653 0.234087
vt 0.127888 0.23689
vt 0.128414 0.234619
vt 0.125493 0.234347
vt 0.125152 0.235866
vt 0.125152 0.235866
vt 0.125493 0.234347
vt 0.122653 0.234087
vt 0.122472 0.234873
vt 0.124427 0.237247
vt 0.125152 0.235866
vt 0.122472 0.234873
vt 0.122095 0.235588
vt 0.131524 0.234882
vt 0.131322 0.231766
vt 0.128287 0.232297
vt 0.128414 0.234619
vt 0.130816 0.237944
vt 0.131524 0.234882
vt 0.128414 0.234619
vt 0.127888 0.23689
vt 0.135003 0.235161
vt 0.134784 0.231117
vt 0.131322 0.231766
vt 0.131524 0.234882
vt 0.134117 0.239118
vt 0.135003 0.235161
vt 0.131524 0.234882
vt 0.130816 0.237944
vt 0.134784 0.231117
vt 0.133525 0.227273
vt 0.130392 0.228789
vt 0.131322 0.231766
vt 0.131322 0.231766
vt 0.130392 0.228789
vt 0.127577 0.230105
vt 0.128287 0.232297
vt 0.133525 0.227273
vt 0.131358 0.223858
vt 0.128713 0.226152
vt 0.130392 0.228789
vt 0.130392 0.228789
vt 0.128713 0.226152
vt 0.126355 0.228155
vt 0.127577 0.230105
vt 0.131358 0.223858
vt 0.128316 0.221209
vt 0.126409 0.22406
vt 0.128713 0.226152
vt 0.128713 0.226152
vt 0.126409 0.22406
vt 0.124661 0.226582
vt 0.126355 0.228155
vt 0.128316 0.221209
vt 0.124769 0.219402
vt 0.123649 0.222623
vt 0.126409 0.22406
vt 0.126409 0.22406
vt 0.123649 0.222623
vt 0.122607 0.225544
vt 0.124661 0.226582
vt 0.124769 0.219402
vt 0.120877 0.218567
vt 0.120623 0.222027
vt 0.123649 0.222623
vt 0.123649 0.222623
vt 0.120623 0.222027
vt 0.120377 0.225038
vt 0.122607 0.225544
vt 0.120877 0.218567
vt 0.116926 0.218815
vt 0.117576 0.222157
vt 0.120623 0.222027
vt 0.120623 0.222027
vt 0.117576 0.222157
vt 0.118102 0.225157
vt 0.120377 0.225038
vt 0.116926 0.218815
vt 0.113207 0.220013
vt 0.114669 0.223065
vt 0.117576 0.222157
vt 0.117576 0.222157
vt 0.114669 0.223065
vt 0.115929 0.225809
vt 0.118102 0.225157
vt 0.113207 0.220013
vt 0.109943 0.222108
vt 0.112089 0.224677
vt 0.114669 0.223065
vt 0.114669 0.223065
vt 0.112089 0.224677
vt 0.114018 0.22703
vt 0.115929 0.225809
vt 0.109943 0.222108
vt 0.107272 0.224925
vt 0.109972 0.226889
vt 0.112089 0.224677
vt 0.112089 0.224677
vt 0.109972 0.226889
vt 0.112441 0.228676
vt 0.114018 0.22703
vt 0.107272 0.224925
vt 0.105379 0.228347
vt 0.108532 0.229593
vt 0.109972 0.226889
vt 0.109972 0.226889
vt 0.108532 0.229593
vt 0.111371 0.230694
vt 0.112441 0.228676
vt 0.105379 0.228347
vt 0.104426 0.232158
vt 0.10782 0.232575
vt 0.108532 0.229593
vt 0.108532 0.229593
vt 0.10782 0.232575
vt 0.110861 0.232904
vt 0.111371 0.230694
vt 0.104426 0.232158
vt 0.104461 0.236127
vt 0.107902 0.235634
vt 0.10782 0.232575
vt 0.10782 0.232575
vt 0.107902 0.235634
vt 0.110895 0.235186
vt 0.110861 0.232904
vt 0.104461 0.236127
vt 0.105522 0.239997
vt 0.108709 0.238613
vt 0.107902 0.235634
vt 0.107902 0.235634
vt 0.108709 0.238613
vt 0.111551 0.237384
vt 0.110895 0.235186
vt 0.105522 0.239997
vt 0.107593 0.243441
vt 0.110288 0.24131
vt 0.108709 0.238613
vt 0.108709 0.238613
vt 0.110288 0.24131
vt 0.11272 0.239371
vt 0.111551 0.237384
vt 0.107593 0.243441
vt 0.110478 0.246248
vt 0.112568 0.243473
vt 0.110288 0.24131
vt 0.110288 0.24131
vt 0.112568 0.243473
vt 0.114406 0.240946
vt 0.11272 0.239371
vt 0.110478 0.246248
vt 0.114015 0.248222
vt 0.115328 0.244976
vt 0.112568 0.243473
vt 0.112568 0.243473
vt 0.115328 0.244976
vt 0.116425 0.24206
vt 0.114406 0.240946
vt 0.114015 0.248222
vt 0.117958 0.249179
vt 0.118385 0.24571
vt 0.115328 0.244976
vt 0.115328 0.244976
vt 0.118385 0.24571
vt 0.11868 0.242608
vt 0.116425 0.24206
vt 0.117958 0.249179
vt 0.12205 0.249128
vt 0.121535 0.245623
vt 0.118385 0.24571
vt 0.118385 0.24571
vt 0.121535 0.245623
vt 0.121011 0.242547
vt 0.11868 0.242608
vt 0.12205 0.249128
vt 0.126019 0.247987
vt 0.124536 0.244698
vt 0.121535 0.245623
vt 0.121535 0.245623
vt 0.124536 0.244698
vt 0.123251 0.241884
vt 0.121011 0.242547
vt 0.117647 0.251856
vt 0.122473 0.251758
vt 0.12205 0.249128
vt 0.117958 0.249179
vt 0.122473 0.251758
vt 0.127105 0.250377
vt 0.126019 0.247987
vt 0.12205 0.249128
vt 0.127105 0.250377
vt 0.122473 0.251758
vt 0.122651 0.252929
vt 0.127602 0.251472
vt 0.122473 0.251758
vt 0.117647 0.251856
vt 0.11751 0.25301
vt 0.122651 0.252929
vt 0.117647 0.251856
vt 0.113018 0.250671
vt 0.112581 0.251756
vt 0.11751 0.25301
vt 0.113018 0.250671
vt 0.117647 0.251856
vt 0.117958 0.249179
vt 0.114015 0.248222
vt 0.113018 0.250671
vt 0.108896 0.248321
vt 0.108203 0.249243
vt 0.112581 0.251756
vt 0.108896 0.248321
vt 0.113018 0.250671
vt 0.114015 0.248222
vt 0.110478 0.246248
vt 0.108896 0.248321
vt 0.105537 0.245032
vt 0.104629 0.245742
vt 0.108203 0.249243
vt 0.105537 0.245032
vt 0.108896 0.248321
vt 0.110478 0.246248
vt 0.107593 0.243441
vt 0.105537 0.245032
vt 0.103188 0.240983
vt 0.102127 0.241432
vt 0.104629 0.245742
vt 0.103188 0.240983
vt 0.105537 0.245032
vt 0.107593 0.243441
vt 0.105522 0.239997
vt 0.103188 0.240983
vt 0.101925 0.236495
vt 0.100811 0.236647
vt 0.102127 0.241432
vt 0.101925 0.236495
vt 0.103188 0.240983
vt 0.105522 0.239997
vt 0.104461 0.236127
vt 0.101925 0.236495
vt 0.101897 0.231879
vt 0.100783 0.231746
vt 0.100811 0.236647
vt 0.101897 0.231879
vt 0.101925 0.236495
vt 0.104461 0.236127
vt 0.104426 0.232158
vt 0.101966 0.227039
vt 0.100783 0.231746
vt 0.101897 0.231879
vt 0.103009 0.227447
vt 0.103009 0.227447
vt 0.101897 0.231879
vt 0.104426 0.232158
vt 0.105379 0.228347
vt 0.104318 0.222797
vt 0.101966 0.227039
vt 0.103009 0.227447
vt 0.105224 0.223457
vt 0.105224 0.223457
vt 0.103009 0.227447
vt 0.105379 0.228347
vt 0.107272 0.224925
vt 0.105224 0.223457
vt 0.108319 0.22013
vt 0.107621 0.219284
vt 0.104318 0.222797
vt 0.108319 0.22013
vt 0.105224 0.223457
vt 0.107272 0.224925
vt 0.109943 0.222108
vt 0.108319 0.22013
vt 0.11215 0.217713
vt 0.111676 0.216707
vt 0.107621 0.219284
vt 0.11215 0.217713
vt 0.108319 0.22013
vt 0.109943 0.222108
vt 0.113207 0.220013
vt 0.11215 0.217713
vt 0.116476 0.216331
vt 0.116267 0.215237
vt 0.111676 0.216707
vt 0.116476 0.216331
vt 0.11215 0.217713
vt 0.113207 0.220013
vt 0.116926 0.218815
vt 0.121123 0.214942
vt 0.116267 0.215237
vt 0.116476 0.216331
vt 0.121048 0.216074
vt 0.121048 0.216074
vt 0.116476 0.216331
vt 0.116926 0.218815
vt 0.120877 0.218567
vt 0.121048 0.216074
vt 0.125595 0.216955
vt 0.125962 0.215873
vt 0.121123 0.214942
vt 0.125595 0.216955
vt 0.121048 0.216074
vt 0.120877 0.218567
vt 0.124769 0.219402
vt 0.125595 0.216955
vt 0.129786 0.219021
vt 0.130418 0.218075
vt 0.125962 0.215873
vt 0.129786 0.219021
vt 0.125595 0.216955
vt 0.124769 0.219402
vt 0.128316 0.221209
vt 0.134205 0.221408
vt 0.130418 0.218075
vt 0.129786 0.219021
vt 0.133317 0.222176
vt 0.133317 0.222176
vt 0.129786 0.219021
vt 0.128316 0.221209
vt 0.131358 0.223858
vt 0.133317 0.222176
vt 0.135945 0.226135
vt 0.13699 0.225641
vt 0.134205 0.221408
vt 0.135945 0.226135
vt 0.133317 0.222176
vt 0.131358 0.223858
vt 0.133525 0.227273
vt 0.135945 0.226135
vt 0.137352 0.230668
vt 0.138501 0.230467
vt 0.13699 0.225641
vt 0.137352 0.230668
vt 0.135945 0.226135
vt 0.133525 0.227273
vt 0.134784 0.231117
vt 0.137352 0.230668
vt 0.137573 0.235367
vt 0.138725 0.235462
vt 0.138501 0.230467
vt 0.137573 0.235367
vt 0.137352 0.230668
vt 0.134784 0.231117
vt 0.135003 0.235161
vt 0.137573 0.235367
vt 0.136594 0.239988
vt 0.137689 0.240375
vt 0.138725 0.235462
vt 0.136594 0.239988
vt 0.137573 0.235367
vt 0.135003 0.235161
vt 0.134117 0.239118
vt 0.136594 0.239988
vt 0.134439 0.244263
vt 0.135395 0.244923
vt 0.137689 0.240375
vt 0.138725 0.235462
vt 0.137689 0.240375
vt 0.138943 0.240809
vt 0.139994 0.235574
vt 0.138501 0.230467
vt 0.138725 0.235462
vt 0.139994 0.235574
vt 0.13976 0.230262
vt 0.140882 0.241513
vt 0.14195 0.235725
vt 0.139994 0.235574
vt 0.138943 0.240809
vt 0.14195 0.235725
vt 0.141776 0.22989
vt 0.13976 0.230262
vt 0.139994 0.235574
vt 0.141776 0.22989
vt 0.14007 0.224188
vt 0.138117 0.225108
vt 0.13976 0.230262
vt 0.14007 0.224188
vt 0.136758 0.219226
vt 0.135169 0.220557
vt 0.138117 0.225108
vt 0.134205 0.221408
vt 0.13699 0.225641
vt 0.138117 0.225108
vt 0.135169 0.220557
vt 0.13699 0.225641
vt 0.138501 0.230467
vt 0.13976 0.230262
vt 0.138117 0.225108
vt 0.135169 0.220557
vt 0.131144 0.216982
vt 0.130418 0.218075
vt 0.134205 0.221408
vt 0.136758 0.219226
vt 0.132306 0.215296
vt 0.131144 0.216982
vt 0.135169 0.220557
vt 0.125962 0.215873
vt 0.130418 0.218075
vt 0.131144 0.216982
vt 0.126348 0.214714
vt 0.132306 0.215296
vt 0.127023 0.212804
vt 0.126348 0.214714
vt 0.131144 0.216982
vt 0.127023 0.212804
vt 0.121356 0.211682
vt 0.121204 0.213665
vt 0.126348 0.214714
vt 0.121356 0.211682
vt 0.115691 0.212169
vt 0.116047 0.214029
vt 0.121204 0.213665
vt 0.121123 0.214942
vt 0.125962 0.215873
vt 0.126348 0.214714
vt 0.121204 0.213665
vt 0.121204 0.213665
vt 0.116047 0.214029
vt 0.116267 0.215237
vt 0.121123 0.214942
vt 0.111676 0.216707
vt 0.116267 0.215237
vt 0.116047 0.214029
vt 0.111173 0.215634
vt 0.115691 0.212169
vt 0.11031 0.213798
vt 0.111173 0.215634
vt 0.116047 0.214029
vt 0.107621 0.219284
vt 0.111676 0.216707
vt 0.111173 0.215634
vt 0.106837 0.218349
vt 0.11031 0.213798
vt 0.105638 0.216898
vt 0.106837 0.218349
vt 0.111173 0.215634
vt 0.105638 0.216898
vt 0.101695 0.220921
vt 0.103299 0.222052
vt 0.106837 0.218349
vt 0.101695 0.220921
vt 0.099 0.225915
vt 0.100855 0.226603
vt 0.103299 0.222052
vt 0.104318 0.222797
vt 0.107621 0.219284
vt 0.106837 0.218349
vt 0.103299 0.222052
vt 0.103299 0.222052
vt 0.100855 0.226603
vt 0.101966 0.227039
vt 0.104318 0.222797
vt 0.100855 0.226603
vt 0.099553 0.231604
vt 0.100783 0.231746
vt 0.101966 0.227039
vt 0.099 0.225915
vt 0.097578 0.231393
vt 0.099553 0.231604
vt 0.100855 0.226603
vt 0.100811 0.236647
vt 0.100783 0.231746
vt 0.099553 0.231604
vt 0.099569 0.236825
vt 0.097578 0.231393
vt 0.097578 0.237128
vt 0.099569 0.236825
vt 0.099553 0.231604
vt 0.097578 0.237128
vt 0.099073 0.242762
vt 0.100927 0.241937
vt 0.099569 0.236825
vt 0.099073 0.242762
vt 0.102067 0.247782
vt 0.103656 0.246497
vt 0.100927 0.241937
vt 0.104629 0.245742
vt 0.102127 0.241432
vt 0.100927 0.241937
vt 0.103656 0.246497
vt 0.102127 0.241432
vt 0.100811 0.236647
vt 0.099569 0.236825
vt 0.100927 0.241937
vt 0.108203 0.249243
vt 0.104629 0.245742
vt 0.103656 0.246497
vt 0.107408 0.25029
vt 0.102067 0.247782
vt 0.1062 0.251946
vt 0.107408 0.25029
vt 0.103656 0.246497
vt 0.112581 0.251756
vt 0.108203 0.249243
vt 0.107408 0.25029
vt 0.112109 0.252913
vt 0.1062 0.251946
vt 0.111362 0.254851
vt 0.112109 0.252913
vt 0.107408 0.25029
vt 0.111362 0.254851
vt 0.117134 0.256423
vt 0.117348 0.254341
vt 0.112109 0.252913
vt 0.117134 0.256423
vt 0.123195 0.256311
vt 0.122838 0.254226
vt 0.117348 0.254341
vt 0.122651 0.252929
vt 0.11751 0.25301
vt 0.117348 0.254341
vt 0.122838 0.254226
vt 0.11751 0.25301
vt 0.112581 0.251756
vt 0.112109 0.252913
vt 0.117348 0.254341
vt 0.127602 0.251472
vt 0.122651 0.252929
vt 0.122838 0.254226
vt 0.128129 0.252629
vt 0.123195 0.256311
vt 0.129042 0.254632
vt 0.128129 0.252629
vt 0.122838 0.254226
s off
f 1/1/1 2/2/2 3/3/3
f 1/1/1 3/3/3 4/4/4
f 5/5/5 6/6/6 7/7/7
f 5/5/5 7/7/7 8/8/8
f 9/9/9 10/10/10 11/11/11
f 9/9/9 11/11/11 12/12/12
f 13/13/13 14/14/14 15/15/15
f 13/13/13 15/15/15 16/16/16
f 17/17/17 18/18/18 19/19/19
f 17/17/17 19/19/19 20/20/20
f 21/21/21 22/22/22 23/23/23
f 21/21/21 23/23/23 24/24/24
f 25/25/25 26/26/26 27/27/27
f 25/25/25 27/27/27 28/28/28
f 29/29/29 30/30/30 31/31/31
f 29/29/29 31/31/31 32/32/32
f 33/33/33 34/34/34 35/35/35
f 33/33/33 35/35/35 36/36/36
f 37/37/37 38/38/38 39/39/39
f 37/37/37 39/39/39 40/40/40
f 41/41/41 42/42/42 43/43/43
f 41/41/41 43/43/43 44/44/44
f 45/45/45 46/46/46 47/47/47
f 45/45/45 47/47/47 48/48/48
f 49/49/49 50/50/50 51/51/51
f 49/49/49 51/51/51 52/52/52
f 53/53/53 54/54/54 55/55/55
f 53/53/53 55/55/55 56/56/56
f 57/57/57 58/58/58 59/59/59
f 57/57/57 59/59/59 60/60/60
f 61/61/61 62/62/62 63/63/63
f 61/61/61 63/63/63 64/64/64
f 65/65/65 66/66/66 67/67/67
f 65/65/65 67/67/67 68/68/68
f 69/69/69 70/70/70 71/71/71
f 69/69/69 71/71/71 72/72/72
f 73/73/73 74/74/74 75/75/75
f 73/73/73 75/75/75 76/76/76
f 77/77/77 78/78/78 79/79/79
f 77/77/77 79/79/79 80/80/80
f 81/81/81 82/82/82 83/83/83
f 81/81/81 83/83/83 84/84/84
f 85/85/85 86/86/86 87/87/87
f 85/85/85 87/87/87 88/88/88
f 89/89/89 90/90/90 91/91/91
f 92/92/92 93/93/93 94/94/94
f 95/95/95 96/96/96 97/97/97
f 98/98/98 99/99/99 100/100/100
f 101/101/101 102/102/102 103/103/103
f 104/104/104 105/105/105 106/106/106
f 107/107/107 108/108/108 109/109/109
f 110/110/110 111/111/111 112/112/112
f 113/113/113 114/114/114 115/115/115
f 116/116/116 117/117/117 118/118/118
f 119/119/119 120/120/120 121/121/121
f 122/122/122 123/123/123 124/124/124
f 125/125/125 126/126/126 127/127/127
f 128/128/128 129/129/129 130/130/130
f 131/131/131 132/132/132 133/133/133
f 134/134/134 135/135/135 136/136/136
f 137/137/137 138/138/138 139/139/139
f 140/140/140 141/141/141 142/142/142
f 143/143/143 144/144/144 145/145/145
f 146/146/146 147/147/147 148/148/148
f 149/149/149 150/150/150 151/151/151
f 152/152/152 153/153/153 154/154/154
f 155/155/155 156/156/156 157/157/157
f 158/158/158 159/159/159 160/160/160
f 161/161/161 162/162/162 163/163/163
f 161/161/161 163/163/163 164/164/164
f 165/165/165 166/166/166 167/167/167
f 165/165/165 167/167/167 168/168/168
f 169/169/169 170/170/170 171/171/171
f 169/169/169 171/171/171 172/172/172
f 173/173/173 174/174/174 175/175/175
f 173/173/173 175/175/175 176/176/176
f 177/177/177 178/178/178 179/179/179
f 177/177/177 179/179/179 180/180/180
f 181/181/181 182/182/182 183/183/183
f 181/181/181 183/183/183 184/184/184
f 185/185/185 186/186/186 187/187/187
f 185/185/185 187/187/187 188/188/188
f 189/189/189 190/190/190 191/191/191
f 189/189/189 191/191/191 192/192/192
f 193/193/193 194/194/194 195/195/195
f 193/193/193 195/195/195 196/196/196
f 197/197/197 198/198/198 199/199/199
f 197/197/197 199/199/199 200/200/200
f 201/201/201 202/202/202 203/203/203
f 201/201/201 203/203/203 204/204/204
f 205/205/205 206/206/206 207/207/207
f 205/205/205 207/207/207 208/208/208
f 209/209/209 210/210/210 211/211/211
f 209/209/209 211/211/211 212/212/212
f 213/213/213 214/214/214 215/215/215
f 213/213/213 215/215/215 216/216/216
f 217/217/217 218/218/218 219/219/219
f 217/217/217 219/219/219 220/220/220
f 221/221/221 222/222/222 223/223/223
f 221/221/221 223/223/223 224/224/224
f 225/225/225 226/226/226 227/227/227
f 225/225/225 227/227/227 228/228/228
f 229/229/229 230/230/230 231/231/231
f 229/229/229 231/231/231 232/232/232
f 233/233/233 234/234/234 235/235/235
f 233/233/233 235/235/235 236/236/236
f 237/237/237 238/238/238 239/239/239
f 237/237/237 239/239/239 240/240/240
f 241/241/241 242/242/242 243/243/243
f 241/241/241 243/243/243 244/244/244
f 245/245/245 246/246/246 247/247/247
f 245/245/245 247/247/247 248/248/248
f 249/249/249 250/250/250 251/251/251
f 249/249/249 251/251/251 252/252/252
f 253/253/253 254/254/254 255/255/255
f 253/253/253 255/255/255 256/256/256
f 257/257/257 258/258/258 259/259/259
f 257/257/257 259/259/259 260/260/260
f 261/261/261 262/262/262 263/263/263
f 261/261/261 263/263/263 264/264/264
f 265/265/265 266/266/266 267/267/267
f 265/265/265 267/267/267 268/268/268
f 269/269/269 270/270/270 271/271/271
f 269/269/269 271/271/271 272/272/272
f 273/273/273 274/274/274 275/275/275
f 273/273/273 275/275/275 276/276/276
f 277/277/277 278/278/278 279/279/279
f 277/277/277 279/279/279 280/280/280
f 281/281/281 282/282/282 283/283/283
f 281/281/281 283/283/283 284/284/284
f 285/285/285 286/286/286 287/287/287
f 285/285/285 287/287/287 288/288/288
f 289/289/289 290/290/290 291/291/291
f 289/289/289 291/291/291 292/292/292
f 293/293/293 294/294/294 295/295/295
f 293/293/293 295/295/295 296/296/296
f 297/297/297 298/298/298 299/299/299
f 297/297/297 299/299/299 300/300/300
f 301/301/301 302/302/302 303/303/303
f 301/301/301 303/303/303 304/304/304
f 305/305/305 306/306/306 307/307/307
f 305/305/305 307/307/307 308/308/308
f 309/309/309 310/310/310 311/311/311
f 309/309/309 311/311/311 312/312/312
f 313/313/313 314/314/314 315/315/315
f 313/313/313 315/315/315 316/316/316
f 317/317/317 318/318/318 319/319/319
f 317/317/317 319/319/319 320/320/320
f 321/321/321 322/322/322 323/323/323
f 321/321/321 323/323/323 324/324/324
f 325/325/325 326/326/326 327/327/327
f 325/325/325 327/327/327 328/328/328
f 329/329/329 330/330/330 331/331/331
f 329/329/329 331/331/331 332/332/332
f 333/333/333 334/334/334 335/335/335
f 333/333/333 335/335/335 336/336/336
f 337/337/337 338/338/338 339/339/339
f 337/337/337 339/339/339 340/340/340
f 341/341/341 342/342/342 343/343/343
f 341/341/341 343/343/343 344/344/344
f 345/345/345 346/346/346 347/347/347
f 345/345/345 347/347/347 348/348/348
f 349/349/349 350/350/350 351/351/351
f 349/349/349 351/351/351 352/352/352
f 353/353/353 354/354/354 355/355/355
f 353/353/353 355/355/355 356/356/356
f 357/357/357 358/358/358 359/359/359
f 357/357/357 359/359/359 360/360/360
f 361/361/361 362/362/362 363/363/363
f 361/361/361 363/363/363 364/364/364
f 365/365/365 366/366/366 367/367/367
f 365/365/365 367/367/367 368/368/368
f 369/369/369 370/370/370 371/371/371
f 369/369/369 371/371/371 372/372/372
f 373/373/373 374/374/374 375/375/375
f 373/373/373 375/375/375 376/376/376
f 377/377/377 378/378/378 379/379/379
f 377/377/377 379/379/379 380/380/380
f 381/381/381 382/382/382 383/383/383
f 381/381/381 383/383/383 384/384/384
f 385/385/385 386/386/386 387/387/387
f 385/385/385 387/387/387 388/388/388
f 389/389/389 390/390/390 391/391/391
f 389/389/389 391/391/391 392/392/392
f 393/393/393 394/394/394 395/395/395
f 393/393/393 395/395/395 396/396/396
f 397/397/397 398/398/398 399/399/399
f 397/397/397 399/399/399 400/400/400
f 401/401/401 402/402/402 403/403/403
f 401/401/401 403/403/403 404/404/404
f 405/405/405 406/406/406 407/407/407
f 405/405/405 407/407/407 408/408/408
f 409/409/409 410/410/410 411/411/411
f 409/409/409 411/411/411 412/412/412
f 413/413/413 414/414/414 415/415/415
f 413/413/413 415/415/415 416/416/416
f 417/417/417 418/418/418 419/419/419
f 417/417/417 419/419/419 420/420/420
f 421/421/421 422/422/422 423/423/423
f 421/421/421 423/423/423 424/424/424
f 425/425/425 426/426/426 427/427/427
f 425/425/425 427/427/427 428/428/428
f 429/429/429 430/430/430 431/431/431
f 429/429/429 431/431/431 432/432/432
f 433/433/433 434/434/434 435/435/435
f 433/433/433 435/435/435 436/436/436
f 437/437/437 438/438/438 439/439/439
f 437/437/437 439/439/439 440/440/440
f 441/441/441 442/442/442 443/443/443
f 441/441/441 443/443/443 444/444/444
f 445/445/445 446/446/446 447/447/447
f 445/445/445 447/447/447 448/448/448
f 449/449/449 450/450/450 451/451/451
f 449/449/449 451/451/451 452/452/452
f 453/453/453 454/454/454 455/455/455
f 453/453/453 455/455/455 456/456/456
f 457/457/457 458/458/458 459/459/459
f 457/457/457 459/459/459 460/460/460
f 461/461/461 462/462/462 463/463/463
f 461/461/461 463/463/463 464/464/464
f 465/465/465 466/466/466 467/467/467
f 465/465/465 467/467/467 468/468/468
f 469/469/469 470/470/470 471/471/471
f 469/469/469 471/471/471 472/472/472
f 473/473/473 474/474/474 475/475/475
f 473/473/473 475/475/475 476/476/476
f 477/477/477 478/478/478 479/479/479
f 477/477/477 479/479/479 480/480/480
f 481/481/481 482/482/482 483/483/483
f 481/481/481 483/483/483 484/484/484
f 485/485/485 486/486/486 487/487/487
f 485/485/485 487/487/487 488/488/488
f 489/489/489 490/490/490 491/491/491
f 489/489/489 491/491/491 492/492/492
f 493/493/493 494/494/494 495/495/495
f 493/493/493 495/495/495 496/496/496
f 497/497/497 498/498/498 499/499/499
f 497/497/497 499/499/499 500/500/500
f 501/501/501 502/502/502 503/503/503
f 501/501/501 503/503/503 504/504/504
f 505/505/505 506/506/506 507/507/507
f 505/505/505 507/507/507 508/508/508
f 509/509/509 510/510/510 511/511/511
f 509/509/509 511/511/511 512/512/512
f 513/513/513 514/514/514 515/515/515
f 513/513/513 515/515/515 516/516/516
f 517/517/517 518/518/518 519/519/519
f 517/517/517 519/519/519 520/520/520
f 521/521/521 522/522/522 523/523/523
f 521/521/521 523/523/523 524/524/524
f 525/525/525 526/526/526 527/527/527
f 525/525/525 527/527/527 528/528/528
f 529/529/529 530/530/530 531/531/531
f 529/529/529 531/531/531 532/532/532
f 533/533/533 534/534/534 535/535/535
f 533/533/533 535/535/535 536/536/536
f 537/537/537 538/538/538 539/539/539
f 537/537/537 539/539/539 540/540/540
f 541/541/541 542/542/542 543/543/543
f 541/541/541 543/543/543 544/544/544
f 545/545/545 546/546/546 547/547/547
f 545/545/545 547/547/547 548/548/548
f 549/549/549 550/550/550 551/551/551
f 549/549/549 551/551/551 552/552/552
f 553/553/553 554/554/554 555/555/555
f 553/553/553 555/555/555 556/556/556
f 557/557/557 558/558/558 559/559/559
f 557/557/557 559/559/559 560/560/560
f 561/561/561 562/562/562 563/563/563
f 561/561/561 563/563/563 564/564/564
f 565/565/565 566/566/566 567/567/567
f 565/565/565 567/567/567 568/568/568
f 569/569/569 570/570/570 571/571/571
f 569/569/569 571/571/571 572/572/572
f 573/573/573 574/574/574 575/575/575
f 573/573/573 575/575/575 576/576/576
f 577/577/577 578/578/578 579/579/579
f 577/577/577 579/579/579 580/580/580
f 581/581/581 582/582/582 583/583/583
f 581/581/581 583/583/583 584/584/584
f 585/585/585 586/586/586 587/587/587
f 585/585/585 587/587/587 588/588/588
f 589/589/589 590/590/590 591/591/591
f 589/589/589 591/591/591 592/592/592
f 593/593/593 594/594/594 595/595/595
f 593/593/593 595/595/595 596/596/596
f 597/597/597 598/598/598 599/599/599
f 597/597/597 599/599/599 600/600/600
f 601/601/601 602/602/602 603/603/603
f 601/601/601 603/603/603 604/604/604
f 605/605/605 606/606/606 607/607/607
f 605/605/605 607/607/607 608/608/608
f 609/609/609 610/610/610 611/611/611
f 609/609/609 611/611/611 612/612/612
f 613/613/613 614/614/614 615/615/615
f 613/613/613 615/615/615 616/616/616
f 617/617/617 618/618/618 619/619/619
f 617/617/617 619/619/619 620/620/620
f 621/621/621 622/622/622 623/623/623
f 621/621/621 623/623/623 624/624/624
f 625/625/625 626/626/626 627/627/627
f 625/625/625 627/627/627 628/628/628
f 629/629/629 630/630/630 631/631/631
f 629/629/629 631/631/631 632/632/632
f 633/633/633 634/634/634 635/635/635
f 633/633/633 635/635/635 636/636/636
f 637/637/637 638/638/638 639/639/639
f 637/637/637 639/639/639 640/640/640
f 641/641/641 642/642/642 643/643/643
f 641/641/641 643/643/643 644/644/644
f 645/645/645 646/646/646 647/647/647
f 645/645/645 647/647/647 648/648/648
f 649/649/649 650/650/650 651/651/651
f 649/649/649 651/651/651 652/652/652
f 653/653/653 654/654/654 655/655/655
f 653/653/653 655/655/655 656/656/656
f 657/657/657 658/658/658 659/659/659
f 657/657/657 659/659/659 660/660/660
f 661/661/661 662/662/662 663/663/663
f 661/661/661 663/663/663 664/664/664
f 665/665/665 666/666/666 667/667/667
f 665/665/665 667/667/667 668/668/668
f 669/669/669 670/670/670 671/671/671
f 669/669/669 671/671/671 672/672/672
f 673/673/673 674/674/674 675/675/675
f 673/673/673 675/675/675 676/676/676
f 677/677/677 678/678/678 679/679/679
f 677/677/677 679/679/679 680/680/680
f 681/681/681 682/682/682 683/683/683
f 681/681/681 683/683/683 684/684/684
f 685/685/685 686/686/686 687/687/687
f 685/685/685 687/687/687 688/688/688
f 689/689/689 690/690/690 691/691/691
f 689/689/689 691/691/691 692/692/692
f 693/693/693 694/694/694 695/695/695
f 693/693/693 695/695/695 696/696/696
f 697/697/697 698/698/698 699/699/699
f 697/697/697 699/699/699 700/700/700
f 701/701/701 702/702/702 703/703/703
f 701/701/701 703/703/703 704/704/704
f 705/705/705 706/706/706 707/707/707
f 705/705/705 707/707/707 708/708/708
f 709/709/709 710/710/710 711/711/711
f 709/709/709 711/711/711 712/712/712
f 713/713/713 714/714/714 715/715/715
f 713/713/713 715/715/715 716/716/716
f 717/717/717 718/718/718 719/719/719
f 717/717/717 719/719/719 720/720/720
f 721/721/721 722/722/722 723/723/723
f 721/721/721 723/723/723 724/724/724
f 725/725/725 726/726/726 727/727/727
f 725/725/725 727/727/727 728/728/728
f 729/729/729 730/730/730 731/731/731
f 729/729/729 731/731/731 732/732/732
f 733/733/733 734/734/734 735/735/735
f 733/733/733 735/735/735 736/736/736
f 737/737/737 738/738/738 739/739/739
f 737/737/737 739/739/739 740/740/740
f 741/741/741 742/742/742 743/743/743
f 741/741/741 743/743/743 744/744/744
f 745/745/745 746/746/746 747/747/747
f 745/745/745 747/747/747 748/748/748
f 749/749/749 750/750/750 751/751/751
f 749/749/749 751/751/751 752/752/752
f 753/753/753 754/754/754 755/755/755
f 753/753/753 755/755/755 756/756/756
f 757/757/757 758/758/758 759/759/759
f 757/757/757 759/759/759 760/760/760
f 761/761/761 762/762/762 763/763/763
f 761/761/761 763/763/763 764/764/764
f 765/765/765 766/766/766 767/767/767
f 765/765/765 767/767/767 768/768/768
f 769/769/769 770/770/770 771/771/771
f 769/769/769 771/771/771 772/772/772
f 773/773/773 774/774/774 775/775/775
f 773/773/773 775/775/775 776/776/776
f 777/777/777 778/778/778 779/779/779
f 777/777/777 779/779/779 780/780/780
f 781/781/781 782/782/782 783/783/783
f 781/781/781 783/783/783 784/784/784
f 785/785/785 786/786/786 787/787/787
f 785/785/785 787/787/787 788/788/788
f 789/789/789 790/790/790 791/791/791
f 789/789/789 791/791/791 792/792/792
f 793/793/793 794/794/794 795/795/795
f 793/793/793 795/795/795 796/796/796
f 797/797/797 798/798/798 799/799/799
f 797/797/797 799/799/799 800/800/800
f 801/801/801 802/802/802 803/803/803
f 801/801/801 803/803/803 804/804/804
f 805/805/805 806/806/806 807/807/807
f 805/805/805 807/807/807 808/808/808
f 809/809/809 810/810/810 811/811/811
f 809/809/809 811/811/811 812/812/812
f 813/813/813 814/814/814 815/815/815
f 813/813/813 815/815/815 816/816/816
f 817/817/817 818/818/818 819/819/819
f 817/817/817 819/819/819 820/820/820
f 821/821/821 822/822/822 823/823/823
f 821/821/821 823/823/823 824/824/824
f 825/825/825 826/826/826 827/827/827
f 825/825/825 827/827/827 828/828/828
f 829/829/829 830/830/830 831/831/831
f 829/829/829 831/831/831 832/832/832
f 833/833/833 834/834/834 835/835/835
f 833/833/833 835/835/835 836/836/836
f 837/837/837 838/838/838 839/839/839
f 837/837/837 839/839/839 840/840/840
