v 0.882794 -0.26454 -0.01273
v 0.882651 -0.264128 -0.015349
v 0.875692 -0.267413 -0.014461
v 0.876458 -0.267531 -0.011921
v 0.889229 -0.261835 -0.011722
v 0.889719 -0.261157 -0.014242
v 0.882651 -0.264128 -0.015349
v 0.882794 -0.26454 -0.01273
v 0.882865 -0.264542 -0.017212
v 0.882651 -0.264128 -0.015349
v 0.889719 -0.261157 -0.014242
v 0.890352 -0.261394 -0.01604
v 0.875493 -0.268022 -0.016271
v 0.875692 -0.267413 -0.014461
v 0.882651 -0.264128 -0.015349
v 0.882865 -0.264542 -0.017212
v 0.896414 -0.258702 -0.011217
v 0.897445 -0.258794 -0.012835
v 0.890352 -0.261394 -0.01604
v 0.889719 -0.261157 -0.014242
v 0.895325 -0.2596 -0.008967
v 0.896414 -0.258702 -0.011217
v 0.889719 -0.261157 -0.014242
v 0.889229 -0.261835 -0.011722
v 0.897445 -0.258794 -0.012835
v 0.898389 -0.260291 -0.013549
v 0.891187 -0.262931 -0.016803
v 0.890352 -0.261394 -0.01604
v 0.883584 -0.266127 -0.017994
v 0.882865 -0.264542 -0.017212
v 0.890352 -0.261394 -0.01604
v 0.891187 -0.262931 -0.016803
v 0.898389 -0.260291 -0.013549
v 0.90001 -0.264858 -0.013685
v 0.89298 -0.267435 -0.016862
v 0.891187 -0.262931 -0.016803
v 0.891187 -0.262931 -0.016803
v 0.89298 -0.267435 -0.016862
v 0.885559 -0.270555 -0.018024
v 0.883584 -0.266127 -0.017994
v 0.90001 -0.264858 -0.013685
v 0.9013 -0.272024 -0.011873
v 0.895044 -0.274317 -0.014701
v 0.89298 -0.267435 -0.016862
v 0.89298 -0.267435 -0.016862
v 0.895044 -0.274317 -0.014701
v 0.88844 -0.277094 -0.015734
v 0.885559 -0.270555 -0.018024
v 0.883584 -0.266127 -0.017994
v 0.885559 -0.270555 -0.018024
v 0.878253 -0.274004 -0.017091
v 0.876098 -0.269661 -0.017038
v 0.885559 -0.270555 -0.018024
v 0.88844 -0.277094 -0.015734
v 0.881938 -0.280163 -0.014905
v 0.878253 -0.274004 -0.017091
v 0.88844 -0.277094 -0.015734
v 0.890868 -0.28269 -0.011333
v 0.885619 -0.285168 -0.010663
v 0.881938 -0.280163 -0.014905
v 0.895044 -0.274317 -0.014701
v 0.8962 -0.280449 -0.010499
v 0.890868 -0.28269 -0.011333
v 0.88844 -0.277094 -0.015734
v 0.890868 -0.28269 -0.011333
v 0.892605 -0.286796 -0.005251
v 0.888934 -0.288529 -0.004783
v 0.885619 -0.285168 -0.010663
v 0.8962 -0.280449 -0.010499
v 0.896333 -0.285229 -0.004667
v 0.892605 -0.286796 -0.005251
v 0.890868 -0.28269 -0.011333
v 0.9013 -0.272024 -0.011873
v 0.90125 -0.278597 -0.008216
v 0.8962 -0.280449 -0.010499
v 0.895044 -0.274317 -0.014701
v 0.90125 -0.278597 -0.008216
v 0.899865 -0.283934 -0.003071
v 0.896333 -0.285229 -0.004667
v 0.8962 -0.280449 -0.010499
v 0.899865 -0.283934 -0.003071
v 0.89728 -0.287512 0.003057
v 0.895432 -0.288189 0.002222
v 0.896333 -0.285229 -0.004667
v 0.896333 -0.285229 -0.004667
v 0.895432 -0.288189 0.002222
v 0.89348 -0.28901 0.001917
v 0.892605 -0.286796 -0.005251
v 0.894129 -0.290742 0.009913
v 0.895432 -0.288189 0.002222
v 0.89728 -0.287512 0.003057
v 0.894129 -0.290742 0.009913
v 0.89348 -0.28901 0.001917
v 0.895432 -0.288189 0.002222
v 0.894129 -0.290742 0.009913
v 0.891559 -0.289917 0.002162
v 0.89348 -0.28901 0.001917
v 0.894129 -0.290742 0.009913
v 0.889799 -0.290849 0.002941
v 0.891559 -0.289917 0.002162
v 0.894129 -0.290742 0.009913
v 0.88832 -0.291742 0.004201
v 0.889799 -0.290849 0.002941
v 0.894129 -0.290742 0.009913
v 0.887223 -0.292536 0.005856
v 0.88832 -0.291742 0.004201
v 0.894129 -0.290742 0.009913
v 0.886582 -0.293176 0.007793
v 0.887223 -0.292536 0.005856
v 0.894129 -0.290742 0.009913
v 0.886442 -0.293619 0.009881
v 0.886582 -0.293176 0.007793
v 0.894129 -0.290742 0.009913
v 0.886811 -0.293835 0.011976
v 0.886442 -0.293619 0.009881
v 0.894129 -0.290742 0.009913
v 0.887665 -0.293809 0.013937
v 0.886811 -0.293835 0.011976
v 0.894129 -0.290742 0.009913
v 0.888945 -0.293542 0.015629
v 0.887665 -0.293809 0.013937
v 0.894129 -0.290742 0.009913
v 0.890565 -0.293053 0.016937
v 0.888945 -0.293542 0.015629
v 0.894129 -0.290742 0.009913
v 0.892413 -0.292376 0.017772
v 0.890565 -0.293053 0.016937
v 0.894129 -0.290742 0.009913
v 0.894364 -0.291555 0.018078
v 0.892413 -0.292376 0.017772
v 0.894129 -0.290742 0.009913
v 0.896285 -0.290648 0.017832
v 0.894364 -0.291555 0.018078
v 0.894129 -0.290742 0.009913
v 0.898046 -0.289716 0.017053
v 0.896285 -0.290648 0.017832
v 0.894129 -0.290742 0.009913
v 0.899525 -0.288823 0.015793
v 0.898046 -0.289716 0.017053
v 0.894129 -0.290742 0.009913
v 0.900622 -0.288029 0.014138
v 0.899525 -0.288823 0.015793
v 0.894129 -0.290742 0.009913
v 0.901263 -0.287389 0.012201
v 0.900622 -0.288029 0.014138
v 0.894129 -0.290742 0.009913
v 0.901403 -0.286946 0.010114
v 0.901263 -0.287389 0.012201
v 0.894129 -0.290742 0.009913
v 0.901034 -0.28673 0.008018
v 0.901403 -0.286946 0.010114
v 0.894129 -0.290742 0.009913
v 0.90018 -0.286756 0.006058
v 0.901034 -0.28673 0.008018
v 0.894129 -0.290742 0.009913
v 0.8989 -0.287023 0.004366
v 0.90018 -0.286756 0.006058
v 0.894129 -0.290742 0.009913
v 0.89728 -0.287512 0.003057
v 0.8989 -0.287023 0.004366
v 0.90296 -0.283 -0.000571
v 0.8989 -0.287023 0.004366
v 0.89728 -0.287512 0.003057
v 0.899865 -0.283934 -0.003071
v 0.905406 -0.28249 0.002662
v 0.90018 -0.286756 0.006058
v 0.8989 -0.287023 0.004366
v 0.90296 -0.283 -0.000571
v 0.905676 -0.277262 -0.004641
v 0.90296 -0.283 -0.000571
v 0.899865 -0.283934 -0.003071
v 0.90125 -0.278597 -0.008216
v 0.909174 -0.276533 -1.8e-05
v 0.905406 -0.28249 0.002662
v 0.90296 -0.283 -0.000571
v 0.905676 -0.277262 -0.004641
v 0.911507 -0.276461 0.005339
v 0.907038 -0.28244 0.006408
v 0.905406 -0.28249 0.002662
v 0.909174 -0.276533 -1.8e-05
v 0.907038 -0.28244 0.006408
v 0.901034 -0.28673 0.008018
v 0.90018 -0.286756 0.006058
v 0.905406 -0.28249 0.002662
v 0.912517 -0.27705 0.011064
v 0.907744 -0.282852 0.010412
v 0.907038 -0.28244 0.006408
v 0.911507 -0.276461 0.005339
v 0.907744 -0.282852 0.010412
v 0.901403 -0.286946 0.010114
v 0.901034 -0.28673 0.008018
v 0.907038 -0.28244 0.006408
v 0.912133 -0.278261 0.016768
v 0.907475 -0.283699 0.0144
v 0.907744 -0.282852 0.010412
v 0.912517 -0.27705 0.011064
v 0.907475 -0.283699 0.0144
v 0.901263 -0.287389 0.012201
v 0.901403 -0.286946 0.010114
v 0.907744 -0.282852 0.010412
v 0.910382 -0.280011 0.022062
v 0.906251 -0.284923 0.018102
v 0.907475 -0.283699 0.0144
v 0.912133 -0.278261 0.016768
v 0.906251 -0.284923 0.018102
v 0.900622 -0.288029 0.014138
v 0.901263 -0.287389 0.012201
v 0.907475 -0.283699 0.0144
v 0.907383 -0.28218 0.026584
v 0.904154 -0.286439 0.021264
v 0.906251 -0.284923 0.018102
v 0.910382 -0.280011 0.022062
v 0.904154 -0.286439 0.021264
v 0.899525 -0.288823 0.015793
v 0.900622 -0.288029 0.014138
v 0.906251 -0.284923 0.018102
v 0.903342 -0.284621 0.030027
v 0.901328 -0.288146 0.023672
v 0.904154 -0.286439 0.021264
v 0.907383 -0.28218 0.026584
v 0.901328 -0.288146 0.023672
v 0.898046 -0.289716 0.017053
v 0.899525 -0.288823 0.015793
v 0.904154 -0.286439 0.021264
v 0.898532 -0.287168 0.032156
v 0.897964 -0.289927 0.025161
v 0.901328 -0.288146 0.023672
v 0.903342 -0.284621 0.030027
v 0.897964 -0.289927 0.025161
v 0.896285 -0.290648 0.017832
v 0.898046 -0.289716 0.017053
v 0.901328 -0.288146 0.023672
v 0.893283 -0.289646 0.032826
v 0.894294 -0.29166 0.025629
v 0.897964 -0.289927 0.025161
v 0.898532 -0.287168 0.032156
v 0.894294 -0.29166 0.025629
v 0.894364 -0.291555 0.018078
v 0.896285 -0.290648 0.017832
v 0.897964 -0.289927 0.025161
v 0.887951 -0.291887 0.031991
v 0.890565 -0.293227 0.025046
v 0.894294 -0.29166 0.025629
v 0.893283 -0.289646 0.032826
v 0.890565 -0.293227 0.025046
v 0.892413 -0.292376 0.017772
v 0.894364 -0.291555 0.018078
v 0.894294 -0.29166 0.025629
v 0.882901 -0.293738 0.029709
v 0.887033 -0.294522 0.023449
v 0.890565 -0.293227 0.025046
v 0.887951 -0.291887 0.031991
v 0.887033 -0.294522 0.023449
v 0.890565 -0.293053 0.016937
v 0.892413 -0.292376 0.017772
v 0.890565 -0.293227 0.025046
v 0.878475 -0.295074 0.026134
v 0.883939 -0.295456 0.02095
v 0.887033 -0.294522 0.023449
v 0.882901 -0.293738 0.029709
v 0.883939 -0.295456 0.02095
v 0.888945 -0.293542 0.015629
v 0.890565 -0.293053 0.016937
v 0.887033 -0.294522 0.023449
v 0.874977 -0.295803 0.021511
v 0.881492 -0.295966 0.017717
v 0.883939 -0.295456 0.02095
v 0.878475 -0.295074 0.026134
v 0.881492 -0.295966 0.017717
v 0.887665 -0.293809 0.013937
v 0.888945 -0.293542 0.015629
v 0.883939 -0.295456 0.02095
v 0.872644 -0.295875 0.016154
v 0.87986 -0.296016 0.01397
v 0.881492 -0.295966 0.017717
v 0.874977 -0.295803 0.021511
v 0.87986 -0.296016 0.01397
v 0.886811 -0.293835 0.011976
v 0.887665 -0.293809 0.013937
v 0.881492 -0.295966 0.017717
v 0.871634 -0.295285 0.010428
v 0.879155 -0.295604 0.009967
v 0.87986 -0.296016 0.01397
v 0.872644 -0.295875 0.016154
v 0.879155 -0.295604 0.009967
v 0.886442 -0.293619 0.009881
v 0.886811 -0.293835 0.011976
v 0.87986 -0.296016 0.01397
v 0.872018 -0.294074 0.004724
v 0.879423 -0.294757 0.005978
v 0.879155 -0.295604 0.009967
v 0.871634 -0.295285 0.010428
v 0.879423 -0.294757 0.005978
v 0.886582 -0.293176 0.007793
v 0.886442 -0.293619 0.009881
v 0.879155 -0.295604 0.009967
v 0.873769 -0.292325 -0.000569
v 0.880648 -0.293534 0.002276
v 0.879423 -0.294757 0.005978
v 0.872018 -0.294074 0.004724
v 0.880648 -0.293534 0.002276
v 0.887223 -0.292536 0.005856
v 0.886582 -0.293176 0.007793
v 0.879423 -0.294757 0.005978
v 0.876768 -0.290156 -0.005091
v 0.882744 -0.292017 -0.000886
v 0.880648 -0.293534 0.002276
v 0.873769 -0.292325 -0.000569
v 0.882744 -0.292017 -0.000886
v 0.88832 -0.291742 0.004201
v 0.887223 -0.292536 0.005856
v 0.880648 -0.293534 0.002276
v 0.880809 -0.287715 -0.008534
v 0.885571 -0.29031 -0.003294
v 0.882744 -0.292017 -0.000886
v 0.876768 -0.290156 -0.005091
v 0.885571 -0.29031 -0.003294
v 0.889799 -0.290849 0.002941
v 0.88832 -0.291742 0.004201
v 0.882744 -0.292017 -0.000886
v 0.885619 -0.285168 -0.010663
v 0.888934 -0.288529 -0.004783
v 0.885571 -0.29031 -0.003294
v 0.880809 -0.287715 -0.008534
v 0.888934 -0.288529 -0.004783
v 0.891559 -0.289917 0.002162
v 0.889799 -0.290849 0.002941
v 0.885571 -0.29031 -0.003294
v 0.892605 -0.286796 -0.005251
v 0.89348 -0.28901 0.001917
v 0.891559 -0.289917 0.002162
v 0.888934 -0.288529 -0.004783
v 0.875981 -0.283317 -0.012268
v 0.880809 -0.287715 -0.008534
v 0.876768 -0.290156 -0.005091
v 0.870975 -0.286341 -0.008003
v 0.881938 -0.280163 -0.014905
v 0.885619 -0.285168 -0.010663
v 0.880809 -0.287715 -0.008534
v 0.875981 -0.283317 -0.012268
v 0.871559 -0.277548 -0.014128
v 0.875981 -0.283317 -0.012268
v 0.870975 -0.286341 -0.008003
v 0.865934 -0.280946 -0.009336
v 0.878253 -0.274004 -0.017091
v 0.881938 -0.280163 -0.014905
v 0.875981 -0.283317 -0.012268
v 0.871559 -0.277548 -0.014128
v 0.865934 -0.280946 -0.009336
v 0.870975 -0.286341 -0.008003
v 0.867261 -0.289028 -0.002402
v 0.861761 -0.283965 -0.003042
v 0.870975 -0.286341 -0.008003
v 0.876768 -0.290156 -0.005091
v 0.873769 -0.292325 -0.000569
v 0.867261 -0.289028 -0.002402
v 0.861761 -0.283965 -0.003042
v 0.867261 -0.289028 -0.002402
v 0.865093 -0.291195 0.004155
v 0.859324 -0.2864 0.004326
v 0.867261 -0.289028 -0.002402
v 0.873769 -0.292325 -0.000569
v 0.872018 -0.294074 0.004724
v 0.865093 -0.291195 0.004155
v 0.859324 -0.2864 0.004326
v 0.865093 -0.291195 0.004155
v 0.864617 -0.292695 0.01122
v 0.858789 -0.288086 0.012265
v 0.865093 -0.291195 0.004155
v 0.872018 -0.294074 0.004724
v 0.871634 -0.295285 0.010428
v 0.864617 -0.292695 0.01122
v 0.858789 -0.288086 0.012265
v 0.864617 -0.292695 0.01122
v 0.865867 -0.293425 0.018312
v 0.860194 -0.288906 0.020234
v 0.864617 -0.292695 0.01122
v 0.871634 -0.295285 0.010428
v 0.872644 -0.295875 0.016154
v 0.865867 -0.293425 0.018312
v 0.860194 -0.288906 0.020234
v 0.865867 -0.293425 0.018312
v 0.868757 -0.293336 0.024947
v 0.863441 -0.288806 0.02769
v 0.865867 -0.293425 0.018312
v 0.872644 -0.295875 0.016154
v 0.874977 -0.295803 0.021511
v 0.868757 -0.293336 0.024947
v 0.863441 -0.288806 0.02769
v 0.868757 -0.293336 0.024947
v 0.873091 -0.292433 0.030674
v 0.868311 -0.287792 0.034125
v 0.868757 -0.293336 0.024947
v 0.874977 -0.295803 0.021511
v 0.878475 -0.295074 0.026134
v 0.873091 -0.292433 0.030674
v 0.868311 -0.287792 0.034125
v 0.873091 -0.292433 0.030674
v 0.878572 -0.290779 0.035102
v 0.87447 -0.285933 0.0391
v 0.873091 -0.292433 0.030674
v 0.878475 -0.295074 0.026134
v 0.882901 -0.293738 0.029709
v 0.878572 -0.290779 0.035102
v 0.87447 -0.285933 0.0391
v 0.878572 -0.290779 0.035102
v 0.884828 -0.288485 0.037929
v 0.8815 -0.283356 0.042277
v 0.878572 -0.290779 0.035102
v 0.882901 -0.293738 0.029709
v 0.887951 -0.291887 0.031991
v 0.884828 -0.288485 0.037929
v 0.8815 -0.283356 0.042277
v 0.884828 -0.288485 0.037929
v 0.891432 -0.285709 0.038963
v 0.888921 -0.280236 0.043439
v 0.884828 -0.288485 0.037929
v 0.887951 -0.291887 0.031991
v 0.893283 -0.289646 0.032826
v 0.891432 -0.285709 0.038963
v 0.888921 -0.280236 0.043439
v 0.891432 -0.285709 0.038963
v 0.897934 -0.28264 0.038133
v 0.896227 -0.276787 0.042507
v 0.891432 -0.285709 0.038963
v 0.893283 -0.289646 0.032826
v 0.898532 -0.287168 0.032156
v 0.897934 -0.28264 0.038133
v 0.896227 -0.276787 0.042507
v 0.897934 -0.28264 0.038133
v 0.903891 -0.279486 0.035496
v 0.902921 -0.273243 0.039543
v 0.897934 -0.28264 0.038133
v 0.898532 -0.287168 0.032156
v 0.903342 -0.284621 0.030027
v 0.903891 -0.279486 0.035496
v 0.902921 -0.273243 0.039543
v 0.903891 -0.279486 0.035496
v 0.908897 -0.276462 0.031231
v 0.908546 -0.269845 0.034751
v 0.903891 -0.279486 0.035496
v 0.903342 -0.284621 0.030027
v 0.907383 -0.28218 0.026584
v 0.908897 -0.276462 0.031231
v 0.908546 -0.269845 0.034751
v 0.908897 -0.276462 0.031231
v 0.912611 -0.273775 0.02563
v 0.91272 -0.266826 0.028457
v 0.908897 -0.276462 0.031231
v 0.907383 -0.28218 0.026584
v 0.910382 -0.280011 0.022062
v 0.912611 -0.273775 0.02563
v 0.91272 -0.266826 0.028457
v 0.912611 -0.273775 0.02563
v 0.914779 -0.271608 0.019073
v 0.915157 -0.264391 0.021089
v 0.912611 -0.273775 0.02563
v 0.910382 -0.280011 0.022062
v 0.912133 -0.278261 0.016768
v 0.914779 -0.271608 0.019073
v 0.915157 -0.264391 0.021089
v 0.914779 -0.271608 0.019073
v 0.915255 -0.270108 0.012008
v 0.915691 -0.262706 0.01315
v 0.914779 -0.271608 0.019073
v 0.912133 -0.278261 0.016768
v 0.912517 -0.27705 0.011064
v 0.915255 -0.270108 0.012008
v 0.915691 -0.262706 0.01315
v 0.915255 -0.270108 0.012008
v 0.914005 -0.269378 0.004916
v 0.914287 -0.261885 0.005181
v 0.915255 -0.270108 0.012008
v 0.912517 -0.27705 0.011064
v 0.911507 -0.276461 0.005339
v 0.914005 -0.269378 0.004916
v 0.914287 -0.261885 0.005181
v 0.914005 -0.269378 0.004916
v 0.911115 -0.269467 -0.001719
v 0.911039 -0.261985 -0.002275
v 0.914005 -0.269378 0.004916
v 0.911507 -0.276461 0.005339
v 0.909174 -0.276533 -1.8e-05
v 0.911115 -0.269467 -0.001719
v 0.911039 -0.261985 -0.002275
v 0.911115 -0.269467 -0.001719
v 0.906781 -0.27037 -0.007446
v 0.906169 -0.262999 -0.00871
v 0.911115 -0.269467 -0.001719
v 0.909174 -0.276533 -1.8e-05
v 0.905676 -0.277262 -0.004641
v 0.906781 -0.27037 -0.007446
v 0.906169 -0.262999 -0.00871
v 0.906781 -0.27037 -0.007446
v 0.9013 -0.272024 -0.011873
v 0.90001 -0.264858 -0.013685
v 0.906781 -0.27037 -0.007446
v 0.905676 -0.277262 -0.004641
v 0.90125 -0.278597 -0.008216
v 0.9013 -0.272024 -0.011873
v 0.909689 -0.257347 -0.001858
v 0.911039 -0.261985 -0.002275
v 0.906169 -0.262999 -0.00871
v 0.9047 -0.258386 -0.008451
v 0.9047 -0.258386 -0.008451
v 0.906169 -0.262999 -0.00871
v 0.90001 -0.264858 -0.013685
v 0.898389 -0.260291 -0.013549
v 0.898389 -0.260291 -0.013549
v 0.897445 -0.258794 -0.012835
v 0.903659 -0.256919 -0.007815
v 0.9047 -0.258386 -0.008451
v 0.9047 -0.258386 -0.008451
v 0.903659 -0.256919 -0.007815
v 0.908573 -0.255895 -0.001322
v 0.909689 -0.257347 -0.001858
v 0.909689 -0.257347 -0.001858
v 0.908573 -0.255895 -0.001322
v 0.911849 -0.255794 0.006201
v 0.913016 -0.257244 0.005781
v 0.913016 -0.257244 0.005781
v 0.914287 -0.261885 0.005181
v 0.911039 -0.261985 -0.002275
v 0.909689 -0.257347 -0.001858
v 0.913016 -0.257244 0.005781
v 0.911849 -0.255794 0.006201
v 0.913266 -0.256622 0.014241
v 0.914455 -0.258085 0.013946
v 0.914455 -0.258085 0.013946
v 0.915691 -0.262706 0.01315
v 0.914287 -0.261885 0.005181
v 0.913016 -0.257244 0.005781
v 0.914455 -0.258085 0.013946
v 0.913266 -0.256622 0.014241
v 0.912727 -0.258323 0.022251
v 0.913908 -0.259812 0.02208
v 0.913908 -0.259812 0.02208
v 0.915157 -0.264391 0.021089
v 0.915691 -0.262706 0.01315
v 0.914455 -0.258085 0.013946
v 0.913908 -0.259812 0.02208
v 0.912727 -0.258323 0.022251
v 0.910268 -0.26078 0.029685
v 0.911411 -0.262307 0.029628
v 0.911411 -0.262307 0.029628
v 0.91272 -0.266826 0.028457
v 0.915157 -0.264391 0.021089
v 0.913908 -0.259812 0.02208
v 0.911411 -0.262307 0.029628
v 0.910268 -0.26078 0.029685
v 0.906058 -0.263826 0.036036
v 0.907135 -0.2654 0.036077
v 0.907135 -0.2654 0.036077
v 0.908546 -0.269845 0.034751
v 0.91272 -0.266826 0.028457
v 0.911411 -0.262307 0.029628
v 0.907135 -0.2654 0.036077
v 0.906058 -0.263826 0.036036
v 0.900382 -0.267254 0.040871
v 0.901372 -0.268881 0.040987
v 0.901372 -0.268881 0.040987
v 0.902921 -0.273243 0.039543
v 0.908546 -0.269845 0.034751
v 0.907135 -0.2654 0.036077
v 0.893628 -0.27083 0.04386
v 0.894514 -0.272512 0.044023
v 0.901372 -0.268881 0.040987
v 0.900382 -0.267254 0.040871
v 0.894514 -0.272512 0.044023
v 0.896227 -0.276787 0.042507
v 0.902921 -0.273243 0.039543
v 0.901372 -0.268881 0.040987
v 0.886256 -0.27431 0.044801
v 0.887028 -0.276046 0.044978
v 0.894514 -0.272512 0.044023
v 0.893628 -0.27083 0.04386
v 0.887028 -0.276046 0.044978
v 0.888921 -0.280236 0.043439
v 0.896227 -0.276787 0.042507
v 0.894514 -0.272512 0.044023
v 0.887028 -0.276046 0.044978
v 0.886256 -0.27431 0.044801
v 0.878769 -0.277457 0.043629
v 0.879425 -0.279242 0.043788
v 0.879425 -0.279242 0.043788
v 0.8815 -0.283356 0.042277
v 0.888921 -0.280236 0.043439
v 0.887028 -0.276046 0.044978
v 0.879425 -0.279242 0.043788
v 0.878769 -0.277457 0.043629
v 0.871676 -0.280058 0.040424
v 0.872223 -0.281882 0.040533
v 0.872223 -0.281882 0.040533
v 0.87447 -0.285933 0.0391
v 0.8815 -0.283356 0.042277
v 0.879425 -0.279242 0.043788
v 0.872223 -0.281882 0.040533
v 0.871676 -0.280058 0.040424
v 0.865462 -0.281933 0.035404
v 0.865912 -0.283787 0.035435
v 0.865912 -0.283787 0.035435
v 0.868311 -0.287792 0.034125
v 0.87447 -0.285933 0.0391
v 0.872223 -0.281882 0.040533
v 0.860549 -0.282956 0.028911
v 0.860923 -0.284826 0.028842
v 0.865912 -0.283787 0.035435
v 0.865462 -0.281933 0.035404
v 0.860923 -0.284826 0.028842
v 0.863441 -0.288806 0.02769
v 0.868311 -0.287792 0.034125
v 0.865912 -0.283787 0.035435
v 0.860923 -0.284826 0.028842
v 0.860549 -0.282956 0.028911
v 0.857272 -0.283057 0.021388
v 0.857596 -0.284929 0.021203
v 0.857596 -0.284929 0.021203
v 0.860194 -0.288906 0.020234
v 0.863441 -0.288806 0.02769
v 0.860923 -0.284826 0.028842
v 0.857596 -0.284929 0.021203
v 0.857272 -0.283057 0.021388
v 0.855855 -0.28223 0.013348
v 0.856157 -0.284088 0.013038
v 0.856157 -0.284088 0.013038
v 0.858789 -0.288086 0.012265
v 0.860194 -0.288906 0.020234
v 0.857596 -0.284929 0.021203
v 0.856394 -0.280529 0.005338
v 0.856704 -0.282361 0.004905
v 0.856157 -0.284088 0.013038
v 0.855855 -0.28223 0.013348
v 0.856704 -0.282361 0.004905
v 0.859324 -0.2864 0.004326
v 0.858789 -0.288086 0.012265
v 0.856157 -0.284088 0.013038
v 0.856704 -0.282361 0.004905
v 0.856394 -0.280529 0.005338
v 0.858853 -0.278072 -0.002096
v 0.859201 -0.279866 -0.002644
v 0.859201 -0.279866 -0.002644
v 0.861761 -0.283965 -0.003042
v 0.859324 -0.2864 0.004326
v 0.856704 -0.282361 0.004905
v 0.859201 -0.279866 -0.002644
v 0.858853 -0.278072 -0.002096
v 0.863063 -0.275026 -0.008447
v 0.863477 -0.276773 -0.009093
v 0.863477 -0.276773 -0.009093
v 0.865934 -0.280946 -0.009336
v 0.861761 -0.283965 -0.003042
v 0.859201 -0.279866 -0.002644
v 0.863477 -0.276773 -0.009093
v 0.863063 -0.275026 -0.008447
v 0.868739 -0.271598 -0.013282
v 0.86924 -0.273292 -0.014002
v 0.86924 -0.273292 -0.014002
v 0.871559 -0.277548 -0.014128
v 0.865934 -0.280946 -0.009336
v 0.863477 -0.276773 -0.009093
v 0.86924 -0.273292 -0.014002
v 0.868739 -0.271598 -0.013282
v 0.875493 -0.268022 -0.016271
v 0.876098 -0.269661 -0.017038
v 0.876098 -0.269661 -0.017038
v 0.878253 -0.274004 -0.017091
v 0.871559 -0.277548 -0.014128
v 0.86924 -0.273292 -0.014002
v 0.876098 -0.269661 -0.017038
v 0.875493 -0.268022 -0.016271
v 0.882865 -0.264542 -0.017212
v 0.883584 -0.266127 -0.017994
v 0.868739 -0.271598 -0.013282
v 0.869317 -0.270788 -0.011638
v 0.875692 -0.267413 -0.014461
v 0.875493 -0.268022 -0.016271
v 0.863063 -0.275026 -0.008447
v 0.86396 -0.274024 -0.007074
v 0.869317 -0.270788 -0.011638
v 0.868739 -0.271598 -0.013282
v 0.876458 -0.267531 -0.011921
v 0.875692 -0.267413 -0.014461
v 0.869317 -0.270788 -0.011638
v 0.870654 -0.270605 -0.009352
v 0.870654 -0.270605 -0.009352
v 0.869317 -0.270788 -0.011638
v 0.86396 -0.274024 -0.007074
v 0.865775 -0.273551 -0.005196
v 0.865775 -0.273551 -0.005196
v 0.86396 -0.274024 -0.007074
v 0.859985 -0.2769 -0.00108
v 0.862157 -0.276169 0.000262
v 0.862157 -0.276169 0.000262
v 0.859985 -0.2769 -0.00108
v 0.857664 -0.279219 0.005937
v 0.860043 -0.278281 0.006651
v 0.856394 -0.280529 0.005338
v 0.857664 -0.279219 0.005937
v 0.859985 -0.2769 -0.00108
v 0.858853 -0.278072 -0.002096
v 0.858853 -0.278072 -0.002096
v 0.859985 -0.2769 -0.00108
v 0.86396 -0.274024 -0.007074
v 0.863063 -0.275026 -0.008447
v 0.857664 -0.279219 0.005937
v 0.856394 -0.280529 0.005338
v 0.855855 -0.28223 0.013348
v 0.857155 -0.280824 0.013498
v 0.860043 -0.278281 0.006651
v 0.857664 -0.279219 0.005937
v 0.857155 -0.280824 0.013498
v 0.85958 -0.279742 0.013536
v 0.857272 -0.283057 0.021388
v 0.858493 -0.281605 0.021088
v 0.857155 -0.280824 0.013498
v 0.855855 -0.28223 0.013348
v 0.85958 -0.279742 0.013536
v 0.857155 -0.280824 0.013498
v 0.858493 -0.281605 0.021088
v 0.860798 -0.280454 0.020446
v 0.860798 -0.280454 0.020446
v 0.858493 -0.281605 0.021088
v 0.861586 -0.28151 0.028189
v 0.863614 -0.280367 0.026912
v 0.863614 -0.280367 0.026912
v 0.861586 -0.28151 0.028189
v 0.866224 -0.280544 0.034317
v 0.867837 -0.279488 0.032492
v 0.860549 -0.282956 0.028911
v 0.861586 -0.28151 0.028189
v 0.858493 -0.281605 0.021088
v 0.857272 -0.283057 0.021388
v 0.861586 -0.28151 0.028189
v 0.860549 -0.282956 0.028911
v 0.865462 -0.281933 0.035404
v 0.866224 -0.280544 0.034317
v 0.871676 -0.280058 0.040424
v 0.87209 -0.278774 0.039056
v 0.866224 -0.280544 0.034317
v 0.865462 -0.281933 0.035404
v 0.867837 -0.279488 0.032492
v 0.866224 -0.280544 0.034317
v 0.87209 -0.278774 0.039056
v 0.873178 -0.277876 0.036807
v 0.878769 -0.277457 0.043629
v 0.878785 -0.276319 0.042082
v 0.87209 -0.278774 0.039056
v 0.871676 -0.280058 0.040424
v 0.873178 -0.277876 0.036807
v 0.87209 -0.278774 0.039056
v 0.878785 -0.276319 0.042082
v 0.879274 -0.275641 0.039562
v 0.879274 -0.275641 0.039562
v 0.878785 -0.276319 0.042082
v 0.885853 -0.273348 0.043188
v 0.885709 -0.272936 0.040569
v 0.885709 -0.272936 0.040569
v 0.885853 -0.273348 0.043188
v 0.892811 -0.270063 0.0423
v 0.892045 -0.269945 0.039761
v 0.886256 -0.27431 0.044801
v 0.885853 -0.273348 0.043188
v 0.878785 -0.276319 0.042082
v 0.878769 -0.277457 0.043629
v 0.885853 -0.273348 0.043188
v 0.886256 -0.27431 0.044801
v 0.893628 -0.27083 0.04386
v 0.892811 -0.270063 0.0423
v 0.892811 -0.270063 0.0423
v 0.893628 -0.27083 0.04386
v 0.900382 -0.267254 0.040871
v 0.899186 -0.266688 0.039478
v 0.892045 -0.269945 0.039761
v 0.892811 -0.270063 0.0423
v 0.899186 -0.266688 0.039478
v 0.89785 -0.266871 0.037191
v 0.906058 -0.263826 0.036036
v 0.904544 -0.263452 0.034914
v 0.899186 -0.266688 0.039478
v 0.900382 -0.267254 0.040871
v 0.89785 -0.266871 0.037191
v 0.899186 -0.266688 0.039478
v 0.904544 -0.263452 0.034914
v 0.902728 -0.263925 0.033035
v 0.902728 -0.263925 0.033035
v 0.904544 -0.263452 0.034914
v 0.908518 -0.260576 0.028919
v 0.906347 -0.261307 0.027577
v 0.906347 -0.261307 0.027577
v 0.908518 -0.260576 0.028919
v 0.910839 -0.258257 0.021902
v 0.90846 -0.259195 0.021188
v 0.912727 -0.258323 0.022251
v 0.910839 -0.258257 0.021902
v 0.908518 -0.260576 0.028919
v 0.910268 -0.26078 0.029685
v 0.910268 -0.26078 0.029685
v 0.908518 -0.260576 0.028919
v 0.904544 -0.263452 0.034914
v 0.906058 -0.263826 0.036036
v 0.913266 -0.256622 0.014241
v 0.911348 -0.256652 0.014341
v 0.910839 -0.258257 0.021902
v 0.912727 -0.258323 0.022251
v 0.90846 -0.259195 0.021188
v 0.910839 -0.258257 0.021902
v 0.911348 -0.256652 0.014341
v 0.908924 -0.257734 0.014304
v 0.911849 -0.255794 0.006201
v 0.910011 -0.255871 0.006752
v 0.911348 -0.256652 0.014341
v 0.913266 -0.256622 0.014241
v 0.908924 -0.257734 0.014304
v 0.911348 -0.256652 0.014341
v 0.910011 -0.255871 0.006752
v 0.907706 -0.257022 0.007393
v 0.907706 -0.257022 0.007393
v 0.910011 -0.255871 0.006752
v 0.906918 -0.255966 -0.000349
v 0.904889 -0.257109 0.000928
v 0.904889 -0.257109 0.000928
v 0.906918 -0.255966 -0.000349
v 0.90228 -0.256932 -0.006478
v 0.900667 -0.257988 -0.004653
v 0.903659 -0.256919 -0.007815
v 0.90228 -0.256932 -0.006478
v 0.906918 -0.255966 -0.000349
v 0.908573 -0.255895 -0.001322
v 0.908573 -0.255895 -0.001322
v 0.906918 -0.255966 -0.000349
v 0.910011 -0.255871 0.006752
v 0.911849 -0.255794 0.006201
v 0.897445 -0.258794 -0.012835
v 0.896414 -0.258702 -0.011217
v 0.90228 -0.256932 -0.006478
v 0.903659 -0.256919 -0.007815
v 0.900667 -0.257988 -0.004653
v 0.90228 -0.256932 -0.006478
v 0.896414 -0.258702 -0.011217
v 0.895325 -0.2596 -0.008967
vn -0.404 0.9 0.1636
vn -0.406 0.9121 -0.0566
vn -0.4574 0.8879 -0.05
vn -0.404 0.9 0.1638
vn -0.404 0.9 0.1636
vn -0.3538 0.9341 -0.0483
vn -0.406 0.9121 -0.0566
vn -0.404 0.9 0.1636
vn -0.2979 0.6908 -0.6589
vn -0.406 0.9121 -0.0566
vn -0.3538 0.9341 -0.0483
vn -0.1137 0.7682 -0.63
vn -0.4792 0.6051 -0.6358
vn -0.4574 0.8879 -0.05
vn -0.406 0.9121 -0.0566
vn -0.2979 0.6908 -0.6589
vn -0.3042 0.9522 -0.026
vn 0.0609 0.8321 -0.5512
vn -0.1137 0.7682 -0.63
vn -0.3538 0.9341 -0.0483
vn -0.404 0.8999 0.164
vn -0.3042 0.9522 -0.026
vn -0.3538 0.9341 -0.0483
vn -0.404 0.9 0.1636
vn 0.0609 0.8321 -0.5512
vn 0.3897 0.3815 -0.8382
vn 0.1644 0.2989 -0.94
vn -0.1137 0.7682 -0.63
vn -0.0736 0.199 -0.9772
vn -0.2979 0.6908 -0.6589
vn -0.1137 0.7682 -0.63
vn 0.1644 0.2989 -0.94
vn 0.3897 0.3815 -0.8382
vn 0.5142 0.0451 -0.8565
vn 0.2995 -0.0336 -0.9535
vn 0.1644 0.2989 -0.94
vn 0.1644 0.2989 -0.94
vn 0.2995 -0.0336 -0.9535
vn 0.0729 -0.1289 -0.989
vn -0.0736 0.199 -0.9772
vn 0.5142 0.0451 -0.8565
vn 0.5687 -0.2519 -0.783
vn 0.3857 -0.319 -0.8657
vn 0.2995 -0.0336 -0.9535
vn 0.2995 -0.0336 -0.9535
vn 0.3857 -0.319 -0.8657
vn 0.1925 -0.4003 -0.896
vn 0.0729 -0.1289 -0.989
vn -0.0736 0.199 -0.9772
vn 0.0729 -0.1289 -0.989
vn -0.1503 -0.2342 -0.9605
vn -0.3078 0.0884 -0.9473
vn 0.0729 -0.1289 -0.989
vn 0.1925 -0.4003 -0.896
vn 0.0023 -0.4901 -0.8717
vn -0.1503 -0.2342 -0.9605
vn 0.1925 -0.4003 -0.896
vn 0.2932 -0.6325 -0.7169
vn 0.1542 -0.6981 -0.6992
vn 0.0023 -0.4901 -0.8717
vn 0.3857 -0.319 -0.8657
vn 0.4345 -0.5731 -0.6948
vn 0.2932 -0.6325 -0.7169
vn 0.1925 -0.4003 -0.896
vn 0.2932 -0.6325 -0.7169
vn 0.3658 -0.8037 -0.4694
vn 0.2911 -0.8389 -0.4599
vn 0.1542 -0.6981 -0.6992
vn 0.4345 -0.5731 -0.6948
vn 0.4416 -0.7718 -0.4575
vn 0.3658 -0.8037 -0.4694
vn 0.2932 -0.6325 -0.7169
vn 0.5687 -0.2519 -0.783
vn 0.5684 -0.524 -0.6343
vn 0.4345 -0.5731 -0.6948
vn 0.3857 -0.319 -0.8657
vn 0.5684 -0.524 -0.6343
vn 0.5134 -0.7455 -0.425
vn 0.4416 -0.7718 -0.4575
vn 0.4345 -0.5731 -0.6948
vn 0.5134 -0.7455 -0.425
vn 0.4475 -0.8562 -0.2582
vn 0.4221 -0.8655 -0.2697
vn 0.4416 -0.7718 -0.4575
vn 0.4416 -0.7718 -0.4575
vn 0.4221 -0.8655 -0.2697
vn 0.3954 -0.8767 -0.2739
vn 0.3658 -0.8037 -0.4694
vn 0.404 -0.9 -0.1639
vn 0.4221 -0.8655 -0.2697
vn 0.4475 -0.8562 -0.2582
vn 0.404 -0.9 -0.1639
vn 0.3954 -0.8767 -0.2739
vn 0.4221 -0.8655 -0.2697
vn 0.404 -0.9 -0.1639
vn 0.369 -0.8892 -0.2705
vn 0.3954 -0.8767 -0.2739
vn 0.404 -0.9 -0.1639
vn 0.3447 -0.902 -0.2598
vn 0.369 -0.8892 -0.2705
vn 0.404 -0.9 -0.1639
vn 0.3244 -0.9143 -0.2425
vn 0.3447 -0.902 -0.2598
vn 0.404 -0.9 -0.1639
vn 0.3093 -0.9252 -0.2197
vn 0.3244 -0.9143 -0.2425
vn 0.404 -0.9 -0.1639
vn 0.3004 -0.9341 -0.1931
vn 0.3093 -0.9252 -0.2197
vn 0.404 -0.9 -0.1639
vn 0.2985 -0.9401 -0.1644
vn 0.3004 -0.9341 -0.1931
vn 0.404 -0.9 -0.1639
vn 0.3036 -0.9431 -0.1357
vn 0.2985 -0.9401 -0.1644
vn 0.404 -0.9 -0.1639
vn 0.3154 -0.9427 -0.1086
vn 0.3036 -0.9431 -0.1357
vn 0.404 -0.9 -0.1639
vn 0.333 -0.9391 -0.0853
vn 0.3154 -0.9427 -0.1086
vn 0.404 -0.9 -0.1639
vn 0.3552 -0.9324 -0.0674
vn 0.333 -0.9391 -0.0853
vn 0.404 -0.9 -0.1639
vn 0.3807 -0.923 -0.0559
vn 0.3552 -0.9324 -0.0674
vn 0.404 -0.9 -0.1639
vn 0.4076 -0.9117 -0.0517
vn 0.3807 -0.923 -0.0559
vn 0.404 -0.9 -0.1639
vn 0.4339 -0.8993 -0.0551
vn 0.4076 -0.9117 -0.0517
vn 0.404 -0.9 -0.1639
vn 0.458 -0.8865 -0.0657
vn 0.4339 -0.8993 -0.0551
vn 0.404 -0.9 -0.1639
vn 0.4784 -0.8742 -0.0831
vn 0.458 -0.8865 -0.0657
vn 0.404 -0.9 -0.1639
vn 0.4935 -0.8633 -0.1059
vn 0.4784 -0.8742 -0.0831
vn 0.404 -0.9 -0.1639
vn 0.5023 -0.8545 -0.1325
vn 0.4935 -0.8633 -0.1059
vn 0.404 -0.9 -0.1639
vn 0.5043 -0.8484 -0.1612
vn 0.5023 -0.8545 -0.1325
vn 0.404 -0.9 -0.1639
vn 0.4992 -0.8454 -0.1901
vn 0.5043 -0.8484 -0.1612
vn 0.404 -0.9 -0.1639
vn 0.4875 -0.8457 -0.217
vn 0.4992 -0.8454 -0.1901
vn 0.404 -0.9 -0.1639
vn 0.4699 -0.8494 -0.2402
vn 0.4875 -0.8457 -0.217
vn 0.404 -0.9 -0.1639
vn 0.4475 -0.8562 -0.2582
vn 0.4699 -0.8494 -0.2402
vn 0.5764 -0.7265 -0.3741
vn 0.4699 -0.8494 -0.2402
vn 0.4475 -0.8562 -0.2582
vn 0.5134 -0.7455 -0.425
vn 0.6262 -0.7161 -0.3084
vn 0.4875 -0.8457 -0.217
vn 0.4699 -0.8494 -0.2402
vn 0.5764 -0.7265 -0.3741
vn 0.6856 -0.4887 -0.5396
vn 0.5764 -0.7265 -0.3741
vn 0.5134 -0.7455 -0.425
vn 0.5684 -0.524 -0.6343
vn 0.7783 -0.4693 -0.4171
vn 0.6262 -0.7161 -0.3084
vn 0.5764 -0.7265 -0.3741
vn 0.6856 -0.4887 -0.5396
vn 0.8401 -0.4674 -0.2752
vn 0.6593 -0.7151 -0.2323
vn 0.6262 -0.7161 -0.3084
vn 0.7783 -0.4693 -0.4171
vn 0.6593 -0.7151 -0.2323
vn 0.4992 -0.8454 -0.1901
vn 0.4875 -0.8457 -0.217
vn 0.6262 -0.7161 -0.3084
vn 0.8668 -0.483 -0.1235
vn 0.6737 -0.7235 -0.1508
vn 0.6593 -0.7151 -0.2323
vn 0.8401 -0.4674 -0.2752
vn 0.6737 -0.7235 -0.1508
vn 0.5043 -0.8484 -0.1612
vn 0.4992 -0.8454 -0.1901
vn 0.6593 -0.7151 -0.2323
vn 0.8567 -0.5151 0.0276
vn 0.6682 -0.7407 -0.0697
vn 0.6737 -0.7235 -0.1508
vn 0.8668 -0.483 -0.1235
vn 0.6682 -0.7407 -0.0697
vn 0.5023 -0.8545 -0.1325
vn 0.5043 -0.8484 -0.1612
vn 0.6737 -0.7235 -0.1508
vn 0.8103 -0.5615 0.1679
vn 0.6433 -0.7656 0.0056
vn 0.6682 -0.7407 -0.0697
vn 0.8567 -0.5151 0.0276
vn 0.6433 -0.7656 0.0056
vn 0.4935 -0.8633 -0.1059
vn 0.5023 -0.8545 -0.1325
vn 0.6682 -0.7407 -0.0697
vn 0.7308 -0.619 0.2877
vn 0.6006 -0.7964 0.07
vn 0.6433 -0.7656 0.0056
vn 0.8103 -0.5615 0.1679
vn 0.6006 -0.7964 0.07
vn 0.4784 -0.8742 -0.0831
vn 0.4935 -0.8633 -0.1059
vn 0.6433 -0.7656 0.0056
vn 0.6238 -0.6836 0.3789
vn 0.5432 -0.8312 0.1189
vn 0.6006 -0.7964 0.07
vn 0.7308 -0.619 0.2877
vn 0.5432 -0.8312 0.1189
vn 0.458 -0.8865 -0.0657
vn 0.4784 -0.8742 -0.0831
vn 0.6006 -0.7964 0.07
vn 0.4963 -0.7511 0.4353
vn 0.4748 -0.8674 0.1491
vn 0.5432 -0.8312 0.1189
vn 0.6238 -0.6836 0.3789
vn 0.4748 -0.8674 0.1491
vn 0.4339 -0.8993 -0.0551
vn 0.458 -0.8865 -0.0657
vn 0.5432 -0.8312 0.1189
vn 0.3572 -0.8168 0.453
vn 0.4001 -0.9026 0.1587
vn 0.4748 -0.8674 0.1491
vn 0.4963 -0.7511 0.4353
vn 0.4001 -0.9026 0.1587
vn 0.4076 -0.9117 -0.0517
vn 0.4339 -0.8993 -0.0551
vn 0.4748 -0.8674 0.1491
vn 0.216 -0.8762 0.4309
vn 0.3243 -0.9345 0.1469
vn 0.4001 -0.9026 0.1587
vn 0.3572 -0.8168 0.453
vn 0.3243 -0.9345 0.1469
vn 0.3807 -0.923 -0.0559
vn 0.4076 -0.9117 -0.0517
vn 0.4001 -0.9026 0.1587
vn 0.0822 -0.9252 0.3705
vn 0.2525 -0.9608 0.1144
vn 0.3243 -0.9345 0.1469
vn 0.216 -0.8762 0.4309
vn 0.2525 -0.9608 0.1144
vn 0.3552 -0.9324 -0.0674
vn 0.3807 -0.923 -0.0559
vn 0.3243 -0.9345 0.1469
vn -0.035 -0.9606 0.2758
vn 0.1896 -0.9798 0.0636
vn 0.2525 -0.9608 0.1144
vn 0.0822 -0.9252 0.3705
vn 0.1896 -0.9798 0.0636
vn 0.333 -0.9391 -0.0853
vn 0.3552 -0.9324 -0.0674
vn 0.2525 -0.9608 0.1144
vn -0.1277 -0.9799 0.1533
vn 0.1398 -0.9902 -0.0022
vn 0.1896 -0.9798 0.0636
vn -0.035 -0.9606 0.2758
vn 0.1398 -0.9902 -0.0022
vn 0.3154 -0.9427 -0.1086
vn 0.333 -0.9391 -0.0853
vn 0.1896 -0.9798 0.0636
vn -0.1896 -0.9818 0.0113
vn 0.1066 -0.9912 -0.0785
vn 0.1398 -0.9902 -0.0022
vn -0.1277 -0.9799 0.1533
vn 0.1066 -0.9912 -0.0785
vn 0.3036 -0.9431 -0.1357
vn 0.3154 -0.9427 -0.1086
vn 0.1398 -0.9902 -0.0022
vn -0.2163 -0.9662 -0.1404
vn 0.0922 -0.9828 -0.1599
vn 0.1066 -0.9912 -0.0785
vn -0.1896 -0.9818 0.0113
vn 0.0922 -0.9828 -0.1599
vn 0.2985 -0.9401 -0.1644
vn 0.3036 -0.9431 -0.1357
vn 0.1066 -0.9912 -0.0785
vn -0.2062 -0.9341 -0.2915
vn 0.0976 -0.9656 -0.2409
vn 0.0922 -0.9828 -0.1599
vn -0.2163 -0.9662 -0.1404
vn 0.0976 -0.9656 -0.2409
vn 0.3004 -0.9341 -0.1931
vn 0.2985 -0.9401 -0.1644
vn 0.0922 -0.9828 -0.1599
vn -0.1598 -0.8878 -0.4317
vn 0.1226 -0.9407 -0.3162
vn 0.0976 -0.9656 -0.2409
vn -0.2062 -0.9341 -0.2915
vn 0.1226 -0.9407 -0.3162
vn 0.3093 -0.9252 -0.2197
vn 0.3004 -0.9341 -0.1931
vn 0.0976 -0.9656 -0.2409
vn -0.0803 -0.8303 -0.5515
vn 0.1652 -0.9099 -0.3806
vn 0.1226 -0.9407 -0.3162
vn -0.1598 -0.8878 -0.4317
vn 0.1652 -0.9099 -0.3806
vn 0.3244 -0.9143 -0.2425
vn 0.3093 -0.9252 -0.2197
vn 0.1226 -0.9407 -0.3162
vn 0.0268 -0.7656 -0.6428
vn 0.2227 -0.8751 -0.4296
vn 0.1652 -0.9099 -0.3806
vn -0.0803 -0.8303 -0.5515
vn 0.2227 -0.8751 -0.4296
vn 0.3447 -0.902 -0.2598
vn 0.3244 -0.9143 -0.2425
vn 0.1652 -0.9099 -0.3806
vn 0.1542 -0.6981 -0.6992
vn 0.2911 -0.8389 -0.4599
vn 0.2227 -0.8751 -0.4296
vn 0.0268 -0.7656 -0.6428
vn 0.2911 -0.8389 -0.4599
vn 0.369 -0.8892 -0.2705
vn 0.3447 -0.902 -0.2598
vn 0.2227 -0.8751 -0.4296
vn 0.3658 -0.8037 -0.4694
vn 0.3954 -0.8767 -0.2739
vn 0.369 -0.8892 -0.2705
vn 0.2911 -0.8389 -0.4599
vn -0.172 -0.5823 -0.7945
vn 0.0268 -0.7656 -0.6428
vn -0.0803 -0.8303 -0.5515
vn -0.3185 -0.6708 -0.6698
vn 0.0023 -0.4901 -0.8717
vn 0.1542 -0.6981 -0.6992
vn 0.0268 -0.7656 -0.6428
vn -0.172 -0.5823 -0.7945
vn -0.3547 -0.3425 -0.87
vn -0.172 -0.5823 -0.7945
vn -0.3185 -0.6708 -0.6698
vn -0.5265 -0.4462 -0.7236
vn -0.1503 -0.2342 -0.9605
vn 0.0023 -0.4901 -0.8717
vn -0.172 -0.5823 -0.7945
vn -0.3547 -0.3425 -0.87
vn -0.5265 -0.4462 -0.7236
vn -0.3185 -0.6708 -0.6698
vn -0.4272 -0.7494 -0.5059
vn -0.654 -0.5385 -0.5314
vn -0.3185 -0.6708 -0.6698
vn -0.0803 -0.8303 -0.5515
vn -0.1598 -0.8878 -0.4317
vn -0.4272 -0.7494 -0.5059
vn -0.654 -0.5385 -0.5314
vn -0.4272 -0.7494 -0.5059
vn -0.4906 -0.8128 -0.3141
vn -0.7284 -0.6128 -0.3064
vn -0.4272 -0.7494 -0.5059
vn -0.1598 -0.8878 -0.4317
vn -0.2062 -0.9341 -0.2915
vn -0.4906 -0.8128 -0.3141
vn -0.7284 -0.6128 -0.3064
vn -0.4906 -0.8128 -0.3141
vn -0.5045 -0.8567 -0.1074
vn -0.7447 -0.6643 -0.0639
vn -0.4906 -0.8128 -0.3141
vn -0.2062 -0.9341 -0.2915
vn -0.2163 -0.9662 -0.1404
vn -0.5045 -0.8567 -0.1074
vn -0.7447 -0.6643 -0.0639
vn -0.5045 -0.8567 -0.1074
vn -0.468 -0.8781 0.1001
vn -0.7018 -0.6893 0.1795
vn -0.5045 -0.8567 -0.1074
vn -0.2163 -0.9662 -0.1404
vn -0.1896 -0.9818 0.0113
vn -0.468 -0.8781 0.1001
vn -0.7018 -0.6893 0.1795
vn -0.468 -0.8781 0.1001
vn -0.3834 -0.8755 0.2943
vn -0.6027 -0.6863 0.4072
vn -0.468 -0.8781 0.1001
vn -0.1896 -0.9818 0.0113
vn -0.1277 -0.9799 0.1533
vn -0.3834 -0.8755 0.2943
vn -0.6027 -0.6863 0.4072
vn -0.3834 -0.8755 0.2943
vn -0.2566 -0.8491 0.4618
vn -0.4539 -0.6553 0.6038
vn -0.3834 -0.8755 0.2943
vn -0.1277 -0.9799 0.1533
vn -0.035 -0.9606 0.2758
vn -0.2566 -0.8491 0.4618
vn -0.4539 -0.6553 0.6038
vn -0.2566 -0.8491 0.4618
vn -0.0962 -0.8006 0.5914
vn -0.2658 -0.5986 0.7557
vn -0.2566 -0.8491 0.4618
vn -0.035 -0.9606 0.2758
vn 0.0822 -0.9252 0.3705
vn -0.0962 -0.8006 0.5914
vn -0.2658 -0.5986 0.7557
vn -0.0962 -0.8006 0.5914
vn 0.0868 -0.7335 0.6741
vn -0.0511 -0.5199 0.8527
vn -0.0962 -0.8006 0.5914
vn 0.0822 -0.9252 0.3705
vn 0.216 -0.8762 0.4309
vn 0.0868 -0.7335 0.6741
vn -0.0511 -0.5199 0.8527
vn 0.0868 -0.7335 0.6741
vn 0.28 -0.6523 0.7043
vn 0.1755 -0.4246 0.8882
vn 0.0868 -0.7335 0.6741
vn 0.216 -0.8762 0.4309
vn 0.3572 -0.8168 0.453
vn 0.28 -0.6523 0.7043
vn 0.1755 -0.4246 0.8882
vn 0.28 -0.6523 0.7043
vn 0.4702 -0.5625 0.68
vn 0.3987 -0.3193 0.8597
vn 0.28 -0.6523 0.7043
vn 0.3572 -0.8168 0.453
vn 0.4963 -0.7511 0.4353
vn 0.4702 -0.5625 0.68
vn 0.3987 -0.3193 0.8597
vn 0.4702 -0.5625 0.68
vn 0.6445 -0.4702 0.6029
vn 0.6032 -0.211 0.7692
vn 0.4702 -0.5625 0.68
vn 0.4963 -0.7511 0.4353
vn 0.6238 -0.6836 0.3789
vn 0.6445 -0.4702 0.6029
vn 0.6032 -0.211 0.7692
vn 0.6445 -0.4702 0.6029
vn 0.791 -0.3818 0.4781
vn 0.7749 -0.1072 0.6229
vn 0.6445 -0.4702 0.6029
vn 0.6238 -0.6836 0.3789
vn 0.7308 -0.619 0.2877
vn 0.791 -0.3818 0.4781
vn 0.7749 -0.1072 0.6229
vn 0.791 -0.3818 0.4781
vn 0.8996 -0.3032 0.3142
vn 0.9024 -0.015 0.4306
vn 0.791 -0.3818 0.4781
vn 0.7308 -0.619 0.2877
vn 0.8103 -0.5615 0.1679
vn 0.8996 -0.3032 0.3142
vn 0.9024 -0.015 0.4306
vn 0.8996 -0.3032 0.3142
vn 0.9631 -0.2398 0.1224
vn 0.9768 0.0594 0.2056
vn 0.8996 -0.3032 0.3142
vn 0.8103 -0.5615 0.1679
vn 0.8567 -0.5151 0.0276
vn 0.9631 -0.2398 0.1224
vn 0.9768 0.0594 0.2056
vn 0.9631 -0.2398 0.1224
vn 0.977 -0.1959 -0.0843
vn 0.9932 0.1108 -0.0369
vn 0.9631 -0.2398 0.1224
vn 0.8567 -0.5151 0.0276
vn 0.8668 -0.483 -0.1235
vn 0.977 -0.1959 -0.0843
vn 0.9932 0.1108 -0.0369
vn 0.977 -0.1959 -0.0843
vn 0.9404 -0.1746 -0.2918
vn 0.9503 0.1359 -0.2802
vn 0.977 -0.1959 -0.0843
vn 0.8668 -0.483 -0.1235
vn 0.8401 -0.4674 -0.2752
vn 0.9404 -0.1746 -0.2918
vn 0.9503 0.1359 -0.2802
vn 0.9404 -0.1746 -0.2918
vn 0.8559 -0.1771 -0.4859
vn 0.8511 0.1328 -0.508
vn 0.9404 -0.1746 -0.2918
vn 0.8401 -0.4674 -0.2752
vn 0.7783 -0.4693 -0.4171
vn 0.8559 -0.1771 -0.4859
vn 0.8511 0.1328 -0.508
vn 0.8559 -0.1771 -0.4859
vn 0.7291 -0.2035 -0.6535
vn 0.7023 0.1018 -0.7045
vn 0.8559 -0.1771 -0.4859
vn 0.7783 -0.4693 -0.4171
vn 0.6856 -0.4887 -0.5396
vn 0.7291 -0.2035 -0.6535
vn 0.7023 0.1018 -0.7045
vn 0.7291 -0.2035 -0.6535
vn 0.5687 -0.2519 -0.783
vn 0.5142 0.0451 -0.8565
vn 0.7291 -0.2035 -0.6535
vn 0.6856 -0.4887 -0.5396
vn 0.5684 -0.524 -0.6343
vn 0.5687 -0.2519 -0.783
vn 0.7433 0.4737 -0.4724
vn 0.8511 0.1328 -0.508
vn 0.7023 0.1018 -0.7045
vn 0.5872 0.4412 -0.6786
vn 0.5872 0.4412 -0.6786
vn 0.7023 0.1018 -0.7045
vn 0.5142 0.0451 -0.8565
vn 0.3897 0.3815 -0.8382
vn 0.3897 0.3815 -0.8382
vn 0.0609 0.8321 -0.5512
vn 0.2137 0.8783 -0.4277
vn 0.5872 0.4412 -0.6786
vn 0.5872 0.4412 -0.6786
vn 0.2137 0.8783 -0.4277
vn 0.3345 0.9035 -0.268
vn 0.7433 0.4737 -0.4724
vn 0.7433 0.4737 -0.4724
vn 0.3345 0.9035 -0.268
vn 0.4151 0.906 -0.0829
vn 0.8474 0.4769 -0.2333
vn 0.8474 0.4769 -0.2333
vn 0.9503 0.1359 -0.2802
vn 0.8511 0.1328 -0.508
vn 0.7433 0.4737 -0.4724
vn 0.8474 0.4769 -0.2333
vn 0.4151 0.906 -0.0829
vn 0.45 0.8856 0.1149
vn 0.8924 0.4506 0.0222
vn 0.8924 0.4506 0.0222
vn 0.9932 0.1108 -0.0369
vn 0.9503 0.1359 -0.2802
vn 0.8474 0.4769 -0.2333
vn 0.8924 0.4506 0.0222
vn 0.45 0.8856 0.1149
vn 0.4368 0.8437 0.3119
vn 0.8753 0.3967 0.2767
vn 0.8753 0.3967 0.2767
vn 0.9768 0.0594 0.2056
vn 0.9932 0.1108 -0.0369
vn 0.8924 0.4506 0.0222
vn 0.8753 0.3967 0.2767
vn 0.4368 0.8437 0.3119
vn 0.3763 0.7833 0.4948
vn 0.7972 0.3185 0.5129
vn 0.7972 0.3185 0.5129
vn 0.9024 -0.015 0.4306
vn 0.9768 0.0594 0.2056
vn 0.8753 0.3967 0.2767
vn 0.7972 0.3185 0.5129
vn 0.3763 0.7833 0.4948
vn 0.2728 0.7083 0.651
vn 0.6634 0.2217 0.7147
vn 0.6634 0.2217 0.7147
vn 0.7749 -0.1072 0.6229
vn 0.9024 -0.015 0.4306
vn 0.7972 0.3185 0.5129
vn 0.6634 0.2217 0.7147
vn 0.2728 0.7083 0.651
vn 0.133 0.6241 0.77
vn 0.4831 0.1128 0.8683
vn 0.4831 0.1128 0.8683
vn 0.6032 -0.211 0.7692
vn 0.7749 -0.1072 0.6229
vn 0.6634 0.2217 0.7147
vn -0.0331 0.5361 0.8435
vn 0.2684 -0.0007 0.9633
vn 0.4831 0.1128 0.8683
vn 0.133 0.6241 0.77
vn 0.2684 -0.0007 0.9633
vn 0.3987 -0.3193 0.8597
vn 0.6032 -0.211 0.7692
vn 0.4831 0.1128 0.8683
vn -0.2144 0.4505 0.8666
vn 0.0342 -0.1113 0.9932
vn 0.2684 -0.0007 0.9633
vn -0.0331 0.5361 0.8435
vn 0.0342 -0.1113 0.9932
vn 0.1755 -0.4246 0.8882
vn 0.3987 -0.3193 0.8597
vn 0.2684 -0.0007 0.9633
vn 0.0342 -0.1113 0.9932
vn -0.2144 0.4505 0.8666
vn -0.3986 0.3731 0.8378
vn -0.2037 -0.2114 0.9559
vn -0.2037 -0.2114 0.9559
vn -0.0511 -0.5199 0.8527
vn 0.1755 -0.4246 0.8882
vn 0.0342 -0.1113 0.9932
vn -0.2037 -0.2114 0.9559
vn -0.3986 0.3731 0.8378
vn -0.5731 0.309 0.759
vn -0.429 -0.2941 0.8541
vn -0.429 -0.2941 0.8541
vn -0.2658 -0.5986 0.7557
vn -0.0511 -0.5199 0.8527
vn -0.2037 -0.2114 0.9559
vn -0.429 -0.2941 0.8541
vn -0.5731 0.309 0.759
vn -0.726 0.2629 0.6355
vn -0.6265 -0.3536 0.6946
vn -0.6265 -0.3536 0.6946
vn -0.4539 -0.6553 0.6038
vn -0.2658 -0.5986 0.7557
vn -0.429 -0.2941 0.8541
vn -0.8468 0.2378 0.4758
vn -0.7826 -0.3861 0.4883
vn -0.6265 -0.3536 0.6946
vn -0.726 0.2629 0.6355
vn -0.7826 -0.3861 0.4883
vn -0.6027 -0.6863 0.4072
vn -0.4539 -0.6553 0.6038
vn -0.6265 -0.3536 0.6946
vn -0.7826 -0.3861 0.4883
vn -0.8468 0.2378 0.4758
vn -0.9275 0.2352 0.2907
vn -0.8867 -0.3893 0.2493
vn -0.8867 -0.3893 0.2493
vn -0.7018 -0.6893 0.1795
vn -0.6027 -0.6863 0.4072
vn -0.7826 -0.3861 0.4883
vn -0.8867 -0.3893 0.2493
vn -0.9275 0.2352 0.2907
vn -0.9623 0.2555 0.0929
vn -0.9318 -0.363 -0.0062
vn -0.9318 -0.363 -0.0062
vn -0.7447 -0.6643 -0.0639
vn -0.7018 -0.6893 0.1795
vn -0.8867 -0.3893 0.2493
vn -0.949 0.2975 -0.1041
vn -0.9146 -0.309 -0.2607
vn -0.9318 -0.363 -0.0062
vn -0.9623 0.2555 0.0929
vn -0.9146 -0.309 -0.2607
vn -0.7284 -0.6128 -0.3064
vn -0.7447 -0.6643 -0.0639
vn -0.9318 -0.363 -0.0062
vn -0.9146 -0.309 -0.2607
vn -0.949 0.2975 -0.1041
vn -0.8885 0.3579 -0.287
vn -0.8365 -0.231 -0.4969
vn -0.8365 -0.231 -0.4969
vn -0.654 -0.5385 -0.5314
vn -0.7284 -0.6128 -0.3064
vn -0.9146 -0.309 -0.2607
vn -0.8365 -0.231 -0.4969
vn -0.8885 0.3579 -0.287
vn -0.785 0.4328 -0.4433
vn -0.7027 -0.1342 -0.6988
vn -0.7027 -0.1342 -0.6988
vn -0.5265 -0.4462 -0.7236
vn -0.654 -0.5385 -0.5314
vn -0.8365 -0.231 -0.4969
vn -0.7027 -0.1342 -0.6988
vn -0.785 0.4328 -0.4433
vn -0.6453 0.5171 -0.5623
vn -0.5223 -0.0253 -0.8524
vn -0.5223 -0.0253 -0.8524
vn -0.3547 -0.3425 -0.87
vn -0.5265 -0.4462 -0.7236
vn -0.7027 -0.1342 -0.6988
vn -0.5223 -0.0253 -0.8524
vn -0.6453 0.5171 -0.5623
vn -0.4792 0.6051 -0.6358
vn -0.3078 0.0884 -0.9473
vn -0.3078 0.0884 -0.9473
vn -0.1503 -0.2342 -0.9605
vn -0.3547 -0.3425 -0.87
vn -0.5223 -0.0253 -0.8524
vn -0.3078 0.0884 -0.9473
vn -0.4792 0.6051 -0.6358
vn -0.2979 0.6908 -0.6589
vn -0.0736 0.199 -0.9772
vn -0.6453 0.5171 -0.5623
vn -0.5045 0.8629 -0.029
vn -0.4574 0.8879 -0.05
vn -0.4792 0.6051 -0.6358
vn -0.785 0.4328 -0.4433
vn -0.5441 0.839 0.0048
vn -0.5045 0.8629 -0.029
vn -0.6453 0.5171 -0.5623
vn -0.404 0.9 0.1638
vn -0.4574 0.8879 -0.05
vn -0.5045 0.8629 -0.029
vn -0.4039 0.9 0.1639
vn -0.4039 0.9 0.1639
vn -0.5045 0.8629 -0.029
vn -0.5441 0.839 0.0048
vn -0.404 0.9 0.1639
vn -0.404 0.9 0.1639
vn -0.5441 0.839 0.0048
vn -0.5735 0.8177 0.049
vn -0.4041 0.8999 0.1638
vn -0.4041 0.8999 0.1638
vn -0.5735 0.8177 0.049
vn -0.5907 0.8006 0.1008
vn -0.4041 0.8999 0.1638
vn -0.949 0.2975 -0.1041
vn -0.5907 0.8006 0.1008
vn -0.5735 0.8177 0.049
vn -0.8885 0.3579 -0.287
vn -0.8885 0.3579 -0.287
vn -0.5735 0.8177 0.049
vn -0.5441 0.839 0.0048
vn -0.785 0.4328 -0.4433
vn -0.5907 0.8006 0.1008
vn -0.949 0.2975 -0.1041
vn -0.9623 0.2555 0.0929
vn -0.5945 0.7887 0.1567
vn -0.4041 0.8999 0.1638
vn -0.5907 0.8006 0.1008
vn -0.5945 0.7887 0.1567
vn -0.404 0.9 0.1638
vn -0.9275 0.2352 0.2907
vn -0.5845 0.7829 0.2129
vn -0.5945 0.7887 0.1567
vn -0.9623 0.2555 0.0929
vn -0.404 0.9 0.1638
vn -0.5945 0.7887 0.1567
vn -0.5845 0.7829 0.2129
vn -0.4039 0.9 0.1639
vn -0.4039 0.9 0.1639
vn -0.5845 0.7829 0.2129
vn -0.5616 0.7837 0.2653
vn -0.4039 0.9 0.1639
vn -0.4039 0.9 0.1639
vn -0.5616 0.7837 0.2653
vn -0.5273 0.7909 0.3106
vn -0.4039 0.9 0.1639
vn -0.8468 0.2378 0.4758
vn -0.5616 0.7837 0.2653
vn -0.5845 0.7829 0.2129
vn -0.9275 0.2352 0.2907
vn -0.5616 0.7837 0.2653
vn -0.8468 0.2378 0.4758
vn -0.726 0.2629 0.6355
vn -0.5273 0.7909 0.3106
vn -0.5731 0.309 0.759
vn -0.484 0.8039 0.3456
vn -0.5273 0.7909 0.3106
vn -0.726 0.2629 0.6355
vn -0.4039 0.9 0.1639
vn -0.5273 0.7909 0.3106
vn -0.484 0.8039 0.3456
vn -0.404 0.9 0.1638
vn -0.3986 0.3731 0.8378
vn -0.4345 0.8221 0.368
vn -0.484 0.8039 0.3456
vn -0.5731 0.309 0.759
vn -0.404 0.9 0.1638
vn -0.484 0.8039 0.3456
vn -0.4345 0.8221 0.368
vn -0.404 0.9 0.1638
vn -0.404 0.9 0.1638
vn -0.4345 0.8221 0.368
vn -0.3823 0.844 0.3762
vn -0.404 0.9 0.1638
vn -0.404 0.9 0.1638
vn -0.3823 0.844 0.3762
vn -0.3309 0.8683 0.3696
vn -0.404 0.9 0.1638
vn -0.2144 0.4505 0.8666
vn -0.3823 0.844 0.3762
vn -0.4345 0.8221 0.368
vn -0.3986 0.3731 0.8378
vn -0.3823 0.844 0.3762
vn -0.2144 0.4505 0.8666
vn -0.0331 0.5361 0.8435
vn -0.3309 0.8683 0.3696
vn -0.3309 0.8683 0.3696
vn -0.0331 0.5361 0.8435
vn 0.133 0.6241 0.77
vn -0.2838 0.8932 0.3488
vn -0.404 0.9 0.1638
vn -0.3309 0.8683 0.3696
vn -0.2838 0.8932 0.3488
vn -0.404 0.9 0.1639
vn 0.2728 0.7083 0.651
vn -0.2442 0.9171 0.315
vn -0.2838 0.8932 0.3488
vn 0.133 0.6241 0.77
vn -0.404 0.9 0.1639
vn -0.2838 0.8932 0.3488
vn -0.2442 0.9171 0.315
vn -0.404 0.9 0.1638
vn -0.404 0.9 0.1638
vn -0.2442 0.9171 0.315
vn -0.2147 0.9384 0.2707
vn -0.4041 0.8999 0.1638
vn -0.4041 0.8999 0.1638
vn -0.2147 0.9384 0.2707
vn -0.1976 0.9555 0.2189
vn -0.4041 0.8999 0.1638
vn 0.4368 0.8437 0.3119
vn -0.1976 0.9555 0.2189
vn -0.2147 0.9384 0.2707
vn 0.3763 0.7833 0.4948
vn 0.3763 0.7833 0.4948
vn -0.2147 0.9384 0.2707
vn -0.2442 0.9171 0.315
vn 0.2728 0.7083 0.651
vn 0.45 0.8856 0.1149
vn -0.1939 0.9674 0.163
vn -0.1976 0.9555 0.2189
vn 0.4368 0.8437 0.3119
vn -0.4041 0.8999 0.1638
vn -0.1976 0.9555 0.2189
vn -0.1939 0.9674 0.163
vn -0.4041 0.8999 0.1638
vn 0.4151 0.906 -0.0829
vn -0.2039 0.9731 0.1069
vn -0.1939 0.9674 0.163
vn 0.45 0.8856 0.1149
vn -0.4041 0.8999 0.1638
vn -0.1939 0.9674 0.163
vn -0.2039 0.9731 0.1069
vn -0.4039 0.9 0.1639
vn -0.4039 0.9 0.1639
vn -0.2039 0.9731 0.1069
vn -0.2267 0.9725 0.0544
vn -0.4039 0.9 0.1638
vn -0.4039 0.9 0.1638
vn -0.2267 0.9725 0.0544
vn -0.2609 0.9653 0.0091
vn -0.4039 0.9 0.1638
vn 0.2137 0.8783 -0.4277
vn -0.2609 0.9653 0.0091
vn -0.2267 0.9725 0.0544
vn 0.3345 0.9035 -0.268
vn 0.3345 0.9035 -0.268
vn -0.2267 0.9725 0.0544
vn -0.2039 0.9731 0.1069
vn 0.4151 0.906 -0.0829
vn 0.0609 0.8321 -0.5512
vn -0.3042 0.9522 -0.026
vn -0.2609 0.9653 0.0091
vn 0.2137 0.8783 -0.4277
vn -0.4039 0.9 0.1638
vn -0.2609 0.9653 0.0091
vn -0.3042 0.9522 -0.026
vn -0.404 0.8999 0.164
vt 1.24958 0.195781
vt 1.24813 0.194623
vt 1.25073 0.190297
vt 1.25258 0.191086
vt 1.24569 0.199695
vt 1.24455 0.198135
vt 1.24813 0.194623
vt 1.24958 0.195781
vt 1.24718 0.193886
vt 1.24813 0.194623
vt 1.24455 0.198135
vt 1.24381 0.197181
vt 1.24958 0.189813
vt 1.25073 0.190297
vt 1.24813 0.194623
vt 1.24718 0.193886
vt 1.2401 0.200614
vt 1.23965 0.199492
vt 1.24381 0.197181
vt 1.24455 0.198135
vt 1.24082 0.202501
vt 1.2401 0.200614
vt 1.24455 0.198135
vt 1.24569 0.199695
vt 1.23965 0.199492
vt 1.23925 0.198477
vt 1.24316 0.196312
vt 1.24381 0.197181
vt 1.24632 0.193215
vt 1.24718 0.193886
vt 1.24381 0.197181
vt 1.24316 0.196312
vt 1.23925 0.198477
vt 1.23837 0.196186
vt 1.24167 0.194312
vt 1.24316 0.196312
vt 1.24316 0.196312
vt 1.24167 0.194312
vt 1.24439 0.191702
vt 1.24632 0.193215
vt 1.23837 0.196186
vt 1.23715 0.193128
vt 1.2397 0.191726
vt 1.24167 0.194312
vt 1.24167 0.194312
vt 1.2397 0.191726
vt 1.24182 0.1897
vt 1.24439 0.191702
vt 1.24632 0.193215
vt 1.24439 0.191702
vt 1.24633 0.188448
vt 1.24859 0.189393
vt 1.24439 0.191702
vt 1.24182 0.1897
vt 1.24334 0.187182
vt 1.24633 0.188448
vt 1.24182 0.1897
vt 1.23952 0.187914
vt 1.24064 0.186055
vt 1.24334 0.187182
vt 1.2397 0.191726
vt 1.23796 0.189412
vt 1.23952 0.187914
vt 1.24182 0.1897
vt 1.23952 0.187914
vt 1.2374 0.186211
vt 1.23814 0.184963
vt 1.24064 0.186055
vt 1.23796 0.189412
vt 1.23636 0.187223
vt 1.2374 0.186211
vt 1.23952 0.187914
vt 1.23715 0.193128
vt 1.23608 0.190447
vt 1.23796 0.189412
vt 1.2397 0.191726
vt 1.23608 0.190447
vt 1.23509 0.187932
vt 1.23636 0.187223
vt 1.23796 0.189412
vt 1.23509 0.187932
vt 1.2341 0.185458
vt 1.23476 0.185089
vt 1.23636 0.187223
vt 1.23636 0.187223
vt 1.23476 0.185089
vt 1.2353 0.184562
vt 1.2374 0.186211
vt 1.23303 0.182774
vt 1.23476 0.185089
vt 1.2341 0.185458
vt 1.23303 0.182774
vt 1.2353 0.184562
vt 1.23476 0.185089
vt 1.23303 0.182774
vt 1.23569 0.183912
vt 1.2353 0.184562
vt 1.23303 0.182774
vt 1.23589 0.183185
vt 1.23569 0.183912
vt 1.23303 0.182774
vt 1.2359 0.182431
vt 1.23589 0.183185
vt 1.23303 0.182774
vt 1.23571 0.181699
vt 1.2359 0.182431
vt 1.23303 0.182774
vt 1.23534 0.181041
vt 1.23571 0.181699
vt 1.23303 0.182774
vt 1.23482 0.180502
vt 1.23534 0.181041
vt 1.23303 0.182774
vt 1.23417 0.180119
vt 1.23482 0.180502
vt 1.23303 0.182774
vt 1.23344 0.179917
vt 1.23417 0.180119
vt 1.23303 0.182774
vt 1.23269 0.17991
vt 1.23344 0.179917
vt 1.23303 0.182774
vt 1.23196 0.180096
vt 1.23269 0.17991
vt 1.23303 0.182774
vt 1.2313 0.180465
vt 1.23196 0.180096
vt 1.23303 0.182774
vt 1.23076 0.180991
vt 1.2313 0.180465
vt 1.23303 0.182774
vt 1.23038 0.181638
vt 1.23076 0.180991
vt 1.23303 0.182774
vt 1.23018 0.182362
vt 1.23038 0.181638
vt 1.23303 0.182774
vt 1.23017 0.183114
vt 1.23018 0.182362
vt 1.23303 0.182774
vt 1.23035 0.183844
vt 1.23017 0.183114
vt 1.23303 0.182774
vt 1.23072 0.184502
vt 1.23035 0.183844
vt 1.23303 0.182774
vt 1.23124 0.185044
vt 1.23072 0.184502
vt 1.23303 0.182774
vt 1.23189 0.185429
vt 1.23124 0.185044
vt 1.23303 0.182774
vt 1.23262 0.185634
vt 1.23189 0.185429
vt 1.23303 0.182774
vt 1.23337 0.185643
vt 1.23262 0.185634
vt 1.23303 0.182774
vt 1.2341 0.185458
vt 1.23337 0.185643
vt 1.23369 0.188291
vt 1.23337 0.185643
vt 1.2341 0.185458
vt 1.23509 0.187932
vt 1.23223 0.188275
vt 1.23262 0.185634
vt 1.23337 0.185643
vt 1.23369 0.188291
vt 1.23399 0.191003
vt 1.23369 0.188291
vt 1.23509 0.187932
vt 1.23608 0.190447
vt 1.23183 0.190957
vt 1.23223 0.188275
vt 1.23369 0.188291
vt 1.23399 0.191003
vt 1.22976 0.190362
vt 1.23084 0.187872
vt 1.23223 0.188275
vt 1.23183 0.190957
vt 1.23084 0.187872
vt 1.23189 0.185429
vt 1.23262 0.185634
vt 1.23223 0.188275
vt 1.22792 0.189254
vt 1.22959 0.187136
vt 1.23084 0.187872
vt 1.22976 0.190362
vt 1.22959 0.187136
vt 1.23124 0.185044
vt 1.23189 0.185429
vt 1.23084 0.187872
vt 1.2264 0.187727
vt 1.22858 0.186093
vt 1.22959 0.187136
vt 1.22792 0.189254
vt 1.22858 0.186093
vt 1.23072 0.184502
vt 1.23124 0.185044
vt 1.22959 0.187136
vt 1.22536 0.185828
vt 1.22788 0.184825
vt 1.22858 0.186093
vt 1.2264 0.187727
vt 1.22788 0.184825
vt 1.23035 0.183844
vt 1.23072 0.184502
vt 1.22858 0.186093
vt 1.22484 0.183735
vt 1.22753 0.183423
vt 1.22788 0.184825
vt 1.22536 0.185828
vt 1.22753 0.183423
vt 1.23017 0.183114
vt 1.23035 0.183844
vt 1.22788 0.184825
vt 1.22488 0.181584
vt 1.22755 0.181982
vt 1.22753 0.183423
vt 1.22484 0.183735
vt 1.22755 0.181982
vt 1.23018 0.182362
vt 1.23017 0.183114
vt 1.22753 0.183423
vt 1.22547 0.179532
vt 1.22794 0.18059
vt 1.22755 0.181982
vt 1.22488 0.181584
vt 1.22794 0.18059
vt 1.23038 0.181638
vt 1.23018 0.182362
vt 1.22755 0.181982
vt 1.22655 0.177692
vt 1.22868 0.179348
vt 1.22794 0.18059
vt 1.22547 0.179532
vt 1.22868 0.179348
vt 1.23076 0.180991
vt 1.23038 0.181638
vt 1.22794 0.18059
vt 1.22808 0.176194
vt 1.22971 0.17834
vt 1.22868 0.179348
vt 1.22655 0.177692
vt 1.22971 0.17834
vt 1.2313 0.180465
vt 1.23076 0.180991
vt 1.22868 0.179348
vt 1.22994 0.175133
vt 1.23097 0.177631
vt 1.22971 0.17834
vt 1.22808 0.176194
vt 1.23097 0.177631
vt 1.23196 0.180096
vt 1.2313 0.180465
vt 1.22971 0.17834
vt 1.23202 0.174583
vt 1.23237 0.177272
vt 1.23097 0.177631
vt 1.22994 0.175133
vt 1.23237 0.177272
vt 1.23269 0.17991
vt 1.23196 0.180096
vt 1.23097 0.177631
vt 1.23419 0.174584
vt 1.23381 0.177289
vt 1.23237 0.177272
vt 1.23202 0.174583
vt 1.23381 0.177289
vt 1.23344 0.179917
vt 1.23269 0.17991
vt 1.23237 0.177272
vt 1.23627 0.175177
vt 1.23521 0.177669
vt 1.23381 0.177289
vt 1.23419 0.174584
vt 1.23521 0.177669
vt 1.23417 0.180119
vt 1.23344 0.179917
vt 1.23381 0.177289
vt 1.23815 0.176253
vt 1.23646 0.178401
vt 1.23521 0.177669
vt 1.23627 0.175177
vt 1.23646 0.178401
vt 1.23482 0.180502
vt 1.23417 0.180119
vt 1.23521 0.177669
vt 1.23966 0.177811
vt 1.23748 0.179437
vt 1.23646 0.178401
vt 1.23815 0.176253
vt 1.23748 0.179437
vt 1.23534 0.181041
vt 1.23482 0.180502
vt 1.23646 0.178401
vt 1.2407 0.179694
vt 1.23819 0.180708
vt 1.23748 0.179437
vt 1.23966 0.177811
vt 1.23819 0.180708
vt 1.23571 0.181699
vt 1.23534 0.181041
vt 1.23748 0.179437
vt 1.24126 0.18179
vt 1.23854 0.182115
vt 1.23819 0.180708
vt 1.2407 0.179694
vt 1.23854 0.182115
vt 1.2359 0.182431
vt 1.23571 0.181699
vt 1.23819 0.180708
vt 1.24123 0.183967
vt 1.23853 0.183564
vt 1.23854 0.182115
vt 1.24126 0.18179
vt 1.23853 0.183564
vt 1.23589 0.183185
vt 1.2359 0.182431
vt 1.23854 0.182115
vt 1.24064 0.186055
vt 1.23814 0.184963
vt 1.23853 0.183564
vt 1.24123 0.183967
vt 1.23814 0.184963
vt 1.23569 0.183912
vt 1.23589 0.183185
vt 1.23853 0.183564
vt 1.2374 0.186211
vt 1.2353 0.184562
vt 1.23569 0.183912
vt 1.23814 0.184963
vt 1.24409 0.184346
vt 1.24123 0.183967
vt 1.24126 0.18179
vt 1.24413 0.181439
vt 1.24334 0.187182
vt 1.24064 0.186055
vt 1.24123 0.183967
vt 1.24409 0.184346
vt 1.24738 0.184793
vt 1.24409 0.184346
vt 1.24413 0.181439
vt 1.24736 0.181009
vt 1.24633 0.188448
vt 1.24334 0.187182
vt 1.24409 0.184346
vt 1.24738 0.184793
vt 1.24736 0.181009
vt 1.24413 0.181439
vt 1.24342 0.178593
vt 1.2464 0.177378
vt 1.24413 0.181439
vt 1.24126 0.18179
vt 1.2407 0.179694
vt 1.24342 0.178593
vt 1.2464 0.177378
vt 1.24342 0.178593
vt 1.24194 0.17607
vt 1.24455 0.174108
vt 1.24342 0.178593
vt 1.2407 0.179694
vt 1.23966 0.177811
vt 1.24194 0.17607
vt 1.24455 0.174108
vt 1.24194 0.17607
vt 1.23993 0.173968
vt 1.2419 0.171459
vt 1.24194 0.17607
vt 1.23966 0.177811
vt 1.23815 0.176253
vt 1.23993 0.173968
vt 1.2419 0.171459
vt 1.23993 0.173968
vt 1.2374 0.172499
vt 1.23869 0.169531
vt 1.23993 0.173968
vt 1.23815 0.176253
vt 1.23627 0.175177
vt 1.2374 0.172499
vt 1.23869 0.169531
vt 1.2374 0.172499
vt 1.23458 0.171731
vt 1.23506 0.168504
vt 1.2374 0.172499
vt 1.23627 0.175177
vt 1.23419 0.174584
vt 1.23458 0.171731
vt 1.23506 0.168504
vt 1.23458 0.171731
vt 1.23168 0.171728
vt 1.23131 0.168536
vt 1.23458 0.171731
vt 1.23419 0.174584
vt 1.23202 0.174583
vt 1.23168 0.171728
vt 1.23131 0.168536
vt 1.23168 0.171728
vt 1.22888 0.172465
vt 1.22769 0.169452
vt 1.23168 0.171728
vt 1.23202 0.174583
vt 1.22994 0.175133
vt 1.22888 0.172465
vt 1.22769 0.169452
vt 1.22888 0.172465
vt 1.22639 0.173897
vt 1.22442 0.171264
vt 1.22888 0.172465
vt 1.22994 0.175133
vt 1.22808 0.176194
vt 1.22639 0.173897
vt 1.22442 0.171264
vt 1.22639 0.173897
vt 1.22431 0.175891
vt 1.22178 0.173926
vt 1.22639 0.173897
vt 1.22808 0.176194
vt 1.22655 0.177692
vt 1.22431 0.175891
vt 1.22178 0.173926
vt 1.22431 0.175891
vt 1.22279 0.178379
vt 1.21986 0.177115
vt 1.22431 0.175891
vt 1.22655 0.177692
vt 1.22547 0.179532
vt 1.22279 0.178379
vt 1.21986 0.177115
vt 1.22279 0.178379
vt 1.22201 0.181191
vt 1.21884 0.180686
vt 1.22279 0.178379
vt 1.22547 0.179532
vt 1.22488 0.181584
vt 1.22201 0.181191
vt 1.21884 0.180686
vt 1.22201 0.181191
vt 1.22198 0.184092
vt 1.21873 0.184421
vt 1.22201 0.181191
vt 1.22488 0.181584
vt 1.22484 0.183735
vt 1.22198 0.184092
vt 1.21873 0.184421
vt 1.22198 0.184092
vt 1.2227 0.186896
vt 1.21965 0.188079
vt 1.22198 0.184092
vt 1.22484 0.183735
vt 1.22536 0.185828
vt 1.2227 0.186896
vt 1.21965 0.188079
vt 1.2227 0.186896
vt 1.22408 0.18946
vt 1.2215 0.191378
vt 1.2227 0.186896
vt 1.22536 0.185828
vt 1.2264 0.187727
vt 1.22408 0.18946
vt 1.2215 0.191378
vt 1.22408 0.18946
vt 1.22614 0.191542
vt 1.22412 0.194051
vt 1.22408 0.18946
vt 1.2264 0.187727
vt 1.22792 0.189254
vt 1.22614 0.191542
vt 1.22412 0.194051
vt 1.22614 0.191542
vt 1.22865 0.193026
vt 1.22733 0.196001
vt 1.22614 0.191542
vt 1.22792 0.189254
vt 1.22976 0.190362
vt 1.22865 0.193026
vt 1.22733 0.196001
vt 1.22865 0.193026
vt 1.23144 0.193799
vt 1.23094 0.197066
vt 1.22865 0.193026
vt 1.22976 0.190362
vt 1.23183 0.190957
vt 1.23144 0.193799
vt 1.23094 0.197066
vt 1.23144 0.193799
vt 1.23433 0.193883
vt 1.2347 0.197099
vt 1.23144 0.193799
vt 1.23183 0.190957
vt 1.23399 0.191003
vt 1.23433 0.193883
vt 1.2347 0.197099
vt 1.23433 0.193883
vt 1.23715 0.193128
vt 1.23837 0.196186
vt 1.23433 0.193883
vt 1.23399 0.191003
vt 1.23608 0.190447
vt 1.23715 0.193128
vt 1.2306 0.199424
vt 1.23094 0.197066
vt 1.2347 0.197099
vt 1.23495 0.199519
vt 1.23495 0.199519
vt 1.2347 0.197099
vt 1.23837 0.196186
vt 1.23925 0.198477
vt 1.23925 0.198477
vt 1.23965 0.199492
vt 1.23506 0.200601
vt 1.23495 0.199519
vt 1.23495 0.199519
vt 1.23506 0.200601
vt 1.23044 0.200482
vt 1.2306 0.199424
vt 1.2306 0.199424
vt 1.23044 0.200482
vt 1.22595 0.199227
vt 1.22638 0.198239
vt 1.22638 0.198239
vt 1.22733 0.196001
vt 1.23094 0.197066
vt 1.2306 0.199424
vt 1.22638 0.198239
vt 1.22595 0.199227
vt 1.22192 0.196839
vt 1.22259 0.195995
vt 1.22259 0.195995
vt 1.22412 0.194051
vt 1.22733 0.196001
vt 1.22638 0.198239
vt 1.22259 0.195995
vt 1.22192 0.196839
vt 1.21866 0.193473
vt 1.21952 0.192831
vt 1.21952 0.192831
vt 1.2215 0.191378
vt 1.22412 0.194051
vt 1.22259 0.195995
vt 1.21952 0.192831
vt 1.21866 0.193473
vt 1.21636 0.189322
vt 1.21738 0.188932
vt 1.21738 0.188932
vt 1.21965 0.188079
vt 1.2215 0.191378
vt 1.21952 0.192831
vt 1.21738 0.188932
vt 1.21636 0.189322
vt 1.21531 0.184772
vt 1.21637 0.184667
vt 1.21637 0.184667
vt 1.21873 0.184421
vt 1.21965 0.188079
vt 1.21738 0.188932
vt 1.21637 0.184667
vt 1.21531 0.184772
vt 1.21542 0.180188
vt 1.21646 0.180347
vt 1.21646 0.180347
vt 1.21884 0.180686
vt 1.21873 0.184421
vt 1.21637 0.184667
vt 1.21665 0.175763
vt 1.21763 0.176181
vt 1.21646 0.180347
vt 1.21542 0.180188
vt 1.21763 0.176181
vt 1.21986 0.177115
vt 1.21884 0.180686
vt 1.21646 0.180347
vt 1.219 0.171756
vt 1.21985 0.172418
vt 1.21763 0.176181
vt 1.21665 0.175763
vt 1.21985 0.172418
vt 1.22178 0.173926
vt 1.21986 0.177115
vt 1.21763 0.176181
vt 1.21985 0.172418
vt 1.219 0.171756
vt 1.22235 0.168507
vt 1.22298 0.169356
vt 1.22298 0.169356
vt 1.22442 0.171264
vt 1.22178 0.173926
vt 1.21985 0.172418
vt 1.22298 0.169356
vt 1.22235 0.168507
vt 1.22636 0.166238
vt 1.22677 0.167223
vt 1.22677 0.167223
vt 1.22769 0.169452
vt 1.22442 0.171264
vt 1.22298 0.169356
vt 1.22677 0.167223
vt 1.22636 0.166238
vt 1.23085 0.165046
vt 1.23099 0.166106
vt 1.23099 0.166106
vt 1.23131 0.168536
vt 1.22769 0.169452
vt 1.22677 0.167223
vt 1.23553 0.165058
vt 1.23539 0.166127
vt 1.23099 0.166106
vt 1.23085 0.165046
vt 1.23539 0.166127
vt 1.23506 0.168504
vt 1.23131 0.168536
vt 1.23099 0.166106
vt 1.23539 0.166127
vt 1.23553 0.165058
vt 1.24004 0.16629
vt 1.23963 0.167284
vt 1.23963 0.167284
vt 1.23869 0.169531
vt 1.23506 0.168504
vt 1.23539 0.166127
vt 1.23963 0.167284
vt 1.24004 0.16629
vt 1.24408 0.168658
vt 1.24342 0.169509
vt 1.24342 0.169509
vt 1.2419 0.171459
vt 1.23869 0.169531
vt 1.23963 0.167284
vt 1.24737 0.172008
vt 1.2465 0.172662
vt 1.24342 0.169509
vt 1.24408 0.168658
vt 1.2465 0.172662
vt 1.24455 0.174108
vt 1.2419 0.171459
vt 1.24342 0.169509
vt 1.2465 0.172662
vt 1.24737 0.172008
vt 1.24966 0.176081
vt 1.24867 0.17648
vt 1.24867 0.17648
vt 1.2464 0.177378
vt 1.24455 0.174108
vt 1.2465 0.172662
vt 1.24867 0.17648
vt 1.24966 0.176081
vt 1.25083 0.180585
vt 1.24977 0.180723
vt 1.24977 0.180723
vt 1.24736 0.181009
vt 1.2464 0.177378
vt 1.24867 0.17648
vt 1.24977 0.180723
vt 1.25083 0.180585
vt 1.25084 0.185255
vt 1.24976 0.185111
vt 1.24976 0.185111
vt 1.24738 0.184793
vt 1.24736 0.181009
vt 1.24977 0.180723
vt 1.24976 0.185111
vt 1.25084 0.185255
vt 1.24958 0.189813
vt 1.24859 0.189393
vt 1.24859 0.189393
vt 1.24633 0.188448
vt 1.24738 0.184793
vt 1.24976 0.185111
vt 1.24859 0.189393
vt 1.24958 0.189813
vt 1.24718 0.193886
vt 1.24632 0.193215
vt 1.25084 0.185255
vt 1.25199 0.185401
vt 1.25073 0.190297
vt 1.24958 0.189813
vt 1.25083 0.180585
vt 1.252 0.180424
vt 1.25199 0.185401
vt 1.25084 0.185255
vt 1.25258 0.191086
vt 1.25073 0.190297
vt 1.25199 0.185401
vt 1.25389 0.185671
vt 1.25389 0.185671
vt 1.25199 0.185401
vt 1.252 0.180424
vt 1.25389 0.180222
vt 1.25389 0.180222
vt 1.252 0.180424
vt 1.25075 0.175627
vt 1.25253 0.174954
vt 1.25253 0.174954
vt 1.25075 0.175627
vt 1.24831 0.171284
vt 1.24987 0.170171
vt 1.24737 0.172008
vt 1.24831 0.171284
vt 1.25075 0.175627
vt 1.24966 0.176081
vt 1.24966 0.176081
vt 1.25075 0.175627
vt 1.252 0.180424
vt 1.25083 0.180585
vt 1.24831 0.171284
vt 1.24737 0.172008
vt 1.24408 0.168658
vt 1.24481 0.167711
vt 1.24987 0.170171
vt 1.24831 0.171284
vt 1.24481 0.167711
vt 1.24602 0.166226
vt 1.24004 0.16629
vt 1.24049 0.165188
vt 1.24481 0.167711
vt 1.24408 0.168658
vt 1.24602 0.166226
vt 1.24481 0.167711
vt 1.24049 0.165188
vt 1.24127 0.163441
vt 1.24127 0.163441
vt 1.24049 0.165188
vt 1.23568 0.163875
vt 1.23598 0.161983
vt 1.23598 0.161983
vt 1.23568 0.163875
vt 1.23069 0.163836
vt 1.23046 0.161948
vt 1.23553 0.165058
vt 1.23568 0.163875
vt 1.24049 0.165188
vt 1.24004 0.16629
vt 1.23568 0.163875
vt 1.23553 0.165058
vt 1.23085 0.165046
vt 1.23069 0.163836
vt 1.22636 0.166238
vt 1.22593 0.165146
vt 1.23069 0.163836
vt 1.23085 0.165046
vt 1.23046 0.161948
vt 1.23069 0.163836
vt 1.22593 0.165146
vt 1.22524 0.163473
vt 1.22235 0.168507
vt 1.22166 0.167552
vt 1.22593 0.165146
vt 1.22636 0.166238
vt 1.22524 0.163473
vt 1.22593 0.165146
vt 1.22166 0.167552
vt 1.22052 0.166045
vt 1.22052 0.166045
vt 1.22166 0.167552
vt 1.21808 0.171018
vt 1.21652 0.169801
vt 1.21652 0.169801
vt 1.21808 0.171018
vt 1.2156 0.175324
vt 1.21387 0.174571
vt 1.219 0.171756
vt 1.21808 0.171018
vt 1.22166 0.167552
vt 1.22235 0.168507
vt 1.21808 0.171018
vt 1.219 0.171756
vt 1.21665 0.175763
vt 1.2156 0.175324
vt 1.2156 0.175324
vt 1.21665 0.175763
vt 1.21542 0.180188
vt 1.21427 0.180028
vt 1.21387 0.174571
vt 1.2156 0.175324
vt 1.21427 0.180028
vt 1.21244 0.179722
vt 1.21531 0.184772
vt 1.21414 0.184897
vt 1.21427 0.180028
vt 1.21542 0.180188
vt 1.21244 0.179722
vt 1.21427 0.180028
vt 1.21414 0.184897
vt 1.21233 0.185053
vt 1.21233 0.185053
vt 1.21414 0.184897
vt 1.21524 0.189755
vt 1.21336 0.19045
vt 1.21336 0.19045
vt 1.21524 0.189755
vt 1.21767 0.194215
vt 1.2161 0.195353
vt 1.21866 0.193473
vt 1.21767 0.194215
vt 1.21524 0.189755
vt 1.21636 0.189322
vt 1.21636 0.189322
vt 1.21524 0.189755
vt 1.21414 0.184897
vt 1.21531 0.184772
vt 1.22192 0.196839
vt 1.22118 0.19777
vt 1.21767 0.194215
vt 1.21866 0.193473
vt 1.2161 0.195353
vt 1.21767 0.194215
vt 1.22118 0.19777
vt 1.22004 0.199216
vt 1.22595 0.199227
vt 1.22548 0.200316
vt 1.22118 0.19777
vt 1.22192 0.196839
vt 1.22004 0.199216
vt 1.22118 0.19777
vt 1.22548 0.200316
vt 1.2247 0.202137
vt 1.2247 0.202137
vt 1.22548 0.200316
vt 1.23026 0.201644
vt 1.23 0.203443
vt 1.23 0.203443
vt 1.23026 0.201644
vt 1.23518 0.201743
vt 1.23538 0.203638
vt 1.23506 0.200601
vt 1.23518 0.201743
vt 1.23026 0.201644
vt 1.23044 0.200482
vt 1.23044 0.200482
vt 1.23026 0.201644
vt 1.22548 0.200316
vt 1.22595 0.199227
vt 1.23965 0.199492
vt 1.2401 0.200614
vt 1.23518 0.201743
vt 1.23506 0.200601
vt 1.23538 0.203638
vt 1.23518 0.201743
vt 1.2401 0.200614
vt 1.24082 0.202501
s off
f 1/1/1 2/2/2 3/3/3
f 1/1/1 3/3/3 4/4/4
f 5/5/5 6/6/6 7/7/7
f 5/5/5 7/7/7 8/8/8
f 9/9/9 10/10/10 11/11/11
f 9/9/9 11/11/11 12/12/12
f 13/13/13 14/14/14 15/15/15
f 13/13/13 15/15/15 16/16/16
f 17/17/17 18/18/18 19/19/19
f 17/17/17 19/19/19 20/20/20
f 21/21/21 22/22/22 23/23/23
f 21/21/21 23/23/23 24/24/24
f 25/25/25 26/26/26 27/27/27
f 25/25/25 27/27/27 28/28/28
f 29/29/29 30/30/30 31/31/31
f 29/29/29 31/31/31 32/32/32
f 33/33/33 34/34/34 35/35/35
f 33/33/33 35/35/35 36/36/36
f 37/37/37 38/38/38 39/39/39
f 37/37/37 39/39/39 40/40/40
f 41/41/41 42/42/42 43/43/43
f 41/41/41 43/43/43 44/44/44
f 45/45/45 46/46/46 47/47/47
f 45/45/45 47/47/47 48/48/48
f 49/49/49 50/50/50 51/51/51
f 49/49/49 51/51/51 52/52/52
f 53/53/53 54/54/54 55/55/55
f 53/53/53 55/55/55 56/56/56
f 57/57/57 58/58/58 59/59/59
f 57/57/57 59/59/59 60/60/60
f 61/61/61 62/62/62 63/63/63
f 61/61/61 63/63/63 64/64/64
f 65/65/65 66/66/66 67/67/67
f 65/65/65 67/67/67 68/68/68
f 69/69/69 70/70/70 71/71/71
f 69/69/69 71/71/71 72/72/72
f 73/73/73 74/74/74 75/75/75
f 73/73/73 75/75/75 76/76/76
f 77/77/77 78/78/78 79/79/79
f 77/77/77 79/79/79 80/80/80
f 81/81/81 82/82/82 83/83/83
f 81/81/81 83/83/83 84/84/84
f 85/85/85 86/86/86 87/87/87
f 85/85/85 87/87/87 88/88/88
f 89/89/89 90/90/90 91/91/91
f 92/92/92 93/93/93 94/94/94
f 95/95/95 96/96/96 97/97/97
f 98/98/98 99/99/99 100/100/100
f 101/101/101 102/102/102 103/103/103
f 104/104/104 105/105/105 106/106/106
f 107/107/107 108/108/108 109/109/109
f 110/110/110 111/111/111 112/112/112
f 113/113/113 114/114/114 115/115/115
f 116/116/116 117/117/117 118/118/118
f 119/119/119 120/120/120 121/121/121
f 122/122/122 123/123/123 124/124/124
f 125/125/125 126/126/126 127/127/127
f 128/128/128 129/129/129 130/130/130
f 131/131/131 132/132/132 133/133/133
f 134/134/134 135/135/135 136/136/136
f 137/137/137 138/138/138 139/139/139
f 140/140/140 141/141/141 142/142/142
f 143/143/143 144/144/144 145/145/145
f 146/146/146 147/147/147 148/148/148
f 149/149/149 150/150/150 151/151/151
f 152/152/152 153/153/153 154/154/154
f 155/155/155 156/156/156 157/157/157
f 158/158/158 159/159/159 160/160/160
f 161/161/161 162/162/162 163/163/163
f 161/161/161 163/163/163 164/164/164
f 165/165/165 166/166/166 167/167/167
f 165/165/165 167/167/167 168/168/168
f 169/169/169 170/170/170 171/171/171
f 169/169/169 171/171/171 172/172/172
f 173/173/173 174/174/174 175/175/175
f 173/173/173 175/175/175 176/176/176
f 177/177/177 178/178/178 179/179/179
f 177/177/177 179/179/179 180/180/180
f 181/181/181 182/182/182 183/183/183
f 181/181/181 183/183/183 184/184/184
f 185/185/185 186/186/186 187/187/187
f 185/185/185 187/187/187 188/188/188
f 189/189/189 190/190/190 191/191/191
f 189/189/189 191/191/191 192/192/192
f 193/193/193 194/194/194 195/195/195
f 193/193/193 195/195/195 196/196/196
f 197/197/197 198/198/198 199/199/199
f 197/197/197 199/199/199 200/200/200
f 201/201/201 202/202/202 203/203/203
f 201/201/201 203/203/203 204/204/204
f 205/205/205 206/206/206 207/207/207
f 205/205/205 207/207/207 208/208/208
f 209/209/209 210/210/210 211/211/211
f 209/209/209 211/211/211 212/212/212
f 213/213/213 214/214/214 215/215/215
f 213/213/213 215/215/215 216/216/216
f 217/217/217 218/218/218 219/219/219
f 217/217/217 219/219/219 220/220/220
f 221/221/221 222/222/222 223/223/223
f 221/221/221 223/223/223 224/224/224
f 225/225/225 226/226/226 227/227/227
f 225/225/225 227/227/227 228/228/228
f 229/229/229 230/230/230 231/231/231
f 229/229/229 231/231/231 232/232/232
f 233/233/233 234/234/234 235/235/235
f 233/233/233 235/235/235 236/236/236
f 237/237/237 238/238/238 239/239/239
f 237/237/237 239/239/239 240/240/240
f 241/241/241 242/242/242 243/243/243
f 241/241/241 243/243/243 244/244/244
f 245/245/245 246/246/246 247/247/247
f 245/245/245 247/247/247 248/248/248
f 249/249/249 250/250/250 251/251/251
f 249/249/249 251/251/251 252/252/252
f 253/253/253 254/254/254 255/255/255
f 253/253/253 255/255/255 256/256/256
f 257/257/257 258/258/258 259/259/259
f 257/257/257 259/259/259 260/260/260
f 261/261/261 262/262/262 263/263/263
f 261/261/261 263/263/263 264/264/264
f 265/265/265 266/266/266 267/267/267
f 265/265/265 267/267/267 268/268/268
f 269/269/269 270/270/270 271/271/271
f 269/269/269 271/271/271 272/272/272
f 273/273/273 274/274/274 275/275/275
f 273/273/273 275/275/275 276/276/276
f 277/277/277 278/278/278 279/279/279
f 277/277/277 279/279/279 280/280/280
f 281/281/281 282/282/282 283/283/283
f 281/281/281 283/283/283 284/284/284
f 285/285/285 286/286/286 287/287/287
f 285/285/285 287/287/287 288/288/288
f 289/289/289 290/290/290 291/291/291
f 289/289/289 291/291/291 292/292/292
f 293/293/293 294/294/294 295/295/295
f 293/293/293 295/295/295 296/296/296
f 297/297/297 298/298/298 299/299/299
f 297/297/297 299/299/299 300/300/300
f 301/301/301 302/302/302 303/303/303
f 301/301/301 303/303/303 304/304/304
f 305/305/305 306/306/306 307/307/307
f 305/305/305 307/307/307 308/308/308
f 309/309/309 310/310/310 311/311/311
f 309/309/309 311/311/311 312/312/312
f 313/313/313 314/314/314 315/315/315
f 313/313/313 315/315/315 316/316/316
f 317/317/317 318/318/318 319/319/319
f 317/317/317 319/319/319 320/320/320
f 321/321/321 322/322/322 323/323/323
f 321/321/321 323/323/323 324/324/324
f 325/325/325 326/326/326 327/327/327
f 325/325/325 327/327/327 328/328/328
f 329/329/329 330/330/330 331/331/331
f 329/329/329 331/331/331 332/332/332
f 333/333/333 334/334/334 335/335/335
f 333/333/333 335/335/335 336/336/336
f 337/337/337 338/338/338 339/339/339
f 337/337/337 339/339/339 340/340/340
f 341/341/341 342/342/342 343/343/343
f 341/341/341 343/343/343 344/344/344
f 345/345/345 346/346/346 347/347/347
f 345/345/345 347/347/347 348/348/348
f 349/349/349 350/350/350 351/351/351
f 349/349/349 351/351/351 352/352/352
f 353/353/353 354/354/354 355/355/355
f 353/353/353 355/355/355 356/356/356
f 357/357/357 358/358/358 359/359/359
f 357/357/357 359/359/359 360/360/360
f 361/361/361 362/362/362 363/363/363
f 361/361/361 363/363/363 364/364/364
f 365/365/365 366/366/366 367/367/367
f 365/365/365 367/367/367 368/368/368
f 369/369/369 370/370/370 371/371/371
f 369/369/369 371/371/371 372/372/372
f 373/373/373 374/374/374 375/375/375
f 373/373/373 375/375/375 376/376/376
f 377/377/377 378/378/378 379/379/379
f 377/377/377 379/379/379 380/380/380
f 381/381/381 382/382/382 383/383/383
f 381/381/381 383/383/383 384/384/384
f 385/385/385 386/386/386 387/387/387
f 385/385/385 387/387/387 388/388/388
f 389/389/389 390/390/390 391/391/391
f 389/389/389 391/391/391 392/392/392
f 393/393/393 394/394/394 395/395/395
f 393/393/393 395/395/395 396/396/396
f 397/397/397 398/398/398 399/399/399
f 397/397/397 399/399/399 400/400/400
f 401/401/401 402/402/402 403/403/403
f 401/401/401 403/403/403 404/404/404
f 405/405/405 406/406/406 407/407/407
f 405/405/405 407/407/407 408/408/408
f 409/409/409 410/410/410 411/411/411
f 409/409/409 411/411/411 412/412/412
f 413/413/413 414/414/414 415/415/415
f 413/413/413 415/415/415 416/416/416
f 417/417/417 418/418/418 419/419/419
f 417/417/417 419/419/419 420/420/420
f 421/421/421 422/422/422 423/423/423
f 421/421/421 423/423/423 424/424/424
f 425/425/425 426/426/426 427/427/427
f 425/425/425 427/427/427 428/428/428
f 429/429/429 430/430/430 431/431/431
f 429/429/429 431/431/431 432/432/432
f 433/433/433 434/434/434 435/435/435
f 433/433/433 435/435/435 436/436/436
f 437/437/437 438/438/438 439/439/439
f 437/437/437 439/439/439 440/440/440
f 441/441/441 442/442/442 443/443/443
f 441/441/441 443/443/443 444/444/444
f 445/445/445 446/446/446 447/447/447
f 445/445/445 447/447/447 448/448/448
f 449/449/449 450/450/450 451/451/451
f 449/449/449 451/451/451 452/452/452
f 453/453/453 454/454/454 455/455/455
f 453/453/453 455/455/455 456/456/456
f 457/457/457 458/458/458 459/459/459
f 457/457/457 459/459/459 460/460/460
f 461/461/461 462/462/462 463/463/463
f 461/461/461 463/463/463 464/464/464
f 465/465/465 466/466/466 467/467/467
f 465/465/465 467/467/467 468/468/468
f 469/469/469 470/470/470 471/471/471
f 469/469/469 471/471/471 472/472/472
f 473/473/473 474/474/474 475/475/475
f 473/473/473 475/475/475 476/476/476
f 477/477/477 478/478/478 479/479/479
f 477/477/477 479/479/479 480/480/480
f 481/481/481 482/482/482 483/483/483
f 481/481/481 483/483/483 484/484/484
f 485/485/485 486/486/486 487/487/487
f 485/485/485 487/487/487 488/488/488
f 489/489/489 490/490/490 491/491/491
f 489/489/489 491/491/491 492/492/492
f 493/493/493 494/494/494 495/495/495
f 493/493/493 495/495/495 496/496/496
f 497/497/497 498/498/498 499/499/499
f 497/497/497 499/499/499 500/500/500
f 501/501/501 502/502/502 503/503/503
f 501/501/501 503/503/503 504/504/504
f 505/505/505 506/506/506 507/507/507
f 505/505/505 507/507/507 508/508/508
f 509/509/509 510/510/510 511/511/511
f 509/509/509 511/511/511 512/512/512
f 513/513/513 514/514/514 515/515/515
f 513/513/513 515/515/515 516/516/516
f 517/517/517 518/518/518 519/519/519
f 517/517/517 519/519/519 520/520/520
f 521/521/521 522/522/522 523/523/523
f 521/521/521 523/523/523 524/524/524
f 525/525/525 526/526/526 527/527/527
f 525/525/525 527/527/527 528/528/528
f 529/529/529 530/530/530 531/531/531
f 529/529/529 531/531/531 532/532/532
f 533/533/533 534/534/534 535/535/535
f 533/533/533 535/535/535 536/536/536
f 537/537/537 538/538/538 539/539/539
f 537/537/537 539/539/539 540/540/540
f 541/541/541 542/542/542 543/543/543
f 541/541/541 543/543/543 544/544/544
f 545/545/545 546/546/546 547/547/547
f 545/545/545 547/547/547 548/548/548
f 549/549/549 550/550/550 551/551/551
f 549/549/549 551/551/551 552/552/552
f 553/553/553 554/554/554 555/555/555
f 553/553/553 555/555/555 556/556/556
f 557/557/557 558/558/558 559/559/559
f 557/557/557 559/559/559 560/560/560
f 561/561/561 562/562/562 563/563/563
f 561/561/561 563/563/563 564/564/564
f 565/565/565 566/566/566 567/567/567
f 565/565/565 567/567/567 568/568/568
f 569/569/569 570/570/570 571/571/571
f 569/569/569 571/571/571 572/572/572
f 573/573/573 574/574/574 575/575/575
f 573/573/573 575/575/575 576/576/576
f 577/577/577 578/578/578 579/579/579
f 577/577/577 579/579/579 580/580/580
f 581/581/581 582/582/582 583/583/583
f 581/581/581 583/583/583 584/584/584
f 585/585/585 586/586/586 587/587/587
f 585/585/585 587/587/587 588/588/588
f 589/589/589 590/590/590 591/591/591
f 589/589/589 591/591/591 592/592/592
f 593/593/593 594/594/594 595/595/595
f 593/593/593 595/595/595 596/596/596
f 597/597/597 598/598/598 599/599/599
f 597/597/597 599/599/599 600/600/600
f 601/601/601 602/602/602 603/603/603
f 601/601/601 603/603/603 604/604/604
f 605/605/605 606/606/606 607/607/607
f 605/605/605 607/607/607 608/608/608
f 609/609/609 610/610/610 611/611/611
f 609/609/609 611/611/611 612/612/612
f 613/613/613 614/614/614 615/615/615
f 613/613/613 615/615/615 616/616/616
f 617/617/617 618/618/618 619/619/619
f 617/617/617 619/619/619 620/620/620
f 621/621/621 622/622/622 623/623/623
f 621/621/621 623/623/623 624/624/624
f 625/625/625 626/626/626 627/627/627
f 625/625/625 627/627/627 628/628/628
f 629/629/629 630/630/630 631/631/631
f 629/629/629 631/631/631 632/632/632
f 633/633/633 634/634/634 635/635/635
f 633/633/633 635/635/635 636/636/636
f 637/637/637 638/638/638 639/639/639
f 637/637/637 639/639/639 640/640/640
f 641/641/641 642/642/642 643/643/643
f 641/641/641 643/643/643 644/644/644
f 645/645/645 646/646/646 647/647/647
f 645/645/645 647/647/647 648/648/648
f 649/649/649 650/650/650 651/651/651
f 649/649/649 651/651/651 652/652/652
f 653/653/653 654/654/654 655/655/655
f 653/653/653 655/655/655 656/656/656
f 657/657/657 658/658/658 659/659/659
f 657/657/657 659/659/659 660/660/660
f 661/661/661 662/662/662 663/663/663
f 661/661/661 663/663/663 664/664/664
f 665/665/665 666/666/666 667/667/667
f 665/665/665 667/667/667 668/668/668
f 669/669/669 670/670/670 671/671/671
f 669/669/669 671/671/671 672/672/672
f 673/673/673 674/674/674 675/675/675
f 673/673/673 675/675/675 676/676/676
f 677/677/677 678/678/678 679/679/679
f 677/677/677 679/679/679 680/680/680
f 681/681/681 682/682/682 683/683/683
f 681/681/681 683/683/683 684/684/684
f 685/685/685 686/686/686 687/687/687
f 685/685/685 687/687/687 688/688/688
f 689/689/689 690/690/690 691/691/691
f 689/689/689 691/691/691 692/692/692
f 693/693/693 694/694/694 695/695/695
f 693/693/693 695/695/695 696/696/696
f 697/697/697 698/698/698 699/699/699
f 697/697/697 699/699/699 700/700/700
f 701/701/701 702/702/702 703/703/703
f 701/701/701 703/703/703 704/704/704
f 705/705/705 706/706/706 707/707/707
f 705/705/705 707/707/707 708/708/708
f 709/709/709 710/710/710 711/711/711
f 709/709/709 711/711/711 712/712/712
f 713/713/713 714/714/714 715/715/715
f 713/713/713 715/715/715 716/716/716
f 717/717/717 718/718/718 719/719/719
f 717/717/717 719/719/719 720/720/720
f 721/721/721 722/722/722 723/723/723
f 721/721/721 723/723/723 724/724/724
f 725/725/725 726/726/726 727/727/727
f 725/725/725 727/727/727 728/728/728
f 729/729/729 730/730/730 731/731/731
f 729/729/729 731/731/731 732/732/732
f 733/733/733 734/734/734 735/735/735
f 733/733/733 735/735/735 736/736/736
f 737/737/737 738/738/738 739/739/739
f 737/737/737 739/739/739 740/740/740
f 741/741/741 742/742/742 743/743/743
f 741/741/741 743/743/743 744/744/744
f 745/745/745 746/746/746 747/747/747
f 745/745/745 747/747/747 748/748/748
f 749/749/749 750/750/750 751/751/751
f 749/749/749 751/751/751 752/752/752
f 753/753/753 754/754/754 755/755/755
f 753/753/753 755/755/755 756/756/756
f 757/757/757 758/758/758 759/759/759
f 757/757/757 759/759/759 760/760/760
f 761/761/761 762/762/762 763/763/763
f 761/761/761 763/763/763 764/764/764
f 765/765/765 766/766/766 767/767/767
f 765/765/765 767/767/767 768/768/768
f 769/769/769 770/770/770 771/771/771
f 769/769/769 771/771/771 772/772/772
f 773/773/773 774/774/774 775/775/775
f 773/773/773 775/775/775 776/776/776
f 777/777/777 778/778/778 779/779/779
f 777/777/777 779/779/779 780/780/780
f 781/781/781 782/782/782 783/783/783
f 781/781/781 783/783/783 784/784/784
f 785/785/785 786/786/786 787/787/787
f 785/785/785 787/787/787 788/788/788
f 789/789/789 790/790/790 791/791/791
f 789/789/789 791/791/791 792/792/792
f 793/793/793 794/794/794 795/795/795
f 793/793/793 795/795/795 796/796/796
f 797/797/797 798/798/798 799/799/799
f 797/797/797 799/799/799 800/800/800
f 801/801/801 802/802/802 803/803/803
f 801/801/801 803/803/803 804/804/804
f 805/805/805 806/806/806 807/807/807
f 805/805/805 807/807/807 808/808/808
f 809/809/809 810/810/810 811/811/811
f 809/809/809 811/811/811 812/812/812
f 813/813/813 814/814/814 815/815/815
f 813/813/813 815/815/815 816/816/816
f 817/817/817 818/818/818 819/819/819
f 817/817/817 819/819/819 820/820/820
f 821/821/821 822/822/822 823/823/823
f 821/821/821 823/823/823 824/824/824
f 825/825/825 826/826/826 827/827/827
f 825/825/825 827/827/827 828/828/828
f 829/829/829 830/830/830 831/831/831
f 829/829/829 831/831/831 832/832/832
f 833/833/833 834/834/834 835/835/835
f 833/833/833 835/835/835 836/836/836
f 837/837/837 838/838/838 839/839/839
f 837/837/837 839/839/839 840/840/840
