v 0.340674 0.355527 -0.108894
v 0.411071 0.369262 -0.179291
v 0.395985 0.369262 -0.191672
v 0.340674 0.355527 -0.108894
v 0.395985 0.369262 -0.191672
v 0.378773 0.369262 -0.200872
v 0.340674 0.355527 -0.108894
v 0.340675 0.369262 -0.20845
v 0.321252 0.369262 -0.206537
v 0.340674 0.355527 -0.108894
v 0.321252 0.369262 -0.206537
v 0.302576 0.369262 -0.200872
v 0.340674 0.355527 -0.108894
v 0.302576 0.369262 -0.200872
v 0.285364 0.369262 -0.191672
v 0.340674 0.355527 -0.108894
v 0.285364 0.369262 -0.191672
v 0.270278 0.369262 -0.179291
v 0.340674 0.355527 -0.108894
v 0.270278 0.369262 -0.179291
v 0.257897 0.369262 -0.164205
v 0.340674 0.355527 -0.108894
v 0.257897 0.369262 -0.164205
v 0.248697 0.369262 -0.146993
v 0.340674 0.355527 -0.108894
v 0.248697 0.369262 -0.146993
v 0.243032 0.369262 -0.128317
v 0.340674 0.355527 -0.108894
v 0.243032 0.369262 -0.128317
v 0.241119 0.369262 -0.108894
v 0.340674 0.355527 -0.108894
v 0.241119 0.369262 -0.108894
v 0.243032 0.369262 -0.089472
v 0.340674 0.355527 -0.108894
v 0.243032 0.369262 -0.089472
v 0.248697 0.369262 -0.070796
v 0.340674 0.355527 -0.108894
v 0.248697 0.369262 -0.070796
v 0.257897 0.369262 -0.053584
v 0.340674 0.355527 -0.108894
v 0.257897 0.369262 -0.053584
v 0.270278 0.369262 -0.038498
v 0.340674 0.355527 -0.108894
v 0.270278 0.369262 -0.038498
v 0.285365 0.369262 -0.026117
v 0.340674 0.355527 -0.108894
v 0.285365 0.369262 -0.026117
v 0.302576 0.369262 -0.016917
v 0.340674 0.355527 -0.108894
v 0.302576 0.369262 -0.016917
v 0.321252 0.369262 -0.011252
v 0.340674 0.355527 -0.108894
v 0.321252 0.369262 -0.011252
v 0.340675 0.369262 -0.009339
v 0.340674 0.355527 -0.108894
v 0.340675 0.369262 -0.009339
v 0.360097 0.369262 -0.011252
v 0.340674 0.355527 -0.108894
v 0.360097 0.369262 -0.011252
v 0.378773 0.369262 -0.016917
v 0.340674 0.355527 -0.108894
v 0.378773 0.369262 -0.016917
v 0.395985 0.369262 -0.026117
v 0.340674 0.355527 -0.108894
v 0.395985 0.369262 -0.026117
v 0.411071 0.369262 -0.038498
v 0.340674 0.355527 -0.108894
v 0.411071 0.369262 -0.038498
v 0.423452 0.369262 -0.053584
v 0.340674 0.355527 -0.108894
v 0.423452 0.369262 -0.053584
v 0.432652 0.369262 -0.070796
v 0.340674 0.355527 -0.108894
v 0.432652 0.369262 -0.070796
v 0.438317 0.369262 -0.089472
v 0.340674 0.355527 -0.108894
v 0.438317 0.369262 -0.089472
v 0.44023 0.369262 -0.108894
v 0.340674 0.355527 -0.108894
v 0.44023 0.369262 -0.108894
v 0.438317 0.369262 -0.128317
v 0.340674 0.355527 -0.108894
v 0.438317 0.369262 -0.128317
v 0.432652 0.369262 -0.146993
v 0.340674 0.355527 -0.108894
v 0.432652 0.369262 -0.146993
v 0.423452 0.369262 -0.164205
v 0.340674 0.355527 -0.108894
v 0.423452 0.369262 -0.164205
v 0.411071 0.369262 -0.179291
v 0.340674 0.355527 -0.108894
v 0.378773 0.369262 -0.200872
v 0.360097 0.369262 -0.206537
v 0.340674 0.355527 -0.108894
v 0.360097 0.369262 -0.206537
v 0.340675 0.369262 -0.20845
vn -0 1 -0
vn -0.2471 0.9369 0.2472
vn -0.1942 0.9369 0.2906
vn -0 1 -0
vn -0.1942 0.9369 0.2906
vn -0.1337 0.937 0.3229
vn -0 1 -0
vn -0 0.9369 0.3495
vn 0.0682 0.9369 0.3428
vn -0 1 -0
vn 0.0682 0.9369 0.3428
vn 0.1338 0.9369 0.3229
vn -0 1 -0
vn 0.1338 0.9369 0.3229
vn 0.1942 0.9369 0.2906
vn -0 1 -0
vn 0.1942 0.9369 0.2906
vn 0.2472 0.9369 0.2471
vn -0 1 -0
vn 0.2472 0.9369 0.2471
vn 0.2906 0.9369 0.1942
vn -0 1 -0
vn 0.2906 0.9369 0.1942
vn 0.3229 0.937 0.1337
vn -0 1 -0
vn 0.3229 0.937 0.1337
vn 0.3428 0.9369 0.0682
vn -0 1 -0
vn 0.3428 0.9369 0.0682
vn 0.3495 0.9369 -0
vn -0 1 -0
vn 0.3495 0.9369 -0
vn 0.3428 0.9369 -0.0682
vn -0 1 -0
vn 0.3428 0.9369 -0.0682
vn 0.3229 0.9369 -0.1338
vn -0 1 -0
vn 0.3229 0.9369 -0.1338
vn 0.2906 0.9369 -0.1942
vn -0 1 -0
vn 0.2906 0.9369 -0.1942
vn 0.2471 0.9369 -0.2472
vn -0 1 -0
vn 0.2471 0.9369 -0.2472
vn 0.1942 0.9369 -0.2906
vn -0 1 -0
vn 0.1942 0.9369 -0.2906
vn 0.1337 0.937 -0.3229
vn -0 1 -0
vn 0.1337 0.937 -0.3229
vn 0.0682 0.9369 -0.3428
vn -0 1 -0
vn 0.0682 0.9369 -0.3428
vn -0 0.937 -0.3494
vn -0 1 -0
vn -0 0.937 -0.3494
vn -0.0682 0.9369 -0.3428
vn -0 1 -0
vn -0.0682 0.9369 -0.3428
vn -0.1338 0.9369 -0.3229
vn -0 1 -0
vn -0.1338 0.9369 -0.3229
vn -0.1942 0.9369 -0.2906
vn -0 1 -0
vn -0.1942 0.9369 -0.2906
vn -0.2472 0.9369 -0.2471
vn -0 1 -0
vn -0.2472 0.9369 -0.2471
vn -0.2906 0.9369 -0.1942
vn -0 1 -0
vn -0.2906 0.9369 -0.1942
vn -0.3229 0.937 -0.1337
vn -0 1 -0
vn -0.3229 0.937 -0.1337
vn -0.3428 0.9369 -0.0682
vn -0 1 -0
vn -0.3428 0.9369 -0.0682
vn -0.3495 0.9369 -0
vn -0 1 -0
vn -0.3495 0.9369 -0
vn -0.3428 0.9369 0.0682
vn -0 1 -0
vn -0.3428 0.9369 0.0682
vn -0.3229 0.9369 0.1338
vn -0 1 -0
vn -0.3229 0.9369 0.1338
vn -0.2906 0.9369 0.1942
vn -0 1 -0
vn -0.2906 0.9369 0.1942
vn -0.2471 0.9369 0.2472
vn -0 1 -0
vn -0.1337 0.937 0.3229
vn -0.0682 0.9369 0.3428
vn -0 1 -0
vn -0.0682 0.9369 0.3428
vn -0 0.9369 0.3495
vt 1.6678 0.36423
vt 1.68965 0.323398
vt 1.69719 0.32844
vt 1.6678 0.36423
vt 1.69719 0.32844
vt 1.70361 0.334869
vt 1.6678 0.36423
vt 1.71212 0.350808
vt 1.71389 0.359707
vt 1.6678 0.36423
vt 1.71389 0.359707
vt 1.71389 0.368771
vt 1.6678 0.36423
vt 1.71389 0.368771
vt 1.71212 0.377672
vt 1.6678 0.36423
vt 1.71212 0.377672
vt 1.70865 0.38606
vt 1.6678 0.36423
vt 1.70865 0.38606
vt 1.70361 0.393612
vt 1.6678 0.36423
vt 1.70361 0.393612
vt 1.69719 0.400037
vt 1.6678 0.36423
vt 1.69719 0.400037
vt 1.68962 0.405087
vt 1.6678 0.36423
vt 1.68962 0.405087
vt 1.68123 0.408567
vt 1.6678 0.36423
vt 1.68123 0.408567
vt 1.67232 0.410328
vt 1.6678 0.36423
vt 1.67232 0.410328
vt 1.66323 0.410323
vt 1.6678 0.36423
vt 1.66323 0.410323
vt 1.65434 0.408552
vt 1.6678 0.36423
vt 1.65434 0.408552
vt 1.64596 0.405075
vt 1.6678 0.36423
vt 1.64596 0.405075
vt 1.63841 0.400021
vt 1.6678 0.36423
vt 1.63841 0.400021
vt 1.63198 0.3936
vt 1.6678 0.36423
vt 1.63198 0.3936
vt 1.62695 0.386041
vt 1.6678 0.36423
vt 1.62695 0.386041
vt 1.62347 0.377641
vt 1.6678 0.36423
vt 1.62347 0.377641
vt 1.62171 0.368746
vt 1.6678 0.36423
vt 1.62171 0.368746
vt 1.62172 0.35967
vt 1.6678 0.36423
vt 1.62172 0.35967
vt 1.62349 0.350767
vt 1.6678 0.36423
vt 1.62349 0.350767
vt 1.62698 0.342385
vt 1.6678 0.36423
vt 1.62698 0.342385
vt 1.63201 0.334838
vt 1.6678 0.36423
vt 1.63201 0.334838
vt 1.63843 0.328431
vt 1.6678 0.36423
vt 1.63843 0.328431
vt 1.64597 0.323388
vt 1.6678 0.36423
vt 1.64597 0.323388
vt 1.65436 0.319911
vt 1.6678 0.36423
vt 1.65436 0.319911
vt 1.66328 0.318141
vt 1.6678 0.36423
vt 1.66328 0.318141
vt 1.67238 0.318146
vt 1.6678 0.36423
vt 1.67238 0.318146
vt 1.68128 0.319926
vt 1.6678 0.36423
vt 1.68128 0.319926
vt 1.68965 0.323398
vt 1.6678 0.36423
vt 1.70361 0.334869
vt 1.70865 0.342417
vt 1.6678 0.36423
vt 1.70865 0.342417
vt 1.71212 0.350808
s off
f 1/1/1 2/2/2 3/3/3
f 4/4/4 5/5/5 6/6/6
f 7/7/7 8/8/8 9/9/9
f 10/10/10 11/11/11 12/12/12
f 13/13/13 14/14/14 15/15/15
f 16/16/16 17/17/17 18/18/18
f 19/19/19 20/20/20 21/21/21
f 22/22/22 23/23/23 24/24/24
f 25/25/25 26/26/26 27/27/27
f 28/28/28 29/29/29 30/30/30
f 31/31/31 32/32/32 33/33/33
f 34/34/34 35/35/35 36/36/36
f 37/37/37 38/38/38 39/39/39
f 40/40/40 41/41/41 42/42/42
f 43/43/43 44/44/44 45/45/45
f 46/46/46 47/47/47 48/48/48
f 49/49/49 50/50/50 51/51/51
f 52/52/52 53/53/53 54/54/54
f 55/55/55 56/56/56 57/57/57
f 58/58/58 59/59/59 60/60/60
f 61/61/61 62/62/62 63/63/63
f 64/64/64 65/65/65 66/66/66
f 67/67/67 68/68/68 69/69/69
f 70/70/70 71/71/71 72/72/72
f 73/73/73 74/74/74 75/75/75
f 76/76/76 77/77/77 78/78/78
f 79/79/79 80/80/80 81/81/81
f 82/82/82 83/83/83 84/84/84
f 85/85/85 86/86/86 87/87/87
f 88/88/88 89/89/89 90/90/90
f 91/91/91 92/92/92 93/93/93
f 94/94/94 95/95/95 96/96/96
