# Blender 5.2.0 LTS
# www.blender.org
mtllib thumbstick_left_cap.mtl
o thumbstick_right_cap
v -0.000002 0.200549 -0.000001
v 0.070395 0.214284 -0.070398
v 0.055309 0.214284 -0.082779
v -0.000002 0.200549 -0.000001
v 0.055309 0.214284 -0.082779
v 0.038097 0.214284 -0.091979
v -0.000002 0.200549 -0.000001
v -0.000001 0.214284 -0.099557
v -0.019424 0.214284 -0.097644
v -0.000002 0.200549 -0.000001
v -0.019424 0.214284 -0.097644
v -0.038100 0.214284 -0.091979
v -0.000002 0.200549 -0.000001
v -0.038100 0.214284 -0.091979
v -0.055312 0.214284 -0.082779
v -0.000002 0.200549 -0.000001
v -0.055312 0.214284 -0.082779
v -0.070398 0.214284 -0.070398
v -0.000002 0.200549 -0.000001
v -0.070398 0.214284 -0.070398
v -0.082779 0.214284 -0.055312
v -0.000002 0.200549 -0.000001
v -0.082779 0.214284 -0.055312
v -0.091979 0.214284 -0.038100
v -0.000002 0.200549 -0.000001
v -0.091979 0.214284 -0.038100
v -0.097644 0.214284 -0.019424
v -0.000002 0.200549 -0.000001
v -0.097644 0.214284 -0.019424
v -0.099557 0.214284 -0.000001
v -0.000002 0.200549 -0.000001
v -0.099557 0.214284 -0.000001
v -0.097644 0.214284 0.019421
v -0.000002 0.200549 -0.000001
v -0.097644 0.214284 0.019421
v -0.091979 0.214284 0.038097
v -0.000002 0.200549 -0.000001
v -0.091979 0.214284 0.038097
v -0.082779 0.214284 0.055309
v -0.000002 0.200549 -0.000001
v -0.082779 0.214284 0.055309
v -0.070398 0.214284 0.070395
v -0.000002 0.200549 -0.000001
v -0.070398 0.214284 0.070395
v -0.055311 0.214284 0.082776
v -0.000002 0.200549 -0.000001
v -0.055311 0.214284 0.082776
v -0.038100 0.214284 0.091976
v -0.000002 0.200549 -0.000001
v -0.038100 0.214284 0.091976
v -0.019424 0.214284 0.097641
v -0.000002 0.200549 -0.000001
v -0.019424 0.214284 0.097641
v -0.000001 0.214284 0.099554
v -0.000002 0.200549 -0.000001
v -0.000001 0.214284 0.099554
v 0.019421 0.214284 0.097641
v -0.000002 0.200549 -0.000001
v 0.019421 0.214284 0.097641
v 0.038097 0.214284 0.091976
v -0.000002 0.200549 -0.000001
v 0.038097 0.214284 0.091976
v 0.055309 0.214284 0.082776
v -0.000002 0.200549 -0.000001
v 0.055309 0.214284 0.082776
v 0.070395 0.214284 0.070395
v -0.000002 0.200549 -0.000001
v 0.070395 0.214284 0.070395
v 0.082776 0.214284 0.055309
v -0.000002 0.200549 -0.000001
v 0.082776 0.214284 0.055309
v 0.091976 0.214284 0.038097
v -0.000002 0.200549 -0.000001
v 0.091976 0.214284 0.038097
v 0.097641 0.214284 0.019421
v -0.000002 0.200549 -0.000001
v 0.097641 0.214284 0.019421
v 0.099554 0.214284 -0.000001
v -0.000002 0.200549 -0.000001
v 0.099554 0.214284 -0.000001
v 0.097641 0.214284 -0.019424
v -0.000002 0.200549 -0.000001
v 0.097641 0.214284 -0.019424
v 0.091976 0.214284 -0.038100
v -0.000002 0.200549 -0.000001
v 0.091976 0.214284 -0.038100
v 0.082776 0.214284 -0.055312
v -0.000002 0.200549 -0.000001
v 0.082776 0.214284 -0.055312
v 0.070395 0.214284 -0.070398
v -0.000002 0.200549 -0.000001
v 0.038097 0.214284 -0.091979
v 0.019421 0.214284 -0.097644
v -0.000002 0.200549 -0.000001
v 0.019421 0.214284 -0.097644
v -0.000001 0.214284 -0.099557
vn -0.0000 1.0000 -0.0000
vn -0.2471 0.9369 0.2472
vn -0.1942 0.9369 0.2906
vn -0.1337 0.9370 0.3228
vn -0.0000 0.9369 0.3495
vn 0.0682 0.9369 0.3428
vn 0.1338 0.9369 0.3229
vn 0.1942 0.9369 0.2906
vn 0.2472 0.9369 0.2471
vn 0.2906 0.9369 0.1942
vn 0.3228 0.9370 0.1337
vn 0.3428 0.9369 0.0682
vn 0.3495 0.9369 -0.0000
vn 0.3428 0.9369 -0.0682
vn 0.3229 0.9369 -0.1338
vn 0.2906 0.9369 -0.1942
vn 0.2471 0.9369 -0.2472
vn 0.1942 0.9369 -0.2906
vn 0.1337 0.9370 -0.3229
vn 0.0682 0.9369 -0.3428
vn -0.0000 0.9370 -0.3493
vn -0.0682 0.9369 -0.3428
vn -0.1338 0.9369 -0.3229
vn -0.1942 0.9369 -0.2906
vn -0.2472 0.9369 -0.2471
vn -0.2906 0.9369 -0.1942
vn -0.3228 0.9370 -0.1337
vn -0.3229 0.9370 -0.1337
vn -0.3428 0.9369 -0.0682
vn -0.3495 0.9369 -0.0000
vn -0.3428 0.9369 0.0682
vn -0.3229 0.9369 0.1338
vn -0.2906 0.9369 0.1942
vn -0.1337 0.9370 0.3229
vn -0.0682 0.9369 0.3428
vt 1.667800 0.364230
vt 1.689650 0.323398
vt 1.697190 0.328440
vt 1.703610 0.334869
vt 1.712120 0.350808
vt 1.713890 0.359707
vt 1.713890 0.368771
vt 1.712120 0.377672
vt 1.708650 0.386060
vt 1.703610 0.393612
vt 1.697190 0.400037
vt 1.689620 0.405087
vt 1.681230 0.408567
vt 1.672320 0.410328
vt 1.663230 0.410323
vt 1.654340 0.408552
vt 1.645960 0.405075
vt 1.638410 0.400021
vt 1.631980 0.393600
vt 1.626950 0.386041
vt 1.623470 0.377641
vt 1.621710 0.368746
vt 1.621720 0.359670
vt 1.623490 0.350767
vt 1.626980 0.342385
vt 1.632010 0.334838
vt 1.638430 0.328431
vt 1.645970 0.323388
vt 1.654360 0.319911
vt 1.663280 0.318141
vt 1.672380 0.318146
vt 1.681280 0.319926
vt 1.708650 0.342417
s 1
f 1/1/1 2/2/2 3/3/3
f 4/1/1 5/3/3 6/4/4
f 7/1/1 8/5/5 9/6/6
f 10/1/1 11/6/6 12/7/7
f 13/1/1 14/7/7 15/8/8
f 16/1/1 17/8/8 18/9/9
f 19/1/1 20/9/9 21/10/10
f 22/1/1 23/10/10 24/11/11
f 25/1/1 26/11/11 27/12/12
f 28/1/1 29/12/12 30/13/13
f 31/1/1 32/13/13 33/14/14
f 34/1/1 35/14/14 36/15/15
f 37/1/1 38/15/15 39/16/16
f 40/1/1 41/16/16 42/17/17
f 43/1/1 44/17/17 45/18/18
f 46/1/1 47/18/18 48/19/19
f 49/1/1 50/19/19 51/20/20
f 52/1/1 53/20/20 54/21/21
f 55/1/1 56/21/21 57/22/22
f 58/1/1 59/22/22 60/23/23
f 61/1/1 62/23/23 63/24/24
f 64/1/1 65/24/24 66/25/25
f 67/1/1 68/25/25 69/26/26
f 70/1/1 71/26/26 72/27/27
f 73/1/1 74/27/28 75/28/29
f 76/1/1 77/28/29 78/29/30
f 79/1/1 80/29/30 81/30/31
f 82/1/1 83/30/31 84/31/32
f 85/1/1 86/31/32 87/32/33
f 88/1/1 89/32/33 90/2/2
f 91/1/1 92/4/34 93/33/35
f 94/1/1 95/33/35 96/5/5
