# Blender 5.2.0 LTS
# www.blender.org
mtllib thumbstick_left.mtl
o thumbstick_right
v -0.033298 0.000001 -0.167396
v -0.065316 0.000001 -0.157684
v -0.062775 0.026564 -0.151551
v -0.032003 0.026564 -0.160885
v -0.000001 0.000001 -0.170675
v -0.033298 0.000001 -0.167396
v -0.032003 0.026564 -0.160885
v -0.000001 0.026564 -0.164037
v -0.062775 0.026564 -0.151551
v -0.058317 0.046513 -0.140788
v -0.029731 0.046513 -0.149460
v -0.032003 0.026564 -0.160885
v -0.032003 0.026564 -0.160885
v -0.029731 0.046513 -0.149460
v -0.000001 0.046513 -0.152388
v -0.000001 0.026564 -0.164037
v 0.029728 0.046513 -0.149460
v 0.032000 0.026564 -0.160885
v -0.000001 0.026564 -0.164037
v -0.000001 0.046513 -0.152388
v 0.033295 0.000001 -0.167396
v -0.000001 0.000001 -0.170675
v -0.000001 0.026564 -0.164037
v 0.032000 0.026564 -0.160885
v 0.032000 0.026564 -0.160885
v 0.029728 0.046513 -0.149460
v 0.058314 0.046513 -0.140788
v 0.062772 0.026564 -0.151551
v 0.065313 0.000001 -0.157684
v 0.033295 0.000001 -0.167396
v 0.032000 0.026564 -0.160885
v 0.062772 0.026564 -0.151551
v 0.094820 0.000001 -0.141912
v 0.065313 0.000001 -0.157684
v 0.062772 0.026564 -0.151551
v 0.091132 0.026564 -0.136392
v 0.120683 0.000001 -0.120686
v 0.094820 0.000001 -0.141912
v 0.091132 0.026564 -0.136392
v 0.115989 0.026564 -0.115992
v 0.062772 0.026564 -0.151551
v 0.058314 0.046513 -0.140788
v 0.084660 0.046513 -0.126706
v 0.091132 0.026564 -0.136392
v 0.091132 0.026564 -0.136392
v 0.084660 0.046513 -0.126706
v 0.107752 0.046513 -0.107755
v 0.115989 0.026564 -0.115992
v 0.115989 0.026564 -0.115992
v 0.107752 0.046513 -0.107755
v 0.126703 0.046513 -0.084663
v 0.136389 0.026564 -0.091135
v 0.141909 0.000001 -0.094823
v 0.120683 0.000001 -0.120686
v 0.115989 0.026564 -0.115992
v 0.136389 0.026564 -0.091135
v 0.136389 0.026564 -0.091135
v 0.126703 0.046513 -0.084663
v 0.140785 0.046513 -0.058317
v 0.151548 0.026564 -0.062775
v 0.157681 0.000001 -0.065316
v 0.141909 0.000001 -0.094823
v 0.136389 0.026564 -0.091135
v 0.151548 0.026564 -0.062775
v 0.167393 0.000001 -0.033298
v 0.157681 0.000001 -0.065316
v 0.151548 0.026564 -0.062775
v 0.160882 0.026564 -0.032003
v 0.170672 0.000001 -0.000001
v 0.167393 0.000001 -0.033298
v 0.160882 0.026564 -0.032003
v 0.164034 0.026564 -0.000001
v 0.151548 0.026564 -0.062775
v 0.140785 0.046513 -0.058317
v 0.149457 0.046513 -0.029731
v 0.160882 0.026564 -0.032003
v 0.160882 0.026564 -0.032003
v 0.149457 0.046513 -0.029731
v 0.152385 0.046513 -0.000001
v 0.164034 0.026564 -0.000001
v 0.164034 0.026564 -0.000001
v 0.152385 0.046513 -0.000001
v 0.149457 0.046513 0.029728
v 0.160882 0.026564 0.032000
v 0.167393 0.000001 0.033295
v 0.170672 0.000001 -0.000001
v 0.164034 0.026564 -0.000001
v 0.160882 0.026564 0.032000
v 0.160882 0.026564 0.032000
v 0.149457 0.046513 0.029728
v 0.140785 0.046513 0.058314
v 0.151548 0.026564 0.062772
v 0.157681 0.000001 0.065313
v 0.167393 0.000001 0.033295
v 0.160882 0.026564 0.032000
v 0.151548 0.026564 0.062772
v 0.141909 0.000001 0.094820
v 0.157681 0.000001 0.065313
v 0.151548 0.026564 0.062772
v 0.136389 0.026564 0.091132
v 0.120683 0.000001 0.120683
v 0.141909 0.000001 0.094820
v 0.136389 0.026564 0.091132
v 0.115989 0.026564 0.115989
v 0.151548 0.026564 0.062772
v 0.140785 0.046513 0.058314
v 0.126703 0.046513 0.084660
v 0.136389 0.026564 0.091132
v 0.107752 0.046513 0.107752
v 0.115989 0.026564 0.115989
v 0.136389 0.026564 0.091132
v 0.126703 0.046513 0.084660
v 0.115989 0.026564 0.115989
v 0.107752 0.046513 0.107752
v 0.084660 0.046513 0.126703
v 0.091132 0.026564 0.136389
v 0.094820 0.000001 0.141909
v 0.120683 0.000001 0.120683
v 0.115989 0.026564 0.115989
v 0.091132 0.026564 0.136389
v 0.091132 0.026564 0.136389
v 0.084660 0.046513 0.126703
v 0.058314 0.046513 0.140785
v 0.062772 0.026564 0.151548
v 0.065313 0.000001 0.157681
v 0.094820 0.000001 0.141909
v 0.091132 0.026564 0.136389
v 0.062772 0.026564 0.151548
v 0.033295 0.000001 0.167393
v 0.065313 0.000001 0.157681
v 0.062772 0.026564 0.151548
v 0.032000 0.026564 0.160882
v -0.000001 0.000001 0.170672
v 0.033295 0.000001 0.167393
v 0.032000 0.026564 0.160882
v -0.000001 0.026564 0.164034
v 0.062772 0.026564 0.151548
v 0.058314 0.046513 0.140785
v 0.029728 0.046513 0.149457
v 0.032000 0.026564 0.160882
v 0.032000 0.026564 0.160882
v 0.029728 0.046513 0.149457
v -0.000001 0.046513 0.152385
v -0.000001 0.026564 0.164034
v -0.000001 0.026564 0.164034
v -0.000001 0.046513 0.152385
v -0.029731 0.046513 0.149457
v -0.032003 0.026564 0.160882
v -0.033298 0.000001 0.167393
v -0.000001 0.000001 0.170672
v -0.000001 0.026564 0.164034
v -0.032003 0.026564 0.160882
v -0.032003 0.026564 0.160882
v -0.029731 0.046513 0.149457
v -0.058317 0.046513 0.140785
v -0.062775 0.026564 0.151548
v -0.065316 0.000001 0.157681
v -0.033298 0.000001 0.167393
v -0.032003 0.026564 0.160882
v -0.062775 0.026564 0.151548
v -0.094823 0.000001 0.141909
v -0.065316 0.000001 0.157681
v -0.062775 0.026564 0.151548
v -0.091135 0.026564 0.136389
v -0.120686 0.000001 0.120683
v -0.094823 0.000001 0.141909
v -0.091135 0.026564 0.136389
v -0.115992 0.026564 0.115989
v -0.062775 0.026564 0.151548
v -0.058317 0.046513 0.140785
v -0.084663 0.046513 0.126703
v -0.091135 0.026564 0.136389
v -0.091135 0.026564 0.136389
v -0.084663 0.046513 0.126703
v -0.107755 0.046513 0.107752
v -0.115992 0.026564 0.115989
v -0.115992 0.026564 0.115989
v -0.107755 0.046513 0.107752
v -0.126706 0.046513 0.084660
v -0.136392 0.026564 0.091132
v -0.141912 0.000001 0.094820
v -0.120686 0.000001 0.120683
v -0.115992 0.026564 0.115989
v -0.136392 0.026564 0.091132
v -0.136392 0.026564 0.091132
v -0.126706 0.046513 0.084660
v -0.140788 0.046513 0.058314
v -0.151551 0.026564 0.062772
v -0.157684 0.000001 0.065313
v -0.141912 0.000001 0.094820
v -0.136392 0.026564 0.091132
v -0.151551 0.026564 0.062772
v -0.167396 0.000001 0.033295
v -0.157684 0.000001 0.065313
v -0.151551 0.026564 0.062772
v -0.160885 0.026564 0.032000
v -0.170675 0.000001 -0.000001
v -0.167396 0.000001 0.033295
v -0.160885 0.026564 0.032000
v -0.164037 0.026564 -0.000001
v -0.149460 0.046513 0.029728
v -0.160885 0.026564 0.032000
v -0.151551 0.026564 0.062772
v -0.140788 0.046513 0.058314
v -0.160885 0.026564 0.032000
v -0.149460 0.046513 0.029728
v -0.152388 0.046513 -0.000001
v -0.164037 0.026564 -0.000001
v -0.149460 0.046513 -0.029731
v -0.160885 0.026564 -0.032003
v -0.164037 0.026564 -0.000001
v -0.152388 0.046513 -0.000001
v -0.167396 0.000001 -0.033298
v -0.170675 0.000001 -0.000001
v -0.164037 0.026564 -0.000001
v -0.160885 0.026564 -0.032003
v -0.160885 0.026564 -0.032003
v -0.149460 0.046513 -0.029731
v -0.140788 0.046513 -0.058317
v -0.151551 0.026564 -0.062775
v -0.157684 0.000001 -0.065316
v -0.167396 0.000001 -0.033298
v -0.160885 0.026564 -0.032003
v -0.151551 0.026564 -0.062775
v -0.141912 0.000001 -0.094823
v -0.157684 0.000001 -0.065316
v -0.151551 0.026564 -0.062775
v -0.136392 0.026564 -0.091135
v -0.120686 0.000001 -0.120686
v -0.141912 0.000001 -0.094823
v -0.136392 0.026564 -0.091135
v -0.115992 0.026564 -0.115992
v -0.151551 0.026564 -0.062775
v -0.140788 0.046513 -0.058317
v -0.126706 0.046513 -0.084663
v -0.136392 0.026564 -0.091135
v -0.136392 0.026564 -0.091135
v -0.126706 0.046513 -0.084663
v -0.107755 0.046513 -0.107755
v -0.115992 0.026564 -0.115992
v -0.115992 0.026564 -0.115992
v -0.107755 0.046513 -0.107755
v -0.084663 0.046513 -0.126706
v -0.091135 0.026564 -0.136392
v -0.094823 0.000001 -0.141912
v -0.120686 0.000001 -0.120686
v -0.115992 0.026564 -0.115992
v -0.091135 0.026564 -0.136392
v -0.091135 0.026564 -0.136392
v -0.084663 0.046513 -0.126706
v -0.058317 0.046513 -0.140788
v -0.062775 0.026564 -0.151551
v -0.065316 0.000001 -0.157684
v -0.094823 0.000001 -0.141912
v -0.091135 0.026564 -0.136392
v -0.062775 0.026564 -0.151551
v -0.058317 0.046513 -0.140788
v -0.084663 0.046513 -0.126706
v -0.075497 0.067477 -0.112988
v -0.052004 0.067477 -0.125546
v -0.084663 0.046513 -0.126706
v -0.107755 0.046513 -0.107755
v -0.096089 0.067477 -0.096089
v -0.075497 0.067477 -0.112988
v -0.065194 0.080199 -0.097569
v -0.075497 0.067477 -0.112988
v -0.096089 0.067477 -0.096089
v -0.082975 0.080199 -0.082975
v -0.075497 0.067477 -0.112988
v -0.065194 0.080199 -0.097569
v -0.044907 0.080199 -0.108412
v -0.052004 0.067477 -0.125546
v -0.112988 0.067477 -0.075497
v -0.097569 0.080199 -0.065194
v -0.082975 0.080199 -0.082975
v -0.096089 0.067477 -0.096089
v -0.107755 0.046513 -0.107755
v -0.126706 0.046513 -0.084663
v -0.112988 0.067477 -0.075497
v -0.096089 0.067477 -0.096089
v -0.097569 0.080199 -0.065194
v -0.112988 0.067477 -0.075497
v -0.125546 0.067477 -0.052004
v -0.108412 0.080199 -0.044907
v -0.126706 0.046513 -0.084663
v -0.140788 0.046513 -0.058317
v -0.125546 0.067477 -0.052004
v -0.112988 0.067477 -0.075497
v -0.133279 0.067477 -0.026512
v -0.115090 0.080199 -0.022894
v -0.108412 0.080199 -0.044907
v -0.125546 0.067477 -0.052004
v -0.140788 0.046513 -0.058317
v -0.149460 0.046513 -0.029731
v -0.133279 0.067477 -0.026512
v -0.125546 0.067477 -0.052004
v -0.135890 0.067477 -0.000001
v -0.117344 0.080199 -0.000001
v -0.115090 0.080199 -0.022894
v -0.133279 0.067477 -0.026512
v -0.149460 0.046513 -0.029731
v -0.152388 0.046513 -0.000001
v -0.135890 0.067477 -0.000001
v -0.133279 0.067477 -0.026512
v -0.133279 0.067477 0.026509
v -0.115090 0.080199 0.022891
v -0.117344 0.080199 -0.000001
v -0.135890 0.067477 -0.000001
v -0.152388 0.046513 -0.000001
v -0.149460 0.046513 0.029728
v -0.133279 0.067477 0.026509
v -0.135890 0.067477 -0.000001
v -0.125546 0.067477 0.052001
v -0.108412 0.080199 0.044904
v -0.115090 0.080199 0.022891
v -0.133279 0.067477 0.026509
v -0.149460 0.046513 0.029728
v -0.140788 0.046513 0.058314
v -0.125546 0.067477 0.052001
v -0.133279 0.067477 0.026509
v -0.112988 0.067477 0.075494
v -0.097569 0.080199 0.065191
v -0.108412 0.080199 0.044904
v -0.125546 0.067477 0.052001
v -0.140788 0.046513 0.058314
v -0.126706 0.046513 0.084660
v -0.112988 0.067477 0.075494
v -0.125546 0.067477 0.052001
v -0.096089 0.067477 0.096086
v -0.082975 0.080199 0.082972
v -0.097569 0.080199 0.065191
v -0.112988 0.067477 0.075494
v -0.126706 0.046513 0.084660
v -0.107755 0.046513 0.107752
v -0.096089 0.067477 0.096086
v -0.112988 0.067477 0.075494
v -0.075497 0.067477 0.112985
v -0.065194 0.080199 0.097566
v -0.082975 0.080199 0.082972
v -0.096089 0.067477 0.096086
v -0.107755 0.046513 0.107752
v -0.084663 0.046513 0.126703
v -0.075497 0.067477 0.112985
v -0.096089 0.067477 0.096086
v -0.052004 0.067477 0.125543
v -0.044907 0.080199 0.108409
v -0.065194 0.080199 0.097566
v -0.075497 0.067477 0.112985
v -0.084663 0.046513 0.126703
v -0.058317 0.046513 0.140785
v -0.052004 0.067477 0.125543
v -0.075497 0.067477 0.112985
v -0.026512 0.067477 0.133276
v -0.022894 0.080199 0.115087
v -0.044907 0.080199 0.108409
v -0.052004 0.067477 0.125543
v -0.058317 0.046513 0.140785
v -0.029731 0.046513 0.149457
v -0.026512 0.067477 0.133276
v -0.052004 0.067477 0.125543
v -0.000001 0.067477 0.135887
v -0.000001 0.080199 0.117341
v -0.022894 0.080199 0.115087
v -0.026512 0.067477 0.133276
v -0.029731 0.046513 0.149457
v -0.000001 0.046513 0.152385
v -0.000001 0.067477 0.135887
v -0.026512 0.067477 0.133276
v -0.000001 0.080199 0.117341
v -0.000001 0.067477 0.135887
v 0.026509 0.067477 0.133276
v 0.022891 0.080199 0.115087
v -0.000001 0.046513 0.152385
v 0.029728 0.046513 0.149457
v 0.026509 0.067477 0.133276
v -0.000001 0.067477 0.135887
v 0.052001 0.067477 0.125543
v 0.044904 0.080199 0.108409
v 0.022891 0.080199 0.115087
v 0.026509 0.067477 0.133276
v 0.029728 0.046513 0.149457
v 0.058314 0.046513 0.140785
v 0.052001 0.067477 0.125543
v 0.026509 0.067477 0.133276
v 0.044904 0.080199 0.108409
v 0.052001 0.067477 0.125543
v 0.075494 0.067477 0.112985
v 0.065191 0.080199 0.097566
v 0.058314 0.046513 0.140785
v 0.084660 0.046513 0.126703
v 0.075494 0.067477 0.112985
v 0.052001 0.067477 0.125543
v 0.096086 0.067477 0.096086
v 0.082972 0.080199 0.082972
v 0.065191 0.080199 0.097566
v 0.075494 0.067477 0.112985
v 0.084660 0.046513 0.126703
v 0.107752 0.046513 0.107752
v 0.096086 0.067477 0.096086
v 0.075494 0.067477 0.112985
v 0.112986 0.067477 0.075494
v 0.097566 0.080199 0.065191
v 0.082972 0.080199 0.082972
v 0.096086 0.067477 0.096086
v 0.107752 0.046513 0.107752
v 0.126703 0.046513 0.084660
v 0.112986 0.067477 0.075494
v 0.096086 0.067477 0.096086
v 0.125543 0.067477 0.052001
v 0.108409 0.080199 0.044904
v 0.097566 0.080199 0.065191
v 0.112986 0.067477 0.075494
v 0.126703 0.046513 0.084660
v 0.140785 0.046513 0.058314
v 0.125543 0.067477 0.052001
v 0.112986 0.067477 0.075494
v 0.133276 0.067477 0.026509
v 0.115087 0.080199 0.022891
v 0.108409 0.080199 0.044904
v 0.125543 0.067477 0.052001
v 0.140785 0.046513 0.058314
v 0.149457 0.046513 0.029728
v 0.133276 0.067477 0.026509
v 0.125543 0.067477 0.052001
v 0.135887 0.067477 -0.000001
v 0.117341 0.080199 -0.000002
v 0.115087 0.080199 0.022891
v 0.133276 0.067477 0.026509
v 0.149457 0.046513 0.029728
v 0.152385 0.046513 -0.000001
v 0.135887 0.067477 -0.000001
v 0.133276 0.067477 0.026509
v 0.133276 0.067477 -0.026512
v 0.115087 0.080199 -0.022894
v 0.117341 0.080199 -0.000002
v 0.135887 0.067477 -0.000001
v 0.152385 0.046513 -0.000001
v 0.149457 0.046513 -0.029731
v 0.133276 0.067477 -0.026512
v 0.135887 0.067477 -0.000001
v 0.125543 0.067477 -0.052004
v 0.108409 0.080199 -0.044907
v 0.115087 0.080199 -0.022894
v 0.133276 0.067477 -0.026512
v 0.149457 0.046513 -0.029731
v 0.140785 0.046513 -0.058317
v 0.125543 0.067477 -0.052004
v 0.133276 0.067477 -0.026512
v 0.112985 0.067477 -0.075497
v 0.097566 0.080199 -0.065194
v 0.108409 0.080199 -0.044907
v 0.125543 0.067477 -0.052004
v 0.140785 0.046513 -0.058317
v 0.126703 0.046513 -0.084663
v 0.112985 0.067477 -0.075497
v 0.125543 0.067477 -0.052004
v 0.096086 0.067477 -0.096089
v 0.082972 0.080199 -0.082975
v 0.097566 0.080199 -0.065194
v 0.112985 0.067477 -0.075497
v 0.126703 0.046513 -0.084663
v 0.107752 0.046513 -0.107755
v 0.096086 0.067477 -0.096089
v 0.112985 0.067477 -0.075497
v 0.075494 0.067477 -0.112988
v 0.065191 0.080199 -0.097569
v 0.082972 0.080199 -0.082975
v 0.096086 0.067477 -0.096089
v 0.107752 0.046513 -0.107755
v 0.084660 0.046513 -0.126706
v 0.075494 0.067477 -0.112988
v 0.096086 0.067477 -0.096089
v 0.065191 0.080199 -0.097569
v 0.075494 0.067477 -0.112988
v 0.052001 0.067477 -0.125546
v 0.044904 0.080199 -0.108412
v 0.084660 0.046513 -0.126706
v 0.058314 0.046513 -0.140788
v 0.052001 0.067477 -0.125546
v 0.075494 0.067477 -0.112988
v 0.026509 0.067477 -0.133279
v 0.022891 0.080199 -0.115090
v 0.044904 0.080199 -0.108412
v 0.052001 0.067477 -0.125546
v 0.058314 0.046513 -0.140788
v 0.029728 0.046513 -0.149460
v 0.026509 0.067477 -0.133279
v 0.052001 0.067477 -0.125546
v -0.000001 0.067477 -0.135890
v -0.000001 0.080199 -0.117344
v 0.022891 0.080199 -0.115090
v 0.026509 0.067477 -0.133279
v 0.029728 0.046513 -0.149460
v -0.000001 0.046513 -0.152388
v -0.000001 0.067477 -0.135890
v 0.026509 0.067477 -0.133279
v -0.000001 0.080199 -0.117344
v -0.000001 0.067477 -0.135890
v -0.026512 0.067477 -0.133279
v -0.022894 0.080199 -0.115090
v -0.000001 0.046513 -0.152388
v -0.029731 0.046513 -0.149460
v -0.026512 0.067477 -0.133279
v -0.000001 0.067477 -0.135890
v -0.052004 0.067477 -0.125546
v -0.044907 0.080199 -0.108412
v -0.022894 0.080199 -0.115090
v -0.026512 0.067477 -0.133279
v -0.029731 0.046513 -0.149460
v -0.058317 0.046513 -0.140788
v -0.052004 0.067477 -0.125546
v -0.026512 0.067477 -0.133279
v -0.044907 0.080199 -0.108412
v -0.033653 0.093634 -0.081243
v -0.017157 0.093634 -0.086247
v -0.022894 0.080199 -0.115090
v -0.000001 0.093634 -0.087937
v -0.000001 0.080199 -0.117344
v -0.022894 0.080199 -0.115090
v -0.017157 0.093634 -0.086247
v -0.065194 0.080199 -0.097569
v -0.048856 0.093634 -0.073117
v -0.033653 0.093634 -0.081243
v -0.044907 0.080199 -0.108412
v -0.017157 0.093634 -0.086247
v -0.033653 0.093634 -0.081243
v -0.025035 0.098795 -0.060437
v -0.012763 0.098795 -0.064159
v -0.033653 0.093634 -0.081243
v -0.048856 0.093634 -0.073117
v -0.036344 0.098795 -0.054392
v -0.025035 0.098795 -0.060437
v -0.036344 0.098795 -0.054392
v -0.034664 0.100722 -0.051878
v -0.023878 0.100722 -0.057644
v -0.025035 0.098795 -0.060437
v -0.012173 0.100722 -0.061194
v -0.012763 0.098795 -0.064159
v -0.025035 0.098795 -0.060437
v -0.023878 0.100722 -0.057644
v -0.046257 0.098795 -0.046257
v -0.044119 0.100722 -0.044119
v -0.034664 0.100722 -0.051878
v -0.036344 0.098795 -0.054392
v -0.048856 0.093634 -0.073117
v -0.062181 0.093634 -0.062181
v -0.046257 0.098795 -0.046257
v -0.036344 0.098795 -0.054392
v -0.054392 0.098795 -0.036344
v -0.051878 0.100722 -0.034664
v -0.044119 0.100722 -0.044119
v -0.046257 0.098795 -0.046257
v -0.062181 0.093634 -0.062181
v -0.073117 0.093634 -0.048856
v -0.054392 0.098795 -0.036344
v -0.046257 0.098795 -0.046257
v -0.048856 0.093634 -0.073117
v -0.065194 0.080199 -0.097569
v -0.082975 0.080199 -0.082975
v -0.062181 0.093634 -0.062181
v -0.097569 0.080199 -0.065194
v -0.073117 0.093634 -0.048856
v -0.062181 0.093634 -0.062181
v -0.082975 0.080199 -0.082975
v -0.073117 0.093634 -0.048856
v -0.097569 0.080199 -0.065194
v -0.108412 0.080199 -0.044907
v -0.081243 0.093634 -0.033653
v -0.073117 0.093634 -0.048856
v -0.081243 0.093634 -0.033653
v -0.060437 0.098795 -0.025035
v -0.054392 0.098795 -0.036344
v -0.115090 0.080199 -0.022894
v -0.086247 0.093634 -0.017157
v -0.081243 0.093634 -0.033653
v -0.108412 0.080199 -0.044907
v -0.081243 0.093634 -0.033653
v -0.086247 0.093634 -0.017157
v -0.064159 0.098795 -0.012763
v -0.060437 0.098795 -0.025035
v -0.064159 0.098795 -0.012763
v -0.061194 0.100722 -0.012173
v -0.057644 0.100722 -0.023878
v -0.060437 0.098795 -0.025035
v -0.060437 0.098795 -0.025035
v -0.057644 0.100722 -0.023878
v -0.051878 0.100722 -0.034664
v -0.054392 0.098795 -0.036344
v -0.065416 0.098795 -0.000001
v -0.062393 0.100722 -0.000001
v -0.061194 0.100722 -0.012173
v -0.064159 0.098795 -0.012763
v -0.086247 0.093634 -0.017157
v -0.087937 0.093634 -0.000001
v -0.065416 0.098795 -0.000001
v -0.064159 0.098795 -0.012763
v -0.064159 0.098795 0.012760
v -0.061194 0.100722 0.012170
v -0.062393 0.100722 -0.000001
v -0.065416 0.098795 -0.000001
v -0.087937 0.093634 -0.000001
v -0.086247 0.093634 0.017154
v -0.064159 0.098795 0.012760
v -0.065416 0.098795 -0.000001
v -0.115090 0.080199 0.022891
v -0.086247 0.093634 0.017154
v -0.087937 0.093634 -0.000001
v -0.117344 0.080199 -0.000001
v -0.117344 0.080199 -0.000001
v -0.087937 0.093634 -0.000001
v -0.086247 0.093634 -0.017157
v -0.115090 0.080199 -0.022894
v -0.108412 0.080199 0.044904
v -0.081243 0.093634 0.033650
v -0.086247 0.093634 0.017154
v -0.115090 0.080199 0.022891
v -0.086247 0.093634 0.017154
v -0.081243 0.093634 0.033650
v -0.060437 0.098795 0.025032
v -0.064159 0.098795 0.012760
v -0.097569 0.080199 0.065191
v -0.073117 0.093634 0.048853
v -0.081243 0.093634 0.033650
v -0.108412 0.080199 0.044904
v -0.081243 0.093634 0.033650
v -0.073117 0.093634 0.048853
v -0.054392 0.098795 0.036341
v -0.060437 0.098795 0.025032
v -0.054392 0.098795 0.036341
v -0.051878 0.100722 0.034661
v -0.057644 0.100722 0.023875
v -0.060437 0.098795 0.025032
v -0.060437 0.098795 0.025032
v -0.057644 0.100722 0.023875
v -0.061194 0.100722 0.012170
v -0.064159 0.098795 0.012760
v -0.046257 0.098795 0.046254
v -0.044119 0.100722 0.044116
v -0.051878 0.100722 0.034661
v -0.054392 0.098795 0.036341
v -0.073117 0.093634 0.048853
v -0.062181 0.093634 0.062178
v -0.046257 0.098795 0.046254
v -0.054392 0.098795 0.036341
v -0.044119 0.100722 0.044116
v -0.046257 0.098795 0.046254
v -0.036344 0.098795 0.054389
v -0.034664 0.100722 0.051875
v -0.062181 0.093634 0.062178
v -0.048856 0.093634 0.073114
v -0.036344 0.098795 0.054389
v -0.046257 0.098795 0.046254
v -0.065194 0.080199 0.097566
v -0.048856 0.093634 0.073114
v -0.062181 0.093634 0.062178
v -0.082975 0.080199 0.082972
v -0.082975 0.080199 0.082972
v -0.062181 0.093634 0.062178
v -0.073117 0.093634 0.048853
v -0.097569 0.080199 0.065191
v -0.044907 0.080199 0.108409
v -0.033653 0.093634 0.081240
v -0.048856 0.093634 0.073114
v -0.065194 0.080199 0.097566
v -0.048856 0.093634 0.073114
v -0.033653 0.093634 0.081240
v -0.025035 0.098795 0.060434
v -0.036344 0.098795 0.054389
v -0.022894 0.080199 0.115087
v -0.017157 0.093634 0.086244
v -0.033653 0.093634 0.081240
v -0.044907 0.080199 0.108409
v -0.033653 0.093634 0.081240
v -0.017157 0.093634 0.086244
v -0.012763 0.098795 0.064156
v -0.025035 0.098795 0.060434
v -0.023878 0.100722 0.057641
v -0.025035 0.098795 0.060434
v -0.012763 0.098795 0.064156
v -0.012173 0.100722 0.061191
v -0.025035 0.098795 0.060434
v -0.023878 0.100722 0.057641
v -0.034664 0.100722 0.051875
v -0.036344 0.098795 0.054389
v -0.000001 0.098795 0.065413
v -0.000001 0.100722 0.062390
v -0.012173 0.100722 0.061191
v -0.012763 0.098795 0.064156
v -0.017157 0.093634 0.086244
v -0.000001 0.093634 0.087934
v -0.000001 0.098795 0.065413
v -0.012763 0.098795 0.064156
v 0.012760 0.098795 0.064156
v 0.012171 0.100722 0.061191
v -0.000001 0.100722 0.062390
v -0.000001 0.098795 0.065413
v -0.000001 0.093634 0.087934
v 0.017154 0.093634 0.086244
v 0.012760 0.098795 0.064156
v -0.000001 0.098795 0.065413
v -0.000001 0.093634 0.087934
v -0.000001 0.080199 0.117341
v 0.022891 0.080199 0.115087
v 0.017154 0.093634 0.086244
v -0.000001 0.080199 0.117341
v -0.000001 0.093634 0.087934
v -0.017157 0.093634 0.086244
v -0.022894 0.080199 0.115087
v 0.044904 0.080199 0.108409
v 0.033650 0.093634 0.081240
v 0.017154 0.093634 0.086244
v 0.022891 0.080199 0.115087
v 0.017154 0.093634 0.086244
v 0.033650 0.093634 0.081240
v 0.025032 0.098795 0.060434
v 0.012760 0.098795 0.064156
v 0.033650 0.093634 0.081240
v 0.044904 0.080199 0.108409
v 0.065191 0.080199 0.097566
v 0.048853 0.093634 0.073114
v 0.033650 0.093634 0.081240
v 0.048853 0.093634 0.073114
v 0.036341 0.098795 0.054389
v 0.025032 0.098795 0.060434
v 0.036341 0.098795 0.054389
v 0.034661 0.100722 0.051875
v 0.023875 0.100722 0.057641
v 0.025032 0.098795 0.060434
v 0.025032 0.098795 0.060434
v 0.023875 0.100722 0.057641
v 0.012171 0.100722 0.061191
v 0.012760 0.098795 0.064156
v 0.046254 0.098795 0.046254
v 0.044116 0.100722 0.044116
v 0.034661 0.100722 0.051875
v 0.036341 0.098795 0.054389
v 0.048853 0.093634 0.073114
v 0.062178 0.093634 0.062178
v 0.046254 0.098795 0.046254
v 0.036341 0.098795 0.054389
v 0.054389 0.098795 0.036341
v 0.051875 0.100722 0.034661
v 0.044116 0.100722 0.044116
v 0.046254 0.098795 0.046254
v 0.062178 0.093634 0.062178
v 0.073114 0.093634 0.048853
v 0.054389 0.098795 0.036341
v 0.046254 0.098795 0.046254
v 0.097566 0.080199 0.065191
v 0.073114 0.093634 0.048853
v 0.062178 0.093634 0.062178
v 0.082972 0.080199 0.082972
v 0.082972 0.080199 0.082972
v 0.062178 0.093634 0.062178
v 0.048853 0.093634 0.073114
v 0.065191 0.080199 0.097566
v 0.108409 0.080199 0.044904
v 0.081240 0.093634 0.033650
v 0.073114 0.093634 0.048853
v 0.097566 0.080199 0.065191
v 0.073114 0.093634 0.048853
v 0.081240 0.093634 0.033650
v 0.060434 0.098795 0.025032
v 0.054389 0.098795 0.036341
v 0.115087 0.080199 0.022891
v 0.086244 0.093634 0.017154
v 0.081240 0.093634 0.033650
v 0.108409 0.080199 0.044904
v 0.081240 0.093634 0.033650
v 0.086244 0.093634 0.017154
v 0.064156 0.098795 0.012760
v 0.060434 0.098795 0.025032
v 0.064156 0.098795 0.012760
v 0.061191 0.100722 0.012170
v 0.057641 0.100722 0.023875
v 0.060434 0.098795 0.025032
v 0.060434 0.098795 0.025032
v 0.057641 0.100722 0.023875
v 0.051875 0.100722 0.034661
v 0.054389 0.098795 0.036341
v 0.065413 0.098795 -0.000001
v 0.062390 0.100722 -0.000001
v 0.061191 0.100722 0.012170
v 0.064156 0.098795 0.012760
v 0.086244 0.093634 0.017154
v 0.087934 0.093634 -0.000002
v 0.065413 0.098795 -0.000001
v 0.064156 0.098795 0.012760
v 0.064156 0.098795 -0.012763
v 0.061191 0.100722 -0.012173
v 0.062390 0.100722 -0.000001
v 0.065413 0.098795 -0.000001
v 0.087934 0.093634 -0.000002
v 0.086244 0.093634 -0.017157
v 0.064156 0.098795 -0.012763
v 0.065413 0.098795 -0.000001
v 0.115087 0.080199 -0.022894
v 0.086244 0.093634 -0.017157
v 0.087934 0.093634 -0.000002
v 0.117341 0.080199 -0.000002
v 0.117341 0.080199 -0.000002
v 0.087934 0.093634 -0.000002
v 0.086244 0.093634 0.017154
v 0.115087 0.080199 0.022891
v 0.108409 0.080199 -0.044907
v 0.081240 0.093634 -0.033653
v 0.086244 0.093634 -0.017157
v 0.115087 0.080199 -0.022894
v 0.086244 0.093634 -0.017157
v 0.081240 0.093634 -0.033653
v 0.060434 0.098795 -0.025035
v 0.064156 0.098795 -0.012763
v 0.097566 0.080199 -0.065194
v 0.073114 0.093634 -0.048856
v 0.081240 0.093634 -0.033653
v 0.108409 0.080199 -0.044907
v 0.081240 0.093634 -0.033653
v 0.073114 0.093634 -0.048856
v 0.054389 0.098795 -0.036344
v 0.060434 0.098795 -0.025035
v 0.054389 0.098795 -0.036344
v 0.051875 0.100722 -0.034664
v 0.057641 0.100722 -0.023878
v 0.060434 0.098795 -0.025035
v 0.061191 0.100722 -0.012173
v 0.064156 0.098795 -0.012763
v 0.060434 0.098795 -0.025035
v 0.057641 0.100722 -0.023878
v 0.051875 0.100722 -0.034664
v 0.054389 0.098795 -0.036344
v 0.046254 0.098795 -0.046257
v 0.044116 0.100722 -0.044119
v 0.073114 0.093634 -0.048856
v 0.062178 0.093634 -0.062181
v 0.046254 0.098795 -0.046257
v 0.054389 0.098795 -0.036344
v 0.036341 0.098795 -0.054392
v 0.034661 0.100722 -0.051878
v 0.044116 0.100722 -0.044119
v 0.046254 0.098795 -0.046257
v 0.062178 0.093634 -0.062181
v 0.048853 0.093634 -0.073117
v 0.036341 0.098795 -0.054392
v 0.046254 0.098795 -0.046257
v 0.065191 0.080199 -0.097569
v 0.048853 0.093634 -0.073117
v 0.062178 0.093634 -0.062181
v 0.082972 0.080199 -0.082975
v 0.082972 0.080199 -0.082975
v 0.062178 0.093634 -0.062181
v 0.073114 0.093634 -0.048856
v 0.097566 0.080199 -0.065194
v 0.048853 0.093634 -0.073117
v 0.065191 0.080199 -0.097569
v 0.044904 0.080199 -0.108412
v 0.033650 0.093634 -0.081243
v 0.048853 0.093634 -0.073117
v 0.033650 0.093634 -0.081243
v 0.025032 0.098795 -0.060437
v 0.036341 0.098795 -0.054392
v 0.022891 0.080199 -0.115090
v 0.017154 0.093634 -0.086247
v 0.033650 0.093634 -0.081243
v 0.044904 0.080199 -0.108412
v 0.033650 0.093634 -0.081243
v 0.017154 0.093634 -0.086247
v 0.012760 0.098795 -0.064159
v 0.025032 0.098795 -0.060437
v 0.012760 0.098795 -0.064159
v 0.012171 0.100722 -0.061194
v 0.023875 0.100722 -0.057644
v 0.025032 0.098795 -0.060437
v 0.025032 0.098795 -0.060437
v 0.023875 0.100722 -0.057644
v 0.034661 0.100722 -0.051878
v 0.036341 0.098795 -0.054392
v -0.000001 0.098795 -0.065416
v -0.000001 0.100722 -0.062393
v 0.012171 0.100722 -0.061194
v 0.012760 0.098795 -0.064159
v 0.017154 0.093634 -0.086247
v -0.000001 0.093634 -0.087937
v -0.000001 0.098795 -0.065416
v 0.012760 0.098795 -0.064159
v -0.012763 0.098795 -0.064159
v -0.012173 0.100722 -0.061194
v -0.000001 0.100722 -0.062393
v -0.000001 0.098795 -0.065416
v -0.000001 0.093634 -0.087937
v -0.017157 0.093634 -0.086247
v -0.012763 0.098795 -0.064159
v -0.000001 0.098795 -0.065416
v -0.000001 0.080199 -0.117344
v -0.000001 0.093634 -0.087937
v 0.017154 0.093634 -0.086247
v 0.022891 0.080199 -0.115090
v -0.000001 0.100722 -0.062393
v -0.000001 0.104071 -0.061141
v 0.011926 0.104071 -0.059966
v 0.012171 0.100722 -0.061194
v -0.012173 0.100722 -0.061194
v -0.011929 0.104071 -0.059966
v -0.000001 0.104071 -0.061141
v -0.000001 0.100722 -0.062393
v -0.011929 0.104071 -0.059966
v -0.012173 0.100722 -0.061194
v -0.023878 0.100722 -0.057644
v -0.023398 0.104071 -0.056487
v -0.023398 0.104071 -0.056487
v -0.023398 0.154172 -0.056487
v -0.011929 0.154172 -0.059966
v -0.011929 0.104071 -0.059966
v -0.011929 0.104071 -0.059966
v -0.011929 0.154172 -0.059966
v -0.000001 0.154172 -0.061141
v -0.000001 0.104071 -0.061141
v -0.011929 0.154172 -0.059966
v -0.012079 0.156018 -0.060719
v -0.000001 0.156018 -0.061909
v -0.000001 0.154172 -0.061141
v -0.012079 0.156018 -0.060719
v -0.011929 0.154172 -0.059966
v -0.023398 0.154172 -0.056487
v -0.023692 0.156018 -0.057196
v -0.000001 0.154172 -0.061141
v -0.000001 0.156018 -0.061909
v 0.012076 0.156018 -0.060719
v 0.011926 0.154172 -0.059966
v -0.000001 0.104071 -0.061141
v -0.000001 0.154172 -0.061141
v 0.011926 0.154172 -0.059966
v 0.011926 0.104071 -0.059966
v 0.011926 0.154172 -0.059966
v 0.012076 0.156018 -0.060719
v 0.023689 0.156018 -0.057196
v 0.023395 0.154172 -0.056487
v 0.011926 0.104071 -0.059966
v 0.011926 0.154172 -0.059966
v 0.023395 0.154172 -0.056487
v 0.023395 0.104071 -0.056487
v 0.012171 0.100722 -0.061194
v 0.011926 0.104071 -0.059966
v 0.023395 0.104071 -0.056487
v 0.023875 0.100722 -0.057644
v 0.023875 0.100722 -0.057644
v 0.023395 0.104071 -0.056487
v 0.033966 0.104071 -0.050837
v 0.034661 0.100722 -0.051878
v 0.023395 0.104071 -0.056487
v 0.023395 0.154172 -0.056487
v 0.033966 0.154172 -0.050837
v 0.033966 0.104071 -0.050837
v 0.034661 0.100722 -0.051878
v 0.033966 0.104071 -0.050837
v 0.043230 0.104071 -0.043233
v 0.044116 0.100722 -0.044119
v 0.033966 0.104071 -0.050837
v 0.033966 0.154172 -0.050837
v 0.043230 0.154172 -0.043233
v 0.043230 0.104071 -0.043233
v 0.023395 0.154172 -0.056487
v 0.023689 0.156018 -0.057196
v 0.034392 0.156018 -0.051476
v 0.033966 0.154172 -0.050837
v 0.033966 0.154172 -0.050837
v 0.034392 0.156018 -0.051476
v 0.043774 0.156018 -0.043777
v 0.043230 0.154172 -0.043233
v 0.051473 0.156018 -0.034395
v 0.050834 0.154172 -0.033969
v 0.043230 0.154172 -0.043233
v 0.043774 0.156018 -0.043777
v 0.043230 0.104071 -0.043233
v 0.043230 0.154172 -0.043233
v 0.050834 0.154172 -0.033969
v 0.050834 0.104071 -0.033969
v 0.050834 0.154172 -0.033969
v 0.051473 0.156018 -0.034395
v 0.057193 0.156018 -0.023692
v 0.056484 0.154172 -0.023398
v 0.050834 0.104071 -0.033969
v 0.050834 0.154172 -0.033969
v 0.056484 0.154172 -0.023398
v 0.056484 0.104071 -0.023398
v 0.050834 0.104071 -0.033969
v 0.051875 0.100722 -0.034664
v 0.044116 0.100722 -0.044119
v 0.043230 0.104071 -0.043233
v 0.051875 0.100722 -0.034664
v 0.050834 0.104071 -0.033969
v 0.056484 0.104071 -0.023398
v 0.057641 0.100722 -0.023878
v 0.056484 0.104071 -0.023398
v 0.056484 0.154172 -0.023398
v 0.059963 0.154172 -0.011929
v 0.059963 0.104071 -0.011929
v 0.059963 0.104071 -0.011929
v 0.061191 0.100722 -0.012173
v 0.057641 0.100722 -0.023878
v 0.056484 0.104071 -0.023398
v 0.061191 0.100722 -0.012173
v 0.059963 0.104071 -0.011929
v 0.061138 0.104071 -0.000001
v 0.062390 0.100722 -0.000001
v 0.059963 0.104071 -0.011929
v 0.059963 0.154172 -0.011929
v 0.061138 0.154172 -0.000001
v 0.061138 0.104071 -0.000001
v 0.060716 0.156018 -0.012079
v 0.059963 0.154172 -0.011929
v 0.056484 0.154172 -0.023398
v 0.057193 0.156018 -0.023692
v 0.059963 0.154172 -0.011929
v 0.060716 0.156018 -0.012079
v 0.061906 0.156018 -0.000001
v 0.061138 0.154172 -0.000001
v 0.061138 0.154172 -0.000001
v 0.061906 0.156018 -0.000001
v 0.060716 0.156018 0.012076
v 0.059963 0.154172 0.011926
v 0.061138 0.104071 -0.000001
v 0.061138 0.154172 -0.000001
v 0.059963 0.154172 0.011926
v 0.059963 0.104071 0.011926
v 0.059963 0.154172 0.011926
v 0.060716 0.156018 0.012076
v 0.057193 0.156018 0.023689
v 0.056484 0.154172 0.023395
v 0.059963 0.104071 0.011926
v 0.059963 0.154172 0.011926
v 0.056484 0.154172 0.023395
v 0.056484 0.104071 0.023395
v 0.062390 0.100722 -0.000001
v 0.061138 0.104071 -0.000001
v 0.059963 0.104071 0.011926
v 0.061191 0.100722 0.012170
v 0.061191 0.100722 0.012170
v 0.059963 0.104071 0.011926
v 0.056484 0.104071 0.023395
v 0.057641 0.100722 0.023875
v 0.057641 0.100722 0.023875
v 0.056484 0.104071 0.023395
v 0.050834 0.104071 0.033966
v 0.051875 0.100722 0.034661
v 0.056484 0.104071 0.023395
v 0.056484 0.154172 0.023395
v 0.050834 0.154172 0.033966
v 0.050834 0.104071 0.033966
v 0.051875 0.100722 0.034661
v 0.050834 0.104071 0.033966
v 0.043230 0.104071 0.043230
v 0.044116 0.100722 0.044116
v 0.050834 0.104071 0.033966
v 0.050834 0.154172 0.033966
v 0.043230 0.154172 0.043230
v 0.043230 0.104071 0.043230
v 0.056484 0.154172 0.023395
v 0.057193 0.156018 0.023689
v 0.051473 0.156018 0.034392
v 0.050834 0.154172 0.033966
v 0.050834 0.154172 0.033966
v 0.051473 0.156018 0.034392
v 0.043774 0.156018 0.043774
v 0.043230 0.154172 0.043230
v 0.043230 0.154172 0.043230
v 0.043774 0.156018 0.043774
v 0.034392 0.156018 0.051473
v 0.033966 0.154172 0.050834
v 0.043230 0.104071 0.043230
v 0.043230 0.154172 0.043230
v 0.033966 0.154172 0.050834
v 0.033966 0.104071 0.050834
v 0.033966 0.154172 0.050834
v 0.034392 0.156018 0.051473
v 0.023689 0.156018 0.057193
v 0.023395 0.154172 0.056484
v 0.033966 0.104071 0.050834
v 0.033966 0.154172 0.050834
v 0.023395 0.154172 0.056484
v 0.023395 0.104071 0.056484
v 0.044116 0.100722 0.044116
v 0.043230 0.104071 0.043230
v 0.033966 0.104071 0.050834
v 0.034661 0.100722 0.051875
v 0.034661 0.100722 0.051875
v 0.033966 0.104071 0.050834
v 0.023395 0.104071 0.056484
v 0.023875 0.100722 0.057641
v 0.023875 0.100722 0.057641
v 0.023395 0.104071 0.056484
v 0.011926 0.104071 0.059963
v 0.012171 0.100722 0.061191
v 0.023395 0.104071 0.056484
v 0.023395 0.154172 0.056484
v 0.011926 0.154172 0.059963
v 0.011926 0.104071 0.059963
v 0.012171 0.100722 0.061191
v 0.011926 0.104071 0.059963
v -0.000001 0.104071 0.061138
v -0.000001 0.100722 0.062390
v 0.011926 0.104071 0.059963
v 0.011926 0.154172 0.059963
v -0.000001 0.154172 0.061138
v -0.000001 0.104071 0.061138
v 0.023395 0.154172 0.056484
v 0.023689 0.156018 0.057193
v 0.012076 0.156018 0.060716
v 0.011926 0.154172 0.059963
v 0.011926 0.154172 0.059963
v 0.012076 0.156018 0.060716
v -0.000001 0.156018 0.061906
v -0.000001 0.154172 0.061138
v -0.000001 0.154172 0.061138
v -0.000001 0.156018 0.061906
v -0.012079 0.156018 0.060716
v -0.011929 0.154172 0.059963
v -0.000001 0.104071 0.061138
v -0.000001 0.154172 0.061138
v -0.011929 0.154172 0.059963
v -0.011929 0.104071 0.059963
v -0.023692 0.156018 0.057193
v -0.023398 0.154172 0.056484
v -0.011929 0.154172 0.059963
v -0.012079 0.156018 0.060716
v -0.011929 0.104071 0.059963
v -0.011929 0.154172 0.059963
v -0.023398 0.154172 0.056484
v -0.023398 0.104071 0.056484
v -0.023398 0.104071 0.056484
v -0.023878 0.100722 0.057641
v -0.012173 0.100722 0.061191
v -0.011929 0.104071 0.059963
v -0.000001 0.100722 0.062390
v -0.000001 0.104071 0.061138
v -0.011929 0.104071 0.059963
v -0.012173 0.100722 0.061191
v -0.023878 0.100722 0.057641
v -0.023398 0.104071 0.056484
v -0.033968 0.104071 0.050834
v -0.034664 0.100722 0.051875
v -0.023398 0.104071 0.056484
v -0.023398 0.154172 0.056484
v -0.033968 0.154172 0.050834
v -0.033968 0.104071 0.050834
v -0.033968 0.104071 0.050834
v -0.033968 0.154172 0.050834
v -0.043233 0.154172 0.043230
v -0.043233 0.104071 0.043230
v -0.043233 0.104071 0.043230
v -0.044119 0.100722 0.044116
v -0.034664 0.100722 0.051875
v -0.033968 0.104071 0.050834
v -0.023398 0.154172 0.056484
v -0.023692 0.156018 0.057193
v -0.034395 0.156018 0.051473
v -0.033968 0.154172 0.050834
v -0.043777 0.156018 0.043774
v -0.043233 0.154172 0.043230
v -0.033968 0.154172 0.050834
v -0.034395 0.156018 0.051473
v -0.043233 0.154172 0.043230
v -0.043777 0.156018 0.043774
v -0.051476 0.156018 0.034392
v -0.050837 0.154172 0.033966
v -0.043233 0.104071 0.043230
v -0.043233 0.154172 0.043230
v -0.050837 0.154172 0.033966
v -0.050837 0.104071 0.033966
v -0.050837 0.154172 0.033966
v -0.051476 0.156018 0.034392
v -0.057196 0.156018 0.023689
v -0.056487 0.154172 0.023395
v -0.050837 0.104071 0.033966
v -0.050837 0.154172 0.033966
v -0.056487 0.154172 0.023395
v -0.056487 0.104071 0.023395
v -0.044119 0.100722 0.044116
v -0.043233 0.104071 0.043230
v -0.050837 0.104071 0.033966
v -0.051878 0.100722 0.034661
v -0.051878 0.100722 0.034661
v -0.050837 0.104071 0.033966
v -0.056487 0.104071 0.023395
v -0.057644 0.100722 0.023875
v -0.057644 0.100722 0.023875
v -0.056487 0.104071 0.023395
v -0.059966 0.104071 0.011926
v -0.061194 0.100722 0.012170
v -0.056487 0.104071 0.023395
v -0.056487 0.154172 0.023395
v -0.059966 0.154172 0.011926
v -0.059966 0.104071 0.011926
v -0.061194 0.100722 0.012170
v -0.059966 0.104071 0.011926
v -0.061141 0.104071 -0.000001
v -0.062393 0.100722 -0.000001
v -0.059966 0.104071 0.011926
v -0.059966 0.154172 0.011926
v -0.061141 0.154172 -0.000001
v -0.061141 0.104071 -0.000001
v -0.056487 0.154172 0.023395
v -0.057196 0.156018 0.023689
v -0.060719 0.156018 0.012076
v -0.059966 0.154172 0.011926
v -0.059966 0.154172 0.011926
v -0.060719 0.156018 0.012076
v -0.061909 0.156018 -0.000001
v -0.061141 0.154172 -0.000001
v -0.061141 0.154172 -0.000001
v -0.061909 0.156018 -0.000001
v -0.060719 0.156018 -0.012079
v -0.059966 0.154172 -0.011929
v -0.061141 0.104071 -0.000001
v -0.061141 0.154172 -0.000001
v -0.059966 0.154172 -0.011929
v -0.059966 0.104071 -0.011929
v -0.059966 0.154172 -0.011929
v -0.060719 0.156018 -0.012079
v -0.057196 0.156018 -0.023692
v -0.056487 0.154172 -0.023398
v -0.059966 0.104071 -0.011929
v -0.059966 0.154172 -0.011929
v -0.056487 0.154172 -0.023398
v -0.056487 0.104071 -0.023398
v -0.062393 0.100722 -0.000001
v -0.061141 0.104071 -0.000001
v -0.059966 0.104071 -0.011929
v -0.061194 0.100722 -0.012173
v -0.061194 0.100722 -0.012173
v -0.059966 0.104071 -0.011929
v -0.056487 0.104071 -0.023398
v -0.057644 0.100722 -0.023878
v -0.057644 0.100722 -0.023878
v -0.056487 0.104071 -0.023398
v -0.050837 0.104071 -0.033969
v -0.051878 0.100722 -0.034664
v -0.056487 0.104071 -0.023398
v -0.056487 0.154172 -0.023398
v -0.050837 0.154172 -0.033969
v -0.050837 0.104071 -0.033969
v -0.051878 0.100722 -0.034664
v -0.050837 0.104071 -0.033969
v -0.043233 0.104071 -0.043233
v -0.044119 0.100722 -0.044119
v -0.050837 0.104071 -0.033969
v -0.050837 0.154172 -0.033969
v -0.043233 0.154172 -0.043233
v -0.043233 0.104071 -0.043233
v -0.056487 0.154172 -0.023398
v -0.057196 0.156018 -0.023692
v -0.051476 0.156018 -0.034395
v -0.050837 0.154172 -0.033969
v -0.050837 0.154172 -0.033969
v -0.051476 0.156018 -0.034395
v -0.043777 0.156018 -0.043777
v -0.043233 0.154172 -0.043233
v -0.043233 0.154172 -0.043233
v -0.043777 0.156018 -0.043777
v -0.034395 0.156018 -0.051476
v -0.033969 0.154172 -0.050837
v -0.043233 0.104071 -0.043233
v -0.043233 0.154172 -0.043233
v -0.033969 0.154172 -0.050837
v -0.033969 0.104071 -0.050837
v -0.033969 0.154172 -0.050837
v -0.034395 0.156018 -0.051476
v -0.023692 0.156018 -0.057196
v -0.023398 0.154172 -0.056487
v -0.033969 0.104071 -0.050837
v -0.033969 0.154172 -0.050837
v -0.023398 0.154172 -0.056487
v -0.023398 0.104071 -0.056487
v -0.044119 0.100722 -0.044119
v -0.043233 0.104071 -0.043233
v -0.033969 0.104071 -0.050837
v -0.034664 0.100722 -0.051878
v -0.034664 0.100722 -0.051878
v -0.033969 0.104071 -0.050837
v -0.023398 0.104071 -0.056487
v -0.023878 0.100722 -0.057644
vn -0.1893 0.2425 -0.9515
vn -0.3713 0.2425 -0.8963
vn -0.3549 0.3741 -0.8568
vn -0.1809 0.3741 -0.9096
vn -0.0000 0.2424 -0.9702
vn -0.1809 0.3740 -0.9096
vn -0.0000 0.3741 -0.9274
vn -0.3169 0.5607 -0.7650
vn -0.1615 0.5607 -0.8121
vn -0.0000 0.5607 -0.8280
vn 0.1615 0.5607 -0.8121
vn 0.1809 0.3741 -0.9096
vn 0.1893 0.2425 -0.9515
vn 0.3169 0.5607 -0.7650
vn 0.3549 0.3741 -0.8568
vn 0.3713 0.2425 -0.8963
vn 0.5389 0.2425 -0.8067
vn 0.5152 0.3741 -0.7711
vn 0.6860 0.2425 -0.6860
vn 0.5390 0.2425 -0.8066
vn 0.6558 0.3740 -0.6558
vn 0.4600 0.5607 -0.6885
vn 0.5855 0.5607 -0.5855
vn 0.6558 0.3741 -0.6558
vn 0.6885 0.5607 -0.4600
vn 0.7711 0.3741 -0.5152
vn 0.8066 0.2425 -0.5390
vn 0.7650 0.5607 -0.3169
vn 0.8568 0.3741 -0.3549
vn 0.8963 0.2425 -0.3713
vn 0.8067 0.2425 -0.5389
vn 0.9515 0.2425 -0.1893
vn 0.9096 0.3741 -0.1809
vn 0.9702 0.2424 -0.0000
vn 0.9096 0.3740 -0.1809
vn 0.9274 0.3741 -0.0000
vn 0.8121 0.5607 -0.1615
vn 0.8280 0.5607 -0.0000
vn 0.8121 0.5607 0.1615
vn 0.9096 0.3741 0.1809
vn 0.9515 0.2425 0.1893
vn 0.7650 0.5607 0.3169
vn 0.8568 0.3741 0.3549
vn 0.8963 0.2425 0.3713
vn 0.8067 0.2425 0.5389
vn 0.7711 0.3741 0.5152
vn 0.6860 0.2425 0.6860
vn 0.8066 0.2425 0.5390
vn 0.6558 0.3740 0.6558
vn 0.6885 0.5607 0.4600
vn 0.5855 0.5607 0.5855
vn 0.6558 0.3741 0.6558
vn 0.4600 0.5607 0.6885
vn 0.5152 0.3741 0.7711
vn 0.5390 0.2425 0.8066
vn 0.3169 0.5607 0.7650
vn 0.3549 0.3741 0.8568
vn 0.3713 0.2425 0.8963
vn 0.5389 0.2425 0.8067
vn 0.1893 0.2425 0.9515
vn 0.1809 0.3741 0.9096
vn -0.0000 0.2425 0.9702
vn 0.1809 0.3740 0.9096
vn -0.0000 0.3741 0.9274
vn 0.1615 0.5607 0.8121
vn -0.0000 0.5607 0.8280
vn -0.1615 0.5607 0.8121
vn -0.1809 0.3741 0.9096
vn -0.1893 0.2425 0.9515
vn -0.3169 0.5607 0.7650
vn -0.3549 0.3741 0.8568
vn -0.3713 0.2425 0.8963
vn -0.5389 0.2425 0.8067
vn -0.5152 0.3741 0.7711
vn -0.6860 0.2425 0.6860
vn -0.5390 0.2425 0.8066
vn -0.6558 0.3740 0.6558
vn -0.4600 0.5607 0.6885
vn -0.5855 0.5607 0.5855
vn -0.6558 0.3741 0.6558
vn -0.6885 0.5607 0.4600
vn -0.7711 0.3741 0.5152
vn -0.8066 0.2425 0.5390
vn -0.7650 0.5607 0.3169
vn -0.8568 0.3741 0.3549
vn -0.8963 0.2425 0.3713
vn -0.8067 0.2425 0.5389
vn -0.9515 0.2425 0.1893
vn -0.9096 0.3741 0.1809
vn -0.9702 0.2425 -0.0000
vn -0.9274 0.3741 -0.0000
vn -0.8121 0.5607 0.1615
vn -0.8280 0.5607 -0.0000
vn -0.8121 0.5607 -0.1615
vn -0.9096 0.3741 -0.1809
vn -0.9515 0.2425 -0.1893
vn -0.7650 0.5607 -0.3169
vn -0.8568 0.3741 -0.3549
vn -0.8963 0.2425 -0.3713
vn -0.8067 0.2425 -0.5389
vn -0.7711 0.3741 -0.5152
vn -0.6860 0.2425 -0.6860
vn -0.8066 0.2425 -0.5390
vn -0.6558 0.3740 -0.6558
vn -0.6885 0.5607 -0.4600
vn -0.5855 0.5607 -0.5855
vn -0.6558 0.3741 -0.6558
vn -0.4600 0.5607 -0.6885
vn -0.5152 0.3741 -0.7711
vn -0.5390 0.2425 -0.8066
vn -0.5389 0.2425 -0.8067
vn -0.3825 0.7252 -0.5725
vn -0.2635 0.7252 -0.6361
vn -0.4869 0.7251 -0.4869
vn -0.2759 0.8680 -0.4128
vn -0.4869 0.7252 -0.4869
vn -0.3511 0.8680 -0.3511
vn -0.1900 0.8680 -0.4587
vn -0.5725 0.7252 -0.3825
vn -0.4128 0.8680 -0.2759
vn -0.6361 0.7252 -0.2635
vn -0.4587 0.8680 -0.1900
vn -0.6753 0.7252 -0.1343
vn -0.4870 0.8680 -0.0969
vn -0.6885 0.7252 -0.0000
vn -0.4965 0.8680 -0.0000
vn -0.6886 0.7252 -0.0000
vn -0.6753 0.7252 0.1343
vn -0.4870 0.8680 0.0969
vn -0.4966 0.8680 -0.0000
vn -0.6361 0.7252 0.2635
vn -0.4588 0.8680 0.1900
vn -0.6362 0.7252 0.2635
vn -0.5725 0.7252 0.3825
vn -0.4128 0.8680 0.2759
vn -0.4587 0.8680 0.1900
vn -0.4869 0.7252 0.4869
vn -0.3511 0.8680 0.3511
vn -0.4869 0.7251 0.4869
vn -0.3825 0.7252 0.5725
vn -0.2759 0.8680 0.4128
vn -0.2635 0.7252 0.6361
vn -0.1900 0.8680 0.4587
vn -0.1343 0.7252 0.6753
vn -0.0969 0.8680 0.4870
vn -0.0000 0.7252 0.6885
vn -0.0000 0.8680 0.4965
vn -0.0000 0.7252 0.6886
vn -0.0000 0.8680 0.4966
vn 0.1343 0.7252 0.6753
vn 0.0969 0.8680 0.4870
vn 0.2635 0.7252 0.6361
vn 0.1900 0.8680 0.4588
vn 0.2635 0.7252 0.6362
vn 0.1900 0.8680 0.4587
vn 0.3825 0.7252 0.5725
vn 0.2759 0.8680 0.4128
vn 0.4869 0.7252 0.4869
vn 0.3511 0.8680 0.3511
vn 0.4869 0.7251 0.4869
vn 0.5725 0.7252 0.3825
vn 0.4128 0.8680 0.2758
vn 0.6361 0.7252 0.2635
vn 0.4587 0.8680 0.1900
vn 0.6753 0.7252 0.1343
vn 0.4870 0.8680 0.0969
vn 0.6885 0.7252 -0.0000
vn 0.4965 0.8680 -0.0000
vn 0.6753 0.7252 -0.1343
vn 0.4870 0.8680 -0.0969
vn 0.4966 0.8680 -0.0000
vn 0.6886 0.7252 -0.0000
vn 0.6361 0.7252 -0.2635
vn 0.4588 0.8680 -0.1900
vn 0.6362 0.7252 -0.2635
vn 0.5725 0.7252 -0.3825
vn 0.4128 0.8680 -0.2759
vn 0.4587 0.8680 -0.1900
vn 0.4869 0.7252 -0.4869
vn 0.3511 0.8680 -0.3511
vn 0.4869 0.7251 -0.4869
vn 0.3825 0.7252 -0.5725
vn 0.2759 0.8680 -0.4128
vn 0.2635 0.7252 -0.6361
vn 0.1900 0.8680 -0.4587
vn 0.1343 0.7252 -0.6753
vn 0.0969 0.8680 -0.4870
vn -0.0000 0.7252 -0.6885
vn -0.0000 0.8680 -0.4965
vn -0.0000 0.7252 -0.6886
vn -0.1343 0.7252 -0.6753
vn -0.0969 0.8680 -0.4870
vn -0.1900 0.8680 -0.4588
vn -0.2635 0.7252 -0.6362
vn -0.1251 0.9451 -0.3019
vn -0.0638 0.9451 -0.3205
vn -0.0000 0.9451 -0.3268
vn -0.1816 0.9451 -0.2717
vn -0.1442 0.9262 -0.3483
vn -0.0735 0.9263 -0.3697
vn -0.2094 0.9263 -0.3134
vn -0.2094 0.9262 -0.3135
vn -0.4273 0.6392 -0.6395
vn -0.2943 0.6391 -0.7106
vn -0.1500 0.6391 -0.7543
vn -0.0735 0.9262 -0.3698
vn -0.2665 0.9262 -0.2666
vn -0.5438 0.6392 -0.5438
vn -0.4273 0.6391 -0.6395
vn -0.2094 0.9262 -0.3134
vn -0.2311 0.9451 -0.2311
vn -0.2665 0.9263 -0.2665
vn -0.3134 0.9262 -0.2095
vn -0.6395 0.6391 -0.4273
vn -0.2666 0.9262 -0.2665
vn -0.2717 0.9451 -0.1816
vn -0.3134 0.9263 -0.2094
vn -0.3019 0.9451 -0.1251
vn -0.3483 0.9262 -0.1442
vn -0.3205 0.9451 -0.0638
vn -0.3697 0.9263 -0.0735
vn -0.3697 0.9262 -0.0735
vn -0.7544 0.6391 -0.1500
vn -0.7106 0.6391 -0.2943
vn -0.6395 0.6392 -0.4273
vn -0.3135 0.9262 -0.2094
vn -0.3770 0.9262 -0.0000
vn -0.7691 0.6391 -0.0000
vn -0.7543 0.6391 -0.1500
vn -0.3698 0.9262 -0.0735
vn -0.3268 0.9451 -0.0000
vn -0.3697 0.9262 0.0735
vn -0.7543 0.6391 0.1500
vn -0.3205 0.9451 0.0638
vn -0.3697 0.9263 0.0735
vn -0.3019 0.9451 0.1250
vn -0.3483 0.9262 0.1442
vn -0.2717 0.9451 0.1816
vn -0.3134 0.9263 0.2094
vn -0.3135 0.9262 0.2094
vn -0.6395 0.6392 0.4273
vn -0.7106 0.6391 0.2943
vn -0.7544 0.6391 0.1500
vn -0.2666 0.9262 0.2665
vn -0.5438 0.6392 0.5438
vn -0.6395 0.6391 0.4273
vn -0.3134 0.9262 0.2094
vn -0.2311 0.9451 0.2311
vn -0.2665 0.9263 0.2665
vn -0.5438 0.6391 0.5438
vn -0.2665 0.9262 0.2666
vn -0.2095 0.9262 0.3134
vn -0.4273 0.6391 0.6395
vn -0.1816 0.9451 0.2717
vn -0.2094 0.9263 0.3134
vn -0.1251 0.9451 0.3019
vn -0.1442 0.9262 0.3483
vn -0.0638 0.9451 0.3205
vn -0.0735 0.9263 0.3697
vn -0.2943 0.6391 0.7106
vn -0.1442 0.9262 0.3484
vn -0.0735 0.9262 0.3697
vn -0.1500 0.6391 0.7544
vn -0.4272 0.6391 0.6395
vn -0.2094 0.9262 0.3135
vn -0.0000 0.9262 0.3770
vn -0.0000 0.6391 0.7691
vn -0.1499 0.6391 0.7543
vn -0.0735 0.9262 0.3698
vn -0.0000 0.9451 0.3268
vn 0.0735 0.9262 0.3697
vn 0.1501 0.6391 0.7543
vn 0.0638 0.9451 0.3205
vn 0.0735 0.9263 0.3697
vn 0.1251 0.9451 0.3019
vn 0.1442 0.9262 0.3483
vn 0.1816 0.9451 0.2717
vn 0.2094 0.9263 0.3134
vn 0.2094 0.9262 0.3135
vn 0.4273 0.6392 0.6395
vn 0.2943 0.6391 0.7106
vn 0.0735 0.9262 0.3698
vn 0.2665 0.9262 0.2666
vn 0.5438 0.6392 0.5438
vn 0.4273 0.6391 0.6395
vn 0.2311 0.9451 0.2311
vn 0.2665 0.9263 0.2665
vn 0.3134 0.9262 0.2095
vn 0.6395 0.6391 0.4273
vn 0.2666 0.9262 0.2665
vn 0.2717 0.9451 0.1816
vn 0.3134 0.9263 0.2094
vn 0.3019 0.9451 0.1251
vn 0.4128 0.8681 0.2758
vn 0.3483 0.9262 0.1442
vn 0.3205 0.9451 0.0638
vn 0.3697 0.9263 0.0735
vn 0.3697 0.9262 0.0735
vn 0.7544 0.6391 0.1500
vn 0.7106 0.6391 0.2943
vn 0.3135 0.9262 0.2094
vn 0.3770 0.9262 -0.0000
vn 0.7691 0.6391 -0.0000
vn 0.7543 0.6391 0.1500
vn 0.3698 0.9262 0.0735
vn 0.3268 0.9451 -0.0000
vn 0.3697 0.9262 -0.0735
vn 0.7543 0.6391 -0.1500
vn 0.3205 0.9451 -0.0638
vn 0.3697 0.9263 -0.0735
vn 0.3019 0.9451 -0.1250
vn 0.3483 0.9262 -0.1442
vn 0.2717 0.9451 -0.1816
vn 0.3134 0.9263 -0.2094
vn 0.3135 0.9262 -0.2094
vn 0.6395 0.6392 -0.4273
vn 0.7106 0.6391 -0.2943
vn 0.3698 0.9262 -0.0735
vn 0.6395 0.6391 -0.4273
vn 0.3134 0.9262 -0.2094
vn 0.2666 0.9262 -0.2665
vn 0.5438 0.6392 -0.5438
vn 0.2311 0.9451 -0.2311
vn 0.2665 0.9263 -0.2665
vn 0.2095 0.9262 -0.3134
vn 0.4273 0.6391 -0.6395
vn 0.5438 0.6391 -0.5438
vn 0.2665 0.9262 -0.2666
vn 0.1816 0.9451 -0.2717
vn 0.2094 0.9263 -0.3134
vn 0.1251 0.9451 -0.3019
vn 0.1442 0.9262 -0.3483
vn 0.0638 0.9451 -0.3205
vn 0.0735 0.9263 -0.3697
vn 0.0735 0.9262 -0.3697
vn 0.1501 0.6391 -0.7543
vn 0.2943 0.6391 -0.7106
vn 0.1442 0.9262 -0.3484
vn 0.4272 0.6391 -0.6395
vn 0.2094 0.9262 -0.3134
vn -0.0000 0.9262 -0.3770
vn -0.0000 0.6391 -0.7691
vn -0.0735 0.9262 -0.3697
vn -0.0000 0.6390 -0.7692
vn -0.0000 0.1799 -0.9837
vn 0.1919 0.1800 -0.9648
vn 0.1501 0.6390 -0.7544
vn -0.1500 0.6391 -0.7544
vn -0.1919 0.1799 -0.9648
vn -0.0000 0.1800 -0.9837
vn -0.3764 0.1800 -0.9088
vn -0.3764 0.1799 -0.9088
vn -0.3751 -0.1981 -0.9056
vn -0.1912 -0.1982 -0.9613
vn -0.1912 -0.1981 -0.9613
vn -0.0000 -0.1982 -0.9802
vn -0.1353 -0.7205 -0.6801
vn -0.0000 -0.7204 -0.6935
vn -0.3751 -0.1982 -0.9056
vn -0.2654 -0.7205 -0.6407
vn -0.0000 -0.7205 -0.6935
vn 0.1353 -0.7204 -0.6802
vn 0.1912 -0.1982 -0.9613
vn 0.1919 0.1799 -0.9648
vn 0.2654 -0.7205 -0.6407
vn 0.3751 -0.1982 -0.9056
vn 0.3750 -0.1981 -0.9056
vn 0.3764 0.1799 -0.9088
vn 0.5465 0.1799 -0.8179
vn 0.3751 -0.1981 -0.9056
vn 0.5446 -0.1983 -0.8149
vn 0.4274 0.6391 -0.6395
vn 0.6955 0.1799 -0.6956
vn 0.5438 0.6391 -0.5439
vn 0.6930 -0.1983 -0.6931
vn 0.6956 0.1799 -0.6956
vn 0.3751 -0.1982 -0.9055
vn 0.3852 -0.7204 -0.5767
vn 0.3852 -0.7205 -0.5767
vn 0.4903 -0.7206 -0.4903
vn 0.6930 -0.1984 -0.6931
vn 0.5766 -0.7205 -0.3853
vn 0.8149 -0.1983 -0.5446
vn 0.6931 -0.1984 -0.6930
vn 0.6931 -0.1983 -0.6931
vn 0.8179 0.1799 -0.5465
vn 0.6407 -0.7205 -0.2654
vn 0.9055 -0.1982 -0.3751
vn 0.9056 -0.1981 -0.3751
vn 0.9088 0.1799 -0.3764
vn 0.5439 0.6391 -0.5438
vn 0.9088 0.1800 -0.3764
vn 0.9613 -0.1982 -0.1912
vn 0.9648 0.1799 -0.1919
vn 0.7544 0.6391 -0.1500
vn 0.9648 0.1800 -0.1919
vn 0.9837 0.1800 -0.0000
vn 0.7692 0.6390 -0.0000
vn 0.9613 -0.1981 -0.1912
vn 0.9802 -0.1982 -0.0000
vn 0.9837 0.1799 -0.0000
vn 0.6801 -0.7205 -0.1353
vn 0.9613 -0.1983 -0.1912
vn 0.9056 -0.1982 -0.3751
vn 0.6935 -0.7205 -0.0000
vn 0.6802 -0.7204 0.1353
vn 0.9613 -0.1983 0.1912
vn 0.9613 -0.1982 0.1912
vn 0.9648 0.1799 0.1919
vn 0.6407 -0.7205 0.2654
vn 0.9056 -0.1982 0.3751
vn 0.9056 -0.1981 0.3750
vn 0.9088 0.1799 0.3764
vn 0.7544 0.6390 0.1500
vn 0.9648 0.1800 0.1919
vn 0.8179 0.1800 0.5465
vn 0.9056 -0.1981 0.3751
vn 0.8150 -0.1983 0.5446
vn 0.8179 0.1799 0.5465
vn 0.6395 0.6391 0.4274
vn 0.6956 0.1799 0.6955
vn 0.5439 0.6391 0.5438
vn 0.8149 -0.1983 0.5446
vn 0.6931 -0.1983 0.6930
vn 0.6956 0.1799 0.6956
vn 0.9055 -0.1982 0.3751
vn 0.5767 -0.7204 0.3852
vn 0.4903 -0.7206 0.4903
vn 0.6930 -0.1984 0.6930
vn 0.6930 -0.1984 0.6931
vn 0.4903 -0.7205 0.4903
vn 0.3852 -0.7205 0.5766
vn 0.5446 -0.1983 0.8149
vn 0.6930 -0.1983 0.6931
vn 0.5465 0.1799 0.8179
vn 0.2654 -0.7205 0.6407
vn 0.3751 -0.1982 0.9055
vn 0.3751 -0.1981 0.9056
vn 0.3764 0.1799 0.9088
vn 0.5438 0.6391 0.5439
vn 0.5465 0.1800 0.8179
vn 0.3764 0.1800 0.9088
vn 0.1919 0.1799 0.9648
vn 0.1501 0.6390 0.7544
vn 0.1912 -0.1982 0.9613
vn 0.1501 0.6391 0.7544
vn -0.0000 0.1799 0.9837
vn -0.0000 0.6390 0.7692
vn 0.1912 -0.1981 0.9613
vn -0.0000 -0.1982 0.9802
vn 0.3751 -0.1982 0.9056
vn 0.1353 -0.7205 0.6801
vn 0.1912 -0.1983 0.9613
vn -0.0000 -0.7205 0.6935
vn -0.1353 -0.7205 0.6801
vn -0.1912 -0.1982 0.9613
vn -0.1919 0.1799 0.9648
vn -0.2654 -0.7205 0.6407
vn -0.3751 -0.1982 0.9056
vn -0.1912 -0.1983 0.9613
vn -0.3750 -0.1981 0.9056
vn -0.3764 0.1799 0.9088
vn -0.1500 0.6390 0.7544
vn -0.0000 0.1800 0.9837
vn -0.5465 0.1801 0.8179
vn -0.5445 -0.1984 0.8149
vn -0.5465 0.1800 0.8179
vn -0.6930 -0.1984 0.6931
vn -0.6955 0.1800 0.6956
vn -0.5438 0.6391 0.5439
vn -0.3751 -0.1982 0.9055
vn -0.3852 -0.7205 0.5767
vn -0.5445 -0.1985 0.8149
vn -0.4904 -0.7203 0.4906
vn -0.3852 -0.7205 0.5766
vn -0.4904 -0.7203 0.4905
vn -0.5766 -0.7205 0.3852
vn -0.8149 -0.1983 0.5446
vn -0.6930 -0.1983 0.6931
vn -0.8179 0.1799 0.5465
vn -0.8149 -0.1983 0.5445
vn -0.6407 -0.7204 0.2654
vn -0.9054 -0.1986 0.3752
vn -0.8150 -0.1983 0.5446
vn -0.9088 0.1799 0.3764
vn -0.5439 0.6391 0.5438
vn -0.8179 0.1800 0.5465
vn -0.9088 0.1800 0.3764
vn -0.9648 0.1799 0.1919
vn -0.7544 0.6390 0.1500
vn -0.9613 -0.1982 0.1912
vn -0.9648 0.1800 0.1919
vn -0.9837 0.1799 -0.0000
vn -0.7692 0.6390 -0.0000
vn -0.9802 -0.1982 -0.0000
vn -0.6408 -0.7204 0.2654
vn -0.6803 -0.7203 0.1353
vn -0.6803 -0.7204 0.1353
vn -0.6935 -0.7205 -0.0000
vn -0.6802 -0.7205 -0.1353
vn -0.9613 -0.1983 -0.1912
vn -0.9613 -0.1982 -0.1912
vn -0.9648 0.1799 -0.1919
vn -0.6408 -0.7204 -0.2654
vn -0.9056 -0.1982 -0.3751
vn -0.9056 -0.1981 -0.3750
vn -0.9088 0.1799 -0.3764
vn -0.7544 0.6390 -0.1500
vn -0.8179 0.1799 -0.5465
vn -0.9056 -0.1981 -0.3751
vn -0.8150 -0.1983 -0.5445
vn -0.6395 0.6391 -0.4274
vn -0.6956 0.1799 -0.6956
vn -0.5439 0.6391 -0.5438
vn -0.8149 -0.1983 -0.5446
vn -0.6931 -0.1983 -0.6930
vn -0.9055 -0.1982 -0.3751
vn -0.5767 -0.7205 -0.3852
vn -0.8149 -0.1983 -0.5445
vn -0.5767 -0.7204 -0.3852
vn -0.4903 -0.7206 -0.4903
vn -0.6931 -0.1984 -0.6930
vn -0.6930 -0.1984 -0.6931
vn -0.3853 -0.7205 -0.5766
vn -0.5446 -0.1983 -0.8149
vn -0.6931 -0.1983 -0.6931
vn -0.5465 0.1799 -0.8179
vn -0.5445 -0.1983 -0.8150
vn -0.3751 -0.1982 -0.9055
vn -0.5446 -0.1983 -0.8150
vn -0.5438 0.6391 -0.5439
vn -0.6956 0.1800 -0.6956
vn -0.5465 0.1800 -0.8179
vt 1.317770 0.871272
vt 1.325960 0.853857
vt 1.338660 0.861427
vt 1.331940 0.876233
vt 1.313090 0.890331
vt 1.328380 0.892201
vt 1.348420 0.867021
vt 1.342600 0.879812
vt 1.339630 0.893599
vt 1.339390 0.907692
vt 1.327980 0.908642
vt 1.312960 0.910061
vt 1.341880 0.921574
vt 1.331060 0.924754
vt 1.316770 0.929113
vt 1.324150 0.946870
vt 1.337200 0.939832
vt 1.334810 0.962778
vt 1.346170 0.953379
vt 1.347220 0.934600
vt 1.354970 0.946247
vt 1.364700 0.956239
vt 1.357580 0.964820
vt 1.348290 0.976205
vt 1.376280 0.964014
vt 1.370910 0.973819
vt 1.364010 0.986748
vt 1.381450 0.994092
vt 1.385730 0.980063
vt 1.400050 0.997941
vt 1.401500 0.983338
vt 1.389100 0.969371
vt 1.402680 0.972129
vt 1.416600 0.972327
vt 1.417630 0.983413
vt 1.419070 0.998045
vt 1.430230 0.969572
vt 1.433470 0.980361
vt 1.437760 0.994394
vt 1.455320 0.987094
vt 1.448360 0.974213
vt 1.471010 0.976531
vt 1.461700 0.965317
vt 1.443070 0.964366
vt 1.454620 0.956731
vt 1.464450 0.947014
vt 1.473030 0.954042
vt 1.484260 0.963191
vt 1.472210 0.935606
vt 1.481940 0.940854
vt 1.494610 0.947658
vt 1.501800 0.930619
vt 1.488220 0.926249
vt 1.506130 0.912332
vt 1.491410 0.910649
vt 1.477680 0.922921
vt 1.480450 0.909371
vt 1.480580 0.895555
vt 1.491690 0.894649
vt 1.506320 0.893309
vt 1.478050 0.881940
vt 1.488760 0.878869
vt 1.502800 0.874681
vt 1.495700 0.857091
vt 1.482750 0.863963
vt 1.485240 0.841235
vt 1.473930 0.850522
vt 1.472830 0.869101
vt 1.465190 0.857601
vt 1.455560 0.847721
vt 1.462620 0.839122
vt 1.471840 0.827816
vt 1.444130 0.839994
vt 1.449360 0.830215
vt 1.456140 0.817386
vt 1.438810 0.810288
vt 1.434690 0.824078
vt 1.420600 0.806742
vt 1.419200 0.820903
vt 1.431490 0.834611
vt 1.418080 0.831815
vt 1.404430 0.831613
vt 1.403470 0.820660
vt 1.402310 0.806742
vt 1.391000 0.834027
vt 1.388010 0.823489
vt 1.384320 0.809789
vt 1.367040 0.816231
vt 1.373290 0.829127
vt 1.351180 0.825897
vt 1.359860 0.837482
vt 1.378230 0.838942
vt 1.366570 0.846223
vt 1.356560 0.855737
vt 1.348120 0.848335
vt 1.337270 0.838546
vt 1.365510 0.863587
vt 1.358860 0.873052
vt 1.373830 0.855598
vt 1.372760 0.869864
vt 1.379720 0.863184
vt 1.367250 0.877788
vt 1.383580 0.849497
vt 1.387830 0.858021
vt 1.394240 0.845384
vt 1.396770 0.854536
vt 1.405450 0.843385
vt 1.406190 0.852838
vt 1.416830 0.843576
vt 1.415760 0.852976
vt 1.427930 0.845976
vt 1.425110 0.854997
vt 1.438480 0.850382
vt 1.433910 0.858766
vt 1.447900 0.856898
vt 1.441790 0.864197
vt 1.456010 0.865035
vt 1.448530 0.871021
vt 1.462280 0.874680
vt 1.453800 0.879063
vt 1.466540 0.885341
vt 1.457400 0.887990
vt 1.468770 0.896613
vt 1.459230 0.897466
vt 1.468610 0.908131
vt 1.459110 0.907116
vt 1.466250 0.919380
vt 1.457110 0.916530
vt 1.461720 0.929952
vt 1.453320 0.925360
vt 1.455250 0.939442
vt 1.447930 0.933325
vt 1.447050 0.947500
vt 1.441040 0.940040
vt 1.437430 0.953820
vt 1.433010 0.945333
vt 1.426760 0.958136
vt 1.424080 0.948958
vt 1.415480 0.960269
vt 1.414610 0.950782
vt 1.403960 0.960248
vt 1.404950 0.950692
vt 1.392610 0.957989
vt 1.395470 0.948788
vt 1.381960 0.953446
vt 1.386550 0.944981
vt 1.372390 0.946925
vt 1.378540 0.939507
vt 1.364260 0.938638
vt 1.371750 0.932565
vt 1.357900 0.928920
vt 1.366450 0.924427
vt 1.353570 0.918117
vt 1.362860 0.915403
vt 1.351520 0.906657
vt 1.361130 0.905843
vt 1.351610 0.895003
vt 1.361230 0.896120
vt 1.354190 0.883666
vt 1.363340 0.886637
vt 1.378900 0.884286
vt 1.376080 0.890747
vt 1.374570 0.897655
vt 1.382920 0.878514
vt 1.387100 0.888863
vt 1.385030 0.893637
vt 1.390050 0.884590
vt 1.222010 0.447544
vt 1.220400 0.447559
vt 1.220370 0.441931
vt 1.221970 0.441911
vt 1.220330 0.436325
vt 1.221920 0.436306
vt 1.222020 0.453225
vt 1.220390 0.453220
vt 1.387980 0.873657
vt 1.393780 0.880985
vt 1.221970 0.458915
vt 1.220360 0.458885
vt 1.393860 0.869856
vt 1.398130 0.878181
vt 1.400390 0.867307
vt 1.402940 0.876277
vt 1.407260 0.866046
vt 1.408030 0.875352
vt 1.221630 0.470231
vt 1.220040 0.470118
vt 1.220260 0.464520
vt 1.221860 0.464575
vt 1.221110 0.475857
vt 1.219570 0.475591
vt 1.414260 0.866140
vt 1.413210 0.875428
vt 1.994930 0.292557
vt 1.993320 0.292644
vt 1.992920 0.287196
vt 1.994460 0.286943
vt 1.421100 0.867623
vt 1.418270 0.876516
vt 1.427530 0.870373
vt 1.423020 0.878565
vt 1.433300 0.874346
vt 1.427290 0.881502
vt 1.995090 0.303856
vt 1.993500 0.303850
vt 1.993470 0.298242
vt 1.995070 0.298227
vt 1.995070 0.309439
vt 1.993510 0.309438
vt 1.438200 0.879362
vt 1.430900 0.885213
vt 1.995090 0.315037
vt 1.993480 0.315034
vt 1.442030 0.885237
vt 1.433730 0.889557
vt 1.444640 0.891749
vt 1.435650 0.894368
vt 1.445920 0.898643
vt 1.436610 0.899461
vt 1.993490 0.320629
vt 1.995060 0.320632
vt 1.995070 0.326224
vt 1.993460 0.326219
vt 1.995020 0.331814
vt 1.993460 0.331810
vt 1.445870 0.905652
vt 1.436570 0.904643
vt 1.995030 0.337402
vt 1.993430 0.337400
vt 1.444440 0.912522
vt 1.435500 0.909715
vt 1.441670 0.918963
vt 1.433460 0.914482
vt 1.437720 0.924759
vt 1.430540 0.918760
vt 1.995010 0.348554
vt 1.993410 0.348549
vt 1.993440 0.342977
vt 1.995010 0.342980
vt 1.994970 0.354124
vt 1.993410 0.354118
vt 1.432720 0.929678
vt 1.426850 0.922393
vt 1.994960 0.359681
vt 1.993380 0.359678
vt 1.426850 0.933529
vt 1.422510 0.925231
vt 1.420330 0.936170
vt 1.417690 0.927169
vt 1.413420 0.937495
vt 1.412580 0.928129
vt 1.994720 0.370975
vt 1.993100 0.370872
vt 1.993310 0.365267
vt 1.994910 0.365295
vt 1.994180 0.376636
vt 1.992640 0.376366
vt 1.406370 0.937411
vt 1.407390 0.928073
vt 1.221430 0.391703
vt 1.219850 0.391795
vt 1.219430 0.386435
vt 1.220950 0.386182
vt 1.399460 0.935992
vt 1.402300 0.927003
vt 1.392970 0.933211
vt 1.397510 0.924958
vt 1.387150 0.929216
vt 1.393210 0.922016
vt 1.221700 0.402782
vt 1.220130 0.402814
vt 1.220040 0.397294
vt 1.221590 0.397256
vt 1.221770 0.408338
vt 1.220190 0.408363
vt 1.382220 0.924158
vt 1.389580 0.918290
vt 1.221820 0.413913
vt 1.220230 0.413935
vt 1.378350 0.918248
vt 1.386730 0.913923
vt 1.375750 0.911672
vt 1.384810 0.909076
vt 1.374490 0.904723
vt 1.383860 0.903944
vt 1.221890 0.425138
vt 1.220270 0.425141
vt 1.220270 0.419524
vt 1.221870 0.419507
vt 1.221880 0.430737
vt 1.220310 0.430743
vt 1.383940 0.898730
vt 1.218680 0.430743
vt 1.218630 0.425145
vt 1.218700 0.436328
vt 1.218730 0.441934
vt 1.195030 0.442063
vt 1.195030 0.436454
vt 1.195030 0.430845
vt 1.194120 0.436454
vt 1.194110 0.430845
vt 1.194110 0.442063
vt 1.194120 0.425232
vt 1.195040 0.425235
vt 1.194120 0.419612
vt 1.195040 0.419615
vt 1.218640 0.419530
vt 1.218600 0.413939
vt 1.195060 0.414026
vt 1.218560 0.408371
vt 1.195070 0.408480
vt 1.194150 0.414025
vt 1.194160 0.408478
vt 1.194200 0.402942
vt 1.195100 0.402948
vt 1.218510 0.402829
vt 1.194250 0.397386
vt 1.195160 0.397406
vt 1.218430 0.397333
vt 1.195340 0.391868
vt 1.218260 0.391885
vt 1.217910 0.386595
vt 1.195770 0.386446
vt 1.194430 0.391815
vt 1.194890 0.386339
vt 1.968890 0.376079
vt 1.968030 0.376178
vt 1.967600 0.370821
vt 1.968500 0.370775
vt 1.991080 0.376186
vt 1.991480 0.370781
vt 1.967440 0.365314
vt 1.968340 0.365297
vt 1.991670 0.365235
vt 1.991750 0.359672
vt 1.968290 0.359740
vt 1.991780 0.354120
vt 1.968250 0.354175
vt 1.967380 0.359745
vt 1.967340 0.354177
vt 1.967330 0.348620
vt 1.968250 0.348617
vt 1.991780 0.348551
vt 1.967320 0.343036
vt 1.968230 0.343034
vt 1.991810 0.342974
vt 1.991800 0.337392
vt 1.968240 0.337426
vt 1.991820 0.331805
vt 1.968230 0.331838
vt 1.967320 0.337428
vt 1.967320 0.331838
vt 1.967310 0.326267
vt 1.968220 0.326267
vt 1.991830 0.326215
vt 1.967290 0.320675
vt 1.968210 0.320674
vt 1.991850 0.320619
vt 1.991850 0.315025
vt 1.968210 0.315068
vt 1.968210 0.309452
vt 1.991870 0.309430
vt 1.967290 0.315068
vt 1.967290 0.309448
vt 1.967320 0.303807
vt 1.968240 0.303818
vt 1.991860 0.303853
vt 1.967390 0.298184
vt 1.968310 0.298207
vt 1.991840 0.298273
vt 1.991700 0.292729
vt 1.968510 0.292629
vt 1.991360 0.287354
vt 1.968970 0.287153
vt 1.967600 0.292572
vt 1.968080 0.287044
vt 1.195710 0.475378
vt 1.194840 0.475481
vt 1.194390 0.470052
vt 1.195300 0.470004
vt 1.218020 0.475415
vt 1.218420 0.470025
vt 1.194230 0.464515
vt 1.195140 0.464496
vt 1.218620 0.464481
vt 1.218710 0.458873
vt 1.195070 0.458937
vt 1.218730 0.453220
vt 1.195040 0.453307
vt 1.194150 0.458944
vt 1.194120 0.453310
vt 1.194120 0.447668
vt 1.195030 0.447666
vt 1.218750 0.447563
s 1
f 1/1/1 2/2/2 3/3/3
f 1/1/1 3/3/3 4/4/4
f 5/5/5 6/1/1 7/4/6
f 5/5/5 7/4/6 8/6/7
f 9/3/3 10/7/8 11/8/9
f 9/3/3 11/8/9 12/4/4
f 13/4/4 14/8/9 15/9/10
f 13/4/4 15/9/10 16/6/7
f 17/10/11 18/11/12 19/6/7
f 17/10/11 19/6/7 20/9/10
f 21/12/13 22/5/5 23/6/7
f 21/12/13 23/6/7 24/11/12
f 25/11/12 26/10/11 27/13/14
f 25/11/12 27/13/14 28/14/15
f 29/15/16 30/12/13 31/11/12
f 29/15/16 31/11/12 32/14/15
f 33/16/17 34/15/16 35/14/15
f 33/16/17 35/14/15 36/17/18
f 37/18/19 38/16/20 39/17/18
f 37/18/19 39/17/18 40/19/21
f 41/14/15 42/13/14 43/20/22
f 41/14/15 43/20/22 44/17/18
f 45/17/18 46/20/22 47/21/23
f 45/17/18 47/21/23 48/19/24
f 49/19/24 50/21/23 51/22/25
f 49/19/24 51/22/25 52/23/26
f 53/24/27 54/18/19 55/19/21
f 53/24/27 55/19/21 56/23/26
f 57/23/26 58/22/25 59/25/28
f 57/23/26 59/25/28 60/26/29
f 61/27/30 62/24/31 63/23/26
f 61/27/30 63/23/26 64/26/29
f 65/28/32 66/27/30 67/26/29
f 65/28/32 67/26/29 68/29/33
f 69/30/34 70/28/32 71/29/35
f 69/30/34 71/29/35 72/31/36
f 73/26/29 74/25/28 75/32/37
f 73/26/29 75/32/37 76/29/33
f 77/29/33 78/32/37 79/33/38
f 77/29/33 79/33/38 80/31/36
f 81/31/36 82/33/38 83/34/39
f 81/31/36 83/34/39 84/35/40
f 85/36/41 86/30/34 87/31/36
f 85/36/41 87/31/36 88/35/40
f 89/35/40 90/34/39 91/37/42
f 89/35/40 91/37/42 92/38/43
f 93/39/44 94/36/41 95/35/40
f 93/39/44 95/35/40 96/38/43
f 97/40/45 98/39/44 99/38/43
f 97/40/45 99/38/43 100/41/46
f 101/42/47 102/40/48 103/41/46
f 101/42/47 103/41/46 104/43/49
f 105/38/43 106/37/42 107/44/50
f 105/38/43 107/44/50 108/41/46
f 109/45/51 110/43/52 111/41/46
f 109/45/51 111/41/46 112/44/50
f 113/43/52 114/45/51 115/46/53
f 113/43/52 115/46/53 116/47/54
f 117/48/55 118/42/47 119/43/49
f 117/48/55 119/43/49 120/47/54
f 121/47/54 122/46/53 123/49/56
f 121/47/54 123/49/56 124/50/57
f 125/51/58 126/48/59 127/47/54
f 125/51/58 127/47/54 128/50/57
f 129/52/60 130/51/58 131/50/57
f 129/52/60 131/50/57 132/53/61
f 133/54/62 134/52/60 135/53/63
f 133/54/62 135/53/63 136/55/64
f 137/50/57 138/49/56 139/56/65
f 137/50/57 139/56/65 140/53/61
f 141/53/61 142/56/65 143/57/66
f 141/53/61 143/57/66 144/55/64
f 145/55/64 146/57/66 147/58/67
f 145/55/64 147/58/67 148/59/68
f 149/60/69 150/54/62 151/55/64
f 149/60/69 151/55/64 152/59/68
f 153/59/68 154/58/67 155/61/70
f 153/59/68 155/61/70 156/62/71
f 157/63/72 158/60/69 159/59/68
f 157/63/72 159/59/68 160/62/71
f 161/64/73 162/63/72 163/62/71
f 161/64/73 163/62/71 164/65/74
f 165/66/75 166/64/76 167/65/74
f 165/66/75 167/65/74 168/67/77
f 169/62/71 170/61/70 171/68/78
f 169/62/71 171/68/78 172/65/74
f 173/65/74 174/68/78 175/69/79
f 173/65/74 175/69/79 176/67/80
f 177/67/80 178/69/79 179/70/81
f 177/67/80 179/70/81 180/71/82
f 181/72/83 182/66/75 183/67/77
f 181/72/83 183/67/77 184/71/82
f 185/71/82 186/70/81 187/73/84
f 185/71/82 187/73/84 188/74/85
f 189/75/86 190/72/87 191/71/82
f 189/75/86 191/71/82 192/74/85
f 193/76/88 194/75/86 195/74/85
f 193/76/88 195/74/85 196/77/89
f 197/78/90 198/76/88 199/77/89
f 197/78/90 199/77/89 200/79/91
f 201/80/92 202/77/89 203/74/85
f 201/80/92 203/74/85 204/73/84
f 205/77/89 206/80/92 207/81/93
f 205/77/89 207/81/93 208/79/91
f 209/82/94 210/83/95 211/79/91
f 209/82/94 211/79/91 212/81/93
f 213/84/96 214/78/90 215/79/91
f 213/84/96 215/79/91 216/83/95
f 217/83/95 218/82/94 219/85/97
f 217/83/95 219/85/97 220/86/98
f 221/87/99 222/84/96 223/83/95
f 221/87/99 223/83/95 224/86/98
f 225/88/100 226/87/99 227/86/98
f 225/88/100 227/86/98 228/89/101
f 229/90/102 230/88/103 231/89/101
f 229/90/102 231/89/101 232/91/104
f 233/86/98 234/85/97 235/92/105
f 233/86/98 235/92/105 236/89/101
f 237/89/101 238/92/105 239/93/106
f 237/89/101 239/93/106 240/91/107
f 241/91/107 242/93/106 243/94/108
f 241/91/107 243/94/108 244/95/109
f 245/96/110 246/90/102 247/91/104
f 245/96/110 247/91/104 248/95/109
f 249/95/109 250/94/108 251/7/8
f 249/95/109 251/7/8 252/3/3
f 253/2/2 254/96/111 255/95/109
f 253/2/2 255/95/109 256/3/3
f 257/7/8 258/94/108 259/97/112
f 257/7/8 259/97/112 260/98/113
f 261/94/108 262/93/106 263/99/114
f 261/94/108 263/99/114 264/97/112
f 265/100/115 266/97/112 267/99/116
f 265/100/115 267/99/116 268/101/117
f 269/97/112 270/100/115 271/102/118
f 269/97/112 271/102/118 272/98/113
f 273/103/119 274/104/120 275/101/117
f 273/103/119 275/101/117 276/99/116
f 277/93/106 278/92/105 279/103/119
f 277/93/106 279/103/119 280/99/114
f 281/104/120 282/103/119 283/105/121
f 281/104/120 283/105/121 284/106/122
f 285/92/105 286/85/97 287/105/121
f 285/92/105 287/105/121 288/103/119
f 289/107/123 290/108/124 291/106/122
f 289/107/123 291/106/122 292/105/121
f 293/85/97 294/82/94 295/107/123
f 293/85/97 295/107/123 296/105/121
f 297/109/125 298/110/126 299/108/124
f 297/109/125 299/108/124 300/107/123
f 301/82/94 302/81/93 303/109/127
f 301/82/94 303/109/127 304/107/123
f 305/111/128 306/112/129 307/110/130
f 305/111/128 307/110/130 308/109/125
f 309/81/93 310/80/92 311/111/128
f 309/81/93 311/111/128 312/109/125
f 313/113/131 314/114/132 315/112/129
f 313/113/131 315/112/129 316/111/128
f 317/80/92 318/73/84 319/113/133
f 317/80/92 319/113/133 320/111/128
f 321/115/134 322/116/135 323/114/136
f 321/115/134 323/114/136 324/113/131
f 325/73/84 326/70/81 327/115/134
f 325/73/84 327/115/134 328/113/131
f 329/117/137 330/118/138 331/116/135
f 329/117/137 331/116/135 332/115/134
f 333/70/81 334/69/79 335/117/139
f 333/70/81 335/117/139 336/115/134
f 337/119/140 338/120/141 339/118/138
f 337/119/140 339/118/138 340/117/137
f 341/69/79 342/68/78 343/119/140
f 341/69/79 343/119/140 344/117/139
f 345/121/142 346/122/143 347/120/141
f 345/121/142 347/120/141 348/119/140
f 349/68/78 350/61/70 351/121/142
f 349/68/78 351/121/142 352/119/140
f 353/123/144 354/124/145 355/122/143
f 353/123/144 355/122/143 356/121/142
f 357/61/70 358/58/67 359/123/144
f 357/61/70 359/123/144 360/121/142
f 361/125/146 362/126/147 363/124/145
f 361/125/146 363/124/145 364/123/144
f 365/58/67 366/57/66 367/125/148
f 365/58/67 367/125/148 368/123/144
f 369/126/149 370/125/146 371/127/150
f 369/126/149 371/127/150 372/128/151
f 373/57/66 374/56/65 375/127/150
f 373/57/66 375/127/150 376/125/148
f 377/129/152 378/130/153 379/128/151
f 377/129/152 379/128/151 380/127/150
f 381/56/65 382/49/56 383/129/154
f 381/56/65 383/129/154 384/127/150
f 385/130/155 386/129/152 387/131/156
f 385/130/155 387/131/156 388/132/157
f 389/49/56 390/46/53 391/131/156
f 389/49/56 391/131/156 392/129/152
f 393/133/158 394/134/159 395/132/157
f 393/133/158 395/132/157 396/131/156
f 397/46/53 398/45/51 399/133/160
f 397/46/53 399/133/160 400/131/156
f 401/135/161 402/136/162 403/134/159
f 401/135/161 403/134/159 404/133/158
f 405/45/51 406/44/50 407/135/161
f 405/45/51 407/135/161 408/133/160
f 409/137/163 410/138/164 411/136/162
f 409/137/163 411/136/162 412/135/161
f 413/44/50 414/37/42 415/137/163
f 413/44/50 415/137/163 416/135/161
f 417/139/165 418/140/166 419/138/164
f 417/139/165 419/138/164 420/137/163
f 421/37/42 422/34/39 423/139/165
f 421/37/42 423/139/165 424/137/163
f 425/141/167 426/142/168 427/140/166
f 425/141/167 427/140/166 428/139/165
f 429/34/39 430/33/38 431/141/167
f 429/34/39 431/141/167 432/139/165
f 433/143/169 434/144/170 435/142/171
f 433/143/169 435/142/171 436/141/167
f 437/33/38 438/32/37 439/143/169
f 437/33/38 439/143/169 440/141/172
f 441/145/173 442/146/174 443/144/170
f 441/145/173 443/144/170 444/143/169
f 445/32/37 446/25/28 447/145/175
f 445/32/37 447/145/175 448/143/169
f 449/147/176 450/148/177 451/146/178
f 449/147/176 451/146/178 452/145/173
f 453/25/28 454/22/25 455/147/176
f 453/25/28 455/147/176 456/145/173
f 457/149/179 458/150/180 459/148/177
f 457/149/179 459/148/177 460/147/176
f 461/22/25 462/21/23 463/149/181
f 461/22/25 463/149/181 464/147/176
f 465/151/182 466/152/183 467/150/180
f 465/151/182 467/150/180 468/149/179
f 469/21/23 470/20/22 471/151/182
f 469/21/23 471/151/182 472/149/181
f 473/152/183 474/151/182 475/153/184
f 473/152/183 475/153/184 476/154/185
f 477/20/22 478/13/14 479/153/184
f 477/20/22 479/153/184 480/151/182
f 481/155/186 482/156/187 483/154/185
f 481/155/186 483/154/185 484/153/184
f 485/13/14 486/10/11 487/155/186
f 485/13/14 487/155/186 488/153/184
f 489/157/188 490/158/189 491/156/187
f 489/157/188 491/156/187 492/155/186
f 493/10/11 494/9/10 495/157/190
f 493/10/11 495/157/190 496/155/186
f 497/158/189 498/157/188 499/159/191
f 497/158/189 499/159/191 500/160/192
f 501/9/10 502/8/9 503/159/191
f 501/9/10 503/159/191 504/157/190
f 505/98/113 506/102/193 507/160/192
f 505/98/113 507/160/192 508/159/191
f 509/8/9 510/7/8 511/98/194
f 509/8/9 511/98/194 512/159/191
f 513/102/118 514/161/195 515/162/196
f 513/102/118 515/162/196 516/160/192
f 517/163/197 518/158/189 519/160/192
f 517/163/197 519/160/192 520/162/196
f 521/100/115 522/164/198 523/161/195
f 521/100/115 523/161/195 524/102/118
f 525/162/196 526/161/195 527/165/199
f 525/162/196 527/165/199 528/166/200
f 529/161/195 530/164/198 531/167/201
f 529/161/195 531/167/201 532/165/199
f 533/168/202 534/169/203 535/170/204
f 533/168/202 535/170/204 536/171/199
f 537/172/205 538/173/206 539/171/199
f 537/172/205 539/171/199 540/170/204
f 541/174/207 542/175/208 543/169/209
f 541/174/207 543/169/209 544/168/210
f 545/164/198 546/176/211 547/177/212
f 545/164/198 547/177/212 548/167/201
f 549/178/213 550/179/214 551/175/208
f 549/178/213 551/175/208 552/174/215
f 553/176/211 554/180/216 555/181/217
f 553/176/211 555/181/217 556/177/212
f 557/164/198 558/100/115 559/101/117
f 557/164/198 559/101/117 560/176/211
f 561/104/120 562/180/216 563/176/211
f 561/104/120 563/176/211 564/101/117
f 565/180/216 566/104/120 567/106/122
f 565/180/216 567/106/122 568/182/218
f 569/180/216 570/182/218 571/183/219
f 569/180/216 571/183/219 572/181/217
f 573/108/124 574/184/220 575/182/218
f 573/108/124 575/182/218 576/106/122
f 577/182/218 578/184/220 579/185/221
f 577/182/218 579/185/221 580/183/219
f 581/186/222 582/187/223 583/188/224
f 581/186/222 583/188/224 584/189/219
f 585/189/219 586/188/224 587/179/225
f 585/189/219 587/179/225 588/178/226
f 589/190/227 590/191/228 591/187/229
f 589/190/227 591/187/229 592/186/230
f 593/184/220 594/192/231 595/193/227
f 593/184/220 595/193/227 596/185/221
f 597/194/232 598/195/233 599/196/228
f 597/194/232 599/196/228 600/197/227
f 601/192/231 602/198/234 603/199/235
f 601/192/231 603/199/235 604/193/227
f 605/112/129 606/198/234 607/192/231
f 605/112/129 607/192/231 608/110/126
f 609/110/126 610/192/231 611/184/220
f 609/110/126 611/184/220 612/108/124
f 613/114/136 614/200/236 615/198/234
f 613/114/136 615/198/234 616/112/129
f 617/198/234 618/200/236 619/201/237
f 617/198/234 619/201/237 620/199/235
f 621/116/135 622/202/238 623/200/236
f 621/116/135 623/200/236 624/114/136
f 625/200/236 626/202/238 627/203/239
f 625/200/236 627/203/239 628/201/237
f 629/204/240 630/205/241 631/206/242
f 629/204/240 631/206/242 632/207/237
f 633/207/237 634/206/242 635/195/243
f 633/207/237 635/195/243 636/194/232
f 637/208/244 638/209/245 639/205/246
f 637/208/244 639/205/246 640/204/247
f 641/202/238 642/210/248 643/211/249
f 641/202/238 643/211/249 644/203/239
f 645/209/250 646/208/251 647/212/252
f 645/209/250 647/212/252 648/213/253
f 649/210/248 650/214/254 651/215/255
f 649/210/248 651/215/255 652/211/249
f 653/120/141 654/214/254 655/210/248
f 653/120/141 655/210/248 656/118/138
f 657/118/138 658/210/248 659/202/238
f 657/118/138 659/202/238 660/116/135
f 661/122/143 662/216/256 663/214/254
f 661/122/143 663/214/254 664/120/141
f 665/214/254 666/216/256 667/217/257
f 665/214/254 667/217/257 668/215/255
f 669/124/145 670/218/258 671/216/256
f 669/124/145 671/216/256 672/122/143
f 673/216/256 674/218/258 675/219/259
f 673/216/256 675/219/259 676/217/257
f 677/220/260 678/221/261 679/222/262
f 677/220/260 679/222/262 680/223/263
f 681/221/257 682/220/260 683/213/264
f 681/221/257 683/213/264 684/212/265
f 685/224/266 686/225/267 687/223/268
f 685/224/266 687/223/268 688/222/269
f 689/218/258 690/226/270 691/227/266
f 689/218/258 691/227/266 692/219/259
f 693/228/271 694/229/272 695/225/267
f 693/228/271 695/225/267 696/224/266
f 697/226/270 698/230/273 699/231/274
f 697/226/270 699/231/274 700/227/266
f 701/226/270 702/126/147 703/128/151
f 701/226/270 703/128/151 704/230/273
f 705/126/147 706/226/270 707/218/258
f 705/126/147 707/218/258 708/124/145
f 709/130/155 710/232/275 711/230/273
f 709/130/155 711/230/273 712/128/151
f 713/230/273 714/232/275 715/233/276
f 713/230/273 715/233/276 716/231/274
f 717/232/275 718/130/155 719/132/157
f 717/232/275 719/132/157 720/234/277
f 721/232/275 722/234/277 723/235/278
f 721/232/275 723/235/278 724/233/276
f 725/236/279 726/237/280 727/238/281
f 725/236/279 727/238/281 728/239/276
f 729/239/276 730/238/281 731/229/272
f 729/239/276 731/229/272 732/228/282
f 733/240/283 734/241/284 735/237/285
f 733/240/283 735/237/285 736/236/279
f 737/234/277 738/242/286 739/243/287
f 737/234/277 739/243/287 740/235/278
f 741/244/288 742/245/289 743/241/284
f 741/244/288 743/241/284 744/240/290
f 745/242/286 746/246/291 747/247/292
f 745/242/286 747/247/292 748/243/287
f 749/136/162 750/246/291 751/242/286
f 749/136/162 751/242/286 752/134/159
f 753/134/159 754/242/286 755/234/277
f 753/134/159 755/234/277 756/132/157
f 757/138/164 758/248/293 759/246/291
f 757/138/164 759/246/291 760/136/294
f 761/246/291 762/248/293 763/249/295
f 761/246/291 763/249/295 764/247/292
f 765/140/166 766/250/296 767/248/293
f 765/140/166 767/248/293 768/138/164
f 769/248/293 770/250/296 771/251/297
f 769/248/293 771/251/297 772/249/295
f 773/252/298 774/253/299 775/254/300
f 773/252/298 775/254/300 776/255/295
f 777/255/295 778/254/300 779/245/289
f 777/255/295 779/245/289 780/244/301
f 781/256/302 782/257/303 783/253/304
f 781/256/302 783/253/304 784/252/305
f 785/250/296 786/258/306 787/259/302
f 785/250/296 787/259/302 788/251/298
f 789/260/307 790/261/308 791/262/303
f 789/260/307 791/262/303 792/263/302
f 793/258/306 794/264/309 795/265/310
f 793/258/306 795/265/310 796/259/302
f 797/144/170 798/264/309 799/258/306
f 797/144/170 799/258/306 800/142/168
f 801/142/168 802/258/306 803/250/296
f 801/142/168 803/250/296 804/140/166
f 805/146/178 806/266/311 807/264/309
f 805/146/178 807/264/309 808/144/170
f 809/264/309 810/266/311 811/267/312
f 809/264/309 811/267/312 812/265/310
f 813/148/177 814/268/313 815/266/311
f 813/148/177 815/266/311 816/146/178
f 817/266/311 818/268/313 819/269/314
f 817/266/311 819/269/314 820/267/312
f 821/270/315 822/271/316 823/272/317
f 821/270/315 823/272/317 824/273/312
f 825/261/308 826/260/318 827/273/312
f 825/261/308 827/273/312 828/272/317
f 829/271/319 830/270/320 831/274/321
f 829/271/319 831/274/321 832/275/322
f 833/268/313 834/276/323 835/277/324
f 833/268/313 835/277/324 836/269/314
f 837/278/325 838/279/326 839/275/327
f 837/278/325 839/275/327 840/274/328
f 841/276/323 842/280/329 843/281/330
f 841/276/323 843/281/330 844/277/324
f 845/152/183 846/280/329 847/276/323
f 845/152/183 847/276/323 848/150/180
f 849/150/180 850/276/323 851/268/313
f 849/150/180 851/268/313 852/148/177
f 853/280/329 854/152/183 855/154/185
f 853/280/329 855/154/185 856/282/331
f 857/280/329 858/282/331 859/283/332
f 857/280/329 859/283/332 860/281/330
f 861/156/187 862/284/333 863/282/331
f 861/156/187 863/282/331 864/154/185
f 865/282/331 866/284/333 867/285/334
f 865/282/331 867/285/334 868/283/332
f 869/286/335 870/287/336 871/288/337
f 869/286/335 871/288/337 872/289/338
f 873/289/332 874/288/337 875/279/339
f 873/289/332 875/279/339 876/278/340
f 877/290/341 878/291/342 879/287/336
f 877/290/341 879/287/336 880/286/335
f 881/284/333 882/163/197 883/292/341
f 881/284/333 883/292/341 884/285/334
f 885/173/343 886/172/205 887/291/342
f 885/173/343 887/291/342 888/290/341
f 889/163/197 890/162/196 891/166/200
f 889/163/197 891/166/200 892/292/341
f 893/158/189 894/163/197 895/284/333
f 893/158/189 895/284/333 896/156/187
f 897/291/344 898/293/345 899/294/346
f 897/291/344 899/294/346 900/287/347
f 901/172/348 902/295/349 903/293/350
f 901/172/348 903/293/350 904/291/344
f 905/295/349 906/172/348 907/170/204
f 905/295/349 907/170/204 908/296/351
f 909/296/352 910/297/353 911/298/354
f 909/296/352 911/298/354 912/295/349
f 913/295/349 914/298/355 915/299/356
f 913/295/349 915/299/356 916/293/345
f 917/298/354 918/300/357 919/301/358
f 917/298/354 919/301/358 920/299/356
f 921/300/357 922/298/354 923/297/359
f 921/300/357 923/297/359 924/302/360
f 925/299/356 926/301/361 927/303/362
f 925/299/356 927/303/362 928/304/363
f 929/293/345 930/299/356 931/304/363
f 929/293/345 931/304/363 932/294/364
f 933/304/363 934/303/362 935/305/365
f 933/304/363 935/305/365 936/306/366
f 937/294/364 938/304/363 939/306/367
f 937/294/364 939/306/367 940/307/368
f 941/287/347 942/294/364 943/307/368
f 941/287/347 943/307/368 944/288/337
f 945/288/337 946/307/368 947/308/369
f 945/288/337 947/308/369 948/279/326
f 949/307/368 950/306/370 951/309/371
f 949/307/368 951/309/371 952/308/369
f 953/279/372 954/308/369 955/310/373
f 953/279/372 955/310/373 956/275/374
f 957/308/369 958/309/371 959/311/375
f 957/308/369 959/311/375 960/310/376
f 961/306/377 962/305/365 963/312/378
f 961/306/377 963/312/378 964/309/371
f 965/309/371 966/312/379 967/313/380
f 965/309/371 967/313/380 968/311/381
f 969/314/382 970/315/383 971/311/384
f 969/314/382 971/311/384 972/313/380
f 973/310/376 974/311/385 975/315/383
f 973/310/376 975/315/383 976/316/386
f 977/315/383 978/314/382 979/317/387
f 977/315/383 979/317/387 980/318/388
f 981/316/386 982/315/383 983/318/389
f 981/316/386 983/318/389 984/319/390
f 985/316/386 986/271/319 987/275/391
f 985/316/386 987/275/391 988/310/376
f 989/271/319 990/316/386 991/319/392
f 989/271/319 991/319/392 992/272/317
f 993/319/390 994/318/389 995/320/393
f 993/319/390 995/320/393 996/321/394
f 997/321/394 998/261/395 999/272/317
f 997/321/394 999/272/317 1000/319/390
f 1001/261/395 1002/321/396 1003/322/397
f 1001/261/395 1003/322/397 1004/262/398
f 1005/321/394 1006/320/399 1007/323/400
f 1005/321/394 1007/323/400 1008/322/401
f 1009/324/402 1010/320/403 1011/318/404
f 1009/324/402 1011/318/404 1012/317/387
f 1013/320/403 1014/324/402 1015/325/405
f 1013/320/403 1015/325/405 1016/323/400
f 1017/326/400 1018/327/405 1019/328/406
f 1017/326/400 1019/328/406 1020/329/407
f 1021/330/401 1022/326/400 1023/329/408
f 1021/330/401 1023/329/408 1024/331/409
f 1025/329/407 1026/328/406 1027/332/410
f 1025/329/407 1027/332/410 1028/333/411
f 1029/331/409 1030/329/408 1031/333/412
f 1029/331/409 1031/333/412 1032/334/413
f 1033/257/398 1034/330/397 1035/331/409
f 1033/257/398 1035/331/409 1036/253/299
f 1037/253/414 1038/331/415 1039/334/413
f 1037/253/414 1039/334/413 1040/254/300
f 1041/254/300 1042/334/413 1043/335/416
f 1041/254/300 1043/335/416 1044/245/289
f 1045/334/413 1046/333/417 1047/336/418
f 1045/334/413 1047/336/418 1048/335/419
f 1049/245/420 1050/335/419 1051/337/421
f 1049/245/420 1051/337/421 1052/241/422
f 1053/335/419 1054/336/423 1055/338/424
f 1053/335/419 1055/338/424 1056/337/425
f 1057/333/426 1058/332/410 1059/339/427
f 1057/333/426 1059/339/427 1060/336/423
f 1061/336/423 1062/339/427 1063/340/428
f 1061/336/423 1063/340/428 1064/338/429
f 1065/338/430 1066/340/431 1067/341/432
f 1065/338/430 1067/341/432 1068/342/433
f 1069/337/425 1070/338/434 1071/342/433
f 1069/337/425 1071/342/433 1072/343/435
f 1073/342/433 1074/341/432 1075/344/436
f 1073/342/433 1075/344/436 1076/345/437
f 1077/343/435 1078/342/433 1079/345/438
f 1077/343/435 1079/345/438 1080/346/439
f 1081/241/440 1082/337/425 1083/343/441
f 1081/241/440 1083/343/441 1084/237/285
f 1085/237/285 1086/343/435 1087/346/442
f 1085/237/285 1087/346/442 1088/238/281
f 1089/238/281 1090/346/439 1091/347/443
f 1089/238/281 1091/347/443 1092/229/444
f 1093/346/439 1094/345/438 1095/348/445
f 1093/346/439 1095/348/445 1096/347/443
f 1097/229/446 1098/347/443 1099/349/447
f 1097/229/446 1099/349/447 1100/225/448
f 1101/347/443 1102/348/449 1103/350/450
f 1101/347/443 1103/350/450 1104/349/447
f 1105/345/451 1106/344/436 1107/351/452
f 1105/345/451 1107/351/452 1108/348/453
f 1109/348/445 1110/351/452 1111/352/454
f 1109/348/445 1111/352/454 1112/350/450
f 1113/350/450 1114/352/454 1115/353/455
f 1113/350/450 1115/353/455 1116/354/456
f 1117/349/447 1118/350/450 1119/354/456
f 1117/349/447 1119/354/456 1120/355/457
f 1121/356/458 1122/357/459 1123/354/460
f 1121/356/458 1123/354/460 1124/353/455
f 1125/355/457 1126/354/456 1127/357/461
f 1125/355/457 1127/357/461 1128/358/462
f 1129/358/462 1130/220/260 1131/223/463
f 1129/358/462 1131/223/463 1132/355/457
f 1133/225/448 1134/349/464 1135/355/457
f 1133/225/448 1135/355/457 1136/223/263
f 1137/220/260 1138/358/462 1139/359/465
f 1137/220/260 1139/359/465 1140/213/253
f 1141/358/462 1142/357/459 1143/360/466
f 1141/358/462 1143/360/466 1144/359/467
f 1145/359/467 1146/360/466 1147/361/468
f 1145/359/467 1147/361/468 1148/362/469
f 1149/362/469 1150/209/470 1151/213/253
f 1149/362/469 1151/213/253 1152/359/467
f 1153/357/471 1154/356/458 1155/363/472
f 1153/357/471 1155/363/472 1156/360/473
f 1157/364/474 1158/361/468 1159/360/473
f 1157/364/474 1159/360/473 1160/363/475
f 1161/361/468 1162/364/476 1163/365/477
f 1161/361/468 1163/365/477 1164/366/478
f 1165/362/469 1166/361/479 1167/366/478
f 1165/362/469 1167/366/478 1168/367/480
f 1169/366/481 1170/365/477 1171/368/482
f 1169/366/481 1171/368/482 1172/369/483
f 1173/367/480 1174/366/484 1175/369/483
f 1173/367/480 1175/369/483 1176/370/485
f 1177/209/486 1178/362/469 1179/367/487
f 1177/209/486 1179/367/487 1180/205/246
f 1181/205/246 1182/367/487 1183/370/488
f 1181/205/246 1183/370/488 1184/206/242
f 1185/206/242 1186/370/488 1187/371/489
f 1185/206/242 1187/371/489 1188/195/490
f 1189/370/485 1190/369/483 1191/372/491
f 1189/370/485 1191/372/491 1192/371/489
f 1193/195/243 1194/371/492 1195/373/493
f 1193/195/243 1195/373/493 1196/196/494
f 1197/371/489 1198/372/491 1199/374/495
f 1197/371/489 1199/374/495 1200/373/493
f 1201/369/483 1202/368/496 1203/375/497
f 1201/369/483 1203/375/497 1204/372/491
f 1205/372/491 1206/375/498 1207/376/499
f 1205/372/491 1207/376/499 1208/374/495
f 1209/377/495 1210/378/499 1211/379/500
f 1209/377/495 1211/379/500 1212/380/501
f 1213/381/493 1214/377/495 1215/380/502
f 1213/381/493 1215/380/502 1216/382/503
f 1217/380/502 1218/379/500 1219/383/504
f 1217/380/502 1219/383/504 1220/384/505
f 1221/382/503 1222/380/502 1223/384/506
f 1221/382/503 1223/384/506 1224/385/507
f 1225/191/494 1226/381/493 1227/382/503
f 1225/191/494 1227/382/503 1228/187/223
f 1229/187/508 1230/382/503 1231/385/507
f 1229/187/508 1231/385/507 1232/188/224
f 1233/188/224 1234/385/507 1235/386/509
f 1233/188/224 1235/386/509 1236/179/214
f 1237/385/507 1238/384/510 1239/387/511
f 1237/385/507 1239/387/511 1240/386/509
f 1241/179/512 1242/386/509 1243/388/513
f 1241/179/512 1243/388/513 1244/175/514
f 1245/386/509 1246/387/515 1247/389/516
f 1245/386/509 1247/389/516 1248/388/513
f 1249/384/517 1250/383/504 1251/390/518
f 1249/384/517 1251/390/518 1252/387/519
f 1253/387/515 1254/390/520 1255/391/521
f 1253/387/515 1255/391/521 1256/389/522
f 1257/389/523 1258/391/521 1259/392/524
f 1257/389/523 1259/392/524 1260/393/525
f 1261/388/513 1262/389/526 1263/393/525
f 1261/388/513 1263/393/525 1264/394/527
f 1265/393/528 1266/392/524 1267/302/360
f 1265/393/528 1267/302/360 1268/297/529
f 1269/394/527 1270/393/530 1271/297/353
f 1269/394/527 1271/297/353 1272/296/352
f 1273/175/531 1274/388/532 1275/394/533
f 1273/175/531 1275/394/533 1276/169/209
f 1277/169/209 1278/394/527 1279/296/351
f 1277/169/209 1279/296/351 1280/170/204
