v 0.677724 0.144556 0.527214
v 0.664864 0.144077 0.533685
v 0.665632 0.14265 0.542775
v 0.679359 0.143244 0.535192
v 0.677724 0.144556 0.527214
v 0.679038 0.146339 0.513632
v 0.665965 0.145986 0.519133
v 0.664864 0.144077 0.533685
v 0.664864 0.144077 0.533685
v 0.665965 0.145986 0.519133
v 0.648855 0.145961 0.52328
v 0.647884 0.144017 0.538117
v 0.664864 0.144077 0.533685
v 0.647884 0.144017 0.538117
v 0.648244 0.142566 0.547505
v 0.665632 0.14265 0.542775
v 0.665965 0.145986 0.519133
v 0.667254 0.148053 0.503365
v 0.649782 0.148069 0.507215
v 0.648855 0.145961 0.52328
v 0.679038 0.146339 0.513632
v 0.680739 0.148304 0.498629
v 0.667254 0.148053 0.503365
v 0.665965 0.145986 0.519133
v 0.309316 0.150002 0.575272
v 0.314755 0.147933 0.589136
v 0.647884 0.144017 0.538117
v 0.648855 0.145961 0.52328
v 0.648855 0.145961 0.52328
v 0.649782 0.148069 0.507215
v 0.30352 0.152252 0.560227
v 0.309316 0.150002 0.575272
v 0.314755 0.147933 0.589136
v 0.309316 0.150002 0.575272
v 0.291816 0.150448 0.576427
v 0.297246 0.148418 0.589987
v 0.309316 0.150002 0.575272
v 0.30352 0.152252 0.560227
v 0.28583 0.152654 0.561764
v 0.291816 0.150448 0.576427
v 0.649782 0.148069 0.507215
v 0.648235 0.150665 0.487559
v 0.299017 0.154916 0.541083
v 0.30352 0.152252 0.560227
v 0.30352 0.152252 0.560227
v 0.299017 0.154916 0.541083
v 0.281301 0.155267 0.543011
v 0.28583 0.152654 0.561764
v 0.648235 0.150665 0.487559
v 0.595886 0.19551 0.145931
v 0.246519 0.198964 0.200937
v 0.299017 0.154916 0.541083
v 0.299017 0.154916 0.541083
v 0.246519 0.198964 0.200937
v 0.229307 0.19905 0.20446
v 0.281301 0.155267 0.543011
v 0.595886 0.19551 0.145931
v 0.591648 0.198097 0.127899
v 0.24492 0.201598 0.181501
v 0.246519 0.198964 0.200937
v 0.246519 0.198964 0.200937
v 0.24492 0.201598 0.181501
v 0.227963 0.201629 0.185319
v 0.229307 0.19905 0.20446
v 0.591648 0.198097 0.127899
v 0.586023 0.200373 0.113369
v 0.245787 0.203779 0.16551
v 0.24492 0.201598 0.181501
v 0.24492 0.201598 0.181501
v 0.245787 0.203779 0.16551
v 0.229232 0.203754 0.169597
v 0.227963 0.201629 0.185319
v 0.586023 0.200373 0.113369
v 0.580663 0.20252 0.099579
v 0.246709 0.205784 0.150691
v 0.245787 0.203779 0.16551
v 0.245787 0.203779 0.16551
v 0.246709 0.205784 0.150691
v 0.230314 0.20571 0.155054
v 0.229232 0.203754 0.169597
v 0.230314 0.20571 0.155054
v 0.246709 0.205784 0.150691
v 0.246311 0.206856 0.141256
v 0.229521 0.206752 0.145917
v 0.246311 0.206856 0.141256
v 0.246709 0.205784 0.150691
v 0.580663 0.20252 0.099579
v 0.578191 0.203651 0.090461
v 0.229521 0.206752 0.145917
v 0.246311 0.206856 0.141256
v 0.245335 0.206074 0.136428
v 0.227998 0.205956 0.141324
v 0.578191 0.203651 0.090461
v 0.577643 0.20287 0.085565
v 0.245335 0.206074 0.136428
v 0.246311 0.206856 0.141256
v 0.578191 0.203651 0.090461
v 0.59624 0.203335 0.089767
v 0.596285 0.202529 0.08493
v 0.577643 0.20287 0.085565
v 0.580663 0.20252 0.099579
v 0.598232 0.202236 0.098724
v 0.59624 0.203335 0.089767
v 0.578191 0.203651 0.090461
v 0.598232 0.202236 0.098724
v 0.612444 0.201656 0.101053
v 0.611609 0.202619 0.092895
v 0.59624 0.203335 0.089767
v 0.59624 0.203335 0.089767
v 0.611609 0.202619 0.092895
v 0.612683 0.201741 0.088379
v 0.596285 0.202529 0.08493
v 0.611609 0.202619 0.092895
v 0.626937 0.201244 0.100263
v 0.629455 0.200212 0.096614
v 0.612683 0.201741 0.088379
v 0.612444 0.201656 0.101053
v 0.623904 0.200923 0.104515
v 0.626937 0.201244 0.100263
v 0.611609 0.202619 0.092895
v 0.630756 0.199284 0.114453
v 0.623904 0.200923 0.104515
v 0.612444 0.201656 0.101053
v 0.61775 0.199675 0.113539
v 0.61775 0.199675 0.113539
v 0.612444 0.201656 0.101053
v 0.598232 0.202236 0.098724
v 0.603626 0.20012 0.112202
v 0.62378 0.197537 0.126787
v 0.61775 0.199675 0.113539
v 0.603626 0.20012 0.112202
v 0.609495 0.197879 0.126318
v 0.637337 0.197225 0.126997
v 0.630756 0.199284 0.114453
v 0.61775 0.199675 0.113539
v 0.62378 0.197537 0.126787
v 0.630756 0.199284 0.114453
v 0.637337 0.197225 0.126997
v 0.646076 0.19696 0.12581
v 0.638553 0.199135 0.112619
v 0.623904 0.200923 0.104515
v 0.630756 0.199284 0.114453
v 0.638553 0.199135 0.112619
v 0.626937 0.201244 0.100263
v 0.626937 0.201244 0.100263
v 0.638553 0.199135 0.112619
v 0.642319 0.197918 0.110072
v 0.629455 0.200212 0.096614
v 0.638553 0.199135 0.112619
v 0.646076 0.19696 0.12581
v 0.650429 0.195615 0.124107
v 0.642319 0.197918 0.110072
v 0.646076 0.19696 0.12581
v 0.650634 0.194575 0.142
v 0.655204 0.193157 0.140803
v 0.650429 0.195615 0.124107
v 0.637337 0.197225 0.126997
v 0.641694 0.194868 0.143025
v 0.650634 0.194575 0.142
v 0.646076 0.19696 0.12581
v 0.701589 0.15067 0.474673
v 0.70625 0.14917 0.47407
v 0.655204 0.193157 0.140803
v 0.650634 0.194575 0.142
v 0.650634 0.194575 0.142
v 0.641694 0.194868 0.143025
v 0.692765 0.150891 0.476448
v 0.701589 0.15067 0.474673
v 0.701589 0.15067 0.474673
v 0.70229 0.148262 0.492811
v 0.706894 0.146693 0.492759
v 0.70625 0.14917 0.47407
v 0.692765 0.150891 0.476448
v 0.693607 0.148511 0.494356
v 0.70229 0.148262 0.492811
v 0.701589 0.15067 0.474673
v 0.693607 0.148511 0.494356
v 0.692765 0.150891 0.476448
v 0.679649 0.150758 0.48013
v 0.680739 0.148304 0.498629
v 0.679649 0.150758 0.48013
v 0.692765 0.150891 0.476448
v 0.641694 0.194868 0.143025
v 0.628083 0.1951 0.143486
v 0.680739 0.148304 0.498629
v 0.679649 0.150758 0.48013
v 0.665914 0.150607 0.484056
v 0.667254 0.148053 0.503365
v 0.679649 0.150758 0.48013
v 0.628083 0.1951 0.143486
v 0.61381 0.195335 0.143906
v 0.665914 0.150607 0.484056
v 0.628083 0.1951 0.143486
v 0.62378 0.197537 0.126787
v 0.609495 0.197879 0.126318
v 0.61381 0.195335 0.143906
v 0.641694 0.194868 0.143025
v 0.637337 0.197225 0.126997
v 0.62378 0.197537 0.126787
v 0.628083 0.1951 0.143486
v 0.648235 0.150665 0.487559
v 0.665914 0.150607 0.484056
v 0.61381 0.195335 0.143906
v 0.595886 0.19551 0.145931
v 0.61381 0.195335 0.143906
v 0.609495 0.197879 0.126318
v 0.591648 0.198097 0.127899
v 0.595886 0.19551 0.145931
v 0.609495 0.197879 0.126318
v 0.603626 0.20012 0.112202
v 0.586023 0.200373 0.113369
v 0.591648 0.198097 0.127899
v 0.667254 0.148053 0.503365
v 0.665914 0.150607 0.484056
v 0.648235 0.150665 0.487559
v 0.649782 0.148069 0.507215
v 0.691172 0.146626 0.508869
v 0.693607 0.148511 0.494356
v 0.680739 0.148304 0.498629
v 0.679038 0.146339 0.513632
v 0.693607 0.148511 0.494356
v 0.691172 0.146626 0.508869
v 0.699149 0.146276 0.508228
v 0.70229 0.148262 0.492811
v 0.691172 0.146626 0.508869
v 0.687621 0.145167 0.520483
v 0.691777 0.144429 0.523577
v 0.699149 0.146276 0.508228
v 0.687621 0.145167 0.520483
v 0.691172 0.146626 0.508869
v 0.679038 0.146339 0.513632
v 0.677724 0.144556 0.527214
v 0.70229 0.148262 0.492811
v 0.699149 0.146276 0.508228
v 0.703446 0.144589 0.50916
v 0.706894 0.146693 0.492759
v 0.699149 0.146276 0.508228
v 0.691777 0.144429 0.523577
v 0.695213 0.142581 0.525935
v 0.703446 0.144589 0.50916
v 0.691777 0.144429 0.523577
v 0.679359 0.143244 0.535192
v 0.681675 0.141267 0.538811
v 0.695213 0.142581 0.525935
v 0.687621 0.145167 0.520483
v 0.677724 0.144556 0.527214
v 0.679359 0.143244 0.535192
v 0.691777 0.144429 0.523577
v 0.679359 0.143244 0.535192
v 0.665632 0.14265 0.542775
v 0.667062 0.14062 0.547009
v 0.681675 0.141267 0.538811
v 0.681675 0.141267 0.538811
v 0.667062 0.14062 0.547009
v 0.667637 0.136415 0.548089
v 0.682619 0.137078 0.539675
v 0.695213 0.142581 0.525935
v 0.681675 0.141267 0.538811
v 0.682619 0.137078 0.539675
v 0.696516 0.138426 0.526456
v 0.695504 0.098451 0.521494
v 0.696516 0.138426 0.526456
v 0.682619 0.137078 0.539675
v 0.681556 0.097099 0.534761
v 0.681556 0.097099 0.534761
v 0.682619 0.137078 0.539675
v 0.667637 0.136415 0.548089
v 0.66652 0.096433 0.543206
v 0.667637 0.136415 0.548089
v 0.649448 0.136313 0.553152
v 0.648296 0.096331 0.548284
v 0.66652 0.096433 0.543206
v 0.667062 0.14062 0.547009
v 0.649125 0.140523 0.551974
v 0.649448 0.136313 0.553152
v 0.667637 0.136415 0.548089
v 0.648296 0.096331 0.548284
v 0.649448 0.136313 0.553152
v 0.317652 0.140188 0.603972
v 0.316447 0.100206 0.599112
v 0.649448 0.136313 0.553152
v 0.649125 0.140523 0.551974
v 0.317697 0.144394 0.602738
v 0.317652 0.140188 0.603972
v 0.316447 0.100206 0.599112
v 0.317652 0.140188 0.603972
v 0.298781 0.140745 0.604585
v 0.297538 0.100764 0.599722
v 0.317697 0.144394 0.602738
v 0.299095 0.14494 0.603369
v 0.298781 0.140745 0.604585
v 0.317652 0.140188 0.603972
v 0.317237 0.146435 0.598204
v 0.299231 0.146956 0.598894
v 0.299095 0.14494 0.603369
v 0.317697 0.144394 0.602738
v 0.317237 0.146435 0.598204
v 0.317697 0.144394 0.602738
v 0.649125 0.140523 0.551974
v 0.648244 0.142566 0.547505
v 0.314755 0.147933 0.589136
v 0.297246 0.148418 0.589987
v 0.299231 0.146956 0.598894
v 0.317237 0.146435 0.598204
v 0.648244 0.142566 0.547505
v 0.647884 0.144017 0.538117
v 0.314755 0.147933 0.589136
v 0.317237 0.146435 0.598204
v 0.665632 0.14265 0.542775
v 0.648244 0.142566 0.547505
v 0.649125 0.140523 0.551974
v 0.667062 0.14062 0.547009
v 0.297246 0.148418 0.589987
v 0.283041 0.149244 0.587659
v 0.283861 0.147926 0.595767
v 0.299231 0.146956 0.598894
v 0.299231 0.146956 0.598894
v 0.283861 0.147926 0.595767
v 0.282697 0.145983 0.59992
v 0.299095 0.14494 0.603369
v 0.283861 0.147926 0.595767
v 0.26853 0.14947 0.588399
v 0.265923 0.147688 0.591686
v 0.282697 0.145983 0.59992
v 0.283041 0.149244 0.587659
v 0.271577 0.150128 0.584198
v 0.26853 0.14947 0.588399
v 0.283861 0.147926 0.595767
v 0.283041 0.149244 0.587659
v 0.277718 0.151138 0.575086
v 0.26471 0.151734 0.574174
v 0.271577 0.150128 0.584198
v 0.297246 0.148418 0.589987
v 0.291816 0.150448 0.576427
v 0.277718 0.151138 0.575086
v 0.283041 0.149244 0.587659
v 0.277718 0.151138 0.575086
v 0.271595 0.153234 0.561273
v 0.258039 0.153752 0.561049
v 0.26471 0.151734 0.574174
v 0.291816 0.150448 0.576427
v 0.28583 0.152654 0.561764
v 0.271595 0.153234 0.561273
v 0.277718 0.151138 0.575086
v 0.28583 0.152654 0.561764
v 0.281301 0.155267 0.543011
v 0.267103 0.15573 0.543369
v 0.271595 0.153234 0.561273
v 0.271595 0.153234 0.561273
v 0.267103 0.15573 0.543369
v 0.253493 0.156159 0.543787
v 0.258039 0.153752 0.561049
v 0.267103 0.15573 0.543369
v 0.215783 0.198973 0.208423
v 0.202698 0.198908 0.212155
v 0.253493 0.156159 0.543787
v 0.267103 0.15573 0.543369
v 0.281301 0.155267 0.543011
v 0.229307 0.19905 0.20446
v 0.215783 0.198973 0.208423
v 0.215783 0.198973 0.208423
v 0.214709 0.201427 0.190054
v 0.20187 0.201266 0.194344
v 0.202698 0.198908 0.212155
v 0.229307 0.19905 0.20446
v 0.227963 0.201629 0.185319
v 0.214709 0.201427 0.190054
v 0.215783 0.198973 0.208423
v 0.227963 0.201629 0.185319
v 0.229232 0.203754 0.169597
v 0.21641 0.203425 0.175074
v 0.214709 0.201427 0.190054
v 0.214709 0.201427 0.190054
v 0.21641 0.203425 0.175074
v 0.204307 0.203163 0.17984
v 0.20187 0.201266 0.194344
v 0.21641 0.203425 0.175074
v 0.217721 0.205234 0.161497
v 0.207858 0.204629 0.168226
v 0.204307 0.203163 0.17984
v 0.229232 0.203754 0.169597
v 0.230314 0.20571 0.155054
v 0.217721 0.205234 0.161497
v 0.21641 0.203425 0.175074
v 0.217721 0.205234 0.161497
v 0.230314 0.20571 0.155054
v 0.229521 0.206752 0.145917
v 0.21607 0.206153 0.153469
v 0.207858 0.204629 0.168226
v 0.217721 0.205234 0.161497
v 0.21607 0.206153 0.153469
v 0.203688 0.204968 0.165082
v 0.203688 0.204968 0.165082
v 0.21607 0.206153 0.153469
v 0.213664 0.205304 0.149491
v 0.200165 0.203988 0.162363
v 0.21607 0.206153 0.153469
v 0.229521 0.206752 0.145917
v 0.227998 0.205956 0.141324
v 0.213664 0.205304 0.149491
v 0.213664 0.205304 0.149491
v 0.227998 0.205956 0.141324
v 0.227179 0.202201 0.139227
v 0.212476 0.201532 0.14761
v 0.200165 0.203988 0.162363
v 0.213664 0.205304 0.149491
v 0.212476 0.201532 0.14761
v 0.198619 0.200183 0.160824
v 0.198619 0.200183 0.160824
v 0.212476 0.201532 0.14761
v 0.211108 0.161612 0.142304
v 0.197199 0.160259 0.155567
v 0.211108 0.161612 0.142304
v 0.212476 0.201532 0.14761
v 0.227179 0.202201 0.139227
v 0.225863 0.162283 0.133891
v 0.227179 0.202201 0.139227
v 0.244767 0.202324 0.134233
v 0.243487 0.162407 0.128882
v 0.225863 0.162283 0.133891
v 0.227998 0.205956 0.141324
v 0.245335 0.206074 0.136428
v 0.244767 0.202324 0.134233
v 0.227179 0.202201 0.139227
v 0.576217 0.159199 0.077954
v 0.243487 0.162407 0.128882
v 0.244767 0.202324 0.134233
v 0.577444 0.199116 0.083313
v 0.244767 0.202324 0.134233
v 0.245335 0.206074 0.136428
v 0.577643 0.20287 0.085565
v 0.577444 0.199116 0.083313
v 0.576217 0.159199 0.077954
v 0.577444 0.199116 0.083313
v 0.596354 0.198764 0.082695
v 0.595165 0.158846 0.077339
v 0.577643 0.20287 0.085565
v 0.596285 0.202529 0.08493
v 0.596354 0.198764 0.082695
v 0.577444 0.199116 0.083313
v 0.596285 0.202529 0.08493
v 0.612683 0.201741 0.088379
v 0.613169 0.197952 0.08624
v 0.596354 0.198764 0.082695
v 0.595165 0.158846 0.077339
v 0.596354 0.198764 0.082695
v 0.613169 0.197952 0.08624
v 0.61204 0.158029 0.080897
v 0.61204 0.158029 0.080897
v 0.613169 0.197952 0.08624
v 0.630385 0.196381 0.094693
v 0.62932 0.156453 0.089381
v 0.612683 0.201741 0.088379
v 0.629455 0.200212 0.096614
v 0.630385 0.196381 0.094693
v 0.613169 0.197952 0.08624
v 0.630385 0.196381 0.094693
v 0.64359 0.194031 0.108506
v 0.642573 0.154095 0.103245
v 0.62932 0.156453 0.089381
v 0.629455 0.200212 0.096614
v 0.642319 0.197918 0.110072
v 0.64359 0.194031 0.108506
v 0.630385 0.196381 0.094693
v 0.642573 0.154095 0.103245
v 0.64359 0.194031 0.108506
v 0.651914 0.191675 0.122907
v 0.650928 0.151731 0.117698
v 0.642319 0.197918 0.110072
v 0.650429 0.195615 0.124107
v 0.651914 0.191675 0.122907
v 0.64359 0.194031 0.108506
v 0.650429 0.195615 0.124107
v 0.655204 0.193157 0.140803
v 0.656785 0.189183 0.139849
v 0.651914 0.191675 0.122907
v 0.650928 0.151731 0.117698
v 0.651914 0.191675 0.122907
v 0.656785 0.189183 0.139849
v 0.655813 0.149234 0.134675
v 0.655813 0.149234 0.134675
v 0.656785 0.189183 0.139849
v 0.707885 0.145148 0.473474
v 0.706921 0.105192 0.468352
v 0.656785 0.189183 0.139849
v 0.655204 0.193157 0.140803
v 0.70625 0.14917 0.47407
v 0.707885 0.145148 0.473474
v 0.706921 0.105192 0.468352
v 0.707885 0.145148 0.473474
v 0.708512 0.142637 0.492427
v 0.707544 0.102677 0.487342
v 0.707544 0.102677 0.487342
v 0.708512 0.142637 0.492427
v 0.704969 0.140483 0.50924
v 0.703988 0.100516 0.504215
v 0.706894 0.146693 0.492759
v 0.703446 0.144589 0.50916
v 0.704969 0.140483 0.50924
v 0.708512 0.142637 0.492427
v 0.70625 0.14917 0.47407
v 0.706894 0.146693 0.492759
v 0.708512 0.142637 0.492427
v 0.707885 0.145148 0.473474
v 0.703988 0.100516 0.504215
v 0.704969 0.140483 0.50924
v 0.696516 0.138426 0.526456
v 0.695504 0.098451 0.521494
v 0.703446 0.144589 0.50916
v 0.695213 0.142581 0.525935
v 0.696516 0.138426 0.526456
v 0.704969 0.140483 0.50924
v 0.188716 0.158193 0.172846
v 0.190166 0.198125 0.17804
v 0.198619 0.200183 0.160824
v 0.197199 0.160259 0.155567
v 0.185159 0.156032 0.189718
v 0.186623 0.19597 0.194853
v 0.190166 0.198125 0.17804
v 0.188716 0.158193 0.172846
v 0.188483 0.199875 0.195539
v 0.191931 0.201979 0.179138
v 0.190166 0.198125 0.17804
v 0.186623 0.19597 0.194853
v 0.191931 0.201979 0.179138
v 0.200165 0.203988 0.162363
v 0.198619 0.200183 0.160824
v 0.190166 0.198125 0.17804
v 0.196314 0.203119 0.180431
v 0.203688 0.204968 0.165082
v 0.200165 0.203988 0.162363
v 0.191931 0.201979 0.179138
v 0.193173 0.201131 0.195848
v 0.196314 0.203119 0.180431
v 0.191931 0.201979 0.179138
v 0.188483 0.199875 0.195539
v 0.20187 0.201266 0.194344
v 0.204307 0.203163 0.17984
v 0.196314 0.203119 0.180431
v 0.193173 0.201131 0.195848
v 0.204307 0.203163 0.17984
v 0.207858 0.204629 0.168226
v 0.203688 0.204968 0.165082
v 0.196314 0.203119 0.180431
v 0.193861 0.198754 0.213901
v 0.193173 0.201131 0.195848
v 0.188483 0.199875 0.195539
v 0.189115 0.197429 0.214145
v 0.202698 0.198908 0.212155
v 0.20187 0.201266 0.194344
v 0.193173 0.201131 0.195848
v 0.193861 0.198754 0.213901
v 0.193861 0.198754 0.213901
v 0.189115 0.197429 0.214145
v 0.23988 0.154733 0.545582
v 0.244536 0.156133 0.544747
v 0.244536 0.156133 0.544747
v 0.253493 0.156159 0.543787
v 0.202698 0.198908 0.212155
v 0.193861 0.198754 0.213901
v 0.249284 0.1537 0.562182
v 0.244536 0.156133 0.544747
v 0.23988 0.154733 0.545582
v 0.244846 0.152229 0.563525
v 0.258039 0.153752 0.561049
v 0.253493 0.156159 0.543787
v 0.244536 0.156133 0.544747
v 0.249284 0.1537 0.562182
v 0.244846 0.152229 0.563525
v 0.23988 0.154733 0.545582
v 0.238057 0.150747 0.54552
v 0.243119 0.148209 0.563709
v 0.238057 0.150747 0.54552
v 0.23988 0.154733 0.545582
v 0.189115 0.197429 0.214145
v 0.187237 0.193492 0.213723
v 0.236598 0.110797 0.540474
v 0.238057 0.150747 0.54552
v 0.187237 0.193492 0.213723
v 0.18577 0.153548 0.208626
v 0.241674 0.108254 0.558698
v 0.243119 0.148209 0.563709
v 0.238057 0.150747 0.54552
v 0.236598 0.110797 0.540474
v 0.18577 0.153548 0.208626
v 0.187237 0.193492 0.213723
v 0.186623 0.19597 0.194853
v 0.185159 0.156032 0.189718
v 0.250118 0.105935 0.573733
v 0.251532 0.145898 0.578691
v 0.243119 0.148209 0.563709
v 0.241674 0.108254 0.558698
v 0.26475 0.143559 0.592588
v 0.251532 0.145898 0.578691
v 0.250118 0.105935 0.573733
v 0.263384 0.103589 0.58768
v 0.265923 0.147688 0.591686
v 0.253046 0.149971 0.578143
v 0.251532 0.145898 0.578691
v 0.26475 0.143559 0.592588
v 0.253046 0.149971 0.578143
v 0.244846 0.152229 0.563525
v 0.243119 0.148209 0.563709
v 0.251532 0.145898 0.578691
v 0.256898 0.151569 0.575957
v 0.249284 0.1537 0.562182
v 0.244846 0.152229 0.563525
v 0.253046 0.149971 0.578143
v 0.26853 0.14947 0.588399
v 0.256898 0.151569 0.575957
v 0.253046 0.149971 0.578143
v 0.265923 0.147688 0.591686
v 0.271577 0.150128 0.584198
v 0.26471 0.151734 0.574174
v 0.256898 0.151569 0.575957
v 0.26853 0.14947 0.588399
v 0.26471 0.151734 0.574174
v 0.258039 0.153752 0.561049
v 0.249284 0.1537 0.562182
v 0.256898 0.151569 0.575957
v 0.282697 0.145983 0.59992
v 0.265923 0.147688 0.591686
v 0.26475 0.143559 0.592588
v 0.281967 0.141813 0.601041
v 0.280664 0.101836 0.596164
v 0.281967 0.141813 0.601041
v 0.26475 0.143559 0.592588
v 0.263384 0.103589 0.58768
v 0.298781 0.140745 0.604585
v 0.281967 0.141813 0.601041
v 0.280664 0.101836 0.596164
v 0.297538 0.100764 0.599722
v 0.299095 0.14494 0.603369
v 0.282697 0.145983 0.59992
v 0.281967 0.141813 0.601041
v 0.298781 0.140745 0.604585
v 0.189115 0.197429 0.214145
v 0.188483 0.199875 0.195539
v 0.186623 0.19597 0.194853
v 0.187237 0.193492 0.213723
v 0.603626 0.20012 0.112202
v 0.598232 0.202236 0.098724
v 0.580663 0.20252 0.099579
v 0.586023 0.200373 0.113369
vn 0.0355 0.9893 0.1417
vn 0.0334 0.9895 0.1403
vn 0.075 0.9673 0.2423
vn 0.1154 0.9622 0.2465
vn 0.0355 0.9893 0.1417
vn 0.0289 0.9907 0.1329
vn 0.0298 0.9908 0.1323
vn 0.0334 0.9895 0.1403
vn 0.0334 0.9895 0.1403
vn 0.0298 0.9908 0.1323
vn 0.0325 0.9905 0.1338
vn 0.0332 0.9895 0.1408
vn 0.0334 0.9895 0.1403
vn 0.0332 0.9895 0.1408
vn 0.0489 0.9693 0.2408
vn 0.075 0.9673 0.2423
vn 0.0298 0.9908 0.1323
vn 0.0286 0.991 0.1308
vn 0.0315 0.9909 0.1312
vn 0.0325 0.9905 0.1338
vn 0.0289 0.9907 0.1329
vn 0.0276 0.9909 0.1314
vn 0.0286 0.991 0.1308
vn 0.0298 0.9908 0.1323
vn 0.0323 0.9905 0.1336
vn 0.0333 0.9894 0.1412
vn 0.0332 0.9895 0.1408
vn 0.0325 0.9905 0.1338
vn 0.0325 0.9905 0.1338
vn 0.0315 0.9909 0.1312
vn 0.0322 0.9908 0.1313
vn 0.0323 0.9905 0.1336
vn 0.0333 0.9894 0.1412
vn 0.0323 0.9905 0.1336
vn 0.0349 0.9903 0.1345
vn 0.0341 0.9892 0.1426
vn 0.0323 0.9905 0.1336
vn 0.0322 0.9908 0.1313
vn 0.0349 0.9906 0.1323
vn 0.0349 0.9903 0.1345
vn 0.0315 0.9909 0.1312
vn 0.0301 0.9917 0.1253
vn 0.0305 0.9917 0.1249
vn 0.0322 0.9908 0.1313
vn 0.0322 0.9908 0.1313
vn 0.0305 0.9917 0.1249
vn 0.0324 0.9918 0.1236
vn 0.0349 0.9906 0.1323
vn 0.0301 0.9917 0.1253
vn 0.0301 0.9917 0.1252
vn 0.0304 0.9917 0.125
vn 0.0305 0.9917 0.1249
vn 0.0305 0.9917 0.1249
vn 0.0304 0.9917 0.125
vn 0.0322 0.9918 0.1237
vn 0.0324 0.9918 0.1236
vn 0.0301 0.9917 0.1252
vn 0.0306 0.9902 0.1364
vn 0.0311 0.9902 0.136
vn 0.0304 0.9917 0.125
vn 0.0304 0.9917 0.125
vn 0.0311 0.9902 0.136
vn 0.0324 0.9905 0.1339
vn 0.0322 0.9918 0.1237
vn 0.0306 0.9902 0.1364
vn 0.0309 0.9897 0.1396
vn 0.0314 0.9899 0.1384
vn 0.0311 0.9902 0.136
vn 0.0311 0.9902 0.136
vn 0.0314 0.9899 0.1384
vn 0.0323 0.9902 0.1359
vn 0.0324 0.9905 0.1339
vn 0.0309 0.9897 0.1396
vn 0.0288 0.9912 0.1292
vn 0.0295 0.9912 0.1289
vn 0.0314 0.9899 0.1384
vn 0.0314 0.9899 0.1384
vn 0.0295 0.9912 0.1289
vn 0.0281 0.9917 0.1258
vn 0.0323 0.9902 0.1359
vn 0.0281 0.9917 0.1258
vn 0.0295 0.9912 0.1289
vn 0.0122 0.9997 0.0206
vn -0.0165 0.9997 0.0171
vn 0.0122 0.9997 0.0206
vn 0.0295 0.9912 0.1289
vn 0.0288 0.9912 0.1292
vn 0.0131 0.9997 0.0206
vn -0.0165 0.9997 0.0171
vn 0.0122 0.9997 0.0206
vn -0.0769 0.8451 -0.529
vn -0.2261 0.8363 -0.4994
vn 0.0131 0.9997 0.0206
vn -0.0692 0.845 -0.5302
vn -0.0769 0.8451 -0.529
vn 0.0122 0.9997 0.0206
vn 0.0131 0.9997 0.0206
vn 0.0303 0.9995 0.0131
vn 0.0706 0.8341 -0.5471
vn -0.0692 0.845 -0.5302
vn 0.0288 0.9912 0.1292
vn 0.0211 0.9907 0.1346
vn 0.0303 0.9995 0.0131
vn 0.0131 0.9997 0.0206
vn 0.0211 0.9907 0.1346
vn 0.0214 0.9907 0.1343
vn 0.0691 0.9976 -0.0043
vn 0.0303 0.9995 0.0131
vn 0.0303 0.9995 0.0131
vn 0.0691 0.9976 -0.0043
vn 0.2424 0.8132 -0.5291
vn 0.0706 0.8341 -0.5471
vn 0.0691 0.9976 -0.0043
vn 0.1258 0.9921 0.0033
vn 0.4237 0.7921 -0.4393
vn 0.2424 0.8132 -0.5291
vn 0.0214 0.9907 0.1343
vn 0.0339 0.9911 0.129
vn 0.1258 0.9921 0.0033
vn 0.0691 0.9976 -0.0043
vn 0.0324 0.9893 0.142
vn 0.0339 0.9911 0.129
vn 0.0214 0.9907 0.1343
vn 0.0182 0.9885 0.15
vn 0.0182 0.9885 0.15
vn 0.0214 0.9907 0.1343
vn 0.0211 0.9907 0.1346
vn 0.0205 0.9888 0.1477
vn 0.0197 0.9894 0.144
vn 0.0182 0.9885 0.15
vn 0.0205 0.9888 0.1477
vn 0.0222 0.9896 0.1423
vn 0.0318 0.9896 0.1402
vn 0.0324 0.9893 0.142
vn 0.0182 0.9885 0.15
vn 0.0197 0.9894 0.144
vn 0.0324 0.9893 0.142
vn 0.0318 0.9896 0.1402
vn 0.1453 0.985 0.0927
vn 0.1502 0.9872 0.0533
vn 0.0339 0.9911 0.129
vn 0.0324 0.9893 0.142
vn 0.1502 0.9872 0.0533
vn 0.1258 0.9921 0.0033
vn 0.1258 0.9921 0.0033
vn 0.1502 0.9872 0.0533
vn 0.561 0.7724 -0.2979
vn 0.4237 0.7921 -0.4393
vn 0.1502 0.9872 0.0533
vn 0.1453 0.985 0.0927
vn 0.6297 0.7631 -0.1456
vn 0.561 0.7724 -0.2979
vn 0.1453 0.985 0.0927
vn 0.1435 0.9838 0.1077
vn 0.6589 0.7522 -0.0053
vn 0.6297 0.7631 -0.1456
vn 0.0318 0.9896 0.1402
vn 0.0332 0.9915 0.1261
vn 0.1435 0.9838 0.1077
vn 0.1453 0.985 0.0927
vn 0.1437 0.9836 0.1087
vn 0.66 0.7513 0.0022
vn 0.6589 0.7522 -0.0053
vn 0.1435 0.9838 0.1077
vn 0.1435 0.9838 0.1077
vn 0.0332 0.9915 0.1261
vn 0.0334 0.9915 0.1258
vn 0.1437 0.9836 0.1087
vn 0.1437 0.9836 0.1087
vn 0.1537 0.9782 0.1394
vn 0.6734 0.7243 0.1482
vn 0.66 0.7513 0.0022
vn 0.0334 0.9915 0.1258
vn 0.0376 0.9905 0.1321
vn 0.1537 0.9782 0.1394
vn 0.1437 0.9836 0.1087
vn 0.0376 0.9905 0.1321
vn 0.0334 0.9915 0.1258
vn 0.0233 0.9916 0.1273
vn 0.0276 0.9909 0.1314
vn 0.0233 0.9916 0.1273
vn 0.0334 0.9915 0.1258
vn 0.0332 0.9915 0.1261
vn 0.0229 0.9915 0.1277
vn 0.0276 0.9909 0.1314
vn 0.0233 0.9916 0.1273
vn 0.0248 0.9916 0.1268
vn 0.0286 0.991 0.1308
vn 0.0233 0.9916 0.1273
vn 0.0229 0.9915 0.1277
vn 0.0245 0.9916 0.1272
vn 0.0248 0.9916 0.1268
vn 0.0229 0.9915 0.1277
vn 0.0197 0.9894 0.144
vn 0.0222 0.9896 0.1423
vn 0.0245 0.9916 0.1272
vn 0.0332 0.9915 0.1261
vn 0.0318 0.9896 0.1402
vn 0.0197 0.9894 0.144
vn 0.0229 0.9915 0.1277
vn 0.0301 0.9917 0.1253
vn 0.0248 0.9916 0.1268
vn 0.0245 0.9916 0.1272
vn 0.0301 0.9917 0.1252
vn 0.0245 0.9916 0.1272
vn 0.0222 0.9896 0.1423
vn 0.0306 0.9902 0.1364
vn 0.0301 0.9917 0.1252
vn 0.0222 0.9896 0.1423
vn 0.0205 0.9888 0.1477
vn 0.0309 0.9897 0.1396
vn 0.0306 0.9902 0.1364
vn 0.0286 0.991 0.1308
vn 0.0248 0.9916 0.1268
vn 0.0301 0.9917 0.1253
vn 0.0315 0.9909 0.1312
vn 0.04 0.9898 0.1364
vn 0.0376 0.9905 0.1321
vn 0.0276 0.9909 0.1314
vn 0.0289 0.9907 0.1329
vn 0.0376 0.9905 0.1321
vn 0.04 0.9898 0.1364
vn 0.1686 0.9694 0.1782
vn 0.1537 0.9782 0.1394
vn 0.04 0.9898 0.1364
vn 0.0439 0.9886 0.1437
vn 0.1611 0.9607 0.2262
vn 0.1686 0.9694 0.1782
vn 0.0439 0.9886 0.1437
vn 0.04 0.9898 0.1364
vn 0.0289 0.9907 0.1329
vn 0.0355 0.9893 0.1417
vn 0.1537 0.9782 0.1394
vn 0.1686 0.9694 0.1782
vn 0.6511 0.6909 0.3142
vn 0.6734 0.7243 0.1482
vn 0.1686 0.9694 0.1782
vn 0.1611 0.9607 0.2262
vn 0.5623 0.668 0.4874
vn 0.6511 0.6909 0.3142
vn 0.1611 0.9607 0.2262
vn 0.1154 0.9622 0.2465
vn 0.4204 0.6587 0.624
vn 0.5623 0.668 0.4874
vn 0.0439 0.9886 0.1437
vn 0.0355 0.9893 0.1417
vn 0.1154 0.9622 0.2465
vn 0.1611 0.9607 0.2262
vn 0.1154 0.9622 0.2465
vn 0.075 0.9673 0.2423
vn 0.2657 0.6679 0.6953
vn 0.4204 0.6587 0.624
vn 0.4204 0.6587 0.624
vn 0.2657 0.6679 0.6953
vn 0.3768 -0.0839 0.9225
vn 0.6012 -0.0749 0.7956
vn 0.5623 0.668 0.4874
vn 0.4204 0.6587 0.624
vn 0.6012 -0.0749 0.7956
vn 0.8071 -0.0543 0.5879
vn 0.8073 -0.0928 0.5827
vn 0.8071 -0.0543 0.5879
vn 0.6012 -0.0749 0.7956
vn 0.6007 -0.1132 0.7914
vn 0.6007 -0.1132 0.7914
vn 0.6012 -0.0749 0.7956
vn 0.3768 -0.0839 0.9225
vn 0.3761 -0.1226 0.9184
vn 0.3768 -0.0839 0.9225
vn 0.1563 -0.0851 0.984
vn 0.1552 -0.1238 0.9801
vn 0.3761 -0.1226 0.9184
vn 0.2657 0.6679 0.6953
vn 0.123 0.6775 0.7252
vn 0.1563 -0.0851 0.984
vn 0.3768 -0.0839 0.9225
vn 0.1552 -0.1238 0.9801
vn 0.1563 -0.0851 0.984
vn 0.1435 -0.085 0.986
vn 0.1425 -0.1237 0.982
vn 0.1563 -0.0851 0.984
vn 0.123 0.6775 0.7252
vn 0.1152 0.6775 0.7264
vn 0.1435 -0.085 0.986
vn 0.1425 -0.1237 0.982
vn 0.1435 -0.085 0.986
vn -0.0852 -0.0791 0.9932
vn -0.0867 -0.1176 0.9893
vn 0.1152 0.6775 0.7264
vn -0.029 0.6708 0.7411
vn -0.0852 -0.0791 0.9932
vn 0.1435 -0.085 0.986
vn 0.0477 0.9693 0.2411
vn 0.0246 0.9675 0.2518
vn -0.029 0.6708 0.7411
vn 0.1152 0.6775 0.7264
vn 0.0477 0.9693 0.2411
vn 0.1152 0.6775 0.7264
vn 0.123 0.6775 0.7252
vn 0.0489 0.9693 0.2408
vn 0.0333 0.9894 0.1412
vn 0.0341 0.9892 0.1426
vn 0.0246 0.9675 0.2518
vn 0.0477 0.9693 0.2411
vn 0.0489 0.9693 0.2408
vn 0.0332 0.9895 0.1408
vn 0.0333 0.9894 0.1412
vn 0.0477 0.9693 0.2411
vn 0.075 0.9673 0.2423
vn 0.0489 0.9693 0.2408
vn 0.123 0.6775 0.7252
vn 0.2657 0.6679 0.6953
vn 0.0341 0.9892 0.1426
vn 0.0326 0.989 0.1443
vn -0.0127 0.9633 0.2681
vn 0.0246 0.9675 0.2518
vn 0.0246 0.9675 0.2518
vn -0.0127 0.9633 0.2681
vn -0.1978 0.6652 0.72
vn -0.029 0.6708 0.7411
vn -0.0127 0.9633 0.2681
vn -0.063 0.9628 0.2626
vn -0.3738 0.6779 0.633
vn -0.1978 0.6652 0.72
vn 0.0326 0.989 0.1443
vn 0.0244 0.9885 0.1489
vn -0.063 0.9628 0.2626
vn -0.0127 0.9633 0.2681
vn 0.0326 0.989 0.1443
vn 0.0358 0.9903 0.1342
vn 0.0258 0.9897 0.1405
vn 0.0244 0.9885 0.1489
vn 0.0341 0.9892 0.1426
vn 0.0349 0.9903 0.1345
vn 0.0358 0.9903 0.1342
vn 0.0326 0.989 0.1443
vn 0.0358 0.9903 0.1342
vn 0.0357 0.9906 0.1317
vn 0.026 0.9905 0.1347
vn 0.0258 0.9897 0.1405
vn 0.0349 0.9903 0.1345
vn 0.0349 0.9906 0.1323
vn 0.0357 0.9906 0.1317
vn 0.0358 0.9903 0.1342
vn 0.0349 0.9906 0.1323
vn 0.0324 0.9918 0.1236
vn 0.0329 0.9918 0.1233
vn 0.0357 0.9906 0.1317
vn 0.0357 0.9906 0.1317
vn 0.0329 0.9918 0.1233
vn 0.0234 0.9919 0.1247
vn 0.026 0.9905 0.1347
vn 0.0329 0.9918 0.1233
vn 0.0328 0.9918 0.1234
vn 0.0233 0.9919 0.1246
vn 0.0234 0.9919 0.1247
vn 0.0329 0.9918 0.1233
vn 0.0324 0.9918 0.1236
vn 0.0322 0.9918 0.1237
vn 0.0328 0.9918 0.1234
vn 0.0328 0.9918 0.1234
vn 0.0323 0.9906 0.1331
vn 0.0218 0.9911 0.1315
vn 0.0233 0.9919 0.1246
vn 0.0322 0.9918 0.1237
vn 0.0324 0.9905 0.1339
vn 0.0323 0.9906 0.1331
vn 0.0328 0.9918 0.1234
vn 0.0324 0.9905 0.1339
vn 0.0323 0.9902 0.1359
vn 0.0323 0.9903 0.1355
vn 0.0323 0.9906 0.1331
vn 0.0323 0.9906 0.1331
vn 0.0323 0.9903 0.1355
vn 0.0199 0.9911 0.1315
vn 0.0218 0.9911 0.1315
vn 0.0323 0.9903 0.1355
vn 0.0246 0.9919 0.1245
vn 0.0145 0.9924 0.1225
vn 0.0199 0.9911 0.1315
vn 0.0323 0.9902 0.1359
vn 0.0281 0.9917 0.1258
vn 0.0246 0.9919 0.1245
vn 0.0323 0.9903 0.1355
vn 0.0246 0.9919 0.1245
vn 0.0281 0.9917 0.1258
vn -0.0165 0.9997 0.0171
vn -0.0591 0.9982 0.0129
vn 0.0145 0.9924 0.1225
vn 0.0246 0.9919 0.1245
vn -0.0591 0.9982 0.0129
vn -0.1052 0.9938 0.0346
vn -0.1052 0.9938 0.0346
vn -0.0591 0.9982 0.0129
vn -0.3817 0.8184 -0.4296
vn -0.5218 0.8012 -0.2927
vn -0.0591 0.9982 0.0129
vn -0.0165 0.9997 0.0171
vn -0.2261 0.8363 -0.4994
vn -0.3817 0.8184 -0.4296
vn -0.3817 0.8184 -0.4296
vn -0.2261 0.8363 -0.4994
vn -0.3806 0.1732 -0.9084
vn -0.6023 0.1634 -0.7814
vn -0.5218 0.8012 -0.2927
vn -0.3817 0.8184 -0.4296
vn -0.6023 0.1634 -0.7814
vn -0.8057 0.1435 -0.5746
vn -0.8057 0.1435 -0.5746
vn -0.6023 0.1634 -0.7814
vn -0.604 0.1253 -0.7871
vn -0.8077 0.1051 -0.5802
vn -0.604 0.1253 -0.7871
vn -0.6023 0.1634 -0.7814
vn -0.3806 0.1732 -0.9084
vn -0.3821 0.1348 -0.9142
vn -0.3806 0.1732 -0.9084
vn -0.1538 0.1746 -0.9725
vn -0.155 0.1361 -0.9785
vn -0.3821 0.1348 -0.9142
vn -0.2261 0.8363 -0.4994
vn -0.0769 0.8451 -0.529
vn -0.1538 0.1746 -0.9725
vn -0.3806 0.1732 -0.9084
vn -0.1423 0.1359 -0.9804
vn -0.155 0.1361 -0.9785
vn -0.1538 0.1746 -0.9725
vn -0.1411 0.1745 -0.9745
vn -0.1538 0.1746 -0.9725
vn -0.0769 0.8451 -0.529
vn -0.0692 0.845 -0.5302
vn -0.1411 0.1745 -0.9745
vn -0.1423 0.1359 -0.9804
vn -0.1411 0.1745 -0.9745
vn 0.086 0.1683 -0.982
vn 0.0853 0.13 -0.9878
vn -0.0692 0.845 -0.5302
vn 0.0706 0.8341 -0.5471
vn 0.086 0.1683 -0.982
vn -0.1411 0.1745 -0.9745
vn 0.0706 0.8341 -0.5471
vn 0.2424 0.8132 -0.5291
vn 0.3381 0.1536 -0.9285
vn 0.086 0.1683 -0.982
vn 0.0853 0.13 -0.9878
vn 0.086 0.1683 -0.982
vn 0.3381 0.1536 -0.9285
vn 0.3375 0.1155 -0.9342
vn 0.3375 0.1155 -0.9342
vn 0.3381 0.1536 -0.9285
vn 0.5969 0.1286 -0.7919
vn 0.5957 0.0903 -0.7981
vn 0.2424 0.8132 -0.5291
vn 0.4237 0.7921 -0.4393
vn 0.5969 0.1286 -0.7919
vn 0.3381 0.1536 -0.9285
vn 0.5969 0.1286 -0.7919
vn 0.799 0.0967 -0.5935
vn 0.7983 0.0587 -0.5994
vn 0.5957 0.0903 -0.7981
vn 0.4237 0.7921 -0.4393
vn 0.561 0.7724 -0.2979
vn 0.799 0.0967 -0.5935
vn 0.5969 0.1286 -0.7919
vn 0.7983 0.0587 -0.5994
vn 0.799 0.0967 -0.5935
vn 0.9227 0.0658 -0.3799
vn 0.9228 0.0273 -0.3843
vn 0.561 0.7724 -0.2979
vn 0.6297 0.7631 -0.1456
vn 0.9227 0.0658 -0.3799
vn 0.799 0.0967 -0.5935
vn 0.6297 0.7631 -0.1456
vn 0.6589 0.7522 -0.0053
vn 0.9876 0.0352 -0.153
vn 0.9227 0.0658 -0.3799
vn 0.9228 0.0273 -0.3843
vn 0.9227 0.0658 -0.3799
vn 0.9876 0.0352 -0.153
vn 0.9874 -0.0036 -0.1581
vn 0.9874 -0.0036 -0.1581
vn 0.9876 0.0352 -0.153
vn 0.9895 0.0334 -0.1407
vn 0.9893 -0.0052 -0.1458
vn 0.9876 0.0352 -0.153
vn 0.6589 0.7522 -0.0053
vn 0.66 0.7513 0.0022
vn 0.9895 0.0334 -0.1407
vn 0.9893 -0.0052 -0.1458
vn 0.9895 0.0334 -0.1407
vn 0.9966 0.0045 0.0819
vn 0.9965 -0.0339 0.077
vn 0.9965 -0.0339 0.077
vn 0.9966 0.0045 0.0819
vn 0.9438 -0.0255 0.3295
vn 0.9436 -0.064 0.3247
vn 0.6734 0.7243 0.1482
vn 0.6511 0.6909 0.3142
vn 0.9438 -0.0255 0.3295
vn 0.9966 0.0045 0.0819
vn 0.66 0.7513 0.0022
vn 0.6734 0.7243 0.1482
vn 0.9966 0.0045 0.0819
vn 0.9895 0.0334 -0.1407
vn 0.9436 -0.064 0.3247
vn 0.9438 -0.0255 0.3295
vn 0.8071 -0.0543 0.5879
vn 0.8073 -0.0928 0.5827
vn 0.6511 0.6909 0.3142
vn 0.5623 0.668 0.4874
vn 0.8071 -0.0543 0.5879
vn 0.9438 -0.0255 0.3295
vn -0.9433 0.0763 -0.3231
vn -0.9413 0.1144 -0.3177
vn -0.8057 0.1435 -0.5746
vn -0.8077 0.1051 -0.5802
vn -0.996 0.0463 -0.0759
vn -0.9939 0.0847 -0.0707
vn -0.9413 0.1144 -0.3177
vn -0.9433 0.0763 -0.3231
vn -0.6286 0.7761 0.0505
vn -0.6091 0.7845 -0.1165
vn -0.9413 0.1144 -0.3177
vn -0.9939 0.0847 -0.0707
vn -0.6091 0.7845 -0.1165
vn -0.5218 0.8012 -0.2927
vn -0.8057 0.1435 -0.5746
vn -0.9413 0.1144 -0.3177
vn -0.1114 0.9901 0.0856
vn -0.1052 0.9938 0.0346
vn -0.5218 0.8012 -0.2927
vn -0.6091 0.7845 -0.1165
vn -0.0951 0.988 0.1217
vn -0.1114 0.9901 0.0856
vn -0.6091 0.7845 -0.1165
vn -0.6286 0.7761 0.0505
vn 0.0218 0.9911 0.1315
vn 0.0199 0.9911 0.1315
vn -0.1114 0.9901 0.0856
vn -0.0951 0.988 0.1217
vn 0.0199 0.9911 0.1315
vn 0.0145 0.9924 0.1225
vn -0.1052 0.9938 0.0346
vn -0.1114 0.9901 0.0856
vn -0.0861 0.9864 0.1399
vn -0.0951 0.988 0.1217
vn -0.6286 0.7761 0.0505
vn -0.6146 0.7659 0.189
vn 0.0233 0.9919 0.1246
vn 0.0218 0.9911 0.1315
vn -0.0951 0.988 0.1217
vn -0.0861 0.9864 0.1399
vn -0.0861 0.9864 0.1399
vn -0.6146 0.7659 0.189
vn -0.6133 0.7649 0.1968
vn -0.0858 0.9862 0.1413
vn -0.0858 0.9862 0.1413
vn 0.0234 0.9919 0.1247
vn 0.0233 0.9919 0.1246
vn -0.0861 0.9864 0.1399
vn -0.0831 0.9808 0.1766
vn -0.0858 0.9862 0.1413
vn -0.6133 0.7649 0.1968
vn -0.5817 0.7376 0.3429
vn 0.026 0.9905 0.1347
vn 0.0234 0.9919 0.1247
vn -0.0858 0.9862 0.1413
vn -0.0831 0.9808 0.1766
vn -0.5817 0.7376 0.3429
vn -0.6133 0.7649 0.1968
vn -0.9849 0.0545 0.1643
vn -0.9249 0.0249 0.3794
vn -0.9849 0.0545 0.1643
vn -0.6133 0.7649 0.1968
vn -0.6146 0.7659 0.189
vn -0.9868 0.0563 0.152
vn -0.987 0.0159 0.1597
vn -0.9849 0.0545 0.1643
vn -0.9868 0.0563 0.152
vn -0.9889 0.0177 0.1473
vn -0.927 -0.0135 0.3748
vn -0.9249 0.0249 0.3794
vn -0.9849 0.0545 0.1643
vn -0.987 0.0159 0.1597
vn -0.9889 0.0177 0.1473
vn -0.9868 0.0563 0.152
vn -0.9939 0.0847 -0.0707
vn -0.996 0.0463 -0.0759
vn -0.803 -0.0453 0.5942
vn -0.8009 -0.0071 0.5987
vn -0.9249 0.0249 0.3794
vn -0.927 -0.0135 0.3748
vn -0.5948 -0.0391 0.8029
vn -0.8009 -0.0071 0.5987
vn -0.803 -0.0453 0.5942
vn -0.5966 -0.0777 0.7988
vn -0.3738 0.6779 0.633
vn -0.5106 0.7032 0.4947
vn -0.8009 -0.0071 0.5987
vn -0.5948 -0.0391 0.8029
vn -0.5106 0.7032 0.4947
vn -0.5817 0.7376 0.3429
vn -0.9249 0.0249 0.3794
vn -0.8009 -0.0071 0.5987
vn -0.0851 0.972 0.219
vn -0.0831 0.9808 0.1766
vn -0.5817 0.7376 0.3429
vn -0.5106 0.7032 0.4947
vn -0.063 0.9628 0.2626
vn -0.0851 0.972 0.219
vn -0.5106 0.7032 0.4947
vn -0.3738 0.6779 0.633
vn 0.0244 0.9885 0.1489
vn 0.0258 0.9897 0.1405
vn -0.0851 0.972 0.219
vn -0.063 0.9628 0.2626
vn 0.0258 0.9897 0.1405
vn 0.026 0.9905 0.1347
vn -0.0831 0.9808 0.1766
vn -0.0851 0.972 0.219
vn -0.1978 0.6652 0.72
vn -0.3738 0.6779 0.633
vn -0.5948 -0.0391 0.8029
vn -0.3365 -0.0648 0.9394
vn -0.3383 -0.1031 0.9354
vn -0.3365 -0.0648 0.9394
vn -0.5948 -0.0391 0.8029
vn -0.5966 -0.0777 0.7988
vn -0.0852 -0.0791 0.9932
vn -0.3365 -0.0648 0.9394
vn -0.3383 -0.1031 0.9354
vn -0.0867 -0.1176 0.9893
vn -0.029 0.6708 0.7411
vn -0.1978 0.6652 0.72
vn -0.3365 -0.0648 0.9394
vn -0.0852 -0.0791 0.9932
vn -0.6146 0.7659 0.189
vn -0.6286 0.7761 0.0505
vn -0.9939 0.0847 -0.0707
vn -0.9868 0.0563 0.152
vn 0.0205 0.9888 0.1477
vn 0.0211 0.9907 0.1346
vn 0.0288 0.9912 0.1292
vn 0.0309 0.9897 0.1396
vt 1.20583 0.784832
vt 1.19953 0.782744
vt 1.19927 0.778493
vt 1.20604 0.781042
vt 1.20583 0.784832
vt 1.20737 0.79098
vt 1.20103 0.78937
vt 1.19953 0.782744
vt 1.19953 0.782744
vt 1.20103 0.78937
vt 1.19293 0.788656
vt 1.19146 0.781872
vt 1.19953 0.782744
vt 1.19146 0.781872
vt 1.19099 0.77749
vt 1.19927 0.778493
vt 1.20103 0.78937
vt 1.20272 0.79654
vt 1.19447 0.796004
vt 1.19293 0.788656
vt 1.20737 0.79098
vt 1.2092 0.797758
vt 1.20272 0.79654
vt 1.20103 0.78937
vt 1.03378 0.788889
vt 1.03528 0.782089
vt 1.19146 0.781872
vt 1.19293 0.788656
vt 1.19293 0.788656
vt 1.19447 0.796004
vt 1.0322 0.796253
vt 1.03378 0.788889
vt 1.03528 0.782089
vt 1.03378 0.788889
vt 1.02571 0.789629
vt 1.02722 0.782988
vt 1.03378 0.788889
vt 1.0322 0.796253
vt 1.02401 0.796815
vt 1.02571 0.789629
vt 1.19447 0.796004
vt 1.19513 0.80518
vt 1.03148 0.80541
vt 1.0322 0.796253
vt 1.0322 0.796253
vt 1.03148 0.80541
vt 1.02324 0.805782
vt 1.02401 0.796815
vt 1.19513 0.80518
vt 1.19511 0.966603
vt 1.0313 0.966123
vt 1.03148 0.80541
vt 1.03148 0.80541
vt 1.0313 0.966123
vt 1.02318 0.965733
vt 1.02324 0.805782
vt 1.19511 0.966603
vt 1.19444 0.975231
vt 1.03192 0.975205
vt 1.0313 0.966123
vt 1.0313 0.966123
vt 1.03192 0.975205
vt 1.02391 0.97465
vt 1.02318 0.965733
vt 1.19444 0.975231
vt 1.1929 0.982351
vt 1.03343 0.982526
vt 1.03192 0.975205
vt 1.03192 0.975205
vt 1.03343 0.982526
vt 1.02559 0.981804
vt 1.02391 0.97465
vt 1.1929 0.982351
vt 1.19143 0.989116
vt 1.03487 0.989309
vt 1.03343 0.982526
vt 1.03343 0.982526
vt 1.03487 0.989309
vt 1.02708 0.988427
vt 1.02559 0.981804
vt 1.02708 0.988427
vt 1.03487 0.989309
vt 1.03533 0.99369
vt 1.02733 0.992676
vt 1.03533 0.99369
vt 1.03487 0.989309
vt 1.19143 0.989116
vt 1.19096 0.993505
vt 1.02733 0.992676
vt 1.03533 0.99369
vt 1.03521 0.996005
vt 1.02692 0.9949
vt 1.19096 0.993505
vt 1.19108 0.995825
vt 1.03521 0.996005
vt 1.03533 0.99369
vt 1.19096 0.993505
vt 1.19927 0.992482
vt 1.19967 0.99471
vt 1.19108 0.995825
vt 1.19143 0.989116
vt 1.19952 0.988224
vt 1.19927 0.992482
vt 1.19096 0.993505
vt 1.19952 0.988224
vt 1.20583 0.986125
vt 1.20604 0.989915
vt 1.19927 0.992482
vt 1.19927 0.992482
vt 1.20604 0.989915
vt 1.20691 0.991909
vt 1.19967 0.99471
vt 1.20604 0.989915
vt 1.21244 0.985431
vt 1.21391 0.986899
vt 1.20691 0.991909
vt 1.20583 0.986125
vt 1.21078 0.983718
vt 1.21244 0.985431
vt 1.20604 0.989915
vt 1.21321 0.97868
vt 1.21078 0.983718
vt 1.20583 0.986125
vt 1.20736 0.980003
vt 1.20736 0.980003
vt 1.20583 0.986125
vt 1.19952 0.988224
vt 1.20102 0.98162
vt 1.20919 0.973475
vt 1.20736 0.980003
vt 1.20102 0.98162
vt 1.20271 0.97469
vt 1.21537 0.972444
vt 1.21321 0.97868
vt 1.20736 0.980003
vt 1.20919 0.973475
vt 1.21321 0.97868
vt 1.21537 0.972444
vt 1.21944 0.972384
vt 1.21689 0.978977
vt 1.21078 0.983718
vt 1.21321 0.97868
vt 1.21689 0.978977
vt 1.21244 0.985431
vt 1.21244 0.985431
vt 1.21689 0.978977
vt 1.21887 0.979847
vt 1.21391 0.986899
vt 1.21689 0.978977
vt 1.21944 0.972384
vt 1.22164 0.972805
vt 1.21887 0.979847
vt 1.21944 0.972384
vt 1.22045 0.964582
vt 1.22274 0.96474
vt 1.22164 0.972805
vt 1.21537 0.972444
vt 1.21628 0.964737
vt 1.22045 0.964582
vt 1.21944 0.972384
vt 1.22045 0.807269
vt 1.22274 0.807107
vt 1.22274 0.96474
vt 1.22045 0.964582
vt 1.22045 0.964582
vt 1.21628 0.964737
vt 1.21628 0.807107
vt 1.22045 0.807269
vt 1.22045 0.807269
vt 1.21944 0.798852
vt 1.22164 0.798421
vt 1.22274 0.807107
vt 1.21628 0.807107
vt 1.21537 0.798792
vt 1.21944 0.798852
vt 1.22045 0.807269
vt 1.21537 0.798792
vt 1.21628 0.807107
vt 1.21002 0.806357
vt 1.2092 0.797758
vt 1.21002 0.806357
vt 1.21628 0.807107
vt 1.21628 0.964737
vt 1.21001 0.965469
vt 1.2092 0.797758
vt 1.21002 0.806357
vt 1.20346 0.805532
vt 1.20272 0.79654
vt 1.21002 0.806357
vt 1.21001 0.965469
vt 1.20346 0.966272
vt 1.20346 0.805532
vt 1.21001 0.965469
vt 1.20919 0.973475
vt 1.20271 0.97469
vt 1.20346 0.966272
vt 1.21628 0.964737
vt 1.21537 0.972444
vt 1.20919 0.973475
vt 1.21001 0.965469
vt 1.19513 0.80518
vt 1.20346 0.805532
vt 1.20346 0.966272
vt 1.19511 0.966603
vt 1.20346 0.966272
vt 1.20271 0.97469
vt 1.19444 0.975231
vt 1.19511 0.966603
vt 1.20271 0.97469
vt 1.20102 0.98162
vt 1.1929 0.982351
vt 1.19444 0.975231
vt 1.20272 0.79654
vt 1.20346 0.805532
vt 1.19513 0.80518
vt 1.19447 0.796004
vt 1.21323 0.792299
vt 1.21537 0.798792
vt 1.2092 0.797758
vt 1.20737 0.79098
vt 1.21537 0.798792
vt 1.21323 0.792299
vt 1.2169 0.792
vt 1.21944 0.798852
vt 1.21323 0.792299
vt 1.21079 0.787231
vt 1.21246 0.785514
vt 1.2169 0.792
vt 1.21079 0.787231
vt 1.21323 0.792299
vt 1.20737 0.79098
vt 1.20583 0.784832
vt 1.21944 0.798852
vt 1.2169 0.792
vt 1.21888 0.791118
vt 1.22164 0.798421
vt 1.2169 0.792
vt 1.21246 0.785514
vt 1.21393 0.784036
vt 1.21888 0.791118
vt 1.21246 0.785514
vt 1.20604 0.781042
vt 1.20691 0.779043
vt 1.21393 0.784036
vt 1.21079 0.787231
vt 1.20583 0.784832
vt 1.20604 0.781042
vt 1.21246 0.785514
vt 1.20604 0.781042
vt 1.19927 0.778493
vt 1.19967 0.776264
vt 1.20691 0.779043
vt 1.20691 0.779043
vt 1.19967 0.776264
vt 1.20019 0.774279
vt 1.20789 0.777237
vt 1.21393 0.784036
vt 1.20691 0.779043
vt 1.20789 0.777237
vt 1.21537 0.78259
vt 1.90082 0.552453
vt 1.88215 0.552308
vt 1.88225 0.543403
vt 1.90091 0.543515
vt 1.90091 0.543515
vt 1.88225 0.543403
vt 1.88231 0.535437
vt 1.90097 0.535521
vt 1.88231 0.535437
vt 1.88234 0.526692
vt 1.90101 0.526758
vt 1.90097 0.535521
vt 1.19967 0.776264
vt 1.19111 0.775171
vt 1.19128 0.77313
vt 1.20019 0.774279
vt 1.90101 0.526758
vt 1.88234 0.526692
vt 1.88266 0.371203
vt 1.90133 0.371245
vt 1.19128 0.77313
vt 1.19111 0.775171
vt 1.03565 0.775379
vt 1.03548 0.773336
vt 1.90133 0.371245
vt 1.88266 0.371203
vt 1.88265 0.362454
vt 1.90132 0.362478
vt 1.03565 0.775379
vt 1.02707 0.776496
vt 1.02655 0.774506
vt 1.03548 0.773336
vt 1.03577 0.7777
vt 1.02747 0.778727
vt 1.02707 0.776496
vt 1.03565 0.775379
vt 1.03577 0.7777
vt 1.03565 0.775379
vt 1.19111 0.775171
vt 1.19099 0.77749
vt 1.03528 0.782089
vt 1.02722 0.782988
vt 1.02747 0.778727
vt 1.03577 0.7777
vt 1.19099 0.77749
vt 1.19146 0.781872
vt 1.03528 0.782089
vt 1.03577 0.7777
vt 1.19927 0.778493
vt 1.19099 0.77749
vt 1.19111 0.775171
vt 1.19967 0.776264
vt 1.02722 0.782988
vt 1.02091 0.785101
vt 1.0207 0.781306
vt 1.02747 0.778727
vt 1.02747 0.778727
vt 1.0207 0.781306
vt 1.01983 0.779307
vt 1.02707 0.776496
vt 1.0207 0.781306
vt 1.01428 0.785807
vt 1.01281 0.784331
vt 1.01983 0.779307
vt 1.02091 0.785101
vt 1.01595 0.787521
vt 1.01428 0.785807
vt 1.0207 0.781306
vt 1.02091 0.785101
vt 1.01937 0.791263
vt 1.01351 0.792604
vt 1.01595 0.787521
vt 1.02722 0.782988
vt 1.02571 0.789629
vt 1.01937 0.791263
vt 1.02091 0.785101
vt 1.01937 0.791263
vt 1.01754 0.798055
vt 1.01137 0.799109
vt 1.01351 0.792604
vt 1.02571 0.789629
vt 1.02401 0.796815
vt 1.01754 0.798055
vt 1.01937 0.791263
vt 1.02401 0.796815
vt 1.02324 0.805782
vt 1.01672 0.806624
vt 1.01754 0.798055
vt 1.01754 0.798055
vt 1.01672 0.806624
vt 1.01046 0.80739
vt 1.01137 0.799109
vt 1.01672 0.806624
vt 1.01671 0.964882
vt 1.01046 0.964112
vt 1.01046 0.80739
vt 1.01672 0.806624
vt 1.02324 0.805782
vt 1.02318 0.965733
vt 1.01671 0.964882
vt 1.01671 0.964882
vt 1.01753 0.973423
vt 1.01137 0.972383
vt 1.01046 0.964112
vt 1.02318 0.965733
vt 1.02391 0.97465
vt 1.01753 0.973423
vt 1.01671 0.964882
vt 1.02391 0.97465
vt 1.02559 0.981804
vt 1.01936 0.980191
vt 1.01753 0.973423
vt 1.01753 0.973423
vt 1.01936 0.980191
vt 1.01352 0.978872
vt 1.01137 0.972383
vt 1.01936 0.980191
vt 1.0209 0.986336
vt 1.01596 0.983938
vt 1.01352 0.978872
vt 1.02559 0.981804
vt 1.02708 0.988427
vt 1.0209 0.986336
vt 1.01936 0.980191
vt 1.0209 0.986336
vt 1.02708 0.988427
vt 1.02733 0.992676
vt 1.02069 0.990124
vt 1.01596 0.983938
vt 1.0209 0.986336
vt 1.02069 0.990124
vt 1.01429 0.985654
vt 1.01429 0.985654
vt 1.02069 0.990124
vt 1.01982 0.992119
vt 1.01282 0.987125
vt 1.02069 0.990124
vt 1.02733 0.992676
vt 1.02692 0.9949
vt 1.01982 0.992119
vt 1.01982 0.992119
vt 1.02692 0.9949
vt 1.02639 0.996882
vt 1.01882 0.993916
vt 1.01282 0.987125
vt 1.01982 0.992119
vt 1.01882 0.993916
vt 1.01136 0.988556
vt 1.90742 0.567901
vt 1.90746 0.55901
vt 1.92612 0.559152
vt 1.92608 0.568076
vt 1.92612 0.559152
vt 1.90746 0.55901
vt 1.90749 0.551164
vt 1.92615 0.551278
vt 1.90749 0.551164
vt 1.90753 0.542695
vt 1.92619 0.542791
vt 1.92615 0.551278
vt 1.02692 0.9949
vt 1.03521 0.996005
vt 1.03503 0.998047
vt 1.02639 0.996882
vt 1.9267 0.386872
vt 1.92619 0.542791
vt 1.90753 0.542695
vt 1.90804 0.3868
vt 1.03503 0.998047
vt 1.03521 0.996005
vt 1.19108 0.995825
vt 1.19124 0.997868
vt 1.9267 0.386872
vt 1.90804 0.3868
vt 1.908 0.378035
vt 1.92667 0.378089
vt 1.19108 0.995825
vt 1.19967 0.99471
vt 1.20018 0.9967
vt 1.19124 0.997868
vt 1.19967 0.99471
vt 1.20691 0.991909
vt 1.20789 0.993712
vt 1.20018 0.9967
vt 1.92667 0.378089
vt 1.908 0.378035
vt 1.90795 0.370067
vt 1.92662 0.370092
vt 1.92662 0.370092
vt 1.90795 0.370067
vt 1.90794 0.361153
vt 1.92661 0.361145
vt 1.20691 0.991909
vt 1.21391 0.986899
vt 1.21537 0.988331
vt 1.20789 0.993712
vt 1.90794 0.361153
vt 1.90801 0.352235
vt 1.92668 0.352195
vt 1.92661 0.361145
vt 1.21391 0.986899
vt 1.21887 0.979847
vt 1.22069 0.980811
vt 1.21537 0.988331
vt 1.92668 0.352195
vt 1.90801 0.352235
vt 1.90811 0.344454
vt 1.92677 0.344386
vt 1.21887 0.979847
vt 1.22164 0.972805
vt 1.22363 0.973308
vt 1.22069 0.980811
vt 1.22164 0.972805
vt 1.22274 0.96474
vt 1.22478 0.964906
vt 1.22363 0.973308
vt 1.92677 0.344386
vt 1.90811 0.344454
vt 1.90815 0.336208
vt 1.92682 0.336122
vt 1.92682 0.336122
vt 1.90815 0.336208
vt 1.90724 0.17855
vt 1.9259 0.178439
vt 1.22478 0.964906
vt 1.22274 0.96474
vt 1.22274 0.807107
vt 1.22478 0.806935
vt 1.90041 0.578344
vt 1.88175 0.578121
vt 1.88189 0.569261
vt 1.90055 0.569467
vt 1.90055 0.569467
vt 1.88189 0.569261
vt 1.88202 0.561241
vt 1.90068 0.561419
vt 1.22164 0.798421
vt 1.21888 0.791118
vt 1.22069 0.790133
vt 1.22363 0.7979
vt 1.22274 0.807107
vt 1.22164 0.798421
vt 1.22363 0.7979
vt 1.22478 0.806935
vt 1.90068 0.561419
vt 1.88202 0.561241
vt 1.88215 0.552308
vt 1.90082 0.552453
vt 1.21888 0.791118
vt 1.21393 0.784036
vt 1.21537 0.78259
vt 1.22069 0.790133
vt 1.92604 0.577043
vt 1.90738 0.576835
vt 1.90742 0.567901
vt 1.92608 0.568076
vt 1.926 0.585092
vt 1.90733 0.584856
vt 1.90738 0.576835
vt 1.92604 0.577043
vt 1.00509 0.97275
vt 1.00786 0.980048
vt 1.00605 0.981013
vt 1.00311 0.973255
vt 1.00786 0.980048
vt 1.01282 0.987125
vt 1.01136 0.988556
vt 1.00605 0.981013
vt 1.00985 0.979173
vt 1.01429 0.985654
vt 1.01282 0.987125
vt 1.00786 0.980048
vt 1.0073 0.972322
vt 1.00985 0.979173
vt 1.00786 0.980048
vt 1.00509 0.97275
vt 1.01137 0.972383
vt 1.01352 0.978872
vt 1.00985 0.979173
vt 1.0073 0.972322
vt 1.01352 0.978872
vt 1.01596 0.983938
vt 1.01429 0.985654
vt 1.00985 0.979173
vt 1.00628 0.963943
vt 1.0073 0.972322
vt 1.00509 0.97275
vt 1.00399 0.964102
vt 1.01046 0.964112
vt 1.01137 0.972383
vt 1.0073 0.972322
vt 1.00628 0.963943
vt 1.00628 0.963943
vt 1.00399 0.964102
vt 1.004 0.807399
vt 1.00629 0.807558
vt 1.00629 0.807558
vt 1.01046 0.80739
vt 1.01046 0.964112
vt 1.00628 0.963943
vt 1.0073 0.799179
vt 1.00629 0.807558
vt 1.004 0.807399
vt 1.00509 0.79875
vt 1.01137 0.799109
vt 1.01046 0.80739
vt 1.00629 0.807558
vt 1.0073 0.799179
vt 1.00509 0.79875
vt 1.004 0.807399
vt 1.00196 0.80723
vt 1.00311 0.798229
vt 1.00196 0.80723
vt 1.004 0.807399
vt 1.00399 0.964102
vt 1.00195 0.964273
vt 1.90092 0.319641
vt 1.88226 0.319757
vt 1.88175 0.163023
vt 1.90041 0.162883
vt 1.901 0.328482
vt 1.88234 0.32858
vt 1.88226 0.319757
vt 1.90092 0.319641
vt 1.9259 0.593929
vt 1.90724 0.593676
vt 1.90733 0.584856
vt 1.926 0.585092
vt 1.9011 0.33654
vt 1.88244 0.33661
vt 1.88234 0.32858
vt 1.901 0.328482
vt 1.88254 0.345559
vt 1.88244 0.33661
vt 1.9011 0.33654
vt 1.9012 0.345522
vt 1.01281 0.784331
vt 1.00785 0.791436
vt 1.00605 0.79045
vt 1.01137 0.782884
vt 1.00785 0.791436
vt 1.00509 0.79875
vt 1.00311 0.798229
vt 1.00605 0.79045
vt 1.00984 0.792315
vt 1.0073 0.799179
vt 1.00509 0.79875
vt 1.00785 0.791436
vt 1.01428 0.785807
vt 1.00984 0.792315
vt 1.00785 0.791436
vt 1.01281 0.784331
vt 1.01595 0.787521
vt 1.01351 0.792604
vt 1.00984 0.792315
vt 1.01428 0.785807
vt 1.01351 0.792604
vt 1.01137 0.799109
vt 1.0073 0.799179
vt 1.00984 0.792315
vt 1.01983 0.779307
vt 1.01281 0.784331
vt 1.01137 0.782884
vt 1.01885 0.7775
vt 1.90127 0.354475
vt 1.88261 0.35448
vt 1.88254 0.345559
vt 1.9012 0.345522
vt 1.88265 0.362454
vt 1.88261 0.35448
vt 1.90127 0.354475
vt 1.90132 0.362478
vt 1.02707 0.776496
vt 1.01983 0.779307
vt 1.01885 0.7775
vt 1.02655 0.774506
vt 1.00399 0.964102
vt 1.00509 0.97275
vt 1.00311 0.973255
vt 1.00195 0.964273
vt 1.20102 0.98162
vt 1.19952 0.988224
vt 1.19143 0.989116
vt 1.1929 0.982351
s off
f 1/1/1 2/2/2 3/3/3
f 1/1/1 3/3/3 4/4/4
f 5/5/5 6/6/6 7/7/7
f 5/5/5 7/7/7 8/8/8
f 9/9/9 10/10/10 11/11/11
f 9/9/9 11/11/11 12/12/12
f 13/13/13 14/14/14 15/15/15
f 13/13/13 15/15/15 16/16/16
f 17/17/17 18/18/18 19/19/19
f 17/17/17 19/19/19 20/20/20
f 21/21/21 22/22/22 23/23/23
f 21/21/21 23/23/23 24/24/24
f 25/25/25 26/26/26 27/27/27
f 25/25/25 27/27/27 28/28/28
f 29/29/29 30/30/30 31/31/31
f 29/29/29 31/31/31 32/32/32
f 33/33/33 34/34/34 35/35/35
f 33/33/33 35/35/35 36/36/36
f 37/37/37 38/38/38 39/39/39
f 37/37/37 39/39/39 40/40/40
f 41/41/41 42/42/42 43/43/43
f 41/41/41 43/43/43 44/44/44
f 45/45/45 46/46/46 47/47/47
f 45/45/45 47/47/47 48/48/48
f 49/49/49 50/50/50 51/51/51
f 49/49/49 51/51/51 52/52/52
f 53/53/53 54/54/54 55/55/55
f 53/53/53 55/55/55 56/56/56
f 57/57/57 58/58/58 59/59/59
f 57/57/57 59/59/59 60/60/60
f 61/61/61 62/62/62 63/63/63
f 61/61/61 63/63/63 64/64/64
f 65/65/65 66/66/66 67/67/67
f 65/65/65 67/67/67 68/68/68
f 69/69/69 70/70/70 71/71/71
f 69/69/69 71/71/71 72/72/72
f 73/73/73 74/74/74 75/75/75
f 73/73/73 75/75/75 76/76/76
f 77/77/77 78/78/78 79/79/79
f 77/77/77 79/79/79 80/80/80
f 81/81/81 82/82/82 83/83/83
f 81/81/81 83/83/83 84/84/84
f 85/85/85 86/86/86 87/87/87
f 85/85/85 87/87/87 88/88/88
f 89/89/89 90/90/90 91/91/91
f 89/89/89 91/91/91 92/92/92
f 93/93/93 94/94/94 95/95/95
f 93/93/93 95/95/95 96/96/96
f 97/97/97 98/98/98 99/99/99
f 97/97/97 99/99/99 100/100/100
f 101/101/101 102/102/102 103/103/103
f 101/101/101 103/103/103 104/104/104
f 105/105/105 106/106/106 107/107/107
f 105/105/105 107/107/107 108/108/108
f 109/109/109 110/110/110 111/111/111
f 109/109/109 111/111/111 112/112/112
f 113/113/113 114/114/114 115/115/115
f 113/113/113 115/115/115 116/116/116
f 117/117/117 118/118/118 119/119/119
f 117/117/117 119/119/119 120/120/120
f 121/121/121 122/122/122 123/123/123
f 121/121/121 123/123/123 124/124/124
f 125/125/125 126/126/126 127/127/127
f 125/125/125 127/127/127 128/128/128
f 129/129/129 130/130/130 131/131/131
f 129/129/129 131/131/131 132/132/132
f 133/133/133 134/134/134 135/135/135
f 133/133/133 135/135/135 136/136/136
f 137/137/137 138/138/138 139/139/139
f 137/137/137 139/139/139 140/140/140
f 141/141/141 142/142/142 143/143/143
f 141/141/141 143/143/143 144/144/144
f 145/145/145 146/146/146 147/147/147
f 145/145/145 147/147/147 148/148/148
f 149/149/149 150/150/150 151/151/151
f 149/149/149 151/151/151 152/152/152
f 153/153/153 154/154/154 155/155/155
f 153/153/153 155/155/155 156/156/156
f 157/157/157 158/158/158 159/159/159
f 157/157/157 159/159/159 160/160/160
f 161/161/161 162/162/162 163/163/163
f 161/161/161 163/163/163 164/164/164
f 165/165/165 166/166/166 167/167/167
f 165/165/165 167/167/167 168/168/168
f 169/169/169 170/170/170 171/171/171
f 169/169/169 171/171/171 172/172/172
f 173/173/173 174/174/174 175/175/175
f 173/173/173 175/175/175 176/176/176
f 177/177/177 178/178/178 179/179/179
f 177/177/177 179/179/179 180/180/180
f 181/181/181 182/182/182 183/183/183
f 181/181/181 183/183/183 184/184/184
f 185/185/185 186/186/186 187/187/187
f 185/185/185 187/187/187 188/188/188
f 189/189/189 190/190/190 191/191/191
f 189/189/189 191/191/191 192/192/192
f 193/193/193 194/194/194 195/195/195
f 193/193/193 195/195/195 196/196/196
f 197/197/197 198/198/198 199/199/199
f 197/197/197 199/199/199 200/200/200
f 201/201/201 202/202/202 203/203/203
f 201/201/201 203/203/203 204/204/204
f 205/205/205 206/206/206 207/207/207
f 205/205/205 207/207/207 208/208/208
f 209/209/209 210/210/210 211/211/211
f 209/209/209 211/211/211 212/212/212
f 213/213/213 214/214/214 215/215/215
f 213/213/213 215/215/215 216/216/216
f 217/217/217 218/218/218 219/219/219
f 217/217/217 219/219/219 220/220/220
f 221/221/221 222/222/222 223/223/223
f 221/221/221 223/223/223 224/224/224
f 225/225/225 226/226/226 227/227/227
f 225/225/225 227/227/227 228/228/228
f 229/229/229 230/230/230 231/231/231
f 229/229/229 231/231/231 232/232/232
f 233/233/233 234/234/234 235/235/235
f 233/233/233 235/235/235 236/236/236
f 237/237/237 238/238/238 239/239/239
f 237/237/237 239/239/239 240/240/240
f 241/241/241 242/242/242 243/243/243
f 241/241/241 243/243/243 244/244/244
f 245/245/245 246/246/246 247/247/247
f 245/245/245 247/247/247 248/248/248
f 249/249/249 250/250/250 251/251/251
f 249/249/249 251/251/251 252/252/252
f 253/253/253 254/254/254 255/255/255
f 253/253/253 255/255/255 256/256/256
f 257/257/257 258/258/258 259/259/259
f 257/257/257 259/259/259 260/260/260
f 261/261/261 262/262/262 263/263/263
f 261/261/261 263/263/263 264/264/264
f 265/265/265 266/266/266 267/267/267
f 265/265/265 267/267/267 268/268/268
f 269/269/269 270/270/270 271/271/271
f 269/269/269 271/271/271 272/272/272
f 273/273/273 274/274/274 275/275/275
f 273/273/273 275/275/275 276/276/276
f 277/277/277 278/278/278 279/279/279
f 277/277/277 279/279/279 280/280/280
f 281/281/281 282/282/282 283/283/283
f 281/281/281 283/283/283 284/284/284
f 285/285/285 286/286/286 287/287/287
f 285/285/285 287/287/287 288/288/288
f 289/289/289 290/290/290 291/291/291
f 289/289/289 291/291/291 292/292/292
f 293/293/293 294/294/294 295/295/295
f 293/293/293 295/295/295 296/296/296
f 297/297/297 298/298/298 299/299/299
f 297/297/297 299/299/299 300/300/300
f 301/301/301 302/302/302 303/303/303
f 301/301/301 303/303/303 304/304/304
f 305/305/305 306/306/306 307/307/307
f 305/305/305 307/307/307 308/308/308
f 309/309/309 310/310/310 311/311/311
f 309/309/309 311/311/311 312/312/312
f 313/313/313 314/314/314 315/315/315
f 313/313/313 315/315/315 316/316/316
f 317/317/317 318/318/318 319/319/319
f 317/317/317 319/319/319 320/320/320
f 321/321/321 322/322/322 323/323/323
f 321/321/321 323/323/323 324/324/324
f 325/325/325 326/326/326 327/327/327
f 325/325/325 327/327/327 328/328/328
f 329/329/329 330/330/330 331/331/331
f 329/329/329 331/331/331 332/332/332
f 333/333/333 334/334/334 335/335/335
f 333/333/333 335/335/335 336/336/336
f 337/337/337 338/338/338 339/339/339
f 337/337/337 339/339/339 340/340/340
f 341/341/341 342/342/342 343/343/343
f 341/341/341 343/343/343 344/344/344
f 345/345/345 346/346/346 347/347/347
f 345/345/345 347/347/347 348/348/348
f 349/349/349 350/350/350 351/351/351
f 349/349/349 351/351/351 352/352/352
f 353/353/353 354/354/354 355/355/355
f 353/353/353 355/355/355 356/356/356
f 357/357/357 358/358/358 359/359/359
f 357/357/357 359/359/359 360/360/360
f 361/361/361 362/362/362 363/363/363
f 361/361/361 363/363/363 364/364/364
f 365/365/365 366/366/366 367/367/367
f 365/365/365 367/367/367 368/368/368
f 369/369/369 370/370/370 371/371/371
f 369/369/369 371/371/371 372/372/372
f 373/373/373 374/374/374 375/375/375
f 373/373/373 375/375/375 376/376/376
f 377/377/377 378/378/378 379/379/379
f 377/377/377 379/379/379 380/380/380
f 381/381/381 382/382/382 383/383/383
f 381/381/381 383/383/383 384/384/384
f 385/385/385 386/386/386 387/387/387
f 385/385/385 387/387/387 388/388/388
f 389/389/389 390/390/390 391/391/391
f 389/389/389 391/391/391 392/392/392
f 393/393/393 394/394/394 395/395/395
f 393/393/393 395/395/395 396/396/396
f 397/397/397 398/398/398 399/399/399
f 397/397/397 399/399/399 400/400/400
f 401/401/401 402/402/402 403/403/403
f 401/401/401 403/403/403 404/404/404
f 405/405/405 406/406/406 407/407/407
f 405/405/405 407/407/407 408/408/408
f 409/409/409 410/410/410 411/411/411
f 409/409/409 411/411/411 412/412/412
f 413/413/413 414/414/414 415/415/415
f 413/413/413 415/415/415 416/416/416
f 417/417/417 418/418/418 419/419/419
f 417/417/417 419/419/419 420/420/420
f 421/421/421 422/422/422 423/423/423
f 421/421/421 423/423/423 424/424/424
f 425/425/425 426/426/426 427/427/427
f 425/425/425 427/427/427 428/428/428
f 429/429/429 430/430/430 431/431/431
f 429/429/429 431/431/431 432/432/432
f 433/433/433 434/434/434 435/435/435
f 433/433/433 435/435/435 436/436/436
f 437/437/437 438/438/438 439/439/439
f 437/437/437 439/439/439 440/440/440
f 441/441/441 442/442/442 443/443/443
f 441/441/441 443/443/443 444/444/444
f 445/445/445 446/446/446 447/447/447
f 445/445/445 447/447/447 448/448/448
f 449/449/449 450/450/450 451/451/451
f 449/449/449 451/451/451 452/452/452
f 453/453/453 454/454/454 455/455/455
f 453/453/453 455/455/455 456/456/456
f 457/457/457 458/458/458 459/459/459
f 457/457/457 459/459/459 460/460/460
f 461/461/461 462/462/462 463/463/463
f 461/461/461 463/463/463 464/464/464
f 465/465/465 466/466/466 467/467/467
f 465/465/465 467/467/467 468/468/468
f 469/469/469 470/470/470 471/471/471
f 469/469/469 471/471/471 472/472/472
f 473/473/473 474/474/474 475/475/475
f 473/473/473 475/475/475 476/476/476
f 477/477/477 478/478/478 479/479/479
f 477/477/477 479/479/479 480/480/480
f 481/481/481 482/482/482 483/483/483
f 481/481/481 483/483/483 484/484/484
f 485/485/485 486/486/486 487/487/487
f 485/485/485 487/487/487 488/488/488
f 489/489/489 490/490/490 491/491/491
f 489/489/489 491/491/491 492/492/492
f 493/493/493 494/494/494 495/495/495
f 493/493/493 495/495/495 496/496/496
f 497/497/497 498/498/498 499/499/499
f 497/497/497 499/499/499 500/500/500
f 501/501/501 502/502/502 503/503/503
f 501/501/501 503/503/503 504/504/504
f 505/505/505 506/506/506 507/507/507
f 505/505/505 507/507/507 508/508/508
f 509/509/509 510/510/510 511/511/511
f 509/509/509 511/511/511 512/512/512
f 513/513/513 514/514/514 515/515/515
f 513/513/513 515/515/515 516/516/516
f 517/517/517 518/518/518 519/519/519
f 517/517/517 519/519/519 520/520/520
f 521/521/521 522/522/522 523/523/523
f 521/521/521 523/523/523 524/524/524
f 525/525/525 526/526/526 527/527/527
f 525/525/525 527/527/527 528/528/528
f 529/529/529 530/530/530 531/531/531
f 529/529/529 531/531/531 532/532/532
f 533/533/533 534/534/534 535/535/535
f 533/533/533 535/535/535 536/536/536
f 537/537/537 538/538/538 539/539/539
f 537/537/537 539/539/539 540/540/540
f 541/541/541 542/542/542 543/543/543
f 541/541/541 543/543/543 544/544/544
f 545/545/545 546/546/546 547/547/547
f 545/545/545 547/547/547 548/548/548
f 549/549/549 550/550/550 551/551/551
f 549/549/549 551/551/551 552/552/552
f 553/553/553 554/554/554 555/555/555
f 553/553/553 555/555/555 556/556/556
f 557/557/557 558/558/558 559/559/559
f 557/557/557 559/559/559 560/560/560
f 561/561/561 562/562/562 563/563/563
f 561/561/561 563/563/563 564/564/564
f 565/565/565 566/566/566 567/567/567
f 565/565/565 567/567/567 568/568/568
f 569/569/569 570/570/570 571/571/571
f 569/569/569 571/571/571 572/572/572
f 573/573/573 574/574/574 575/575/575
f 573/573/573 575/575/575 576/576/576
f 577/577/577 578/578/578 579/579/579
f 577/577/577 579/579/579 580/580/580
f 581/581/581 582/582/582 583/583/583
f 581/581/581 583/583/583 584/584/584
f 585/585/585 586/586/586 587/587/587
f 585/585/585 587/587/587 588/588/588
f 589/589/589 590/590/590 591/591/591
f 589/589/589 591/591/591 592/592/592
f 593/593/593 594/594/594 595/595/595
f 593/593/593 595/595/595 596/596/596
f 597/597/597 598/598/598 599/599/599
f 597/597/597 599/599/599 600/600/600
f 601/601/601 602/602/602 603/603/603
f 601/601/601 603/603/603 604/604/604
f 605/605/605 606/606/606 607/607/607
f 605/605/605 607/607/607 608/608/608
f 609/609/609 610/610/610 611/611/611
f 609/609/609 611/611/611 612/612/612
f 613/613/613 614/614/614 615/615/615
f 613/613/613 615/615/615 616/616/616
f 617/617/617 618/618/618 619/619/619
f 617/617/617 619/619/619 620/620/620
f 621/621/621 622/622/622 623/623/623
f 621/621/621 623/623/623 624/624/624
f 625/625/625 626/626/626 627/627/627
f 625/625/625 627/627/627 628/628/628
f 629/629/629 630/630/630 631/631/631
f 629/629/629 631/631/631 632/632/632
f 633/633/633 634/634/634 635/635/635
f 633/633/633 635/635/635 636/636/636
f 637/637/637 638/638/638 639/639/639
f 637/637/637 639/639/639 640/640/640
f 641/641/641 642/642/642 643/643/643
f 641/641/641 643/643/643 644/644/644
