v -0.000752 0.023274 -0.512843
v -0.000752 0.031295 -0.514382
v 0.037821 0.03127 -0.514378
v 0.03945 0.030608 -0.514251
v 0.040133 0.029012 -0.513945
v 0.040145 0.027258 -0.513608
v 0.040156 0.025504 -0.513272
v 0.039494 0.023909 -0.512966
v 0.037874 0.023249 -0.512839
v 0.039493 0.036802 -0.445768
v 0.039494 0.023909 -0.512966
v 0.040156 0.025504 -0.513272
v 0.040156 0.038397 -0.446074
v 0.040156 0.025504 -0.513272
v 0.040145 0.027258 -0.513608
v 0.040144 0.040151 -0.44641
v 0.040156 0.038397 -0.446074
v 0.040145 0.027258 -0.513608
v 0.040133 0.029012 -0.513945
v 0.040133 0.041904 -0.446747
v 0.040144 0.040151 -0.44641
v 0.03945 0.030608 -0.514251
v 0.039449 0.0435 -0.447053
v 0.040133 0.041904 -0.446747
v 0.040133 0.029012 -0.513945
v 0.037821 0.03127 -0.514378
v 0.03782 0.044162 -0.44718
v 0.039449 0.0435 -0.447053
v 0.03945 0.030608 -0.514251
v 0.037821 0.03127 -0.514378
v -0.000752 0.031295 -0.514382
v -0.000752 0.044187 -0.447184
v 0.03782 0.044162 -0.44718
v -0.039326 0.03127 -0.514378
v -0.039325 0.044162 -0.44718
v -0.000752 0.044187 -0.447184
v -0.000752 0.031295 -0.514382
v -0.000752 0.023274 -0.512843
v -0.039379 0.023249 -0.512839
v -0.040999 0.023909 -0.512966
v -0.041661 0.025504 -0.513272
v -0.04165 0.027258 -0.513608
v -0.041638 0.029012 -0.513945
v -0.040955 0.030608 -0.514251
v -0.039326 0.03127 -0.514378
v -0.000752 0.031295 -0.514382
v -0.039326 0.03127 -0.514378
v -0.040955 0.030608 -0.514251
v -0.040954 0.0435 -0.447053
v -0.039325 0.044162 -0.44718
v -0.040955 0.030608 -0.514251
v -0.041638 0.029012 -0.513945
v -0.041638 0.041904 -0.446747
v -0.040954 0.0435 -0.447053
v -0.04165 0.027258 -0.513608
v -0.041649 0.040151 -0.44641
v -0.041638 0.041904 -0.446747
v -0.041638 0.029012 -0.513945
v -0.041661 0.025504 -0.513272
v -0.041661 0.038397 -0.446074
v -0.041649 0.040151 -0.44641
v -0.04165 0.027258 -0.513608
v -0.040998 0.036802 -0.445768
v -0.041661 0.038397 -0.446074
v -0.041661 0.025504 -0.513272
v -0.040999 0.023909 -0.512966
v -0.039378 0.036142 -0.445641
v -0.040998 0.036802 -0.445768
v -0.040999 0.023909 -0.512966
v -0.039379 0.023249 -0.512839
v -0.000752 0.023274 -0.512843
v -0.000752 0.036167 -0.445645
v -0.039378 0.036142 -0.445641
v -0.039379 0.023249 -0.512839
v -0.000752 0.023274 -0.512843
v 0.037874 0.023249 -0.512839
v 0.037873 0.036142 -0.445641
v -0.000752 0.036167 -0.445645
v 0.037873 0.036142 -0.445641
v 0.037874 0.023249 -0.512839
v 0.039494 0.023909 -0.512966
v 0.039493 0.036802 -0.445768
vn -0 -0.1884 -0.9821
vn -0 -0.1884 -0.9821
vn -0 -0.1884 -0.9821
vn -0 -0.1884 -0.9821
vn -0 -0.1884 -0.9821
vn -0 -0.1884 -0.9821
vn -0 -0.1884 -0.9821
vn -0 -0.1884 -0.9821
vn -0 -0.1884 -0.9821
vn 0.7092 -0.6924 0.1329
vn 0.7092 -0.6924 0.1328
vn 0.9819 -0.1859 0.0357
vn 0.9819 -0.1859 0.0357
vn 0.9819 -0.1859 0.0357
vn 1 0.0063 -0.0012
vn 1 0.0063 -0.0012
vn 0.9819 -0.1859 0.0357
vn 1 0.0063 -0.0012
vn 0.9796 0.1973 -0.0378
vn 0.9796 0.1973 -0.0378
vn 1 0.0063 -0.0012
vn 0.7051 0.6964 -0.1336
vn 0.705 0.6965 -0.1336
vn 0.9796 0.1973 -0.0378
vn 0.9796 0.1973 -0.0378
vn 0.1952 0.9632 -0.1848
vn 0.1952 0.9632 -0.1848
vn 0.705 0.6965 -0.1336
vn 0.7051 0.6964 -0.1336
vn 0.1952 0.9632 -0.1848
vn -0 0.9821 -0.1884
vn -0 0.9821 -0.1884
vn 0.1952 0.9632 -0.1848
vn -0.1952 0.9632 -0.1848
vn -0.1952 0.9632 -0.1848
vn -0 0.9821 -0.1884
vn -0 0.9821 -0.1884
vn -0 -0.1884 -0.9821
vn -0 -0.1884 -0.9821
vn -0 -0.1884 -0.9821
vn -0 -0.1884 -0.9821
vn -0 -0.1884 -0.9821
vn -0 -0.1884 -0.9821
vn -0 -0.1884 -0.9821
vn -0 -0.1884 -0.9821
vn -0 -0.1884 -0.9821
vn -0.1952 0.9632 -0.1848
vn -0.7051 0.6964 -0.1336
vn -0.705 0.6965 -0.1336
vn -0.1952 0.9632 -0.1848
vn -0.7051 0.6964 -0.1336
vn -0.9796 0.1973 -0.0378
vn -0.9796 0.1973 -0.0378
vn -0.705 0.6965 -0.1336
vn -1 0.0063 -0.0012
vn -1 0.0063 -0.0012
vn -0.9796 0.1973 -0.0378
vn -0.9796 0.1973 -0.0378
vn -0.9819 -0.1859 0.0357
vn -0.9819 -0.1859 0.0357
vn -1 0.0063 -0.0012
vn -1 0.0063 -0.0012
vn -0.7092 -0.6924 0.1329
vn -0.9819 -0.1859 0.0357
vn -0.9819 -0.1859 0.0357
vn -0.7092 -0.6924 0.1328
vn -0.195 -0.9632 0.1848
vn -0.7092 -0.6924 0.1329
vn -0.7092 -0.6924 0.1328
vn -0.1951 -0.9632 0.1848
vn -0 -0.9821 0.1884
vn -0 -0.9821 0.1884
vn -0.195 -0.9632 0.1848
vn -0.1951 -0.9632 0.1848
vn -0 -0.9821 0.1884
vn 0.1951 -0.9632 0.1848
vn 0.195 -0.9632 0.1848
vn -0 -0.9821 0.1884
vn 0.195 -0.9632 0.1848
vn 0.1951 -0.9632 0.1848
vn 0.7092 -0.6924 0.1328
vn 0.7092 -0.6924 0.1329
vt 0.105578 0.564524
vt 0.114126 0.564524
vt 0.1141 0.52415
vt 0.113395 0.522445
vt 0.111694 0.521729
vt 0.109825 0.521717
vt 0.107955 0.521705
vt 0.106255 0.522399
vt 0.105552 0.524095
vt 0.508106 0.613811
vt 0.539799 0.613811
vt 0.539799 0.612999
vt 0.508106 0.612999
vt 0.539799 0.612999
vt 0.539799 0.612172
vt 0.508106 0.612172
vt 0.508106 0.612999
vt 0.361263 0.148984
vt 0.361263 0.147115
vt 0.289644 0.147115
vt 0.289644 0.148984
vt 0.361263 0.14527
vt 0.289644 0.145269
vt 0.289644 0.147115
vt 0.361263 0.147115
vt 0.361262 0.143424
vt 0.289644 0.143424
vt 0.289644 0.145269
vt 0.361263 0.14527
vt 0.361262 0.143424
vt 0.361261 0.10305
vt 0.289643 0.10305
vt 0.289644 0.143424
vt 0.361262 0.062675
vt 0.289644 0.062676
vt 0.289643 0.10305
vt 0.361261 0.10305
vt 0.105578 0.564524
vt 0.105552 0.604954
vt 0.106255 0.60665
vt 0.107955 0.607343
vt 0.109825 0.607331
vt 0.111694 0.607319
vt 0.113395 0.606604
vt 0.1141 0.604899
vt 0.114126 0.564524
vt 0.361262 0.062675
vt 0.361263 0.06083
vt 0.289644 0.060831
vt 0.289644 0.062676
vt 0.361263 0.06083
vt 0.361262 0.058985
vt 0.289644 0.058985
vt 0.289644 0.060831
vt 0.361262 0.057115
vt 0.289644 0.057116
vt 0.289644 0.058985
vt 0.361262 0.058985
vt 0.539799 0.652031
vt 0.508106 0.652031
vt 0.508106 0.652858
vt 0.539799 0.652859
vt 0.508106 0.651219
vt 0.508106 0.652031
vt 0.539799 0.652031
vt 0.539799 0.651219
vt 0.508106 0.650406
vt 0.508106 0.651219
vt 0.539799 0.651219
vt 0.539799 0.650406
vt 0.539799 0.632515
vt 0.508105 0.632515
vt 0.508106 0.650406
vt 0.539799 0.650406
vt 0.539799 0.632515
vt 0.539799 0.614624
vt 0.508106 0.614624
vt 0.508105 0.632515
vt 0.508106 0.614624
vt 0.539799 0.614624
vt 0.539799 0.613811
vt 0.508106 0.613811
s off
f 8/8/8 9/9/9 1/1/1
f 1/1/1 2/2/2 3/3/3
f 3/3/3 4/4/4 5/5/5
f 5/5/5 6/6/6 7/7/7
f 7/7/7 8/8/8 1/1/1
f 1/1/1 3/3/3 5/5/5
f 5/5/5 7/7/7 1/1/1
f 10/10/10 11/11/11 12/12/12
f 10/10/10 12/12/12 13/13/13
f 14/14/14 15/15/15 16/16/16
f 14/14/14 16/16/16 17/17/17
f 18/18/18 19/19/19 20/20/20
f 18/18/18 20/20/20 21/21/21
f 22/22/22 23/23/23 24/24/24
f 22/22/22 24/24/24 25/25/25
f 26/26/26 27/27/27 28/28/28
f 26/26/26 28/28/28 29/29/29
f 30/30/30 31/31/31 32/32/32
f 30/30/30 32/32/32 33/33/33
f 34/34/34 35/35/35 36/36/36
f 34/34/34 36/36/36 37/37/37
f 45/45/45 46/46/46 38/38/38
f 38/38/38 39/39/39 40/40/40
f 40/40/40 41/41/41 42/42/42
f 42/42/42 43/43/43 44/44/44
f 44/44/44 45/45/45 38/38/38
f 38/38/38 40/40/40 42/42/42
f 42/42/42 44/44/44 38/38/38
f 47/47/47 48/48/48 49/49/49
f 47/47/47 49/49/49 50/50/50
f 51/51/51 52/52/52 53/53/53
f 51/51/51 53/53/53 54/54/54
f 55/55/55 56/56/56 57/57/57
f 55/55/55 57/57/57 58/58/58
f 59/59/59 60/60/60 61/61/61
f 59/59/59 61/61/61 62/62/62
f 63/63/63 64/64/64 65/65/65
f 63/63/63 65/65/65 66/66/66
f 67/67/67 68/68/68 69/69/69
f 67/67/67 69/69/69 70/70/70
f 71/71/71 72/72/72 73/73/73
f 71/71/71 73/73/73 74/74/74
f 75/75/75 76/76/76 77/77/77
f 75/75/75 77/77/77 78/78/78
f 79/79/79 80/80/80 81/81/81
f 79/79/79 81/81/81 82/82/82
