v 0.046605 0.009257 -0.490343
v -0.000752 0.009102 -0.490311
v -0.000752 0.002827 -0.522276
v 0.046604 0.002982 -0.522308
v -0.04811 0.009257 -0.490343
v -0.048109 0.002982 -0.522308
v -0.000752 0.002827 -0.522276
v -0.000752 0.009102 -0.490311
v -0.054759 0.010497 -0.490587
v -0.054758 0.004221 -0.522551
v -0.048109 0.002982 -0.522308
v -0.04811 0.009257 -0.490343
v -0.054758 0.004221 -0.522551
v -0.054503 0.00443 -0.523892
v -0.047966 0.003216 -0.523653
v -0.048109 0.002982 -0.522308
v -0.048109 0.002982 -0.522308
v -0.047966 0.003216 -0.523653
v -0.000752 0.003063 -0.523621
v -0.000752 0.002827 -0.522276
v -0.054503 0.00443 -0.523892
v -0.053887 0.005428 -0.524613
v -0.047622 0.004274 -0.524385
v -0.047966 0.003216 -0.523653
v -0.047966 0.003216 -0.523653
v -0.047622 0.004274 -0.524385
v -0.000752 0.004126 -0.524354
v -0.000752 0.003063 -0.523621
v 0.046604 0.002982 -0.522308
v -0.000752 0.002827 -0.522276
v -0.000752 0.003063 -0.523621
v 0.046461 0.003216 -0.523653
v 0.046461 0.003216 -0.523653
v -0.000752 0.003063 -0.523621
v -0.000752 0.004126 -0.524354
v 0.046117 0.004274 -0.524385
v -0.000752 0.006968 -0.52487
v 0.045274 0.007114 -0.524901
v 0.046117 0.004274 -0.524385
v -0.000752 0.004126 -0.524354
v -0.000752 0.006968 -0.52487
v -0.000752 0.004126 -0.524354
v -0.047622 0.004274 -0.524385
v -0.046779 0.007114 -0.524901
v -0.000752 0.008234 -0.524561
v -0.000752 0.006968 -0.52487
v -0.046779 0.007114 -0.524901
v -0.046435 0.008375 -0.524591
v -0.000752 0.008234 -0.524561
v 0.04493 0.008375 -0.524591
v 0.045274 0.007114 -0.524901
v -0.000752 0.006968 -0.52487
v -0.046435 0.008375 -0.524591
v -0.046779 0.007114 -0.524901
v -0.052353 0.008167 -0.525111
v -0.051737 0.009367 -0.52479
v -0.046779 0.007114 -0.524901
v -0.047622 0.004274 -0.524385
v -0.053887 0.005428 -0.524613
v -0.052353 0.008167 -0.525111
v -0.051737 0.009367 -0.52479
v -0.052353 0.008167 -0.525111
v -0.055806 0.009739 -0.525425
v -0.054929 0.010807 -0.52508
v -0.058037 0.007275 -0.524978
v -0.055806 0.009739 -0.525425
v -0.052353 0.008167 -0.525111
v -0.053887 0.005428 -0.524613
v -0.058914 0.006409 -0.524281
v -0.058037 0.007275 -0.524978
v -0.053887 0.005428 -0.524613
v -0.054503 0.00443 -0.523892
v -0.062932 0.010029 -0.524993
v -0.061842 0.010689 -0.525652
v -0.058037 0.007275 -0.524978
v -0.058914 0.006409 -0.524281
v -0.055806 0.009739 -0.525425
v -0.058037 0.007275 -0.524978
v -0.061842 0.010689 -0.525652
v -0.059021 0.01266 -0.526008
v -0.065893 0.014329 -0.525839
v -0.064669 0.014781 -0.52646
v -0.061842 0.010689 -0.525652
v -0.062932 0.010029 -0.524993
v -0.059021 0.01266 -0.526008
v -0.061842 0.010689 -0.525652
v -0.064669 0.014781 -0.52646
v -0.061464 0.01623 -0.526722
v -0.054929 0.010807 -0.52508
v -0.055806 0.009739 -0.525425
v -0.059021 0.01266 -0.526008
v -0.057931 0.013522 -0.525625
v -0.057931 0.013522 -0.525625
v -0.059021 0.01266 -0.526008
v -0.061464 0.01623 -0.526722
v -0.06024 0.016884 -0.5263
v -0.06024 0.016884 -0.5263
v -0.061464 0.01623 -0.526722
v -0.063221 0.020343 -0.527543
v -0.061899 0.020759 -0.527079
v -0.061464 0.01623 -0.526722
v -0.064669 0.014781 -0.52646
v -0.066699 0.01951 -0.527393
v -0.063221 0.020343 -0.527543
v -0.061899 0.020759 -0.527079
v -0.063221 0.020343 -0.527543
v -0.063852 0.024557 -0.528385
v -0.062485 0.024681 -0.527867
v -0.067439 0.024496 -0.528377
v -0.063852 0.024557 -0.528385
v -0.063221 0.020343 -0.527543
v -0.066699 0.01951 -0.527393
v -0.068806 0.024574 -0.527853
v -0.067439 0.024496 -0.528377
v -0.066699 0.01951 -0.527393
v -0.068021 0.019296 -0.526815
v -0.068021 0.019296 -0.526815
v -0.066699 0.01951 -0.527393
v -0.064669 0.014781 -0.52646
v -0.065893 0.014329 -0.525839
v -0.06792 0.029844 -0.528889
v -0.066594 0.029471 -0.529359
v -0.067439 0.024496 -0.528377
v -0.068806 0.024574 -0.527853
v -0.063852 0.024557 -0.528385
v -0.067439 0.024496 -0.528377
v -0.066594 0.029471 -0.529359
v -0.063156 0.028771 -0.529227
v -0.065698 0.034789 -0.529861
v -0.064466 0.034176 -0.530288
v -0.066594 0.029471 -0.529359
v -0.06792 0.029844 -0.528889
v -0.063156 0.028771 -0.529227
v -0.066594 0.029471 -0.529359
v -0.064466 0.034176 -0.530288
v -0.061334 0.03288 -0.530048
v -0.062485 0.024681 -0.527867
v -0.063852 0.024557 -0.528385
v -0.063156 0.028771 -0.529227
v -0.06183 0.028601 -0.528654
v -0.06183 0.028601 -0.528654
v -0.063156 0.028771 -0.529227
v -0.061334 0.03288 -0.530048
v -0.060101 0.03247 -0.529432
v -0.060101 0.03247 -0.529432
v -0.061334 0.03288 -0.530048
v -0.058842 0.036429 -0.530757
v -0.057744 0.035802 -0.530101
v -0.061334 0.03288 -0.530048
v -0.064466 0.034176 -0.530288
v -0.061562 0.03823 -0.531088
v -0.058842 0.036429 -0.530757
v -0.057744 0.035802 -0.530101
v -0.058842 0.036429 -0.530757
v -0.055377 0.039429 -0.531355
v -0.05451 0.038579 -0.530659
v -0.057456 0.04171 -0.531775
v -0.055377 0.039429 -0.531355
v -0.058842 0.036429 -0.530757
v -0.061562 0.03823 -0.531088
v -0.058323 0.042762 -0.531429
v -0.057456 0.04171 -0.531775
v -0.061562 0.03823 -0.531088
v -0.06266 0.039059 -0.530701
v -0.06266 0.039059 -0.530701
v -0.061562 0.03823 -0.531088
v -0.064466 0.034176 -0.530288
v -0.065698 0.034789 -0.529861
v -0.053233 0.044747 -0.531819
v -0.05264 0.043568 -0.532142
v -0.057456 0.04171 -0.531775
v -0.058323 0.042762 -0.531429
v -0.055377 0.039429 -0.531355
v -0.057456 0.04171 -0.531775
v -0.05264 0.043568 -0.532142
v -0.051261 0.041066 -0.531682
v -0.047634 0.045784 -0.532023
v -0.047285 0.044546 -0.532335
v -0.05264 0.043568 -0.532142
v -0.053233 0.044747 -0.531819
v -0.051261 0.041066 -0.531682
v -0.05264 0.043568 -0.532142
v -0.047285 0.044546 -0.532335
v -0.046494 0.041972 -0.531862
v -0.05451 0.038579 -0.530659
v -0.055377 0.039429 -0.531355
v -0.051261 0.041066 -0.531682
v -0.050668 0.04009 -0.530962
v -0.050668 0.04009 -0.530962
v -0.051261 0.041066 -0.531682
v -0.046494 0.041972 -0.531862
v -0.046145 0.040936 -0.531132
v -0.046145 0.040936 -0.531132
v -0.046494 0.041972 -0.531862
v -0.000752 0.041979 -0.531862
v -0.000752 0.040939 -0.531131
v -0.000752 0.04454 -0.532332
v -0.000752 0.041979 -0.531862
v -0.046494 0.041972 -0.531862
v -0.047285 0.044546 -0.532335
v 0.04464 0.040936 -0.531132
v -0.000752 0.040939 -0.531131
v -0.000752 0.041979 -0.531862
v 0.044989 0.041972 -0.531862
v -0.000752 0.04454 -0.532332
v 0.04578 0.044546 -0.532335
v 0.044989 0.041972 -0.531862
v -0.000752 0.041979 -0.531862
v -0.000752 0.045783 -0.532021
v -0.000752 0.04454 -0.532332
v -0.047285 0.044546 -0.532335
v -0.047634 0.045784 -0.532023
v -0.000752 0.045783 -0.532021
v 0.046129 0.045784 -0.532023
v 0.04578 0.044546 -0.532335
v -0.000752 0.04454 -0.532332
v 0.046129 0.045784 -0.532023
v 0.051728 0.044747 -0.531819
v 0.051135 0.043568 -0.532142
v 0.04578 0.044546 -0.532335
v 0.049756 0.041066 -0.531682
v 0.044989 0.041972 -0.531862
v 0.04578 0.044546 -0.532335
v 0.051135 0.043568 -0.532142
v 0.051728 0.044747 -0.531819
v 0.056818 0.042762 -0.531429
v 0.055951 0.04171 -0.531775
v 0.051135 0.043568 -0.532142
v 0.053872 0.039429 -0.531355
v 0.049756 0.041066 -0.531682
v 0.051135 0.043568 -0.532142
v 0.055951 0.04171 -0.531775
v 0.053005 0.038579 -0.530659
v 0.049163 0.04009 -0.530962
v 0.049756 0.041066 -0.531682
v 0.053872 0.039429 -0.531355
v 0.049163 0.04009 -0.530962
v 0.04464 0.040936 -0.531132
v 0.044989 0.041972 -0.531862
v 0.049756 0.041066 -0.531682
v 0.056239 0.035802 -0.530101
v 0.053005 0.038579 -0.530659
v 0.053872 0.039429 -0.531355
v 0.057338 0.036429 -0.530757
v 0.055951 0.04171 -0.531775
v 0.060057 0.03823 -0.531088
v 0.057338 0.036429 -0.530757
v 0.053872 0.039429 -0.531355
v 0.058596 0.03247 -0.529432
v 0.056239 0.035802 -0.530101
v 0.057338 0.036429 -0.530757
v 0.059829 0.03288 -0.530048
v 0.059829 0.03288 -0.530048
v 0.057338 0.036429 -0.530757
v 0.060057 0.03823 -0.531088
v 0.062961 0.034176 -0.530288
v 0.056818 0.042762 -0.531429
v 0.061155 0.039059 -0.530701
v 0.060057 0.03823 -0.531088
v 0.055951 0.04171 -0.531775
v 0.061155 0.039059 -0.530701
v 0.064193 0.034789 -0.529861
v 0.062961 0.034176 -0.530288
v 0.060057 0.03823 -0.531088
v 0.064193 0.034789 -0.529861
v 0.066415 0.029844 -0.528889
v 0.065089 0.029471 -0.529359
v 0.062961 0.034176 -0.530288
v 0.061652 0.028771 -0.529227
v 0.059829 0.03288 -0.530048
v 0.062961 0.034176 -0.530288
v 0.065089 0.029471 -0.529359
v 0.066415 0.029844 -0.528889
v 0.067301 0.024574 -0.527853
v 0.065934 0.024496 -0.528377
v 0.065089 0.029471 -0.529359
v 0.062347 0.024557 -0.528385
v 0.061652 0.028771 -0.529227
v 0.065089 0.029471 -0.529359
v 0.065934 0.024496 -0.528377
v 0.06098 0.024681 -0.527867
v 0.060326 0.028601 -0.528654
v 0.061652 0.028771 -0.529227
v 0.062347 0.024557 -0.528385
v 0.060326 0.028601 -0.528654
v 0.058596 0.03247 -0.529432
v 0.059829 0.03288 -0.530048
v 0.061652 0.028771 -0.529227
v 0.060394 0.020759 -0.527079
v 0.06098 0.024681 -0.527867
v 0.062347 0.024557 -0.528385
v 0.061716 0.020343 -0.527543
v 0.065934 0.024496 -0.528377
v 0.065195 0.01951 -0.527393
v 0.061716 0.020343 -0.527543
v 0.062347 0.024557 -0.528385
v 0.058735 0.016884 -0.5263
v 0.060394 0.020759 -0.527079
v 0.061716 0.020343 -0.527543
v 0.059959 0.01623 -0.526722
v 0.059959 0.01623 -0.526722
v 0.061716 0.020343 -0.527543
v 0.065195 0.01951 -0.527393
v 0.063164 0.014781 -0.52646
v 0.067301 0.024574 -0.527853
v 0.066516 0.019296 -0.526815
v 0.065195 0.01951 -0.527393
v 0.065934 0.024496 -0.528377
v 0.066516 0.019296 -0.526815
v 0.064388 0.014329 -0.525839
v 0.063164 0.014781 -0.52646
v 0.065195 0.01951 -0.527393
v 0.064388 0.014329 -0.525839
v 0.061427 0.010029 -0.524993
v 0.060337 0.010689 -0.525652
v 0.063164 0.014781 -0.52646
v 0.057516 0.01266 -0.526008
v 0.059959 0.01623 -0.526722
v 0.063164 0.014781 -0.52646
v 0.060337 0.010689 -0.525652
v 0.061427 0.010029 -0.524993
v 0.057409 0.006409 -0.524281
v 0.056532 0.007275 -0.524978
v 0.060337 0.010689 -0.525652
v 0.054301 0.009739 -0.525425
v 0.057516 0.01266 -0.526008
v 0.060337 0.010689 -0.525652
v 0.056532 0.007275 -0.524978
v 0.053424 0.010807 -0.52508
v 0.056426 0.013522 -0.525625
v 0.057516 0.01266 -0.526008
v 0.054301 0.009739 -0.525425
v 0.056426 0.013522 -0.525625
v 0.058735 0.016884 -0.5263
v 0.059959 0.01623 -0.526722
v 0.057516 0.01266 -0.526008
v 0.050232 0.009367 -0.52479
v 0.053424 0.010807 -0.52508
v 0.054301 0.009739 -0.525425
v 0.050848 0.008167 -0.525111
v 0.056532 0.007275 -0.524978
v 0.052382 0.005428 -0.524613
v 0.050848 0.008167 -0.525111
v 0.054301 0.009739 -0.525425
v 0.04493 0.008375 -0.524591
v 0.050232 0.009367 -0.52479
v 0.050848 0.008167 -0.525111
v 0.045274 0.007114 -0.524901
v 0.045274 0.007114 -0.524901
v 0.050848 0.008167 -0.525111
v 0.052382 0.005428 -0.524613
v 0.046117 0.004274 -0.524385
v 0.057409 0.006409 -0.524281
v 0.052998 0.00443 -0.523892
v 0.052382 0.005428 -0.524613
v 0.056532 0.007275 -0.524978
v 0.052998 0.00443 -0.523892
v 0.046461 0.003216 -0.523653
v 0.046117 0.004274 -0.524385
v 0.052382 0.005428 -0.524613
v 0.057773 0.006254 -0.522951
v 0.053253 0.004221 -0.522551
v 0.052998 0.00443 -0.523892
v 0.057409 0.006409 -0.524281
v 0.053253 0.004221 -0.522551
v 0.046604 0.002982 -0.522308
v 0.046461 0.003216 -0.523653
v 0.052998 0.00443 -0.523892
v 0.061878 0.00996 -0.523678
v 0.057773 0.006254 -0.522951
v 0.057409 0.006409 -0.524281
v 0.061427 0.010029 -0.524993
v 0.06188 0.016236 -0.491714
v 0.057774 0.01253 -0.490986
v 0.057773 0.006254 -0.522951
v 0.061878 0.00996 -0.523678
v 0.053254 0.010497 -0.490587
v 0.053253 0.004221 -0.522551
v 0.057773 0.006254 -0.522951
v 0.057774 0.01253 -0.490986
v 0.053254 0.010497 -0.490587
v 0.046605 0.009257 -0.490343
v 0.046604 0.002982 -0.522308
v 0.053253 0.004221 -0.522551
v 0.064896 0.020623 -0.492575
v 0.06188 0.016236 -0.491714
v 0.061878 0.00996 -0.523678
v 0.064895 0.014347 -0.52454
v 0.067065 0.025688 -0.49357
v 0.064896 0.020623 -0.492575
v 0.064895 0.014347 -0.52454
v 0.067063 0.019412 -0.525534
v 0.067063 0.019412 -0.525534
v 0.064895 0.014347 -0.52454
v 0.064388 0.014329 -0.525839
v 0.066516 0.019296 -0.526815
v 0.064895 0.014347 -0.52454
v 0.061878 0.00996 -0.523678
v 0.061427 0.010029 -0.524993
v 0.064388 0.014329 -0.525839
v 0.067868 0.024812 -0.526594
v 0.067063 0.019412 -0.525534
v 0.066516 0.019296 -0.526815
v 0.067301 0.024574 -0.527853
v 0.067065 0.025688 -0.49357
v 0.067063 0.019412 -0.525534
v 0.067868 0.024812 -0.526594
v 0.067869 0.031087 -0.49463
v 0.066964 0.030203 -0.527653
v 0.067868 0.024812 -0.526594
v 0.067301 0.024574 -0.527853
v 0.066415 0.029844 -0.528889
v 0.066965 0.036478 -0.495688
v 0.067869 0.031087 -0.49463
v 0.067868 0.024812 -0.526594
v 0.066964 0.030203 -0.527653
v 0.064705 0.041523 -0.496678
v 0.066965 0.036478 -0.495688
v 0.066964 0.030203 -0.527653
v 0.064704 0.035247 -0.528643
v 0.061612 0.045883 -0.497534
v 0.064705 0.041523 -0.496678
v 0.064704 0.035247 -0.528643
v 0.061611 0.039607 -0.529499
v 0.061611 0.039607 -0.529499
v 0.064704 0.035247 -0.528643
v 0.064193 0.034789 -0.529861
v 0.061155 0.039059 -0.530701
v 0.064704 0.035247 -0.528643
v 0.066964 0.030203 -0.527653
v 0.066415 0.029844 -0.528889
v 0.064193 0.034789 -0.529861
v 0.057177 0.043403 -0.530244
v 0.061611 0.039607 -0.529499
v 0.061155 0.039059 -0.530701
v 0.056818 0.042762 -0.531429
v 0.061612 0.045883 -0.497534
v 0.061611 0.039607 -0.529499
v 0.057177 0.043403 -0.530244
v 0.057178 0.049679 -0.498279
v 0.051974 0.04544 -0.530644
v 0.057177 0.043403 -0.530244
v 0.056818 0.042762 -0.531429
v 0.051728 0.044747 -0.531819
v 0.051975 0.051715 -0.498679
v 0.057178 0.049679 -0.498279
v 0.057177 0.043403 -0.530244
v 0.051974 0.04544 -0.530644
v 0.046275 0.052776 -0.498887
v 0.051975 0.051715 -0.498679
v 0.051974 0.04544 -0.530644
v 0.046274 0.046501 -0.530852
v 0.046275 0.052776 -0.498887
v 0.046274 0.046501 -0.530852
v -0.000752 0.046502 -0.53085
v -0.000752 0.052777 -0.498886
v -0.000752 0.046502 -0.53085
v 0.046274 0.046501 -0.530852
v 0.046129 0.045784 -0.532023
v -0.000752 0.045783 -0.532021
v 0.046274 0.046501 -0.530852
v 0.051974 0.04544 -0.530644
v 0.051728 0.044747 -0.531819
v 0.046129 0.045784 -0.532023
v -0.000752 0.046502 -0.53085
v -0.000752 0.045783 -0.532021
v -0.047634 0.045784 -0.532023
v -0.047779 0.046501 -0.530852
v -0.04778 0.052776 -0.498887
v -0.000752 0.052777 -0.498886
v -0.000752 0.046502 -0.53085
v -0.047779 0.046501 -0.530852
v -0.047779 0.046501 -0.530852
v -0.047634 0.045784 -0.532023
v -0.053233 0.044747 -0.531819
v -0.053479 0.04544 -0.530644
v -0.04778 0.052776 -0.498887
v -0.047779 0.046501 -0.530852
v -0.053479 0.04544 -0.530644
v -0.05348 0.051715 -0.498679
v -0.05348 0.051715 -0.498679
v -0.053479 0.04544 -0.530644
v -0.058682 0.043403 -0.530244
v -0.058683 0.049679 -0.498279
v -0.063117 0.045883 -0.497534
v -0.058683 0.049679 -0.498279
v -0.058682 0.043403 -0.530244
v -0.063116 0.039607 -0.529499
v -0.053479 0.04544 -0.530644
v -0.053233 0.044747 -0.531819
v -0.058323 0.042762 -0.531429
v -0.058682 0.043403 -0.530244
v -0.058682 0.043403 -0.530244
v -0.058323 0.042762 -0.531429
v -0.06266 0.039059 -0.530701
v -0.063116 0.039607 -0.529499
v -0.063116 0.039607 -0.529499
v -0.06266 0.039059 -0.530701
v -0.065698 0.034789 -0.529861
v -0.066209 0.035247 -0.528643
v -0.063117 0.045883 -0.497534
v -0.063116 0.039607 -0.529499
v -0.066209 0.035247 -0.528643
v -0.06621 0.041523 -0.496678
v -0.066209 0.035247 -0.528643
v -0.065698 0.034789 -0.529861
v -0.06792 0.029844 -0.528889
v -0.068469 0.030203 -0.527653
v -0.06621 0.041523 -0.496678
v -0.066209 0.035247 -0.528643
v -0.068469 0.030203 -0.527653
v -0.06847 0.036478 -0.495688
v -0.06847 0.036478 -0.495688
v -0.068469 0.030203 -0.527653
v -0.069373 0.024812 -0.526594
v -0.069374 0.031087 -0.49463
v -0.06857 0.025688 -0.49357
v -0.069374 0.031087 -0.49463
v -0.069373 0.024812 -0.526594
v -0.068568 0.019412 -0.525534
v -0.068469 0.030203 -0.527653
v -0.06792 0.029844 -0.528889
v -0.068806 0.024574 -0.527853
v -0.069373 0.024812 -0.526594
v -0.069373 0.024812 -0.526594
v -0.068806 0.024574 -0.527853
v -0.068021 0.019296 -0.526815
v -0.068568 0.019412 -0.525534
v -0.068568 0.019412 -0.525534
v -0.068021 0.019296 -0.526815
v -0.065893 0.014329 -0.525839
v -0.0664 0.014347 -0.52454
v -0.06857 0.025688 -0.49357
v -0.068568 0.019412 -0.525534
v -0.0664 0.014347 -0.52454
v -0.066401 0.020623 -0.492575
v -0.0664 0.014347 -0.52454
v -0.065893 0.014329 -0.525839
v -0.062932 0.010029 -0.524993
v -0.063383 0.00996 -0.523678
v -0.066401 0.020623 -0.492575
v -0.0664 0.014347 -0.52454
v -0.063383 0.00996 -0.523678
v -0.063385 0.016236 -0.491714
v -0.063385 0.016236 -0.491714
v -0.063383 0.00996 -0.523678
v -0.059278 0.006254 -0.522951
v -0.059279 0.01253 -0.490986
v -0.054759 0.010497 -0.490587
v -0.059279 0.01253 -0.490986
v -0.059278 0.006254 -0.522951
v -0.054758 0.004221 -0.522551
v -0.063383 0.00996 -0.523678
v -0.062932 0.010029 -0.524993
v -0.058914 0.006409 -0.524281
v -0.059278 0.006254 -0.522951
v -0.059278 0.006254 -0.522951
v -0.058914 0.006409 -0.524281
v -0.054503 0.00443 -0.523892
v -0.054758 0.004221 -0.522551
v 0.049976 0.010064 -0.523614
v 0.05306 0.01145 -0.523894
v 0.053424 0.010807 -0.52508
v 0.050232 0.009367 -0.52479
v 0.044788 0.009097 -0.523419
v 0.049976 0.010064 -0.523614
v 0.050232 0.009367 -0.52479
v 0.04493 0.008375 -0.524591
v -0.000752 0.008958 -0.52339
v 0.044788 0.009097 -0.523419
v 0.04493 0.008375 -0.524591
v -0.000752 0.008234 -0.524561
v 0.049976 0.010064 -0.523614
v 0.044788 0.009097 -0.523419
v 0.04479 0.023862 -0.446405
v 0.049979 0.024828 -0.4466
v 0.044788 0.009097 -0.523419
v -0.000752 0.008958 -0.52339
v -0.000752 0.023723 -0.446375
v 0.04479 0.023862 -0.446405
v 0.049979 0.024828 -0.4466
v 0.04479 0.023862 -0.446405
v 0.044644 0.039667 -0.449588
v -0.000752 0.023723 -0.446375
v -0.000752 0.039598 -0.449573
v 0.044644 0.039667 -0.449588
v 0.04479 0.023862 -0.446405
v 0.044644 0.039667 -0.449588
v 0.044498 0.055472 -0.452772
v 0.048919 0.054649 -0.452607
v -0.000752 0.039598 -0.449573
v -0.000752 0.055473 -0.452771
v 0.044498 0.055472 -0.452772
v 0.044644 0.039667 -0.449588
v 0.053063 0.026215 -0.446879
v 0.049979 0.024828 -0.4466
v 0.044644 0.039667 -0.449588
v 0.048919 0.054649 -0.452607
v 0.052648 0.053191 -0.452313
v 0.044644 0.039667 -0.449588
v 0.052648 0.053191 -0.452313
v 0.055786 0.050507 -0.451772
v 0.044644 0.039667 -0.449588
v 0.055786 0.050507 -0.451772
v 0.058088 0.047264 -0.451119
v 0.044644 0.039667 -0.449588
v 0.058088 0.047264 -0.451119
v 0.059779 0.043494 -0.45036
v 0.044644 0.039667 -0.449588
v 0.059779 0.043494 -0.45036
v 0.060416 0.039696 -0.449595
v 0.044644 0.039667 -0.449588
v 0.060416 0.039696 -0.449595
v 0.059849 0.035896 -0.448829
v 0.044644 0.039667 -0.449588
v 0.059849 0.035896 -0.448829
v 0.058231 0.032119 -0.448068
v 0.044644 0.039667 -0.449588
v 0.058231 0.032119 -0.448068
v 0.055977 0.028843 -0.447409
v 0.044644 0.039667 -0.449588
v 0.055977 0.028843 -0.447409
v 0.053063 0.026215 -0.446879
v 0.044644 0.039667 -0.449588
v 0.055975 0.014079 -0.524423
v 0.05306 0.01145 -0.523894
v 0.053063 0.026215 -0.446879
v 0.055977 0.028843 -0.447409
v 0.05306 0.01145 -0.523894
v 0.049976 0.010064 -0.523614
v 0.049979 0.024828 -0.4466
v 0.053063 0.026215 -0.446879
v 0.05306 0.01145 -0.523894
v 0.055975 0.014079 -0.524423
v 0.056426 0.013522 -0.525625
v 0.053424 0.010807 -0.52508
v 0.055975 0.014079 -0.524423
v 0.058228 0.017354 -0.525083
v 0.058735 0.016884 -0.5263
v 0.056426 0.013522 -0.525625
v 0.058228 0.017354 -0.525083
v 0.055975 0.014079 -0.524423
v 0.055977 0.028843 -0.447409
v 0.058231 0.032119 -0.448068
v 0.058228 0.017354 -0.525083
v 0.059847 0.021131 -0.525844
v 0.060394 0.020759 -0.527079
v 0.058735 0.016884 -0.5263
v 0.059847 0.021131 -0.525844
v 0.058228 0.017354 -0.525083
v 0.058231 0.032119 -0.448068
v 0.059849 0.035896 -0.448829
v 0.059847 0.021131 -0.525844
v 0.060413 0.024932 -0.52661
v 0.06098 0.024681 -0.527867
v 0.060394 0.020759 -0.527079
v 0.060413 0.024932 -0.52661
v 0.059847 0.021131 -0.525844
v 0.059849 0.035896 -0.448829
v 0.060416 0.039696 -0.449595
v 0.060413 0.024932 -0.52661
v 0.059776 0.02873 -0.527375
v 0.060326 0.028601 -0.528654
v 0.06098 0.024681 -0.527867
v 0.059776 0.02873 -0.527375
v 0.060413 0.024932 -0.52661
v 0.060416 0.039696 -0.449595
v 0.059779 0.043494 -0.45036
v 0.059776 0.02873 -0.527375
v 0.058086 0.0325 -0.528134
v 0.058596 0.03247 -0.529432
v 0.060326 0.028601 -0.528654
v 0.058086 0.0325 -0.528134
v 0.059776 0.02873 -0.527375
v 0.059779 0.043494 -0.45036
v 0.058088 0.047264 -0.451119
v 0.058086 0.0325 -0.528134
v 0.055784 0.035742 -0.528787
v 0.056239 0.035802 -0.530101
v 0.058596 0.03247 -0.529432
v 0.055784 0.035742 -0.528787
v 0.058086 0.0325 -0.528134
v 0.058088 0.047264 -0.451119
v 0.055786 0.050507 -0.451772
v 0.055784 0.035742 -0.528787
v 0.052646 0.038426 -0.529328
v 0.053005 0.038579 -0.530659
v 0.056239 0.035802 -0.530101
v 0.052646 0.038426 -0.529328
v 0.055784 0.035742 -0.528787
v 0.055786 0.050507 -0.451772
v 0.052648 0.053191 -0.452313
v 0.052646 0.038426 -0.529328
v 0.048917 0.039885 -0.529621
v 0.049163 0.04009 -0.530962
v 0.053005 0.038579 -0.530659
v 0.048917 0.039885 -0.529621
v 0.052646 0.038426 -0.529328
v 0.052648 0.053191 -0.452313
v 0.048919 0.054649 -0.452607
v 0.048917 0.039885 -0.529621
v 0.044496 0.040707 -0.529787
v 0.04464 0.040936 -0.531132
v 0.049163 0.04009 -0.530962
v 0.044496 0.040707 -0.529787
v 0.048917 0.039885 -0.529621
v 0.048919 0.054649 -0.452607
v 0.044498 0.055472 -0.452772
v 0.044496 0.040707 -0.529787
v -0.000752 0.040708 -0.529785
v -0.000752 0.040939 -0.531131
v 0.04464 0.040936 -0.531132
v -0.000752 0.040708 -0.529785
v 0.044496 0.040707 -0.529787
v 0.044498 0.055472 -0.452772
v -0.000752 0.055473 -0.452771
v -0.046001 0.040707 -0.529787
v -0.046145 0.040936 -0.531132
v -0.000752 0.040939 -0.531131
v -0.000752 0.040708 -0.529785
v -0.000752 0.040708 -0.529785
v -0.000752 0.055473 -0.452771
v -0.046003 0.055472 -0.452772
v -0.046001 0.040707 -0.529787
v -0.050422 0.039885 -0.529621
v -0.050668 0.04009 -0.530962
v -0.046145 0.040936 -0.531132
v -0.046001 0.040707 -0.529787
v -0.046001 0.040707 -0.529787
v -0.046003 0.055472 -0.452772
v -0.050424 0.054649 -0.452607
v -0.050422 0.039885 -0.529621
v -0.046149 0.039667 -0.449588
v -0.050424 0.054649 -0.452607
v -0.046003 0.055472 -0.452772
v -0.000752 0.039598 -0.449573
v -0.046149 0.039667 -0.449588
v -0.046003 0.055472 -0.452772
v -0.000752 0.055473 -0.452771
v -0.051484 0.024828 -0.4466
v -0.046149 0.039667 -0.449588
v -0.046295 0.023862 -0.446405
v -0.000752 0.023723 -0.446375
v -0.046295 0.023862 -0.446405
v -0.046149 0.039667 -0.449588
v -0.000752 0.039598 -0.449573
v -0.054568 0.026215 -0.446879
v -0.046149 0.039667 -0.449588
v -0.051484 0.024828 -0.4466
v -0.050424 0.054649 -0.452607
v -0.046149 0.039667 -0.449588
v -0.054153 0.053191 -0.452313
v -0.054153 0.053191 -0.452313
v -0.046149 0.039667 -0.449588
v -0.057291 0.050507 -0.451772
v -0.057291 0.050507 -0.451772
v -0.046149 0.039667 -0.449588
v -0.059593 0.047264 -0.451119
v -0.059593 0.047264 -0.451119
v -0.046149 0.039667 -0.449588
v -0.061284 0.043494 -0.45036
v -0.061284 0.043494 -0.45036
v -0.046149 0.039667 -0.449588
v -0.061921 0.039696 -0.449595
v -0.061921 0.039696 -0.449595
v -0.046149 0.039667 -0.449588
v -0.061354 0.035896 -0.448829
v -0.061354 0.035896 -0.448829
v -0.046149 0.039667 -0.449588
v -0.059736 0.032119 -0.448068
v -0.059736 0.032119 -0.448068
v -0.046149 0.039667 -0.449588
v -0.057482 0.028843 -0.447409
v -0.057482 0.028843 -0.447409
v -0.046149 0.039667 -0.449588
v -0.054568 0.026215 -0.446879
v -0.05748 0.014079 -0.524423
v -0.057482 0.028843 -0.447409
v -0.054568 0.026215 -0.446879
v -0.054565 0.01145 -0.523894
v -0.054565 0.01145 -0.523894
v -0.054568 0.026215 -0.446879
v -0.051484 0.024828 -0.4466
v -0.051481 0.010064 -0.523614
v -0.051481 0.010064 -0.523614
v -0.051737 0.009367 -0.52479
v -0.054929 0.010807 -0.52508
v -0.054565 0.01145 -0.523894
v -0.054565 0.01145 -0.523894
v -0.054929 0.010807 -0.52508
v -0.057931 0.013522 -0.525625
v -0.05748 0.014079 -0.524423
v -0.046293 0.009097 -0.523419
v -0.046435 0.008375 -0.524591
v -0.051737 0.009367 -0.52479
v -0.051481 0.010064 -0.523614
v -0.051481 0.010064 -0.523614
v -0.051484 0.024828 -0.4466
v -0.046295 0.023862 -0.446405
v -0.046293 0.009097 -0.523419
v -0.000752 0.008958 -0.52339
v -0.000752 0.008234 -0.524561
v -0.046435 0.008375 -0.524591
v -0.046293 0.009097 -0.523419
v -0.046293 0.009097 -0.523419
v -0.046295 0.023862 -0.446405
v -0.000752 0.023723 -0.446375
v -0.000752 0.008958 -0.52339
v -0.05748 0.014079 -0.524423
v -0.057931 0.013522 -0.525625
v -0.06024 0.016884 -0.5263
v -0.059733 0.017354 -0.525083
v -0.059733 0.017354 -0.525083
v -0.059736 0.032119 -0.448068
v -0.057482 0.028843 -0.447409
v -0.05748 0.014079 -0.524423
v -0.059733 0.017354 -0.525083
v -0.06024 0.016884 -0.5263
v -0.061899 0.020759 -0.527079
v -0.061352 0.021131 -0.525844
v -0.061352 0.021131 -0.525844
v -0.061354 0.035896 -0.448829
v -0.059736 0.032119 -0.448068
v -0.059733 0.017354 -0.525083
v -0.061352 0.021131 -0.525844
v -0.061899 0.020759 -0.527079
v -0.062485 0.024681 -0.527867
v -0.061918 0.024932 -0.52661
v -0.061918 0.024932 -0.52661
v -0.061921 0.039696 -0.449595
v -0.061354 0.035896 -0.448829
v -0.061352 0.021131 -0.525844
v -0.061918 0.024932 -0.52661
v -0.062485 0.024681 -0.527867
v -0.06183 0.028601 -0.528654
v -0.061281 0.02873 -0.527375
v -0.061281 0.02873 -0.527375
v -0.061284 0.043494 -0.45036
v -0.061921 0.039696 -0.449595
v -0.061918 0.024932 -0.52661
v -0.061281 0.02873 -0.527375
v -0.06183 0.028601 -0.528654
v -0.060101 0.03247 -0.529432
v -0.059591 0.0325 -0.528134
v -0.059591 0.0325 -0.528134
v -0.059593 0.047264 -0.451119
v -0.061284 0.043494 -0.45036
v -0.061281 0.02873 -0.527375
v -0.059591 0.0325 -0.528134
v -0.060101 0.03247 -0.529432
v -0.057744 0.035802 -0.530101
v -0.057289 0.035742 -0.528787
v -0.057289 0.035742 -0.528787
v -0.057291 0.050507 -0.451772
v -0.059593 0.047264 -0.451119
v -0.059591 0.0325 -0.528134
v -0.057289 0.035742 -0.528787
v -0.057744 0.035802 -0.530101
v -0.05451 0.038579 -0.530659
v -0.054151 0.038426 -0.529328
v -0.054151 0.038426 -0.529328
v -0.054153 0.053191 -0.452313
v -0.057291 0.050507 -0.451772
v -0.057289 0.035742 -0.528787
v -0.054151 0.038426 -0.529328
v -0.05451 0.038579 -0.530659
v -0.050668 0.04009 -0.530962
v -0.050422 0.039885 -0.529621
v -0.050422 0.039885 -0.529621
v -0.050424 0.054649 -0.452607
v -0.054153 0.053191 -0.452313
v -0.054151 0.038426 -0.529328
vn 0.0954 -0.9768 0.1918
vn -0 -0.9813 0.1926
vn -0 -0.9999 0.0104
vn 0.0955 -0.9954 0.0081
vn -0.0954 -0.9768 0.1918
vn -0.0955 -0.9954 0.0081
vn -0 -0.9999 0.0104
vn -0 -0.9813 0.1926
vn -0.3039 -0.9349 0.1835
vn -0.3006 -0.9537 -0.0058
vn -0.0955 -0.9954 0.0081
vn -0.0954 -0.9768 0.1918
vn -0.3006 -0.9537 -0.0058
vn -0.2185 -0.8092 -0.5454
vn -0.0689 -0.8434 -0.5328
vn -0.0955 -0.9954 0.0081
vn -0.0955 -0.9954 0.0081
vn -0.0689 -0.8434 -0.5328
vn -0 -0.8423 -0.539
vn -0 -0.9999 0.0104
vn -0.2185 -0.8092 -0.5454
vn -0.058 -0.3799 -0.9232
vn -0.017 -0.3897 -0.9208
vn -0.0689 -0.8434 -0.5328
vn -0.0689 -0.8434 -0.5328
vn -0.017 -0.3897 -0.9208
vn -0 -0.3824 -0.924
vn -0 -0.8423 -0.539
vn 0.0955 -0.9954 0.0081
vn -0 -0.9999 0.0104
vn -0 -0.8423 -0.539
vn 0.0689 -0.8434 -0.5328
vn 0.0689 -0.8434 -0.5328
vn -0 -0.8423 -0.539
vn -0 -0.3824 -0.924
vn 0.017 -0.3897 -0.9208
vn -0 0.0301 -0.9995
vn -0.0219 0.0128 -0.9997
vn 0.017 -0.3897 -0.9208
vn -0 -0.3824 -0.924
vn -0 0.0301 -0.9995
vn -0 -0.3824 -0.924
vn -0.017 -0.3897 -0.9208
vn 0.0219 0.0128 -0.9997
vn -0 0.5878 -0.809
vn -0 0.0301 -0.9995
vn 0.0219 0.0128 -0.9997
vn 0.0684 0.5667 -0.8211
vn -0 0.5878 -0.809
vn -0.0684 0.5667 -0.8211
vn -0.0219 0.0128 -0.9997
vn -0 0.0301 -0.9995
vn 0.0684 0.5667 -0.8211
vn 0.0219 0.0128 -0.9997
vn 0.0627 -0.0076 -0.998
vn 0.2149 0.521 -0.8261
vn 0.0219 0.0128 -0.9997
vn -0.017 -0.3897 -0.9208
vn -0.058 -0.3799 -0.9232
vn 0.0627 -0.0076 -0.998
vn 0.2149 0.521 -0.8261
vn 0.0627 -0.0076 -0.998
vn 0.1045 -0.0422 -0.9936
vn 0.3822 0.4207 -0.8228
vn -0.1079 -0.3554 -0.9285
vn 0.1045 -0.0422 -0.9936
vn 0.0627 -0.0076 -0.998
vn -0.058 -0.3799 -0.9232
vn -0.3958 -0.7212 -0.5686
vn -0.1079 -0.3554 -0.9285
vn -0.058 -0.3799 -0.9232
vn -0.2185 -0.8092 -0.5454
vn -0.5365 -0.5901 -0.6033
vn -0.1457 -0.3153 -0.9377
vn -0.1079 -0.3554 -0.9285
vn -0.3958 -0.7212 -0.5686
vn 0.1045 -0.0422 -0.9936
vn -0.1079 -0.3554 -0.9285
vn -0.1457 -0.3153 -0.9377
vn 0.1408 -0.075 -0.9872
vn -0.6196 -0.4662 -0.6315
vn -0.1684 -0.2806 -0.9449
vn -0.1457 -0.3153 -0.9377
vn -0.5365 -0.5901 -0.6033
vn 0.1408 -0.075 -0.9872
vn -0.1457 -0.3153 -0.9377
vn -0.1684 -0.2806 -0.9449
vn 0.1611 -0.1076 -0.9811
vn 0.3822 0.4207 -0.8228
vn 0.1045 -0.0422 -0.9936
vn 0.1408 -0.075 -0.9872
vn 0.5224 0.2971 -0.7993
vn 0.5224 0.2971 -0.7993
vn 0.1408 -0.075 -0.9872
vn 0.1611 -0.1076 -0.9811
vn 0.6044 0.177 -0.7768
vn 0.6044 0.177 -0.7768
vn 0.1611 -0.1076 -0.9811
vn 0.1683 -0.1467 -0.9748
vn 0.6532 0.0336 -0.7565
vn 0.1611 -0.1076 -0.9811
vn -0.1684 -0.2806 -0.9449
vn -0.1883 -0.242 -0.9518
vn 0.1683 -0.1467 -0.9748
vn 0.6532 0.0336 -0.7565
vn 0.1683 -0.1467 -0.9748
vn 0.1676 -0.1934 -0.9667
vn 0.6703 -0.1517 -0.7264
vn -0.2003 -0.1873 -0.9616
vn 0.1676 -0.1934 -0.9667
vn 0.1683 -0.1467 -0.9748
vn -0.1883 -0.242 -0.9518
vn -0.7087 -0.1296 -0.6935
vn -0.2003 -0.1873 -0.9616
vn -0.1883 -0.242 -0.9518
vn -0.6801 -0.3226 -0.6583
vn -0.6801 -0.3226 -0.6583
vn -0.1883 -0.242 -0.9518
vn -0.1684 -0.2806 -0.9449
vn -0.6196 -0.4662 -0.6315
vn -0.68 0.063 -0.7305
vn -0.1934 -0.1317 -0.9722
vn -0.2003 -0.1873 -0.9616
vn -0.7087 -0.1296 -0.6935
vn 0.1676 -0.1934 -0.9667
vn -0.2003 -0.1873 -0.9616
vn -0.1934 -0.1317 -0.9722
vn 0.1632 -0.2386 -0.9573
vn -0.6197 0.2064 -0.7572
vn -0.1774 -0.09 -0.98
vn -0.1934 -0.1317 -0.9722
vn -0.68 0.063 -0.7305
vn 0.1632 -0.2386 -0.9573
vn -0.1934 -0.1317 -0.9722
vn -0.1774 -0.09 -0.98
vn 0.1513 -0.2738 -0.9498
vn 0.6703 -0.1517 -0.7264
vn 0.1676 -0.1934 -0.9667
vn 0.1632 -0.2386 -0.9573
vn 0.6479 -0.3331 -0.6851
vn 0.6479 -0.3331 -0.6851
vn 0.1632 -0.2386 -0.9573
vn 0.1513 -0.2738 -0.9498
vn 0.5951 -0.4701 -0.6518
vn 0.5951 -0.4701 -0.6518
vn 0.1513 -0.2738 -0.9498
vn 0.1273 -0.3012 -0.945
vn 0.507 -0.5885 -0.6298
vn 0.1513 -0.2738 -0.9498
vn -0.1774 -0.09 -0.98
vn -0.1561 -0.0483 -0.9866
vn 0.1273 -0.3012 -0.945
vn 0.507 -0.5885 -0.6298
vn 0.1273 -0.3012 -0.945
vn 0.089 -0.3285 -0.9403
vn 0.3544 -0.7125 -0.6056
vn -0.1127 0.002 -0.9936
vn 0.089 -0.3285 -0.9403
vn 0.1273 -0.3012 -0.945
vn -0.1561 -0.0483 -0.9866
vn -0.3792 0.4805 -0.7908
vn -0.1127 0.002 -0.9936
vn -0.1561 -0.0483 -0.9866
vn -0.5338 0.3368 -0.7756
vn -0.5338 0.3368 -0.7756
vn -0.1561 -0.0483 -0.9866
vn -0.1774 -0.09 -0.98
vn -0.6197 0.2064 -0.7572
vn -0.2046 0.5612 -0.802
vn -0.0604 0.0261 -0.9978
vn -0.1127 0.002 -0.9936
vn -0.3792 0.4805 -0.7908
vn 0.089 -0.3285 -0.9403
vn -0.1127 0.002 -0.9936
vn -0.0604 0.0261 -0.9978
vn 0.053 -0.3604 -0.9313
vn -0.069 0.5949 -0.8008
vn -0.019 0.0397 -0.999
vn -0.0604 0.0261 -0.9978
vn -0.2046 0.5612 -0.802
vn 0.053 -0.3604 -0.9313
vn -0.0604 0.0261 -0.9978
vn -0.019 0.0397 -0.999
vn 0.0196 -0.3711 -0.9284
vn 0.3544 -0.7125 -0.6056
vn 0.089 -0.3285 -0.9403
vn 0.053 -0.3604 -0.9313
vn 0.1966 -0.7995 -0.5676
vn 0.1966 -0.7995 -0.5676
vn 0.053 -0.3604 -0.9313
vn 0.0196 -0.3711 -0.9284
vn 0.0661 -0.8299 -0.554
vn 0.0661 -0.8299 -0.554
vn 0.0196 -0.3711 -0.9284
vn -0 -0.387 -0.9221
vn -0 -0.8454 -0.5341
vn -0 0.0322 -0.9995
vn -0 -0.387 -0.9221
vn 0.0196 -0.3711 -0.9284
vn -0.019 0.0397 -0.999
vn -0.0661 -0.8299 -0.554
vn -0 -0.8454 -0.5341
vn -0 -0.387 -0.9221
vn -0.0196 -0.3711 -0.9284
vn -0 0.0322 -0.9995
vn 0.019 0.0397 -0.999
vn -0.0196 -0.3711 -0.9284
vn -0 -0.387 -0.9221
vn -0 0.5919 -0.806
vn -0 0.0322 -0.9995
vn -0.019 0.0397 -0.999
vn -0.069 0.5949 -0.8008
vn -0 0.5919 -0.806
vn 0.069 0.5949 -0.8008
vn 0.019 0.0397 -0.999
vn -0 0.0322 -0.9995
vn 0.069 0.5949 -0.8008
vn 0.2046 0.5612 -0.802
vn 0.0604 0.0261 -0.9978
vn 0.019 0.0397 -0.999
vn -0.053 -0.3604 -0.9313
vn -0.0196 -0.3711 -0.9284
vn 0.019 0.0397 -0.999
vn 0.0604 0.0261 -0.9978
vn 0.2046 0.5612 -0.802
vn 0.3792 0.4805 -0.7908
vn 0.113 0.0024 -0.9936
vn 0.0604 0.0261 -0.9978
vn -0.089 -0.3285 -0.9403
vn -0.053 -0.3604 -0.9313
vn 0.0604 0.0261 -0.9978
vn 0.113 0.0024 -0.9936
vn -0.3544 -0.7125 -0.6056
vn -0.1966 -0.7995 -0.5676
vn -0.053 -0.3604 -0.9313
vn -0.089 -0.3285 -0.9403
vn -0.1966 -0.7995 -0.5676
vn -0.0661 -0.8299 -0.554
vn -0.0196 -0.3711 -0.9284
vn -0.053 -0.3604 -0.9313
vn -0.507 -0.5884 -0.6298
vn -0.3544 -0.7125 -0.6056
vn -0.089 -0.3285 -0.9403
vn -0.1272 -0.3012 -0.945
vn 0.113 0.0024 -0.9936
vn 0.1561 -0.0483 -0.9866
vn -0.1272 -0.3012 -0.945
vn -0.089 -0.3285 -0.9403
vn -0.595 -0.4701 -0.6519
vn -0.507 -0.5884 -0.6298
vn -0.1272 -0.3012 -0.945
vn -0.1513 -0.2738 -0.9498
vn -0.1513 -0.2738 -0.9498
vn -0.1272 -0.3012 -0.945
vn 0.1561 -0.0483 -0.9866
vn 0.1774 -0.09 -0.98
vn 0.3792 0.4805 -0.7908
vn 0.5338 0.3368 -0.7756
vn 0.1561 -0.0483 -0.9866
vn 0.113 0.0024 -0.9936
vn 0.5338 0.3368 -0.7756
vn 0.6197 0.2064 -0.7572
vn 0.1774 -0.09 -0.98
vn 0.1561 -0.0483 -0.9866
vn 0.6197 0.2064 -0.7572
vn 0.68 0.063 -0.7305
vn 0.1931 -0.1317 -0.9723
vn 0.1774 -0.09 -0.98
vn -0.1632 -0.2386 -0.9573
vn -0.1513 -0.2738 -0.9498
vn 0.1774 -0.09 -0.98
vn 0.1931 -0.1317 -0.9723
vn 0.68 0.063 -0.7305
vn 0.7087 -0.1296 -0.6935
vn 0.2004 -0.1873 -0.9616
vn 0.1931 -0.1317 -0.9723
vn -0.1676 -0.1934 -0.9667
vn -0.1632 -0.2386 -0.9573
vn 0.1931 -0.1317 -0.9723
vn 0.2004 -0.1873 -0.9616
vn -0.6702 -0.1516 -0.7265
vn -0.6477 -0.3331 -0.6852
vn -0.1632 -0.2386 -0.9573
vn -0.1676 -0.1934 -0.9667
vn -0.6477 -0.3331 -0.6852
vn -0.595 -0.4701 -0.6519
vn -0.1513 -0.2738 -0.9498
vn -0.1632 -0.2386 -0.9573
vn -0.6532 0.0336 -0.7565
vn -0.6702 -0.1516 -0.7265
vn -0.1676 -0.1934 -0.9667
vn -0.1683 -0.1467 -0.9748
vn 0.2004 -0.1873 -0.9616
vn 0.1884 -0.242 -0.9518
vn -0.1683 -0.1467 -0.9748
vn -0.1676 -0.1934 -0.9667
vn -0.6044 0.177 -0.7768
vn -0.6532 0.0336 -0.7565
vn -0.1683 -0.1467 -0.9748
vn -0.1611 -0.1076 -0.9811
vn -0.1611 -0.1076 -0.9811
vn -0.1683 -0.1467 -0.9748
vn 0.1884 -0.242 -0.9518
vn 0.1684 -0.2806 -0.9449
vn 0.7087 -0.1296 -0.6935
vn 0.6802 -0.3226 -0.6583
vn 0.1884 -0.242 -0.9518
vn 0.2004 -0.1873 -0.9616
vn 0.6802 -0.3226 -0.6583
vn 0.6196 -0.4662 -0.6315
vn 0.1684 -0.2806 -0.9449
vn 0.1884 -0.242 -0.9518
vn 0.6196 -0.4662 -0.6315
vn 0.5365 -0.5901 -0.6033
vn 0.1457 -0.3153 -0.9377
vn 0.1684 -0.2806 -0.9449
vn -0.1408 -0.075 -0.9872
vn -0.1611 -0.1076 -0.9811
vn 0.1684 -0.2806 -0.9449
vn 0.1457 -0.3153 -0.9377
vn 0.5365 -0.5901 -0.6033
vn 0.3958 -0.7212 -0.5686
vn 0.1079 -0.3554 -0.9285
vn 0.1457 -0.3153 -0.9377
vn -0.1045 -0.0422 -0.9936
vn -0.1408 -0.075 -0.9872
vn 0.1457 -0.3153 -0.9377
vn 0.1079 -0.3554 -0.9285
vn -0.3822 0.4207 -0.8228
vn -0.5224 0.2971 -0.7993
vn -0.1408 -0.075 -0.9872
vn -0.1045 -0.0422 -0.9936
vn -0.5224 0.2971 -0.7993
vn -0.6044 0.177 -0.7768
vn -0.1611 -0.1076 -0.9811
vn -0.1408 -0.075 -0.9872
vn -0.2149 0.521 -0.8261
vn -0.3822 0.4207 -0.8228
vn -0.1045 -0.0422 -0.9936
vn -0.0627 -0.0076 -0.998
vn 0.1079 -0.3554 -0.9285
vn 0.058 -0.3799 -0.9232
vn -0.0627 -0.0076 -0.998
vn -0.1045 -0.0422 -0.9936
vn -0.0684 0.5667 -0.8211
vn -0.2149 0.521 -0.8261
vn -0.0627 -0.0076 -0.998
vn -0.0219 0.0128 -0.9997
vn -0.0219 0.0128 -0.9997
vn -0.0627 -0.0076 -0.998
vn 0.058 -0.3799 -0.9232
vn 0.017 -0.3897 -0.9208
vn 0.3958 -0.7212 -0.5686
vn 0.2185 -0.8092 -0.5454
vn 0.058 -0.3799 -0.9232
vn 0.1079 -0.3554 -0.9285
vn 0.2185 -0.8092 -0.5454
vn 0.0689 -0.8434 -0.5328
vn 0.017 -0.3897 -0.9208
vn 0.058 -0.3799 -0.9232
vn 0.5448 -0.8378 -0.0349
vn 0.3006 -0.9537 -0.0058
vn 0.2185 -0.8092 -0.5454
vn 0.3958 -0.7212 -0.5686
vn 0.3006 -0.9537 -0.0058
vn 0.0955 -0.9954 0.0081
vn 0.0689 -0.8434 -0.5328
vn 0.2185 -0.8092 -0.5454
vn 0.7436 -0.6647 -0.073
vn 0.5448 -0.8378 -0.0349
vn 0.3958 -0.7212 -0.5686
vn 0.5365 -0.5901 -0.6033
vn 0.7582 -0.6399 0.1256
vn 0.5537 -0.8171 0.1604
vn 0.5448 -0.8378 -0.0349
vn 0.7436 -0.6647 -0.073
vn 0.3039 -0.9349 0.1835
vn 0.3006 -0.9537 -0.0058
vn 0.5448 -0.8378 -0.0349
vn 0.5537 -0.8171 0.1604
vn 0.3039 -0.9349 0.1835
vn 0.0954 -0.9768 0.1918
vn 0.0955 -0.9954 0.0081
vn 0.3006 -0.9537 -0.0058
vn 0.8797 -0.4667 0.0916
vn 0.7582 -0.6399 0.1256
vn 0.7436 -0.6647 -0.073
vn 0.8619 -0.4954 -0.1082
vn 0.9634 -0.2631 0.0516
vn 0.8797 -0.4667 0.0916
vn 0.8619 -0.4954 -0.1082
vn 0.9435 -0.2963 -0.1484
vn 0.9435 -0.2963 -0.1484
vn 0.8619 -0.4954 -0.1082
vn 0.6196 -0.4662 -0.6315
vn 0.6802 -0.3226 -0.6583
vn 0.8619 -0.4954 -0.1082
vn 0.7436 -0.6647 -0.073
vn 0.5365 -0.5901 -0.6033
vn 0.6196 -0.4662 -0.6315
vn 0.9792 -0.0309 -0.2007
vn 0.9435 -0.2963 -0.1484
vn 0.6802 -0.3226 -0.6583
vn 0.7087 -0.1296 -0.6935
vn 0.9634 -0.2631 0.0516
vn 0.9435 -0.2963 -0.1484
vn 0.9792 -0.0309 -0.2007
vn 1 0.0088 -0.0018
vn 0.9393 0.2338 -0.251
vn 0.9792 -0.0309 -0.2007
vn 0.7087 -0.1296 -0.6935
vn 0.68 0.063 -0.7305
vn 0.9586 0.2793 -0.0549
vn 1 0.0088 -0.0018
vn 0.9792 -0.0309 -0.2007
vn 0.9393 0.2338 -0.251
vn 0.8722 0.48 -0.0943
vn 0.9586 0.2793 -0.0549
vn 0.9393 0.2338 -0.251
vn 0.8552 0.4312 -0.2875
vn 0.7447 0.6549 -0.1286
vn 0.8722 0.48 -0.0943
vn 0.8552 0.4312 -0.2875
vn 0.7313 0.6032 -0.3182
vn 0.7313 0.6032 -0.3182
vn 0.8552 0.4312 -0.2875
vn 0.6197 0.2064 -0.7572
vn 0.5338 0.3368 -0.7756
vn 0.8552 0.4312 -0.2875
vn 0.9393 0.2338 -0.251
vn 0.68 0.063 -0.7305
vn 0.6197 0.2064 -0.7572
vn 0.5145 0.7838 -0.3478
vn 0.7313 0.6032 -0.3182
vn 0.5338 0.3368 -0.7756
vn 0.3792 0.4805 -0.7908
vn 0.7447 0.6549 -0.1286
vn 0.7313 0.6032 -0.3182
vn 0.5145 0.7838 -0.3478
vn 0.5214 0.8373 -0.1644
vn 0.2769 0.8902 -0.3619
vn 0.5145 0.7838 -0.3478
vn 0.3792 0.4805 -0.7908
vn 0.2046 0.5612 -0.802
vn 0.2797 0.9421 -0.185
vn 0.5214 0.8373 -0.1644
vn 0.5145 0.7838 -0.3478
vn 0.2769 0.8902 -0.3619
vn 0.0936 0.977 -0.1918
vn 0.2797 0.9421 -0.185
vn 0.2769 0.8902 -0.3619
vn 0.0939 0.9267 -0.364
vn 0.0936 0.977 -0.1918
vn 0.0939 0.9267 -0.364
vn -0 0.9316 -0.3634
vn -0 0.9813 -0.1926
vn -0 0.9316 -0.3634
vn 0.0939 0.9267 -0.364
vn 0.069 0.5949 -0.8008
vn -0 0.5919 -0.806
vn 0.0939 0.9267 -0.364
vn 0.2769 0.8902 -0.3619
vn 0.2046 0.5612 -0.802
vn 0.069 0.5949 -0.8008
vn -0 0.9316 -0.3634
vn -0 0.5919 -0.806
vn -0.069 0.5949 -0.8008
vn -0.0939 0.9267 -0.364
vn -0.0936 0.977 -0.1918
vn -0 0.9813 -0.1926
vn -0 0.9316 -0.3634
vn -0.0939 0.9267 -0.364
vn -0.0939 0.9267 -0.364
vn -0.069 0.5949 -0.8008
vn -0.2046 0.5612 -0.802
vn -0.2769 0.8902 -0.3619
vn -0.0936 0.977 -0.1918
vn -0.0939 0.9267 -0.364
vn -0.2769 0.8902 -0.3619
vn -0.2797 0.9421 -0.185
vn -0.2797 0.9421 -0.185
vn -0.2769 0.8902 -0.3619
vn -0.5145 0.7838 -0.3478
vn -0.5214 0.8373 -0.1644
vn -0.7447 0.6549 -0.1286
vn -0.5214 0.8373 -0.1644
vn -0.5145 0.7838 -0.3478
vn -0.7313 0.6032 -0.3182
vn -0.2769 0.8902 -0.3619
vn -0.2046 0.5612 -0.802
vn -0.3792 0.4805 -0.7908
vn -0.5145 0.7838 -0.3478
vn -0.5145 0.7838 -0.3478
vn -0.3792 0.4805 -0.7908
vn -0.5338 0.3368 -0.7756
vn -0.7313 0.6032 -0.3182
vn -0.7313 0.6032 -0.3182
vn -0.5338 0.3368 -0.7756
vn -0.6197 0.2064 -0.7572
vn -0.8552 0.4312 -0.2875
vn -0.7447 0.6549 -0.1286
vn -0.7313 0.6032 -0.3182
vn -0.8552 0.4312 -0.2875
vn -0.8722 0.48 -0.0943
vn -0.8552 0.4312 -0.2875
vn -0.6197 0.2064 -0.7572
vn -0.68 0.063 -0.7305
vn -0.9393 0.2338 -0.251
vn -0.8722 0.48 -0.0943
vn -0.8552 0.4312 -0.2875
vn -0.9393 0.2338 -0.251
vn -0.9586 0.2793 -0.0549
vn -0.9586 0.2793 -0.0549
vn -0.9393 0.2338 -0.251
vn -0.9792 -0.0309 -0.2007
vn -1 0.0088 -0.0018
vn -0.9634 -0.2631 0.0516
vn -1 0.0088 -0.0018
vn -0.9792 -0.0309 -0.2007
vn -0.9435 -0.2963 -0.1484
vn -0.9393 0.2338 -0.251
vn -0.68 0.063 -0.7305
vn -0.7087 -0.1296 -0.6935
vn -0.9792 -0.0309 -0.2007
vn -0.9792 -0.0309 -0.2007
vn -0.7087 -0.1296 -0.6935
vn -0.6801 -0.3226 -0.6583
vn -0.9435 -0.2963 -0.1484
vn -0.9435 -0.2963 -0.1484
vn -0.6801 -0.3226 -0.6583
vn -0.6196 -0.4662 -0.6315
vn -0.8619 -0.4954 -0.1082
vn -0.9634 -0.2631 0.0516
vn -0.9435 -0.2963 -0.1484
vn -0.8619 -0.4954 -0.1082
vn -0.8797 -0.4667 0.0916
vn -0.8619 -0.4954 -0.1082
vn -0.6196 -0.4662 -0.6315
vn -0.5365 -0.5901 -0.6033
vn -0.7436 -0.6647 -0.073
vn -0.8797 -0.4667 0.0916
vn -0.8619 -0.4954 -0.1082
vn -0.7436 -0.6647 -0.073
vn -0.7582 -0.6399 0.1256
vn -0.7582 -0.6399 0.1256
vn -0.7436 -0.6647 -0.073
vn -0.5448 -0.8378 -0.0349
vn -0.5537 -0.8171 0.1604
vn -0.3039 -0.9349 0.1835
vn -0.5537 -0.8171 0.1604
vn -0.5448 -0.8378 -0.0349
vn -0.3006 -0.9537 -0.0058
vn -0.7436 -0.6647 -0.073
vn -0.5365 -0.5901 -0.6033
vn -0.3958 -0.7212 -0.5686
vn -0.5448 -0.8378 -0.0349
vn -0.5448 -0.8378 -0.0349
vn -0.3958 -0.7212 -0.5686
vn -0.2185 -0.8092 -0.5454
vn -0.3006 -0.9537 -0.0058
vn -0.2963 0.8823 -0.3657
vn -0.5412 0.7638 -0.3518
vn -0.3822 0.4207 -0.8228
vn -0.2149 0.521 -0.8261
vn -0.0919 0.9258 -0.3667
vn -0.2963 0.8823 -0.3657
vn -0.2149 0.521 -0.8261
vn -0.0684 0.5667 -0.8211
vn -0 0.9317 -0.3632
vn -0.0919 0.9258 -0.3667
vn -0.0684 0.5667 -0.8211
vn -0 0.5878 -0.809
vn -0.2963 0.8823 -0.3657
vn -0.0919 0.9258 -0.3667
vn -0.0953 0.9776 -0.1874
vn -0.3038 0.9357 -0.1794
vn -0.0919 0.9258 -0.3667
vn -0 0.9317 -0.3632
vn -0 0.9821 -0.1883
vn -0.0953 0.9776 -0.1874
vn -0 -0.1974 -0.9803
vn -0.0001 -0.1974 -0.9803
vn -0 -0.1975 -0.9803
vn -0 -0.1975 -0.9803
vn -0 -0.1975 -0.9803
vn -0 -0.1975 -0.9803
vn -0.0001 -0.1974 -0.9803
vn -0 -0.1975 -0.9803
vn -0.0001 -0.1975 -0.9803
vn -0.0001 -0.1975 -0.9803
vn -0 -0.1975 -0.9803
vn -0 -0.1975 -0.9803
vn -0.0001 -0.1975 -0.9803
vn -0 -0.1975 -0.9803
vn -0 -0.1974 -0.9803
vn -0 -0.1974 -0.9803
vn -0 -0.1975 -0.9803
vn -0.0001 -0.1975 -0.9803
vn -0 -0.1975 -0.9803
vn -0 -0.1975 -0.9803
vn -0 -0.1975 -0.9803
vn -0 -0.1975 -0.9803
vn -0 -0.1975 -0.9803
vn -0 -0.1975 -0.9803
vn -0.0001 -0.1974 -0.9803
vn -0 -0.1975 -0.9803
vn -0.0001 -0.1974 -0.9803
vn -0.0001 -0.1974 -0.9803
vn -0 -0.1975 -0.9803
vn -0.0001 -0.1974 -0.9803
vn -0.0001 -0.1975 -0.9803
vn -0 -0.1975 -0.9803
vn -0.0001 -0.1975 -0.9803
vn -0.0001 -0.1975 -0.9803
vn -0 -0.1975 -0.9803
vn -0.0001 -0.1975 -0.9803
vn -0 -0.1974 -0.9803
vn -0 -0.1975 -0.9803
vn -0 -0.1974 -0.9803
vn 0.0002 -0.1978 -0.9802
vn -0 -0.1975 -0.9803
vn 0.0002 -0.1978 -0.9802
vn -0 -0.1974 -0.9803
vn -0 -0.1975 -0.9803
vn -0.7425 0.5881 -0.3208
vn -0.5412 0.7638 -0.3518
vn -0.5533 0.8181 -0.1568
vn -0.7579 0.6407 -0.1228
vn -0.5412 0.7638 -0.3518
vn -0.2963 0.8823 -0.3657
vn -0.3038 0.9357 -0.1794
vn -0.5533 0.8181 -0.1568
vn -0.5412 0.7638 -0.3518
vn -0.7425 0.5881 -0.3208
vn -0.5224 0.2971 -0.7993
vn -0.3822 0.4207 -0.8228
vn -0.7425 0.5881 -0.3208
vn -0.8614 0.4174 -0.2895
vn -0.6044 0.177 -0.7768
vn -0.5224 0.2971 -0.7993
vn -0.8614 0.4174 -0.2895
vn -0.7425 0.5881 -0.3208
vn -0.7579 0.6407 -0.1228
vn -0.8795 0.4675 -0.0896
vn -0.8614 0.4174 -0.2895
vn -0.9425 0.2169 -0.2542
vn -0.6532 0.0336 -0.7565
vn -0.6044 0.177 -0.7768
vn -0.9425 0.2169 -0.2542
vn -0.8614 0.4174 -0.2895
vn -0.8795 0.4675 -0.0896
vn -0.9632 0.264 -0.0506
vn -0.9425 0.2169 -0.2542
vn -0.9774 -0.0506 -0.2051
vn -0.6702 -0.1516 -0.7265
vn -0.6532 0.0336 -0.7565
vn -0.9774 -0.0506 -0.2051
vn -0.9425 0.2169 -0.2542
vn -0.9632 0.264 -0.0506
vn -1 -0.0079 0.0015
vn -0.9774 -0.0506 -0.2051
vn -0.9369 -0.3153 -0.1512
vn -0.6477 -0.3331 -0.6852
vn -0.6702 -0.1516 -0.7265
vn -0.9369 -0.3153 -0.1512
vn -0.9774 -0.0506 -0.2051
vn -1 -0.0079 0.0015
vn -0.9589 -0.2788 0.0535
vn -0.9369 -0.3153 -0.1512
vn -0.8525 -0.511 -0.11
vn -0.595 -0.4701 -0.6519
vn -0.6477 -0.3331 -0.6852
vn -0.8525 -0.511 -0.11
vn -0.9369 -0.3153 -0.1512
vn -0.9589 -0.2788 0.0535
vn -0.8724 -0.48 0.092
vn -0.8525 -0.511 -0.11
vn -0.7272 -0.6822 -0.0755
vn -0.507 -0.5884 -0.6298
vn -0.595 -0.4701 -0.6519
vn -0.7272 -0.6822 -0.0755
vn -0.8525 -0.511 -0.11
vn -0.8724 -0.48 0.092
vn -0.7451 -0.6551 0.1256
vn -0.7272 -0.6822 -0.0755
vn -0.5074 -0.8609 -0.0372
vn -0.3544 -0.7125 -0.6056
vn -0.507 -0.5884 -0.6298
vn -0.5074 -0.8609 -0.0372
vn -0.7272 -0.6822 -0.0755
vn -0.7451 -0.6551 0.1256
vn -0.5219 -0.8378 0.1606
vn -0.5074 -0.8609 -0.0372
vn -0.2725 -0.9621 -0.0074
vn -0.1966 -0.7995 -0.5676
vn -0.3544 -0.7125 -0.6056
vn -0.2725 -0.9621 -0.0074
vn -0.5074 -0.8609 -0.0372
vn -0.5219 -0.8378 0.1606
vn -0.2799 -0.9428 0.1808
vn -0.2725 -0.9621 -0.0074
vn -0.0899 -0.9959 0.004
vn -0.0661 -0.8299 -0.554
vn -0.1966 -0.7995 -0.5676
vn -0.0899 -0.9959 0.004
vn -0.2725 -0.9621 -0.0074
vn -0.2799 -0.9428 0.1808
vn -0.0937 -0.9778 0.1875
vn -0.0899 -0.9959 0.004
vn -0 -0.9999 0.0101
vn -0 -0.8454 -0.5341
vn -0.0661 -0.8299 -0.554
vn -0 -0.9999 0.0101
vn -0.0899 -0.9959 0.004
vn -0.0937 -0.9778 0.1875
vn -0 -0.9821 0.1883
vn 0.0899 -0.9959 0.004
vn 0.0661 -0.8299 -0.554
vn -0 -0.8454 -0.5341
vn -0 -0.9999 0.0101
vn -0 -0.9999 0.0101
vn -0 -0.9821 0.1883
vn 0.0937 -0.9778 0.1875
vn 0.0899 -0.9959 0.004
vn 0.2725 -0.9621 -0.0074
vn 0.1966 -0.7995 -0.5676
vn 0.0661 -0.8299 -0.554
vn 0.0899 -0.9959 0.004
vn 0.0899 -0.9959 0.004
vn 0.0937 -0.9778 0.1875
vn 0.2799 -0.9428 0.1808
vn 0.2725 -0.9621 -0.0074
vn -0 -0.1975 -0.9803
vn 0.0001 -0.1975 -0.9803
vn 0.0001 -0.1975 -0.9803
vn -0 -0.1975 -0.9803
vn -0 -0.1975 -0.9803
vn 0.0001 -0.1975 -0.9803
vn -0 -0.1975 -0.9803
vn -0 -0.1974 -0.9803
vn -0 -0.1975 -0.9803
vn 0.0001 -0.1974 -0.9803
vn -0 -0.1975 -0.9803
vn 0.0001 -0.1974 -0.9803
vn -0 -0.1975 -0.9803
vn -0 -0.1975 -0.9803
vn -0 -0.1974 -0.9803
vn -0 -0.1975 -0.9803
vn -0 -0.1974 -0.9803
vn 0.0001 -0.1975 -0.9803
vn -0 -0.1975 -0.9803
vn -0 -0.1975 -0.9803
vn -0 -0.1975 -0.9803
vn -0 -0.1975 -0.9803
vn -0 -0.1975 -0.9803
vn -0 -0.1975 -0.9803
vn -0 -0.1975 -0.9803
vn 0.0001 -0.1974 -0.9803
vn 0.0001 -0.1974 -0.9803
vn -0 -0.1975 -0.9803
vn 0.0001 -0.1974 -0.9803
vn 0.0001 -0.1974 -0.9803
vn -0 -0.1975 -0.9803
vn 0.0001 -0.1975 -0.9803
vn 0.0001 -0.1975 -0.9803
vn -0 -0.1975 -0.9803
vn 0.0001 -0.1975 -0.9803
vn 0.0001 -0.1975 -0.9803
vn -0 -0.1975 -0.9803
vn -0 -0.1974 -0.9803
vn -0 -0.1974 -0.9803
vn -0 -0.1975 -0.9803
vn -0 -0.1974 -0.9803
vn -0 -0.1974 -0.9803
vn -0 -0.1975 -0.9803
vn -0 -0.1974 -0.9803
vn 0.7425 0.5881 -0.3208
vn 0.7579 0.6407 -0.1228
vn 0.5533 0.8181 -0.1568
vn 0.5412 0.7638 -0.3518
vn 0.5412 0.7638 -0.3518
vn 0.5533 0.8181 -0.1568
vn 0.3038 0.9357 -0.1794
vn 0.2963 0.8823 -0.3657
vn 0.2963 0.8823 -0.3657
vn 0.2149 0.521 -0.8261
vn 0.3822 0.4207 -0.8228
vn 0.5412 0.7638 -0.3518
vn 0.5412 0.7638 -0.3518
vn 0.3822 0.4207 -0.8228
vn 0.5224 0.2971 -0.7993
vn 0.7425 0.5881 -0.3208
vn 0.0918 0.9257 -0.367
vn 0.0684 0.5667 -0.8211
vn 0.2149 0.521 -0.8261
vn 0.2963 0.8823 -0.3657
vn 0.2963 0.8823 -0.3657
vn 0.3038 0.9357 -0.1794
vn 0.0953 0.9776 -0.1874
vn 0.0918 0.9257 -0.367
vn -0 0.9317 -0.3632
vn -0 0.5878 -0.809
vn 0.0684 0.5667 -0.8211
vn 0.0918 0.9257 -0.367
vn 0.0918 0.9257 -0.367
vn 0.0953 0.9776 -0.1874
vn -0 0.9821 -0.1883
vn -0 0.9317 -0.3632
vn 0.7425 0.5881 -0.3208
vn 0.5224 0.2971 -0.7993
vn 0.6044 0.177 -0.7768
vn 0.8614 0.4174 -0.2895
vn 0.8614 0.4174 -0.2895
vn 0.8795 0.4675 -0.0896
vn 0.7579 0.6407 -0.1228
vn 0.7425 0.5881 -0.3208
vn 0.8614 0.4174 -0.2895
vn 0.6044 0.177 -0.7768
vn 0.6532 0.0336 -0.7565
vn 0.9425 0.2169 -0.2542
vn 0.9425 0.2169 -0.2542
vn 0.9632 0.264 -0.0506
vn 0.8795 0.4675 -0.0896
vn 0.8614 0.4174 -0.2895
vn 0.9425 0.2169 -0.2542
vn 0.6532 0.0336 -0.7565
vn 0.6703 -0.1517 -0.7264
vn 0.9775 -0.0504 -0.2048
vn 0.9775 -0.0504 -0.2048
vn 1 -0.0079 0.0015
vn 0.9632 0.264 -0.0506
vn 0.9425 0.2169 -0.2542
vn 0.9775 -0.0504 -0.2048
vn 0.6703 -0.1517 -0.7264
vn 0.6479 -0.3331 -0.6851
vn 0.9369 -0.3152 -0.1511
vn 0.9369 -0.3152 -0.1511
vn 0.9589 -0.2788 0.0535
vn 1 -0.0079 0.0015
vn 0.9775 -0.0504 -0.2048
vn 0.9369 -0.3152 -0.1511
vn 0.6479 -0.3331 -0.6851
vn 0.5951 -0.4701 -0.6518
vn 0.8526 -0.5109 -0.1099
vn 0.8526 -0.5109 -0.1099
vn 0.8724 -0.48 0.092
vn 0.9589 -0.2788 0.0535
vn 0.9369 -0.3152 -0.1511
vn 0.8526 -0.5109 -0.1099
vn 0.5951 -0.4701 -0.6518
vn 0.507 -0.5885 -0.6298
vn 0.7272 -0.6822 -0.0755
vn 0.7272 -0.6822 -0.0755
vn 0.7451 -0.6551 0.1256
vn 0.8724 -0.48 0.092
vn 0.8526 -0.5109 -0.1099
vn 0.7272 -0.6822 -0.0755
vn 0.507 -0.5885 -0.6298
vn 0.3544 -0.7125 -0.6056
vn 0.5074 -0.8609 -0.0372
vn 0.5074 -0.8609 -0.0372
vn 0.5219 -0.8378 0.1606
vn 0.7451 -0.6551 0.1256
vn 0.7272 -0.6822 -0.0755
vn 0.5074 -0.8609 -0.0372
vn 0.3544 -0.7125 -0.6056
vn 0.1966 -0.7995 -0.5676
vn 0.2725 -0.9621 -0.0074
vn 0.2725 -0.9621 -0.0074
vn 0.2799 -0.9428 0.1808
vn 0.5219 -0.8378 0.1606
vn 0.5074 -0.8609 -0.0372
vt 0.977327 0.587303
vt 0.977326 0.609239
vt 0.992414 0.609239
vt 0.992415 0.587303
vt 0.977327 0.631174
vt 0.992415 0.631174
vt 0.992414 0.609239
vt 0.977326 0.609239
vt 0.977327 0.63431
vt 0.992415 0.634309
vt 0.992415 0.631174
vt 0.977327 0.631174
vt 0.022771 0.562823
vt 0.022168 0.563098
vt 0.022876 0.566107
vt 0.023513 0.565969
vt 0.023513 0.565969
vt 0.022876 0.566107
vt 0.023896 0.587967
vt 0.024541 0.587953
vt 0.022168 0.563098
vt 0.021612 0.563422
vt 0.022285 0.566298
vt 0.022876 0.566107
vt 0.022876 0.566107
vt 0.022285 0.566298
vt 0.023296 0.587981
vt 0.023896 0.587967
vt 0.024471 0.609959
vt 0.024541 0.587953
vt 0.023896 0.587967
vt 0.023829 0.609847
vt 0.023829 0.609847
vt 0.023896 0.587967
vt 0.023296 0.587981
vt 0.023232 0.60968
vt 0.02196 0.58801
vt 0.021895 0.609282
vt 0.023232 0.60968
vt 0.023296 0.587981
vt 0.02196 0.58801
vt 0.023296 0.587981
vt 0.022285 0.566298
vt 0.020965 0.566751
vt 0.021367 0.588023
vt 0.02196 0.58801
vt 0.020965 0.566751
vt 0.020375 0.566941
vt 0.021367 0.588023
vt 0.0213 0.609115
vt 0.021895 0.609282
vt 0.02196 0.58801
vt 0.020375 0.566941
vt 0.020965 0.566751
vt 0.020348 0.564181
vt 0.019795 0.564503
vt 0.020965 0.566751
vt 0.022285 0.566298
vt 0.021612 0.563422
vt 0.020348 0.564181
vt 0.019795 0.564503
vt 0.020348 0.564181
vt 0.019552 0.562593
vt 0.019068 0.563034
vt 0.020681 0.561537
vt 0.019552 0.562593
vt 0.020348 0.564181
vt 0.021612 0.563422
vt 0.021166 0.561091
vt 0.020681 0.561537
vt 0.021612 0.563422
vt 0.022168 0.563098
vt 0.019429 0.559254
vt 0.019046 0.559808
vt 0.020681 0.561537
vt 0.021166 0.561091
vt 0.019552 0.562593
vt 0.020681 0.561537
vt 0.019046 0.559808
vt 0.018144 0.561129
vt 0.017354 0.557914
vt 0.017085 0.558537
vt 0.019046 0.559808
vt 0.019429 0.559254
vt 0.018144 0.561129
vt 0.019046 0.559808
vt 0.017085 0.558537
vt 0.016442 0.560035
vt 0.019068 0.563034
vt 0.019552 0.562593
vt 0.018144 0.561129
vt 0.017768 0.561671
vt 0.017768 0.561671
vt 0.018144 0.561129
vt 0.016442 0.560035
vt 0.016178 0.56064
vt 0.016178 0.56064
vt 0.016442 0.560035
vt 0.01449 0.559283
vt 0.014352 0.559932
vt 0.016442 0.560035
vt 0.017085 0.558537
vt 0.014828 0.557673
vt 0.01449 0.559283
vt 0.014352 0.559932
vt 0.01449 0.559283
vt 0.012508 0.559063
vt 0.012518 0.559736
vt 0.012489 0.557412
vt 0.012508 0.559063
vt 0.01449 0.559283
vt 0.014828 0.557673
vt 0.012481 0.556728
vt 0.012489 0.557412
vt 0.014828 0.557673
vt 0.014965 0.557009
vt 0.014965 0.557009
vt 0.014828 0.557673
vt 0.017085 0.558537
vt 0.017354 0.557914
vt 0.01002 0.557193
vt 0.010174 0.557852
vt 0.012489 0.557412
vt 0.012481 0.556728
vt 0.012508 0.559063
vt 0.012489 0.557412
vt 0.010174 0.557852
vt 0.010539 0.559427
vt 0.007695 0.558266
vt 0.007978 0.558881
vt 0.010174 0.557852
vt 0.01002 0.557193
vt 0.010539 0.559427
vt 0.010174 0.557852
vt 0.007978 0.558881
vt 0.008626 0.560313
vt 0.012518 0.559736
vt 0.012508 0.559063
vt 0.010539 0.559427
vt 0.010696 0.56007
vt 0.010696 0.56007
vt 0.010539 0.559427
vt 0.008626 0.560313
vt 0.008905 0.560907
vt 0.008905 0.560907
vt 0.008626 0.560313
vt 0.00699 0.561516
vt 0.007379 0.562041
vt 0.008626 0.560313
vt 0.007978 0.558881
vt 0.006107 0.560285
vt 0.00699 0.561516
vt 0.007379 0.562041
vt 0.00699 0.561516
vt 0.005613 0.563165
vt 0.006109 0.56358
vt 0.004528 0.562222
vt 0.005613 0.563165
vt 0.00699 0.561516
vt 0.006107 0.560285
vt 0.004029 0.561801
vt 0.004528 0.562222
vt 0.006107 0.560285
vt 0.00571 0.559744
vt 0.00571 0.559744
vt 0.006107 0.560285
vt 0.007978 0.558881
vt 0.007695 0.558266
vt 0.003091 0.564157
vt 0.003657 0.56445
vt 0.004528 0.562222
vt 0.004029 0.561801
vt 0.005613 0.563165
vt 0.004528 0.562222
vt 0.003657 0.56445
vt 0.004841 0.565089
vt 0.0026 0.566768
vt 0.003192 0.566937
vt 0.003657 0.56445
vt 0.003091 0.564157
vt 0.004841 0.565089
vt 0.003657 0.56445
vt 0.003192 0.566937
vt 0.004407 0.56731
vt 0.006109 0.56358
vt 0.005613 0.563165
vt 0.004841 0.565089
vt 0.005393 0.565374
vt 0.005393 0.565374
vt 0.004841 0.565089
vt 0.004407 0.56731
vt 0.004991 0.567477
vt 0.004991 0.567477
vt 0.004407 0.56731
vt 0.004403 0.588457
vt 0.004982 0.588444
vt 0.003198 0.588484
vt 0.004403 0.588457
vt 0.004407 0.56731
vt 0.003192 0.566937
vt 0.005935 0.609441
vt 0.004982 0.588444
vt 0.004403 0.588457
vt 0.005357 0.609632
vt 0.003198 0.588484
vt 0.004154 0.610053
vt 0.005357 0.609632
vt 0.004403 0.588457
vt 0.002602 0.588498
vt 0.003198 0.588484
vt 0.003192 0.566937
vt 0.0026 0.566768
vt 0.002602 0.588498
vt 0.003569 0.610245
vt 0.004154 0.610053
vt 0.003198 0.588484
vt 0.003569 0.610245
vt 0.004161 0.612831
vt 0.004714 0.612516
vt 0.004154 0.610053
vt 0.005865 0.611834
vt 0.005357 0.609632
vt 0.004154 0.610053
vt 0.004714 0.612516
vt 0.004161 0.612831
vt 0.0052 0.615137
vt 0.005676 0.614694
vt 0.004714 0.612516
vt 0.006704 0.61371
vt 0.005865 0.611834
vt 0.004714 0.612516
vt 0.005676 0.614694
vt 0.007173 0.613278
vt 0.006404 0.611531
vt 0.005865 0.611834
vt 0.006704 0.61371
vt 0.006404 0.611531
vt 0.005935 0.609441
vt 0.005357 0.609632
vt 0.005865 0.611834
vt 0.00851 0.614724
vt 0.007173 0.613278
vt 0.006704 0.61371
vt 0.008154 0.615266
vt 0.005676 0.614694
vt 0.007346 0.616535
vt 0.008154 0.615266
vt 0.006704 0.61371
vt 0.010089 0.615759
vt 0.00851 0.614724
vt 0.008154 0.615266
vt 0.009846 0.616365
vt 0.009846 0.616365
vt 0.008154 0.615266
vt 0.007346 0.616535
vt 0.009284 0.617824
vt 0.0052 0.615137
vt 0.00698 0.617095
vt 0.007346 0.616535
vt 0.005676 0.614694
vt 0.00698 0.617095
vt 0.009038 0.618452
vt 0.009284 0.617824
vt 0.007346 0.616535
vt 0.009038 0.618452
vt 0.011413 0.619383
vt 0.011527 0.618718
vt 0.009284 0.617824
vt 0.011796 0.617133
vt 0.009846 0.616365
vt 0.009284 0.617824
vt 0.011527 0.618718
vt 0.011413 0.619383
vt 0.013885 0.6197
vt 0.013854 0.61902
vt 0.011527 0.618718
vt 0.013776 0.617375
vt 0.011796 0.617133
vt 0.011527 0.618718
vt 0.013854 0.61902
vt 0.013746 0.616703
vt 0.011913 0.616485
vt 0.011796 0.617133
vt 0.013776 0.617375
vt 0.011913 0.616485
vt 0.010089 0.615759
vt 0.009846 0.616365
vt 0.011796 0.617133
vt 0.015567 0.616397
vt 0.013746 0.616703
vt 0.013776 0.617375
vt 0.015742 0.617038
vt 0.013854 0.61902
vt 0.016167 0.618626
vt 0.015742 0.617038
vt 0.013776 0.617375
vt 0.017359 0.615595
vt 0.015567 0.616397
vt 0.015742 0.617038
vt 0.017653 0.616186
vt 0.017653 0.616186
vt 0.015742 0.617038
vt 0.016167 0.618626
vt 0.018369 0.617648
vt 0.013885 0.6197
vt 0.01634 0.619279
vt 0.016167 0.618626
vt 0.013854 0.61902
vt 0.01634 0.619279
vt 0.018668 0.618254
vt 0.018369 0.617648
vt 0.016167 0.618626
vt 0.018668 0.618254
vt 0.020667 0.616822
vt 0.02026 0.616288
vt 0.018369 0.617648
vt 0.0193 0.615011
vt 0.017653 0.616186
vt 0.018369 0.617648
vt 0.02026 0.616288
vt 0.020667 0.616822
vt 0.022317 0.614918
vt 0.021815 0.614494
vt 0.02026 0.616288
vt 0.020643 0.613484
vt 0.0193 0.615011
vt 0.02026 0.616288
vt 0.021815 0.614494
vt 0.020138 0.613062
vt 0.018899 0.614487
vt 0.0193 0.615011
vt 0.020643 0.613484
vt 0.018899 0.614487
vt 0.017359 0.615595
vt 0.017653 0.616186
vt 0.0193 0.615011
vt 0.020818 0.611569
vt 0.020138 0.613062
vt 0.020643 0.613484
vt 0.021382 0.611869
vt 0.021815 0.614494
vt 0.022671 0.612578
vt 0.021382 0.611869
vt 0.020643 0.613484
vt 0.0213 0.609115
vt 0.020818 0.611569
vt 0.021382 0.611869
vt 0.021895 0.609282
vt 0.021895 0.609282
vt 0.021382 0.611869
vt 0.022671 0.612578
vt 0.023232 0.60968
vt 0.022317 0.614918
vt 0.023238 0.612879
vt 0.022671 0.612578
vt 0.021815 0.614494
vt 0.023238 0.612879
vt 0.023829 0.609847
vt 0.023232 0.60968
vt 0.022671 0.612578
vt 0.022853 0.615309
vt 0.02385 0.613131
vt 0.023238 0.612879
vt 0.022317 0.614918
vt 0.02385 0.613131
vt 0.024471 0.609959
vt 0.023829 0.609847
vt 0.023238 0.612879
vt 0.021095 0.617332
vt 0.022853 0.615309
vt 0.022317 0.614918
vt 0.020667 0.616822
vt 0.977327 0.579281
vt 0.977327 0.581865
vt 0.992415 0.581865
vt 0.992415 0.579281
vt 0.977327 0.584168
vt 0.992415 0.584168
vt 0.992415 0.581865
vt 0.977327 0.581865
vt 0.977327 0.584168
vt 0.977327 0.587303
vt 0.992415 0.587303
vt 0.992415 0.584168
vt 0.977327 0.576783
vt 0.977327 0.579281
vt 0.992415 0.579281
vt 0.992415 0.576783
vt 0.977327 0.57419
vt 0.977327 0.576783
vt 0.992415 0.576783
vt 0.992415 0.57419
vt 0.016518 0.619921
vt 0.018981 0.618844
vt 0.018668 0.618254
vt 0.01634 0.619279
vt 0.018981 0.618844
vt 0.021095 0.617332
vt 0.020667 0.616822
vt 0.018668 0.618254
vt 0.013906 0.620353
vt 0.016518 0.619921
vt 0.01634 0.619279
vt 0.013885 0.6197
vt 0.977327 0.57419
vt 0.992415 0.57419
vt 0.992415 0.571614
vt 0.977327 0.571614
vt 0.011275 0.620036
vt 0.013906 0.620353
vt 0.013885 0.6197
vt 0.011413 0.619383
vt 0.975872 0.158606
vt 0.975872 0.161185
vt 0.99096 0.161184
vt 0.99096 0.158605
vt 0.975871 0.156004
vt 0.975872 0.158606
vt 0.99096 0.158605
vt 0.99096 0.156004
vt 0.975871 0.153497
vt 0.975871 0.156004
vt 0.99096 0.156004
vt 0.99096 0.153496
vt 0.006577 0.617628
vt 0.00876 0.619061
vt 0.009038 0.618452
vt 0.00698 0.617095
vt 0.00876 0.619061
vt 0.011275 0.620036
vt 0.011413 0.619383
vt 0.009038 0.618452
vt 0.004673 0.615544
vt 0.006577 0.617628
vt 0.00698 0.617095
vt 0.0052 0.615137
vt 0.975871 0.153497
vt 0.99096 0.153496
vt 0.99096 0.150771
vt 0.975871 0.150771
vt 0.003551 0.613095
vt 0.004673 0.615544
vt 0.0052 0.615137
vt 0.004161 0.612831
vt 0.975871 0.148177
vt 0.975871 0.150771
vt 0.99096 0.150771
vt 0.99096 0.148176
vt 0.975871 0.145489
vt 0.975871 0.148177
vt 0.99096 0.148176
vt 0.99096 0.145489
vt 0.975871 0.145489
vt 0.99096 0.145489
vt 0.990959 0.123706
vt 0.97587 0.123706
vt 0.001953 0.588512
vt 0.002927 0.610384
vt 0.003569 0.610245
vt 0.002602 0.588498
vt 0.002927 0.610384
vt 0.003551 0.613095
vt 0.004161 0.612831
vt 0.003569 0.610245
vt 0.001953 0.588512
vt 0.002602 0.588498
vt 0.0026 0.566768
vt 0.001953 0.566657
vt 0.975871 0.101924
vt 0.97587 0.123706
vt 0.990959 0.123706
vt 0.99096 0.101924
vt 0.001953 0.566657
vt 0.0026 0.566768
vt 0.003091 0.564157
vt 0.002468 0.563919
vt 0.975871 0.101924
vt 0.99096 0.101924
vt 0.99096 0.099237
vt 0.975871 0.099236
vt 0.975871 0.099236
vt 0.99096 0.099237
vt 0.99096 0.096642
vt 0.975871 0.096642
vt 0.975871 0.093916
vt 0.975871 0.096642
vt 0.99096 0.096642
vt 0.99096 0.093917
vt 0.002468 0.563919
vt 0.003091 0.564157
vt 0.004029 0.561801
vt 0.003482 0.561419
vt 0.003482 0.561419
vt 0.004029 0.561801
vt 0.00571 0.559744
vt 0.005277 0.559233
vt 0.005277 0.559233
vt 0.00571 0.559744
vt 0.007695 0.558266
vt 0.00738 0.557672
vt 0.975871 0.093916
vt 0.99096 0.093917
vt 0.99096 0.091409
vt 0.975871 0.091408
vt 0.00738 0.557672
vt 0.007695 0.558266
vt 0.01002 0.557193
vt 0.009843 0.556546
vt 0.975871 0.091408
vt 0.99096 0.091409
vt 0.99096 0.088808
vt 0.975872 0.088807
vt 0.975872 0.088807
vt 0.99096 0.088808
vt 0.99096 0.086229
vt 0.975872 0.086228
vt 0.977327 0.644288
vt 0.977327 0.646864
vt 0.992415 0.646863
vt 0.992415 0.644287
vt 0.009843 0.556546
vt 0.01002 0.557193
vt 0.012481 0.556728
vt 0.012464 0.556072
vt 0.012464 0.556072
vt 0.012481 0.556728
vt 0.014965 0.557009
vt 0.015109 0.556355
vt 0.015109 0.556355
vt 0.014965 0.557009
vt 0.017354 0.557914
vt 0.017638 0.557306
vt 0.977327 0.644288
vt 0.992415 0.644287
vt 0.992415 0.641694
vt 0.977327 0.641694
vt 0.017638 0.557306
vt 0.017354 0.557914
vt 0.019429 0.559254
vt 0.019835 0.558722
vt 0.977327 0.641694
vt 0.992415 0.641694
vt 0.992415 0.639196
vt 0.977327 0.639196
vt 0.977327 0.639196
vt 0.992415 0.639196
vt 0.992415 0.636612
vt 0.977327 0.636612
vt 0.977327 0.63431
vt 0.977327 0.636612
vt 0.992415 0.636612
vt 0.992415 0.634309
vt 0.019835 0.558722
vt 0.019429 0.559254
vt 0.021166 0.561091
vt 0.021688 0.560677
vt 0.021688 0.560677
vt 0.021166 0.561091
vt 0.022168 0.563098
vt 0.022771 0.562823
vt 0.020227 0.611327
vt 0.019625 0.612688
vt 0.020138 0.613062
vt 0.020818 0.611569
vt 0.020664 0.609007
vt 0.020227 0.611327
vt 0.020818 0.611569
vt 0.0213 0.609115
vt 0.02072 0.588037
vt 0.020664 0.609007
vt 0.0213 0.609115
vt 0.021367 0.588023
vt 0.180548 0.043384
vt 0.180552 0.04583
vt 0.216875 0.045829
vt 0.216871 0.043383
vt 0.180552 0.04583
vt 0.180554 0.066924
vt 0.216876 0.066924
vt 0.216875 0.045829
vt 0.092932 0.476536
vt 0.093389 0.474132
vt 0.085921 0.474065
vt 0.093455 0.453037
vt 0.085954 0.453037
vt 0.085921 0.474065
vt 0.093389 0.474132
vt 0.085921 0.474065
vt 0.078453 0.473997
vt 0.078842 0.476045
vt 0.085954 0.453037
vt 0.078453 0.453037
vt 0.078453 0.473997
vt 0.085921 0.474065
vt 0.092277 0.477964
vt 0.092932 0.476536
vt 0.085921 0.474065
vt 0.078842 0.476045
vt 0.079531 0.477772
vt 0.085921 0.474065
vt 0.079531 0.477772
vt 0.080799 0.479225
vt 0.085921 0.474065
vt 0.080799 0.479225
vt 0.082331 0.480292
vt 0.085921 0.474065
vt 0.082331 0.480292
vt 0.084112 0.481075
vt 0.085921 0.474065
vt 0.084112 0.481075
vt 0.085907 0.48137
vt 0.085921 0.474065
vt 0.085907 0.48137
vt 0.087703 0.481107
vt 0.085921 0.474065
vt 0.087703 0.481107
vt 0.089487 0.480358
vt 0.085921 0.474065
vt 0.089487 0.480358
vt 0.091035 0.479314
vt 0.085921 0.474065
vt 0.091035 0.479314
vt 0.092277 0.477964
vt 0.085921 0.474065
vt 0.18053 0.039978
vt 0.180542 0.041812
vt 0.216864 0.041811
vt 0.216853 0.039977
vt 0.180542 0.041812
vt 0.180548 0.043384
vt 0.216871 0.043383
vt 0.216864 0.041811
vt 0.019625 0.612688
vt 0.018496 0.614003
vt 0.018899 0.614487
vt 0.020138 0.613062
vt 0.018496 0.614003
vt 0.017064 0.615037
vt 0.017359 0.615595
vt 0.018899 0.614487
vt 0.180516 0.038111
vt 0.18053 0.039978
vt 0.216853 0.039977
vt 0.216838 0.03811
vt 0.017064 0.615037
vt 0.015397 0.615789
vt 0.015567 0.616397
vt 0.017359 0.615595
vt 0.180499 0.036176
vt 0.180516 0.038111
vt 0.216838 0.03811
vt 0.216821 0.036174
vt 0.015397 0.615789
vt 0.01373 0.616092
vt 0.013746 0.616703
vt 0.015567 0.616397
vt 0.180482 0.034361
vt 0.180499 0.036176
vt 0.216821 0.036174
vt 0.216804 0.03436
vt 0.01373 0.616092
vt 0.012051 0.615874
vt 0.011913 0.616485
vt 0.013746 0.616703
vt 0.677059 0.654374
vt 0.678878 0.654357
vt 0.678879 0.618035
vt 0.67706 0.618051
vt 0.012051 0.615874
vt 0.010356 0.615193
vt 0.010089 0.615759
vt 0.011913 0.616485
vt 0.675114 0.65439
vt 0.677059 0.654374
vt 0.67706 0.618051
vt 0.675115 0.618068
vt 0.010356 0.615193
vt 0.008887 0.614229
vt 0.00851 0.614724
vt 0.010089 0.615759
vt 0.673247 0.654405
vt 0.675114 0.65439
vt 0.675115 0.618068
vt 0.673248 0.618082
vt 0.008887 0.614229
vt 0.00767 0.612902
vt 0.007173 0.613278
vt 0.00851 0.614724
vt 0.671318 0.654417
vt 0.673247 0.654405
vt 0.673248 0.618082
vt 0.671319 0.618094
vt 0.00767 0.612902
vt 0.006988 0.611289
vt 0.006404 0.611531
vt 0.007173 0.613278
vt 0.669459 0.654423
vt 0.671318 0.654417
vt 0.671319 0.618094
vt 0.66946 0.6181
vt 0.006988 0.611289
vt 0.006565 0.60931
vt 0.005935 0.609441
vt 0.006404 0.611531
vt 0.667374 0.654427
vt 0.669459 0.654423
vt 0.66946 0.6181
vt 0.667375 0.618104
vt 0.006565 0.60931
vt 0.005625 0.588429
vt 0.004982 0.588444
vt 0.005935 0.609441
vt 0.646415 0.654426
vt 0.667374 0.654427
vt 0.667375 0.618104
vt 0.646415 0.618103
vt 0.005622 0.567585
vt 0.004991 0.567477
vt 0.004982 0.588444
vt 0.005625 0.588429
vt 0.646415 0.654426
vt 0.646415 0.618103
vt 0.625456 0.618104
vt 0.625457 0.654427
vt 0.005987 0.565599
vt 0.005393 0.565374
vt 0.004991 0.567477
vt 0.005622 0.567585
vt 0.625457 0.654427
vt 0.625456 0.618104
vt 0.623371 0.6181
vt 0.623372 0.654423
vt 0.085921 0.43201
vt 0.078842 0.430029
vt 0.078453 0.432077
vt 0.085954 0.453037
vt 0.085921 0.43201
vt 0.078453 0.432077
vt 0.078453 0.453037
vt 0.092932 0.429539
vt 0.085921 0.43201
vt 0.093389 0.431942
vt 0.093455 0.453037
vt 0.093389 0.431942
vt 0.085921 0.43201
vt 0.085954 0.453037
vt 0.092277 0.42811
vt 0.085921 0.43201
vt 0.092932 0.429539
vt 0.078842 0.430029
vt 0.085921 0.43201
vt 0.079531 0.428302
vt 0.079531 0.428302
vt 0.085921 0.43201
vt 0.080799 0.426849
vt 0.080799 0.426849
vt 0.085921 0.43201
vt 0.082332 0.425782
vt 0.082332 0.425782
vt 0.085921 0.43201
vt 0.084113 0.424999
vt 0.084113 0.424999
vt 0.085921 0.43201
vt 0.085907 0.424704
vt 0.085907 0.424704
vt 0.085921 0.43201
vt 0.087703 0.424967
vt 0.087703 0.424967
vt 0.085921 0.43201
vt 0.089488 0.425716
vt 0.089488 0.425716
vt 0.085921 0.43201
vt 0.091035 0.42676
vt 0.091035 0.42676
vt 0.085921 0.43201
vt 0.092277 0.42811
vt 0.18053 0.09387
vt 0.216853 0.093871
vt 0.216864 0.092037
vt 0.180542 0.092036
vt 0.180542 0.092036
vt 0.216864 0.092037
vt 0.216871 0.090466
vt 0.180548 0.090465
vt 0.01921 0.564769
vt 0.019795 0.564503
vt 0.019068 0.563034
vt 0.018574 0.563424
vt 0.018574 0.563424
vt 0.019068 0.563034
vt 0.017768 0.561671
vt 0.017389 0.562172
vt 0.019743 0.567076
vt 0.020375 0.566941
vt 0.019795 0.564503
vt 0.01921 0.564769
vt 0.180548 0.090465
vt 0.216871 0.090466
vt 0.216875 0.088019
vt 0.180553 0.088018
vt 0.02072 0.588037
vt 0.021367 0.588023
vt 0.020375 0.566941
vt 0.019743 0.567076
vt 0.180553 0.088018
vt 0.216875 0.088019
vt 0.216876 0.066924
vt 0.180554 0.066924
vt 0.017389 0.562172
vt 0.017768 0.561671
vt 0.016178 0.56064
vt 0.01591 0.56121
vt 0.180516 0.095737
vt 0.216838 0.095738
vt 0.216853 0.093871
vt 0.18053 0.09387
vt 0.01591 0.56121
vt 0.016178 0.56064
vt 0.014352 0.559932
vt 0.014218 0.560545
vt 0.180499 0.097673
vt 0.216821 0.097674
vt 0.216838 0.095738
vt 0.180516 0.095737
vt 0.014218 0.560545
vt 0.014352 0.559932
vt 0.012518 0.559736
vt 0.01254 0.560347
vt 0.180482 0.099487
vt 0.216804 0.099488
vt 0.216821 0.097674
vt 0.180499 0.097673
vt 0.01254 0.560347
vt 0.012518 0.559736
vt 0.010696 0.56007
vt 0.010873 0.560675
vt 0.615772 0.654374
vt 0.61577 0.618051
vt 0.613952 0.618035
vt 0.613953 0.654357
vt 0.010873 0.560675
vt 0.010696 0.56007
vt 0.008905 0.560907
vt 0.009206 0.56146
vt 0.617717 0.65439
vt 0.617716 0.618068
vt 0.61577 0.618051
vt 0.615772 0.654374
vt 0.009206 0.56146
vt 0.008905 0.560907
vt 0.007379 0.562041
vt 0.007788 0.562518
vt 0.619584 0.654405
vt 0.619583 0.618082
vt 0.617716 0.618068
vt 0.617717 0.65439
vt 0.007788 0.562518
vt 0.007379 0.562041
vt 0.006109 0.56358
vt 0.006634 0.563939
vt 0.621513 0.654416
vt 0.621511 0.618094
vt 0.619583 0.618082
vt 0.619584 0.654405
vt 0.006634 0.563939
vt 0.006109 0.56358
vt 0.005393 0.565374
vt 0.005987 0.565599
vt 0.623372 0.654423
vt 0.623371 0.6181
vt 0.621511 0.618094
vt 0.621513 0.654416
s off
f 1/1/1 2/2/2 3/3/3
f 1/1/1 3/3/3 4/4/4
f 5/5/5 6/6/6 7/7/7
f 5/5/5 7/7/7 8/8/8
f 9/9/9 10/10/10 11/11/11
f 9/9/9 11/11/11 12/12/12
f 13/13/13 14/14/14 15/15/15
f 13/13/13 15/15/15 16/16/16
f 17/17/17 18/18/18 19/19/19
f 17/17/17 19/19/19 20/20/20
f 21/21/21 22/22/22 23/23/23
f 21/21/21 23/23/23 24/24/24
f 25/25/25 26/26/26 27/27/27
f 25/25/25 27/27/27 28/28/28
f 29/29/29 30/30/30 31/31/31
f 29/29/29 31/31/31 32/32/32
f 33/33/33 34/34/34 35/35/35
f 33/33/33 35/35/35 36/36/36
f 37/37/37 38/38/38 39/39/39
f 37/37/37 39/39/39 40/40/40
f 41/41/41 42/42/42 43/43/43
f 41/41/41 43/43/43 44/44/44
f 45/45/45 46/46/46 47/47/47
f 45/45/45 47/47/47 48/48/48
f 49/49/49 50/50/50 51/51/51
f 49/49/49 51/51/51 52/52/52
f 53/53/53 54/54/54 55/55/55
f 53/53/53 55/55/55 56/56/56
f 57/57/57 58/58/58 59/59/59
f 57/57/57 59/59/59 60/60/60
f 61/61/61 62/62/62 63/63/63
f 61/61/61 63/63/63 64/64/64
f 65/65/65 66/66/66 67/67/67
f 65/65/65 67/67/67 68/68/68
f 69/69/69 70/70/70 71/71/71
f 69/69/69 71/71/71 72/72/72
f 73/73/73 74/74/74 75/75/75
f 73/73/73 75/75/75 76/76/76
f 77/77/77 78/78/78 79/79/79
f 77/77/77 79/79/79 80/80/80
f 81/81/81 82/82/82 83/83/83
f 81/81/81 83/83/83 84/84/84
f 85/85/85 86/86/86 87/87/87
f 85/85/85 87/87/87 88/88/88
f 89/89/89 90/90/90 91/91/91
f 89/89/89 91/91/91 92/92/92
f 93/93/93 94/94/94 95/95/95
f 93/93/93 95/95/95 96/96/96
f 97/97/97 98/98/98 99/99/99
f 97/97/97 99/99/99 100/100/100
f 101/101/101 102/102/102 103/103/103
f 101/101/101 103/103/103 104/104/104
f 105/105/105 106/106/106 107/107/107
f 105/105/105 107/107/107 108/108/108
f 109/109/109 110/110/110 111/111/111
f 109/109/109 111/111/111 112/112/112
f 113/113/113 114/114/114 115/115/115
f 113/113/113 115/115/115 116/116/116
f 117/117/117 118/118/118 119/119/119
f 117/117/117 119/119/119 120/120/120
f 121/121/121 122/122/122 123/123/123
f 121/121/121 123/123/123 124/124/124
f 125/125/125 126/126/126 127/127/127
f 125/125/125 127/127/127 128/128/128
f 129/129/129 130/130/130 131/131/131
f 129/129/129 131/131/131 132/132/132
f 133/133/133 134/134/134 135/135/135
f 133/133/133 135/135/135 136/136/136
f 137/137/137 138/138/138 139/139/139
f 137/137/137 139/139/139 140/140/140
f 141/141/141 142/142/142 143/143/143
f 141/141/141 143/143/143 144/144/144
f 145/145/145 146/146/146 147/147/147
f 145/145/145 147/147/147 148/148/148
f 149/149/149 150/150/150 151/151/151
f 149/149/149 151/151/151 152/152/152
f 153/153/153 154/154/154 155/155/155
f 153/153/153 155/155/155 156/156/156
f 157/157/157 158/158/158 159/159/159
f 157/157/157 159/159/159 160/160/160
f 161/161/161 162/162/162 163/163/163
f 161/161/161 163/163/163 164/164/164
f 165/165/165 166/166/166 167/167/167
f 165/165/165 167/167/167 168/168/168
f 169/169/169 170/170/170 171/171/171
f 169/169/169 171/171/171 172/172/172
f 173/173/173 174/174/174 175/175/175
f 173/173/173 175/175/175 176/176/176
f 177/177/177 178/178/178 179/179/179
f 177/177/177 179/179/179 180/180/180
f 181/181/181 182/182/182 183/183/183
f 181/181/181 183/183/183 184/184/184
f 185/185/185 186/186/186 187/187/187
f 185/185/185 187/187/187 188/188/188
f 189/189/189 190/190/190 191/191/191
f 189/189/189 191/191/191 192/192/192
f 193/193/193 194/194/194 195/195/195
f 193/193/193 195/195/195 196/196/196
f 197/197/197 198/198/198 199/199/199
f 197/197/197 199/199/199 200/200/200
f 201/201/201 202/202/202 203/203/203
f 201/201/201 203/203/203 204/204/204
f 205/205/205 206/206/206 207/207/207
f 205/205/205 207/207/207 208/208/208
f 209/209/209 210/210/210 211/211/211
f 209/209/209 211/211/211 212/212/212
f 213/213/213 214/214/214 215/215/215
f 213/213/213 215/215/215 216/216/216
f 217/217/217 218/218/218 219/219/219
f 217/217/217 219/219/219 220/220/220
f 221/221/221 222/222/222 223/223/223
f 221/221/221 223/223/223 224/224/224
f 225/225/225 226/226/226 227/227/227
f 225/225/225 227/227/227 228/228/228
f 229/229/229 230/230/230 231/231/231
f 229/229/229 231/231/231 232/232/232
f 233/233/233 234/234/234 235/235/235
f 233/233/233 235/235/235 236/236/236
f 237/237/237 238/238/238 239/239/239
f 237/237/237 239/239/239 240/240/240
f 241/241/241 242/242/242 243/243/243
f 241/241/241 243/243/243 244/244/244
f 245/245/245 246/246/246 247/247/247
f 245/245/245 247/247/247 248/248/248
f 249/249/249 250/250/250 251/251/251
f 249/249/249 251/251/251 252/252/252
f 253/253/253 254/254/254 255/255/255
f 253/253/253 255/255/255 256/256/256
f 257/257/257 258/258/258 259/259/259
f 257/257/257 259/259/259 260/260/260
f 261/261/261 262/262/262 263/263/263
f 261/261/261 263/263/263 264/264/264
f 265/265/265 266/266/266 267/267/267
f 265/265/265 267/267/267 268/268/268
f 269/269/269 270/270/270 271/271/271
f 269/269/269 271/271/271 272/272/272
f 273/273/273 274/274/274 275/275/275
f 273/273/273 275/275/275 276/276/276
f 277/277/277 278/278/278 279/279/279
f 277/277/277 279/279/279 280/280/280
f 281/281/281 282/282/282 283/283/283
f 281/281/281 283/283/283 284/284/284
f 285/285/285 286/286/286 287/287/287
f 285/285/285 287/287/287 288/288/288
f 289/289/289 290/290/290 291/291/291
f 289/289/289 291/291/291 292/292/292
f 293/293/293 294/294/294 295/295/295
f 293/293/293 295/295/295 296/296/296
f 297/297/297 298/298/298 299/299/299
f 297/297/297 299/299/299 300/300/300
f 301/301/301 302/302/302 303/303/303
f 301/301/301 303/303/303 304/304/304
f 305/305/305 306/306/306 307/307/307
f 305/305/305 307/307/307 308/308/308
f 309/309/309 310/310/310 311/311/311
f 309/309/309 311/311/311 312/312/312
f 313/313/313 314/314/314 315/315/315
f 313/313/313 315/315/315 316/316/316
f 317/317/317 318/318/318 319/319/319
f 317/317/317 319/319/319 320/320/320
f 321/321/321 322/322/322 323/323/323
f 321/321/321 323/323/323 324/324/324
f 325/325/325 326/326/326 327/327/327
f 325/325/325 327/327/327 328/328/328
f 329/329/329 330/330/330 331/331/331
f 329/329/329 331/331/331 332/332/332
f 333/333/333 334/334/334 335/335/335
f 333/333/333 335/335/335 336/336/336
f 337/337/337 338/338/338 339/339/339
f 337/337/337 339/339/339 340/340/340
f 341/341/341 342/342/342 343/343/343
f 341/341/341 343/343/343 344/344/344
f 345/345/345 346/346/346 347/347/347
f 345/345/345 347/347/347 348/348/348
f 349/349/349 350/350/350 351/351/351
f 349/349/349 351/351/351 352/352/352
f 353/353/353 354/354/354 355/355/355
f 353/353/353 355/355/355 356/356/356
f 357/357/357 358/358/358 359/359/359
f 357/357/357 359/359/359 360/360/360
f 361/361/361 362/362/362 363/363/363
f 361/361/361 363/363/363 364/364/364
f 365/365/365 366/366/366 367/367/367
f 365/365/365 367/367/367 368/368/368
f 369/369/369 370/370/370 371/371/371
f 369/369/369 371/371/371 372/372/372
f 373/373/373 374/374/374 375/375/375
f 373/373/373 375/375/375 376/376/376
f 377/377/377 378/378/378 379/379/379
f 377/377/377 379/379/379 380/380/380
f 381/381/381 382/382/382 383/383/383
f 381/381/381 383/383/383 384/384/384
f 385/385/385 386/386/386 387/387/387
f 385/385/385 387/387/387 388/388/388
f 389/389/389 390/390/390 391/391/391
f 389/389/389 391/391/391 392/392/392
f 393/393/393 394/394/394 395/395/395
f 393/393/393 395/395/395 396/396/396
f 397/397/397 398/398/398 399/399/399
f 397/397/397 399/399/399 400/400/400
f 401/401/401 402/402/402 403/403/403
f 401/401/401 403/403/403 404/404/404
f 405/405/405 406/406/406 407/407/407
f 405/405/405 407/407/407 408/408/408
f 409/409/409 410/410/410 411/411/411
f 409/409/409 411/411/411 412/412/412
f 413/413/413 414/414/414 415/415/415
f 413/413/413 415/415/415 416/416/416
f 417/417/417 418/418/418 419/419/419
f 417/417/417 419/419/419 420/420/420
f 421/421/421 422/422/422 423/423/423
f 421/421/421 423/423/423 424/424/424
f 425/425/425 426/426/426 427/427/427
f 425/425/425 427/427/427 428/428/428
f 429/429/429 430/430/430 431/431/431
f 429/429/429 431/431/431 432/432/432
f 433/433/433 434/434/434 435/435/435
f 433/433/433 435/435/435 436/436/436
f 437/437/437 438/438/438 439/439/439
f 437/437/437 439/439/439 440/440/440
f 441/441/441 442/442/442 443/443/443
f 441/441/441 443/443/443 444/444/444
f 445/445/445 446/446/446 447/447/447
f 445/445/445 447/447/447 448/448/448
f 449/449/449 450/450/450 451/451/451
f 449/449/449 451/451/451 452/452/452
f 453/453/453 454/454/454 455/455/455
f 453/453/453 455/455/455 456/456/456
f 457/457/457 458/458/458 459/459/459
f 457/457/457 459/459/459 460/460/460
f 461/461/461 462/462/462 463/463/463
f 461/461/461 463/463/463 464/464/464
f 465/465/465 466/466/466 467/467/467
f 465/465/465 467/467/467 468/468/468
f 469/469/469 470/470/470 471/471/471
f 469/469/469 471/471/471 472/472/472
f 473/473/473 474/474/474 475/475/475
f 473/473/473 475/475/475 476/476/476
f 477/477/477 478/478/478 479/479/479
f 477/477/477 479/479/479 480/480/480
f 481/481/481 482/482/482 483/483/483
f 481/481/481 483/483/483 484/484/484
f 485/485/485 486/486/486 487/487/487
f 485/485/485 487/487/487 488/488/488
f 489/489/489 490/490/490 491/491/491
f 489/489/489 491/491/491 492/492/492
f 493/493/493 494/494/494 495/495/495
f 493/493/493 495/495/495 496/496/496
f 497/497/497 498/498/498 499/499/499
f 497/497/497 499/499/499 500/500/500
f 501/501/501 502/502/502 503/503/503
f 501/501/501 503/503/503 504/504/504
f 505/505/505 506/506/506 507/507/507
f 505/505/505 507/507/507 508/508/508
f 509/509/509 510/510/510 511/511/511
f 509/509/509 511/511/511 512/512/512
f 513/513/513 514/514/514 515/515/515
f 513/513/513 515/515/515 516/516/516
f 517/517/517 518/518/518 519/519/519
f 517/517/517 519/519/519 520/520/520
f 521/521/521 522/522/522 523/523/523
f 521/521/521 523/523/523 524/524/524
f 525/525/525 526/526/526 527/527/527
f 525/525/525 527/527/527 528/528/528
f 529/529/529 530/530/530 531/531/531
f 529/529/529 531/531/531 532/532/532
f 533/533/533 534/534/534 535/535/535
f 533/533/533 535/535/535 536/536/536
f 537/537/537 538/538/538 539/539/539
f 537/537/537 539/539/539 540/540/540
f 541/541/541 542/542/542 543/543/543
f 541/541/541 543/543/543 544/544/544
f 545/545/545 546/546/546 547/547/547
f 545/545/545 547/547/547 548/548/548
f 549/549/549 550/550/550 551/551/551
f 549/549/549 551/551/551 552/552/552
f 553/553/553 554/554/554 555/555/555
f 553/553/553 555/555/555 556/556/556
f 557/557/557 558/558/558 559/559/559
f 557/557/557 559/559/559 560/560/560
f 561/561/561 562/562/562 563/563/563
f 561/561/561 563/563/563 564/564/564
f 565/565/565 566/566/566 567/567/567
f 565/565/565 567/567/567 568/568/568
f 569/569/569 570/570/570 571/571/571
f 569/569/569 571/571/571 572/572/572
f 573/573/573 574/574/574 575/575/575
f 573/573/573 575/575/575 576/576/576
f 577/577/577 578/578/578 579/579/579
f 577/577/577 579/579/579 580/580/580
f 581/581/581 582/582/582 583/583/583
f 584/584/584 585/585/585 586/586/586
f 584/584/584 586/586/586 587/587/587
f 588/588/588 589/589/589 590/590/590
f 591/591/591 592/592/592 593/593/593
f 591/591/591 593/593/593 594/594/594
f 595/595/595 596/596/596 597/597/597
f 598/598/598 599/599/599 600/600/600
f 601/601/601 602/602/602 603/603/603
f 604/604/604 605/605/605 606/606/606
f 607/607/607 608/608/608 609/609/609
f 610/610/610 611/611/611 612/612/612
f 613/613/613 614/614/614 615/615/615
f 616/616/616 617/617/617 618/618/618
f 619/619/619 620/620/620 621/621/621
f 622/622/622 623/623/623 624/624/624
f 625/625/625 626/626/626 627/627/627
f 625/625/625 627/627/627 628/628/628
f 629/629/629 630/630/630 631/631/631
f 629/629/629 631/631/631 632/632/632
f 633/633/633 634/634/634 635/635/635
f 633/633/633 635/635/635 636/636/636
f 637/637/637 638/638/638 639/639/639
f 637/637/637 639/639/639 640/640/640
f 641/641/641 642/642/642 643/643/643
f 641/641/641 643/643/643 644/644/644
f 645/645/645 646/646/646 647/647/647
f 645/645/645 647/647/647 648/648/648
f 649/649/649 650/650/650 651/651/651
f 649/649/649 651/651/651 652/652/652
f 653/653/653 654/654/654 655/655/655
f 653/653/653 655/655/655 656/656/656
f 657/657/657 658/658/658 659/659/659
f 657/657/657 659/659/659 660/660/660
f 661/661/661 662/662/662 663/663/663
f 661/661/661 663/663/663 664/664/664
f 665/665/665 666/666/666 667/667/667
f 665/665/665 667/667/667 668/668/668
f 669/669/669 670/670/670 671/671/671
f 669/669/669 671/671/671 672/672/672
f 673/673/673 674/674/674 675/675/675
f 673/673/673 675/675/675 676/676/676
f 677/677/677 678/678/678 679/679/679
f 677/677/677 679/679/679 680/680/680
f 681/681/681 682/682/682 683/683/683
f 681/681/681 683/683/683 684/684/684
f 685/685/685 686/686/686 687/687/687
f 685/685/685 687/687/687 688/688/688
f 689/689/689 690/690/690 691/691/691
f 689/689/689 691/691/691 692/692/692
f 693/693/693 694/694/694 695/695/695
f 693/693/693 695/695/695 696/696/696
f 697/697/697 698/698/698 699/699/699
f 697/697/697 699/699/699 700/700/700
f 701/701/701 702/702/702 703/703/703
f 701/701/701 703/703/703 704/704/704
f 705/705/705 706/706/706 707/707/707
f 705/705/705 707/707/707 708/708/708
f 709/709/709 710/710/710 711/711/711
f 709/709/709 711/711/711 712/712/712
f 713/713/713 714/714/714 715/715/715
f 713/713/713 715/715/715 716/716/716
f 717/717/717 718/718/718 719/719/719
f 717/717/717 719/719/719 720/720/720
f 721/721/721 722/722/722 723/723/723
f 721/721/721 723/723/723 724/724/724
f 725/725/725 726/726/726 727/727/727
f 725/725/725 727/727/727 728/728/728
f 729/729/729 730/730/730 731/731/731
f 729/729/729 731/731/731 732/732/732
f 733/733/733 734/734/734 735/735/735
f 736/736/736 737/737/737 738/738/738
f 736/736/736 738/738/738 739/739/739
f 740/740/740 741/741/741 742/742/742
f 743/743/743 744/744/744 745/745/745
f 743/743/743 745/745/745 746/746/746
f 747/747/747 748/748/748 749/749/749
f 750/750/750 751/751/751 752/752/752
f 753/753/753 754/754/754 755/755/755
f 756/756/756 757/757/757 758/758/758
f 759/759/759 760/760/760 761/761/761
f 762/762/762 763/763/763 764/764/764
f 765/765/765 766/766/766 767/767/767
f 768/768/768 769/769/769 770/770/770
f 771/771/771 772/772/772 773/773/773
f 774/774/774 775/775/775 776/776/776
f 777/777/777 778/778/778 779/779/779
f 777/777/777 779/779/779 780/780/780
f 781/781/781 782/782/782 783/783/783
f 781/781/781 783/783/783 784/784/784
f 785/785/785 786/786/786 787/787/787
f 785/785/785 787/787/787 788/788/788
f 789/789/789 790/790/790 791/791/791
f 789/789/789 791/791/791 792/792/792
f 793/793/793 794/794/794 795/795/795
f 793/793/793 795/795/795 796/796/796
f 797/797/797 798/798/798 799/799/799
f 797/797/797 799/799/799 800/800/800
f 801/801/801 802/802/802 803/803/803
f 801/801/801 803/803/803 804/804/804
f 805/805/805 806/806/806 807/807/807
f 805/805/805 807/807/807 808/808/808
f 809/809/809 810/810/810 811/811/811
f 809/809/809 811/811/811 812/812/812
f 813/813/813 814/814/814 815/815/815
f 813/813/813 815/815/815 816/816/816
f 817/817/817 818/818/818 819/819/819
f 817/817/817 819/819/819 820/820/820
f 821/821/821 822/822/822 823/823/823
f 821/821/821 823/823/823 824/824/824
f 825/825/825 826/826/826 827/827/827
f 825/825/825 827/827/827 828/828/828
f 829/829/829 830/830/830 831/831/831
f 829/829/829 831/831/831 832/832/832
f 833/833/833 834/834/834 835/835/835
f 833/833/833 835/835/835 836/836/836
f 837/837/837 838/838/838 839/839/839
f 837/837/837 839/839/839 840/840/840
f 841/841/841 842/842/842 843/843/843
f 841/841/841 843/843/843 844/844/844
f 845/845/845 846/846/846 847/847/847
f 845/845/845 847/847/847 848/848/848
f 849/849/849 850/850/850 851/851/851
f 849/849/849 851/851/851 852/852/852
f 853/853/853 854/854/854 855/855/855
f 853/853/853 855/855/855 856/856/856
f 857/857/857 858/858/858 859/859/859
f 857/857/857 859/859/859 860/860/860
f 861/861/861 862/862/862 863/863/863
f 861/861/861 863/863/863 864/864/864
f 865/865/865 866/866/866 867/867/867
f 865/865/865 867/867/867 868/868/868
f 869/869/869 870/870/870 871/871/871
f 869/869/869 871/871/871 872/872/872
