v 0.326705 -0.074502 0.060085
v 0.33188 -0.074503 -0.110481
v -0.006834 -0.074503 -0.110742
v 0.299728 -0.074503 0.181494
v 0.326705 -0.074502 0.060085
v -0.006834 -0.074503 -0.110742
v 0.219299 -0.074503 0.237618
v 0.299728 -0.074503 0.181494
v -0.006834 -0.074503 -0.110742
v 0.077595 -0.074502 0.251479
v 0.219299 -0.074503 0.237618
v -0.006834 -0.074503 -0.110742
v -0.091267 -0.074503 0.251507
v 0.077595 -0.074502 0.251479
v -0.006834 -0.074503 -0.110742
v -0.232995 -0.074502 0.2377
v -0.091267 -0.074503 0.251507
v -0.006834 -0.074503 -0.110742
v -0.31344 -0.074502 0.181622
v -0.232995 -0.074502 0.2377
v -0.006834 -0.074503 -0.110742
v -0.340402 -0.074502 0.060233
v -0.31344 -0.074502 0.181622
v -0.006834 -0.074503 -0.110742
v -0.345547 -0.074503 -0.110346
v -0.340402 -0.074502 0.060233
v -0.006834 -0.074503 -0.110742
v -0.344212 -0.074503 -0.27752
v -0.345547 -0.074503 -0.110346
v -0.006834 -0.074503 -0.110742
v -0.317204 -0.074503 -0.391197
v -0.344212 -0.074503 -0.27752
v -0.006834 -0.074503 -0.110742
v -0.234281 -0.074503 -0.440078
v -0.317204 -0.074503 -0.391197
v -0.006834 -0.074503 -0.110742
v -0.091266 -0.074503 -0.450085
v -0.234281 -0.074503 -0.440078
v -0.006834 -0.074503 -0.110742
v 0.077598 -0.074503 -0.450093
v -0.091266 -0.074503 -0.450085
v -0.006834 -0.074503 -0.110742
v 0.220623 -0.074503 -0.440108
v 0.077598 -0.074503 -0.450093
v -0.006834 -0.074503 -0.110742
v 0.303557 -0.074502 -0.391257
v 0.220623 -0.074503 -0.440108
v -0.006834 -0.074503 -0.110742
v 0.330565 -0.074503 -0.27762
v 0.303557 -0.074502 -0.391257
v -0.006834 -0.074503 -0.110742
v 0.33188 -0.074503 -0.110481
v 0.330565 -0.074503 -0.27762
v -0.006834 -0.074503 -0.110742
vn 0.1808 0.983 0.0322
vn 0.1577 0.9875 0.0064
vn -0 1 -0
vn 0.1948 0.9751 0.1061
vn 0.1808 0.983 0.0322
vn -0 1 -0
vn 0.0718 0.9845 0.1597
vn 0.1948 0.9751 0.1061
vn -0 1 -0
vn 0.0067 0.9902 0.1398
vn 0.0718 0.9845 0.1597
vn -0 1 -0
vn -0.0148 0.989 0.1471
vn 0.0067 0.9902 0.1398
vn -0 1 -0
vn -0.073 0.9819 0.1747
vn -0.0148 0.989 0.1471
vn -0 1 -0
vn -0.167 0.9784 0.1216
vn -0.073 0.9819 0.1747
vn -0 1 -0
vn -0.1667 0.9857 0.0247
vn -0.167 0.9784 0.1216
vn -0 1 -0
vn -0.159 0.9873 -0.0039
vn -0.1667 0.9857 0.0247
vn -0 1 -0
vn -0.1884 0.9815 -0.035
vn -0.159 0.9873 -0.0039
vn -0 1 -0
vn -0.199 0.9711 -0.1315
vn -0.1884 0.9815 -0.035
vn -0 1 -0
vn -0.0695 0.9793 -0.1901
vn -0.1991 0.9711 -0.1315
vn -0 1 -0
vn -0.0056 0.986 -0.1668
vn -0.0695 0.9793 -0.1901
vn -0 1 -0
vn 0.0148 0.9845 -0.1747
vn -0.0056 0.986 -0.1668
vn -0 1 -0
vn 0.0692 0.9755 -0.2086
vn 0.0148 0.9845 -0.1747
vn -0 1 -0
vn 0.172 0.9734 -0.1516
vn 0.0691 0.9756 -0.2086
vn -0 1 -0
vn 0.1715 0.9848 -0.0263
vn 0.172 0.9734 -0.1516
vn -0 1 -0
vn 0.1577 0.9875 0.0064
vn 0.1715 0.9848 -0.0263
vn -0 1 -0
vt 0.542753 0.617462
vt 0.5 0.625
vt 0.5 0.5
vt 0.580348 0.595756
vt 0.542753 0.617462
vt 0.5 0.5
vt 0.608253 0.5625
vt 0.580348 0.595756
vt 0.5 0.5
vt 0.623101 0.521706
vt 0.608253 0.5625
vt 0.5 0.5
vt 0.623101 0.478294
vt 0.623101 0.521706
vt 0.5 0.5
vt 0.608253 0.4375
vt 0.623101 0.478294
vt 0.5 0.5
vt 0.580348 0.404244
vt 0.608253 0.4375
vt 0.5 0.5
vt 0.542753 0.382538
vt 0.580348 0.404244
vt 0.5 0.5
vt 0.5 0.375
vt 0.542753 0.382538
vt 0.5 0.5
vt 0.457247 0.382538
vt 0.5 0.375
vt 0.5 0.5
vt 0.419652 0.404244
vt 0.457247 0.382538
vt 0.5 0.5
vt 0.391747 0.4375
vt 0.419652 0.404244
vt 0.5 0.5
vt 0.376899 0.478294
vt 0.391747 0.4375
vt 0.5 0.5
vt 0.376899 0.521706
vt 0.376899 0.478294
vt 0.5 0.5
vt 0.391747 0.5625
vt 0.376899 0.521706
vt 0.5 0.5
vt 0.419651 0.595756
vt 0.391747 0.5625
vt 0.5 0.5
vt 0.457247 0.617462
vt 0.419651 0.595756
vt 0.5 0.5
vt 0.5 0.625
vt 0.457247 0.617462
vt 0.5 0.5
s off
f 1/1/1 2/2/2 3/3/3
f 4/4/4 5/5/5 6/6/6
f 7/7/7 8/8/8 9/9/9
f 10/10/10 11/11/11 12/12/12
f 13/13/13 14/14/14 15/15/15
f 16/16/16 17/17/17 18/18/18
f 19/19/19 20/20/20 21/21/21
f 22/22/22 23/23/23 24/24/24
f 25/25/25 26/26/26 27/27/27
f 28/28/28 29/29/29 30/30/30
f 31/31/31 32/32/32 33/33/33
f 34/34/34 35/35/35 36/36/36
f 37/37/37 38/38/38 39/39/39
f 40/40/40 41/41/41 42/42/42
f 43/43/43 44/44/44 45/45/45
f 46/46/46 47/47/47 48/48/48
f 49/49/49 50/50/50 51/51/51
f 52/52/52 53/53/53 54/54/54
