v -1.01712 -0.169181 -0.109027
v -0.863393 -0.13594 -0.116816
v -0.817066 -0.164802 -0.40937
v -0.817066 -0.164802 -0.40937
v -0.961482 -0.207386 -0.467872
v -1.01712 -0.169181 -0.109027
v -0.954244 -0.240798 -0.486025
v -1.01505 -0.233482 -0.091575
v -1.01712 -0.169181 -0.109027
v -1.01712 -0.169181 -0.109027
v -0.961482 -0.207386 -0.467872
v -0.954244 -0.240798 -0.486025
v -1.01505 -0.233482 -0.091575
v -0.847011 -0.196438 -0.096895
v -0.863393 -0.13594 -0.116816
v -0.863393 -0.13594 -0.116816
v -1.01712 -0.169181 -0.109027
v -1.01505 -0.233482 -0.091575
v -0.847011 -0.196438 -0.096895
v -0.796342 -0.200096 -0.41825
v -0.817066 -0.164802 -0.40937
v -0.817066 -0.164802 -0.40937
v -0.863393 -0.13594 -0.116816
v -0.847011 -0.196438 -0.096895
v -0.796342 -0.200096 -0.41825
v -0.954244 -0.240798 -0.486025
v -0.961482 -0.207386 -0.467872
v -0.961482 -0.207386 -0.467872
v -0.817066 -0.164802 -0.40937
v -0.796342 -0.200096 -0.41825
vn -0.2198 0.9665 -0.1323
vn -0.2158 0.9678 -0.1297
vn -0.2252 0.9648 -0.136
vn -0.2252 0.9648 -0.136
vn -0.2283 0.9638 -0.138
vn -0.2198 0.9665 -0.1323
vn -0.9859 -0.0726 -0.1506
vn -0.9859 -0.0726 -0.1506
vn -0.9859 -0.0726 -0.1506
vn -0.9809 -0.1378 -0.1374
vn -0.9809 -0.1378 -0.1374
vn -0.9809 -0.1378 -0.1374
vn -0.0368 0.3036 0.9521
vn -0.0368 0.3036 0.9521
vn -0.0368 0.3036 0.9521
vn -0.0077 0.2617 0.9651
vn -0.0077 0.2617 0.9651
vn -0.0077 0.2617 0.9651
vn 0.8689 0.4771 0.1316
vn 0.8689 0.4771 0.1316
vn 0.8689 0.4771 0.1316
vn 0.9474 0.2963 0.1208
vn 0.9474 0.2963 0.1208
vn 0.9474 0.2963 0.1208
vn 0.2284 0.5025 -0.8339
vn 0.2284 0.5025 -0.8339
vn 0.2284 0.5025 -0.8339
vn 0.2519 0.3726 -0.8931
vn 0.2519 0.3726 -0.8931
vn 0.2519 0.3726 -0.8931
vt 0.5 0.125
vt 0.5 0.1875
vt 0.393119 0.206346
vt 0.393119 0.206346
vt 0.371743 0.147615
vt 0.5 0.125
vt 0.371743 0.147615
vt 0.5 0.125
vt 0.5 0.125
vt 0.5 0.125
vt 0.371743 0.147615
vt 0.371743 0.147615
vt 0.5 0.125
vt 0.5 0.1875
vt 0.5 0.1875
vt 0.5 0.1875
vt 0.5 0.125
vt 0.5 0.125
vt 0.5 0.1875
vt 0.393119 0.206346
vt 0.393119 0.206346
vt 0.393119 0.206346
vt 0.5 0.1875
vt 0.5 0.1875
vt 0.393119 0.206346
vt 0.371743 0.147615
vt 0.371743 0.147615
vt 0.371743 0.147615
vt 0.393119 0.206346
vt 0.393119 0.206346
s off
f 1/1/1 2/2/2 3/3/3
f 4/4/4 5/5/5 6/6/6
f 7/7/7 8/8/8 9/9/9
f 10/10/10 11/11/11 12/12/12
f 13/13/13 14/14/14 15/15/15
f 16/16/16 17/17/17 18/18/18
f 19/19/19 20/20/20 21/21/21
f 22/22/22 23/23/23 24/24/24
f 25/25/25 26/26/26 27/27/27
f 28/28/28 29/29/29 30/30/30
