# Blender 5.2.0 LTS
# www.blender.org
mtllib button_03.mtl
o button_03
v 0.346800 2.750620 -0.101656
v 0.282266 2.753550 -0.106732
v 0.282266 2.769030 -0.133552
v 0.346800 2.767080 -0.130168
v 0.346800 2.767080 -0.130168
v 0.282266 2.769030 -0.133552
v 0.282267 2.784520 -0.160372
v 0.346800 2.783540 -0.158679
v 0.346800 2.783540 -0.158679
v 0.282267 2.784520 -0.160372
v 0.282266 2.800000 -0.187191
v 0.346800 2.800000 -0.187191
v 0.346800 2.800000 -0.187191
v 0.282266 2.800000 -0.187191
v 0.282267 2.815490 -0.214011
v 0.346800 2.816460 -0.215703
v 0.346800 2.816460 -0.215703
v 0.282267 2.815490 -0.214011
v 0.282266 2.830970 -0.240831
v 0.346800 2.832920 -0.244215
v 0.346800 2.832920 -0.244215
v 0.282266 2.830970 -0.240831
v 0.282266 2.846450 -0.267650
v 0.346800 2.849380 -0.272727
v 0.282266 2.753550 -0.106732
v 0.217733 2.762340 -0.121961
v 0.217733 2.774890 -0.143706
v 0.282266 2.769030 -0.133552
v 0.282266 2.769030 -0.133552
v 0.217733 2.774890 -0.143706
v 0.217733 2.787450 -0.165448
v 0.282267 2.784520 -0.160372
v 0.282267 2.784520 -0.160372
v 0.217733 2.787450 -0.165448
v 0.217733 2.800000 -0.187191
v 0.282266 2.800000 -0.187191
v 0.282266 2.800000 -0.187191
v 0.217733 2.800000 -0.187191
v 0.217733 2.812550 -0.208935
v 0.282267 2.815490 -0.214011
v 0.282267 2.815490 -0.214011
v 0.217733 2.812550 -0.208935
v 0.217733 2.825110 -0.230678
v 0.282266 2.830970 -0.240831
v 0.282266 2.830970 -0.240831
v 0.217733 2.825110 -0.230678
v 0.217733 2.837660 -0.252421
v 0.282266 2.846450 -0.267650
v 0.217733 2.762340 -0.121961
v 0.153200 2.776990 -0.147344
v 0.153200 2.784660 -0.160627
v 0.217733 2.774890 -0.143706
v 0.217733 2.774890 -0.143706
v 0.153200 2.784660 -0.160627
v 0.153200 2.792330 -0.173909
v 0.217733 2.787450 -0.165448
v 0.217733 2.787450 -0.165448
v 0.153200 2.792330 -0.173909
v 0.153200 2.800000 -0.187191
v 0.217733 2.800000 -0.187191
v 0.217733 2.800000 -0.187191
v 0.153200 2.800000 -0.187191
v 0.153200 2.807670 -0.200475
v 0.217733 2.812550 -0.208935
v 0.217733 2.812550 -0.208935
v 0.153200 2.807670 -0.200475
v 0.153200 2.815340 -0.213757
v 0.217733 2.825110 -0.230678
v 0.217733 2.825110 -0.230678
v 0.153200 2.815340 -0.213757
v 0.153200 2.823010 -0.227039
v 0.217733 2.837660 -0.252421
v 0.346800 2.830230 -0.055690
v 0.346800 2.846690 -0.084202
v 0.282266 2.848650 -0.087587
v 0.282267 2.833160 -0.060768
v 0.346800 2.846690 -0.084202
v 0.346800 2.863150 -0.112715
v 0.282267 2.864130 -0.114407
v 0.282266 2.848650 -0.087587
v 0.346800 2.863150 -0.112715
v 0.346800 2.879610 -0.141227
v 0.282266 2.879610 -0.141227
v 0.282267 2.864130 -0.114407
v 0.346800 2.879610 -0.141227
v 0.346800 2.896080 -0.169739
v 0.282267 2.895100 -0.168047
v 0.282266 2.879610 -0.141227
v 0.346800 2.896080 -0.169739
v 0.346800 2.912540 -0.198251
v 0.282266 2.910580 -0.194865
v 0.282267 2.895100 -0.168047
v 0.346800 2.912540 -0.198251
v 0.346800 2.929000 -0.226761
v 0.282266 2.926070 -0.221685
v 0.282266 2.910580 -0.194865
v 0.282267 2.833160 -0.060768
v 0.282266 2.848650 -0.087587
v 0.217733 2.854510 -0.097739
v 0.217733 2.841950 -0.075996
v 0.282266 2.848650 -0.087587
v 0.282267 2.864130 -0.114407
v 0.217733 2.867060 -0.119484
v 0.217733 2.854510 -0.097739
v 0.282267 2.864130 -0.114407
v 0.282266 2.879610 -0.141227
v 0.217733 2.879610 -0.141227
v 0.217733 2.867060 -0.119484
v 0.282266 2.879610 -0.141227
v 0.282267 2.895100 -0.168047
v 0.217733 2.892170 -0.162969
v 0.217733 2.879610 -0.141227
v 0.282267 2.895100 -0.168047
v 0.282266 2.910580 -0.194865
v 0.217733 2.904720 -0.184713
v 0.217733 2.892170 -0.162969
v 0.282266 2.910580 -0.194865
v 0.282266 2.926070 -0.221685
v 0.217733 2.917270 -0.206456
v 0.217733 2.904720 -0.184713
v 0.217733 2.841950 -0.075996
v 0.217733 2.854510 -0.097739
v 0.153200 2.864280 -0.114662
v 0.153200 2.856610 -0.101379
v 0.217733 2.854510 -0.097739
v 0.217733 2.867060 -0.119484
v 0.153200 2.871950 -0.127944
v 0.153200 2.864280 -0.114662
v 0.217733 2.867060 -0.119484
v 0.217733 2.879610 -0.141227
v 0.153200 2.879610 -0.141227
v 0.153200 2.871950 -0.127944
v 0.217733 2.879610 -0.141227
v 0.217733 2.892170 -0.162969
v 0.153200 2.887280 -0.154509
v 0.153200 2.879610 -0.141227
v 0.217733 2.892170 -0.162969
v 0.217733 2.904720 -0.184713
v 0.153200 2.894950 -0.167791
v 0.153200 2.887280 -0.154509
v 0.217733 2.904720 -0.184713
v 0.217733 2.917270 -0.206456
v 0.153200 2.902620 -0.181075
v 0.153200 2.894950 -0.167791
v 0.346800 2.750620 -0.101656
v 0.346800 2.767080 -0.130168
v 0.346800 2.793610 -0.114846
v 0.346800 2.777150 -0.086334
v 0.346800 2.767080 -0.130168
v 0.346800 2.783540 -0.158679
v 0.346800 2.810080 -0.143358
v 0.346800 2.793610 -0.114846
v 0.346800 2.783540 -0.158679
v 0.346800 2.800000 -0.187191
v 0.346800 2.826540 -0.171869
v 0.346800 2.810080 -0.143358
v 0.346800 2.800000 -0.187191
v 0.346800 2.816460 -0.215703
v 0.346800 2.843000 -0.200381
v 0.346800 2.826540 -0.171869
v 0.346800 2.816460 -0.215703
v 0.346800 2.832920 -0.244215
v 0.346800 2.859460 -0.228893
v 0.346800 2.843000 -0.200381
v 0.346800 2.832920 -0.244215
v 0.346800 2.849380 -0.272727
v 0.346800 2.875920 -0.257405
v 0.346800 2.859460 -0.228893
v 0.346800 2.777150 -0.086334
v 0.346800 2.793610 -0.114846
v 0.346800 2.820150 -0.099524
v 0.346800 2.803690 -0.071012
v 0.346800 2.793610 -0.114846
v 0.346800 2.810080 -0.143358
v 0.346800 2.836620 -0.128036
v 0.346800 2.820150 -0.099524
v 0.346800 2.810080 -0.143358
v 0.346800 2.826540 -0.171869
v 0.346800 2.853080 -0.156549
v 0.346800 2.836620 -0.128036
v 0.346800 2.826540 -0.171869
v 0.346800 2.843000 -0.200381
v 0.346800 2.869540 -0.185061
v 0.346800 2.853080 -0.156549
v 0.346800 2.843000 -0.200381
v 0.346800 2.859460 -0.228893
v 0.346800 2.886000 -0.213571
v 0.346800 2.869540 -0.185061
v 0.346800 2.859460 -0.228893
v 0.346800 2.875920 -0.257405
v 0.346800 2.902460 -0.242083
v 0.346800 2.886000 -0.213571
v 0.346800 2.803690 -0.071012
v 0.346800 2.820150 -0.099524
v 0.346800 2.846690 -0.084202
v 0.346800 2.830230 -0.055690
v 0.346800 2.820150 -0.099524
v 0.346800 2.836620 -0.128036
v 0.346800 2.863150 -0.112715
v 0.346800 2.846690 -0.084202
v 0.346800 2.836620 -0.128036
v 0.346800 2.853080 -0.156549
v 0.346800 2.879610 -0.141227
v 0.346800 2.863150 -0.112715
v 0.346800 2.853080 -0.156549
v 0.346800 2.869540 -0.185061
v 0.346800 2.896080 -0.169739
v 0.346800 2.879610 -0.141227
v 0.346800 2.869540 -0.185061
v 0.346800 2.886000 -0.213571
v 0.346800 2.912540 -0.198251
v 0.346800 2.896080 -0.169739
v 0.346800 2.886000 -0.213571
v 0.346800 2.902460 -0.242083
v 0.346800 2.929000 -0.226761
v 0.346800 2.912540 -0.198251
v 0.346800 2.849380 -0.272727
v 0.282266 2.846450 -0.267650
v 0.282266 2.872990 -0.252329
v 0.346800 2.875920 -0.257405
v 0.282266 2.846450 -0.267650
v 0.217733 2.837660 -0.252421
v 0.217733 2.864200 -0.237099
v 0.282266 2.872990 -0.252329
v 0.217733 2.837660 -0.252421
v 0.153200 2.823010 -0.227039
v 0.153200 2.849540 -0.211717
v 0.217733 2.864200 -0.237099
v 0.346800 2.875920 -0.257405
v 0.282266 2.872990 -0.252329
v 0.282266 2.899530 -0.237007
v 0.346800 2.902460 -0.242083
v 0.282266 2.872990 -0.252329
v 0.217733 2.864200 -0.237099
v 0.217733 2.890740 -0.221778
v 0.282266 2.899530 -0.237007
v 0.217733 2.864200 -0.237099
v 0.153200 2.849540 -0.211717
v 0.153200 2.876080 -0.196395
v 0.217733 2.890740 -0.221778
v 0.346800 2.902460 -0.242083
v 0.282266 2.899530 -0.237007
v 0.282266 2.926070 -0.221685
v 0.346800 2.929000 -0.226761
v 0.282266 2.899530 -0.237007
v 0.217733 2.890740 -0.221778
v 0.217733 2.917270 -0.206456
v 0.282266 2.926070 -0.221685
v 0.217733 2.890740 -0.221778
v 0.153200 2.876080 -0.196395
v 0.153200 2.902620 -0.181075
v 0.217733 2.917270 -0.206456
v 0.153200 2.823010 -0.227039
v 0.153200 2.815340 -0.213757
v 0.153200 2.841880 -0.198435
v 0.153200 2.849540 -0.211717
v 0.153200 2.815340 -0.213757
v 0.153200 2.807670 -0.200475
v 0.153200 2.834210 -0.185153
v 0.153200 2.841880 -0.198435
v 0.153200 2.807670 -0.200475
v 0.153200 2.800000 -0.187191
v 0.153200 2.826540 -0.171869
v 0.153200 2.834210 -0.185153
v 0.153200 2.800000 -0.187191
v 0.153200 2.792330 -0.173909
v 0.153200 2.818870 -0.158587
v 0.153200 2.826540 -0.171869
v 0.153200 2.792330 -0.173909
v 0.153200 2.784660 -0.160627
v 0.153200 2.811200 -0.145305
v 0.153200 2.818870 -0.158587
v 0.153200 2.784660 -0.160627
v 0.153200 2.776990 -0.147344
v 0.153200 2.803530 -0.132023
v 0.153200 2.811200 -0.145305
v 0.153200 2.849540 -0.211717
v 0.153200 2.841880 -0.198435
v 0.153200 2.868410 -0.183113
v 0.153200 2.876080 -0.196395
v 0.153200 2.841880 -0.198435
v 0.153200 2.834210 -0.185153
v 0.153200 2.860740 -0.169831
v 0.153200 2.868410 -0.183113
v 0.153200 2.834210 -0.185153
v 0.153200 2.826540 -0.171869
v 0.153200 2.853080 -0.156549
v 0.153200 2.860740 -0.169831
v 0.153200 2.826540 -0.171869
v 0.153200 2.818870 -0.158587
v 0.153200 2.845410 -0.143266
v 0.153200 2.853080 -0.156549
v 0.153200 2.818870 -0.158587
v 0.153200 2.811200 -0.145305
v 0.153200 2.837740 -0.129983
v 0.153200 2.845410 -0.143266
v 0.153200 2.811200 -0.145305
v 0.153200 2.803530 -0.132023
v 0.153200 2.830070 -0.116701
v 0.153200 2.837740 -0.129983
v 0.153200 2.876080 -0.196395
v 0.153200 2.868410 -0.183113
v 0.153200 2.894950 -0.167791
v 0.153200 2.902620 -0.181075
v 0.153200 2.868410 -0.183113
v 0.153200 2.860740 -0.169831
v 0.153200 2.887280 -0.154509
v 0.153200 2.894950 -0.167791
v 0.153200 2.860740 -0.169831
v 0.153200 2.853080 -0.156549
v 0.153200 2.879610 -0.141227
v 0.153200 2.887280 -0.154509
v 0.153200 2.853080 -0.156549
v 0.153200 2.845410 -0.143266
v 0.153200 2.871950 -0.127944
v 0.153200 2.879610 -0.141227
v 0.153200 2.845410 -0.143266
v 0.153200 2.837740 -0.129983
v 0.153200 2.864280 -0.114662
v 0.153200 2.871950 -0.127944
v 0.153200 2.837740 -0.129983
v 0.153200 2.830070 -0.116701
v 0.153200 2.856610 -0.101379
v 0.153200 2.864280 -0.114662
v 0.153200 2.776990 -0.147344
v 0.217733 2.762340 -0.121961
v 0.217733 2.788880 -0.106640
v 0.153200 2.803530 -0.132023
v 0.217733 2.762340 -0.121961
v 0.282266 2.753550 -0.106732
v 0.282267 2.780090 -0.091410
v 0.217733 2.788880 -0.106640
v 0.282266 2.753550 -0.106732
v 0.346800 2.750620 -0.101656
v 0.346800 2.777150 -0.086334
v 0.282267 2.780090 -0.091410
v 0.153200 2.803530 -0.132023
v 0.217733 2.788880 -0.106640
v 0.217734 2.815420 -0.091318
v 0.153200 2.830070 -0.116701
v 0.217733 2.788880 -0.106640
v 0.282267 2.780090 -0.091410
v 0.282266 2.806620 -0.076090
v 0.217734 2.815420 -0.091318
v 0.282267 2.780090 -0.091410
v 0.346800 2.777150 -0.086334
v 0.346800 2.803690 -0.071012
v 0.282266 2.806620 -0.076090
v 0.153200 2.830070 -0.116701
v 0.217734 2.815420 -0.091318
v 0.217733 2.841950 -0.075996
v 0.153200 2.856610 -0.101379
v 0.217734 2.815420 -0.091318
v 0.282266 2.806620 -0.076090
v 0.282267 2.833160 -0.060768
v 0.217733 2.841950 -0.075996
v 0.282266 2.806620 -0.076090
v 0.346800 2.803690 -0.071012
v 0.346800 2.830230 -0.055690
v 0.282267 2.833160 -0.060768
vn -0.0000 -0.8661 -0.4999
vn -0.0000 -0.8660 -0.5000
vn 0.0001 -0.8660 -0.5001
vn -0.0000 -0.8660 -0.5001
vn -0.0001 -0.8660 -0.5000
vn -0.0000 -0.8659 -0.5001
vn -0.0001 -0.8661 -0.4999
vn -0.0000 -0.8661 -0.5000
vn 0.0001 -0.8659 -0.5002
vn -0.0000 -0.8659 -0.5002
vn 0.0001 -0.8660 -0.5000
vn -0.0001 -0.8659 -0.5002
vn -0.0001 -0.8660 -0.5001
vn -0.0000 0.8660 0.5000
vn 0.0001 0.8660 0.5000
vn -0.0000 0.8660 0.5001
vn 0.0001 0.8661 0.4999
vn -0.0000 0.8661 0.5000
vn -0.0000 0.8661 0.4999
vn -0.0000 0.8659 0.5002
vn -0.0000 0.8659 0.5001
vn -0.0001 0.8661 0.5000
vn -0.0001 0.8660 0.5000
vn -0.0001 0.8661 0.4999
vn -0.0001 0.8660 0.5001
vn -0.0001 0.8659 0.5002
vn 0.0001 0.8661 0.4998
vn 0.0001 0.8660 0.5001
vn 0.0001 0.8662 0.4996
vn 1.0000 -0.0000 -0.0000
vn -0.0905 0.4979 -0.8625
vn -0.1774 0.4921 -0.8523
vn -0.0904 0.4979 -0.8625
vn -0.3393 0.4703 -0.8147
vn -0.4135 0.4554 -0.7885
vn -0.4135 0.4553 -0.7885
vn -0.4136 0.4552 -0.7885
vn -0.3393 0.4703 -0.8146
vn -0.4135 0.4552 -0.7885
vn -1.0000 -0.0000 -0.0000
vn -0.4135 -0.4552 0.7885
vn -0.3393 -0.4703 0.8147
vn -0.1774 -0.4921 0.8523
vn -0.0904 -0.4981 0.8624
vn -0.0905 -0.4980 0.8624
vn -0.0905 -0.4979 0.8625
vn -0.0905 -0.4980 0.8625
vn -0.4135 -0.4553 0.7885
vn -0.4136 -0.4552 0.7885
vt 1.000000 1.000000
vt 1.000000 0.666667
vt 0.833333 0.666667
vt 0.833333 1.000000
vt 0.666667 0.666667
vt 0.666667 1.000000
vt 0.500000 0.666667
vt 0.500000 1.000000
vt 0.333333 0.666667
vt 0.333333 1.000000
vt 0.166667 0.666667
vt 0.166667 1.000000
vt -0.000000 0.666667
vt -0.000000 1.000000
vt 1.000000 0.333333
vt 0.833333 0.333333
vt 0.666667 0.333333
vt 0.500000 0.333333
vt 0.333333 0.333333
vt 0.166667 0.333333
vt -0.000000 0.333333
vt 1.000000 0.000000
vt 0.833333 0.000000
vt 0.666667 0.000000
vt 0.500000 0.000000
vt 0.333333 0.000000
vt 0.166667 0.000000
vt -0.000000 0.000000
s 1
f 1/1/1 2/2/1 3/3/1
f 1/1/1 3/3/1 4/4/2
f 5/4/2 6/3/3 7/5/4
f 5/4/2 7/5/4 8/6/2
f 9/6/1 10/5/1 11/7/1
f 9/6/1 11/7/1 12/8/2
f 13/8/5 14/7/6 15/9/4
f 13/8/5 15/9/4 16/10/5
f 17/10/7 18/9/7 19/11/7
f 17/10/7 19/11/7 20/12/2
f 21/12/8 22/11/1 23/13/1
f 21/12/8 23/13/1 24/14/2
f 25/2/1 26/15/1 27/16/1
f 25/2/1 27/16/1 28/3/1
f 29/3/6 30/16/9 31/17/9
f 29/3/6 31/17/9 32/5/4
f 33/5/1 34/17/1 35/18/1
f 33/5/1 35/18/1 36/7/1
f 37/7/3 38/18/1 39/19/8
f 37/7/3 39/19/8 40/9/7
f 41/9/2 42/19/9 43/20/3
f 41/9/2 43/20/3 44/11/1
f 45/11/1 46/20/1 47/21/1
f 45/11/1 47/21/1 48/13/10
f 49/15/1 50/22/3 51/23/11
f 49/15/1 51/23/11 52/16/7
f 53/16/9 54/23/2 55/24/4
f 53/16/9 55/24/4 56/17/9
f 57/17/1 58/24/3 59/25/11
f 57/17/1 59/25/11 60/18/1
f 61/18/1 62/25/2 63/26/2
f 61/18/1 63/26/2 64/19/1
f 65/19/12 66/26/13 67/27/13
f 65/19/12 67/27/13 68/20/12
f 69/20/1 70/27/2 71/28/2
f 69/20/1 71/28/2 72/21/1
f 73/14/14 74/12/15 75/11/16
f 73/14/14 75/11/16 76/13/16
f 77/12/17 78/10/14 79/9/17
f 77/12/17 79/9/17 80/11/17
f 81/10/18 82/8/14 83/7/19
f 81/10/18 83/7/19 84/9/19
f 85/8/20 86/6/20 87/5/20
f 85/8/20 87/5/20 88/7/21
f 89/6/22 90/4/23 91/3/24
f 89/6/22 91/3/24 92/5/19
f 93/4/14 94/1/14 95/2/16
f 93/4/14 95/2/16 96/3/25
f 97/13/26 98/11/20 99/20/27
f 97/13/26 99/20/27 100/21/26
f 101/11/19 102/9/19 103/19/19
f 101/11/19 103/19/19 104/20/20
f 105/9/19 106/7/19 107/18/19
f 105/9/19 107/18/19 108/19/19
f 109/7/19 110/5/21 111/17/20
f 109/7/19 111/17/20 112/18/20
f 113/5/19 114/3/20 115/16/20
f 113/5/19 115/16/20 116/17/19
f 117/3/16 118/2/25 119/15/18
f 117/3/16 119/15/18 120/16/19
f 121/21/26 122/20/26 123/27/16
f 121/21/26 123/27/16 124/28/28
f 125/20/17 126/19/17 127/26/14
f 125/20/17 127/26/14 128/27/16
f 129/19/19 130/18/19 131/25/29
f 129/19/19 131/25/29 132/26/14
f 133/18/20 134/17/20 135/24/16
f 133/18/20 135/24/16 136/25/14
f 137/17/19 138/16/19 139/23/23
f 137/17/19 139/23/23 140/24/25
f 141/16/19 142/15/19 143/22/14
f 141/16/19 143/22/14 144/23/16
f 145/14/30 146/12/30 147/11/30
f 145/14/30 147/11/30 148/13/30
f 149/12/30 150/10/30 151/9/30
f 149/12/30 151/9/30 152/11/30
f 153/10/30 154/8/30 155/7/30
f 153/10/30 155/7/30 156/9/30
f 157/8/30 158/6/30 159/5/30
f 157/8/30 159/5/30 160/7/30
f 161/6/30 162/4/30 163/3/30
f 161/6/30 163/3/30 164/5/30
f 165/4/30 166/1/30 167/2/30
f 165/4/30 167/2/30 168/3/30
f 169/13/30 170/11/30 171/20/30
f 169/13/30 171/20/30 172/21/30
f 173/11/30 174/9/30 175/19/30
f 173/11/30 175/19/30 176/20/30
f 177/9/30 178/7/30 179/18/30
f 177/9/30 179/18/30 180/19/30
f 181/7/30 182/5/30 183/17/30
f 181/7/30 183/17/30 184/18/30
f 185/5/30 186/3/30 187/16/30
f 185/5/30 187/16/30 188/17/30
f 189/3/30 190/2/30 191/15/30
f 189/3/30 191/15/30 192/16/30
f 193/21/30 194/20/30 195/27/30
f 193/21/30 195/27/30 196/28/30
f 197/20/30 198/19/30 199/26/30
f 197/20/30 199/26/30 200/27/30
f 201/19/30 202/18/30 203/25/30
f 201/19/30 203/25/30 204/26/30
f 205/18/30 206/17/30 207/24/30
f 205/18/30 207/24/30 208/25/30
f 209/17/30 210/16/30 211/23/30
f 209/17/30 211/23/30 212/24/30
f 213/16/30 214/15/30 215/22/30
f 213/16/30 215/22/30 216/23/30
f 217/14/31 218/10/32 219/9/32
f 217/14/31 219/9/32 220/13/33
f 221/10/32 222/6/34 223/5/34
f 221/10/32 223/5/34 224/9/32
f 225/6/34 226/1/35 227/2/36
f 225/6/34 227/2/36 228/5/34
f 229/13/33 230/9/32 231/19/32
f 229/13/33 231/19/32 232/21/33
f 233/9/32 234/5/34 235/17/34
f 233/9/32 235/17/34 236/19/32
f 237/5/34 238/2/37 239/15/37
f 237/5/34 239/15/37 240/17/34
f 241/21/33 242/19/32 243/26/32
f 241/21/33 243/26/32 244/28/33
f 245/19/32 246/17/34 247/24/38
f 245/19/32 247/24/38 248/26/32
f 249/17/34 250/15/37 251/22/39
f 249/17/34 251/22/39 252/24/38
f 253/14/40 254/12/40 255/11/40
f 253/14/40 255/11/40 256/13/40
f 257/12/40 258/10/40 259/9/40
f 257/12/40 259/9/40 260/11/40
f 261/10/40 262/8/40 263/7/40
f 261/10/40 263/7/40 264/9/40
f 265/8/40 266/6/40 267/5/40
f 265/8/40 267/5/40 268/7/40
f 269/6/40 270/4/40 271/3/40
f 269/6/40 271/3/40 272/5/40
f 273/4/40 274/1/40 275/2/40
f 273/4/40 275/2/40 276/3/40
f 277/13/40 278/11/40 279/20/40
f 277/13/40 279/20/40 280/21/40
f 281/11/40 282/9/40 283/19/40
f 281/11/40 283/19/40 284/20/40
f 285/9/40 286/7/40 287/18/40
f 285/9/40 287/18/40 288/19/40
f 289/7/40 290/5/40 291/17/40
f 289/7/40 291/17/40 292/18/40
f 293/5/40 294/3/40 295/16/40
f 293/5/40 295/16/40 296/17/40
f 297/3/40 298/2/40 299/15/40
f 297/3/40 299/15/40 300/16/40
f 301/21/40 302/20/40 303/27/40
f 301/21/40 303/27/40 304/28/40
f 305/20/40 306/19/40 307/26/40
f 305/20/40 307/26/40 308/27/40
f 309/19/40 310/18/40 311/25/40
f 309/19/40 311/25/40 312/26/40
f 313/18/40 314/17/40 315/24/40
f 313/18/40 315/24/40 316/25/40
f 317/17/40 318/16/40 319/23/40
f 317/17/40 319/23/40 320/24/40
f 321/16/40 322/15/40 323/22/40
f 321/16/40 323/22/40 324/23/40
f 325/14/41 326/10/42 327/9/42
f 325/14/41 327/9/42 328/13/41
f 329/10/42 330/6/43 331/5/43
f 329/10/42 331/5/43 332/9/42
f 333/6/43 334/1/44 335/2/45
f 333/6/43 335/2/45 336/5/43
f 337/13/41 338/9/42 339/19/42
f 337/13/41 339/19/42 340/21/41
f 341/9/42 342/5/43 343/17/43
f 341/9/42 343/17/43 344/19/42
f 345/5/43 346/2/46 347/15/47
f 345/5/43 347/15/47 348/17/43
f 349/21/48 350/19/42 351/26/42
f 349/21/48 351/26/42 352/28/49
f 353/19/42 354/17/43 355/24/43
f 353/19/42 355/24/43 356/26/42
f 357/17/43 358/15/46 359/22/46
f 357/17/43 359/22/46 360/24/43
