v 0.645141 -0.121332 -0.344713
v 0.682193 -0.101659 -0.118541
v 0.835926 -0.134882 -0.110797
v 0.835926 -0.134882 -0.110797
v 0.789552 -0.163939 -0.403218
v 0.645141 -0.121332 -0.344713
v 0.782674 -0.200096 -0.418366
v 0.624772 -0.159394 -0.350586
v 0.645141 -0.121332 -0.344713
v 0.645141 -0.121332 -0.344713
v 0.789552 -0.163939 -0.403218
v 0.782674 -0.200096 -0.418366
v 0.624772 -0.159394 -0.350586
v 0.665307 -0.159394 -0.102401
v 0.682193 -0.101659 -0.118541
v 0.682193 -0.101659 -0.118541
v 0.645141 -0.121332 -0.344713
v 0.624772 -0.159394 -0.350586
v 0.665307 -0.159394 -0.102401
v 0.833342 -0.196438 -0.097128
v 0.835926 -0.134882 -0.110797
v 0.835926 -0.134882 -0.110797
v 0.682193 -0.101659 -0.118541
v 0.665307 -0.159394 -0.102401
v 0.833342 -0.196438 -0.097128
v 0.782674 -0.200096 -0.418366
v 0.789552 -0.163939 -0.403218
v 0.789552 -0.163939 -0.403218
v 0.835926 -0.134882 -0.110797
v 0.833342 -0.196438 -0.097128
vn 0.2262 0.9656 -0.1286
vn 0.2155 0.9692 -0.1196
vn 0.2215 0.9672 -0.1246
vn 0.2215 0.9672 -0.1246
vn 0.2308 0.964 -0.1324
vn 0.2262 0.9656 -0.1286
vn -0.3085 0.3042 -0.9013
vn -0.3085 0.3042 -0.9013
vn -0.3085 0.3042 -0.9013
vn -0.2345 0.4132 -0.8799
vn -0.2345 0.4132 -0.8799
vn -0.2345 0.4132 -0.8799
vn -0.9362 0.3166 0.1529
vn -0.9362 0.3166 0.1529
vn -0.9362 0.3166 0.1529
vn -0.8835 0.4566 0.105
vn -0.8835 0.4566 0.105
vn -0.8835 0.4566 0.105
vn 0.017 0.2161 0.9762
vn 0.017 0.2161 0.9762
vn 0.017 0.2161 0.9762
vn 0.0091 0.2667 0.9637
vn 0.0091 0.2667 0.9637
vn 0.0091 0.2667 0.9637
vn 0.9806 -0.1223 -0.1533
vn 0.9806 -0.1223 -0.1533
vn 0.9806 -0.1223 -0.1533
vn 0.986 -0.0745 -0.149
vn 0.986 -0.0745 -0.149
vn 0.986 -0.0745 -0.149
vt 0.414495 0.734923
vt 0.5 0.75
vt 0.5 0.8125
vt 0.5 0.8125
vt 0.393119 0.793654
vt 0.414495 0.734923
vt 0.393119 0.793654
vt 0.414495 0.734923
vt 0.414495 0.734923
vt 0.414495 0.734923
vt 0.393119 0.793654
vt 0.393119 0.793654
vt 0.414495 0.734923
vt 0.5 0.75
vt 0.5 0.75
vt 0.5 0.75
vt 0.414495 0.734923
vt 0.414495 0.734923
vt 0.5 0.75
vt 0.5 0.8125
vt 0.5 0.8125
vt 0.5 0.8125
vt 0.5 0.75
vt 0.5 0.75
vt 0.5 0.8125
vt 0.393119 0.793654
vt 0.393119 0.793654
vt 0.393119 0.793654
vt 0.5 0.8125
vt 0.5 0.8125
s off
f 1/1/1 2/2/2 3/3/3
f 4/4/4 5/5/5 6/6/6
f 7/7/7 8/8/8 9/9/9
f 10/10/10 11/11/11 12/12/12
f 13/13/13 14/14/14 15/15/15
f 16/16/16 17/17/17 18/18/18
f 19/19/19 20/20/20 21/21/21
f 22/22/22 23/23/23 24/24/24
f 25/25/25 26/26/26 27/27/27
f 28/28/28 29/29/29 30/30/30
