v -1.18559 -0.210188 -0.104769
v -1.03195 -0.170232 -0.115151
v -0.976268 -0.208584 -0.473976
v -1.18559 -0.210188 -0.104769
v -0.976268 -0.208584 -0.473976
v -1.12076 -0.25118 -0.54334
v -1.18308 -0.277724 -0.084089
v -1.01505 -0.233482 -0.091575
v -1.03195 -0.170232 -0.115151
v -1.18308 -0.277724 -0.084089
v -1.03195 -0.170232 -0.115151
v -1.18559 -0.210188 -0.104769
v -1.01505 -0.233482 -0.091575
v -0.954244 -0.240798 -0.486025
v -0.976268 -0.208584 -0.473976
v -1.01505 -0.233482 -0.091575
v -0.976268 -0.208584 -0.473976
v -1.03195 -0.170232 -0.115151
v -0.954244 -0.240798 -0.486025
v -1.11214 -0.280841 -0.565612
v -1.12076 -0.25118 -0.54334
v -0.954244 -0.240798 -0.486025
v -1.12076 -0.25118 -0.54334
v -0.976268 -0.208584 -0.473976
v -1.11214 -0.280841 -0.565612
v -1.18308 -0.277724 -0.084089
v -1.18559 -0.210188 -0.104769
v -1.11214 -0.280841 -0.565612
v -1.18559 -0.210188 -0.104769
v -1.12076 -0.25118 -0.54334
vn -0.2402 0.9617 -0.132
vn -0.2402 0.9617 -0.132
vn -0.2402 0.9617 -0.132
vn -0.2402 0.9617 -0.132
vn -0.2402 0.9617 -0.132
vn -0.2402 0.9617 -0.132
vn -0.0301 0.3164 0.9482
vn -0.0301 0.3164 0.9482
vn -0.0301 0.3164 0.9482
vn -0.0301 0.3164 0.9482
vn -0.0301 0.3164 0.9482
vn -0.0301 0.3164 0.9482
vn 0.9145 0.3871 0.1179
vn 0.9145 0.3871 0.1179
vn 0.9145 0.3871 0.1179
vn 0.9145 0.3871 0.1179
vn 0.9145 0.3871 0.1179
vn 0.9145 0.3871 0.1179
vn 0.2386 0.5587 -0.7943
vn 0.2386 0.5587 -0.7943
vn 0.2386 0.5587 -0.7943
vn 0.2386 0.5587 -0.7943
vn 0.2386 0.5587 -0.7943
vn 0.2386 0.5587 -0.7943
vn -0.984 -0.1104 -0.1399
vn -0.984 -0.1104 -0.1399
vn -0.984 -0.1104 -0.1399
vn -0.984 -0.1104 -0.1399
vn -0.984 -0.1104 -0.1399
vn -0.984 -0.1104 -0.1399
vt 0.5 0.0625
vt 0.5 0.125
vt 0.371743 0.147615
vt 0.5 0.0625
vt 0.371743 0.147615
vt 0.350366 0.088884
vt 0.5 0.0625
vt 0.5 0.125
vt 0.5 0.125
vt 0.5 0.0625
vt 0.5 0.125
vt 0.5 0.0625
vt 0.5 0.125
vt 0.371743 0.147615
vt 0.371743 0.147615
vt 0.5 0.125
vt 0.371743 0.147615
vt 0.5 0.125
vt 0.371743 0.147615
vt 0.350366 0.088884
vt 0.350366 0.088884
vt 0.371743 0.147615
vt 0.350366 0.088884
vt 0.371743 0.147615
vt 0.350366 0.088884
vt 0.5 0.0625
vt 0.5 0.0625
vt 0.350366 0.088884
vt 0.5 0.0625
vt 0.350366 0.088884
s off
f 1/1/1 2/2/2 3/3/3
f 4/4/4 5/5/5 6/6/6
f 7/7/7 8/8/8 9/9/9
f 10/10/10 11/11/11 12/12/12
f 13/13/13 14/14/14 15/15/15
f 16/16/16 17/17/17 18/18/18
f 19/19/19 20/20/20 21/21/21
f 22/22/22 23/23/23 24/24/24
f 25/25/25 26/26/26 27/27/27
f 28/28/28 29/29/29 30/30/30
