v 0.9626 -0.208577 -0.474107
v 1.01828 -0.170238 -0.115425
v 1.17192 -0.210198 -0.105087
v 1.17192 -0.210198 -0.105087
v 1.1071 -0.251172 -0.543464
v 0.9626 -0.208577 -0.474107
v 1.09848 -0.280841 -0.565726
v 0.940576 -0.240799 -0.486147
v 0.9626 -0.208577 -0.474107
v 0.9626 -0.208577 -0.474107
v 1.1071 -0.251172 -0.543464
v 1.09848 -0.280841 -0.565726
v 0.940576 -0.240799 -0.486147
v 1.00138 -0.233482 -0.091855
v 1.01828 -0.170238 -0.115425
v 1.01828 -0.170238 -0.115425
v 0.9626 -0.208577 -0.474107
v 0.940576 -0.240799 -0.486147
v 1.00138 -0.233482 -0.091855
v 1.16941 -0.277724 -0.084416
v 1.17192 -0.210198 -0.105087
v 1.17192 -0.210198 -0.105087
v 1.01828 -0.170238 -0.115425
v 1.00138 -0.233482 -0.091855
v 1.16941 -0.277724 -0.084416
v 1.09848 -0.280841 -0.565726
v 1.1071 -0.251172 -0.543464
v 1.1071 -0.251172 -0.543464
v 1.17192 -0.210198 -0.105087
v 1.16941 -0.277724 -0.084416
vn 0.2321 0.9643 -0.1274
vn 0.2581 0.9556 -0.1422
vn 0.2492 0.9587 -0.1371
vn 0.2492 0.9587 -0.1371
vn 0.2255 0.9664 -0.1237
vn 0.2321 0.9643 -0.1274
vn -0.2851 0.5004 -0.8175
vn -0.2851 0.5004 -0.8175
vn -0.2851 0.5004 -0.8175
vn -0.1813 0.6234 -0.7606
vn -0.1813 0.6234 -0.7606
vn -0.1813 0.6234 -0.7606
vn -0.9424 0.3039 0.1397
vn -0.9424 0.3039 0.1397
vn -0.9424 0.3039 0.1397
vn -0.8357 0.5445 0.0715
vn -0.8357 0.5445 0.0715
vn -0.8357 0.5445 0.0715
vn 0.0344 0.2914 0.956
vn 0.0344 0.2914 0.956
vn 0.0344 0.2914 0.956
vn 0.026 0.343 0.939
vn 0.026 0.343 0.939
vn 0.026 0.343 0.939
vn 0.974 -0.1761 -0.1424
vn 0.974 -0.1761 -0.1424
vn 0.974 -0.1761 -0.1424
vn 0.9872 -0.0791 -0.1386
vn 0.9872 -0.0791 -0.1386
vn 0.9872 -0.0791 -0.1386
vt 0.371742 0.852385
vt 0.5 0.875
vt 0.5 0.9375
vt 0.5 0.9375
vt 0.350366 0.911115
vt 0.371742 0.852385
vt 0.350366 0.911115
vt 0.371742 0.852385
vt 0.371742 0.852385
vt 0.371742 0.852385
vt 0.350366 0.911115
vt 0.350366 0.911115
vt 0.371742 0.852385
vt 0.5 0.875
vt 0.5 0.875
vt 0.5 0.875
vt 0.371742 0.852385
vt 0.371742 0.852385
vt 0.5 0.875
vt 0.5 0.9375
vt 0.5 0.9375
vt 0.5 0.9375
vt 0.5 0.875
vt 0.5 0.875
vt 0.5 0.9375
vt 0.350366 0.911115
vt 0.350366 0.911115
vt 0.350366 0.911115
vt 0.5 0.9375
vt 0.5 0.9375
s off
f 1/1/1 2/2/2 3/3/3
f 4/4/4 5/5/5 6/6/6
f 7/7/7 8/8/8 9/9/9
f 10/10/10 11/11/11 12/12/12
f 13/13/13 14/14/14 15/15/15
f 16/16/16 17/17/17 18/18/18
f 19/19/19 20/20/20 21/21/21
f 22/22/22 23/23/23 24/24/24
f 25/25/25 26/26/26 27/27/27
f 28/28/28 29/29/29 30/30/30
