# Blender 5.2.0 LTS
# www.blender.org
mtllib button_01.mtl
o button_01
v -0.090048 2.672610 0.111636
v -0.084186 2.699880 0.053149
v -0.053218 2.699880 0.053149
v -0.057125 2.672610 0.111636
v -0.057125 2.672610 0.111636
v -0.053218 2.699880 0.053149
v -0.022249 2.699880 0.053149
v -0.024203 2.672610 0.111636
v -0.024203 2.672610 0.111636
v -0.022249 2.699880 0.053149
v 0.008720 2.699880 0.053149
v 0.008720 2.672610 0.111636
v 0.008720 2.672610 0.111636
v 0.008720 2.699880 0.053149
v 0.039689 2.699880 0.053149
v 0.041643 2.672610 0.111636
v 0.041643 2.672610 0.111636
v 0.039689 2.699880 0.053149
v 0.070657 2.699880 0.053149
v 0.074565 2.672610 0.111636
v 0.074565 2.672610 0.111636
v 0.070657 2.699880 0.053149
v 0.101626 2.699880 0.053149
v 0.107488 2.672610 0.111636
v -0.084186 2.699880 0.053149
v -0.066601 2.727160 -0.005338
v -0.041494 2.727160 -0.005338
v -0.053218 2.699880 0.053149
v -0.053218 2.699880 0.053149
v -0.041494 2.727160 -0.005338
v -0.016387 2.727160 -0.005338
v -0.022249 2.699880 0.053149
v -0.022249 2.699880 0.053149
v -0.016387 2.727160 -0.005338
v 0.008720 2.727160 -0.005338
v 0.008720 2.699880 0.053149
v 0.008720 2.699880 0.053149
v 0.008720 2.727160 -0.005338
v 0.033827 2.727160 -0.005338
v 0.039689 2.699880 0.053149
v 0.039689 2.699880 0.053149
v 0.033827 2.727160 -0.005338
v 0.058934 2.727160 -0.005338
v 0.070657 2.699880 0.053149
v 0.070657 2.699880 0.053149
v 0.058934 2.727160 -0.005338
v 0.084041 2.727160 -0.005338
v 0.101626 2.699880 0.053149
v -0.066601 2.727160 -0.005338
v -0.037292 2.754430 -0.063825
v -0.021955 2.754430 -0.063825
v -0.041494 2.727160 -0.005338
v -0.041494 2.727160 -0.005338
v -0.021955 2.754430 -0.063825
v -0.006617 2.754430 -0.063825
v -0.016387 2.727160 -0.005338
v -0.016387 2.727160 -0.005338
v -0.006617 2.754430 -0.063825
v 0.008720 2.754430 -0.063825
v 0.008720 2.727160 -0.005338
v 0.008720 2.727160 -0.005338
v 0.008720 2.754430 -0.063825
v 0.024057 2.754430 -0.063825
v 0.033827 2.727160 -0.005338
v 0.033827 2.727160 -0.005338
v 0.024057 2.754430 -0.063825
v 0.039395 2.754430 -0.063825
v 0.058934 2.727160 -0.005338
v 0.058934 2.727160 -0.005338
v 0.039395 2.754430 -0.063825
v 0.054732 2.754430 -0.063825
v 0.084041 2.727160 -0.005338
v -0.090048 2.755930 0.150486
v -0.057125 2.755930 0.150488
v -0.053218 2.783200 0.092000
v -0.084186 2.783200 0.092000
v -0.057125 2.755930 0.150488
v -0.024203 2.755930 0.150486
v -0.022249 2.783200 0.092000
v -0.053218 2.783200 0.092000
v -0.024203 2.755930 0.150486
v 0.008720 2.755930 0.150486
v 0.008720 2.783200 0.092000
v -0.022249 2.783200 0.092000
v 0.008720 2.755930 0.150486
v 0.041643 2.755930 0.150486
v 0.039689 2.783200 0.092000
v 0.008720 2.783200 0.092000
v 0.041643 2.755930 0.150486
v 0.074565 2.755930 0.150486
v 0.070657 2.783200 0.092000
v 0.039689 2.783200 0.092000
v 0.074565 2.755930 0.150486
v 0.107488 2.755930 0.150486
v 0.101626 2.783200 0.092000
v 0.070657 2.783200 0.092000
v -0.084186 2.783200 0.092000
v -0.053218 2.783200 0.092000
v -0.041494 2.810470 0.033514
v -0.066601 2.810470 0.033514
v -0.053218 2.783200 0.092000
v -0.022249 2.783200 0.092000
v -0.016387 2.810470 0.033514
v -0.041494 2.810470 0.033514
v -0.022249 2.783200 0.092000
v 0.008720 2.783200 0.092000
v 0.008720 2.810470 0.033514
v -0.016387 2.810470 0.033514
v 0.008720 2.783200 0.092000
v 0.039689 2.783200 0.092000
v 0.033827 2.810470 0.033514
v 0.008720 2.810470 0.033514
v 0.039689 2.783200 0.092000
v 0.070657 2.783200 0.092000
v 0.058934 2.810470 0.033514
v 0.033827 2.810470 0.033514
v 0.070657 2.783200 0.092000
v 0.101626 2.783200 0.092000
v 0.084041 2.810470 0.033514
v 0.058934 2.810470 0.033514
v -0.066601 2.810470 0.033514
v -0.041494 2.810470 0.033514
v -0.021955 2.837750 -0.024973
v -0.037292 2.837750 -0.024973
v -0.041494 2.810470 0.033514
v -0.016387 2.810470 0.033514
v -0.006617 2.837750 -0.024973
v -0.021955 2.837750 -0.024973
v -0.016387 2.810470 0.033514
v 0.008720 2.810470 0.033514
v 0.008720 2.837750 -0.024973
v -0.006617 2.837750 -0.024973
v 0.008720 2.810470 0.033514
v 0.033827 2.810470 0.033514
v 0.024057 2.837750 -0.024973
v 0.008720 2.837750 -0.024973
v 0.033827 2.810470 0.033514
v 0.058934 2.810470 0.033514
v 0.039395 2.837750 -0.024973
v 0.024057 2.837750 -0.024973
v 0.058934 2.810470 0.033514
v 0.084041 2.810470 0.033514
v 0.054732 2.837750 -0.024973
v 0.039395 2.837750 -0.024973
v -0.090048 2.672610 0.111636
v -0.057125 2.672610 0.111636
v -0.057125 2.700380 0.124586
v -0.090048 2.700380 0.124586
v -0.057125 2.672610 0.111636
v -0.024203 2.672610 0.111636
v -0.024203 2.700380 0.124586
v -0.057125 2.700380 0.124586
v -0.024203 2.672610 0.111636
v 0.008720 2.672610 0.111636
v 0.008720 2.700380 0.124586
v -0.024203 2.700380 0.124586
v 0.008720 2.672610 0.111636
v 0.041643 2.672610 0.111636
v 0.041643 2.700380 0.124586
v 0.008720 2.700380 0.124586
v 0.041643 2.672610 0.111636
v 0.074565 2.672610 0.111636
v 0.074565 2.700380 0.124586
v 0.041643 2.700380 0.124586
v 0.074565 2.672610 0.111636
v 0.107488 2.672610 0.111636
v 0.107488 2.700380 0.124586
v 0.074565 2.700380 0.124586
v -0.090048 2.700380 0.124586
v -0.057125 2.700380 0.124586
v -0.057125 2.728160 0.137537
v -0.090048 2.728160 0.137537
v -0.057125 2.700380 0.124586
v -0.024203 2.700380 0.124586
v -0.024203 2.728160 0.137537
v -0.057125 2.728160 0.137537
v -0.024203 2.700380 0.124586
v 0.008720 2.700380 0.124586
v 0.008720 2.728160 0.137537
v -0.024203 2.728160 0.137537
v 0.008720 2.700380 0.124586
v 0.041643 2.700380 0.124586
v 0.041643 2.728160 0.137537
v 0.008720 2.728160 0.137537
v 0.041643 2.700380 0.124586
v 0.074565 2.700380 0.124586
v 0.074565 2.728160 0.137537
v 0.041643 2.728160 0.137537
v 0.074565 2.700380 0.124586
v 0.107488 2.700380 0.124586
v 0.107488 2.728160 0.137537
v 0.074565 2.728160 0.137537
v -0.090048 2.728160 0.137537
v -0.057125 2.728160 0.137537
v -0.057125 2.755930 0.150488
v -0.090048 2.755930 0.150486
v -0.057125 2.728160 0.137537
v -0.024203 2.728160 0.137537
v -0.024203 2.755930 0.150486
v -0.057125 2.755930 0.150488
v -0.024203 2.728160 0.137537
v 0.008720 2.728160 0.137537
v 0.008720 2.755930 0.150486
v -0.024203 2.755930 0.150486
v 0.008720 2.728160 0.137537
v 0.041643 2.728160 0.137537
v 0.041643 2.755930 0.150486
v 0.008720 2.755930 0.150486
v 0.041643 2.728160 0.137537
v 0.074565 2.728160 0.137537
v 0.074565 2.755930 0.150486
v 0.041643 2.755930 0.150486
v 0.074565 2.728160 0.137537
v 0.107488 2.728160 0.137537
v 0.107488 2.755930 0.150486
v 0.074565 2.755930 0.150486
v 0.107488 2.672610 0.111636
v 0.101626 2.699880 0.053149
v 0.101626 2.727660 0.066100
v 0.107488 2.700380 0.124586
v 0.101626 2.699880 0.053149
v 0.084041 2.727160 -0.005338
v 0.084041 2.754930 0.007613
v 0.101626 2.727660 0.066100
v 0.084041 2.727160 -0.005338
v 0.054732 2.754430 -0.063825
v 0.054732 2.782200 -0.050875
v 0.084041 2.754930 0.007613
v 0.107488 2.700380 0.124586
v 0.101626 2.727660 0.066100
v 0.101626 2.755430 0.079050
v 0.107488 2.728160 0.137537
v 0.101626 2.727660 0.066100
v 0.084041 2.754930 0.007613
v 0.084041 2.782700 0.020563
v 0.101626 2.755430 0.079050
v 0.084041 2.754930 0.007613
v 0.054732 2.782200 -0.050875
v 0.054732 2.809970 -0.037924
v 0.084041 2.782700 0.020563
v 0.107488 2.728160 0.137537
v 0.101626 2.755430 0.079050
v 0.101626 2.783200 0.092000
v 0.107488 2.755930 0.150486
v 0.101626 2.755430 0.079050
v 0.084041 2.782700 0.020563
v 0.084041 2.810470 0.033514
v 0.101626 2.783200 0.092000
v 0.084041 2.782700 0.020563
v 0.054732 2.809970 -0.037924
v 0.054732 2.837750 -0.024973
v 0.084041 2.810470 0.033514
v 0.054732 2.754430 -0.063825
v 0.039395 2.754430 -0.063825
v 0.039395 2.782200 -0.050875
v 0.054732 2.782200 -0.050875
v 0.039395 2.754430 -0.063825
v 0.024057 2.754430 -0.063825
v 0.024057 2.782200 -0.050875
v 0.039395 2.782200 -0.050875
v 0.024057 2.754430 -0.063825
v 0.008720 2.754430 -0.063825
v 0.008720 2.782200 -0.050875
v 0.024057 2.782200 -0.050875
v 0.008720 2.754430 -0.063825
v -0.006617 2.754430 -0.063825
v -0.006617 2.782200 -0.050875
v 0.008720 2.782200 -0.050875
v -0.006617 2.754430 -0.063825
v -0.021955 2.754430 -0.063825
v -0.021955 2.782200 -0.050875
v -0.006617 2.782200 -0.050875
v -0.021955 2.754430 -0.063825
v -0.037292 2.754430 -0.063825
v -0.037292 2.782200 -0.050875
v -0.021955 2.782200 -0.050875
v 0.054732 2.782200 -0.050875
v 0.039395 2.782200 -0.050875
v 0.039395 2.809970 -0.037924
v 0.054732 2.809970 -0.037924
v 0.039395 2.782200 -0.050875
v 0.024057 2.782200 -0.050875
v 0.024057 2.809970 -0.037924
v 0.039395 2.809970 -0.037924
v 0.024057 2.782200 -0.050875
v 0.008720 2.782200 -0.050875
v 0.008720 2.809970 -0.037924
v 0.024057 2.809970 -0.037924
v 0.008720 2.782200 -0.050875
v -0.006617 2.782200 -0.050875
v -0.006617 2.809970 -0.037924
v 0.008720 2.809970 -0.037924
v -0.006617 2.782200 -0.050875
v -0.021955 2.782200 -0.050875
v -0.021955 2.809970 -0.037924
v -0.006617 2.809970 -0.037924
v -0.021955 2.782200 -0.050875
v -0.037292 2.782200 -0.050875
v -0.037292 2.809970 -0.037924
v -0.021955 2.809970 -0.037924
v 0.054732 2.809970 -0.037924
v 0.039395 2.809970 -0.037924
v 0.039395 2.837750 -0.024973
v 0.054732 2.837750 -0.024973
v 0.039395 2.809970 -0.037924
v 0.024057 2.809970 -0.037924
v 0.024057 2.837750 -0.024973
v 0.039395 2.837750 -0.024973
v 0.024057 2.809970 -0.037924
v 0.008720 2.809970 -0.037924
v 0.008720 2.837750 -0.024973
v 0.024057 2.837750 -0.024973
v 0.008720 2.809970 -0.037924
v -0.006617 2.809970 -0.037924
v -0.006617 2.837750 -0.024973
v 0.008720 2.837750 -0.024973
v -0.006617 2.809970 -0.037924
v -0.021955 2.809970 -0.037924
v -0.021955 2.837750 -0.024973
v -0.006617 2.837750 -0.024973
v -0.021955 2.809970 -0.037924
v -0.037292 2.809970 -0.037924
v -0.037292 2.837750 -0.024973
v -0.021955 2.837750 -0.024973
v -0.037292 2.754430 -0.063825
v -0.066601 2.727160 -0.005338
v -0.066601 2.754930 0.007613
v -0.037292 2.782200 -0.050875
v -0.066601 2.727160 -0.005338
v -0.084186 2.699880 0.053149
v -0.084186 2.727660 0.066100
v -0.066601 2.754930 0.007613
v -0.084186 2.699880 0.053149
v -0.090048 2.672610 0.111636
v -0.090048 2.700380 0.124586
v -0.084186 2.727660 0.066100
v -0.037292 2.782200 -0.050875
v -0.066601 2.754930 0.007613
v -0.066601 2.782700 0.020563
v -0.037292 2.809970 -0.037924
v -0.066601 2.754930 0.007613
v -0.084186 2.727660 0.066100
v -0.084186 2.755430 0.079050
v -0.066601 2.782700 0.020563
v -0.084186 2.727660 0.066100
v -0.090048 2.700380 0.124586
v -0.090048 2.728160 0.137537
v -0.084186 2.755430 0.079050
v -0.037292 2.809970 -0.037924
v -0.066601 2.782700 0.020563
v -0.066601 2.810470 0.033514
v -0.037292 2.837750 -0.024973
v -0.066601 2.782700 0.020563
v -0.084186 2.755430 0.079050
v -0.084186 2.783200 0.092000
v -0.066601 2.810470 0.033514
v -0.084186 2.755430 0.079050
v -0.090048 2.728160 0.137537
v -0.090048 2.755930 0.150486
v -0.084186 2.783200 0.092000
vn -0.0000 -0.9063 -0.4226
vn -0.0000 -0.9063 -0.4227
vn -0.0000 -0.9064 -0.4224
vn -0.0000 0.9063 0.4226
vn -0.0000 0.9063 0.4227
vn -0.0000 0.9064 0.4224
vn -0.0000 0.9065 0.4223
vn -0.0000 -0.4226 0.9063
vn -0.0000 -0.4225 0.9063
vn -0.0000 -0.4227 0.9063
vn 0.9959 0.0382 -0.0820
vn 0.9841 0.0750 -0.1608
vn 0.9407 0.1434 -0.3075
vn 0.9105 0.1748 -0.3748
vn 0.9105 0.1747 -0.3748
vn -0.0000 0.4227 -0.9063
vn -0.0000 0.4226 -0.9063
vn -0.0000 0.4225 -0.9063
vn -0.9105 0.1748 -0.3748
vn -0.9407 0.1434 -0.3075
vn -0.9841 0.0750 -0.1608
vn -0.9959 0.0382 -0.0820
vn -0.9105 0.1747 -0.3748
vt 1.000000 1.000000
vt 1.000000 0.666667
vt 0.833333 0.666667
vt 0.833333 1.000000
vt 0.666667 0.666667
vt 0.666667 1.000000
vt 0.500000 0.666667
vt 0.500000 1.000000
vt 0.333333 0.666667
vt 0.333333 1.000000
vt 0.166667 0.666667
vt 0.166667 1.000000
vt -0.000000 0.666667
vt -0.000000 1.000000
vt 1.000000 0.333333
vt 0.833333 0.333333
vt 0.666667 0.333333
vt 0.500000 0.333333
vt 0.333333 0.333333
vt 0.166667 0.333333
vt -0.000000 0.333333
vt 1.000000 0.000000
vt 0.833333 0.000000
vt 0.666667 0.000000
vt 0.500000 0.000000
vt 0.333333 0.000000
vt 0.166667 0.000000
vt -0.000000 0.000000
s 1
f 1/1/1 2/2/1 3/3/1
f 1/1/1 3/3/1 4/4/1
f 5/4/1 6/3/1 7/5/1
f 5/4/1 7/5/1 8/6/1
f 9/6/1 10/5/1 11/7/1
f 9/6/1 11/7/1 12/8/1
f 13/8/1 14/7/1 15/9/1
f 13/8/1 15/9/1 16/10/1
f 17/10/1 18/9/1 19/11/1
f 17/10/1 19/11/1 20/12/1
f 21/12/1 22/11/1 23/13/1
f 21/12/1 23/13/1 24/14/1
f 25/2/2 26/15/2 27/16/2
f 25/2/2 27/16/2 28/3/2
f 29/3/2 30/16/2 31/17/2
f 29/3/2 31/17/2 32/5/2
f 33/5/2 34/17/2 35/18/2
f 33/5/2 35/18/2 36/7/2
f 37/7/2 38/18/2 39/19/2
f 37/7/2 39/19/2 40/9/2
f 41/9/2 42/19/2 43/20/2
f 41/9/2 43/20/2 44/11/2
f 45/11/3 46/20/2 47/21/2
f 45/11/3 47/21/2 48/13/2
f 49/15/1 50/22/1 51/23/1
f 49/15/1 51/23/1 52/16/1
f 53/16/1 54/23/1 55/24/1
f 53/16/1 55/24/1 56/17/1
f 57/17/1 58/24/1 59/25/1
f 57/17/1 59/25/1 60/18/1
f 61/18/1 62/25/1 63/26/1
f 61/18/1 63/26/1 64/19/1
f 65/19/1 66/26/1 67/27/1
f 65/19/1 67/27/1 68/20/1
f 69/20/1 70/27/1 71/28/1
f 69/20/1 71/28/1 72/21/1
f 73/14/4 74/12/4 75/11/4
f 73/14/4 75/11/4 76/13/4
f 77/12/4 78/10/4 79/9/4
f 77/12/4 79/9/4 80/11/4
f 81/10/4 82/8/4 83/7/4
f 81/10/4 83/7/4 84/9/4
f 85/8/4 86/6/4 87/5/4
f 85/8/4 87/5/4 88/7/4
f 89/6/4 90/4/4 91/3/4
f 89/6/4 91/3/4 92/5/4
f 93/4/4 94/1/4 95/2/4
f 93/4/4 95/2/4 96/3/4
f 97/13/4 98/11/4 99/20/4
f 97/13/4 99/20/4 100/21/4
f 101/11/4 102/9/4 103/19/4
f 101/11/4 103/19/4 104/20/4
f 105/9/4 106/7/4 107/18/4
f 105/9/4 107/18/4 108/19/4
f 109/7/4 110/5/4 111/17/4
f 109/7/4 111/17/4 112/18/4
f 113/5/4 114/3/4 115/16/4
f 113/5/4 115/16/4 116/17/4
f 117/3/4 118/2/4 119/15/4
f 117/3/4 119/15/4 120/16/4
f 121/21/5 122/20/5 123/27/5
f 121/21/5 123/27/5 124/28/5
f 125/20/5 126/19/5 127/26/5
f 125/20/5 127/26/5 128/27/5
f 129/19/5 130/18/5 131/25/5
f 129/19/5 131/25/5 132/26/5
f 133/18/5 134/17/5 135/24/5
f 133/18/5 135/24/5 136/25/6
f 137/17/5 138/16/5 139/23/5
f 137/17/5 139/23/5 140/24/5
f 141/16/5 142/15/5 143/22/5
f 141/16/5 143/22/5 144/23/7
f 145/14/8 146/12/8 147/11/8
f 145/14/8 147/11/8 148/13/8
f 149/12/8 150/10/8 151/9/8
f 149/12/8 151/9/8 152/11/8
f 153/10/8 154/8/8 155/7/8
f 153/10/8 155/7/8 156/9/8
f 157/8/8 158/6/8 159/5/8
f 157/8/8 159/5/8 160/7/8
f 161/6/8 162/4/8 163/3/8
f 161/6/8 163/3/8 164/5/8
f 165/4/8 166/1/8 167/2/8
f 165/4/8 167/2/8 168/3/8
f 169/13/9 170/11/9 171/20/9
f 169/13/9 171/20/9 172/21/9
f 173/11/9 174/9/9 175/19/9
f 173/11/9 175/19/9 176/20/9
f 177/9/9 178/7/9 179/18/9
f 177/9/9 179/18/9 180/19/9
f 181/7/9 182/5/9 183/17/9
f 181/7/9 183/17/9 184/18/9
f 185/5/9 186/3/9 187/16/9
f 185/5/9 187/16/9 188/17/9
f 189/3/9 190/2/9 191/15/9
f 189/3/9 191/15/9 192/16/9
f 193/21/8 194/20/10 195/27/10
f 193/21/8 195/27/10 196/28/8
f 197/20/8 198/19/8 199/26/8
f 197/20/8 199/26/8 200/27/10
f 201/19/8 202/18/8 203/25/8
f 201/19/8 203/25/8 204/26/8
f 205/18/8 206/17/8 207/24/8
f 205/18/8 207/24/8 208/25/8
f 209/17/8 210/16/8 211/23/8
f 209/17/8 211/23/8 212/24/8
f 213/16/8 214/15/8 215/22/8
f 213/16/8 215/22/8 216/23/8
f 217/14/11 218/10/12 219/9/12
f 217/14/11 219/9/12 220/13/11
f 221/10/12 222/6/13 223/5/13
f 221/10/12 223/5/13 224/9/12
f 225/6/13 226/1/14 227/2/14
f 225/6/13 227/2/14 228/5/13
f 229/13/11 230/9/12 231/19/12
f 229/13/11 231/19/12 232/21/11
f 233/9/12 234/5/13 235/17/13
f 233/9/12 235/17/13 236/19/12
f 237/5/13 238/2/14 239/15/14
f 237/5/13 239/15/14 240/17/13
f 241/21/11 242/19/12 243/26/12
f 241/21/11 243/26/12 244/28/11
f 245/19/12 246/17/13 247/24/13
f 245/19/12 247/24/13 248/26/12
f 249/17/13 250/15/15 251/22/15
f 249/17/13 251/22/15 252/24/13
f 253/14/16 254/12/16 255/11/16
f 253/14/16 255/11/16 256/13/16
f 257/12/16 258/10/16 259/9/16
f 257/12/16 259/9/16 260/11/16
f 261/10/16 262/8/16 263/7/16
f 261/10/16 263/7/16 264/9/16
f 265/8/16 266/6/16 267/5/16
f 265/8/16 267/5/16 268/7/16
f 269/6/16 270/4/16 271/3/16
f 269/6/16 271/3/16 272/5/16
f 273/4/16 274/1/16 275/2/16
f 273/4/16 275/2/16 276/3/16
f 277/13/17 278/11/17 279/20/17
f 277/13/17 279/20/17 280/21/17
f 281/11/17 282/9/17 283/19/17
f 281/11/17 283/19/17 284/20/17
f 285/9/17 286/7/17 287/18/17
f 285/9/17 287/18/17 288/19/17
f 289/7/17 290/5/17 291/17/17
f 289/7/17 291/17/17 292/18/17
f 293/5/17 294/3/17 295/16/17
f 293/5/17 295/16/17 296/17/17
f 297/3/17 298/2/17 299/15/17
f 297/3/17 299/15/17 300/16/17
f 301/21/18 302/20/18 303/27/18
f 301/21/18 303/27/18 304/28/18
f 305/20/18 306/19/18 307/26/18
f 305/20/18 307/26/18 308/27/18
f 309/19/18 310/18/18 311/25/18
f 309/19/18 311/25/18 312/26/18
f 313/18/18 314/17/18 315/24/18
f 313/18/18 315/24/18 316/25/18
f 317/17/18 318/16/18 319/23/18
f 317/17/18 319/23/18 320/24/18
f 321/16/18 322/15/18 323/22/18
f 321/16/18 323/22/18 324/23/18
f 325/14/19 326/10/20 327/9/20
f 325/14/19 327/9/20 328/13/19
f 329/10/20 330/6/21 331/5/21
f 329/10/20 331/5/21 332/9/20
f 333/6/21 334/1/22 335/2/22
f 333/6/21 335/2/22 336/5/21
f 337/13/19 338/9/20 339/19/20
f 337/13/19 339/19/20 340/21/19
f 341/9/20 342/5/21 343/17/21
f 341/9/20 343/17/21 344/19/20
f 345/5/21 346/2/22 347/15/22
f 345/5/21 347/15/22 348/17/21
f 349/21/23 350/19/20 351/26/20
f 349/21/23 351/26/20 352/28/23
f 353/19/20 354/17/21 355/24/21
f 353/19/20 355/24/21 356/26/20
f 357/17/21 358/15/22 359/22/22
f 357/17/21 359/22/22 360/24/21
