v 0.835689 -0.134808 -0.083643
v 0.681964 -0.100715 -0.085506
v 0.644905 -0.12105 0.147887
v 0.835689 -0.134808 -0.083643
v 0.644905 -0.12105 0.147887
v 0.789323 -0.164254 0.221359
v 0.833342 -0.196438 -0.097128
v 0.665307 -0.159394 -0.102401
v 0.681964 -0.100715 -0.085506
v 0.833342 -0.196438 -0.097128
v 0.681964 -0.100715 -0.085506
v 0.835689 -0.134808 -0.083643
v 0.665307 -0.159394 -0.102401
v 0.624773 -0.159394 0.153711
v 0.644905 -0.12105 0.147887
v 0.665307 -0.159394 -0.102401
v 0.644905 -0.12105 0.147887
v 0.681964 -0.100715 -0.085506
v 0.624773 -0.159394 0.153711
v 0.782674 -0.199354 0.237848
v 0.789323 -0.164254 0.221359
v 0.624773 -0.159394 0.153711
v 0.789323 -0.164254 0.221359
v 0.644905 -0.12105 0.147887
v 0.782674 -0.199354 0.237848
v 0.833342 -0.196438 -0.097128
v 0.835689 -0.134808 -0.083643
v 0.782674 -0.199354 0.237848
v 0.835689 -0.134808 -0.083643
v 0.789323 -0.164254 0.221359
vn 0.2197 0.9677 0.1235
vn 0.2197 0.9677 0.1235
vn 0.2197 0.9677 0.1235
vn 0.2197 0.9677 0.1235
vn 0.2197 0.9677 0.1235
vn 0.2197 0.9677 0.1235
vn 0.0731 0.2333 -0.9697
vn 0.0731 0.2333 -0.9697
vn 0.0731 0.2333 -0.9697
vn 0.0731 0.2333 -0.9697
vn 0.0731 0.2333 -0.9697
vn 0.0731 0.2333 -0.9697
vn -0.9219 0.3645 -0.131
vn -0.9219 0.3645 -0.131
vn -0.9219 0.3645 -0.131
vn -0.9219 0.3645 -0.131
vn -0.9219 0.3645 -0.131
vn -0.9219 0.3645 -0.131
vn -0.3412 0.3849 0.8576
vn -0.3412 0.385 0.8575
vn -0.3412 0.385 0.8575
vn -0.3412 0.3849 0.8576
vn -0.3412 0.385 0.8575
vn -0.3412 0.385 0.8576
vn 0.9856 -0.0871 0.145
vn 0.9856 -0.0871 0.145
vn 0.9856 -0.0871 0.145
vn 0.9856 -0.0871 0.145
vn 0.9856 -0.0871 0.145
vn 0.9856 -0.0871 0.145
vt 0.5 0.8125
vt 0.5 0.75
vt 0.585505 0.734923
vt 0.5 0.8125
vt 0.585505 0.734923
vt 0.606881 0.793654
vt 0.5 0.8125
vt 0.5 0.75
vt 0.5 0.75
vt 0.5 0.8125
vt 0.5 0.75
vt 0.5 0.8125
vt 0.5 0.75
vt 0.585505 0.734923
vt 0.585505 0.734923
vt 0.5 0.75
vt 0.585505 0.734923
vt 0.5 0.75
vt 0.585505 0.734923
vt 0.606881 0.793654
vt 0.606881 0.793654
vt 0.585505 0.734923
vt 0.606881 0.793654
vt 0.585505 0.734923
vt 0.606881 0.793654
vt 0.5 0.8125
vt 0.5 0.8125
vt 0.606881 0.793654
vt 0.5 0.8125
vt 0.606881 0.793654
s off
f 1/1/1 2/2/2 3/3/3
f 4/4/4 5/5/5 6/6/6
f 7/7/7 8/8/8 9/9/9
f 10/10/10 11/11/11 12/12/12
f 13/13/13 14/14/14 15/15/15
f 16/16/16 17/17/17 18/18/18
f 19/19/19 20/20/20 21/21/21
f 22/22/22 23/23/23 24/24/24
f 25/25/25 26/26/26 27/27/27
f 28/28/28 29/29/29 30/30/30
