v -0.658572 -0.12105 0.148144
v -0.695632 -0.100709 -0.085315
v -0.849357 -0.134806 -0.083409
v -0.849357 -0.134806 -0.083409
v -0.80299 -0.164262 0.221714
v -0.658572 -0.12105 0.148144
v -0.796342 -0.199354 0.238213
v -0.638441 -0.159394 0.153969
v -0.658572 -0.12105 0.148144
v -0.658572 -0.12105 0.148144
v -0.80299 -0.164262 0.221714
v -0.796342 -0.199354 0.238213
v -0.638441 -0.159394 0.153969
v -0.678976 -0.159394 -0.102216
v -0.695632 -0.100709 -0.085315
v -0.695632 -0.100709 -0.085315
v -0.658572 -0.12105 0.148144
v -0.638441 -0.159394 0.153969
v -0.678976 -0.159394 -0.102216
v -0.847011 -0.196438 -0.096895
v -0.849357 -0.134806 -0.083409
v -0.849357 -0.134806 -0.083409
v -0.695632 -0.100709 -0.085315
v -0.678976 -0.159394 -0.102216
v -0.847011 -0.196438 -0.096895
v -0.796342 -0.199354 0.238213
v -0.80299 -0.164262 0.221714
v -0.80299 -0.164262 0.221714
v -0.849357 -0.134806 -0.083409
v -0.847011 -0.196438 -0.096895
vn -0.2212 0.9672 0.1248
vn -0.2136 0.9697 0.1184
vn -0.2177 0.9684 0.1218
vn -0.2177 0.9684 0.1218
vn -0.2242 0.9662 0.1273
vn -0.2212 0.9672 0.1248
vn 0.378 0.3299 0.865
vn 0.378 0.3299 0.865
vn 0.378 0.3299 0.865
vn 0.2939 0.4517 0.8423
vn 0.2939 0.4517 0.8423
vn 0.2939 0.4517 0.8423
vn 0.9393 0.3094 -0.1486
vn 0.9393 0.3094 -0.1486
vn 0.9393 0.3094 -0.1486
vn 0.8871 0.4503 -0.1016
vn 0.8871 0.4503 -0.1016
vn 0.8871 0.4503 -0.1016
vn -0.0772 0.2103 -0.9746
vn -0.0772 0.2103 -0.9746
vn -0.0772 0.2103 -0.9746
vn -0.0692 0.2579 -0.9637
vn -0.0692 0.2579 -0.9637
vn -0.0692 0.2579 -0.9637
vn -0.9822 -0.1167 0.1475
vn -0.9822 -0.1167 0.1475
vn -0.9822 -0.1167 0.1475
vn -0.9873 -0.069 0.1434
vn -0.9873 -0.069 0.1434
vn -0.9873 -0.069 0.1434
vt 0.585505 0.265077
vt 0.5 0.25
vt 0.5 0.1875
vt 0.5 0.1875
vt 0.606881 0.206346
vt 0.585505 0.265077
vt 0.606881 0.206346
vt 0.585505 0.265077
vt 0.585505 0.265077
vt 0.585505 0.265077
vt 0.606881 0.206346
vt 0.606881 0.206346
vt 0.585505 0.265077
vt 0.5 0.25
vt 0.5 0.25
vt 0.5 0.25
vt 0.585505 0.265077
vt 0.585505 0.265077
vt 0.5 0.25
vt 0.5 0.1875
vt 0.5 0.1875
vt 0.5 0.1875
vt 0.5 0.25
vt 0.5 0.25
vt 0.5 0.1875
vt 0.606881 0.206346
vt 0.606881 0.206346
vt 0.606881 0.206346
vt 0.5 0.1875
vt 0.5 0.1875
s off
f 1/1/1 2/2/2 3/3/3
f 4/4/4 5/5/5 6/6/6
f 7/7/7 8/8/8 9/9/9
f 10/10/10 11/11/11 12/12/12
f 13/13/13 14/14/14 15/15/15
f 16/16/16 17/17/17 18/18/18
f 19/19/19 20/20/20 21/21/21
f 22/22/22 23/23/23 24/24/24
f 25/25/25 26/26/26 27/27/27
f 28/28/28 29/29/29 30/30/30
