v -0.849595 -0.134876 -0.11057
v -0.695862 -0.101658 -0.118356
v -0.65881 -0.121336 -0.344597
v -0.849595 -0.134876 -0.11057
v -0.65881 -0.121336 -0.344597
v -0.803221 -0.163943 -0.403097
v -0.847011 -0.196438 -0.096895
v -0.678976 -0.159394 -0.102216
v -0.695862 -0.101658 -0.118356
v -0.847011 -0.196438 -0.096895
v -0.695862 -0.101658 -0.118356
v -0.849595 -0.134876 -0.11057
v -0.678976 -0.159394 -0.102216
v -0.638441 -0.159394 -0.350476
v -0.65881 -0.121336 -0.344597
v -0.678976 -0.159394 -0.102216
v -0.65881 -0.121336 -0.344597
v -0.695862 -0.101658 -0.118356
v -0.638441 -0.159394 -0.350476
v -0.796342 -0.200096 -0.41825
v -0.803221 -0.163943 -0.403097
v -0.638441 -0.159394 -0.350476
v -0.803221 -0.163943 -0.403097
v -0.65881 -0.121336 -0.344597
v -0.796342 -0.200096 -0.41825
v -0.847011 -0.196438 -0.096895
v -0.849595 -0.134876 -0.11057
v -0.796342 -0.200096 -0.41825
v -0.849595 -0.134876 -0.11057
v -0.803221 -0.163943 -0.403097
vn -0.2242 0.9663 -0.1268
vn -0.2242 0.9663 -0.1268
vn -0.2242 0.9663 -0.1268
vn -0.2242 0.9663 -0.1268
vn -0.2242 0.9663 -0.1268
vn -0.2242 0.9663 -0.1268
vn -0.013 0.2404 0.9706
vn -0.013 0.2404 0.9706
vn -0.013 0.2404 0.9706
vn -0.013 0.2404 0.9706
vn -0.013 0.2404 0.9706
vn -0.013 0.2404 0.9706
vn 0.9185 0.3717 0.1348
vn 0.9185 0.3717 0.1348
vn 0.9185 0.3717 0.1348
vn 0.9185 0.3717 0.1348
vn 0.9185 0.3717 0.1348
vn 0.9185 0.3717 0.1348
vn 0.2756 0.3544 -0.8936
vn 0.2756 0.3544 -0.8936
vn 0.2756 0.3544 -0.8936
vn 0.2756 0.3544 -0.8936
vn 0.2756 0.3544 -0.8936
vn 0.2756 0.3544 -0.8936
vn -0.9842 -0.093 -0.1506
vn -0.9842 -0.093 -0.1506
vn -0.9842 -0.093 -0.1506
vn -0.9842 -0.093 -0.1506
vn -0.9842 -0.093 -0.1506
vn -0.9842 -0.093 -0.1506
vt 0.5 0.1875
vt 0.5 0.25
vt 0.414495 0.265077
vt 0.5 0.1875
vt 0.414495 0.265077
vt 0.393119 0.206346
vt 0.5 0.1875
vt 0.5 0.25
vt 0.5 0.25
vt 0.5 0.1875
vt 0.5 0.25
vt 0.5 0.1875
vt 0.5 0.25
vt 0.414495 0.265077
vt 0.414495 0.265077
vt 0.5 0.25
vt 0.414495 0.265077
vt 0.5 0.25
vt 0.414495 0.265077
vt 0.393119 0.206346
vt 0.393119 0.206346
vt 0.414495 0.265077
vt 0.393119 0.206346
vt 0.414495 0.265077
vt 0.393119 0.206346
vt 0.5 0.1875
vt 0.5 0.1875
vt 0.393119 0.206346
vt 0.5 0.1875
vt 0.393119 0.206346
s off
f 1/1/1 2/2/2 3/3/3
f 4/4/4 5/5/5 6/6/6
f 7/7/7 8/8/8 9/9/9
f 10/10/10 11/11/11 12/12/12
f 13/13/13 14/14/14 15/15/15
f 16/16/16 17/17/17 18/18/18
f 19/19/19 20/20/20 21/21/21
f 22/22/22 23/23/23 24/24/24
f 25/25/25 26/26/26 27/27/27
f 28/28/28 29/29/29 30/30/30
