# Blender 5.2.0 LTS
# www.blender.org
mtllib button_0.mtl
o button_0
v -0.112514 1.999230 -0.736896
v -0.168463 2.284200 -0.681307
v -0.062076 2.284380 -0.690883
v -0.062076 2.284380 -0.690883
v -0.042954 1.999230 -0.747065
v -0.112514 1.999230 -0.736896
v -0.062076 2.284380 -0.690883
v 0.048408 2.284380 -0.690883
v 0.029285 1.999230 -0.747065
v 0.029285 1.999230 -0.747065
v -0.042954 1.999230 -0.747065
v -0.062076 2.284380 -0.690883
v 0.048408 2.284380 -0.690883
v 0.154794 2.284200 -0.681309
v 0.098845 1.999230 -0.736896
v 0.098845 1.999230 -0.736896
v 0.029285 1.999230 -0.747065
v 0.048408 2.284380 -0.690883
v -0.156118 2.151140 -0.531991
v -0.168463 2.381360 -0.628564
v -0.168463 2.284200 -0.681307
v -0.168463 2.284200 -0.681307
v -0.112514 1.999230 -0.736896
v -0.156118 2.151140 -0.531991
v -0.180807 2.611570 -0.725137
v -0.066295 2.611920 -0.734116
v -0.066295 2.569530 -0.758316
v -0.066295 2.569530 -0.758316
v -0.180807 2.569170 -0.749336
v -0.180807 2.611570 -0.725137
v -0.066295 2.611920 -0.734116
v 0.052627 2.611920 -0.734116
v 0.052627 2.569530 -0.758316
v 0.052627 2.569530 -0.758316
v -0.066295 2.569530 -0.758316
v -0.066295 2.611920 -0.734116
v 0.052627 2.611920 -0.734116
v 0.167138 2.611570 -0.725137
v 0.167138 2.569170 -0.749336
v 0.167138 2.569170 -0.749336
v 0.052627 2.569530 -0.758316
v 0.052627 2.611920 -0.734116
v 0.154794 2.381360 -0.628564
v 0.154794 2.284200 -0.681309
v 0.167138 2.569170 -0.749336
v 0.167138 2.569170 -0.749336
v 0.167138 2.611570 -0.725137
v 0.154794 2.381360 -0.628564
v 0.142450 2.151140 -0.531991
v 0.044189 2.151140 -0.542161
v 0.029285 1.999230 -0.747065
v 0.029285 1.999230 -0.747065
v 0.098845 1.999230 -0.736896
v 0.142450 2.151140 -0.531991
v 0.044189 2.151140 -0.542161
v -0.057857 2.151140 -0.542161
v -0.042954 1.999230 -0.747065
v -0.042954 1.999230 -0.747065
v 0.029285 1.999230 -0.747065
v 0.044189 2.151140 -0.542161
v -0.057857 2.151140 -0.542161
v -0.156118 2.151140 -0.531991
v -0.112514 1.999230 -0.736896
v -0.112514 1.999230 -0.736896
v -0.042954 1.999230 -0.747065
v -0.057857 2.151140 -0.542161
v -0.168463 2.284200 -0.681307
v -0.180807 2.569170 -0.749336
v -0.066295 2.569530 -0.758316
v -0.066295 2.569530 -0.758316
v -0.062076 2.284380 -0.690883
v -0.168463 2.284200 -0.681307
v -0.066295 2.569530 -0.758316
v 0.052627 2.569530 -0.758316
v 0.048408 2.284380 -0.690883
v 0.048408 2.284380 -0.690883
v -0.062076 2.284380 -0.690883
v -0.066295 2.569530 -0.758316
v 0.052627 2.569530 -0.758316
v 0.167138 2.569170 -0.749336
v 0.154794 2.284200 -0.681309
v 0.154794 2.284200 -0.681309
v 0.048408 2.284380 -0.690883
v 0.052627 2.569530 -0.758316
v -0.168463 2.381360 -0.628564
v -0.180807 2.611570 -0.725137
v -0.180807 2.569170 -0.749336
v -0.180807 2.569170 -0.749336
v -0.168463 2.284200 -0.681307
v -0.168463 2.381360 -0.628564
v 0.142450 2.151140 -0.531991
v 0.098845 1.999230 -0.736896
v 0.154794 2.284200 -0.681309
v 0.154794 2.284200 -0.681309
v 0.154794 2.381360 -0.628564
v 0.142450 2.151140 -0.531991
v -0.156118 2.151140 -0.411119
v -0.168463 2.381360 -0.507692
v -0.180807 2.611570 -0.604265
v -0.066295 2.611920 -0.613244
v -0.066295 2.611920 -0.613244
v 0.052627 2.611920 -0.613244
v 0.052627 2.611920 -0.613244
v 0.167138 2.611570 -0.604265
v 0.167138 2.611570 -0.604265
v 0.154794 2.381360 -0.507692
v 0.142450 2.151140 -0.411119
v 0.044189 2.151140 -0.421289
v 0.044189 2.151140 -0.421289
v -0.057857 2.151140 -0.421289
v -0.057857 2.151140 -0.421289
v -0.156118 2.151140 -0.411119
v -0.168463 2.381360 -0.507692
v -0.180807 2.611570 -0.604265
v 0.154794 2.381360 -0.507692
v 0.142450 2.151140 -0.411119
vn -0.1285 0.1801 -0.9752
vn -0.0875 -0.0495 -0.9949
vn -0.0489 -0.0231 -0.9985
vn -0.0489 -0.0232 -0.9985
vn -0.0666 0.1886 -0.9798
vn 0.0490 -0.0232 -0.9985
vn 0.0667 0.1886 -0.9798
vn 0.0875 -0.0495 -0.9949
vn 0.1285 0.1801 -0.9752
vn -0.9987 -0.0492 0.0103
vn -0.9988 -0.0440 0.0232
vn -0.9980 -0.0302 0.0556
vn -0.9811 -0.1776 -0.0771
vn -0.0173 0.9830 -0.1828
vn -0.0433 0.8534 -0.5194
vn -0.0694 0.4946 -0.8664
vn -0.0695 0.4945 -0.8664
vn -0.0000 0.9821 -0.1883
vn -0.0000 0.8648 -0.5021
vn -0.0000 0.4958 -0.8685
vn 0.0190 0.9788 -0.2039
vn 0.0405 0.8747 -0.4830
vn 0.0694 0.4945 -0.8664
vn 0.0695 0.4946 -0.8664
vn 0.9980 -0.0306 0.0546
vn 0.9980 -0.0300 0.0553
vn 0.9980 -0.0302 0.0551
vn 0.9980 -0.0303 0.0550
vn 0.9988 -0.0436 0.0237
vn 0.9986 -0.0521 0.0046
vn -0.0255 -0.9688 0.2465
vn -0.0351 -0.9402 0.3389
vn -0.0618 -0.7996 0.5973
vn -0.0885 -0.7911 0.6053
vn -0.0000 -0.9610 0.2767
vn -0.0000 -0.9515 0.3077
vn -0.0000 -0.8033 0.5956
vn 0.0326 -0.9487 0.3146
vn 0.0290 -0.9595 0.2802
vn 0.0624 -0.7954 0.6029
vn 0.0873 -0.7972 0.5974
vn -0.0875 -0.0496 -0.9949
vn -0.0753 -0.2346 -0.9692
vn -0.0394 -0.2320 -0.9719
vn 0.0395 -0.2320 -0.9719
vn 0.0490 -0.0233 -0.9985
vn 0.0753 -0.2346 -0.9692
vn 0.0875 -0.0496 -0.9949
vn -0.9986 -0.0521 0.0046
vn -0.9988 -0.0436 0.0237
vn -0.9980 -0.0303 0.0550
vn -0.9980 -0.0302 0.0551
vn -0.9980 -0.0300 0.0553
vn -0.9980 -0.0306 0.0546
vn 0.9811 -0.1776 -0.0771
vn 0.9980 -0.0302 0.0556
vn 0.9988 -0.0440 0.0231
vn 0.9987 -0.0492 0.0103
vn 0.9986 -0.0529 -0.0010
vn 0.9986 -0.0535 -0.0000
vn -0.0000 -1.0000 -0.0000
vn -0.9986 -0.0532 0.0004
vn -0.9986 -0.0535 -0.0000
vn -0.0000 1.0000 -0.0000
vn -0.0031 1.0000 -0.0000
vn -0.9986 -0.0530 -0.0009
vn 0.9986 -0.0532 0.0004
vn 0.0031 1.0000 -0.0000
vt 0.434783 0.586956
vt 0.434783 0.597826
vt 0.478261 0.597826
vt 0.478261 0.586956
vt 0.521739 0.597826
vt 0.521739 0.586956
vt 0.565217 0.597826
vt 0.565217 0.586956
vt 0.434783 0.608696
vt 0.478261 0.608696
vt 0.521739 0.608696
vt 0.565217 0.608696
s 1
f 1/1/1 2/2/2 3/3/3
f 4/3/4 5/4/5 6/1/1
f 7/3/3 8/5/6 9/6/7
f 10/6/7 11/4/5 12/3/3
f 13/5/6 14/7/8 15/8/9
f 16/8/9 17/6/7 18/5/6
f 19/1/10 20/2/11 21/2/12
f 22/2/13 23/1/13 24/1/13
f 25/9/14 26/10/15 27/10/16
f 28/10/17 29/9/17 30/9/17
f 31/10/18 32/11/19 33/11/20
f 34/11/20 35/10/20 36/10/20
f 37/11/21 38/12/22 39/12/23
f 40/12/24 41/11/24 42/11/24
f 43/7/25 44/7/26 45/12/27
f 46/12/28 47/12/29 48/7/30
f 49/8/31 50/6/32 51/6/33
f 52/6/34 53/8/34 54/8/34
f 55/6/35 56/4/36 57/4/37
f 58/4/37 59/6/37 60/6/37
f 61/4/38 62/1/39 63/1/40
f 64/1/41 65/4/41 66/4/41
f 67/2/42 68/9/43 69/10/44
f 70/10/44 71/3/4 72/2/42
f 73/10/44 74/11/45 75/5/46
f 76/5/46 77/3/4 78/10/44
f 79/11/45 80/12/47 81/7/48
f 82/7/48 83/5/46 84/11/45
f 85/2/49 86/9/50 87/9/51
f 88/9/52 89/2/53 90/2/54
f 91/8/55 92/8/55 93/7/55
f 94/7/56 95/7/57 96/8/58
f 96/8/58 95/7/57 115/7/59 116/8/60
f 62/1/39 61/4/38 111/4/61 112/1/61
f 86/9/50 85/2/49 113/2/62 114/9/63
f 32/11/19 31/10/18 101/10/64 102/11/64
f 56/4/36 55/6/35 109/6/61 110/4/61
f 26/10/15 25/9/14 99/9/65 100/10/65
f 50/6/32 49/8/31 107/8/61 108/6/61
f 20/2/11 19/1/10 97/1/63 98/2/66
f 48/7/30 47/12/29 105/12/60 106/7/67
f 38/12/22 37/11/21 103/11/68 104/12/68
