v -0.976885 -0.207327 0.310766
v -1.03251 -0.168994 -0.066053
v -1.18621 -0.209917 -0.062759
v -1.18621 -0.209917 -0.062759
v -1.12133 -0.257949 0.402625
v -0.976885 -0.207327 0.310766
v -1.11215 -0.285704 0.427319
v -0.954244 -0.239313 0.322456
v -0.976885 -0.207327 0.310766
v -0.976885 -0.207327 0.310766
v -1.12133 -0.257949 0.402625
v -1.11215 -0.285704 0.427319
v -0.954244 -0.239313 0.322456
v -1.01505 -0.233482 -0.091575
v -1.03251 -0.168994 -0.066053
v -1.03251 -0.168994 -0.066053
v -0.976885 -0.207327 0.310766
v -0.954244 -0.239313 0.322456
v -1.01505 -0.233482 -0.091575
v -1.18308 -0.277724 -0.084089
v -1.18621 -0.209917 -0.062759
v -1.18621 -0.209917 -0.062759
v -1.03251 -0.168994 -0.066053
v -1.01505 -0.233482 -0.091575
v -1.18308 -0.277724 -0.084089
v -1.11215 -0.285704 0.427319
v -1.12133 -0.257949 0.402625
v -1.12133 -0.257949 0.402625
v -1.18621 -0.209917 -0.062759
v -1.18308 -0.277724 -0.084089
vn -0.2511 0.9586 0.1341
vn -0.2522 0.9582 0.1347
vn -0.2519 0.9584 0.1345
vn -0.2518 0.9584 0.1345
vn -0.2508 0.9587 0.1339
vn -0.2512 0.9586 0.1342
vn 0.3544 0.5319 0.769
vn 0.3544 0.5319 0.769
vn 0.3544 0.5319 0.769
vn 0.2026 0.6875 0.6974
vn 0.2026 0.6875 0.6974
vn 0.2026 0.6875 0.6974
vn 0.9419 0.308 -0.134
vn 0.9419 0.308 -0.134
vn 0.9419 0.308 -0.134
vn 0.8255 0.5606 -0.0648
vn 0.8255 0.5606 -0.0648
vn 0.8255 0.5606 -0.0648
vn -0.1194 0.2929 -0.9487
vn -0.1194 0.2929 -0.9487
vn -0.1194 0.2929 -0.9487
vn -0.1105 0.3397 -0.934
vn -0.1105 0.3397 -0.934
vn -0.1105 0.3397 -0.934
vn -0.9701 -0.204 0.1314
vn -0.9701 -0.204 0.1314
vn -0.9701 -0.204 0.1314
vn -0.9879 -0.0861 0.1288
vn -0.9879 -0.0861 0.1288
vn -0.9879 -0.0861 0.1288
vt 0.628258 0.147615
vt 0.5 0.125
vt 0.5 0.0625
vt 0.5 0.0625
vt 0.649634 0.088884
vt 0.628258 0.147615
vt 0.649634 0.088884
vt 0.628258 0.147615
vt 0.628258 0.147615
vt 0.628258 0.147615
vt 0.649634 0.088884
vt 0.649634 0.088884
vt 0.628258 0.147615
vt 0.5 0.125
vt 0.5 0.125
vt 0.5 0.125
vt 0.628258 0.147615
vt 0.628258 0.147615
vt 0.5 0.125
vt 0.5 0.0625
vt 0.5 0.0625
vt 0.5 0.0625
vt 0.5 0.125
vt 0.5 0.125
vt 0.5 0.0625
vt 0.649634 0.088884
vt 0.649634 0.088884
vt 0.649634 0.088884
vt 0.5 0.0625
vt 0.5 0.0625
s off
f 1/1/1 2/2/2 3/3/3
f 4/4/4 5/5/5 6/6/6
f 7/7/7 8/8/8 9/9/9
f 10/10/10 11/11/11 12/12/12
f 13/13/13 14/14/14 15/15/15
f 16/16/16 17/17/17 18/18/18
f 19/19/19 20/20/20 21/21/21
f 22/22/22 23/23/23 24/24/24
f 25/25/25 26/26/26 27/27/27
f 28/28/28 29/29/29 30/30/30
