v -1.01689 -0.168837 -0.074202
v -0.961253 -0.207225 0.30261
v -0.816831 -0.16403 0.229037
v -1.01689 -0.168837 -0.074202
v -0.816831 -0.16403 0.229037
v -0.863164 -0.134722 -0.076105
v -1.01505 -0.233482 -0.091575
v -0.954244 -0.239313 0.322456
v -0.961253 -0.207225 0.30261
v -1.01505 -0.233482 -0.091575
v -0.961253 -0.207225 0.30261
v -1.01689 -0.168837 -0.074202
v -0.954244 -0.239313 0.322456
v -0.796342 -0.199354 0.238213
v -0.816831 -0.16403 0.229037
v -0.954244 -0.239313 0.322456
v -0.816831 -0.16403 0.229037
v -0.961253 -0.207225 0.30261
v -0.796342 -0.199354 0.238213
v -0.847011 -0.196438 -0.096895
v -0.863164 -0.134722 -0.076105
v -0.796342 -0.199354 0.238213
v -0.863164 -0.134722 -0.076105
v -0.816831 -0.16403 0.229037
v -0.847011 -0.196438 -0.096895
v -1.01505 -0.233482 -0.091575
v -1.01689 -0.168837 -0.074202
v -0.847011 -0.196438 -0.096895
v -1.01689 -0.168837 -0.074202
v -0.863164 -0.134722 -0.076105
vn -0.2183 0.9674 0.1287
vn -0.2183 0.9674 0.1287
vn -0.2183 0.9674 0.1287
vn -0.2183 0.9674 0.1287
vn -0.2183 0.9674 0.1287
vn -0.2183 0.9674 0.1287
vn -0.9863 -0.0866 0.1404
vn -0.9863 -0.0866 0.1404
vn -0.9863 -0.0866 0.1404
vn -0.9863 -0.0866 0.1404
vn -0.9863 -0.0866 0.1404
vn -0.9863 -0.0866 0.1404
vn 0.2997 0.4778 0.8258
vn 0.2997 0.4778 0.8258
vn 0.2997 0.4778 0.8258
vn 0.2997 0.4778 0.8258
vn 0.2997 0.4778 0.8258
vn 0.2997 0.4778 0.8258
vn 0.9237 0.3633 -0.1217
vn 0.9237 0.3633 -0.1217
vn 0.9237 0.3633 -0.1217
vn 0.9237 0.3633 -0.1217
vn 0.9237 0.3633 -0.1217
vn 0.9237 0.3633 -0.1217
vn -0.0828 0.2773 -0.9572
vn -0.0828 0.2773 -0.9572
vn -0.0828 0.2773 -0.9572
vn -0.0828 0.2773 -0.9572
vn -0.0828 0.2773 -0.9572
vn -0.0828 0.2773 -0.9572
vt 0.5 0.125
vt 0.628258 0.147615
vt 0.606881 0.206346
vt 0.5 0.125
vt 0.606881 0.206346
vt 0.5 0.1875
vt 0.5 0.125
vt 0.628258 0.147615
vt 0.628258 0.147615
vt 0.5 0.125
vt 0.628258 0.147615
vt 0.5 0.125
vt 0.628258 0.147615
vt 0.606881 0.206346
vt 0.606881 0.206346
vt 0.628258 0.147615
vt 0.606881 0.206346
vt 0.628258 0.147615
vt 0.606881 0.206346
vt 0.5 0.1875
vt 0.5 0.1875
vt 0.606881 0.206346
vt 0.5 0.1875
vt 0.606881 0.206346
vt 0.5 0.1875
vt 0.5 0.125
vt 0.5 0.125
vt 0.5 0.1875
vt 0.5 0.125
vt 0.5 0.1875
s off
f 1/1/1 2/2/2 3/3/3
f 4/4/4 5/5/5 6/6/6
f 7/7/7 8/8/8 9/9/9
f 10/10/10 11/11/11 12/12/12
f 13/13/13 14/14/14 15/15/15
f 16/16/16 17/17/17 18/18/18
f 19/19/19 20/20/20 21/21/21
f 22/22/22 23/23/23 24/24/24
f 25/25/25 26/26/26 27/27/27
f 28/28/28 29/29/29 30/30/30
