v 1.00345 -0.169188 -0.1093
v 0.947814 -0.207381 -0.468001
v 0.803397 -0.164797 -0.409494
v 1.00345 -0.169188 -0.1093
v 0.803397 -0.164797 -0.409494
v 0.849724 -0.135943 -0.117046
v 1.00138 -0.233482 -0.091855
v 0.940576 -0.240799 -0.486147
v 0.947814 -0.207381 -0.468001
v 1.00138 -0.233482 -0.091855
v 0.947814 -0.207381 -0.468001
v 1.00345 -0.169188 -0.1093
v 0.940576 -0.240799 -0.486147
v 0.782674 -0.200096 -0.418366
v 0.803397 -0.164797 -0.409494
v 0.940576 -0.240799 -0.486147
v 0.803397 -0.164797 -0.409494
v 0.947814 -0.207381 -0.468001
v 0.782674 -0.200096 -0.418366
v 0.833342 -0.196438 -0.097128
v 0.849724 -0.135943 -0.117046
v 0.782674 -0.200096 -0.418366
v 0.849724 -0.135943 -0.117046
v 0.803397 -0.164797 -0.409494
v 0.833342 -0.196438 -0.097128
v 1.00138 -0.233482 -0.091855
v 1.00345 -0.169188 -0.1093
v 0.833342 -0.196438 -0.097128
v 1.00345 -0.169188 -0.1093
v 0.849724 -0.135943 -0.117046
vn 0.2227 0.9656 -0.1343
vn 0.2227 0.9656 -0.1343
vn 0.2227 0.9656 -0.1343
vn 0.2227 0.9656 -0.1343
vn 0.2227 0.9656 -0.1343
vn 0.2227 0.9656 -0.1343
vn 0.9848 -0.0928 -0.1467
vn 0.9848 -0.0928 -0.1467
vn 0.9848 -0.0928 -0.1467
vn 0.9848 -0.0928 -0.1467
vn 0.9848 -0.0928 -0.1467
vn 0.9848 -0.0928 -0.1467
vn -0.2409 0.4385 -0.8659
vn -0.2409 0.4385 -0.8659
vn -0.2409 0.4385 -0.8659
vn -0.2409 0.4385 -0.8659
vn -0.2409 0.4385 -0.8659
vn -0.2409 0.4385 -0.8659
vn -0.9201 0.3709 0.1258
vn -0.9201 0.3709 0.1258
vn -0.9201 0.3709 0.1258
vn -0.9201 0.3709 0.1258
vn -0.9201 0.3709 0.1258
vn -0.9201 0.3709 0.1258
vn 0.0232 0.2836 0.9587
vn 0.0232 0.2836 0.9587
vn 0.0232 0.2836 0.9587
vn 0.0232 0.2836 0.9587
vn 0.0232 0.2836 0.9587
vn 0.0232 0.2836 0.9587
vt 0.5 0.875
vt 0.371742 0.852385
vt 0.393119 0.793654
vt 0.5 0.875
vt 0.393119 0.793654
vt 0.5 0.8125
vt 0.5 0.875
vt 0.371742 0.852385
vt 0.371742 0.852385
vt 0.5 0.875
vt 0.371742 0.852385
vt 0.5 0.875
vt 0.371742 0.852385
vt 0.393119 0.793654
vt 0.393119 0.793654
vt 0.371742 0.852385
vt 0.393119 0.793654
vt 0.371742 0.852385
vt 0.393119 0.793654
vt 0.5 0.8125
vt 0.5 0.8125
vt 0.393119 0.793654
vt 0.5 0.8125
vt 0.393119 0.793654
vt 0.5 0.8125
vt 0.5 0.875
vt 0.5 0.875
vt 0.5 0.8125
vt 0.5 0.875
vt 0.5 0.8125
s off
f 1/1/1 2/2/2 3/3/3
f 4/4/4 5/5/5 6/6/6
f 7/7/7 8/8/8 9/9/9
f 10/10/10 11/11/11 12/12/12
f 13/13/13 14/14/14 15/15/15
f 16/16/16 17/17/17 18/18/18
f 19/19/19 20/20/20 21/21/21
f 22/22/22 23/23/23 24/24/24
f 25/25/25 26/26/26 27/27/27
f 28/28/28 29/29/29 30/30/30
