v 1.00322 -0.168842 -0.074485
v 0.849496 -0.134731 -0.076346
v 0.803163 -0.164028 0.228676
v 0.803163 -0.164028 0.228676
v 0.947585 -0.207214 0.30215
v 1.00322 -0.168842 -0.074485
v 0.940575 -0.239313 0.321984
v 1.00138 -0.233482 -0.091855
v 1.00322 -0.168842 -0.074485
v 1.00322 -0.168842 -0.074485
v 0.947585 -0.207214 0.30215
v 0.940575 -0.239313 0.321984
v 1.00138 -0.233482 -0.091855
v 0.833342 -0.196438 -0.097128
v 0.849496 -0.134731 -0.076346
v 0.849496 -0.134731 -0.076346
v 1.00322 -0.168842 -0.074485
v 1.00138 -0.233482 -0.091855
v 0.833342 -0.196438 -0.097128
v 0.782674 -0.199354 0.237848
v 0.803163 -0.164028 0.228676
v 0.803163 -0.164028 0.228676
v 0.849496 -0.134731 -0.076346
v 0.833342 -0.196438 -0.097128
v 0.782674 -0.199354 0.237848
v 0.940575 -0.239313 0.321984
v 0.947585 -0.207214 0.30215
v 0.947585 -0.207214 0.30215
v 0.803163 -0.164028 0.228676
v 0.782674 -0.199354 0.237848
vn 0.2161 0.968 0.1273
vn 0.2135 0.9689 0.1255
vn 0.2201 0.9668 0.1299
vn 0.2201 0.9668 0.1299
vn 0.2221 0.9661 0.1312
vn 0.2161 0.968 0.1273
vn 0.9873 -0.0668 0.1441
vn 0.9873 -0.0668 0.1441
vn 0.9873 -0.0668 0.1441
vn 0.9823 -0.1333 0.1315
vn 0.9823 -0.1333 0.1315
vn 0.9823 -0.1333 0.1315
vn 0.0949 0.2953 -0.9507
vn 0.0949 0.2953 -0.9507
vn 0.0949 0.2953 -0.9507
vn 0.0687 0.2571 -0.9639
vn 0.0687 0.2571 -0.9639
vn 0.0687 0.2571 -0.9639
vn -0.872 0.4726 -0.1278
vn -0.872 0.4726 -0.1278
vn -0.872 0.4726 -0.1278
vn -0.9505 0.2881 -0.1167
vn -0.9505 0.2881 -0.1167
vn -0.9505 0.2881 -0.1167
vn -0.281 0.5481 0.7878
vn -0.281 0.5481 0.7878
vn -0.281 0.5481 0.7878
vn -0.3152 0.4056 0.858
vn -0.3152 0.4056 0.858
vn -0.3152 0.4056 0.858
vt 0.5 0.875
vt 0.5 0.8125
vt 0.606881 0.793654
vt 0.606881 0.793654
vt 0.628258 0.852385
vt 0.5 0.875
vt 0.628258 0.852385
vt 0.5 0.875
vt 0.5 0.875
vt 0.5 0.875
vt 0.628258 0.852385
vt 0.628258 0.852385
vt 0.5 0.875
vt 0.5 0.8125
vt 0.5 0.8125
vt 0.5 0.8125
vt 0.5 0.875
vt 0.5 0.875
vt 0.5 0.8125
vt 0.606881 0.793654
vt 0.606881 0.793654
vt 0.606881 0.793654
vt 0.5 0.8125
vt 0.5 0.8125
vt 0.606881 0.793654
vt 0.628258 0.852385
vt 0.628258 0.852385
vt 0.628258 0.852385
vt 0.606881 0.793654
vt 0.606881 0.793654
s off
f 1/1/1 2/2/2 3/3/3
f 4/4/4 5/5/5 6/6/6
f 7/7/7 8/8/8 9/9/9
f 10/10/10 11/11/11 12/12/12
f 13/13/13 14/14/14 15/15/15
f 16/16/16 17/17/17 18/18/18
f 19/19/19 20/20/20 21/21/21
f 22/22/22 23/23/23 24/24/24
f 25/25/25 26/26/26 27/27/27
f 28/28/28 29/29/29 30/30/30
