# Blender 5.2.0 LTS
# www.blender.org
mtllib button_02.mtl
o button_02
v -0.346800 2.849380 -0.272727
v -0.282266 2.846450 -0.267650
v -0.282266 2.830970 -0.240831
v -0.346800 2.832920 -0.244215
v -0.346800 2.832920 -0.244215
v -0.282266 2.830970 -0.240831
v -0.282267 2.815490 -0.214011
v -0.346800 2.816460 -0.215703
v -0.346800 2.816460 -0.215703
v -0.282267 2.815490 -0.214011
v -0.282266 2.800000 -0.187191
v -0.346800 2.800000 -0.187191
v -0.346800 2.800000 -0.187191
v -0.282266 2.800000 -0.187191
v -0.282267 2.784520 -0.160372
v -0.346800 2.783540 -0.158679
v -0.346800 2.783540 -0.158679
v -0.282267 2.784520 -0.160372
v -0.282266 2.769030 -0.133552
v -0.346800 2.767080 -0.130168
v -0.346800 2.767080 -0.130168
v -0.282266 2.769030 -0.133552
v -0.282266 2.753550 -0.106732
v -0.346800 2.750620 -0.101656
v -0.282266 2.846450 -0.267650
v -0.217733 2.837660 -0.252421
v -0.217733 2.825110 -0.230678
v -0.282266 2.830970 -0.240831
v -0.282266 2.830970 -0.240831
v -0.217733 2.825110 -0.230678
v -0.217733 2.812550 -0.208935
v -0.282267 2.815490 -0.214011
v -0.282267 2.815490 -0.214011
v -0.217733 2.812550 -0.208935
v -0.217733 2.800000 -0.187191
v -0.282266 2.800000 -0.187191
v -0.282266 2.800000 -0.187191
v -0.217733 2.800000 -0.187191
v -0.217733 2.787450 -0.165448
v -0.282267 2.784520 -0.160372
v -0.282267 2.784520 -0.160372
v -0.217733 2.787450 -0.165448
v -0.217733 2.774890 -0.143706
v -0.282266 2.769030 -0.133552
v -0.282266 2.769030 -0.133552
v -0.217733 2.774890 -0.143706
v -0.217733 2.762340 -0.121961
v -0.282266 2.753550 -0.106732
v -0.217733 2.837660 -0.252421
v -0.153200 2.823010 -0.227039
v -0.153200 2.815340 -0.213757
v -0.217733 2.825110 -0.230678
v -0.217733 2.825110 -0.230678
v -0.153200 2.815340 -0.213757
v -0.153200 2.807670 -0.200475
v -0.217733 2.812550 -0.208935
v -0.217733 2.812550 -0.208935
v -0.153200 2.807670 -0.200475
v -0.153200 2.800000 -0.187191
v -0.217733 2.800000 -0.187191
v -0.217733 2.800000 -0.187191
v -0.153200 2.800000 -0.187191
v -0.153200 2.792330 -0.173909
v -0.217733 2.787450 -0.165448
v -0.217733 2.787450 -0.165448
v -0.153200 2.792330 -0.173909
v -0.153200 2.784660 -0.160627
v -0.217733 2.774890 -0.143706
v -0.217733 2.774890 -0.143706
v -0.153200 2.784660 -0.160627
v -0.153200 2.776990 -0.147344
v -0.217733 2.762340 -0.121961
v -0.346800 2.929000 -0.226761
v -0.346800 2.912540 -0.198251
v -0.282266 2.910580 -0.194865
v -0.282266 2.926070 -0.221685
v -0.346800 2.912540 -0.198251
v -0.346800 2.896080 -0.169739
v -0.282267 2.895100 -0.168047
v -0.282266 2.910580 -0.194865
v -0.346800 2.896080 -0.169739
v -0.346800 2.879610 -0.141227
v -0.282266 2.879610 -0.141227
v -0.282267 2.895100 -0.168047
v -0.346800 2.879610 -0.141227
v -0.346800 2.863150 -0.112715
v -0.282267 2.864130 -0.114407
v -0.282266 2.879610 -0.141227
v -0.346800 2.863150 -0.112715
v -0.346800 2.846690 -0.084202
v -0.282267 2.848640 -0.087587
v -0.282267 2.864130 -0.114407
v -0.346800 2.846690 -0.084202
v -0.346800 2.830230 -0.055690
v -0.282267 2.833160 -0.060768
v -0.282267 2.848640 -0.087587
v -0.282266 2.926070 -0.221685
v -0.282266 2.910580 -0.194865
v -0.217733 2.904720 -0.184712
v -0.217733 2.917270 -0.206456
v -0.282266 2.910580 -0.194865
v -0.282267 2.895100 -0.168047
v -0.217733 2.892170 -0.162969
v -0.217733 2.904720 -0.184712
v -0.282267 2.895100 -0.168047
v -0.282266 2.879610 -0.141227
v -0.217733 2.879610 -0.141227
v -0.217733 2.892170 -0.162969
v -0.282266 2.879610 -0.141227
v -0.282267 2.864130 -0.114407
v -0.217733 2.867060 -0.119484
v -0.217733 2.879610 -0.141227
v -0.282267 2.864130 -0.114407
v -0.282267 2.848640 -0.087587
v -0.217733 2.854510 -0.097739
v -0.217733 2.867060 -0.119484
v -0.282267 2.848640 -0.087587
v -0.282267 2.833160 -0.060768
v -0.217733 2.841950 -0.075996
v -0.217733 2.854510 -0.097739
v -0.217733 2.917270 -0.206456
v -0.217733 2.904720 -0.184712
v -0.153200 2.894950 -0.167791
v -0.153200 2.902620 -0.181075
v -0.217733 2.904720 -0.184712
v -0.217733 2.892170 -0.162969
v -0.153200 2.887280 -0.154509
v -0.153200 2.894950 -0.167791
v -0.217733 2.892170 -0.162969
v -0.217733 2.879610 -0.141227
v -0.153200 2.879610 -0.141227
v -0.153200 2.887280 -0.154509
v -0.217733 2.879610 -0.141227
v -0.217733 2.867060 -0.119484
v -0.153200 2.871950 -0.127944
v -0.153200 2.879610 -0.141227
v -0.217733 2.867060 -0.119484
v -0.217733 2.854510 -0.097739
v -0.153200 2.864280 -0.114662
v -0.153200 2.871950 -0.127944
v -0.217733 2.854510 -0.097739
v -0.217733 2.841950 -0.075996
v -0.153200 2.856610 -0.101379
v -0.153200 2.864280 -0.114662
v -0.346800 2.849380 -0.272727
v -0.346800 2.832920 -0.244215
v -0.346800 2.859460 -0.228893
v -0.346800 2.875920 -0.257405
v -0.346800 2.832920 -0.244215
v -0.346800 2.816460 -0.215703
v -0.346800 2.843000 -0.200381
v -0.346800 2.859460 -0.228893
v -0.346800 2.816460 -0.215703
v -0.346800 2.800000 -0.187191
v -0.346800 2.826540 -0.171870
v -0.346800 2.843000 -0.200381
v -0.346800 2.800000 -0.187191
v -0.346800 2.783540 -0.158679
v -0.346800 2.810080 -0.143358
v -0.346800 2.826540 -0.171870
v -0.346800 2.783540 -0.158679
v -0.346800 2.767080 -0.130168
v -0.346800 2.793610 -0.114846
v -0.346800 2.810080 -0.143358
v -0.346800 2.767080 -0.130168
v -0.346800 2.750620 -0.101656
v -0.346800 2.777150 -0.086334
v -0.346800 2.793610 -0.114846
v -0.346800 2.875920 -0.257405
v -0.346800 2.859460 -0.228893
v -0.346800 2.886000 -0.213571
v -0.346800 2.902460 -0.242083
v -0.346800 2.859460 -0.228893
v -0.346800 2.843000 -0.200381
v -0.346800 2.869540 -0.185061
v -0.346800 2.886000 -0.213571
v -0.346800 2.843000 -0.200381
v -0.346800 2.826540 -0.171870
v -0.346800 2.853080 -0.156549
v -0.346800 2.869540 -0.185061
v -0.346800 2.826540 -0.171870
v -0.346800 2.810080 -0.143358
v -0.346800 2.836620 -0.128036
v -0.346800 2.853080 -0.156549
v -0.346800 2.810080 -0.143358
v -0.346800 2.793610 -0.114846
v -0.346800 2.820150 -0.099524
v -0.346800 2.836620 -0.128036
v -0.346800 2.793610 -0.114846
v -0.346800 2.777150 -0.086334
v -0.346800 2.803690 -0.071012
v -0.346800 2.820150 -0.099524
v -0.346800 2.902460 -0.242083
v -0.346800 2.886000 -0.213571
v -0.346800 2.912540 -0.198251
v -0.346800 2.929000 -0.226761
v -0.346800 2.886000 -0.213571
v -0.346800 2.869540 -0.185061
v -0.346800 2.896080 -0.169739
v -0.346800 2.912540 -0.198251
v -0.346800 2.869540 -0.185061
v -0.346800 2.853080 -0.156549
v -0.346800 2.879610 -0.141227
v -0.346800 2.896080 -0.169739
v -0.346800 2.853080 -0.156549
v -0.346800 2.836620 -0.128036
v -0.346800 2.863150 -0.112715
v -0.346800 2.879610 -0.141227
v -0.346800 2.836620 -0.128036
v -0.346800 2.820150 -0.099524
v -0.346800 2.846690 -0.084202
v -0.346800 2.863150 -0.112715
v -0.346800 2.820150 -0.099524
v -0.346800 2.803690 -0.071012
v -0.346800 2.830230 -0.055690
v -0.346800 2.846690 -0.084202
v -0.346800 2.750620 -0.101656
v -0.282266 2.753550 -0.106732
v -0.282266 2.780090 -0.091410
v -0.346800 2.777150 -0.086334
v -0.282266 2.753550 -0.106732
v -0.217733 2.762340 -0.121961
v -0.217733 2.788880 -0.106640
v -0.282266 2.780090 -0.091410
v -0.217733 2.762340 -0.121961
v -0.153200 2.776990 -0.147344
v -0.153200 2.803530 -0.132023
v -0.217733 2.788880 -0.106640
v -0.346800 2.777150 -0.086334
v -0.282266 2.780090 -0.091410
v -0.282266 2.806620 -0.076090
v -0.346800 2.803690 -0.071012
v -0.282266 2.780090 -0.091410
v -0.217733 2.788880 -0.106640
v -0.217733 2.815420 -0.091318
v -0.282266 2.806620 -0.076090
v -0.217733 2.788880 -0.106640
v -0.153200 2.803530 -0.132023
v -0.153200 2.830070 -0.116701
v -0.217733 2.815420 -0.091318
v -0.346800 2.803690 -0.071012
v -0.282266 2.806620 -0.076090
v -0.282267 2.833160 -0.060768
v -0.346800 2.830230 -0.055690
v -0.282266 2.806620 -0.076090
v -0.217733 2.815420 -0.091318
v -0.217733 2.841950 -0.075996
v -0.282267 2.833160 -0.060768
v -0.217733 2.815420 -0.091318
v -0.153200 2.830070 -0.116701
v -0.153200 2.856610 -0.101379
v -0.217733 2.841950 -0.075996
v -0.153200 2.776990 -0.147344
v -0.153200 2.784660 -0.160627
v -0.153200 2.811200 -0.145305
v -0.153200 2.803530 -0.132023
v -0.153200 2.784660 -0.160627
v -0.153200 2.792330 -0.173909
v -0.153200 2.818870 -0.158587
v -0.153200 2.811200 -0.145305
v -0.153200 2.792330 -0.173909
v -0.153200 2.800000 -0.187191
v -0.153200 2.826540 -0.171870
v -0.153200 2.818870 -0.158587
v -0.153200 2.800000 -0.187191
v -0.153200 2.807670 -0.200475
v -0.153200 2.834210 -0.185153
v -0.153200 2.826540 -0.171870
v -0.153200 2.807670 -0.200475
v -0.153200 2.815340 -0.213757
v -0.153200 2.841880 -0.198435
v -0.153200 2.834210 -0.185153
v -0.153200 2.815340 -0.213757
v -0.153200 2.823010 -0.227039
v -0.153200 2.849540 -0.211717
v -0.153200 2.841880 -0.198435
v -0.153200 2.803530 -0.132023
v -0.153200 2.811200 -0.145305
v -0.153200 2.837740 -0.129983
v -0.153200 2.830070 -0.116701
v -0.153200 2.811200 -0.145305
v -0.153200 2.818870 -0.158587
v -0.153200 2.845410 -0.143266
v -0.153200 2.837740 -0.129983
v -0.153200 2.818870 -0.158587
v -0.153200 2.826540 -0.171870
v -0.153200 2.853080 -0.156549
v -0.153200 2.845410 -0.143266
v -0.153200 2.826540 -0.171870
v -0.153200 2.834210 -0.185153
v -0.153200 2.860740 -0.169831
v -0.153200 2.853080 -0.156549
v -0.153200 2.834210 -0.185153
v -0.153200 2.841880 -0.198435
v -0.153200 2.868410 -0.183113
v -0.153200 2.860740 -0.169831
v -0.153200 2.841880 -0.198435
v -0.153200 2.849540 -0.211717
v -0.153200 2.876080 -0.196395
v -0.153200 2.868410 -0.183113
v -0.153200 2.830070 -0.116701
v -0.153200 2.837740 -0.129983
v -0.153200 2.864280 -0.114662
v -0.153200 2.856610 -0.101379
v -0.153200 2.837740 -0.129983
v -0.153200 2.845410 -0.143266
v -0.153200 2.871950 -0.127944
v -0.153200 2.864280 -0.114662
v -0.153200 2.845410 -0.143266
v -0.153200 2.853080 -0.156549
v -0.153200 2.879610 -0.141227
v -0.153200 2.871950 -0.127944
v -0.153200 2.853080 -0.156549
v -0.153200 2.860740 -0.169831
v -0.153200 2.887280 -0.154509
v -0.153200 2.879610 -0.141227
v -0.153200 2.860740 -0.169831
v -0.153200 2.868410 -0.183113
v -0.153200 2.894950 -0.167791
v -0.153200 2.887280 -0.154509
v -0.153200 2.868410 -0.183113
v -0.153200 2.876080 -0.196395
v -0.153200 2.902620 -0.181075
v -0.153200 2.894950 -0.167791
v -0.153200 2.823010 -0.227039
v -0.217733 2.837660 -0.252421
v -0.217733 2.864200 -0.237099
v -0.153200 2.849540 -0.211717
v -0.217733 2.837660 -0.252421
v -0.282266 2.846450 -0.267650
v -0.282267 2.872990 -0.252329
v -0.217733 2.864200 -0.237099
v -0.282266 2.846450 -0.267650
v -0.346800 2.849380 -0.272727
v -0.346800 2.875920 -0.257405
v -0.282267 2.872990 -0.252329
v -0.153200 2.849540 -0.211717
v -0.217733 2.864200 -0.237099
v -0.217734 2.890740 -0.221778
v -0.153200 2.876080 -0.196395
v -0.217733 2.864200 -0.237099
v -0.282267 2.872990 -0.252329
v -0.282266 2.899530 -0.237007
v -0.217734 2.890740 -0.221778
v -0.282267 2.872990 -0.252329
v -0.346800 2.875920 -0.257405
v -0.346800 2.902460 -0.242083
v -0.282266 2.899530 -0.237007
v -0.153200 2.876080 -0.196395
v -0.217734 2.890740 -0.221778
v -0.217733 2.917270 -0.206456
v -0.153200 2.902620 -0.181075
v -0.217734 2.890740 -0.221778
v -0.282266 2.899530 -0.237007
v -0.282266 2.926070 -0.221685
v -0.217733 2.917270 -0.206456
v -0.282266 2.899530 -0.237007
v -0.346800 2.902460 -0.242083
v -0.346800 2.929000 -0.226761
v -0.282266 2.926070 -0.221685
v -0.346800 2.750620 -0.101656
v -0.282266 2.780090 -0.091410
v -0.282266 2.753550 -0.106732
v -0.346800 2.777150 -0.086334
v -0.282266 2.753550 -0.106732
v -0.217733 2.788880 -0.106640
v -0.217733 2.762340 -0.121961
v -0.282266 2.780090 -0.091410
v -0.217733 2.762340 -0.121961
v -0.153200 2.803530 -0.132023
v -0.153200 2.776990 -0.147344
v -0.217733 2.788880 -0.106640
v -0.346800 2.777150 -0.086334
v -0.282266 2.806620 -0.076090
v -0.282266 2.780090 -0.091410
v -0.346800 2.803690 -0.071012
v -0.282266 2.780090 -0.091410
v -0.217733 2.815420 -0.091318
v -0.217733 2.788880 -0.106640
v -0.282266 2.806620 -0.076090
v -0.217733 2.788880 -0.106640
v -0.153200 2.830070 -0.116701
v -0.153200 2.803530 -0.132023
v -0.217733 2.815420 -0.091318
v -0.346800 2.803690 -0.071012
v -0.282267 2.833160 -0.060768
v -0.282266 2.806620 -0.076090
v -0.346800 2.830230 -0.055690
v -0.282266 2.806620 -0.076090
v -0.217733 2.841950 -0.075996
v -0.217733 2.815420 -0.091318
v -0.282267 2.833160 -0.060768
v -0.217733 2.815420 -0.091318
v -0.153200 2.856610 -0.101379
v -0.153200 2.830070 -0.116701
v -0.217733 2.841950 -0.075996
v -0.346800 2.750620 -0.101656
v -0.282266 2.780090 -0.091410
v -0.282266 2.753550 -0.106732
v -0.346800 2.777150 -0.086334
v -0.282266 2.753550 -0.106732
v -0.217733 2.788880 -0.106640
v -0.217733 2.762340 -0.121961
v -0.282266 2.780090 -0.091410
v -0.217733 2.762340 -0.121961
v -0.153200 2.803530 -0.132023
v -0.153200 2.776990 -0.147344
v -0.217733 2.788880 -0.106640
v -0.346800 2.777150 -0.086334
v -0.282266 2.806620 -0.076090
v -0.282266 2.780090 -0.091410
v -0.346800 2.803690 -0.071012
v -0.282266 2.780090 -0.091410
v -0.217733 2.815420 -0.091318
v -0.217733 2.788880 -0.106640
v -0.282266 2.806620 -0.076090
v -0.217733 2.788880 -0.106640
v -0.153200 2.830070 -0.116701
v -0.153200 2.803530 -0.132023
v -0.217733 2.815420 -0.091318
v -0.346800 2.803690 -0.071012
v -0.282267 2.833160 -0.060768
v -0.282266 2.806620 -0.076090
v -0.346800 2.830230 -0.055690
v -0.282266 2.806620 -0.076090
v -0.217733 2.841950 -0.075996
v -0.217733 2.815420 -0.091318
v -0.282267 2.833160 -0.060768
v -0.217733 2.815420 -0.091318
v -0.153200 2.856610 -0.101379
v -0.153200 2.830070 -0.116701
v -0.217733 2.841950 -0.075996
vn -0.0000 -0.8660 -0.5000
vn -0.0000 -0.8661 -0.4999
vn 0.0001 -0.8661 -0.4999
vn 0.0001 -0.8660 -0.5000
vn 0.0001 -0.8659 -0.5001
vn 0.0001 -0.8660 -0.5001
vn -0.0000 -0.8660 -0.5001
vn -0.0000 -0.8659 -0.5002
vn -0.0001 -0.8660 -0.5000
vn 0.0001 -0.8659 -0.5002
vn -0.0001 -0.8661 -0.4999
vn -0.0000 -0.8659 -0.5001
vn 0.0001 -0.8662 -0.4998
vn -0.0001 -0.8659 -0.5001
vn -0.0001 -0.8659 -0.5002
vn -0.0001 -0.8660 -0.5001
vn -0.0000 0.8660 0.5000
vn 0.0001 0.8660 0.5000
vn -0.0000 0.8660 0.5001
vn -0.0000 0.8659 0.5002
vn 0.0001 0.8661 0.5000
vn 0.0001 0.8661 0.4999
vn -0.0001 0.8659 0.5001
vn -0.0000 0.8659 0.5001
vn -0.0000 0.8661 0.5000
vn -0.0000 0.8661 0.4999
vn -0.0001 0.8660 0.5001
vn -0.0000 0.8662 0.4997
vn -0.0001 0.8659 0.5002
vn -0.0001 0.8660 0.5000
vn 0.0001 0.8660 0.5001
vn -0.0001 0.8661 0.4999
vn -0.0000 0.8662 0.4996
vn -1.0000 -0.0000 -0.0000
vn -0.0727 0.4000 0.9136
vn -0.0823 0.3045 0.9490
vn -0.1401 0.3925 0.9090
vn -0.0723 0.4001 0.9136
vn -0.1331 0.4119 0.9015
vn -0.2252 0.2940 0.9289
vn -0.2600 0.3574 0.8970
vn -0.0973 0.4036 0.9098
vn -0.2408 0.3821 0.8922
vn -0.3043 0.3351 0.8917
vn -0.2114 0.3799 0.9005
vn -0.0727 0.3999 0.9137
vn -0.0823 0.3046 0.9489
vn -0.1401 0.3926 0.9090
vn -0.1331 0.4120 0.9014
vn -0.0973 0.4037 0.9097
vn -0.0823 0.3045 0.9489
vn -0.1401 0.3924 0.9090
vn -0.2253 0.2942 0.9288
vn -0.2600 0.3575 0.8970
vn -0.2408 0.3822 0.8921
vn -0.3043 0.3350 0.8917
vn -0.2114 0.3800 0.9005
vn 1.0000 -0.0000 -0.0000
vn 0.4135 0.4553 -0.7885
vn 0.3393 0.4703 -0.8147
vn 0.3393 0.4704 -0.8146
vn 0.4135 0.4553 -0.7884
vn 0.1774 0.4921 -0.8523
vn 0.0905 0.4979 -0.8625
vn 0.4136 0.4552 -0.7885
vn 0.3393 0.4703 -0.8146
vn 0.4135 0.4552 -0.7885
vn 0.0904 0.4979 -0.8625
vn -0.0000 0.0792 0.9969
vn -0.0000 -0.0000 1.0000
vn 0.0320 -0.2623 0.9645
vn 0.0311 -0.1713 0.9847
vn -0.0937 -0.0043 0.9956
vn 0.0315 -0.1713 0.9847
vn 0.2327 -0.1432 0.9619
vn 0.1448 -0.1594 0.9765
vn 0.0321 -0.2623 0.9645
vn 0.1400 -0.0803 0.9869
vn 0.2326 -0.1432 0.9620
vn -0.0698 -0.0095 0.9975
vn -0.0000 -0.0838 0.9965
vn -0.0000 -0.0837 0.9965
vn 0.1748 -0.1574 0.9719
vn 0.0884 -0.0963 0.9914
vn 0.0183 -0.2061 0.9784
vn 0.0939 -0.2618 0.9605
vn 0.1749 -0.1574 0.9719
vn 0.0939 -0.2619 0.9605
vn 0.0884 -0.0964 0.9914
vn 0.0184 -0.2061 0.9784
vt 1.000000 1.000000
vt 1.000000 0.666667
vt 0.833333 0.666667
vt 0.833333 1.000000
vt 0.666667 0.666667
vt 0.666667 1.000000
vt 0.500000 0.666667
vt 0.500000 1.000000
vt 0.333333 0.666667
vt 0.333333 1.000000
vt 0.166667 0.666667
vt 0.166667 1.000000
vt -0.000000 0.666667
vt -0.000000 1.000000
vt 1.000000 0.333333
vt 0.833333 0.333333
vt 0.666667 0.333333
vt 0.500000 0.333333
vt 0.333333 0.333333
vt 0.166667 0.333333
vt -0.000000 0.333333
vt 1.000000 0.000000
vt 0.833333 0.000000
vt 0.666667 0.000000
vt 0.500000 0.000000
vt 0.333333 0.000000
vt 0.166667 0.000000
vt -0.000000 0.000000
s 1
f 1/1/1 2/2/2 3/3/2
f 1/1/1 3/3/2 4/4/1
f 5/4/3 6/3/2 7/5/3
f 5/4/3 7/5/3 8/6/4
f 9/6/1 10/5/5 11/7/6
f 9/6/1 11/7/6 12/8/1
f 13/8/2 14/7/2 15/9/2
f 13/8/2 15/9/2 16/10/1
f 17/10/1 18/9/7 19/11/7
f 17/10/1 19/11/7 20/12/1
f 21/12/2 22/11/2 23/13/2
f 21/12/2 23/13/2 24/14/1
f 25/2/8 26/15/2 27/16/2
f 25/2/8 27/16/2 28/3/8
f 29/3/9 30/16/10 31/17/7
f 29/3/9 31/17/7 32/5/11
f 33/5/7 34/17/11 35/18/9
f 33/5/7 35/18/9 36/7/7
f 37/7/2 38/18/2 39/19/2
f 37/7/2 39/19/2 40/9/8
f 41/9/12 42/19/8 43/20/13
f 41/9/12 43/20/13 44/11/14
f 45/11/2 46/20/2 47/21/2
f 45/11/2 47/21/2 48/13/2
f 49/15/2 50/22/6 51/23/4
f 49/15/2 51/23/4 52/16/2
f 53/16/10 54/23/7 55/24/7
f 53/16/10 55/24/7 56/17/2
f 57/17/2 58/24/6 59/25/4
f 57/17/2 59/25/4 60/18/2
f 61/18/2 62/25/7 63/26/1
f 61/18/2 63/26/1 64/19/2
f 65/19/15 66/26/9 67/27/16
f 65/19/15 67/27/16 68/20/15
f 69/20/2 70/27/7 71/28/7
f 69/20/2 71/28/7 72/21/2
f 73/14/17 74/12/18 75/11/19
f 73/14/17 75/11/19 76/13/20
f 77/12/21 78/10/17 79/9/22
f 77/12/21 79/9/22 80/11/23
f 81/10/20 82/8/20 83/7/24
f 81/10/20 83/7/24 84/9/19
f 85/8/25 86/6/17 87/5/26
f 85/8/25 87/5/26 88/7/26
f 89/6/17 90/4/18 91/3/19
f 89/6/17 91/3/19 92/5/24
f 93/4/26 94/1/17 95/2/26
f 93/4/26 95/2/26 96/3/22
f 97/13/19 98/11/27 99/20/21
f 97/13/19 99/20/21 100/21/22
f 101/11/26 102/9/26 103/19/26
f 101/11/26 103/19/26 104/20/26
f 105/9/28 106/7/24 107/18/20
f 105/9/28 107/18/20 108/19/20
f 109/7/26 110/5/20 111/17/26
f 109/7/26 111/17/26 112/18/26
f 113/5/27 114/3/29 115/16/26
f 113/5/27 115/16/26 116/17/26
f 117/3/17 118/2/26 119/15/27
f 117/3/17 119/15/27 120/16/29
f 121/21/26 122/20/24 123/27/30
f 121/21/26 123/27/30 124/28/27
f 125/20/22 126/19/22 127/26/17
f 125/20/22 127/26/17 128/27/19
f 129/19/20 130/18/20 131/25/31
f 129/19/20 131/25/31 132/26/18
f 133/18/32 134/17/32 135/24/33
f 133/18/32 135/24/33 136/25/17
f 137/17/26 138/16/26 139/23/30
f 137/17/26 139/23/30 140/24/27
f 141/16/20 142/15/20 143/22/19
f 141/16/20 143/22/19 144/23/17
f 145/14/34 146/12/34 147/11/34
f 145/14/34 147/11/34 148/13/34
f 149/12/34 150/10/34 151/9/34
f 149/12/34 151/9/34 152/11/34
f 153/10/34 154/8/34 155/7/34
f 153/10/34 155/7/34 156/9/34
f 157/8/34 158/6/34 159/5/34
f 157/8/34 159/5/34 160/7/34
f 161/6/34 162/4/34 163/3/34
f 161/6/34 163/3/34 164/5/34
f 165/4/34 166/1/34 167/2/34
f 165/4/34 167/2/34 168/3/34
f 169/13/34 170/11/34 171/20/34
f 169/13/34 171/20/34 172/21/34
f 173/11/34 174/9/34 175/19/34
f 173/11/34 175/19/34 176/20/34
f 177/9/34 178/7/34 179/18/34
f 177/9/34 179/18/34 180/19/34
f 181/7/34 182/5/34 183/17/34
f 181/7/34 183/17/34 184/18/34
f 185/5/34 186/3/34 187/16/34
f 185/5/34 187/16/34 188/17/34
f 189/3/34 190/2/34 191/15/34
f 189/3/34 191/15/34 192/16/34
f 193/21/34 194/20/34 195/27/34
f 193/21/34 195/27/34 196/28/34
f 197/20/34 198/19/34 199/26/34
f 197/20/34 199/26/34 200/27/34
f 201/19/34 202/18/34 203/25/34
f 201/19/34 203/25/34 204/26/34
f 205/18/34 206/17/34 207/24/34
f 205/18/34 207/24/34 208/25/34
f 209/17/34 210/16/34 211/23/34
f 209/17/34 211/23/34 212/24/34
f 213/16/34 214/15/34 215/22/34
f 213/16/34 215/22/34 216/23/34
f 217/14/35 219/9/36 218/10/37
f 217/14/35 220/13/38 219/9/36
f 221/10/39 223/5/40 222/6/41
f 221/10/39 224/9/42 223/5/40
f 225/6/43 227/2/44 226/1/44
f 225/6/43 228/5/45 227/2/44
f 229/13/46 231/19/47 230/9/48
f 229/13/46 232/21/46 231/19/47
f 233/9/49 235/17/40 234/5/41
f 233/9/49 236/19/50 235/17/40
f 237/5/43 239/15/44 238/2/44
f 237/5/43 240/17/45 239/15/44
f 241/21/46 243/26/51 242/19/52
f 241/21/46 244/28/46 243/26/51
f 245/19/39 247/24/53 246/17/54
f 245/19/39 248/26/42 247/24/53
f 249/17/55 251/22/56 250/15/44
f 249/17/55 252/24/57 251/22/56
f 253/14/58 254/12/58 255/11/58
f 253/14/58 255/11/58 256/13/58
f 257/12/58 258/10/58 259/9/58
f 257/12/58 259/9/58 260/11/58
f 261/10/58 262/8/58 263/7/58
f 261/10/58 263/7/58 264/9/58
f 265/8/58 266/6/58 267/5/58
f 265/8/58 267/5/58 268/7/58
f 269/6/58 270/4/58 271/3/58
f 269/6/58 271/3/58 272/5/58
f 273/4/58 274/1/58 275/2/58
f 273/4/58 275/2/58 276/3/58
f 277/13/58 278/11/58 279/20/58
f 277/13/58 279/20/58 280/21/58
f 281/11/58 282/9/58 283/19/58
f 281/11/58 283/19/58 284/20/58
f 285/9/58 286/7/58 287/18/58
f 285/9/58 287/18/58 288/19/58
f 289/7/58 290/5/58 291/17/58
f 289/7/58 291/17/58 292/18/58
f 293/5/58 294/3/58 295/16/58
f 293/5/58 295/16/58 296/17/58
f 297/3/58 298/2/58 299/15/58
f 297/3/58 299/15/58 300/16/58
f 301/21/58 302/20/58 303/27/58
f 301/21/58 303/27/58 304/28/58
f 305/20/58 306/19/58 307/26/58
f 305/20/58 307/26/58 308/27/58
f 309/19/58 310/18/58 311/25/58
f 309/19/58 311/25/58 312/26/58
f 313/18/58 314/17/58 315/24/58
f 313/18/58 315/24/58 316/25/58
f 317/17/58 318/16/58 319/23/58
f 317/17/58 319/23/58 320/24/58
f 321/16/58 322/15/58 323/22/58
f 321/16/58 323/22/58 324/23/58
f 325/14/59 326/10/60 327/9/61
f 325/14/59 327/9/61 328/13/62
f 329/10/60 330/6/63 331/5/63
f 329/10/60 331/5/63 332/9/60
f 333/6/63 334/1/64 335/2/64
f 333/6/63 335/2/64 336/5/63
f 337/13/65 338/9/66 339/19/66
f 337/13/65 339/19/66 340/21/65
f 341/9/60 342/5/63 343/17/63
f 341/9/60 343/17/63 344/19/60
f 345/5/63 346/2/64 347/15/64
f 345/5/63 347/15/64 348/17/63
f 349/21/67 350/19/66 351/26/60
f 349/21/67 351/26/60 352/28/67
f 353/19/60 354/17/63 355/24/63
f 353/19/60 355/24/63 356/26/60
f 357/17/63 358/15/68 359/22/68
f 357/17/63 359/22/68 360/24/63
f 387/19/69 386/26/70 422/26/71 423/19/72
f 376/21/70 373/13/70 409/13/72 412/21/72
f 385/21/70 387/19/69 423/19/72 421/21/72
f 362/9/73 364/13/70 400/13/74 398/9/72
f 394/22/70 396/24/70 432/24/75 430/22/76
f 375/9/69 374/19/70 410/19/77 411/9/72
f 364/13/70 361/14/70 397/14/72 400/13/74
f 396/24/70 393/17/70 429/17/78 432/24/75
f 373/13/70 375/9/69 411/9/72 409/13/72
f 382/15/70 384/17/70 420/17/79 418/15/76
f 363/10/69 362/9/73 398/9/72 399/10/72
f 395/15/70 394/22/70 430/22/76 431/15/76
f 384/17/70 381/5/70 417/5/78 420/17/79
f 361/14/70 363/10/69 399/10/72 397/14/72
f 393/17/70 395/15/70 431/15/76 429/17/78
f 370/2/70 372/5/70 408/5/79 406/2/76
f 383/2/70 382/15/70 418/15/76 419/2/76
f 372/5/70 369/6/70 405/6/78 408/5/79
f 242/19/52 243/26/51 386/26/70 387/19/69
f 231/19/47 232/21/46 376/21/70 374/19/70
f 221/10/39 222/6/41 367/6/80 365/10/70
f 244/28/46 241/21/46 385/21/70 388/28/70
f 222/6/41 223/5/40 366/5/81 367/6/80
f 243/26/51 244/28/46 388/28/70 386/26/70
f 233/9/49 234/5/41 379/5/80 377/9/70
f 224/9/42 221/10/39 365/10/70 368/9/70
f 234/5/41 235/17/40 378/17/81 379/5/80
f 223/5/40 224/9/42 368/9/70 366/5/81
f 245/19/39 246/17/54 391/17/80 389/19/70
f 236/19/50 233/9/49 377/9/70 380/19/70
f 246/17/54 247/24/53 390/24/82 391/17/80
f 235/17/40 236/19/50 380/19/70 378/17/81
f 225/6/43 226/1/44 371/1/70 369/6/70
f 248/26/42 245/19/39 389/19/70 392/26/70
f 226/1/44 227/2/44 370/2/70 371/1/70
f 247/24/53 248/26/42 392/26/70 390/24/82
f 237/5/43 238/2/44 383/2/70 381/5/70
f 228/5/45 225/6/43 369/6/70 372/5/70
f 238/2/44 239/15/44 382/15/70 383/2/70
f 227/2/44 228/5/45 372/5/70 370/2/70
f 249/17/55 250/15/44 395/15/70 393/17/70
f 217/14/35 218/10/37 363/10/69 361/14/70
f 240/17/45 237/5/43 381/5/70 384/17/70
f 250/15/44 251/22/56 394/22/70 395/15/70
f 218/10/37 219/9/36 362/9/73 363/10/69
f 239/15/44 240/17/45 384/17/70 382/15/70
f 229/13/46 230/9/48 375/9/69 373/13/70
f 252/24/57 249/17/55 393/17/70 396/24/70
f 220/13/38 217/14/35 361/14/70 364/13/70
f 230/9/48 231/19/47 374/19/70 375/9/69
f 251/22/56 252/24/57 396/24/70 394/22/70
f 219/9/36 220/13/38 364/13/70 362/9/73
f 241/21/46 242/19/52 387/19/69 385/21/70
f 232/21/46 229/13/46 373/13/70 376/21/70
f 397/14/72 399/10/72 398/9/72
f 397/14/72 398/9/72 400/13/74
f 401/10/83 403/6/84 402/5/85
f 401/10/83 402/5/85 404/9/86
f 405/6/78 407/1/76 406/2/76
f 405/6/78 406/2/76 408/5/79
f 409/13/72 411/9/72 410/19/77
f 409/13/72 410/19/77 412/21/72
f 413/9/87 415/5/84 414/17/85
f 413/9/87 414/17/85 416/19/88
f 417/5/78 419/2/76 418/15/76
f 417/5/78 418/15/76 420/17/79
f 421/21/72 423/19/72 422/26/71
f 421/21/72 422/26/71 424/28/72
f 425/19/83 427/17/89 426/24/90
f 425/19/83 426/24/90 428/26/86
f 429/17/78 431/15/76 430/22/76
f 429/17/78 430/22/76 432/24/75
f 374/19/70 376/21/70 412/21/72 410/19/77
f 365/10/70 367/6/80 403/6/84 401/10/83
f 388/28/70 385/21/70 421/21/72 424/28/72
f 367/6/80 366/5/81 402/5/85 403/6/84
f 386/26/70 388/28/70 424/28/72 422/26/71
f 377/9/70 379/5/80 415/5/84 413/9/87
f 368/9/70 365/10/70 401/10/83 404/9/86
f 379/5/80 378/17/81 414/17/85 415/5/84
f 366/5/81 368/9/70 404/9/86 402/5/85
f 389/19/70 391/17/80 427/17/89 425/19/83
f 380/19/70 377/9/70 413/9/87 416/19/88
f 391/17/80 390/24/82 426/24/90 427/17/89
f 378/17/81 380/19/70 416/19/88 414/17/85
f 369/6/70 371/1/70 407/1/76 405/6/78
f 392/26/70 389/19/70 425/19/83 428/26/86
f 371/1/70 370/2/70 406/2/76 407/1/76
f 390/24/82 392/26/70 428/26/86 426/24/90
f 381/5/70 383/2/70 419/2/76 417/5/78
