v 1.17254 -0.209925 -0.063094
v 1.01884 -0.169006 -0.066344
v 0.963217 -0.207324 0.310299
v 1.17254 -0.209925 -0.063094
v 0.963217 -0.207324 0.310299
v 1.10766 -0.257934 0.402016
v 1.16941 -0.277724 -0.084416
v 1.00138 -0.233482 -0.091855
v 1.01884 -0.169006 -0.066344
v 1.16941 -0.277724 -0.084416
v 1.01884 -0.169006 -0.066344
v 1.17254 -0.209925 -0.063094
v 1.00138 -0.233482 -0.091855
v 0.940575 -0.239313 0.321984
v 0.963217 -0.207324 0.310299
v 1.00138 -0.233482 -0.091855
v 0.963217 -0.207324 0.310299
v 1.01884 -0.169006 -0.066344
v 0.940575 -0.239313 0.321984
v 1.09848 -0.285704 0.426691
v 1.10766 -0.257934 0.402016
v 0.940575 -0.239313 0.321984
v 1.10766 -0.257934 0.402016
v 0.963217 -0.207324 0.310299
v 1.09848 -0.285704 0.426691
v 1.16941 -0.277724 -0.084416
v 1.17254 -0.209925 -0.063094
v 1.09848 -0.285704 0.426691
v 1.17254 -0.209925 -0.063094
v 1.10766 -0.257934 0.402016
vn 0.2515 0.9585 0.1343
vn 0.2515 0.9585 0.1343
vn 0.2514 0.9585 0.1343
vn 0.2515 0.9585 0.1343
vn 0.2514 0.9585 0.1343
vn 0.2514 0.9585 0.1343
vn 0.1148 0.3156 -0.9419
vn 0.1148 0.3156 -0.9419
vn 0.1148 0.3156 -0.9419
vn 0.1148 0.3156 -0.9419
vn 0.1148 0.3156 -0.9419
vn 0.1148 0.3156 -0.9419
vn -0.9118 0.3951 -0.1122
vn -0.9118 0.3951 -0.1122
vn -0.9117 0.3951 -0.1122
vn -0.9118 0.3951 -0.1122
vn -0.9117 0.3951 -0.1122
vn -0.9118 0.3951 -0.1122
vn -0.2881 0.605 0.7422
vn -0.2881 0.6051 0.7422
vn -0.2881 0.6051 0.7422
vn -0.2881 0.605 0.7422
vn -0.2881 0.6051 0.7422
vn -0.2881 0.605 0.7423
vn 0.984 -0.1222 0.1299
vn 0.984 -0.1222 0.1299
vn 0.984 -0.1222 0.1299
vn 0.984 -0.1222 0.1299
vn 0.984 -0.1222 0.1299
vn 0.984 -0.1222 0.1299
vt 0.5 0.9375
vt 0.5 0.875
vt 0.628258 0.852385
vt 0.5 0.9375
vt 0.628258 0.852385
vt 0.649634 0.911116
vt 0.5 0.9375
vt 0.5 0.875
vt 0.5 0.875
vt 0.5 0.9375
vt 0.5 0.875
vt 0.5 0.9375
vt 0.5 0.875
vt 0.628258 0.852385
vt 0.628258 0.852385
vt 0.5 0.875
vt 0.628258 0.852385
vt 0.5 0.875
vt 0.628258 0.852385
vt 0.649634 0.911116
vt 0.649634 0.911116
vt 0.628258 0.852385
vt 0.649634 0.911116
vt 0.628258 0.852385
vt 0.649634 0.911116
vt 0.5 0.9375
vt 0.5 0.9375
vt 0.649634 0.911116
vt 0.5 0.9375
vt 0.649634 0.911116
s off
f 1/1/1 2/2/2 3/3/3
f 4/4/4 5/5/5 6/6/6
f 7/7/7 8/8/8 9/9/9
f 10/10/10 11/11/11 12/12/12
f 13/13/13 14/14/14 15/15/15
f 16/16/16 17/17/17 18/18/18
f 19/19/19 20/20/20 21/21/21
f 22/22/22 23/23/23 24/24/24
f 25/25/25 26/26/26 27/27/27
f 28/28/28 29/29/29 30/30/30
