# Blender 5.2.0 LTS
# www.blender.org
mtllib hat_up.mtl
o hat_up
v -0.022187 2.979573 -0.420501
v -0.007948 2.973834 -0.424932
v -0.022530 2.973696 -0.422958
v -0.007734 2.979710 -0.422458
v -0.027465 3.001079 -0.328036
v -0.026212 3.005963 -0.325817
v -0.020119 3.002460 -0.334358
v -0.019161 3.007288 -0.331887
v 0.017285 3.002222 -0.337019
v 0.007845 3.007978 -0.337308
v 0.016748 3.007060 -0.334442
v 0.008012 3.003178 -0.340006
v -0.114020 2.943259 -0.418486
v -0.100177 2.946270 -0.432062
v -0.084639 2.948782 -0.443776
v -0.067671 2.950753 -0.453429
v -0.049563 2.952149 -0.460855
v -0.030626 2.952945 -0.465928
v -0.011183 2.953129 -0.468560
v 0.008432 2.952696 -0.468707
v 0.027885 2.951655 -0.466365
v 0.046842 2.950024 -0.461576
v 0.064980 2.947829 -0.454420
v 0.081987 2.945109 -0.445021
v 0.097573 2.941911 -0.433540
v 0.063300 2.968647 -0.444673
v 0.079740 2.966018 -0.435587
v -0.047425 2.972824 -0.450893
v -0.029119 2.973593 -0.455797
v -0.010325 2.973771 -0.458341
v 0.094806 2.962926 -0.424488
v -0.081332 2.969569 -0.434383
v -0.064929 2.971474 -0.443715
v 0.027441 2.972346 -0.456220
v 0.008637 2.973353 -0.458483
v 0.045767 2.970769 -0.451590
v 0.003561 3.004980 -0.346892
v 0.009334 2.999614 -0.348461
v 0.003498 2.999926 -0.349164
v 0.009267 3.004674 -0.346205
v 0.005363 2.986172 -0.391605
v 0.016195 2.980584 -0.392554
v 0.005301 2.981168 -0.393865
v 0.016127 2.985596 -0.390309
v -0.054734 2.982616 -0.371328
v -0.046818 2.978976 -0.379904
v -0.055520 2.977569 -0.373344
v -0.046136 2.984007 -0.377810
v -0.026728 2.985869 -0.387261
v -0.016571 2.981307 -0.392309
v -0.027176 2.980861 -0.389468
v -0.016249 2.986310 -0.390067
v -0.040993 2.987544 -0.369243
v -0.033195 2.983304 -0.376211
v -0.041680 2.982319 -0.371384
v -0.032622 2.988516 -0.374005
v 0.054688 2.980204 -0.372146
v 0.055220 2.975127 -0.374171
v -0.062394 2.980950 -0.363816
v -0.056370 2.979557 -0.358740
v -0.049449 2.981062 -0.365527
v -0.036747 2.985097 -0.383151
v -0.024142 2.984002 -0.379924
v -0.014673 2.984400 -0.382460
v -0.004952 2.984492 -0.383776
v -0.005491 2.986412 -0.391524
v 0.004856 2.984276 -0.383850
v 0.014583 2.983755 -0.382679
v 0.024061 2.982939 -0.380284
v 0.026617 2.984694 -0.387659
v 0.033130 2.981842 -0.376707
v 0.041633 2.980482 -0.372007
v 0.036653 2.983479 -0.383700
v 0.049426 2.978883 -0.366266
v 0.046064 2.981974 -0.378499
v -0.109734 2.964230 -0.409937
v 0.030240 2.996691 -0.338614
v 0.025137 3.002754 -0.339944
v 0.029709 3.001816 -0.336576
v 0.025564 2.997650 -0.342058
v 0.036968 2.978442 -0.385864
v 0.026811 2.979671 -0.389871
v 0.046492 2.976919 -0.380601
v 0.015021 2.999124 -0.347025
v 0.014828 3.004196 -0.344800
v -0.096352 2.967141 -0.423059
v 0.020148 3.003552 -0.342701
v 0.020462 2.998466 -0.344878
v -0.018763 3.004410 -0.342411
v -0.013901 2.999762 -0.346808
v -0.019333 2.999343 -0.344581
v -0.013451 3.004819 -0.344589
v -0.002193 3.005106 -0.346849
v -0.002387 3.000056 -0.349120
v -0.008220 3.000001 -0.348330
v -0.007897 3.005053 -0.346077
v -0.038132 2.998227 -0.338223
v -0.033238 2.997095 -0.334098
v -0.033380 2.999261 -0.342883
v -0.029085 2.997998 -0.338170
v -0.028045 3.000124 -0.346905
v -0.024424 2.998752 -0.341685
v -0.022219 3.000800 -0.350220
v -0.016002 3.001280 -0.352769
v -0.009500 3.001553 -0.354511
v -0.002825 3.001616 -0.355415
v 0.003910 3.001467 -0.355465
v 0.010589 3.001110 -0.354661
v 0.017097 3.000550 -0.353017
v 0.023325 2.999796 -0.350560
v 0.029164 2.998863 -0.347333
v 0.034515 2.997764 -0.343391
v -0.023740 3.003832 -0.339579
v -0.039050 2.991509 -0.340554
v -0.028766 2.993442 -0.349405
v -0.034205 2.992563 -0.345305
v -0.016490 2.994621 -0.355383
v -0.022827 2.994132 -0.352784
v 0.035008 2.991037 -0.345823
v -0.003057 2.994964 -0.358080
v -0.009862 2.994899 -0.357158
v 0.023600 2.993109 -0.353131
v 0.017252 2.993877 -0.355635
v 0.029553 2.992157 -0.349841
v 0.010617 2.994448 -0.357311
v 0.003809 2.994812 -0.358131
v -0.043944 2.992641 -0.344679
v -0.038499 2.993826 -0.350019
v -0.032387 2.994814 -0.354626
v -0.025713 2.995589 -0.358423
v -0.018591 2.996138 -0.361344
v -0.011142 2.996451 -0.363339
v -0.003495 2.996524 -0.364375
v 0.004221 2.996353 -0.364432
v 0.011872 2.995944 -0.363511
v 0.019329 2.995302 -0.361627
v 0.026463 2.994439 -0.358813
v 0.033152 2.993369 -0.355116
v 0.039283 2.992111 -0.350600
v -0.044834 2.987088 -0.346723
v -0.033081 2.989298 -0.356839
v -0.039297 2.988293 -0.352153
v 0.073108 2.971371 -0.396426
v 0.073620 2.965420 -0.398666
v 0.035572 2.971505 -0.419693
v 0.021307 2.978614 -0.420826
v 0.035398 2.977401 -0.417266
v 0.021354 2.972729 -0.423285
v -0.037316 2.980079 -0.385309
v 0.006847 2.979388 -0.422567
v 0.006764 2.973510 -0.425042
v 0.049175 2.969859 -0.414327
v 0.048881 2.975770 -0.411947
v 0.061523 2.973748 -0.404961
v 0.061930 2.967819 -0.407278
v -0.005683 2.981410 -0.393783
v -0.036263 2.978981 -0.416731
v -0.036732 2.973099 -0.419153
v -0.103623 2.966477 -0.403964
v -0.094211 2.964299 -0.396031
v -0.090980 2.969227 -0.416362
v -0.082722 2.966798 -0.407299
v -0.076788 2.971521 -0.427062
v -0.069825 2.968884 -0.417022
v -0.055741 2.970520 -0.425034
v -0.061291 2.973321 -0.435878
v -0.040712 2.971678 -0.431197
v -0.044753 2.974596 -0.442661
v -0.024994 2.972339 -0.435408
v -0.027457 2.975323 -0.447294
v -0.008857 2.972491 -0.437592
v -0.009699 2.975491 -0.449698
v 0.007424 2.972132 -0.437714
v 0.008217 2.975096 -0.449832
v 0.023570 2.971268 -0.435771
v 0.025984 2.974145 -0.447693
v 0.039305 2.969914 -0.431795
v 0.043298 2.972655 -0.443319
v 0.054359 2.968092 -0.425856
v 0.068475 2.965835 -0.418055
v 0.059863 2.970651 -0.436783
v 0.081411 2.963180 -0.408525
v 0.075397 2.968166 -0.428199
v 0.089632 2.965245 -0.417712
v -0.063272 2.975883 -0.365741
v -0.093358 2.968348 -0.394357
v -0.091728 2.965781 -0.417984
v -0.104463 2.963011 -0.405494
v -0.077432 2.968092 -0.428761
v -0.081960 2.970827 -0.405534
v -0.027741 2.971922 -0.449141
v -0.045163 2.971189 -0.444474
v -0.024696 2.976323 -0.433417
v -0.008689 2.976474 -0.435584
v 0.080854 2.967237 -0.406751
v -0.069167 2.972895 -0.415179
v -0.040288 2.975667 -0.429241
v 0.068022 2.969871 -0.416204
v -0.085075 2.966432 -0.387376
v -0.074693 2.968690 -0.397558
v -0.063039 2.970574 -0.406344
v -0.055197 2.974518 -0.423126
v -0.050313 2.972052 -0.413583
v 0.007462 2.976118 -0.435705
v 0.023478 2.975261 -0.433777
v 0.039086 2.973917 -0.429834
v 0.054019 2.972110 -0.423943
v -0.049723 2.977944 -0.411210
v -0.061822 2.969905 -0.437642
v 0.026090 2.970735 -0.449543
v 0.008193 2.971693 -0.451697
v 0.060217 2.967215 -0.438554
v 0.043531 2.969234 -0.445137
v -0.009853 2.972091 -0.451562
v -0.062336 2.976479 -0.404035
v 0.075863 2.964713 -0.429907
v 0.090203 2.961770 -0.419343
v -0.084176 2.972373 -0.385236
v -0.077023 2.970718 -0.379207
v -0.073886 2.974611 -0.395327
v -0.067610 2.972766 -0.388439
v -0.057044 2.974474 -0.396404
v -0.045506 2.975814 -0.402969
v -0.033192 2.976763 -0.408018
v -0.020315 2.977305 -0.411468
v -0.007094 2.977430 -0.413258
v 0.006244 2.977136 -0.413357
v 0.019472 2.976428 -0.411765
v 0.032363 2.975318 -0.408508
v 0.044697 2.973826 -0.403643
v 0.056262 2.971976 -0.397251
v 0.066860 2.969801 -0.389444
v -0.011350 3.003302 -0.338628
v -0.010743 3.008096 -0.335986
v -0.055487 2.984819 -0.356767
v -0.050593 2.983686 -0.352642
v -0.048658 2.986304 -0.363464
v -0.044364 2.985042 -0.358751
v -0.037372 2.986172 -0.364022
v -0.029736 2.987059 -0.368366
v -0.021588 2.987687 -0.371708
v -0.023689 2.989204 -0.377669
v -0.013066 2.988045 -0.373991
v -0.014346 2.989597 -0.380171
v -0.004317 2.988128 -0.375175
v -0.004754 2.989688 -0.381470
v 0.004510 2.987933 -0.375241
v 0.004922 2.989475 -0.381542
v 0.013264 2.987465 -0.374187
v 0.014519 2.988961 -0.380387
v 0.021795 2.986731 -0.372032
v 0.023872 2.988156 -0.378024
v 0.029957 2.985743 -0.368812
v 0.037610 2.984519 -0.364583
v 0.032819 2.987073 -0.374494
v 0.044624 2.983080 -0.359416
v 0.041210 2.985732 -0.369857
v 0.048899 2.984154 -0.364193
v 0.024570 3.005639 -0.329430
v -0.021695 3.004918 -0.322010
v -0.015818 3.006022 -0.327068
v -0.008803 3.006696 -0.330484
v -0.001127 3.006891 -0.332024
v -0.001531 3.008332 -0.337835
v 0.006686 3.006597 -0.331586
v 0.014105 3.005831 -0.329197
v 0.020624 3.004648 -0.325020
v -0.021152 2.992162 -0.369632
v -0.012756 2.992515 -0.371881
v -0.004137 2.992596 -0.373048
v 0.013184 2.991943 -0.372075
v 0.021588 2.991220 -0.369951
v -0.036702 2.990669 -0.362060
v -0.029180 2.991543 -0.366340
v 0.029629 2.990247 -0.366779
v 0.037169 2.989041 -0.362612
v 0.004559 2.992404 -0.373113
v 0.044078 2.987623 -0.357522
v -0.032359 3.002211 -0.332161
v 0.025434 3.000742 -0.331799
v 0.055781 2.974848 -0.395687
v 0.066275 2.972694 -0.387956
v -0.032796 2.979588 -0.406349
v -0.020045 2.980124 -0.409764
v -0.028298 3.003095 -0.336143
v -0.001755 3.003546 -0.340554
v -0.069295 2.977276 -0.370818
v -0.060805 2.979123 -0.379144
v -0.051275 2.980664 -0.386329
v -0.040868 2.981873 -0.392250
v -0.029762 2.982728 -0.396805
v -0.018147 2.983217 -0.399916
v -0.006222 2.983330 -0.401530
v 0.005809 2.983064 -0.401620
v 0.017740 2.982426 -0.400184
v 0.029367 2.981425 -0.397246
v 0.040491 2.980079 -0.392858
v 0.050922 2.978411 -0.387093
v 0.060482 2.976449 -0.380051
v 0.019352 2.979255 -0.410059
v 0.032117 2.978157 -0.406834
v 0.044329 2.976679 -0.402016
v -0.076197 2.973602 -0.377820
v -0.070174 2.972208 -0.372743
v -0.066876 2.975629 -0.386961
v -0.061591 2.974075 -0.381160
v -0.056414 2.977321 -0.394849
v -0.051957 2.975633 -0.388423
v -0.044989 2.978648 -0.401348
v -0.041437 2.976855 -0.394408
v -0.030210 2.977720 -0.399012
v -0.018469 2.978214 -0.402157
v -0.006415 2.978328 -0.403789
v -0.006954 2.980247 -0.411536
v 0.005747 2.978060 -0.403880
v 0.006254 2.979956 -0.411635
v 0.017808 2.977414 -0.402428
v 0.029561 2.976402 -0.399459
v 0.040806 2.975042 -0.395022
v 0.051351 2.973355 -0.389195
v 0.061014 2.971372 -0.382076
v -0.013909 3.013902 -0.313023
v -0.009991 3.014639 -0.316395
v -0.005315 3.015088 -0.318672
v -0.000197 3.015218 -0.319700
v 0.005012 3.015022 -0.319407
v 0.009958 3.014512 -0.317814
v 0.014303 3.013723 -0.315030
v -0.020833 3.009306 -0.320252
v -0.015152 3.010374 -0.325141
v -0.011531 3.009002 -0.319921
v -0.015939 3.008174 -0.316127
v 0.015800 3.007971 -0.318385
v 0.010911 3.008859 -0.321517
v -0.006270 3.009507 -0.322482
v -0.008371 3.011025 -0.328443
v -0.000513 3.009654 -0.323638
v -0.000951 3.011214 -0.329933
v 0.005347 3.009433 -0.323309
v 0.006602 3.010929 -0.329509
v 0.013774 3.010190 -0.327199
v 0.020075 3.009045 -0.323162
v 0.033569 2.987828 -0.357337
v 0.026766 2.988916 -0.361097
v 0.019511 2.989794 -0.363959
v 0.011928 2.990447 -0.365875
v 0.039804 2.986549 -0.352745
v -0.049728 2.988220 -0.350848
v -0.043591 2.989555 -0.356867
v -0.026294 2.990086 -0.360700
v -0.019051 2.990644 -0.363671
v -0.011476 2.990963 -0.365700
v -0.003699 2.991036 -0.366753
v 0.004147 2.990863 -0.366811
v -0.008481 2.918842 -0.329534
v 0.001150 3.010418 -0.300331
vn 0.1302 0.4759 -0.8698
vn 0.1306 0.3927 -0.9103
vn -0.6891 0.3765 -0.6192
vn -0.2459 0.4783 -0.8431
vn -0.6010 0.3362 -0.7251
vn 0.2569 0.3920 -0.8834
vn -0.1260 0.4123 -0.9023
vn 0.3139 0.4734 -0.8230
vn 0.1306 0.4066 -0.9042
vn -0.1267 0.3984 -0.9084
vn 0.4945 0.3633 -0.7896
vn -0.6960 0.3342 -0.6355
vn 0.0032 0.4501 -0.8930
vn -0.4847 0.4230 -0.7656
vn -0.2495 0.4412 -0.8621
vn -0.1243 0.4444 -0.8872
vn -0.5958 0.3761 -0.7096
vn 0.5926 0.4200 -0.6874
vn 0.3767 0.4176 -0.8269
vn -0.2522 0.4076 -0.8776
vn 0.0668 0.4324 -0.8992
vn -0.1263 0.4065 -0.9049
vn 0.3174 0.4149 -0.8527
vn 0.1305 0.4453 -0.8858
vn 0.1305 0.4388 -0.8891
vn 0.3700 0.4957 -0.7858
vn 0.1306 0.4250 -0.8957
vn 0.2568 0.3979 -0.8808
vn 0.4914 0.4015 -0.7729
vn -0.1751 0.5754 -0.7989
vn -0.3752 0.3880 -0.8419
vn -0.3739 0.4004 -0.8366
vn -0.2549 0.3694 -0.8936
vn 0.0023 0.4115 -0.9114
vn -0.1834 0.4922 -0.8510
vn -0.5747 0.4868 -0.6579
vn -0.4897 0.3850 -0.7823
vn 0.1306 0.4051 -0.9049
vn -0.6982 0.3179 -0.6414
vn 0.1306 0.4008 -0.9068
vn -0.4890 0.3908 -0.7798
vn -0.3738 0.4019 -0.8359
vn -0.5978 0.3621 -0.7152
vn -0.4837 0.4296 -0.7626
vn 0.3797 0.3617 -0.8515
vn 0.0017 0.3880 -0.9217
vn -0.6417 0.3904 -0.6602
vn 0.4819 0.4800 -0.7330
vn -0.1251 0.4306 -0.8938
vn 0.6043 0.3096 -0.7341
vn 0.2542 0.4673 -0.8468
vn 0.6011 0.3497 -0.7186
vn 0.6032 0.3259 -0.7280
vn 0.5394 0.4419 -0.7168
vn 0.2568 0.3964 -0.8814
vn -0.1279 0.3727 -0.9191
vn -0.3703 0.4340 -0.8213
vn -0.0232 -0.9708 -0.2390
vn -0.5990 0.3524 -0.7190
vn -0.4712 0.5010 -0.7259
vn 0.3787 0.3838 -0.8422
vn 0.0232 0.9708 0.2390
vn -0.2489 0.4477 -0.8589
vn 0.3739 0.4549 -0.8082
vn -0.3695 0.4405 -0.8182
vn 0.2558 0.4300 -0.8658
vn 0.2562 0.4162 -0.8724
vn -0.3761 0.3783 -0.8458
vn -0.6298 0.4493 -0.6336
vn 0.2555 0.4366 -0.8626
vn 0.4942 0.3677 -0.7878
vn 0.1306 0.3831 -0.9144
vn 0.0027 0.4298 -0.9029
vn -0.1220 0.4815 -0.8679
vn 0.0031 0.4436 -0.8962
vn -0.2521 0.4091 -0.8770
vn -0.3655 0.4712 -0.8027
vn -0.4788 0.4604 -0.7476
vn -0.2526 0.4033 -0.8795
vn 0.4950 0.3552 -0.7930
vn 0.3803 0.3455 -0.8579
vn 0.0021 0.4057 -0.9140
vn -0.4892 0.3893 -0.7805
vn 0.1305 0.3670 -0.9210
vn -0.6785 0.4280 -0.5970
vn 0.2518 0.5079 -0.8238
vn 0.4874 0.4391 -0.7548
vn -0.1261 0.4108 -0.9030
vn 0.3789 0.3794 -0.8441
vn -0.6926 0.3564 -0.6271
vn 0.3763 0.4241 -0.8237
vn 0.0022 0.4100 -0.9121
vn -0.3774 0.3622 -0.8523
vn 0.6013 0.3482 -0.7192
vn -0.6923 0.3580 -0.6266
vn 0.6017 0.3438 -0.7210
vn 0.5992 0.3683 -0.7108
vn -0.3744 0.3960 -0.8384
vn 0.2576 0.3581 -0.8974
vn 0.4941 0.3691 -0.7872
vn 0.0013 0.3718 -0.9283
vn -0.3719 0.4202 -0.8277
vn -0.4935 0.3510 -0.7958
vn -0.1239 0.4509 -0.8839
vn -0.4918 0.3672 -0.7895
vn -0.6865 0.3904 -0.6134
vn -0.6933 0.3521 -0.6288
vn -0.6852 0.3970 -0.6106
vn -0.5895 0.4150 -0.6930
vn -0.1193 0.5219 -0.8447
vn 0.3786 0.3853 -0.8415
vn -0.2506 0.4274 -0.8686
vn 0.3776 0.4037 -0.8333
vn -0.3595 0.5118 -0.7803
vn -0.4296 0.4197 -0.7996
vn 0.0040 0.4806 -0.8769
vn -0.2538 0.3856 -0.8871
vn -0.5966 0.3702 -0.7120
vn 0.0673 0.4906 -0.8688
vn -0.4051 0.5618 -0.7213
vn 0.4956 0.3455 -0.7969
vn 0.4941 0.3692 -0.7872
vn 0.5857 0.4612 -0.6666
vn 0.1295 0.5164 -0.8465
vn -0.5960 0.3746 -0.7102
vn -0.4866 0.4092 -0.7718
vn -0.2415 0.5187 -0.8201
vn -0.6945 0.3439 -0.6319
vn -0.5837 0.4459 -0.6786
vn 0.4965 0.3292 -0.8032
vn 0.2573 0.3743 -0.8909
vn -0.6683 0.4692 -0.5773
vn 0.5976 0.3822 -0.7048
vn -0.6070 0.5340 -0.5886
vn 0.4907 0.4081 -0.7698
vn 0.3060 0.5573 -0.7719
vn 0.4926 0.3876 -0.7792
vn 0.0051 0.5211 -0.8535
vn 0.5243 0.5267 -0.6691
vn 0.2571 0.3840 -0.8868
vn 0.0675 0.5739 -0.8162
vn -0.1880 0.4340 -0.8811
vn -0.4212 0.4781 -0.7707
vn 0.5466 0.3829 -0.7447
vn -0.2532 0.3952 -0.8830
vn 0.6024 0.3357 -0.7242
vn -0.5907 0.4084 -0.6959
vn -0.5930 0.3945 -0.7019
vn 0.0019 0.3976 -0.9176
vn 0.3793 0.3713 -0.8475
vn 0.5968 0.3888 -0.7018
vn -0.4907 0.3769 -0.7856
vn -0.1272 0.3888 -0.9125
s 0
f 174//1 176//1 210//1 211//1
f 134//2 135//2 346//2 354//2
f 348//3 349//3 238//3 236//3
f 168//4 170//4 191//4 192//4
f 99//5 101//5 115//5 116//5
f 69//6 68//6 250//6 252//6
f 52//7 66//7 156//7 50//7
f 9//8 12//8 10//8 11//8
f 41//9 44//9 42//9 43//9
f 132//10 133//10 353//10 352//10
f 72//11 71//11 255//11 257//11
f 218//12 220//12 200//12 199//12
f 194//13 204//13 173//13 171//13
f 32//14 33//14 16//14 15//14
f 28//15 29//15 18//15 17//15
f 29//16 30//16 19//16 18//16
f 45//17 48//17 46//17 47//17
f 217//18 216//18 183//18 184//18
f 23//19 22//19 36//19 26//19
f 92//20 96//20 95//20 90//20
f 338//21 340//21 265//21 263//21
f 244//22 246//22 65//22 64//22
f 266//23 265//23 340//23 341//23
f 204//24 205//24 175//24 173//24
f 20//25 35//25 34//25 21//25
f 230//26 229//26 301//26 302//26
f 277//27 271//27 249//27 247//27
f 318//28 317//28 295//28 296//28
f 24//29 23//29 26//29 27//29
f 324//30 325//30 337//30 335//30
f 130//31 131//31 351//31 350//31
f 89//32 92//32 90//32 91//32
f 104//33 105//33 121//33 117//33
f 66//34 41//34 43//34 156//34
f 234//35 264//35 286//35 233//35
f 305//36 307//36 222//36 221//36
f 53//37 56//37 54//37 55//37
f 37//38 40//38 38//38 39//38
f 97//39 99//39 116//39 114//39
f 248//40 250//40 68//40 67//40
f 48//41 62//41 149//41 46//41
f 62//42 49//42 51//42 149//42
f 128//43 129//43 141//43 142//43
f 196//44 202//44 165//44 164//44
f 152//45 145//45 147//45 153//45
f 82//28 42//28 44//28 70//28
f 4//46 150//46 151//46 2//46
f 329//47 330//47 261//47 260//47
f 231//48 230//48 302//48 281//48
f 269//49 270//49 245//49 243//49
f 119//50 124//50 111//50 112//50
f 213//51 210//51 176//51 178//51
f 58//52 83//52 75//52 57//52
f 144//53 155//53 154//53 143//53
f 280//54 9//54 11//54 259//54
f 84//55 38//55 40//55 85//55
f 105//56 106//56 120//56 121//56
f 33//57 28//57 17//57 16//57
f 355//58 13//58 14//58 15//58 16//58 17//58 18//58 19//58 20//58 21//58 22//58 23//58 24//58 25//58
f 220//59 215//59 201//59 200//59
f 307//60 309//60 223//60 222//60
f 88//61 84//61 85//61 87//61
f 267//62 259//62 11//62 10//62 264//62 234//62 8//62 6//62 260//62 261//62 262//62 263//62 265//62 266//62
f 197//63 193//63 169//63 167//63
f 212//64 213//64 178//64 181//64
f 202//65 197//65 167//65 165//65
f 22//66 21//66 34//66 36//66
f 251//67 249//67 271//67 272//67
f 208//68 157//68 158//68 203//68
f 6//69 8//69 7//69 5//69
f 177//70 175//70 205//70 206//70
f 80//71 88//71 87//71 78//71
f 150//72 146//72 148//72 151//72
f 270//73 277//73 247//73 245//73
f 170//74 172//74 214//74 191//74
f 30//75 35//75 20//75 19//75
f 49//76 52//76 50//76 51//76
f 166//77 168//77 192//77 209//77
f 163//78 166//78 209//78 189//78
f 242//79 244//79 64//79 63//79
f 343//80 344//80 137//80 138//80
f 122//81 123//81 109//81 110//81
f 246//82 248//82 67//82 65//82
f 113//83 89//83 91//83 102//83
f 107//84 108//84 125//84 126//84
f 159//85 161//85 187//85 188//85
f 229//86 228//86 300//86 301//86
f 216//87 212//87 181//87 183//87
f 96//88 93//88 94//88 95//88
f 71//89 69//89 252//89 255//89
f 279//90 285//90 100//90 98//90
f 179//91 177//91 206//91 207//91
f 93//92 37//92 39//92 94//92
f 103//93 104//93 117//93 118//93
f 77//94 80//94 78//94 79//94
f 287//95 288//95 306//95 304//95
f 74//96 72//96 257//96 258//96
f 347//62 278//62 276//62 275//62 272//62 271//62 277//62 270//62 269//62 268//62 274//62 273//62 349//62 348//62 140//62 142//62 141//62 350//62 351//62 352//62 353//62 354//62 346//62 345//62 344//62 343//62
f 59//95 45//95 47//95 185//95
f 256//97 254//97 276//97 278//97
f 56//98 242//98 63//98 54//98
f 123//99 125//99 108//99 109//99
f 169//62 171//62 173//62 175//62 177//62 179//62 180//62 182//62 184//62 183//62 181//62 178//62 176//62 174//62 172//62 170//62 168//62 166//62 163//62 161//62 159//62 160//62 162//62 164//62 165//62 167//62
f 235//62 236//62 238//62 239//62 240//62 241//62 243//62 245//62 247//62 249//62 251//62 253//62 254//62 256//62 258//62 257//62 255//62 252//62 250//62 248//62 246//62 244//62 242//62 56//62 53//62 237//62
f 83//100 81//100 73//100 75//100
f 106//101 107//101 126//101 120//101
f 274//102 268//102 241//102 240//102
f 101//103 103//103 118//103 115//103
f 193//104 194//104 171//104 169//104
f 215//105 208//105 203//105 201//105
f 76//106 86//106 14//106 13//106
f 235//107 237//107 61//107 60//107
f 288//17 289//17 308//17 306//17
f 186//108 190//108 162//108 160//108
f 190//109 196//109 164//109 162//109
f 284//110 314//110 226//110 225//110
f 319//111 318//111 296//111 297//111
f 333//62 342//62 341//62 340//62 338//62 336//62 330//62 329//62 332//62 331//62 335//62 337//62 339//62 334//62
f 268//112 269//112 243//112 241//112
f 253//113 251//113 272//113 275//113
f 309//114 283//114 224//114 223//114
f 330//115 336//115 262//115 261//115
f 172//116 174//116 211//116 214//116
f 157//117 1//117 3//117 158//117
f 237//118 53//118 55//118 61//118
f 74//62 57//62 75//62 73//62 70//62 44//62 41//62 66//62 52//62 49//62 62//62 48//62 45//62 59//62 60//62 61//62 55//62 54//62 63//62 64//62 65//62 67//62 68//62 69//62 71//62 72//62
f 264//119 10//119 12//119 286//119
f 323//120 324//120 335//120 331//120
f 155//121 152//121 153//121 154//121
f 320//122 319//122 297//122 298//122
f 232//123 231//123 281//123 282//123
f 316//124 300//124 228//124 227//124
f 307//62 305//62 303//62 304//62 306//62 308//62 310//62 311//62 312//62 313//62 315//62 317//62 318//62 319//62 320//62 321//62 282//62 281//62 302//62 301//62 300//62 316//62 314//62 284//62 283//62 309//62
f 285//125 113//125 102//125 100//125
f 273//126 274//126 240//126 239//126
f 283//127 284//127 225//127 224//127
f 293//34 294//34 315//34 313//34
f 127//128 128//128 142//128 140//128
f 289//41 290//41 310//41 308//41
f 292//7 293//7 313//7 312//7
f 161//129 163//129 189//129 187//129
f 124//130 122//130 110//130 111//130
f 145//131 148//131 146//131 147//131
f 303//132 305//132 221//132 219//132
f 81//111 82//111 70//111 73//111
f 25//133 24//133 27//133 31//133
f 322//134 323//134 331//134 332//134
f 180//135 179//135 207//135 198//135
f 334//136 339//136 326//136 327//136
f 254//137 253//137 275//137 276//137
f 290//42 291//42 311//42 310//42
f 321//52 320//52 298//52 299//52
f 314//138 316//138 227//138 226//138
f 291//76 292//76 312//76 311//76
f 333//139 334//139 327//139 328//139
f 345//140 346//140 135//140 136//140
f 325//141 326//141 339//141 337//141
f 336//142 338//142 263//142 262//142
f 8//143 234//143 233//143 7//143
f 267//144 266//144 341//144 342//144
f 131//145 132//145 352//145 351//145
f 347//146 343//146 138//146 139//146
f 86//147 32//147 15//147 14//147
f 294//9 295//9 317//9 315//9
f 349//148 273//148 239//148 238//148
f 133//149 134//149 354//149 353//149
f 344//150 345//150 136//150 137//150
f 182//151 180//151 198//151 195//151
f 129//152 130//152 350//152 141//152
f 1//153 4//153 2//153 3//153
f 97//62 98//62 100//62 102//62 91//62 90//62 95//62 94//62 39//62 38//62 84//62 88//62 80//62 77//62 112//62 111//62 110//62 109//62 108//62 107//62 106//62 105//62 104//62 103//62 101//62 99//62
f 190//62 186//62 199//62 200//62 201//62 203//62 158//62 3//62 2//62 151//62 148//62 145//62 152//62 155//62 144//62 195//62 198//62 207//62 206//62 205//62 204//62 194//62 193//62 197//62 202//62 196//62
f 280//62 79//62 78//62 87//62 85//62 40//62 37//62 93//62 96//62 92//62 89//62 113//62 285//62 279//62 5//62 7//62 233//62 286//62 12//62 9//62
f 58//62 299//62 298//62 297//62 296//62 295//62 294//62 293//62 292//62 291//62 290//62 289//62 288//62 287//62 185//62 47//62 46//62 149//62 51//62 50//62 156//62 43//62 42//62 82//62 81//62 83//62
f 138//62 137//62 136//62 135//62 134//62 133//62 132//62 131//62 130//62 129//62 128//62 127//62 114//62 116//62 115//62 118//62 117//62 121//62 120//62 126//62 125//62 123//62 122//62 124//62 119//62 139//62
f 220//62 218//62 219//62 221//62 222//62 223//62 224//62 225//62 226//62 227//62 228//62 229//62 230//62 231//62 232//62 143//62 154//62 153//62 147//62 146//62 150//62 4//62 1//62 157//62 208//62 215//62
f 217//62 31//62 27//62 26//62 36//62 34//62 35//62 30//62 29//62 28//62 33//62 32//62 86//62 76//62 188//62 187//62 189//62 209//62 192//62 191//62 214//62 211//62 210//62 213//62 212//62 216//62
f 322//62 356//62 328//62 327//62 326//62 325//62 324//62 323//62
