# Blender 5.2.0 LTS
# www.blender.org
mtllib hat_down.mtl
o hat_down
v 0.063223 2.946617 -0.259127
v 0.062595 2.952033 -0.258471
v -0.014960 2.992324 -0.271501
v -0.023892 2.988351 -0.276677
v -0.015744 2.986871 -0.271457
v -0.022782 2.993744 -0.276513
v -0.006057 2.991405 -0.268635
v -0.006470 2.985915 -0.268470
v 0.029006 2.988014 -0.280440
v 0.028000 2.993420 -0.280126
v 0.020948 2.992095 -0.274056
v 0.012892 2.985792 -0.269848
v 0.021661 2.986633 -0.274118
v 0.012530 2.991287 -0.269957
v 0.003319 2.991052 -0.268108
v 0.003297 2.985547 -0.267922
v -0.028554 2.905596 -0.179617
v -0.048999 2.884234 -0.185014
v -0.030042 2.882603 -0.180225
v -0.046880 2.907173 -0.184247
v -0.067136 2.886429 -0.192170
v -0.064413 2.909294 -0.191164
v -0.099729 2.892348 -0.213051
v -0.084143 2.889149 -0.201569
v -0.010589 2.881562 -0.177884
v 0.009027 2.881129 -0.178030
v 0.028470 2.881313 -0.180662
v 0.047407 2.882109 -0.185735
v 0.065514 2.883505 -0.193161
v 0.082482 2.885476 -0.202814
v 0.098021 2.887988 -0.214528
v 0.111864 2.890999 -0.228104
v 0.095239 2.910801 -0.212777
v 0.080219 2.908373 -0.201453
v 0.108621 2.913712 -0.225900
v 0.063816 2.906467 -0.192122
v 0.046312 2.905118 -0.184944
v 0.033901 2.986882 -0.276315
v 0.030374 2.980514 -0.272910
v 0.034527 2.981417 -0.276983
v 0.029840 2.985999 -0.272333
v 0.028006 2.904349 -0.180040
v 0.009212 2.904171 -0.177496
v 0.014993 2.984274 -0.263887
v 0.009509 2.978511 -0.262750
v 0.015190 2.978750 -0.264272
v 0.009438 2.984040 -0.262399
v -0.054486 2.952780 -0.250142
v -0.045862 2.951010 -0.243789
v -0.036451 2.949505 -0.238588
v -0.049225 2.954101 -0.256022
v -0.041432 2.952502 -0.250281
v -0.026415 2.948290 -0.234629
v -0.032928 2.951142 -0.245581
v -0.015926 2.947387 -0.231979
v -0.023860 2.950045 -0.242004
v -0.014381 2.949229 -0.239609
v -0.005162 2.946811 -0.230683
v -0.004654 2.948708 -0.238438
v 0.005692 2.946572 -0.230764
v 0.005153 2.948492 -0.238511
v 0.016451 2.946674 -0.232220
v 0.014875 2.948584 -0.239827
v 0.026929 2.947114 -0.235027
v 0.024343 2.948982 -0.242364
v 0.036949 2.947886 -0.239136
v 0.033397 2.949680 -0.246077
v 0.046338 2.948977 -0.244478
v 0.041881 2.950665 -0.250903
v 0.054936 2.950367 -0.250960
v 0.049650 2.951921 -0.256761
v 0.056572 2.953427 -0.263548
v 0.020305 2.984684 -0.266065
v 0.020622 2.979169 -0.266500
v 0.025713 2.979760 -0.269396
v 0.025282 2.985261 -0.268897
v -0.095919 2.915016 -0.211349
v -0.033226 2.980748 -0.267690
v -0.027875 2.979650 -0.263748
v -0.022035 2.978716 -0.260521
v -0.028951 2.981822 -0.272467
v -0.015808 2.977962 -0.258064
v -0.024275 2.980862 -0.269022
v -0.019173 2.980046 -0.266203
v -0.009299 2.977402 -0.256420
v -0.013732 2.979388 -0.264056
v -0.002621 2.977045 -0.255616
v -0.008044 2.978898 -0.262619
v -0.002209 2.978586 -0.261917
v 0.004114 2.976896 -0.255666
v 0.003676 2.978456 -0.261961
v 0.010789 2.976959 -0.256570
v 0.017291 2.977232 -0.258311
v 0.023508 2.977712 -0.260861
v 0.029334 2.978388 -0.264175
v 0.034669 2.979251 -0.268197
v 0.039421 2.980285 -0.272858
v -0.016292 2.970850 -0.258839
v -0.009657 2.970279 -0.257162
v -0.022640 2.971619 -0.261343
v -0.034048 2.973690 -0.268651
v -0.028593 2.972571 -0.264633
v -0.002849 2.969915 -0.256343
v 0.004017 2.969764 -0.256394
v 0.040010 2.973218 -0.273920
v 0.010822 2.969828 -0.257315
v 0.017450 2.970107 -0.259091
v 0.023787 2.970595 -0.261690
v 0.029726 2.971285 -0.265069
v 0.035165 2.972164 -0.269169
v -0.038323 2.972616 -0.263874
v -0.032192 2.971358 -0.259358
v -0.025503 2.970288 -0.255661
v -0.018369 2.969425 -0.252847
v -0.010912 2.968783 -0.250963
v -0.003261 2.968374 -0.250042
v 0.004455 2.968204 -0.250099
v 0.012102 2.968276 -0.251135
v 0.019551 2.968589 -0.253130
v 0.026673 2.969138 -0.256051
v 0.033347 2.969913 -0.259848
v 0.039459 2.970901 -0.264455
v 0.044904 2.972086 -0.269795
v -0.024215 2.918407 -0.198188
v -0.040244 2.915309 -0.202249
v -0.024509 2.913954 -0.198274
v -0.039823 2.919751 -0.202132
v -0.008199 2.917550 -0.196261
v -0.008363 2.913090 -0.196331
v 0.093272 2.920923 -0.238014
v 0.092620 2.925320 -0.237609
v 0.023959 2.917346 -0.198548
v 0.007918 2.912731 -0.196452
v 0.024055 2.912884 -0.198637
v 0.007951 2.917194 -0.196381
v 0.081223 2.922841 -0.226432
v 0.068886 2.916339 -0.217023
v 0.081783 2.918424 -0.226746
v 0.068430 2.920773 -0.216787
v -0.081591 2.926431 -0.225215
v -0.082350 2.922043 -0.225519
v -0.055298 2.917130 -0.208188
v -0.054757 2.921558 -0.208023
v -0.068759 2.923797 -0.215762
v -0.069414 2.919388 -0.215990
v 0.039551 2.918001 -0.202725
v 0.039773 2.913545 -0.202847
v 0.054802 2.914703 -0.209011
v 0.054459 2.919150 -0.208839
v 0.083731 2.933527 -0.243719
v 0.073956 2.924978 -0.234408
v 0.084338 2.927237 -0.244590
v 0.073441 2.931288 -0.233628
v 0.061891 2.929421 -0.224920
v 0.049576 2.921616 -0.218382
v 0.062302 2.923094 -0.225622
v 0.049278 2.927956 -0.217744
v -0.090571 2.919978 -0.216332
v -0.076336 2.917056 -0.205846
v -0.060803 2.914572 -0.197261
v -0.044237 2.912568 -0.190726
v -0.026923 2.911077 -0.186352
v -0.009156 2.910126 -0.184213
v 0.008760 2.909732 -0.184347
v 0.026518 2.909899 -0.186751
v 0.043813 2.910626 -0.191384
v 0.060352 2.911901 -0.198167
v 0.075849 2.913701 -0.206983
v 0.090041 2.915996 -0.217682
v 0.102684 2.918746 -0.230081
v 0.027127 2.941639 -0.235401
v 0.037267 2.942420 -0.239559
v -0.016244 2.941915 -0.232315
v -0.005350 2.941332 -0.231004
v 0.016522 2.941193 -0.232560
v -0.026860 2.942829 -0.234997
v -0.020902 2.962053 -0.247342
v -0.029496 2.958113 -0.250799
v -0.021334 2.957125 -0.247579
v -0.028943 2.963026 -0.250515
v 0.050414 2.965052 -0.266445
v 0.044825 2.958815 -0.260861
v 0.051055 2.960170 -0.266970
v 0.044277 2.963717 -0.260427
v 0.029866 2.961729 -0.250954
v 0.022049 2.956169 -0.247904
v 0.030197 2.956797 -0.251245
v 0.021838 2.961111 -0.247662
v 0.004823 2.960676 -0.244246
v -0.004049 2.955923 -0.244371
v 0.004778 2.955728 -0.244436
v -0.003873 2.960868 -0.244181
v 0.037833 2.957684 -0.255589
v 0.037388 2.962603 -0.255234
v -0.012497 2.961329 -0.245219
v -0.012803 2.956391 -0.245424
v 0.013527 2.955811 -0.245621
v 0.013443 2.960758 -0.245413
v -0.036483 2.964232 -0.254681
v -0.044162 2.960776 -0.260196
v -0.037149 2.959337 -0.255029
v -0.043392 2.965650 -0.259772
v 0.046770 2.943524 -0.244965
v 0.055471 2.944931 -0.251525
v -0.055269 2.947372 -0.250697
v -0.037017 2.944058 -0.239004
v 0.005634 2.941090 -0.231086
v -0.046541 2.945581 -0.244268
v -0.061330 2.910727 -0.197283
v -0.044644 2.908708 -0.190700
v -0.027203 2.907207 -0.186294
v -0.009306 2.906249 -0.184140
v 0.044050 2.906753 -0.191363
v 0.060709 2.908037 -0.198195
v 0.008740 2.905851 -0.184275
v -0.076976 2.913229 -0.205930
v -0.091316 2.916172 -0.216494
v -0.074357 2.928248 -0.233300
v -0.062668 2.925849 -0.224688
v -0.049912 2.923809 -0.217639
v -0.036309 2.922163 -0.212272
v -0.022091 2.920939 -0.208680
v -0.007502 2.920159 -0.206924
v 0.007210 2.919834 -0.207034
v 0.021792 2.919972 -0.209008
v 0.035995 2.920569 -0.212813
v 0.103350 2.914932 -0.230343
v 0.076319 2.909850 -0.207076
v 0.090615 2.912161 -0.217853
v 0.026628 2.906020 -0.186696
v -0.080853 2.911924 -0.200250
v -0.009750 2.904589 -0.177354
v -0.073553 2.934529 -0.232529
v -0.061968 2.932151 -0.223994
v -0.049326 2.930130 -0.217008
v -0.067305 2.936098 -0.239511
v -0.056707 2.933923 -0.231704
v -0.035844 2.928498 -0.211689
v -0.045142 2.932074 -0.225312
v -0.021752 2.927285 -0.208129
v -0.032809 2.930582 -0.220447
v -0.019918 2.929472 -0.217190
v -0.007292 2.926512 -0.206388
v -0.006690 2.928764 -0.215598
v 0.007289 2.926190 -0.206497
v 0.006649 2.928470 -0.215697
v 0.021741 2.926327 -0.208454
v 0.019870 2.928595 -0.217487
v 0.035818 2.926918 -0.212224
v 0.032747 2.929136 -0.220936
v 0.045060 2.930085 -0.225986
v 0.056599 2.931426 -0.232550
v 0.067165 2.933134 -0.240516
v 0.076578 2.935181 -0.249747
v -0.048437 2.959702 -0.255419
v -0.040748 2.958125 -0.249754
v -0.032358 2.956783 -0.245117
v -0.023410 2.955700 -0.241587
v -0.014058 2.954895 -0.239224
v -0.004461 2.954381 -0.238069
v 0.005216 2.954168 -0.238142
v 0.014808 2.954259 -0.239440
v 0.024150 2.954652 -0.241943
v 0.033083 2.955340 -0.245606
v 0.041454 2.956312 -0.250368
v 0.049120 2.957552 -0.256148
v 0.055949 2.959037 -0.262845
v -0.018836 2.994735 -0.280923
v -0.012318 2.993551 -0.276746
v -0.004899 2.992786 -0.274357
v 0.002915 2.992491 -0.273918
v 0.010591 2.992687 -0.275459
v 0.017606 2.993361 -0.278875
v 0.023482 2.994466 -0.283933
v -0.007725 2.984419 -0.262271
v -0.013286 2.984897 -0.263676
v -0.002019 2.984113 -0.261584
v 0.019746 2.931891 -0.217685
v 0.006655 2.931768 -0.215913
v -0.028167 2.987277 -0.271900
v -0.018606 2.985541 -0.265775
v -0.023595 2.986339 -0.268532
v 0.003735 2.983987 -0.261627
v 0.066577 2.936386 -0.240488
v 0.056115 2.934694 -0.232601
v -0.060530 2.946050 -0.244818
v -0.050971 2.944089 -0.237776
v -0.040540 2.942420 -0.232011
v -0.029416 2.941074 -0.227622
v -0.017789 2.940074 -0.224685
v -0.005858 2.939435 -0.223249
v 0.006173 2.939170 -0.223338
v 0.018098 2.939282 -0.224953
v 0.029713 2.939771 -0.228064
v 0.040819 2.940627 -0.232619
v 0.051226 2.941836 -0.238539
v 0.060756 2.943377 -0.245724
v 0.069247 2.945223 -0.254050
v -0.006553 2.932059 -0.215814
v -0.019652 2.932760 -0.217391
v -0.032416 2.933859 -0.220616
v -0.056080 2.937168 -0.231762
v -0.044629 2.935336 -0.225434
v -0.061313 2.940643 -0.245373
v -0.051650 2.938660 -0.238254
v -0.041106 2.936974 -0.232427
v -0.029860 2.935613 -0.227991
v -0.018107 2.934601 -0.225021
v -0.006046 2.933956 -0.223570
v 0.006116 2.933688 -0.223660
v 0.018170 2.933802 -0.225292
v 0.032497 2.932428 -0.221101
v 0.029911 2.934295 -0.228437
v 0.044689 2.933367 -0.226101
v 0.041138 2.935161 -0.233042
v 0.051658 2.936383 -0.239026
v 0.061292 2.937940 -0.246289
v 0.069874 2.939807 -0.254706
v 0.075898 2.938414 -0.249629
v -0.066575 2.939322 -0.239493
v -0.012003 3.007114 -0.285632
v -0.007658 3.006325 -0.282848
v -0.002712 3.005815 -0.281255
v 0.002497 3.005618 -0.280962
v 0.007615 3.005749 -0.281990
v 0.012291 3.006198 -0.284267
v 0.016209 3.006934 -0.287639
v -0.008906 2.999649 -0.282180
v -0.003342 2.999075 -0.280388
v 0.013537 2.999506 -0.283776
v 0.017944 3.000335 -0.287570
v 0.002518 2.998854 -0.280059
v 0.008276 2.999001 -0.281214
v 0.002956 2.997294 -0.273764
v -0.004597 2.997579 -0.274188
v -0.013795 3.000537 -0.285312
v -0.018070 2.999463 -0.280534
v -0.011768 2.998319 -0.276497
v 0.010377 2.997483 -0.275253
v 0.017158 2.998134 -0.278555
v 0.022838 2.999202 -0.283445
v 0.012162 2.962310 -0.251594
v 0.019737 2.962628 -0.253623
v 0.039983 2.964980 -0.265140
v 0.045520 2.966184 -0.270570
v -0.039117 2.966724 -0.264549
v -0.018825 2.963478 -0.253334
v -0.011242 2.962826 -0.251419
v 0.033767 2.963975 -0.260454
v -0.032883 2.965444 -0.259956
v -0.026080 2.964356 -0.256197
v -0.003461 2.962409 -0.250482
v 0.004385 2.962236 -0.250541
v 0.026980 2.963187 -0.256593
v -0.008481 2.918842 -0.329534
v 0.001150 3.010418 -0.300331
vn -0.2892 0.1487 0.9457
vn -0.3708 -0.0388 0.9279
vn -0.1212 -0.0337 0.9921
vn 0.1345 -0.0595 0.9891
vn -0.3738 -0.0753 0.9244
vn -0.5927 0.0031 0.8054
vn 0.6042 -0.0233 0.7965
vn 0.4907 0.0389 0.8705
vn 0.1343 -0.0241 0.9906
vn 0.3775 0.0280 0.9256
vn 0.1959 0.0324 0.9801
vn -0.5865 0.0452 0.8087
vn 0.4984 -0.0531 0.8653
vn 0.0060 -0.0651 0.9979
vn 0.3803 -0.0137 0.9248
vn 0.3822 -0.0491 0.9228
vn -0.1222 -0.0538 0.9910
vn 0.6044 -0.0249 0.7963
vn 0.2614 -0.0992 0.9601
vn 0.6023 -0.0033 0.7982
vn -0.0548 0.0340 0.9979
vn 0.3839 -0.0920 0.9188
vn 0.0232 0.9708 0.2390
vn -0.3683 -0.0124 0.9296
vn -0.5876 0.0381 0.8083
vn -0.3620 0.0443 0.9311
vn -0.2422 0.0320 0.9697
vn 0.2606 -0.0579 0.9637
vn 0.1343 -0.0168 0.9908
vn 0.1345 -0.0659 0.9887
vn 0.3829 -0.0642 0.9216
vn -0.4856 -0.0164 0.8740
vn 0.2579 0.0210 0.9660
vn -0.4884 -0.0417 0.8716
vn -0.0506 0.1321 0.9899
vn -0.2511 -0.0879 0.9640
vn 0.0070 -0.0232 0.9997
vn -0.3702 -0.0325 0.9284
vn 0.1340 0.0178 0.9908
vn 0.2605 -0.0563 0.9638
vn -0.2494 -0.0602 0.9665
vn -0.5979 -0.0394 0.8006
vn 0.0066 -0.0385 0.9992
vn 0.5999 0.0191 0.7998
vn 0.1344 -0.1025 0.9856
vn -0.4864 -0.0227 0.8735
vn 0.6965 0.0299 0.7169
vn -0.5899 0.0230 0.8072
vn 0.7009 -0.0068 0.7132
vn -0.4856 -0.0163 0.8740
vn -0.1240 -0.0968 0.9875
vn 0.4974 -0.0380 0.8667
vn -0.1201 -0.0112 0.9927
vn -0.3659 0.0100 0.9306
vn 0.7032 -0.0305 0.7103
vn 0.0062 -0.0587 0.9983
vn 0.6956 0.0371 0.7175
vn 0.2600 -0.0361 0.9649
vn -0.0573 -0.0316 0.9979
vn -0.5959 -0.0222 0.8027
vn 0.2593 -0.0136 0.9657
vn 0.1345 -0.0611 0.9890
vn 0.0089 0.0653 0.9978
vn 0.0052 -0.1016 0.9948
vn -0.3703 -0.0341 0.9283
vn 0.3799 -0.0065 0.9250
vn 0.5956 0.0534 0.8015
vn -0.2469 -0.0250 0.9687
vn -0.5806 0.0793 0.8103
vn -0.4833 0.0036 0.8755
vn 0.6055 -0.0384 0.7949
vn 0.3825 -0.0555 0.9223
vn -0.3667 0.0028 0.9303
vn 0.7023 -0.0202 0.7116
vn 0.2555 0.0676 0.9644
vn -0.3560 0.0906 0.9301
vn 0.1333 0.0645 0.9890
vn 0.6075 -0.0660 0.7916
vn -0.1222 -0.0555 0.9909
vn -0.4901 -0.0590 0.8697
vn 0.7047 -0.0477 0.7079
vn 0.7007 -0.0052 0.7134
vn -0.1182 0.0233 0.9927
vn 0.4947 -0.0027 0.8691
vn 0.1345 -0.0851 0.9873
vn 0.0058 -0.0738 0.9973
vn -0.1155 0.0700 0.9908
vn 0.6063 -0.0487 0.7938
vn -0.4803 0.0260 0.8767
vn 0.2611 -0.0818 0.9618
vn -0.1233 -0.0794 0.9892
vn 0.2607 -0.0627 0.9634
vn -0.2488 -0.0514 0.9672
vn 0.6007 0.0119 0.7994
vn 0.4941 0.0045 0.8694
vn 0.6985 0.0148 0.7155
vn -0.3724 -0.0580 0.9262
vn 0.1345 -0.0747 0.9881
vn -0.2451 -0.0025 0.9695
vn 0.6905 0.0712 0.7199
vn -0.2500 -0.0706 0.9657
vn 0.0056 -0.0843 0.9964
vn -0.1225 -0.0602 0.9906
vn -0.5935 -0.0032 0.8048
vn 0.1344 -0.0393 0.9901
vn 0.4979 -0.0444 0.8661
vn 0.3735 0.0746 0.9246
vn 0.0071 -0.0160 0.9998
vn 0.6048 -0.0296 0.7958
vn 0.5887 0.0996 0.8022
vn 0.2609 -0.0714 0.9627
vn 0.0061 -0.0603 0.9982
vn -0.1229 -0.0690 0.9900
vn 0.6424 0.0752 0.7627
vn 0.6512 0.0103 0.7588
vn -0.5929 0.0015 0.8053
vn 0.3833 -0.0746 0.9206
vn 0.1975 -0.0333 0.9797
vn -0.1222 -0.0539 0.9910
vn -0.4858 -0.0180 0.8739
vn -0.1205 -0.0184 0.9925
vn 0.2595 -0.0209 0.9655
vn 0.7014 -0.0115 0.7127
vn 0.4990 -0.0635 0.8643
vn 0.6823 0.1172 0.7217
vn -0.5947 -0.0119 0.8039
vn 0.3812 -0.0290 0.9240
vn 0.4976 -0.0397 0.8665
vn -0.2483 -0.0451 0.9676
vn -0.4679 0.1063 0.8774
vn -0.4754 0.0602 0.8777
vn -0.2457 -0.0097 0.9693
vn -0.2378 0.0785 0.9681
vn -0.2485 -0.0467 0.9675
vn 0.4220 0.1442 0.8951
vn 0.6239 0.1720 0.7624
vn 0.4852 0.0853 0.8703
vn 0.3823 -0.0507 0.9226
vn -0.5371 0.0178 0.8434
vn -0.5074 0.1792 0.8428
vn -0.5717 0.1251 0.8109
vn 0.1919 0.1305 0.9727
vn 0.4392 -0.0190 0.8982
vn 0.4999 -0.0808 0.8623
vn -0.4873 -0.0314 0.8727
vn -0.3715 -0.0476 0.9272
vn -0.3078 -0.0142 0.9513
vn 0.0079 0.0186 0.9998
vn 0.4337 0.0464 0.8999
vn 0.4960 -0.0180 0.8682
vn -0.5269 0.0827 0.8459
vn -0.4813 0.0188 0.8763
vn -0.3013 0.0511 0.9522
vn -0.0232 -0.9708 -0.2390
s 0
f 323//1 322//1 328//1 329//1
f 258//2 257//2 54//2 56//2
f 192//3 195//3 196//3 190//3
f 62//4 60//4 207//4 175//4
f 82//5 80//5 100//5 98//5
f 49//6 48//6 205//6 208//6
f 70//7 68//7 203//7 204//7
f 168//8 167//8 214//8 228//8
f 42//9 43//9 26//9 27//9
f 167//10 166//10 213//10 214//10
f 14//11 15//11 16//11 12//11
f 144//12 140//12 141//12 145//12
f 121//13 120//13 354//13 349//13
f 261//14 260//14 59//14 61//14
f 36//15 37//15 28//15 29//15
f 66//16 64//16 171//16 172//16
f 58//17 55//17 173//17 174//17
f 41//18 76//18 75//18 39//18
f 93//19 92//19 106//19 107//19
f 184//20 194//20 193//20 182//20
f 15//21 7//21 8//21 16//21
f 94//22 93//22 107//22 108//22
f 4//23 280//23 282//23 281//23 276//23 275//23 277//23 283//23 47//23 44//23 73//23 76//23 41//23 38//23 9//23 13//23 12//23 16//23 8//23 5//23
f 141//23 158//23 159//23 160//23 161//23 162//23 163//23 164//23 165//23 166//23 167//23 168//23 169//23 170//23 130//23 138//23 137//23 148//23 147//23 134//23 133//23 129//23 126//23 125//23 142//23 145//23
f 177//24 180//24 178//24 179//24
f 231//25 77//25 23//25 24//25
f 161//26 160//26 209//26 210//26
f 162//27 161//27 210//27 211//27
f 44//28 47//28 45//28 46//28
f 132//29 135//29 133//29 134//29
f 262//30 261//30 61//30 63//30
f 120//31 119//31 343//31 354//31
f 50//32 49//32 208//32 206//32
f 166//33 165//33 230//33 213//33
f 235//34 234//34 219//34 220//34
f 324//35 323//35 329//35 332//35
f 85//36 82//36 98//36 99//36
f 43//37 232//37 25//37 26//37
f 53//38 50//38 206//38 176//38
f 165//39 164//39 215//39 230//39
f 294//40 293//40 311//40 313//40
f 115//41 114//41 347//41 348//41
f 64//40 62//40 175//40 171//40
f 79//42 78//42 101//42 102//42
f 189//43 192//43 190//43 191//43
f 136//44 139//44 137//44 138//44
f 92//45 90//45 104//45 106//45
f 257//46 256//46 52//46 54//46
f 35//47 33//47 31//47 32//47
f 199//48 202//48 200//48 201//48
f 38//49 41//49 39//49 40//49
f 288//50 287//50 305//50 306//50
f 87//51 85//51 99//51 103//51
f 295//16 294//16 313//16 315//16
f 68//52 66//52 172//52 203//52
f 128//53 124//53 126//53 129//53
f 127//54 143//54 142//54 125//54
f 150//55 153//55 151//55 152//55
f 60//56 58//56 174//56 207//56
f 130//57 131//57 136//57 138//57
f 188//58 198//58 197//58 186//58
f 334//59 335//59 270//59 271//59
f 234//60 233//60 218//60 219//60
f 146//61 132//61 134//61 147//61
f 47//62 283//62 91//62 45//62
f 279//63 299//63 244//63 246//63
f 90//64 87//64 103//64 104//64
f 276//65 281//65 84//65 86//65
f 149//66 146//66 147//66 148//66
f 169//67 168//67 228//67 229//67
f 195//68 177//68 179//68 196//68
f 159//69 158//69 217//69 216//69
f 180//70 199//70 201//70 178//70
f 122//71 121//71 349//71 344//71
f 264//72 263//72 65//72 67//72
f 20//73 22//73 21//73 18//73
f 123//74 122//74 344//74 345//74
f 312//75 278//75 248//75 250//75
f 301//76 303//76 239//76 241//76
f 278//77 279//77 246//77 248//77
f 96//78 95//78 109//78 110//78
f 277//79 275//79 88//79 89//79
f 80//80 79//80 102//80 100//80
f 97//81 96//81 110//81 105//81
f 2//82 70//82 204//82 1//82
f 163//83 162//83 211//83 212//83
f 34//84 36//84 29//84 30//84
f 247//85 245//85 224//85 225//85
f 117//86 116//86 352//86 353//86
f 299//87 300//87 242//87 244//87
f 287//6 286//6 304//6 305//6
f 153//88 154//88 156//88 151//88
f 143//89 144//89 145//89 142//89
f 249//90 247//90 225//90 226//90
f 243//91 240//91 222//91 223//91
f 263//92 262//92 63//92 65//92
f 259//93 258//93 56//93 57//93
f 33//94 34//94 30//94 31//94
f 139//95 149//95 148//95 137//95
f 181//96 184//96 182//96 183//96
f 238//97 235//97 220//97 221//97
f 118//98 117//98 353//98 342//98
f 297//7 296//7 316//7 317//7
f 124//99 127//99 125//99 126//99
f 289//38 288//38 306//38 307//38
f 227//100 170//100 169//100 229//100
f 200//23 255//23 256//23 257//23 258//23 259//23 260//23 261//23 262//23 263//23 264//23 265//23 266//23 267//23 183//23 182//23 193//23 187//23 186//23 197//23 191//23 190//23 196//23 179//23 178//23 201//23
f 240//101 238//101 221//101 222//101
f 245//102 243//102 223//102 224//102
f 260//103 259//103 57//103 59//103
f 256//104 255//104 51//104 52//104
f 198//105 189//105 191//105 197//105
f 265//106 264//106 67//106 69//106
f 314//107 312//107 250//107 251//107
f 135//108 128//108 129//108 133//108
f 266//109 265//109 69//109 71//109
f 284//110 285//110 252//110 253//110
f 119//111 118//111 342//111 343//111
f 283//112 277//112 89//112 91//112
f 296//52 295//52 315//52 316//52
f 91//23 89//23 88//23 86//23 84//23 83//23 81//23 78//23 79//23 80//23 82//23 85//23 87//23 90//23 92//23 93//23 94//23 95//23 96//23 97//23 40//23 39//23 75//23 74//23 46//23 45//23
f 116//113 115//113 348//113 352//113
f 10//114 11//114 13//114 9//114
f 341//115 340//115 273//115 274//115
f 282//116 280//116 81//116 83//116
f 157//117 249//117 226//117 155//117
f 339//118 334//118 271//118 272//118
f 298//82 297//82 317//82 318//82
f 291//119 290//119 308//119 309//119
f 281//120 282//120 83//120 84//120
f 232//121 17//121 19//121 25//121
f 28//122 37//122 42//122 27//122
f 267//123 266//123 71//123 72//123
f 154//124 157//124 155//124 156//124
f 328//23 336//23 337//23 338//23 335//23 334//23 339//23 340//23 341//23 331//23 330//23 333//23 332//23 329//23
f 319//125 284//125 253//125 254//125
f 112//126 111//126 346//126 350//126
f 185//127 188//127 186//127 187//127
f 76//128 73//128 74//128 75//128
f 290//129 289//129 307//129 308//129
f 303//130 302//130 237//130 239//130
f 160//131 159//131 216//131 209//131
f 292//56 291//56 309//56 310//56
f 17//132 20//132 18//132 19//132
f 300//133 301//133 241//133 242//133
f 218//23 140//23 144//23 143//23 127//23 124//23 128//23 135//23 132//23 146//23 149//23 139//23 136//23 131//23 152//23 151//23 156//23 155//23 226//23 225//23 224//23 223//23 222//23 221//23 220//23 219//23
f 55//129 53//129 176//129 173//129
f 275//134 276//134 86//134 88//134
f 326//135 325//135 333//135 330//135
f 327//136 326//136 330//136 331//136
f 285//137 314//137 251//137 252//137
f 73//138 44//138 46//138 74//138
f 338//139 337//139 268//139 269//139
f 322//140 321//140 336//140 328//140
f 302//141 320//141 236//141 237//141
f 325//142 324//142 332//142 333//142
f 340//143 339//143 272//143 273//143
f 95//144 94//144 108//144 109//144
f 293//4 292//4 310//4 311//4
f 113//145 112//145 350//145 351//145
f 114//146 113//146 351//146 347//146
f 335//147 338//147 269//147 270//147
f 164//148 163//148 212//148 215//148
f 2//23 72//23 71//23 69//23 67//23 65//23 63//23 61//23 59//23 57//23 56//23 54//23 52//23 51//23 48//23 49//23 50//23 53//23 55//23 58//23 60//23 62//23 64//23 66//23 68//23 70//23
f 11//149 14//149 12//149 13//149
f 194//150 185//150 187//150 193//150
f 3//151 6//151 4//151 5//151
f 22//152 231//152 24//152 21//152
f 7//153 3//153 5//153 8//153
f 118//23 119//23 120//23 121//23 122//23 123//23 105//23 110//23 109//23 108//23 107//23 106//23 104//23 103//23 99//23 98//23 100//23 102//23 101//23 111//23 112//23 113//23 114//23 115//23 116//23 117//23
f 273//23 272//23 271//23 270//23 269//23 268//23 6//23 3//23 7//23 15//23 14//23 11//23 10//23 274//23
f 304//23 320//23 302//23 303//23 301//23 300//23 299//23 279//23 278//23 312//23 314//23 285//23 284//23 319//23 318//23 317//23 316//23 315//23 313//23 311//23 310//23 309//23 308//23 307//23 306//23 305//23
f 297//23 298//23 1//23 204//23 203//23 172//23 171//23 175//23 207//23 174//23 173//23 176//23 206//23 208//23 205//23 286//23 287//23 288//23 289//23 290//23 291//23 292//23 293//23 294//23 295//23 296//23
f 345//23 344//23 349//23 354//23 343//23 342//23 353//23 352//23 348//23 347//23 351//23 350//23 346//23 202//23 199//23 180//23 177//23 195//23 192//23 189//23 198//23 188//23 185//23 194//23 184//23 181//23
f 150//23 254//23 253//23 252//23 251//23 250//23 248//23 246//23 244//23 242//23 241//23 239//23 237//23 236//23 233//23 234//23 235//23 238//23 240//23 243//23 245//23 247//23 249//23 157//23 154//23 153//23
f 323//23 324//23 325//23 326//23 327//23 356//23 321//23 322//23
f 228//23 214//23 213//23 230//23 215//23 212//23 211//23 210//23 209//23 216//23 217//23 77//23 231//23 22//23 20//23 17//23 232//23 43//23 42//23 37//23 36//23 34//23 33//23 35//23 227//23 229//23
f 21//154 24//154 23//154 355//154 32//154 31//154 30//154 29//154 28//154 27//154 26//154 25//154 19//154 18//154
