# Blender 5.2.0 LTS
# www.blender.org
mtllib hat_right.mtl
o hat_right
v 0.069186 2.953947 -0.266885
v 0.063223 2.946617 -0.259127
v 0.069893 2.948554 -0.267642
v 0.062595 2.952033 -0.258471
v 0.105403 2.942055 -0.280465
v 0.100601 2.932715 -0.268422
v 0.106204 2.935841 -0.281666
v 0.099850 2.938956 -0.267340
v 0.033204 2.995173 -0.287752
v 0.029006 2.988014 -0.280440
v 0.034427 2.989840 -0.288384
v 0.028000 2.993420 -0.280126
v 0.036206 2.997234 -0.296416
v 0.037555 2.991987 -0.297409
v 0.036247 2.996646 -0.316208
v 0.036802 2.999463 -0.305526
v 0.038176 2.994308 -0.306899
v 0.034951 3.001707 -0.314462
v 0.031901 2.998840 -0.324701
v 0.030779 3.003813 -0.322616
v 0.111864 2.890999 -0.228104
v 0.123774 2.894457 -0.243308
v 0.133548 2.898304 -0.259881
v 0.141019 2.902472 -0.277539
v 0.146058 2.906891 -0.295979
v 0.148580 2.911485 -0.314887
v 0.148541 2.916176 -0.333939
v 0.145942 2.920883 -0.352809
v 0.097573 2.941911 -0.433540
v 0.140827 2.925525 -0.371174
v 0.111471 2.938288 -0.420171
v 0.133284 2.930025 -0.388720
v 0.123443 2.934303 -0.405146
v 0.108621 2.913712 -0.225900
v 0.120134 2.917055 -0.240598
v 0.119814 2.955573 -0.397041
v 0.108241 2.959424 -0.411566
v 0.144075 2.938049 -0.328208
v 0.141563 2.942600 -0.346449
v 0.129582 2.920773 -0.256618
v 0.136619 2.947088 -0.364201
v 0.094806 2.962926 -0.424488
v 0.141675 2.929074 -0.291513
v 0.136804 2.924802 -0.273687
v 0.144113 2.933515 -0.309791
v 0.033901 2.986882 -0.276315
v 0.034527 2.981417 -0.276983
v 0.129327 2.951437 -0.381162
v 0.043931 2.991543 -0.296225
v 0.043274 2.984859 -0.291813
v 0.044785 2.986184 -0.297346
v 0.042453 2.990247 -0.290816
v 0.063003 2.973099 -0.366685
v 0.054688 2.980204 -0.372146
v 0.062378 2.978200 -0.364749
v 0.055220 2.975127 -0.374171
v 0.056572 2.953427 -0.263548
v 0.062527 2.955156 -0.271150
v 0.067414 2.957079 -0.279437
v 0.074594 2.956075 -0.276055
v 0.071149 2.959163 -0.288266
v 0.078728 2.958381 -0.285825
v 0.073669 2.961373 -0.297486
v 0.081516 2.960827 -0.296029
v 0.074930 2.963670 -0.306940
v 0.082911 2.963369 -0.306492
v 0.074910 2.966015 -0.316466
v 0.073611 2.968369 -0.325901
v 0.082890 2.965964 -0.317034
v 0.071053 2.970690 -0.335083
v 0.081452 2.968569 -0.327475
v 0.067282 2.972940 -0.343856
v 0.062361 2.975079 -0.352069
v 0.049426 2.978883 -0.366266
v 0.056375 2.977071 -0.359582
v 0.078622 2.971138 -0.337637
v 0.074448 2.973627 -0.347346
v 0.069002 2.975995 -0.356435
v 0.030240 2.996691 -0.338614
v 0.029709 3.001816 -0.336576
v 0.040261 2.989024 -0.285636
v 0.038100 2.982455 -0.281544
v 0.041032 2.983608 -0.286516
v 0.037394 2.987896 -0.280775
v 0.045530 2.988970 -0.308734
v 0.044670 2.992891 -0.301772
v 0.045542 2.987563 -0.303018
v 0.044659 2.994267 -0.307360
v 0.040953 2.993125 -0.325168
v 0.042396 2.997010 -0.318282
v 0.043216 2.991775 -0.319904
v 0.040184 2.998329 -0.323429
v 0.043897 2.995648 -0.312896
v 0.044751 2.990382 -0.314395
v 0.034409 2.995604 -0.334603
v 0.037297 2.999584 -0.328248
v 0.038001 2.994408 -0.330096
v 0.033785 3.000753 -0.332655
v 0.039421 2.980285 -0.272858
v 0.043510 2.981472 -0.278078
v 0.046866 2.982793 -0.283768
v 0.049431 2.984224 -0.289831
v 0.051161 2.985741 -0.296162
v 0.052027 2.987318 -0.302654
v 0.052014 2.988929 -0.309195
v 0.051121 2.990545 -0.315674
v 0.049365 2.992139 -0.321979
v 0.034515 2.997764 -0.343391
v 0.046776 2.993684 -0.328003
v 0.039286 2.996521 -0.338801
v 0.043397 2.995152 -0.333642
v 0.039872 2.989769 -0.341144
v 0.044062 2.988375 -0.335885
v 0.040010 2.973218 -0.273920
v 0.044178 2.974429 -0.279241
v 0.035008 2.991037 -0.345823
v 0.047599 2.975775 -0.285042
v 0.050214 2.977234 -0.291222
v 0.047507 2.986877 -0.330136
v 0.050147 2.985302 -0.323995
v 0.052860 2.980388 -0.304294
v 0.051977 2.978780 -0.297676
v 0.052847 2.982030 -0.310962
v 0.121557 2.945727 -0.341519
v 0.122817 2.946049 -0.324747
v 0.123714 2.941820 -0.325857
v 0.120678 2.949924 -0.340283
v 0.051937 2.983677 -0.317567
v 0.044904 2.972086 -0.269795
v 0.049588 2.973446 -0.275775
v 0.053433 2.974959 -0.282294
v 0.056371 2.976599 -0.289239
v 0.058353 2.978337 -0.296493
v 0.059345 2.980144 -0.303930
v 0.059330 2.981989 -0.311424
v 0.058308 2.983840 -0.318846
v 0.056296 2.985666 -0.326069
v 0.039283 2.992111 -0.350600
v 0.053329 2.987436 -0.332971
v 0.044749 2.990686 -0.345342
v 0.049458 2.989119 -0.339432
v 0.117312 2.949580 -0.356762
v 0.116467 2.953747 -0.355403
v 0.102426 2.928168 -0.250127
v 0.093272 2.920923 -0.238014
v 0.103158 2.923794 -0.250633
v 0.092620 2.925321 -0.237609
v 0.093022 2.959715 -0.377371
v 0.099654 2.962536 -0.363110
v 0.100403 2.956506 -0.365051
v 0.092338 2.965716 -0.375320
v 0.116624 2.934766 -0.278310
v 0.111270 2.926986 -0.264389
v 0.117471 2.930446 -0.279045
v 0.110474 2.931334 -0.263772
v 0.111875 2.942601 -0.309677
v 0.109148 2.945339 -0.294173
v 0.109983 2.939155 -0.295496
v 0.111023 2.948754 -0.308228
v 0.084043 2.962703 -0.388640
v 0.073108 2.971371 -0.396426
v 0.083439 2.968678 -0.386489
v 0.073620 2.965420 -0.398666
v 0.121653 2.934114 -0.294350
v 0.120773 2.938405 -0.293493
v 0.123746 2.937927 -0.310044
v 0.122849 2.942187 -0.309061
v 0.083731 2.933527 -0.243719
v 0.084338 2.927237 -0.244590
v 0.111845 2.946119 -0.323966
v 0.110994 2.952241 -0.322390
v 0.105260 2.959191 -0.350067
v 0.106060 2.953131 -0.351892
v 0.109896 2.949649 -0.338118
v 0.109062 2.955740 -0.336416
v 0.093270 2.929830 -0.255993
v 0.092584 2.936097 -0.255020
v 0.069707 2.970867 -0.358271
v 0.075219 2.968471 -0.349072
v 0.102684 2.918746 -0.230081
v 0.113562 2.921905 -0.243968
v 0.122489 2.925417 -0.259104
v 0.129312 2.929224 -0.275231
v 0.133915 2.933260 -0.292074
v 0.136218 2.937456 -0.309343
v 0.136182 2.941741 -0.326744
v 0.133808 2.946040 -0.343979
v 0.111051 2.953315 -0.371325
v 0.102883 2.956866 -0.384958
v 0.081411 2.963180 -0.408525
v 0.092946 2.960173 -0.397430
v 0.129137 2.950280 -0.360752
v 0.089632 2.965245 -0.417712
v 0.102325 2.961936 -0.405503
v 0.122248 2.954389 -0.376777
v 0.113260 2.958297 -0.391779
v 0.050414 2.965052 -0.266445
v 0.051055 2.960170 -0.266970
v 0.079443 2.965952 -0.339247
v 0.082307 2.963352 -0.328962
v 0.083762 2.960716 -0.318395
v 0.083784 2.958089 -0.307726
v 0.075366 2.950707 -0.276922
v 0.082372 2.955516 -0.297137
v 0.079550 2.953042 -0.286811
v 0.130173 2.925486 -0.275822
v 0.134809 2.929552 -0.292788
v 0.080854 2.967237 -0.406751
v 0.092297 2.964255 -0.395744
v 0.110257 2.957452 -0.369849
v 0.102154 2.960974 -0.383373
v 0.129996 2.946696 -0.361967
v 0.134702 2.942424 -0.345071
v 0.103350 2.914932 -0.230343
v 0.114308 2.918113 -0.244330
v 0.123057 2.950835 -0.378109
v 0.137129 2.933778 -0.310183
v 0.123300 2.921651 -0.259577
v 0.114003 2.954771 -0.393221
v 0.137093 2.938094 -0.327711
v 0.090203 2.961770 -0.419343
v 0.102989 2.958437 -0.407045
v 0.076578 2.935182 -0.249747
v 0.084677 2.937533 -0.260086
v 0.091323 2.940148 -0.271356
v 0.096403 2.942983 -0.283363
v 0.099830 2.945988 -0.295903
v 0.101545 2.949112 -0.308760
v 0.101518 2.952302 -0.321716
v 0.099751 2.955502 -0.334547
v 0.096273 2.958659 -0.347035
v 0.091144 2.961719 -0.358966
v 0.084452 2.964628 -0.370136
v 0.066860 2.969801 -0.389444
v 0.076311 2.967338 -0.380353
v 0.055949 2.959037 -0.262845
v 0.056414 2.961726 -0.273812
v 0.061824 2.960743 -0.270346
v 0.060812 2.963457 -0.281269
v 0.066646 2.962641 -0.278521
v 0.064174 2.965332 -0.289215
v 0.070332 2.964697 -0.287233
v 0.066442 2.967321 -0.297514
v 0.072818 2.966877 -0.296330
v 0.067577 2.969388 -0.306022
v 0.074062 2.969144 -0.305658
v 0.067559 2.971499 -0.314596
v 0.066390 2.973617 -0.323087
v 0.074043 2.971458 -0.315057
v 0.064088 2.975706 -0.331351
v 0.072760 2.973780 -0.324366
v 0.060694 2.977731 -0.339247
v 0.056265 2.979656 -0.346639
v 0.044624 2.983080 -0.359416
v 0.050878 2.981450 -0.353400
v 0.070237 2.976070 -0.333426
v 0.048899 2.984154 -0.364193
v 0.066516 2.978290 -0.342082
v 0.055755 2.982366 -0.357598
v 0.061661 2.980401 -0.350185
v 0.023482 2.994466 -0.283933
v 0.027819 2.995926 -0.290289
v 0.030321 2.997644 -0.297508
v 0.030818 2.999501 -0.305100
v 0.029275 3.001371 -0.312547
v 0.025798 3.003126 -0.319342
v 0.024570 3.005639 -0.329430
v 0.020624 3.004648 -0.325020
v 0.065573 2.972097 -0.296537
v 0.066691 2.974134 -0.304919
v 0.063254 2.980359 -0.329873
v 0.059911 2.982353 -0.337652
v 0.044078 2.987623 -0.357522
v 0.050240 2.986017 -0.351595
v 0.055548 2.984250 -0.344934
v 0.066674 2.976213 -0.313366
v 0.065522 2.978300 -0.321731
v 0.025434 3.000742 -0.331799
v 0.063339 2.970138 -0.288361
v 0.066275 2.972694 -0.387956
v 0.100620 2.952207 -0.308064
v 0.100594 2.955366 -0.320892
v 0.098922 2.949114 -0.295332
v 0.095529 2.946138 -0.282915
v 0.083695 2.967572 -0.368838
v 0.075633 2.970255 -0.378955
v 0.098844 2.958535 -0.333598
v 0.095400 2.961661 -0.345963
v 0.069247 2.945223 -0.254050
v 0.076552 2.947345 -0.263376
v 0.082546 2.949703 -0.273540
v 0.087128 2.952260 -0.284370
v 0.090219 2.954970 -0.295681
v 0.091766 2.957788 -0.307278
v 0.091742 2.960665 -0.318963
v 0.090148 2.963552 -0.330536
v 0.087011 2.966400 -0.341800
v 0.060482 2.976449 -0.380051
v 0.082385 2.969159 -0.352561
v 0.069006 2.974227 -0.371852
v 0.076349 2.971783 -0.362636
v 0.069874 2.939807 -0.254706
v 0.075898 2.938414 -0.249629
v 0.077259 2.941951 -0.264133
v 0.083918 2.940742 -0.259867
v 0.083319 2.944336 -0.274408
v 0.090499 2.943332 -0.271026
v 0.087950 2.946920 -0.285356
v 0.091075 2.949660 -0.296789
v 0.092638 2.952508 -0.308512
v 0.092614 2.955417 -0.320324
v 0.091003 2.958335 -0.332023
v 0.087832 2.961214 -0.343410
v 0.083155 2.964003 -0.354288
v 0.077053 2.966656 -0.364472
v 0.090321 2.964691 -0.357777
v 0.061014 2.971372 -0.382076
v 0.069631 2.969126 -0.373788
v 0.016209 3.006934 -0.287639
v 0.019100 3.007908 -0.291876
v 0.020768 3.009053 -0.296689
v 0.021099 3.010291 -0.301750
v 0.014303 3.013723 -0.315030
v 0.020071 3.011538 -0.306715
v 0.017753 3.012708 -0.311244
v 0.017944 3.000335 -0.287570
v 0.021197 3.001430 -0.292336
v 0.023073 3.002718 -0.297751
v 0.015800 3.007971 -0.318385
v 0.023446 3.004111 -0.303445
v 0.019681 3.006830 -0.314126
v 0.022838 2.999202 -0.283445
v 0.027031 3.000614 -0.289588
v 0.029449 3.002275 -0.296567
v 0.022289 3.005514 -0.309030
v 0.029929 3.004070 -0.303906
v 0.028438 3.005877 -0.311105
v 0.020075 3.009045 -0.323162
v 0.025077 3.007575 -0.317673
v 0.045363 2.985100 -0.347397
v 0.050152 2.983506 -0.341387
v 0.045520 2.966184 -0.270570
v 0.060027 2.968290 -0.280533
v 0.055694 2.966585 -0.273186
v 0.039804 2.986549 -0.352745
v 0.060206 2.974379 -0.305284
v 0.059198 2.972541 -0.297720
v 0.050284 2.967567 -0.276652
v 0.054194 2.969106 -0.283281
v 0.057182 2.970773 -0.290344
v 0.060191 2.976255 -0.312905
v 0.059151 2.978138 -0.320452
v 0.057105 2.979995 -0.327798
v 0.054088 2.981794 -0.334817
v -0.008481 2.918842 -0.329534
v 0.001150 3.010418 -0.300331
vn 0.9873 0.1547 0.0361
vn 0.9555 0.2019 -0.2151
vn 0.7827 0.0360 0.6213
vn 0.9183 0.1682 0.3583
vn 0.7074 0.4844 -0.5147
vn 0.9883 0.1486 0.0346
vn 0.9724 0.2193 -0.0792
vn 0.9565 0.0799 0.2805
vn 0.9510 0.1142 0.2872
vn 0.8192 0.0525 0.5711
vn 0.9117 0.2463 -0.3288
vn 0.9171 0.2056 -0.3415
vn 0.7853 0.0161 0.6189
vn 0.7805 0.0510 0.6230
vn 0.7838 0.2122 0.5836
vn 0.9387 0.2889 -0.1884
vn 0.8596 0.2346 -0.4539
vn 0.8882 0.1865 0.4198
vn 0.9876 0.1532 0.0357
vn 0.9499 0.2864 -0.1249
vn 0.7005 0.3034 -0.6460
vn 0.0232 0.9708 0.2390
vn 0.9715 0.1653 0.1697
vn 0.7287 0.3981 -0.5573
vn 0.7782 0.3352 -0.5311
vn 0.9132 0.0664 0.4020
vn 0.8517 0.2940 -0.4337
vn 0.6982 0.3258 -0.6375
vn 0.6980 0.3273 -0.6369
vn 0.8616 -0.0022 0.5076
vn 0.9271 0.3318 -0.1743
vn 0.9710 0.2262 -0.0773
vn 0.7794 0.0582 0.6238
vn 0.9166 0.0414 0.3976
vn 0.9823 0.1611 -0.0951
vn 0.7898 -0.0263 0.6127
vn 0.9850 0.0826 0.1514
vn 0.9533 0.2163 -0.2108
vn 0.7882 -0.0091 0.6154
vn 0.9126 0.2403 -0.3307
vn 0.9469 0.1360 0.2913
vn 0.9669 0.2260 0.1185
vn 0.8566 0.0401 0.5145
vn 0.9569 0.1919 -0.2180
vn 0.9839 0.1740 0.0408
vn 0.9801 0.1181 0.1594
vn 0.7832 0.3008 -0.5442
vn 0.8568 0.0385 0.5142
vn 0.7861 0.0098 0.6180
vn 0.7620 0.4152 -0.4970
vn 0.9729 0.1584 0.1682
vn 0.9814 0.1096 0.1575
vn 0.9521 0.2426 0.1859
vn 0.8512 0.0748 0.5194
vn 0.7858 0.2783 -0.5523
vn 0.9794 0.1227 0.1604
vn 0.9786 0.1856 -0.0885
vn 0.9060 0.2796 -0.3178
vn 0.8493 0.3082 -0.4286
vn 0.9809 0.1711 -0.0924
vn 0.9153 0.0516 0.3994
vn 0.8585 0.0252 0.5122
vn 0.9535 0.2148 -0.2113
vn 0.9086 0.2653 -0.3226
vn 0.7771 0.3419 -0.5285
vn 0.7019 0.2871 -0.6519
vn 0.9517 0.3021 -0.0557
vn 0.8978 0.3184 -0.3043
vn 0.8417 0.3467 -0.4140
vn 0.8566 0.2609 -0.4452
vn 0.7713 0.3734 -0.5155
vn 0.8993 0.1415 0.4139
vn 0.9215 0.3763 -0.0964
vn 0.9075 0.1010 0.4078
vn 0.9796 0.1956 0.0462
vn 0.9062 0.1080 0.4089
vn 0.9379 0.3179 0.1391
vn 0.7830 0.3023 -0.5437
vn 0.6877 0.3979 -0.6072
vn 0.8481 0.3149 -0.4261
vn 0.8687 0.3450 -0.3554
vn 0.9636 0.2587 -0.0682
vn 0.9120 0.2448 -0.3293
vn 0.8500 0.0819 0.5203
vn 0.9721 0.2283 0.0542
vn 0.9186 0.0243 0.3944
vn 0.9910 0.1301 0.0300
vn 0.9600 0.0527 0.2750
vn 0.9932 0.1133 0.0259
vn 0.6957 0.3459 -0.6295
vn 0.8436 0.1157 0.5244
vn 0.8555 0.2692 -0.4424
vn 0.9135 0.0648 0.4017
vn 0.9845 0.1444 -0.0996
vn 0.9546 0.0930 0.2832
vn 0.7874 0.2619 -0.5580
vn 0.9758 0.1437 0.1650
vn 0.7837 0.2963 -0.5459
vn 0.9281 0.2139 0.3049
vn 0.9473 0.2498 -0.2007
vn 0.9789 0.1840 -0.0889
vn 0.9459 0.2566 -0.1986
vn 0.9542 0.2103 -0.2126
vn 0.9553 0.0884 0.2822
vn 0.8546 0.2752 -0.4404
vn 0.9601 0.2721 0.0650
vn 0.9396 0.1693 0.2973
vn 0.9141 0.0602 0.4009
vn 0.8578 0.2511 -0.4485
vn 0.9829 0.0995 0.1552
vn 0.8909 0.2619 0.3711
vn 0.9641 0.1984 0.1768
vn 0.9151 0.2221 -0.3364
vn 0.9543 0.0946 0.2835
vn 0.7643 0.1377 0.6300
vn 0.8314 0.3889 -0.3968
vn 0.8077 0.1167 0.5780
vn 0.6995 0.3132 -0.6423
vn 0.9796 0.1795 -0.0901
vn 0.9117 0.2464 -0.3288
vn 0.7390 0.3384 -0.5826
vn 0.8429 0.4331 -0.3194
vn 0.8548 0.2736 -0.4409
vn 0.6938 0.3600 -0.6237
vn 0.9579 0.0697 0.2785
vn 0.9791 0.1242 0.1608
vn 0.9500 0.2354 -0.2051
vn 0.9810 0.1886 0.0444
vn 0.7855 0.0145 0.6186
vn 0.8574 0.0338 0.5135
vn 0.8813 0.2845 -0.3775
vn 0.6986 0.3214 -0.6392
vn 0.9753 0.2048 -0.0832
vn 0.8868 0.3610 -0.2887
vn 0.9483 0.1290 0.2900
vn 0.8333 0.1610 0.5288
vn 0.9317 0.1047 0.3478
vn 0.6928 0.3666 -0.6209
vn 0.9896 0.1402 0.0325
vn 0.7847 0.2881 -0.5488
vn 0.9590 0.1753 -0.2227
vn 0.9810 0.1635 0.1042
vn 0.6796 0.4395 -0.5874
vn 0.9138 0.2320 -0.3333
vn 0.9101 0.0861 0.4054
vn 0.8537 0.0598 0.5174
vn 0.9638 0.2248 -0.1432
vn 0.7804 0.3211 -0.5366
vn 0.7736 0.0921 0.6270
vn 0.8597 0.0150 0.5105
vn 0.7871 0.0011 0.6168
vn 0.9047 0.2864 -0.3155
vn -0.0232 -0.9708 -0.2390
s 0
f 201//1 69//1 66//1 202//1
f 353//2 137//2 136//2 352//2
f 344//3 197//3 198//3 237//3
f 13//4 9//4 11//4 14//4
f 329//5 323//5 325//5 331//5
f 67//6 249//6 246//6 65//6
f 28//7 39//7 38//7 27//7
f 133//8 132//8 350//8 347//8
f 269//9 279//9 241//9 243//9
f 333//10 332//10 261//10 262//10
f 179//11 77//11 76//11 199//11
f 119//12 109//12 107//12 120//12
f 1//13 4//13 2//13 3//13
f 22//14 35//14 34//14 21//14
f 320//15 319//15 326//15 327//15
f 212//16 192//16 187//16 213//16
f 113//17 111//17 109//17 119//17
f 284//18 307//18 225//18 226//18
f 85//19 88//19 86//19 87//19
f 15//20 18//20 16//20 17//20
f 160//21 163//21 161//21 162//21
f 161//22 234//22 235//22 233//22 232//22 231//22 230//22 229//22 228//22 227//22 226//22 225//22 224//22 223//22 168//22 177//22 8//22 5//22 157//22 159//22 171//22 175//22 172//22 149//22 151//22 162//22
f 166//23 167//23 165//23 164//23
f 278//24 267//24 20//24 19//24
f 31//25 37//25 36//25 33//25
f 292//26 291//26 306//26 308//26
f 311//1 295//1 294//1 310//1
f 193//22 190//22 191//22 189//22 188//22 142//22 124//22 126//22 166//22 164//22 154//22 153//22 146//22 145//22 180//22 181//22 182//22 183//22 184//22 185//22 186//22 187//22 192//22 195//22 196//22 194//22
f 257//22 254//22 255//22 253//22 252//22 250//22 248//22 247//22 245//22 243//22 241//22 239//22 237//22 198//22 236//22 238//22 240//22 242//22 244//22 246//22 249//22 251//22 256//22 258//22 260//22 259//22
f 253//27 275//27 272//27 252//27
f 95//28 79//28 80//28 98//28
f 138//22 116//22 112//22 113//22 119//22 120//22 128//22 123//22 121//22 122//22 118//22 117//22 115//22 114//22 129//22 130//22 131//22 132//22 133//22 134//22 135//22 136//22 137//22 139//22 141//22 140//22
f 318//29 317//29 298//29 300//29
f 101//30 100//30 115//30 117//30
f 231//31 288//31 287//31 230//31
f 124//32 127//32 125//32 126//32
f 144//33 147//33 145//33 146//33
f 5//34 8//34 6//34 7//34
f 174//35 175//35 171//35 170//35
f 100//36 99//36 114//36 115//36
f 121//37 104//37 103//37 122//37
f 199//38 76//38 71//38 200//38
f 177//39 168//39 169//39 176//39
f 72//40 258//40 256//40 70//40
f 164//41 165//41 152//41 154//41
f 17//42 16//42 13//42 14//42
f 291//43 290//43 304//43 306//43
f 173//44 172//44 175//44 174//44
f 247//45 276//45 270//45 245//45
f 313//38 297//38 296//38 312//38
f 65//46 246//46 244//46 63//46
f 95//47 98//47 96//47 97//47
f 81//48 84//48 82//48 83//48
f 238//49 236//49 57//49 58//49
f 235//50 286//50 285//50 233//50
f 26//51 45//51 43//51 25//51
f 346//52 134//52 133//52 347//52
f 228//53 281//53 283//53 227//53
f 40//54 35//54 22//54 23//54
f 148//55 160//55 162//55 151//55
f 87//56 86//56 49//56 51//56
f 200//57 71//57 69//57 201//57
f 32//58 48//58 41//58 30//58
f 33//59 36//59 48//59 32//59
f 352//60 136//60 135//60 351//60
f 132//61 131//61 349//61 350//61
f 131//62 130//62 348//62 349//62
f 91//63 90//63 93//63 94//63
f 252//64 272//64 271//64 250//64
f 191//65 209//65 211//65 189//65
f 112//66 116//66 108//66 110//66
f 230//67 287//67 282//67 229//67
f 216//68 195//68 192//68 212//68
f 219//69 196//69 195//69 216//69
f 53//29 56//29 54//29 55//29
f 341//70 141//70 139//70 354//70
f 219//71 222//71 194//71 196//71
f 183//72 182//72 218//72 206//72
f 335//73 324//73 322//73 330//73
f 44//74 40//74 23//74 24//74
f 126//75 125//75 167//75 166//75
f 152//76 155//76 153//76 154//76
f 330//77 322//77 321//77 328//77
f 53//78 55//78 78//78 178//78
f 215//22 214//22 34//22 35//22 40//22 44//22 43//22 45//22 38//22 39//22 41//22 48//22 36//22 37//22 42//22 221//22 222//22 219//22 216//22 212//22 213//22 220//22 217//22 207//22 206//22 218//22
f 222//79 221//79 193//79 194//79
f 189//80 211//80 210//80 188//80
f 19//81 20//81 18//81 15//81
f 312//57 296//57 295//57 311//57
f 213//82 187//82 186//82 220//82
f 89//83 92//83 90//83 91//83
f 155//84 144//84 146//84 153//84
f 220//85 186//85 185//85 217//85
f 102//86 101//86 117//86 118//86
f 170//87 171//87 159//87 156//87
f 103//88 102//88 118//88 122//88
f 123//89 105//89 104//89 121//89
f 255//90 254//90 273//90 274//90
f 182//91 181//91 215//91 218//91
f 73//92 260//92 258//92 72//92
f 52//93 81//93 83//93 50//93
f 128//94 106//94 105//94 123//94
f 49//95 52//95 50//95 51//95
f 112//96 110//96 111//96 113//96
f 245//97 270//97 269//97 243//97
f 75//98 259//98 260//98 73//98
f 283//99 284//99 226//99 227//99
f 30//100 41//100 39//100 28//100
f 94//101 93//101 88//101 85//101
f 142//102 143//102 127//102 124//102
f 70//103 256//103 251//103 68//103
f 244//104 242//104 61//104 63//104
f 178//105 78//105 77//105 179//105
f 229//106 282//106 281//106 228//106
f 184//107 183//107 206//107 207//107
f 242//108 240//108 59//108 61//108
f 148//109 151//109 149//109 150//109
f 156//110 159//110 157//110 158//110
f 318//78 300//78 301//78 315//78
f 321//111 320//111 327//111 328//111
f 217//112 185//112 184//112 207//112
f 150//113 149//113 172//113 173//113
f 64//114 62//114 205//114 204//114
f 334//22 336//22 337//22 339//22 338//22 329//22 331//22 335//22 330//22 328//22 327//22 326//22 332//22 333//22
f 305//115 303//115 223//115 224//115
f 233//116 285//116 316//116 232//116
f 9//117 12//117 10//117 11//117
f 340//118 345//118 138//118 140//118
f 68//119 251//119 249//119 67//119
f 314//120 299//120 297//120 313//120
f 268//121 338//121 339//121 266//121
f 331//122 325//122 324//122 335//122
f 97//123 96//123 92//123 89//123
f 31//124 29//124 42//124 37//124
f 158//125 157//125 5//125 7//125
f 62//26 60//26 203//26 205//26
f 356//22 319//22 320//22 321//22 322//22 324//22 325//22 323//22
f 290//13 289//13 302//13 304//13
f 202//126 66//126 64//126 204//126
f 250//127 271//127 277//127 248//127
f 27//128 38//128 45//128 26//128
f 293//114 292//114 308//114 309//114
f 84//129 46//129 47//129 82//129
f 60//43 1//43 3//43 203//43
f 240//130 238//130 58//130 59//130
f 266//131 339//131 337//131 265//131
f 310//126 294//126 293//126 309//126
f 75//132 74//132 257//132 259//132
f 315//105 301//105 299//105 314//105
f 248//133 277//133 276//133 247//133
f 232//134 316//134 288//134 231//134
f 43//135 44//135 24//135 25//135
f 307//136 305//136 224//136 225//136
f 334//137 333//137 262//137 263//137
f 92//22 96//22 98//22 80//22 278//22 19//22 15//22 17//22 14//22 11//22 10//22 46//22 84//22 81//22 52//22 49//22 86//22 88//22 93//22 90//22
f 191//138 190//138 208//138 209//138
f 351//139 135//139 134//139 346//139
f 340//140 140//140 141//140 341//140
f 120//141 107//141 106//141 128//141
f 264//142 336//142 334//142 263//142
f 235//143 234//143 280//143 286//143
f 354//144 139//144 137//144 353//144
f 279//145 343//145 239//145 241//145
f 343//146 344//146 237//146 239//146
f 265//147 337//147 336//147 264//147
f 255//148 274//148 275//148 253//148
f 181//149 180//149 214//149 215//149
f 8//150 177//150 176//150 6//150
f 130//151 129//151 342//151 348//151
f 188//152 210//152 143//152 142//152
f 21//153 355//153 29//153 31//153 33//153 32//153 30//153 28//153 27//153 26//153 25//153 24//153 23//153 22//153
f 108//22 79//22 95//22 97//22 89//22 91//22 94//22 85//22 87//22 51//22 50//22 83//22 82//22 47//22 99//22 100//22 101//22 102//22 103//22 104//22 105//22 106//22 107//22 109//22 111//22 110//22
f 60//22 62//22 64//22 66//22 69//22 71//22 76//22 77//22 78//22 55//22 54//22 74//22 75//22 73//22 72//22 70//22 68//22 67//22 65//22 63//22 61//22 59//22 58//22 57//22 4//22 1//22
f 18//22 20//22 267//22 268//22 266//22 265//22 264//22 263//22 262//22 261//22 12//22 9//22 13//22 16//22
f 280//22 317//22 318//22 315//22 314//22 313//22 312//22 311//22 310//22 309//22 308//22 306//22 304//22 302//22 303//22 305//22 307//22 284//22 283//22 281//22 282//22 287//22 288//22 316//22 285//22 286//22
f 352//22 351//22 346//22 347//22 350//22 349//22 348//22 342//22 197//22 344//22 343//22 279//22 269//22 270//22 276//22 277//22 271//22 272//22 275//22 274//22 273//22 345//22 340//22 341//22 354//22 353//22
f 204//22 205//22 203//22 3//22 2//22 289//22 290//22 291//22 292//22 293//22 294//22 295//22 296//22 297//22 299//22 301//22 300//22 298//22 56//22 53//22 178//22 179//22 199//22 200//22 201//22 202//22
f 208//22 163//22 160//22 148//22 150//22 173//22 174//22 170//22 156//22 158//22 7//22 6//22 176//22 169//22 147//22 144//22 155//22 152//22 165//22 167//22 125//22 127//22 143//22 210//22 211//22 209//22
