# Blender 5.2.0 LTS
# www.blender.org
mtllib hat_left.mtl
o hat_left
v -0.113627 2.895970 -0.226419
v -0.099729 2.892348 -0.213051
v -0.008481 2.918842 -0.329534
v -0.023892 2.988351 -0.276677
v -0.022782 2.993744 -0.276513
v -0.030359 2.990253 -0.283775
v -0.028991 2.995570 -0.283327
v -0.035015 2.999920 -0.300417
v -0.034705 2.992448 -0.292268
v -0.033163 2.997676 -0.291481
v -0.036634 2.994785 -0.301577
v -0.031416 3.004210 -0.318191
v -0.027465 3.001079 -0.328036
v -0.032886 2.999253 -0.320092
v -0.026212 3.005963 -0.325817
v -0.034419 3.002149 -0.309527
v -0.036013 2.997106 -0.311067
v -0.145188 2.939893 -0.307629
v -0.148098 2.913376 -0.293781
v -0.142676 2.935343 -0.289388
v -0.150697 2.918082 -0.312651
v -0.142788 2.948868 -0.344324
v -0.150736 2.922773 -0.331703
v -0.145226 2.944427 -0.326046
v -0.148214 2.927367 -0.350611
v -0.143175 2.931787 -0.369052
v -0.137917 2.953140 -0.362150
v -0.135441 2.904233 -0.257870
v -0.113627 2.895970 -0.226419
v -0.125599 2.899955 -0.241444
v -0.142983 2.908733 -0.275416
v -0.099729 2.892348 -0.213051
v -0.135705 2.935955 -0.386709
v -0.125930 2.939801 -0.403282
v -0.114020 2.943259 -0.418486
v -0.062176 2.954784 -0.257539
v -0.074247 2.959356 -0.274942
v -0.068801 2.956989 -0.265853
v -0.054486 2.952780 -0.250142
v -0.078420 2.961846 -0.284651
v -0.081250 2.964415 -0.294813
v -0.062160 2.957905 -0.270219
v -0.056174 2.955912 -0.262706
v -0.049225 2.954101 -0.256022
v -0.067081 2.960044 -0.278432
v -0.082688 2.967020 -0.305254
v -0.070852 2.962294 -0.287205
v -0.073409 2.964615 -0.296387
v -0.082710 2.969615 -0.315796
v -0.074709 2.966969 -0.305822
v -0.081314 2.972157 -0.326259
v -0.074728 2.969314 -0.315348
v -0.073467 2.971611 -0.324802
v -0.078526 2.974602 -0.336462
v -0.070948 2.973820 -0.334022
v -0.074392 2.976909 -0.346233
v -0.067212 2.975905 -0.342851
v -0.068984 2.979037 -0.355403
v -0.062325 2.977828 -0.351137
v -0.062394 2.980950 -0.363816
v -0.056370 2.979557 -0.358740
v -0.069942 2.973946 -0.357227
v -0.075415 2.971792 -0.347946
v -0.121247 2.960887 -0.395239
v -0.109734 2.964230 -0.409937
v -0.137732 2.930855 -0.271636
v -0.095919 2.915016 -0.211349
v -0.109354 2.918518 -0.224271
v -0.130441 2.926505 -0.254675
v -0.120927 2.922369 -0.238796
v -0.049872 2.992771 -0.314919
v -0.051900 2.984339 -0.310180
v -0.050738 2.991194 -0.308427
v -0.051018 2.985947 -0.316797
v -0.037997 2.981992 -0.272279
v -0.043103 2.976353 -0.278589
v -0.038912 2.974958 -0.273330
v -0.042108 2.983360 -0.277438
v -0.045487 2.984828 -0.283078
v -0.033226 2.980748 -0.267690
v -0.048076 2.986373 -0.289102
v -0.049832 2.987967 -0.295407
v -0.036712 2.984104 -0.280985
v -0.033120 2.982908 -0.276477
v -0.028951 2.981822 -0.272467
v -0.050725 2.989583 -0.301886
v -0.039664 2.985387 -0.285913
v -0.041927 2.986737 -0.291177
v -0.043461 2.988130 -0.296686
v -0.044241 2.989542 -0.302347
v -0.044253 2.990949 -0.308063
v -0.048142 2.994288 -0.321250
v -0.043496 2.992327 -0.313735
v -0.041985 2.993653 -0.319267
v -0.045577 2.995719 -0.327313
v -0.039743 2.994904 -0.324565
v -0.042221 2.997040 -0.333003
v -0.036811 2.996058 -0.329536
v -0.038132 2.998227 -0.338223
v -0.033238 2.997095 -0.334098
v -0.049187 2.979425 -0.290479
v -0.050977 2.981050 -0.296907
v -0.039050 2.991509 -0.340554
v -0.043218 2.990299 -0.335232
v -0.034048 2.973690 -0.268651
v -0.051887 2.982697 -0.303511
v -0.046547 2.977850 -0.284338
v -0.046639 2.988953 -0.329432
v -0.049254 2.987494 -0.323252
v -0.043789 2.974041 -0.269132
v -0.052369 2.977291 -0.281503
v -0.048498 2.975609 -0.275042
v -0.055336 2.979061 -0.288405
v -0.038323 2.972616 -0.263874
v -0.057348 2.980887 -0.295628
v -0.058370 2.982739 -0.303050
v -0.058386 2.984584 -0.310544
v -0.057394 2.986391 -0.317981
v -0.055412 2.988129 -0.325234
v -0.052473 2.989769 -0.332180
v -0.048629 2.991281 -0.338699
v -0.043944 2.992641 -0.344679
v -0.053507 2.984166 -0.334012
v -0.056496 2.982499 -0.326949
v -0.044834 2.987088 -0.346723
v -0.049598 2.985705 -0.340642
v -0.123555 2.947619 -0.307219
v -0.122496 2.939496 -0.292526
v -0.121415 2.943744 -0.291683
v -0.124653 2.943403 -0.308188
v -0.081591 2.926431 -0.225215
v -0.093885 2.925050 -0.236615
v -0.082350 2.922043 -0.225519
v -0.093034 2.929413 -0.236221
v -0.117204 2.939921 -0.276563
v -0.111991 2.931908 -0.262720
v -0.110994 2.936217 -0.262117
v -0.118251 2.935642 -0.277283
v -0.117362 2.958902 -0.353656
v -0.112209 2.958237 -0.369656
v -0.118410 2.954777 -0.355000
v -0.111211 2.962334 -0.368194
v -0.123587 2.951481 -0.322905
v -0.124686 2.947296 -0.324001
v -0.103822 2.928357 -0.249086
v -0.102891 2.932694 -0.248592
v -0.121511 2.955264 -0.338473
v -0.122592 2.951109 -0.339694
v -0.103264 2.923286 -0.228542
v -0.123188 2.930833 -0.257268
v -0.114199 2.926926 -0.242265
v -0.090571 2.919978 -0.216332
v -0.130076 2.934943 -0.273293
v -0.134748 2.939183 -0.290066
v -0.137121 2.943482 -0.307301
v -0.137157 2.947766 -0.324701
v -0.134854 2.951962 -0.341971
v -0.130251 2.955998 -0.358813
v -0.123428 2.959805 -0.374941
v -0.114501 2.963318 -0.390077
v -0.104097 2.961429 -0.383412
v -0.103623 2.966477 -0.403964
v -0.094211 2.964299 -0.396031
v -0.063272 2.975883 -0.365741
v -0.079599 2.969458 -0.338058
v -0.079491 2.956548 -0.285622
v -0.082356 2.959148 -0.295906
v -0.049554 2.967256 -0.265698
v -0.055804 2.964200 -0.272973
v -0.050416 2.962407 -0.266211
v -0.054861 2.969022 -0.272360
v -0.065988 2.977059 -0.303928
v -0.065928 2.970239 -0.296524
v -0.064836 2.974972 -0.295562
v -0.067098 2.972357 -0.305016
v -0.064887 2.981175 -0.320757
v -0.067115 2.974468 -0.313589
v -0.066005 2.979139 -0.312374
v -0.065981 2.976535 -0.322098
v -0.044162 2.960776 -0.260196
v -0.043392 2.965650 -0.259772
v -0.075267 2.954028 -0.275797
v -0.063052 2.949401 -0.258184
v -0.055269 2.947372 -0.250697
v -0.083833 2.964411 -0.317143
v -0.082421 2.966983 -0.327731
v -0.103164 2.965501 -0.381839
v -0.093358 2.968348 -0.394357
v -0.083811 2.961784 -0.306473
v -0.104463 2.963011 -0.405494
v -0.069756 2.951632 -0.266598
v -0.135815 2.935518 -0.290765
v -0.138206 2.939848 -0.308126
v -0.124413 2.956290 -0.376260
v -0.131286 2.952456 -0.360014
v -0.115421 2.959829 -0.391507
v -0.131109 2.931246 -0.273870
v -0.138242 2.944164 -0.325654
v -0.135922 2.948390 -0.343049
v -0.124170 2.927107 -0.257728
v -0.115116 2.923171 -0.242616
v -0.104102 2.919505 -0.228792
v -0.091316 2.916172 -0.216494
v -0.084780 2.930965 -0.243326
v -0.093760 2.933954 -0.254595
v -0.074357 2.928248 -0.233300
v -0.101141 2.937162 -0.266915
v -0.106798 2.940537 -0.280074
v -0.110634 2.944019 -0.293847
v -0.112583 2.947549 -0.308000
v -0.112612 2.951067 -0.322289
v -0.110721 2.954513 -0.336470
v -0.106941 2.957827 -0.350300
v -0.101338 2.960953 -0.363544
v -0.094008 2.963838 -0.375973
v -0.085075 2.966432 -0.387376
v -0.130695 2.957169 -0.379219
v -0.083884 2.937222 -0.242466
v -0.100099 2.943364 -0.265845
v -0.092783 2.940184 -0.253635
v -0.073553 2.934529 -0.232529
v -0.105706 2.946708 -0.278887
v -0.109507 2.950160 -0.292539
v -0.084897 2.941272 -0.258819
v -0.076756 2.938562 -0.248601
v -0.067305 2.936099 -0.239511
v -0.091589 2.944181 -0.269989
v -0.111439 2.953659 -0.306565
v -0.096718 2.947240 -0.281920
v -0.100196 2.950397 -0.294408
v -0.111468 2.957145 -0.320727
v -0.101963 2.953598 -0.307239
v -0.109594 2.960560 -0.334782
v -0.101990 2.956788 -0.320195
v -0.100275 2.959912 -0.333052
v -0.105848 2.963845 -0.348490
v -0.096849 2.962917 -0.345592
v -0.100295 2.966944 -0.361615
v -0.091768 2.965751 -0.357599
v -0.093029 2.969802 -0.373934
v -0.085122 2.968367 -0.368869
v -0.084176 2.972373 -0.385236
v -0.077023 2.970718 -0.379207
v -0.055293 2.961490 -0.262013
v -0.066055 2.965566 -0.277530
v -0.061200 2.963455 -0.269426
v -0.048437 2.959702 -0.255419
v -0.069776 2.967786 -0.286186
v -0.072299 2.970076 -0.295245
v -0.060233 2.966125 -0.280365
v -0.073581 2.972399 -0.304555
v -0.063627 2.968150 -0.288260
v -0.073601 2.974713 -0.313954
v -0.072357 2.976979 -0.323282
v -0.069870 2.979159 -0.332379
v -0.063713 2.978524 -0.330396
v -0.066185 2.981215 -0.341090
v -0.060351 2.980400 -0.338342
v -0.061363 2.983113 -0.349266
v -0.055953 2.982130 -0.345800
v -0.055487 2.984819 -0.356767
v -0.050593 2.983686 -0.352642
v -0.024010 2.996257 -0.286601
v -0.018836 2.994735 -0.280923
v -0.027487 2.998012 -0.293396
v -0.029030 2.999882 -0.300843
v -0.028533 3.001739 -0.308435
v -0.026032 3.003457 -0.315654
v -0.021695 3.004918 -0.322010
v -0.040855 2.992084 -0.290194
v -0.038642 2.990764 -0.285047
v -0.035852 3.001197 -0.327701
v -0.032359 3.002211 -0.332161
v -0.043117 2.994826 -0.301116
v -0.042355 2.993446 -0.295581
v -0.028167 2.987278 -0.271900
v -0.032243 2.988340 -0.275821
v -0.035755 2.989509 -0.280228
v -0.042389 2.997550 -0.312251
v -0.043129 2.996202 -0.306704
v -0.040911 2.998846 -0.317660
v -0.038719 3.000069 -0.322839
v -0.069054 2.948272 -0.253017
v -0.082434 2.953341 -0.272307
v -0.076397 2.950716 -0.262233
v -0.060530 2.946051 -0.244818
v -0.087060 2.956100 -0.283069
v -0.090196 2.958948 -0.294332
v -0.091791 2.961835 -0.305906
v -0.091814 2.964712 -0.317591
v -0.090268 2.967529 -0.329188
v -0.087177 2.970240 -0.340498
v -0.082595 2.972796 -0.351328
v -0.076600 2.975155 -0.361493
v -0.069295 2.977276 -0.370818
v -0.075933 2.941761 -0.248495
v -0.083994 2.944444 -0.258612
v -0.069930 2.942889 -0.253661
v -0.077353 2.945360 -0.262977
v -0.061313 2.940643 -0.245373
v -0.090620 2.947325 -0.269672
v -0.095699 2.950354 -0.281486
v -0.066575 2.939322 -0.239493
v -0.099143 2.953480 -0.293852
v -0.083454 2.948013 -0.273162
v -0.100893 2.956650 -0.306558
v -0.088131 2.950802 -0.284040
v -0.091302 2.953681 -0.295426
v -0.100919 2.959808 -0.319386
v -0.092913 2.956599 -0.307125
v -0.092937 2.959507 -0.318938
v -0.099221 2.962902 -0.332117
v -0.091374 2.962356 -0.330661
v -0.095828 2.965877 -0.344534
v -0.088250 2.965095 -0.342094
v -0.090798 2.968684 -0.356424
v -0.083618 2.967680 -0.353042
v -0.084217 2.971273 -0.367583
v -0.077558 2.970064 -0.363317
v -0.076197 2.973602 -0.377820
v -0.070174 2.972208 -0.372743
v -0.012003 3.007114 -0.285632
v -0.017771 3.009299 -0.293947
v -0.015453 3.008129 -0.289418
v -0.018799 3.010545 -0.298912
v -0.018468 3.011784 -0.303973
v -0.016800 3.012928 -0.308786
v -0.013909 3.013902 -0.313023
v -0.019191 3.007078 -0.311361
v -0.021068 3.005790 -0.305946
v -0.020833 3.009306 -0.320252
v 0.017944 3.000335 -0.287570
v -0.017675 3.001678 -0.289571
v -0.020283 3.002995 -0.294667
v -0.021440 3.004397 -0.300252
v -0.015939 3.008174 -0.316127
v -0.027443 3.006233 -0.307129
v -0.027924 3.004438 -0.299790
v -0.013795 3.000537 -0.285312
v -0.018070 2.999463 -0.280534
v -0.026432 3.002631 -0.292592
v -0.023071 3.000934 -0.286024
v 0.022838 2.999202 -0.283445
v -0.025025 3.007894 -0.314108
v -0.049465 2.969767 -0.275907
v -0.053402 2.971478 -0.282477
v -0.044677 2.968173 -0.269896
v -0.039117 2.966724 -0.264549
v -0.059504 2.977018 -0.304389
v -0.059520 2.978894 -0.312010
v -0.058511 2.980731 -0.319573
v -0.056419 2.973278 -0.289495
v -0.058465 2.975135 -0.296841
v -0.059224 2.970919 -0.279642
v -0.062568 2.972914 -0.287420
v -0.062653 2.983134 -0.328932
v -0.059341 2.984982 -0.336760
v -0.055008 2.986687 -0.344108
v -0.049728 2.988220 -0.350848
v -0.008481 2.918842 -0.329534
v 0.017944 3.000335 -0.287570
v 0.022838 2.999202 -0.283445
v 0.001150 3.010418 -0.300331
vn -0.0232 -0.9708 -0.2390
vn -0.7294 0.0623 0.6813
vn -0.9374 0.2382 0.2540
vn -0.8481 0.3127 -0.4276
vn -0.9048 0.2864 -0.3152
vn -0.8462 0.0776 0.5272
vn -0.8974 0.3194 -0.3043
vn -0.9624 0.2010 0.1827
vn -0.9521 0.3009 -0.0539
vn -0.9702 0.1672 0.1753
vn -0.7951 0.4078 -0.4489
vn -0.9033 0.1064 0.4156
vn -0.9715 0.1611 0.1740
vn -0.8397 0.3522 -0.4135
vn -0.8465 0.0760 0.5270
vn -0.7691 0.3759 -0.5169
vn -0.9606 0.2079 0.1842
vn -0.7479 0.1711 0.6413
vn -0.9496 0.1118 0.2927
vn -0.9452 0.1349 0.2973
vn 0.0232 0.9708 0.2390
vn -0.8174 0.1974 0.5412
vn -0.6838 0.0603 0.7272
vn -0.7503 0.4486 -0.4857
vn -0.9868 0.1569 0.0407
vn -0.8532 0.0356 0.5204
vn -0.8493 0.3068 -0.4297
vn -0.6758 0.1013 0.7301
vn -0.8260 0.2729 0.4932
vn -0.7786 0.0254 0.6271
vn -0.9094 0.2623 -0.3228
vn -0.8551 0.2724 -0.4411
vn -0.7745 0.0505 0.6305
vn -0.8562 0.1795 0.4845
vn -0.8424 0.0972 0.5300
vn -0.8943 0.1477 0.4223
vn -0.9789 0.1981 0.0508
vn -0.6896 0.0255 0.7238
vn -0.7593 0.1259 0.6384
vn -0.6898 0.0239 0.7236
vn -0.7756 0.0442 0.6297
vn -0.8096 0.3483 -0.4725
vn -0.7769 0.3367 -0.5320
vn -0.7669 0.4938 -0.4099
vn -0.7780 0.3308 -0.5342
vn -0.7667 0.0922 0.6354
vn -0.7710 0.0702 0.6329
vn -0.6825 0.0675 0.7278
vn -0.9107 0.0647 0.4081
vn -0.7772 0.3352 -0.5326
vn -0.9221 0.2960 -0.2491
vn -0.9612 0.2688 -0.0629
vn -0.9060 0.2804 -0.3171
vn -0.9365 0.2981 -0.1845
vn -0.9045 0.1003 0.4145
vn -0.8298 0.1525 0.5369
vn -0.9786 0.1877 -0.0849
vn -0.9710 0.2317 0.0590
vn -0.9079 0.0816 0.4112
vn -0.9745 0.2172 0.0555
vn -0.9544 0.2985 0.0106
vn -0.9382 0.2913 -0.1866
vn -0.8505 0.0527 0.5233
vn -0.8873 0.3577 -0.2910
vn -0.9780 0.1258 0.1661
vn -0.8859 0.1809 0.4272
vn -0.6895 0.0255 0.7238
vn -0.9355 0.1775 0.3054
vn -0.6954 -0.0169 0.7184
vn -0.9046 0.3297 0.2702
vn -0.8508 0.2986 -0.4325
vn -0.7810 0.0083 0.6245
vn -0.7748 0.0489 0.6303
vn -0.9535 0.2175 -0.2085
vn -0.8525 0.2888 -0.4357
vn -0.9838 0.1736 0.0448
vn -0.9277 0.3300 -0.1744
vn -0.8742 0.3998 -0.2755
vn -0.8488 0.0629 0.5249
vn -0.7162 0.1265 0.6864
vn -0.9461 0.1303 0.2964
vn -0.9720 0.2225 -0.0756
vn -0.8473 0.0714 0.5263
vn -0.9507 0.2340 -0.2037
vn -0.6905 0.0192 0.7231
vn -0.6864 0.0453 0.7258
vn -0.9462 0.2566 -0.1971
vn -0.9792 0.1965 0.0504
vn -0.9131 0.2545 0.3186
vn -0.6905 0.2216 0.6885
vn -0.9707 0.2286 -0.0739
vn -0.9705 0.1656 0.1750
vn -0.6918 0.0106 0.7220
vn -0.7794 0.3226 -0.5371
vn -0.9061 0.0918 0.4130
vn -0.8740 0.4440 -0.1973
vn -0.9051 0.2849 -0.3157
vn -0.8484 0.3112 -0.4282
vn -0.9449 0.1365 0.2977
vn -0.9525 0.0949 0.2893
vn -0.9459 0.2582 -0.1966
vn -0.9488 0.2439 -0.2008
vn -0.6932 0.0003 0.7208
vn -0.8377 0.1191 0.5329
vn -0.9516 0.2406 0.1911
vn -0.9471 0.2522 -0.1984
vn -0.9377 0.2842 0.2000
vn -0.6656 0.1469 0.7317
vn -0.9461 0.3142 0.0793
vn -0.9372 0.1705 0.3041
vn -0.8317 0.3836 -0.4015
vn -0.9381 0.3437 -0.0416
vn -0.7834 0.2965 -0.5462
vn -0.9036 0.1049 0.4153
vn -0.9751 0.1426 0.1699
vn -0.8412 0.3455 -0.4159
vn -0.9122 0.2459 -0.3279
vn -0.9659 0.1865 0.1796
vn -0.9756 0.2043 -0.0805
vn -0.8728 0.2254 0.4330
vn -0.7681 0.0851 0.6346
vn -0.7734 0.3553 -0.5250
vn -0.7809 0.3129 -0.5406
vn -0.7617 0.4072 -0.5041
vn -0.8393 0.1121 0.5320
vn -0.9714 0.2372 -0.0055
vn -0.9542 0.1759 0.2419
vn -0.9141 0.3724 -0.1605
vn -0.7705 0.3693 -0.5196
vn -0.9710 0.2270 -0.0743
vn -0.9210 0.3880 0.0347
vn -0.8958 0.3261 -0.3020
vn -0.9692 0.2385 0.0607
vn -0.8717 0.1163 0.4761
vn -0.7770 0.0356 0.6285
vn -0.9664 0.2476 -0.0687
vn -0.9737 0.2142 -0.0778
vn -0.9732 0.1527 0.1721
vn -0.8960 0.1407 0.4212
vn -0.9449 0.1365 0.2976
vn -0.9478 0.1219 0.2948
vn -0.9819 0.1836 0.0472
vn -0.9602 0.2709 0.0687
vn -0.8193 0.4253 -0.3845
vn -0.9267 0.2104 0.3113
vn -0.9802 0.1920 0.0493
vn -0.8993 0.1260 0.4189
vn -0.9629 0.2620 -0.0648
vn -0.9058 0.3563 -0.2291
vn -0.9076 0.2722 -0.3197
vn -0.9008 0.3052 -0.3090
vn -0.9417 0.2771 -0.1909
vn -0.9407 0.1559 0.3014
vn -0.9033 0.1065 0.4156
vn -0.8443 0.3314 -0.4210
s 0
f 3//1 2//1 1//1
f 340//2 342//2 263//2 264//2
f 8//3 11//3 9//3 10//3
f 56//4 58//4 62//4 63//4
f 54//5 56//5 63//5 165//5
f 284//6 305//6 299//6 285//6
f 27//7 217//7 33//7 26//7
f 18//8 21//8 19//8 20//8
f 157//9 199//9 198//9 156//9
f 46//10 189//10 167//10 41//10
f 12//11 15//11 13//11 14//11
f 40//12 166//12 182//12 37//12
f 251//13 50//13 48//13 249//13
f 142//14 187//14 161//14 140//14
f 271//15 87//15 83//15 278//15
f 187//16 188//16 163//16 161//16
f 127//17 130//17 128//17 129//17
f 296//18 297//18 224//18 225//18
f 223//19 209//19 208//19 222//19
f 275//20 89//20 88//20 270//20
f 80//21 85//21 84//21 83//21 87//21 88//21 89//21 90//21 91//21 93//21 94//21 96//21 98//21 100//21 99//21 97//21 95//21 92//21 71//21 73//21 86//21 82//21 81//21 79//21 78//21 75//21
f 301//22 227//22 224//22 297//22
f 67//23 68//23 29//23 32//23
f 292//5 293//5 317//5 315//5
f 318//24 320//24 243//24 241//24
f 73//25 72//25 106//25 86//25
f 79//26 107//26 76//26 78//26
f 257//27 259//27 59//27 57//27
f 152//28 149//28 202//28 203//28
f 323//29 334//29 333//29 324//29
f 218//30 220//30 205//30 204//30
f 236//31 238//31 214//31 213//31
f 95//32 97//32 104//32 108//32
f 36//33 38//33 191//33 183//33
f 10//34 9//34 6//34 7//34
f 354//35 250//35 169//35 171//35
f 5//21 264//21 263//21 265//21 266//21 267//21 268//21 269//21 15//21 12//21 16//21 8//21 10//21 7//21
f 135//36 138//36 136//36 137//36
f 290//37 311//37 310//37 289//37
f 39//38 36//38 183//38 184//38
f 149//39 151//39 201//39 202//39
f 276//40 277//40 84//40 85//40
f 244//41 246//41 42//41 43//41
f 360//1 29//1 30//1 28//1 31//1 19//1 21//1 23//1 25//1 26//1 33//1 34//1 35//1
f 344//42 331//42 269//42 268//42
f 58//43 60//43 164//43 62//43
f 327//44 328//44 336//44 329//44
f 67//21 203//21 202//21 201//21 200//21 197//21 192//21 193//21 198//21 199//21 195//21 194//21 196//21 190//21 65//21 64//21 217//21 27//21 22//21 24//21 18//21 20//21 66//21 69//21 70//21 68//21
f 259//45 261//45 61//45 59//45
f 134//46 146//46 145//46 132//46
f 168//47 171//47 169//47 170//47
f 131//48 134//48 132//48 133//48
f 81//49 101//49 107//49 79//49
f 272//50 273//50 100//50 98//50
f 337//51 344//51 268//51 267//51
f 147//52 148//52 144//52 143//52
f 255//53 257//53 57//53 55//53
f 147//54 139//54 141//54 148//54
f 248//55 47//55 45//55 245//55
f 151//56 150//56 200//56 201//56
f 71//57 74//57 72//57 73//57
f 24//58 23//58 21//58 18//58
f 222//59 208//59 207//59 219//59
f 178//60 177//60 175//60 172//60
f 16//61 17//61 11//61 8//61
f 22//62 27//62 26//62 25//62
f 219//63 207//63 205//63 220//63
f 158//64 159//64 194//64 195//64
f 86//65 106//65 102//65 82//65
f 153//66 197//66 200//66 150//66
f 286//67 283//67 298//67 300//67
f 129//68 128//68 138//68 135//68
f 80//69 75//69 77//69 105//69
f 283//33 285//33 299//33 298//33
f 325//70 335//70 334//70 323//70
f 120//71 121//71 126//71 123//71
f 75//72 78//72 76//72 77//72
f 277//73 278//73 83//73 84//73
f 286//21 184//21 183//21 191//21 182//21 166//21 167//21 189//21 185//21 186//21 165//21 63//21 62//21 164//21 295//21 294//21 293//21 292//21 291//21 290//21 289//21 288//21 287//21 284//21 285//21 283//21
f 71//74 92//74 109//74 74//74
f 37//6 182//6 191//6 38//6
f 238//75 240//75 215//75 214//75
f 231//76 211//76 210//76 228//76
f 157//77 158//77 195//77 199//77
f 314//78 316//78 239//78 237//78
f 111//79 346//79 345//79 112//79
f 5//80 7//80 6//80 4//80
f 249//81 48//81 47//81 248//81
f 254//82 53//82 52//82 253//82
f 245//83 45//83 42//83 246//83
f 233//84 236//84 213//84 212//84
f 247//85 244//85 43//85 44//85
f 181//86 168//86 170//86 180//86
f 279//87 281//87 94//87 93//87
f 280//88 91//88 90//88 274//88
f 221//21 226//21 225//21 224//21 227//21 229//21 230//21 232//21 234//21 235//21 237//21 239//21 241//21 243//21 242//21 240//21 238//21 236//21 233//21 231//21 228//21 223//21 222//21 219//21 220//21 218//21
f 304//89 230//89 229//89 302//89
f 322//90 324//90 333//90 339//90
f 291//91 313//91 311//91 290//91
f 274//92 90//92 89//92 275//92
f 114//93 110//93 347//93 348//93
f 121//94 122//94 125//94 126//94
f 113//95 352//95 346//95 111//95
f 255//21 254//21 253//21 251//21 249//21 248//21 245//21 246//21 244//21 247//21 180//21 170//21 169//21 250//21 252//21 173//21 175//21 177//21 179//21 256//21 258//21 260//21 262//21 261//21 259//21 257//21
f 326//96 327//96 329//96 330//96
f 281//97 282//97 96//97 94//97
f 282//98 272//98 98//98 96//98
f 41//99 167//99 166//99 40//99
f 82//100 102//100 101//100 81//100
f 51//101 54//101 165//101 186//101
f 118//102 119//102 124//102 351//102
f 221//103 218//103 204//103 206//103
f 137//104 136//104 145//104 146//104
f 49//37 185//37 189//37 46//37
f 155//105 193//105 192//105 154//105
f 254//106 255//106 55//106 53//106
f 306//107 232//107 230//107 304//107
f 303//108 296//108 225//108 226//108
f 289//10 310//10 308//10 288//10
f 293//4 294//4 319//4 317//4
f 309//109 234//109 232//109 306//109
f 20//110 19//110 31//110 66//110
f 159//111 160//111 196//111 194//111
f 291//101 292//101 315//101 313//101
f 312//112 235//112 234//112 309//112
f 294//43 295//43 321//43 319//43
f 97//113 99//113 103//113 104//113
f 270//114 88//114 87//114 271//114
f 228//115 210//115 209//115 223//115
f 217//116 64//116 34//116 33//116
f 92//117 95//117 108//117 109//117
f 172//118 175//118 173//118 174//118
f 233//119 212//119 211//119 231//119
f 302//120 229//120 227//120 301//120
f 68//121 70//121 30//121 29//121
f 358//122 359//122 262//122 260//122
f 240//123 242//123 216//123 215//123
f 160//124 162//124 190//124 196//124
f 69//125 28//125 30//125 70//125
f 337//126 267//126 266//126 338//126
f 338//127 266//127 265//127 341//127
f 312//128 314//128 237//128 235//128
f 64//129 65//129 35//129 34//129
f 51//91 186//91 185//91 49//91
f 279//130 93//130 91//130 280//130
f 326//131 330//131 335//131 325//131
f 139//132 142//132 140//132 141//132
f 143//133 144//133 130//133 127//133
f 341//134 265//134 263//134 342//134
f 110//135 112//135 345//135 347//135
f 176//136 179//136 177//136 178//136
f 118//137 351//137 350//137 117//137
f 116//138 349//138 353//138 115//138
f 66//139 31//139 28//139 69//139
f 288//140 308//140 307//140 287//140
f 115//141 353//141 352//141 113//141
f 117//142 350//142 349//142 116//142
f 156//143 198//143 193//143 155//143
f 316//144 318//144 241//144 239//144
f 154//145 192//145 197//145 153//145
f 253//146 52//146 50//146 251//146
f 355//147 252//147 250//147 354//147
f 22//148 25//148 23//148 24//148
f 16//149 12//149 14//149 17//149
f 119//150 120//150 123//150 124//150
f 356//151 357//151 258//151 256//151
f 176//152 356//152 256//152 179//152
f 174//153 173//153 252//153 355//153
f 287//154 307//154 305//154 284//154
f 357//155 358//155 260//155 258//155
f 163//21 162//21 160//21 159//21 158//21 157//21 156//21 155//21 154//21 153//21 150//21 151//21 149//21 152//21 133//21 132//21 145//21 136//21 138//21 128//21 130//21 144//21 148//21 141//21 140//21 161//21
f 114//21 105//21 77//21 76//21 107//21 101//21 102//21 106//21 72//21 74//21 109//21 108//21 104//21 103//21 122//21 121//21 120//21 119//21 118//21 117//21 116//21 115//21 113//21 111//21 112//21 110//21
f 339//21 333//21 334//21 335//21 330//21 329//21 336//21 331//21 344//21 337//21 338//21 341//21 342//21 340//21
f 321//21 320//21 318//21 316//21 314//21 312//21 309//21 306//21 304//21 302//21 301//21 297//21 296//21 303//21 300//21 298//21 299//21 305//21 307//21 308//21 310//21 311//21 313//21 315//21 317//21 319//21
f 9//21 11//21 17//21 14//21 13//21 273//21 272//21 282//21 281//21 279//21 280//21 274//21 275//21 270//21 271//21 278//21 277//21 276//21 4//21 6//21
f 181//21 348//21 347//21 345//21 346//21 352//21 353//21 349//21 350//21 351//21 124//21 123//21 126//21 125//21 359//21 358//21 357//21 356//21 176//21 178//21 172//21 174//21 355//21 354//21 171//21 168//21
f 39//21 44//21 43//21 42//21 45//21 47//21 48//21 50//21 52//21 53//21 55//21 57//21 59//21 61//21 60//21 58//21 56//21 54//21 51//21 49//21 46//21 41//21 40//21 37//21 38//21 36//21
f 214//21 215//21 216//21 188//21 187//21 142//21 139//21 147//21 143//21 127//21 129//21 135//21 137//21 146//21 134//21 131//21 206//21 204//21 205//21 207//21 208//21 209//21 210//21 211//21 212//21 213//21
f 322//21 363//21 328//21 327//21 326//21 325//21 323//21 324//21
l 332 361
l 343 362
