# Blender 5.2.0 LTS
# www.blender.org
mtllib joystick_top.mtl
o joystick_top
v 0.000000 0.191718 0.000001
v 0.000000 0.221135 0.080227
v -0.021645 0.221135 0.077252
v 0.000000 0.191718 0.000001
v -0.021645 0.221135 0.077252
v -0.041684 0.221135 0.068548
v 0.000000 0.191718 0.000001
v -0.041684 0.221135 0.068548
v -0.058632 0.221135 0.054759
v 0.000000 0.191718 0.000001
v -0.058632 0.221135 0.054759
v -0.071232 0.221135 0.036910
v 0.000000 0.191718 0.000001
v -0.071232 0.221135 0.036910
v -0.078548 0.221135 0.016323
v 0.000000 0.191718 0.000001
v -0.078548 0.221135 0.016323
v -0.080039 0.221135 -0.005474
v 0.000000 0.191718 0.000001
v -0.080039 0.221135 -0.005474
v -0.075594 0.221135 -0.026865
v 0.000000 0.191718 0.000001
v -0.075594 0.221135 -0.026865
v -0.065542 0.221135 -0.046264
v 0.000000 0.191718 0.000001
v -0.065542 0.221135 -0.046264
v -0.050630 0.221135 -0.062231
v 0.000000 0.191718 0.000001
v -0.050630 0.221135 -0.062231
v -0.031962 0.221135 -0.073583
v 0.000000 0.191718 0.000001
v -0.031962 0.221135 -0.073583
v -0.010924 0.221135 -0.079478
v 0.000000 0.191718 0.000001
v -0.010924 0.221135 -0.079478
v 0.010924 0.221135 -0.079478
v 0.000000 0.191718 0.000001
v 0.010924 0.221135 -0.079478
v 0.031962 0.221135 -0.073583
v 0.000000 0.191718 0.000001
v 0.031962 0.221135 -0.073583
v 0.050630 0.221135 -0.062231
v 0.000000 0.191718 0.000001
v 0.050630 0.221135 -0.062231
v 0.065542 0.221135 -0.046264
v 0.000000 0.191718 0.000001
v 0.065542 0.221135 -0.046264
v 0.075594 0.221135 -0.026865
v 0.000000 0.191718 0.000001
v 0.075594 0.221135 -0.026865
v 0.080039 0.221135 -0.005474
v 0.000000 0.191718 0.000001
v 0.080039 0.221135 -0.005474
v 0.078548 0.221135 0.016323
v 0.000000 0.191718 0.000001
v 0.078548 0.221135 0.016323
v 0.071232 0.221135 0.036910
v 0.000000 0.191718 0.000001
v 0.071232 0.221135 0.036910
v 0.058632 0.221135 0.054759
v 0.000000 0.191718 0.000001
v 0.058632 0.221135 0.054759
v 0.041684 0.221135 0.068548
v 0.000000 0.191718 0.000001
v 0.041684 0.221135 0.068548
v 0.021645 0.221135 0.077252
v 0.000000 0.191718 0.000001
v 0.021645 0.221135 0.077252
v 0.000000 0.221135 0.080227
v -0.041684 0.363548 0.148774
v -0.021645 0.221135 0.077252
v 0.000000 0.221135 0.080227
v 0.000000 0.221135 0.080227
v 0.000000 0.363548 0.154503
v -0.041684 0.363548 0.148774
v -0.080277 0.363548 0.132011
v -0.041684 0.221135 0.068548
v -0.021645 0.221135 0.077252
v -0.021645 0.221135 0.077252
v -0.041684 0.363548 0.148774
v -0.080277 0.363548 0.132011
v -0.112916 0.363548 0.105457
v -0.058632 0.221135 0.054759
v -0.041684 0.221135 0.068548
v -0.041684 0.221135 0.068548
v -0.080277 0.363548 0.132011
v -0.112916 0.363548 0.105457
v -0.137180 0.363548 0.071082
v -0.071232 0.221135 0.036910
v -0.058632 0.221135 0.054759
v -0.058632 0.221135 0.054759
v -0.112916 0.363548 0.105457
v -0.137180 0.363548 0.071082
v -0.151271 0.363548 0.031435
v -0.078548 0.221135 0.016323
v -0.071232 0.221135 0.036910
v -0.071232 0.221135 0.036910
v -0.137180 0.363548 0.071082
v -0.151271 0.363548 0.031435
v -0.154142 0.363548 -0.010543
v -0.080039 0.221135 -0.005474
v -0.078548 0.221135 0.016323
v -0.078548 0.221135 0.016323
v -0.151271 0.363548 0.031435
v -0.154142 0.363548 -0.010543
v -0.145581 0.363549 -0.051739
v -0.075594 0.221135 -0.026865
v -0.080039 0.221135 -0.005474
v -0.080039 0.221135 -0.005474
v -0.154142 0.363548 -0.010543
v -0.145581 0.363549 -0.051739
v -0.126224 0.363548 -0.089097
v -0.065542 0.221135 -0.046264
v -0.075594 0.221135 -0.026865
v -0.075594 0.221135 -0.026865
v -0.145581 0.363549 -0.051739
v -0.126224 0.363548 -0.089097
v -0.097505 0.363549 -0.119848
v -0.050630 0.221135 -0.062231
v -0.065542 0.221135 -0.046264
v -0.065542 0.221135 -0.046264
v -0.126224 0.363548 -0.089097
v -0.097505 0.363549 -0.119848
v -0.061554 0.363548 -0.141710
v -0.031962 0.221135 -0.073583
v -0.050630 0.221135 -0.062231
v -0.050630 0.221135 -0.062231
v -0.097505 0.363549 -0.119848
v -0.061554 0.363548 -0.141710
v -0.021038 0.363548 -0.153062
v -0.010924 0.221135 -0.079478
v -0.031962 0.221135 -0.073583
v -0.031962 0.221135 -0.073583
v -0.061554 0.363548 -0.141710
v -0.021038 0.363548 -0.153062
v 0.021038 0.363548 -0.153062
v 0.010924 0.221135 -0.079478
v -0.010924 0.221135 -0.079478
v -0.010924 0.221135 -0.079478
v -0.021038 0.363548 -0.153062
v 0.021038 0.363548 -0.153062
v 0.061554 0.363548 -0.141710
v 0.031962 0.221135 -0.073583
v 0.010924 0.221135 -0.079478
v 0.010924 0.221135 -0.079478
v 0.021038 0.363548 -0.153062
v 0.061554 0.363548 -0.141710
v 0.097504 0.363548 -0.119848
v 0.050630 0.221135 -0.062231
v 0.031962 0.221135 -0.073583
v 0.031962 0.221135 -0.073583
v 0.061554 0.363548 -0.141710
v 0.097504 0.363548 -0.119848
v 0.126223 0.363548 -0.089097
v 0.065542 0.221135 -0.046264
v 0.050630 0.221135 -0.062231
v 0.050630 0.221135 -0.062231
v 0.097504 0.363548 -0.119848
v 0.126223 0.363548 -0.089097
v 0.145581 0.363548 -0.051739
v 0.075594 0.221135 -0.026865
v 0.065542 0.221135 -0.046264
v 0.065542 0.221135 -0.046264
v 0.126223 0.363548 -0.089097
v 0.145581 0.363548 -0.051739
v 0.154142 0.363548 -0.010543
v 0.080039 0.221135 -0.005474
v 0.075594 0.221135 -0.026865
v 0.075594 0.221135 -0.026865
v 0.145581 0.363548 -0.051739
v 0.154142 0.363548 -0.010543
v 0.151271 0.363548 0.031435
v 0.078548 0.221135 0.016323
v 0.080039 0.221135 -0.005474
v 0.080039 0.221135 -0.005474
v 0.154142 0.363548 -0.010543
v 0.151271 0.363548 0.031435
v 0.137180 0.363548 0.071082
v 0.071232 0.221135 0.036910
v 0.078548 0.221135 0.016323
v 0.078548 0.221135 0.016323
v 0.151271 0.363548 0.031435
v 0.137180 0.363548 0.071082
v 0.112916 0.363548 0.105457
v 0.058632 0.221135 0.054759
v 0.071232 0.221135 0.036910
v 0.071232 0.221135 0.036910
v 0.137180 0.363548 0.071082
v 0.112916 0.363548 0.105457
v 0.080277 0.363548 0.132010
v 0.041684 0.221135 0.068548
v 0.058632 0.221135 0.054759
v 0.058632 0.221135 0.054759
v 0.112916 0.363548 0.105457
v 0.080277 0.363548 0.132010
v 0.041684 0.363548 0.148774
v 0.021645 0.221135 0.077252
v 0.041684 0.221135 0.068548
v 0.041684 0.221135 0.068548
v 0.080277 0.363548 0.132010
v 0.041684 0.363548 0.148774
v 0.000000 0.363548 0.154503
v 0.000000 0.221135 0.080227
v 0.021645 0.221135 0.077252
v 0.021645 0.221135 0.077252
v 0.041684 0.363548 0.148774
v 0.000000 0.363548 0.154503
v -0.145704 0.499889 0.457140
v -0.041684 0.363548 0.148774
v 0.000000 0.363548 0.154503
v 0.000000 0.363548 0.154503
v 0.000000 0.499889 0.467908
v -0.145704 0.499889 0.457140
v -0.274070 0.499889 0.420551
v -0.080277 0.363548 0.132011
v -0.041684 0.363548 0.148774
v -0.041684 0.363548 0.148774
v -0.145704 0.499889 0.457140
v -0.274070 0.499889 0.420551
v -0.371476 0.499889 0.350243
v -0.112916 0.363548 0.105457
v -0.080277 0.363548 0.132011
v -0.080277 0.363548 0.132011
v -0.274070 0.499889 0.420551
v -0.371476 0.499889 0.350243
v -0.432681 0.499889 0.244022
v -0.137180 0.363548 0.071082
v -0.112916 0.363548 0.105457
v -0.112916 0.363548 0.105457
v -0.371476 0.499889 0.350243
v -0.432681 0.499889 0.244022
v -0.462120 0.499889 0.109649
v -0.151271 0.363548 0.031435
v -0.137180 0.363548 0.071082
v -0.137180 0.363548 0.071082
v -0.432681 0.499889 0.244022
v -0.462120 0.499889 0.109649
v -0.467705 0.499889 -0.037892
v -0.154142 0.363548 -0.010543
v -0.151271 0.363548 0.031435
v -0.151271 0.363548 0.031435
v -0.462120 0.499889 0.109649
v -0.467705 0.499889 -0.037892
v -0.451583 0.499889 -0.180973
v -0.145581 0.363549 -0.051739
v -0.154142 0.363548 -0.010543
v -0.154142 0.363548 -0.010543
v -0.467705 0.499889 -0.037892
v -0.451583 0.499889 -0.180973
v -0.407581 0.499889 -0.302746
v -0.126224 0.363548 -0.089097
v -0.145581 0.363549 -0.051739
v -0.145581 0.363549 -0.051739
v -0.451583 0.499889 -0.180973
v -0.407581 0.499889 -0.302746
v -0.328262 0.499889 -0.391194
v -0.097505 0.363549 -0.119848
v -0.126224 0.363548 -0.089097
v -0.126224 0.363548 -0.089097
v -0.407581 0.499889 -0.302746
v -0.328262 0.499889 -0.391194
v -0.213790 0.499889 -0.443590
v -0.061554 0.363548 -0.141710
v -0.097505 0.363549 -0.119848
v -0.097505 0.363549 -0.119848
v -0.328262 0.499889 -0.391194
v -0.213790 0.499889 -0.443590
v -0.074238 0.499889 -0.466121
v -0.021038 0.363548 -0.153062
v -0.061554 0.363548 -0.141710
v -0.061554 0.363548 -0.141710
v -0.213790 0.499889 -0.443590
v -0.074238 0.499889 -0.466121
v 0.074237 0.499889 -0.466121
v 0.021038 0.363548 -0.153062
v -0.021038 0.363548 -0.153062
v -0.021038 0.363548 -0.153062
v -0.074238 0.499889 -0.466121
v 0.074237 0.499889 -0.466121
v 0.213790 0.499889 -0.443590
v 0.061554 0.363548 -0.141710
v 0.021038 0.363548 -0.153062
v 0.021038 0.363548 -0.153062
v 0.074237 0.499889 -0.466121
v 0.213790 0.499889 -0.443590
v 0.328261 0.499889 -0.391194
v 0.097504 0.363548 -0.119848
v 0.061554 0.363548 -0.141710
v 0.061554 0.363548 -0.141710
v 0.213790 0.499889 -0.443590
v 0.328261 0.499889 -0.391194
v 0.407581 0.499889 -0.302746
v 0.126223 0.363548 -0.089097
v 0.097504 0.363548 -0.119848
v 0.097504 0.363548 -0.119848
v 0.328261 0.499889 -0.391194
v 0.407581 0.499889 -0.302746
v 0.451583 0.499889 -0.180973
v 0.145581 0.363548 -0.051739
v 0.126223 0.363548 -0.089097
v 0.126223 0.363548 -0.089097
v 0.407581 0.499889 -0.302746
v 0.451583 0.499889 -0.180973
v 0.467705 0.499889 -0.037892
v 0.154142 0.363548 -0.010543
v 0.145581 0.363548 -0.051739
v 0.145581 0.363548 -0.051739
v 0.451583 0.499889 -0.180973
v 0.467705 0.499889 -0.037892
v 0.462120 0.499889 0.109648
v 0.151271 0.363548 0.031435
v 0.154142 0.363548 -0.010543
v 0.154142 0.363548 -0.010543
v 0.467705 0.499889 -0.037892
v 0.462120 0.499889 0.109648
v 0.432681 0.499889 0.244022
v 0.137180 0.363548 0.071082
v 0.151271 0.363548 0.031435
v 0.151271 0.363548 0.031435
v 0.462120 0.499889 0.109648
v 0.432681 0.499889 0.244022
v 0.371477 0.499889 0.350243
v 0.112916 0.363548 0.105457
v 0.137180 0.363548 0.071082
v 0.137180 0.363548 0.071082
v 0.432681 0.499889 0.244022
v 0.371477 0.499889 0.350243
v 0.274071 0.499889 0.420550
v 0.080277 0.363548 0.132010
v 0.112916 0.363548 0.105457
v 0.112916 0.363548 0.105457
v 0.371477 0.499889 0.350243
v 0.274071 0.499889 0.420550
v 0.145704 0.499889 0.457140
v 0.041684 0.363548 0.148774
v 0.080277 0.363548 0.132010
v 0.080277 0.363548 0.132010
v 0.274071 0.499889 0.420550
v 0.145704 0.499889 0.457140
v 0.000000 0.499889 0.467908
v 0.000000 0.363548 0.154503
v 0.041684 0.363548 0.148774
v 0.041684 0.363548 0.148774
v 0.145704 0.499889 0.457140
v 0.000000 0.499889 0.467908
v -0.190092 0.676387 0.565645
v -0.145704 0.499889 0.457140
v 0.000000 0.499889 0.467908
v 0.000000 0.499889 0.467908
v 0.000000 0.676387 0.574029
v -0.190092 0.676387 0.565645
v -0.355478 0.676387 0.530550
v -0.274070 0.499889 0.420551
v -0.145704 0.499889 0.457140
v -0.145704 0.499889 0.457140
v -0.190092 0.676387 0.565645
v -0.355478 0.676387 0.530550
v -0.475446 0.676387 0.450109
v -0.371476 0.499889 0.350243
v -0.274070 0.499889 0.420551
v -0.274070 0.499889 0.420551
v -0.355478 0.676387 0.530550
v -0.475446 0.676387 0.450109
v -0.542942 0.676387 0.317128
v -0.432681 0.499889 0.244022
v -0.371476 0.499889 0.350243
v -0.371476 0.499889 0.350243
v -0.475446 0.676387 0.450109
v -0.542942 0.676387 0.317128
v -0.569653 0.676387 0.143121
v -0.462120 0.499889 0.109649
v -0.432681 0.499889 0.244022
v -0.432681 0.499889 0.244022
v -0.542942 0.676387 0.317128
v -0.569653 0.676387 0.143121
v -0.574105 0.676387 -0.049508
v -0.467705 0.499889 -0.037892
v -0.462120 0.499889 0.109649
v -0.462120 0.499889 0.109649
v -0.569653 0.676387 0.143121
v -0.574105 0.676387 -0.049508
v -0.561329 0.676387 -0.235928
v -0.451583 0.499889 -0.180973
v -0.467705 0.499889 -0.037892
v -0.467705 0.499889 -0.037892
v -0.574105 0.676387 -0.049508
v -0.561329 0.676387 -0.235928
v -0.517081 0.676387 -0.391775
v -0.407581 0.499889 -0.302746
v -0.451583 0.499889 -0.180973
v -0.451583 0.499889 -0.180973
v -0.561329 0.676387 -0.235928
v -0.517081 0.676387 -0.391775
v -0.423632 0.676387 -0.498585
v -0.328262 0.499889 -0.391194
v -0.407581 0.499889 -0.302746
v -0.407581 0.499889 -0.302746
v -0.517081 0.676387 -0.391775
v -0.423632 0.676387 -0.498585
v -0.278468 0.676387 -0.553956
v -0.213790 0.499889 -0.443590
v -0.328262 0.499889 -0.391194
v -0.328262 0.499889 -0.391194
v -0.423632 0.676387 -0.498585
v -0.278468 0.676387 -0.553956
v -0.097002 0.676387 -0.573117
v -0.074238 0.499889 -0.466121
v -0.213790 0.499889 -0.443590
v -0.213790 0.499889 -0.443590
v -0.278468 0.676387 -0.553956
v -0.097002 0.676387 -0.573117
v 0.097001 0.676387 -0.573117
v 0.074237 0.499889 -0.466121
v -0.074238 0.499889 -0.466121
v -0.074238 0.499889 -0.466121
v -0.097002 0.676387 -0.573117
v 0.097001 0.676387 -0.573117
v 0.278467 0.676387 -0.553957
v 0.213790 0.499889 -0.443590
v 0.074237 0.499889 -0.466121
v 0.074237 0.499889 -0.466121
v 0.097001 0.676387 -0.573117
v 0.278467 0.676387 -0.553957
v 0.423631 0.676387 -0.498586
v 0.328261 0.499889 -0.391194
v 0.213790 0.499889 -0.443590
v 0.213790 0.499889 -0.443590
v 0.278467 0.676387 -0.553957
v 0.423631 0.676387 -0.498586
v 0.517081 0.676387 -0.391776
v 0.407581 0.499889 -0.302746
v 0.328261 0.499889 -0.391194
v 0.328261 0.499889 -0.391194
v 0.423631 0.676387 -0.498586
v 0.517081 0.676387 -0.391776
v 0.561329 0.676387 -0.235928
v 0.451583 0.499889 -0.180973
v 0.407581 0.499889 -0.302746
v 0.407581 0.499889 -0.302746
v 0.517081 0.676387 -0.391776
v 0.561329 0.676387 -0.235928
v 0.574105 0.676387 -0.049509
v 0.467705 0.499889 -0.037892
v 0.451583 0.499889 -0.180973
v 0.451583 0.499889 -0.180973
v 0.561329 0.676387 -0.235928
v 0.574105 0.676387 -0.049509
v 0.569653 0.676387 0.143120
v 0.462120 0.499889 0.109648
v 0.467705 0.499889 -0.037892
v 0.467705 0.499889 -0.037892
v 0.574105 0.676387 -0.049509
v 0.569653 0.676387 0.143120
v 0.542942 0.676387 0.317127
v 0.432681 0.499889 0.244022
v 0.462120 0.499889 0.109648
v 0.462120 0.499889 0.109648
v 0.569653 0.676387 0.143120
v 0.542942 0.676387 0.317127
v 0.475446 0.676387 0.450109
v 0.371477 0.499889 0.350243
v 0.432681 0.499889 0.244022
v 0.432681 0.499889 0.244022
v 0.542942 0.676387 0.317127
v 0.475446 0.676387 0.450109
v 0.355479 0.676387 0.530550
v 0.274071 0.499889 0.420550
v 0.371477 0.499889 0.350243
v 0.371477 0.499889 0.350243
v 0.475446 0.676387 0.450109
v 0.355479 0.676387 0.530550
v 0.190092 0.676387 0.565645
v 0.145704 0.499889 0.457140
v 0.274071 0.499889 0.420550
v 0.274071 0.499889 0.420550
v 0.355479 0.676387 0.530550
v 0.190092 0.676387 0.565645
v 0.000000 0.676387 0.574029
v 0.000000 0.499889 0.467908
v 0.145704 0.499889 0.457140
v 0.145704 0.499889 0.457140
v 0.190092 0.676387 0.565645
v 0.000000 0.676387 0.574029
v -0.078548 0.598634 0.280343
v -0.190092 0.676387 0.565645
v 0.000000 0.676387 0.574029
v 0.000000 0.676387 0.574029
v 0.000000 0.598634 0.291139
v -0.078548 0.598634 0.280343
v -0.151271 0.598634 0.248755
v -0.355478 0.676387 0.530550
v -0.190092 0.676387 0.565645
v -0.190092 0.676387 0.565645
v -0.078548 0.598634 0.280343
v -0.151271 0.598634 0.248755
v -0.212774 0.598634 0.198718
v -0.475446 0.676387 0.450109
v -0.355478 0.676387 0.530550
v -0.355478 0.676387 0.530550
v -0.151271 0.598634 0.248755
v -0.212774 0.598634 0.198718
v -0.258497 0.598634 0.133943
v -0.542942 0.676387 0.317128
v -0.475446 0.676387 0.450109
v -0.475446 0.676387 0.450109
v -0.212774 0.598634 0.198718
v -0.258497 0.598634 0.133943
v -0.285048 0.598634 0.059235
v -0.569653 0.676387 0.143121
v -0.542942 0.676387 0.317128
v -0.542942 0.676387 0.317128
v -0.258497 0.598634 0.133943
v -0.285048 0.598634 0.059235
v -0.290459 0.598634 -0.019867
v -0.574105 0.676387 -0.049508
v -0.569653 0.676387 0.143121
v -0.569653 0.676387 0.143121
v -0.285048 0.598634 0.059235
v -0.290459 0.598634 -0.019867
v -0.274328 0.598634 -0.097495
v -0.561329 0.676387 -0.235928
v -0.574105 0.676387 -0.049508
v -0.574105 0.676387 -0.049508
v -0.290459 0.598634 -0.019867
v -0.274328 0.598634 -0.097495
v -0.237851 0.598634 -0.167892
v -0.517081 0.676387 -0.391775
v -0.561329 0.676387 -0.235928
v -0.561329 0.676387 -0.235928
v -0.274328 0.598634 -0.097495
v -0.237851 0.598634 -0.167892
v -0.183734 0.598634 -0.225838
v -0.423632 0.676387 -0.498585
v -0.517081 0.676387 -0.391775
v -0.517081 0.676387 -0.391775
v -0.237851 0.598634 -0.167892
v -0.183734 0.598634 -0.225838
v -0.115990 0.598634 -0.267034
v -0.278468 0.676387 -0.553956
v -0.423632 0.676387 -0.498585
v -0.423632 0.676387 -0.498585
v -0.183734 0.598634 -0.225838
v -0.115990 0.598634 -0.267034
v -0.039644 0.598634 -0.288425
v -0.097002 0.676387 -0.573117
v -0.278468 0.676387 -0.553956
v -0.278468 0.676387 -0.553956
v -0.115990 0.598634 -0.267034
v -0.039644 0.598634 -0.288425
v 0.039643 0.598634 -0.288425
v 0.097001 0.676387 -0.573117
v -0.097002 0.676387 -0.573117
v -0.097002 0.676387 -0.573117
v -0.039644 0.598634 -0.288425
v 0.039643 0.598634 -0.288425
v 0.115989 0.598634 -0.267034
v 0.278467 0.676387 -0.553957
v 0.097001 0.676387 -0.573117
v 0.097001 0.676387 -0.573117
v 0.039643 0.598634 -0.288425
v 0.115989 0.598634 -0.267034
v 0.183733 0.598634 -0.225838
v 0.423631 0.676387 -0.498586
v 0.278467 0.676387 -0.553957
v 0.278467 0.676387 -0.553957
v 0.115989 0.598634 -0.267034
v 0.183733 0.598634 -0.225838
v 0.237851 0.598634 -0.167893
v 0.517081 0.676387 -0.391776
v 0.423631 0.676387 -0.498586
v 0.423631 0.676387 -0.498586
v 0.183733 0.598634 -0.225838
v 0.237851 0.598634 -0.167893
v 0.274328 0.598634 -0.097495
v 0.561329 0.676387 -0.235928
v 0.517081 0.676387 -0.391776
v 0.517081 0.676387 -0.391776
v 0.237851 0.598634 -0.167893
v 0.274328 0.598634 -0.097495
v 0.290459 0.598634 -0.019867
v 0.574105 0.676387 -0.049509
v 0.561329 0.676387 -0.235928
v 0.561329 0.676387 -0.235928
v 0.274328 0.598634 -0.097495
v 0.290459 0.598634 -0.019867
v 0.285049 0.598634 0.059235
v 0.569653 0.676387 0.143120
v 0.574105 0.676387 -0.049509
v 0.574105 0.676387 -0.049509
v 0.290459 0.598634 -0.019867
v 0.285049 0.598634 0.059235
v 0.258497 0.598634 0.133943
v 0.542942 0.676387 0.317127
v 0.569653 0.676387 0.143120
v 0.569653 0.676387 0.143120
v 0.285049 0.598634 0.059235
v 0.258497 0.598634 0.133943
v 0.212774 0.598634 0.198718
v 0.475446 0.676387 0.450109
v 0.542942 0.676387 0.317127
v 0.542942 0.676387 0.317127
v 0.258497 0.598634 0.133943
v 0.212774 0.598634 0.198718
v 0.151271 0.598634 0.248755
v 0.355479 0.676387 0.530550
v 0.475446 0.676387 0.450109
v 0.475446 0.676387 0.450109
v 0.212774 0.598634 0.198718
v 0.151271 0.598634 0.248755
v 0.078548 0.598634 0.280343
v 0.190092 0.676387 0.565645
v 0.355479 0.676387 0.530550
v 0.355479 0.676387 0.530550
v 0.151271 0.598634 0.248755
v 0.078548 0.598634 0.280343
v 0.000000 0.598634 0.291139
v 0.000000 0.676387 0.574029
v 0.190092 0.676387 0.565645
v 0.190092 0.676387 0.565645
v 0.078548 0.598634 0.280343
v 0.000000 0.598634 0.291139
v -0.050938 0.766625 0.181802
v -0.078548 0.598634 0.280343
v 0.000000 0.598634 0.291139
v 0.000000 0.598634 0.291139
v 0.000000 0.766625 0.188804
v -0.050938 0.766625 0.181802
v -0.098099 0.766625 0.161318
v -0.151271 0.598634 0.248755
v -0.078548 0.598634 0.280343
v -0.078548 0.598634 0.280343
v -0.050938 0.766625 0.181802
v -0.098099 0.766625 0.161318
v -0.137984 0.766625 0.128869
v -0.212774 0.598634 0.198718
v -0.151271 0.598634 0.248755
v -0.151271 0.598634 0.248755
v -0.098099 0.766625 0.161318
v -0.137984 0.766625 0.128869
v -0.167635 0.766625 0.086863
v -0.258497 0.598634 0.133943
v -0.212774 0.598634 0.198718
v -0.212774 0.598634 0.198718
v -0.137984 0.766625 0.128869
v -0.167635 0.766625 0.086863
v -0.184854 0.766625 0.038414
v -0.285048 0.598634 0.059235
v -0.258497 0.598634 0.133943
v -0.258497 0.598634 0.133943
v -0.167635 0.766625 0.086863
v -0.184854 0.766625 0.038414
v -0.188363 0.766625 -0.012883
v -0.290459 0.598634 -0.019867
v -0.285048 0.598634 0.059235
v -0.285048 0.598634 0.059235
v -0.184854 0.766625 0.038414
v -0.188363 0.766625 -0.012883
v -0.177902 0.766625 -0.063225
v -0.274328 0.598634 -0.097495
v -0.290459 0.598634 -0.019867
v -0.290459 0.598634 -0.019867
v -0.188363 0.766625 -0.012883
v -0.177902 0.766625 -0.063225
v -0.154246 0.766625 -0.108878
v -0.237851 0.598634 -0.167892
v -0.274328 0.598634 -0.097495
v -0.274328 0.598634 -0.097495
v -0.177902 0.766625 -0.063225
v -0.154246 0.766625 -0.108878
v -0.119151 0.766625 -0.146455
v -0.183734 0.598634 -0.225838
v -0.237851 0.598634 -0.167892
v -0.237851 0.598634 -0.167892
v -0.154246 0.766625 -0.108878
v -0.119151 0.766625 -0.146455
v -0.075219 0.766625 -0.173171
v -0.115990 0.598634 -0.267034
v -0.183734 0.598634 -0.225838
v -0.183734 0.598634 -0.225838
v -0.119151 0.766625 -0.146455
v -0.075219 0.766625 -0.173171
v -0.025709 0.766625 -0.187043
v -0.039644 0.598634 -0.288425
v -0.115990 0.598634 -0.267034
v -0.115990 0.598634 -0.267034
v -0.075219 0.766625 -0.173171
v -0.025709 0.766625 -0.187043
v 0.025708 0.766625 -0.187043
v 0.039643 0.598634 -0.288425
v -0.039644 0.598634 -0.288425
v -0.039644 0.598634 -0.288425
v -0.025709 0.766625 -0.187043
v 0.025708 0.766625 -0.187043
v 0.075219 0.766625 -0.173171
v 0.115989 0.598634 -0.267034
v 0.039643 0.598634 -0.288425
v 0.039643 0.598634 -0.288425
v 0.025708 0.766625 -0.187043
v 0.075219 0.766625 -0.173171
v 0.119151 0.766625 -0.146455
v 0.183733 0.598634 -0.225838
v 0.115989 0.598634 -0.267034
v 0.115989 0.598634 -0.267034
v 0.075219 0.766625 -0.173171
v 0.119151 0.766625 -0.146455
v 0.154246 0.766625 -0.108878
v 0.237851 0.598634 -0.167893
v 0.183733 0.598634 -0.225838
v 0.183733 0.598634 -0.225838
v 0.119151 0.766625 -0.146455
v 0.154246 0.766625 -0.108878
v 0.177901 0.766625 -0.063225
v 0.274328 0.598634 -0.097495
v 0.237851 0.598634 -0.167893
v 0.237851 0.598634 -0.167893
v 0.154246 0.766625 -0.108878
v 0.177901 0.766625 -0.063225
v 0.188362 0.766625 -0.012883
v 0.290459 0.598634 -0.019867
v 0.274328 0.598634 -0.097495
v 0.274328 0.598634 -0.097495
v 0.177901 0.766625 -0.063225
v 0.188362 0.766625 -0.012883
v 0.184854 0.766625 0.038414
v 0.285049 0.598634 0.059235
v 0.290459 0.598634 -0.019867
v 0.290459 0.598634 -0.019867
v 0.188362 0.766625 -0.012883
v 0.184854 0.766625 0.038414
v 0.167635 0.766625 0.086862
v 0.258497 0.598634 0.133943
v 0.285049 0.598634 0.059235
v 0.285049 0.598634 0.059235
v 0.184854 0.766625 0.038414
v 0.167635 0.766625 0.086862
v 0.137984 0.766625 0.128869
v 0.212774 0.598634 0.198718
v 0.258497 0.598634 0.133943
v 0.258497 0.598634 0.133943
v 0.167635 0.766625 0.086862
v 0.137984 0.766625 0.128869
v 0.098099 0.766625 0.161318
v 0.151271 0.598634 0.248755
v 0.212774 0.598634 0.198718
v 0.212774 0.598634 0.198718
v 0.137984 0.766625 0.128869
v 0.098099 0.766625 0.161318
v 0.050938 0.766625 0.181802
v 0.078548 0.598634 0.280343
v 0.151271 0.598634 0.248755
v 0.151271 0.598634 0.248755
v 0.098099 0.766625 0.161318
v 0.050938 0.766625 0.181802
v 0.000000 0.766625 0.188804
v 0.000000 0.598634 0.291139
v 0.078548 0.598634 0.280343
v 0.078548 0.598634 0.280343
v 0.050938 0.766625 0.181802
v 0.000000 0.766625 0.188804
v 0.000000 1.621930 0.329262
v -0.084376 1.638850 0.314630
v -0.067657 1.158050 0.258480
v -0.067657 1.158050 0.258480
v 0.000000 1.147350 0.268433
v 0.000000 1.621930 0.329262
v -0.084376 1.638850 0.314630
v -0.162495 1.678310 0.272442
v -0.130297 1.183900 0.229374
v -0.130297 1.183900 0.229374
v -0.067657 1.158050 0.258480
v -0.084376 1.638850 0.314630
v -0.162495 1.678310 0.272442
v -0.228562 1.716350 0.207370
v -0.183273 1.211250 0.183254
v -0.183273 1.211250 0.183254
v -0.130297 1.183900 0.229374
v -0.162495 1.678310 0.272442
v -0.228562 1.716350 0.207370
v -0.277677 1.734810 0.125583
v -0.222656 1.229120 0.123370
v -0.222656 1.229120 0.123370
v -0.183273 1.211250 0.183254
v -0.228562 1.716350 0.207370
v -0.277677 1.734810 0.125583
v -0.306199 1.731400 0.033445
v -0.245526 1.235070 0.054003
v -0.245526 1.235070 0.054003
v -0.222656 1.229120 0.123370
v -0.277677 1.734810 0.125583
v -0.306199 1.731400 0.033445
v -0.312011 1.716400 -0.061839
v -0.250187 1.233610 -0.019160
v -0.250187 1.233610 -0.019160
v -0.245526 1.235070 0.054003
v -0.306199 1.731400 0.033445
v -0.312011 1.716400 -0.061839
v -0.294683 1.702110 -0.150958
v -0.236292 1.230570 -0.089003
v -0.236292 1.230570 -0.089003
v -0.250187 1.233610 -0.019160
v -0.312011 1.716400 -0.061839
v -0.294683 1.702110 -0.150958
v -0.255499 1.694380 -0.223920
v -0.204873 1.228990 -0.148334
v -0.204873 1.228990 -0.148334
v -0.236292 1.230570 -0.089003
v -0.294683 1.702110 -0.150958
v -0.255499 1.694380 -0.223920
v -0.197367 1.691970 -0.274284
v -0.158259 1.228790 -0.192236
v -0.158259 1.228790 -0.192236
v -0.204873 1.228990 -0.148334
v -0.255499 1.694380 -0.223920
v -0.158259 1.228790 -0.192236
v -0.197367 1.691970 -0.274284
v -0.124596 1.691430 -0.302360
v -0.124596 1.691430 -0.302360
v -0.099908 1.228860 -0.219575
v -0.158259 1.228790 -0.192236
v -0.099908 1.228860 -0.219575
v -0.124596 1.691430 -0.302360
v -0.042585 1.691110 -0.313742
v -0.042585 1.691110 -0.313742
v -0.034147 1.228780 -0.232191
v -0.099908 1.228860 -0.219575
v -0.042585 1.691110 -0.313742
v 0.042585 1.691110 -0.313742
v 0.034146 1.228780 -0.232191
v 0.034146 1.228780 -0.232191
v -0.034147 1.228780 -0.232191
v -0.042585 1.691110 -0.313742
v 0.042585 1.691110 -0.313742
v 0.124596 1.691430 -0.302360
v 0.099907 1.228860 -0.219575
v 0.099907 1.228860 -0.219575
v 0.034146 1.228780 -0.232191
v 0.042585 1.691110 -0.313742
v 0.124596 1.691430 -0.302360
v 0.197366 1.691970 -0.274284
v 0.158258 1.228790 -0.192236
v 0.158258 1.228790 -0.192236
v 0.099907 1.228860 -0.219575
v 0.124596 1.691430 -0.302360
v 0.197366 1.691970 -0.274284
v 0.255499 1.694380 -0.223920
v 0.204872 1.228990 -0.148335
v 0.204872 1.228990 -0.148335
v 0.158258 1.228790 -0.192236
v 0.197366 1.691970 -0.274284
v 0.255499 1.694380 -0.223920
v 0.294682 1.702110 -0.150958
v 0.236292 1.230570 -0.089003
v 0.236292 1.230570 -0.089003
v 0.204872 1.228990 -0.148335
v 0.255499 1.694380 -0.223920
v 0.294682 1.702110 -0.150958
v 0.312011 1.716400 -0.061839
v 0.250187 1.233610 -0.019160
v 0.250187 1.233610 -0.019160
v 0.236292 1.230570 -0.089003
v 0.294682 1.702110 -0.150958
v 0.312011 1.716400 -0.061839
v 0.306199 1.731400 0.033445
v 0.245526 1.235070 0.054003
v 0.245526 1.235070 0.054003
v 0.250187 1.233610 -0.019160
v 0.312011 1.716400 -0.061839
v 0.245526 1.235070 0.054003
v 0.306199 1.731400 0.033445
v 0.277677 1.734810 0.125583
v 0.277677 1.734810 0.125583
v 0.222656 1.229120 0.123369
v 0.245526 1.235070 0.054003
v 0.222656 1.229120 0.123369
v 0.277677 1.734810 0.125583
v 0.228562 1.716350 0.207370
v 0.228562 1.716350 0.207370
v 0.183273 1.211250 0.183254
v 0.222656 1.229120 0.123369
v 0.183273 1.211250 0.183254
v 0.228562 1.716350 0.207370
v 0.162495 1.678310 0.272442
v 0.162495 1.678310 0.272442
v 0.130297 1.183900 0.229374
v 0.183273 1.211250 0.183254
v 0.130297 1.183900 0.229374
v 0.162495 1.678310 0.272442
v 0.084377 1.638850 0.314630
v 0.084377 1.638850 0.314630
v 0.067658 1.158050 0.258480
v 0.130297 1.183900 0.229374
v 0.067658 1.158050 0.258480
v 0.084377 1.638850 0.314630
v 0.000000 1.621930 0.329262
v 0.000000 1.621930 0.329262
v 0.000000 1.147350 0.268433
v 0.067658 1.158050 0.258480
v -0.102149 2.664060 0.174159
v -0.117814 2.511360 0.308947
v 0.000000 2.489410 0.338121
v 0.000000 2.489410 0.338121
v 0.000000 2.649590 0.198988
v -0.102149 2.664060 0.174159
v -0.196721 2.700360 0.104327
v -0.226891 2.562910 0.227217
v -0.117814 2.511360 0.308947
v -0.117814 2.511360 0.308947
v -0.102149 2.664060 0.174159
v -0.196721 2.700360 0.104327
v -0.276704 2.742620 0.001718
v -0.319139 2.615030 0.108395
v -0.226891 2.562910 0.227217
v -0.226891 2.562910 0.227217
v -0.196721 2.700360 0.104327
v -0.276704 2.742620 0.001718
v -0.336165 2.775870 -0.118789
v -0.387719 2.645290 -0.029267
v -0.319139 2.615030 0.108395
v -0.319139 2.615030 0.108395
v -0.276704 2.742620 0.001718
v -0.336165 2.775870 -0.118789
v -0.370694 2.792500 -0.244717
v -0.427544 2.647240 -0.172512
v -0.387719 2.645290 -0.029267
v -0.387719 2.645290 -0.029267
v -0.336165 2.775870 -0.118789
v -0.370694 2.792500 -0.244717
v -0.377730 2.794850 -0.366765
v -0.435659 2.631370 -0.312806
v -0.427544 2.647240 -0.172512
v -0.427544 2.647240 -0.172512
v -0.370694 2.792500 -0.244717
v -0.377730 2.794850 -0.366765
v -0.356752 2.791840 -0.476033
v -0.411464 2.615450 -0.439798
v -0.435659 2.631370 -0.312806
v -0.435659 2.631370 -0.312806
v -0.377730 2.794850 -0.366765
v -0.356752 2.791840 -0.476033
v -0.309315 2.790890 -0.563304
v -0.356752 2.609170 -0.539874
v -0.411464 2.615450 -0.439798
v -0.411464 2.615450 -0.439798
v -0.356752 2.791840 -0.476033
v -0.309315 2.790890 -0.563304
v -0.238938 2.793390 -0.622654
v -0.275582 2.609930 -0.603584
v -0.356752 2.609170 -0.539874
v -0.356752 2.609170 -0.539874
v -0.309315 2.790890 -0.563304
v -0.238938 2.793390 -0.622654
v -0.150840 2.796900 -0.655285
v -0.173973 2.611570 -0.633472
v -0.275582 2.609930 -0.603584
v -0.275582 2.609930 -0.603584
v -0.238938 2.793390 -0.622654
v -0.150840 2.796900 -0.655285
v -0.051555 2.799110 -0.668304
v -0.059461 2.611920 -0.642451
v -0.173973 2.611570 -0.633472
v -0.173973 2.611570 -0.633472
v -0.150840 2.796900 -0.655285
v -0.051555 2.799110 -0.668304
v 0.051554 2.799110 -0.668304
v 0.059461 2.611920 -0.642451
v -0.059461 2.611920 -0.642451
v -0.059461 2.611920 -0.642451
v -0.051555 2.799110 -0.668304
v 0.051554 2.799110 -0.668304
v 0.150840 2.796900 -0.655285
v 0.173972 2.611570 -0.633472
v 0.059461 2.611920 -0.642451
v 0.059461 2.611920 -0.642451
v 0.051554 2.799110 -0.668304
v 0.150840 2.796900 -0.655285
v 0.238938 2.793390 -0.622654
v 0.275582 2.609930 -0.603584
v 0.173972 2.611570 -0.633472
v 0.173972 2.611570 -0.633472
v 0.150840 2.796900 -0.655285
v 0.238938 2.793390 -0.622654
v 0.309315 2.790890 -0.563304
v 0.356752 2.609170 -0.539874
v 0.275582 2.609930 -0.603584
v 0.275582 2.609930 -0.603584
v 0.238938 2.793390 -0.622654
v 0.309315 2.790890 -0.563304
v 0.356752 2.791840 -0.476033
v 0.411464 2.615450 -0.439799
v 0.356752 2.609170 -0.539874
v 0.356752 2.609170 -0.539874
v 0.309315 2.790890 -0.563304
v 0.356752 2.791840 -0.476033
v 0.377730 2.794850 -0.366765
v 0.435659 2.631370 -0.312807
v 0.411464 2.615450 -0.439799
v 0.411464 2.615450 -0.439799
v 0.356752 2.791840 -0.476033
v 0.377730 2.794850 -0.366765
v 0.370694 2.792500 -0.244717
v 0.427544 2.647240 -0.172512
v 0.435659 2.631370 -0.312807
v 0.435659 2.631370 -0.312807
v 0.377730 2.794850 -0.366765
v 0.370694 2.792500 -0.244717
v 0.336165 2.775870 -0.118789
v 0.387719 2.645290 -0.029268
v 0.427544 2.647240 -0.172512
v 0.427544 2.647240 -0.172512
v 0.370694 2.792500 -0.244717
v 0.336165 2.775870 -0.118789
v 0.276704 2.742620 0.001717
v 0.319140 2.615030 0.108395
v 0.387719 2.645290 -0.029268
v 0.387719 2.645290 -0.029268
v 0.336165 2.775870 -0.118789
v 0.276704 2.742620 0.001717
v 0.196722 2.700360 0.104327
v 0.226891 2.562910 0.227217
v 0.319140 2.615030 0.108395
v 0.319140 2.615030 0.108395
v 0.276704 2.742620 0.001717
v 0.196722 2.700360 0.104327
v 0.102149 2.664060 0.174159
v 0.117815 2.511360 0.308946
v 0.226891 2.562910 0.227217
v 0.226891 2.562910 0.227217
v 0.196722 2.700360 0.104327
v 0.102149 2.664060 0.174159
v 0.000000 2.649590 0.198988
v 0.000000 2.489410 0.338121
v 0.117815 2.511360 0.308946
v 0.117815 2.511360 0.308946
v 0.102149 2.664060 0.174159
v 0.000000 2.649590 0.198988
v -0.078907 2.774200 0.016552
v -0.102149 2.664060 0.174159
v 0.000000 2.649590 0.198988
v 0.000000 2.649590 0.198988
v 0.000000 2.765300 0.034485
v -0.078907 2.774200 0.016552
v -0.151962 2.797980 -0.034457
v -0.196721 2.700360 0.104327
v -0.102149 2.664060 0.174159
v -0.102149 2.664060 0.174159
v -0.078907 2.774200 0.016552
v -0.151962 2.797980 -0.034457
v -0.213747 2.829350 -0.111050
v -0.276704 2.742620 0.001718
v -0.196721 2.700360 0.104327
v -0.196721 2.700360 0.104327
v -0.151962 2.797980 -0.034457
v -0.213747 2.829350 -0.111050
v -0.259679 2.859970 -0.203303
v -0.336165 2.775870 -0.118789
v -0.276704 2.742620 0.001718
v -0.276704 2.742620 0.001718
v -0.213747 2.829350 -0.111050
v -0.259679 2.859970 -0.203303
v -0.286351 2.883670 -0.301324
v -0.370694 2.792500 -0.244717
v -0.336165 2.775870 -0.118789
v -0.336165 2.775870 -0.118789
v -0.259679 2.859970 -0.203303
v -0.286351 2.883670 -0.301324
v -0.291787 2.898610 -0.396561
v -0.377730 2.794850 -0.366765
v -0.370694 2.792500 -0.244717
v -0.370694 2.792500 -0.244717
v -0.286351 2.883670 -0.301324
v -0.291787 2.898610 -0.396561
v -0.275582 2.907110 -0.481874
v -0.356752 2.791840 -0.476033
v -0.377730 2.794850 -0.366765
v -0.377730 2.794850 -0.366765
v -0.291787 2.898610 -0.396561
v -0.275582 2.907110 -0.481874
v -0.238938 2.912990 -0.551642
v -0.309315 2.790890 -0.563304
v -0.356752 2.791840 -0.476033
v -0.356752 2.791840 -0.476033
v -0.275582 2.907110 -0.481874
v -0.238938 2.912990 -0.551642
v -0.184574 2.918600 -0.602617
v -0.238938 2.793390 -0.622654
v -0.309315 2.790890 -0.563304
v -0.309315 2.790890 -0.563304
v -0.238938 2.912990 -0.551642
v -0.184574 2.918600 -0.602617
v -0.116520 2.923810 -0.634592
v -0.150840 2.796900 -0.655285
v -0.238938 2.793390 -0.622654
v -0.238938 2.793390 -0.622654
v -0.184574 2.918600 -0.602617
v -0.116520 2.923810 -0.634592
v -0.039825 2.927070 -0.649583
v -0.051555 2.799110 -0.668304
v -0.150840 2.796900 -0.655285
v -0.150840 2.796900 -0.655285
v -0.116520 2.923810 -0.634592
v -0.039825 2.927070 -0.649583
v 0.039824 2.927070 -0.649583
v 0.051554 2.799110 -0.668304
v -0.051555 2.799110 -0.668304
v -0.051555 2.799110 -0.668304
v -0.039825 2.927070 -0.649583
v 0.039824 2.927070 -0.649583
v 0.116520 2.923810 -0.634592
v 0.150840 2.796900 -0.655285
v 0.051554 2.799110 -0.668304
v 0.051554 2.799110 -0.668304
v 0.039824 2.927070 -0.649583
v 0.116520 2.923810 -0.634592
v 0.184573 2.918600 -0.602617
v 0.238938 2.793390 -0.622654
v 0.150840 2.796900 -0.655285
v 0.150840 2.796900 -0.655285
v 0.116520 2.923810 -0.634592
v 0.184573 2.918600 -0.602617
v 0.238938 2.912990 -0.551643
v 0.309315 2.790890 -0.563304
v 0.238938 2.793390 -0.622654
v 0.238938 2.793390 -0.622654
v 0.184573 2.918600 -0.602617
v 0.238938 2.912990 -0.551643
v 0.275582 2.907110 -0.481874
v 0.356752 2.791840 -0.476033
v 0.309315 2.790890 -0.563304
v 0.309315 2.790890 -0.563304
v 0.238938 2.912990 -0.551643
v 0.275582 2.907110 -0.481874
v 0.291787 2.898610 -0.396561
v 0.377730 2.794850 -0.366765
v 0.356752 2.791840 -0.476033
v 0.356752 2.791840 -0.476033
v 0.275582 2.907110 -0.481874
v 0.291787 2.898610 -0.396561
v 0.286351 2.883670 -0.301324
v 0.370694 2.792500 -0.244717
v 0.377730 2.794850 -0.366765
v 0.377730 2.794850 -0.366765
v 0.291787 2.898610 -0.396561
v 0.286351 2.883670 -0.301324
v 0.259679 2.859970 -0.203303
v 0.336165 2.775870 -0.118789
v 0.370694 2.792500 -0.244717
v 0.370694 2.792500 -0.244717
v 0.286351 2.883670 -0.301324
v 0.259679 2.859970 -0.203303
v 0.213747 2.829350 -0.111050
v 0.276704 2.742620 0.001717
v 0.336165 2.775870 -0.118789
v 0.336165 2.775870 -0.118789
v 0.259679 2.859970 -0.203303
v 0.213747 2.829350 -0.111050
v 0.151962 2.797980 -0.034457
v 0.196722 2.700360 0.104327
v 0.276704 2.742620 0.001717
v 0.276704 2.742620 0.001717
v 0.213747 2.829350 -0.111050
v 0.151962 2.797980 -0.034457
v 0.078907 2.774200 0.016552
v 0.102149 2.664060 0.174159
v 0.196722 2.700360 0.104327
v 0.196722 2.700360 0.104327
v 0.151962 2.797980 -0.034457
v 0.078907 2.774200 0.016552
v 0.000000 2.765300 0.034485
v 0.000000 2.649590 0.198988
v 0.102149 2.664060 0.174159
v 0.102149 2.664060 0.174159
v 0.078907 2.774200 0.016552
v 0.000000 2.765300 0.034485
v -0.049814 2.853860 -0.146087
v -0.078907 2.774200 0.016552
v 0.000000 2.765300 0.034485
v 0.000000 2.765300 0.034485
v 0.000000 2.849360 -0.135852
v -0.049814 2.853860 -0.146087
v -0.095933 2.866350 -0.175532
v -0.151962 2.797980 -0.034457
v -0.078907 2.774200 0.016552
v -0.078907 2.774200 0.016552
v -0.049814 2.853860 -0.146087
v -0.095933 2.866350 -0.175532
v -0.134937 2.884220 -0.220693
v -0.213747 2.829350 -0.111050
v -0.151962 2.797980 -0.034457
v -0.151962 2.797980 -0.034457
v -0.095933 2.866350 -0.175532
v -0.134937 2.884220 -0.220693
v -0.163933 2.904080 -0.276566
v -0.259679 2.859970 -0.203303
v -0.213747 2.829350 -0.111050
v -0.213747 2.829350 -0.111050
v -0.134937 2.884220 -0.220693
v -0.163933 2.904080 -0.276566
v -0.180772 2.922870 -0.337546
v -0.286351 2.883670 -0.301324
v -0.259679 2.859970 -0.203303
v -0.259679 2.859970 -0.203303
v -0.163933 2.904080 -0.276566
v -0.180772 2.922870 -0.337546
v -0.184203 2.938730 -0.398248
v -0.291787 2.898610 -0.396561
v -0.286351 2.883670 -0.301324
v -0.286351 2.883670 -0.301324
v -0.180772 2.922870 -0.337546
v -0.184203 2.938730 -0.398248
v -0.173973 2.951220 -0.454047
v -0.275582 2.907110 -0.481874
v -0.291787 2.898610 -0.396561
v -0.291787 2.898610 -0.396561
v -0.184203 2.938730 -0.398248
v -0.173973 2.951220 -0.454047
v -0.150840 2.960840 -0.501403
v -0.238938 2.912990 -0.551642
v -0.275582 2.907110 -0.481874
v -0.275582 2.907110 -0.481874
v -0.173973 2.951220 -0.454047
v -0.150840 2.960840 -0.501403
v -0.116520 2.968210 -0.537990
v -0.184574 2.918600 -0.602617
v -0.238938 2.912990 -0.551642
v -0.238938 2.912990 -0.551642
v -0.150840 2.960840 -0.501403
v -0.116520 2.968210 -0.537990
v -0.073558 2.973460 -0.562626
v -0.116520 2.923810 -0.634592
v -0.184574 2.918600 -0.602617
v -0.184574 2.918600 -0.602617
v -0.116520 2.968210 -0.537990
v -0.073558 2.973460 -0.562626
v -0.025141 2.976270 -0.574949
v -0.039825 2.927070 -0.649583
v -0.116520 2.923810 -0.634592
v -0.116520 2.923810 -0.634592
v -0.073558 2.973460 -0.562626
v -0.025141 2.976270 -0.574949
v 0.025141 2.976270 -0.574949
v 0.039824 2.927070 -0.649583
v -0.039825 2.927070 -0.649583
v -0.039825 2.927070 -0.649583
v -0.025141 2.976270 -0.574949
v 0.025141 2.976270 -0.574949
v 0.073558 2.973460 -0.562627
v 0.116520 2.923810 -0.634592
v 0.039824 2.927070 -0.649583
v 0.039824 2.927070 -0.649583
v 0.025141 2.976270 -0.574949
v 0.073558 2.973460 -0.562627
v 0.116520 2.968210 -0.537990
v 0.184573 2.918600 -0.602617
v 0.116520 2.923810 -0.634592
v 0.116520 2.923810 -0.634592
v 0.073558 2.973460 -0.562627
v 0.116520 2.968210 -0.537990
v 0.150840 2.960840 -0.501403
v 0.238938 2.912990 -0.551643
v 0.184573 2.918600 -0.602617
v 0.184573 2.918600 -0.602617
v 0.116520 2.968210 -0.537990
v 0.150840 2.960840 -0.501403
v 0.173973 2.951220 -0.454047
v 0.275582 2.907110 -0.481874
v 0.238938 2.912990 -0.551643
v 0.238938 2.912990 -0.551643
v 0.150840 2.960840 -0.501403
v 0.173973 2.951220 -0.454047
v 0.184203 2.938730 -0.398248
v 0.291787 2.898610 -0.396561
v 0.275582 2.907110 -0.481874
v 0.275582 2.907110 -0.481874
v 0.173973 2.951220 -0.454047
v 0.184203 2.938730 -0.398248
v 0.180771 2.922870 -0.337546
v 0.286351 2.883670 -0.301324
v 0.291787 2.898610 -0.396561
v 0.291787 2.898610 -0.396561
v 0.184203 2.938730 -0.398248
v 0.180771 2.922870 -0.337546
v 0.163933 2.904080 -0.276566
v 0.259679 2.859970 -0.203303
v 0.286351 2.883670 -0.301324
v 0.286351 2.883670 -0.301324
v 0.180771 2.922870 -0.337546
v 0.163933 2.904080 -0.276566
v 0.134937 2.884220 -0.220694
v 0.213747 2.829350 -0.111050
v 0.259679 2.859970 -0.203303
v 0.259679 2.859970 -0.203303
v 0.163933 2.904080 -0.276566
v 0.134937 2.884220 -0.220694
v 0.095933 2.866350 -0.175532
v 0.151962 2.797980 -0.034457
v 0.213747 2.829350 -0.111050
v 0.213747 2.829350 -0.111050
v 0.134937 2.884220 -0.220694
v 0.095933 2.866350 -0.175532
v 0.049814 2.853860 -0.146087
v 0.078907 2.774200 0.016552
v 0.151962 2.797980 -0.034457
v 0.151962 2.797980 -0.034457
v 0.095933 2.866350 -0.175532
v 0.049814 2.853860 -0.146087
v 0.000000 2.849360 -0.135852
v 0.000000 2.765300 0.034485
v 0.078907 2.774200 0.016552
v 0.078907 2.774200 0.016552
v 0.049814 2.853860 -0.146087
v 0.000000 2.849360 -0.135852
v 0.000000 2.940300 -0.379574
v -0.049814 2.853860 -0.146087
v 0.000000 2.849360 -0.135852
v 0.000000 2.940300 -0.379574
v -0.095933 2.866350 -0.175532
v -0.049814 2.853860 -0.146087
v 0.000000 2.940300 -0.379574
v -0.134937 2.884220 -0.220693
v -0.095933 2.866350 -0.175532
v 0.000000 2.940300 -0.379574
v -0.163933 2.904080 -0.276566
v -0.134937 2.884220 -0.220693
v 0.000000 2.940300 -0.379574
v -0.180772 2.922870 -0.337546
v -0.163933 2.904080 -0.276566
v 0.000000 2.940300 -0.379574
v -0.184203 2.938730 -0.398248
v -0.180772 2.922870 -0.337546
v 0.000000 2.940300 -0.379574
v -0.173973 2.951220 -0.454047
v -0.184203 2.938730 -0.398248
v 0.000000 2.940300 -0.379574
v -0.150840 2.960840 -0.501403
v -0.173973 2.951220 -0.454047
v 0.000000 2.940300 -0.379574
v -0.116520 2.968210 -0.537990
v -0.150840 2.960840 -0.501403
v 0.000000 2.940300 -0.379574
v -0.073558 2.973460 -0.562626
v -0.116520 2.968210 -0.537990
v 0.000000 2.940300 -0.379574
v -0.025141 2.976270 -0.574949
v -0.073558 2.973460 -0.562626
v 0.000000 2.940300 -0.379574
v 0.025141 2.976270 -0.574949
v -0.025141 2.976270 -0.574949
v 0.000000 2.940300 -0.379574
v 0.073558 2.973460 -0.562627
v 0.025141 2.976270 -0.574949
v 0.000000 2.940300 -0.379574
v 0.116520 2.968210 -0.537990
v 0.073558 2.973460 -0.562627
v 0.000000 2.940300 -0.379574
v 0.150840 2.960840 -0.501403
v 0.116520 2.968210 -0.537990
v 0.000000 2.940300 -0.379574
v 0.173973 2.951220 -0.454047
v 0.150840 2.960840 -0.501403
v 0.000000 2.940300 -0.379574
v 0.184203 2.938730 -0.398248
v 0.173973 2.951220 -0.454047
v 0.000000 2.940300 -0.379574
v 0.180771 2.922870 -0.337546
v 0.184203 2.938730 -0.398248
v 0.000000 2.940300 -0.379574
v 0.163933 2.904080 -0.276566
v 0.180771 2.922870 -0.337546
v 0.000000 2.940300 -0.379574
v 0.134937 2.884220 -0.220694
v 0.163933 2.904080 -0.276566
v 0.000000 2.940300 -0.379574
v 0.095933 2.866350 -0.175532
v 0.134937 2.884220 -0.220694
v 0.000000 2.940300 -0.379574
v 0.049814 2.853860 -0.146087
v 0.095933 2.866350 -0.175532
v 0.000000 2.940300 -0.379574
v 0.000000 2.849360 -0.135852
v 0.049814 2.853860 -0.146087
v 0.000000 2.489410 0.338121
v -0.117814 2.511360 0.308947
v -0.101095 2.100470 0.331453
v -0.101095 2.100470 0.331453
v 0.000000 2.079820 0.352491
v 0.000000 2.489410 0.338121
v 0.000000 2.079820 0.352491
v -0.101095 2.100470 0.331453
v -0.084376 1.638850 0.314630
v -0.084376 1.638850 0.314630
v 0.000000 1.621930 0.329262
v 0.000000 2.079820 0.352491
v -0.050938 0.766625 0.181802
v 0.000000 0.766625 0.188804
v 0.000000 1.147350 0.268433
v 0.000000 1.147350 0.268433
v -0.067657 1.158050 0.258480
v -0.050938 0.766625 0.181802
v -0.117814 2.511360 0.308947
v -0.226891 2.562910 0.227217
v -0.194693 2.148040 0.271723
v -0.194693 2.148040 0.271723
v -0.101095 2.100470 0.331453
v -0.117814 2.511360 0.308947
v -0.101095 2.100470 0.331453
v -0.194693 2.148040 0.271723
v -0.162495 1.678310 0.272442
v -0.162495 1.678310 0.272442
v -0.084376 1.638850 0.314630
v -0.101095 2.100470 0.331453
v -0.098099 0.766625 0.161318
v -0.050938 0.766625 0.181802
v -0.067657 1.158050 0.258480
v -0.067657 1.158050 0.258480
v -0.130297 1.183900 0.229374
v -0.098099 0.766625 0.161318
v -0.226891 2.562910 0.227217
v -0.319139 2.615030 0.108395
v -0.273851 2.192670 0.182416
v -0.273851 2.192670 0.182416
v -0.194693 2.148040 0.271723
v -0.226891 2.562910 0.227217
v -0.194693 2.148040 0.271723
v -0.273851 2.192670 0.182416
v -0.228562 1.716350 0.207370
v -0.228562 1.716350 0.207370
v -0.162495 1.678310 0.272442
v -0.194693 2.148040 0.271723
v -0.137984 0.766625 0.128869
v -0.098099 0.766625 0.161318
v -0.130297 1.183900 0.229374
v -0.130297 1.183900 0.229374
v -0.183273 1.211250 0.183254
v -0.137984 0.766625 0.128869
v -0.319139 2.615030 0.108395
v -0.387719 2.645290 -0.029267
v -0.332698 2.212280 0.074704
v -0.332698 2.212280 0.074704
v -0.273851 2.192670 0.182416
v -0.319139 2.615030 0.108395
v -0.273851 2.192670 0.182416
v -0.332698 2.212280 0.074704
v -0.277677 1.734810 0.125583
v -0.277677 1.734810 0.125583
v -0.228562 1.716350 0.207370
v -0.273851 2.192670 0.182416
v -0.167635 0.766625 0.086863
v -0.137984 0.766625 0.128869
v -0.183273 1.211250 0.183254
v -0.183273 1.211250 0.183254
v -0.222656 1.229120 0.123370
v -0.167635 0.766625 0.086863
v -0.387719 2.645290 -0.029267
v -0.427544 2.647240 -0.172512
v -0.366871 2.204170 -0.042060
v -0.366871 2.204170 -0.042060
v -0.332698 2.212280 0.074704
v -0.387719 2.645290 -0.029267
v -0.332698 2.212280 0.074704
v -0.366871 2.204170 -0.042060
v -0.306199 1.731400 0.033445
v -0.306199 1.731400 0.033445
v -0.277677 1.734810 0.125583
v -0.332698 2.212280 0.074704
v -0.184854 0.766625 0.038414
v -0.167635 0.766625 0.086863
v -0.222656 1.229120 0.123370
v -0.222656 1.229120 0.123370
v -0.245526 1.235070 0.054003
v -0.184854 0.766625 0.038414
v -0.427544 2.647240 -0.172512
v -0.435659 2.631370 -0.312806
v -0.373835 2.181800 -0.159722
v -0.373835 2.181800 -0.159722
v -0.366871 2.204170 -0.042060
v -0.427544 2.647240 -0.172512
v -0.366871 2.204170 -0.042060
v -0.373835 2.181800 -0.159722
v -0.312011 1.716400 -0.061839
v -0.312011 1.716400 -0.061839
v -0.306199 1.731400 0.033445
v -0.366871 2.204170 -0.042060
v -0.188363 0.766625 -0.012883
v -0.184854 0.766625 0.038414
v -0.245526 1.235070 0.054003
v -0.245526 1.235070 0.054003
v -0.250187 1.233610 -0.019160
v -0.188363 0.766625 -0.012883
v -0.373835 2.181800 -0.159722
v -0.435659 2.631370 -0.312806
v -0.411464 2.615450 -0.439798
v -0.411464 2.615450 -0.439798
v -0.353073 2.161990 -0.267890
v -0.373835 2.181800 -0.159722
v -0.373835 2.181800 -0.159722
v -0.353073 2.161990 -0.267890
v -0.294683 1.702110 -0.150958
v -0.294683 1.702110 -0.150958
v -0.312011 1.716400 -0.061839
v -0.373835 2.181800 -0.159722
v -0.177902 0.766625 -0.063225
v -0.188363 0.766625 -0.012883
v -0.250187 1.233610 -0.019160
v -0.250187 1.233610 -0.019160
v -0.236292 1.230570 -0.089003
v -0.177902 0.766625 -0.063225
v -0.411464 2.615450 -0.439798
v -0.356752 2.609170 -0.539874
v -0.306126 2.152560 -0.354434
v -0.306126 2.152560 -0.354434
v -0.353073 2.161990 -0.267890
v -0.411464 2.615450 -0.439798
v -0.353073 2.161990 -0.267890
v -0.306126 2.152560 -0.354434
v -0.255499 1.694380 -0.223920
v -0.255499 1.694380 -0.223920
v -0.294683 1.702110 -0.150958
v -0.353073 2.161990 -0.267890
v -0.154246 0.766625 -0.108878
v -0.177902 0.766625 -0.063225
v -0.236292 1.230570 -0.089003
v -0.236292 1.230570 -0.089003
v -0.204873 1.228990 -0.148334
v -0.154246 0.766625 -0.108878
v -0.306126 2.152560 -0.354434
v -0.356752 2.609170 -0.539874
v -0.275582 2.609930 -0.603584
v -0.275582 2.609930 -0.603584
v -0.236474 2.150820 -0.411401
v -0.306126 2.152560 -0.354434
v -0.306126 2.152560 -0.354434
v -0.236474 2.150820 -0.411401
v -0.197367 1.691970 -0.274284
v -0.197367 1.691970 -0.274284
v -0.255499 1.694380 -0.223920
v -0.306126 2.152560 -0.354434
v -0.119151 0.766625 -0.146455
v -0.154246 0.766625 -0.108878
v -0.204873 1.228990 -0.148334
v -0.204873 1.228990 -0.148334
v -0.158259 1.228790 -0.192236
v -0.119151 0.766625 -0.146455
v -0.236474 2.150820 -0.411401
v -0.275582 2.609930 -0.603584
v -0.173973 2.611570 -0.633472
v -0.236474 2.150820 -0.411401
v -0.173973 2.611570 -0.633472
v -0.161629 2.381360 -0.536899
v -0.236474 2.150820 -0.411401
v -0.161629 2.381360 -0.536899
v -0.149284 2.151140 -0.440326
v -0.197367 1.691970 -0.274284
v -0.236474 2.150820 -0.411401
v -0.149284 2.151140 -0.440326
v -0.149284 2.151140 -0.440326
v -0.124596 1.691430 -0.302360
v -0.197367 1.691970 -0.274284
v -0.099908 1.228860 -0.219575
v -0.075219 0.766625 -0.173171
v -0.119151 0.766625 -0.146455
v -0.119151 0.766625 -0.146455
v -0.158259 1.228790 -0.192236
v -0.099908 1.228860 -0.219575
v -0.124596 1.691430 -0.302360
v -0.149284 2.151140 -0.440326
v -0.051023 2.151140 -0.450496
v -0.051023 2.151140 -0.450496
v -0.042585 1.691110 -0.313742
v -0.124596 1.691430 -0.302360
v -0.034147 1.228780 -0.232191
v -0.025709 0.766625 -0.187043
v -0.075219 0.766625 -0.173171
v -0.075219 0.766625 -0.173171
v -0.099908 1.228860 -0.219575
v -0.034147 1.228780 -0.232191
v -0.051023 2.151140 -0.450496
v 0.051023 2.151140 -0.450496
v 0.042585 1.691110 -0.313742
v 0.042585 1.691110 -0.313742
v -0.042585 1.691110 -0.313742
v -0.051023 2.151140 -0.450496
v 0.025708 0.766625 -0.187043
v -0.025709 0.766625 -0.187043
v -0.034147 1.228780 -0.232191
v -0.034147 1.228780 -0.232191
v 0.034146 1.228780 -0.232191
v 0.025708 0.766625 -0.187043
v 0.051023 2.151140 -0.450496
v 0.149284 2.151140 -0.440326
v 0.124596 1.691430 -0.302360
v 0.124596 1.691430 -0.302360
v 0.042585 1.691110 -0.313742
v 0.051023 2.151140 -0.450496
v 0.075219 0.766625 -0.173171
v 0.025708 0.766625 -0.187043
v 0.034146 1.228780 -0.232191
v 0.034146 1.228780 -0.232191
v 0.099907 1.228860 -0.219575
v 0.075219 0.766625 -0.173171
v 0.173972 2.611570 -0.633472
v 0.275582 2.609930 -0.603584
v 0.236474 2.150820 -0.411402
v 0.161628 2.381360 -0.536899
v 0.173972 2.611570 -0.633472
v 0.236474 2.150820 -0.411402
v 0.149284 2.151140 -0.440326
v 0.161628 2.381360 -0.536899
v 0.236474 2.150820 -0.411402
v 0.149284 2.151140 -0.440326
v 0.236474 2.150820 -0.411402
v 0.197366 1.691970 -0.274284
v 0.197366 1.691970 -0.274284
v 0.124596 1.691430 -0.302360
v 0.149284 2.151140 -0.440326
v 0.119151 0.766625 -0.146455
v 0.075219 0.766625 -0.173171
v 0.099907 1.228860 -0.219575
v 0.099907 1.228860 -0.219575
v 0.158258 1.228790 -0.192236
v 0.119151 0.766625 -0.146455
v 0.275582 2.609930 -0.603584
v 0.356752 2.609170 -0.539874
v 0.306125 2.152560 -0.354434
v 0.306125 2.152560 -0.354434
v 0.236474 2.150820 -0.411402
v 0.275582 2.609930 -0.603584
v 0.236474 2.150820 -0.411402
v 0.306125 2.152560 -0.354434
v 0.255499 1.694380 -0.223920
v 0.255499 1.694380 -0.223920
v 0.197366 1.691970 -0.274284
v 0.236474 2.150820 -0.411402
v 0.154246 0.766625 -0.108878
v 0.119151 0.766625 -0.146455
v 0.158258 1.228790 -0.192236
v 0.158258 1.228790 -0.192236
v 0.204872 1.228990 -0.148335
v 0.154246 0.766625 -0.108878
v 0.356752 2.609170 -0.539874
v 0.411464 2.615450 -0.439799
v 0.353073 2.161990 -0.267890
v 0.353073 2.161990 -0.267890
v 0.306125 2.152560 -0.354434
v 0.356752 2.609170 -0.539874
v 0.306125 2.152560 -0.354434
v 0.353073 2.161990 -0.267890
v 0.294682 1.702110 -0.150958
v 0.294682 1.702110 -0.150958
v 0.255499 1.694380 -0.223920
v 0.306125 2.152560 -0.354434
v 0.177901 0.766625 -0.063225
v 0.154246 0.766625 -0.108878
v 0.204872 1.228990 -0.148335
v 0.204872 1.228990 -0.148335
v 0.236292 1.230570 -0.089003
v 0.177901 0.766625 -0.063225
v 0.411464 2.615450 -0.439799
v 0.435659 2.631370 -0.312807
v 0.373835 2.181800 -0.159722
v 0.373835 2.181800 -0.159722
v 0.353073 2.161990 -0.267890
v 0.411464 2.615450 -0.439799
v 0.353073 2.161990 -0.267890
v 0.373835 2.181800 -0.159722
v 0.312011 1.716400 -0.061839
v 0.312011 1.716400 -0.061839
v 0.294682 1.702110 -0.150958
v 0.353073 2.161990 -0.267890
v 0.188362 0.766625 -0.012883
v 0.177901 0.766625 -0.063225
v 0.236292 1.230570 -0.089003
v 0.236292 1.230570 -0.089003
v 0.250187 1.233610 -0.019160
v 0.188362 0.766625 -0.012883
v 0.373835 2.181800 -0.159722
v 0.435659 2.631370 -0.312807
v 0.427544 2.647240 -0.172512
v 0.427544 2.647240 -0.172512
v 0.366871 2.204170 -0.042061
v 0.373835 2.181800 -0.159722
v 0.312011 1.716400 -0.061839
v 0.373835 2.181800 -0.159722
v 0.366871 2.204170 -0.042061
v 0.366871 2.204170 -0.042061
v 0.306199 1.731400 0.033445
v 0.312011 1.716400 -0.061839
v 0.184854 0.766625 0.038414
v 0.188362 0.766625 -0.012883
v 0.250187 1.233610 -0.019160
v 0.250187 1.233610 -0.019160
v 0.245526 1.235070 0.054003
v 0.184854 0.766625 0.038414
v 0.366871 2.204170 -0.042061
v 0.427544 2.647240 -0.172512
v 0.387719 2.645290 -0.029268
v 0.387719 2.645290 -0.029268
v 0.332698 2.212280 0.074704
v 0.366871 2.204170 -0.042061
v 0.306199 1.731400 0.033445
v 0.366871 2.204170 -0.042061
v 0.332698 2.212280 0.074704
v 0.332698 2.212280 0.074704
v 0.277677 1.734810 0.125583
v 0.306199 1.731400 0.033445
v 0.222656 1.229120 0.123369
v 0.167635 0.766625 0.086862
v 0.184854 0.766625 0.038414
v 0.184854 0.766625 0.038414
v 0.245526 1.235070 0.054003
v 0.222656 1.229120 0.123369
v 0.332698 2.212280 0.074704
v 0.387719 2.645290 -0.029268
v 0.319140 2.615030 0.108395
v 0.319140 2.615030 0.108395
v 0.273851 2.192670 0.182416
v 0.332698 2.212280 0.074704
v 0.277677 1.734810 0.125583
v 0.332698 2.212280 0.074704
v 0.273851 2.192670 0.182416
v 0.273851 2.192670 0.182416
v 0.228562 1.716350 0.207370
v 0.277677 1.734810 0.125583
v 0.183273 1.211250 0.183254
v 0.137984 0.766625 0.128869
v 0.167635 0.766625 0.086862
v 0.167635 0.766625 0.086862
v 0.222656 1.229120 0.123369
v 0.183273 1.211250 0.183254
v 0.273851 2.192670 0.182416
v 0.319140 2.615030 0.108395
v 0.226891 2.562910 0.227217
v 0.226891 2.562910 0.227217
v 0.194693 2.148040 0.271723
v 0.273851 2.192670 0.182416
v 0.228562 1.716350 0.207370
v 0.273851 2.192670 0.182416
v 0.194693 2.148040 0.271723
v 0.194693 2.148040 0.271723
v 0.162495 1.678310 0.272442
v 0.228562 1.716350 0.207370
v 0.130297 1.183900 0.229374
v 0.098099 0.766625 0.161318
v 0.137984 0.766625 0.128869
v 0.137984 0.766625 0.128869
v 0.183273 1.211250 0.183254
v 0.130297 1.183900 0.229374
v 0.194693 2.148040 0.271723
v 0.226891 2.562910 0.227217
v 0.117815 2.511360 0.308946
v 0.117815 2.511360 0.308946
v 0.101096 2.100470 0.331453
v 0.194693 2.148040 0.271723
v 0.162495 1.678310 0.272442
v 0.194693 2.148040 0.271723
v 0.101096 2.100470 0.331453
v 0.101096 2.100470 0.331453
v 0.084377 1.638850 0.314630
v 0.162495 1.678310 0.272442
v 0.067658 1.158050 0.258480
v 0.050938 0.766625 0.181802
v 0.098099 0.766625 0.161318
v 0.098099 0.766625 0.161318
v 0.130297 1.183900 0.229374
v 0.067658 1.158050 0.258480
v 0.101096 2.100470 0.331453
v 0.117815 2.511360 0.308946
v 0.000000 2.489410 0.338121
v 0.000000 2.489410 0.338121
v 0.000000 2.079820 0.352491
v 0.101096 2.100470 0.331453
v 0.084377 1.638850 0.314630
v 0.101096 2.100470 0.331453
v 0.000000 2.079820 0.352491
v 0.000000 2.079820 0.352491
v 0.000000 1.621930 0.329262
v 0.084377 1.638850 0.314630
v 0.000000 1.147350 0.268433
v 0.000000 0.766625 0.188804
v 0.050938 0.766625 0.181802
v 0.050938 0.766625 0.181802
v 0.067658 1.158050 0.258480
v 0.000000 1.147350 0.268433
vn -0.0000 -1.0000 -0.0000
vn -0.0000 -0.7105 0.7037
vn -0.1899 -0.7105 0.6776
vn -0.3655 -0.7105 0.6013
vn -0.3656 -0.7105 0.6013
vn -0.5143 -0.7105 0.4803
vn -0.6248 -0.7105 0.3238
vn -0.6890 -0.7105 0.1432
vn -0.7021 -0.7105 -0.0480
vn -0.6631 -0.7105 -0.2357
vn -0.5749 -0.7105 -0.4058
vn -0.0000 -1.0000 -0.0002
vn -0.4441 -0.7105 -0.5459
vn -0.2804 -0.7105 -0.6454
vn -0.0958 -0.7105 -0.6971
vn -0.0958 -0.7106 -0.6971
vn 0.0958 -0.7106 -0.6971
vn 0.0958 -0.7105 -0.6971
vn 0.2803 -0.7105 -0.6455
vn 0.2804 -0.7105 -0.6454
vn 0.4441 -0.7105 -0.5459
vn 0.0002 -1.0000 -0.0000
vn 0.5749 -0.7105 -0.4058
vn 0.6631 -0.7105 -0.2357
vn 0.7021 -0.7105 -0.0480
vn 0.6890 -0.7105 0.1432
vn 0.6248 -0.7105 0.3238
vn 0.5143 -0.7105 0.4803
vn 0.3656 -0.7105 0.6013
vn 0.1899 -0.7105 0.6776
vn -0.1793 -0.7332 0.6559
vn 0.0019 -0.7283 0.6853
vn -0.1793 -0.7332 0.6560
vn -0.3482 -0.7392 0.5765
vn -0.1793 -0.7333 0.6559
vn -0.4933 -0.7397 0.4577
vn -0.6047 -0.7343 0.3083
vn -0.6047 -0.7343 0.3084
vn -0.6707 -0.7289 0.1376
vn -0.6048 -0.7343 0.3083
vn -0.6828 -0.7293 -0.0436
vn -0.6399 -0.7354 -0.2229
vn -0.6632 -0.7104 -0.2357
vn -0.7022 -0.7104 -0.0480
vn -0.5497 -0.7405 -0.3867
vn -0.4226 -0.7392 -0.5244
vn -0.2670 -0.7330 -0.6256
vn -0.2804 -0.7104 -0.6455
vn -0.0927 -0.7284 -0.6788
vn -0.2804 -0.7104 -0.6456
vn 0.0892 -0.7305 -0.6771
vn 0.0958 -0.7105 -0.6972
vn -0.0958 -0.7104 -0.6972
vn -0.0958 -0.7105 -0.6972
vn -0.0927 -0.7284 -0.6789
vn 0.2658 -0.7370 -0.6214
vn 0.2804 -0.7104 -0.6456
vn 0.4239 -0.7408 -0.5211
vn 0.2805 -0.7104 -0.6455
vn 0.2804 -0.7104 -0.6455
vn 0.5535 -0.7380 -0.3860
vn 0.4239 -0.7408 -0.5210
vn 0.6438 -0.7315 -0.2247
vn 0.6438 -0.7314 -0.2247
vn 0.6838 -0.7281 -0.0474
vn 0.7022 -0.7104 -0.0480
vn 0.6632 -0.7104 -0.2357
vn 0.6683 -0.7316 0.1346
vn 0.6005 -0.7380 0.3078
vn 0.4907 -0.7402 0.4597
vn 0.3482 -0.7360 0.5806
vn 0.4906 -0.7402 0.4598
vn 0.3481 -0.7360 0.5806
vn 0.1816 -0.7298 0.6591
vn 0.3481 -0.7360 0.5807
vn 0.0019 -0.7282 0.6854
vn -0.1063 -0.7443 0.6593
vn -0.1793 -0.7333 0.6558
vn 0.0019 -0.7283 0.6852
vn 0.0046 -0.7299 0.6835
vn -0.1063 -0.7442 0.6594
vn -0.2701 -0.7710 0.5767
vn -0.4705 -0.7793 0.4139
vn -0.6140 -0.7575 0.2218
vn -0.6046 -0.7344 0.3083
vn -0.6139 -0.7576 0.2218
vn -0.6734 -0.7347 0.0821
vn -0.6706 -0.7289 0.1376
vn -0.6047 -0.7344 0.3083
vn -0.6047 -0.7344 0.3082
vn -0.6812 -0.7318 -0.0186
vn -0.6449 -0.7515 -0.1391
vn -0.6813 -0.7318 -0.0186
vn -0.5429 -0.7773 -0.3179
vn -0.5496 -0.7405 -0.3867
vn -0.5429 -0.7774 -0.3178
vn -0.3633 -0.7771 -0.5139
vn -0.1791 -0.7516 -0.6348
vn -0.2670 -0.7331 -0.6256
vn -0.1791 -0.7517 -0.6347
vn -0.0537 -0.7323 -0.6788
vn -0.0927 -0.7285 -0.6787
vn -0.2670 -0.7332 -0.6255
vn -0.2669 -0.7331 -0.6256
vn -0.0537 -0.7323 -0.6789
vn 0.0459 -0.7350 -0.6765
vn 0.0892 -0.7306 -0.6770
vn 0.1785 -0.7585 -0.6267
vn 0.0892 -0.7305 -0.6770
vn 0.3691 -0.7806 -0.5044
vn 0.4239 -0.7409 -0.5210
vn 0.5529 -0.7720 -0.3136
vn 0.4239 -0.7409 -0.5209
vn 0.6516 -0.7452 -0.1416
vn 0.6437 -0.7315 -0.2247
vn 0.6517 -0.7452 -0.1416
vn 0.6825 -0.7304 -0.0274
vn 0.6698 -0.7387 0.0757
vn 0.6837 -0.7282 -0.0474
vn 0.6824 -0.7305 -0.0274
vn 0.6048 -0.7646 0.2229
vn 0.6047 -0.7646 0.2229
vn 0.4621 -0.7805 0.4210
vn 0.4906 -0.7403 0.4597
vn 0.4621 -0.7806 0.4209
vn 0.2673 -0.7646 0.5865
vn 0.2673 -0.7645 0.5866
vn 0.1108 -0.7390 0.6645
vn -0.1261 0.3836 0.9148
vn 0.0103 0.4060 0.9138
vn -0.3932 0.3284 0.8588
vn -0.2701 -0.7709 0.5768
vn -0.1063 -0.7441 0.6595
vn -0.1262 0.3836 0.9148
vn -0.7168 0.3024 0.6282
vn -0.3933 0.3284 0.8588
vn -0.7169 0.3024 0.6282
vn -0.8883 0.3390 0.3098
vn -0.6140 -0.7575 0.2219
vn -0.7168 0.3024 0.6284
vn -0.9150 0.3905 0.1010
vn -0.9151 0.3905 0.1008
vn -0.9143 0.4048 -0.0148
vn -0.6814 -0.7317 -0.0186
vn -0.9143 0.4048 -0.0147
vn -0.9122 0.3705 -0.1750
vn -0.8206 0.3149 -0.4769
vn -0.5482 0.3051 -0.7787
vn -0.3634 -0.7771 -0.5139
vn -0.2418 0.3522 -0.9041
vn -0.3633 -0.7771 -0.5140
vn -0.2417 0.3522 -0.9042
vn -0.0657 0.3980 -0.9150
vn -0.1791 -0.7515 -0.6349
vn 0.0468 0.4005 -0.9151
vn 0.0467 0.4005 -0.9151
vn 0.2381 0.3565 -0.9034
vn 0.1785 -0.7585 -0.6268
vn 0.5625 0.3062 -0.7680
vn 0.8280 0.3128 -0.4653
vn 0.8282 0.3128 -0.4650
vn 0.9122 0.3661 -0.1840
vn 0.6518 -0.7451 -0.1416
vn 0.8281 0.3128 -0.4653
vn 0.9123 0.3661 -0.1837
vn 0.9143 0.4035 -0.0350
vn 0.9123 0.3661 -0.1838
vn 0.9153 0.3939 0.0841
vn 0.6699 -0.7386 0.0757
vn 0.6826 -0.7303 -0.0274
vn 0.8862 0.3428 0.3117
vn 0.6048 -0.7645 0.2229
vn 0.7035 0.3028 0.6430
vn 0.4622 -0.7805 0.4210
vn 0.6049 -0.7645 0.2229
vn 0.3859 0.3253 0.8633
vn 0.4623 -0.7804 0.4210
vn 0.7035 0.3028 0.6429
vn 0.1392 0.3795 0.9147
vn 0.1108 -0.7390 0.6646
vn 0.3860 0.3253 0.8633
vn 0.0102 0.4059 0.9138
vn 0.1390 0.3795 0.9147
vn 0.0103 0.4059 0.9138
vn -0.1086 0.9225 0.3704
vn -0.1261 0.3836 0.9149
vn 0.0103 0.4059 0.9139
vn 0.0102 0.4059 0.9139
vn 0.0031 0.9241 0.3822
vn -0.2121 0.9173 0.3370
vn -0.3931 0.3284 0.8588
vn -0.1261 0.3835 0.9149
vn -0.2971 0.9139 0.2766
vn -0.7168 0.3024 0.6283
vn -0.3549 0.9158 0.1882
vn -0.7169 0.3023 0.6282
vn -0.2972 0.9139 0.2766
vn -0.3548 0.9158 0.1882
vn -0.3794 0.9213 0.0851
vn -0.8883 0.3388 0.3099
vn -0.3813 0.9241 -0.0251
vn -0.9143 0.4048 -0.0146
vn -0.9151 0.3904 0.1008
vn -0.3647 0.9212 -0.1359
vn -0.9122 0.3705 -0.1749
vn -0.3812 0.9242 -0.0251
vn -0.3648 0.9211 -0.1359
vn -0.3250 0.9158 -0.2359
vn -0.8206 0.3149 -0.4770
vn -0.9122 0.3705 -0.1751
vn -0.2518 0.9134 -0.3199
vn -0.8206 0.3148 -0.4770
vn -0.3250 0.9158 -0.2360
vn -0.2566 0.9136 -0.3155
vn -0.1637 0.9167 -0.3644
vn -0.2420 0.3522 -0.9041
vn -0.5483 0.3051 -0.7787
vn -0.0583 0.9223 -0.3820
vn -0.2419 0.3521 -0.9042
vn -0.2419 0.3522 -0.9041
vn -0.1637 0.9167 -0.3645
vn 0.0531 0.9238 -0.3792
vn -0.0658 0.3980 -0.9150
vn 0.1622 0.9198 -0.3572
vn 0.2381 0.3565 -0.9035
vn 0.0466 0.4005 -0.9151
vn 0.0533 0.9238 -0.3791
vn 0.1622 0.9198 -0.3573
vn 0.2581 0.9148 -0.3107
vn 0.5626 0.3061 -0.7680
vn 0.2581 0.9148 -0.3108
vn 0.3309 0.9139 -0.2353
vn 0.8281 0.3126 -0.4652
vn 0.3309 0.9139 -0.2352
vn 0.3713 0.9182 -0.1382
vn 0.9122 0.3661 -0.1838
vn 0.8281 0.3128 -0.4652
vn 0.3713 0.9182 -0.1381
vn 0.3828 0.9233 -0.0310
vn 0.9123 0.3659 -0.1839
vn 0.9123 0.3660 -0.1838
vn 0.3827 0.9234 -0.0310
vn 0.3752 0.9234 0.0809
vn 0.9153 0.3939 0.0840
vn 0.9143 0.4035 -0.0349
vn 0.3477 0.9187 0.1875
vn 0.3752 0.9234 0.0811
vn 0.2940 0.9143 0.2785
vn 0.7035 0.3026 0.6431
vn 0.8862 0.3428 0.3118
vn 0.2121 0.9148 0.3437
vn 0.7035 0.3026 0.6430
vn 0.1117 0.9199 0.3759
vn 0.1393 0.3795 0.9147
vn 0.1393 0.3794 0.9147
vn -0.2684 0.1638 0.9493
vn 0.0031 0.9241 0.3821
vn -0.0000 0.1608 0.9870
vn -0.2684 0.1637 0.9493
vn -0.5160 0.1719 0.8392
vn -0.7218 0.1824 0.6676
vn -0.7219 0.1824 0.6676
vn -0.8731 0.1913 0.4485
vn -0.9603 0.1966 0.1979
vn -0.8731 0.1914 0.4485
vn -0.9779 0.1979 -0.0667
vn -0.9243 0.1964 -0.3273
vn -0.3647 0.9212 -0.1358
vn -0.9779 0.1980 -0.0667
vn -0.8014 0.1950 -0.5655
vn -0.3646 0.9212 -0.1359
vn -0.9243 0.1965 -0.3273
vn -0.6139 0.2008 -0.7634
vn -0.3864 0.2106 -0.8980
vn -0.1637 0.9168 -0.3644
vn -0.1328 0.2149 -0.9676
vn -0.1637 0.9168 -0.3643
vn 0.1328 0.2150 -0.9675
vn 0.0531 0.9238 -0.3791
vn -0.1328 0.2151 -0.9675
vn 0.1328 0.2151 -0.9675
vn 0.3864 0.2106 -0.8980
vn 0.1328 0.2149 -0.9676
vn 0.6152 0.2028 -0.7619
vn 0.2579 0.9148 -0.3107
vn 0.6152 0.2029 -0.7618
vn 0.8000 0.1971 -0.5667
vn 0.2581 0.9148 -0.3106
vn 0.9241 0.1961 -0.3281
vn 0.3308 0.9139 -0.2352
vn 0.9781 0.1975 -0.0661
vn 0.9603 0.1966 0.1979
vn 0.3826 0.9234 -0.0310
vn 0.3826 0.9234 -0.0308
vn 0.8731 0.1913 0.4485
vn 0.8731 0.1914 0.4485
vn 0.7219 0.1824 0.6675
vn 0.3476 0.9187 0.1875
vn 0.7218 0.1824 0.6676
vn 0.5160 0.1719 0.8392
vn 0.7219 0.1824 0.6676
vn 0.2684 0.1637 0.9493
vn 0.0032 0.9241 0.3822
vn 0.2684 0.1638 0.9493
vn -0.0000 -0.0898 0.9960
vn -0.3491 -0.0841 0.9333
vn -0.3196 -0.1572 0.9344
vn -0.0002 -0.1655 0.9862
vn -0.6166 -0.0751 0.7837
vn -0.5813 -0.1406 0.8015
vn -0.7957 -0.0724 0.6013
vn -0.7719 -0.1259 0.6231
vn -0.7719 -0.1259 0.6232
vn -0.5814 -0.1406 0.8014
vn -0.9111 -0.0817 0.4040
vn -0.9013 -0.1192 0.4164
vn -0.9013 -0.1192 0.4165
vn -0.9756 -0.1033 0.1935
vn -0.9746 -0.1215 0.1883
vn -0.9757 -0.1033 0.1935
vn -0.9901 -0.1350 -0.0378
vn -0.9897 -0.1314 -0.0570
vn -0.9897 -0.1314 -0.0572
vn -0.9367 -0.1752 -0.3032
vn -0.9355 -0.1458 -0.3219
vn -0.7756 -0.2163 -0.5930
vn -0.7902 -0.1579 -0.5922
vn -0.7902 -0.1579 -0.5921
vn -0.5047 -0.2398 -0.8293
vn -0.5542 -0.1592 -0.8170
vn -0.2461 -0.2388 -0.9394
vn -0.3069 -0.1488 -0.9400
vn -0.3067 -0.1488 -0.9401
vn -0.0691 -0.2321 -0.9702
vn -0.0959 -0.1390 -0.9856
vn -0.3069 -0.1488 -0.9401
vn 0.0691 -0.2321 -0.9702
vn 0.0959 -0.1390 -0.9856
vn 0.2460 -0.2388 -0.9394
vn 0.3067 -0.1488 -0.9401
vn 0.3069 -0.1488 -0.9401
vn 0.2461 -0.2388 -0.9394
vn 0.5068 -0.2395 -0.8281
vn 0.5561 -0.1591 -0.8157
vn 0.3069 -0.1488 -0.9400
vn 0.5069 -0.2395 -0.8281
vn 0.7742 -0.2162 -0.5949
vn 0.7885 -0.1587 -0.5942
vn 0.5562 -0.1591 -0.8157
vn 0.5069 -0.2395 -0.8280
vn 0.7743 -0.2162 -0.5947
vn 0.9365 -0.1746 -0.3041
vn 0.9350 -0.1467 -0.3229
vn 0.7743 -0.2162 -0.5948
vn 0.9366 -0.1746 -0.3040
vn 0.9903 -0.1341 -0.0375
vn 0.9896 -0.1325 -0.0566
vn 0.9365 -0.1746 -0.3040
vn 0.9756 -0.1029 0.1940
vn 0.9744 -0.1221 0.1888
vn 0.9903 -0.1341 -0.0374
vn 0.9109 -0.0818 0.4045
vn 0.9109 -0.0818 0.4044
vn 0.9013 -0.1193 0.4165
vn 0.7955 -0.0727 0.6016
vn 0.7719 -0.1259 0.6231
vn 0.6167 -0.0751 0.7836
vn 0.5815 -0.1406 0.8013
vn 0.7719 -0.1259 0.6232
vn 0.5814 -0.1406 0.8014
vn 0.3492 -0.0841 0.9333
vn 0.3491 -0.0841 0.9333
vn 0.3196 -0.1572 0.9344
vn 0.5813 -0.1406 0.8014
vn 0.3490 -0.0841 0.9334
vn -0.0000 -0.1655 0.9862
vn -0.1364 0.7342 0.6651
vn -0.3289 0.3268 0.8860
vn -0.0014 0.3072 0.9516
vn -0.0042 0.7289 0.6846
vn -0.2739 0.7440 0.6095
vn -0.5628 0.3460 0.7507
vn -0.2739 0.7441 0.6094
vn -0.4440 0.7314 0.5176
vn -0.7431 0.3265 0.5841
vn -0.6403 0.6726 0.3709
vn -0.8852 0.2614 0.3848
vn -0.7431 0.3266 0.5841
vn -0.6403 0.6726 0.3710
vn -0.8038 0.5710 0.1671
vn -0.9722 0.1681 0.1628
vn -0.8852 0.2615 0.3848
vn -0.8847 0.4610 -0.0689
vn -0.9947 0.0730 -0.0724
vn -0.9722 0.1683 0.1628
vn -0.8039 0.5709 0.1671
vn -0.8711 0.3651 -0.3285
vn -0.9412 -0.0155 -0.3376
vn -0.9947 0.0729 -0.0724
vn -0.8711 0.3651 -0.3284
vn -0.7435 0.2723 -0.6108
vn -0.7647 -0.1041 -0.6359
vn -0.8711 0.3650 -0.3286
vn -0.5022 0.1679 -0.8483
vn -0.4646 -0.1850 -0.8660
vn -0.7434 0.2723 -0.6109
vn -0.2435 0.0684 -0.9675
vn -0.2210 -0.1893 -0.9567
vn -0.4646 -0.1849 -0.8660
vn -0.0612 0.0127 -0.9980
vn -0.0401 -0.1350 -0.9900
vn 0.0737 0.0155 -0.9972
vn 0.0502 -0.1262 -0.9907
vn 0.2480 0.0729 -0.9660
vn 0.2251 -0.1756 -0.9584
vn 0.4977 0.1690 -0.8507
vn 0.4638 -0.1774 -0.8680
vn 0.2252 -0.1756 -0.9584
vn 0.7406 0.2752 -0.6130
vn 0.7640 -0.1017 -0.6371
vn 0.4640 -0.1774 -0.8679
vn 0.4639 -0.1773 -0.8679
vn 0.7406 0.2753 -0.6130
vn 0.8696 0.3727 -0.3238
vn 0.9415 -0.0129 -0.3366
vn 0.7641 -0.1017 -0.6370
vn 0.8812 0.4684 -0.0634
vn 0.9944 0.0804 -0.0692
vn 0.9416 -0.0129 -0.3366
vn 0.9416 -0.0127 -0.3366
vn 0.8812 0.4685 -0.0634
vn 0.8026 0.5731 0.1656
vn 0.9699 0.1784 0.1655
vn 0.8027 0.5730 0.1656
vn 0.6479 0.6693 0.3637
vn 0.8832 0.2682 0.3848
vn 0.9699 0.1786 0.1655
vn 0.4540 0.7291 0.5121
vn 0.7460 0.3254 0.5811
vn 0.2741 0.7461 0.6068
vn 0.5687 0.3402 0.7489
vn 0.2742 0.7461 0.6068
vn 0.1280 0.7385 0.6620
vn 0.3299 0.3231 0.8870
vn 0.5688 0.3402 0.7488
vn -0.0014 0.3073 0.9516
vn -0.0507 0.8578 0.5115
vn -0.0020 0.8543 0.5198
vn -0.1102 0.8671 0.4859
vn -0.2011 0.8744 0.4416
vn -0.2739 0.7441 0.6093
vn -0.1102 0.8670 0.4859
vn -0.3335 0.8702 0.3628
vn -0.6403 0.6727 0.3709
vn -0.3335 0.8701 0.3628
vn -0.4849 0.8437 0.2303
vn -0.6044 0.7954 0.0438
vn -0.4850 0.8436 0.2303
vn -0.6044 0.7955 0.0438
vn -0.6492 0.7393 -0.1788
vn -0.8711 0.3651 -0.3286
vn -0.6043 0.7955 0.0438
vn -0.6010 0.6811 -0.4183
vn -0.8710 0.3651 -0.3286
vn -0.6009 0.6812 -0.4183
vn -0.4615 0.6151 -0.6392
vn -0.7434 0.2723 -0.6108
vn -0.6009 0.6811 -0.4183
vn -0.4615 0.6152 -0.6392
vn -0.2717 0.5461 -0.7924
vn -0.0819 0.4995 -0.8624
vn -0.0612 0.0129 -0.9980
vn -0.0819 0.4994 -0.8625
vn 0.0946 0.4969 -0.8626
vn 0.2739 0.5380 -0.7972
vn 0.0737 0.0157 -0.9972
vn 0.4587 0.6063 -0.6496
vn 0.6006 0.6783 -0.4233
vn 0.7405 0.2753 -0.6131
vn 0.4978 0.1690 -0.8507
vn 0.6502 0.7385 -0.1786
vn 0.7407 0.2753 -0.6129
vn 0.6104 0.7911 0.0396
vn 0.8811 0.4687 -0.0634
vn 0.5021 0.8363 0.2203
vn 0.3567 0.8641 0.3550
vn 0.3568 0.8641 0.3550
vn 0.2173 0.8716 0.4395
vn 0.6478 0.6694 0.3637
vn 0.1138 0.8669 0.4853
vn 0.4539 0.7292 0.5121
vn 0.0472 0.8591 0.5096
vn -0.0040 0.9162 0.4006
vn -0.0010 0.9154 0.4025
vn -0.0150 0.9204 0.3907
vn -0.0413 0.9274 0.3717
vn -0.0851 0.9374 0.3376
vn -0.3334 0.8702 0.3628
vn -0.1395 0.9492 0.2821
vn -0.1910 0.9598 0.2056
vn -0.6042 0.7956 0.0438
vn -0.2260 0.9674 0.1141
vn -0.6042 0.7956 0.0439
vn -0.2261 0.9674 0.1141
vn -0.2335 0.9723 0.0144
vn -0.6009 0.6812 -0.4182
vn -0.2336 0.9722 0.0144
vn -0.2051 0.9750 -0.0859
vn -0.1396 0.9750 -0.1728
vn -0.2051 0.9750 -0.0860
vn -0.0471 0.9730 -0.2261
vn -0.1396 0.9750 -0.1729
vn 0.0538 0.9717 -0.2301
vn 0.1464 0.9718 -0.1849
vn 0.2169 0.9709 -0.1019
vn 0.2169 0.9709 -0.1017
vn 0.2529 0.9675 0.0008
vn 0.2511 0.9623 0.1047
vn 0.2531 0.9675 0.0008
vn 0.2171 0.9556 0.1992
vn 0.2172 0.9556 0.1992
vn 0.1622 0.9469 0.2777
vn 0.5020 0.8363 0.2203
vn 0.2170 0.9556 0.1992
vn 0.1006 0.9366 0.3356
vn 0.5020 0.8364 0.2203
vn 0.0471 0.9275 0.3709
vn 0.3566 0.8642 0.3550
vn 0.0138 0.9211 0.3890
vn 0.2171 0.8716 0.4395
vn 0.0014 0.9175 0.3977
vn -0.0000 0.9658 0.2594
vn -0.0851 0.9375 0.3376
vn -0.2259 0.9674 0.1141
vn -0.2258 0.9675 0.1141
vn -0.2051 0.9750 -0.0858
vn -0.2334 0.9723 0.0144
vn -0.2049 0.9750 -0.0859
vn 0.2510 0.9623 0.1047
vn -0.3764 -0.0062 0.9265
vn -0.3764 -0.0062 0.9264
vn -0.0000 -0.0088 1.0000
vn -0.0002 -0.0898 0.9960
vn -0.0002 -0.0088 1.0000
vn -0.5628 0.3459 0.7507
vn -0.6504 -0.0071 0.7596
vn -0.6503 -0.0071 0.7596
vn -0.3766 -0.0062 0.9264
vn -0.3198 -0.1572 0.9344
vn -0.5813 -0.1406 0.8014
vn -0.5159 0.1719 0.8392
vn -0.8192 -0.0185 0.5732
vn -0.6505 -0.0071 0.7595
vn -0.7219 0.1823 0.6675
vn -0.7219 0.1822 0.6676
vn -0.9219 -0.0455 0.3846
vn -0.9219 -0.0455 0.3847
vn -0.7219 0.1824 0.6675
vn -0.9784 -0.0876 0.1874
vn -0.9220 -0.0455 0.3846
vn -0.9756 -0.1033 0.1936
vn -0.8731 0.1913 0.4484
vn -0.9947 0.0728 -0.0724
vn -0.9892 -0.1425 -0.0331
vn -0.9723 0.1680 0.1628
vn -0.9780 0.1978 -0.0667
vn -0.9746 -0.1215 0.1882
vn -0.9780 0.1979 -0.0667
vn -0.9319 -0.2111 -0.2949
vn -0.9367 -0.1752 -0.3030
vn -0.9892 -0.1425 -0.0332
vn -0.9243 0.1963 -0.3273
vn -0.7531 -0.2859 -0.5925
vn -0.7532 -0.2859 -0.5925
vn -0.7647 -0.1042 -0.6359
vn -0.4593 -0.3334 -0.8233
vn -0.7531 -0.2859 -0.5926
vn -0.7530 -0.2859 -0.5926
vn -0.5048 -0.2398 -0.8293
vn -0.6140 0.2008 -0.7633
vn -0.2210 -0.1895 -0.9567
vn -0.2895 -0.3834 -0.8770
vn -0.2331 -0.3266 -0.9160
vn -0.4592 -0.3334 -0.8234
vn -0.3070 -0.1488 -0.9400
vn -0.3864 0.2104 -0.8980
vn -0.0520 -0.2879 -0.9563
vn 0.0519 -0.2879 -0.9563
vn 0.1328 0.2147 -0.9676
vn 0.2335 -0.3262 -0.9160
vn 0.3864 0.2104 -0.8980
vn 0.2252 -0.1756 -0.9583
vn 0.4639 -0.1775 -0.8679
vn 0.4598 -0.3343 -0.8227
vn 0.2895 -0.3834 -0.8770
vn 0.4599 -0.3343 -0.8227
vn 0.3070 -0.1488 -0.9400
vn 0.6152 0.2027 -0.7619
vn 0.4640 -0.1775 -0.8679
vn 0.7641 -0.1018 -0.6370
vn 0.7529 -0.2863 -0.5926
vn 0.7530 -0.2863 -0.5925
vn 0.4600 -0.3343 -0.8226
vn 0.9317 -0.2107 -0.2959
vn 0.9317 -0.2107 -0.2958
vn 0.9241 0.1960 -0.3281
vn 0.9416 -0.0129 -0.3365
vn 0.9893 -0.1423 -0.0330
vn 0.9781 0.1974 -0.0661
vn 0.9944 0.0803 -0.0692
vn 0.9784 -0.0876 0.1874
vn 0.9603 0.1965 0.1979
vn 0.9781 0.1973 -0.0661
vn 0.8832 0.2681 0.3848
vn 0.9219 -0.0454 0.3849
vn 0.9219 -0.0454 0.3848
vn 0.9603 0.1965 0.1980
vn 0.9744 -0.1221 0.1889
vn 0.9013 -0.1193 0.4164
vn 0.9218 -0.0454 0.3849
vn 0.8832 0.2680 0.3848
vn 0.8192 -0.0185 0.5732
vn 0.9218 -0.0454 0.3850
vn 0.7720 -0.1259 0.6230
vn 0.7460 0.3253 0.5811
vn 0.5688 0.3401 0.7489
vn 0.6505 -0.0071 0.7595
vn 0.6504 -0.0071 0.7596
vn 0.7219 0.1822 0.6676
vn 0.5688 0.3400 0.7489
vn 0.3299 0.3230 0.8870
vn 0.3763 -0.0062 0.9265
vn 0.6503 -0.0071 0.7596
vn -0.0014 0.3072 0.9517
vn 0.3762 -0.0062 0.9265
vn 0.3489 -0.0841 0.9334
vn 0.0002 -0.0088 1.0000
vn 0.0002 -0.0898 0.9960
vn 0.0002 -0.1655 0.9862
vt 0.000000 0.000000
vt 0.000000 0.086957
vt 0.043478 0.086957
vt 0.043478 0.000000
vt 0.086957 0.086957
vt 0.086957 0.000000
vt 0.130435 0.086957
vt 0.130435 0.000000
vt 0.173913 0.086957
vt 0.173913 0.000000
vt 0.217391 0.086957
vt 0.217391 0.000000
vt 0.260870 0.086957
vt 0.260870 0.000000
vt 0.304348 0.086957
vt 0.304348 0.000000
vt 0.347826 0.086957
vt 0.347826 0.000000
vt 0.391304 0.086957
vt 0.391304 0.000000
vt 0.434783 0.086957
vt 0.434783 0.000000
vt 0.478261 0.086957
vt 0.478261 0.000000
vt 0.521739 0.086957
vt 0.521739 0.000000
vt 0.565217 0.086957
vt 0.565217 0.000000
vt 0.608696 0.086957
vt 0.608696 0.000000
vt 0.652174 0.086957
vt 0.652174 0.000000
vt 0.695652 0.086957
vt 0.695652 0.000000
vt 0.739130 0.086957
vt 0.739130 0.000000
vt 0.782609 0.086957
vt 0.782609 0.000000
vt 0.826087 0.086957
vt 0.826087 0.000000
vt 0.869565 0.086957
vt 0.869565 0.000000
vt 0.913043 0.086957
vt 0.913043 0.000000
vt 0.956522 0.086957
vt 0.956522 0.000000
vt 1.000000 0.086957
vt 0.043478 0.173913
vt 0.000000 0.173913
vt 0.086957 0.173913
vt 0.130435 0.173913
vt 0.173913 0.173913
vt 0.217391 0.173913
vt 0.260870 0.173913
vt 0.304348 0.173913
vt 0.347826 0.173913
vt 0.391304 0.173913
vt 0.434783 0.173913
vt 0.478261 0.173913
vt 0.521739 0.173913
vt 0.565217 0.173913
vt 0.608696 0.173913
vt 0.652174 0.173913
vt 0.695652 0.173913
vt 0.739130 0.173913
vt 0.782609 0.173913
vt 0.826087 0.173913
vt 0.869565 0.173913
vt 0.913043 0.173913
vt 0.956522 0.173913
vt 1.000000 0.173913
vt 0.043478 0.260870
vt 0.000000 0.260870
vt 0.086957 0.260870
vt 0.130435 0.260870
vt 0.173913 0.260870
vt 0.217391 0.260870
vt 0.260870 0.260870
vt 0.304348 0.260870
vt 0.347826 0.260870
vt 0.391304 0.260870
vt 0.434783 0.260870
vt 0.478261 0.260870
vt 0.521739 0.260870
vt 0.565217 0.260870
vt 0.608696 0.260870
vt 0.652174 0.260870
vt 0.695652 0.260870
vt 0.739130 0.260870
vt 0.782609 0.260870
vt 0.826087 0.260870
vt 0.869565 0.260870
vt 0.913043 0.260870
vt 0.956522 0.260870
vt 1.000000 0.260870
vt 0.043478 0.347826
vt 0.000000 0.347826
vt 0.086957 0.347826
vt 0.130435 0.347826
vt 0.173913 0.347826
vt 0.217391 0.347826
vt 0.260870 0.347826
vt 0.304348 0.347826
vt 0.347826 0.347826
vt 0.391304 0.347826
vt 0.434783 0.347826
vt 0.478261 0.347826
vt 0.521739 0.347826
vt 0.565217 0.347826
vt 0.608696 0.347826
vt 0.652174 0.347826
vt 0.695652 0.347826
vt 0.739130 0.347826
vt 0.782609 0.347826
vt 0.826087 0.347826
vt 0.869565 0.347826
vt 0.913043 0.347826
vt 0.956522 0.347826
vt 1.000000 0.347826
vt 0.043478 0.434783
vt 0.000000 0.434783
vt 0.086957 0.434783
vt 0.130435 0.434783
vt 0.173913 0.434783
vt 0.217391 0.434783
vt 0.260870 0.434783
vt 0.304348 0.434783
vt 0.347826 0.434783
vt 0.391304 0.434783
vt 0.434783 0.434783
vt 0.478261 0.434783
vt 0.521739 0.434783
vt 0.565217 0.434783
vt 0.608696 0.434783
vt 0.652174 0.434783
vt 0.695652 0.434783
vt 0.739130 0.434783
vt 0.782609 0.434783
vt 0.826087 0.434783
vt 0.869565 0.434783
vt 0.913043 0.434783
vt 0.956522 0.434783
vt 1.000000 0.434783
vt 0.043478 0.521739
vt 0.000000 0.521739
vt 0.086957 0.521739
vt 0.130435 0.521739
vt 0.173913 0.521739
vt 0.217391 0.521739
vt 0.260870 0.521739
vt 0.304348 0.521739
vt 0.347826 0.521739
vt 0.391304 0.521739
vt 0.434783 0.521739
vt 0.478261 0.521739
vt 0.521739 0.521739
vt 0.565217 0.521739
vt 0.608696 0.521739
vt 0.652174 0.521739
vt 0.695652 0.521739
vt 0.739130 0.521739
vt 0.782609 0.521739
vt 0.826087 0.521739
vt 0.869565 0.521739
vt 0.913043 0.521739
vt 0.956522 0.521739
vt 1.000000 0.521739
vt 0.000000 0.565217
vt 0.043478 0.565217
vt 0.043478 0.543478
vt 0.000000 0.543478
vt 0.086957 0.565217
vt 0.086957 0.543478
vt 0.130435 0.565217
vt 0.130435 0.543478
vt 0.173913 0.565217
vt 0.173913 0.543478
vt 0.217391 0.565217
vt 0.217391 0.543478
vt 0.260870 0.565217
vt 0.260870 0.543478
vt 0.304348 0.565217
vt 0.304348 0.543478
vt 0.347826 0.565217
vt 0.347826 0.543478
vt 0.391304 0.565217
vt 0.391304 0.543478
vt 0.434783 0.565217
vt 0.434783 0.543478
vt 0.478261 0.565217
vt 0.478261 0.543478
vt 0.521739 0.565217
vt 0.521739 0.543478
vt 0.565217 0.565217
vt 0.565217 0.543478
vt 0.608696 0.565217
vt 0.608696 0.543478
vt 0.652174 0.565217
vt 0.652174 0.543478
vt 0.695652 0.565217
vt 0.695652 0.543478
vt 0.739130 0.565217
vt 0.739130 0.543478
vt 0.782609 0.565217
vt 0.782609 0.543478
vt 0.826087 0.565217
vt 0.826087 0.543478
vt 0.869565 0.565217
vt 0.869565 0.543478
vt 0.913043 0.565217
vt 0.913043 0.543478
vt 0.956522 0.565217
vt 0.956522 0.543478
vt 1.000000 0.565217
vt 1.000000 0.543478
vt 0.043478 0.695652
vt 0.043478 0.608696
vt 0.000000 0.608696
vt 0.000000 0.695652
vt 0.086957 0.695652
vt 0.086957 0.608696
vt 0.130435 0.695652
vt 0.130435 0.608696
vt 0.173913 0.695652
vt 0.173913 0.608696
vt 0.217391 0.695652
vt 0.217391 0.608696
vt 0.260870 0.695652
vt 0.260870 0.608696
vt 0.304348 0.695652
vt 0.304348 0.608696
vt 0.347826 0.695652
vt 0.347826 0.608696
vt 0.391304 0.695652
vt 0.391304 0.608696
vt 0.434783 0.695652
vt 0.434783 0.608696
vt 0.478261 0.695652
vt 0.478261 0.608696
vt 0.521739 0.695652
vt 0.521739 0.608696
vt 0.565217 0.695652
vt 0.565217 0.608696
vt 0.608696 0.695652
vt 0.608696 0.608696
vt 0.652174 0.695652
vt 0.652174 0.608696
vt 0.695652 0.695652
vt 0.695652 0.608696
vt 0.739130 0.695652
vt 0.739130 0.608696
vt 0.782609 0.695652
vt 0.782609 0.608696
vt 0.826087 0.695652
vt 0.826087 0.608696
vt 0.869565 0.695652
vt 0.869565 0.608696
vt 0.913043 0.695652
vt 0.913043 0.608696
vt 0.956522 0.695652
vt 0.956522 0.608696
vt 1.000000 0.695652
vt 1.000000 0.608696
vt 0.043478 0.782609
vt 0.000000 0.782609
vt 0.086957 0.782609
vt 0.130435 0.782609
vt 0.173913 0.782609
vt 0.217391 0.782609
vt 0.260870 0.782609
vt 0.304348 0.782609
vt 0.347826 0.782609
vt 0.391304 0.782609
vt 0.434783 0.782609
vt 0.478261 0.782609
vt 0.521739 0.782609
vt 0.565217 0.782609
vt 0.608696 0.782609
vt 0.652174 0.782609
vt 0.695652 0.782609
vt 0.739130 0.782609
vt 0.782609 0.782609
vt 0.826087 0.782609
vt 0.869565 0.782609
vt 0.913043 0.782609
vt 0.956522 0.782609
vt 1.000000 0.782609
vt 0.043478 0.869565
vt 0.000000 0.869565
vt 0.086957 0.869565
vt 0.130435 0.869565
vt 0.173913 0.869565
vt 0.217391 0.869565
vt 0.260870 0.869565
vt 0.304348 0.869565
vt 0.347826 0.869565
vt 0.391304 0.869565
vt 0.434783 0.869565
vt 0.478261 0.869565
vt 0.521739 0.869565
vt 0.565217 0.869565
vt 0.608696 0.869565
vt 0.652174 0.869565
vt 0.695652 0.869565
vt 0.739130 0.869565
vt 0.782609 0.869565
vt 0.826087 0.869565
vt 0.869565 0.869565
vt 0.913043 0.869565
vt 0.956522 0.869565
vt 1.000000 0.869565
vt 0.000000 0.956522
vt 0.043478 0.956522
vt 0.086957 0.956522
vt 0.130435 0.956522
vt 0.173913 0.956522
vt 0.217391 0.956522
vt 0.260870 0.956522
vt 0.304348 0.956522
vt 0.347826 0.956522
vt 0.391304 0.956522
vt 0.434783 0.956522
vt 0.478261 0.956522
vt 0.521739 0.956522
vt 0.565217 0.956522
vt 0.608696 0.956522
vt 0.652174 0.956522
vt 0.695652 0.956522
vt 0.739130 0.956522
vt 0.782609 0.956522
vt 0.826087 0.956522
vt 0.869565 0.956522
vt 0.913043 0.956522
vt 0.956522 0.956522
vt 0.043478 0.586956
vt 0.000000 0.586956
vt 0.086957 0.586956
vt 0.130435 0.586956
vt 0.173913 0.586956
vt 0.217391 0.586956
vt 0.260870 0.586956
vt 0.304348 0.586956
vt 0.347826 0.586956
vt 0.391304 0.586956
vt 0.434783 0.597826
vt 0.434783 0.586956
vt 0.478261 0.586956
vt 0.521739 0.586956
vt 0.565217 0.586956
vt 0.608696 0.586956
vt 0.565217 0.597826
vt 0.652174 0.586956
vt 0.695652 0.586956
vt 0.739130 0.586956
vt 0.782609 0.586956
vt 0.826087 0.586956
vt 0.869565 0.586956
vt 0.913043 0.586956
vt 0.956522 0.586956
vt 1.000000 0.586956
s 1
f 1/1/1 2/2/2 3/3/3
f 4/4/1 5/3/3 6/5/4
f 7/6/1 8/5/5 9/7/6
f 10/8/1 11/7/6 12/9/7
f 13/10/1 14/9/7 15/11/8
f 16/12/1 17/11/8 18/13/9
f 19/14/1 20/13/9 21/15/10
f 22/16/1 23/15/10 24/17/11
f 25/18/12 26/17/11 27/19/13
f 28/20/1 29/19/13 30/21/14
f 31/22/1 32/21/14 33/23/15
f 34/24/1 35/23/16 36/25/17
f 37/26/1 38/25/18 39/27/19
f 40/28/1 41/27/20 42/29/21
f 43/30/22 44/29/21 45/31/23
f 46/32/1 47/31/23 48/33/24
f 49/34/1 50/33/24 51/35/25
f 52/36/1 53/35/25 54/37/26
f 55/38/1 56/37/26 57/39/27
f 58/40/1 59/39/27 60/41/28
f 61/42/1 62/41/28 63/43/29
f 64/44/1 65/43/29 66/45/30
f 67/46/1 68/45/30 69/47/2
f 70/48/31 71/3/3 72/2/2
f 73/2/2 74/49/32 75/48/33
f 76/50/34 77/5/5 78/3/3
f 79/3/3 80/48/35 81/50/34
f 82/51/36 83/7/6 84/5/5
f 85/5/5 86/50/34 87/51/36
f 88/52/37 89/9/7 90/7/6
f 91/7/6 92/51/36 93/52/38
f 94/53/39 95/11/8 96/9/7
f 97/9/7 98/52/40 99/53/39
f 100/54/41 101/13/9 102/11/8
f 103/11/8 104/53/39 105/54/41
f 106/55/42 107/15/43 108/13/44
f 109/13/44 110/54/41 111/55/42
f 112/56/45 113/17/11 114/15/10
f 115/15/10 116/55/42 117/56/45
f 118/57/46 119/19/13 120/17/11
f 121/17/11 122/56/45 123/57/46
f 124/58/47 125/21/48 126/19/13
f 127/19/13 128/57/46 129/58/47
f 130/59/49 131/23/15 132/21/50
f 133/21/50 134/58/47 135/59/49
f 136/60/51 137/25/52 138/23/53
f 139/23/54 140/59/55 141/60/51
f 142/61/56 143/27/57 144/25/18
f 145/25/18 146/60/51 147/61/56
f 148/62/58 149/29/21 150/27/59
f 151/27/60 152/61/56 153/62/58
f 154/63/61 155/31/23 156/29/21
f 157/29/21 158/62/62 159/63/61
f 160/64/63 161/33/24 162/31/23
f 163/31/23 164/63/61 165/64/64
f 166/65/65 167/35/66 168/33/67
f 169/33/67 170/64/63 171/65/65
f 172/66/68 173/37/26 174/35/25
f 175/35/25 176/65/65 177/66/68
f 178/67/69 179/39/27 180/37/26
f 181/37/26 182/66/68 183/67/69
f 184/68/70 185/41/28 186/39/27
f 187/39/27 188/67/69 189/68/70
f 190/69/71 191/43/29 192/41/28
f 193/41/28 194/68/72 195/69/73
f 196/70/74 197/45/30 198/43/29
f 199/43/29 200/69/75 201/70/74
f 202/71/76 203/47/2 204/45/30
f 205/45/30 206/70/74 207/71/76
f 208/72/77 209/48/78 210/49/32
f 211/49/79 212/73/80 213/72/81
f 214/74/82 215/50/34 216/48/78
f 217/48/78 218/72/81 219/74/82
f 220/75/83 221/51/36 222/50/34
f 223/50/34 224/74/82 225/75/83
f 226/76/84 227/52/85 228/51/36
f 229/51/36 230/75/83 231/76/86
f 232/77/87 233/53/88 234/52/89
f 235/52/90 236/76/84 237/77/87
f 238/78/91 239/54/41 240/53/88
f 241/53/39 242/77/87 243/78/91
f 244/79/92 245/55/42 246/54/41
f 247/54/41 248/78/93 249/79/92
f 250/80/94 251/56/95 252/55/42
f 253/55/42 254/79/92 255/80/96
f 256/81/97 257/57/46 258/56/45
f 259/56/95 260/80/94 261/81/97
f 262/82/98 263/58/99 264/57/46
f 265/57/46 266/81/97 267/82/100
f 268/83/101 269/59/102 270/58/103
f 271/58/104 272/82/100 273/83/105
f 274/84/106 275/60/107 276/59/102
f 277/59/102 278/83/105 279/84/106
f 280/85/108 281/61/56 282/60/109
f 283/60/51 284/84/106 285/85/108
f 286/86/110 287/62/111 288/61/56
f 289/61/56 290/85/108 291/86/110
f 292/87/112 293/63/61 294/62/62
f 295/62/113 296/86/110 297/87/112
f 298/88/114 299/64/115 300/63/61
f 301/63/61 302/87/112 303/88/116
f 304/89/117 305/65/65 306/64/63
f 307/64/63 308/88/114 309/89/117
f 310/90/118 311/66/68 312/65/65
f 313/65/119 314/89/120 315/90/118
f 316/91/121 317/67/69 318/66/68
f 319/66/68 320/90/118 321/91/122
f 322/92/123 323/68/124 324/67/69
f 325/67/69 326/91/122 327/92/125
f 328/93/126 329/69/73 330/68/124
f 331/68/124 332/92/125 333/93/127
f 334/94/128 335/70/74 336/69/73
f 337/69/73 338/93/126 339/94/128
f 340/95/80 341/71/79 342/70/74
f 343/70/74 344/94/128 345/95/80
f 346/96/129 347/72/81 348/73/80
f 349/73/80 350/97/130 351/96/129
f 352/98/131 353/74/132 354/72/81
f 355/72/133 356/96/134 357/98/131
f 358/99/135 359/75/83 360/74/82
f 361/74/82 362/98/136 363/99/137
f 364/100/138 365/76/139 366/75/83
f 367/75/83 368/99/140 369/100/138
f 370/101/141 371/77/87 372/76/84
f 373/76/84 374/100/138 375/101/142
f 376/102/143 377/78/144 378/77/87
f 379/77/87 380/101/142 381/102/145
f 382/103/146 383/79/92 384/78/144
f 385/78/144 386/102/145 387/103/146
f 388/104/147 389/80/94 390/79/92
f 391/79/92 392/103/146 393/104/147
f 394/105/148 395/81/149 396/80/94
f 397/80/94 398/104/147 399/105/148
f 400/106/150 401/82/98 402/81/151
f 403/81/97 404/105/148 405/106/152
f 406/107/153 407/83/105 408/82/154
f 409/82/98 410/106/152 411/107/153
f 412/108/155 413/84/106 414/83/105
f 415/83/105 416/107/153 417/108/156
f 418/109/157 419/85/158 420/84/106
f 421/84/106 422/108/156 423/109/157
f 424/110/159 425/86/110 426/85/108
f 427/85/108 428/109/157 429/110/159
f 430/111/160 431/87/112 432/86/110
f 433/86/110 434/110/159 435/111/161
f 436/112/162 437/88/163 438/87/112
f 439/87/112 440/111/164 441/112/165
f 442/113/166 443/89/117 444/88/163
f 445/88/163 446/112/167 447/113/166
f 448/114/168 449/90/169 450/89/170
f 451/89/117 452/113/166 453/114/168
f 454/115/171 455/91/172 456/90/169
f 457/90/118 458/114/168 459/115/171
f 460/116/173 461/92/174 462/91/172
f 463/91/175 464/115/171 465/116/173
f 466/117/176 467/93/127 468/92/177
f 469/92/123 470/116/178 471/117/176
f 472/118/179 473/94/180 474/93/127
f 475/93/127 476/117/181 477/118/179
f 478/119/182 479/95/80 480/94/128
f 481/94/128 482/118/183 483/119/184
f 484/120/185 485/96/186 486/97/187
f 487/97/188 488/121/189 489/120/185
f 490/122/190 491/98/191 492/96/186
f 493/96/192 494/120/185 495/122/190
f 496/123/193 497/99/194 498/98/131
f 499/98/131 500/122/190 501/123/193
f 502/124/195 503/100/138 504/99/137
f 505/99/196 506/123/197 507/124/198
f 508/125/199 509/101/142 510/100/200
f 511/100/138 512/124/195 513/125/199
f 514/126/201 515/102/202 516/101/203
f 517/101/142 518/125/199 519/126/201
f 520/127/204 521/103/205 522/102/202
f 523/102/143 524/126/206 525/127/207
f 526/128/208 527/104/209 528/103/205
f 529/103/210 530/127/204 531/128/208
f 532/129/211 533/105/148 534/104/147
f 535/104/212 536/128/213 537/129/214
f 538/130/215 539/106/216 540/105/217
f 541/105/148 542/129/214 543/130/215
f 544/131/218 545/107/153 546/106/219
f 547/106/220 548/130/221 549/131/218
f 550/132/222 551/108/156 552/107/153
f 553/107/223 554/131/218 555/132/222
f 556/133/224 557/109/225 558/108/226
f 559/108/155 560/132/227 561/133/228
f 562/134/229 563/110/230 564/109/157
f 565/109/157 566/133/224 567/134/231
f 568/135/232 569/111/233 570/110/230
f 571/110/230 572/134/229 573/135/234
f 574/136/235 575/112/236 576/111/237
f 577/111/160 578/135/234 579/136/238
f 580/137/239 581/113/166 582/112/240
f 583/112/241 584/136/238 585/137/242
f 586/138/243 587/114/244 588/113/166
f 589/113/245 590/137/239 591/138/243
f 592/139/246 593/115/171 594/114/168
f 595/114/168 596/138/247 597/139/246
f 598/140/248 599/116/249 600/115/250
f 601/115/171 602/139/246 603/140/248
f 604/141/251 605/117/181 606/116/252
f 607/116/173 608/140/248 609/141/251
f 610/142/253 611/118/254 612/117/176
f 613/117/176 614/141/251 615/142/253
f 616/143/189 617/119/187 618/118/179
f 619/118/255 620/142/253 621/143/189
f 622/144/256 623/120/185 624/121/257
f 625/121/257 626/145/258 627/144/259
f 628/146/260 629/122/190 630/120/185
f 631/120/185 632/144/259 633/146/260
f 634/147/261 635/123/193 636/122/190
f 637/122/190 638/146/260 639/147/262
f 640/148/263 641/124/198 642/123/193
f 643/123/193 644/147/262 645/148/263
f 646/149/264 647/125/199 648/124/198
f 649/124/198 650/148/265 651/149/264
f 652/150/266 653/126/206 654/125/199
f 655/125/199 656/149/264 657/150/266
f 658/151/267 659/127/268 660/126/206
f 661/126/206 662/150/269 663/151/267
f 664/152/270 665/128/208 666/127/271
f 667/127/204 668/151/272 669/152/270
f 670/153/273 671/129/214 672/128/208
f 673/128/208 674/152/270 675/153/273
f 676/154/274 677/130/275 678/129/214
f 679/129/214 680/153/273 681/154/274
f 682/155/276 683/131/218 684/130/275
f 685/130/277 686/154/274 687/155/276
f 688/156/278 689/132/279 690/131/218
f 691/131/218 692/155/280 693/156/281
f 694/157/282 695/133/224 696/132/279
f 697/132/279 698/156/283 699/157/282
f 700/158/284 701/134/285 702/133/224
f 703/133/224 704/157/282 705/158/286
f 706/159/287 707/135/234 708/134/229
f 709/134/288 710/158/286 711/159/287
f 712/160/289 713/136/238 714/135/290
f 715/135/234 716/159/287 717/160/289
f 718/161/291 719/137/242 720/136/238
f 721/136/238 722/160/289 723/161/291
f 724/162/292 725/138/243 726/137/293
f 727/137/294 728/161/291 729/162/292
f 730/163/295 731/139/246 732/138/243
f 733/138/243 734/162/292 735/163/296
f 736/164/297 737/140/248 738/139/298
f 739/139/298 740/163/295 741/164/299
f 742/165/300 743/141/251 744/140/248
f 745/140/248 746/164/301 747/165/300
f 748/166/302 749/142/253 750/141/251
f 751/141/251 752/165/300 753/166/302
f 754/167/258 755/143/303 756/142/253
f 757/142/253 758/166/304 759/167/258
f 760/168/305 761/169/306 762/170/307
f 763/170/307 764/171/308 765/168/305
f 766/169/306 767/172/309 768/173/310
f 769/173/310 770/170/307 771/169/306
f 772/172/309 773/174/311 774/175/312
f 775/175/313 776/173/314 777/172/309
f 778/174/311 779/176/315 780/177/316
f 781/177/317 782/175/312 783/174/311
f 784/176/315 785/178/318 786/179/319
f 787/179/319 788/177/316 789/176/315
f 790/178/320 791/180/321 792/181/322
f 793/181/323 794/179/319 795/178/320
f 796/180/321 797/182/324 798/183/325
f 799/183/325 800/181/323 801/180/321
f 802/182/324 803/184/326 804/185/327
f 805/185/328 806/183/325 807/182/324
f 808/184/326 809/186/329 810/187/330
f 811/187/330 812/185/327 813/184/326
f 814/187/330 815/186/329 816/188/331
f 817/188/331 818/189/332 819/187/330
f 820/189/333 821/188/331 822/190/334
f 823/190/334 824/191/335 825/189/336
f 826/190/334 827/192/337 828/193/338
f 829/193/338 830/191/335 831/190/334
f 832/192/337 833/194/339 834/195/340
f 835/195/341 836/193/338 837/192/337
f 838/194/342 839/196/343 840/197/344
f 841/197/344 842/195/345 843/194/342
f 844/196/346 845/198/347 846/199/348
f 847/199/348 848/197/349 849/196/350
f 850/198/351 851/200/352 852/201/353
f 853/201/353 854/199/348 855/198/354
f 856/200/355 857/202/356 858/203/357
f 859/203/357 860/201/353 861/200/358
f 862/202/356 863/204/359 864/205/360
f 865/205/360 866/203/357 867/202/361
f 868/205/360 869/204/359 870/206/362
f 871/206/363 872/207/364 873/205/360
f 874/207/364 875/206/362 876/208/365
f 877/208/365 878/209/366 879/207/364
f 880/209/366 881/208/365 882/210/367
f 883/210/367 884/211/368 885/209/369
f 886/211/370 887/210/367 888/212/371
f 889/212/372 890/213/373 891/211/374
f 892/213/373 893/212/375 894/214/305
f 895/214/305 896/215/376 897/213/373
f 898/216/377 899/217/378 900/218/379
f 901/218/379 902/219/380 903/216/377
f 904/220/381 905/221/382 906/217/378
f 907/217/378 908/216/377 909/220/383
f 910/222/384 911/223/385 912/221/382
f 913/221/382 914/220/383 915/222/384
f 916/224/386 917/225/387 918/223/388
f 919/223/385 920/222/384 921/224/389
f 922/226/390 923/227/391 924/225/392
f 925/225/387 926/224/386 927/226/390
f 928/228/393 929/229/394 930/227/391
f 931/227/395 932/226/396 933/228/393
f 934/230/397 935/231/398 936/229/399
f 937/229/394 938/228/393 939/230/400
f 940/232/401 941/233/402 942/231/398
f 943/231/398 944/230/403 945/232/401
f 946/234/404 947/235/405 948/233/402
f 949/233/402 950/232/406 951/234/404
f 952/236/407 953/237/408 954/235/405
f 955/235/409 956/234/404 957/236/407
f 958/238/410 959/239/411 960/237/408
f 961/237/408 962/236/407 963/238/410
f 964/240/412 965/241/413 966/239/411
f 967/239/411 968/238/410 969/240/412
f 970/242/414 971/243/415 972/241/413
f 973/241/413 974/240/412 975/242/414
f 976/244/416 977/245/417 978/243/418
f 979/243/418 980/242/414 981/244/416
f 982/246/419 983/247/420 984/245/421
f 985/245/422 986/244/416 987/246/423
f 988/248/424 989/249/425 990/247/426
f 991/247/426 992/246/423 993/248/424
f 994/250/427 995/251/428 996/249/429
f 997/249/430 998/248/424 999/250/431
f 1000/252/432 1001/253/433 1002/251/428
f 1003/251/428 1004/250/431 1005/252/434
f 1006/254/435 1007/255/436 1008/253/433
f 1009/253/437 1010/252/432 1011/254/435
f 1012/256/438 1013/257/439 1014/255/436
f 1015/255/436 1016/254/435 1017/256/438
f 1018/258/440 1019/259/441 1020/257/439
f 1021/257/439 1022/256/438 1023/258/442
f 1024/260/443 1025/261/444 1026/259/441
f 1027/259/445 1028/258/440 1029/260/443
f 1030/262/380 1031/263/446 1032/261/444
f 1033/261/444 1034/260/443 1035/262/380
f 1036/264/447 1037/216/377 1038/219/380
f 1039/219/380 1040/265/448 1041/264/447
f 1042/266/449 1043/220/383 1044/216/377
f 1045/216/377 1046/264/447 1047/266/449
f 1048/267/450 1049/222/384 1050/220/383
f 1051/220/451 1052/266/452 1053/267/450
f 1054/268/453 1055/224/454 1056/222/384
f 1057/222/384 1058/267/450 1059/268/455
f 1060/269/456 1061/226/390 1062/224/386
f 1063/224/454 1064/268/453 1065/269/456
f 1066/270/457 1067/228/393 1068/226/390
f 1069/226/390 1070/269/458 1071/270/459
f 1072/271/460 1073/230/461 1074/228/393
f 1075/228/393 1076/270/462 1077/271/460
f 1078/272/463 1079/232/401 1080/230/464
f 1081/230/464 1082/271/460 1083/272/465
f 1084/273/466 1085/234/404 1086/232/406
f 1087/232/467 1088/272/468 1089/273/469
f 1090/274/470 1091/236/407 1092/234/404
f 1093/234/404 1094/273/469 1095/274/470
f 1096/275/471 1097/238/472 1098/236/407
f 1099/236/407 1100/274/470 1101/275/473
f 1102/276/474 1103/240/412 1104/238/410
f 1105/238/410 1106/275/471 1107/276/474
f 1108/277/475 1109/242/414 1110/240/476
f 1111/240/412 1112/276/474 1113/277/475
f 1114/278/477 1115/244/416 1116/242/414
f 1117/242/414 1118/277/475 1119/278/477
f 1120/279/478 1121/246/479 1122/244/480
f 1123/244/416 1124/278/477 1125/279/478
f 1126/280/481 1127/248/424 1128/246/482
f 1129/246/423 1130/279/478 1131/280/481
f 1132/281/483 1133/250/484 1134/248/424
f 1135/248/424 1136/280/481 1137/281/483
f 1138/282/485 1139/252/432 1140/250/484
f 1141/250/484 1142/281/483 1143/282/485
f 1144/283/486 1145/254/435 1146/252/432
f 1147/252/432 1148/282/485 1149/283/487
f 1150/284/488 1151/256/438 1152/254/489
f 1153/254/435 1154/283/486 1155/284/488
f 1156/285/490 1157/258/440 1158/256/438
f 1159/256/491 1160/284/488 1161/285/490
f 1162/286/492 1163/260/443 1164/258/440
f 1165/258/440 1166/285/490 1167/286/492
f 1168/287/448 1169/262/380 1170/260/443
f 1171/260/443 1172/286/492 1173/287/448
f 1174/288/493 1175/264/447 1176/265/448
f 1177/265/448 1178/289/494 1179/288/493
f 1180/290/495 1181/266/449 1182/264/447
f 1183/264/447 1184/288/493 1185/290/495
f 1186/291/496 1187/267/450 1188/266/449
f 1189/266/449 1190/290/495 1191/291/496
f 1192/292/497 1193/268/498 1194/267/450
f 1195/267/450 1196/291/496 1197/292/497
f 1198/293/499 1199/269/456 1200/268/498
f 1201/268/498 1202/292/497 1203/293/499
f 1204/294/500 1205/270/501 1206/269/456
f 1207/269/456 1208/293/499 1209/294/500
f 1210/295/502 1211/271/460 1212/270/501
f 1213/270/503 1214/294/500 1215/295/504
f 1216/296/505 1217/272/506 1218/271/460
f 1219/271/460 1220/295/502 1221/296/507
f 1222/297/508 1223/273/469 1224/272/465
f 1225/272/465 1226/296/505 1227/297/508
f 1228/298/509 1229/274/470 1230/273/469
f 1231/273/469 1232/297/510 1233/298/509
f 1234/299/511 1235/275/471 1236/274/470
f 1237/274/470 1238/298/512 1239/299/511
f 1240/300/513 1241/276/474 1242/275/471
f 1243/275/471 1244/299/511 1245/300/513
f 1246/301/514 1247/277/475 1248/276/474
f 1249/276/474 1250/300/513 1251/301/514
f 1252/302/515 1253/278/477 1254/277/475
f 1255/277/475 1256/301/514 1257/302/516
f 1258/303/517 1259/279/478 1260/278/477
f 1261/278/477 1262/302/516 1263/303/517
f 1264/304/518 1265/280/481 1266/279/478
f 1267/279/478 1268/303/519 1269/304/518
f 1270/305/520 1271/281/483 1272/280/481
f 1273/280/481 1274/304/518 1275/305/521
f 1276/306/522 1277/282/523 1278/281/483
f 1279/281/483 1280/305/524 1281/306/522
f 1282/307/525 1283/283/486 1284/282/526
f 1285/282/485 1286/306/522 1287/307/525
f 1288/308/527 1289/284/488 1290/283/528
f 1291/283/486 1292/307/525 1293/308/527
f 1294/309/529 1295/285/490 1296/284/530
f 1297/284/488 1298/308/527 1299/309/529
f 1300/310/531 1301/286/492 1302/285/490
f 1303/285/490 1304/309/529 1305/310/531
f 1306/311/494 1307/287/448 1308/286/492
f 1309/286/492 1310/310/531 1311/311/494
f 1312/312/532 1313/288/493 1314/289/494
f 1315/313/532 1316/290/495 1317/288/493
f 1318/314/532 1319/291/496 1320/290/495
f 1321/315/532 1322/292/497 1323/291/496
f 1324/316/532 1325/293/499 1326/292/533
f 1327/317/532 1328/294/500 1329/293/499
f 1330/318/532 1331/295/534 1332/294/500
f 1333/319/532 1334/296/505 1335/295/535
f 1336/320/532 1337/297/536 1338/296/537
f 1339/321/532 1340/298/509 1341/297/538
f 1342/322/532 1343/299/511 1344/298/509
f 1345/323/532 1346/300/513 1347/299/511
f 1348/324/532 1349/301/514 1350/300/513
f 1351/325/532 1352/302/516 1353/301/514
f 1354/326/532 1355/303/517 1356/302/516
f 1357/327/532 1358/304/539 1359/303/517
f 1360/328/532 1361/305/524 1362/304/518
f 1363/329/532 1364/306/522 1365/305/524
f 1366/330/532 1367/307/525 1368/306/522
f 1369/331/532 1370/308/527 1371/307/525
f 1372/332/532 1373/309/529 1374/308/527
f 1375/333/532 1376/310/531 1377/309/529
f 1378/334/532 1379/311/494 1380/310/531
f 1381/218/379 1382/217/378 1383/335/540
f 1384/335/541 1385/336/542 1386/218/379
f 1387/336/542 1388/335/541 1389/169/306
f 1390/169/306 1391/168/543 1392/336/544
f 1393/144/259 1394/145/258 1395/171/376
f 1396/171/308 1397/170/307 1398/144/259
f 1399/217/378 1400/221/545 1401/337/546
f 1402/337/547 1403/335/548 1404/217/378
f 1405/335/548 1406/337/546 1407/172/309
f 1408/172/309 1409/169/306 1410/335/541
f 1411/146/260 1412/144/259 1413/170/307
f 1414/170/549 1415/173/550 1416/146/551
f 1417/221/382 1418/223/385 1419/338/552
f 1420/338/552 1421/337/546 1422/221/382
f 1423/337/553 1424/338/552 1425/174/311
f 1426/174/311 1427/172/309 1428/337/546
f 1429/147/554 1430/146/260 1431/173/550
f 1432/173/550 1433/175/312 1434/147/555
f 1435/223/385 1436/225/387 1437/339/556
f 1438/339/557 1439/338/552 1440/223/385
f 1441/338/552 1442/339/556 1443/176/315
f 1444/176/315 1445/174/311 1446/338/552
f 1447/148/263 1448/147/558 1449/175/312
f 1450/175/312 1451/177/316 1452/148/263
f 1453/225/387 1454/227/391 1455/340/559
f 1456/340/559 1457/339/560 1458/225/387
f 1459/339/560 1460/340/559 1461/178/561
f 1462/178/318 1463/176/315 1464/339/560
f 1465/149/264 1466/148/562 1467/177/316
f 1468/177/316 1469/179/319 1470/149/264
f 1471/227/391 1472/229/563 1473/341/564
f 1474/341/564 1475/340/559 1476/227/565
f 1477/340/559 1478/341/564 1479/180/321
f 1480/180/321 1481/178/318 1482/340/559
f 1483/150/566 1484/149/264 1485/179/567
f 1486/179/319 1487/181/323 1488/150/568
f 1489/341/564 1490/229/563 1491/231/398
f 1492/231/398 1493/342/569 1494/341/564
f 1495/341/564 1496/342/569 1497/182/324
f 1498/182/570 1499/180/321 1500/341/571
f 1501/151/267 1502/150/568 1503/181/323
f 1504/181/323 1505/183/325 1506/151/572
f 1507/231/398 1508/233/402 1509/343/573
f 1510/343/573 1511/342/569 1512/231/398
f 1513/342/569 1514/343/574 1515/184/326
f 1516/184/326 1517/182/324 1518/342/569
f 1519/152/270 1520/151/267 1521/183/325
f 1522/183/325 1523/185/327 1524/152/270
f 1525/343/573 1526/233/575 1527/235/405
f 1528/235/405 1529/344/576 1530/343/577
f 1531/343/578 1532/344/576 1533/186/329
f 1534/186/579 1535/184/326 1536/343/573
f 1537/153/273 1538/152/270 1539/185/327
f 1540/185/327 1541/187/330 1542/153/580
f 1543/344/576 1544/235/405 1545/237/408
f 1546/344/576 1547/237/581 1548/345/582
f 1549/344/576 1550/345/582 1551/346/583
f 1552/186/329 1553/344/584 1554/346/583
f 1555/346/583 1556/188/331 1557/186/329
f 1558/189/585 1559/154/586 1560/153/273
f 1561/153/273 1562/187/330 1563/189/332
f 1564/188/331 1565/346/583 1566/347/587
f 1567/347/587 1568/190/334 1569/188/331
f 1570/191/335 1571/155/276 1572/154/586
f 1573/154/274 1574/189/336 1575/191/335
f 1576/347/587 1577/348/588 1578/192/337
f 1579/192/337 1580/190/334 1581/347/587
f 1582/156/589 1583/155/276 1584/191/335
f 1585/191/335 1586/193/338 1587/156/283
f 1588/348/588 1589/349/590 1590/194/342
f 1591/194/342 1592/192/337 1593/348/588
f 1594/157/591 1595/156/283 1596/193/338
f 1597/193/338 1598/195/341 1599/157/282
f 1600/243/592 1601/245/593 1602/350/594
f 1603/351/595 1604/243/592 1605/350/594
f 1606/349/590 1607/351/595 1608/350/594
f 1609/349/590 1610/350/596 1611/196/343
f 1612/196/343 1613/194/342 1614/349/590
f 1615/158/284 1616/157/282 1617/195/597
f 1618/195/345 1619/197/349 1620/158/598
f 1621/245/599 1622/247/600 1623/352/601
f 1624/352/602 1625/350/603 1626/245/421
f 1627/350/596 1628/352/601 1629/198/354
f 1630/198/354 1631/196/346 1632/350/603
f 1633/159/287 1634/158/284 1635/197/349
f 1636/197/349 1637/199/348 1638/159/287
f 1639/247/426 1640/249/429 1641/353/604
f 1642/353/605 1643/352/602 1644/247/426
f 1645/352/602 1646/353/604 1647/200/352
f 1648/200/358 1649/198/351 1650/352/602
f 1651/160/606 1652/159/287 1653/199/348
f 1654/199/348 1655/201/353 1656/160/289
f 1657/249/607 1658/251/428 1659/354/608
f 1660/354/608 1661/353/605 1662/249/429
f 1663/353/605 1664/354/608 1665/202/356
f 1666/202/356 1667/200/358 1668/353/605
f 1669/161/609 1670/160/289 1671/201/353
f 1672/201/353 1673/203/357 1674/161/291
f 1675/354/608 1676/251/610 1677/253/433
f 1678/253/433 1679/355/611 1680/354/608
f 1681/202/361 1682/354/608 1683/355/611
f 1684/355/611 1685/204/359 1686/202/356
f 1687/162/612 1688/161/613 1689/203/357
f 1690/203/357 1691/205/360 1692/162/292
f 1693/355/611 1694/253/433 1695/255/436
f 1696/255/614 1697/356/615 1698/355/611
f 1699/204/359 1700/355/611 1701/356/616
f 1702/356/615 1703/206/362 1704/204/359
f 1705/207/364 1706/163/295 1707/162/292
f 1708/162/617 1709/205/618 1710/207/619
f 1711/356/620 1712/255/621 1713/257/439
f 1714/257/439 1715/357/622 1716/356/620
f 1717/206/362 1718/356/623 1719/357/622
f 1720/357/622 1721/208/365 1722/206/362
f 1723/209/366 1724/164/301 1725/163/295
f 1726/163/295 1727/207/364 1728/209/624
f 1729/357/622 1730/257/625 1731/259/445
f 1732/259/626 1733/358/627 1734/357/622
f 1735/208/365 1736/357/622 1737/358/627
f 1738/358/628 1739/210/367 1740/208/365
f 1741/211/370 1742/165/300 1743/164/299
f 1744/164/629 1745/209/366 1746/211/368
f 1747/358/628 1748/259/630 1749/261/444
f 1750/261/631 1751/359/632 1752/358/628
f 1753/210/367 1754/358/633 1755/359/632
f 1756/359/632 1757/212/372 1758/210/367
f 1759/213/373 1760/166/302 1761/165/300
f 1762/165/300 1763/211/370 1764/213/373
f 1765/359/632 1766/261/444 1767/263/634
f 1768/263/379 1769/360/542 1770/359/635
f 1771/212/636 1772/359/635 1773/360/542
f 1774/360/637 1775/214/638 1776/212/636
f 1777/215/376 1778/167/258 1779/166/302
f 1780/166/302 1781/213/373 1782/215/639
