# Blender 5.2.0 LTS
# www.blender.org
mtllib touch_Point1.mtl
o touch_Point1
v 0.000000 -0.000000 -0.000000
v 0.019022 -0.000002 -0.046240
v -0.000122 0.000001 -0.050000
v -0.019022 0.000002 0.046241
v 0.000000 -0.000000 -0.000000
v -0.035269 0.000005 0.035441
v 0.035270 -0.000005 -0.035440
v 0.019022 -0.000002 -0.046240
v 0.000000 -0.000000 -0.000000
v -0.035269 0.000005 0.035441
v 0.000000 -0.000000 -0.000000
v -0.046148 0.000007 0.019246
v 0.046147 -0.000007 -0.019246
v 0.000000 -0.000000 -0.000000
v 0.050000 -0.000008 -0.000122
v -0.046148 0.000007 0.019246
v 0.000000 -0.000000 -0.000000
v -0.050000 0.000008 0.000121
v -0.019247 0.000004 -0.046147
v 0.000000 -0.000000 -0.000000
v -0.000122 0.000001 -0.050000
v 0.019246 -0.000004 0.046148
v 0.000000 -0.000000 -0.000000
v 0.000121 -0.000001 0.050000
v 0.035441 -0.000007 0.035269
v 0.000000 -0.000000 -0.000000
v 0.019246 -0.000004 0.046148
v -0.035441 0.000007 -0.035268
v 0.000000 -0.000000 -0.000000
v -0.019247 0.000004 -0.046147
v 0.000000 -0.000000 -0.000000
v 0.046240 -0.000008 0.019022
v 0.050000 -0.000008 -0.000122
v -0.046241 0.000008 -0.019021
v 0.000000 -0.000000 -0.000000
v -0.035441 0.000007 -0.035268
v 0.000000 -0.000000 -0.000000
v 0.046147 -0.000007 -0.019246
v 0.035270 -0.000005 -0.035440
v 0.046240 -0.000008 0.019022
v 0.000000 -0.000000 -0.000000
v 0.035441 -0.000007 0.035269
v -0.050000 0.000008 0.000121
v 0.000000 -0.000000 -0.000000
v -0.046241 0.000008 -0.019021
v 0.000121 -0.000001 0.050000
v 0.000000 -0.000000 -0.000000
v -0.019022 0.000002 0.046241
vn 0.0002 1.0000 -0.0000
vn 0.0001 1.0000 -0.0000
vn 0.0002 1.0000 0.0001
vt 0.500000 0.500000
vt 0.039744 0.309356
vt 0.001822 0.500000
vt 0.960256 0.690644
vt 0.852265 0.852265
vt 0.147735 0.147735
vt 0.690644 0.960256
vt 0.309356 0.039744
vt 0.500000 0.001822
vt 0.500000 0.998178
vt 0.039744 0.690644
vt 0.960256 0.309356
vt 0.998178 0.500000
vt 0.852265 0.147735
vt 0.147735 0.852265
vt 0.690644 0.039744
vt 0.309356 0.960256
s 1
f 1/1/1 2/2/1 3/3/1
f 4/4/1 5/1/1 6/5/1
f 7/6/1 8/2/1 9/1/1
f 10/5/1 11/1/1 12/7/1
f 13/8/1 14/1/1 15/9/1
f 16/7/1 17/1/1 18/10/1
f 19/11/2 20/1/2 21/3/2
f 22/12/2 23/1/2 24/13/2
f 25/14/1 26/1/1 27/12/1
f 28/15/1 29/1/1 30/11/1
f 31/1/1 32/16/1 33/9/1
f 34/17/3 35/1/3 36/15/3
f 37/1/1 38/8/1 39/6/1
f 40/16/1 41/1/1 42/14/1
f 43/10/1 44/1/1 45/17/1
f 46/13/1 47/1/1 48/4/1
